<?xml version="1.0" encoding="utf-8"?>
<svg xmlns="http://www.w3.org/2000/svg" xmlns:xlink="http://www.w3.org/1999/xlink" width="672" height="480" viewBox="0 0 2688 1920">
<defs>
  <clipPath id="clip670">
    <rect x="0" y="0" width="2688" height="1920"/>
  </clipPath>
</defs>
<path clip-path="url(#clip670)" d="
M0 1920 L2688 1920 L2688 0 L0 0  Z
  " fill="#ffffff" fill-rule="evenodd" fill-opacity="1"/>
<defs>
  <clipPath id="clip671">
    <rect x="537" y="0" width="1883" height="1883"/>
  </clipPath>
</defs>
<path clip-path="url(#clip670)" d="
M141.839 1800.78 L2640.76 1800.78 L2640.76 47.2441 L141.839 47.2441  Z
  " fill="#ffffff" fill-rule="evenodd" fill-opacity="1"/>
<defs>
  <clipPath id="clip672">
    <rect x="141" y="47" width="2500" height="1755"/>
  </clipPath>
</defs>
<polyline clip-path="url(#clip672)" style="stroke:#000000; stroke-linecap:butt; stroke-linejoin:round; stroke-width:2; stroke-opacity:0.1; fill:none" points="
  212.563,1800.78 212.563,47.2441 
  "/>
<polyline clip-path="url(#clip672)" style="stroke:#000000; stroke-linecap:butt; stroke-linejoin:round; stroke-width:2; stroke-opacity:0.1; fill:none" points="
  837.901,1800.78 837.901,47.2441 
  "/>
<polyline clip-path="url(#clip672)" style="stroke:#000000; stroke-linecap:butt; stroke-linejoin:round; stroke-width:2; stroke-opacity:0.1; fill:none" points="
  1463.24,1800.78 1463.24,47.2441 
  "/>
<polyline clip-path="url(#clip672)" style="stroke:#000000; stroke-linecap:butt; stroke-linejoin:round; stroke-width:2; stroke-opacity:0.1; fill:none" points="
  2088.58,1800.78 2088.58,47.2441 
  "/>
<polyline clip-path="url(#clip670)" style="stroke:#000000; stroke-linecap:butt; stroke-linejoin:round; stroke-width:4; stroke-opacity:1; fill:none" points="
  141.839,1800.78 2640.76,1800.78 
  "/>
<polyline clip-path="url(#clip670)" style="stroke:#000000; stroke-linecap:butt; stroke-linejoin:round; stroke-width:4; stroke-opacity:1; fill:none" points="
  212.563,1800.78 212.563,1781.88 
  "/>
<polyline clip-path="url(#clip670)" style="stroke:#000000; stroke-linecap:butt; stroke-linejoin:round; stroke-width:4; stroke-opacity:1; fill:none" points="
  837.901,1800.78 837.901,1781.88 
  "/>
<polyline clip-path="url(#clip670)" style="stroke:#000000; stroke-linecap:butt; stroke-linejoin:round; stroke-width:4; stroke-opacity:1; fill:none" points="
  1463.24,1800.78 1463.24,1781.88 
  "/>
<polyline clip-path="url(#clip670)" style="stroke:#000000; stroke-linecap:butt; stroke-linejoin:round; stroke-width:4; stroke-opacity:1; fill:none" points="
  2088.58,1800.78 2088.58,1781.88 
  "/>
<path clip-path="url(#clip670)" d="M212.563 1834 Q208.952 1834 207.124 1837.57 Q205.318 1841.11 205.318 1848.24 Q205.318 1855.34 207.124 1858.91 Q208.952 1862.45 212.563 1862.45 Q216.198 1862.45 218.003 1858.91 Q219.832 1855.34 219.832 1848.24 Q219.832 1841.11 218.003 1837.57 Q216.198 1834 212.563 1834 M212.563 1830.3 Q218.374 1830.3 221.429 1834.9 Q224.508 1839.49 224.508 1848.24 Q224.508 1856.96 221.429 1861.57 Q218.374 1866.15 212.563 1866.15 Q206.753 1866.15 203.675 1861.57 Q200.619 1856.96 200.619 1848.24 Q200.619 1839.49 203.675 1834.9 Q206.753 1830.3 212.563 1830.3 Z" fill="#000000" fill-rule="evenodd" fill-opacity="1" /><path clip-path="url(#clip670)" d="M828.179 1830.92 L846.536 1830.92 L846.536 1834.86 L832.462 1834.86 L832.462 1843.33 Q833.48 1842.98 834.499 1842.82 Q835.517 1842.64 836.536 1842.64 Q842.323 1842.64 845.702 1845.81 Q849.082 1848.98 849.082 1854.4 Q849.082 1859.97 845.61 1863.08 Q842.137 1866.15 835.818 1866.15 Q833.642 1866.15 831.374 1865.78 Q829.128 1865.41 826.721 1864.67 L826.721 1859.97 Q828.804 1861.11 831.026 1861.66 Q833.249 1862.22 835.725 1862.22 Q839.73 1862.22 842.068 1860.11 Q844.406 1858.01 844.406 1854.4 Q844.406 1850.78 842.068 1848.68 Q839.73 1846.57 835.725 1846.57 Q833.85 1846.57 831.976 1846.99 Q830.124 1847.4 828.179 1848.28 L828.179 1830.92 Z" fill="#000000" fill-rule="evenodd" fill-opacity="1" /><path clip-path="url(#clip670)" d="M1437.93 1861.55 L1445.57 1861.55 L1445.57 1835.18 L1437.26 1836.85 L1437.26 1832.59 L1445.52 1830.92 L1450.2 1830.92 L1450.2 1861.55 L1457.83 1861.55 L1457.83 1865.48 L1437.93 1865.48 L1437.93 1861.55 Z" fill="#000000" fill-rule="evenodd" fill-opacity="1" /><path clip-path="url(#clip670)" d="M1477.28 1834 Q1473.67 1834 1471.84 1837.57 Q1470.03 1841.11 1470.03 1848.24 Q1470.03 1855.34 1471.84 1858.91 Q1473.67 1862.45 1477.28 1862.45 Q1480.91 1862.45 1482.72 1858.91 Q1484.55 1855.34 1484.55 1848.24 Q1484.55 1841.11 1482.72 1837.57 Q1480.91 1834 1477.28 1834 M1477.28 1830.3 Q1483.09 1830.3 1486.14 1834.9 Q1489.22 1839.49 1489.22 1848.24 Q1489.22 1856.96 1486.14 1861.57 Q1483.09 1866.15 1477.28 1866.15 Q1471.47 1866.15 1468.39 1861.57 Q1465.33 1856.96 1465.33 1848.24 Q1465.33 1839.49 1468.39 1834.9 Q1471.47 1830.3 1477.28 1830.3 Z" fill="#000000" fill-rule="evenodd" fill-opacity="1" /><path clip-path="url(#clip670)" d="M2063.76 1861.55 L2071.4 1861.55 L2071.4 1835.18 L2063.09 1836.85 L2063.09 1832.59 L2071.36 1830.92 L2076.03 1830.92 L2076.03 1861.55 L2083.67 1861.55 L2083.67 1865.48 L2063.76 1865.48 L2063.76 1861.55 Z" fill="#000000" fill-rule="evenodd" fill-opacity="1" /><path clip-path="url(#clip670)" d="M2093.16 1830.92 L2111.52 1830.92 L2111.52 1834.86 L2097.44 1834.86 L2097.44 1843.33 Q2098.46 1842.98 2099.48 1842.82 Q2100.5 1842.64 2101.52 1842.64 Q2107.3 1842.64 2110.68 1845.81 Q2114.06 1848.98 2114.06 1854.4 Q2114.06 1859.97 2110.59 1863.08 Q2107.12 1866.15 2100.8 1866.15 Q2098.62 1866.15 2096.35 1865.78 Q2094.11 1865.41 2091.7 1864.67 L2091.7 1859.97 Q2093.79 1861.11 2096.01 1861.66 Q2098.23 1862.22 2100.71 1862.22 Q2104.71 1862.22 2107.05 1860.11 Q2109.39 1858.01 2109.39 1854.4 Q2109.39 1850.78 2107.05 1848.68 Q2104.71 1846.57 2100.71 1846.57 Q2098.83 1846.57 2096.96 1846.99 Q2095.1 1847.4 2093.16 1848.28 L2093.16 1830.92 Z" fill="#000000" fill-rule="evenodd" fill-opacity="1" /><polyline clip-path="url(#clip672)" style="stroke:#000000; stroke-linecap:butt; stroke-linejoin:round; stroke-width:2; stroke-opacity:0.1; fill:none" points="
  141.839,1751.15 2640.76,1751.15 
  "/>
<polyline clip-path="url(#clip672)" style="stroke:#000000; stroke-linecap:butt; stroke-linejoin:round; stroke-width:2; stroke-opacity:0.1; fill:none" points="
  141.839,1312.34 2640.76,1312.34 
  "/>
<polyline clip-path="url(#clip672)" style="stroke:#000000; stroke-linecap:butt; stroke-linejoin:round; stroke-width:2; stroke-opacity:0.1; fill:none" points="
  141.839,873.529 2640.76,873.529 
  "/>
<polyline clip-path="url(#clip672)" style="stroke:#000000; stroke-linecap:butt; stroke-linejoin:round; stroke-width:2; stroke-opacity:0.1; fill:none" points="
  141.839,434.718 2640.76,434.718 
  "/>
<polyline clip-path="url(#clip670)" style="stroke:#000000; stroke-linecap:butt; stroke-linejoin:round; stroke-width:4; stroke-opacity:1; fill:none" points="
  141.839,1800.78 141.839,47.2441 
  "/>
<polyline clip-path="url(#clip670)" style="stroke:#000000; stroke-linecap:butt; stroke-linejoin:round; stroke-width:4; stroke-opacity:1; fill:none" points="
  141.839,1751.15 160.737,1751.15 
  "/>
<polyline clip-path="url(#clip670)" style="stroke:#000000; stroke-linecap:butt; stroke-linejoin:round; stroke-width:4; stroke-opacity:1; fill:none" points="
  141.839,1312.34 160.737,1312.34 
  "/>
<polyline clip-path="url(#clip670)" style="stroke:#000000; stroke-linecap:butt; stroke-linejoin:round; stroke-width:4; stroke-opacity:1; fill:none" points="
  141.839,873.529 160.737,873.529 
  "/>
<polyline clip-path="url(#clip670)" style="stroke:#000000; stroke-linecap:butt; stroke-linejoin:round; stroke-width:4; stroke-opacity:1; fill:none" points="
  141.839,434.718 160.737,434.718 
  "/>
<path clip-path="url(#clip670)" d="M89.5751 1736.95 Q85.964 1736.95 84.1353 1740.51 Q82.3297 1744.06 82.3297 1751.19 Q82.3297 1758.29 84.1353 1761.86 Q85.964 1765.4 89.5751 1765.4 Q93.2093 1765.4 95.0148 1761.86 Q96.8435 1758.29 96.8435 1751.19 Q96.8435 1744.06 95.0148 1740.51 Q93.2093 1736.95 89.5751 1736.95 M89.5751 1733.25 Q95.3852 1733.25 98.4408 1737.85 Q101.519 1742.44 101.519 1751.19 Q101.519 1759.91 98.4408 1764.52 Q95.3852 1769.1 89.5751 1769.1 Q83.7649 1769.1 80.6862 1764.52 Q77.6307 1759.91 77.6307 1751.19 Q77.6307 1742.44 80.6862 1737.85 Q83.7649 1733.25 89.5751 1733.25 Z" fill="#000000" fill-rule="evenodd" fill-opacity="1" /><path clip-path="url(#clip670)" d="M80.6168 1295.06 L98.9732 1295.06 L98.9732 1299 L84.8992 1299 L84.8992 1307.47 Q85.9177 1307.12 86.9362 1306.96 Q87.9547 1306.77 88.9732 1306.77 Q94.7602 1306.77 98.1398 1309.94 Q101.519 1313.12 101.519 1318.53 Q101.519 1324.11 98.0472 1327.21 Q94.575 1330.29 88.2556 1330.29 Q86.0797 1330.29 83.8112 1329.92 Q81.5658 1329.55 79.1584 1328.81 L79.1584 1324.11 Q81.2418 1325.24 83.464 1325.8 Q85.6862 1326.36 88.163 1326.36 Q92.1676 1326.36 94.5056 1324.25 Q96.8435 1322.14 96.8435 1318.53 Q96.8435 1314.92 94.5056 1312.81 Q92.1676 1310.71 88.163 1310.71 Q86.288 1310.71 84.4131 1311.12 Q82.5612 1311.54 80.6168 1312.42 L80.6168 1295.06 Z" fill="#000000" fill-rule="evenodd" fill-opacity="1" /><path clip-path="url(#clip670)" d="M50.2234 886.874 L57.8623 886.874 L57.8623 860.508 L49.5521 862.175 L49.5521 857.916 L57.816 856.249 L62.4919 856.249 L62.4919 886.874 L70.1307 886.874 L70.1307 890.809 L50.2234 890.809 L50.2234 886.874 Z" fill="#000000" fill-rule="evenodd" fill-opacity="1" /><path clip-path="url(#clip670)" d="M89.5751 859.328 Q85.964 859.328 84.1353 862.892 Q82.3297 866.434 82.3297 873.564 Q82.3297 880.67 84.1353 884.235 Q85.964 887.777 89.5751 887.777 Q93.2093 887.777 95.0148 884.235 Q96.8435 880.67 96.8435 873.564 Q96.8435 866.434 95.0148 862.892 Q93.2093 859.328 89.5751 859.328 M89.5751 855.624 Q95.3852 855.624 98.4408 860.23 Q101.519 864.814 101.519 873.564 Q101.519 882.29 98.4408 886.897 Q95.3852 891.48 89.5751 891.48 Q83.7649 891.48 80.6862 886.897 Q77.6307 882.29 77.6307 873.564 Q77.6307 864.814 80.6862 860.23 Q83.7649 855.624 89.5751 855.624 Z" fill="#000000" fill-rule="evenodd" fill-opacity="1" /><path clip-path="url(#clip670)" d="M51.2188 448.063 L58.8576 448.063 L58.8576 421.697 L50.5475 423.364 L50.5475 419.105 L58.8113 417.438 L63.4872 417.438 L63.4872 448.063 L71.1261 448.063 L71.1261 451.998 L51.2188 451.998 L51.2188 448.063 Z" fill="#000000" fill-rule="evenodd" fill-opacity="1" /><path clip-path="url(#clip670)" d="M80.6168 417.438 L98.9732 417.438 L98.9732 421.373 L84.8992 421.373 L84.8992 429.845 Q85.9177 429.498 86.9362 429.336 Q87.9547 429.151 88.9732 429.151 Q94.7602 429.151 98.1398 432.322 Q101.519 435.493 101.519 440.91 Q101.519 446.489 98.0472 449.591 Q94.575 452.669 88.2556 452.669 Q86.0797 452.669 83.8112 452.299 Q81.5658 451.929 79.1584 451.188 L79.1584 446.489 Q81.2418 447.623 83.464 448.179 Q85.6862 448.734 88.163 448.734 Q92.1676 448.734 94.5056 446.628 Q96.8435 444.521 96.8435 440.91 Q96.8435 437.299 94.5056 435.192 Q92.1676 433.086 88.163 433.086 Q86.288 433.086 84.4131 433.503 Q82.5612 433.919 80.6168 434.799 L80.6168 417.438 Z" fill="#000000" fill-rule="evenodd" fill-opacity="1" /><polyline clip-path="url(#clip672)" style="stroke:#009af9; stroke-linecap:butt; stroke-linejoin:round; stroke-width:4; stroke-opacity:1; fill:none" points="
  212.563,1751.15 216.401,1751.15 220.238,1751.15 224.075,1751.14 227.912,1751.12 263.391,1750.18 298.871,1746.46 316.611,1743.02 334.351,1738.27 352.09,1732.07 
  369.83,1724.28 391.152,1712.7 412.474,1698.6 433.795,1681.95 455.117,1662.81 473.144,1644.77 491.171,1625.15 509.199,1604.08 527.226,1581.74 605.557,1475.32 
  677.77,1376.75 697.126,1352.42 716.481,1329.48 735.836,1308.17 755.191,1288.67 777.616,1268.53 800.041,1251.15 822.466,1236.59 844.891,1224.8 864.82,1216.55 
  884.748,1210.25 904.677,1205.71 924.606,1202.68 959.557,1200.16 994.508,1199.73 1032.61,1199.43 1070.72,1196.94 1089.89,1194.15 1109.05,1189.98 1128.22,1184.22 
  1147.39,1176.69 1168.58,1166.13 1189.77,1153.12 1210.96,1137.59 1232.15,1119.58 1252.31,1100.2 1272.47,1078.78 1292.64,1055.52 1312.8,1030.63 1396.66,916.492 
  1467.25,820.637 1488.79,793.905 1510.34,768.999 1531.88,746.209 1553.43,725.763 1573.17,709.225 1592.9,694.853 1612.64,682.661 1632.38,672.606 1650.61,665.139 
  1668.84,659.302 1687.06,654.949 1705.29,651.901 1742.22,648.849 1779.15,648.3 1820.54,647.941 1861.93,644.855 1880.68,641.782 1899.44,637.335 1918.19,631.321 
  1936.94,623.577 1958.41,612.434 1979.88,598.752 2001.35,582.49 2022.82,563.683 2042.7,544.095 2062.58,522.561 2082.46,499.272 2102.34,474.464 2141.54,422.188 
  2180.74,367.512 2218.79,314.638 2256.85,264.402 2276.36,240.392 2295.87,217.901 2315.37,197.143 2334.88,178.289 2356.25,159.965 2377.62,144.173 2399,130.936 
  2420.37,120.203 2451.41,108.802 2482.46,101.772 2513.51,98.209 2544.55,96.9958 2550.92,96.9246 2557.29,96.8879 2563.66,96.8744 2570.03,96.8724 
  "/>
<path clip-path="url(#clip670)" d="
M2227.37 209.375 L2557.46 209.375 L2557.46 105.695 L2227.37 105.695  Z
  " fill="#ffffff" fill-rule="evenodd" fill-opacity="1"/>
<polyline clip-path="url(#clip670)" style="stroke:#000000; stroke-linecap:butt; stroke-linejoin:round; stroke-width:4; stroke-opacity:1; fill:none" points="
  2227.37,209.375 2557.46,209.375 2557.46,105.695 2227.37,105.695 2227.37,209.375 
  "/>
<polyline clip-path="url(#clip670)" style="stroke:#009af9; stroke-linecap:butt; stroke-linejoin:round; stroke-width:4; stroke-opacity:1; fill:none" points="
  2255.14,157.535 2421.73,157.535 
  "/>
<path clip-path="url(#clip670)" d="M2463.34 177.223 Q2461.53 181.852 2459.82 183.264 Q2458.11 184.676 2455.24 184.676 L2451.83 184.676 L2451.83 181.112 L2454.33 181.112 Q2456.09 181.112 2457.07 180.278 Q2458.04 179.445 2459.22 176.343 L2459.98 174.399 L2449.5 148.889 L2454.01 148.889 L2462.11 169.167 L2470.21 148.889 L2474.73 148.889 L2463.34 177.223 Z" fill="#000000" fill-rule="evenodd" fill-opacity="1" /><path clip-path="url(#clip670)" d="M2482.02 170.88 L2489.66 170.88 L2489.66 144.515 L2481.35 146.181 L2481.35 141.922 L2489.61 140.255 L2494.29 140.255 L2494.29 170.88 L2501.93 170.88 L2501.93 174.815 L2482.02 174.815 L2482.02 170.88 Z" fill="#000000" fill-rule="evenodd" fill-opacity="1" /></svg>
