<?xml version="1.0" encoding="utf-8"?>
<svg xmlns="http://www.w3.org/2000/svg" xmlns:xlink="http://www.w3.org/1999/xlink" width="672" height="480" viewBox="0 0 2688 1920">
<defs>
  <clipPath id="clip970">
    <rect x="0" y="0" width="2688" height="1920"/>
  </clipPath>
</defs>
<path clip-path="url(#clip970)" d="
M0 1920 L2688 1920 L2688 0 L0 0  Z
  " fill="#ffffff" fill-rule="evenodd" fill-opacity="1"/>
<defs>
  <clipPath id="clip971">
    <rect x="537" y="0" width="1883" height="1883"/>
  </clipPath>
</defs>
<path clip-path="url(#clip970)" d="
M181.747 1734.12 L2640.76 1734.12 L2640.76 127.792 L181.747 127.792  Z
  " fill="#ffffff" fill-rule="evenodd" fill-opacity="1"/>
<defs>
  <clipPath id="clip972">
    <rect x="181" y="127" width="2460" height="1607"/>
  </clipPath>
</defs>
<polyline clip-path="url(#clip972)" style="stroke:#000000; stroke-linecap:butt; stroke-linejoin:round; stroke-width:2; stroke-opacity:0.1; fill:none" points="
  251.341,1734.12 251.341,127.792 
  "/>
<polyline clip-path="url(#clip972)" style="stroke:#000000; stroke-linecap:butt; stroke-linejoin:round; stroke-width:2; stroke-opacity:0.1; fill:none" points="
  831.296,1734.12 831.296,127.792 
  "/>
<polyline clip-path="url(#clip972)" style="stroke:#000000; stroke-linecap:butt; stroke-linejoin:round; stroke-width:2; stroke-opacity:0.1; fill:none" points="
  1411.25,1734.12 1411.25,127.792 
  "/>
<polyline clip-path="url(#clip972)" style="stroke:#000000; stroke-linecap:butt; stroke-linejoin:round; stroke-width:2; stroke-opacity:0.1; fill:none" points="
  1991.21,1734.12 1991.21,127.792 
  "/>
<polyline clip-path="url(#clip972)" style="stroke:#000000; stroke-linecap:butt; stroke-linejoin:round; stroke-width:2; stroke-opacity:0.1; fill:none" points="
  2571.16,1734.12 2571.16,127.792 
  "/>
<polyline clip-path="url(#clip970)" style="stroke:#000000; stroke-linecap:butt; stroke-linejoin:round; stroke-width:4; stroke-opacity:1; fill:none" points="
  181.747,1734.12 2640.76,1734.12 
  "/>
<polyline clip-path="url(#clip970)" style="stroke:#000000; stroke-linecap:butt; stroke-linejoin:round; stroke-width:4; stroke-opacity:1; fill:none" points="
  251.341,1734.12 251.341,1715.22 
  "/>
<polyline clip-path="url(#clip970)" style="stroke:#000000; stroke-linecap:butt; stroke-linejoin:round; stroke-width:4; stroke-opacity:1; fill:none" points="
  831.296,1734.12 831.296,1715.22 
  "/>
<polyline clip-path="url(#clip970)" style="stroke:#000000; stroke-linecap:butt; stroke-linejoin:round; stroke-width:4; stroke-opacity:1; fill:none" points="
  1411.25,1734.12 1411.25,1715.22 
  "/>
<polyline clip-path="url(#clip970)" style="stroke:#000000; stroke-linecap:butt; stroke-linejoin:round; stroke-width:4; stroke-opacity:1; fill:none" points="
  1991.21,1734.12 1991.21,1715.22 
  "/>
<polyline clip-path="url(#clip970)" style="stroke:#000000; stroke-linecap:butt; stroke-linejoin:round; stroke-width:4; stroke-opacity:1; fill:none" points="
  2571.16,1734.12 2571.16,1715.22 
  "/>
<path clip-path="url(#clip970)" d="M251.341 1767.34 Q247.73 1767.34 245.901 1770.9 Q244.096 1774.45 244.096 1781.58 Q244.096 1788.68 245.901 1792.25 Q247.73 1795.79 251.341 1795.79 Q254.975 1795.79 256.781 1792.25 Q258.61 1788.68 258.61 1781.58 Q258.61 1774.45 256.781 1770.9 Q254.975 1767.34 251.341 1767.34 M251.341 1763.64 Q257.151 1763.64 260.207 1768.24 Q263.286 1772.83 263.286 1781.58 Q263.286 1790.3 260.207 1794.91 Q257.151 1799.49 251.341 1799.49 Q245.531 1799.49 242.452 1794.91 Q239.397 1790.3 239.397 1781.58 Q239.397 1772.83 242.452 1768.24 Q245.531 1763.64 251.341 1763.64 Z" fill="#000000" fill-rule="evenodd" fill-opacity="1" /><path clip-path="url(#clip970)" d="M825.949 1794.89 L842.268 1794.89 L842.268 1798.82 L820.324 1798.82 L820.324 1794.89 Q822.986 1792.13 827.569 1787.5 Q832.176 1782.85 833.356 1781.51 Q835.602 1778.98 836.481 1777.25 Q837.384 1775.49 837.384 1773.8 Q837.384 1771.04 835.44 1769.31 Q833.518 1767.57 830.417 1767.57 Q828.218 1767.57 825.764 1768.34 Q823.333 1769.1 820.556 1770.65 L820.556 1765.93 Q823.38 1764.79 825.833 1764.21 Q828.287 1763.64 830.324 1763.64 Q835.694 1763.64 838.889 1766.32 Q842.083 1769.01 842.083 1773.5 Q842.083 1775.63 841.273 1777.55 Q840.486 1779.45 838.38 1782.04 Q837.801 1782.71 834.699 1785.93 Q831.597 1789.12 825.949 1794.89 Z" fill="#000000" fill-rule="evenodd" fill-opacity="1" /><path clip-path="url(#clip970)" d="M1414.26 1768.34 L1402.46 1786.78 L1414.26 1786.78 L1414.26 1768.34 M1413.03 1764.26 L1418.91 1764.26 L1418.91 1786.78 L1423.84 1786.78 L1423.84 1790.67 L1418.91 1790.67 L1418.91 1798.82 L1414.26 1798.82 L1414.26 1790.67 L1398.66 1790.67 L1398.66 1786.16 L1413.03 1764.26 Z" fill="#000000" fill-rule="evenodd" fill-opacity="1" /><path clip-path="url(#clip970)" d="M1991.61 1779.68 Q1988.46 1779.68 1986.61 1781.83 Q1984.78 1783.98 1984.78 1787.73 Q1984.78 1791.46 1986.61 1793.64 Q1988.46 1795.79 1991.61 1795.79 Q1994.76 1795.79 1996.59 1793.64 Q1998.44 1791.46 1998.44 1787.73 Q1998.44 1783.98 1996.59 1781.83 Q1994.76 1779.68 1991.61 1779.68 M2000.89 1765.02 L2000.89 1769.28 Q1999.13 1768.45 1997.33 1768.01 Q1995.55 1767.57 1993.79 1767.57 Q1989.16 1767.57 1986.7 1770.7 Q1984.27 1773.82 1983.93 1780.14 Q1985.29 1778.13 1987.35 1777.06 Q1989.41 1775.97 1991.89 1775.97 Q1997.1 1775.97 2000.11 1779.15 Q2003.14 1782.29 2003.14 1787.73 Q2003.14 1793.06 1999.99 1796.27 Q1996.84 1799.49 1991.61 1799.49 Q1985.62 1799.49 1982.44 1794.91 Q1979.27 1790.3 1979.27 1781.58 Q1979.27 1773.38 1983.16 1768.52 Q1987.05 1763.64 1993.6 1763.64 Q1995.36 1763.64 1997.14 1763.98 Q1998.95 1764.33 2000.89 1765.02 Z" fill="#000000" fill-rule="evenodd" fill-opacity="1" /><path clip-path="url(#clip970)" d="M2571.16 1782.41 Q2567.83 1782.41 2565.91 1784.19 Q2564.01 1785.97 2564.01 1789.1 Q2564.01 1792.22 2565.91 1794.01 Q2567.83 1795.79 2571.16 1795.79 Q2574.49 1795.79 2576.42 1794.01 Q2578.34 1792.2 2578.34 1789.1 Q2578.34 1785.97 2576.42 1784.19 Q2574.52 1782.41 2571.16 1782.41 M2566.49 1780.42 Q2563.48 1779.68 2561.79 1777.62 Q2560.12 1775.56 2560.12 1772.59 Q2560.12 1768.45 2563.06 1766.04 Q2566.02 1763.64 2571.16 1763.64 Q2576.32 1763.64 2579.26 1766.04 Q2582.2 1768.45 2582.2 1772.59 Q2582.2 1775.56 2580.51 1777.62 Q2578.85 1779.68 2575.86 1780.42 Q2579.24 1781.21 2581.11 1783.5 Q2583.01 1785.79 2583.01 1789.1 Q2583.01 1794.12 2579.93 1796.81 Q2576.88 1799.49 2571.16 1799.49 Q2565.44 1799.49 2562.37 1796.81 Q2559.31 1794.12 2559.31 1789.1 Q2559.31 1785.79 2561.21 1783.5 Q2563.11 1781.21 2566.49 1780.42 M2564.77 1773.03 Q2564.77 1775.72 2566.44 1777.22 Q2568.13 1778.73 2571.16 1778.73 Q2574.17 1778.73 2575.86 1777.22 Q2577.57 1775.72 2577.57 1773.03 Q2577.57 1770.35 2575.86 1768.84 Q2574.17 1767.34 2571.16 1767.34 Q2568.13 1767.34 2566.44 1768.84 Q2564.77 1770.35 2564.77 1773.03 Z" fill="#000000" fill-rule="evenodd" fill-opacity="1" /><path clip-path="url(#clip970)" d="M1410.31 1837.53 L1410.31 1847.65 L1422.38 1847.65 L1422.38 1852.2 L1410.31 1852.2 L1410.31 1871.56 Q1410.31 1875.92 1411.49 1877.16 Q1412.7 1878.4 1416.36 1878.4 L1422.38 1878.4 L1422.38 1883.3 L1416.36 1883.3 Q1409.58 1883.3 1407 1880.79 Q1404.42 1878.24 1404.42 1871.56 L1404.42 1852.2 L1400.13 1852.2 L1400.13 1847.65 L1404.42 1847.65 L1404.42 1837.53 L1410.31 1837.53 Z" fill="#000000" fill-rule="evenodd" fill-opacity="1" /><polyline clip-path="url(#clip972)" style="stroke:#000000; stroke-linecap:butt; stroke-linejoin:round; stroke-width:2; stroke-opacity:0.1; fill:none" points="
  181.747,1515.97 2640.76,1515.97 
  "/>
<polyline clip-path="url(#clip972)" style="stroke:#000000; stroke-linecap:butt; stroke-linejoin:round; stroke-width:2; stroke-opacity:0.1; fill:none" points="
  181.747,1265.92 2640.76,1265.92 
  "/>
<polyline clip-path="url(#clip972)" style="stroke:#000000; stroke-linecap:butt; stroke-linejoin:round; stroke-width:2; stroke-opacity:0.1; fill:none" points="
  181.747,1015.88 2640.76,1015.88 
  "/>
<polyline clip-path="url(#clip972)" style="stroke:#000000; stroke-linecap:butt; stroke-linejoin:round; stroke-width:2; stroke-opacity:0.1; fill:none" points="
  181.747,765.841 2640.76,765.841 
  "/>
<polyline clip-path="url(#clip972)" style="stroke:#000000; stroke-linecap:butt; stroke-linejoin:round; stroke-width:2; stroke-opacity:0.1; fill:none" points="
  181.747,515.8 2640.76,515.8 
  "/>
<polyline clip-path="url(#clip972)" style="stroke:#000000; stroke-linecap:butt; stroke-linejoin:round; stroke-width:2; stroke-opacity:0.1; fill:none" points="
  181.747,265.758 2640.76,265.758 
  "/>
<polyline clip-path="url(#clip970)" style="stroke:#000000; stroke-linecap:butt; stroke-linejoin:round; stroke-width:4; stroke-opacity:1; fill:none" points="
  181.747,1734.12 181.747,127.792 
  "/>
<polyline clip-path="url(#clip970)" style="stroke:#000000; stroke-linecap:butt; stroke-linejoin:round; stroke-width:4; stroke-opacity:1; fill:none" points="
  181.747,1515.97 200.644,1515.97 
  "/>
<polyline clip-path="url(#clip970)" style="stroke:#000000; stroke-linecap:butt; stroke-linejoin:round; stroke-width:4; stroke-opacity:1; fill:none" points="
  181.747,1265.92 200.644,1265.92 
  "/>
<polyline clip-path="url(#clip970)" style="stroke:#000000; stroke-linecap:butt; stroke-linejoin:round; stroke-width:4; stroke-opacity:1; fill:none" points="
  181.747,1015.88 200.644,1015.88 
  "/>
<polyline clip-path="url(#clip970)" style="stroke:#000000; stroke-linecap:butt; stroke-linejoin:round; stroke-width:4; stroke-opacity:1; fill:none" points="
  181.747,765.841 200.644,765.841 
  "/>
<polyline clip-path="url(#clip970)" style="stroke:#000000; stroke-linecap:butt; stroke-linejoin:round; stroke-width:4; stroke-opacity:1; fill:none" points="
  181.747,515.8 200.644,515.8 
  "/>
<polyline clip-path="url(#clip970)" style="stroke:#000000; stroke-linecap:butt; stroke-linejoin:round; stroke-width:4; stroke-opacity:1; fill:none" points="
  181.747,265.758 200.644,265.758 
  "/>
<path clip-path="url(#clip970)" d="M49.5521 1516.42 L79.2279 1516.42 L79.2279 1520.35 L49.5521 1520.35 L49.5521 1516.42 Z" fill="#000000" fill-rule="evenodd" fill-opacity="1" /><path clip-path="url(#clip970)" d="M99.8991 1514.1 Q96.7509 1514.1 94.8991 1516.26 Q93.0704 1518.41 93.0704 1522.16 Q93.0704 1525.89 94.8991 1528.06 Q96.7509 1530.21 99.8991 1530.21 Q103.047 1530.21 104.876 1528.06 Q106.728 1525.89 106.728 1522.16 Q106.728 1518.41 104.876 1516.26 Q103.047 1514.1 99.8991 1514.1 M109.181 1499.45 L109.181 1503.71 Q107.422 1502.88 105.617 1502.44 Q103.834 1502 102.075 1502 Q97.4454 1502 94.9917 1505.12 Q92.5612 1508.25 92.2139 1514.57 Q93.5797 1512.55 95.6398 1511.49 Q97.7 1510.4 100.177 1510.4 Q105.385 1510.4 108.394 1513.57 Q111.427 1516.72 111.427 1522.16 Q111.427 1527.48 108.279 1530.7 Q105.131 1533.92 99.8991 1533.92 Q93.9037 1533.92 90.7325 1529.33 Q87.5612 1524.73 87.5612 1516 Q87.5612 1507.81 91.45 1502.95 Q95.3389 1498.06 101.89 1498.06 Q103.649 1498.06 105.431 1498.41 Q107.237 1498.76 109.181 1499.45 Z" fill="#000000" fill-rule="evenodd" fill-opacity="1" /><path clip-path="url(#clip970)" d="M129.482 1501.76 Q125.871 1501.76 124.042 1505.33 Q122.237 1508.87 122.237 1516 Q122.237 1523.11 124.042 1526.67 Q125.871 1530.21 129.482 1530.21 Q133.116 1530.21 134.922 1526.67 Q136.751 1523.11 136.751 1516 Q136.751 1508.87 134.922 1505.33 Q133.116 1501.76 129.482 1501.76 M129.482 1498.06 Q135.292 1498.06 138.348 1502.67 Q141.427 1507.25 141.427 1516 Q141.427 1524.73 138.348 1529.33 Q135.292 1533.92 129.482 1533.92 Q123.672 1533.92 120.593 1529.33 Q117.538 1524.73 117.538 1516 Q117.538 1507.25 120.593 1502.67 Q123.672 1498.06 129.482 1498.06 Z" fill="#000000" fill-rule="evenodd" fill-opacity="1" /><path clip-path="url(#clip970)" d="M49.5521 1266.38 L79.2279 1266.38 L79.2279 1270.31 L49.5521 1270.31 L49.5521 1266.38 Z" fill="#000000" fill-rule="evenodd" fill-opacity="1" /><path clip-path="url(#clip970)" d="M102.168 1252.72 L90.3621 1271.17 L102.168 1271.17 L102.168 1252.72 M100.941 1248.64 L106.82 1248.64 L106.82 1271.17 L111.751 1271.17 L111.751 1275.06 L106.82 1275.06 L106.82 1283.2 L102.168 1283.2 L102.168 1275.06 L86.5658 1275.06 L86.5658 1270.54 L100.941 1248.64 Z" fill="#000000" fill-rule="evenodd" fill-opacity="1" /><path clip-path="url(#clip970)" d="M129.482 1251.72 Q125.871 1251.72 124.042 1255.29 Q122.237 1258.83 122.237 1265.96 Q122.237 1273.07 124.042 1276.63 Q125.871 1280.17 129.482 1280.17 Q133.116 1280.17 134.922 1276.63 Q136.751 1273.07 136.751 1265.96 Q136.751 1258.83 134.922 1255.29 Q133.116 1251.72 129.482 1251.72 M129.482 1248.02 Q135.292 1248.02 138.348 1252.63 Q141.427 1257.21 141.427 1265.96 Q141.427 1274.69 138.348 1279.29 Q135.292 1283.88 129.482 1283.88 Q123.672 1283.88 120.593 1279.29 Q117.538 1274.69 117.538 1265.96 Q117.538 1257.21 120.593 1252.63 Q123.672 1248.02 129.482 1248.02 Z" fill="#000000" fill-rule="evenodd" fill-opacity="1" /><path clip-path="url(#clip970)" d="M49.5521 1016.33 L79.2279 1016.33 L79.2279 1020.27 L49.5521 1020.27 L49.5521 1016.33 Z" fill="#000000" fill-rule="evenodd" fill-opacity="1" /><path clip-path="url(#clip970)" d="M93.3482 1029.23 L109.668 1029.23 L109.668 1033.16 L87.7232 1033.16 L87.7232 1029.23 Q90.3852 1026.47 94.9685 1021.84 Q99.575 1017.19 100.756 1015.85 Q103.001 1013.33 103.881 1011.59 Q104.783 1009.83 104.783 1008.14 Q104.783 1005.39 102.839 1003.65 Q100.918 1001.91 97.8158 1001.91 Q95.6167 1001.91 93.163 1002.68 Q90.7325 1003.44 87.9547 1004.99 L87.9547 1000.27 Q90.7788 999.135 93.2324 998.557 Q95.6861 997.978 97.7232 997.978 Q103.094 997.978 106.288 1000.66 Q109.482 1003.35 109.482 1007.84 Q109.482 1009.97 108.672 1011.89 Q107.885 1013.79 105.779 1016.38 Q105.2 1017.05 102.098 1020.27 Q98.9963 1023.46 93.3482 1029.23 Z" fill="#000000" fill-rule="evenodd" fill-opacity="1" /><path clip-path="url(#clip970)" d="M129.482 1001.68 Q125.871 1001.68 124.042 1005.25 Q122.237 1008.79 122.237 1015.92 Q122.237 1023.02 124.042 1026.59 Q125.871 1030.13 129.482 1030.13 Q133.116 1030.13 134.922 1026.59 Q136.751 1023.02 136.751 1015.92 Q136.751 1008.79 134.922 1005.25 Q133.116 1001.68 129.482 1001.68 M129.482 997.978 Q135.292 997.978 138.348 1002.58 Q141.427 1007.17 141.427 1015.92 Q141.427 1024.64 138.348 1029.25 Q135.292 1033.83 129.482 1033.83 Q123.672 1033.83 120.593 1029.25 Q117.538 1024.64 117.538 1015.92 Q117.538 1007.17 120.593 1002.58 Q123.672 997.978 129.482 997.978 Z" fill="#000000" fill-rule="evenodd" fill-opacity="1" /><path clip-path="url(#clip970)" d="M129.482 751.64 Q125.871 751.64 124.042 755.205 Q122.237 758.746 122.237 765.876 Q122.237 772.982 124.042 776.547 Q125.871 780.089 129.482 780.089 Q133.116 780.089 134.922 776.547 Q136.751 772.982 136.751 765.876 Q136.751 758.746 134.922 755.205 Q133.116 751.64 129.482 751.64 M129.482 747.936 Q135.292 747.936 138.348 752.543 Q141.427 757.126 141.427 765.876 Q141.427 774.603 138.348 779.209 Q135.292 783.793 129.482 783.793 Q123.672 783.793 120.593 779.209 Q117.538 774.603 117.538 765.876 Q117.538 757.126 120.593 752.543 Q123.672 747.936 129.482 747.936 Z" fill="#000000" fill-rule="evenodd" fill-opacity="1" /><path clip-path="url(#clip970)" d="M93.3482 529.144 L109.668 529.144 L109.668 533.08 L87.7232 533.08 L87.7232 529.144 Q90.3852 526.39 94.9685 521.76 Q99.575 517.108 100.756 515.765 Q103.001 513.242 103.881 511.506 Q104.783 509.746 104.783 508.057 Q104.783 505.302 102.839 503.566 Q100.918 501.83 97.8158 501.83 Q95.6167 501.83 93.163 502.594 Q90.7325 503.358 87.9547 504.909 L87.9547 500.186 Q90.7788 499.052 93.2324 498.473 Q95.6861 497.895 97.7232 497.895 Q103.094 497.895 106.288 500.58 Q109.482 503.265 109.482 507.756 Q109.482 509.885 108.672 511.807 Q107.885 513.705 105.779 516.297 Q105.2 516.969 102.098 520.186 Q98.9963 523.381 93.3482 529.144 Z" fill="#000000" fill-rule="evenodd" fill-opacity="1" /><path clip-path="url(#clip970)" d="M129.482 501.598 Q125.871 501.598 124.042 505.163 Q122.237 508.705 122.237 515.834 Q122.237 522.941 124.042 526.506 Q125.871 530.047 129.482 530.047 Q133.116 530.047 134.922 526.506 Q136.751 522.941 136.751 515.834 Q136.751 508.705 134.922 505.163 Q133.116 501.598 129.482 501.598 M129.482 497.895 Q135.292 497.895 138.348 502.501 Q141.427 507.084 141.427 515.834 Q141.427 524.561 138.348 529.168 Q135.292 533.751 129.482 533.751 Q123.672 533.751 120.593 529.168 Q117.538 524.561 117.538 515.834 Q117.538 507.084 120.593 502.501 Q123.672 497.895 129.482 497.895 Z" fill="#000000" fill-rule="evenodd" fill-opacity="1" /><path clip-path="url(#clip970)" d="M102.168 252.552 L90.3621 271.001 L102.168 271.001 L102.168 252.552 M100.941 248.478 L106.82 248.478 L106.82 271.001 L111.751 271.001 L111.751 274.89 L106.82 274.89 L106.82 283.038 L102.168 283.038 L102.168 274.89 L86.5658 274.89 L86.5658 270.376 L100.941 248.478 Z" fill="#000000" fill-rule="evenodd" fill-opacity="1" /><path clip-path="url(#clip970)" d="M129.482 251.557 Q125.871 251.557 124.042 255.122 Q122.237 258.663 122.237 265.793 Q122.237 272.899 124.042 276.464 Q125.871 280.006 129.482 280.006 Q133.116 280.006 134.922 276.464 Q136.751 272.899 136.751 265.793 Q136.751 258.663 134.922 255.122 Q133.116 251.557 129.482 251.557 M129.482 247.853 Q135.292 247.853 138.348 252.459 Q141.427 257.043 141.427 265.793 Q141.427 274.52 138.348 279.126 Q135.292 283.709 129.482 283.709 Q123.672 283.709 120.593 279.126 Q117.538 274.52 117.538 265.793 Q117.538 257.043 120.593 252.459 Q123.672 247.853 129.482 247.853 Z" fill="#000000" fill-rule="evenodd" fill-opacity="1" /><path clip-path="url(#clip970)" d="M1180.51 17.6457 Q1171.6 17.6457 1166.33 24.2892 Q1161.11 30.9327 1161.11 42.3968 Q1161.11 53.8203 1166.33 60.4638 Q1171.6 67.1073 1180.51 67.1073 Q1189.42 67.1073 1194.61 60.4638 Q1199.83 53.8203 1199.83 42.3968 Q1199.83 30.9327 1194.61 24.2892 Q1189.42 17.6457 1180.51 17.6457 M1180.51 11.0023 Q1193.23 11.0023 1200.85 19.5497 Q1208.46 28.0566 1208.46 42.3968 Q1208.46 56.6965 1200.85 65.2439 Q1193.23 73.7508 1180.51 73.7508 Q1167.75 73.7508 1160.1 65.2439 Q1152.48 56.737 1152.48 42.3968 Q1152.48 28.0566 1160.1 19.5497 Q1167.75 11.0023 1180.51 11.0023 Z" fill="#000000" fill-rule="evenodd" fill-opacity="1" /><path clip-path="url(#clip970)" d="M1258.65 45.1919 L1258.65 72.576 L1251.2 72.576 L1251.2 45.4349 Q1251.2 38.994 1248.69 35.7938 Q1246.18 32.5936 1241.15 32.5936 Q1235.12 32.5936 1231.63 36.4419 Q1228.15 40.2903 1228.15 46.9338 L1228.15 72.576 L1220.66 72.576 L1220.66 27.2059 L1228.15 27.2059 L1228.15 34.2544 Q1230.82 30.163 1234.43 28.1376 Q1238.08 26.1121 1242.81 26.1121 Q1250.63 26.1121 1254.64 30.9732 Q1258.65 35.7938 1258.65 45.1919 Z" fill="#000000" fill-rule="evenodd" fill-opacity="1" /><path clip-path="url(#clip970)" d="M1307.26 14.324 L1307.26 27.2059 L1322.62 27.2059 L1322.62 32.9987 L1307.26 32.9987 L1307.26 57.6282 Q1307.26 63.1779 1308.76 64.7578 Q1310.3 66.3376 1314.96 66.3376 L1322.62 66.3376 L1322.62 72.576 L1314.96 72.576 Q1306.33 72.576 1303.05 69.3758 Q1299.77 66.1351 1299.77 57.6282 L1299.77 32.9987 L1294.3 32.9987 L1294.3 27.2059 L1299.77 27.2059 L1299.77 14.324 L1307.26 14.324 Z" fill="#000000" fill-rule="evenodd" fill-opacity="1" /><path clip-path="url(#clip970)" d="M1370.13 45.1919 L1370.13 72.576 L1362.68 72.576 L1362.68 45.4349 Q1362.68 38.994 1360.17 35.7938 Q1357.66 32.5936 1352.63 32.5936 Q1346.6 32.5936 1343.12 36.4419 Q1339.63 40.2903 1339.63 46.9338 L1339.63 72.576 L1332.14 72.576 L1332.14 9.54393 L1339.63 9.54393 L1339.63 34.2544 Q1342.3 30.163 1345.91 28.1376 Q1349.56 26.1121 1354.3 26.1121 Q1362.11 26.1121 1366.12 30.9732 Q1370.13 35.7938 1370.13 45.1919 Z" fill="#000000" fill-rule="evenodd" fill-opacity="1" /><path clip-path="url(#clip970)" d="M1423.81 48.0275 L1423.81 51.6733 L1389.54 51.6733 Q1390.02 59.3701 1394.16 63.421 Q1398.33 67.4314 1405.74 67.4314 Q1410.04 67.4314 1414.05 66.3781 Q1418.1 65.3249 1422.07 63.2184 L1422.07 70.267 Q1418.06 71.9684 1413.84 72.8596 Q1409.63 73.7508 1405.3 73.7508 Q1394.44 73.7508 1388.08 67.4314 Q1381.76 61.1119 1381.76 50.3365 Q1381.76 39.1965 1387.76 32.6746 Q1393.79 26.1121 1404 26.1121 Q1413.16 26.1121 1418.46 32.0264 Q1423.81 37.9003 1423.81 48.0275 M1416.36 45.84 Q1416.27 39.7232 1412.91 36.0774 Q1409.59 32.4315 1404.08 32.4315 Q1397.84 32.4315 1394.08 35.9558 Q1390.35 39.4801 1389.78 45.8805 L1416.36 45.84 Z" fill="#000000" fill-rule="evenodd" fill-opacity="1" /><path clip-path="url(#clip970)" d="M1462.74 12.096 L1500.98 12.096 L1500.98 18.9825 L1470.92 18.9825 L1470.92 36.8875 L1499.72 36.8875 L1499.72 43.7741 L1470.92 43.7741 L1470.92 65.6895 L1501.71 65.6895 L1501.71 72.576 L1462.74 72.576 L1462.74 12.096 Z" fill="#000000" fill-rule="evenodd" fill-opacity="1" /><path clip-path="url(#clip970)" d="M1535.45 49.7694 Q1526.42 49.7694 1522.93 51.8354 Q1519.45 53.9013 1519.45 58.8839 Q1519.45 62.8538 1522.04 65.2034 Q1524.68 67.5124 1529.17 67.5124 Q1535.37 67.5124 1539.1 63.1374 Q1542.87 58.7219 1542.87 51.4303 L1542.87 49.7694 L1535.45 49.7694 M1550.32 46.6907 L1550.32 72.576 L1542.87 72.576 L1542.87 65.6895 Q1540.31 69.8214 1536.51 71.8063 Q1532.7 73.7508 1527.19 73.7508 Q1520.22 73.7508 1516.09 69.8619 Q1512 65.9325 1512 59.3701 Q1512 51.7138 1517.1 47.825 Q1522.25 43.9361 1532.41 43.9361 L1542.87 43.9361 L1542.87 43.2069 Q1542.87 38.0623 1539.46 35.2672 Q1536.1 32.4315 1529.98 32.4315 Q1526.09 32.4315 1522.41 33.3632 Q1518.72 34.295 1515.32 36.1584 L1515.32 29.2718 Q1519.41 27.692 1523.26 26.9223 Q1527.11 26.1121 1530.75 26.1121 Q1540.6 26.1121 1545.46 31.2163 Q1550.32 36.3204 1550.32 46.6907 Z" fill="#000000" fill-rule="evenodd" fill-opacity="1" /><path clip-path="url(#clip970)" d="M1591.96 34.1734 Q1590.71 33.4443 1589.21 33.1202 Q1587.75 32.7556 1585.97 32.7556 Q1579.65 32.7556 1576.24 36.8875 Q1572.88 40.9789 1572.88 48.6757 L1572.88 72.576 L1565.39 72.576 L1565.39 27.2059 L1572.88 27.2059 L1572.88 34.2544 Q1575.23 30.1225 1579 28.1376 Q1582.77 26.1121 1588.15 26.1121 Q1588.92 26.1121 1589.86 26.2337 Q1590.79 26.3147 1591.92 26.5172 L1591.96 34.1734 Z" fill="#000000" fill-rule="evenodd" fill-opacity="1" /><path clip-path="url(#clip970)" d="M1607.15 14.324 L1607.15 27.2059 L1622.51 27.2059 L1622.51 32.9987 L1607.15 32.9987 L1607.15 57.6282 Q1607.15 63.1779 1608.65 64.7578 Q1610.19 66.3376 1614.85 66.3376 L1622.51 66.3376 L1622.51 72.576 L1614.85 72.576 Q1606.22 72.576 1602.94 69.3758 Q1599.66 66.1351 1599.66 57.6282 L1599.66 32.9987 L1594.19 32.9987 L1594.19 27.2059 L1599.66 27.2059 L1599.66 14.324 L1607.15 14.324 Z" fill="#000000" fill-rule="evenodd" fill-opacity="1" /><path clip-path="url(#clip970)" d="M1670.02 45.1919 L1670.02 72.576 L1662.57 72.576 L1662.57 45.4349 Q1662.57 38.994 1660.06 35.7938 Q1657.55 32.5936 1652.52 32.5936 Q1646.49 32.5936 1643 36.4419 Q1639.52 40.2903 1639.52 46.9338 L1639.52 72.576 L1632.03 72.576 L1632.03 9.54393 L1639.52 9.54393 L1639.52 34.2544 Q1642.19 30.163 1645.8 28.1376 Q1649.44 26.1121 1654.18 26.1121 Q1662 26.1121 1666.01 30.9732 Q1670.02 35.7938 1670.02 45.1919 Z" fill="#000000" fill-rule="evenodd" fill-opacity="1" /><polyline clip-path="url(#clip972)" style="stroke:#009af9; stroke-linecap:butt; stroke-linejoin:round; stroke-width:4; stroke-opacity:1; fill:none" stroke-dasharray="16, 10" points="
  251.341,765.841 280.339,728.335 309.337,692.055 338.334,657.001 367.332,623.173 396.33,590.57 425.328,559.194 454.325,529.044 483.323,500.12 512.321,472.422 
  541.319,445.95 570.316,420.705 599.314,396.685 628.312,373.891 657.31,352.323 686.307,331.981 715.305,312.866 744.303,294.976 773.301,278.312 802.299,262.875 
  831.296,248.663 860.294,235.678 889.292,223.918 918.29,213.385 947.287,204.077 976.285,195.996 1005.28,189.14 1034.28,183.511 1063.28,179.108 1092.28,175.931 
  1121.27,173.979 1150.27,173.254 1179.27,173.755 1208.27,175.482 1237.26,178.435 1266.26,182.614 1295.26,188.019 1324.26,194.65 1353.26,202.507 1382.25,211.59 
  1411.25,221.899 1440.25,233.434 1469.25,246.195 1498.24,260.183 1527.24,275.396 1556.24,291.835 1585.24,309.501 1614.24,328.392 1643.23,348.509 1672.23,369.853 
  1701.23,392.422 1730.23,416.218 1759.22,441.239 1788.22,467.487 1817.22,494.961 1846.22,523.66 1875.22,553.586 1904.21,584.738 1933.21,617.116 1962.21,650.719 
  1991.21,685.549 2020.2,721.605 2049.2,758.887 2078.2,797.395 2107.2,837.129 2136.2,878.089 2165.19,920.275 2194.19,963.687 2223.19,1008.33 2252.19,1054.19 
  2281.18,1101.28 2310.18,1149.6 2339.18,1199.14 2368.18,1249.91 2397.17,1301.9 2426.17,1355.12 2455.17,1409.57 2484.17,1465.24 2513.17,1522.14 2542.16,1580.26 
  2571.16,1639.61 
  "/>
<polyline clip-path="url(#clip972)" style="stroke:#e26f46; stroke-linecap:butt; stroke-linejoin:round; stroke-width:4; stroke-opacity:1; fill:none" stroke-dasharray="16, 8, 2, 8" points="
  251.341,765.841 280.339,728.948 309.337,693.281 338.334,658.84 367.332,625.625 396.33,593.636 425.328,562.872 454.325,533.335 483.323,505.024 512.321,477.94 
  541.319,452.081 570.316,427.448 599.314,404.041 628.312,381.86 657.31,360.905 686.307,341.177 715.305,322.674 744.303,305.397 773.301,289.347 802.299,274.522 
  831.296,260.923 860.294,248.551 889.292,237.404 918.29,227.484 947.287,218.79 976.285,211.321 1005.28,205.079 1034.28,200.063 1063.28,196.272 1092.28,193.708 
  1121.27,192.37 1150.27,192.258 1179.27,193.372 1208.27,195.711 1237.26,199.277 1266.26,204.069 1295.26,210.087 1324.26,217.331 1353.26,225.802 1382.25,235.498 
  1411.25,246.42 1440.25,258.568 1469.25,271.942 1498.24,286.542 1527.24,302.369 1556.24,319.421 1585.24,337.699 1614.24,357.204 1643.23,377.934 1672.23,399.891 
  1701.23,423.073 1730.23,447.482 1759.22,473.116 1788.22,499.977 1817.22,528.064 1846.22,557.376 1875.22,587.915 1904.21,619.68 1933.21,652.671 1962.21,686.887 
  1991.21,722.33 2020.2,758.999 2049.2,796.894 2078.2,836.015 2107.2,876.362 2136.2,917.935 2165.19,960.734 2194.19,1004.76 2223.19,1050.01 2252.19,1096.49 
  2281.18,1144.19 2310.18,1193.12 2339.18,1243.28 2368.18,1294.66 2397.17,1347.26 2426.17,1401.1 2455.17,1456.16 2484.17,1512.44 2513.17,1569.95 2542.16,1628.69 
  2571.16,1688.65 
  "/>
<path clip-path="url(#clip970)" d="
M263.714 1680.57 L1131.91 1680.57 L1131.91 1525.05 L263.714 1525.05  Z
  " fill="#ffffff" fill-rule="evenodd" fill-opacity="1"/>
<polyline clip-path="url(#clip970)" style="stroke:#000000; stroke-linecap:butt; stroke-linejoin:round; stroke-width:4; stroke-opacity:1; fill:none" points="
  263.714,1680.57 1131.91,1680.57 1131.91,1525.05 263.714,1525.05 263.714,1680.57 
  "/>
<polyline clip-path="url(#clip970)" style="stroke:#009af9; stroke-linecap:butt; stroke-linejoin:round; stroke-width:4; stroke-opacity:1; fill:none" stroke-dasharray="16, 10" points="
  291.036,1576.89 454.97,1576.89 
  "/>
<path clip-path="url(#clip970)" d="M482.292 1559.61 L504.144 1559.61 L504.144 1563.55 L486.968 1563.55 L486.968 1573.78 L503.426 1573.78 L503.426 1577.71 L486.968 1577.71 L486.968 1590.24 L504.561 1590.24 L504.561 1594.17 L482.292 1594.17 L482.292 1559.61 Z" fill="#000000" fill-rule="evenodd" fill-opacity="1" /><path clip-path="url(#clip970)" d="M511.621 1583.94 L511.621 1568.25 L515.88 1568.25 L515.88 1583.78 Q515.88 1587.46 517.315 1589.31 Q518.75 1591.14 521.621 1591.14 Q525.07 1591.14 527.06 1588.94 Q529.074 1586.74 529.074 1582.95 L529.074 1568.25 L533.334 1568.25 L533.334 1594.17 L529.074 1594.17 L529.074 1590.19 Q527.523 1592.55 525.463 1593.71 Q523.426 1594.84 520.718 1594.84 Q516.25 1594.84 513.936 1592.07 Q511.621 1589.29 511.621 1583.94 M522.338 1567.62 L522.338 1567.62 Z" fill="#000000" fill-rule="evenodd" fill-opacity="1" /><path clip-path="url(#clip970)" d="M542.107 1558.15 L546.366 1558.15 L546.366 1594.17 L542.107 1594.17 L542.107 1558.15 Z" fill="#000000" fill-rule="evenodd" fill-opacity="1" /><path clip-path="url(#clip970)" d="M577.454 1580.15 L577.454 1582.23 L557.871 1582.23 Q558.148 1586.63 560.509 1588.94 Q562.894 1591.23 567.13 1591.23 Q569.583 1591.23 571.875 1590.63 Q574.19 1590.03 576.458 1588.83 L576.458 1592.85 Q574.167 1593.83 571.759 1594.33 Q569.352 1594.84 566.875 1594.84 Q560.671 1594.84 557.037 1591.23 Q553.426 1587.62 553.426 1581.46 Q553.426 1575.1 556.852 1571.37 Q560.301 1567.62 566.134 1567.62 Q571.366 1567.62 574.398 1571 Q577.454 1574.36 577.454 1580.15 M573.195 1578.9 Q573.148 1575.4 571.227 1573.32 Q569.329 1571.23 566.181 1571.23 Q562.616 1571.23 560.463 1573.25 Q558.333 1575.26 558.009 1578.92 L573.195 1578.9 Z" fill="#000000" fill-rule="evenodd" fill-opacity="1" /><path clip-path="url(#clip970)" d="M599.468 1572.23 Q598.75 1571.81 597.893 1571.63 Q597.06 1571.42 596.042 1571.42 Q592.431 1571.42 590.486 1573.78 Q588.565 1576.12 588.565 1580.52 L588.565 1594.17 L584.282 1594.17 L584.282 1568.25 L588.565 1568.25 L588.565 1572.27 Q589.907 1569.91 592.06 1568.78 Q594.213 1567.62 597.292 1567.62 Q597.731 1567.62 598.264 1567.69 Q598.796 1567.74 599.444 1567.85 L599.468 1572.23 Z" fill="#000000" fill-rule="evenodd" fill-opacity="1" /><path clip-path="url(#clip970)" d="M607.963 1559.61 L607.963 1572.46 L604.028 1572.46 L604.028 1559.61 L607.963 1559.61 Z" fill="#000000" fill-rule="evenodd" fill-opacity="1" /><path clip-path="url(#clip970)" d="M633.495 1569.01 L633.495 1573.04 Q631.69 1572.11 629.745 1571.65 Q627.801 1571.19 625.717 1571.19 Q622.546 1571.19 620.949 1572.16 Q619.375 1573.13 619.375 1575.08 Q619.375 1576.56 620.509 1577.41 Q621.643 1578.25 625.069 1579.01 L626.528 1579.33 Q631.065 1580.31 632.963 1582.09 Q634.884 1583.85 634.884 1587.02 Q634.884 1590.63 632.014 1592.74 Q629.166 1594.84 624.166 1594.84 Q622.083 1594.84 619.815 1594.43 Q617.569 1594.03 615.069 1593.22 L615.069 1588.83 Q617.43 1590.05 619.722 1590.68 Q622.014 1591.28 624.259 1591.28 Q627.268 1591.28 628.889 1590.26 Q630.509 1589.22 630.509 1587.34 Q630.509 1585.61 629.328 1584.68 Q628.171 1583.76 624.213 1582.9 L622.731 1582.55 Q618.773 1581.72 617.014 1580.01 Q615.254 1578.27 615.254 1575.26 Q615.254 1571.6 617.847 1569.61 Q620.44 1567.62 625.208 1567.62 Q627.569 1567.62 629.653 1567.97 Q631.736 1568.32 633.495 1569.01 Z" fill="#000000" fill-rule="evenodd" fill-opacity="1" /><path clip-path="url(#clip970)" d="M676.921 1573.22 Q678.518 1570.35 680.74 1568.99 Q682.962 1567.62 685.972 1567.62 Q690.023 1567.62 692.222 1570.47 Q694.421 1573.29 694.421 1578.52 L694.421 1594.17 L690.138 1594.17 L690.138 1578.66 Q690.138 1574.94 688.819 1573.13 Q687.499 1571.33 684.791 1571.33 Q681.481 1571.33 679.56 1573.52 Q677.638 1575.72 677.638 1579.52 L677.638 1594.17 L673.356 1594.17 L673.356 1578.66 Q673.356 1574.91 672.037 1573.13 Q670.717 1571.33 667.963 1571.33 Q664.699 1571.33 662.777 1573.55 Q660.856 1575.75 660.856 1579.52 L660.856 1594.17 L656.574 1594.17 L656.574 1568.25 L660.856 1568.25 L660.856 1572.27 Q662.314 1569.89 664.351 1568.76 Q666.388 1567.62 669.189 1567.62 Q672.013 1567.62 673.981 1569.06 Q675.972 1570.49 676.921 1573.22 Z" fill="#000000" fill-rule="evenodd" fill-opacity="1" /><path clip-path="url(#clip970)" d="M725.092 1580.15 L725.092 1582.23 L705.509 1582.23 Q705.786 1586.63 708.147 1588.94 Q710.532 1591.23 714.768 1591.23 Q717.222 1591.23 719.513 1590.63 Q721.828 1590.03 724.096 1588.83 L724.096 1592.85 Q721.805 1593.83 719.397 1594.33 Q716.99 1594.84 714.513 1594.84 Q708.31 1594.84 704.675 1591.23 Q701.064 1587.62 701.064 1581.46 Q701.064 1575.1 704.49 1571.37 Q707.939 1567.62 713.772 1567.62 Q719.004 1567.62 722.036 1571 Q725.092 1574.36 725.092 1580.15 M720.833 1578.9 Q720.786 1575.4 718.865 1573.32 Q716.967 1571.23 713.819 1571.23 Q710.254 1571.23 708.101 1573.25 Q705.972 1575.26 705.647 1578.92 L720.833 1578.9 Z" fill="#000000" fill-rule="evenodd" fill-opacity="1" /><path clip-path="url(#clip970)" d="M736.295 1560.89 L736.295 1568.25 L745.069 1568.25 L745.069 1571.56 L736.295 1571.56 L736.295 1585.63 Q736.295 1588.8 737.152 1589.71 Q738.032 1590.61 740.694 1590.61 L745.069 1590.61 L745.069 1594.17 L740.694 1594.17 Q735.763 1594.17 733.888 1592.34 Q732.013 1590.49 732.013 1585.63 L732.013 1571.56 L728.888 1571.56 L728.888 1568.25 L732.013 1568.25 L732.013 1560.89 L736.295 1560.89 Z" fill="#000000" fill-rule="evenodd" fill-opacity="1" /><path clip-path="url(#clip970)" d="M772.221 1578.52 L772.221 1594.17 L767.962 1594.17 L767.962 1578.66 Q767.962 1574.98 766.527 1573.15 Q765.092 1571.33 762.221 1571.33 Q758.772 1571.33 756.781 1573.52 Q754.791 1575.72 754.791 1579.52 L754.791 1594.17 L750.508 1594.17 L750.508 1558.15 L754.791 1558.15 L754.791 1572.27 Q756.319 1569.94 758.379 1568.78 Q760.462 1567.62 763.17 1567.62 Q767.638 1567.62 769.93 1570.4 Q772.221 1573.15 772.221 1578.52 Z" fill="#000000" fill-rule="evenodd" fill-opacity="1" /><path clip-path="url(#clip970)" d="M790.763 1571.23 Q787.337 1571.23 785.346 1573.92 Q783.355 1576.58 783.355 1581.23 Q783.355 1585.89 785.323 1588.57 Q787.314 1591.23 790.763 1591.23 Q794.166 1591.23 796.156 1588.55 Q798.147 1585.86 798.147 1581.23 Q798.147 1576.63 796.156 1573.94 Q794.166 1571.23 790.763 1571.23 M790.763 1567.62 Q796.318 1567.62 799.49 1571.23 Q802.661 1574.84 802.661 1581.23 Q802.661 1587.6 799.49 1591.23 Q796.318 1594.84 790.763 1594.84 Q785.184 1594.84 782.013 1591.23 Q778.865 1587.6 778.865 1581.23 Q778.865 1574.84 782.013 1571.23 Q785.184 1567.62 790.763 1567.62 Z" fill="#000000" fill-rule="evenodd" fill-opacity="1" /><path clip-path="url(#clip970)" d="M826.781 1572.18 L826.781 1558.15 L831.04 1558.15 L831.04 1594.17 L826.781 1594.17 L826.781 1590.28 Q825.439 1592.6 823.378 1593.73 Q821.341 1594.84 818.471 1594.84 Q813.772 1594.84 810.809 1591.09 Q807.869 1587.34 807.869 1581.23 Q807.869 1575.12 810.809 1571.37 Q813.772 1567.62 818.471 1567.62 Q821.341 1567.62 823.378 1568.76 Q825.439 1569.87 826.781 1572.18 M812.267 1581.23 Q812.267 1585.93 814.189 1588.62 Q816.133 1591.28 819.513 1591.28 Q822.892 1591.28 824.837 1588.62 Q826.781 1585.93 826.781 1581.23 Q826.781 1576.53 824.837 1573.87 Q822.892 1571.19 819.513 1571.19 Q816.133 1571.19 814.189 1573.87 Q812.267 1576.53 812.267 1581.23 Z" fill="#000000" fill-rule="evenodd" fill-opacity="1" /><path clip-path="url(#clip970)" d="M865.114 1558.2 Q862.012 1563.52 860.508 1568.73 Q859.003 1573.94 859.003 1579.29 Q859.003 1584.64 860.508 1589.89 Q862.036 1595.12 865.114 1600.42 L861.411 1600.42 Q857.938 1594.98 856.202 1589.73 Q854.489 1584.47 854.489 1579.29 Q854.489 1574.13 856.202 1568.9 Q857.915 1563.66 861.411 1558.2 L865.114 1558.2 Z" fill="#000000" fill-rule="evenodd" fill-opacity="1" /><path clip-path="url(#clip970)" d="M890.438 1572.18 L890.438 1558.15 L894.697 1558.15 L894.697 1594.17 L890.438 1594.17 L890.438 1590.28 Q889.096 1592.6 887.035 1593.73 Q884.998 1594.84 882.128 1594.84 Q877.429 1594.84 874.466 1591.09 Q871.526 1587.34 871.526 1581.23 Q871.526 1575.12 874.466 1571.37 Q877.429 1567.62 882.128 1567.62 Q884.998 1567.62 887.035 1568.76 Q889.096 1569.87 890.438 1572.18 M875.924 1581.23 Q875.924 1585.93 877.846 1588.62 Q879.79 1591.28 883.17 1591.28 Q886.549 1591.28 888.494 1588.62 Q890.438 1585.93 890.438 1581.23 Q890.438 1576.53 888.494 1573.87 Q886.549 1571.19 883.17 1571.19 Q879.79 1571.19 877.846 1573.87 Q875.924 1576.53 875.924 1581.23 Z" fill="#000000" fill-rule="evenodd" fill-opacity="1" /><path clip-path="url(#clip970)" d="M907.683 1560.89 L907.683 1568.25 L916.457 1568.25 L916.457 1571.56 L907.683 1571.56 L907.683 1585.63 Q907.683 1588.8 908.54 1589.71 Q909.42 1590.61 912.082 1590.61 L916.457 1590.61 L916.457 1594.17 L912.082 1594.17 Q907.151 1594.17 905.276 1592.34 Q903.401 1590.49 903.401 1585.63 L903.401 1571.56 L900.276 1571.56 L900.276 1568.25 L903.401 1568.25 L903.401 1560.89 L907.683 1560.89 Z" fill="#000000" fill-rule="evenodd" fill-opacity="1" /><path clip-path="url(#clip970)" d="M937.683 1572.65 L967.359 1572.65 L967.359 1576.53 L937.683 1576.53 L937.683 1572.65 M937.683 1582.09 L967.359 1582.09 L967.359 1586.02 L937.683 1586.02 L937.683 1582.09 Z" fill="#000000" fill-rule="evenodd" fill-opacity="1" /><path clip-path="url(#clip970)" d="M1002.52 1562.69 Q998.91 1562.69 997.081 1566.26 Q995.276 1569.8 995.276 1576.93 Q995.276 1584.03 997.081 1587.6 Q998.91 1591.14 1002.52 1591.14 Q1006.16 1591.14 1007.96 1587.6 Q1009.79 1584.03 1009.79 1576.93 Q1009.79 1569.8 1007.96 1566.26 Q1006.16 1562.69 1002.52 1562.69 M1002.52 1558.99 Q1008.33 1558.99 1011.39 1563.59 Q1014.47 1568.18 1014.47 1576.93 Q1014.47 1585.65 1011.39 1590.26 Q1008.33 1594.84 1002.52 1594.84 Q996.711 1594.84 993.632 1590.26 Q990.577 1585.65 990.577 1576.93 Q990.577 1568.18 993.632 1563.59 Q996.711 1558.99 1002.52 1558.99 Z" fill="#000000" fill-rule="evenodd" fill-opacity="1" /><path clip-path="url(#clip970)" d="M1022.68 1588.29 L1027.57 1588.29 L1027.57 1594.17 L1022.68 1594.17 L1022.68 1588.29 Z" fill="#000000" fill-rule="evenodd" fill-opacity="1" /><path clip-path="url(#clip970)" d="M1038.56 1590.24 L1046.2 1590.24 L1046.2 1563.87 L1037.89 1565.54 L1037.89 1561.28 L1046.15 1559.61 L1050.83 1559.61 L1050.83 1590.24 L1058.47 1590.24 L1058.47 1594.17 L1038.56 1594.17 L1038.56 1590.24 Z" fill="#000000" fill-rule="evenodd" fill-opacity="1" /><path clip-path="url(#clip970)" d="M1066.64 1558.2 L1070.34 1558.2 Q1073.82 1563.66 1075.53 1568.9 Q1077.27 1574.13 1077.27 1579.29 Q1077.27 1584.47 1075.53 1589.73 Q1073.82 1594.98 1070.34 1600.42 L1066.64 1600.42 Q1069.72 1595.12 1071.22 1589.89 Q1072.75 1584.64 1072.75 1579.29 Q1072.75 1573.94 1071.22 1568.73 Q1069.72 1563.52 1066.64 1558.2 Z" fill="#000000" fill-rule="evenodd" fill-opacity="1" /><polyline clip-path="url(#clip970)" style="stroke:#e26f46; stroke-linecap:butt; stroke-linejoin:round; stroke-width:4; stroke-opacity:1; fill:none" stroke-dasharray="16, 8, 2, 8" points="
  291.036,1628.73 454.97,1628.73 
  "/>
<path clip-path="url(#clip970)" d="M506.32 1631.99 L506.32 1634.07 L486.737 1634.07 Q487.014 1638.47 489.376 1640.78 Q491.76 1643.07 495.996 1643.07 Q498.45 1643.07 500.741 1642.47 Q503.056 1641.87 505.324 1640.67 L505.324 1644.69 Q503.033 1645.67 500.625 1646.17 Q498.218 1646.68 495.741 1646.68 Q489.538 1646.68 485.903 1643.07 Q482.292 1639.46 482.292 1633.3 Q482.292 1626.94 485.718 1623.21 Q489.167 1619.46 495 1619.46 Q500.232 1619.46 503.264 1622.84 Q506.32 1626.2 506.32 1631.99 M502.061 1630.74 Q502.014 1627.24 500.093 1625.16 Q498.195 1623.07 495.047 1623.07 Q491.482 1623.07 489.329 1625.09 Q487.2 1627.1 486.876 1630.76 L502.061 1630.74 Z" fill="#000000" fill-rule="evenodd" fill-opacity="1" /><path clip-path="url(#clip970)" d="M534.028 1620.09 L524.653 1632.7 L534.514 1646.01 L529.491 1646.01 L521.945 1635.83 L514.399 1646.01 L509.375 1646.01 L519.445 1632.45 L510.232 1620.09 L515.255 1620.09 L522.13 1629.32 L529.005 1620.09 L534.028 1620.09 Z" fill="#000000" fill-rule="evenodd" fill-opacity="1" /><path clip-path="url(#clip970)" d="M552.315 1632.98 Q547.153 1632.98 545.162 1634.16 Q543.172 1635.34 543.172 1638.19 Q543.172 1640.46 544.653 1641.8 Q546.158 1643.12 548.727 1643.12 Q552.269 1643.12 554.398 1640.62 Q556.551 1638.1 556.551 1633.93 L556.551 1632.98 L552.315 1632.98 M560.81 1631.22 L560.81 1646.01 L556.551 1646.01 L556.551 1642.08 Q555.093 1644.44 552.917 1645.57 Q550.741 1646.68 547.593 1646.68 Q543.611 1646.68 541.25 1644.46 Q538.912 1642.22 538.912 1638.47 Q538.912 1634.09 541.829 1631.87 Q544.769 1629.65 550.579 1629.65 L556.551 1629.65 L556.551 1629.23 Q556.551 1626.29 554.607 1624.69 Q552.685 1623.07 549.19 1623.07 Q546.968 1623.07 544.861 1623.61 Q542.755 1624.14 540.81 1625.2 L540.81 1621.27 Q543.148 1620.36 545.347 1619.93 Q547.546 1619.46 549.63 1619.46 Q555.255 1619.46 558.033 1622.38 Q560.81 1625.3 560.81 1631.22 Z" fill="#000000" fill-rule="evenodd" fill-opacity="1" /><path clip-path="url(#clip970)" d="M588.241 1621.08 L588.241 1625.06 Q586.435 1624.07 584.606 1623.58 Q582.801 1623.07 580.949 1623.07 Q576.806 1623.07 574.514 1625.71 Q572.222 1628.33 572.222 1633.07 Q572.222 1637.82 574.514 1640.46 Q576.806 1643.07 580.949 1643.07 Q582.801 1643.07 584.606 1642.59 Q586.435 1642.08 588.241 1641.08 L588.241 1645.02 Q586.458 1645.85 584.537 1646.27 Q582.639 1646.68 580.486 1646.68 Q574.63 1646.68 571.181 1643 Q567.732 1639.32 567.732 1633.07 Q567.732 1626.73 571.204 1623.1 Q574.699 1619.46 580.764 1619.46 Q582.731 1619.46 584.606 1619.88 Q586.481 1620.27 588.241 1621.08 Z" fill="#000000" fill-rule="evenodd" fill-opacity="1" /><path clip-path="url(#clip970)" d="M599.861 1612.73 L599.861 1620.09 L608.634 1620.09 L608.634 1623.4 L599.861 1623.4 L599.861 1637.47 Q599.861 1640.64 600.718 1641.55 Q601.597 1642.45 604.259 1642.45 L608.634 1642.45 L608.634 1646.01 L604.259 1646.01 Q599.329 1646.01 597.454 1644.18 Q595.579 1642.33 595.579 1637.47 L595.579 1623.4 L592.454 1623.4 L592.454 1620.09 L595.579 1620.09 L595.579 1612.73 L599.861 1612.73 Z" fill="#000000" fill-rule="evenodd" fill-opacity="1" /><path clip-path="url(#clip970)" d="M645.833 1620.85 L645.833 1624.88 Q644.027 1623.95 642.083 1623.49 Q640.139 1623.03 638.055 1623.03 Q634.884 1623.03 633.287 1624 Q631.713 1624.97 631.713 1626.92 Q631.713 1628.4 632.847 1629.25 Q633.981 1630.09 637.407 1630.85 L638.865 1631.17 Q643.402 1632.15 645.301 1633.93 Q647.222 1635.69 647.222 1638.86 Q647.222 1642.47 644.352 1644.58 Q641.504 1646.68 636.504 1646.68 Q634.421 1646.68 632.153 1646.27 Q629.907 1645.87 627.407 1645.06 L627.407 1640.67 Q629.768 1641.89 632.06 1642.52 Q634.352 1643.12 636.597 1643.12 Q639.606 1643.12 641.227 1642.1 Q642.847 1641.06 642.847 1639.18 Q642.847 1637.45 641.666 1636.52 Q640.509 1635.6 636.551 1634.74 L635.069 1634.39 Q631.111 1633.56 629.352 1631.85 Q627.592 1630.11 627.592 1627.1 Q627.592 1623.44 630.185 1621.45 Q632.778 1619.46 637.546 1619.46 Q639.907 1619.46 641.99 1619.81 Q644.074 1620.16 645.833 1620.85 Z" fill="#000000" fill-rule="evenodd" fill-opacity="1" /><path clip-path="url(#clip970)" d="M664.05 1623.07 Q660.625 1623.07 658.634 1625.76 Q656.643 1628.42 656.643 1633.07 Q656.643 1637.73 658.611 1640.41 Q660.601 1643.07 664.05 1643.07 Q667.453 1643.07 669.444 1640.39 Q671.435 1637.7 671.435 1633.07 Q671.435 1628.47 669.444 1625.78 Q667.453 1623.07 664.05 1623.07 M664.05 1619.46 Q669.606 1619.46 672.777 1623.07 Q675.949 1626.68 675.949 1633.07 Q675.949 1639.44 672.777 1643.07 Q669.606 1646.68 664.05 1646.68 Q658.472 1646.68 655.301 1643.07 Q652.152 1639.44 652.152 1633.07 Q652.152 1626.68 655.301 1623.07 Q658.472 1619.46 664.05 1619.46 Z" fill="#000000" fill-rule="evenodd" fill-opacity="1" /><path clip-path="url(#clip970)" d="M683.009 1609.99 L687.268 1609.99 L687.268 1646.01 L683.009 1646.01 L683.009 1609.99 Z" fill="#000000" fill-rule="evenodd" fill-opacity="1" /><path clip-path="url(#clip970)" d="M695.74 1635.78 L695.74 1620.09 L699.999 1620.09 L699.999 1635.62 Q699.999 1639.3 701.435 1641.15 Q702.87 1642.98 705.74 1642.98 Q709.189 1642.98 711.18 1640.78 Q713.194 1638.58 713.194 1634.79 L713.194 1620.09 L717.453 1620.09 L717.453 1646.01 L713.194 1646.01 L713.194 1642.03 Q711.643 1644.39 709.583 1645.55 Q707.546 1646.68 704.837 1646.68 Q700.37 1646.68 698.055 1643.91 Q695.74 1641.13 695.74 1635.78 M706.458 1619.46 L706.458 1619.46 Z" fill="#000000" fill-rule="evenodd" fill-opacity="1" /><path clip-path="url(#clip970)" d="M730.439 1612.73 L730.439 1620.09 L739.212 1620.09 L739.212 1623.4 L730.439 1623.4 L730.439 1637.47 Q730.439 1640.64 731.296 1641.55 Q732.175 1642.45 734.837 1642.45 L739.212 1642.45 L739.212 1646.01 L734.837 1646.01 Q729.907 1646.01 728.032 1644.18 Q726.157 1642.33 726.157 1637.47 L726.157 1623.4 L723.032 1623.4 L723.032 1620.09 L726.157 1620.09 L726.157 1612.73 L730.439 1612.73 Z" fill="#000000" fill-rule="evenodd" fill-opacity="1" /><path clip-path="url(#clip970)" d="M744.814 1620.09 L749.073 1620.09 L749.073 1646.01 L744.814 1646.01 L744.814 1620.09 M744.814 1609.99 L749.073 1609.99 L749.073 1615.39 L744.814 1615.39 L744.814 1609.99 Z" fill="#000000" fill-rule="evenodd" fill-opacity="1" /><path clip-path="url(#clip970)" d="M768.031 1623.07 Q764.606 1623.07 762.615 1625.76 Q760.624 1628.42 760.624 1633.07 Q760.624 1637.73 762.592 1640.41 Q764.582 1643.07 768.031 1643.07 Q771.434 1643.07 773.425 1640.39 Q775.416 1637.7 775.416 1633.07 Q775.416 1628.47 773.425 1625.78 Q771.434 1623.07 768.031 1623.07 M768.031 1619.46 Q773.587 1619.46 776.758 1623.07 Q779.93 1626.68 779.93 1633.07 Q779.93 1639.44 776.758 1643.07 Q773.587 1646.68 768.031 1646.68 Q762.453 1646.68 759.281 1643.07 Q756.133 1639.44 756.133 1633.07 Q756.133 1626.68 759.281 1623.07 Q762.453 1619.46 768.031 1619.46 Z" fill="#000000" fill-rule="evenodd" fill-opacity="1" /><path clip-path="url(#clip970)" d="M808.54 1630.36 L808.54 1646.01 L804.281 1646.01 L804.281 1630.5 Q804.281 1626.82 802.846 1624.99 Q801.411 1623.17 798.541 1623.17 Q795.091 1623.17 793.101 1625.36 Q791.11 1627.56 791.11 1631.36 L791.11 1646.01 L786.828 1646.01 L786.828 1620.09 L791.11 1620.09 L791.11 1624.11 Q792.638 1621.78 794.698 1620.62 Q796.781 1619.46 799.49 1619.46 Q803.957 1619.46 806.249 1622.24 Q808.54 1624.99 808.54 1630.36 Z" fill="#000000" fill-rule="evenodd" fill-opacity="1" /></svg>
