<?xml version="1.0" encoding="utf-8"?>
<svg xmlns="http://www.w3.org/2000/svg" xmlns:xlink="http://www.w3.org/1999/xlink" width="672" height="480" viewBox="0 0 2688 1920">
<defs>
  <clipPath id="clip710">
    <rect x="0" y="0" width="2688" height="1920"/>
  </clipPath>
</defs>
<path clip-path="url(#clip710)" d="
M0 1920 L2688 1920 L2688 0 L0 0  Z
  " fill="#ffffff" fill-rule="evenodd" fill-opacity="1"/>
<defs>
  <clipPath id="clip711">
    <rect x="537" y="0" width="1883" height="1883"/>
  </clipPath>
</defs>
<path clip-path="url(#clip710)" d="
M158.992 1800.78 L2640.76 1800.78 L2640.76 47.2441 L158.992 47.2441  Z
  " fill="#ffffff" fill-rule="evenodd" fill-opacity="1"/>
<defs>
  <clipPath id="clip712">
    <rect x="158" y="47" width="2483" height="1755"/>
  </clipPath>
</defs>
<polyline clip-path="url(#clip712)" style="stroke:#000000; stroke-linecap:round; stroke-linejoin:round; stroke-width:2; stroke-opacity:0.1; fill:none" points="
  229.231,1800.78 229.231,47.2441 
  "/>
<polyline clip-path="url(#clip712)" style="stroke:#000000; stroke-linecap:round; stroke-linejoin:round; stroke-width:2; stroke-opacity:0.1; fill:none" points="
  697.488,1800.78 697.488,47.2441 
  "/>
<polyline clip-path="url(#clip712)" style="stroke:#000000; stroke-linecap:round; stroke-linejoin:round; stroke-width:2; stroke-opacity:0.1; fill:none" points="
  1165.75,1800.78 1165.75,47.2441 
  "/>
<polyline clip-path="url(#clip712)" style="stroke:#000000; stroke-linecap:round; stroke-linejoin:round; stroke-width:2; stroke-opacity:0.1; fill:none" points="
  1634,1800.78 1634,47.2441 
  "/>
<polyline clip-path="url(#clip712)" style="stroke:#000000; stroke-linecap:round; stroke-linejoin:round; stroke-width:2; stroke-opacity:0.1; fill:none" points="
  2102.26,1800.78 2102.26,47.2441 
  "/>
<polyline clip-path="url(#clip712)" style="stroke:#000000; stroke-linecap:round; stroke-linejoin:round; stroke-width:2; stroke-opacity:0.1; fill:none" points="
  2570.52,1800.78 2570.52,47.2441 
  "/>
<polyline clip-path="url(#clip710)" style="stroke:#000000; stroke-linecap:round; stroke-linejoin:round; stroke-width:4; stroke-opacity:1; fill:none" points="
  158.992,1800.78 2640.76,1800.78 
  "/>
<polyline clip-path="url(#clip710)" style="stroke:#000000; stroke-linecap:round; stroke-linejoin:round; stroke-width:4; stroke-opacity:1; fill:none" points="
  229.231,1800.78 229.231,1781.88 
  "/>
<polyline clip-path="url(#clip710)" style="stroke:#000000; stroke-linecap:round; stroke-linejoin:round; stroke-width:4; stroke-opacity:1; fill:none" points="
  697.488,1800.78 697.488,1781.88 
  "/>
<polyline clip-path="url(#clip710)" style="stroke:#000000; stroke-linecap:round; stroke-linejoin:round; stroke-width:4; stroke-opacity:1; fill:none" points="
  1165.75,1800.78 1165.75,1781.88 
  "/>
<polyline clip-path="url(#clip710)" style="stroke:#000000; stroke-linecap:round; stroke-linejoin:round; stroke-width:4; stroke-opacity:1; fill:none" points="
  1634,1800.78 1634,1781.88 
  "/>
<polyline clip-path="url(#clip710)" style="stroke:#000000; stroke-linecap:round; stroke-linejoin:round; stroke-width:4; stroke-opacity:1; fill:none" points="
  2102.26,1800.78 2102.26,1781.88 
  "/>
<polyline clip-path="url(#clip710)" style="stroke:#000000; stroke-linecap:round; stroke-linejoin:round; stroke-width:4; stroke-opacity:1; fill:none" points="
  2570.52,1800.78 2570.52,1781.88 
  "/>
<path clip-path="url(#clip710)" d="M176.256 1848.65 L205.932 1848.65 L205.932 1852.59 L176.256 1852.59 L176.256 1848.65 Z" fill="#000000" fill-rule="evenodd" fill-opacity="1" /><path clip-path="url(#clip710)" d="M226.025 1834 Q222.414 1834 220.585 1837.57 Q218.779 1841.11 218.779 1848.24 Q218.779 1855.34 220.585 1858.91 Q222.414 1862.45 226.025 1862.45 Q229.659 1862.45 231.465 1858.91 Q233.293 1855.34 233.293 1848.24 Q233.293 1841.11 231.465 1837.57 Q229.659 1834 226.025 1834 M226.025 1830.3 Q231.835 1830.3 234.89 1834.9 Q237.969 1839.49 237.969 1848.24 Q237.969 1856.96 234.89 1861.57 Q231.835 1866.15 226.025 1866.15 Q220.215 1866.15 217.136 1861.57 Q214.08 1856.96 214.08 1848.24 Q214.08 1839.49 217.136 1834.9 Q220.215 1830.3 226.025 1830.3 Z" fill="#000000" fill-rule="evenodd" fill-opacity="1" /><path clip-path="url(#clip710)" d="M246.187 1859.6 L251.071 1859.6 L251.071 1865.48 L246.187 1865.48 L246.187 1859.6 Z" fill="#000000" fill-rule="evenodd" fill-opacity="1" /><path clip-path="url(#clip710)" d="M261.302 1830.92 L279.659 1830.92 L279.659 1834.86 L265.585 1834.86 L265.585 1843.33 Q266.603 1842.98 267.622 1842.82 Q268.64 1842.64 269.659 1842.64 Q275.446 1842.64 278.825 1845.81 Q282.205 1848.98 282.205 1854.4 Q282.205 1859.97 278.733 1863.08 Q275.261 1866.15 268.941 1866.15 Q266.765 1866.15 264.497 1865.78 Q262.251 1865.41 259.844 1864.67 L259.844 1859.97 Q261.927 1861.11 264.15 1861.66 Q266.372 1862.22 268.849 1862.22 Q272.853 1862.22 275.191 1860.11 Q277.529 1858.01 277.529 1854.4 Q277.529 1850.78 275.191 1848.68 Q272.853 1846.57 268.849 1846.57 Q266.974 1846.57 265.099 1846.99 Q263.247 1847.4 261.302 1848.28 L261.302 1830.92 Z" fill="#000000" fill-rule="evenodd" fill-opacity="1" /><path clip-path="url(#clip710)" d="M674.872 1834 Q671.261 1834 669.433 1837.57 Q667.627 1841.11 667.627 1848.24 Q667.627 1855.34 669.433 1858.91 Q671.261 1862.45 674.872 1862.45 Q678.507 1862.45 680.312 1858.91 Q682.141 1855.34 682.141 1848.24 Q682.141 1841.11 680.312 1837.57 Q678.507 1834 674.872 1834 M674.872 1830.3 Q680.683 1830.3 683.738 1834.9 Q686.817 1839.49 686.817 1848.24 Q686.817 1856.96 683.738 1861.57 Q680.683 1866.15 674.872 1866.15 Q669.062 1866.15 665.984 1861.57 Q662.928 1856.96 662.928 1848.24 Q662.928 1839.49 665.984 1834.9 Q669.062 1830.3 674.872 1830.3 Z" fill="#000000" fill-rule="evenodd" fill-opacity="1" /><path clip-path="url(#clip710)" d="M695.034 1859.6 L699.919 1859.6 L699.919 1865.48 L695.034 1865.48 L695.034 1859.6 Z" fill="#000000" fill-rule="evenodd" fill-opacity="1" /><path clip-path="url(#clip710)" d="M720.104 1834 Q716.493 1834 714.664 1837.57 Q712.858 1841.11 712.858 1848.24 Q712.858 1855.34 714.664 1858.91 Q716.493 1862.45 720.104 1862.45 Q723.738 1862.45 725.543 1858.91 Q727.372 1855.34 727.372 1848.24 Q727.372 1841.11 725.543 1837.57 Q723.738 1834 720.104 1834 M720.104 1830.3 Q725.914 1830.3 728.969 1834.9 Q732.048 1839.49 732.048 1848.24 Q732.048 1856.96 728.969 1861.57 Q725.914 1866.15 720.104 1866.15 Q714.294 1866.15 711.215 1861.57 Q708.159 1856.96 708.159 1848.24 Q708.159 1839.49 711.215 1834.9 Q714.294 1830.3 720.104 1830.3 Z" fill="#000000" fill-rule="evenodd" fill-opacity="1" /><path clip-path="url(#clip710)" d="M1143.63 1834 Q1140.02 1834 1138.19 1837.57 Q1136.38 1841.11 1136.38 1848.24 Q1136.38 1855.34 1138.19 1858.91 Q1140.02 1862.45 1143.63 1862.45 Q1147.26 1862.45 1149.07 1858.91 Q1150.9 1855.34 1150.9 1848.24 Q1150.9 1841.11 1149.07 1837.57 Q1147.26 1834 1143.63 1834 M1143.63 1830.3 Q1149.44 1830.3 1152.49 1834.9 Q1155.57 1839.49 1155.57 1848.24 Q1155.57 1856.96 1152.49 1861.57 Q1149.44 1866.15 1143.63 1866.15 Q1137.82 1866.15 1134.74 1861.57 Q1131.68 1856.96 1131.68 1848.24 Q1131.68 1839.49 1134.74 1834.9 Q1137.82 1830.3 1143.63 1830.3 Z" fill="#000000" fill-rule="evenodd" fill-opacity="1" /><path clip-path="url(#clip710)" d="M1163.79 1859.6 L1168.67 1859.6 L1168.67 1865.48 L1163.79 1865.48 L1163.79 1859.6 Z" fill="#000000" fill-rule="evenodd" fill-opacity="1" /><path clip-path="url(#clip710)" d="M1178.91 1830.92 L1197.26 1830.92 L1197.26 1834.86 L1183.19 1834.86 L1183.19 1843.33 Q1184.21 1842.98 1185.22 1842.82 Q1186.24 1842.64 1187.26 1842.64 Q1193.05 1842.64 1196.43 1845.81 Q1199.81 1848.98 1199.81 1854.4 Q1199.81 1859.97 1196.34 1863.08 Q1192.86 1866.15 1186.54 1866.15 Q1184.37 1866.15 1182.1 1865.78 Q1179.85 1865.41 1177.45 1864.67 L1177.45 1859.97 Q1179.53 1861.11 1181.75 1861.66 Q1183.97 1862.22 1186.45 1862.22 Q1190.46 1862.22 1192.79 1860.11 Q1195.13 1858.01 1195.13 1854.4 Q1195.13 1850.78 1192.79 1848.68 Q1190.46 1846.57 1186.45 1846.57 Q1184.58 1846.57 1182.7 1846.99 Q1180.85 1847.4 1178.91 1848.28 L1178.91 1830.92 Z" fill="#000000" fill-rule="evenodd" fill-opacity="1" /><path clip-path="url(#clip710)" d="M1601.16 1861.55 L1608.79 1861.55 L1608.79 1835.18 L1600.48 1836.85 L1600.48 1832.59 L1608.75 1830.92 L1613.42 1830.92 L1613.42 1861.55 L1621.06 1861.55 L1621.06 1865.48 L1601.16 1865.48 L1601.16 1861.55 Z" fill="#000000" fill-rule="evenodd" fill-opacity="1" /><path clip-path="url(#clip710)" d="M1630.51 1859.6 L1635.39 1859.6 L1635.39 1865.48 L1630.51 1865.48 L1630.51 1859.6 Z" fill="#000000" fill-rule="evenodd" fill-opacity="1" /><path clip-path="url(#clip710)" d="M1655.58 1834 Q1651.97 1834 1650.14 1837.57 Q1648.33 1841.11 1648.33 1848.24 Q1648.33 1855.34 1650.14 1858.91 Q1651.97 1862.45 1655.58 1862.45 Q1659.21 1862.45 1661.02 1858.91 Q1662.85 1855.34 1662.85 1848.24 Q1662.85 1841.11 1661.02 1837.57 Q1659.21 1834 1655.58 1834 M1655.58 1830.3 Q1661.39 1830.3 1664.44 1834.9 Q1667.52 1839.49 1667.52 1848.24 Q1667.52 1856.96 1664.44 1861.57 Q1661.39 1866.15 1655.58 1866.15 Q1649.77 1866.15 1646.69 1861.57 Q1643.63 1856.96 1643.63 1848.24 Q1643.63 1839.49 1646.69 1834.9 Q1649.77 1830.3 1655.58 1830.3 Z" fill="#000000" fill-rule="evenodd" fill-opacity="1" /><path clip-path="url(#clip710)" d="M2069.91 1861.55 L2077.55 1861.55 L2077.55 1835.18 L2069.24 1836.85 L2069.24 1832.59 L2077.5 1830.92 L2082.18 1830.92 L2082.18 1861.55 L2089.82 1861.55 L2089.82 1865.48 L2069.91 1865.48 L2069.91 1861.55 Z" fill="#000000" fill-rule="evenodd" fill-opacity="1" /><path clip-path="url(#clip710)" d="M2099.26 1859.6 L2104.15 1859.6 L2104.15 1865.48 L2099.26 1865.48 L2099.26 1859.6 Z" fill="#000000" fill-rule="evenodd" fill-opacity="1" /><path clip-path="url(#clip710)" d="M2114.38 1830.92 L2132.73 1830.92 L2132.73 1834.86 L2118.66 1834.86 L2118.66 1843.33 Q2119.68 1842.98 2120.7 1842.82 Q2121.72 1842.64 2122.73 1842.64 Q2128.52 1842.64 2131.9 1845.81 Q2135.28 1848.98 2135.28 1854.4 Q2135.28 1859.97 2131.81 1863.08 Q2128.34 1866.15 2122.02 1866.15 Q2119.84 1866.15 2117.57 1865.78 Q2115.33 1865.41 2112.92 1864.67 L2112.92 1859.97 Q2115 1861.11 2117.23 1861.66 Q2119.45 1862.22 2121.92 1862.22 Q2125.93 1862.22 2128.27 1860.11 Q2130.6 1858.01 2130.6 1854.4 Q2130.6 1850.78 2128.27 1848.68 Q2125.93 1846.57 2121.92 1846.57 Q2120.05 1846.57 2118.17 1846.99 Q2116.32 1847.4 2114.38 1848.28 L2114.38 1830.92 Z" fill="#000000" fill-rule="evenodd" fill-opacity="1" /><path clip-path="url(#clip710)" d="M2541.76 1861.55 L2558.08 1861.55 L2558.08 1865.48 L2536.13 1865.48 L2536.13 1861.55 Q2538.79 1858.79 2543.38 1854.16 Q2547.98 1849.51 2549.16 1848.17 Q2551.41 1845.65 2552.29 1843.91 Q2553.19 1842.15 2553.19 1840.46 Q2553.19 1837.71 2551.25 1835.97 Q2549.33 1834.23 2546.22 1834.23 Q2544.02 1834.23 2541.57 1835 Q2539.14 1835.76 2536.36 1837.31 L2536.36 1832.59 Q2539.19 1831.46 2541.64 1830.88 Q2544.09 1830.3 2546.13 1830.3 Q2551.5 1830.3 2554.7 1832.98 Q2557.89 1835.67 2557.89 1840.16 Q2557.89 1842.29 2557.08 1844.21 Q2556.29 1846.11 2554.19 1848.7 Q2553.61 1849.37 2550.51 1852.59 Q2547.4 1855.78 2541.76 1861.55 Z" fill="#000000" fill-rule="evenodd" fill-opacity="1" /><path clip-path="url(#clip710)" d="M2567.89 1859.6 L2572.77 1859.6 L2572.77 1865.48 L2567.89 1865.48 L2567.89 1859.6 Z" fill="#000000" fill-rule="evenodd" fill-opacity="1" /><path clip-path="url(#clip710)" d="M2592.96 1834 Q2589.35 1834 2587.52 1837.57 Q2585.71 1841.11 2585.71 1848.24 Q2585.71 1855.34 2587.52 1858.91 Q2589.35 1862.45 2592.96 1862.45 Q2596.59 1862.45 2598.4 1858.91 Q2600.23 1855.34 2600.23 1848.24 Q2600.23 1841.11 2598.4 1837.57 Q2596.59 1834 2592.96 1834 M2592.96 1830.3 Q2598.77 1830.3 2601.83 1834.9 Q2604.9 1839.49 2604.9 1848.24 Q2604.9 1856.96 2601.83 1861.57 Q2598.77 1866.15 2592.96 1866.15 Q2587.15 1866.15 2584.07 1861.57 Q2581.01 1856.96 2581.01 1848.24 Q2581.01 1839.49 2584.07 1834.9 Q2587.15 1830.3 2592.96 1830.3 Z" fill="#000000" fill-rule="evenodd" fill-opacity="1" /><polyline clip-path="url(#clip712)" style="stroke:#000000; stroke-linecap:round; stroke-linejoin:round; stroke-width:2; stroke-opacity:0.1; fill:none" points="
  158.992,1751.17 2640.76,1751.17 
  "/>
<polyline clip-path="url(#clip712)" style="stroke:#000000; stroke-linecap:round; stroke-linejoin:round; stroke-width:2; stroke-opacity:0.1; fill:none" points="
  158.992,1337.6 2640.76,1337.6 
  "/>
<polyline clip-path="url(#clip712)" style="stroke:#000000; stroke-linecap:round; stroke-linejoin:round; stroke-width:2; stroke-opacity:0.1; fill:none" points="
  158.992,924.021 2640.76,924.021 
  "/>
<polyline clip-path="url(#clip712)" style="stroke:#000000; stroke-linecap:round; stroke-linejoin:round; stroke-width:2; stroke-opacity:0.1; fill:none" points="
  158.992,510.447 2640.76,510.447 
  "/>
<polyline clip-path="url(#clip712)" style="stroke:#000000; stroke-linecap:round; stroke-linejoin:round; stroke-width:2; stroke-opacity:0.1; fill:none" points="
  158.992,96.8724 2640.76,96.8724 
  "/>
<polyline clip-path="url(#clip710)" style="stroke:#000000; stroke-linecap:round; stroke-linejoin:round; stroke-width:4; stroke-opacity:1; fill:none" points="
  158.992,1800.78 158.992,47.2441 
  "/>
<polyline clip-path="url(#clip710)" style="stroke:#000000; stroke-linecap:round; stroke-linejoin:round; stroke-width:4; stroke-opacity:1; fill:none" points="
  158.992,1751.17 177.89,1751.17 
  "/>
<polyline clip-path="url(#clip710)" style="stroke:#000000; stroke-linecap:round; stroke-linejoin:round; stroke-width:4; stroke-opacity:1; fill:none" points="
  158.992,1337.6 177.89,1337.6 
  "/>
<polyline clip-path="url(#clip710)" style="stroke:#000000; stroke-linecap:round; stroke-linejoin:round; stroke-width:4; stroke-opacity:1; fill:none" points="
  158.992,924.021 177.89,924.021 
  "/>
<polyline clip-path="url(#clip710)" style="stroke:#000000; stroke-linecap:round; stroke-linejoin:round; stroke-width:4; stroke-opacity:1; fill:none" points="
  158.992,510.447 177.89,510.447 
  "/>
<polyline clip-path="url(#clip710)" style="stroke:#000000; stroke-linecap:round; stroke-linejoin:round; stroke-width:4; stroke-opacity:1; fill:none" points="
  158.992,96.8724 177.89,96.8724 
  "/>
<path clip-path="url(#clip710)" d="M61.4965 1736.97 Q57.8854 1736.97 56.0567 1740.53 Q54.2512 1744.07 54.2512 1751.2 Q54.2512 1758.31 56.0567 1761.88 Q57.8854 1765.42 61.4965 1765.42 Q65.1307 1765.42 66.9363 1761.88 Q68.765 1758.31 68.765 1751.2 Q68.765 1744.07 66.9363 1740.53 Q65.1307 1736.97 61.4965 1736.97 M61.4965 1733.26 Q67.3067 1733.26 70.3622 1737.87 Q73.4409 1742.45 73.4409 1751.2 Q73.4409 1759.93 70.3622 1764.54 Q67.3067 1769.12 61.4965 1769.12 Q55.6864 1769.12 52.6077 1764.54 Q49.5521 1759.93 49.5521 1751.2 Q49.5521 1742.45 52.6077 1737.87 Q55.6864 1733.26 61.4965 1733.26 Z" fill="#000000" fill-rule="evenodd" fill-opacity="1" /><path clip-path="url(#clip710)" d="M81.6584 1762.57 L86.5427 1762.57 L86.5427 1768.45 L81.6584 1768.45 L81.6584 1762.57 Z" fill="#000000" fill-rule="evenodd" fill-opacity="1" /><path clip-path="url(#clip710)" d="M106.728 1736.97 Q103.117 1736.97 101.288 1740.53 Q99.4824 1744.07 99.4824 1751.2 Q99.4824 1758.31 101.288 1761.88 Q103.117 1765.42 106.728 1765.42 Q110.362 1765.42 112.168 1761.88 Q113.996 1758.31 113.996 1751.2 Q113.996 1744.07 112.168 1740.53 Q110.362 1736.97 106.728 1736.97 M106.728 1733.26 Q112.538 1733.26 115.593 1737.87 Q118.672 1742.45 118.672 1751.2 Q118.672 1759.93 115.593 1764.54 Q112.538 1769.12 106.728 1769.12 Q100.918 1769.12 97.8389 1764.54 Q94.7834 1759.93 94.7834 1751.2 Q94.7834 1742.45 97.8389 1737.87 Q100.918 1733.26 106.728 1733.26 Z" fill="#000000" fill-rule="evenodd" fill-opacity="1" /><path clip-path="url(#clip710)" d="M62.4919 1323.39 Q58.8808 1323.39 57.0521 1326.96 Q55.2465 1330.5 55.2465 1337.63 Q55.2465 1344.74 57.0521 1348.3 Q58.8808 1351.84 62.4919 1351.84 Q66.1261 1351.84 67.9317 1348.3 Q69.7604 1344.74 69.7604 1337.63 Q69.7604 1330.5 67.9317 1326.96 Q66.1261 1323.39 62.4919 1323.39 M62.4919 1319.69 Q68.302 1319.69 71.3576 1324.3 Q74.4363 1328.88 74.4363 1337.63 Q74.4363 1346.36 71.3576 1350.96 Q68.302 1355.55 62.4919 1355.55 Q56.6817 1355.55 53.603 1350.96 Q50.5475 1346.36 50.5475 1337.63 Q50.5475 1328.88 53.603 1324.3 Q56.6817 1319.69 62.4919 1319.69 Z" fill="#000000" fill-rule="evenodd" fill-opacity="1" /><path clip-path="url(#clip710)" d="M82.6538 1349 L87.538 1349 L87.538 1354.88 L82.6538 1354.88 L82.6538 1349 Z" fill="#000000" fill-rule="evenodd" fill-opacity="1" /><path clip-path="url(#clip710)" d="M97.7695 1320.32 L116.126 1320.32 L116.126 1324.25 L102.052 1324.25 L102.052 1332.72 Q103.07 1332.38 104.089 1332.21 Q105.107 1332.03 106.126 1332.03 Q111.913 1332.03 115.293 1335.2 Q118.672 1338.37 118.672 1343.79 Q118.672 1349.37 115.2 1352.47 Q111.728 1355.55 105.408 1355.55 Q103.232 1355.55 100.964 1355.18 Q98.7185 1354.81 96.3111 1354.06 L96.3111 1349.37 Q98.3945 1350.5 100.617 1351.06 Q102.839 1351.61 105.316 1351.61 Q109.32 1351.61 111.658 1349.5 Q113.996 1347.4 113.996 1343.79 Q113.996 1340.18 111.658 1338.07 Q109.32 1335.96 105.316 1335.96 Q103.441 1335.96 101.566 1336.38 Q99.7139 1336.8 97.7695 1337.68 L97.7695 1320.32 Z" fill="#000000" fill-rule="evenodd" fill-opacity="1" /><path clip-path="url(#clip710)" d="M52.3067 937.366 L59.9456 937.366 L59.9456 911 L51.6354 912.667 L51.6354 908.408 L59.8993 906.741 L64.5752 906.741 L64.5752 937.366 L72.214 937.366 L72.214 941.301 L52.3067 941.301 L52.3067 937.366 Z" fill="#000000" fill-rule="evenodd" fill-opacity="1" /><path clip-path="url(#clip710)" d="M81.6584 935.421 L86.5427 935.421 L86.5427 941.301 L81.6584 941.301 L81.6584 935.421 Z" fill="#000000" fill-rule="evenodd" fill-opacity="1" /><path clip-path="url(#clip710)" d="M106.728 909.82 Q103.117 909.82 101.288 913.384 Q99.4824 916.926 99.4824 924.056 Q99.4824 931.162 101.288 934.727 Q103.117 938.269 106.728 938.269 Q110.362 938.269 112.168 934.727 Q113.996 931.162 113.996 924.056 Q113.996 916.926 112.168 913.384 Q110.362 909.82 106.728 909.82 M106.728 906.116 Q112.538 906.116 115.593 910.722 Q118.672 915.306 118.672 924.056 Q118.672 932.782 115.593 937.389 Q112.538 941.972 106.728 941.972 Q100.918 941.972 97.8389 937.389 Q94.7834 932.782 94.7834 924.056 Q94.7834 915.306 97.8389 910.722 Q100.918 906.116 106.728 906.116 Z" fill="#000000" fill-rule="evenodd" fill-opacity="1" /><path clip-path="url(#clip710)" d="M53.3021 523.792 L60.941 523.792 L60.941 497.426 L52.6308 499.093 L52.6308 494.833 L60.8947 493.167 L65.5706 493.167 L65.5706 523.792 L73.2094 523.792 L73.2094 527.727 L53.3021 527.727 L53.3021 523.792 Z" fill="#000000" fill-rule="evenodd" fill-opacity="1" /><path clip-path="url(#clip710)" d="M82.6538 521.847 L87.538 521.847 L87.538 527.727 L82.6538 527.727 L82.6538 521.847 Z" fill="#000000" fill-rule="evenodd" fill-opacity="1" /><path clip-path="url(#clip710)" d="M97.7695 493.167 L116.126 493.167 L116.126 497.102 L102.052 497.102 L102.052 505.574 Q103.07 505.227 104.089 505.065 Q105.107 504.88 106.126 504.88 Q111.913 504.88 115.293 508.051 Q118.672 511.222 118.672 516.639 Q118.672 522.217 115.2 525.319 Q111.728 528.398 105.408 528.398 Q103.232 528.398 100.964 528.028 Q98.7185 527.657 96.3111 526.917 L96.3111 522.217 Q98.3945 523.352 100.617 523.907 Q102.839 524.463 105.316 524.463 Q109.32 524.463 111.658 522.356 Q113.996 520.25 113.996 516.639 Q113.996 513.028 111.658 510.921 Q109.32 508.815 105.316 508.815 Q103.441 508.815 101.566 509.231 Q99.7139 509.648 97.7695 510.528 L97.7695 493.167 Z" fill="#000000" fill-rule="evenodd" fill-opacity="1" /><path clip-path="url(#clip710)" d="M55.5243 110.217 L71.8437 110.217 L71.8437 114.152 L49.8993 114.152 L49.8993 110.217 Q52.5614 107.463 57.1447 102.833 Q61.7511 98.1803 62.9317 96.8377 Q65.177 94.3146 66.0567 92.5785 Q66.9594 90.8192 66.9594 89.1294 Q66.9594 86.3748 65.015 84.6387 Q63.0937 82.9026 59.9919 82.9026 Q57.7928 82.9026 55.3391 83.6665 Q52.9086 84.4304 50.1308 85.9813 L50.1308 81.2591 Q52.9549 80.1249 55.4086 79.5462 Q57.8623 78.9675 59.8993 78.9675 Q65.2696 78.9675 68.4641 81.6526 Q71.6585 84.3378 71.6585 88.8285 Q71.6585 90.9581 70.8483 92.8794 Q70.0613 94.7776 67.9548 97.3701 Q67.3761 98.0414 64.2743 101.259 Q61.1724 104.453 55.5243 110.217 Z" fill="#000000" fill-rule="evenodd" fill-opacity="1" /><path clip-path="url(#clip710)" d="M81.6584 108.273 L86.5427 108.273 L86.5427 114.152 L81.6584 114.152 L81.6584 108.273 Z" fill="#000000" fill-rule="evenodd" fill-opacity="1" /><path clip-path="url(#clip710)" d="M106.728 82.6711 Q103.117 82.6711 101.288 86.2359 Q99.4824 89.7776 99.4824 96.9072 Q99.4824 104.014 101.288 107.578 Q103.117 111.12 106.728 111.12 Q110.362 111.12 112.168 107.578 Q113.996 104.014 113.996 96.9072 Q113.996 89.7776 112.168 86.2359 Q110.362 82.6711 106.728 82.6711 M106.728 78.9675 Q112.538 78.9675 115.593 83.5739 Q118.672 88.1572 118.672 96.9072 Q118.672 105.634 115.593 110.24 Q112.538 114.824 106.728 114.824 Q100.918 114.824 97.8389 110.24 Q94.7834 105.634 94.7834 96.9072 Q94.7834 88.1572 97.8389 83.5739 Q100.918 78.9675 106.728 78.9675 Z" fill="#000000" fill-rule="evenodd" fill-opacity="1" /><polyline clip-path="url(#clip712)" style="stroke:#009af9; stroke-linecap:round; stroke-linejoin:round; stroke-width:4; stroke-opacity:1; fill:none" points="
  229.231,1591.41 233.041,1594.75 236.852,1598.03 240.663,1601.26 244.474,1604.44 262.092,1618.49 279.71,1631.51 297.328,1643.57 314.946,1654.74 332.564,1665.08 
  350.182,1674.63 367.8,1683.44 385.418,1691.55 406.593,1700.43 427.769,1708.42 448.944,1715.58 470.119,1721.95 488.023,1726.76 505.926,1731.07 523.83,1734.9 
  541.733,1738.28 580.63,1744.14 619.526,1748.13 655.385,1750.31 691.244,1751.15 729.689,1750.69 768.134,1748.93 812.676,1745.38 857.218,1740.35 896.802,1734.73 
  936.385,1728.11 971.097,1721.52 1005.81,1714.26 1043.65,1705.6 1081.5,1696.23 1119.57,1686.11 1157.64,1675.35 1199.73,1662.73 1241.82,1649.41 1281.87,1636.11 
  1321.91,1622.24 1405.2,1591.67 1475.3,1564.29 1560.89,1529 1639.3,1495.01 1711.71,1462.35 1785.07,1428.09 1867.28,1388.41 1941.77,1351.37 2027.06,1307.77 
  2106.04,1266.35 2183.89,1224.6 2259.49,1183.25 2336.98,1140.07 2421.88,1091.91 2545.21,1020.45 2570.52,1005.59 
  "/>
<polyline clip-path="url(#clip712)" style="stroke:#e26f46; stroke-linecap:round; stroke-linejoin:round; stroke-width:4; stroke-opacity:1; fill:none" points="
  229.231,1337.6 233.041,1350.84 236.852,1363.67 240.663,1376.08 244.474,1388.11 253.283,1414.47 262.092,1438.96 270.901,1461.73 279.71,1482.91 288.519,1502.62 
  297.328,1520.96 306.137,1538.04 314.946,1553.96 332.564,1582.6 350.182,1607.47 367.8,1629.09 385.418,1647.88 406.593,1667.21 427.769,1683.5 448.944,1697.19 
  470.119,1708.65 505.926,1723.82 541.733,1734.71 580.63,1742.76 619.526,1747.76 655.385,1750.25 691.244,1751.15 729.689,1750.68 768.134,1748.82 812.676,1744.91 
  857.218,1739.14 896.802,1732.44 936.385,1724.26 971.097,1715.87 1005.81,1706.34 1043.65,1694.66 1081.5,1681.63 1119.57,1667.16 1157.64,1651.33 1199.73,1632.22 
  1241.82,1611.45 1281.87,1590.14 1321.91,1567.31 1363.56,1541.97 1405.2,1514.99 1440.25,1491.02 1475.3,1465.89 1518.1,1433.63 1560.89,1399.65 1600.1,1367 
  1639.3,1332.9 1675.51,1300.13 1711.71,1266.11 1748.39,1230.39 1785.07,1193.41 1826.17,1150.45 1867.28,1105.9 1904.52,1064.16 1941.77,1021.1 1984.42,970.2 
  2027.06,917.583 2066.55,867.336 2106.04,815.618 2144.96,763.191 2183.89,709.335 2221.69,655.677 2259.49,600.673 2298.23,542.887 2336.98,483.686 2379.43,417.199 
  2421.88,349.012 2483.55,246.932 2545.21,141.266 2557.87,119.144 2570.52,96.8724 
  "/>
<path clip-path="url(#clip710)" d="
M2259.11 261.215 L2558.03 261.215 L2558.03 105.695 L2259.11 105.695  Z
  " fill="#ffffff" fill-rule="evenodd" fill-opacity="1"/>
<polyline clip-path="url(#clip710)" style="stroke:#000000; stroke-linecap:round; stroke-linejoin:round; stroke-width:4; stroke-opacity:1; fill:none" points="
  2259.11,261.215 2558.03,261.215 2558.03,105.695 2259.11,105.695 2259.11,261.215 
  "/>
<polyline clip-path="url(#clip710)" style="stroke:#009af9; stroke-linecap:round; stroke-linejoin:round; stroke-width:4; stroke-opacity:1; fill:none" points="
  2286.68,157.535 2452.13,157.535 
  "/>
<path clip-path="url(#clip710)" d="M2501.42 159.167 L2501.42 174.815 L2497.16 174.815 L2497.16 159.306 Q2497.16 155.626 2495.73 153.797 Q2494.29 151.968 2491.42 151.968 Q2487.97 151.968 2485.98 154.167 Q2483.99 156.366 2483.99 160.163 L2483.99 174.815 L2479.71 174.815 L2479.71 138.797 L2483.99 138.797 L2483.99 152.917 Q2485.52 150.579 2487.58 149.422 Q2489.66 148.264 2492.37 148.264 Q2496.84 148.264 2499.13 151.042 Q2501.42 153.797 2501.42 159.167 Z" fill="#000000" fill-rule="evenodd" fill-opacity="1" /><polyline clip-path="url(#clip710)" style="stroke:#e26f46; stroke-linecap:round; stroke-linejoin:round; stroke-width:4; stroke-opacity:1; fill:none" points="
  2286.68,209.375 2452.13,209.375 
  "/>
<path clip-path="url(#clip710)" d="M2498.62 213.391 Q2498.62 208.762 2496.7 206.216 Q2494.8 203.669 2491.35 203.669 Q2487.93 203.669 2486.01 206.216 Q2484.11 208.762 2484.11 213.391 Q2484.11 217.998 2486.01 220.544 Q2487.93 223.09 2491.35 223.09 Q2494.8 223.09 2496.7 220.544 Q2498.62 217.998 2498.62 213.391 M2502.88 223.438 Q2502.88 230.058 2499.94 233.276 Q2497 236.516 2490.94 236.516 Q2488.69 236.516 2486.7 236.169 Q2484.71 235.845 2482.83 235.151 L2482.83 231.007 Q2484.71 232.026 2486.54 232.512 Q2488.37 232.998 2490.26 232.998 Q2494.45 232.998 2496.54 230.799 Q2498.62 228.623 2498.62 224.202 L2498.62 222.095 Q2497.3 224.387 2495.24 225.521 Q2493.18 226.655 2490.31 226.655 Q2485.54 226.655 2482.63 223.021 Q2479.71 219.387 2479.71 213.391 Q2479.71 207.373 2482.63 203.739 Q2485.54 200.104 2490.31 200.104 Q2493.18 200.104 2495.24 201.239 Q2497.3 202.373 2498.62 204.665 L2498.62 200.729 L2502.88 200.729 L2502.88 223.438 Z" fill="#000000" fill-rule="evenodd" fill-opacity="1" /></svg>
