<?xml version="1.0" encoding="utf-8"?>
<svg xmlns="http://www.w3.org/2000/svg" xmlns:xlink="http://www.w3.org/1999/xlink" width="672" height="480" viewBox="0 0 2688 1920">
<defs>
  <clipPath id="clip550">
    <rect x="0" y="0" width="2688" height="1920"/>
  </clipPath>
</defs>
<path clip-path="url(#clip550)" d="
M0 1920 L2688 1920 L2688 0 L0 0  Z
  " fill="#ffffff" fill-rule="evenodd" fill-opacity="1"/>
<defs>
  <clipPath id="clip551">
    <rect x="537" y="0" width="1883" height="1883"/>
  </clipPath>
</defs>
<path clip-path="url(#clip550)" d="
M159.154 1800.78 L2640.76 1800.78 L2640.76 47.2441 L159.154 47.2441  Z
  " fill="#ffffff" fill-rule="evenodd" fill-opacity="1"/>
<defs>
  <clipPath id="clip552">
    <rect x="159" y="47" width="2483" height="1755"/>
  </clipPath>
</defs>
<polyline clip-path="url(#clip552)" style="stroke:#000000; stroke-linecap:round; stroke-linejoin:round; stroke-width:2; stroke-opacity:0.1; fill:none" points="
  463.502,1800.78 463.502,47.2441 
  "/>
<polyline clip-path="url(#clip552)" style="stroke:#000000; stroke-linecap:round; stroke-linejoin:round; stroke-width:2; stroke-opacity:0.1; fill:none" points="
  931.728,1800.78 931.728,47.2441 
  "/>
<polyline clip-path="url(#clip552)" style="stroke:#000000; stroke-linecap:round; stroke-linejoin:round; stroke-width:2; stroke-opacity:0.1; fill:none" points="
  1399.96,1800.78 1399.96,47.2441 
  "/>
<polyline clip-path="url(#clip552)" style="stroke:#000000; stroke-linecap:round; stroke-linejoin:round; stroke-width:2; stroke-opacity:0.1; fill:none" points="
  1868.18,1800.78 1868.18,47.2441 
  "/>
<polyline clip-path="url(#clip552)" style="stroke:#000000; stroke-linecap:round; stroke-linejoin:round; stroke-width:2; stroke-opacity:0.1; fill:none" points="
  2336.41,1800.78 2336.41,47.2441 
  "/>
<polyline clip-path="url(#clip550)" style="stroke:#000000; stroke-linecap:round; stroke-linejoin:round; stroke-width:4; stroke-opacity:1; fill:none" points="
  159.154,1800.78 2640.76,1800.78 
  "/>
<polyline clip-path="url(#clip550)" style="stroke:#000000; stroke-linecap:round; stroke-linejoin:round; stroke-width:4; stroke-opacity:1; fill:none" points="
  463.502,1800.78 463.502,1781.88 
  "/>
<polyline clip-path="url(#clip550)" style="stroke:#000000; stroke-linecap:round; stroke-linejoin:round; stroke-width:4; stroke-opacity:1; fill:none" points="
  931.728,1800.78 931.728,1781.88 
  "/>
<polyline clip-path="url(#clip550)" style="stroke:#000000; stroke-linecap:round; stroke-linejoin:round; stroke-width:4; stroke-opacity:1; fill:none" points="
  1399.96,1800.78 1399.96,1781.88 
  "/>
<polyline clip-path="url(#clip550)" style="stroke:#000000; stroke-linecap:round; stroke-linejoin:round; stroke-width:4; stroke-opacity:1; fill:none" points="
  1868.18,1800.78 1868.18,1781.88 
  "/>
<polyline clip-path="url(#clip550)" style="stroke:#000000; stroke-linecap:round; stroke-linejoin:round; stroke-width:4; stroke-opacity:1; fill:none" points="
  2336.41,1800.78 2336.41,1781.88 
  "/>
<path clip-path="url(#clip550)" d="M409.787 1848.65 L439.462 1848.65 L439.462 1852.59 L409.787 1852.59 L409.787 1848.65 Z" fill="#000000" fill-rule="evenodd" fill-opacity="1" /><path clip-path="url(#clip550)" d="M459.555 1834 Q455.944 1834 454.115 1837.57 Q452.309 1841.11 452.309 1848.24 Q452.309 1855.34 454.115 1858.91 Q455.944 1862.45 459.555 1862.45 Q463.189 1862.45 464.995 1858.91 Q466.823 1855.34 466.823 1848.24 Q466.823 1841.11 464.995 1837.57 Q463.189 1834 459.555 1834 M459.555 1830.3 Q465.365 1830.3 468.421 1834.9 Q471.499 1839.49 471.499 1848.24 Q471.499 1856.96 468.421 1861.57 Q465.365 1866.15 459.555 1866.15 Q453.745 1866.15 450.666 1861.57 Q447.61 1856.96 447.61 1848.24 Q447.61 1839.49 450.666 1834.9 Q453.745 1830.3 459.555 1830.3 Z" fill="#000000" fill-rule="evenodd" fill-opacity="1" /><path clip-path="url(#clip550)" d="M479.717 1859.6 L484.601 1859.6 L484.601 1865.48 L479.717 1865.48 L479.717 1859.6 Z" fill="#000000" fill-rule="evenodd" fill-opacity="1" /><path clip-path="url(#clip550)" d="M507.633 1835 L495.828 1853.45 L507.633 1853.45 L507.633 1835 M506.406 1830.92 L512.286 1830.92 L512.286 1853.45 L517.217 1853.45 L517.217 1857.34 L512.286 1857.34 L512.286 1865.48 L507.633 1865.48 L507.633 1857.34 L492.031 1857.34 L492.031 1852.82 L506.406 1830.92 Z" fill="#000000" fill-rule="evenodd" fill-opacity="1" /><path clip-path="url(#clip550)" d="M879.055 1848.65 L908.731 1848.65 L908.731 1852.59 L879.055 1852.59 L879.055 1848.65 Z" fill="#000000" fill-rule="evenodd" fill-opacity="1" /><path clip-path="url(#clip550)" d="M928.823 1834 Q925.212 1834 923.383 1837.57 Q921.578 1841.11 921.578 1848.24 Q921.578 1855.34 923.383 1858.91 Q925.212 1862.45 928.823 1862.45 Q932.457 1862.45 934.263 1858.91 Q936.092 1855.34 936.092 1848.24 Q936.092 1841.11 934.263 1837.57 Q932.457 1834 928.823 1834 M928.823 1830.3 Q934.633 1830.3 937.689 1834.9 Q940.768 1839.49 940.768 1848.24 Q940.768 1856.96 937.689 1861.57 Q934.633 1866.15 928.823 1866.15 Q923.013 1866.15 919.934 1861.57 Q916.879 1856.96 916.879 1848.24 Q916.879 1839.49 919.934 1834.9 Q923.013 1830.3 928.823 1830.3 Z" fill="#000000" fill-rule="evenodd" fill-opacity="1" /><path clip-path="url(#clip550)" d="M948.985 1859.6 L953.869 1859.6 L953.869 1865.48 L948.985 1865.48 L948.985 1859.6 Z" fill="#000000" fill-rule="evenodd" fill-opacity="1" /><path clip-path="url(#clip550)" d="M968.082 1861.55 L984.402 1861.55 L984.402 1865.48 L962.457 1865.48 L962.457 1861.55 Q965.119 1858.79 969.703 1854.16 Q974.309 1849.51 975.49 1848.17 Q977.735 1845.65 978.615 1843.91 Q979.517 1842.15 979.517 1840.46 Q979.517 1837.71 977.573 1835.97 Q975.652 1834.23 972.55 1834.23 Q970.351 1834.23 967.897 1835 Q965.467 1835.76 962.689 1837.31 L962.689 1832.59 Q965.513 1831.46 967.967 1830.88 Q970.42 1830.3 972.457 1830.3 Q977.828 1830.3 981.022 1832.98 Q984.216 1835.67 984.216 1840.16 Q984.216 1842.29 983.406 1844.21 Q982.619 1846.11 980.513 1848.7 Q979.934 1849.37 976.832 1852.59 Q973.73 1855.78 968.082 1861.55 Z" fill="#000000" fill-rule="evenodd" fill-opacity="1" /><path clip-path="url(#clip550)" d="M1377.34 1834 Q1373.73 1834 1371.9 1837.57 Q1370.09 1841.11 1370.09 1848.24 Q1370.09 1855.34 1371.9 1858.91 Q1373.73 1862.45 1377.34 1862.45 Q1380.97 1862.45 1382.78 1858.91 Q1384.61 1855.34 1384.61 1848.24 Q1384.61 1841.11 1382.78 1837.57 Q1380.97 1834 1377.34 1834 M1377.34 1830.3 Q1383.15 1830.3 1386.21 1834.9 Q1389.28 1839.49 1389.28 1848.24 Q1389.28 1856.96 1386.21 1861.57 Q1383.15 1866.15 1377.34 1866.15 Q1371.53 1866.15 1368.45 1861.57 Q1365.4 1856.96 1365.4 1848.24 Q1365.4 1839.49 1368.45 1834.9 Q1371.53 1830.3 1377.34 1830.3 Z" fill="#000000" fill-rule="evenodd" fill-opacity="1" /><path clip-path="url(#clip550)" d="M1397.5 1859.6 L1402.39 1859.6 L1402.39 1865.48 L1397.5 1865.48 L1397.5 1859.6 Z" fill="#000000" fill-rule="evenodd" fill-opacity="1" /><path clip-path="url(#clip550)" d="M1422.57 1834 Q1418.96 1834 1417.13 1837.57 Q1415.33 1841.11 1415.33 1848.24 Q1415.33 1855.34 1417.13 1858.91 Q1418.96 1862.45 1422.57 1862.45 Q1426.2 1862.45 1428.01 1858.91 Q1429.84 1855.34 1429.84 1848.24 Q1429.84 1841.11 1428.01 1837.57 Q1426.2 1834 1422.57 1834 M1422.57 1830.3 Q1428.38 1830.3 1431.44 1834.9 Q1434.52 1839.49 1434.52 1848.24 Q1434.52 1856.96 1431.44 1861.57 Q1428.38 1866.15 1422.57 1866.15 Q1416.76 1866.15 1413.68 1861.57 Q1410.63 1856.96 1410.63 1848.24 Q1410.63 1839.49 1413.68 1834.9 Q1416.76 1830.3 1422.57 1830.3 Z" fill="#000000" fill-rule="evenodd" fill-opacity="1" /><path clip-path="url(#clip550)" d="M1846.36 1834 Q1842.75 1834 1840.92 1837.57 Q1839.12 1841.11 1839.12 1848.24 Q1839.12 1855.34 1840.92 1858.91 Q1842.75 1862.45 1846.36 1862.45 Q1850 1862.45 1851.8 1858.91 Q1853.63 1855.34 1853.63 1848.24 Q1853.63 1841.11 1851.8 1837.57 Q1850 1834 1846.36 1834 M1846.36 1830.3 Q1852.17 1830.3 1855.23 1834.9 Q1858.31 1839.49 1858.31 1848.24 Q1858.31 1856.96 1855.23 1861.57 Q1852.17 1866.15 1846.36 1866.15 Q1840.55 1866.15 1837.48 1861.57 Q1834.42 1856.96 1834.42 1848.24 Q1834.42 1839.49 1837.48 1834.9 Q1840.55 1830.3 1846.36 1830.3 Z" fill="#000000" fill-rule="evenodd" fill-opacity="1" /><path clip-path="url(#clip550)" d="M1866.53 1859.6 L1871.41 1859.6 L1871.41 1865.48 L1866.53 1865.48 L1866.53 1859.6 Z" fill="#000000" fill-rule="evenodd" fill-opacity="1" /><path clip-path="url(#clip550)" d="M1885.62 1861.55 L1901.94 1861.55 L1901.94 1865.48 L1880 1865.48 L1880 1861.55 Q1882.66 1858.79 1887.24 1854.16 Q1891.85 1849.51 1893.03 1848.17 Q1895.28 1845.65 1896.16 1843.91 Q1897.06 1842.15 1897.06 1840.46 Q1897.06 1837.71 1895.11 1835.97 Q1893.19 1834.23 1890.09 1834.23 Q1887.89 1834.23 1885.44 1835 Q1883.01 1835.76 1880.23 1837.31 L1880.23 1832.59 Q1883.05 1831.46 1885.51 1830.88 Q1887.96 1830.3 1890 1830.3 Q1895.37 1830.3 1898.56 1832.98 Q1901.76 1835.67 1901.76 1840.16 Q1901.76 1842.29 1900.95 1844.21 Q1900.16 1846.11 1898.05 1848.7 Q1897.48 1849.37 1894.37 1852.59 Q1891.27 1855.78 1885.62 1861.55 Z" fill="#000000" fill-rule="evenodd" fill-opacity="1" /><path clip-path="url(#clip550)" d="M2313.55 1834 Q2309.94 1834 2308.11 1837.57 Q2306.3 1841.11 2306.3 1848.24 Q2306.3 1855.34 2308.11 1858.91 Q2309.94 1862.45 2313.55 1862.45 Q2317.18 1862.45 2318.99 1858.91 Q2320.82 1855.34 2320.82 1848.24 Q2320.82 1841.11 2318.99 1837.57 Q2317.18 1834 2313.55 1834 M2313.55 1830.3 Q2319.36 1830.3 2322.42 1834.9 Q2325.49 1839.49 2325.49 1848.24 Q2325.49 1856.96 2322.42 1861.57 Q2319.36 1866.15 2313.55 1866.15 Q2307.74 1866.15 2304.66 1861.57 Q2301.61 1856.96 2301.61 1848.24 Q2301.61 1839.49 2304.66 1834.9 Q2307.74 1830.3 2313.55 1830.3 Z" fill="#000000" fill-rule="evenodd" fill-opacity="1" /><path clip-path="url(#clip550)" d="M2333.71 1859.6 L2338.6 1859.6 L2338.6 1865.48 L2333.71 1865.48 L2333.71 1859.6 Z" fill="#000000" fill-rule="evenodd" fill-opacity="1" /><path clip-path="url(#clip550)" d="M2361.63 1835 L2349.82 1853.45 L2361.63 1853.45 L2361.63 1835 M2360.4 1830.92 L2366.28 1830.92 L2366.28 1853.45 L2371.21 1853.45 L2371.21 1857.34 L2366.28 1857.34 L2366.28 1865.48 L2361.63 1865.48 L2361.63 1857.34 L2346.03 1857.34 L2346.03 1852.82 L2360.4 1830.92 Z" fill="#000000" fill-rule="evenodd" fill-opacity="1" /><polyline clip-path="url(#clip552)" style="stroke:#000000; stroke-linecap:round; stroke-linejoin:round; stroke-width:2; stroke-opacity:0.1; fill:none" points="
  159.154,1640.87 2640.76,1640.87 
  "/>
<polyline clip-path="url(#clip552)" style="stroke:#000000; stroke-linecap:round; stroke-linejoin:round; stroke-width:2; stroke-opacity:0.1; fill:none" points="
  159.154,1310.01 2640.76,1310.01 
  "/>
<polyline clip-path="url(#clip552)" style="stroke:#000000; stroke-linecap:round; stroke-linejoin:round; stroke-width:2; stroke-opacity:0.1; fill:none" points="
  159.154,979.154 2640.76,979.154 
  "/>
<polyline clip-path="url(#clip552)" style="stroke:#000000; stroke-linecap:round; stroke-linejoin:round; stroke-width:2; stroke-opacity:0.1; fill:none" points="
  159.154,648.299 2640.76,648.299 
  "/>
<polyline clip-path="url(#clip552)" style="stroke:#000000; stroke-linecap:round; stroke-linejoin:round; stroke-width:2; stroke-opacity:0.1; fill:none" points="
  159.154,317.443 2640.76,317.443 
  "/>
<polyline clip-path="url(#clip550)" style="stroke:#000000; stroke-linecap:round; stroke-linejoin:round; stroke-width:4; stroke-opacity:1; fill:none" points="
  159.154,1800.78 159.154,47.2441 
  "/>
<polyline clip-path="url(#clip550)" style="stroke:#000000; stroke-linecap:round; stroke-linejoin:round; stroke-width:4; stroke-opacity:1; fill:none" points="
  159.154,1640.87 178.052,1640.87 
  "/>
<polyline clip-path="url(#clip550)" style="stroke:#000000; stroke-linecap:round; stroke-linejoin:round; stroke-width:4; stroke-opacity:1; fill:none" points="
  159.154,1310.01 178.052,1310.01 
  "/>
<polyline clip-path="url(#clip550)" style="stroke:#000000; stroke-linecap:round; stroke-linejoin:round; stroke-width:4; stroke-opacity:1; fill:none" points="
  159.154,979.154 178.052,979.154 
  "/>
<polyline clip-path="url(#clip550)" style="stroke:#000000; stroke-linecap:round; stroke-linejoin:round; stroke-width:4; stroke-opacity:1; fill:none" points="
  159.154,648.299 178.052,648.299 
  "/>
<polyline clip-path="url(#clip550)" style="stroke:#000000; stroke-linecap:round; stroke-linejoin:round; stroke-width:4; stroke-opacity:1; fill:none" points="
  159.154,317.443 178.052,317.443 
  "/>
<path clip-path="url(#clip550)" d="M61.4965 1626.66 Q57.8854 1626.66 56.0567 1630.23 Q54.2512 1633.77 54.2512 1640.9 Q54.2512 1648.01 56.0567 1651.57 Q57.8854 1655.11 61.4965 1655.11 Q65.1307 1655.11 66.9363 1651.57 Q68.765 1648.01 68.765 1640.9 Q68.765 1633.77 66.9363 1630.23 Q65.1307 1626.66 61.4965 1626.66 M61.4965 1622.96 Q67.3067 1622.96 70.3622 1627.57 Q73.4409 1632.15 73.4409 1640.9 Q73.4409 1649.63 70.3622 1654.23 Q67.3067 1658.82 61.4965 1658.82 Q55.6864 1658.82 52.6077 1654.23 Q49.5521 1649.63 49.5521 1640.9 Q49.5521 1632.15 52.6077 1627.57 Q55.6864 1622.96 61.4965 1622.96 Z" fill="#000000" fill-rule="evenodd" fill-opacity="1" /><path clip-path="url(#clip550)" d="M81.6584 1652.27 L86.5427 1652.27 L86.5427 1658.15 L81.6584 1658.15 L81.6584 1652.27 Z" fill="#000000" fill-rule="evenodd" fill-opacity="1" /><path clip-path="url(#clip550)" d="M107.306 1639 Q104.158 1639 102.306 1641.16 Q100.478 1643.31 100.478 1647.06 Q100.478 1650.78 102.306 1652.96 Q104.158 1655.11 107.306 1655.11 Q110.455 1655.11 112.283 1652.96 Q114.135 1650.78 114.135 1647.06 Q114.135 1643.31 112.283 1641.16 Q110.455 1639 107.306 1639 M116.589 1624.35 L116.589 1628.61 Q114.83 1627.78 113.024 1627.34 Q111.242 1626.9 109.482 1626.9 Q104.853 1626.9 102.399 1630.02 Q99.9685 1633.15 99.6213 1639.47 Q100.987 1637.45 103.047 1636.39 Q105.107 1635.3 107.584 1635.3 Q112.793 1635.3 115.802 1638.47 Q118.834 1641.62 118.834 1647.06 Q118.834 1652.38 115.686 1655.6 Q112.538 1658.82 107.306 1658.82 Q101.311 1658.82 98.1398 1654.23 Q94.9685 1649.63 94.9685 1640.9 Q94.9685 1632.71 98.8574 1627.84 Q102.746 1622.96 109.297 1622.96 Q111.056 1622.96 112.839 1623.31 Q114.644 1623.66 116.589 1624.35 Z" fill="#000000" fill-rule="evenodd" fill-opacity="1" /><path clip-path="url(#clip550)" d="M61.8437 1295.81 Q58.2326 1295.81 56.4039 1299.37 Q54.5984 1302.92 54.5984 1310.04 Q54.5984 1317.15 56.4039 1320.72 Q58.2326 1324.26 61.8437 1324.26 Q65.478 1324.26 67.2835 1320.72 Q69.1122 1317.15 69.1122 1310.04 Q69.1122 1302.92 67.2835 1299.37 Q65.478 1295.81 61.8437 1295.81 M61.8437 1292.11 Q67.6539 1292.11 70.7094 1296.71 Q73.7881 1301.29 73.7881 1310.04 Q73.7881 1318.77 70.7094 1323.38 Q67.6539 1327.96 61.8437 1327.96 Q56.0336 1327.96 52.9549 1323.38 Q49.8993 1318.77 49.8993 1310.04 Q49.8993 1301.29 52.9549 1296.71 Q56.0336 1292.11 61.8437 1292.11 Z" fill="#000000" fill-rule="evenodd" fill-opacity="1" /><path clip-path="url(#clip550)" d="M82.0057 1321.41 L86.8899 1321.41 L86.8899 1327.29 L82.0057 1327.29 L82.0057 1321.41 Z" fill="#000000" fill-rule="evenodd" fill-opacity="1" /><path clip-path="url(#clip550)" d="M97.2139 1326.57 L97.2139 1322.31 Q98.9732 1323.15 100.779 1323.59 Q102.584 1324.03 104.32 1324.03 Q108.95 1324.03 111.38 1320.92 Q113.834 1317.8 114.181 1311.46 Q112.839 1313.45 110.779 1314.51 Q108.718 1315.58 106.218 1315.58 Q101.033 1315.58 98.0009 1312.45 Q94.9917 1309.3 94.9917 1303.86 Q94.9917 1298.54 98.1398 1295.32 Q101.288 1292.11 106.519 1292.11 Q112.515 1292.11 115.663 1296.71 Q118.834 1301.29 118.834 1310.04 Q118.834 1318.22 114.945 1323.1 Q111.08 1327.96 104.529 1327.96 Q102.769 1327.96 100.964 1327.61 Q99.1583 1327.27 97.2139 1326.57 M106.519 1311.92 Q109.668 1311.92 111.496 1309.77 Q113.348 1307.61 113.348 1303.86 Q113.348 1300.14 111.496 1297.98 Q109.668 1295.81 106.519 1295.81 Q103.371 1295.81 101.519 1297.98 Q99.6907 1300.14 99.6907 1303.86 Q99.6907 1307.61 101.519 1309.77 Q103.371 1311.92 106.519 1311.92 Z" fill="#000000" fill-rule="evenodd" fill-opacity="1" /><path clip-path="url(#clip550)" d="M54.066 992.499 L61.7048 992.499 L61.7048 966.134 L53.3947 967.8 L53.3947 963.541 L61.6585 961.874 L66.3344 961.874 L66.3344 992.499 L73.9733 992.499 L73.9733 996.434 L54.066 996.434 L54.066 992.499 Z" fill="#000000" fill-rule="evenodd" fill-opacity="1" /><path clip-path="url(#clip550)" d="M83.4177 990.555 L88.3019 990.555 L88.3019 996.434 L83.4177 996.434 L83.4177 990.555 Z" fill="#000000" fill-rule="evenodd" fill-opacity="1" /><path clip-path="url(#clip550)" d="M102.515 992.499 L118.834 992.499 L118.834 996.434 L96.8898 996.434 L96.8898 992.499 Q99.5519 989.745 104.135 985.115 Q108.742 980.462 109.922 979.12 Q112.168 976.596 113.047 974.86 Q113.95 973.101 113.95 971.411 Q113.95 968.657 112.005 966.921 Q110.084 965.184 106.982 965.184 Q104.783 965.184 102.33 965.948 Q99.8991 966.712 97.1213 968.263 L97.1213 963.541 Q99.9454 962.407 102.399 961.828 Q104.853 961.249 106.89 961.249 Q112.26 961.249 115.455 963.934 Q118.649 966.62 118.649 971.11 Q118.649 973.24 117.839 975.161 Q117.052 977.059 114.945 979.652 Q114.367 980.323 111.265 983.541 Q108.163 986.735 102.515 992.499 Z" fill="#000000" fill-rule="evenodd" fill-opacity="1" /><path clip-path="url(#clip550)" d="M53.4641 661.643 L61.103 661.643 L61.103 635.278 L52.7928 636.945 L52.7928 632.685 L61.0567 631.019 L65.7326 631.019 L65.7326 661.643 L73.3714 661.643 L73.3714 665.579 L53.4641 665.579 L53.4641 661.643 Z" fill="#000000" fill-rule="evenodd" fill-opacity="1" /><path clip-path="url(#clip550)" d="M82.8158 659.699 L87.7001 659.699 L87.7001 665.579 L82.8158 665.579 L82.8158 659.699 Z" fill="#000000" fill-rule="evenodd" fill-opacity="1" /><path clip-path="url(#clip550)" d="M97.9315 631.019 L116.288 631.019 L116.288 634.954 L102.214 634.954 L102.214 643.426 Q103.232 643.079 104.251 642.917 Q105.269 642.732 106.288 642.732 Q112.075 642.732 115.455 645.903 Q118.834 649.074 118.834 654.491 Q118.834 660.069 115.362 663.171 Q111.89 666.25 105.57 666.25 Q103.394 666.25 101.126 665.88 Q98.8806 665.509 96.4732 664.768 L96.4732 660.069 Q98.5565 661.204 100.779 661.759 Q103.001 662.315 105.478 662.315 Q109.482 662.315 111.82 660.208 Q114.158 658.102 114.158 654.491 Q114.158 650.88 111.82 648.773 Q109.482 646.667 105.478 646.667 Q103.603 646.667 101.728 647.083 Q99.8759 647.5 97.9315 648.38 L97.9315 631.019 Z" fill="#000000" fill-rule="evenodd" fill-opacity="1" /><path clip-path="url(#clip550)" d="M52.5614 330.788 L60.2002 330.788 L60.2002 304.422 L51.8901 306.089 L51.8901 301.83 L60.1539 300.163 L64.8298 300.163 L64.8298 330.788 L72.4687 330.788 L72.4687 334.723 L52.5614 334.723 L52.5614 330.788 Z" fill="#000000" fill-rule="evenodd" fill-opacity="1" /><path clip-path="url(#clip550)" d="M81.9131 328.843 L86.7973 328.843 L86.7973 334.723 L81.9131 334.723 L81.9131 328.843 Z" fill="#000000" fill-rule="evenodd" fill-opacity="1" /><path clip-path="url(#clip550)" d="M106.982 318.311 Q103.649 318.311 101.728 320.093 Q99.8296 321.876 99.8296 325.001 Q99.8296 328.126 101.728 329.908 Q103.649 331.691 106.982 331.691 Q110.316 331.691 112.237 329.908 Q114.158 328.103 114.158 325.001 Q114.158 321.876 112.237 320.093 Q110.339 318.311 106.982 318.311 M102.306 316.32 Q99.2972 315.579 97.6074 313.519 Q95.9408 311.459 95.9408 308.496 Q95.9408 304.353 98.8806 301.945 Q101.844 299.538 106.982 299.538 Q112.144 299.538 115.084 301.945 Q118.024 304.353 118.024 308.496 Q118.024 311.459 116.334 313.519 Q114.668 315.579 111.681 316.32 Q115.061 317.107 116.936 319.399 Q118.834 321.691 118.834 325.001 Q118.834 330.024 115.755 332.709 Q112.7 335.394 106.982 335.394 Q101.265 335.394 98.1861 332.709 Q95.1306 330.024 95.1306 325.001 Q95.1306 321.691 97.0287 319.399 Q98.9269 317.107 102.306 316.32 M100.594 308.936 Q100.594 311.621 102.26 313.126 Q103.95 314.63 106.982 314.63 Q109.992 314.63 111.681 313.126 Q113.394 311.621 113.394 308.936 Q113.394 306.251 111.681 304.746 Q109.992 303.242 106.982 303.242 Q103.95 303.242 102.26 304.746 Q100.594 306.251 100.594 308.936 Z" fill="#000000" fill-rule="evenodd" fill-opacity="1" /><polyline clip-path="url(#clip552)" style="stroke:#009af9; stroke-linecap:round; stroke-linejoin:round; stroke-width:4; stroke-opacity:1; fill:none" points="
  229.388,1567.34 244.63,1564.14 385.565,1533.12 470.261,1513.2 541.87,1495.53 619.658,1475.42 691.372,1455.97 768.256,1434.07 857.334,1407.24 936.497,1381.97 
  1005.91,1358.61 1081.6,1331.74 1157.73,1303.13 1241.91,1269.47 1322,1235.26 1405.28,1197.21 1475.38,1163.01 1560.96,1118.28 1639.37,1074.1 1711.78,1030.26 
  1785.12,982.551 1826.23,954.217 1867.33,924.64 1904.57,896.695 1941.82,867.593 1984.46,832.758 2027.1,796.19 2066.59,760.671 2106.07,723.436 2145,684.923 
  2183.92,644.485 2221.72,603.24 2259.51,559.891 2298.25,513.095 2337,463.717 2358.22,435.495 2379.45,406.392 2400.67,376.368 2421.9,345.378 2452.73,298.541 
  2483.56,249.407 2514.39,197.803 2545.22,143.538 2551.55,132.058 2557.87,120.455 2564.2,108.727 2570.52,96.8724 
  "/>
<polyline clip-path="url(#clip552)" style="stroke:#e26f46; stroke-linecap:round; stroke-linejoin:round; stroke-width:4; stroke-opacity:1; fill:none" points="
  229.388,1751.15 244.63,1743.97 385.565,1677.58 470.261,1637.68 541.87,1603.95 619.658,1567.3 691.372,1533.52 768.256,1497.3 857.334,1455.34 936.497,1418.05 
  1005.91,1385.35 1081.6,1349.69 1157.73,1313.83 1241.91,1274.18 1322,1236.45 1405.28,1197.22 1475.38,1164.19 1560.96,1123.88 1639.37,1086.94 1711.78,1052.83 
  1785.12,1018.28 1867.33,979.556 1941.82,944.466 2027.1,904.29 2106.07,867.09 2183.92,830.416 2259.51,794.808 2337,758.306 2421.9,718.313 2545.22,660.217 
  2570.52,648.299 
  "/>
<path clip-path="url(#clip550)" d="
M2229.87 261.215 L2558.04 261.215 L2558.04 105.695 L2229.87 105.695  Z
  " fill="#ffffff" fill-rule="evenodd" fill-opacity="1"/>
<polyline clip-path="url(#clip550)" style="stroke:#000000; stroke-linecap:round; stroke-linejoin:round; stroke-width:4; stroke-opacity:1; fill:none" points="
  2229.87,261.215 2558.04,261.215 2558.04,105.695 2229.87,105.695 2229.87,261.215 
  "/>
<polyline clip-path="url(#clip550)" style="stroke:#009af9; stroke-linecap:round; stroke-linejoin:round; stroke-width:4; stroke-opacity:1; fill:none" points="
  2257.45,157.535 2422.89,157.535 
  "/>
<path clip-path="url(#clip550)" d="M2464.3 177.223 Q2462.5 181.852 2460.78 183.264 Q2459.07 184.676 2456.2 184.676 L2452.8 184.676 L2452.8 181.112 L2455.3 181.112 Q2457.06 181.112 2458.03 180.278 Q2459 179.445 2460.18 176.343 L2460.94 174.399 L2450.46 148.889 L2454.97 148.889 L2463.07 169.167 L2471.18 148.889 L2475.69 148.889 L2464.3 177.223 Z" fill="#000000" fill-rule="evenodd" fill-opacity="1" /><path clip-path="url(#clip550)" d="M2482.98 170.88 L2490.62 170.88 L2490.62 144.515 L2482.31 146.181 L2482.31 141.922 L2490.57 140.255 L2495.25 140.255 L2495.25 170.88 L2502.89 170.88 L2502.89 174.815 L2482.98 174.815 L2482.98 170.88 Z" fill="#000000" fill-rule="evenodd" fill-opacity="1" /><polyline clip-path="url(#clip550)" style="stroke:#e26f46; stroke-linecap:round; stroke-linejoin:round; stroke-width:4; stroke-opacity:1; fill:none" points="
  2257.45,209.375 2422.89,209.375 
  "/>
<path clip-path="url(#clip550)" d="M2464.3 229.063 Q2462.5 233.692 2460.78 235.104 Q2459.07 236.516 2456.2 236.516 L2452.8 236.516 L2452.8 232.952 L2455.3 232.952 Q2457.06 232.952 2458.03 232.118 Q2459 231.285 2460.18 228.183 L2460.94 226.239 L2450.46 200.729 L2454.97 200.729 L2463.07 221.007 L2471.18 200.729 L2475.69 200.729 L2464.3 229.063 Z" fill="#000000" fill-rule="evenodd" fill-opacity="1" /><path clip-path="url(#clip550)" d="M2486.2 222.72 L2502.52 222.72 L2502.52 226.655 L2480.57 226.655 L2480.57 222.72 Q2483.24 219.965 2487.82 215.336 Q2492.43 210.683 2493.61 209.341 Q2495.85 206.817 2496.73 205.081 Q2497.63 203.322 2497.63 201.632 Q2497.63 198.878 2495.69 197.142 Q2493.77 195.405 2490.67 195.405 Q2488.47 195.405 2486.01 196.169 Q2483.58 196.933 2480.81 198.484 L2480.81 193.762 Q2483.63 192.628 2486.08 192.049 Q2488.54 191.47 2490.57 191.47 Q2495.94 191.47 2499.14 194.155 Q2502.33 196.841 2502.33 201.331 Q2502.33 203.461 2501.52 205.382 Q2500.74 207.28 2498.63 209.873 Q2498.05 210.544 2494.95 213.762 Q2491.85 216.956 2486.2 222.72 Z" fill="#000000" fill-rule="evenodd" fill-opacity="1" /></svg>
