<?xml version="1.0" encoding="utf-8"?>
<svg xmlns="http://www.w3.org/2000/svg" xmlns:xlink="http://www.w3.org/1999/xlink" width="672" height="480" viewBox="0 0 2688 1920">
<defs>
  <clipPath id="clip090">
    <rect x="0" y="0" width="2688" height="1920"/>
  </clipPath>
</defs>
<path clip-path="url(#clip090)" d="
M0 1920 L2688 1920 L2688 0 L0 0  Z
  " fill="#ffffff" fill-rule="evenodd" fill-opacity="1"/>
<defs>
  <clipPath id="clip091">
    <rect x="537" y="0" width="1883" height="1883"/>
  </clipPath>
</defs>
<path clip-path="url(#clip090)" d="
M115.057 1800.78 L2640.76 1800.78 L2640.76 47.2441 L115.057 47.2441  Z
  " fill="#ffffff" fill-rule="evenodd" fill-opacity="1"/>
<defs>
  <clipPath id="clip092">
    <rect x="115" y="47" width="2527" height="1755"/>
  </clipPath>
</defs>
<polyline clip-path="url(#clip092)" style="stroke:#000000; stroke-linecap:round; stroke-linejoin:round; stroke-width:2; stroke-opacity:0.1; fill:none" points="
  424.813,1800.78 424.813,47.2441 
  "/>
<polyline clip-path="url(#clip092)" style="stroke:#000000; stroke-linecap:round; stroke-linejoin:round; stroke-width:2; stroke-opacity:0.1; fill:none" points="
  901.36,1800.78 901.36,47.2441 
  "/>
<polyline clip-path="url(#clip092)" style="stroke:#000000; stroke-linecap:round; stroke-linejoin:round; stroke-width:2; stroke-opacity:0.1; fill:none" points="
  1377.91,1800.78 1377.91,47.2441 
  "/>
<polyline clip-path="url(#clip092)" style="stroke:#000000; stroke-linecap:round; stroke-linejoin:round; stroke-width:2; stroke-opacity:0.1; fill:none" points="
  1854.45,1800.78 1854.45,47.2441 
  "/>
<polyline clip-path="url(#clip092)" style="stroke:#000000; stroke-linecap:round; stroke-linejoin:round; stroke-width:2; stroke-opacity:0.1; fill:none" points="
  2331,1800.78 2331,47.2441 
  "/>
<polyline clip-path="url(#clip090)" style="stroke:#000000; stroke-linecap:round; stroke-linejoin:round; stroke-width:4; stroke-opacity:1; fill:none" points="
  115.057,1800.78 2640.76,1800.78 
  "/>
<polyline clip-path="url(#clip090)" style="stroke:#000000; stroke-linecap:round; stroke-linejoin:round; stroke-width:4; stroke-opacity:1; fill:none" points="
  424.813,1800.78 424.813,1781.88 
  "/>
<polyline clip-path="url(#clip090)" style="stroke:#000000; stroke-linecap:round; stroke-linejoin:round; stroke-width:4; stroke-opacity:1; fill:none" points="
  901.36,1800.78 901.36,1781.88 
  "/>
<polyline clip-path="url(#clip090)" style="stroke:#000000; stroke-linecap:round; stroke-linejoin:round; stroke-width:4; stroke-opacity:1; fill:none" points="
  1377.91,1800.78 1377.91,1781.88 
  "/>
<polyline clip-path="url(#clip090)" style="stroke:#000000; stroke-linecap:round; stroke-linejoin:round; stroke-width:4; stroke-opacity:1; fill:none" points="
  1854.45,1800.78 1854.45,1781.88 
  "/>
<polyline clip-path="url(#clip090)" style="stroke:#000000; stroke-linecap:round; stroke-linejoin:round; stroke-width:4; stroke-opacity:1; fill:none" points="
  2331,1800.78 2331,1781.88 
  "/>
<path clip-path="url(#clip090)" d="M371.098 1848.65 L400.773 1848.65 L400.773 1852.59 L371.098 1852.59 L371.098 1848.65 Z" fill="#000000" fill-rule="evenodd" fill-opacity="1" /><path clip-path="url(#clip090)" d="M420.866 1834 Q417.255 1834 415.426 1837.57 Q413.621 1841.11 413.621 1848.24 Q413.621 1855.34 415.426 1858.91 Q417.255 1862.45 420.866 1862.45 Q424.5 1862.45 426.306 1858.91 Q428.134 1855.34 428.134 1848.24 Q428.134 1841.11 426.306 1837.57 Q424.5 1834 420.866 1834 M420.866 1830.3 Q426.676 1830.3 429.732 1834.9 Q432.81 1839.49 432.81 1848.24 Q432.81 1856.96 429.732 1861.57 Q426.676 1866.15 420.866 1866.15 Q415.056 1866.15 411.977 1861.57 Q408.922 1856.96 408.922 1848.24 Q408.922 1839.49 411.977 1834.9 Q415.056 1830.3 420.866 1830.3 Z" fill="#000000" fill-rule="evenodd" fill-opacity="1" /><path clip-path="url(#clip090)" d="M441.028 1859.6 L445.912 1859.6 L445.912 1865.48 L441.028 1865.48 L441.028 1859.6 Z" fill="#000000" fill-rule="evenodd" fill-opacity="1" /><path clip-path="url(#clip090)" d="M468.944 1835 L457.139 1853.45 L468.944 1853.45 L468.944 1835 M467.718 1830.92 L473.597 1830.92 L473.597 1853.45 L478.528 1853.45 L478.528 1857.34 L473.597 1857.34 L473.597 1865.48 L468.944 1865.48 L468.944 1857.34 L453.343 1857.34 L453.343 1852.82 L467.718 1830.92 Z" fill="#000000" fill-rule="evenodd" fill-opacity="1" /><path clip-path="url(#clip090)" d="M848.686 1848.65 L878.362 1848.65 L878.362 1852.59 L848.686 1852.59 L848.686 1848.65 Z" fill="#000000" fill-rule="evenodd" fill-opacity="1" /><path clip-path="url(#clip090)" d="M898.455 1834 Q894.843 1834 893.015 1837.57 Q891.209 1841.11 891.209 1848.24 Q891.209 1855.34 893.015 1858.91 Q894.843 1862.45 898.455 1862.45 Q902.089 1862.45 903.894 1858.91 Q905.723 1855.34 905.723 1848.24 Q905.723 1841.11 903.894 1837.57 Q902.089 1834 898.455 1834 M898.455 1830.3 Q904.265 1830.3 907.32 1834.9 Q910.399 1839.49 910.399 1848.24 Q910.399 1856.96 907.32 1861.57 Q904.265 1866.15 898.455 1866.15 Q892.644 1866.15 889.566 1861.57 Q886.51 1856.96 886.51 1848.24 Q886.51 1839.49 889.566 1834.9 Q892.644 1830.3 898.455 1830.3 Z" fill="#000000" fill-rule="evenodd" fill-opacity="1" /><path clip-path="url(#clip090)" d="M918.616 1859.6 L923.501 1859.6 L923.501 1865.48 L918.616 1865.48 L918.616 1859.6 Z" fill="#000000" fill-rule="evenodd" fill-opacity="1" /><path clip-path="url(#clip090)" d="M937.714 1861.55 L954.033 1861.55 L954.033 1865.48 L932.089 1865.48 L932.089 1861.55 Q934.751 1858.79 939.334 1854.16 Q943.94 1849.51 945.121 1848.17 Q947.366 1845.65 948.246 1843.91 Q949.149 1842.15 949.149 1840.46 Q949.149 1837.71 947.204 1835.97 Q945.283 1834.23 942.181 1834.23 Q939.982 1834.23 937.528 1835 Q935.098 1835.76 932.32 1837.31 L932.32 1832.59 Q935.144 1831.46 937.598 1830.88 Q940.052 1830.3 942.089 1830.3 Q947.459 1830.3 950.653 1832.98 Q953.848 1835.67 953.848 1840.16 Q953.848 1842.29 953.038 1844.21 Q952.251 1846.11 950.144 1848.7 Q949.565 1849.37 946.464 1852.59 Q943.362 1855.78 937.714 1861.55 Z" fill="#000000" fill-rule="evenodd" fill-opacity="1" /><path clip-path="url(#clip090)" d="M1355.29 1834 Q1351.68 1834 1349.85 1837.57 Q1348.05 1841.11 1348.05 1848.24 Q1348.05 1855.34 1349.85 1858.91 Q1351.68 1862.45 1355.29 1862.45 Q1358.93 1862.45 1360.73 1858.91 Q1362.56 1855.34 1362.56 1848.24 Q1362.56 1841.11 1360.73 1837.57 Q1358.93 1834 1355.29 1834 M1355.29 1830.3 Q1361.1 1830.3 1364.16 1834.9 Q1367.24 1839.49 1367.24 1848.24 Q1367.24 1856.96 1364.16 1861.57 Q1361.1 1866.15 1355.29 1866.15 Q1349.48 1866.15 1346.4 1861.57 Q1343.35 1856.96 1343.35 1848.24 Q1343.35 1839.49 1346.4 1834.9 Q1349.48 1830.3 1355.29 1830.3 Z" fill="#000000" fill-rule="evenodd" fill-opacity="1" /><path clip-path="url(#clip090)" d="M1375.45 1859.6 L1380.34 1859.6 L1380.34 1865.48 L1375.45 1865.48 L1375.45 1859.6 Z" fill="#000000" fill-rule="evenodd" fill-opacity="1" /><path clip-path="url(#clip090)" d="M1400.52 1834 Q1396.91 1834 1395.08 1837.57 Q1393.28 1841.11 1393.28 1848.24 Q1393.28 1855.34 1395.08 1858.91 Q1396.91 1862.45 1400.52 1862.45 Q1404.16 1862.45 1405.96 1858.91 Q1407.79 1855.34 1407.79 1848.24 Q1407.79 1841.11 1405.96 1837.57 Q1404.16 1834 1400.52 1834 M1400.52 1830.3 Q1406.33 1830.3 1409.39 1834.9 Q1412.47 1839.49 1412.47 1848.24 Q1412.47 1856.96 1409.39 1861.57 Q1406.33 1866.15 1400.52 1866.15 Q1394.71 1866.15 1391.63 1861.57 Q1388.58 1856.96 1388.58 1848.24 Q1388.58 1839.49 1391.63 1834.9 Q1394.71 1830.3 1400.52 1830.3 Z" fill="#000000" fill-rule="evenodd" fill-opacity="1" /><path clip-path="url(#clip090)" d="M1832.64 1834 Q1829.03 1834 1827.2 1837.57 Q1825.39 1841.11 1825.39 1848.24 Q1825.39 1855.34 1827.2 1858.91 Q1829.03 1862.45 1832.64 1862.45 Q1836.27 1862.45 1838.08 1858.91 Q1839.9 1855.34 1839.9 1848.24 Q1839.9 1841.11 1838.08 1837.57 Q1836.27 1834 1832.64 1834 M1832.64 1830.3 Q1838.45 1830.3 1841.5 1834.9 Q1844.58 1839.49 1844.58 1848.24 Q1844.58 1856.96 1841.5 1861.57 Q1838.45 1866.15 1832.64 1866.15 Q1826.83 1866.15 1823.75 1861.57 Q1820.69 1856.96 1820.69 1848.24 Q1820.69 1839.49 1823.75 1834.9 Q1826.83 1830.3 1832.64 1830.3 Z" fill="#000000" fill-rule="evenodd" fill-opacity="1" /><path clip-path="url(#clip090)" d="M1852.8 1859.6 L1857.68 1859.6 L1857.68 1865.48 L1852.8 1865.48 L1852.8 1859.6 Z" fill="#000000" fill-rule="evenodd" fill-opacity="1" /><path clip-path="url(#clip090)" d="M1871.9 1861.55 L1888.21 1861.55 L1888.21 1865.48 L1866.27 1865.48 L1866.27 1861.55 Q1868.93 1858.79 1873.52 1854.16 Q1878.12 1849.51 1879.3 1848.17 Q1881.55 1845.65 1882.43 1843.91 Q1883.33 1842.15 1883.33 1840.46 Q1883.33 1837.71 1881.39 1835.97 Q1879.46 1834.23 1876.36 1834.23 Q1874.16 1834.23 1871.71 1835 Q1869.28 1835.76 1866.5 1837.31 L1866.5 1832.59 Q1869.33 1831.46 1871.78 1830.88 Q1874.23 1830.3 1876.27 1830.3 Q1881.64 1830.3 1884.84 1832.98 Q1888.03 1835.67 1888.03 1840.16 Q1888.03 1842.29 1887.22 1844.21 Q1886.43 1846.11 1884.33 1848.7 Q1883.75 1849.37 1880.65 1852.59 Q1877.54 1855.78 1871.9 1861.55 Z" fill="#000000" fill-rule="evenodd" fill-opacity="1" /><path clip-path="url(#clip090)" d="M2308.14 1834 Q2304.53 1834 2302.7 1837.57 Q2300.9 1841.11 2300.9 1848.24 Q2300.9 1855.34 2302.7 1858.91 Q2304.53 1862.45 2308.14 1862.45 Q2311.78 1862.45 2313.58 1858.91 Q2315.41 1855.34 2315.41 1848.24 Q2315.41 1841.11 2313.58 1837.57 Q2311.78 1834 2308.14 1834 M2308.14 1830.3 Q2313.95 1830.3 2317.01 1834.9 Q2320.09 1839.49 2320.09 1848.24 Q2320.09 1856.96 2317.01 1861.57 Q2313.95 1866.15 2308.14 1866.15 Q2302.33 1866.15 2299.25 1861.57 Q2296.2 1856.96 2296.2 1848.24 Q2296.2 1839.49 2299.25 1834.9 Q2302.33 1830.3 2308.14 1830.3 Z" fill="#000000" fill-rule="evenodd" fill-opacity="1" /><path clip-path="url(#clip090)" d="M2328.3 1859.6 L2333.19 1859.6 L2333.19 1865.48 L2328.3 1865.48 L2328.3 1859.6 Z" fill="#000000" fill-rule="evenodd" fill-opacity="1" /><path clip-path="url(#clip090)" d="M2356.22 1835 L2344.41 1853.45 L2356.22 1853.45 L2356.22 1835 M2354.99 1830.92 L2360.87 1830.92 L2360.87 1853.45 L2365.8 1853.45 L2365.8 1857.34 L2360.87 1857.34 L2360.87 1865.48 L2356.22 1865.48 L2356.22 1857.34 L2340.62 1857.34 L2340.62 1852.82 L2354.99 1830.92 Z" fill="#000000" fill-rule="evenodd" fill-opacity="1" /><polyline clip-path="url(#clip092)" style="stroke:#000000; stroke-linecap:round; stroke-linejoin:round; stroke-width:2; stroke-opacity:0.1; fill:none" points="
  115.057,1478.28 2640.76,1478.28 
  "/>
<polyline clip-path="url(#clip092)" style="stroke:#000000; stroke-linecap:round; stroke-linejoin:round; stroke-width:2; stroke-opacity:0.1; fill:none" points="
  115.057,1114.45 2640.76,1114.45 
  "/>
<polyline clip-path="url(#clip092)" style="stroke:#000000; stroke-linecap:round; stroke-linejoin:round; stroke-width:2; stroke-opacity:0.1; fill:none" points="
  115.057,750.625 2640.76,750.625 
  "/>
<polyline clip-path="url(#clip092)" style="stroke:#000000; stroke-linecap:round; stroke-linejoin:round; stroke-width:2; stroke-opacity:0.1; fill:none" points="
  115.057,386.798 2640.76,386.798 
  "/>
<polyline clip-path="url(#clip090)" style="stroke:#000000; stroke-linecap:round; stroke-linejoin:round; stroke-width:4; stroke-opacity:1; fill:none" points="
  115.057,1800.78 115.057,47.2441 
  "/>
<polyline clip-path="url(#clip090)" style="stroke:#000000; stroke-linecap:round; stroke-linejoin:round; stroke-width:4; stroke-opacity:1; fill:none" points="
  115.057,1478.28 133.955,1478.28 
  "/>
<polyline clip-path="url(#clip090)" style="stroke:#000000; stroke-linecap:round; stroke-linejoin:round; stroke-width:4; stroke-opacity:1; fill:none" points="
  115.057,1114.45 133.955,1114.45 
  "/>
<polyline clip-path="url(#clip090)" style="stroke:#000000; stroke-linecap:round; stroke-linejoin:round; stroke-width:4; stroke-opacity:1; fill:none" points="
  115.057,750.625 133.955,750.625 
  "/>
<polyline clip-path="url(#clip090)" style="stroke:#000000; stroke-linecap:round; stroke-linejoin:round; stroke-width:4; stroke-opacity:1; fill:none" points="
  115.057,386.798 133.955,386.798 
  "/>
<path clip-path="url(#clip090)" d="M62.7928 1464.08 Q59.1817 1464.08 57.353 1467.64 Q55.5475 1471.19 55.5475 1478.31 Q55.5475 1485.42 57.353 1488.99 Q59.1817 1492.53 62.7928 1492.53 Q66.427 1492.53 68.2326 1488.99 Q70.0613 1485.42 70.0613 1478.31 Q70.0613 1471.19 68.2326 1467.64 Q66.427 1464.08 62.7928 1464.08 M62.7928 1460.38 Q68.6029 1460.38 71.6585 1464.98 Q74.7372 1469.57 74.7372 1478.31 Q74.7372 1487.04 71.6585 1491.65 Q68.6029 1496.23 62.7928 1496.23 Q56.9826 1496.23 53.904 1491.65 Q50.8484 1487.04 50.8484 1478.31 Q50.8484 1469.57 53.904 1464.98 Q56.9826 1460.38 62.7928 1460.38 Z" fill="#000000" fill-rule="evenodd" fill-opacity="1" /><path clip-path="url(#clip090)" d="M58.4178 1127.8 L74.7372 1127.8 L74.7372 1131.73 L52.7928 1131.73 L52.7928 1127.8 Q55.4549 1125.04 60.0382 1120.41 Q64.6446 1115.76 65.8252 1114.42 Q68.0705 1111.89 68.9502 1110.16 Q69.8529 1108.4 69.8529 1106.71 Q69.8529 1103.96 67.9085 1102.22 Q65.9872 1100.48 62.8854 1100.48 Q60.6863 1100.48 58.2326 1101.25 Q55.8021 1102.01 53.0243 1103.56 L53.0243 1098.84 Q55.8484 1097.71 58.3021 1097.13 Q60.7558 1096.55 62.7928 1096.55 Q68.1631 1096.55 71.3576 1099.23 Q74.552 1101.92 74.552 1106.41 Q74.552 1108.54 73.7418 1110.46 Q72.9548 1112.36 70.8483 1114.95 Q70.2696 1115.62 67.1678 1118.84 Q64.0659 1122.03 58.4178 1127.8 Z" fill="#000000" fill-rule="evenodd" fill-opacity="1" /><path clip-path="url(#clip090)" d="M65.1539 737.419 L53.3484 755.868 L65.1539 755.868 L65.1539 737.419 M63.927 733.345 L69.8066 733.345 L69.8066 755.868 L74.7372 755.868 L74.7372 759.757 L69.8066 759.757 L69.8066 767.905 L65.1539 767.905 L65.1539 759.757 L49.5521 759.757 L49.5521 755.243 L63.927 733.345 Z" fill="#000000" fill-rule="evenodd" fill-opacity="1" /><path clip-path="url(#clip090)" d="M63.2095 384.934 Q60.0613 384.934 58.2095 387.087 Q56.3808 389.24 56.3808 392.99 Q56.3808 396.716 58.2095 398.892 Q60.0613 401.045 63.2095 401.045 Q66.3576 401.045 68.1863 398.892 Q70.0381 396.716 70.0381 392.99 Q70.0381 389.24 68.1863 387.087 Q66.3576 384.934 63.2095 384.934 M72.4918 370.281 L72.4918 374.541 Q70.7326 373.707 68.927 373.268 Q67.1446 372.828 65.3854 372.828 Q60.7558 372.828 58.3021 375.953 Q55.8715 379.078 55.5243 385.397 Q56.89 383.383 58.9502 382.318 Q61.0104 381.23 63.4872 381.23 Q68.6955 381.23 71.7048 384.402 Q74.7372 387.55 74.7372 392.99 Q74.7372 398.314 71.589 401.531 Q68.4409 404.749 63.2095 404.749 Q57.2141 404.749 54.0428 400.166 Q50.8716 395.559 50.8716 386.832 Q50.8716 378.638 54.7604 373.777 Q58.6493 368.893 65.2002 368.893 Q66.9594 368.893 68.7418 369.24 Q70.5474 369.587 72.4918 370.281 Z" fill="#000000" fill-rule="evenodd" fill-opacity="1" /><polyline clip-path="url(#clip092)" style="stroke:#009af9; stroke-linecap:round; stroke-linejoin:round; stroke-width:4; stroke-opacity:1; fill:none" points="
  186.539,1472.6 202.052,1472.22 345.491,1467.65 431.692,1463.79 504.574,1459.72 583.744,1454.32 656.732,1448.28 734.983,1440.52 825.644,1429.61 906.213,1417.91 
  976.864,1405.89 1053.89,1390.69 1131.38,1372.91 1174.22,1361.92 1217.05,1350.02 1257.81,1337.82 1298.57,1324.7 1340.95,1310.04 1383.32,1294.29 1419,1280.13 
  1454.67,1265.11 1498.22,1245.56 1541.78,1224.6 1581.67,1204.09 1621.57,1182.28 1658.42,1160.93 1695.27,1138.36 1732.59,1114.2 1769.92,1088.69 1811.75,1058.43 
  1853.58,1026.31 1891.49,995.533 1929.4,963.105 1972.8,923.861 2016.2,882.261 2056.38,841.551 2096.57,798.647 2136.19,754.115 2175.81,707.279 2214.27,659.516 
  2252.74,609.415 2292.17,555.539 2331.6,499.023 2353.2,466.91 2374.8,433.959 2396.4,400.155 2418.01,365.482 2449.39,313.529 2480.76,259.654 2512.14,203.803 
  2543.52,145.924 2549.96,133.794 2556.4,121.575 2562.84,109.268 2569.27,96.8724 
  "/>
<polyline clip-path="url(#clip092)" style="stroke:#e26f46; stroke-linecap:round; stroke-linejoin:round; stroke-width:4; stroke-opacity:1; fill:none" points="
  186.539,1751.15 202.052,1745.23 345.491,1690.47 431.692,1657.57 504.574,1629.75 583.744,1599.52 656.732,1571.66 734.983,1541.79 825.644,1507.18 906.213,1476.43 
  976.864,1449.46 1053.89,1420.05 1131.38,1390.47 1217.05,1357.77 1298.57,1326.65 1383.32,1294.3 1454.67,1267.06 1541.78,1233.81 1621.57,1203.35 1695.27,1175.22 
  1769.92,1146.72 1853.58,1114.78 1929.4,1085.84 2016.2,1052.71 2096.57,1022.03 2175.81,991.782 2252.74,962.415 2331.6,932.31 2418.01,899.326 2543.52,851.412 
  2569.27,841.582 
  "/>
<path clip-path="url(#clip090)" d="
M2223.5 261.215 L2556.57 261.215 L2556.57 105.695 L2223.5 105.695  Z
  " fill="#ffffff" fill-rule="evenodd" fill-opacity="1"/>
<polyline clip-path="url(#clip090)" style="stroke:#000000; stroke-linecap:round; stroke-linejoin:round; stroke-width:4; stroke-opacity:1; fill:none" points="
  2223.5,261.215 2556.57,261.215 2556.57,105.695 2223.5,105.695 2223.5,261.215 
  "/>
<polyline clip-path="url(#clip090)" style="stroke:#009af9; stroke-linecap:round; stroke-linejoin:round; stroke-width:4; stroke-opacity:1; fill:none" points="
  2251.57,157.535 2419.95,157.535 
  "/>
<path clip-path="url(#clip090)" d="M2461.85 177.223 Q2460.05 181.852 2458.33 183.264 Q2456.62 184.676 2453.75 184.676 L2450.35 184.676 L2450.35 181.112 L2452.85 181.112 Q2454.61 181.112 2455.58 180.278 Q2456.55 179.445 2457.73 176.343 L2458.5 174.399 L2448.01 148.889 L2452.52 148.889 L2460.62 169.167 L2468.73 148.889 L2473.24 148.889 L2461.85 177.223 Z" fill="#000000" fill-rule="evenodd" fill-opacity="1" /><path clip-path="url(#clip090)" d="M2480.53 170.88 L2488.17 170.88 L2488.17 144.515 L2479.86 146.181 L2479.86 141.922 L2488.12 140.255 L2492.8 140.255 L2492.8 170.88 L2500.44 170.88 L2500.44 174.815 L2480.53 174.815 L2480.53 170.88 Z" fill="#000000" fill-rule="evenodd" fill-opacity="1" /><polyline clip-path="url(#clip090)" style="stroke:#e26f46; stroke-linecap:round; stroke-linejoin:round; stroke-width:4; stroke-opacity:1; fill:none" points="
  2251.57,209.375 2419.95,209.375 
  "/>
<path clip-path="url(#clip090)" d="M2461.85 229.063 Q2460.05 233.692 2458.33 235.104 Q2456.62 236.516 2453.75 236.516 L2450.35 236.516 L2450.35 232.952 L2452.85 232.952 Q2454.61 232.952 2455.58 232.118 Q2456.55 231.285 2457.73 228.183 L2458.5 226.239 L2448.01 200.729 L2452.52 200.729 L2460.62 221.007 L2468.73 200.729 L2473.24 200.729 L2461.85 229.063 Z" fill="#000000" fill-rule="evenodd" fill-opacity="1" /><path clip-path="url(#clip090)" d="M2483.75 222.72 L2500.07 222.72 L2500.07 226.655 L2478.12 226.655 L2478.12 222.72 Q2480.79 219.965 2485.37 215.336 Q2489.98 210.683 2491.16 209.341 Q2493.4 206.817 2494.28 205.081 Q2495.18 203.322 2495.18 201.632 Q2495.18 198.878 2493.24 197.142 Q2491.32 195.405 2488.22 195.405 Q2486.02 195.405 2483.56 196.169 Q2481.13 196.933 2478.36 198.484 L2478.36 193.762 Q2481.18 192.628 2483.63 192.049 Q2486.09 191.47 2488.12 191.47 Q2493.49 191.47 2496.69 194.155 Q2499.88 196.841 2499.88 201.331 Q2499.88 203.461 2499.07 205.382 Q2498.29 207.28 2496.18 209.873 Q2495.6 210.544 2492.5 213.762 Q2489.4 216.956 2483.75 222.72 Z" fill="#000000" fill-rule="evenodd" fill-opacity="1" /></svg>
