<?xml version="1.0" encoding="utf-8"?>
<svg xmlns="http://www.w3.org/2000/svg" xmlns:xlink="http://www.w3.org/1999/xlink" width="672" height="480" viewBox="0 0 2688 1920">
<defs>
  <clipPath id="clip850">
    <rect x="0" y="0" width="2688" height="1920"/>
  </clipPath>
</defs>
<path clip-path="url(#clip850)" d="
M0 1920 L2688 1920 L2688 0 L0 0  Z
  " fill="#ffffff" fill-rule="evenodd" fill-opacity="1"/>
<defs>
  <clipPath id="clip851">
    <rect x="537" y="0" width="1883" height="1883"/>
  </clipPath>
</defs>
<path clip-path="url(#clip850)" d="
M115.057 1800.78 L2640.76 1800.78 L2640.76 47.2441 L115.057 47.2441  Z
  " fill="#ffffff" fill-rule="evenodd" fill-opacity="1"/>
<defs>
  <clipPath id="clip852">
    <rect x="115" y="47" width="2527" height="1755"/>
  </clipPath>
</defs>
<polyline clip-path="url(#clip852)" style="stroke:#000000; stroke-linecap:butt; stroke-linejoin:round; stroke-width:2; stroke-opacity:0.1; fill:none" points="
  186.539,1800.78 186.539,47.2441 
  "/>
<polyline clip-path="url(#clip852)" style="stroke:#000000; stroke-linecap:butt; stroke-linejoin:round; stroke-width:2; stroke-opacity:0.1; fill:none" points="
  782.223,1800.78 782.223,47.2441 
  "/>
<polyline clip-path="url(#clip852)" style="stroke:#000000; stroke-linecap:butt; stroke-linejoin:round; stroke-width:2; stroke-opacity:0.1; fill:none" points="
  1377.91,1800.78 1377.91,47.2441 
  "/>
<polyline clip-path="url(#clip852)" style="stroke:#000000; stroke-linecap:butt; stroke-linejoin:round; stroke-width:2; stroke-opacity:0.1; fill:none" points="
  1973.59,1800.78 1973.59,47.2441 
  "/>
<polyline clip-path="url(#clip852)" style="stroke:#000000; stroke-linecap:butt; stroke-linejoin:round; stroke-width:2; stroke-opacity:0.1; fill:none" points="
  2569.27,1800.78 2569.27,47.2441 
  "/>
<polyline clip-path="url(#clip850)" style="stroke:#000000; stroke-linecap:butt; stroke-linejoin:round; stroke-width:4; stroke-opacity:1; fill:none" points="
  115.057,1800.78 2640.76,1800.78 
  "/>
<polyline clip-path="url(#clip850)" style="stroke:#000000; stroke-linecap:butt; stroke-linejoin:round; stroke-width:4; stroke-opacity:1; fill:none" points="
  186.539,1800.78 186.539,1781.88 
  "/>
<polyline clip-path="url(#clip850)" style="stroke:#000000; stroke-linecap:butt; stroke-linejoin:round; stroke-width:4; stroke-opacity:1; fill:none" points="
  782.223,1800.78 782.223,1781.88 
  "/>
<polyline clip-path="url(#clip850)" style="stroke:#000000; stroke-linecap:butt; stroke-linejoin:round; stroke-width:4; stroke-opacity:1; fill:none" points="
  1377.91,1800.78 1377.91,1781.88 
  "/>
<polyline clip-path="url(#clip850)" style="stroke:#000000; stroke-linecap:butt; stroke-linejoin:round; stroke-width:4; stroke-opacity:1; fill:none" points="
  1973.59,1800.78 1973.59,1781.88 
  "/>
<polyline clip-path="url(#clip850)" style="stroke:#000000; stroke-linecap:butt; stroke-linejoin:round; stroke-width:4; stroke-opacity:1; fill:none" points="
  2569.27,1800.78 2569.27,1781.88 
  "/>
<path clip-path="url(#clip850)" d="M186.539 1834 Q182.928 1834 181.099 1837.57 Q179.294 1841.11 179.294 1848.24 Q179.294 1855.34 181.099 1858.91 Q182.928 1862.45 186.539 1862.45 Q190.173 1862.45 191.979 1858.91 Q193.808 1855.34 193.808 1848.24 Q193.808 1841.11 191.979 1837.57 Q190.173 1834 186.539 1834 M186.539 1830.3 Q192.349 1830.3 195.405 1834.9 Q198.484 1839.49 198.484 1848.24 Q198.484 1856.96 195.405 1861.57 Q192.349 1866.15 186.539 1866.15 Q180.729 1866.15 177.65 1861.57 Q174.595 1856.96 174.595 1848.24 Q174.595 1839.49 177.65 1834.9 Q180.729 1830.3 186.539 1830.3 Z" fill="#000000" fill-rule="evenodd" fill-opacity="1" /><path clip-path="url(#clip850)" d="M776.876 1861.55 L793.195 1861.55 L793.195 1865.48 L771.251 1865.48 L771.251 1861.55 Q773.913 1858.79 778.496 1854.16 Q783.103 1849.51 784.283 1848.17 Q786.528 1845.65 787.408 1843.91 Q788.311 1842.15 788.311 1840.46 Q788.311 1837.71 786.366 1835.97 Q784.445 1834.23 781.343 1834.23 Q779.144 1834.23 776.691 1835 Q774.26 1835.76 771.482 1837.31 L771.482 1832.59 Q774.306 1831.46 776.76 1830.88 Q779.214 1830.3 781.251 1830.3 Q786.621 1830.3 789.815 1832.98 Q793.01 1835.67 793.01 1840.16 Q793.01 1842.29 792.2 1844.21 Q791.413 1846.11 789.306 1848.7 Q788.727 1849.37 785.626 1852.59 Q782.524 1855.78 776.876 1861.55 Z" fill="#000000" fill-rule="evenodd" fill-opacity="1" /><path clip-path="url(#clip850)" d="M1380.92 1835 L1369.11 1853.45 L1380.92 1853.45 L1380.92 1835 M1379.69 1830.92 L1385.57 1830.92 L1385.57 1853.45 L1390.5 1853.45 L1390.5 1857.34 L1385.57 1857.34 L1385.57 1865.48 L1380.92 1865.48 L1380.92 1857.34 L1365.31 1857.34 L1365.31 1852.82 L1379.69 1830.92 Z" fill="#000000" fill-rule="evenodd" fill-opacity="1" /><path clip-path="url(#clip850)" d="M1974 1846.34 Q1970.85 1846.34 1969 1848.49 Q1967.17 1850.65 1967.17 1854.4 Q1967.17 1858.12 1969 1860.3 Q1970.85 1862.45 1974 1862.45 Q1977.14 1862.45 1978.97 1860.3 Q1980.82 1858.12 1980.82 1854.4 Q1980.82 1850.65 1978.97 1848.49 Q1977.14 1846.34 1974 1846.34 M1983.28 1831.69 L1983.28 1835.95 Q1981.52 1835.11 1979.71 1834.67 Q1977.93 1834.23 1976.17 1834.23 Q1971.54 1834.23 1969.09 1837.36 Q1966.66 1840.48 1966.31 1846.8 Q1967.68 1844.79 1969.74 1843.72 Q1971.8 1842.64 1974.27 1842.64 Q1979.48 1842.64 1982.49 1845.81 Q1985.52 1848.96 1985.52 1854.4 Q1985.52 1859.72 1982.37 1862.94 Q1979.23 1866.15 1974 1866.15 Q1968 1866.15 1964.83 1861.57 Q1961.66 1856.96 1961.66 1848.24 Q1961.66 1840.04 1965.55 1835.18 Q1969.44 1830.3 1975.99 1830.3 Q1977.75 1830.3 1979.53 1830.65 Q1981.33 1830.99 1983.28 1831.69 Z" fill="#000000" fill-rule="evenodd" fill-opacity="1" /><path clip-path="url(#clip850)" d="M2569.27 1849.07 Q2565.94 1849.07 2564.02 1850.85 Q2562.12 1852.64 2562.12 1855.76 Q2562.12 1858.89 2564.02 1860.67 Q2565.94 1862.45 2569.27 1862.45 Q2572.61 1862.45 2574.53 1860.67 Q2576.45 1858.86 2576.45 1855.76 Q2576.45 1852.64 2574.53 1850.85 Q2572.63 1849.07 2569.27 1849.07 M2564.6 1847.08 Q2561.59 1846.34 2559.9 1844.28 Q2558.23 1842.22 2558.23 1839.26 Q2558.23 1835.11 2561.17 1832.71 Q2564.14 1830.3 2569.27 1830.3 Q2574.44 1830.3 2577.38 1832.71 Q2580.32 1835.11 2580.32 1839.26 Q2580.32 1842.22 2578.63 1844.28 Q2576.96 1846.34 2573.97 1847.08 Q2577.35 1847.87 2579.23 1850.16 Q2581.13 1852.45 2581.13 1855.76 Q2581.13 1860.78 2578.05 1863.47 Q2574.99 1866.15 2569.27 1866.15 Q2563.56 1866.15 2560.48 1863.47 Q2557.42 1860.78 2557.42 1855.76 Q2557.42 1852.45 2559.32 1850.16 Q2561.22 1847.87 2564.6 1847.08 M2562.89 1839.7 Q2562.89 1842.38 2564.55 1843.89 Q2566.24 1845.39 2569.27 1845.39 Q2572.28 1845.39 2573.97 1843.89 Q2575.69 1842.38 2575.69 1839.7 Q2575.69 1837.01 2573.97 1835.51 Q2572.28 1834 2569.27 1834 Q2566.24 1834 2564.55 1835.51 Q2562.89 1837.01 2562.89 1839.7 Z" fill="#000000" fill-rule="evenodd" fill-opacity="1" /><polyline clip-path="url(#clip852)" style="stroke:#000000; stroke-linecap:butt; stroke-linejoin:round; stroke-width:2; stroke-opacity:0.1; fill:none" points="
  115.057,1751.15 2640.76,1751.15 
  "/>
<polyline clip-path="url(#clip852)" style="stroke:#000000; stroke-linecap:butt; stroke-linejoin:round; stroke-width:2; stroke-opacity:0.1; fill:none" points="
  115.057,1318.27 2640.76,1318.27 
  "/>
<polyline clip-path="url(#clip852)" style="stroke:#000000; stroke-linecap:butt; stroke-linejoin:round; stroke-width:2; stroke-opacity:0.1; fill:none" points="
  115.057,885.38 2640.76,885.38 
  "/>
<polyline clip-path="url(#clip852)" style="stroke:#000000; stroke-linecap:butt; stroke-linejoin:round; stroke-width:2; stroke-opacity:0.1; fill:none" points="
  115.057,452.494 2640.76,452.494 
  "/>
<polyline clip-path="url(#clip850)" style="stroke:#000000; stroke-linecap:butt; stroke-linejoin:round; stroke-width:4; stroke-opacity:1; fill:none" points="
  115.057,1800.78 115.057,47.2441 
  "/>
<polyline clip-path="url(#clip850)" style="stroke:#000000; stroke-linecap:butt; stroke-linejoin:round; stroke-width:4; stroke-opacity:1; fill:none" points="
  115.057,1751.15 133.955,1751.15 
  "/>
<polyline clip-path="url(#clip850)" style="stroke:#000000; stroke-linecap:butt; stroke-linejoin:round; stroke-width:4; stroke-opacity:1; fill:none" points="
  115.057,1318.27 133.955,1318.27 
  "/>
<polyline clip-path="url(#clip850)" style="stroke:#000000; stroke-linecap:butt; stroke-linejoin:round; stroke-width:4; stroke-opacity:1; fill:none" points="
  115.057,885.38 133.955,885.38 
  "/>
<polyline clip-path="url(#clip850)" style="stroke:#000000; stroke-linecap:butt; stroke-linejoin:round; stroke-width:4; stroke-opacity:1; fill:none" points="
  115.057,452.494 133.955,452.494 
  "/>
<path clip-path="url(#clip850)" d="M62.7928 1736.95 Q59.1817 1736.95 57.353 1740.51 Q55.5475 1744.06 55.5475 1751.19 Q55.5475 1758.29 57.353 1761.86 Q59.1817 1765.4 62.7928 1765.4 Q66.427 1765.4 68.2326 1761.86 Q70.0613 1758.29 70.0613 1751.19 Q70.0613 1744.06 68.2326 1740.51 Q66.427 1736.95 62.7928 1736.95 M62.7928 1733.25 Q68.6029 1733.25 71.6585 1737.85 Q74.7372 1742.44 74.7372 1751.19 Q74.7372 1759.91 71.6585 1764.52 Q68.6029 1769.1 62.7928 1769.1 Q56.9826 1769.1 53.904 1764.52 Q50.8484 1759.91 50.8484 1751.19 Q50.8484 1742.44 53.904 1737.85 Q56.9826 1733.25 62.7928 1733.25 Z" fill="#000000" fill-rule="evenodd" fill-opacity="1" /><path clip-path="url(#clip850)" d="M58.4178 1331.61 L74.7372 1331.61 L74.7372 1335.55 L52.7928 1335.55 L52.7928 1331.61 Q55.4549 1328.86 60.0382 1324.23 Q64.6446 1319.57 65.8252 1318.23 Q68.0705 1315.71 68.9502 1313.97 Q69.8529 1312.21 69.8529 1310.52 Q69.8529 1307.77 67.9085 1306.03 Q65.9872 1304.3 62.8854 1304.3 Q60.6863 1304.3 58.2326 1305.06 Q55.8021 1305.82 53.0243 1307.37 L53.0243 1302.65 Q55.8484 1301.52 58.3021 1300.94 Q60.7558 1300.36 62.7928 1300.36 Q68.1631 1300.36 71.3576 1303.05 Q74.552 1305.73 74.552 1310.22 Q74.552 1312.35 73.7418 1314.27 Q72.9548 1316.17 70.8483 1318.76 Q70.2696 1319.43 67.1678 1322.65 Q64.0659 1325.85 58.4178 1331.61 Z" fill="#000000" fill-rule="evenodd" fill-opacity="1" /><path clip-path="url(#clip850)" d="M65.1539 872.174 L53.3484 890.623 L65.1539 890.623 L65.1539 872.174 M63.927 868.1 L69.8066 868.1 L69.8066 890.623 L74.7372 890.623 L74.7372 894.512 L69.8066 894.512 L69.8066 902.66 L65.1539 902.66 L65.1539 894.512 L49.5521 894.512 L49.5521 889.998 L63.927 868.1 Z" fill="#000000" fill-rule="evenodd" fill-opacity="1" /><path clip-path="url(#clip850)" d="M63.2095 450.631 Q60.0613 450.631 58.2095 452.784 Q56.3808 454.936 56.3808 458.686 Q56.3808 462.413 58.2095 464.589 Q60.0613 466.742 63.2095 466.742 Q66.3576 466.742 68.1863 464.589 Q70.0381 462.413 70.0381 458.686 Q70.0381 454.936 68.1863 452.784 Q66.3576 450.631 63.2095 450.631 M72.4918 435.978 L72.4918 440.237 Q70.7326 439.404 68.927 438.964 Q67.1446 438.524 65.3854 438.524 Q60.7558 438.524 58.3021 441.649 Q55.8715 444.774 55.5243 451.094 Q56.89 449.08 58.9502 448.015 Q61.0104 446.927 63.4872 446.927 Q68.6955 446.927 71.7048 450.098 Q74.7372 453.247 74.7372 458.686 Q74.7372 464.01 71.589 467.228 Q68.4409 470.446 63.2095 470.446 Q57.2141 470.446 54.0428 465.862 Q50.8716 461.256 50.8716 452.529 Q50.8716 444.335 54.7604 439.474 Q58.6493 434.589 65.2002 434.589 Q66.9594 434.589 68.7418 434.937 Q70.5474 435.284 72.4918 435.978 Z" fill="#000000" fill-rule="evenodd" fill-opacity="1" /><path clip-path="url(#clip852)" d="
M1377.91 1751.15 L2569.27 1751.15 L2569.27 699.585 L1377.91 699.585 L1377.91 1751.15  Z
  " fill="#0000ff" fill-rule="evenodd" fill-opacity="1"/>
<polyline clip-path="url(#clip852)" style="stroke:#000000; stroke-linecap:butt; stroke-linejoin:round; stroke-width:4; stroke-opacity:1; fill:none" points="
  1377.91,1751.15 2569.27,1751.15 2569.27,699.585 1377.91,699.585 1377.91,1751.15 
  "/>
<path clip-path="url(#clip852)" d="
M186.539 1751.15 L1080.06 1751.15 L1080.06 421.37 L186.539 421.37 L186.539 1751.15  Z
  " fill="#0000ff" fill-rule="evenodd" fill-opacity="1"/>
<polyline clip-path="url(#clip852)" style="stroke:#000000; stroke-linecap:butt; stroke-linejoin:round; stroke-width:4; stroke-opacity:1; fill:none" points="
  186.539,1751.15 1080.06,1751.15 1080.06,421.37 186.539,421.37 186.539,1751.15 
  "/>
<path clip-path="url(#clip852)" d="
M2569.27 699.585 L2568.05 671.85 L2564.38 644.229 L2558.29 616.836 L2549.79 589.782 L2538.93 563.18 L2525.74 537.138 L2510.28 511.763 L2492.62 487.161 L2472.83 463.431 
  L2450.98 440.672 L2427.17 418.977 L2401.5 398.434 L2374.07 379.13 L2344.99 361.142 L2314.39 344.545 L2282.39 329.406 L2249.12 315.789 L2214.71 303.749 L2179.32 293.336 
  L2143.08 284.592 L2106.14 277.553 L2068.66 272.249 L2030.79 268.7 L1992.68 266.922 L1954.5 266.922 L1916.39 268.7 L1878.52 272.249 L1841.04 277.553 L1804.1 284.592 
  L1767.86 293.336 L1732.47 303.749 L1698.06 315.789 L1664.79 329.406 L1632.79 344.545 L1602.19 361.142 L1573.11 379.13 L1545.68 398.434 L1520.01 418.977 L1496.2 440.672 
  L1474.35 463.431 L1454.56 487.161 L1436.9 511.763 L1421.44 537.138 L1408.25 563.18 L1397.39 589.782 L1388.89 616.836 L1382.8 644.229 L1379.13 671.85 L1377.91 699.585 
  L2569.27 699.585  Z
  " fill="#ff0000" fill-rule="evenodd" fill-opacity="1"/>
<polyline clip-path="url(#clip852)" style="stroke:#000000; stroke-linecap:butt; stroke-linejoin:round; stroke-width:4; stroke-opacity:1; fill:none" points="
  2569.27,699.585 2568.05,671.85 2564.38,644.229 2558.29,616.836 2549.79,589.782 2538.93,563.18 2525.74,537.138 2510.28,511.763 2492.62,487.161 2472.83,463.431 
  2450.98,440.672 2427.17,418.977 2401.5,398.434 2374.07,379.13 2344.99,361.142 2314.39,344.545 2282.39,329.406 2249.12,315.789 2214.71,303.749 2179.32,293.336 
  2143.08,284.592 2106.14,277.553 2068.66,272.249 2030.79,268.7 1992.68,266.922 1954.5,266.922 1916.39,268.7 1878.52,272.249 1841.04,277.553 1804.1,284.592 
  1767.86,293.336 1732.47,303.749 1698.06,315.789 1664.79,329.406 1632.79,344.545 1602.19,361.142 1573.11,379.13 1545.68,398.434 1520.01,418.977 1496.2,440.672 
  1474.35,463.431 1454.56,487.161 1436.9,511.763 1421.44,537.138 1408.25,563.18 1397.39,589.782 1388.89,616.836 1382.8,644.229 1379.13,671.85 1377.91,699.585 
  2569.27,699.585 
  "/>
<path clip-path="url(#clip852)" d="
M1080.06 421.37 L1079.15 400.569 L1076.4 379.853 L1071.83 359.307 L1065.45 339.017 L1057.3 319.065 L1047.41 299.534 L1035.82 280.503 L1022.57 262.051 L1007.73 244.254 
  L991.344 227.185 L973.488 210.913 L954.234 195.507 L933.661 181.028 L911.854 167.537 L888.902 155.089 L864.9 143.736 L839.947 133.523 L814.144 124.493 L787.598 116.683 
  L760.418 110.125 L732.716 104.846 L704.605 100.867 L676.201 98.2059 L647.621 96.8724 L618.983 96.8724 L590.402 98.2059 L561.999 100.867 L533.888 104.846 L506.186 110.125 
  L479.006 116.683 L452.46 124.493 L426.657 133.523 L401.703 143.736 L377.702 155.089 L354.75 167.537 L332.943 181.028 L312.37 195.507 L293.116 210.913 L275.26 227.185 
  L258.875 244.254 L244.029 262.051 L230.783 280.503 L219.19 299.534 L209.299 319.065 L201.151 339.017 L194.778 359.307 L190.207 379.853 L187.457 400.569 L186.539 421.37 
  L1080.06 421.37  Z
  " fill="#ff0000" fill-rule="evenodd" fill-opacity="1"/>
<polyline clip-path="url(#clip852)" style="stroke:#000000; stroke-linecap:butt; stroke-linejoin:round; stroke-width:4; stroke-opacity:1; fill:none" points="
  1080.06,421.37 1079.15,400.569 1076.4,379.853 1071.83,359.307 1065.45,339.017 1057.3,319.065 1047.41,299.534 1035.82,280.503 1022.57,262.051 1007.73,244.254 
  991.344,227.185 973.488,210.913 954.234,195.507 933.661,181.028 911.854,167.537 888.902,155.089 864.9,143.736 839.947,133.523 814.144,124.493 787.598,116.683 
  760.418,110.125 732.716,104.846 704.605,100.867 676.201,98.2059 647.621,96.8724 618.983,96.8724 590.402,98.2059 561.999,100.867 533.888,104.846 506.186,110.125 
  479.006,116.683 452.46,124.493 426.657,133.523 401.703,143.736 377.702,155.089 354.75,167.537 332.943,181.028 312.37,195.507 293.116,210.913 275.26,227.185 
  258.875,244.254 244.029,262.051 230.783,280.503 219.19,299.534 209.299,319.065 201.151,339.017 194.778,359.307 190.207,379.853 187.457,400.569 186.539,421.37 
  1080.06,421.37 
  "/>
</svg>
