<?xml version="1.0" encoding="utf-8"?>
<svg xmlns="http://www.w3.org/2000/svg" xmlns:xlink="http://www.w3.org/1999/xlink" width="672" height="480" viewBox="0 0 2688 1920">
<defs>
  <clipPath id="clip940">
    <rect x="0" y="0" width="2688" height="1920"/>
  </clipPath>
</defs>
<path clip-path="url(#clip940)" d="
M0 1920 L2688 1920 L2688 0 L0 0  Z
  " fill="#ffffff" fill-rule="evenodd" fill-opacity="1"/>
<defs>
  <clipPath id="clip941">
    <rect x="537" y="0" width="1883" height="1883"/>
  </clipPath>
</defs>
<path clip-path="url(#clip940)" d="
M141.839 1800.78 L2640.76 1800.78 L2640.76 47.2441 L141.839 47.2441  Z
  " fill="#ffffff" fill-rule="evenodd" fill-opacity="1"/>
<defs>
  <clipPath id="clip942">
    <rect x="141" y="47" width="2500" height="1755"/>
  </clipPath>
</defs>
<polyline clip-path="url(#clip942)" style="stroke:#000000; stroke-linecap:butt; stroke-linejoin:round; stroke-width:2; stroke-opacity:0.1; fill:none" points="
  212.563,1800.78 212.563,47.2441 
  "/>
<polyline clip-path="url(#clip942)" style="stroke:#000000; stroke-linecap:butt; stroke-linejoin:round; stroke-width:2; stroke-opacity:0.1; fill:none" points="
  801.931,1800.78 801.931,47.2441 
  "/>
<polyline clip-path="url(#clip942)" style="stroke:#000000; stroke-linecap:butt; stroke-linejoin:round; stroke-width:2; stroke-opacity:0.1; fill:none" points="
  1391.3,1800.78 1391.3,47.2441 
  "/>
<polyline clip-path="url(#clip942)" style="stroke:#000000; stroke-linecap:butt; stroke-linejoin:round; stroke-width:2; stroke-opacity:0.1; fill:none" points="
  1980.66,1800.78 1980.66,47.2441 
  "/>
<polyline clip-path="url(#clip942)" style="stroke:#000000; stroke-linecap:butt; stroke-linejoin:round; stroke-width:2; stroke-opacity:0.1; fill:none" points="
  2570.03,1800.78 2570.03,47.2441 
  "/>
<polyline clip-path="url(#clip940)" style="stroke:#000000; stroke-linecap:butt; stroke-linejoin:round; stroke-width:4; stroke-opacity:1; fill:none" points="
  141.839,1800.78 2640.76,1800.78 
  "/>
<polyline clip-path="url(#clip940)" style="stroke:#000000; stroke-linecap:butt; stroke-linejoin:round; stroke-width:4; stroke-opacity:1; fill:none" points="
  212.563,1800.78 212.563,1781.88 
  "/>
<polyline clip-path="url(#clip940)" style="stroke:#000000; stroke-linecap:butt; stroke-linejoin:round; stroke-width:4; stroke-opacity:1; fill:none" points="
  801.931,1800.78 801.931,1781.88 
  "/>
<polyline clip-path="url(#clip940)" style="stroke:#000000; stroke-linecap:butt; stroke-linejoin:round; stroke-width:4; stroke-opacity:1; fill:none" points="
  1391.3,1800.78 1391.3,1781.88 
  "/>
<polyline clip-path="url(#clip940)" style="stroke:#000000; stroke-linecap:butt; stroke-linejoin:round; stroke-width:4; stroke-opacity:1; fill:none" points="
  1980.66,1800.78 1980.66,1781.88 
  "/>
<polyline clip-path="url(#clip940)" style="stroke:#000000; stroke-linecap:butt; stroke-linejoin:round; stroke-width:4; stroke-opacity:1; fill:none" points="
  2570.03,1800.78 2570.03,1781.88 
  "/>
<path clip-path="url(#clip940)" d="M189.948 1834 Q186.337 1834 184.508 1837.57 Q182.703 1841.11 182.703 1848.24 Q182.703 1855.34 184.508 1858.91 Q186.337 1862.45 189.948 1862.45 Q193.582 1862.45 195.388 1858.91 Q197.216 1855.34 197.216 1848.24 Q197.216 1841.11 195.388 1837.57 Q193.582 1834 189.948 1834 M189.948 1830.3 Q195.758 1830.3 198.814 1834.9 Q201.892 1839.49 201.892 1848.24 Q201.892 1856.96 198.814 1861.57 Q195.758 1866.15 189.948 1866.15 Q184.138 1866.15 181.059 1861.57 Q178.003 1856.96 178.003 1848.24 Q178.003 1839.49 181.059 1834.9 Q184.138 1830.3 189.948 1830.3 Z" fill="#000000" fill-rule="evenodd" fill-opacity="1" /><path clip-path="url(#clip940)" d="M210.11 1859.6 L214.994 1859.6 L214.994 1865.48 L210.11 1865.48 L210.11 1859.6 Z" fill="#000000" fill-rule="evenodd" fill-opacity="1" /><path clip-path="url(#clip940)" d="M235.179 1834 Q231.568 1834 229.739 1837.57 Q227.934 1841.11 227.934 1848.24 Q227.934 1855.34 229.739 1858.91 Q231.568 1862.45 235.179 1862.45 Q238.813 1862.45 240.619 1858.91 Q242.448 1855.34 242.448 1848.24 Q242.448 1841.11 240.619 1837.57 Q238.813 1834 235.179 1834 M235.179 1830.3 Q240.989 1830.3 244.045 1834.9 Q247.123 1839.49 247.123 1848.24 Q247.123 1856.96 244.045 1861.57 Q240.989 1866.15 235.179 1866.15 Q229.369 1866.15 226.29 1861.57 Q223.235 1856.96 223.235 1848.24 Q223.235 1839.49 226.29 1834.9 Q229.369 1830.3 235.179 1830.3 Z" fill="#000000" fill-rule="evenodd" fill-opacity="1" /><path clip-path="url(#clip940)" d="M779.813 1834 Q776.202 1834 774.373 1837.57 Q772.567 1841.11 772.567 1848.24 Q772.567 1855.34 774.373 1858.91 Q776.202 1862.45 779.813 1862.45 Q783.447 1862.45 785.252 1858.91 Q787.081 1855.34 787.081 1848.24 Q787.081 1841.11 785.252 1837.57 Q783.447 1834 779.813 1834 M779.813 1830.3 Q785.623 1830.3 788.678 1834.9 Q791.757 1839.49 791.757 1848.24 Q791.757 1856.96 788.678 1861.57 Q785.623 1866.15 779.813 1866.15 Q774.002 1866.15 770.924 1861.57 Q767.868 1856.96 767.868 1848.24 Q767.868 1839.49 770.924 1834.9 Q774.002 1830.3 779.813 1830.3 Z" fill="#000000" fill-rule="evenodd" fill-opacity="1" /><path clip-path="url(#clip940)" d="M799.975 1859.6 L804.859 1859.6 L804.859 1865.48 L799.975 1865.48 L799.975 1859.6 Z" fill="#000000" fill-rule="evenodd" fill-opacity="1" /><path clip-path="url(#clip940)" d="M815.09 1830.92 L833.447 1830.92 L833.447 1834.86 L819.373 1834.86 L819.373 1843.33 Q820.391 1842.98 821.41 1842.82 Q822.428 1842.64 823.447 1842.64 Q829.234 1842.64 832.613 1845.81 Q835.993 1848.98 835.993 1854.4 Q835.993 1859.97 832.521 1863.08 Q829.048 1866.15 822.729 1866.15 Q820.553 1866.15 818.285 1865.78 Q816.039 1865.41 813.632 1864.67 L813.632 1859.97 Q815.715 1861.11 817.937 1861.66 Q820.16 1862.22 822.636 1862.22 Q826.641 1862.22 828.979 1860.11 Q831.317 1858.01 831.317 1854.4 Q831.317 1850.78 828.979 1848.68 Q826.641 1846.57 822.636 1846.57 Q820.761 1846.57 818.887 1846.99 Q817.035 1847.4 815.09 1848.28 L815.09 1830.92 Z" fill="#000000" fill-rule="evenodd" fill-opacity="1" /><path clip-path="url(#clip940)" d="M1358.45 1861.55 L1366.09 1861.55 L1366.09 1835.18 L1357.78 1836.85 L1357.78 1832.59 L1366.04 1830.92 L1370.72 1830.92 L1370.72 1861.55 L1378.36 1861.55 L1378.36 1865.48 L1358.45 1865.48 L1358.45 1861.55 Z" fill="#000000" fill-rule="evenodd" fill-opacity="1" /><path clip-path="url(#clip940)" d="M1387.8 1859.6 L1392.69 1859.6 L1392.69 1865.48 L1387.8 1865.48 L1387.8 1859.6 Z" fill="#000000" fill-rule="evenodd" fill-opacity="1" /><path clip-path="url(#clip940)" d="M1412.87 1834 Q1409.26 1834 1407.43 1837.57 Q1405.63 1841.11 1405.63 1848.24 Q1405.63 1855.34 1407.43 1858.91 Q1409.26 1862.45 1412.87 1862.45 Q1416.51 1862.45 1418.31 1858.91 Q1420.14 1855.34 1420.14 1848.24 Q1420.14 1841.11 1418.31 1837.57 Q1416.51 1834 1412.87 1834 M1412.87 1830.3 Q1418.68 1830.3 1421.74 1834.9 Q1424.82 1839.49 1424.82 1848.24 Q1424.82 1856.96 1421.74 1861.57 Q1418.68 1866.15 1412.87 1866.15 Q1407.06 1866.15 1403.98 1861.57 Q1400.93 1856.96 1400.93 1848.24 Q1400.93 1839.49 1403.98 1834.9 Q1407.06 1830.3 1412.87 1830.3 Z" fill="#000000" fill-rule="evenodd" fill-opacity="1" /><path clip-path="url(#clip940)" d="M1948.32 1861.55 L1955.95 1861.55 L1955.95 1835.18 L1947.64 1836.85 L1947.64 1832.59 L1955.91 1830.92 L1960.58 1830.92 L1960.58 1861.55 L1968.22 1861.55 L1968.22 1865.48 L1948.32 1865.48 L1948.32 1861.55 Z" fill="#000000" fill-rule="evenodd" fill-opacity="1" /><path clip-path="url(#clip940)" d="M1977.67 1859.6 L1982.55 1859.6 L1982.55 1865.48 L1977.67 1865.48 L1977.67 1859.6 Z" fill="#000000" fill-rule="evenodd" fill-opacity="1" /><path clip-path="url(#clip940)" d="M1992.78 1830.92 L2011.14 1830.92 L2011.14 1834.86 L1997.07 1834.86 L1997.07 1843.33 Q1998.08 1842.98 1999.1 1842.82 Q2000.12 1842.64 2001.14 1842.64 Q2006.93 1842.64 2010.31 1845.81 Q2013.69 1848.98 2013.69 1854.4 Q2013.69 1859.97 2010.21 1863.08 Q2006.74 1866.15 2000.42 1866.15 Q1998.25 1866.15 1995.98 1865.78 Q1993.73 1865.41 1991.32 1864.67 L1991.32 1859.97 Q1993.41 1861.11 1995.63 1861.66 Q1997.85 1862.22 2000.33 1862.22 Q2004.33 1862.22 2006.67 1860.11 Q2009.01 1858.01 2009.01 1854.4 Q2009.01 1850.78 2006.67 1848.68 Q2004.33 1846.57 2000.33 1846.57 Q1998.45 1846.57 1996.58 1846.99 Q1994.73 1847.4 1992.78 1848.28 L1992.78 1830.92 Z" fill="#000000" fill-rule="evenodd" fill-opacity="1" /><path clip-path="url(#clip940)" d="M2541.27 1861.55 L2557.59 1861.55 L2557.59 1865.48 L2535.65 1865.48 L2535.65 1861.55 Q2538.31 1858.79 2542.89 1854.16 Q2547.5 1849.51 2548.68 1848.17 Q2550.92 1845.65 2551.8 1843.91 Q2552.71 1842.15 2552.71 1840.46 Q2552.71 1837.71 2550.76 1835.97 Q2548.84 1834.23 2545.74 1834.23 Q2543.54 1834.23 2541.09 1835 Q2538.65 1835.76 2535.88 1837.31 L2535.88 1832.59 Q2538.7 1831.46 2541.15 1830.88 Q2543.61 1830.3 2545.65 1830.3 Q2551.02 1830.3 2554.21 1832.98 Q2557.4 1835.67 2557.4 1840.16 Q2557.4 1842.29 2556.59 1844.21 Q2555.81 1846.11 2553.7 1848.7 Q2553.12 1849.37 2550.02 1852.59 Q2546.92 1855.78 2541.27 1861.55 Z" fill="#000000" fill-rule="evenodd" fill-opacity="1" /><path clip-path="url(#clip940)" d="M2567.4 1859.6 L2572.29 1859.6 L2572.29 1865.48 L2567.4 1865.48 L2567.4 1859.6 Z" fill="#000000" fill-rule="evenodd" fill-opacity="1" /><path clip-path="url(#clip940)" d="M2592.47 1834 Q2588.86 1834 2587.03 1837.57 Q2585.23 1841.11 2585.23 1848.24 Q2585.23 1855.34 2587.03 1858.91 Q2588.86 1862.45 2592.47 1862.45 Q2596.11 1862.45 2597.91 1858.91 Q2599.74 1855.34 2599.74 1848.24 Q2599.74 1841.11 2597.91 1837.57 Q2596.11 1834 2592.47 1834 M2592.47 1830.3 Q2598.28 1830.3 2601.34 1834.9 Q2604.42 1839.49 2604.42 1848.24 Q2604.42 1856.96 2601.34 1861.57 Q2598.28 1866.15 2592.47 1866.15 Q2586.66 1866.15 2583.59 1861.57 Q2580.53 1856.96 2580.53 1848.24 Q2580.53 1839.49 2583.59 1834.9 Q2586.66 1830.3 2592.47 1830.3 Z" fill="#000000" fill-rule="evenodd" fill-opacity="1" /><polyline clip-path="url(#clip942)" style="stroke:#000000; stroke-linecap:butt; stroke-linejoin:round; stroke-width:2; stroke-opacity:0.1; fill:none" points="
  141.839,1751.15 2640.76,1751.15 
  "/>
<polyline clip-path="url(#clip942)" style="stroke:#000000; stroke-linecap:butt; stroke-linejoin:round; stroke-width:2; stroke-opacity:0.1; fill:none" points="
  141.839,1234.19 2640.76,1234.19 
  "/>
<polyline clip-path="url(#clip942)" style="stroke:#000000; stroke-linecap:butt; stroke-linejoin:round; stroke-width:2; stroke-opacity:0.1; fill:none" points="
  141.839,717.227 2640.76,717.227 
  "/>
<polyline clip-path="url(#clip942)" style="stroke:#000000; stroke-linecap:butt; stroke-linejoin:round; stroke-width:2; stroke-opacity:0.1; fill:none" points="
  141.839,200.265 2640.76,200.265 
  "/>
<polyline clip-path="url(#clip940)" style="stroke:#000000; stroke-linecap:butt; stroke-linejoin:round; stroke-width:4; stroke-opacity:1; fill:none" points="
  141.839,1800.78 141.839,47.2441 
  "/>
<polyline clip-path="url(#clip940)" style="stroke:#000000; stroke-linecap:butt; stroke-linejoin:round; stroke-width:4; stroke-opacity:1; fill:none" points="
  141.839,1751.15 160.737,1751.15 
  "/>
<polyline clip-path="url(#clip940)" style="stroke:#000000; stroke-linecap:butt; stroke-linejoin:round; stroke-width:4; stroke-opacity:1; fill:none" points="
  141.839,1234.19 160.737,1234.19 
  "/>
<polyline clip-path="url(#clip940)" style="stroke:#000000; stroke-linecap:butt; stroke-linejoin:round; stroke-width:4; stroke-opacity:1; fill:none" points="
  141.839,717.227 160.737,717.227 
  "/>
<polyline clip-path="url(#clip940)" style="stroke:#000000; stroke-linecap:butt; stroke-linejoin:round; stroke-width:4; stroke-opacity:1; fill:none" points="
  141.839,200.265 160.737,200.265 
  "/>
<path clip-path="url(#clip940)" d="M89.5751 1736.95 Q85.964 1736.95 84.1353 1740.51 Q82.3297 1744.06 82.3297 1751.19 Q82.3297 1758.29 84.1353 1761.86 Q85.964 1765.4 89.5751 1765.4 Q93.2093 1765.4 95.0148 1761.86 Q96.8435 1758.29 96.8435 1751.19 Q96.8435 1744.06 95.0148 1740.51 Q93.2093 1736.95 89.5751 1736.95 M89.5751 1733.25 Q95.3852 1733.25 98.4408 1737.85 Q101.519 1742.44 101.519 1751.19 Q101.519 1759.91 98.4408 1764.52 Q95.3852 1769.1 89.5751 1769.1 Q83.7649 1769.1 80.6862 1764.52 Q77.6307 1759.91 77.6307 1751.19 Q77.6307 1742.44 80.6862 1737.85 Q83.7649 1733.25 89.5751 1733.25 Z" fill="#000000" fill-rule="evenodd" fill-opacity="1" /><path clip-path="url(#clip940)" d="M80.6168 1216.91 L98.9732 1216.91 L98.9732 1220.84 L84.8992 1220.84 L84.8992 1229.32 Q85.9177 1228.97 86.9362 1228.81 Q87.9547 1228.62 88.9732 1228.62 Q94.7602 1228.62 98.1398 1231.79 Q101.519 1234.96 101.519 1240.38 Q101.519 1245.96 98.0472 1249.06 Q94.575 1252.14 88.2556 1252.14 Q86.0797 1252.14 83.8112 1251.77 Q81.5658 1251.4 79.1584 1250.66 L79.1584 1245.96 Q81.2418 1247.09 83.464 1247.65 Q85.6862 1248.21 88.163 1248.21 Q92.1676 1248.21 94.5056 1246.1 Q96.8435 1243.99 96.8435 1240.38 Q96.8435 1236.77 94.5056 1234.66 Q92.1676 1232.56 88.163 1232.56 Q86.288 1232.56 84.4131 1232.97 Q82.5612 1233.39 80.6168 1234.27 L80.6168 1216.91 Z" fill="#000000" fill-rule="evenodd" fill-opacity="1" /><path clip-path="url(#clip940)" d="M50.2234 730.572 L57.8623 730.572 L57.8623 704.206 L49.5521 705.873 L49.5521 701.614 L57.816 699.947 L62.4919 699.947 L62.4919 730.572 L70.1307 730.572 L70.1307 734.507 L50.2234 734.507 L50.2234 730.572 Z" fill="#000000" fill-rule="evenodd" fill-opacity="1" /><path clip-path="url(#clip940)" d="M89.5751 703.026 Q85.964 703.026 84.1353 706.59 Q82.3297 710.132 82.3297 717.262 Q82.3297 724.368 84.1353 727.933 Q85.964 731.474 89.5751 731.474 Q93.2093 731.474 95.0148 727.933 Q96.8435 724.368 96.8435 717.262 Q96.8435 710.132 95.0148 706.59 Q93.2093 703.026 89.5751 703.026 M89.5751 699.322 Q95.3852 699.322 98.4408 703.928 Q101.519 708.512 101.519 717.262 Q101.519 725.988 98.4408 730.595 Q95.3852 735.178 89.5751 735.178 Q83.7649 735.178 80.6862 730.595 Q77.6307 725.988 77.6307 717.262 Q77.6307 708.512 80.6862 703.928 Q83.7649 699.322 89.5751 699.322 Z" fill="#000000" fill-rule="evenodd" fill-opacity="1" /><path clip-path="url(#clip940)" d="M51.2188 213.61 L58.8576 213.61 L58.8576 187.244 L50.5475 188.911 L50.5475 184.652 L58.8113 182.985 L63.4872 182.985 L63.4872 213.61 L71.1261 213.61 L71.1261 217.545 L51.2188 217.545 L51.2188 213.61 Z" fill="#000000" fill-rule="evenodd" fill-opacity="1" /><path clip-path="url(#clip940)" d="M80.6168 182.985 L98.9732 182.985 L98.9732 186.92 L84.8992 186.92 L84.8992 195.392 Q85.9177 195.045 86.9362 194.883 Q87.9547 194.698 88.9732 194.698 Q94.7602 194.698 98.1398 197.869 Q101.519 201.04 101.519 206.457 Q101.519 212.036 98.0472 215.137 Q94.575 218.216 88.2556 218.216 Q86.0797 218.216 83.8112 217.846 Q81.5658 217.475 79.1584 216.735 L79.1584 212.036 Q81.2418 213.17 83.464 213.725 Q85.6862 214.281 88.163 214.281 Q92.1676 214.281 94.5056 212.175 Q96.8435 210.068 96.8435 206.457 Q96.8435 202.846 94.5056 200.739 Q92.1676 198.633 88.163 198.633 Q86.288 198.633 84.4131 199.05 Q82.5612 199.466 80.6168 200.346 L80.6168 182.985 Z" fill="#000000" fill-rule="evenodd" fill-opacity="1" /><polyline clip-path="url(#clip942)" style="stroke:#009af9; stroke-linecap:butt; stroke-linejoin:round; stroke-width:4; stroke-opacity:1; fill:none" points="
  212.563,1751.15 227.912,1749.44 369.83,1728.98 455.117,1718.15 527.226,1710.29 605.557,1702.87 677.77,1696.86 755.191,1691.07 844.891,1684.95 924.606,1679.86 
  994.508,1675.51 1070.72,1670.78 1147.39,1665.9 1232.15,1660.18 1312.8,1654.23 1396.66,1647.29 1467.25,1640.62 1553.43,1631.12 1632.38,1620.65 1705.29,1608.98 
  1779.15,1594.55 1820.54,1585 1861.93,1574.16 1899.44,1563.01 1936.94,1550.37 1979.88,1533.71 2022.82,1514.24 2062.58,1493.13 2102.34,1468.4 2121.94,1454.63 
  2141.54,1439.66 2161.14,1423.36 2180.74,1405.57 2199.76,1386.71 2218.79,1366.11 2237.82,1343.54 2256.85,1318.79 2276.36,1290.84 2295.87,1259.97 2315.37,1225.77 
  2334.88,1187.8 2345.57,1165.21 2356.25,1141.24 2366.94,1115.76 2377.62,1088.68 2388.31,1059.87 2399,1029.17 2409.68,996.456 2420.37,961.545 2428.13,934.71 
  2435.89,906.547 2443.65,876.977 2451.41,845.911 2459.18,813.258 2466.94,778.917 2474.7,742.783 2482.46,704.74 2490.22,664.665 2497.98,622.427 2505.75,577.881 
  2513.51,530.876 2521.27,481.246 2529.03,428.812 2536.79,373.382 2544.55,314.749 2547.74,289.714 2550.92,264.085 2554.11,237.847 2557.29,210.98 2560.48,183.469 
  2563.66,155.293 2566.85,126.434 2570.03,96.8724 
  "/>
<path clip-path="url(#clip940)" d="
M2227.37 209.375 L2557.46 209.375 L2557.46 105.695 L2227.37 105.695  Z
  " fill="#ffffff" fill-rule="evenodd" fill-opacity="1"/>
<polyline clip-path="url(#clip940)" style="stroke:#000000; stroke-linecap:butt; stroke-linejoin:round; stroke-width:4; stroke-opacity:1; fill:none" points="
  2227.37,209.375 2557.46,209.375 2557.46,105.695 2227.37,105.695 2227.37,209.375 
  "/>
<polyline clip-path="url(#clip940)" style="stroke:#009af9; stroke-linecap:butt; stroke-linejoin:round; stroke-width:4; stroke-opacity:1; fill:none" points="
  2255.14,157.535 2421.73,157.535 
  "/>
<path clip-path="url(#clip940)" d="M2463.34 177.223 Q2461.53 181.852 2459.82 183.264 Q2458.11 184.676 2455.24 184.676 L2451.83 184.676 L2451.83 181.112 L2454.33 181.112 Q2456.09 181.112 2457.07 180.278 Q2458.04 179.445 2459.22 176.343 L2459.98 174.399 L2449.5 148.889 L2454.01 148.889 L2462.11 169.167 L2470.21 148.889 L2474.73 148.889 L2463.34 177.223 Z" fill="#000000" fill-rule="evenodd" fill-opacity="1" /><path clip-path="url(#clip940)" d="M2482.02 170.88 L2489.66 170.88 L2489.66 144.515 L2481.35 146.181 L2481.35 141.922 L2489.61 140.255 L2494.29 140.255 L2494.29 170.88 L2501.93 170.88 L2501.93 174.815 L2482.02 174.815 L2482.02 170.88 Z" fill="#000000" fill-rule="evenodd" fill-opacity="1" /></svg>
