<?xml version="1.0" encoding="utf-8"?>
<svg xmlns="http://www.w3.org/2000/svg" xmlns:xlink="http://www.w3.org/1999/xlink" width="672" height="480" viewBox="0 0 2688 1920">
<defs>
  <clipPath id="clip660">
    <rect x="0" y="0" width="2688" height="1920"/>
  </clipPath>
</defs>
<path clip-path="url(#clip660)" d="
M0 1920 L2688 1920 L2688 0 L0 0  Z
  " fill="#ffffff" fill-rule="evenodd" fill-opacity="1"/>
<defs>
  <clipPath id="clip661">
    <rect x="537" y="0" width="1883" height="1883"/>
  </clipPath>
</defs>
<path clip-path="url(#clip660)" d="
M189.154 1800.78 L2640.76 1800.78 L2640.76 47.2441 L189.154 47.2441  Z
  " fill="#ffffff" fill-rule="evenodd" fill-opacity="1"/>
<defs>
  <clipPath id="clip662">
    <rect x="189" y="47" width="2453" height="1755"/>
  </clipPath>
</defs>
<polyline clip-path="url(#clip662)" style="stroke:#000000; stroke-linecap:round; stroke-linejoin:round; stroke-width:2; stroke-opacity:0.1; fill:none" points="
  258.539,1800.78 258.539,47.2441 
  "/>
<polyline clip-path="url(#clip662)" style="stroke:#000000; stroke-linecap:round; stroke-linejoin:round; stroke-width:2; stroke-opacity:0.1; fill:none" points="
  836.747,1800.78 836.747,47.2441 
  "/>
<polyline clip-path="url(#clip662)" style="stroke:#000000; stroke-linecap:round; stroke-linejoin:round; stroke-width:2; stroke-opacity:0.1; fill:none" points="
  1414.95,1800.78 1414.95,47.2441 
  "/>
<polyline clip-path="url(#clip662)" style="stroke:#000000; stroke-linecap:round; stroke-linejoin:round; stroke-width:2; stroke-opacity:0.1; fill:none" points="
  1993.16,1800.78 1993.16,47.2441 
  "/>
<polyline clip-path="url(#clip662)" style="stroke:#000000; stroke-linecap:round; stroke-linejoin:round; stroke-width:2; stroke-opacity:0.1; fill:none" points="
  2571.37,1800.78 2571.37,47.2441 
  "/>
<polyline clip-path="url(#clip660)" style="stroke:#000000; stroke-linecap:round; stroke-linejoin:round; stroke-width:4; stroke-opacity:1; fill:none" points="
  189.154,1800.78 2640.76,1800.78 
  "/>
<polyline clip-path="url(#clip660)" style="stroke:#000000; stroke-linecap:round; stroke-linejoin:round; stroke-width:4; stroke-opacity:1; fill:none" points="
  258.539,1800.78 258.539,1781.88 
  "/>
<polyline clip-path="url(#clip660)" style="stroke:#000000; stroke-linecap:round; stroke-linejoin:round; stroke-width:4; stroke-opacity:1; fill:none" points="
  836.747,1800.78 836.747,1781.88 
  "/>
<polyline clip-path="url(#clip660)" style="stroke:#000000; stroke-linecap:round; stroke-linejoin:round; stroke-width:4; stroke-opacity:1; fill:none" points="
  1414.95,1800.78 1414.95,1781.88 
  "/>
<polyline clip-path="url(#clip660)" style="stroke:#000000; stroke-linecap:round; stroke-linejoin:round; stroke-width:4; stroke-opacity:1; fill:none" points="
  1993.16,1800.78 1993.16,1781.88 
  "/>
<polyline clip-path="url(#clip660)" style="stroke:#000000; stroke-linecap:round; stroke-linejoin:round; stroke-width:4; stroke-opacity:1; fill:none" points="
  2571.37,1800.78 2571.37,1781.88 
  "/>
<path clip-path="url(#clip660)" d="M228.481 1848.65 L258.157 1848.65 L258.157 1852.59 L228.481 1852.59 L228.481 1848.65 Z" fill="#000000" fill-rule="evenodd" fill-opacity="1" /><path clip-path="url(#clip660)" d="M272.277 1861.55 L288.597 1861.55 L288.597 1865.48 L266.652 1865.48 L266.652 1861.55 Q269.314 1858.79 273.898 1854.16 Q278.504 1849.51 279.685 1848.17 Q281.93 1845.65 282.81 1843.91 Q283.712 1842.15 283.712 1840.46 Q283.712 1837.71 281.768 1835.97 Q279.847 1834.23 276.745 1834.23 Q274.546 1834.23 272.092 1835 Q269.662 1835.76 266.884 1837.31 L266.884 1832.59 Q269.708 1831.46 272.162 1830.88 Q274.615 1830.3 276.652 1830.3 Q282.023 1830.3 285.217 1832.98 Q288.411 1835.67 288.411 1840.16 Q288.411 1842.29 287.601 1844.21 Q286.814 1846.11 284.708 1848.7 Q284.129 1849.37 281.027 1852.59 Q277.925 1855.78 272.277 1861.55 Z" fill="#000000" fill-rule="evenodd" fill-opacity="1" /><path clip-path="url(#clip660)" d="M806.504 1848.65 L836.18 1848.65 L836.18 1852.59 L806.504 1852.59 L806.504 1848.65 Z" fill="#000000" fill-rule="evenodd" fill-opacity="1" /><path clip-path="url(#clip660)" d="M847.083 1861.55 L854.721 1861.55 L854.721 1835.18 L846.411 1836.85 L846.411 1832.59 L854.675 1830.92 L859.351 1830.92 L859.351 1861.55 L866.99 1861.55 L866.99 1865.48 L847.083 1865.48 L847.083 1861.55 Z" fill="#000000" fill-rule="evenodd" fill-opacity="1" /><path clip-path="url(#clip660)" d="M1414.95 1834 Q1411.34 1834 1409.52 1837.57 Q1407.71 1841.11 1407.71 1848.24 Q1407.71 1855.34 1409.52 1858.91 Q1411.34 1862.45 1414.95 1862.45 Q1418.59 1862.45 1420.39 1858.91 Q1422.22 1855.34 1422.22 1848.24 Q1422.22 1841.11 1420.39 1837.57 Q1418.59 1834 1414.95 1834 M1414.95 1830.3 Q1420.77 1830.3 1423.82 1834.9 Q1426.9 1839.49 1426.9 1848.24 Q1426.9 1856.96 1423.82 1861.57 Q1420.77 1866.15 1414.95 1866.15 Q1409.14 1866.15 1406.07 1861.57 Q1403.01 1856.96 1403.01 1848.24 Q1403.01 1839.49 1406.07 1834.9 Q1409.14 1830.3 1414.95 1830.3 Z" fill="#000000" fill-rule="evenodd" fill-opacity="1" /><path clip-path="url(#clip660)" d="M1983.54 1861.55 L1991.18 1861.55 L1991.18 1835.18 L1982.87 1836.85 L1982.87 1832.59 L1991.14 1830.92 L1995.81 1830.92 L1995.81 1861.55 L2003.45 1861.55 L2003.45 1865.48 L1983.54 1865.48 L1983.54 1861.55 Z" fill="#000000" fill-rule="evenodd" fill-opacity="1" /><path clip-path="url(#clip660)" d="M2566.02 1861.55 L2582.34 1861.55 L2582.34 1865.48 L2560.4 1865.48 L2560.4 1861.55 Q2563.06 1858.79 2567.64 1854.16 Q2572.25 1849.51 2573.43 1848.17 Q2575.68 1845.65 2576.56 1843.91 Q2577.46 1842.15 2577.46 1840.46 Q2577.46 1837.71 2575.51 1835.97 Q2573.59 1834.23 2570.49 1834.23 Q2568.29 1834.23 2565.84 1835 Q2563.41 1835.76 2560.63 1837.31 L2560.63 1832.59 Q2563.45 1831.46 2565.91 1830.88 Q2568.36 1830.3 2570.4 1830.3 Q2575.77 1830.3 2578.96 1832.98 Q2582.16 1835.67 2582.16 1840.16 Q2582.16 1842.29 2581.35 1844.21 Q2580.56 1846.11 2578.45 1848.7 Q2577.88 1849.37 2574.77 1852.59 Q2571.67 1855.78 2566.02 1861.55 Z" fill="#000000" fill-rule="evenodd" fill-opacity="1" /><polyline clip-path="url(#clip662)" style="stroke:#000000; stroke-linecap:round; stroke-linejoin:round; stroke-width:2; stroke-opacity:0.1; fill:none" points="
  189.154,1751.15 2640.76,1751.15 
  "/>
<polyline clip-path="url(#clip662)" style="stroke:#000000; stroke-linecap:round; stroke-linejoin:round; stroke-width:2; stroke-opacity:0.1; fill:none" points="
  189.154,1337.5 2640.76,1337.5 
  "/>
<polyline clip-path="url(#clip662)" style="stroke:#000000; stroke-linecap:round; stroke-linejoin:round; stroke-width:2; stroke-opacity:0.1; fill:none" points="
  189.154,923.846 2640.76,923.846 
  "/>
<polyline clip-path="url(#clip662)" style="stroke:#000000; stroke-linecap:round; stroke-linejoin:round; stroke-width:2; stroke-opacity:0.1; fill:none" points="
  189.154,510.193 2640.76,510.193 
  "/>
<polyline clip-path="url(#clip662)" style="stroke:#000000; stroke-linecap:round; stroke-linejoin:round; stroke-width:2; stroke-opacity:0.1; fill:none" points="
  189.154,96.5408 2640.76,96.5408 
  "/>
<polyline clip-path="url(#clip660)" style="stroke:#000000; stroke-linecap:round; stroke-linejoin:round; stroke-width:4; stroke-opacity:1; fill:none" points="
  189.154,1800.78 189.154,47.2441 
  "/>
<polyline clip-path="url(#clip660)" style="stroke:#000000; stroke-linecap:round; stroke-linejoin:round; stroke-width:4; stroke-opacity:1; fill:none" points="
  189.154,1751.15 208.052,1751.15 
  "/>
<polyline clip-path="url(#clip660)" style="stroke:#000000; stroke-linecap:round; stroke-linejoin:round; stroke-width:4; stroke-opacity:1; fill:none" points="
  189.154,1337.5 208.052,1337.5 
  "/>
<polyline clip-path="url(#clip660)" style="stroke:#000000; stroke-linecap:round; stroke-linejoin:round; stroke-width:4; stroke-opacity:1; fill:none" points="
  189.154,923.846 208.052,923.846 
  "/>
<polyline clip-path="url(#clip660)" style="stroke:#000000; stroke-linecap:round; stroke-linejoin:round; stroke-width:4; stroke-opacity:1; fill:none" points="
  189.154,510.193 208.052,510.193 
  "/>
<polyline clip-path="url(#clip660)" style="stroke:#000000; stroke-linecap:round; stroke-linejoin:round; stroke-width:4; stroke-opacity:1; fill:none" points="
  189.154,96.5408 208.052,96.5408 
  "/>
<path clip-path="url(#clip660)" d="M61.4965 1736.95 Q57.8854 1736.95 56.0567 1740.51 Q54.2512 1744.06 54.2512 1751.19 Q54.2512 1758.29 56.0567 1761.86 Q57.8854 1765.4 61.4965 1765.4 Q65.1307 1765.4 66.9363 1761.86 Q68.765 1758.29 68.765 1751.19 Q68.765 1744.06 66.9363 1740.51 Q65.1307 1736.95 61.4965 1736.95 M61.4965 1733.25 Q67.3067 1733.25 70.3622 1737.85 Q73.4409 1742.44 73.4409 1751.19 Q73.4409 1759.91 70.3622 1764.52 Q67.3067 1769.1 61.4965 1769.1 Q55.6864 1769.1 52.6077 1764.52 Q49.5521 1759.91 49.5521 1751.19 Q49.5521 1742.44 52.6077 1737.85 Q55.6864 1733.25 61.4965 1733.25 Z" fill="#000000" fill-rule="evenodd" fill-opacity="1" /><path clip-path="url(#clip660)" d="M81.6584 1762.55 L86.5427 1762.55 L86.5427 1768.43 L81.6584 1768.43 L81.6584 1762.55 Z" fill="#000000" fill-rule="evenodd" fill-opacity="1" /><path clip-path="url(#clip660)" d="M106.728 1736.95 Q103.117 1736.95 101.288 1740.51 Q99.4824 1744.06 99.4824 1751.19 Q99.4824 1758.29 101.288 1761.86 Q103.117 1765.4 106.728 1765.4 Q110.362 1765.4 112.168 1761.86 Q113.996 1758.29 113.996 1751.19 Q113.996 1744.06 112.168 1740.51 Q110.362 1736.95 106.728 1736.95 M106.728 1733.25 Q112.538 1733.25 115.593 1737.85 Q118.672 1742.44 118.672 1751.19 Q118.672 1759.91 115.593 1764.52 Q112.538 1769.1 106.728 1769.1 Q100.918 1769.1 97.8389 1764.52 Q94.7834 1759.91 94.7834 1751.19 Q94.7834 1742.44 97.8389 1737.85 Q100.918 1733.25 106.728 1733.25 Z" fill="#000000" fill-rule="evenodd" fill-opacity="1" /><path clip-path="url(#clip660)" d="M136.89 1736.95 Q133.279 1736.95 131.45 1740.51 Q129.644 1744.06 129.644 1751.19 Q129.644 1758.29 131.45 1761.86 Q133.279 1765.4 136.89 1765.4 Q140.524 1765.4 142.329 1761.86 Q144.158 1758.29 144.158 1751.19 Q144.158 1744.06 142.329 1740.51 Q140.524 1736.95 136.89 1736.95 M136.89 1733.25 Q142.7 1733.25 145.755 1737.85 Q148.834 1742.44 148.834 1751.19 Q148.834 1759.91 145.755 1764.52 Q142.7 1769.1 136.89 1769.1 Q131.079 1769.1 128.001 1764.52 Q124.945 1759.91 124.945 1751.19 Q124.945 1742.44 128.001 1737.85 Q131.079 1733.25 136.89 1733.25 Z" fill="#000000" fill-rule="evenodd" fill-opacity="1" /><path clip-path="url(#clip660)" d="M62.4919 1323.3 Q58.8808 1323.3 57.0521 1326.86 Q55.2465 1330.4 55.2465 1337.53 Q55.2465 1344.64 57.0521 1348.2 Q58.8808 1351.75 62.4919 1351.75 Q66.1261 1351.75 67.9317 1348.2 Q69.7604 1344.64 69.7604 1337.53 Q69.7604 1330.4 67.9317 1326.86 Q66.1261 1323.3 62.4919 1323.3 M62.4919 1319.59 Q68.302 1319.59 71.3576 1324.2 Q74.4363 1328.78 74.4363 1337.53 Q74.4363 1346.26 71.3576 1350.87 Q68.302 1355.45 62.4919 1355.45 Q56.6817 1355.45 53.603 1350.87 Q50.5475 1346.26 50.5475 1337.53 Q50.5475 1328.78 53.603 1324.2 Q56.6817 1319.59 62.4919 1319.59 Z" fill="#000000" fill-rule="evenodd" fill-opacity="1" /><path clip-path="url(#clip660)" d="M82.6538 1348.9 L87.538 1348.9 L87.538 1354.78 L82.6538 1354.78 L82.6538 1348.9 Z" fill="#000000" fill-rule="evenodd" fill-opacity="1" /><path clip-path="url(#clip660)" d="M101.751 1350.84 L118.07 1350.84 L118.07 1354.78 L96.126 1354.78 L96.126 1350.84 Q98.788 1348.09 103.371 1343.46 Q107.978 1338.81 109.158 1337.46 Q111.404 1334.94 112.283 1333.2 Q113.186 1331.45 113.186 1329.76 Q113.186 1327 111.242 1325.26 Q109.32 1323.53 106.218 1323.53 Q104.019 1323.53 101.566 1324.29 Q99.1352 1325.06 96.3574 1326.61 L96.3574 1321.89 Q99.1815 1320.75 101.635 1320.17 Q104.089 1319.59 106.126 1319.59 Q111.496 1319.59 114.691 1322.28 Q117.885 1324.96 117.885 1329.45 Q117.885 1331.58 117.075 1333.51 Q116.288 1335.4 114.181 1338 Q113.603 1338.67 110.501 1341.88 Q107.399 1345.08 101.751 1350.84 Z" fill="#000000" fill-rule="evenodd" fill-opacity="1" /><path clip-path="url(#clip660)" d="M127.931 1320.22 L146.288 1320.22 L146.288 1324.15 L132.214 1324.15 L132.214 1332.63 Q133.232 1332.28 134.251 1332.12 Q135.269 1331.93 136.288 1331.93 Q142.075 1331.93 145.454 1335.1 Q148.834 1338.27 148.834 1343.69 Q148.834 1349.27 145.362 1352.37 Q141.89 1355.45 135.57 1355.45 Q133.394 1355.45 131.126 1355.08 Q128.88 1354.71 126.473 1353.97 L126.473 1349.27 Q128.556 1350.4 130.779 1350.96 Q133.001 1351.51 135.478 1351.51 Q139.482 1351.51 141.82 1349.41 Q144.158 1347.3 144.158 1343.69 Q144.158 1340.08 141.82 1337.97 Q139.482 1335.87 135.478 1335.87 Q133.603 1335.87 131.728 1336.28 Q129.876 1336.7 127.931 1337.58 L127.931 1320.22 Z" fill="#000000" fill-rule="evenodd" fill-opacity="1" /><path clip-path="url(#clip660)" d="M61.4965 909.645 Q57.8854 909.645 56.0567 913.209 Q54.2512 916.751 54.2512 923.881 Q54.2512 930.987 56.0567 934.552 Q57.8854 938.093 61.4965 938.093 Q65.1307 938.093 66.9363 934.552 Q68.765 930.987 68.765 923.881 Q68.765 916.751 66.9363 913.209 Q65.1307 909.645 61.4965 909.645 M61.4965 905.941 Q67.3067 905.941 70.3622 910.547 Q73.4409 915.131 73.4409 923.881 Q73.4409 932.607 70.3622 937.214 Q67.3067 941.797 61.4965 941.797 Q55.6864 941.797 52.6077 937.214 Q49.5521 932.607 49.5521 923.881 Q49.5521 915.131 52.6077 910.547 Q55.6864 905.941 61.4965 905.941 Z" fill="#000000" fill-rule="evenodd" fill-opacity="1" /><path clip-path="url(#clip660)" d="M81.6584 935.246 L86.5427 935.246 L86.5427 941.126 L81.6584 941.126 L81.6584 935.246 Z" fill="#000000" fill-rule="evenodd" fill-opacity="1" /><path clip-path="url(#clip660)" d="M96.7741 906.566 L115.13 906.566 L115.13 910.501 L101.056 910.501 L101.056 918.973 Q102.075 918.626 103.094 918.464 Q104.112 918.279 105.131 918.279 Q110.918 918.279 114.297 921.45 Q117.677 924.621 117.677 930.038 Q117.677 935.617 114.205 938.718 Q110.732 941.797 104.413 941.797 Q102.237 941.797 99.9685 941.427 Q97.7232 941.056 95.3158 940.316 L95.3158 935.617 Q97.3991 936.751 99.6213 937.306 Q101.844 937.862 104.32 937.862 Q108.325 937.862 110.663 935.756 Q113.001 933.649 113.001 930.038 Q113.001 926.427 110.663 924.32 Q108.325 922.214 104.32 922.214 Q102.445 922.214 100.57 922.631 Q98.7185 923.047 96.7741 923.927 L96.7741 906.566 Z" fill="#000000" fill-rule="evenodd" fill-opacity="1" /><path clip-path="url(#clip660)" d="M136.89 909.645 Q133.279 909.645 131.45 913.209 Q129.644 916.751 129.644 923.881 Q129.644 930.987 131.45 934.552 Q133.279 938.093 136.89 938.093 Q140.524 938.093 142.329 934.552 Q144.158 930.987 144.158 923.881 Q144.158 916.751 142.329 913.209 Q140.524 909.645 136.89 909.645 M136.89 905.941 Q142.7 905.941 145.755 910.547 Q148.834 915.131 148.834 923.881 Q148.834 932.607 145.755 937.214 Q142.7 941.797 136.89 941.797 Q131.079 941.797 128.001 937.214 Q124.945 932.607 124.945 923.881 Q124.945 915.131 128.001 910.547 Q131.079 905.941 136.89 905.941 Z" fill="#000000" fill-rule="evenodd" fill-opacity="1" /><path clip-path="url(#clip660)" d="M62.4919 495.992 Q58.8808 495.992 57.0521 499.557 Q55.2465 503.098 55.2465 510.228 Q55.2465 517.335 57.0521 520.899 Q58.8808 524.441 62.4919 524.441 Q66.1261 524.441 67.9317 520.899 Q69.7604 517.335 69.7604 510.228 Q69.7604 503.098 67.9317 499.557 Q66.1261 495.992 62.4919 495.992 M62.4919 492.288 Q68.302 492.288 71.3576 496.895 Q74.4363 501.478 74.4363 510.228 Q74.4363 518.955 71.3576 523.561 Q68.302 528.145 62.4919 528.145 Q56.6817 528.145 53.603 523.561 Q50.5475 518.955 50.5475 510.228 Q50.5475 501.478 53.603 496.895 Q56.6817 492.288 62.4919 492.288 Z" fill="#000000" fill-rule="evenodd" fill-opacity="1" /><path clip-path="url(#clip660)" d="M82.6538 521.594 L87.538 521.594 L87.538 527.473 L82.6538 527.473 L82.6538 521.594 Z" fill="#000000" fill-rule="evenodd" fill-opacity="1" /><path clip-path="url(#clip660)" d="M96.5426 492.913 L118.765 492.913 L118.765 494.904 L106.218 527.473 L101.334 527.473 L113.14 496.849 L96.5426 496.849 L96.5426 492.913 Z" fill="#000000" fill-rule="evenodd" fill-opacity="1" /><path clip-path="url(#clip660)" d="M127.931 492.913 L146.288 492.913 L146.288 496.849 L132.214 496.849 L132.214 505.321 Q133.232 504.973 134.251 504.811 Q135.269 504.626 136.288 504.626 Q142.075 504.626 145.454 507.798 Q148.834 510.969 148.834 516.385 Q148.834 521.964 145.362 525.066 Q141.89 528.145 135.57 528.145 Q133.394 528.145 131.126 527.774 Q128.88 527.404 126.473 526.663 L126.473 521.964 Q128.556 523.098 130.779 523.654 Q133.001 524.209 135.478 524.209 Q139.482 524.209 141.82 522.103 Q144.158 519.997 144.158 516.385 Q144.158 512.774 141.82 510.668 Q139.482 508.561 135.478 508.561 Q133.603 508.561 131.728 508.978 Q129.876 509.395 127.931 510.274 L127.931 492.913 Z" fill="#000000" fill-rule="evenodd" fill-opacity="1" /><path clip-path="url(#clip660)" d="M52.3067 109.886 L59.9456 109.886 L59.9456 83.52 L51.6354 85.1867 L51.6354 80.9275 L59.8993 79.2608 L64.5752 79.2608 L64.5752 109.886 L72.214 109.886 L72.214 113.821 L52.3067 113.821 L52.3067 109.886 Z" fill="#000000" fill-rule="evenodd" fill-opacity="1" /><path clip-path="url(#clip660)" d="M81.6584 107.941 L86.5427 107.941 L86.5427 113.821 L81.6584 113.821 L81.6584 107.941 Z" fill="#000000" fill-rule="evenodd" fill-opacity="1" /><path clip-path="url(#clip660)" d="M106.728 82.3395 Q103.117 82.3395 101.288 85.9043 Q99.4824 89.4459 99.4824 96.5755 Q99.4824 103.682 101.288 107.247 Q103.117 110.788 106.728 110.788 Q110.362 110.788 112.168 107.247 Q113.996 103.682 113.996 96.5755 Q113.996 89.4459 112.168 85.9043 Q110.362 82.3395 106.728 82.3395 M106.728 78.6358 Q112.538 78.6358 115.593 83.2423 Q118.672 87.8256 118.672 96.5755 Q118.672 105.302 115.593 109.909 Q112.538 114.492 106.728 114.492 Q100.918 114.492 97.8389 109.909 Q94.7834 105.302 94.7834 96.5755 Q94.7834 87.8256 97.8389 83.2423 Q100.918 78.6358 106.728 78.6358 Z" fill="#000000" fill-rule="evenodd" fill-opacity="1" /><path clip-path="url(#clip660)" d="M136.89 82.3395 Q133.279 82.3395 131.45 85.9043 Q129.644 89.4459 129.644 96.5755 Q129.644 103.682 131.45 107.247 Q133.279 110.788 136.89 110.788 Q140.524 110.788 142.329 107.247 Q144.158 103.682 144.158 96.5755 Q144.158 89.4459 142.329 85.9043 Q140.524 82.3395 136.89 82.3395 M136.89 78.6358 Q142.7 78.6358 145.755 83.2423 Q148.834 87.8256 148.834 96.5755 Q148.834 105.302 145.755 109.909 Q142.7 114.492 136.89 114.492 Q131.079 114.492 128.001 109.909 Q124.945 105.302 124.945 96.5755 Q124.945 87.8256 128.001 83.2423 Q131.079 78.6358 136.89 78.6358 Z" fill="#000000" fill-rule="evenodd" fill-opacity="1" /><polyline clip-path="url(#clip662)" style="stroke:#009af9; stroke-linecap:round; stroke-linejoin:round; stroke-width:4; stroke-opacity:1; fill:none" points="
  258.539,1751.15 273.597,1751.15 412.828,1751.15 496.5,1751.15 567.244,1751.15 644.091,1751.15 714.938,1751.15 752.915,1751.15 790.893,1751.15 801.893,1751.15 
  812.893,1751.15 818.393,1751.15 823.893,1751.15 829.393,1751.15 834.893,1751.15 837.643,1748.59 840.393,1740.72 843.143,1732.85 845.893,1724.98 851.394,1709.24 
  856.894,1693.5 867.894,1662.02 878.894,1630.54 917.997,1518.65 957.099,1406.75 991.389,1308.63 1025.68,1210.5 1100.45,996.541 1175.66,781.308 1217.24,662.324 
  1258.82,543.34 1298.38,430.13 1337.94,316.92 1358.51,258.064 1379.08,199.207 1389.36,169.779 1399.65,140.351 1404.79,125.637 1409.93,110.923 1412.5,103.566 
  1415.07,96.8724 1417.64,104.229 1420.21,111.586 1424.54,123.973 1428.87,136.359 1433.2,148.745 1437.53,161.131 1446.18,185.903 1454.84,210.675 1472.15,260.219 
  1489.47,309.764 1574.02,551.716 1651.47,773.359 1723.01,978.064 1795.47,1185.42 1836.07,1301.62 1876.68,1417.82 1913.47,1523.11 1950.27,1628.4 1960.8,1658.54 
  1971.33,1688.68 1976.6,1703.75 1981.86,1718.81 1987.13,1733.88 1992.39,1748.95 1995.03,1751.15 1997.66,1751.15 2000.29,1751.15 2002.93,1751.15 2008.19,1751.15 
  2013.46,1751.15 2023.99,1751.15 2034.52,1751.15 2073.53,1751.15 2112.53,1751.15 2189.45,1751.15 2264.12,1751.15 2340.67,1751.15 2424.54,1751.15 2546.38,1751.15 
  2571.37,1751.15 
  "/>
<path clip-path="url(#clip660)" d="
M2234.21 209.375 L2559.04 209.375 L2559.04 105.695 L2234.21 105.695  Z
  " fill="#ffffff" fill-rule="evenodd" fill-opacity="1"/>
<polyline clip-path="url(#clip660)" style="stroke:#000000; stroke-linecap:round; stroke-linejoin:round; stroke-width:4; stroke-opacity:1; fill:none" points="
  2234.21,209.375 2559.04,209.375 2559.04,105.695 2234.21,105.695 2234.21,209.375 
  "/>
<polyline clip-path="url(#clip660)" style="stroke:#009af9; stroke-linecap:round; stroke-linejoin:round; stroke-width:4; stroke-opacity:1; fill:none" points="
  2261.45,157.535 2424.89,157.535 
  "/>
<path clip-path="url(#clip660)" d="M2465.97 177.223 Q2464.16 181.852 2462.45 183.264 Q2460.74 184.676 2457.87 184.676 L2454.46 184.676 L2454.46 181.112 L2456.96 181.112 Q2458.72 181.112 2459.69 180.278 Q2460.67 179.445 2461.85 176.343 L2462.61 174.399 L2452.13 148.889 L2456.64 148.889 L2464.74 169.167 L2472.84 148.889 L2477.36 148.889 L2465.97 177.223 Z" fill="#000000" fill-rule="evenodd" fill-opacity="1" /><path clip-path="url(#clip660)" d="M2484.65 170.88 L2492.29 170.88 L2492.29 144.515 L2483.98 146.181 L2483.98 141.922 L2492.24 140.255 L2496.92 140.255 L2496.92 170.88 L2504.56 170.88 L2504.56 174.815 L2484.65 174.815 L2484.65 170.88 Z" fill="#000000" fill-rule="evenodd" fill-opacity="1" /></svg>
