<?xml version="1.0" encoding="utf-8"?>
<svg xmlns="http://www.w3.org/2000/svg" xmlns:xlink="http://www.w3.org/1999/xlink" width="672" height="480" viewBox="0 0 2688 1920">
<defs>
  <clipPath id="clip330">
    <rect x="0" y="0" width="2688" height="1920"/>
  </clipPath>
</defs>
<path clip-path="url(#clip330)" d="
M0 1920 L2688 1920 L2688 0 L0 0  Z
  " fill="#ffffff" fill-rule="evenodd" fill-opacity="1"/>
<defs>
  <clipPath id="clip331">
    <rect x="537" y="0" width="1883" height="1883"/>
  </clipPath>
</defs>
<path clip-path="url(#clip330)" d="
M142.326 1800.78 L2640.76 1800.78 L2640.76 47.2441 L142.326 47.2441  Z
  " fill="#ffffff" fill-rule="evenodd" fill-opacity="1"/>
<defs>
  <clipPath id="clip332">
    <rect x="142" y="47" width="2499" height="1755"/>
  </clipPath>
</defs>
<polyline clip-path="url(#clip332)" style="stroke:#000000; stroke-linecap:butt; stroke-linejoin:round; stroke-width:2; stroke-opacity:0.1; fill:none" points="
  329.431,1800.78 329.431,47.2441 
  "/>
<polyline clip-path="url(#clip332)" style="stroke:#000000; stroke-linecap:butt; stroke-linejoin:round; stroke-width:2; stroke-opacity:0.1; fill:none" points="
  911.409,1800.78 911.409,47.2441 
  "/>
<polyline clip-path="url(#clip332)" style="stroke:#000000; stroke-linecap:butt; stroke-linejoin:round; stroke-width:2; stroke-opacity:0.1; fill:none" points="
  1493.39,1800.78 1493.39,47.2441 
  "/>
<polyline clip-path="url(#clip332)" style="stroke:#000000; stroke-linecap:butt; stroke-linejoin:round; stroke-width:2; stroke-opacity:0.1; fill:none" points="
  2075.36,1800.78 2075.36,47.2441 
  "/>
<polyline clip-path="url(#clip330)" style="stroke:#000000; stroke-linecap:butt; stroke-linejoin:round; stroke-width:4; stroke-opacity:1; fill:none" points="
  142.326,1800.78 2640.76,1800.78 
  "/>
<polyline clip-path="url(#clip330)" style="stroke:#000000; stroke-linecap:butt; stroke-linejoin:round; stroke-width:4; stroke-opacity:1; fill:none" points="
  329.431,1800.78 329.431,1781.88 
  "/>
<polyline clip-path="url(#clip330)" style="stroke:#000000; stroke-linecap:butt; stroke-linejoin:round; stroke-width:4; stroke-opacity:1; fill:none" points="
  911.409,1800.78 911.409,1781.88 
  "/>
<polyline clip-path="url(#clip330)" style="stroke:#000000; stroke-linecap:butt; stroke-linejoin:round; stroke-width:4; stroke-opacity:1; fill:none" points="
  1493.39,1800.78 1493.39,1781.88 
  "/>
<polyline clip-path="url(#clip330)" style="stroke:#000000; stroke-linecap:butt; stroke-linejoin:round; stroke-width:4; stroke-opacity:1; fill:none" points="
  2075.36,1800.78 2075.36,1781.88 
  "/>
<path clip-path="url(#clip330)" d="M329.431 1834 Q325.82 1834 323.992 1837.57 Q322.186 1841.11 322.186 1848.24 Q322.186 1855.34 323.992 1858.91 Q325.82 1862.45 329.431 1862.45 Q333.066 1862.45 334.871 1858.91 Q336.7 1855.34 336.7 1848.24 Q336.7 1841.11 334.871 1837.57 Q333.066 1834 329.431 1834 M329.431 1830.3 Q335.242 1830.3 338.297 1834.9 Q341.376 1839.49 341.376 1848.24 Q341.376 1856.96 338.297 1861.57 Q335.242 1866.15 329.431 1866.15 Q323.621 1866.15 320.543 1861.57 Q317.487 1856.96 317.487 1848.24 Q317.487 1839.49 320.543 1834.9 Q323.621 1830.3 329.431 1830.3 Z" fill="#000000" fill-rule="evenodd" fill-opacity="1" /><path clip-path="url(#clip330)" d="M871.016 1861.55 L878.655 1861.55 L878.655 1835.18 L870.345 1836.85 L870.345 1832.59 L878.608 1830.92 L883.284 1830.92 L883.284 1861.55 L890.923 1861.55 L890.923 1865.48 L871.016 1865.48 L871.016 1861.55 Z" fill="#000000" fill-rule="evenodd" fill-opacity="1" /><path clip-path="url(#clip330)" d="M910.367 1834 Q906.756 1834 904.928 1837.57 Q903.122 1841.11 903.122 1848.24 Q903.122 1855.34 904.928 1858.91 Q906.756 1862.45 910.367 1862.45 Q914.002 1862.45 915.807 1858.91 Q917.636 1855.34 917.636 1848.24 Q917.636 1841.11 915.807 1837.57 Q914.002 1834 910.367 1834 M910.367 1830.3 Q916.178 1830.3 919.233 1834.9 Q922.312 1839.49 922.312 1848.24 Q922.312 1856.96 919.233 1861.57 Q916.178 1866.15 910.367 1866.15 Q904.557 1866.15 901.479 1861.57 Q898.423 1856.96 898.423 1848.24 Q898.423 1839.49 901.479 1834.9 Q904.557 1830.3 910.367 1830.3 Z" fill="#000000" fill-rule="evenodd" fill-opacity="1" /><path clip-path="url(#clip330)" d="M940.529 1834 Q936.918 1834 935.09 1837.57 Q933.284 1841.11 933.284 1848.24 Q933.284 1855.34 935.09 1858.91 Q936.918 1862.45 940.529 1862.45 Q944.164 1862.45 945.969 1858.91 Q947.798 1855.34 947.798 1848.24 Q947.798 1841.11 945.969 1837.57 Q944.164 1834 940.529 1834 M940.529 1830.3 Q946.339 1830.3 949.395 1834.9 Q952.474 1839.49 952.474 1848.24 Q952.474 1856.96 949.395 1861.57 Q946.339 1866.15 940.529 1866.15 Q934.719 1866.15 931.64 1861.57 Q928.585 1856.96 928.585 1848.24 Q928.585 1839.49 931.64 1834.9 Q934.719 1830.3 940.529 1830.3 Z" fill="#000000" fill-rule="evenodd" fill-opacity="1" /><path clip-path="url(#clip330)" d="M1457.08 1861.55 L1473.4 1861.55 L1473.4 1865.48 L1451.45 1865.48 L1451.45 1861.55 Q1454.12 1858.79 1458.7 1854.16 Q1463.31 1849.51 1464.49 1848.17 Q1466.73 1845.65 1467.61 1843.91 Q1468.51 1842.15 1468.51 1840.46 Q1468.51 1837.71 1466.57 1835.97 Q1464.65 1834.23 1461.55 1834.23 Q1459.35 1834.23 1456.89 1835 Q1454.46 1835.76 1451.69 1837.31 L1451.69 1832.59 Q1454.51 1831.46 1456.96 1830.88 Q1459.42 1830.3 1461.45 1830.3 Q1466.82 1830.3 1470.02 1832.98 Q1473.21 1835.67 1473.21 1840.16 Q1473.21 1842.29 1472.4 1844.21 Q1471.62 1846.11 1469.51 1848.7 Q1468.93 1849.37 1465.83 1852.59 Q1462.73 1855.78 1457.08 1861.55 Z" fill="#000000" fill-rule="evenodd" fill-opacity="1" /><path clip-path="url(#clip330)" d="M1493.21 1834 Q1489.6 1834 1487.77 1837.57 Q1485.97 1841.11 1485.97 1848.24 Q1485.97 1855.34 1487.77 1858.91 Q1489.6 1862.45 1493.21 1862.45 Q1496.85 1862.45 1498.65 1858.91 Q1500.48 1855.34 1500.48 1848.24 Q1500.48 1841.11 1498.65 1837.57 Q1496.85 1834 1493.21 1834 M1493.21 1830.3 Q1499.02 1830.3 1502.08 1834.9 Q1505.16 1839.49 1505.16 1848.24 Q1505.16 1856.96 1502.08 1861.57 Q1499.02 1866.15 1493.21 1866.15 Q1487.4 1866.15 1484.32 1861.57 Q1481.27 1856.96 1481.27 1848.24 Q1481.27 1839.49 1484.32 1834.9 Q1487.4 1830.3 1493.21 1830.3 Z" fill="#000000" fill-rule="evenodd" fill-opacity="1" /><path clip-path="url(#clip330)" d="M1523.38 1834 Q1519.76 1834 1517.94 1837.57 Q1516.13 1841.11 1516.13 1848.24 Q1516.13 1855.34 1517.94 1858.91 Q1519.76 1862.45 1523.38 1862.45 Q1527.01 1862.45 1528.81 1858.91 Q1530.64 1855.34 1530.64 1848.24 Q1530.64 1841.11 1528.81 1837.57 Q1527.01 1834 1523.38 1834 M1523.38 1830.3 Q1529.19 1830.3 1532.24 1834.9 Q1535.32 1839.49 1535.32 1848.24 Q1535.32 1856.96 1532.24 1861.57 Q1529.19 1866.15 1523.38 1866.15 Q1517.56 1866.15 1514.49 1861.57 Q1511.43 1856.96 1511.43 1848.24 Q1511.43 1839.49 1514.49 1834.9 Q1517.56 1830.3 1523.38 1830.3 Z" fill="#000000" fill-rule="evenodd" fill-opacity="1" /><path clip-path="url(#clip330)" d="M2049.13 1846.85 Q2052.48 1847.57 2054.36 1849.84 Q2056.26 1852.1 2056.26 1855.44 Q2056.26 1860.55 2052.74 1863.35 Q2049.22 1866.15 2042.74 1866.15 Q2040.56 1866.15 2038.25 1865.71 Q2035.96 1865.3 2033.5 1864.44 L2033.5 1859.93 Q2035.45 1861.06 2037.76 1861.64 Q2040.08 1862.22 2042.6 1862.22 Q2047 1862.22 2049.29 1860.48 Q2051.6 1858.75 2051.6 1855.44 Q2051.6 1852.38 2049.45 1850.67 Q2047.32 1848.93 2043.5 1848.93 L2039.47 1848.93 L2039.47 1845.09 L2043.69 1845.09 Q2047.14 1845.09 2048.96 1843.72 Q2050.79 1842.34 2050.79 1839.74 Q2050.79 1837.08 2048.89 1835.67 Q2047.02 1834.23 2043.5 1834.23 Q2041.58 1834.23 2039.38 1834.65 Q2037.18 1835.07 2034.54 1835.95 L2034.54 1831.78 Q2037.21 1831.04 2039.52 1830.67 Q2041.86 1830.3 2043.92 1830.3 Q2049.24 1830.3 2052.34 1832.73 Q2055.45 1835.14 2055.45 1839.26 Q2055.45 1842.13 2053.8 1844.12 Q2052.16 1846.09 2049.13 1846.85 Z" fill="#000000" fill-rule="evenodd" fill-opacity="1" /><path clip-path="url(#clip330)" d="M2075.12 1834 Q2071.51 1834 2069.68 1837.57 Q2067.88 1841.11 2067.88 1848.24 Q2067.88 1855.34 2069.68 1858.91 Q2071.51 1862.45 2075.12 1862.45 Q2078.76 1862.45 2080.56 1858.91 Q2082.39 1855.34 2082.39 1848.24 Q2082.39 1841.11 2080.56 1837.57 Q2078.76 1834 2075.12 1834 M2075.12 1830.3 Q2080.93 1830.3 2083.99 1834.9 Q2087.07 1839.49 2087.07 1848.24 Q2087.07 1856.96 2083.99 1861.57 Q2080.93 1866.15 2075.12 1866.15 Q2069.31 1866.15 2066.23 1861.57 Q2063.18 1856.96 2063.18 1848.24 Q2063.18 1839.49 2066.23 1834.9 Q2069.31 1830.3 2075.12 1830.3 Z" fill="#000000" fill-rule="evenodd" fill-opacity="1" /><path clip-path="url(#clip330)" d="M2105.28 1834 Q2101.67 1834 2099.84 1837.57 Q2098.04 1841.11 2098.04 1848.24 Q2098.04 1855.34 2099.84 1858.91 Q2101.67 1862.45 2105.28 1862.45 Q2108.92 1862.45 2110.72 1858.91 Q2112.55 1855.34 2112.55 1848.24 Q2112.55 1841.11 2110.72 1837.57 Q2108.92 1834 2105.28 1834 M2105.28 1830.3 Q2111.09 1830.3 2114.15 1834.9 Q2117.23 1839.49 2117.23 1848.24 Q2117.23 1856.96 2114.15 1861.57 Q2111.09 1866.15 2105.28 1866.15 Q2099.47 1866.15 2096.39 1861.57 Q2093.34 1856.96 2093.34 1848.24 Q2093.34 1839.49 2096.39 1834.9 Q2099.47 1830.3 2105.28 1830.3 Z" fill="#000000" fill-rule="evenodd" fill-opacity="1" /><polyline clip-path="url(#clip332)" style="stroke:#000000; stroke-linecap:butt; stroke-linejoin:round; stroke-width:2; stroke-opacity:0.1; fill:none" points="
  142.326,1784.54 2640.76,1784.54 
  "/>
<polyline clip-path="url(#clip332)" style="stroke:#000000; stroke-linecap:butt; stroke-linejoin:round; stroke-width:2; stroke-opacity:0.1; fill:none" points="
  142.326,1497.66 2640.76,1497.66 
  "/>
<polyline clip-path="url(#clip332)" style="stroke:#000000; stroke-linecap:butt; stroke-linejoin:round; stroke-width:2; stroke-opacity:0.1; fill:none" points="
  142.326,1210.78 2640.76,1210.78 
  "/>
<polyline clip-path="url(#clip332)" style="stroke:#000000; stroke-linecap:butt; stroke-linejoin:round; stroke-width:2; stroke-opacity:0.1; fill:none" points="
  142.326,923.897 2640.76,923.897 
  "/>
<polyline clip-path="url(#clip332)" style="stroke:#000000; stroke-linecap:butt; stroke-linejoin:round; stroke-width:2; stroke-opacity:0.1; fill:none" points="
  142.326,637.016 2640.76,637.016 
  "/>
<polyline clip-path="url(#clip332)" style="stroke:#000000; stroke-linecap:butt; stroke-linejoin:round; stroke-width:2; stroke-opacity:0.1; fill:none" points="
  142.326,350.135 2640.76,350.135 
  "/>
<polyline clip-path="url(#clip332)" style="stroke:#000000; stroke-linecap:butt; stroke-linejoin:round; stroke-width:2; stroke-opacity:0.1; fill:none" points="
  142.326,63.254 2640.76,63.254 
  "/>
<polyline clip-path="url(#clip330)" style="stroke:#000000; stroke-linecap:butt; stroke-linejoin:round; stroke-width:4; stroke-opacity:1; fill:none" points="
  142.326,1800.78 142.326,47.2441 
  "/>
<polyline clip-path="url(#clip330)" style="stroke:#000000; stroke-linecap:butt; stroke-linejoin:round; stroke-width:4; stroke-opacity:1; fill:none" points="
  142.326,1784.54 161.223,1784.54 
  "/>
<polyline clip-path="url(#clip330)" style="stroke:#000000; stroke-linecap:butt; stroke-linejoin:round; stroke-width:4; stroke-opacity:1; fill:none" points="
  142.326,1497.66 161.223,1497.66 
  "/>
<polyline clip-path="url(#clip330)" style="stroke:#000000; stroke-linecap:butt; stroke-linejoin:round; stroke-width:4; stroke-opacity:1; fill:none" points="
  142.326,1210.78 161.223,1210.78 
  "/>
<polyline clip-path="url(#clip330)" style="stroke:#000000; stroke-linecap:butt; stroke-linejoin:round; stroke-width:4; stroke-opacity:1; fill:none" points="
  142.326,923.897 161.223,923.897 
  "/>
<polyline clip-path="url(#clip330)" style="stroke:#000000; stroke-linecap:butt; stroke-linejoin:round; stroke-width:4; stroke-opacity:1; fill:none" points="
  142.326,637.016 161.223,637.016 
  "/>
<polyline clip-path="url(#clip330)" style="stroke:#000000; stroke-linecap:butt; stroke-linejoin:round; stroke-width:4; stroke-opacity:1; fill:none" points="
  142.326,350.135 161.223,350.135 
  "/>
<polyline clip-path="url(#clip330)" style="stroke:#000000; stroke-linecap:butt; stroke-linejoin:round; stroke-width:4; stroke-opacity:1; fill:none" points="
  142.326,63.254 161.223,63.254 
  "/>
<path clip-path="url(#clip330)" d="M80.3853 1801.1 L80.3853 1796.84 Q82.1445 1797.68 83.9501 1798.12 Q85.7556 1798.56 87.4917 1798.56 Q92.1213 1798.56 94.5519 1795.46 Q97.0056 1792.33 97.3528 1785.99 Q96.0102 1787.98 93.95 1789.04 Q91.8899 1790.11 89.3899 1790.11 Q84.2047 1790.11 81.1723 1786.98 Q78.1631 1783.83 78.1631 1778.39 Q78.1631 1773.07 81.3112 1769.85 Q84.4593 1766.64 89.6908 1766.64 Q95.6861 1766.64 98.8343 1771.24 Q102.006 1775.83 102.006 1784.58 Q102.006 1792.75 98.1167 1797.63 Q94.251 1802.49 87.7001 1802.49 Q85.9408 1802.49 84.1353 1802.14 Q82.3297 1801.8 80.3853 1801.1 M89.6908 1786.45 Q92.8389 1786.45 94.6676 1784.3 Q96.5195 1782.14 96.5195 1778.39 Q96.5195 1774.67 94.6676 1772.52 Q92.8389 1770.34 89.6908 1770.34 Q86.5427 1770.34 84.6908 1772.52 Q82.8621 1774.67 82.8621 1778.39 Q82.8621 1782.14 84.6908 1784.3 Q86.5427 1786.45 89.6908 1786.45 Z" fill="#000000" fill-rule="evenodd" fill-opacity="1" /><path clip-path="url(#clip330)" d="M50.7095 1511 L58.3484 1511 L58.3484 1484.64 L50.0382 1486.31 L50.0382 1482.05 L58.3021 1480.38 L62.978 1480.38 L62.978 1511 L70.6168 1511 L70.6168 1514.94 L50.7095 1514.94 L50.7095 1511 Z" fill="#000000" fill-rule="evenodd" fill-opacity="1" /><path clip-path="url(#clip330)" d="M90.0612 1483.46 Q86.4501 1483.46 84.6214 1487.02 Q82.8158 1490.56 82.8158 1497.69 Q82.8158 1504.8 84.6214 1508.37 Q86.4501 1511.91 90.0612 1511.91 Q93.6954 1511.91 95.501 1508.37 Q97.3296 1504.8 97.3296 1497.69 Q97.3296 1490.56 95.501 1487.02 Q93.6954 1483.46 90.0612 1483.46 M90.0612 1479.75 Q95.8713 1479.75 98.9269 1484.36 Q102.006 1488.94 102.006 1497.69 Q102.006 1506.42 98.9269 1511.03 Q95.8713 1515.61 90.0612 1515.61 Q84.251 1515.61 81.1723 1511.03 Q78.1168 1506.42 78.1168 1497.69 Q78.1168 1488.94 81.1723 1484.36 Q84.251 1479.75 90.0612 1479.75 Z" fill="#000000" fill-rule="evenodd" fill-opacity="1" /><path clip-path="url(#clip330)" d="M51.9364 1224.12 L59.5752 1224.12 L59.5752 1197.76 L51.2651 1199.42 L51.2651 1195.17 L59.5289 1193.5 L64.2048 1193.5 L64.2048 1224.12 L71.8437 1224.12 L71.8437 1228.06 L51.9364 1228.06 L51.9364 1224.12 Z" fill="#000000" fill-rule="evenodd" fill-opacity="1" /><path clip-path="url(#clip330)" d="M82.0982 1224.12 L89.7371 1224.12 L89.7371 1197.76 L81.427 1199.42 L81.427 1195.17 L89.6908 1193.5 L94.3667 1193.5 L94.3667 1224.12 L102.006 1224.12 L102.006 1228.06 L82.0982 1228.06 L82.0982 1224.12 Z" fill="#000000" fill-rule="evenodd" fill-opacity="1" /><path clip-path="url(#clip330)" d="M52.3067 937.242 L59.9456 937.242 L59.9456 910.877 L51.6354 912.543 L51.6354 908.284 L59.8993 906.617 L64.5752 906.617 L64.5752 937.242 L72.214 937.242 L72.214 941.177 L52.3067 941.177 L52.3067 937.242 Z" fill="#000000" fill-rule="evenodd" fill-opacity="1" /><path clip-path="url(#clip330)" d="M85.6862 937.242 L102.006 937.242 L102.006 941.177 L80.0612 941.177 L80.0612 937.242 Q82.7232 934.488 87.3066 929.858 Q91.913 925.205 93.0936 923.863 Q95.3389 921.34 96.2185 919.603 Q97.1213 917.844 97.1213 916.154 Q97.1213 913.4 95.1769 911.664 Q93.2556 909.928 90.1538 909.928 Q87.9547 909.928 85.501 910.691 Q83.0705 911.455 80.2927 913.006 L80.2927 908.284 Q83.1168 907.15 85.5705 906.571 Q88.0241 905.992 90.0612 905.992 Q95.4315 905.992 98.6259 908.678 Q101.82 911.363 101.82 915.853 Q101.82 917.983 101.01 919.904 Q100.223 921.802 98.1167 924.395 Q97.538 925.066 94.4361 928.284 Q91.3343 931.478 85.6862 937.242 Z" fill="#000000" fill-rule="evenodd" fill-opacity="1" /><path clip-path="url(#clip330)" d="M51.3577 650.361 L58.9965 650.361 L58.9965 623.995 L50.6864 625.662 L50.6864 621.403 L58.9502 619.736 L63.6261 619.736 L63.6261 650.361 L71.265 650.361 L71.265 654.296 L51.3577 654.296 L51.3577 650.361 Z" fill="#000000" fill-rule="evenodd" fill-opacity="1" /><path clip-path="url(#clip330)" d="M94.876 635.662 Q98.2324 636.38 100.107 638.648 Q102.006 640.917 102.006 644.25 Q102.006 649.366 98.487 652.167 Q94.9685 654.968 88.4871 654.968 Q86.3112 654.968 83.9964 654.528 Q81.7047 654.111 79.251 653.255 L79.251 648.741 Q81.1955 649.875 83.5103 650.454 Q85.8251 651.032 88.3482 651.032 Q92.7463 651.032 95.038 649.296 Q97.3528 647.56 97.3528 644.25 Q97.3528 641.194 95.2 639.482 Q93.0704 637.745 89.251 637.745 L85.2232 637.745 L85.2232 633.903 L89.4362 633.903 Q92.8852 633.903 94.7139 632.537 Q96.5426 631.148 96.5426 628.556 Q96.5426 625.894 94.6445 624.482 Q92.7695 623.046 89.251 623.046 Q87.3297 623.046 85.1306 623.463 Q82.9316 623.88 80.2927 624.759 L80.2927 620.593 Q82.9547 619.852 85.2695 619.482 Q87.6075 619.111 89.6677 619.111 Q94.9917 619.111 98.0935 621.542 Q101.195 623.949 101.195 628.07 Q101.195 630.94 99.5519 632.931 Q97.9083 634.898 94.876 635.662 Z" fill="#000000" fill-rule="evenodd" fill-opacity="1" /><path clip-path="url(#clip330)" d="M50.2234 363.48 L57.8623 363.48 L57.8623 337.114 L49.5521 338.781 L49.5521 334.522 L57.816 332.855 L62.4919 332.855 L62.4919 363.48 L70.1307 363.48 L70.1307 367.415 L50.2234 367.415 L50.2234 363.48 Z" fill="#000000" fill-rule="evenodd" fill-opacity="1" /><path clip-path="url(#clip330)" d="M92.4223 336.929 L80.6168 355.378 L92.4223 355.378 L92.4223 336.929 M91.1954 332.855 L97.075 332.855 L97.075 355.378 L102.006 355.378 L102.006 359.267 L97.075 359.267 L97.075 367.415 L92.4223 367.415 L92.4223 359.267 L76.8205 359.267 L76.8205 354.753 L91.1954 332.855 Z" fill="#000000" fill-rule="evenodd" fill-opacity="1" /><path clip-path="url(#clip330)" d="M51.7049 76.5988 L59.3437 76.5988 L59.3437 50.2332 L51.0336 51.8999 L51.0336 47.6406 L59.2974 45.974 L63.9733 45.974 L63.9733 76.5988 L71.6122 76.5988 L71.6122 80.534 L51.7049 80.534 L51.7049 76.5988 Z" fill="#000000" fill-rule="evenodd" fill-opacity="1" /><path clip-path="url(#clip330)" d="M81.1029 45.974 L99.4593 45.974 L99.4593 49.9091 L85.3853 49.9091 L85.3853 58.3813 Q86.4038 58.0341 87.4223 57.8721 Q88.4408 57.6869 89.4593 57.6869 Q95.2463 57.6869 98.6259 60.8582 Q102.006 64.0294 102.006 69.4461 Q102.006 75.0247 98.5333 78.1266 Q95.0611 81.2053 88.7417 81.2053 Q86.5658 81.2053 84.2973 80.8349 Q82.052 80.4645 79.6446 79.7238 L79.6446 75.0247 Q81.7279 76.159 83.9501 76.7146 Q86.1723 77.2701 88.6491 77.2701 Q92.6537 77.2701 94.9917 75.1636 Q97.3296 73.0572 97.3296 69.4461 Q97.3296 65.835 94.9917 63.7285 Q92.6537 61.622 88.6491 61.622 Q86.7741 61.622 84.8992 62.0387 Q83.0473 62.4554 81.1029 63.335 L81.1029 45.974 Z" fill="#000000" fill-rule="evenodd" fill-opacity="1" /><polyline clip-path="url(#clip332)" style="stroke:#009af9; stroke-linecap:butt; stroke-linejoin:round; stroke-width:4; stroke-opacity:1; fill:none" points="
  213.036,1741.78 216.872,1743.14 220.709,1744.39 224.545,1745.54 228.381,1746.57 246.118,1750 263.854,1751.15 281.59,1750.03 299.327,1746.63 317.063,1740.97 
  334.799,1733.06 352.536,1722.92 370.272,1710.59 391.589,1692.9 412.907,1672.16 434.225,1648.44 455.542,1621.84 473.566,1597.18 491.59,1570.62 509.613,1542.21 
  527.637,1512.04 547.216,1477.39 566.795,1440.87 586.374,1402.63 605.952,1362.78 624.002,1324.73 642.052,1285.54 660.102,1245.32 678.152,1204.19 716.855,1113.45 
  755.558,1020.22 800.399,910.72 845.24,801.448 885.09,706.087 924.939,613.748 959.884,536.275 994.828,462.939 1013.88,424.986 1032.93,388.616 1051.98,353.945 
  1071.03,321.084 1090.19,289.957 1109.35,260.867 1128.51,233.906 1147.68,209.161 1168.86,184.478 1190.05,162.698 1211.24,143.906 1232.42,128.176 1252.58,116.11 
  1272.74,106.914 1292.9,100.622 1313.06,97.2563 1334.02,96.8724 1354.98,99.6665 1375.94,105.628 1396.9,114.733 1414.54,124.81 1432.19,137.063 1449.83,151.458 
  1467.48,167.957 1489.02,190.886 1510.56,216.79 1532.1,245.564 1553.64,277.091 1573.37,308.279 1593.11,341.563 1612.84,376.831 1632.57,413.962 1650.8,449.801 
  1669.03,487.018 1687.25,525.504 1705.48,565.147 1742.4,648.534 1779.32,735.201 1862.08,936.034 1937.08,1117.72 1958.54,1168.36 1980.01,1218.01 2001.48,1266.48 
  2022.94,1313.57 2042.82,1355.77 2062.69,1396.48 2082.57,1435.56 2102.44,1472.87 2122.04,1507.8 2141.64,1540.76 2161.23,1571.66 2180.83,1600.38 2199.85,1626.09 
  2218.88,1649.57 2237.9,1670.76 2256.93,1689.59 2276.43,1706.37 2295.93,1720.55 2315.44,1732.08 2334.94,1740.92 2356.31,1747.48 2377.67,1750.75 2399.04,1750.72 
  2420.41,1747.39 2435.93,1742.91 2451.45,1736.7 2466.97,1728.78 2482.49,1719.17 2498.01,1707.88 2513.53,1694.93 2529.05,1680.36 2544.57,1664.2 2550.94,1657.12 
  2557.31,1649.77 2563.68,1642.17 2570.05,1634.31 
  "/>
<path clip-path="url(#clip330)" d="
M2227.44 209.375 L2557.47 209.375 L2557.47 105.695 L2227.44 105.695  Z
  " fill="#ffffff" fill-rule="evenodd" fill-opacity="1"/>
<polyline clip-path="url(#clip330)" style="stroke:#000000; stroke-linecap:butt; stroke-linejoin:round; stroke-width:4; stroke-opacity:1; fill:none" points="
  2227.44,209.375 2557.47,209.375 2557.47,105.695 2227.44,105.695 2227.44,209.375 
  "/>
<polyline clip-path="url(#clip330)" style="stroke:#009af9; stroke-linecap:butt; stroke-linejoin:round; stroke-width:4; stroke-opacity:1; fill:none" points="
  2255.2,157.535 2421.76,157.535 
  "/>
<path clip-path="url(#clip330)" d="M2463.37 177.223 Q2461.56 181.852 2459.85 183.264 Q2458.14 184.676 2455.26 184.676 L2451.86 184.676 L2451.86 181.112 L2454.36 181.112 Q2456.12 181.112 2457.09 180.278 Q2458.07 179.445 2459.25 176.343 L2460.01 174.399 L2449.52 148.889 L2454.04 148.889 L2462.14 169.167 L2470.24 148.889 L2474.76 148.889 L2463.37 177.223 Z" fill="#000000" fill-rule="evenodd" fill-opacity="1" /><path clip-path="url(#clip330)" d="M2482.05 170.88 L2489.69 170.88 L2489.69 144.515 L2481.38 146.181 L2481.38 141.922 L2489.64 140.255 L2494.32 140.255 L2494.32 170.88 L2501.95 170.88 L2501.95 174.815 L2482.05 174.815 L2482.05 170.88 Z" fill="#000000" fill-rule="evenodd" fill-opacity="1" /></svg>
