<?xml version="1.0" encoding="utf-8"?>
<svg xmlns="http://www.w3.org/2000/svg" xmlns:xlink="http://www.w3.org/1999/xlink" width="672" height="480" viewBox="0 0 2688 1920">
<defs>
  <clipPath id="clip740">
    <rect x="0" y="0" width="2688" height="1920"/>
  </clipPath>
</defs>
<path clip-path="url(#clip740)" d="
M0 1920 L2688 1920 L2688 0 L0 0  Z
  " fill="#ffffff" fill-rule="evenodd" fill-opacity="1"/>
<defs>
  <clipPath id="clip741">
    <rect x="537" y="0" width="1883" height="1883"/>
  </clipPath>
</defs>
<path clip-path="url(#clip740)" d="
M189.154 1800.78 L2640.76 1800.78 L2640.76 47.2441 L189.154 47.2441  Z
  " fill="#ffffff" fill-rule="evenodd" fill-opacity="1"/>
<defs>
  <clipPath id="clip742">
    <rect x="189" y="47" width="2453" height="1755"/>
  </clipPath>
</defs>
<polyline clip-path="url(#clip742)" style="stroke:#000000; stroke-linecap:round; stroke-linejoin:round; stroke-width:2; stroke-opacity:0.1; fill:none" points="
  258.539,1800.78 258.539,47.2441 
  "/>
<polyline clip-path="url(#clip742)" style="stroke:#000000; stroke-linecap:round; stroke-linejoin:round; stroke-width:2; stroke-opacity:0.1; fill:none" points="
  644.011,1800.78 644.011,47.2441 
  "/>
<polyline clip-path="url(#clip742)" style="stroke:#000000; stroke-linecap:round; stroke-linejoin:round; stroke-width:2; stroke-opacity:0.1; fill:none" points="
  1029.48,1800.78 1029.48,47.2441 
  "/>
<polyline clip-path="url(#clip742)" style="stroke:#000000; stroke-linecap:round; stroke-linejoin:round; stroke-width:2; stroke-opacity:0.1; fill:none" points="
  1414.95,1800.78 1414.95,47.2441 
  "/>
<polyline clip-path="url(#clip742)" style="stroke:#000000; stroke-linecap:round; stroke-linejoin:round; stroke-width:2; stroke-opacity:0.1; fill:none" points="
  1800.43,1800.78 1800.43,47.2441 
  "/>
<polyline clip-path="url(#clip742)" style="stroke:#000000; stroke-linecap:round; stroke-linejoin:round; stroke-width:2; stroke-opacity:0.1; fill:none" points="
  2185.9,1800.78 2185.9,47.2441 
  "/>
<polyline clip-path="url(#clip742)" style="stroke:#000000; stroke-linecap:round; stroke-linejoin:round; stroke-width:2; stroke-opacity:0.1; fill:none" points="
  2571.37,1800.78 2571.37,47.2441 
  "/>
<polyline clip-path="url(#clip740)" style="stroke:#000000; stroke-linecap:round; stroke-linejoin:round; stroke-width:4; stroke-opacity:1; fill:none" points="
  189.154,1800.78 2640.76,1800.78 
  "/>
<polyline clip-path="url(#clip740)" style="stroke:#000000; stroke-linecap:round; stroke-linejoin:round; stroke-width:4; stroke-opacity:1; fill:none" points="
  258.539,1800.78 258.539,1781.88 
  "/>
<polyline clip-path="url(#clip740)" style="stroke:#000000; stroke-linecap:round; stroke-linejoin:round; stroke-width:4; stroke-opacity:1; fill:none" points="
  644.011,1800.78 644.011,1781.88 
  "/>
<polyline clip-path="url(#clip740)" style="stroke:#000000; stroke-linecap:round; stroke-linejoin:round; stroke-width:4; stroke-opacity:1; fill:none" points="
  1029.48,1800.78 1029.48,1781.88 
  "/>
<polyline clip-path="url(#clip740)" style="stroke:#000000; stroke-linecap:round; stroke-linejoin:round; stroke-width:4; stroke-opacity:1; fill:none" points="
  1414.95,1800.78 1414.95,1781.88 
  "/>
<polyline clip-path="url(#clip740)" style="stroke:#000000; stroke-linecap:round; stroke-linejoin:round; stroke-width:4; stroke-opacity:1; fill:none" points="
  1800.43,1800.78 1800.43,1781.88 
  "/>
<polyline clip-path="url(#clip740)" style="stroke:#000000; stroke-linecap:round; stroke-linejoin:round; stroke-width:4; stroke-opacity:1; fill:none" points="
  2185.9,1800.78 2185.9,1781.88 
  "/>
<polyline clip-path="url(#clip740)" style="stroke:#000000; stroke-linecap:round; stroke-linejoin:round; stroke-width:4; stroke-opacity:1; fill:none" points="
  2571.37,1800.78 2571.37,1781.88 
  "/>
<path clip-path="url(#clip740)" d="M228.481 1848.65 L258.157 1848.65 L258.157 1852.59 L228.481 1852.59 L228.481 1848.65 Z" fill="#000000" fill-rule="evenodd" fill-opacity="1" /><path clip-path="url(#clip740)" d="M272.277 1861.55 L288.597 1861.55 L288.597 1865.48 L266.652 1865.48 L266.652 1861.55 Q269.314 1858.79 273.898 1854.16 Q278.504 1849.51 279.685 1848.17 Q281.93 1845.65 282.81 1843.91 Q283.712 1842.15 283.712 1840.46 Q283.712 1837.71 281.768 1835.97 Q279.847 1834.23 276.745 1834.23 Q274.546 1834.23 272.092 1835 Q269.662 1835.76 266.884 1837.31 L266.884 1832.59 Q269.708 1831.46 272.162 1830.88 Q274.615 1830.3 276.652 1830.3 Q282.023 1830.3 285.217 1832.98 Q288.411 1835.67 288.411 1840.16 Q288.411 1842.29 287.601 1844.21 Q286.814 1846.11 284.708 1848.7 Q284.129 1849.37 281.027 1852.59 Q277.925 1855.78 272.277 1861.55 Z" fill="#000000" fill-rule="evenodd" fill-opacity="1" /><path clip-path="url(#clip740)" d="M613.768 1848.65 L643.444 1848.65 L643.444 1852.59 L613.768 1852.59 L613.768 1848.65 Z" fill="#000000" fill-rule="evenodd" fill-opacity="1" /><path clip-path="url(#clip740)" d="M654.347 1861.55 L661.985 1861.55 L661.985 1835.18 L653.675 1836.85 L653.675 1832.59 L661.939 1830.92 L666.615 1830.92 L666.615 1861.55 L674.254 1861.55 L674.254 1865.48 L654.347 1865.48 L654.347 1861.55 Z" fill="#000000" fill-rule="evenodd" fill-opacity="1" /><path clip-path="url(#clip740)" d="M1029.48 1834 Q1025.87 1834 1024.04 1837.57 Q1022.24 1841.11 1022.24 1848.24 Q1022.24 1855.34 1024.04 1858.91 Q1025.87 1862.45 1029.48 1862.45 Q1033.12 1862.45 1034.92 1858.91 Q1036.75 1855.34 1036.75 1848.24 Q1036.75 1841.11 1034.92 1837.57 Q1033.12 1834 1029.48 1834 M1029.48 1830.3 Q1035.29 1830.3 1038.35 1834.9 Q1041.43 1839.49 1041.43 1848.24 Q1041.43 1856.96 1038.35 1861.57 Q1035.29 1866.15 1029.48 1866.15 Q1023.67 1866.15 1020.59 1861.57 Q1017.54 1856.96 1017.54 1848.24 Q1017.54 1839.49 1020.59 1834.9 Q1023.67 1830.3 1029.48 1830.3 Z" fill="#000000" fill-rule="evenodd" fill-opacity="1" /><path clip-path="url(#clip740)" d="M1405.34 1861.55 L1412.98 1861.55 L1412.98 1835.18 L1404.67 1836.85 L1404.67 1832.59 L1412.93 1830.92 L1417.61 1830.92 L1417.61 1861.55 L1425.24 1861.55 L1425.24 1865.48 L1405.34 1865.48 L1405.34 1861.55 Z" fill="#000000" fill-rule="evenodd" fill-opacity="1" /><path clip-path="url(#clip740)" d="M1795.08 1861.55 L1811.4 1861.55 L1811.4 1865.48 L1789.45 1865.48 L1789.45 1861.55 Q1792.12 1858.79 1796.7 1854.16 Q1801.31 1849.51 1802.49 1848.17 Q1804.73 1845.65 1805.61 1843.91 Q1806.51 1842.15 1806.51 1840.46 Q1806.51 1837.71 1804.57 1835.97 Q1802.65 1834.23 1799.55 1834.23 Q1797.35 1834.23 1794.89 1835 Q1792.46 1835.76 1789.69 1837.31 L1789.69 1832.59 Q1792.51 1831.46 1794.96 1830.88 Q1797.42 1830.3 1799.45 1830.3 Q1804.83 1830.3 1808.02 1832.98 Q1811.21 1835.67 1811.21 1840.16 Q1811.21 1842.29 1810.4 1844.21 Q1809.62 1846.11 1807.51 1848.7 Q1806.93 1849.37 1803.83 1852.59 Q1800.73 1855.78 1795.08 1861.55 Z" fill="#000000" fill-rule="evenodd" fill-opacity="1" /><path clip-path="url(#clip740)" d="M2190.15 1846.85 Q2193.5 1847.57 2195.38 1849.84 Q2197.28 1852.1 2197.28 1855.44 Q2197.28 1860.55 2193.76 1863.35 Q2190.24 1866.15 2183.76 1866.15 Q2181.58 1866.15 2179.27 1865.71 Q2176.98 1865.3 2174.52 1864.44 L2174.52 1859.93 Q2176.47 1861.06 2178.78 1861.64 Q2181.1 1862.22 2183.62 1862.22 Q2188.02 1862.22 2190.31 1860.48 Q2192.62 1858.75 2192.62 1855.44 Q2192.62 1852.38 2190.47 1850.67 Q2188.34 1848.93 2184.52 1848.93 L2180.49 1848.93 L2180.49 1845.09 L2184.71 1845.09 Q2188.16 1845.09 2189.98 1843.72 Q2191.81 1842.34 2191.81 1839.74 Q2191.81 1837.08 2189.92 1835.67 Q2188.04 1834.23 2184.52 1834.23 Q2182.6 1834.23 2180.4 1834.65 Q2178.2 1835.07 2175.56 1835.95 L2175.56 1831.78 Q2178.23 1831.04 2180.54 1830.67 Q2182.88 1830.3 2184.94 1830.3 Q2190.26 1830.3 2193.36 1832.73 Q2196.47 1835.14 2196.47 1839.26 Q2196.47 1842.13 2194.82 1844.12 Q2193.18 1846.09 2190.15 1846.85 Z" fill="#000000" fill-rule="evenodd" fill-opacity="1" /><path clip-path="url(#clip740)" d="M2574.38 1835 L2562.57 1853.45 L2574.38 1853.45 L2574.38 1835 M2573.15 1830.92 L2579.03 1830.92 L2579.03 1853.45 L2583.96 1853.45 L2583.96 1857.34 L2579.03 1857.34 L2579.03 1865.48 L2574.38 1865.48 L2574.38 1857.34 L2558.78 1857.34 L2558.78 1852.82 L2573.15 1830.92 Z" fill="#000000" fill-rule="evenodd" fill-opacity="1" /><polyline clip-path="url(#clip742)" style="stroke:#000000; stroke-linecap:round; stroke-linejoin:round; stroke-width:2; stroke-opacity:0.1; fill:none" points="
  189.154,1751.15 2640.76,1751.15 
  "/>
<polyline clip-path="url(#clip742)" style="stroke:#000000; stroke-linecap:round; stroke-linejoin:round; stroke-width:2; stroke-opacity:0.1; fill:none" points="
  189.154,1337.46 2640.76,1337.46 
  "/>
<polyline clip-path="url(#clip742)" style="stroke:#000000; stroke-linecap:round; stroke-linejoin:round; stroke-width:2; stroke-opacity:0.1; fill:none" points="
  189.154,923.761 2640.76,923.761 
  "/>
<polyline clip-path="url(#clip742)" style="stroke:#000000; stroke-linecap:round; stroke-linejoin:round; stroke-width:2; stroke-opacity:0.1; fill:none" points="
  189.154,510.066 2640.76,510.066 
  "/>
<polyline clip-path="url(#clip742)" style="stroke:#000000; stroke-linecap:round; stroke-linejoin:round; stroke-width:2; stroke-opacity:0.1; fill:none" points="
  189.154,96.3715 2640.76,96.3715 
  "/>
<polyline clip-path="url(#clip740)" style="stroke:#000000; stroke-linecap:round; stroke-linejoin:round; stroke-width:4; stroke-opacity:1; fill:none" points="
  189.154,1800.78 189.154,47.2441 
  "/>
<polyline clip-path="url(#clip740)" style="stroke:#000000; stroke-linecap:round; stroke-linejoin:round; stroke-width:4; stroke-opacity:1; fill:none" points="
  189.154,1751.15 208.052,1751.15 
  "/>
<polyline clip-path="url(#clip740)" style="stroke:#000000; stroke-linecap:round; stroke-linejoin:round; stroke-width:4; stroke-opacity:1; fill:none" points="
  189.154,1337.46 208.052,1337.46 
  "/>
<polyline clip-path="url(#clip740)" style="stroke:#000000; stroke-linecap:round; stroke-linejoin:round; stroke-width:4; stroke-opacity:1; fill:none" points="
  189.154,923.761 208.052,923.761 
  "/>
<polyline clip-path="url(#clip740)" style="stroke:#000000; stroke-linecap:round; stroke-linejoin:round; stroke-width:4; stroke-opacity:1; fill:none" points="
  189.154,510.066 208.052,510.066 
  "/>
<polyline clip-path="url(#clip740)" style="stroke:#000000; stroke-linecap:round; stroke-linejoin:round; stroke-width:4; stroke-opacity:1; fill:none" points="
  189.154,96.3715 208.052,96.3715 
  "/>
<path clip-path="url(#clip740)" d="M61.4965 1736.95 Q57.8854 1736.95 56.0567 1740.51 Q54.2512 1744.06 54.2512 1751.19 Q54.2512 1758.29 56.0567 1761.86 Q57.8854 1765.4 61.4965 1765.4 Q65.1307 1765.4 66.9363 1761.86 Q68.765 1758.29 68.765 1751.19 Q68.765 1744.06 66.9363 1740.51 Q65.1307 1736.95 61.4965 1736.95 M61.4965 1733.25 Q67.3067 1733.25 70.3622 1737.85 Q73.4409 1742.44 73.4409 1751.19 Q73.4409 1759.91 70.3622 1764.52 Q67.3067 1769.1 61.4965 1769.1 Q55.6864 1769.1 52.6077 1764.52 Q49.5521 1759.91 49.5521 1751.19 Q49.5521 1742.44 52.6077 1737.85 Q55.6864 1733.25 61.4965 1733.25 Z" fill="#000000" fill-rule="evenodd" fill-opacity="1" /><path clip-path="url(#clip740)" d="M81.6584 1762.55 L86.5427 1762.55 L86.5427 1768.43 L81.6584 1768.43 L81.6584 1762.55 Z" fill="#000000" fill-rule="evenodd" fill-opacity="1" /><path clip-path="url(#clip740)" d="M106.728 1736.95 Q103.117 1736.95 101.288 1740.51 Q99.4824 1744.06 99.4824 1751.19 Q99.4824 1758.29 101.288 1761.86 Q103.117 1765.4 106.728 1765.4 Q110.362 1765.4 112.168 1761.86 Q113.996 1758.29 113.996 1751.19 Q113.996 1744.06 112.168 1740.51 Q110.362 1736.95 106.728 1736.95 M106.728 1733.25 Q112.538 1733.25 115.593 1737.85 Q118.672 1742.44 118.672 1751.19 Q118.672 1759.91 115.593 1764.52 Q112.538 1769.1 106.728 1769.1 Q100.918 1769.1 97.8389 1764.52 Q94.7834 1759.91 94.7834 1751.19 Q94.7834 1742.44 97.8389 1737.85 Q100.918 1733.25 106.728 1733.25 Z" fill="#000000" fill-rule="evenodd" fill-opacity="1" /><path clip-path="url(#clip740)" d="M136.89 1736.95 Q133.279 1736.95 131.45 1740.51 Q129.644 1744.06 129.644 1751.19 Q129.644 1758.29 131.45 1761.86 Q133.279 1765.4 136.89 1765.4 Q140.524 1765.4 142.329 1761.86 Q144.158 1758.29 144.158 1751.19 Q144.158 1744.06 142.329 1740.51 Q140.524 1736.95 136.89 1736.95 M136.89 1733.25 Q142.7 1733.25 145.755 1737.85 Q148.834 1742.44 148.834 1751.19 Q148.834 1759.91 145.755 1764.52 Q142.7 1769.1 136.89 1769.1 Q131.079 1769.1 128.001 1764.52 Q124.945 1759.91 124.945 1751.19 Q124.945 1742.44 128.001 1737.85 Q131.079 1733.25 136.89 1733.25 Z" fill="#000000" fill-rule="evenodd" fill-opacity="1" /><path clip-path="url(#clip740)" d="M62.4919 1323.25 Q58.8808 1323.25 57.0521 1326.82 Q55.2465 1330.36 55.2465 1337.49 Q55.2465 1344.6 57.0521 1348.16 Q58.8808 1351.7 62.4919 1351.7 Q66.1261 1351.7 67.9317 1348.16 Q69.7604 1344.6 69.7604 1337.49 Q69.7604 1330.36 67.9317 1326.82 Q66.1261 1323.25 62.4919 1323.25 M62.4919 1319.55 Q68.302 1319.55 71.3576 1324.16 Q74.4363 1328.74 74.4363 1337.49 Q74.4363 1346.22 71.3576 1350.82 Q68.302 1355.41 62.4919 1355.41 Q56.6817 1355.41 53.603 1350.82 Q50.5475 1346.22 50.5475 1337.49 Q50.5475 1328.74 53.603 1324.16 Q56.6817 1319.55 62.4919 1319.55 Z" fill="#000000" fill-rule="evenodd" fill-opacity="1" /><path clip-path="url(#clip740)" d="M82.6538 1348.86 L87.538 1348.86 L87.538 1354.74 L82.6538 1354.74 L82.6538 1348.86 Z" fill="#000000" fill-rule="evenodd" fill-opacity="1" /><path clip-path="url(#clip740)" d="M101.751 1350.8 L118.07 1350.8 L118.07 1354.74 L96.126 1354.74 L96.126 1350.8 Q98.788 1348.05 103.371 1343.42 Q107.978 1338.76 109.158 1337.42 Q111.404 1334.9 112.283 1333.16 Q113.186 1331.4 113.186 1329.71 Q113.186 1326.96 111.242 1325.22 Q109.32 1323.49 106.218 1323.49 Q104.019 1323.49 101.566 1324.25 Q99.1352 1325.01 96.3574 1326.56 L96.3574 1321.84 Q99.1815 1320.71 101.635 1320.13 Q104.089 1319.55 106.126 1319.55 Q111.496 1319.55 114.691 1322.24 Q117.885 1324.92 117.885 1329.41 Q117.885 1331.54 117.075 1333.46 Q116.288 1335.36 114.181 1337.95 Q113.603 1338.63 110.501 1341.84 Q107.399 1345.04 101.751 1350.8 Z" fill="#000000" fill-rule="evenodd" fill-opacity="1" /><path clip-path="url(#clip740)" d="M127.931 1320.18 L146.288 1320.18 L146.288 1324.11 L132.214 1324.11 L132.214 1332.58 Q133.232 1332.24 134.251 1332.07 Q135.269 1331.89 136.288 1331.89 Q142.075 1331.89 145.454 1335.06 Q148.834 1338.23 148.834 1343.65 Q148.834 1349.23 145.362 1352.33 Q141.89 1355.41 135.57 1355.41 Q133.394 1355.41 131.126 1355.04 Q128.88 1354.67 126.473 1353.93 L126.473 1349.23 Q128.556 1350.36 130.779 1350.92 Q133.001 1351.47 135.478 1351.47 Q139.482 1351.47 141.82 1349.37 Q144.158 1347.26 144.158 1343.65 Q144.158 1340.04 141.82 1337.93 Q139.482 1335.82 135.478 1335.82 Q133.603 1335.82 131.728 1336.24 Q129.876 1336.66 127.931 1337.54 L127.931 1320.18 Z" fill="#000000" fill-rule="evenodd" fill-opacity="1" /><path clip-path="url(#clip740)" d="M61.4965 909.56 Q57.8854 909.56 56.0567 913.125 Q54.2512 916.666 54.2512 923.796 Q54.2512 930.902 56.0567 934.467 Q57.8854 938.009 61.4965 938.009 Q65.1307 938.009 66.9363 934.467 Q68.765 930.902 68.765 923.796 Q68.765 916.666 66.9363 913.125 Q65.1307 909.56 61.4965 909.56 M61.4965 905.856 Q67.3067 905.856 70.3622 910.463 Q73.4409 915.046 73.4409 923.796 Q73.4409 932.523 70.3622 937.129 Q67.3067 941.713 61.4965 941.713 Q55.6864 941.713 52.6077 937.129 Q49.5521 932.523 49.5521 923.796 Q49.5521 915.046 52.6077 910.463 Q55.6864 905.856 61.4965 905.856 Z" fill="#000000" fill-rule="evenodd" fill-opacity="1" /><path clip-path="url(#clip740)" d="M81.6584 935.162 L86.5427 935.162 L86.5427 941.041 L81.6584 941.041 L81.6584 935.162 Z" fill="#000000" fill-rule="evenodd" fill-opacity="1" /><path clip-path="url(#clip740)" d="M96.7741 906.481 L115.13 906.481 L115.13 910.416 L101.056 910.416 L101.056 918.889 Q102.075 918.541 103.094 918.379 Q104.112 918.194 105.131 918.194 Q110.918 918.194 114.297 921.365 Q117.677 924.537 117.677 929.953 Q117.677 935.532 114.205 938.634 Q110.732 941.713 104.413 941.713 Q102.237 941.713 99.9685 941.342 Q97.7232 940.972 95.3158 940.231 L95.3158 935.532 Q97.3991 936.666 99.6213 937.222 Q101.844 937.777 104.32 937.777 Q108.325 937.777 110.663 935.671 Q113.001 933.564 113.001 929.953 Q113.001 926.342 110.663 924.236 Q108.325 922.129 104.32 922.129 Q102.445 922.129 100.57 922.546 Q98.7185 922.963 96.7741 923.842 L96.7741 906.481 Z" fill="#000000" fill-rule="evenodd" fill-opacity="1" /><path clip-path="url(#clip740)" d="M136.89 909.56 Q133.279 909.56 131.45 913.125 Q129.644 916.666 129.644 923.796 Q129.644 930.902 131.45 934.467 Q133.279 938.009 136.89 938.009 Q140.524 938.009 142.329 934.467 Q144.158 930.902 144.158 923.796 Q144.158 916.666 142.329 913.125 Q140.524 909.56 136.89 909.56 M136.89 905.856 Q142.7 905.856 145.755 910.463 Q148.834 915.046 148.834 923.796 Q148.834 932.523 145.755 937.129 Q142.7 941.713 136.89 941.713 Q131.079 941.713 128.001 937.129 Q124.945 932.523 124.945 923.796 Q124.945 915.046 128.001 910.463 Q131.079 905.856 136.89 905.856 Z" fill="#000000" fill-rule="evenodd" fill-opacity="1" /><path clip-path="url(#clip740)" d="M62.4919 495.865 Q58.8808 495.865 57.0521 499.43 Q55.2465 502.972 55.2465 510.101 Q55.2465 517.208 57.0521 520.772 Q58.8808 524.314 62.4919 524.314 Q66.1261 524.314 67.9317 520.772 Q69.7604 517.208 69.7604 510.101 Q69.7604 502.972 67.9317 499.43 Q66.1261 495.865 62.4919 495.865 M62.4919 492.161 Q68.302 492.161 71.3576 496.768 Q74.4363 501.351 74.4363 510.101 Q74.4363 518.828 71.3576 523.434 Q68.302 528.018 62.4919 528.018 Q56.6817 528.018 53.603 523.434 Q50.5475 518.828 50.5475 510.101 Q50.5475 501.351 53.603 496.768 Q56.6817 492.161 62.4919 492.161 Z" fill="#000000" fill-rule="evenodd" fill-opacity="1" /><path clip-path="url(#clip740)" d="M82.6538 521.467 L87.538 521.467 L87.538 527.346 L82.6538 527.346 L82.6538 521.467 Z" fill="#000000" fill-rule="evenodd" fill-opacity="1" /><path clip-path="url(#clip740)" d="M96.5426 492.786 L118.765 492.786 L118.765 494.777 L106.218 527.346 L101.334 527.346 L113.14 496.722 L96.5426 496.722 L96.5426 492.786 Z" fill="#000000" fill-rule="evenodd" fill-opacity="1" /><path clip-path="url(#clip740)" d="M127.931 492.786 L146.288 492.786 L146.288 496.722 L132.214 496.722 L132.214 505.194 Q133.232 504.846 134.251 504.684 Q135.269 504.499 136.288 504.499 Q142.075 504.499 145.454 507.671 Q148.834 510.842 148.834 516.258 Q148.834 521.837 145.362 524.939 Q141.89 528.018 135.57 528.018 Q133.394 528.018 131.126 527.647 Q128.88 527.277 126.473 526.536 L126.473 521.837 Q128.556 522.971 130.779 523.527 Q133.001 524.083 135.478 524.083 Q139.482 524.083 141.82 521.976 Q144.158 519.87 144.158 516.258 Q144.158 512.647 141.82 510.541 Q139.482 508.434 135.478 508.434 Q133.603 508.434 131.728 508.851 Q129.876 509.268 127.931 510.147 L127.931 492.786 Z" fill="#000000" fill-rule="evenodd" fill-opacity="1" /><path clip-path="url(#clip740)" d="M52.3067 109.716 L59.9456 109.716 L59.9456 83.3508 L51.6354 85.0174 L51.6354 80.7582 L59.8993 79.0915 L64.5752 79.0915 L64.5752 109.716 L72.214 109.716 L72.214 113.652 L52.3067 113.652 L52.3067 109.716 Z" fill="#000000" fill-rule="evenodd" fill-opacity="1" /><path clip-path="url(#clip740)" d="M81.6584 107.772 L86.5427 107.772 L86.5427 113.652 L81.6584 113.652 L81.6584 107.772 Z" fill="#000000" fill-rule="evenodd" fill-opacity="1" /><path clip-path="url(#clip740)" d="M106.728 82.1702 Q103.117 82.1702 101.288 85.735 Q99.4824 89.2767 99.4824 96.4062 Q99.4824 103.513 101.288 107.077 Q103.117 110.619 106.728 110.619 Q110.362 110.619 112.168 107.077 Q113.996 103.513 113.996 96.4062 Q113.996 89.2767 112.168 85.735 Q110.362 82.1702 106.728 82.1702 M106.728 78.4665 Q112.538 78.4665 115.593 83.073 Q118.672 87.6563 118.672 96.4062 Q118.672 105.133 115.593 109.74 Q112.538 114.323 106.728 114.323 Q100.918 114.323 97.8389 109.74 Q94.7834 105.133 94.7834 96.4062 Q94.7834 87.6563 97.8389 83.073 Q100.918 78.4665 106.728 78.4665 Z" fill="#000000" fill-rule="evenodd" fill-opacity="1" /><path clip-path="url(#clip740)" d="M136.89 82.1702 Q133.279 82.1702 131.45 85.735 Q129.644 89.2767 129.644 96.4062 Q129.644 103.513 131.45 107.077 Q133.279 110.619 136.89 110.619 Q140.524 110.619 142.329 107.077 Q144.158 103.513 144.158 96.4062 Q144.158 89.2767 142.329 85.735 Q140.524 82.1702 136.89 82.1702 M136.89 78.4665 Q142.7 78.4665 145.755 83.073 Q148.834 87.6563 148.834 96.4062 Q148.834 105.133 145.755 109.74 Q142.7 114.323 136.89 114.323 Q131.079 114.323 128.001 109.74 Q124.945 105.133 124.945 96.4062 Q124.945 87.6563 128.001 83.073 Q131.079 78.4665 136.89 78.4665 Z" fill="#000000" fill-rule="evenodd" fill-opacity="1" /><polyline clip-path="url(#clip742)" style="stroke:#009af9; stroke-linecap:round; stroke-linejoin:round; stroke-width:4; stroke-opacity:1; fill:none" points="
  258.539,1751.15 273.597,1751.15 412.828,1751.15 496.5,1751.15 567.244,1751.15 586.455,1751.15 605.667,1751.15 615.273,1751.15 624.879,1751.15 629.682,1751.15 
  634.485,1751.15 636.887,1751.15 639.288,1751.15 641.69,1751.15 644.091,1750.81 646.305,1741.3 648.519,1731.8 650.733,1722.29 652.947,1712.79 657.375,1693.78 
  661.803,1674.77 670.659,1636.76 679.514,1598.74 697.226,1522.71 714.938,1446.67 790.893,1120.61 878.894,742.83 917.997,574.967 957.099,407.105 974.244,333.505 
  991.389,259.905 999.961,223.105 1008.53,186.305 1012.82,167.905 1017.11,149.505 1021.39,131.105 1025.68,112.705 1026.85,107.69 1028.01,102.675 1028.6,100.167 
  1029.18,97.6596 1029.77,97.5911 1030.35,100.099 1032.69,110.129 1035.02,120.16 1039.7,140.221 1044.37,160.282 1053.72,200.403 1063.06,240.525 1081.76,320.769 
  1100.45,401.013 1138.05,562.454 1175.66,723.896 1217.24,902.39 1258.82,1080.88 1298.38,1250.72 1337.94,1420.55 1358.51,1508.84 1379.08,1597.14 1389.36,1641.28 
  1399.65,1685.43 1404.79,1707.5 1409.93,1729.58 1412.5,1740.61 1415.07,1751.15 1417.64,1751.15 1420.21,1751.15 1424.54,1751.15 1428.87,1751.15 1433.2,1751.15 
  1437.53,1751.15 1446.18,1751.15 1454.84,1751.15 1472.15,1751.15 1489.47,1751.15 1574.02,1751.15 1651.47,1751.15 1723.01,1751.15 1795.47,1751.15 1876.68,1751.15 
  1950.27,1751.15 2034.52,1751.15 2112.53,1751.15 2189.45,1751.15 2264.12,1751.15 2340.67,1751.15 2424.54,1751.15 2546.38,1751.15 2571.37,1751.15 
  "/>
<polyline clip-path="url(#clip742)" style="stroke:#e26f46; stroke-linecap:round; stroke-linejoin:round; stroke-width:4; stroke-opacity:1; fill:none" points="
  258.539,1751.15 273.597,1751.15 412.828,1751.15 496.5,1751.15 567.244,1751.15 644.091,1751.15 714.938,1751.15 790.893,1751.15 878.894,1751.15 957.099,1751.15 
  1025.68,1751.15 1100.45,1751.15 1175.66,1751.15 1217.24,1751.15 1258.82,1751.15 1298.38,1751.15 1337.94,1751.15 1358.51,1751.15 1379.08,1751.15 1389.36,1751.15 
  1399.65,1751.15 1404.79,1751.15 1409.93,1751.15 1412.5,1751.15 1415.07,1750.65 1417.64,1739.62 1420.21,1728.58 1424.54,1710 1428.87,1691.42 1433.2,1672.84 
  1437.53,1654.26 1446.18,1617.09 1454.84,1579.93 1472.15,1505.61 1489.47,1431.28 1574.02,1068.32 1651.47,735.819 1687.24,582.275 1723.01,428.731 1741.12,350.963 
  1759.24,273.195 1768.29,234.311 1777.35,195.427 1781.88,175.985 1786.41,156.543 1790.94,137.102 1795.47,117.66 1796.74,112.212 1798.01,106.765 1799.27,101.318 
  1800.54,96.8724 1801.81,102.32 1803.08,107.767 1804.35,113.214 1805.62,118.661 1810.69,140.45 1815.77,162.239 1825.92,205.817 1836.07,249.395 1856.38,336.551 
  1876.68,423.707 1913.47,581.662 1950.27,739.616 2034.52,1101.31 2112.53,1436.21 2131.76,1518.75 2150.99,1601.29 2160.6,1642.56 2170.22,1683.83 2175.02,1704.47 
  2179.83,1725.11 2182.24,1735.42 2184.64,1745.74 2187.04,1751.15 2189.45,1751.15 2194.11,1751.15 2198.78,1751.15 2203.45,1751.15 2208.11,1751.15 2217.45,1751.15 
  2226.78,1751.15 2245.45,1751.15 2264.12,1751.15 2340.67,1751.15 2424.54,1751.15 2546.38,1751.15 2571.37,1751.15 
  "/>
<path clip-path="url(#clip740)" d="
M2183.53 261.215 L2559.04 261.215 L2559.04 105.695 L2183.53 105.695  Z
  " fill="#ffffff" fill-rule="evenodd" fill-opacity="1"/>
<polyline clip-path="url(#clip740)" style="stroke:#000000; stroke-linecap:round; stroke-linejoin:round; stroke-width:4; stroke-opacity:1; fill:none" points="
  2183.53,261.215 2559.04,261.215 2559.04,105.695 2183.53,105.695 2183.53,261.215 
  "/>
<polyline clip-path="url(#clip740)" style="stroke:#009af9; stroke-linecap:round; stroke-linejoin:round; stroke-width:4; stroke-opacity:1; fill:none" points="
  2210.77,157.535 2374.21,157.535 
  "/>
<path clip-path="url(#clip740)" d="M2417.96 138.797 L2417.96 142.339 L2413.88 142.339 Q2411.59 142.339 2410.69 143.265 Q2409.81 144.19 2409.81 146.598 L2409.81 148.889 L2416.82 148.889 L2416.82 152.2 L2409.81 152.2 L2409.81 174.815 L2405.53 174.815 L2405.53 152.2 L2401.45 152.2 L2401.45 148.889 L2405.53 148.889 L2405.53 147.084 Q2405.53 142.755 2407.54 140.788 Q2409.56 138.797 2413.93 138.797 L2417.96 138.797 Z" fill="#000000" fill-rule="evenodd" fill-opacity="1" /><polyline clip-path="url(#clip740)" style="stroke:#e26f46; stroke-linecap:round; stroke-linejoin:round; stroke-width:4; stroke-opacity:1; fill:none" points="
  2210.77,209.375 2374.21,209.375 
  "/>
<path clip-path="url(#clip740)" d="M2413.35 203.716 Q2409.93 203.716 2407.94 206.401 Q2405.95 209.063 2405.95 213.716 Q2405.95 218.368 2407.91 221.053 Q2409.9 223.715 2413.35 223.715 Q2416.76 223.715 2418.75 221.03 Q2420.74 218.345 2420.74 213.716 Q2420.74 209.109 2418.75 206.424 Q2416.76 203.716 2413.35 203.716 M2413.35 200.104 Q2418.91 200.104 2422.08 203.716 Q2425.25 207.327 2425.25 213.716 Q2425.25 220.081 2422.08 223.715 Q2418.91 227.327 2413.35 227.327 Q2407.77 227.327 2404.6 223.715 Q2401.45 220.081 2401.45 213.716 Q2401.45 207.327 2404.6 203.716 Q2407.77 200.104 2413.35 200.104 Z" fill="#000000" fill-rule="evenodd" fill-opacity="1" /><path clip-path="url(#clip740)" d="M2429.26 200.729 L2433.77 200.729 L2441.87 222.489 L2449.97 200.729 L2454.49 200.729 L2444.76 226.655 L2438.98 226.655 L2429.26 200.729 Z" fill="#000000" fill-rule="evenodd" fill-opacity="1" /><path clip-path="url(#clip740)" d="M2482.54 212.628 L2482.54 214.711 L2462.96 214.711 Q2463.24 219.109 2465.6 221.424 Q2467.98 223.715 2472.22 223.715 Q2474.67 223.715 2476.96 223.114 Q2479.28 222.512 2481.55 221.308 L2481.55 225.336 Q2479.26 226.308 2476.85 226.817 Q2474.44 227.327 2471.96 227.327 Q2465.76 227.327 2462.13 223.715 Q2458.51 220.104 2458.51 213.947 Q2458.51 207.581 2461.94 203.854 Q2465.39 200.104 2471.22 200.104 Q2476.45 200.104 2479.49 203.484 Q2482.54 206.841 2482.54 212.628 M2478.28 211.378 Q2478.24 207.882 2476.32 205.799 Q2474.42 203.716 2471.27 203.716 Q2467.7 203.716 2465.55 205.729 Q2463.42 207.743 2463.1 211.401 L2478.28 211.378 Z" fill="#000000" fill-rule="evenodd" fill-opacity="1" /><path clip-path="url(#clip740)" d="M2504.56 204.711 Q2503.84 204.294 2502.98 204.109 Q2502.15 203.901 2501.13 203.901 Q2497.52 203.901 2495.57 206.262 Q2493.65 208.6 2493.65 212.998 L2493.65 226.655 L2489.37 226.655 L2489.37 200.729 L2493.65 200.729 L2493.65 204.757 Q2495 202.396 2497.15 201.262 Q2499.3 200.104 2502.38 200.104 Q2502.82 200.104 2503.35 200.174 Q2503.88 200.22 2504.53 200.336 L2504.56 204.711 Z" fill="#000000" fill-rule="evenodd" fill-opacity="1" /></svg>
