<?xml version="1.0" encoding="utf-8"?>
<svg xmlns="http://www.w3.org/2000/svg" xmlns:xlink="http://www.w3.org/1999/xlink" width="672" height="480" viewBox="0 0 2688 1920">
<defs>
  <clipPath id="clip250">
    <rect x="0" y="0" width="2688" height="1920"/>
  </clipPath>
</defs>
<path clip-path="url(#clip250)" d="
M0 1920 L2688 1920 L2688 0 L0 0  Z
  " fill="#ffffff" fill-rule="evenodd" fill-opacity="1"/>
<defs>
  <clipPath id="clip251">
    <rect x="537" y="0" width="1883" height="1883"/>
  </clipPath>
</defs>
<path clip-path="url(#clip250)" d="
M189.154 1800.78 L2640.76 1800.78 L2640.76 47.2441 L189.154 47.2441  Z
  " fill="#ffffff" fill-rule="evenodd" fill-opacity="1"/>
<defs>
  <clipPath id="clip252">
    <rect x="189" y="47" width="2453" height="1755"/>
  </clipPath>
</defs>
<polyline clip-path="url(#clip252)" style="stroke:#000000; stroke-linecap:butt; stroke-linejoin:round; stroke-width:2; stroke-opacity:0.1; fill:none" points="
  258.539,1800.78 258.539,47.2441 
  "/>
<polyline clip-path="url(#clip252)" style="stroke:#000000; stroke-linecap:butt; stroke-linejoin:round; stroke-width:2; stroke-opacity:0.1; fill:none" points="
  644.011,1800.78 644.011,47.2441 
  "/>
<polyline clip-path="url(#clip252)" style="stroke:#000000; stroke-linecap:butt; stroke-linejoin:round; stroke-width:2; stroke-opacity:0.1; fill:none" points="
  1029.48,1800.78 1029.48,47.2441 
  "/>
<polyline clip-path="url(#clip252)" style="stroke:#000000; stroke-linecap:butt; stroke-linejoin:round; stroke-width:2; stroke-opacity:0.1; fill:none" points="
  1414.95,1800.78 1414.95,47.2441 
  "/>
<polyline clip-path="url(#clip252)" style="stroke:#000000; stroke-linecap:butt; stroke-linejoin:round; stroke-width:2; stroke-opacity:0.1; fill:none" points="
  1800.43,1800.78 1800.43,47.2441 
  "/>
<polyline clip-path="url(#clip252)" style="stroke:#000000; stroke-linecap:butt; stroke-linejoin:round; stroke-width:2; stroke-opacity:0.1; fill:none" points="
  2185.9,1800.78 2185.9,47.2441 
  "/>
<polyline clip-path="url(#clip252)" style="stroke:#000000; stroke-linecap:butt; stroke-linejoin:round; stroke-width:2; stroke-opacity:0.1; fill:none" points="
  2571.37,1800.78 2571.37,47.2441 
  "/>
<polyline clip-path="url(#clip250)" style="stroke:#000000; stroke-linecap:butt; stroke-linejoin:round; stroke-width:4; stroke-opacity:1; fill:none" points="
  189.154,1800.78 2640.76,1800.78 
  "/>
<polyline clip-path="url(#clip250)" style="stroke:#000000; stroke-linecap:butt; stroke-linejoin:round; stroke-width:4; stroke-opacity:1; fill:none" points="
  258.539,1800.78 258.539,1781.88 
  "/>
<polyline clip-path="url(#clip250)" style="stroke:#000000; stroke-linecap:butt; stroke-linejoin:round; stroke-width:4; stroke-opacity:1; fill:none" points="
  644.011,1800.78 644.011,1781.88 
  "/>
<polyline clip-path="url(#clip250)" style="stroke:#000000; stroke-linecap:butt; stroke-linejoin:round; stroke-width:4; stroke-opacity:1; fill:none" points="
  1029.48,1800.78 1029.48,1781.88 
  "/>
<polyline clip-path="url(#clip250)" style="stroke:#000000; stroke-linecap:butt; stroke-linejoin:round; stroke-width:4; stroke-opacity:1; fill:none" points="
  1414.95,1800.78 1414.95,1781.88 
  "/>
<polyline clip-path="url(#clip250)" style="stroke:#000000; stroke-linecap:butt; stroke-linejoin:round; stroke-width:4; stroke-opacity:1; fill:none" points="
  1800.43,1800.78 1800.43,1781.88 
  "/>
<polyline clip-path="url(#clip250)" style="stroke:#000000; stroke-linecap:butt; stroke-linejoin:round; stroke-width:4; stroke-opacity:1; fill:none" points="
  2185.9,1800.78 2185.9,1781.88 
  "/>
<polyline clip-path="url(#clip250)" style="stroke:#000000; stroke-linecap:butt; stroke-linejoin:round; stroke-width:4; stroke-opacity:1; fill:none" points="
  2571.37,1800.78 2571.37,1781.88 
  "/>
<path clip-path="url(#clip250)" d="M228.296 1848.65 L257.972 1848.65 L257.972 1852.59 L228.296 1852.59 L228.296 1848.65 Z" fill="#000000" fill-rule="evenodd" fill-opacity="1" /><path clip-path="url(#clip250)" d="M268.875 1861.55 L276.513 1861.55 L276.513 1835.18 L268.203 1836.85 L268.203 1832.59 L276.467 1830.92 L281.143 1830.92 L281.143 1861.55 L288.782 1861.55 L288.782 1865.48 L268.875 1865.48 L268.875 1861.55 Z" fill="#000000" fill-rule="evenodd" fill-opacity="1" /><path clip-path="url(#clip250)" d="M644.011 1834 Q640.4 1834 638.571 1837.57 Q636.766 1841.11 636.766 1848.24 Q636.766 1855.34 638.571 1858.91 Q640.4 1862.45 644.011 1862.45 Q647.645 1862.45 649.451 1858.91 Q651.279 1855.34 651.279 1848.24 Q651.279 1841.11 649.451 1837.57 Q647.645 1834 644.011 1834 M644.011 1830.3 Q649.821 1830.3 652.877 1834.9 Q655.955 1839.49 655.955 1848.24 Q655.955 1856.96 652.877 1861.57 Q649.821 1866.15 644.011 1866.15 Q638.201 1866.15 635.122 1861.57 Q632.067 1856.96 632.067 1848.24 Q632.067 1839.49 635.122 1834.9 Q638.201 1830.3 644.011 1830.3 Z" fill="#000000" fill-rule="evenodd" fill-opacity="1" /><path clip-path="url(#clip250)" d="M1019.86 1861.55 L1027.5 1861.55 L1027.5 1835.18 L1019.19 1836.85 L1019.19 1832.59 L1027.46 1830.92 L1032.13 1830.92 L1032.13 1861.55 L1039.77 1861.55 L1039.77 1865.48 L1019.86 1865.48 L1019.86 1861.55 Z" fill="#000000" fill-rule="evenodd" fill-opacity="1" /><path clip-path="url(#clip250)" d="M1409.61 1861.55 L1425.93 1861.55 L1425.93 1865.48 L1403.98 1865.48 L1403.98 1861.55 Q1406.64 1858.79 1411.23 1854.16 Q1415.83 1849.51 1417.02 1848.17 Q1419.26 1845.65 1420.14 1843.91 Q1421.04 1842.15 1421.04 1840.46 Q1421.04 1837.71 1419.1 1835.97 Q1417.18 1834.23 1414.08 1834.23 Q1411.88 1834.23 1409.42 1835 Q1406.99 1835.76 1404.21 1837.31 L1404.21 1832.59 Q1407.04 1831.46 1409.49 1830.88 Q1411.95 1830.3 1413.98 1830.3 Q1419.35 1830.3 1422.55 1832.98 Q1425.74 1835.67 1425.74 1840.16 Q1425.74 1842.29 1424.93 1844.21 Q1424.14 1846.11 1422.04 1848.7 Q1421.46 1849.37 1418.36 1852.59 Q1415.26 1855.78 1409.61 1861.55 Z" fill="#000000" fill-rule="evenodd" fill-opacity="1" /><path clip-path="url(#clip250)" d="M1804.67 1846.85 Q1808.03 1847.57 1809.91 1849.84 Q1811.8 1852.1 1811.8 1855.44 Q1811.8 1860.55 1808.29 1863.35 Q1804.77 1866.15 1798.29 1866.15 Q1796.11 1866.15 1793.8 1865.71 Q1791.5 1865.3 1789.05 1864.44 L1789.05 1859.93 Q1790.99 1861.06 1793.31 1861.64 Q1795.62 1862.22 1798.15 1862.22 Q1802.54 1862.22 1804.84 1860.48 Q1807.15 1858.75 1807.15 1855.44 Q1807.15 1852.38 1805 1850.67 Q1802.87 1848.93 1799.05 1848.93 L1795.02 1848.93 L1795.02 1845.09 L1799.23 1845.09 Q1802.68 1845.09 1804.51 1843.72 Q1806.34 1842.34 1806.34 1839.74 Q1806.34 1837.08 1804.44 1835.67 Q1802.57 1834.23 1799.05 1834.23 Q1797.13 1834.23 1794.93 1834.65 Q1792.73 1835.07 1790.09 1835.95 L1790.09 1831.78 Q1792.75 1831.04 1795.07 1830.67 Q1797.41 1830.3 1799.47 1830.3 Q1804.79 1830.3 1807.89 1832.73 Q1810.99 1835.14 1810.99 1839.26 Q1810.99 1842.13 1809.35 1844.12 Q1807.71 1846.09 1804.67 1846.85 Z" fill="#000000" fill-rule="evenodd" fill-opacity="1" /><path clip-path="url(#clip250)" d="M2188.91 1835 L2177.1 1853.45 L2188.91 1853.45 L2188.91 1835 M2187.68 1830.92 L2193.56 1830.92 L2193.56 1853.45 L2198.49 1853.45 L2198.49 1857.34 L2193.56 1857.34 L2193.56 1865.48 L2188.91 1865.48 L2188.91 1857.34 L2173.31 1857.34 L2173.31 1852.82 L2187.68 1830.92 Z" fill="#000000" fill-rule="evenodd" fill-opacity="1" /><path clip-path="url(#clip250)" d="M2561.65 1830.92 L2580.01 1830.92 L2580.01 1834.86 L2565.93 1834.86 L2565.93 1843.33 Q2566.95 1842.98 2567.97 1842.82 Q2568.99 1842.64 2570.01 1842.64 Q2575.79 1842.64 2579.17 1845.81 Q2582.55 1848.98 2582.55 1854.4 Q2582.55 1859.97 2579.08 1863.08 Q2575.61 1866.15 2569.29 1866.15 Q2567.11 1866.15 2564.84 1865.78 Q2562.6 1865.41 2560.19 1864.67 L2560.19 1859.97 Q2562.27 1861.11 2564.5 1861.66 Q2566.72 1862.22 2569.2 1862.22 Q2573.2 1862.22 2575.54 1860.11 Q2577.88 1858.01 2577.88 1854.4 Q2577.88 1850.78 2575.54 1848.68 Q2573.2 1846.57 2569.2 1846.57 Q2567.32 1846.57 2565.45 1846.99 Q2563.59 1847.4 2561.65 1848.28 L2561.65 1830.92 Z" fill="#000000" fill-rule="evenodd" fill-opacity="1" /><polyline clip-path="url(#clip252)" style="stroke:#000000; stroke-linecap:butt; stroke-linejoin:round; stroke-width:2; stroke-opacity:0.1; fill:none" points="
  189.154,1751.15 2640.76,1751.15 
  "/>
<polyline clip-path="url(#clip252)" style="stroke:#000000; stroke-linecap:butt; stroke-linejoin:round; stroke-width:2; stroke-opacity:0.1; fill:none" points="
  189.154,1337.54 2640.76,1337.54 
  "/>
<polyline clip-path="url(#clip252)" style="stroke:#000000; stroke-linecap:butt; stroke-linejoin:round; stroke-width:2; stroke-opacity:0.1; fill:none" points="
  189.154,923.929 2640.76,923.929 
  "/>
<polyline clip-path="url(#clip252)" style="stroke:#000000; stroke-linecap:butt; stroke-linejoin:round; stroke-width:2; stroke-opacity:0.1; fill:none" points="
  189.154,510.318 2640.76,510.318 
  "/>
<polyline clip-path="url(#clip252)" style="stroke:#000000; stroke-linecap:butt; stroke-linejoin:round; stroke-width:2; stroke-opacity:0.1; fill:none" points="
  189.154,96.7066 2640.76,96.7066 
  "/>
<polyline clip-path="url(#clip250)" style="stroke:#000000; stroke-linecap:butt; stroke-linejoin:round; stroke-width:4; stroke-opacity:1; fill:none" points="
  189.154,1800.78 189.154,47.2441 
  "/>
<polyline clip-path="url(#clip250)" style="stroke:#000000; stroke-linecap:butt; stroke-linejoin:round; stroke-width:4; stroke-opacity:1; fill:none" points="
  189.154,1751.15 208.052,1751.15 
  "/>
<polyline clip-path="url(#clip250)" style="stroke:#000000; stroke-linecap:butt; stroke-linejoin:round; stroke-width:4; stroke-opacity:1; fill:none" points="
  189.154,1337.54 208.052,1337.54 
  "/>
<polyline clip-path="url(#clip250)" style="stroke:#000000; stroke-linecap:butt; stroke-linejoin:round; stroke-width:4; stroke-opacity:1; fill:none" points="
  189.154,923.929 208.052,923.929 
  "/>
<polyline clip-path="url(#clip250)" style="stroke:#000000; stroke-linecap:butt; stroke-linejoin:round; stroke-width:4; stroke-opacity:1; fill:none" points="
  189.154,510.318 208.052,510.318 
  "/>
<polyline clip-path="url(#clip250)" style="stroke:#000000; stroke-linecap:butt; stroke-linejoin:round; stroke-width:4; stroke-opacity:1; fill:none" points="
  189.154,96.7066 208.052,96.7066 
  "/>
<path clip-path="url(#clip250)" d="M61.4965 1736.95 Q57.8854 1736.95 56.0567 1740.51 Q54.2512 1744.06 54.2512 1751.19 Q54.2512 1758.29 56.0567 1761.86 Q57.8854 1765.4 61.4965 1765.4 Q65.1307 1765.4 66.9363 1761.86 Q68.765 1758.29 68.765 1751.19 Q68.765 1744.06 66.9363 1740.51 Q65.1307 1736.95 61.4965 1736.95 M61.4965 1733.25 Q67.3067 1733.25 70.3622 1737.85 Q73.4409 1742.44 73.4409 1751.19 Q73.4409 1759.91 70.3622 1764.52 Q67.3067 1769.1 61.4965 1769.1 Q55.6864 1769.1 52.6077 1764.52 Q49.5521 1759.91 49.5521 1751.19 Q49.5521 1742.44 52.6077 1737.85 Q55.6864 1733.25 61.4965 1733.25 Z" fill="#000000" fill-rule="evenodd" fill-opacity="1" /><path clip-path="url(#clip250)" d="M81.6584 1762.55 L86.5427 1762.55 L86.5427 1768.43 L81.6584 1768.43 L81.6584 1762.55 Z" fill="#000000" fill-rule="evenodd" fill-opacity="1" /><path clip-path="url(#clip250)" d="M106.728 1736.95 Q103.117 1736.95 101.288 1740.51 Q99.4824 1744.06 99.4824 1751.19 Q99.4824 1758.29 101.288 1761.86 Q103.117 1765.4 106.728 1765.4 Q110.362 1765.4 112.168 1761.86 Q113.996 1758.29 113.996 1751.19 Q113.996 1744.06 112.168 1740.51 Q110.362 1736.95 106.728 1736.95 M106.728 1733.25 Q112.538 1733.25 115.593 1737.85 Q118.672 1742.44 118.672 1751.19 Q118.672 1759.91 115.593 1764.52 Q112.538 1769.1 106.728 1769.1 Q100.918 1769.1 97.8389 1764.52 Q94.7834 1759.91 94.7834 1751.19 Q94.7834 1742.44 97.8389 1737.85 Q100.918 1733.25 106.728 1733.25 Z" fill="#000000" fill-rule="evenodd" fill-opacity="1" /><path clip-path="url(#clip250)" d="M136.89 1736.95 Q133.279 1736.95 131.45 1740.51 Q129.644 1744.06 129.644 1751.19 Q129.644 1758.29 131.45 1761.86 Q133.279 1765.4 136.89 1765.4 Q140.524 1765.4 142.329 1761.86 Q144.158 1758.29 144.158 1751.19 Q144.158 1744.06 142.329 1740.51 Q140.524 1736.95 136.89 1736.95 M136.89 1733.25 Q142.7 1733.25 145.755 1737.85 Q148.834 1742.44 148.834 1751.19 Q148.834 1759.91 145.755 1764.52 Q142.7 1769.1 136.89 1769.1 Q131.079 1769.1 128.001 1764.52 Q124.945 1759.91 124.945 1751.19 Q124.945 1742.44 128.001 1737.85 Q131.079 1733.25 136.89 1733.25 Z" fill="#000000" fill-rule="evenodd" fill-opacity="1" /><path clip-path="url(#clip250)" d="M62.4919 1323.34 Q58.8808 1323.34 57.0521 1326.9 Q55.2465 1330.45 55.2465 1337.57 Q55.2465 1344.68 57.0521 1348.25 Q58.8808 1351.79 62.4919 1351.79 Q66.1261 1351.79 67.9317 1348.25 Q69.7604 1344.68 69.7604 1337.57 Q69.7604 1330.45 67.9317 1326.9 Q66.1261 1323.34 62.4919 1323.34 M62.4919 1319.63 Q68.302 1319.63 71.3576 1324.24 Q74.4363 1328.82 74.4363 1337.57 Q74.4363 1346.3 71.3576 1350.91 Q68.302 1355.49 62.4919 1355.49 Q56.6817 1355.49 53.603 1350.91 Q50.5475 1346.3 50.5475 1337.57 Q50.5475 1328.82 53.603 1324.24 Q56.6817 1319.63 62.4919 1319.63 Z" fill="#000000" fill-rule="evenodd" fill-opacity="1" /><path clip-path="url(#clip250)" d="M82.6538 1348.94 L87.538 1348.94 L87.538 1354.82 L82.6538 1354.82 L82.6538 1348.94 Z" fill="#000000" fill-rule="evenodd" fill-opacity="1" /><path clip-path="url(#clip250)" d="M101.751 1350.88 L118.07 1350.88 L118.07 1354.82 L96.126 1354.82 L96.126 1350.88 Q98.788 1348.13 103.371 1343.5 Q107.978 1338.85 109.158 1337.51 Q111.404 1334.98 112.283 1333.25 Q113.186 1331.49 113.186 1329.8 Q113.186 1327.04 111.242 1325.31 Q109.32 1323.57 106.218 1323.57 Q104.019 1323.57 101.566 1324.33 Q99.1352 1325.1 96.3574 1326.65 L96.3574 1321.93 Q99.1815 1320.79 101.635 1320.21 Q104.089 1319.63 106.126 1319.63 Q111.496 1319.63 114.691 1322.32 Q117.885 1325.01 117.885 1329.5 Q117.885 1331.63 117.075 1333.55 Q116.288 1335.44 114.181 1338.04 Q113.603 1338.71 110.501 1341.93 Q107.399 1345.12 101.751 1350.88 Z" fill="#000000" fill-rule="evenodd" fill-opacity="1" /><path clip-path="url(#clip250)" d="M127.931 1320.26 L146.288 1320.26 L146.288 1324.2 L132.214 1324.2 L132.214 1332.67 Q133.232 1332.32 134.251 1332.16 Q135.269 1331.97 136.288 1331.97 Q142.075 1331.97 145.454 1335.14 Q148.834 1338.32 148.834 1343.73 Q148.834 1349.31 145.362 1352.41 Q141.89 1355.49 135.57 1355.49 Q133.394 1355.49 131.126 1355.12 Q128.88 1354.75 126.473 1354.01 L126.473 1349.31 Q128.556 1350.44 130.779 1351 Q133.001 1351.56 135.478 1351.56 Q139.482 1351.56 141.82 1349.45 Q144.158 1347.34 144.158 1343.73 Q144.158 1340.12 141.82 1338.01 Q139.482 1335.91 135.478 1335.91 Q133.603 1335.91 131.728 1336.32 Q129.876 1336.74 127.931 1337.62 L127.931 1320.26 Z" fill="#000000" fill-rule="evenodd" fill-opacity="1" /><path clip-path="url(#clip250)" d="M61.4965 909.727 Q57.8854 909.727 56.0567 913.292 Q54.2512 916.834 54.2512 923.964 Q54.2512 931.07 56.0567 934.635 Q57.8854 938.176 61.4965 938.176 Q65.1307 938.176 66.9363 934.635 Q68.765 931.07 68.765 923.964 Q68.765 916.834 66.9363 913.292 Q65.1307 909.727 61.4965 909.727 M61.4965 906.024 Q67.3067 906.024 70.3622 910.63 Q73.4409 915.214 73.4409 923.964 Q73.4409 932.69 70.3622 937.297 Q67.3067 941.88 61.4965 941.88 Q55.6864 941.88 52.6077 937.297 Q49.5521 932.69 49.5521 923.964 Q49.5521 915.214 52.6077 910.63 Q55.6864 906.024 61.4965 906.024 Z" fill="#000000" fill-rule="evenodd" fill-opacity="1" /><path clip-path="url(#clip250)" d="M81.6584 935.329 L86.5427 935.329 L86.5427 941.209 L81.6584 941.209 L81.6584 935.329 Z" fill="#000000" fill-rule="evenodd" fill-opacity="1" /><path clip-path="url(#clip250)" d="M96.7741 906.649 L115.13 906.649 L115.13 910.584 L101.056 910.584 L101.056 919.056 Q102.075 918.709 103.094 918.547 Q104.112 918.362 105.131 918.362 Q110.918 918.362 114.297 921.533 Q117.677 924.704 117.677 930.121 Q117.677 935.7 114.205 938.801 Q110.732 941.88 104.413 941.88 Q102.237 941.88 99.9685 941.51 Q97.7232 941.139 95.3158 940.399 L95.3158 935.7 Q97.3991 936.834 99.6213 937.389 Q101.844 937.945 104.32 937.945 Q108.325 937.945 110.663 935.838 Q113.001 933.732 113.001 930.121 Q113.001 926.51 110.663 924.403 Q108.325 922.297 104.32 922.297 Q102.445 922.297 100.57 922.714 Q98.7185 923.13 96.7741 924.01 L96.7741 906.649 Z" fill="#000000" fill-rule="evenodd" fill-opacity="1" /><path clip-path="url(#clip250)" d="M136.89 909.727 Q133.279 909.727 131.45 913.292 Q129.644 916.834 129.644 923.964 Q129.644 931.07 131.45 934.635 Q133.279 938.176 136.89 938.176 Q140.524 938.176 142.329 934.635 Q144.158 931.07 144.158 923.964 Q144.158 916.834 142.329 913.292 Q140.524 909.727 136.89 909.727 M136.89 906.024 Q142.7 906.024 145.755 910.63 Q148.834 915.214 148.834 923.964 Q148.834 932.69 145.755 937.297 Q142.7 941.88 136.89 941.88 Q131.079 941.88 128.001 937.297 Q124.945 932.69 124.945 923.964 Q124.945 915.214 128.001 910.63 Q131.079 906.024 136.89 906.024 Z" fill="#000000" fill-rule="evenodd" fill-opacity="1" /><path clip-path="url(#clip250)" d="M62.4919 496.116 Q58.8808 496.116 57.0521 499.681 Q55.2465 503.223 55.2465 510.352 Q55.2465 517.459 57.0521 521.024 Q58.8808 524.565 62.4919 524.565 Q66.1261 524.565 67.9317 521.024 Q69.7604 517.459 69.7604 510.352 Q69.7604 503.223 67.9317 499.681 Q66.1261 496.116 62.4919 496.116 M62.4919 492.413 Q68.302 492.413 71.3576 497.019 Q74.4363 501.602 74.4363 510.352 Q74.4363 519.079 71.3576 523.686 Q68.302 528.269 62.4919 528.269 Q56.6817 528.269 53.603 523.686 Q50.5475 519.079 50.5475 510.352 Q50.5475 501.602 53.603 497.019 Q56.6817 492.413 62.4919 492.413 Z" fill="#000000" fill-rule="evenodd" fill-opacity="1" /><path clip-path="url(#clip250)" d="M82.6538 521.718 L87.538 521.718 L87.538 527.598 L82.6538 527.598 L82.6538 521.718 Z" fill="#000000" fill-rule="evenodd" fill-opacity="1" /><path clip-path="url(#clip250)" d="M96.5426 493.038 L118.765 493.038 L118.765 495.028 L106.218 527.598 L101.334 527.598 L113.14 496.973 L96.5426 496.973 L96.5426 493.038 Z" fill="#000000" fill-rule="evenodd" fill-opacity="1" /><path clip-path="url(#clip250)" d="M127.931 493.038 L146.288 493.038 L146.288 496.973 L132.214 496.973 L132.214 505.445 Q133.232 505.098 134.251 504.936 Q135.269 504.751 136.288 504.751 Q142.075 504.751 145.454 507.922 Q148.834 511.093 148.834 516.51 Q148.834 522.088 145.362 525.19 Q141.89 528.269 135.57 528.269 Q133.394 528.269 131.126 527.899 Q128.88 527.528 126.473 526.788 L126.473 522.088 Q128.556 523.223 130.779 523.778 Q133.001 524.334 135.478 524.334 Q139.482 524.334 141.82 522.227 Q144.158 520.121 144.158 516.51 Q144.158 512.899 141.82 510.792 Q139.482 508.686 135.478 508.686 Q133.603 508.686 131.728 509.102 Q129.876 509.519 127.931 510.399 L127.931 493.038 Z" fill="#000000" fill-rule="evenodd" fill-opacity="1" /><path clip-path="url(#clip250)" d="M52.3067 110.051 L59.9456 110.051 L59.9456 83.6859 L51.6354 85.3525 L51.6354 81.0933 L59.8993 79.4266 L64.5752 79.4266 L64.5752 110.051 L72.214 110.051 L72.214 113.987 L52.3067 113.987 L52.3067 110.051 Z" fill="#000000" fill-rule="evenodd" fill-opacity="1" /><path clip-path="url(#clip250)" d="M81.6584 108.107 L86.5427 108.107 L86.5427 113.987 L81.6584 113.987 L81.6584 108.107 Z" fill="#000000" fill-rule="evenodd" fill-opacity="1" /><path clip-path="url(#clip250)" d="M106.728 82.5053 Q103.117 82.5053 101.288 86.0701 Q99.4824 89.6118 99.4824 96.7414 Q99.4824 103.848 101.288 107.413 Q103.117 110.954 106.728 110.954 Q110.362 110.954 112.168 107.413 Q113.996 103.848 113.996 96.7414 Q113.996 89.6118 112.168 86.0701 Q110.362 82.5053 106.728 82.5053 M106.728 78.8017 Q112.538 78.8017 115.593 83.4081 Q118.672 87.9914 118.672 96.7414 Q118.672 105.468 115.593 110.075 Q112.538 114.658 106.728 114.658 Q100.918 114.658 97.8389 110.075 Q94.7834 105.468 94.7834 96.7414 Q94.7834 87.9914 97.8389 83.4081 Q100.918 78.8017 106.728 78.8017 Z" fill="#000000" fill-rule="evenodd" fill-opacity="1" /><path clip-path="url(#clip250)" d="M136.89 82.5053 Q133.279 82.5053 131.45 86.0701 Q129.644 89.6118 129.644 96.7414 Q129.644 103.848 131.45 107.413 Q133.279 110.954 136.89 110.954 Q140.524 110.954 142.329 107.413 Q144.158 103.848 144.158 96.7414 Q144.158 89.6118 142.329 86.0701 Q140.524 82.5053 136.89 82.5053 M136.89 78.8017 Q142.7 78.8017 145.755 83.4081 Q148.834 87.9914 148.834 96.7414 Q148.834 105.468 145.755 110.075 Q142.7 114.658 136.89 114.658 Q131.079 114.658 128.001 110.075 Q124.945 105.468 124.945 96.7414 Q124.945 87.9914 128.001 83.4081 Q131.079 78.8017 136.89 78.8017 Z" fill="#000000" fill-rule="evenodd" fill-opacity="1" /><polyline clip-path="url(#clip252)" style="stroke:#009af9; stroke-linecap:butt; stroke-linejoin:round; stroke-width:4; stroke-opacity:1; fill:none" points="
  258.539,1751.15 273.597,1686.52 412.828,1088.94 496.5,729.823 567.244,426.192 586.455,343.734 605.667,261.277 615.273,220.049 624.879,178.82 629.682,158.206 
  634.485,137.591 636.887,127.284 639.288,116.977 640.489,111.823 641.69,106.67 642.89,101.516 644.091,97.0506 645.198,101.802 646.305,106.553 647.412,111.304 
  648.519,116.055 650.733,125.557 652.947,135.06 657.375,154.064 661.803,173.069 670.659,211.078 679.514,249.087 697.226,325.105 714.938,401.124 790.893,727.122 
  878.894,1104.82 917.997,1272.65 957.099,1440.48 974.244,1514.07 991.389,1587.65 999.961,1624.44 1008.53,1661.24 1012.82,1679.63 1017.11,1698.03 1021.39,1716.42 
  1025.68,1734.82 1028.01,1744.85 1030.35,1751.15 1032.69,1751.15 1035.02,1751.15 1039.7,1751.15 1044.37,1751.15 1053.72,1751.15 1063.06,1751.15 1081.76,1751.15 
  1100.45,1751.15 1138.05,1751.15 1175.66,1751.15 1258.82,1751.15 1337.94,1751.15 1420.21,1751.15 1489.47,1751.15 1574.02,1751.15 1651.47,1751.15 1723.01,1751.15 
  1795.47,1751.15 1876.68,1751.15 1950.27,1751.15 2034.52,1751.15 2112.53,1751.15 2189.45,1751.15 2264.12,1751.15 2340.67,1751.15 2424.54,1751.15 2546.38,1751.15 
  2571.37,1751.15 
  "/>
<polyline clip-path="url(#clip252)" style="stroke:#e26f46; stroke-linecap:butt; stroke-linejoin:round; stroke-width:4; stroke-opacity:1; fill:none" points="
  258.539,1751.15 273.597,1729.61 412.828,1530.42 496.5,1410.71 567.244,1309.5 644.091,1199.55 714.938,1098.2 790.893,989.531 878.894,863.63 957.099,751.745 
  1025.68,653.632 1100.45,546.662 1175.66,439.056 1258.82,320.084 1337.94,206.885 1358.51,177.46 1379.08,148.035 1389.36,133.322 1399.65,118.61 1404.79,111.253 
  1409.93,103.897 1412.5,100.219 1415.07,96.8724 1417.64,100.551 1420.21,104.229 1428.87,116.614 1437.53,128.998 1446.18,141.383 1454.84,153.768 1472.15,178.538 
  1489.47,203.307 1574.02,324.271 1651.47,435.082 1723.01,537.424 1795.47,641.094 1876.68,757.278 1950.27,862.56 2034.52,983.1 2112.53,1094.71 2189.45,1204.74 
  2264.12,1311.58 2340.67,1421.1 2424.54,1541.09 2546.38,1715.39 2571.37,1751.15 
  "/>
<path clip-path="url(#clip250)" d="
M1942.01 261.215 L2559.04 261.215 L2559.04 105.695 L1942.01 105.695  Z
  " fill="#ffffff" fill-rule="evenodd" fill-opacity="1"/>
<polyline clip-path="url(#clip250)" style="stroke:#000000; stroke-linecap:butt; stroke-linejoin:round; stroke-width:4; stroke-opacity:1; fill:none" points="
  1942.01,261.215 2559.04,261.215 2559.04,105.695 1942.01,105.695 1942.01,261.215 
  "/>
<polyline clip-path="url(#clip250)" style="stroke:#009af9; stroke-linecap:butt; stroke-linejoin:round; stroke-width:4; stroke-opacity:1; fill:none" points="
  1969.25,157.535 2132.69,157.535 
  "/>
<path clip-path="url(#clip250)" d="M2176.43 138.797 L2176.43 142.339 L2172.36 142.339 Q2170.07 142.339 2169.16 143.265 Q2168.28 144.19 2168.28 146.598 L2168.28 148.889 L2175.3 148.889 L2175.3 152.2 L2168.28 152.2 L2168.28 174.815 L2164 174.815 L2164 152.2 L2159.93 152.2 L2159.93 148.889 L2164 148.889 L2164 147.084 Q2164 142.755 2166.02 140.788 Q2168.03 138.797 2172.4 138.797 L2176.43 138.797 Z" fill="#000000" fill-rule="evenodd" fill-opacity="1" /><polyline clip-path="url(#clip250)" style="stroke:#e26f46; stroke-linecap:butt; stroke-linejoin:round; stroke-width:4; stroke-opacity:1; fill:none" points="
  1969.25,209.375 2132.69,209.375 
  "/>
<path clip-path="url(#clip250)" d="M2178.35 201.493 L2178.35 205.521 Q2176.55 204.595 2174.6 204.132 Q2172.66 203.669 2170.58 203.669 Q2167.4 203.669 2165.81 204.641 Q2164.23 205.614 2164.23 207.558 Q2164.23 209.04 2165.37 209.896 Q2166.5 210.729 2169.93 211.493 L2171.39 211.817 Q2175.92 212.79 2177.82 214.572 Q2179.74 216.331 2179.74 219.503 Q2179.74 223.114 2176.87 225.22 Q2174.03 227.327 2169.03 227.327 Q2166.94 227.327 2164.67 226.91 Q2162.43 226.516 2159.93 225.706 L2159.93 221.308 Q2162.29 222.535 2164.58 223.16 Q2166.87 223.762 2169.12 223.762 Q2172.13 223.762 2173.75 222.743 Q2175.37 221.702 2175.37 219.827 Q2175.37 218.09 2174.19 217.165 Q2173.03 216.239 2169.07 215.382 L2167.59 215.035 Q2163.63 214.202 2161.87 212.489 Q2160.11 210.753 2160.11 207.743 Q2160.11 204.086 2162.71 202.095 Q2165.3 200.104 2170.07 200.104 Q2172.43 200.104 2174.51 200.452 Q2176.59 200.799 2178.35 201.493 Z" fill="#000000" fill-rule="evenodd" fill-opacity="1" /><path clip-path="url(#clip250)" d="M2205.18 201.725 L2205.18 205.706 Q2203.38 204.711 2201.55 204.225 Q2199.74 203.716 2197.89 203.716 Q2193.75 203.716 2191.46 206.354 Q2189.16 208.97 2189.16 213.716 Q2189.16 218.461 2191.46 221.1 Q2193.75 223.715 2197.89 223.715 Q2199.74 223.715 2201.55 223.229 Q2203.38 222.72 2205.18 221.725 L2205.18 225.66 Q2203.4 226.493 2201.48 226.91 Q2199.58 227.327 2197.43 227.327 Q2191.57 227.327 2188.12 223.646 Q2184.67 219.965 2184.67 213.716 Q2184.67 207.373 2188.15 203.739 Q2191.64 200.104 2197.71 200.104 Q2199.67 200.104 2201.55 200.521 Q2203.42 200.915 2205.18 201.725 Z" fill="#000000" fill-rule="evenodd" fill-opacity="1" /><path clip-path="url(#clip250)" d="M2224.37 213.623 Q2219.21 213.623 2217.22 214.803 Q2215.23 215.984 2215.23 218.831 Q2215.23 221.1 2216.71 222.442 Q2218.21 223.762 2220.78 223.762 Q2224.33 223.762 2226.46 221.262 Q2228.61 218.739 2228.61 214.572 L2228.61 213.623 L2224.37 213.623 M2232.87 211.864 L2232.87 226.655 L2228.61 226.655 L2228.61 222.72 Q2227.15 225.081 2224.97 226.215 Q2222.8 227.327 2219.65 227.327 Q2215.67 227.327 2213.31 225.104 Q2210.97 222.859 2210.97 219.109 Q2210.97 214.734 2213.89 212.512 Q2216.83 210.29 2222.64 210.29 L2228.61 210.29 L2228.61 209.873 Q2228.61 206.933 2226.66 205.336 Q2224.74 203.716 2221.25 203.716 Q2219.02 203.716 2216.92 204.248 Q2214.81 204.78 2212.87 205.845 L2212.87 201.91 Q2215.21 201.007 2217.4 200.567 Q2219.6 200.104 2221.69 200.104 Q2227.31 200.104 2230.09 203.021 Q2232.87 205.938 2232.87 211.864 Z" fill="#000000" fill-rule="evenodd" fill-opacity="1" /><path clip-path="url(#clip250)" d="M2241.64 190.637 L2245.9 190.637 L2245.9 226.655 L2241.64 226.655 L2241.64 190.637 Z" fill="#000000" fill-rule="evenodd" fill-opacity="1" /><path clip-path="url(#clip250)" d="M2276.99 212.628 L2276.99 214.711 L2257.4 214.711 Q2257.68 219.109 2260.04 221.424 Q2262.43 223.715 2266.66 223.715 Q2269.12 223.715 2271.41 223.114 Q2273.72 222.512 2275.99 221.308 L2275.99 225.336 Q2273.7 226.308 2271.29 226.817 Q2268.89 227.327 2266.41 227.327 Q2260.21 227.327 2256.57 223.715 Q2252.96 220.104 2252.96 213.947 Q2252.96 207.581 2256.39 203.854 Q2259.83 200.104 2265.67 200.104 Q2270.9 200.104 2273.93 203.484 Q2276.99 206.841 2276.99 212.628 M2272.73 211.378 Q2272.68 207.882 2270.76 205.799 Q2268.86 203.716 2265.71 203.716 Q2262.15 203.716 2260 205.729 Q2257.87 207.743 2257.54 211.401 L2272.73 211.378 Z" fill="#000000" fill-rule="evenodd" fill-opacity="1" /><path clip-path="url(#clip250)" d="M2310.83 213.623 Q2305.67 213.623 2303.68 214.803 Q2301.69 215.984 2301.69 218.831 Q2301.69 221.1 2303.17 222.442 Q2304.67 223.762 2307.24 223.762 Q2310.78 223.762 2312.91 221.262 Q2315.07 218.739 2315.07 214.572 L2315.07 213.623 L2310.83 213.623 M2319.33 211.864 L2319.33 226.655 L2315.07 226.655 L2315.07 222.72 Q2313.61 225.081 2311.43 226.215 Q2309.26 227.327 2306.11 227.327 Q2302.13 227.327 2299.77 225.104 Q2297.43 222.859 2297.43 219.109 Q2297.43 214.734 2300.34 212.512 Q2303.28 210.29 2309.09 210.29 L2315.07 210.29 L2315.07 209.873 Q2315.07 206.933 2313.12 205.336 Q2311.2 203.716 2307.71 203.716 Q2305.48 203.716 2303.38 204.248 Q2301.27 204.78 2299.33 205.845 L2299.33 201.91 Q2301.66 201.007 2303.86 200.567 Q2306.06 200.104 2308.14 200.104 Q2313.77 200.104 2316.55 203.021 Q2319.33 205.938 2319.33 211.864 Z" fill="#000000" fill-rule="evenodd" fill-opacity="1" /><path clip-path="url(#clip250)" d="M2349.65 211.007 L2349.65 226.655 L2345.39 226.655 L2345.39 211.146 Q2345.39 207.466 2343.95 205.637 Q2342.52 203.808 2339.65 203.808 Q2336.2 203.808 2334.21 206.007 Q2332.22 208.206 2332.22 212.003 L2332.22 226.655 L2327.94 226.655 L2327.94 200.729 L2332.22 200.729 L2332.22 204.757 Q2333.75 202.419 2335.81 201.262 Q2337.89 200.104 2340.6 200.104 Q2345.07 200.104 2347.36 202.882 Q2349.65 205.637 2349.65 211.007 Z" fill="#000000" fill-rule="evenodd" fill-opacity="1" /><path clip-path="url(#clip250)" d="M2375.2 204.665 L2375.2 190.637 L2379.46 190.637 L2379.46 226.655 L2375.2 226.655 L2375.2 222.766 Q2373.86 225.081 2371.8 226.215 Q2369.76 227.327 2366.89 227.327 Q2362.2 227.327 2359.23 223.577 Q2356.29 219.827 2356.29 213.716 Q2356.29 207.604 2359.23 203.854 Q2362.2 200.104 2366.89 200.104 Q2369.76 200.104 2371.8 201.239 Q2373.86 202.35 2375.2 204.665 M2360.69 213.716 Q2360.69 218.415 2362.61 221.1 Q2364.56 223.762 2367.94 223.762 Q2371.32 223.762 2373.26 221.1 Q2375.2 218.415 2375.2 213.716 Q2375.2 209.016 2373.26 206.354 Q2371.32 203.669 2367.94 203.669 Q2364.56 203.669 2362.61 206.354 Q2360.69 209.016 2360.69 213.716 Z" fill="#000000" fill-rule="evenodd" fill-opacity="1" /><path clip-path="url(#clip250)" d="M2413.35 203.716 Q2409.93 203.716 2407.94 206.401 Q2405.95 209.063 2405.95 213.716 Q2405.95 218.368 2407.91 221.053 Q2409.9 223.715 2413.35 223.715 Q2416.76 223.715 2418.75 221.03 Q2420.74 218.345 2420.74 213.716 Q2420.74 209.109 2418.75 206.424 Q2416.76 203.716 2413.35 203.716 M2413.35 200.104 Q2418.91 200.104 2422.08 203.716 Q2425.25 207.327 2425.25 213.716 Q2425.25 220.081 2422.08 223.715 Q2418.91 227.327 2413.35 227.327 Q2407.77 227.327 2404.6 223.715 Q2401.45 220.081 2401.45 213.716 Q2401.45 207.327 2404.6 203.716 Q2407.77 200.104 2413.35 200.104 Z" fill="#000000" fill-rule="evenodd" fill-opacity="1" /><path clip-path="url(#clip250)" d="M2429.26 200.729 L2433.77 200.729 L2441.87 222.489 L2449.97 200.729 L2454.49 200.729 L2444.76 226.655 L2438.98 226.655 L2429.26 200.729 Z" fill="#000000" fill-rule="evenodd" fill-opacity="1" /><path clip-path="url(#clip250)" d="M2482.54 212.628 L2482.54 214.711 L2462.96 214.711 Q2463.24 219.109 2465.6 221.424 Q2467.98 223.715 2472.22 223.715 Q2474.67 223.715 2476.96 223.114 Q2479.28 222.512 2481.55 221.308 L2481.55 225.336 Q2479.26 226.308 2476.85 226.817 Q2474.44 227.327 2471.96 227.327 Q2465.76 227.327 2462.13 223.715 Q2458.51 220.104 2458.51 213.947 Q2458.51 207.581 2461.94 203.854 Q2465.39 200.104 2471.22 200.104 Q2476.45 200.104 2479.49 203.484 Q2482.54 206.841 2482.54 212.628 M2478.28 211.378 Q2478.24 207.882 2476.32 205.799 Q2474.42 203.716 2471.27 203.716 Q2467.7 203.716 2465.55 205.729 Q2463.42 207.743 2463.1 211.401 L2478.28 211.378 Z" fill="#000000" fill-rule="evenodd" fill-opacity="1" /><path clip-path="url(#clip250)" d="M2504.56 204.711 Q2503.84 204.294 2502.98 204.109 Q2502.15 203.901 2501.13 203.901 Q2497.52 203.901 2495.57 206.262 Q2493.65 208.6 2493.65 212.998 L2493.65 226.655 L2489.37 226.655 L2489.37 200.729 L2493.65 200.729 L2493.65 204.757 Q2495 202.396 2497.15 201.262 Q2499.3 200.104 2502.38 200.104 Q2502.82 200.104 2503.35 200.174 Q2503.88 200.22 2504.53 200.336 L2504.56 204.711 Z" fill="#000000" fill-rule="evenodd" fill-opacity="1" /></svg>
