<?xml version="1.0" encoding="utf-8"?>
<svg xmlns="http://www.w3.org/2000/svg" xmlns:xlink="http://www.w3.org/1999/xlink" width="672" height="480" viewBox="0 0 2688 1920">
<defs>
  <clipPath id="clip530">
    <rect x="0" y="0" width="2688" height="1920"/>
  </clipPath>
</defs>
<path clip-path="url(#clip530)" d="
M0 1920 L2688 1920 L2688 0 L0 0  Z
  " fill="#ffffff" fill-rule="evenodd" fill-opacity="1"/>
<defs>
  <clipPath id="clip531">
    <rect x="537" y="0" width="1883" height="1883"/>
  </clipPath>
</defs>
<path clip-path="url(#clip530)" d="
M189.154 1800.78 L2640.76 1800.78 L2640.76 47.2441 L189.154 47.2441  Z
  " fill="#ffffff" fill-rule="evenodd" fill-opacity="1"/>
<defs>
  <clipPath id="clip532">
    <rect x="189" y="47" width="2453" height="1755"/>
  </clipPath>
</defs>
<polyline clip-path="url(#clip532)" style="stroke:#000000; stroke-linecap:round; stroke-linejoin:round; stroke-width:2; stroke-opacity:0.1; fill:none" points="
  489.822,1800.78 489.822,47.2441 
  "/>
<polyline clip-path="url(#clip532)" style="stroke:#000000; stroke-linecap:round; stroke-linejoin:round; stroke-width:2; stroke-opacity:0.1; fill:none" points="
  952.389,1800.78 952.389,47.2441 
  "/>
<polyline clip-path="url(#clip532)" style="stroke:#000000; stroke-linecap:round; stroke-linejoin:round; stroke-width:2; stroke-opacity:0.1; fill:none" points="
  1414.95,1800.78 1414.95,47.2441 
  "/>
<polyline clip-path="url(#clip532)" style="stroke:#000000; stroke-linecap:round; stroke-linejoin:round; stroke-width:2; stroke-opacity:0.1; fill:none" points="
  1877.52,1800.78 1877.52,47.2441 
  "/>
<polyline clip-path="url(#clip532)" style="stroke:#000000; stroke-linecap:round; stroke-linejoin:round; stroke-width:2; stroke-opacity:0.1; fill:none" points="
  2340.09,1800.78 2340.09,47.2441 
  "/>
<polyline clip-path="url(#clip530)" style="stroke:#000000; stroke-linecap:round; stroke-linejoin:round; stroke-width:4; stroke-opacity:1; fill:none" points="
  189.154,1800.78 2640.76,1800.78 
  "/>
<polyline clip-path="url(#clip530)" style="stroke:#000000; stroke-linecap:round; stroke-linejoin:round; stroke-width:4; stroke-opacity:1; fill:none" points="
  489.822,1800.78 489.822,1781.88 
  "/>
<polyline clip-path="url(#clip530)" style="stroke:#000000; stroke-linecap:round; stroke-linejoin:round; stroke-width:4; stroke-opacity:1; fill:none" points="
  952.389,1800.78 952.389,1781.88 
  "/>
<polyline clip-path="url(#clip530)" style="stroke:#000000; stroke-linecap:round; stroke-linejoin:round; stroke-width:4; stroke-opacity:1; fill:none" points="
  1414.95,1800.78 1414.95,1781.88 
  "/>
<polyline clip-path="url(#clip530)" style="stroke:#000000; stroke-linecap:round; stroke-linejoin:round; stroke-width:4; stroke-opacity:1; fill:none" points="
  1877.52,1800.78 1877.52,1781.88 
  "/>
<polyline clip-path="url(#clip530)" style="stroke:#000000; stroke-linecap:round; stroke-linejoin:round; stroke-width:4; stroke-opacity:1; fill:none" points="
  2340.09,1800.78 2340.09,1781.88 
  "/>
<path clip-path="url(#clip530)" d="M489.822 1834 Q486.211 1834 484.382 1837.57 Q482.577 1841.11 482.577 1848.24 Q482.577 1855.34 484.382 1858.91 Q486.211 1862.45 489.822 1862.45 Q493.456 1862.45 495.262 1858.91 Q497.091 1855.34 497.091 1848.24 Q497.091 1841.11 495.262 1837.57 Q493.456 1834 489.822 1834 M489.822 1830.3 Q495.632 1830.3 498.688 1834.9 Q501.767 1839.49 501.767 1848.24 Q501.767 1856.96 498.688 1861.57 Q495.632 1866.15 489.822 1866.15 Q484.012 1866.15 480.933 1861.57 Q477.878 1856.96 477.878 1848.24 Q477.878 1839.49 480.933 1834.9 Q484.012 1830.3 489.822 1830.3 Z" fill="#000000" fill-rule="evenodd" fill-opacity="1" /><path clip-path="url(#clip530)" d="M947.041 1861.55 L963.361 1861.55 L963.361 1865.48 L941.416 1865.48 L941.416 1861.55 Q944.078 1858.79 948.662 1854.16 Q953.268 1849.51 954.449 1848.17 Q956.694 1845.65 957.574 1843.91 Q958.476 1842.15 958.476 1840.46 Q958.476 1837.71 956.532 1835.97 Q954.611 1834.23 951.509 1834.23 Q949.31 1834.23 946.856 1835 Q944.426 1835.76 941.648 1837.31 L941.648 1832.59 Q944.472 1831.46 946.926 1830.88 Q949.379 1830.3 951.416 1830.3 Q956.787 1830.3 959.981 1832.98 Q963.176 1835.67 963.176 1840.16 Q963.176 1842.29 962.365 1844.21 Q961.578 1846.11 959.472 1848.7 Q958.893 1849.37 955.791 1852.59 Q952.689 1855.78 947.041 1861.55 Z" fill="#000000" fill-rule="evenodd" fill-opacity="1" /><path clip-path="url(#clip530)" d="M1417.96 1835 L1406.16 1853.45 L1417.96 1853.45 L1417.96 1835 M1416.74 1830.92 L1422.62 1830.92 L1422.62 1853.45 L1427.55 1853.45 L1427.55 1857.34 L1422.62 1857.34 L1422.62 1865.48 L1417.96 1865.48 L1417.96 1857.34 L1402.36 1857.34 L1402.36 1852.82 L1416.74 1830.92 Z" fill="#000000" fill-rule="evenodd" fill-opacity="1" /><path clip-path="url(#clip530)" d="M1877.93 1846.34 Q1874.78 1846.34 1872.93 1848.49 Q1871.1 1850.65 1871.1 1854.4 Q1871.1 1858.12 1872.93 1860.3 Q1874.78 1862.45 1877.93 1862.45 Q1881.07 1862.45 1882.9 1860.3 Q1884.76 1858.12 1884.76 1854.4 Q1884.76 1850.65 1882.9 1848.49 Q1881.07 1846.34 1877.93 1846.34 M1887.21 1831.69 L1887.21 1835.95 Q1885.45 1835.11 1883.64 1834.67 Q1881.86 1834.23 1880.1 1834.23 Q1875.47 1834.23 1873.02 1837.36 Q1870.59 1840.48 1870.24 1846.8 Q1871.61 1844.79 1873.67 1843.72 Q1875.73 1842.64 1878.2 1842.64 Q1883.41 1842.64 1886.42 1845.81 Q1889.45 1848.96 1889.45 1854.4 Q1889.45 1859.72 1886.31 1862.94 Q1883.16 1866.15 1877.93 1866.15 Q1871.93 1866.15 1868.76 1861.57 Q1865.59 1856.96 1865.59 1848.24 Q1865.59 1840.04 1869.48 1835.18 Q1873.37 1830.3 1879.92 1830.3 Q1881.68 1830.3 1883.46 1830.65 Q1885.26 1830.99 1887.21 1831.69 Z" fill="#000000" fill-rule="evenodd" fill-opacity="1" /><path clip-path="url(#clip530)" d="M2340.09 1849.07 Q2336.75 1849.07 2334.83 1850.85 Q2332.94 1852.64 2332.94 1855.76 Q2332.94 1858.89 2334.83 1860.67 Q2336.75 1862.45 2340.09 1862.45 Q2343.42 1862.45 2345.34 1860.67 Q2347.26 1858.86 2347.26 1855.76 Q2347.26 1852.64 2345.34 1850.85 Q2343.44 1849.07 2340.09 1849.07 M2335.41 1847.08 Q2332.4 1846.34 2330.71 1844.28 Q2329.05 1842.22 2329.05 1839.26 Q2329.05 1835.11 2331.99 1832.71 Q2334.95 1830.3 2340.09 1830.3 Q2345.25 1830.3 2348.19 1832.71 Q2351.13 1835.11 2351.13 1839.26 Q2351.13 1842.22 2349.44 1844.28 Q2347.77 1846.34 2344.79 1847.08 Q2348.17 1847.87 2350.04 1850.16 Q2351.94 1852.45 2351.94 1855.76 Q2351.94 1860.78 2348.86 1863.47 Q2345.81 1866.15 2340.09 1866.15 Q2334.37 1866.15 2331.29 1863.47 Q2328.24 1860.78 2328.24 1855.76 Q2328.24 1852.45 2330.13 1850.16 Q2332.03 1847.87 2335.41 1847.08 M2333.7 1839.7 Q2333.7 1842.38 2335.37 1843.89 Q2337.06 1845.39 2340.09 1845.39 Q2343.1 1845.39 2344.79 1843.89 Q2346.5 1842.38 2346.5 1839.7 Q2346.5 1837.01 2344.79 1835.51 Q2343.1 1834 2340.09 1834 Q2337.06 1834 2335.37 1835.51 Q2333.7 1837.01 2333.7 1839.7 Z" fill="#000000" fill-rule="evenodd" fill-opacity="1" /><polyline clip-path="url(#clip532)" style="stroke:#000000; stroke-linecap:round; stroke-linejoin:round; stroke-width:2; stroke-opacity:0.1; fill:none" points="
  189.154,1751.15 2640.76,1751.15 
  "/>
<polyline clip-path="url(#clip532)" style="stroke:#000000; stroke-linecap:round; stroke-linejoin:round; stroke-width:2; stroke-opacity:0.1; fill:none" points="
  189.154,1337.33 2640.76,1337.33 
  "/>
<polyline clip-path="url(#clip532)" style="stroke:#000000; stroke-linecap:round; stroke-linejoin:round; stroke-width:2; stroke-opacity:0.1; fill:none" points="
  189.154,923.507 2640.76,923.507 
  "/>
<polyline clip-path="url(#clip532)" style="stroke:#000000; stroke-linecap:round; stroke-linejoin:round; stroke-width:2; stroke-opacity:0.1; fill:none" points="
  189.154,509.686 2640.76,509.686 
  "/>
<polyline clip-path="url(#clip532)" style="stroke:#000000; stroke-linecap:round; stroke-linejoin:round; stroke-width:2; stroke-opacity:0.1; fill:none" points="
  189.154,95.864 2640.76,95.864 
  "/>
<polyline clip-path="url(#clip530)" style="stroke:#000000; stroke-linecap:round; stroke-linejoin:round; stroke-width:4; stroke-opacity:1; fill:none" points="
  189.154,1800.78 189.154,47.2441 
  "/>
<polyline clip-path="url(#clip530)" style="stroke:#000000; stroke-linecap:round; stroke-linejoin:round; stroke-width:4; stroke-opacity:1; fill:none" points="
  189.154,1751.15 208.052,1751.15 
  "/>
<polyline clip-path="url(#clip530)" style="stroke:#000000; stroke-linecap:round; stroke-linejoin:round; stroke-width:4; stroke-opacity:1; fill:none" points="
  189.154,1337.33 208.052,1337.33 
  "/>
<polyline clip-path="url(#clip530)" style="stroke:#000000; stroke-linecap:round; stroke-linejoin:round; stroke-width:4; stroke-opacity:1; fill:none" points="
  189.154,923.507 208.052,923.507 
  "/>
<polyline clip-path="url(#clip530)" style="stroke:#000000; stroke-linecap:round; stroke-linejoin:round; stroke-width:4; stroke-opacity:1; fill:none" points="
  189.154,509.686 208.052,509.686 
  "/>
<polyline clip-path="url(#clip530)" style="stroke:#000000; stroke-linecap:round; stroke-linejoin:round; stroke-width:4; stroke-opacity:1; fill:none" points="
  189.154,95.864 208.052,95.864 
  "/>
<path clip-path="url(#clip530)" d="M61.4965 1736.95 Q57.8854 1736.95 56.0567 1740.51 Q54.2512 1744.06 54.2512 1751.19 Q54.2512 1758.29 56.0567 1761.86 Q57.8854 1765.4 61.4965 1765.4 Q65.1307 1765.4 66.9363 1761.86 Q68.765 1758.29 68.765 1751.19 Q68.765 1744.06 66.9363 1740.51 Q65.1307 1736.95 61.4965 1736.95 M61.4965 1733.25 Q67.3067 1733.25 70.3622 1737.85 Q73.4409 1742.44 73.4409 1751.19 Q73.4409 1759.91 70.3622 1764.52 Q67.3067 1769.1 61.4965 1769.1 Q55.6864 1769.1 52.6077 1764.52 Q49.5521 1759.91 49.5521 1751.19 Q49.5521 1742.44 52.6077 1737.85 Q55.6864 1733.25 61.4965 1733.25 Z" fill="#000000" fill-rule="evenodd" fill-opacity="1" /><path clip-path="url(#clip530)" d="M81.6584 1762.55 L86.5427 1762.55 L86.5427 1768.43 L81.6584 1768.43 L81.6584 1762.55 Z" fill="#000000" fill-rule="evenodd" fill-opacity="1" /><path clip-path="url(#clip530)" d="M106.728 1736.95 Q103.117 1736.95 101.288 1740.51 Q99.4824 1744.06 99.4824 1751.19 Q99.4824 1758.29 101.288 1761.86 Q103.117 1765.4 106.728 1765.4 Q110.362 1765.4 112.168 1761.86 Q113.996 1758.29 113.996 1751.19 Q113.996 1744.06 112.168 1740.51 Q110.362 1736.95 106.728 1736.95 M106.728 1733.25 Q112.538 1733.25 115.593 1737.85 Q118.672 1742.44 118.672 1751.19 Q118.672 1759.91 115.593 1764.52 Q112.538 1769.1 106.728 1769.1 Q100.918 1769.1 97.8389 1764.52 Q94.7834 1759.91 94.7834 1751.19 Q94.7834 1742.44 97.8389 1737.85 Q100.918 1733.25 106.728 1733.25 Z" fill="#000000" fill-rule="evenodd" fill-opacity="1" /><path clip-path="url(#clip530)" d="M136.89 1736.95 Q133.279 1736.95 131.45 1740.51 Q129.644 1744.06 129.644 1751.19 Q129.644 1758.29 131.45 1761.86 Q133.279 1765.4 136.89 1765.4 Q140.524 1765.4 142.329 1761.86 Q144.158 1758.29 144.158 1751.19 Q144.158 1744.06 142.329 1740.51 Q140.524 1736.95 136.89 1736.95 M136.89 1733.25 Q142.7 1733.25 145.755 1737.85 Q148.834 1742.44 148.834 1751.19 Q148.834 1759.91 145.755 1764.52 Q142.7 1769.1 136.89 1769.1 Q131.079 1769.1 128.001 1764.52 Q124.945 1759.91 124.945 1751.19 Q124.945 1742.44 128.001 1737.85 Q131.079 1733.25 136.89 1733.25 Z" fill="#000000" fill-rule="evenodd" fill-opacity="1" /><path clip-path="url(#clip530)" d="M62.4919 1323.13 Q58.8808 1323.13 57.0521 1326.69 Q55.2465 1330.23 55.2465 1337.36 Q55.2465 1344.47 57.0521 1348.04 Q58.8808 1351.58 62.4919 1351.58 Q66.1261 1351.58 67.9317 1348.04 Q69.7604 1344.47 69.7604 1337.36 Q69.7604 1330.23 67.9317 1326.69 Q66.1261 1323.13 62.4919 1323.13 M62.4919 1319.42 Q68.302 1319.42 71.3576 1324.03 Q74.4363 1328.61 74.4363 1337.36 Q74.4363 1346.09 71.3576 1350.7 Q68.302 1355.28 62.4919 1355.28 Q56.6817 1355.28 53.603 1350.7 Q50.5475 1346.09 50.5475 1337.36 Q50.5475 1328.61 53.603 1324.03 Q56.6817 1319.42 62.4919 1319.42 Z" fill="#000000" fill-rule="evenodd" fill-opacity="1" /><path clip-path="url(#clip530)" d="M82.6538 1348.73 L87.538 1348.73 L87.538 1354.61 L82.6538 1354.61 L82.6538 1348.73 Z" fill="#000000" fill-rule="evenodd" fill-opacity="1" /><path clip-path="url(#clip530)" d="M101.751 1350.67 L118.07 1350.67 L118.07 1354.61 L96.126 1354.61 L96.126 1350.67 Q98.788 1347.92 103.371 1343.29 Q107.978 1338.64 109.158 1337.29 Q111.404 1334.77 112.283 1333.04 Q113.186 1331.28 113.186 1329.59 Q113.186 1326.83 111.242 1325.1 Q109.32 1323.36 106.218 1323.36 Q104.019 1323.36 101.566 1324.12 Q99.1352 1324.89 96.3574 1326.44 L96.3574 1321.72 Q99.1815 1320.58 101.635 1320 Q104.089 1319.42 106.126 1319.42 Q111.496 1319.42 114.691 1322.11 Q117.885 1324.79 117.885 1329.29 Q117.885 1331.41 117.075 1333.34 Q116.288 1335.23 114.181 1337.83 Q113.603 1338.5 110.501 1341.72 Q107.399 1344.91 101.751 1350.67 Z" fill="#000000" fill-rule="evenodd" fill-opacity="1" /><path clip-path="url(#clip530)" d="M127.931 1320.05 L146.288 1320.05 L146.288 1323.98 L132.214 1323.98 L132.214 1332.46 Q133.232 1332.11 134.251 1331.95 Q135.269 1331.76 136.288 1331.76 Q142.075 1331.76 145.454 1334.93 Q148.834 1338.1 148.834 1343.52 Q148.834 1349.1 145.362 1352.2 Q141.89 1355.28 135.57 1355.28 Q133.394 1355.28 131.126 1354.91 Q128.88 1354.54 126.473 1353.8 L126.473 1349.1 Q128.556 1350.23 130.779 1350.79 Q133.001 1351.35 135.478 1351.35 Q139.482 1351.35 141.82 1349.24 Q144.158 1347.13 144.158 1343.52 Q144.158 1339.91 141.82 1337.8 Q139.482 1335.7 135.478 1335.7 Q133.603 1335.7 131.728 1336.11 Q129.876 1336.53 127.931 1337.41 L127.931 1320.05 Z" fill="#000000" fill-rule="evenodd" fill-opacity="1" /><path clip-path="url(#clip530)" d="M61.4965 909.306 Q57.8854 909.306 56.0567 912.871 Q54.2512 916.413 54.2512 923.542 Q54.2512 930.649 56.0567 934.213 Q57.8854 937.755 61.4965 937.755 Q65.1307 937.755 66.9363 934.213 Q68.765 930.649 68.765 923.542 Q68.765 916.413 66.9363 912.871 Q65.1307 909.306 61.4965 909.306 M61.4965 905.602 Q67.3067 905.602 70.3622 910.209 Q73.4409 914.792 73.4409 923.542 Q73.4409 932.269 70.3622 936.875 Q67.3067 941.459 61.4965 941.459 Q55.6864 941.459 52.6077 936.875 Q49.5521 932.269 49.5521 923.542 Q49.5521 914.792 52.6077 910.209 Q55.6864 905.602 61.4965 905.602 Z" fill="#000000" fill-rule="evenodd" fill-opacity="1" /><path clip-path="url(#clip530)" d="M81.6584 934.908 L86.5427 934.908 L86.5427 940.787 L81.6584 940.787 L81.6584 934.908 Z" fill="#000000" fill-rule="evenodd" fill-opacity="1" /><path clip-path="url(#clip530)" d="M96.7741 906.227 L115.13 906.227 L115.13 910.163 L101.056 910.163 L101.056 918.635 Q102.075 918.288 103.094 918.126 Q104.112 917.94 105.131 917.94 Q110.918 917.94 114.297 921.112 Q117.677 924.283 117.677 929.7 Q117.677 935.278 114.205 938.38 Q110.732 941.459 104.413 941.459 Q102.237 941.459 99.9685 941.088 Q97.7232 940.718 95.3158 939.977 L95.3158 935.278 Q97.3991 936.413 99.6213 936.968 Q101.844 937.524 104.32 937.524 Q108.325 937.524 110.663 935.417 Q113.001 933.311 113.001 929.7 Q113.001 926.089 110.663 923.982 Q108.325 921.876 104.32 921.876 Q102.445 921.876 100.57 922.292 Q98.7185 922.709 96.7741 923.589 L96.7741 906.227 Z" fill="#000000" fill-rule="evenodd" fill-opacity="1" /><path clip-path="url(#clip530)" d="M136.89 909.306 Q133.279 909.306 131.45 912.871 Q129.644 916.413 129.644 923.542 Q129.644 930.649 131.45 934.213 Q133.279 937.755 136.89 937.755 Q140.524 937.755 142.329 934.213 Q144.158 930.649 144.158 923.542 Q144.158 916.413 142.329 912.871 Q140.524 909.306 136.89 909.306 M136.89 905.602 Q142.7 905.602 145.755 910.209 Q148.834 914.792 148.834 923.542 Q148.834 932.269 145.755 936.875 Q142.7 941.459 136.89 941.459 Q131.079 941.459 128.001 936.875 Q124.945 932.269 124.945 923.542 Q124.945 914.792 128.001 910.209 Q131.079 905.602 136.89 905.602 Z" fill="#000000" fill-rule="evenodd" fill-opacity="1" /><path clip-path="url(#clip530)" d="M62.4919 495.484 Q58.8808 495.484 57.0521 499.049 Q55.2465 502.591 55.2465 509.72 Q55.2465 516.827 57.0521 520.392 Q58.8808 523.933 62.4919 523.933 Q66.1261 523.933 67.9317 520.392 Q69.7604 516.827 69.7604 509.72 Q69.7604 502.591 67.9317 499.049 Q66.1261 495.484 62.4919 495.484 M62.4919 491.781 Q68.302 491.781 71.3576 496.387 Q74.4363 500.971 74.4363 509.72 Q74.4363 518.447 71.3576 523.054 Q68.302 527.637 62.4919 527.637 Q56.6817 527.637 53.603 523.054 Q50.5475 518.447 50.5475 509.72 Q50.5475 500.971 53.603 496.387 Q56.6817 491.781 62.4919 491.781 Z" fill="#000000" fill-rule="evenodd" fill-opacity="1" /><path clip-path="url(#clip530)" d="M82.6538 521.086 L87.538 521.086 L87.538 526.966 L82.6538 526.966 L82.6538 521.086 Z" fill="#000000" fill-rule="evenodd" fill-opacity="1" /><path clip-path="url(#clip530)" d="M96.5426 492.406 L118.765 492.406 L118.765 494.396 L106.218 526.966 L101.334 526.966 L113.14 496.341 L96.5426 496.341 L96.5426 492.406 Z" fill="#000000" fill-rule="evenodd" fill-opacity="1" /><path clip-path="url(#clip530)" d="M127.931 492.406 L146.288 492.406 L146.288 496.341 L132.214 496.341 L132.214 504.813 Q133.232 504.466 134.251 504.304 Q135.269 504.119 136.288 504.119 Q142.075 504.119 145.454 507.29 Q148.834 510.461 148.834 515.878 Q148.834 521.457 145.362 524.558 Q141.89 527.637 135.57 527.637 Q133.394 527.637 131.126 527.267 Q128.88 526.896 126.473 526.156 L126.473 521.457 Q128.556 522.591 130.779 523.146 Q133.001 523.702 135.478 523.702 Q139.482 523.702 141.82 521.595 Q144.158 519.489 144.158 515.878 Q144.158 512.267 141.82 510.16 Q139.482 508.054 135.478 508.054 Q133.603 508.054 131.728 508.47 Q129.876 508.887 127.931 509.767 L127.931 492.406 Z" fill="#000000" fill-rule="evenodd" fill-opacity="1" /><path clip-path="url(#clip530)" d="M52.3067 109.209 L59.9456 109.209 L59.9456 82.8433 L51.6354 84.5099 L51.6354 80.2507 L59.8993 78.584 L64.5752 78.584 L64.5752 109.209 L72.214 109.209 L72.214 113.144 L52.3067 113.144 L52.3067 109.209 Z" fill="#000000" fill-rule="evenodd" fill-opacity="1" /><path clip-path="url(#clip530)" d="M81.6584 107.264 L86.5427 107.264 L86.5427 113.144 L81.6584 113.144 L81.6584 107.264 Z" fill="#000000" fill-rule="evenodd" fill-opacity="1" /><path clip-path="url(#clip530)" d="M106.728 81.6627 Q103.117 81.6627 101.288 85.2275 Q99.4824 88.7692 99.4824 95.8988 Q99.4824 103.005 101.288 106.57 Q103.117 110.112 106.728 110.112 Q110.362 110.112 112.168 106.57 Q113.996 103.005 113.996 95.8988 Q113.996 88.7692 112.168 85.2275 Q110.362 81.6627 106.728 81.6627 M106.728 77.959 Q112.538 77.959 115.593 82.5655 Q118.672 87.1488 118.672 95.8988 Q118.672 104.626 115.593 109.232 Q112.538 113.815 106.728 113.815 Q100.918 113.815 97.8389 109.232 Q94.7834 104.626 94.7834 95.8988 Q94.7834 87.1488 97.8389 82.5655 Q100.918 77.959 106.728 77.959 Z" fill="#000000" fill-rule="evenodd" fill-opacity="1" /><path clip-path="url(#clip530)" d="M136.89 81.6627 Q133.279 81.6627 131.45 85.2275 Q129.644 88.7692 129.644 95.8988 Q129.644 103.005 131.45 106.57 Q133.279 110.112 136.89 110.112 Q140.524 110.112 142.329 106.57 Q144.158 103.005 144.158 95.8988 Q144.158 88.7692 142.329 85.2275 Q140.524 81.6627 136.89 81.6627 M136.89 77.959 Q142.7 77.959 145.755 82.5655 Q148.834 87.1488 148.834 95.8988 Q148.834 104.626 145.755 109.232 Q142.7 113.815 136.89 113.815 Q131.079 113.815 128.001 109.232 Q124.945 104.626 124.945 95.8988 Q124.945 87.1488 128.001 82.5655 Q131.079 77.959 136.89 77.959 Z" fill="#000000" fill-rule="evenodd" fill-opacity="1" /><polyline clip-path="url(#clip532)" style="stroke:#009af9; stroke-linecap:round; stroke-linejoin:round; stroke-width:4; stroke-opacity:1; fill:none" points="
  258.539,1751.15 266.068,1697.27 273.597,1643.38 343.212,1145.15 412.828,646.91 433.746,497.2 454.664,347.491 465.123,272.636 475.582,197.781 478.197,179.067 
  480.811,160.354 483.426,141.64 486.041,122.926 487.348,113.569 488.656,104.212 489.309,99.5341 489.963,96.8724 490.617,101.551 491.27,106.229 492.578,115.586 
  493.885,124.943 495.193,134.3 496.5,143.657 500.921,175.301 505.343,206.946 509.764,238.59 514.186,270.234 523.029,333.523 531.872,396.812 549.558,523.39 
  567.244,649.967 605.667,924.965 644.091,1199.96 661.803,1326.72 679.514,1453.49 688.37,1516.87 697.226,1580.25 701.654,1611.94 706.082,1643.63 710.51,1675.32 
  714.938,1707.01 717.311,1724 719.685,1740.98 720.872,1749.48 722.058,1751.15 723.245,1751.15 724.432,1751.15 729.179,1751.15 733.926,1751.15 743.421,1751.15 
  752.915,1751.15 771.904,1751.15 790.893,1751.15 834.893,1751.15 878.894,1751.15 957.099,1751.15 1025.68,1751.15 1100.45,1751.15 1175.66,1751.15 1258.82,1751.15 
  1337.94,1751.15 1420.21,1751.15 1489.47,1751.15 1574.02,1751.15 1651.47,1751.15 1723.01,1751.15 1795.47,1751.15 1876.68,1751.15 1950.27,1751.15 2034.52,1751.15 
  2112.53,1751.15 2189.45,1751.15 2264.12,1751.15 2340.67,1751.15 2424.54,1751.15 2546.38,1751.15 2571.37,1751.15 
  "/>
<polyline clip-path="url(#clip532)" style="stroke:#e26f46; stroke-linecap:round; stroke-linejoin:round; stroke-width:4; stroke-opacity:1; fill:none" points="
  258.539,1751.15 273.597,1751.15 412.828,1751.15 496.5,1751.15 567.244,1751.15 644.091,1751.15 714.938,1751.15 790.893,1751.15 878.894,1751.15 957.099,1751.15 
  1025.68,1751.15 1063.06,1751.15 1100.45,1751.15 1119.25,1751.15 1138.05,1751.15 1147.46,1751.15 1156.86,1751.15 1166.26,1751.15 1175.66,1751.15 1178.26,1751.15 
  1180.86,1751.15 1183.46,1751.15 1186.06,1745.46 1191.25,1733.06 1196.45,1720.66 1206.85,1695.87 1217.24,1671.07 1238.03,1621.47 1258.82,1571.87 1298.38,1477.49 
  1337.94,1383.11 1420.21,1186.85 1489.47,1021.63 1574.02,819.921 1651.47,635.143 1723.01,464.485 1795.47,291.615 1815.77,243.18 1836.07,194.746 1846.22,170.528 
  1856.38,146.311 1861.45,134.202 1866.53,122.093 1869.06,116.039 1871.6,109.985 1874.14,103.93 1876.68,97.8759 1878.98,99.3384 1881.28,104.825 1883.58,110.311 
  1885.88,115.797 1890.48,126.769 1895.08,137.742 1904.27,159.687 1913.47,181.632 1931.87,225.521 1950.27,269.411 2034.52,470.414 2112.53,656.525 2189.45,840.008 
  2264.12,1018.16 2340.67,1200.78 2424.54,1400.86 2546.38,1691.52 2571.37,1751.15 
  "/>
<path clip-path="url(#clip530)" d="
M1944.58 261.215 L2559.04 261.215 L2559.04 105.695 L1944.58 105.695  Z
  " fill="#ffffff" fill-rule="evenodd" fill-opacity="1"/>
<polyline clip-path="url(#clip530)" style="stroke:#000000; stroke-linecap:round; stroke-linejoin:round; stroke-width:4; stroke-opacity:1; fill:none" points="
  1944.58,261.215 2559.04,261.215 2559.04,105.695 1944.58,105.695 1944.58,261.215 
  "/>
<polyline clip-path="url(#clip530)" style="stroke:#009af9; stroke-linecap:round; stroke-linejoin:round; stroke-width:4; stroke-opacity:1; fill:none" points="
  1971.82,157.535 2135.26,157.535 
  "/>
<path clip-path="url(#clip530)" d="M2179 138.797 L2179 142.339 L2174.93 142.339 Q2172.64 142.339 2171.73 143.265 Q2170.85 144.19 2170.85 146.598 L2170.85 148.889 L2177.87 148.889 L2177.87 152.2 L2170.85 152.2 L2170.85 174.815 L2166.57 174.815 L2166.57 152.2 L2162.5 152.2 L2162.5 148.889 L2166.57 148.889 L2166.57 147.084 Q2166.57 142.755 2168.59 140.788 Q2170.6 138.797 2174.97 138.797 L2179 138.797 Z" fill="#000000" fill-rule="evenodd" fill-opacity="1" /><polyline clip-path="url(#clip530)" style="stroke:#e26f46; stroke-linecap:round; stroke-linejoin:round; stroke-width:4; stroke-opacity:1; fill:none" points="
  1971.82,209.375 2135.26,209.375 
  "/>
<path clip-path="url(#clip530)" d="M2174.4 203.716 Q2170.97 203.716 2168.98 206.401 Q2166.99 209.063 2166.99 213.716 Q2166.99 218.368 2168.96 221.053 Q2170.95 223.715 2174.4 223.715 Q2177.8 223.715 2179.79 221.03 Q2181.78 218.345 2181.78 213.716 Q2181.78 209.109 2179.79 206.424 Q2177.8 203.716 2174.4 203.716 M2174.4 200.104 Q2179.95 200.104 2183.12 203.716 Q2186.29 207.327 2186.29 213.716 Q2186.29 220.081 2183.12 223.715 Q2179.95 227.327 2174.4 227.327 Q2168.82 227.327 2165.65 223.715 Q2162.5 220.081 2162.5 213.716 Q2162.5 207.327 2165.65 203.716 Q2168.82 200.104 2174.4 200.104 Z" fill="#000000" fill-rule="evenodd" fill-opacity="1" /><path clip-path="url(#clip530)" d="M2190.3 200.729 L2194.81 200.729 L2202.91 222.489 L2211.02 200.729 L2215.53 200.729 L2205.81 226.655 L2200.02 226.655 L2190.3 200.729 Z" fill="#000000" fill-rule="evenodd" fill-opacity="1" /><path clip-path="url(#clip530)" d="M2243.58 212.628 L2243.58 214.711 L2224 214.711 Q2224.28 219.109 2226.64 221.424 Q2229.02 223.715 2233.26 223.715 Q2235.71 223.715 2238.01 223.114 Q2240.32 222.512 2242.59 221.308 L2242.59 225.336 Q2240.3 226.308 2237.89 226.817 Q2235.48 227.327 2233.01 227.327 Q2226.8 227.327 2223.17 223.715 Q2219.56 220.104 2219.56 213.947 Q2219.56 207.581 2222.98 203.854 Q2226.43 200.104 2232.27 200.104 Q2237.5 200.104 2240.53 203.484 Q2243.58 206.841 2243.58 212.628 M2239.33 211.378 Q2239.28 207.882 2237.36 205.799 Q2235.46 203.716 2232.31 203.716 Q2228.75 203.716 2226.59 205.729 Q2224.46 207.743 2224.14 211.401 L2239.33 211.378 Z" fill="#000000" fill-rule="evenodd" fill-opacity="1" /><path clip-path="url(#clip530)" d="M2265.6 204.711 Q2264.88 204.294 2264.02 204.109 Q2263.19 203.901 2262.17 203.901 Q2258.56 203.901 2256.62 206.262 Q2254.7 208.6 2254.7 212.998 L2254.7 226.655 L2250.41 226.655 L2250.41 200.729 L2254.7 200.729 L2254.7 204.757 Q2256.04 202.396 2258.19 201.262 Q2260.34 200.104 2263.42 200.104 Q2263.86 200.104 2264.4 200.174 Q2264.93 200.22 2265.58 200.336 L2265.6 204.711 Z" fill="#000000" fill-rule="evenodd" fill-opacity="1" /><path clip-path="url(#clip530)" d="M2296.92 213.623 Q2291.76 213.623 2289.77 214.803 Q2287.77 215.984 2287.77 218.831 Q2287.77 221.1 2289.26 222.442 Q2290.76 223.762 2293.33 223.762 Q2296.87 223.762 2299 221.262 Q2301.15 218.739 2301.15 214.572 L2301.15 213.623 L2296.92 213.623 M2305.41 211.864 L2305.41 226.655 L2301.15 226.655 L2301.15 222.72 Q2299.7 225.081 2297.52 226.215 Q2295.34 227.327 2292.2 227.327 Q2288.21 227.327 2285.85 225.104 Q2283.52 222.859 2283.52 219.109 Q2283.52 214.734 2286.43 212.512 Q2289.37 210.29 2295.18 210.29 L2301.15 210.29 L2301.15 209.873 Q2301.15 206.933 2299.21 205.336 Q2297.29 203.716 2293.79 203.716 Q2291.57 203.716 2289.46 204.248 Q2287.36 204.78 2285.41 205.845 L2285.41 201.91 Q2287.75 201.007 2289.95 200.567 Q2292.15 200.104 2294.23 200.104 Q2299.86 200.104 2302.64 203.021 Q2305.41 205.938 2305.41 211.864 Z" fill="#000000" fill-rule="evenodd" fill-opacity="1" /><path clip-path="url(#clip530)" d="M2335.74 211.007 L2335.74 226.655 L2331.48 226.655 L2331.48 211.146 Q2331.48 207.466 2330.04 205.637 Q2328.61 203.808 2325.74 203.808 Q2322.29 203.808 2320.3 206.007 Q2318.31 208.206 2318.31 212.003 L2318.31 226.655 L2314.02 226.655 L2314.02 200.729 L2318.31 200.729 L2318.31 204.757 Q2319.83 202.419 2321.89 201.262 Q2323.98 200.104 2326.69 200.104 Q2331.15 200.104 2333.45 202.882 Q2335.74 205.637 2335.74 211.007 Z" fill="#000000" fill-rule="evenodd" fill-opacity="1" /><path clip-path="url(#clip530)" d="M2361.29 204.665 L2361.29 190.637 L2365.55 190.637 L2365.55 226.655 L2361.29 226.655 L2361.29 222.766 Q2359.95 225.081 2357.89 226.215 Q2355.85 227.327 2352.98 227.327 Q2348.28 227.327 2345.32 223.577 Q2342.38 219.827 2342.38 213.716 Q2342.38 207.604 2345.32 203.854 Q2348.28 200.104 2352.98 200.104 Q2355.85 200.104 2357.89 201.239 Q2359.95 202.35 2361.29 204.665 M2346.78 213.716 Q2346.78 218.415 2348.7 221.1 Q2350.64 223.762 2354.02 223.762 Q2357.4 223.762 2359.35 221.1 Q2361.29 218.415 2361.29 213.716 Q2361.29 209.016 2359.35 206.354 Q2357.4 203.669 2354.02 203.669 Q2350.64 203.669 2348.7 206.354 Q2346.78 209.016 2346.78 213.716 Z" fill="#000000" fill-rule="evenodd" fill-opacity="1" /><path clip-path="url(#clip530)" d="M2405.92 201.493 L2405.92 205.521 Q2404.12 204.595 2402.17 204.132 Q2400.23 203.669 2398.14 203.669 Q2394.97 203.669 2393.38 204.641 Q2391.8 205.614 2391.8 207.558 Q2391.8 209.04 2392.94 209.896 Q2394.07 210.729 2397.5 211.493 L2398.95 211.817 Q2403.49 212.79 2405.39 214.572 Q2407.31 216.331 2407.31 219.503 Q2407.31 223.114 2404.44 225.22 Q2401.59 227.327 2396.59 227.327 Q2394.51 227.327 2392.24 226.91 Q2390 226.516 2387.5 225.706 L2387.5 221.308 Q2389.86 222.535 2392.15 223.16 Q2394.44 223.762 2396.69 223.762 Q2399.7 223.762 2401.32 222.743 Q2402.94 221.702 2402.94 219.827 Q2402.94 218.09 2401.76 217.165 Q2400.6 216.239 2396.64 215.382 L2395.16 215.035 Q2391.2 214.202 2389.44 212.489 Q2387.68 210.753 2387.68 207.743 Q2387.68 204.086 2390.27 202.095 Q2392.87 200.104 2397.64 200.104 Q2400 200.104 2402.08 200.452 Q2404.16 200.799 2405.92 201.493 Z" fill="#000000" fill-rule="evenodd" fill-opacity="1" /><path clip-path="url(#clip530)" d="M2432.75 201.725 L2432.75 205.706 Q2430.95 204.711 2429.12 204.225 Q2427.31 203.716 2425.46 203.716 Q2421.32 203.716 2419.02 206.354 Q2416.73 208.97 2416.73 213.716 Q2416.73 218.461 2419.02 221.1 Q2421.32 223.715 2425.46 223.715 Q2427.31 223.715 2429.12 223.229 Q2430.95 222.72 2432.75 221.725 L2432.75 225.66 Q2430.97 226.493 2429.05 226.91 Q2427.15 227.327 2425 227.327 Q2419.14 227.327 2415.69 223.646 Q2412.24 219.965 2412.24 213.716 Q2412.24 207.373 2415.71 203.739 Q2419.21 200.104 2425.27 200.104 Q2427.24 200.104 2429.12 200.521 Q2430.99 200.915 2432.75 201.725 Z" fill="#000000" fill-rule="evenodd" fill-opacity="1" /><path clip-path="url(#clip530)" d="M2451.94 213.623 Q2446.78 213.623 2444.79 214.803 Q2442.8 215.984 2442.8 218.831 Q2442.8 221.1 2444.28 222.442 Q2445.78 223.762 2448.35 223.762 Q2451.89 223.762 2454.02 221.262 Q2456.18 218.739 2456.18 214.572 L2456.18 213.623 L2451.94 213.623 M2460.44 211.864 L2460.44 226.655 L2456.18 226.655 L2456.18 222.72 Q2454.72 225.081 2452.54 226.215 Q2450.37 227.327 2447.22 227.327 Q2443.24 227.327 2440.88 225.104 Q2438.54 222.859 2438.54 219.109 Q2438.54 214.734 2441.45 212.512 Q2444.39 210.29 2450.2 210.29 L2456.18 210.29 L2456.18 209.873 Q2456.18 206.933 2454.23 205.336 Q2452.31 203.716 2448.82 203.716 Q2446.59 203.716 2444.49 204.248 Q2442.38 204.78 2440.44 205.845 L2440.44 201.91 Q2442.77 201.007 2444.97 200.567 Q2447.17 200.104 2449.26 200.104 Q2454.88 200.104 2457.66 203.021 Q2460.44 205.938 2460.44 211.864 Z" fill="#000000" fill-rule="evenodd" fill-opacity="1" /><path clip-path="url(#clip530)" d="M2469.21 190.637 L2473.47 190.637 L2473.47 226.655 L2469.21 226.655 L2469.21 190.637 Z" fill="#000000" fill-rule="evenodd" fill-opacity="1" /><path clip-path="url(#clip530)" d="M2504.56 212.628 L2504.56 214.711 L2484.97 214.711 Q2485.25 219.109 2487.61 221.424 Q2490 223.715 2494.23 223.715 Q2496.69 223.715 2498.98 223.114 Q2501.29 222.512 2503.56 221.308 L2503.56 225.336 Q2501.27 226.308 2498.86 226.817 Q2496.45 227.327 2493.98 227.327 Q2487.77 227.327 2484.14 223.715 Q2480.53 220.104 2480.53 213.947 Q2480.53 207.581 2483.95 203.854 Q2487.4 200.104 2493.24 200.104 Q2498.47 200.104 2501.5 203.484 Q2504.56 206.841 2504.56 212.628 M2500.3 211.378 Q2500.25 207.882 2498.33 205.799 Q2496.43 203.716 2493.28 203.716 Q2489.72 203.716 2487.57 205.729 Q2485.44 207.743 2485.11 211.401 L2500.3 211.378 Z" fill="#000000" fill-rule="evenodd" fill-opacity="1" /></svg>
