<?xml version="1.0" encoding="utf-8"?>
<svg xmlns="http://www.w3.org/2000/svg" xmlns:xlink="http://www.w3.org/1999/xlink" width="672" height="480" viewBox="0 0 2688 1920">
<defs>
  <clipPath id="clip290">
    <rect x="0" y="0" width="2688" height="1920"/>
  </clipPath>
</defs>
<path clip-path="url(#clip290)" d="
M0 1920 L2688 1920 L2688 0 L0 0  Z
  " fill="#ffffff" fill-rule="evenodd" fill-opacity="1"/>
<defs>
  <clipPath id="clip291">
    <rect x="537" y="0" width="1883" height="1883"/>
  </clipPath>
</defs>
<path clip-path="url(#clip290)" d="
M189.154 1800.78 L2640.76 1800.78 L2640.76 47.2441 L189.154 47.2441  Z
  " fill="#ffffff" fill-rule="evenodd" fill-opacity="1"/>
<defs>
  <clipPath id="clip292">
    <rect x="189" y="47" width="2453" height="1755"/>
  </clipPath>
</defs>
<polyline clip-path="url(#clip292)" style="stroke:#000000; stroke-linecap:butt; stroke-linejoin:round; stroke-width:2; stroke-opacity:0.1; fill:none" points="
  515.52,1800.78 515.52,47.2441 
  "/>
<polyline clip-path="url(#clip292)" style="stroke:#000000; stroke-linecap:butt; stroke-linejoin:round; stroke-width:2; stroke-opacity:0.1; fill:none" points="
  1029.48,1800.78 1029.48,47.2441 
  "/>
<polyline clip-path="url(#clip292)" style="stroke:#000000; stroke-linecap:butt; stroke-linejoin:round; stroke-width:2; stroke-opacity:0.1; fill:none" points="
  1543.45,1800.78 1543.45,47.2441 
  "/>
<polyline clip-path="url(#clip292)" style="stroke:#000000; stroke-linecap:butt; stroke-linejoin:round; stroke-width:2; stroke-opacity:0.1; fill:none" points="
  2057.41,1800.78 2057.41,47.2441 
  "/>
<polyline clip-path="url(#clip292)" style="stroke:#000000; stroke-linecap:butt; stroke-linejoin:round; stroke-width:2; stroke-opacity:0.1; fill:none" points="
  2571.37,1800.78 2571.37,47.2441 
  "/>
<polyline clip-path="url(#clip290)" style="stroke:#000000; stroke-linecap:butt; stroke-linejoin:round; stroke-width:4; stroke-opacity:1; fill:none" points="
  189.154,1800.78 2640.76,1800.78 
  "/>
<polyline clip-path="url(#clip290)" style="stroke:#000000; stroke-linecap:butt; stroke-linejoin:round; stroke-width:4; stroke-opacity:1; fill:none" points="
  515.52,1800.78 515.52,1781.88 
  "/>
<polyline clip-path="url(#clip290)" style="stroke:#000000; stroke-linecap:butt; stroke-linejoin:round; stroke-width:4; stroke-opacity:1; fill:none" points="
  1029.48,1800.78 1029.48,1781.88 
  "/>
<polyline clip-path="url(#clip290)" style="stroke:#000000; stroke-linecap:butt; stroke-linejoin:round; stroke-width:4; stroke-opacity:1; fill:none" points="
  1543.45,1800.78 1543.45,1781.88 
  "/>
<polyline clip-path="url(#clip290)" style="stroke:#000000; stroke-linecap:butt; stroke-linejoin:round; stroke-width:4; stroke-opacity:1; fill:none" points="
  2057.41,1800.78 2057.41,1781.88 
  "/>
<polyline clip-path="url(#clip290)" style="stroke:#000000; stroke-linecap:butt; stroke-linejoin:round; stroke-width:4; stroke-opacity:1; fill:none" points="
  2571.37,1800.78 2571.37,1781.88 
  "/>
<path clip-path="url(#clip290)" d="M515.52 1834 Q511.909 1834 510.081 1837.57 Q508.275 1841.11 508.275 1848.24 Q508.275 1855.34 510.081 1858.91 Q511.909 1862.45 515.52 1862.45 Q519.155 1862.45 520.96 1858.91 Q522.789 1855.34 522.789 1848.24 Q522.789 1841.11 520.96 1837.57 Q519.155 1834 515.52 1834 M515.52 1830.3 Q521.33 1830.3 524.386 1834.9 Q527.465 1839.49 527.465 1848.24 Q527.465 1856.96 524.386 1861.57 Q521.33 1866.15 515.52 1866.15 Q509.71 1866.15 506.631 1861.57 Q503.576 1856.96 503.576 1848.24 Q503.576 1839.49 506.631 1834.9 Q509.71 1830.3 515.52 1830.3 Z" fill="#000000" fill-rule="evenodd" fill-opacity="1" /><path clip-path="url(#clip290)" d="M1024.14 1861.55 L1040.46 1861.55 L1040.46 1865.48 L1018.51 1865.48 L1018.51 1861.55 Q1021.17 1858.79 1025.76 1854.16 Q1030.36 1849.51 1031.54 1848.17 Q1033.79 1845.65 1034.67 1843.91 Q1035.57 1842.15 1035.57 1840.46 Q1035.57 1837.71 1033.63 1835.97 Q1031.71 1834.23 1028.6 1834.23 Q1026.4 1834.23 1023.95 1835 Q1021.52 1835.76 1018.74 1837.31 L1018.74 1832.59 Q1021.57 1831.46 1024.02 1830.88 Q1026.47 1830.3 1028.51 1830.3 Q1033.88 1830.3 1037.08 1832.98 Q1040.27 1835.67 1040.27 1840.16 Q1040.27 1842.29 1039.46 1844.21 Q1038.67 1846.11 1036.57 1848.7 Q1035.99 1849.37 1032.89 1852.59 Q1029.78 1855.78 1024.14 1861.55 Z" fill="#000000" fill-rule="evenodd" fill-opacity="1" /><path clip-path="url(#clip290)" d="M1546.45 1835 L1534.65 1853.45 L1546.45 1853.45 L1546.45 1835 M1545.23 1830.92 L1551.11 1830.92 L1551.11 1853.45 L1556.04 1853.45 L1556.04 1857.34 L1551.11 1857.34 L1551.11 1865.48 L1546.45 1865.48 L1546.45 1857.34 L1530.85 1857.34 L1530.85 1852.82 L1545.23 1830.92 Z" fill="#000000" fill-rule="evenodd" fill-opacity="1" /><path clip-path="url(#clip290)" d="M2057.81 1846.34 Q2054.67 1846.34 2052.81 1848.49 Q2050.98 1850.65 2050.98 1854.4 Q2050.98 1858.12 2052.81 1860.3 Q2054.67 1862.45 2057.81 1862.45 Q2060.96 1862.45 2062.79 1860.3 Q2064.64 1858.12 2064.64 1854.4 Q2064.64 1850.65 2062.79 1848.49 Q2060.96 1846.34 2057.81 1846.34 M2067.1 1831.69 L2067.1 1835.95 Q2065.34 1835.11 2063.53 1834.67 Q2061.75 1834.23 2059.99 1834.23 Q2055.36 1834.23 2052.91 1837.36 Q2050.48 1840.48 2050.13 1846.8 Q2051.49 1844.79 2053.55 1843.72 Q2055.61 1842.64 2058.09 1842.64 Q2063.3 1842.64 2066.31 1845.81 Q2069.34 1848.96 2069.34 1854.4 Q2069.34 1859.72 2066.19 1862.94 Q2063.04 1866.15 2057.81 1866.15 Q2051.82 1866.15 2048.65 1861.57 Q2045.48 1856.96 2045.48 1848.24 Q2045.48 1840.04 2049.36 1835.18 Q2053.25 1830.3 2059.8 1830.3 Q2061.56 1830.3 2063.35 1830.65 Q2065.15 1830.99 2067.1 1831.69 Z" fill="#000000" fill-rule="evenodd" fill-opacity="1" /><path clip-path="url(#clip290)" d="M2571.37 1849.07 Q2568.04 1849.07 2566.12 1850.85 Q2564.22 1852.64 2564.22 1855.76 Q2564.22 1858.89 2566.12 1860.67 Q2568.04 1862.45 2571.37 1862.45 Q2574.7 1862.45 2576.63 1860.67 Q2578.55 1858.86 2578.55 1855.76 Q2578.55 1852.64 2576.63 1850.85 Q2574.73 1849.07 2571.37 1849.07 M2566.7 1847.08 Q2563.69 1846.34 2562 1844.28 Q2560.33 1842.22 2560.33 1839.26 Q2560.33 1835.11 2563.27 1832.71 Q2566.23 1830.3 2571.37 1830.3 Q2576.53 1830.3 2579.47 1832.71 Q2582.41 1835.11 2582.41 1839.26 Q2582.41 1842.22 2580.72 1844.28 Q2579.06 1846.34 2576.07 1847.08 Q2579.45 1847.87 2581.32 1850.16 Q2583.22 1852.45 2583.22 1855.76 Q2583.22 1860.78 2580.14 1863.47 Q2577.09 1866.15 2571.37 1866.15 Q2565.65 1866.15 2562.57 1863.47 Q2559.52 1860.78 2559.52 1855.76 Q2559.52 1852.45 2561.42 1850.16 Q2563.32 1847.87 2566.7 1847.08 M2564.98 1839.7 Q2564.98 1842.38 2566.65 1843.89 Q2568.34 1845.39 2571.37 1845.39 Q2574.38 1845.39 2576.07 1843.89 Q2577.78 1842.38 2577.78 1839.7 Q2577.78 1837.01 2576.07 1835.51 Q2574.38 1834 2571.37 1834 Q2568.34 1834 2566.65 1835.51 Q2564.98 1837.01 2564.98 1839.7 Z" fill="#000000" fill-rule="evenodd" fill-opacity="1" /><polyline clip-path="url(#clip292)" style="stroke:#000000; stroke-linecap:butt; stroke-linejoin:round; stroke-width:2; stroke-opacity:0.1; fill:none" points="
  189.154,1751.15 2640.76,1751.15 
  "/>
<polyline clip-path="url(#clip292)" style="stroke:#000000; stroke-linecap:butt; stroke-linejoin:round; stroke-width:2; stroke-opacity:0.1; fill:none" points="
  189.154,1337.21 2640.76,1337.21 
  "/>
<polyline clip-path="url(#clip292)" style="stroke:#000000; stroke-linecap:butt; stroke-linejoin:round; stroke-width:2; stroke-opacity:0.1; fill:none" points="
  189.154,923.274 2640.76,923.274 
  "/>
<polyline clip-path="url(#clip292)" style="stroke:#000000; stroke-linecap:butt; stroke-linejoin:round; stroke-width:2; stroke-opacity:0.1; fill:none" points="
  189.154,509.335 2640.76,509.335 
  "/>
<polyline clip-path="url(#clip292)" style="stroke:#000000; stroke-linecap:butt; stroke-linejoin:round; stroke-width:2; stroke-opacity:0.1; fill:none" points="
  189.154,95.3966 2640.76,95.3966 
  "/>
<polyline clip-path="url(#clip290)" style="stroke:#000000; stroke-linecap:butt; stroke-linejoin:round; stroke-width:4; stroke-opacity:1; fill:none" points="
  189.154,1800.78 189.154,47.2441 
  "/>
<polyline clip-path="url(#clip290)" style="stroke:#000000; stroke-linecap:butt; stroke-linejoin:round; stroke-width:4; stroke-opacity:1; fill:none" points="
  189.154,1751.15 208.052,1751.15 
  "/>
<polyline clip-path="url(#clip290)" style="stroke:#000000; stroke-linecap:butt; stroke-linejoin:round; stroke-width:4; stroke-opacity:1; fill:none" points="
  189.154,1337.21 208.052,1337.21 
  "/>
<polyline clip-path="url(#clip290)" style="stroke:#000000; stroke-linecap:butt; stroke-linejoin:round; stroke-width:4; stroke-opacity:1; fill:none" points="
  189.154,923.274 208.052,923.274 
  "/>
<polyline clip-path="url(#clip290)" style="stroke:#000000; stroke-linecap:butt; stroke-linejoin:round; stroke-width:4; stroke-opacity:1; fill:none" points="
  189.154,509.335 208.052,509.335 
  "/>
<polyline clip-path="url(#clip290)" style="stroke:#000000; stroke-linecap:butt; stroke-linejoin:round; stroke-width:4; stroke-opacity:1; fill:none" points="
  189.154,95.3966 208.052,95.3966 
  "/>
<path clip-path="url(#clip290)" d="M61.4965 1736.95 Q57.8854 1736.95 56.0567 1740.51 Q54.2512 1744.06 54.2512 1751.19 Q54.2512 1758.29 56.0567 1761.86 Q57.8854 1765.4 61.4965 1765.4 Q65.1307 1765.4 66.9363 1761.86 Q68.765 1758.29 68.765 1751.19 Q68.765 1744.06 66.9363 1740.51 Q65.1307 1736.95 61.4965 1736.95 M61.4965 1733.25 Q67.3067 1733.25 70.3622 1737.85 Q73.4409 1742.44 73.4409 1751.19 Q73.4409 1759.91 70.3622 1764.52 Q67.3067 1769.1 61.4965 1769.1 Q55.6864 1769.1 52.6077 1764.52 Q49.5521 1759.91 49.5521 1751.19 Q49.5521 1742.44 52.6077 1737.85 Q55.6864 1733.25 61.4965 1733.25 Z" fill="#000000" fill-rule="evenodd" fill-opacity="1" /><path clip-path="url(#clip290)" d="M81.6584 1762.55 L86.5427 1762.55 L86.5427 1768.43 L81.6584 1768.43 L81.6584 1762.55 Z" fill="#000000" fill-rule="evenodd" fill-opacity="1" /><path clip-path="url(#clip290)" d="M106.728 1736.95 Q103.117 1736.95 101.288 1740.51 Q99.4824 1744.06 99.4824 1751.19 Q99.4824 1758.29 101.288 1761.86 Q103.117 1765.4 106.728 1765.4 Q110.362 1765.4 112.168 1761.86 Q113.996 1758.29 113.996 1751.19 Q113.996 1744.06 112.168 1740.51 Q110.362 1736.95 106.728 1736.95 M106.728 1733.25 Q112.538 1733.25 115.593 1737.85 Q118.672 1742.44 118.672 1751.19 Q118.672 1759.91 115.593 1764.52 Q112.538 1769.1 106.728 1769.1 Q100.918 1769.1 97.8389 1764.52 Q94.7834 1759.91 94.7834 1751.19 Q94.7834 1742.44 97.8389 1737.85 Q100.918 1733.25 106.728 1733.25 Z" fill="#000000" fill-rule="evenodd" fill-opacity="1" /><path clip-path="url(#clip290)" d="M136.89 1736.95 Q133.279 1736.95 131.45 1740.51 Q129.644 1744.06 129.644 1751.19 Q129.644 1758.29 131.45 1761.86 Q133.279 1765.4 136.89 1765.4 Q140.524 1765.4 142.329 1761.86 Q144.158 1758.29 144.158 1751.19 Q144.158 1744.06 142.329 1740.51 Q140.524 1736.95 136.89 1736.95 M136.89 1733.25 Q142.7 1733.25 145.755 1737.85 Q148.834 1742.44 148.834 1751.19 Q148.834 1759.91 145.755 1764.52 Q142.7 1769.1 136.89 1769.1 Q131.079 1769.1 128.001 1764.52 Q124.945 1759.91 124.945 1751.19 Q124.945 1742.44 128.001 1737.85 Q131.079 1733.25 136.89 1733.25 Z" fill="#000000" fill-rule="evenodd" fill-opacity="1" /><path clip-path="url(#clip290)" d="M62.4919 1323.01 Q58.8808 1323.01 57.0521 1326.58 Q55.2465 1330.12 55.2465 1337.25 Q55.2465 1344.35 57.0521 1347.92 Q58.8808 1351.46 62.4919 1351.46 Q66.1261 1351.46 67.9317 1347.92 Q69.7604 1344.35 69.7604 1337.25 Q69.7604 1330.12 67.9317 1326.58 Q66.1261 1323.01 62.4919 1323.01 M62.4919 1319.31 Q68.302 1319.31 71.3576 1323.91 Q74.4363 1328.5 74.4363 1337.25 Q74.4363 1345.97 71.3576 1350.58 Q68.302 1355.16 62.4919 1355.16 Q56.6817 1355.16 53.603 1350.58 Q50.5475 1345.97 50.5475 1337.25 Q50.5475 1328.5 53.603 1323.91 Q56.6817 1319.31 62.4919 1319.31 Z" fill="#000000" fill-rule="evenodd" fill-opacity="1" /><path clip-path="url(#clip290)" d="M82.6538 1348.61 L87.538 1348.61 L87.538 1354.49 L82.6538 1354.49 L82.6538 1348.61 Z" fill="#000000" fill-rule="evenodd" fill-opacity="1" /><path clip-path="url(#clip290)" d="M101.751 1350.56 L118.07 1350.56 L118.07 1354.49 L96.126 1354.49 L96.126 1350.56 Q98.788 1347.8 103.371 1343.17 Q107.978 1338.52 109.158 1337.18 Q111.404 1334.65 112.283 1332.92 Q113.186 1331.16 113.186 1329.47 Q113.186 1326.71 111.242 1324.98 Q109.32 1323.24 106.218 1323.24 Q104.019 1323.24 101.566 1324.01 Q99.1352 1324.77 96.3574 1326.32 L96.3574 1321.6 Q99.1815 1320.46 101.635 1319.89 Q104.089 1319.31 106.126 1319.31 Q111.496 1319.31 114.691 1321.99 Q117.885 1324.68 117.885 1329.17 Q117.885 1331.3 117.075 1333.22 Q116.288 1335.12 114.181 1337.71 Q113.603 1338.38 110.501 1341.6 Q107.399 1344.79 101.751 1350.56 Z" fill="#000000" fill-rule="evenodd" fill-opacity="1" /><path clip-path="url(#clip290)" d="M127.931 1319.93 L146.288 1319.93 L146.288 1323.87 L132.214 1323.87 L132.214 1332.34 Q133.232 1331.99 134.251 1331.83 Q135.269 1331.65 136.288 1331.65 Q142.075 1331.65 145.454 1334.82 Q148.834 1337.99 148.834 1343.4 Q148.834 1348.98 145.362 1352.08 Q141.89 1355.16 135.57 1355.16 Q133.394 1355.16 131.126 1354.79 Q128.88 1354.42 126.473 1353.68 L126.473 1348.98 Q128.556 1350.12 130.779 1350.67 Q133.001 1351.23 135.478 1351.23 Q139.482 1351.23 141.82 1349.12 Q144.158 1347.02 144.158 1343.4 Q144.158 1339.79 141.82 1337.69 Q139.482 1335.58 135.478 1335.58 Q133.603 1335.58 131.728 1336 Q129.876 1336.41 127.931 1337.29 L127.931 1319.93 Z" fill="#000000" fill-rule="evenodd" fill-opacity="1" /><path clip-path="url(#clip290)" d="M61.4965 909.072 Q57.8854 909.072 56.0567 912.637 Q54.2512 916.179 54.2512 923.308 Q54.2512 930.415 56.0567 933.98 Q57.8854 937.521 61.4965 937.521 Q65.1307 937.521 66.9363 933.98 Q68.765 930.415 68.765 923.308 Q68.765 916.179 66.9363 912.637 Q65.1307 909.072 61.4965 909.072 M61.4965 905.369 Q67.3067 905.369 70.3622 909.975 Q73.4409 914.559 73.4409 923.308 Q73.4409 932.035 70.3622 936.642 Q67.3067 941.225 61.4965 941.225 Q55.6864 941.225 52.6077 936.642 Q49.5521 932.035 49.5521 923.308 Q49.5521 914.559 52.6077 909.975 Q55.6864 905.369 61.4965 905.369 Z" fill="#000000" fill-rule="evenodd" fill-opacity="1" /><path clip-path="url(#clip290)" d="M81.6584 934.674 L86.5427 934.674 L86.5427 940.554 L81.6584 940.554 L81.6584 934.674 Z" fill="#000000" fill-rule="evenodd" fill-opacity="1" /><path clip-path="url(#clip290)" d="M96.7741 905.994 L115.13 905.994 L115.13 909.929 L101.056 909.929 L101.056 918.401 Q102.075 918.054 103.094 917.892 Q104.112 917.707 105.131 917.707 Q110.918 917.707 114.297 920.878 Q117.677 924.049 117.677 929.466 Q117.677 935.045 114.205 938.146 Q110.732 941.225 104.413 941.225 Q102.237 941.225 99.9685 940.855 Q97.7232 940.484 95.3158 939.744 L95.3158 935.045 Q97.3991 936.179 99.6213 936.734 Q101.844 937.29 104.32 937.29 Q108.325 937.29 110.663 935.183 Q113.001 933.077 113.001 929.466 Q113.001 925.855 110.663 923.748 Q108.325 921.642 104.32 921.642 Q102.445 921.642 100.57 922.058 Q98.7185 922.475 96.7741 923.355 L96.7741 905.994 Z" fill="#000000" fill-rule="evenodd" fill-opacity="1" /><path clip-path="url(#clip290)" d="M136.89 909.072 Q133.279 909.072 131.45 912.637 Q129.644 916.179 129.644 923.308 Q129.644 930.415 131.45 933.98 Q133.279 937.521 136.89 937.521 Q140.524 937.521 142.329 933.98 Q144.158 930.415 144.158 923.308 Q144.158 916.179 142.329 912.637 Q140.524 909.072 136.89 909.072 M136.89 905.369 Q142.7 905.369 145.755 909.975 Q148.834 914.559 148.834 923.308 Q148.834 932.035 145.755 936.642 Q142.7 941.225 136.89 941.225 Q131.079 941.225 128.001 936.642 Q124.945 932.035 124.945 923.308 Q124.945 914.559 128.001 909.975 Q131.079 905.369 136.89 905.369 Z" fill="#000000" fill-rule="evenodd" fill-opacity="1" /><path clip-path="url(#clip290)" d="M62.4919 495.134 Q58.8808 495.134 57.0521 498.699 Q55.2465 502.24 55.2465 509.37 Q55.2465 516.476 57.0521 520.041 Q58.8808 523.583 62.4919 523.583 Q66.1261 523.583 67.9317 520.041 Q69.7604 516.476 69.7604 509.37 Q69.7604 502.24 67.9317 498.699 Q66.1261 495.134 62.4919 495.134 M62.4919 491.43 Q68.302 491.43 71.3576 496.037 Q74.4363 500.62 74.4363 509.37 Q74.4363 518.097 71.3576 522.703 Q68.302 527.286 62.4919 527.286 Q56.6817 527.286 53.603 522.703 Q50.5475 518.097 50.5475 509.37 Q50.5475 500.62 53.603 496.037 Q56.6817 491.43 62.4919 491.43 Z" fill="#000000" fill-rule="evenodd" fill-opacity="1" /><path clip-path="url(#clip290)" d="M82.6538 520.736 L87.538 520.736 L87.538 526.615 L82.6538 526.615 L82.6538 520.736 Z" fill="#000000" fill-rule="evenodd" fill-opacity="1" /><path clip-path="url(#clip290)" d="M96.5426 492.055 L118.765 492.055 L118.765 494.046 L106.218 526.615 L101.334 526.615 L113.14 495.99 L96.5426 495.99 L96.5426 492.055 Z" fill="#000000" fill-rule="evenodd" fill-opacity="1" /><path clip-path="url(#clip290)" d="M127.931 492.055 L146.288 492.055 L146.288 495.99 L132.214 495.99 L132.214 504.463 Q133.232 504.115 134.251 503.953 Q135.269 503.768 136.288 503.768 Q142.075 503.768 145.454 506.939 Q148.834 510.111 148.834 515.527 Q148.834 521.106 145.362 524.208 Q141.89 527.286 135.57 527.286 Q133.394 527.286 131.126 526.916 Q128.88 526.546 126.473 525.805 L126.473 521.106 Q128.556 522.24 130.779 522.796 Q133.001 523.351 135.478 523.351 Q139.482 523.351 141.82 521.245 Q144.158 519.138 144.158 515.527 Q144.158 511.916 141.82 509.81 Q139.482 507.703 135.478 507.703 Q133.603 507.703 131.728 508.12 Q129.876 508.537 127.931 509.416 L127.931 492.055 Z" fill="#000000" fill-rule="evenodd" fill-opacity="1" /><path clip-path="url(#clip290)" d="M52.3067 108.741 L59.9456 108.741 L59.9456 82.3758 L51.6354 84.0425 L51.6354 79.7832 L59.8993 78.1166 L64.5752 78.1166 L64.5752 108.741 L72.214 108.741 L72.214 112.677 L52.3067 112.677 L52.3067 108.741 Z" fill="#000000" fill-rule="evenodd" fill-opacity="1" /><path clip-path="url(#clip290)" d="M81.6584 106.797 L86.5427 106.797 L86.5427 112.677 L81.6584 112.677 L81.6584 106.797 Z" fill="#000000" fill-rule="evenodd" fill-opacity="1" /><path clip-path="url(#clip290)" d="M106.728 81.1953 Q103.117 81.1953 101.288 84.7601 Q99.4824 88.3017 99.4824 95.4313 Q99.4824 102.538 101.288 106.103 Q103.117 109.644 106.728 109.644 Q110.362 109.644 112.168 106.103 Q113.996 102.538 113.996 95.4313 Q113.996 88.3017 112.168 84.7601 Q110.362 81.1953 106.728 81.1953 M106.728 77.4916 Q112.538 77.4916 115.593 82.098 Q118.672 86.6813 118.672 95.4313 Q118.672 104.158 115.593 108.765 Q112.538 113.348 106.728 113.348 Q100.918 113.348 97.8389 108.765 Q94.7834 104.158 94.7834 95.4313 Q94.7834 86.6813 97.8389 82.098 Q100.918 77.4916 106.728 77.4916 Z" fill="#000000" fill-rule="evenodd" fill-opacity="1" /><path clip-path="url(#clip290)" d="M136.89 81.1953 Q133.279 81.1953 131.45 84.7601 Q129.644 88.3017 129.644 95.4313 Q129.644 102.538 131.45 106.103 Q133.279 109.644 136.89 109.644 Q140.524 109.644 142.329 106.103 Q144.158 102.538 144.158 95.4313 Q144.158 88.3017 142.329 84.7601 Q140.524 81.1953 136.89 81.1953 M136.89 77.4916 Q142.7 77.4916 145.755 82.098 Q148.834 86.6813 148.834 95.4313 Q148.834 104.158 145.755 108.765 Q142.7 113.348 136.89 113.348 Q131.079 113.348 128.001 108.765 Q124.945 104.158 124.945 95.4313 Q124.945 86.6813 128.001 82.098 Q131.079 77.4916 136.89 77.4916 Z" fill="#000000" fill-rule="evenodd" fill-opacity="1" /><polyline clip-path="url(#clip292)" style="stroke:#009af9; stroke-linecap:butt; stroke-linejoin:round; stroke-width:4; stroke-opacity:1; fill:none" points="
  258.539,1751.15 266.068,1702.64 273.597,1654.13 343.212,1205.59 412.828,757.053 433.746,622.277 454.664,487.5 475.582,352.723 496.5,217.946 500.921,189.458 
  505.343,160.97 507.554,146.726 509.764,132.482 511.975,118.238 514.186,103.994 514.739,100.433 515.291,96.8724 515.844,97.4817 516.397,101.043 517.502,108.165 
  518.607,115.287 520.818,129.531 523.029,143.775 527.45,172.263 531.872,200.751 540.715,257.727 549.558,314.703 558.401,371.679 567.244,428.655 605.667,676.222 
  644.091,923.79 679.514,1152.03 714.938,1380.26 733.926,1502.61 752.915,1624.95 757.662,1655.54 762.41,1686.13 764.783,1701.42 767.157,1716.71 769.53,1732.01 
  771.904,1747.3 773.091,1751.15 774.278,1751.15 775.464,1751.15 776.651,1751.15 779.025,1751.15 781.398,1751.15 786.145,1751.15 790.893,1751.15 812.893,1751.15 
  834.893,1751.15 856.894,1751.15 878.894,1751.15 957.099,1751.15 1025.68,1751.15 1100.45,1751.15 1175.66,1751.15 1258.82,1751.15 1337.94,1751.15 1420.21,1751.15 
  1489.47,1751.15 1574.02,1751.15 1651.47,1751.15 1723.01,1751.15 1795.47,1751.15 1876.68,1751.15 1950.27,1751.15 2034.52,1751.15 2112.53,1751.15 2189.45,1751.15 
  2264.12,1751.15 2340.67,1751.15 2424.54,1751.15 2546.38,1751.15 2571.37,1751.15 
  "/>
<polyline clip-path="url(#clip292)" style="stroke:#e26f46; stroke-linecap:butt; stroke-linejoin:round; stroke-width:4; stroke-opacity:1; fill:none" points="
  258.539,1751.15 273.597,1751.15 412.828,1751.15 496.5,1751.15 567.244,1751.15 644.091,1751.15 714.938,1751.15 790.893,1751.15 878.894,1751.15 957.099,1751.15 
  1025.68,1751.15 1100.45,1751.15 1175.66,1751.15 1196.45,1751.15 1217.24,1751.15 1238.03,1751.15 1258.82,1751.15 1268.71,1751.15 1278.6,1751.15 1281.07,1751.15 
  1283.55,1751.15 1286.02,1751.15 1288.49,1747.89 1293.44,1739.92 1298.38,1731.96 1308.27,1716.02 1318.16,1700.09 1328.05,1684.16 1337.94,1668.23 1379.08,1601.97 
  1420.21,1535.71 1454.84,1479.94 1489.47,1424.16 1574.02,1287.97 1651.47,1163.21 1687.24,1105.59 1723.01,1047.98 1741.12,1018.8 1759.24,989.622 1768.29,975.032 
  1777.35,960.442 1781.88,953.147 1786.41,945.852 1790.94,938.557 1795.47,931.261 1796.74,929.218 1798.01,927.174 1799.27,925.13 1800.54,923.462 1803.08,927.55 
  1805.62,931.637 1810.69,939.813 1815.77,947.989 1825.92,964.34 1836.07,980.691 1856.38,1013.39 1876.68,1046.1 1913.47,1105.36 1950.27,1164.63 2034.52,1300.35 
  2112.53,1426.01 2150.99,1487.95 2189.45,1549.89 2226.78,1610.04 2264.12,1670.18 2273.69,1685.59 2283.26,1701 2292.83,1716.42 2302.4,1731.83 2307.18,1739.54 
  2311.96,1747.24 2314.36,1751.1 2316.75,1751.15 2319.14,1751.15 2321.53,1751.15 2331.1,1751.15 2340.67,1751.15 2361.64,1751.15 2382.61,1751.15 2403.57,1751.15 
  2424.54,1751.15 2485.46,1751.15 2546.38,1751.15 2558.87,1751.15 2571.37,1751.15 
  "/>
<path clip-path="url(#clip290)" d="
M2264.92 261.215 L2559.04 261.215 L2559.04 105.695 L2264.92 105.695  Z
  " fill="#ffffff" fill-rule="evenodd" fill-opacity="1"/>
<polyline clip-path="url(#clip290)" style="stroke:#000000; stroke-linecap:butt; stroke-linejoin:round; stroke-width:4; stroke-opacity:1; fill:none" points="
  2264.92,261.215 2559.04,261.215 2559.04,105.695 2264.92,105.695 2264.92,261.215 
  "/>
<polyline clip-path="url(#clip290)" style="stroke:#009af9; stroke-linecap:butt; stroke-linejoin:round; stroke-width:4; stroke-opacity:1; fill:none" points="
  2292.16,157.535 2455.6,157.535 
  "/>
<path clip-path="url(#clip290)" d="M2499.35 138.797 L2499.35 142.339 L2495.27 142.339 Q2492.98 142.339 2492.08 143.265 Q2491.2 144.19 2491.2 146.598 L2491.2 148.889 L2498.21 148.889 L2498.21 152.2 L2491.2 152.2 L2491.2 174.815 L2486.92 174.815 L2486.92 152.2 L2482.84 152.2 L2482.84 148.889 L2486.92 148.889 L2486.92 147.084 Q2486.92 142.755 2488.93 140.788 Q2490.94 138.797 2495.32 138.797 L2499.35 138.797 Z" fill="#000000" fill-rule="evenodd" fill-opacity="1" /><polyline clip-path="url(#clip290)" style="stroke:#e26f46; stroke-linecap:butt; stroke-linejoin:round; stroke-width:4; stroke-opacity:1; fill:none" points="
  2292.16,209.375 2455.6,209.375 
  "/>
<path clip-path="url(#clip290)" d="M2504.56 211.007 L2504.56 226.655 L2500.3 226.655 L2500.3 211.146 Q2500.3 207.466 2498.86 205.637 Q2497.43 203.808 2494.56 203.808 Q2491.11 203.808 2489.12 206.007 Q2487.13 208.206 2487.13 212.003 L2487.13 226.655 L2482.84 226.655 L2482.84 190.637 L2487.13 190.637 L2487.13 204.757 Q2488.65 202.419 2490.71 201.262 Q2492.8 200.104 2495.5 200.104 Q2499.97 200.104 2502.26 202.882 Q2504.56 205.637 2504.56 211.007 Z" fill="#000000" fill-rule="evenodd" fill-opacity="1" /></svg>
