<?xml version="1.0" encoding="utf-8"?>
<svg xmlns="http://www.w3.org/2000/svg" xmlns:xlink="http://www.w3.org/1999/xlink" width="672" height="480" viewBox="0 0 2688 1920">
<defs>
  <clipPath id="clip910">
    <rect x="0" y="0" width="2688" height="1920"/>
  </clipPath>
</defs>
<path clip-path="url(#clip910)" d="
M0 1920 L2688 1920 L2688 0 L0 0  Z
  " fill="#ffffff" fill-rule="evenodd" fill-opacity="1"/>
<defs>
  <clipPath id="clip911">
    <rect x="537" y="0" width="1883" height="1883"/>
  </clipPath>
</defs>
<path clip-path="url(#clip910)" d="
M150.358 1800.78 L2640.76 1800.78 L2640.76 47.2441 L150.358 47.2441  Z
  " fill="#ffffff" fill-rule="evenodd" fill-opacity="1"/>
<defs>
  <clipPath id="clip912">
    <rect x="150" y="47" width="2491" height="1755"/>
  </clipPath>
</defs>
<polyline clip-path="url(#clip912)" style="stroke:#000000; stroke-linecap:butt; stroke-linejoin:round; stroke-width:2; stroke-opacity:0.1; fill:none" points="
  220.841,1800.78 220.841,47.2441 
  "/>
<polyline clip-path="url(#clip912)" style="stroke:#000000; stroke-linecap:butt; stroke-linejoin:round; stroke-width:2; stroke-opacity:0.1; fill:none" points="
  808.199,1800.78 808.199,47.2441 
  "/>
<polyline clip-path="url(#clip912)" style="stroke:#000000; stroke-linecap:butt; stroke-linejoin:round; stroke-width:2; stroke-opacity:0.1; fill:none" points="
  1395.56,1800.78 1395.56,47.2441 
  "/>
<polyline clip-path="url(#clip912)" style="stroke:#000000; stroke-linecap:butt; stroke-linejoin:round; stroke-width:2; stroke-opacity:0.1; fill:none" points="
  1982.91,1800.78 1982.91,47.2441 
  "/>
<polyline clip-path="url(#clip912)" style="stroke:#000000; stroke-linecap:butt; stroke-linejoin:round; stroke-width:2; stroke-opacity:0.1; fill:none" points="
  2570.27,1800.78 2570.27,47.2441 
  "/>
<polyline clip-path="url(#clip910)" style="stroke:#000000; stroke-linecap:butt; stroke-linejoin:round; stroke-width:4; stroke-opacity:1; fill:none" points="
  150.358,1800.78 2640.76,1800.78 
  "/>
<polyline clip-path="url(#clip910)" style="stroke:#000000; stroke-linecap:butt; stroke-linejoin:round; stroke-width:4; stroke-opacity:1; fill:none" points="
  220.841,1800.78 220.841,1781.88 
  "/>
<polyline clip-path="url(#clip910)" style="stroke:#000000; stroke-linecap:butt; stroke-linejoin:round; stroke-width:4; stroke-opacity:1; fill:none" points="
  808.199,1800.78 808.199,1781.88 
  "/>
<polyline clip-path="url(#clip910)" style="stroke:#000000; stroke-linecap:butt; stroke-linejoin:round; stroke-width:4; stroke-opacity:1; fill:none" points="
  1395.56,1800.78 1395.56,1781.88 
  "/>
<polyline clip-path="url(#clip910)" style="stroke:#000000; stroke-linecap:butt; stroke-linejoin:round; stroke-width:4; stroke-opacity:1; fill:none" points="
  1982.91,1800.78 1982.91,1781.88 
  "/>
<polyline clip-path="url(#clip910)" style="stroke:#000000; stroke-linecap:butt; stroke-linejoin:round; stroke-width:4; stroke-opacity:1; fill:none" points="
  2570.27,1800.78 2570.27,1781.88 
  "/>
<path clip-path="url(#clip910)" d="M190.783 1848.65 L220.459 1848.65 L220.459 1852.59 L190.783 1852.59 L190.783 1848.65 Z" fill="#000000" fill-rule="evenodd" fill-opacity="1" /><path clip-path="url(#clip910)" d="M234.579 1861.55 L250.899 1861.55 L250.899 1865.48 L228.954 1865.48 L228.954 1861.55 Q231.616 1858.79 236.2 1854.16 Q240.806 1849.51 241.987 1848.17 Q244.232 1845.65 245.112 1843.91 Q246.014 1842.15 246.014 1840.46 Q246.014 1837.71 244.07 1835.97 Q242.149 1834.23 239.047 1834.23 Q236.848 1834.23 234.394 1835 Q231.964 1835.76 229.186 1837.31 L229.186 1832.59 Q232.01 1831.46 234.463 1830.88 Q236.917 1830.3 238.954 1830.3 Q244.325 1830.3 247.519 1832.98 Q250.713 1835.67 250.713 1840.16 Q250.713 1842.29 249.903 1844.21 Q249.116 1846.11 247.01 1848.7 Q246.431 1849.37 243.329 1852.59 Q240.227 1855.78 234.579 1861.55 Z" fill="#000000" fill-rule="evenodd" fill-opacity="1" /><path clip-path="url(#clip910)" d="M777.956 1848.65 L807.632 1848.65 L807.632 1852.59 L777.956 1852.59 L777.956 1848.65 Z" fill="#000000" fill-rule="evenodd" fill-opacity="1" /><path clip-path="url(#clip910)" d="M818.534 1861.55 L826.173 1861.55 L826.173 1835.18 L817.863 1836.85 L817.863 1832.59 L826.127 1830.92 L830.803 1830.92 L830.803 1861.55 L838.442 1861.55 L838.442 1865.48 L818.534 1865.48 L818.534 1861.55 Z" fill="#000000" fill-rule="evenodd" fill-opacity="1" /><path clip-path="url(#clip910)" d="M1395.56 1834 Q1391.95 1834 1390.12 1837.57 Q1388.31 1841.11 1388.31 1848.24 Q1388.31 1855.34 1390.12 1858.91 Q1391.95 1862.45 1395.56 1862.45 Q1399.19 1862.45 1401 1858.91 Q1402.83 1855.34 1402.83 1848.24 Q1402.83 1841.11 1401 1837.57 Q1399.19 1834 1395.56 1834 M1395.56 1830.3 Q1401.37 1830.3 1404.42 1834.9 Q1407.5 1839.49 1407.5 1848.24 Q1407.5 1856.96 1404.42 1861.57 Q1401.37 1866.15 1395.56 1866.15 Q1389.75 1866.15 1386.67 1861.57 Q1383.61 1856.96 1383.61 1848.24 Q1383.61 1839.49 1386.67 1834.9 Q1389.75 1830.3 1395.56 1830.3 Z" fill="#000000" fill-rule="evenodd" fill-opacity="1" /><path clip-path="url(#clip910)" d="M1973.3 1861.55 L1980.94 1861.55 L1980.94 1835.18 L1972.63 1836.85 L1972.63 1832.59 L1980.89 1830.92 L1985.57 1830.92 L1985.57 1861.55 L1993.2 1861.55 L1993.2 1865.48 L1973.3 1865.48 L1973.3 1861.55 Z" fill="#000000" fill-rule="evenodd" fill-opacity="1" /><path clip-path="url(#clip910)" d="M2564.93 1861.55 L2581.25 1861.55 L2581.25 1865.48 L2559.3 1865.48 L2559.3 1861.55 Q2561.96 1858.79 2566.55 1854.16 Q2571.15 1849.51 2572.33 1848.17 Q2574.58 1845.65 2575.46 1843.91 Q2576.36 1842.15 2576.36 1840.46 Q2576.36 1837.71 2574.42 1835.97 Q2572.5 1834.23 2569.39 1834.23 Q2567.19 1834.23 2564.74 1835 Q2562.31 1835.76 2559.53 1837.31 L2559.53 1832.59 Q2562.36 1831.46 2564.81 1830.88 Q2567.26 1830.3 2569.3 1830.3 Q2574.67 1830.3 2577.87 1832.98 Q2581.06 1835.67 2581.06 1840.16 Q2581.06 1842.29 2580.25 1844.21 Q2579.46 1846.11 2577.36 1848.7 Q2576.78 1849.37 2573.68 1852.59 Q2570.57 1855.78 2564.93 1861.55 Z" fill="#000000" fill-rule="evenodd" fill-opacity="1" /><polyline clip-path="url(#clip912)" style="stroke:#000000; stroke-linecap:butt; stroke-linejoin:round; stroke-width:2; stroke-opacity:0.1; fill:none" points="
  150.358,1751.17 2640.76,1751.17 
  "/>
<polyline clip-path="url(#clip912)" style="stroke:#000000; stroke-linecap:butt; stroke-linejoin:round; stroke-width:2; stroke-opacity:0.1; fill:none" points="
  150.358,1475.46 2640.76,1475.46 
  "/>
<polyline clip-path="url(#clip912)" style="stroke:#000000; stroke-linecap:butt; stroke-linejoin:round; stroke-width:2; stroke-opacity:0.1; fill:none" points="
  150.358,1199.74 2640.76,1199.74 
  "/>
<polyline clip-path="url(#clip912)" style="stroke:#000000; stroke-linecap:butt; stroke-linejoin:round; stroke-width:2; stroke-opacity:0.1; fill:none" points="
  150.358,924.023 2640.76,924.023 
  "/>
<polyline clip-path="url(#clip912)" style="stroke:#000000; stroke-linecap:butt; stroke-linejoin:round; stroke-width:2; stroke-opacity:0.1; fill:none" points="
  150.358,648.306 2640.76,648.306 
  "/>
<polyline clip-path="url(#clip912)" style="stroke:#000000; stroke-linecap:butt; stroke-linejoin:round; stroke-width:2; stroke-opacity:0.1; fill:none" points="
  150.358,372.589 2640.76,372.589 
  "/>
<polyline clip-path="url(#clip912)" style="stroke:#000000; stroke-linecap:butt; stroke-linejoin:round; stroke-width:2; stroke-opacity:0.1; fill:none" points="
  150.358,96.8724 2640.76,96.8724 
  "/>
<polyline clip-path="url(#clip910)" style="stroke:#000000; stroke-linecap:butt; stroke-linejoin:round; stroke-width:4; stroke-opacity:1; fill:none" points="
  150.358,1800.78 150.358,47.2441 
  "/>
<polyline clip-path="url(#clip910)" style="stroke:#000000; stroke-linecap:butt; stroke-linejoin:round; stroke-width:4; stroke-opacity:1; fill:none" points="
  150.358,1751.17 169.256,1751.17 
  "/>
<polyline clip-path="url(#clip910)" style="stroke:#000000; stroke-linecap:butt; stroke-linejoin:round; stroke-width:4; stroke-opacity:1; fill:none" points="
  150.358,1475.46 169.256,1475.46 
  "/>
<polyline clip-path="url(#clip910)" style="stroke:#000000; stroke-linecap:butt; stroke-linejoin:round; stroke-width:4; stroke-opacity:1; fill:none" points="
  150.358,1199.74 169.256,1199.74 
  "/>
<polyline clip-path="url(#clip910)" style="stroke:#000000; stroke-linecap:butt; stroke-linejoin:round; stroke-width:4; stroke-opacity:1; fill:none" points="
  150.358,924.023 169.256,924.023 
  "/>
<polyline clip-path="url(#clip910)" style="stroke:#000000; stroke-linecap:butt; stroke-linejoin:round; stroke-width:4; stroke-opacity:1; fill:none" points="
  150.358,648.306 169.256,648.306 
  "/>
<polyline clip-path="url(#clip910)" style="stroke:#000000; stroke-linecap:butt; stroke-linejoin:round; stroke-width:4; stroke-opacity:1; fill:none" points="
  150.358,372.589 169.256,372.589 
  "/>
<polyline clip-path="url(#clip910)" style="stroke:#000000; stroke-linecap:butt; stroke-linejoin:round; stroke-width:4; stroke-opacity:1; fill:none" points="
  150.358,96.8724 169.256,96.8724 
  "/>
<path clip-path="url(#clip910)" d="M49.5521 1751.63 L79.2279 1751.63 L79.2279 1755.56 L49.5521 1755.56 L49.5521 1751.63 Z" fill="#000000" fill-rule="evenodd" fill-opacity="1" /><path clip-path="url(#clip910)" d="M90.1306 1764.52 L97.7695 1764.52 L97.7695 1738.15 L89.4593 1739.82 L89.4593 1735.56 L97.7232 1733.89 L102.399 1733.89 L102.399 1764.52 L110.038 1764.52 L110.038 1768.45 L90.1306 1768.45 L90.1306 1764.52 Z" fill="#000000" fill-rule="evenodd" fill-opacity="1" /><path clip-path="url(#clip910)" d="M98.0935 1461.26 Q94.4824 1461.26 92.6537 1464.82 Q90.8482 1468.36 90.8482 1475.49 Q90.8482 1482.6 92.6537 1486.16 Q94.4824 1489.7 98.0935 1489.7 Q101.728 1489.7 103.533 1486.16 Q105.362 1482.6 105.362 1475.49 Q105.362 1468.36 103.533 1464.82 Q101.728 1461.26 98.0935 1461.26 M98.0935 1457.55 Q103.904 1457.55 106.959 1462.16 Q110.038 1466.74 110.038 1475.49 Q110.038 1484.22 106.959 1488.82 Q103.904 1493.41 98.0935 1493.41 Q92.2834 1493.41 89.2047 1488.82 Q86.1492 1484.22 86.1492 1475.49 Q86.1492 1466.74 89.2047 1462.16 Q92.2834 1457.55 98.0935 1457.55 Z" fill="#000000" fill-rule="evenodd" fill-opacity="1" /><path clip-path="url(#clip910)" d="M90.1306 1213.08 L97.7695 1213.08 L97.7695 1186.72 L89.4593 1188.39 L89.4593 1184.13 L97.7232 1182.46 L102.399 1182.46 L102.399 1213.08 L110.038 1213.08 L110.038 1217.02 L90.1306 1217.02 L90.1306 1213.08 Z" fill="#000000" fill-rule="evenodd" fill-opacity="1" /><path clip-path="url(#clip910)" d="M93.7186 937.368 L110.038 937.368 L110.038 941.303 L88.0936 941.303 L88.0936 937.368 Q90.7556 934.613 95.3389 929.984 Q99.9454 925.331 101.126 923.988 Q103.371 921.465 104.251 919.729 Q105.154 917.97 105.154 916.28 Q105.154 913.525 103.209 911.789 Q101.288 910.053 98.1861 910.053 Q95.9871 910.053 93.5334 910.817 Q91.1028 911.581 88.3251 913.132 L88.3251 908.41 Q91.1491 907.276 93.6028 906.697 Q96.0565 906.118 98.0935 906.118 Q103.464 906.118 106.658 908.803 Q109.853 911.488 109.853 915.979 Q109.853 918.109 109.043 920.03 Q108.256 921.928 106.149 924.521 Q105.57 925.192 102.469 928.41 Q99.3667 931.604 93.7186 937.368 Z" fill="#000000" fill-rule="evenodd" fill-opacity="1" /><path clip-path="url(#clip910)" d="M102.908 646.952 Q106.265 647.67 108.14 649.938 Q110.038 652.207 110.038 655.54 Q110.038 660.656 106.519 663.457 Q103.001 666.258 96.5195 666.258 Q94.3436 666.258 92.0288 665.818 Q89.7371 665.401 87.2834 664.545 L87.2834 660.031 Q89.2278 661.165 91.5426 661.744 Q93.8574 662.322 96.3806 662.322 Q100.779 662.322 103.07 660.586 Q105.385 658.85 105.385 655.54 Q105.385 652.484 103.232 650.771 Q101.103 649.035 97.2834 649.035 L93.2556 649.035 L93.2556 645.193 L97.4685 645.193 Q100.918 645.193 102.746 643.827 Q104.575 642.438 104.575 639.846 Q104.575 637.184 102.677 635.772 Q100.802 634.336 97.2834 634.336 Q95.3621 634.336 93.163 634.753 Q90.9639 635.17 88.3251 636.049 L88.3251 631.883 Q90.9871 631.142 93.3019 630.772 Q95.6398 630.401 97.7 630.401 Q103.024 630.401 106.126 632.832 Q109.228 635.239 109.228 639.36 Q109.228 642.23 107.584 644.221 Q105.941 646.188 102.908 646.952 Z" fill="#000000" fill-rule="evenodd" fill-opacity="1" /><path clip-path="url(#clip910)" d="M100.455 359.383 L88.6491 377.832 L100.455 377.832 L100.455 359.383 M99.2278 355.309 L105.107 355.309 L105.107 377.832 L110.038 377.832 L110.038 381.721 L105.107 381.721 L105.107 389.869 L100.455 389.869 L100.455 381.721 L84.8529 381.721 L84.8529 377.207 L99.2278 355.309 Z" fill="#000000" fill-rule="evenodd" fill-opacity="1" /><path clip-path="url(#clip910)" d="M89.1352 79.5924 L107.492 79.5924 L107.492 83.5276 L93.4176 83.5276 L93.4176 91.9998 Q94.4361 91.6526 95.4547 91.4905 Q96.4732 91.3053 97.4917 91.3053 Q103.279 91.3053 106.658 94.4766 Q110.038 97.6479 110.038 103.065 Q110.038 108.643 106.566 111.745 Q103.094 114.824 96.7741 114.824 Q94.5982 114.824 92.3297 114.453 Q90.0843 114.083 87.6769 113.342 L87.6769 108.643 Q89.7602 109.777 91.9825 110.333 Q94.2047 110.889 96.6815 110.889 Q100.686 110.889 103.024 108.782 Q105.362 106.676 105.362 103.065 Q105.362 99.4535 103.024 97.347 Q100.686 95.2405 96.6815 95.2405 Q94.8065 95.2405 92.9315 95.6572 Q91.0797 96.0738 89.1352 96.9535 L89.1352 79.5924 Z" fill="#000000" fill-rule="evenodd" fill-opacity="1" /><polyline clip-path="url(#clip912)" style="stroke:#009af9; stroke-linecap:butt; stroke-linejoin:round; stroke-width:4; stroke-opacity:1; fill:none" points="
  220.841,648.306 224.665,655.475 228.489,662.62 232.313,669.742 236.137,676.84 271.496,741.369 306.854,803.898 342.213,864.43 377.571,922.963 420.069,990.671 
  462.568,1055.49 498.499,1108.04 534.431,1158.53 573.463,1211.04 612.494,1261.11 648.478,1305.12 684.462,1347.05 723.04,1389.71 761.619,1429.99 783.967,1452.24 
  806.316,1473.69 828.664,1494.34 851.013,1514.19 890.734,1547.5 930.456,1578.29 965.288,1603.22 1000.12,1626.2 1038.1,1649.05 1076.07,1669.6 1114.27,1687.94 
  1152.48,1703.95 1194.71,1718.94 1236.95,1731.07 1277.14,1739.97 1317.33,1746.28 1359.11,1750.11 1400.9,1751.15 1436.07,1749.86 1471.25,1746.6 1492.72,1743.63 
  1514.19,1739.93 1535.66,1735.49 1557.14,1730.31 1596.48,1718.91 1635.82,1705.04 1672.15,1690.03 1708.48,1672.91 1745.29,1653.42 1782.09,1631.77 1823.34,1604.92 
  1864.59,1575.36 1901.96,1546.22 1939.34,1514.85 1960.74,1495.88 1982.13,1476.19 2003.53,1455.76 2024.93,1434.6 2064.55,1393.49 2104.18,1349.86 2143.24,1304.4 
  2182.3,1256.49 2220.23,1207.64 2258.16,1156.5 2297.04,1101.68 2335.92,1044.45 2357.22,1012.07 2378.52,978.969 2399.82,945.141 2421.12,910.588 2452.06,859.103 
  2483,806.088 2513.94,751.542 2544.88,695.466 2551.23,683.773 2557.58,672.015 2563.93,660.193 2570.27,648.306 
  "/>
<polyline clip-path="url(#clip912)" style="stroke:#e26f46; stroke-linecap:butt; stroke-linejoin:round; stroke-width:4; stroke-opacity:1; fill:none" points="
  220.841,372.589 224.665,379.758 228.489,386.903 232.313,394.025 236.137,401.123 271.496,465.652 306.854,528.182 342.213,588.713 377.571,647.246 420.069,714.954 
  462.568,779.775 498.499,832.327 534.431,882.817 573.463,935.324 612.494,985.395 648.478,1029.4 684.462,1071.33 723.04,1113.99 761.619,1154.27 783.967,1176.52 
  806.316,1197.97 828.664,1218.62 851.013,1238.47 890.734,1271.78 930.456,1302.57 965.288,1327.5 1000.12,1350.48 1038.1,1373.34 1076.07,1393.88 1114.27,1412.22 
  1152.48,1428.23 1194.71,1443.22 1236.95,1455.35 1277.14,1464.25 1317.33,1470.57 1359.11,1474.4 1400.9,1475.43 1436.07,1474.14 1471.25,1470.88 1492.72,1467.91 
  1514.19,1464.21 1535.66,1459.77 1557.14,1454.59 1596.48,1443.19 1635.82,1429.32 1672.15,1414.32 1708.48,1397.2 1745.29,1377.71 1782.09,1356.05 1823.34,1329.2 
  1864.59,1299.64 1901.96,1270.5 1939.34,1239.13 1960.74,1220.17 1982.13,1200.47 2003.53,1180.04 2024.93,1158.89 2064.55,1117.77 2104.18,1074.14 2143.24,1028.68 
  2182.3,980.773 2220.23,931.927 2258.16,880.782 2297.04,825.965 2335.92,768.732 2357.22,736.354 2378.52,703.252 2399.82,669.424 2421.12,634.872 2452.06,583.386 
  2483,530.371 2513.94,475.825 2544.88,419.749 2551.23,408.056 2557.58,396.298 2563.93,384.476 2570.27,372.589 
  "/>
<polyline clip-path="url(#clip912)" style="stroke:#3da44d; stroke-linecap:butt; stroke-linejoin:round; stroke-width:4; stroke-opacity:1; fill:none" points="
  220.841,96.8724 224.665,104.041 228.489,111.186 232.313,118.308 236.137,125.407 271.496,189.935 306.854,252.465 342.213,312.996 377.571,371.529 420.069,439.237 
  462.568,504.058 498.499,556.611 534.431,607.1 573.463,659.607 612.494,709.679 648.478,753.683 684.462,795.618 723.04,838.277 761.619,878.558 783.967,900.804 
  806.316,922.252 828.664,942.902 851.013,962.754 890.734,996.066 930.456,1026.86 965.288,1051.78 1000.12,1074.77 1038.1,1097.62 1076.07,1118.16 1114.27,1136.51 
  1152.48,1152.52 1194.71,1167.5 1236.95,1179.64 1277.14,1188.53 1317.33,1194.85 1359.11,1198.68 1400.9,1199.72 1436.07,1198.43 1471.25,1195.16 1492.72,1192.2 
  1514.19,1188.49 1535.66,1184.05 1557.14,1178.87 1596.48,1167.48 1635.82,1153.61 1672.15,1138.6 1708.48,1121.48 1745.29,1101.99 1782.09,1080.33 1823.34,1053.49 
  1864.59,1023.92 1901.96,994.786 1939.34,963.415 1960.74,944.451 1982.13,924.755 2003.53,904.328 2024.93,883.168 2064.55,842.053 2104.18,798.427 2143.24,752.961 
  2182.3,705.056 2220.23,656.211 2258.16,605.065 2297.04,550.248 2335.92,493.015 2357.22,460.638 2378.52,427.535 2399.82,393.707 2421.12,359.155 2452.06,307.669 
  2483,254.654 2513.94,200.108 2544.88,144.032 2551.23,132.339 2557.58,120.581 2563.93,108.759 2570.27,96.8724 
  "/>
<polyline clip-path="url(#clip912)" style="stroke:#c271d2; stroke-linecap:butt; stroke-linejoin:round; stroke-width:4; stroke-opacity:1; fill:none" points="
  220.841,1475.46 236.137,1475.46 377.571,1475.46 462.568,1475.46 534.431,1475.46 612.494,1475.46 684.462,1475.46 761.619,1475.46 851.013,1475.46 930.456,1475.46 
  1000.12,1475.46 1076.07,1475.46 1152.48,1475.46 1236.95,1475.46 1317.33,1475.46 1400.9,1475.46 1471.25,1475.46 1557.14,1475.46 1635.82,1475.46 1708.48,1475.46 
  1782.09,1475.46 1864.59,1475.46 1939.34,1475.46 2024.93,1475.46 2104.18,1475.46 2182.3,1475.46 2258.16,1475.46 2335.92,1475.46 2421.12,1475.46 2544.88,1475.46 
  2570.27,1475.46 
  "/>
</svg>
