<?xml version="1.0" encoding="utf-8"?>
<svg xmlns="http://www.w3.org/2000/svg" xmlns:xlink="http://www.w3.org/1999/xlink" width="672" height="480" viewBox="0 0 2688 1920">
<defs>
  <clipPath id="clip020">
    <rect x="0" y="0" width="2688" height="1920"/>
  </clipPath>
</defs>
<path clip-path="url(#clip020)" d="
M0 1920 L2688 1920 L2688 0 L0 0  Z
  " fill="#ffffff" fill-rule="evenodd" fill-opacity="1"/>
<defs>
  <clipPath id="clip021">
    <rect x="537" y="0" width="1883" height="1883"/>
  </clipPath>
</defs>
<path clip-path="url(#clip020)" d="
M181.747 1800.78 L2640.76 1800.78 L2640.76 47.2441 L181.747 47.2441  Z
  " fill="#ffffff" fill-rule="evenodd" fill-opacity="1"/>
<defs>
  <clipPath id="clip022">
    <rect x="181" y="47" width="2460" height="1755"/>
  </clipPath>
</defs>
<polyline clip-path="url(#clip022)" style="stroke:#000000; stroke-linecap:butt; stroke-linejoin:round; stroke-width:2; stroke-opacity:0.1; fill:none" points="
  251.341,1800.78 251.341,47.2441 
  "/>
<polyline clip-path="url(#clip022)" style="stroke:#000000; stroke-linecap:butt; stroke-linejoin:round; stroke-width:2; stroke-opacity:0.1; fill:none" points="
  831.296,1800.78 831.296,47.2441 
  "/>
<polyline clip-path="url(#clip022)" style="stroke:#000000; stroke-linecap:butt; stroke-linejoin:round; stroke-width:2; stroke-opacity:0.1; fill:none" points="
  1411.25,1800.78 1411.25,47.2441 
  "/>
<polyline clip-path="url(#clip022)" style="stroke:#000000; stroke-linecap:butt; stroke-linejoin:round; stroke-width:2; stroke-opacity:0.1; fill:none" points="
  1991.21,1800.78 1991.21,47.2441 
  "/>
<polyline clip-path="url(#clip022)" style="stroke:#000000; stroke-linecap:butt; stroke-linejoin:round; stroke-width:2; stroke-opacity:0.1; fill:none" points="
  2571.16,1800.78 2571.16,47.2441 
  "/>
<polyline clip-path="url(#clip020)" style="stroke:#000000; stroke-linecap:butt; stroke-linejoin:round; stroke-width:4; stroke-opacity:1; fill:none" points="
  181.747,1800.78 2640.76,1800.78 
  "/>
<polyline clip-path="url(#clip020)" style="stroke:#000000; stroke-linecap:butt; stroke-linejoin:round; stroke-width:4; stroke-opacity:1; fill:none" points="
  251.341,1800.78 251.341,1781.88 
  "/>
<polyline clip-path="url(#clip020)" style="stroke:#000000; stroke-linecap:butt; stroke-linejoin:round; stroke-width:4; stroke-opacity:1; fill:none" points="
  831.296,1800.78 831.296,1781.88 
  "/>
<polyline clip-path="url(#clip020)" style="stroke:#000000; stroke-linecap:butt; stroke-linejoin:round; stroke-width:4; stroke-opacity:1; fill:none" points="
  1411.25,1800.78 1411.25,1781.88 
  "/>
<polyline clip-path="url(#clip020)" style="stroke:#000000; stroke-linecap:butt; stroke-linejoin:round; stroke-width:4; stroke-opacity:1; fill:none" points="
  1991.21,1800.78 1991.21,1781.88 
  "/>
<polyline clip-path="url(#clip020)" style="stroke:#000000; stroke-linecap:butt; stroke-linejoin:round; stroke-width:4; stroke-opacity:1; fill:none" points="
  2571.16,1800.78 2571.16,1781.88 
  "/>
<path clip-path="url(#clip020)" d="M221.284 1848.65 L250.959 1848.65 L250.959 1852.59 L221.284 1852.59 L221.284 1848.65 Z" fill="#000000" fill-rule="evenodd" fill-opacity="1" /><path clip-path="url(#clip020)" d="M265.08 1861.55 L281.399 1861.55 L281.399 1865.48 L259.455 1865.48 L259.455 1861.55 Q262.117 1858.79 266.7 1854.16 Q271.306 1849.51 272.487 1848.17 Q274.732 1845.65 275.612 1843.91 Q276.515 1842.15 276.515 1840.46 Q276.515 1837.71 274.57 1835.97 Q272.649 1834.23 269.547 1834.23 Q267.348 1834.23 264.894 1835 Q262.464 1835.76 259.686 1837.31 L259.686 1832.59 Q262.51 1831.46 264.964 1830.88 Q267.418 1830.3 269.455 1830.3 Q274.825 1830.3 278.019 1832.98 Q281.214 1835.67 281.214 1840.16 Q281.214 1842.29 280.404 1844.21 Q279.617 1846.11 277.51 1848.7 Q276.931 1849.37 273.83 1852.59 Q270.728 1855.78 265.08 1861.55 Z" fill="#000000" fill-rule="evenodd" fill-opacity="1" /><path clip-path="url(#clip020)" d="M801.053 1848.65 L830.729 1848.65 L830.729 1852.59 L801.053 1852.59 L801.053 1848.65 Z" fill="#000000" fill-rule="evenodd" fill-opacity="1" /><path clip-path="url(#clip020)" d="M841.632 1861.55 L849.271 1861.55 L849.271 1835.18 L840.961 1836.85 L840.961 1832.59 L849.224 1830.92 L853.9 1830.92 L853.9 1861.55 L861.539 1861.55 L861.539 1865.48 L841.632 1865.48 L841.632 1861.55 Z" fill="#000000" fill-rule="evenodd" fill-opacity="1" /><path clip-path="url(#clip020)" d="M1411.25 1834 Q1407.64 1834 1405.81 1837.57 Q1404.01 1841.11 1404.01 1848.24 Q1404.01 1855.34 1405.81 1858.91 Q1407.64 1862.45 1411.25 1862.45 Q1414.89 1862.45 1416.69 1858.91 Q1418.52 1855.34 1418.52 1848.24 Q1418.52 1841.11 1416.69 1837.57 Q1414.89 1834 1411.25 1834 M1411.25 1830.3 Q1417.06 1830.3 1420.12 1834.9 Q1423.2 1839.49 1423.2 1848.24 Q1423.2 1856.96 1420.12 1861.57 Q1417.06 1866.15 1411.25 1866.15 Q1405.44 1866.15 1402.36 1861.57 Q1399.31 1856.96 1399.31 1848.24 Q1399.31 1839.49 1402.36 1834.9 Q1405.44 1830.3 1411.25 1830.3 Z" fill="#000000" fill-rule="evenodd" fill-opacity="1" /><path clip-path="url(#clip020)" d="M1981.59 1861.55 L1989.23 1861.55 L1989.23 1835.18 L1980.92 1836.85 L1980.92 1832.59 L1989.18 1830.92 L1993.86 1830.92 L1993.86 1861.55 L2001.5 1861.55 L2001.5 1865.48 L1981.59 1865.48 L1981.59 1861.55 Z" fill="#000000" fill-rule="evenodd" fill-opacity="1" /><path clip-path="url(#clip020)" d="M2565.81 1861.55 L2582.13 1861.55 L2582.13 1865.48 L2560.19 1865.48 L2560.19 1861.55 Q2562.85 1858.79 2567.43 1854.16 Q2572.04 1849.51 2573.22 1848.17 Q2575.47 1845.65 2576.35 1843.91 Q2577.25 1842.15 2577.25 1840.46 Q2577.25 1837.71 2575.3 1835.97 Q2573.38 1834.23 2570.28 1834.23 Q2568.08 1834.23 2565.63 1835 Q2563.2 1835.76 2560.42 1837.31 L2560.42 1832.59 Q2563.24 1831.46 2565.7 1830.88 Q2568.15 1830.3 2570.19 1830.3 Q2575.56 1830.3 2578.75 1832.98 Q2581.95 1835.67 2581.95 1840.16 Q2581.95 1842.29 2581.14 1844.21 Q2580.35 1846.11 2578.24 1848.7 Q2577.67 1849.37 2574.56 1852.59 Q2571.46 1855.78 2565.81 1861.55 Z" fill="#000000" fill-rule="evenodd" fill-opacity="1" /><polyline clip-path="url(#clip022)" style="stroke:#000000; stroke-linecap:butt; stroke-linejoin:round; stroke-width:2; stroke-opacity:0.1; fill:none" points="
  181.747,1591.96 2640.76,1591.96 
  "/>
<polyline clip-path="url(#clip022)" style="stroke:#000000; stroke-linecap:butt; stroke-linejoin:round; stroke-width:2; stroke-opacity:0.1; fill:none" points="
  181.747,1242.68 2640.76,1242.68 
  "/>
<polyline clip-path="url(#clip022)" style="stroke:#000000; stroke-linecap:butt; stroke-linejoin:round; stroke-width:2; stroke-opacity:0.1; fill:none" points="
  181.747,893.39 2640.76,893.39 
  "/>
<polyline clip-path="url(#clip022)" style="stroke:#000000; stroke-linecap:butt; stroke-linejoin:round; stroke-width:2; stroke-opacity:0.1; fill:none" points="
  181.747,544.103 2640.76,544.103 
  "/>
<polyline clip-path="url(#clip022)" style="stroke:#000000; stroke-linecap:butt; stroke-linejoin:round; stroke-width:2; stroke-opacity:0.1; fill:none" points="
  181.747,194.817 2640.76,194.817 
  "/>
<polyline clip-path="url(#clip020)" style="stroke:#000000; stroke-linecap:butt; stroke-linejoin:round; stroke-width:4; stroke-opacity:1; fill:none" points="
  181.747,1800.78 181.747,47.2441 
  "/>
<polyline clip-path="url(#clip020)" style="stroke:#000000; stroke-linecap:butt; stroke-linejoin:round; stroke-width:4; stroke-opacity:1; fill:none" points="
  181.747,1591.96 200.644,1591.96 
  "/>
<polyline clip-path="url(#clip020)" style="stroke:#000000; stroke-linecap:butt; stroke-linejoin:round; stroke-width:4; stroke-opacity:1; fill:none" points="
  181.747,1242.68 200.644,1242.68 
  "/>
<polyline clip-path="url(#clip020)" style="stroke:#000000; stroke-linecap:butt; stroke-linejoin:round; stroke-width:4; stroke-opacity:1; fill:none" points="
  181.747,893.39 200.644,893.39 
  "/>
<polyline clip-path="url(#clip020)" style="stroke:#000000; stroke-linecap:butt; stroke-linejoin:round; stroke-width:4; stroke-opacity:1; fill:none" points="
  181.747,544.103 200.644,544.103 
  "/>
<polyline clip-path="url(#clip020)" style="stroke:#000000; stroke-linecap:butt; stroke-linejoin:round; stroke-width:4; stroke-opacity:1; fill:none" points="
  181.747,194.817 200.644,194.817 
  "/>
<path clip-path="url(#clip020)" d="M49.5521 1592.41 L79.2279 1592.41 L79.2279 1596.35 L49.5521 1596.35 L49.5521 1592.41 Z" fill="#000000" fill-rule="evenodd" fill-opacity="1" /><path clip-path="url(#clip020)" d="M99.8991 1590.1 Q96.7509 1590.1 94.8991 1592.25 Q93.0704 1594.41 93.0704 1598.16 Q93.0704 1601.88 94.8991 1604.06 Q96.7509 1606.21 99.8991 1606.21 Q103.047 1606.21 104.876 1604.06 Q106.728 1601.88 106.728 1598.16 Q106.728 1594.41 104.876 1592.25 Q103.047 1590.1 99.8991 1590.1 M109.181 1575.45 L109.181 1579.71 Q107.422 1578.87 105.617 1578.43 Q103.834 1577.99 102.075 1577.99 Q97.4454 1577.99 94.9917 1581.12 Q92.5612 1584.24 92.2139 1590.56 Q93.5797 1588.55 95.6398 1587.48 Q97.7 1586.4 100.177 1586.4 Q105.385 1586.4 108.394 1589.57 Q111.427 1592.72 111.427 1598.16 Q111.427 1603.48 108.279 1606.7 Q105.131 1609.91 99.8991 1609.91 Q93.9037 1609.91 90.7325 1605.33 Q87.5612 1600.72 87.5612 1592 Q87.5612 1583.8 91.45 1578.94 Q95.3389 1574.06 101.89 1574.06 Q103.649 1574.06 105.431 1574.41 Q107.237 1574.75 109.181 1575.45 Z" fill="#000000" fill-rule="evenodd" fill-opacity="1" /><path clip-path="url(#clip020)" d="M129.482 1577.76 Q125.871 1577.76 124.042 1581.33 Q122.237 1584.87 122.237 1592 Q122.237 1599.1 124.042 1602.67 Q125.871 1606.21 129.482 1606.21 Q133.116 1606.21 134.922 1602.67 Q136.751 1599.1 136.751 1592 Q136.751 1584.87 134.922 1581.33 Q133.116 1577.76 129.482 1577.76 M129.482 1574.06 Q135.292 1574.06 138.348 1578.66 Q141.427 1583.25 141.427 1592 Q141.427 1600.72 138.348 1605.33 Q135.292 1609.91 129.482 1609.91 Q123.672 1609.91 120.593 1605.33 Q117.538 1600.72 117.538 1592 Q117.538 1583.25 120.593 1578.66 Q123.672 1574.06 129.482 1574.06 Z" fill="#000000" fill-rule="evenodd" fill-opacity="1" /><path clip-path="url(#clip020)" d="M49.5521 1243.13 L79.2279 1243.13 L79.2279 1247.06 L49.5521 1247.06 L49.5521 1243.13 Z" fill="#000000" fill-rule="evenodd" fill-opacity="1" /><path clip-path="url(#clip020)" d="M102.168 1229.47 L90.3621 1247.92 L102.168 1247.92 L102.168 1229.47 M100.941 1225.4 L106.82 1225.4 L106.82 1247.92 L111.751 1247.92 L111.751 1251.81 L106.82 1251.81 L106.82 1259.96 L102.168 1259.96 L102.168 1251.81 L86.5658 1251.81 L86.5658 1247.29 L100.941 1225.4 Z" fill="#000000" fill-rule="evenodd" fill-opacity="1" /><path clip-path="url(#clip020)" d="M129.482 1228.48 Q125.871 1228.48 124.042 1232.04 Q122.237 1235.58 122.237 1242.71 Q122.237 1249.82 124.042 1253.38 Q125.871 1256.92 129.482 1256.92 Q133.116 1256.92 134.922 1253.38 Q136.751 1249.82 136.751 1242.71 Q136.751 1235.58 134.922 1232.04 Q133.116 1228.48 129.482 1228.48 M129.482 1224.77 Q135.292 1224.77 138.348 1229.38 Q141.427 1233.96 141.427 1242.71 Q141.427 1251.44 138.348 1256.04 Q135.292 1260.63 129.482 1260.63 Q123.672 1260.63 120.593 1256.04 Q117.538 1251.44 117.538 1242.71 Q117.538 1233.96 120.593 1229.38 Q123.672 1224.77 129.482 1224.77 Z" fill="#000000" fill-rule="evenodd" fill-opacity="1" /><path clip-path="url(#clip020)" d="M49.5521 893.841 L79.2279 893.841 L79.2279 897.777 L49.5521 897.777 L49.5521 893.841 Z" fill="#000000" fill-rule="evenodd" fill-opacity="1" /><path clip-path="url(#clip020)" d="M93.3482 906.735 L109.668 906.735 L109.668 910.67 L87.7232 910.67 L87.7232 906.735 Q90.3852 903.98 94.9685 899.351 Q99.575 894.698 100.756 893.355 Q103.001 890.832 103.881 889.096 Q104.783 887.337 104.783 885.647 Q104.783 882.892 102.839 881.156 Q100.918 879.42 97.8158 879.42 Q95.6167 879.42 93.163 880.184 Q90.7325 880.948 87.9547 882.499 L87.9547 877.777 Q90.7788 876.642 93.2324 876.064 Q95.6861 875.485 97.7232 875.485 Q103.094 875.485 106.288 878.17 Q109.482 880.855 109.482 885.346 Q109.482 887.476 108.672 889.397 Q107.885 891.295 105.779 893.888 Q105.2 894.559 102.098 897.777 Q98.9963 900.971 93.3482 906.735 Z" fill="#000000" fill-rule="evenodd" fill-opacity="1" /><path clip-path="url(#clip020)" d="M129.482 879.189 Q125.871 879.189 124.042 882.753 Q122.237 886.295 122.237 893.425 Q122.237 900.531 124.042 904.096 Q125.871 907.638 129.482 907.638 Q133.116 907.638 134.922 904.096 Q136.751 900.531 136.751 893.425 Q136.751 886.295 134.922 882.753 Q133.116 879.189 129.482 879.189 M129.482 875.485 Q135.292 875.485 138.348 880.091 Q141.427 884.675 141.427 893.425 Q141.427 902.151 138.348 906.758 Q135.292 911.341 129.482 911.341 Q123.672 911.341 120.593 906.758 Q117.538 902.151 117.538 893.425 Q117.538 884.675 120.593 880.091 Q123.672 875.485 129.482 875.485 Z" fill="#000000" fill-rule="evenodd" fill-opacity="1" /><path clip-path="url(#clip020)" d="M129.482 529.902 Q125.871 529.902 124.042 533.467 Q122.237 537.009 122.237 544.138 Q122.237 551.245 124.042 554.809 Q125.871 558.351 129.482 558.351 Q133.116 558.351 134.922 554.809 Q136.751 551.245 136.751 544.138 Q136.751 537.009 134.922 533.467 Q133.116 529.902 129.482 529.902 M129.482 526.198 Q135.292 526.198 138.348 530.805 Q141.427 535.388 141.427 544.138 Q141.427 552.865 138.348 557.471 Q135.292 562.055 129.482 562.055 Q123.672 562.055 120.593 557.471 Q117.538 552.865 117.538 544.138 Q117.538 535.388 120.593 530.805 Q123.672 526.198 129.482 526.198 Z" fill="#000000" fill-rule="evenodd" fill-opacity="1" /><path clip-path="url(#clip020)" d="M93.3482 208.162 L109.668 208.162 L109.668 212.097 L87.7232 212.097 L87.7232 208.162 Q90.3852 205.407 94.9685 200.778 Q99.575 196.125 100.756 194.782 Q103.001 192.259 103.881 190.523 Q104.783 188.764 104.783 187.074 Q104.783 184.319 102.839 182.583 Q100.918 180.847 97.8158 180.847 Q95.6167 180.847 93.163 181.611 Q90.7325 182.375 87.9547 183.926 L87.9547 179.204 Q90.7788 178.069 93.2324 177.491 Q95.6861 176.912 97.7232 176.912 Q103.094 176.912 106.288 179.597 Q109.482 182.282 109.482 186.773 Q109.482 188.903 108.672 190.824 Q107.885 192.722 105.779 195.315 Q105.2 195.986 102.098 199.204 Q98.9963 202.398 93.3482 208.162 Z" fill="#000000" fill-rule="evenodd" fill-opacity="1" /><path clip-path="url(#clip020)" d="M129.482 180.616 Q125.871 180.616 124.042 184.18 Q122.237 187.722 122.237 194.852 Q122.237 201.958 124.042 205.523 Q125.871 209.065 129.482 209.065 Q133.116 209.065 134.922 205.523 Q136.751 201.958 136.751 194.852 Q136.751 187.722 134.922 184.18 Q133.116 180.616 129.482 180.616 M129.482 176.912 Q135.292 176.912 138.348 181.518 Q141.427 186.102 141.427 194.852 Q141.427 203.578 138.348 208.185 Q135.292 212.768 129.482 212.768 Q123.672 212.768 120.593 208.185 Q117.538 203.578 117.538 194.852 Q117.538 186.102 120.593 181.518 Q123.672 176.912 129.482 176.912 Z" fill="#000000" fill-rule="evenodd" fill-opacity="1" /><polyline clip-path="url(#clip022)" style="stroke:#009af9; stroke-linecap:butt; stroke-linejoin:round; stroke-width:4; stroke-opacity:1; fill:none" points="
  251.341,1751.15 255.117,1730.97 258.893,1710.43 262.669,1689.57 266.445,1668.39 283.901,1566.82 301.357,1460.45 318.814,1350.85 336.27,1239.56 353.727,1128.04 
  371.183,1017.68 388.64,909.78 406.096,805.532 416.587,745.093 427.078,686.578 437.568,630.183 448.059,576.087 458.549,524.453 469.04,475.425 479.531,429.132 
  490.021,385.682 498.891,351.232 507.761,318.928 516.63,288.805 525.5,260.891 534.37,235.206 543.239,211.761 552.109,190.559 560.979,171.593 570.614,153.51 
  580.249,138.024 589.884,125.096 599.518,114.68 609.153,106.719 618.788,101.147 628.423,97.8924 638.058,96.8724 646.941,97.8362 655.823,100.551 664.706,104.937 
  673.589,110.914 682.471,118.395 691.354,127.292 700.236,137.512 709.119,148.962 718.642,162.496 728.165,177.214 737.688,192.996 747.211,209.719 766.257,245.506 
  785.303,283.606 829.437,375.633 873.571,464.307 893.181,500.23 912.791,533.085 932.402,562.356 952.012,587.636 969.209,606.286 986.405,621.515 1003.6,633.262 
  1020.8,641.533 1039.55,646.664 1058.3,647.899 1067.67,647.126 1077.04,645.471 1086.42,642.975 1095.79,639.679 1114.65,630.817 1133.51,619.318 1152.37,605.628 
  1171.23,590.22 1212.94,552.489 1254.64,514.009 1274.48,496.874 1294.33,481.142 1314.17,467.22 1334.01,455.453 1354.64,445.803 1375.27,439.01 1395.9,435.216 
  1416.52,434.471 1433.89,436.182 1451.26,439.959 1468.62,445.692 1485.99,453.233 1507.19,464.622 1528.39,478.04 1549.59,493.037 1570.79,509.122 1609.64,539.685 
  1648.48,568.889 1666.42,581.042 1684.36,591.956 1702.3,601.377 1720.23,609.08 1738.4,614.938 1756.57,618.685 1774.74,620.207 1792.91,619.439 1813.28,615.837 
  1833.64,609.385 1854.01,600.206 1874.37,588.499 1892.82,575.928 1911.28,561.745 1929.73,546.233 1948.18,529.71 1990.44,489.967 2032.69,451.279 2052.25,435.027 
  2071.81,420.453 2091.38,407.983 2110.94,398.01 2130.22,390.963 2149.51,386.972 2168.8,386.269 2188.08,389.028 2206.81,395.124 2225.53,404.625 2244.26,417.507 
  2262.98,433.681 2282.18,453.52 2301.37,476.429 2320.57,502.112 2339.76,530.209 2381.83,598.128 2423.89,670.466 2454.44,722.463 2484.99,771.369 2500.26,793.937 
  2515.54,814.875 2530.82,833.918 2546.09,850.815 2552.36,857.073 2558.63,862.916 2564.89,868.329 2571.16,873.298 
  "/>
<polyline clip-path="url(#clip022)" style="stroke:#e26f46; stroke-linecap:butt; stroke-linejoin:round; stroke-width:4; stroke-opacity:1; fill:none" points="
  251.341,544.103 266.445,544.103 406.096,544.103 490.021,544.103 560.979,544.103 638.058,544.103 709.119,544.103 785.303,544.103 873.571,544.103 952.012,544.103 
  1020.8,544.103 1095.79,544.103 1171.23,544.103 1254.64,544.103 1334.01,544.103 1416.52,544.103 1485.99,544.103 1570.79,544.103 1648.48,544.103 1720.23,544.103 
  1792.91,544.103 1874.37,544.103 1948.18,544.103 2032.69,544.103 2110.94,544.103 2188.08,544.103 2262.98,544.103 2339.76,544.103 2423.89,544.103 2546.09,544.103 
  2571.16,544.103 
  "/>
<circle clip-path="url(#clip022)" cx="454.496" cy="544.103" r="14.4" fill="#3da44d" fill-rule="evenodd" fill-opacity="1" stroke="#000000" stroke-opacity="1" stroke-width="3.84"/>
<circle clip-path="url(#clip022)" cx="919.88" cy="544.103" r="14.4" fill="#3da44d" fill-rule="evenodd" fill-opacity="1" stroke="#000000" stroke-opacity="1" stroke-width="3.84"/>
<circle clip-path="url(#clip022)" cx="1221.91" cy="544.103" r="14.4" fill="#3da44d" fill-rule="evenodd" fill-opacity="1" stroke="#000000" stroke-opacity="1" stroke-width="3.84"/>
<circle clip-path="url(#clip022)" cx="1615.3" cy="544.103" r="14.4" fill="#3da44d" fill-rule="evenodd" fill-opacity="1" stroke="#000000" stroke-opacity="1" stroke-width="3.84"/>
<circle clip-path="url(#clip022)" cx="1932.16" cy="544.103" r="14.4" fill="#3da44d" fill-rule="evenodd" fill-opacity="1" stroke="#000000" stroke-opacity="1" stroke-width="3.84"/>
<circle clip-path="url(#clip022)" cx="2348.77" cy="544.103" r="14.4" fill="#3da44d" fill-rule="evenodd" fill-opacity="1" stroke="#000000" stroke-opacity="1" stroke-width="3.84"/>
</svg>
