<?xml version="1.0" encoding="utf-8"?>
<svg xmlns="http://www.w3.org/2000/svg" xmlns:xlink="http://www.w3.org/1999/xlink" width="672" height="480" viewBox="0 0 2688 1920">
<defs>
  <clipPath id="clip740">
    <rect x="0" y="0" width="2688" height="1920"/>
  </clipPath>
</defs>
<path clip-path="url(#clip740)" d="
M0 1920 L2688 1920 L2688 0 L0 0  Z
  " fill="#ffffff" fill-rule="evenodd" fill-opacity="1"/>
<defs>
  <clipPath id="clip741">
    <rect x="537" y="0" width="1883" height="1883"/>
  </clipPath>
</defs>
<path clip-path="url(#clip740)" d="
M181.747 1800.78 L2640.76 1800.78 L2640.76 47.2441 L181.747 47.2441  Z
  " fill="#ffffff" fill-rule="evenodd" fill-opacity="1"/>
<defs>
  <clipPath id="clip742">
    <rect x="181" y="47" width="2460" height="1755"/>
  </clipPath>
</defs>
<polyline clip-path="url(#clip742)" style="stroke:#000000; stroke-linecap:butt; stroke-linejoin:round; stroke-width:2; stroke-opacity:0.1; fill:none" points="
  251.341,1800.78 251.341,47.2441 
  "/>
<polyline clip-path="url(#clip742)" style="stroke:#000000; stroke-linecap:butt; stroke-linejoin:round; stroke-width:2; stroke-opacity:0.1; fill:none" points="
  637.978,1800.78 637.978,47.2441 
  "/>
<polyline clip-path="url(#clip742)" style="stroke:#000000; stroke-linecap:butt; stroke-linejoin:round; stroke-width:2; stroke-opacity:0.1; fill:none" points="
  1024.61,1800.78 1024.61,47.2441 
  "/>
<polyline clip-path="url(#clip742)" style="stroke:#000000; stroke-linecap:butt; stroke-linejoin:round; stroke-width:2; stroke-opacity:0.1; fill:none" points="
  1411.25,1800.78 1411.25,47.2441 
  "/>
<polyline clip-path="url(#clip742)" style="stroke:#000000; stroke-linecap:butt; stroke-linejoin:round; stroke-width:2; stroke-opacity:0.1; fill:none" points="
  1797.89,1800.78 1797.89,47.2441 
  "/>
<polyline clip-path="url(#clip742)" style="stroke:#000000; stroke-linecap:butt; stroke-linejoin:round; stroke-width:2; stroke-opacity:0.1; fill:none" points="
  2184.52,1800.78 2184.52,47.2441 
  "/>
<polyline clip-path="url(#clip742)" style="stroke:#000000; stroke-linecap:butt; stroke-linejoin:round; stroke-width:2; stroke-opacity:0.1; fill:none" points="
  2571.16,1800.78 2571.16,47.2441 
  "/>
<polyline clip-path="url(#clip740)" style="stroke:#000000; stroke-linecap:butt; stroke-linejoin:round; stroke-width:4; stroke-opacity:1; fill:none" points="
  181.747,1800.78 2640.76,1800.78 
  "/>
<polyline clip-path="url(#clip740)" style="stroke:#000000; stroke-linecap:butt; stroke-linejoin:round; stroke-width:4; stroke-opacity:1; fill:none" points="
  251.341,1800.78 251.341,1781.88 
  "/>
<polyline clip-path="url(#clip740)" style="stroke:#000000; stroke-linecap:butt; stroke-linejoin:round; stroke-width:4; stroke-opacity:1; fill:none" points="
  637.978,1800.78 637.978,1781.88 
  "/>
<polyline clip-path="url(#clip740)" style="stroke:#000000; stroke-linecap:butt; stroke-linejoin:round; stroke-width:4; stroke-opacity:1; fill:none" points="
  1024.61,1800.78 1024.61,1781.88 
  "/>
<polyline clip-path="url(#clip740)" style="stroke:#000000; stroke-linecap:butt; stroke-linejoin:round; stroke-width:4; stroke-opacity:1; fill:none" points="
  1411.25,1800.78 1411.25,1781.88 
  "/>
<polyline clip-path="url(#clip740)" style="stroke:#000000; stroke-linecap:butt; stroke-linejoin:round; stroke-width:4; stroke-opacity:1; fill:none" points="
  1797.89,1800.78 1797.89,1781.88 
  "/>
<polyline clip-path="url(#clip740)" style="stroke:#000000; stroke-linecap:butt; stroke-linejoin:round; stroke-width:4; stroke-opacity:1; fill:none" points="
  2184.52,1800.78 2184.52,1781.88 
  "/>
<polyline clip-path="url(#clip740)" style="stroke:#000000; stroke-linecap:butt; stroke-linejoin:round; stroke-width:4; stroke-opacity:1; fill:none" points="
  2571.16,1800.78 2571.16,1781.88 
  "/>
<path clip-path="url(#clip740)" d="M220.809 1848.65 L250.485 1848.65 L250.485 1852.59 L220.809 1852.59 L220.809 1848.65 Z" fill="#000000" fill-rule="evenodd" fill-opacity="1" /><path clip-path="url(#clip740)" d="M274.744 1846.85 Q278.1 1847.57 279.975 1849.84 Q281.873 1852.1 281.873 1855.44 Q281.873 1860.55 278.355 1863.35 Q274.836 1866.15 268.355 1866.15 Q266.179 1866.15 263.864 1865.71 Q261.573 1865.3 259.119 1864.44 L259.119 1859.93 Q261.063 1861.06 263.378 1861.64 Q265.693 1862.22 268.216 1862.22 Q272.614 1862.22 274.906 1860.48 Q277.221 1858.75 277.221 1855.44 Q277.221 1852.38 275.068 1850.67 Q272.938 1848.93 269.119 1848.93 L265.091 1848.93 L265.091 1845.09 L269.304 1845.09 Q272.753 1845.09 274.582 1843.72 Q276.411 1842.34 276.411 1839.74 Q276.411 1837.08 274.512 1835.67 Q272.637 1834.23 269.119 1834.23 Q267.198 1834.23 264.999 1834.65 Q262.8 1835.07 260.161 1835.95 L260.161 1831.78 Q262.823 1831.04 265.137 1830.67 Q267.475 1830.3 269.536 1830.3 Q274.86 1830.3 277.961 1832.73 Q281.063 1835.14 281.063 1839.26 Q281.063 1842.13 279.42 1844.12 Q277.776 1846.09 274.744 1846.85 Z" fill="#000000" fill-rule="evenodd" fill-opacity="1" /><path clip-path="url(#clip740)" d="M607.92 1848.65 L637.596 1848.65 L637.596 1852.59 L607.92 1852.59 L607.92 1848.65 Z" fill="#000000" fill-rule="evenodd" fill-opacity="1" /><path clip-path="url(#clip740)" d="M651.716 1861.55 L668.036 1861.55 L668.036 1865.48 L646.091 1865.48 L646.091 1861.55 Q648.753 1858.79 653.337 1854.16 Q657.943 1849.51 659.124 1848.17 Q661.369 1845.65 662.249 1843.91 Q663.151 1842.15 663.151 1840.46 Q663.151 1837.71 661.207 1835.97 Q659.286 1834.23 656.184 1834.23 Q653.985 1834.23 651.531 1835 Q649.101 1835.76 646.323 1837.31 L646.323 1832.59 Q649.147 1831.46 651.601 1830.88 Q654.054 1830.3 656.091 1830.3 Q661.462 1830.3 664.656 1832.98 Q667.85 1835.67 667.85 1840.16 Q667.85 1842.29 667.04 1844.21 Q666.253 1846.11 664.147 1848.7 Q663.568 1849.37 660.466 1852.59 Q657.364 1855.78 651.716 1861.55 Z" fill="#000000" fill-rule="evenodd" fill-opacity="1" /><path clip-path="url(#clip740)" d="M994.372 1848.65 L1024.05 1848.65 L1024.05 1852.59 L994.372 1852.59 L994.372 1848.65 Z" fill="#000000" fill-rule="evenodd" fill-opacity="1" /><path clip-path="url(#clip740)" d="M1034.95 1861.55 L1042.59 1861.55 L1042.59 1835.18 L1034.28 1836.85 L1034.28 1832.59 L1042.54 1830.92 L1047.22 1830.92 L1047.22 1861.55 L1054.86 1861.55 L1054.86 1865.48 L1034.95 1865.48 L1034.95 1861.55 Z" fill="#000000" fill-rule="evenodd" fill-opacity="1" /><path clip-path="url(#clip740)" d="M1411.25 1834 Q1407.64 1834 1405.81 1837.57 Q1404.01 1841.11 1404.01 1848.24 Q1404.01 1855.34 1405.81 1858.91 Q1407.64 1862.45 1411.25 1862.45 Q1414.89 1862.45 1416.69 1858.91 Q1418.52 1855.34 1418.52 1848.24 Q1418.52 1841.11 1416.69 1837.57 Q1414.89 1834 1411.25 1834 M1411.25 1830.3 Q1417.06 1830.3 1420.12 1834.9 Q1423.2 1839.49 1423.2 1848.24 Q1423.2 1856.96 1420.12 1861.57 Q1417.06 1866.15 1411.25 1866.15 Q1405.44 1866.15 1402.36 1861.57 Q1399.31 1856.96 1399.31 1848.24 Q1399.31 1839.49 1402.36 1834.9 Q1405.44 1830.3 1411.25 1830.3 Z" fill="#000000" fill-rule="evenodd" fill-opacity="1" /><path clip-path="url(#clip740)" d="M1788.27 1861.55 L1795.91 1861.55 L1795.91 1835.18 L1787.6 1836.85 L1787.6 1832.59 L1795.86 1830.92 L1800.54 1830.92 L1800.54 1861.55 L1808.18 1861.55 L1808.18 1865.48 L1788.27 1865.48 L1788.27 1861.55 Z" fill="#000000" fill-rule="evenodd" fill-opacity="1" /><path clip-path="url(#clip740)" d="M2179.18 1861.55 L2195.5 1861.55 L2195.5 1865.48 L2173.55 1865.48 L2173.55 1861.55 Q2176.21 1858.79 2180.8 1854.16 Q2185.4 1849.51 2186.58 1848.17 Q2188.83 1845.65 2189.71 1843.91 Q2190.61 1842.15 2190.61 1840.46 Q2190.61 1837.71 2188.67 1835.97 Q2186.75 1834.23 2183.65 1834.23 Q2181.45 1834.23 2178.99 1835 Q2176.56 1835.76 2173.78 1837.31 L2173.78 1832.59 Q2176.61 1831.46 2179.06 1830.88 Q2181.52 1830.3 2183.55 1830.3 Q2188.92 1830.3 2192.12 1832.98 Q2195.31 1835.67 2195.31 1840.16 Q2195.31 1842.29 2194.5 1844.21 Q2193.71 1846.11 2191.61 1848.7 Q2191.03 1849.37 2187.93 1852.59 Q2184.83 1855.78 2179.18 1861.55 Z" fill="#000000" fill-rule="evenodd" fill-opacity="1" /><path clip-path="url(#clip740)" d="M2575.41 1846.85 Q2578.77 1847.57 2580.64 1849.84 Q2582.54 1852.1 2582.54 1855.44 Q2582.54 1860.55 2579.02 1863.35 Q2575.5 1866.15 2569.02 1866.15 Q2566.84 1866.15 2564.53 1865.71 Q2562.24 1865.3 2559.78 1864.44 L2559.78 1859.93 Q2561.73 1861.06 2564.04 1861.64 Q2566.36 1862.22 2568.88 1862.22 Q2573.28 1862.22 2575.57 1860.48 Q2577.89 1858.75 2577.89 1855.44 Q2577.89 1852.38 2575.73 1850.67 Q2573.6 1848.93 2569.78 1848.93 L2565.76 1848.93 L2565.76 1845.09 L2569.97 1845.09 Q2573.42 1845.09 2575.25 1843.72 Q2577.08 1842.34 2577.08 1839.74 Q2577.08 1837.08 2575.18 1835.67 Q2573.3 1834.23 2569.78 1834.23 Q2567.86 1834.23 2565.66 1834.65 Q2563.46 1835.07 2560.83 1835.95 L2560.83 1831.78 Q2563.49 1831.04 2565.8 1830.67 Q2568.14 1830.3 2570.2 1830.3 Q2575.52 1830.3 2578.63 1832.73 Q2581.73 1835.14 2581.73 1839.26 Q2581.73 1842.13 2580.08 1844.12 Q2578.44 1846.09 2575.41 1846.85 Z" fill="#000000" fill-rule="evenodd" fill-opacity="1" /><polyline clip-path="url(#clip742)" style="stroke:#000000; stroke-linecap:butt; stroke-linejoin:round; stroke-width:2; stroke-opacity:0.1; fill:none" points="
  181.747,1684.98 2640.76,1684.98 
  "/>
<polyline clip-path="url(#clip742)" style="stroke:#000000; stroke-linecap:butt; stroke-linejoin:round; stroke-width:2; stroke-opacity:0.1; fill:none" points="
  181.747,1354.12 2640.76,1354.12 
  "/>
<polyline clip-path="url(#clip742)" style="stroke:#000000; stroke-linecap:butt; stroke-linejoin:round; stroke-width:2; stroke-opacity:0.1; fill:none" points="
  181.747,1023.27 2640.76,1023.27 
  "/>
<polyline clip-path="url(#clip742)" style="stroke:#000000; stroke-linecap:butt; stroke-linejoin:round; stroke-width:2; stroke-opacity:0.1; fill:none" points="
  181.747,692.413 2640.76,692.413 
  "/>
<polyline clip-path="url(#clip742)" style="stroke:#000000; stroke-linecap:butt; stroke-linejoin:round; stroke-width:2; stroke-opacity:0.1; fill:none" points="
  181.747,361.557 2640.76,361.557 
  "/>
<polyline clip-path="url(#clip740)" style="stroke:#000000; stroke-linecap:butt; stroke-linejoin:round; stroke-width:4; stroke-opacity:1; fill:none" points="
  181.747,1800.78 181.747,47.2441 
  "/>
<polyline clip-path="url(#clip740)" style="stroke:#000000; stroke-linecap:butt; stroke-linejoin:round; stroke-width:4; stroke-opacity:1; fill:none" points="
  181.747,1684.98 200.644,1684.98 
  "/>
<polyline clip-path="url(#clip740)" style="stroke:#000000; stroke-linecap:butt; stroke-linejoin:round; stroke-width:4; stroke-opacity:1; fill:none" points="
  181.747,1354.12 200.644,1354.12 
  "/>
<polyline clip-path="url(#clip740)" style="stroke:#000000; stroke-linecap:butt; stroke-linejoin:round; stroke-width:4; stroke-opacity:1; fill:none" points="
  181.747,1023.27 200.644,1023.27 
  "/>
<polyline clip-path="url(#clip740)" style="stroke:#000000; stroke-linecap:butt; stroke-linejoin:round; stroke-width:4; stroke-opacity:1; fill:none" points="
  181.747,692.413 200.644,692.413 
  "/>
<polyline clip-path="url(#clip740)" style="stroke:#000000; stroke-linecap:butt; stroke-linejoin:round; stroke-width:4; stroke-opacity:1; fill:none" points="
  181.747,361.557 200.644,361.557 
  "/>
<path clip-path="url(#clip740)" d="M50.5475 1685.43 L80.2233 1685.43 L80.2233 1689.37 L50.5475 1689.37 L50.5475 1685.43 Z" fill="#000000" fill-rule="evenodd" fill-opacity="1" /><path clip-path="url(#clip740)" d="M91.126 1698.32 L98.7648 1698.32 L98.7648 1671.96 L90.4547 1673.63 L90.4547 1669.37 L98.7185 1667.7 L103.394 1667.7 L103.394 1698.32 L111.033 1698.32 L111.033 1702.26 L91.126 1702.26 L91.126 1698.32 Z" fill="#000000" fill-rule="evenodd" fill-opacity="1" /><path clip-path="url(#clip740)" d="M120.524 1667.7 L138.88 1667.7 L138.88 1671.63 L124.806 1671.63 L124.806 1680.11 Q125.825 1679.76 126.843 1679.6 Q127.862 1679.41 128.88 1679.41 Q134.667 1679.41 138.047 1682.58 Q141.427 1685.76 141.427 1691.17 Q141.427 1696.75 137.954 1699.85 Q134.482 1702.93 128.163 1702.93 Q125.987 1702.93 123.718 1702.56 Q121.473 1702.19 119.066 1701.45 L119.066 1696.75 Q121.149 1697.88 123.371 1698.44 Q125.593 1699 128.07 1699 Q132.075 1699 134.413 1696.89 Q136.751 1694.78 136.751 1691.17 Q136.751 1687.56 134.413 1685.45 Q132.075 1683.35 128.07 1683.35 Q126.195 1683.35 124.32 1683.76 Q122.468 1684.18 120.524 1685.06 L120.524 1667.7 Z" fill="#000000" fill-rule="evenodd" fill-opacity="1" /><path clip-path="url(#clip740)" d="M49.5521 1354.58 L79.2279 1354.58 L79.2279 1358.51 L49.5521 1358.51 L49.5521 1354.58 Z" fill="#000000" fill-rule="evenodd" fill-opacity="1" /><path clip-path="url(#clip740)" d="M90.1306 1367.47 L97.7695 1367.47 L97.7695 1341.1 L89.4593 1342.77 L89.4593 1338.51 L97.7232 1336.84 L102.399 1336.84 L102.399 1367.47 L110.038 1367.47 L110.038 1371.4 L90.1306 1371.4 L90.1306 1367.47 Z" fill="#000000" fill-rule="evenodd" fill-opacity="1" /><path clip-path="url(#clip740)" d="M129.482 1339.92 Q125.871 1339.92 124.042 1343.49 Q122.237 1347.03 122.237 1354.16 Q122.237 1361.27 124.042 1364.83 Q125.871 1368.37 129.482 1368.37 Q133.116 1368.37 134.922 1364.83 Q136.751 1361.27 136.751 1354.16 Q136.751 1347.03 134.922 1343.49 Q133.116 1339.92 129.482 1339.92 M129.482 1336.22 Q135.292 1336.22 138.348 1340.83 Q141.427 1345.41 141.427 1354.16 Q141.427 1362.89 138.348 1367.49 Q135.292 1372.08 129.482 1372.08 Q123.672 1372.08 120.593 1367.49 Q117.538 1362.89 117.538 1354.16 Q117.538 1345.41 120.593 1340.83 Q123.672 1336.22 129.482 1336.22 Z" fill="#000000" fill-rule="evenodd" fill-opacity="1" /><path clip-path="url(#clip740)" d="M80.7094 1023.72 L110.385 1023.72 L110.385 1027.65 L80.7094 1027.65 L80.7094 1023.72 Z" fill="#000000" fill-rule="evenodd" fill-opacity="1" /><path clip-path="url(#clip740)" d="M120.524 1005.99 L138.88 1005.99 L138.88 1009.92 L124.806 1009.92 L124.806 1018.4 Q125.825 1018.05 126.843 1017.89 Q127.862 1017.7 128.88 1017.7 Q134.667 1017.7 138.047 1020.87 Q141.427 1024.04 141.427 1029.46 Q141.427 1035.04 137.954 1038.14 Q134.482 1041.22 128.163 1041.22 Q125.987 1041.22 123.718 1040.85 Q121.473 1040.48 119.066 1039.74 L119.066 1035.04 Q121.149 1036.17 123.371 1036.73 Q125.593 1037.28 128.07 1037.28 Q132.075 1037.28 134.413 1035.18 Q136.751 1033.07 136.751 1029.46 Q136.751 1025.85 134.413 1023.74 Q132.075 1021.64 128.07 1021.64 Q126.195 1021.64 124.32 1022.05 Q122.468 1022.47 120.524 1023.35 L120.524 1005.99 Z" fill="#000000" fill-rule="evenodd" fill-opacity="1" /><path clip-path="url(#clip740)" d="M129.482 678.211 Q125.871 678.211 124.042 681.776 Q122.237 685.318 122.237 692.447 Q122.237 699.554 124.042 703.119 Q125.871 706.66 129.482 706.66 Q133.116 706.66 134.922 703.119 Q136.751 699.554 136.751 692.447 Q136.751 685.318 134.922 681.776 Q133.116 678.211 129.482 678.211 M129.482 674.508 Q135.292 674.508 138.348 679.114 Q141.427 683.697 141.427 692.447 Q141.427 701.174 138.348 705.781 Q135.292 710.364 129.482 710.364 Q123.672 710.364 120.593 705.781 Q117.538 701.174 117.538 692.447 Q117.538 683.697 120.593 679.114 Q123.672 674.508 129.482 674.508 Z" fill="#000000" fill-rule="evenodd" fill-opacity="1" /><path clip-path="url(#clip740)" d="M120.524 344.277 L138.88 344.277 L138.88 348.212 L124.806 348.212 L124.806 356.684 Q125.825 356.337 126.843 356.175 Q127.862 355.99 128.88 355.99 Q134.667 355.99 138.047 359.161 Q141.427 362.332 141.427 367.749 Q141.427 373.328 137.954 376.43 Q134.482 379.508 128.163 379.508 Q125.987 379.508 123.718 379.138 Q121.473 378.768 119.066 378.027 L119.066 373.328 Q121.149 374.462 123.371 375.018 Q125.593 375.573 128.07 375.573 Q132.075 375.573 134.413 373.467 Q136.751 371.36 136.751 367.749 Q136.751 364.138 134.413 362.032 Q132.075 359.925 128.07 359.925 Q126.195 359.925 124.32 360.342 Q122.468 360.758 120.524 361.638 L120.524 344.277 Z" fill="#000000" fill-rule="evenodd" fill-opacity="1" /><polyline clip-path="url(#clip742)" style="stroke:#009af9; stroke-linecap:butt; stroke-linejoin:round; stroke-width:4; stroke-opacity:1; fill:none" points="
  251.341,96.8724 255.117,100.743 258.893,104.602 262.669,108.448 266.445,112.281 301.357,147.125 336.27,180.891 371.183,213.578 406.096,245.185 448.059,281.747 
  490.021,316.749 525.5,345.128 560.979,372.391 599.518,400.745 638.058,427.783 673.589,451.545 709.119,474.19 747.211,497.226 785.303,518.977 807.37,530.99 
  829.437,542.572 851.504,553.722 873.571,564.442 912.791,582.43 952.012,599.057 986.405,612.517 1020.8,624.929 1058.3,637.268 1095.79,648.363 1133.51,658.267 
  1171.23,666.912 1212.94,675.004 1254.64,681.556 1294.33,686.361 1334.01,689.772 1375.27,691.839 1416.52,692.4 1451.26,691.704 1485.99,689.94 1507.19,688.338 
  1528.39,686.339 1549.59,683.941 1570.79,681.145 1609.64,674.991 1648.48,667.501 1684.36,659.397 1720.23,650.153 1756.57,639.628 1792.91,627.933 1833.64,613.438 
  1874.37,597.473 1911.28,581.739 1948.18,564.799 1969.31,554.559 1990.44,543.923 2011.56,532.892 2032.69,521.466 2071.81,499.264 2110.94,475.707 2149.51,451.156 
  2188.08,425.287 2225.53,398.911 2262.98,371.293 2301.37,341.692 2339.76,310.786 2360.79,293.303 2381.83,275.428 2402.86,257.161 2423.89,238.503 2454.44,210.701 
  2484.99,182.073 2515.54,152.619 2546.09,122.338 2552.36,116.024 2558.63,109.675 2564.89,103.291 2571.16,96.8724 
  "/>
<polyline clip-path="url(#clip742)" style="stroke:#e26f46; stroke-linecap:butt; stroke-linejoin:round; stroke-width:4; stroke-opacity:1; fill:none" points="
  251.341,361.557 266.445,366.727 406.096,414.528 490.021,443.255 560.979,467.543 638.058,493.927 709.119,518.25 785.303,544.327 873.571,574.541 952.012,601.39 
  1020.8,624.935 1095.79,650.605 1171.23,676.428 1254.64,704.979 1334.01,732.144 1416.52,760.389 1485.99,784.165 1570.79,813.194 1648.48,839.786 1720.23,864.345 
  1792.91,889.224 1874.37,917.105 1948.18,942.37 2032.69,971.297 2110.94,998.081 2188.08,1024.49 2262.98,1050.12 2339.76,1076.41 2423.89,1105.2 2546.09,1147.03 
  2571.16,1155.61 
  "/>
<polyline clip-path="url(#clip742)" style="stroke:#3da44d; stroke-linecap:butt; stroke-linejoin:round; stroke-width:4; stroke-opacity:1; fill:none" points="
  251.341,1751.15 266.445,1740.81 406.096,1645.21 490.021,1587.75 560.979,1539.18 638.058,1486.41 709.119,1437.76 785.303,1385.61 873.571,1325.18 952.012,1271.48 
  1020.8,1224.39 1095.79,1173.05 1171.23,1121.41 1254.64,1064.31 1334.01,1009.98 1416.52,953.487 1485.99,905.934 1570.79,847.877 1648.48,794.693 1720.23,745.574 
  1792.91,695.818 1874.37,640.055 1948.18,589.525 2032.69,531.671 2110.94,478.104 2188.08,425.293 2262.98,374.018 2339.76,321.454 2423.89,263.865 2546.09,180.206 
  2571.16,163.044 
  "/>
<path clip-path="url(#clip740)" d="
M2232.56 313.055 L2558.79 313.055 L2558.79 105.695 L2232.56 105.695  Z
  " fill="#ffffff" fill-rule="evenodd" fill-opacity="1"/>
<polyline clip-path="url(#clip740)" style="stroke:#000000; stroke-linecap:butt; stroke-linejoin:round; stroke-width:4; stroke-opacity:1; fill:none" points="
  2232.56,313.055 2558.79,313.055 2558.79,105.695 2232.56,105.695 2232.56,313.055 
  "/>
<polyline clip-path="url(#clip740)" style="stroke:#009af9; stroke-linecap:butt; stroke-linejoin:round; stroke-width:4; stroke-opacity:1; fill:none" points="
  2259.88,157.535 2423.81,157.535 
  "/>
<path clip-path="url(#clip740)" d="M2464.98 177.223 Q2463.17 181.852 2461.46 183.264 Q2459.75 184.676 2456.88 184.676 L2453.47 184.676 L2453.47 181.112 L2455.97 181.112 Q2457.73 181.112 2458.7 180.278 Q2459.68 179.445 2460.86 176.343 L2461.62 174.399 L2451.14 148.889 L2455.65 148.889 L2463.75 169.167 L2471.85 148.889 L2476.37 148.889 L2464.98 177.223 Z" fill="#000000" fill-rule="evenodd" fill-opacity="1" /><path clip-path="url(#clip740)" d="M2483.66 170.88 L2491.3 170.88 L2491.3 144.515 L2482.99 146.181 L2482.99 141.922 L2491.25 140.255 L2495.93 140.255 L2495.93 170.88 L2503.57 170.88 L2503.57 174.815 L2483.66 174.815 L2483.66 170.88 Z" fill="#000000" fill-rule="evenodd" fill-opacity="1" /><polyline clip-path="url(#clip740)" style="stroke:#e26f46; stroke-linecap:butt; stroke-linejoin:round; stroke-width:4; stroke-opacity:1; fill:none" points="
  2259.88,209.375 2423.81,209.375 
  "/>
<path clip-path="url(#clip740)" d="M2464.98 229.063 Q2463.17 233.692 2461.46 235.104 Q2459.75 236.516 2456.88 236.516 L2453.47 236.516 L2453.47 232.952 L2455.97 232.952 Q2457.73 232.952 2458.7 232.118 Q2459.68 231.285 2460.86 228.183 L2461.62 226.239 L2451.14 200.729 L2455.65 200.729 L2463.75 221.007 L2471.85 200.729 L2476.37 200.729 L2464.98 229.063 Z" fill="#000000" fill-rule="evenodd" fill-opacity="1" /><path clip-path="url(#clip740)" d="M2486.88 222.72 L2503.2 222.72 L2503.2 226.655 L2481.25 226.655 L2481.25 222.72 Q2483.91 219.965 2488.5 215.336 Q2493.1 210.683 2494.28 209.341 Q2496.53 206.817 2497.41 205.081 Q2498.31 203.322 2498.31 201.632 Q2498.31 198.878 2496.37 197.142 Q2494.45 195.405 2491.34 195.405 Q2489.14 195.405 2486.69 196.169 Q2484.26 196.933 2481.48 198.484 L2481.48 193.762 Q2484.31 192.628 2486.76 192.049 Q2489.21 191.47 2491.25 191.47 Q2496.62 191.47 2499.82 194.155 Q2503.01 196.841 2503.01 201.331 Q2503.01 203.461 2502.2 205.382 Q2501.41 207.28 2499.31 209.873 Q2498.73 210.544 2495.63 213.762 Q2492.52 216.956 2486.88 222.72 Z" fill="#000000" fill-rule="evenodd" fill-opacity="1" /><polyline clip-path="url(#clip740)" style="stroke:#3da44d; stroke-linecap:butt; stroke-linejoin:round; stroke-width:4; stroke-opacity:1; fill:none" points="
  2259.88,261.215 2423.81,261.215 
  "/>
<path clip-path="url(#clip740)" d="M2464.98 280.903 Q2463.17 285.532 2461.46 286.944 Q2459.75 288.356 2456.88 288.356 L2453.47 288.356 L2453.47 284.792 L2455.97 284.792 Q2457.73 284.792 2458.7 283.958 Q2459.68 283.125 2460.86 280.023 L2461.62 278.079 L2451.14 252.569 L2455.65 252.569 L2463.75 272.847 L2471.85 252.569 L2476.37 252.569 L2464.98 280.903 Z" fill="#000000" fill-rule="evenodd" fill-opacity="1" /><path clip-path="url(#clip740)" d="M2497.01 259.861 Q2500.37 260.579 2502.25 262.847 Q2504.14 265.116 2504.14 268.449 Q2504.14 273.565 2500.63 276.366 Q2497.11 279.167 2490.63 279.167 Q2488.45 279.167 2486.14 278.727 Q2483.84 278.31 2481.39 277.454 L2481.39 272.94 Q2483.33 274.074 2485.65 274.653 Q2487.96 275.231 2490.49 275.231 Q2494.89 275.231 2497.18 273.495 Q2499.49 271.759 2499.49 268.449 Q2499.49 265.393 2497.34 263.681 Q2495.21 261.944 2491.39 261.944 L2487.36 261.944 L2487.36 258.102 L2491.57 258.102 Q2495.02 258.102 2496.85 256.736 Q2498.68 255.347 2498.68 252.755 Q2498.68 250.093 2496.78 248.681 Q2494.91 247.245 2491.39 247.245 Q2489.47 247.245 2487.27 247.662 Q2485.07 248.079 2482.43 248.958 L2482.43 244.792 Q2485.09 244.051 2487.41 243.681 Q2489.75 243.31 2491.81 243.31 Q2497.13 243.31 2500.23 245.741 Q2503.33 248.148 2503.33 252.269 Q2503.33 255.139 2501.69 257.13 Q2500.05 259.097 2497.01 259.861 Z" fill="#000000" fill-rule="evenodd" fill-opacity="1" /></svg>
