<?xml version="1.0" encoding="utf-8"?>
<svg xmlns="http://www.w3.org/2000/svg" xmlns:xlink="http://www.w3.org/1999/xlink" width="672" height="480" viewBox="0 0 2688 1920">
<defs>
  <clipPath id="clip510">
    <rect x="0" y="0" width="2688" height="1920"/>
  </clipPath>
</defs>
<path clip-path="url(#clip510)" d="
M0 1920 L2688 1920 L2688 0 L0 0  Z
  " fill="#ffffff" fill-rule="evenodd" fill-opacity="1"/>
<defs>
  <clipPath id="clip511">
    <rect x="537" y="0" width="1883" height="1883"/>
  </clipPath>
</defs>
<path clip-path="url(#clip510)" d="
M256.144 1800.78 L2640.76 1800.78 L2640.76 47.2441 L256.144 47.2441  Z
  " fill="#ffffff" fill-rule="evenodd" fill-opacity="1"/>
<defs>
  <clipPath id="clip512">
    <rect x="256" y="47" width="2386" height="1755"/>
  </clipPath>
</defs>
<polyline clip-path="url(#clip512)" style="stroke:#000000; stroke-linecap:butt; stroke-linejoin:round; stroke-width:2; stroke-opacity:0.1; fill:none" points="
  484.321,1800.78 484.321,47.2441 
  "/>
<polyline clip-path="url(#clip512)" style="stroke:#000000; stroke-linecap:butt; stroke-linejoin:round; stroke-width:2; stroke-opacity:0.1; fill:none" points="
  1127.07,1800.78 1127.07,47.2441 
  "/>
<polyline clip-path="url(#clip512)" style="stroke:#000000; stroke-linecap:butt; stroke-linejoin:round; stroke-width:2; stroke-opacity:0.1; fill:none" points="
  1769.83,1800.78 1769.83,47.2441 
  "/>
<polyline clip-path="url(#clip512)" style="stroke:#000000; stroke-linecap:butt; stroke-linejoin:round; stroke-width:2; stroke-opacity:0.1; fill:none" points="
  2412.58,1800.78 2412.58,47.2441 
  "/>
<polyline clip-path="url(#clip510)" style="stroke:#000000; stroke-linecap:butt; stroke-linejoin:round; stroke-width:4; stroke-opacity:1; fill:none" points="
  256.144,1800.78 2640.76,1800.78 
  "/>
<polyline clip-path="url(#clip510)" style="stroke:#000000; stroke-linecap:butt; stroke-linejoin:round; stroke-width:4; stroke-opacity:1; fill:none" points="
  484.321,1800.78 484.321,1781.88 
  "/>
<polyline clip-path="url(#clip510)" style="stroke:#000000; stroke-linecap:butt; stroke-linejoin:round; stroke-width:4; stroke-opacity:1; fill:none" points="
  1127.07,1800.78 1127.07,1781.88 
  "/>
<polyline clip-path="url(#clip510)" style="stroke:#000000; stroke-linecap:butt; stroke-linejoin:round; stroke-width:4; stroke-opacity:1; fill:none" points="
  1769.83,1800.78 1769.83,1781.88 
  "/>
<polyline clip-path="url(#clip510)" style="stroke:#000000; stroke-linecap:butt; stroke-linejoin:round; stroke-width:4; stroke-opacity:1; fill:none" points="
  2412.58,1800.78 2412.58,1781.88 
  "/>
<path clip-path="url(#clip510)" d="M484.321 1834 Q480.71 1834 478.882 1837.57 Q477.076 1841.11 477.076 1848.24 Q477.076 1855.34 478.882 1858.91 Q480.71 1862.45 484.321 1862.45 Q487.956 1862.45 489.761 1858.91 Q491.59 1855.34 491.59 1848.24 Q491.59 1841.11 489.761 1837.57 Q487.956 1834 484.321 1834 M484.321 1830.3 Q490.132 1830.3 493.187 1834.9 Q496.266 1839.49 496.266 1848.24 Q496.266 1856.96 493.187 1861.57 Q490.132 1866.15 484.321 1866.15 Q478.511 1866.15 475.433 1861.57 Q472.377 1856.96 472.377 1848.24 Q472.377 1839.49 475.433 1834.9 Q478.511 1830.3 484.321 1830.3 Z" fill="#000000" fill-rule="evenodd" fill-opacity="1" /><path clip-path="url(#clip510)" d="M1117.46 1861.55 L1125.09 1861.55 L1125.09 1835.18 L1116.78 1836.85 L1116.78 1832.59 L1125.05 1830.92 L1129.72 1830.92 L1129.72 1861.55 L1137.36 1861.55 L1137.36 1865.48 L1117.46 1865.48 L1117.46 1861.55 Z" fill="#000000" fill-rule="evenodd" fill-opacity="1" /><path clip-path="url(#clip510)" d="M1764.48 1861.55 L1780.8 1861.55 L1780.8 1865.48 L1758.85 1865.48 L1758.85 1861.55 Q1761.52 1858.79 1766.1 1854.16 Q1770.71 1849.51 1771.89 1848.17 Q1774.13 1845.65 1775.01 1843.91 Q1775.91 1842.15 1775.91 1840.46 Q1775.91 1837.71 1773.97 1835.97 Q1772.05 1834.23 1768.95 1834.23 Q1766.75 1834.23 1764.29 1835 Q1761.86 1835.76 1759.09 1837.31 L1759.09 1832.59 Q1761.91 1831.46 1764.36 1830.88 Q1766.82 1830.3 1768.85 1830.3 Q1774.22 1830.3 1777.42 1832.98 Q1780.61 1835.67 1780.61 1840.16 Q1780.61 1842.29 1779.8 1844.21 Q1779.02 1846.11 1776.91 1848.7 Q1776.33 1849.37 1773.23 1852.59 Q1770.13 1855.78 1764.48 1861.55 Z" fill="#000000" fill-rule="evenodd" fill-opacity="1" /><path clip-path="url(#clip510)" d="M2416.83 1846.85 Q2420.18 1847.57 2422.06 1849.84 Q2423.96 1852.1 2423.96 1855.44 Q2423.96 1860.55 2420.44 1863.35 Q2416.92 1866.15 2410.44 1866.15 Q2408.26 1866.15 2405.95 1865.71 Q2403.66 1865.3 2401.2 1864.44 L2401.2 1859.93 Q2403.15 1861.06 2405.46 1861.64 Q2407.78 1862.22 2410.3 1862.22 Q2414.7 1862.22 2416.99 1860.48 Q2419.3 1858.75 2419.3 1855.44 Q2419.3 1852.38 2417.15 1850.67 Q2415.02 1848.93 2411.2 1848.93 L2407.17 1848.93 L2407.17 1845.09 L2411.39 1845.09 Q2414.84 1845.09 2416.66 1843.72 Q2418.49 1842.34 2418.49 1839.74 Q2418.49 1837.08 2416.59 1835.67 Q2414.72 1834.23 2411.2 1834.23 Q2409.28 1834.23 2407.08 1834.65 Q2404.88 1835.07 2402.24 1835.95 L2402.24 1831.78 Q2404.91 1831.04 2407.22 1830.67 Q2409.56 1830.3 2411.62 1830.3 Q2416.94 1830.3 2420.04 1832.73 Q2423.15 1835.14 2423.15 1839.26 Q2423.15 1842.13 2421.5 1844.12 Q2419.86 1846.09 2416.83 1846.85 Z" fill="#000000" fill-rule="evenodd" fill-opacity="1" /><polyline clip-path="url(#clip512)" style="stroke:#000000; stroke-linecap:butt; stroke-linejoin:round; stroke-width:2; stroke-opacity:0.1; fill:none" points="
  256.144,1579.58 2640.76,1579.58 
  "/>
<polyline clip-path="url(#clip512)" style="stroke:#000000; stroke-linecap:butt; stroke-linejoin:round; stroke-width:2; stroke-opacity:0.1; fill:none" points="
  256.144,1228.77 2640.76,1228.77 
  "/>
<polyline clip-path="url(#clip512)" style="stroke:#000000; stroke-linecap:butt; stroke-linejoin:round; stroke-width:2; stroke-opacity:0.1; fill:none" points="
  256.144,877.958 2640.76,877.958 
  "/>
<polyline clip-path="url(#clip512)" style="stroke:#000000; stroke-linecap:butt; stroke-linejoin:round; stroke-width:2; stroke-opacity:0.1; fill:none" points="
  256.144,527.145 2640.76,527.145 
  "/>
<polyline clip-path="url(#clip512)" style="stroke:#000000; stroke-linecap:butt; stroke-linejoin:round; stroke-width:2; stroke-opacity:0.1; fill:none" points="
  256.144,176.332 2640.76,176.332 
  "/>
<polyline clip-path="url(#clip510)" style="stroke:#000000; stroke-linecap:butt; stroke-linejoin:round; stroke-width:4; stroke-opacity:1; fill:none" points="
  256.144,1800.78 256.144,47.2441 
  "/>
<polyline clip-path="url(#clip510)" style="stroke:#000000; stroke-linecap:butt; stroke-linejoin:round; stroke-width:4; stroke-opacity:1; fill:none" points="
  256.144,1579.58 275.042,1579.58 
  "/>
<polyline clip-path="url(#clip510)" style="stroke:#000000; stroke-linecap:butt; stroke-linejoin:round; stroke-width:4; stroke-opacity:1; fill:none" points="
  256.144,1228.77 275.042,1228.77 
  "/>
<polyline clip-path="url(#clip510)" style="stroke:#000000; stroke-linecap:butt; stroke-linejoin:round; stroke-width:4; stroke-opacity:1; fill:none" points="
  256.144,877.958 275.042,877.958 
  "/>
<polyline clip-path="url(#clip510)" style="stroke:#000000; stroke-linecap:butt; stroke-linejoin:round; stroke-width:4; stroke-opacity:1; fill:none" points="
  256.144,527.145 275.042,527.145 
  "/>
<polyline clip-path="url(#clip510)" style="stroke:#000000; stroke-linecap:butt; stroke-linejoin:round; stroke-width:4; stroke-opacity:1; fill:none" points="
  256.144,176.332 275.042,176.332 
  "/>
<path clip-path="url(#clip510)" d="M49.5521 1580.04 L79.2279 1580.04 L79.2279 1583.97 L49.5521 1583.97 L49.5521 1580.04 Z" fill="#000000" fill-rule="evenodd" fill-opacity="1" /><path clip-path="url(#clip510)" d="M99.3204 1565.38 Q95.7093 1565.38 93.8806 1568.95 Q92.075 1572.49 92.075 1579.62 Q92.075 1586.73 93.8806 1590.29 Q95.7093 1593.83 99.3204 1593.83 Q102.955 1593.83 104.76 1590.29 Q106.589 1586.73 106.589 1579.62 Q106.589 1572.49 104.76 1568.95 Q102.955 1565.38 99.3204 1565.38 M99.3204 1561.68 Q105.131 1561.68 108.186 1566.29 Q111.265 1570.87 111.265 1579.62 Q111.265 1588.35 108.186 1592.95 Q105.131 1597.54 99.3204 1597.54 Q93.5102 1597.54 90.4315 1592.95 Q87.376 1588.35 87.376 1579.62 Q87.376 1570.87 90.4315 1566.29 Q93.5102 1561.68 99.3204 1561.68 Z" fill="#000000" fill-rule="evenodd" fill-opacity="1" /><path clip-path="url(#clip510)" d="M119.482 1590.98 L124.367 1590.98 L124.367 1596.86 L119.482 1596.86 L119.482 1590.98 Z" fill="#000000" fill-rule="evenodd" fill-opacity="1" /><path clip-path="url(#clip510)" d="M144.552 1565.38 Q140.941 1565.38 139.112 1568.95 Q137.306 1572.49 137.306 1579.62 Q137.306 1586.73 139.112 1590.29 Q140.941 1593.83 144.552 1593.83 Q148.186 1593.83 149.991 1590.29 Q151.82 1586.73 151.82 1579.62 Q151.82 1572.49 149.991 1568.95 Q148.186 1565.38 144.552 1565.38 M144.552 1561.68 Q150.362 1561.68 153.417 1566.29 Q156.496 1570.87 156.496 1579.62 Q156.496 1588.35 153.417 1592.95 Q150.362 1597.54 144.552 1597.54 Q138.741 1597.54 135.663 1592.95 Q132.607 1588.35 132.607 1579.62 Q132.607 1570.87 135.663 1566.29 Q138.741 1561.68 144.552 1561.68 Z" fill="#000000" fill-rule="evenodd" fill-opacity="1" /><path clip-path="url(#clip510)" d="M168.741 1592.93 L185.061 1592.93 L185.061 1596.86 L163.116 1596.86 L163.116 1592.93 Q165.778 1590.17 170.362 1585.54 Q174.968 1580.89 176.149 1579.55 Q178.394 1577.03 179.274 1575.29 Q180.176 1573.53 180.176 1571.84 Q180.176 1569.09 178.232 1567.35 Q176.311 1565.61 173.209 1565.61 Q171.01 1565.61 168.556 1566.38 Q166.126 1567.14 163.348 1568.69 L163.348 1563.97 Q166.172 1562.84 168.626 1562.26 Q171.079 1561.68 173.116 1561.68 Q178.487 1561.68 181.681 1564.36 Q184.875 1567.05 184.875 1571.54 Q184.875 1573.67 184.065 1575.59 Q183.278 1577.49 181.172 1580.08 Q180.593 1580.75 177.491 1583.97 Q174.389 1587.16 168.741 1592.93 Z" fill="#000000" fill-rule="evenodd" fill-opacity="1" /><path clip-path="url(#clip510)" d="M194.922 1562.3 L213.278 1562.3 L213.278 1566.24 L199.204 1566.24 L199.204 1574.71 Q200.223 1574.36 201.241 1574.2 Q202.26 1574.02 203.278 1574.02 Q209.065 1574.02 212.445 1577.19 Q215.824 1580.36 215.824 1585.78 Q215.824 1591.35 212.352 1594.46 Q208.88 1597.54 202.561 1597.54 Q200.385 1597.54 198.116 1597.16 Q195.871 1596.79 193.463 1596.05 L193.463 1591.35 Q195.547 1592.49 197.769 1593.04 Q199.991 1593.6 202.468 1593.6 Q206.473 1593.6 208.811 1591.49 Q211.148 1589.39 211.148 1585.78 Q211.148 1582.16 208.811 1580.06 Q206.473 1577.95 202.468 1577.95 Q200.593 1577.95 198.718 1578.37 Q196.866 1578.79 194.922 1579.66 L194.922 1562.3 Z" fill="#000000" fill-rule="evenodd" fill-opacity="1" /><path clip-path="url(#clip510)" d="M98.325 1214.57 Q94.7139 1214.57 92.8852 1218.13 Q91.0797 1221.68 91.0797 1228.81 Q91.0797 1235.91 92.8852 1239.48 Q94.7139 1243.02 98.325 1243.02 Q101.959 1243.02 103.765 1239.48 Q105.593 1235.91 105.593 1228.81 Q105.593 1221.68 103.765 1218.13 Q101.959 1214.57 98.325 1214.57 M98.325 1210.87 Q104.135 1210.87 107.191 1215.47 Q110.269 1220.06 110.269 1228.81 Q110.269 1237.53 107.191 1242.14 Q104.135 1246.72 98.325 1246.72 Q92.5149 1246.72 89.4362 1242.14 Q86.3806 1237.53 86.3806 1228.81 Q86.3806 1220.06 89.4362 1215.47 Q92.5149 1210.87 98.325 1210.87 Z" fill="#000000" fill-rule="evenodd" fill-opacity="1" /><path clip-path="url(#clip510)" d="M118.487 1240.17 L123.371 1240.17 L123.371 1246.05 L118.487 1246.05 L118.487 1240.17 Z" fill="#000000" fill-rule="evenodd" fill-opacity="1" /><path clip-path="url(#clip510)" d="M143.556 1214.57 Q139.945 1214.57 138.116 1218.13 Q136.311 1221.68 136.311 1228.81 Q136.311 1235.91 138.116 1239.48 Q139.945 1243.02 143.556 1243.02 Q147.19 1243.02 148.996 1239.48 Q150.825 1235.91 150.825 1228.81 Q150.825 1221.68 148.996 1218.13 Q147.19 1214.57 143.556 1214.57 M143.556 1210.87 Q149.366 1210.87 152.422 1215.47 Q155.501 1220.06 155.501 1228.81 Q155.501 1237.53 152.422 1242.14 Q149.366 1246.72 143.556 1246.72 Q137.746 1246.72 134.667 1242.14 Q131.612 1237.53 131.612 1228.81 Q131.612 1220.06 134.667 1215.47 Q137.746 1210.87 143.556 1210.87 Z" fill="#000000" fill-rule="evenodd" fill-opacity="1" /><path clip-path="url(#clip510)" d="M173.718 1214.57 Q170.107 1214.57 168.278 1218.13 Q166.473 1221.68 166.473 1228.81 Q166.473 1235.91 168.278 1239.48 Q170.107 1243.02 173.718 1243.02 Q177.352 1243.02 179.158 1239.48 Q180.987 1235.91 180.987 1228.81 Q180.987 1221.68 179.158 1218.13 Q177.352 1214.57 173.718 1214.57 M173.718 1210.87 Q179.528 1210.87 182.584 1215.47 Q185.663 1220.06 185.663 1228.81 Q185.663 1237.53 182.584 1242.14 Q179.528 1246.72 173.718 1246.72 Q167.908 1246.72 164.829 1242.14 Q161.774 1237.53 161.774 1228.81 Q161.774 1220.06 164.829 1215.47 Q167.908 1210.87 173.718 1210.87 Z" fill="#000000" fill-rule="evenodd" fill-opacity="1" /><path clip-path="url(#clip510)" d="M203.88 1214.57 Q200.269 1214.57 198.44 1218.13 Q196.635 1221.68 196.635 1228.81 Q196.635 1235.91 198.44 1239.48 Q200.269 1243.02 203.88 1243.02 Q207.514 1243.02 209.32 1239.48 Q211.148 1235.91 211.148 1228.81 Q211.148 1221.68 209.32 1218.13 Q207.514 1214.57 203.88 1214.57 M203.88 1210.87 Q209.69 1210.87 212.746 1215.47 Q215.824 1220.06 215.824 1228.81 Q215.824 1237.53 212.746 1242.14 Q209.69 1246.72 203.88 1246.72 Q198.07 1246.72 194.991 1242.14 Q191.936 1237.53 191.936 1228.81 Q191.936 1220.06 194.991 1215.47 Q198.07 1210.87 203.88 1210.87 Z" fill="#000000" fill-rule="evenodd" fill-opacity="1" /><path clip-path="url(#clip510)" d="M99.3204 863.757 Q95.7093 863.757 93.8806 867.322 Q92.075 870.863 92.075 877.993 Q92.075 885.099 93.8806 888.664 Q95.7093 892.206 99.3204 892.206 Q102.955 892.206 104.76 888.664 Q106.589 885.099 106.589 877.993 Q106.589 870.863 104.76 867.322 Q102.955 863.757 99.3204 863.757 M99.3204 860.053 Q105.131 860.053 108.186 864.66 Q111.265 869.243 111.265 877.993 Q111.265 886.72 108.186 891.326 Q105.131 895.909 99.3204 895.909 Q93.5102 895.909 90.4315 891.326 Q87.376 886.72 87.376 877.993 Q87.376 869.243 90.4315 864.66 Q93.5102 860.053 99.3204 860.053 Z" fill="#000000" fill-rule="evenodd" fill-opacity="1" /><path clip-path="url(#clip510)" d="M119.482 889.358 L124.367 889.358 L124.367 895.238 L119.482 895.238 L119.482 889.358 Z" fill="#000000" fill-rule="evenodd" fill-opacity="1" /><path clip-path="url(#clip510)" d="M144.552 863.757 Q140.941 863.757 139.112 867.322 Q137.306 870.863 137.306 877.993 Q137.306 885.099 139.112 888.664 Q140.941 892.206 144.552 892.206 Q148.186 892.206 149.991 888.664 Q151.82 885.099 151.82 877.993 Q151.82 870.863 149.991 867.322 Q148.186 863.757 144.552 863.757 M144.552 860.053 Q150.362 860.053 153.417 864.66 Q156.496 869.243 156.496 877.993 Q156.496 886.72 153.417 891.326 Q150.362 895.909 144.552 895.909 Q138.741 895.909 135.663 891.326 Q132.607 886.72 132.607 877.993 Q132.607 869.243 135.663 864.66 Q138.741 860.053 144.552 860.053 Z" fill="#000000" fill-rule="evenodd" fill-opacity="1" /><path clip-path="url(#clip510)" d="M168.741 891.303 L185.061 891.303 L185.061 895.238 L163.116 895.238 L163.116 891.303 Q165.778 888.548 170.362 883.919 Q174.968 879.266 176.149 877.923 Q178.394 875.4 179.274 873.664 Q180.176 871.905 180.176 870.215 Q180.176 867.46 178.232 865.724 Q176.311 863.988 173.209 863.988 Q171.01 863.988 168.556 864.752 Q166.126 865.516 163.348 867.067 L163.348 862.345 Q166.172 861.21 168.626 860.632 Q171.079 860.053 173.116 860.053 Q178.487 860.053 181.681 862.738 Q184.875 865.423 184.875 869.914 Q184.875 872.044 184.065 873.965 Q183.278 875.863 181.172 878.456 Q180.593 879.127 177.491 882.345 Q174.389 885.539 168.741 891.303 Z" fill="#000000" fill-rule="evenodd" fill-opacity="1" /><path clip-path="url(#clip510)" d="M194.922 860.678 L213.278 860.678 L213.278 864.613 L199.204 864.613 L199.204 873.085 Q200.223 872.738 201.241 872.576 Q202.26 872.391 203.278 872.391 Q209.065 872.391 212.445 875.562 Q215.824 878.734 215.824 884.15 Q215.824 889.729 212.352 892.831 Q208.88 895.909 202.561 895.909 Q200.385 895.909 198.116 895.539 Q195.871 895.169 193.463 894.428 L193.463 889.729 Q195.547 890.863 197.769 891.419 Q199.991 891.974 202.468 891.974 Q206.473 891.974 208.811 889.868 Q211.148 887.761 211.148 884.15 Q211.148 880.539 208.811 878.433 Q206.473 876.326 202.468 876.326 Q200.593 876.326 198.718 876.743 Q196.866 877.159 194.922 878.039 L194.922 860.678 Z" fill="#000000" fill-rule="evenodd" fill-opacity="1" /><path clip-path="url(#clip510)" d="M98.325 512.944 Q94.7139 512.944 92.8852 516.509 Q91.0797 520.05 91.0797 527.18 Q91.0797 534.286 92.8852 537.851 Q94.7139 541.393 98.325 541.393 Q101.959 541.393 103.765 537.851 Q105.593 534.286 105.593 527.18 Q105.593 520.05 103.765 516.509 Q101.959 512.944 98.325 512.944 M98.325 509.24 Q104.135 509.24 107.191 513.847 Q110.269 518.43 110.269 527.18 Q110.269 535.907 107.191 540.513 Q104.135 545.096 98.325 545.096 Q92.5149 545.096 89.4362 540.513 Q86.3806 535.907 86.3806 527.18 Q86.3806 518.43 89.4362 513.847 Q92.5149 509.24 98.325 509.24 Z" fill="#000000" fill-rule="evenodd" fill-opacity="1" /><path clip-path="url(#clip510)" d="M118.487 538.546 L123.371 538.546 L123.371 544.425 L118.487 544.425 L118.487 538.546 Z" fill="#000000" fill-rule="evenodd" fill-opacity="1" /><path clip-path="url(#clip510)" d="M143.556 512.944 Q139.945 512.944 138.116 516.509 Q136.311 520.05 136.311 527.18 Q136.311 534.286 138.116 537.851 Q139.945 541.393 143.556 541.393 Q147.19 541.393 148.996 537.851 Q150.825 534.286 150.825 527.18 Q150.825 520.05 148.996 516.509 Q147.19 512.944 143.556 512.944 M143.556 509.24 Q149.366 509.24 152.422 513.847 Q155.501 518.43 155.501 527.18 Q155.501 535.907 152.422 540.513 Q149.366 545.096 143.556 545.096 Q137.746 545.096 134.667 540.513 Q131.612 535.907 131.612 527.18 Q131.612 518.43 134.667 513.847 Q137.746 509.24 143.556 509.24 Z" fill="#000000" fill-rule="evenodd" fill-opacity="1" /><path clip-path="url(#clip510)" d="M163.764 509.865 L182.121 509.865 L182.121 513.8 L168.047 513.8 L168.047 522.273 Q169.065 521.925 170.084 521.763 Q171.102 521.578 172.121 521.578 Q177.908 521.578 181.288 524.749 Q184.667 527.921 184.667 533.337 Q184.667 538.916 181.195 542.018 Q177.723 545.096 171.403 545.096 Q169.227 545.096 166.959 544.726 Q164.714 544.356 162.306 543.615 L162.306 538.916 Q164.389 540.05 166.612 540.606 Q168.834 541.161 171.311 541.161 Q175.315 541.161 177.653 539.055 Q179.991 536.948 179.991 533.337 Q179.991 529.726 177.653 527.62 Q175.315 525.513 171.311 525.513 Q169.436 525.513 167.561 525.93 Q165.709 526.347 163.764 527.226 L163.764 509.865 Z" fill="#000000" fill-rule="evenodd" fill-opacity="1" /><path clip-path="url(#clip510)" d="M203.88 512.944 Q200.269 512.944 198.44 516.509 Q196.635 520.05 196.635 527.18 Q196.635 534.286 198.44 537.851 Q200.269 541.393 203.88 541.393 Q207.514 541.393 209.32 537.851 Q211.148 534.286 211.148 527.18 Q211.148 520.05 209.32 516.509 Q207.514 512.944 203.88 512.944 M203.88 509.24 Q209.69 509.24 212.746 513.847 Q215.824 518.43 215.824 527.18 Q215.824 535.907 212.746 540.513 Q209.69 545.096 203.88 545.096 Q198.07 545.096 194.991 540.513 Q191.936 535.907 191.936 527.18 Q191.936 518.43 194.991 513.847 Q198.07 509.24 203.88 509.24 Z" fill="#000000" fill-rule="evenodd" fill-opacity="1" /><path clip-path="url(#clip510)" d="M99.3204 162.131 Q95.7093 162.131 93.8806 165.696 Q92.075 169.237 92.075 176.367 Q92.075 183.473 93.8806 187.038 Q95.7093 190.58 99.3204 190.58 Q102.955 190.58 104.76 187.038 Q106.589 183.473 106.589 176.367 Q106.589 169.237 104.76 165.696 Q102.955 162.131 99.3204 162.131 M99.3204 158.427 Q105.131 158.427 108.186 163.034 Q111.265 167.617 111.265 176.367 Q111.265 185.094 108.186 189.7 Q105.131 194.284 99.3204 194.284 Q93.5102 194.284 90.4315 189.7 Q87.376 185.094 87.376 176.367 Q87.376 167.617 90.4315 163.034 Q93.5102 158.427 99.3204 158.427 Z" fill="#000000" fill-rule="evenodd" fill-opacity="1" /><path clip-path="url(#clip510)" d="M119.482 187.733 L124.367 187.733 L124.367 193.612 L119.482 193.612 L119.482 187.733 Z" fill="#000000" fill-rule="evenodd" fill-opacity="1" /><path clip-path="url(#clip510)" d="M144.552 162.131 Q140.941 162.131 139.112 165.696 Q137.306 169.237 137.306 176.367 Q137.306 183.473 139.112 187.038 Q140.941 190.58 144.552 190.58 Q148.186 190.58 149.991 187.038 Q151.82 183.473 151.82 176.367 Q151.82 169.237 149.991 165.696 Q148.186 162.131 144.552 162.131 M144.552 158.427 Q150.362 158.427 153.417 163.034 Q156.496 167.617 156.496 176.367 Q156.496 185.094 153.417 189.7 Q150.362 194.284 144.552 194.284 Q138.741 194.284 135.663 189.7 Q132.607 185.094 132.607 176.367 Q132.607 167.617 135.663 163.034 Q138.741 158.427 144.552 158.427 Z" fill="#000000" fill-rule="evenodd" fill-opacity="1" /><path clip-path="url(#clip510)" d="M163.533 159.052 L185.755 159.052 L185.755 161.043 L173.209 193.612 L168.325 193.612 L180.13 162.987 L163.533 162.987 L163.533 159.052 Z" fill="#000000" fill-rule="evenodd" fill-opacity="1" /><path clip-path="url(#clip510)" d="M194.922 159.052 L213.278 159.052 L213.278 162.987 L199.204 162.987 L199.204 171.46 Q200.223 171.112 201.241 170.95 Q202.26 170.765 203.278 170.765 Q209.065 170.765 212.445 173.936 Q215.824 177.108 215.824 182.524 Q215.824 188.103 212.352 191.205 Q208.88 194.284 202.561 194.284 Q200.385 194.284 198.116 193.913 Q195.871 193.543 193.463 192.802 L193.463 188.103 Q195.547 189.237 197.769 189.793 Q199.991 190.348 202.468 190.348 Q206.473 190.348 208.811 188.242 Q211.148 186.135 211.148 182.524 Q211.148 178.913 208.811 176.807 Q206.473 174.7 202.468 174.7 Q200.593 174.7 198.718 175.117 Q196.866 175.534 194.922 176.413 L194.922 159.052 Z" fill="#000000" fill-rule="evenodd" fill-opacity="1" /><polyline clip-path="url(#clip512)" style="stroke:#009af9; stroke-linecap:butt; stroke-linejoin:round; stroke-width:12; stroke-opacity:1; fill:none" points="
  323.633,154.75 327.295,187.668 330.957,220.159 334.618,252.225 338.28,283.868 346.744,355.412 355.208,424.741 363.672,491.884 372.136,556.87 380.601,619.729 
  389.065,680.491 397.529,739.186 405.993,795.842 414.457,850.49 422.921,903.16 431.386,953.882 439.85,1002.68 448.314,1049.6 456.778,1094.65 465.242,1137.88 
  473.706,1179.31 483.88,1226.77 494.053,1271.72 504.226,1314.22 514.399,1354.33 524.572,1392.09 534.746,1427.55 544.919,1460.77 555.092,1491.8 563.693,1516.37 
  572.295,1539.44 580.896,1561.04 589.497,1581.21 598.099,1599.98 606.7,1617.37 615.301,1633.42 623.903,1648.16 633.246,1662.72 642.59,1675.82 651.933,1687.48 
  661.276,1697.74 670.62,1706.65 679.963,1714.25 689.307,1720.57 698.65,1725.65 715.878,1731.91 733.106,1734.32 750.333,1733.11 767.561,1728.54 786.031,1720.14 
  804.501,1708.4 822.971,1693.6 841.44,1676 862.84,1652.46 884.239,1625.92 905.638,1596.79 927.037,1565.43 965.071,1505.37 1003.11,1441.48 1036.46,1383.8 
  1069.81,1325.82 1106.17,1263.58 1142.54,1203.66 1179.12,1146.95 1215.7,1094.96 1235.92,1068.59 1256.14,1044.13 1276.36,1021.69 1296.58,1001.4 1315.82,984.201 
  1335.06,969.136 1354.3,956.28 1373.54,945.696 1393.55,937.157 1413.55,931.178 1433.56,927.79 1453.56,927.014 1470.4,928.39 1487.24,931.62 1504.09,936.692 
  1520.93,943.59 1541.49,954.454 1562.05,967.95 1582.61,984.009 1603.17,1002.55 1622,1021.62 1640.83,1042.6 1659.67,1065.39 1678.5,1089.89 1713.29,1139.23 
  1748.08,1193.15 1783.32,1251.49 1818.57,1312.48 1858.06,1382.48 1897.56,1452.43 1933.35,1514.07 1969.14,1572.37 1989.62,1603.58 2010.11,1632.79 2030.6,1659.65 
  2051.09,1683.79 2070.06,1703.41 2089.03,1720.09 2108,1733.51 2126.97,1743.38 2145.67,1749.3 2164.37,1751.14 2173.72,1750.43 2183.08,1748.57 2192.43,1745.54 
  2201.78,1741.28 2210.86,1735.94 2219.94,1729.36 2229.02,1721.53 2238.09,1712.38 2247.17,1701.89 2256.25,1690.02 2265.33,1676.73 2274.41,1661.97 2283.72,1645.29 
  2293.03,1626.99 2302.33,1607.02 2311.64,1585.35 2320.95,1561.93 2330.26,1536.72 2339.56,1509.67 2348.87,1480.74 2359.07,1446.84 2369.27,1410.57 2379.46,1371.87 
  2389.66,1330.69 2399.86,1286.97 2410.05,1240.65 2420.25,1191.66 2430.45,1139.96 2437.86,1100.67 2445.26,1059.89 2452.67,1017.6 2460.08,973.774 2467.48,928.393 
  2474.89,881.433 2482.3,832.87 2489.7,782.683 2497.11,730.848 2504.52,677.343 2511.92,622.145 2519.33,565.23 2526.74,506.576 2534.14,446.161 2541.55,383.962 
  2548.96,319.955 2555.03,266.064 2561.11,210.929 2567.19,154.536 2573.27,96.8724 
  "/>
<circle clip-path="url(#clip512)" cx="484.321" cy="1228.77" r="18" fill="#e26f46" fill-rule="evenodd" fill-opacity="1" stroke="#000000" stroke-opacity="1" stroke-width="3.84"/>
<circle clip-path="url(#clip512)" cx="1127.07" cy="1228.77" r="18" fill="#e26f46" fill-rule="evenodd" fill-opacity="1" stroke="#000000" stroke-opacity="1" stroke-width="3.84"/>
<circle clip-path="url(#clip512)" cx="1769.83" cy="1228.77" r="18" fill="#e26f46" fill-rule="evenodd" fill-opacity="1" stroke="#000000" stroke-opacity="1" stroke-width="3.84"/>
<circle clip-path="url(#clip512)" cx="2412.58" cy="1228.77" r="18" fill="#e26f46" fill-rule="evenodd" fill-opacity="1" stroke="#000000" stroke-opacity="1" stroke-width="3.84"/>
<path clip-path="url(#clip512)" d="M715.817 1714.36 L715.817 1754.36 L755.817 1754.36 L755.817 1714.36 L715.817 1714.36 Z" fill="#3da44d" fill-rule="evenodd" fill-opacity="1" stroke="#000000" stroke-opacity="1" stroke-width="3.84"/>
<path clip-path="url(#clip512)" d="M1429.49 906.96 L1429.49 946.96 L1469.49 946.96 L1469.49 906.96 L1429.49 906.96 Z" fill="#3da44d" fill-rule="evenodd" fill-opacity="1" stroke="#000000" stroke-opacity="1" stroke-width="3.84"/>
<path clip-path="url(#clip512)" d="M2143.05 1731.15 L2143.05 1771.15 L2183.05 1771.15 L2183.05 1731.15 L2143.05 1731.15 Z" fill="#3da44d" fill-rule="evenodd" fill-opacity="1" stroke="#000000" stroke-opacity="1" stroke-width="3.84"/>
</svg>
