<?xml version="1.0" encoding="utf-8"?>
<svg xmlns="http://www.w3.org/2000/svg" xmlns:xlink="http://www.w3.org/1999/xlink" width="672" height="480" viewBox="0 0 2688 1920">
<defs>
  <clipPath id="clip470">
    <rect x="0" y="0" width="2688" height="1920"/>
  </clipPath>
</defs>
<path clip-path="url(#clip470)" d="
M0 1920 L2688 1920 L2688 0 L0 0  Z
  " fill="#ffffff" fill-rule="evenodd" fill-opacity="1"/>
<defs>
  <clipPath id="clip471">
    <rect x="537" y="0" width="1883" height="1883"/>
  </clipPath>
</defs>
<path clip-path="url(#clip470)" d="
M226.978 1800.78 L2640.76 1800.78 L2640.76 47.2441 L226.978 47.2441  Z
  " fill="#ffffff" fill-rule="evenodd" fill-opacity="1"/>
<defs>
  <clipPath id="clip472">
    <rect x="226" y="47" width="2415" height="1755"/>
  </clipPath>
</defs>
<polyline clip-path="url(#clip472)" style="stroke:#000000; stroke-linecap:butt; stroke-linejoin:round; stroke-width:2; stroke-opacity:0.1; fill:none" points="
  594.443,1800.78 594.443,47.2441 
  "/>
<polyline clip-path="url(#clip472)" style="stroke:#000000; stroke-linecap:butt; stroke-linejoin:round; stroke-width:2; stroke-opacity:0.1; fill:none" points="
  1238.52,1800.78 1238.52,47.2441 
  "/>
<polyline clip-path="url(#clip472)" style="stroke:#000000; stroke-linecap:butt; stroke-linejoin:round; stroke-width:2; stroke-opacity:0.1; fill:none" points="
  1882.59,1800.78 1882.59,47.2441 
  "/>
<polyline clip-path="url(#clip472)" style="stroke:#000000; stroke-linecap:butt; stroke-linejoin:round; stroke-width:2; stroke-opacity:0.1; fill:none" points="
  2526.67,1800.78 2526.67,47.2441 
  "/>
<polyline clip-path="url(#clip470)" style="stroke:#000000; stroke-linecap:butt; stroke-linejoin:round; stroke-width:4; stroke-opacity:1; fill:none" points="
  226.978,1800.78 2640.76,1800.78 
  "/>
<polyline clip-path="url(#clip470)" style="stroke:#000000; stroke-linecap:butt; stroke-linejoin:round; stroke-width:4; stroke-opacity:1; fill:none" points="
  594.443,1800.78 594.443,1781.88 
  "/>
<polyline clip-path="url(#clip470)" style="stroke:#000000; stroke-linecap:butt; stroke-linejoin:round; stroke-width:4; stroke-opacity:1; fill:none" points="
  1238.52,1800.78 1238.52,1781.88 
  "/>
<polyline clip-path="url(#clip470)" style="stroke:#000000; stroke-linecap:butt; stroke-linejoin:round; stroke-width:4; stroke-opacity:1; fill:none" points="
  1882.59,1800.78 1882.59,1781.88 
  "/>
<polyline clip-path="url(#clip470)" style="stroke:#000000; stroke-linecap:butt; stroke-linejoin:round; stroke-width:4; stroke-opacity:1; fill:none" points="
  2526.67,1800.78 2526.67,1781.88 
  "/>
<path clip-path="url(#clip470)" d="M541.77 1848.65 L571.446 1848.65 L571.446 1852.59 L541.77 1852.59 L541.77 1848.65 Z" fill="#000000" fill-rule="evenodd" fill-opacity="1" /><path clip-path="url(#clip470)" d="M591.538 1834 Q587.927 1834 586.098 1837.57 Q584.293 1841.11 584.293 1848.24 Q584.293 1855.34 586.098 1858.91 Q587.927 1862.45 591.538 1862.45 Q595.173 1862.45 596.978 1858.91 Q598.807 1855.34 598.807 1848.24 Q598.807 1841.11 596.978 1837.57 Q595.173 1834 591.538 1834 M591.538 1830.3 Q597.348 1830.3 600.404 1834.9 Q603.483 1839.49 603.483 1848.24 Q603.483 1856.96 600.404 1861.57 Q597.348 1866.15 591.538 1866.15 Q585.728 1866.15 582.649 1861.57 Q579.594 1856.96 579.594 1848.24 Q579.594 1839.49 582.649 1834.9 Q585.728 1830.3 591.538 1830.3 Z" fill="#000000" fill-rule="evenodd" fill-opacity="1" /><path clip-path="url(#clip470)" d="M611.7 1859.6 L616.584 1859.6 L616.584 1865.48 L611.7 1865.48 L611.7 1859.6 Z" fill="#000000" fill-rule="evenodd" fill-opacity="1" /><path clip-path="url(#clip470)" d="M630.797 1861.55 L647.117 1861.55 L647.117 1865.48 L625.172 1865.48 L625.172 1861.55 Q627.834 1858.79 632.418 1854.16 Q637.024 1849.51 638.205 1848.17 Q640.45 1845.65 641.33 1843.91 Q642.232 1842.15 642.232 1840.46 Q642.232 1837.71 640.288 1835.97 Q638.367 1834.23 635.265 1834.23 Q633.066 1834.23 630.612 1835 Q628.182 1835.76 625.404 1837.31 L625.404 1832.59 Q628.228 1831.46 630.682 1830.88 Q633.135 1830.3 635.172 1830.3 Q640.543 1830.3 643.737 1832.98 Q646.932 1835.67 646.932 1840.16 Q646.932 1842.29 646.121 1844.21 Q645.334 1846.11 643.228 1848.7 Q642.649 1849.37 639.547 1852.59 Q636.445 1855.78 630.797 1861.55 Z" fill="#000000" fill-rule="evenodd" fill-opacity="1" /><path clip-path="url(#clip470)" d="M1215.9 1834 Q1212.29 1834 1210.46 1837.57 Q1208.66 1841.11 1208.66 1848.24 Q1208.66 1855.34 1210.46 1858.91 Q1212.29 1862.45 1215.9 1862.45 Q1219.54 1862.45 1221.34 1858.91 Q1223.17 1855.34 1223.17 1848.24 Q1223.17 1841.11 1221.34 1837.57 Q1219.54 1834 1215.9 1834 M1215.9 1830.3 Q1221.71 1830.3 1224.77 1834.9 Q1227.85 1839.49 1227.85 1848.24 Q1227.85 1856.96 1224.77 1861.57 Q1221.71 1866.15 1215.9 1866.15 Q1210.09 1866.15 1207.01 1861.57 Q1203.96 1856.96 1203.96 1848.24 Q1203.96 1839.49 1207.01 1834.9 Q1210.09 1830.3 1215.9 1830.3 Z" fill="#000000" fill-rule="evenodd" fill-opacity="1" /><path clip-path="url(#clip470)" d="M1236.06 1859.6 L1240.95 1859.6 L1240.95 1865.48 L1236.06 1865.48 L1236.06 1859.6 Z" fill="#000000" fill-rule="evenodd" fill-opacity="1" /><path clip-path="url(#clip470)" d="M1261.13 1834 Q1257.52 1834 1255.69 1837.57 Q1253.89 1841.11 1253.89 1848.24 Q1253.89 1855.34 1255.69 1858.91 Q1257.52 1862.45 1261.13 1862.45 Q1264.77 1862.45 1266.57 1858.91 Q1268.4 1855.34 1268.4 1848.24 Q1268.4 1841.11 1266.57 1837.57 Q1264.77 1834 1261.13 1834 M1261.13 1830.3 Q1266.94 1830.3 1270 1834.9 Q1273.08 1839.49 1273.08 1848.24 Q1273.08 1856.96 1270 1861.57 Q1266.94 1866.15 1261.13 1866.15 Q1255.32 1866.15 1252.25 1861.57 Q1249.19 1856.96 1249.19 1848.24 Q1249.19 1839.49 1252.25 1834.9 Q1255.32 1830.3 1261.13 1830.3 Z" fill="#000000" fill-rule="evenodd" fill-opacity="1" /><path clip-path="url(#clip470)" d="M1860.78 1834 Q1857.17 1834 1855.34 1837.57 Q1853.53 1841.11 1853.53 1848.24 Q1853.53 1855.34 1855.34 1858.91 Q1857.17 1862.45 1860.78 1862.45 Q1864.41 1862.45 1866.22 1858.91 Q1868.04 1855.34 1868.04 1848.24 Q1868.04 1841.11 1866.22 1837.57 Q1864.41 1834 1860.78 1834 M1860.78 1830.3 Q1866.59 1830.3 1869.64 1834.9 Q1872.72 1839.49 1872.72 1848.24 Q1872.72 1856.96 1869.64 1861.57 Q1866.59 1866.15 1860.78 1866.15 Q1854.97 1866.15 1851.89 1861.57 Q1848.83 1856.96 1848.83 1848.24 Q1848.83 1839.49 1851.89 1834.9 Q1854.97 1830.3 1860.78 1830.3 Z" fill="#000000" fill-rule="evenodd" fill-opacity="1" /><path clip-path="url(#clip470)" d="M1880.94 1859.6 L1885.82 1859.6 L1885.82 1865.48 L1880.94 1865.48 L1880.94 1859.6 Z" fill="#000000" fill-rule="evenodd" fill-opacity="1" /><path clip-path="url(#clip470)" d="M1900.04 1861.55 L1916.35 1861.55 L1916.35 1865.48 L1894.41 1865.48 L1894.41 1861.55 Q1897.07 1858.79 1901.66 1854.16 Q1906.26 1849.51 1907.44 1848.17 Q1909.69 1845.65 1910.57 1843.91 Q1911.47 1842.15 1911.47 1840.46 Q1911.47 1837.71 1909.53 1835.97 Q1907.6 1834.23 1904.5 1834.23 Q1902.3 1834.23 1899.85 1835 Q1897.42 1835.76 1894.64 1837.31 L1894.64 1832.59 Q1897.47 1831.46 1899.92 1830.88 Q1902.37 1830.3 1904.41 1830.3 Q1909.78 1830.3 1912.98 1832.98 Q1916.17 1835.67 1916.17 1840.16 Q1916.17 1842.29 1915.36 1844.21 Q1914.57 1846.11 1912.47 1848.7 Q1911.89 1849.37 1908.79 1852.59 Q1905.68 1855.78 1900.04 1861.55 Z" fill="#000000" fill-rule="evenodd" fill-opacity="1" /><path clip-path="url(#clip470)" d="M2503.81 1834 Q2500.2 1834 2498.37 1837.57 Q2496.56 1841.11 2496.56 1848.24 Q2496.56 1855.34 2498.37 1858.91 Q2500.2 1862.45 2503.81 1862.45 Q2507.44 1862.45 2509.25 1858.91 Q2511.08 1855.34 2511.08 1848.24 Q2511.08 1841.11 2509.25 1837.57 Q2507.44 1834 2503.81 1834 M2503.81 1830.3 Q2509.62 1830.3 2512.68 1834.9 Q2515.75 1839.49 2515.75 1848.24 Q2515.75 1856.96 2512.68 1861.57 Q2509.62 1866.15 2503.81 1866.15 Q2498 1866.15 2494.92 1861.57 Q2491.87 1856.96 2491.87 1848.24 Q2491.87 1839.49 2494.92 1834.9 Q2498 1830.3 2503.81 1830.3 Z" fill="#000000" fill-rule="evenodd" fill-opacity="1" /><path clip-path="url(#clip470)" d="M2523.97 1859.6 L2528.86 1859.6 L2528.86 1865.48 L2523.97 1865.48 L2523.97 1859.6 Z" fill="#000000" fill-rule="evenodd" fill-opacity="1" /><path clip-path="url(#clip470)" d="M2551.89 1835 L2540.08 1853.45 L2551.89 1853.45 L2551.89 1835 M2550.66 1830.92 L2556.54 1830.92 L2556.54 1853.45 L2561.47 1853.45 L2561.47 1857.34 L2556.54 1857.34 L2556.54 1865.48 L2551.89 1865.48 L2551.89 1857.34 L2536.29 1857.34 L2536.29 1852.82 L2550.66 1830.92 Z" fill="#000000" fill-rule="evenodd" fill-opacity="1" /><polyline clip-path="url(#clip472)" style="stroke:#000000; stroke-linecap:butt; stroke-linejoin:round; stroke-width:2; stroke-opacity:0.1; fill:none" points="
  226.978,1647.15 2640.76,1647.15 
  "/>
<polyline clip-path="url(#clip472)" style="stroke:#000000; stroke-linecap:butt; stroke-linejoin:round; stroke-width:2; stroke-opacity:0.1; fill:none" points="
  226.978,1406.1 2640.76,1406.1 
  "/>
<polyline clip-path="url(#clip472)" style="stroke:#000000; stroke-linecap:butt; stroke-linejoin:round; stroke-width:2; stroke-opacity:0.1; fill:none" points="
  226.978,1165.06 2640.76,1165.06 
  "/>
<polyline clip-path="url(#clip472)" style="stroke:#000000; stroke-linecap:butt; stroke-linejoin:round; stroke-width:2; stroke-opacity:0.1; fill:none" points="
  226.978,924.012 2640.76,924.012 
  "/>
<polyline clip-path="url(#clip472)" style="stroke:#000000; stroke-linecap:butt; stroke-linejoin:round; stroke-width:2; stroke-opacity:0.1; fill:none" points="
  226.978,682.966 2640.76,682.966 
  "/>
<polyline clip-path="url(#clip472)" style="stroke:#000000; stroke-linecap:butt; stroke-linejoin:round; stroke-width:2; stroke-opacity:0.1; fill:none" points="
  226.978,441.92 2640.76,441.92 
  "/>
<polyline clip-path="url(#clip472)" style="stroke:#000000; stroke-linecap:butt; stroke-linejoin:round; stroke-width:2; stroke-opacity:0.1; fill:none" points="
  226.978,200.874 2640.76,200.874 
  "/>
<polyline clip-path="url(#clip470)" style="stroke:#000000; stroke-linecap:butt; stroke-linejoin:round; stroke-width:4; stroke-opacity:1; fill:none" points="
  226.978,1800.78 226.978,47.2441 
  "/>
<polyline clip-path="url(#clip470)" style="stroke:#000000; stroke-linecap:butt; stroke-linejoin:round; stroke-width:4; stroke-opacity:1; fill:none" points="
  226.978,1647.15 245.876,1647.15 
  "/>
<polyline clip-path="url(#clip470)" style="stroke:#000000; stroke-linecap:butt; stroke-linejoin:round; stroke-width:4; stroke-opacity:1; fill:none" points="
  226.978,1406.1 245.876,1406.1 
  "/>
<polyline clip-path="url(#clip470)" style="stroke:#000000; stroke-linecap:butt; stroke-linejoin:round; stroke-width:4; stroke-opacity:1; fill:none" points="
  226.978,1165.06 245.876,1165.06 
  "/>
<polyline clip-path="url(#clip470)" style="stroke:#000000; stroke-linecap:butt; stroke-linejoin:round; stroke-width:4; stroke-opacity:1; fill:none" points="
  226.978,924.012 245.876,924.012 
  "/>
<polyline clip-path="url(#clip470)" style="stroke:#000000; stroke-linecap:butt; stroke-linejoin:round; stroke-width:4; stroke-opacity:1; fill:none" points="
  226.978,682.966 245.876,682.966 
  "/>
<polyline clip-path="url(#clip470)" style="stroke:#000000; stroke-linecap:butt; stroke-linejoin:round; stroke-width:4; stroke-opacity:1; fill:none" points="
  226.978,441.92 245.876,441.92 
  "/>
<polyline clip-path="url(#clip470)" style="stroke:#000000; stroke-linecap:butt; stroke-linejoin:round; stroke-width:4; stroke-opacity:1; fill:none" points="
  226.978,200.874 245.876,200.874 
  "/>
<path clip-path="url(#clip470)" d="M50.5475 1647.6 L80.2233 1647.6 L80.2233 1651.54 L50.5475 1651.54 L50.5475 1647.6 Z" fill="#000000" fill-rule="evenodd" fill-opacity="1" /><path clip-path="url(#clip470)" d="M100.316 1632.95 Q96.7047 1632.95 94.876 1636.51 Q93.0704 1640.05 93.0704 1647.18 Q93.0704 1654.29 94.876 1657.86 Q96.7047 1661.4 100.316 1661.4 Q103.95 1661.4 105.756 1657.86 Q107.584 1654.29 107.584 1647.18 Q107.584 1640.05 105.756 1636.51 Q103.95 1632.95 100.316 1632.95 M100.316 1629.24 Q106.126 1629.24 109.181 1633.85 Q112.26 1638.43 112.26 1647.18 Q112.26 1655.91 109.181 1660.52 Q106.126 1665.1 100.316 1665.1 Q94.5056 1665.1 91.4269 1660.52 Q88.3714 1655.91 88.3714 1647.18 Q88.3714 1638.43 91.4269 1633.85 Q94.5056 1629.24 100.316 1629.24 Z" fill="#000000" fill-rule="evenodd" fill-opacity="1" /><path clip-path="url(#clip470)" d="M120.478 1658.55 L125.362 1658.55 L125.362 1664.43 L120.478 1664.43 L120.478 1658.55 Z" fill="#000000" fill-rule="evenodd" fill-opacity="1" /><path clip-path="url(#clip470)" d="M136.357 1660.49 L143.996 1660.49 L143.996 1634.13 L135.686 1635.8 L135.686 1631.54 L143.95 1629.87 L148.626 1629.87 L148.626 1660.49 L156.265 1660.49 L156.265 1664.43 L136.357 1664.43 L136.357 1660.49 Z" fill="#000000" fill-rule="evenodd" fill-opacity="1" /><path clip-path="url(#clip470)" d="M165.755 1629.87 L184.112 1629.87 L184.112 1633.8 L170.038 1633.8 L170.038 1642.28 Q171.056 1641.93 172.075 1641.77 Q173.093 1641.58 174.112 1641.58 Q179.899 1641.58 183.278 1644.75 Q186.658 1647.93 186.658 1653.34 Q186.658 1658.92 183.186 1662.02 Q179.713 1665.1 173.394 1665.1 Q171.218 1665.1 168.95 1664.73 Q166.704 1664.36 164.297 1663.62 L164.297 1658.92 Q166.38 1660.05 168.602 1660.61 Q170.825 1661.17 173.301 1661.17 Q177.306 1661.17 179.644 1659.06 Q181.982 1656.95 181.982 1653.34 Q181.982 1649.73 179.644 1647.62 Q177.306 1645.52 173.301 1645.52 Q171.426 1645.52 169.551 1645.93 Q167.7 1646.35 165.755 1647.23 L165.755 1629.87 Z" fill="#000000" fill-rule="evenodd" fill-opacity="1" /><path clip-path="url(#clip470)" d="M49.5521 1406.56 L79.2279 1406.56 L79.2279 1410.49 L49.5521 1410.49 L49.5521 1406.56 Z" fill="#000000" fill-rule="evenodd" fill-opacity="1" /><path clip-path="url(#clip470)" d="M99.3204 1391.9 Q95.7093 1391.9 93.8806 1395.47 Q92.075 1399.01 92.075 1406.14 Q92.075 1413.24 93.8806 1416.81 Q95.7093 1420.35 99.3204 1420.35 Q102.955 1420.35 104.76 1416.81 Q106.589 1413.24 106.589 1406.14 Q106.589 1399.01 104.76 1395.47 Q102.955 1391.9 99.3204 1391.9 M99.3204 1388.2 Q105.131 1388.2 108.186 1392.81 Q111.265 1397.39 111.265 1406.14 Q111.265 1414.87 108.186 1419.47 Q105.131 1424.06 99.3204 1424.06 Q93.5102 1424.06 90.4315 1419.47 Q87.376 1414.87 87.376 1406.14 Q87.376 1397.39 90.4315 1392.81 Q93.5102 1388.2 99.3204 1388.2 Z" fill="#000000" fill-rule="evenodd" fill-opacity="1" /><path clip-path="url(#clip470)" d="M119.482 1417.5 L124.367 1417.5 L124.367 1423.38 L119.482 1423.38 L119.482 1417.5 Z" fill="#000000" fill-rule="evenodd" fill-opacity="1" /><path clip-path="url(#clip470)" d="M135.362 1419.45 L143.001 1419.45 L143.001 1393.08 L134.691 1394.75 L134.691 1390.49 L142.954 1388.82 L147.63 1388.82 L147.63 1419.45 L155.269 1419.45 L155.269 1423.38 L135.362 1423.38 L135.362 1419.45 Z" fill="#000000" fill-rule="evenodd" fill-opacity="1" /><path clip-path="url(#clip470)" d="M174.713 1391.9 Q171.102 1391.9 169.274 1395.47 Q167.468 1399.01 167.468 1406.14 Q167.468 1413.24 169.274 1416.81 Q171.102 1420.35 174.713 1420.35 Q178.348 1420.35 180.153 1416.81 Q181.982 1413.24 181.982 1406.14 Q181.982 1399.01 180.153 1395.47 Q178.348 1391.9 174.713 1391.9 M174.713 1388.2 Q180.524 1388.2 183.579 1392.81 Q186.658 1397.39 186.658 1406.14 Q186.658 1414.87 183.579 1419.47 Q180.524 1424.06 174.713 1424.06 Q168.903 1424.06 165.825 1419.47 Q162.769 1414.87 162.769 1406.14 Q162.769 1397.39 165.825 1392.81 Q168.903 1388.2 174.713 1388.2 Z" fill="#000000" fill-rule="evenodd" fill-opacity="1" /><path clip-path="url(#clip470)" d="M50.5475 1165.51 L80.2233 1165.51 L80.2233 1169.44 L50.5475 1169.44 L50.5475 1165.51 Z" fill="#000000" fill-rule="evenodd" fill-opacity="1" /><path clip-path="url(#clip470)" d="M100.316 1150.86 Q96.7047 1150.86 94.876 1154.42 Q93.0704 1157.96 93.0704 1165.09 Q93.0704 1172.2 94.876 1175.76 Q96.7047 1179.31 100.316 1179.31 Q103.95 1179.31 105.756 1175.76 Q107.584 1172.2 107.584 1165.09 Q107.584 1157.96 105.756 1154.42 Q103.95 1150.86 100.316 1150.86 M100.316 1147.15 Q106.126 1147.15 109.181 1151.76 Q112.26 1156.34 112.26 1165.09 Q112.26 1173.82 109.181 1178.43 Q106.126 1183.01 100.316 1183.01 Q94.5056 1183.01 91.4269 1178.43 Q88.3714 1173.82 88.3714 1165.09 Q88.3714 1156.34 91.4269 1151.76 Q94.5056 1147.15 100.316 1147.15 Z" fill="#000000" fill-rule="evenodd" fill-opacity="1" /><path clip-path="url(#clip470)" d="M120.478 1176.46 L125.362 1176.46 L125.362 1182.34 L120.478 1182.34 L120.478 1176.46 Z" fill="#000000" fill-rule="evenodd" fill-opacity="1" /><path clip-path="url(#clip470)" d="M145.547 1150.86 Q141.936 1150.86 140.107 1154.42 Q138.302 1157.96 138.302 1165.09 Q138.302 1172.2 140.107 1175.76 Q141.936 1179.31 145.547 1179.31 Q149.181 1179.31 150.987 1175.76 Q152.815 1172.2 152.815 1165.09 Q152.815 1157.96 150.987 1154.42 Q149.181 1150.86 145.547 1150.86 M145.547 1147.15 Q151.357 1147.15 154.413 1151.76 Q157.491 1156.34 157.491 1165.09 Q157.491 1173.82 154.413 1178.43 Q151.357 1183.01 145.547 1183.01 Q139.737 1183.01 136.658 1178.43 Q133.603 1173.82 133.603 1165.09 Q133.603 1156.34 136.658 1151.76 Q139.737 1147.15 145.547 1147.15 Z" fill="#000000" fill-rule="evenodd" fill-opacity="1" /><path clip-path="url(#clip470)" d="M165.755 1147.78 L184.112 1147.78 L184.112 1151.71 L170.038 1151.71 L170.038 1160.19 Q171.056 1159.84 172.075 1159.68 Q173.093 1159.49 174.112 1159.49 Q179.899 1159.49 183.278 1162.66 Q186.658 1165.83 186.658 1171.25 Q186.658 1176.83 183.186 1179.93 Q179.713 1183.01 173.394 1183.01 Q171.218 1183.01 168.95 1182.64 Q166.704 1182.27 164.297 1181.53 L164.297 1176.83 Q166.38 1177.96 168.602 1178.52 Q170.825 1179.07 173.301 1179.07 Q177.306 1179.07 179.644 1176.97 Q181.982 1174.86 181.982 1171.25 Q181.982 1167.64 179.644 1165.53 Q177.306 1163.43 173.301 1163.43 Q171.426 1163.43 169.551 1163.84 Q167.7 1164.26 165.755 1165.14 L165.755 1147.78 Z" fill="#000000" fill-rule="evenodd" fill-opacity="1" /><path clip-path="url(#clip470)" d="M99.3204 909.81 Q95.7093 909.81 93.8806 913.375 Q92.075 916.917 92.075 924.046 Q92.075 931.153 93.8806 934.718 Q95.7093 938.259 99.3204 938.259 Q102.955 938.259 104.76 934.718 Q106.589 931.153 106.589 924.046 Q106.589 916.917 104.76 913.375 Q102.955 909.81 99.3204 909.81 M99.3204 906.107 Q105.131 906.107 108.186 910.713 Q111.265 915.296 111.265 924.046 Q111.265 932.773 108.186 937.38 Q105.131 941.963 99.3204 941.963 Q93.5102 941.963 90.4315 937.38 Q87.376 932.773 87.376 924.046 Q87.376 915.296 90.4315 910.713 Q93.5102 906.107 99.3204 906.107 Z" fill="#000000" fill-rule="evenodd" fill-opacity="1" /><path clip-path="url(#clip470)" d="M119.482 935.412 L124.367 935.412 L124.367 941.292 L119.482 941.292 L119.482 935.412 Z" fill="#000000" fill-rule="evenodd" fill-opacity="1" /><path clip-path="url(#clip470)" d="M144.552 909.81 Q140.941 909.81 139.112 913.375 Q137.306 916.917 137.306 924.046 Q137.306 931.153 139.112 934.718 Q140.941 938.259 144.552 938.259 Q148.186 938.259 149.991 934.718 Q151.82 931.153 151.82 924.046 Q151.82 916.917 149.991 913.375 Q148.186 909.81 144.552 909.81 M144.552 906.107 Q150.362 906.107 153.417 910.713 Q156.496 915.296 156.496 924.046 Q156.496 932.773 153.417 937.38 Q150.362 941.963 144.552 941.963 Q138.741 941.963 135.663 937.38 Q132.607 932.773 132.607 924.046 Q132.607 915.296 135.663 910.713 Q138.741 906.107 144.552 906.107 Z" fill="#000000" fill-rule="evenodd" fill-opacity="1" /><path clip-path="url(#clip470)" d="M174.713 909.81 Q171.102 909.81 169.274 913.375 Q167.468 916.917 167.468 924.046 Q167.468 931.153 169.274 934.718 Q171.102 938.259 174.713 938.259 Q178.348 938.259 180.153 934.718 Q181.982 931.153 181.982 924.046 Q181.982 916.917 180.153 913.375 Q178.348 909.81 174.713 909.81 M174.713 906.107 Q180.524 906.107 183.579 910.713 Q186.658 915.296 186.658 924.046 Q186.658 932.773 183.579 937.38 Q180.524 941.963 174.713 941.963 Q168.903 941.963 165.825 937.38 Q162.769 932.773 162.769 924.046 Q162.769 915.296 165.825 910.713 Q168.903 906.107 174.713 906.107 Z" fill="#000000" fill-rule="evenodd" fill-opacity="1" /><path clip-path="url(#clip470)" d="M100.316 668.764 Q96.7047 668.764 94.876 672.329 Q93.0704 675.871 93.0704 683 Q93.0704 690.107 94.876 693.672 Q96.7047 697.213 100.316 697.213 Q103.95 697.213 105.756 693.672 Q107.584 690.107 107.584 683 Q107.584 675.871 105.756 672.329 Q103.95 668.764 100.316 668.764 M100.316 665.061 Q106.126 665.061 109.181 669.667 Q112.26 674.25 112.26 683 Q112.26 691.727 109.181 696.334 Q106.126 700.917 100.316 700.917 Q94.5056 700.917 91.4269 696.334 Q88.3714 691.727 88.3714 683 Q88.3714 674.25 91.4269 669.667 Q94.5056 665.061 100.316 665.061 Z" fill="#000000" fill-rule="evenodd" fill-opacity="1" /><path clip-path="url(#clip470)" d="M120.478 694.366 L125.362 694.366 L125.362 700.246 L120.478 700.246 L120.478 694.366 Z" fill="#000000" fill-rule="evenodd" fill-opacity="1" /><path clip-path="url(#clip470)" d="M145.547 668.764 Q141.936 668.764 140.107 672.329 Q138.302 675.871 138.302 683 Q138.302 690.107 140.107 693.672 Q141.936 697.213 145.547 697.213 Q149.181 697.213 150.987 693.672 Q152.815 690.107 152.815 683 Q152.815 675.871 150.987 672.329 Q149.181 668.764 145.547 668.764 M145.547 665.061 Q151.357 665.061 154.413 669.667 Q157.491 674.25 157.491 683 Q157.491 691.727 154.413 696.334 Q151.357 700.917 145.547 700.917 Q139.737 700.917 136.658 696.334 Q133.603 691.727 133.603 683 Q133.603 674.25 136.658 669.667 Q139.737 665.061 145.547 665.061 Z" fill="#000000" fill-rule="evenodd" fill-opacity="1" /><path clip-path="url(#clip470)" d="M165.755 665.686 L184.112 665.686 L184.112 669.621 L170.038 669.621 L170.038 678.093 Q171.056 677.746 172.075 677.584 Q173.093 677.399 174.112 677.399 Q179.899 677.399 183.278 680.57 Q186.658 683.741 186.658 689.158 Q186.658 694.736 183.186 697.838 Q179.713 700.917 173.394 700.917 Q171.218 700.917 168.95 700.547 Q166.704 700.176 164.297 699.435 L164.297 694.736 Q166.38 695.871 168.602 696.426 Q170.825 696.982 173.301 696.982 Q177.306 696.982 179.644 694.875 Q181.982 692.769 181.982 689.158 Q181.982 685.547 179.644 683.44 Q177.306 681.334 173.301 681.334 Q171.426 681.334 169.551 681.75 Q167.7 682.167 165.755 683.047 L165.755 665.686 Z" fill="#000000" fill-rule="evenodd" fill-opacity="1" /><path clip-path="url(#clip470)" d="M99.3204 427.718 Q95.7093 427.718 93.8806 431.283 Q92.075 434.825 92.075 441.954 Q92.075 449.061 93.8806 452.626 Q95.7093 456.167 99.3204 456.167 Q102.955 456.167 104.76 452.626 Q106.589 449.061 106.589 441.954 Q106.589 434.825 104.76 431.283 Q102.955 427.718 99.3204 427.718 M99.3204 424.015 Q105.131 424.015 108.186 428.621 Q111.265 433.204 111.265 441.954 Q111.265 450.681 108.186 455.288 Q105.131 459.871 99.3204 459.871 Q93.5102 459.871 90.4315 455.288 Q87.376 450.681 87.376 441.954 Q87.376 433.204 90.4315 428.621 Q93.5102 424.015 99.3204 424.015 Z" fill="#000000" fill-rule="evenodd" fill-opacity="1" /><path clip-path="url(#clip470)" d="M119.482 453.32 L124.367 453.32 L124.367 459.2 L119.482 459.2 L119.482 453.32 Z" fill="#000000" fill-rule="evenodd" fill-opacity="1" /><path clip-path="url(#clip470)" d="M135.362 455.264 L143.001 455.264 L143.001 428.899 L134.691 430.566 L134.691 426.306 L142.954 424.64 L147.63 424.64 L147.63 455.264 L155.269 455.264 L155.269 459.2 L135.362 459.2 L135.362 455.264 Z" fill="#000000" fill-rule="evenodd" fill-opacity="1" /><path clip-path="url(#clip470)" d="M174.713 427.718 Q171.102 427.718 169.274 431.283 Q167.468 434.825 167.468 441.954 Q167.468 449.061 169.274 452.626 Q171.102 456.167 174.713 456.167 Q178.348 456.167 180.153 452.626 Q181.982 449.061 181.982 441.954 Q181.982 434.825 180.153 431.283 Q178.348 427.718 174.713 427.718 M174.713 424.015 Q180.524 424.015 183.579 428.621 Q186.658 433.204 186.658 441.954 Q186.658 450.681 183.579 455.288 Q180.524 459.871 174.713 459.871 Q168.903 459.871 165.825 455.288 Q162.769 450.681 162.769 441.954 Q162.769 433.204 165.825 428.621 Q168.903 424.015 174.713 424.015 Z" fill="#000000" fill-rule="evenodd" fill-opacity="1" /><path clip-path="url(#clip470)" d="M100.316 186.672 Q96.7047 186.672 94.876 190.237 Q93.0704 193.779 93.0704 200.908 Q93.0704 208.015 94.876 211.58 Q96.7047 215.121 100.316 215.121 Q103.95 215.121 105.756 211.58 Q107.584 208.015 107.584 200.908 Q107.584 193.779 105.756 190.237 Q103.95 186.672 100.316 186.672 M100.316 182.969 Q106.126 182.969 109.181 187.575 Q112.26 192.158 112.26 200.908 Q112.26 209.635 109.181 214.242 Q106.126 218.825 100.316 218.825 Q94.5056 218.825 91.4269 214.242 Q88.3714 209.635 88.3714 200.908 Q88.3714 192.158 91.4269 187.575 Q94.5056 182.969 100.316 182.969 Z" fill="#000000" fill-rule="evenodd" fill-opacity="1" /><path clip-path="url(#clip470)" d="M120.478 212.274 L125.362 212.274 L125.362 218.154 L120.478 218.154 L120.478 212.274 Z" fill="#000000" fill-rule="evenodd" fill-opacity="1" /><path clip-path="url(#clip470)" d="M136.357 214.218 L143.996 214.218 L143.996 187.853 L135.686 189.519 L135.686 185.26 L143.95 183.594 L148.626 183.594 L148.626 214.218 L156.265 214.218 L156.265 218.154 L136.357 218.154 L136.357 214.218 Z" fill="#000000" fill-rule="evenodd" fill-opacity="1" /><path clip-path="url(#clip470)" d="M165.755 183.594 L184.112 183.594 L184.112 187.529 L170.038 187.529 L170.038 196.001 Q171.056 195.654 172.075 195.492 Q173.093 195.306 174.112 195.306 Q179.899 195.306 183.278 198.478 Q186.658 201.649 186.658 207.066 Q186.658 212.644 183.186 215.746 Q179.713 218.825 173.394 218.825 Q171.218 218.825 168.95 218.454 Q166.704 218.084 164.297 217.343 L164.297 212.644 Q166.38 213.779 168.602 214.334 Q170.825 214.89 173.301 214.89 Q177.306 214.89 179.644 212.783 Q181.982 210.677 181.982 207.066 Q181.982 203.455 179.644 201.348 Q177.306 199.242 173.301 199.242 Q171.426 199.242 169.551 199.658 Q167.7 200.075 165.755 200.955 L165.755 183.594 Z" fill="#000000" fill-rule="evenodd" fill-opacity="1" /><polyline clip-path="url(#clip472)" style="stroke:#009af9; stroke-linecap:butt; stroke-linejoin:round; stroke-width:4; stroke-opacity:1; fill:none" points="
  295.292,1751.15 310.118,1735.96 447.201,1599.28 529.582,1520.28 599.234,1455.25 674.896,1386.34 744.65,1324.37 819.433,1259.53 906.076,1186.39 983.075,1123.11 
  1050.6,1068.9 1124.21,1011.12 1198.27,954.331 1280.14,893.057 1358.04,836.177 1439.04,778.45 1507.23,730.936 1590.48,674.221 1666.73,623.473 1737.16,577.593 
  1808.51,532.059 1888.47,482.116 1960.92,437.823 2043.88,388.198 2120.68,343.252 2196.41,299.855 2269.93,258.561 2345.3,217.064 2427.88,172.541 2547.83,109.554 
  2572.44,96.8724 
  "/>
<path clip-path="url(#clip470)" d="
M2239.67 209.375 L2560.3 209.375 L2560.3 105.695 L2239.67 105.695  Z
  " fill="#ffffff" fill-rule="evenodd" fill-opacity="1"/>
<polyline clip-path="url(#clip470)" style="stroke:#000000; stroke-linecap:butt; stroke-linejoin:round; stroke-width:4; stroke-opacity:1; fill:none" points="
  2239.67,209.375 2560.3,209.375 2560.3,105.695 2239.67,105.695 2239.67,209.375 
  "/>
<polyline clip-path="url(#clip470)" style="stroke:#009af9; stroke-linecap:butt; stroke-linejoin:round; stroke-width:4; stroke-opacity:1; fill:none" points="
  2266.49,157.535 2427.41,157.535 
  "/>
<path clip-path="url(#clip470)" d="M2468.07 177.223 Q2466.26 181.852 2464.55 183.264 Q2462.84 184.676 2459.97 184.676 L2456.56 184.676 L2456.56 181.112 L2459.06 181.112 Q2460.82 181.112 2461.8 180.278 Q2462.77 179.445 2463.95 176.343 L2464.71 174.399 L2454.23 148.889 L2458.74 148.889 L2466.84 169.167 L2474.94 148.889 L2479.46 148.889 L2468.07 177.223 Z" fill="#000000" fill-rule="evenodd" fill-opacity="1" /><path clip-path="url(#clip470)" d="M2486.75 170.88 L2494.39 170.88 L2494.39 144.515 L2486.08 146.181 L2486.08 141.922 L2494.34 140.255 L2499.02 140.255 L2499.02 170.88 L2506.66 170.88 L2506.66 174.815 L2486.75 174.815 L2486.75 170.88 Z" fill="#000000" fill-rule="evenodd" fill-opacity="1" /></svg>
