<?xml version="1.0" encoding="utf-8"?>
<svg xmlns="http://www.w3.org/2000/svg" xmlns:xlink="http://www.w3.org/1999/xlink" width="672" height="480" viewBox="0 0 2688 1920">
<defs>
  <clipPath id="clip210">
    <rect x="0" y="0" width="2688" height="1920"/>
  </clipPath>
</defs>
<path clip-path="url(#clip210)" d="
M0 1920 L2688 1920 L2688 0 L0 0  Z
  " fill="#ffffff" fill-rule="evenodd" fill-opacity="1"/>
<defs>
  <clipPath id="clip211">
    <rect x="537" y="0" width="1883" height="1883"/>
  </clipPath>
</defs>
<path clip-path="url(#clip210)" d="
M220.612 1800.78 L2371.96 1800.78 L2371.96 47.2441 L220.612 47.2441  Z
  " fill="#ffffff" fill-rule="evenodd" fill-opacity="1"/>
<defs>
  <clipPath id="clip212">
    <rect x="220" y="47" width="2152" height="1755"/>
  </clipPath>
</defs>
<polyline clip-path="url(#clip212)" style="stroke:#000000; stroke-linecap:butt; stroke-linejoin:round; stroke-width:2; stroke-opacity:0.1; fill:none" points="
  377.997,1800.78 377.997,47.2441 
  "/>
<polyline clip-path="url(#clip212)" style="stroke:#000000; stroke-linecap:butt; stroke-linejoin:round; stroke-width:2; stroke-opacity:0.1; fill:none" points="
  905.681,1800.78 905.681,47.2441 
  "/>
<polyline clip-path="url(#clip212)" style="stroke:#000000; stroke-linecap:butt; stroke-linejoin:round; stroke-width:2; stroke-opacity:0.1; fill:none" points="
  1433.36,1800.78 1433.36,47.2441 
  "/>
<polyline clip-path="url(#clip212)" style="stroke:#000000; stroke-linecap:butt; stroke-linejoin:round; stroke-width:2; stroke-opacity:0.1; fill:none" points="
  1961.05,1800.78 1961.05,47.2441 
  "/>
<polyline clip-path="url(#clip210)" style="stroke:#000000; stroke-linecap:butt; stroke-linejoin:round; stroke-width:4; stroke-opacity:1; fill:none" points="
  220.612,1800.78 2371.96,1800.78 
  "/>
<polyline clip-path="url(#clip210)" style="stroke:#000000; stroke-linecap:butt; stroke-linejoin:round; stroke-width:4; stroke-opacity:1; fill:none" points="
  377.997,1800.78 377.997,1781.88 
  "/>
<polyline clip-path="url(#clip210)" style="stroke:#000000; stroke-linecap:butt; stroke-linejoin:round; stroke-width:4; stroke-opacity:1; fill:none" points="
  905.681,1800.78 905.681,1781.88 
  "/>
<polyline clip-path="url(#clip210)" style="stroke:#000000; stroke-linecap:butt; stroke-linejoin:round; stroke-width:4; stroke-opacity:1; fill:none" points="
  1433.36,1800.78 1433.36,1781.88 
  "/>
<polyline clip-path="url(#clip210)" style="stroke:#000000; stroke-linecap:butt; stroke-linejoin:round; stroke-width:4; stroke-opacity:1; fill:none" points="
  1961.05,1800.78 1961.05,1781.88 
  "/>
<path clip-path="url(#clip210)" d="M294.977 1848.65 L324.652 1848.65 L324.652 1852.59 L294.977 1852.59 L294.977 1848.65 Z" fill="#000000" fill-rule="evenodd" fill-opacity="1" /><path clip-path="url(#clip210)" d="M333.564 1830.92 L355.786 1830.92 L355.786 1832.91 L343.24 1865.48 L338.356 1865.48 L350.161 1834.86 L333.564 1834.86 L333.564 1830.92 Z" fill="#000000" fill-rule="evenodd" fill-opacity="1" /><path clip-path="url(#clip210)" d="M377.754 1835 L365.948 1853.45 L377.754 1853.45 L377.754 1835 M376.527 1830.92 L382.407 1830.92 L382.407 1853.45 L387.337 1853.45 L387.337 1857.34 L382.407 1857.34 L382.407 1865.48 L377.754 1865.48 L377.754 1857.34 L362.152 1857.34 L362.152 1852.82 L376.527 1830.92 Z" fill="#000000" fill-rule="evenodd" fill-opacity="1" /><path clip-path="url(#clip210)" d="M395.069 1859.6 L399.953 1859.6 L399.953 1865.48 L395.069 1865.48 L395.069 1859.6 Z" fill="#000000" fill-rule="evenodd" fill-opacity="1" /><path clip-path="url(#clip210)" d="M424.305 1846.85 Q427.661 1847.57 429.536 1849.84 Q431.434 1852.1 431.434 1855.44 Q431.434 1860.55 427.916 1863.35 Q424.397 1866.15 417.916 1866.15 Q415.74 1866.15 413.425 1865.71 Q411.133 1865.3 408.68 1864.44 L408.68 1859.93 Q410.624 1861.06 412.939 1861.64 Q415.254 1862.22 417.777 1862.22 Q422.175 1862.22 424.467 1860.48 Q426.781 1858.75 426.781 1855.44 Q426.781 1852.38 424.629 1850.67 Q422.499 1848.93 418.68 1848.93 L414.652 1848.93 L414.652 1845.09 L418.865 1845.09 Q422.314 1845.09 424.143 1843.72 Q425.971 1842.34 425.971 1839.74 Q425.971 1837.08 424.073 1835.67 Q422.198 1834.23 418.68 1834.23 Q416.758 1834.23 414.559 1834.65 Q412.36 1835.07 409.721 1835.95 L409.721 1831.78 Q412.383 1831.04 414.698 1830.67 Q417.036 1830.3 419.096 1830.3 Q424.42 1830.3 427.522 1832.73 Q430.624 1835.14 430.624 1839.26 Q430.624 1842.13 428.98 1844.12 Q427.337 1846.09 424.305 1846.85 Z" fill="#000000" fill-rule="evenodd" fill-opacity="1" /><path clip-path="url(#clip210)" d="M441.11 1861.55 L448.749 1861.55 L448.749 1835.18 L440.439 1836.85 L440.439 1832.59 L448.703 1830.92 L453.378 1830.92 L453.378 1861.55 L461.017 1861.55 L461.017 1865.48 L441.11 1865.48 L441.11 1861.55 Z" fill="#000000" fill-rule="evenodd" fill-opacity="1" /><path clip-path="url(#clip210)" d="M822.047 1848.65 L851.722 1848.65 L851.722 1852.59 L822.047 1852.59 L822.047 1848.65 Z" fill="#000000" fill-rule="evenodd" fill-opacity="1" /><path clip-path="url(#clip210)" d="M860.634 1830.92 L882.857 1830.92 L882.857 1832.91 L870.31 1865.48 L865.426 1865.48 L877.232 1834.86 L860.634 1834.86 L860.634 1830.92 Z" fill="#000000" fill-rule="evenodd" fill-opacity="1" /><path clip-path="url(#clip210)" d="M904.824 1835 L893.019 1853.45 L904.824 1853.45 L904.824 1835 M903.597 1830.92 L909.477 1830.92 L909.477 1853.45 L914.407 1853.45 L914.407 1857.34 L909.477 1857.34 L909.477 1865.48 L904.824 1865.48 L904.824 1857.34 L889.222 1857.34 L889.222 1852.82 L903.597 1830.92 Z" fill="#000000" fill-rule="evenodd" fill-opacity="1" /><path clip-path="url(#clip210)" d="M922.139 1859.6 L927.023 1859.6 L927.023 1865.48 L922.139 1865.48 L922.139 1859.6 Z" fill="#000000" fill-rule="evenodd" fill-opacity="1" /><path clip-path="url(#clip210)" d="M951.375 1846.85 Q954.731 1847.57 956.606 1849.84 Q958.504 1852.1 958.504 1855.44 Q958.504 1860.55 954.986 1863.35 Q951.467 1866.15 944.986 1866.15 Q942.81 1866.15 940.495 1865.71 Q938.204 1865.3 935.75 1864.44 L935.75 1859.93 Q937.694 1861.06 940.009 1861.64 Q942.324 1862.22 944.847 1862.22 Q949.245 1862.22 951.537 1860.48 Q953.852 1858.75 953.852 1855.44 Q953.852 1852.38 951.699 1850.67 Q949.569 1848.93 945.75 1848.93 L941.722 1848.93 L941.722 1845.09 L945.935 1845.09 Q949.384 1845.09 951.213 1843.72 Q953.041 1842.34 953.041 1839.74 Q953.041 1837.08 951.143 1835.67 Q949.268 1834.23 945.75 1834.23 Q943.828 1834.23 941.629 1834.65 Q939.43 1835.07 936.791 1835.95 L936.791 1831.78 Q939.453 1831.04 941.768 1830.67 Q944.106 1830.3 946.166 1830.3 Q951.49 1830.3 954.592 1832.73 Q957.694 1835.14 957.694 1839.26 Q957.694 1842.13 956.051 1844.12 Q954.407 1846.09 951.375 1846.85 Z" fill="#000000" fill-rule="evenodd" fill-opacity="1" /><path clip-path="url(#clip210)" d="M977.37 1834 Q973.759 1834 971.93 1837.57 Q970.125 1841.11 970.125 1848.24 Q970.125 1855.34 971.93 1858.91 Q973.759 1862.45 977.37 1862.45 Q981.004 1862.45 982.81 1858.91 Q984.638 1855.34 984.638 1848.24 Q984.638 1841.11 982.81 1837.57 Q981.004 1834 977.37 1834 M977.37 1830.3 Q983.18 1830.3 986.236 1834.9 Q989.314 1839.49 989.314 1848.24 Q989.314 1856.96 986.236 1861.57 Q983.18 1866.15 977.37 1866.15 Q971.56 1866.15 968.481 1861.57 Q965.426 1856.96 965.426 1848.24 Q965.426 1839.49 968.481 1834.9 Q971.56 1830.3 977.37 1830.3 Z" fill="#000000" fill-rule="evenodd" fill-opacity="1" /><path clip-path="url(#clip210)" d="M1349.82 1848.65 L1379.5 1848.65 L1379.5 1852.59 L1349.82 1852.59 L1349.82 1848.65 Z" fill="#000000" fill-rule="evenodd" fill-opacity="1" /><path clip-path="url(#clip210)" d="M1388.41 1830.92 L1410.63 1830.92 L1410.63 1832.91 L1398.09 1865.48 L1393.2 1865.48 L1405.01 1834.86 L1388.41 1834.86 L1388.41 1830.92 Z" fill="#000000" fill-rule="evenodd" fill-opacity="1" /><path clip-path="url(#clip210)" d="M1432.6 1835 L1420.79 1853.45 L1432.6 1853.45 L1432.6 1835 M1431.37 1830.92 L1437.25 1830.92 L1437.25 1853.45 L1442.18 1853.45 L1442.18 1857.34 L1437.25 1857.34 L1437.25 1865.48 L1432.6 1865.48 L1432.6 1857.34 L1417 1857.34 L1417 1852.82 L1431.37 1830.92 Z" fill="#000000" fill-rule="evenodd" fill-opacity="1" /><path clip-path="url(#clip210)" d="M1449.91 1859.6 L1454.8 1859.6 L1454.8 1865.48 L1449.91 1865.48 L1449.91 1859.6 Z" fill="#000000" fill-rule="evenodd" fill-opacity="1" /><path clip-path="url(#clip210)" d="M1469.01 1861.55 L1485.33 1861.55 L1485.33 1865.48 L1463.39 1865.48 L1463.39 1861.55 Q1466.05 1858.79 1470.63 1854.16 Q1475.24 1849.51 1476.42 1848.17 Q1478.66 1845.65 1479.54 1843.91 Q1480.45 1842.15 1480.45 1840.46 Q1480.45 1837.71 1478.5 1835.97 Q1476.58 1834.23 1473.48 1834.23 Q1471.28 1834.23 1468.83 1835 Q1466.4 1835.76 1463.62 1837.31 L1463.62 1832.59 Q1466.44 1831.46 1468.9 1830.88 Q1471.35 1830.3 1473.39 1830.3 Q1478.76 1830.3 1481.95 1832.98 Q1485.15 1835.67 1485.15 1840.16 Q1485.15 1842.29 1484.34 1844.21 Q1483.55 1846.11 1481.44 1848.7 Q1480.86 1849.37 1477.76 1852.59 Q1474.66 1855.78 1469.01 1861.55 Z" fill="#000000" fill-rule="evenodd" fill-opacity="1" /><path clip-path="url(#clip210)" d="M1495.29 1864.77 L1495.29 1860.51 Q1497.04 1861.34 1498.85 1861.78 Q1500.66 1862.22 1502.39 1862.22 Q1507.02 1862.22 1509.45 1859.12 Q1511.91 1855.99 1512.25 1849.65 Q1510.91 1851.64 1508.85 1852.71 Q1506.79 1853.77 1504.29 1853.77 Q1499.1 1853.77 1496.07 1850.65 Q1493.06 1847.5 1493.06 1842.06 Q1493.06 1836.73 1496.21 1833.52 Q1499.36 1830.3 1504.59 1830.3 Q1510.59 1830.3 1513.73 1834.9 Q1516.91 1839.49 1516.91 1848.24 Q1516.91 1856.41 1513.02 1861.29 Q1509.15 1866.15 1502.6 1866.15 Q1500.84 1866.15 1499.04 1865.81 Q1497.23 1865.46 1495.29 1864.77 M1504.59 1850.11 Q1507.74 1850.11 1509.57 1847.96 Q1511.42 1845.81 1511.42 1842.06 Q1511.42 1838.33 1509.57 1836.18 Q1507.74 1834 1504.59 1834 Q1501.44 1834 1499.59 1836.18 Q1497.76 1838.33 1497.76 1842.06 Q1497.76 1845.81 1499.59 1847.96 Q1501.44 1850.11 1504.59 1850.11 Z" fill="#000000" fill-rule="evenodd" fill-opacity="1" /><path clip-path="url(#clip210)" d="M1877.46 1848.65 L1907.14 1848.65 L1907.14 1852.59 L1877.46 1852.59 L1877.46 1848.65 Z" fill="#000000" fill-rule="evenodd" fill-opacity="1" /><path clip-path="url(#clip210)" d="M1916.05 1830.92 L1938.27 1830.92 L1938.27 1832.91 L1925.72 1865.48 L1920.84 1865.48 L1932.65 1834.86 L1916.05 1834.86 L1916.05 1830.92 Z" fill="#000000" fill-rule="evenodd" fill-opacity="1" /><path clip-path="url(#clip210)" d="M1960.24 1835 L1948.43 1853.45 L1960.24 1853.45 L1960.24 1835 M1959.01 1830.92 L1964.89 1830.92 L1964.89 1853.45 L1969.82 1853.45 L1969.82 1857.34 L1964.89 1857.34 L1964.89 1865.48 L1960.24 1865.48 L1960.24 1857.34 L1944.64 1857.34 L1944.64 1852.82 L1959.01 1830.92 Z" fill="#000000" fill-rule="evenodd" fill-opacity="1" /><path clip-path="url(#clip210)" d="M1977.55 1859.6 L1982.44 1859.6 L1982.44 1865.48 L1977.55 1865.48 L1977.55 1859.6 Z" fill="#000000" fill-rule="evenodd" fill-opacity="1" /><path clip-path="url(#clip210)" d="M1996.65 1861.55 L2012.97 1861.55 L2012.97 1865.48 L1991.02 1865.48 L1991.02 1861.55 Q1993.69 1858.79 1998.27 1854.16 Q2002.88 1849.51 2004.06 1848.17 Q2006.3 1845.65 2007.18 1843.91 Q2008.08 1842.15 2008.08 1840.46 Q2008.08 1837.71 2006.14 1835.97 Q2004.22 1834.23 2001.12 1834.23 Q1998.92 1834.23 1996.46 1835 Q1994.03 1835.76 1991.26 1837.31 L1991.26 1832.59 Q1994.08 1831.46 1996.53 1830.88 Q1998.99 1830.3 2001.02 1830.3 Q2006.39 1830.3 2009.59 1832.98 Q2012.78 1835.67 2012.78 1840.16 Q2012.78 1842.29 2011.97 1844.21 Q2011.19 1846.11 2009.08 1848.7 Q2008.5 1849.37 2005.4 1852.59 Q2002.3 1855.78 1996.65 1861.55 Z" fill="#000000" fill-rule="evenodd" fill-opacity="1" /><path clip-path="url(#clip210)" d="M2032.78 1849.07 Q2029.45 1849.07 2027.53 1850.85 Q2025.63 1852.64 2025.63 1855.76 Q2025.63 1858.89 2027.53 1860.67 Q2029.45 1862.45 2032.78 1862.45 Q2036.12 1862.45 2038.04 1860.67 Q2039.96 1858.86 2039.96 1855.76 Q2039.96 1852.64 2038.04 1850.85 Q2036.14 1849.07 2032.78 1849.07 M2028.11 1847.08 Q2025.1 1846.34 2023.41 1844.28 Q2021.74 1842.22 2021.74 1839.26 Q2021.74 1835.11 2024.68 1832.71 Q2027.64 1830.3 2032.78 1830.3 Q2037.95 1830.3 2040.89 1832.71 Q2043.83 1835.11 2043.83 1839.26 Q2043.83 1842.22 2042.14 1844.28 Q2040.47 1846.34 2037.48 1847.08 Q2040.86 1847.87 2042.74 1850.16 Q2044.64 1852.45 2044.64 1855.76 Q2044.64 1860.78 2041.56 1863.47 Q2038.5 1866.15 2032.78 1866.15 Q2027.07 1866.15 2023.99 1863.47 Q2020.93 1860.78 2020.93 1855.76 Q2020.93 1852.45 2022.83 1850.16 Q2024.73 1847.87 2028.11 1847.08 M2026.39 1839.7 Q2026.39 1842.38 2028.06 1843.89 Q2029.75 1845.39 2032.78 1845.39 Q2035.79 1845.39 2037.48 1843.89 Q2039.2 1842.38 2039.2 1839.7 Q2039.2 1837.01 2037.48 1835.51 Q2035.79 1834 2032.78 1834 Q2029.75 1834 2028.06 1835.51 Q2026.39 1837.01 2026.39 1839.7 Z" fill="#000000" fill-rule="evenodd" fill-opacity="1" /><polyline clip-path="url(#clip212)" style="stroke:#000000; stroke-linecap:butt; stroke-linejoin:round; stroke-width:2; stroke-opacity:0.1; fill:none" points="
  220.612,1690.76 2371.96,1690.76 
  "/>
<polyline clip-path="url(#clip212)" style="stroke:#000000; stroke-linecap:butt; stroke-linejoin:round; stroke-width:2; stroke-opacity:0.1; fill:none" points="
  220.612,1402.34 2371.96,1402.34 
  "/>
<polyline clip-path="url(#clip212)" style="stroke:#000000; stroke-linecap:butt; stroke-linejoin:round; stroke-width:2; stroke-opacity:0.1; fill:none" points="
  220.612,1113.92 2371.96,1113.92 
  "/>
<polyline clip-path="url(#clip212)" style="stroke:#000000; stroke-linecap:butt; stroke-linejoin:round; stroke-width:2; stroke-opacity:0.1; fill:none" points="
  220.612,825.502 2371.96,825.502 
  "/>
<polyline clip-path="url(#clip212)" style="stroke:#000000; stroke-linecap:butt; stroke-linejoin:round; stroke-width:2; stroke-opacity:0.1; fill:none" points="
  220.612,537.082 2371.96,537.082 
  "/>
<polyline clip-path="url(#clip212)" style="stroke:#000000; stroke-linecap:butt; stroke-linejoin:round; stroke-width:2; stroke-opacity:0.1; fill:none" points="
  220.612,248.662 2371.96,248.662 
  "/>
<polyline clip-path="url(#clip210)" style="stroke:#000000; stroke-linecap:butt; stroke-linejoin:round; stroke-width:4; stroke-opacity:1; fill:none" points="
  220.612,1800.78 220.612,47.2441 
  "/>
<polyline clip-path="url(#clip210)" style="stroke:#000000; stroke-linecap:butt; stroke-linejoin:round; stroke-width:4; stroke-opacity:1; fill:none" points="
  220.612,1690.76 237.411,1690.76 
  "/>
<polyline clip-path="url(#clip210)" style="stroke:#000000; stroke-linecap:butt; stroke-linejoin:round; stroke-width:4; stroke-opacity:1; fill:none" points="
  220.612,1402.34 237.411,1402.34 
  "/>
<polyline clip-path="url(#clip210)" style="stroke:#000000; stroke-linecap:butt; stroke-linejoin:round; stroke-width:4; stroke-opacity:1; fill:none" points="
  220.612,1113.92 237.411,1113.92 
  "/>
<polyline clip-path="url(#clip210)" style="stroke:#000000; stroke-linecap:butt; stroke-linejoin:round; stroke-width:4; stroke-opacity:1; fill:none" points="
  220.612,825.502 237.411,825.502 
  "/>
<polyline clip-path="url(#clip210)" style="stroke:#000000; stroke-linecap:butt; stroke-linejoin:round; stroke-width:4; stroke-opacity:1; fill:none" points="
  220.612,537.082 237.411,537.082 
  "/>
<polyline clip-path="url(#clip210)" style="stroke:#000000; stroke-linecap:butt; stroke-linejoin:round; stroke-width:4; stroke-opacity:1; fill:none" points="
  220.612,248.662 237.411,248.662 
  "/>
<path clip-path="url(#clip210)" d="M66.2881 1677.56 L54.4827 1696.01 L66.2881 1696.01 L66.2881 1677.56 M65.0613 1673.48 L70.9409 1673.48 L70.9409 1696.01 L75.8714 1696.01 L75.8714 1699.89 L70.9409 1699.89 L70.9409 1708.04 L66.2881 1708.04 L66.2881 1699.89 L50.6864 1699.89 L50.6864 1695.38 L65.0613 1673.48 Z" fill="#000000" fill-rule="evenodd" fill-opacity="1" /><path clip-path="url(#clip210)" d="M93.6028 1676.56 Q89.9917 1676.56 88.163 1680.13 Q86.3575 1683.67 86.3575 1690.8 Q86.3575 1697.9 88.163 1701.47 Q89.9917 1705.01 93.6028 1705.01 Q97.2371 1705.01 99.0426 1701.47 Q100.871 1697.9 100.871 1690.8 Q100.871 1683.67 99.0426 1680.13 Q97.2371 1676.56 93.6028 1676.56 M93.6028 1672.86 Q99.413 1672.86 102.469 1677.46 Q105.547 1682.05 105.547 1690.8 Q105.547 1699.52 102.469 1704.13 Q99.413 1708.71 93.6028 1708.71 Q87.7927 1708.71 84.714 1704.13 Q81.6584 1699.52 81.6584 1690.8 Q81.6584 1682.05 84.714 1677.46 Q87.7927 1672.86 93.6028 1672.86 Z" fill="#000000" fill-rule="evenodd" fill-opacity="1" /><path clip-path="url(#clip210)" d="M113.765 1702.16 L118.649 1702.16 L118.649 1708.04 L113.765 1708.04 L113.765 1702.16 Z" fill="#000000" fill-rule="evenodd" fill-opacity="1" /><path clip-path="url(#clip210)" d="M127.654 1673.48 L149.876 1673.48 L149.876 1675.47 L137.329 1708.04 L132.445 1708.04 L144.251 1677.42 L127.654 1677.42 L127.654 1673.48 Z" fill="#000000" fill-rule="evenodd" fill-opacity="1" /><path clip-path="url(#clip210)" d="M173.163 1689.41 Q176.519 1690.13 178.394 1692.39 Q180.292 1694.66 180.292 1698 Q180.292 1703.11 176.774 1705.91 Q173.255 1708.71 166.774 1708.71 Q164.598 1708.71 162.283 1708.27 Q159.991 1707.86 157.538 1707 L157.538 1702.49 Q159.482 1703.62 161.797 1704.2 Q164.112 1704.78 166.635 1704.78 Q171.033 1704.78 173.325 1703.04 Q175.639 1701.31 175.639 1698 Q175.639 1694.94 173.487 1693.23 Q171.357 1691.49 167.538 1691.49 L163.51 1691.49 L163.51 1687.65 L167.723 1687.65 Q171.172 1687.65 173.001 1686.28 Q174.829 1684.89 174.829 1682.3 Q174.829 1679.64 172.931 1678.23 Q171.056 1676.79 167.538 1676.79 Q165.616 1676.79 163.417 1677.21 Q161.218 1677.63 158.579 1678.51 L158.579 1674.34 Q161.241 1673.6 163.556 1673.23 Q165.894 1672.86 167.954 1672.86 Q173.278 1672.86 176.38 1675.29 Q179.482 1677.7 179.482 1681.82 Q179.482 1684.69 177.838 1686.68 Q176.195 1688.64 173.163 1689.41 Z" fill="#000000" fill-rule="evenodd" fill-opacity="1" /><path clip-path="url(#clip210)" d="M65.1539 1389.14 L53.3484 1407.59 L65.1539 1407.59 L65.1539 1389.14 M63.927 1385.06 L69.8066 1385.06 L69.8066 1407.59 L74.7372 1407.59 L74.7372 1411.47 L69.8066 1411.47 L69.8066 1419.62 L65.1539 1419.62 L65.1539 1411.47 L49.5521 1411.47 L49.5521 1406.96 L63.927 1385.06 Z" fill="#000000" fill-rule="evenodd" fill-opacity="1" /><path clip-path="url(#clip210)" d="M92.4686 1388.14 Q88.8575 1388.14 87.0288 1391.71 Q85.2232 1395.25 85.2232 1402.38 Q85.2232 1409.48 87.0288 1413.05 Q88.8575 1416.59 92.4686 1416.59 Q96.1028 1416.59 97.9083 1413.05 Q99.737 1409.48 99.737 1402.38 Q99.737 1395.25 97.9083 1391.71 Q96.1028 1388.14 92.4686 1388.14 M92.4686 1384.44 Q98.2787 1384.44 101.334 1389.04 Q104.413 1393.63 104.413 1402.38 Q104.413 1411.1 101.334 1415.71 Q98.2787 1420.29 92.4686 1420.29 Q86.6584 1420.29 83.5797 1415.71 Q80.5242 1411.1 80.5242 1402.38 Q80.5242 1393.63 83.5797 1389.04 Q86.6584 1384.44 92.4686 1384.44 Z" fill="#000000" fill-rule="evenodd" fill-opacity="1" /><path clip-path="url(#clip210)" d="M112.63 1413.74 L117.515 1413.74 L117.515 1419.62 L112.63 1419.62 L112.63 1413.74 Z" fill="#000000" fill-rule="evenodd" fill-opacity="1" /><path clip-path="url(#clip210)" d="M126.519 1385.06 L148.741 1385.06 L148.741 1387.05 L136.195 1419.62 L131.311 1419.62 L143.116 1389 L126.519 1389 L126.519 1385.06 Z" fill="#000000" fill-rule="evenodd" fill-opacity="1" /><path clip-path="url(#clip210)" d="M170.709 1389.14 L158.903 1407.59 L170.709 1407.59 L170.709 1389.14 M169.482 1385.06 L175.362 1385.06 L175.362 1407.59 L180.292 1407.59 L180.292 1411.47 L175.362 1411.47 L175.362 1419.62 L170.709 1419.62 L170.709 1411.47 L155.107 1411.47 L155.107 1406.96 L169.482 1385.06 Z" fill="#000000" fill-rule="evenodd" fill-opacity="1" /><path clip-path="url(#clip210)" d="M66.6354 1100.72 L54.8299 1119.17 L66.6354 1119.17 L66.6354 1100.72 M65.4085 1096.64 L71.2881 1096.64 L71.2881 1119.17 L76.2186 1119.17 L76.2186 1123.05 L71.2881 1123.05 L71.2881 1131.2 L66.6354 1131.2 L66.6354 1123.05 L51.0336 1123.05 L51.0336 1118.54 L65.4085 1096.64 Z" fill="#000000" fill-rule="evenodd" fill-opacity="1" /><path clip-path="url(#clip210)" d="M93.95 1099.72 Q90.3389 1099.72 88.5103 1103.29 Q86.7047 1106.83 86.7047 1113.96 Q86.7047 1121.06 88.5103 1124.63 Q90.3389 1128.17 93.95 1128.17 Q97.5843 1128.17 99.3898 1124.63 Q101.219 1121.06 101.219 1113.96 Q101.219 1106.83 99.3898 1103.29 Q97.5843 1099.72 93.95 1099.72 M93.95 1096.02 Q99.7602 1096.02 102.816 1100.62 Q105.894 1105.21 105.894 1113.96 Q105.894 1122.68 102.816 1127.29 Q99.7602 1131.87 93.95 1131.87 Q88.1399 1131.87 85.0612 1127.29 Q82.0057 1122.68 82.0057 1113.96 Q82.0057 1105.21 85.0612 1100.62 Q88.1399 1096.02 93.95 1096.02 Z" fill="#000000" fill-rule="evenodd" fill-opacity="1" /><path clip-path="url(#clip210)" d="M114.112 1125.32 L118.996 1125.32 L118.996 1131.2 L114.112 1131.2 L114.112 1125.32 Z" fill="#000000" fill-rule="evenodd" fill-opacity="1" /><path clip-path="url(#clip210)" d="M128.001 1096.64 L150.223 1096.64 L150.223 1098.63 L137.677 1131.2 L132.792 1131.2 L144.598 1100.58 L128.001 1100.58 L128.001 1096.64 Z" fill="#000000" fill-rule="evenodd" fill-opacity="1" /><path clip-path="url(#clip210)" d="M159.39 1096.64 L177.746 1096.64 L177.746 1100.58 L163.672 1100.58 L163.672 1109.05 Q164.69 1108.7 165.709 1108.54 Q166.727 1108.36 167.746 1108.36 Q173.533 1108.36 176.913 1111.53 Q180.292 1114.7 180.292 1120.11 Q180.292 1125.69 176.82 1128.79 Q173.348 1131.87 167.028 1131.87 Q164.852 1131.87 162.584 1131.5 Q160.339 1131.13 157.931 1130.39 L157.931 1125.69 Q160.014 1126.83 162.237 1127.38 Q164.459 1127.94 166.936 1127.94 Q170.94 1127.94 173.278 1125.83 Q175.616 1123.73 175.616 1120.11 Q175.616 1116.5 173.278 1114.4 Q170.94 1112.29 166.936 1112.29 Q165.061 1112.29 163.186 1112.71 Q161.334 1113.12 159.39 1114 L159.39 1096.64 Z" fill="#000000" fill-rule="evenodd" fill-opacity="1" /><path clip-path="url(#clip210)" d="M65.478 812.296 L53.6725 830.745 L65.478 830.745 L65.478 812.296 M64.2511 808.222 L70.1307 808.222 L70.1307 830.745 L75.0612 830.745 L75.0612 834.634 L70.1307 834.634 L70.1307 842.782 L65.478 842.782 L65.478 834.634 L49.8762 834.634 L49.8762 830.12 L64.2511 808.222 Z" fill="#000000" fill-rule="evenodd" fill-opacity="1" /><path clip-path="url(#clip210)" d="M92.7926 811.301 Q89.1815 811.301 87.3528 814.866 Q85.5473 818.407 85.5473 825.537 Q85.5473 832.643 87.3528 836.208 Q89.1815 839.75 92.7926 839.75 Q96.4269 839.75 98.2324 836.208 Q100.061 832.643 100.061 825.537 Q100.061 818.407 98.2324 814.866 Q96.4269 811.301 92.7926 811.301 M92.7926 807.597 Q98.6028 807.597 101.658 812.204 Q104.737 816.787 104.737 825.537 Q104.737 834.264 101.658 838.87 Q98.6028 843.453 92.7926 843.453 Q86.9825 843.453 83.9038 838.87 Q80.8483 834.264 80.8483 825.537 Q80.8483 816.787 83.9038 812.204 Q86.9825 807.597 92.7926 807.597 Z" fill="#000000" fill-rule="evenodd" fill-opacity="1" /><path clip-path="url(#clip210)" d="M112.955 836.903 L117.839 836.903 L117.839 842.782 L112.955 842.782 L112.955 836.903 Z" fill="#000000" fill-rule="evenodd" fill-opacity="1" /><path clip-path="url(#clip210)" d="M126.843 808.222 L149.065 808.222 L149.065 810.213 L136.519 842.782 L131.635 842.782 L143.441 812.157 L126.843 812.157 L126.843 808.222 Z" fill="#000000" fill-rule="evenodd" fill-opacity="1" /><path clip-path="url(#clip210)" d="M168.764 823.639 Q165.616 823.639 163.764 825.791 Q161.936 827.944 161.936 831.694 Q161.936 835.421 163.764 837.597 Q165.616 839.75 168.764 839.75 Q171.913 839.75 173.741 837.597 Q175.593 835.421 175.593 831.694 Q175.593 827.944 173.741 825.791 Q171.913 823.639 168.764 823.639 M178.047 808.986 L178.047 813.245 Q176.288 812.412 174.482 811.972 Q172.7 811.532 170.94 811.532 Q166.311 811.532 163.857 814.657 Q161.427 817.782 161.079 824.102 Q162.445 822.088 164.505 821.023 Q166.565 819.935 169.042 819.935 Q174.251 819.935 177.26 823.106 Q180.292 826.254 180.292 831.694 Q180.292 837.018 177.144 840.236 Q173.996 843.453 168.764 843.453 Q162.769 843.453 159.598 838.87 Q156.427 834.264 156.427 825.537 Q156.427 817.342 160.315 812.481 Q164.204 807.597 170.755 807.597 Q172.514 807.597 174.297 807.944 Q176.102 808.292 178.047 808.986 Z" fill="#000000" fill-rule="evenodd" fill-opacity="1" /><path clip-path="url(#clip210)" d="M66.5428 523.876 L54.7373 542.325 L66.5428 542.325 L66.5428 523.876 M65.3159 519.802 L71.1955 519.802 L71.1955 542.325 L76.1261 542.325 L76.1261 546.214 L71.1955 546.214 L71.1955 554.362 L66.5428 554.362 L66.5428 546.214 L50.941 546.214 L50.941 541.7 L65.3159 519.802 Z" fill="#000000" fill-rule="evenodd" fill-opacity="1" /><path clip-path="url(#clip210)" d="M93.8574 522.881 Q90.2464 522.881 88.4177 526.446 Q86.6121 529.987 86.6121 537.117 Q86.6121 544.223 88.4177 547.788 Q90.2464 551.33 93.8574 551.33 Q97.4917 551.33 99.2972 547.788 Q101.126 544.223 101.126 537.117 Q101.126 529.987 99.2972 526.446 Q97.4917 522.881 93.8574 522.881 M93.8574 519.177 Q99.6676 519.177 102.723 523.784 Q105.802 528.367 105.802 537.117 Q105.802 545.844 102.723 550.45 Q99.6676 555.033 93.8574 555.033 Q88.0473 555.033 84.9686 550.45 Q81.9131 545.844 81.9131 537.117 Q81.9131 528.367 84.9686 523.784 Q88.0473 519.177 93.8574 519.177 Z" fill="#000000" fill-rule="evenodd" fill-opacity="1" /><path clip-path="url(#clip210)" d="M114.019 548.483 L118.904 548.483 L118.904 554.362 L114.019 554.362 L114.019 548.483 Z" fill="#000000" fill-rule="evenodd" fill-opacity="1" /><path clip-path="url(#clip210)" d="M127.908 519.802 L150.13 519.802 L150.13 521.793 L137.584 554.362 L132.7 554.362 L144.505 523.737 L127.908 523.737 L127.908 519.802 Z" fill="#000000" fill-rule="evenodd" fill-opacity="1" /><path clip-path="url(#clip210)" d="M158.07 519.802 L180.292 519.802 L180.292 521.793 L167.746 554.362 L162.862 554.362 L174.667 523.737 L158.07 523.737 L158.07 519.802 Z" fill="#000000" fill-rule="evenodd" fill-opacity="1" /><path clip-path="url(#clip210)" d="M65.7326 235.456 L53.9271 253.905 L65.7326 253.905 L65.7326 235.456 M64.5057 231.382 L70.3853 231.382 L70.3853 253.905 L75.3159 253.905 L75.3159 257.794 L70.3853 257.794 L70.3853 265.942 L65.7326 265.942 L65.7326 257.794 L50.1308 257.794 L50.1308 253.28 L64.5057 231.382 Z" fill="#000000" fill-rule="evenodd" fill-opacity="1" /><path clip-path="url(#clip210)" d="M93.0473 234.461 Q89.4362 234.461 87.6075 238.026 Q85.8019 241.567 85.8019 248.697 Q85.8019 255.803 87.6075 259.368 Q89.4362 262.91 93.0473 262.91 Q96.6815 262.91 98.487 259.368 Q100.316 255.803 100.316 248.697 Q100.316 241.567 98.487 238.026 Q96.6815 234.461 93.0473 234.461 M93.0473 230.757 Q98.8574 230.757 101.913 235.364 Q104.992 239.947 104.992 248.697 Q104.992 257.424 101.913 262.03 Q98.8574 266.613 93.0473 266.613 Q87.2371 266.613 84.1584 262.03 Q81.1029 257.424 81.1029 248.697 Q81.1029 239.947 84.1584 235.364 Q87.2371 230.757 93.0473 230.757 Z" fill="#000000" fill-rule="evenodd" fill-opacity="1" /><path clip-path="url(#clip210)" d="M113.209 260.062 L118.093 260.062 L118.093 265.942 L113.209 265.942 L113.209 260.062 Z" fill="#000000" fill-rule="evenodd" fill-opacity="1" /><path clip-path="url(#clip210)" d="M127.098 231.382 L149.32 231.382 L149.32 233.373 L136.774 265.942 L131.89 265.942 L143.695 235.317 L127.098 235.317 L127.098 231.382 Z" fill="#000000" fill-rule="evenodd" fill-opacity="1" /><path clip-path="url(#clip210)" d="M168.44 249.53 Q165.107 249.53 163.186 251.313 Q161.288 253.095 161.288 256.22 Q161.288 259.345 163.186 261.127 Q165.107 262.91 168.44 262.91 Q171.774 262.91 173.695 261.127 Q175.616 259.322 175.616 256.22 Q175.616 253.095 173.695 251.313 Q171.797 249.53 168.44 249.53 M163.764 247.539 Q160.755 246.799 159.065 244.739 Q157.399 242.678 157.399 239.715 Q157.399 235.572 160.339 233.164 Q163.302 230.757 168.44 230.757 Q173.602 230.757 176.542 233.164 Q179.482 235.572 179.482 239.715 Q179.482 242.678 177.792 244.739 Q176.126 246.799 173.139 247.539 Q176.519 248.326 178.394 250.618 Q180.292 252.91 180.292 256.22 Q180.292 261.243 177.213 263.928 Q174.158 266.613 168.44 266.613 Q162.723 266.613 159.644 263.928 Q156.589 261.243 156.589 256.22 Q156.589 252.91 158.487 250.618 Q160.385 248.326 163.764 247.539 M162.052 240.155 Q162.052 242.84 163.718 244.345 Q165.408 245.85 168.44 245.85 Q171.45 245.85 173.139 244.345 Q174.852 242.84 174.852 240.155 Q174.852 237.47 173.139 235.965 Q171.45 234.461 168.44 234.461 Q165.408 234.461 163.718 235.965 Q162.052 237.47 162.052 240.155 Z" fill="#000000" fill-rule="evenodd" fill-opacity="1" /><polyline clip-path="url(#clip212)" style="stroke:#220b4c; stroke-linecap:butt; stroke-linejoin:round; stroke-width:4; stroke-opacity:1; fill:none" points="
  422.694,1800.78 399.891,1787.53 379.896,1764.99 399.891,1755 464.135,1729.21 489.53,1699.76 509.218,1729.21 579.169,1759.85 609.845,1764.99 668.809,1791.34 
  703.762,1800.78 
  "/>
<polyline clip-path="url(#clip212)" style="stroke:#6a176e; stroke-linecap:butt; stroke-linejoin:round; stroke-width:4; stroke-opacity:1; fill:none" points="
  220.612,1685.96 237.845,1657.63 285.26,1621.85 310.251,1608.36 367.945,1621.85 399.891,1627.05 403.047,1621.85 412.976,1586.06 433.958,1550.27 489.53,1530.8 
  520.755,1514.49 489.53,1481.25 487.196,1478.7 489.53,1477.67 579.169,1470.06 652.847,1442.91 668.809,1437.97 737.818,1407.13 731.147,1371.34 758.448,1345.68 
  780.303,1335.56 820.314,1299.77 848.087,1273.26 876.523,1263.98 937.727,1255.02 983.495,1263.98 951.667,1299.77 944.283,1335.56 937.727,1338.09 851.901,1371.34 
  848.161,1407.13 848.087,1408.79 845.681,1442.91 758.448,1473.37 745.1,1478.7 689.242,1514.49 668.809,1537.59 655.246,1550.27 607.541,1586.06 615.142,1621.85 
  611.529,1657.63 626.261,1693.42 668.809,1710.29 704.822,1729.21 758.448,1753.12 794.005,1764.99 848.087,1784.4 937.727,1798.43 1027.37,1786.57 1117.01,1772.17 
  1185.1,1764.99 1206.64,1761.65 1296.28,1736.39 1314.83,1729.21 1385.92,1704.86 1410.57,1693.42 1475.56,1662.91 1492.42,1657.63 1565.2,1632.33 1593,1621.85 
  1654.84,1600.51 1726.25,1586.06 1744.48,1579.95 1831.31,1550.27 1834.12,1549.45 1923.76,1529.56 1957.66,1514.49 2013.4,1484.43 2019.54,1478.7 2045.48,1442.91 
  2101.67,1407.13 2103.04,1406.1 2155.85,1371.34 2192.68,1351.5 2223.18,1335.56 2282.32,1314.1 2316.57,1299.77 2371.96,1276.89 
  "/>
<polyline clip-path="url(#clip212)" style="stroke:#ae305b; stroke-linecap:butt; stroke-linejoin:round; stroke-width:4; stroke-opacity:1; fill:none" points="
  2371.96,1192.13 2370.93,1192.41 2282.32,1209.64 2219.02,1228.2 2192.68,1237.6 2153.38,1263.98 2103.04,1287.67 2074.81,1299.77 2030.98,1335.56 2013.4,1347.37 
  1965.32,1371.34 1923.76,1393.4 1900.15,1407.13 1834.12,1432.83 1815.06,1442.91 1744.48,1473.73 1733.55,1478.7 1667.98,1514.49 1654.84,1519.66 1578.51,1550.27 
  1565.2,1555.38 1497.76,1586.06 1475.56,1594.7 1407.9,1621.85 1385.92,1630.88 1318.06,1657.63 1296.28,1667.28 1216.21,1693.42 1206.64,1696.02 1117.01,1722.41 
  1094.58,1729.21 1027.37,1749.44 937.727,1764.47 848.087,1758.74 765.94,1729.21 758.448,1724.74 696.696,1693.42 668.809,1669.46 657.574,1657.63 668.809,1635.85 
  679.711,1621.85 674.419,1586.06 745.682,1550.27 758.448,1538.48 790.572,1514.49 848.087,1480.67 851.972,1478.7 935.801,1442.91 937.727,1424.68 941.576,1407.13 
  994.394,1371.34 1027.37,1359.37 1044.19,1335.56 1068.03,1299.77 1117.01,1280.26 1129.72,1263.98 1166.17,1228.2 1198.44,1192.41 1206.64,1187.62 1283.69,1156.62 
  1296.28,1141.54 1385.92,1132.88 1460.38,1120.84 1475.56,1116.61 1505.55,1085.05 1475.56,1059.76 1441.46,1049.26 1475.56,1030.58 1494.53,1013.48 1481.33,977.691 
  1502.63,941.905 1565.2,910.989 1568.54,906.118 1606.1,870.332 1565.2,835.889 1475.56,842.845 1398.29,870.332 1385.92,873.987 1336.3,906.118 1296.28,924.002 
  1257.35,941.905 1211.97,977.691 1206.64,992.34 1187.62,1013.48 1117.43,1049.26 1141.88,1085.05 1117.01,1090.25 1027.37,1090.66 959.922,1120.84 937.727,1130.71 
  909.785,1156.62 848.087,1181.89 834.5,1192.41 780.119,1228.2 758.448,1245.53 745.369,1263.98 716.926,1299.77 668.809,1323.17 648.241,1335.56 624.68,1371.34 
  668.809,1398.24 674.922,1407.13 668.809,1409.86 579.169,1426 489.53,1432.99 399.891,1442.05 397.926,1442.91 368.873,1478.7 310.251,1487.85 220.612,1508.23 
  
  "/>
<polyline clip-path="url(#clip212)" style="stroke:#e55b30; stroke-linecap:butt; stroke-linejoin:round; stroke-width:4; stroke-opacity:1; fill:none" points="
  220.612,1366.98 258.355,1371.34 310.251,1374.67 399.891,1378.1 467.66,1371.34 489.53,1367.98 531.701,1335.56 579.169,1315.43 606.128,1299.77 649.329,1263.98 
  668.809,1235.67 674.657,1228.2 758.448,1196.63 766.426,1192.41 799.333,1156.62 848.087,1124.67 853.797,1120.84 905.852,1085.05 912.582,1049.26 910.574,1013.48 
  937.727,1009.08 1027.37,978.046 1028.28,977.691 1117.01,948.365 1132.27,941.905 1206.64,913.783 1223.27,906.118 1280.72,870.332 1296.28,835.858 1297.79,834.546 
  1378.47,798.759 1385.92,790.72 1411.12,762.973 1418.15,727.186 1419.17,691.4 1438.37,655.613 1468.09,619.827 1475.56,616.977 1543.01,584.041 1565.2,552.593 
  1571.82,548.254 1647.43,512.468 1654.84,508.658 1716.99,476.681 1740.23,440.895 1743.89,405.108 1744.48,404.83 1834.12,389.863 1869.49,369.322 1920.27,333.536 
  1923.76,329.151 1959.34,297.749 1988.74,261.963 2013.4,242.519 2043.4,226.176 2087.3,190.39 2103.04,178.664 2134.75,154.603 2192.68,127.583 2206.99,118.817 
  2237.26,83.0305 2235.8,47.2441 
  "/>
<polyline clip-path="url(#clip212)" style="stroke:#fba40a; stroke-linecap:butt; stroke-linejoin:round; stroke-width:4; stroke-opacity:1; fill:none" points="
  2110.63,47.2441 2103.04,56.335 2067.01,83.0305 2013.4,116.058 2009.38,118.817 1983.51,154.603 1925.29,190.39 1923.76,191.486 1889.47,226.176 1889.71,261.963 
  1857.47,297.749 1852.56,333.536 1834.12,344.348 1778.14,369.322 1744.48,379.07 1689.33,405.108 1690.84,440.895 1654.84,471.492 1645.73,476.681 1576.42,512.468 
  1565.2,517.556 1495.71,548.254 1477.58,584.041 1475.56,585.025 1385.92,615.062 1315.32,584.041 1296.28,582.106 1209.02,548.254 1206.64,545.486 1178.76,512.468 
  1179.46,476.681 1117.01,445.178 1084.29,440.895 1027.37,434.155 962.925,405.108 1027.37,372.651 1117.01,379.597 1206.64,369.758 1296.28,398.117 1380.08,369.322 
  1385.92,367.787 1475.56,335.188 1491.78,333.536 1475.56,332.001 1397.78,297.749 1385.92,283.136 1329,261.963 1385.92,230.123 1392.99,226.176 1461.67,190.39 
  1475.56,184.626 1565.2,164.495 1654.84,156.564 1708.73,154.603 1664.53,118.817 1654.84,112.658 1624.54,83.0305 1654.84,62.5811 1681.06,47.2441 
  "/>
<polyline clip-path="url(#clip212)" style="stroke:#f2f381; stroke-linecap:butt; stroke-linejoin:round; stroke-width:4; stroke-opacity:1; fill:none" points="
  1894.9,47.2441 1923.76,56.2231 1969.01,47.2441 
  "/>
<polyline clip-path="url(#clip212)" style="stroke:#fba40a; stroke-linecap:butt; stroke-linejoin:round; stroke-width:4; stroke-opacity:1; fill:none" points="
  1485.36,47.2441 1475.56,52.9485 1385.92,49.6036 1357.62,47.2441 
  "/>
<polyline clip-path="url(#clip212)" style="stroke:#e55b30; stroke-linecap:butt; stroke-linejoin:round; stroke-width:4; stroke-opacity:1; fill:none" points="
  1037.38,47.2441 1027.37,52.5139 937.727,53.586 900.067,83.0305 921.578,118.817 937.727,126.197 1027.37,127.461 1067.86,154.603 1117.01,165.019 1150.69,154.603 
  1195.28,118.817 1206.64,116.629 1215.86,118.817 1258.28,154.603 1206.64,176.075 1178.62,190.39 1178.01,226.176 1154.25,261.963 1150.12,297.749 1117.01,318.686 
  1027.37,321.535 937.727,330.655 930.376,333.536 857.011,369.322 848.087,381.89 828.663,405.108 758.448,434.524 726.709,440.895 758.448,469.704 765.033,476.681 
  844.836,512.468 758.448,540.173 717.962,548.254 668.809,558.085 579.169,552.117 489.53,560.087 450.261,584.041 413.743,619.827 399.891,630.029 344.164,655.613 
  310.251,674.258 286.442,691.4 297.95,727.186 277.516,762.973 220.612,781.319 
  "/>
<polyline clip-path="url(#clip212)" style="stroke:#e55b30; stroke-linecap:butt; stroke-linejoin:round; stroke-width:4; stroke-opacity:1; fill:none" points="
  220.612,862.317 277.154,834.546 291.091,798.759 310.251,787.666 399.891,780.474 489.53,786.555 512.326,798.759 579.169,834.546 530.749,870.332 527.319,906.118 
  509.689,941.905 490.658,977.691 489.53,979.567 399.891,1007.68 367.733,1013.48 310.251,1025.22 288.036,1013.48 220.612,1004.12 
  "/>
<polyline clip-path="url(#clip212)" style="stroke:#ae305b; stroke-linecap:butt; stroke-linejoin:round; stroke-width:4; stroke-opacity:1; fill:none" points="
  220.612,635.464 249.238,619.827 310.251,593.883 327.074,584.041 399.891,548.573 400.379,548.254 489.53,518.41 534.688,512.468 489.53,492.363 462.324,476.681 
  489.53,455.127 500.502,440.895 554.199,405.108 579.169,393.301 668.809,383.197 711.777,369.322 758.448,345.494 776.657,333.536 824.296,297.749 787.531,261.963 
  800.274,226.176 758.448,192.516 753.921,190.39 757.174,154.603 731.683,118.817 693.468,83.0305 758.448,60.9471 770.851,47.2441 
  "/>
<polyline clip-path="url(#clip212)" style="stroke:#f2f381; stroke-linecap:butt; stroke-linejoin:round; stroke-width:4; stroke-opacity:1; fill:none" points="
  1458.28,440.895 1474.21,405.108 1475.56,404.079 1565.2,400.392 1572.78,405.108 1588.85,440.895 1571.99,476.681 1565.2,480.206 
  "/>
<polyline clip-path="url(#clip212)" style="stroke:#f2f381; stroke-linecap:butt; stroke-linejoin:round; stroke-width:4; stroke-opacity:1; fill:none" points="
  1435.21,512.468 1385.92,521.778 1347.9,512.468 1358.22,476.681 1385.92,464.742 1458.28,440.895 
  "/>
<polyline clip-path="url(#clip212)" style="stroke:#f2f381; stroke-linecap:butt; stroke-linejoin:round; stroke-width:4; stroke-opacity:1; fill:none" points="
  2371.96,778.191 2341.31,798.759 2282.32,826.931 2251.64,834.546 2274.22,870.332 2282.32,876.058 2371.96,884.549 
  "/>
<polyline clip-path="url(#clip212)" style="stroke:#fba40a; stroke-linecap:butt; stroke-linejoin:round; stroke-width:4; stroke-opacity:1; fill:none" points="
  2371.96,994.594 2345.47,1013.48 2333.25,1049.26 2282.32,1074.67 2256.41,1085.05 2214.42,1120.84 2192.68,1130.47 2146.89,1156.62 2103.04,1173.41 2049.73,1192.41 
  2013.4,1212.31 1927.02,1228.2 1923.76,1229 1859.28,1263.98 1860.32,1299.77 1834.12,1318.11 1804.56,1335.56 1761.62,1371.34 1744.48,1379.85 1679.43,1407.13 
  1654.84,1416.89 1590.5,1442.91 1565.2,1458.4 1530.58,1478.7 1475.56,1509.9 1464.14,1514.49 1385.92,1543.89 1368.79,1550.27 1305.32,1586.06 1296.28,1589.92 
  1221.46,1621.85 1206.64,1628.11 1142.16,1657.63 1117.01,1666.96 1039,1693.42 1027.37,1697.29 937.727,1703.38 896.498,1693.42 937.727,1664.46 952.164,1657.63 
  997.125,1621.85 937.727,1596.66 923.579,1586.06 937.727,1566.66 954.101,1550.27 1027.37,1515.16 1028.62,1514.49 1102.96,1478.7 1117.01,1467.92 1165.45,1442.91 
  1206.64,1421.98 1232.19,1407.13 1262.9,1371.34 1206.64,1337.95 1205.19,1335.56 1206.64,1334.59 1273.69,1299.77 1296.28,1281.09 1318.69,1263.98 1357.95,1228.2 
  1385.92,1217.71 1475.56,1226.48 1557.18,1192.41 1565.2,1188.83 1654.84,1187.12 1729.72,1192.41 1744.48,1194.81 1753.18,1192.41 1798.1,1156.62 1834.12,1134.11 
  1851.1,1120.84 1834.12,1110.8 1754.61,1120.84 1744.48,1122.56 1738.46,1120.84 1727.9,1085.05 1744.48,1065.83 1758.7,1049.26 1793.21,1013.48 1744.48,993.071 
  1725.4,977.691 1744.48,946.544 1749.06,941.905 1750.76,906.118 1834.12,879.574 1853.18,870.332 1862.27,834.546 1890.1,798.759 1923.76,777.024 1972.85,762.973 
  2005.98,727.186 2013.4,717.334 2043.85,691.4 2098.42,655.613 2103.04,650.819 2138.63,619.827 2175.88,584.041 2192.68,574.566 2242.59,548.254 2282.32,534.8 
  2326,548.254 2371.96,571.352 
  "/>
<polyline clip-path="url(#clip212)" style="stroke:#fba40a; stroke-linecap:butt; stroke-linejoin:round; stroke-width:4; stroke-opacity:1; fill:none" points="
  2371.96,514.105 2369.31,512.468 2282.32,484.365 2260.41,476.681 2282.32,445.281 2286.67,440.895 2346.42,405.108 2358.07,369.322 2371.96,346.987 
  "/>
<polyline clip-path="url(#clip212)" style="stroke:#e55b30; stroke-linecap:butt; stroke-linejoin:round; stroke-width:4; stroke-opacity:1; fill:none" points="
  2371.96,245.446 2355.46,261.963 2316.57,297.749 2282.32,324.522 2266.9,333.536 2226.47,369.322 2218.35,405.108 2192.68,428.274 2178.07,440.895 2122.13,476.681 
  2168.67,512.468 2103.04,542.881 2095.99,548.254 2030.28,584.041 2013.4,606.751 2004.57,619.827 1979.71,655.613 1938.55,691.4 1923.76,713.51 1909.31,727.186 
  1834.12,758.356 1827.28,762.973 1802.11,798.759 1766.53,834.546 1744.48,850.772 1712.11,870.332 1654.84,905.283 1653.75,906.118 1625.3,941.905 1623.17,977.691 
  1605.7,1013.48 1630.67,1049.26 1592.39,1085.05 1566.97,1120.84 1565.2,1122.09 1499.47,1156.62 1475.56,1167.31 1385.92,1177.1 1296.28,1192.12 1295.57,1192.41 
  1252.99,1228.2 1206.64,1254.6 1195.69,1263.98 1178.62,1299.77 1124.64,1335.56 1125.46,1371.34 1117.01,1393.29 1109.47,1407.13 1038.77,1442.91 1027.37,1454.44 
  992.168,1478.7 937.727,1494.23 895.876,1514.49 848.087,1548.71 845.913,1550.27 805.948,1586.06 758.448,1613.86 749.242,1621.85 727.573,1657.63 753.101,1693.42 
  758.448,1696.13 813.968,1729.21 848.087,1741.47 937.727,1740.86 987.961,1729.21 1027.37,1720.3 1108.11,1693.42 1117.01,1690.4 1205.36,1657.63 1206.64,1657.04 
  1289.93,1621.85 1296.28,1619.14 1373.81,1586.06 1385.92,1579.9 1453.78,1550.27 1475.56,1541.94 1544.87,1514.49 1565.2,1503.13 1616.96,1478.7 1654.84,1452.91 
  1676.77,1442.91 1744.48,1416.15 1762.75,1407.13 1827.62,1371.34 1834.12,1366.67 1892.63,1335.56 1923.76,1309.13 1938.51,1299.77 1989.23,1263.98 2013.4,1257.66 
  2080.19,1228.2 2103.04,1212.94 2141.87,1192.41 2192.68,1173.73 2244.87,1156.62 2282.32,1138.53 2318.09,1120.84 2364.27,1085.05 2371.96,1079.63 
  "/>
<polyline clip-path="url(#clip212)" style="stroke:#220b4c; stroke-linecap:butt; stroke-linejoin:round; stroke-width:4; stroke-opacity:1; fill:none" points="
  2371.96,1544.05 2342.14,1550.27 2282.32,1568.89 2225.24,1550.27 2205.12,1514.49 2192.68,1509.81 2188.37,1514.49 2103.04,1547.25 2099.28,1550.27 2046.66,1586.06 
  2013.4,1608.85 1997.6,1621.85 1936.09,1657.63 1923.76,1664.57 1845.43,1693.42 1834.12,1697.33 1744.48,1726.42 1721.66,1729.21 1654.84,1743.22 1610.38,1729.21 
  1565.2,1724.22 1550.08,1729.21 1475.56,1759.49 1463.23,1764.99 1386.84,1800.78 
  "/>
<polyline clip-path="url(#clip212)" style="stroke:#220b4c; stroke-linecap:butt; stroke-linejoin:round; stroke-width:4; stroke-opacity:1; fill:none" points="
  2191.64,1586.06 2192.68,1586.6 2194.68,1586.06 2192.68,1584.79 2191.64,1586.06 
  "/>
<polyline clip-path="url(#clip212)" style="stroke:#220b4c; stroke-linecap:butt; stroke-linejoin:round; stroke-width:4; stroke-opacity:1; fill:none" points="
  2282.32,1487.54 2261.33,1478.7 2275.68,1442.91 2282.32,1438.14 2290.94,1442.91 2287.75,1478.7 2282.32,1487.54 
  "/>
<polyline clip-path="url(#clip212)" style="stroke:#6a176e; stroke-linecap:butt; stroke-linejoin:round; stroke-width:4; stroke-opacity:1; fill:none" points="
  1119.8,1192.41 1117.01,1195.69 1108.34,1192.41 1117.01,1184.79 1119.8,1192.41 
  "/>
<polyline clip-path="url(#clip212)" style="stroke:#6a176e; stroke-linecap:butt; stroke-linejoin:round; stroke-width:4; stroke-opacity:1; fill:none" points="
  1050.29,1228.2 1027.37,1240.83 1014.02,1228.2 1027.37,1218.64 1050.29,1228.2 
  "/>
<polyline clip-path="url(#clip212)" style="stroke:#fba40a; stroke-linecap:butt; stroke-linejoin:round; stroke-width:4; stroke-opacity:1; fill:none" points="
  848.087,1088.98 787.518,1120.84 758.448,1136.72 691.973,1156.62 668.809,1167.21 595.066,1192.41 579.169,1210.78 489.53,1215.96 444.57,1228.2 399.891,1239.03 
  310.251,1232.17 290.535,1228.2 310.251,1221.69 363.163,1192.41 399.891,1167.78 425.553,1156.62 399.891,1137.72 381.639,1120.84 399.891,1093.66 407.422,1085.05 
  489.53,1069.72 579.169,1069.07 668.809,1075.74 758.448,1076.54 848.087,1077.49 854.073,1085.05 848.087,1088.98 
  "/>
<polyline clip-path="url(#clip212)" style="stroke:#fba40a; stroke-linecap:butt; stroke-linejoin:round; stroke-width:4; stroke-opacity:1; fill:none" points="
  848.087,990.808 758.448,996.069 696.724,977.691 707.519,941.905 736.984,906.118 758.448,890.568 797.082,870.332 848.087,852.253 937.727,848.126 1010.15,834.546 
  968.558,798.759 970.926,762.973 1027.37,741.853 1069.03,727.186 1031.19,691.4 1027.37,687.572 937.727,684.671 848.087,664.379 758.448,668.562 722.065,655.613 
  758.448,634.795 848.087,648.438 929.649,619.827 937.727,618.111 949.139,619.827 1027.37,635.021 1117.01,633.651 1206.64,623.716 1296.28,629.274 1349.1,655.613 
  1352.77,691.4 1360.09,727.186 1344.99,762.973 1296.28,794.04 1274.6,798.759 1238.13,834.546 1229.65,870.332 1206.64,882.704 1147.52,906.118 1117.01,917.968 
  1044.21,941.905 1027.37,948.034 937.727,972.258 918.798,977.691 848.087,990.808 
  "/>
<polyline clip-path="url(#clip212)" style="stroke:#f2f381; stroke-linecap:butt; stroke-linejoin:round; stroke-width:4; stroke-opacity:1; fill:none" points="
  1296.28,747.766 1206.64,727.506 1206.59,727.186 1206.64,727.011 1269.18,691.4 1296.28,689.48 1298.2,691.4 1306.05,727.186 1296.28,747.766 
  "/>
<polyline clip-path="url(#clip212)" style="stroke:#f2f381; stroke-linecap:butt; stroke-linejoin:round; stroke-width:4; stroke-opacity:1; fill:none" points="
  1475.56,498.073 1435.21,512.468 
  "/>
<polyline clip-path="url(#clip212)" style="stroke:#fba40a; stroke-linecap:butt; stroke-linejoin:round; stroke-width:4; stroke-opacity:1; fill:none" points="
  944.162,440.895 937.727,441.242 936.778,440.895 937.727,439.324 944.162,440.895 
  "/>
<polyline clip-path="url(#clip212)" style="stroke:#f2f381; stroke-linecap:butt; stroke-linejoin:round; stroke-width:4; stroke-opacity:1; fill:none" points="
  1540.86,261.963 1565.2,277.383 1654.84,275.283 1695.04,261.963 1739.34,226.176 1654.84,211.705 1604.08,226.176 1565.2,243.991 1540.86,261.963 
  "/>
<polyline clip-path="url(#clip212)" style="stroke:#e55b30; stroke-linecap:butt; stroke-linejoin:round; stroke-width:4; stroke-opacity:1; fill:none" points="
  1030.98,190.39 1027.37,192.909 1022.69,190.39 1027.37,186.436 1030.98,190.39 
  "/>
<polyline clip-path="url(#clip212)" style="stroke:#f2f381; stroke-linecap:butt; stroke-linejoin:round; stroke-width:4; stroke-opacity:1; fill:none" points="
  2176.25,762.973 2192.68,769.219 2206.65,762.973 2192.68,756.881 2176.25,762.973 
  "/>
<polyline clip-path="url(#clip212)" style="stroke:#f2f381; stroke-linecap:butt; stroke-linejoin:round; stroke-width:4; stroke-opacity:1; fill:none" points="
  2102.18,834.546 2103.04,835.026 2106.04,834.546 2103.04,833.68 2102.18,834.546 
  "/>
<polyline clip-path="url(#clip212)" style="stroke:#6a176e; stroke-linecap:butt; stroke-linejoin:round; stroke-width:4; stroke-opacity:1; fill:none" points="
  253.395,1693.42 310.251,1699.74 318.655,1693.42 310.251,1689.91 253.395,1693.42 
  "/>
<defs>
  <clipPath id="clip213">
    <rect x="2425" y="47" width="82" height="1755"/>
  </clipPath>
</defs>
<polyline clip-path="url(#clip213)" style="stroke:#240b4e; stroke-linecap:butt; stroke-linejoin:round; stroke-width:4; stroke-opacity:1; fill:none" points="
  2425.72,1567.01 2506.36,1567.01 
  "/>
<polyline clip-path="url(#clip213)" style="stroke:#6b176e; stroke-linecap:butt; stroke-linejoin:round; stroke-width:4; stroke-opacity:1; fill:none" points="
  2425.72,1274.37 2506.36,1274.37 
  "/>
<polyline clip-path="url(#clip213)" style="stroke:#ae305b; stroke-linecap:butt; stroke-linejoin:round; stroke-width:4; stroke-opacity:1; fill:none" points="
  2425.72,981.722 2506.36,981.722 
  "/>
<polyline clip-path="url(#clip213)" style="stroke:#e65c2e; stroke-linecap:butt; stroke-linejoin:round; stroke-width:4; stroke-opacity:1; fill:none" points="
  2425.72,689.075 2506.36,689.075 
  "/>
<polyline clip-path="url(#clip213)" style="stroke:#fba40a; stroke-linecap:butt; stroke-linejoin:round; stroke-width:4; stroke-opacity:1; fill:none" points="
  2425.72,396.429 2506.36,396.429 
  "/>
<polyline clip-path="url(#clip213)" style="stroke:#f2f485; stroke-linecap:butt; stroke-linejoin:round; stroke-width:4; stroke-opacity:1; fill:none" points="
  2425.72,103.783 2506.36,103.783 
  "/>
<path clip-path="url(#clip210)" d="M2548.13 1546.1 L2566.49 1546.1 L2566.49 1550.04 L2552.42 1550.04 L2552.42 1558.51 Q2553.44 1558.16 2554.45 1558 Q2555.47 1557.82 2556.49 1557.82 Q2562.28 1557.82 2565.66 1560.99 Q2569.04 1564.16 2569.04 1569.58 Q2569.04 1575.16 2565.56 1578.26 Q2562.09 1581.34 2555.77 1581.34 Q2553.6 1581.34 2551.33 1580.97 Q2549.08 1580.6 2546.68 1579.85 L2546.68 1575.16 Q2548.76 1576.29 2550.98 1576.85 Q2553.2 1577.4 2555.68 1577.4 Q2559.69 1577.4 2562.02 1575.29 Q2564.36 1573.19 2564.36 1569.58 Q2564.36 1565.97 2562.02 1563.86 Q2559.69 1561.75 2555.68 1561.75 Q2553.81 1561.75 2551.93 1562.17 Q2550.08 1562.59 2548.13 1563.47 L2548.13 1546.1 Z" fill="#000000" fill-rule="evenodd" fill-opacity="1" /><path clip-path="url(#clip210)" d="M2588.25 1549.18 Q2584.64 1549.18 2582.81 1552.75 Q2581 1556.29 2581 1563.42 Q2581 1570.53 2582.81 1574.09 Q2584.64 1577.63 2588.25 1577.63 Q2591.88 1577.63 2593.69 1574.09 Q2595.52 1570.53 2595.52 1563.42 Q2595.52 1556.29 2593.69 1552.75 Q2591.88 1549.18 2588.25 1549.18 M2588.25 1545.48 Q2594.06 1545.48 2597.12 1550.09 Q2600.19 1554.67 2600.19 1563.42 Q2600.19 1572.15 2597.12 1576.75 Q2594.06 1581.34 2588.25 1581.34 Q2582.44 1581.34 2579.36 1576.75 Q2576.31 1572.15 2576.31 1563.42 Q2576.31 1554.67 2579.36 1550.09 Q2582.44 1545.48 2588.25 1545.48 Z" fill="#000000" fill-rule="evenodd" fill-opacity="1" /><path clip-path="url(#clip210)" d="M2546.68 1253.46 L2568.9 1253.46 L2568.9 1255.45 L2556.35 1288.02 L2551.47 1288.02 L2563.27 1257.39 L2546.68 1257.39 L2546.68 1253.46 Z" fill="#000000" fill-rule="evenodd" fill-opacity="1" /><path clip-path="url(#clip210)" d="M2578.06 1253.46 L2596.42 1253.46 L2596.42 1257.39 L2582.35 1257.39 L2582.35 1265.87 Q2583.37 1265.52 2584.38 1265.36 Q2585.4 1265.17 2586.42 1265.17 Q2592.21 1265.17 2595.59 1268.34 Q2598.97 1271.51 2598.97 1276.93 Q2598.97 1282.51 2595.5 1285.61 Q2592.02 1288.69 2585.7 1288.69 Q2583.53 1288.69 2581.26 1288.32 Q2579.01 1287.95 2576.61 1287.21 L2576.61 1282.51 Q2578.69 1283.64 2580.91 1284.2 Q2583.13 1284.75 2585.61 1284.75 Q2589.62 1284.75 2591.95 1282.65 Q2594.29 1280.54 2594.29 1276.93 Q2594.29 1273.32 2591.95 1271.21 Q2589.62 1269.11 2585.61 1269.11 Q2583.74 1269.11 2581.86 1269.52 Q2580.01 1269.94 2578.06 1270.82 L2578.06 1253.46 Z" fill="#000000" fill-rule="evenodd" fill-opacity="1" /><path clip-path="url(#clip210)" d="M2547.35 991.438 L2554.99 991.438 L2554.99 965.072 L2546.68 966.739 L2546.68 962.479 L2554.94 960.813 L2559.62 960.813 L2559.62 991.438 L2567.25 991.438 L2567.25 995.373 L2547.35 995.373 L2547.35 991.438 Z" fill="#000000" fill-rule="evenodd" fill-opacity="1" /><path clip-path="url(#clip210)" d="M2586.7 963.891 Q2583.09 963.891 2581.26 967.456 Q2579.45 970.998 2579.45 978.127 Q2579.45 985.234 2581.26 988.799 Q2583.09 992.34 2586.7 992.34 Q2590.33 992.34 2592.14 988.799 Q2593.97 985.234 2593.97 978.127 Q2593.97 970.998 2592.14 967.456 Q2590.33 963.891 2586.7 963.891 M2586.7 960.188 Q2592.51 960.188 2595.56 964.794 Q2598.64 969.377 2598.64 978.127 Q2598.64 986.854 2595.56 991.461 Q2592.51 996.044 2586.7 996.044 Q2580.89 996.044 2577.81 991.461 Q2574.75 986.854 2574.75 978.127 Q2574.75 969.377 2577.81 964.794 Q2580.89 960.188 2586.7 960.188 Z" fill="#000000" fill-rule="evenodd" fill-opacity="1" /><path clip-path="url(#clip210)" d="M2616.86 963.891 Q2613.25 963.891 2611.42 967.456 Q2609.62 970.998 2609.62 978.127 Q2609.62 985.234 2611.42 988.799 Q2613.25 992.34 2616.86 992.34 Q2620.49 992.34 2622.3 988.799 Q2624.13 985.234 2624.13 978.127 Q2624.13 970.998 2622.3 967.456 Q2620.49 963.891 2616.86 963.891 M2616.86 960.188 Q2622.67 960.188 2625.73 964.794 Q2628.81 969.377 2628.81 978.127 Q2628.81 986.854 2625.73 991.461 Q2622.67 996.044 2616.86 996.044 Q2611.05 996.044 2607.97 991.461 Q2604.92 986.854 2604.92 978.127 Q2604.92 969.377 2607.97 964.794 Q2611.05 960.188 2616.86 960.188 Z" fill="#000000" fill-rule="evenodd" fill-opacity="1" /><path clip-path="url(#clip210)" d="M2547.35 698.791 L2554.99 698.791 L2554.99 672.426 L2546.68 674.093 L2546.68 669.833 L2554.94 668.167 L2559.62 668.167 L2559.62 698.791 L2567.25 698.791 L2567.25 702.727 L2547.35 702.727 L2547.35 698.791 Z" fill="#000000" fill-rule="evenodd" fill-opacity="1" /><path clip-path="url(#clip210)" d="M2580.73 698.791 L2597.05 698.791 L2597.05 702.727 L2575.1 702.727 L2575.1 698.791 Q2577.76 696.037 2582.35 691.407 Q2586.95 686.755 2588.13 685.412 Q2590.38 682.889 2591.26 681.153 Q2592.16 679.393 2592.16 677.704 Q2592.16 674.949 2590.22 673.213 Q2588.3 671.477 2585.19 671.477 Q2583 671.477 2580.54 672.241 Q2578.11 673.005 2575.33 674.555 L2575.33 669.833 Q2578.16 668.699 2580.61 668.12 Q2583.06 667.542 2585.1 667.542 Q2590.47 667.542 2593.67 670.227 Q2596.86 672.912 2596.86 677.403 Q2596.86 679.532 2596.05 681.454 Q2595.26 683.352 2593.16 685.944 Q2592.58 686.616 2589.48 689.833 Q2586.37 693.028 2580.73 698.791 Z" fill="#000000" fill-rule="evenodd" fill-opacity="1" /><path clip-path="url(#clip210)" d="M2606.91 668.167 L2625.26 668.167 L2625.26 672.102 L2611.19 672.102 L2611.19 680.574 Q2612.21 680.227 2613.23 680.065 Q2614.24 679.88 2615.26 679.88 Q2621.05 679.88 2624.43 683.051 Q2627.81 686.222 2627.81 691.639 Q2627.81 697.217 2624.34 700.319 Q2620.87 703.398 2614.55 703.398 Q2612.37 703.398 2610.1 703.028 Q2607.86 702.657 2605.45 701.916 L2605.45 697.217 Q2607.53 698.352 2609.75 698.907 Q2611.98 699.463 2614.45 699.463 Q2618.46 699.463 2620.8 697.356 Q2623.13 695.25 2623.13 691.639 Q2623.13 688.028 2620.8 685.921 Q2618.46 683.815 2614.45 683.815 Q2612.58 683.815 2610.7 684.231 Q2608.85 684.648 2606.91 685.528 L2606.91 668.167 Z" fill="#000000" fill-rule="evenodd" fill-opacity="1" /><path clip-path="url(#clip210)" d="M2547.35 406.145 L2554.99 406.145 L2554.99 379.78 L2546.68 381.446 L2546.68 377.187 L2554.94 375.521 L2559.62 375.521 L2559.62 406.145 L2567.25 406.145 L2567.25 410.081 L2547.35 410.081 L2547.35 406.145 Z" fill="#000000" fill-rule="evenodd" fill-opacity="1" /><path clip-path="url(#clip210)" d="M2576.75 375.521 L2595.1 375.521 L2595.1 379.456 L2581.03 379.456 L2581.03 387.928 Q2582.05 387.581 2583.06 387.419 Q2584.08 387.233 2585.1 387.233 Q2590.89 387.233 2594.27 390.405 Q2597.65 393.576 2597.65 398.993 Q2597.65 404.571 2594.18 407.673 Q2590.7 410.752 2584.38 410.752 Q2582.21 410.752 2579.94 410.382 Q2577.69 410.011 2575.29 409.27 L2575.29 404.571 Q2577.37 405.706 2579.59 406.261 Q2581.81 406.817 2584.29 406.817 Q2588.3 406.817 2590.63 404.71 Q2592.97 402.604 2592.97 398.993 Q2592.97 395.382 2590.63 393.275 Q2588.3 391.169 2584.29 391.169 Q2582.42 391.169 2580.54 391.585 Q2578.69 392.002 2576.75 392.882 L2576.75 375.521 Z" fill="#000000" fill-rule="evenodd" fill-opacity="1" /><path clip-path="url(#clip210)" d="M2616.86 378.599 Q2613.25 378.599 2611.42 382.164 Q2609.62 385.706 2609.62 392.835 Q2609.62 399.942 2611.42 403.507 Q2613.25 407.048 2616.86 407.048 Q2620.49 407.048 2622.3 403.507 Q2624.13 399.942 2624.13 392.835 Q2624.13 385.706 2622.3 382.164 Q2620.49 378.599 2616.86 378.599 M2616.86 374.896 Q2622.67 374.896 2625.73 379.502 Q2628.81 384.085 2628.81 392.835 Q2628.81 401.562 2625.73 406.169 Q2622.67 410.752 2616.86 410.752 Q2611.05 410.752 2607.97 406.169 Q2604.92 401.562 2604.92 392.835 Q2604.92 384.085 2607.97 379.502 Q2611.05 374.896 2616.86 374.896 Z" fill="#000000" fill-rule="evenodd" fill-opacity="1" /><path clip-path="url(#clip210)" d="M2547.35 113.499 L2554.99 113.499 L2554.99 87.1338 L2546.68 88.8004 L2546.68 84.5412 L2554.94 82.8745 L2559.62 82.8745 L2559.62 113.499 L2567.25 113.499 L2567.25 117.435 L2547.35 117.435 L2547.35 113.499 Z" fill="#000000" fill-rule="evenodd" fill-opacity="1" /><path clip-path="url(#clip210)" d="M2575.52 82.8745 L2597.74 82.8745 L2597.74 84.8652 L2585.19 117.435 L2580.31 117.435 L2592.12 86.8097 L2575.52 86.8097 L2575.52 82.8745 Z" fill="#000000" fill-rule="evenodd" fill-opacity="1" /><path clip-path="url(#clip210)" d="M2606.91 82.8745 L2625.26 82.8745 L2625.26 86.8097 L2611.19 86.8097 L2611.19 95.2819 Q2612.21 94.9346 2613.23 94.7726 Q2614.24 94.5874 2615.26 94.5874 Q2621.05 94.5874 2624.43 97.7587 Q2627.81 100.93 2627.81 106.347 Q2627.81 111.925 2624.34 115.027 Q2620.87 118.106 2614.55 118.106 Q2612.37 118.106 2610.1 117.735 Q2607.86 117.365 2605.45 116.624 L2605.45 111.925 Q2607.53 113.06 2609.75 113.615 Q2611.98 114.171 2614.45 114.171 Q2618.46 114.171 2620.8 112.064 Q2623.13 109.958 2623.13 106.347 Q2623.13 102.736 2620.8 100.629 Q2618.46 98.5226 2614.45 98.5226 Q2612.58 98.5226 2610.7 98.9392 Q2608.85 99.3559 2606.91 100.236 L2606.91 82.8745 Z" fill="#000000" fill-rule="evenodd" fill-opacity="1" /><polyline clip-path="url(#clip210)" style="stroke:#000000; stroke-linecap:butt; stroke-linejoin:round; stroke-width:4; stroke-opacity:1; fill:none" points="
  2506.36,1800.78 2506.36,1567.01 2533.24,1567.01 2506.36,1567.01 2506.36,1274.37 2533.24,1274.37 2506.36,1274.37 2506.36,981.722 2533.24,981.722 2506.36,981.722 
  2506.36,689.075 2533.24,689.075 2506.36,689.075 2506.36,396.429 2533.24,396.429 2506.36,396.429 2506.36,103.783 2533.24,103.783 2506.36,103.783 2506.36,47.2441 
  
  "/>
</svg>
