<?xml version="1.0" encoding="utf-8"?>
<svg xmlns="http://www.w3.org/2000/svg" xmlns:xlink="http://www.w3.org/1999/xlink" width="672" height="480" viewBox="0 0 2688 1920">
<defs>
  <clipPath id="clip970">
    <rect x="0" y="0" width="2688" height="1920"/>
  </clipPath>
</defs>
<path clip-path="url(#clip970)" d="
M0 1920 L2688 1920 L2688 0 L0 0  Z
  " fill="#ffffff" fill-rule="evenodd" fill-opacity="1"/>
<defs>
  <clipPath id="clip971">
    <rect x="537" y="0" width="1883" height="1883"/>
  </clipPath>
</defs>
<path clip-path="url(#clip970)" d="
M47.2441 1872.76 L2640.76 1872.76 L2640.76 47.2441 L47.2441 47.2441  Z
  " fill="#ffffff" fill-rule="evenodd" fill-opacity="1"/>
<defs>
  <clipPath id="clip972">
    <rect x="47" y="47" width="2595" height="1827"/>
  </clipPath>
</defs>
<polyline clip-path="url(#clip972)" style="stroke:#ff0000; stroke-linecap:butt; stroke-linejoin:round; stroke-width:12; stroke-opacity:1; fill:none" points="
  2112.45,1589.49 2112.45,393.462 287.384,393.462 287.384,1589.49 
  "/>
<polyline clip-path="url(#clip972)" style="stroke:#ff0000; stroke-linecap:butt; stroke-linejoin:round; stroke-width:12; stroke-opacity:1; fill:none" points="
  287.384,1589.49 2021.19,1589.49 
  "/>
<polyline clip-path="url(#clip972)" style="stroke:#ff0000; stroke-linecap:butt; stroke-linejoin:round; stroke-width:12; stroke-opacity:1; fill:none" points="
  1980.87,1569.33 2021.19,1589.49 1980.87,1609.65 
  "/>
<polyline clip-path="url(#clip972)" style="stroke:#ff0000; stroke-linecap:butt; stroke-linejoin:round; stroke-width:12; stroke-opacity:1; fill:none" points="
  2021.19,1589.49 287.384,1589.49 
  "/>
<polyline clip-path="url(#clip972)" style="stroke:#ff0000; stroke-linecap:butt; stroke-linejoin:round; stroke-width:12; stroke-opacity:1; fill:none" points="
  1199.92,1589.49 1219.13,1589.49 
  "/>
<polyline clip-path="url(#clip972)" style="stroke:#ff0000; stroke-linecap:butt; stroke-linejoin:round; stroke-width:12; stroke-opacity:1; fill:none" points="
  1178.81,1569.33 1219.13,1589.49 1178.81,1609.65 
  "/>
<polyline clip-path="url(#clip972)" style="stroke:#ff0000; stroke-linecap:butt; stroke-linejoin:round; stroke-width:12; stroke-opacity:1; fill:none" points="
  1219.13,1589.49 1199.92,1589.49 
  "/>
<polyline clip-path="url(#clip972)" style="stroke:#ff0000; stroke-linecap:butt; stroke-linejoin:round; stroke-width:12; stroke-opacity:1; fill:none" points="
  1199.92,393.462 1180.7,393.462 
  "/>
<polyline clip-path="url(#clip972)" style="stroke:#ff0000; stroke-linecap:butt; stroke-linejoin:round; stroke-width:12; stroke-opacity:1; fill:none" points="
  1221.02,413.622 1180.7,393.462 1221.02,373.302 
  "/>
<polyline clip-path="url(#clip972)" style="stroke:#ff0000; stroke-linecap:butt; stroke-linejoin:round; stroke-width:12; stroke-opacity:1; fill:none" points="
  1180.7,393.462 1199.92,393.462 
  "/>
<polyline clip-path="url(#clip972)" style="stroke:#ff0000; stroke-linecap:butt; stroke-linejoin:round; stroke-width:12; stroke-opacity:1; fill:none" points="
  2112.45,991.474 2112.45,978.885 
  "/>
<polyline clip-path="url(#clip972)" style="stroke:#ff0000; stroke-linecap:butt; stroke-linejoin:round; stroke-width:12; stroke-opacity:1; fill:none" points="
  2092.29,1019.2 2112.45,978.885 2132.61,1019.2 
  "/>
<polyline clip-path="url(#clip972)" style="stroke:#ff0000; stroke-linecap:butt; stroke-linejoin:round; stroke-width:12; stroke-opacity:1; fill:none" points="
  2112.45,978.885 2112.45,991.474 
  "/>
<polyline clip-path="url(#clip972)" style="stroke:#ff0000; stroke-linecap:butt; stroke-linejoin:round; stroke-width:12; stroke-opacity:1; fill:none" points="
  287.384,991.474 287.384,1004.06 
  "/>
<polyline clip-path="url(#clip972)" style="stroke:#ff0000; stroke-linecap:butt; stroke-linejoin:round; stroke-width:12; stroke-opacity:1; fill:none" points="
  307.544,963.744 287.384,1004.06 267.224,963.744 
  "/>
<polyline clip-path="url(#clip972)" style="stroke:#ff0000; stroke-linecap:butt; stroke-linejoin:round; stroke-width:12; stroke-opacity:1; fill:none" points="
  287.384,1004.06 287.384,991.474 
  "/>
<path clip-path="url(#clip970)" d="M239.356 969.296 L228.257 999.394 L250.496 999.394 L239.356 969.296 M234.738 961.234 L244.015 961.234 L267.064 1021.71 L258.557 1021.71 L253.048 1006.2 L225.786 1006.2 L220.276 1021.71 L211.648 1021.71 L234.738 961.234 Z" fill="#000000" fill-rule="evenodd" fill-opacity="1" /><path clip-path="url(#clip970)" d="M1186.65 1496.42 L1186.65 1518.58 L1199.77 1518.58 Q1206.38 1518.58 1209.54 1515.87 Q1212.74 1513.11 1212.74 1507.48 Q1212.74 1501.81 1209.54 1499.13 Q1206.38 1496.42 1199.77 1496.42 L1186.65 1496.42 M1186.65 1471.55 L1186.65 1489.78 L1198.76 1489.78 Q1204.76 1489.78 1207.67 1487.55 Q1210.63 1485.28 1210.63 1480.66 Q1210.63 1476.09 1207.67 1473.82 Q1204.76 1471.55 1198.76 1471.55 L1186.65 1471.55 M1178.47 1464.82 L1199.37 1464.82 Q1208.73 1464.82 1213.79 1468.71 Q1218.85 1472.6 1218.85 1479.77 Q1218.85 1485.32 1216.26 1488.6 Q1213.67 1491.88 1208.65 1492.69 Q1214.68 1493.99 1218 1498.12 Q1221.37 1502.21 1221.37 1508.37 Q1221.37 1516.47 1215.86 1520.89 Q1210.35 1525.3 1200.18 1525.3 L1178.47 1525.3 L1178.47 1464.82 Z" fill="#000000" fill-rule="evenodd" fill-opacity="1" /><path clip-path="url(#clip970)" d="M2040.78 965.893 L2040.78 974.521 Q2036.65 970.673 2031.95 968.769 Q2027.29 966.865 2022.02 966.865 Q2011.65 966.865 2006.14 973.225 Q2000.63 979.544 2000.63 991.535 Q2000.63 1003.49 2006.14 1009.85 Q2011.65 1016.16 2022.02 1016.16 Q2027.29 1016.16 2031.95 1014.26 Q2036.65 1012.36 2040.78 1008.51 L2040.78 1017.06 Q2036.48 1019.97 2031.66 1021.43 Q2026.88 1022.89 2021.54 1022.89 Q2007.8 1022.89 1999.9 1014.5 Q1992.01 1006.08 1992.01 991.535 Q1992.01 976.952 1999.9 968.566 Q2007.8 960.141 2021.54 960.141 Q2026.96 960.141 2031.74 961.599 Q2036.57 963.017 2040.78 965.893 Z" fill="#000000" fill-rule="evenodd" fill-opacity="1" /><path clip-path="url(#clip970)" d="M1182.68 464.369 L1182.68 511.4 L1192.56 511.4 Q1205.08 511.4 1210.87 505.729 Q1216.71 500.058 1216.71 487.824 Q1216.71 475.671 1210.87 470.041 Q1205.08 464.369 1192.56 464.369 L1182.68 464.369 M1174.5 457.645 L1191.31 457.645 Q1208.89 457.645 1217.11 464.977 Q1225.34 472.269 1225.34 487.824 Q1225.34 503.461 1217.07 510.793 Q1208.81 518.125 1191.31 518.125 L1174.5 518.125 L1174.5 457.645 Z" fill="#000000" fill-rule="evenodd" fill-opacity="1" /><path clip-path="url(#clip970)" d="M1976.14 273.457 L1976.14 282.086 Q1972.01 278.237 1967.31 276.334 Q1962.65 274.43 1957.39 274.43 Q1947.02 274.43 1941.51 280.79 Q1936 287.109 1936 299.1 Q1936 311.05 1941.51 317.41 Q1947.02 323.729 1957.39 323.729 Q1962.65 323.729 1967.31 321.825 Q1972.01 319.921 1976.14 316.073 L1976.14 324.62 Q1971.85 327.537 1967.03 328.995 Q1962.25 330.454 1956.9 330.454 Q1943.17 330.454 1935.27 322.068 Q1927.37 313.642 1927.37 299.1 Q1927.37 284.516 1935.27 276.131 Q1943.17 267.705 1956.9 267.705 Q1962.33 267.705 1967.11 269.163 Q1971.93 270.581 1976.14 273.457 Z" fill="#000000" fill-rule="evenodd" fill-opacity="1" /><path clip-path="url(#clip970)" d="M1986.96 324.823 L1995.22 324.823 L1995.22 300.072 L1986.19 301.733 L1986.19 297.034 L1995.51 295.454 L2001.05 295.454 L2001.05 324.823 L2009.36 324.823 L2009.36 329.279 L1986.96 329.279 L1986.96 324.823 Z" fill="#000000" fill-rule="evenodd" fill-opacity="1" /><path clip-path="url(#clip970)" d="M370.894 961.169 L370.176 962.345 Q365.729 960.423 360.191 957.353 Q354.654 960.423 350.206 962.345 L349.518 961.169 Q354.367 956.951 360.191 953.709 Q366.073 956.98 370.894 961.169 Z" fill="#000000" fill-rule="evenodd" fill-opacity="1" /><path clip-path="url(#clip970)" d="M383.499 971.994 Q383.499 972.773 383.335 973.428 L381.04 988.021 Q380.917 989.127 380.671 989.537 Q380.466 989.947 379.81 989.947 Q378.786 989.947 378.786 988.881 Q378.786 988.267 379.031 987.283 Q379.728 982.651 379.728 980.561 Q379.728 979.167 379.441 978.142 Q379.195 977.077 378.786 976.339 Q378.417 975.601 377.556 975.109 Q376.695 974.617 375.875 974.33 Q375.055 974.043 373.58 973.92 Q372.104 973.756 370.834 973.715 Q369.563 973.674 367.472 973.674 Q362.923 973.674 362.185 973.838 Q361.406 974.043 360.996 974.658 Q360.627 975.232 360.217 976.954 L349.068 1021.51 L348.74 1023.27 Q348.74 1024.26 349.355 1024.58 Q349.97 1024.91 351.856 1025.12 Q354.561 1025.32 357.225 1025.32 Q357.307 1025.32 357.471 1025.32 Q358.373 1025.32 358.742 1025.36 Q359.111 1025.36 359.48 1025.44 Q359.848 1025.53 359.93 1025.73 Q360.053 1025.89 360.053 1026.22 Q360.053 1027 359.726 1027.41 Q359.398 1027.78 359.07 1027.86 Q358.783 1027.9 358.209 1027.9 Q357.061 1027.9 354.602 1027.82 Q352.142 1027.74 350.913 1027.74 L343.945 1027.66 L336.812 1027.74 Q335.706 1027.74 333.369 1027.82 Q331.033 1027.9 329.926 1027.9 Q328.492 1027.9 328.492 1026.88 Q328.492 1025.73 329.025 1025.53 Q329.598 1025.32 332.017 1025.32 Q335.419 1025.32 337.263 1025.16 Q339.108 1024.99 340.092 1024.42 Q341.116 1023.85 341.403 1023.27 Q341.69 1022.66 342.018 1021.26 L353.29 976.462 Q353.618 975.478 353.618 974.699 Q353.618 974.289 353.495 974.125 Q353.413 973.961 352.88 973.838 Q352.347 973.674 351.241 973.674 L347.962 973.674 Q344.6 973.674 342.51 973.838 Q340.461 973.961 338.493 974.576 Q336.567 975.191 335.419 976.052 Q334.312 976.913 333.082 978.675 Q331.853 980.438 330.951 982.569 Q330.09 984.701 328.861 988.185 Q328.451 989.332 328.205 989.66 Q328 989.947 327.426 989.947 Q327.016 989.947 326.688 989.701 Q326.401 989.414 326.401 989.045 Q326.811 987.693 326.893 987.529 L331.935 972.732 Q332.345 971.543 332.714 971.338 Q333.123 971.092 334.64 971.092 L381.204 971.092 Q381.942 971.092 382.188 971.092 Q382.434 971.092 382.843 971.174 Q383.253 971.256 383.376 971.461 Q383.499 971.666 383.499 971.994 Z" fill="#000000" fill-rule="evenodd" fill-opacity="1" /><path clip-path="url(#clip970)" d="M406.233 1015.16 Q406.315 1014.13 407.913 1014.13 L459.355 1014.13 Q461.773 1014.13 461.814 1015.07 Q461.814 1016.1 459.519 1016.06 L408.487 1016.06 Q406.233 1016.1 406.233 1015.16 M406.233 998.76 Q406.233 997.735 407.995 997.776 L459.273 997.776 Q461.773 997.776 461.814 998.76 Q461.814 999.703 459.683 999.703 L407.913 999.703 Q406.233 999.703 406.233 998.76 Z" fill="#000000" fill-rule="evenodd" fill-opacity="1" /><path clip-path="url(#clip970)" d="M531.965 962.464 L531.248 963.64 Q526.801 961.718 521.263 958.648 Q515.725 961.718 511.278 963.64 L510.589 962.464 Q515.438 958.246 521.263 955.004 Q527.145 958.275 531.965 962.464 Z" fill="#000000" fill-rule="evenodd" fill-opacity="1" /><path clip-path="url(#clip970)" d="M525.71 975.437 Q525.71 977.24 524.235 978.593 Q522.8 979.905 521.242 979.905 Q519.808 979.905 518.906 979.044 Q518.045 978.142 518.045 976.872 Q518.045 975.191 519.48 973.797 Q520.914 972.404 522.595 972.404 Q523.989 972.404 524.849 973.265 Q525.71 974.125 525.71 975.437 M526.448 1015.89 Q526.448 1016.22 526.079 1017.53 Q525.71 1018.8 524.808 1020.77 Q523.948 1022.7 522.759 1024.5 Q521.57 1026.3 519.603 1027.58 Q517.676 1028.85 515.463 1028.85 Q512.471 1028.85 510.503 1026.88 Q508.577 1024.91 508.577 1021.96 Q508.577 1020.36 510.503 1015.24 Q516.078 1000.32 516.283 999.703 Q517.225 997.366 517.225 995.317 Q517.225 994.374 517.02 993.8 Q516.816 993.185 516.406 992.98 Q515.996 992.734 515.75 992.693 Q515.545 992.652 515.135 992.652 Q512.717 992.652 510.462 995.112 Q508.208 997.571 506.65 1003.06 Q506.322 1004.09 506.117 1004.33 Q505.912 1004.58 505.298 1004.58 Q504.273 1004.54 504.273 1003.72 Q504.273 1003.47 504.56 1002.53 Q504.847 1001.55 505.379 1000.07 Q505.912 998.555 506.855 996.997 Q507.798 995.399 508.946 994.005 Q510.134 992.611 511.815 991.71 Q513.495 990.808 515.381 990.808 Q518.455 990.808 520.341 992.816 Q522.267 994.784 522.267 997.694 Q522.267 999.293 521.16 1002.12 Q519.808 1005.81 519.316 1007 L516.037 1015.81 Q514.848 1019.01 514.479 1019.99 Q514.151 1020.94 513.864 1022.08 Q513.618 1023.19 513.618 1024.21 Q513.618 1025.65 514.069 1026.3 Q514.561 1026.96 515.627 1026.96 Q518.578 1026.96 520.75 1024.05 Q522.923 1021.1 524.194 1016.59 Q524.235 1016.47 524.276 1016.26 Q524.603 1015.24 524.931 1015.11 Q525.095 1015.07 525.423 1015.07 Q526.448 1015.07 526.448 1015.89 Z" fill="#000000" fill-rule="evenodd" fill-opacity="1" /><path clip-path="url(#clip970)" d="M2236.39 961.169 L2235.67 962.345 Q2231.22 960.423 2225.69 957.353 Q2220.15 960.423 2215.7 962.345 L2215.01 961.169 Q2219.86 956.951 2225.69 953.709 Q2231.57 956.98 2236.39 961.169 Z" fill="#000000" fill-rule="evenodd" fill-opacity="1" /><path clip-path="url(#clip970)" d="M2248.99 971.994 Q2248.99 972.773 2248.83 973.428 L2246.54 988.021 Q2246.41 989.127 2246.17 989.537 Q2245.96 989.947 2245.31 989.947 Q2244.28 989.947 2244.28 988.881 Q2244.28 988.267 2244.53 987.283 Q2245.22 982.651 2245.22 980.561 Q2245.22 979.167 2244.94 978.142 Q2244.69 977.077 2244.28 976.339 Q2243.91 975.601 2243.05 975.109 Q2242.19 974.617 2241.37 974.33 Q2240.55 974.043 2239.08 973.92 Q2237.6 973.756 2236.33 973.715 Q2235.06 973.674 2232.97 973.674 Q2228.42 973.674 2227.68 973.838 Q2226.9 974.043 2226.49 974.658 Q2226.12 975.232 2225.71 976.954 L2214.56 1021.51 L2214.24 1023.27 Q2214.24 1024.26 2214.85 1024.58 Q2215.47 1024.91 2217.35 1025.12 Q2220.06 1025.32 2222.72 1025.32 Q2222.8 1025.32 2222.97 1025.32 Q2223.87 1025.32 2224.24 1025.36 Q2224.61 1025.36 2224.97 1025.44 Q2225.34 1025.53 2225.43 1025.73 Q2225.55 1025.89 2225.55 1026.22 Q2225.55 1027 2225.22 1027.41 Q2224.89 1027.78 2224.57 1027.86 Q2224.28 1027.9 2223.7 1027.9 Q2222.56 1027.9 2220.1 1027.82 Q2217.64 1027.74 2216.41 1027.74 L2209.44 1027.66 L2202.31 1027.74 Q2201.2 1027.74 2198.86 1027.82 Q2196.53 1027.9 2195.42 1027.9 Q2193.99 1027.9 2193.99 1026.88 Q2193.99 1025.73 2194.52 1025.53 Q2195.09 1025.32 2197.51 1025.32 Q2200.91 1025.32 2202.76 1025.16 Q2204.6 1024.99 2205.59 1024.42 Q2206.61 1023.85 2206.9 1023.27 Q2207.19 1022.66 2207.51 1021.26 L2218.79 976.462 Q2219.11 975.478 2219.11 974.699 Q2219.11 974.289 2218.99 974.125 Q2218.91 973.961 2218.38 973.838 Q2217.84 973.674 2216.74 973.674 L2213.46 973.674 Q2210.1 973.674 2208.01 973.838 Q2205.96 973.961 2203.99 974.576 Q2202.06 975.191 2200.91 976.052 Q2199.81 976.913 2198.58 978.675 Q2197.35 980.438 2196.45 982.569 Q2195.59 984.701 2194.36 988.185 Q2193.95 989.332 2193.7 989.66 Q2193.5 989.947 2192.92 989.947 Q2192.51 989.947 2192.18 989.701 Q2191.9 989.414 2191.9 989.045 Q2192.31 987.693 2192.39 987.529 L2197.43 972.732 Q2197.84 971.543 2198.21 971.338 Q2198.62 971.092 2200.14 971.092 L2246.7 971.092 Q2247.44 971.092 2247.68 971.092 Q2247.93 971.092 2248.34 971.174 Q2248.75 971.256 2248.87 971.461 Q2248.99 971.666 2248.99 971.994 Z" fill="#000000" fill-rule="evenodd" fill-opacity="1" /><path clip-path="url(#clip970)" d="M2271.73 1015.16 Q2271.81 1014.13 2273.41 1014.13 L2324.85 1014.13 Q2327.27 1014.13 2327.31 1015.07 Q2327.31 1016.1 2325.01 1016.06 L2273.98 1016.06 Q2271.73 1016.1 2271.73 1015.16 M2271.73 998.76 Q2271.73 997.735 2273.49 997.776 L2324.77 997.776 Q2327.27 997.776 2327.31 998.76 Q2327.31 999.703 2325.18 999.703 L2273.41 999.703 Q2271.73 999.703 2271.73 998.76 Z" fill="#000000" fill-rule="evenodd" fill-opacity="1" /><path clip-path="url(#clip970)" d="M2438.39 1005.73 Q2438.89 1006.22 2438.89 1006.92 Q2438.89 1007.61 2438.39 1008.11 Q2437.9 1008.6 2437.21 1008.6 L2384.66 1008.6 Q2383.96 1008.6 2383.47 1008.11 Q2382.98 1007.61 2382.98 1006.92 Q2382.98 1006.22 2383.47 1005.73 Q2383.96 1005.24 2384.66 1005.24 L2437.21 1005.24 Q2437.9 1005.24 2438.39 1005.73 Z" fill="#000000" fill-rule="evenodd" fill-opacity="1" /><path clip-path="url(#clip970)" d="M2508.71 962.464 L2507.99 963.64 Q2503.55 961.718 2498.01 958.648 Q2492.47 961.718 2488.02 963.64 L2487.33 962.464 Q2492.18 958.246 2498.01 955.004 Q2503.89 958.275 2508.71 962.464 Z" fill="#000000" fill-rule="evenodd" fill-opacity="1" /><path clip-path="url(#clip970)" d="M2502.45 975.437 Q2502.45 977.24 2500.98 978.593 Q2499.54 979.905 2497.99 979.905 Q2496.55 979.905 2495.65 979.044 Q2494.79 978.142 2494.79 976.872 Q2494.79 975.191 2496.22 973.797 Q2497.66 972.404 2499.34 972.404 Q2500.73 972.404 2501.59 973.265 Q2502.45 974.125 2502.45 975.437 M2503.19 1015.89 Q2503.19 1016.22 2502.82 1017.53 Q2502.45 1018.8 2501.55 1020.77 Q2500.69 1022.7 2499.5 1024.5 Q2498.31 1026.3 2496.35 1027.58 Q2494.42 1028.85 2492.21 1028.85 Q2489.22 1028.85 2487.25 1026.88 Q2485.32 1024.91 2485.32 1021.96 Q2485.32 1020.36 2487.25 1015.24 Q2492.82 1000.32 2493.03 999.703 Q2493.97 997.366 2493.97 995.317 Q2493.97 994.374 2493.76 993.8 Q2493.56 993.185 2493.15 992.98 Q2492.74 992.734 2492.49 992.693 Q2492.29 992.652 2491.88 992.652 Q2489.46 992.652 2487.21 995.112 Q2484.95 997.571 2483.39 1003.06 Q2483.07 1004.09 2482.86 1004.33 Q2482.66 1004.58 2482.04 1004.58 Q2481.02 1004.54 2481.02 1003.72 Q2481.02 1003.47 2481.3 1002.53 Q2481.59 1001.55 2482.12 1000.07 Q2482.66 998.555 2483.6 996.997 Q2484.54 995.399 2485.69 994.005 Q2486.88 992.611 2488.56 991.71 Q2490.24 990.808 2492.13 990.808 Q2495.2 990.808 2497.08 992.816 Q2499.01 994.784 2499.01 997.694 Q2499.01 999.293 2497.9 1002.12 Q2496.55 1005.81 2496.06 1007 L2492.78 1015.81 Q2491.59 1019.01 2491.22 1019.99 Q2490.9 1020.94 2490.61 1022.08 Q2490.36 1023.19 2490.36 1024.21 Q2490.36 1025.65 2490.81 1026.3 Q2491.31 1026.96 2492.37 1026.96 Q2495.32 1026.96 2497.49 1024.05 Q2499.67 1021.1 2500.94 1016.59 Q2500.98 1016.47 2501.02 1016.26 Q2501.35 1015.24 2501.68 1015.11 Q2501.84 1015.07 2502.17 1015.07 Q2503.19 1015.07 2503.19 1015.89 Z" fill="#000000" fill-rule="evenodd" fill-opacity="1" /><path clip-path="url(#clip970)" d="M1139.34 1677.02 L1138.62 1678.2 Q1134.18 1676.27 1128.64 1673.2 Q1123.1 1676.27 1118.65 1678.2 L1117.97 1677.02 Q1122.81 1672.8 1128.64 1669.56 Q1134.52 1672.83 1139.34 1677.02 Z" fill="#000000" fill-rule="evenodd" fill-opacity="1" /><path clip-path="url(#clip970)" d="M1151.95 1687.84 Q1151.95 1688.62 1151.78 1689.28 L1149.49 1703.87 Q1149.36 1704.98 1149.12 1705.39 Q1148.91 1705.8 1148.26 1705.8 Q1147.23 1705.8 1147.23 1704.73 Q1147.23 1704.12 1147.48 1703.13 Q1148.18 1698.5 1148.18 1696.41 Q1148.18 1695.02 1147.89 1693.99 Q1147.64 1692.93 1147.23 1692.19 Q1146.86 1691.45 1146 1690.96 Q1145.14 1690.47 1144.32 1690.18 Q1143.5 1689.89 1142.03 1689.77 Q1140.55 1689.61 1139.28 1689.57 Q1138.01 1689.53 1135.92 1689.53 Q1131.37 1689.53 1130.63 1689.69 Q1129.85 1689.89 1129.44 1690.51 Q1129.08 1691.08 1128.67 1692.8 L1117.52 1737.36 L1117.19 1739.12 Q1117.19 1740.11 1117.8 1740.43 Q1118.42 1740.76 1120.3 1740.97 Q1123.01 1741.17 1125.67 1741.17 Q1125.76 1741.17 1125.92 1741.17 Q1126.82 1741.17 1127.19 1741.21 Q1127.56 1741.21 1127.93 1741.29 Q1128.3 1741.38 1128.38 1741.58 Q1128.5 1741.75 1128.5 1742.07 Q1128.5 1742.85 1128.17 1743.26 Q1127.85 1743.63 1127.52 1743.71 Q1127.23 1743.75 1126.66 1743.75 Q1125.51 1743.75 1123.05 1743.67 Q1120.59 1743.59 1119.36 1743.59 L1112.39 1743.51 L1105.26 1743.59 Q1104.15 1743.59 1101.82 1743.67 Q1099.48 1743.75 1098.37 1743.75 Q1096.94 1743.75 1096.94 1742.73 Q1096.94 1741.58 1097.47 1741.38 Q1098.05 1741.17 1100.46 1741.17 Q1103.87 1741.17 1105.71 1741.01 Q1107.56 1740.84 1108.54 1740.27 Q1109.56 1739.7 1109.85 1739.12 Q1110.14 1738.51 1110.47 1737.11 L1121.74 1692.31 Q1122.07 1691.33 1122.07 1690.55 Q1122.07 1690.14 1121.94 1689.98 Q1121.86 1689.81 1121.33 1689.69 Q1120.8 1689.53 1119.69 1689.53 L1116.41 1689.53 Q1113.05 1689.53 1110.96 1689.69 Q1108.91 1689.81 1106.94 1690.43 Q1105.01 1691.04 1103.87 1691.9 Q1102.76 1692.76 1101.53 1694.53 Q1100.3 1696.29 1099.4 1698.42 Q1098.54 1700.55 1097.31 1704.04 Q1096.9 1705.18 1096.65 1705.51 Q1096.45 1705.8 1095.87 1705.8 Q1095.46 1705.8 1095.14 1705.55 Q1094.85 1705.27 1094.85 1704.9 Q1095.26 1703.54 1095.34 1703.38 L1100.38 1688.58 Q1100.79 1687.39 1101.16 1687.19 Q1101.57 1686.94 1103.09 1686.94 L1149.65 1686.94 Q1150.39 1686.94 1150.64 1686.94 Q1150.88 1686.94 1151.29 1687.03 Q1151.7 1687.11 1151.82 1687.31 Q1151.95 1687.52 1151.95 1687.84 Z" fill="#000000" fill-rule="evenodd" fill-opacity="1" /><path clip-path="url(#clip970)" d="M1174.68 1731.01 Q1174.76 1729.98 1176.36 1729.98 L1227.8 1729.98 Q1230.22 1729.98 1230.26 1730.92 Q1230.26 1731.95 1227.97 1731.91 L1176.94 1731.91 Q1174.68 1731.95 1174.68 1731.01 M1174.68 1714.61 Q1174.68 1713.59 1176.44 1713.63 L1227.72 1713.63 Q1230.22 1713.63 1230.26 1714.61 Q1230.26 1715.55 1228.13 1715.55 L1176.36 1715.55 Q1174.68 1715.55 1174.68 1714.61 Z" fill="#000000" fill-rule="evenodd" fill-opacity="1" /><path clip-path="url(#clip970)" d="M1300.41 1678.32 L1299.7 1679.49 Q1295.25 1677.57 1289.71 1674.5 Q1284.17 1677.57 1279.73 1679.49 L1279.04 1678.32 Q1283.89 1674.1 1289.71 1670.86 Q1295.59 1674.13 1300.41 1678.32 Z" fill="#000000" fill-rule="evenodd" fill-opacity="1" /><path clip-path="url(#clip970)" d="M1301.55 1691.29 Q1301.55 1692.97 1300.12 1694.36 Q1298.68 1695.76 1297 1695.76 Q1295.61 1695.76 1294.75 1694.9 Q1293.93 1694.03 1293.93 1692.72 Q1293.93 1690.92 1295.36 1689.61 Q1296.8 1688.25 1298.35 1688.25 Q1299.79 1688.25 1300.65 1689.16 Q1301.55 1690.02 1301.55 1691.29 M1298.44 1714.37 Q1298.44 1715.8 1298.03 1717.48 L1290.32 1748.22 Q1289.58 1751.21 1287.82 1753.67 Q1286.06 1756.17 1283.8 1757.73 Q1281.59 1759.29 1279.17 1760.11 Q1276.79 1760.97 1274.54 1760.97 Q1271.38 1760.97 1269.25 1759.58 Q1267.12 1758.18 1267.12 1755.76 Q1267.12 1753.63 1268.51 1752.28 Q1269.95 1750.97 1271.67 1750.97 Q1273.23 1750.97 1274.05 1751.87 Q1274.87 1752.77 1274.87 1753.92 Q1274.87 1755.31 1273.84 1756.62 Q1272.86 1757.94 1271.1 1758.35 Q1272.7 1759.13 1274.38 1759.13 Q1277.82 1759.13 1280.61 1755.97 Q1283.43 1752.85 1284.66 1747.94 L1292.58 1716.62 Q1293.15 1714.12 1293.15 1712.36 Q1293.15 1710.72 1292.7 1709.82 Q1292.25 1708.91 1291.71 1708.71 Q1291.22 1708.5 1290.48 1708.5 Q1287.25 1708.5 1284.46 1711.5 Q1281.67 1714.45 1279.91 1718.75 Q1279.42 1719.94 1279.17 1720.19 Q1278.97 1720.43 1278.39 1720.43 Q1277.37 1720.39 1277.37 1719.57 Q1277.37 1719.32 1277.78 1718.34 Q1278.19 1717.36 1278.93 1715.92 Q1279.66 1714.45 1280.85 1712.85 Q1282.04 1711.25 1283.43 1709.86 Q1284.87 1708.46 1286.8 1707.56 Q1288.72 1706.66 1290.73 1706.66 Q1293.97 1706.66 1296.18 1708.79 Q1298.44 1710.88 1298.44 1714.37 Z" fill="#000000" fill-rule="evenodd" fill-opacity="1" /><path clip-path="url(#clip970)" d="M1083.72 229.2 L1083 230.377 Q1078.55 228.454 1073.01 225.384 Q1067.48 228.454 1063.03 230.377 L1062.34 229.2 Q1067.19 224.983 1073.01 221.74 Q1078.9 225.011 1083.72 229.2 Z" fill="#000000" fill-rule="evenodd" fill-opacity="1" /><path clip-path="url(#clip970)" d="M1096.32 240.025 Q1096.32 240.804 1096.16 241.46 L1093.86 256.052 Q1093.74 257.159 1093.49 257.569 Q1093.29 257.979 1092.63 257.979 Q1091.61 257.979 1091.61 256.913 Q1091.61 256.298 1091.85 255.314 Q1092.55 250.682 1092.55 248.592 Q1092.55 247.198 1092.26 246.174 Q1092.02 245.108 1091.61 244.37 Q1091.24 243.632 1090.38 243.14 Q1089.52 242.649 1088.7 242.362 Q1087.88 242.075 1086.4 241.952 Q1084.93 241.788 1083.66 241.747 Q1082.39 241.706 1080.3 241.706 Q1075.75 241.706 1075.01 241.87 Q1074.23 242.075 1073.82 242.69 Q1073.45 243.263 1073.04 244.985 L1061.89 289.54 L1061.56 291.303 Q1061.56 292.287 1062.18 292.614 Q1062.79 292.942 1064.68 293.147 Q1067.38 293.352 1070.05 293.352 Q1070.13 293.352 1070.29 293.352 Q1071.2 293.352 1071.57 293.393 Q1071.93 293.393 1072.3 293.475 Q1072.67 293.557 1072.75 293.762 Q1072.88 293.926 1072.88 294.254 Q1072.88 295.033 1072.55 295.443 Q1072.22 295.812 1071.89 295.894 Q1071.61 295.935 1071.03 295.935 Q1069.88 295.935 1067.43 295.853 Q1064.97 295.771 1063.74 295.771 L1056.77 295.689 L1049.64 295.771 Q1048.53 295.771 1046.19 295.853 Q1043.86 295.935 1042.75 295.935 Q1041.32 295.935 1041.32 294.91 Q1041.32 293.762 1041.85 293.557 Q1042.42 293.352 1044.84 293.352 Q1048.24 293.352 1050.09 293.188 Q1051.93 293.024 1052.92 292.451 Q1053.94 291.877 1054.23 291.303 Q1054.51 290.688 1054.84 289.294 L1066.11 244.493 Q1066.44 243.509 1066.44 242.731 Q1066.44 242.321 1066.32 242.157 Q1066.24 241.993 1065.7 241.87 Q1065.17 241.706 1064.06 241.706 L1060.78 241.706 Q1057.42 241.706 1055.33 241.87 Q1053.28 241.993 1051.32 242.608 Q1049.39 243.222 1048.24 244.083 Q1047.14 244.944 1045.91 246.706 Q1044.68 248.469 1043.77 250.6 Q1042.91 252.732 1041.68 256.216 Q1041.27 257.364 1041.03 257.692 Q1040.82 257.979 1040.25 257.979 Q1039.84 257.979 1039.51 257.733 Q1039.22 257.446 1039.22 257.077 Q1039.63 255.724 1039.72 255.56 L1044.76 240.763 Q1045.17 239.574 1045.54 239.369 Q1045.95 239.123 1047.46 239.123 L1094.03 239.123 Q1094.77 239.123 1095.01 239.123 Q1095.26 239.123 1095.67 239.205 Q1096.08 239.287 1096.2 239.492 Q1096.32 239.697 1096.32 240.025 Z" fill="#000000" fill-rule="evenodd" fill-opacity="1" /><path clip-path="url(#clip970)" d="M1119.06 283.187 Q1119.14 282.162 1120.74 282.162 L1172.18 282.162 Q1174.6 282.162 1174.64 283.105 Q1174.64 284.13 1172.34 284.089 L1121.31 284.089 Q1119.06 284.13 1119.06 283.187 M1119.06 266.791 Q1119.06 265.767 1120.82 265.807 L1172.1 265.807 Q1174.6 265.807 1174.64 266.791 Q1174.64 267.734 1172.51 267.734 L1120.74 267.734 Q1119.06 267.734 1119.06 266.791 Z" fill="#000000" fill-rule="evenodd" fill-opacity="1" /><path clip-path="url(#clip970)" d="M1285.72 273.759 Q1286.21 274.251 1286.21 274.948 Q1286.21 275.645 1285.72 276.137 Q1285.23 276.629 1284.53 276.629 L1231.99 276.629 Q1231.29 276.629 1230.8 276.137 Q1230.31 275.645 1230.31 274.948 Q1230.31 274.251 1230.8 273.759 Q1231.29 273.268 1231.99 273.268 L1284.53 273.268 Q1285.23 273.268 1285.72 273.759 Z" fill="#000000" fill-rule="evenodd" fill-opacity="1" /><path clip-path="url(#clip970)" d="M1356.04 230.495 L1355.32 231.672 Q1350.87 229.749 1345.34 226.679 Q1339.8 229.749 1335.35 231.672 L1334.66 230.495 Q1339.51 226.278 1345.34 223.035 Q1351.22 226.306 1356.04 230.495 Z" fill="#000000" fill-rule="evenodd" fill-opacity="1" /><path clip-path="url(#clip970)" d="M1357.18 243.468 Q1357.18 245.149 1355.74 246.543 Q1354.31 247.936 1352.63 247.936 Q1351.23 247.936 1350.37 247.075 Q1349.55 246.215 1349.55 244.903 Q1349.55 243.099 1350.99 241.788 Q1352.42 240.435 1353.98 240.435 Q1355.41 240.435 1356.27 241.337 Q1357.18 242.198 1357.18 243.468 M1354.06 266.545 Q1354.06 267.98 1353.65 269.66 L1345.95 300.402 Q1345.21 303.395 1343.44 305.854 Q1341.68 308.354 1339.43 309.912 Q1337.21 311.47 1334.8 312.289 Q1332.42 313.15 1330.16 313.15 Q1327.01 313.15 1324.88 311.756 Q1322.75 310.363 1322.75 307.944 Q1322.75 305.813 1324.14 304.46 Q1325.57 303.149 1327.3 303.149 Q1328.85 303.149 1329.67 304.05 Q1330.49 304.952 1330.49 306.1 Q1330.49 307.494 1329.47 308.805 Q1328.48 310.117 1326.72 310.527 Q1328.32 311.306 1330 311.306 Q1333.44 311.306 1336.23 308.149 Q1339.06 305.034 1340.29 300.116 L1348.2 268.8 Q1348.77 266.299 1348.77 264.537 Q1348.77 262.897 1348.32 261.995 Q1347.87 261.094 1347.34 260.889 Q1346.85 260.684 1346.11 260.684 Q1342.87 260.684 1340.08 263.676 Q1337.3 266.627 1335.53 270.931 Q1335.04 272.12 1334.8 272.366 Q1334.59 272.612 1334.02 272.612 Q1332.99 272.571 1332.99 271.751 Q1332.99 271.505 1333.4 270.521 Q1333.81 269.538 1334.55 268.103 Q1335.29 266.627 1336.48 265.029 Q1337.67 263.43 1339.06 262.036 Q1340.49 260.643 1342.42 259.741 Q1344.35 258.839 1346.36 258.839 Q1349.59 258.839 1351.81 260.971 Q1354.06 263.061 1354.06 266.545 Z" fill="#000000" fill-rule="evenodd" fill-opacity="1" /><path clip-path="url(#clip970)" d="M338.732 455.174 Q333.303 464.491 330.67 473.605 Q328.037 482.72 328.037 492.078 Q328.037 501.435 330.67 510.631 Q333.344 519.786 338.732 529.062 L332.25 529.062 Q326.174 519.543 323.136 510.347 Q320.138 501.152 320.138 492.078 Q320.138 483.044 323.136 473.889 Q326.133 464.734 332.25 455.174 L338.732 455.174 Z" fill="#000000" fill-rule="evenodd" fill-opacity="1" /><path clip-path="url(#clip970)" d="M390.907 472.755 L374.501 494.832 L391.758 518.125 L382.968 518.125 L369.762 500.301 L356.556 518.125 L347.765 518.125 L365.387 494.387 L349.264 472.755 L358.054 472.755 L370.086 488.918 L382.117 472.755 L390.907 472.755 Z" fill="#000000" fill-rule="evenodd" fill-opacity="1" /><path clip-path="url(#clip970)" d="M404.194 507.836 L412.742 507.836 L412.742 514.803 L406.098 527.766 L400.873 527.766 L404.194 514.803 L404.194 507.836 Z" fill="#000000" fill-rule="evenodd" fill-opacity="1" /><path clip-path="url(#clip970)" d="M447.539 522.338 Q444.379 530.44 441.382 532.911 Q438.384 535.382 433.361 535.382 L427.406 535.382 L427.406 529.143 L431.781 529.143 Q434.86 529.143 436.561 527.685 Q438.262 526.227 440.328 520.798 L441.665 517.396 L423.315 472.755 L431.214 472.755 L445.392 508.241 L459.57 472.755 L467.469 472.755 L447.539 522.338 Z" fill="#000000" fill-rule="evenodd" fill-opacity="1" /><path clip-path="url(#clip970)" d="M479.663 507.836 L488.21 507.836 L488.21 514.803 L481.567 527.766 L476.341 527.766 L479.663 514.803 L479.663 507.836 Z" fill="#000000" fill-rule="evenodd" fill-opacity="1" /><path clip-path="url(#clip970)" d="M500.889 472.755 L536.294 472.755 L536.294 479.56 L508.262 512.17 L536.294 512.17 L536.294 518.125 L499.877 518.125 L499.877 511.319 L527.909 478.71 L500.889 478.71 L500.889 472.755 Z" fill="#000000" fill-rule="evenodd" fill-opacity="1" /><path clip-path="url(#clip970)" d="M578.019 466.111 L578.019 488.675 L600.582 488.675 L600.582 495.561 L578.019 495.561 L578.019 518.125 L571.213 518.125 L571.213 495.561 L548.65 495.561 L548.65 488.675 L571.213 488.675 L571.213 466.111 L578.019 466.111 Z" fill="#000000" fill-rule="evenodd" fill-opacity="1" /><path clip-path="url(#clip970)" d="M637.729 465.706 L621.12 511.319 L654.378 511.319 L637.729 465.706 M610.021 518.125 L633.111 457.645 L642.387 457.645 L665.437 518.125 L610.021 518.125 Z" fill="#000000" fill-rule="evenodd" fill-opacity="1" /><path clip-path="url(#clip970)" d="M670.703 472.755 L706.108 472.755 L706.108 479.56 L678.076 512.17 L706.108 512.17 L706.108 518.125 L669.691 518.125 L669.691 511.319 L697.723 478.71 L670.703 478.71 L670.703 472.755 Z" fill="#000000" fill-rule="evenodd" fill-opacity="1" /><path clip-path="url(#clip970)" d="M716.316 455.174 L722.798 455.174 Q728.874 464.734 731.872 473.889 Q734.91 483.044 734.91 492.078 Q734.91 501.152 731.872 510.347 Q728.874 519.543 722.798 529.062 L716.316 529.062 Q721.704 519.786 724.337 510.631 Q727.011 501.435 727.011 492.078 Q727.011 482.72 724.337 473.605 Q721.704 464.491 716.316 455.174 Z" fill="#000000" fill-rule="evenodd" fill-opacity="1" /><path clip-path="url(#clip970)" d="M347.106 1462.35 Q341.678 1471.67 339.045 1480.78 Q336.411 1489.9 336.411 1499.26 Q336.411 1508.61 339.045 1517.81 Q341.718 1526.96 347.106 1536.24 L340.624 1536.24 Q334.548 1526.72 331.51 1517.53 Q328.512 1508.33 328.512 1499.26 Q328.512 1490.22 331.51 1481.07 Q334.508 1471.91 340.624 1462.35 L347.106 1462.35 Z" fill="#000000" fill-rule="evenodd" fill-opacity="1" /><path clip-path="url(#clip970)" d="M399.281 1479.93 L382.875 1502.01 L400.132 1525.3 L391.342 1525.3 L378.136 1507.48 L364.93 1525.3 L356.139 1525.3 L373.761 1501.57 L357.638 1479.93 L366.429 1479.93 L378.46 1496.1 L390.491 1479.93 L399.281 1479.93 Z" fill="#000000" fill-rule="evenodd" fill-opacity="1" /><path clip-path="url(#clip970)" d="M441.006 1473.29 L441.006 1495.85 L463.569 1495.85 L463.569 1502.74 L441.006 1502.74 L441.006 1525.3 L434.2 1525.3 L434.2 1502.74 L411.637 1502.74 L411.637 1495.85 L434.2 1495.85 L434.2 1473.29 L441.006 1473.29 Z" fill="#000000" fill-rule="evenodd" fill-opacity="1" /><path clip-path="url(#clip970)" d="M500.716 1472.89 L484.107 1518.5 L517.365 1518.5 L500.716 1472.89 M473.008 1525.3 L496.098 1464.82 L505.375 1464.82 L528.424 1525.3 L473.008 1525.3 Z" fill="#000000" fill-rule="evenodd" fill-opacity="1" /><path clip-path="url(#clip970)" d="M574.645 1479.93 L558.239 1502.01 L575.496 1525.3 L566.705 1525.3 L553.499 1507.48 L540.293 1525.3 L531.503 1525.3 L549.124 1501.57 L533.002 1479.93 L541.792 1479.93 L553.823 1496.1 L565.855 1479.93 L574.645 1479.93 Z" fill="#000000" fill-rule="evenodd" fill-opacity="1" /><path clip-path="url(#clip970)" d="M587.932 1515.01 L596.48 1515.01 L596.48 1521.98 L589.836 1534.94 L584.61 1534.94 L587.932 1521.98 L587.932 1515.01 Z" fill="#000000" fill-rule="evenodd" fill-opacity="1" /><path clip-path="url(#clip970)" d="M631.277 1529.52 Q628.117 1537.62 625.119 1540.09 Q622.122 1542.56 617.099 1542.56 L611.144 1542.56 L611.144 1536.32 L615.519 1536.32 Q618.597 1536.32 620.299 1534.86 Q622 1533.41 624.066 1527.98 L625.403 1524.57 L607.052 1479.93 L614.952 1479.93 L629.13 1515.42 L643.308 1479.93 L651.207 1479.93 L631.277 1529.52 Z" fill="#000000" fill-rule="evenodd" fill-opacity="1" /><path clip-path="url(#clip970)" d="M663.4 1515.01 L671.948 1515.01 L671.948 1521.98 L665.304 1534.94 L660.079 1534.94 L663.4 1521.98 L663.4 1515.01 Z" fill="#000000" fill-rule="evenodd" fill-opacity="1" /><path clip-path="url(#clip970)" d="M684.627 1479.93 L720.032 1479.93 L720.032 1486.74 L692 1519.35 L720.032 1519.35 L720.032 1525.3 L683.614 1525.3 L683.614 1518.5 L711.647 1485.89 L684.627 1485.89 L684.627 1479.93 Z" fill="#000000" fill-rule="evenodd" fill-opacity="1" /><path clip-path="url(#clip970)" d="M761.756 1473.29 L761.756 1495.85 L784.32 1495.85 L784.32 1502.74 L761.756 1502.74 L761.756 1525.3 L754.951 1525.3 L754.951 1502.74 L732.387 1502.74 L732.387 1495.85 L754.951 1495.85 L754.951 1473.29 L761.756 1473.29 Z" fill="#000000" fill-rule="evenodd" fill-opacity="1" /><path clip-path="url(#clip970)" d="M821.467 1472.89 L804.858 1518.5 L838.116 1518.5 L821.467 1472.89 M793.759 1525.3 L816.849 1464.82 L826.125 1464.82 L849.175 1525.3 L793.759 1525.3 Z" fill="#000000" fill-rule="evenodd" fill-opacity="1" /><path clip-path="url(#clip970)" d="M854.441 1479.93 L889.846 1479.93 L889.846 1486.74 L861.814 1519.35 L889.846 1519.35 L889.846 1525.3 L853.428 1525.3 L853.428 1518.5 L881.461 1485.89 L854.441 1485.89 L854.441 1479.93 Z" fill="#000000" fill-rule="evenodd" fill-opacity="1" /><path clip-path="url(#clip970)" d="M900.054 1462.35 L906.536 1462.35 Q912.612 1471.91 915.61 1481.07 Q918.648 1490.22 918.648 1499.26 Q918.648 1508.33 915.61 1517.53 Q912.612 1526.72 906.536 1536.24 L900.054 1536.24 Q905.442 1526.96 908.075 1517.81 Q910.749 1508.61 910.749 1499.26 Q910.749 1489.9 908.075 1480.78 Q905.442 1471.67 900.054 1462.35 Z" fill="#000000" fill-rule="evenodd" fill-opacity="1" /><path clip-path="url(#clip970)" d="M1499.78 455.174 Q1494.35 464.491 1491.72 473.605 Q1489.08 482.72 1489.08 492.078 Q1489.08 501.435 1491.72 510.631 Q1494.39 519.786 1499.78 529.062 L1493.3 529.062 Q1487.22 519.543 1484.18 510.347 Q1481.18 501.152 1481.18 492.078 Q1481.18 483.044 1484.18 473.889 Q1487.18 464.734 1493.3 455.174 L1499.78 455.174 Z" fill="#000000" fill-rule="evenodd" fill-opacity="1" /><path clip-path="url(#clip970)" d="M1551.95 472.755 L1535.55 494.832 L1552.8 518.125 L1544.01 518.125 L1530.81 500.301 L1517.6 518.125 L1508.81 518.125 L1526.43 494.387 L1510.31 472.755 L1519.1 472.755 L1531.13 488.918 L1543.16 472.755 L1551.95 472.755 Z" fill="#000000" fill-rule="evenodd" fill-opacity="1" /><path clip-path="url(#clip970)" d="M1565.24 507.836 L1573.79 507.836 L1573.79 514.803 L1567.14 527.766 L1561.92 527.766 L1565.24 514.803 L1565.24 507.836 Z" fill="#000000" fill-rule="evenodd" fill-opacity="1" /><path clip-path="url(#clip970)" d="M1608.59 522.338 Q1605.43 530.44 1602.43 532.911 Q1599.43 535.382 1594.41 535.382 L1588.45 535.382 L1588.45 529.143 L1592.83 529.143 Q1595.91 529.143 1597.61 527.685 Q1599.31 526.227 1601.37 520.798 L1602.71 517.396 L1584.36 472.755 L1592.26 472.755 L1606.44 508.241 L1620.62 472.755 L1628.52 472.755 L1608.59 522.338 Z" fill="#000000" fill-rule="evenodd" fill-opacity="1" /><path clip-path="url(#clip970)" d="M1669.15 466.111 L1669.15 488.675 L1691.71 488.675 L1691.71 495.561 L1669.15 495.561 L1669.15 518.125 L1662.34 518.125 L1662.34 495.561 L1639.78 495.561 L1639.78 488.675 L1662.34 488.675 L1662.34 466.111 L1669.15 466.111 Z" fill="#000000" fill-rule="evenodd" fill-opacity="1" /><path clip-path="url(#clip970)" d="M1728.86 465.706 L1712.25 511.319 L1745.51 511.319 L1728.86 465.706 M1701.15 518.125 L1724.24 457.645 L1733.51 457.645 L1756.56 518.125 L1701.15 518.125 Z" fill="#000000" fill-rule="evenodd" fill-opacity="1" /><path clip-path="url(#clip970)" d="M1783.95 522.338 Q1780.79 530.44 1777.79 532.911 Q1774.79 535.382 1769.77 535.382 L1763.82 535.382 L1763.82 529.143 L1768.19 529.143 Q1771.27 529.143 1772.97 527.685 Q1774.67 526.227 1776.74 520.798 L1778.07 517.396 L1759.72 472.755 L1767.62 472.755 L1781.8 508.241 L1795.98 472.755 L1803.88 472.755 L1783.95 522.338 Z" fill="#000000" fill-rule="evenodd" fill-opacity="1" /><path clip-path="url(#clip970)" d="M1816.07 507.836 L1824.62 507.836 L1824.62 514.803 L1817.98 527.766 L1812.75 527.766 L1816.07 514.803 L1816.07 507.836 Z" fill="#000000" fill-rule="evenodd" fill-opacity="1" /><path clip-path="url(#clip970)" d="M1837.3 472.755 L1872.7 472.755 L1872.7 479.56 L1844.67 512.17 L1872.7 512.17 L1872.7 518.125 L1836.29 518.125 L1836.29 511.319 L1864.32 478.71 L1837.3 478.71 L1837.3 472.755 Z" fill="#000000" fill-rule="evenodd" fill-opacity="1" /><path clip-path="url(#clip970)" d="M1914.43 466.111 L1914.43 488.675 L1936.99 488.675 L1936.99 495.561 L1914.43 495.561 L1914.43 518.125 L1907.62 518.125 L1907.62 495.561 L1885.06 495.561 L1885.06 488.675 L1907.62 488.675 L1907.62 466.111 L1914.43 466.111 Z" fill="#000000" fill-rule="evenodd" fill-opacity="1" /><path clip-path="url(#clip970)" d="M1974.14 465.706 L1957.53 511.319 L1990.79 511.319 L1974.14 465.706 M1946.43 518.125 L1969.52 457.645 L1978.8 457.645 L2001.85 518.125 L1946.43 518.125 Z" fill="#000000" fill-rule="evenodd" fill-opacity="1" /><path clip-path="url(#clip970)" d="M2007.11 472.755 L2042.52 472.755 L2042.52 479.56 L2014.49 512.17 L2042.52 512.17 L2042.52 518.125 L2006.1 518.125 L2006.1 511.319 L2034.13 478.71 L2007.11 478.71 L2007.11 472.755 Z" fill="#000000" fill-rule="evenodd" fill-opacity="1" /><path clip-path="url(#clip970)" d="M2052.73 455.174 L2059.21 455.174 Q2065.28 464.734 2068.28 473.889 Q2071.32 483.044 2071.32 492.078 Q2071.32 501.152 2068.28 510.347 Q2065.28 519.543 2059.21 529.062 L2052.73 529.062 Q2058.11 519.786 2060.75 510.631 Q2063.42 501.435 2063.42 492.078 Q2063.42 482.72 2060.75 473.605 Q2058.11 464.491 2052.73 455.174 Z" fill="#000000" fill-rule="evenodd" fill-opacity="1" /><path clip-path="url(#clip970)" d="M1969.34 1466.81 L1969.34 1474.79 Q1964.68 1472.56 1960.55 1471.47 Q1956.41 1470.37 1952.57 1470.37 Q1945.88 1470.37 1942.24 1472.97 Q1938.63 1475.56 1938.63 1480.34 Q1938.63 1484.35 1941.02 1486.42 Q1943.45 1488.44 1950.18 1489.7 L1955.12 1490.71 Q1964.27 1492.45 1968.61 1496.87 Q1972.98 1501.24 1972.98 1508.61 Q1972.98 1517.4 1967.07 1521.94 Q1961.19 1526.48 1949.81 1526.48 Q1945.52 1526.48 1940.66 1525.51 Q1935.84 1524.53 1930.65 1522.63 L1930.65 1514.2 Q1935.63 1517 1940.41 1518.42 Q1945.19 1519.84 1949.81 1519.84 Q1956.82 1519.84 1960.63 1517.08 Q1964.43 1514.33 1964.43 1509.22 Q1964.43 1504.77 1961.68 1502.25 Q1958.97 1499.74 1952.73 1498.49 L1947.74 1497.51 Q1938.59 1495.69 1934.5 1491.8 Q1930.41 1487.91 1930.41 1480.99 Q1930.41 1472.97 1936.04 1468.35 Q1941.71 1463.73 1951.63 1463.73 Q1955.89 1463.73 1960.3 1464.5 Q1964.72 1465.27 1969.34 1466.81 Z" fill="#000000" fill-rule="evenodd" fill-opacity="1" /><path clip-path="url(#clip970)" d="M1983.92 1520.85 L1992.18 1520.85 L1992.18 1496.1 L1983.15 1497.76 L1983.15 1493.06 L1992.47 1491.48 L1998.02 1491.48 L1998.02 1520.85 L2006.32 1520.85 L2006.32 1525.3 L1983.92 1525.3 L1983.92 1520.85 Z" fill="#000000" fill-rule="evenodd" fill-opacity="1" /></svg>
