<?xml version="1.0" encoding="utf-8"?>
<svg xmlns="http://www.w3.org/2000/svg" xmlns:xlink="http://www.w3.org/1999/xlink" width="672" height="480" viewBox="0 0 2688 1920">
<defs>
  <clipPath id="clip590">
    <rect x="0" y="0" width="2688" height="1920"/>
  </clipPath>
</defs>
<path clip-path="url(#clip590)" d="
M0 1920 L2688 1920 L2688 0 L0 0  Z
  " fill="#ffffff" fill-rule="evenodd" fill-opacity="1"/>
<defs>
  <clipPath id="clip591">
    <rect x="537" y="0" width="1883" height="1883"/>
  </clipPath>
</defs>
<defs>
  <clipPath id="clip592">
    <rect x="189" y="47" width="2453" height="1755"/>
  </clipPath>
</defs>
<path clip-path="url(#clip592)" d="
M-6217.83 6913.94 L-6217.83 2814.15 L-1410.72 -1750.31 L2622.93 3689.4 L2622.93 7789.19 L-2184.19 12353.6 L-6217.83 6913.94  Z
  " fill="#ffffff" fill-rule="evenodd" fill-opacity="1"/>
<polyline clip-path="url(#clip592)" style="stroke:#000000; stroke-linecap:round; stroke-linejoin:round; stroke-width:2; stroke-opacity:0.1; fill:none" points="
  779.518,1203.29 1555.06,639.714 
  "/>
<polyline clip-path="url(#clip592)" style="stroke:#000000; stroke-linecap:round; stroke-linejoin:round; stroke-width:2; stroke-opacity:0.1; fill:none" points="
  1555.06,639.714 1555.06,133.512 
  "/>
<polyline clip-path="url(#clip592)" style="stroke:#000000; stroke-linecap:round; stroke-linejoin:round; stroke-width:2; stroke-opacity:0.1; fill:none" points="
  880.359,1307.37 1655.91,743.791 
  "/>
<polyline clip-path="url(#clip592)" style="stroke:#000000; stroke-linecap:round; stroke-linejoin:round; stroke-width:2; stroke-opacity:0.1; fill:none" points="
  1655.91,743.791 1655.91,237.589 
  "/>
<polyline clip-path="url(#clip592)" style="stroke:#000000; stroke-linecap:round; stroke-linejoin:round; stroke-width:2; stroke-opacity:0.1; fill:none" points="
  981.2,1411.44 1756.75,847.868 
  "/>
<polyline clip-path="url(#clip592)" style="stroke:#000000; stroke-linecap:round; stroke-linejoin:round; stroke-width:2; stroke-opacity:0.1; fill:none" points="
  1756.75,847.868 1756.75,341.666 
  "/>
<polyline clip-path="url(#clip592)" style="stroke:#000000; stroke-linecap:round; stroke-linejoin:round; stroke-width:2; stroke-opacity:0.1; fill:none" points="
  1082.04,1515.52 1857.59,951.945 
  "/>
<polyline clip-path="url(#clip592)" style="stroke:#000000; stroke-linecap:round; stroke-linejoin:round; stroke-width:2; stroke-opacity:0.1; fill:none" points="
  1857.59,951.945 1857.59,445.743 
  "/>
<polyline clip-path="url(#clip592)" style="stroke:#000000; stroke-linecap:round; stroke-linejoin:round; stroke-width:2; stroke-opacity:0.1; fill:none" points="
  1182.88,1619.6 1958.43,1056.02 
  "/>
<polyline clip-path="url(#clip592)" style="stroke:#000000; stroke-linecap:round; stroke-linejoin:round; stroke-width:2; stroke-opacity:0.1; fill:none" points="
  1958.43,1056.02 1958.43,549.82 
  "/>
<polyline clip-path="url(#clip592)" style="stroke:#000000; stroke-linecap:round; stroke-linejoin:round; stroke-width:2; stroke-opacity:0.1; fill:none" points="
  1283.72,1723.67 2059.27,1160.1 
  "/>
<polyline clip-path="url(#clip592)" style="stroke:#000000; stroke-linecap:round; stroke-linejoin:round; stroke-width:2; stroke-opacity:0.1; fill:none" points="
  2059.27,1160.1 2059.27,653.897 
  "/>
<polyline clip-path="url(#clip590)" style="stroke:#000000; stroke-linecap:round; stroke-linejoin:round; stroke-width:4; stroke-opacity:1; fill:none" points="
  701.801,1123.08 1352.56,1794.72 
  "/>
<polyline clip-path="url(#clip590)" style="stroke:#000000; stroke-linecap:round; stroke-linejoin:round; stroke-width:4; stroke-opacity:1; fill:none" points="
  779.518,1203.29 788.824,1196.53 
  "/>
<polyline clip-path="url(#clip590)" style="stroke:#000000; stroke-linecap:round; stroke-linejoin:round; stroke-width:4; stroke-opacity:1; fill:none" points="
  880.359,1307.37 889.665,1300.6 
  "/>
<polyline clip-path="url(#clip590)" style="stroke:#000000; stroke-linecap:round; stroke-linejoin:round; stroke-width:4; stroke-opacity:1; fill:none" points="
  981.2,1411.44 990.507,1404.68 
  "/>
<polyline clip-path="url(#clip590)" style="stroke:#000000; stroke-linecap:round; stroke-linejoin:round; stroke-width:4; stroke-opacity:1; fill:none" points="
  1082.04,1515.52 1091.35,1508.76 
  "/>
<polyline clip-path="url(#clip590)" style="stroke:#000000; stroke-linecap:round; stroke-linejoin:round; stroke-width:4; stroke-opacity:1; fill:none" points="
  1182.88,1619.6 1192.19,1612.83 
  "/>
<polyline clip-path="url(#clip590)" style="stroke:#000000; stroke-linecap:round; stroke-linejoin:round; stroke-width:4; stroke-opacity:1; fill:none" points="
  1283.72,1723.67 1293.03,1716.91 
  "/>
<path clip-path="url(#clip590)" d="M666.27 1208.3 Q662.659 1208.3 660.83 1211.87 Q659.025 1215.41 659.025 1222.54 Q659.025 1229.64 660.83 1233.21 Q662.659 1236.75 666.27 1236.75 Q669.905 1236.75 671.71 1233.21 Q673.539 1229.64 673.539 1222.54 Q673.539 1215.41 671.71 1211.87 Q669.905 1208.3 666.27 1208.3 M666.27 1204.6 Q672.08 1204.6 675.136 1209.2 Q678.215 1213.79 678.215 1222.54 Q678.215 1231.26 675.136 1235.87 Q672.08 1240.45 666.27 1240.45 Q660.46 1240.45 657.381 1235.87 Q654.326 1231.26 654.326 1222.54 Q654.326 1213.79 657.381 1209.2 Q660.46 1204.6 666.27 1204.6 Z" fill="#000000" fill-rule="evenodd" fill-opacity="1" /><path clip-path="url(#clip590)" d="M686.432 1233.9 L691.316 1233.9 L691.316 1239.78 L686.432 1239.78 L686.432 1233.9 Z" fill="#000000" fill-rule="evenodd" fill-opacity="1" /><path clip-path="url(#clip590)" d="M715.668 1221.15 Q719.025 1221.87 720.9 1224.13 Q722.798 1226.4 722.798 1229.74 Q722.798 1234.85 719.279 1237.65 Q715.761 1240.45 709.279 1240.45 Q707.103 1240.45 704.789 1240.01 Q702.497 1239.6 700.043 1238.74 L700.043 1234.23 Q701.988 1235.36 704.302 1235.94 Q706.617 1236.52 709.14 1236.52 Q713.539 1236.52 715.83 1234.78 Q718.145 1233.05 718.145 1229.74 Q718.145 1226.68 715.992 1224.97 Q713.863 1223.23 710.043 1223.23 L706.015 1223.23 L706.015 1219.39 L710.228 1219.39 Q713.677 1219.39 715.506 1218.02 Q717.335 1216.63 717.335 1214.04 Q717.335 1211.38 715.437 1209.97 Q713.562 1208.53 710.043 1208.53 Q708.122 1208.53 705.923 1208.95 Q703.724 1209.37 701.085 1210.24 L701.085 1206.08 Q703.747 1205.34 706.062 1204.97 Q708.4 1204.6 710.46 1204.6 Q715.784 1204.6 718.886 1207.03 Q721.988 1209.43 721.988 1213.56 Q721.988 1216.43 720.344 1218.42 Q718.701 1220.38 715.668 1221.15 Z" fill="#000000" fill-rule="evenodd" fill-opacity="1" /><path clip-path="url(#clip590)" d="M741.663 1208.3 Q738.052 1208.3 736.224 1211.87 Q734.418 1215.41 734.418 1222.54 Q734.418 1229.64 736.224 1233.21 Q738.052 1236.75 741.663 1236.75 Q745.298 1236.75 747.103 1233.21 Q748.932 1229.64 748.932 1222.54 Q748.932 1215.41 747.103 1211.87 Q745.298 1208.3 741.663 1208.3 M741.663 1204.6 Q747.474 1204.6 750.529 1209.2 Q753.608 1213.79 753.608 1222.54 Q753.608 1231.26 750.529 1235.87 Q747.474 1240.45 741.663 1240.45 Q735.853 1240.45 732.775 1235.87 Q729.719 1231.26 729.719 1222.54 Q729.719 1213.79 732.775 1209.2 Q735.853 1204.6 741.663 1204.6 Z" fill="#000000" fill-rule="evenodd" fill-opacity="1" /><path clip-path="url(#clip590)" d="M768.107 1312.38 Q764.496 1312.38 762.667 1315.94 Q760.862 1319.48 760.862 1326.61 Q760.862 1333.72 762.667 1337.28 Q764.496 1340.83 768.107 1340.83 Q771.741 1340.83 773.547 1337.28 Q775.375 1333.72 775.375 1326.61 Q775.375 1319.48 773.547 1315.94 Q771.741 1312.38 768.107 1312.38 M768.107 1308.67 Q773.917 1308.67 776.973 1313.28 Q780.051 1317.86 780.051 1326.61 Q780.051 1335.34 776.973 1339.95 Q773.917 1344.53 768.107 1344.53 Q762.297 1344.53 759.218 1339.95 Q756.162 1335.34 756.162 1326.61 Q756.162 1317.86 759.218 1313.28 Q762.297 1308.67 768.107 1308.67 Z" fill="#000000" fill-rule="evenodd" fill-opacity="1" /><path clip-path="url(#clip590)" d="M788.269 1337.98 L793.153 1337.98 L793.153 1343.86 L788.269 1343.86 L788.269 1337.98 Z" fill="#000000" fill-rule="evenodd" fill-opacity="1" /><path clip-path="url(#clip590)" d="M817.505 1325.22 Q820.861 1325.94 822.736 1328.21 Q824.634 1330.48 824.634 1333.81 Q824.634 1338.93 821.116 1341.73 Q817.597 1344.53 811.116 1344.53 Q808.94 1344.53 806.625 1344.09 Q804.334 1343.67 801.88 1342.82 L801.88 1338.3 Q803.824 1339.44 806.139 1340.02 Q808.454 1340.59 810.977 1340.59 Q815.375 1340.59 817.667 1338.86 Q819.982 1337.12 819.982 1333.81 Q819.982 1330.76 817.829 1329.04 Q815.699 1327.31 811.88 1327.31 L807.852 1327.31 L807.852 1323.47 L812.065 1323.47 Q815.514 1323.47 817.343 1322.1 Q819.171 1320.71 819.171 1318.12 Q819.171 1315.46 817.273 1314.04 Q815.398 1312.61 811.88 1312.61 Q809.958 1312.61 807.759 1313.03 Q805.56 1313.44 802.921 1314.32 L802.921 1310.16 Q805.584 1309.41 807.898 1309.04 Q810.236 1308.67 812.296 1308.67 Q817.62 1308.67 820.722 1311.1 Q823.824 1313.51 823.824 1317.63 Q823.824 1320.5 822.181 1322.49 Q820.537 1324.46 817.505 1325.22 Z" fill="#000000" fill-rule="evenodd" fill-opacity="1" /><path clip-path="url(#clip590)" d="M833.546 1309.3 L851.903 1309.3 L851.903 1313.23 L837.829 1313.23 L837.829 1321.71 Q838.847 1321.36 839.866 1321.2 Q840.884 1321.01 841.903 1321.01 Q847.69 1321.01 851.069 1324.18 Q854.449 1327.35 854.449 1332.77 Q854.449 1338.35 850.977 1341.45 Q847.505 1344.53 841.185 1344.53 Q839.009 1344.53 836.741 1344.16 Q834.495 1343.79 832.088 1343.05 L832.088 1338.35 Q834.171 1339.48 836.394 1340.04 Q838.616 1340.59 841.093 1340.59 Q845.097 1340.59 847.435 1338.49 Q849.773 1336.38 849.773 1332.77 Q849.773 1329.16 847.435 1327.05 Q845.097 1324.95 841.093 1324.95 Q839.218 1324.95 837.343 1325.36 Q835.491 1325.78 833.546 1326.66 L833.546 1309.3 Z" fill="#000000" fill-rule="evenodd" fill-opacity="1" /><path clip-path="url(#clip590)" d="M867.953 1416.45 Q864.342 1416.45 862.513 1420.02 Q860.707 1423.56 860.707 1430.69 Q860.707 1437.8 862.513 1441.36 Q864.342 1444.9 867.953 1444.9 Q871.587 1444.9 873.392 1441.36 Q875.221 1437.8 875.221 1430.69 Q875.221 1423.56 873.392 1420.02 Q871.587 1416.45 867.953 1416.45 M867.953 1412.75 Q873.763 1412.75 876.818 1417.36 Q879.897 1421.94 879.897 1430.69 Q879.897 1439.42 876.818 1444.02 Q873.763 1448.61 867.953 1448.61 Q862.143 1448.61 859.064 1444.02 Q856.008 1439.42 856.008 1430.69 Q856.008 1421.94 859.064 1417.36 Q862.143 1412.75 867.953 1412.75 Z" fill="#000000" fill-rule="evenodd" fill-opacity="1" /><path clip-path="url(#clip590)" d="M888.115 1442.06 L892.999 1442.06 L892.999 1447.94 L888.115 1447.94 L888.115 1442.06 Z" fill="#000000" fill-rule="evenodd" fill-opacity="1" /><path clip-path="url(#clip590)" d="M916.031 1417.45 L904.226 1435.9 L916.031 1435.9 L916.031 1417.45 M914.804 1413.38 L920.684 1413.38 L920.684 1435.9 L925.614 1435.9 L925.614 1439.79 L920.684 1439.79 L920.684 1447.94 L916.031 1447.94 L916.031 1439.79 L900.429 1439.79 L900.429 1435.27 L914.804 1413.38 Z" fill="#000000" fill-rule="evenodd" fill-opacity="1" /><path clip-path="url(#clip590)" d="M943.346 1416.45 Q939.735 1416.45 937.906 1420.02 Q936.1 1423.56 936.1 1430.69 Q936.1 1437.8 937.906 1441.36 Q939.735 1444.9 943.346 1444.9 Q946.98 1444.9 948.786 1441.36 Q950.614 1437.8 950.614 1430.69 Q950.614 1423.56 948.786 1420.02 Q946.98 1416.45 943.346 1416.45 M943.346 1412.75 Q949.156 1412.75 952.212 1417.36 Q955.29 1421.94 955.29 1430.69 Q955.29 1439.42 952.212 1444.02 Q949.156 1448.61 943.346 1448.61 Q937.536 1448.61 934.457 1444.02 Q931.401 1439.42 931.401 1430.69 Q931.401 1421.94 934.457 1417.36 Q937.536 1412.75 943.346 1412.75 Z" fill="#000000" fill-rule="evenodd" fill-opacity="1" /><path clip-path="url(#clip590)" d="M969.789 1520.53 Q966.178 1520.53 964.349 1524.1 Q962.544 1527.64 962.544 1534.77 Q962.544 1541.87 964.349 1545.44 Q966.178 1548.98 969.789 1548.98 Q973.424 1548.98 975.229 1545.44 Q977.058 1541.87 977.058 1534.77 Q977.058 1527.64 975.229 1524.1 Q973.424 1520.53 969.789 1520.53 M969.789 1516.83 Q975.599 1516.83 978.655 1521.43 Q981.734 1526.02 981.734 1534.77 Q981.734 1543.49 978.655 1548.1 Q975.599 1552.68 969.789 1552.68 Q963.979 1552.68 960.9 1548.1 Q957.845 1543.49 957.845 1534.77 Q957.845 1526.02 960.9 1521.43 Q963.979 1516.83 969.789 1516.83 Z" fill="#000000" fill-rule="evenodd" fill-opacity="1" /><path clip-path="url(#clip590)" d="M989.951 1546.13 L994.835 1546.13 L994.835 1552.01 L989.951 1552.01 L989.951 1546.13 Z" fill="#000000" fill-rule="evenodd" fill-opacity="1" /><path clip-path="url(#clip590)" d="M1017.87 1521.53 L1006.06 1539.98 L1017.87 1539.98 L1017.87 1521.53 M1016.64 1517.45 L1022.52 1517.45 L1022.52 1539.98 L1027.45 1539.98 L1027.45 1543.86 L1022.52 1543.86 L1022.52 1552.01 L1017.87 1552.01 L1017.87 1543.86 L1002.27 1543.86 L1002.27 1539.35 L1016.64 1517.45 Z" fill="#000000" fill-rule="evenodd" fill-opacity="1" /><path clip-path="url(#clip590)" d="M1035.23 1517.45 L1053.59 1517.45 L1053.59 1521.39 L1039.51 1521.39 L1039.51 1529.86 Q1040.53 1529.51 1041.55 1529.35 Q1042.57 1529.17 1043.59 1529.17 Q1049.37 1529.17 1052.75 1532.34 Q1056.13 1535.51 1056.13 1540.93 Q1056.13 1546.5 1052.66 1549.61 Q1049.19 1552.68 1042.87 1552.68 Q1040.69 1552.68 1038.42 1552.31 Q1036.18 1551.94 1033.77 1551.2 L1033.77 1546.5 Q1035.85 1547.64 1038.08 1548.19 Q1040.3 1548.75 1042.77 1548.75 Q1046.78 1548.75 1049.12 1546.64 Q1051.46 1544.54 1051.46 1540.93 Q1051.46 1537.31 1049.12 1535.21 Q1046.78 1533.1 1042.77 1533.1 Q1040.9 1533.1 1039.03 1533.52 Q1037.17 1533.93 1035.23 1534.81 L1035.23 1517.45 Z" fill="#000000" fill-rule="evenodd" fill-opacity="1" /><path clip-path="url(#clip590)" d="M1069.64 1624.61 Q1066.02 1624.61 1064.2 1628.17 Q1062.39 1631.72 1062.39 1638.84 Q1062.39 1645.95 1064.2 1649.52 Q1066.02 1653.06 1069.64 1653.06 Q1073.27 1653.06 1075.07 1649.52 Q1076.9 1645.95 1076.9 1638.84 Q1076.9 1631.72 1075.07 1628.17 Q1073.27 1624.61 1069.64 1624.61 M1069.64 1620.91 Q1075.45 1620.91 1078.5 1625.51 Q1081.58 1630.09 1081.58 1638.84 Q1081.58 1647.57 1078.5 1652.18 Q1075.45 1656.76 1069.64 1656.76 Q1063.82 1656.76 1060.75 1652.18 Q1057.69 1647.57 1057.69 1638.84 Q1057.69 1630.09 1060.75 1625.51 Q1063.82 1620.91 1069.64 1620.91 Z" fill="#000000" fill-rule="evenodd" fill-opacity="1" /><path clip-path="url(#clip590)" d="M1089.8 1650.21 L1094.68 1650.21 L1094.68 1656.09 L1089.8 1656.09 L1089.8 1650.21 Z" fill="#000000" fill-rule="evenodd" fill-opacity="1" /><path clip-path="url(#clip590)" d="M1104.91 1621.53 L1123.27 1621.53 L1123.27 1625.47 L1109.2 1625.47 L1109.2 1633.94 Q1110.21 1633.59 1111.23 1633.43 Q1112.25 1633.24 1113.27 1633.24 Q1119.06 1633.24 1122.44 1636.41 Q1125.82 1639.59 1125.82 1645 Q1125.82 1650.58 1122.34 1653.68 Q1118.87 1656.76 1112.55 1656.76 Q1110.38 1656.76 1108.11 1656.39 Q1105.86 1656.02 1103.45 1655.28 L1103.45 1650.58 Q1105.54 1651.72 1107.76 1652.27 Q1109.98 1652.83 1112.46 1652.83 Q1116.46 1652.83 1118.8 1650.72 Q1121.14 1648.61 1121.14 1645 Q1121.14 1641.39 1118.8 1639.28 Q1116.46 1637.18 1112.46 1637.18 Q1110.58 1637.18 1108.71 1637.59 Q1106.86 1638.01 1104.91 1638.89 L1104.91 1621.53 Z" fill="#000000" fill-rule="evenodd" fill-opacity="1" /><path clip-path="url(#clip590)" d="M1145.03 1624.61 Q1141.42 1624.61 1139.59 1628.17 Q1137.78 1631.72 1137.78 1638.84 Q1137.78 1645.95 1139.59 1649.52 Q1141.42 1653.06 1145.03 1653.06 Q1148.66 1653.06 1150.47 1649.52 Q1152.3 1645.95 1152.3 1638.84 Q1152.3 1631.72 1150.47 1628.17 Q1148.66 1624.61 1145.03 1624.61 M1145.03 1620.91 Q1150.84 1620.91 1153.89 1625.51 Q1156.97 1630.09 1156.97 1638.84 Q1156.97 1647.57 1153.89 1652.18 Q1150.84 1656.76 1145.03 1656.76 Q1139.22 1656.76 1136.14 1652.18 Q1133.08 1647.57 1133.08 1638.84 Q1133.08 1630.09 1136.14 1625.51 Q1139.22 1620.91 1145.03 1620.91 Z" fill="#000000" fill-rule="evenodd" fill-opacity="1" /><path clip-path="url(#clip590)" d="M1171.47 1728.69 Q1167.86 1728.69 1166.03 1732.25 Q1164.23 1735.79 1164.23 1742.92 Q1164.23 1750.03 1166.03 1753.59 Q1167.86 1757.13 1171.47 1757.13 Q1175.11 1757.13 1176.91 1753.59 Q1178.74 1750.03 1178.74 1742.92 Q1178.74 1735.79 1176.91 1732.25 Q1175.11 1728.69 1171.47 1728.69 M1171.47 1724.98 Q1177.28 1724.98 1180.34 1729.59 Q1183.42 1734.17 1183.42 1742.92 Q1183.42 1751.65 1180.34 1756.26 Q1177.28 1760.84 1171.47 1760.84 Q1165.66 1760.84 1162.58 1756.26 Q1159.53 1751.65 1159.53 1742.92 Q1159.53 1734.17 1162.58 1729.59 Q1165.66 1724.98 1171.47 1724.98 Z" fill="#000000" fill-rule="evenodd" fill-opacity="1" /><path clip-path="url(#clip590)" d="M1191.63 1754.29 L1196.52 1754.29 L1196.52 1760.17 L1191.63 1760.17 L1191.63 1754.29 Z" fill="#000000" fill-rule="evenodd" fill-opacity="1" /><path clip-path="url(#clip590)" d="M1206.75 1725.61 L1225.11 1725.61 L1225.11 1729.54 L1211.03 1729.54 L1211.03 1738.01 Q1212.05 1737.67 1213.07 1737.51 Q1214.09 1737.32 1215.11 1737.32 Q1220.89 1737.32 1224.27 1740.49 Q1227.65 1743.66 1227.65 1749.08 Q1227.65 1754.66 1224.18 1757.76 Q1220.71 1760.84 1214.39 1760.84 Q1212.21 1760.84 1209.94 1760.47 Q1207.7 1760.1 1205.29 1759.36 L1205.29 1754.66 Q1207.37 1755.79 1209.6 1756.35 Q1211.82 1756.9 1214.3 1756.9 Q1218.3 1756.9 1220.64 1754.8 Q1222.98 1752.69 1222.98 1749.08 Q1222.98 1745.47 1220.64 1743.36 Q1218.3 1741.26 1214.3 1741.26 Q1212.42 1741.26 1210.55 1741.67 Q1208.69 1742.09 1206.75 1742.97 L1206.75 1725.61 Z" fill="#000000" fill-rule="evenodd" fill-opacity="1" /><path clip-path="url(#clip590)" d="M1236.91 1725.61 L1255.27 1725.61 L1255.27 1729.54 L1241.19 1729.54 L1241.19 1738.01 Q1242.21 1737.67 1243.23 1737.51 Q1244.25 1737.32 1245.27 1737.32 Q1251.05 1737.32 1254.43 1740.49 Q1257.81 1743.66 1257.81 1749.08 Q1257.81 1754.66 1254.34 1757.76 Q1250.87 1760.84 1244.55 1760.84 Q1242.37 1760.84 1240.11 1760.47 Q1237.86 1760.1 1235.45 1759.36 L1235.45 1754.66 Q1237.54 1755.79 1239.76 1756.35 Q1241.98 1756.9 1244.46 1756.9 Q1248.46 1756.9 1250.8 1754.8 Q1253.14 1752.69 1253.14 1749.08 Q1253.14 1745.47 1250.8 1743.36 Q1248.46 1741.26 1244.46 1741.26 Q1242.58 1741.26 1240.71 1741.67 Q1238.86 1742.09 1236.91 1742.97 L1236.91 1725.61 Z" fill="#000000" fill-rule="evenodd" fill-opacity="1" /><polyline clip-path="url(#clip592)" style="stroke:#000000; stroke-linecap:round; stroke-linejoin:round; stroke-width:2; stroke-opacity:0.1; fill:none" points="
  1374.51,1778.77 723.751,1107.13 
  "/>
<polyline clip-path="url(#clip592)" style="stroke:#000000; stroke-linecap:round; stroke-linejoin:round; stroke-width:2; stroke-opacity:0.1; fill:none" points="
  723.751,1107.13 723.751,600.927 
  "/>
<polyline clip-path="url(#clip592)" style="stroke:#000000; stroke-linecap:round; stroke-linejoin:round; stroke-width:2; stroke-opacity:0.1; fill:none" points="
  1531.54,1664.66 880.782,993.017 
  "/>
<polyline clip-path="url(#clip592)" style="stroke:#000000; stroke-linecap:round; stroke-linejoin:round; stroke-width:2; stroke-opacity:0.1; fill:none" points="
  880.782,993.017 880.782,486.815 
  "/>
<polyline clip-path="url(#clip592)" style="stroke:#000000; stroke-linecap:round; stroke-linejoin:round; stroke-width:2; stroke-opacity:0.1; fill:none" points="
  1688.57,1550.55 1037.81,878.906 
  "/>
<polyline clip-path="url(#clip592)" style="stroke:#000000; stroke-linecap:round; stroke-linejoin:round; stroke-width:2; stroke-opacity:0.1; fill:none" points="
  1037.81,878.906 1037.81,372.704 
  "/>
<polyline clip-path="url(#clip592)" style="stroke:#000000; stroke-linecap:round; stroke-linejoin:round; stroke-width:2; stroke-opacity:0.1; fill:none" points="
  1845.6,1436.44 1194.84,764.794 
  "/>
<polyline clip-path="url(#clip592)" style="stroke:#000000; stroke-linecap:round; stroke-linejoin:round; stroke-width:2; stroke-opacity:0.1; fill:none" points="
  1194.84,764.794 1194.84,258.592 
  "/>
<polyline clip-path="url(#clip592)" style="stroke:#000000; stroke-linecap:round; stroke-linejoin:round; stroke-width:2; stroke-opacity:0.1; fill:none" points="
  2002.64,1322.33 1351.87,650.683 
  "/>
<polyline clip-path="url(#clip592)" style="stroke:#000000; stroke-linecap:round; stroke-linejoin:round; stroke-width:2; stroke-opacity:0.1; fill:none" points="
  1351.87,650.683 1351.87,144.481 
  "/>
<polyline clip-path="url(#clip590)" style="stroke:#000000; stroke-linecap:round; stroke-linejoin:round; stroke-width:4; stroke-opacity:1; fill:none" points="
  1352.56,1794.72 2128.11,1231.15 
  "/>
<polyline clip-path="url(#clip590)" style="stroke:#000000; stroke-linecap:round; stroke-linejoin:round; stroke-width:4; stroke-opacity:1; fill:none" points="
  1374.51,1778.77 1366.7,1770.71 
  "/>
<polyline clip-path="url(#clip590)" style="stroke:#000000; stroke-linecap:round; stroke-linejoin:round; stroke-width:4; stroke-opacity:1; fill:none" points="
  1531.54,1664.66 1523.73,1656.6 
  "/>
<polyline clip-path="url(#clip590)" style="stroke:#000000; stroke-linecap:round; stroke-linejoin:round; stroke-width:4; stroke-opacity:1; fill:none" points="
  1688.57,1550.55 1680.76,1542.49 
  "/>
<polyline clip-path="url(#clip590)" style="stroke:#000000; stroke-linecap:round; stroke-linejoin:round; stroke-width:4; stroke-opacity:1; fill:none" points="
  1845.6,1436.44 1837.8,1428.38 
  "/>
<polyline clip-path="url(#clip590)" style="stroke:#000000; stroke-linecap:round; stroke-linejoin:round; stroke-width:4; stroke-opacity:1; fill:none" points="
  2002.64,1322.33 1994.83,1314.27 
  "/>
<path clip-path="url(#clip590)" d="M1408.67 1787.96 Q1405.06 1787.96 1403.23 1791.53 Q1401.42 1795.07 1401.42 1802.2 Q1401.42 1809.3 1403.23 1812.87 Q1405.06 1816.41 1408.67 1816.41 Q1412.3 1816.41 1414.11 1812.87 Q1415.93 1809.3 1415.93 1802.2 Q1415.93 1795.07 1414.11 1791.53 Q1412.3 1787.96 1408.67 1787.96 M1408.67 1784.26 Q1414.48 1784.26 1417.53 1788.86 Q1420.61 1793.45 1420.61 1802.2 Q1420.61 1810.92 1417.53 1815.53 Q1414.48 1820.11 1408.67 1820.11 Q1402.86 1820.11 1399.78 1815.53 Q1396.72 1810.92 1396.72 1802.2 Q1396.72 1793.45 1399.78 1788.86 Q1402.86 1784.26 1408.67 1784.26 Z" fill="#000000" fill-rule="evenodd" fill-opacity="1" /><path clip-path="url(#clip590)" d="M1428.83 1813.56 L1433.71 1813.56 L1433.71 1819.44 L1428.83 1819.44 L1428.83 1813.56 Z" fill="#000000" fill-rule="evenodd" fill-opacity="1" /><path clip-path="url(#clip590)" d="M1443.94 1784.88 L1462.3 1784.88 L1462.3 1788.82 L1448.23 1788.82 L1448.23 1797.29 Q1449.24 1796.94 1450.26 1796.78 Q1451.28 1796.6 1452.3 1796.6 Q1458.09 1796.6 1461.47 1799.77 Q1464.85 1802.94 1464.85 1808.35 Q1464.85 1813.93 1461.37 1817.04 Q1457.9 1820.11 1451.58 1820.11 Q1449.41 1820.11 1447.14 1819.74 Q1444.89 1819.37 1442.49 1818.63 L1442.49 1813.93 Q1444.57 1815.07 1446.79 1815.62 Q1449.01 1816.18 1451.49 1816.18 Q1455.49 1816.18 1457.83 1814.07 Q1460.17 1811.97 1460.17 1808.35 Q1460.17 1804.74 1457.83 1802.64 Q1455.49 1800.53 1451.49 1800.53 Q1449.62 1800.53 1447.74 1800.95 Q1445.89 1801.36 1443.94 1802.24 L1443.94 1784.88 Z" fill="#000000" fill-rule="evenodd" fill-opacity="1" /><path clip-path="url(#clip590)" d="M1484.06 1787.96 Q1480.45 1787.96 1478.62 1791.53 Q1476.81 1795.07 1476.81 1802.2 Q1476.81 1809.3 1478.62 1812.87 Q1480.45 1816.41 1484.06 1816.41 Q1487.69 1816.41 1489.5 1812.87 Q1491.33 1809.3 1491.33 1802.2 Q1491.33 1795.07 1489.5 1791.53 Q1487.69 1787.96 1484.06 1787.96 M1484.06 1784.26 Q1489.87 1784.26 1492.93 1788.86 Q1496 1793.45 1496 1802.2 Q1496 1810.92 1492.93 1815.53 Q1489.87 1820.11 1484.06 1820.11 Q1478.25 1820.11 1475.17 1815.53 Q1472.12 1810.92 1472.12 1802.2 Q1472.12 1793.45 1475.17 1788.86 Q1478.25 1784.26 1484.06 1784.26 Z" fill="#000000" fill-rule="evenodd" fill-opacity="1" /><path clip-path="url(#clip590)" d="M1565.7 1673.85 Q1562.09 1673.85 1560.26 1677.41 Q1558.45 1680.96 1558.45 1688.09 Q1558.45 1695.19 1560.26 1698.76 Q1562.09 1702.3 1565.7 1702.3 Q1569.33 1702.3 1571.14 1698.76 Q1572.97 1695.19 1572.97 1688.09 Q1572.97 1680.96 1571.14 1677.41 Q1569.33 1673.85 1565.7 1673.85 M1565.7 1670.15 Q1571.51 1670.15 1574.56 1674.75 Q1577.64 1679.34 1577.64 1688.09 Q1577.64 1696.81 1574.56 1701.42 Q1571.51 1706 1565.7 1706 Q1559.89 1706 1556.81 1701.42 Q1553.75 1696.81 1553.75 1688.09 Q1553.75 1679.34 1556.81 1674.75 Q1559.89 1670.15 1565.7 1670.15 Z" fill="#000000" fill-rule="evenodd" fill-opacity="1" /><path clip-path="url(#clip590)" d="M1585.86 1699.45 L1590.74 1699.45 L1590.74 1705.33 L1585.86 1705.33 L1585.86 1699.45 Z" fill="#000000" fill-rule="evenodd" fill-opacity="1" /><path clip-path="url(#clip590)" d="M1600.97 1670.77 L1619.33 1670.77 L1619.33 1674.71 L1605.26 1674.71 L1605.26 1683.18 Q1606.28 1682.83 1607.29 1682.67 Q1608.31 1682.48 1609.33 1682.48 Q1615.12 1682.48 1618.5 1685.66 Q1621.88 1688.83 1621.88 1694.24 Q1621.88 1699.82 1618.41 1702.92 Q1614.93 1706 1608.61 1706 Q1606.44 1706 1604.17 1705.63 Q1601.92 1705.26 1599.52 1704.52 L1599.52 1699.82 Q1601.6 1700.96 1603.82 1701.51 Q1606.04 1702.07 1608.52 1702.07 Q1612.53 1702.07 1614.86 1699.96 Q1617.2 1697.85 1617.2 1694.24 Q1617.2 1690.63 1614.86 1688.53 Q1612.53 1686.42 1608.52 1686.42 Q1606.65 1686.42 1604.77 1686.84 Q1602.92 1687.25 1600.97 1688.13 L1600.97 1670.77 Z" fill="#000000" fill-rule="evenodd" fill-opacity="1" /><path clip-path="url(#clip590)" d="M1631.14 1670.77 L1649.49 1670.77 L1649.49 1674.71 L1635.42 1674.71 L1635.42 1683.18 Q1636.44 1682.83 1637.46 1682.67 Q1638.47 1682.48 1639.49 1682.48 Q1645.28 1682.48 1648.66 1685.66 Q1652.04 1688.83 1652.04 1694.24 Q1652.04 1699.82 1648.57 1702.92 Q1645.09 1706 1638.78 1706 Q1636.6 1706 1634.33 1705.63 Q1632.09 1705.26 1629.68 1704.52 L1629.68 1699.82 Q1631.76 1700.96 1633.98 1701.51 Q1636.21 1702.07 1638.68 1702.07 Q1642.69 1702.07 1645.03 1699.96 Q1647.36 1697.85 1647.36 1694.24 Q1647.36 1690.63 1645.03 1688.53 Q1642.69 1686.42 1638.68 1686.42 Q1636.81 1686.42 1634.93 1686.84 Q1633.08 1687.25 1631.14 1688.13 L1631.14 1670.77 Z" fill="#000000" fill-rule="evenodd" fill-opacity="1" /><path clip-path="url(#clip590)" d="M1722.73 1559.74 Q1719.12 1559.74 1717.29 1563.3 Q1715.48 1566.84 1715.48 1573.97 Q1715.48 1581.08 1717.29 1584.65 Q1719.12 1588.19 1722.73 1588.19 Q1726.36 1588.19 1728.17 1584.65 Q1730 1581.08 1730 1573.97 Q1730 1566.84 1728.17 1563.3 Q1726.36 1559.74 1722.73 1559.74 M1722.73 1556.03 Q1728.54 1556.03 1731.59 1560.64 Q1734.67 1565.22 1734.67 1573.97 Q1734.67 1582.7 1731.59 1587.31 Q1728.54 1591.89 1722.73 1591.89 Q1716.92 1591.89 1713.84 1587.31 Q1710.78 1582.7 1710.78 1573.97 Q1710.78 1565.22 1713.84 1560.64 Q1716.92 1556.03 1722.73 1556.03 Z" fill="#000000" fill-rule="evenodd" fill-opacity="1" /><path clip-path="url(#clip590)" d="M1742.89 1585.34 L1747.77 1585.34 L1747.77 1591.22 L1742.89 1591.22 L1742.89 1585.34 Z" fill="#000000" fill-rule="evenodd" fill-opacity="1" /><path clip-path="url(#clip590)" d="M1768.54 1572.08 Q1765.39 1572.08 1763.54 1574.23 Q1761.71 1576.38 1761.71 1580.13 Q1761.71 1583.86 1763.54 1586.03 Q1765.39 1588.19 1768.54 1588.19 Q1771.69 1588.19 1773.51 1586.03 Q1775.37 1583.86 1775.37 1580.13 Q1775.37 1576.38 1773.51 1574.23 Q1771.69 1572.08 1768.54 1572.08 M1777.82 1557.42 L1777.82 1561.68 Q1776.06 1560.85 1774.26 1560.41 Q1772.47 1559.97 1770.71 1559.97 Q1766.08 1559.97 1763.63 1563.09 Q1761.2 1566.22 1760.85 1572.54 Q1762.22 1570.53 1764.28 1569.46 Q1766.34 1568.37 1768.82 1568.37 Q1774.02 1568.37 1777.03 1571.54 Q1780.07 1574.69 1780.07 1580.13 Q1780.07 1585.46 1776.92 1588.67 Q1773.77 1591.89 1768.54 1591.89 Q1762.54 1591.89 1759.37 1587.31 Q1756.2 1582.7 1756.2 1573.97 Q1756.2 1565.78 1760.09 1560.92 Q1763.98 1556.03 1770.53 1556.03 Q1772.29 1556.03 1774.07 1556.38 Q1775.88 1556.73 1777.82 1557.42 Z" fill="#000000" fill-rule="evenodd" fill-opacity="1" /><path clip-path="url(#clip590)" d="M1798.12 1559.74 Q1794.51 1559.74 1792.68 1563.3 Q1790.88 1566.84 1790.88 1573.97 Q1790.88 1581.08 1792.68 1584.65 Q1794.51 1588.19 1798.12 1588.19 Q1801.76 1588.19 1803.56 1584.65 Q1805.39 1581.08 1805.39 1573.97 Q1805.39 1566.84 1803.56 1563.3 Q1801.76 1559.74 1798.12 1559.74 M1798.12 1556.03 Q1803.93 1556.03 1806.99 1560.64 Q1810.07 1565.22 1810.07 1573.97 Q1810.07 1582.7 1806.99 1587.31 Q1803.93 1591.89 1798.12 1591.89 Q1792.31 1591.89 1789.23 1587.31 Q1786.18 1582.7 1786.18 1573.97 Q1786.18 1565.22 1789.23 1560.64 Q1792.31 1556.03 1798.12 1556.03 Z" fill="#000000" fill-rule="evenodd" fill-opacity="1" /><path clip-path="url(#clip590)" d="M1879.76 1445.63 Q1876.15 1445.63 1874.32 1449.19 Q1872.51 1452.73 1872.51 1459.86 Q1872.51 1466.97 1874.32 1470.53 Q1876.15 1474.08 1879.76 1474.08 Q1883.39 1474.08 1885.2 1470.53 Q1887.03 1466.97 1887.03 1459.86 Q1887.03 1452.73 1885.2 1449.19 Q1883.39 1445.63 1879.76 1445.63 M1879.76 1441.92 Q1885.57 1441.92 1888.62 1446.53 Q1891.7 1451.11 1891.7 1459.86 Q1891.7 1468.59 1888.62 1473.2 Q1885.57 1477.78 1879.76 1477.78 Q1873.95 1477.78 1870.87 1473.2 Q1867.81 1468.59 1867.81 1459.86 Q1867.81 1451.11 1870.87 1446.53 Q1873.95 1441.92 1879.76 1441.92 Z" fill="#000000" fill-rule="evenodd" fill-opacity="1" /><path clip-path="url(#clip590)" d="M1899.92 1471.23 L1904.81 1471.23 L1904.81 1477.11 L1899.92 1477.11 L1899.92 1471.23 Z" fill="#000000" fill-rule="evenodd" fill-opacity="1" /><path clip-path="url(#clip590)" d="M1925.57 1457.96 Q1922.42 1457.96 1920.57 1460.12 Q1918.74 1462.27 1918.74 1466.02 Q1918.74 1469.75 1920.57 1471.92 Q1922.42 1474.08 1925.57 1474.08 Q1928.72 1474.08 1930.55 1471.92 Q1932.4 1469.75 1932.4 1466.02 Q1932.4 1462.27 1930.55 1460.12 Q1928.72 1457.96 1925.57 1457.96 M1934.85 1443.31 L1934.85 1447.57 Q1933.09 1446.74 1931.29 1446.3 Q1929.5 1445.86 1927.74 1445.86 Q1923.12 1445.86 1920.66 1448.98 Q1918.23 1452.11 1917.88 1458.43 Q1919.25 1456.41 1921.31 1455.35 Q1923.37 1454.26 1925.85 1454.26 Q1931.06 1454.26 1934.06 1457.43 Q1937.1 1460.58 1937.1 1466.02 Q1937.1 1471.34 1933.95 1474.56 Q1930.8 1477.78 1925.57 1477.78 Q1919.57 1477.78 1916.4 1473.2 Q1913.23 1468.59 1913.23 1459.86 Q1913.23 1451.67 1917.12 1446.81 Q1921.01 1441.92 1927.56 1441.92 Q1929.32 1441.92 1931.1 1442.27 Q1932.91 1442.62 1934.85 1443.31 Z" fill="#000000" fill-rule="evenodd" fill-opacity="1" /><path clip-path="url(#clip590)" d="M1945.2 1442.55 L1963.55 1442.55 L1963.55 1446.48 L1949.48 1446.48 L1949.48 1454.96 Q1950.5 1454.61 1951.52 1454.45 Q1952.54 1454.26 1953.55 1454.26 Q1959.34 1454.26 1962.72 1457.43 Q1966.1 1460.6 1966.1 1466.02 Q1966.1 1471.6 1962.63 1474.7 Q1959.16 1477.78 1952.84 1477.78 Q1950.66 1477.78 1948.39 1477.41 Q1946.15 1477.04 1943.74 1476.3 L1943.74 1471.6 Q1945.82 1472.73 1948.05 1473.29 Q1950.27 1473.84 1952.74 1473.84 Q1956.75 1473.84 1959.09 1471.74 Q1961.43 1469.63 1961.43 1466.02 Q1961.43 1462.41 1959.09 1460.3 Q1956.75 1458.2 1952.74 1458.2 Q1950.87 1458.2 1948.99 1458.61 Q1947.14 1459.03 1945.2 1459.91 L1945.2 1442.55 Z" fill="#000000" fill-rule="evenodd" fill-opacity="1" /><path clip-path="url(#clip590)" d="M2036.79 1331.52 Q2033.18 1331.52 2031.35 1335.08 Q2029.54 1338.62 2029.54 1345.75 Q2029.54 1352.86 2031.35 1356.42 Q2033.18 1359.96 2036.79 1359.96 Q2040.42 1359.96 2042.23 1356.42 Q2044.06 1352.86 2044.06 1345.75 Q2044.06 1338.62 2042.23 1335.08 Q2040.42 1331.52 2036.79 1331.52 M2036.79 1327.81 Q2042.6 1327.81 2045.66 1332.42 Q2048.73 1337 2048.73 1345.75 Q2048.73 1354.48 2045.66 1359.08 Q2042.6 1363.67 2036.79 1363.67 Q2030.98 1363.67 2027.9 1359.08 Q2024.85 1354.48 2024.85 1345.75 Q2024.85 1337 2027.9 1332.42 Q2030.98 1327.81 2036.79 1327.81 Z" fill="#000000" fill-rule="evenodd" fill-opacity="1" /><path clip-path="url(#clip590)" d="M2056.95 1357.12 L2061.84 1357.12 L2061.84 1363 L2056.95 1363 L2056.95 1357.12 Z" fill="#000000" fill-rule="evenodd" fill-opacity="1" /><path clip-path="url(#clip590)" d="M2070.84 1328.44 L2093.06 1328.44 L2093.06 1330.43 L2080.52 1363 L2075.63 1363 L2087.44 1332.37 L2070.84 1332.37 L2070.84 1328.44 Z" fill="#000000" fill-rule="evenodd" fill-opacity="1" /><path clip-path="url(#clip590)" d="M2112.18 1331.52 Q2108.57 1331.52 2106.74 1335.08 Q2104.94 1338.62 2104.94 1345.75 Q2104.94 1352.86 2106.74 1356.42 Q2108.57 1359.96 2112.18 1359.96 Q2115.82 1359.96 2117.62 1356.42 Q2119.45 1352.86 2119.45 1345.75 Q2119.45 1338.62 2117.62 1335.08 Q2115.82 1331.52 2112.18 1331.52 M2112.18 1327.81 Q2117.99 1327.81 2121.05 1332.42 Q2124.13 1337 2124.13 1345.75 Q2124.13 1354.48 2121.05 1359.08 Q2117.99 1363.67 2112.18 1363.67 Q2106.37 1363.67 2103.29 1359.08 Q2100.24 1354.48 2100.24 1345.75 Q2100.24 1337 2103.29 1332.42 Q2106.37 1327.81 2112.18 1327.81 Z" fill="#000000" fill-rule="evenodd" fill-opacity="1" /><polyline clip-path="url(#clip592)" style="stroke:#000000; stroke-linecap:round; stroke-linejoin:round; stroke-width:2; stroke-opacity:0.1; fill:none" points="
  701.801,1012.41 1477.35,448.835 
  "/>
<polyline clip-path="url(#clip592)" style="stroke:#000000; stroke-linecap:round; stroke-linejoin:round; stroke-width:2; stroke-opacity:0.1; fill:none" points="
  1477.35,448.835 2128.11,1120.48 
  "/>
<polyline clip-path="url(#clip592)" style="stroke:#000000; stroke-linecap:round; stroke-linejoin:round; stroke-width:2; stroke-opacity:0.1; fill:none" points="
  701.801,895.599 1477.35,332.024 
  "/>
<polyline clip-path="url(#clip592)" style="stroke:#000000; stroke-linecap:round; stroke-linejoin:round; stroke-width:2; stroke-opacity:0.1; fill:none" points="
  1477.35,332.024 2128.11,1003.67 
  "/>
<polyline clip-path="url(#clip592)" style="stroke:#000000; stroke-linecap:round; stroke-linejoin:round; stroke-width:2; stroke-opacity:0.1; fill:none" points="
  701.801,778.789 1477.35,215.213 
  "/>
<polyline clip-path="url(#clip592)" style="stroke:#000000; stroke-linecap:round; stroke-linejoin:round; stroke-width:2; stroke-opacity:0.1; fill:none" points="
  1477.35,215.213 2128.11,886.856 
  "/>
<polyline clip-path="url(#clip592)" style="stroke:#000000; stroke-linecap:round; stroke-linejoin:round; stroke-width:2; stroke-opacity:0.1; fill:none" points="
  701.801,661.978 1477.35,98.4025 
  "/>
<polyline clip-path="url(#clip592)" style="stroke:#000000; stroke-linecap:round; stroke-linejoin:round; stroke-width:2; stroke-opacity:0.1; fill:none" points="
  1477.35,98.4025 2128.11,770.045 
  "/>
<polyline clip-path="url(#clip590)" style="stroke:#000000; stroke-linecap:round; stroke-linejoin:round; stroke-width:4; stroke-opacity:1; fill:none" points="
  701.801,1123.08 701.801,616.877 
  "/>
<polyline clip-path="url(#clip590)" style="stroke:#000000; stroke-linecap:round; stroke-linejoin:round; stroke-width:4; stroke-opacity:1; fill:none" points="
  701.801,1012.41 711.108,1005.65 
  "/>
<polyline clip-path="url(#clip590)" style="stroke:#000000; stroke-linecap:round; stroke-linejoin:round; stroke-width:4; stroke-opacity:1; fill:none" points="
  701.801,895.599 711.108,888.837 
  "/>
<polyline clip-path="url(#clip590)" style="stroke:#000000; stroke-linecap:round; stroke-linejoin:round; stroke-width:4; stroke-opacity:1; fill:none" points="
  701.801,778.789 711.108,772.026 
  "/>
<polyline clip-path="url(#clip590)" style="stroke:#000000; stroke-linecap:round; stroke-linejoin:round; stroke-width:4; stroke-opacity:1; fill:none" points="
  701.801,661.978 711.108,655.215 
  "/>
<path clip-path="url(#clip590)" d="M583.203 998.209 Q579.592 998.209 577.763 1001.77 Q575.958 1005.32 575.958 1012.44 Q575.958 1019.55 577.763 1023.12 Q579.592 1026.66 583.203 1026.66 Q586.837 1026.66 588.643 1023.12 Q590.472 1019.55 590.472 1012.44 Q590.472 1005.32 588.643 1001.77 Q586.837 998.209 583.203 998.209 M583.203 994.505 Q589.013 994.505 592.069 999.112 Q595.148 1003.7 595.148 1012.44 Q595.148 1021.17 592.069 1025.78 Q589.013 1030.36 583.203 1030.36 Q577.393 1030.36 574.314 1025.78 Q571.259 1021.17 571.259 1012.44 Q571.259 1003.7 574.314 999.112 Q577.393 994.505 583.203 994.505 Z" fill="#000000" fill-rule="evenodd" fill-opacity="1" /><path clip-path="url(#clip590)" d="M603.365 1023.81 L608.249 1023.81 L608.249 1029.69 L603.365 1029.69 L603.365 1023.81 Z" fill="#000000" fill-rule="evenodd" fill-opacity="1" /><path clip-path="url(#clip590)" d="M629.013 1010.55 Q625.865 1010.55 624.013 1012.7 Q622.184 1014.85 622.184 1018.6 Q622.184 1022.33 624.013 1024.51 Q625.865 1026.66 629.013 1026.66 Q632.161 1026.66 633.99 1024.51 Q635.842 1022.33 635.842 1018.6 Q635.842 1014.85 633.99 1012.7 Q632.161 1010.55 629.013 1010.55 M638.296 995.894 L638.296 1000.15 Q636.536 999.32 634.731 998.88 Q632.948 998.44 631.189 998.44 Q626.559 998.44 624.106 1001.57 Q621.675 1004.69 621.328 1011.01 Q622.694 1009 624.754 1007.93 Q626.814 1006.84 629.291 1006.84 Q634.499 1006.84 637.508 1010.01 Q640.541 1013.16 640.541 1018.6 Q640.541 1023.93 637.393 1027.14 Q634.245 1030.36 629.013 1030.36 Q623.018 1030.36 619.847 1025.78 Q616.675 1021.17 616.675 1012.44 Q616.675 1004.25 620.564 999.389 Q624.453 994.505 631.004 994.505 Q632.763 994.505 634.546 994.852 Q636.351 995.2 638.296 995.894 Z" fill="#000000" fill-rule="evenodd" fill-opacity="1" /><path clip-path="url(#clip590)" d="M648.643 995.13 L666.999 995.13 L666.999 999.065 L652.925 999.065 L652.925 1007.54 Q653.944 1007.19 654.962 1007.03 Q655.981 1006.84 656.999 1006.84 Q662.786 1006.84 666.166 1010.01 Q669.545 1013.19 669.545 1018.6 Q669.545 1024.18 666.073 1027.28 Q662.601 1030.36 656.282 1030.36 Q654.106 1030.36 651.837 1029.99 Q649.592 1029.62 647.184 1028.88 L647.184 1024.18 Q649.268 1025.32 651.49 1025.87 Q653.712 1026.43 656.189 1026.43 Q660.194 1026.43 662.531 1024.32 Q664.869 1022.21 664.869 1018.6 Q664.869 1014.99 662.531 1012.88 Q660.194 1010.78 656.189 1010.78 Q654.314 1010.78 652.439 1011.19 Q650.587 1011.61 648.643 1012.49 L648.643 995.13 Z" fill="#000000" fill-rule="evenodd" fill-opacity="1" /><path clip-path="url(#clip590)" d="M582.208 881.398 Q578.597 881.398 576.768 884.963 Q574.963 888.505 574.963 895.634 Q574.963 902.741 576.768 906.305 Q578.597 909.847 582.208 909.847 Q585.842 909.847 587.648 906.305 Q589.476 902.741 589.476 895.634 Q589.476 888.505 587.648 884.963 Q585.842 881.398 582.208 881.398 M582.208 877.694 Q588.018 877.694 591.074 882.301 Q594.152 886.884 594.152 895.634 Q594.152 904.361 591.074 908.967 Q588.018 913.551 582.208 913.551 Q576.398 913.551 573.319 908.967 Q570.263 904.361 570.263 895.634 Q570.263 886.884 573.319 882.301 Q576.398 877.694 582.208 877.694 Z" fill="#000000" fill-rule="evenodd" fill-opacity="1" /><path clip-path="url(#clip590)" d="M602.37 907 L607.254 907 L607.254 912.879 L602.37 912.879 L602.37 907 Z" fill="#000000" fill-rule="evenodd" fill-opacity="1" /><path clip-path="url(#clip590)" d="M616.259 878.319 L638.481 878.319 L638.481 880.31 L625.934 912.879 L621.05 912.879 L632.856 882.255 L616.259 882.255 L616.259 878.319 Z" fill="#000000" fill-rule="evenodd" fill-opacity="1" /><path clip-path="url(#clip590)" d="M657.601 881.398 Q653.99 881.398 652.161 884.963 Q650.356 888.505 650.356 895.634 Q650.356 902.741 652.161 906.305 Q653.99 909.847 657.601 909.847 Q661.235 909.847 663.041 906.305 Q664.869 902.741 664.869 895.634 Q664.869 888.505 663.041 884.963 Q661.235 881.398 657.601 881.398 M657.601 877.694 Q663.411 877.694 666.467 882.301 Q669.545 886.884 669.545 895.634 Q669.545 904.361 666.467 908.967 Q663.411 913.551 657.601 913.551 Q651.791 913.551 648.712 908.967 Q645.657 904.361 645.657 895.634 Q645.657 886.884 648.712 882.301 Q651.791 877.694 657.601 877.694 Z" fill="#000000" fill-rule="evenodd" fill-opacity="1" /><path clip-path="url(#clip590)" d="M583.203 764.587 Q579.592 764.587 577.763 768.152 Q575.958 771.694 575.958 778.823 Q575.958 785.93 577.763 789.495 Q579.592 793.036 583.203 793.036 Q586.837 793.036 588.643 789.495 Q590.472 785.93 590.472 778.823 Q590.472 771.694 588.643 768.152 Q586.837 764.587 583.203 764.587 M583.203 760.884 Q589.013 760.884 592.069 765.49 Q595.148 770.073 595.148 778.823 Q595.148 787.55 592.069 792.157 Q589.013 796.74 583.203 796.74 Q577.393 796.74 574.314 792.157 Q571.259 787.55 571.259 778.823 Q571.259 770.073 574.314 765.49 Q577.393 760.884 583.203 760.884 Z" fill="#000000" fill-rule="evenodd" fill-opacity="1" /><path clip-path="url(#clip590)" d="M603.365 790.189 L608.249 790.189 L608.249 796.069 L603.365 796.069 L603.365 790.189 Z" fill="#000000" fill-rule="evenodd" fill-opacity="1" /><path clip-path="url(#clip590)" d="M617.254 761.509 L639.476 761.509 L639.476 763.499 L626.93 796.069 L622.046 796.069 L633.851 765.444 L617.254 765.444 L617.254 761.509 Z" fill="#000000" fill-rule="evenodd" fill-opacity="1" /><path clip-path="url(#clip590)" d="M648.643 761.509 L666.999 761.509 L666.999 765.444 L652.925 765.444 L652.925 773.916 Q653.944 773.569 654.962 773.407 Q655.981 773.222 656.999 773.222 Q662.786 773.222 666.166 776.393 Q669.545 779.564 669.545 784.981 Q669.545 790.559 666.073 793.661 Q662.601 796.74 656.282 796.74 Q654.106 796.74 651.837 796.37 Q649.592 795.999 647.184 795.258 L647.184 790.559 Q649.268 791.694 651.49 792.249 Q653.712 792.805 656.189 792.805 Q660.194 792.805 662.531 790.698 Q664.869 788.592 664.869 784.981 Q664.869 781.37 662.531 779.263 Q660.194 777.157 656.189 777.157 Q654.314 777.157 652.439 777.573 Q650.587 777.99 648.643 778.87 L648.643 761.509 Z" fill="#000000" fill-rule="evenodd" fill-opacity="1" /><path clip-path="url(#clip590)" d="M582.208 647.777 Q578.597 647.777 576.768 651.341 Q574.963 654.883 574.963 662.013 Q574.963 669.119 576.768 672.684 Q578.597 676.225 582.208 676.225 Q585.842 676.225 587.648 672.684 Q589.476 669.119 589.476 662.013 Q589.476 654.883 587.648 651.341 Q585.842 647.777 582.208 647.777 M582.208 644.073 Q588.018 644.073 591.074 648.679 Q594.152 653.263 594.152 662.013 Q594.152 670.739 591.074 675.346 Q588.018 679.929 582.208 679.929 Q576.398 679.929 573.319 675.346 Q570.263 670.739 570.263 662.013 Q570.263 653.263 573.319 648.679 Q576.398 644.073 582.208 644.073 Z" fill="#000000" fill-rule="evenodd" fill-opacity="1" /><path clip-path="url(#clip590)" d="M602.37 673.378 L607.254 673.378 L607.254 679.258 L602.37 679.258 L602.37 673.378 Z" fill="#000000" fill-rule="evenodd" fill-opacity="1" /><path clip-path="url(#clip590)" d="M627.439 662.846 Q624.106 662.846 622.184 664.628 Q620.286 666.411 620.286 669.536 Q620.286 672.661 622.184 674.443 Q624.106 676.225 627.439 676.225 Q630.772 676.225 632.694 674.443 Q634.615 672.638 634.615 669.536 Q634.615 666.411 632.694 664.628 Q630.796 662.846 627.439 662.846 M622.763 660.855 Q619.754 660.114 618.064 658.054 Q616.397 655.994 616.397 653.031 Q616.397 648.888 619.337 646.48 Q622.3 644.073 627.439 644.073 Q632.601 644.073 635.541 646.48 Q638.481 648.888 638.481 653.031 Q638.481 655.994 636.791 658.054 Q635.124 660.114 632.138 660.855 Q635.518 661.642 637.393 663.934 Q639.291 666.226 639.291 669.536 Q639.291 674.559 636.212 677.244 Q633.157 679.929 627.439 679.929 Q621.722 679.929 618.643 677.244 Q615.587 674.559 615.587 669.536 Q615.587 666.226 617.485 663.934 Q619.384 661.642 622.763 660.855 M621.05 653.471 Q621.05 656.156 622.717 657.661 Q624.407 659.165 627.439 659.165 Q630.448 659.165 632.138 657.661 Q633.851 656.156 633.851 653.471 Q633.851 650.786 632.138 649.281 Q630.448 647.777 627.439 647.777 Q624.407 647.777 622.717 649.281 Q621.05 650.786 621.05 653.471 Z" fill="#000000" fill-rule="evenodd" fill-opacity="1" /><path clip-path="url(#clip590)" d="M657.601 647.777 Q653.99 647.777 652.161 651.341 Q650.356 654.883 650.356 662.013 Q650.356 669.119 652.161 672.684 Q653.99 676.225 657.601 676.225 Q661.235 676.225 663.041 672.684 Q664.869 669.119 664.869 662.013 Q664.869 654.883 663.041 651.341 Q661.235 647.777 657.601 647.777 M657.601 644.073 Q663.411 644.073 666.467 648.679 Q669.545 653.263 669.545 662.013 Q669.545 670.739 666.467 675.346 Q663.411 679.929 657.601 679.929 Q651.791 679.929 648.712 675.346 Q645.657 670.739 645.657 662.013 Q645.657 653.263 648.712 648.679 Q651.791 644.073 657.601 644.073 Z" fill="#000000" fill-rule="evenodd" fill-opacity="1" /><polyline clip-path="url(#clip592)" style="stroke:#000000; stroke-linecap:round; stroke-linejoin:round; stroke-width:8; stroke-opacity:1; fill:none" points="
  1204.83,1359.56 1204.83,1359.56 1207.35,1357.85 1230.64,1342.03 1244.63,1332.52 
  1256.46,1324.48 1269.31,1315.75 1281.16,1307.7 
  1293.87,1299.06 1308.58,1289.06 1321.66,1280.18 
  1333.13,1272.38 1345.64,1263.89 1358.22,1255.34 1372.12,1245.89 
  1385.36,1236.89 1399.12,1227.54 1410.7,1219.67 
  1424.84,1210.07 1437.79,1201.26 1449.76,1193.13 
  1461.87,1184.9 1475.46,1175.67 1487.76,1167.31 1501.86,1157.73 
  1514.9,1148.87 1527.77,1140.12 1540.25,1131.64 
  1553.06,1122.94 1567.08,1113.41 1587.46,1099.56 
  1591.64,1096.72 
  "/>
<polyline clip-path="url(#clip592)" style="stroke:#000000; stroke-linecap:round; stroke-linejoin:round; stroke-width:8; stroke-opacity:1; fill:none" points="
  1204.83,1359.56 1204.83,1359.56 1206.26,1353.99 1218.67,1302.45 1225.42,1271.51 
  1230.73,1245.39 1236.07,1217.05 1240.59,1190.96 
  1245.03,1163.02 1249.62,1130.73 1253.2,1102.08 
  1255.97,1077.02 1258.58,1049.75 1260.78,1022.39 1262.7,992.218 
  1264.05,963.598 1264.95,933.935 1265.3,909.045 
  1265.24,878.76 1264.7,851.122 1263.8,825.69 
  1262.5,800.023 1260.56,771.377 1258.37,745.532 1255.36,716.078 
  1252.09,688.942 1248.42,662.321 1244.42,636.605 
  1239.89,610.38 1234.42,581.812 1225.53,540.632 
  1223.57,532.231 
  "/>
<polyline clip-path="url(#clip592)" style="stroke:#000000; stroke-linecap:round; stroke-linejoin:round; stroke-width:8; stroke-opacity:1; fill:none" points="
  1204.83,1359.56 1204.83,1359.56 1207.03,1360.89 1227.25,1373.18 1239.33,1380.62 
  1249.49,1386.94 1260.48,1393.84 1270.57,1400.22 
  1281.35,1407.1 1293.76,1415.11 1304.74,1422.26 
  1314.33,1428.56 1324.73,1435.46 1335.15,1442.43 1346.61,1450.17 
  1357.46,1457.56 1368.68,1465.29 1378.08,1471.82 
  1389.5,1479.83 1399.91,1487.2 1409.47,1494.04 
  1419.11,1500.99 1429.86,1508.81 1439.55,1515.93 1450.58,1524.11 
  1460.74,1531.72 1470.7,1539.25 1480.32,1546.59 
  1490.13,1554.14 1500.81,1562.45 1516.22,1574.58 
  1519.36,1577.08 
  "/>
<polyline clip-path="url(#clip592)" style="stroke:#c271d2; stroke-linecap:round; stroke-linejoin:round; stroke-width:4; stroke-opacity:1; fill:none" points="
  1247.49,1146.19 1247.49,1146.19 1249.72,1147.33 1270.28,1157.95 1282.56,1164.39 
  1292.89,1169.87 1304.06,1175.85 1314.32,1181.41 
  1325.27,1187.39 1337.89,1194.37 1349.05,1200.62 
  1358.8,1206.12 1369.38,1212.16 1379.97,1218.26 1391.62,1225.06 
  1402.64,1231.56 1414.05,1238.35 1423.61,1244.11 
  1435.22,1251.17 1445.79,1257.68 1455.51,1263.73 
  1465.31,1269.88 1476.24,1276.81 1486.09,1283.12 1497.31,1290.39 
  1507.63,1297.16 1517.76,1303.87 1527.54,1310.41 
  1537.51,1317.15 1548.37,1324.58 1564.03,1335.44 
  1567.22,1337.68 
  "/>
<polyline clip-path="url(#clip592)" style="stroke:#ac8d18; stroke-linecap:round; stroke-linejoin:round; stroke-width:4; stroke-opacity:1; fill:none" points="
  1264.9,935.828 1264.9,935.828 1267.15,936.79 1287.85,945.76 1300.2,951.215 
  1310.6,955.865 1321.85,960.956 1332.18,965.685 
  1343.2,970.793 1355.91,976.761 1367.14,982.109 
  1376.95,986.833 1387.6,992.02 1398.26,997.277 1409.99,1003.13 
  1421.09,1008.75 1432.57,1014.63 1442.19,1019.62 
  1453.88,1025.75 1464.52,1031.41 1474.31,1036.67 
  1484.17,1042.04 1495.17,1048.1 1505.09,1053.62 1516.38,1059.99 
  1526.77,1065.93 1536.97,1071.82 1546.81,1077.58 
  1556.85,1083.52 1567.78,1090.08 1583.54,1099.68 
  1586.76,1101.66 
  "/>
<polyline clip-path="url(#clip592)" style="stroke:#00a9ad; stroke-linecap:round; stroke-linejoin:round; stroke-width:4; stroke-opacity:1; fill:none" points="
  1256.9,730.518 1256.9,730.518 1259.14,731.305 1279.78,738.664 1292.09,743.158 
  1302.46,746.999 1313.68,751.214 1323.97,755.14 
  1334.96,759.391 1347.63,764.37 1358.83,768.844 
  1368.61,772.805 1379.23,777.164 1389.85,781.59 1401.55,786.534 
  1412.61,791.285 1424.06,796.275 1433.65,800.514 
  1445.3,805.738 1455.92,810.57 1465.67,815.071 
  1475.51,819.67 1486.48,824.869 1496.36,829.622 1507.62,835.113 
  1517.98,840.243 1528.14,845.344 1537.95,850.338 
  1547.96,855.499 1558.86,861.202 1574.58,869.578 
  1577.78,871.309 
  "/>
<polyline clip-path="url(#clip592)" style="stroke:#ed5d92; stroke-linecap:round; stroke-linejoin:round; stroke-width:4; stroke-opacity:1; fill:none" points="
  1223.57,532.231 1223.57,532.231 1225.78,532.85 1246.15,538.654 1258.31,542.22 
  1268.55,545.279 1279.62,548.649 1289.79,551.799 
  1300.64,555.221 1313.15,559.246 1324.2,562.875 
  1333.86,566.099 1344.34,569.658 1354.83,573.284 1366.38,577.346 
  1377.3,581.263 1388.61,585.39 1398.08,588.906 
  1409.58,593.252 1420.06,597.284 1429.69,601.05 
  1439.4,604.907 1450.23,609.28 1459.99,613.288 1471.1,617.931 
  1481.33,622.28 1491.37,626.615 1501.06,630.869 
  1510.94,635.276 1521.7,640.157 1537.22,647.348 
  1540.38,648.838 
  "/>
<polyline clip-path="url(#clip592)" style="stroke:#c68125; stroke-linecap:round; stroke-linejoin:round; stroke-width:4; stroke-opacity:1; fill:none" points="
  1287.82,1411.27 1287.82,1411.27 1289.3,1405.51 1302.1,1352.31 1309.08,1320.39 
  1314.56,1293.42 1320.06,1264.17 1324.74,1237.23 
  1329.31,1208.4 1334.05,1175.07 1337.75,1145.5 
  1340.61,1119.63 1343.3,1091.49 1345.57,1063.24 1347.56,1032.1 
  1348.95,1002.56 1349.87,971.942 1350.24,946.251 
  1350.17,914.991 1349.62,886.464 1348.7,860.213 
  1347.35,833.721 1345.35,804.152 1343.08,777.475 1339.98,747.073 
  1336.6,719.064 1332.81,691.587 1328.69,665.043 
  1324.01,637.974 1318.36,608.487 1309.19,565.981 
  1307.16,557.31 
  "/>
<polyline clip-path="url(#clip592)" style="stroke:#00a98d; stroke-linecap:round; stroke-linejoin:round; stroke-width:4; stroke-opacity:1; fill:none" points="
  1367.97,1464.8 1367.97,1464.8 1369.49,1458.87 1382.68,1404.07 1389.86,1371.18 
  1395.5,1343.4 1401.18,1313.26 1405.99,1285.52 
  1410.7,1255.82 1415.58,1221.48 1419.4,1191.03 
  1422.34,1164.38 1425.11,1135.38 1427.45,1106.29 1429.5,1074.21 
  1430.93,1043.78 1431.88,1012.24 1432.26,985.776 
  1432.19,953.575 1431.63,924.189 1430.67,897.148 
  1429.28,869.857 1427.22,839.399 1424.89,811.919 1421.69,780.601 
  1418.21,751.749 1414.31,723.444 1410.06,696.101 
  1405.24,668.217 1399.43,637.842 1389.97,594.056 
  1387.89,585.125 
  "/>
<polyline clip-path="url(#clip592)" style="stroke:#8e971d; stroke-linecap:round; stroke-linejoin:round; stroke-width:4; stroke-opacity:1; fill:none" points="
  1445.17,1520.09 1445.17,1520.09 1446.73,1513.99 1460.3,1457.65 1467.68,1423.83 
  1473.48,1395.27 1479.32,1364.29 1484.27,1335.76 
  1489.11,1305.23 1494.13,1269.92 1498.05,1238.61 
  1501.08,1211.21 1503.93,1181.4 1506.33,1151.48 1508.44,1118.5 
  1509.91,1087.22 1510.89,1054.79 1511.28,1027.58 
  1511.21,994.47 1510.63,964.257 1509.64,936.454 
  1508.21,908.395 1506.09,877.079 1503.7,848.825 1500.41,816.626 
  1496.84,786.961 1492.82,757.859 1488.45,729.746 
  1483.5,701.077 1477.52,669.846 1467.8,624.828 
  1465.65,615.645 
  "/>
<polyline clip-path="url(#clip592)" style="stroke:#00a8cb; stroke-linecap:round; stroke-linejoin:round; stroke-width:4; stroke-opacity:1; fill:none" points="
  1519.36,1577.08 1519.36,1577.08 1520.96,1570.82 1534.88,1513 1542.46,1478.29 
  1548.42,1448.98 1554.4,1417.18 1559.48,1387.91 
  1564.46,1356.57 1569.61,1320.33 1573.63,1288.2 
  1576.74,1260.07 1579.66,1229.48 1582.13,1198.78 1584.29,1164.93 
  1585.8,1132.82 1586.81,1099.54 1587.2,1071.61 
  1587.13,1037.63 1586.54,1006.62 1585.53,978.09 
  1584.06,949.292 1581.89,917.152 1579.43,888.154 1576.05,855.108 
  1572.38,824.662 1568.26,794.795 1563.78,765.942 
  1558.7,736.518 1552.56,704.466 1542.58,658.262 
  1540.38,648.838 
  "/>
<polyline clip-path="url(#clip592)" style="stroke:#0000ff; stroke-linecap:round; stroke-linejoin:round; stroke-width:16; stroke-opacity:1; fill:none" points="
  1204.83,1359.56 1376.75,1242.74 
  "/>
<polyline clip-path="url(#clip592)" style="stroke:#0000ff; stroke-linecap:round; stroke-linejoin:round; stroke-width:16; stroke-opacity:1; fill:none" points="
  1204.83,1359.56 1345.31,814.093 
  "/>
<polyline clip-path="url(#clip592)" style="stroke:#0000ff; stroke-linecap:round; stroke-linejoin:round; stroke-width:16; stroke-opacity:1; fill:none" points="
  1204.83,1359.56 1462.7,1514.73 
  "/>
</svg>
