<?xml version="1.0" encoding="utf-8"?>
<svg xmlns="http://www.w3.org/2000/svg" xmlns:xlink="http://www.w3.org/1999/xlink" width="672" height="480" viewBox="0 0 2688 1920">
<defs>
  <clipPath id="clip240">
    <rect x="0" y="0" width="2688" height="1920"/>
  </clipPath>
</defs>
<path clip-path="url(#clip240)" d="
M0 1920 L2688 1920 L2688 0 L0 0  Z
  " fill="#ffffff" fill-rule="evenodd" fill-opacity="1"/>
<defs>
  <clipPath id="clip241">
    <rect x="537" y="0" width="1883" height="1883"/>
  </clipPath>
</defs>
<defs>
  <clipPath id="clip242">
    <rect x="189" y="47" width="2453" height="1755"/>
  </clipPath>
</defs>
<path clip-path="url(#clip242)" d="
M-5005.11 5258.62 L-5005.11 2473.33 L-1098.14 -627.655 L2180.19 3067.95 L2180.19 5853.25 L-1726.78 8954.23 L-5005.11 5258.62  Z
  " fill="#ffffff" fill-rule="evenodd" fill-opacity="1"/>
<polyline clip-path="url(#clip242)" style="stroke:#000000; stroke-linecap:butt; stroke-linejoin:round; stroke-width:2; stroke-opacity:0.1; fill:none" points="
  768.414,1191.83 1543.96,628.253 
  "/>
<polyline clip-path="url(#clip242)" style="stroke:#000000; stroke-linecap:butt; stroke-linejoin:round; stroke-width:2; stroke-opacity:0.1; fill:none" points="
  1543.96,628.253 1543.96,122.051 
  "/>
<polyline clip-path="url(#clip242)" style="stroke:#000000; stroke-linecap:butt; stroke-linejoin:round; stroke-width:2; stroke-opacity:0.1; fill:none" points="
  932.33,1361.01 1707.88,797.43 
  "/>
<polyline clip-path="url(#clip242)" style="stroke:#000000; stroke-linecap:butt; stroke-linejoin:round; stroke-width:2; stroke-opacity:0.1; fill:none" points="
  1707.88,797.43 1707.88,291.228 
  "/>
<polyline clip-path="url(#clip242)" style="stroke:#000000; stroke-linecap:butt; stroke-linejoin:round; stroke-width:2; stroke-opacity:0.1; fill:none" points="
  1096.25,1530.18 1871.79,966.606 
  "/>
<polyline clip-path="url(#clip242)" style="stroke:#000000; stroke-linecap:butt; stroke-linejoin:round; stroke-width:2; stroke-opacity:0.1; fill:none" points="
  1871.79,966.606 1871.79,460.404 
  "/>
<polyline clip-path="url(#clip242)" style="stroke:#000000; stroke-linecap:butt; stroke-linejoin:round; stroke-width:2; stroke-opacity:0.1; fill:none" points="
  1260.16,1699.36 2035.71,1135.78 
  "/>
<polyline clip-path="url(#clip242)" style="stroke:#000000; stroke-linecap:butt; stroke-linejoin:round; stroke-width:2; stroke-opacity:0.1; fill:none" points="
  2035.71,1135.78 2035.71,629.581 
  "/>
<polyline clip-path="url(#clip240)" style="stroke:#000000; stroke-linecap:butt; stroke-linejoin:round; stroke-width:4; stroke-opacity:1; fill:none" points="
  701.801,1123.08 1352.56,1794.72 
  "/>
<polyline clip-path="url(#clip240)" style="stroke:#000000; stroke-linecap:butt; stroke-linejoin:round; stroke-width:4; stroke-opacity:1; fill:none" points="
  768.414,1191.83 777.72,1185.07 
  "/>
<polyline clip-path="url(#clip240)" style="stroke:#000000; stroke-linecap:butt; stroke-linejoin:round; stroke-width:4; stroke-opacity:1; fill:none" points="
  932.33,1361.01 941.637,1354.24 
  "/>
<polyline clip-path="url(#clip240)" style="stroke:#000000; stroke-linecap:butt; stroke-linejoin:round; stroke-width:4; stroke-opacity:1; fill:none" points="
  1096.25,1530.18 1105.55,1523.42 
  "/>
<polyline clip-path="url(#clip240)" style="stroke:#000000; stroke-linecap:butt; stroke-linejoin:round; stroke-width:4; stroke-opacity:1; fill:none" points="
  1260.16,1699.36 1269.47,1692.6 
  "/>
<path clip-path="url(#clip240)" d="M687.756 1199.03 Q684.145 1199.03 682.316 1202.6 Q680.511 1206.14 680.511 1213.27 Q680.511 1220.38 682.316 1223.94 Q684.145 1227.48 687.756 1227.48 Q691.391 1227.48 693.196 1223.94 Q695.025 1220.38 695.025 1213.27 Q695.025 1206.14 693.196 1202.6 Q691.391 1199.03 687.756 1199.03 M687.756 1195.33 Q693.566 1195.33 696.622 1199.94 Q699.701 1204.52 699.701 1213.27 Q699.701 1222 696.622 1226.6 Q693.566 1231.19 687.756 1231.19 Q681.946 1231.19 678.867 1226.6 Q675.812 1222 675.812 1213.27 Q675.812 1204.52 678.867 1199.94 Q681.946 1195.33 687.756 1195.33 Z" fill="#000000" fill-rule="evenodd" fill-opacity="1" /><path clip-path="url(#clip240)" d="M707.918 1224.63 L712.802 1224.63 L712.802 1230.51 L707.918 1230.51 L707.918 1224.63 Z" fill="#000000" fill-rule="evenodd" fill-opacity="1" /><path clip-path="url(#clip240)" d="M737.154 1211.88 Q740.511 1212.6 742.386 1214.87 Q744.284 1217.13 744.284 1220.47 Q744.284 1225.58 740.765 1228.38 Q737.247 1231.19 730.765 1231.19 Q728.589 1231.19 726.275 1230.75 Q723.983 1230.33 721.529 1229.47 L721.529 1224.96 Q723.474 1226.09 725.788 1226.67 Q728.103 1227.25 730.626 1227.25 Q735.025 1227.25 737.316 1225.51 Q739.631 1223.78 739.631 1220.47 Q739.631 1217.41 737.478 1215.7 Q735.349 1213.96 731.529 1213.96 L727.501 1213.96 L727.501 1210.12 L731.714 1210.12 Q735.163 1210.12 736.992 1208.76 Q738.821 1207.37 738.821 1204.77 Q738.821 1202.11 736.923 1200.7 Q735.048 1199.26 731.529 1199.26 Q729.608 1199.26 727.409 1199.68 Q725.21 1200.1 722.571 1200.98 L722.571 1196.81 Q725.233 1196.07 727.548 1195.7 Q729.886 1195.33 731.946 1195.33 Q737.27 1195.33 740.372 1197.76 Q743.474 1200.17 743.474 1204.29 Q743.474 1207.16 741.83 1209.15 Q740.187 1211.12 737.154 1211.88 Z" fill="#000000" fill-rule="evenodd" fill-opacity="1" /><path clip-path="url(#clip240)" d="M850.539 1368.21 Q846.927 1368.21 845.099 1371.77 Q843.293 1375.32 843.293 1382.45 Q843.293 1389.55 845.099 1393.12 Q846.927 1396.66 850.539 1396.66 Q854.173 1396.66 855.978 1393.12 Q857.807 1389.55 857.807 1382.45 Q857.807 1375.32 855.978 1371.77 Q854.173 1368.21 850.539 1368.21 M850.539 1364.51 Q856.349 1364.51 859.404 1369.11 Q862.483 1373.7 862.483 1382.45 Q862.483 1391.17 859.404 1395.78 Q856.349 1400.36 850.539 1400.36 Q844.728 1400.36 841.65 1395.78 Q838.594 1391.17 838.594 1382.45 Q838.594 1373.7 841.65 1369.11 Q844.728 1364.51 850.539 1364.51 Z" fill="#000000" fill-rule="evenodd" fill-opacity="1" /><path clip-path="url(#clip240)" d="M870.7 1393.81 L875.585 1393.81 L875.585 1399.69 L870.7 1399.69 L870.7 1393.81 Z" fill="#000000" fill-rule="evenodd" fill-opacity="1" /><path clip-path="url(#clip240)" d="M898.617 1369.2 L886.811 1387.65 L898.617 1387.65 L898.617 1369.2 M897.39 1365.13 L903.27 1365.13 L903.27 1387.65 L908.2 1387.65 L908.2 1391.54 L903.27 1391.54 L903.27 1399.69 L898.617 1399.69 L898.617 1391.54 L883.015 1391.54 L883.015 1387.03 L897.39 1365.13 Z" fill="#000000" fill-rule="evenodd" fill-opacity="1" /><path clip-path="url(#clip240)" d="M1015.94 1537.39 Q1012.33 1537.39 1010.5 1540.95 Q1008.69 1544.49 1008.69 1551.62 Q1008.69 1558.73 1010.5 1562.29 Q1012.33 1565.83 1015.94 1565.83 Q1019.57 1565.83 1021.38 1562.29 Q1023.21 1558.73 1023.21 1551.62 Q1023.21 1544.49 1021.38 1540.95 Q1019.57 1537.39 1015.94 1537.39 M1015.94 1533.68 Q1021.75 1533.68 1024.8 1538.29 Q1027.88 1542.87 1027.88 1551.62 Q1027.88 1560.35 1024.8 1564.96 Q1021.75 1569.54 1015.94 1569.54 Q1010.13 1569.54 1007.05 1564.96 Q1003.99 1560.35 1003.99 1551.62 Q1003.99 1542.87 1007.05 1538.29 Q1010.13 1533.68 1015.94 1533.68 Z" fill="#000000" fill-rule="evenodd" fill-opacity="1" /><path clip-path="url(#clip240)" d="M1036.1 1562.99 L1040.98 1562.99 L1040.98 1568.87 L1036.1 1568.87 L1036.1 1562.99 Z" fill="#000000" fill-rule="evenodd" fill-opacity="1" /><path clip-path="url(#clip240)" d="M1051.21 1534.31 L1069.57 1534.31 L1069.57 1538.24 L1055.5 1538.24 L1055.5 1546.71 Q1056.52 1546.37 1057.53 1546.21 Q1058.55 1546.02 1059.57 1546.02 Q1065.36 1546.02 1068.74 1549.19 Q1072.12 1552.36 1072.12 1557.78 Q1072.12 1563.36 1068.64 1566.46 Q1065.17 1569.54 1058.85 1569.54 Q1056.68 1569.54 1054.41 1569.17 Q1052.16 1568.8 1049.76 1568.06 L1049.76 1563.36 Q1051.84 1564.49 1054.06 1565.05 Q1056.28 1565.6 1058.76 1565.6 Q1062.76 1565.6 1065.1 1563.5 Q1067.44 1561.39 1067.44 1557.78 Q1067.44 1554.17 1065.1 1552.06 Q1062.76 1549.96 1058.76 1549.96 Q1056.89 1549.96 1055.01 1550.37 Q1053.16 1550.79 1051.21 1551.67 L1051.21 1534.31 Z" fill="#000000" fill-rule="evenodd" fill-opacity="1" /><path clip-path="url(#clip240)" d="M1178.7 1706.56 Q1175.08 1706.56 1173.26 1710.13 Q1171.45 1713.67 1171.45 1720.8 Q1171.45 1727.9 1173.26 1731.47 Q1175.08 1735.01 1178.7 1735.01 Q1182.33 1735.01 1184.14 1731.47 Q1185.96 1727.9 1185.96 1720.8 Q1185.96 1713.67 1184.14 1710.13 Q1182.33 1706.56 1178.7 1706.56 M1178.7 1702.86 Q1184.51 1702.86 1187.56 1707.46 Q1190.64 1712.05 1190.64 1720.8 Q1190.64 1729.53 1187.56 1734.13 Q1184.51 1738.71 1178.7 1738.71 Q1172.89 1738.71 1169.81 1734.13 Q1166.75 1729.53 1166.75 1720.8 Q1166.75 1712.05 1169.81 1707.46 Q1172.89 1702.86 1178.7 1702.86 Z" fill="#000000" fill-rule="evenodd" fill-opacity="1" /><path clip-path="url(#clip240)" d="M1198.86 1732.16 L1203.74 1732.16 L1203.74 1738.04 L1198.86 1738.04 L1198.86 1732.16 Z" fill="#000000" fill-rule="evenodd" fill-opacity="1" /><path clip-path="url(#clip240)" d="M1224.51 1718.9 Q1221.36 1718.9 1219.51 1721.05 Q1217.68 1723.21 1217.68 1726.96 Q1217.68 1730.68 1219.51 1732.86 Q1221.36 1735.01 1224.51 1735.01 Q1227.65 1735.01 1229.48 1732.86 Q1231.33 1730.68 1231.33 1726.96 Q1231.33 1723.21 1229.48 1721.05 Q1227.65 1718.9 1224.51 1718.9 M1233.79 1704.25 L1233.79 1708.51 Q1232.03 1707.67 1230.22 1707.23 Q1228.44 1706.79 1226.68 1706.79 Q1222.05 1706.79 1219.6 1709.92 Q1217.17 1713.04 1216.82 1719.36 Q1218.19 1717.35 1220.25 1716.28 Q1222.31 1715.2 1224.78 1715.2 Q1229.99 1715.2 1233 1718.37 Q1236.03 1721.52 1236.03 1726.96 Q1236.03 1732.28 1232.89 1735.5 Q1229.74 1738.71 1224.51 1738.71 Q1218.51 1738.71 1215.34 1734.13 Q1212.17 1729.53 1212.17 1720.8 Q1212.17 1712.6 1216.06 1707.74 Q1219.95 1702.86 1226.5 1702.86 Q1228.26 1702.86 1230.04 1703.21 Q1231.84 1703.55 1233.79 1704.25 Z" fill="#000000" fill-rule="evenodd" fill-opacity="1" /><polyline clip-path="url(#clip242)" style="stroke:#000000; stroke-linecap:butt; stroke-linejoin:round; stroke-width:2; stroke-opacity:0.1; fill:none" points="
  1374.51,1778.77 723.751,1107.13 
  "/>
<polyline clip-path="url(#clip242)" style="stroke:#000000; stroke-linecap:butt; stroke-linejoin:round; stroke-width:2; stroke-opacity:0.1; fill:none" points="
  723.751,1107.13 723.751,600.927 
  "/>
<polyline clip-path="url(#clip242)" style="stroke:#000000; stroke-linecap:butt; stroke-linejoin:round; stroke-width:2; stroke-opacity:0.1; fill:none" points="
  1587.88,1623.72 937.117,952.08 
  "/>
<polyline clip-path="url(#clip242)" style="stroke:#000000; stroke-linecap:butt; stroke-linejoin:round; stroke-width:2; stroke-opacity:0.1; fill:none" points="
  937.117,952.08 937.117,445.878 
  "/>
<polyline clip-path="url(#clip242)" style="stroke:#000000; stroke-linecap:butt; stroke-linejoin:round; stroke-width:2; stroke-opacity:0.1; fill:none" points="
  1801.24,1468.67 1150.48,797.03 
  "/>
<polyline clip-path="url(#clip242)" style="stroke:#000000; stroke-linecap:butt; stroke-linejoin:round; stroke-width:2; stroke-opacity:0.1; fill:none" points="
  1150.48,797.03 1150.48,290.828 
  "/>
<polyline clip-path="url(#clip242)" style="stroke:#000000; stroke-linecap:butt; stroke-linejoin:round; stroke-width:2; stroke-opacity:0.1; fill:none" points="
  2014.61,1313.62 1363.85,641.981 
  "/>
<polyline clip-path="url(#clip242)" style="stroke:#000000; stroke-linecap:butt; stroke-linejoin:round; stroke-width:2; stroke-opacity:0.1; fill:none" points="
  1363.85,641.981 1363.85,135.779 
  "/>
<polyline clip-path="url(#clip240)" style="stroke:#000000; stroke-linecap:butt; stroke-linejoin:round; stroke-width:4; stroke-opacity:1; fill:none" points="
  1352.56,1794.72 2128.11,1231.15 
  "/>
<polyline clip-path="url(#clip240)" style="stroke:#000000; stroke-linecap:butt; stroke-linejoin:round; stroke-width:4; stroke-opacity:1; fill:none" points="
  1374.51,1778.77 1366.7,1770.71 
  "/>
<polyline clip-path="url(#clip240)" style="stroke:#000000; stroke-linecap:butt; stroke-linejoin:round; stroke-width:4; stroke-opacity:1; fill:none" points="
  1587.88,1623.72 1580.07,1615.66 
  "/>
<polyline clip-path="url(#clip240)" style="stroke:#000000; stroke-linecap:butt; stroke-linejoin:round; stroke-width:4; stroke-opacity:1; fill:none" points="
  1801.24,1468.67 1793.43,1460.61 
  "/>
<polyline clip-path="url(#clip240)" style="stroke:#000000; stroke-linecap:butt; stroke-linejoin:round; stroke-width:4; stroke-opacity:1; fill:none" points="
  2014.61,1313.62 2006.8,1305.56 
  "/>
<path clip-path="url(#clip240)" d="M1406.51 1789.84 Q1402.9 1789.84 1401.07 1793.4 Q1399.26 1796.94 1399.26 1804.07 Q1399.26 1811.18 1401.07 1814.74 Q1402.9 1818.28 1406.51 1818.28 Q1410.14 1818.28 1411.95 1814.74 Q1413.78 1811.18 1413.78 1804.07 Q1413.78 1796.94 1411.95 1793.4 Q1410.14 1789.84 1406.51 1789.84 M1406.51 1786.13 Q1412.32 1786.13 1415.37 1790.74 Q1418.45 1795.32 1418.45 1804.07 Q1418.45 1812.8 1415.37 1817.4 Q1412.32 1821.99 1406.51 1821.99 Q1400.7 1821.99 1397.62 1817.4 Q1394.56 1812.8 1394.56 1804.07 Q1394.56 1795.32 1397.62 1790.74 Q1400.7 1786.13 1406.51 1786.13 Z" fill="#000000" fill-rule="evenodd" fill-opacity="1" /><path clip-path="url(#clip240)" d="M1426.67 1815.44 L1431.56 1815.44 L1431.56 1821.32 L1426.67 1821.32 L1426.67 1815.44 Z" fill="#000000" fill-rule="evenodd" fill-opacity="1" /><path clip-path="url(#clip240)" d="M1441.79 1786.76 L1460.14 1786.76 L1460.14 1790.69 L1446.07 1790.69 L1446.07 1799.16 Q1447.09 1798.82 1448.11 1798.65 Q1449.12 1798.47 1450.14 1798.47 Q1455.93 1798.47 1459.31 1801.64 Q1462.69 1804.81 1462.69 1810.23 Q1462.69 1815.81 1459.22 1818.91 Q1455.74 1821.99 1449.43 1821.99 Q1447.25 1821.99 1444.98 1821.62 Q1442.74 1821.25 1440.33 1820.51 L1440.33 1815.81 Q1442.41 1816.94 1444.63 1817.5 Q1446.86 1818.05 1449.33 1818.05 Q1453.34 1818.05 1455.68 1815.95 Q1458.01 1813.84 1458.01 1810.23 Q1458.01 1806.62 1455.68 1804.51 Q1453.34 1802.4 1449.33 1802.4 Q1447.46 1802.4 1445.58 1802.82 Q1443.73 1803.24 1441.79 1804.12 L1441.79 1786.76 Z" fill="#000000" fill-rule="evenodd" fill-opacity="1" /><path clip-path="url(#clip240)" d="M1619.87 1634.79 Q1616.26 1634.79 1614.44 1638.35 Q1612.63 1641.89 1612.63 1649.02 Q1612.63 1656.13 1614.44 1659.69 Q1616.26 1663.24 1619.87 1663.24 Q1623.51 1663.24 1625.31 1659.69 Q1627.14 1656.13 1627.14 1649.02 Q1627.14 1641.89 1625.31 1638.35 Q1623.51 1634.79 1619.87 1634.79 M1619.87 1631.08 Q1625.69 1631.08 1628.74 1635.69 Q1631.82 1640.27 1631.82 1649.02 Q1631.82 1657.75 1628.74 1662.36 Q1625.69 1666.94 1619.87 1666.94 Q1614.06 1666.94 1610.99 1662.36 Q1607.93 1657.75 1607.93 1649.02 Q1607.93 1640.27 1610.99 1635.69 Q1614.06 1631.08 1619.87 1631.08 Z" fill="#000000" fill-rule="evenodd" fill-opacity="1" /><path clip-path="url(#clip240)" d="M1640.04 1660.39 L1644.92 1660.39 L1644.92 1666.27 L1640.04 1666.27 L1640.04 1660.39 Z" fill="#000000" fill-rule="evenodd" fill-opacity="1" /><path clip-path="url(#clip240)" d="M1665.68 1647.12 Q1662.54 1647.12 1660.68 1649.28 Q1658.86 1651.43 1658.86 1655.18 Q1658.86 1658.91 1660.68 1661.08 Q1662.54 1663.24 1665.68 1663.24 Q1668.83 1663.24 1670.66 1661.08 Q1672.51 1658.91 1672.51 1655.18 Q1672.51 1651.43 1670.66 1649.28 Q1668.83 1647.12 1665.68 1647.12 M1674.97 1632.47 L1674.97 1636.73 Q1673.21 1635.9 1671.4 1635.46 Q1669.62 1635.02 1667.86 1635.02 Q1663.23 1635.02 1660.78 1638.14 Q1658.35 1641.27 1658 1647.59 Q1659.37 1645.57 1661.43 1644.51 Q1663.49 1643.42 1665.96 1643.42 Q1671.17 1643.42 1674.18 1646.59 Q1677.21 1649.74 1677.21 1655.18 Q1677.21 1660.5 1674.06 1663.72 Q1670.92 1666.94 1665.68 1666.94 Q1659.69 1666.94 1656.52 1662.36 Q1653.35 1657.75 1653.35 1649.02 Q1653.35 1640.83 1657.24 1635.97 Q1661.12 1631.08 1667.68 1631.08 Q1669.43 1631.08 1671.22 1631.43 Q1673.02 1631.78 1674.97 1632.47 Z" fill="#000000" fill-rule="evenodd" fill-opacity="1" /><path clip-path="url(#clip240)" d="M1833.24 1479.74 Q1829.63 1479.74 1827.8 1483.3 Q1826 1486.84 1826 1493.97 Q1826 1501.08 1827.8 1504.64 Q1829.63 1508.19 1833.24 1508.19 Q1836.88 1508.19 1838.68 1504.64 Q1840.51 1501.08 1840.51 1493.97 Q1840.51 1486.84 1838.68 1483.3 Q1836.88 1479.74 1833.24 1479.74 M1833.24 1476.03 Q1839.05 1476.03 1842.11 1480.64 Q1845.19 1485.22 1845.19 1493.97 Q1845.19 1502.7 1842.11 1507.31 Q1839.05 1511.89 1833.24 1511.89 Q1827.43 1511.89 1824.35 1507.31 Q1821.3 1502.7 1821.3 1493.97 Q1821.3 1485.22 1824.35 1480.64 Q1827.43 1476.03 1833.24 1476.03 Z" fill="#000000" fill-rule="evenodd" fill-opacity="1" /><path clip-path="url(#clip240)" d="M1853.4 1505.34 L1858.29 1505.34 L1858.29 1511.22 L1853.4 1511.22 L1853.4 1505.34 Z" fill="#000000" fill-rule="evenodd" fill-opacity="1" /><path clip-path="url(#clip240)" d="M1867.29 1476.66 L1889.51 1476.66 L1889.51 1478.65 L1876.97 1511.22 L1872.08 1511.22 L1883.89 1480.59 L1867.29 1480.59 L1867.29 1476.66 Z" fill="#000000" fill-rule="evenodd" fill-opacity="1" /><path clip-path="url(#clip240)" d="M2046.61 1324.69 Q2043 1324.69 2041.17 1328.25 Q2039.36 1331.79 2039.36 1338.92 Q2039.36 1346.03 2041.17 1349.6 Q2043 1353.14 2046.61 1353.14 Q2050.24 1353.14 2052.05 1349.6 Q2053.88 1346.03 2053.88 1338.92 Q2053.88 1331.79 2052.05 1328.25 Q2050.24 1324.69 2046.61 1324.69 M2046.61 1320.98 Q2052.42 1320.98 2055.47 1325.59 Q2058.55 1330.17 2058.55 1338.92 Q2058.55 1347.65 2055.47 1352.26 Q2052.42 1356.84 2046.61 1356.84 Q2040.8 1356.84 2037.72 1352.26 Q2034.66 1347.65 2034.66 1338.92 Q2034.66 1330.17 2037.72 1325.59 Q2040.8 1320.98 2046.61 1320.98 Z" fill="#000000" fill-rule="evenodd" fill-opacity="1" /><path clip-path="url(#clip240)" d="M2066.77 1350.29 L2071.65 1350.29 L2071.65 1356.17 L2066.77 1356.17 L2066.77 1350.29 Z" fill="#000000" fill-rule="evenodd" fill-opacity="1" /><path clip-path="url(#clip240)" d="M2091.84 1339.76 Q2088.5 1339.76 2086.58 1341.54 Q2084.69 1343.32 2084.69 1346.45 Q2084.69 1349.57 2086.58 1351.35 Q2088.5 1353.14 2091.84 1353.14 Q2095.17 1353.14 2097.09 1351.35 Q2099.01 1349.55 2099.01 1346.45 Q2099.01 1343.32 2097.09 1341.54 Q2095.19 1339.76 2091.84 1339.76 M2087.16 1337.77 Q2084.15 1337.03 2082.46 1334.97 Q2080.8 1332.91 2080.8 1329.94 Q2080.8 1325.8 2083.74 1323.39 Q2086.7 1320.98 2091.84 1320.98 Q2097 1320.98 2099.94 1323.39 Q2102.88 1325.8 2102.88 1329.94 Q2102.88 1332.91 2101.19 1334.97 Q2099.52 1337.03 2096.54 1337.77 Q2099.92 1338.55 2101.79 1340.85 Q2103.69 1343.14 2103.69 1346.45 Q2103.69 1351.47 2100.61 1354.16 Q2097.56 1356.84 2091.84 1356.84 Q2086.12 1356.84 2083.04 1354.16 Q2079.99 1351.47 2079.99 1346.45 Q2079.99 1343.14 2081.88 1340.85 Q2083.78 1338.55 2087.16 1337.77 M2085.45 1330.38 Q2085.45 1333.07 2087.12 1334.57 Q2088.81 1336.08 2091.84 1336.08 Q2094.85 1336.08 2096.54 1334.57 Q2098.25 1333.07 2098.25 1330.38 Q2098.25 1327.7 2096.54 1326.19 Q2094.85 1324.69 2091.84 1324.69 Q2088.81 1324.69 2087.12 1326.19 Q2085.45 1327.7 2085.45 1330.38 Z" fill="#000000" fill-rule="evenodd" fill-opacity="1" /><polyline clip-path="url(#clip242)" style="stroke:#000000; stroke-linecap:butt; stroke-linejoin:round; stroke-width:2; stroke-opacity:0.1; fill:none" points="
  701.801,1012.41 1477.35,448.835 
  "/>
<polyline clip-path="url(#clip242)" style="stroke:#000000; stroke-linecap:butt; stroke-linejoin:round; stroke-width:2; stroke-opacity:0.1; fill:none" points="
  1477.35,448.835 2128.11,1120.48 
  "/>
<polyline clip-path="url(#clip242)" style="stroke:#000000; stroke-linecap:butt; stroke-linejoin:round; stroke-width:2; stroke-opacity:0.1; fill:none" points="
  701.801,895.599 1477.35,332.024 
  "/>
<polyline clip-path="url(#clip242)" style="stroke:#000000; stroke-linecap:butt; stroke-linejoin:round; stroke-width:2; stroke-opacity:0.1; fill:none" points="
  1477.35,332.024 2128.11,1003.67 
  "/>
<polyline clip-path="url(#clip242)" style="stroke:#000000; stroke-linecap:butt; stroke-linejoin:round; stroke-width:2; stroke-opacity:0.1; fill:none" points="
  701.801,778.789 1477.35,215.213 
  "/>
<polyline clip-path="url(#clip242)" style="stroke:#000000; stroke-linecap:butt; stroke-linejoin:round; stroke-width:2; stroke-opacity:0.1; fill:none" points="
  1477.35,215.213 2128.11,886.856 
  "/>
<polyline clip-path="url(#clip242)" style="stroke:#000000; stroke-linecap:butt; stroke-linejoin:round; stroke-width:2; stroke-opacity:0.1; fill:none" points="
  701.801,661.978 1477.35,98.4025 
  "/>
<polyline clip-path="url(#clip242)" style="stroke:#000000; stroke-linecap:butt; stroke-linejoin:round; stroke-width:2; stroke-opacity:0.1; fill:none" points="
  1477.35,98.4025 2128.11,770.045 
  "/>
<polyline clip-path="url(#clip240)" style="stroke:#000000; stroke-linecap:butt; stroke-linejoin:round; stroke-width:4; stroke-opacity:1; fill:none" points="
  701.801,1123.08 701.801,616.877 
  "/>
<polyline clip-path="url(#clip240)" style="stroke:#000000; stroke-linecap:butt; stroke-linejoin:round; stroke-width:4; stroke-opacity:1; fill:none" points="
  701.801,1012.41 711.108,1005.65 
  "/>
<polyline clip-path="url(#clip240)" style="stroke:#000000; stroke-linecap:butt; stroke-linejoin:round; stroke-width:4; stroke-opacity:1; fill:none" points="
  701.801,895.599 711.108,888.837 
  "/>
<polyline clip-path="url(#clip240)" style="stroke:#000000; stroke-linecap:butt; stroke-linejoin:round; stroke-width:4; stroke-opacity:1; fill:none" points="
  701.801,778.789 711.108,772.026 
  "/>
<polyline clip-path="url(#clip240)" style="stroke:#000000; stroke-linecap:butt; stroke-linejoin:round; stroke-width:4; stroke-opacity:1; fill:none" points="
  701.801,661.978 711.108,655.215 
  "/>
<path clip-path="url(#clip240)" d="M583.203 998.209 Q579.592 998.209 577.763 1001.77 Q575.958 1005.32 575.958 1012.44 Q575.958 1019.55 577.763 1023.12 Q579.592 1026.66 583.203 1026.66 Q586.837 1026.66 588.643 1023.12 Q590.472 1019.55 590.472 1012.44 Q590.472 1005.32 588.643 1001.77 Q586.837 998.209 583.203 998.209 M583.203 994.505 Q589.013 994.505 592.069 999.112 Q595.148 1003.7 595.148 1012.44 Q595.148 1021.17 592.069 1025.78 Q589.013 1030.36 583.203 1030.36 Q577.393 1030.36 574.314 1025.78 Q571.259 1021.17 571.259 1012.44 Q571.259 1003.7 574.314 999.112 Q577.393 994.505 583.203 994.505 Z" fill="#000000" fill-rule="evenodd" fill-opacity="1" /><path clip-path="url(#clip240)" d="M603.365 1023.81 L608.249 1023.81 L608.249 1029.69 L603.365 1029.69 L603.365 1023.81 Z" fill="#000000" fill-rule="evenodd" fill-opacity="1" /><path clip-path="url(#clip240)" d="M629.013 1010.55 Q625.865 1010.55 624.013 1012.7 Q622.184 1014.85 622.184 1018.6 Q622.184 1022.33 624.013 1024.51 Q625.865 1026.66 629.013 1026.66 Q632.161 1026.66 633.99 1024.51 Q635.842 1022.33 635.842 1018.6 Q635.842 1014.85 633.99 1012.7 Q632.161 1010.55 629.013 1010.55 M638.296 995.894 L638.296 1000.15 Q636.536 999.32 634.731 998.88 Q632.948 998.44 631.189 998.44 Q626.559 998.44 624.106 1001.57 Q621.675 1004.69 621.328 1011.01 Q622.694 1009 624.754 1007.93 Q626.814 1006.84 629.291 1006.84 Q634.499 1006.84 637.508 1010.01 Q640.541 1013.16 640.541 1018.6 Q640.541 1023.93 637.393 1027.14 Q634.245 1030.36 629.013 1030.36 Q623.018 1030.36 619.847 1025.78 Q616.675 1021.17 616.675 1012.44 Q616.675 1004.25 620.564 999.389 Q624.453 994.505 631.004 994.505 Q632.763 994.505 634.546 994.852 Q636.351 995.2 638.296 995.894 Z" fill="#000000" fill-rule="evenodd" fill-opacity="1" /><path clip-path="url(#clip240)" d="M648.643 995.13 L666.999 995.13 L666.999 999.065 L652.925 999.065 L652.925 1007.54 Q653.944 1007.19 654.962 1007.03 Q655.981 1006.84 656.999 1006.84 Q662.786 1006.84 666.166 1010.01 Q669.545 1013.19 669.545 1018.6 Q669.545 1024.18 666.073 1027.28 Q662.601 1030.36 656.282 1030.36 Q654.106 1030.36 651.837 1029.99 Q649.592 1029.62 647.184 1028.88 L647.184 1024.18 Q649.268 1025.32 651.49 1025.87 Q653.712 1026.43 656.189 1026.43 Q660.194 1026.43 662.531 1024.32 Q664.869 1022.21 664.869 1018.6 Q664.869 1014.99 662.531 1012.88 Q660.194 1010.78 656.189 1010.78 Q654.314 1010.78 652.439 1011.19 Q650.587 1011.61 648.643 1012.49 L648.643 995.13 Z" fill="#000000" fill-rule="evenodd" fill-opacity="1" /><path clip-path="url(#clip240)" d="M582.208 881.398 Q578.597 881.398 576.768 884.963 Q574.963 888.505 574.963 895.634 Q574.963 902.741 576.768 906.305 Q578.597 909.847 582.208 909.847 Q585.842 909.847 587.648 906.305 Q589.476 902.741 589.476 895.634 Q589.476 888.505 587.648 884.963 Q585.842 881.398 582.208 881.398 M582.208 877.694 Q588.018 877.694 591.074 882.301 Q594.152 886.884 594.152 895.634 Q594.152 904.361 591.074 908.967 Q588.018 913.551 582.208 913.551 Q576.398 913.551 573.319 908.967 Q570.263 904.361 570.263 895.634 Q570.263 886.884 573.319 882.301 Q576.398 877.694 582.208 877.694 Z" fill="#000000" fill-rule="evenodd" fill-opacity="1" /><path clip-path="url(#clip240)" d="M602.37 907 L607.254 907 L607.254 912.879 L602.37 912.879 L602.37 907 Z" fill="#000000" fill-rule="evenodd" fill-opacity="1" /><path clip-path="url(#clip240)" d="M616.259 878.319 L638.481 878.319 L638.481 880.31 L625.934 912.879 L621.05 912.879 L632.856 882.255 L616.259 882.255 L616.259 878.319 Z" fill="#000000" fill-rule="evenodd" fill-opacity="1" /><path clip-path="url(#clip240)" d="M657.601 881.398 Q653.99 881.398 652.161 884.963 Q650.356 888.505 650.356 895.634 Q650.356 902.741 652.161 906.305 Q653.99 909.847 657.601 909.847 Q661.235 909.847 663.041 906.305 Q664.869 902.741 664.869 895.634 Q664.869 888.505 663.041 884.963 Q661.235 881.398 657.601 881.398 M657.601 877.694 Q663.411 877.694 666.467 882.301 Q669.545 886.884 669.545 895.634 Q669.545 904.361 666.467 908.967 Q663.411 913.551 657.601 913.551 Q651.791 913.551 648.712 908.967 Q645.657 904.361 645.657 895.634 Q645.657 886.884 648.712 882.301 Q651.791 877.694 657.601 877.694 Z" fill="#000000" fill-rule="evenodd" fill-opacity="1" /><path clip-path="url(#clip240)" d="M583.203 764.587 Q579.592 764.587 577.763 768.152 Q575.958 771.694 575.958 778.823 Q575.958 785.93 577.763 789.495 Q579.592 793.036 583.203 793.036 Q586.837 793.036 588.643 789.495 Q590.472 785.93 590.472 778.823 Q590.472 771.694 588.643 768.152 Q586.837 764.587 583.203 764.587 M583.203 760.884 Q589.013 760.884 592.069 765.49 Q595.148 770.073 595.148 778.823 Q595.148 787.55 592.069 792.157 Q589.013 796.74 583.203 796.74 Q577.393 796.74 574.314 792.157 Q571.259 787.55 571.259 778.823 Q571.259 770.073 574.314 765.49 Q577.393 760.884 583.203 760.884 Z" fill="#000000" fill-rule="evenodd" fill-opacity="1" /><path clip-path="url(#clip240)" d="M603.365 790.189 L608.249 790.189 L608.249 796.069 L603.365 796.069 L603.365 790.189 Z" fill="#000000" fill-rule="evenodd" fill-opacity="1" /><path clip-path="url(#clip240)" d="M617.254 761.509 L639.476 761.509 L639.476 763.499 L626.93 796.069 L622.046 796.069 L633.851 765.444 L617.254 765.444 L617.254 761.509 Z" fill="#000000" fill-rule="evenodd" fill-opacity="1" /><path clip-path="url(#clip240)" d="M648.643 761.509 L666.999 761.509 L666.999 765.444 L652.925 765.444 L652.925 773.916 Q653.944 773.569 654.962 773.407 Q655.981 773.222 656.999 773.222 Q662.786 773.222 666.166 776.393 Q669.545 779.564 669.545 784.981 Q669.545 790.559 666.073 793.661 Q662.601 796.74 656.282 796.74 Q654.106 796.74 651.837 796.37 Q649.592 795.999 647.184 795.258 L647.184 790.559 Q649.268 791.694 651.49 792.249 Q653.712 792.805 656.189 792.805 Q660.194 792.805 662.531 790.698 Q664.869 788.592 664.869 784.981 Q664.869 781.37 662.531 779.263 Q660.194 777.157 656.189 777.157 Q654.314 777.157 652.439 777.573 Q650.587 777.99 648.643 778.87 L648.643 761.509 Z" fill="#000000" fill-rule="evenodd" fill-opacity="1" /><path clip-path="url(#clip240)" d="M582.208 647.777 Q578.597 647.777 576.768 651.341 Q574.963 654.883 574.963 662.013 Q574.963 669.119 576.768 672.684 Q578.597 676.225 582.208 676.225 Q585.842 676.225 587.648 672.684 Q589.476 669.119 589.476 662.013 Q589.476 654.883 587.648 651.341 Q585.842 647.777 582.208 647.777 M582.208 644.073 Q588.018 644.073 591.074 648.679 Q594.152 653.263 594.152 662.013 Q594.152 670.739 591.074 675.346 Q588.018 679.929 582.208 679.929 Q576.398 679.929 573.319 675.346 Q570.263 670.739 570.263 662.013 Q570.263 653.263 573.319 648.679 Q576.398 644.073 582.208 644.073 Z" fill="#000000" fill-rule="evenodd" fill-opacity="1" /><path clip-path="url(#clip240)" d="M602.37 673.378 L607.254 673.378 L607.254 679.258 L602.37 679.258 L602.37 673.378 Z" fill="#000000" fill-rule="evenodd" fill-opacity="1" /><path clip-path="url(#clip240)" d="M627.439 662.846 Q624.106 662.846 622.184 664.628 Q620.286 666.411 620.286 669.536 Q620.286 672.661 622.184 674.443 Q624.106 676.225 627.439 676.225 Q630.772 676.225 632.694 674.443 Q634.615 672.638 634.615 669.536 Q634.615 666.411 632.694 664.628 Q630.796 662.846 627.439 662.846 M622.763 660.855 Q619.754 660.114 618.064 658.054 Q616.397 655.994 616.397 653.031 Q616.397 648.888 619.337 646.48 Q622.3 644.073 627.439 644.073 Q632.601 644.073 635.541 646.48 Q638.481 648.888 638.481 653.031 Q638.481 655.994 636.791 658.054 Q635.124 660.114 632.138 660.855 Q635.518 661.642 637.393 663.934 Q639.291 666.226 639.291 669.536 Q639.291 674.559 636.212 677.244 Q633.157 679.929 627.439 679.929 Q621.722 679.929 618.643 677.244 Q615.587 674.559 615.587 669.536 Q615.587 666.226 617.485 663.934 Q619.384 661.642 622.763 660.855 M621.05 653.471 Q621.05 656.156 622.717 657.661 Q624.407 659.165 627.439 659.165 Q630.448 659.165 632.138 657.661 Q633.851 656.156 633.851 653.471 Q633.851 650.786 632.138 649.281 Q630.448 647.777 627.439 647.777 Q624.407 647.777 622.717 649.281 Q621.05 650.786 621.05 653.471 Z" fill="#000000" fill-rule="evenodd" fill-opacity="1" /><path clip-path="url(#clip240)" d="M657.601 647.777 Q653.99 647.777 652.161 651.341 Q650.356 654.883 650.356 662.013 Q650.356 669.119 652.161 672.684 Q653.99 676.225 657.601 676.225 Q661.235 676.225 663.041 672.684 Q664.869 669.119 664.869 662.013 Q664.869 654.883 663.041 651.341 Q661.235 647.777 657.601 647.777 M657.601 644.073 Q663.411 644.073 666.467 648.679 Q669.545 653.263 669.545 662.013 Q669.545 670.739 666.467 675.346 Q663.411 679.929 657.601 679.929 Q651.791 679.929 648.712 675.346 Q645.657 670.739 645.657 662.013 Q645.657 653.263 648.712 648.679 Q651.791 644.073 657.601 644.073 Z" fill="#000000" fill-rule="evenodd" fill-opacity="1" /><polyline clip-path="url(#clip242)" style="stroke:#000000; stroke-linecap:butt; stroke-linejoin:round; stroke-width:8; stroke-opacity:1; fill:none" points="
  1118.2,1270.15 1118.2,1270.15 1120.04,1268.6 1137.07,1254.33 1147.31,1245.74 
  1155.96,1238.49 1165.37,1230.61 1174.03,1223.34 
  1183.33,1215.55 1194.09,1206.53 1203.66,1198.51 
  1212.05,1191.47 1221.2,1183.81 1230.4,1176.09 1240.57,1167.56 
  1250.26,1159.45 1260.32,1151.01 1268.79,1143.91 
  1279.14,1135.24 1288.61,1127.29 1297.37,1119.96 
  1306.23,1112.53 1316.17,1104.2 1325.17,1096.65 1335.48,1088.01 
  1345.02,1080.01 1354.43,1072.12 1363.57,1064.46 
  1372.93,1056.61 1383.19,1048.01 1398.1,1035.51 
  1401.16,1032.95 
  "/>
<polyline clip-path="url(#clip242)" style="stroke:#000000; stroke-linecap:butt; stroke-linejoin:round; stroke-width:8; stroke-opacity:1; fill:none" points="
  1069.22,644.393 1069.22,644.393 1071.01,642.238 1087.61,622.308 1097.58,610.331 
  1106.01,600.205 1115.16,589.205 1123.61,579.064 
  1132.66,568.192 1143.15,555.595 1152.46,544.401 
  1160.64,534.584 1169.55,523.882 1178.51,513.116 1188.42,501.212 
  1197.85,489.886 1207.65,478.11 1215.91,468.197 
  1225.98,456.095 1235.21,445.008 1243.74,434.768 
  1252.37,424.396 1262.05,412.771 1270.82,402.238 1280.86,390.177 
  1290.16,379.011 1299.32,368.002 1308.22,357.313 
  1317.34,346.355 1327.34,334.35 1341.86,316.91 
  1344.83,313.332 
  "/>
<polyline clip-path="url(#clip242)" style="stroke:#000000; stroke-linecap:butt; stroke-linejoin:round; stroke-width:8; stroke-opacity:1; fill:none" points="
  1348.28,1508.52 1348.28,1508.52 1350.35,1507.21 1369.46,1495.08 1380.95,1487.79 
  1390.66,1481.63 1401.21,1474.94 1410.93,1468.77 
  1421.36,1462.15 1433.44,1454.49 1444.17,1447.68 
  1453.59,1441.7 1463.85,1435.19 1474.17,1428.64 1485.59,1421.4 
  1496.45,1414.51 1507.74,1407.34 1517.25,1401.31 
  1528.86,1393.95 1539.49,1387.2 1549.31,1380.97 
  1559.25,1374.66 1570.4,1367.58 1580.5,1361.18 1592.07,1353.84 
  1602.78,1347.04 1613.33,1340.34 1623.58,1333.84 
  1634.09,1327.17 1645.6,1319.87 1662.33,1309.26 
  1665.76,1307.08 
  "/>
<polyline clip-path="url(#clip242)" style="stroke:#000000; stroke-linecap:butt; stroke-linejoin:round; stroke-width:8; stroke-opacity:1; fill:none" points="
  1293.33,806.441 1293.33,806.441 1295.35,804.444 1313.96,785.977 1325.15,774.88 
  1334.61,765.497 1344.88,755.305 1354.35,745.908 
  1364.51,735.834 1376.28,724.162 1386.73,713.79 
  1395.9,704.694 1405.9,694.777 1415.95,684.802 1427.07,673.772 
  1437.65,663.278 1448.65,652.367 1457.91,643.181 
  1469.22,631.967 1479.57,621.695 1489.14,612.207 
  1498.82,602.596 1509.68,591.825 1519.52,582.065 1530.79,570.89 
  1541.22,560.543 1551.5,550.342 1561.49,540.438 
  1571.72,530.285 1582.93,519.161 1599.22,503.002 
  1602.57,499.687 
  "/>
<polyline clip-path="url(#clip242)" style="stroke:#000000; stroke-linecap:butt; stroke-linejoin:round; stroke-width:8; stroke-opacity:1; fill:none" points="
  1118.2,1270.15 1118.2,1270.15 1118.82,1266 1124.03,1227.66 1126.64,1204.61 
  1128.56,1185.12 1130.33,1163.95 1131.68,1144.44 
  1132.81,1123.53 1133.74,1099.32 1134.2,1077.82 
  1134.33,1058.99 1134.18,1038.48 1133.72,1017.87 1132.85,995.124 
  1131.66,973.517 1130.07,951.094 1128.44,932.256 
  1126.1,909.307 1123.61,888.337 1121.03,869.018 
  1118.12,849.497 1114.52,827.683 1110.96,807.978 1106.51,785.491 
  1102.05,764.746 1097.34,744.368 1092.45,724.657 
  1087.13,704.53 1080.95,682.575 1071.3,650.869 
  1069.22,644.393 
  "/>
<polyline clip-path="url(#clip242)" style="stroke:#000000; stroke-linecap:butt; stroke-linejoin:round; stroke-width:8; stroke-opacity:1; fill:none" points="
  1401.16,1032.95 1401.16,1032.95 1401.88,1028.18 1407.86,984.09 1410.87,957.581 
  1413.08,935.167 1415.11,910.821 1416.66,888.383 
  1417.97,864.337 1419.03,836.496 1419.56,811.775 
  1419.71,790.118 1419.54,766.53 1419.01,742.833 1418,716.672 
  1416.65,691.824 1414.82,666.038 1412.94,644.374 
  1410.25,617.984 1407.39,593.868 1404.41,571.651 
  1401.07,549.202 1396.93,524.116 1392.83,501.454 1387.72,475.594 
  1382.59,451.737 1377.17,428.303 1371.55,405.636 
  1365.44,382.49 1358.32,357.241 1347.22,320.78 
  1344.83,313.332 
  "/>
<polyline clip-path="url(#clip242)" style="stroke:#000000; stroke-linecap:butt; stroke-linejoin:round; stroke-width:8; stroke-opacity:1; fill:none" points="
  1348.28,1508.52 1348.28,1508.52 1348.99,1503.87 1354.82,1460.85 1357.76,1434.99 
  1359.91,1413.12 1361.9,1389.37 1363.41,1367.48 
  1364.68,1344.02 1365.72,1316.85 1366.24,1292.74 
  1366.39,1271.61 1366.22,1248.59 1365.7,1225.47 1364.72,1199.95 
  1363.39,1175.71 1361.61,1150.55 1359.78,1129.41 
  1357.16,1103.67 1354.36,1080.14 1351.46,1058.46 
  1348.2,1036.56 1344.16,1012.09 1340.16,989.978 1335.17,964.748 
  1330.17,941.473 1324.88,918.609 1319.4,896.494 
  1313.43,873.913 1306.49,849.279 1295.66,813.707 
  1293.33,806.441 
  "/>
<polyline clip-path="url(#clip242)" style="stroke:#000000; stroke-linecap:butt; stroke-linejoin:round; stroke-width:8; stroke-opacity:1; fill:none" points="
  1665.76,1307.08 1665.76,1307.08 1666.57,1301.73 1673.28,1252.26 1676.66,1222.52 
  1679.13,1197.37 1681.41,1170.05 1683.15,1144.88 
  1684.62,1117.9 1685.81,1086.66 1686.41,1058.93 
  1686.58,1034.63 1686.38,1008.16 1685.78,981.574 1684.66,952.222 
  1683.14,924.344 1681.08,895.412 1678.98,871.106 
  1675.96,841.497 1672.75,814.44 1669.41,789.512 
  1665.66,764.326 1661.02,736.18 1656.42,710.754 1650.68,681.74 
  1644.93,654.973 1638.84,628.681 1632.54,603.249 
  1625.68,577.279 1617.7,548.951 1605.25,508.043 
  1602.57,499.687 
  "/>
<polyline clip-path="url(#clip242)" style="stroke:#000000; stroke-linecap:butt; stroke-linejoin:round; stroke-width:8; stroke-opacity:1; fill:none" points="
  1118.2,1270.15 1118.2,1270.15 1119.8,1271.62 1134.6,1285.25 1143.43,1293.49 
  1150.87,1300.49 1158.91,1308.11 1166.29,1315.17 
  1174.17,1322.76 1183.25,1331.59 1191.28,1339.47 
  1198.3,1346.41 1205.91,1353.99 1213.53,1361.65 1221.91,1370.15 
  1229.85,1378.27 1238.06,1386.74 1244.93,1393.9 
  1253.29,1402.66 1260.9,1410.72 1267.9,1418.19 
  1274.95,1425.78 1282.81,1434.31 1289.9,1442.07 1297.97,1450.99 
  1305.4,1459.27 1312.69,1467.46 1319.72,1475.44 
  1326.9,1483.64 1334.71,1492.66 1345.98,1505.81 
  1348.28,1508.52 
  "/>
<polyline clip-path="url(#clip242)" style="stroke:#000000; stroke-linecap:butt; stroke-linejoin:round; stroke-width:8; stroke-opacity:1; fill:none" points="
  1401.16,1032.95 1401.16,1032.95 1403.01,1034.64 1420.02,1050.32 1430.18,1059.8 
  1438.73,1067.84 1447.98,1076.61 1456.46,1084.72 
  1465.53,1093.45 1475.97,1103.61 1485.21,1112.67 
  1493.27,1120.65 1502.03,1129.37 1510.79,1138.18 1520.43,1147.95 
  1529.56,1157.29 1539,1167.03 1546.91,1175.26 
  1556.51,1185.34 1565.27,1194.61 1573.31,1203.2 
  1581.42,1211.93 1590.47,1221.74 1598.62,1230.66 1607.9,1240.91 
  1616.44,1250.44 1624.82,1259.86 1632.91,1269.03 
  1641.17,1278.47 1650.15,1288.84 1663.11,1303.97 
  1665.76,1307.08 
  "/>
<polyline clip-path="url(#clip242)" style="stroke:#000000; stroke-linecap:butt; stroke-linejoin:round; stroke-width:8; stroke-opacity:1; fill:none" points="
  1069.22,644.393 1069.22,644.393 1070.78,645.329 1085.19,654.055 1093.8,659.365 
  1101.04,663.893 1108.87,668.851 1116.06,673.459 
  1123.74,678.437 1132.59,684.256 1140.41,689.472 
  1147.24,694.081 1154.65,699.142 1162.08,704.273 1170.24,709.991 
  1177.97,715.476 1185.97,721.224 1192.67,726.099 
  1200.8,732.094 1208.22,737.629 1215.03,742.777 
  1221.9,748.027 1229.56,753.953 1236.46,759.361 1244.32,765.597 
  1251.56,771.413 1258.66,777.188 1265.51,782.831 
  1272.5,788.655 1280.12,795.081 1291.09,804.497 
  1293.33,806.441 
  "/>
<polyline clip-path="url(#clip242)" style="stroke:#000000; stroke-linecap:butt; stroke-linejoin:round; stroke-width:8; stroke-opacity:1; fill:none" points="
  1344.83,313.332 1344.83,313.332 1346.63,314.408 1363.21,324.444 1373.1,330.55 
  1381.43,335.757 1390.44,341.459 1398.71,346.758 
  1407.53,352.483 1417.71,359.174 1426.7,365.173 
  1434.56,370.473 1443.08,376.294 1451.62,382.194 1461.01,388.77 
  1469.9,395.077 1479.1,401.688 1486.8,407.293 
  1496.16,414.188 1504.68,420.553 1512.52,426.473 
  1520.42,432.511 1529.23,439.326 1537.17,445.545 1546.21,452.716 
  1554.53,459.405 1562.69,466.046 1570.57,472.536 
  1578.61,479.234 1587.37,486.623 1599.99,497.452 
  1602.57,499.687 
  "/>
<polyline clip-path="url(#clip242)" style="stroke:#0000ff; stroke-linecap:butt; stroke-linejoin:round; stroke-width:16; stroke-opacity:1; fill:none" points="
  1118.2,1270.15 1243.96,1164.73 
  "/>
<polyline clip-path="url(#clip242)" style="stroke:#0000ff; stroke-linecap:butt; stroke-linejoin:round; stroke-width:16; stroke-opacity:1; fill:none" points="
  1118.2,1270.15 1180.01,864.867 
  "/>
<polyline clip-path="url(#clip242)" style="stroke:#0000ff; stroke-linecap:butt; stroke-linejoin:round; stroke-width:16; stroke-opacity:1; fill:none" points="
  1118.2,1270.15 1306.84,1442.41 
  "/>
</svg>
