<?xml version="1.0" encoding="utf-8"?>
<svg xmlns="http://www.w3.org/2000/svg" xmlns:xlink="http://www.w3.org/1999/xlink" width="672" height="480" viewBox="0 0 2688 1920">
<defs>
  <clipPath id="clip410">
    <rect x="0" y="0" width="2688" height="1920"/>
  </clipPath>
</defs>
<path clip-path="url(#clip410)" d="
M0 1920 L2688 1920 L2688 0 L0 0  Z
  " fill="#ffffff" fill-rule="evenodd" fill-opacity="1"/>
<defs>
  <clipPath id="clip411">
    <rect x="537" y="0" width="1883" height="1883"/>
  </clipPath>
</defs>
<path clip-path="url(#clip410)" d="
M47.2441 1872.76 L2640.76 1872.76 L2640.76 47.2441 L47.2441 47.2441  Z
  " fill="#ffffff" fill-rule="evenodd" fill-opacity="1"/>
<defs>
  <clipPath id="clip412">
    <rect x="47" y="47" width="2595" height="1827"/>
  </clipPath>
</defs>
<polyline clip-path="url(#clip412)" style="stroke:#009af9; stroke-linecap:butt; stroke-linejoin:round; stroke-width:4; stroke-opacity:1; fill:none" stroke-dasharray="16, 10" points="
  1021.39,1432.12 1021.39,236.09 
  "/>
<polyline clip-path="url(#clip412)" style="stroke:#e26f46; stroke-linecap:butt; stroke-linejoin:round; stroke-width:4; stroke-opacity:1; fill:none" stroke-dasharray="16, 10" points="
  454.85,1683.91 1021.39,1432.12 
  "/>
<polyline clip-path="url(#clip412)" style="stroke:#3da44d; stroke-linecap:butt; stroke-linejoin:round; stroke-width:4; stroke-opacity:1; fill:none" stroke-dasharray="16, 10" points="
  1021.39,1432.12 2154.46,1432.12 
  "/>
<polyline clip-path="url(#clip412)" style="stroke:#0000ff; stroke-linecap:butt; stroke-linejoin:round; stroke-width:12; stroke-opacity:1; fill:none" points="
  1619.4,519.359 423.376,519.359 423.376,1715.38 1619.4,1715.38 
  "/>
<polyline clip-path="url(#clip412)" style="stroke:#0000ff; stroke-linecap:butt; stroke-linejoin:round; stroke-width:12; stroke-opacity:1; fill:none" points="
  1619.4,1715.38 1619.4,579.16 
  "/>
<polyline clip-path="url(#clip412)" style="stroke:#0000ff; stroke-linecap:butt; stroke-linejoin:round; stroke-width:12; stroke-opacity:1; fill:none" points="
  1599.24,619.48 1619.4,579.16 1639.56,619.48 
  "/>
<polyline clip-path="url(#clip412)" style="stroke:#0000ff; stroke-linecap:butt; stroke-linejoin:round; stroke-width:12; stroke-opacity:1; fill:none" points="
  1619.4,579.16 1619.4,1715.38 
  "/>
<polyline clip-path="url(#clip412)" style="stroke:#ff0000; stroke-linecap:butt; stroke-linejoin:round; stroke-width:12; stroke-opacity:1; fill:none" points="
  1635.14,480.016 2233.15,181.01 1037.13,181.01 439.113,480.016 
  "/>
<polyline clip-path="url(#clip412)" style="stroke:#ff0000; stroke-linecap:butt; stroke-linejoin:round; stroke-width:12; stroke-opacity:1; fill:none" points="
  439.113,480.016 1575.34,480.016 
  "/>
<polyline clip-path="url(#clip412)" style="stroke:#ff0000; stroke-linecap:butt; stroke-linejoin:round; stroke-width:12; stroke-opacity:1; fill:none" points="
  1535.02,459.856 1575.34,480.016 1535.02,500.176 
  "/>
<polyline clip-path="url(#clip412)" style="stroke:#ff0000; stroke-linecap:butt; stroke-linejoin:round; stroke-width:12; stroke-opacity:1; fill:none" points="
  1575.34,480.016 439.113,480.016 
  "/>
<polyline clip-path="url(#clip412)" style="stroke:#008000; stroke-linecap:butt; stroke-linejoin:round; stroke-width:12; stroke-opacity:1; fill:none" points="
  1666.61,1707.52 2264.62,1408.51 2264.62,212.484 1666.61,511.491 
  "/>
<polyline clip-path="url(#clip412)" style="stroke:#008000; stroke-linecap:butt; stroke-linejoin:round; stroke-width:12; stroke-opacity:1; fill:none" points="
  1666.61,511.491 1666.61,1647.71 
  "/>
<polyline clip-path="url(#clip412)" style="stroke:#008000; stroke-linecap:butt; stroke-linejoin:round; stroke-width:12; stroke-opacity:1; fill:none" points="
  1686.77,1607.39 1666.61,1647.71 1646.45,1607.39 
  "/>
<polyline clip-path="url(#clip412)" style="stroke:#008000; stroke-linecap:butt; stroke-linejoin:round; stroke-width:12; stroke-opacity:1; fill:none" points="
  1666.61,1647.71 1666.61,511.491 
  "/>
<path clip-path="url(#clip410)" d="M1058.26 1467.15 Q1058.26 1471.74 1054.86 1475.96 Q1051.5 1480.19 1046 1482.77 Q1040.55 1485.31 1034.69 1485.31 L1020.43 1485.31 L1015.22 1506.3 Q1015.18 1506.42 1015.06 1506.95 Q1014.93 1507.44 1014.93 1507.73 Q1014.93 1508.76 1016.2 1509 Q1017.52 1509.25 1020.43 1509.25 Q1022.31 1509.25 1022.6 1509.58 Q1022.76 1509.78 1022.76 1510.15 Q1022.76 1510.72 1022.6 1511.13 Q1022.43 1511.5 1022.11 1511.62 Q1021.82 1511.75 1021.61 1511.79 Q1021.41 1511.83 1021.08 1511.83 Q1020.22 1511.83 1018.38 1511.75 Q1016.57 1511.67 1015.63 1511.67 L1010.26 1511.58 L999.603 1511.83 Q998.332 1511.83 998.332 1510.81 Q998.332 1510.03 998.66 1509.7 Q998.988 1509.33 999.357 1509.29 Q999.726 1509.25 1000.67 1509.25 Q1002.72 1509.25 1003.95 1509.12 Q1005.18 1509 1005.96 1508.84 Q1006.78 1508.63 1007.19 1508.06 Q1007.64 1507.48 1007.84 1506.99 Q1008.05 1506.46 1008.33 1505.27 L1019.56 1460.18 Q1019.89 1458.83 1019.89 1458.63 Q1019.89 1457.93 1019.48 1457.68 Q1019.11 1457.4 1018.05 1457.27 Q1016 1457.11 1014.44 1457.11 Q1013.42 1457.11 1013.01 1457.07 Q1012.64 1457.03 1012.31 1456.82 Q1012.02 1456.58 1012.02 1456.08 Q1012.02 1455.31 1012.35 1454.98 Q1012.72 1454.61 1013.13 1454.57 Q1013.54 1454.49 1014.52 1454.49 L1041.74 1454.49 Q1049.57 1454.49 1053.91 1458.22 Q1058.26 1461.95 1058.26 1467.15 M1050.47 1465.14 Q1050.47 1457.11 1039.03 1457.11 L1031 1457.11 Q1028.34 1457.11 1027.68 1457.6 Q1027.02 1458.05 1026.45 1460.31 L1020.75 1483.14 L1032.6 1483.14 Q1040.55 1483.14 1045.51 1478.67 Q1047.77 1476.62 1049.12 1472.36 Q1050.47 1468.09 1050.47 1465.14 Z" fill="#000000" fill-rule="evenodd" fill-opacity="1" /><path clip-path="url(#clip410)" d="M1066.63 1501.54 L1066.63 1499.71 Q1073.69 1499.71 1077.34 1495.95 Q1078.34 1495.95 1078.51 1496.18 Q1078.69 1496.41 1078.69 1497.47 L1078.69 1530.44 Q1078.69 1532.19 1079.55 1532.73 Q1080.41 1533.28 1084.17 1533.28 L1086.03 1533.28 L1086.03 1535.09 Q1083.96 1534.91 1076.5 1534.91 Q1069.04 1534.91 1067.01 1535.09 L1067.01 1533.28 L1068.87 1533.28 Q1072.57 1533.28 1073.46 1532.76 Q1074.35 1532.22 1074.35 1530.44 L1074.35 1499.99 Q1071.28 1501.54 1066.63 1501.54 Z" fill="#000000" fill-rule="evenodd" fill-opacity="1" /><path clip-path="url(#clip410)" d="M464.526 1744.13 Q464.526 1748.72 461.124 1752.94 Q457.763 1757.16 452.27 1759.74 Q446.818 1762.28 440.957 1762.28 L426.693 1762.28 L421.487 1783.27 Q421.446 1783.39 421.323 1783.93 Q421.2 1784.42 421.2 1784.71 Q421.2 1785.73 422.471 1785.98 Q423.782 1786.22 426.693 1786.22 Q428.578 1786.22 428.865 1786.55 Q429.029 1786.75 429.029 1787.12 Q429.029 1787.7 428.865 1788.11 Q428.701 1788.48 428.373 1788.6 Q428.086 1788.72 427.881 1788.76 Q427.676 1788.8 427.349 1788.8 Q426.488 1788.8 424.643 1788.72 Q422.84 1788.64 421.897 1788.64 L416.527 1788.56 L405.87 1788.8 Q404.599 1788.8 404.599 1787.78 Q404.599 1787 404.927 1786.67 Q405.255 1786.3 405.624 1786.26 Q405.993 1786.22 406.936 1786.22 Q408.985 1786.22 410.215 1786.1 Q411.445 1785.98 412.223 1785.81 Q413.043 1785.61 413.453 1785.03 Q413.904 1784.46 414.109 1783.97 Q414.314 1783.43 414.601 1782.25 L425.832 1737.16 Q426.16 1735.8 426.16 1735.6 Q426.16 1734.9 425.75 1734.66 Q425.381 1734.37 424.315 1734.25 Q422.266 1734.08 420.708 1734.08 Q419.684 1734.08 419.274 1734.04 Q418.905 1734 418.577 1733.8 Q418.29 1733.55 418.29 1733.06 Q418.29 1732.28 418.618 1731.95 Q418.987 1731.58 419.397 1731.54 Q419.806 1731.46 420.79 1731.46 L448.007 1731.46 Q455.836 1731.46 460.181 1735.19 Q464.526 1738.92 464.526 1744.13 M456.738 1742.12 Q456.738 1734.08 445.302 1734.08 L437.268 1734.08 Q434.604 1734.08 433.948 1734.58 Q433.292 1735.03 432.718 1737.28 L427.021 1760.11 L438.867 1760.11 Q446.818 1760.11 451.778 1755.64 Q454.033 1753.59 455.385 1749.33 Q456.738 1745.07 456.738 1742.12 Z" fill="#000000" fill-rule="evenodd" fill-opacity="1" /><path clip-path="url(#clip410)" d="M472.902 1812.06 Q472.902 1811 472.988 1810.68 Q473.103 1810.37 473.562 1809.88 L484.838 1797.31 Q491.007 1790.37 491.007 1784.31 Q491.007 1780.38 488.941 1777.57 Q486.904 1774.76 483.145 1774.76 Q480.563 1774.76 478.382 1776.34 Q476.202 1777.92 475.197 1780.73 Q475.37 1780.67 475.972 1780.67 Q477.435 1780.67 478.239 1781.59 Q479.071 1782.51 479.071 1783.74 Q479.071 1785.32 478.038 1786.09 Q477.034 1786.84 476.029 1786.84 Q475.628 1786.84 475.083 1786.75 Q474.566 1786.67 473.734 1785.86 Q472.902 1785.03 472.902 1783.57 Q472.902 1779.46 476.001 1776.19 Q479.128 1772.92 483.891 1772.92 Q489.285 1772.92 492.815 1776.14 Q496.372 1779.32 496.372 1784.31 Q496.372 1786.06 495.827 1787.67 Q495.311 1789.25 494.594 1790.48 Q493.905 1791.72 492.011 1793.7 Q490.117 1795.68 488.597 1797.08 Q487.076 1798.49 483.662 1801.47 L477.435 1807.53 L488.023 1807.53 Q493.188 1807.53 493.589 1807.07 Q494.163 1806.23 494.88 1801.84 L496.372 1801.84 L494.708 1812.06 L472.902 1812.06 Z" fill="#000000" fill-rule="evenodd" fill-opacity="1" /><path clip-path="url(#clip410)" d="M1723.05 1743.49 Q1723.05 1748.08 1719.64 1752.3 Q1716.28 1756.52 1710.79 1759.11 Q1705.34 1761.65 1699.48 1761.65 L1685.21 1761.65 L1680.01 1782.63 Q1679.97 1782.76 1679.84 1783.29 Q1679.72 1783.78 1679.72 1784.07 Q1679.72 1785.09 1680.99 1785.34 Q1682.3 1785.58 1685.21 1785.58 Q1687.1 1785.58 1687.39 1785.91 Q1687.55 1786.12 1687.55 1786.49 Q1687.55 1787.06 1687.39 1787.47 Q1687.22 1787.84 1686.89 1787.96 Q1686.61 1788.09 1686.4 1788.13 Q1686.2 1788.17 1685.87 1788.17 Q1685.01 1788.17 1683.16 1788.09 Q1681.36 1788 1680.42 1788 L1675.05 1787.92 L1664.39 1788.17 Q1663.12 1788.17 1663.12 1787.14 Q1663.12 1786.36 1663.45 1786.04 Q1663.78 1785.67 1664.14 1785.63 Q1664.51 1785.58 1665.46 1785.58 Q1667.51 1785.58 1668.74 1785.46 Q1669.97 1785.34 1670.74 1785.17 Q1671.56 1784.97 1671.97 1784.4 Q1672.42 1783.82 1672.63 1783.33 Q1672.83 1782.8 1673.12 1781.61 L1684.35 1736.52 Q1684.68 1735.17 1684.68 1734.96 Q1684.68 1734.27 1684.27 1734.02 Q1683.9 1733.73 1682.84 1733.61 Q1680.79 1733.45 1679.23 1733.45 Q1678.2 1733.45 1677.79 1733.41 Q1677.43 1733.36 1677.1 1733.16 Q1676.81 1732.91 1676.81 1732.42 Q1676.81 1731.64 1677.14 1731.31 Q1677.51 1730.95 1677.92 1730.91 Q1678.33 1730.82 1679.31 1730.82 L1706.53 1730.82 Q1714.36 1730.82 1718.7 1734.55 Q1723.05 1738.28 1723.05 1743.49 M1715.26 1741.48 Q1715.26 1733.45 1703.82 1733.45 L1695.79 1733.45 Q1693.12 1733.45 1692.47 1733.94 Q1691.81 1734.39 1691.24 1736.64 L1685.54 1759.47 L1697.39 1759.47 Q1705.34 1759.47 1710.3 1755.01 Q1712.55 1752.96 1713.91 1748.69 Q1715.26 1744.43 1715.26 1741.48 Z" fill="#000000" fill-rule="evenodd" fill-opacity="1" /><path clip-path="url(#clip410)" d="M1731.42 1803.5 Q1731.42 1801.75 1732.43 1800.92 Q1733.43 1800.09 1734.72 1800.09 Q1736.07 1800.09 1737.02 1800.98 Q1737.99 1801.84 1737.99 1803.36 Q1737.99 1805 1736.85 1805.91 Q1735.73 1806.83 1734.12 1806.6 Q1735.53 1808.95 1738.11 1810.02 Q1740.72 1811.08 1743.13 1811.08 Q1745.65 1811.08 1747.69 1808.9 Q1749.76 1806.72 1749.76 1801.38 Q1749.76 1796.85 1747.98 1794.24 Q1746.23 1791.62 1742.76 1791.62 L1740.17 1791.62 Q1739.28 1791.62 1739.03 1791.54 Q1738.77 1791.45 1738.77 1790.96 Q1738.77 1790.39 1739.66 1790.28 Q1740.55 1790.28 1741.95 1790.1 Q1745.37 1789.99 1747.17 1787.03 Q1748.81 1784.28 1748.81 1780.35 Q1748.81 1776.76 1747.09 1775.27 Q1745.4 1773.75 1743.19 1773.75 Q1741.12 1773.75 1738.85 1774.61 Q1736.59 1775.47 1735.35 1777.39 Q1739 1777.39 1739 1780.35 Q1739 1781.64 1738.17 1782.5 Q1737.36 1783.33 1736.01 1783.33 Q1734.72 1783.33 1733.86 1782.53 Q1733 1781.7 1733 1780.29 Q1733 1776.93 1735.98 1774.61 Q1739 1772.29 1743.42 1772.29 Q1747.78 1772.29 1750.99 1774.58 Q1754.23 1776.88 1754.23 1780.41 Q1754.23 1783.88 1751.94 1786.72 Q1749.64 1789.56 1746 1790.74 Q1750.47 1791.62 1753.14 1794.67 Q1755.81 1797.68 1755.81 1801.38 Q1755.81 1805.97 1752.2 1809.36 Q1748.58 1812.71 1743.3 1812.71 Q1738.42 1812.71 1734.92 1810.07 Q1731.42 1807.43 1731.42 1803.5 Z" fill="#000000" fill-rule="evenodd" fill-opacity="1" /><path clip-path="url(#clip410)" d="M2313.94 1466.95 Q2313.94 1471.54 2310.53 1475.77 Q2307.17 1479.99 2301.68 1482.57 Q2296.23 1485.11 2290.37 1485.11 L2276.1 1485.11 L2270.9 1506.1 Q2270.86 1506.22 2270.73 1506.75 Q2270.61 1507.25 2270.61 1507.53 Q2270.61 1508.56 2271.88 1508.8 Q2273.19 1509.05 2276.1 1509.05 Q2277.99 1509.05 2278.28 1509.38 Q2278.44 1509.58 2278.44 1509.95 Q2278.44 1510.52 2278.28 1510.93 Q2278.11 1511.3 2277.78 1511.43 Q2277.5 1511.55 2277.29 1511.59 Q2277.09 1511.63 2276.76 1511.63 Q2275.9 1511.63 2274.05 1511.55 Q2272.25 1511.47 2271.31 1511.47 L2265.94 1511.39 L2255.28 1511.63 Q2254.01 1511.63 2254.01 1510.61 Q2254.01 1509.83 2254.34 1509.5 Q2254.67 1509.13 2255.04 1509.09 Q2255.4 1509.05 2256.35 1509.05 Q2258.4 1509.05 2259.63 1508.93 Q2260.86 1508.8 2261.63 1508.64 Q2262.45 1508.43 2262.86 1507.86 Q2263.32 1507.29 2263.52 1506.79 Q2263.73 1506.26 2264.01 1505.07 L2275.24 1459.98 Q2275.57 1458.63 2275.57 1458.43 Q2275.57 1457.73 2275.16 1457.48 Q2274.79 1457.2 2273.73 1457.07 Q2271.68 1456.91 2270.12 1456.91 Q2269.09 1456.91 2268.68 1456.87 Q2268.32 1456.83 2267.99 1456.62 Q2267.7 1456.38 2267.7 1455.89 Q2267.7 1455.11 2268.03 1454.78 Q2268.4 1454.41 2268.81 1454.37 Q2269.22 1454.29 2270.2 1454.29 L2297.42 1454.29 Q2305.25 1454.29 2309.59 1458.02 Q2313.94 1461.75 2313.94 1466.95 M2306.15 1464.94 Q2306.15 1456.91 2294.71 1456.91 L2286.68 1456.91 Q2284.01 1456.91 2283.36 1457.4 Q2282.7 1457.85 2282.13 1460.11 L2276.43 1482.94 L2288.28 1482.94 Q2296.23 1482.94 2301.19 1478.47 Q2303.44 1476.42 2304.8 1472.16 Q2306.15 1467.9 2306.15 1464.94 Z" fill="#000000" fill-rule="evenodd" fill-opacity="1" /><path clip-path="url(#clip410)" d="M2322.31 1525.59 L2322.31 1523.78 L2340.36 1496.2 Q2340.82 1495.49 2341.54 1495.52 Q2342.2 1495.52 2342.34 1495.77 Q2342.48 1496.03 2342.48 1497.04 L2342.48 1523.78 L2348.37 1523.78 L2348.37 1525.59 L2342.48 1525.59 L2342.48 1530.69 Q2342.48 1532.39 2343.17 1532.93 Q2343.89 1533.48 2346.93 1533.48 L2348.17 1533.48 L2348.17 1535.28 Q2345.75 1535.11 2340.19 1535.11 Q2334.65 1535.11 2332.24 1535.28 L2332.24 1533.48 L2333.47 1533.48 Q2336.52 1533.48 2337.23 1532.96 Q2337.95 1532.41 2337.95 1530.69 L2337.95 1525.59 L2322.31 1525.59 M2323.98 1523.78 L2338.29 1523.78 L2338.29 1501.86 L2323.98 1523.78 Z" fill="#000000" fill-rule="evenodd" fill-opacity="1" /></svg>
