<?xml version="1.0" encoding="utf-8"?>
<svg xmlns="http://www.w3.org/2000/svg" xmlns:xlink="http://www.w3.org/1999/xlink" width="672" height="480" viewBox="0 0 2688 1920">
<defs>
  <clipPath id="clip810">
    <rect x="0" y="0" width="2688" height="1920"/>
  </clipPath>
</defs>
<path clip-path="url(#clip810)" d="
M0 1920 L2688 1920 L2688 0 L0 0  Z
  " fill="#ffffff" fill-rule="evenodd" fill-opacity="1"/>
<defs>
  <clipPath id="clip811">
    <rect x="537" y="0" width="1883" height="1883"/>
  </clipPath>
</defs>
<defs>
  <clipPath id="clip812">
    <rect x="152" y="47" width="2490" height="1755"/>
  </clipPath>
</defs>
<path clip-path="url(#clip812)" d="
M1311.81 988.979 L1297.41 874.512 L1375.28 834.582 L1485.77 855.391 L1473.87 962.74 L1422.35 1033.77 L1311.81 988.979  Z
  " fill="#ffffff" fill-rule="evenodd" fill-opacity="1"/>
<polyline clip-path="url(#clip812)" style="stroke:#000000; stroke-linecap:butt; stroke-linejoin:round; stroke-width:2; stroke-opacity:0.1; fill:none" points="
  828.804,1456.73 1326.81,1018 
  "/>
<polyline clip-path="url(#clip812)" style="stroke:#000000; stroke-linecap:butt; stroke-linejoin:round; stroke-width:2; stroke-opacity:0.1; fill:none" points="
  1326.81,1018 1317.24,252.422 
  "/>
<polyline clip-path="url(#clip812)" style="stroke:#000000; stroke-linecap:butt; stroke-linejoin:round; stroke-width:2; stroke-opacity:0.1; fill:none" points="
  929.819,1497.67 1416.14,1045.36 
  "/>
<polyline clip-path="url(#clip812)" style="stroke:#000000; stroke-linecap:butt; stroke-linejoin:round; stroke-width:2; stroke-opacity:0.1; fill:none" points="
  1416.14,1045.36 1418.89,271.565 
  "/>
<polyline clip-path="url(#clip812)" style="stroke:#000000; stroke-linecap:butt; stroke-linejoin:round; stroke-width:2; stroke-opacity:0.1; fill:none" points="
  1034.31,1540.01 1507.97,1073.49 
  "/>
<polyline clip-path="url(#clip812)" style="stroke:#000000; stroke-linecap:butt; stroke-linejoin:round; stroke-width:2; stroke-opacity:0.1; fill:none" points="
  1507.97,1073.49 1523.79,291.32 
  "/>
<polyline clip-path="url(#clip812)" style="stroke:#000000; stroke-linecap:butt; stroke-linejoin:round; stroke-width:2; stroke-opacity:0.1; fill:none" points="
  1142.45,1583.83 1602.41,1102.41 
  "/>
<polyline clip-path="url(#clip812)" style="stroke:#000000; stroke-linecap:butt; stroke-linejoin:round; stroke-width:2; stroke-opacity:0.1; fill:none" points="
  1602.41,1102.41 1632.09,311.716 
  "/>
<polyline clip-path="url(#clip812)" style="stroke:#000000; stroke-linecap:butt; stroke-linejoin:round; stroke-width:2; stroke-opacity:0.1; fill:none" points="
  1254.44,1629.21 1699.57,1132.17 
  "/>
<polyline clip-path="url(#clip812)" style="stroke:#000000; stroke-linecap:butt; stroke-linejoin:round; stroke-width:2; stroke-opacity:0.1; fill:none" points="
  1699.57,1132.17 1743.96,332.785 
  "/>
<polyline clip-path="url(#clip812)" style="stroke:#000000; stroke-linecap:butt; stroke-linejoin:round; stroke-width:2; stroke-opacity:0.1; fill:none" points="
  1370.5,1676.24 1799.57,1162.8 
  "/>
<polyline clip-path="url(#clip812)" style="stroke:#000000; stroke-linecap:butt; stroke-linejoin:round; stroke-width:2; stroke-opacity:0.1; fill:none" points="
  1799.57,1162.8 1859.59,354.562 
  "/>
<polyline clip-path="url(#clip812)" style="stroke:#000000; stroke-linecap:butt; stroke-linejoin:round; stroke-width:2; stroke-opacity:0.1; fill:none" points="
  1490.84,1725 1902.53,1194.33 
  "/>
<polyline clip-path="url(#clip812)" style="stroke:#000000; stroke-linecap:butt; stroke-linejoin:round; stroke-width:2; stroke-opacity:0.1; fill:none" points="
  1902.53,1194.33 1979.16,377.081 
  "/>
<polyline clip-path="url(#clip810)" style="stroke:#000000; stroke-linecap:butt; stroke-linejoin:round; stroke-width:4; stroke-opacity:1; fill:none" points="
  746.27,1423.29 1595.72,1767.51 
  "/>
<polyline clip-path="url(#clip810)" style="stroke:#000000; stroke-linecap:butt; stroke-linejoin:round; stroke-width:4; stroke-opacity:1; fill:none" points="
  828.804,1456.73 836.083,1450.32 
  "/>
<polyline clip-path="url(#clip810)" style="stroke:#000000; stroke-linecap:butt; stroke-linejoin:round; stroke-width:4; stroke-opacity:1; fill:none" points="
  929.819,1497.67 936.948,1491.04 
  "/>
<polyline clip-path="url(#clip810)" style="stroke:#000000; stroke-linecap:butt; stroke-linejoin:round; stroke-width:4; stroke-opacity:1; fill:none" points="
  1034.31,1540.01 1041.27,1533.15 
  "/>
<polyline clip-path="url(#clip810)" style="stroke:#000000; stroke-linecap:butt; stroke-linejoin:round; stroke-width:4; stroke-opacity:1; fill:none" points="
  1142.45,1583.83 1149.23,1576.73 
  "/>
<polyline clip-path="url(#clip810)" style="stroke:#000000; stroke-linecap:butt; stroke-linejoin:round; stroke-width:4; stroke-opacity:1; fill:none" points="
  1254.44,1629.21 1261.03,1621.86 
  "/>
<polyline clip-path="url(#clip810)" style="stroke:#000000; stroke-linecap:butt; stroke-linejoin:round; stroke-width:4; stroke-opacity:1; fill:none" points="
  1370.5,1676.24 1376.87,1668.61 
  "/>
<polyline clip-path="url(#clip810)" style="stroke:#000000; stroke-linecap:butt; stroke-linejoin:round; stroke-width:4; stroke-opacity:1; fill:none" points="
  1490.84,1725 1496.97,1717.1 
  "/>
<path clip-path="url(#clip810)" d="M754.816 1487.08 L784.491 1487.08 L784.491 1491.01 L754.816 1491.01 L754.816 1487.08 Z" fill="#000000" fill-rule="evenodd" fill-opacity="1" /><path clip-path="url(#clip810)" d="M805.163 1484.76 Q802.014 1484.76 800.163 1486.92 Q798.334 1489.07 798.334 1492.82 Q798.334 1496.55 800.163 1498.72 Q802.014 1500.88 805.163 1500.88 Q808.311 1500.88 810.139 1498.72 Q811.991 1496.55 811.991 1492.82 Q811.991 1489.07 810.139 1486.92 Q808.311 1484.76 805.163 1484.76 M814.445 1470.11 L814.445 1474.37 Q812.686 1473.54 810.88 1473.1 Q809.098 1472.66 807.339 1472.66 Q802.709 1472.66 800.255 1475.78 Q797.825 1478.91 797.477 1485.23 Q798.843 1483.21 800.903 1482.15 Q802.964 1481.06 805.44 1481.06 Q810.649 1481.06 813.658 1484.23 Q816.69 1487.38 816.69 1492.82 Q816.69 1498.14 813.542 1501.36 Q810.394 1504.58 805.163 1504.58 Q799.167 1504.58 795.996 1500 Q792.825 1495.39 792.825 1486.66 Q792.825 1478.47 796.714 1473.61 Q800.602 1468.72 807.153 1468.72 Q808.913 1468.72 810.695 1469.07 Q812.501 1469.42 814.445 1470.11 Z" fill="#000000" fill-rule="evenodd" fill-opacity="1" /><path clip-path="url(#clip810)" d="M855.506 1528.01 L885.182 1528.01 L885.182 1531.95 L855.506 1531.95 L855.506 1528.01 Z" fill="#000000" fill-rule="evenodd" fill-opacity="1" /><path clip-path="url(#clip810)" d="M908.121 1514.36 L896.316 1532.8 L908.121 1532.8 L908.121 1514.36 M906.894 1510.28 L912.774 1510.28 L912.774 1532.8 L917.705 1532.8 L917.705 1536.69 L912.774 1536.69 L912.774 1544.84 L908.121 1544.84 L908.121 1536.69 L892.519 1536.69 L892.519 1532.18 L906.894 1510.28 Z" fill="#000000" fill-rule="evenodd" fill-opacity="1" /><path clip-path="url(#clip810)" d="M962.077 1570.35 L991.752 1570.35 L991.752 1574.29 L962.077 1574.29 L962.077 1570.35 Z" fill="#000000" fill-rule="evenodd" fill-opacity="1" /><path clip-path="url(#clip810)" d="M1005.87 1583.25 L1022.19 1583.25 L1022.19 1587.18 L1000.25 1587.18 L1000.25 1583.25 Q1002.91 1580.49 1007.49 1575.86 Q1012.1 1571.21 1013.28 1569.87 Q1015.53 1567.34 1016.41 1565.61 Q1017.31 1563.85 1017.31 1562.16 Q1017.31 1559.41 1015.36 1557.67 Q1013.44 1555.93 1010.34 1555.93 Q1008.14 1555.93 1005.69 1556.7 Q1003.26 1557.46 1000.48 1559.01 L1000.48 1554.29 Q1003.3 1553.16 1005.76 1552.58 Q1008.21 1552 1010.25 1552 Q1015.62 1552 1018.81 1554.68 Q1022.01 1557.37 1022.01 1561.86 Q1022.01 1563.99 1021.2 1565.91 Q1020.41 1567.81 1018.3 1570.4 Q1017.72 1571.07 1014.62 1574.29 Q1011.52 1577.48 1005.87 1583.25 Z" fill="#000000" fill-rule="evenodd" fill-opacity="1" /><path clip-path="url(#clip810)" d="M1118.39 1599.52 Q1114.78 1599.52 1112.95 1603.09 Q1111.15 1606.63 1111.15 1613.76 Q1111.15 1620.87 1112.95 1624.43 Q1114.78 1627.97 1118.39 1627.97 Q1122.02 1627.97 1123.83 1624.43 Q1125.66 1620.87 1125.66 1613.76 Q1125.66 1606.63 1123.83 1603.09 Q1122.02 1599.52 1118.39 1599.52 M1118.39 1595.82 Q1124.2 1595.82 1127.26 1600.43 Q1130.34 1605.01 1130.34 1613.76 Q1130.34 1622.49 1127.26 1627.09 Q1124.2 1631.68 1118.39 1631.68 Q1112.58 1631.68 1109.5 1627.09 Q1106.45 1622.49 1106.45 1613.76 Q1106.45 1605.01 1109.5 1600.43 Q1112.58 1595.82 1118.39 1595.82 Z" fill="#000000" fill-rule="evenodd" fill-opacity="1" /><path clip-path="url(#clip810)" d="M1226.01 1672.45 L1242.33 1672.45 L1242.33 1676.39 L1220.38 1676.39 L1220.38 1672.45 Q1223.05 1669.7 1227.63 1665.07 Q1232.24 1660.42 1233.42 1659.07 Q1235.66 1656.55 1236.54 1654.81 Q1237.44 1653.05 1237.44 1651.36 Q1237.44 1648.61 1235.5 1646.87 Q1233.58 1645.14 1230.48 1645.14 Q1228.28 1645.14 1225.82 1645.9 Q1223.39 1646.67 1220.62 1648.22 L1220.62 1643.49 Q1223.44 1642.36 1225.89 1641.78 Q1228.35 1641.2 1230.38 1641.2 Q1235.75 1641.2 1238.95 1643.89 Q1242.14 1646.57 1242.14 1651.06 Q1242.14 1653.19 1241.33 1655.11 Q1240.55 1657.01 1238.44 1659.61 Q1237.86 1660.28 1234.76 1663.49 Q1231.66 1666.69 1226.01 1672.45 Z" fill="#000000" fill-rule="evenodd" fill-opacity="1" /><path clip-path="url(#clip810)" d="M1348.8 1692.93 L1336.99 1711.38 L1348.8 1711.38 L1348.8 1692.93 M1347.57 1688.86 L1353.45 1688.86 L1353.45 1711.38 L1358.38 1711.38 L1358.38 1715.27 L1353.45 1715.27 L1353.45 1723.42 L1348.8 1723.42 L1348.8 1715.27 L1333.2 1715.27 L1333.2 1710.75 L1347.57 1688.86 Z" fill="#000000" fill-rule="evenodd" fill-opacity="1" /><path clip-path="url(#clip810)" d="M1467.19 1753.04 Q1464.05 1753.04 1462.19 1755.19 Q1460.37 1757.34 1460.37 1761.09 Q1460.37 1764.82 1462.19 1766.99 Q1464.05 1769.15 1467.19 1769.15 Q1470.34 1769.15 1472.17 1766.99 Q1474.02 1764.82 1474.02 1761.09 Q1474.02 1757.34 1472.17 1755.19 Q1470.34 1753.04 1467.19 1753.04 M1476.48 1738.38 L1476.48 1742.64 Q1474.72 1741.81 1472.91 1741.37 Q1471.13 1740.93 1469.37 1740.93 Q1464.74 1740.93 1462.29 1744.05 Q1459.86 1747.18 1459.51 1753.5 Q1460.87 1751.49 1462.94 1750.42 Q1465 1749.33 1467.47 1749.33 Q1472.68 1749.33 1475.69 1752.5 Q1478.72 1755.65 1478.72 1761.09 Q1478.72 1766.42 1475.57 1769.63 Q1472.43 1772.85 1467.19 1772.85 Q1461.2 1772.85 1458.03 1768.27 Q1454.86 1763.66 1454.86 1754.93 Q1454.86 1746.74 1458.75 1741.88 Q1462.63 1736.99 1469.19 1736.99 Q1470.94 1736.99 1472.73 1737.34 Q1474.53 1737.69 1476.48 1738.38 Z" fill="#000000" fill-rule="evenodd" fill-opacity="1" /><polyline clip-path="url(#clip812)" style="stroke:#000000; stroke-linecap:butt; stroke-linejoin:round; stroke-width:2; stroke-opacity:0.1; fill:none" points="
  1648.52,1694.72 812.415,1367.49 
  "/>
<polyline clip-path="url(#clip812)" style="stroke:#000000; stroke-linecap:butt; stroke-linejoin:round; stroke-width:2; stroke-opacity:0.1; fill:none" points="
  812.415,1367.49 715.72,502.53 
  "/>
<polyline clip-path="url(#clip812)" style="stroke:#000000; stroke-linecap:butt; stroke-linejoin:round; stroke-width:2; stroke-opacity:0.1; fill:none" points="
  1707.65,1613.2 887.023,1304.56 
  "/>
<polyline clip-path="url(#clip812)" style="stroke:#000000; stroke-linecap:butt; stroke-linejoin:round; stroke-width:2; stroke-opacity:0.1; fill:none" points="
  887.023,1304.56 805.322,456.582 
  "/>
<polyline clip-path="url(#clip812)" style="stroke:#000000; stroke-linecap:butt; stroke-linejoin:round; stroke-width:2; stroke-opacity:0.1; fill:none" points="
  1763.26,1536.53 957.711,1244.94 
  "/>
<polyline clip-path="url(#clip812)" style="stroke:#000000; stroke-linecap:butt; stroke-linejoin:round; stroke-width:2; stroke-opacity:0.1; fill:none" points="
  957.711,1244.94 889.483,413.425 
  "/>
<polyline clip-path="url(#clip812)" style="stroke:#000000; stroke-linecap:butt; stroke-linejoin:round; stroke-width:2; stroke-opacity:0.1; fill:none" points="
  1815.66,1464.29 1024.78,1188.36 
  "/>
<polyline clip-path="url(#clip812)" style="stroke:#000000; stroke-linecap:butt; stroke-linejoin:round; stroke-width:2; stroke-opacity:0.1; fill:none" points="
  1024.78,1188.36 968.686,372.81 
  "/>
<polyline clip-path="url(#clip812)" style="stroke:#000000; stroke-linecap:butt; stroke-linejoin:round; stroke-width:2; stroke-opacity:0.1; fill:none" points="
  1865.12,1396.1 1088.5,1134.61 
  "/>
<polyline clip-path="url(#clip812)" style="stroke:#000000; stroke-linecap:butt; stroke-linejoin:round; stroke-width:2; stroke-opacity:0.1; fill:none" points="
  1088.5,1134.61 1043.35,334.519 
  "/>
<polyline clip-path="url(#clip812)" style="stroke:#000000; stroke-linecap:butt; stroke-linejoin:round; stroke-width:2; stroke-opacity:0.1; fill:none" points="
  1911.88,1331.64 1149.12,1083.48 
  "/>
<polyline clip-path="url(#clip812)" style="stroke:#000000; stroke-linecap:butt; stroke-linejoin:round; stroke-width:2; stroke-opacity:0.1; fill:none" points="
  1149.12,1083.48 1113.87,298.36 
  "/>
<polyline clip-path="url(#clip812)" style="stroke:#000000; stroke-linecap:butt; stroke-linejoin:round; stroke-width:2; stroke-opacity:0.1; fill:none" points="
  1956.15,1270.6 1206.85,1034.78 
  "/>
<polyline clip-path="url(#clip812)" style="stroke:#000000; stroke-linecap:butt; stroke-linejoin:round; stroke-width:2; stroke-opacity:0.1; fill:none" points="
  1206.85,1034.78 1180.57,264.158 
  "/>
<polyline clip-path="url(#clip810)" style="stroke:#000000; stroke-linecap:butt; stroke-linejoin:round; stroke-width:4; stroke-opacity:1; fill:none" points="
  1595.72,1767.51 1991.67,1221.64 
  "/>
<polyline clip-path="url(#clip810)" style="stroke:#000000; stroke-linecap:butt; stroke-linejoin:round; stroke-width:4; stroke-opacity:1; fill:none" points="
  1648.52,1694.72 1637.1,1690.25 
  "/>
<polyline clip-path="url(#clip810)" style="stroke:#000000; stroke-linecap:butt; stroke-linejoin:round; stroke-width:4; stroke-opacity:1; fill:none" points="
  1707.65,1613.2 1696.48,1609 
  "/>
<polyline clip-path="url(#clip810)" style="stroke:#000000; stroke-linecap:butt; stroke-linejoin:round; stroke-width:4; stroke-opacity:1; fill:none" points="
  1763.26,1536.53 1752.34,1532.58 
  "/>
<polyline clip-path="url(#clip810)" style="stroke:#000000; stroke-linecap:butt; stroke-linejoin:round; stroke-width:4; stroke-opacity:1; fill:none" points="
  1815.66,1464.29 1804.97,1460.56 
  "/>
<polyline clip-path="url(#clip810)" style="stroke:#000000; stroke-linecap:butt; stroke-linejoin:round; stroke-width:4; stroke-opacity:1; fill:none" points="
  1865.12,1396.1 1854.66,1392.58 
  "/>
<polyline clip-path="url(#clip810)" style="stroke:#000000; stroke-linecap:butt; stroke-linejoin:round; stroke-width:4; stroke-opacity:1; fill:none" points="
  1911.88,1331.64 1901.63,1328.3 
  "/>
<polyline clip-path="url(#clip810)" style="stroke:#000000; stroke-linecap:butt; stroke-linejoin:round; stroke-width:4; stroke-opacity:1; fill:none" points="
  1956.15,1270.6 1946.12,1267.44 
  "/>
<path clip-path="url(#clip810)" d="M1674.63 1714.11 L1704.31 1714.11 L1704.31 1718.04 L1674.63 1718.04 L1674.63 1714.11 Z" fill="#000000" fill-rule="evenodd" fill-opacity="1" /><path clip-path="url(#clip810)" d="M1724.98 1711.79 Q1721.83 1711.79 1719.98 1713.95 Q1718.15 1716.1 1718.15 1719.85 Q1718.15 1723.58 1719.98 1725.75 Q1721.83 1727.91 1724.98 1727.91 Q1728.13 1727.91 1729.96 1725.75 Q1731.81 1723.58 1731.81 1719.85 Q1731.81 1716.1 1729.96 1713.95 Q1728.13 1711.79 1724.98 1711.79 M1734.26 1697.14 L1734.26 1701.4 Q1732.5 1700.57 1730.7 1700.13 Q1728.91 1699.69 1727.16 1699.69 Q1722.53 1699.69 1720.07 1702.81 Q1717.64 1705.94 1717.29 1712.26 Q1718.66 1710.24 1720.72 1709.18 Q1722.78 1708.09 1725.26 1708.09 Q1730.47 1708.09 1733.47 1711.26 Q1736.51 1714.41 1736.51 1719.85 Q1736.51 1725.17 1733.36 1728.39 Q1730.21 1731.61 1724.98 1731.61 Q1718.98 1731.61 1715.81 1727.03 Q1712.64 1722.42 1712.64 1713.69 Q1712.64 1705.5 1716.53 1700.64 Q1720.42 1695.75 1726.97 1695.75 Q1728.73 1695.75 1730.51 1696.1 Q1732.32 1696.45 1734.26 1697.14 Z" fill="#000000" fill-rule="evenodd" fill-opacity="1" /><path clip-path="url(#clip810)" d="M1733.76 1632.59 L1763.44 1632.59 L1763.44 1636.53 L1733.76 1636.53 L1733.76 1632.59 Z" fill="#000000" fill-rule="evenodd" fill-opacity="1" /><path clip-path="url(#clip810)" d="M1786.38 1618.93 L1774.57 1637.38 L1786.38 1637.38 L1786.38 1618.93 M1785.15 1614.86 L1791.03 1614.86 L1791.03 1637.38 L1795.96 1637.38 L1795.96 1641.27 L1791.03 1641.27 L1791.03 1649.42 L1786.38 1649.42 L1786.38 1641.27 L1770.77 1641.27 L1770.77 1636.76 L1785.15 1614.86 Z" fill="#000000" fill-rule="evenodd" fill-opacity="1" /><path clip-path="url(#clip810)" d="M1789.37 1555.92 L1819.05 1555.92 L1819.05 1559.86 L1789.37 1559.86 L1789.37 1555.92 Z" fill="#000000" fill-rule="evenodd" fill-opacity="1" /><path clip-path="url(#clip810)" d="M1833.17 1568.81 L1849.49 1568.81 L1849.49 1572.75 L1827.54 1572.75 L1827.54 1568.81 Q1830.21 1566.06 1834.79 1561.43 Q1839.4 1556.78 1840.58 1555.43 Q1842.82 1552.91 1843.7 1551.18 Q1844.6 1549.42 1844.6 1547.73 Q1844.6 1544.97 1842.66 1543.24 Q1840.74 1541.5 1837.64 1541.5 Q1835.44 1541.5 1832.98 1542.26 Q1830.55 1543.03 1827.78 1544.58 L1827.78 1539.86 Q1830.6 1538.72 1833.05 1538.14 Q1835.51 1537.56 1837.54 1537.56 Q1842.91 1537.56 1846.11 1540.25 Q1849.3 1542.93 1849.3 1547.43 Q1849.3 1549.56 1848.49 1551.48 Q1847.71 1553.37 1845.6 1555.97 Q1845.02 1556.64 1841.92 1559.86 Q1838.82 1563.05 1833.17 1568.81 Z" fill="#000000" fill-rule="evenodd" fill-opacity="1" /><path clip-path="url(#clip810)" d="M1853.72 1469.03 Q1850.11 1469.03 1848.28 1472.59 Q1846.47 1476.13 1846.47 1483.26 Q1846.47 1490.37 1848.28 1493.93 Q1850.11 1497.47 1853.72 1497.47 Q1857.35 1497.47 1859.16 1493.93 Q1860.99 1490.37 1860.99 1483.26 Q1860.99 1476.13 1859.16 1472.59 Q1857.35 1469.03 1853.72 1469.03 M1853.72 1465.32 Q1859.53 1465.32 1862.58 1469.93 Q1865.66 1474.51 1865.66 1483.26 Q1865.66 1491.99 1862.58 1496.6 Q1859.53 1501.18 1853.72 1501.18 Q1847.91 1501.18 1844.83 1496.6 Q1841.77 1491.99 1841.77 1483.26 Q1841.77 1474.51 1844.83 1469.93 Q1847.91 1465.32 1853.72 1465.32 Z" fill="#000000" fill-rule="evenodd" fill-opacity="1" /><path clip-path="url(#clip810)" d="M1896.86 1428.39 L1913.18 1428.39 L1913.18 1432.32 L1891.23 1432.32 L1891.23 1428.39 Q1893.89 1425.63 1898.48 1421 Q1903.08 1416.35 1904.26 1415.01 Q1906.51 1412.48 1907.39 1410.75 Q1908.29 1408.99 1908.29 1407.3 Q1908.29 1404.54 1906.35 1402.81 Q1904.43 1401.07 1901.32 1401.07 Q1899.13 1401.07 1896.67 1401.83 Q1894.24 1402.6 1891.46 1404.15 L1891.46 1399.43 Q1894.29 1398.29 1896.74 1397.71 Q1899.2 1397.14 1901.23 1397.14 Q1906.6 1397.14 1909.8 1399.82 Q1912.99 1402.51 1912.99 1407 Q1912.99 1409.13 1912.18 1411.05 Q1911.39 1412.95 1909.29 1415.54 Q1908.71 1416.21 1905.61 1419.43 Q1902.51 1422.62 1896.86 1428.39 Z" fill="#000000" fill-rule="evenodd" fill-opacity="1" /><path clip-path="url(#clip810)" d="M1953.59 1337.37 L1941.79 1355.82 L1953.59 1355.82 L1953.59 1337.37 M1952.37 1333.3 L1958.25 1333.3 L1958.25 1355.82 L1963.18 1355.82 L1963.18 1359.71 L1958.25 1359.71 L1958.25 1367.86 L1953.59 1367.86 L1953.59 1359.71 L1937.99 1359.71 L1937.99 1355.19 L1952.37 1333.3 Z" fill="#000000" fill-rule="evenodd" fill-opacity="1" /><path clip-path="url(#clip810)" d="M1994.6 1287.68 Q1991.45 1287.68 1989.6 1289.83 Q1987.77 1291.98 1987.77 1295.73 Q1987.77 1299.46 1989.6 1301.63 Q1991.45 1303.79 1994.6 1303.79 Q1997.75 1303.79 1999.58 1301.63 Q2001.43 1299.46 2001.43 1295.73 Q2001.43 1291.98 1999.58 1289.83 Q1997.75 1287.68 1994.6 1287.68 M2003.88 1273.02 L2003.88 1277.28 Q2002.12 1276.45 2000.32 1276.01 Q1998.54 1275.57 1996.78 1275.57 Q1992.15 1275.57 1989.69 1278.69 Q1987.26 1281.82 1986.92 1288.14 Q1988.28 1286.12 1990.34 1285.06 Q1992.4 1283.97 1994.88 1283.97 Q2000.09 1283.97 2003.1 1287.14 Q2006.13 1290.29 2006.13 1295.73 Q2006.13 1301.05 2002.98 1304.27 Q1999.83 1307.49 1994.6 1307.49 Q1988.61 1307.49 1985.43 1302.91 Q1982.26 1298.3 1982.26 1289.57 Q1982.26 1281.38 1986.15 1276.52 Q1990.04 1271.63 1996.59 1271.63 Q1998.35 1271.63 2000.13 1271.98 Q2001.94 1272.33 2003.88 1273.02 Z" fill="#000000" fill-rule="evenodd" fill-opacity="1" /><polyline clip-path="url(#clip812)" style="stroke:#000000; stroke-linecap:butt; stroke-linejoin:round; stroke-width:2; stroke-opacity:0.1; fill:none" points="
  734.462,1329.42 1251.28,912.351 
  "/>
<polyline clip-path="url(#clip812)" style="stroke:#000000; stroke-linecap:butt; stroke-linejoin:round; stroke-width:2; stroke-opacity:0.1; fill:none" points="
  1251.28,912.351 2001.55,1132.48 
  "/>
<polyline clip-path="url(#clip812)" style="stroke:#000000; stroke-linecap:butt; stroke-linejoin:round; stroke-width:2; stroke-opacity:0.1; fill:none" points="
  715.434,1178.16 1247.89,779.468 
  "/>
<polyline clip-path="url(#clip812)" style="stroke:#000000; stroke-linecap:butt; stroke-linejoin:round; stroke-width:2; stroke-opacity:0.1; fill:none" points="
  1247.89,779.468 2017.41,989.379 
  "/>
<polyline clip-path="url(#clip812)" style="stroke:#000000; stroke-linecap:butt; stroke-linejoin:round; stroke-width:2; stroke-opacity:0.1; fill:none" points="
  695.28,1017.95 1244.33,640.218 
  "/>
<polyline clip-path="url(#clip812)" style="stroke:#000000; stroke-linecap:butt; stroke-linejoin:round; stroke-width:2; stroke-opacity:0.1; fill:none" points="
  1244.33,640.218 2034.13,838.574 
  "/>
<polyline clip-path="url(#clip812)" style="stroke:#000000; stroke-linecap:butt; stroke-linejoin:round; stroke-width:2; stroke-opacity:0.1; fill:none" points="
  673.896,847.959 1240.6,494.132 
  "/>
<polyline clip-path="url(#clip812)" style="stroke:#000000; stroke-linecap:butt; stroke-linejoin:round; stroke-width:2; stroke-opacity:0.1; fill:none" points="
  1240.6,494.132 2051.77,679.425 
  "/>
<polyline clip-path="url(#clip812)" style="stroke:#000000; stroke-linecap:butt; stroke-linejoin:round; stroke-width:2; stroke-opacity:0.1; fill:none" points="
  651.167,667.277 1236.67,340.693 
  "/>
<polyline clip-path="url(#clip812)" style="stroke:#000000; stroke-linecap:butt; stroke-linejoin:round; stroke-width:2; stroke-opacity:0.1; fill:none" points="
  1236.67,340.693 2070.42,511.221 
  "/>
<polyline clip-path="url(#clip810)" style="stroke:#000000; stroke-linecap:butt; stroke-linejoin:round; stroke-width:4; stroke-opacity:1; fill:none" points="
  746.27,1423.29 635.61,543.61 
  "/>
<polyline clip-path="url(#clip810)" style="stroke:#000000; stroke-linecap:butt; stroke-linejoin:round; stroke-width:4; stroke-opacity:1; fill:none" points="
  734.462,1329.42 742.021,1323.32 
  "/>
<polyline clip-path="url(#clip810)" style="stroke:#000000; stroke-linecap:butt; stroke-linejoin:round; stroke-width:4; stroke-opacity:1; fill:none" points="
  715.434,1178.16 723.262,1172.3 
  "/>
<polyline clip-path="url(#clip810)" style="stroke:#000000; stroke-linecap:butt; stroke-linejoin:round; stroke-width:4; stroke-opacity:1; fill:none" points="
  695.28,1017.95 703.396,1012.36 
  "/>
<polyline clip-path="url(#clip810)" style="stroke:#000000; stroke-linecap:butt; stroke-linejoin:round; stroke-width:4; stroke-opacity:1; fill:none" points="
  673.896,847.959 682.321,842.699 
  "/>
<polyline clip-path="url(#clip810)" style="stroke:#000000; stroke-linecap:butt; stroke-linejoin:round; stroke-width:4; stroke-opacity:1; fill:none" points="
  651.167,667.277 659.924,662.392 
  "/>
<path clip-path="url(#clip810)" d="M640.007 1329.87 L669.683 1329.87 L669.683 1333.81 L640.007 1333.81 L640.007 1329.87 Z" fill="#000000" fill-rule="evenodd" fill-opacity="1" /><path clip-path="url(#clip810)" d="M692.623 1316.22 L680.817 1334.66 L692.623 1334.66 L692.623 1316.22 M691.396 1312.14 L697.275 1312.14 L697.275 1334.66 L702.206 1334.66 L702.206 1338.55 L697.275 1338.55 L697.275 1346.7 L692.623 1346.7 L692.623 1338.55 L677.021 1338.55 L677.021 1334.04 L691.396 1312.14 Z" fill="#000000" fill-rule="evenodd" fill-opacity="1" /><path clip-path="url(#clip810)" d="M623.063 1178.61 L652.738 1178.61 L652.738 1182.55 L623.063 1182.55 L623.063 1178.61 Z" fill="#000000" fill-rule="evenodd" fill-opacity="1" /><path clip-path="url(#clip810)" d="M666.859 1191.51 L683.178 1191.51 L683.178 1195.44 L661.234 1195.44 L661.234 1191.51 Q663.896 1188.75 668.479 1184.12 Q673.085 1179.47 674.266 1178.13 Q676.511 1175.6 677.391 1173.87 Q678.294 1172.11 678.294 1170.42 Q678.294 1167.66 676.349 1165.93 Q674.428 1164.19 671.326 1164.19 Q669.127 1164.19 666.673 1164.95 Q664.243 1165.72 661.465 1167.27 L661.465 1162.55 Q664.289 1161.41 666.743 1160.83 Q669.197 1160.26 671.234 1160.26 Q676.604 1160.26 679.798 1162.94 Q682.993 1165.63 682.993 1170.12 Q682.993 1172.25 682.183 1174.17 Q681.396 1176.07 679.289 1178.66 Q678.71 1179.33 675.609 1182.55 Q672.507 1185.74 666.859 1191.51 Z" fill="#000000" fill-rule="evenodd" fill-opacity="1" /><path clip-path="url(#clip810)" d="M651.079 1003.74 Q647.468 1003.74 645.639 1007.31 Q643.834 1010.85 643.834 1017.98 Q643.834 1025.09 645.639 1028.65 Q647.468 1032.19 651.079 1032.19 Q654.713 1032.19 656.519 1028.65 Q658.348 1025.09 658.348 1017.98 Q658.348 1010.85 656.519 1007.31 Q654.713 1003.74 651.079 1003.74 M651.079 1000.04 Q656.889 1000.04 659.945 1004.65 Q663.024 1009.23 663.024 1017.98 Q663.024 1026.71 659.945 1031.31 Q656.889 1035.9 651.079 1035.9 Q645.269 1035.9 642.19 1031.31 Q639.135 1026.71 639.135 1017.98 Q639.135 1009.23 642.19 1004.65 Q645.269 1000.04 651.079 1000.04 Z" fill="#000000" fill-rule="evenodd" fill-opacity="1" /><path clip-path="url(#clip810)" d="M625.321 861.304 L641.64 861.304 L641.64 865.239 L619.696 865.239 L619.696 861.304 Q622.358 858.549 626.941 853.919 Q631.547 849.267 632.728 847.924 Q634.973 845.401 635.853 843.665 Q636.756 841.906 636.756 840.216 Q636.756 837.461 634.811 835.725 Q632.89 833.989 629.788 833.989 Q627.589 833.989 625.135 834.753 Q622.705 835.517 619.927 837.068 L619.927 832.345 Q622.751 831.211 625.205 830.632 Q627.659 830.054 629.696 830.054 Q635.066 830.054 638.26 832.739 Q641.455 835.424 641.455 839.915 Q641.455 842.044 640.645 843.966 Q639.858 845.864 637.751 848.456 Q637.172 849.128 634.071 852.345 Q630.969 855.54 625.321 861.304 Z" fill="#000000" fill-rule="evenodd" fill-opacity="1" /><path clip-path="url(#clip810)" d="M609.328 654.071 L597.522 672.52 L609.328 672.52 L609.328 654.071 M608.101 649.997 L613.98 649.997 L613.98 672.52 L618.911 672.52 L618.911 676.409 L613.98 676.409 L613.98 684.557 L609.328 684.557 L609.328 676.409 L593.726 676.409 L593.726 671.895 L608.101 649.997 Z" fill="#000000" fill-rule="evenodd" fill-opacity="1" /><polyline clip-path="url(#clip812)" style="stroke:#e26f46; stroke-linecap:butt; stroke-linejoin:round; stroke-width:4; stroke-opacity:1; fill:none" points="
  978.431,1364.25 1009.57,1486.28 
  "/>
<polyline clip-path="url(#clip812)" style="stroke:#3da44d; stroke-linecap:butt; stroke-linejoin:round; stroke-width:4; stroke-opacity:1; fill:none" points="
  948.032,984.083 979.852,1094.05 
  "/>
<polyline clip-path="url(#clip812)" style="stroke:#c271d2; stroke-linecap:butt; stroke-linejoin:round; stroke-width:4; stroke-opacity:1; fill:none" points="
  912.866,544.287 945.184,636.529 
  "/>
<polyline clip-path="url(#clip812)" style="stroke:#ac8d18; stroke-linecap:butt; stroke-linejoin:round; stroke-width:4; stroke-opacity:1; fill:none" points="
  1066.5,1285.33 1043.73,1377.37 
  "/>
<polyline clip-path="url(#clip812)" style="stroke:#00a9ad; stroke-linecap:butt; stroke-linejoin:round; stroke-width:4; stroke-opacity:1; fill:none" points="
  1043.37,913.416 1017.92,995.872 
  "/>
<polyline clip-path="url(#clip812)" style="stroke:#ed5d92; stroke-linecap:butt; stroke-linejoin:round; stroke-width:4; stroke-opacity:1; fill:none" points="
  1016.76,485.44 988.043,554.137 
  "/>
<polyline clip-path="url(#clip812)" style="stroke:#c68125; stroke-linecap:butt; stroke-linejoin:round; stroke-width:4; stroke-opacity:1; fill:none" points="
  1148.79,1211.58 1074.98,1277.73 
  "/>
<polyline clip-path="url(#clip812)" style="stroke:#00a98d; stroke-linecap:butt; stroke-linejoin:round; stroke-width:4; stroke-opacity:1; fill:none" points="
  1132.04,847.694 1052.53,906.63 
  "/>
<polyline clip-path="url(#clip812)" style="stroke:#8e971d; stroke-linecap:butt; stroke-linejoin:round; stroke-width:4; stroke-opacity:1; fill:none" points="
  1112.86,431.009 1026.71,479.806 
  "/>
<polyline clip-path="url(#clip812)" style="stroke:#00a8cb; stroke-linecap:butt; stroke-linejoin:round; stroke-width:4; stroke-opacity:1; fill:none" points="
  1225.86,1142.52 1103.67,1186.22 
  "/>
<polyline clip-path="url(#clip812)" style="stroke:#9b7fe8; stroke-linecap:butt; stroke-linejoin:round; stroke-width:4; stroke-opacity:1; fill:none" points="
  1214.72,786.415 1084.12,825.158 
  "/>
<polyline clip-path="url(#clip812)" style="stroke:#608cf6; stroke-linecap:butt; stroke-linejoin:round; stroke-width:4; stroke-opacity:1; fill:none" points="
  1202.01,380.515 1061.77,412.41 
  "/>
<polyline clip-path="url(#clip812)" style="stroke:#f05f73; stroke-linecap:butt; stroke-linejoin:round; stroke-width:4; stroke-opacity:1; fill:none" points="
  1298.19,1077.7 1130.12,1101.88 
  "/>
<polyline clip-path="url(#clip812)" style="stroke:#dd64b5; stroke-linecap:butt; stroke-linejoin:round; stroke-width:4; stroke-opacity:1; fill:none" points="
  1291.98,729.143 1113.08,750.481 
  "/>
<polyline clip-path="url(#clip812)" style="stroke:#6b9e32; stroke-linecap:butt; stroke-linejoin:round; stroke-width:4; stroke-opacity:1; fill:none" points="
  1284.94,333.545 1093.7,351.02 
  "/>
<polyline clip-path="url(#clip812)" style="stroke:#009af9; stroke-linecap:butt; stroke-linejoin:round; stroke-width:4; stroke-opacity:1; fill:none" points="
  1105.03,1412.38 1184.24,1497.86 
  "/>
<polyline clip-path="url(#clip812)" style="stroke:#e26f46; stroke-linecap:butt; stroke-linejoin:round; stroke-width:4; stroke-opacity:1; fill:none" points="
  1083.36,1027.36 1167.85,1104.52 
  "/>
<polyline clip-path="url(#clip812)" style="stroke:#3da44d; stroke-linecap:butt; stroke-linejoin:round; stroke-width:4; stroke-opacity:1; fill:none" points="
  1058.22,580.489 1148.73,645.358 
  "/>
<polyline clip-path="url(#clip812)" style="stroke:#c271d2; stroke-linecap:butt; stroke-linejoin:round; stroke-width:4; stroke-opacity:1; fill:none" points="
  1190.47,1330.23 1210.75,1387.94 
  "/>
<polyline clip-path="url(#clip812)" style="stroke:#ac8d18; stroke-linecap:butt; stroke-linejoin:round; stroke-width:4; stroke-opacity:1; fill:none" points="
  1175.73,953.577 1197.1,1005.37 
  "/>
<polyline clip-path="url(#clip812)" style="stroke:#00a9ad; stroke-linecap:butt; stroke-linejoin:round; stroke-width:4; stroke-opacity:1; fill:none" points="
  1158.72,518.843 1181.29,562.078 
  "/>
<polyline clip-path="url(#clip812)" style="stroke:#ed5d92; stroke-linecap:butt; stroke-linejoin:round; stroke-width:4; stroke-opacity:1; fill:none" points="
  1270.21,1253.56 1235,1287.42 
  "/>
<polyline clip-path="url(#clip812)" style="stroke:#c68125; stroke-linecap:butt; stroke-linejoin:round; stroke-width:4; stroke-opacity:1; fill:none" points="
  1261.5,885.066 1223.68,915.281 
  "/>
<polyline clip-path="url(#clip812)" style="stroke:#00a98d; stroke-linecap:butt; stroke-linejoin:round; stroke-width:4; stroke-opacity:1; fill:none" points="
  1251.5,461.925 1210.64,486.988 
  "/>
<polyline clip-path="url(#clip812)" style="stroke:#8e971d; stroke-linecap:butt; stroke-linejoin:round; stroke-width:4; stroke-opacity:1; fill:none" points="
  1344.8,1181.85 1257.26,1195.13 
  "/>
<polyline clip-path="url(#clip812)" style="stroke:#00a8cb; stroke-linecap:butt; stroke-linejoin:round; stroke-width:4; stroke-opacity:1; fill:none" points="
  1341.36,821.279 1247.93,833.07 
  "/>
<polyline clip-path="url(#clip812)" style="stroke:#9b7fe8; stroke-linecap:butt; stroke-linejoin:round; stroke-width:4; stroke-opacity:1; fill:none" points="
  1337.43,409.212 1237.25,418.936 
  "/>
<polyline clip-path="url(#clip812)" style="stroke:#608cf6; stroke-linecap:butt; stroke-linejoin:round; stroke-width:4; stroke-opacity:1; fill:none" points="
  1414.71,1114.63 1277.77,1110.1 
  "/>
<polyline clip-path="url(#clip812)" style="stroke:#f05f73; stroke-linecap:butt; stroke-linejoin:round; stroke-width:4; stroke-opacity:1; fill:none" points="
  1415.89,761.743 1270.14,757.746 
  "/>
<polyline clip-path="url(#clip812)" style="stroke:#dd64b5; stroke-linecap:butt; stroke-linejoin:round; stroke-width:4; stroke-opacity:1; fill:none" points="
  1417.23,360.255 1261.47,356.976 
  "/>
<polyline clip-path="url(#clip812)" style="stroke:#6b9e32; stroke-linecap:butt; stroke-linejoin:round; stroke-width:4; stroke-opacity:1; fill:none" points="
  1236.96,1462.55 1360.56,1509.54 
  "/>
<polyline clip-path="url(#clip812)" style="stroke:#009af9; stroke-linecap:butt; stroke-linejoin:round; stroke-width:4; stroke-opacity:1; fill:none" points="
  1224.84,1072.6 1357.78,1115.11 
  "/>
<polyline clip-path="url(#clip812)" style="stroke:#e26f46; stroke-linecap:butt; stroke-linejoin:round; stroke-width:4; stroke-opacity:1; fill:none" points="
  1210.72,618.47 1354.53,654.285 
  "/>
<polyline clip-path="url(#clip812)" style="stroke:#3da44d; stroke-linecap:butt; stroke-linejoin:round; stroke-width:4; stroke-opacity:1; fill:none" points="
  1319.5,1376.95 1379.29,1398.61 
  "/>
<polyline clip-path="url(#clip812)" style="stroke:#c271d2; stroke-linecap:butt; stroke-linejoin:round; stroke-width:4; stroke-opacity:1; fill:none" points="
  1313.87,995.493 1378.03,1014.96 
  "/>
<polyline clip-path="url(#clip812)" style="stroke:#ac8d18; stroke-linecap:butt; stroke-linejoin:round; stroke-width:4; stroke-opacity:1; fill:none" points="
  1307.36,553.82 1376.56,570.104 
  "/>
<polyline clip-path="url(#clip812)" style="stroke:#00a9ad; stroke-linecap:butt; stroke-linejoin:round; stroke-width:4; stroke-opacity:1; fill:none" points="
  1396.41,1297.19 1396.41,1297.19 
  "/>
<polyline clip-path="url(#clip812)" style="stroke:#ed5d92; stroke-linecap:butt; stroke-linejoin:round; stroke-width:4; stroke-opacity:1; fill:none" points="
  1396.41,924.012 1396.41,924.012 
  "/>
<polyline clip-path="url(#clip812)" style="stroke:#c68125; stroke-linecap:butt; stroke-linejoin:round; stroke-width:4; stroke-opacity:1; fill:none" points="
  1396.41,494.242 1396.41,494.242 
  "/>
<polyline clip-path="url(#clip812)" style="stroke:#00a98d; stroke-linecap:butt; stroke-linejoin:round; stroke-width:4; stroke-opacity:1; fill:none" points="
  1468.26,1222.67 1412.13,1204.11 
  "/>
<polyline clip-path="url(#clip812)" style="stroke:#8e971d; stroke-linecap:butt; stroke-linejoin:round; stroke-width:4; stroke-opacity:1; fill:none" points="
  1473.15,857.559 1413.19,841.052 
  "/>
<polyline clip-path="url(#clip812)" style="stroke:#00a8cb; stroke-linecap:butt; stroke-linejoin:round; stroke-width:4; stroke-opacity:1; fill:none" points="
  1478.75,439.16 1414.4,425.524 
  "/>
<polyline clip-path="url(#clip812)" style="stroke:#9b7fe8; stroke-linecap:butt; stroke-linejoin:round; stroke-width:4; stroke-opacity:1; fill:none" points="
  1535.53,1152.91 1426.6,1118.39 
  "/>
<polyline clip-path="url(#clip812)" style="stroke:#608cf6; stroke-linecap:butt; stroke-linejoin:round; stroke-width:4; stroke-opacity:1; fill:none" points="
  1544.66,795.622 1428.55,765.072 
  "/>
<polyline clip-path="url(#clip812)" style="stroke:#f05f73; stroke-linecap:butt; stroke-linejoin:round; stroke-width:4; stroke-opacity:1; fill:none" points="
  1555.09,388.086 1430.76,362.986 
  "/>
<polyline clip-path="url(#clip812)" style="stroke:#dd64b5; stroke-linecap:butt; stroke-linejoin:round; stroke-width:4; stroke-opacity:1; fill:none" points="
  1374.59,1514.88 1538.57,1521.34 
  "/>
<polyline clip-path="url(#clip812)" style="stroke:#6b9e32; stroke-linecap:butt; stroke-linejoin:round; stroke-width:4; stroke-opacity:1; fill:none" points="
  1372.89,1119.94 1549.66,1125.8 
  "/>
<polyline clip-path="url(#clip812)" style="stroke:#009af9; stroke-linecap:butt; stroke-linejoin:round; stroke-width:4; stroke-opacity:1; fill:none" points="
  1370.91,658.364 1562.62,663.311 
  "/>
<polyline clip-path="url(#clip812)" style="stroke:#e26f46; stroke-linecap:butt; stroke-linejoin:round; stroke-width:4; stroke-opacity:1; fill:none" points="
  1453.89,1425.62 1549.36,1409.37 
  "/>
<polyline clip-path="url(#clip812)" style="stroke:#3da44d; stroke-linecap:butt; stroke-linejoin:round; stroke-width:4; stroke-opacity:1; fill:none" points="
  1458.19,1039.28 1560.72,1024.64 
  "/>
<polyline clip-path="url(#clip812)" style="stroke:#c271d2; stroke-linecap:butt; stroke-linejoin:round; stroke-width:4; stroke-opacity:1; fill:none" points="
  1463.18,590.486 1573.9,578.213 
  "/>
<polyline clip-path="url(#clip812)" style="stroke:#ac8d18; stroke-linecap:butt; stroke-linejoin:round; stroke-width:4; stroke-opacity:1; fill:none" points="
  1527.68,1342.56 1559.23,1307.04 
  "/>
<polyline clip-path="url(#clip812)" style="stroke:#00a9ad; stroke-linecap:butt; stroke-linejoin:round; stroke-width:4; stroke-opacity:1; fill:none" points="
  1537.13,964.632 1570.76,932.824 
  "/>
<polyline clip-path="url(#clip812)" style="stroke:#ed5d92; stroke-linecap:butt; stroke-linejoin:round; stroke-width:4; stroke-opacity:1; fill:none" points="
  1548.04,528.056 1584.05,501.568 
  "/>
<polyline clip-path="url(#clip812)" style="stroke:#c68125; stroke-linecap:butt; stroke-linejoin:round; stroke-width:4; stroke-opacity:1; fill:none" points="
  1596.51,1265.08 1568.29,1213.17 
  "/>
<polyline clip-path="url(#clip812)" style="stroke:#00a98d; stroke-linecap:butt; stroke-linejoin:round; stroke-width:4; stroke-opacity:1; fill:none" points="
  1610.4,895.343 1579.92,849.106 
  "/>
<polyline clip-path="url(#clip812)" style="stroke:#8e971d; stroke-linecap:butt; stroke-linejoin:round; stroke-width:4; stroke-opacity:1; fill:none" points="
  1626.36,470.443 1593.24,432.175 
  "/>
<polyline clip-path="url(#clip812)" style="stroke:#00a8cb; stroke-linecap:butt; stroke-linejoin:round; stroke-width:4; stroke-opacity:1; fill:none" points="
  1660.87,1192.64 1576.62,1126.75 
  "/>
<polyline clip-path="url(#clip812)" style="stroke:#9b7fe8; stroke-linecap:butt; stroke-linejoin:round; stroke-width:4; stroke-opacity:1; fill:none" points="
  1678.59,830.858 1588.3,772.461 
  "/>
<polyline clip-path="url(#clip812)" style="stroke:#608cf6; stroke-linecap:butt; stroke-linejoin:round; stroke-width:4; stroke-opacity:1; fill:none" points="
  1698.86,417.111 1601.61,369.051 
  "/>
<polyline clip-path="url(#clip812)" style="stroke:#f05f73; stroke-linecap:butt; stroke-linejoin:round; stroke-width:4; stroke-opacity:1; fill:none" points="
  1518.28,1569.51 1718.28,1533.25 
  "/>
<polyline clip-path="url(#clip812)" style="stroke:#dd64b5; stroke-linecap:butt; stroke-linejoin:round; stroke-width:4; stroke-opacity:1; fill:none" points="
  1527.99,1169.53 1743.52,1136.6 
  "/>
<polyline clip-path="url(#clip812)" style="stroke:#6b9e32; stroke-linecap:butt; stroke-linejoin:round; stroke-width:4; stroke-opacity:1; fill:none" points="
  1539.37,700.321 1773.05,672.438 
  "/>
<polyline clip-path="url(#clip812)" style="stroke:#009af9; stroke-linecap:butt; stroke-linejoin:round; stroke-width:4; stroke-opacity:1; fill:none" points="
  1593.98,1476.35 1720.99,1420.22 
  "/>
<polyline clip-path="url(#clip812)" style="stroke:#e26f46; stroke-linecap:butt; stroke-linejoin:round; stroke-width:4; stroke-opacity:1; fill:none" points="
  1609.09,1085.07 1745.21,1034.42 
  "/>
<polyline clip-path="url(#clip812)" style="stroke:#3da44d; stroke-linecap:butt; stroke-linejoin:round; stroke-width:4; stroke-opacity:1; fill:none" points="
  1626.71,628.966 1773.33,586.409 
  "/>
<polyline clip-path="url(#clip812)" style="stroke:#c271d2; stroke-linecap:butt; stroke-linejoin:round; stroke-width:4; stroke-opacity:1; fill:none" points="
  1664.31,1389.8 1723.48,1316.98 
  "/>
<polyline clip-path="url(#clip812)" style="stroke:#ac8d18; stroke-linecap:butt; stroke-linejoin:round; stroke-width:4; stroke-opacity:1; fill:none" points="
  1684.02,1007.04 1746.75,941.719 
  "/>
<polyline clip-path="url(#clip812)" style="stroke:#00a9ad; stroke-linecap:butt; stroke-linejoin:round; stroke-width:4; stroke-opacity:1; fill:none" points="
  1706.87,563.474 1773.58,508.968 
  "/>
<polyline clip-path="url(#clip812)" style="stroke:#ed5d92; stroke-linecap:butt; stroke-linejoin:round; stroke-width:4; stroke-opacity:1; fill:none" points="
  1729.83,1309.17 1725.75,1222.31 
  "/>
<polyline clip-path="url(#clip812)" style="stroke:#c68125; stroke-linecap:butt; stroke-linejoin:round; stroke-width:4; stroke-opacity:1; fill:none" points="
  1753.46,934.727 1748.15,857.232 
  "/>
<polyline clip-path="url(#clip812)" style="stroke:#00a98d; stroke-linecap:butt; stroke-linejoin:round; stroke-width:4; stroke-opacity:1; fill:none" points="
  1780.7,503.151 1773.81,438.89 
  "/>
<polyline clip-path="url(#clip812)" style="stroke:#8e971d; stroke-linecap:butt; stroke-linejoin:round; stroke-width:4; stroke-opacity:1; fill:none" points="
  1791,1233.88 1727.85,1135.17 
  "/>
<polyline clip-path="url(#clip812)" style="stroke:#00a8cb; stroke-linecap:butt; stroke-linejoin:round; stroke-width:4; stroke-opacity:1; fill:none" points="
  1817.98,867.532 1749.43,779.913 
  "/>
<polyline clip-path="url(#clip812)" style="stroke:#9b7fe8; stroke-linecap:butt; stroke-linejoin:round; stroke-width:4; stroke-opacity:1; fill:none" points="
  1848.93,447.408 1774.01,375.172 
  "/>
<polyline clip-path="url(#clip812)" style="stroke:#608cf6; stroke-linecap:butt; stroke-linejoin:round; stroke-width:12; stroke-opacity:1; fill:none" points="
  1396.41,1002.8 1396.41,494.242 
  "/>
</svg>
