<?xml version="1.0" encoding="utf-8"?>
<svg xmlns="http://www.w3.org/2000/svg" xmlns:xlink="http://www.w3.org/1999/xlink" width="672" height="480" viewBox="0 0 2688 1920">
<defs>
  <clipPath id="clip000">
    <rect x="0" y="0" width="2688" height="1920"/>
  </clipPath>
</defs>
<path clip-path="url(#clip000)" d="
M0 1920 L2688 1920 L2688 0 L0 0  Z
  " fill="#ffffff" fill-rule="evenodd" fill-opacity="1"/>
<defs>
  <clipPath id="clip001">
    <rect x="537" y="0" width="1883" height="1883"/>
  </clipPath>
</defs>
<defs>
  <clipPath id="clip002">
    <rect x="189" y="47" width="2453" height="1755"/>
  </clipPath>
</defs>
<path clip-path="url(#clip002)" d="
M-4460.21 5092.49 L-5356.8 2307.89 L-1101.34 -578.928 L2616.22 2935.01 L1685.41 5620.5 L-1708.91 8681.86 L-4460.21 5092.49  Z
  " fill="#ffffff" fill-rule="evenodd" fill-opacity="1"/>
<polyline clip-path="url(#clip002)" style="stroke:#000000; stroke-linecap:butt; stroke-linejoin:round; stroke-width:2; stroke-opacity:0.1; fill:none" points="
  860.771,1153.57 1516.85,690.413 
  "/>
<polyline clip-path="url(#clip002)" style="stroke:#000000; stroke-linecap:butt; stroke-linejoin:round; stroke-width:2; stroke-opacity:0.1; fill:none" points="
  1516.85,690.413 1544.2,120.561 
  "/>
<polyline clip-path="url(#clip002)" style="stroke:#000000; stroke-linecap:butt; stroke-linejoin:round; stroke-width:2; stroke-opacity:0.1; fill:none" points="
  990.41,1308.42 1651.9,821.619 
  "/>
<polyline clip-path="url(#clip002)" style="stroke:#000000; stroke-linecap:butt; stroke-linejoin:round; stroke-width:2; stroke-opacity:0.1; fill:none" points="
  1651.9,821.619 1717.47,270.508 
  "/>
<polyline clip-path="url(#clip002)" style="stroke:#000000; stroke-linecap:butt; stroke-linejoin:round; stroke-width:2; stroke-opacity:0.1; fill:none" points="
  1127.04,1471.61 1793.64,959.319 
  "/>
<polyline clip-path="url(#clip002)" style="stroke:#000000; stroke-linecap:butt; stroke-linejoin:round; stroke-width:2; stroke-opacity:0.1; fill:none" points="
  1793.64,959.319 1901.76,429.995 
  "/>
<polyline clip-path="url(#clip002)" style="stroke:#000000; stroke-linecap:butt; stroke-linejoin:round; stroke-width:2; stroke-opacity:0.1; fill:none" points="
  1271.24,1643.86 1942.56,1104.01 
  "/>
<polyline clip-path="url(#clip002)" style="stroke:#000000; stroke-linecap:butt; stroke-linejoin:round; stroke-width:2; stroke-opacity:0.1; fill:none" points="
  1942.56,1104.01 2098.16,599.961 
  "/>
<polyline clip-path="url(#clip000)" style="stroke:#000000; stroke-linecap:butt; stroke-linejoin:round; stroke-width:4; stroke-opacity:1; fill:none" points="
  809.964,1092.89 1356.11,1745.22 
  "/>
<polyline clip-path="url(#clip000)" style="stroke:#000000; stroke-linecap:butt; stroke-linejoin:round; stroke-width:4; stroke-opacity:1; fill:none" points="
  860.771,1153.57 869.306,1147.55 
  "/>
<polyline clip-path="url(#clip000)" style="stroke:#000000; stroke-linecap:butt; stroke-linejoin:round; stroke-width:4; stroke-opacity:1; fill:none" points="
  990.41,1308.42 999.033,1302.07 
  "/>
<polyline clip-path="url(#clip000)" style="stroke:#000000; stroke-linecap:butt; stroke-linejoin:round; stroke-width:4; stroke-opacity:1; fill:none" points="
  1127.04,1471.61 1135.75,1464.92 
  "/>
<polyline clip-path="url(#clip000)" style="stroke:#000000; stroke-linecap:butt; stroke-linejoin:round; stroke-width:4; stroke-opacity:1; fill:none" points="
  1271.24,1643.86 1280.03,1636.79 
  "/>
<path clip-path="url(#clip000)" d="M778.643 1158.99 Q775.032 1158.99 773.203 1162.56 Q771.398 1166.1 771.398 1173.23 Q771.398 1180.34 773.203 1183.9 Q775.032 1187.44 778.643 1187.44 Q782.277 1187.44 784.083 1183.9 Q785.911 1180.34 785.911 1173.23 Q785.911 1166.1 784.083 1162.56 Q782.277 1158.99 778.643 1158.99 M778.643 1155.29 Q784.453 1155.29 787.509 1159.9 Q790.587 1164.48 790.587 1173.23 Q790.587 1181.96 787.509 1186.56 Q784.453 1191.15 778.643 1191.15 Q772.833 1191.15 769.754 1186.56 Q766.699 1181.96 766.699 1173.23 Q766.699 1164.48 769.754 1159.9 Q772.833 1155.29 778.643 1155.29 Z" fill="#000000" fill-rule="evenodd" fill-opacity="1" /><path clip-path="url(#clip000)" d="M798.805 1184.6 L803.689 1184.6 L803.689 1190.47 L798.805 1190.47 L798.805 1184.6 Z" fill="#000000" fill-rule="evenodd" fill-opacity="1" /><path clip-path="url(#clip000)" d="M828.041 1171.84 Q831.397 1172.56 833.272 1174.83 Q835.17 1177.1 835.17 1180.43 Q835.17 1185.54 831.652 1188.35 Q828.133 1191.15 821.652 1191.15 Q819.476 1191.15 817.161 1190.71 Q814.87 1190.29 812.416 1189.43 L812.416 1184.92 Q814.36 1186.05 816.675 1186.63 Q818.99 1187.21 821.513 1187.21 Q825.911 1187.21 828.203 1185.47 Q830.518 1183.74 830.518 1180.43 Q830.518 1177.37 828.365 1175.66 Q826.235 1173.92 822.416 1173.92 L818.388 1173.92 L818.388 1170.08 L822.601 1170.08 Q826.05 1170.08 827.879 1168.72 Q829.707 1167.33 829.707 1164.73 Q829.707 1162.07 827.809 1160.66 Q825.934 1159.23 822.416 1159.23 Q820.495 1159.23 818.296 1159.64 Q816.096 1160.06 813.458 1160.94 L813.458 1156.77 Q816.12 1156.03 818.434 1155.66 Q820.772 1155.29 822.833 1155.29 Q828.157 1155.29 831.258 1157.72 Q834.36 1160.13 834.36 1164.25 Q834.36 1167.12 832.717 1169.11 Q831.073 1171.08 828.041 1171.84 Z" fill="#000000" fill-rule="evenodd" fill-opacity="1" /><path clip-path="url(#clip000)" d="M907.148 1313.84 Q903.537 1313.84 901.708 1317.4 Q899.902 1320.95 899.902 1328.07 Q899.902 1335.18 901.708 1338.75 Q903.537 1342.29 907.148 1342.29 Q910.782 1342.29 912.587 1338.75 Q914.416 1335.18 914.416 1328.07 Q914.416 1320.95 912.587 1317.4 Q910.782 1313.84 907.148 1313.84 M907.148 1310.14 Q912.958 1310.14 916.013 1314.74 Q919.092 1319.32 919.092 1328.07 Q919.092 1336.8 916.013 1341.41 Q912.958 1345.99 907.148 1345.99 Q901.337 1345.99 898.259 1341.41 Q895.203 1336.8 895.203 1328.07 Q895.203 1319.32 898.259 1314.74 Q901.337 1310.14 907.148 1310.14 Z" fill="#000000" fill-rule="evenodd" fill-opacity="1" /><path clip-path="url(#clip000)" d="M927.31 1339.44 L932.194 1339.44 L932.194 1345.32 L927.31 1345.32 L927.31 1339.44 Z" fill="#000000" fill-rule="evenodd" fill-opacity="1" /><path clip-path="url(#clip000)" d="M955.226 1314.83 L943.421 1333.28 L955.226 1333.28 L955.226 1314.83 M953.999 1310.76 L959.879 1310.76 L959.879 1333.28 L964.809 1333.28 L964.809 1337.17 L959.879 1337.17 L959.879 1345.32 L955.226 1345.32 L955.226 1337.17 L939.624 1337.17 L939.624 1332.66 L953.999 1310.76 Z" fill="#000000" fill-rule="evenodd" fill-opacity="1" /><path clip-path="url(#clip000)" d="M1045.26 1477.04 Q1041.65 1477.04 1039.82 1480.6 Q1038.01 1484.14 1038.01 1491.27 Q1038.01 1498.38 1039.82 1501.94 Q1041.65 1505.48 1045.26 1505.48 Q1048.89 1505.48 1050.7 1501.94 Q1052.53 1498.38 1052.53 1491.27 Q1052.53 1484.14 1050.7 1480.6 Q1048.89 1477.04 1045.26 1477.04 M1045.26 1473.33 Q1051.07 1473.33 1054.13 1477.94 Q1057.2 1482.52 1057.2 1491.27 Q1057.2 1500 1054.13 1504.6 Q1051.07 1509.19 1045.26 1509.19 Q1039.45 1509.19 1036.37 1504.6 Q1033.32 1500 1033.32 1491.27 Q1033.32 1482.52 1036.37 1477.94 Q1039.45 1473.33 1045.26 1473.33 Z" fill="#000000" fill-rule="evenodd" fill-opacity="1" /><path clip-path="url(#clip000)" d="M1065.42 1502.64 L1070.31 1502.64 L1070.31 1508.52 L1065.42 1508.52 L1065.42 1502.64 Z" fill="#000000" fill-rule="evenodd" fill-opacity="1" /><path clip-path="url(#clip000)" d="M1080.54 1473.96 L1098.89 1473.96 L1098.89 1477.89 L1084.82 1477.89 L1084.82 1486.36 Q1085.84 1486.02 1086.86 1485.85 Q1087.88 1485.67 1088.89 1485.67 Q1094.68 1485.67 1098.06 1488.84 Q1101.44 1492.01 1101.44 1497.43 Q1101.44 1503.01 1097.97 1506.11 Q1094.5 1509.19 1088.18 1509.19 Q1086 1509.19 1083.73 1508.82 Q1081.49 1508.45 1079.08 1507.71 L1079.08 1503.01 Q1081.16 1504.14 1083.38 1504.7 Q1085.61 1505.25 1088.08 1505.25 Q1092.09 1505.25 1094.43 1503.15 Q1096.76 1501.04 1096.76 1497.43 Q1096.76 1493.82 1094.43 1491.71 Q1092.09 1489.6 1088.08 1489.6 Q1086.21 1489.6 1084.33 1490.02 Q1082.48 1490.44 1080.54 1491.32 L1080.54 1473.96 Z" fill="#000000" fill-rule="evenodd" fill-opacity="1" /><path clip-path="url(#clip000)" d="M1188.31 1649.28 Q1184.69 1649.28 1182.87 1652.84 Q1181.06 1656.38 1181.06 1663.51 Q1181.06 1670.62 1182.87 1674.18 Q1184.69 1677.73 1188.31 1677.73 Q1191.94 1677.73 1193.75 1674.18 Q1195.57 1670.62 1195.57 1663.51 Q1195.57 1656.38 1193.75 1652.84 Q1191.94 1649.28 1188.31 1649.28 M1188.31 1645.57 Q1194.12 1645.57 1197.17 1650.18 Q1200.25 1654.76 1200.25 1663.51 Q1200.25 1672.24 1197.17 1676.85 Q1194.12 1681.43 1188.31 1681.43 Q1182.5 1681.43 1179.42 1676.85 Q1176.36 1672.24 1176.36 1663.51 Q1176.36 1654.76 1179.42 1650.18 Q1182.5 1645.57 1188.31 1645.57 Z" fill="#000000" fill-rule="evenodd" fill-opacity="1" /><path clip-path="url(#clip000)" d="M1208.47 1674.88 L1213.35 1674.88 L1213.35 1680.76 L1208.47 1680.76 L1208.47 1674.88 Z" fill="#000000" fill-rule="evenodd" fill-opacity="1" /><path clip-path="url(#clip000)" d="M1234.12 1661.62 Q1230.97 1661.62 1229.12 1663.77 Q1227.29 1665.92 1227.29 1669.67 Q1227.29 1673.4 1229.12 1675.57 Q1230.97 1677.73 1234.12 1677.73 Q1237.26 1677.73 1239.09 1675.57 Q1240.94 1673.4 1240.94 1669.67 Q1240.94 1665.92 1239.09 1663.77 Q1237.26 1661.62 1234.12 1661.62 M1243.4 1646.96 L1243.4 1651.22 Q1241.64 1650.39 1239.83 1649.95 Q1238.05 1649.51 1236.29 1649.51 Q1231.66 1649.51 1229.21 1652.63 Q1226.78 1655.76 1226.43 1662.08 Q1227.8 1660.06 1229.86 1659 Q1231.92 1657.91 1234.39 1657.91 Q1239.6 1657.91 1242.61 1661.08 Q1245.64 1664.23 1245.64 1669.67 Q1245.64 1674.99 1242.5 1678.21 Q1239.35 1681.43 1234.12 1681.43 Q1228.12 1681.43 1224.95 1676.85 Q1221.78 1672.24 1221.78 1663.51 Q1221.78 1655.32 1225.67 1650.46 Q1229.56 1645.57 1236.11 1645.57 Q1237.87 1645.57 1239.65 1645.92 Q1241.45 1646.27 1243.4 1646.96 Z" fill="#000000" fill-rule="evenodd" fill-opacity="1" /><polyline clip-path="url(#clip002)" style="stroke:#000000; stroke-linecap:butt; stroke-linejoin:round; stroke-width:2; stroke-opacity:0.1; fill:none" points="
  1376.91,1728.04 829.981,1078.99 
  "/>
<polyline clip-path="url(#clip002)" style="stroke:#000000; stroke-linecap:butt; stroke-linejoin:round; stroke-width:2; stroke-opacity:0.1; fill:none" points="
  829.981,1078.99 658.424,570.391 
  "/>
<polyline clip-path="url(#clip002)" style="stroke:#000000; stroke-linecap:butt; stroke-linejoin:round; stroke-width:2; stroke-opacity:0.1; fill:none" points="
  1573.53,1565.68 1019.71,947.228 
  "/>
<polyline clip-path="url(#clip002)" style="stroke:#000000; stroke-linecap:butt; stroke-linejoin:round; stroke-width:2; stroke-opacity:0.1; fill:none" points="
  1019.71,947.228 907.161,415.903 
  "/>
<polyline clip-path="url(#clip002)" style="stroke:#000000; stroke-linecap:butt; stroke-linejoin:round; stroke-width:2; stroke-opacity:0.1; fill:none" points="
  1760.53,1411.27 1201.04,821.302 
  "/>
<polyline clip-path="url(#clip002)" style="stroke:#000000; stroke-linecap:butt; stroke-linejoin:round; stroke-width:2; stroke-opacity:0.1; fill:none" points="
  1201.04,821.302 1141.84,270.143 
  "/>
<polyline clip-path="url(#clip002)" style="stroke:#000000; stroke-linecap:butt; stroke-linejoin:round; stroke-width:2; stroke-opacity:0.1; fill:none" points="
  1938.6,1264.24 1374.51,700.828 
  "/>
<polyline clip-path="url(#clip002)" style="stroke:#000000; stroke-linecap:butt; stroke-linejoin:round; stroke-width:2; stroke-opacity:0.1; fill:none" points="
  1374.51,700.828 1363.63,132.393 
  "/>
<polyline clip-path="url(#clip000)" style="stroke:#000000; stroke-linecap:butt; stroke-linejoin:round; stroke-width:4; stroke-opacity:1; fill:none" points="
  1356.11,1745.22 2029.89,1188.85 
  "/>
<polyline clip-path="url(#clip000)" style="stroke:#000000; stroke-linecap:butt; stroke-linejoin:round; stroke-width:4; stroke-opacity:1; fill:none" points="
  1376.91,1728.04 1369.63,1719.4 
  "/>
<polyline clip-path="url(#clip000)" style="stroke:#000000; stroke-linecap:butt; stroke-linejoin:round; stroke-width:4; stroke-opacity:1; fill:none" points="
  1573.53,1565.68 1566.18,1557.47 
  "/>
<polyline clip-path="url(#clip000)" style="stroke:#000000; stroke-linecap:butt; stroke-linejoin:round; stroke-width:4; stroke-opacity:1; fill:none" points="
  1760.53,1411.27 1753.12,1403.45 
  "/>
<polyline clip-path="url(#clip000)" style="stroke:#000000; stroke-linecap:butt; stroke-linejoin:round; stroke-width:4; stroke-opacity:1; fill:none" points="
  1938.6,1264.24 1931.14,1256.78 
  "/>
<path clip-path="url(#clip000)" d="M1410.46 1737.8 Q1406.85 1737.8 1405.02 1741.36 Q1403.21 1744.9 1403.21 1752.03 Q1403.21 1759.14 1405.02 1762.7 Q1406.85 1766.24 1410.46 1766.24 Q1414.09 1766.24 1415.9 1762.7 Q1417.73 1759.14 1417.73 1752.03 Q1417.73 1744.9 1415.9 1741.36 Q1414.09 1737.8 1410.46 1737.8 M1410.46 1734.09 Q1416.27 1734.09 1419.33 1738.7 Q1422.4 1743.28 1422.4 1752.03 Q1422.4 1760.76 1419.33 1765.36 Q1416.27 1769.95 1410.46 1769.95 Q1404.65 1769.95 1401.57 1765.36 Q1398.52 1760.76 1398.52 1752.03 Q1398.52 1743.28 1401.57 1738.7 Q1404.65 1734.09 1410.46 1734.09 Z" fill="#000000" fill-rule="evenodd" fill-opacity="1" /><path clip-path="url(#clip000)" d="M1430.62 1763.4 L1435.51 1763.4 L1435.51 1769.28 L1430.62 1769.28 L1430.62 1763.4 Z" fill="#000000" fill-rule="evenodd" fill-opacity="1" /><path clip-path="url(#clip000)" d="M1445.74 1734.72 L1464.09 1734.72 L1464.09 1738.65 L1450.02 1738.65 L1450.02 1747.12 Q1451.04 1746.78 1452.06 1746.61 Q1453.07 1746.43 1454.09 1746.43 Q1459.88 1746.43 1463.26 1749.6 Q1466.64 1752.77 1466.64 1758.19 Q1466.64 1763.77 1463.17 1766.87 Q1459.7 1769.95 1453.38 1769.95 Q1451.2 1769.95 1448.93 1769.58 Q1446.69 1769.21 1444.28 1768.47 L1444.28 1763.77 Q1446.36 1764.9 1448.58 1765.46 Q1450.81 1766.01 1453.28 1766.01 Q1457.29 1766.01 1459.63 1763.91 Q1461.96 1761.8 1461.96 1758.19 Q1461.96 1754.58 1459.63 1752.47 Q1457.29 1750.36 1453.28 1750.36 Q1451.41 1750.36 1449.53 1750.78 Q1447.68 1751.2 1445.74 1752.08 L1445.74 1734.72 Z" fill="#000000" fill-rule="evenodd" fill-opacity="1" /><path clip-path="url(#clip000)" d="M1607.08 1575.44 Q1603.47 1575.44 1601.64 1579 Q1599.84 1582.54 1599.84 1589.67 Q1599.84 1596.78 1601.64 1600.34 Q1603.47 1603.88 1607.08 1603.88 Q1610.72 1603.88 1612.52 1600.34 Q1614.35 1596.78 1614.35 1589.67 Q1614.35 1582.54 1612.52 1579 Q1610.72 1575.44 1607.08 1575.44 M1607.08 1571.73 Q1612.89 1571.73 1615.95 1576.34 Q1619.03 1580.92 1619.03 1589.67 Q1619.03 1598.4 1615.95 1603 Q1612.89 1607.59 1607.08 1607.59 Q1601.27 1607.59 1598.19 1603 Q1595.14 1598.4 1595.14 1589.67 Q1595.14 1580.92 1598.19 1576.34 Q1601.27 1571.73 1607.08 1571.73 Z" fill="#000000" fill-rule="evenodd" fill-opacity="1" /><path clip-path="url(#clip000)" d="M1627.24 1601.04 L1632.13 1601.04 L1632.13 1606.92 L1627.24 1606.92 L1627.24 1601.04 Z" fill="#000000" fill-rule="evenodd" fill-opacity="1" /><path clip-path="url(#clip000)" d="M1652.89 1587.77 Q1649.74 1587.77 1647.89 1589.93 Q1646.06 1592.08 1646.06 1595.83 Q1646.06 1599.56 1647.89 1601.73 Q1649.74 1603.88 1652.89 1603.88 Q1656.04 1603.88 1657.87 1601.73 Q1659.72 1599.56 1659.72 1595.83 Q1659.72 1592.08 1657.87 1589.93 Q1656.04 1587.77 1652.89 1587.77 M1662.17 1573.12 L1662.17 1577.38 Q1660.41 1576.55 1658.61 1576.11 Q1656.83 1575.67 1655.07 1575.67 Q1650.44 1575.67 1647.98 1578.79 Q1645.55 1581.92 1645.21 1588.24 Q1646.57 1586.22 1648.63 1585.16 Q1650.69 1584.07 1653.17 1584.07 Q1658.38 1584.07 1661.39 1587.24 Q1664.42 1590.39 1664.42 1595.83 Q1664.42 1601.15 1661.27 1604.37 Q1658.12 1607.59 1652.89 1607.59 Q1646.9 1607.59 1643.73 1603 Q1640.55 1598.4 1640.55 1589.67 Q1640.55 1581.48 1644.44 1576.62 Q1648.33 1571.73 1654.88 1571.73 Q1656.64 1571.73 1658.42 1572.08 Q1660.23 1572.43 1662.17 1573.12 Z" fill="#000000" fill-rule="evenodd" fill-opacity="1" /><path clip-path="url(#clip000)" d="M1794.08 1421.02 Q1790.47 1421.02 1788.64 1424.59 Q1786.83 1428.13 1786.83 1435.26 Q1786.83 1442.37 1788.64 1445.93 Q1790.47 1449.47 1794.08 1449.47 Q1797.71 1449.47 1799.52 1445.93 Q1801.35 1442.37 1801.35 1435.26 Q1801.35 1428.13 1799.52 1424.59 Q1797.71 1421.02 1794.08 1421.02 M1794.08 1417.32 Q1799.89 1417.32 1802.95 1421.93 Q1806.02 1426.51 1806.02 1435.26 Q1806.02 1443.99 1802.95 1448.59 Q1799.89 1453.18 1794.08 1453.18 Q1788.27 1453.18 1785.19 1448.59 Q1782.14 1443.99 1782.14 1435.26 Q1782.14 1426.51 1785.19 1421.93 Q1788.27 1417.32 1794.08 1417.32 Z" fill="#000000" fill-rule="evenodd" fill-opacity="1" /><path clip-path="url(#clip000)" d="M1814.24 1446.62 L1819.13 1446.62 L1819.13 1452.5 L1814.24 1452.5 L1814.24 1446.62 Z" fill="#000000" fill-rule="evenodd" fill-opacity="1" /><path clip-path="url(#clip000)" d="M1828.13 1417.94 L1850.35 1417.94 L1850.35 1419.93 L1837.81 1452.5 L1832.92 1452.5 L1844.73 1421.88 L1828.13 1421.88 L1828.13 1417.94 Z" fill="#000000" fill-rule="evenodd" fill-opacity="1" /><path clip-path="url(#clip000)" d="M1972.14 1273.99 Q1968.53 1273.99 1966.7 1277.55 Q1964.9 1281.09 1964.9 1288.22 Q1964.9 1295.33 1966.7 1298.89 Q1968.53 1302.44 1972.14 1302.44 Q1975.78 1302.44 1977.58 1298.89 Q1979.41 1295.33 1979.41 1288.22 Q1979.41 1281.09 1977.58 1277.55 Q1975.78 1273.99 1972.14 1273.99 M1972.14 1270.28 Q1977.95 1270.28 1981.01 1274.89 Q1984.09 1279.47 1984.09 1288.22 Q1984.09 1296.95 1981.01 1301.56 Q1977.95 1306.14 1972.14 1306.14 Q1966.33 1306.14 1963.25 1301.56 Q1960.2 1296.95 1960.2 1288.22 Q1960.2 1279.47 1963.25 1274.89 Q1966.33 1270.28 1972.14 1270.28 Z" fill="#000000" fill-rule="evenodd" fill-opacity="1" /><path clip-path="url(#clip000)" d="M1992.31 1299.59 L1997.19 1299.59 L1997.19 1305.47 L1992.31 1305.47 L1992.31 1299.59 Z" fill="#000000" fill-rule="evenodd" fill-opacity="1" /><path clip-path="url(#clip000)" d="M2017.37 1289.06 Q2014.04 1289.06 2012.12 1290.84 Q2010.22 1292.62 2010.22 1295.75 Q2010.22 1298.87 2012.12 1300.65 Q2014.04 1302.44 2017.37 1302.44 Q2020.71 1302.44 2022.63 1300.65 Q2024.55 1298.85 2024.55 1295.75 Q2024.55 1292.62 2022.63 1290.84 Q2020.73 1289.06 2017.37 1289.06 M2012.7 1287.07 Q2009.69 1286.33 2008 1284.27 Q2006.33 1282.21 2006.33 1279.24 Q2006.33 1275.1 2009.27 1272.69 Q2012.24 1270.28 2017.37 1270.28 Q2022.54 1270.28 2025.48 1272.69 Q2028.42 1275.1 2028.42 1279.24 Q2028.42 1282.21 2026.73 1284.27 Q2025.06 1286.33 2022.07 1287.07 Q2025.45 1287.85 2027.33 1290.14 Q2029.23 1292.44 2029.23 1295.75 Q2029.23 1300.77 2026.15 1303.45 Q2023.09 1306.14 2017.37 1306.14 Q2011.66 1306.14 2008.58 1303.45 Q2005.52 1300.77 2005.52 1295.75 Q2005.52 1292.44 2007.42 1290.14 Q2009.32 1287.85 2012.7 1287.07 M2010.99 1279.68 Q2010.99 1282.37 2012.65 1283.87 Q2014.34 1285.38 2017.37 1285.38 Q2020.38 1285.38 2022.07 1283.87 Q2023.79 1282.37 2023.79 1279.68 Q2023.79 1277 2022.07 1275.49 Q2020.38 1273.99 2017.37 1273.99 Q2014.34 1273.99 2012.65 1275.49 Q2010.99 1277 2010.99 1279.68 Z" fill="#000000" fill-rule="evenodd" fill-opacity="1" /><polyline clip-path="url(#clip002)" style="stroke:#000000; stroke-linecap:butt; stroke-linejoin:round; stroke-width:2; stroke-opacity:0.1; fill:none" points="
  778.327,1002.92 1466.11,534.409 
  "/>
<polyline clip-path="url(#clip002)" style="stroke:#000000; stroke-linecap:butt; stroke-linejoin:round; stroke-width:2; stroke-opacity:0.1; fill:none" points="
  1466.11,534.409 2062.61,1102.43 
  "/>
<polyline clip-path="url(#clip002)" style="stroke:#000000; stroke-linecap:butt; stroke-linejoin:round; stroke-width:2; stroke-opacity:0.1; fill:none" points="
  741.134,897.166 1468.84,412.713 
  "/>
<polyline clip-path="url(#clip002)" style="stroke:#000000; stroke-linecap:butt; stroke-linejoin:round; stroke-width:2; stroke-opacity:0.1; fill:none" points="
  1468.84,412.713 2101.14,1000.65 
  "/>
<polyline clip-path="url(#clip002)" style="stroke:#000000; stroke-linecap:butt; stroke-linejoin:round; stroke-width:2; stroke-opacity:0.1; fill:none" points="
  699.326,778.285 1471.88,277.286 
  "/>
<polyline clip-path="url(#clip002)" style="stroke:#000000; stroke-linecap:butt; stroke-linejoin:round; stroke-width:2; stroke-opacity:0.1; fill:none" points="
  1471.88,277.286 2144.54,886 
  "/>
<polyline clip-path="url(#clip002)" style="stroke:#000000; stroke-linecap:butt; stroke-linejoin:round; stroke-width:2; stroke-opacity:0.1; fill:none" points="
  651.986,643.674 1475.29,125.665 
  "/>
<polyline clip-path="url(#clip002)" style="stroke:#000000; stroke-linecap:butt; stroke-linejoin:round; stroke-width:2; stroke-opacity:0.1; fill:none" points="
  1475.29,125.665 2193.81,755.86 
  "/>
<polyline clip-path="url(#clip000)" style="stroke:#000000; stroke-linecap:butt; stroke-linejoin:round; stroke-width:4; stroke-opacity:1; fill:none" points="
  809.964,1092.89 631.989,586.811 
  "/>
<polyline clip-path="url(#clip000)" style="stroke:#000000; stroke-linecap:butt; stroke-linejoin:round; stroke-width:4; stroke-opacity:1; fill:none" points="
  778.327,1002.92 787.303,996.81 
  "/>
<polyline clip-path="url(#clip000)" style="stroke:#000000; stroke-linecap:butt; stroke-linejoin:round; stroke-width:4; stroke-opacity:1; fill:none" points="
  741.134,897.166 750.676,890.814 
  "/>
<polyline clip-path="url(#clip000)" style="stroke:#000000; stroke-linecap:butt; stroke-linejoin:round; stroke-width:4; stroke-opacity:1; fill:none" points="
  699.326,778.285 709.509,771.681 
  "/>
<polyline clip-path="url(#clip000)" style="stroke:#000000; stroke-linecap:butt; stroke-linejoin:round; stroke-width:4; stroke-opacity:1; fill:none" points="
  651.986,643.674 662.903,636.806 
  "/>
<path clip-path="url(#clip000)" d="M659.729 988.723 Q656.117 988.723 654.289 992.288 Q652.483 995.83 652.483 1002.96 Q652.483 1010.07 654.289 1013.63 Q656.117 1017.17 659.729 1017.17 Q663.363 1017.17 665.168 1013.63 Q666.997 1010.07 666.997 1002.96 Q666.997 995.83 665.168 992.288 Q663.363 988.723 659.729 988.723 M659.729 985.02 Q665.539 985.02 668.594 989.626 Q671.673 994.209 671.673 1002.96 Q671.673 1011.69 668.594 1016.29 Q665.539 1020.88 659.729 1020.88 Q653.918 1020.88 650.84 1016.29 Q647.784 1011.69 647.784 1002.96 Q647.784 994.209 650.84 989.626 Q653.918 985.02 659.729 985.02 Z" fill="#000000" fill-rule="evenodd" fill-opacity="1" /><path clip-path="url(#clip000)" d="M679.891 1014.32 L684.775 1014.32 L684.775 1020.2 L679.891 1020.2 L679.891 1014.32 Z" fill="#000000" fill-rule="evenodd" fill-opacity="1" /><path clip-path="url(#clip000)" d="M705.539 1001.06 Q702.39 1001.06 700.539 1003.21 Q698.71 1005.37 698.71 1009.12 Q698.71 1012.84 700.539 1015.02 Q702.39 1017.17 705.539 1017.17 Q708.687 1017.17 710.515 1015.02 Q712.367 1012.84 712.367 1009.12 Q712.367 1005.37 710.515 1003.21 Q708.687 1001.06 705.539 1001.06 M714.821 986.408 L714.821 990.668 Q713.062 989.834 711.256 989.395 Q709.474 988.955 707.714 988.955 Q703.085 988.955 700.631 992.08 Q698.201 995.205 697.853 1001.52 Q699.219 999.51 701.279 998.445 Q703.339 997.357 705.816 997.357 Q711.025 997.357 714.034 1000.53 Q717.066 1003.68 717.066 1009.12 Q717.066 1014.44 713.918 1017.66 Q710.77 1020.88 705.539 1020.88 Q699.543 1020.88 696.372 1016.29 Q693.201 1011.69 693.201 1002.96 Q693.201 994.765 697.09 989.904 Q700.978 985.02 707.529 985.02 Q709.289 985.02 711.071 985.367 Q712.876 985.714 714.821 986.408 Z" fill="#000000" fill-rule="evenodd" fill-opacity="1" /><path clip-path="url(#clip000)" d="M725.168 985.645 L743.524 985.645 L743.524 989.58 L729.45 989.58 L729.45 998.052 Q730.469 997.705 731.487 997.543 Q732.506 997.357 733.524 997.357 Q739.311 997.357 742.691 1000.53 Q746.071 1003.7 746.071 1009.12 Q746.071 1014.7 742.599 1017.8 Q739.126 1020.88 732.807 1020.88 Q730.631 1020.88 728.362 1020.51 Q726.117 1020.14 723.71 1019.39 L723.71 1014.7 Q725.793 1015.83 728.015 1016.39 Q730.237 1016.94 732.714 1016.94 Q736.719 1016.94 739.057 1014.83 Q741.395 1012.73 741.395 1009.12 Q741.395 1005.51 739.057 1003.4 Q736.719 1001.29 732.714 1001.29 Q730.839 1001.29 728.964 1001.71 Q727.112 1002.13 725.168 1003.01 L725.168 985.645 Z" fill="#000000" fill-rule="evenodd" fill-opacity="1" /><path clip-path="url(#clip000)" d="M621.54 882.965 Q617.929 882.965 616.101 886.53 Q614.295 890.072 614.295 897.201 Q614.295 904.308 616.101 907.872 Q617.929 911.414 621.54 911.414 Q625.175 911.414 626.98 907.872 Q628.809 904.308 628.809 897.201 Q628.809 890.072 626.98 886.53 Q625.175 882.965 621.54 882.965 M621.54 879.261 Q627.351 879.261 630.406 883.868 Q633.485 888.451 633.485 897.201 Q633.485 905.928 630.406 910.534 Q627.351 915.118 621.54 915.118 Q615.73 915.118 612.652 910.534 Q609.596 905.928 609.596 897.201 Q609.596 888.451 612.652 883.868 Q615.73 879.261 621.54 879.261 Z" fill="#000000" fill-rule="evenodd" fill-opacity="1" /><path clip-path="url(#clip000)" d="M641.702 908.567 L646.587 908.567 L646.587 914.446 L641.702 914.446 L641.702 908.567 Z" fill="#000000" fill-rule="evenodd" fill-opacity="1" /><path clip-path="url(#clip000)" d="M655.591 879.886 L677.813 879.886 L677.813 881.877 L665.267 914.446 L660.383 914.446 L672.188 883.822 L655.591 883.822 L655.591 879.886 Z" fill="#000000" fill-rule="evenodd" fill-opacity="1" /><path clip-path="url(#clip000)" d="M696.934 882.965 Q693.322 882.965 691.494 886.53 Q689.688 890.072 689.688 897.201 Q689.688 904.308 691.494 907.872 Q693.322 911.414 696.934 911.414 Q700.568 911.414 702.373 907.872 Q704.202 904.308 704.202 897.201 Q704.202 890.072 702.373 886.53 Q700.568 882.965 696.934 882.965 M696.934 879.261 Q702.744 879.261 705.799 883.868 Q708.878 888.451 708.878 897.201 Q708.878 905.928 705.799 910.534 Q702.744 915.118 696.934 915.118 Q691.123 915.118 688.045 910.534 Q684.989 905.928 684.989 897.201 Q684.989 888.451 688.045 883.868 Q691.123 879.261 696.934 879.261 Z" fill="#000000" fill-rule="evenodd" fill-opacity="1" /><path clip-path="url(#clip000)" d="M580.728 764.083 Q577.117 764.083 575.288 767.648 Q573.482 771.19 573.482 778.319 Q573.482 785.426 575.288 788.991 Q577.117 792.532 580.728 792.532 Q584.362 792.532 586.167 788.991 Q587.996 785.426 587.996 778.319 Q587.996 771.19 586.167 767.648 Q584.362 764.083 580.728 764.083 M580.728 760.38 Q586.538 760.38 589.593 764.986 Q592.672 769.569 592.672 778.319 Q592.672 787.046 589.593 791.653 Q586.538 796.236 580.728 796.236 Q574.917 796.236 571.839 791.653 Q568.783 787.046 568.783 778.319 Q568.783 769.569 571.839 764.986 Q574.917 760.38 580.728 760.38 Z" fill="#000000" fill-rule="evenodd" fill-opacity="1" /><path clip-path="url(#clip000)" d="M600.89 789.685 L605.774 789.685 L605.774 795.565 L600.89 795.565 L600.89 789.685 Z" fill="#000000" fill-rule="evenodd" fill-opacity="1" /><path clip-path="url(#clip000)" d="M614.778 761.005 L637 761.005 L637 762.995 L624.454 795.565 L619.57 795.565 L631.376 764.94 L614.778 764.94 L614.778 761.005 Z" fill="#000000" fill-rule="evenodd" fill-opacity="1" /><path clip-path="url(#clip000)" d="M646.167 761.005 L664.523 761.005 L664.523 764.94 L650.449 764.94 L650.449 773.412 Q651.468 773.065 652.486 772.903 Q653.505 772.717 654.524 772.717 Q660.311 772.717 663.69 775.889 Q667.07 779.06 667.07 784.477 Q667.07 790.055 663.598 793.157 Q660.125 796.236 653.806 796.236 Q651.63 796.236 649.362 795.865 Q647.116 795.495 644.709 794.754 L644.709 790.055 Q646.792 791.19 649.014 791.745 Q651.237 792.301 653.713 792.301 Q657.718 792.301 660.056 790.194 Q662.394 788.088 662.394 784.477 Q662.394 780.866 660.056 778.759 Q657.718 776.653 653.713 776.653 Q651.838 776.653 649.963 777.069 Q648.112 777.486 646.167 778.366 L646.167 761.005 Z" fill="#000000" fill-rule="evenodd" fill-opacity="1" /><path clip-path="url(#clip000)" d="M532.393 629.473 Q528.782 629.473 526.953 633.038 Q525.147 636.579 525.147 643.709 Q525.147 650.816 526.953 654.38 Q528.782 657.922 532.393 657.922 Q536.027 657.922 537.833 654.38 Q539.661 650.816 539.661 643.709 Q539.661 636.579 537.833 633.038 Q536.027 629.473 532.393 629.473 M532.393 625.769 Q538.203 625.769 541.259 630.376 Q544.337 634.959 544.337 643.709 Q544.337 652.436 541.259 657.042 Q538.203 661.626 532.393 661.626 Q526.583 661.626 523.504 657.042 Q520.448 652.436 520.448 643.709 Q520.448 634.959 523.504 630.376 Q526.583 625.769 532.393 625.769 Z" fill="#000000" fill-rule="evenodd" fill-opacity="1" /><path clip-path="url(#clip000)" d="M552.555 655.075 L557.439 655.075 L557.439 660.954 L552.555 660.954 L552.555 655.075 Z" fill="#000000" fill-rule="evenodd" fill-opacity="1" /><path clip-path="url(#clip000)" d="M577.624 644.542 Q574.291 644.542 572.369 646.325 Q570.471 648.107 570.471 651.232 Q570.471 654.357 572.369 656.14 Q574.291 657.922 577.624 657.922 Q580.957 657.922 582.879 656.14 Q584.8 654.334 584.8 651.232 Q584.8 648.107 582.879 646.325 Q580.981 644.542 577.624 644.542 M572.948 642.552 Q569.939 641.811 568.249 639.751 Q566.582 637.691 566.582 634.728 Q566.582 630.584 569.522 628.177 Q572.485 625.769 577.624 625.769 Q582.786 625.769 585.726 628.177 Q588.666 630.584 588.666 634.728 Q588.666 637.691 586.976 639.751 Q585.309 641.811 582.323 642.552 Q585.703 643.339 587.578 645.63 Q589.476 647.922 589.476 651.232 Q589.476 656.255 586.397 658.94 Q583.342 661.626 577.624 661.626 Q571.906 661.626 568.828 658.94 Q565.772 656.255 565.772 651.232 Q565.772 647.922 567.67 645.63 Q569.569 643.339 572.948 642.552 M571.235 635.167 Q571.235 637.853 572.902 639.357 Q574.592 640.862 577.624 640.862 Q580.633 640.862 582.323 639.357 Q584.036 637.853 584.036 635.167 Q584.036 632.482 582.323 630.978 Q580.633 629.473 577.624 629.473 Q574.592 629.473 572.902 630.978 Q571.235 632.482 571.235 635.167 Z" fill="#000000" fill-rule="evenodd" fill-opacity="1" /><path clip-path="url(#clip000)" d="M607.786 629.473 Q604.175 629.473 602.346 633.038 Q600.541 636.579 600.541 643.709 Q600.541 650.816 602.346 654.38 Q604.175 657.922 607.786 657.922 Q611.42 657.922 613.226 654.38 Q615.054 650.816 615.054 643.709 Q615.054 636.579 613.226 633.038 Q611.42 629.473 607.786 629.473 M607.786 625.769 Q613.596 625.769 616.652 630.376 Q619.73 634.959 619.73 643.709 Q619.73 652.436 616.652 657.042 Q613.596 661.626 607.786 661.626 Q601.976 661.626 598.897 657.042 Q595.842 652.436 595.842 643.709 Q595.842 634.959 598.897 630.376 Q601.976 625.769 607.786 625.769 Z" fill="#000000" fill-rule="evenodd" fill-opacity="1" /><polyline clip-path="url(#clip002)" style="stroke:#000000; stroke-linecap:butt; stroke-linejoin:round; stroke-width:8; stroke-opacity:1; fill:none" points="
  1112.32,1277.01 1112.32,1277.01 1113.93,1275.74 1128.98,1263.95 1138.14,1256.77 
  1145.96,1250.64 1154.53,1243.92 1162.5,1237.67 
  1171.12,1230.91 1181.21,1223.01 1190.27,1215.91 
  1198.28,1209.63 1207.09,1202.72 1216.04,1195.7 1226.03,1187.87 
  1235.64,1180.34 1245.72,1172.44 1254.3,1165.72 
  1264.86,1157.44 1274.65,1149.77 1283.77,1142.62 
  1293.09,1135.31 1303.64,1127.04 1313.3,1119.47 1324.48,1110.71 
  1334.93,1102.51 1345.35,1094.35 1355.56,1086.34 
  1366.14,1078.05 1377.85,1068.87 1395.1,1055.35 
  1398.68,1052.55 
  "/>
<polyline clip-path="url(#clip002)" style="stroke:#000000; stroke-linecap:butt; stroke-linejoin:round; stroke-width:8; stroke-opacity:1; fill:none" points="
  1098.05,667.711 1098.05,667.711 1099.48,665.556 1112.75,645.484 1120.81,633.296 
  1127.68,622.917 1135.19,611.564 1142.16,601.025 
  1149.68,589.648 1158.47,576.363 1166.34,564.463 
  1173.29,553.955 1180.92,542.42 1188.65,530.732 1197.26,517.71 
  1205.52,505.223 1214.17,492.136 1221.51,481.039 
  1230.54,467.388 1238.88,454.782 1246.64,443.054 
  1254.55,431.09 1263.49,417.577 1271.65,405.238 1281.07,390.999 
  1289.86,377.706 1298.59,364.498 1307.14,351.576 
  1315.97,338.226 1325.72,323.48 1340.04,301.831 
  1343,297.356 
  "/>
<polyline clip-path="url(#clip002)" style="stroke:#000000; stroke-linecap:butt; stroke-linejoin:round; stroke-width:8; stroke-opacity:1; fill:none" points="
  1354.38,1455.06 1354.38,1455.06 1356.22,1454.23 1373.33,1446.5 1383.72,1441.8 
  1392.57,1437.8 1402.24,1433.43 1411.22,1429.37 
  1420.92,1424.99 1432.23,1419.87 1442.37,1415.29 
  1451.31,1411.25 1461.13,1406.81 1471.08,1402.31 1482.17,1397.3 
  1492.79,1392.5 1503.93,1387.46 1513.37,1383.2 
  1524.98,1377.95 1535.7,1373.1 1545.67,1368.59 
  1555.84,1364 1567.32,1358.81 1577.81,1354.07 1589.91,1348.6 
  1601.2,1343.49 1612.42,1338.42 1623.39,1333.46 
  1634.72,1328.34 1647.24,1322.68 1665.61,1314.37 
  1669.41,1312.66 
  "/>
<polyline clip-path="url(#clip002)" style="stroke:#000000; stroke-linecap:butt; stroke-linejoin:round; stroke-width:8; stroke-opacity:1; fill:none" points="
  1315.63,828 1315.63,828 1317.23,826.319 1332.05,810.693 1341.02,801.231 
  1348.64,793.188 1356.97,784.407 1364.69,776.271 
  1373,767.503 1382.69,757.287 1391.35,748.155 
  1398.98,740.106 1407.34,731.287 1415.8,722.368 1425.2,712.452 
  1434.2,702.964 1443.61,693.041 1451.57,684.644 
  1461.34,674.335 1470.35,664.837 1478.71,656.018 
  1487.23,647.038 1496.82,636.919 1505.57,627.698 1515.64,617.08 
  1525.01,607.191 1534.31,597.386 1543.39,587.814 
  1552.74,577.946 1563.05,567.072 1578.15,551.155 
  1581.26,547.872 
  "/>
<polyline clip-path="url(#clip002)" style="stroke:#000000; stroke-linecap:butt; stroke-linejoin:round; stroke-width:8; stroke-opacity:1; fill:none" points="
  1112.32,1277.01 1112.32,1277.01 1113.18,1272.52 1120.51,1231.33 1124.36,1206.83 
  1127.28,1186.28 1130.13,1164.12 1132.45,1143.83 
  1134.62,1122.25 1136.72,1097.46 1138.21,1075.62 
  1139.24,1056.63 1140.07,1036.08 1140.6,1015.58 1140.82,993.113 
  1140.69,971.939 1140.2,950.131 1139.51,931.937 
  1138.34,909.93 1136.94,889.969 1135.38,871.704 
  1133.54,853.368 1131.16,833.019 1128.73,814.763 1125.63,794.077 
  1122.45,775.129 1119.04,756.642 1115.46,738.878 
  1111.52,720.857 1106.9,701.334 1099.62,673.385 
  1098.05,667.711 
  "/>
<polyline clip-path="url(#clip002)" style="stroke:#000000; stroke-linecap:butt; stroke-linejoin:round; stroke-width:8; stroke-opacity:1; fill:none" points="
  1398.68,1052.55 1398.68,1052.55 1399.54,1046.8 1406.67,994.184 1410.21,963.008 
  1412.78,936.911 1415.14,908.834 1416.91,883.202 
  1418.39,855.99 1419.57,824.809 1420.15,797.414 
  1420.3,773.633 1420.08,747.965 1419.46,722.416 1418.33,694.486 
  1416.82,668.22 1414.8,641.23 1412.76,618.762 
  1409.85,591.644 1406.78,567.102 1403.61,544.691 
  1400.07,522.238 1395.73,497.372 1391.45,475.109 1386.16,449.935 
  1380.89,426.925 1375.35,404.521 1369.66,383.033 
  1363.5,361.276 1356.38,337.753 1345.36,304.162 
  1343,297.356 
  "/>
<polyline clip-path="url(#clip002)" style="stroke:#000000; stroke-linecap:butt; stroke-linejoin:round; stroke-width:8; stroke-opacity:1; fill:none" points="
  1354.38,1455.06 1354.38,1455.06 1355.06,1450.44 1360.74,1408.05 1363.6,1382.85 
  1365.7,1361.69 1367.65,1338.88 1369.16,1318.01 
  1370.46,1295.8 1371.56,1270.29 1372.17,1247.81 
  1372.44,1228.26 1372.44,1207.11 1372.15,1186.01 1371.47,1162.9 
  1370.48,1141.11 1369.12,1118.66 1367.7,1099.94 
  1365.64,1077.29 1363.44,1056.74 1361.15,1037.95 
  1358.57,1019.08 1355.38,998.133 1352.22,979.345 1348.28,958.055 
  1344.34,938.554 1340.19,919.527 1335.9,901.245 
  1331.24,882.698 1325.83,862.604 1317.44,833.839 
  1315.63,828 
  "/>
<polyline clip-path="url(#clip002)" style="stroke:#000000; stroke-linecap:butt; stroke-linejoin:round; stroke-width:8; stroke-opacity:1; fill:none" points="
  1669.41,1312.66 1669.41,1312.66 1669.99,1306.87 1674.5,1253.8 1676.51,1222.35 
  1677.81,1196.01 1678.82,1167.66 1679.38,1141.77 
  1679.58,1114.28 1679.32,1082.77 1678.65,1055.07 
  1677.72,1031.02 1676.35,1005.05 1674.6,979.197 1672.24,950.924 
  1669.6,924.327 1666.43,896.987 1663.44,874.222 
  1659.39,846.736 1655.31,821.853 1651.23,799.125 
  1646.79,776.347 1641.46,751.114 1636.3,728.517 1630.04,702.958 
  1623.89,679.588 1617.51,656.827 1611.01,634.992 
  1604.05,612.877 1596.07,588.96 1583.86,554.796 
  1581.26,547.872 
  "/>
<polyline clip-path="url(#clip002)" style="stroke:#000000; stroke-linecap:butt; stroke-linejoin:round; stroke-width:8; stroke-opacity:1; fill:none" points="
  1112.32,1277.01 1112.32,1277.01 1114.18,1278.24 1131.23,1289.59 1141.31,1296.37 
  1149.74,1302.09 1158.8,1308.27 1167.06,1313.95 
  1175.83,1320.01 1185.86,1327.01 1194.66,1333.2 
  1202.3,1338.61 1210.53,1344.48 1218.73,1350.36 1227.67,1356.84 
  1236.08,1362.97 1244.72,1369.32 1251.9,1374.64 
  1260.57,1381.11 1268.4,1387.01 1275.56,1392.44 
  1282.72,1397.91 1290.66,1404.02 1297.75,1409.53 1305.78,1415.8 
  1313.11,1421.59 1320.25,1427.26 1327.1,1432.75 
  1334.03,1438.35 1341.52,1444.45 1352.21,1453.26 
  1354.38,1455.06 
  "/>
<polyline clip-path="url(#clip002)" style="stroke:#000000; stroke-linecap:butt; stroke-linejoin:round; stroke-width:8; stroke-opacity:1; fill:none" points="
  1398.68,1052.55 1398.68,1052.55 1400.87,1054.41 1420.87,1071.53 1432.64,1081.72 
  1442.44,1090.28 1452.94,1099.53 1462.48,1108 
  1472.56,1117.03 1484.06,1127.42 1494.11,1136.59 
  1502.8,1144.57 1512.14,1153.23 1521.4,1161.89 1531.47,1171.39 
  1540.9,1180.37 1550.54,1189.65 1558.54,1197.4 
  1568.14,1206.81 1576.8,1215.36 1584.67,1223.22 
  1592.52,1231.12 1601.18,1239.92 1608.9,1247.84 1617.59,1256.84 
  1625.5,1265.12 1633.17,1273.22 1640.5,1281.04 
  1647.89,1289 1655.84,1297.66 1667.13,1310.12 
  1669.41,1312.66 
  "/>
<polyline clip-path="url(#clip002)" style="stroke:#000000; stroke-linecap:butt; stroke-linejoin:round; stroke-width:8; stroke-opacity:1; fill:none" points="
  1098.05,667.711 1098.05,667.711 1099.72,668.763 1115.04,678.485 1124.09,684.327 
  1131.66,689.266 1139.8,694.629 1147.22,699.573 
  1155.08,704.871 1164.09,711.007 1172,716.458 
  1178.86,721.236 1186.25,726.442 1193.61,731.676 1201.65,737.46 
  1209.2,742.959 1216.96,748.672 1223.42,753.478 
  1231.21,759.34 1238.25,764.706 1244.68,769.657 
  1251.13,774.668 1258.26,780.279 1264.65,785.358 1271.87,791.166 
  1278.46,796.538 1284.89,801.828 1291.05,806.958 
  1297.29,812.21 1304.04,817.958 1313.68,826.292 
  1315.63,828 
  "/>
<polyline clip-path="url(#clip002)" style="stroke:#000000; stroke-linecap:butt; stroke-linejoin:round; stroke-width:8; stroke-opacity:1; fill:none" points="
  1343,297.356 1343,297.356 1344.92,299.072 1362.38,314.883 1372.66,324.341 
  1381.23,332.312 1390.42,340.944 1398.76,348.877 
  1407.59,357.355 1417.67,367.143 1426.48,375.809 
  1434.1,383.385 1442.3,391.617 1450.42,399.871 1459.27,408.965 
  1467.56,417.585 1476.05,426.514 1483.09,434.005 
  1491.55,443.118 1499.18,451.434 1506.12,459.088 
  1513.06,466.814 1520.71,475.442 1527.54,483.231 1535.23,492.116 
  1542.24,500.309 1549.04,508.357 1555.54,516.142 
  1562.11,524.093 1569.18,532.769 1579.23,545.309 
  1581.26,547.872 
  "/>
<polyline clip-path="url(#clip002)" style="stroke:#0000ff; stroke-linecap:butt; stroke-linejoin:round; stroke-width:16; stroke-opacity:1; fill:none" points="
  1112.32,1277.01 1229.38,1185.25 
  "/>
<polyline clip-path="url(#clip002)" style="stroke:#0000ff; stroke-linecap:butt; stroke-linejoin:round; stroke-width:16; stroke-opacity:1; fill:none" points="
  1112.32,1277.01 1191.64,867.795 
  "/>
<polyline clip-path="url(#clip002)" style="stroke:#0000ff; stroke-linecap:butt; stroke-linejoin:round; stroke-width:16; stroke-opacity:1; fill:none" points="
  1112.32,1277.01 1313.6,1409.96 
  "/>
</svg>
