<?xml version="1.0" encoding="utf-8"?>
<svg xmlns="http://www.w3.org/2000/svg" xmlns:xlink="http://www.w3.org/1999/xlink" width="672" height="480" viewBox="0 0 2688 1920">
<defs>
  <clipPath id="clip260">
    <rect x="0" y="0" width="2688" height="1920"/>
  </clipPath>
</defs>
<path clip-path="url(#clip260)" d="
M0 1920 L2688 1920 L2688 0 L0 0  Z
  " fill="#ffffff" fill-rule="evenodd" fill-opacity="1"/>
<defs>
  <clipPath id="clip261">
    <rect x="537" y="0" width="1883" height="1883"/>
  </clipPath>
</defs>
<path clip-path="url(#clip260)" d="
M47.2441 1872.76 L2640.76 1872.76 L2640.76 47.2441 L47.2441 47.2441  Z
  " fill="#ffffff" fill-rule="evenodd" fill-opacity="1"/>
<defs>
  <clipPath id="clip262">
    <rect x="47" y="47" width="2595" height="1827"/>
  </clipPath>
</defs>
<polyline clip-path="url(#clip262)" style="stroke:#000000; stroke-linecap:butt; stroke-linejoin:round; stroke-width:8; stroke-opacity:1; fill:none" points="
  120.645,1346.84 120.645,1690.2 322.667,1690.2 322.667,1423.09 
  "/>
<polyline clip-path="url(#clip262)" style="stroke:#0000ff; stroke-linecap:butt; stroke-linejoin:round; stroke-width:12; stroke-opacity:1; fill:none" points="
  120.645,1346.84 122.686,1348.72 124.727,1350.53 126.767,1352.27 128.808,1353.95 130.848,1355.57 132.889,1357.14 134.93,1358.67 136.97,1360.15 139.011,1361.6 
  141.052,1363 143.092,1364.37 145.133,1365.7 147.173,1367 149.214,1368.26 151.255,1369.5 153.295,1370.71 155.336,1371.89 157.377,1373.05 159.417,1374.18 
  161.458,1375.29 163.498,1376.37 165.539,1377.44 167.58,1378.48 169.62,1379.5 171.661,1380.5 173.702,1381.48 175.742,1382.44 177.783,1383.39 179.823,1384.32 
  181.864,1385.23 183.905,1386.12 185.945,1387 187.986,1387.86 190.027,1388.71 192.067,1389.54 194.108,1390.36 196.148,1391.17 198.189,1391.96 200.23,1392.74 
  202.27,1393.51 204.311,1394.26 206.352,1395 208.392,1395.73 210.433,1396.45 212.473,1397.15 214.514,1397.85 216.555,1398.53 218.595,1399.2 220.636,1399.87 
  222.677,1400.52 224.717,1401.16 226.758,1401.79 228.798,1402.42 230.839,1403.03 232.88,1403.63 234.92,1404.23 236.961,1404.82 239.002,1405.39 241.042,1405.96 
  243.083,1406.52 245.123,1407.08 247.164,1407.62 249.205,1408.16 251.245,1408.69 253.286,1409.21 255.327,1409.72 257.367,1410.23 259.408,1410.72 261.448,1411.22 
  263.489,1411.7 265.53,1412.18 267.57,1412.65 269.611,1413.11 271.652,1413.57 273.692,1414.02 275.733,1414.46 277.773,1414.9 279.814,1415.33 281.855,1415.76 
  283.895,1416.18 285.936,1416.59 287.977,1417 290.017,1417.4 292.058,1417.8 294.098,1418.19 296.139,1418.57 298.18,1418.95 300.22,1419.32 302.261,1419.69 
  304.302,1420.05 306.342,1420.41 308.383,1420.76 310.423,1421.11 312.464,1421.45 314.505,1421.79 316.545,1422.12 318.586,1422.45 320.627,1422.78 322.667,1423.09 
  
  "/>
<polyline clip-path="url(#clip262)" style="stroke:#000000; stroke-linecap:butt; stroke-linejoin:round; stroke-width:8; stroke-opacity:1; fill:none" points="
  345.114,1426.3 345.114,1690.2 547.136,1690.2 547.136,1437.46 
  "/>
<polyline clip-path="url(#clip262)" style="stroke:#0000ff; stroke-linecap:butt; stroke-linejoin:round; stroke-width:12; stroke-opacity:1; fill:none" points="
  345.114,1426.3 347.155,1426.56 349.195,1426.82 351.236,1427.08 353.277,1427.34 355.317,1427.59 357.358,1427.83 359.398,1428.07 361.439,1428.31 363.48,1428.54 
  365.52,1428.78 367.561,1429 369.602,1429.22 371.642,1429.44 373.683,1429.66 375.723,1429.87 377.764,1430.08 379.805,1430.29 381.845,1430.49 383.886,1430.69 
  385.927,1430.88 387.967,1431.07 390.008,1431.26 392.048,1431.44 394.089,1431.63 396.13,1431.8 398.17,1431.98 400.211,1432.15 402.252,1432.32 404.292,1432.49 
  406.333,1432.65 408.373,1432.81 410.414,1432.96 412.455,1433.12 414.495,1433.27 416.536,1433.41 418.577,1433.56 420.617,1433.7 422.658,1433.84 424.698,1433.97 
  426.739,1434.1 428.78,1434.23 430.82,1434.36 432.861,1434.48 434.902,1434.61 436.942,1434.72 438.983,1434.84 441.023,1434.95 443.064,1435.06 445.105,1435.17 
  447.145,1435.27 449.186,1435.38 451.227,1435.48 453.267,1435.57 455.308,1435.67 457.348,1435.76 459.389,1435.85 461.43,1435.93 463.47,1436.02 465.511,1436.1 
  467.552,1436.18 469.592,1436.26 471.633,1436.33 473.673,1436.4 475.714,1436.47 477.755,1436.54 479.795,1436.6 481.836,1436.66 483.877,1436.72 485.917,1436.78 
  487.958,1436.83 489.998,1436.89 492.039,1436.94 494.08,1436.99 496.12,1437.03 498.161,1437.07 500.202,1437.12 502.242,1437.15 504.283,1437.19 506.323,1437.23 
  508.364,1437.26 510.405,1437.29 512.445,1437.31 514.486,1437.34 516.527,1437.36 518.567,1437.38 520.608,1437.4 522.648,1437.42 524.689,1437.44 526.73,1437.45 
  528.77,1437.46 530.811,1437.47 532.852,1437.47 534.892,1437.48 536.933,1437.48 538.973,1437.48 541.014,1437.48 543.055,1437.47 545.095,1437.47 547.136,1437.46 
  
  "/>
<polyline clip-path="url(#clip262)" style="stroke:#000000; stroke-linecap:butt; stroke-linejoin:round; stroke-width:8; stroke-opacity:1; fill:none" points="
  569.583,1437.24 569.583,1690.2 771.605,1690.2 771.605,1425.71 
  "/>
<polyline clip-path="url(#clip262)" style="stroke:#0000ff; stroke-linecap:butt; stroke-linejoin:round; stroke-width:12; stroke-opacity:1; fill:none" points="
  569.583,1437.24 571.623,1437.21 573.664,1437.18 575.705,1437.14 577.745,1437.11 579.786,1437.07 581.827,1437.03 583.867,1436.98 585.908,1436.94 587.948,1436.89 
  589.989,1436.84 592.03,1436.79 594.07,1436.74 596.111,1436.69 598.152,1436.63 600.192,1436.57 602.233,1436.51 604.273,1436.45 606.314,1436.39 608.355,1436.33 
  610.395,1436.26 612.436,1436.19 614.477,1436.12 616.517,1436.05 618.558,1435.97 620.598,1435.9 622.639,1435.82 624.68,1435.74 626.72,1435.66 628.761,1435.58 
  630.802,1435.5 632.842,1435.41 634.883,1435.32 636.923,1435.23 638.964,1435.14 641.005,1435.05 643.045,1434.95 645.086,1434.86 647.127,1434.76 649.167,1434.66 
  651.208,1434.56 653.248,1434.46 655.289,1434.35 657.33,1434.25 659.37,1434.14 661.411,1434.03 663.452,1433.92 665.492,1433.8 667.533,1433.69 669.573,1433.57 
  671.614,1433.45 673.655,1433.34 675.695,1433.21 677.736,1433.09 679.777,1432.97 681.817,1432.84 683.858,1432.71 685.898,1432.58 687.939,1432.45 689.98,1432.32 
  692.02,1432.19 694.061,1432.05 696.102,1431.91 698.142,1431.77 700.183,1431.63 702.223,1431.49 704.264,1431.35 706.305,1431.2 708.345,1431.05 710.386,1430.9 
  712.427,1430.75 714.467,1430.6 716.508,1430.45 718.548,1430.29 720.589,1430.14 722.63,1429.98 724.67,1429.82 726.711,1429.66 728.752,1429.49 730.792,1429.33 
  732.833,1429.16 734.873,1429 736.914,1428.83 738.955,1428.66 740.995,1428.48 743.036,1428.31 745.077,1428.13 747.117,1427.96 749.158,1427.78 751.198,1427.6 
  753.239,1427.42 755.28,1427.23 757.32,1427.05 759.361,1426.86 761.402,1426.67 763.442,1426.48 765.483,1426.29 767.523,1426.1 769.564,1425.91 771.605,1425.71 
  
  "/>
<polyline clip-path="url(#clip262)" style="stroke:#000000; stroke-linecap:butt; stroke-linejoin:round; stroke-width:8; stroke-opacity:1; fill:none" points="
  794.052,1423.46 794.052,1690.2 996.073,1690.2 996.073,1394.8 
  "/>
<polyline clip-path="url(#clip262)" style="stroke:#0000ff; stroke-linecap:butt; stroke-linejoin:round; stroke-width:12; stroke-opacity:1; fill:none" points="
  794.052,1423.46 796.092,1423.24 798.133,1423.03 800.173,1422.81 802.214,1422.59 804.255,1422.37 806.295,1422.15 808.336,1421.93 810.377,1421.7 812.417,1421.48 
  814.458,1421.25 816.498,1421.02 818.539,1420.79 820.58,1420.55 822.62,1420.32 824.661,1420.09 826.702,1419.85 828.742,1419.61 830.783,1419.37 832.823,1419.13 
  834.864,1418.88 836.905,1418.64 838.945,1418.39 840.986,1418.15 843.027,1417.9 845.067,1417.65 847.108,1417.39 849.148,1417.14 851.189,1416.88 853.23,1416.63 
  855.27,1416.37 857.311,1416.11 859.352,1415.85 861.392,1415.59 863.433,1415.32 865.473,1415.05 867.514,1414.79 869.555,1414.52 871.595,1414.25 873.636,1413.98 
  875.677,1413.7 877.717,1413.43 879.758,1413.15 881.798,1412.87 883.839,1412.59 885.88,1412.31 887.92,1412.03 889.961,1411.74 892.002,1411.46 894.042,1411.17 
  896.083,1410.88 898.123,1410.59 900.164,1410.3 902.205,1410 904.245,1409.71 906.286,1409.41 908.327,1409.11 910.367,1408.81 912.408,1408.51 914.448,1408.21 
  916.489,1407.9 918.53,1407.6 920.57,1407.29 922.611,1406.98 924.652,1406.67 926.692,1406.36 928.733,1406.04 930.773,1405.73 932.814,1405.41 934.855,1405.09 
  936.895,1404.77 938.936,1404.45 940.977,1404.13 943.017,1403.8 945.058,1403.48 947.098,1403.15 949.139,1402.82 951.18,1402.49 953.22,1402.15 955.261,1401.82 
  957.302,1401.48 959.342,1401.15 961.383,1400.81 963.423,1400.47 965.464,1400.12 967.505,1399.78 969.545,1399.43 971.586,1399.09 973.627,1398.74 975.667,1398.39 
  977.708,1398.04 979.748,1397.68 981.789,1397.33 983.83,1396.97 985.87,1396.61 987.911,1396.25 989.952,1395.89 991.992,1395.53 994.033,1395.16 996.073,1394.8 
  
  "/>
<polyline clip-path="url(#clip262)" style="stroke:#000000; stroke-linecap:butt; stroke-linejoin:round; stroke-width:8; stroke-opacity:1; fill:none" points="
  1018.52,1390.66 1018.52,1690.2 1220.54,1690.2 1220.54,1343.94 
  "/>
<polyline clip-path="url(#clip262)" style="stroke:#0000ff; stroke-linecap:butt; stroke-linejoin:round; stroke-width:12; stroke-opacity:1; fill:none" points="
  1018.52,1390.66 1020.56,1390.27 1022.6,1389.89 1024.64,1389.5 1026.68,1389.11 1028.72,1388.71 1030.76,1388.32 1032.8,1387.92 1034.85,1387.53 1036.89,1387.13 
  1038.93,1386.73 1040.97,1386.32 1043.01,1385.92 1045.05,1385.51 1047.09,1385.1 1049.13,1384.7 1051.17,1384.28 1053.21,1383.87 1055.25,1383.46 1057.29,1383.04 
  1059.33,1382.62 1061.37,1382.2 1063.41,1381.78 1065.45,1381.36 1067.5,1380.93 1069.54,1380.51 1071.58,1380.08 1073.62,1379.65 1075.66,1379.22 1077.7,1378.79 
  1079.74,1378.35 1081.78,1377.91 1083.82,1377.48 1085.86,1377.03 1087.9,1376.59 1089.94,1376.15 1091.98,1375.7 1094.02,1375.26 1096.06,1374.81 1098.1,1374.36 
  1100.15,1373.9 1102.19,1373.45 1104.23,1372.99 1106.27,1372.54 1108.31,1372.08 1110.35,1371.61 1112.39,1371.15 1114.43,1370.69 1116.47,1370.22 1118.51,1369.75 
  1120.55,1369.28 1122.59,1368.81 1124.63,1368.33 1126.67,1367.86 1128.71,1367.38 1130.75,1366.9 1132.8,1366.42 1134.84,1365.94 1136.88,1365.45 1138.92,1364.97 
  1140.96,1364.48 1143,1363.99 1145.04,1363.49 1147.08,1363 1149.12,1362.5 1151.16,1362.01 1153.2,1361.51 1155.24,1361.01 1157.28,1360.5 1159.32,1360 
  1161.36,1359.49 1163.4,1358.98 1165.45,1358.47 1167.49,1357.96 1169.53,1357.44 1171.57,1356.93 1173.61,1356.41 1175.65,1355.89 1177.69,1355.36 1179.73,1354.84 
  1181.77,1354.31 1183.81,1353.79 1185.85,1353.26 1187.89,1352.72 1189.93,1352.19 1191.97,1351.65 1194.01,1351.12 1196.05,1350.58 1198.1,1350.03 1200.14,1349.49 
  1202.18,1348.94 1204.22,1348.4 1206.26,1347.85 1208.3,1347.3 1210.34,1346.74 1212.38,1346.19 1214.42,1345.63 1216.46,1345.07 1218.5,1344.51 1220.54,1343.94 
  
  "/>
<polyline clip-path="url(#clip262)" style="stroke:#000000; stroke-linecap:butt; stroke-linejoin:round; stroke-width:8; stroke-opacity:1; fill:none" points="
  1242.99,1337.61 1242.99,1690.2 1445.01,1690.2 1445.01,1268.43 
  "/>
<polyline clip-path="url(#clip262)" style="stroke:#0000ff; stroke-linecap:butt; stroke-linejoin:round; stroke-width:12; stroke-opacity:1; fill:none" points="
  1242.99,1337.61 1245.03,1337.02 1247.07,1336.43 1249.11,1335.84 1251.15,1335.25 1253.19,1334.65 1255.23,1334.05 1257.27,1333.45 1259.31,1332.85 1261.35,1332.24 
  1263.4,1331.64 1265.44,1331.03 1267.48,1330.42 1269.52,1329.8 1271.56,1329.19 1273.6,1328.57 1275.64,1327.95 1277.68,1327.33 1279.72,1326.71 1281.76,1326.08 
  1283.8,1325.45 1285.84,1324.82 1287.88,1324.19 1289.92,1323.55 1291.96,1322.92 1294,1322.28 1296.05,1321.63 1298.09,1320.99 1300.13,1320.35 1302.17,1319.7 
  1304.21,1319.05 1306.25,1318.39 1308.29,1317.74 1310.33,1317.08 1312.37,1316.42 1314.41,1315.76 1316.45,1315.1 1318.49,1314.43 1320.53,1313.76 1322.57,1313.09 
  1324.61,1312.42 1326.65,1311.74 1328.7,1311.07 1330.74,1310.39 1332.78,1309.7 1334.82,1309.02 1336.86,1308.33 1338.9,1307.64 1340.94,1306.95 1342.98,1306.26 
  1345.02,1305.56 1347.06,1304.86 1349.1,1304.16 1351.14,1303.46 1353.18,1302.75 1355.22,1302.05 1357.26,1301.34 1359.3,1300.62 1361.35,1299.91 1363.39,1299.19 
  1365.43,1298.47 1367.47,1297.75 1369.51,1297.02 1371.55,1296.3 1373.59,1295.57 1375.63,1294.83 1377.67,1294.1 1379.71,1293.36 1381.75,1292.62 1383.79,1291.88 
  1385.83,1291.14 1387.87,1290.39 1389.91,1289.64 1391.95,1288.89 1394,1288.13 1396.04,1287.38 1398.08,1286.62 1400.12,1285.85 1402.16,1285.09 1404.2,1284.32 
  1406.24,1283.55 1408.28,1282.78 1410.32,1282 1412.36,1281.23 1414.4,1280.45 1416.44,1279.66 1418.48,1278.88 1420.52,1278.09 1422.56,1277.3 1424.6,1276.51 
  1426.65,1275.71 1428.69,1274.91 1430.73,1274.11 1432.77,1273.31 1434.81,1272.5 1436.85,1271.69 1438.89,1270.88 1440.93,1270.07 1442.97,1269.25 1445.01,1268.43 
  
  "/>
<polyline clip-path="url(#clip262)" style="stroke:#000000; stroke-linecap:butt; stroke-linejoin:round; stroke-width:8; stroke-opacity:1; fill:none" points="
  1467.46,1259.23 1467.46,1690.2 1669.48,1690.2 1669.48,1159.77 
  "/>
<polyline clip-path="url(#clip262)" style="stroke:#0000ff; stroke-linecap:butt; stroke-linejoin:round; stroke-width:12; stroke-opacity:1; fill:none" points="
  1467.46,1259.23 1469.5,1258.38 1471.54,1257.53 1473.58,1256.67 1475.62,1255.81 1477.66,1254.94 1479.7,1254.07 1481.74,1253.2 1483.78,1252.33 1485.82,1251.46 
  1487.86,1250.58 1489.9,1249.7 1491.95,1248.81 1493.99,1247.93 1496.03,1247.04 1498.07,1246.14 1500.11,1245.25 1502.15,1244.35 1504.19,1243.45 1506.23,1242.54 
  1508.27,1241.64 1510.31,1240.73 1512.35,1239.81 1514.39,1238.9 1516.43,1237.98 1518.47,1237.05 1520.51,1236.13 1522.55,1235.2 1524.6,1234.27 1526.64,1233.33 
  1528.68,1232.4 1530.72,1231.46 1532.76,1230.51 1534.8,1229.57 1536.84,1228.62 1538.88,1227.66 1540.92,1226.71 1542.96,1225.75 1545,1224.79 1547.04,1223.82 
  1549.08,1222.85 1551.12,1221.88 1553.16,1220.9 1555.2,1219.93 1557.25,1218.95 1559.29,1217.96 1561.33,1216.97 1563.37,1215.98 1565.41,1214.99 1567.45,1213.99 
  1569.49,1212.99 1571.53,1211.99 1573.57,1210.98 1575.61,1209.97 1577.65,1208.96 1579.69,1207.94 1581.73,1206.92 1583.77,1205.9 1585.81,1204.87 1587.85,1203.84 
  1589.9,1202.8 1591.94,1201.77 1593.98,1200.73 1596.02,1199.68 1598.06,1198.64 1600.1,1197.59 1602.14,1196.53 1604.18,1195.48 1606.22,1194.41 1608.26,1193.35 
  1610.3,1192.28 1612.34,1191.21 1614.38,1190.14 1616.42,1189.06 1618.46,1187.98 1620.5,1186.89 1622.55,1185.8 1624.59,1184.71 1626.63,1183.62 1628.67,1182.52 
  1630.71,1181.42 1632.75,1180.31 1634.79,1179.2 1636.83,1178.09 1638.87,1176.97 1640.91,1175.85 1642.95,1174.72 1644.99,1173.6 1647.03,1172.46 1649.07,1171.33 
  1651.11,1170.19 1653.15,1169.05 1655.2,1167.9 1657.24,1166.75 1659.28,1165.6 1661.32,1164.44 1663.36,1163.28 1665.4,1162.11 1667.44,1160.95 1669.48,1159.77 
  
  "/>
<polyline clip-path="url(#clip262)" style="stroke:#000000; stroke-linecap:butt; stroke-linejoin:round; stroke-width:8; stroke-opacity:1; fill:none" points="
  1691.93,1146.62 1691.93,1690.2 1893.95,1690.2 1893.95,1004.64 
  "/>
<polyline clip-path="url(#clip262)" style="stroke:#0000ff; stroke-linecap:butt; stroke-linejoin:round; stroke-width:12; stroke-opacity:1; fill:none" points="
  1691.93,1146.62 1693.97,1145.4 1696.01,1144.18 1698.05,1142.95 1700.09,1141.72 1702.13,1140.49 1704.17,1139.25 1706.21,1138.01 1708.25,1136.76 1710.29,1135.51 
  1712.33,1134.26 1714.37,1133 1716.41,1131.73 1718.45,1130.47 1720.5,1129.2 1722.54,1127.92 1724.58,1126.64 1726.62,1125.36 1728.66,1124.07 1730.7,1122.78 
  1732.74,1121.48 1734.78,1120.18 1736.82,1118.88 1738.86,1117.57 1740.9,1116.26 1742.94,1114.94 1744.98,1113.62 1747.02,1112.29 1749.06,1110.96 1751.1,1109.63 
  1753.15,1108.29 1755.19,1106.95 1757.23,1105.6 1759.27,1104.25 1761.31,1102.89 1763.35,1101.53 1765.39,1100.17 1767.43,1098.8 1769.47,1097.43 1771.51,1096.05 
  1773.55,1094.66 1775.59,1093.28 1777.63,1091.89 1779.67,1090.49 1781.71,1089.09 1783.75,1087.68 1785.8,1086.28 1787.84,1084.86 1789.88,1083.44 1791.92,1082.02 
  1793.96,1080.59 1796,1079.16 1798.04,1077.72 1800.08,1076.28 1802.12,1074.83 1804.16,1073.38 1806.2,1071.93 1808.24,1070.47 1810.28,1069 1812.32,1067.53 
  1814.36,1066.06 1816.4,1064.58 1818.45,1063.09 1820.49,1061.6 1822.53,1060.11 1824.57,1058.61 1826.61,1057.1 1828.65,1055.6 1830.69,1054.08 1832.73,1052.56 
  1834.77,1051.04 1836.81,1049.51 1838.85,1047.98 1840.89,1046.44 1842.93,1044.9 1844.97,1043.35 1847.01,1041.8 1849.05,1040.24 1851.1,1038.67 1853.14,1037.11 
  1855.18,1035.53 1857.22,1033.95 1859.26,1032.37 1861.3,1030.78 1863.34,1029.19 1865.38,1027.59 1867.42,1025.98 1869.46,1024.37 1871.5,1022.76 1873.54,1021.14 
  1875.58,1019.51 1877.62,1017.88 1879.66,1016.24 1881.7,1014.6 1883.75,1012.96 1885.79,1011.3 1887.83,1009.65 1889.87,1007.98 1891.91,1006.32 1893.95,1004.64 
  
  "/>
<polyline clip-path="url(#clip262)" style="stroke:#000000; stroke-linecap:butt; stroke-linejoin:round; stroke-width:8; stroke-opacity:1; fill:none" points="
  1916.4,985.867 1916.4,1690.2 2118.42,1690.2 2118.42,782.723 
  "/>
<polyline clip-path="url(#clip262)" style="stroke:#0000ff; stroke-linecap:butt; stroke-linejoin:round; stroke-width:12; stroke-opacity:1; fill:none" points="
  1916.4,985.867 1918.44,984.127 1920.48,982.381 1922.52,980.629 1924.56,978.872 1926.6,977.108 1928.64,975.34 1930.68,973.565 1932.72,971.784 1934.76,969.998 
  1936.8,968.206 1938.84,966.408 1940.88,964.604 1942.92,962.794 1944.96,960.979 1947,959.157 1949.05,957.329 1951.09,955.496 1953.13,953.656 1955.17,951.811 
  1957.21,949.959 1959.25,948.102 1961.29,946.238 1963.33,944.368 1965.37,942.492 1967.41,940.61 1969.45,938.722 1971.49,936.828 1973.53,934.927 1975.57,933.02 
  1977.61,931.107 1979.65,929.188 1981.7,927.263 1983.74,925.331 1985.78,923.392 1987.82,921.448 1989.86,919.497 1991.9,917.54 1993.94,915.576 1995.98,913.606 
  1998.02,911.629 2000.06,909.646 2002.1,907.656 2004.14,905.66 2006.18,903.657 2008.22,901.648 2010.26,899.632 2012.3,897.61 2014.35,895.58 2016.39,893.545 
  2018.43,891.502 2020.47,889.453 2022.51,887.397 2024.55,885.334 2026.59,883.265 2028.63,881.189 2030.67,879.105 2032.71,877.015 2034.75,874.919 2036.79,872.815 
  2038.83,870.704 2040.87,868.587 2042.91,866.462 2044.95,864.33 2047,862.192 2049.04,860.046 2051.08,857.893 2053.12,855.734 2055.16,853.567 2057.2,851.393 
  2059.24,849.211 2061.28,847.023 2063.32,844.827 2065.36,842.625 2067.4,840.414 2069.44,838.197 2071.48,835.972 2073.52,833.74 2075.56,831.501 2077.6,829.254 
  2079.65,826.999 2081.69,824.738 2083.73,822.469 2085.77,820.192 2087.81,817.908 2089.85,815.616 2091.89,813.317 2093.93,811.01 2095.97,808.695 2098.01,806.373 
  2100.05,804.043 2102.09,801.705 2104.13,799.36 2106.17,797.007 2108.21,794.646 2110.25,792.277 2112.3,789.9 2114.34,787.516 2116.38,785.124 2118.42,782.723 
  
  "/>
<polyline clip-path="url(#clip262)" style="stroke:#000000; stroke-linecap:butt; stroke-linejoin:round; stroke-width:8; stroke-opacity:1; fill:none" points="
  2140.86,755.789 2140.86,1690.2 2342.89,1690.2 2342.89,463.217 
  "/>
<polyline clip-path="url(#clip262)" style="stroke:#0000ff; stroke-linecap:butt; stroke-linejoin:round; stroke-width:12; stroke-opacity:1; fill:none" points="
  2140.86,755.789 2142.9,753.291 2144.95,750.785 2146.99,748.271 2149.03,745.748 2151.07,743.217 2153.11,740.678 2155.15,738.13 2157.19,735.573 2159.23,733.008 
  2161.27,730.435 2163.31,727.853 2165.35,725.262 2167.39,722.663 2169.43,720.055 2171.47,717.439 2173.51,714.814 2175.55,712.18 2177.6,709.537 2179.64,706.885 
  2181.68,704.225 2183.72,701.555 2185.76,698.877 2187.8,696.19 2189.84,693.494 2191.88,690.789 2193.92,688.074 2195.96,685.351 2198,682.619 2200.04,679.877 
  2202.08,677.127 2204.12,674.367 2206.16,671.598 2208.2,668.819 2210.25,666.032 2212.29,663.235 2214.33,660.429 2216.37,657.613 2218.41,654.788 2220.45,651.953 
  2222.49,649.109 2224.53,646.256 2226.57,643.392 2228.61,640.52 2230.65,637.637 2232.69,634.745 2234.73,631.843 2236.77,628.932 2238.81,626.011 2240.85,623.08 
  2242.9,620.139 2244.94,617.188 2246.98,614.227 2249.02,611.257 2251.06,608.276 2253.1,605.285 2255.14,602.285 2257.18,599.274 2259.22,596.253 2261.26,593.222 
  2263.3,590.181 2265.34,587.13 2267.38,584.068 2269.42,580.996 2271.46,577.913 2273.5,574.821 2275.55,571.717 2277.59,568.604 2279.63,565.48 2281.67,562.345 
  2283.71,559.2 2285.75,556.044 2287.79,552.878 2289.83,549.701 2291.87,546.513 2293.91,543.314 2295.95,540.105 2297.99,536.884 2300.03,533.653 2302.07,530.411 
  2304.11,527.158 2306.15,523.894 2308.2,520.619 2310.24,517.333 2312.28,514.036 2314.32,510.728 2316.36,507.408 2318.4,504.077 2320.44,500.735 2322.48,497.382 
  2324.52,494.017 2326.56,490.641 2328.6,487.254 2330.64,483.855 2332.68,480.444 2334.72,477.022 2336.76,473.588 2338.8,470.143 2340.85,466.686 2342.89,463.217 
  
  "/>
<polyline clip-path="url(#clip262)" style="stroke:#000000; stroke-linecap:butt; stroke-linejoin:round; stroke-width:8; stroke-opacity:1; fill:none" points="
  2365.33,424.275 2365.33,1690.2 2567.35,1690.2 2567.35,-0.73257 
  "/>
<polyline clip-path="url(#clip262)" style="stroke:#0000ff; stroke-linecap:butt; stroke-linejoin:round; stroke-width:12; stroke-opacity:1; fill:none" points="
  2365.33,424.275 2367.37,420.662 2369.41,417.037 2371.45,413.399 2373.5,409.75 2375.54,406.087 2377.58,402.412 2379.62,398.725 2381.66,395.025 2383.7,391.313 
  2385.74,387.588 2387.78,383.85 2389.82,380.099 2391.86,376.336 2393.9,372.56 2395.94,368.771 2397.98,364.969 2400.02,361.154 2402.06,357.326 2404.1,353.485 
  2406.15,349.631 2408.19,345.763 2410.23,341.883 2412.27,337.989 2414.31,334.082 2416.35,330.161 2418.39,326.227 2420.43,322.28 2422.47,318.319 2424.51,314.344 
  2426.55,310.356 2428.59,306.354 2430.63,302.339 2432.67,298.31 2434.71,294.267 2436.75,290.21 2438.8,286.139 2440.84,282.054 2442.88,277.955 2444.92,273.842 
  2446.96,269.716 2449,265.574 2451.04,261.419 2453.08,257.249 2455.12,253.065 2457.16,248.867 2459.2,244.654 2461.24,240.427 2463.28,236.185 2465.32,231.929 
  2467.36,227.658 2469.4,223.372 2471.45,219.072 2473.49,214.757 2475.53,210.426 2477.57,206.081 2479.61,201.721 2481.65,197.346 2483.69,192.956 2485.73,188.551 
  2487.77,184.131 2489.81,179.695 2491.85,175.244 2493.89,170.778 2495.93,166.296 2497.97,161.799 2500.01,157.286 2502.05,152.758 2504.1,148.214 2506.14,143.654 
  2508.18,139.079 2510.22,134.487 2512.26,129.88 2514.3,125.257 2516.34,120.618 2518.38,115.963 2520.42,111.292 2522.46,106.604 2524.5,101.901 2526.54,97.1808 
  2528.58,92.4446 2530.62,87.6919 2532.66,82.9228 2534.7,78.1371 2536.75,73.3349 2538.79,68.5159 2540.83,63.6803 2542.87,58.8279 2544.91,53.9587 2546.95,49.0725 
  2548.99,44.1694 2551.03,39.2492 2553.07,34.312 2555.11,29.3576 2557.15,24.386 2559.19,19.3971 2561.23,14.3909 2563.27,9.36722 2565.31,4.3261 2567.35,-0.73257 
  
  "/>
<path clip-path="url(#clip260)" d="M1180.39 1774.12 Q1180.39 1776.42 1178.96 1777.73 Q1177.52 1779 1175.88 1779 Q1174.33 1779 1173.51 1778.1 Q1172.69 1777.2 1172.69 1776.05 Q1172.69 1774.49 1173.84 1773.14 Q1174.98 1771.79 1176.7 1771.5 Q1175.02 1770.43 1172.52 1770.43 Q1170.88 1770.43 1169.45 1771.3 Q1168.06 1772.16 1167.2 1773.26 Q1166.38 1774.37 1165.64 1775.97 Q1164.94 1777.53 1164.65 1778.47 Q1164.41 1779.37 1164.2 1780.35 L1161.33 1791.83 Q1159.94 1797.28 1159.94 1799.21 Q1159.94 1801.59 1161.09 1803.19 Q1162.24 1804.74 1164.53 1804.74 Q1165.43 1804.74 1166.46 1804.5 Q1167.48 1804.21 1168.79 1803.47 Q1170.15 1802.69 1171.33 1801.55 Q1172.56 1800.36 1173.75 1798.35 Q1174.94 1796.34 1175.72 1793.76 Q1175.97 1792.86 1176.79 1792.86 Q1177.81 1792.86 1177.81 1793.68 Q1177.81 1794.37 1177.24 1795.85 Q1176.7 1797.28 1175.52 1799.17 Q1174.37 1801.01 1172.85 1802.69 Q1171.33 1804.33 1169.08 1805.48 Q1166.83 1806.63 1164.37 1806.63 Q1160.84 1806.63 1158.51 1804.74 Q1156.17 1802.86 1155.31 1800.23 Q1155.1 1800.6 1154.82 1801.09 Q1154.53 1801.59 1153.67 1802.69 Q1152.85 1803.76 1151.91 1804.58 Q1150.96 1805.36 1149.49 1805.97 Q1148.05 1806.63 1146.5 1806.63 Q1144.53 1806.63 1142.77 1806.05 Q1141.04 1805.48 1139.81 1804.17 Q1138.58 1802.86 1138.58 1801.05 Q1138.58 1799.05 1139.94 1797.65 Q1141.33 1796.22 1143.22 1796.22 Q1144.4 1796.22 1145.35 1796.91 Q1146.33 1797.61 1146.33 1799.13 Q1146.33 1800.81 1145.18 1802.08 Q1144.04 1803.35 1142.4 1803.68 Q1144.08 1804.74 1146.58 1804.74 Q1149.28 1804.74 1151.41 1802.37 Q1153.55 1799.99 1154.57 1796.01 Q1157.11 1786.46 1158.1 1782.2 Q1159.08 1777.89 1159.08 1776.05 Q1159.08 1774.33 1158.63 1773.14 Q1158.18 1771.95 1157.4 1771.42 Q1156.66 1770.84 1155.96 1770.64 Q1155.31 1770.43 1154.57 1770.43 Q1153.34 1770.43 1151.95 1770.93 Q1150.59 1771.42 1148.95 1772.57 Q1147.36 1773.67 1145.84 1775.97 Q1144.32 1778.26 1143.3 1781.42 Q1143.09 1782.36 1142.19 1782.36 Q1141.21 1782.32 1141.21 1781.5 Q1141.21 1780.81 1141.74 1779.37 Q1142.31 1777.89 1143.46 1776.05 Q1144.65 1774.21 1146.17 1772.57 Q1147.73 1770.89 1149.98 1769.74 Q1152.27 1768.59 1154.73 1768.59 Q1155.84 1768.59 1156.91 1768.84 Q1158.01 1769.04 1159.33 1769.66 Q1160.68 1770.27 1161.87 1771.62 Q1163.06 1772.98 1163.79 1774.94 Q1164.28 1774 1164.94 1773.1 Q1165.64 1772.2 1166.7 1771.09 Q1167.81 1769.94 1169.33 1769.29 Q1170.88 1768.59 1172.61 1768.59 Q1174.29 1768.59 1175.93 1769.04 Q1177.57 1769.45 1178.96 1770.8 Q1180.39 1772.12 1180.39 1774.12 Z" fill="#000000" fill-rule="evenodd" fill-opacity="1" /><path clip-path="url(#clip260)" d="M1203.96 1793.14 Q1203.96 1794.4 1202.92 1795.35 Q1201.92 1796.27 1200.83 1796.27 Q1199.82 1796.27 1199.19 1795.67 Q1198.59 1795.04 1198.59 1794.15 Q1198.59 1792.97 1199.59 1791.99 Q1200.6 1791.02 1201.78 1791.02 Q1202.75 1791.02 1203.35 1791.62 Q1203.96 1792.22 1203.96 1793.14 M1204.47 1821.46 Q1204.47 1821.69 1204.21 1822.61 Q1203.96 1823.5 1203.32 1824.88 Q1202.72 1826.22 1201.89 1827.49 Q1201.06 1828.75 1199.68 1829.64 Q1198.33 1830.53 1196.78 1830.53 Q1194.69 1830.53 1193.31 1829.15 Q1191.96 1827.77 1191.96 1825.71 Q1191.96 1824.59 1193.31 1821 Q1197.21 1810.56 1197.36 1810.13 Q1198.02 1808.49 1198.02 1807.06 Q1198.02 1806.4 1197.87 1806 Q1197.73 1805.57 1197.44 1805.42 Q1197.16 1805.25 1196.98 1805.22 Q1196.84 1805.19 1196.55 1805.19 Q1194.86 1805.19 1193.28 1806.91 Q1191.7 1808.64 1190.61 1812.48 Q1190.38 1813.2 1190.24 1813.37 Q1190.1 1813.54 1189.67 1813.54 Q1188.95 1813.51 1188.95 1812.94 Q1188.95 1812.77 1189.15 1812.11 Q1189.35 1811.42 1189.72 1810.39 Q1190.1 1809.32 1190.76 1808.23 Q1191.42 1807.12 1192.22 1806.14 Q1193.05 1805.16 1194.23 1804.53 Q1195.41 1803.9 1196.73 1803.9 Q1198.88 1803.9 1200.2 1805.31 Q1201.55 1806.68 1201.55 1808.72 Q1201.55 1809.84 1200.77 1811.82 Q1199.82 1814.4 1199.48 1815.24 L1197.18 1821.4 Q1196.35 1823.64 1196.09 1824.33 Q1195.86 1824.99 1195.66 1825.79 Q1195.49 1826.57 1195.49 1827.29 Q1195.49 1828.29 1195.81 1828.75 Q1196.15 1829.21 1196.9 1829.21 Q1198.96 1829.21 1200.48 1827.17 Q1202 1825.11 1202.89 1821.95 Q1202.92 1821.86 1202.95 1821.72 Q1203.18 1821 1203.41 1820.92 Q1203.53 1820.89 1203.75 1820.89 Q1204.47 1820.89 1204.47 1821.46 Z" fill="#000000" fill-rule="evenodd" fill-opacity="1" /><path clip-path="url(#clip260)" d="M1264.11 1814.35 Q1264.45 1814.69 1264.45 1815.18 Q1264.45 1815.67 1264.11 1816.01 Q1263.76 1816.35 1263.28 1816.35 L1226.49 1816.35 Q1226 1816.35 1225.66 1816.01 Q1225.31 1815.67 1225.31 1815.18 Q1225.31 1814.69 1225.66 1814.35 Q1226 1814 1226.49 1814 L1263.28 1814 Q1263.76 1814 1264.11 1814.35 Z" fill="#000000" fill-rule="evenodd" fill-opacity="1" /><path clip-path="url(#clip260)" d="M1286.89 1796.33 L1286.89 1794.49 Q1293.95 1794.49 1297.59 1790.73 Q1298.59 1790.73 1298.77 1790.96 Q1298.94 1791.19 1298.94 1792.25 L1298.94 1825.22 Q1298.94 1826.97 1299.8 1827.52 Q1300.66 1828.06 1304.42 1828.06 L1306.28 1828.06 L1306.28 1829.87 Q1304.22 1829.7 1296.76 1829.7 Q1289.3 1829.7 1287.26 1829.87 L1287.26 1828.06 L1289.12 1828.06 Q1292.83 1828.06 1293.72 1827.54 Q1294.61 1827 1294.61 1825.22 L1294.61 1794.78 Q1291.54 1796.33 1286.89 1796.33 Z" fill="#000000" fill-rule="evenodd" fill-opacity="1" /><path clip-path="url(#clip260)" d="M1458.35 1774.21 Q1458.35 1776.5 1456.91 1777.82 Q1455.48 1779.09 1453.84 1779.09 Q1452.28 1779.09 1451.46 1778.18 Q1450.64 1777.28 1450.64 1776.13 Q1450.64 1774.58 1451.79 1773.22 Q1452.94 1771.87 1454.66 1771.59 Q1452.98 1770.52 1450.48 1770.52 Q1448.84 1770.52 1447.41 1771.38 Q1446.01 1772.24 1445.15 1773.35 Q1444.33 1774.45 1443.59 1776.05 Q1442.9 1777.61 1442.61 1778.55 Q1442.36 1779.46 1442.16 1780.44 L1439.29 1791.92 Q1437.9 1797.37 1437.9 1799.29 Q1437.9 1801.67 1439.04 1803.27 Q1440.19 1804.83 1442.49 1804.83 Q1443.39 1804.83 1444.41 1804.58 Q1445.44 1804.29 1446.75 1803.56 Q1448.1 1802.78 1449.29 1801.63 Q1450.52 1800.44 1451.71 1798.43 Q1452.9 1796.42 1453.68 1793.84 Q1453.92 1792.94 1454.74 1792.94 Q1455.77 1792.94 1455.77 1793.76 Q1455.77 1794.46 1455.19 1795.93 Q1454.66 1797.37 1453.47 1799.25 Q1452.32 1801.1 1450.81 1802.78 Q1449.29 1804.42 1447.04 1805.57 Q1444.78 1806.71 1442.32 1806.71 Q1438.8 1806.71 1436.46 1804.83 Q1434.12 1802.94 1433.26 1800.32 Q1433.06 1800.69 1432.77 1801.18 Q1432.49 1801.67 1431.62 1802.78 Q1430.8 1803.84 1429.86 1804.66 Q1428.92 1805.44 1427.44 1806.06 Q1426.01 1806.71 1424.45 1806.71 Q1422.48 1806.71 1420.72 1806.14 Q1419 1805.57 1417.77 1804.25 Q1416.54 1802.94 1416.54 1801.14 Q1416.54 1799.13 1417.89 1797.74 Q1419.29 1796.3 1421.17 1796.3 Q1422.36 1796.3 1423.3 1797 Q1424.29 1797.7 1424.29 1799.21 Q1424.29 1800.89 1423.14 1802.16 Q1421.99 1803.43 1420.35 1803.76 Q1422.03 1804.83 1424.53 1804.83 Q1427.24 1804.83 1429.37 1802.45 Q1431.5 1800.07 1432.53 1796.1 Q1435.07 1786.55 1436.05 1782.28 Q1437.04 1777.98 1437.04 1776.13 Q1437.04 1774.41 1436.58 1773.22 Q1436.13 1772.04 1435.35 1771.5 Q1434.62 1770.93 1433.92 1770.72 Q1433.26 1770.52 1432.53 1770.52 Q1431.3 1770.52 1429.9 1771.01 Q1428.55 1771.5 1426.91 1772.65 Q1425.31 1773.76 1423.8 1776.05 Q1422.28 1778.35 1421.25 1781.5 Q1421.05 1782.45 1420.15 1782.45 Q1419.16 1782.41 1419.16 1781.59 Q1419.16 1780.89 1419.7 1779.46 Q1420.27 1777.98 1421.42 1776.13 Q1422.61 1774.29 1424.12 1772.65 Q1425.68 1770.97 1427.94 1769.82 Q1430.23 1768.67 1432.69 1768.67 Q1433.8 1768.67 1434.86 1768.92 Q1435.97 1769.13 1437.28 1769.74 Q1438.63 1770.36 1439.82 1771.71 Q1441.01 1773.06 1441.75 1775.03 Q1442.24 1774.09 1442.9 1773.18 Q1443.59 1772.28 1444.66 1771.18 Q1445.77 1770.03 1447.28 1769.37 Q1448.84 1768.67 1450.56 1768.67 Q1452.24 1768.67 1453.88 1769.13 Q1455.52 1769.54 1456.91 1770.89 Q1458.35 1772.2 1458.35 1774.21 Z" fill="#000000" fill-rule="evenodd" fill-opacity="1" /><path clip-path="url(#clip260)" d="M1481.91 1793.06 Q1481.91 1794.32 1480.88 1795.27 Q1479.87 1796.19 1478.78 1796.19 Q1477.78 1796.19 1477.15 1795.58 Q1476.55 1794.95 1476.55 1794.06 Q1476.55 1792.89 1477.55 1791.91 Q1478.55 1790.93 1479.73 1790.93 Q1480.71 1790.93 1481.31 1791.54 Q1481.91 1792.14 1481.91 1793.06 M1482.43 1821.38 Q1482.43 1821.61 1482.17 1822.52 Q1481.91 1823.41 1481.28 1824.79 Q1480.68 1826.14 1479.85 1827.4 Q1479.01 1828.66 1477.64 1829.55 Q1476.29 1830.44 1474.74 1830.44 Q1472.64 1830.44 1471.27 1829.07 Q1469.92 1827.69 1469.92 1825.62 Q1469.92 1824.5 1471.27 1820.92 Q1475.17 1810.47 1475.31 1810.04 Q1475.97 1808.41 1475.97 1806.97 Q1475.97 1806.31 1475.83 1805.91 Q1475.69 1805.48 1475.4 1805.34 Q1475.11 1805.17 1474.94 1805.14 Q1474.8 1805.11 1474.51 1805.11 Q1472.82 1805.11 1471.24 1806.83 Q1469.66 1808.55 1468.57 1812.4 Q1468.34 1813.11 1468.2 1813.29 Q1468.05 1813.46 1467.62 1813.46 Q1466.91 1813.43 1466.91 1812.86 Q1466.91 1812.68 1467.11 1812.02 Q1467.31 1811.33 1467.68 1810.3 Q1468.05 1809.24 1468.71 1808.15 Q1469.37 1807.03 1470.18 1806.06 Q1471.01 1805.08 1472.18 1804.45 Q1473.36 1803.82 1474.68 1803.82 Q1476.83 1803.82 1478.15 1805.22 Q1479.5 1806.6 1479.5 1808.64 Q1479.5 1809.76 1478.73 1811.74 Q1477.78 1814.32 1477.44 1815.15 L1475.14 1821.32 Q1474.31 1823.56 1474.05 1824.25 Q1473.82 1824.91 1473.62 1825.71 Q1473.45 1826.48 1473.45 1827.2 Q1473.45 1828.21 1473.76 1828.66 Q1474.11 1829.12 1474.85 1829.12 Q1476.92 1829.12 1478.44 1827.09 Q1479.96 1825.02 1480.85 1821.86 Q1480.88 1821.78 1480.91 1821.64 Q1481.14 1820.92 1481.37 1820.83 Q1481.48 1820.8 1481.71 1820.8 Q1482.43 1820.8 1482.43 1821.38 Z" fill="#000000" fill-rule="evenodd" fill-opacity="1" /></svg>
