<?xml version="1.0" encoding="utf-8"?>
<svg xmlns="http://www.w3.org/2000/svg" xmlns:xlink="http://www.w3.org/1999/xlink" width="672" height="480" viewBox="0 0 2688 1920">
<defs>
  <clipPath id="clip200">
    <rect x="0" y="0" width="2688" height="1920"/>
  </clipPath>
</defs>
<path clip-path="url(#clip200)" d="
M0 1920 L2688 1920 L2688 0 L0 0  Z
  " fill="#ffffff" fill-rule="evenodd" fill-opacity="1"/>
<defs>
  <clipPath id="clip201">
    <rect x="537" y="0" width="1883" height="1883"/>
  </clipPath>
</defs>
<path clip-path="url(#clip200)" d="
M47.2441 1872.76 L2640.76 1872.76 L2640.76 47.2441 L47.2441 47.2441  Z
  " fill="#ffffff" fill-rule="evenodd" fill-opacity="1"/>
<defs>
  <clipPath id="clip202">
    <rect x="47" y="47" width="2595" height="1827"/>
  </clipPath>
</defs>
<polyline clip-path="url(#clip202)" style="stroke:#0000ff; stroke-linecap:butt; stroke-linejoin:round; stroke-width:12; stroke-opacity:1; fill:none" points="
  120.645,364.007 120.645,1555.99 1312.63,1555.99 1312.63,364.007 
  "/>
<polyline clip-path="url(#clip202)" style="stroke:#0000ff; stroke-linecap:butt; stroke-linejoin:round; stroke-width:12; stroke-opacity:1; fill:none" points="
  1312.63,364.007 180.245,364.007 
  "/>
<polyline clip-path="url(#clip202)" style="stroke:#0000ff; stroke-linecap:butt; stroke-linejoin:round; stroke-width:12; stroke-opacity:1; fill:none" points="
  220.565,384.167 180.245,364.007 220.565,343.847 
  "/>
<polyline clip-path="url(#clip202)" style="stroke:#0000ff; stroke-linecap:butt; stroke-linejoin:round; stroke-width:12; stroke-opacity:1; fill:none" points="
  180.245,364.007 1312.63,364.007 
  "/>
<polyline clip-path="url(#clip202)" style="stroke:#ff0000; stroke-linecap:butt; stroke-linejoin:round; stroke-width:12; stroke-opacity:1; fill:none" points="
  1375.37,364.007 1375.37,1555.99 2567.35,1555.99 2567.35,364.007 
  "/>
<polyline clip-path="url(#clip202)" style="stroke:#ff0000; stroke-linecap:butt; stroke-linejoin:round; stroke-width:12; stroke-opacity:1; fill:none" points="
  2567.35,364.007 1434.97,364.007 
  "/>
<polyline clip-path="url(#clip202)" style="stroke:#ff0000; stroke-linecap:butt; stroke-linejoin:round; stroke-width:12; stroke-opacity:1; fill:none" points="
  1475.29,384.167 1434.97,364.007 1475.29,343.847 
  "/>
<polyline clip-path="url(#clip202)" style="stroke:#ff0000; stroke-linecap:butt; stroke-linejoin:round; stroke-width:12; stroke-opacity:1; fill:none" points="
  1434.97,364.007 2567.35,364.007 
  "/>
<circle clip-path="url(#clip202)" cx="1344" cy="1273.68" r="14.4" fill="#008000" fill-rule="evenodd" fill-opacity="1" stroke="#000000" stroke-opacity="1" stroke-width="3.84"/>
<polyline clip-path="url(#clip202)" style="stroke:#008000; stroke-linecap:butt; stroke-linejoin:round; stroke-width:12; stroke-opacity:1; fill:none" points="
  1344,1273.68 1971.36,960 
  "/>
<polyline clip-path="url(#clip202)" style="stroke:#008000; stroke-linecap:butt; stroke-linejoin:round; stroke-width:12; stroke-opacity:1; fill:none" points="
  1926.28,960 1971.36,960 1944.31,996.063 
  "/>
<polyline clip-path="url(#clip202)" style="stroke:#008000; stroke-linecap:butt; stroke-linejoin:round; stroke-width:12; stroke-opacity:1; fill:none" points="
  1971.36,960 1344,1273.68 
  "/>
<polyline clip-path="url(#clip202)" style="stroke:#0000ff; stroke-linecap:butt; stroke-linejoin:round; stroke-width:4; stroke-opacity:1; fill:none" points="
  1344,1273.68 1657.68,1273.68 
  "/>
<polyline clip-path="url(#clip202)" style="stroke:#0000ff; stroke-linecap:butt; stroke-linejoin:round; stroke-width:4; stroke-opacity:1; fill:none" points="
  1617.36,1253.52 1657.68,1273.68 1617.36,1293.84 
  "/>
<polyline clip-path="url(#clip202)" style="stroke:#0000ff; stroke-linecap:butt; stroke-linejoin:round; stroke-width:4; stroke-opacity:1; fill:none" points="
  1657.68,1273.68 1344,1273.68 
  "/>
<polyline clip-path="url(#clip202)" style="stroke:#ff0000; stroke-linecap:butt; stroke-linejoin:round; stroke-width:4; stroke-opacity:1; fill:none" points="
  1344,1273.68 1030.32,1273.68 
  "/>
<polyline clip-path="url(#clip202)" style="stroke:#ff0000; stroke-linecap:butt; stroke-linejoin:round; stroke-width:4; stroke-opacity:1; fill:none" points="
  1070.64,1293.84 1030.32,1273.68 1070.64,1253.52 
  "/>
<polyline clip-path="url(#clip202)" style="stroke:#ff0000; stroke-linecap:butt; stroke-linejoin:round; stroke-width:4; stroke-opacity:1; fill:none" points="
  1030.32,1273.68 1344,1273.68 
  "/>
<path clip-path="url(#clip200)" d="M1187.16 1408.34 L1176.06 1438.44 L1198.3 1438.44 L1187.16 1408.34 M1182.54 1400.28 L1191.82 1400.28 L1214.87 1460.76 L1206.36 1460.76 L1200.85 1445.25 L1173.59 1445.25 L1168.08 1460.76 L1159.45 1460.76 L1182.54 1400.28 Z" fill="#000000" fill-rule="evenodd" fill-opacity="1" /><path clip-path="url(#clip200)" d="M2428.62 1431.88 L2428.62 1454.04 L2441.74 1454.04 Q2448.34 1454.04 2451.5 1451.32 Q2454.7 1448.57 2454.7 1442.94 Q2454.7 1437.27 2451.5 1434.59 Q2448.34 1431.88 2441.74 1431.88 L2428.62 1431.88 M2428.62 1407.01 L2428.62 1425.23 L2440.73 1425.23 Q2446.72 1425.23 2449.64 1423.01 Q2452.6 1420.74 2452.6 1416.12 Q2452.6 1411.54 2449.64 1409.27 Q2446.72 1407.01 2440.73 1407.01 L2428.62 1407.01 M2420.43 1400.28 L2441.34 1400.28 Q2450.69 1400.28 2455.76 1404.17 Q2460.82 1408.06 2460.82 1415.23 Q2460.82 1420.78 2458.23 1424.06 Q2455.64 1427.34 2450.61 1428.15 Q2456.65 1429.45 2459.97 1433.58 Q2463.33 1437.67 2463.33 1443.83 Q2463.33 1451.93 2457.82 1456.35 Q2452.31 1460.76 2442.15 1460.76 L2420.43 1460.76 L2420.43 1400.28 Z" fill="#000000" fill-rule="evenodd" fill-opacity="1" /></svg>
