<?xml version="1.0" encoding="utf-8"?>
<svg xmlns="http://www.w3.org/2000/svg" xmlns:xlink="http://www.w3.org/1999/xlink" width="672" height="480" viewBox="0 0 2688 1920">
<defs>
  <clipPath id="clip220">
    <rect x="0" y="0" width="2688" height="1920"/>
  </clipPath>
</defs>
<path clip-path="url(#clip220)" d="
M0 1920 L2688 1920 L2688 0 L0 0  Z
  " fill="#ffffff" fill-rule="evenodd" fill-opacity="1"/>
<defs>
  <clipPath id="clip221">
    <rect x="537" y="0" width="1883" height="1883"/>
  </clipPath>
</defs>
<defs>
  <clipPath id="clip222">
    <rect x="141" y="47" width="2500" height="1755"/>
  </clipPath>
</defs>
<path clip-path="url(#clip222)" d="
M989.976 1325.4 L848.966 1466.41 L848.966 381.715 L1933.63 381.715 L1792.62 522.729 L1792.62 1325.4 L989.976 1325.4  Z
  " fill="#ffffff" fill-rule="evenodd" fill-opacity="1"/>
<polyline clip-path="url(#clip222)" style="stroke:#000000; stroke-linecap:butt; stroke-linejoin:round; stroke-width:2; stroke-opacity:0.1; fill:none" points="
  989.976,1349.4 989.976,498.624 
  "/>
<polyline clip-path="url(#clip222)" style="stroke:#000000; stroke-linecap:butt; stroke-linejoin:round; stroke-width:2; stroke-opacity:0.1; fill:none" points="
  989.976,498.624 848.966,349.158 
  "/>
<polyline clip-path="url(#clip222)" style="stroke:#000000; stroke-linecap:butt; stroke-linejoin:round; stroke-width:2; stroke-opacity:0.1; fill:none" points="
  1190.64,1349.4 1190.64,498.624 
  "/>
<polyline clip-path="url(#clip222)" style="stroke:#000000; stroke-linecap:butt; stroke-linejoin:round; stroke-width:2; stroke-opacity:0.1; fill:none" points="
  1190.64,498.624 1120.13,349.158 
  "/>
<polyline clip-path="url(#clip222)" style="stroke:#000000; stroke-linecap:butt; stroke-linejoin:round; stroke-width:2; stroke-opacity:0.1; fill:none" points="
  1391.3,1349.4 1391.3,498.624 
  "/>
<polyline clip-path="url(#clip222)" style="stroke:#000000; stroke-linecap:butt; stroke-linejoin:round; stroke-width:2; stroke-opacity:0.1; fill:none" points="
  1391.3,498.624 1391.3,349.158 
  "/>
<polyline clip-path="url(#clip222)" style="stroke:#000000; stroke-linecap:butt; stroke-linejoin:round; stroke-width:2; stroke-opacity:0.1; fill:none" points="
  1591.96,1349.4 1591.96,498.624 
  "/>
<polyline clip-path="url(#clip222)" style="stroke:#000000; stroke-linecap:butt; stroke-linejoin:round; stroke-width:2; stroke-opacity:0.1; fill:none" points="
  1591.96,498.624 1662.46,349.158 
  "/>
<polyline clip-path="url(#clip222)" style="stroke:#000000; stroke-linecap:butt; stroke-linejoin:round; stroke-width:2; stroke-opacity:0.1; fill:none" points="
  1792.62,1349.4 1792.62,498.624 
  "/>
<polyline clip-path="url(#clip222)" style="stroke:#000000; stroke-linecap:butt; stroke-linejoin:round; stroke-width:2; stroke-opacity:0.1; fill:none" points="
  1792.62,498.624 1933.63,349.158 
  "/>
<polyline clip-path="url(#clip220)" style="stroke:#000000; stroke-linecap:butt; stroke-linejoin:round; stroke-width:4; stroke-opacity:1; fill:none" points="
  965.91,1349.4 1816.69,1349.4 
  "/>
<polyline clip-path="url(#clip220)" style="stroke:#000000; stroke-linecap:butt; stroke-linejoin:round; stroke-width:4; stroke-opacity:1; fill:none" points="
  989.976,1349.4 989.976,1339.19 
  "/>
<polyline clip-path="url(#clip220)" style="stroke:#000000; stroke-linecap:butt; stroke-linejoin:round; stroke-width:4; stroke-opacity:1; fill:none" points="
  1190.64,1349.4 1190.64,1339.19 
  "/>
<polyline clip-path="url(#clip220)" style="stroke:#000000; stroke-linecap:butt; stroke-linejoin:round; stroke-width:4; stroke-opacity:1; fill:none" points="
  1391.3,1349.4 1391.3,1339.19 
  "/>
<polyline clip-path="url(#clip220)" style="stroke:#000000; stroke-linecap:butt; stroke-linejoin:round; stroke-width:4; stroke-opacity:1; fill:none" points="
  1591.96,1349.4 1591.96,1339.19 
  "/>
<polyline clip-path="url(#clip220)" style="stroke:#000000; stroke-linecap:butt; stroke-linejoin:round; stroke-width:4; stroke-opacity:1; fill:none" points="
  1792.62,1349.4 1792.62,1339.19 
  "/>
<path clip-path="url(#clip220)" d="M883.032 1382.11 L912.707 1382.11 L912.707 1386.04 L883.032 1386.04 L883.032 1382.11 Z" fill="#000000" fill-rule="evenodd" fill-opacity="1" /><path clip-path="url(#clip220)" d="M923.61 1395 L931.249 1395 L931.249 1368.64 L922.939 1370.3 L922.939 1366.04 L931.203 1364.38 L935.879 1364.38 L935.879 1395 L943.517 1395 L943.517 1398.94 L923.61 1398.94 L923.61 1395 Z" fill="#000000" fill-rule="evenodd" fill-opacity="1" /><path clip-path="url(#clip220)" d="M952.962 1393.06 L957.846 1393.06 L957.846 1398.94 L952.962 1398.94 L952.962 1393.06 Z" fill="#000000" fill-rule="evenodd" fill-opacity="1" /><path clip-path="url(#clip220)" d="M978.031 1367.45 Q974.42 1367.45 972.591 1371.02 Q970.786 1374.56 970.786 1381.69 Q970.786 1388.8 972.591 1392.36 Q974.42 1395.9 978.031 1395.9 Q981.665 1395.9 983.471 1392.36 Q985.3 1388.8 985.3 1381.69 Q985.3 1374.56 983.471 1371.02 Q981.665 1367.45 978.031 1367.45 M978.031 1363.75 Q983.841 1363.75 986.897 1368.36 Q989.976 1372.94 989.976 1381.69 Q989.976 1390.42 986.897 1395.02 Q983.841 1399.61 978.031 1399.61 Q972.221 1399.61 969.142 1395.02 Q966.087 1390.42 966.087 1381.69 Q966.087 1372.94 969.142 1368.36 Q972.221 1363.75 978.031 1363.75 Z" fill="#000000" fill-rule="evenodd" fill-opacity="1" /><path clip-path="url(#clip220)" d="M1084.69 1382.11 L1114.36 1382.11 L1114.36 1386.04 L1084.69 1386.04 L1084.69 1382.11 Z" fill="#000000" fill-rule="evenodd" fill-opacity="1" /><path clip-path="url(#clip220)" d="M1134.46 1367.45 Q1130.85 1367.45 1129.02 1371.02 Q1127.21 1374.56 1127.21 1381.69 Q1127.21 1388.8 1129.02 1392.36 Q1130.85 1395.9 1134.46 1395.9 Q1138.09 1395.9 1139.9 1392.36 Q1141.72 1388.8 1141.72 1381.69 Q1141.72 1374.56 1139.9 1371.02 Q1138.09 1367.45 1134.46 1367.45 M1134.46 1363.75 Q1140.27 1363.75 1143.32 1368.36 Q1146.4 1372.94 1146.4 1381.69 Q1146.4 1390.42 1143.32 1395.02 Q1140.27 1399.61 1134.46 1399.61 Q1128.65 1399.61 1125.57 1395.02 Q1122.51 1390.42 1122.51 1381.69 Q1122.51 1372.94 1125.57 1368.36 Q1128.65 1363.75 1134.46 1363.75 Z" fill="#000000" fill-rule="evenodd" fill-opacity="1" /><path clip-path="url(#clip220)" d="M1154.62 1393.06 L1159.5 1393.06 L1159.5 1398.94 L1154.62 1398.94 L1154.62 1393.06 Z" fill="#000000" fill-rule="evenodd" fill-opacity="1" /><path clip-path="url(#clip220)" d="M1169.73 1364.38 L1188.09 1364.38 L1188.09 1368.31 L1174.02 1368.31 L1174.02 1376.78 Q1175.03 1376.44 1176.05 1376.27 Q1177.07 1376.09 1178.09 1376.09 Q1183.88 1376.09 1187.26 1379.26 Q1190.64 1382.43 1190.64 1387.85 Q1190.64 1393.43 1187.16 1396.53 Q1183.69 1399.61 1177.37 1399.61 Q1175.2 1399.61 1172.93 1399.24 Q1170.68 1398.87 1168.28 1398.13 L1168.28 1393.43 Q1170.36 1394.56 1172.58 1395.12 Q1174.8 1395.67 1177.28 1395.67 Q1181.28 1395.67 1183.62 1393.57 Q1185.96 1391.46 1185.96 1387.85 Q1185.96 1384.24 1183.62 1382.13 Q1181.28 1380.02 1177.28 1380.02 Q1175.41 1380.02 1173.53 1380.44 Q1171.68 1380.86 1169.73 1381.74 L1169.73 1364.38 Z" fill="#000000" fill-rule="evenodd" fill-opacity="1" /><path clip-path="url(#clip220)" d="M1334.12 1367.45 Q1330.51 1367.45 1328.68 1371.02 Q1326.88 1374.56 1326.88 1381.69 Q1326.88 1388.8 1328.68 1392.36 Q1330.51 1395.9 1334.12 1395.9 Q1337.76 1395.9 1339.56 1392.36 Q1341.39 1388.8 1341.39 1381.69 Q1341.39 1374.56 1339.56 1371.02 Q1337.76 1367.45 1334.12 1367.45 M1334.12 1363.75 Q1339.93 1363.75 1342.99 1368.36 Q1346.07 1372.94 1346.07 1381.69 Q1346.07 1390.42 1342.99 1395.02 Q1339.93 1399.61 1334.12 1399.61 Q1328.31 1399.61 1325.23 1395.02 Q1322.18 1390.42 1322.18 1381.69 Q1322.18 1372.94 1325.23 1368.36 Q1328.31 1363.75 1334.12 1363.75 Z" fill="#000000" fill-rule="evenodd" fill-opacity="1" /><path clip-path="url(#clip220)" d="M1354.28 1393.06 L1359.17 1393.06 L1359.17 1398.94 L1354.28 1398.94 L1354.28 1393.06 Z" fill="#000000" fill-rule="evenodd" fill-opacity="1" /><path clip-path="url(#clip220)" d="M1379.35 1367.45 Q1375.74 1367.45 1373.91 1371.02 Q1372.11 1374.56 1372.11 1381.69 Q1372.11 1388.8 1373.91 1392.36 Q1375.74 1395.9 1379.35 1395.9 Q1382.99 1395.9 1384.79 1392.36 Q1386.62 1388.8 1386.62 1381.69 Q1386.62 1374.56 1384.79 1371.02 Q1382.99 1367.45 1379.35 1367.45 M1379.35 1363.75 Q1385.16 1363.75 1388.22 1368.36 Q1391.3 1372.94 1391.3 1381.69 Q1391.3 1390.42 1388.22 1395.02 Q1385.16 1399.61 1379.35 1399.61 Q1373.54 1399.61 1370.46 1395.02 Q1367.41 1390.42 1367.41 1381.69 Q1367.41 1372.94 1370.46 1368.36 Q1373.54 1363.75 1379.35 1363.75 Z" fill="#000000" fill-rule="evenodd" fill-opacity="1" /><path clip-path="url(#clip220)" d="M1535.78 1367.45 Q1532.17 1367.45 1530.34 1371.02 Q1528.53 1374.56 1528.53 1381.69 Q1528.53 1388.8 1530.34 1392.36 Q1532.17 1395.9 1535.78 1395.9 Q1539.41 1395.9 1541.22 1392.36 Q1543.05 1388.8 1543.05 1381.69 Q1543.05 1374.56 1541.22 1371.02 Q1539.41 1367.45 1535.78 1367.45 M1535.78 1363.75 Q1541.59 1363.75 1544.64 1368.36 Q1547.72 1372.94 1547.72 1381.69 Q1547.72 1390.42 1544.64 1395.02 Q1541.59 1399.61 1535.78 1399.61 Q1529.97 1399.61 1526.89 1395.02 Q1523.83 1390.42 1523.83 1381.69 Q1523.83 1372.94 1526.89 1368.36 Q1529.97 1363.75 1535.78 1363.75 Z" fill="#000000" fill-rule="evenodd" fill-opacity="1" /><path clip-path="url(#clip220)" d="M1555.94 1393.06 L1560.82 1393.06 L1560.82 1398.94 L1555.94 1398.94 L1555.94 1393.06 Z" fill="#000000" fill-rule="evenodd" fill-opacity="1" /><path clip-path="url(#clip220)" d="M1571.06 1364.38 L1589.41 1364.38 L1589.41 1368.31 L1575.34 1368.31 L1575.34 1376.78 Q1576.36 1376.44 1577.38 1376.27 Q1578.39 1376.09 1579.41 1376.09 Q1585.2 1376.09 1588.58 1379.26 Q1591.96 1382.43 1591.96 1387.85 Q1591.96 1393.43 1588.49 1396.53 Q1585.01 1399.61 1578.69 1399.61 Q1576.52 1399.61 1574.25 1399.24 Q1572.01 1398.87 1569.6 1398.13 L1569.6 1393.43 Q1571.68 1394.56 1573.9 1395.12 Q1576.13 1395.67 1578.6 1395.67 Q1582.61 1395.67 1584.94 1393.57 Q1587.28 1391.46 1587.28 1387.85 Q1587.28 1384.24 1584.94 1382.13 Q1582.61 1380.02 1578.6 1380.02 Q1576.73 1380.02 1574.85 1380.44 Q1573 1380.86 1571.06 1381.74 L1571.06 1364.38 Z" fill="#000000" fill-rule="evenodd" fill-opacity="1" /><path clip-path="url(#clip220)" d="M1726.25 1395 L1733.89 1395 L1733.89 1368.64 L1725.58 1370.3 L1725.58 1366.04 L1733.85 1364.38 L1738.52 1364.38 L1738.52 1395 L1746.16 1395 L1746.16 1398.94 L1726.25 1398.94 L1726.25 1395 Z" fill="#000000" fill-rule="evenodd" fill-opacity="1" /><path clip-path="url(#clip220)" d="M1755.61 1393.06 L1760.49 1393.06 L1760.49 1398.94 L1755.61 1398.94 L1755.61 1393.06 Z" fill="#000000" fill-rule="evenodd" fill-opacity="1" /><path clip-path="url(#clip220)" d="M1780.68 1367.45 Q1777.06 1367.45 1775.24 1371.02 Q1773.43 1374.56 1773.43 1381.69 Q1773.43 1388.8 1775.24 1392.36 Q1777.06 1395.9 1780.68 1395.9 Q1784.31 1395.9 1786.12 1392.36 Q1787.94 1388.8 1787.94 1381.69 Q1787.94 1374.56 1786.12 1371.02 Q1784.31 1367.45 1780.68 1367.45 M1780.68 1363.75 Q1786.49 1363.75 1789.54 1368.36 Q1792.62 1372.94 1792.62 1381.69 Q1792.62 1390.42 1789.54 1395.02 Q1786.49 1399.61 1780.68 1399.61 Q1774.87 1399.61 1771.79 1395.02 Q1768.73 1390.42 1768.73 1381.69 Q1768.73 1372.94 1771.79 1368.36 Q1774.87 1363.75 1780.68 1363.75 Z" fill="#000000" fill-rule="evenodd" fill-opacity="1" /><polyline clip-path="url(#clip222)" style="stroke:#000000; stroke-linecap:butt; stroke-linejoin:round; stroke-width:2; stroke-opacity:0.1; fill:none" points="
  1816.69,1325.37 965.91,1325.37 
  "/>
<polyline clip-path="url(#clip222)" style="stroke:#000000; stroke-linecap:butt; stroke-linejoin:round; stroke-width:2; stroke-opacity:0.1; fill:none" points="
  965.91,1325.37 816.444,1466.39 
  "/>
<polyline clip-path="url(#clip222)" style="stroke:#000000; stroke-linecap:butt; stroke-linejoin:round; stroke-width:2; stroke-opacity:0.1; fill:none" points="
  1816.69,1124.7 965.91,1124.7 
  "/>
<polyline clip-path="url(#clip222)" style="stroke:#000000; stroke-linecap:butt; stroke-linejoin:round; stroke-width:2; stroke-opacity:0.1; fill:none" points="
  965.91,1124.7 816.444,1195.22 
  "/>
<polyline clip-path="url(#clip222)" style="stroke:#000000; stroke-linecap:butt; stroke-linejoin:round; stroke-width:2; stroke-opacity:0.1; fill:none" points="
  1816.69,924.037 965.91,924.037 
  "/>
<polyline clip-path="url(#clip222)" style="stroke:#000000; stroke-linecap:butt; stroke-linejoin:round; stroke-width:2; stroke-opacity:0.1; fill:none" points="
  965.91,924.037 816.444,924.045 
  "/>
<polyline clip-path="url(#clip222)" style="stroke:#000000; stroke-linecap:butt; stroke-linejoin:round; stroke-width:2; stroke-opacity:0.1; fill:none" points="
  1816.69,723.369 965.91,723.369 
  "/>
<polyline clip-path="url(#clip222)" style="stroke:#000000; stroke-linecap:butt; stroke-linejoin:round; stroke-width:2; stroke-opacity:0.1; fill:none" points="
  965.91,723.369 816.444,652.871 
  "/>
<polyline clip-path="url(#clip222)" style="stroke:#000000; stroke-linecap:butt; stroke-linejoin:round; stroke-width:2; stroke-opacity:0.1; fill:none" points="
  1816.69,522.702 965.91,522.702 
  "/>
<polyline clip-path="url(#clip222)" style="stroke:#000000; stroke-linecap:butt; stroke-linejoin:round; stroke-width:2; stroke-opacity:0.1; fill:none" points="
  965.91,522.702 816.444,381.697 
  "/>
<polyline clip-path="url(#clip220)" style="stroke:#000000; stroke-linecap:butt; stroke-linejoin:round; stroke-width:4; stroke-opacity:1; fill:none" points="
  1816.69,1349.4 1816.69,498.624 
  "/>
<polyline clip-path="url(#clip220)" style="stroke:#000000; stroke-linecap:butt; stroke-linejoin:round; stroke-width:4; stroke-opacity:1; fill:none" points="
  1816.69,1325.37 1806.48,1325.37 
  "/>
<polyline clip-path="url(#clip220)" style="stroke:#000000; stroke-linecap:butt; stroke-linejoin:round; stroke-width:4; stroke-opacity:1; fill:none" points="
  1816.69,1124.7 1806.48,1124.7 
  "/>
<polyline clip-path="url(#clip220)" style="stroke:#000000; stroke-linecap:butt; stroke-linejoin:round; stroke-width:4; stroke-opacity:1; fill:none" points="
  1816.69,924.037 1806.48,924.037 
  "/>
<polyline clip-path="url(#clip220)" style="stroke:#000000; stroke-linecap:butt; stroke-linejoin:round; stroke-width:4; stroke-opacity:1; fill:none" points="
  1816.69,723.369 1806.48,723.369 
  "/>
<polyline clip-path="url(#clip220)" style="stroke:#000000; stroke-linecap:butt; stroke-linejoin:round; stroke-width:4; stroke-opacity:1; fill:none" points="
  1816.69,522.702 1806.48,522.702 
  "/>
<path clip-path="url(#clip220)" d="M1848.94 1325.82 L1878.62 1325.82 L1878.62 1329.76 L1848.94 1329.76 L1848.94 1325.82 Z" fill="#000000" fill-rule="evenodd" fill-opacity="1" /><path clip-path="url(#clip220)" d="M1889.52 1338.72 L1897.16 1338.72 L1897.16 1312.35 L1888.85 1314.02 L1888.85 1309.76 L1897.11 1308.09 L1901.79 1308.09 L1901.79 1338.72 L1909.43 1338.72 L1909.43 1342.65 L1889.52 1342.65 L1889.52 1338.72 Z" fill="#000000" fill-rule="evenodd" fill-opacity="1" /><path clip-path="url(#clip220)" d="M1918.87 1336.77 L1923.76 1336.77 L1923.76 1342.65 L1918.87 1342.65 L1918.87 1336.77 Z" fill="#000000" fill-rule="evenodd" fill-opacity="1" /><path clip-path="url(#clip220)" d="M1943.94 1311.17 Q1940.33 1311.17 1938.5 1314.73 Q1936.7 1318.28 1936.7 1325.41 Q1936.7 1332.51 1938.5 1336.08 Q1940.33 1339.62 1943.94 1339.62 Q1947.58 1339.62 1949.38 1336.08 Q1951.21 1332.51 1951.21 1325.41 Q1951.21 1318.28 1949.38 1314.73 Q1947.58 1311.17 1943.94 1311.17 M1943.94 1307.47 Q1949.75 1307.47 1952.81 1312.07 Q1955.89 1316.66 1955.89 1325.41 Q1955.89 1334.13 1952.81 1338.74 Q1949.75 1343.32 1943.94 1343.32 Q1938.13 1343.32 1935.05 1338.74 Q1932 1334.13 1932 1325.41 Q1932 1316.66 1935.05 1312.07 Q1938.13 1307.47 1943.94 1307.47 Z" fill="#000000" fill-rule="evenodd" fill-opacity="1" /><path clip-path="url(#clip220)" d="M1848.94 1125.16 L1878.62 1125.16 L1878.62 1129.09 L1848.94 1129.09 L1848.94 1125.16 Z" fill="#000000" fill-rule="evenodd" fill-opacity="1" /><path clip-path="url(#clip220)" d="M1898.71 1110.5 Q1895.1 1110.5 1893.27 1114.07 Q1891.46 1117.61 1891.46 1124.74 Q1891.46 1131.85 1893.27 1135.41 Q1895.1 1138.95 1898.71 1138.95 Q1902.34 1138.95 1904.15 1135.41 Q1905.98 1131.85 1905.98 1124.74 Q1905.98 1117.61 1904.15 1114.07 Q1902.34 1110.5 1898.71 1110.5 M1898.71 1106.8 Q1904.52 1106.8 1907.58 1111.41 Q1910.65 1115.99 1910.65 1124.74 Q1910.65 1133.47 1907.58 1138.07 Q1904.52 1142.66 1898.71 1142.66 Q1892.9 1142.66 1889.82 1138.07 Q1886.77 1133.47 1886.77 1124.74 Q1886.77 1115.99 1889.82 1111.41 Q1892.9 1106.8 1898.71 1106.8 Z" fill="#000000" fill-rule="evenodd" fill-opacity="1" /><path clip-path="url(#clip220)" d="M1918.87 1136.1 L1923.76 1136.1 L1923.76 1141.98 L1918.87 1141.98 L1918.87 1136.1 Z" fill="#000000" fill-rule="evenodd" fill-opacity="1" /><path clip-path="url(#clip220)" d="M1933.99 1107.42 L1952.34 1107.42 L1952.34 1111.36 L1938.27 1111.36 L1938.27 1119.83 Q1939.29 1119.48 1940.31 1119.32 Q1941.33 1119.14 1942.34 1119.14 Q1948.13 1119.14 1951.51 1122.31 Q1954.89 1125.48 1954.89 1130.9 Q1954.89 1136.47 1951.42 1139.58 Q1947.95 1142.66 1941.63 1142.66 Q1939.45 1142.66 1937.18 1142.28 Q1934.94 1141.91 1932.53 1141.17 L1932.53 1136.47 Q1934.61 1137.61 1936.83 1138.16 Q1939.06 1138.72 1941.53 1138.72 Q1945.54 1138.72 1947.88 1136.61 Q1950.21 1134.51 1950.21 1130.9 Q1950.21 1127.29 1947.88 1125.18 Q1945.54 1123.07 1941.53 1123.07 Q1939.66 1123.07 1937.78 1123.49 Q1935.93 1123.91 1933.99 1124.79 L1933.99 1107.42 Z" fill="#000000" fill-rule="evenodd" fill-opacity="1" /><path clip-path="url(#clip220)" d="M1860.89 909.835 Q1857.28 909.835 1855.45 913.4 Q1853.64 916.942 1853.64 924.071 Q1853.64 931.178 1855.45 934.743 Q1857.28 938.284 1860.89 938.284 Q1864.52 938.284 1866.33 934.743 Q1868.15 931.178 1868.15 924.071 Q1868.15 916.942 1866.33 913.4 Q1864.52 909.835 1860.89 909.835 M1860.89 906.132 Q1866.7 906.132 1869.75 910.738 Q1872.83 915.321 1872.83 924.071 Q1872.83 932.798 1869.75 937.405 Q1866.7 941.988 1860.89 941.988 Q1855.08 941.988 1852 937.405 Q1848.94 932.798 1848.94 924.071 Q1848.94 915.321 1852 910.738 Q1855.08 906.132 1860.89 906.132 Z" fill="#000000" fill-rule="evenodd" fill-opacity="1" /><path clip-path="url(#clip220)" d="M1881.05 935.437 L1885.93 935.437 L1885.93 941.317 L1881.05 941.317 L1881.05 935.437 Z" fill="#000000" fill-rule="evenodd" fill-opacity="1" /><path clip-path="url(#clip220)" d="M1906.12 909.835 Q1902.51 909.835 1900.68 913.4 Q1898.87 916.942 1898.87 924.071 Q1898.87 931.178 1900.68 934.743 Q1902.51 938.284 1906.12 938.284 Q1909.75 938.284 1911.56 934.743 Q1913.39 931.178 1913.39 924.071 Q1913.39 916.942 1911.56 913.4 Q1909.75 909.835 1906.12 909.835 M1906.12 906.132 Q1911.93 906.132 1914.98 910.738 Q1918.06 915.321 1918.06 924.071 Q1918.06 932.798 1914.98 937.405 Q1911.93 941.988 1906.12 941.988 Q1900.31 941.988 1897.23 937.405 Q1894.17 932.798 1894.17 924.071 Q1894.17 915.321 1897.23 910.738 Q1900.31 906.132 1906.12 906.132 Z" fill="#000000" fill-rule="evenodd" fill-opacity="1" /><path clip-path="url(#clip220)" d="M1860.89 709.168 Q1857.28 709.168 1855.45 712.733 Q1853.64 716.275 1853.64 723.404 Q1853.64 730.511 1855.45 734.075 Q1857.28 737.617 1860.89 737.617 Q1864.52 737.617 1866.33 734.075 Q1868.15 730.511 1868.15 723.404 Q1868.15 716.275 1866.33 712.733 Q1864.52 709.168 1860.89 709.168 M1860.89 705.464 Q1866.7 705.464 1869.75 710.071 Q1872.83 714.654 1872.83 723.404 Q1872.83 732.131 1869.75 736.737 Q1866.7 741.321 1860.89 741.321 Q1855.08 741.321 1852 736.737 Q1848.94 732.131 1848.94 723.404 Q1848.94 714.654 1852 710.071 Q1855.08 705.464 1860.89 705.464 Z" fill="#000000" fill-rule="evenodd" fill-opacity="1" /><path clip-path="url(#clip220)" d="M1881.05 734.77 L1885.93 734.77 L1885.93 740.649 L1881.05 740.649 L1881.05 734.77 Z" fill="#000000" fill-rule="evenodd" fill-opacity="1" /><path clip-path="url(#clip220)" d="M1896.16 706.089 L1914.52 706.089 L1914.52 710.025 L1900.45 710.025 L1900.45 718.497 Q1901.46 718.15 1902.48 717.987 Q1903.5 717.802 1904.52 717.802 Q1910.31 717.802 1913.69 720.974 Q1917.07 724.145 1917.07 729.562 Q1917.07 735.14 1913.59 738.242 Q1910.12 741.321 1903.8 741.321 Q1901.63 741.321 1899.36 740.95 Q1897.11 740.58 1894.71 739.839 L1894.71 735.14 Q1896.79 736.274 1899.01 736.83 Q1901.23 737.386 1903.71 737.386 Q1907.71 737.386 1910.05 735.279 Q1912.39 733.173 1912.39 729.562 Q1912.39 725.95 1910.05 723.844 Q1907.71 721.737 1903.71 721.737 Q1901.84 721.737 1899.96 722.154 Q1898.11 722.571 1896.16 723.45 L1896.16 706.089 Z" fill="#000000" fill-rule="evenodd" fill-opacity="1" /><path clip-path="url(#clip220)" d="M1849.61 536.047 L1857.25 536.047 L1857.25 509.681 L1848.94 511.348 L1848.94 507.089 L1857.21 505.422 L1861.88 505.422 L1861.88 536.047 L1869.52 536.047 L1869.52 539.982 L1849.61 539.982 L1849.61 536.047 Z" fill="#000000" fill-rule="evenodd" fill-opacity="1" /><path clip-path="url(#clip220)" d="M1878.96 534.103 L1883.85 534.103 L1883.85 539.982 L1878.96 539.982 L1878.96 534.103 Z" fill="#000000" fill-rule="evenodd" fill-opacity="1" /><path clip-path="url(#clip220)" d="M1904.03 508.501 Q1900.42 508.501 1898.59 512.066 Q1896.79 515.607 1896.79 522.737 Q1896.79 529.843 1898.59 533.408 Q1900.42 536.95 1904.03 536.95 Q1907.67 536.95 1909.47 533.408 Q1911.3 529.843 1911.3 522.737 Q1911.3 515.607 1909.47 512.066 Q1907.67 508.501 1904.03 508.501 M1904.03 504.797 Q1909.84 504.797 1912.9 509.404 Q1915.98 513.987 1915.98 522.737 Q1915.98 531.464 1912.9 536.07 Q1909.84 540.653 1904.03 540.653 Q1898.22 540.653 1895.15 536.07 Q1892.09 531.464 1892.09 522.737 Q1892.09 513.987 1895.15 509.404 Q1898.22 504.797 1904.03 504.797 Z" fill="#000000" fill-rule="evenodd" fill-opacity="1" /><polyline clip-path="url(#clip222)" style="stroke:#000000; stroke-linecap:butt; stroke-linejoin:round; stroke-width:2; stroke-opacity:0.1; fill:none" points="
  962.756,1352.55 962.756,495.47 
  "/>
<polyline clip-path="url(#clip222)" style="stroke:#000000; stroke-linecap:butt; stroke-linejoin:round; stroke-width:2; stroke-opacity:0.1; fill:none" points="
  962.756,495.47 1819.84,495.47 
  "/>
<polyline clip-path="url(#clip222)" style="stroke:#000000; stroke-linecap:butt; stroke-linejoin:round; stroke-width:2; stroke-opacity:0.1; fill:none" points="
  932.696,1382.61 932.696,465.41 
  "/>
<polyline clip-path="url(#clip222)" style="stroke:#000000; stroke-linecap:butt; stroke-linejoin:round; stroke-width:2; stroke-opacity:0.1; fill:none" points="
  932.696,465.41 1849.9,465.41 
  "/>
<polyline clip-path="url(#clip222)" style="stroke:#000000; stroke-linecap:butt; stroke-linejoin:round; stroke-width:2; stroke-opacity:0.1; fill:none" points="
  898.101,1417.21 898.101,430.815 
  "/>
<polyline clip-path="url(#clip222)" style="stroke:#000000; stroke-linecap:butt; stroke-linejoin:round; stroke-width:2; stroke-opacity:0.1; fill:none" points="
  898.101,430.815 1884.49,430.815 
  "/>
<polyline clip-path="url(#clip222)" style="stroke:#000000; stroke-linecap:butt; stroke-linejoin:round; stroke-width:2; stroke-opacity:0.1; fill:none" points="
  857.86,1457.45 857.86,390.574 
  "/>
<polyline clip-path="url(#clip222)" style="stroke:#000000; stroke-linecap:butt; stroke-linejoin:round; stroke-width:2; stroke-opacity:0.1; fill:none" points="
  857.86,390.574 1924.74,390.574 
  "/>
<polyline clip-path="url(#clip220)" style="stroke:#000000; stroke-linecap:butt; stroke-linejoin:round; stroke-width:4; stroke-opacity:1; fill:none" points="
  965.91,1349.4 816.444,1498.87 
  "/>
<polyline clip-path="url(#clip220)" style="stroke:#000000; stroke-linecap:butt; stroke-linejoin:round; stroke-width:4; stroke-opacity:1; fill:none" points="
  962.756,1352.55 962.756,1342.27 
  "/>
<polyline clip-path="url(#clip220)" style="stroke:#000000; stroke-linecap:butt; stroke-linejoin:round; stroke-width:4; stroke-opacity:1; fill:none" points="
  932.696,1382.61 932.696,1371.61 
  "/>
<polyline clip-path="url(#clip220)" style="stroke:#000000; stroke-linecap:butt; stroke-linejoin:round; stroke-width:4; stroke-opacity:1; fill:none" points="
  898.101,1417.21 898.101,1405.37 
  "/>
<polyline clip-path="url(#clip220)" style="stroke:#000000; stroke-linecap:butt; stroke-linejoin:round; stroke-width:4; stroke-opacity:1; fill:none" points="
  857.86,1457.45 857.86,1444.65 
  "/>
<path clip-path="url(#clip220)" d="M918.556 1338.35 Q914.945 1338.35 913.116 1341.92 Q911.31 1345.46 911.31 1352.59 Q911.31 1359.69 913.116 1363.26 Q914.945 1366.8 918.556 1366.8 Q922.19 1366.8 923.995 1363.26 Q925.824 1359.69 925.824 1352.59 Q925.824 1345.46 923.995 1341.92 Q922.19 1338.35 918.556 1338.35 M918.556 1334.65 Q924.366 1334.65 927.421 1339.25 Q930.5 1343.84 930.5 1352.59 Q930.5 1361.31 927.421 1365.92 Q924.366 1370.5 918.556 1370.5 Q912.745 1370.5 909.667 1365.92 Q906.611 1361.31 906.611 1352.59 Q906.611 1343.84 909.667 1339.25 Q912.745 1334.65 918.556 1334.65 Z" fill="#000000" fill-rule="evenodd" fill-opacity="1" /><path clip-path="url(#clip220)" d="M879.537 1365.33 L897.894 1365.33 L897.894 1369.27 L883.82 1369.27 L883.82 1377.74 Q884.838 1377.39 885.857 1377.23 Q886.875 1377.05 887.894 1377.05 Q893.681 1377.05 897.06 1380.22 Q900.44 1383.39 900.44 1388.81 Q900.44 1394.38 896.968 1397.49 Q893.496 1400.56 887.176 1400.56 Q885 1400.56 882.732 1400.19 Q880.486 1399.82 878.079 1399.08 L878.079 1394.38 Q880.162 1395.52 882.385 1396.07 Q884.607 1396.63 887.084 1396.63 Q891.088 1396.63 893.426 1394.52 Q895.764 1392.42 895.764 1388.81 Q895.764 1385.19 893.426 1383.09 Q891.088 1380.98 887.084 1380.98 Q885.209 1380.98 883.334 1381.4 Q881.482 1381.81 879.537 1382.69 L879.537 1365.33 Z" fill="#000000" fill-rule="evenodd" fill-opacity="1" /><path clip-path="url(#clip220)" d="M814.549 1430.55 L822.187 1430.55 L822.187 1404.19 L813.877 1405.85 L813.877 1401.6 L822.141 1399.93 L826.817 1399.93 L826.817 1430.55 L834.456 1430.55 L834.456 1434.49 L814.549 1434.49 L814.549 1430.55 Z" fill="#000000" fill-rule="evenodd" fill-opacity="1" /><path clip-path="url(#clip220)" d="M853.9 1403.01 Q850.289 1403.01 848.461 1406.57 Q846.655 1410.11 846.655 1417.24 Q846.655 1424.35 848.461 1427.91 Q850.289 1431.46 853.9 1431.46 Q857.535 1431.46 859.34 1427.91 Q861.169 1424.35 861.169 1417.24 Q861.169 1410.11 859.34 1406.57 Q857.535 1403.01 853.9 1403.01 M853.9 1399.3 Q859.71 1399.3 862.766 1403.91 Q865.845 1408.49 865.845 1417.24 Q865.845 1425.97 862.766 1430.58 Q859.71 1435.16 853.9 1435.16 Q848.09 1435.16 845.011 1430.58 Q841.956 1425.97 841.956 1417.24 Q841.956 1408.49 845.011 1403.91 Q848.09 1399.3 853.9 1399.3 Z" fill="#000000" fill-rule="evenodd" fill-opacity="1" /><path clip-path="url(#clip220)" d="M775.303 1470.79 L782.942 1470.79 L782.942 1444.43 L774.632 1446.1 L774.632 1441.84 L782.896 1440.17 L787.572 1440.17 L787.572 1470.79 L795.211 1470.79 L795.211 1474.73 L775.303 1474.73 L775.303 1470.79 Z" fill="#000000" fill-rule="evenodd" fill-opacity="1" /><path clip-path="url(#clip220)" d="M804.701 1440.17 L823.058 1440.17 L823.058 1444.1 L808.984 1444.1 L808.984 1452.58 Q810.002 1452.23 811.021 1452.07 Q812.039 1451.88 813.058 1451.88 Q818.845 1451.88 822.224 1455.05 Q825.604 1458.22 825.604 1463.64 Q825.604 1469.22 822.132 1472.32 Q818.66 1475.4 812.34 1475.4 Q810.164 1475.4 807.896 1475.03 Q805.65 1474.66 803.243 1473.92 L803.243 1469.22 Q805.326 1470.35 807.549 1470.91 Q809.771 1471.47 812.248 1471.47 Q816.252 1471.47 818.59 1469.36 Q820.928 1467.25 820.928 1463.64 Q820.928 1460.03 818.59 1457.92 Q816.252 1455.82 812.248 1455.82 Q810.373 1455.82 808.498 1456.23 Q806.646 1456.65 804.701 1457.53 L804.701 1440.17 Z" fill="#000000" fill-rule="evenodd" fill-opacity="1" /><polyline clip-path="url(#clip222)" style="stroke:#009af9; stroke-linecap:butt; stroke-linejoin:round; stroke-width:4; stroke-opacity:1; fill:none" points="
  1391.3,519.727 1429.58,521.039 1467.62,525.972 1505.07,534.49 1541.59,546.527 1576.85,561.982 1610.53,580.726 1642.33,602.599 1671.96,627.412 1699.14,654.95 
  1723.63,684.973 1745.19,717.218 1763.64,751.4 1778.78,787.218 1790.49,824.355 1798.64,862.481 1803.16,901.256 1803.99,940.334 1801.12,979.365 1794.56,1018 
  1784.37,1055.89 1770.62,1092.69 1753.43,1128.07 1732.95,1161.71 1709.34,1193.3 1682.82,1222.56 1653.62,1249.21 1621.99,1273.01 1588.2,1293.74 1552.56,1311.21 
  1515.38,1325.24 1476.99,1335.71 1437.73,1342.51 1397.95,1345.57 1358.01,1344.86 1318.27,1340.36 1279.07,1332.12 1240.79,1320.19 1203.75,1304.67 1168.3,1285.7 
  1134.76,1263.43 1103.44,1238.05 1074.62,1209.79 1048.56,1178.89 1025.51,1145.62 1005.69,1110.28 989.275,1073.17 976.427,1034.62 967.269,994.98 961.893,954.596 
  960.358,913.832 962.688,873.05 968.871,832.619 978.864,792.9 992.585,754.253 1009.92,717.028 1030.73,681.561 1054.83,648.176 1082.02,617.179 1112.05,588.853 
  1144.67,563.461 1179.6,541.237 1216.51,522.39 1255.1,507.098 1295.02,495.508 1335.9,487.734 1377.4,483.856 1419.13,483.919 1460.72,487.933 1501.81,495.874 
  1542.01,507.68 1580.97,523.256 1618.33,542.472 1653.76,565.167 1686.93,591.146 1717.53,620.184 1745.29,652.03 1769.95,686.406 1791.28,723.009 1809.07,761.518 
  1823.17,801.592 1833.42,842.877 1839.73,885.004 1842.04,927.598 1840.3,970.278 1834.53,1012.66 1824.76,1054.37 1811.08,1095.02 1793.59,1134.25 1772.43,1171.7 
  1747.8,1207.04 1719.9,1239.93 1688.96,1270.08 1655.27,1297.2 1619.12,1321.05 1580.81,1341.41 1540.7,1358.07 1499.13,1370.89 1456.48,1379.73 1413.12,1384.5 
  1369.44,1385.16 1325.84,1381.67 1282.7,1374.07 1240.41,1362.4 1199.35,1346.77 1159.9,1327.29 1122.42,1304.14 1087.24,1277.51 1054.69,1247.63 1025.07,1214.76 
  998.651,1179.18 975.683,1141.21 956.38,1101.19 940.926,1059.45 929.471,1016.38 922.13,972.356 918.979,927.77 920.06,883.02 925.375,838.509 934.889,794.636 
  948.529,751.797 966.184,710.379 987.707,670.758 1012.92,633.295 1041.6,598.333 1073.5,566.193 1108.36,537.17 1145.85,511.536 1185.66,489.53 1227.44,471.36 
  1270.81,457.201 1315.39,447.191 1360.78,441.433 1406.59,439.992 1452.39,442.892 1497.78,450.121 1542.35,461.627 1585.7,477.319 1627.43,497.07 1667.16,520.713 
  1704.54,548.049 1739.22,578.843 1770.88,612.83 1799.23,649.713 1824,689.172 1844.96,730.858 1861.91,774.406 1874.68,819.43 1883.16,865.53 1887.24,912.296 
  1886.88,959.31 1882.08,1006.15 1872.85,1052.4 1859.26,1097.63 1841.44,1141.45 1819.52,1183.45 1793.68,1223.25 1764.15,1260.49 1731.19,1294.82 1695.07,1325.92 
  1656.11,1353.52 1614.65,1377.34 1571.05,1397.17 1525.71,1412.81 1479.02,1424.11 1431.39,1430.95 1383.26,1433.27 1335.05,1431.02 1287.19,1424.21 1240.11,1412.89 
  1194.25,1397.14 1150.01,1377.09 1107.79,1352.92 1067.99,1324.81 1030.97,1293.02 997.061,1257.82 966.587,1219.5 939.831,1178.41 917.043,1134.9 898.44,1089.37 
  884.204,1042.2 874.477,993.817 869.358,944.655 868.911,895.15 873.153,845.745 882.061,796.884 895.571,749.007 913.576,702.546 935.93,657.925 962.445,615.548 
  992.898,575.804 1027.03,539.058 1064.54,505.649 1105.11,475.888 1148.38,450.054 1193.97,428.393 1241.49,411.111 1290.51,398.378 1340.59,390.324 1391.3,387.037 
  
  "/>
<path clip-path="url(#clip220)" d="
M2227.37 209.375 L2557.46 209.375 L2557.46 105.695 L2227.37 105.695  Z
  " fill="#ffffff" fill-rule="evenodd" fill-opacity="1"/>
<polyline clip-path="url(#clip220)" style="stroke:#000000; stroke-linecap:butt; stroke-linejoin:round; stroke-width:4; stroke-opacity:1; fill:none" points="
  2227.37,209.375 2557.46,209.375 2557.46,105.695 2227.37,105.695 2227.37,209.375 
  "/>
<polyline clip-path="url(#clip220)" style="stroke:#009af9; stroke-linecap:butt; stroke-linejoin:round; stroke-width:4; stroke-opacity:1; fill:none" points="
  2255.14,157.535 2421.73,157.535 
  "/>
<path clip-path="url(#clip220)" d="M2463.34 177.223 Q2461.53 181.852 2459.82 183.264 Q2458.11 184.676 2455.24 184.676 L2451.83 184.676 L2451.83 181.112 L2454.33 181.112 Q2456.09 181.112 2457.07 180.278 Q2458.04 179.445 2459.22 176.343 L2459.98 174.399 L2449.5 148.889 L2454.01 148.889 L2462.11 169.167 L2470.21 148.889 L2474.73 148.889 L2463.34 177.223 Z" fill="#000000" fill-rule="evenodd" fill-opacity="1" /><path clip-path="url(#clip220)" d="M2482.02 170.88 L2489.66 170.88 L2489.66 144.515 L2481.35 146.181 L2481.35 141.922 L2489.61 140.255 L2494.29 140.255 L2494.29 170.88 L2501.93 170.88 L2501.93 174.815 L2482.02 174.815 L2482.02 170.88 Z" fill="#000000" fill-rule="evenodd" fill-opacity="1" /></svg>
