<?xml version="1.0" encoding="utf-8"?>
<svg xmlns="http://www.w3.org/2000/svg" xmlns:xlink="http://www.w3.org/1999/xlink" width="672" height="480" viewBox="0 0 2688 1920">
<defs>
  <clipPath id="clip090">
    <rect x="0" y="0" width="2688" height="1920"/>
  </clipPath>
</defs>
<path clip-path="url(#clip090)" d="
M0 1920 L2688 1920 L2688 0 L0 0  Z
  " fill="#ffffff" fill-rule="evenodd" fill-opacity="1"/>
<defs>
  <clipPath id="clip091">
    <rect x="537" y="0" width="1883" height="1883"/>
  </clipPath>
</defs>
<defs>
  <clipPath id="clip092">
    <rect x="150" y="47" width="2491" height="1755"/>
  </clipPath>
</defs>
<path clip-path="url(#clip092)" d="
M-115.655 1395.03 L-197.034 565.136 L243.035 275.638 L867.46 426.5 L800.209 1204.8 L509.034 1719.77 L-115.655 1395.03  Z
  " fill="#ffffff" fill-rule="evenodd" fill-opacity="1"/>
<polyline clip-path="url(#clip092)" style="stroke:#000000; stroke-linecap:butt; stroke-linejoin:round; stroke-width:2; stroke-opacity:0.1; fill:none" points="
  809.333,1449.19 1309.43,1012.93 
  "/>
<polyline clip-path="url(#clip092)" style="stroke:#000000; stroke-linecap:butt; stroke-linejoin:round; stroke-width:2; stroke-opacity:0.1; fill:none" points="
  1309.43,1012.93 1297.63,248.889 
  "/>
<polyline clip-path="url(#clip092)" style="stroke:#000000; stroke-linecap:butt; stroke-linejoin:round; stroke-width:2; stroke-opacity:0.1; fill:none" points="
  952.152,1507.06 1435.72,1051.62 
  "/>
<polyline clip-path="url(#clip092)" style="stroke:#000000; stroke-linecap:butt; stroke-linejoin:round; stroke-width:2; stroke-opacity:0.1; fill:none" points="
  1435.72,1051.62 1441.34,275.954 
  "/>
<polyline clip-path="url(#clip092)" style="stroke:#000000; stroke-linecap:butt; stroke-linejoin:round; stroke-width:2; stroke-opacity:0.1; fill:none" points="
  1101.99,1567.78 1567.04,1091.84 
  "/>
<polyline clip-path="url(#clip092)" style="stroke:#000000; stroke-linecap:butt; stroke-linejoin:round; stroke-width:2; stroke-opacity:0.1; fill:none" points="
  1567.04,1091.84 1591.6,304.252 
  "/>
<polyline clip-path="url(#clip092)" style="stroke:#000000; stroke-linecap:butt; stroke-linejoin:round; stroke-width:2; stroke-opacity:0.1; fill:none" points="
  1259.37,1631.56 1703.71,1133.7 
  "/>
<polyline clip-path="url(#clip092)" style="stroke:#000000; stroke-linecap:butt; stroke-linejoin:round; stroke-width:2; stroke-opacity:0.1; fill:none" points="
  1703.71,1133.7 1748.87,333.872 
  "/>
<polyline clip-path="url(#clip092)" style="stroke:#000000; stroke-linecap:butt; stroke-linejoin:round; stroke-width:2; stroke-opacity:0.1; fill:none" points="
  1424.88,1698.62 1846.06,1177.3 
  "/>
<polyline clip-path="url(#clip092)" style="stroke:#000000; stroke-linecap:butt; stroke-linejoin:round; stroke-width:2; stroke-opacity:0.1; fill:none" points="
  1846.06,1177.3 1913.66,364.906 
  "/>
<polyline clip-path="url(#clip090)" style="stroke:#000000; stroke-linecap:butt; stroke-linejoin:round; stroke-width:4; stroke-opacity:1; fill:none" points="
  745.414,1423.29 1594.87,1767.51 
  "/>
<polyline clip-path="url(#clip090)" style="stroke:#000000; stroke-linecap:butt; stroke-linejoin:round; stroke-width:4; stroke-opacity:1; fill:none" points="
  809.333,1449.19 816.638,1442.82 
  "/>
<polyline clip-path="url(#clip090)" style="stroke:#000000; stroke-linecap:butt; stroke-linejoin:round; stroke-width:4; stroke-opacity:1; fill:none" points="
  952.152,1507.06 959.246,1500.38 
  "/>
<polyline clip-path="url(#clip090)" style="stroke:#000000; stroke-linecap:butt; stroke-linejoin:round; stroke-width:4; stroke-opacity:1; fill:none" points="
  1101.99,1567.78 1108.84,1560.77 
  "/>
<polyline clip-path="url(#clip090)" style="stroke:#000000; stroke-linecap:butt; stroke-linejoin:round; stroke-width:4; stroke-opacity:1; fill:none" points="
  1259.37,1631.56 1265.95,1624.19 
  "/>
<polyline clip-path="url(#clip090)" style="stroke:#000000; stroke-linecap:butt; stroke-linejoin:round; stroke-width:4; stroke-opacity:1; fill:none" points="
  1424.88,1698.62 1431.14,1690.87 
  "/>
<path clip-path="url(#clip090)" d="M737.279 1463.61 Q733.668 1463.61 731.839 1467.17 Q730.034 1470.72 730.034 1477.84 Q730.034 1484.95 731.839 1488.52 Q733.668 1492.06 737.279 1492.06 Q740.913 1492.06 742.719 1488.52 Q744.548 1484.95 744.548 1477.84 Q744.548 1470.72 742.719 1467.17 Q740.913 1463.61 737.279 1463.61 M737.279 1459.91 Q743.089 1459.91 746.145 1464.51 Q749.223 1469.09 749.223 1477.84 Q749.223 1486.57 746.145 1491.18 Q743.089 1495.76 737.279 1495.76 Q731.469 1495.76 728.39 1491.18 Q725.335 1486.57 725.335 1477.84 Q725.335 1469.09 728.39 1464.51 Q731.469 1459.91 737.279 1459.91 Z" fill="#000000" fill-rule="evenodd" fill-opacity="1" /><path clip-path="url(#clip090)" d="M757.441 1489.21 L762.325 1489.21 L762.325 1495.09 L757.441 1495.09 L757.441 1489.21 Z" fill="#000000" fill-rule="evenodd" fill-opacity="1" /><path clip-path="url(#clip090)" d="M782.51 1463.61 Q778.899 1463.61 777.071 1467.17 Q775.265 1470.72 775.265 1477.84 Q775.265 1484.95 777.071 1488.52 Q778.899 1492.06 782.51 1492.06 Q786.145 1492.06 787.95 1488.52 Q789.779 1484.95 789.779 1477.84 Q789.779 1470.72 787.95 1467.17 Q786.145 1463.61 782.51 1463.61 M782.51 1459.91 Q788.321 1459.91 791.376 1464.51 Q794.455 1469.09 794.455 1477.84 Q794.455 1486.57 791.376 1491.18 Q788.321 1495.76 782.51 1495.76 Q776.7 1495.76 773.622 1491.18 Q770.566 1486.57 770.566 1477.84 Q770.566 1469.09 773.622 1464.51 Q776.7 1459.91 782.51 1459.91 Z" fill="#000000" fill-rule="evenodd" fill-opacity="1" /><path clip-path="url(#clip090)" d="M881.094 1521.48 Q877.483 1521.48 875.655 1525.05 Q873.849 1528.59 873.849 1535.72 Q873.849 1542.83 875.655 1546.39 Q877.483 1549.93 881.094 1549.93 Q884.729 1549.93 886.534 1546.39 Q888.363 1542.83 888.363 1535.72 Q888.363 1528.59 886.534 1525.05 Q884.729 1521.48 881.094 1521.48 M881.094 1517.78 Q886.904 1517.78 889.96 1522.39 Q893.039 1526.97 893.039 1535.72 Q893.039 1544.45 889.96 1549.05 Q886.904 1553.64 881.094 1553.64 Q875.284 1553.64 872.205 1549.05 Q869.15 1544.45 869.15 1535.72 Q869.15 1526.97 872.205 1522.39 Q875.284 1517.78 881.094 1517.78 Z" fill="#000000" fill-rule="evenodd" fill-opacity="1" /><path clip-path="url(#clip090)" d="M901.256 1547.08 L906.14 1547.08 L906.14 1552.96 L901.256 1552.96 L901.256 1547.08 Z" fill="#000000" fill-rule="evenodd" fill-opacity="1" /><path clip-path="url(#clip090)" d="M916.372 1518.4 L934.728 1518.4 L934.728 1522.34 L920.654 1522.34 L920.654 1530.81 Q921.673 1530.46 922.691 1530.3 Q923.71 1530.12 924.728 1530.12 Q930.515 1530.12 933.895 1533.29 Q937.275 1536.46 937.275 1541.88 Q937.275 1547.45 933.802 1550.56 Q930.33 1553.64 924.011 1553.64 Q921.835 1553.64 919.566 1553.27 Q917.321 1552.89 914.914 1552.15 L914.914 1547.45 Q916.997 1548.59 919.219 1549.14 Q921.441 1549.7 923.918 1549.7 Q927.923 1549.7 930.261 1547.59 Q932.599 1545.49 932.599 1541.88 Q932.599 1538.27 930.261 1536.16 Q927.923 1534.05 923.918 1534.05 Q922.043 1534.05 920.168 1534.47 Q918.316 1534.89 916.372 1535.77 L916.372 1518.4 Z" fill="#000000" fill-rule="evenodd" fill-opacity="1" /><path clip-path="url(#clip090)" d="M1020.74 1609.75 L1028.38 1609.75 L1028.38 1583.38 L1020.07 1585.05 L1020.07 1580.79 L1028.34 1579.12 L1033.01 1579.12 L1033.01 1609.75 L1040.65 1609.75 L1040.65 1613.68 L1020.74 1613.68 L1020.74 1609.75 Z" fill="#000000" fill-rule="evenodd" fill-opacity="1" /><path clip-path="url(#clip090)" d="M1050.1 1607.8 L1054.98 1607.8 L1054.98 1613.68 L1050.1 1613.68 L1050.1 1607.8 Z" fill="#000000" fill-rule="evenodd" fill-opacity="1" /><path clip-path="url(#clip090)" d="M1075.17 1582.2 Q1071.55 1582.2 1069.73 1585.76 Q1067.92 1589.31 1067.92 1596.44 Q1067.92 1603.54 1069.73 1607.11 Q1071.55 1610.65 1075.17 1610.65 Q1078.8 1610.65 1080.61 1607.11 Q1082.43 1603.54 1082.43 1596.44 Q1082.43 1589.31 1080.61 1585.76 Q1078.8 1582.2 1075.17 1582.2 M1075.17 1578.5 Q1080.98 1578.5 1084.03 1583.1 Q1087.11 1587.69 1087.11 1596.44 Q1087.11 1605.16 1084.03 1609.77 Q1080.98 1614.35 1075.17 1614.35 Q1069.36 1614.35 1066.28 1609.77 Q1063.22 1605.16 1063.22 1596.44 Q1063.22 1587.69 1066.28 1583.1 Q1069.36 1578.5 1075.17 1578.5 Z" fill="#000000" fill-rule="evenodd" fill-opacity="1" /><path clip-path="url(#clip090)" d="M1179.12 1673.52 L1186.76 1673.52 L1186.76 1647.15 L1178.45 1648.82 L1178.45 1644.56 L1186.71 1642.9 L1191.39 1642.9 L1191.39 1673.52 L1199.03 1673.52 L1199.03 1677.46 L1179.12 1677.46 L1179.12 1673.52 Z" fill="#000000" fill-rule="evenodd" fill-opacity="1" /><path clip-path="url(#clip090)" d="M1208.47 1671.58 L1213.36 1671.58 L1213.36 1677.46 L1208.47 1677.46 L1208.47 1671.58 Z" fill="#000000" fill-rule="evenodd" fill-opacity="1" /><path clip-path="url(#clip090)" d="M1223.59 1642.9 L1241.94 1642.9 L1241.94 1646.83 L1227.87 1646.83 L1227.87 1655.3 Q1228.89 1654.96 1229.91 1654.79 Q1230.93 1654.61 1231.94 1654.61 Q1237.73 1654.61 1241.11 1657.78 Q1244.49 1660.95 1244.49 1666.37 Q1244.49 1671.95 1241.02 1675.05 Q1237.55 1678.13 1231.23 1678.13 Q1229.05 1678.13 1226.78 1677.76 Q1224.54 1677.39 1222.13 1676.65 L1222.13 1671.95 Q1224.21 1673.08 1226.43 1673.64 Q1228.66 1674.19 1231.13 1674.19 Q1235.14 1674.19 1237.48 1672.08 Q1239.81 1669.98 1239.81 1666.37 Q1239.81 1662.76 1237.48 1660.65 Q1235.14 1658.54 1231.13 1658.54 Q1229.26 1658.54 1227.38 1658.96 Q1225.53 1659.38 1223.59 1660.26 L1223.59 1642.9 Z" fill="#000000" fill-rule="evenodd" fill-opacity="1" /><path clip-path="url(#clip090)" d="M1346.85 1740.59 L1363.17 1740.59 L1363.17 1744.52 L1341.23 1744.52 L1341.23 1740.59 Q1343.89 1737.83 1348.47 1733.2 Q1353.08 1728.55 1354.26 1727.21 Q1356.5 1724.69 1357.38 1722.95 Q1358.29 1721.19 1358.29 1719.5 Q1358.29 1716.75 1356.34 1715.01 Q1354.42 1713.27 1351.32 1713.27 Q1349.12 1713.27 1346.67 1714.04 Q1344.24 1714.8 1341.46 1716.35 L1341.46 1711.63 Q1344.28 1710.5 1346.74 1709.92 Q1349.19 1709.34 1351.23 1709.34 Q1356.6 1709.34 1359.79 1712.02 Q1362.99 1714.71 1362.99 1719.2 Q1362.99 1721.33 1362.18 1723.25 Q1361.39 1725.15 1359.28 1727.74 Q1358.7 1728.41 1355.6 1731.63 Q1352.5 1734.82 1346.85 1740.59 Z" fill="#000000" fill-rule="evenodd" fill-opacity="1" /><path clip-path="url(#clip090)" d="M1372.99 1738.64 L1377.87 1738.64 L1377.87 1744.52 L1372.99 1744.52 L1372.99 1738.64 Z" fill="#000000" fill-rule="evenodd" fill-opacity="1" /><path clip-path="url(#clip090)" d="M1398.06 1713.04 Q1394.44 1713.04 1392.62 1716.61 Q1390.81 1720.15 1390.81 1727.28 Q1390.81 1734.39 1392.62 1737.95 Q1394.44 1741.49 1398.06 1741.49 Q1401.69 1741.49 1403.49 1737.95 Q1405.32 1734.39 1405.32 1727.28 Q1405.32 1720.15 1403.49 1716.61 Q1401.69 1713.04 1398.06 1713.04 M1398.06 1709.34 Q1403.87 1709.34 1406.92 1713.95 Q1410 1718.53 1410 1727.28 Q1410 1736.01 1406.92 1740.61 Q1403.87 1745.2 1398.06 1745.2 Q1392.25 1745.2 1389.17 1740.61 Q1386.11 1736.01 1386.11 1727.28 Q1386.11 1718.53 1389.17 1713.95 Q1392.25 1709.34 1398.06 1709.34 Z" fill="#000000" fill-rule="evenodd" fill-opacity="1" /><polyline clip-path="url(#clip092)" style="stroke:#000000; stroke-linecap:butt; stroke-linejoin:round; stroke-width:2; stroke-opacity:0.1; fill:none" points="
  1608.77,1748.34 762.787,1408.63 
  "/>
<polyline clip-path="url(#clip092)" style="stroke:#000000; stroke-linecap:butt; stroke-linejoin:round; stroke-width:2; stroke-opacity:0.1; fill:none" points="
  762.787,1408.63 655.856,532.789 
  "/>
<polyline clip-path="url(#clip092)" style="stroke:#000000; stroke-linecap:butt; stroke-linejoin:round; stroke-width:2; stroke-opacity:0.1; fill:none" points="
  1717.48,1598.47 899.708,1293.14 
  "/>
<polyline clip-path="url(#clip092)" style="stroke:#000000; stroke-linecap:butt; stroke-linejoin:round; stroke-width:2; stroke-opacity:0.1; fill:none" points="
  899.708,1293.14 820.642,448.287 
  "/>
<polyline clip-path="url(#clip092)" style="stroke:#000000; stroke-linecap:butt; stroke-linejoin:round; stroke-width:2; stroke-opacity:0.1; fill:none" points="
  1814.81,1464.29 1023.92,1188.36 
  "/>
<polyline clip-path="url(#clip092)" style="stroke:#000000; stroke-linecap:butt; stroke-linejoin:round; stroke-width:2; stroke-opacity:0.1; fill:none" points="
  1023.92,1188.36 967.829,372.809 
  "/>
<polyline clip-path="url(#clip092)" style="stroke:#000000; stroke-linecap:butt; stroke-linejoin:round; stroke-width:2; stroke-opacity:0.1; fill:none" points="
  1902.45,1343.45 1137.12,1092.88 
  "/>
<polyline clip-path="url(#clip092)" style="stroke:#000000; stroke-linecap:butt; stroke-linejoin:round; stroke-width:2; stroke-opacity:0.1; fill:none" points="
  1137.12,1092.88 1100.09,304.984 
  "/>
<polyline clip-path="url(#clip092)" style="stroke:#000000; stroke-linecap:butt; stroke-linejoin:round; stroke-width:2; stroke-opacity:0.1; fill:none" points="
  1981.79,1234.07 1240.71,1005.5 
  "/>
<polyline clip-path="url(#clip092)" style="stroke:#000000; stroke-linecap:butt; stroke-linejoin:round; stroke-width:2; stroke-opacity:0.1; fill:none" points="
  1240.71,1005.5 1219.6,243.704 
  "/>
<polyline clip-path="url(#clip090)" style="stroke:#000000; stroke-linecap:butt; stroke-linejoin:round; stroke-width:4; stroke-opacity:1; fill:none" points="
  1594.87,1767.51 1990.81,1221.64 
  "/>
<polyline clip-path="url(#clip090)" style="stroke:#000000; stroke-linecap:butt; stroke-linejoin:round; stroke-width:4; stroke-opacity:1; fill:none" points="
  1608.77,1748.34 1597.19,1743.69 
  "/>
<polyline clip-path="url(#clip090)" style="stroke:#000000; stroke-linecap:butt; stroke-linejoin:round; stroke-width:4; stroke-opacity:1; fill:none" points="
  1717.48,1598.47 1706.36,1594.32 
  "/>
<polyline clip-path="url(#clip090)" style="stroke:#000000; stroke-linecap:butt; stroke-linejoin:round; stroke-width:4; stroke-opacity:1; fill:none" points="
  1814.81,1464.29 1804.12,1460.56 
  "/>
<polyline clip-path="url(#clip090)" style="stroke:#000000; stroke-linecap:butt; stroke-linejoin:round; stroke-width:4; stroke-opacity:1; fill:none" points="
  1902.45,1343.45 1892.17,1340.08 
  "/>
<polyline clip-path="url(#clip090)" style="stroke:#000000; stroke-linecap:butt; stroke-linejoin:round; stroke-width:4; stroke-opacity:1; fill:none" points="
  1981.79,1234.07 1971.88,1231.01 
  "/>
<path clip-path="url(#clip090)" d="M1636.85 1764.67 L1666.52 1764.67 L1666.52 1768.61 L1636.85 1768.61 L1636.85 1764.67 Z" fill="#000000" fill-rule="evenodd" fill-opacity="1" /><path clip-path="url(#clip090)" d="M1677.43 1777.56 L1685.07 1777.56 L1685.07 1751.2 L1676.76 1752.86 L1676.76 1748.61 L1685.02 1746.94 L1689.7 1746.94 L1689.7 1777.56 L1697.33 1777.56 L1697.33 1781.5 L1677.43 1781.5 L1677.43 1777.56 Z" fill="#000000" fill-rule="evenodd" fill-opacity="1" /><path clip-path="url(#clip090)" d="M1706.78 1775.62 L1711.66 1775.62 L1711.66 1781.5 L1706.78 1781.5 L1706.78 1775.62 Z" fill="#000000" fill-rule="evenodd" fill-opacity="1" /><path clip-path="url(#clip090)" d="M1731.85 1750.02 Q1728.24 1750.02 1726.41 1753.58 Q1724.6 1757.12 1724.6 1764.25 Q1724.6 1771.36 1726.41 1774.92 Q1728.24 1778.47 1731.85 1778.47 Q1735.48 1778.47 1737.29 1774.92 Q1739.12 1771.36 1739.12 1764.25 Q1739.12 1757.12 1737.29 1753.58 Q1735.48 1750.02 1731.85 1750.02 M1731.85 1746.31 Q1737.66 1746.31 1740.71 1750.92 Q1743.79 1755.5 1743.79 1764.25 Q1743.79 1772.98 1740.71 1777.59 Q1737.66 1782.17 1731.85 1782.17 Q1726.04 1782.17 1722.96 1777.59 Q1719.9 1772.98 1719.9 1764.25 Q1719.9 1755.5 1722.96 1750.92 Q1726.04 1746.31 1731.85 1746.31 Z" fill="#000000" fill-rule="evenodd" fill-opacity="1" /><path clip-path="url(#clip090)" d="M1745.56 1614.8 L1775.23 1614.8 L1775.23 1618.73 L1745.56 1618.73 L1745.56 1614.8 Z" fill="#000000" fill-rule="evenodd" fill-opacity="1" /><path clip-path="url(#clip090)" d="M1795.33 1600.15 Q1791.71 1600.15 1789.89 1603.71 Q1788.08 1607.25 1788.08 1614.38 Q1788.08 1621.49 1789.89 1625.05 Q1791.71 1628.59 1795.33 1628.59 Q1798.96 1628.59 1800.76 1625.05 Q1802.59 1621.49 1802.59 1614.38 Q1802.59 1607.25 1800.76 1603.71 Q1798.96 1600.15 1795.33 1600.15 M1795.33 1596.44 Q1801.14 1596.44 1804.19 1601.05 Q1807.27 1605.63 1807.27 1614.38 Q1807.27 1623.11 1804.19 1627.71 Q1801.14 1632.3 1795.33 1632.3 Q1789.51 1632.3 1786.44 1627.71 Q1783.38 1623.11 1783.38 1614.38 Q1783.38 1605.63 1786.44 1601.05 Q1789.51 1596.44 1795.33 1596.44 Z" fill="#000000" fill-rule="evenodd" fill-opacity="1" /><path clip-path="url(#clip090)" d="M1815.49 1625.75 L1820.37 1625.75 L1820.37 1631.63 L1815.49 1631.63 L1815.49 1625.75 Z" fill="#000000" fill-rule="evenodd" fill-opacity="1" /><path clip-path="url(#clip090)" d="M1830.6 1597.07 L1848.96 1597.07 L1848.96 1601 L1834.89 1601 L1834.89 1609.47 Q1835.9 1609.13 1836.92 1608.96 Q1837.94 1608.78 1838.96 1608.78 Q1844.75 1608.78 1848.13 1611.95 Q1851.51 1615.12 1851.51 1620.54 Q1851.51 1626.12 1848.03 1629.22 Q1844.56 1632.3 1838.24 1632.3 Q1836.07 1632.3 1833.8 1631.93 Q1831.55 1631.56 1829.14 1630.82 L1829.14 1626.12 Q1831.23 1627.25 1833.45 1627.81 Q1835.67 1628.36 1838.15 1628.36 Q1842.15 1628.36 1844.49 1626.26 Q1846.83 1624.15 1846.83 1620.54 Q1846.83 1616.93 1844.49 1614.82 Q1842.15 1612.71 1838.15 1612.71 Q1836.27 1612.71 1834.4 1613.13 Q1832.55 1613.55 1830.6 1614.43 L1830.6 1597.07 Z" fill="#000000" fill-rule="evenodd" fill-opacity="1" /><path clip-path="url(#clip090)" d="M1854.83 1465.96 Q1851.22 1465.96 1849.39 1469.53 Q1847.58 1473.07 1847.58 1480.2 Q1847.58 1487.31 1849.39 1490.87 Q1851.22 1494.41 1854.83 1494.41 Q1858.46 1494.41 1860.27 1490.87 Q1862.1 1487.31 1862.1 1480.2 Q1862.1 1473.07 1860.27 1469.53 Q1858.46 1465.96 1854.83 1465.96 M1854.83 1462.26 Q1860.64 1462.26 1863.7 1466.87 Q1866.77 1471.45 1866.77 1480.2 Q1866.77 1488.93 1863.7 1493.53 Q1860.64 1498.12 1854.83 1498.12 Q1849.02 1498.12 1845.94 1493.53 Q1842.89 1488.93 1842.89 1480.2 Q1842.89 1471.45 1845.94 1466.87 Q1849.02 1462.26 1854.83 1462.26 Z" fill="#000000" fill-rule="evenodd" fill-opacity="1" /><path clip-path="url(#clip090)" d="M1874.99 1491.56 L1879.88 1491.56 L1879.88 1497.44 L1874.99 1497.44 L1874.99 1491.56 Z" fill="#000000" fill-rule="evenodd" fill-opacity="1" /><path clip-path="url(#clip090)" d="M1900.06 1465.96 Q1896.45 1465.96 1894.62 1469.53 Q1892.82 1473.07 1892.82 1480.2 Q1892.82 1487.31 1894.62 1490.87 Q1896.45 1494.41 1900.06 1494.41 Q1903.7 1494.41 1905.5 1490.87 Q1907.33 1487.31 1907.33 1480.2 Q1907.33 1473.07 1905.5 1469.53 Q1903.7 1465.96 1900.06 1465.96 M1900.06 1462.26 Q1905.87 1462.26 1908.93 1466.87 Q1912.01 1471.45 1912.01 1480.2 Q1912.01 1488.93 1908.93 1493.53 Q1905.87 1498.12 1900.06 1498.12 Q1894.25 1498.12 1891.17 1493.53 Q1888.12 1488.93 1888.12 1480.2 Q1888.12 1471.45 1891.17 1466.87 Q1894.25 1462.26 1900.06 1462.26 Z" fill="#000000" fill-rule="evenodd" fill-opacity="1" /><path clip-path="url(#clip090)" d="M1942.48 1345.13 Q1938.87 1345.13 1937.04 1348.69 Q1935.23 1352.23 1935.23 1359.36 Q1935.23 1366.47 1937.04 1370.03 Q1938.87 1373.58 1942.48 1373.58 Q1946.11 1373.58 1947.92 1370.03 Q1949.74 1366.47 1949.74 1359.36 Q1949.74 1352.23 1947.92 1348.69 Q1946.11 1345.13 1942.48 1345.13 M1942.48 1341.42 Q1948.29 1341.42 1951.34 1346.03 Q1954.42 1350.61 1954.42 1359.36 Q1954.42 1368.09 1951.34 1372.7 Q1948.29 1377.28 1942.48 1377.28 Q1936.67 1377.28 1933.59 1372.7 Q1930.53 1368.09 1930.53 1359.36 Q1930.53 1350.61 1933.59 1346.03 Q1936.67 1341.42 1942.48 1341.42 Z" fill="#000000" fill-rule="evenodd" fill-opacity="1" /><path clip-path="url(#clip090)" d="M1962.64 1370.73 L1967.52 1370.73 L1967.52 1376.61 L1962.64 1376.61 L1962.64 1370.73 Z" fill="#000000" fill-rule="evenodd" fill-opacity="1" /><path clip-path="url(#clip090)" d="M1977.75 1342.05 L1996.11 1342.05 L1996.11 1345.98 L1982.04 1345.98 L1982.04 1354.46 Q1983.05 1354.11 1984.07 1353.95 Q1985.09 1353.76 1986.11 1353.76 Q1991.9 1353.76 1995.28 1356.93 Q1998.66 1360.1 1998.66 1365.52 Q1998.66 1371.1 1995.18 1374.2 Q1991.71 1377.28 1985.39 1377.28 Q1983.22 1377.28 1980.95 1376.91 Q1978.7 1376.54 1976.3 1375.8 L1976.3 1371.1 Q1978.38 1372.23 1980.6 1372.79 Q1982.82 1373.34 1985.3 1373.34 Q1989.3 1373.34 1991.64 1371.24 Q1993.98 1369.13 1993.98 1365.52 Q1993.98 1361.91 1991.64 1359.8 Q1989.3 1357.7 1985.3 1357.7 Q1983.43 1357.7 1981.55 1358.11 Q1979.7 1358.53 1977.75 1359.41 L1977.75 1342.05 Z" fill="#000000" fill-rule="evenodd" fill-opacity="1" /><path clip-path="url(#clip090)" d="M2010.54 1263.29 L2018.18 1263.29 L2018.18 1236.92 L2009.87 1238.59 L2009.87 1234.33 L2018.14 1232.66 L2022.81 1232.66 L2022.81 1263.29 L2030.45 1263.29 L2030.45 1267.22 L2010.54 1267.22 L2010.54 1263.29 Z" fill="#000000" fill-rule="evenodd" fill-opacity="1" /><path clip-path="url(#clip090)" d="M2039.9 1261.34 L2044.78 1261.34 L2044.78 1267.22 L2039.9 1267.22 L2039.9 1261.34 Z" fill="#000000" fill-rule="evenodd" fill-opacity="1" /><path clip-path="url(#clip090)" d="M2064.97 1235.74 Q2061.35 1235.74 2059.53 1239.31 Q2057.72 1242.85 2057.72 1249.98 Q2057.72 1257.09 2059.53 1260.65 Q2061.35 1264.19 2064.97 1264.19 Q2068.6 1264.19 2070.41 1260.65 Q2072.23 1257.09 2072.23 1249.98 Q2072.23 1242.85 2070.41 1239.31 Q2068.6 1235.74 2064.97 1235.74 M2064.97 1232.04 Q2070.78 1232.04 2073.83 1236.65 Q2076.91 1241.23 2076.91 1249.98 Q2076.91 1258.71 2073.83 1263.31 Q2070.78 1267.9 2064.97 1267.9 Q2059.16 1267.9 2056.08 1263.31 Q2053.02 1258.71 2053.02 1249.98 Q2053.02 1241.23 2056.08 1236.65 Q2059.16 1232.04 2064.97 1232.04 Z" fill="#000000" fill-rule="evenodd" fill-opacity="1" /><polyline clip-path="url(#clip092)" style="stroke:#000000; stroke-linecap:butt; stroke-linejoin:round; stroke-width:2; stroke-opacity:0.1; fill:none" points="
  742.727,1401.93 1252.07,976.543 
  "/>
<polyline clip-path="url(#clip092)" style="stroke:#000000; stroke-linecap:butt; stroke-linejoin:round; stroke-width:2; stroke-opacity:0.1; fill:none" points="
  1252.07,976.543 1993.06,1201.33 
  "/>
<polyline clip-path="url(#clip092)" style="stroke:#000000; stroke-linecap:butt; stroke-linejoin:round; stroke-width:2; stroke-opacity:0.1; fill:none" points="
  720.195,1222.81 1248.03,818.553 
  "/>
<polyline clip-path="url(#clip092)" style="stroke:#000000; stroke-linecap:butt; stroke-linejoin:round; stroke-width:2; stroke-opacity:0.1; fill:none" points="
  1248.03,818.553 2011.88,1031.55 
  "/>
<polyline clip-path="url(#clip092)" style="stroke:#000000; stroke-linecap:butt; stroke-linejoin:round; stroke-width:2; stroke-opacity:0.1; fill:none" points="
  696.052,1030.89 1243.76,651.414 
  "/>
<polyline clip-path="url(#clip092)" style="stroke:#000000; stroke-linecap:butt; stroke-linejoin:round; stroke-width:2; stroke-opacity:0.1; fill:none" points="
  1243.76,651.414 2031.93,850.731 
  "/>
<polyline clip-path="url(#clip092)" style="stroke:#000000; stroke-linecap:butt; stroke-linejoin:round; stroke-width:2; stroke-opacity:0.1; fill:none" points="
  670.119,824.74 1239.23,474.309 
  "/>
<polyline clip-path="url(#clip092)" style="stroke:#000000; stroke-linecap:butt; stroke-linejoin:round; stroke-width:2; stroke-opacity:0.1; fill:none" points="
  1239.23,474.309 2053.32,657.755 
  "/>
<polyline clip-path="url(#clip092)" style="stroke:#000000; stroke-linecap:butt; stroke-linejoin:round; stroke-width:2; stroke-opacity:0.1; fill:none" points="
  642.189,602.714 1234.43,286.318 
  "/>
<polyline clip-path="url(#clip092)" style="stroke:#000000; stroke-linecap:butt; stroke-linejoin:round; stroke-width:2; stroke-opacity:0.1; fill:none" points="
  1234.43,286.318 2076.2,451.355 
  "/>
<polyline clip-path="url(#clip090)" style="stroke:#000000; stroke-linecap:butt; stroke-linejoin:round; stroke-width:4; stroke-opacity:1; fill:none" points="
  745.414,1423.29 634.754,543.61 
  "/>
<polyline clip-path="url(#clip090)" style="stroke:#000000; stroke-linecap:butt; stroke-linejoin:round; stroke-width:4; stroke-opacity:1; fill:none" points="
  742.727,1401.93 750.158,1395.72 
  "/>
<polyline clip-path="url(#clip090)" style="stroke:#000000; stroke-linecap:butt; stroke-linejoin:round; stroke-width:4; stroke-opacity:1; fill:none" points="
  720.195,1222.81 727.943,1216.88 
  "/>
<polyline clip-path="url(#clip090)" style="stroke:#000000; stroke-linecap:butt; stroke-linejoin:round; stroke-width:4; stroke-opacity:1; fill:none" points="
  696.052,1030.89 704.144,1025.29 
  "/>
<polyline clip-path="url(#clip090)" style="stroke:#000000; stroke-linecap:butt; stroke-linejoin:round; stroke-width:4; stroke-opacity:1; fill:none" points="
  670.119,824.74 678.586,819.527 
  "/>
<polyline clip-path="url(#clip090)" style="stroke:#000000; stroke-linecap:butt; stroke-linejoin:round; stroke-width:4; stroke-opacity:1; fill:none" points="
  642.189,602.714 651.065,597.972 
  "/>
<path clip-path="url(#clip090)" d="M650.355 1402.38 L680.031 1402.38 L680.031 1406.32 L650.355 1406.32 L650.355 1402.38 Z" fill="#000000" fill-rule="evenodd" fill-opacity="1" /><path clip-path="url(#clip090)" d="M694.151 1415.27 L710.471 1415.27 L710.471 1419.21 L688.526 1419.21 L688.526 1415.27 Q691.188 1412.52 695.772 1407.89 Q700.378 1403.24 701.559 1401.9 Q703.804 1399.37 704.684 1397.64 Q705.587 1395.88 705.587 1394.19 Q705.587 1391.43 703.642 1389.7 Q701.721 1387.96 698.619 1387.96 Q696.42 1387.96 693.966 1388.72 Q691.536 1389.49 688.758 1391.04 L688.758 1386.32 Q691.582 1385.18 694.036 1384.6 Q696.489 1384.02 698.526 1384.02 Q703.897 1384.02 707.091 1386.71 Q710.286 1389.4 710.286 1393.89 Q710.286 1396.02 709.475 1397.94 Q708.688 1399.83 706.582 1402.43 Q706.003 1403.1 702.901 1406.32 Q699.8 1409.51 694.151 1415.27 Z" fill="#000000" fill-rule="evenodd" fill-opacity="1" /><path clip-path="url(#clip090)" d="M627.453 1223.27 L657.129 1223.27 L657.129 1227.2 L627.453 1227.2 L627.453 1223.27 Z" fill="#000000" fill-rule="evenodd" fill-opacity="1" /><path clip-path="url(#clip090)" d="M668.031 1236.16 L675.67 1236.16 L675.67 1209.79 L667.36 1211.46 L667.36 1207.2 L675.624 1205.53 L680.3 1205.53 L680.3 1236.16 L687.939 1236.16 L687.939 1240.09 L668.031 1240.09 L668.031 1236.16 Z" fill="#000000" fill-rule="evenodd" fill-opacity="1" /><path clip-path="url(#clip090)" d="M651.851 1016.69 Q648.24 1016.69 646.412 1020.26 Q644.606 1023.8 644.606 1030.93 Q644.606 1038.03 646.412 1041.6 Q648.24 1045.14 651.851 1045.14 Q655.486 1045.14 657.291 1041.6 Q659.12 1038.03 659.12 1030.93 Q659.12 1023.8 657.291 1020.26 Q655.486 1016.69 651.851 1016.69 M651.851 1012.99 Q657.662 1012.99 660.717 1017.59 Q663.796 1022.18 663.796 1030.93 Q663.796 1039.65 660.717 1044.26 Q657.662 1048.84 651.851 1048.84 Q646.041 1048.84 642.963 1044.26 Q639.907 1039.65 639.907 1030.93 Q639.907 1022.18 642.963 1017.59 Q646.041 1012.99 651.851 1012.99 Z" fill="#000000" fill-rule="evenodd" fill-opacity="1" /><path clip-path="url(#clip090)" d="M617.955 838.085 L625.594 838.085 L625.594 811.72 L617.284 813.386 L617.284 809.127 L625.548 807.46 L630.224 807.46 L630.224 838.085 L637.863 838.085 L637.863 842.02 L617.955 842.02 L617.955 838.085 Z" fill="#000000" fill-rule="evenodd" fill-opacity="1" /><path clip-path="url(#clip090)" d="M593.613 616.059 L609.933 616.059 L609.933 619.994 L587.988 619.994 L587.988 616.059 Q590.65 613.304 595.234 608.675 Q599.84 604.022 601.021 602.679 Q603.266 600.156 604.146 598.42 Q605.048 596.661 605.048 594.971 Q605.048 592.216 603.104 590.48 Q601.183 588.744 598.081 588.744 Q595.882 588.744 593.428 589.508 Q590.998 590.272 588.22 591.823 L588.22 587.101 Q591.044 585.966 593.498 585.388 Q595.951 584.809 597.988 584.809 Q603.359 584.809 606.553 587.494 Q609.748 590.179 609.748 594.67 Q609.748 596.8 608.937 598.721 Q608.15 600.619 606.044 603.212 Q605.465 603.883 602.363 607.101 Q599.261 610.295 593.613 616.059 Z" fill="#000000" fill-rule="evenodd" fill-opacity="1" /><polyline clip-path="url(#clip092)" style="stroke:#009af9; stroke-linecap:butt; stroke-linejoin:round; stroke-width:4; stroke-opacity:1; fill:none" points="
  1062.84,839.869 1068.25,839.992 1073.75,840.149 1079.33,840.342 1084.99,840.57 1098.37,841.241 1112.14,842.118 1126.25,843.211 1140.69,844.528 1155.43,846.077 
  1170.42,847.867 1185.65,849.903 1201.09,852.193 1216.7,854.743 1232.46,857.559 1248.35,860.647 1264.33,864.01 1280.38,867.653 1296.47,871.582 1312.58,875.798 
  1328.68,880.306 1347.99,886.115 1367.22,892.353 1386.31,899.023 1405.23,906.13 1423.94,913.674 1442.4,921.655 1460.57,930.075 1478.41,938.933 1493.21,946.761 
  1507.72,954.899 1521.93,963.345 1535.8,972.095 1549.32,981.146 1562.46,990.496 1575.2,1000.14 1587.52,1010.07 1600.4,1021.18 1612.73,1032.61 1624.48,1044.36 
  1635.62,1056.41 1646.13,1068.75 1655.97,1081.38 1665.13,1094.28 1673.57,1107.43 1680.7,1119.76 1687.17,1132.27 1692.98,1144.97 1698.1,1157.81 1702.52,1170.8 
  1706.21,1183.91 1709.16,1197.12 1711.36,1210.41 1712.86,1224.73 1713.46,1239.09 1713.14,1253.46 1711.89,1267.82 1709.7,1282.13 1706.56,1296.35 1702.46,1310.46 
  1697.39,1324.41 1690.32,1340.34 1681.95,1355.94 1672.29,1371.17 1661.36,1385.95 1649.17,1400.23 1635.75,1413.93 1621.13,1426.99 1605.34,1439.34 1590.38,1449.67 
  1574.56,1459.34 1557.95,1468.31 1540.57,1476.53 1522.48,1483.96 1503.74,1490.57 1484.39,1496.3 1464.51,1501.13 1446.69,1504.59 1428.54,1507.31 1410.13,1509.27 
  1391.5,1510.45 1372.7,1510.83 1353.78,1510.42 1334.79,1509.18 1315.8,1507.13 1295.14,1503.94 1274.6,1499.77 1254.25,1494.61 1234.17,1488.48 1214.42,1481.37 
  1195.06,1473.31 1176.17,1464.3 1157.8,1454.37 1139.92,1443.47 1122.69,1431.69 1106.17,1419.05 1090.42,1405.59 1075.47,1391.35 1061.38,1376.36 1048.19,1360.65 
  1035.93,1344.29 1023.5,1325.47 1012.29,1305.95 1002.32,1285.78 993.633,1265.05 986.233,1243.8 980.135,1222.1 975.344,1200.01 971.862,1177.6 969.758,1156.03 
  968.823,1134.28 969.045,1112.4 970.406,1090.43 972.887,1068.42 976.463,1046.42 981.109,1024.48 986.795,1002.63 993.777,980.058 1001.81,957.675 1010.86,935.521 
  1020.88,913.636 1031.84,892.054 1043.67,870.808 1056.35,849.93 1069.82,829.448 1081.75,812.533 1094.17,795.931 1107.07,779.657 1120.41,763.722 1134.17,748.139 
  1148.32,732.918 1162.84,718.068 1177.68,703.6 1196.21,686.464 1215.15,669.921 1234.44,653.985 1254.04,638.664 1273.89,623.97 1293.94,609.909 1314.15,596.489 
  1334.46,583.717 1353.12,572.59 1371.8,562.013 1390.45,551.991 1409.03,542.526 1427.53,533.62 1445.88,525.273 1464.07,517.489 1482.05,510.267 1498.44,504.097 
  1514.59,498.408 1530.48,493.199 1546.07,488.471 1561.35,484.222 1576.27,480.453 1590.81,477.162 1604.94,474.349 1618.8,471.984 1632.19,470.105 1645.07,468.711 
  1657.4,467.8 1669.16,467.368 1680.32,467.413 1690.85,467.932 1700.71,468.92 1710.94,470.58 1720.26,472.819 1728.62,475.627 1736,478.998 1742.34,482.921 
  1747.6,487.386 1751.77,492.382 1754.79,497.895 1756.51,503.326 1757.25,509.158 1756.97,515.38 1755.67,521.978 1753.33,528.937 1749.93,536.241 1745.46,543.874 
  1739.91,551.818 1732.23,561.271 1723.13,571.075 1712.61,581.2 1700.68,591.61 1687.36,602.269 1672.69,613.14 1656.68,624.183 1639.39,635.358 1622.27,645.786 
  1604.14,656.256 1585.05,666.735 1565.06,677.187 1544.23,687.577 1522.63,697.87 1500.34,708.032 1477.44,718.028 1454.35,727.688 1430.83,737.125 1406.98,746.308 
  1382.89,755.21 1358.65,763.804 1334.35,772.067 1310.11,779.976 1286,787.512 1262.82,794.455 1239.96,801.016 1217.49,807.185 1195.5,812.952 1174.08,818.313 
  1153.29,823.263 1133.21,827.801 1113.91,831.929 1095.01,835.74 1077.05,839.13 1060.09,842.11 1044.2,844.691 1029.41,846.886 1015.76,848.712 1003.28,850.185 
  992.001,851.326 981.044,852.218 971.569,852.763 963.585,852.993 957.092,852.939 952.086,852.632 948.552,852.107 946.47,851.395 945.817,850.531 946.219,849.827 
  947.345,849.073 949.179,848.281 951.707,847.464 954.91,846.634 958.771,845.802 963.273,844.981 968.395,844.182 974.118,843.416 980.421,842.694 987.284,842.027 
  994.687,841.425 1002.61,840.897 1011.02,840.454 1019.91,840.104 1029.26,839.856 1037.25,839.736 1045.51,839.695 1054.05,839.738 1062.84,839.869 
  "/>
<polyline clip-path="url(#clip092)" style="stroke:#e26f46; stroke-linecap:butt; stroke-linejoin:round; stroke-width:4; stroke-opacity:1; fill:none" points="
  989.927,1254.93 895.242,984.148 
  "/>
<polyline clip-path="url(#clip092)" style="stroke:#3da44d; stroke-linecap:butt; stroke-linejoin:round; stroke-width:4; stroke-opacity:1; fill:none" points="
  989.927,1254.93 996.119,1229.79 
  "/>
<polyline clip-path="url(#clip092)" style="stroke:#c271d2; stroke-linecap:butt; stroke-linejoin:round; stroke-width:4; stroke-opacity:1; fill:none" points="
  989.927,1254.93 1368.89,1110.52 
  "/>
<polyline clip-path="url(#clip092)" style="stroke:#ac8d18; stroke-linecap:butt; stroke-linejoin:round; stroke-width:4; stroke-opacity:1; fill:none" points="
  1748.37,539.085 1649.98,711.319 
  "/>
<polyline clip-path="url(#clip092)" style="stroke:#00a9ad; stroke-linecap:butt; stroke-linejoin:round; stroke-width:4; stroke-opacity:1; fill:none" points="
  1748.37,539.085 1898.75,769.399 
  "/>
<polyline clip-path="url(#clip092)" style="stroke:#ed5d92; stroke-linecap:butt; stroke-linejoin:round; stroke-width:4; stroke-opacity:1; fill:none" points="
  1748.37,539.085 1383.88,628.081 
  "/>
</svg>
