<?xml version="1.0" encoding="utf-8"?>
<svg xmlns="http://www.w3.org/2000/svg" xmlns:xlink="http://www.w3.org/1999/xlink" width="672" height="480" viewBox="0 0 2688 1920">
<defs>
  <clipPath id="clip420">
    <rect x="0" y="0" width="2688" height="1920"/>
  </clipPath>
</defs>
<path clip-path="url(#clip420)" d="
M0 1920 L2688 1920 L2688 0 L0 0  Z
  " fill="#ffffff" fill-rule="evenodd" fill-opacity="1"/>
<defs>
  <clipPath id="clip421">
    <rect x="537" y="0" width="1883" height="1883"/>
  </clipPath>
</defs>
<path clip-path="url(#clip420)" d="
M174.895 1800.78 L2640.76 1800.78 L2640.76 47.2441 L174.895 47.2441  Z
  " fill="#ffffff" fill-rule="evenodd" fill-opacity="1"/>
<defs>
  <clipPath id="clip422">
    <rect x="174" y="47" width="2467" height="1755"/>
  </clipPath>
</defs>
<polyline clip-path="url(#clip422)" style="stroke:#000000; stroke-linecap:butt; stroke-linejoin:round; stroke-width:2; stroke-opacity:0.1; fill:none" points="
  244.683,1800.78 244.683,47.2441 
  "/>
<polyline clip-path="url(#clip422)" style="stroke:#000000; stroke-linecap:butt; stroke-linejoin:round; stroke-width:2; stroke-opacity:0.1; fill:none" points="
  709.94,1800.78 709.94,47.2441 
  "/>
<polyline clip-path="url(#clip422)" style="stroke:#000000; stroke-linecap:butt; stroke-linejoin:round; stroke-width:2; stroke-opacity:0.1; fill:none" points="
  1175.2,1800.78 1175.2,47.2441 
  "/>
<polyline clip-path="url(#clip422)" style="stroke:#000000; stroke-linecap:butt; stroke-linejoin:round; stroke-width:2; stroke-opacity:0.1; fill:none" points="
  1640.45,1800.78 1640.45,47.2441 
  "/>
<polyline clip-path="url(#clip422)" style="stroke:#000000; stroke-linecap:butt; stroke-linejoin:round; stroke-width:2; stroke-opacity:0.1; fill:none" points="
  2105.71,1800.78 2105.71,47.2441 
  "/>
<polyline clip-path="url(#clip422)" style="stroke:#000000; stroke-linecap:butt; stroke-linejoin:round; stroke-width:2; stroke-opacity:0.1; fill:none" points="
  2570.97,1800.78 2570.97,47.2441 
  "/>
<polyline clip-path="url(#clip420)" style="stroke:#000000; stroke-linecap:butt; stroke-linejoin:round; stroke-width:4; stroke-opacity:1; fill:none" points="
  174.895,1800.78 2640.76,1800.78 
  "/>
<polyline clip-path="url(#clip420)" style="stroke:#000000; stroke-linecap:butt; stroke-linejoin:round; stroke-width:4; stroke-opacity:1; fill:none" points="
  244.683,1800.78 244.683,1781.88 
  "/>
<polyline clip-path="url(#clip420)" style="stroke:#000000; stroke-linecap:butt; stroke-linejoin:round; stroke-width:4; stroke-opacity:1; fill:none" points="
  709.94,1800.78 709.94,1781.88 
  "/>
<polyline clip-path="url(#clip420)" style="stroke:#000000; stroke-linecap:butt; stroke-linejoin:round; stroke-width:4; stroke-opacity:1; fill:none" points="
  1175.2,1800.78 1175.2,1781.88 
  "/>
<polyline clip-path="url(#clip420)" style="stroke:#000000; stroke-linecap:butt; stroke-linejoin:round; stroke-width:4; stroke-opacity:1; fill:none" points="
  1640.45,1800.78 1640.45,1781.88 
  "/>
<polyline clip-path="url(#clip420)" style="stroke:#000000; stroke-linecap:butt; stroke-linejoin:round; stroke-width:4; stroke-opacity:1; fill:none" points="
  2105.71,1800.78 2105.71,1781.88 
  "/>
<polyline clip-path="url(#clip420)" style="stroke:#000000; stroke-linecap:butt; stroke-linejoin:round; stroke-width:4; stroke-opacity:1; fill:none" points="
  2570.97,1800.78 2570.97,1781.88 
  "/>
<path clip-path="url(#clip420)" d="M234.961 1830.92 L253.318 1830.92 L253.318 1834.86 L239.244 1834.86 L239.244 1843.33 Q240.262 1842.98 241.281 1842.82 Q242.299 1842.64 243.318 1842.64 Q249.105 1842.64 252.484 1845.81 Q255.864 1848.98 255.864 1854.4 Q255.864 1859.97 252.392 1863.08 Q248.919 1866.15 242.6 1866.15 Q240.424 1866.15 238.156 1865.78 Q235.91 1865.41 233.503 1864.67 L233.503 1859.97 Q235.586 1861.11 237.808 1861.66 Q240.031 1862.22 242.507 1862.22 Q246.512 1862.22 248.85 1860.11 Q251.188 1858.01 251.188 1854.4 Q251.188 1850.78 248.85 1848.68 Q246.512 1846.57 242.507 1846.57 Q240.632 1846.57 238.757 1846.99 Q236.906 1847.4 234.961 1848.28 L234.961 1830.92 Z" fill="#000000" fill-rule="evenodd" fill-opacity="1" /><path clip-path="url(#clip420)" d="M710.345 1846.34 Q707.197 1846.34 705.345 1848.49 Q703.517 1850.65 703.517 1854.4 Q703.517 1858.12 705.345 1860.3 Q707.197 1862.45 710.345 1862.45 Q713.493 1862.45 715.322 1860.3 Q717.174 1858.12 717.174 1854.4 Q717.174 1850.65 715.322 1848.49 Q713.493 1846.34 710.345 1846.34 M719.628 1831.69 L719.628 1835.95 Q717.868 1835.11 716.063 1834.67 Q714.28 1834.23 712.521 1834.23 Q707.892 1834.23 705.438 1837.36 Q703.007 1840.48 702.66 1846.8 Q704.026 1844.79 706.086 1843.72 Q708.146 1842.64 710.623 1842.64 Q715.831 1842.64 718.841 1845.81 Q721.873 1848.96 721.873 1854.4 Q721.873 1859.72 718.725 1862.94 Q715.577 1866.15 710.345 1866.15 Q704.35 1866.15 701.179 1861.57 Q698.007 1856.96 698.007 1848.24 Q698.007 1840.04 701.896 1835.18 Q705.785 1830.3 712.336 1830.3 Q714.095 1830.3 715.878 1830.65 Q717.683 1830.99 719.628 1831.69 Z" fill="#000000" fill-rule="evenodd" fill-opacity="1" /><path clip-path="url(#clip420)" d="M1164.09 1830.92 L1186.31 1830.92 L1186.31 1832.91 L1173.76 1865.48 L1168.88 1865.48 L1180.68 1834.86 L1164.09 1834.86 L1164.09 1830.92 Z" fill="#000000" fill-rule="evenodd" fill-opacity="1" /><path clip-path="url(#clip420)" d="M1640.45 1849.07 Q1637.12 1849.07 1635.2 1850.85 Q1633.3 1852.64 1633.3 1855.76 Q1633.3 1858.89 1635.2 1860.67 Q1637.12 1862.45 1640.45 1862.45 Q1643.79 1862.45 1645.71 1860.67 Q1647.63 1858.86 1647.63 1855.76 Q1647.63 1852.64 1645.71 1850.85 Q1643.81 1849.07 1640.45 1849.07 M1635.78 1847.08 Q1632.77 1846.34 1631.08 1844.28 Q1629.41 1842.22 1629.41 1839.26 Q1629.41 1835.11 1632.35 1832.71 Q1635.31 1830.3 1640.45 1830.3 Q1645.62 1830.3 1648.56 1832.71 Q1651.5 1835.11 1651.5 1839.26 Q1651.5 1842.22 1649.81 1844.28 Q1648.14 1846.34 1645.15 1847.08 Q1648.53 1847.87 1650.41 1850.16 Q1652.31 1852.45 1652.31 1855.76 Q1652.31 1860.78 1649.23 1863.47 Q1646.17 1866.15 1640.45 1866.15 Q1634.74 1866.15 1631.66 1863.47 Q1628.6 1860.78 1628.6 1855.76 Q1628.6 1852.45 1630.5 1850.16 Q1632.4 1847.87 1635.78 1847.08 M1634.06 1839.7 Q1634.06 1842.38 1635.73 1843.89 Q1637.42 1845.39 1640.45 1845.39 Q1643.46 1845.39 1645.15 1843.89 Q1646.87 1842.38 1646.87 1839.7 Q1646.87 1837.01 1645.15 1835.51 Q1643.46 1834 1640.45 1834 Q1637.42 1834 1635.73 1835.51 Q1634.06 1837.01 1634.06 1839.7 Z" fill="#000000" fill-rule="evenodd" fill-opacity="1" /><path clip-path="url(#clip420)" d="M2096.01 1864.77 L2096.01 1860.51 Q2097.77 1861.34 2099.58 1861.78 Q2101.38 1862.22 2103.12 1862.22 Q2107.75 1862.22 2110.18 1859.12 Q2112.63 1855.99 2112.98 1849.65 Q2111.64 1851.64 2109.58 1852.71 Q2107.52 1853.77 2105.02 1853.77 Q2099.83 1853.77 2096.8 1850.65 Q2093.79 1847.5 2093.79 1842.06 Q2093.79 1836.73 2096.94 1833.52 Q2100.09 1830.3 2105.32 1830.3 Q2111.31 1830.3 2114.46 1834.9 Q2117.63 1839.49 2117.63 1848.24 Q2117.63 1856.41 2113.74 1861.29 Q2109.88 1866.15 2103.33 1866.15 Q2101.57 1866.15 2099.76 1865.81 Q2097.96 1865.46 2096.01 1864.77 M2105.32 1850.11 Q2108.47 1850.11 2110.29 1847.96 Q2112.15 1845.81 2112.15 1842.06 Q2112.15 1838.33 2110.29 1836.18 Q2108.47 1834 2105.32 1834 Q2102.17 1834 2100.32 1836.18 Q2098.49 1838.33 2098.49 1842.06 Q2098.49 1845.81 2100.32 1847.96 Q2102.17 1850.11 2105.32 1850.11 Z" fill="#000000" fill-rule="evenodd" fill-opacity="1" /><path clip-path="url(#clip420)" d="M2545.66 1861.55 L2553.29 1861.55 L2553.29 1835.18 L2544.98 1836.85 L2544.98 1832.59 L2553.25 1830.92 L2557.92 1830.92 L2557.92 1861.55 L2565.56 1861.55 L2565.56 1865.48 L2545.66 1865.48 L2545.66 1861.55 Z" fill="#000000" fill-rule="evenodd" fill-opacity="1" /><path clip-path="url(#clip420)" d="M2585.01 1834 Q2581.4 1834 2579.57 1837.57 Q2577.76 1841.11 2577.76 1848.24 Q2577.76 1855.34 2579.57 1858.91 Q2581.4 1862.45 2585.01 1862.45 Q2588.64 1862.45 2590.45 1858.91 Q2592.28 1855.34 2592.28 1848.24 Q2592.28 1841.11 2590.45 1837.57 Q2588.64 1834 2585.01 1834 M2585.01 1830.3 Q2590.82 1830.3 2593.87 1834.9 Q2596.95 1839.49 2596.95 1848.24 Q2596.95 1856.96 2593.87 1861.57 Q2590.82 1866.15 2585.01 1866.15 Q2579.2 1866.15 2576.12 1861.57 Q2573.06 1856.96 2573.06 1848.24 Q2573.06 1839.49 2576.12 1834.9 Q2579.2 1830.3 2585.01 1830.3 Z" fill="#000000" fill-rule="evenodd" fill-opacity="1" /><polyline clip-path="url(#clip422)" style="stroke:#000000; stroke-linecap:butt; stroke-linejoin:round; stroke-width:2; stroke-opacity:0.1; fill:none" points="
  174.895,1716.64 2640.76,1716.64 
  "/>
<polyline clip-path="url(#clip422)" style="stroke:#000000; stroke-linecap:butt; stroke-linejoin:round; stroke-width:2; stroke-opacity:0.1; fill:none" points="
  174.895,1333.21 2640.76,1333.21 
  "/>
<polyline clip-path="url(#clip422)" style="stroke:#000000; stroke-linecap:butt; stroke-linejoin:round; stroke-width:2; stroke-opacity:0.1; fill:none" points="
  174.895,949.787 2640.76,949.787 
  "/>
<polyline clip-path="url(#clip422)" style="stroke:#000000; stroke-linecap:butt; stroke-linejoin:round; stroke-width:2; stroke-opacity:0.1; fill:none" points="
  174.895,566.359 2640.76,566.359 
  "/>
<polyline clip-path="url(#clip422)" style="stroke:#000000; stroke-linecap:butt; stroke-linejoin:round; stroke-width:2; stroke-opacity:0.1; fill:none" points="
  174.895,182.931 2640.76,182.931 
  "/>
<polyline clip-path="url(#clip420)" style="stroke:#000000; stroke-linecap:butt; stroke-linejoin:round; stroke-width:4; stroke-opacity:1; fill:none" points="
  174.895,1800.78 174.895,47.2441 
  "/>
<polyline clip-path="url(#clip420)" style="stroke:#000000; stroke-linecap:butt; stroke-linejoin:round; stroke-width:4; stroke-opacity:1; fill:none" points="
  174.895,1716.64 193.792,1716.64 
  "/>
<polyline clip-path="url(#clip420)" style="stroke:#000000; stroke-linecap:butt; stroke-linejoin:round; stroke-width:4; stroke-opacity:1; fill:none" points="
  174.895,1333.21 193.792,1333.21 
  "/>
<polyline clip-path="url(#clip420)" style="stroke:#000000; stroke-linecap:butt; stroke-linejoin:round; stroke-width:4; stroke-opacity:1; fill:none" points="
  174.895,949.787 193.792,949.787 
  "/>
<polyline clip-path="url(#clip420)" style="stroke:#000000; stroke-linecap:butt; stroke-linejoin:round; stroke-width:4; stroke-opacity:1; fill:none" points="
  174.895,566.359 193.792,566.359 
  "/>
<polyline clip-path="url(#clip420)" style="stroke:#000000; stroke-linecap:butt; stroke-linejoin:round; stroke-width:4; stroke-opacity:1; fill:none" points="
  174.895,182.931 193.792,182.931 
  "/>
<path clip-path="url(#clip420)" d="M56.3345 1729.99 L72.6539 1729.99 L72.6539 1733.92 L50.7095 1733.92 L50.7095 1729.99 Q53.3715 1727.23 57.9549 1722.6 Q62.5613 1717.95 63.7419 1716.61 Q65.9872 1714.08 66.8668 1712.35 Q67.7696 1710.59 67.7696 1708.9 Q67.7696 1706.14 65.8252 1704.41 Q63.9039 1702.67 60.8021 1702.67 Q58.603 1702.67 56.1493 1703.44 Q53.7188 1704.2 50.941 1705.75 L50.941 1701.03 Q53.7651 1699.89 56.2188 1699.32 Q58.6724 1698.74 60.7095 1698.74 Q66.0798 1698.74 69.2742 1701.42 Q72.4687 1704.11 72.4687 1708.6 Q72.4687 1710.73 71.6585 1712.65 Q70.8715 1714.55 68.765 1717.14 Q68.1863 1717.81 65.0845 1721.03 Q61.9826 1724.22 56.3345 1729.99 Z" fill="#000000" fill-rule="evenodd" fill-opacity="1" /><path clip-path="url(#clip420)" d="M92.4686 1702.44 Q88.8575 1702.44 87.0288 1706.01 Q85.2232 1709.55 85.2232 1716.68 Q85.2232 1723.78 87.0288 1727.35 Q88.8575 1730.89 92.4686 1730.89 Q96.1028 1730.89 97.9083 1727.35 Q99.737 1723.78 99.737 1716.68 Q99.737 1709.55 97.9083 1706.01 Q96.1028 1702.44 92.4686 1702.44 M92.4686 1698.74 Q98.2787 1698.74 101.334 1703.34 Q104.413 1707.93 104.413 1716.68 Q104.413 1725.4 101.334 1730.01 Q98.2787 1734.59 92.4686 1734.59 Q86.6584 1734.59 83.5797 1730.01 Q80.5242 1725.4 80.5242 1716.68 Q80.5242 1707.93 83.5797 1703.34 Q86.6584 1698.74 92.4686 1698.74 Z" fill="#000000" fill-rule="evenodd" fill-opacity="1" /><path clip-path="url(#clip420)" d="M122.63 1702.44 Q119.019 1702.44 117.191 1706.01 Q115.385 1709.55 115.385 1716.68 Q115.385 1723.78 117.191 1727.35 Q119.019 1730.89 122.63 1730.89 Q126.265 1730.89 128.07 1727.35 Q129.899 1723.78 129.899 1716.68 Q129.899 1709.55 128.07 1706.01 Q126.265 1702.44 122.63 1702.44 M122.63 1698.74 Q128.441 1698.74 131.496 1703.34 Q134.575 1707.93 134.575 1716.68 Q134.575 1725.4 131.496 1730.01 Q128.441 1734.59 122.63 1734.59 Q116.82 1734.59 113.742 1730.01 Q110.686 1725.4 110.686 1716.68 Q110.686 1707.93 113.742 1703.34 Q116.82 1698.74 122.63 1698.74 Z" fill="#000000" fill-rule="evenodd" fill-opacity="1" /><path clip-path="url(#clip420)" d="M66.4733 1331.86 Q69.8298 1332.58 71.7048 1334.85 Q73.6029 1337.11 73.6029 1340.45 Q73.6029 1345.56 70.0844 1348.36 Q66.5659 1351.17 60.0845 1351.17 Q57.9086 1351.17 55.5938 1350.73 Q53.3021 1350.31 50.8484 1349.45 L50.8484 1344.94 Q52.7928 1346.07 55.1077 1346.65 Q57.4225 1347.23 59.9456 1347.23 Q64.3437 1347.23 66.6354 1345.49 Q68.9502 1343.76 68.9502 1340.45 Q68.9502 1337.39 66.7974 1335.68 Q64.6678 1333.94 60.8484 1333.94 L56.8206 1333.94 L56.8206 1330.1 L61.0335 1330.1 Q64.4826 1330.1 66.3113 1328.74 Q68.14 1327.35 68.14 1324.75 Q68.14 1322.09 66.2419 1320.68 Q64.3669 1319.24 60.8484 1319.24 Q58.9271 1319.24 56.728 1319.66 Q54.529 1320.08 51.8901 1320.96 L51.8901 1316.79 Q54.5521 1316.05 56.8669 1315.68 Q59.2049 1315.31 61.265 1315.31 Q66.5891 1315.31 69.6909 1317.74 Q72.7927 1320.15 72.7927 1324.27 Q72.7927 1327.14 71.1492 1329.13 Q69.5057 1331.1 66.4733 1331.86 Z" fill="#000000" fill-rule="evenodd" fill-opacity="1" /><path clip-path="url(#clip420)" d="M92.4686 1319.01 Q88.8575 1319.01 87.0288 1322.58 Q85.2232 1326.12 85.2232 1333.25 Q85.2232 1340.36 87.0288 1343.92 Q88.8575 1347.46 92.4686 1347.46 Q96.1028 1347.46 97.9083 1343.92 Q99.737 1340.36 99.737 1333.25 Q99.737 1326.12 97.9083 1322.58 Q96.1028 1319.01 92.4686 1319.01 M92.4686 1315.31 Q98.2787 1315.31 101.334 1319.92 Q104.413 1324.5 104.413 1333.25 Q104.413 1341.98 101.334 1346.58 Q98.2787 1351.17 92.4686 1351.17 Q86.6584 1351.17 83.5797 1346.58 Q80.5242 1341.98 80.5242 1333.25 Q80.5242 1324.5 83.5797 1319.92 Q86.6584 1315.31 92.4686 1315.31 Z" fill="#000000" fill-rule="evenodd" fill-opacity="1" /><path clip-path="url(#clip420)" d="M122.63 1319.01 Q119.019 1319.01 117.191 1322.58 Q115.385 1326.12 115.385 1333.25 Q115.385 1340.36 117.191 1343.92 Q119.019 1347.46 122.63 1347.46 Q126.265 1347.46 128.07 1343.92 Q129.899 1340.36 129.899 1333.25 Q129.899 1326.12 128.07 1322.58 Q126.265 1319.01 122.63 1319.01 M122.63 1315.31 Q128.441 1315.31 131.496 1319.92 Q134.575 1324.5 134.575 1333.25 Q134.575 1341.98 131.496 1346.58 Q128.441 1351.17 122.63 1351.17 Q116.82 1351.17 113.742 1346.58 Q110.686 1341.98 110.686 1333.25 Q110.686 1324.5 113.742 1319.92 Q116.82 1315.31 122.63 1315.31 Z" fill="#000000" fill-rule="evenodd" fill-opacity="1" /><path clip-path="url(#clip420)" d="M65.1539 936.581 L53.3484 955.03 L65.1539 955.03 L65.1539 936.581 M63.927 932.507 L69.8066 932.507 L69.8066 955.03 L74.7372 955.03 L74.7372 958.918 L69.8066 958.918 L69.8066 967.067 L65.1539 967.067 L65.1539 958.918 L49.5521 958.918 L49.5521 954.405 L63.927 932.507 Z" fill="#000000" fill-rule="evenodd" fill-opacity="1" /><path clip-path="url(#clip420)" d="M92.4686 935.585 Q88.8575 935.585 87.0288 939.15 Q85.2232 942.692 85.2232 949.821 Q85.2232 956.928 87.0288 960.493 Q88.8575 964.034 92.4686 964.034 Q96.1028 964.034 97.9083 960.493 Q99.737 956.928 99.737 949.821 Q99.737 942.692 97.9083 939.15 Q96.1028 935.585 92.4686 935.585 M92.4686 931.882 Q98.2787 931.882 101.334 936.488 Q104.413 941.071 104.413 949.821 Q104.413 958.548 101.334 963.155 Q98.2787 967.738 92.4686 967.738 Q86.6584 967.738 83.5797 963.155 Q80.5242 958.548 80.5242 949.821 Q80.5242 941.071 83.5797 936.488 Q86.6584 931.882 92.4686 931.882 Z" fill="#000000" fill-rule="evenodd" fill-opacity="1" /><path clip-path="url(#clip420)" d="M122.63 935.585 Q119.019 935.585 117.191 939.15 Q115.385 942.692 115.385 949.821 Q115.385 956.928 117.191 960.493 Q119.019 964.034 122.63 964.034 Q126.265 964.034 128.07 960.493 Q129.899 956.928 129.899 949.821 Q129.899 942.692 128.07 939.15 Q126.265 935.585 122.63 935.585 M122.63 931.882 Q128.441 931.882 131.496 936.488 Q134.575 941.071 134.575 949.821 Q134.575 958.548 131.496 963.155 Q128.441 967.738 122.63 967.738 Q116.82 967.738 113.742 963.155 Q110.686 958.548 110.686 949.821 Q110.686 941.071 113.742 936.488 Q116.82 931.882 122.63 931.882 Z" fill="#000000" fill-rule="evenodd" fill-opacity="1" /><path clip-path="url(#clip420)" d="M52.353 549.079 L70.7094 549.079 L70.7094 553.014 L56.6354 553.014 L56.6354 561.486 Q57.6539 561.139 58.6724 560.977 Q59.691 560.792 60.7095 560.792 Q66.4965 560.792 69.8761 563.963 Q73.2557 567.134 73.2557 572.551 Q73.2557 578.129 69.7835 581.231 Q66.3113 584.31 59.9919 584.31 Q57.816 584.31 55.5475 583.94 Q53.3021 583.569 50.8947 582.828 L50.8947 578.129 Q52.978 579.264 55.2002 579.819 Q57.4225 580.375 59.8993 580.375 Q63.9039 580.375 66.2419 578.268 Q68.5798 576.162 68.5798 572.551 Q68.5798 568.94 66.2419 566.833 Q63.9039 564.727 59.8993 564.727 Q58.0243 564.727 56.1493 565.143 Q54.2975 565.56 52.353 566.44 L52.353 549.079 Z" fill="#000000" fill-rule="evenodd" fill-opacity="1" /><path clip-path="url(#clip420)" d="M92.4686 552.157 Q88.8575 552.157 87.0288 555.722 Q85.2232 559.264 85.2232 566.393 Q85.2232 573.5 87.0288 577.065 Q88.8575 580.606 92.4686 580.606 Q96.1028 580.606 97.9083 577.065 Q99.737 573.5 99.737 566.393 Q99.737 559.264 97.9083 555.722 Q96.1028 552.157 92.4686 552.157 M92.4686 548.454 Q98.2787 548.454 101.334 553.06 Q104.413 557.643 104.413 566.393 Q104.413 575.12 101.334 579.727 Q98.2787 584.31 92.4686 584.31 Q86.6584 584.31 83.5797 579.727 Q80.5242 575.12 80.5242 566.393 Q80.5242 557.643 83.5797 553.06 Q86.6584 548.454 92.4686 548.454 Z" fill="#000000" fill-rule="evenodd" fill-opacity="1" /><path clip-path="url(#clip420)" d="M122.63 552.157 Q119.019 552.157 117.191 555.722 Q115.385 559.264 115.385 566.393 Q115.385 573.5 117.191 577.065 Q119.019 580.606 122.63 580.606 Q126.265 580.606 128.07 577.065 Q129.899 573.5 129.899 566.393 Q129.899 559.264 128.07 555.722 Q126.265 552.157 122.63 552.157 M122.63 548.454 Q128.441 548.454 131.496 553.06 Q134.575 557.643 134.575 566.393 Q134.575 575.12 131.496 579.727 Q128.441 584.31 122.63 584.31 Q116.82 584.31 113.742 579.727 Q110.686 575.12 110.686 566.393 Q110.686 557.643 113.742 553.06 Q116.82 548.454 122.63 548.454 Z" fill="#000000" fill-rule="evenodd" fill-opacity="1" /><path clip-path="url(#clip420)" d="M62.8854 181.067 Q59.7373 181.067 57.8854 183.22 Q56.0567 185.373 56.0567 189.123 Q56.0567 192.85 57.8854 195.026 Q59.7373 197.178 62.8854 197.178 Q66.0335 197.178 67.8622 195.026 Q69.7141 192.85 69.7141 189.123 Q69.7141 185.373 67.8622 183.22 Q66.0335 181.067 62.8854 181.067 M72.1677 166.415 L72.1677 170.674 Q70.4085 169.841 68.6029 169.401 Q66.8206 168.961 65.0613 168.961 Q60.4317 168.961 57.978 172.086 Q55.5475 175.211 55.2002 181.53 Q56.566 179.516 58.6262 178.452 Q60.6863 177.364 63.1632 177.364 Q68.3715 177.364 71.3807 180.535 Q74.4131 183.683 74.4131 189.123 Q74.4131 194.447 71.265 197.664 Q68.1168 200.882 62.8854 200.882 Q56.89 200.882 53.7188 196.299 Q50.5475 191.692 50.5475 182.965 Q50.5475 174.771 54.4364 169.91 Q58.3252 165.026 64.8761 165.026 Q66.6354 165.026 68.4178 165.373 Q70.2233 165.72 72.1677 166.415 Z" fill="#000000" fill-rule="evenodd" fill-opacity="1" /><path clip-path="url(#clip420)" d="M92.4686 168.729 Q88.8575 168.729 87.0288 172.294 Q85.2232 175.836 85.2232 182.965 Q85.2232 190.072 87.0288 193.637 Q88.8575 197.178 92.4686 197.178 Q96.1028 197.178 97.9083 193.637 Q99.737 190.072 99.737 182.965 Q99.737 175.836 97.9083 172.294 Q96.1028 168.729 92.4686 168.729 M92.4686 165.026 Q98.2787 165.026 101.334 169.632 Q104.413 174.215 104.413 182.965 Q104.413 191.692 101.334 196.299 Q98.2787 200.882 92.4686 200.882 Q86.6584 200.882 83.5797 196.299 Q80.5242 191.692 80.5242 182.965 Q80.5242 174.215 83.5797 169.632 Q86.6584 165.026 92.4686 165.026 Z" fill="#000000" fill-rule="evenodd" fill-opacity="1" /><path clip-path="url(#clip420)" d="M122.63 168.729 Q119.019 168.729 117.191 172.294 Q115.385 175.836 115.385 182.965 Q115.385 190.072 117.191 193.637 Q119.019 197.178 122.63 197.178 Q126.265 197.178 128.07 193.637 Q129.899 190.072 129.899 182.965 Q129.899 175.836 128.07 172.294 Q126.265 168.729 122.63 168.729 M122.63 165.026 Q128.441 165.026 131.496 169.632 Q134.575 174.215 134.575 182.965 Q134.575 191.692 131.496 196.299 Q128.441 200.882 122.63 200.882 Q116.82 200.882 113.742 196.299 Q110.686 191.692 110.686 182.965 Q110.686 174.215 113.742 169.632 Q116.82 165.026 122.63 165.026 Z" fill="#000000" fill-rule="evenodd" fill-opacity="1" /><polyline clip-path="url(#clip422)" style="stroke:#009af9; stroke-linecap:butt; stroke-linejoin:round; stroke-width:4; stroke-opacity:1; fill:none" points="
  244.683,1738.69 259.829,1731.16 399.87,1659.5 484.028,1614.71 555.184,1575.84 632.478,1532.57 703.737,1491.72 780.133,1446.9 868.647,1393.66 947.307,1345.16 
  1016.28,1301.72 1091.49,1253.38 1167.14,1203.72 1250.78,1147.63 1330.37,1093.1 1413.11,1035.2 1482.77,985.505 1567.81,923.662 1645.72,865.876 1717.67,811.545 
  1790.55,755.567 1872.23,691.706 1946.25,632.811 2031,564.181 2109.46,499.496 2186.82,434.651 2261.93,370.673 2338.93,304.045 2423.28,229.836 2545.83,119.781 
  2570.97,96.8724 
  "/>
<polyline clip-path="url(#clip422)" style="stroke:#e26f46; stroke-linecap:butt; stroke-linejoin:round; stroke-width:4; stroke-opacity:1; fill:none" points="
  244.683,1751.15 259.829,1743.52 399.87,1671 484.028,1625.76 555.184,1586.52 632.478,1542.88 703.737,1501.71 780.133,1456.58 868.647,1402.99 947.307,1354.21 
  1016.28,1310.53 1091.49,1261.94 1167.14,1212.06 1250.78,1155.72 1330.37,1100.97 1413.11,1042.85 1482.77,992.988 1567.81,930.945 1645.72,872.986 1717.67,818.501 
  1790.55,762.374 1872.23,698.354 1946.25,639.32 2031,570.54 2109.46,505.72 2186.82,440.749 2261.93,376.652 2338.93,309.908 2423.28,235.577 2545.83,125.352 
  2570.97,102.411 
  "/>
<path clip-path="url(#clip420)" d="
M2232.15 261.215 L2558.56 261.215 L2558.56 105.695 L2232.15 105.695  Z
  " fill="#ffffff" fill-rule="evenodd" fill-opacity="1"/>
<polyline clip-path="url(#clip420)" style="stroke:#000000; stroke-linecap:butt; stroke-linejoin:round; stroke-width:4; stroke-opacity:1; fill:none" points="
  2232.15,261.215 2558.56,261.215 2558.56,105.695 2232.15,105.695 2232.15,261.215 
  "/>
<polyline clip-path="url(#clip420)" style="stroke:#009af9; stroke-linecap:butt; stroke-linejoin:round; stroke-width:4; stroke-opacity:1; fill:none" points="
  2259.54,157.535 2423.93,157.535 
  "/>
<path clip-path="url(#clip420)" d="M2465.18 177.223 Q2463.37 181.852 2461.66 183.264 Q2459.94 184.676 2457.07 184.676 L2453.67 184.676 L2453.67 181.112 L2456.17 181.112 Q2457.93 181.112 2458.9 180.278 Q2459.87 179.445 2461.06 176.343 L2461.82 174.399 L2451.33 148.889 L2455.85 148.889 L2463.95 169.167 L2472.05 148.889 L2476.56 148.889 L2465.18 177.223 Z" fill="#000000" fill-rule="evenodd" fill-opacity="1" /><path clip-path="url(#clip420)" d="M2483.86 170.88 L2491.5 170.88 L2491.5 144.515 L2483.19 146.181 L2483.19 141.922 L2491.45 140.255 L2496.12 140.255 L2496.12 170.88 L2503.76 170.88 L2503.76 174.815 L2483.86 174.815 L2483.86 170.88 Z" fill="#000000" fill-rule="evenodd" fill-opacity="1" /><polyline clip-path="url(#clip420)" style="stroke:#e26f46; stroke-linecap:butt; stroke-linejoin:round; stroke-width:4; stroke-opacity:1; fill:none" points="
  2259.54,209.375 2423.93,209.375 
  "/>
<path clip-path="url(#clip420)" d="M2465.18 229.063 Q2463.37 233.692 2461.66 235.104 Q2459.94 236.516 2457.07 236.516 L2453.67 236.516 L2453.67 232.952 L2456.17 232.952 Q2457.93 232.952 2458.9 232.118 Q2459.87 231.285 2461.06 228.183 L2461.82 226.239 L2451.33 200.729 L2455.85 200.729 L2463.95 221.007 L2472.05 200.729 L2476.56 200.729 L2465.18 229.063 Z" fill="#000000" fill-rule="evenodd" fill-opacity="1" /><path clip-path="url(#clip420)" d="M2487.07 222.72 L2503.39 222.72 L2503.39 226.655 L2481.45 226.655 L2481.45 222.72 Q2484.11 219.965 2488.69 215.336 Q2493.3 210.683 2494.48 209.341 Q2496.73 206.817 2497.61 205.081 Q2498.51 203.322 2498.51 201.632 Q2498.51 198.878 2496.56 197.142 Q2494.64 195.405 2491.54 195.405 Q2489.34 195.405 2486.89 196.169 Q2484.46 196.933 2481.68 198.484 L2481.68 193.762 Q2484.5 192.628 2486.96 192.049 Q2489.41 191.47 2491.45 191.47 Q2496.82 191.47 2500.01 194.155 Q2503.21 196.841 2503.21 201.331 Q2503.21 203.461 2502.4 205.382 Q2501.61 207.28 2499.5 209.873 Q2498.93 210.544 2495.82 213.762 Q2492.72 216.956 2487.07 222.72 Z" fill="#000000" fill-rule="evenodd" fill-opacity="1" /></svg>
