<?xml version="1.0" encoding="utf-8"?>
<svg xmlns="http://www.w3.org/2000/svg" xmlns:xlink="http://www.w3.org/1999/xlink" width="672" height="480" viewBox="0 0 2688 1920">
<defs>
  <clipPath id="clip300">
    <rect x="0" y="0" width="2688" height="1920"/>
  </clipPath>
</defs>
<path clip-path="url(#clip300)" d="
M0 1920 L2688 1920 L2688 0 L0 0  Z
  " fill="#ffffff" fill-rule="evenodd" fill-opacity="1"/>
<defs>
  <clipPath id="clip301">
    <rect x="537" y="0" width="1883" height="1883"/>
  </clipPath>
</defs>
<path clip-path="url(#clip300)" d="
M202.163 1800.78 L2640.76 1800.78 L2640.76 47.2441 L202.163 47.2441  Z
  " fill="#ffffff" fill-rule="evenodd" fill-opacity="1"/>
<defs>
  <clipPath id="clip302">
    <rect x="202" y="47" width="2440" height="1755"/>
  </clipPath>
</defs>
<polyline clip-path="url(#clip302)" style="stroke:#000000; stroke-linecap:butt; stroke-linejoin:round; stroke-width:2; stroke-opacity:0.1; fill:none" points="
  271.18,1800.78 271.18,47.2441 
  "/>
<polyline clip-path="url(#clip302)" style="stroke:#000000; stroke-linecap:butt; stroke-linejoin:round; stroke-width:2; stroke-opacity:0.1; fill:none" points="
  846.32,1800.78 846.32,47.2441 
  "/>
<polyline clip-path="url(#clip302)" style="stroke:#000000; stroke-linecap:butt; stroke-linejoin:round; stroke-width:2; stroke-opacity:0.1; fill:none" points="
  1421.46,1800.78 1421.46,47.2441 
  "/>
<polyline clip-path="url(#clip302)" style="stroke:#000000; stroke-linecap:butt; stroke-linejoin:round; stroke-width:2; stroke-opacity:0.1; fill:none" points="
  1996.6,1800.78 1996.6,47.2441 
  "/>
<polyline clip-path="url(#clip302)" style="stroke:#000000; stroke-linecap:butt; stroke-linejoin:round; stroke-width:2; stroke-opacity:0.1; fill:none" points="
  2571.74,1800.78 2571.74,47.2441 
  "/>
<polyline clip-path="url(#clip300)" style="stroke:#000000; stroke-linecap:butt; stroke-linejoin:round; stroke-width:4; stroke-opacity:1; fill:none" points="
  202.163,1800.78 2640.76,1800.78 
  "/>
<polyline clip-path="url(#clip300)" style="stroke:#000000; stroke-linecap:butt; stroke-linejoin:round; stroke-width:4; stroke-opacity:1; fill:none" points="
  271.18,1800.78 271.18,1781.88 
  "/>
<polyline clip-path="url(#clip300)" style="stroke:#000000; stroke-linecap:butt; stroke-linejoin:round; stroke-width:4; stroke-opacity:1; fill:none" points="
  846.32,1800.78 846.32,1781.88 
  "/>
<polyline clip-path="url(#clip300)" style="stroke:#000000; stroke-linecap:butt; stroke-linejoin:round; stroke-width:4; stroke-opacity:1; fill:none" points="
  1421.46,1800.78 1421.46,1781.88 
  "/>
<polyline clip-path="url(#clip300)" style="stroke:#000000; stroke-linecap:butt; stroke-linejoin:round; stroke-width:4; stroke-opacity:1; fill:none" points="
  1996.6,1800.78 1996.6,1781.88 
  "/>
<polyline clip-path="url(#clip300)" style="stroke:#000000; stroke-linecap:butt; stroke-linejoin:round; stroke-width:4; stroke-opacity:1; fill:none" points="
  2571.74,1800.78 2571.74,1781.88 
  "/>
<path clip-path="url(#clip300)" d="M210.162 1848.65 L239.838 1848.65 L239.838 1852.59 L210.162 1852.59 L210.162 1848.65 Z" fill="#000000" fill-rule="evenodd" fill-opacity="1" /><path clip-path="url(#clip300)" d="M250.74 1861.55 L258.379 1861.55 L258.379 1835.18 L250.069 1836.85 L250.069 1832.59 L258.333 1830.92 L263.009 1830.92 L263.009 1861.55 L270.648 1861.55 L270.648 1865.48 L250.74 1865.48 L250.74 1861.55 Z" fill="#000000" fill-rule="evenodd" fill-opacity="1" /><path clip-path="url(#clip300)" d="M290.092 1834 Q286.481 1834 284.652 1837.57 Q282.847 1841.11 282.847 1848.24 Q282.847 1855.34 284.652 1858.91 Q286.481 1862.45 290.092 1862.45 Q293.726 1862.45 295.532 1858.91 Q297.36 1855.34 297.36 1848.24 Q297.36 1841.11 295.532 1837.57 Q293.726 1834 290.092 1834 M290.092 1830.3 Q295.902 1830.3 298.958 1834.9 Q302.036 1839.49 302.036 1848.24 Q302.036 1856.96 298.958 1861.57 Q295.902 1866.15 290.092 1866.15 Q284.282 1866.15 281.203 1861.57 Q278.148 1856.96 278.148 1848.24 Q278.148 1839.49 281.203 1834.9 Q284.282 1830.3 290.092 1830.3 Z" fill="#000000" fill-rule="evenodd" fill-opacity="1" /><path clip-path="url(#clip300)" d="M320.254 1834 Q316.643 1834 314.814 1837.57 Q313.008 1841.11 313.008 1848.24 Q313.008 1855.34 314.814 1858.91 Q316.643 1862.45 320.254 1862.45 Q323.888 1862.45 325.694 1858.91 Q327.522 1855.34 327.522 1848.24 Q327.522 1841.11 325.694 1837.57 Q323.888 1834 320.254 1834 M320.254 1830.3 Q326.064 1830.3 329.119 1834.9 Q332.198 1839.49 332.198 1848.24 Q332.198 1856.96 329.119 1861.57 Q326.064 1866.15 320.254 1866.15 Q314.444 1866.15 311.365 1861.57 Q308.309 1856.96 308.309 1848.24 Q308.309 1839.49 311.365 1834.9 Q314.444 1830.3 320.254 1830.3 Z" fill="#000000" fill-rule="evenodd" fill-opacity="1" /><path clip-path="url(#clip300)" d="M800.383 1848.65 L830.058 1848.65 L830.058 1852.59 L800.383 1852.59 L800.383 1848.65 Z" fill="#000000" fill-rule="evenodd" fill-opacity="1" /><path clip-path="url(#clip300)" d="M840.197 1830.92 L858.553 1830.92 L858.553 1834.86 L844.479 1834.86 L844.479 1843.33 Q845.498 1842.98 846.517 1842.82 Q847.535 1842.64 848.554 1842.64 Q854.341 1842.64 857.72 1845.81 Q861.1 1848.98 861.1 1854.4 Q861.1 1859.97 857.628 1863.08 Q854.155 1866.15 847.836 1866.15 Q845.66 1866.15 843.392 1865.78 Q841.146 1865.41 838.739 1864.67 L838.739 1859.97 Q840.822 1861.11 843.044 1861.66 Q845.267 1862.22 847.743 1862.22 Q851.748 1862.22 854.086 1860.11 Q856.424 1858.01 856.424 1854.4 Q856.424 1850.78 854.086 1848.68 Q851.748 1846.57 847.743 1846.57 Q845.868 1846.57 843.993 1846.99 Q842.142 1847.4 840.197 1848.28 L840.197 1830.92 Z" fill="#000000" fill-rule="evenodd" fill-opacity="1" /><path clip-path="url(#clip300)" d="M880.313 1834 Q876.702 1834 874.873 1837.57 Q873.067 1841.11 873.067 1848.24 Q873.067 1855.34 874.873 1858.91 Q876.702 1862.45 880.313 1862.45 Q883.947 1862.45 885.752 1858.91 Q887.581 1855.34 887.581 1848.24 Q887.581 1841.11 885.752 1837.57 Q883.947 1834 880.313 1834 M880.313 1830.3 Q886.123 1830.3 889.178 1834.9 Q892.257 1839.49 892.257 1848.24 Q892.257 1856.96 889.178 1861.57 Q886.123 1866.15 880.313 1866.15 Q874.502 1866.15 871.424 1861.57 Q868.368 1856.96 868.368 1848.24 Q868.368 1839.49 871.424 1834.9 Q874.502 1830.3 880.313 1830.3 Z" fill="#000000" fill-rule="evenodd" fill-opacity="1" /><path clip-path="url(#clip300)" d="M1421.46 1834 Q1417.85 1834 1416.02 1837.57 Q1414.21 1841.11 1414.21 1848.24 Q1414.21 1855.34 1416.02 1858.91 Q1417.85 1862.45 1421.46 1862.45 Q1425.09 1862.45 1426.9 1858.91 Q1428.73 1855.34 1428.73 1848.24 Q1428.73 1841.11 1426.9 1837.57 Q1425.09 1834 1421.46 1834 M1421.46 1830.3 Q1427.27 1830.3 1430.33 1834.9 Q1433.4 1839.49 1433.4 1848.24 Q1433.4 1856.96 1430.33 1861.57 Q1427.27 1866.15 1421.46 1866.15 Q1415.65 1866.15 1412.57 1861.57 Q1409.52 1856.96 1409.52 1848.24 Q1409.52 1839.49 1412.57 1834.9 Q1415.65 1830.3 1421.46 1830.3 Z" fill="#000000" fill-rule="evenodd" fill-opacity="1" /><path clip-path="url(#clip300)" d="M1971.3 1830.92 L1989.65 1830.92 L1989.65 1834.86 L1975.58 1834.86 L1975.58 1843.33 Q1976.6 1842.98 1977.62 1842.82 Q1978.64 1842.64 1979.65 1842.64 Q1985.44 1842.64 1988.82 1845.81 Q1992.2 1848.98 1992.2 1854.4 Q1992.2 1859.97 1988.73 1863.08 Q1985.26 1866.15 1978.94 1866.15 Q1976.76 1866.15 1974.49 1865.78 Q1972.25 1865.41 1969.84 1864.67 L1969.84 1859.97 Q1971.92 1861.11 1974.15 1861.66 Q1976.37 1862.22 1978.84 1862.22 Q1982.85 1862.22 1985.19 1860.11 Q1987.53 1858.01 1987.53 1854.4 Q1987.53 1850.78 1985.19 1848.68 Q1982.85 1846.57 1978.84 1846.57 Q1976.97 1846.57 1975.09 1846.99 Q1973.24 1847.4 1971.3 1848.28 L1971.3 1830.92 Z" fill="#000000" fill-rule="evenodd" fill-opacity="1" /><path clip-path="url(#clip300)" d="M2011.41 1834 Q2007.8 1834 2005.97 1837.57 Q2004.17 1841.11 2004.17 1848.24 Q2004.17 1855.34 2005.97 1858.91 Q2007.8 1862.45 2011.41 1862.45 Q2015.05 1862.45 2016.85 1858.91 Q2018.68 1855.34 2018.68 1848.24 Q2018.68 1841.11 2016.85 1837.57 Q2015.05 1834 2011.41 1834 M2011.41 1830.3 Q2017.22 1830.3 2020.28 1834.9 Q2023.36 1839.49 2023.36 1848.24 Q2023.36 1856.96 2020.28 1861.57 Q2017.22 1866.15 2011.41 1866.15 Q2005.6 1866.15 2002.53 1861.57 Q1999.47 1856.96 1999.47 1848.24 Q1999.47 1839.49 2002.53 1834.9 Q2005.6 1830.3 2011.41 1830.3 Z" fill="#000000" fill-rule="evenodd" fill-opacity="1" /><path clip-path="url(#clip300)" d="M2531.35 1861.55 L2538.98 1861.55 L2538.98 1835.18 L2530.67 1836.85 L2530.67 1832.59 L2538.94 1830.92 L2543.61 1830.92 L2543.61 1861.55 L2551.25 1861.55 L2551.25 1865.48 L2531.35 1865.48 L2531.35 1861.55 Z" fill="#000000" fill-rule="evenodd" fill-opacity="1" /><path clip-path="url(#clip300)" d="M2570.7 1834 Q2567.09 1834 2565.26 1837.57 Q2563.45 1841.11 2563.45 1848.24 Q2563.45 1855.34 2565.26 1858.91 Q2567.09 1862.45 2570.7 1862.45 Q2574.33 1862.45 2576.14 1858.91 Q2577.97 1855.34 2577.97 1848.24 Q2577.97 1841.11 2576.14 1837.57 Q2574.33 1834 2570.7 1834 M2570.7 1830.3 Q2576.51 1830.3 2579.56 1834.9 Q2582.64 1839.49 2582.64 1848.24 Q2582.64 1856.96 2579.56 1861.57 Q2576.51 1866.15 2570.7 1866.15 Q2564.89 1866.15 2561.81 1861.57 Q2558.75 1856.96 2558.75 1848.24 Q2558.75 1839.49 2561.81 1834.9 Q2564.89 1830.3 2570.7 1830.3 Z" fill="#000000" fill-rule="evenodd" fill-opacity="1" /><path clip-path="url(#clip300)" d="M2600.86 1834 Q2597.25 1834 2595.42 1837.57 Q2593.61 1841.11 2593.61 1848.24 Q2593.61 1855.34 2595.42 1858.91 Q2597.25 1862.45 2600.86 1862.45 Q2604.49 1862.45 2606.3 1858.91 Q2608.13 1855.34 2608.13 1848.24 Q2608.13 1841.11 2606.3 1837.57 Q2604.49 1834 2600.86 1834 M2600.86 1830.3 Q2606.67 1830.3 2609.73 1834.9 Q2612.8 1839.49 2612.8 1848.24 Q2612.8 1856.96 2609.73 1861.57 Q2606.67 1866.15 2600.86 1866.15 Q2595.05 1866.15 2591.97 1861.57 Q2588.91 1856.96 2588.91 1848.24 Q2588.91 1839.49 2591.97 1834.9 Q2595.05 1830.3 2600.86 1830.3 Z" fill="#000000" fill-rule="evenodd" fill-opacity="1" /><polyline clip-path="url(#clip302)" style="stroke:#000000; stroke-linecap:butt; stroke-linejoin:round; stroke-width:2; stroke-opacity:0.1; fill:none" points="
  202.163,1485.14 2640.76,1485.14 
  "/>
<polyline clip-path="url(#clip302)" style="stroke:#000000; stroke-linecap:butt; stroke-linejoin:round; stroke-width:2; stroke-opacity:0.1; fill:none" points="
  202.163,1029.14 2640.76,1029.14 
  "/>
<polyline clip-path="url(#clip302)" style="stroke:#000000; stroke-linecap:butt; stroke-linejoin:round; stroke-width:2; stroke-opacity:0.1; fill:none" points="
  202.163,573.151 2640.76,573.151 
  "/>
<polyline clip-path="url(#clip302)" style="stroke:#000000; stroke-linecap:butt; stroke-linejoin:round; stroke-width:2; stroke-opacity:0.1; fill:none" points="
  202.163,117.157 2640.76,117.157 
  "/>
<polyline clip-path="url(#clip300)" style="stroke:#000000; stroke-linecap:butt; stroke-linejoin:round; stroke-width:4; stroke-opacity:1; fill:none" points="
  202.163,1800.78 202.163,47.2441 
  "/>
<polyline clip-path="url(#clip300)" style="stroke:#000000; stroke-linecap:butt; stroke-linejoin:round; stroke-width:4; stroke-opacity:1; fill:none" points="
  202.163,1485.14 221.061,1485.14 
  "/>
<polyline clip-path="url(#clip300)" style="stroke:#000000; stroke-linecap:butt; stroke-linejoin:round; stroke-width:4; stroke-opacity:1; fill:none" points="
  202.163,1029.14 221.061,1029.14 
  "/>
<polyline clip-path="url(#clip300)" style="stroke:#000000; stroke-linecap:butt; stroke-linejoin:round; stroke-width:4; stroke-opacity:1; fill:none" points="
  202.163,573.151 221.061,573.151 
  "/>
<polyline clip-path="url(#clip300)" style="stroke:#000000; stroke-linecap:butt; stroke-linejoin:round; stroke-width:4; stroke-opacity:1; fill:none" points="
  202.163,117.157 221.061,117.157 
  "/>
<path clip-path="url(#clip300)" d="M149.899 1470.94 Q146.288 1470.94 144.459 1474.5 Q142.653 1478.04 142.653 1485.17 Q142.653 1492.28 144.459 1495.84 Q146.288 1499.39 149.899 1499.39 Q153.533 1499.39 155.339 1495.84 Q157.167 1492.28 157.167 1485.17 Q157.167 1478.04 155.339 1474.5 Q153.533 1470.94 149.899 1470.94 M149.899 1467.23 Q155.709 1467.23 158.765 1471.84 Q161.843 1476.42 161.843 1485.17 Q161.843 1493.9 158.765 1498.51 Q155.709 1503.09 149.899 1503.09 Q144.089 1503.09 141.01 1498.51 Q137.954 1493.9 137.954 1485.17 Q137.954 1476.42 141.01 1471.84 Q144.089 1467.23 149.899 1467.23 Z" fill="#000000" fill-rule="evenodd" fill-opacity="1" /><path clip-path="url(#clip300)" d="M79.6214 1011.86 L97.9778 1011.86 L97.9778 1015.8 L83.9038 1015.8 L83.9038 1024.27 Q84.9223 1023.92 85.9408 1023.76 Q86.9593 1023.58 87.9778 1023.58 Q93.7649 1023.58 97.1445 1026.75 Q100.524 1029.92 100.524 1035.34 Q100.524 1040.92 97.0519 1044.02 Q93.5797 1047.1 87.2603 1047.1 Q85.0843 1047.1 82.8158 1046.73 Q80.5705 1046.36 78.1631 1045.61 L78.1631 1040.92 Q80.2464 1042.05 82.4686 1042.61 Q84.6908 1043.16 87.1677 1043.16 Q91.1723 1043.16 93.5102 1041.05 Q95.8482 1038.95 95.8482 1035.34 Q95.8482 1031.73 93.5102 1029.62 Q91.1723 1027.51 87.1677 1027.51 Q85.2927 1027.51 83.4177 1027.93 Q81.5658 1028.35 79.6214 1029.23 L79.6214 1011.86 Z" fill="#000000" fill-rule="evenodd" fill-opacity="1" /><path clip-path="url(#clip300)" d="M119.737 1014.94 Q116.126 1014.94 114.297 1018.51 Q112.492 1022.05 112.492 1029.18 Q112.492 1036.29 114.297 1039.85 Q116.126 1043.39 119.737 1043.39 Q123.371 1043.39 125.177 1039.85 Q127.005 1036.29 127.005 1029.18 Q127.005 1022.05 125.177 1018.51 Q123.371 1014.94 119.737 1014.94 M119.737 1011.24 Q125.547 1011.24 128.603 1015.85 Q131.681 1020.43 131.681 1029.18 Q131.681 1037.91 128.603 1042.51 Q125.547 1047.1 119.737 1047.1 Q113.927 1047.1 110.848 1042.51 Q107.793 1037.91 107.793 1029.18 Q107.793 1020.43 110.848 1015.85 Q113.927 1011.24 119.737 1011.24 Z" fill="#000000" fill-rule="evenodd" fill-opacity="1" /><path clip-path="url(#clip300)" d="M149.899 1014.94 Q146.288 1014.94 144.459 1018.51 Q142.653 1022.05 142.653 1029.18 Q142.653 1036.29 144.459 1039.85 Q146.288 1043.39 149.899 1043.39 Q153.533 1043.39 155.339 1039.85 Q157.167 1036.29 157.167 1029.18 Q157.167 1022.05 155.339 1018.51 Q153.533 1014.94 149.899 1014.94 M149.899 1011.24 Q155.709 1011.24 158.765 1015.85 Q161.843 1020.43 161.843 1029.18 Q161.843 1037.91 158.765 1042.51 Q155.709 1047.1 149.899 1047.1 Q144.089 1047.1 141.01 1042.51 Q137.954 1037.91 137.954 1029.18 Q137.954 1020.43 141.01 1015.85 Q144.089 1011.24 149.899 1011.24 Z" fill="#000000" fill-rule="evenodd" fill-opacity="1" /><path clip-path="url(#clip300)" d="M50.2234 586.496 L57.8623 586.496 L57.8623 560.13 L49.5521 561.797 L49.5521 557.537 L57.816 555.871 L62.4919 555.871 L62.4919 586.496 L70.1307 586.496 L70.1307 590.431 L50.2234 590.431 L50.2234 586.496 Z" fill="#000000" fill-rule="evenodd" fill-opacity="1" /><path clip-path="url(#clip300)" d="M89.5751 558.949 Q85.964 558.949 84.1353 562.514 Q82.3297 566.056 82.3297 573.186 Q82.3297 580.292 84.1353 583.857 Q85.964 587.398 89.5751 587.398 Q93.2093 587.398 95.0148 583.857 Q96.8435 580.292 96.8435 573.186 Q96.8435 566.056 95.0148 562.514 Q93.2093 558.949 89.5751 558.949 M89.5751 555.246 Q95.3852 555.246 98.4408 559.852 Q101.519 564.436 101.519 573.186 Q101.519 581.912 98.4408 586.519 Q95.3852 591.102 89.5751 591.102 Q83.7649 591.102 80.6862 586.519 Q77.6307 581.912 77.6307 573.186 Q77.6307 564.436 80.6862 559.852 Q83.7649 555.246 89.5751 555.246 Z" fill="#000000" fill-rule="evenodd" fill-opacity="1" /><path clip-path="url(#clip300)" d="M119.737 558.949 Q116.126 558.949 114.297 562.514 Q112.492 566.056 112.492 573.186 Q112.492 580.292 114.297 583.857 Q116.126 587.398 119.737 587.398 Q123.371 587.398 125.177 583.857 Q127.005 580.292 127.005 573.186 Q127.005 566.056 125.177 562.514 Q123.371 558.949 119.737 558.949 M119.737 555.246 Q125.547 555.246 128.603 559.852 Q131.681 564.436 131.681 573.186 Q131.681 581.912 128.603 586.519 Q125.547 591.102 119.737 591.102 Q113.927 591.102 110.848 586.519 Q107.793 581.912 107.793 573.186 Q107.793 564.436 110.848 559.852 Q113.927 555.246 119.737 555.246 Z" fill="#000000" fill-rule="evenodd" fill-opacity="1" /><path clip-path="url(#clip300)" d="M149.899 558.949 Q146.288 558.949 144.459 562.514 Q142.653 566.056 142.653 573.186 Q142.653 580.292 144.459 583.857 Q146.288 587.398 149.899 587.398 Q153.533 587.398 155.339 583.857 Q157.167 580.292 157.167 573.186 Q157.167 566.056 155.339 562.514 Q153.533 558.949 149.899 558.949 M149.899 555.246 Q155.709 555.246 158.765 559.852 Q161.843 564.436 161.843 573.186 Q161.843 581.912 158.765 586.519 Q155.709 591.102 149.899 591.102 Q144.089 591.102 141.01 586.519 Q137.954 581.912 137.954 573.186 Q137.954 564.436 141.01 559.852 Q144.089 555.246 149.899 555.246 Z" fill="#000000" fill-rule="evenodd" fill-opacity="1" /><path clip-path="url(#clip300)" d="M50.2234 130.502 L57.8623 130.502 L57.8623 104.136 L49.5521 105.803 L49.5521 101.544 L57.816 99.877 L62.4919 99.877 L62.4919 130.502 L70.1307 130.502 L70.1307 134.437 L50.2234 134.437 L50.2234 130.502 Z" fill="#000000" fill-rule="evenodd" fill-opacity="1" /><path clip-path="url(#clip300)" d="M79.6214 99.877 L97.9778 99.877 L97.9778 103.812 L83.9038 103.812 L83.9038 112.284 Q84.9223 111.937 85.9408 111.775 Q86.9593 111.59 87.9778 111.59 Q93.7649 111.59 97.1445 114.761 Q100.524 117.932 100.524 123.349 Q100.524 128.928 97.0519 132.03 Q93.5797 135.108 87.2603 135.108 Q85.0843 135.108 82.8158 134.738 Q80.5705 134.368 78.1631 133.627 L78.1631 128.928 Q80.2464 130.062 82.4686 130.618 Q84.6908 131.173 87.1677 131.173 Q91.1723 131.173 93.5102 129.067 Q95.8482 126.96 95.8482 123.349 Q95.8482 119.738 93.5102 117.632 Q91.1723 115.525 87.1677 115.525 Q85.2927 115.525 83.4177 115.942 Q81.5658 116.358 79.6214 117.238 L79.6214 99.877 Z" fill="#000000" fill-rule="evenodd" fill-opacity="1" /><path clip-path="url(#clip300)" d="M119.737 102.956 Q116.126 102.956 114.297 106.52 Q112.492 110.062 112.492 117.192 Q112.492 124.298 114.297 127.863 Q116.126 131.405 119.737 131.405 Q123.371 131.405 125.177 127.863 Q127.005 124.298 127.005 117.192 Q127.005 110.062 125.177 106.52 Q123.371 102.956 119.737 102.956 M119.737 99.252 Q125.547 99.252 128.603 103.858 Q131.681 108.442 131.681 117.192 Q131.681 125.919 128.603 130.525 Q125.547 135.108 119.737 135.108 Q113.927 135.108 110.848 130.525 Q107.793 125.919 107.793 117.192 Q107.793 108.442 110.848 103.858 Q113.927 99.252 119.737 99.252 Z" fill="#000000" fill-rule="evenodd" fill-opacity="1" /><path clip-path="url(#clip300)" d="M149.899 102.956 Q146.288 102.956 144.459 106.52 Q142.653 110.062 142.653 117.192 Q142.653 124.298 144.459 127.863 Q146.288 131.405 149.899 131.405 Q153.533 131.405 155.339 127.863 Q157.167 124.298 157.167 117.192 Q157.167 110.062 155.339 106.52 Q153.533 102.956 149.899 102.956 M149.899 99.252 Q155.709 99.252 158.765 103.858 Q161.843 108.442 161.843 117.192 Q161.843 125.919 158.765 130.525 Q155.709 135.108 149.899 135.108 Q144.089 135.108 141.01 130.525 Q137.954 125.919 137.954 117.192 Q137.954 108.442 141.01 103.858 Q144.089 99.252 149.899 99.252 Z" fill="#000000" fill-rule="evenodd" fill-opacity="1" /><polyline clip-path="url(#clip302)" style="stroke:#009af9; stroke-linecap:butt; stroke-linejoin:round; stroke-width:4; stroke-opacity:1; fill:none" points="
  271.18,1580.12 286.158,1578.93 424.65,1567.97 507.878,1561.39 578.247,1555.82 654.686,1549.78 725.157,1544.21 800.709,1538.25 888.243,1531.35 966.033,1525.24 
  1034.25,1519.9 1108.62,1514.11 1183.44,1508.37 1224.79,1505.27 1266.15,1502.29 1285.83,1500.96 1305.5,1499.74 1315.34,1499.2 1325.18,1498.74 1335.02,1498.39 
  1344.86,1498.25 1349.97,1498.3 1355.09,1498.51 1360.2,1498.94 1365.31,1499.78 1367.87,1500.45 1370.43,1501.38 1371.71,1501.99 1372.99,1502.73 1374.27,1503.64 
  1375.54,1504.78 1376.82,1506.22 1378.1,1508.12 1379.38,1510.69 1380.66,1514.34 1381.3,1516.8 1381.94,1519.91 1382.58,1523.94 1383.22,1529.36 1383.85,1537.04 
  1384.49,1548.74 1385.13,1568.72 1385.77,1610.42 1386.41,1751.15 1387.05,96.8724 1387.69,1302.45 1388.33,1390.08 1388.97,1422.16 1389.61,1438.79 1390.25,1448.94 
  1390.89,1455.78 1391.53,1460.7 1392.17,1464.4 1392.81,1467.28 1393.44,1469.58 1394.72,1473.02 1396,1475.47 1397.28,1477.28 1398.56,1478.67 1399.84,1479.77 
  1401.12,1480.65 1403.67,1481.97 1406.23,1482.88 1408.79,1483.53 1411.35,1484.01 1413.9,1484.36 1416.46,1484.62 1421.57,1484.94 1426.69,1485.09 1435.3,1485.13 
  1443.91,1485.13 1446.06,1485.18 1448.22,1485.28 1449.29,1485.38 1450.37,1485.54 1451.45,1485.79 1452.52,1486.22 1453.06,1486.57 1453.6,1487.09 1454.14,1487.93 
  1454.67,1489.49 1455.21,1493.32 1455.75,1516.23 1456.29,1462.22 1456.83,1475.84 1457.37,1478.95 1457.9,1480.31 1458.44,1481.07 1458.98,1481.55 1460.06,1482.1 
  1461.13,1482.4 1463.29,1482.68 1465.44,1482.78 1467.59,1482.79 1469.74,1482.76 1474.05,1482.62 1478.35,1482.43 1486.96,1481.97 1495.58,1481.45 1537.63,1478.56 
  1579.68,1475.46 1618.2,1472.54 1656.72,1469.58 1727.88,1464.06 1799.95,1458.42 1880.73,1452.07 1953.93,1446.31 2037.74,1439.7 2115.34,1433.57 2191.84,1427.52 
  2266.12,1421.65 2342.26,1415.63 2425.69,1409.03 2546.88,1399.43 2571.74,1397.46 
  "/>
<path clip-path="url(#clip300)" d="
M2236.08 209.375 L2559.47 209.375 L2559.47 105.695 L2236.08 105.695  Z
  " fill="#ffffff" fill-rule="evenodd" fill-opacity="1"/>
<polyline clip-path="url(#clip300)" style="stroke:#000000; stroke-linecap:butt; stroke-linejoin:round; stroke-width:4; stroke-opacity:1; fill:none" points="
  2236.08,209.375 2559.47,209.375 2559.47,105.695 2236.08,105.695 2236.08,209.375 
  "/>
<polyline clip-path="url(#clip300)" style="stroke:#009af9; stroke-linecap:butt; stroke-linejoin:round; stroke-width:4; stroke-opacity:1; fill:none" points="
  2263.18,157.535 2425.75,157.535 
  "/>
<path clip-path="url(#clip300)" d="M2466.69 177.223 Q2464.89 181.852 2463.17 183.264 Q2461.46 184.676 2458.59 184.676 L2455.19 184.676 L2455.19 181.112 L2457.69 181.112 Q2459.45 181.112 2460.42 180.278 Q2461.39 179.445 2462.57 176.343 L2463.33 174.399 L2452.85 148.889 L2457.36 148.889 L2465.46 169.167 L2473.57 148.889 L2478.08 148.889 L2466.69 177.223 Z" fill="#000000" fill-rule="evenodd" fill-opacity="1" /><path clip-path="url(#clip300)" d="M2485.37 170.88 L2493.01 170.88 L2493.01 144.515 L2484.7 146.181 L2484.7 141.922 L2492.96 140.255 L2497.64 140.255 L2497.64 170.88 L2505.28 170.88 L2505.28 174.815 L2485.37 174.815 L2485.37 170.88 Z" fill="#000000" fill-rule="evenodd" fill-opacity="1" /></svg>
