<?xml version="1.0" encoding="utf-8"?>
<svg xmlns="http://www.w3.org/2000/svg" xmlns:xlink="http://www.w3.org/1999/xlink" width="672" height="480" viewBox="0 0 2688 1920">
<defs>
  <clipPath id="clip440">
    <rect x="0" y="0" width="2688" height="1920"/>
  </clipPath>
</defs>
<path clip-path="url(#clip440)" d="
M0 1920 L2688 1920 L2688 0 L0 0  Z
  " fill="#ffffff" fill-rule="evenodd" fill-opacity="1"/>
<defs>
  <clipPath id="clip441">
    <rect x="537" y="0" width="1883" height="1883"/>
  </clipPath>
</defs>
<path clip-path="url(#clip440)" d="
M317.325 1800.78 L2640.76 1800.78 L2640.76 47.2441 L317.325 47.2441  Z
  " fill="#ffffff" fill-rule="evenodd" fill-opacity="1"/>
<defs>
  <clipPath id="clip442">
    <rect x="317" y="47" width="2324" height="1755"/>
  </clipPath>
</defs>
<polyline clip-path="url(#clip442)" style="stroke:#000000; stroke-linecap:round; stroke-linejoin:round; stroke-width:2; stroke-opacity:0.1; fill:none" points="
  383.082,1800.78 383.082,47.2441 
  "/>
<polyline clip-path="url(#clip442)" style="stroke:#000000; stroke-linecap:round; stroke-linejoin:round; stroke-width:2; stroke-opacity:0.1; fill:none" points="
  748.401,1800.78 748.401,47.2441 
  "/>
<polyline clip-path="url(#clip442)" style="stroke:#000000; stroke-linecap:round; stroke-linejoin:round; stroke-width:2; stroke-opacity:0.1; fill:none" points="
  1113.72,1800.78 1113.72,47.2441 
  "/>
<polyline clip-path="url(#clip442)" style="stroke:#000000; stroke-linecap:round; stroke-linejoin:round; stroke-width:2; stroke-opacity:0.1; fill:none" points="
  1479.04,1800.78 1479.04,47.2441 
  "/>
<polyline clip-path="url(#clip442)" style="stroke:#000000; stroke-linecap:round; stroke-linejoin:round; stroke-width:2; stroke-opacity:0.1; fill:none" points="
  1844.36,1800.78 1844.36,47.2441 
  "/>
<polyline clip-path="url(#clip442)" style="stroke:#000000; stroke-linecap:round; stroke-linejoin:round; stroke-width:2; stroke-opacity:0.1; fill:none" points="
  2209.68,1800.78 2209.68,47.2441 
  "/>
<polyline clip-path="url(#clip442)" style="stroke:#000000; stroke-linecap:round; stroke-linejoin:round; stroke-width:2; stroke-opacity:0.1; fill:none" points="
  2575,1800.78 2575,47.2441 
  "/>
<polyline clip-path="url(#clip440)" style="stroke:#000000; stroke-linecap:round; stroke-linejoin:round; stroke-width:4; stroke-opacity:1; fill:none" points="
  317.325,1800.78 2640.76,1800.78 
  "/>
<polyline clip-path="url(#clip440)" style="stroke:#000000; stroke-linecap:round; stroke-linejoin:round; stroke-width:4; stroke-opacity:1; fill:none" points="
  383.082,1800.78 383.082,1781.88 
  "/>
<polyline clip-path="url(#clip440)" style="stroke:#000000; stroke-linecap:round; stroke-linejoin:round; stroke-width:4; stroke-opacity:1; fill:none" points="
  748.401,1800.78 748.401,1781.88 
  "/>
<polyline clip-path="url(#clip440)" style="stroke:#000000; stroke-linecap:round; stroke-linejoin:round; stroke-width:4; stroke-opacity:1; fill:none" points="
  1113.72,1800.78 1113.72,1781.88 
  "/>
<polyline clip-path="url(#clip440)" style="stroke:#000000; stroke-linecap:round; stroke-linejoin:round; stroke-width:4; stroke-opacity:1; fill:none" points="
  1479.04,1800.78 1479.04,1781.88 
  "/>
<polyline clip-path="url(#clip440)" style="stroke:#000000; stroke-linecap:round; stroke-linejoin:round; stroke-width:4; stroke-opacity:1; fill:none" points="
  1844.36,1800.78 1844.36,1781.88 
  "/>
<polyline clip-path="url(#clip440)" style="stroke:#000000; stroke-linecap:round; stroke-linejoin:round; stroke-width:4; stroke-opacity:1; fill:none" points="
  2209.68,1800.78 2209.68,1781.88 
  "/>
<polyline clip-path="url(#clip440)" style="stroke:#000000; stroke-linecap:round; stroke-linejoin:round; stroke-width:4; stroke-opacity:1; fill:none" points="
  2575,1800.78 2575,1781.88 
  "/>
<path clip-path="url(#clip440)" d="M352.55 1848.65 L382.226 1848.65 L382.226 1852.59 L352.55 1852.59 L352.55 1848.65 Z" fill="#000000" fill-rule="evenodd" fill-opacity="1" /><path clip-path="url(#clip440)" d="M406.485 1846.85 Q409.841 1847.57 411.716 1849.84 Q413.614 1852.1 413.614 1855.44 Q413.614 1860.55 410.096 1863.35 Q406.577 1866.15 400.096 1866.15 Q397.92 1866.15 395.605 1865.71 Q393.314 1865.3 390.86 1864.44 L390.86 1859.93 Q392.804 1861.06 395.119 1861.64 Q397.434 1862.22 399.957 1862.22 Q404.355 1862.22 406.647 1860.48 Q408.962 1858.75 408.962 1855.44 Q408.962 1852.38 406.809 1850.67 Q404.679 1848.93 400.86 1848.93 L396.832 1848.93 L396.832 1845.09 L401.045 1845.09 Q404.494 1845.09 406.323 1843.72 Q408.151 1842.34 408.151 1839.74 Q408.151 1837.08 406.253 1835.67 Q404.378 1834.23 400.86 1834.23 Q398.938 1834.23 396.739 1834.65 Q394.54 1835.07 391.901 1835.95 L391.901 1831.78 Q394.564 1831.04 396.878 1830.67 Q399.216 1830.3 401.276 1830.3 Q406.6 1830.3 409.702 1832.73 Q412.804 1835.14 412.804 1839.26 Q412.804 1842.13 411.161 1844.12 Q409.517 1846.09 406.485 1846.85 Z" fill="#000000" fill-rule="evenodd" fill-opacity="1" /><path clip-path="url(#clip440)" d="M718.344 1848.65 L748.02 1848.65 L748.02 1852.59 L718.344 1852.59 L718.344 1848.65 Z" fill="#000000" fill-rule="evenodd" fill-opacity="1" /><path clip-path="url(#clip440)" d="M762.14 1861.55 L778.459 1861.55 L778.459 1865.48 L756.515 1865.48 L756.515 1861.55 Q759.177 1858.79 763.76 1854.16 Q768.367 1849.51 769.547 1848.17 Q771.793 1845.65 772.672 1843.91 Q773.575 1842.15 773.575 1840.46 Q773.575 1837.71 771.631 1835.97 Q769.709 1834.23 766.607 1834.23 Q764.408 1834.23 761.955 1835 Q759.524 1835.76 756.746 1837.31 L756.746 1832.59 Q759.57 1831.46 762.024 1830.88 Q764.478 1830.3 766.515 1830.3 Q771.885 1830.3 775.08 1832.98 Q778.274 1835.67 778.274 1840.16 Q778.274 1842.29 777.464 1844.21 Q776.677 1846.11 774.57 1848.7 Q773.992 1849.37 770.89 1852.59 Q767.788 1855.78 762.14 1861.55 Z" fill="#000000" fill-rule="evenodd" fill-opacity="1" /><path clip-path="url(#clip440)" d="M1083.48 1848.65 L1113.15 1848.65 L1113.15 1852.59 L1083.48 1852.59 L1083.48 1848.65 Z" fill="#000000" fill-rule="evenodd" fill-opacity="1" /><path clip-path="url(#clip440)" d="M1124.06 1861.55 L1131.7 1861.55 L1131.7 1835.18 L1123.39 1836.85 L1123.39 1832.59 L1131.65 1830.92 L1136.32 1830.92 L1136.32 1861.55 L1143.96 1861.55 L1143.96 1865.48 L1124.06 1865.48 L1124.06 1861.55 Z" fill="#000000" fill-rule="evenodd" fill-opacity="1" /><path clip-path="url(#clip440)" d="M1479.04 1834 Q1475.43 1834 1473.6 1837.57 Q1471.79 1841.11 1471.79 1848.24 Q1471.79 1855.34 1473.6 1858.91 Q1475.43 1862.45 1479.04 1862.45 Q1482.67 1862.45 1484.48 1858.91 Q1486.31 1855.34 1486.31 1848.24 Q1486.31 1841.11 1484.48 1837.57 Q1482.67 1834 1479.04 1834 M1479.04 1830.3 Q1484.85 1830.3 1487.91 1834.9 Q1490.98 1839.49 1490.98 1848.24 Q1490.98 1856.96 1487.91 1861.57 Q1484.85 1866.15 1479.04 1866.15 Q1473.23 1866.15 1470.15 1861.57 Q1467.1 1856.96 1467.1 1848.24 Q1467.1 1839.49 1470.15 1834.9 Q1473.23 1830.3 1479.04 1830.3 Z" fill="#000000" fill-rule="evenodd" fill-opacity="1" /><path clip-path="url(#clip440)" d="M1834.74 1861.55 L1842.38 1861.55 L1842.38 1835.18 L1834.07 1836.85 L1834.07 1832.59 L1842.33 1830.92 L1847.01 1830.92 L1847.01 1861.55 L1854.65 1861.55 L1854.65 1865.48 L1834.74 1865.48 L1834.74 1861.55 Z" fill="#000000" fill-rule="evenodd" fill-opacity="1" /><path clip-path="url(#clip440)" d="M2204.33 1861.55 L2220.65 1861.55 L2220.65 1865.48 L2198.71 1865.48 L2198.71 1861.55 Q2201.37 1858.79 2205.95 1854.16 Q2210.56 1849.51 2211.74 1848.17 Q2213.98 1845.65 2214.86 1843.91 Q2215.77 1842.15 2215.77 1840.46 Q2215.77 1837.71 2213.82 1835.97 Q2211.9 1834.23 2208.8 1834.23 Q2206.6 1834.23 2204.15 1835 Q2201.72 1835.76 2198.94 1837.31 L2198.94 1832.59 Q2201.76 1831.46 2204.22 1830.88 Q2206.67 1830.3 2208.71 1830.3 Q2214.08 1830.3 2217.27 1832.98 Q2220.47 1835.67 2220.47 1840.16 Q2220.47 1842.29 2219.66 1844.21 Q2218.87 1846.11 2216.76 1848.7 Q2216.18 1849.37 2213.08 1852.59 Q2209.98 1855.78 2204.33 1861.55 Z" fill="#000000" fill-rule="evenodd" fill-opacity="1" /><path clip-path="url(#clip440)" d="M2579.25 1846.85 Q2582.6 1847.57 2584.48 1849.84 Q2586.38 1852.1 2586.38 1855.44 Q2586.38 1860.55 2582.86 1863.35 Q2579.34 1866.15 2572.86 1866.15 Q2570.68 1866.15 2568.37 1865.71 Q2566.07 1865.3 2563.62 1864.44 L2563.62 1859.93 Q2565.57 1861.06 2567.88 1861.64 Q2570.2 1862.22 2572.72 1862.22 Q2577.12 1862.22 2579.41 1860.48 Q2581.72 1858.75 2581.72 1855.44 Q2581.72 1852.38 2579.57 1850.67 Q2577.44 1848.93 2573.62 1848.93 L2569.59 1848.93 L2569.59 1845.09 L2573.81 1845.09 Q2577.26 1845.09 2579.08 1843.72 Q2580.91 1842.34 2580.91 1839.74 Q2580.91 1837.08 2579.01 1835.67 Q2577.14 1834.23 2573.62 1834.23 Q2571.7 1834.23 2569.5 1834.65 Q2567.3 1835.07 2564.66 1835.95 L2564.66 1831.78 Q2567.32 1831.04 2569.64 1830.67 Q2571.98 1830.3 2574.04 1830.3 Q2579.36 1830.3 2582.46 1832.73 Q2585.57 1835.14 2585.57 1839.26 Q2585.57 1842.13 2583.92 1844.12 Q2582.28 1846.09 2579.25 1846.85 Z" fill="#000000" fill-rule="evenodd" fill-opacity="1" /><polyline clip-path="url(#clip442)" style="stroke:#000000; stroke-linecap:round; stroke-linejoin:round; stroke-width:2; stroke-opacity:0.1; fill:none" points="
  317.325,1762.11 2640.76,1762.11 
  "/>
<polyline clip-path="url(#clip442)" style="stroke:#000000; stroke-linecap:round; stroke-linejoin:round; stroke-width:2; stroke-opacity:0.1; fill:none" points="
  317.325,1447.75 2640.76,1447.75 
  "/>
<polyline clip-path="url(#clip442)" style="stroke:#000000; stroke-linecap:round; stroke-linejoin:round; stroke-width:2; stroke-opacity:0.1; fill:none" points="
  317.325,1133.38 2640.76,1133.38 
  "/>
<polyline clip-path="url(#clip442)" style="stroke:#000000; stroke-linecap:round; stroke-linejoin:round; stroke-width:2; stroke-opacity:0.1; fill:none" points="
  317.325,819.018 2640.76,819.018 
  "/>
<polyline clip-path="url(#clip442)" style="stroke:#000000; stroke-linecap:round; stroke-linejoin:round; stroke-width:2; stroke-opacity:0.1; fill:none" points="
  317.325,504.655 2640.76,504.655 
  "/>
<polyline clip-path="url(#clip442)" style="stroke:#000000; stroke-linecap:round; stroke-linejoin:round; stroke-width:2; stroke-opacity:0.1; fill:none" points="
  317.325,190.292 2640.76,190.292 
  "/>
<polyline clip-path="url(#clip440)" style="stroke:#000000; stroke-linecap:round; stroke-linejoin:round; stroke-width:4; stroke-opacity:1; fill:none" points="
  317.325,1800.78 317.325,47.2441 
  "/>
<polyline clip-path="url(#clip440)" style="stroke:#000000; stroke-linecap:round; stroke-linejoin:round; stroke-width:4; stroke-opacity:1; fill:none" points="
  317.325,1762.11 336.222,1762.11 
  "/>
<polyline clip-path="url(#clip440)" style="stroke:#000000; stroke-linecap:round; stroke-linejoin:round; stroke-width:4; stroke-opacity:1; fill:none" points="
  317.325,1447.75 336.222,1447.75 
  "/>
<polyline clip-path="url(#clip440)" style="stroke:#000000; stroke-linecap:round; stroke-linejoin:round; stroke-width:4; stroke-opacity:1; fill:none" points="
  317.325,1133.38 336.222,1133.38 
  "/>
<polyline clip-path="url(#clip440)" style="stroke:#000000; stroke-linecap:round; stroke-linejoin:round; stroke-width:4; stroke-opacity:1; fill:none" points="
  317.325,819.018 336.222,819.018 
  "/>
<polyline clip-path="url(#clip440)" style="stroke:#000000; stroke-linecap:round; stroke-linejoin:round; stroke-width:4; stroke-opacity:1; fill:none" points="
  317.325,504.655 336.222,504.655 
  "/>
<polyline clip-path="url(#clip440)" style="stroke:#000000; stroke-linecap:round; stroke-linejoin:round; stroke-width:4; stroke-opacity:1; fill:none" points="
  317.325,190.292 336.222,190.292 
  "/>
<path clip-path="url(#clip440)" d="M49.5521 1769.01 L79.2279 1769.01 L79.2279 1772.94 L49.5521 1772.94 L49.5521 1769.01 Z" fill="#000000" fill-rule="evenodd" fill-opacity="1" /><path clip-path="url(#clip440)" d="M90.1306 1781.9 L97.7695 1781.9 L97.7695 1755.54 L89.4593 1757.2 L89.4593 1752.94 L97.7232 1751.28 L102.399 1751.28 L102.399 1781.9 L110.038 1781.9 L110.038 1785.84 L90.1306 1785.84 L90.1306 1781.9 Z" fill="#000000" fill-rule="evenodd" fill-opacity="1" /><path clip-path="url(#clip440)" d="M119.482 1779.96 L124.367 1779.96 L124.367 1785.84 L119.482 1785.84 L119.482 1779.96 Z" fill="#000000" fill-rule="evenodd" fill-opacity="1" /><path clip-path="url(#clip440)" d="M144.552 1754.36 Q140.941 1754.36 139.112 1757.92 Q137.306 1761.46 137.306 1768.59 Q137.306 1775.7 139.112 1779.26 Q140.941 1782.8 144.552 1782.8 Q148.186 1782.8 149.991 1779.26 Q151.82 1775.7 151.82 1768.59 Q151.82 1761.46 149.991 1757.92 Q148.186 1754.36 144.552 1754.36 M144.552 1750.65 Q150.362 1750.65 153.417 1755.26 Q156.496 1759.84 156.496 1768.59 Q156.496 1777.32 153.417 1781.92 Q150.362 1786.51 144.552 1786.51 Q138.741 1786.51 135.663 1781.92 Q132.607 1777.32 132.607 1768.59 Q132.607 1759.84 135.663 1755.26 Q138.741 1750.65 144.552 1750.65 Z" fill="#000000" fill-rule="evenodd" fill-opacity="1" /><path clip-path="url(#clip440)" d="M192.885 1760.37 L182.306 1771 L192.885 1781.58 L190.13 1784.38 L179.505 1773.75 L168.88 1784.38 L166.149 1781.58 L176.704 1771 L166.149 1760.37 L168.88 1757.57 L179.505 1768.2 L190.13 1757.57 L192.885 1760.37 Z" fill="#000000" fill-rule="evenodd" fill-opacity="1" /><path clip-path="url(#clip440)" d="M205.246 1781.9 L212.885 1781.9 L212.885 1755.54 L204.574 1757.2 L204.574 1752.94 L212.838 1751.28 L217.514 1751.28 L217.514 1781.9 L225.153 1781.9 L225.153 1785.84 L205.246 1785.84 L205.246 1781.9 Z" fill="#000000" fill-rule="evenodd" fill-opacity="1" /><path clip-path="url(#clip440)" d="M244.597 1754.36 Q240.986 1754.36 239.158 1757.92 Q237.352 1761.46 237.352 1768.59 Q237.352 1775.7 239.158 1779.26 Q240.986 1782.8 244.597 1782.8 Q248.232 1782.8 250.037 1779.26 Q251.866 1775.7 251.866 1768.59 Q251.866 1761.46 250.037 1757.92 Q248.232 1754.36 244.597 1754.36 M244.597 1750.65 Q250.408 1750.65 253.463 1755.26 Q256.542 1759.84 256.542 1768.59 Q256.542 1777.32 253.463 1781.92 Q250.408 1786.51 244.597 1786.51 Q238.787 1786.51 235.709 1781.92 Q232.653 1777.32 232.653 1768.59 Q232.653 1759.84 235.709 1755.26 Q238.787 1750.65 244.597 1750.65 Z" fill="#000000" fill-rule="evenodd" fill-opacity="1" /><path clip-path="url(#clip440)" d="M269.218 1733.66 L259.626 1748.65 L269.218 1748.65 L269.218 1733.66 M268.221 1730.35 L272.999 1730.35 L272.999 1748.65 L277.005 1748.65 L277.005 1751.81 L272.999 1751.81 L272.999 1758.43 L269.218 1758.43 L269.218 1751.81 L256.542 1751.81 L256.542 1748.14 L268.221 1730.35 Z" fill="#000000" fill-rule="evenodd" fill-opacity="1" /><path clip-path="url(#clip440)" d="M265.06 1433.54 Q261.449 1433.54 259.62 1437.11 Q257.815 1440.65 257.815 1447.78 Q257.815 1454.89 259.62 1458.45 Q261.449 1461.99 265.06 1461.99 Q268.694 1461.99 270.5 1458.45 Q272.329 1454.89 272.329 1447.78 Q272.329 1440.65 270.5 1437.11 Q268.694 1433.54 265.06 1433.54 M265.06 1429.84 Q270.87 1429.84 273.926 1434.45 Q277.005 1439.03 277.005 1447.78 Q277.005 1456.51 273.926 1461.11 Q270.87 1465.7 265.06 1465.7 Q259.25 1465.7 256.171 1461.11 Q253.116 1456.51 253.116 1447.78 Q253.116 1439.03 256.171 1434.45 Q259.25 1429.84 265.06 1429.84 Z" fill="#000000" fill-rule="evenodd" fill-opacity="1" /><path clip-path="url(#clip440)" d="M90.1306 1153.17 L97.7695 1153.17 L97.7695 1126.81 L89.4593 1128.48 L89.4593 1124.22 L97.7232 1122.55 L102.399 1122.55 L102.399 1153.17 L110.038 1153.17 L110.038 1157.11 L90.1306 1157.11 L90.1306 1153.17 Z" fill="#000000" fill-rule="evenodd" fill-opacity="1" /><path clip-path="url(#clip440)" d="M119.482 1151.23 L124.367 1151.23 L124.367 1157.11 L119.482 1157.11 L119.482 1151.23 Z" fill="#000000" fill-rule="evenodd" fill-opacity="1" /><path clip-path="url(#clip440)" d="M144.552 1125.63 Q140.941 1125.63 139.112 1129.19 Q137.306 1132.73 137.306 1139.86 Q137.306 1146.97 139.112 1150.54 Q140.941 1154.08 144.552 1154.08 Q148.186 1154.08 149.991 1150.54 Q151.82 1146.97 151.82 1139.86 Q151.82 1132.73 149.991 1129.19 Q148.186 1125.63 144.552 1125.63 M144.552 1121.92 Q150.362 1121.92 153.417 1126.53 Q156.496 1131.11 156.496 1139.86 Q156.496 1148.59 153.417 1153.2 Q150.362 1157.78 144.552 1157.78 Q138.741 1157.78 135.663 1153.2 Q132.607 1148.59 132.607 1139.86 Q132.607 1131.11 135.663 1126.53 Q138.741 1121.92 144.552 1121.92 Z" fill="#000000" fill-rule="evenodd" fill-opacity="1" /><path clip-path="url(#clip440)" d="M192.885 1131.65 L182.306 1142.27 L192.885 1152.85 L190.13 1155.65 L179.505 1145.03 L168.88 1155.65 L166.149 1152.85 L176.704 1142.27 L166.149 1131.65 L168.88 1128.85 L179.505 1139.47 L190.13 1128.85 L192.885 1131.65 Z" fill="#000000" fill-rule="evenodd" fill-opacity="1" /><path clip-path="url(#clip440)" d="M205.246 1153.17 L212.885 1153.17 L212.885 1126.81 L204.574 1128.48 L204.574 1124.22 L212.838 1122.55 L217.514 1122.55 L217.514 1153.17 L225.153 1153.17 L225.153 1157.11 L205.246 1157.11 L205.246 1153.17 Z" fill="#000000" fill-rule="evenodd" fill-opacity="1" /><path clip-path="url(#clip440)" d="M244.597 1125.63 Q240.986 1125.63 239.158 1129.19 Q237.352 1132.73 237.352 1139.86 Q237.352 1146.97 239.158 1150.54 Q240.986 1154.08 244.597 1154.08 Q248.232 1154.08 250.037 1150.54 Q251.866 1146.97 251.866 1139.86 Q251.866 1132.73 250.037 1129.19 Q248.232 1125.63 244.597 1125.63 M244.597 1121.92 Q250.408 1121.92 253.463 1126.53 Q256.542 1131.11 256.542 1139.86 Q256.542 1148.59 253.463 1153.2 Q250.408 1157.78 244.597 1157.78 Q238.787 1157.78 235.709 1153.2 Q232.653 1148.59 232.653 1139.86 Q232.653 1131.11 235.709 1126.53 Q238.787 1121.92 244.597 1121.92 Z" fill="#000000" fill-rule="evenodd" fill-opacity="1" /><path clip-path="url(#clip440)" d="M269.218 1104.93 L259.626 1119.92 L269.218 1119.92 L269.218 1104.93 M268.221 1101.62 L272.999 1101.62 L272.999 1119.92 L277.005 1119.92 L277.005 1123.08 L272.999 1123.08 L272.999 1129.7 L269.218 1129.7 L269.218 1123.08 L256.542 1123.08 L256.542 1119.41 L268.221 1101.62 Z" fill="#000000" fill-rule="evenodd" fill-opacity="1" /><path clip-path="url(#clip440)" d="M93.3482 838.811 L109.668 838.811 L109.668 842.746 L87.7232 842.746 L87.7232 838.811 Q90.3852 836.056 94.9685 831.427 Q99.575 826.774 100.756 825.431 Q103.001 822.908 103.881 821.172 Q104.783 819.413 104.783 817.723 Q104.783 814.968 102.839 813.232 Q100.918 811.496 97.8158 811.496 Q95.6167 811.496 93.163 812.26 Q90.7325 813.024 87.9547 814.575 L87.9547 809.853 Q90.7788 808.718 93.2324 808.14 Q95.6861 807.561 97.7232 807.561 Q103.094 807.561 106.288 810.246 Q109.482 812.931 109.482 817.422 Q109.482 819.552 108.672 821.473 Q107.885 823.371 105.779 825.964 Q105.2 826.635 102.098 829.853 Q98.9963 833.047 93.3482 838.811 Z" fill="#000000" fill-rule="evenodd" fill-opacity="1" /><path clip-path="url(#clip440)" d="M119.482 836.866 L124.367 836.866 L124.367 842.746 L119.482 842.746 L119.482 836.866 Z" fill="#000000" fill-rule="evenodd" fill-opacity="1" /><path clip-path="url(#clip440)" d="M144.552 811.265 Q140.941 811.265 139.112 814.83 Q137.306 818.371 137.306 825.501 Q137.306 832.607 139.112 836.172 Q140.941 839.714 144.552 839.714 Q148.186 839.714 149.991 836.172 Q151.82 832.607 151.82 825.501 Q151.82 818.371 149.991 814.83 Q148.186 811.265 144.552 811.265 M144.552 807.561 Q150.362 807.561 153.417 812.168 Q156.496 816.751 156.496 825.501 Q156.496 834.228 153.417 838.834 Q150.362 843.417 144.552 843.417 Q138.741 843.417 135.663 838.834 Q132.607 834.228 132.607 825.501 Q132.607 816.751 135.663 812.168 Q138.741 807.561 144.552 807.561 Z" fill="#000000" fill-rule="evenodd" fill-opacity="1" /><path clip-path="url(#clip440)" d="M192.885 817.283 L182.306 827.908 L192.885 838.487 L190.13 841.288 L179.505 830.663 L168.88 841.288 L166.149 838.487 L176.704 827.908 L166.149 817.283 L168.88 814.482 L179.505 825.107 L190.13 814.482 L192.885 817.283 Z" fill="#000000" fill-rule="evenodd" fill-opacity="1" /><path clip-path="url(#clip440)" d="M205.246 838.811 L212.885 838.811 L212.885 812.445 L204.574 814.112 L204.574 809.853 L212.838 808.186 L217.514 808.186 L217.514 838.811 L225.153 838.811 L225.153 842.746 L205.246 842.746 L205.246 838.811 Z" fill="#000000" fill-rule="evenodd" fill-opacity="1" /><path clip-path="url(#clip440)" d="M244.597 811.265 Q240.986 811.265 239.158 814.83 Q237.352 818.371 237.352 825.501 Q237.352 832.607 239.158 836.172 Q240.986 839.714 244.597 839.714 Q248.232 839.714 250.037 836.172 Q251.866 832.607 251.866 825.501 Q251.866 818.371 250.037 814.83 Q248.232 811.265 244.597 811.265 M244.597 807.561 Q250.408 807.561 253.463 812.168 Q256.542 816.751 256.542 825.501 Q256.542 834.228 253.463 838.834 Q250.408 843.417 244.597 843.417 Q238.787 843.417 235.709 838.834 Q232.653 834.228 232.653 825.501 Q232.653 816.751 235.709 812.168 Q238.787 807.561 244.597 807.561 Z" fill="#000000" fill-rule="evenodd" fill-opacity="1" /><path clip-path="url(#clip440)" d="M269.218 790.566 L259.626 805.556 L269.218 805.556 L269.218 790.566 M268.221 787.256 L272.999 787.256 L272.999 805.556 L277.005 805.556 L277.005 808.715 L272.999 808.715 L272.999 815.336 L269.218 815.336 L269.218 808.715 L256.542 808.715 L256.542 805.048 L268.221 787.256 Z" fill="#000000" fill-rule="evenodd" fill-opacity="1" /><path clip-path="url(#clip440)" d="M103.487 509.748 Q106.843 510.466 108.718 512.735 Q110.617 515.003 110.617 518.336 Q110.617 523.452 107.098 526.253 Q103.58 529.054 97.0982 529.054 Q94.9223 529.054 92.6075 528.614 Q90.3158 528.197 87.8621 527.341 L87.8621 522.827 Q89.8065 523.961 92.1213 524.54 Q94.4361 525.119 96.9593 525.119 Q101.357 525.119 103.649 523.383 Q105.964 521.647 105.964 518.336 Q105.964 515.281 103.811 513.568 Q101.681 511.832 97.8621 511.832 L93.8343 511.832 L93.8343 507.989 L98.0472 507.989 Q101.496 507.989 103.325 506.623 Q105.154 505.235 105.154 502.642 Q105.154 499.98 103.256 498.568 Q101.381 497.133 97.8621 497.133 Q95.9408 497.133 93.7417 497.549 Q91.5426 497.966 88.9038 498.846 L88.9038 494.679 Q91.5658 493.938 93.8806 493.568 Q96.2185 493.198 98.2787 493.198 Q103.603 493.198 106.705 495.628 Q109.806 498.036 109.806 502.156 Q109.806 505.026 108.163 507.017 Q106.519 508.985 103.487 509.748 Z" fill="#000000" fill-rule="evenodd" fill-opacity="1" /><path clip-path="url(#clip440)" d="M119.482 522.503 L124.367 522.503 L124.367 528.383 L119.482 528.383 L119.482 522.503 Z" fill="#000000" fill-rule="evenodd" fill-opacity="1" /><path clip-path="url(#clip440)" d="M144.552 496.901 Q140.941 496.901 139.112 500.466 Q137.306 504.008 137.306 511.137 Q137.306 518.244 139.112 521.809 Q140.941 525.35 144.552 525.35 Q148.186 525.35 149.991 521.809 Q151.82 518.244 151.82 511.137 Q151.82 504.008 149.991 500.466 Q148.186 496.901 144.552 496.901 M144.552 493.198 Q150.362 493.198 153.417 497.804 Q156.496 502.387 156.496 511.137 Q156.496 519.864 153.417 524.471 Q150.362 529.054 144.552 529.054 Q138.741 529.054 135.663 524.471 Q132.607 519.864 132.607 511.137 Q132.607 502.387 135.663 497.804 Q138.741 493.198 144.552 493.198 Z" fill="#000000" fill-rule="evenodd" fill-opacity="1" /><path clip-path="url(#clip440)" d="M192.885 502.92 L182.306 513.545 L192.885 524.123 L190.13 526.924 L179.505 516.299 L168.88 526.924 L166.149 524.123 L176.704 513.545 L166.149 502.92 L168.88 500.119 L179.505 510.744 L190.13 500.119 L192.885 502.92 Z" fill="#000000" fill-rule="evenodd" fill-opacity="1" /><path clip-path="url(#clip440)" d="M205.246 524.447 L212.885 524.447 L212.885 498.082 L204.574 499.749 L204.574 495.489 L212.838 493.823 L217.514 493.823 L217.514 524.447 L225.153 524.447 L225.153 528.383 L205.246 528.383 L205.246 524.447 Z" fill="#000000" fill-rule="evenodd" fill-opacity="1" /><path clip-path="url(#clip440)" d="M244.597 496.901 Q240.986 496.901 239.158 500.466 Q237.352 504.008 237.352 511.137 Q237.352 518.244 239.158 521.809 Q240.986 525.35 244.597 525.35 Q248.232 525.35 250.037 521.809 Q251.866 518.244 251.866 511.137 Q251.866 504.008 250.037 500.466 Q248.232 496.901 244.597 496.901 M244.597 493.198 Q250.408 493.198 253.463 497.804 Q256.542 502.387 256.542 511.137 Q256.542 519.864 253.463 524.471 Q250.408 529.054 244.597 529.054 Q238.787 529.054 235.709 524.471 Q232.653 519.864 232.653 511.137 Q232.653 502.387 235.709 497.804 Q238.787 493.198 244.597 493.198 Z" fill="#000000" fill-rule="evenodd" fill-opacity="1" /><path clip-path="url(#clip440)" d="M269.218 476.202 L259.626 491.192 L269.218 491.192 L269.218 476.202 M268.221 472.892 L272.999 472.892 L272.999 491.192 L277.005 491.192 L277.005 494.352 L272.999 494.352 L272.999 500.972 L269.218 500.972 L269.218 494.352 L256.542 494.352 L256.542 490.684 L268.221 472.892 Z" fill="#000000" fill-rule="evenodd" fill-opacity="1" /><path clip-path="url(#clip440)" d="M102.168 183.533 L90.3621 201.982 L102.168 201.982 L102.168 183.533 M100.941 179.459 L106.82 179.459 L106.82 201.982 L111.751 201.982 L111.751 205.871 L106.82 205.871 L106.82 214.019 L102.168 214.019 L102.168 205.871 L86.5658 205.871 L86.5658 201.357 L100.941 179.459 Z" fill="#000000" fill-rule="evenodd" fill-opacity="1" /><path clip-path="url(#clip440)" d="M119.482 208.14 L124.367 208.14 L124.367 214.019 L119.482 214.019 L119.482 208.14 Z" fill="#000000" fill-rule="evenodd" fill-opacity="1" /><path clip-path="url(#clip440)" d="M144.552 182.538 Q140.941 182.538 139.112 186.103 Q137.306 189.644 137.306 196.774 Q137.306 203.88 139.112 207.445 Q140.941 210.987 144.552 210.987 Q148.186 210.987 149.991 207.445 Q151.82 203.88 151.82 196.774 Q151.82 189.644 149.991 186.103 Q148.186 182.538 144.552 182.538 M144.552 178.834 Q150.362 178.834 153.417 183.441 Q156.496 188.024 156.496 196.774 Q156.496 205.501 153.417 210.107 Q150.362 214.69 144.552 214.69 Q138.741 214.69 135.663 210.107 Q132.607 205.501 132.607 196.774 Q132.607 188.024 135.663 183.441 Q138.741 178.834 144.552 178.834 Z" fill="#000000" fill-rule="evenodd" fill-opacity="1" /><path clip-path="url(#clip440)" d="M192.885 188.556 L182.306 199.181 L192.885 209.76 L190.13 212.561 L179.505 201.936 L168.88 212.561 L166.149 209.76 L176.704 199.181 L166.149 188.556 L168.88 185.755 L179.505 196.38 L190.13 185.755 L192.885 188.556 Z" fill="#000000" fill-rule="evenodd" fill-opacity="1" /><path clip-path="url(#clip440)" d="M205.246 210.084 L212.885 210.084 L212.885 183.718 L204.574 185.385 L204.574 181.126 L212.838 179.459 L217.514 179.459 L217.514 210.084 L225.153 210.084 L225.153 214.019 L205.246 214.019 L205.246 210.084 Z" fill="#000000" fill-rule="evenodd" fill-opacity="1" /><path clip-path="url(#clip440)" d="M244.597 182.538 Q240.986 182.538 239.158 186.103 Q237.352 189.644 237.352 196.774 Q237.352 203.88 239.158 207.445 Q240.986 210.987 244.597 210.987 Q248.232 210.987 250.037 207.445 Q251.866 203.88 251.866 196.774 Q251.866 189.644 250.037 186.103 Q248.232 182.538 244.597 182.538 M244.597 178.834 Q250.408 178.834 253.463 183.441 Q256.542 188.024 256.542 196.774 Q256.542 205.501 253.463 210.107 Q250.408 214.69 244.597 214.69 Q238.787 214.69 235.709 210.107 Q232.653 205.501 232.653 196.774 Q232.653 188.024 235.709 183.441 Q238.787 178.834 244.597 178.834 Z" fill="#000000" fill-rule="evenodd" fill-opacity="1" /><path clip-path="url(#clip440)" d="M269.218 161.839 L259.626 176.829 L269.218 176.829 L269.218 161.839 M268.221 158.529 L272.999 158.529 L272.999 176.829 L277.005 176.829 L277.005 179.988 L272.999 179.988 L272.999 186.609 L269.218 186.609 L269.218 179.988 L256.542 179.988 L256.542 176.321 L268.221 158.529 Z" fill="#000000" fill-rule="evenodd" fill-opacity="1" /><polyline clip-path="url(#clip442)" style="stroke:#009af9; stroke-linecap:round; stroke-linejoin:round; stroke-width:4; stroke-opacity:1; fill:none" points="
  383.082,1447.12 397.353,1447.15 529.305,1447.35 608.602,1447.45 675.648,1447.53 748.477,1447.6 815.62,1447.65 887.604,1447.7 971.005,1447.75 1045.12,1447.78 
  1110.11,1447.79 1180.98,1447.8 1252.26,1447.81 1331.07,1447.8 1406.05,1447.8 1484.02,1447.81 1549.66,1447.83 1589.72,1447.87 1629.79,1447.93 1666.49,1448.02 
  1703.19,1448.19 1720.14,1448.3 1737.09,1448.47 1745.56,1448.57 1754.04,1448.7 1762.51,1448.86 1770.99,1449.06 1779.57,1449.31 1788.15,1449.65 1792.45,1449.86 
  1796.74,1450.12 1801.03,1450.42 1805.32,1450.79 1809.62,1451.25 1813.91,1451.85 1818.2,1452.65 1822.49,1453.76 1826.78,1455.42 1831.08,1458.16 1833.22,1460.32 
  1835.37,1463.52 1836.44,1465.76 1837.51,1468.72 1838.59,1472.77 1839.66,1478.67 1840.26,1483.33 1840.86,1489.59 1841.46,1498.46 1842.07,1511.97 1842.67,1535.07 
  1843.27,1583.62 1843.87,1751.15 1844.47,96.8724 1845.07,1237.17 1845.67,1333.2 1846.27,1368.91 1846.88,1387.55 1847.48,1398.99 1848.08,1406.74 1848.68,1412.33 
  1849.28,1416.55 1850.48,1422.5 1851.69,1426.5 1852.89,1429.38 1854.09,1431.54 1856.5,1434.57 1858.9,1436.6 1863.71,1439.15 1868.52,1440.67 1873.33,1441.69 
  1878.14,1442.41 1882.95,1442.96 1887.76,1443.38 1892.57,1443.71 1897.38,1443.98 1907,1444.4 1916.62,1444.69 1925.34,1444.9 1934.06,1445.06 1942.78,1445.19 
  1951.5,1445.3 1968.93,1445.45 1986.37,1445.56 2006.33,1445.65 2026.29,1445.71 2046.25,1445.74 2066.22,1445.76 2103.18,1445.77 2140.15,1445.75 2213.04,1445.67 
  2283.81,1445.54 2356.36,1445.37 2435.84,1445.16 2551.31,1444.82 2575,1444.74 
  "/>
<polyline clip-path="url(#clip442)" style="stroke:#e26f46; stroke-linecap:round; stroke-linejoin:round; stroke-width:4; stroke-opacity:1; fill:none" points="
  383.082,1447.02 386.65,1447.03 390.217,1447.03 393.785,1447.04 397.353,1447.05 430.341,1447.1 463.329,1447.15 496.317,1447.19 529.305,1447.24 568.954,1447.29 
  608.602,1447.33 642.125,1447.37 675.648,1447.4 712.063,1447.43 748.477,1447.46 782.049,1447.49 815.62,1447.51 851.612,1447.53 887.604,1447.55 929.304,1447.56 
  971.005,1447.58 1008.06,1447.58 1045.12,1447.59 1077.62,1447.59 1110.11,1447.59 1145.55,1447.58 1180.98,1447.58 1216.62,1447.57 1252.26,1447.55 1291.66,1447.54 
  1331.07,1447.51 1368.56,1447.49 1406.05,1447.46 1445.04,1447.43 1484.02,1447.39 1516.84,1447.36 1549.66,1447.33 1589.72,1447.28 1629.79,1447.23 1666.49,1447.18 
  1703.19,1447.13 1737.09,1447.08 1770.99,1447.02 1805.32,1446.97 1839.66,1446.91 1878.14,1446.83 1916.62,1446.76 1951.5,1446.69 1986.37,1446.62 2026.29,1446.53 
  2066.22,1446.44 2103.18,1446.35 2140.15,1446.26 2176.6,1446.17 2213.04,1446.07 2248.43,1445.97 2283.81,1445.88 2320.08,1445.77 2356.36,1445.66 2396.1,1445.54 
  2435.84,1445.42 2493.58,1445.23 2551.31,1445.03 2563.15,1444.99 2575,1444.95 
  "/>
<path clip-path="url(#clip440)" d="
M2252.72 261.215 L2563.31 261.215 L2563.31 105.695 L2252.72 105.695  Z
  " fill="#ffffff" fill-rule="evenodd" fill-opacity="1"/>
<polyline clip-path="url(#clip440)" style="stroke:#000000; stroke-linecap:round; stroke-linejoin:round; stroke-width:4; stroke-opacity:1; fill:none" points="
  2252.72,261.215 2563.31,261.215 2563.31,105.695 2252.72,105.695 2252.72,261.215 
  "/>
<polyline clip-path="url(#clip440)" style="stroke:#009af9; stroke-linecap:round; stroke-linejoin:round; stroke-width:4; stroke-opacity:1; fill:none" points="
  2278.53,157.535 2433.43,157.535 
  "/>
<path clip-path="url(#clip440)" d="M2473.09 177.223 Q2471.28 181.852 2469.57 183.264 Q2467.86 184.676 2464.99 184.676 L2461.58 184.676 L2461.58 181.112 L2464.08 181.112 Q2465.84 181.112 2466.82 180.278 Q2467.79 179.445 2468.97 176.343 L2469.73 174.399 L2459.25 148.889 L2463.76 148.889 L2471.86 169.167 L2479.96 148.889 L2484.48 148.889 L2473.09 177.223 Z" fill="#000000" fill-rule="evenodd" fill-opacity="1" /><path clip-path="url(#clip440)" d="M2491.77 170.88 L2499.41 170.88 L2499.41 144.515 L2491.1 146.181 L2491.1 141.922 L2499.36 140.255 L2504.04 140.255 L2504.04 170.88 L2511.68 170.88 L2511.68 174.815 L2491.77 174.815 L2491.77 170.88 Z" fill="#000000" fill-rule="evenodd" fill-opacity="1" /><polyline clip-path="url(#clip440)" style="stroke:#e26f46; stroke-linecap:round; stroke-linejoin:round; stroke-width:4; stroke-opacity:1; fill:none" points="
  2278.53,209.375 2433.43,209.375 
  "/>
<path clip-path="url(#clip440)" d="M2473.09 229.063 Q2471.28 233.692 2469.57 235.104 Q2467.86 236.516 2464.99 236.516 L2461.58 236.516 L2461.58 232.952 L2464.08 232.952 Q2465.84 232.952 2466.82 232.118 Q2467.79 231.285 2468.97 228.183 L2469.73 226.239 L2459.25 200.729 L2463.76 200.729 L2471.86 221.007 L2479.96 200.729 L2484.48 200.729 L2473.09 229.063 Z" fill="#000000" fill-rule="evenodd" fill-opacity="1" /><path clip-path="url(#clip440)" d="M2494.99 222.72 L2511.31 222.72 L2511.31 226.655 L2489.36 226.655 L2489.36 222.72 Q2492.02 219.965 2496.61 215.336 Q2501.21 210.683 2502.39 209.341 Q2504.64 206.817 2505.52 205.081 Q2506.42 203.322 2506.42 201.632 Q2506.42 198.878 2504.48 197.142 Q2502.56 195.405 2499.45 195.405 Q2497.26 195.405 2494.8 196.169 Q2492.37 196.933 2489.59 198.484 L2489.59 193.762 Q2492.42 192.628 2494.87 192.049 Q2497.32 191.47 2499.36 191.47 Q2504.73 191.47 2507.93 194.155 Q2511.12 196.841 2511.12 201.331 Q2511.12 203.461 2510.31 205.382 Q2509.52 207.28 2507.42 209.873 Q2506.84 210.544 2503.74 213.762 Q2500.63 216.956 2494.99 222.72 Z" fill="#000000" fill-rule="evenodd" fill-opacity="1" /></svg>
