<?xml version="1.0" encoding="utf-8"?>
<svg xmlns="http://www.w3.org/2000/svg" xmlns:xlink="http://www.w3.org/1999/xlink" width="672" height="480" viewBox="0 0 2688 1920">
<defs>
  <clipPath id="clip740">
    <rect x="0" y="0" width="2688" height="1920"/>
  </clipPath>
</defs>
<path clip-path="url(#clip740)" d="
M0 1920 L2688 1920 L2688 0 L0 0  Z
  " fill="#ffffff" fill-rule="evenodd" fill-opacity="1"/>
<defs>
  <clipPath id="clip741">
    <rect x="537" y="0" width="1883" height="1883"/>
  </clipPath>
</defs>
<path clip-path="url(#clip740)" d="
M181.747 1800.78 L2640.76 1800.78 L2640.76 47.2441 L181.747 47.2441  Z
  " fill="#ffffff" fill-rule="evenodd" fill-opacity="1"/>
<defs>
  <clipPath id="clip742">
    <rect x="181" y="47" width="2460" height="1755"/>
  </clipPath>
</defs>
<polyline clip-path="url(#clip742)" style="stroke:#000000; stroke-linecap:butt; stroke-linejoin:round; stroke-width:2; stroke-opacity:0.1; fill:none" points="
  468.534,1800.78 468.534,47.2441 
  "/>
<polyline clip-path="url(#clip742)" style="stroke:#000000; stroke-linecap:butt; stroke-linejoin:round; stroke-width:2; stroke-opacity:0.1; fill:none" points="
  933.947,1800.78 933.947,47.2441 
  "/>
<polyline clip-path="url(#clip742)" style="stroke:#000000; stroke-linecap:butt; stroke-linejoin:round; stroke-width:2; stroke-opacity:0.1; fill:none" points="
  1399.36,1800.78 1399.36,47.2441 
  "/>
<polyline clip-path="url(#clip742)" style="stroke:#000000; stroke-linecap:butt; stroke-linejoin:round; stroke-width:2; stroke-opacity:0.1; fill:none" points="
  1864.77,1800.78 1864.77,47.2441 
  "/>
<polyline clip-path="url(#clip742)" style="stroke:#000000; stroke-linecap:butt; stroke-linejoin:round; stroke-width:2; stroke-opacity:0.1; fill:none" points="
  2330.19,1800.78 2330.19,47.2441 
  "/>
<polyline clip-path="url(#clip740)" style="stroke:#000000; stroke-linecap:butt; stroke-linejoin:round; stroke-width:4; stroke-opacity:1; fill:none" points="
  181.747,1800.78 2640.76,1800.78 
  "/>
<polyline clip-path="url(#clip740)" style="stroke:#000000; stroke-linecap:butt; stroke-linejoin:round; stroke-width:4; stroke-opacity:1; fill:none" points="
  468.534,1800.78 468.534,1781.88 
  "/>
<polyline clip-path="url(#clip740)" style="stroke:#000000; stroke-linecap:butt; stroke-linejoin:round; stroke-width:4; stroke-opacity:1; fill:none" points="
  933.947,1800.78 933.947,1781.88 
  "/>
<polyline clip-path="url(#clip740)" style="stroke:#000000; stroke-linecap:butt; stroke-linejoin:round; stroke-width:4; stroke-opacity:1; fill:none" points="
  1399.36,1800.78 1399.36,1781.88 
  "/>
<polyline clip-path="url(#clip740)" style="stroke:#000000; stroke-linecap:butt; stroke-linejoin:round; stroke-width:4; stroke-opacity:1; fill:none" points="
  1864.77,1800.78 1864.77,1781.88 
  "/>
<polyline clip-path="url(#clip740)" style="stroke:#000000; stroke-linecap:butt; stroke-linejoin:round; stroke-width:4; stroke-opacity:1; fill:none" points="
  2330.19,1800.78 2330.19,1781.88 
  "/>
<path clip-path="url(#clip740)" d="M458.916 1861.55 L466.555 1861.55 L466.555 1835.18 L458.245 1836.85 L458.245 1832.59 L466.509 1830.92 L471.184 1830.92 L471.184 1861.55 L478.823 1861.55 L478.823 1865.48 L458.916 1865.48 L458.916 1861.55 Z" fill="#000000" fill-rule="evenodd" fill-opacity="1" /><path clip-path="url(#clip740)" d="M928.6 1861.55 L944.919 1861.55 L944.919 1865.48 L922.975 1865.48 L922.975 1861.55 Q925.637 1858.79 930.22 1854.16 Q934.827 1849.51 936.007 1848.17 Q938.252 1845.65 939.132 1843.91 Q940.035 1842.15 940.035 1840.46 Q940.035 1837.71 938.09 1835.97 Q936.169 1834.23 933.067 1834.23 Q930.868 1834.23 928.415 1835 Q925.984 1835.76 923.206 1837.31 L923.206 1832.59 Q926.03 1831.46 928.484 1830.88 Q930.938 1830.3 932.975 1830.3 Q938.345 1830.3 941.539 1832.98 Q944.734 1835.67 944.734 1840.16 Q944.734 1842.29 943.924 1844.21 Q943.137 1846.11 941.03 1848.7 Q940.452 1849.37 937.35 1852.59 Q934.248 1855.78 928.6 1861.55 Z" fill="#000000" fill-rule="evenodd" fill-opacity="1" /><path clip-path="url(#clip740)" d="M1403.61 1846.85 Q1406.96 1847.57 1408.84 1849.84 Q1410.74 1852.1 1410.74 1855.44 Q1410.74 1860.55 1407.22 1863.35 Q1403.7 1866.15 1397.22 1866.15 Q1395.04 1866.15 1392.73 1865.71 Q1390.44 1865.3 1387.98 1864.44 L1387.98 1859.93 Q1389.93 1861.06 1392.24 1861.64 Q1394.56 1862.22 1397.08 1862.22 Q1401.48 1862.22 1403.77 1860.48 Q1406.08 1858.75 1406.08 1855.44 Q1406.08 1852.38 1403.93 1850.67 Q1401.8 1848.93 1397.98 1848.93 L1393.95 1848.93 L1393.95 1845.09 L1398.17 1845.09 Q1401.62 1845.09 1403.45 1843.72 Q1405.27 1842.34 1405.27 1839.74 Q1405.27 1837.08 1403.38 1835.67 Q1401.5 1834.23 1397.98 1834.23 Q1396.06 1834.23 1393.86 1834.65 Q1391.66 1835.07 1389.02 1835.95 L1389.02 1831.78 Q1391.69 1831.04 1394 1830.67 Q1396.34 1830.3 1398.4 1830.3 Q1403.72 1830.3 1406.83 1832.73 Q1409.93 1835.14 1409.93 1839.26 Q1409.93 1842.13 1408.28 1844.12 Q1406.64 1846.09 1403.61 1846.85 Z" fill="#000000" fill-rule="evenodd" fill-opacity="1" /><path clip-path="url(#clip740)" d="M1867.78 1835 L1855.98 1853.45 L1867.78 1853.45 L1867.78 1835 M1866.56 1830.92 L1872.43 1830.92 L1872.43 1853.45 L1877.37 1853.45 L1877.37 1857.34 L1872.43 1857.34 L1872.43 1865.48 L1867.78 1865.48 L1867.78 1857.34 L1852.18 1857.34 L1852.18 1852.82 L1866.56 1830.92 Z" fill="#000000" fill-rule="evenodd" fill-opacity="1" /><path clip-path="url(#clip740)" d="M2320.46 1830.92 L2338.82 1830.92 L2338.82 1834.86 L2324.75 1834.86 L2324.75 1843.33 Q2325.76 1842.98 2326.78 1842.82 Q2327.8 1842.64 2328.82 1842.64 Q2334.61 1842.64 2337.99 1845.81 Q2341.37 1848.98 2341.37 1854.4 Q2341.37 1859.97 2337.89 1863.08 Q2334.42 1866.15 2328.1 1866.15 Q2325.93 1866.15 2323.66 1865.78 Q2321.41 1865.41 2319.01 1864.67 L2319.01 1859.97 Q2321.09 1861.11 2323.31 1861.66 Q2325.53 1862.22 2328.01 1862.22 Q2332.01 1862.22 2334.35 1860.11 Q2336.69 1858.01 2336.69 1854.4 Q2336.69 1850.78 2334.35 1848.68 Q2332.01 1846.57 2328.01 1846.57 Q2326.13 1846.57 2324.26 1846.99 Q2322.41 1847.4 2320.46 1848.28 L2320.46 1830.92 Z" fill="#000000" fill-rule="evenodd" fill-opacity="1" /><polyline clip-path="url(#clip742)" style="stroke:#000000; stroke-linecap:butt; stroke-linejoin:round; stroke-width:2; stroke-opacity:0.1; fill:none" points="
  181.747,1641.5 2640.76,1641.5 
  "/>
<polyline clip-path="url(#clip742)" style="stroke:#000000; stroke-linecap:butt; stroke-linejoin:round; stroke-width:2; stroke-opacity:0.1; fill:none" points="
  181.747,1401.96 2640.76,1401.96 
  "/>
<polyline clip-path="url(#clip742)" style="stroke:#000000; stroke-linecap:butt; stroke-linejoin:round; stroke-width:2; stroke-opacity:0.1; fill:none" points="
  181.747,1162.41 2640.76,1162.41 
  "/>
<polyline clip-path="url(#clip742)" style="stroke:#000000; stroke-linecap:butt; stroke-linejoin:round; stroke-width:2; stroke-opacity:0.1; fill:none" points="
  181.747,922.867 2640.76,922.867 
  "/>
<polyline clip-path="url(#clip742)" style="stroke:#000000; stroke-linecap:butt; stroke-linejoin:round; stroke-width:2; stroke-opacity:0.1; fill:none" points="
  181.747,683.322 2640.76,683.322 
  "/>
<polyline clip-path="url(#clip742)" style="stroke:#000000; stroke-linecap:butt; stroke-linejoin:round; stroke-width:2; stroke-opacity:0.1; fill:none" points="
  181.747,443.777 2640.76,443.777 
  "/>
<polyline clip-path="url(#clip742)" style="stroke:#000000; stroke-linecap:butt; stroke-linejoin:round; stroke-width:2; stroke-opacity:0.1; fill:none" points="
  181.747,204.232 2640.76,204.232 
  "/>
<polyline clip-path="url(#clip740)" style="stroke:#000000; stroke-linecap:butt; stroke-linejoin:round; stroke-width:4; stroke-opacity:1; fill:none" points="
  181.747,1800.78 181.747,47.2441 
  "/>
<polyline clip-path="url(#clip740)" style="stroke:#000000; stroke-linecap:butt; stroke-linejoin:round; stroke-width:4; stroke-opacity:1; fill:none" points="
  181.747,1641.5 200.644,1641.5 
  "/>
<polyline clip-path="url(#clip740)" style="stroke:#000000; stroke-linecap:butt; stroke-linejoin:round; stroke-width:4; stroke-opacity:1; fill:none" points="
  181.747,1401.96 200.644,1401.96 
  "/>
<polyline clip-path="url(#clip740)" style="stroke:#000000; stroke-linecap:butt; stroke-linejoin:round; stroke-width:4; stroke-opacity:1; fill:none" points="
  181.747,1162.41 200.644,1162.41 
  "/>
<polyline clip-path="url(#clip740)" style="stroke:#000000; stroke-linecap:butt; stroke-linejoin:round; stroke-width:4; stroke-opacity:1; fill:none" points="
  181.747,922.867 200.644,922.867 
  "/>
<polyline clip-path="url(#clip740)" style="stroke:#000000; stroke-linecap:butt; stroke-linejoin:round; stroke-width:4; stroke-opacity:1; fill:none" points="
  181.747,683.322 200.644,683.322 
  "/>
<polyline clip-path="url(#clip740)" style="stroke:#000000; stroke-linecap:butt; stroke-linejoin:round; stroke-width:4; stroke-opacity:1; fill:none" points="
  181.747,443.777 200.644,443.777 
  "/>
<polyline clip-path="url(#clip740)" style="stroke:#000000; stroke-linecap:butt; stroke-linejoin:round; stroke-width:4; stroke-opacity:1; fill:none" points="
  181.747,204.232 200.644,204.232 
  "/>
<path clip-path="url(#clip740)" d="M50.5475 1641.95 L80.2233 1641.95 L80.2233 1645.89 L50.5475 1645.89 L50.5475 1641.95 Z" fill="#000000" fill-rule="evenodd" fill-opacity="1" /><path clip-path="url(#clip740)" d="M91.126 1654.85 L98.7648 1654.85 L98.7648 1628.48 L90.4547 1630.15 L90.4547 1625.89 L98.7185 1624.22 L103.394 1624.22 L103.394 1654.85 L111.033 1654.85 L111.033 1658.78 L91.126 1658.78 L91.126 1654.85 Z" fill="#000000" fill-rule="evenodd" fill-opacity="1" /><path clip-path="url(#clip740)" d="M120.524 1624.22 L138.88 1624.22 L138.88 1628.16 L124.806 1628.16 L124.806 1636.63 Q125.825 1636.28 126.843 1636.12 Q127.862 1635.93 128.88 1635.93 Q134.667 1635.93 138.047 1639.11 Q141.427 1642.28 141.427 1647.69 Q141.427 1653.27 137.954 1656.37 Q134.482 1659.45 128.163 1659.45 Q125.987 1659.45 123.718 1659.08 Q121.473 1658.71 119.066 1657.97 L119.066 1653.27 Q121.149 1654.41 123.371 1654.96 Q125.593 1655.52 128.07 1655.52 Q132.075 1655.52 134.413 1653.41 Q136.751 1651.3 136.751 1647.69 Q136.751 1644.08 134.413 1641.98 Q132.075 1639.87 128.07 1639.87 Q126.195 1639.87 124.32 1640.29 Q122.468 1640.7 120.524 1641.58 L120.524 1624.22 Z" fill="#000000" fill-rule="evenodd" fill-opacity="1" /><path clip-path="url(#clip740)" d="M49.5521 1402.41 L79.2279 1402.41 L79.2279 1406.34 L49.5521 1406.34 L49.5521 1402.41 Z" fill="#000000" fill-rule="evenodd" fill-opacity="1" /><path clip-path="url(#clip740)" d="M90.1306 1415.3 L97.7695 1415.3 L97.7695 1388.94 L89.4593 1390.6 L89.4593 1386.34 L97.7232 1384.68 L102.399 1384.68 L102.399 1415.3 L110.038 1415.3 L110.038 1419.24 L90.1306 1419.24 L90.1306 1415.3 Z" fill="#000000" fill-rule="evenodd" fill-opacity="1" /><path clip-path="url(#clip740)" d="M129.482 1387.76 Q125.871 1387.76 124.042 1391.32 Q122.237 1394.86 122.237 1401.99 Q122.237 1409.1 124.042 1412.66 Q125.871 1416.2 129.482 1416.2 Q133.116 1416.2 134.922 1412.66 Q136.751 1409.1 136.751 1401.99 Q136.751 1394.86 134.922 1391.32 Q133.116 1387.76 129.482 1387.76 M129.482 1384.05 Q135.292 1384.05 138.348 1388.66 Q141.427 1393.24 141.427 1401.99 Q141.427 1410.72 138.348 1415.32 Q135.292 1419.91 129.482 1419.91 Q123.672 1419.91 120.593 1415.32 Q117.538 1410.72 117.538 1401.99 Q117.538 1393.24 120.593 1388.66 Q123.672 1384.05 129.482 1384.05 Z" fill="#000000" fill-rule="evenodd" fill-opacity="1" /><path clip-path="url(#clip740)" d="M80.7094 1162.86 L110.385 1162.86 L110.385 1166.8 L80.7094 1166.8 L80.7094 1162.86 Z" fill="#000000" fill-rule="evenodd" fill-opacity="1" /><path clip-path="url(#clip740)" d="M120.524 1145.13 L138.88 1145.13 L138.88 1149.07 L124.806 1149.07 L124.806 1157.54 Q125.825 1157.19 126.843 1157.03 Q127.862 1156.84 128.88 1156.84 Q134.667 1156.84 138.047 1160.02 Q141.427 1163.19 141.427 1168.6 Q141.427 1174.18 137.954 1177.28 Q134.482 1180.36 128.163 1180.36 Q125.987 1180.36 123.718 1179.99 Q121.473 1179.62 119.066 1178.88 L119.066 1174.18 Q121.149 1175.32 123.371 1175.87 Q125.593 1176.43 128.07 1176.43 Q132.075 1176.43 134.413 1174.32 Q136.751 1172.21 136.751 1168.6 Q136.751 1164.99 134.413 1162.89 Q132.075 1160.78 128.07 1160.78 Q126.195 1160.78 124.32 1161.2 Q122.468 1161.61 120.524 1162.49 L120.524 1145.13 Z" fill="#000000" fill-rule="evenodd" fill-opacity="1" /><path clip-path="url(#clip740)" d="M129.482 908.665 Q125.871 908.665 124.042 912.23 Q122.237 915.772 122.237 922.901 Q122.237 930.008 124.042 933.573 Q125.871 937.114 129.482 937.114 Q133.116 937.114 134.922 933.573 Q136.751 930.008 136.751 922.901 Q136.751 915.772 134.922 912.23 Q133.116 908.665 129.482 908.665 M129.482 904.962 Q135.292 904.962 138.348 909.568 Q141.427 914.151 141.427 922.901 Q141.427 931.628 138.348 936.235 Q135.292 940.818 129.482 940.818 Q123.672 940.818 120.593 936.235 Q117.538 931.628 117.538 922.901 Q117.538 914.151 120.593 909.568 Q123.672 904.962 129.482 904.962 Z" fill="#000000" fill-rule="evenodd" fill-opacity="1" /><path clip-path="url(#clip740)" d="M120.524 666.042 L138.88 666.042 L138.88 669.977 L124.806 669.977 L124.806 678.449 Q125.825 678.102 126.843 677.94 Q127.862 677.754 128.88 677.754 Q134.667 677.754 138.047 680.926 Q141.427 684.097 141.427 689.514 Q141.427 695.092 137.954 698.194 Q134.482 701.273 128.163 701.273 Q125.987 701.273 123.718 700.902 Q121.473 700.532 119.066 699.791 L119.066 695.092 Q121.149 696.227 123.371 696.782 Q125.593 697.338 128.07 697.338 Q132.075 697.338 134.413 695.231 Q136.751 693.125 136.751 689.514 Q136.751 685.903 134.413 683.796 Q132.075 681.69 128.07 681.69 Q126.195 681.69 124.32 682.106 Q122.468 682.523 120.524 683.403 L120.524 666.042 Z" fill="#000000" fill-rule="evenodd" fill-opacity="1" /><path clip-path="url(#clip740)" d="M90.1306 457.121 L97.7695 457.121 L97.7695 430.756 L89.4593 432.422 L89.4593 428.163 L97.7232 426.497 L102.399 426.497 L102.399 457.121 L110.038 457.121 L110.038 461.057 L90.1306 461.057 L90.1306 457.121 Z" fill="#000000" fill-rule="evenodd" fill-opacity="1" /><path clip-path="url(#clip740)" d="M129.482 429.575 Q125.871 429.575 124.042 433.14 Q122.237 436.682 122.237 443.811 Q122.237 450.918 124.042 454.483 Q125.871 458.024 129.482 458.024 Q133.116 458.024 134.922 454.483 Q136.751 450.918 136.751 443.811 Q136.751 436.682 134.922 433.14 Q133.116 429.575 129.482 429.575 M129.482 425.872 Q135.292 425.872 138.348 430.478 Q141.427 435.061 141.427 443.811 Q141.427 452.538 138.348 457.145 Q135.292 461.728 129.482 461.728 Q123.672 461.728 120.593 457.145 Q117.538 452.538 117.538 443.811 Q117.538 435.061 120.593 430.478 Q123.672 425.872 129.482 425.872 Z" fill="#000000" fill-rule="evenodd" fill-opacity="1" /><path clip-path="url(#clip740)" d="M91.126 217.576 L98.7648 217.576 L98.7648 191.211 L90.4547 192.877 L90.4547 188.618 L98.7185 186.952 L103.394 186.952 L103.394 217.576 L111.033 217.576 L111.033 221.512 L91.126 221.512 L91.126 217.576 Z" fill="#000000" fill-rule="evenodd" fill-opacity="1" /><path clip-path="url(#clip740)" d="M120.524 186.952 L138.88 186.952 L138.88 190.887 L124.806 190.887 L124.806 199.359 Q125.825 199.012 126.843 198.85 Q127.862 198.664 128.88 198.664 Q134.667 198.664 138.047 201.836 Q141.427 205.007 141.427 210.424 Q141.427 216.002 137.954 219.104 Q134.482 222.183 128.163 222.183 Q125.987 222.183 123.718 221.813 Q121.473 221.442 119.066 220.701 L119.066 216.002 Q121.149 217.137 123.371 217.692 Q125.593 218.248 128.07 218.248 Q132.075 218.248 134.413 216.141 Q136.751 214.035 136.751 210.424 Q136.751 206.813 134.413 204.706 Q132.075 202.6 128.07 202.6 Q126.195 202.6 124.32 203.016 Q122.468 203.433 120.524 204.313 L120.524 186.952 Z" fill="#000000" fill-rule="evenodd" fill-opacity="1" /><polyline clip-path="url(#clip742)" style="stroke:#009af9; stroke-linecap:butt; stroke-linejoin:round; stroke-width:4; stroke-opacity:1; fill:none" points="
  251.341,936.16 255.208,935.893 259.074,935.628 262.94,935.363 266.807,935.099 270.673,934.836 274.539,934.573 278.406,934.312 282.272,934.052 286.139,933.792 
  290.005,933.534 293.871,933.277 297.738,933.02 301.604,932.765 305.47,932.51 309.337,932.257 313.203,932.005 317.069,931.753 320.936,931.503 324.802,931.254 
  328.669,931.006 332.535,930.759 336.401,930.513 340.268,930.268 344.134,930.024 348,929.782 351.867,929.54 355.733,929.3 359.6,929.061 363.466,928.823 
  367.332,928.586 371.199,928.351 375.065,928.116 378.931,927.883 382.798,927.652 386.664,927.421 390.53,927.192 394.397,926.964 398.263,926.737 402.13,926.512 
  405.996,926.288 409.862,926.065 413.729,925.844 417.595,925.624 421.461,925.406 425.328,925.189 429.194,924.973 433.06,924.759 436.927,924.547 440.793,924.336 
  444.66,924.126 448.526,923.918 452.392,923.712 456.259,923.507 460.125,923.303 463.991,923.101 467.858,922.901 471.724,922.703 475.591,922.506 479.457,922.311 
  483.323,922.118 487.19,921.926 491.056,921.736 494.922,921.548 498.789,921.362 502.655,921.177 506.521,920.995 510.388,920.814 514.254,920.635 518.121,920.458 
  521.987,920.283 525.853,920.11 529.72,919.939 533.586,919.77 537.452,919.603 541.319,919.438 545.185,919.275 549.051,919.115 552.918,918.956 556.784,918.8 
  560.651,918.646 564.517,918.494 568.383,918.345 572.25,918.198 576.116,918.053 579.982,917.911 583.849,917.771 587.715,917.633 591.582,917.498 595.448,917.366 
  599.314,917.236 603.181,917.108 607.047,916.984 610.913,916.862 614.78,916.742 618.646,916.626 622.512,916.512 626.379,916.401 630.245,916.293 634.112,916.188 
  637.978,916.086 641.844,915.987 645.711,915.891 649.577,915.798 653.443,915.709 657.31,915.622 661.176,915.539 665.042,915.459 668.909,915.382 672.775,915.309 
  676.642,915.24 680.508,915.174 684.374,915.111 688.241,915.052 692.107,914.997 695.973,914.946 699.84,914.898 703.706,914.854 707.573,914.815 711.439,914.779 
  715.305,914.747 719.172,914.72 723.038,914.697 726.904,914.678 730.771,914.663 734.637,914.653 738.503,914.648 742.37,914.647 746.236,914.651 750.103,914.659 
  753.969,914.673 757.835,914.691 761.702,914.715 765.568,914.743 769.434,914.777 773.301,914.816 777.167,914.861 781.033,914.911 784.9,914.967 788.766,915.029 
  792.633,915.096 796.499,915.169 800.365,915.249 804.232,915.335 808.098,915.427 811.964,915.525 815.831,915.63 819.697,915.742 823.564,915.86 827.43,915.986 
  831.296,916.119 835.163,916.259 839.029,916.406 842.895,916.561 846.762,916.724 850.628,916.894 854.494,917.073 858.361,917.26 862.227,917.455 866.094,917.659 
  869.96,917.872 873.826,918.094 877.693,918.325 881.559,918.565 885.425,918.815 889.292,919.075 893.158,919.344 897.024,919.625 900.891,919.915 904.757,920.216 
  908.624,920.529 912.49,920.852 916.356,921.188 920.223,921.535 924.089,921.894 927.955,922.265 931.822,922.65 935.688,923.047 939.555,923.458 943.421,923.882 
  947.287,924.321 951.154,924.774 955.02,925.242 958.886,925.724 962.753,926.223 966.619,926.738 970.485,927.269 974.352,927.817 978.218,928.382 982.085,928.965 
  985.951,929.567 989.817,930.187 993.684,930.827 997.55,931.487 1001.42,932.167 1005.28,932.868 1009.15,933.592 1013.02,934.337 1016.88,935.106 1020.75,935.899 
  1024.61,936.716 1028.48,937.559 1032.35,938.427 1036.21,939.323 1040.08,940.246 1043.95,941.199 1047.81,942.181 1051.68,943.193 1055.55,944.238 1059.41,945.315 
  1063.28,946.426 1067.14,947.572 1071.01,948.755 1074.88,949.975 1078.74,951.235 1082.61,952.535 1086.48,953.876 1090.34,955.262 1094.21,956.692 1098.08,958.169 
  1101.94,959.696 1105.81,961.273 1109.67,962.902 1113.54,964.587 1117.41,966.328 1121.27,968.129 1125.14,969.992 1129.01,971.92 1132.87,973.915 1136.74,975.981 
  1140.61,978.12 1144.47,980.336 1148.34,982.633 1152.2,985.014 1156.07,987.484 1159.94,990.046 1163.8,992.705 1167.67,995.466 1171.54,998.335 1175.4,1001.32 
  1179.27,1004.42 1183.14,1007.64 1187,1011 1190.87,1014.49 1194.73,1018.14 1198.6,1021.94 1202.47,1025.9 1206.33,1030.04 1210.2,1034.36 1214.07,1038.89 
  1217.93,1043.62 1221.8,1048.57 1225.67,1053.76 1229.53,1059.21 1233.4,1064.93 1237.26,1070.94 1241.13,1077.27 1245,1083.93 1248.86,1090.95 1252.73,1098.37 
  1256.6,1106.21 1260.46,1114.5 1264.33,1123.3 1268.2,1132.63 1272.06,1142.56 1275.93,1153.14 1279.79,1164.42 1283.66,1176.49 1287.53,1189.42 1291.39,1203.3 
  1295.26,1218.24 1299.13,1234.37 1302.99,1251.82 1306.86,1270.77 1310.73,1291.4 1314.59,1313.95 1318.46,1338.69 1322.32,1365.96 1326.19,1396.15 1330.06,1429.76 
  1333.92,1467.38 1337.79,1509.78 1341.66,1557.91 1345.52,1613.02 1349.39,1676.71 1353.26,1751.15 
  "/>
<polyline clip-path="url(#clip742)" style="stroke:#009af9; stroke-linecap:butt; stroke-linejoin:round; stroke-width:4; stroke-opacity:1; fill:none" points="
  1465.38,96.8724 1469.25,133.844 1473.11,166.897 1476.98,196.618 1480.85,223.48 1484.71,247.873 1488.58,270.117 1492.44,290.48 1496.31,309.188 1500.18,326.43 
  1504.04,342.368 1507.91,357.144 1511.78,370.875 1515.64,383.667 1519.51,395.61 1523.38,406.783 1527.24,417.257 1531.11,427.093 1534.98,436.345 1538.84,445.062 
  1542.71,453.288 1546.57,461.06 1550.44,468.414 1554.31,475.382 1558.17,481.991 1562.04,488.266 1565.91,494.232 1569.77,499.909 1573.64,505.317 1577.51,510.472 
  1581.37,515.392 1585.24,520.09 1589.1,524.581 1592.97,528.876 1596.84,532.988 1600.7,536.927 1604.57,540.702 1608.44,544.322 1612.3,547.797 1616.17,551.134 
  1620.04,554.339 1623.9,557.421 1627.77,560.385 1631.63,563.237 1635.5,565.982 1639.37,568.627 1643.23,571.175 1647.1,573.63 1650.97,575.998 1654.83,578.283 
  1658.7,580.487 1662.57,582.615 1666.43,584.67 1670.3,586.655 1674.16,588.573 1678.03,590.426 1681.9,592.218 1685.76,593.951 1689.63,595.627 1693.5,597.248 
  1697.36,598.817 1701.23,600.336 1705.1,601.806 1708.96,603.23 1712.83,604.608 1716.69,605.944 1720.56,607.237 1724.43,608.491 1728.29,609.705 1732.16,610.882 
  1736.03,612.023 1739.89,613.129 1743.76,614.201 1747.63,615.241 1751.49,616.249 1755.36,617.226 1759.22,618.174 1763.09,619.093 1766.96,619.985 1770.82,620.85 
  1774.69,621.688 1778.56,622.502 1782.42,623.291 1786.29,624.056 1790.16,624.798 1794.02,625.518 1797.89,626.216 1801.75,626.894 1805.62,627.55 1809.49,628.187 
  1813.35,628.805 1817.22,629.403 1821.09,629.984 1824.95,630.546 1828.82,631.092 1832.69,631.62 1836.55,632.132 1840.42,632.629 1844.28,633.109 1848.15,633.575 
  1852.02,634.025 1855.88,634.462 1859.75,634.884 1863.62,635.293 1867.48,635.688 1871.35,636.071 1875.22,636.44 1879.08,636.798 1882.95,637.143 1886.81,637.476 
  1890.68,637.798 1894.55,638.109 1898.41,638.409 1902.28,638.698 1906.15,638.976 1910.01,639.244 1913.88,639.503 1917.75,639.751 1921.61,639.99 1925.48,640.219 
  1929.34,640.44 1933.21,640.651 1937.08,640.854 1940.94,641.048 1944.81,641.234 1948.68,641.411 1952.54,641.58 1956.41,641.742 1960.28,641.896 1964.14,642.042 
  1968.01,642.181 1971.87,642.313 1975.74,642.437 1979.61,642.555 1983.47,642.665 1987.34,642.769 1991.21,642.867 1995.07,642.958 1998.94,643.043 2002.81,643.121 
  2006.67,643.194 2010.54,643.26 2014.4,643.321 2018.27,643.376 2022.14,643.425 2026,643.469 2029.87,643.507 2033.74,643.54 2037.6,643.568 2041.47,643.591 
  2045.34,643.609 2049.2,643.621 2053.07,643.629 2056.93,643.632 2060.8,643.631 2064.67,643.625 2068.53,643.614 2072.4,643.599 2076.27,643.579 2080.13,643.555 
  2084,643.527 2087.87,643.495 2091.73,643.459 2095.6,643.418 2099.46,643.374 2103.33,643.326 2107.2,643.274 2111.06,643.218 2114.93,643.159 2118.8,643.096 
  2122.66,643.029 2126.53,642.959 2130.4,642.885 2134.26,642.808 2138.13,642.728 2141.99,642.644 2145.86,642.557 2149.73,642.467 2153.59,642.374 2157.46,642.277 
  2161.33,642.178 2165.19,642.075 2169.06,641.97 2172.93,641.861 2176.79,641.75 2180.66,641.636 2184.52,641.519 2188.39,641.399 2192.26,641.277 2196.12,641.152 
  2199.99,641.024 2203.86,640.894 2207.72,640.761 2211.59,640.625 2215.46,640.487 2219.32,640.347 2223.19,640.204 2227.05,640.059 2230.92,639.912 2234.79,639.762 
  2238.65,639.61 2242.52,639.456 2246.39,639.299 2250.25,639.14 2254.12,638.979 2257.99,638.816 2261.85,638.651 2265.72,638.484 2269.58,638.314 2273.45,638.143 
  2277.32,637.97 2281.18,637.795 2285.05,637.617 2288.92,637.438 2292.78,637.257 2296.65,637.074 2300.52,636.889 2304.38,636.703 2308.25,636.514 2312.11,636.324 
  2315.98,636.132 2319.85,635.939 2323.71,635.743 2327.58,635.546 2331.45,635.348 2335.31,635.147 2339.18,634.945 2343.05,634.742 2346.91,634.536 2350.78,634.33 
  2354.64,634.121 2358.51,633.912 2362.38,633.7 2366.24,633.487 2370.11,633.273 2373.98,633.057 2377.84,632.84 2381.71,632.622 2385.58,632.402 2389.44,632.18 
  2393.31,631.957 2397.17,631.733 2401.04,631.508 2404.91,631.281 2408.77,631.053 2412.64,630.823 2416.51,630.593 2420.37,630.361 2424.24,630.127 2428.11,629.893 
  2431.97,629.657 2435.84,629.42 2439.7,629.182 2443.57,628.943 2447.44,628.703 2451.3,628.461 2455.17,628.218 2459.04,627.974 2462.9,627.729 2466.77,627.483 
  2470.64,627.236 2474.5,626.988 2478.37,626.738 2482.23,626.488 2486.1,626.236 2489.97,625.984 2493.83,625.73 2497.7,625.476 2501.57,625.22 2505.43,624.964 
  2509.3,624.706 2513.17,624.448 2517.03,624.188 2520.9,623.928 2524.76,623.666 2528.63,623.404 2532.5,623.141 2536.36,622.876 2540.23,622.611 2544.1,622.345 
  2547.96,622.078 2551.83,621.811 2555.7,621.542 2559.56,621.273 2563.43,621.002 2567.29,620.731 2571.16,620.459 
  "/>
<path clip-path="url(#clip740)" d="
M2233.14 209.375 L2558.79 209.375 L2558.79 105.695 L2233.14 105.695  Z
  " fill="#ffffff" fill-rule="evenodd" fill-opacity="1"/>
<polyline clip-path="url(#clip740)" style="stroke:#000000; stroke-linecap:butt; stroke-linejoin:round; stroke-width:4; stroke-opacity:1; fill:none" points="
  2233.14,209.375 2558.79,209.375 2558.79,105.695 2233.14,105.695 2233.14,209.375 
  "/>
<polyline clip-path="url(#clip740)" style="stroke:#009af9; stroke-linecap:butt; stroke-linejoin:round; stroke-width:4; stroke-opacity:1; fill:none" points="
  2260.46,157.535 2424.39,157.535 
  "/>
<path clip-path="url(#clip740)" d="M2465.56 177.223 Q2463.75 181.852 2462.04 183.264 Q2460.33 184.676 2457.45 184.676 L2454.05 184.676 L2454.05 181.112 L2456.55 181.112 Q2458.31 181.112 2459.28 180.278 Q2460.26 179.445 2461.44 176.343 L2462.2 174.399 L2451.71 148.889 L2456.23 148.889 L2464.33 169.167 L2472.43 148.889 L2476.95 148.889 L2465.56 177.223 Z" fill="#000000" fill-rule="evenodd" fill-opacity="1" /><path clip-path="url(#clip740)" d="M2484.24 170.88 L2491.88 170.88 L2491.88 144.515 L2483.57 146.181 L2483.57 141.922 L2491.83 140.255 L2496.51 140.255 L2496.51 170.88 L2504.14 170.88 L2504.14 174.815 L2484.24 174.815 L2484.24 170.88 Z" fill="#000000" fill-rule="evenodd" fill-opacity="1" /></svg>
