<?xml version="1.0" encoding="utf-8"?>
<svg xmlns="http://www.w3.org/2000/svg" xmlns:xlink="http://www.w3.org/1999/xlink" width="672" height="480" viewBox="0 0 2688 1920">
<defs>
  <clipPath id="clip380">
    <rect x="0" y="0" width="2688" height="1920"/>
  </clipPath>
</defs>
<path clip-path="url(#clip380)" d="
M0 1920 L2688 1920 L2688 0 L0 0  Z
  " fill="#ffffff" fill-rule="evenodd" fill-opacity="1"/>
<defs>
  <clipPath id="clip381">
    <rect x="537" y="0" width="1883" height="1883"/>
  </clipPath>
</defs>
<path clip-path="url(#clip380)" d="
M181.747 1800.78 L2640.76 1800.78 L2640.76 47.2441 L181.747 47.2441  Z
  " fill="#ffffff" fill-rule="evenodd" fill-opacity="1"/>
<defs>
  <clipPath id="clip382">
    <rect x="181" y="47" width="2460" height="1755"/>
  </clipPath>
</defs>
<polyline clip-path="url(#clip382)" style="stroke:#000000; stroke-linecap:butt; stroke-linejoin:round; stroke-width:2; stroke-opacity:0.1; fill:none" points="
  649.47,1800.78 649.47,47.2441 
  "/>
<polyline clip-path="url(#clip382)" style="stroke:#000000; stroke-linecap:butt; stroke-linejoin:round; stroke-width:2; stroke-opacity:0.1; fill:none" points="
  1161.92,1800.78 1161.92,47.2441 
  "/>
<polyline clip-path="url(#clip382)" style="stroke:#000000; stroke-linecap:butt; stroke-linejoin:round; stroke-width:2; stroke-opacity:0.1; fill:none" points="
  1674.37,1800.78 1674.37,47.2441 
  "/>
<polyline clip-path="url(#clip382)" style="stroke:#000000; stroke-linecap:butt; stroke-linejoin:round; stroke-width:2; stroke-opacity:0.1; fill:none" points="
  2186.82,1800.78 2186.82,47.2441 
  "/>
<polyline clip-path="url(#clip380)" style="stroke:#000000; stroke-linecap:butt; stroke-linejoin:round; stroke-width:4; stroke-opacity:1; fill:none" points="
  181.747,1800.78 2640.76,1800.78 
  "/>
<polyline clip-path="url(#clip380)" style="stroke:#000000; stroke-linecap:butt; stroke-linejoin:round; stroke-width:4; stroke-opacity:1; fill:none" points="
  649.47,1800.78 649.47,1781.88 
  "/>
<polyline clip-path="url(#clip380)" style="stroke:#000000; stroke-linecap:butt; stroke-linejoin:round; stroke-width:4; stroke-opacity:1; fill:none" points="
  1161.92,1800.78 1161.92,1781.88 
  "/>
<polyline clip-path="url(#clip380)" style="stroke:#000000; stroke-linecap:butt; stroke-linejoin:round; stroke-width:4; stroke-opacity:1; fill:none" points="
  1674.37,1800.78 1674.37,1781.88 
  "/>
<polyline clip-path="url(#clip380)" style="stroke:#000000; stroke-linecap:butt; stroke-linejoin:round; stroke-width:4; stroke-opacity:1; fill:none" points="
  2186.82,1800.78 2186.82,1781.88 
  "/>
<path clip-path="url(#clip380)" d="M618.532 1848.65 L648.208 1848.65 L648.208 1852.59 L618.532 1852.59 L618.532 1848.65 Z" fill="#000000" fill-rule="evenodd" fill-opacity="1" /><path clip-path="url(#clip380)" d="M668.879 1846.34 Q665.731 1846.34 663.879 1848.49 Q662.051 1850.65 662.051 1854.4 Q662.051 1858.12 663.879 1860.3 Q665.731 1862.45 668.879 1862.45 Q672.028 1862.45 673.856 1860.3 Q675.708 1858.12 675.708 1854.4 Q675.708 1850.65 673.856 1848.49 Q672.028 1846.34 668.879 1846.34 M678.162 1831.69 L678.162 1835.95 Q676.403 1835.11 674.597 1834.67 Q672.815 1834.23 671.055 1834.23 Q666.426 1834.23 663.972 1837.36 Q661.542 1840.48 661.194 1846.8 Q662.56 1844.79 664.62 1843.72 Q666.68 1842.64 669.157 1842.64 Q674.366 1842.64 677.375 1845.81 Q680.407 1848.96 680.407 1854.4 Q680.407 1859.72 677.259 1862.94 Q674.111 1866.15 668.879 1866.15 Q662.884 1866.15 659.713 1861.57 Q656.542 1856.96 656.542 1848.24 Q656.542 1840.04 660.43 1835.18 Q664.319 1830.3 670.87 1830.3 Q672.629 1830.3 674.412 1830.65 Q676.217 1830.99 678.162 1831.69 Z" fill="#000000" fill-rule="evenodd" fill-opacity="1" /><path clip-path="url(#clip380)" d="M1131.39 1848.65 L1161.06 1848.65 L1161.06 1852.59 L1131.39 1852.59 L1131.39 1848.65 Z" fill="#000000" fill-rule="evenodd" fill-opacity="1" /><path clip-path="url(#clip380)" d="M1185.32 1846.85 Q1188.68 1847.57 1190.55 1849.84 Q1192.45 1852.1 1192.45 1855.44 Q1192.45 1860.55 1188.93 1863.35 Q1185.42 1866.15 1178.93 1866.15 Q1176.76 1866.15 1174.44 1865.71 Q1172.15 1865.3 1169.7 1864.44 L1169.7 1859.93 Q1171.64 1861.06 1173.96 1861.64 Q1176.27 1862.22 1178.8 1862.22 Q1183.19 1862.22 1185.49 1860.48 Q1187.8 1858.75 1187.8 1855.44 Q1187.8 1852.38 1185.65 1850.67 Q1183.52 1848.93 1179.7 1848.93 L1175.67 1848.93 L1175.67 1845.09 L1179.88 1845.09 Q1183.33 1845.09 1185.16 1843.72 Q1186.99 1842.34 1186.99 1839.74 Q1186.99 1837.08 1185.09 1835.67 Q1183.22 1834.23 1179.7 1834.23 Q1177.78 1834.23 1175.58 1834.65 Q1173.38 1835.07 1170.74 1835.95 L1170.74 1831.78 Q1173.4 1831.04 1175.72 1830.67 Q1178.06 1830.3 1180.12 1830.3 Q1185.44 1830.3 1188.54 1832.73 Q1191.64 1835.14 1191.64 1839.26 Q1191.64 1842.13 1190 1844.12 Q1188.36 1846.09 1185.32 1846.85 Z" fill="#000000" fill-rule="evenodd" fill-opacity="1" /><path clip-path="url(#clip380)" d="M1674.37 1834 Q1670.76 1834 1668.93 1837.57 Q1667.13 1841.11 1667.13 1848.24 Q1667.13 1855.34 1668.93 1858.91 Q1670.76 1862.45 1674.37 1862.45 Q1678.01 1862.45 1679.81 1858.91 Q1681.64 1855.34 1681.64 1848.24 Q1681.64 1841.11 1679.81 1837.57 Q1678.01 1834 1674.37 1834 M1674.37 1830.3 Q1680.18 1830.3 1683.24 1834.9 Q1686.32 1839.49 1686.32 1848.24 Q1686.32 1856.96 1683.24 1861.57 Q1680.18 1866.15 1674.37 1866.15 Q1668.56 1866.15 1665.48 1861.57 Q1662.43 1856.96 1662.43 1848.24 Q1662.43 1839.49 1665.48 1834.9 Q1668.56 1830.3 1674.37 1830.3 Z" fill="#000000" fill-rule="evenodd" fill-opacity="1" /><path clip-path="url(#clip380)" d="M2191.07 1846.85 Q2194.43 1847.57 2196.3 1849.84 Q2198.2 1852.1 2198.2 1855.44 Q2198.2 1860.55 2194.68 1863.35 Q2191.16 1866.15 2184.68 1866.15 Q2182.51 1866.15 2180.19 1865.71 Q2177.9 1865.3 2175.45 1864.44 L2175.45 1859.93 Q2177.39 1861.06 2179.7 1861.64 Q2182.02 1862.22 2184.54 1862.22 Q2188.94 1862.22 2191.23 1860.48 Q2193.55 1858.75 2193.55 1855.44 Q2193.55 1852.38 2191.39 1850.67 Q2189.27 1848.93 2185.45 1848.93 L2181.42 1848.93 L2181.42 1845.09 L2185.63 1845.09 Q2189.08 1845.09 2190.91 1843.72 Q2192.74 1842.34 2192.74 1839.74 Q2192.74 1837.08 2190.84 1835.67 Q2188.96 1834.23 2185.45 1834.23 Q2183.52 1834.23 2181.33 1834.65 Q2179.13 1835.07 2176.49 1835.95 L2176.49 1831.78 Q2179.15 1831.04 2181.46 1830.67 Q2183.8 1830.3 2185.86 1830.3 Q2191.19 1830.3 2194.29 1832.73 Q2197.39 1835.14 2197.39 1839.26 Q2197.39 1842.13 2195.75 1844.12 Q2194.1 1846.09 2191.07 1846.85 Z" fill="#000000" fill-rule="evenodd" fill-opacity="1" /><polyline clip-path="url(#clip382)" style="stroke:#000000; stroke-linecap:butt; stroke-linejoin:round; stroke-width:2; stroke-opacity:0.1; fill:none" points="
  181.747,1728.07 2640.76,1728.07 
  "/>
<polyline clip-path="url(#clip382)" style="stroke:#000000; stroke-linecap:butt; stroke-linejoin:round; stroke-width:2; stroke-opacity:0.1; fill:none" points="
  181.747,1322 2640.76,1322 
  "/>
<polyline clip-path="url(#clip382)" style="stroke:#000000; stroke-linecap:butt; stroke-linejoin:round; stroke-width:2; stroke-opacity:0.1; fill:none" points="
  181.747,915.93 2640.76,915.93 
  "/>
<polyline clip-path="url(#clip382)" style="stroke:#000000; stroke-linecap:butt; stroke-linejoin:round; stroke-width:2; stroke-opacity:0.1; fill:none" points="
  181.747,509.86 2640.76,509.86 
  "/>
<polyline clip-path="url(#clip382)" style="stroke:#000000; stroke-linecap:butt; stroke-linejoin:round; stroke-width:2; stroke-opacity:0.1; fill:none" points="
  181.747,103.79 2640.76,103.79 
  "/>
<polyline clip-path="url(#clip380)" style="stroke:#000000; stroke-linecap:butt; stroke-linejoin:round; stroke-width:4; stroke-opacity:1; fill:none" points="
  181.747,1800.78 181.747,47.2441 
  "/>
<polyline clip-path="url(#clip380)" style="stroke:#000000; stroke-linecap:butt; stroke-linejoin:round; stroke-width:4; stroke-opacity:1; fill:none" points="
  181.747,1728.07 200.644,1728.07 
  "/>
<polyline clip-path="url(#clip380)" style="stroke:#000000; stroke-linecap:butt; stroke-linejoin:round; stroke-width:4; stroke-opacity:1; fill:none" points="
  181.747,1322 200.644,1322 
  "/>
<polyline clip-path="url(#clip380)" style="stroke:#000000; stroke-linecap:butt; stroke-linejoin:round; stroke-width:4; stroke-opacity:1; fill:none" points="
  181.747,915.93 200.644,915.93 
  "/>
<polyline clip-path="url(#clip380)" style="stroke:#000000; stroke-linecap:butt; stroke-linejoin:round; stroke-width:4; stroke-opacity:1; fill:none" points="
  181.747,509.86 200.644,509.86 
  "/>
<polyline clip-path="url(#clip380)" style="stroke:#000000; stroke-linecap:butt; stroke-linejoin:round; stroke-width:4; stroke-opacity:1; fill:none" points="
  181.747,103.79 200.644,103.79 
  "/>
<path clip-path="url(#clip380)" d="M49.5521 1728.52 L79.2279 1728.52 L79.2279 1732.46 L49.5521 1732.46 L49.5521 1728.52 Z" fill="#000000" fill-rule="evenodd" fill-opacity="1" /><path clip-path="url(#clip380)" d="M102.168 1714.86 L90.3621 1733.31 L102.168 1733.31 L102.168 1714.86 M100.941 1710.79 L106.82 1710.79 L106.82 1733.31 L111.751 1733.31 L111.751 1737.2 L106.82 1737.2 L106.82 1745.35 L102.168 1745.35 L102.168 1737.2 L86.5658 1737.2 L86.5658 1732.69 L100.941 1710.79 Z" fill="#000000" fill-rule="evenodd" fill-opacity="1" /><path clip-path="url(#clip380)" d="M129.482 1713.87 Q125.871 1713.87 124.042 1717.43 Q122.237 1720.98 122.237 1728.11 Q122.237 1735.21 124.042 1738.78 Q125.871 1742.32 129.482 1742.32 Q133.116 1742.32 134.922 1738.78 Q136.751 1735.21 136.751 1728.11 Q136.751 1720.98 134.922 1717.43 Q133.116 1713.87 129.482 1713.87 M129.482 1710.17 Q135.292 1710.17 138.348 1714.77 Q141.427 1719.36 141.427 1728.11 Q141.427 1736.83 138.348 1741.44 Q135.292 1746.02 129.482 1746.02 Q123.672 1746.02 120.593 1741.44 Q117.538 1736.83 117.538 1728.11 Q117.538 1719.36 120.593 1714.77 Q123.672 1710.17 129.482 1710.17 Z" fill="#000000" fill-rule="evenodd" fill-opacity="1" /><path clip-path="url(#clip380)" d="M49.5521 1322.45 L79.2279 1322.45 L79.2279 1326.39 L49.5521 1326.39 L49.5521 1322.45 Z" fill="#000000" fill-rule="evenodd" fill-opacity="1" /><path clip-path="url(#clip380)" d="M93.3482 1335.35 L109.668 1335.35 L109.668 1339.28 L87.7232 1339.28 L87.7232 1335.35 Q90.3852 1332.59 94.9685 1327.96 Q99.575 1323.31 100.756 1321.97 Q103.001 1319.44 103.881 1317.71 Q104.783 1315.95 104.783 1314.26 Q104.783 1311.5 102.839 1309.77 Q100.918 1308.03 97.8158 1308.03 Q95.6167 1308.03 93.163 1308.79 Q90.7325 1309.56 87.9547 1311.11 L87.9547 1306.39 Q90.7788 1305.25 93.2324 1304.67 Q95.6861 1304.1 97.7232 1304.1 Q103.094 1304.1 106.288 1306.78 Q109.482 1309.47 109.482 1313.96 Q109.482 1316.09 108.672 1318.01 Q107.885 1319.91 105.779 1322.5 Q105.2 1323.17 102.098 1326.39 Q98.9963 1329.58 93.3482 1335.35 Z" fill="#000000" fill-rule="evenodd" fill-opacity="1" /><path clip-path="url(#clip380)" d="M129.482 1307.8 Q125.871 1307.8 124.042 1311.36 Q122.237 1314.91 122.237 1322.03 Q122.237 1329.14 124.042 1332.71 Q125.871 1336.25 129.482 1336.25 Q133.116 1336.25 134.922 1332.71 Q136.751 1329.14 136.751 1322.03 Q136.751 1314.91 134.922 1311.36 Q133.116 1307.8 129.482 1307.8 M129.482 1304.1 Q135.292 1304.1 138.348 1308.7 Q141.427 1313.28 141.427 1322.03 Q141.427 1330.76 138.348 1335.37 Q135.292 1339.95 129.482 1339.95 Q123.672 1339.95 120.593 1335.37 Q117.538 1330.76 117.538 1322.03 Q117.538 1313.28 120.593 1308.7 Q123.672 1304.1 129.482 1304.1 Z" fill="#000000" fill-rule="evenodd" fill-opacity="1" /><path clip-path="url(#clip380)" d="M129.482 901.729 Q125.871 901.729 124.042 905.293 Q122.237 908.835 122.237 915.965 Q122.237 923.071 124.042 926.636 Q125.871 930.178 129.482 930.178 Q133.116 930.178 134.922 926.636 Q136.751 923.071 136.751 915.965 Q136.751 908.835 134.922 905.293 Q133.116 901.729 129.482 901.729 M129.482 898.025 Q135.292 898.025 138.348 902.631 Q141.427 907.215 141.427 915.965 Q141.427 924.692 138.348 929.298 Q135.292 933.881 129.482 933.881 Q123.672 933.881 120.593 929.298 Q117.538 924.692 117.538 915.965 Q117.538 907.215 120.593 902.631 Q123.672 898.025 129.482 898.025 Z" fill="#000000" fill-rule="evenodd" fill-opacity="1" /><path clip-path="url(#clip380)" d="M93.3482 523.205 L109.668 523.205 L109.668 527.14 L87.7232 527.14 L87.7232 523.205 Q90.3852 520.45 94.9685 515.82 Q99.575 511.168 100.756 509.825 Q103.001 507.302 103.881 505.566 Q104.783 503.807 104.783 502.117 Q104.783 499.362 102.839 497.626 Q100.918 495.89 97.8158 495.89 Q95.6167 495.89 93.163 496.654 Q90.7325 497.418 87.9547 498.969 L87.9547 494.246 Q90.7788 493.112 93.2324 492.533 Q95.6861 491.955 97.7232 491.955 Q103.094 491.955 106.288 494.64 Q109.482 497.325 109.482 501.816 Q109.482 503.945 108.672 505.867 Q107.885 507.765 105.779 510.357 Q105.2 511.029 102.098 514.246 Q98.9963 517.441 93.3482 523.205 Z" fill="#000000" fill-rule="evenodd" fill-opacity="1" /><path clip-path="url(#clip380)" d="M129.482 495.658 Q125.871 495.658 124.042 499.223 Q122.237 502.765 122.237 509.895 Q122.237 517.001 124.042 520.566 Q125.871 524.107 129.482 524.107 Q133.116 524.107 134.922 520.566 Q136.751 517.001 136.751 509.895 Q136.751 502.765 134.922 499.223 Q133.116 495.658 129.482 495.658 M129.482 491.955 Q135.292 491.955 138.348 496.561 Q141.427 501.145 141.427 509.895 Q141.427 518.621 138.348 523.228 Q135.292 527.811 129.482 527.811 Q123.672 527.811 120.593 523.228 Q117.538 518.621 117.538 509.895 Q117.538 501.145 120.593 496.561 Q123.672 491.955 129.482 491.955 Z" fill="#000000" fill-rule="evenodd" fill-opacity="1" /><path clip-path="url(#clip380)" d="M102.168 90.5836 L90.3621 109.033 L102.168 109.033 L102.168 90.5836 M100.941 86.5096 L106.82 86.5096 L106.82 109.033 L111.751 109.033 L111.751 112.921 L106.82 112.921 L106.82 121.07 L102.168 121.07 L102.168 112.921 L86.5658 112.921 L86.5658 108.408 L100.941 86.5096 Z" fill="#000000" fill-rule="evenodd" fill-opacity="1" /><path clip-path="url(#clip380)" d="M129.482 89.5883 Q125.871 89.5883 124.042 93.1531 Q122.237 96.6947 122.237 103.824 Q122.237 110.931 124.042 114.496 Q125.871 118.037 129.482 118.037 Q133.116 118.037 134.922 114.496 Q136.751 110.931 136.751 103.824 Q136.751 96.6947 134.922 93.1531 Q133.116 89.5883 129.482 89.5883 M129.482 85.8846 Q135.292 85.8846 138.348 90.491 Q141.427 95.0743 141.427 103.824 Q141.427 112.551 138.348 117.158 Q135.292 121.741 129.482 121.741 Q123.672 121.741 120.593 117.158 Q117.538 112.551 117.538 103.824 Q117.538 95.0743 120.593 90.491 Q123.672 85.8846 129.482 85.8846 Z" fill="#000000" fill-rule="evenodd" fill-opacity="1" /><polyline clip-path="url(#clip382)" style="stroke:#009af9; stroke-linecap:butt; stroke-linejoin:round; stroke-width:4; stroke-opacity:1; fill:none" points="
  251.341,1218.27 255.208,1218.02 259.074,1217.79 262.94,1217.55 266.807,1217.31 270.673,1217.08 274.539,1216.85 278.406,1216.62 282.272,1216.39 286.139,1216.17 
  290.005,1215.95 293.871,1215.73 297.738,1215.51 301.604,1215.29 305.47,1215.08 309.337,1214.86 313.203,1214.65 317.069,1214.45 320.936,1214.24 324.802,1214.04 
  328.669,1213.84 332.535,1213.64 336.401,1213.44 340.268,1213.25 344.134,1213.06 348,1212.87 351.867,1212.68 355.733,1212.5 359.6,1212.32 363.466,1212.14 
  367.332,1211.97 371.199,1211.8 375.065,1211.63 378.931,1211.46 382.798,1211.3 386.664,1211.13 390.53,1210.98 394.397,1210.82 398.263,1210.67 402.13,1210.52 
  405.996,1210.38 409.862,1210.23 413.729,1210.1 417.595,1209.96 421.461,1209.83 425.328,1209.7 429.194,1209.57 433.06,1209.45 436.927,1209.33 440.793,1209.22 
  444.66,1209.11 448.526,1209 452.392,1208.9 456.259,1208.8 460.125,1208.7 463.991,1208.61 467.858,1208.52 471.724,1208.44 475.591,1208.36 479.457,1208.29 
  483.323,1208.21 487.19,1208.15 491.056,1208.09 494.922,1208.03 498.789,1207.98 502.655,1207.93 506.521,1207.89 510.388,1207.85 514.254,1207.82 518.121,1207.79 
  521.987,1207.77 525.853,1207.75 529.72,1207.74 533.586,1207.73 537.452,1207.73 541.319,1207.74 545.185,1207.75 549.051,1207.77 552.918,1207.79 556.784,1207.82 
  560.651,1207.85 564.517,1207.89 568.383,1207.94 572.25,1208 576.116,1208.06 579.982,1208.13 583.849,1208.2 587.715,1208.28 591.582,1208.37 595.448,1208.47 
  599.314,1208.58 603.181,1208.69 607.047,1208.81 610.913,1208.94 614.78,1209.08 618.646,1209.22 622.512,1209.38 626.379,1209.54 630.245,1209.71 634.112,1209.89 
  637.978,1210.08 641.844,1210.28 645.711,1210.49 649.577,1210.71 653.443,1210.94 657.31,1211.18 661.176,1211.44 665.042,1211.7 668.909,1211.97 672.775,1212.26 
  676.642,1212.56 680.508,1212.87 684.374,1213.19 688.241,1213.52 692.107,1213.87 695.973,1214.23 699.84,1214.61 703.706,1215 707.573,1215.4 711.439,1215.82 
  715.305,1216.25 719.172,1216.7 723.038,1217.16 726.904,1217.65 730.771,1218.14 734.637,1218.66 738.503,1219.19 742.37,1219.74 746.236,1220.31 750.103,1220.9 
  753.969,1221.51 757.835,1222.14 761.702,1222.79 765.568,1223.46 769.434,1224.16 773.301,1224.87 777.167,1225.61 781.033,1226.38 784.9,1227.17 788.766,1227.99 
  792.633,1228.83 796.499,1229.7 800.365,1230.6 804.232,1231.52 808.098,1232.48 811.964,1233.47 815.831,1234.49 819.697,1235.55 823.564,1236.64 827.43,1237.76 
  831.296,1238.92 835.163,1240.12 839.029,1241.36 842.895,1242.64 846.762,1243.97 850.628,1245.34 854.494,1246.75 858.361,1248.21 862.227,1249.72 866.094,1251.28 
  869.96,1252.9 873.826,1254.57 877.693,1256.3 881.559,1258.09 885.425,1259.94 889.292,1261.86 893.158,1263.84 897.024,1265.9 900.891,1268.03 904.757,1270.24 
  908.624,1272.53 912.49,1274.91 916.356,1277.37 920.223,1279.93 924.089,1282.59 927.955,1285.35 931.822,1288.21 935.688,1291.2 939.555,1294.3 943.421,1297.52 
  947.287,1300.88 951.154,1304.38 955.02,1308.02 958.886,1311.83 962.753,1315.79 966.619,1319.94 970.485,1324.27 974.352,1328.79 978.218,1333.53 982.085,1338.49 
  985.951,1343.68 989.817,1349.13 993.684,1354.85 997.55,1360.87 1001.42,1367.19 1005.28,1373.85 1009.15,1380.87 1013.02,1388.27 1016.88,1396.1 1020.75,1404.38 
  1024.61,1413.15 1028.48,1422.45 1032.35,1432.34 1036.21,1442.86 1040.08,1454.08 1043.95,1466.07 1047.81,1478.9 1051.68,1492.66 1055.55,1507.45 1059.41,1523.4 
  1063.28,1540.63 1067.14,1559.3 1071.01,1579.6 1074.88,1601.74 1078.74,1625.98 1082.61,1652.63 1086.48,1682.06 1090.34,1714.71 1094.21,1751.15 
  "/>
<polyline clip-path="url(#clip382)" style="stroke:#009af9; stroke-linecap:butt; stroke-linejoin:round; stroke-width:4; stroke-opacity:1; fill:none" points="
  1210.2,96.8724 1214.07,167.44 1217.93,228.203 1221.8,281.061 1225.67,327.452 1229.53,368.486 1233.4,405.033 1237.26,437.782 1241.13,467.29 1245,494.011 
  1248.86,518.314 1252.73,540.51 1256.6,560.857 1260.46,579.571 1264.33,596.839 1268.2,612.818 1272.06,627.643 1275.93,641.433 1279.79,654.289 1283.66,666.299 
  1287.53,677.543 1291.39,688.088 1295.26,697.996 1299.13,707.321 1302.99,716.11 1306.86,724.406 1310.73,732.247 1314.59,739.669 1318.46,746.703 1322.32,753.376 
  1326.19,759.713 1330.06,765.739 1333.92,771.474 1337.79,776.937 1341.66,782.146 1345.52,787.117 1349.39,791.865 1353.26,796.403 1357.12,800.743 1360.99,804.898 
  1364.85,808.877 1368.72,812.691 1372.59,816.349 1376.45,819.859 1380.32,823.229 1384.19,826.466 1388.05,829.578 1391.92,832.57 1395.79,835.448 1399.65,838.219 
  1403.52,840.887 1407.38,843.457 1411.25,845.933 1415.12,848.321 1418.98,850.623 1422.85,852.845 1426.72,854.988 1430.58,857.057 1434.45,859.055 1438.32,860.985 
  1442.18,862.85 1446.05,864.652 1449.91,866.393 1453.78,868.077 1457.65,869.706 1461.51,871.281 1465.38,872.806 1469.25,874.28 1473.11,875.708 1476.98,877.089 
  1480.85,878.427 1484.71,879.722 1488.58,880.977 1492.44,882.191 1496.31,883.368 1500.18,884.508 1504.04,885.613 1507.91,886.683 1511.78,887.72 1515.64,888.725 
  1519.51,889.698 1523.38,890.642 1527.24,891.557 1531.11,892.444 1534.98,893.303 1538.84,894.137 1542.71,894.944 1546.57,895.727 1550.44,896.486 1554.31,897.221 
  1558.17,897.934 1562.04,898.625 1565.91,899.294 1569.77,899.943 1573.64,900.572 1577.51,901.181 1581.37,901.772 1585.24,902.344 1589.1,902.898 1592.97,903.434 
  1596.84,903.954 1600.7,904.457 1604.57,904.944 1608.44,905.416 1612.3,905.872 1616.17,906.314 1620.04,906.741 1623.9,907.154 1627.77,907.554 1631.63,907.94 
  1635.5,908.314 1639.37,908.674 1643.23,909.023 1647.1,909.359 1650.97,909.684 1654.83,909.998 1658.7,910.3 1662.57,910.592 1666.43,910.873 1670.3,911.144 
  1674.16,911.404 1678.03,911.655 1681.9,911.897 1685.76,912.129 1689.63,912.352 1693.5,912.566 1697.36,912.772 1701.23,912.969 1705.1,913.158 1708.96,913.339 
  1712.83,913.512 1716.69,913.678 1720.56,913.836 1724.43,913.987 1728.29,914.131 1732.16,914.268 1736.03,914.398 1739.89,914.521 1743.76,914.639 1747.63,914.75 
  1751.49,914.855 1755.36,914.954 1759.22,915.047 1763.09,915.135 1766.96,915.217 1770.82,915.294 1774.69,915.366 1778.56,915.432 1782.42,915.494 1786.29,915.551 
  1790.16,915.604 1794.02,915.652 1797.89,915.695 1801.75,915.735 1805.62,915.77 1809.49,915.802 1813.35,915.83 1817.22,915.854 1821.09,915.874 1824.95,915.891 
  1828.82,915.905 1832.69,915.916 1836.55,915.923 1840.42,915.928 1844.28,915.93 1848.15,915.929 1852.02,915.926 1855.88,915.921 1859.75,915.913 1863.62,915.903 
  1867.48,915.891 1871.35,915.877 1875.22,915.862 1879.08,915.845 1882.95,915.827 1886.81,915.808 1890.68,915.787 1894.55,915.766 1898.41,915.744 1902.28,915.721 
  1906.15,915.698 1910.01,915.674 1913.88,915.651 1917.75,915.628 1921.61,915.605 1925.48,915.582 1929.34,915.561 1933.21,915.54 1937.08,915.521 1940.94,915.503 
  1944.81,915.487 1948.68,915.473 1952.54,915.461 1956.41,915.451 1960.28,915.445 1964.14,915.442 1968.01,915.442 1971.87,915.446 1975.74,915.455 1979.61,915.469 
  1983.47,915.487 1987.34,915.512 1991.21,915.543 1995.07,915.58 1998.94,915.625 2002.81,915.678 2006.67,915.74 2010.54,915.811 2014.4,915.893 2018.27,915.986 
  2022.14,916.091 2026,916.21 2029.87,916.343 2033.74,916.491 2037.6,916.657 2041.47,916.842 2045.34,917.047 2049.2,917.275 2053.07,917.527 2056.93,917.806 
  2060.8,918.115 2064.67,918.457 2068.53,918.834 2072.4,919.252 2076.27,919.713 2080.13,920.225 2084,920.791 2087.87,921.42 2091.73,922.118 2095.6,922.895 
  2099.46,923.761 2103.33,924.73 2107.2,925.816 2111.06,927.037 2114.93,928.417 2118.8,929.981 2122.66,931.764 2126.53,933.809 2130.4,936.168 2134.26,938.912 
  2138.13,942.134 2141.99,945.956 2145.86,950.551 2149.73,956.158 2153.59,963.133 2157.46,972.017 2161.33,983.678 2165.19,999.606 2169.06,1022.59 2172.93,1058.52 
  2176.79,1122.36 2180.66,1266.63 
  "/>
<polyline clip-path="url(#clip382)" style="stroke:#009af9; stroke-linecap:butt; stroke-linejoin:round; stroke-width:4; stroke-opacity:1; fill:none" points="
  2192.26,465.242 2196.12,641.819 2199.99,714.523 2203.86,754.087 2207.72,778.903 2211.59,795.877 2215.46,808.186 2219.32,817.494 2223.19,824.758 2227.05,830.567 
  2230.92,835.303 2234.79,839.226 2238.65,842.517 2242.52,845.307 2246.39,847.695 2250.25,849.753 2254.12,851.538 2257.99,853.095 2261.85,854.458 2265.72,855.656 
  2269.58,856.711 2273.45,857.644 2277.32,858.469 2281.18,859.2 2285.05,859.847 2288.92,860.42 2292.78,860.927 2296.65,861.375 2300.52,861.77 2304.38,862.116 
  2308.25,862.42 2312.11,862.683 2315.98,862.911 2319.85,863.105 2323.71,863.27 2327.58,863.406 2331.45,863.517 2335.31,863.604 2339.18,863.669 2343.05,863.713 
  2346.91,863.739 2350.78,863.747 2354.64,863.738 2358.51,863.714 2362.38,863.676 2366.24,863.624 2370.11,863.559 2373.98,863.482 2377.84,863.394 2381.71,863.295 
  2385.58,863.186 2389.44,863.067 2393.31,862.94 2397.17,862.804 2401.04,862.659 2404.91,862.507 2408.77,862.348 2412.64,862.181 2416.51,862.008 2420.37,861.828 
  2424.24,861.642 2428.11,861.451 2431.97,861.253 2435.84,861.051 2439.7,860.843 2443.57,860.63 2447.44,860.413 2451.3,860.191 2455.17,859.964 2459.04,859.734 
  2462.9,859.499 2466.77,859.261 2470.64,859.018 2474.5,858.772 2478.37,858.523 2482.23,858.27 2486.1,858.014 2489.97,857.754 2493.83,857.492 2497.7,857.227 
  2501.57,856.958 2505.43,856.687 2509.3,856.413 2513.17,856.137 2517.03,855.858 2520.9,855.577 2524.76,855.293 2528.63,855.007 2532.5,854.718 2536.36,854.427 
  2540.23,854.135 2544.1,853.84 2547.96,853.543 2551.83,853.244 2555.7,852.943 2559.56,852.64 2563.43,852.336 2567.29,852.029 2571.16,851.721 
  "/>
<path clip-path="url(#clip380)" d="
M2233.14 209.375 L2558.79 209.375 L2558.79 105.695 L2233.14 105.695  Z
  " fill="#ffffff" fill-rule="evenodd" fill-opacity="1"/>
<polyline clip-path="url(#clip380)" style="stroke:#000000; stroke-linecap:butt; stroke-linejoin:round; stroke-width:4; stroke-opacity:1; fill:none" points="
  2233.14,209.375 2558.79,209.375 2558.79,105.695 2233.14,105.695 2233.14,209.375 
  "/>
<polyline clip-path="url(#clip380)" style="stroke:#009af9; stroke-linecap:butt; stroke-linejoin:round; stroke-width:4; stroke-opacity:1; fill:none" points="
  2260.46,157.535 2424.39,157.535 
  "/>
<path clip-path="url(#clip380)" d="M2465.56 177.223 Q2463.75 181.852 2462.04 183.264 Q2460.33 184.676 2457.45 184.676 L2454.05 184.676 L2454.05 181.112 L2456.55 181.112 Q2458.31 181.112 2459.28 180.278 Q2460.26 179.445 2461.44 176.343 L2462.2 174.399 L2451.71 148.889 L2456.23 148.889 L2464.33 169.167 L2472.43 148.889 L2476.95 148.889 L2465.56 177.223 Z" fill="#000000" fill-rule="evenodd" fill-opacity="1" /><path clip-path="url(#clip380)" d="M2484.24 170.88 L2491.88 170.88 L2491.88 144.515 L2483.57 146.181 L2483.57 141.922 L2491.83 140.255 L2496.51 140.255 L2496.51 170.88 L2504.14 170.88 L2504.14 174.815 L2484.24 174.815 L2484.24 170.88 Z" fill="#000000" fill-rule="evenodd" fill-opacity="1" /></svg>
