<?xml version="1.0" encoding="utf-8"?>
<svg xmlns="http://www.w3.org/2000/svg" xmlns:xlink="http://www.w3.org/1999/xlink" width="672" height="480" viewBox="0 0 2688 1920">
<defs>
  <clipPath id="clip430">
    <rect x="0" y="0" width="2688" height="1920"/>
  </clipPath>
</defs>
<path clip-path="url(#clip430)" d="
M0 1920 L2688 1920 L2688 0 L0 0  Z
  " fill="#ffffff" fill-rule="evenodd" fill-opacity="1"/>
<defs>
  <clipPath id="clip431">
    <rect x="537" y="0" width="1883" height="1883"/>
  </clipPath>
</defs>
<path clip-path="url(#clip430)" d="
M242.07 1800.78 L2640.76 1800.78 L2640.76 47.2441 L242.07 47.2441  Z
  " fill="#ffffff" fill-rule="evenodd" fill-opacity="1"/>
<defs>
  <clipPath id="clip432">
    <rect x="242" y="47" width="2400" height="1755"/>
  </clipPath>
</defs>
<polyline clip-path="url(#clip432)" style="stroke:#000000; stroke-linecap:butt; stroke-linejoin:round; stroke-width:2; stroke-opacity:0.1; fill:none" points="
  309.958,1800.78 309.958,47.2441 
  "/>
<polyline clip-path="url(#clip432)" style="stroke:#000000; stroke-linecap:butt; stroke-linejoin:round; stroke-width:2; stroke-opacity:0.1; fill:none" points="
  875.685,1800.78 875.685,47.2441 
  "/>
<polyline clip-path="url(#clip432)" style="stroke:#000000; stroke-linecap:butt; stroke-linejoin:round; stroke-width:2; stroke-opacity:0.1; fill:none" points="
  1441.41,1800.78 1441.41,47.2441 
  "/>
<polyline clip-path="url(#clip432)" style="stroke:#000000; stroke-linecap:butt; stroke-linejoin:round; stroke-width:2; stroke-opacity:0.1; fill:none" points="
  2007.14,1800.78 2007.14,47.2441 
  "/>
<polyline clip-path="url(#clip432)" style="stroke:#000000; stroke-linecap:butt; stroke-linejoin:round; stroke-width:2; stroke-opacity:0.1; fill:none" points="
  2572.87,1800.78 2572.87,47.2441 
  "/>
<polyline clip-path="url(#clip430)" style="stroke:#000000; stroke-linecap:butt; stroke-linejoin:round; stroke-width:4; stroke-opacity:1; fill:none" points="
  242.07,1800.78 2640.76,1800.78 
  "/>
<polyline clip-path="url(#clip430)" style="stroke:#000000; stroke-linecap:butt; stroke-linejoin:round; stroke-width:4; stroke-opacity:1; fill:none" points="
  309.958,1800.78 309.958,1781.88 
  "/>
<polyline clip-path="url(#clip430)" style="stroke:#000000; stroke-linecap:butt; stroke-linejoin:round; stroke-width:4; stroke-opacity:1; fill:none" points="
  875.685,1800.78 875.685,1781.88 
  "/>
<polyline clip-path="url(#clip430)" style="stroke:#000000; stroke-linecap:butt; stroke-linejoin:round; stroke-width:4; stroke-opacity:1; fill:none" points="
  1441.41,1800.78 1441.41,1781.88 
  "/>
<polyline clip-path="url(#clip430)" style="stroke:#000000; stroke-linecap:butt; stroke-linejoin:round; stroke-width:4; stroke-opacity:1; fill:none" points="
  2007.14,1800.78 2007.14,1781.88 
  "/>
<polyline clip-path="url(#clip430)" style="stroke:#000000; stroke-linecap:butt; stroke-linejoin:round; stroke-width:4; stroke-opacity:1; fill:none" points="
  2572.87,1800.78 2572.87,1781.88 
  "/>
<path clip-path="url(#clip430)" d="M264.02 1848.65 L293.696 1848.65 L293.696 1852.59 L264.02 1852.59 L264.02 1848.65 Z" fill="#000000" fill-rule="evenodd" fill-opacity="1" /><path clip-path="url(#clip430)" d="M304.599 1861.55 L312.238 1861.55 L312.238 1835.18 L303.928 1836.85 L303.928 1832.59 L312.191 1830.92 L316.867 1830.92 L316.867 1861.55 L324.506 1861.55 L324.506 1865.48 L304.599 1865.48 L304.599 1861.55 Z" fill="#000000" fill-rule="evenodd" fill-opacity="1" /><path clip-path="url(#clip430)" d="M343.951 1834 Q340.339 1834 338.511 1837.57 Q336.705 1841.11 336.705 1848.24 Q336.705 1855.34 338.511 1858.91 Q340.339 1862.45 343.951 1862.45 Q347.585 1862.45 349.39 1858.91 Q351.219 1855.34 351.219 1848.24 Q351.219 1841.11 349.39 1837.57 Q347.585 1834 343.951 1834 M343.951 1830.3 Q349.761 1830.3 352.816 1834.9 Q355.895 1839.49 355.895 1848.24 Q355.895 1856.96 352.816 1861.57 Q349.761 1866.15 343.951 1866.15 Q338.14 1866.15 335.062 1861.57 Q332.006 1856.96 332.006 1848.24 Q332.006 1839.49 335.062 1834.9 Q338.14 1830.3 343.951 1830.3 Z" fill="#000000" fill-rule="evenodd" fill-opacity="1" /><path clip-path="url(#clip430)" d="M845.327 1848.65 L875.003 1848.65 L875.003 1852.59 L845.327 1852.59 L845.327 1848.65 Z" fill="#000000" fill-rule="evenodd" fill-opacity="1" /><path clip-path="url(#clip430)" d="M885.141 1830.92 L903.498 1830.92 L903.498 1834.86 L889.424 1834.86 L889.424 1843.33 Q890.442 1842.98 891.461 1842.82 Q892.479 1842.64 893.498 1842.64 Q899.285 1842.64 902.664 1845.81 Q906.044 1848.98 906.044 1854.4 Q906.044 1859.97 902.572 1863.08 Q899.1 1866.15 892.78 1866.15 Q890.604 1866.15 888.336 1865.78 Q886.09 1865.41 883.683 1864.67 L883.683 1859.97 Q885.766 1861.11 887.989 1861.66 Q890.211 1862.22 892.688 1862.22 Q896.692 1862.22 899.03 1860.11 Q901.368 1858.01 901.368 1854.4 Q901.368 1850.78 899.03 1848.68 Q896.692 1846.57 892.688 1846.57 Q890.813 1846.57 888.938 1846.99 Q887.086 1847.4 885.141 1848.28 L885.141 1830.92 Z" fill="#000000" fill-rule="evenodd" fill-opacity="1" /><path clip-path="url(#clip430)" d="M1441.41 1834 Q1437.8 1834 1435.97 1837.57 Q1434.17 1841.11 1434.17 1848.24 Q1434.17 1855.34 1435.97 1858.91 Q1437.8 1862.45 1441.41 1862.45 Q1445.05 1862.45 1446.85 1858.91 Q1448.68 1855.34 1448.68 1848.24 Q1448.68 1841.11 1446.85 1837.57 Q1445.05 1834 1441.41 1834 M1441.41 1830.3 Q1447.22 1830.3 1450.28 1834.9 Q1453.36 1839.49 1453.36 1848.24 Q1453.36 1856.96 1450.28 1861.57 Q1447.22 1866.15 1441.41 1866.15 Q1435.6 1866.15 1432.52 1861.57 Q1429.47 1856.96 1429.47 1848.24 Q1429.47 1839.49 1432.52 1834.9 Q1435.6 1830.3 1441.41 1830.3 Z" fill="#000000" fill-rule="evenodd" fill-opacity="1" /><path clip-path="url(#clip430)" d="M1997.42 1830.92 L2015.78 1830.92 L2015.78 1834.86 L2001.7 1834.86 L2001.7 1843.33 Q2002.72 1842.98 2003.74 1842.82 Q2004.76 1842.64 2005.78 1842.64 Q2011.56 1842.64 2014.94 1845.81 Q2018.32 1848.98 2018.32 1854.4 Q2018.32 1859.97 2014.85 1863.08 Q2011.38 1866.15 2005.06 1866.15 Q2002.88 1866.15 2000.61 1865.78 Q1998.37 1865.41 1995.96 1864.67 L1995.96 1859.97 Q1998.04 1861.11 2000.27 1861.66 Q2002.49 1862.22 2004.96 1862.22 Q2008.97 1862.22 2011.31 1860.11 Q2013.65 1858.01 2013.65 1854.4 Q2013.65 1850.78 2011.31 1848.68 Q2008.97 1846.57 2004.96 1846.57 Q2003.09 1846.57 2001.21 1846.99 Q1999.36 1847.4 1997.42 1848.28 L1997.42 1830.92 Z" fill="#000000" fill-rule="evenodd" fill-opacity="1" /><path clip-path="url(#clip430)" d="M2547.56 1861.55 L2555.2 1861.55 L2555.2 1835.18 L2546.88 1836.85 L2546.88 1832.59 L2555.15 1830.92 L2559.82 1830.92 L2559.82 1861.55 L2567.46 1861.55 L2567.46 1865.48 L2547.56 1865.48 L2547.56 1861.55 Z" fill="#000000" fill-rule="evenodd" fill-opacity="1" /><path clip-path="url(#clip430)" d="M2586.91 1834 Q2583.3 1834 2581.47 1837.57 Q2579.66 1841.11 2579.66 1848.24 Q2579.66 1855.34 2581.47 1858.91 Q2583.3 1862.45 2586.91 1862.45 Q2590.54 1862.45 2592.35 1858.91 Q2594.18 1855.34 2594.18 1848.24 Q2594.18 1841.11 2592.35 1837.57 Q2590.54 1834 2586.91 1834 M2586.91 1830.3 Q2592.72 1830.3 2595.77 1834.9 Q2598.85 1839.49 2598.85 1848.24 Q2598.85 1856.96 2595.77 1861.57 Q2592.72 1866.15 2586.91 1866.15 Q2581.1 1866.15 2578.02 1861.57 Q2574.96 1856.96 2574.96 1848.24 Q2574.96 1839.49 2578.02 1834.9 Q2581.1 1830.3 2586.91 1830.3 Z" fill="#000000" fill-rule="evenodd" fill-opacity="1" /><polyline clip-path="url(#clip432)" style="stroke:#000000; stroke-linecap:butt; stroke-linejoin:round; stroke-width:2; stroke-opacity:0.1; fill:none" points="
  242.07,1555.79 2640.76,1555.79 
  "/>
<polyline clip-path="url(#clip432)" style="stroke:#000000; stroke-linecap:butt; stroke-linejoin:round; stroke-width:2; stroke-opacity:0.1; fill:none" points="
  242.07,1242.45 2640.76,1242.45 
  "/>
<polyline clip-path="url(#clip432)" style="stroke:#000000; stroke-linecap:butt; stroke-linejoin:round; stroke-width:2; stroke-opacity:0.1; fill:none" points="
  242.07,929.114 2640.76,929.114 
  "/>
<polyline clip-path="url(#clip432)" style="stroke:#000000; stroke-linecap:butt; stroke-linejoin:round; stroke-width:2; stroke-opacity:0.1; fill:none" points="
  242.07,615.774 2640.76,615.774 
  "/>
<polyline clip-path="url(#clip432)" style="stroke:#000000; stroke-linecap:butt; stroke-linejoin:round; stroke-width:2; stroke-opacity:0.1; fill:none" points="
  242.07,302.435 2640.76,302.435 
  "/>
<polyline clip-path="url(#clip430)" style="stroke:#000000; stroke-linecap:butt; stroke-linejoin:round; stroke-width:4; stroke-opacity:1; fill:none" points="
  242.07,1800.78 242.07,47.2441 
  "/>
<polyline clip-path="url(#clip430)" style="stroke:#000000; stroke-linecap:butt; stroke-linejoin:round; stroke-width:4; stroke-opacity:1; fill:none" points="
  242.07,1555.79 260.968,1555.79 
  "/>
<polyline clip-path="url(#clip430)" style="stroke:#000000; stroke-linecap:butt; stroke-linejoin:round; stroke-width:4; stroke-opacity:1; fill:none" points="
  242.07,1242.45 260.968,1242.45 
  "/>
<polyline clip-path="url(#clip430)" style="stroke:#000000; stroke-linecap:butt; stroke-linejoin:round; stroke-width:4; stroke-opacity:1; fill:none" points="
  242.07,929.114 260.968,929.114 
  "/>
<polyline clip-path="url(#clip430)" style="stroke:#000000; stroke-linecap:butt; stroke-linejoin:round; stroke-width:4; stroke-opacity:1; fill:none" points="
  242.07,615.774 260.968,615.774 
  "/>
<polyline clip-path="url(#clip430)" style="stroke:#000000; stroke-linecap:butt; stroke-linejoin:round; stroke-width:4; stroke-opacity:1; fill:none" points="
  242.07,302.435 260.968,302.435 
  "/>
<path clip-path="url(#clip430)" d="M49.5521 1556.24 L79.2279 1556.24 L79.2279 1560.18 L49.5521 1560.18 L49.5521 1556.24 Z" fill="#000000" fill-rule="evenodd" fill-opacity="1" /><path clip-path="url(#clip430)" d="M102.168 1542.59 L90.3621 1561.04 L102.168 1561.04 L102.168 1542.59 M100.941 1538.51 L106.82 1538.51 L106.82 1561.04 L111.751 1561.04 L111.751 1564.92 L106.82 1564.92 L106.82 1573.07 L102.168 1573.07 L102.168 1564.92 L86.5658 1564.92 L86.5658 1560.41 L100.941 1538.51 Z" fill="#000000" fill-rule="evenodd" fill-opacity="1" /><path clip-path="url(#clip430)" d="M129.482 1541.59 Q125.871 1541.59 124.042 1545.16 Q122.237 1548.7 122.237 1555.83 Q122.237 1562.93 124.042 1566.5 Q125.871 1570.04 129.482 1570.04 Q133.116 1570.04 134.922 1566.5 Q136.751 1562.93 136.751 1555.83 Q136.751 1548.7 134.922 1545.16 Q133.116 1541.59 129.482 1541.59 M129.482 1537.89 Q135.292 1537.89 138.348 1542.49 Q141.427 1547.08 141.427 1555.83 Q141.427 1564.55 138.348 1569.16 Q135.292 1573.74 129.482 1573.74 Q123.672 1573.74 120.593 1569.16 Q117.538 1564.55 117.538 1555.83 Q117.538 1547.08 120.593 1542.49 Q123.672 1537.89 129.482 1537.89 Z" fill="#000000" fill-rule="evenodd" fill-opacity="1" /><path clip-path="url(#clip430)" d="M159.644 1541.59 Q156.033 1541.59 154.204 1545.16 Q152.399 1548.7 152.399 1555.83 Q152.399 1562.93 154.204 1566.5 Q156.033 1570.04 159.644 1570.04 Q163.278 1570.04 165.084 1566.5 Q166.913 1562.93 166.913 1555.83 Q166.913 1548.7 165.084 1545.16 Q163.278 1541.59 159.644 1541.59 M159.644 1537.89 Q165.454 1537.89 168.51 1542.49 Q171.589 1547.08 171.589 1555.83 Q171.589 1564.55 168.51 1569.16 Q165.454 1573.74 159.644 1573.74 Q153.834 1573.74 150.755 1569.16 Q147.7 1564.55 147.7 1555.83 Q147.7 1547.08 150.755 1542.49 Q153.834 1537.89 159.644 1537.89 Z" fill="#000000" fill-rule="evenodd" fill-opacity="1" /><path clip-path="url(#clip430)" d="M189.806 1541.59 Q186.195 1541.59 184.366 1545.16 Q182.561 1548.7 182.561 1555.83 Q182.561 1562.93 184.366 1566.5 Q186.195 1570.04 189.806 1570.04 Q193.44 1570.04 195.246 1566.5 Q197.074 1562.93 197.074 1555.83 Q197.074 1548.7 195.246 1545.16 Q193.44 1541.59 189.806 1541.59 M189.806 1537.89 Q195.616 1537.89 198.672 1542.49 Q201.75 1547.08 201.75 1555.83 Q201.75 1564.55 198.672 1569.16 Q195.616 1573.74 189.806 1573.74 Q183.996 1573.74 180.917 1569.16 Q177.862 1564.55 177.862 1555.83 Q177.862 1547.08 180.917 1542.49 Q183.996 1537.89 189.806 1537.89 Z" fill="#000000" fill-rule="evenodd" fill-opacity="1" /><path clip-path="url(#clip430)" d="M49.5521 1242.9 L79.2279 1242.9 L79.2279 1246.84 L49.5521 1246.84 L49.5521 1242.9 Z" fill="#000000" fill-rule="evenodd" fill-opacity="1" /><path clip-path="url(#clip430)" d="M93.3482 1255.8 L109.668 1255.8 L109.668 1259.73 L87.7232 1259.73 L87.7232 1255.8 Q90.3852 1253.04 94.9685 1248.41 Q99.575 1243.76 100.756 1242.42 Q103.001 1239.9 103.881 1238.16 Q104.783 1236.4 104.783 1234.71 Q104.783 1231.96 102.839 1230.22 Q100.918 1228.48 97.8158 1228.48 Q95.6167 1228.48 93.163 1229.25 Q90.7325 1230.01 87.9547 1231.56 L87.9547 1226.84 Q90.7788 1225.71 93.2324 1225.13 Q95.6861 1224.55 97.7232 1224.55 Q103.094 1224.55 106.288 1227.23 Q109.482 1229.92 109.482 1234.41 Q109.482 1236.54 108.672 1238.46 Q107.885 1240.36 105.779 1242.95 Q105.2 1243.62 102.098 1246.84 Q98.9963 1250.03 93.3482 1255.8 Z" fill="#000000" fill-rule="evenodd" fill-opacity="1" /><path clip-path="url(#clip430)" d="M129.482 1228.25 Q125.871 1228.25 124.042 1231.82 Q122.237 1235.36 122.237 1242.49 Q122.237 1249.59 124.042 1253.16 Q125.871 1256.7 129.482 1256.7 Q133.116 1256.7 134.922 1253.16 Q136.751 1249.59 136.751 1242.49 Q136.751 1235.36 134.922 1231.82 Q133.116 1228.25 129.482 1228.25 M129.482 1224.55 Q135.292 1224.55 138.348 1229.15 Q141.427 1233.74 141.427 1242.49 Q141.427 1251.21 138.348 1255.82 Q135.292 1260.4 129.482 1260.4 Q123.672 1260.4 120.593 1255.82 Q117.538 1251.21 117.538 1242.49 Q117.538 1233.74 120.593 1229.15 Q123.672 1224.55 129.482 1224.55 Z" fill="#000000" fill-rule="evenodd" fill-opacity="1" /><path clip-path="url(#clip430)" d="M159.644 1228.25 Q156.033 1228.25 154.204 1231.82 Q152.399 1235.36 152.399 1242.49 Q152.399 1249.59 154.204 1253.16 Q156.033 1256.7 159.644 1256.7 Q163.278 1256.7 165.084 1253.16 Q166.913 1249.59 166.913 1242.49 Q166.913 1235.36 165.084 1231.82 Q163.278 1228.25 159.644 1228.25 M159.644 1224.55 Q165.454 1224.55 168.51 1229.15 Q171.589 1233.74 171.589 1242.49 Q171.589 1251.21 168.51 1255.82 Q165.454 1260.4 159.644 1260.4 Q153.834 1260.4 150.755 1255.82 Q147.7 1251.21 147.7 1242.49 Q147.7 1233.74 150.755 1229.15 Q153.834 1224.55 159.644 1224.55 Z" fill="#000000" fill-rule="evenodd" fill-opacity="1" /><path clip-path="url(#clip430)" d="M189.806 1228.25 Q186.195 1228.25 184.366 1231.82 Q182.561 1235.36 182.561 1242.49 Q182.561 1249.59 184.366 1253.16 Q186.195 1256.7 189.806 1256.7 Q193.44 1256.7 195.246 1253.16 Q197.074 1249.59 197.074 1242.49 Q197.074 1235.36 195.246 1231.82 Q193.44 1228.25 189.806 1228.25 M189.806 1224.55 Q195.616 1224.55 198.672 1229.15 Q201.75 1233.74 201.75 1242.49 Q201.75 1251.21 198.672 1255.82 Q195.616 1260.4 189.806 1260.4 Q183.996 1260.4 180.917 1255.82 Q177.862 1251.21 177.862 1242.49 Q177.862 1233.74 180.917 1229.15 Q183.996 1224.55 189.806 1224.55 Z" fill="#000000" fill-rule="evenodd" fill-opacity="1" /><path clip-path="url(#clip430)" d="M189.806 914.912 Q186.195 914.912 184.366 918.477 Q182.561 922.019 182.561 929.148 Q182.561 936.255 184.366 939.82 Q186.195 943.361 189.806 943.361 Q193.44 943.361 195.246 939.82 Q197.074 936.255 197.074 929.148 Q197.074 922.019 195.246 918.477 Q193.44 914.912 189.806 914.912 M189.806 911.209 Q195.616 911.209 198.672 915.815 Q201.75 920.399 201.75 929.148 Q201.75 937.875 198.672 942.482 Q195.616 947.065 189.806 947.065 Q183.996 947.065 180.917 942.482 Q177.862 937.875 177.862 929.148 Q177.862 920.399 180.917 915.815 Q183.996 911.209 189.806 911.209 Z" fill="#000000" fill-rule="evenodd" fill-opacity="1" /><path clip-path="url(#clip430)" d="M93.3482 629.119 L109.668 629.119 L109.668 633.054 L87.7232 633.054 L87.7232 629.119 Q90.3852 626.364 94.9685 621.735 Q99.575 617.082 100.756 615.74 Q103.001 613.216 103.881 611.48 Q104.783 609.721 104.783 608.031 Q104.783 605.277 102.839 603.541 Q100.918 601.804 97.8158 601.804 Q95.6167 601.804 93.163 602.568 Q90.7325 603.332 87.9547 604.883 L87.9547 600.161 Q90.7788 599.027 93.2324 598.448 Q95.6861 597.869 97.7232 597.869 Q103.094 597.869 106.288 600.554 Q109.482 603.24 109.482 607.73 Q109.482 609.86 108.672 611.781 Q107.885 613.679 105.779 616.272 Q105.2 616.943 102.098 620.161 Q98.9963 623.355 93.3482 629.119 Z" fill="#000000" fill-rule="evenodd" fill-opacity="1" /><path clip-path="url(#clip430)" d="M129.482 601.573 Q125.871 601.573 124.042 605.138 Q122.237 608.679 122.237 615.809 Q122.237 622.915 124.042 626.48 Q125.871 630.022 129.482 630.022 Q133.116 630.022 134.922 626.48 Q136.751 622.915 136.751 615.809 Q136.751 608.679 134.922 605.138 Q133.116 601.573 129.482 601.573 M129.482 597.869 Q135.292 597.869 138.348 602.476 Q141.427 607.059 141.427 615.809 Q141.427 624.536 138.348 629.142 Q135.292 633.726 129.482 633.726 Q123.672 633.726 120.593 629.142 Q117.538 624.536 117.538 615.809 Q117.538 607.059 120.593 602.476 Q123.672 597.869 129.482 597.869 Z" fill="#000000" fill-rule="evenodd" fill-opacity="1" /><path clip-path="url(#clip430)" d="M159.644 601.573 Q156.033 601.573 154.204 605.138 Q152.399 608.679 152.399 615.809 Q152.399 622.915 154.204 626.48 Q156.033 630.022 159.644 630.022 Q163.278 630.022 165.084 626.48 Q166.913 622.915 166.913 615.809 Q166.913 608.679 165.084 605.138 Q163.278 601.573 159.644 601.573 M159.644 597.869 Q165.454 597.869 168.51 602.476 Q171.589 607.059 171.589 615.809 Q171.589 624.536 168.51 629.142 Q165.454 633.726 159.644 633.726 Q153.834 633.726 150.755 629.142 Q147.7 624.536 147.7 615.809 Q147.7 607.059 150.755 602.476 Q153.834 597.869 159.644 597.869 Z" fill="#000000" fill-rule="evenodd" fill-opacity="1" /><path clip-path="url(#clip430)" d="M189.806 601.573 Q186.195 601.573 184.366 605.138 Q182.561 608.679 182.561 615.809 Q182.561 622.915 184.366 626.48 Q186.195 630.022 189.806 630.022 Q193.44 630.022 195.246 626.48 Q197.074 622.915 197.074 615.809 Q197.074 608.679 195.246 605.138 Q193.44 601.573 189.806 601.573 M189.806 597.869 Q195.616 597.869 198.672 602.476 Q201.75 607.059 201.75 615.809 Q201.75 624.536 198.672 629.142 Q195.616 633.726 189.806 633.726 Q183.996 633.726 180.917 629.142 Q177.862 624.536 177.862 615.809 Q177.862 607.059 180.917 602.476 Q183.996 597.869 189.806 597.869 Z" fill="#000000" fill-rule="evenodd" fill-opacity="1" /><path clip-path="url(#clip430)" d="M102.168 289.229 L90.3621 307.678 L102.168 307.678 L102.168 289.229 M100.941 285.155 L106.82 285.155 L106.82 307.678 L111.751 307.678 L111.751 311.567 L106.82 311.567 L106.82 319.715 L102.168 319.715 L102.168 311.567 L86.5658 311.567 L86.5658 307.053 L100.941 285.155 Z" fill="#000000" fill-rule="evenodd" fill-opacity="1" /><path clip-path="url(#clip430)" d="M129.482 288.233 Q125.871 288.233 124.042 291.798 Q122.237 295.34 122.237 302.47 Q122.237 309.576 124.042 313.141 Q125.871 316.682 129.482 316.682 Q133.116 316.682 134.922 313.141 Q136.751 309.576 136.751 302.47 Q136.751 295.34 134.922 291.798 Q133.116 288.233 129.482 288.233 M129.482 284.53 Q135.292 284.53 138.348 289.136 Q141.427 293.72 141.427 302.47 Q141.427 311.196 138.348 315.803 Q135.292 320.386 129.482 320.386 Q123.672 320.386 120.593 315.803 Q117.538 311.196 117.538 302.47 Q117.538 293.72 120.593 289.136 Q123.672 284.53 129.482 284.53 Z" fill="#000000" fill-rule="evenodd" fill-opacity="1" /><path clip-path="url(#clip430)" d="M159.644 288.233 Q156.033 288.233 154.204 291.798 Q152.399 295.34 152.399 302.47 Q152.399 309.576 154.204 313.141 Q156.033 316.682 159.644 316.682 Q163.278 316.682 165.084 313.141 Q166.913 309.576 166.913 302.47 Q166.913 295.34 165.084 291.798 Q163.278 288.233 159.644 288.233 M159.644 284.53 Q165.454 284.53 168.51 289.136 Q171.589 293.72 171.589 302.47 Q171.589 311.196 168.51 315.803 Q165.454 320.386 159.644 320.386 Q153.834 320.386 150.755 315.803 Q147.7 311.196 147.7 302.47 Q147.7 293.72 150.755 289.136 Q153.834 284.53 159.644 284.53 Z" fill="#000000" fill-rule="evenodd" fill-opacity="1" /><path clip-path="url(#clip430)" d="M189.806 288.233 Q186.195 288.233 184.366 291.798 Q182.561 295.34 182.561 302.47 Q182.561 309.576 184.366 313.141 Q186.195 316.682 189.806 316.682 Q193.44 316.682 195.246 313.141 Q197.074 309.576 197.074 302.47 Q197.074 295.34 195.246 291.798 Q193.44 288.233 189.806 288.233 M189.806 284.53 Q195.616 284.53 198.672 289.136 Q201.75 293.72 201.75 302.47 Q201.75 311.196 198.672 315.803 Q195.616 320.386 189.806 320.386 Q183.996 320.386 180.917 315.803 Q177.862 311.196 177.862 302.47 Q177.862 293.72 180.917 289.136 Q183.996 284.53 189.806 284.53 Z" fill="#000000" fill-rule="evenodd" fill-opacity="1" /><polyline clip-path="url(#clip432)" style="stroke:#009af9; stroke-linecap:butt; stroke-linejoin:round; stroke-width:4; stroke-opacity:1; fill:none" points="
  309.958,931.614 324.69,931.599 460.916,931.476 542.782,931.417 611.999,931.381 687.188,931.365 756.505,931.384 793.663,931.416 830.821,931.47 873.872,931.575 
  916.923,931.758 936.052,931.879 955.181,932.038 974.311,932.253 993.44,932.553 1001.83,932.724 1010.21,932.929 1018.6,933.176 1026.99,933.482 1035.38,933.867 
  1043.76,934.367 1047.96,934.677 1052.15,935.039 1056.34,935.47 1060.54,935.988 1065.11,936.689 1069.68,937.591 1074.26,938.792 1078.83,940.469 1083.4,942.976 
  1087.97,947.124 1090.26,950.413 1092.54,955.298 1093.69,958.752 1094.83,963.311 1095.4,966.186 1095.97,969.607 1096.54,973.749 1097.12,978.865 1097.69,985.346 
  1098.26,993.819 1098.83,1005.37 1099.4,1022.05 1099.97,1048.26 1100.55,1095.4 1101.12,1205.24 1101.69,1751.15 1102.26,96.8724 1102.83,653.837 1103.4,764.558 
  1103.97,811.942 1104.55,838.248 1105.12,854.982 1105.69,866.564 1106.26,875.055 1106.83,881.547 1107.4,886.672 1107.98,890.82 1108.55,894.247 1109.69,899.576 
  1110.83,903.529 1113.12,909.001 1115.41,912.609 1117.69,915.166 1119.98,917.073 1122.26,918.55 1124.55,919.727 1129.12,921.484 1133.69,922.733 1138.29,923.67 
  1142.89,924.396 1147.49,924.973 1152.09,925.444 1161.29,926.163 1170.49,926.685 1179.69,927.081 1188.89,927.391 1198.09,927.638 1207.28,927.841 1227.63,928.177 
  1247.97,928.411 1268.31,928.582 1288.65,928.71 1327.36,928.876 1366.06,928.978 1406.31,929.044 1446.56,929.083 1480.44,929.101 1514.32,929.111 1597.04,929.112 
  1672.82,929.115 1690.32,929.125 1707.82,929.143 1725.32,929.181 1742.81,929.265 1751.68,929.352 1760.54,929.521 1764.97,929.68 1769.4,929.964 1771.62,930.21 
  1773.83,930.612 1774.94,930.927 1776.05,931.388 1777.16,932.125 1778.26,933.495 1778.82,934.74 1779.37,936.919 1779.93,941.71 1780.48,960.836 1781.03,864.551 
  1781.59,912.897 1782.14,919.77 1782.7,922.516 1783.8,924.918 1784.91,926.009 1786.02,926.631 1787.13,927.034 1791.56,927.809 1795.99,928.128 1800.42,928.301 
  1804.85,928.409 1809.28,928.481 1813.71,928.533 1833.58,928.65 1853.44,928.693 1873.31,928.708 1893.17,928.711 1929.17,928.7 1965.17,928.677 2047.61,928.607 
  2123.94,928.53 2199.19,928.447 2272.25,928.364 2347.15,928.276 2429.21,928.176 2548.41,928.029 2572.87,927.998 
  "/>
<path clip-path="url(#clip430)" d="
M2241.85 209.375 L2560.8 209.375 L2560.8 105.695 L2241.85 105.695  Z
  " fill="#ffffff" fill-rule="evenodd" fill-opacity="1"/>
<polyline clip-path="url(#clip430)" style="stroke:#000000; stroke-linecap:butt; stroke-linejoin:round; stroke-width:4; stroke-opacity:1; fill:none" points="
  2241.85,209.375 2560.8,209.375 2560.8,105.695 2241.85,105.695 2241.85,209.375 
  "/>
<polyline clip-path="url(#clip430)" style="stroke:#009af9; stroke-linecap:butt; stroke-linejoin:round; stroke-width:4; stroke-opacity:1; fill:none" points="
  2268.5,157.535 2428.41,157.535 
  "/>
<path clip-path="url(#clip430)" d="M2468.91 177.223 Q2467.1 181.852 2465.39 183.264 Q2463.68 184.676 2460.81 184.676 L2457.4 184.676 L2457.4 181.112 L2459.9 181.112 Q2461.66 181.112 2462.63 180.278 Q2463.61 179.445 2464.79 176.343 L2465.55 174.399 L2455.07 148.889 L2459.58 148.889 L2467.68 169.167 L2475.78 148.889 L2480.3 148.889 L2468.91 177.223 Z" fill="#000000" fill-rule="evenodd" fill-opacity="1" /><path clip-path="url(#clip430)" d="M2487.59 170.88 L2495.23 170.88 L2495.23 144.515 L2486.92 146.181 L2486.92 141.922 L2495.18 140.255 L2499.86 140.255 L2499.86 170.88 L2507.5 170.88 L2507.5 174.815 L2487.59 174.815 L2487.59 170.88 Z" fill="#000000" fill-rule="evenodd" fill-opacity="1" /></svg>
