<?xml version="1.0" encoding="utf-8"?>
<svg xmlns="http://www.w3.org/2000/svg" xmlns:xlink="http://www.w3.org/1999/xlink" width="672" height="480" viewBox="0 0 2688 1920">
<defs>
  <clipPath id="clip660">
    <rect x="0" y="0" width="2688" height="1920"/>
  </clipPath>
</defs>
<path clip-path="url(#clip660)" d="
M0 1920 L2688 1920 L2688 0 L0 0  Z
  " fill="#ffffff" fill-rule="evenodd" fill-opacity="1"/>
<defs>
  <clipPath id="clip661">
    <rect x="537" y="0" width="1883" height="1883"/>
  </clipPath>
</defs>
<path clip-path="url(#clip660)" d="
M196.816 1800.78 L2640.76 1800.78 L2640.76 47.2441 L196.816 47.2441  Z
  " fill="#ffffff" fill-rule="evenodd" fill-opacity="1"/>
<defs>
  <clipPath id="clip662">
    <rect x="196" y="47" width="2445" height="1755"/>
  </clipPath>
</defs>
<polyline clip-path="url(#clip662)" style="stroke:#000000; stroke-linecap:butt; stroke-linejoin:round; stroke-width:2; stroke-opacity:0.1; fill:none" points="
  317.941,1800.78 317.941,47.2441 
  "/>
<polyline clip-path="url(#clip662)" style="stroke:#000000; stroke-linecap:butt; stroke-linejoin:round; stroke-width:2; stroke-opacity:0.1; fill:none" points="
  684.89,1800.78 684.89,47.2441 
  "/>
<polyline clip-path="url(#clip662)" style="stroke:#000000; stroke-linecap:butt; stroke-linejoin:round; stroke-width:2; stroke-opacity:0.1; fill:none" points="
  1051.84,1800.78 1051.84,47.2441 
  "/>
<polyline clip-path="url(#clip662)" style="stroke:#000000; stroke-linecap:butt; stroke-linejoin:round; stroke-width:2; stroke-opacity:0.1; fill:none" points="
  1418.79,1800.78 1418.79,47.2441 
  "/>
<polyline clip-path="url(#clip662)" style="stroke:#000000; stroke-linecap:butt; stroke-linejoin:round; stroke-width:2; stroke-opacity:0.1; fill:none" points="
  1785.73,1800.78 1785.73,47.2441 
  "/>
<polyline clip-path="url(#clip662)" style="stroke:#000000; stroke-linecap:butt; stroke-linejoin:round; stroke-width:2; stroke-opacity:0.1; fill:none" points="
  2152.68,1800.78 2152.68,47.2441 
  "/>
<polyline clip-path="url(#clip662)" style="stroke:#000000; stroke-linecap:butt; stroke-linejoin:round; stroke-width:2; stroke-opacity:0.1; fill:none" points="
  2519.63,1800.78 2519.63,47.2441 
  "/>
<polyline clip-path="url(#clip660)" style="stroke:#000000; stroke-linecap:butt; stroke-linejoin:round; stroke-width:4; stroke-opacity:1; fill:none" points="
  196.816,1800.78 2640.76,1800.78 
  "/>
<polyline clip-path="url(#clip660)" style="stroke:#000000; stroke-linecap:butt; stroke-linejoin:round; stroke-width:4; stroke-opacity:1; fill:none" points="
  317.941,1800.78 317.941,1781.88 
  "/>
<polyline clip-path="url(#clip660)" style="stroke:#000000; stroke-linecap:butt; stroke-linejoin:round; stroke-width:4; stroke-opacity:1; fill:none" points="
  684.89,1800.78 684.89,1781.88 
  "/>
<polyline clip-path="url(#clip660)" style="stroke:#000000; stroke-linecap:butt; stroke-linejoin:round; stroke-width:4; stroke-opacity:1; fill:none" points="
  1051.84,1800.78 1051.84,1781.88 
  "/>
<polyline clip-path="url(#clip660)" style="stroke:#000000; stroke-linecap:butt; stroke-linejoin:round; stroke-width:4; stroke-opacity:1; fill:none" points="
  1418.79,1800.78 1418.79,1781.88 
  "/>
<polyline clip-path="url(#clip660)" style="stroke:#000000; stroke-linecap:butt; stroke-linejoin:round; stroke-width:4; stroke-opacity:1; fill:none" points="
  1785.73,1800.78 1785.73,1781.88 
  "/>
<polyline clip-path="url(#clip660)" style="stroke:#000000; stroke-linecap:butt; stroke-linejoin:round; stroke-width:4; stroke-opacity:1; fill:none" points="
  2152.68,1800.78 2152.68,1781.88 
  "/>
<polyline clip-path="url(#clip660)" style="stroke:#000000; stroke-linecap:butt; stroke-linejoin:round; stroke-width:4; stroke-opacity:1; fill:none" points="
  2519.63,1800.78 2519.63,1781.88 
  "/>
<path clip-path="url(#clip660)" d="M287.409 1848.65 L317.085 1848.65 L317.085 1852.59 L287.409 1852.59 L287.409 1848.65 Z" fill="#000000" fill-rule="evenodd" fill-opacity="1" /><path clip-path="url(#clip660)" d="M341.344 1846.85 Q344.7 1847.57 346.575 1849.84 Q348.474 1852.1 348.474 1855.44 Q348.474 1860.55 344.955 1863.35 Q341.437 1866.15 334.955 1866.15 Q332.779 1866.15 330.464 1865.71 Q328.173 1865.3 325.719 1864.44 L325.719 1859.93 Q327.663 1861.06 329.978 1861.64 Q332.293 1862.22 334.816 1862.22 Q339.214 1862.22 341.506 1860.48 Q343.821 1858.75 343.821 1855.44 Q343.821 1852.38 341.668 1850.67 Q339.538 1848.93 335.719 1848.93 L331.691 1848.93 L331.691 1845.09 L335.904 1845.09 Q339.353 1845.09 341.182 1843.72 Q343.011 1842.34 343.011 1839.74 Q343.011 1837.08 341.112 1835.67 Q339.237 1834.23 335.719 1834.23 Q333.798 1834.23 331.599 1834.65 Q329.4 1835.07 326.761 1835.95 L326.761 1831.78 Q329.423 1831.04 331.738 1830.67 Q334.075 1830.3 336.136 1830.3 Q341.46 1830.3 344.562 1832.73 Q347.663 1835.14 347.663 1839.26 Q347.663 1842.13 346.02 1844.12 Q344.376 1846.09 341.344 1846.85 Z" fill="#000000" fill-rule="evenodd" fill-opacity="1" /><path clip-path="url(#clip660)" d="M654.832 1848.65 L684.508 1848.65 L684.508 1852.59 L654.832 1852.59 L654.832 1848.65 Z" fill="#000000" fill-rule="evenodd" fill-opacity="1" /><path clip-path="url(#clip660)" d="M698.628 1861.55 L714.947 1861.55 L714.947 1865.48 L693.003 1865.48 L693.003 1861.55 Q695.665 1858.79 700.248 1854.16 Q704.855 1849.51 706.035 1848.17 Q708.281 1845.65 709.16 1843.91 Q710.063 1842.15 710.063 1840.46 Q710.063 1837.71 708.119 1835.97 Q706.197 1834.23 703.095 1834.23 Q700.896 1834.23 698.443 1835 Q696.012 1835.76 693.234 1837.31 L693.234 1832.59 Q696.058 1831.46 698.512 1830.88 Q700.966 1830.3 703.003 1830.3 Q708.373 1830.3 711.568 1832.98 Q714.762 1835.67 714.762 1840.16 Q714.762 1842.29 713.952 1844.21 Q713.165 1846.11 711.058 1848.7 Q710.48 1849.37 707.378 1852.59 Q704.276 1855.78 698.628 1861.55 Z" fill="#000000" fill-rule="evenodd" fill-opacity="1" /><path clip-path="url(#clip660)" d="M1021.59 1848.65 L1051.27 1848.65 L1051.27 1852.59 L1021.59 1852.59 L1021.59 1848.65 Z" fill="#000000" fill-rule="evenodd" fill-opacity="1" /><path clip-path="url(#clip660)" d="M1062.17 1861.55 L1069.81 1861.55 L1069.81 1835.18 L1061.5 1836.85 L1061.5 1832.59 L1069.77 1830.92 L1074.44 1830.92 L1074.44 1861.55 L1082.08 1861.55 L1082.08 1865.48 L1062.17 1865.48 L1062.17 1861.55 Z" fill="#000000" fill-rule="evenodd" fill-opacity="1" /><path clip-path="url(#clip660)" d="M1418.79 1834 Q1415.17 1834 1413.35 1837.57 Q1411.54 1841.11 1411.54 1848.24 Q1411.54 1855.34 1413.35 1858.91 Q1415.17 1862.45 1418.79 1862.45 Q1422.42 1862.45 1424.23 1858.91 Q1426.05 1855.34 1426.05 1848.24 Q1426.05 1841.11 1424.23 1837.57 Q1422.42 1834 1418.79 1834 M1418.79 1830.3 Q1424.6 1830.3 1427.65 1834.9 Q1430.73 1839.49 1430.73 1848.24 Q1430.73 1856.96 1427.65 1861.57 Q1424.6 1866.15 1418.79 1866.15 Q1412.98 1866.15 1409.9 1861.57 Q1406.84 1856.96 1406.84 1848.24 Q1406.84 1839.49 1409.9 1834.9 Q1412.98 1830.3 1418.79 1830.3 Z" fill="#000000" fill-rule="evenodd" fill-opacity="1" /><path clip-path="url(#clip660)" d="M1776.12 1861.55 L1783.76 1861.55 L1783.76 1835.18 L1775.44 1836.85 L1775.44 1832.59 L1783.71 1830.92 L1788.38 1830.92 L1788.38 1861.55 L1796.02 1861.55 L1796.02 1865.48 L1776.12 1865.48 L1776.12 1861.55 Z" fill="#000000" fill-rule="evenodd" fill-opacity="1" /><path clip-path="url(#clip660)" d="M2147.34 1861.55 L2163.65 1861.55 L2163.65 1865.48 L2141.71 1865.48 L2141.71 1861.55 Q2144.37 1858.79 2148.96 1854.16 Q2153.56 1849.51 2154.74 1848.17 Q2156.99 1845.65 2157.87 1843.91 Q2158.77 1842.15 2158.77 1840.46 Q2158.77 1837.71 2156.83 1835.97 Q2154.9 1834.23 2151.8 1834.23 Q2149.6 1834.23 2147.15 1835 Q2144.72 1835.76 2141.94 1837.31 L2141.94 1832.59 Q2144.77 1831.46 2147.22 1830.88 Q2149.67 1830.3 2151.71 1830.3 Q2157.08 1830.3 2160.27 1832.98 Q2163.47 1835.67 2163.47 1840.16 Q2163.47 1842.29 2162.66 1844.21 Q2161.87 1846.11 2159.77 1848.7 Q2159.19 1849.37 2156.09 1852.59 Q2152.98 1855.78 2147.34 1861.55 Z" fill="#000000" fill-rule="evenodd" fill-opacity="1" /><path clip-path="url(#clip660)" d="M2523.88 1846.85 Q2527.23 1847.57 2529.11 1849.84 Q2531.01 1852.1 2531.01 1855.44 Q2531.01 1860.55 2527.49 1863.35 Q2523.97 1866.15 2517.49 1866.15 Q2515.31 1866.15 2513 1865.71 Q2510.71 1865.3 2508.25 1864.44 L2508.25 1859.93 Q2510.2 1861.06 2512.51 1861.64 Q2514.83 1862.22 2517.35 1862.22 Q2521.75 1862.22 2524.04 1860.48 Q2526.36 1858.75 2526.36 1855.44 Q2526.36 1852.38 2524.2 1850.67 Q2522.07 1848.93 2518.25 1848.93 L2514.23 1848.93 L2514.23 1845.09 L2518.44 1845.09 Q2521.89 1845.09 2523.72 1843.72 Q2525.54 1842.34 2525.54 1839.74 Q2525.54 1837.08 2523.65 1835.67 Q2521.77 1834.23 2518.25 1834.23 Q2516.33 1834.23 2514.13 1834.65 Q2511.93 1835.07 2509.3 1835.95 L2509.3 1831.78 Q2511.96 1831.04 2514.27 1830.67 Q2516.61 1830.3 2518.67 1830.3 Q2523.99 1830.3 2527.1 1832.73 Q2530.2 1835.14 2530.2 1839.26 Q2530.2 1842.13 2528.55 1844.12 Q2526.91 1846.09 2523.88 1846.85 Z" fill="#000000" fill-rule="evenodd" fill-opacity="1" /><polyline clip-path="url(#clip662)" style="stroke:#000000; stroke-linecap:butt; stroke-linejoin:round; stroke-width:2; stroke-opacity:0.1; fill:none" points="
  196.816,1751.16 2640.76,1751.16 
  "/>
<polyline clip-path="url(#clip662)" style="stroke:#000000; stroke-linecap:butt; stroke-linejoin:round; stroke-width:2; stroke-opacity:0.1; fill:none" points="
  196.816,1337.59 2640.76,1337.59 
  "/>
<polyline clip-path="url(#clip662)" style="stroke:#000000; stroke-linecap:butt; stroke-linejoin:round; stroke-width:2; stroke-opacity:0.1; fill:none" points="
  196.816,924.016 2640.76,924.016 
  "/>
<polyline clip-path="url(#clip662)" style="stroke:#000000; stroke-linecap:butt; stroke-linejoin:round; stroke-width:2; stroke-opacity:0.1; fill:none" points="
  196.816,510.443 2640.76,510.443 
  "/>
<polyline clip-path="url(#clip662)" style="stroke:#000000; stroke-linecap:butt; stroke-linejoin:round; stroke-width:2; stroke-opacity:0.1; fill:none" points="
  196.816,96.8706 2640.76,96.8706 
  "/>
<polyline clip-path="url(#clip660)" style="stroke:#000000; stroke-linecap:butt; stroke-linejoin:round; stroke-width:4; stroke-opacity:1; fill:none" points="
  196.816,1800.78 196.816,47.2441 
  "/>
<polyline clip-path="url(#clip660)" style="stroke:#000000; stroke-linecap:butt; stroke-linejoin:round; stroke-width:4; stroke-opacity:1; fill:none" points="
  196.816,1751.16 215.714,1751.16 
  "/>
<polyline clip-path="url(#clip660)" style="stroke:#000000; stroke-linecap:butt; stroke-linejoin:round; stroke-width:4; stroke-opacity:1; fill:none" points="
  196.816,1337.59 215.714,1337.59 
  "/>
<polyline clip-path="url(#clip660)" style="stroke:#000000; stroke-linecap:butt; stroke-linejoin:round; stroke-width:4; stroke-opacity:1; fill:none" points="
  196.816,924.016 215.714,924.016 
  "/>
<polyline clip-path="url(#clip660)" style="stroke:#000000; stroke-linecap:butt; stroke-linejoin:round; stroke-width:4; stroke-opacity:1; fill:none" points="
  196.816,510.443 215.714,510.443 
  "/>
<polyline clip-path="url(#clip660)" style="stroke:#000000; stroke-linecap:butt; stroke-linejoin:round; stroke-width:4; stroke-opacity:1; fill:none" points="
  196.816,96.8706 215.714,96.8706 
  "/>
<path clip-path="url(#clip660)" d="M49.5521 1751.61 L79.2279 1751.61 L79.2279 1755.55 L49.5521 1755.55 L49.5521 1751.61 Z" fill="#000000" fill-rule="evenodd" fill-opacity="1" /><path clip-path="url(#clip660)" d="M90.1306 1764.51 L97.7695 1764.51 L97.7695 1738.14 L89.4593 1739.81 L89.4593 1735.55 L97.7232 1733.88 L102.399 1733.88 L102.399 1764.51 L110.038 1764.51 L110.038 1768.44 L90.1306 1768.44 L90.1306 1764.51 Z" fill="#000000" fill-rule="evenodd" fill-opacity="1" /><path clip-path="url(#clip660)" d="M119.482 1762.56 L124.367 1762.56 L124.367 1768.44 L119.482 1768.44 L119.482 1762.56 Z" fill="#000000" fill-rule="evenodd" fill-opacity="1" /><path clip-path="url(#clip660)" d="M144.552 1736.96 Q140.941 1736.96 139.112 1740.52 Q137.306 1744.07 137.306 1751.2 Q137.306 1758.3 139.112 1761.87 Q140.941 1765.41 144.552 1765.41 Q148.186 1765.41 149.991 1761.87 Q151.82 1758.3 151.82 1751.2 Q151.82 1744.07 149.991 1740.52 Q148.186 1736.96 144.552 1736.96 M144.552 1733.26 Q150.362 1733.26 153.417 1737.86 Q156.496 1742.45 156.496 1751.2 Q156.496 1759.92 153.417 1764.53 Q150.362 1769.11 144.552 1769.11 Q138.741 1769.11 135.663 1764.53 Q132.607 1759.92 132.607 1751.2 Q132.607 1742.45 135.663 1737.86 Q138.741 1733.26 144.552 1733.26 Z" fill="#000000" fill-rule="evenodd" fill-opacity="1" /><path clip-path="url(#clip660)" d="M50.5475 1338.04 L80.2233 1338.04 L80.2233 1341.98 L50.5475 1341.98 L50.5475 1338.04 Z" fill="#000000" fill-rule="evenodd" fill-opacity="1" /><path clip-path="url(#clip660)" d="M100.316 1323.39 Q96.7047 1323.39 94.876 1326.95 Q93.0704 1330.49 93.0704 1337.62 Q93.0704 1344.73 94.876 1348.29 Q96.7047 1351.84 100.316 1351.84 Q103.95 1351.84 105.756 1348.29 Q107.584 1344.73 107.584 1337.62 Q107.584 1330.49 105.756 1326.95 Q103.95 1323.39 100.316 1323.39 M100.316 1319.68 Q106.126 1319.68 109.181 1324.29 Q112.26 1328.87 112.26 1337.62 Q112.26 1346.35 109.181 1350.96 Q106.126 1355.54 100.316 1355.54 Q94.5056 1355.54 91.4269 1350.96 Q88.3714 1346.35 88.3714 1337.62 Q88.3714 1328.87 91.4269 1324.29 Q94.5056 1319.68 100.316 1319.68 Z" fill="#000000" fill-rule="evenodd" fill-opacity="1" /><path clip-path="url(#clip660)" d="M120.478 1348.99 L125.362 1348.99 L125.362 1354.87 L120.478 1354.87 L120.478 1348.99 Z" fill="#000000" fill-rule="evenodd" fill-opacity="1" /><path clip-path="url(#clip660)" d="M135.593 1320.31 L153.95 1320.31 L153.95 1324.24 L139.876 1324.24 L139.876 1332.72 Q140.894 1332.37 141.913 1332.21 Q142.931 1332.02 143.95 1332.02 Q149.737 1332.02 153.116 1335.19 Q156.496 1338.36 156.496 1343.78 Q156.496 1349.36 153.024 1352.46 Q149.552 1355.54 143.232 1355.54 Q141.056 1355.54 138.788 1355.17 Q136.542 1354.8 134.135 1354.06 L134.135 1349.36 Q136.218 1350.49 138.441 1351.05 Q140.663 1351.6 143.14 1351.6 Q147.144 1351.6 149.482 1349.5 Q151.82 1347.39 151.82 1343.78 Q151.82 1340.17 149.482 1338.06 Q147.144 1335.96 143.14 1335.96 Q141.265 1335.96 139.39 1336.37 Q137.538 1336.79 135.593 1337.67 L135.593 1320.31 Z" fill="#000000" fill-rule="evenodd" fill-opacity="1" /><path clip-path="url(#clip660)" d="M99.3204 909.815 Q95.7093 909.815 93.8806 913.38 Q92.075 916.921 92.075 924.051 Q92.075 931.157 93.8806 934.722 Q95.7093 938.264 99.3204 938.264 Q102.955 938.264 104.76 934.722 Q106.589 931.157 106.589 924.051 Q106.589 916.921 104.76 913.38 Q102.955 909.815 99.3204 909.815 M99.3204 906.111 Q105.131 906.111 108.186 910.718 Q111.265 915.301 111.265 924.051 Q111.265 932.778 108.186 937.384 Q105.131 941.967 99.3204 941.967 Q93.5102 941.967 90.4315 937.384 Q87.376 932.778 87.376 924.051 Q87.376 915.301 90.4315 910.718 Q93.5102 906.111 99.3204 906.111 Z" fill="#000000" fill-rule="evenodd" fill-opacity="1" /><path clip-path="url(#clip660)" d="M119.482 935.416 L124.367 935.416 L124.367 941.296 L119.482 941.296 L119.482 935.416 Z" fill="#000000" fill-rule="evenodd" fill-opacity="1" /><path clip-path="url(#clip660)" d="M144.552 909.815 Q140.941 909.815 139.112 913.38 Q137.306 916.921 137.306 924.051 Q137.306 931.157 139.112 934.722 Q140.941 938.264 144.552 938.264 Q148.186 938.264 149.991 934.722 Q151.82 931.157 151.82 924.051 Q151.82 916.921 149.991 913.38 Q148.186 909.815 144.552 909.815 M144.552 906.111 Q150.362 906.111 153.417 910.718 Q156.496 915.301 156.496 924.051 Q156.496 932.778 153.417 937.384 Q150.362 941.967 144.552 941.967 Q138.741 941.967 135.663 937.384 Q132.607 932.778 132.607 924.051 Q132.607 915.301 135.663 910.718 Q138.741 906.111 144.552 906.111 Z" fill="#000000" fill-rule="evenodd" fill-opacity="1" /><path clip-path="url(#clip660)" d="M100.316 496.242 Q96.7047 496.242 94.876 499.807 Q93.0704 503.348 93.0704 510.478 Q93.0704 517.585 94.876 521.149 Q96.7047 524.691 100.316 524.691 Q103.95 524.691 105.756 521.149 Q107.584 517.585 107.584 510.478 Q107.584 503.348 105.756 499.807 Q103.95 496.242 100.316 496.242 M100.316 492.538 Q106.126 492.538 109.181 497.145 Q112.26 501.728 112.26 510.478 Q112.26 519.205 109.181 523.811 Q106.126 528.395 100.316 528.395 Q94.5056 528.395 91.4269 523.811 Q88.3714 519.205 88.3714 510.478 Q88.3714 501.728 91.4269 497.145 Q94.5056 492.538 100.316 492.538 Z" fill="#000000" fill-rule="evenodd" fill-opacity="1" /><path clip-path="url(#clip660)" d="M120.478 521.844 L125.362 521.844 L125.362 527.723 L120.478 527.723 L120.478 521.844 Z" fill="#000000" fill-rule="evenodd" fill-opacity="1" /><path clip-path="url(#clip660)" d="M135.593 493.163 L153.95 493.163 L153.95 497.099 L139.876 497.099 L139.876 505.571 Q140.894 505.223 141.913 505.061 Q142.931 504.876 143.95 504.876 Q149.737 504.876 153.116 508.048 Q156.496 511.219 156.496 516.635 Q156.496 522.214 153.024 525.316 Q149.552 528.395 143.232 528.395 Q141.056 528.395 138.788 528.024 Q136.542 527.654 134.135 526.913 L134.135 522.214 Q136.218 523.348 138.441 523.904 Q140.663 524.459 143.14 524.459 Q147.144 524.459 149.482 522.353 Q151.82 520.247 151.82 516.635 Q151.82 513.024 149.482 510.918 Q147.144 508.811 143.14 508.811 Q141.265 508.811 139.39 509.228 Q137.538 509.645 135.593 510.524 L135.593 493.163 Z" fill="#000000" fill-rule="evenodd" fill-opacity="1" /><path clip-path="url(#clip660)" d="M90.1306 110.215 L97.7695 110.215 L97.7695 83.8499 L89.4593 85.5165 L89.4593 81.2573 L97.7232 79.5906 L102.399 79.5906 L102.399 110.215 L110.038 110.215 L110.038 114.151 L90.1306 114.151 L90.1306 110.215 Z" fill="#000000" fill-rule="evenodd" fill-opacity="1" /><path clip-path="url(#clip660)" d="M119.482 108.271 L124.367 108.271 L124.367 114.151 L119.482 114.151 L119.482 108.271 Z" fill="#000000" fill-rule="evenodd" fill-opacity="1" /><path clip-path="url(#clip660)" d="M144.552 82.6693 Q140.941 82.6693 139.112 86.2341 Q137.306 89.7758 137.306 96.9054 Q137.306 104.012 139.112 107.577 Q140.941 111.118 144.552 111.118 Q148.186 111.118 149.991 107.577 Q151.82 104.012 151.82 96.9054 Q151.82 89.7758 149.991 86.2341 Q148.186 82.6693 144.552 82.6693 M144.552 78.9657 Q150.362 78.9657 153.417 83.5721 Q156.496 88.1554 156.496 96.9054 Q156.496 105.632 153.417 110.239 Q150.362 114.822 144.552 114.822 Q138.741 114.822 135.663 110.239 Q132.607 105.632 132.607 96.9054 Q132.607 88.1554 135.663 83.5721 Q138.741 78.9657 144.552 78.9657 Z" fill="#000000" fill-rule="evenodd" fill-opacity="1" /><polyline clip-path="url(#clip662)" style="stroke:#009af9; stroke-linecap:butt; stroke-linejoin:round; stroke-width:4; stroke-opacity:1; fill:none" points="
  265.984,924.016 273.489,940.933 280.995,957.843 315.694,1035.73 350.393,1112.61 385.092,1187.81 419.791,1260.65 440.643,1303.02 461.496,1344.17 482.349,1383.95 
  503.201,1422.26 520.832,1453.39 538.463,1483.31 556.093,1511.93 573.724,1539.2 592.876,1567.2 612.028,1593.46 631.179,1617.89 650.331,1640.43 667.988,1659.49 
  685.644,1676.84 703.3,1692.45 720.956,1706.29 739.886,1719.1 758.815,1729.8 777.745,1738.36 796.674,1744.75 818.606,1749.43 840.537,1751.15 862.469,1749.92 
  884.4,1745.75 903.891,1739.57 923.381,1731.09 942.871,1720.34 962.361,1707.34 979.452,1694.12 996.543,1679.24 1013.63,1662.71 1030.73,1644.58 1049.36,1623.04 
  1067.99,1599.69 1086.63,1574.6 1105.26,1547.84 1124.01,1519.29 1142.75,1489.19 1161.5,1457.61 1180.24,1424.65 1200.96,1386.68 1221.69,1347.24 1242.41,1306.45 
  1263.14,1264.44 1302.58,1181.61 1342.01,1095.81 1424.03,912.202 1493.06,757.724 1535.21,665.968 1577.35,577.611 1596.65,538.597 1615.96,500.649 1635.26,463.872 
  1654.56,428.369 1672.39,396.794 1690.22,366.464 1708.05,337.449 1725.87,309.819 1743.93,283.308 1761.99,258.349 1780.05,235.002 1798.11,213.324 1818.35,191.075 
  1838.59,171.056 1858.83,153.327 1879.07,137.942 1897.41,126.064 1915.75,116.179 1934.09,108.311 1952.43,102.481 1973.42,98.325 1994.42,96.8724 2015.42,98.1276 
  2036.42,102.086 2055.86,108.151 2075.3,116.506 2094.74,127.127 2114.19,139.984 2133.35,154.815 2152.52,171.743 2171.69,190.724 2190.86,211.705 2209.47,233.936 
  2228.08,257.941 2246.69,283.659 2265.3,311.024 2284.37,340.712 2303.45,371.977 2322.53,404.733 2341.61,438.893 2362.51,477.82 2383.41,518.195 2404.31,559.886 
  2425.22,602.758 2485.94,732.712 2546.67,867.894 2559.13,895.939 2571.59,924.016 
  "/>
<polyline clip-path="url(#clip662)" style="stroke:#e26f46; stroke-linecap:butt; stroke-linejoin:round; stroke-width:4; stroke-opacity:1; fill:none" points="
  265.984,660.497 269.737,673.797 273.489,687.029 277.242,700.192 280.995,713.286 298.344,772.916 315.694,831.033 333.043,887.607 350.393,942.609 367.742,996.01 
  385.092,1047.78 402.441,1097.89 419.791,1146.32 440.643,1202.25 461.496,1255.66 482.349,1306.51 503.201,1354.75 520.832,1393.47 538.463,1430.27 556.093,1465.13 
  573.724,1498.03 592.876,1531.53 612.028,1562.67 631.179,1591.43 650.331,1617.8 667.988,1639.97 685.644,1660.07 703.3,1678.11 720.956,1694.08 739.886,1708.88 
  758.815,1721.3 777.745,1731.33 796.674,1738.97 818.606,1744.86 840.537,1747.58 862.469,1747.16 884.4,1743.63 903.891,1737.92 923.381,1729.82 942.871,1719.37 
  962.361,1706.61 979.452,1693.56 996.543,1678.8 1013.63,1662.38 1030.73,1644.34 1049.36,1622.86 1067.99,1599.57 1086.63,1574.52 1105.26,1547.78 1124.01,1519.25 
  1142.75,1489.16 1161.5,1457.6 1180.24,1424.64 1200.96,1386.68 1221.69,1347.24 1242.41,1306.45 1263.14,1264.44 1302.58,1181.61 1342.01,1095.81 1424.03,912.202 
  1493.06,757.724 1535.21,665.968 1577.35,577.612 1596.65,538.598 1615.96,500.651 1635.26,463.877 1654.56,428.377 1672.39,396.807 1690.22,366.485 1708.05,337.482 
  1725.87,309.868 1743.93,283.381 1761.99,258.455 1780.05,235.152 1798.11,213.532 1818.35,191.373 1838.59,171.472 1858.83,153.9 1879.07,138.718 1897.41,127.074 
  1915.75,117.48 1934.09,109.97 1952.43,104.576 1973.42,101.034 1994.42,100.338 2015.42,102.519 2036.42,107.6 2055.86,114.906 2075.3,124.725 2094.74,137.063 
  2114.19,151.922 2133.35,169.038 2152.52,188.6 2171.69,210.6 2190.86,235.027 2209.47,261.054 2228.08,289.341 2246.69,319.872 2265.3,352.628 2284.37,388.495 
  2303.45,426.652 2322.53,467.074 2341.61,509.731 2362.51,558.998 2383.41,610.872 2404.31,665.307 2425.22,722.26 2440.4,765.179 2455.58,809.382 2470.76,854.851 
  2485.94,901.568 2516.31,998.665 2546.67,1100.52 2552.9,1121.98 2559.13,1143.64 2565.36,1165.5 2571.59,1187.54 
  "/>
<path clip-path="url(#clip660)" d="
M2235.31 261.215 L2559.29 261.215 L2559.29 105.695 L2235.31 105.695  Z
  " fill="#ffffff" fill-rule="evenodd" fill-opacity="1"/>
<polyline clip-path="url(#clip660)" style="stroke:#000000; stroke-linecap:butt; stroke-linejoin:round; stroke-width:4; stroke-opacity:1; fill:none" points="
  2235.31,261.215 2559.29,261.215 2559.29,105.695 2235.31,105.695 2235.31,261.215 
  "/>
<polyline clip-path="url(#clip660)" style="stroke:#009af9; stroke-linecap:butt; stroke-linejoin:round; stroke-width:4; stroke-opacity:1; fill:none" points="
  2262.47,157.535 2425.4,157.535 
  "/>
<path clip-path="url(#clip660)" d="M2466.39 177.223 Q2464.59 181.852 2462.88 183.264 Q2461.16 184.676 2458.29 184.676 L2454.89 184.676 L2454.89 181.112 L2457.39 181.112 Q2459.15 181.112 2460.12 180.278 Q2461.09 179.445 2462.27 176.343 L2463.04 174.399 L2452.55 148.889 L2457.07 148.889 L2465.17 169.167 L2473.27 148.889 L2477.78 148.889 L2466.39 177.223 Z" fill="#000000" fill-rule="evenodd" fill-opacity="1" /><path clip-path="url(#clip660)" d="M2485.07 170.88 L2492.71 170.88 L2492.71 144.515 L2484.4 146.181 L2484.4 141.922 L2492.67 140.255 L2497.34 140.255 L2497.34 170.88 L2504.98 170.88 L2504.98 174.815 L2485.07 174.815 L2485.07 170.88 Z" fill="#000000" fill-rule="evenodd" fill-opacity="1" /><polyline clip-path="url(#clip660)" style="stroke:#e26f46; stroke-linecap:butt; stroke-linejoin:round; stroke-width:4; stroke-opacity:1; fill:none" points="
  2262.47,209.375 2425.4,209.375 
  "/>
<path clip-path="url(#clip660)" d="M2466.39 229.063 Q2464.59 233.692 2462.88 235.104 Q2461.16 236.516 2458.29 236.516 L2454.89 236.516 L2454.89 232.952 L2457.39 232.952 Q2459.15 232.952 2460.12 232.118 Q2461.09 231.285 2462.27 228.183 L2463.04 226.239 L2452.55 200.729 L2457.07 200.729 L2465.17 221.007 L2473.27 200.729 L2477.78 200.729 L2466.39 229.063 Z" fill="#000000" fill-rule="evenodd" fill-opacity="1" /><path clip-path="url(#clip660)" d="M2488.29 222.72 L2504.61 222.72 L2504.61 226.655 L2482.67 226.655 L2482.67 222.72 Q2485.33 219.965 2489.91 215.336 Q2494.52 210.683 2495.7 209.341 Q2497.94 206.817 2498.82 205.081 Q2499.73 203.322 2499.73 201.632 Q2499.73 198.878 2497.78 197.142 Q2495.86 195.405 2492.76 195.405 Q2490.56 195.405 2488.11 196.169 Q2485.68 196.933 2482.9 198.484 L2482.9 193.762 Q2485.72 192.628 2488.18 192.049 Q2490.63 191.47 2492.67 191.47 Q2498.04 191.47 2501.23 194.155 Q2504.43 196.841 2504.43 201.331 Q2504.43 203.461 2503.62 205.382 Q2502.83 207.28 2500.72 209.873 Q2500.14 210.544 2497.04 213.762 Q2493.94 216.956 2488.29 222.72 Z" fill="#000000" fill-rule="evenodd" fill-opacity="1" /></svg>
