<?xml version="1.0" encoding="utf-8"?>
<svg xmlns="http://www.w3.org/2000/svg" xmlns:xlink="http://www.w3.org/1999/xlink" width="672" height="480" viewBox="0 0 2688 1920">
<defs>
  <clipPath id="clip100">
    <rect x="0" y="0" width="2688" height="1920"/>
  </clipPath>
</defs>
<path clip-path="url(#clip100)" d="
M0 1920 L2688 1920 L2688 0 L0 0  Z
  " fill="#ffffff" fill-rule="evenodd" fill-opacity="1"/>
<defs>
  <clipPath id="clip101">
    <rect x="537" y="0" width="1883" height="1883"/>
  </clipPath>
</defs>
<path clip-path="url(#clip100)" d="
M181.747 1800.78 L2640.76 1800.78 L2640.76 47.2441 L181.747 47.2441  Z
  " fill="#ffffff" fill-rule="evenodd" fill-opacity="1"/>
<defs>
  <clipPath id="clip102">
    <rect x="181" y="47" width="2460" height="1755"/>
  </clipPath>
</defs>
<polyline clip-path="url(#clip102)" style="stroke:#000000; stroke-linecap:butt; stroke-linejoin:round; stroke-width:2; stroke-opacity:0.1; fill:none" points="
  251.341,1800.78 251.341,47.2441 
  "/>
<polyline clip-path="url(#clip102)" style="stroke:#000000; stroke-linecap:butt; stroke-linejoin:round; stroke-width:2; stroke-opacity:0.1; fill:none" points="
  831.296,1800.78 831.296,47.2441 
  "/>
<polyline clip-path="url(#clip102)" style="stroke:#000000; stroke-linecap:butt; stroke-linejoin:round; stroke-width:2; stroke-opacity:0.1; fill:none" points="
  1411.25,1800.78 1411.25,47.2441 
  "/>
<polyline clip-path="url(#clip102)" style="stroke:#000000; stroke-linecap:butt; stroke-linejoin:round; stroke-width:2; stroke-opacity:0.1; fill:none" points="
  1991.21,1800.78 1991.21,47.2441 
  "/>
<polyline clip-path="url(#clip102)" style="stroke:#000000; stroke-linecap:butt; stroke-linejoin:round; stroke-width:2; stroke-opacity:0.1; fill:none" points="
  2571.16,1800.78 2571.16,47.2441 
  "/>
<polyline clip-path="url(#clip100)" style="stroke:#000000; stroke-linecap:butt; stroke-linejoin:round; stroke-width:4; stroke-opacity:1; fill:none" points="
  181.747,1800.78 2640.76,1800.78 
  "/>
<polyline clip-path="url(#clip100)" style="stroke:#000000; stroke-linecap:butt; stroke-linejoin:round; stroke-width:4; stroke-opacity:1; fill:none" points="
  251.341,1800.78 251.341,1781.88 
  "/>
<polyline clip-path="url(#clip100)" style="stroke:#000000; stroke-linecap:butt; stroke-linejoin:round; stroke-width:4; stroke-opacity:1; fill:none" points="
  831.296,1800.78 831.296,1781.88 
  "/>
<polyline clip-path="url(#clip100)" style="stroke:#000000; stroke-linecap:butt; stroke-linejoin:round; stroke-width:4; stroke-opacity:1; fill:none" points="
  1411.25,1800.78 1411.25,1781.88 
  "/>
<polyline clip-path="url(#clip100)" style="stroke:#000000; stroke-linecap:butt; stroke-linejoin:round; stroke-width:4; stroke-opacity:1; fill:none" points="
  1991.21,1800.78 1991.21,1781.88 
  "/>
<polyline clip-path="url(#clip100)" style="stroke:#000000; stroke-linecap:butt; stroke-linejoin:round; stroke-width:4; stroke-opacity:1; fill:none" points="
  2571.16,1800.78 2571.16,1781.88 
  "/>
<path clip-path="url(#clip100)" d="M197.869 1848.65 L227.545 1848.65 L227.545 1852.59 L197.869 1852.59 L197.869 1848.65 Z" fill="#000000" fill-rule="evenodd" fill-opacity="1" /><path clip-path="url(#clip100)" d="M238.448 1861.55 L246.087 1861.55 L246.087 1835.18 L237.776 1836.85 L237.776 1832.59 L246.04 1830.92 L250.716 1830.92 L250.716 1861.55 L258.355 1861.55 L258.355 1865.48 L238.448 1865.48 L238.448 1861.55 Z" fill="#000000" fill-rule="evenodd" fill-opacity="1" /><path clip-path="url(#clip100)" d="M267.799 1859.6 L272.684 1859.6 L272.684 1865.48 L267.799 1865.48 L267.799 1859.6 Z" fill="#000000" fill-rule="evenodd" fill-opacity="1" /><path clip-path="url(#clip100)" d="M292.869 1834 Q289.258 1834 287.429 1837.57 Q285.623 1841.11 285.623 1848.24 Q285.623 1855.34 287.429 1858.91 Q289.258 1862.45 292.869 1862.45 Q296.503 1862.45 298.309 1858.91 Q300.137 1855.34 300.137 1848.24 Q300.137 1841.11 298.309 1837.57 Q296.503 1834 292.869 1834 M292.869 1830.3 Q298.679 1830.3 301.734 1834.9 Q304.813 1839.49 304.813 1848.24 Q304.813 1856.96 301.734 1861.57 Q298.679 1866.15 292.869 1866.15 Q287.059 1866.15 283.98 1861.57 Q280.924 1856.96 280.924 1848.24 Q280.924 1839.49 283.98 1834.9 Q287.059 1830.3 292.869 1830.3 Z" fill="#000000" fill-rule="evenodd" fill-opacity="1" /><path clip-path="url(#clip100)" d="M778.322 1848.65 L807.998 1848.65 L807.998 1852.59 L778.322 1852.59 L778.322 1848.65 Z" fill="#000000" fill-rule="evenodd" fill-opacity="1" /><path clip-path="url(#clip100)" d="M828.09 1834 Q824.479 1834 822.65 1837.57 Q820.845 1841.11 820.845 1848.24 Q820.845 1855.34 822.65 1858.91 Q824.479 1862.45 828.09 1862.45 Q831.724 1862.45 833.53 1858.91 Q835.359 1855.34 835.359 1848.24 Q835.359 1841.11 833.53 1837.57 Q831.724 1834 828.09 1834 M828.09 1830.3 Q833.9 1830.3 836.956 1834.9 Q840.035 1839.49 840.035 1848.24 Q840.035 1856.96 836.956 1861.57 Q833.9 1866.15 828.09 1866.15 Q822.28 1866.15 819.201 1861.57 Q816.146 1856.96 816.146 1848.24 Q816.146 1839.49 819.201 1834.9 Q822.28 1830.3 828.09 1830.3 Z" fill="#000000" fill-rule="evenodd" fill-opacity="1" /><path clip-path="url(#clip100)" d="M848.252 1859.6 L853.136 1859.6 L853.136 1865.48 L848.252 1865.48 L848.252 1859.6 Z" fill="#000000" fill-rule="evenodd" fill-opacity="1" /><path clip-path="url(#clip100)" d="M863.368 1830.92 L881.724 1830.92 L881.724 1834.86 L867.65 1834.86 L867.65 1843.33 Q868.669 1842.98 869.687 1842.82 Q870.706 1842.64 871.724 1842.64 Q877.511 1842.64 880.891 1845.81 Q884.271 1848.98 884.271 1854.4 Q884.271 1859.97 880.798 1863.08 Q877.326 1866.15 871.007 1866.15 Q868.831 1866.15 866.562 1865.78 Q864.317 1865.41 861.91 1864.67 L861.91 1859.97 Q863.993 1861.11 866.215 1861.66 Q868.437 1862.22 870.914 1862.22 Q874.919 1862.22 877.257 1860.11 Q879.595 1858.01 879.595 1854.4 Q879.595 1850.78 877.257 1848.68 Q874.919 1846.57 870.914 1846.57 Q869.039 1846.57 867.164 1846.99 Q865.312 1847.4 863.368 1848.28 L863.368 1830.92 Z" fill="#000000" fill-rule="evenodd" fill-opacity="1" /><path clip-path="url(#clip100)" d="M1388.64 1834 Q1385.02 1834 1383.2 1837.57 Q1381.39 1841.11 1381.39 1848.24 Q1381.39 1855.34 1383.2 1858.91 Q1385.02 1862.45 1388.64 1862.45 Q1392.27 1862.45 1394.08 1858.91 Q1395.9 1855.34 1395.9 1848.24 Q1395.9 1841.11 1394.08 1837.57 Q1392.27 1834 1388.64 1834 M1388.64 1830.3 Q1394.45 1830.3 1397.5 1834.9 Q1400.58 1839.49 1400.58 1848.24 Q1400.58 1856.96 1397.5 1861.57 Q1394.45 1866.15 1388.64 1866.15 Q1382.83 1866.15 1379.75 1861.57 Q1376.69 1856.96 1376.69 1848.24 Q1376.69 1839.49 1379.75 1834.9 Q1382.83 1830.3 1388.64 1830.3 Z" fill="#000000" fill-rule="evenodd" fill-opacity="1" /><path clip-path="url(#clip100)" d="M1408.8 1859.6 L1413.68 1859.6 L1413.68 1865.48 L1408.8 1865.48 L1408.8 1859.6 Z" fill="#000000" fill-rule="evenodd" fill-opacity="1" /><path clip-path="url(#clip100)" d="M1433.87 1834 Q1430.26 1834 1428.43 1837.57 Q1426.62 1841.11 1426.62 1848.24 Q1426.62 1855.34 1428.43 1858.91 Q1430.26 1862.45 1433.87 1862.45 Q1437.5 1862.45 1439.31 1858.91 Q1441.14 1855.34 1441.14 1848.24 Q1441.14 1841.11 1439.31 1837.57 Q1437.5 1834 1433.87 1834 M1433.87 1830.3 Q1439.68 1830.3 1442.73 1834.9 Q1445.81 1839.49 1445.81 1848.24 Q1445.81 1856.96 1442.73 1861.57 Q1439.68 1866.15 1433.87 1866.15 Q1428.06 1866.15 1424.98 1861.57 Q1421.92 1856.96 1421.92 1848.24 Q1421.92 1839.49 1424.98 1834.9 Q1428.06 1830.3 1433.87 1830.3 Z" fill="#000000" fill-rule="evenodd" fill-opacity="1" /><path clip-path="url(#clip100)" d="M1969.09 1834 Q1965.48 1834 1963.65 1837.57 Q1961.84 1841.11 1961.84 1848.24 Q1961.84 1855.34 1963.65 1858.91 Q1965.48 1862.45 1969.09 1862.45 Q1972.72 1862.45 1974.53 1858.91 Q1976.36 1855.34 1976.36 1848.24 Q1976.36 1841.11 1974.53 1837.57 Q1972.72 1834 1969.09 1834 M1969.09 1830.3 Q1974.9 1830.3 1977.95 1834.9 Q1981.03 1839.49 1981.03 1848.24 Q1981.03 1856.96 1977.95 1861.57 Q1974.9 1866.15 1969.09 1866.15 Q1963.28 1866.15 1960.2 1861.57 Q1957.14 1856.96 1957.14 1848.24 Q1957.14 1839.49 1960.2 1834.9 Q1963.28 1830.3 1969.09 1830.3 Z" fill="#000000" fill-rule="evenodd" fill-opacity="1" /><path clip-path="url(#clip100)" d="M1989.25 1859.6 L1994.13 1859.6 L1994.13 1865.48 L1989.25 1865.48 L1989.25 1859.6 Z" fill="#000000" fill-rule="evenodd" fill-opacity="1" /><path clip-path="url(#clip100)" d="M2004.37 1830.92 L2022.72 1830.92 L2022.72 1834.86 L2008.65 1834.86 L2008.65 1843.33 Q2009.67 1842.98 2010.69 1842.82 Q2011.7 1842.64 2012.72 1842.64 Q2018.51 1842.64 2021.89 1845.81 Q2025.27 1848.98 2025.27 1854.4 Q2025.27 1859.97 2021.8 1863.08 Q2018.32 1866.15 2012 1866.15 Q2009.83 1866.15 2007.56 1865.78 Q2005.32 1865.41 2002.91 1864.67 L2002.91 1859.97 Q2004.99 1861.11 2007.21 1861.66 Q2009.44 1862.22 2011.91 1862.22 Q2015.92 1862.22 2018.25 1860.11 Q2020.59 1858.01 2020.59 1854.4 Q2020.59 1850.78 2018.25 1848.68 Q2015.92 1846.57 2011.91 1846.57 Q2010.04 1846.57 2008.16 1846.99 Q2006.31 1847.4 2004.37 1848.28 L2004.37 1830.92 Z" fill="#000000" fill-rule="evenodd" fill-opacity="1" /><path clip-path="url(#clip100)" d="M2538.31 1861.55 L2545.95 1861.55 L2545.95 1835.18 L2537.64 1836.85 L2537.64 1832.59 L2545.91 1830.92 L2550.58 1830.92 L2550.58 1861.55 L2558.22 1861.55 L2558.22 1865.48 L2538.31 1865.48 L2538.31 1861.55 Z" fill="#000000" fill-rule="evenodd" fill-opacity="1" /><path clip-path="url(#clip100)" d="M2567.67 1859.6 L2572.55 1859.6 L2572.55 1865.48 L2567.67 1865.48 L2567.67 1859.6 Z" fill="#000000" fill-rule="evenodd" fill-opacity="1" /><path clip-path="url(#clip100)" d="M2592.74 1834 Q2589.12 1834 2587.3 1837.57 Q2585.49 1841.11 2585.49 1848.24 Q2585.49 1855.34 2587.3 1858.91 Q2589.12 1862.45 2592.74 1862.45 Q2596.37 1862.45 2598.18 1858.91 Q2600 1855.34 2600 1848.24 Q2600 1841.11 2598.18 1837.57 Q2596.37 1834 2592.74 1834 M2592.74 1830.3 Q2598.55 1830.3 2601.6 1834.9 Q2604.68 1839.49 2604.68 1848.24 Q2604.68 1856.96 2601.6 1861.57 Q2598.55 1866.15 2592.74 1866.15 Q2586.93 1866.15 2583.85 1861.57 Q2580.79 1856.96 2580.79 1848.24 Q2580.79 1839.49 2583.85 1834.9 Q2586.93 1830.3 2592.74 1830.3 Z" fill="#000000" fill-rule="evenodd" fill-opacity="1" /><polyline clip-path="url(#clip102)" style="stroke:#000000; stroke-linecap:butt; stroke-linejoin:round; stroke-width:2; stroke-opacity:0.1; fill:none" points="
  181.747,1675.96 2640.76,1675.96 
  "/>
<polyline clip-path="url(#clip102)" style="stroke:#000000; stroke-linecap:butt; stroke-linejoin:round; stroke-width:2; stroke-opacity:0.1; fill:none" points="
  181.747,1299.98 2640.76,1299.98 
  "/>
<polyline clip-path="url(#clip102)" style="stroke:#000000; stroke-linecap:butt; stroke-linejoin:round; stroke-width:2; stroke-opacity:0.1; fill:none" points="
  181.747,924.012 2640.76,924.012 
  "/>
<polyline clip-path="url(#clip102)" style="stroke:#000000; stroke-linecap:butt; stroke-linejoin:round; stroke-width:2; stroke-opacity:0.1; fill:none" points="
  181.747,548.039 2640.76,548.039 
  "/>
<polyline clip-path="url(#clip102)" style="stroke:#000000; stroke-linecap:butt; stroke-linejoin:round; stroke-width:2; stroke-opacity:0.1; fill:none" points="
  181.747,172.067 2640.76,172.067 
  "/>
<polyline clip-path="url(#clip100)" style="stroke:#000000; stroke-linecap:butt; stroke-linejoin:round; stroke-width:4; stroke-opacity:1; fill:none" points="
  181.747,1800.78 181.747,47.2441 
  "/>
<polyline clip-path="url(#clip100)" style="stroke:#000000; stroke-linecap:butt; stroke-linejoin:round; stroke-width:4; stroke-opacity:1; fill:none" points="
  181.747,1675.96 200.644,1675.96 
  "/>
<polyline clip-path="url(#clip100)" style="stroke:#000000; stroke-linecap:butt; stroke-linejoin:round; stroke-width:4; stroke-opacity:1; fill:none" points="
  181.747,1299.98 200.644,1299.98 
  "/>
<polyline clip-path="url(#clip100)" style="stroke:#000000; stroke-linecap:butt; stroke-linejoin:round; stroke-width:4; stroke-opacity:1; fill:none" points="
  181.747,924.012 200.644,924.012 
  "/>
<polyline clip-path="url(#clip100)" style="stroke:#000000; stroke-linecap:butt; stroke-linejoin:round; stroke-width:4; stroke-opacity:1; fill:none" points="
  181.747,548.039 200.644,548.039 
  "/>
<polyline clip-path="url(#clip100)" style="stroke:#000000; stroke-linecap:butt; stroke-linejoin:round; stroke-width:4; stroke-opacity:1; fill:none" points="
  181.747,172.067 200.644,172.067 
  "/>
<path clip-path="url(#clip100)" d="M49.5521 1676.41 L79.2279 1676.41 L79.2279 1680.34 L49.5521 1680.34 L49.5521 1676.41 Z" fill="#000000" fill-rule="evenodd" fill-opacity="1" /><path clip-path="url(#clip100)" d="M90.1306 1689.3 L97.7695 1689.3 L97.7695 1662.94 L89.4593 1664.6 L89.4593 1660.34 L97.7232 1658.68 L102.399 1658.68 L102.399 1689.3 L110.038 1689.3 L110.038 1693.24 L90.1306 1693.24 L90.1306 1689.3 Z" fill="#000000" fill-rule="evenodd" fill-opacity="1" /><path clip-path="url(#clip100)" d="M129.482 1661.76 Q125.871 1661.76 124.042 1665.32 Q122.237 1668.86 122.237 1675.99 Q122.237 1683.1 124.042 1686.66 Q125.871 1690.2 129.482 1690.2 Q133.116 1690.2 134.922 1686.66 Q136.751 1683.1 136.751 1675.99 Q136.751 1668.86 134.922 1665.32 Q133.116 1661.76 129.482 1661.76 M129.482 1658.05 Q135.292 1658.05 138.348 1662.66 Q141.427 1667.24 141.427 1675.99 Q141.427 1684.72 138.348 1689.32 Q135.292 1693.91 129.482 1693.91 Q123.672 1693.91 120.593 1689.32 Q117.538 1684.72 117.538 1675.99 Q117.538 1667.24 120.593 1662.66 Q123.672 1658.05 129.482 1658.05 Z" fill="#000000" fill-rule="evenodd" fill-opacity="1" /><path clip-path="url(#clip100)" d="M80.7094 1300.44 L110.385 1300.44 L110.385 1304.37 L80.7094 1304.37 L80.7094 1300.44 Z" fill="#000000" fill-rule="evenodd" fill-opacity="1" /><path clip-path="url(#clip100)" d="M120.524 1282.7 L138.88 1282.7 L138.88 1286.64 L124.806 1286.64 L124.806 1295.11 Q125.825 1294.76 126.843 1294.6 Q127.862 1294.42 128.88 1294.42 Q134.667 1294.42 138.047 1297.59 Q141.427 1300.76 141.427 1306.18 Q141.427 1311.75 137.954 1314.86 Q134.482 1317.94 128.163 1317.94 Q125.987 1317.94 123.718 1317.57 Q121.473 1317.19 119.066 1316.45 L119.066 1311.75 Q121.149 1312.89 123.371 1313.44 Q125.593 1314 128.07 1314 Q132.075 1314 134.413 1311.89 Q136.751 1309.79 136.751 1306.18 Q136.751 1302.57 134.413 1300.46 Q132.075 1298.35 128.07 1298.35 Q126.195 1298.35 124.32 1298.77 Q122.468 1299.19 120.524 1300.07 L120.524 1282.7 Z" fill="#000000" fill-rule="evenodd" fill-opacity="1" /><path clip-path="url(#clip100)" d="M129.482 909.81 Q125.871 909.81 124.042 913.375 Q122.237 916.917 122.237 924.046 Q122.237 931.153 124.042 934.718 Q125.871 938.259 129.482 938.259 Q133.116 938.259 134.922 934.718 Q136.751 931.153 136.751 924.046 Q136.751 916.917 134.922 913.375 Q133.116 909.81 129.482 909.81 M129.482 906.107 Q135.292 906.107 138.348 910.713 Q141.427 915.296 141.427 924.046 Q141.427 932.773 138.348 937.38 Q135.292 941.963 129.482 941.963 Q123.672 941.963 120.593 937.38 Q117.538 932.773 117.538 924.046 Q117.538 915.296 120.593 910.713 Q123.672 906.107 129.482 906.107 Z" fill="#000000" fill-rule="evenodd" fill-opacity="1" /><path clip-path="url(#clip100)" d="M120.524 530.759 L138.88 530.759 L138.88 534.694 L124.806 534.694 L124.806 543.167 Q125.825 542.819 126.843 542.657 Q127.862 542.472 128.88 542.472 Q134.667 542.472 138.047 545.643 Q141.427 548.815 141.427 554.231 Q141.427 559.81 137.954 562.912 Q134.482 565.991 128.163 565.991 Q125.987 565.991 123.718 565.62 Q121.473 565.25 119.066 564.509 L119.066 559.81 Q121.149 560.944 123.371 561.5 Q125.593 562.055 128.07 562.055 Q132.075 562.055 134.413 559.949 Q136.751 557.843 136.751 554.231 Q136.751 550.62 134.413 548.514 Q132.075 546.407 128.07 546.407 Q126.195 546.407 124.32 546.824 Q122.468 547.241 120.524 548.12 L120.524 530.759 Z" fill="#000000" fill-rule="evenodd" fill-opacity="1" /><path clip-path="url(#clip100)" d="M90.1306 185.412 L97.7695 185.412 L97.7695 159.046 L89.4593 160.713 L89.4593 156.454 L97.7232 154.787 L102.399 154.787 L102.399 185.412 L110.038 185.412 L110.038 189.347 L90.1306 189.347 L90.1306 185.412 Z" fill="#000000" fill-rule="evenodd" fill-opacity="1" /><path clip-path="url(#clip100)" d="M129.482 157.866 Q125.871 157.866 124.042 161.43 Q122.237 164.972 122.237 172.102 Q122.237 179.208 124.042 182.773 Q125.871 186.315 129.482 186.315 Q133.116 186.315 134.922 182.773 Q136.751 179.208 136.751 172.102 Q136.751 164.972 134.922 161.43 Q133.116 157.866 129.482 157.866 M129.482 154.162 Q135.292 154.162 138.348 158.768 Q141.427 163.352 141.427 172.102 Q141.427 180.828 138.348 185.435 Q135.292 190.018 129.482 190.018 Q123.672 190.018 120.593 185.435 Q117.538 180.828 117.538 172.102 Q117.538 163.352 120.593 158.768 Q123.672 154.162 129.482 154.162 Z" fill="#000000" fill-rule="evenodd" fill-opacity="1" /><polyline clip-path="url(#clip102)" style="stroke:#009af9; stroke-linecap:butt; stroke-linejoin:round; stroke-width:4; stroke-opacity:1; fill:none" points="
  251.341,999.206 462.234,1015.92 673.127,1042.17 884.019,1089.44 1094.91,1199.72 1305.8,1751.15 1516.7,96.8724 1727.59,648.299 1938.48,758.584 2149.38,805.849 
  2360.27,832.107 2571.16,848.817 
  "/>
<circle clip-path="url(#clip102)" cx="251.341" cy="999.206" r="14.4" fill="#e26f46" fill-rule="evenodd" fill-opacity="1" stroke="#000000" stroke-opacity="1" stroke-width="3.84"/>
<circle clip-path="url(#clip102)" cx="462.234" cy="1015.92" r="14.4" fill="#e26f46" fill-rule="evenodd" fill-opacity="1" stroke="#000000" stroke-opacity="1" stroke-width="3.84"/>
<circle clip-path="url(#clip102)" cx="673.127" cy="1042.17" r="14.4" fill="#e26f46" fill-rule="evenodd" fill-opacity="1" stroke="#000000" stroke-opacity="1" stroke-width="3.84"/>
<circle clip-path="url(#clip102)" cx="884.019" cy="1089.44" r="14.4" fill="#e26f46" fill-rule="evenodd" fill-opacity="1" stroke="#000000" stroke-opacity="1" stroke-width="3.84"/>
<circle clip-path="url(#clip102)" cx="1094.91" cy="1199.72" r="14.4" fill="#e26f46" fill-rule="evenodd" fill-opacity="1" stroke="#000000" stroke-opacity="1" stroke-width="3.84"/>
<circle clip-path="url(#clip102)" cx="1305.8" cy="1751.15" r="14.4" fill="#e26f46" fill-rule="evenodd" fill-opacity="1" stroke="#000000" stroke-opacity="1" stroke-width="3.84"/>
<circle clip-path="url(#clip102)" cx="1516.7" cy="96.8724" r="14.4" fill="#e26f46" fill-rule="evenodd" fill-opacity="1" stroke="#000000" stroke-opacity="1" stroke-width="3.84"/>
<circle clip-path="url(#clip102)" cx="1727.59" cy="648.299" r="14.4" fill="#e26f46" fill-rule="evenodd" fill-opacity="1" stroke="#000000" stroke-opacity="1" stroke-width="3.84"/>
<circle clip-path="url(#clip102)" cx="1938.48" cy="758.584" r="14.4" fill="#e26f46" fill-rule="evenodd" fill-opacity="1" stroke="#000000" stroke-opacity="1" stroke-width="3.84"/>
<circle clip-path="url(#clip102)" cx="2149.38" cy="805.849" r="14.4" fill="#e26f46" fill-rule="evenodd" fill-opacity="1" stroke="#000000" stroke-opacity="1" stroke-width="3.84"/>
<circle clip-path="url(#clip102)" cx="2360.27" cy="832.107" r="14.4" fill="#e26f46" fill-rule="evenodd" fill-opacity="1" stroke="#000000" stroke-opacity="1" stroke-width="3.84"/>
<circle clip-path="url(#clip102)" cx="2571.16" cy="848.817" r="14.4" fill="#e26f46" fill-rule="evenodd" fill-opacity="1" stroke="#000000" stroke-opacity="1" stroke-width="3.84"/>
<path clip-path="url(#clip100)" d="
M2233.14 261.215 L2558.79 261.215 L2558.79 105.695 L2233.14 105.695  Z
  " fill="#ffffff" fill-rule="evenodd" fill-opacity="1"/>
<polyline clip-path="url(#clip100)" style="stroke:#000000; stroke-linecap:butt; stroke-linejoin:round; stroke-width:4; stroke-opacity:1; fill:none" points="
  2233.14,261.215 2558.79,261.215 2558.79,105.695 2233.14,105.695 2233.14,261.215 
  "/>
<polyline clip-path="url(#clip100)" style="stroke:#009af9; stroke-linecap:butt; stroke-linejoin:round; stroke-width:4; stroke-opacity:1; fill:none" points="
  2260.46,157.535 2424.39,157.535 
  "/>
<path clip-path="url(#clip100)" d="M2465.56 177.223 Q2463.75 181.852 2462.04 183.264 Q2460.33 184.676 2457.45 184.676 L2454.05 184.676 L2454.05 181.112 L2456.55 181.112 Q2458.31 181.112 2459.28 180.278 Q2460.26 179.445 2461.44 176.343 L2462.2 174.399 L2451.71 148.889 L2456.23 148.889 L2464.33 169.167 L2472.43 148.889 L2476.95 148.889 L2465.56 177.223 Z" fill="#000000" fill-rule="evenodd" fill-opacity="1" /><path clip-path="url(#clip100)" d="M2484.24 170.88 L2491.88 170.88 L2491.88 144.515 L2483.57 146.181 L2483.57 141.922 L2491.83 140.255 L2496.51 140.255 L2496.51 170.88 L2504.14 170.88 L2504.14 174.815 L2484.24 174.815 L2484.24 170.88 Z" fill="#000000" fill-rule="evenodd" fill-opacity="1" /><circle clip-path="url(#clip100)" cx="2342.42" cy="209.375" r="23.04" fill="#e26f46" fill-rule="evenodd" fill-opacity="1" stroke="#000000" stroke-opacity="1" stroke-width="6.144"/>
<path clip-path="url(#clip100)" d="M2465.56 229.063 Q2463.75 233.692 2462.04 235.104 Q2460.33 236.516 2457.45 236.516 L2454.05 236.516 L2454.05 232.952 L2456.55 232.952 Q2458.31 232.952 2459.28 232.118 Q2460.26 231.285 2461.44 228.183 L2462.2 226.239 L2451.71 200.729 L2456.23 200.729 L2464.33 221.007 L2472.43 200.729 L2476.95 200.729 L2465.56 229.063 Z" fill="#000000" fill-rule="evenodd" fill-opacity="1" /><path clip-path="url(#clip100)" d="M2487.45 222.72 L2503.77 222.72 L2503.77 226.655 L2481.83 226.655 L2481.83 222.72 Q2484.49 219.965 2489.07 215.336 Q2493.68 210.683 2494.86 209.341 Q2497.11 206.817 2497.99 205.081 Q2498.89 203.322 2498.89 201.632 Q2498.89 198.878 2496.95 197.142 Q2495.02 195.405 2491.92 195.405 Q2489.72 195.405 2487.27 196.169 Q2484.84 196.933 2482.06 198.484 L2482.06 193.762 Q2484.89 192.628 2487.34 192.049 Q2489.79 191.47 2491.83 191.47 Q2497.2 191.47 2500.39 194.155 Q2503.59 196.841 2503.59 201.331 Q2503.59 203.461 2502.78 205.382 Q2501.99 207.28 2499.89 209.873 Q2499.31 210.544 2496.2 213.762 Q2493.1 216.956 2487.45 222.72 Z" fill="#000000" fill-rule="evenodd" fill-opacity="1" /></svg>
