<?xml version="1.0" encoding="utf-8"?>
<svg xmlns="http://www.w3.org/2000/svg" xmlns:xlink="http://www.w3.org/1999/xlink" width="672" height="480" viewBox="0 0 2688 1920">
<defs>
  <clipPath id="clip820">
    <rect x="0" y="0" width="2688" height="1920"/>
  </clipPath>
</defs>
<path clip-path="url(#clip820)" d="
M0 1920 L2688 1920 L2688 0 L0 0  Z
  " fill="#ffffff" fill-rule="evenodd" fill-opacity="1"/>
<defs>
  <clipPath id="clip821">
    <rect x="537" y="0" width="1883" height="1883"/>
  </clipPath>
</defs>
<path clip-path="url(#clip820)" d="
M181.747 1800.78 L2640.76 1800.78 L2640.76 47.2441 L181.747 47.2441  Z
  " fill="#ffffff" fill-rule="evenodd" fill-opacity="1"/>
<defs>
  <clipPath id="clip822">
    <rect x="181" y="47" width="2460" height="1755"/>
  </clipPath>
</defs>
<polyline clip-path="url(#clip822)" style="stroke:#000000; stroke-linecap:butt; stroke-linejoin:round; stroke-width:2; stroke-opacity:0.1; fill:none" points="
  483.323,1800.78 483.323,47.2441 
  "/>
<polyline clip-path="url(#clip822)" style="stroke:#000000; stroke-linecap:butt; stroke-linejoin:round; stroke-width:2; stroke-opacity:0.1; fill:none" points="
  947.287,1800.78 947.287,47.2441 
  "/>
<polyline clip-path="url(#clip822)" style="stroke:#000000; stroke-linecap:butt; stroke-linejoin:round; stroke-width:2; stroke-opacity:0.1; fill:none" points="
  1411.25,1800.78 1411.25,47.2441 
  "/>
<polyline clip-path="url(#clip822)" style="stroke:#000000; stroke-linecap:butt; stroke-linejoin:round; stroke-width:2; stroke-opacity:0.1; fill:none" points="
  1875.22,1800.78 1875.22,47.2441 
  "/>
<polyline clip-path="url(#clip822)" style="stroke:#000000; stroke-linecap:butt; stroke-linejoin:round; stroke-width:2; stroke-opacity:0.1; fill:none" points="
  2339.18,1800.78 2339.18,47.2441 
  "/>
<polyline clip-path="url(#clip820)" style="stroke:#000000; stroke-linecap:butt; stroke-linejoin:round; stroke-width:4; stroke-opacity:1; fill:none" points="
  181.747,1800.78 2640.76,1800.78 
  "/>
<polyline clip-path="url(#clip820)" style="stroke:#000000; stroke-linecap:butt; stroke-linejoin:round; stroke-width:4; stroke-opacity:1; fill:none" points="
  483.323,1800.78 483.323,1781.88 
  "/>
<polyline clip-path="url(#clip820)" style="stroke:#000000; stroke-linecap:butt; stroke-linejoin:round; stroke-width:4; stroke-opacity:1; fill:none" points="
  947.287,1800.78 947.287,1781.88 
  "/>
<polyline clip-path="url(#clip820)" style="stroke:#000000; stroke-linecap:butt; stroke-linejoin:round; stroke-width:4; stroke-opacity:1; fill:none" points="
  1411.25,1800.78 1411.25,1781.88 
  "/>
<polyline clip-path="url(#clip820)" style="stroke:#000000; stroke-linecap:butt; stroke-linejoin:round; stroke-width:4; stroke-opacity:1; fill:none" points="
  1875.22,1800.78 1875.22,1781.88 
  "/>
<polyline clip-path="url(#clip820)" style="stroke:#000000; stroke-linecap:butt; stroke-linejoin:round; stroke-width:4; stroke-opacity:1; fill:none" points="
  2339.18,1800.78 2339.18,1781.88 
  "/>
<path clip-path="url(#clip820)" d="M483.323 1834 Q479.712 1834 477.883 1837.57 Q476.078 1841.11 476.078 1848.24 Q476.078 1855.34 477.883 1858.91 Q479.712 1862.45 483.323 1862.45 Q486.957 1862.45 488.763 1858.91 Q490.592 1855.34 490.592 1848.24 Q490.592 1841.11 488.763 1837.57 Q486.957 1834 483.323 1834 M483.323 1830.3 Q489.133 1830.3 492.189 1834.9 Q495.268 1839.49 495.268 1848.24 Q495.268 1856.96 492.189 1861.57 Q489.133 1866.15 483.323 1866.15 Q477.513 1866.15 474.434 1861.57 Q471.379 1856.96 471.379 1848.24 Q471.379 1839.49 474.434 1834.9 Q477.513 1830.3 483.323 1830.3 Z" fill="#000000" fill-rule="evenodd" fill-opacity="1" /><path clip-path="url(#clip820)" d="M941.94 1861.55 L958.259 1861.55 L958.259 1865.48 L936.315 1865.48 L936.315 1861.55 Q938.977 1858.79 943.56 1854.16 Q948.167 1849.51 949.347 1848.17 Q951.593 1845.65 952.472 1843.91 Q953.375 1842.15 953.375 1840.46 Q953.375 1837.71 951.431 1835.97 Q949.509 1834.23 946.408 1834.23 Q944.209 1834.23 941.755 1835 Q939.324 1835.76 936.547 1837.31 L936.547 1832.59 Q939.371 1831.46 941.824 1830.88 Q944.278 1830.3 946.315 1830.3 Q951.685 1830.3 954.88 1832.98 Q958.074 1835.67 958.074 1840.16 Q958.074 1842.29 957.264 1844.21 Q956.477 1846.11 954.371 1848.7 Q953.792 1849.37 950.69 1852.59 Q947.588 1855.78 941.94 1861.55 Z" fill="#000000" fill-rule="evenodd" fill-opacity="1" /><path clip-path="url(#clip820)" d="M1414.26 1835 L1402.46 1853.45 L1414.26 1853.45 L1414.26 1835 M1413.03 1830.92 L1418.91 1830.92 L1418.91 1853.45 L1423.84 1853.45 L1423.84 1857.34 L1418.91 1857.34 L1418.91 1865.48 L1414.26 1865.48 L1414.26 1857.34 L1398.66 1857.34 L1398.66 1852.82 L1413.03 1830.92 Z" fill="#000000" fill-rule="evenodd" fill-opacity="1" /><path clip-path="url(#clip820)" d="M1875.62 1846.34 Q1872.47 1846.34 1870.62 1848.49 Q1868.79 1850.65 1868.79 1854.4 Q1868.79 1858.12 1870.62 1860.3 Q1872.47 1862.45 1875.62 1862.45 Q1878.77 1862.45 1880.6 1860.3 Q1882.45 1858.12 1882.45 1854.4 Q1882.45 1850.65 1880.6 1848.49 Q1878.77 1846.34 1875.62 1846.34 M1884.9 1831.69 L1884.9 1835.95 Q1883.14 1835.11 1881.34 1834.67 Q1879.56 1834.23 1877.8 1834.23 Q1873.17 1834.23 1870.71 1837.36 Q1868.28 1840.48 1867.94 1846.8 Q1869.3 1844.79 1871.36 1843.72 Q1873.42 1842.64 1875.9 1842.64 Q1881.11 1842.64 1884.12 1845.81 Q1887.15 1848.96 1887.15 1854.4 Q1887.15 1859.72 1884 1862.94 Q1880.85 1866.15 1875.62 1866.15 Q1869.63 1866.15 1866.45 1861.57 Q1863.28 1856.96 1863.28 1848.24 Q1863.28 1840.04 1867.17 1835.18 Q1871.06 1830.3 1877.61 1830.3 Q1879.37 1830.3 1881.15 1830.65 Q1882.96 1830.99 1884.9 1831.69 Z" fill="#000000" fill-rule="evenodd" fill-opacity="1" /><path clip-path="url(#clip820)" d="M2339.18 1849.07 Q2335.85 1849.07 2333.92 1850.85 Q2332.03 1852.64 2332.03 1855.76 Q2332.03 1858.89 2333.92 1860.67 Q2335.85 1862.45 2339.18 1862.45 Q2342.51 1862.45 2344.43 1860.67 Q2346.36 1858.86 2346.36 1855.76 Q2346.36 1852.64 2344.43 1850.85 Q2342.54 1849.07 2339.18 1849.07 M2334.5 1847.08 Q2331.49 1846.34 2329.8 1844.28 Q2328.14 1842.22 2328.14 1839.26 Q2328.14 1835.11 2331.08 1832.71 Q2334.04 1830.3 2339.18 1830.3 Q2344.34 1830.3 2347.28 1832.71 Q2350.22 1835.11 2350.22 1839.26 Q2350.22 1842.22 2348.53 1844.28 Q2346.86 1846.34 2343.88 1847.08 Q2347.26 1847.87 2349.13 1850.16 Q2351.03 1852.45 2351.03 1855.76 Q2351.03 1860.78 2347.95 1863.47 Q2344.9 1866.15 2339.18 1866.15 Q2333.46 1866.15 2330.38 1863.47 Q2327.33 1860.78 2327.33 1855.76 Q2327.33 1852.45 2329.23 1850.16 Q2331.12 1847.87 2334.5 1847.08 M2332.79 1839.7 Q2332.79 1842.38 2334.46 1843.89 Q2336.15 1845.39 2339.18 1845.39 Q2342.19 1845.39 2343.88 1843.89 Q2345.59 1842.38 2345.59 1839.7 Q2345.59 1837.01 2343.88 1835.51 Q2342.19 1834 2339.18 1834 Q2336.15 1834 2334.46 1835.51 Q2332.79 1837.01 2332.79 1839.7 Z" fill="#000000" fill-rule="evenodd" fill-opacity="1" /><polyline clip-path="url(#clip822)" style="stroke:#000000; stroke-linecap:butt; stroke-linejoin:round; stroke-width:2; stroke-opacity:0.1; fill:none" points="
  181.747,1523.69 2640.76,1523.69 
  "/>
<polyline clip-path="url(#clip822)" style="stroke:#000000; stroke-linecap:butt; stroke-linejoin:round; stroke-width:2; stroke-opacity:0.1; fill:none" points="
  181.747,1122.28 2640.76,1122.28 
  "/>
<polyline clip-path="url(#clip822)" style="stroke:#000000; stroke-linecap:butt; stroke-linejoin:round; stroke-width:2; stroke-opacity:0.1; fill:none" points="
  181.747,720.876 2640.76,720.876 
  "/>
<polyline clip-path="url(#clip822)" style="stroke:#000000; stroke-linecap:butt; stroke-linejoin:round; stroke-width:2; stroke-opacity:0.1; fill:none" points="
  181.747,319.47 2640.76,319.47 
  "/>
<polyline clip-path="url(#clip820)" style="stroke:#000000; stroke-linecap:butt; stroke-linejoin:round; stroke-width:4; stroke-opacity:1; fill:none" points="
  181.747,1800.78 181.747,47.2441 
  "/>
<polyline clip-path="url(#clip820)" style="stroke:#000000; stroke-linecap:butt; stroke-linejoin:round; stroke-width:4; stroke-opacity:1; fill:none" points="
  181.747,1523.69 200.644,1523.69 
  "/>
<polyline clip-path="url(#clip820)" style="stroke:#000000; stroke-linecap:butt; stroke-linejoin:round; stroke-width:4; stroke-opacity:1; fill:none" points="
  181.747,1122.28 200.644,1122.28 
  "/>
<polyline clip-path="url(#clip820)" style="stroke:#000000; stroke-linecap:butt; stroke-linejoin:round; stroke-width:4; stroke-opacity:1; fill:none" points="
  181.747,720.876 200.644,720.876 
  "/>
<polyline clip-path="url(#clip820)" style="stroke:#000000; stroke-linecap:butt; stroke-linejoin:round; stroke-width:4; stroke-opacity:1; fill:none" points="
  181.747,319.47 200.644,319.47 
  "/>
<path clip-path="url(#clip820)" d="M49.5521 1524.14 L79.2279 1524.14 L79.2279 1528.07 L49.5521 1528.07 L49.5521 1524.14 Z" fill="#000000" fill-rule="evenodd" fill-opacity="1" /><path clip-path="url(#clip820)" d="M93.3482 1537.03 L109.668 1537.03 L109.668 1540.97 L87.7232 1540.97 L87.7232 1537.03 Q90.3852 1534.28 94.9685 1529.65 Q99.575 1525 100.756 1523.65 Q103.001 1521.13 103.881 1519.39 Q104.783 1517.63 104.783 1515.94 Q104.783 1513.19 102.839 1511.45 Q100.918 1509.72 97.8158 1509.72 Q95.6167 1509.72 93.163 1510.48 Q90.7325 1511.25 87.9547 1512.8 L87.9547 1508.07 Q90.7788 1506.94 93.2324 1506.36 Q95.6861 1505.78 97.7232 1505.78 Q103.094 1505.78 106.288 1508.47 Q109.482 1511.15 109.482 1515.64 Q109.482 1517.77 108.672 1519.69 Q107.885 1521.59 105.779 1524.19 Q105.2 1524.86 102.098 1528.07 Q98.9963 1531.27 93.3482 1537.03 Z" fill="#000000" fill-rule="evenodd" fill-opacity="1" /><path clip-path="url(#clip820)" d="M129.482 1509.49 Q125.871 1509.49 124.042 1513.05 Q122.237 1516.59 122.237 1523.72 Q122.237 1530.83 124.042 1534.39 Q125.871 1537.94 129.482 1537.94 Q133.116 1537.94 134.922 1534.39 Q136.751 1530.83 136.751 1523.72 Q136.751 1516.59 134.922 1513.05 Q133.116 1509.49 129.482 1509.49 M129.482 1505.78 Q135.292 1505.78 138.348 1510.39 Q141.427 1514.97 141.427 1523.72 Q141.427 1532.45 138.348 1537.06 Q135.292 1541.64 129.482 1541.64 Q123.672 1541.64 120.593 1537.06 Q117.538 1532.45 117.538 1523.72 Q117.538 1514.97 120.593 1510.39 Q123.672 1505.78 129.482 1505.78 Z" fill="#000000" fill-rule="evenodd" fill-opacity="1" /><path clip-path="url(#clip820)" d="M49.5521 1122.73 L79.2279 1122.73 L79.2279 1126.67 L49.5521 1126.67 L49.5521 1122.73 Z" fill="#000000" fill-rule="evenodd" fill-opacity="1" /><path clip-path="url(#clip820)" d="M90.1306 1135.63 L97.7695 1135.63 L97.7695 1109.26 L89.4593 1110.93 L89.4593 1106.67 L97.7232 1105 L102.399 1105 L102.399 1135.63 L110.038 1135.63 L110.038 1139.56 L90.1306 1139.56 L90.1306 1135.63 Z" fill="#000000" fill-rule="evenodd" fill-opacity="1" /><path clip-path="url(#clip820)" d="M129.482 1108.08 Q125.871 1108.08 124.042 1111.65 Q122.237 1115.19 122.237 1122.32 Q122.237 1129.42 124.042 1132.99 Q125.871 1136.53 129.482 1136.53 Q133.116 1136.53 134.922 1132.99 Q136.751 1129.42 136.751 1122.32 Q136.751 1115.19 134.922 1111.65 Q133.116 1108.08 129.482 1108.08 M129.482 1104.38 Q135.292 1104.38 138.348 1108.98 Q141.427 1113.57 141.427 1122.32 Q141.427 1131.04 138.348 1135.65 Q135.292 1140.23 129.482 1140.23 Q123.672 1140.23 120.593 1135.65 Q117.538 1131.04 117.538 1122.32 Q117.538 1113.57 120.593 1108.98 Q123.672 1104.38 129.482 1104.38 Z" fill="#000000" fill-rule="evenodd" fill-opacity="1" /><path clip-path="url(#clip820)" d="M129.482 706.675 Q125.871 706.675 124.042 710.24 Q122.237 713.781 122.237 720.911 Q122.237 728.017 124.042 731.582 Q125.871 735.124 129.482 735.124 Q133.116 735.124 134.922 731.582 Q136.751 728.017 136.751 720.911 Q136.751 713.781 134.922 710.24 Q133.116 706.675 129.482 706.675 M129.482 702.971 Q135.292 702.971 138.348 707.577 Q141.427 712.161 141.427 720.911 Q141.427 729.638 138.348 734.244 Q135.292 738.827 129.482 738.827 Q123.672 738.827 120.593 734.244 Q117.538 729.638 117.538 720.911 Q117.538 712.161 120.593 707.577 Q123.672 702.971 129.482 702.971 Z" fill="#000000" fill-rule="evenodd" fill-opacity="1" /><path clip-path="url(#clip820)" d="M90.1306 332.815 L97.7695 332.815 L97.7695 306.449 L89.4593 308.116 L89.4593 303.857 L97.7232 302.19 L102.399 302.19 L102.399 332.815 L110.038 332.815 L110.038 336.75 L90.1306 336.75 L90.1306 332.815 Z" fill="#000000" fill-rule="evenodd" fill-opacity="1" /><path clip-path="url(#clip820)" d="M129.482 305.269 Q125.871 305.269 124.042 308.834 Q122.237 312.375 122.237 319.505 Q122.237 326.611 124.042 330.176 Q125.871 333.718 129.482 333.718 Q133.116 333.718 134.922 330.176 Q136.751 326.611 136.751 319.505 Q136.751 312.375 134.922 308.834 Q133.116 305.269 129.482 305.269 M129.482 301.565 Q135.292 301.565 138.348 306.172 Q141.427 310.755 141.427 319.505 Q141.427 328.232 138.348 332.838 Q135.292 337.422 129.482 337.422 Q123.672 337.422 120.593 332.838 Q117.538 328.232 117.538 319.505 Q117.538 310.755 120.593 306.172 Q123.672 301.565 129.482 301.565 Z" fill="#000000" fill-rule="evenodd" fill-opacity="1" /><polyline clip-path="url(#clip822)" style="stroke:#0000ff; stroke-linecap:butt; stroke-linejoin:round; stroke-width:4; stroke-opacity:1; fill:none" points="
  251.341,708.834 257.232,708.951 311.696,710.082 344.426,710.799 372.1,711.429 402.161,712.138 429.875,712.815 459.586,713.567 494.011,714.47 524.603,715.302 
  551.429,716.052 580.678,716.891 610.1,717.753 642.629,718.721 673.581,719.647 705.763,720.599 732.853,721.375 765.928,722.258 796.226,722.959 824.209,723.457 
  852.555,723.735 884.322,723.625 913.109,722.923 929.588,722.142 946.067,720.98 961.326,719.462 976.584,717.388 991.627,714.63 1006.67,710.93 1013.97,708.702 
  1021.28,706.127 1028.58,703.149 1035.88,699.695 1043.37,695.569 1050.85,690.735 1058.34,685.046 1065.83,678.314 1069.93,674.1 1074.03,669.453 1078.13,664.317 
  1082.23,658.626 1086.33,652.3 1090.43,645.248 1094.53,637.357 1098.63,628.493 1101.61,621.353 1104.59,613.539 1107.57,604.966 1110.55,595.529 1113.53,585.109 
  1116.51,573.561 1119.49,560.711 1122.46,546.351 1123.95,538.527 1125.44,530.225 1126.93,521.403 1128.42,512.015 1129.91,502.009 1131.4,491.326 1132.89,479.901 
  1134.38,467.658 1135.87,454.513 1137.36,440.367 1138.85,425.111 1140.34,408.613 1141.08,399.854 1141.83,390.726 1142.57,381.209 1143.31,371.276 1144.06,360.902 
  1144.8,350.057 1145.55,338.712 1146.29,326.83 1146.9,316.654 1147.52,306.07 1148.13,295.053 1148.74,283.578 1149.35,271.616 1149.96,259.137 1150.57,246.107 
  1151.18,232.491 1151.79,218.25 1152.4,203.34 1153.02,187.715 1153.63,171.322 1154.24,154.107 1154.85,136.008 1155.46,116.954 1156.07,96.8724 
  "/>
<polyline clip-path="url(#clip822)" style="stroke:#0000ff; stroke-linecap:butt; stroke-linejoin:round; stroke-width:4; stroke-opacity:1; fill:none" points="
  1202.47,1751.15 1202.69,1743.68 1202.92,1736.35 1203.15,1729.17 1203.37,1722.14 1203.9,1706.39 1204.42,1691.32 1204.94,1676.91 1205.47,1663.1 1205.99,1649.86 
  1206.52,1637.16 1207.04,1624.97 1207.56,1613.26 1208.09,1602 1208.61,1591.18 1209.13,1580.76 1209.66,1570.74 1210.18,1561.08 1210.71,1551.76 1211.23,1542.79 
  1211.75,1534.13 1212.38,1524.11 1213.01,1514.51 1213.64,1505.3 1214.27,1496.46 1214.9,1487.97 1215.53,1479.81 1216.16,1471.97 1216.79,1464.43 1217.85,1452.32 
  1218.92,1440.96 1219.98,1430.29 1221.05,1420.27 1222.2,1410.06 1223.36,1400.51 1224.51,1391.55 1225.67,1383.16 1226.74,1375.89 1227.8,1369.03 1228.87,1362.56 
  1229.93,1356.46 1231.08,1350.31 1232.22,1344.53 1233.36,1339.11 1234.51,1334.01 1235.83,1328.51 1237.15,1323.4 1238.48,1318.66 1239.8,1314.28 1242.15,1307.3 
  1244.51,1301.28 1246.57,1296.73 1248.63,1292.8 1250.88,1289.19 1253.13,1286.22 1255.4,1283.86 1257.66,1282.08 1260.16,1280.75 1262.67,1280.07 1265.05,1280 
  1267.43,1280.46 1269.9,1281.49 1272.38,1283.08 1274.46,1284.83 1276.55,1286.95 1279.09,1290.06 1281.63,1293.72 1283.97,1297.56 1286.3,1301.88 1288.45,1306.28 
  1290.6,1311.1 1292.78,1316.41 1294.96,1322.16 1297.41,1329.15 1299.85,1336.72 1302.06,1344.1 1304.28,1352.01 1306.81,1361.72 1309.35,1372.19 1311.7,1382.58 
  1314.04,1393.68 1316.36,1405.37 1318.67,1417.83 1320.92,1430.72 1323.17,1444.45 1325.47,1459.44 1327.77,1475.44 1329.03,1484.65 1330.3,1494.21 1331.56,1504.11 
  1332.82,1514.39 1334.65,1530 1336.49,1546.49 1338.32,1563.91 1340.15,1582.32 1340.53,1586.23 1340.9,1590.18 1341.28,1594.19 1341.66,1598.23 
  "/>
<polyline clip-path="url(#clip822)" style="stroke:#0000ff; stroke-linecap:butt; stroke-linejoin:round; stroke-width:4; stroke-opacity:1; fill:none" points="
  1527.24,252.569 1528.09,255.941 1528.94,259.263 1529.79,262.537 1530.64,265.762 1531.49,268.941 1532.34,272.074 1533.19,275.162 1534.04,278.206 1537.97,291.735 
  1541.89,304.429 1545.82,316.361 1549.75,327.597 1553.68,338.194 1557.6,348.205 1561.53,357.677 1565.46,366.651 1569.39,375.164 1573.32,383.251 1577.24,390.942 
  1581.17,398.265 1585.1,405.245 1589.03,411.906 1592.95,418.268 1596.88,424.35 1601.6,431.316 1606.32,437.932 1611.04,444.222 1615.77,450.211 1625.21,461.363 
  1634.65,471.534 1642.63,479.458 1650.61,486.83 1658.6,493.705 1666.58,500.131 1675.25,506.65 1683.92,512.736 1692.59,518.428 1701.26,523.763 1709.26,528.393 
  1717.25,532.768 1725.25,536.91 1733.24,540.836 1750.38,548.597 1767.53,555.573 1787.39,562.82 1807.25,569.301 1824.89,574.51 1842.54,579.27 1858.02,583.117 
  1873.5,586.693 1907.25,593.673 1941.19,599.75 1978.73,605.575 2014.44,610.408 2051.57,614.831 2082.83,618.153 2121,621.791 2155.96,624.779 2188.24,627.286 
  2220.95,629.611 2257.6,631.992 2290.82,633.969 2328.85,636.047 2364.06,637.816 2398.78,639.43 2432.48,640.886 2467.03,642.278 2504.89,643.697 2559.88,645.583 
  2571.16,645.947 
  "/>
</svg>
