<?xml version="1.0" encoding="utf-8"?>
<svg xmlns="http://www.w3.org/2000/svg" xmlns:xlink="http://www.w3.org/1999/xlink" width="672" height="480" viewBox="0 0 2688 1920">
<defs>
  <clipPath id="clip510">
    <rect x="0" y="0" width="2688" height="1920"/>
  </clipPath>
</defs>
<path clip-path="url(#clip510)" d="
M0 1920 L2688 1920 L2688 0 L0 0  Z
  " fill="#ffffff" fill-rule="evenodd" fill-opacity="1"/>
<defs>
  <clipPath id="clip511">
    <rect x="537" y="0" width="1883" height="1883"/>
  </clipPath>
</defs>
<path clip-path="url(#clip510)" d="
M159.478 1800.78 L2640.76 1800.78 L2640.76 47.2441 L159.478 47.2441  Z
  " fill="#ffffff" fill-rule="evenodd" fill-opacity="1"/>
<defs>
  <clipPath id="clip512">
    <rect x="159" y="47" width="2482" height="1755"/>
  </clipPath>
</defs>
<polyline clip-path="url(#clip512)" style="stroke:#000000; stroke-linecap:butt; stroke-linejoin:round; stroke-width:2; stroke-opacity:0.1; fill:none" points="
  489.795,1800.78 489.795,47.2441 
  "/>
<polyline clip-path="url(#clip512)" style="stroke:#000000; stroke-linecap:butt; stroke-linejoin:round; stroke-width:2; stroke-opacity:0.1; fill:none" points="
  1009.98,1800.78 1009.98,47.2441 
  "/>
<polyline clip-path="url(#clip512)" style="stroke:#000000; stroke-linecap:butt; stroke-linejoin:round; stroke-width:2; stroke-opacity:0.1; fill:none" points="
  1530.16,1800.78 1530.16,47.2441 
  "/>
<polyline clip-path="url(#clip512)" style="stroke:#000000; stroke-linecap:butt; stroke-linejoin:round; stroke-width:2; stroke-opacity:0.1; fill:none" points="
  2050.35,1800.78 2050.35,47.2441 
  "/>
<polyline clip-path="url(#clip512)" style="stroke:#000000; stroke-linecap:butt; stroke-linejoin:round; stroke-width:2; stroke-opacity:0.1; fill:none" points="
  2570.53,1800.78 2570.53,47.2441 
  "/>
<polyline clip-path="url(#clip510)" style="stroke:#000000; stroke-linecap:butt; stroke-linejoin:round; stroke-width:4; stroke-opacity:1; fill:none" points="
  159.478,1800.78 2640.76,1800.78 
  "/>
<polyline clip-path="url(#clip510)" style="stroke:#000000; stroke-linecap:butt; stroke-linejoin:round; stroke-width:4; stroke-opacity:1; fill:none" points="
  489.795,1800.78 489.795,1781.88 
  "/>
<polyline clip-path="url(#clip510)" style="stroke:#000000; stroke-linecap:butt; stroke-linejoin:round; stroke-width:4; stroke-opacity:1; fill:none" points="
  1009.98,1800.78 1009.98,1781.88 
  "/>
<polyline clip-path="url(#clip510)" style="stroke:#000000; stroke-linecap:butt; stroke-linejoin:round; stroke-width:4; stroke-opacity:1; fill:none" points="
  1530.16,1800.78 1530.16,1781.88 
  "/>
<polyline clip-path="url(#clip510)" style="stroke:#000000; stroke-linecap:butt; stroke-linejoin:round; stroke-width:4; stroke-opacity:1; fill:none" points="
  2050.35,1800.78 2050.35,1781.88 
  "/>
<polyline clip-path="url(#clip510)" style="stroke:#000000; stroke-linecap:butt; stroke-linejoin:round; stroke-width:4; stroke-opacity:1; fill:none" points="
  2570.53,1800.78 2570.53,1781.88 
  "/>
<path clip-path="url(#clip510)" d="M468.568 1861.55 L484.888 1861.55 L484.888 1865.48 L462.943 1865.48 L462.943 1861.55 Q465.605 1858.79 470.189 1854.16 Q474.795 1849.51 475.976 1848.17 Q478.221 1845.65 479.101 1843.91 Q480.003 1842.15 480.003 1840.46 Q480.003 1837.71 478.059 1835.97 Q476.138 1834.23 473.036 1834.23 Q470.837 1834.23 468.383 1835 Q465.953 1835.76 463.175 1837.31 L463.175 1832.59 Q465.999 1831.46 468.453 1830.88 Q470.906 1830.3 472.943 1830.3 Q478.314 1830.3 481.508 1832.98 Q484.703 1835.67 484.703 1840.16 Q484.703 1842.29 483.892 1844.21 Q483.105 1846.11 480.999 1848.7 Q480.42 1849.37 477.318 1852.59 Q474.216 1855.78 468.568 1861.55 Z" fill="#000000" fill-rule="evenodd" fill-opacity="1" /><path clip-path="url(#clip510)" d="M504.702 1834 Q501.091 1834 499.263 1837.57 Q497.457 1841.11 497.457 1848.24 Q497.457 1855.34 499.263 1858.91 Q501.091 1862.45 504.702 1862.45 Q508.337 1862.45 510.142 1858.91 Q511.971 1855.34 511.971 1848.24 Q511.971 1841.11 510.142 1837.57 Q508.337 1834 504.702 1834 M504.702 1830.3 Q510.513 1830.3 513.568 1834.9 Q516.647 1839.49 516.647 1848.24 Q516.647 1856.96 513.568 1861.57 Q510.513 1866.15 504.702 1866.15 Q498.892 1866.15 495.814 1861.57 Q492.758 1856.96 492.758 1848.24 Q492.758 1839.49 495.814 1834.9 Q498.892 1830.3 504.702 1830.3 Z" fill="#000000" fill-rule="evenodd" fill-opacity="1" /><path clip-path="url(#clip510)" d="M998.15 1835 L986.345 1853.45 L998.15 1853.45 L998.15 1835 M996.924 1830.92 L1002.8 1830.92 L1002.8 1853.45 L1007.73 1853.45 L1007.73 1857.34 L1002.8 1857.34 L1002.8 1865.48 L998.15 1865.48 L998.15 1857.34 L982.549 1857.34 L982.549 1852.82 L996.924 1830.92 Z" fill="#000000" fill-rule="evenodd" fill-opacity="1" /><path clip-path="url(#clip510)" d="M1025.47 1834 Q1021.85 1834 1020.03 1837.57 Q1018.22 1841.11 1018.22 1848.24 Q1018.22 1855.34 1020.03 1858.91 Q1021.85 1862.45 1025.47 1862.45 Q1029.1 1862.45 1030.9 1858.91 Q1032.73 1855.34 1032.73 1848.24 Q1032.73 1841.11 1030.9 1837.57 Q1029.1 1834 1025.47 1834 M1025.47 1830.3 Q1031.28 1830.3 1034.33 1834.9 Q1037.41 1839.49 1037.41 1848.24 Q1037.41 1856.96 1034.33 1861.57 Q1031.28 1866.15 1025.47 1866.15 Q1019.65 1866.15 1016.58 1861.57 Q1013.52 1856.96 1013.52 1848.24 Q1013.52 1839.49 1016.58 1834.9 Q1019.65 1830.3 1025.47 1830.3 Z" fill="#000000" fill-rule="evenodd" fill-opacity="1" /><path clip-path="url(#clip510)" d="M1515.57 1846.34 Q1512.42 1846.34 1510.57 1848.49 Q1508.74 1850.65 1508.74 1854.4 Q1508.74 1858.12 1510.57 1860.3 Q1512.42 1862.45 1515.57 1862.45 Q1518.72 1862.45 1520.55 1860.3 Q1522.4 1858.12 1522.4 1854.4 Q1522.4 1850.65 1520.55 1848.49 Q1518.72 1846.34 1515.57 1846.34 M1524.85 1831.69 L1524.85 1835.95 Q1523.09 1835.11 1521.29 1834.67 Q1519.5 1834.23 1517.74 1834.23 Q1513.11 1834.23 1510.66 1837.36 Q1508.23 1840.48 1507.88 1846.8 Q1509.25 1844.79 1511.31 1843.72 Q1513.37 1842.64 1515.85 1842.64 Q1521.05 1842.64 1524.06 1845.81 Q1527.1 1848.96 1527.1 1854.4 Q1527.1 1859.72 1523.95 1862.94 Q1520.8 1866.15 1515.57 1866.15 Q1509.57 1866.15 1506.4 1861.57 Q1503.23 1856.96 1503.23 1848.24 Q1503.23 1840.04 1507.12 1835.18 Q1511.01 1830.3 1517.56 1830.3 Q1519.32 1830.3 1521.1 1830.65 Q1522.91 1830.99 1524.85 1831.69 Z" fill="#000000" fill-rule="evenodd" fill-opacity="1" /><path clip-path="url(#clip510)" d="M1545.15 1834 Q1541.54 1834 1539.71 1837.57 Q1537.91 1841.11 1537.91 1848.24 Q1537.91 1855.34 1539.71 1858.91 Q1541.54 1862.45 1545.15 1862.45 Q1548.79 1862.45 1550.59 1858.91 Q1552.42 1855.34 1552.42 1848.24 Q1552.42 1841.11 1550.59 1837.57 Q1548.79 1834 1545.15 1834 M1545.15 1830.3 Q1550.96 1830.3 1554.02 1834.9 Q1557.1 1839.49 1557.1 1848.24 Q1557.1 1856.96 1554.02 1861.57 Q1550.96 1866.15 1545.15 1866.15 Q1539.34 1866.15 1536.26 1861.57 Q1533.21 1856.96 1533.21 1848.24 Q1533.21 1839.49 1536.26 1834.9 Q1539.34 1830.3 1545.15 1830.3 Z" fill="#000000" fill-rule="evenodd" fill-opacity="1" /><path clip-path="url(#clip510)" d="M2035.22 1849.07 Q2031.89 1849.07 2029.97 1850.85 Q2028.07 1852.64 2028.07 1855.76 Q2028.07 1858.89 2029.97 1860.67 Q2031.89 1862.45 2035.22 1862.45 Q2038.55 1862.45 2040.47 1860.67 Q2042.4 1858.86 2042.4 1855.76 Q2042.4 1852.64 2040.47 1850.85 Q2038.58 1849.07 2035.22 1849.07 M2030.54 1847.08 Q2027.53 1846.34 2025.84 1844.28 Q2024.18 1842.22 2024.18 1839.26 Q2024.18 1835.11 2027.12 1832.71 Q2030.08 1830.3 2035.22 1830.3 Q2040.38 1830.3 2043.32 1832.71 Q2046.26 1835.11 2046.26 1839.26 Q2046.26 1842.22 2044.57 1844.28 Q2042.9 1846.34 2039.92 1847.08 Q2043.3 1847.87 2045.17 1850.16 Q2047.07 1852.45 2047.07 1855.76 Q2047.07 1860.78 2043.99 1863.47 Q2040.94 1866.15 2035.22 1866.15 Q2029.5 1866.15 2026.42 1863.47 Q2023.37 1860.78 2023.37 1855.76 Q2023.37 1852.45 2025.27 1850.16 Q2027.16 1847.87 2030.54 1847.08 M2028.83 1839.7 Q2028.83 1842.38 2030.5 1843.89 Q2032.19 1845.39 2035.22 1845.39 Q2038.23 1845.39 2039.92 1843.89 Q2041.63 1842.38 2041.63 1839.7 Q2041.63 1837.01 2039.92 1835.51 Q2038.23 1834 2035.22 1834 Q2032.19 1834 2030.5 1835.51 Q2028.83 1837.01 2028.83 1839.7 Z" fill="#000000" fill-rule="evenodd" fill-opacity="1" /><path clip-path="url(#clip510)" d="M2065.38 1834 Q2061.77 1834 2059.94 1837.57 Q2058.14 1841.11 2058.14 1848.24 Q2058.14 1855.34 2059.94 1858.91 Q2061.77 1862.45 2065.38 1862.45 Q2069.02 1862.45 2070.82 1858.91 Q2072.65 1855.34 2072.65 1848.24 Q2072.65 1841.11 2070.82 1837.57 Q2069.02 1834 2065.38 1834 M2065.38 1830.3 Q2071.19 1830.3 2074.25 1834.9 Q2077.33 1839.49 2077.33 1848.24 Q2077.33 1856.96 2074.25 1861.57 Q2071.19 1866.15 2065.38 1866.15 Q2059.57 1866.15 2056.49 1861.57 Q2053.44 1856.96 2053.44 1848.24 Q2053.44 1839.49 2056.49 1834.9 Q2059.57 1830.3 2065.38 1830.3 Z" fill="#000000" fill-rule="evenodd" fill-opacity="1" /><path clip-path="url(#clip510)" d="M2530.14 1861.55 L2537.78 1861.55 L2537.78 1835.18 L2529.47 1836.85 L2529.47 1832.59 L2537.73 1830.92 L2542.41 1830.92 L2542.41 1861.55 L2550.05 1861.55 L2550.05 1865.48 L2530.14 1865.48 L2530.14 1861.55 Z" fill="#000000" fill-rule="evenodd" fill-opacity="1" /><path clip-path="url(#clip510)" d="M2569.49 1834 Q2565.88 1834 2564.05 1837.57 Q2562.24 1841.11 2562.24 1848.24 Q2562.24 1855.34 2564.05 1858.91 Q2565.88 1862.45 2569.49 1862.45 Q2573.12 1862.45 2574.93 1858.91 Q2576.76 1855.34 2576.76 1848.24 Q2576.76 1841.11 2574.93 1837.57 Q2573.12 1834 2569.49 1834 M2569.49 1830.3 Q2575.3 1830.3 2578.36 1834.9 Q2581.43 1839.49 2581.43 1848.24 Q2581.43 1856.96 2578.36 1861.57 Q2575.3 1866.15 2569.49 1866.15 Q2563.68 1866.15 2560.6 1861.57 Q2557.55 1856.96 2557.55 1848.24 Q2557.55 1839.49 2560.6 1834.9 Q2563.68 1830.3 2569.49 1830.3 Z" fill="#000000" fill-rule="evenodd" fill-opacity="1" /><path clip-path="url(#clip510)" d="M2599.65 1834 Q2596.04 1834 2594.21 1837.57 Q2592.41 1841.11 2592.41 1848.24 Q2592.41 1855.34 2594.21 1858.91 Q2596.04 1862.45 2599.65 1862.45 Q2603.29 1862.45 2605.09 1858.91 Q2606.92 1855.34 2606.92 1848.24 Q2606.92 1841.11 2605.09 1837.57 Q2603.29 1834 2599.65 1834 M2599.65 1830.3 Q2605.46 1830.3 2608.52 1834.9 Q2611.6 1839.49 2611.6 1848.24 Q2611.6 1856.96 2608.52 1861.57 Q2605.46 1866.15 2599.65 1866.15 Q2593.84 1866.15 2590.76 1861.57 Q2587.71 1856.96 2587.71 1848.24 Q2587.71 1839.49 2590.76 1834.9 Q2593.84 1830.3 2599.65 1830.3 Z" fill="#000000" fill-rule="evenodd" fill-opacity="1" /><polyline clip-path="url(#clip512)" style="stroke:#000000; stroke-linecap:butt; stroke-linejoin:round; stroke-width:2; stroke-opacity:0.1; fill:none" points="
  159.478,1644.16 2640.76,1644.16 
  "/>
<polyline clip-path="url(#clip512)" style="stroke:#000000; stroke-linecap:butt; stroke-linejoin:round; stroke-width:2; stroke-opacity:0.1; fill:none" points="
  159.478,1308.11 2640.76,1308.11 
  "/>
<polyline clip-path="url(#clip512)" style="stroke:#000000; stroke-linecap:butt; stroke-linejoin:round; stroke-width:2; stroke-opacity:0.1; fill:none" points="
  159.478,972.068 2640.76,972.068 
  "/>
<polyline clip-path="url(#clip512)" style="stroke:#000000; stroke-linecap:butt; stroke-linejoin:round; stroke-width:2; stroke-opacity:0.1; fill:none" points="
  159.478,636.022 2640.76,636.022 
  "/>
<polyline clip-path="url(#clip512)" style="stroke:#000000; stroke-linecap:butt; stroke-linejoin:round; stroke-width:2; stroke-opacity:0.1; fill:none" points="
  159.478,299.977 2640.76,299.977 
  "/>
<polyline clip-path="url(#clip510)" style="stroke:#000000; stroke-linecap:butt; stroke-linejoin:round; stroke-width:4; stroke-opacity:1; fill:none" points="
  159.478,1800.78 159.478,47.2441 
  "/>
<polyline clip-path="url(#clip510)" style="stroke:#000000; stroke-linecap:butt; stroke-linejoin:round; stroke-width:4; stroke-opacity:1; fill:none" points="
  159.478,1644.16 178.376,1644.16 
  "/>
<polyline clip-path="url(#clip510)" style="stroke:#000000; stroke-linecap:butt; stroke-linejoin:round; stroke-width:4; stroke-opacity:1; fill:none" points="
  159.478,1308.11 178.376,1308.11 
  "/>
<polyline clip-path="url(#clip510)" style="stroke:#000000; stroke-linecap:butt; stroke-linejoin:round; stroke-width:4; stroke-opacity:1; fill:none" points="
  159.478,972.068 178.376,972.068 
  "/>
<polyline clip-path="url(#clip510)" style="stroke:#000000; stroke-linecap:butt; stroke-linejoin:round; stroke-width:4; stroke-opacity:1; fill:none" points="
  159.478,636.022 178.376,636.022 
  "/>
<polyline clip-path="url(#clip510)" style="stroke:#000000; stroke-linecap:butt; stroke-linejoin:round; stroke-width:4; stroke-opacity:1; fill:none" points="
  159.478,299.977 178.376,299.977 
  "/>
<path clip-path="url(#clip510)" d="M63.5798 1629.96 Q59.9687 1629.96 58.14 1633.52 Q56.3345 1637.06 56.3345 1644.19 Q56.3345 1651.3 58.14 1654.86 Q59.9687 1658.41 63.5798 1658.41 Q67.2141 1658.41 69.0196 1654.86 Q70.8483 1651.3 70.8483 1644.19 Q70.8483 1637.06 69.0196 1633.52 Q67.2141 1629.96 63.5798 1629.96 M63.5798 1626.25 Q69.39 1626.25 72.4455 1630.86 Q75.5242 1635.44 75.5242 1644.19 Q75.5242 1652.92 72.4455 1657.53 Q69.39 1662.11 63.5798 1662.11 Q57.7697 1662.11 54.691 1657.53 Q51.6354 1652.92 51.6354 1644.19 Q51.6354 1635.44 54.691 1630.86 Q57.7697 1626.25 63.5798 1626.25 Z" fill="#000000" fill-rule="evenodd" fill-opacity="1" /><path clip-path="url(#clip510)" d="M83.7418 1655.56 L88.626 1655.56 L88.626 1661.44 L83.7418 1661.44 L83.7418 1655.56 Z" fill="#000000" fill-rule="evenodd" fill-opacity="1" /><path clip-path="url(#clip510)" d="M102.839 1657.5 L119.158 1657.5 L119.158 1661.44 L97.2139 1661.44 L97.2139 1657.5 Q99.8759 1654.75 104.459 1650.12 Q109.066 1645.47 110.246 1644.12 Q112.492 1641.6 113.371 1639.86 Q114.274 1638.11 114.274 1636.42 Q114.274 1633.66 112.33 1631.92 Q110.408 1630.19 107.306 1630.19 Q105.107 1630.19 102.654 1630.95 Q100.223 1631.72 97.4454 1633.27 L97.4454 1628.55 Q100.269 1627.41 102.723 1626.83 Q105.177 1626.25 107.214 1626.25 Q112.584 1626.25 115.779 1628.94 Q118.973 1631.62 118.973 1636.11 Q118.973 1638.24 118.163 1640.17 Q117.376 1642.06 115.269 1644.66 Q114.691 1645.33 111.589 1648.55 Q108.487 1651.74 102.839 1657.5 Z" fill="#000000" fill-rule="evenodd" fill-opacity="1" /><path clip-path="url(#clip510)" d="M61.4965 1293.91 Q57.8854 1293.91 56.0567 1297.48 Q54.2512 1301.02 54.2512 1308.15 Q54.2512 1315.25 56.0567 1318.82 Q57.8854 1322.36 61.4965 1322.36 Q65.1307 1322.36 66.9363 1318.82 Q68.765 1315.25 68.765 1308.15 Q68.765 1301.02 66.9363 1297.48 Q65.1307 1293.91 61.4965 1293.91 M61.4965 1290.21 Q67.3067 1290.21 70.3622 1294.81 Q73.4409 1299.4 73.4409 1308.15 Q73.4409 1316.87 70.3622 1321.48 Q67.3067 1326.06 61.4965 1326.06 Q55.6864 1326.06 52.6077 1321.48 Q49.5521 1316.87 49.5521 1308.15 Q49.5521 1299.4 52.6077 1294.81 Q55.6864 1290.21 61.4965 1290.21 Z" fill="#000000" fill-rule="evenodd" fill-opacity="1" /><path clip-path="url(#clip510)" d="M81.6584 1319.51 L86.5427 1319.51 L86.5427 1325.39 L81.6584 1325.39 L81.6584 1319.51 Z" fill="#000000" fill-rule="evenodd" fill-opacity="1" /><path clip-path="url(#clip510)" d="M109.575 1294.91 L97.7695 1313.36 L109.575 1313.36 L109.575 1294.91 M108.348 1290.83 L114.228 1290.83 L114.228 1313.36 L119.158 1313.36 L119.158 1317.25 L114.228 1317.25 L114.228 1325.39 L109.575 1325.39 L109.575 1317.25 L93.9732 1317.25 L93.9732 1312.73 L108.348 1290.83 Z" fill="#000000" fill-rule="evenodd" fill-opacity="1" /><path clip-path="url(#clip510)" d="M61.8206 957.866 Q58.2095 957.866 56.3808 961.431 Q54.5752 964.973 54.5752 972.102 Q54.5752 979.209 56.3808 982.774 Q58.2095 986.315 61.8206 986.315 Q65.4548 986.315 67.2604 982.774 Q69.0891 979.209 69.0891 972.102 Q69.0891 964.973 67.2604 961.431 Q65.4548 957.866 61.8206 957.866 M61.8206 954.163 Q67.6307 954.163 70.6863 958.769 Q73.765 963.352 73.765 972.102 Q73.765 980.829 70.6863 985.436 Q67.6307 990.019 61.8206 990.019 Q56.0104 990.019 52.9317 985.436 Q49.8762 980.829 49.8762 972.102 Q49.8762 963.352 52.9317 958.769 Q56.0104 954.163 61.8206 954.163 Z" fill="#000000" fill-rule="evenodd" fill-opacity="1" /><path clip-path="url(#clip510)" d="M81.9825 983.468 L86.8667 983.468 L86.8667 989.348 L81.9825 989.348 L81.9825 983.468 Z" fill="#000000" fill-rule="evenodd" fill-opacity="1" /><path clip-path="url(#clip510)" d="M107.631 970.204 Q104.482 970.204 102.631 972.357 Q100.802 974.51 100.802 978.26 Q100.802 981.987 102.631 984.163 Q104.482 986.315 107.631 986.315 Q110.779 986.315 112.607 984.163 Q114.459 981.987 114.459 978.26 Q114.459 974.51 112.607 972.357 Q110.779 970.204 107.631 970.204 M116.913 955.552 L116.913 959.811 Q115.154 958.978 113.348 958.538 Q111.566 958.098 109.806 958.098 Q105.177 958.098 102.723 961.223 Q100.293 964.348 99.9454 970.667 Q101.311 968.653 103.371 967.589 Q105.431 966.501 107.908 966.501 Q113.117 966.501 116.126 969.672 Q119.158 972.82 119.158 978.26 Q119.158 983.584 116.01 986.801 Q112.862 990.019 107.631 990.019 Q101.635 990.019 98.4639 985.436 Q95.2926 980.829 95.2926 972.102 Q95.2926 963.908 99.1815 959.047 Q103.07 954.163 109.621 954.163 Q111.38 954.163 113.163 954.51 Q114.968 954.857 116.913 955.552 Z" fill="#000000" fill-rule="evenodd" fill-opacity="1" /><path clip-path="url(#clip510)" d="M62.0752 621.821 Q58.4641 621.821 56.6354 625.386 Q54.8299 628.927 54.8299 636.057 Q54.8299 643.163 56.6354 646.728 Q58.4641 650.27 62.0752 650.27 Q65.7094 650.27 67.515 646.728 Q69.3437 643.163 69.3437 636.057 Q69.3437 628.927 67.515 625.386 Q65.7094 621.821 62.0752 621.821 M62.0752 618.117 Q67.8854 618.117 70.9409 622.724 Q74.0196 627.307 74.0196 636.057 Q74.0196 644.784 70.9409 649.39 Q67.8854 653.974 62.0752 653.974 Q56.2651 653.974 53.1864 649.39 Q50.1308 644.784 50.1308 636.057 Q50.1308 627.307 53.1864 622.724 Q56.2651 618.117 62.0752 618.117 Z" fill="#000000" fill-rule="evenodd" fill-opacity="1" /><path clip-path="url(#clip510)" d="M82.2371 647.423 L87.1214 647.423 L87.1214 653.302 L82.2371 653.302 L82.2371 647.423 Z" fill="#000000" fill-rule="evenodd" fill-opacity="1" /><path clip-path="url(#clip510)" d="M107.306 636.89 Q103.973 636.89 102.052 638.673 Q100.154 640.455 100.154 643.58 Q100.154 646.705 102.052 648.487 Q103.973 650.27 107.306 650.27 Q110.64 650.27 112.561 648.487 Q114.482 646.682 114.482 643.58 Q114.482 640.455 112.561 638.673 Q110.663 636.89 107.306 636.89 M102.631 634.9 Q99.6213 634.159 97.9315 632.099 Q96.2648 630.039 96.2648 627.076 Q96.2648 622.932 99.2046 620.525 Q102.168 618.117 107.306 618.117 Q112.468 618.117 115.408 620.525 Q118.348 622.932 118.348 627.076 Q118.348 630.039 116.658 632.099 Q114.992 634.159 112.005 634.9 Q115.385 635.687 117.26 637.978 Q119.158 640.27 119.158 643.58 Q119.158 648.603 116.08 651.288 Q113.024 653.974 107.306 653.974 Q101.589 653.974 98.5102 651.288 Q95.4547 648.603 95.4547 643.58 Q95.4547 640.27 97.3528 637.978 Q99.2509 635.687 102.631 634.9 M100.918 627.515 Q100.918 630.201 102.584 631.705 Q104.274 633.21 107.306 633.21 Q110.316 633.21 112.005 631.705 Q113.718 630.201 113.718 627.515 Q113.718 624.83 112.005 623.326 Q110.316 621.821 107.306 621.821 Q104.274 621.821 102.584 623.326 Q100.918 624.83 100.918 627.515 Z" fill="#000000" fill-rule="evenodd" fill-opacity="1" /><path clip-path="url(#clip510)" d="M52.7928 313.322 L60.4317 313.322 L60.4317 286.956 L52.1216 288.623 L52.1216 284.363 L60.3854 282.697 L65.0613 282.697 L65.0613 313.322 L72.7002 313.322 L72.7002 317.257 L52.7928 317.257 L52.7928 313.322 Z" fill="#000000" fill-rule="evenodd" fill-opacity="1" /><path clip-path="url(#clip510)" d="M82.1445 311.377 L87.0288 311.377 L87.0288 317.257 L82.1445 317.257 L82.1445 311.377 Z" fill="#000000" fill-rule="evenodd" fill-opacity="1" /><path clip-path="url(#clip510)" d="M107.214 285.776 Q103.603 285.776 101.774 289.34 Q99.9685 292.882 99.9685 300.012 Q99.9685 307.118 101.774 310.683 Q103.603 314.224 107.214 314.224 Q110.848 314.224 112.654 310.683 Q114.482 307.118 114.482 300.012 Q114.482 292.882 112.654 289.34 Q110.848 285.776 107.214 285.776 M107.214 282.072 Q113.024 282.072 116.08 286.678 Q119.158 291.262 119.158 300.012 Q119.158 308.738 116.08 313.345 Q113.024 317.928 107.214 317.928 Q101.404 317.928 98.325 313.345 Q95.2695 308.738 95.2695 300.012 Q95.2695 291.262 98.325 286.678 Q101.404 282.072 107.214 282.072 Z" fill="#000000" fill-rule="evenodd" fill-opacity="1" /><polyline clip-path="url(#clip512)" style="stroke:#009af9; stroke-linecap:butt; stroke-linejoin:round; stroke-width:4; stroke-opacity:1; fill:none" points="
  229.703,96.8724 233.513,119.355 237.323,141.282 241.133,162.676 244.943,183.557 253.75,229.968 262.558,273.957 271.365,315.718 280.172,355.424 288.98,393.228 
  297.787,429.27 306.594,463.673 315.401,496.551 324.209,528.004 333.016,558.127 341.823,587.004 350.63,614.713 368.245,666.903 385.86,715.199 396.445,742.531 
  407.031,768.694 417.616,793.762 428.202,817.803 449.373,863.051 470.544,904.881 488.444,937.862 506.344,968.867 524.244,998.069 542.144,1025.62 561.589,1053.85 
  581.033,1080.44 600.478,1105.54 619.922,1129.28 655.774,1169.81 691.626,1206.65 730.064,1242.58 768.501,1275.32 813.034,1309.78 857.567,1341.03 897.143,1366.45 
  936.719,1389.91 971.424,1409.06 1006.13,1427.01 1043.97,1445.33 1081.8,1462.47 1119.86,1478.64 1157.93,1493.83 1242.09,1524.36 1322.17,1550.04 1405.44,1573.85 
  1475.53,1591.93 1561.1,1611.94 1639.5,1628.54 1711.9,1642.6 1785.24,1655.73 1867.43,1669.29 1941.91,1680.63 2027.18,1692.64 2106.14,1702.94 2183.98,1712.39 
  2259.56,1720.96 2337.04,1729.21 2421.92,1737.65 2545.23,1748.96 2570.53,1751.15 
  "/>
<path clip-path="url(#clip510)" d="
M2229.92 209.375 L2558.05 209.375 L2558.05 105.695 L2229.92 105.695  Z
  " fill="#ffffff" fill-rule="evenodd" fill-opacity="1"/>
<polyline clip-path="url(#clip510)" style="stroke:#000000; stroke-linecap:butt; stroke-linejoin:round; stroke-width:4; stroke-opacity:1; fill:none" points="
  2229.92,209.375 2558.05,209.375 2558.05,105.695 2229.92,105.695 2229.92,209.375 
  "/>
<polyline clip-path="url(#clip510)" style="stroke:#009af9; stroke-linecap:butt; stroke-linejoin:round; stroke-width:4; stroke-opacity:1; fill:none" points="
  2257.49,157.535 2422.91,157.535 
  "/>
<path clip-path="url(#clip510)" d="M2464.32 177.223 Q2462.51 181.852 2460.8 183.264 Q2459.09 184.676 2456.22 184.676 L2452.81 184.676 L2452.81 181.112 L2455.31 181.112 Q2457.07 181.112 2458.05 180.278 Q2459.02 179.445 2460.2 176.343 L2460.96 174.399 L2450.48 148.889 L2454.99 148.889 L2463.09 169.167 L2471.19 148.889 L2475.71 148.889 L2464.32 177.223 Z" fill="#000000" fill-rule="evenodd" fill-opacity="1" /><path clip-path="url(#clip510)" d="M2483 170.88 L2490.64 170.88 L2490.64 144.515 L2482.33 146.181 L2482.33 141.922 L2490.59 140.255 L2495.27 140.255 L2495.27 170.88 L2502.91 170.88 L2502.91 174.815 L2483 174.815 L2483 170.88 Z" fill="#000000" fill-rule="evenodd" fill-opacity="1" /></svg>
