<?xml version="1.0" encoding="utf-8"?>
<svg xmlns="http://www.w3.org/2000/svg" xmlns:xlink="http://www.w3.org/1999/xlink" width="672" height="480" viewBox="0 0 2688 1920">
<defs>
  <clipPath id="clip990">
    <rect x="0" y="0" width="2688" height="1920"/>
  </clipPath>
</defs>
<path clip-path="url(#clip990)" d="
M0 1920 L2688 1920 L2688 0 L0 0  Z
  " fill="#ffffff" fill-rule="evenodd" fill-opacity="1"/>
<defs>
  <clipPath id="clip991">
    <rect x="537" y="0" width="1883" height="1883"/>
  </clipPath>
</defs>
<path clip-path="url(#clip990)" d="
M519.079 1800.78 L2272.61 1800.78 L2272.61 47.2441 L519.079 47.2441  Z
  " fill="#ffffff" fill-rule="evenodd" fill-opacity="1"/>
<defs>
  <clipPath id="clip992">
    <rect x="519" y="47" width="1755" height="1755"/>
  </clipPath>
</defs>
<polyline clip-path="url(#clip992)" style="stroke:#000000; stroke-linecap:butt; stroke-linejoin:round; stroke-width:2; stroke-opacity:0.1; fill:none" points="
  519.079,1800.78 519.079,47.2441 
  "/>
<polyline clip-path="url(#clip992)" style="stroke:#000000; stroke-linecap:butt; stroke-linejoin:round; stroke-width:2; stroke-opacity:0.1; fill:none" points="
  811.335,1800.78 811.335,47.2441 
  "/>
<polyline clip-path="url(#clip992)" style="stroke:#000000; stroke-linecap:butt; stroke-linejoin:round; stroke-width:2; stroke-opacity:0.1; fill:none" points="
  1103.59,1800.78 1103.59,47.2441 
  "/>
<polyline clip-path="url(#clip992)" style="stroke:#000000; stroke-linecap:butt; stroke-linejoin:round; stroke-width:2; stroke-opacity:0.1; fill:none" points="
  1395.85,1800.78 1395.85,47.2441 
  "/>
<polyline clip-path="url(#clip992)" style="stroke:#000000; stroke-linecap:butt; stroke-linejoin:round; stroke-width:2; stroke-opacity:0.1; fill:none" points="
  1688.1,1800.78 1688.1,47.2441 
  "/>
<polyline clip-path="url(#clip992)" style="stroke:#000000; stroke-linecap:butt; stroke-linejoin:round; stroke-width:2; stroke-opacity:0.1; fill:none" points="
  1980.36,1800.78 1980.36,47.2441 
  "/>
<polyline clip-path="url(#clip992)" style="stroke:#000000; stroke-linecap:butt; stroke-linejoin:round; stroke-width:2; stroke-opacity:0.1; fill:none" points="
  2272.61,1800.78 2272.61,47.2441 
  "/>
<polyline clip-path="url(#clip990)" style="stroke:#000000; stroke-linecap:butt; stroke-linejoin:round; stroke-width:4; stroke-opacity:1; fill:none" points="
  519.079,1800.78 2272.61,1800.78 
  "/>
<polyline clip-path="url(#clip990)" style="stroke:#000000; stroke-linecap:butt; stroke-linejoin:round; stroke-width:4; stroke-opacity:1; fill:none" points="
  519.079,1800.78 519.079,1781.88 
  "/>
<polyline clip-path="url(#clip990)" style="stroke:#000000; stroke-linecap:butt; stroke-linejoin:round; stroke-width:4; stroke-opacity:1; fill:none" points="
  811.335,1800.78 811.335,1781.88 
  "/>
<polyline clip-path="url(#clip990)" style="stroke:#000000; stroke-linecap:butt; stroke-linejoin:round; stroke-width:4; stroke-opacity:1; fill:none" points="
  1103.59,1800.78 1103.59,1781.88 
  "/>
<polyline clip-path="url(#clip990)" style="stroke:#000000; stroke-linecap:butt; stroke-linejoin:round; stroke-width:4; stroke-opacity:1; fill:none" points="
  1395.85,1800.78 1395.85,1781.88 
  "/>
<polyline clip-path="url(#clip990)" style="stroke:#000000; stroke-linecap:butt; stroke-linejoin:round; stroke-width:4; stroke-opacity:1; fill:none" points="
  1688.1,1800.78 1688.1,1781.88 
  "/>
<polyline clip-path="url(#clip990)" style="stroke:#000000; stroke-linecap:butt; stroke-linejoin:round; stroke-width:4; stroke-opacity:1; fill:none" points="
  1980.36,1800.78 1980.36,1781.88 
  "/>
<polyline clip-path="url(#clip990)" style="stroke:#000000; stroke-linecap:butt; stroke-linejoin:round; stroke-width:4; stroke-opacity:1; fill:none" points="
  2272.61,1800.78 2272.61,1781.88 
  "/>
<path clip-path="url(#clip990)" d="M488.546 1848.65 L518.222 1848.65 L518.222 1852.59 L488.546 1852.59 L488.546 1848.65 Z" fill="#000000" fill-rule="evenodd" fill-opacity="1" /><path clip-path="url(#clip990)" d="M542.481 1846.85 Q545.838 1847.57 547.713 1849.84 Q549.611 1852.1 549.611 1855.44 Q549.611 1860.55 546.092 1863.35 Q542.574 1866.15 536.092 1866.15 Q533.917 1866.15 531.602 1865.71 Q529.31 1865.3 526.856 1864.44 L526.856 1859.93 Q528.801 1861.06 531.116 1861.64 Q533.43 1862.22 535.954 1862.22 Q540.352 1862.22 542.643 1860.48 Q544.958 1858.75 544.958 1855.44 Q544.958 1852.38 542.805 1850.67 Q540.676 1848.93 536.856 1848.93 L532.829 1848.93 L532.829 1845.09 L537.042 1845.09 Q540.491 1845.09 542.319 1843.72 Q544.148 1842.34 544.148 1839.74 Q544.148 1837.08 542.25 1835.67 Q540.375 1834.23 536.856 1834.23 Q534.935 1834.23 532.736 1834.65 Q530.537 1835.07 527.898 1835.95 L527.898 1831.78 Q530.56 1831.04 532.875 1830.67 Q535.213 1830.3 537.273 1830.3 Q542.597 1830.3 545.699 1832.73 Q548.801 1835.14 548.801 1839.26 Q548.801 1842.13 547.157 1844.12 Q545.514 1846.09 542.481 1846.85 Z" fill="#000000" fill-rule="evenodd" fill-opacity="1" /><path clip-path="url(#clip990)" d="M781.277 1848.65 L810.953 1848.65 L810.953 1852.59 L781.277 1852.59 L781.277 1848.65 Z" fill="#000000" fill-rule="evenodd" fill-opacity="1" /><path clip-path="url(#clip990)" d="M825.073 1861.55 L841.392 1861.55 L841.392 1865.48 L819.448 1865.48 L819.448 1861.55 Q822.11 1858.79 826.693 1854.16 Q831.3 1849.51 832.48 1848.17 Q834.726 1845.65 835.605 1843.91 Q836.508 1842.15 836.508 1840.46 Q836.508 1837.71 834.564 1835.97 Q832.642 1834.23 829.54 1834.23 Q827.341 1834.23 824.888 1835 Q822.457 1835.76 819.679 1837.31 L819.679 1832.59 Q822.503 1831.46 824.957 1830.88 Q827.411 1830.3 829.448 1830.3 Q834.818 1830.3 838.013 1832.98 Q841.207 1835.67 841.207 1840.16 Q841.207 1842.29 840.397 1844.21 Q839.61 1846.11 837.503 1848.7 Q836.925 1849.37 833.823 1852.59 Q830.721 1855.78 825.073 1861.55 Z" fill="#000000" fill-rule="evenodd" fill-opacity="1" /><path clip-path="url(#clip990)" d="M1073.35 1848.65 L1103.02 1848.65 L1103.02 1852.59 L1073.35 1852.59 L1073.35 1848.65 Z" fill="#000000" fill-rule="evenodd" fill-opacity="1" /><path clip-path="url(#clip990)" d="M1113.93 1861.55 L1121.56 1861.55 L1121.56 1835.18 L1113.25 1836.85 L1113.25 1832.59 L1121.52 1830.92 L1126.19 1830.92 L1126.19 1861.55 L1133.83 1861.55 L1133.83 1865.48 L1113.93 1865.48 L1113.93 1861.55 Z" fill="#000000" fill-rule="evenodd" fill-opacity="1" /><path clip-path="url(#clip990)" d="M1395.85 1834 Q1392.24 1834 1390.41 1837.57 Q1388.6 1841.11 1388.6 1848.24 Q1388.6 1855.34 1390.41 1858.91 Q1392.24 1862.45 1395.85 1862.45 Q1399.48 1862.45 1401.29 1858.91 Q1403.11 1855.34 1403.11 1848.24 Q1403.11 1841.11 1401.29 1837.57 Q1399.48 1834 1395.85 1834 M1395.85 1830.3 Q1401.66 1830.3 1404.71 1834.9 Q1407.79 1839.49 1407.79 1848.24 Q1407.79 1856.96 1404.71 1861.57 Q1401.66 1866.15 1395.85 1866.15 Q1390.04 1866.15 1386.96 1861.57 Q1383.9 1856.96 1383.9 1848.24 Q1383.9 1839.49 1386.96 1834.9 Q1390.04 1830.3 1395.85 1830.3 Z" fill="#000000" fill-rule="evenodd" fill-opacity="1" /><path clip-path="url(#clip990)" d="M1678.48 1861.55 L1686.12 1861.55 L1686.12 1835.18 L1677.81 1836.85 L1677.81 1832.59 L1686.08 1830.92 L1690.75 1830.92 L1690.75 1861.55 L1698.39 1861.55 L1698.39 1865.48 L1678.48 1865.48 L1678.48 1861.55 Z" fill="#000000" fill-rule="evenodd" fill-opacity="1" /><path clip-path="url(#clip990)" d="M1975.01 1861.55 L1991.33 1861.55 L1991.33 1865.48 L1969.39 1865.48 L1969.39 1861.55 Q1972.05 1858.79 1976.63 1854.16 Q1981.24 1849.51 1982.42 1848.17 Q1984.66 1845.65 1985.54 1843.91 Q1986.45 1842.15 1986.45 1840.46 Q1986.45 1837.71 1984.5 1835.97 Q1982.58 1834.23 1979.48 1834.23 Q1977.28 1834.23 1974.83 1835 Q1972.4 1835.76 1969.62 1837.31 L1969.62 1832.59 Q1972.44 1831.46 1974.9 1830.88 Q1977.35 1830.3 1979.39 1830.3 Q1984.76 1830.3 1987.95 1832.98 Q1991.14 1835.67 1991.14 1840.16 Q1991.14 1842.29 1990.33 1844.21 Q1989.55 1846.11 1987.44 1848.7 Q1986.86 1849.37 1983.76 1852.59 Q1980.66 1855.78 1975.01 1861.55 Z" fill="#000000" fill-rule="evenodd" fill-opacity="1" /><path clip-path="url(#clip990)" d="M2276.86 1846.85 Q2280.22 1847.57 2282.09 1849.84 Q2283.99 1852.1 2283.99 1855.44 Q2283.99 1860.55 2280.47 1863.35 Q2276.95 1866.15 2270.47 1866.15 Q2268.3 1866.15 2265.98 1865.71 Q2263.69 1865.3 2261.24 1864.44 L2261.24 1859.93 Q2263.18 1861.06 2265.5 1861.64 Q2267.81 1862.22 2270.33 1862.22 Q2274.73 1862.22 2277.02 1860.48 Q2279.34 1858.75 2279.34 1855.44 Q2279.34 1852.38 2277.19 1850.67 Q2275.06 1848.93 2271.24 1848.93 L2267.21 1848.93 L2267.21 1845.09 L2271.42 1845.09 Q2274.87 1845.09 2276.7 1843.72 Q2278.53 1842.34 2278.53 1839.74 Q2278.53 1837.08 2276.63 1835.67 Q2274.76 1834.23 2271.24 1834.23 Q2269.32 1834.23 2267.12 1834.65 Q2264.92 1835.07 2262.28 1835.95 L2262.28 1831.78 Q2264.94 1831.04 2267.26 1830.67 Q2269.59 1830.3 2271.65 1830.3 Q2276.98 1830.3 2280.08 1832.73 Q2283.18 1835.14 2283.18 1839.26 Q2283.18 1842.13 2281.54 1844.12 Q2279.89 1846.09 2276.86 1846.85 Z" fill="#000000" fill-rule="evenodd" fill-opacity="1" /><polyline clip-path="url(#clip992)" style="stroke:#000000; stroke-linecap:butt; stroke-linejoin:round; stroke-width:2; stroke-opacity:0.1; fill:none" points="
  519.079,1800.78 2272.61,1800.78 
  "/>
<polyline clip-path="url(#clip992)" style="stroke:#000000; stroke-linecap:butt; stroke-linejoin:round; stroke-width:2; stroke-opacity:0.1; fill:none" points="
  519.079,1508.52 2272.61,1508.52 
  "/>
<polyline clip-path="url(#clip992)" style="stroke:#000000; stroke-linecap:butt; stroke-linejoin:round; stroke-width:2; stroke-opacity:0.1; fill:none" points="
  519.079,1216.27 2272.61,1216.27 
  "/>
<polyline clip-path="url(#clip992)" style="stroke:#000000; stroke-linecap:butt; stroke-linejoin:round; stroke-width:2; stroke-opacity:0.1; fill:none" points="
  519.079,924.012 2272.61,924.012 
  "/>
<polyline clip-path="url(#clip992)" style="stroke:#000000; stroke-linecap:butt; stroke-linejoin:round; stroke-width:2; stroke-opacity:0.1; fill:none" points="
  519.079,631.756 2272.61,631.756 
  "/>
<polyline clip-path="url(#clip992)" style="stroke:#000000; stroke-linecap:butt; stroke-linejoin:round; stroke-width:2; stroke-opacity:0.1; fill:none" points="
  519.079,339.5 2272.61,339.5 
  "/>
<polyline clip-path="url(#clip992)" style="stroke:#000000; stroke-linecap:butt; stroke-linejoin:round; stroke-width:2; stroke-opacity:0.1; fill:none" points="
  519.079,47.2441 2272.61,47.2441 
  "/>
<polyline clip-path="url(#clip990)" style="stroke:#000000; stroke-linecap:butt; stroke-linejoin:round; stroke-width:4; stroke-opacity:1; fill:none" points="
  519.079,1800.78 519.079,47.2441 
  "/>
<polyline clip-path="url(#clip990)" style="stroke:#000000; stroke-linecap:butt; stroke-linejoin:round; stroke-width:4; stroke-opacity:1; fill:none" points="
  519.079,1800.78 532.388,1800.78 
  "/>
<polyline clip-path="url(#clip990)" style="stroke:#000000; stroke-linecap:butt; stroke-linejoin:round; stroke-width:4; stroke-opacity:1; fill:none" points="
  519.079,1508.52 532.388,1508.52 
  "/>
<polyline clip-path="url(#clip990)" style="stroke:#000000; stroke-linecap:butt; stroke-linejoin:round; stroke-width:4; stroke-opacity:1; fill:none" points="
  519.079,1216.27 532.388,1216.27 
  "/>
<polyline clip-path="url(#clip990)" style="stroke:#000000; stroke-linecap:butt; stroke-linejoin:round; stroke-width:4; stroke-opacity:1; fill:none" points="
  519.079,924.012 532.388,924.012 
  "/>
<polyline clip-path="url(#clip990)" style="stroke:#000000; stroke-linecap:butt; stroke-linejoin:round; stroke-width:4; stroke-opacity:1; fill:none" points="
  519.079,631.756 532.388,631.756 
  "/>
<polyline clip-path="url(#clip990)" style="stroke:#000000; stroke-linecap:butt; stroke-linejoin:round; stroke-width:4; stroke-opacity:1; fill:none" points="
  519.079,339.5 532.388,339.5 
  "/>
<polyline clip-path="url(#clip990)" style="stroke:#000000; stroke-linecap:butt; stroke-linejoin:round; stroke-width:4; stroke-opacity:1; fill:none" points="
  519.079,47.2441 532.388,47.2441 
  "/>
<path clip-path="url(#clip990)" d="M417.694 1801.23 L447.37 1801.23 L447.37 1805.17 L417.694 1805.17 L417.694 1801.23 Z" fill="#000000" fill-rule="evenodd" fill-opacity="1" /><path clip-path="url(#clip990)" d="M471.629 1799.43 Q474.986 1800.14 476.861 1802.41 Q478.759 1804.68 478.759 1808.01 Q478.759 1813.13 475.24 1815.93 Q471.722 1818.73 465.24 1818.73 Q463.064 1818.73 460.749 1818.29 Q458.458 1817.87 456.004 1817.02 L456.004 1812.5 Q457.949 1813.64 460.263 1814.22 Q462.578 1814.8 465.101 1814.8 Q469.499 1814.8 471.791 1813.06 Q474.106 1811.32 474.106 1808.01 Q474.106 1804.96 471.953 1803.24 Q469.824 1801.51 466.004 1801.51 L461.976 1801.51 L461.976 1797.67 L466.189 1797.67 Q469.638 1797.67 471.467 1796.3 Q473.296 1794.91 473.296 1792.32 Q473.296 1789.66 471.398 1788.24 Q469.523 1786.81 466.004 1786.81 Q464.083 1786.81 461.884 1787.23 Q459.685 1787.64 457.046 1788.52 L457.046 1784.36 Q459.708 1783.62 462.023 1783.24 Q464.361 1782.87 466.421 1782.87 Q471.745 1782.87 474.847 1785.3 Q477.948 1787.71 477.948 1791.83 Q477.948 1794.7 476.305 1796.69 Q474.661 1798.66 471.629 1799.43 Z" fill="#000000" fill-rule="evenodd" fill-opacity="1" /><path clip-path="url(#clip990)" d="M418.643 1508.97 L448.319 1508.97 L448.319 1512.91 L418.643 1512.91 L418.643 1508.97 Z" fill="#000000" fill-rule="evenodd" fill-opacity="1" /><path clip-path="url(#clip990)" d="M462.439 1521.87 L478.759 1521.87 L478.759 1525.8 L456.814 1525.8 L456.814 1521.87 Q459.476 1519.11 464.06 1514.48 Q468.666 1509.83 469.847 1508.49 Q472.092 1505.97 472.972 1504.23 Q473.874 1502.47 473.874 1500.78 Q473.874 1498.03 471.93 1496.29 Q470.009 1494.55 466.907 1494.55 Q464.708 1494.55 462.254 1495.32 Q459.824 1496.08 457.046 1497.63 L457.046 1492.91 Q459.87 1491.78 462.324 1491.2 Q464.777 1490.62 466.814 1490.62 Q472.185 1490.62 475.379 1493.3 Q478.573 1495.99 478.573 1500.48 Q478.573 1502.61 477.763 1504.53 Q476.976 1506.43 474.87 1509.02 Q474.291 1509.69 471.189 1512.91 Q468.087 1516.1 462.439 1521.87 Z" fill="#000000" fill-rule="evenodd" fill-opacity="1" /><path clip-path="url(#clip990)" d="M418.273 1216.72 L447.949 1216.72 L447.949 1220.65 L418.273 1220.65 L418.273 1216.72 Z" fill="#000000" fill-rule="evenodd" fill-opacity="1" /><path clip-path="url(#clip990)" d="M458.851 1229.61 L466.49 1229.61 L466.49 1203.25 L458.18 1204.91 L458.18 1200.65 L466.444 1198.99 L471.12 1198.99 L471.12 1229.61 L478.759 1229.61 L478.759 1233.55 L458.851 1233.55 L458.851 1229.61 Z" fill="#000000" fill-rule="evenodd" fill-opacity="1" /><path clip-path="url(#clip990)" d="M466.814 909.81 Q463.203 909.81 461.374 913.375 Q459.569 916.917 459.569 924.046 Q459.569 931.153 461.374 934.718 Q463.203 938.259 466.814 938.259 Q470.449 938.259 472.254 934.718 Q474.083 931.153 474.083 924.046 Q474.083 916.917 472.254 913.375 Q470.449 909.81 466.814 909.81 M466.814 906.107 Q472.624 906.107 475.68 910.713 Q478.759 915.296 478.759 924.046 Q478.759 932.773 475.68 937.38 Q472.624 941.963 466.814 941.963 Q461.004 941.963 457.925 937.38 Q454.87 932.773 454.87 924.046 Q454.87 915.296 457.925 910.713 Q461.004 906.107 466.814 906.107 Z" fill="#000000" fill-rule="evenodd" fill-opacity="1" /><path clip-path="url(#clip990)" d="M458.851 645.101 L466.49 645.101 L466.49 618.735 L458.18 620.402 L458.18 616.142 L466.444 614.476 L471.12 614.476 L471.12 645.101 L478.759 645.101 L478.759 649.036 L458.851 649.036 L458.851 645.101 Z" fill="#000000" fill-rule="evenodd" fill-opacity="1" /><path clip-path="url(#clip990)" d="M462.439 352.845 L478.759 352.845 L478.759 356.78 L456.814 356.78 L456.814 352.845 Q459.476 350.09 464.06 345.461 Q468.666 340.808 469.847 339.465 Q472.092 336.942 472.972 335.206 Q473.874 333.447 473.874 331.757 Q473.874 329.002 471.93 327.266 Q470.009 325.53 466.907 325.53 Q464.708 325.53 462.254 326.294 Q459.824 327.058 457.046 328.609 L457.046 323.887 Q459.87 322.752 462.324 322.174 Q464.777 321.595 466.814 321.595 Q472.185 321.595 475.379 324.28 Q478.573 326.965 478.573 331.456 Q478.573 333.586 477.763 335.507 Q476.976 337.405 474.87 339.998 Q474.291 340.669 471.189 343.887 Q468.087 347.081 462.439 352.845 Z" fill="#000000" fill-rule="evenodd" fill-opacity="1" /><path clip-path="url(#clip990)" d="M471.629 45.8899 Q474.986 46.6075 476.861 48.876 Q478.759 51.1445 478.759 54.4779 Q478.759 59.5936 475.24 62.3945 Q471.722 65.1954 465.24 65.1954 Q463.064 65.1954 460.749 64.7556 Q458.458 64.3389 456.004 63.4824 L456.004 58.9686 Q457.949 60.1028 460.263 60.6815 Q462.578 61.2602 465.101 61.2602 Q469.499 61.2602 471.791 59.5241 Q474.106 57.788 474.106 54.4779 Q474.106 51.4223 471.953 49.7094 Q469.824 47.9733 466.004 47.9733 L461.976 47.9733 L461.976 44.1307 L466.189 44.1307 Q469.638 44.1307 471.467 42.765 Q473.296 41.3761 473.296 38.7835 Q473.296 36.1215 471.398 34.7094 Q469.523 33.2743 466.004 33.2743 Q464.083 33.2743 461.884 33.6909 Q459.685 34.1076 457.046 34.9872 L457.046 30.8206 Q459.708 30.0798 462.023 29.7095 Q464.361 29.3391 466.421 29.3391 Q471.745 29.3391 474.847 31.7696 Q477.948 34.177 477.948 38.2974 Q477.948 41.1677 476.305 43.1585 Q474.661 45.1261 471.629 45.8899 Z" fill="#000000" fill-rule="evenodd" fill-opacity="1" /><polyline clip-path="url(#clip992)" style="stroke:#1e90ff; stroke-linecap:butt; stroke-linejoin:round; stroke-width:4; stroke-opacity:1; fill:none" points="
  552.839,1800.78 554.237,1799.48 557.595,1796.38 558.632,1795.42 562.357,1791.99 563.027,1791.37 567.125,1787.59 567.422,1787.32 571.817,1783.28 571.899,1783.2 
  576.211,1779.23 576.683,1778.81 580.606,1775.2 581.474,1774.41 585.001,1771.17 586.27,1770.02 589.396,1767.15 591.074,1765.62 593.791,1763.13 595.884,1761.23 
  598.186,1759.11 600.701,1756.83 602.58,1755.11 605.526,1752.44 606.975,1751.11 610.357,1748.04 611.37,1747.11 615.197,1743.65 615.765,1743.13 620.043,1739.25 
  620.16,1739.15 624.554,1735.17 624.902,1734.86 628.949,1731.2 629.769,1730.46 633.344,1727.23 634.646,1726.07 637.739,1723.27 639.53,1721.67 642.134,1719.32 
  644.424,1717.28 646.529,1715.38 649.326,1712.88 650.923,1711.44 654.237,1708.49 655.318,1707.51 659.158,1704.09 659.713,1703.59 664.088,1699.7 664.108,1699.68 
  668.503,1695.77 669.034,1695.3 672.898,1691.87 673.991,1690.91 677.292,1687.98 678.959,1686.51 681.687,1684.09 683.937,1682.12 686.082,1680.22 688.926,1677.72 
  690.477,1676.35 693.926,1673.33 694.872,1672.49 698.938,1668.93 699.266,1668.64 703.661,1664.8 703.966,1664.54 708.056,1660.97 709.01,1660.14 712.451,1657.14 
  714.068,1655.75 716.846,1653.33 719.138,1651.36 721.241,1649.52 724.221,1646.96 725.635,1645.73 729.319,1642.57 730.03,1641.95 734.425,1638.18 734.431,1638.17 
  738.82,1634.41 739.567,1633.78 743.215,1630.65 744.718,1629.38 747.61,1626.91 749.885,1624.99 752.004,1623.17 755.068,1620.59 756.399,1619.46 760.268,1616.2 
  760.794,1615.75 765.189,1612.05 765.489,1611.8 769.584,1608.36 770.735,1607.41 773.979,1604.68 776,1603.01 778.373,1601.02 781.284,1598.62 782.768,1597.37 
  786.587,1594.22 787.163,1593.74 791.558,1590.12 791.915,1589.83 795.953,1586.5 797.274,1585.43 800.347,1582.91 802.654,1581.04 804.742,1579.32 808.056,1576.64 
  809.137,1575.76 813.482,1572.25 813.532,1572.21 817.927,1568.66 818.947,1567.85 822.322,1565.14 824.438,1563.46 826.716,1561.63 829.955,1559.06 831.111,1558.14 
  835.499,1554.67 835.506,1554.66 839.901,1551.2 841.09,1550.27 844.296,1547.75 846.71,1545.88 848.691,1544.32 852.36,1541.48 853.085,1540.92 857.48,1537.52 
  858.051,1537.09 861.875,1534.14 863.787,1532.69 866.27,1530.79 869.558,1528.3 870.665,1527.45 875.059,1524.14 875.369,1523.91 879.454,1520.83 881.237,1519.51 
  883.849,1517.55 887.144,1515.12 888.244,1514.29 892.639,1511.05 893.1,1510.72 897.034,1507.83 899.118,1506.33 901.428,1504.63 905.181,1501.93 905.823,1501.46 
  910.218,1498.31 911.311,1497.54 914.613,1495.17 917.501,1493.14 919.008,1492.07 923.403,1488.99 923.75,1488.75 927.797,1485.92 930.081,1484.35 932.192,1482.88 
  936.47,1479.96 936.587,1479.88 940.982,1476.88 942.957,1475.56 945.377,1473.92 949.509,1471.17 949.772,1470.99 954.166,1468.07 956.168,1466.77 958.561,1465.19 
  962.903,1462.38 962.956,1462.34 967.351,1459.51 969.762,1457.98 971.746,1456.71 976.14,1453.94 976.714,1453.59 980.535,1451.19 983.794,1449.19 984.93,1448.48 
  989.325,1445.8 991.001,1444.8 993.72,1443.15 998.115,1440.53 998.336,1440.4 1002.51,1437.93 1005.84,1436.01 1006.9,1435.38 1011.3,1432.85 1013.5,1431.61 
  1015.69,1430.36 1020.09,1427.9 1021.33,1427.22 1024.48,1425.47 1028.88,1423.08 1029.36,1422.82 1033.27,1420.72 1037.61,1418.43 1037.67,1418.4 1042.06,1416.1 
  1046.11,1414.03 1046.46,1413.86 1050.85,1411.63 1054.88,1409.64 1055.25,1409.46 1059.64,1407.3 1063.95,1405.25 1064.04,1405.21 1068.43,1403.12 1072.83,1401.1 
  1073.38,1400.85 1077.22,1399.1 1081.62,1397.14 1083.21,1396.46 1086.01,1395.22 1090.41,1393.34 1093.48,1392.06 1094.8,1391.5 1099.2,1389.69 1103.59,1387.94 
  1104.29,1387.67 1107.99,1386.21 1112.38,1384.52 1115.75,1383.27 1116.77,1382.88 1121.17,1381.27 1125.56,1379.71 1127.98,1378.88 1129.96,1378.18 1134.35,1376.69 
  1138.75,1375.25 1141.17,1374.48 1143.14,1373.84 1147.54,1372.47 1151.93,1371.14 1155.57,1370.09 1156.33,1369.86 1160.72,1368.61 1165.12,1367.4 1169.51,1366.23 
  1171.63,1365.69 1173.91,1365.1 1178.3,1364 1182.7,1362.94 1187.09,1361.93 1189.97,1361.3 1191.49,1360.95 1195.88,1360.01 1200.28,1359.1 1204.67,1358.23 
  1209.07,1357.4 1211.83,1356.9 1213.46,1356.6 1217.86,1355.83 1222.25,1355.1 1226.65,1354.41 1231.04,1353.74 1235.44,1353.12 1239.83,1352.53 1239.97,1352.51 
  1244.22,1351.95 1248.62,1351.41 1253.01,1350.9 1257.41,1350.43 1261.8,1349.98 1266.2,1349.56 1270.59,1349.16 1274.99,1348.8 1279.38,1348.46 1283.78,1348.14 
  1284.22,1348.11 1288.17,1347.84 1292.57,1347.57 1296.96,1347.32 1301.36,1347.09 1305.75,1346.88 1310.15,1346.69 1314.54,1346.51 1318.94,1346.36 1323.33,1346.22 
  1327.73,1346.1 1332.12,1345.99 1336.52,1345.9 1340.91,1345.82 1345.31,1345.75 1349.7,1345.69 1354.1,1345.64 1358.49,1345.6 1362.89,1345.57 1367.28,1345.55 
  1371.67,1345.53 1376.07,1345.52 1380.46,1345.51 1384.86,1345.51 1389.25,1345.51 1393.65,1345.51 1398.04,1345.51 1402.44,1345.51 1406.83,1345.5 1411.23,1345.5 
  1415.62,1345.49 1420.02,1345.48 1424.41,1345.46 1428.81,1345.44 1433.2,1345.41 1437.6,1345.37 1441.99,1345.32 1446.39,1345.26 1450.78,1345.2 1455.18,1345.12 
  1459.57,1345.02 1463.97,1344.91 1468.36,1344.79 1472.76,1344.65 1477.15,1344.5 1481.55,1344.33 1485.94,1344.14 1490.33,1343.93 1494.32,1343.72 1494.73,1343.7 
  1499.12,1343.44 1503.52,1343.16 1507.91,1342.85 1512.31,1342.52 1516.7,1342.17 1521.1,1341.79 1525.49,1341.38 1529.89,1340.94 1534.28,1340.47 1538.68,1339.97 
  1543.07,1339.44 1544,1339.32 1547.47,1338.87 1551.86,1338.26 1556.26,1337.62 1560.65,1336.93 1565.05,1336.22 1569.44,1335.46 1572.38,1334.93 1573.84,1334.66 
  1578.23,1333.8 1582.63,1332.91 1587.02,1331.97 1591.42,1330.98 1593.34,1330.53 1595.81,1329.94 1600.21,1328.84 1604.6,1327.7 1609,1326.5 1610.27,1326.14 
  1613.39,1325.23 1617.78,1323.91 1622.18,1322.53 1624.58,1321.74 1626.57,1321.08 1630.97,1319.55 1635.36,1317.97 1637.03,1317.35 1639.76,1316.31 1644.15,1314.57 
  1648.09,1312.95 1648.55,1312.76 1652.94,1310.85 1657.34,1308.88 1658.02,1308.56 1661.73,1306.79 1666.13,1304.63 1667.05,1304.16 1670.52,1302.36 1674.92,1300 
  1675.33,1299.77 1679.31,1297.51 1682.97,1295.37 1683.71,1294.93 1688.1,1292.22 1690.05,1290.98 1692.5,1289.39 1696.67,1286.58 1696.89,1286.43 1701.29,1283.32 
  1702.84,1282.19 1705.68,1280.07 1708.64,1277.8 1710.08,1276.66 1714.1,1273.4 1714.47,1273.1 1718.87,1269.34 1719.25,1269.01 1723.26,1265.4 1724.11,1264.61 
  1727.66,1261.25 1728.71,1260.22 1732.05,1256.88 1733.08,1255.82 1736.45,1252.28 1737.23,1251.43 1740.84,1247.42 1741.18,1247.03 1744.93,1242.64 1745.23,1242.27 
  1748.5,1238.24 1749.63,1236.8 1751.9,1233.85 1754.02,1231 1755.16,1229.45 1758.27,1225.06 1758.42,1224.84 1761.22,1220.66 1762.81,1218.22 1764.05,1216.27 
  1766.77,1211.87 1767.21,1211.14 1769.35,1207.48 1771.6,1203.5 1771.83,1203.08 1774.19,1198.69 1776,1195.21 1776.47,1194.29 1778.63,1189.9 1780.39,1186.18 
  1780.71,1185.5 1782.69,1181.11 1784.59,1176.71 1784.79,1176.25 1786.4,1172.32 1788.14,1167.92 1789.18,1165.2 1789.81,1163.53 1791.39,1159.13 1792.91,1154.74 
  1793.58,1152.75 1794.36,1150.35 1795.74,1145.95 1797.07,1141.56 1797.97,1138.44 1798.34,1137.16 1799.53,1132.77 1800.68,1128.37 1801.78,1123.98 1802.37,1121.51 
  1802.82,1119.58 1803.8,1115.19 1804.74,1110.79 1805.64,1106.4 1806.49,1102 1806.76,1100.54 1807.29,1097.61 1808.05,1093.21 1808.77,1088.82 1809.45,1084.42 
  1810.09,1080.03 1810.7,1075.63 1811.16,1072.17 1811.28,1071.24 1811.81,1066.84 1812.31,1062.45 1812.77,1058.05 1813.21,1053.66 1813.62,1049.26 1814,1044.87 
  1814.36,1040.47 1814.69,1036.08 1814.99,1031.68 1815.27,1027.29 1815.53,1022.9 1815.55,1022.48 1815.76,1018.5 1815.97,1014.11 1816.16,1009.71 1816.33,1005.32 
  1816.49,1000.92 1816.63,996.526 1816.75,992.131 1816.86,987.737 1816.95,983.342 1817.03,978.947 1817.1,974.552 1817.16,970.157 1817.2,965.763 1817.24,961.368 
  1817.27,956.973 1817.3,952.578 1817.31,948.183 1817.33,943.788 1817.33,939.394 1817.34,934.999 1817.34,930.604 1817.34,926.209 1817.34,921.814 1817.34,917.419 
  1817.34,913.025 1817.35,908.63 1817.36,904.235 1817.37,899.84 1817.38,895.445 1817.41,891.051 1817.44,886.656 1817.48,882.261 1817.53,877.866 1817.58,873.471 
  1817.65,869.076 1817.73,864.682 1817.83,860.287 1817.93,855.892 1818.06,851.497 1818.19,847.102 1818.35,842.707 1818.52,838.313 1818.71,833.918 1818.92,829.523 
  1819.15,825.128 1819.4,820.733 1819.68,816.338 1819.95,812.385 1819.98,811.944 1820.29,807.549 1820.63,803.154 1821,798.759 1821.39,794.364 1821.81,789.97 
  1822.26,785.575 1822.74,781.18 1823.25,776.785 1823.79,772.39 1824.34,768.137 1824.36,767.995 1824.95,763.601 1825.58,759.206 1826.24,754.811 1826.94,750.416 
  1827.67,746.021 1828.44,741.626 1828.74,739.999 1829.23,737.232 1830.06,732.837 1830.93,728.442 1831.84,724.047 1832.79,719.652 1833.13,718.133 1833.77,715.258 
  1834.78,710.863 1835.83,706.468 1836.93,702.073 1837.53,699.793 1838.07,697.678 1839.23,693.283 1840.44,688.889 1841.7,684.494 1841.92,683.738 1842.98,680.099 
  1844.3,675.704 1845.68,671.309 1846.32,669.331 1847.08,666.914 1848.52,662.52 1850.02,658.125 1850.71,656.143 1851.54,653.73 1853.1,649.335 1854.72,644.94 
  1855.11,643.911 1856.36,640.545 1858.04,636.151 1859.5,632.454 1859.77,631.756 1861.53,627.361 1863.34,622.966 1863.9,621.646 1865.17,618.571 1867.05,614.177 
  1868.29,611.371 1868.98,609.782 1870.93,605.387 1872.68,601.546 1872.93,600.992 1874.96,596.597 1877.04,592.202 1877.08,592.12 1879.14,587.808 1881.29,583.413 
  1881.47,583.049 1883.47,579.018 1885.69,574.623 1885.87,574.28 1887.94,570.228 1890.24,565.833 1890.26,565.78 1892.55,561.439 1894.66,557.53 1894.92,557.044 
  1897.3,552.649 1899.05,549.499 1899.73,548.254 1902.19,543.859 1903.45,541.664 1904.69,539.465 1907.21,535.07 1907.84,534.002 1909.77,530.675 1912.24,526.501 
  1912.37,526.28 1914.98,521.885 1916.63,519.167 1917.63,517.49 1920.32,513.096 1921.03,511.96 1923.03,508.701 1925.42,504.879 1925.78,504.306 1928.54,499.911 
  1929.82,497.927 1931.34,495.516 1934.18,491.121 1934.21,491.068 1937.03,486.727 1938.61,484.333 1939.91,482.332 1942.82,477.937 1943,477.675 1945.75,473.542 
  1947.4,471.122 1948.72,469.147 1951.71,464.752 1951.79,464.636 1954.72,460.358 1956.19,458.247 1957.75,455.963 1960.58,451.915 1960.82,451.568 1963.9,447.173 
  1964.98,445.667 1967.01,442.778 1969.37,439.476 1970.14,438.384 1973.3,433.989 1973.77,433.347 1976.47,429.594 1978.16,427.284 1979.67,425.199 1982.56,421.265 
  1982.89,420.804 1986.13,416.409 1986.95,415.31 1989.38,412.015 1991.35,409.403 1992.66,407.62 1995.74,403.535 1995.97,403.225 1999.29,398.83 2000.13,397.723 
  2002.62,394.435 2004.53,391.953 2005.98,390.04 2008.92,386.216 2009.36,385.646 2012.75,381.251 2013.32,380.525 2016.16,376.856 2017.71,374.875 2019.58,372.461 
  2022.11,369.255 2023.03,368.066 2026.5,363.672 2026.5,363.665 2029.97,359.277 2030.9,358.121 2033.46,354.882 2035.29,352.603 2036.97,350.487 2039.69,347.112 
  2040.5,346.092 2044.04,341.697 2044.08,341.647 2047.59,337.303 2048.48,336.222 2051.16,332.908 2052.87,330.819 2054.74,328.513 2057.27,325.439 2058.34,324.118 
  2061.66,320.081 2061.95,319.723 2065.58,315.328 2066.06,314.752 2069.21,310.934 2070.45,309.449 2072.86,306.539 2074.85,304.165 2076.52,302.144 2079.24,298.901 
  2080.2,297.749 2083.64,293.654 2083.89,293.354 2087.58,288.959 2088.03,288.433 2091.29,284.565 2092.43,283.234 2095.01,280.17 2096.82,278.051 2098.74,275.775 
  2101.22,272.883 2102.49,271.38 2105.61,267.732 2106.24,266.985 2110.01,262.596 2110.01,262.591 2113.78,258.196 2114.4,257.484 2117.56,253.801 2118.79,252.387 
  2121.36,249.406 2123.19,247.303 2125.16,245.011 2127.58,242.233 2128.98,240.616 2131.98,237.176 2132.8,236.222 2136.37,232.132 2136.64,231.827 2140.48,227.432 
  2140.77,227.104 2144.33,223.037 2145.16,222.092 2148.18,218.642 2149.56,217.091 2152.05,214.247 2153.95,212.102 2155.93,209.853 2158.35,207.124 2159.81,205.458 
  2162.74,202.157 2163.7,201.063 2167.14,197.2 2167.61,196.668 2171.51,192.273 2171.53,192.253 2175.43,187.878 2175.93,187.323 2179.35,183.484 2180.32,182.403 
  2183.28,179.089 2184.72,177.491 2187.21,174.694 2189.11,172.589 2191.16,170.299 2193.51,167.696 2195.11,165.904 2197.9,162.811 2199.06,161.51 2202.3,157.935 
  2203.03,157.115 2206.69,153.067 2207,152.72 2210.98,148.325 2211.09,148.209 2214.96,143.93 2215.48,143.362 2218.95,139.535 2219.88,138.523 2222.94,135.141 
  2224.27,133.691 2226.94,130.746 2228.67,128.867 2230.95,126.351 2233.06,124.05 2234.96,121.956 2237.46,119.239 2238.98,117.561 2241.85,114.436 2243,113.166 
  2246.24,109.639 2247.03,108.772 2250.64,104.849 2251.07,104.377 2255.03,100.065 2255.11,99.982 2259.15,95.5872 2259.43,95.2903 2263.2,91.1923 2263.82,90.5226 
  2267.25,86.7975 2268.22,85.7609 2271.31,82.4027 2272.61,81.0049 
  "/>
<path clip-path="url(#clip990)" d="
M1860.54 209.375 L2189.62 209.375 L2189.62 105.695 L1860.54 105.695  Z
  " fill="#ffffff" fill-rule="evenodd" fill-opacity="1"/>
<polyline clip-path="url(#clip990)" style="stroke:#000000; stroke-linecap:butt; stroke-linejoin:round; stroke-width:4; stroke-opacity:1; fill:none" points="
  1860.54,209.375 2189.62,209.375 2189.62,105.695 1860.54,105.695 1860.54,209.375 
  "/>
<polyline clip-path="url(#clip990)" style="stroke:#1e90ff; stroke-linecap:butt; stroke-linejoin:round; stroke-width:4; stroke-opacity:1; fill:none" points="
  1888.21,157.535 2054.2,157.535 
  "/>
<path clip-path="url(#clip990)" d="M2095.7 177.223 Q2093.9 181.852 2092.18 183.264 Q2090.47 184.676 2087.6 184.676 L2084.2 184.676 L2084.2 181.112 L2086.7 181.112 Q2088.46 181.112 2089.43 180.278 Q2090.4 179.445 2091.58 176.343 L2092.35 174.399 L2081.86 148.889 L2086.37 148.889 L2094.48 169.167 L2102.58 148.889 L2107.09 148.889 L2095.7 177.223 Z" fill="#000000" fill-rule="evenodd" fill-opacity="1" /><path clip-path="url(#clip990)" d="M2114.38 170.88 L2122.02 170.88 L2122.02 144.515 L2113.71 146.181 L2113.71 141.922 L2121.98 140.255 L2126.65 140.255 L2126.65 170.88 L2134.29 170.88 L2134.29 174.815 L2114.38 174.815 L2114.38 170.88 Z" fill="#000000" fill-rule="evenodd" fill-opacity="1" /></svg>
