<?xml version="1.0" encoding="utf-8"?>
<svg xmlns="http://www.w3.org/2000/svg" xmlns:xlink="http://www.w3.org/1999/xlink" width="672" height="480" viewBox="0 0 2688 1920">
<defs>
  <clipPath id="clip140">
    <rect x="0" y="0" width="2688" height="1920"/>
  </clipPath>
</defs>
<path clip-path="url(#clip140)" d="
M0 1920 L2688 1920 L2688 0 L0 0  Z
  " fill="#ffffff" fill-rule="evenodd" fill-opacity="1"/>
<defs>
  <clipPath id="clip141">
    <rect x="537" y="0" width="1883" height="1883"/>
  </clipPath>
</defs>
<path clip-path="url(#clip140)" d="
M542.018 1800.78 L2295.55 1800.78 L2295.55 47.2441 L542.018 47.2441  Z
  " fill="#ffffff" fill-rule="evenodd" fill-opacity="1"/>
<defs>
  <clipPath id="clip142">
    <rect x="542" y="47" width="1755" height="1755"/>
  </clipPath>
</defs>
<polyline clip-path="url(#clip142)" style="stroke:#000000; stroke-linecap:butt; stroke-linejoin:round; stroke-width:2; stroke-opacity:0.1; fill:none" points="
  542.018,1800.78 542.018,47.2441 
  "/>
<polyline clip-path="url(#clip142)" style="stroke:#000000; stroke-linecap:butt; stroke-linejoin:round; stroke-width:2; stroke-opacity:0.1; fill:none" points="
  980.402,1800.78 980.402,47.2441 
  "/>
<polyline clip-path="url(#clip142)" style="stroke:#000000; stroke-linecap:butt; stroke-linejoin:round; stroke-width:2; stroke-opacity:0.1; fill:none" points="
  1418.79,1800.78 1418.79,47.2441 
  "/>
<polyline clip-path="url(#clip142)" style="stroke:#000000; stroke-linecap:butt; stroke-linejoin:round; stroke-width:2; stroke-opacity:0.1; fill:none" points="
  1857.17,1800.78 1857.17,47.2441 
  "/>
<polyline clip-path="url(#clip142)" style="stroke:#000000; stroke-linecap:butt; stroke-linejoin:round; stroke-width:2; stroke-opacity:0.1; fill:none" points="
  2295.55,1800.78 2295.55,47.2441 
  "/>
<polyline clip-path="url(#clip140)" style="stroke:#000000; stroke-linecap:butt; stroke-linejoin:round; stroke-width:4; stroke-opacity:1; fill:none" points="
  542.018,1800.78 2295.55,1800.78 
  "/>
<polyline clip-path="url(#clip140)" style="stroke:#000000; stroke-linecap:butt; stroke-linejoin:round; stroke-width:4; stroke-opacity:1; fill:none" points="
  542.018,1800.78 542.018,1781.88 
  "/>
<polyline clip-path="url(#clip140)" style="stroke:#000000; stroke-linecap:butt; stroke-linejoin:round; stroke-width:4; stroke-opacity:1; fill:none" points="
  980.402,1800.78 980.402,1781.88 
  "/>
<polyline clip-path="url(#clip140)" style="stroke:#000000; stroke-linecap:butt; stroke-linejoin:round; stroke-width:4; stroke-opacity:1; fill:none" points="
  1418.79,1800.78 1418.79,1781.88 
  "/>
<polyline clip-path="url(#clip140)" style="stroke:#000000; stroke-linecap:butt; stroke-linejoin:round; stroke-width:4; stroke-opacity:1; fill:none" points="
  1857.17,1800.78 1857.17,1781.88 
  "/>
<polyline clip-path="url(#clip140)" style="stroke:#000000; stroke-linecap:butt; stroke-linejoin:round; stroke-width:4; stroke-opacity:1; fill:none" points="
  2295.55,1800.78 2295.55,1781.88 
  "/>
<path clip-path="url(#clip140)" d="M488.546 1848.65 L518.222 1848.65 L518.222 1852.59 L488.546 1852.59 L488.546 1848.65 Z" fill="#000000" fill-rule="evenodd" fill-opacity="1" /><path clip-path="url(#clip140)" d="M528.361 1830.92 L546.717 1830.92 L546.717 1834.86 L532.643 1834.86 L532.643 1843.33 Q533.662 1842.98 534.68 1842.82 Q535.699 1842.64 536.717 1842.64 Q542.504 1842.64 545.884 1845.81 Q549.264 1848.98 549.264 1854.4 Q549.264 1859.97 545.791 1863.08 Q542.319 1866.15 536 1866.15 Q533.824 1866.15 531.555 1865.78 Q529.31 1865.41 526.903 1864.67 L526.903 1859.97 Q528.986 1861.11 531.208 1861.66 Q533.43 1862.22 535.907 1862.22 Q539.912 1862.22 542.25 1860.11 Q544.588 1858.01 544.588 1854.4 Q544.588 1850.78 542.25 1848.68 Q539.912 1846.57 535.907 1846.57 Q534.032 1846.57 532.157 1846.99 Q530.305 1847.4 528.361 1848.28 L528.361 1830.92 Z" fill="#000000" fill-rule="evenodd" fill-opacity="1" /><path clip-path="url(#clip140)" d="M558.477 1859.6 L563.361 1859.6 L563.361 1865.48 L558.477 1865.48 L558.477 1859.6 Z" fill="#000000" fill-rule="evenodd" fill-opacity="1" /><path clip-path="url(#clip140)" d="M583.546 1834 Q579.935 1834 578.106 1837.57 Q576.301 1841.11 576.301 1848.24 Q576.301 1855.34 578.106 1858.91 Q579.935 1862.45 583.546 1862.45 Q587.18 1862.45 588.986 1858.91 Q590.814 1855.34 590.814 1848.24 Q590.814 1841.11 588.986 1837.57 Q587.18 1834 583.546 1834 M583.546 1830.3 Q589.356 1830.3 592.412 1834.9 Q595.49 1839.49 595.49 1848.24 Q595.49 1856.96 592.412 1861.57 Q589.356 1866.15 583.546 1866.15 Q577.736 1866.15 574.657 1861.57 Q571.602 1856.96 571.602 1848.24 Q571.602 1839.49 574.657 1834.9 Q577.736 1830.3 583.546 1830.3 Z" fill="#000000" fill-rule="evenodd" fill-opacity="1" /><path clip-path="url(#clip140)" d="M927.428 1848.65 L957.104 1848.65 L957.104 1852.59 L927.428 1852.59 L927.428 1848.65 Z" fill="#000000" fill-rule="evenodd" fill-opacity="1" /><path clip-path="url(#clip140)" d="M971.224 1861.55 L987.543 1861.55 L987.543 1865.48 L965.599 1865.48 L965.599 1861.55 Q968.261 1858.79 972.844 1854.16 Q977.451 1849.51 978.631 1848.17 Q980.877 1845.65 981.756 1843.91 Q982.659 1842.15 982.659 1840.46 Q982.659 1837.71 980.715 1835.97 Q978.793 1834.23 975.692 1834.23 Q973.492 1834.23 971.039 1835 Q968.608 1835.76 965.83 1837.31 L965.83 1832.59 Q968.655 1831.46 971.108 1830.88 Q973.562 1830.3 975.599 1830.3 Q980.969 1830.3 984.164 1832.98 Q987.358 1835.67 987.358 1840.16 Q987.358 1842.29 986.548 1844.21 Q985.761 1846.11 983.654 1848.7 Q983.076 1849.37 979.974 1852.59 Q976.872 1855.78 971.224 1861.55 Z" fill="#000000" fill-rule="evenodd" fill-opacity="1" /><path clip-path="url(#clip140)" d="M997.358 1859.6 L1002.24 1859.6 L1002.24 1865.48 L997.358 1865.48 L997.358 1859.6 Z" fill="#000000" fill-rule="evenodd" fill-opacity="1" /><path clip-path="url(#clip140)" d="M1012.47 1830.92 L1030.83 1830.92 L1030.83 1834.86 L1016.76 1834.86 L1016.76 1843.33 Q1017.77 1842.98 1018.79 1842.82 Q1019.81 1842.64 1020.83 1842.64 Q1026.62 1842.64 1030 1845.81 Q1033.38 1848.98 1033.38 1854.4 Q1033.38 1859.97 1029.9 1863.08 Q1026.43 1866.15 1020.11 1866.15 Q1017.94 1866.15 1015.67 1865.78 Q1013.42 1865.41 1011.02 1864.67 L1011.02 1859.97 Q1013.1 1861.11 1015.32 1861.66 Q1017.54 1862.22 1020.02 1862.22 Q1024.02 1862.22 1026.36 1860.11 Q1028.7 1858.01 1028.7 1854.4 Q1028.7 1850.78 1026.36 1848.68 Q1024.02 1846.57 1020.02 1846.57 Q1018.15 1846.57 1016.27 1846.99 Q1014.42 1847.4 1012.47 1848.28 L1012.47 1830.92 Z" fill="#000000" fill-rule="evenodd" fill-opacity="1" /><path clip-path="url(#clip140)" d="M1396.17 1834 Q1392.56 1834 1390.73 1837.57 Q1388.93 1841.11 1388.93 1848.24 Q1388.93 1855.34 1390.73 1858.91 Q1392.56 1862.45 1396.17 1862.45 Q1399.8 1862.45 1401.61 1858.91 Q1403.44 1855.34 1403.44 1848.24 Q1403.44 1841.11 1401.61 1837.57 Q1399.8 1834 1396.17 1834 M1396.17 1830.3 Q1401.98 1830.3 1405.04 1834.9 Q1408.11 1839.49 1408.11 1848.24 Q1408.11 1856.96 1405.04 1861.57 Q1401.98 1866.15 1396.17 1866.15 Q1390.36 1866.15 1387.28 1861.57 Q1384.23 1856.96 1384.23 1848.24 Q1384.23 1839.49 1387.28 1834.9 Q1390.36 1830.3 1396.17 1830.3 Z" fill="#000000" fill-rule="evenodd" fill-opacity="1" /><path clip-path="url(#clip140)" d="M1416.33 1859.6 L1421.22 1859.6 L1421.22 1865.48 L1416.33 1865.48 L1416.33 1859.6 Z" fill="#000000" fill-rule="evenodd" fill-opacity="1" /><path clip-path="url(#clip140)" d="M1441.4 1834 Q1437.79 1834 1435.96 1837.57 Q1434.16 1841.11 1434.16 1848.24 Q1434.16 1855.34 1435.96 1858.91 Q1437.79 1862.45 1441.4 1862.45 Q1445.04 1862.45 1446.84 1858.91 Q1448.67 1855.34 1448.67 1848.24 Q1448.67 1841.11 1446.84 1837.57 Q1445.04 1834 1441.4 1834 M1441.4 1830.3 Q1447.21 1830.3 1450.27 1834.9 Q1453.35 1839.49 1453.35 1848.24 Q1453.35 1856.96 1450.27 1861.57 Q1447.21 1866.15 1441.4 1866.15 Q1435.59 1866.15 1432.51 1861.57 Q1429.46 1856.96 1429.46 1848.24 Q1429.46 1839.49 1432.51 1834.9 Q1435.59 1830.3 1441.4 1830.3 Z" fill="#000000" fill-rule="evenodd" fill-opacity="1" /><path clip-path="url(#clip140)" d="M1828.91 1861.55 L1845.23 1861.55 L1845.23 1865.48 L1823.28 1865.48 L1823.28 1861.55 Q1825.94 1858.79 1830.53 1854.16 Q1835.13 1849.51 1836.31 1848.17 Q1838.56 1845.65 1839.44 1843.91 Q1840.34 1842.15 1840.34 1840.46 Q1840.34 1837.71 1838.4 1835.97 Q1836.48 1834.23 1833.37 1834.23 Q1831.17 1834.23 1828.72 1835 Q1826.29 1835.76 1823.51 1837.31 L1823.51 1832.59 Q1826.34 1831.46 1828.79 1830.88 Q1831.24 1830.3 1833.28 1830.3 Q1838.65 1830.3 1841.85 1832.98 Q1845.04 1835.67 1845.04 1840.16 Q1845.04 1842.29 1844.23 1844.21 Q1843.44 1846.11 1841.34 1848.7 Q1840.76 1849.37 1837.66 1852.59 Q1834.55 1855.78 1828.91 1861.55 Z" fill="#000000" fill-rule="evenodd" fill-opacity="1" /><path clip-path="url(#clip140)" d="M1855.04 1859.6 L1859.92 1859.6 L1859.92 1865.48 L1855.04 1865.48 L1855.04 1859.6 Z" fill="#000000" fill-rule="evenodd" fill-opacity="1" /><path clip-path="url(#clip140)" d="M1870.16 1830.92 L1888.51 1830.92 L1888.51 1834.86 L1874.44 1834.86 L1874.44 1843.33 Q1875.46 1842.98 1876.48 1842.82 Q1877.49 1842.64 1878.51 1842.64 Q1884.3 1842.64 1887.68 1845.81 Q1891.06 1848.98 1891.06 1854.4 Q1891.06 1859.97 1887.59 1863.08 Q1884.11 1866.15 1877.79 1866.15 Q1875.62 1866.15 1873.35 1865.78 Q1871.1 1865.41 1868.7 1864.67 L1868.7 1859.97 Q1870.78 1861.11 1873 1861.66 Q1875.23 1862.22 1877.7 1862.22 Q1881.71 1862.22 1884.04 1860.11 Q1886.38 1858.01 1886.38 1854.4 Q1886.38 1850.78 1884.04 1848.68 Q1881.71 1846.57 1877.7 1846.57 Q1875.83 1846.57 1873.95 1846.99 Q1872.1 1847.4 1870.16 1848.28 L1870.16 1830.92 Z" fill="#000000" fill-rule="evenodd" fill-opacity="1" /><path clip-path="url(#clip140)" d="M2262.72 1830.92 L2281.07 1830.92 L2281.07 1834.86 L2267 1834.86 L2267 1843.33 Q2268.02 1842.98 2269.04 1842.82 Q2270.06 1842.64 2271.07 1842.64 Q2276.86 1842.64 2280.24 1845.81 Q2283.62 1848.98 2283.62 1854.4 Q2283.62 1859.97 2280.15 1863.08 Q2276.68 1866.15 2270.36 1866.15 Q2268.18 1866.15 2265.91 1865.78 Q2263.67 1865.41 2261.26 1864.67 L2261.26 1859.97 Q2263.34 1861.11 2265.57 1861.66 Q2267.79 1862.22 2270.26 1862.22 Q2274.27 1862.22 2276.61 1860.11 Q2278.94 1858.01 2278.94 1854.4 Q2278.94 1850.78 2276.61 1848.68 Q2274.27 1846.57 2270.26 1846.57 Q2268.39 1846.57 2266.51 1846.99 Q2264.66 1847.4 2262.72 1848.28 L2262.72 1830.92 Z" fill="#000000" fill-rule="evenodd" fill-opacity="1" /><path clip-path="url(#clip140)" d="M2292.83 1859.6 L2297.72 1859.6 L2297.72 1865.48 L2292.83 1865.48 L2292.83 1859.6 Z" fill="#000000" fill-rule="evenodd" fill-opacity="1" /><path clip-path="url(#clip140)" d="M2317.9 1834 Q2314.29 1834 2312.46 1837.57 Q2310.66 1841.11 2310.66 1848.24 Q2310.66 1855.34 2312.46 1858.91 Q2314.29 1862.45 2317.9 1862.45 Q2321.54 1862.45 2323.34 1858.91 Q2325.17 1855.34 2325.17 1848.24 Q2325.17 1841.11 2323.34 1837.57 Q2321.54 1834 2317.9 1834 M2317.9 1830.3 Q2323.71 1830.3 2326.77 1834.9 Q2329.85 1839.49 2329.85 1848.24 Q2329.85 1856.96 2326.77 1861.57 Q2323.71 1866.15 2317.9 1866.15 Q2312.09 1866.15 2309.01 1861.57 Q2305.96 1856.96 2305.96 1848.24 Q2305.96 1839.49 2309.01 1834.9 Q2312.09 1830.3 2317.9 1830.3 Z" fill="#000000" fill-rule="evenodd" fill-opacity="1" /><polyline clip-path="url(#clip142)" style="stroke:#000000; stroke-linecap:butt; stroke-linejoin:round; stroke-width:2; stroke-opacity:0.1; fill:none" points="
  542.018,1800.78 2295.55,1800.78 
  "/>
<polyline clip-path="url(#clip142)" style="stroke:#000000; stroke-linecap:butt; stroke-linejoin:round; stroke-width:2; stroke-opacity:0.1; fill:none" points="
  542.018,1362.4 2295.55,1362.4 
  "/>
<polyline clip-path="url(#clip142)" style="stroke:#000000; stroke-linecap:butt; stroke-linejoin:round; stroke-width:2; stroke-opacity:0.1; fill:none" points="
  542.018,924.012 2295.55,924.012 
  "/>
<polyline clip-path="url(#clip142)" style="stroke:#000000; stroke-linecap:butt; stroke-linejoin:round; stroke-width:2; stroke-opacity:0.1; fill:none" points="
  542.018,485.628 2295.55,485.628 
  "/>
<polyline clip-path="url(#clip142)" style="stroke:#000000; stroke-linecap:butt; stroke-linejoin:round; stroke-width:2; stroke-opacity:0.1; fill:none" points="
  542.018,47.2441 2295.55,47.2441 
  "/>
<polyline clip-path="url(#clip140)" style="stroke:#000000; stroke-linecap:butt; stroke-linejoin:round; stroke-width:4; stroke-opacity:1; fill:none" points="
  542.018,1800.78 542.018,47.2441 
  "/>
<polyline clip-path="url(#clip140)" style="stroke:#000000; stroke-linecap:butt; stroke-linejoin:round; stroke-width:4; stroke-opacity:1; fill:none" points="
  542.018,1800.78 555.577,1800.78 
  "/>
<polyline clip-path="url(#clip140)" style="stroke:#000000; stroke-linecap:butt; stroke-linejoin:round; stroke-width:4; stroke-opacity:1; fill:none" points="
  542.018,1362.4 555.577,1362.4 
  "/>
<polyline clip-path="url(#clip140)" style="stroke:#000000; stroke-linecap:butt; stroke-linejoin:round; stroke-width:4; stroke-opacity:1; fill:none" points="
  542.018,924.012 555.577,924.012 
  "/>
<polyline clip-path="url(#clip140)" style="stroke:#000000; stroke-linecap:butt; stroke-linejoin:round; stroke-width:4; stroke-opacity:1; fill:none" points="
  542.018,485.628 555.577,485.628 
  "/>
<polyline clip-path="url(#clip140)" style="stroke:#000000; stroke-linecap:butt; stroke-linejoin:round; stroke-width:4; stroke-opacity:1; fill:none" points="
  542.018,47.2441 555.577,47.2441 
  "/>
<path clip-path="url(#clip140)" d="M394.754 1801.23 L424.43 1801.23 L424.43 1805.17 L394.754 1805.17 L394.754 1801.23 Z" fill="#000000" fill-rule="evenodd" fill-opacity="1" /><path clip-path="url(#clip140)" d="M434.569 1783.5 L452.925 1783.5 L452.925 1787.43 L438.851 1787.43 L438.851 1795.91 Q439.87 1795.56 440.888 1795.4 Q441.907 1795.21 442.926 1795.21 Q448.713 1795.21 452.092 1798.38 Q455.472 1801.55 455.472 1806.97 Q455.472 1812.55 452 1815.65 Q448.527 1818.73 442.208 1818.73 Q440.032 1818.73 437.764 1818.36 Q435.518 1817.99 433.111 1817.25 L433.111 1812.55 Q435.194 1813.68 437.416 1814.24 Q439.638 1814.8 442.115 1814.8 Q446.12 1814.8 448.458 1812.69 Q450.796 1810.58 450.796 1806.97 Q450.796 1803.36 448.458 1801.25 Q446.12 1799.15 442.115 1799.15 Q440.24 1799.15 438.365 1799.56 Q436.514 1799.98 434.569 1800.86 L434.569 1783.5 Z" fill="#000000" fill-rule="evenodd" fill-opacity="1" /><path clip-path="url(#clip140)" d="M464.685 1812.18 L469.569 1812.18 L469.569 1818.06 L464.685 1818.06 L464.685 1812.18 Z" fill="#000000" fill-rule="evenodd" fill-opacity="1" /><path clip-path="url(#clip140)" d="M489.754 1786.58 Q486.143 1786.58 484.314 1790.14 Q482.509 1793.68 482.509 1800.81 Q482.509 1807.92 484.314 1811.49 Q486.143 1815.03 489.754 1815.03 Q493.388 1815.03 495.194 1811.49 Q497.022 1807.92 497.022 1800.81 Q497.022 1793.68 495.194 1790.14 Q493.388 1786.58 489.754 1786.58 M489.754 1782.87 Q495.564 1782.87 498.62 1787.48 Q501.698 1792.06 501.698 1800.81 Q501.698 1809.54 498.62 1814.15 Q495.564 1818.73 489.754 1818.73 Q483.944 1818.73 480.865 1814.15 Q477.81 1809.54 477.81 1800.81 Q477.81 1792.06 480.865 1787.48 Q483.944 1782.87 489.754 1782.87 Z" fill="#000000" fill-rule="evenodd" fill-opacity="1" /><path clip-path="url(#clip140)" d="M395.75 1362.85 L425.426 1362.85 L425.426 1366.78 L395.75 1366.78 L395.75 1362.85 Z" fill="#000000" fill-rule="evenodd" fill-opacity="1" /><path clip-path="url(#clip140)" d="M439.546 1375.74 L455.865 1375.74 L455.865 1379.68 L433.921 1379.68 L433.921 1375.74 Q436.583 1372.99 441.166 1368.36 Q445.773 1363.7 446.953 1362.36 Q449.199 1359.84 450.078 1358.1 Q450.981 1356.34 450.981 1354.65 Q450.981 1351.9 449.037 1350.16 Q447.115 1348.43 444.013 1348.43 Q441.814 1348.43 439.361 1349.19 Q436.93 1349.95 434.152 1351.5 L434.152 1346.78 Q436.976 1345.65 439.43 1345.07 Q441.884 1344.49 443.921 1344.49 Q449.291 1344.49 452.486 1347.18 Q455.68 1349.86 455.68 1354.35 Q455.68 1356.48 454.87 1358.4 Q454.083 1360.3 451.976 1362.89 Q451.398 1363.56 448.296 1366.78 Q445.194 1369.98 439.546 1375.74 Z" fill="#000000" fill-rule="evenodd" fill-opacity="1" /><path clip-path="url(#clip140)" d="M465.68 1373.8 L470.564 1373.8 L470.564 1379.68 L465.68 1379.68 L465.68 1373.8 Z" fill="#000000" fill-rule="evenodd" fill-opacity="1" /><path clip-path="url(#clip140)" d="M480.796 1345.12 L499.152 1345.12 L499.152 1349.05 L485.078 1349.05 L485.078 1357.52 Q486.097 1357.18 487.115 1357.01 Q488.134 1356.83 489.152 1356.83 Q494.939 1356.83 498.319 1360 Q501.698 1363.17 501.698 1368.59 Q501.698 1374.17 498.226 1377.27 Q494.754 1380.35 488.435 1380.35 Q486.259 1380.35 483.99 1379.98 Q481.745 1379.61 479.337 1378.87 L479.337 1374.17 Q481.421 1375.3 483.643 1375.86 Q485.865 1376.41 488.342 1376.41 Q492.347 1376.41 494.684 1374.31 Q497.022 1372.2 497.022 1368.59 Q497.022 1364.98 494.684 1362.87 Q492.347 1360.76 488.342 1360.76 Q486.467 1360.76 484.592 1361.18 Q482.74 1361.6 480.796 1362.48 L480.796 1345.12 Z" fill="#000000" fill-rule="evenodd" fill-opacity="1" /><path clip-path="url(#clip140)" d="M444.523 909.81 Q440.912 909.81 439.083 913.375 Q437.277 916.917 437.277 924.046 Q437.277 931.153 439.083 934.718 Q440.912 938.259 444.523 938.259 Q448.157 938.259 449.963 934.718 Q451.791 931.153 451.791 924.046 Q451.791 916.917 449.963 913.375 Q448.157 909.81 444.523 909.81 M444.523 906.107 Q450.333 906.107 453.388 910.713 Q456.467 915.296 456.467 924.046 Q456.467 932.773 453.388 937.38 Q450.333 941.963 444.523 941.963 Q438.713 941.963 435.634 937.38 Q432.578 932.773 432.578 924.046 Q432.578 915.296 435.634 910.713 Q438.713 906.107 444.523 906.107 Z" fill="#000000" fill-rule="evenodd" fill-opacity="1" /><path clip-path="url(#clip140)" d="M464.685 935.412 L469.569 935.412 L469.569 941.292 L464.685 941.292 L464.685 935.412 Z" fill="#000000" fill-rule="evenodd" fill-opacity="1" /><path clip-path="url(#clip140)" d="M489.754 909.81 Q486.143 909.81 484.314 913.375 Q482.509 916.917 482.509 924.046 Q482.509 931.153 484.314 934.718 Q486.143 938.259 489.754 938.259 Q493.388 938.259 495.194 934.718 Q497.022 931.153 497.022 924.046 Q497.022 916.917 495.194 913.375 Q493.388 909.81 489.754 909.81 M489.754 906.107 Q495.564 906.107 498.62 910.713 Q501.698 915.296 501.698 924.046 Q501.698 932.773 498.62 937.38 Q495.564 941.963 489.754 941.963 Q483.944 941.963 480.865 937.38 Q477.81 932.773 477.81 924.046 Q477.81 915.296 480.865 910.713 Q483.944 906.107 489.754 906.107 Z" fill="#000000" fill-rule="evenodd" fill-opacity="1" /><path clip-path="url(#clip140)" d="M439.546 498.973 L455.865 498.973 L455.865 502.908 L433.921 502.908 L433.921 498.973 Q436.583 496.218 441.166 491.589 Q445.773 486.936 446.953 485.593 Q449.199 483.07 450.078 481.334 Q450.981 479.575 450.981 477.885 Q450.981 475.13 449.037 473.394 Q447.115 471.658 444.013 471.658 Q441.814 471.658 439.361 472.422 Q436.93 473.186 434.152 474.737 L434.152 470.015 Q436.976 468.88 439.43 468.302 Q441.884 467.723 443.921 467.723 Q449.291 467.723 452.486 470.408 Q455.68 473.093 455.68 477.584 Q455.68 479.714 454.87 481.635 Q454.083 483.533 451.976 486.126 Q451.398 486.797 448.296 490.014 Q445.194 493.209 439.546 498.973 Z" fill="#000000" fill-rule="evenodd" fill-opacity="1" /><path clip-path="url(#clip140)" d="M465.68 497.028 L470.564 497.028 L470.564 502.908 L465.68 502.908 L465.68 497.028 Z" fill="#000000" fill-rule="evenodd" fill-opacity="1" /><path clip-path="url(#clip140)" d="M480.796 468.348 L499.152 468.348 L499.152 472.283 L485.078 472.283 L485.078 480.755 Q486.097 480.408 487.115 480.246 Q488.134 480.061 489.152 480.061 Q494.939 480.061 498.319 483.232 Q501.698 486.403 501.698 491.82 Q501.698 497.399 498.226 500.501 Q494.754 503.579 488.435 503.579 Q486.259 503.579 483.99 503.209 Q481.745 502.838 479.337 502.098 L479.337 497.399 Q481.421 498.533 483.643 499.088 Q485.865 499.644 488.342 499.644 Q492.347 499.644 494.684 497.538 Q497.022 495.431 497.022 491.82 Q497.022 488.209 494.684 486.102 Q492.347 483.996 488.342 483.996 Q486.467 483.996 484.592 484.413 Q482.74 484.829 480.796 485.709 L480.796 468.348 Z" fill="#000000" fill-rule="evenodd" fill-opacity="1" /><path clip-path="url(#clip140)" d="M434.569 29.9641 L452.925 29.9641 L452.925 33.8993 L438.851 33.8993 L438.851 42.3714 Q439.87 42.0242 440.888 41.8622 Q441.907 41.677 442.926 41.677 Q448.713 41.677 452.092 44.8483 Q455.472 48.0196 455.472 53.4362 Q455.472 59.0149 452 62.1167 Q448.527 65.1954 442.208 65.1954 Q440.032 65.1954 437.764 64.825 Q435.518 64.4547 433.111 63.7139 L433.111 59.0149 Q435.194 60.1491 437.416 60.7047 Q439.638 61.2602 442.115 61.2602 Q446.12 61.2602 448.458 59.1538 Q450.796 57.0473 450.796 53.4362 Q450.796 49.8251 448.458 47.7186 Q446.12 45.6122 442.115 45.6122 Q440.24 45.6122 438.365 46.0288 Q436.514 46.4455 434.569 47.3251 L434.569 29.9641 Z" fill="#000000" fill-rule="evenodd" fill-opacity="1" /><path clip-path="url(#clip140)" d="M464.685 58.6445 L469.569 58.6445 L469.569 64.5241 L464.685 64.5241 L464.685 58.6445 Z" fill="#000000" fill-rule="evenodd" fill-opacity="1" /><path clip-path="url(#clip140)" d="M489.754 33.0428 Q486.143 33.0428 484.314 36.6076 Q482.509 40.1492 482.509 47.2788 Q482.509 54.3853 484.314 57.9501 Q486.143 61.4917 489.754 61.4917 Q493.388 61.4917 495.194 57.9501 Q497.022 54.3853 497.022 47.2788 Q497.022 40.1492 495.194 36.6076 Q493.388 33.0428 489.754 33.0428 M489.754 29.3391 Q495.564 29.3391 498.62 33.9456 Q501.698 38.5289 501.698 47.2788 Q501.698 56.0056 498.62 60.6121 Q495.564 65.1954 489.754 65.1954 Q483.944 65.1954 480.865 60.6121 Q477.81 56.0056 477.81 47.2788 Q477.81 38.5289 480.865 33.9456 Q483.944 29.3391 489.754 29.3391 Z" fill="#000000" fill-rule="evenodd" fill-opacity="1" /><polyline clip-path="url(#clip142)" style="stroke:#1e90ff; stroke-linecap:butt; stroke-linejoin:round; stroke-width:4; stroke-opacity:1; fill:none" points="
  1362.31,965.763 1359.46,963.098 1357.68,961.368 1355.06,958.664 1353.48,956.973 1350.67,953.771 1349.65,952.578 1346.27,948.362 1346.13,948.183 1342.9,943.788 
  1341.88,942.296 1339.92,939.394 1337.48,935.524 1337.16,934.999 1334.6,930.604 1333.09,927.806 1332.23,926.209 1330.03,921.814 1328.69,918.93 1327.99,917.419 
  1326.1,913.025 1324.35,908.63 1324.3,908.482 1322.73,904.235 1321.24,899.84 1319.9,895.588 1319.86,895.445 1318.59,891.051 1317.43,886.656 1316.37,882.261 
  1315.51,878.309 1315.41,877.866 1314.55,873.471 1313.77,869.076 1313.08,864.682 1312.48,860.287 1311.95,855.892 1311.51,851.497 1311.14,847.102 1311.11,846.626 
  1310.86,842.707 1310.64,838.313 1310.5,833.918 1310.43,829.523 1310.42,825.128 1310.49,820.733 1310.62,816.338 1310.81,811.944 1311.07,807.549 1311.11,806.968 
  1311.4,803.154 1311.79,798.759 1312.24,794.364 1312.75,789.97 1313.32,785.575 1313.96,781.18 1314.65,776.785 1315.39,772.39 1315.51,771.766 1316.21,767.995 
  1317.08,763.601 1318.01,759.206 1319,754.811 1319.9,750.981 1320.04,750.416 1321.15,746.021 1322.31,741.626 1323.53,737.232 1324.3,734.581 1324.81,732.837 
  1326.15,728.442 1327.55,724.047 1328.69,720.579 1329,719.652 1330.53,715.258 1332.1,710.863 1333.09,708.194 1333.74,706.468 1335.44,702.073 1337.19,697.678 
  1337.48,696.972 1339.02,693.283 1340.9,688.889 1341.88,686.678 1342.85,684.494 1344.87,680.099 1346.27,677.117 1346.95,675.704 1349.1,671.309 1350.67,668.176 
  1351.31,666.914 1353.59,662.52 1355.06,659.768 1355.95,658.125 1358.38,653.73 1359.46,651.821 1360.88,649.335 1363.45,644.94 1363.85,644.276 1366.11,640.545 
  1368.25,637.107 1368.85,636.151 1371.67,631.756 1372.64,630.27 1374.57,627.361 1377.04,623.729 1377.56,622.966 1380.64,618.571 1381.43,617.474 1383.82,614.177 
  1385.82,611.478 1387.1,609.782 1390.22,605.713 1390.47,605.387 1393.96,600.992 1394.61,600.187 1397.56,596.597 1399.01,594.875 1401.28,592.202 1403.4,589.761 
  1405.12,587.808 1407.8,584.837 1409.1,583.413 1412.19,580.097 1413.21,579.018 1416.59,575.532 1417.48,574.623 1420.98,571.137 1421.91,570.228 1425.38,566.905 
  1426.51,565.833 1429.77,562.831 1431.31,561.439 1434.17,558.908 1436.31,557.044 1438.56,555.131 1441.54,552.649 1442.96,551.494 1447.01,548.254 1447.35,547.992 
  1451.75,544.639 1452.79,543.859 1456.14,541.42 1458.89,539.465 1460.54,538.323 1464.93,535.352 1465.36,535.07 1469.33,532.523 1472.29,530.675 1473.72,529.805 
  1478.12,527.216 1479.75,526.28 1482.51,524.751 1486.91,522.398 1487.9,521.885 1491.3,520.177 1495.7,518.064 1496.94,517.49 1500.09,516.079 1504.49,514.208 
  1507.24,513.096 1508.88,512.453 1513.27,510.824 1517.67,509.303 1519.54,508.701 1522.06,507.907 1526.46,506.633 1530.85,505.474 1535.25,504.433 1535.85,504.306 
  1539.64,503.522 1544.04,502.733 1548.43,502.068 1552.83,501.528 1557.22,501.118 1561.62,500.839 1566.01,500.694 1570.41,500.686 1574.8,500.818 1579.2,501.093 
  1583.59,501.517 1587.99,502.092 1592.38,502.825 1596.78,503.721 1599.2,504.306 1601.17,504.786 1605.57,506.028 1609.96,507.453 1613.36,508.701 1614.36,509.071 
  1618.75,510.895 1623.15,512.929 1623.48,513.096 1627.54,515.198 1631.58,517.49 1631.93,517.701 1636.33,520.476 1638.4,521.885 1640.72,523.528 1644.36,526.28 
  1645.12,526.88 1649.51,530.566 1649.64,530.675 1653.91,534.632 1654.36,535.07 1658.3,539.107 1658.64,539.465 1662.54,543.859 1662.7,544.048 1666.11,548.254 
  1667.09,549.548 1669.4,552.649 1671.49,555.662 1672.43,557.044 1675.23,561.439 1675.88,562.528 1677.83,565.833 1680.24,570.228 1680.28,570.309 1682.47,574.623 
  1684.54,579.018 1684.67,579.327 1686.45,583.413 1688.23,587.808 1689.07,590.034 1689.88,592.202 1691.4,596.597 1692.8,600.992 1693.46,603.25 1694.09,605.387 
  1695.27,609.782 1696.35,614.177 1697.33,618.571 1697.86,621.191 1698.21,622.966 1699.01,627.361 1699.71,631.756 1700.33,636.151 1700.87,640.545 1701.33,644.94 
  1701.71,649.335 1702.02,653.73 1702.25,658.125 1702.25,658.205 1702.41,662.52 1702.49,666.914 1702.51,671.309 1702.46,675.704 1702.34,680.099 1702.25,682.308 
  1702.16,684.494 1701.91,688.889 1701.6,693.283 1701.22,697.678 1700.78,702.073 1700.28,706.468 1699.72,710.863 1699.1,715.258 1698.42,719.652 1697.86,723.044 
  1697.69,724.047 1696.88,728.442 1696.02,732.837 1695.1,737.232 1694.13,741.626 1693.46,744.494 1693.1,746.021 1692,750.416 1690.85,754.811 1689.64,759.206 
  1689.07,761.221 1688.38,763.601 1687.04,767.995 1685.66,772.39 1684.67,775.415 1684.22,776.785 1682.71,781.18 1681.15,785.575 1680.28,787.941 1679.52,789.97 
  1677.83,794.364 1676.09,798.759 1675.88,799.269 1674.27,803.154 1672.4,807.549 1671.49,809.644 1670.47,811.944 1668.47,816.338 1667.09,819.273 1666.4,820.733 
  1664.26,825.128 1662.7,828.272 1662.07,829.523 1659.79,833.918 1658.3,836.73 1657.45,838.313 1655.04,842.707 1653.91,844.72 1652.55,847.102 1649.99,851.497 
  1649.51,852.302 1647.35,855.892 1645.12,859.509 1644.63,860.287 1641.83,864.682 1640.72,866.376 1638.94,869.076 1636.33,872.949 1635.97,873.471 1632.91,877.866 
  1631.93,879.227 1629.75,882.261 1627.54,885.25 1626.49,886.656 1623.15,891.042 1623.14,891.051 1619.67,895.445 1618.75,896.584 1616.09,899.84 1614.36,901.918 
  1612.4,904.235 1609.96,907.053 1608.58,908.63 1605.57,911.997 1604.64,913.025 1601.17,916.757 1600.55,917.419 1596.78,921.34 1596.31,921.814 1592.38,925.751 
  1591.92,926.209 1587.99,929.999 1587.35,930.604 1583.59,934.088 1582.6,934.999 1579.2,938.024 1577.64,939.394 1574.8,941.814 1572.45,943.788 1570.41,945.463 
  1567.03,948.183 1566.01,948.976 1561.62,952.353 1561.32,952.578 1557.22,955.582 1555.29,956.973 1552.83,958.687 1548.9,961.368 1548.43,961.674 1544.04,964.517 
  1542.06,965.763 1539.64,967.242 1535.25,969.852 1534.72,970.157 1530.85,972.323 1526.73,974.552 1526.46,974.693 1522.06,976.921 1517.89,978.947 1517.67,979.051 
  1513.27,981.042 1508.88,982.931 1507.88,983.342 1504.49,984.69 1500.09,986.336 1496.09,987.737 1495.7,987.87 1491.3,989.272 1486.91,990.562 1482.51,991.736 
  1480.88,992.131 1478.12,992.783 1473.72,993.707 1469.33,994.509 1464.93,995.188 1460.54,995.741 1456.14,996.165 1451.75,996.458 1449.85,996.526 1447.35,996.616 
  1442.96,996.637 1438.83,996.526 1438.56,996.519 1434.17,996.258 1429.77,995.849 1425.38,995.289 1420.98,994.572 1416.59,993.692 1412.19,992.645 1410.34,992.131 
  1407.8,991.421 1403.4,990.014 1399.01,988.416 1397.33,987.737 1394.61,986.614 1390.22,984.599 1387.73,983.342 1385.82,982.357 1381.43,979.874 1379.91,978.947 
  1377.04,977.129 1373.26,974.552 1372.64,974.113 1368.25,970.787 1367.46,970.157 1363.85,967.124 1362.31,965.763 
  "/>
<path clip-path="url(#clip140)" d="
M1890.11 209.375 L2214.09 209.375 L2214.09 105.695 L1890.11 105.695  Z
  " fill="#ffffff" fill-rule="evenodd" fill-opacity="1"/>
<polyline clip-path="url(#clip140)" style="stroke:#000000; stroke-linecap:butt; stroke-linejoin:round; stroke-width:4; stroke-opacity:1; fill:none" points="
  1890.11,209.375 2214.09,209.375 2214.09,105.695 1890.11,105.695 1890.11,209.375 
  "/>
<polyline clip-path="url(#clip140)" style="stroke:#1e90ff; stroke-linecap:butt; stroke-linejoin:round; stroke-width:4; stroke-opacity:1; fill:none" points="
  1917.26,157.535 2080.19,157.535 
  "/>
<path clip-path="url(#clip140)" d="M2121.19 177.223 Q2119.39 181.852 2117.67 183.264 Q2115.96 184.676 2113.09 184.676 L2109.69 184.676 L2109.69 181.112 L2112.19 181.112 Q2113.95 181.112 2114.92 180.278 Q2115.89 179.445 2117.07 176.343 L2117.83 174.399 L2107.35 148.889 L2111.86 148.889 L2119.96 169.167 L2128.07 148.889 L2132.58 148.889 L2121.19 177.223 Z" fill="#000000" fill-rule="evenodd" fill-opacity="1" /><path clip-path="url(#clip140)" d="M2139.87 170.88 L2147.51 170.88 L2147.51 144.515 L2139.2 146.181 L2139.2 141.922 L2147.46 140.255 L2152.14 140.255 L2152.14 170.88 L2159.78 170.88 L2159.78 174.815 L2139.87 174.815 L2139.87 170.88 Z" fill="#000000" fill-rule="evenodd" fill-opacity="1" /></svg>
