<?xml version="1.0" encoding="utf-8"?>
<svg xmlns="http://www.w3.org/2000/svg" xmlns:xlink="http://www.w3.org/1999/xlink" width="672" height="480" viewBox="0 0 2688 1920">
<defs>
  <clipPath id="clip910">
    <rect x="0" y="0" width="2688" height="1920"/>
  </clipPath>
</defs>
<path clip-path="url(#clip910)" d="
M0 1920 L2688 1920 L2688 0 L0 0  Z
  " fill="#ffffff" fill-rule="evenodd" fill-opacity="1"/>
<defs>
  <clipPath id="clip911">
    <rect x="537" y="0" width="1883" height="1883"/>
  </clipPath>
</defs>
<path clip-path="url(#clip910)" d="
M196.816 1800.78 L2640.76 1800.78 L2640.76 47.2441 L196.816 47.2441  Z
  " fill="#ffffff" fill-rule="evenodd" fill-opacity="1"/>
<defs>
  <clipPath id="clip912">
    <rect x="196" y="47" width="2445" height="1755"/>
  </clipPath>
</defs>
<polyline clip-path="url(#clip912)" style="stroke:#000000; stroke-linecap:butt; stroke-linejoin:round; stroke-width:2; stroke-opacity:0.1; fill:none" points="
  496.544,1800.78 496.544,47.2441 
  "/>
<polyline clip-path="url(#clip912)" style="stroke:#000000; stroke-linecap:butt; stroke-linejoin:round; stroke-width:2; stroke-opacity:0.1; fill:none" points="
  957.665,1800.78 957.665,47.2441 
  "/>
<polyline clip-path="url(#clip912)" style="stroke:#000000; stroke-linecap:butt; stroke-linejoin:round; stroke-width:2; stroke-opacity:0.1; fill:none" points="
  1418.79,1800.78 1418.79,47.2441 
  "/>
<polyline clip-path="url(#clip912)" style="stroke:#000000; stroke-linecap:butt; stroke-linejoin:round; stroke-width:2; stroke-opacity:0.1; fill:none" points="
  1879.91,1800.78 1879.91,47.2441 
  "/>
<polyline clip-path="url(#clip912)" style="stroke:#000000; stroke-linecap:butt; stroke-linejoin:round; stroke-width:2; stroke-opacity:0.1; fill:none" points="
  2341.03,1800.78 2341.03,47.2441 
  "/>
<polyline clip-path="url(#clip910)" style="stroke:#000000; stroke-linecap:butt; stroke-linejoin:round; stroke-width:4; stroke-opacity:1; fill:none" points="
  196.816,1800.78 2640.76,1800.78 
  "/>
<polyline clip-path="url(#clip910)" style="stroke:#000000; stroke-linecap:butt; stroke-linejoin:round; stroke-width:4; stroke-opacity:1; fill:none" points="
  496.544,1800.78 496.544,1781.88 
  "/>
<polyline clip-path="url(#clip910)" style="stroke:#000000; stroke-linecap:butt; stroke-linejoin:round; stroke-width:4; stroke-opacity:1; fill:none" points="
  957.665,1800.78 957.665,1781.88 
  "/>
<polyline clip-path="url(#clip910)" style="stroke:#000000; stroke-linecap:butt; stroke-linejoin:round; stroke-width:4; stroke-opacity:1; fill:none" points="
  1418.79,1800.78 1418.79,1781.88 
  "/>
<polyline clip-path="url(#clip910)" style="stroke:#000000; stroke-linecap:butt; stroke-linejoin:round; stroke-width:4; stroke-opacity:1; fill:none" points="
  1879.91,1800.78 1879.91,1781.88 
  "/>
<polyline clip-path="url(#clip910)" style="stroke:#000000; stroke-linecap:butt; stroke-linejoin:round; stroke-width:4; stroke-opacity:1; fill:none" points="
  2341.03,1800.78 2341.03,1781.88 
  "/>
<path clip-path="url(#clip910)" d="M465.445 1848.65 L495.121 1848.65 L495.121 1852.59 L465.445 1852.59 L465.445 1848.65 Z" fill="#000000" fill-rule="evenodd" fill-opacity="1" /><path clip-path="url(#clip910)" d="M518.061 1835 L506.255 1853.45 L518.061 1853.45 L518.061 1835 M516.834 1830.92 L522.713 1830.92 L522.713 1853.45 L527.644 1853.45 L527.644 1857.34 L522.713 1857.34 L522.713 1865.48 L518.061 1865.48 L518.061 1857.34 L502.459 1857.34 L502.459 1852.82 L516.834 1830.92 Z" fill="#000000" fill-rule="evenodd" fill-opacity="1" /><path clip-path="url(#clip910)" d="M927.608 1848.65 L957.283 1848.65 L957.283 1852.59 L927.608 1852.59 L927.608 1848.65 Z" fill="#000000" fill-rule="evenodd" fill-opacity="1" /><path clip-path="url(#clip910)" d="M971.404 1861.55 L987.723 1861.55 L987.723 1865.48 L965.779 1865.48 L965.779 1861.55 Q968.441 1858.79 973.024 1854.16 Q977.63 1849.51 978.811 1848.17 Q981.056 1845.65 981.936 1843.91 Q982.839 1842.15 982.839 1840.46 Q982.839 1837.71 980.894 1835.97 Q978.973 1834.23 975.871 1834.23 Q973.672 1834.23 971.218 1835 Q968.788 1835.76 966.01 1837.31 L966.01 1832.59 Q968.834 1831.46 971.288 1830.88 Q973.742 1830.3 975.779 1830.3 Q981.149 1830.3 984.343 1832.98 Q987.538 1835.67 987.538 1840.16 Q987.538 1842.29 986.728 1844.21 Q985.941 1846.11 983.834 1848.7 Q983.255 1849.37 980.154 1852.59 Q977.052 1855.78 971.404 1861.55 Z" fill="#000000" fill-rule="evenodd" fill-opacity="1" /><path clip-path="url(#clip910)" d="M1418.79 1834 Q1415.17 1834 1413.35 1837.57 Q1411.54 1841.11 1411.54 1848.24 Q1411.54 1855.34 1413.35 1858.91 Q1415.17 1862.45 1418.79 1862.45 Q1422.42 1862.45 1424.23 1858.91 Q1426.05 1855.34 1426.05 1848.24 Q1426.05 1841.11 1424.23 1837.57 Q1422.42 1834 1418.79 1834 M1418.79 1830.3 Q1424.6 1830.3 1427.65 1834.9 Q1430.73 1839.49 1430.73 1848.24 Q1430.73 1856.96 1427.65 1861.57 Q1424.6 1866.15 1418.79 1866.15 Q1412.98 1866.15 1409.9 1861.57 Q1406.84 1856.96 1406.84 1848.24 Q1406.84 1839.49 1409.9 1834.9 Q1412.98 1830.3 1418.79 1830.3 Z" fill="#000000" fill-rule="evenodd" fill-opacity="1" /><path clip-path="url(#clip910)" d="M1874.56 1861.55 L1890.88 1861.55 L1890.88 1865.48 L1868.93 1865.48 L1868.93 1861.55 Q1871.6 1858.79 1876.18 1854.16 Q1880.79 1849.51 1881.97 1848.17 Q1884.21 1845.65 1885.09 1843.91 Q1885.99 1842.15 1885.99 1840.46 Q1885.99 1837.71 1884.05 1835.97 Q1882.13 1834.23 1879.03 1834.23 Q1876.83 1834.23 1874.37 1835 Q1871.94 1835.76 1869.17 1837.31 L1869.17 1832.59 Q1871.99 1831.46 1874.44 1830.88 Q1876.9 1830.3 1878.93 1830.3 Q1884.3 1830.3 1887.5 1832.98 Q1890.69 1835.67 1890.69 1840.16 Q1890.69 1842.29 1889.88 1844.21 Q1889.1 1846.11 1886.99 1848.7 Q1886.41 1849.37 1883.31 1852.59 Q1880.21 1855.78 1874.56 1861.55 Z" fill="#000000" fill-rule="evenodd" fill-opacity="1" /><path clip-path="url(#clip910)" d="M2344.04 1835 L2332.23 1853.45 L2344.04 1853.45 L2344.04 1835 M2342.81 1830.92 L2348.69 1830.92 L2348.69 1853.45 L2353.62 1853.45 L2353.62 1857.34 L2348.69 1857.34 L2348.69 1865.48 L2344.04 1865.48 L2344.04 1857.34 L2328.43 1857.34 L2328.43 1852.82 L2342.81 1830.92 Z" fill="#000000" fill-rule="evenodd" fill-opacity="1" /><polyline clip-path="url(#clip912)" style="stroke:#000000; stroke-linecap:butt; stroke-linejoin:round; stroke-width:2; stroke-opacity:0.1; fill:none" points="
  196.816,1587.59 2640.76,1587.59 
  "/>
<polyline clip-path="url(#clip912)" style="stroke:#000000; stroke-linecap:butt; stroke-linejoin:round; stroke-width:2; stroke-opacity:0.1; fill:none" points="
  196.816,1174.23 2640.76,1174.23 
  "/>
<polyline clip-path="url(#clip912)" style="stroke:#000000; stroke-linecap:butt; stroke-linejoin:round; stroke-width:2; stroke-opacity:0.1; fill:none" points="
  196.816,760.866 2640.76,760.866 
  "/>
<polyline clip-path="url(#clip912)" style="stroke:#000000; stroke-linecap:butt; stroke-linejoin:round; stroke-width:2; stroke-opacity:0.1; fill:none" points="
  196.816,347.506 2640.76,347.506 
  "/>
<polyline clip-path="url(#clip910)" style="stroke:#000000; stroke-linecap:butt; stroke-linejoin:round; stroke-width:4; stroke-opacity:1; fill:none" points="
  196.816,1800.78 196.816,47.2441 
  "/>
<polyline clip-path="url(#clip910)" style="stroke:#000000; stroke-linecap:butt; stroke-linejoin:round; stroke-width:4; stroke-opacity:1; fill:none" points="
  196.816,1587.59 215.714,1587.59 
  "/>
<polyline clip-path="url(#clip910)" style="stroke:#000000; stroke-linecap:butt; stroke-linejoin:round; stroke-width:4; stroke-opacity:1; fill:none" points="
  196.816,1174.23 215.714,1174.23 
  "/>
<polyline clip-path="url(#clip910)" style="stroke:#000000; stroke-linecap:butt; stroke-linejoin:round; stroke-width:4; stroke-opacity:1; fill:none" points="
  196.816,760.866 215.714,760.866 
  "/>
<polyline clip-path="url(#clip910)" style="stroke:#000000; stroke-linecap:butt; stroke-linejoin:round; stroke-width:4; stroke-opacity:1; fill:none" points="
  196.816,347.506 215.714,347.506 
  "/>
<path clip-path="url(#clip910)" d="M49.5521 1588.04 L79.2279 1588.04 L79.2279 1591.97 L49.5521 1591.97 L49.5521 1588.04 Z" fill="#000000" fill-rule="evenodd" fill-opacity="1" /><path clip-path="url(#clip910)" d="M89.3667 1570.31 L107.723 1570.31 L107.723 1574.24 L93.6491 1574.24 L93.6491 1582.72 Q94.6676 1582.37 95.6861 1582.21 Q96.7047 1582.02 97.7232 1582.02 Q103.51 1582.02 106.89 1585.19 Q110.269 1588.36 110.269 1593.78 Q110.269 1599.36 106.797 1602.46 Q103.325 1605.54 97.0056 1605.54 Q94.8297 1605.54 92.5612 1605.17 Q90.3158 1604.8 87.9084 1604.06 L87.9084 1599.36 Q89.9917 1600.49 92.2139 1601.05 Q94.4361 1601.6 96.913 1601.6 Q100.918 1601.6 103.256 1599.5 Q105.593 1597.39 105.593 1593.78 Q105.593 1590.17 103.256 1588.06 Q100.918 1585.96 96.913 1585.96 Q95.038 1585.96 93.163 1586.37 Q91.3112 1586.79 89.3667 1587.67 L89.3667 1570.31 Z" fill="#000000" fill-rule="evenodd" fill-opacity="1" /><path clip-path="url(#clip910)" d="M119.482 1598.99 L124.367 1598.99 L124.367 1604.87 L119.482 1604.87 L119.482 1598.99 Z" fill="#000000" fill-rule="evenodd" fill-opacity="1" /><path clip-path="url(#clip910)" d="M144.552 1573.39 Q140.941 1573.39 139.112 1576.95 Q137.306 1580.49 137.306 1587.62 Q137.306 1594.73 139.112 1598.29 Q140.941 1601.84 144.552 1601.84 Q148.186 1601.84 149.991 1598.29 Q151.82 1594.73 151.82 1587.62 Q151.82 1580.49 149.991 1576.95 Q148.186 1573.39 144.552 1573.39 M144.552 1569.68 Q150.362 1569.68 153.417 1574.29 Q156.496 1578.87 156.496 1587.62 Q156.496 1596.35 153.417 1600.96 Q150.362 1605.54 144.552 1605.54 Q138.741 1605.54 135.663 1600.96 Q132.607 1596.35 132.607 1587.62 Q132.607 1578.87 135.663 1574.29 Q138.741 1569.68 144.552 1569.68 Z" fill="#000000" fill-rule="evenodd" fill-opacity="1" /><path clip-path="url(#clip910)" d="M50.5475 1174.68 L80.2233 1174.68 L80.2233 1178.61 L50.5475 1178.61 L50.5475 1174.68 Z" fill="#000000" fill-rule="evenodd" fill-opacity="1" /><path clip-path="url(#clip910)" d="M94.3436 1187.57 L110.663 1187.57 L110.663 1191.51 L88.7186 1191.51 L88.7186 1187.57 Q91.3806 1184.82 95.9639 1180.19 Q100.57 1175.54 101.751 1174.19 Q103.996 1171.67 104.876 1169.93 Q105.779 1168.17 105.779 1166.48 Q105.779 1163.73 103.834 1161.99 Q101.913 1160.26 98.8111 1160.26 Q96.6121 1160.26 94.1584 1161.02 Q91.7278 1161.79 88.9501 1163.34 L88.9501 1158.61 Q91.7741 1157.48 94.2278 1156.9 Q96.6815 1156.32 98.7185 1156.32 Q104.089 1156.32 107.283 1159.01 Q110.478 1161.69 110.478 1166.18 Q110.478 1168.31 109.668 1170.23 Q108.881 1172.13 106.774 1174.73 Q106.195 1175.4 103.094 1178.61 Q99.9917 1181.81 94.3436 1187.57 Z" fill="#000000" fill-rule="evenodd" fill-opacity="1" /><path clip-path="url(#clip910)" d="M120.478 1185.63 L125.362 1185.63 L125.362 1191.51 L120.478 1191.51 L120.478 1185.63 Z" fill="#000000" fill-rule="evenodd" fill-opacity="1" /><path clip-path="url(#clip910)" d="M135.593 1156.95 L153.95 1156.95 L153.95 1160.88 L139.876 1160.88 L139.876 1169.35 Q140.894 1169.01 141.913 1168.85 Q142.931 1168.66 143.95 1168.66 Q149.737 1168.66 153.116 1171.83 Q156.496 1175 156.496 1180.42 Q156.496 1186 153.024 1189.1 Q149.552 1192.18 143.232 1192.18 Q141.056 1192.18 138.788 1191.81 Q136.542 1191.44 134.135 1190.7 L134.135 1186 Q136.218 1187.13 138.441 1187.69 Q140.663 1188.24 143.14 1188.24 Q147.144 1188.24 149.482 1186.14 Q151.82 1184.03 151.82 1180.42 Q151.82 1176.81 149.482 1174.7 Q147.144 1172.6 143.14 1172.6 Q141.265 1172.6 139.39 1173.01 Q137.538 1173.43 135.593 1174.31 L135.593 1156.95 Z" fill="#000000" fill-rule="evenodd" fill-opacity="1" /><path clip-path="url(#clip910)" d="M99.3204 746.665 Q95.7093 746.665 93.8806 750.23 Q92.075 753.772 92.075 760.901 Q92.075 768.008 93.8806 771.572 Q95.7093 775.114 99.3204 775.114 Q102.955 775.114 104.76 771.572 Q106.589 768.008 106.589 760.901 Q106.589 753.772 104.76 750.23 Q102.955 746.665 99.3204 746.665 M99.3204 742.961 Q105.131 742.961 108.186 747.568 Q111.265 752.151 111.265 760.901 Q111.265 769.628 108.186 774.234 Q105.131 778.818 99.3204 778.818 Q93.5102 778.818 90.4315 774.234 Q87.376 769.628 87.376 760.901 Q87.376 752.151 90.4315 747.568 Q93.5102 742.961 99.3204 742.961 Z" fill="#000000" fill-rule="evenodd" fill-opacity="1" /><path clip-path="url(#clip910)" d="M119.482 772.267 L124.367 772.267 L124.367 778.146 L119.482 778.146 L119.482 772.267 Z" fill="#000000" fill-rule="evenodd" fill-opacity="1" /><path clip-path="url(#clip910)" d="M144.552 746.665 Q140.941 746.665 139.112 750.23 Q137.306 753.772 137.306 760.901 Q137.306 768.008 139.112 771.572 Q140.941 775.114 144.552 775.114 Q148.186 775.114 149.991 771.572 Q151.82 768.008 151.82 760.901 Q151.82 753.772 149.991 750.23 Q148.186 746.665 144.552 746.665 M144.552 742.961 Q150.362 742.961 153.417 747.568 Q156.496 752.151 156.496 760.901 Q156.496 769.628 153.417 774.234 Q150.362 778.818 144.552 778.818 Q138.741 778.818 135.663 774.234 Q132.607 769.628 132.607 760.901 Q132.607 752.151 135.663 747.568 Q138.741 742.961 144.552 742.961 Z" fill="#000000" fill-rule="evenodd" fill-opacity="1" /><path clip-path="url(#clip910)" d="M94.3436 360.85 L110.663 360.85 L110.663 364.786 L88.7186 364.786 L88.7186 360.85 Q91.3806 358.096 95.9639 353.466 Q100.57 348.813 101.751 347.471 Q103.996 344.948 104.876 343.212 Q105.779 341.452 105.779 339.763 Q105.779 337.008 103.834 335.272 Q101.913 333.536 98.8111 333.536 Q96.6121 333.536 94.1584 334.3 Q91.7278 335.064 88.9501 336.614 L88.9501 331.892 Q91.7741 330.758 94.2278 330.179 Q96.6815 329.601 98.7185 329.601 Q104.089 329.601 107.283 332.286 Q110.478 334.971 110.478 339.462 Q110.478 341.591 109.668 343.513 Q108.881 345.411 106.774 348.003 Q106.195 348.675 103.094 351.892 Q99.9917 355.087 94.3436 360.85 Z" fill="#000000" fill-rule="evenodd" fill-opacity="1" /><path clip-path="url(#clip910)" d="M120.478 358.906 L125.362 358.906 L125.362 364.786 L120.478 364.786 L120.478 358.906 Z" fill="#000000" fill-rule="evenodd" fill-opacity="1" /><path clip-path="url(#clip910)" d="M135.593 330.226 L153.95 330.226 L153.95 334.161 L139.876 334.161 L139.876 342.633 Q140.894 342.286 141.913 342.124 Q142.931 341.938 143.95 341.938 Q149.737 341.938 153.116 345.11 Q156.496 348.281 156.496 353.698 Q156.496 359.276 153.024 362.378 Q149.552 365.457 143.232 365.457 Q141.056 365.457 138.788 365.087 Q136.542 364.716 134.135 363.975 L134.135 359.276 Q136.218 360.411 138.441 360.966 Q140.663 361.522 143.14 361.522 Q147.144 361.522 149.482 359.415 Q151.82 357.309 151.82 353.698 Q151.82 350.087 149.482 347.98 Q147.144 345.874 143.14 345.874 Q141.265 345.874 139.39 346.29 Q137.538 346.707 135.593 347.587 L135.593 330.226 Z" fill="#000000" fill-rule="evenodd" fill-opacity="1" /><polyline clip-path="url(#clip912)" style="stroke:#009af9; stroke-linecap:butt; stroke-linejoin:round; stroke-width:4; stroke-opacity:1; fill:none" points="
  265.984,96.8724 280.995,107.563 419.791,206.237 503.201,265.327 573.724,315.103 650.331,368.902 720.956,418.144 796.674,470.371 884.4,529.738 962.361,580.821 
  1030.73,623.507 1067.99,645.565 1105.26,666.488 1142.75,686.119 1180.24,704.031 1221.69,721.462 1263.14,736.026 1302.58,746.93 1342.01,754.764 1362.52,757.586 
  1383.02,759.54 1393.27,760.192 1403.52,760.625 1408.65,760.76 1413.78,760.84 1415.06,760.852 1416.34,760.86 1416.98,760.863 1417.62,760.865 1418.26,760.866 
  1418.9,767.277 1419.54,777.269 1420.18,783.16 1420.82,787.792 1421.46,791.737 1422.75,798.406 1424.03,804.06 1426.18,812.197 1428.34,819.218 1430.5,825.488 
  1432.66,831.21 1436.97,841.468 1441.29,850.593 1449.92,866.598 1458.55,880.605 1475.81,904.942 1493.06,926.205 1514.14,949.58 1535.21,971.064 1556.28,991.238 
  1577.35,1010.46 1615.96,1043.93 1654.56,1075.86 1725.87,1132.34 1798.11,1187.61 1879.07,1248.23 1952.43,1302.45 2036.42,1364.01 2114.19,1420.67 2190.86,1476.33 
  2265.3,1530.23 2341.61,1585.37 2425.22,1645.7 2546.67,1733.21 2571.59,1751.15 
  "/>
<path clip-path="url(#clip910)" d="
M2235.31 209.375 L2559.29 209.375 L2559.29 105.695 L2235.31 105.695  Z
  " fill="#ffffff" fill-rule="evenodd" fill-opacity="1"/>
<polyline clip-path="url(#clip910)" style="stroke:#000000; stroke-linecap:butt; stroke-linejoin:round; stroke-width:4; stroke-opacity:1; fill:none" points="
  2235.31,209.375 2559.29,209.375 2559.29,105.695 2235.31,105.695 2235.31,209.375 
  "/>
<polyline clip-path="url(#clip910)" style="stroke:#009af9; stroke-linecap:butt; stroke-linejoin:round; stroke-width:4; stroke-opacity:1; fill:none" points="
  2262.47,157.535 2425.4,157.535 
  "/>
<path clip-path="url(#clip910)" d="M2466.39 177.223 Q2464.59 181.852 2462.88 183.264 Q2461.16 184.676 2458.29 184.676 L2454.89 184.676 L2454.89 181.112 L2457.39 181.112 Q2459.15 181.112 2460.12 180.278 Q2461.09 179.445 2462.27 176.343 L2463.04 174.399 L2452.55 148.889 L2457.07 148.889 L2465.17 169.167 L2473.27 148.889 L2477.78 148.889 L2466.39 177.223 Z" fill="#000000" fill-rule="evenodd" fill-opacity="1" /><path clip-path="url(#clip910)" d="M2485.07 170.88 L2492.71 170.88 L2492.71 144.515 L2484.4 146.181 L2484.4 141.922 L2492.67 140.255 L2497.34 140.255 L2497.34 170.88 L2504.98 170.88 L2504.98 174.815 L2485.07 174.815 L2485.07 170.88 Z" fill="#000000" fill-rule="evenodd" fill-opacity="1" /></svg>
