<?xml version="1.0" encoding="utf-8"?>
<svg xmlns="http://www.w3.org/2000/svg" xmlns:xlink="http://www.w3.org/1999/xlink" width="672" height="480" viewBox="0 0 2688 1920">
<defs>
  <clipPath id="clip180">
    <rect x="0" y="0" width="2688" height="1920"/>
  </clipPath>
</defs>
<path clip-path="url(#clip180)" d="
M0 1920 L2688 1920 L2688 0 L0 0  Z
  " fill="#ffffff" fill-rule="evenodd" fill-opacity="1"/>
<defs>
  <clipPath id="clip181">
    <rect x="537" y="0" width="1883" height="1883"/>
  </clipPath>
</defs>
<path clip-path="url(#clip180)" d="
M150.358 1800.78 L2640.76 1800.78 L2640.76 47.2441 L150.358 47.2441  Z
  " fill="#ffffff" fill-rule="evenodd" fill-opacity="1"/>
<defs>
  <clipPath id="clip182">
    <rect x="150" y="47" width="2491" height="1755"/>
  </clipPath>
</defs>
<polyline clip-path="url(#clip182)" style="stroke:#000000; stroke-linecap:butt; stroke-linejoin:round; stroke-width:2; stroke-opacity:0.1; fill:none" points="
  220.841,1800.78 220.841,47.2441 
  "/>
<polyline clip-path="url(#clip182)" style="stroke:#000000; stroke-linecap:butt; stroke-linejoin:round; stroke-width:2; stroke-opacity:0.1; fill:none" points="
  808.199,1800.78 808.199,47.2441 
  "/>
<polyline clip-path="url(#clip182)" style="stroke:#000000; stroke-linecap:butt; stroke-linejoin:round; stroke-width:2; stroke-opacity:0.1; fill:none" points="
  1395.56,1800.78 1395.56,47.2441 
  "/>
<polyline clip-path="url(#clip182)" style="stroke:#000000; stroke-linecap:butt; stroke-linejoin:round; stroke-width:2; stroke-opacity:0.1; fill:none" points="
  1982.91,1800.78 1982.91,47.2441 
  "/>
<polyline clip-path="url(#clip182)" style="stroke:#000000; stroke-linecap:butt; stroke-linejoin:round; stroke-width:2; stroke-opacity:0.1; fill:none" points="
  2570.27,1800.78 2570.27,47.2441 
  "/>
<polyline clip-path="url(#clip180)" style="stroke:#000000; stroke-linecap:butt; stroke-linejoin:round; stroke-width:4; stroke-opacity:1; fill:none" points="
  150.358,1800.78 2640.76,1800.78 
  "/>
<polyline clip-path="url(#clip180)" style="stroke:#000000; stroke-linecap:butt; stroke-linejoin:round; stroke-width:4; stroke-opacity:1; fill:none" points="
  220.841,1800.78 220.841,1781.88 
  "/>
<polyline clip-path="url(#clip180)" style="stroke:#000000; stroke-linecap:butt; stroke-linejoin:round; stroke-width:4; stroke-opacity:1; fill:none" points="
  808.199,1800.78 808.199,1781.88 
  "/>
<polyline clip-path="url(#clip180)" style="stroke:#000000; stroke-linecap:butt; stroke-linejoin:round; stroke-width:4; stroke-opacity:1; fill:none" points="
  1395.56,1800.78 1395.56,1781.88 
  "/>
<polyline clip-path="url(#clip180)" style="stroke:#000000; stroke-linecap:butt; stroke-linejoin:round; stroke-width:4; stroke-opacity:1; fill:none" points="
  1982.91,1800.78 1982.91,1781.88 
  "/>
<polyline clip-path="url(#clip180)" style="stroke:#000000; stroke-linecap:butt; stroke-linejoin:round; stroke-width:4; stroke-opacity:1; fill:none" points="
  2570.27,1800.78 2570.27,1781.88 
  "/>
<path clip-path="url(#clip180)" d="M167.867 1848.65 L197.542 1848.65 L197.542 1852.59 L167.867 1852.59 L167.867 1848.65 Z" fill="#000000" fill-rule="evenodd" fill-opacity="1" /><path clip-path="url(#clip180)" d="M217.635 1834 Q214.024 1834 212.195 1837.57 Q210.39 1841.11 210.39 1848.24 Q210.39 1855.34 212.195 1858.91 Q214.024 1862.45 217.635 1862.45 Q221.269 1862.45 223.075 1858.91 Q224.903 1855.34 224.903 1848.24 Q224.903 1841.11 223.075 1837.57 Q221.269 1834 217.635 1834 M217.635 1830.3 Q223.445 1830.3 226.501 1834.9 Q229.579 1839.49 229.579 1848.24 Q229.579 1856.96 226.501 1861.57 Q223.445 1866.15 217.635 1866.15 Q211.825 1866.15 208.746 1861.57 Q205.69 1856.96 205.69 1848.24 Q205.69 1839.49 208.746 1834.9 Q211.825 1830.3 217.635 1830.3 Z" fill="#000000" fill-rule="evenodd" fill-opacity="1" /><path clip-path="url(#clip180)" d="M237.797 1859.6 L242.681 1859.6 L242.681 1865.48 L237.797 1865.48 L237.797 1859.6 Z" fill="#000000" fill-rule="evenodd" fill-opacity="1" /><path clip-path="url(#clip180)" d="M252.912 1830.92 L271.269 1830.92 L271.269 1834.86 L257.195 1834.86 L257.195 1843.33 Q258.213 1842.98 259.232 1842.82 Q260.25 1842.64 261.269 1842.64 Q267.056 1842.64 270.436 1845.81 Q273.815 1848.98 273.815 1854.4 Q273.815 1859.97 270.343 1863.08 Q266.871 1866.15 260.551 1866.15 Q258.375 1866.15 256.107 1865.78 Q253.862 1865.41 251.454 1864.67 L251.454 1859.97 Q253.537 1861.11 255.76 1861.66 Q257.982 1862.22 260.459 1862.22 Q264.463 1862.22 266.801 1860.11 Q269.139 1858.01 269.139 1854.4 Q269.139 1850.78 266.801 1848.68 Q264.463 1846.57 260.459 1846.57 Q258.584 1846.57 256.709 1846.99 Q254.857 1847.4 252.912 1848.28 L252.912 1830.92 Z" fill="#000000" fill-rule="evenodd" fill-opacity="1" /><path clip-path="url(#clip180)" d="M785.583 1834 Q781.972 1834 780.143 1837.57 Q778.338 1841.11 778.338 1848.24 Q778.338 1855.34 780.143 1858.91 Q781.972 1862.45 785.583 1862.45 Q789.218 1862.45 791.023 1858.91 Q792.852 1855.34 792.852 1848.24 Q792.852 1841.11 791.023 1837.57 Q789.218 1834 785.583 1834 M785.583 1830.3 Q791.393 1830.3 794.449 1834.9 Q797.528 1839.49 797.528 1848.24 Q797.528 1856.96 794.449 1861.57 Q791.393 1866.15 785.583 1866.15 Q779.773 1866.15 776.694 1861.57 Q773.639 1856.96 773.639 1848.24 Q773.639 1839.49 776.694 1834.9 Q779.773 1830.3 785.583 1830.3 Z" fill="#000000" fill-rule="evenodd" fill-opacity="1" /><path clip-path="url(#clip180)" d="M805.745 1859.6 L810.629 1859.6 L810.629 1865.48 L805.745 1865.48 L805.745 1859.6 Z" fill="#000000" fill-rule="evenodd" fill-opacity="1" /><path clip-path="url(#clip180)" d="M830.815 1834 Q827.203 1834 825.375 1837.57 Q823.569 1841.11 823.569 1848.24 Q823.569 1855.34 825.375 1858.91 Q827.203 1862.45 830.815 1862.45 Q834.449 1862.45 836.254 1858.91 Q838.083 1855.34 838.083 1848.24 Q838.083 1841.11 836.254 1837.57 Q834.449 1834 830.815 1834 M830.815 1830.3 Q836.625 1830.3 839.68 1834.9 Q842.759 1839.49 842.759 1848.24 Q842.759 1856.96 839.68 1861.57 Q836.625 1866.15 830.815 1866.15 Q825.004 1866.15 821.926 1861.57 Q818.87 1856.96 818.87 1848.24 Q818.87 1839.49 821.926 1834.9 Q825.004 1830.3 830.815 1830.3 Z" fill="#000000" fill-rule="evenodd" fill-opacity="1" /><path clip-path="url(#clip180)" d="M1373.44 1834 Q1369.83 1834 1368 1837.57 Q1366.19 1841.11 1366.19 1848.24 Q1366.19 1855.34 1368 1858.91 Q1369.83 1862.45 1373.44 1862.45 Q1377.07 1862.45 1378.88 1858.91 Q1380.71 1855.34 1380.71 1848.24 Q1380.71 1841.11 1378.88 1837.57 Q1377.07 1834 1373.44 1834 M1373.44 1830.3 Q1379.25 1830.3 1382.3 1834.9 Q1385.38 1839.49 1385.38 1848.24 Q1385.38 1856.96 1382.3 1861.57 Q1379.25 1866.15 1373.44 1866.15 Q1367.63 1866.15 1364.55 1861.57 Q1361.49 1856.96 1361.49 1848.24 Q1361.49 1839.49 1364.55 1834.9 Q1367.63 1830.3 1373.44 1830.3 Z" fill="#000000" fill-rule="evenodd" fill-opacity="1" /><path clip-path="url(#clip180)" d="M1393.6 1859.6 L1398.49 1859.6 L1398.49 1865.48 L1393.6 1865.48 L1393.6 1859.6 Z" fill="#000000" fill-rule="evenodd" fill-opacity="1" /><path clip-path="url(#clip180)" d="M1408.72 1830.92 L1427.07 1830.92 L1427.07 1834.86 L1413 1834.86 L1413 1843.33 Q1414.02 1842.98 1415.04 1842.82 Q1416.05 1842.64 1417.07 1842.64 Q1422.86 1842.64 1426.24 1845.81 Q1429.62 1848.98 1429.62 1854.4 Q1429.62 1859.97 1426.15 1863.08 Q1422.67 1866.15 1416.36 1866.15 Q1414.18 1866.15 1411.91 1865.78 Q1409.67 1865.41 1407.26 1864.67 L1407.26 1859.97 Q1409.34 1861.11 1411.56 1861.66 Q1413.79 1862.22 1416.26 1862.22 Q1420.27 1862.22 1422.61 1860.11 Q1424.94 1858.01 1424.94 1854.4 Q1424.94 1850.78 1422.61 1848.68 Q1420.27 1846.57 1416.26 1846.57 Q1414.39 1846.57 1412.51 1846.99 Q1410.66 1847.4 1408.72 1848.28 L1408.72 1830.92 Z" fill="#000000" fill-rule="evenodd" fill-opacity="1" /><path clip-path="url(#clip180)" d="M1950.07 1861.55 L1957.71 1861.55 L1957.71 1835.18 L1949.4 1836.85 L1949.4 1832.59 L1957.66 1830.92 L1962.34 1830.92 L1962.34 1861.55 L1969.98 1861.55 L1969.98 1865.48 L1950.07 1865.48 L1950.07 1861.55 Z" fill="#000000" fill-rule="evenodd" fill-opacity="1" /><path clip-path="url(#clip180)" d="M1979.42 1859.6 L1984.3 1859.6 L1984.3 1865.48 L1979.42 1865.48 L1979.42 1859.6 Z" fill="#000000" fill-rule="evenodd" fill-opacity="1" /><path clip-path="url(#clip180)" d="M2004.49 1834 Q2000.88 1834 1999.05 1837.57 Q1997.24 1841.11 1997.24 1848.24 Q1997.24 1855.34 1999.05 1858.91 Q2000.88 1862.45 2004.49 1862.45 Q2008.12 1862.45 2009.93 1858.91 Q2011.76 1855.34 2011.76 1848.24 Q2011.76 1841.11 2009.93 1837.57 Q2008.12 1834 2004.49 1834 M2004.49 1830.3 Q2010.3 1830.3 2013.35 1834.9 Q2016.43 1839.49 2016.43 1848.24 Q2016.43 1856.96 2013.35 1861.57 Q2010.3 1866.15 2004.49 1866.15 Q1998.68 1866.15 1995.6 1861.57 Q1992.54 1856.96 1992.54 1848.24 Q1992.54 1839.49 1995.6 1834.9 Q1998.68 1830.3 2004.49 1830.3 Z" fill="#000000" fill-rule="evenodd" fill-opacity="1" /><path clip-path="url(#clip180)" d="M2537.92 1861.55 L2545.56 1861.55 L2545.56 1835.18 L2537.25 1836.85 L2537.25 1832.59 L2545.52 1830.92 L2550.19 1830.92 L2550.19 1861.55 L2557.83 1861.55 L2557.83 1865.48 L2537.92 1865.48 L2537.92 1861.55 Z" fill="#000000" fill-rule="evenodd" fill-opacity="1" /><path clip-path="url(#clip180)" d="M2567.28 1859.6 L2572.16 1859.6 L2572.16 1865.48 L2567.28 1865.48 L2567.28 1859.6 Z" fill="#000000" fill-rule="evenodd" fill-opacity="1" /><path clip-path="url(#clip180)" d="M2582.39 1830.92 L2600.75 1830.92 L2600.75 1834.86 L2586.67 1834.86 L2586.67 1843.33 Q2587.69 1842.98 2588.71 1842.82 Q2589.73 1842.64 2590.75 1842.64 Q2596.53 1842.64 2599.91 1845.81 Q2603.29 1848.98 2603.29 1854.4 Q2603.29 1859.97 2599.82 1863.08 Q2596.35 1866.15 2590.03 1866.15 Q2587.85 1866.15 2585.59 1865.78 Q2583.34 1865.41 2580.93 1864.67 L2580.93 1859.97 Q2583.02 1861.11 2585.24 1861.66 Q2587.46 1862.22 2589.94 1862.22 Q2593.94 1862.22 2596.28 1860.11 Q2598.62 1858.01 2598.62 1854.4 Q2598.62 1850.78 2596.28 1848.68 Q2593.94 1846.57 2589.94 1846.57 Q2588.06 1846.57 2586.19 1846.99 Q2584.34 1847.4 2582.39 1848.28 L2582.39 1830.92 Z" fill="#000000" fill-rule="evenodd" fill-opacity="1" /><polyline clip-path="url(#clip182)" style="stroke:#000000; stroke-linecap:butt; stroke-linejoin:round; stroke-width:2; stroke-opacity:0.1; fill:none" points="
  150.358,1764.46 2640.76,1764.46 
  "/>
<polyline clip-path="url(#clip182)" style="stroke:#000000; stroke-linecap:butt; stroke-linejoin:round; stroke-width:2; stroke-opacity:0.1; fill:none" points="
  150.358,1417.05 2640.76,1417.05 
  "/>
<polyline clip-path="url(#clip182)" style="stroke:#000000; stroke-linecap:butt; stroke-linejoin:round; stroke-width:2; stroke-opacity:0.1; fill:none" points="
  150.358,1069.63 2640.76,1069.63 
  "/>
<polyline clip-path="url(#clip182)" style="stroke:#000000; stroke-linecap:butt; stroke-linejoin:round; stroke-width:2; stroke-opacity:0.1; fill:none" points="
  150.358,722.219 2640.76,722.219 
  "/>
<polyline clip-path="url(#clip182)" style="stroke:#000000; stroke-linecap:butt; stroke-linejoin:round; stroke-width:2; stroke-opacity:0.1; fill:none" points="
  150.358,374.804 2640.76,374.804 
  "/>
<polyline clip-path="url(#clip180)" style="stroke:#000000; stroke-linecap:butt; stroke-linejoin:round; stroke-width:4; stroke-opacity:1; fill:none" points="
  150.358,1800.78 150.358,47.2441 
  "/>
<polyline clip-path="url(#clip180)" style="stroke:#000000; stroke-linecap:butt; stroke-linejoin:round; stroke-width:4; stroke-opacity:1; fill:none" points="
  150.358,1764.46 169.256,1764.46 
  "/>
<polyline clip-path="url(#clip180)" style="stroke:#000000; stroke-linecap:butt; stroke-linejoin:round; stroke-width:4; stroke-opacity:1; fill:none" points="
  150.358,1417.05 169.256,1417.05 
  "/>
<polyline clip-path="url(#clip180)" style="stroke:#000000; stroke-linecap:butt; stroke-linejoin:round; stroke-width:4; stroke-opacity:1; fill:none" points="
  150.358,1069.63 169.256,1069.63 
  "/>
<polyline clip-path="url(#clip180)" style="stroke:#000000; stroke-linecap:butt; stroke-linejoin:round; stroke-width:4; stroke-opacity:1; fill:none" points="
  150.358,722.219 169.256,722.219 
  "/>
<polyline clip-path="url(#clip180)" style="stroke:#000000; stroke-linecap:butt; stroke-linejoin:round; stroke-width:4; stroke-opacity:1; fill:none" points="
  150.358,374.804 169.256,374.804 
  "/>
<path clip-path="url(#clip180)" d="M49.9225 1764.91 L79.5983 1764.91 L79.5983 1768.85 L49.9225 1768.85 L49.9225 1764.91 Z" fill="#000000" fill-rule="evenodd" fill-opacity="1" /><path clip-path="url(#clip180)" d="M93.7186 1777.81 L110.038 1777.81 L110.038 1781.74 L88.0936 1781.74 L88.0936 1777.81 Q90.7556 1775.05 95.3389 1770.42 Q99.9454 1765.77 101.126 1764.43 Q103.371 1761.91 104.251 1760.17 Q105.154 1758.41 105.154 1756.72 Q105.154 1753.97 103.209 1752.23 Q101.288 1750.49 98.1861 1750.49 Q95.9871 1750.49 93.5334 1751.26 Q91.1028 1752.02 88.3251 1753.57 L88.3251 1748.85 Q91.1491 1747.72 93.6028 1747.14 Q96.0565 1746.56 98.0935 1746.56 Q103.464 1746.56 106.658 1749.24 Q109.853 1751.93 109.853 1756.42 Q109.853 1758.55 109.043 1760.47 Q108.256 1762.37 106.149 1764.96 Q105.57 1765.63 102.469 1768.85 Q99.3667 1772.04 93.7186 1777.81 Z" fill="#000000" fill-rule="evenodd" fill-opacity="1" /><path clip-path="url(#clip180)" d="M49.5521 1417.5 L79.2279 1417.5 L79.2279 1421.43 L49.5521 1421.43 L49.5521 1417.5 Z" fill="#000000" fill-rule="evenodd" fill-opacity="1" /><path clip-path="url(#clip180)" d="M90.1306 1430.39 L97.7695 1430.39 L97.7695 1404.03 L89.4593 1405.69 L89.4593 1401.43 L97.7232 1399.77 L102.399 1399.77 L102.399 1430.39 L110.038 1430.39 L110.038 1434.33 L90.1306 1434.33 L90.1306 1430.39 Z" fill="#000000" fill-rule="evenodd" fill-opacity="1" /><path clip-path="url(#clip180)" d="M98.0935 1055.43 Q94.4824 1055.43 92.6537 1059 Q90.8482 1062.54 90.8482 1069.67 Q90.8482 1076.77 92.6537 1080.34 Q94.4824 1083.88 98.0935 1083.88 Q101.728 1083.88 103.533 1080.34 Q105.362 1076.77 105.362 1069.67 Q105.362 1062.54 103.533 1059 Q101.728 1055.43 98.0935 1055.43 M98.0935 1051.73 Q103.904 1051.73 106.959 1056.34 Q110.038 1060.92 110.038 1069.67 Q110.038 1078.4 106.959 1083 Q103.904 1087.58 98.0935 1087.58 Q92.2834 1087.58 89.2047 1083 Q86.1492 1078.4 86.1492 1069.67 Q86.1492 1060.92 89.2047 1056.34 Q92.2834 1051.73 98.0935 1051.73 Z" fill="#000000" fill-rule="evenodd" fill-opacity="1" /><path clip-path="url(#clip180)" d="M90.1306 735.564 L97.7695 735.564 L97.7695 709.198 L89.4593 710.865 L89.4593 706.606 L97.7232 704.939 L102.399 704.939 L102.399 735.564 L110.038 735.564 L110.038 739.499 L90.1306 739.499 L90.1306 735.564 Z" fill="#000000" fill-rule="evenodd" fill-opacity="1" /><path clip-path="url(#clip180)" d="M93.7186 388.149 L110.038 388.149 L110.038 392.084 L88.0936 392.084 L88.0936 388.149 Q90.7556 385.394 95.3389 380.765 Q99.9454 376.112 101.126 374.769 Q103.371 372.246 104.251 370.51 Q105.154 368.751 105.154 367.061 Q105.154 364.307 103.209 362.57 Q101.288 360.834 98.1861 360.834 Q95.9871 360.834 93.5334 361.598 Q91.1028 362.362 88.3251 363.913 L88.3251 359.191 Q91.1491 358.057 93.6028 357.478 Q96.0565 356.899 98.0935 356.899 Q103.464 356.899 106.658 359.584 Q109.853 362.27 109.853 366.76 Q109.853 368.89 109.043 370.811 Q108.256 372.709 106.149 375.302 Q105.57 375.973 102.469 379.191 Q99.3667 382.385 93.7186 388.149 Z" fill="#000000" fill-rule="evenodd" fill-opacity="1" /><polyline clip-path="url(#clip182)" style="stroke:#009af9; stroke-linecap:butt; stroke-linejoin:round; stroke-width:4; stroke-opacity:1; fill:none" points="
  220.841,1069.63 224.665,1751.15 228.489,1738.33 232.313,1725.98 236.137,1714.07 244.977,1688.05 253.816,1663.93 262.656,1641.5 271.496,1620.53 280.335,1600.88 
  289.175,1582.41 298.015,1564.98 306.854,1548.5 324.533,1518.05 342.213,1490.45 359.892,1465.24 377.571,1442.08 398.82,1416.53 420.069,1393.11 441.318,1371.5 
  462.568,1351.45 498.499,1320.52 534.431,1292.68 573.463,1265.28 612.494,1240.28 648.478,1219 684.462,1199.14 723.04,1179.2 761.619,1160.43 806.316,1139.95 
  851.013,1120.62 930.456,1088.53 1000.12,1062.3 1076.07,1035.22 1152.48,1009.18 1236.95,981.384 1317.33,955.544 1400.9,928.972 1471.25,906.602 1557.14,878.986 
  1635.82,853.094 1708.48,828.392 1782.09,802.286 1864.59,771.275 1939.34,741.04 2024.93,703.053 2104.18,663.513 2143.24,641.99 2182.3,618.785 2220.23,594.324 
  2258.16,567.559 2297.04,537.186 2335.92,503.09 2357.22,482.472 2378.52,460.207 2399.82,436.017 2421.12,409.558 2436.59,388.67 2452.06,366.145 2467.53,341.729 
  2483,315.106 2498.47,285.884 2513.94,253.561 2529.41,217.491 2544.88,176.821 2551.23,158.547 2557.58,139.21 2563.93,118.696 2570.27,96.8724 
  "/>
<path clip-path="url(#clip180)" d="
M2228.6 209.375 L2557.74 209.375 L2557.74 105.695 L2228.6 105.695  Z
  " fill="#ffffff" fill-rule="evenodd" fill-opacity="1"/>
<polyline clip-path="url(#clip180)" style="stroke:#000000; stroke-linecap:butt; stroke-linejoin:round; stroke-width:4; stroke-opacity:1; fill:none" points="
  2228.6,209.375 2557.74,209.375 2557.74,105.695 2228.6,105.695 2228.6,209.375 
  "/>
<polyline clip-path="url(#clip180)" style="stroke:#009af9; stroke-linecap:butt; stroke-linejoin:round; stroke-width:4; stroke-opacity:1; fill:none" points="
  2256.27,157.535 2422.3,157.535 
  "/>
<path clip-path="url(#clip180)" d="M2463.81 177.223 Q2462.01 181.852 2460.29 183.264 Q2458.58 184.676 2455.71 184.676 L2452.31 184.676 L2452.31 181.112 L2454.81 181.112 Q2456.57 181.112 2457.54 180.278 Q2458.51 179.445 2459.69 176.343 L2460.46 174.399 L2449.97 148.889 L2454.48 148.889 L2462.59 169.167 L2470.69 148.889 L2475.2 148.889 L2463.81 177.223 Z" fill="#000000" fill-rule="evenodd" fill-opacity="1" /><path clip-path="url(#clip180)" d="M2482.49 170.88 L2490.13 170.88 L2490.13 144.515 L2481.82 146.181 L2481.82 141.922 L2490.09 140.255 L2494.76 140.255 L2494.76 170.88 L2502.4 170.88 L2502.4 174.815 L2482.49 174.815 L2482.49 170.88 Z" fill="#000000" fill-rule="evenodd" fill-opacity="1" /></svg>
