<?xml version="1.0" encoding="utf-8"?>
<svg xmlns="http://www.w3.org/2000/svg" xmlns:xlink="http://www.w3.org/1999/xlink" width="672" height="480" viewBox="0 0 2688 1920">
<defs>
  <clipPath id="clip720">
    <rect x="0" y="0" width="2688" height="1920"/>
  </clipPath>
</defs>
<path clip-path="url(#clip720)" d="
M0 1920 L2688 1920 L2688 0 L0 0  Z
  " fill="#ffffff" fill-rule="evenodd" fill-opacity="1"/>
<defs>
  <clipPath id="clip721">
    <rect x="537" y="0" width="1883" height="1883"/>
  </clipPath>
</defs>
<path clip-path="url(#clip720)" d="
M158.992 1800.78 L2640.76 1800.78 L2640.76 47.2441 L158.992 47.2441  Z
  " fill="#ffffff" fill-rule="evenodd" fill-opacity="1"/>
<defs>
  <clipPath id="clip722">
    <rect x="158" y="47" width="2483" height="1755"/>
  </clipPath>
</defs>
<polyline clip-path="url(#clip722)" style="stroke:#000000; stroke-linecap:butt; stroke-linejoin:round; stroke-width:2; stroke-opacity:0.1; fill:none" points="
  158.992,1800.78 158.992,47.2441 
  "/>
<polyline clip-path="url(#clip722)" style="stroke:#000000; stroke-linecap:butt; stroke-linejoin:round; stroke-width:2; stroke-opacity:0.1; fill:none" points="
  655.345,1800.78 655.345,47.2441 
  "/>
<polyline clip-path="url(#clip722)" style="stroke:#000000; stroke-linecap:butt; stroke-linejoin:round; stroke-width:2; stroke-opacity:0.1; fill:none" points="
  1151.7,1800.78 1151.7,47.2441 
  "/>
<polyline clip-path="url(#clip722)" style="stroke:#000000; stroke-linecap:butt; stroke-linejoin:round; stroke-width:2; stroke-opacity:0.1; fill:none" points="
  1648.05,1800.78 1648.05,47.2441 
  "/>
<polyline clip-path="url(#clip722)" style="stroke:#000000; stroke-linecap:butt; stroke-linejoin:round; stroke-width:2; stroke-opacity:0.1; fill:none" points="
  2144.4,1800.78 2144.4,47.2441 
  "/>
<polyline clip-path="url(#clip722)" style="stroke:#000000; stroke-linecap:butt; stroke-linejoin:round; stroke-width:2; stroke-opacity:0.1; fill:none" points="
  2640.76,1800.78 2640.76,47.2441 
  "/>
<polyline clip-path="url(#clip720)" style="stroke:#000000; stroke-linecap:butt; stroke-linejoin:round; stroke-width:4; stroke-opacity:1; fill:none" points="
  158.992,1800.78 2640.76,1800.78 
  "/>
<polyline clip-path="url(#clip720)" style="stroke:#000000; stroke-linecap:butt; stroke-linejoin:round; stroke-width:4; stroke-opacity:1; fill:none" points="
  158.992,1800.78 158.992,1781.88 
  "/>
<polyline clip-path="url(#clip720)" style="stroke:#000000; stroke-linecap:butt; stroke-linejoin:round; stroke-width:4; stroke-opacity:1; fill:none" points="
  655.345,1800.78 655.345,1781.88 
  "/>
<polyline clip-path="url(#clip720)" style="stroke:#000000; stroke-linecap:butt; stroke-linejoin:round; stroke-width:4; stroke-opacity:1; fill:none" points="
  1151.7,1800.78 1151.7,1781.88 
  "/>
<polyline clip-path="url(#clip720)" style="stroke:#000000; stroke-linecap:butt; stroke-linejoin:round; stroke-width:4; stroke-opacity:1; fill:none" points="
  1648.05,1800.78 1648.05,1781.88 
  "/>
<polyline clip-path="url(#clip720)" style="stroke:#000000; stroke-linecap:butt; stroke-linejoin:round; stroke-width:4; stroke-opacity:1; fill:none" points="
  2144.4,1800.78 2144.4,1781.88 
  "/>
<polyline clip-path="url(#clip720)" style="stroke:#000000; stroke-linecap:butt; stroke-linejoin:round; stroke-width:4; stroke-opacity:1; fill:none" points="
  2640.76,1800.78 2640.76,1781.88 
  "/>
<path clip-path="url(#clip720)" d="M128.934 1848.65 L158.61 1848.65 L158.61 1852.59 L128.934 1852.59 L128.934 1848.65 Z" fill="#000000" fill-rule="evenodd" fill-opacity="1" /><path clip-path="url(#clip720)" d="M172.73 1861.55 L189.05 1861.55 L189.05 1865.48 L167.106 1865.48 L167.106 1861.55 Q169.768 1858.79 174.351 1854.16 Q178.957 1849.51 180.138 1848.17 Q182.383 1845.65 183.263 1843.91 Q184.166 1842.15 184.166 1840.46 Q184.166 1837.71 182.221 1835.97 Q180.3 1834.23 177.198 1834.23 Q174.999 1834.23 172.545 1835 Q170.115 1835.76 167.337 1837.31 L167.337 1832.59 Q170.161 1831.46 172.615 1830.88 Q175.068 1830.3 177.105 1830.3 Q182.476 1830.3 185.67 1832.98 Q188.865 1835.67 188.865 1840.16 Q188.865 1842.29 188.054 1844.21 Q187.267 1846.11 185.161 1848.7 Q184.582 1849.37 181.48 1852.59 Q178.379 1855.78 172.73 1861.55 Z" fill="#000000" fill-rule="evenodd" fill-opacity="1" /><path clip-path="url(#clip720)" d="M625.102 1848.65 L654.778 1848.65 L654.778 1852.59 L625.102 1852.59 L625.102 1848.65 Z" fill="#000000" fill-rule="evenodd" fill-opacity="1" /><path clip-path="url(#clip720)" d="M665.68 1861.55 L673.319 1861.55 L673.319 1835.18 L665.009 1836.85 L665.009 1832.59 L673.273 1830.92 L677.949 1830.92 L677.949 1861.55 L685.588 1861.55 L685.588 1865.48 L665.68 1865.48 L665.68 1861.55 Z" fill="#000000" fill-rule="evenodd" fill-opacity="1" /><path clip-path="url(#clip720)" d="M1151.7 1834 Q1148.09 1834 1146.26 1837.57 Q1144.45 1841.11 1144.45 1848.24 Q1144.45 1855.34 1146.26 1858.91 Q1148.09 1862.45 1151.7 1862.45 Q1155.33 1862.45 1157.14 1858.91 Q1158.97 1855.34 1158.97 1848.24 Q1158.97 1841.11 1157.14 1837.57 Q1155.33 1834 1151.7 1834 M1151.7 1830.3 Q1157.51 1830.3 1160.56 1834.9 Q1163.64 1839.49 1163.64 1848.24 Q1163.64 1856.96 1160.56 1861.57 Q1157.51 1866.15 1151.7 1866.15 Q1145.89 1866.15 1142.81 1861.57 Q1139.75 1856.96 1139.75 1848.24 Q1139.75 1839.49 1142.81 1834.9 Q1145.89 1830.3 1151.7 1830.3 Z" fill="#000000" fill-rule="evenodd" fill-opacity="1" /><path clip-path="url(#clip720)" d="M1638.43 1861.55 L1646.07 1861.55 L1646.07 1835.18 L1637.76 1836.85 L1637.76 1832.59 L1646.02 1830.92 L1650.7 1830.92 L1650.7 1861.55 L1658.34 1861.55 L1658.34 1865.48 L1638.43 1865.48 L1638.43 1861.55 Z" fill="#000000" fill-rule="evenodd" fill-opacity="1" /><path clip-path="url(#clip720)" d="M2139.06 1861.55 L2155.38 1861.55 L2155.38 1865.48 L2133.43 1865.48 L2133.43 1861.55 Q2136.09 1858.79 2140.68 1854.16 Q2145.28 1849.51 2146.46 1848.17 Q2148.71 1845.65 2149.59 1843.91 Q2150.49 1842.15 2150.49 1840.46 Q2150.49 1837.71 2148.55 1835.97 Q2146.63 1834.23 2143.52 1834.23 Q2141.32 1834.23 2138.87 1835 Q2136.44 1835.76 2133.66 1837.31 L2133.66 1832.59 Q2136.49 1831.46 2138.94 1830.88 Q2141.39 1830.3 2143.43 1830.3 Q2148.8 1830.3 2152 1832.98 Q2155.19 1835.67 2155.19 1840.16 Q2155.19 1842.29 2154.38 1844.21 Q2153.59 1846.11 2151.49 1848.7 Q2150.91 1849.37 2147.81 1852.59 Q2144.7 1855.78 2139.06 1861.55 Z" fill="#000000" fill-rule="evenodd" fill-opacity="1" /><path clip-path="url(#clip720)" d="M2645 1846.85 Q2648.36 1847.57 2650.24 1849.84 Q2652.13 1852.1 2652.13 1855.44 Q2652.13 1860.55 2648.61 1863.35 Q2645.1 1866.15 2638.61 1866.15 Q2636.44 1866.15 2634.12 1865.71 Q2631.83 1865.3 2629.38 1864.44 L2629.38 1859.93 Q2631.32 1861.06 2633.64 1861.64 Q2635.95 1862.22 2638.48 1862.22 Q2642.87 1862.22 2645.17 1860.48 Q2647.48 1858.75 2647.48 1855.44 Q2647.48 1852.38 2645.33 1850.67 Q2643.2 1848.93 2639.38 1848.93 L2635.35 1848.93 L2635.35 1845.09 L2639.56 1845.09 Q2643.01 1845.09 2644.84 1843.72 Q2646.67 1842.34 2646.67 1839.74 Q2646.67 1837.08 2644.77 1835.67 Q2642.9 1834.23 2639.38 1834.23 Q2637.46 1834.23 2635.26 1834.65 Q2633.06 1835.07 2630.42 1835.95 L2630.42 1831.78 Q2633.08 1831.04 2635.4 1830.67 Q2637.74 1830.3 2639.8 1830.3 Q2645.12 1830.3 2648.22 1832.73 Q2651.32 1835.14 2651.32 1839.26 Q2651.32 1842.13 2649.68 1844.12 Q2648.04 1846.09 2645 1846.85 Z" fill="#000000" fill-rule="evenodd" fill-opacity="1" /><polyline clip-path="url(#clip722)" style="stroke:#000000; stroke-linecap:butt; stroke-linejoin:round; stroke-width:2; stroke-opacity:0.1; fill:none" points="
  158.992,1481.95 2640.76,1481.95 
  "/>
<polyline clip-path="url(#clip722)" style="stroke:#000000; stroke-linecap:butt; stroke-linejoin:round; stroke-width:2; stroke-opacity:0.1; fill:none" points="
  158.992,1083.42 2640.76,1083.42 
  "/>
<polyline clip-path="url(#clip722)" style="stroke:#000000; stroke-linecap:butt; stroke-linejoin:round; stroke-width:2; stroke-opacity:0.1; fill:none" points="
  158.992,684.893 2640.76,684.893 
  "/>
<polyline clip-path="url(#clip722)" style="stroke:#000000; stroke-linecap:butt; stroke-linejoin:round; stroke-width:2; stroke-opacity:0.1; fill:none" points="
  158.992,286.363 2640.76,286.363 
  "/>
<polyline clip-path="url(#clip720)" style="stroke:#000000; stroke-linecap:butt; stroke-linejoin:round; stroke-width:4; stroke-opacity:1; fill:none" points="
  158.992,1800.78 158.992,47.2441 
  "/>
<polyline clip-path="url(#clip720)" style="stroke:#000000; stroke-linecap:butt; stroke-linejoin:round; stroke-width:4; stroke-opacity:1; fill:none" points="
  158.992,1481.95 177.89,1481.95 
  "/>
<polyline clip-path="url(#clip720)" style="stroke:#000000; stroke-linecap:butt; stroke-linejoin:round; stroke-width:4; stroke-opacity:1; fill:none" points="
  158.992,1083.42 177.89,1083.42 
  "/>
<polyline clip-path="url(#clip720)" style="stroke:#000000; stroke-linecap:butt; stroke-linejoin:round; stroke-width:4; stroke-opacity:1; fill:none" points="
  158.992,684.893 177.89,684.893 
  "/>
<polyline clip-path="url(#clip720)" style="stroke:#000000; stroke-linecap:butt; stroke-linejoin:round; stroke-width:4; stroke-opacity:1; fill:none" points="
  158.992,286.363 177.89,286.363 
  "/>
<path clip-path="url(#clip720)" d="M61.4965 1467.75 Q57.8854 1467.75 56.0567 1471.32 Q54.2512 1474.86 54.2512 1481.99 Q54.2512 1489.1 56.0567 1492.66 Q57.8854 1496.2 61.4965 1496.2 Q65.1307 1496.2 66.9363 1492.66 Q68.765 1489.1 68.765 1481.99 Q68.765 1474.86 66.9363 1471.32 Q65.1307 1467.75 61.4965 1467.75 M61.4965 1464.05 Q67.3067 1464.05 70.3622 1468.66 Q73.4409 1473.24 73.4409 1481.99 Q73.4409 1490.72 70.3622 1495.32 Q67.3067 1499.91 61.4965 1499.91 Q55.6864 1499.91 52.6077 1495.32 Q49.5521 1490.72 49.5521 1481.99 Q49.5521 1473.24 52.6077 1468.66 Q55.6864 1464.05 61.4965 1464.05 Z" fill="#000000" fill-rule="evenodd" fill-opacity="1" /><path clip-path="url(#clip720)" d="M81.6584 1493.36 L86.5427 1493.36 L86.5427 1499.23 L81.6584 1499.23 L81.6584 1493.36 Z" fill="#000000" fill-rule="evenodd" fill-opacity="1" /><path clip-path="url(#clip720)" d="M106.728 1467.75 Q103.117 1467.75 101.288 1471.32 Q99.4824 1474.86 99.4824 1481.99 Q99.4824 1489.1 101.288 1492.66 Q103.117 1496.2 106.728 1496.2 Q110.362 1496.2 112.168 1492.66 Q113.996 1489.1 113.996 1481.99 Q113.996 1474.86 112.168 1471.32 Q110.362 1467.75 106.728 1467.75 M106.728 1464.05 Q112.538 1464.05 115.593 1468.66 Q118.672 1473.24 118.672 1481.99 Q118.672 1490.72 115.593 1495.32 Q112.538 1499.91 106.728 1499.91 Q100.918 1499.91 97.8389 1495.32 Q94.7834 1490.72 94.7834 1481.99 Q94.7834 1473.24 97.8389 1468.66 Q100.918 1464.05 106.728 1464.05 Z" fill="#000000" fill-rule="evenodd" fill-opacity="1" /><path clip-path="url(#clip720)" d="M56.5197 1096.77 L72.839 1096.77 L72.839 1100.7 L50.8947 1100.7 L50.8947 1096.77 Q53.5567 1094.01 58.14 1089.38 Q62.7465 1084.73 63.927 1083.39 Q66.1724 1080.87 67.052 1079.13 Q67.9548 1077.37 67.9548 1075.68 Q67.9548 1072.93 66.0104 1071.19 Q64.0891 1069.45 60.9872 1069.45 Q58.7882 1069.45 56.3345 1070.22 Q53.904 1070.98 51.1262 1072.53 L51.1262 1067.81 Q53.9503 1066.68 56.4039 1066.1 Q58.8576 1065.52 60.8947 1065.52 Q66.265 1065.52 69.4594 1068.2 Q72.6539 1070.89 72.6539 1075.38 Q72.6539 1077.51 71.8437 1079.43 Q71.0566 1081.33 68.9502 1083.92 Q68.3715 1084.59 65.2696 1087.81 Q62.1678 1091 56.5197 1096.77 Z" fill="#000000" fill-rule="evenodd" fill-opacity="1" /><path clip-path="url(#clip720)" d="M82.6538 1094.82 L87.538 1094.82 L87.538 1100.7 L82.6538 1100.7 L82.6538 1094.82 Z" fill="#000000" fill-rule="evenodd" fill-opacity="1" /><path clip-path="url(#clip720)" d="M97.7695 1066.14 L116.126 1066.14 L116.126 1070.08 L102.052 1070.08 L102.052 1078.55 Q103.07 1078.2 104.089 1078.04 Q105.107 1077.86 106.126 1077.86 Q111.913 1077.86 115.293 1081.03 Q118.672 1084.2 118.672 1089.62 Q118.672 1095.19 115.2 1098.3 Q111.728 1101.38 105.408 1101.38 Q103.232 1101.38 100.964 1101 Q98.7185 1100.63 96.3111 1099.89 L96.3111 1095.19 Q98.3945 1096.33 100.617 1096.88 Q102.839 1097.44 105.316 1097.44 Q109.32 1097.44 111.658 1095.33 Q113.996 1093.23 113.996 1089.62 Q113.996 1086 111.658 1083.9 Q109.32 1081.79 105.316 1081.79 Q103.441 1081.79 101.566 1082.21 Q99.7139 1082.63 97.7695 1083.51 L97.7695 1066.14 Z" fill="#000000" fill-rule="evenodd" fill-opacity="1" /><path clip-path="url(#clip720)" d="M51.5429 667.613 L69.8992 667.613 L69.8992 671.548 L55.8252 671.548 L55.8252 680.021 Q56.8438 679.673 57.8623 679.511 Q58.8808 679.326 59.8993 679.326 Q65.6863 679.326 69.0659 682.497 Q72.4455 685.669 72.4455 691.085 Q72.4455 696.664 68.9733 699.766 Q65.5011 702.845 59.1817 702.845 Q57.0058 702.845 54.7373 702.474 Q52.4919 702.104 50.0845 701.363 L50.0845 696.664 Q52.1679 697.798 54.3901 698.354 Q56.6123 698.909 59.0891 698.909 Q63.0937 698.909 65.4317 696.803 Q67.7696 694.696 67.7696 691.085 Q67.7696 687.474 65.4317 685.368 Q63.0937 683.261 59.0891 683.261 Q57.2141 683.261 55.3391 683.678 Q53.4873 684.095 51.5429 684.974 L51.5429 667.613 Z" fill="#000000" fill-rule="evenodd" fill-opacity="1" /><path clip-path="url(#clip720)" d="M81.6584 696.294 L86.5427 696.294 L86.5427 702.173 L81.6584 702.173 L81.6584 696.294 Z" fill="#000000" fill-rule="evenodd" fill-opacity="1" /><path clip-path="url(#clip720)" d="M106.728 670.692 Q103.117 670.692 101.288 674.257 Q99.4824 677.798 99.4824 684.928 Q99.4824 692.034 101.288 695.599 Q103.117 699.141 106.728 699.141 Q110.362 699.141 112.168 695.599 Q113.996 692.034 113.996 684.928 Q113.996 677.798 112.168 674.257 Q110.362 670.692 106.728 670.692 M106.728 666.988 Q112.538 666.988 115.593 671.595 Q118.672 676.178 118.672 684.928 Q118.672 693.655 115.593 698.261 Q112.538 702.845 106.728 702.845 Q100.918 702.845 97.8389 698.261 Q94.7834 693.655 94.7834 684.928 Q94.7834 676.178 97.8389 671.595 Q100.918 666.988 106.728 666.988 Z" fill="#000000" fill-rule="evenodd" fill-opacity="1" /><path clip-path="url(#clip720)" d="M51.3114 269.083 L73.5335 269.083 L73.5335 271.073 L60.9872 303.643 L56.103 303.643 L67.9085 273.018 L51.3114 273.018 L51.3114 269.083 Z" fill="#000000" fill-rule="evenodd" fill-opacity="1" /><path clip-path="url(#clip720)" d="M82.6538 297.763 L87.538 297.763 L87.538 303.643 L82.6538 303.643 L82.6538 297.763 Z" fill="#000000" fill-rule="evenodd" fill-opacity="1" /><path clip-path="url(#clip720)" d="M97.7695 269.083 L116.126 269.083 L116.126 273.018 L102.052 273.018 L102.052 281.49 Q103.07 281.143 104.089 280.981 Q105.107 280.795 106.126 280.795 Q111.913 280.795 115.293 283.967 Q118.672 287.138 118.672 292.555 Q118.672 298.133 115.2 301.235 Q111.728 304.314 105.408 304.314 Q103.232 304.314 100.964 303.943 Q98.7185 303.573 96.3111 302.832 L96.3111 298.133 Q98.3945 299.268 100.617 299.823 Q102.839 300.379 105.316 300.379 Q109.32 300.379 111.658 298.272 Q113.996 296.166 113.996 292.555 Q113.996 288.944 111.658 286.837 Q109.32 284.731 105.316 284.731 Q103.441 284.731 101.566 285.147 Q99.7139 285.564 97.7695 286.444 L97.7695 269.083 Z" fill="#000000" fill-rule="evenodd" fill-opacity="1" /><polyline clip-path="url(#clip722)" style="stroke:#009af9; stroke-linecap:butt; stroke-linejoin:round; stroke-width:20; stroke-opacity:1; fill:none" points="
  158.992,844.306 163.032,849.484 167.071,854.642 171.11,859.778 175.15,864.894 212.5,911.193 249.85,955.686 287.2,998.375 324.55,1039.26 369.442,1086.01 
  414.334,1130.15 452.289,1165.43 490.245,1198.86 531.475,1233.05 572.705,1265.04 610.716,1292.59 648.727,1318.26 689.478,1343.71 730.23,1367.01 777.444,1391.32 
  824.659,1412.75 866.617,1429.37 908.576,1443.71 945.37,1454.41 982.164,1463.36 1022.28,1471.12 1062.39,1476.79 1102.75,1480.4 1143.1,1481.91 1187.72,1481.12 
  1232.33,1477.75 1274.79,1472.15 1317.24,1464.22 1361.38,1453.51 1405.52,1440.27 1442.67,1427.17 1479.83,1412.29 1525.19,1391.69 1570.55,1368.43 1612.11,1344.79 
  1653.67,1318.92 1692.05,1293.03 1730.43,1265.24 1769.3,1235.14 1808.18,1203.09 1851.75,1164.85 1895.32,1124.15 1934.8,1085.14 1974.29,1044.12 2019.49,994.681 
  2064.7,942.593 2106.55,892.007 2148.41,839.153 2189.67,784.827 2230.93,728.297 2271,671.302 2311.06,612.23 2352.13,549.518 2393.21,484.623 2438.2,411.017 
  2483.2,334.79 2515.88,277.782 2548.57,219.391 2581.25,159.618 2613.94,98.4618 2620.64,85.7446 2627.35,72.9693 2634.05,60.1358 2640.76,47.2441 
  "/>
<polyline clip-path="url(#clip722)" style="stroke:#e26f46; stroke-linecap:butt; stroke-linejoin:round; stroke-width:4; stroke-opacity:1; fill:none" points="
  158.992,1481.95 175.15,1476.77 324.55,1428.78 414.334,1399.95 490.245,1375.57 572.705,1349.08 648.727,1324.67 730.23,1298.49 824.659,1268.16 908.576,1241.21 
  982.164,1217.58 1062.39,1191.81 1143.1,1165.89 1232.33,1137.23 1317.24,1109.96 1405.52,1081.61 1479.83,1057.75 1570.55,1028.61 1653.67,1001.91 1730.43,977.262 
  1808.18,952.289 1895.32,924.302 1974.29,898.942 2064.7,869.905 2148.41,843.02 2230.93,816.515 2311.06,790.78 2393.21,764.399 2483.2,735.495 2613.94,693.507 
  2640.76,684.893 
  "/>
<polyline clip-path="url(#clip722)" style="stroke:#3da44d; stroke-linecap:butt; stroke-linejoin:round; stroke-width:20; stroke-opacity:1; fill:none" points="
  655.345,1322.54 685.734,1312.78 716.123,1303.02 746.512,1293.26 776.901,1283.5 807.29,1273.74 837.679,1263.98 868.067,1254.22 898.456,1244.46 928.845,1234.7 
  959.234,1224.94 989.623,1215.18 1020.01,1205.42 1050.4,1195.66 1080.79,1185.9 1111.18,1176.14 1141.57,1166.38 1171.96,1156.62 1202.35,1146.86 1232.73,1137.1 
  1263.12,1127.34 1293.51,1117.58 1323.9,1107.82 1354.29,1098.06 1384.68,1088.3 1415.07,1078.54 1445.46,1068.78 1475.85,1059.02 1506.24,1049.26 1536.62,1039.5 
  1567.01,1029.74 1597.4,1019.98 1627.79,1010.22 1658.18,1000.46 1688.57,990.705 1718.96,980.945 1749.35,971.185 1779.74,961.425 1810.12,951.665 1840.51,941.905 
  1870.9,932.145 1901.29,922.385 1931.68,912.625 1962.07,902.865 1992.46,893.105 2022.85,883.345 2053.24,873.585 2083.63,863.825 2114.01,854.065 2144.4,844.306 
  
  "/>
<polyline clip-path="url(#clip722)" style="stroke:#c271d2; stroke-linecap:butt; stroke-linejoin:round; stroke-width:4; stroke-opacity:1; fill:none" points="
  158.992,1960.19 175.15,1952.41 324.55,1880.43 414.334,1837.18 490.245,1800.61 572.705,1760.88 648.727,1724.26 730.23,1685 824.659,1639.51 908.576,1599.08 
  982.164,1563.63 1062.39,1524.98 1143.1,1486.1 1232.33,1443.11 1317.24,1402.21 1405.52,1359.68 1479.83,1323.88 1570.55,1280.17 1653.67,1240.13 1730.43,1203.15 
  1808.18,1165.69 1895.32,1123.71 1974.29,1085.67 2064.7,1042.12 2148.41,1001.79 2230.93,962.031 2311.06,923.429 2393.21,883.857 2483.2,840.502 2613.94,777.52 
  2640.76,764.599 
  "/>
<polyline clip-path="url(#clip722)" style="stroke:#ac8d18; stroke-linecap:butt; stroke-linejoin:round; stroke-width:20; stroke-opacity:1; fill:none" points="
  1151.7,1481.95 1166.89,1474.63 1182.09,1467.31 1197.28,1459.99 1212.48,1452.67 1227.67,1445.35 1242.86,1438.04 1258.06,1430.72 1273.25,1423.4 1288.45,1416.08 
  1303.64,1408.76 1318.84,1401.44 1334.03,1394.12 1349.23,1386.8 1364.42,1379.48 1379.61,1372.16 1394.81,1364.84 1410,1357.52 1425.2,1350.2 1440.39,1342.88 
  1455.59,1335.56 1470.78,1328.24 1485.98,1320.92 1501.17,1313.6 1516.36,1306.28 1531.56,1298.96 1546.75,1291.64 1561.95,1284.32 1577.14,1277 1592.34,1269.68 
  1607.53,1262.36 1622.73,1255.04 1637.92,1247.72 1653.12,1240.4 1668.31,1233.08 1683.5,1225.76 1698.7,1218.44 1713.89,1211.12 1729.09,1203.8 1744.28,1196.48 
  1759.48,1189.16 1774.67,1181.84 1789.87,1174.52 1805.06,1167.2 1820.25,1159.88 1835.45,1152.56 1850.64,1145.24 1865.84,1137.92 1881.03,1130.6 1896.23,1123.28 
  
  "/>
</svg>
