<?xml version="1.0" encoding="utf-8"?>
<svg xmlns="http://www.w3.org/2000/svg" xmlns:xlink="http://www.w3.org/1999/xlink" width="672" height="480" viewBox="0 0 2688 1920">
<defs>
  <clipPath id="clip220">
    <rect x="0" y="0" width="2688" height="1920"/>
  </clipPath>
</defs>
<path clip-path="url(#clip220)" d="
M0 1920 L2688 1920 L2688 0 L0 0  Z
  " fill="#ffffff" fill-rule="evenodd" fill-opacity="1"/>
<defs>
  <clipPath id="clip221">
    <rect x="537" y="0" width="1883" height="1883"/>
  </clipPath>
</defs>
<path clip-path="url(#clip220)" d="
M150.937 1800.78 L2640.76 1800.78 L2640.76 47.2441 L150.937 47.2441  Z
  " fill="#ffffff" fill-rule="evenodd" fill-opacity="1"/>
<defs>
  <clipPath id="clip222">
    <rect x="150" y="47" width="2491" height="1755"/>
  </clipPath>
</defs>
<polyline clip-path="url(#clip222)" style="stroke:#000000; stroke-linecap:butt; stroke-linejoin:round; stroke-width:2; stroke-opacity:0.1; fill:none" points="
  292.941,1800.78 292.941,47.2441 
  "/>
<polyline clip-path="url(#clip222)" style="stroke:#000000; stroke-linecap:butt; stroke-linejoin:round; stroke-width:2; stroke-opacity:0.1; fill:none" points="
  844.38,1800.78 844.38,47.2441 
  "/>
<polyline clip-path="url(#clip222)" style="stroke:#000000; stroke-linecap:butt; stroke-linejoin:round; stroke-width:2; stroke-opacity:0.1; fill:none" points="
  1395.82,1800.78 1395.82,47.2441 
  "/>
<polyline clip-path="url(#clip222)" style="stroke:#000000; stroke-linecap:butt; stroke-linejoin:round; stroke-width:2; stroke-opacity:0.1; fill:none" points="
  1947.26,1800.78 1947.26,47.2441 
  "/>
<polyline clip-path="url(#clip222)" style="stroke:#000000; stroke-linecap:butt; stroke-linejoin:round; stroke-width:2; stroke-opacity:0.1; fill:none" points="
  2498.7,1800.78 2498.7,47.2441 
  "/>
<polyline clip-path="url(#clip220)" style="stroke:#000000; stroke-linecap:butt; stroke-linejoin:round; stroke-width:4; stroke-opacity:1; fill:none" points="
  150.937,1800.78 2640.76,1800.78 
  "/>
<polyline clip-path="url(#clip220)" style="stroke:#000000; stroke-linecap:butt; stroke-linejoin:round; stroke-width:4; stroke-opacity:1; fill:none" points="
  292.941,1800.78 292.941,1781.88 
  "/>
<polyline clip-path="url(#clip220)" style="stroke:#000000; stroke-linecap:butt; stroke-linejoin:round; stroke-width:4; stroke-opacity:1; fill:none" points="
  844.38,1800.78 844.38,1781.88 
  "/>
<polyline clip-path="url(#clip220)" style="stroke:#000000; stroke-linecap:butt; stroke-linejoin:round; stroke-width:4; stroke-opacity:1; fill:none" points="
  1395.82,1800.78 1395.82,1781.88 
  "/>
<polyline clip-path="url(#clip220)" style="stroke:#000000; stroke-linecap:butt; stroke-linejoin:round; stroke-width:4; stroke-opacity:1; fill:none" points="
  1947.26,1800.78 1947.26,1781.88 
  "/>
<polyline clip-path="url(#clip220)" style="stroke:#000000; stroke-linecap:butt; stroke-linejoin:round; stroke-width:4; stroke-opacity:1; fill:none" points="
  2498.7,1800.78 2498.7,1781.88 
  "/>
<path clip-path="url(#clip220)" d="M261.842 1848.65 L291.518 1848.65 L291.518 1852.59 L261.842 1852.59 L261.842 1848.65 Z" fill="#000000" fill-rule="evenodd" fill-opacity="1" /><path clip-path="url(#clip220)" d="M314.457 1835 L302.652 1853.45 L314.457 1853.45 L314.457 1835 M313.23 1830.92 L319.11 1830.92 L319.11 1853.45 L324.041 1853.45 L324.041 1857.34 L319.11 1857.34 L319.11 1865.48 L314.457 1865.48 L314.457 1857.34 L298.856 1857.34 L298.856 1852.82 L313.23 1830.92 Z" fill="#000000" fill-rule="evenodd" fill-opacity="1" /><path clip-path="url(#clip220)" d="M814.322 1848.65 L843.998 1848.65 L843.998 1852.59 L814.322 1852.59 L814.322 1848.65 Z" fill="#000000" fill-rule="evenodd" fill-opacity="1" /><path clip-path="url(#clip220)" d="M858.118 1861.55 L874.437 1861.55 L874.437 1865.48 L852.493 1865.48 L852.493 1861.55 Q855.155 1858.79 859.738 1854.16 Q864.345 1849.51 865.525 1848.17 Q867.771 1845.65 868.65 1843.91 Q869.553 1842.15 869.553 1840.46 Q869.553 1837.71 867.609 1835.97 Q865.687 1834.23 862.586 1834.23 Q860.387 1834.23 857.933 1835 Q855.502 1835.76 852.725 1837.31 L852.725 1832.59 Q855.549 1831.46 858.002 1830.88 Q860.456 1830.3 862.493 1830.3 Q867.863 1830.3 871.058 1832.98 Q874.252 1835.67 874.252 1840.16 Q874.252 1842.29 873.442 1844.21 Q872.655 1846.11 870.549 1848.7 Q869.97 1849.37 866.868 1852.59 Q863.766 1855.78 858.118 1861.55 Z" fill="#000000" fill-rule="evenodd" fill-opacity="1" /><path clip-path="url(#clip220)" d="M1395.82 1834 Q1392.21 1834 1390.38 1837.57 Q1388.57 1841.11 1388.57 1848.24 Q1388.57 1855.34 1390.38 1858.91 Q1392.21 1862.45 1395.82 1862.45 Q1399.45 1862.45 1401.26 1858.91 Q1403.09 1855.34 1403.09 1848.24 Q1403.09 1841.11 1401.26 1837.57 Q1399.45 1834 1395.82 1834 M1395.82 1830.3 Q1401.63 1830.3 1404.68 1834.9 Q1407.76 1839.49 1407.76 1848.24 Q1407.76 1856.96 1404.68 1861.57 Q1401.63 1866.15 1395.82 1866.15 Q1390.01 1866.15 1386.93 1861.57 Q1383.87 1856.96 1383.87 1848.24 Q1383.87 1839.49 1386.93 1834.9 Q1390.01 1830.3 1395.82 1830.3 Z" fill="#000000" fill-rule="evenodd" fill-opacity="1" /><path clip-path="url(#clip220)" d="M1941.91 1861.55 L1958.23 1861.55 L1958.23 1865.48 L1936.28 1865.48 L1936.28 1861.55 Q1938.95 1858.79 1943.53 1854.16 Q1948.14 1849.51 1949.32 1848.17 Q1951.56 1845.65 1952.44 1843.91 Q1953.34 1842.15 1953.34 1840.46 Q1953.34 1837.71 1951.4 1835.97 Q1949.48 1834.23 1946.38 1834.23 Q1944.18 1834.23 1941.72 1835 Q1939.29 1835.76 1936.52 1837.31 L1936.52 1832.59 Q1939.34 1831.46 1941.79 1830.88 Q1944.25 1830.3 1946.28 1830.3 Q1951.65 1830.3 1954.85 1832.98 Q1958.04 1835.67 1958.04 1840.16 Q1958.04 1842.29 1957.23 1844.21 Q1956.45 1846.11 1954.34 1848.7 Q1953.76 1849.37 1950.66 1852.59 Q1947.56 1855.78 1941.91 1861.55 Z" fill="#000000" fill-rule="evenodd" fill-opacity="1" /><path clip-path="url(#clip220)" d="M2501.7 1835 L2489.9 1853.45 L2501.7 1853.45 L2501.7 1835 M2500.48 1830.92 L2506.36 1830.92 L2506.36 1853.45 L2511.29 1853.45 L2511.29 1857.34 L2506.36 1857.34 L2506.36 1865.48 L2501.7 1865.48 L2501.7 1857.34 L2486.1 1857.34 L2486.1 1852.82 L2500.48 1830.92 Z" fill="#000000" fill-rule="evenodd" fill-opacity="1" /><polyline clip-path="url(#clip222)" style="stroke:#000000; stroke-linecap:butt; stroke-linejoin:round; stroke-width:2; stroke-opacity:0.1; fill:none" points="
  150.937,1751.18 2640.76,1751.18 
  "/>
<polyline clip-path="url(#clip222)" style="stroke:#000000; stroke-linecap:butt; stroke-linejoin:round; stroke-width:2; stroke-opacity:0.1; fill:none" points="
  150.937,1475.46 2640.76,1475.46 
  "/>
<polyline clip-path="url(#clip222)" style="stroke:#000000; stroke-linecap:butt; stroke-linejoin:round; stroke-width:2; stroke-opacity:0.1; fill:none" points="
  150.937,1199.74 2640.76,1199.74 
  "/>
<polyline clip-path="url(#clip222)" style="stroke:#000000; stroke-linecap:butt; stroke-linejoin:round; stroke-width:2; stroke-opacity:0.1; fill:none" points="
  150.937,924.025 2640.76,924.025 
  "/>
<polyline clip-path="url(#clip222)" style="stroke:#000000; stroke-linecap:butt; stroke-linejoin:round; stroke-width:2; stroke-opacity:0.1; fill:none" points="
  150.937,648.306 2640.76,648.306 
  "/>
<polyline clip-path="url(#clip222)" style="stroke:#000000; stroke-linecap:butt; stroke-linejoin:round; stroke-width:2; stroke-opacity:0.1; fill:none" points="
  150.937,372.586 2640.76,372.586 
  "/>
<polyline clip-path="url(#clip222)" style="stroke:#000000; stroke-linecap:butt; stroke-linejoin:round; stroke-width:2; stroke-opacity:0.1; fill:none" points="
  150.937,96.867 2640.76,96.867 
  "/>
<polyline clip-path="url(#clip220)" style="stroke:#000000; stroke-linecap:butt; stroke-linejoin:round; stroke-width:4; stroke-opacity:1; fill:none" points="
  150.937,1800.78 150.937,47.2441 
  "/>
<polyline clip-path="url(#clip220)" style="stroke:#000000; stroke-linecap:butt; stroke-linejoin:round; stroke-width:4; stroke-opacity:1; fill:none" points="
  150.937,1751.18 169.834,1751.18 
  "/>
<polyline clip-path="url(#clip220)" style="stroke:#000000; stroke-linecap:butt; stroke-linejoin:round; stroke-width:4; stroke-opacity:1; fill:none" points="
  150.937,1475.46 169.834,1475.46 
  "/>
<polyline clip-path="url(#clip220)" style="stroke:#000000; stroke-linecap:butt; stroke-linejoin:round; stroke-width:4; stroke-opacity:1; fill:none" points="
  150.937,1199.74 169.834,1199.74 
  "/>
<polyline clip-path="url(#clip220)" style="stroke:#000000; stroke-linecap:butt; stroke-linejoin:round; stroke-width:4; stroke-opacity:1; fill:none" points="
  150.937,924.025 169.834,924.025 
  "/>
<polyline clip-path="url(#clip220)" style="stroke:#000000; stroke-linecap:butt; stroke-linejoin:round; stroke-width:4; stroke-opacity:1; fill:none" points="
  150.937,648.306 169.834,648.306 
  "/>
<polyline clip-path="url(#clip220)" style="stroke:#000000; stroke-linecap:butt; stroke-linejoin:round; stroke-width:4; stroke-opacity:1; fill:none" points="
  150.937,372.586 169.834,372.586 
  "/>
<polyline clip-path="url(#clip220)" style="stroke:#000000; stroke-linecap:butt; stroke-linejoin:round; stroke-width:4; stroke-opacity:1; fill:none" points="
  150.937,96.867 169.834,96.867 
  "/>
<path clip-path="url(#clip220)" d="M49.5521 1751.63 L79.2279 1751.63 L79.2279 1755.57 L49.5521 1755.57 L49.5521 1751.63 Z" fill="#000000" fill-rule="evenodd" fill-opacity="1" /><path clip-path="url(#clip220)" d="M103.487 1749.83 Q106.843 1750.55 108.718 1752.81 Q110.617 1755.08 110.617 1758.42 Q110.617 1763.53 107.098 1766.33 Q103.58 1769.13 97.0982 1769.13 Q94.9223 1769.13 92.6075 1768.69 Q90.3158 1768.28 87.8621 1767.42 L87.8621 1762.91 Q89.8065 1764.04 92.1213 1764.62 Q94.4361 1765.2 96.9593 1765.2 Q101.357 1765.2 103.649 1763.46 Q105.964 1761.73 105.964 1758.42 Q105.964 1755.36 103.811 1753.65 Q101.681 1751.91 97.8621 1751.91 L93.8343 1751.91 L93.8343 1748.07 L98.0472 1748.07 Q101.496 1748.07 103.325 1746.7 Q105.154 1745.31 105.154 1742.72 Q105.154 1740.06 103.256 1738.65 Q101.381 1737.21 97.8621 1737.21 Q95.9408 1737.21 93.7417 1737.63 Q91.5426 1738.05 88.9038 1738.93 L88.9038 1734.76 Q91.5658 1734.02 93.8806 1733.65 Q96.2185 1733.28 98.2787 1733.28 Q103.603 1733.28 106.705 1735.71 Q109.806 1738.12 109.806 1742.24 Q109.806 1745.11 108.163 1747.1 Q106.519 1749.06 103.487 1749.83 Z" fill="#000000" fill-rule="evenodd" fill-opacity="1" /><path clip-path="url(#clip220)" d="M50.5012 1475.91 L80.177 1475.91 L80.177 1479.85 L50.5012 1479.85 L50.5012 1475.91 Z" fill="#000000" fill-rule="evenodd" fill-opacity="1" /><path clip-path="url(#clip220)" d="M94.2973 1488.81 L110.617 1488.81 L110.617 1492.74 L88.6723 1492.74 L88.6723 1488.81 Q91.3343 1486.05 95.9176 1481.42 Q100.524 1476.77 101.705 1475.43 Q103.95 1472.91 104.83 1471.17 Q105.732 1469.41 105.732 1467.72 Q105.732 1464.97 103.788 1463.23 Q101.867 1461.49 98.7648 1461.49 Q96.5658 1461.49 94.1121 1462.26 Q91.6815 1463.02 88.9038 1464.57 L88.9038 1459.85 Q91.7278 1458.72 94.1815 1458.14 Q96.6352 1457.56 98.6722 1457.56 Q104.043 1457.56 107.237 1460.24 Q110.431 1462.93 110.431 1467.42 Q110.431 1469.55 109.621 1471.47 Q108.834 1473.37 106.728 1475.96 Q106.149 1476.63 103.047 1479.85 Q99.9454 1483.04 94.2973 1488.81 Z" fill="#000000" fill-rule="evenodd" fill-opacity="1" /><path clip-path="url(#clip220)" d="M50.1308 1200.2 L79.8066 1200.2 L79.8066 1204.13 L50.1308 1204.13 L50.1308 1200.2 Z" fill="#000000" fill-rule="evenodd" fill-opacity="1" /><path clip-path="url(#clip220)" d="M90.7093 1213.09 L98.3482 1213.09 L98.3482 1186.72 L90.038 1188.39 L90.038 1184.13 L98.3019 1182.46 L102.978 1182.46 L102.978 1213.09 L110.617 1213.09 L110.617 1217.02 L90.7093 1217.02 L90.7093 1213.09 Z" fill="#000000" fill-rule="evenodd" fill-opacity="1" /><path clip-path="url(#clip220)" d="M98.6722 909.823 Q95.0611 909.823 93.2324 913.388 Q91.4269 916.93 91.4269 924.059 Q91.4269 931.166 93.2324 934.731 Q95.0611 938.272 98.6722 938.272 Q102.306 938.272 104.112 934.731 Q105.941 931.166 105.941 924.059 Q105.941 916.93 104.112 913.388 Q102.306 909.823 98.6722 909.823 M98.6722 906.12 Q104.482 906.12 107.538 910.726 Q110.617 915.309 110.617 924.059 Q110.617 932.786 107.538 937.393 Q104.482 941.976 98.6722 941.976 Q92.8621 941.976 89.7834 937.393 Q86.7279 932.786 86.7279 924.059 Q86.7279 915.309 89.7834 910.726 Q92.8621 906.12 98.6722 906.12 Z" fill="#000000" fill-rule="evenodd" fill-opacity="1" /><path clip-path="url(#clip220)" d="M90.7093 661.65 L98.3482 661.65 L98.3482 635.285 L90.038 636.951 L90.038 632.692 L98.3019 631.026 L102.978 631.026 L102.978 661.65 L110.617 661.65 L110.617 665.586 L90.7093 665.586 L90.7093 661.65 Z" fill="#000000" fill-rule="evenodd" fill-opacity="1" /><path clip-path="url(#clip220)" d="M94.2973 385.931 L110.617 385.931 L110.617 389.866 L88.6723 389.866 L88.6723 385.931 Q91.3343 383.176 95.9176 378.547 Q100.524 373.894 101.705 372.552 Q103.95 370.028 104.83 368.292 Q105.732 366.533 105.732 364.843 Q105.732 362.089 103.788 360.353 Q101.867 358.616 98.7648 358.616 Q96.5658 358.616 94.1121 359.38 Q91.6815 360.144 88.9038 361.695 L88.9038 356.973 Q91.7278 355.839 94.1815 355.26 Q96.6352 354.681 98.6722 354.681 Q104.043 354.681 107.237 357.366 Q110.431 360.052 110.431 364.542 Q110.431 366.672 109.621 368.593 Q108.834 370.491 106.728 373.084 Q106.149 373.755 103.047 376.973 Q99.9454 380.167 94.2973 385.931 Z" fill="#000000" fill-rule="evenodd" fill-opacity="1" /><path clip-path="url(#clip220)" d="M103.487 95.5129 Q106.843 96.2305 108.718 98.499 Q110.617 100.767 110.617 104.101 Q110.617 109.217 107.098 112.017 Q103.58 114.818 97.0982 114.818 Q94.9223 114.818 92.6075 114.379 Q90.3158 113.962 87.8621 113.105 L87.8621 108.592 Q89.8065 109.726 92.1213 110.304 Q94.4361 110.883 96.9593 110.883 Q101.357 110.883 103.649 109.147 Q105.964 107.411 105.964 104.101 Q105.964 101.045 103.811 99.3323 Q101.681 97.5962 97.8621 97.5962 L93.8343 97.5962 L93.8343 93.7536 L98.0472 93.7536 Q101.496 93.7536 103.325 92.3879 Q105.154 90.999 105.154 88.4064 Q105.154 85.7444 103.256 84.3324 Q101.381 82.8972 97.8621 82.8972 Q95.9408 82.8972 93.7417 83.3139 Q91.5426 83.7305 88.9038 84.6102 L88.9038 80.4435 Q91.5658 79.7028 93.8806 79.3324 Q96.2185 78.962 98.2787 78.962 Q103.603 78.962 106.705 81.3926 Q109.806 83.8 109.806 87.9203 Q109.806 90.7907 108.163 92.7814 Q106.519 94.749 103.487 95.5129 Z" fill="#000000" fill-rule="evenodd" fill-opacity="1" /><polyline clip-path="url(#clip222)" style="stroke:#009af9; stroke-linecap:butt; stroke-linejoin:round; stroke-width:4; stroke-opacity:1; fill:none" points="
  1947.26,924.025 1947.23,921.205 1947.14,918.386 1947,915.567 1946.8,912.749 1945.11,899.741 1942.2,886.788 1938.07,873.917 1932.73,861.159 1926.19,848.541 
  1918.46,836.092 1909.57,823.84 1899.52,811.811 1885.96,797.688 1870.82,783.973 1854.14,770.709 1835.99,757.941 1819.53,747.563 1802.09,737.591 1783.71,728.05 
  1764.44,718.962 1742.54,709.626 1719.7,700.874 1695.97,692.729 1671.43,685.215 1648.14,678.863 1624.27,673.079 1599.86,667.875 1574.99,663.265 1547.86,658.992 
  1520.32,655.425 1492.46,652.572 1464.33,650.442 1431.53,648.884 1398.59,648.309 1365.65,648.718 1332.82,650.111 1303.82,652.17 1275.09,654.995 1246.69,658.579 
  1218.72,662.912 1194.59,667.318 1170.91,672.281 1147.71,677.79 1125.05,683.833 1101.02,691.014 1077.74,698.797 1055.29,707.16 1033.71,716.082 1012.95,725.598 
  993.182,735.631 974.468,746.156 956.854,757.146 938.713,769.801 922.031,782.948 906.859,796.546 893.247,810.549 881.783,824.21 871.802,838.159 863.335,852.356 
  856.404,866.76 850.85,881.911 846.997,897.194 844.857,912.561 844.436,927.963 845.416,940.921 847.614,953.841 851.024,966.696 855.639,979.456 862.892,994.866 
  871.902,1010.04 882.639,1024.93 895.068,1039.49 907.903,1052.5 922.088,1065.15 937.584,1077.41 954.348,1089.24 970.916,1099.77 988.487,1109.88 1007.02,1119.55 
  1026.47,1128.76 1047.06,1137.6 1068.5,1145.92 1090.72,1153.7 1113.69,1160.93 1140.24,1168.34 1167.56,1175.02 1195.58,1180.92 1224.21,1186.05 1250.61,1190.01 
  1277.37,1193.31 1304.42,1195.93 1331.7,1197.87 1363.13,1199.26 1394.67,1199.74 1426.21,1199.32 1457.65,1198.01 1486.58,1195.98 1515.26,1193.2 1543.6,1189.66 
  1571.53,1185.37 1598.58,1180.43 1625.08,1174.79 1650.95,1168.46 1676.13,1161.47 1699.84,1154.05 1722.77,1146.05 1744.86,1137.48 1766.06,1128.36 1786.79,1118.46 
  1806.47,1108.04 1825.04,1097.12 1842.45,1085.73 1860.14,1072.76 1876.32,1059.3 1890.95,1045.4 1903.97,1031.11 1912.39,1020.51 1919.93,1009.75 1926.57,998.834 
  1932.31,987.794 1941.01,965.405 1945.99,942.732 1946.54,938.06 1946.94,933.384 1947.18,928.705 1947.26,924.025 
  "/>
<polyline clip-path="url(#clip222)" style="stroke:#e26f46; stroke-linecap:butt; stroke-linejoin:round; stroke-width:4; stroke-opacity:1; fill:none" points="
  1809.4,924.025 1809.33,924.026 1809.14,924.032 1808.81,924.049 1808.36,924.081 1806.82,924.247 1804.59,924.59 1801.7,925.174 1798.13,926.062 1793.92,927.314 
  1789.08,928.989 1783.62,931.143 1777.57,933.829 1763.78,940.997 1747.93,950.856 1730.26,963.707 1711.02,979.785 1698.83,991.069 1686.24,1003.6 1673.33,1017.39 
  1660.15,1032.43 1646.78,1048.72 1633.28,1066.24 1619.72,1084.95 1606.16,1104.81 1583.43,1140.87 1561.21,1179.74 1539.76,1221.04 1519.36,1264.32 1498.62,1312.94 
  1479.61,1362.54 1462.52,1412.33 1447.46,1461.48 1435.44,1505.52 1425.22,1547.66 1420.78,1567.81 1416.77,1587.26 1413.18,1605.92 1410,1623.72 1407.03,1641.78 
  1404.49,1658.68 1402.34,1674.36 1400.58,1688.75 1399.16,1701.77 1398.04,1713.37 1397.21,1723.5 1396.61,1732.1 1396.17,1740.12 1395.93,1745.98 1395.84,1749.67 
  1395.82,1751.15 1395.81,1750.42 1395.75,1747.47 1395.57,1742.34 1395.2,1735.04 1394.67,1726.78 1393.9,1716.89 1392.85,1705.42 1391.48,1692.43 1389.75,1677.97 
  1387.64,1662.12 1385.1,1644.96 1382.12,1626.57 1375.72,1591.6 1367.76,1553.62 1358.15,1513.19 1346.86,1470.87 1332.63,1423.27 1316.45,1374.9 1298.42,1326.52 
  1278.71,1278.85 1257.39,1232.34 1234.83,1187.89 1211.32,1146.09 1187.2,1107.42 1173.73,1087.54 1160.25,1068.78 1146.82,1051.2 1133.51,1034.83 1120.38,1019.68 
  1107.49,1005.78 1094.92,993.116 1082.74,981.687 1071.55,971.941 1060.82,963.268 1050.59,955.638 1040.92,949.008 1031.86,943.331 1023.44,938.552 1015.71,934.609 
  1008.71,931.435 1002.24,928.872 996.628,926.972 991.906,925.643 988.1,924.787 985.23,924.302 983.311,924.084 982.355,924.027 982.366,924.022 983.125,923.98 
  984.567,923.834 986.685,923.522 989.473,922.979 992.918,922.144 997.009,920.959 1001.73,919.364 1007.06,917.303 1014.36,914.081 1022.51,909.995 1031.45,904.963 
  1041.12,898.909 1051.49,891.766 1062.49,883.475 1074.05,873.988 1086.12,863.268 1109.33,840.341 1133.6,813.109 1146,797.889 1158.5,781.62 1171.05,764.329 
  1183.61,746.049 1206.61,709.823 1229.13,670.687 1250.86,629.043 1271.55,585.363 1291.19,539.59 1309.32,492.89 1325.77,445.916 1340.43,399.353 1347.83,373.7 
  1354.64,348.519 1360.86,323.933 1366.49,300.062 1371.54,277.027 1376.02,254.941 1379.95,233.918 1383.35,214.065 1386.01,197.171 1388.27,181.393 1390.16,166.799 
  1391.72,153.45 1392.97,141.405 1393.94,130.716 1394.66,121.429 1395.17,113.583 1395.54,106.415 1395.73,101.223 1395.81,98.0357 1395.82,96.8724 1395.83,97.7396 
  1395.89,100.632 1396.06,105.534 1396.4,112.416 1396.91,120.52 1397.66,130.25 1398.68,141.557 1400.02,154.386 1401.71,168.676 1403.78,184.357 1406.27,201.354 
  1409.2,219.586 1416.38,258.809 1425.54,301.769 1430.89,324.411 1436.78,347.692 1443.19,371.51 1450.14,395.76 1465.13,443.693 1482.02,492.096 1500.7,540.221 
  1520.99,587.353 1543.22,633.938 1566.62,678.128 1590.86,719.354 1615.57,757.147 1629.17,776.258 1642.72,794.181 1656.17,810.882 1669.45,826.335 1682.48,840.528 
  1695.2,853.456 1707.54,865.128 1719.44,875.562 1735.8,888.576 1750.91,899.167 1764.58,907.503 1776.66,913.791 1787.01,918.275 1795.5,921.229 1802.04,922.952 
  1806.54,923.766 1807.79,923.916 1808.68,923.992 1809.22,924.021 1809.4,924.025 
  "/>
</svg>
