<?xml version="1.0" encoding="utf-8"?>
<svg xmlns="http://www.w3.org/2000/svg" xmlns:xlink="http://www.w3.org/1999/xlink" width="672" height="480" viewBox="0 0 2688 1920">
<defs>
  <clipPath id="clip240">
    <rect x="0" y="0" width="2688" height="1920"/>
  </clipPath>
</defs>
<path clip-path="url(#clip240)" d="
M0 1920 L2688 1920 L2688 0 L0 0  Z
  " fill="#ffffff" fill-rule="evenodd" fill-opacity="1"/>
<defs>
  <clipPath id="clip241">
    <rect x="537" y="0" width="1883" height="1883"/>
  </clipPath>
</defs>
<path clip-path="url(#clip240)" d="
M195.821 1800.78 L2640.76 1800.78 L2640.76 47.2441 L195.821 47.2441  Z
  " fill="#ffffff" fill-rule="evenodd" fill-opacity="1"/>
<defs>
  <clipPath id="clip242">
    <rect x="195" y="47" width="2446" height="1755"/>
  </clipPath>
</defs>
<polyline clip-path="url(#clip242)" style="stroke:#000000; stroke-linecap:butt; stroke-linejoin:round; stroke-width:2; stroke-opacity:0.1; fill:none" points="
  265.017,1800.78 265.017,47.2441 
  "/>
<polyline clip-path="url(#clip242)" style="stroke:#000000; stroke-linecap:butt; stroke-linejoin:round; stroke-width:2; stroke-opacity:0.1; fill:none" points="
  841.653,1800.78 841.653,47.2441 
  "/>
<polyline clip-path="url(#clip242)" style="stroke:#000000; stroke-linecap:butt; stroke-linejoin:round; stroke-width:2; stroke-opacity:0.1; fill:none" points="
  1418.29,1800.78 1418.29,47.2441 
  "/>
<polyline clip-path="url(#clip242)" style="stroke:#000000; stroke-linecap:butt; stroke-linejoin:round; stroke-width:2; stroke-opacity:0.1; fill:none" points="
  1994.92,1800.78 1994.92,47.2441 
  "/>
<polyline clip-path="url(#clip242)" style="stroke:#000000; stroke-linecap:butt; stroke-linejoin:round; stroke-width:2; stroke-opacity:0.1; fill:none" points="
  2571.56,1800.78 2571.56,47.2441 
  "/>
<polyline clip-path="url(#clip240)" style="stroke:#000000; stroke-linecap:butt; stroke-linejoin:round; stroke-width:4; stroke-opacity:1; fill:none" points="
  195.821,1800.78 2640.76,1800.78 
  "/>
<polyline clip-path="url(#clip240)" style="stroke:#000000; stroke-linecap:butt; stroke-linejoin:round; stroke-width:4; stroke-opacity:1; fill:none" points="
  265.017,1800.78 265.017,1781.88 
  "/>
<polyline clip-path="url(#clip240)" style="stroke:#000000; stroke-linecap:butt; stroke-linejoin:round; stroke-width:4; stroke-opacity:1; fill:none" points="
  841.653,1800.78 841.653,1781.88 
  "/>
<polyline clip-path="url(#clip240)" style="stroke:#000000; stroke-linecap:butt; stroke-linejoin:round; stroke-width:4; stroke-opacity:1; fill:none" points="
  1418.29,1800.78 1418.29,1781.88 
  "/>
<polyline clip-path="url(#clip240)" style="stroke:#000000; stroke-linecap:butt; stroke-linejoin:round; stroke-width:4; stroke-opacity:1; fill:none" points="
  1994.92,1800.78 1994.92,1781.88 
  "/>
<polyline clip-path="url(#clip240)" style="stroke:#000000; stroke-linecap:butt; stroke-linejoin:round; stroke-width:4; stroke-opacity:1; fill:none" points="
  2571.56,1800.78 2571.56,1781.88 
  "/>
<path clip-path="url(#clip240)" d="M234.959 1848.65 L264.635 1848.65 L264.635 1852.59 L234.959 1852.59 L234.959 1848.65 Z" fill="#000000" fill-rule="evenodd" fill-opacity="1" /><path clip-path="url(#clip240)" d="M278.755 1861.55 L295.075 1861.55 L295.075 1865.48 L273.13 1865.48 L273.13 1861.55 Q275.792 1858.79 280.376 1854.16 Q284.982 1849.51 286.163 1848.17 Q288.408 1845.65 289.288 1843.91 Q290.19 1842.15 290.19 1840.46 Q290.19 1837.71 288.246 1835.97 Q286.325 1834.23 283.223 1834.23 Q281.024 1834.23 278.57 1835 Q276.14 1835.76 273.362 1837.31 L273.362 1832.59 Q276.186 1831.46 278.64 1830.88 Q281.093 1830.3 283.13 1830.3 Q288.501 1830.3 291.695 1832.98 Q294.889 1835.67 294.889 1840.16 Q294.889 1842.29 294.079 1844.21 Q293.292 1846.11 291.186 1848.7 Q290.607 1849.37 287.505 1852.59 Q284.403 1855.78 278.755 1861.55 Z" fill="#000000" fill-rule="evenodd" fill-opacity="1" /><path clip-path="url(#clip240)" d="M811.41 1848.65 L841.085 1848.65 L841.085 1852.59 L811.41 1852.59 L811.41 1848.65 Z" fill="#000000" fill-rule="evenodd" fill-opacity="1" /><path clip-path="url(#clip240)" d="M851.988 1861.55 L859.627 1861.55 L859.627 1835.18 L851.317 1836.85 L851.317 1832.59 L859.581 1830.92 L864.257 1830.92 L864.257 1861.55 L871.895 1861.55 L871.895 1865.48 L851.988 1865.48 L851.988 1861.55 Z" fill="#000000" fill-rule="evenodd" fill-opacity="1" /><path clip-path="url(#clip240)" d="M1418.29 1834 Q1414.68 1834 1412.85 1837.57 Q1411.04 1841.11 1411.04 1848.24 Q1411.04 1855.34 1412.85 1858.91 Q1414.68 1862.45 1418.29 1862.45 Q1421.92 1862.45 1423.73 1858.91 Q1425.56 1855.34 1425.56 1848.24 Q1425.56 1841.11 1423.73 1837.57 Q1421.92 1834 1418.29 1834 M1418.29 1830.3 Q1424.1 1830.3 1427.15 1834.9 Q1430.23 1839.49 1430.23 1848.24 Q1430.23 1856.96 1427.15 1861.57 Q1424.1 1866.15 1418.29 1866.15 Q1412.48 1866.15 1409.4 1861.57 Q1406.34 1856.96 1406.34 1848.24 Q1406.34 1839.49 1409.4 1834.9 Q1412.48 1830.3 1418.29 1830.3 Z" fill="#000000" fill-rule="evenodd" fill-opacity="1" /><path clip-path="url(#clip240)" d="M1985.31 1861.55 L1992.94 1861.55 L1992.94 1835.18 L1984.63 1836.85 L1984.63 1832.59 L1992.9 1830.92 L1997.57 1830.92 L1997.57 1861.55 L2005.21 1861.55 L2005.21 1865.48 L1985.31 1865.48 L1985.31 1861.55 Z" fill="#000000" fill-rule="evenodd" fill-opacity="1" /><path clip-path="url(#clip240)" d="M2566.21 1861.55 L2582.53 1861.55 L2582.53 1865.48 L2560.59 1865.48 L2560.59 1861.55 Q2563.25 1858.79 2567.83 1854.16 Q2572.44 1849.51 2573.62 1848.17 Q2575.87 1845.65 2576.74 1843.91 Q2577.65 1842.15 2577.65 1840.46 Q2577.65 1837.71 2575.7 1835.97 Q2573.78 1834.23 2570.68 1834.23 Q2568.48 1834.23 2566.03 1835 Q2563.6 1835.76 2560.82 1837.31 L2560.82 1832.59 Q2563.64 1831.46 2566.1 1830.88 Q2568.55 1830.3 2570.59 1830.3 Q2575.96 1830.3 2579.15 1832.98 Q2582.35 1835.67 2582.35 1840.16 Q2582.35 1842.29 2581.54 1844.21 Q2580.75 1846.11 2578.64 1848.7 Q2578.06 1849.37 2574.96 1852.59 Q2571.86 1855.78 2566.21 1861.55 Z" fill="#000000" fill-rule="evenodd" fill-opacity="1" /><polyline clip-path="url(#clip242)" style="stroke:#000000; stroke-linecap:butt; stroke-linejoin:round; stroke-width:2; stroke-opacity:0.1; fill:none" points="
  195.821,1509.33 2640.76,1509.33 
  "/>
<polyline clip-path="url(#clip242)" style="stroke:#000000; stroke-linecap:butt; stroke-linejoin:round; stroke-width:2; stroke-opacity:0.1; fill:none" points="
  195.821,1038.51 2640.76,1038.51 
  "/>
<polyline clip-path="url(#clip242)" style="stroke:#000000; stroke-linecap:butt; stroke-linejoin:round; stroke-width:2; stroke-opacity:0.1; fill:none" points="
  195.821,567.688 2640.76,567.688 
  "/>
<polyline clip-path="url(#clip242)" style="stroke:#000000; stroke-linecap:butt; stroke-linejoin:round; stroke-width:2; stroke-opacity:0.1; fill:none" points="
  195.821,96.8646 2640.76,96.8646 
  "/>
<polyline clip-path="url(#clip240)" style="stroke:#000000; stroke-linecap:butt; stroke-linejoin:round; stroke-width:4; stroke-opacity:1; fill:none" points="
  195.821,1800.78 195.821,47.2441 
  "/>
<polyline clip-path="url(#clip240)" style="stroke:#000000; stroke-linecap:butt; stroke-linejoin:round; stroke-width:4; stroke-opacity:1; fill:none" points="
  195.821,1509.33 214.718,1509.33 
  "/>
<polyline clip-path="url(#clip240)" style="stroke:#000000; stroke-linecap:butt; stroke-linejoin:round; stroke-width:4; stroke-opacity:1; fill:none" points="
  195.821,1038.51 214.718,1038.51 
  "/>
<polyline clip-path="url(#clip240)" style="stroke:#000000; stroke-linecap:butt; stroke-linejoin:round; stroke-width:4; stroke-opacity:1; fill:none" points="
  195.821,567.688 214.718,567.688 
  "/>
<polyline clip-path="url(#clip240)" style="stroke:#000000; stroke-linecap:butt; stroke-linejoin:round; stroke-width:4; stroke-opacity:1; fill:none" points="
  195.821,96.8646 214.718,96.8646 
  "/>
<path clip-path="url(#clip240)" d="M49.5521 1509.79 L79.2279 1509.79 L79.2279 1513.72 L49.5521 1513.72 L49.5521 1509.79 Z" fill="#000000" fill-rule="evenodd" fill-opacity="1" /><path clip-path="url(#clip240)" d="M99.3204 1495.13 Q95.7093 1495.13 93.8806 1498.7 Q92.075 1502.24 92.075 1509.37 Q92.075 1516.48 93.8806 1520.04 Q95.7093 1523.58 99.3204 1523.58 Q102.955 1523.58 104.76 1520.04 Q106.589 1516.48 106.589 1509.37 Q106.589 1502.24 104.76 1498.7 Q102.955 1495.13 99.3204 1495.13 M99.3204 1491.43 Q105.131 1491.43 108.186 1496.04 Q111.265 1500.62 111.265 1509.37 Q111.265 1518.1 108.186 1522.7 Q105.131 1527.29 99.3204 1527.29 Q93.5102 1527.29 90.4315 1522.7 Q87.376 1518.1 87.376 1509.37 Q87.376 1500.62 90.4315 1496.04 Q93.5102 1491.43 99.3204 1491.43 Z" fill="#000000" fill-rule="evenodd" fill-opacity="1" /><path clip-path="url(#clip240)" d="M119.482 1520.73 L124.367 1520.73 L124.367 1526.61 L119.482 1526.61 L119.482 1520.73 Z" fill="#000000" fill-rule="evenodd" fill-opacity="1" /><path clip-path="url(#clip240)" d="M134.598 1492.05 L152.954 1492.05 L152.954 1495.99 L138.88 1495.99 L138.88 1504.46 Q139.899 1504.11 140.917 1503.95 Q141.936 1503.77 142.954 1503.77 Q148.741 1503.77 152.121 1506.94 Q155.501 1510.11 155.501 1515.53 Q155.501 1521.1 152.028 1524.21 Q148.556 1527.29 142.237 1527.29 Q140.061 1527.29 137.792 1526.91 Q135.547 1526.54 133.14 1525.8 L133.14 1521.1 Q135.223 1522.24 137.445 1522.79 Q139.667 1523.35 142.144 1523.35 Q146.149 1523.35 148.487 1521.24 Q150.825 1519.14 150.825 1515.53 Q150.825 1511.91 148.487 1509.81 Q146.149 1507.7 142.144 1507.7 Q140.269 1507.7 138.394 1508.12 Q136.542 1508.54 134.598 1509.41 L134.598 1492.05 Z" fill="#000000" fill-rule="evenodd" fill-opacity="1" /><path clip-path="url(#clip240)" d="M98.325 1024.31 Q94.7139 1024.31 92.8852 1027.87 Q91.0797 1031.42 91.0797 1038.55 Q91.0797 1045.65 92.8852 1049.22 Q94.7139 1052.76 98.325 1052.76 Q101.959 1052.76 103.765 1049.22 Q105.593 1045.65 105.593 1038.55 Q105.593 1031.42 103.765 1027.87 Q101.959 1024.31 98.325 1024.31 M98.325 1020.61 Q104.135 1020.61 107.191 1025.21 Q110.269 1029.8 110.269 1038.55 Q110.269 1047.27 107.191 1051.88 Q104.135 1056.46 98.325 1056.46 Q92.5149 1056.46 89.4362 1051.88 Q86.3806 1047.27 86.3806 1038.55 Q86.3806 1029.8 89.4362 1025.21 Q92.5149 1020.61 98.325 1020.61 Z" fill="#000000" fill-rule="evenodd" fill-opacity="1" /><path clip-path="url(#clip240)" d="M118.487 1049.91 L123.371 1049.91 L123.371 1055.79 L118.487 1055.79 L118.487 1049.91 Z" fill="#000000" fill-rule="evenodd" fill-opacity="1" /><path clip-path="url(#clip240)" d="M143.556 1024.31 Q139.945 1024.31 138.116 1027.87 Q136.311 1031.42 136.311 1038.55 Q136.311 1045.65 138.116 1049.22 Q139.945 1052.76 143.556 1052.76 Q147.19 1052.76 148.996 1049.22 Q150.825 1045.65 150.825 1038.55 Q150.825 1031.42 148.996 1027.87 Q147.19 1024.31 143.556 1024.31 M143.556 1020.61 Q149.366 1020.61 152.422 1025.21 Q155.501 1029.8 155.501 1038.55 Q155.501 1047.27 152.422 1051.88 Q149.366 1056.46 143.556 1056.46 Q137.746 1056.46 134.667 1051.88 Q131.612 1047.27 131.612 1038.55 Q131.612 1029.8 134.667 1025.21 Q137.746 1020.61 143.556 1020.61 Z" fill="#000000" fill-rule="evenodd" fill-opacity="1" /><path clip-path="url(#clip240)" d="M99.3204 553.486 Q95.7093 553.486 93.8806 557.051 Q92.075 560.593 92.075 567.722 Q92.075 574.829 93.8806 578.394 Q95.7093 581.935 99.3204 581.935 Q102.955 581.935 104.76 578.394 Q106.589 574.829 106.589 567.722 Q106.589 560.593 104.76 557.051 Q102.955 553.486 99.3204 553.486 M99.3204 549.783 Q105.131 549.783 108.186 554.389 Q111.265 558.972 111.265 567.722 Q111.265 576.449 108.186 581.056 Q105.131 585.639 99.3204 585.639 Q93.5102 585.639 90.4315 581.056 Q87.376 576.449 87.376 567.722 Q87.376 558.972 90.4315 554.389 Q93.5102 549.783 99.3204 549.783 Z" fill="#000000" fill-rule="evenodd" fill-opacity="1" /><path clip-path="url(#clip240)" d="M119.482 579.088 L124.367 579.088 L124.367 584.968 L119.482 584.968 L119.482 579.088 Z" fill="#000000" fill-rule="evenodd" fill-opacity="1" /><path clip-path="url(#clip240)" d="M134.598 550.408 L152.954 550.408 L152.954 554.343 L138.88 554.343 L138.88 562.815 Q139.899 562.468 140.917 562.306 Q141.936 562.121 142.954 562.121 Q148.741 562.121 152.121 565.292 Q155.501 568.463 155.501 573.88 Q155.501 579.458 152.028 582.56 Q148.556 585.639 142.237 585.639 Q140.061 585.639 137.792 585.269 Q135.547 584.898 133.14 584.158 L133.14 579.458 Q135.223 580.593 137.445 581.148 Q139.667 581.704 142.144 581.704 Q146.149 581.704 148.487 579.597 Q150.825 577.491 150.825 573.88 Q150.825 570.269 148.487 568.162 Q146.149 566.056 142.144 566.056 Q140.269 566.056 138.394 566.472 Q136.542 566.889 134.598 567.769 L134.598 550.408 Z" fill="#000000" fill-rule="evenodd" fill-opacity="1" /><path clip-path="url(#clip240)" d="M89.1352 110.209 L96.7741 110.209 L96.7741 83.8438 L88.464 85.5105 L88.464 81.2513 L96.7278 79.5846 L101.404 79.5846 L101.404 110.209 L109.043 110.209 L109.043 114.145 L89.1352 114.145 L89.1352 110.209 Z" fill="#000000" fill-rule="evenodd" fill-opacity="1" /><path clip-path="url(#clip240)" d="M118.487 108.265 L123.371 108.265 L123.371 114.145 L118.487 114.145 L118.487 108.265 Z" fill="#000000" fill-rule="evenodd" fill-opacity="1" /><path clip-path="url(#clip240)" d="M143.556 82.6633 Q139.945 82.6633 138.116 86.2281 Q136.311 89.7697 136.311 96.8993 Q136.311 104.006 138.116 107.571 Q139.945 111.112 143.556 111.112 Q147.19 111.112 148.996 107.571 Q150.825 104.006 150.825 96.8993 Q150.825 89.7697 148.996 86.2281 Q147.19 82.6633 143.556 82.6633 M143.556 78.9596 Q149.366 78.9596 152.422 83.5661 Q155.501 88.1494 155.501 96.8993 Q155.501 105.626 152.422 110.233 Q149.366 114.816 143.556 114.816 Q137.746 114.816 134.667 110.233 Q131.612 105.626 131.612 96.8993 Q131.612 88.1494 134.667 83.5661 Q137.746 78.9596 143.556 78.9596 Z" fill="#000000" fill-rule="evenodd" fill-opacity="1" /><polyline clip-path="url(#clip242)" style="stroke:#009af9; stroke-linecap:butt; stroke-linejoin:round; stroke-width:4; stroke-opacity:1; fill:none" points="
  265.017,259.937 268.771,255.324 272.525,250.763 276.28,246.256 280.034,241.804 297.39,221.95 314.747,203.349 332.103,186.067 349.46,170.168 366.817,155.71 
  384.173,142.743 401.53,131.317 418.886,121.471 439.747,111.779 460.609,104.473 471.039,101.727 481.47,99.5907 491.9,98.0671 502.331,97.1581 519.969,97.0221 
  537.606,98.647 555.244,102.027 572.882,107.148 592.042,114.664 611.201,124.179 630.361,135.652 649.521,149.032 667.184,163.006 684.848,178.498 702.511,195.451 
  720.175,213.801 739.112,234.946 758.049,257.526 776.986,281.444 795.923,306.597 817.863,337.139 839.804,369.015 861.745,402.042 883.685,436.027 922.681,498.184 
  961.678,561.61 995.874,617.359 1030.07,672.411 1048.71,701.851 1067.35,730.729 1085.99,758.927 1104.64,786.325 1123.39,812.964 1142.14,838.566 1160.89,863.023 
  1179.65,886.23 1200.38,910.317 1221.11,932.633 1241.84,953.063 1262.58,971.501 1282.3,987.107 1302.03,1000.75 1321.76,1012.37 1341.49,1021.9 1362,1029.57 
  1382.51,1034.89 1403.02,1037.85 1423.53,1038.43 1440.8,1037.08 1458.06,1034.04 1475.33,1029.33 1492.6,1022.96 1513.68,1012.98 1534.76,1000.61 1555.84,985.939 
  1576.92,969.029 1596.23,951.654 1615.54,932.557 1634.85,911.823 1654.16,889.547 1672,867.688 1689.83,844.682 1707.67,820.616 1725.5,795.583 1743.57,769.336 
  1761.63,742.299 1779.7,714.575 1797.77,686.276 1838.26,621.322 1878.76,555.313 1915.45,495.673 1952.15,437.198 1973.15,404.613 1994.16,372.894 2015.16,342.209 
  2036.17,312.72 2055.62,286.618 2075.07,261.796 2094.52,238.365 2113.97,216.432 2133.15,196.372 2152.32,177.954 2171.5,161.26 2190.67,146.363 2209.29,133.68 
  2227.91,122.807 2246.53,113.789 2265.14,106.662 2284.23,101.351 2303.32,98.0834 2322.4,96.8724 2341.49,97.7238 2351.94,99.0636 2362.4,101.02 2372.85,103.589 
  2383.31,106.769 2393.76,110.555 2404.22,114.942 2414.67,119.924 2425.13,125.495 2440.32,134.621 2455.5,144.949 2470.69,156.449 2485.88,169.091 2501.07,182.838 
  2516.26,197.653 2531.44,213.495 2546.63,230.319 2552.86,237.496 2559.1,244.826 2565.33,252.308 2571.56,259.937 
  "/>
<polyline clip-path="url(#clip242)" style="stroke:#e26f46; stroke-linecap:butt; stroke-linejoin:round; stroke-width:4; stroke-opacity:1; fill:none" points="
  265.017,1751.15 268.771,1734.91 272.525,1718.25 276.28,1701.19 280.034,1683.75 288.712,1642.05 297.39,1598.58 306.069,1553.54 314.747,1507.11 332.103,1410.9 
  349.46,1311.46 384.173,1108.64 418.886,909.21 429.317,851.322 439.747,794.756 450.178,739.703 460.609,686.336 471.039,634.81 481.47,585.265 491.9,537.824 
  502.331,492.596 511.15,456.149 519.969,421.397 528.788,388.378 537.606,357.125 546.425,327.662 555.244,300.007 564.063,274.174 572.882,250.166 582.462,226.156 
  592.042,204.292 601.622,184.56 611.201,166.937 620.781,151.396 630.361,137.901 639.941,126.415 649.521,116.892 658.352,109.81 667.184,104.315 676.016,100.362 
  684.848,97.905 693.679,96.8969 702.511,97.2876 711.343,99.0257 720.175,102.059 729.643,106.688 739.112,112.678 748.58,119.96 758.049,128.466 767.517,138.129 
  776.986,148.88 786.454,160.651 795.923,173.375 817.863,206.157 839.804,242.892 861.745,282.809 883.685,325.181 961.678,486.006 1030.07,626.164 1048.71,662.491 
  1067.35,697.661 1085.99,731.526 1104.64,763.957 1123.39,795.026 1142.14,824.442 1160.89,852.127 1179.65,878.018 1200.38,904.493 1221.11,928.659 1241.84,950.474 
  1262.58,969.909 1282.3,986.171 1302.03,1000.25 1321.76,1012.13 1341.49,1021.81 1362,1029.54 1382.51,1034.89 1403.02,1037.85 1423.53,1038.43 1440.8,1037.08 
  1458.06,1034.03 1475.33,1029.3 1492.6,1022.87 1513.68,1012.75 1534.76,1000.11 1555.84,984.96 1576.92,967.318 1596.23,948.979 1615.54,928.577 1634.85,906.135 
  1654.16,881.687 1672,857.361 1689.83,831.403 1707.67,803.864 1725.5,774.807 1743.57,743.903 1761.63,711.614 1779.7,678.046 1797.77,643.329 1878.76,477.926 
  1952.15,326.658 1973.15,285.977 1994.16,247.497 2015.16,211.851 2036.17,179.713 2055.62,153.695 2075.07,131.863 2084.8,122.701 2094.52,114.806 2104.25,108.253 
  2113.97,103.114 2123.56,99.503 2133.15,97.4065 2142.73,96.8916 2152.32,98.024 2161.91,100.867 2171.5,105.483 2181.09,111.928 2190.67,120.26 2199.98,130.201 
  2209.29,142.012 2218.6,155.731 2227.91,171.394 2237.22,189.029 2246.53,208.661 2255.84,230.31 2265.14,253.987 2274.69,280.372 2284.23,308.893 2293.77,339.543 
  2303.32,372.302 2312.86,407.144 2322.4,444.033 2331.94,482.922 2341.49,523.754 2351.94,570.642 2362.4,619.679 2372.85,670.746 2383.31,723.706 2393.76,778.408 
  2404.22,834.683 2414.67,892.344 2425.13,951.189 2455.5,1126.77 2485.88,1304.3 2501.07,1391.61 2516.26,1476.67 2531.44,1558.47 2546.63,1635.99 2552.86,1666.31 
  2559.1,1695.66 2565.33,1723.96 2571.56,1751.15 
  "/>
<path clip-path="url(#clip240)" d="
M2212.85 261.215 L2559.26 261.215 L2559.26 105.695 L2212.85 105.695  Z
  " fill="#ffffff" fill-rule="evenodd" fill-opacity="1"/>
<polyline clip-path="url(#clip240)" style="stroke:#000000; stroke-linecap:butt; stroke-linejoin:round; stroke-width:4; stroke-opacity:1; fill:none" points="
  2212.85,261.215 2559.26,261.215 2559.26,105.695 2212.85,105.695 2212.85,261.215 
  "/>
<polyline clip-path="url(#clip240)" style="stroke:#009af9; stroke-linecap:butt; stroke-linejoin:round; stroke-width:4; stroke-opacity:1; fill:none" points="
  2240.02,157.535 2403.02,157.535 
  "/>
<path clip-path="url(#clip240)" d="M2446.69 138.797 L2446.69 142.339 L2442.61 142.339 Q2440.32 142.339 2439.42 143.265 Q2438.54 144.19 2438.54 146.598 L2438.54 148.889 L2445.55 148.889 L2445.55 152.2 L2438.54 152.2 L2438.54 174.815 L2434.26 174.815 L2434.26 152.2 L2430.18 152.2 L2430.18 148.889 L2434.26 148.889 L2434.26 147.084 Q2434.26 142.755 2436.27 140.788 Q2438.28 138.797 2442.66 138.797 L2446.69 138.797 Z" fill="#000000" fill-rule="evenodd" fill-opacity="1" /><path clip-path="url(#clip240)" d="M2460.62 155.533 Q2458.77 155.533 2457.5 156.829 Q2456.22 158.102 2456.22 159.954 Q2456.22 161.783 2457.5 163.056 Q2458.77 164.306 2460.62 164.306 Q2462.47 164.306 2463.75 163.056 Q2465.02 161.783 2465.02 159.954 Q2465.02 158.126 2463.72 156.829 Q2462.45 155.533 2460.62 155.533 M2460.62 152.547 Q2462.1 152.547 2463.47 153.126 Q2464.83 153.681 2465.83 154.746 Q2466.89 155.788 2467.43 157.107 Q2467.96 158.426 2467.96 159.954 Q2467.96 163.01 2465.81 165.139 Q2463.68 167.246 2460.57 167.246 Q2457.45 167.246 2455.37 165.163 Q2453.28 163.079 2453.28 159.954 Q2453.28 156.852 2455.41 154.7 Q2457.54 152.547 2460.62 152.547 Z" fill="#000000" fill-rule="evenodd" fill-opacity="1" /><path clip-path="url(#clip240)" d="M2496.99 161.551 Q2496.99 156.922 2495.07 154.376 Q2493.17 151.829 2489.72 151.829 Q2486.29 151.829 2484.37 154.376 Q2482.47 156.922 2482.47 161.551 Q2482.47 166.158 2484.37 168.704 Q2486.29 171.25 2489.72 171.25 Q2493.17 171.25 2495.07 168.704 Q2496.99 166.158 2496.99 161.551 M2501.25 171.598 Q2501.25 178.218 2498.31 181.436 Q2495.37 184.676 2489.3 184.676 Q2487.06 184.676 2485.07 184.329 Q2483.07 184.005 2481.2 183.311 L2481.2 179.167 Q2483.07 180.186 2484.9 180.672 Q2486.73 181.158 2488.63 181.158 Q2492.82 181.158 2494.9 178.959 Q2496.99 176.783 2496.99 172.362 L2496.99 170.255 Q2495.67 172.547 2493.61 173.681 Q2491.55 174.815 2488.68 174.815 Q2483.91 174.815 2480.99 171.181 Q2478.07 167.547 2478.07 161.551 Q2478.07 155.533 2480.99 151.899 Q2483.91 148.264 2488.68 148.264 Q2491.55 148.264 2493.61 149.399 Q2495.67 150.533 2496.99 152.825 L2496.99 148.889 L2501.25 148.889 L2501.25 171.598 Z" fill="#000000" fill-rule="evenodd" fill-opacity="1" /><polyline clip-path="url(#clip240)" style="stroke:#e26f46; stroke-linecap:butt; stroke-linejoin:round; stroke-width:4; stroke-opacity:1; fill:none" points="
  2240.02,209.375 2403.02,209.375 
  "/>
<path clip-path="url(#clip240)" d="M2449.09 213.391 Q2449.09 208.762 2447.17 206.216 Q2445.27 203.669 2441.82 203.669 Q2438.4 203.669 2436.48 206.216 Q2434.58 208.762 2434.58 213.391 Q2434.58 217.998 2436.48 220.544 Q2438.4 223.09 2441.82 223.09 Q2445.27 223.09 2447.17 220.544 Q2449.09 217.998 2449.09 213.391 M2453.35 223.438 Q2453.35 230.058 2450.41 233.276 Q2447.47 236.516 2441.41 236.516 Q2439.16 236.516 2437.17 236.169 Q2435.18 235.845 2433.31 235.151 L2433.31 231.007 Q2435.18 232.026 2437.01 232.512 Q2438.84 232.998 2440.74 232.998 Q2444.93 232.998 2447.01 230.799 Q2449.09 228.623 2449.09 224.202 L2449.09 222.095 Q2447.77 224.387 2445.71 225.521 Q2443.65 226.655 2440.78 226.655 Q2436.01 226.655 2433.1 223.021 Q2430.18 219.387 2430.18 213.391 Q2430.18 207.373 2433.1 203.739 Q2436.01 200.104 2440.78 200.104 Q2443.65 200.104 2445.71 201.239 Q2447.77 202.373 2449.09 204.665 L2449.09 200.729 L2453.35 200.729 L2453.35 223.438 Z" fill="#000000" fill-rule="evenodd" fill-opacity="1" /><path clip-path="url(#clip240)" d="M2472.5 207.373 Q2470.64 207.373 2469.37 208.669 Q2468.1 209.942 2468.1 211.794 Q2468.1 213.623 2469.37 214.896 Q2470.64 216.146 2472.5 216.146 Q2474.35 216.146 2475.62 214.896 Q2476.89 213.623 2476.89 211.794 Q2476.89 209.966 2475.6 208.669 Q2474.32 207.373 2472.5 207.373 M2472.5 204.387 Q2473.98 204.387 2475.34 204.966 Q2476.71 205.521 2477.7 206.586 Q2478.77 207.628 2479.3 208.947 Q2479.83 210.266 2479.83 211.794 Q2479.83 214.85 2477.68 216.979 Q2475.55 219.086 2472.45 219.086 Q2469.32 219.086 2467.24 217.003 Q2465.16 214.919 2465.16 211.794 Q2465.16 208.692 2467.29 206.54 Q2469.42 204.387 2472.5 204.387 Z" fill="#000000" fill-rule="evenodd" fill-opacity="1" /><path clip-path="url(#clip240)" d="M2504.93 190.637 L2504.93 194.179 L2500.85 194.179 Q2498.56 194.179 2497.66 195.105 Q2496.78 196.03 2496.78 198.438 L2496.78 200.729 L2503.79 200.729 L2503.79 204.04 L2496.78 204.04 L2496.78 226.655 L2492.5 226.655 L2492.5 204.04 L2488.42 204.04 L2488.42 200.729 L2492.5 200.729 L2492.5 198.924 Q2492.5 194.595 2494.51 192.628 Q2496.52 190.637 2500.9 190.637 L2504.93 190.637 Z" fill="#000000" fill-rule="evenodd" fill-opacity="1" /></svg>
