<?xml version="1.0" encoding="utf-8"?>
<svg xmlns="http://www.w3.org/2000/svg" xmlns:xlink="http://www.w3.org/1999/xlink" width="672" height="480" viewBox="0 0 2688 1920">
<defs>
  <clipPath id="clip080">
    <rect x="0" y="0" width="2688" height="1920"/>
  </clipPath>
</defs>
<path clip-path="url(#clip080)" d="
M0 1920 L2688 1920 L2688 0 L0 0  Z
  " fill="#ffffff" fill-rule="evenodd" fill-opacity="1"/>
<defs>
  <clipPath id="clip081">
    <rect x="537" y="0" width="1883" height="1883"/>
  </clipPath>
</defs>
<path clip-path="url(#clip080)" d="
M196.168 1800.78 L2640.76 1800.78 L2640.76 47.2441 L196.168 47.2441  Z
  " fill="#ffffff" fill-rule="evenodd" fill-opacity="1"/>
<defs>
  <clipPath id="clip082">
    <rect x="196" y="47" width="2446" height="1755"/>
  </clipPath>
</defs>
<polyline clip-path="url(#clip082)" style="stroke:#000000; stroke-linecap:round; stroke-linejoin:round; stroke-width:2; stroke-opacity:0.1; fill:none" points="
  265.354,1800.78 265.354,47.2441 
  "/>
<polyline clip-path="url(#clip082)" style="stroke:#000000; stroke-linecap:round; stroke-linejoin:round; stroke-width:2; stroke-opacity:0.1; fill:none" points="
  999.445,1800.78 999.445,47.2441 
  "/>
<polyline clip-path="url(#clip082)" style="stroke:#000000; stroke-linecap:round; stroke-linejoin:round; stroke-width:2; stroke-opacity:0.1; fill:none" points="
  1733.54,1800.78 1733.54,47.2441 
  "/>
<polyline clip-path="url(#clip082)" style="stroke:#000000; stroke-linecap:round; stroke-linejoin:round; stroke-width:2; stroke-opacity:0.1; fill:none" points="
  2467.63,1800.78 2467.63,47.2441 
  "/>
<polyline clip-path="url(#clip080)" style="stroke:#000000; stroke-linecap:round; stroke-linejoin:round; stroke-width:4; stroke-opacity:1; fill:none" points="
  196.168,1800.78 2640.76,1800.78 
  "/>
<polyline clip-path="url(#clip080)" style="stroke:#000000; stroke-linecap:round; stroke-linejoin:round; stroke-width:4; stroke-opacity:1; fill:none" points="
  265.354,1800.78 265.354,1781.88 
  "/>
<polyline clip-path="url(#clip080)" style="stroke:#000000; stroke-linecap:round; stroke-linejoin:round; stroke-width:4; stroke-opacity:1; fill:none" points="
  999.445,1800.78 999.445,1781.88 
  "/>
<polyline clip-path="url(#clip080)" style="stroke:#000000; stroke-linecap:round; stroke-linejoin:round; stroke-width:4; stroke-opacity:1; fill:none" points="
  1733.54,1800.78 1733.54,1781.88 
  "/>
<polyline clip-path="url(#clip080)" style="stroke:#000000; stroke-linecap:round; stroke-linejoin:round; stroke-width:4; stroke-opacity:1; fill:none" points="
  2467.63,1800.78 2467.63,1781.88 
  "/>
<path clip-path="url(#clip080)" d="M265.354 1834 Q261.743 1834 259.915 1837.57 Q258.109 1841.11 258.109 1848.24 Q258.109 1855.34 259.915 1858.91 Q261.743 1862.45 265.354 1862.45 Q268.989 1862.45 270.794 1858.91 Q272.623 1855.34 272.623 1848.24 Q272.623 1841.11 270.794 1837.57 Q268.989 1834 265.354 1834 M265.354 1830.3 Q271.164 1830.3 274.22 1834.9 Q277.299 1839.49 277.299 1848.24 Q277.299 1856.96 274.22 1861.57 Q271.164 1866.15 265.354 1866.15 Q259.544 1866.15 256.465 1861.57 Q253.41 1856.96 253.41 1848.24 Q253.41 1839.49 256.465 1834.9 Q259.544 1830.3 265.354 1830.3 Z" fill="#000000" fill-rule="evenodd" fill-opacity="1" /><path clip-path="url(#clip080)" d="M989.827 1861.55 L997.466 1861.55 L997.466 1835.18 L989.156 1836.85 L989.156 1832.59 L997.42 1830.92 L1002.1 1830.92 L1002.1 1861.55 L1009.73 1861.55 L1009.73 1865.48 L989.827 1865.48 L989.827 1861.55 Z" fill="#000000" fill-rule="evenodd" fill-opacity="1" /><path clip-path="url(#clip080)" d="M1728.19 1861.55 L1744.51 1861.55 L1744.51 1865.48 L1722.56 1865.48 L1722.56 1861.55 Q1725.23 1858.79 1729.81 1854.16 Q1734.42 1849.51 1735.6 1848.17 Q1737.84 1845.65 1738.72 1843.91 Q1739.62 1842.15 1739.62 1840.46 Q1739.62 1837.71 1737.68 1835.97 Q1735.76 1834.23 1732.66 1834.23 Q1730.46 1834.23 1728 1835 Q1725.57 1835.76 1722.8 1837.31 L1722.8 1832.59 Q1725.62 1831.46 1728.07 1830.88 Q1730.53 1830.3 1732.56 1830.3 Q1737.93 1830.3 1741.13 1832.98 Q1744.32 1835.67 1744.32 1840.16 Q1744.32 1842.29 1743.51 1844.21 Q1742.73 1846.11 1740.62 1848.7 Q1740.04 1849.37 1736.94 1852.59 Q1733.84 1855.78 1728.19 1861.55 Z" fill="#000000" fill-rule="evenodd" fill-opacity="1" /><path clip-path="url(#clip080)" d="M2471.88 1846.85 Q2475.23 1847.57 2477.11 1849.84 Q2479 1852.1 2479 1855.44 Q2479 1860.55 2475.49 1863.35 Q2471.97 1866.15 2465.49 1866.15 Q2463.31 1866.15 2461 1865.71 Q2458.7 1865.3 2456.25 1864.44 L2456.25 1859.93 Q2458.19 1861.06 2460.51 1861.64 Q2462.82 1862.22 2465.35 1862.22 Q2469.75 1862.22 2472.04 1860.48 Q2474.35 1858.75 2474.35 1855.44 Q2474.35 1852.38 2472.2 1850.67 Q2470.07 1848.93 2466.25 1848.93 L2462.22 1848.93 L2462.22 1845.09 L2466.44 1845.09 Q2469.88 1845.09 2471.71 1843.72 Q2473.54 1842.34 2473.54 1839.74 Q2473.54 1837.08 2471.64 1835.67 Q2469.77 1834.23 2466.25 1834.23 Q2464.33 1834.23 2462.13 1834.65 Q2459.93 1835.07 2457.29 1835.95 L2457.29 1831.78 Q2459.95 1831.04 2462.27 1830.67 Q2464.61 1830.3 2466.67 1830.3 Q2471.99 1830.3 2475.09 1832.73 Q2478.19 1835.14 2478.19 1839.26 Q2478.19 1842.13 2476.55 1844.12 Q2474.91 1846.09 2471.88 1846.85 Z" fill="#000000" fill-rule="evenodd" fill-opacity="1" /><polyline clip-path="url(#clip082)" style="stroke:#000000; stroke-linecap:round; stroke-linejoin:round; stroke-width:2; stroke-opacity:0.1; fill:none" points="
  196.168,1688.16 2640.76,1688.16 
  "/>
<polyline clip-path="url(#clip082)" style="stroke:#000000; stroke-linecap:round; stroke-linejoin:round; stroke-width:2; stroke-opacity:0.1; fill:none" points="
  196.168,1433.46 2640.76,1433.46 
  "/>
<polyline clip-path="url(#clip082)" style="stroke:#000000; stroke-linecap:round; stroke-linejoin:round; stroke-width:2; stroke-opacity:0.1; fill:none" points="
  196.168,1178.75 2640.76,1178.75 
  "/>
<polyline clip-path="url(#clip082)" style="stroke:#000000; stroke-linecap:round; stroke-linejoin:round; stroke-width:2; stroke-opacity:0.1; fill:none" points="
  196.168,924.05 2640.76,924.05 
  "/>
<polyline clip-path="url(#clip082)" style="stroke:#000000; stroke-linecap:round; stroke-linejoin:round; stroke-width:2; stroke-opacity:0.1; fill:none" points="
  196.168,669.345 2640.76,669.345 
  "/>
<polyline clip-path="url(#clip082)" style="stroke:#000000; stroke-linecap:round; stroke-linejoin:round; stroke-width:2; stroke-opacity:0.1; fill:none" points="
  196.168,414.641 2640.76,414.641 
  "/>
<polyline clip-path="url(#clip082)" style="stroke:#000000; stroke-linecap:round; stroke-linejoin:round; stroke-width:2; stroke-opacity:0.1; fill:none" points="
  196.168,159.936 2640.76,159.936 
  "/>
<polyline clip-path="url(#clip080)" style="stroke:#000000; stroke-linecap:round; stroke-linejoin:round; stroke-width:4; stroke-opacity:1; fill:none" points="
  196.168,1800.78 196.168,47.2441 
  "/>
<polyline clip-path="url(#clip080)" style="stroke:#000000; stroke-linecap:round; stroke-linejoin:round; stroke-width:4; stroke-opacity:1; fill:none" points="
  196.168,1688.16 215.065,1688.16 
  "/>
<polyline clip-path="url(#clip080)" style="stroke:#000000; stroke-linecap:round; stroke-linejoin:round; stroke-width:4; stroke-opacity:1; fill:none" points="
  196.168,1433.46 215.065,1433.46 
  "/>
<polyline clip-path="url(#clip080)" style="stroke:#000000; stroke-linecap:round; stroke-linejoin:round; stroke-width:4; stroke-opacity:1; fill:none" points="
  196.168,1178.75 215.065,1178.75 
  "/>
<polyline clip-path="url(#clip080)" style="stroke:#000000; stroke-linecap:round; stroke-linejoin:round; stroke-width:4; stroke-opacity:1; fill:none" points="
  196.168,924.05 215.065,924.05 
  "/>
<polyline clip-path="url(#clip080)" style="stroke:#000000; stroke-linecap:round; stroke-linejoin:round; stroke-width:4; stroke-opacity:1; fill:none" points="
  196.168,669.345 215.065,669.345 
  "/>
<polyline clip-path="url(#clip080)" style="stroke:#000000; stroke-linecap:round; stroke-linejoin:round; stroke-width:4; stroke-opacity:1; fill:none" points="
  196.168,414.641 215.065,414.641 
  "/>
<polyline clip-path="url(#clip080)" style="stroke:#000000; stroke-linecap:round; stroke-linejoin:round; stroke-width:4; stroke-opacity:1; fill:none" points="
  196.168,159.936 215.065,159.936 
  "/>
<path clip-path="url(#clip080)" d="M49.5521 1688.62 L79.2279 1688.62 L79.2279 1692.55 L49.5521 1692.55 L49.5521 1688.62 Z" fill="#000000" fill-rule="evenodd" fill-opacity="1" /><path clip-path="url(#clip080)" d="M99.3204 1673.96 Q95.7093 1673.96 93.8806 1677.53 Q92.075 1681.07 92.075 1688.2 Q92.075 1695.31 93.8806 1698.87 Q95.7093 1702.41 99.3204 1702.41 Q102.955 1702.41 104.76 1698.87 Q106.589 1695.31 106.589 1688.2 Q106.589 1681.07 104.76 1677.53 Q102.955 1673.96 99.3204 1673.96 M99.3204 1670.26 Q105.131 1670.26 108.186 1674.87 Q111.265 1679.45 111.265 1688.2 Q111.265 1696.93 108.186 1701.53 Q105.131 1706.12 99.3204 1706.12 Q93.5102 1706.12 90.4315 1701.53 Q87.376 1696.93 87.376 1688.2 Q87.376 1679.45 90.4315 1674.87 Q93.5102 1670.26 99.3204 1670.26 Z" fill="#000000" fill-rule="evenodd" fill-opacity="1" /><path clip-path="url(#clip080)" d="M119.482 1699.56 L124.367 1699.56 L124.367 1705.44 L119.482 1705.44 L119.482 1699.56 Z" fill="#000000" fill-rule="evenodd" fill-opacity="1" /><path clip-path="url(#clip080)" d="M148.718 1686.81 Q152.075 1687.53 153.95 1689.8 Q155.848 1692.06 155.848 1695.4 Q155.848 1700.51 152.329 1703.31 Q148.811 1706.12 142.329 1706.12 Q140.153 1706.12 137.839 1705.68 Q135.547 1705.26 133.093 1704.4 L133.093 1699.89 Q135.038 1701.02 137.353 1701.6 Q139.667 1702.18 142.191 1702.18 Q146.589 1702.18 148.88 1700.44 Q151.195 1698.71 151.195 1695.4 Q151.195 1692.34 149.042 1690.63 Q146.913 1688.89 143.093 1688.89 L139.066 1688.89 L139.066 1685.05 L143.278 1685.05 Q146.728 1685.05 148.556 1683.69 Q150.385 1682.3 150.385 1679.7 Q150.385 1677.04 148.487 1675.63 Q146.612 1674.19 143.093 1674.19 Q141.172 1674.19 138.973 1674.61 Q136.774 1675.03 134.135 1675.91 L134.135 1671.74 Q136.797 1671 139.112 1670.63 Q141.45 1670.26 143.51 1670.26 Q148.834 1670.26 151.936 1672.69 Q155.038 1675.1 155.038 1679.22 Q155.038 1682.09 153.394 1684.08 Q151.751 1686.05 148.718 1686.81 Z" fill="#000000" fill-rule="evenodd" fill-opacity="1" /><path clip-path="url(#clip080)" d="M50.5012 1433.91 L80.177 1433.91 L80.177 1437.85 L50.5012 1437.85 L50.5012 1433.91 Z" fill="#000000" fill-rule="evenodd" fill-opacity="1" /><path clip-path="url(#clip080)" d="M100.269 1419.26 Q96.6584 1419.26 94.8297 1422.82 Q93.0241 1426.36 93.0241 1433.49 Q93.0241 1440.6 94.8297 1444.17 Q96.6584 1447.71 100.269 1447.71 Q103.904 1447.71 105.709 1444.17 Q107.538 1440.6 107.538 1433.49 Q107.538 1426.36 105.709 1422.82 Q103.904 1419.26 100.269 1419.26 M100.269 1415.55 Q106.08 1415.55 109.135 1420.16 Q112.214 1424.74 112.214 1433.49 Q112.214 1442.22 109.135 1446.83 Q106.08 1451.41 100.269 1451.41 Q94.4593 1451.41 91.3806 1446.83 Q88.3251 1442.22 88.3251 1433.49 Q88.3251 1424.74 91.3806 1420.16 Q94.4593 1415.55 100.269 1415.55 Z" fill="#000000" fill-rule="evenodd" fill-opacity="1" /><path clip-path="url(#clip080)" d="M120.431 1444.86 L125.316 1444.86 L125.316 1450.74 L120.431 1450.74 L120.431 1444.86 Z" fill="#000000" fill-rule="evenodd" fill-opacity="1" /><path clip-path="url(#clip080)" d="M139.528 1446.8 L155.848 1446.8 L155.848 1450.74 L133.904 1450.74 L133.904 1446.8 Q136.566 1444.05 141.149 1439.42 Q145.755 1434.77 146.936 1433.42 Q149.181 1430.9 150.061 1429.17 Q150.964 1427.41 150.964 1425.72 Q150.964 1422.96 149.019 1421.23 Q147.098 1419.49 143.996 1419.49 Q141.797 1419.49 139.343 1420.25 Q136.913 1421.02 134.135 1422.57 L134.135 1417.85 Q136.959 1416.71 139.413 1416.13 Q141.866 1415.55 143.903 1415.55 Q149.274 1415.55 152.468 1418.24 Q155.663 1420.92 155.663 1425.42 Q155.663 1427.55 154.852 1429.47 Q154.065 1431.36 151.959 1433.96 Q151.38 1434.63 148.278 1437.85 Q145.177 1441.04 139.528 1446.8 Z" fill="#000000" fill-rule="evenodd" fill-opacity="1" /><path clip-path="url(#clip080)" d="M50.1308 1179.21 L79.8066 1179.21 L79.8066 1183.14 L50.1308 1183.14 L50.1308 1179.21 Z" fill="#000000" fill-rule="evenodd" fill-opacity="1" /><path clip-path="url(#clip080)" d="M99.8991 1164.55 Q96.288 1164.55 94.4593 1168.12 Q92.6537 1171.66 92.6537 1178.79 Q92.6537 1185.9 94.4593 1189.46 Q96.288 1193 99.8991 1193 Q103.533 1193 105.339 1189.46 Q107.168 1185.9 107.168 1178.79 Q107.168 1171.66 105.339 1168.12 Q103.533 1164.55 99.8991 1164.55 M99.8991 1160.85 Q105.709 1160.85 108.765 1165.46 Q111.843 1170.04 111.843 1178.79 Q111.843 1187.52 108.765 1192.12 Q105.709 1196.71 99.8991 1196.71 Q94.0889 1196.71 91.0102 1192.12 Q87.9547 1187.52 87.9547 1178.79 Q87.9547 1170.04 91.0102 1165.46 Q94.0889 1160.85 99.8991 1160.85 Z" fill="#000000" fill-rule="evenodd" fill-opacity="1" /><path clip-path="url(#clip080)" d="M120.061 1190.16 L124.945 1190.16 L124.945 1196.03 L120.061 1196.03 L120.061 1190.16 Z" fill="#000000" fill-rule="evenodd" fill-opacity="1" /><path clip-path="url(#clip080)" d="M135.941 1192.1 L143.579 1192.1 L143.579 1165.73 L135.269 1167.4 L135.269 1163.14 L143.533 1161.47 L148.209 1161.47 L148.209 1192.1 L155.848 1192.1 L155.848 1196.03 L135.941 1196.03 L135.941 1192.1 Z" fill="#000000" fill-rule="evenodd" fill-opacity="1" /><path clip-path="url(#clip080)" d="M98.6722 909.849 Q95.0611 909.849 93.2324 913.414 Q91.4269 916.955 91.4269 924.085 Q91.4269 931.191 93.2324 934.756 Q95.0611 938.298 98.6722 938.298 Q102.306 938.298 104.112 934.756 Q105.941 931.191 105.941 924.085 Q105.941 916.955 104.112 913.414 Q102.306 909.849 98.6722 909.849 M98.6722 906.145 Q104.482 906.145 107.538 910.752 Q110.617 915.335 110.617 924.085 Q110.617 932.812 107.538 937.418 Q104.482 942.001 98.6722 942.001 Q92.8621 942.001 89.7834 937.418 Q86.7279 932.812 86.7279 924.085 Q86.7279 915.335 89.7834 910.752 Q92.8621 906.145 98.6722 906.145 Z" fill="#000000" fill-rule="evenodd" fill-opacity="1" /><path clip-path="url(#clip080)" d="M118.834 935.451 L123.718 935.451 L123.718 941.33 L118.834 941.33 L118.834 935.451 Z" fill="#000000" fill-rule="evenodd" fill-opacity="1" /><path clip-path="url(#clip080)" d="M143.903 909.849 Q140.292 909.849 138.464 913.414 Q136.658 916.955 136.658 924.085 Q136.658 931.191 138.464 934.756 Q140.292 938.298 143.903 938.298 Q147.538 938.298 149.343 934.756 Q151.172 931.191 151.172 924.085 Q151.172 916.955 149.343 913.414 Q147.538 909.849 143.903 909.849 M143.903 906.145 Q149.714 906.145 152.769 910.752 Q155.848 915.335 155.848 924.085 Q155.848 932.812 152.769 937.418 Q149.714 942.001 143.903 942.001 Q138.093 942.001 135.015 937.418 Q131.959 932.812 131.959 924.085 Q131.959 915.335 135.015 910.752 Q138.093 906.145 143.903 906.145 Z" fill="#000000" fill-rule="evenodd" fill-opacity="1" /><path clip-path="url(#clip080)" d="M99.8991 655.144 Q96.288 655.144 94.4593 658.709 Q92.6537 662.251 92.6537 669.38 Q92.6537 676.487 94.4593 680.051 Q96.288 683.593 99.8991 683.593 Q103.533 683.593 105.339 680.051 Q107.168 676.487 107.168 669.38 Q107.168 662.251 105.339 658.709 Q103.533 655.144 99.8991 655.144 M99.8991 651.44 Q105.709 651.44 108.765 656.047 Q111.843 660.63 111.843 669.38 Q111.843 678.107 108.765 682.713 Q105.709 687.297 99.8991 687.297 Q94.0889 687.297 91.0102 682.713 Q87.9547 678.107 87.9547 669.38 Q87.9547 660.63 91.0102 656.047 Q94.0889 651.44 99.8991 651.44 Z" fill="#000000" fill-rule="evenodd" fill-opacity="1" /><path clip-path="url(#clip080)" d="M120.061 680.746 L124.945 680.746 L124.945 686.625 L120.061 686.625 L120.061 680.746 Z" fill="#000000" fill-rule="evenodd" fill-opacity="1" /><path clip-path="url(#clip080)" d="M135.941 682.69 L143.579 682.69 L143.579 656.325 L135.269 657.991 L135.269 653.732 L143.533 652.065 L148.209 652.065 L148.209 682.69 L155.848 682.69 L155.848 686.625 L135.941 686.625 L135.941 682.69 Z" fill="#000000" fill-rule="evenodd" fill-opacity="1" /><path clip-path="url(#clip080)" d="M100.269 400.439 Q96.6584 400.439 94.8297 404.004 Q93.0241 407.546 93.0241 414.675 Q93.0241 421.782 94.8297 425.347 Q96.6584 428.888 100.269 428.888 Q103.904 428.888 105.709 425.347 Q107.538 421.782 107.538 414.675 Q107.538 407.546 105.709 404.004 Q103.904 400.439 100.269 400.439 M100.269 396.736 Q106.08 396.736 109.135 401.342 Q112.214 405.926 112.214 414.675 Q112.214 423.402 109.135 428.009 Q106.08 432.592 100.269 432.592 Q94.4593 432.592 91.3806 428.009 Q88.3251 423.402 88.3251 414.675 Q88.3251 405.926 91.3806 401.342 Q94.4593 396.736 100.269 396.736 Z" fill="#000000" fill-rule="evenodd" fill-opacity="1" /><path clip-path="url(#clip080)" d="M120.431 426.041 L125.316 426.041 L125.316 431.921 L120.431 431.921 L120.431 426.041 Z" fill="#000000" fill-rule="evenodd" fill-opacity="1" /><path clip-path="url(#clip080)" d="M139.528 427.986 L155.848 427.986 L155.848 431.921 L133.904 431.921 L133.904 427.986 Q136.566 425.231 141.149 420.601 Q145.755 415.949 146.936 414.606 Q149.181 412.083 150.061 410.347 Q150.964 408.588 150.964 406.898 Q150.964 404.143 149.019 402.407 Q147.098 400.671 143.996 400.671 Q141.797 400.671 139.343 401.435 Q136.913 402.199 134.135 403.75 L134.135 399.027 Q136.959 397.893 139.413 397.314 Q141.866 396.736 143.903 396.736 Q149.274 396.736 152.468 399.421 Q155.663 402.106 155.663 406.597 Q155.663 408.726 154.852 410.648 Q154.065 412.546 151.959 415.138 Q151.38 415.81 148.278 419.027 Q145.177 422.222 139.528 427.986 Z" fill="#000000" fill-rule="evenodd" fill-opacity="1" /><path clip-path="url(#clip080)" d="M99.3204 145.735 Q95.7093 145.735 93.8806 149.3 Q92.075 152.841 92.075 159.971 Q92.075 167.077 93.8806 170.642 Q95.7093 174.184 99.3204 174.184 Q102.955 174.184 104.76 170.642 Q106.589 167.077 106.589 159.971 Q106.589 152.841 104.76 149.3 Q102.955 145.735 99.3204 145.735 M99.3204 142.031 Q105.131 142.031 108.186 146.638 Q111.265 151.221 111.265 159.971 Q111.265 168.698 108.186 173.304 Q105.131 177.887 99.3204 177.887 Q93.5102 177.887 90.4315 173.304 Q87.376 168.698 87.376 159.971 Q87.376 151.221 90.4315 146.638 Q93.5102 142.031 99.3204 142.031 Z" fill="#000000" fill-rule="evenodd" fill-opacity="1" /><path clip-path="url(#clip080)" d="M119.482 171.336 L124.367 171.336 L124.367 177.216 L119.482 177.216 L119.482 171.336 Z" fill="#000000" fill-rule="evenodd" fill-opacity="1" /><path clip-path="url(#clip080)" d="M148.718 158.582 Q152.075 159.3 153.95 161.568 Q155.848 163.837 155.848 167.17 Q155.848 172.286 152.329 175.086 Q148.811 177.887 142.329 177.887 Q140.153 177.887 137.839 177.448 Q135.547 177.031 133.093 176.174 L133.093 171.661 Q135.038 172.795 137.353 173.374 Q139.667 173.952 142.191 173.952 Q146.589 173.952 148.88 172.216 Q151.195 170.48 151.195 167.17 Q151.195 164.114 149.042 162.401 Q146.913 160.665 143.093 160.665 L139.066 160.665 L139.066 156.823 L143.278 156.823 Q146.728 156.823 148.556 155.457 Q150.385 154.068 150.385 151.475 Q150.385 148.813 148.487 147.401 Q146.612 145.966 143.093 145.966 Q141.172 145.966 138.973 146.383 Q136.774 146.8 134.135 147.679 L134.135 143.513 Q136.797 142.772 139.112 142.401 Q141.45 142.031 143.51 142.031 Q148.834 142.031 151.936 144.462 Q155.038 146.869 155.038 150.989 Q155.038 153.86 153.394 155.85 Q151.751 157.818 148.718 158.582 Z" fill="#000000" fill-rule="evenodd" fill-opacity="1" /><polyline clip-path="url(#clip082)" style="stroke:#009af9; stroke-linecap:round; stroke-linejoin:round; stroke-width:4; stroke-opacity:1; fill:none" points="
  265.354,924.05 269.108,911.027 272.862,898.007 276.615,884.993 280.369,871.99 315.077,752.844 349.785,637.504 367.14,582.059 384.494,528.502 401.848,477.119 
  419.202,428.179 429.631,400.049 440.06,372.943 450.489,346.91 460.918,321.996 471.347,298.242 481.776,275.688 492.205,254.369 502.634,234.32 520.27,203.384 
  537.905,176.278 555.54,153.092 573.176,133.888 582.754,125.14 592.333,117.577 601.911,111.199 611.49,106.003 621.068,101.982 630.646,99.1277 640.225,97.429 
  649.803,96.8724 667.464,98.7858 685.125,104.407 702.786,113.592 720.447,126.171 739.382,143.212 758.316,163.675 777.251,187.279 796.185,213.719 818.122,247.476 
  840.06,284.09 861.997,323.023 883.935,363.731 922.925,438.767 961.916,514.691 996.107,579.785 1030.3,641.713 1048.94,673.609 1067.58,703.928 1086.22,732.496 
  1104.85,759.168 1123.6,783.967 1142.35,806.645 1161.1,827.144 1179.85,845.442 1200.58,863.12 1221.31,878.171 1242.04,890.693 1262.77,900.826 1282.5,908.415 
  1302.22,914.189 1321.95,918.361 1341.67,921.166 1423.7,924.051 1492.76,926.664 1513.84,929.542 1534.91,933.965 1555.99,940.219 1577.07,948.563 1596.38,958.23 
  1615.69,969.979 1634.99,983.923 1654.3,1000.14 1672.13,1017.18 1689.97,1036.22 1707.8,1057.23 1725.63,1080.18 1743.7,1105.34 1761.76,1132.32 1779.82,1161.01 
  1797.89,1191.25 1838.38,1263.77 1878.86,1340.88 1915.55,1412.36 1952.24,1482.96 1973.25,1522.01 1994.25,1559.48 2015.25,1594.88 2036.26,1627.74 2055.7,1655.5 
  2075.15,1680.34 2094.6,1701.93 2114.05,1719.94 2133.22,1733.94 2152.39,1743.94 2161.98,1747.38 2171.56,1749.74 2181.15,1751 2190.74,1751.15 2200.04,1750.21 
  2209.35,1748.18 2218.66,1745.06 2227.97,1740.84 2237.27,1735.5 2246.58,1729.05 2255.89,1721.48 2265.2,1712.78 2274.74,1702.71 2284.28,1691.47 2293.82,1679.07 
  2303.36,1665.51 2312.9,1650.8 2322.45,1634.97 2331.99,1618.03 2341.53,1600 2351.98,1579.01 2362.44,1556.78 2372.89,1533.32 2383.34,1508.69 2393.8,1482.92 
  2404.25,1456.06 2414.71,1428.16 2425.16,1399.26 2440.35,1355.63 2455.53,1310.18 2470.72,1263.11 2485.9,1214.6 2516.27,1114.1 2546.65,1010.36 2552.88,988.837 
  2559.11,967.267 2565.34,945.666 2571.57,924.05 
  "/>
<path clip-path="url(#clip080)" d="
M2235.22 209.375 L2559.27 209.375 L2559.27 105.695 L2235.22 105.695  Z
  " fill="#ffffff" fill-rule="evenodd" fill-opacity="1"/>
<polyline clip-path="url(#clip080)" style="stroke:#000000; stroke-linecap:round; stroke-linejoin:round; stroke-width:4; stroke-opacity:1; fill:none" points="
  2235.22,209.375 2559.27,209.375 2559.27,105.695 2235.22,105.695 2235.22,209.375 
  "/>
<polyline clip-path="url(#clip080)" style="stroke:#009af9; stroke-linecap:round; stroke-linejoin:round; stroke-width:4; stroke-opacity:1; fill:none" points="
  2262.38,157.535 2425.35,157.535 
  "/>
<path clip-path="url(#clip080)" d="M2466.36 177.223 Q2464.55 181.852 2462.84 183.264 Q2461.13 184.676 2458.26 184.676 L2454.85 184.676 L2454.85 181.112 L2457.35 181.112 Q2459.11 181.112 2460.08 180.278 Q2461.06 179.445 2462.24 176.343 L2463 174.399 L2452.52 148.889 L2457.03 148.889 L2465.13 169.167 L2473.23 148.889 L2477.75 148.889 L2466.36 177.223 Z" fill="#000000" fill-rule="evenodd" fill-opacity="1" /><path clip-path="url(#clip080)" d="M2485.04 170.88 L2492.68 170.88 L2492.68 144.515 L2484.37 146.181 L2484.37 141.922 L2492.63 140.255 L2497.31 140.255 L2497.31 170.88 L2504.95 170.88 L2504.95 174.815 L2485.04 174.815 L2485.04 170.88 Z" fill="#000000" fill-rule="evenodd" fill-opacity="1" /></svg>
