<?xml version="1.0" encoding="utf-8"?>
<svg xmlns="http://www.w3.org/2000/svg" xmlns:xlink="http://www.w3.org/1999/xlink" width="672" height="480" viewBox="0 0 2688 1920">
<defs>
  <clipPath id="clip510">
    <rect x="0" y="0" width="2688" height="1920"/>
  </clipPath>
</defs>
<path clip-path="url(#clip510)" d="
M0 1920 L2688 1920 L2688 0 L0 0  Z
  " fill="#ffffff" fill-rule="evenodd" fill-opacity="1"/>
<defs>
  <clipPath id="clip511">
    <rect x="537" y="0" width="1883" height="1883"/>
  </clipPath>
</defs>
<path clip-path="url(#clip510)" d="
M542.018 1800.78 L2295.55 1800.78 L2295.55 47.2441 L542.018 47.2441  Z
  " fill="#ffffff" fill-rule="evenodd" fill-opacity="1"/>
<defs>
  <clipPath id="clip512">
    <rect x="542" y="47" width="1755" height="1755"/>
  </clipPath>
</defs>
<polyline clip-path="url(#clip512)" style="stroke:#000000; stroke-linecap:butt; stroke-linejoin:round; stroke-width:2; stroke-opacity:0.1; fill:none" points="
  542.018,1800.78 542.018,47.2441 
  "/>
<polyline clip-path="url(#clip512)" style="stroke:#000000; stroke-linecap:butt; stroke-linejoin:round; stroke-width:2; stroke-opacity:0.1; fill:none" points="
  980.402,1800.78 980.402,47.2441 
  "/>
<polyline clip-path="url(#clip512)" style="stroke:#000000; stroke-linecap:butt; stroke-linejoin:round; stroke-width:2; stroke-opacity:0.1; fill:none" points="
  1418.79,1800.78 1418.79,47.2441 
  "/>
<polyline clip-path="url(#clip512)" style="stroke:#000000; stroke-linecap:butt; stroke-linejoin:round; stroke-width:2; stroke-opacity:0.1; fill:none" points="
  1857.17,1800.78 1857.17,47.2441 
  "/>
<polyline clip-path="url(#clip512)" style="stroke:#000000; stroke-linecap:butt; stroke-linejoin:round; stroke-width:2; stroke-opacity:0.1; fill:none" points="
  2295.55,1800.78 2295.55,47.2441 
  "/>
<polyline clip-path="url(#clip510)" style="stroke:#000000; stroke-linecap:butt; stroke-linejoin:round; stroke-width:4; stroke-opacity:1; fill:none" points="
  542.018,1800.78 2295.55,1800.78 
  "/>
<polyline clip-path="url(#clip510)" style="stroke:#000000; stroke-linecap:butt; stroke-linejoin:round; stroke-width:4; stroke-opacity:1; fill:none" points="
  542.018,1800.78 542.018,1781.88 
  "/>
<polyline clip-path="url(#clip510)" style="stroke:#000000; stroke-linecap:butt; stroke-linejoin:round; stroke-width:4; stroke-opacity:1; fill:none" points="
  980.402,1800.78 980.402,1781.88 
  "/>
<polyline clip-path="url(#clip510)" style="stroke:#000000; stroke-linecap:butt; stroke-linejoin:round; stroke-width:4; stroke-opacity:1; fill:none" points="
  1418.79,1800.78 1418.79,1781.88 
  "/>
<polyline clip-path="url(#clip510)" style="stroke:#000000; stroke-linecap:butt; stroke-linejoin:round; stroke-width:4; stroke-opacity:1; fill:none" points="
  1857.17,1800.78 1857.17,1781.88 
  "/>
<polyline clip-path="url(#clip510)" style="stroke:#000000; stroke-linecap:butt; stroke-linejoin:round; stroke-width:4; stroke-opacity:1; fill:none" points="
  2295.55,1800.78 2295.55,1781.88 
  "/>
<path clip-path="url(#clip510)" d="M488.546 1848.65 L518.222 1848.65 L518.222 1852.59 L488.546 1852.59 L488.546 1848.65 Z" fill="#000000" fill-rule="evenodd" fill-opacity="1" /><path clip-path="url(#clip510)" d="M528.361 1830.92 L546.717 1830.92 L546.717 1834.86 L532.643 1834.86 L532.643 1843.33 Q533.662 1842.98 534.68 1842.82 Q535.699 1842.64 536.717 1842.64 Q542.504 1842.64 545.884 1845.81 Q549.264 1848.98 549.264 1854.4 Q549.264 1859.97 545.791 1863.08 Q542.319 1866.15 536 1866.15 Q533.824 1866.15 531.555 1865.78 Q529.31 1865.41 526.903 1864.67 L526.903 1859.97 Q528.986 1861.11 531.208 1861.66 Q533.43 1862.22 535.907 1862.22 Q539.912 1862.22 542.25 1860.11 Q544.588 1858.01 544.588 1854.4 Q544.588 1850.78 542.25 1848.68 Q539.912 1846.57 535.907 1846.57 Q534.032 1846.57 532.157 1846.99 Q530.305 1847.4 528.361 1848.28 L528.361 1830.92 Z" fill="#000000" fill-rule="evenodd" fill-opacity="1" /><path clip-path="url(#clip510)" d="M558.477 1859.6 L563.361 1859.6 L563.361 1865.48 L558.477 1865.48 L558.477 1859.6 Z" fill="#000000" fill-rule="evenodd" fill-opacity="1" /><path clip-path="url(#clip510)" d="M583.546 1834 Q579.935 1834 578.106 1837.57 Q576.301 1841.11 576.301 1848.24 Q576.301 1855.34 578.106 1858.91 Q579.935 1862.45 583.546 1862.45 Q587.18 1862.45 588.986 1858.91 Q590.814 1855.34 590.814 1848.24 Q590.814 1841.11 588.986 1837.57 Q587.18 1834 583.546 1834 M583.546 1830.3 Q589.356 1830.3 592.412 1834.9 Q595.49 1839.49 595.49 1848.24 Q595.49 1856.96 592.412 1861.57 Q589.356 1866.15 583.546 1866.15 Q577.736 1866.15 574.657 1861.57 Q571.602 1856.96 571.602 1848.24 Q571.602 1839.49 574.657 1834.9 Q577.736 1830.3 583.546 1830.3 Z" fill="#000000" fill-rule="evenodd" fill-opacity="1" /><path clip-path="url(#clip510)" d="M927.428 1848.65 L957.104 1848.65 L957.104 1852.59 L927.428 1852.59 L927.428 1848.65 Z" fill="#000000" fill-rule="evenodd" fill-opacity="1" /><path clip-path="url(#clip510)" d="M971.224 1861.55 L987.543 1861.55 L987.543 1865.48 L965.599 1865.48 L965.599 1861.55 Q968.261 1858.79 972.844 1854.16 Q977.451 1849.51 978.631 1848.17 Q980.877 1845.65 981.756 1843.91 Q982.659 1842.15 982.659 1840.46 Q982.659 1837.71 980.715 1835.97 Q978.793 1834.23 975.692 1834.23 Q973.492 1834.23 971.039 1835 Q968.608 1835.76 965.83 1837.31 L965.83 1832.59 Q968.655 1831.46 971.108 1830.88 Q973.562 1830.3 975.599 1830.3 Q980.969 1830.3 984.164 1832.98 Q987.358 1835.67 987.358 1840.16 Q987.358 1842.29 986.548 1844.21 Q985.761 1846.11 983.654 1848.7 Q983.076 1849.37 979.974 1852.59 Q976.872 1855.78 971.224 1861.55 Z" fill="#000000" fill-rule="evenodd" fill-opacity="1" /><path clip-path="url(#clip510)" d="M997.358 1859.6 L1002.24 1859.6 L1002.24 1865.48 L997.358 1865.48 L997.358 1859.6 Z" fill="#000000" fill-rule="evenodd" fill-opacity="1" /><path clip-path="url(#clip510)" d="M1012.47 1830.92 L1030.83 1830.92 L1030.83 1834.86 L1016.76 1834.86 L1016.76 1843.33 Q1017.77 1842.98 1018.79 1842.82 Q1019.81 1842.64 1020.83 1842.64 Q1026.62 1842.64 1030 1845.81 Q1033.38 1848.98 1033.38 1854.4 Q1033.38 1859.97 1029.9 1863.08 Q1026.43 1866.15 1020.11 1866.15 Q1017.94 1866.15 1015.67 1865.78 Q1013.42 1865.41 1011.02 1864.67 L1011.02 1859.97 Q1013.1 1861.11 1015.32 1861.66 Q1017.54 1862.22 1020.02 1862.22 Q1024.02 1862.22 1026.36 1860.11 Q1028.7 1858.01 1028.7 1854.4 Q1028.7 1850.78 1026.36 1848.68 Q1024.02 1846.57 1020.02 1846.57 Q1018.15 1846.57 1016.27 1846.99 Q1014.42 1847.4 1012.47 1848.28 L1012.47 1830.92 Z" fill="#000000" fill-rule="evenodd" fill-opacity="1" /><path clip-path="url(#clip510)" d="M1396.17 1834 Q1392.56 1834 1390.73 1837.57 Q1388.93 1841.11 1388.93 1848.24 Q1388.93 1855.34 1390.73 1858.91 Q1392.56 1862.45 1396.17 1862.45 Q1399.8 1862.45 1401.61 1858.91 Q1403.44 1855.34 1403.44 1848.24 Q1403.44 1841.11 1401.61 1837.57 Q1399.8 1834 1396.17 1834 M1396.17 1830.3 Q1401.98 1830.3 1405.04 1834.9 Q1408.11 1839.49 1408.11 1848.24 Q1408.11 1856.96 1405.04 1861.57 Q1401.98 1866.15 1396.17 1866.15 Q1390.36 1866.15 1387.28 1861.57 Q1384.23 1856.96 1384.23 1848.24 Q1384.23 1839.49 1387.28 1834.9 Q1390.36 1830.3 1396.17 1830.3 Z" fill="#000000" fill-rule="evenodd" fill-opacity="1" /><path clip-path="url(#clip510)" d="M1416.33 1859.6 L1421.22 1859.6 L1421.22 1865.48 L1416.33 1865.48 L1416.33 1859.6 Z" fill="#000000" fill-rule="evenodd" fill-opacity="1" /><path clip-path="url(#clip510)" d="M1441.4 1834 Q1437.79 1834 1435.96 1837.57 Q1434.16 1841.11 1434.16 1848.24 Q1434.16 1855.34 1435.96 1858.91 Q1437.79 1862.45 1441.4 1862.45 Q1445.04 1862.45 1446.84 1858.91 Q1448.67 1855.34 1448.67 1848.24 Q1448.67 1841.11 1446.84 1837.57 Q1445.04 1834 1441.4 1834 M1441.4 1830.3 Q1447.21 1830.3 1450.27 1834.9 Q1453.35 1839.49 1453.35 1848.24 Q1453.35 1856.96 1450.27 1861.57 Q1447.21 1866.15 1441.4 1866.15 Q1435.59 1866.15 1432.51 1861.57 Q1429.46 1856.96 1429.46 1848.24 Q1429.46 1839.49 1432.51 1834.9 Q1435.59 1830.3 1441.4 1830.3 Z" fill="#000000" fill-rule="evenodd" fill-opacity="1" /><path clip-path="url(#clip510)" d="M1828.91 1861.55 L1845.23 1861.55 L1845.23 1865.48 L1823.28 1865.48 L1823.28 1861.55 Q1825.94 1858.79 1830.53 1854.16 Q1835.13 1849.51 1836.31 1848.17 Q1838.56 1845.65 1839.44 1843.91 Q1840.34 1842.15 1840.34 1840.46 Q1840.34 1837.71 1838.4 1835.97 Q1836.48 1834.23 1833.37 1834.23 Q1831.17 1834.23 1828.72 1835 Q1826.29 1835.76 1823.51 1837.31 L1823.51 1832.59 Q1826.34 1831.46 1828.79 1830.88 Q1831.24 1830.3 1833.28 1830.3 Q1838.65 1830.3 1841.85 1832.98 Q1845.04 1835.67 1845.04 1840.16 Q1845.04 1842.29 1844.23 1844.21 Q1843.44 1846.11 1841.34 1848.7 Q1840.76 1849.37 1837.66 1852.59 Q1834.55 1855.78 1828.91 1861.55 Z" fill="#000000" fill-rule="evenodd" fill-opacity="1" /><path clip-path="url(#clip510)" d="M1855.04 1859.6 L1859.92 1859.6 L1859.92 1865.48 L1855.04 1865.48 L1855.04 1859.6 Z" fill="#000000" fill-rule="evenodd" fill-opacity="1" /><path clip-path="url(#clip510)" d="M1870.16 1830.92 L1888.51 1830.92 L1888.51 1834.86 L1874.44 1834.86 L1874.44 1843.33 Q1875.46 1842.98 1876.48 1842.82 Q1877.49 1842.64 1878.51 1842.64 Q1884.3 1842.64 1887.68 1845.81 Q1891.06 1848.98 1891.06 1854.4 Q1891.06 1859.97 1887.59 1863.08 Q1884.11 1866.15 1877.79 1866.15 Q1875.62 1866.15 1873.35 1865.78 Q1871.1 1865.41 1868.7 1864.67 L1868.7 1859.97 Q1870.78 1861.11 1873 1861.66 Q1875.23 1862.22 1877.7 1862.22 Q1881.71 1862.22 1884.04 1860.11 Q1886.38 1858.01 1886.38 1854.4 Q1886.38 1850.78 1884.04 1848.68 Q1881.71 1846.57 1877.7 1846.57 Q1875.83 1846.57 1873.95 1846.99 Q1872.1 1847.4 1870.16 1848.28 L1870.16 1830.92 Z" fill="#000000" fill-rule="evenodd" fill-opacity="1" /><path clip-path="url(#clip510)" d="M2262.72 1830.92 L2281.07 1830.92 L2281.07 1834.86 L2267 1834.86 L2267 1843.33 Q2268.02 1842.98 2269.04 1842.82 Q2270.06 1842.64 2271.07 1842.64 Q2276.86 1842.64 2280.24 1845.81 Q2283.62 1848.98 2283.62 1854.4 Q2283.62 1859.97 2280.15 1863.08 Q2276.68 1866.15 2270.36 1866.15 Q2268.18 1866.15 2265.91 1865.78 Q2263.67 1865.41 2261.26 1864.67 L2261.26 1859.97 Q2263.34 1861.11 2265.57 1861.66 Q2267.79 1862.22 2270.26 1862.22 Q2274.27 1862.22 2276.61 1860.11 Q2278.94 1858.01 2278.94 1854.4 Q2278.94 1850.78 2276.61 1848.68 Q2274.27 1846.57 2270.26 1846.57 Q2268.39 1846.57 2266.51 1846.99 Q2264.66 1847.4 2262.72 1848.28 L2262.72 1830.92 Z" fill="#000000" fill-rule="evenodd" fill-opacity="1" /><path clip-path="url(#clip510)" d="M2292.83 1859.6 L2297.72 1859.6 L2297.72 1865.48 L2292.83 1865.48 L2292.83 1859.6 Z" fill="#000000" fill-rule="evenodd" fill-opacity="1" /><path clip-path="url(#clip510)" d="M2317.9 1834 Q2314.29 1834 2312.46 1837.57 Q2310.66 1841.11 2310.66 1848.24 Q2310.66 1855.34 2312.46 1858.91 Q2314.29 1862.45 2317.9 1862.45 Q2321.54 1862.45 2323.34 1858.91 Q2325.17 1855.34 2325.17 1848.24 Q2325.17 1841.11 2323.34 1837.57 Q2321.54 1834 2317.9 1834 M2317.9 1830.3 Q2323.71 1830.3 2326.77 1834.9 Q2329.85 1839.49 2329.85 1848.24 Q2329.85 1856.96 2326.77 1861.57 Q2323.71 1866.15 2317.9 1866.15 Q2312.09 1866.15 2309.01 1861.57 Q2305.96 1856.96 2305.96 1848.24 Q2305.96 1839.49 2309.01 1834.9 Q2312.09 1830.3 2317.9 1830.3 Z" fill="#000000" fill-rule="evenodd" fill-opacity="1" /><polyline clip-path="url(#clip512)" style="stroke:#000000; stroke-linecap:butt; stroke-linejoin:round; stroke-width:2; stroke-opacity:0.1; fill:none" points="
  542.018,1800.78 2295.55,1800.78 
  "/>
<polyline clip-path="url(#clip512)" style="stroke:#000000; stroke-linecap:butt; stroke-linejoin:round; stroke-width:2; stroke-opacity:0.1; fill:none" points="
  542.018,1362.4 2295.55,1362.4 
  "/>
<polyline clip-path="url(#clip512)" style="stroke:#000000; stroke-linecap:butt; stroke-linejoin:round; stroke-width:2; stroke-opacity:0.1; fill:none" points="
  542.018,924.012 2295.55,924.012 
  "/>
<polyline clip-path="url(#clip512)" style="stroke:#000000; stroke-linecap:butt; stroke-linejoin:round; stroke-width:2; stroke-opacity:0.1; fill:none" points="
  542.018,485.628 2295.55,485.628 
  "/>
<polyline clip-path="url(#clip512)" style="stroke:#000000; stroke-linecap:butt; stroke-linejoin:round; stroke-width:2; stroke-opacity:0.1; fill:none" points="
  542.018,47.2441 2295.55,47.2441 
  "/>
<polyline clip-path="url(#clip510)" style="stroke:#000000; stroke-linecap:butt; stroke-linejoin:round; stroke-width:4; stroke-opacity:1; fill:none" points="
  542.018,1800.78 542.018,47.2441 
  "/>
<polyline clip-path="url(#clip510)" style="stroke:#000000; stroke-linecap:butt; stroke-linejoin:round; stroke-width:4; stroke-opacity:1; fill:none" points="
  542.018,1800.78 555.577,1800.78 
  "/>
<polyline clip-path="url(#clip510)" style="stroke:#000000; stroke-linecap:butt; stroke-linejoin:round; stroke-width:4; stroke-opacity:1; fill:none" points="
  542.018,1362.4 555.577,1362.4 
  "/>
<polyline clip-path="url(#clip510)" style="stroke:#000000; stroke-linecap:butt; stroke-linejoin:round; stroke-width:4; stroke-opacity:1; fill:none" points="
  542.018,924.012 555.577,924.012 
  "/>
<polyline clip-path="url(#clip510)" style="stroke:#000000; stroke-linecap:butt; stroke-linejoin:round; stroke-width:4; stroke-opacity:1; fill:none" points="
  542.018,485.628 555.577,485.628 
  "/>
<polyline clip-path="url(#clip510)" style="stroke:#000000; stroke-linecap:butt; stroke-linejoin:round; stroke-width:4; stroke-opacity:1; fill:none" points="
  542.018,47.2441 555.577,47.2441 
  "/>
<path clip-path="url(#clip510)" d="M394.754 1801.23 L424.43 1801.23 L424.43 1805.17 L394.754 1805.17 L394.754 1801.23 Z" fill="#000000" fill-rule="evenodd" fill-opacity="1" /><path clip-path="url(#clip510)" d="M434.569 1783.5 L452.925 1783.5 L452.925 1787.43 L438.851 1787.43 L438.851 1795.91 Q439.87 1795.56 440.888 1795.4 Q441.907 1795.21 442.926 1795.21 Q448.713 1795.21 452.092 1798.38 Q455.472 1801.55 455.472 1806.97 Q455.472 1812.55 452 1815.65 Q448.527 1818.73 442.208 1818.73 Q440.032 1818.73 437.764 1818.36 Q435.518 1817.99 433.111 1817.25 L433.111 1812.55 Q435.194 1813.68 437.416 1814.24 Q439.638 1814.8 442.115 1814.8 Q446.12 1814.8 448.458 1812.69 Q450.796 1810.58 450.796 1806.97 Q450.796 1803.36 448.458 1801.25 Q446.12 1799.15 442.115 1799.15 Q440.24 1799.15 438.365 1799.56 Q436.514 1799.98 434.569 1800.86 L434.569 1783.5 Z" fill="#000000" fill-rule="evenodd" fill-opacity="1" /><path clip-path="url(#clip510)" d="M464.685 1812.18 L469.569 1812.18 L469.569 1818.06 L464.685 1818.06 L464.685 1812.18 Z" fill="#000000" fill-rule="evenodd" fill-opacity="1" /><path clip-path="url(#clip510)" d="M489.754 1786.58 Q486.143 1786.58 484.314 1790.14 Q482.509 1793.68 482.509 1800.81 Q482.509 1807.92 484.314 1811.49 Q486.143 1815.03 489.754 1815.03 Q493.388 1815.03 495.194 1811.49 Q497.022 1807.92 497.022 1800.81 Q497.022 1793.68 495.194 1790.14 Q493.388 1786.58 489.754 1786.58 M489.754 1782.87 Q495.564 1782.87 498.62 1787.48 Q501.698 1792.06 501.698 1800.81 Q501.698 1809.54 498.62 1814.15 Q495.564 1818.73 489.754 1818.73 Q483.944 1818.73 480.865 1814.15 Q477.81 1809.54 477.81 1800.81 Q477.81 1792.06 480.865 1787.48 Q483.944 1782.87 489.754 1782.87 Z" fill="#000000" fill-rule="evenodd" fill-opacity="1" /><path clip-path="url(#clip510)" d="M395.75 1362.85 L425.426 1362.85 L425.426 1366.78 L395.75 1366.78 L395.75 1362.85 Z" fill="#000000" fill-rule="evenodd" fill-opacity="1" /><path clip-path="url(#clip510)" d="M439.546 1375.74 L455.865 1375.74 L455.865 1379.68 L433.921 1379.68 L433.921 1375.74 Q436.583 1372.99 441.166 1368.36 Q445.773 1363.7 446.953 1362.36 Q449.199 1359.84 450.078 1358.1 Q450.981 1356.34 450.981 1354.65 Q450.981 1351.9 449.037 1350.16 Q447.115 1348.43 444.013 1348.43 Q441.814 1348.43 439.361 1349.19 Q436.93 1349.95 434.152 1351.5 L434.152 1346.78 Q436.976 1345.65 439.43 1345.07 Q441.884 1344.49 443.921 1344.49 Q449.291 1344.49 452.486 1347.18 Q455.68 1349.86 455.68 1354.35 Q455.68 1356.48 454.87 1358.4 Q454.083 1360.3 451.976 1362.89 Q451.398 1363.56 448.296 1366.78 Q445.194 1369.98 439.546 1375.74 Z" fill="#000000" fill-rule="evenodd" fill-opacity="1" /><path clip-path="url(#clip510)" d="M465.68 1373.8 L470.564 1373.8 L470.564 1379.68 L465.68 1379.68 L465.68 1373.8 Z" fill="#000000" fill-rule="evenodd" fill-opacity="1" /><path clip-path="url(#clip510)" d="M480.796 1345.12 L499.152 1345.12 L499.152 1349.05 L485.078 1349.05 L485.078 1357.52 Q486.097 1357.18 487.115 1357.01 Q488.134 1356.83 489.152 1356.83 Q494.939 1356.83 498.319 1360 Q501.698 1363.17 501.698 1368.59 Q501.698 1374.17 498.226 1377.27 Q494.754 1380.35 488.435 1380.35 Q486.259 1380.35 483.99 1379.98 Q481.745 1379.61 479.337 1378.87 L479.337 1374.17 Q481.421 1375.3 483.643 1375.86 Q485.865 1376.41 488.342 1376.41 Q492.347 1376.41 494.684 1374.31 Q497.022 1372.2 497.022 1368.59 Q497.022 1364.98 494.684 1362.87 Q492.347 1360.76 488.342 1360.76 Q486.467 1360.76 484.592 1361.18 Q482.74 1361.6 480.796 1362.48 L480.796 1345.12 Z" fill="#000000" fill-rule="evenodd" fill-opacity="1" /><path clip-path="url(#clip510)" d="M444.523 909.81 Q440.912 909.81 439.083 913.375 Q437.277 916.917 437.277 924.046 Q437.277 931.153 439.083 934.718 Q440.912 938.259 444.523 938.259 Q448.157 938.259 449.963 934.718 Q451.791 931.153 451.791 924.046 Q451.791 916.917 449.963 913.375 Q448.157 909.81 444.523 909.81 M444.523 906.107 Q450.333 906.107 453.388 910.713 Q456.467 915.296 456.467 924.046 Q456.467 932.773 453.388 937.38 Q450.333 941.963 444.523 941.963 Q438.713 941.963 435.634 937.38 Q432.578 932.773 432.578 924.046 Q432.578 915.296 435.634 910.713 Q438.713 906.107 444.523 906.107 Z" fill="#000000" fill-rule="evenodd" fill-opacity="1" /><path clip-path="url(#clip510)" d="M464.685 935.412 L469.569 935.412 L469.569 941.292 L464.685 941.292 L464.685 935.412 Z" fill="#000000" fill-rule="evenodd" fill-opacity="1" /><path clip-path="url(#clip510)" d="M489.754 909.81 Q486.143 909.81 484.314 913.375 Q482.509 916.917 482.509 924.046 Q482.509 931.153 484.314 934.718 Q486.143 938.259 489.754 938.259 Q493.388 938.259 495.194 934.718 Q497.022 931.153 497.022 924.046 Q497.022 916.917 495.194 913.375 Q493.388 909.81 489.754 909.81 M489.754 906.107 Q495.564 906.107 498.62 910.713 Q501.698 915.296 501.698 924.046 Q501.698 932.773 498.62 937.38 Q495.564 941.963 489.754 941.963 Q483.944 941.963 480.865 937.38 Q477.81 932.773 477.81 924.046 Q477.81 915.296 480.865 910.713 Q483.944 906.107 489.754 906.107 Z" fill="#000000" fill-rule="evenodd" fill-opacity="1" /><path clip-path="url(#clip510)" d="M439.546 498.973 L455.865 498.973 L455.865 502.908 L433.921 502.908 L433.921 498.973 Q436.583 496.218 441.166 491.589 Q445.773 486.936 446.953 485.593 Q449.199 483.07 450.078 481.334 Q450.981 479.575 450.981 477.885 Q450.981 475.13 449.037 473.394 Q447.115 471.658 444.013 471.658 Q441.814 471.658 439.361 472.422 Q436.93 473.186 434.152 474.737 L434.152 470.015 Q436.976 468.88 439.43 468.302 Q441.884 467.723 443.921 467.723 Q449.291 467.723 452.486 470.408 Q455.68 473.093 455.68 477.584 Q455.68 479.714 454.87 481.635 Q454.083 483.533 451.976 486.126 Q451.398 486.797 448.296 490.014 Q445.194 493.209 439.546 498.973 Z" fill="#000000" fill-rule="evenodd" fill-opacity="1" /><path clip-path="url(#clip510)" d="M465.68 497.028 L470.564 497.028 L470.564 502.908 L465.68 502.908 L465.68 497.028 Z" fill="#000000" fill-rule="evenodd" fill-opacity="1" /><path clip-path="url(#clip510)" d="M480.796 468.348 L499.152 468.348 L499.152 472.283 L485.078 472.283 L485.078 480.755 Q486.097 480.408 487.115 480.246 Q488.134 480.061 489.152 480.061 Q494.939 480.061 498.319 483.232 Q501.698 486.403 501.698 491.82 Q501.698 497.399 498.226 500.501 Q494.754 503.579 488.435 503.579 Q486.259 503.579 483.99 503.209 Q481.745 502.838 479.337 502.098 L479.337 497.399 Q481.421 498.533 483.643 499.088 Q485.865 499.644 488.342 499.644 Q492.347 499.644 494.684 497.538 Q497.022 495.431 497.022 491.82 Q497.022 488.209 494.684 486.102 Q492.347 483.996 488.342 483.996 Q486.467 483.996 484.592 484.413 Q482.74 484.829 480.796 485.709 L480.796 468.348 Z" fill="#000000" fill-rule="evenodd" fill-opacity="1" /><path clip-path="url(#clip510)" d="M434.569 29.9641 L452.925 29.9641 L452.925 33.8993 L438.851 33.8993 L438.851 42.3714 Q439.87 42.0242 440.888 41.8622 Q441.907 41.677 442.926 41.677 Q448.713 41.677 452.092 44.8483 Q455.472 48.0196 455.472 53.4362 Q455.472 59.0149 452 62.1167 Q448.527 65.1954 442.208 65.1954 Q440.032 65.1954 437.764 64.825 Q435.518 64.4547 433.111 63.7139 L433.111 59.0149 Q435.194 60.1491 437.416 60.7047 Q439.638 61.2602 442.115 61.2602 Q446.12 61.2602 448.458 59.1538 Q450.796 57.0473 450.796 53.4362 Q450.796 49.8251 448.458 47.7186 Q446.12 45.6122 442.115 45.6122 Q440.24 45.6122 438.365 46.0288 Q436.514 46.4455 434.569 47.3251 L434.569 29.9641 Z" fill="#000000" fill-rule="evenodd" fill-opacity="1" /><path clip-path="url(#clip510)" d="M464.685 58.6445 L469.569 58.6445 L469.569 64.5241 L464.685 64.5241 L464.685 58.6445 Z" fill="#000000" fill-rule="evenodd" fill-opacity="1" /><path clip-path="url(#clip510)" d="M489.754 33.0428 Q486.143 33.0428 484.314 36.6076 Q482.509 40.1492 482.509 47.2788 Q482.509 54.3853 484.314 57.9501 Q486.143 61.4917 489.754 61.4917 Q493.388 61.4917 495.194 57.9501 Q497.022 54.3853 497.022 47.2788 Q497.022 40.1492 495.194 36.6076 Q493.388 33.0428 489.754 33.0428 M489.754 29.3391 Q495.564 29.3391 498.62 33.9456 Q501.698 38.5289 501.698 47.2788 Q501.698 56.0056 498.62 60.6121 Q495.564 65.1954 489.754 65.1954 Q483.944 65.1954 480.865 60.6121 Q477.81 56.0056 477.81 47.2788 Q477.81 38.5289 480.865 33.9456 Q483.944 29.3391 489.754 29.3391 Z" fill="#000000" fill-rule="evenodd" fill-opacity="1" /><polyline clip-path="url(#clip512)" style="stroke:#1e90ff; stroke-linecap:butt; stroke-linejoin:round; stroke-width:4; stroke-opacity:1; fill:none" points="
  542.018,1053.9 546.413,1054.46 550.808,1055.02 555.203,1055.59 559.598,1056.16 563.992,1056.73 568.387,1057.31 572.782,1057.89 574,1058.05 577.177,1058.48 
  581.572,1059.07 585.967,1059.67 590.361,1060.27 594.756,1060.88 599.151,1061.49 603.546,1062.1 605.997,1062.45 607.941,1062.72 612.336,1063.35 616.73,1063.98 
  621.125,1064.62 625.52,1065.26 629.915,1065.9 634.31,1066.55 636.26,1066.84 638.704,1067.21 643.099,1067.87 647.494,1068.54 651.889,1069.21 656.284,1069.89 
  660.679,1070.57 664.951,1071.24 665.073,1071.26 669.468,1071.95 673.863,1072.65 678.258,1073.36 682.653,1074.07 687.048,1074.78 691.442,1075.5 692.232,1075.63 
  695.837,1076.23 700.232,1076.96 704.627,1077.7 709.022,1078.45 713.417,1079.2 717.811,1079.96 718.221,1080.03 722.206,1080.72 726.601,1081.49 730.996,1082.27 
  735.391,1083.05 739.785,1083.83 743.048,1084.42 744.18,1084.63 748.575,1085.43 752.97,1086.24 757.365,1087.05 761.76,1087.87 766.154,1088.69 766.81,1088.82 
  770.549,1089.53 774.944,1090.37 779.339,1091.21 783.734,1092.06 788.129,1092.92 789.617,1093.21 792.523,1093.79 796.918,1094.66 801.313,1095.54 805.708,1096.42 
  810.103,1097.31 811.551,1097.61 814.498,1098.21 818.892,1099.12 823.287,1100.03 827.682,1100.95 832.077,1101.87 832.696,1102 836.472,1102.8 840.866,1103.74 
  845.261,1104.69 849.656,1105.64 853.141,1106.4 854.051,1106.6 858.446,1107.56 862.841,1108.53 867.235,1109.51 871.63,1110.5 872.958,1110.79 876.025,1111.49 
  880.42,1112.48 884.815,1113.49 889.21,1114.49 892.217,1115.19 893.604,1115.51 897.999,1116.53 902.394,1117.56 906.789,1118.59 910.985,1119.58 911.184,1119.63 
  915.578,1120.67 919.973,1121.72 924.368,1122.78 928.763,1123.83 929.356,1123.98 933.158,1124.9 937.553,1125.97 941.947,1127.04 946.342,1128.12 947.395,1128.37 
  950.737,1129.2 955.132,1130.28 959.527,1131.37 963.922,1132.46 965.183,1132.77 968.316,1133.55 972.711,1134.64 977.106,1135.74 981.501,1136.84 982.815,1137.16 
  985.896,1137.93 990.291,1139.03 994.685,1140.13 999.08,1141.23 1000.4,1141.56 1003.47,1142.33 1007.87,1143.42 1012.26,1144.51 1016.66,1145.6 1018.09,1145.95 
  1021.05,1146.69 1025.45,1147.77 1029.84,1148.84 1034.24,1149.91 1036.05,1150.35 1038.63,1150.97 1043.03,1152.03 1047.42,1153.07 1051.82,1154.1 1054.58,1154.74 
  1056.21,1155.12 1060.61,1156.13 1065,1157.13 1069.4,1158.11 1073.79,1159.07 1074.09,1159.13 1078.19,1160.02 1082.58,1160.94 1086.98,1161.84 1091.37,1162.73 
  1095.51,1163.53 1095.77,1163.58 1100.16,1164.41 1104.56,1165.21 1108.95,1165.98 1113.35,1166.71 1117.74,1167.41 1121.18,1167.92 1122.14,1168.07 1126.53,1168.69 
  1130.92,1169.27 1135.32,1169.8 1139.71,1170.28 1144.11,1170.71 1148.5,1171.08 1152.9,1171.4 1157.29,1171.65 1161.69,1171.84 1166.08,1171.96 1170.48,1172 
  1174.87,1171.96 1179.27,1171.85 1183.66,1171.65 1188.06,1171.36 1192.45,1170.97 1196.85,1170.48 1201.24,1169.89 1205.64,1169.18 1210.03,1168.37 1212.12,1167.92 
  1214.43,1167.43 1218.82,1166.36 1223.22,1165.17 1227.61,1163.84 1228.53,1163.53 1232.01,1162.36 1236.4,1160.74 1240.37,1159.13 1240.8,1158.96 1245.19,1157.02 
  1249.59,1154.92 1249.94,1154.74 1253.98,1152.65 1258.11,1150.35 1258.37,1150.19 1262.77,1147.56 1265.3,1145.95 1267.16,1144.74 1271.56,1141.73 1271.8,1141.56 
  1275.95,1138.52 1277.72,1137.16 1280.35,1135.1 1283.2,1132.77 1284.74,1131.48 1288.32,1128.37 1289.14,1127.65 1293.13,1123.98 1293.53,1123.6 1297.68,1119.58 
  1297.93,1119.34 1302,1115.19 1302.32,1114.85 1306.11,1110.79 1306.72,1110.14 1310.06,1106.4 1311.11,1105.2 1313.85,1102 1315.51,1100.04 1317.5,1097.61 
  1319.9,1094.65 1321.04,1093.21 1324.3,1089.03 1324.46,1088.82 1327.77,1084.42 1328.69,1083.19 1331,1080.03 1333.09,1077.12 1334.14,1075.63 1337.2,1071.24 
  1337.48,1070.84 1340.19,1066.84 1341.88,1064.33 1343.12,1062.45 1345.99,1058.05 1346.27,1057.62 1348.79,1053.66 1350.67,1050.69 1351.55,1049.26 1354.26,1044.87 
  1355.06,1043.57 1356.93,1040.47 1359.46,1036.25 1359.55,1036.08 1362.14,1031.68 1363.85,1028.74 1364.69,1027.29 1367.2,1022.9 1368.25,1021.06 1369.69,1018.5 
  1372.14,1014.11 1372.64,1013.21 1374.57,1009.71 1376.98,1005.32 1377.04,1005.21 1379.36,1000.92 1381.43,997.066 1381.72,996.526 1384.06,992.131 1385.82,988.79 
  1386.38,987.737 1388.68,983.342 1390.22,980.396 1390.97,978.947 1393.25,974.552 1394.61,971.9 1395.51,970.157 1397.76,965.763 1399.01,963.315 1400,961.368 
  1402.23,956.973 1403.4,954.658 1404.45,952.578 1406.67,948.183 1407.8,945.943 1408.88,943.788 1411.09,939.394 1412.19,937.187 1413.29,934.999 1415.49,930.604 
  1416.59,928.406 1417.69,926.209 1419.88,921.814 1420.98,919.617 1422.08,917.419 1424.28,913.025 1425.38,910.837 1426.48,908.63 1428.69,904.235 1429.77,902.081 
  1430.9,899.84 1433.12,895.445 1434.17,893.366 1435.34,891.051 1437.57,886.656 1438.56,884.708 1439.81,882.261 1442.06,877.866 1442.96,876.124 1444.33,873.471 
  1446.6,869.076 1447.35,867.627 1448.89,864.682 1451.19,860.287 1451.75,859.234 1453.52,855.892 1455.85,851.497 1456.14,850.957 1458.22,847.102 1460.54,842.812 
  1460.59,842.707 1463,838.313 1464.93,834.809 1465.43,833.918 1467.89,829.523 1469.33,826.962 1470.37,825.128 1472.89,820.733 1473.72,819.281 1475.44,816.338 
  1478.02,811.944 1478.12,811.776 1480.65,807.549 1482.51,804.456 1483.31,803.154 1486.02,798.759 1486.91,797.331 1488.78,794.364 1491.3,790.406 1491.58,789.97 
  1494.45,785.575 1495.7,783.689 1497.38,781.18 1500.09,777.186 1500.37,776.785 1503.43,772.39 1504.49,770.899 1506.58,767.995 1508.88,764.833 1509.8,763.601 
  1513.11,759.206 1513.27,758.992 1516.54,754.811 1517.67,753.375 1520.07,750.416 1522.06,747.986 1523.72,746.021 1526.46,742.823 1527.51,741.626 1530.85,737.887 
  1531.46,737.232 1535.25,733.176 1535.58,732.837 1539.64,728.688 1539.89,728.442 1544.04,724.422 1544.44,724.047 1548.43,720.375 1549.25,719.652 1552.83,716.542 
  1554.37,715.258 1557.22,712.921 1559.86,710.863 1561.62,709.507 1565.77,706.468 1566.01,706.295 1570.41,703.282 1572.27,702.073 1574.8,700.461 1579.2,697.828 
  1579.46,697.678 1583.59,695.378 1587.63,693.283 1587.99,693.104 1592.38,691.001 1596.78,689.064 1597.2,688.889 1601.17,687.287 1605.57,685.663 1609.04,684.494 
  1609.96,684.188 1614.36,682.855 1618.75,681.66 1623.15,680.596 1625.45,680.099 1627.54,679.657 1631.93,678.839 1636.33,678.136 1640.72,677.544 1645.12,677.056 
  1649.51,676.668 1653.91,676.376 1658.3,676.174 1662.7,676.058 1667.09,676.025 1671.49,676.068 1675.88,676.186 1680.28,676.373 1684.67,676.625 1689.07,676.94 
  1693.46,677.314 1697.86,677.744 1702.25,678.225 1706.65,678.756 1711.04,679.332 1715.44,679.953 1716.4,680.099 1719.83,680.614 1724.23,681.313 1728.62,682.047 
  1733.02,682.815 1737.41,683.615 1741.81,684.443 1742.06,684.494 1746.2,685.298 1750.6,686.178 1754.99,687.082 1759.38,688.007 1763.48,688.889 1763.78,688.952 
  1768.17,689.915 1772.57,690.895 1776.96,691.89 1781.36,692.899 1783,693.283 1785.75,693.921 1790.15,694.954 1794.54,695.998 1798.94,697.051 1801.52,697.678 
  1803.33,698.112 1807.73,699.181 1812.12,700.256 1816.52,701.336 1819.49,702.073 1820.91,702.421 1825.31,703.51 1829.7,704.603 1834.1,705.698 1837.17,706.468 
  1838.49,706.794 1842.89,707.892 1847.28,708.991 1851.68,710.089 1854.76,710.863 1856.07,711.188 1860.47,712.285 1864.86,713.381 1869.26,714.475 1872.39,715.258 
  1873.65,715.568 1878.05,716.657 1882.44,717.744 1886.83,718.828 1890.18,719.652 1891.23,719.908 1895.62,720.985 1900.02,722.057 1904.41,723.125 1908.22,724.047 
  1908.81,724.189 1913.2,725.248 1917.6,726.302 1921.99,727.351 1926.39,728.394 1926.59,728.442 1930.78,729.433 1935.18,730.465 1939.57,731.492 1943.97,732.513 
  1945.35,732.837 1948.36,733.529 1952.76,734.538 1957.15,735.541 1961.55,736.538 1964.61,737.232 1965.94,737.528 1970.34,738.512 1974.73,739.49 1979.13,740.461 
  1983.52,741.426 1984.43,741.626 1987.92,742.384 1992.31,743.336 1996.71,744.281 2001.1,745.219 2004.88,746.021 2005.5,746.151 2009.89,747.076 2014.28,747.995 
  2018.68,748.906 2023.07,749.811 2026.02,750.416 2027.47,750.71 2031.86,751.601 2036.26,752.486 2040.65,753.365 2045.05,754.237 2047.95,754.811 2049.44,755.102 
  2053.84,755.96 2058.23,756.812 2062.63,757.657 2067.02,758.496 2070.76,759.206 2071.42,759.329 2075.81,760.155 2080.21,760.974 2084.6,761.787 2089,762.594 
  2093.39,763.394 2094.52,763.601 2097.79,764.188 2102.18,764.976 2106.58,765.758 2110.97,766.533 2115.37,767.303 2119.35,767.995 2119.76,768.066 2124.16,768.823 
  2128.55,769.574 2132.95,770.32 2137.34,771.059 2141.73,771.792 2145.34,772.39 2146.13,772.52 2150.52,773.242 2154.92,773.958 2159.31,774.668 2163.71,775.373 
  2168.1,776.072 2172.5,776.766 2172.62,776.785 2176.89,777.454 2181.29,778.136 2185.68,778.814 2190.08,779.486 2194.47,780.152 2198.87,780.813 2201.31,781.18 
  2203.26,781.469 2207.66,782.12 2212.05,782.766 2216.45,783.407 2220.84,784.042 2225.24,784.673 2229.63,785.299 2231.58,785.575 2234.03,785.919 2238.42,786.535 
  2242.82,787.146 2247.21,787.753 2251.61,788.354 2256,788.951 2260.39,789.544 2263.57,789.97 2264.79,790.131 2269.18,790.714 2273.58,791.293 2277.97,791.867 
  2282.37,792.437 2286.76,793.002 2291.16,793.563 2295.55,794.12 
  "/>
<path clip-path="url(#clip510)" d="
M1890.11 209.375 L2214.09 209.375 L2214.09 105.695 L1890.11 105.695  Z
  " fill="#ffffff" fill-rule="evenodd" fill-opacity="1"/>
<polyline clip-path="url(#clip510)" style="stroke:#000000; stroke-linecap:butt; stroke-linejoin:round; stroke-width:4; stroke-opacity:1; fill:none" points="
  1890.11,209.375 2214.09,209.375 2214.09,105.695 1890.11,105.695 1890.11,209.375 
  "/>
<polyline clip-path="url(#clip510)" style="stroke:#1e90ff; stroke-linecap:butt; stroke-linejoin:round; stroke-width:4; stroke-opacity:1; fill:none" points="
  1917.26,157.535 2080.19,157.535 
  "/>
<path clip-path="url(#clip510)" d="M2121.19 177.223 Q2119.39 181.852 2117.67 183.264 Q2115.96 184.676 2113.09 184.676 L2109.69 184.676 L2109.69 181.112 L2112.19 181.112 Q2113.95 181.112 2114.92 180.278 Q2115.89 179.445 2117.07 176.343 L2117.83 174.399 L2107.35 148.889 L2111.86 148.889 L2119.96 169.167 L2128.07 148.889 L2132.58 148.889 L2121.19 177.223 Z" fill="#000000" fill-rule="evenodd" fill-opacity="1" /><path clip-path="url(#clip510)" d="M2139.87 170.88 L2147.51 170.88 L2147.51 144.515 L2139.2 146.181 L2139.2 141.922 L2147.46 140.255 L2152.14 140.255 L2152.14 170.88 L2159.78 170.88 L2159.78 174.815 L2139.87 174.815 L2139.87 170.88 Z" fill="#000000" fill-rule="evenodd" fill-opacity="1" /></svg>
