<?xml version="1.0" encoding="utf-8"?>
<svg xmlns="http://www.w3.org/2000/svg" xmlns:xlink="http://www.w3.org/1999/xlink" width="672" height="480" viewBox="0 0 2688 1920">
<defs>
  <clipPath id="clip540">
    <rect x="0" y="0" width="2688" height="1920"/>
  </clipPath>
</defs>
<path clip-path="url(#clip540)" d="
M0 1920 L2688 1920 L2688 0 L0 0  Z
  " fill="#ffffff" fill-rule="evenodd" fill-opacity="1"/>
<defs>
  <clipPath id="clip541">
    <rect x="537" y="0" width="1883" height="1883"/>
  </clipPath>
</defs>
<path clip-path="url(#clip540)" d="
M542.018 1800.78 L2295.55 1800.78 L2295.55 47.2441 L542.018 47.2441  Z
  " fill="#ffffff" fill-rule="evenodd" fill-opacity="1"/>
<defs>
  <clipPath id="clip542">
    <rect x="542" y="47" width="1755" height="1755"/>
  </clipPath>
</defs>
<polyline clip-path="url(#clip542)" style="stroke:#000000; stroke-linecap:butt; stroke-linejoin:round; stroke-width:2; stroke-opacity:0.1; fill:none" points="
  542.018,1800.78 542.018,47.2441 
  "/>
<polyline clip-path="url(#clip542)" style="stroke:#000000; stroke-linecap:butt; stroke-linejoin:round; stroke-width:2; stroke-opacity:0.1; fill:none" points="
  980.402,1800.78 980.402,47.2441 
  "/>
<polyline clip-path="url(#clip542)" style="stroke:#000000; stroke-linecap:butt; stroke-linejoin:round; stroke-width:2; stroke-opacity:0.1; fill:none" points="
  1418.79,1800.78 1418.79,47.2441 
  "/>
<polyline clip-path="url(#clip542)" style="stroke:#000000; stroke-linecap:butt; stroke-linejoin:round; stroke-width:2; stroke-opacity:0.1; fill:none" points="
  1857.17,1800.78 1857.17,47.2441 
  "/>
<polyline clip-path="url(#clip542)" style="stroke:#000000; stroke-linecap:butt; stroke-linejoin:round; stroke-width:2; stroke-opacity:0.1; fill:none" points="
  2295.55,1800.78 2295.55,47.2441 
  "/>
<polyline clip-path="url(#clip540)" style="stroke:#000000; stroke-linecap:butt; stroke-linejoin:round; stroke-width:4; stroke-opacity:1; fill:none" points="
  542.018,1800.78 2295.55,1800.78 
  "/>
<polyline clip-path="url(#clip540)" style="stroke:#000000; stroke-linecap:butt; stroke-linejoin:round; stroke-width:4; stroke-opacity:1; fill:none" points="
  542.018,1800.78 542.018,1781.88 
  "/>
<polyline clip-path="url(#clip540)" style="stroke:#000000; stroke-linecap:butt; stroke-linejoin:round; stroke-width:4; stroke-opacity:1; fill:none" points="
  980.402,1800.78 980.402,1781.88 
  "/>
<polyline clip-path="url(#clip540)" style="stroke:#000000; stroke-linecap:butt; stroke-linejoin:round; stroke-width:4; stroke-opacity:1; fill:none" points="
  1418.79,1800.78 1418.79,1781.88 
  "/>
<polyline clip-path="url(#clip540)" style="stroke:#000000; stroke-linecap:butt; stroke-linejoin:round; stroke-width:4; stroke-opacity:1; fill:none" points="
  1857.17,1800.78 1857.17,1781.88 
  "/>
<polyline clip-path="url(#clip540)" style="stroke:#000000; stroke-linecap:butt; stroke-linejoin:round; stroke-width:4; stroke-opacity:1; fill:none" points="
  2295.55,1800.78 2295.55,1781.88 
  "/>
<path clip-path="url(#clip540)" d="M488.546 1848.65 L518.222 1848.65 L518.222 1852.59 L488.546 1852.59 L488.546 1848.65 Z" fill="#000000" fill-rule="evenodd" fill-opacity="1" /><path clip-path="url(#clip540)" d="M528.361 1830.92 L546.717 1830.92 L546.717 1834.86 L532.643 1834.86 L532.643 1843.33 Q533.662 1842.98 534.68 1842.82 Q535.699 1842.64 536.717 1842.64 Q542.504 1842.64 545.884 1845.81 Q549.264 1848.98 549.264 1854.4 Q549.264 1859.97 545.791 1863.08 Q542.319 1866.15 536 1866.15 Q533.824 1866.15 531.555 1865.78 Q529.31 1865.41 526.903 1864.67 L526.903 1859.97 Q528.986 1861.11 531.208 1861.66 Q533.43 1862.22 535.907 1862.22 Q539.912 1862.22 542.25 1860.11 Q544.588 1858.01 544.588 1854.4 Q544.588 1850.78 542.25 1848.68 Q539.912 1846.57 535.907 1846.57 Q534.032 1846.57 532.157 1846.99 Q530.305 1847.4 528.361 1848.28 L528.361 1830.92 Z" fill="#000000" fill-rule="evenodd" fill-opacity="1" /><path clip-path="url(#clip540)" d="M558.477 1859.6 L563.361 1859.6 L563.361 1865.48 L558.477 1865.48 L558.477 1859.6 Z" fill="#000000" fill-rule="evenodd" fill-opacity="1" /><path clip-path="url(#clip540)" d="M583.546 1834 Q579.935 1834 578.106 1837.57 Q576.301 1841.11 576.301 1848.24 Q576.301 1855.34 578.106 1858.91 Q579.935 1862.45 583.546 1862.45 Q587.18 1862.45 588.986 1858.91 Q590.814 1855.34 590.814 1848.24 Q590.814 1841.11 588.986 1837.57 Q587.18 1834 583.546 1834 M583.546 1830.3 Q589.356 1830.3 592.412 1834.9 Q595.49 1839.49 595.49 1848.24 Q595.49 1856.96 592.412 1861.57 Q589.356 1866.15 583.546 1866.15 Q577.736 1866.15 574.657 1861.57 Q571.602 1856.96 571.602 1848.24 Q571.602 1839.49 574.657 1834.9 Q577.736 1830.3 583.546 1830.3 Z" fill="#000000" fill-rule="evenodd" fill-opacity="1" /><path clip-path="url(#clip540)" d="M927.428 1848.65 L957.104 1848.65 L957.104 1852.59 L927.428 1852.59 L927.428 1848.65 Z" fill="#000000" fill-rule="evenodd" fill-opacity="1" /><path clip-path="url(#clip540)" d="M971.224 1861.55 L987.543 1861.55 L987.543 1865.48 L965.599 1865.48 L965.599 1861.55 Q968.261 1858.79 972.844 1854.16 Q977.451 1849.51 978.631 1848.17 Q980.877 1845.65 981.756 1843.91 Q982.659 1842.15 982.659 1840.46 Q982.659 1837.71 980.715 1835.97 Q978.793 1834.23 975.692 1834.23 Q973.492 1834.23 971.039 1835 Q968.608 1835.76 965.83 1837.31 L965.83 1832.59 Q968.655 1831.46 971.108 1830.88 Q973.562 1830.3 975.599 1830.3 Q980.969 1830.3 984.164 1832.98 Q987.358 1835.67 987.358 1840.16 Q987.358 1842.29 986.548 1844.21 Q985.761 1846.11 983.654 1848.7 Q983.076 1849.37 979.974 1852.59 Q976.872 1855.78 971.224 1861.55 Z" fill="#000000" fill-rule="evenodd" fill-opacity="1" /><path clip-path="url(#clip540)" d="M997.358 1859.6 L1002.24 1859.6 L1002.24 1865.48 L997.358 1865.48 L997.358 1859.6 Z" fill="#000000" fill-rule="evenodd" fill-opacity="1" /><path clip-path="url(#clip540)" d="M1012.47 1830.92 L1030.83 1830.92 L1030.83 1834.86 L1016.76 1834.86 L1016.76 1843.33 Q1017.77 1842.98 1018.79 1842.82 Q1019.81 1842.64 1020.83 1842.64 Q1026.62 1842.64 1030 1845.81 Q1033.38 1848.98 1033.38 1854.4 Q1033.38 1859.97 1029.9 1863.08 Q1026.43 1866.15 1020.11 1866.15 Q1017.94 1866.15 1015.67 1865.78 Q1013.42 1865.41 1011.02 1864.67 L1011.02 1859.97 Q1013.1 1861.11 1015.32 1861.66 Q1017.54 1862.22 1020.02 1862.22 Q1024.02 1862.22 1026.36 1860.11 Q1028.7 1858.01 1028.7 1854.4 Q1028.7 1850.78 1026.36 1848.68 Q1024.02 1846.57 1020.02 1846.57 Q1018.15 1846.57 1016.27 1846.99 Q1014.42 1847.4 1012.47 1848.28 L1012.47 1830.92 Z" fill="#000000" fill-rule="evenodd" fill-opacity="1" /><path clip-path="url(#clip540)" d="M1396.17 1834 Q1392.56 1834 1390.73 1837.57 Q1388.93 1841.11 1388.93 1848.24 Q1388.93 1855.34 1390.73 1858.91 Q1392.56 1862.45 1396.17 1862.45 Q1399.8 1862.45 1401.61 1858.91 Q1403.44 1855.34 1403.44 1848.24 Q1403.44 1841.11 1401.61 1837.57 Q1399.8 1834 1396.17 1834 M1396.17 1830.3 Q1401.98 1830.3 1405.04 1834.9 Q1408.11 1839.49 1408.11 1848.24 Q1408.11 1856.96 1405.04 1861.57 Q1401.98 1866.15 1396.17 1866.15 Q1390.36 1866.15 1387.28 1861.57 Q1384.23 1856.96 1384.23 1848.24 Q1384.23 1839.49 1387.28 1834.9 Q1390.36 1830.3 1396.17 1830.3 Z" fill="#000000" fill-rule="evenodd" fill-opacity="1" /><path clip-path="url(#clip540)" d="M1416.33 1859.6 L1421.22 1859.6 L1421.22 1865.48 L1416.33 1865.48 L1416.33 1859.6 Z" fill="#000000" fill-rule="evenodd" fill-opacity="1" /><path clip-path="url(#clip540)" d="M1441.4 1834 Q1437.79 1834 1435.96 1837.57 Q1434.16 1841.11 1434.16 1848.24 Q1434.16 1855.34 1435.96 1858.91 Q1437.79 1862.45 1441.4 1862.45 Q1445.04 1862.45 1446.84 1858.91 Q1448.67 1855.34 1448.67 1848.24 Q1448.67 1841.11 1446.84 1837.57 Q1445.04 1834 1441.4 1834 M1441.4 1830.3 Q1447.21 1830.3 1450.27 1834.9 Q1453.35 1839.49 1453.35 1848.24 Q1453.35 1856.96 1450.27 1861.57 Q1447.21 1866.15 1441.4 1866.15 Q1435.59 1866.15 1432.51 1861.57 Q1429.46 1856.96 1429.46 1848.24 Q1429.46 1839.49 1432.51 1834.9 Q1435.59 1830.3 1441.4 1830.3 Z" fill="#000000" fill-rule="evenodd" fill-opacity="1" /><path clip-path="url(#clip540)" d="M1828.91 1861.55 L1845.23 1861.55 L1845.23 1865.48 L1823.28 1865.48 L1823.28 1861.55 Q1825.94 1858.79 1830.53 1854.16 Q1835.13 1849.51 1836.31 1848.17 Q1838.56 1845.65 1839.44 1843.91 Q1840.34 1842.15 1840.34 1840.46 Q1840.34 1837.71 1838.4 1835.97 Q1836.48 1834.23 1833.37 1834.23 Q1831.17 1834.23 1828.72 1835 Q1826.29 1835.76 1823.51 1837.31 L1823.51 1832.59 Q1826.34 1831.46 1828.79 1830.88 Q1831.24 1830.3 1833.28 1830.3 Q1838.65 1830.3 1841.85 1832.98 Q1845.04 1835.67 1845.04 1840.16 Q1845.04 1842.29 1844.23 1844.21 Q1843.44 1846.11 1841.34 1848.7 Q1840.76 1849.37 1837.66 1852.59 Q1834.55 1855.78 1828.91 1861.55 Z" fill="#000000" fill-rule="evenodd" fill-opacity="1" /><path clip-path="url(#clip540)" d="M1855.04 1859.6 L1859.92 1859.6 L1859.92 1865.48 L1855.04 1865.48 L1855.04 1859.6 Z" fill="#000000" fill-rule="evenodd" fill-opacity="1" /><path clip-path="url(#clip540)" d="M1870.16 1830.92 L1888.51 1830.92 L1888.51 1834.86 L1874.44 1834.86 L1874.44 1843.33 Q1875.46 1842.98 1876.48 1842.82 Q1877.49 1842.64 1878.51 1842.64 Q1884.3 1842.64 1887.68 1845.81 Q1891.06 1848.98 1891.06 1854.4 Q1891.06 1859.97 1887.59 1863.08 Q1884.11 1866.15 1877.79 1866.15 Q1875.62 1866.15 1873.35 1865.78 Q1871.1 1865.41 1868.7 1864.67 L1868.7 1859.97 Q1870.78 1861.11 1873 1861.66 Q1875.23 1862.22 1877.7 1862.22 Q1881.71 1862.22 1884.04 1860.11 Q1886.38 1858.01 1886.38 1854.4 Q1886.38 1850.78 1884.04 1848.68 Q1881.71 1846.57 1877.7 1846.57 Q1875.83 1846.57 1873.95 1846.99 Q1872.1 1847.4 1870.16 1848.28 L1870.16 1830.92 Z" fill="#000000" fill-rule="evenodd" fill-opacity="1" /><path clip-path="url(#clip540)" d="M2262.72 1830.92 L2281.07 1830.92 L2281.07 1834.86 L2267 1834.86 L2267 1843.33 Q2268.02 1842.98 2269.04 1842.82 Q2270.06 1842.64 2271.07 1842.64 Q2276.86 1842.64 2280.24 1845.81 Q2283.62 1848.98 2283.62 1854.4 Q2283.62 1859.97 2280.15 1863.08 Q2276.68 1866.15 2270.36 1866.15 Q2268.18 1866.15 2265.91 1865.78 Q2263.67 1865.41 2261.26 1864.67 L2261.26 1859.97 Q2263.34 1861.11 2265.57 1861.66 Q2267.79 1862.22 2270.26 1862.22 Q2274.27 1862.22 2276.61 1860.11 Q2278.94 1858.01 2278.94 1854.4 Q2278.94 1850.78 2276.61 1848.68 Q2274.27 1846.57 2270.26 1846.57 Q2268.39 1846.57 2266.51 1846.99 Q2264.66 1847.4 2262.72 1848.28 L2262.72 1830.92 Z" fill="#000000" fill-rule="evenodd" fill-opacity="1" /><path clip-path="url(#clip540)" d="M2292.83 1859.6 L2297.72 1859.6 L2297.72 1865.48 L2292.83 1865.48 L2292.83 1859.6 Z" fill="#000000" fill-rule="evenodd" fill-opacity="1" /><path clip-path="url(#clip540)" d="M2317.9 1834 Q2314.29 1834 2312.46 1837.57 Q2310.66 1841.11 2310.66 1848.24 Q2310.66 1855.34 2312.46 1858.91 Q2314.29 1862.45 2317.9 1862.45 Q2321.54 1862.45 2323.34 1858.91 Q2325.17 1855.34 2325.17 1848.24 Q2325.17 1841.11 2323.34 1837.57 Q2321.54 1834 2317.9 1834 M2317.9 1830.3 Q2323.71 1830.3 2326.77 1834.9 Q2329.85 1839.49 2329.85 1848.24 Q2329.85 1856.96 2326.77 1861.57 Q2323.71 1866.15 2317.9 1866.15 Q2312.09 1866.15 2309.01 1861.57 Q2305.96 1856.96 2305.96 1848.24 Q2305.96 1839.49 2309.01 1834.9 Q2312.09 1830.3 2317.9 1830.3 Z" fill="#000000" fill-rule="evenodd" fill-opacity="1" /><polyline clip-path="url(#clip542)" style="stroke:#000000; stroke-linecap:butt; stroke-linejoin:round; stroke-width:2; stroke-opacity:0.1; fill:none" points="
  542.018,1800.78 2295.55,1800.78 
  "/>
<polyline clip-path="url(#clip542)" style="stroke:#000000; stroke-linecap:butt; stroke-linejoin:round; stroke-width:2; stroke-opacity:0.1; fill:none" points="
  542.018,1362.4 2295.55,1362.4 
  "/>
<polyline clip-path="url(#clip542)" style="stroke:#000000; stroke-linecap:butt; stroke-linejoin:round; stroke-width:2; stroke-opacity:0.1; fill:none" points="
  542.018,924.012 2295.55,924.012 
  "/>
<polyline clip-path="url(#clip542)" style="stroke:#000000; stroke-linecap:butt; stroke-linejoin:round; stroke-width:2; stroke-opacity:0.1; fill:none" points="
  542.018,485.628 2295.55,485.628 
  "/>
<polyline clip-path="url(#clip542)" style="stroke:#000000; stroke-linecap:butt; stroke-linejoin:round; stroke-width:2; stroke-opacity:0.1; fill:none" points="
  542.018,47.2441 2295.55,47.2441 
  "/>
<polyline clip-path="url(#clip540)" style="stroke:#000000; stroke-linecap:butt; stroke-linejoin:round; stroke-width:4; stroke-opacity:1; fill:none" points="
  542.018,1800.78 542.018,47.2441 
  "/>
<polyline clip-path="url(#clip540)" style="stroke:#000000; stroke-linecap:butt; stroke-linejoin:round; stroke-width:4; stroke-opacity:1; fill:none" points="
  542.018,1800.78 555.577,1800.78 
  "/>
<polyline clip-path="url(#clip540)" style="stroke:#000000; stroke-linecap:butt; stroke-linejoin:round; stroke-width:4; stroke-opacity:1; fill:none" points="
  542.018,1362.4 555.577,1362.4 
  "/>
<polyline clip-path="url(#clip540)" style="stroke:#000000; stroke-linecap:butt; stroke-linejoin:round; stroke-width:4; stroke-opacity:1; fill:none" points="
  542.018,924.012 555.577,924.012 
  "/>
<polyline clip-path="url(#clip540)" style="stroke:#000000; stroke-linecap:butt; stroke-linejoin:round; stroke-width:4; stroke-opacity:1; fill:none" points="
  542.018,485.628 555.577,485.628 
  "/>
<polyline clip-path="url(#clip540)" style="stroke:#000000; stroke-linecap:butt; stroke-linejoin:round; stroke-width:4; stroke-opacity:1; fill:none" points="
  542.018,47.2441 555.577,47.2441 
  "/>
<path clip-path="url(#clip540)" d="M394.754 1801.23 L424.43 1801.23 L424.43 1805.17 L394.754 1805.17 L394.754 1801.23 Z" fill="#000000" fill-rule="evenodd" fill-opacity="1" /><path clip-path="url(#clip540)" d="M434.569 1783.5 L452.925 1783.5 L452.925 1787.43 L438.851 1787.43 L438.851 1795.91 Q439.87 1795.56 440.888 1795.4 Q441.907 1795.21 442.926 1795.21 Q448.713 1795.21 452.092 1798.38 Q455.472 1801.55 455.472 1806.97 Q455.472 1812.55 452 1815.65 Q448.527 1818.73 442.208 1818.73 Q440.032 1818.73 437.764 1818.36 Q435.518 1817.99 433.111 1817.25 L433.111 1812.55 Q435.194 1813.68 437.416 1814.24 Q439.638 1814.8 442.115 1814.8 Q446.12 1814.8 448.458 1812.69 Q450.796 1810.58 450.796 1806.97 Q450.796 1803.36 448.458 1801.25 Q446.12 1799.15 442.115 1799.15 Q440.24 1799.15 438.365 1799.56 Q436.514 1799.98 434.569 1800.86 L434.569 1783.5 Z" fill="#000000" fill-rule="evenodd" fill-opacity="1" /><path clip-path="url(#clip540)" d="M464.685 1812.18 L469.569 1812.18 L469.569 1818.06 L464.685 1818.06 L464.685 1812.18 Z" fill="#000000" fill-rule="evenodd" fill-opacity="1" /><path clip-path="url(#clip540)" d="M489.754 1786.58 Q486.143 1786.58 484.314 1790.14 Q482.509 1793.68 482.509 1800.81 Q482.509 1807.92 484.314 1811.49 Q486.143 1815.03 489.754 1815.03 Q493.388 1815.03 495.194 1811.49 Q497.022 1807.92 497.022 1800.81 Q497.022 1793.68 495.194 1790.14 Q493.388 1786.58 489.754 1786.58 M489.754 1782.87 Q495.564 1782.87 498.62 1787.48 Q501.698 1792.06 501.698 1800.81 Q501.698 1809.54 498.62 1814.15 Q495.564 1818.73 489.754 1818.73 Q483.944 1818.73 480.865 1814.15 Q477.81 1809.54 477.81 1800.81 Q477.81 1792.06 480.865 1787.48 Q483.944 1782.87 489.754 1782.87 Z" fill="#000000" fill-rule="evenodd" fill-opacity="1" /><path clip-path="url(#clip540)" d="M395.75 1362.85 L425.426 1362.85 L425.426 1366.78 L395.75 1366.78 L395.75 1362.85 Z" fill="#000000" fill-rule="evenodd" fill-opacity="1" /><path clip-path="url(#clip540)" d="M439.546 1375.74 L455.865 1375.74 L455.865 1379.68 L433.921 1379.68 L433.921 1375.74 Q436.583 1372.99 441.166 1368.36 Q445.773 1363.7 446.953 1362.36 Q449.199 1359.84 450.078 1358.1 Q450.981 1356.34 450.981 1354.65 Q450.981 1351.9 449.037 1350.16 Q447.115 1348.43 444.013 1348.43 Q441.814 1348.43 439.361 1349.19 Q436.93 1349.95 434.152 1351.5 L434.152 1346.78 Q436.976 1345.65 439.43 1345.07 Q441.884 1344.49 443.921 1344.49 Q449.291 1344.49 452.486 1347.18 Q455.68 1349.86 455.68 1354.35 Q455.68 1356.48 454.87 1358.4 Q454.083 1360.3 451.976 1362.89 Q451.398 1363.56 448.296 1366.78 Q445.194 1369.98 439.546 1375.74 Z" fill="#000000" fill-rule="evenodd" fill-opacity="1" /><path clip-path="url(#clip540)" d="M465.68 1373.8 L470.564 1373.8 L470.564 1379.68 L465.68 1379.68 L465.68 1373.8 Z" fill="#000000" fill-rule="evenodd" fill-opacity="1" /><path clip-path="url(#clip540)" d="M480.796 1345.12 L499.152 1345.12 L499.152 1349.05 L485.078 1349.05 L485.078 1357.52 Q486.097 1357.18 487.115 1357.01 Q488.134 1356.83 489.152 1356.83 Q494.939 1356.83 498.319 1360 Q501.698 1363.17 501.698 1368.59 Q501.698 1374.17 498.226 1377.27 Q494.754 1380.35 488.435 1380.35 Q486.259 1380.35 483.99 1379.98 Q481.745 1379.61 479.337 1378.87 L479.337 1374.17 Q481.421 1375.3 483.643 1375.86 Q485.865 1376.41 488.342 1376.41 Q492.347 1376.41 494.684 1374.31 Q497.022 1372.2 497.022 1368.59 Q497.022 1364.98 494.684 1362.87 Q492.347 1360.76 488.342 1360.76 Q486.467 1360.76 484.592 1361.18 Q482.74 1361.6 480.796 1362.48 L480.796 1345.12 Z" fill="#000000" fill-rule="evenodd" fill-opacity="1" /><path clip-path="url(#clip540)" d="M444.523 909.81 Q440.912 909.81 439.083 913.375 Q437.277 916.917 437.277 924.046 Q437.277 931.153 439.083 934.718 Q440.912 938.259 444.523 938.259 Q448.157 938.259 449.963 934.718 Q451.791 931.153 451.791 924.046 Q451.791 916.917 449.963 913.375 Q448.157 909.81 444.523 909.81 M444.523 906.107 Q450.333 906.107 453.388 910.713 Q456.467 915.296 456.467 924.046 Q456.467 932.773 453.388 937.38 Q450.333 941.963 444.523 941.963 Q438.713 941.963 435.634 937.38 Q432.578 932.773 432.578 924.046 Q432.578 915.296 435.634 910.713 Q438.713 906.107 444.523 906.107 Z" fill="#000000" fill-rule="evenodd" fill-opacity="1" /><path clip-path="url(#clip540)" d="M464.685 935.412 L469.569 935.412 L469.569 941.292 L464.685 941.292 L464.685 935.412 Z" fill="#000000" fill-rule="evenodd" fill-opacity="1" /><path clip-path="url(#clip540)" d="M489.754 909.81 Q486.143 909.81 484.314 913.375 Q482.509 916.917 482.509 924.046 Q482.509 931.153 484.314 934.718 Q486.143 938.259 489.754 938.259 Q493.388 938.259 495.194 934.718 Q497.022 931.153 497.022 924.046 Q497.022 916.917 495.194 913.375 Q493.388 909.81 489.754 909.81 M489.754 906.107 Q495.564 906.107 498.62 910.713 Q501.698 915.296 501.698 924.046 Q501.698 932.773 498.62 937.38 Q495.564 941.963 489.754 941.963 Q483.944 941.963 480.865 937.38 Q477.81 932.773 477.81 924.046 Q477.81 915.296 480.865 910.713 Q483.944 906.107 489.754 906.107 Z" fill="#000000" fill-rule="evenodd" fill-opacity="1" /><path clip-path="url(#clip540)" d="M439.546 498.973 L455.865 498.973 L455.865 502.908 L433.921 502.908 L433.921 498.973 Q436.583 496.218 441.166 491.589 Q445.773 486.936 446.953 485.593 Q449.199 483.07 450.078 481.334 Q450.981 479.575 450.981 477.885 Q450.981 475.13 449.037 473.394 Q447.115 471.658 444.013 471.658 Q441.814 471.658 439.361 472.422 Q436.93 473.186 434.152 474.737 L434.152 470.015 Q436.976 468.88 439.43 468.302 Q441.884 467.723 443.921 467.723 Q449.291 467.723 452.486 470.408 Q455.68 473.093 455.68 477.584 Q455.68 479.714 454.87 481.635 Q454.083 483.533 451.976 486.126 Q451.398 486.797 448.296 490.014 Q445.194 493.209 439.546 498.973 Z" fill="#000000" fill-rule="evenodd" fill-opacity="1" /><path clip-path="url(#clip540)" d="M465.68 497.028 L470.564 497.028 L470.564 502.908 L465.68 502.908 L465.68 497.028 Z" fill="#000000" fill-rule="evenodd" fill-opacity="1" /><path clip-path="url(#clip540)" d="M480.796 468.348 L499.152 468.348 L499.152 472.283 L485.078 472.283 L485.078 480.755 Q486.097 480.408 487.115 480.246 Q488.134 480.061 489.152 480.061 Q494.939 480.061 498.319 483.232 Q501.698 486.403 501.698 491.82 Q501.698 497.399 498.226 500.501 Q494.754 503.579 488.435 503.579 Q486.259 503.579 483.99 503.209 Q481.745 502.838 479.337 502.098 L479.337 497.399 Q481.421 498.533 483.643 499.088 Q485.865 499.644 488.342 499.644 Q492.347 499.644 494.684 497.538 Q497.022 495.431 497.022 491.82 Q497.022 488.209 494.684 486.102 Q492.347 483.996 488.342 483.996 Q486.467 483.996 484.592 484.413 Q482.74 484.829 480.796 485.709 L480.796 468.348 Z" fill="#000000" fill-rule="evenodd" fill-opacity="1" /><path clip-path="url(#clip540)" d="M434.569 29.9641 L452.925 29.9641 L452.925 33.8993 L438.851 33.8993 L438.851 42.3714 Q439.87 42.0242 440.888 41.8622 Q441.907 41.677 442.926 41.677 Q448.713 41.677 452.092 44.8483 Q455.472 48.0196 455.472 53.4362 Q455.472 59.0149 452 62.1167 Q448.527 65.1954 442.208 65.1954 Q440.032 65.1954 437.764 64.825 Q435.518 64.4547 433.111 63.7139 L433.111 59.0149 Q435.194 60.1491 437.416 60.7047 Q439.638 61.2602 442.115 61.2602 Q446.12 61.2602 448.458 59.1538 Q450.796 57.0473 450.796 53.4362 Q450.796 49.8251 448.458 47.7186 Q446.12 45.6122 442.115 45.6122 Q440.24 45.6122 438.365 46.0288 Q436.514 46.4455 434.569 47.3251 L434.569 29.9641 Z" fill="#000000" fill-rule="evenodd" fill-opacity="1" /><path clip-path="url(#clip540)" d="M464.685 58.6445 L469.569 58.6445 L469.569 64.5241 L464.685 64.5241 L464.685 58.6445 Z" fill="#000000" fill-rule="evenodd" fill-opacity="1" /><path clip-path="url(#clip540)" d="M489.754 33.0428 Q486.143 33.0428 484.314 36.6076 Q482.509 40.1492 482.509 47.2788 Q482.509 54.3853 484.314 57.9501 Q486.143 61.4917 489.754 61.4917 Q493.388 61.4917 495.194 57.9501 Q497.022 54.3853 497.022 47.2788 Q497.022 40.1492 495.194 36.6076 Q493.388 33.0428 489.754 33.0428 M489.754 29.3391 Q495.564 29.3391 498.62 33.9456 Q501.698 38.5289 501.698 47.2788 Q501.698 56.0056 498.62 60.6121 Q495.564 65.1954 489.754 65.1954 Q483.944 65.1954 480.865 60.6121 Q477.81 56.0056 477.81 47.2788 Q477.81 38.5289 480.865 33.9456 Q483.944 29.3391 489.754 29.3391 Z" fill="#000000" fill-rule="evenodd" fill-opacity="1" /><polyline clip-path="url(#clip542)" style="stroke:#1e90ff; stroke-linecap:butt; stroke-linejoin:round; stroke-width:4; stroke-opacity:1; fill:none" points="
  1068.92,899.84 1068.64,904.235 1068.42,908.63 1068.26,913.025 1068.15,917.419 1068.09,921.814 1068.09,926.209 1068.15,930.604 1068.26,934.999 1068.42,939.394 
  1068.64,943.788 1068.92,948.183 1069.25,952.578 1069.4,954.317 1069.63,956.973 1070.08,961.368 1070.58,965.763 1071.13,970.157 1071.75,974.552 1072.41,978.947 
  1073.14,983.342 1073.79,987.037 1073.92,987.737 1074.76,992.131 1075.66,996.526 1076.62,1000.92 1077.64,1005.32 1078.19,1007.58 1078.71,1009.71 1079.86,1014.11 
  1081.05,1018.5 1082.31,1022.9 1082.58,1023.81 1083.64,1027.29 1085.02,1031.68 1086.47,1036.08 1086.98,1037.56 1087.99,1040.47 1089.57,1044.87 1091.21,1049.26 
  1091.37,1049.68 1092.93,1053.66 1094.71,1058.05 1095.77,1060.57 1096.56,1062.45 1098.49,1066.84 1100.16,1070.54 1100.48,1071.24 1102.56,1075.63 1104.56,1079.75 
  1104.69,1080.03 1106.92,1084.42 1108.95,1088.32 1109.22,1088.82 1111.6,1093.21 1113.35,1096.34 1114.06,1097.61 1116.61,1102 1117.74,1103.91 1119.24,1106.4 
  1121.96,1110.79 1122.14,1111.07 1124.77,1115.19 1126.53,1117.86 1127.68,1119.58 1130.67,1123.98 1130.92,1124.34 1133.78,1128.37 1135.32,1130.5 1136.98,1132.77 
  1139.71,1136.41 1140.29,1137.16 1143.71,1141.56 1144.11,1142.06 1147.24,1145.95 1148.5,1147.48 1150.9,1150.35 1152.9,1152.69 1154.67,1154.74 1157.29,1157.71 
  1158.58,1159.13 1161.69,1162.53 1162.62,1163.53 1166.08,1167.19 1166.8,1167.92 1170.48,1171.67 1171.12,1172.32 1174.87,1176 1175.61,1176.71 1179.27,1180.18 
  1180.26,1181.11 1183.66,1184.22 1185.09,1185.5 1188.06,1188.12 1190.11,1189.9 1192.45,1191.9 1195.32,1194.29 1196.85,1195.55 1200.73,1198.69 1201.24,1199.09 
  1205.64,1202.51 1206.39,1203.08 1210.03,1205.81 1212.3,1207.48 1214.43,1209.02 1218.46,1211.87 1218.82,1212.12 1223.22,1215.12 1224.94,1216.27 1227.61,1218.02 
  1231.72,1220.66 1232.01,1220.84 1236.4,1223.56 1238.89,1225.06 1240.8,1226.19 1245.19,1228.74 1246.46,1229.45 1249.59,1231.2 1253.98,1233.58 1254.48,1233.85 
  1258.37,1235.88 1262.77,1238.1 1263.05,1238.24 1267.16,1240.24 1271.56,1242.32 1272.26,1242.64 1275.95,1244.31 1280.35,1246.23 1282.22,1247.03 1284.74,1248.09 
  1289.14,1249.87 1293.11,1251.43 1293.53,1251.59 1297.93,1253.23 1302.32,1254.81 1305.24,1255.82 1306.72,1256.33 1311.11,1257.77 1315.51,1259.16 1318.99,1260.22 
  1319.9,1260.49 1324.3,1261.74 1328.69,1262.94 1333.09,1264.08 1335.22,1264.61 1337.48,1265.16 1341.88,1266.18 1346.27,1267.13 1350.67,1268.03 1355.06,1268.88 
  1355.76,1269.01 1359.46,1269.66 1363.85,1270.38 1368.25,1271.05 1372.64,1271.66 1377.04,1272.22 1381.43,1272.72 1385.82,1273.16 1388.48,1273.4 1390.22,1273.55 
  1394.61,1273.88 1399.01,1274.16 1403.4,1274.38 1407.8,1274.54 1412.19,1274.65 1416.59,1274.71 1420.98,1274.71 1425.38,1274.65 1429.77,1274.54 1434.17,1274.38 
  1438.56,1274.16 1442.96,1273.88 1447.35,1273.55 1449.09,1273.4 1451.75,1273.16 1456.14,1272.72 1460.54,1272.22 1464.93,1271.66 1469.33,1271.05 1473.72,1270.38 
  1478.12,1269.66 1481.81,1269.01 1482.51,1268.88 1486.91,1268.03 1491.3,1267.13 1495.7,1266.18 1500.09,1265.16 1502.35,1264.61 1504.49,1264.08 1508.88,1262.94 
  1513.27,1261.74 1517.67,1260.49 1518.58,1260.22 1522.06,1259.16 1526.46,1257.77 1530.85,1256.33 1532.34,1255.82 1535.25,1254.81 1539.64,1253.23 1544.04,1251.59 
  1544.46,1251.43 1548.43,1249.87 1552.83,1248.09 1555.35,1247.03 1557.22,1246.23 1561.62,1244.31 1565.32,1242.64 1566.01,1242.32 1570.41,1240.24 1574.52,1238.24 
  1574.8,1238.1 1579.2,1235.88 1583.09,1233.85 1583.59,1233.58 1587.99,1231.2 1591.12,1229.45 1592.38,1228.74 1596.78,1226.19 1598.68,1225.06 1601.17,1223.56 
  1605.57,1220.84 1605.85,1220.66 1609.96,1218.02 1612.63,1216.27 1614.36,1215.12 1618.75,1212.12 1619.11,1211.87 1623.15,1209.02 1625.27,1207.48 1627.54,1205.81 
  1631.18,1203.08 1631.93,1202.51 1636.33,1199.09 1636.84,1198.69 1640.72,1195.55 1642.26,1194.29 1645.12,1191.9 1647.47,1189.9 1649.51,1188.12 1652.48,1185.5 
  1653.91,1184.22 1657.31,1181.11 1658.3,1180.18 1661.96,1176.71 1662.7,1176 1666.45,1172.32 1667.09,1171.67 1670.78,1167.92 1671.49,1167.19 1674.96,1163.53 
  1675.88,1162.53 1678.99,1159.13 1680.28,1157.71 1682.9,1154.74 1684.67,1152.69 1686.67,1150.35 1689.07,1147.48 1690.33,1145.95 1693.46,1142.06 1693.87,1141.56 
  1697.28,1137.16 1697.86,1136.41 1700.59,1132.77 1702.25,1130.5 1703.79,1128.37 1706.65,1124.34 1706.9,1123.98 1709.89,1119.58 1711.04,1117.86 1712.8,1115.19 
  1715.44,1111.07 1715.62,1110.79 1718.33,1106.4 1719.83,1103.91 1720.96,1102 1723.51,1097.61 1724.23,1096.34 1725.97,1093.21 1728.36,1088.82 1728.62,1088.32 
  1730.65,1084.42 1732.88,1080.03 1733.02,1079.75 1735.02,1075.63 1737.09,1071.24 1737.41,1070.54 1739.08,1066.84 1741.01,1062.45 1741.81,1060.57 1742.86,1058.05 
  1744.64,1053.66 1746.2,1049.68 1746.36,1049.26 1748,1044.87 1749.59,1040.47 1750.6,1037.56 1751.1,1036.08 1752.55,1031.68 1753.94,1027.29 1754.99,1023.81 
  1755.26,1022.9 1756.52,1018.5 1757.72,1014.11 1758.86,1009.71 1759.38,1007.58 1759.94,1005.32 1760.95,1000.92 1761.91,996.526 1762.81,992.131 1763.65,987.737 
  1763.78,987.037 1764.43,983.342 1765.16,978.947 1765.83,974.552 1766.44,970.157 1766.99,965.763 1767.49,961.368 1767.94,956.973 1768.17,954.317 1768.33,952.578 
  1768.66,948.183 1768.93,943.788 1769.15,939.394 1769.32,934.999 1769.43,930.604 1769.48,926.209 1769.48,921.814 1769.43,917.419 1769.32,913.025 1769.15,908.63 
  1768.93,904.235 1768.66,899.84 1768.33,895.445 1768.17,893.706 1767.94,891.051 1767.49,886.656 1766.99,882.261 1766.44,877.866 1765.83,873.471 1765.16,869.076 
  1764.43,864.682 1763.78,860.987 1763.65,860.287 1762.81,855.892 1761.91,851.497 1760.95,847.102 1759.94,842.707 1759.38,840.448 1758.86,838.313 1757.72,833.918 
  1756.52,829.523 1755.26,825.128 1754.99,824.217 1753.94,820.733 1752.55,816.338 1751.1,811.944 1750.6,810.461 1749.59,807.549 1748,803.154 1746.36,798.759 
  1746.2,798.339 1744.64,794.364 1742.86,789.97 1741.81,787.45 1741.01,785.575 1739.08,781.18 1737.41,777.482 1737.09,776.785 1735.02,772.39 1733.02,768.275 
  1732.88,767.995 1730.65,763.601 1728.62,759.708 1728.36,759.206 1725.97,754.811 1724.23,751.682 1723.51,750.416 1720.96,746.021 1719.83,744.117 1718.33,741.626 
  1715.62,737.232 1715.44,736.949 1712.8,732.837 1711.04,730.163 1709.89,728.442 1706.9,724.047 1706.65,723.687 1703.79,719.652 1702.25,717.523 1700.59,715.258 
  1697.86,711.616 1697.28,710.863 1693.87,706.468 1693.46,705.961 1690.33,702.073 1689.07,700.542 1686.67,697.678 1684.67,695.331 1682.9,693.283 1680.28,690.317 
  1678.99,688.889 1675.88,685.489 1674.96,684.494 1671.49,680.836 1670.78,680.099 1667.09,676.35 1666.45,675.704 1662.7,672.021 1661.96,671.309 1658.3,667.841 
  1657.31,666.914 1653.91,663.803 1652.48,662.52 1649.51,659.9 1647.47,658.125 1645.12,656.124 1642.26,653.73 1640.72,652.47 1636.84,649.335 1636.33,648.933 
  1631.93,645.514 1631.18,644.94 1627.54,642.209 1625.27,640.545 1623.15,639.006 1619.11,636.151 1618.75,635.9 1614.36,632.903 1612.63,631.756 1609.96,630 
  1605.85,627.361 1605.57,627.182 1601.17,624.468 1598.68,622.966 1596.78,621.834 1592.38,619.287 1591.12,618.571 1587.99,616.828 1583.59,614.442 1583.09,614.177 
  1579.2,612.148 1574.8,609.92 1574.52,609.782 1570.41,607.781 1566.01,605.706 1565.32,605.387 1561.62,603.715 1557.22,601.789 1555.35,600.992 1552.83,599.937 
  1548.43,598.155 1544.46,596.597 1544.04,596.435 1539.64,594.794 1535.25,593.212 1532.34,592.202 1530.85,591.695 1526.46,590.25 1522.06,588.862 1518.58,587.808 
  1517.67,587.535 1513.27,586.28 1508.88,585.081 1504.49,583.94 1502.35,583.413 1500.09,582.862 1495.7,581.848 1491.3,580.89 1486.91,579.989 1482.51,579.144 
  1481.81,579.018 1478.12,578.363 1473.72,577.64 1469.33,576.972 1464.93,576.36 1460.54,575.804 1456.14,575.303 1451.75,574.858 1449.09,574.623 1447.35,574.471 
  1442.96,574.141 1438.56,573.867 1434.17,573.647 1429.77,573.482 1425.38,573.372 1420.98,573.317 1416.59,573.317 1412.19,573.372 1407.8,573.482 1403.4,573.647 
  1399.01,573.867 1394.61,574.141 1390.22,574.471 1388.48,574.623 1385.82,574.858 1381.43,575.303 1377.04,575.804 1372.64,576.36 1368.25,576.972 1363.85,577.64 
  1359.46,578.363 1355.76,579.018 1355.06,579.144 1350.67,579.989 1346.27,580.89 1341.88,581.848 1337.48,582.862 1335.22,583.413 1333.09,583.94 1328.69,585.081 
  1324.3,586.28 1319.9,587.535 1318.99,587.808 1315.51,588.862 1311.11,590.25 1306.72,591.695 1305.24,592.202 1302.32,593.212 1297.93,594.794 1293.53,596.435 
  1293.11,596.597 1289.14,598.155 1284.74,599.937 1282.22,600.992 1280.35,601.789 1275.95,603.715 1272.26,605.387 1271.56,605.706 1267.16,607.781 1263.05,609.782 
  1262.77,609.92 1258.37,612.148 1254.48,614.177 1253.98,614.442 1249.59,616.828 1246.46,618.571 1245.19,619.287 1240.8,621.834 1238.89,622.966 1236.4,624.468 
  1232.01,627.182 1231.72,627.361 1227.61,630 1224.94,631.756 1223.22,632.903 1218.82,635.9 1218.46,636.151 1214.43,639.006 1212.3,640.545 1210.03,642.209 
  1206.39,644.94 1205.64,645.514 1201.24,648.933 1200.73,649.335 1196.85,652.47 1195.32,653.73 1192.45,656.124 1190.11,658.125 1188.06,659.9 1185.09,662.52 
  1183.66,663.803 1180.26,666.914 1179.27,667.841 1175.61,671.309 1174.87,672.021 1171.12,675.704 1170.48,676.35 1166.8,680.099 1166.08,680.836 1162.62,684.494 
  1161.69,685.489 1158.58,688.889 1157.29,690.317 1154.67,693.283 1152.9,695.331 1150.9,697.678 1148.5,700.542 1147.24,702.073 1144.11,705.961 1143.71,706.468 
  1140.29,710.863 1139.71,711.616 1136.98,715.258 1135.32,717.523 1133.78,719.652 1130.92,723.687 1130.67,724.047 1127.68,728.442 1126.53,730.163 1124.77,732.837 
  1122.14,736.949 1121.96,737.232 1119.24,741.626 1117.74,744.117 1116.61,746.021 1114.06,750.416 1113.35,751.682 1111.6,754.811 1109.22,759.206 1108.95,759.708 
  1106.92,763.601 1104.69,767.995 1104.56,768.275 1102.56,772.39 1100.48,776.785 1100.16,777.482 1098.49,781.18 1096.56,785.575 1095.77,787.45 1094.71,789.97 
  1092.93,794.364 1091.37,798.339 1091.21,798.759 1089.57,803.154 1087.99,807.549 1086.98,810.461 1086.47,811.944 1085.02,816.338 1083.64,820.733 1082.58,824.217 
  1082.31,825.128 1081.05,829.523 1079.86,833.918 1078.71,838.313 1078.19,840.448 1077.64,842.707 1076.62,847.102 1075.66,851.497 1074.76,855.892 1073.92,860.287 
  1073.79,860.987 1073.14,864.682 1072.41,869.076 1071.75,873.471 1071.13,877.866 1070.58,882.261 1070.08,886.656 1069.63,891.051 1069.4,893.706 1069.25,895.445 
  1068.92,899.84 
  "/>
<path clip-path="url(#clip540)" d="
M1890.11 209.375 L2214.09 209.375 L2214.09 105.695 L1890.11 105.695  Z
  " fill="#ffffff" fill-rule="evenodd" fill-opacity="1"/>
<polyline clip-path="url(#clip540)" style="stroke:#000000; stroke-linecap:butt; stroke-linejoin:round; stroke-width:4; stroke-opacity:1; fill:none" points="
  1890.11,209.375 2214.09,209.375 2214.09,105.695 1890.11,105.695 1890.11,209.375 
  "/>
<polyline clip-path="url(#clip540)" style="stroke:#1e90ff; stroke-linecap:butt; stroke-linejoin:round; stroke-width:4; stroke-opacity:1; fill:none" points="
  1917.26,157.535 2080.19,157.535 
  "/>
<path clip-path="url(#clip540)" d="M2121.19 177.223 Q2119.39 181.852 2117.67 183.264 Q2115.96 184.676 2113.09 184.676 L2109.69 184.676 L2109.69 181.112 L2112.19 181.112 Q2113.95 181.112 2114.92 180.278 Q2115.89 179.445 2117.07 176.343 L2117.83 174.399 L2107.35 148.889 L2111.86 148.889 L2119.96 169.167 L2128.07 148.889 L2132.58 148.889 L2121.19 177.223 Z" fill="#000000" fill-rule="evenodd" fill-opacity="1" /><path clip-path="url(#clip540)" d="M2139.87 170.88 L2147.51 170.88 L2147.51 144.515 L2139.2 146.181 L2139.2 141.922 L2147.46 140.255 L2152.14 140.255 L2152.14 170.88 L2159.78 170.88 L2159.78 174.815 L2139.87 174.815 L2139.87 170.88 Z" fill="#000000" fill-rule="evenodd" fill-opacity="1" /></svg>
