<?xml version="1.0" encoding="utf-8"?>
<svg xmlns="http://www.w3.org/2000/svg" xmlns:xlink="http://www.w3.org/1999/xlink" width="672" height="480" viewBox="0 0 2688 1920">
<defs>
  <clipPath id="clip700">
    <rect x="0" y="0" width="2688" height="1920"/>
  </clipPath>
</defs>
<path clip-path="url(#clip700)" d="
M0 1920 L2688 1920 L2688 0 L0 0  Z
  " fill="#ffffff" fill-rule="evenodd" fill-opacity="1"/>
<defs>
  <clipPath id="clip701">
    <rect x="537" y="0" width="1883" height="1883"/>
  </clipPath>
</defs>
<path clip-path="url(#clip700)" d="
M181.747 1800.78 L2640.76 1800.78 L2640.76 47.2441 L181.747 47.2441  Z
  " fill="#ffffff" fill-rule="evenodd" fill-opacity="1"/>
<defs>
  <clipPath id="clip702">
    <rect x="181" y="47" width="2460" height="1755"/>
  </clipPath>
</defs>
<polyline clip-path="url(#clip702)" style="stroke:#000000; stroke-linecap:butt; stroke-linejoin:round; stroke-width:2; stroke-opacity:0.1; fill:none" points="
  251.341,1800.78 251.341,47.2441 
  "/>
<polyline clip-path="url(#clip702)" style="stroke:#000000; stroke-linecap:butt; stroke-linejoin:round; stroke-width:2; stroke-opacity:0.1; fill:none" points="
  831.296,1800.78 831.296,47.2441 
  "/>
<polyline clip-path="url(#clip702)" style="stroke:#000000; stroke-linecap:butt; stroke-linejoin:round; stroke-width:2; stroke-opacity:0.1; fill:none" points="
  1411.25,1800.78 1411.25,47.2441 
  "/>
<polyline clip-path="url(#clip702)" style="stroke:#000000; stroke-linecap:butt; stroke-linejoin:round; stroke-width:2; stroke-opacity:0.1; fill:none" points="
  1991.21,1800.78 1991.21,47.2441 
  "/>
<polyline clip-path="url(#clip702)" style="stroke:#000000; stroke-linecap:butt; stroke-linejoin:round; stroke-width:2; stroke-opacity:0.1; fill:none" points="
  2571.16,1800.78 2571.16,47.2441 
  "/>
<polyline clip-path="url(#clip700)" style="stroke:#000000; stroke-linecap:butt; stroke-linejoin:round; stroke-width:4; stroke-opacity:1; fill:none" points="
  181.747,1800.78 2640.76,1800.78 
  "/>
<polyline clip-path="url(#clip700)" style="stroke:#000000; stroke-linecap:butt; stroke-linejoin:round; stroke-width:4; stroke-opacity:1; fill:none" points="
  251.341,1800.78 251.341,1781.88 
  "/>
<polyline clip-path="url(#clip700)" style="stroke:#000000; stroke-linecap:butt; stroke-linejoin:round; stroke-width:4; stroke-opacity:1; fill:none" points="
  831.296,1800.78 831.296,1781.88 
  "/>
<polyline clip-path="url(#clip700)" style="stroke:#000000; stroke-linecap:butt; stroke-linejoin:round; stroke-width:4; stroke-opacity:1; fill:none" points="
  1411.25,1800.78 1411.25,1781.88 
  "/>
<polyline clip-path="url(#clip700)" style="stroke:#000000; stroke-linecap:butt; stroke-linejoin:round; stroke-width:4; stroke-opacity:1; fill:none" points="
  1991.21,1800.78 1991.21,1781.88 
  "/>
<polyline clip-path="url(#clip700)" style="stroke:#000000; stroke-linecap:butt; stroke-linejoin:round; stroke-width:4; stroke-opacity:1; fill:none" points="
  2571.16,1800.78 2571.16,1781.88 
  "/>
<path clip-path="url(#clip700)" d="M221.284 1848.65 L250.959 1848.65 L250.959 1852.59 L221.284 1852.59 L221.284 1848.65 Z" fill="#000000" fill-rule="evenodd" fill-opacity="1" /><path clip-path="url(#clip700)" d="M265.08 1861.55 L281.399 1861.55 L281.399 1865.48 L259.455 1865.48 L259.455 1861.55 Q262.117 1858.79 266.7 1854.16 Q271.306 1849.51 272.487 1848.17 Q274.732 1845.65 275.612 1843.91 Q276.515 1842.15 276.515 1840.46 Q276.515 1837.71 274.57 1835.97 Q272.649 1834.23 269.547 1834.23 Q267.348 1834.23 264.894 1835 Q262.464 1835.76 259.686 1837.31 L259.686 1832.59 Q262.51 1831.46 264.964 1830.88 Q267.418 1830.3 269.455 1830.3 Q274.825 1830.3 278.019 1832.98 Q281.214 1835.67 281.214 1840.16 Q281.214 1842.29 280.404 1844.21 Q279.617 1846.11 277.51 1848.7 Q276.931 1849.37 273.83 1852.59 Q270.728 1855.78 265.08 1861.55 Z" fill="#000000" fill-rule="evenodd" fill-opacity="1" /><path clip-path="url(#clip700)" d="M801.053 1848.65 L830.729 1848.65 L830.729 1852.59 L801.053 1852.59 L801.053 1848.65 Z" fill="#000000" fill-rule="evenodd" fill-opacity="1" /><path clip-path="url(#clip700)" d="M841.632 1861.55 L849.271 1861.55 L849.271 1835.18 L840.961 1836.85 L840.961 1832.59 L849.224 1830.92 L853.9 1830.92 L853.9 1861.55 L861.539 1861.55 L861.539 1865.48 L841.632 1865.48 L841.632 1861.55 Z" fill="#000000" fill-rule="evenodd" fill-opacity="1" /><path clip-path="url(#clip700)" d="M1411.25 1834 Q1407.64 1834 1405.81 1837.57 Q1404.01 1841.11 1404.01 1848.24 Q1404.01 1855.34 1405.81 1858.91 Q1407.64 1862.45 1411.25 1862.45 Q1414.89 1862.45 1416.69 1858.91 Q1418.52 1855.34 1418.52 1848.24 Q1418.52 1841.11 1416.69 1837.57 Q1414.89 1834 1411.25 1834 M1411.25 1830.3 Q1417.06 1830.3 1420.12 1834.9 Q1423.2 1839.49 1423.2 1848.24 Q1423.2 1856.96 1420.12 1861.57 Q1417.06 1866.15 1411.25 1866.15 Q1405.44 1866.15 1402.36 1861.57 Q1399.31 1856.96 1399.31 1848.24 Q1399.31 1839.49 1402.36 1834.9 Q1405.44 1830.3 1411.25 1830.3 Z" fill="#000000" fill-rule="evenodd" fill-opacity="1" /><path clip-path="url(#clip700)" d="M1981.59 1861.55 L1989.23 1861.55 L1989.23 1835.18 L1980.92 1836.85 L1980.92 1832.59 L1989.18 1830.92 L1993.86 1830.92 L1993.86 1861.55 L2001.5 1861.55 L2001.5 1865.48 L1981.59 1865.48 L1981.59 1861.55 Z" fill="#000000" fill-rule="evenodd" fill-opacity="1" /><path clip-path="url(#clip700)" d="M2565.81 1861.55 L2582.13 1861.55 L2582.13 1865.48 L2560.19 1865.48 L2560.19 1861.55 Q2562.85 1858.79 2567.43 1854.16 Q2572.04 1849.51 2573.22 1848.17 Q2575.47 1845.65 2576.35 1843.91 Q2577.25 1842.15 2577.25 1840.46 Q2577.25 1837.71 2575.3 1835.97 Q2573.38 1834.23 2570.28 1834.23 Q2568.08 1834.23 2565.63 1835 Q2563.2 1835.76 2560.42 1837.31 L2560.42 1832.59 Q2563.24 1831.46 2565.7 1830.88 Q2568.15 1830.3 2570.19 1830.3 Q2575.56 1830.3 2578.75 1832.98 Q2581.95 1835.67 2581.95 1840.16 Q2581.95 1842.29 2581.14 1844.21 Q2580.35 1846.11 2578.24 1848.7 Q2577.67 1849.37 2574.56 1852.59 Q2571.46 1855.78 2565.81 1861.55 Z" fill="#000000" fill-rule="evenodd" fill-opacity="1" /><polyline clip-path="url(#clip702)" style="stroke:#000000; stroke-linecap:butt; stroke-linejoin:round; stroke-width:2; stroke-opacity:0.1; fill:none" points="
  181.747,1699.45 2640.76,1699.45 
  "/>
<polyline clip-path="url(#clip702)" style="stroke:#000000; stroke-linecap:butt; stroke-linejoin:round; stroke-width:2; stroke-opacity:0.1; fill:none" points="
  181.747,1440.97 2640.76,1440.97 
  "/>
<polyline clip-path="url(#clip702)" style="stroke:#000000; stroke-linecap:butt; stroke-linejoin:round; stroke-width:2; stroke-opacity:0.1; fill:none" points="
  181.747,1182.49 2640.76,1182.49 
  "/>
<polyline clip-path="url(#clip702)" style="stroke:#000000; stroke-linecap:butt; stroke-linejoin:round; stroke-width:2; stroke-opacity:0.1; fill:none" points="
  181.747,924.012 2640.76,924.012 
  "/>
<polyline clip-path="url(#clip702)" style="stroke:#000000; stroke-linecap:butt; stroke-linejoin:round; stroke-width:2; stroke-opacity:0.1; fill:none" points="
  181.747,665.531 2640.76,665.531 
  "/>
<polyline clip-path="url(#clip702)" style="stroke:#000000; stroke-linecap:butt; stroke-linejoin:round; stroke-width:2; stroke-opacity:0.1; fill:none" points="
  181.747,407.05 2640.76,407.05 
  "/>
<polyline clip-path="url(#clip702)" style="stroke:#000000; stroke-linecap:butt; stroke-linejoin:round; stroke-width:2; stroke-opacity:0.1; fill:none" points="
  181.747,148.569 2640.76,148.569 
  "/>
<polyline clip-path="url(#clip700)" style="stroke:#000000; stroke-linecap:butt; stroke-linejoin:round; stroke-width:4; stroke-opacity:1; fill:none" points="
  181.747,1800.78 181.747,47.2441 
  "/>
<polyline clip-path="url(#clip700)" style="stroke:#000000; stroke-linecap:butt; stroke-linejoin:round; stroke-width:4; stroke-opacity:1; fill:none" points="
  181.747,1699.45 200.644,1699.45 
  "/>
<polyline clip-path="url(#clip700)" style="stroke:#000000; stroke-linecap:butt; stroke-linejoin:round; stroke-width:4; stroke-opacity:1; fill:none" points="
  181.747,1440.97 200.644,1440.97 
  "/>
<polyline clip-path="url(#clip700)" style="stroke:#000000; stroke-linecap:butt; stroke-linejoin:round; stroke-width:4; stroke-opacity:1; fill:none" points="
  181.747,1182.49 200.644,1182.49 
  "/>
<polyline clip-path="url(#clip700)" style="stroke:#000000; stroke-linecap:butt; stroke-linejoin:round; stroke-width:4; stroke-opacity:1; fill:none" points="
  181.747,924.012 200.644,924.012 
  "/>
<polyline clip-path="url(#clip700)" style="stroke:#000000; stroke-linecap:butt; stroke-linejoin:round; stroke-width:4; stroke-opacity:1; fill:none" points="
  181.747,665.531 200.644,665.531 
  "/>
<polyline clip-path="url(#clip700)" style="stroke:#000000; stroke-linecap:butt; stroke-linejoin:round; stroke-width:4; stroke-opacity:1; fill:none" points="
  181.747,407.05 200.644,407.05 
  "/>
<polyline clip-path="url(#clip700)" style="stroke:#000000; stroke-linecap:butt; stroke-linejoin:round; stroke-width:4; stroke-opacity:1; fill:none" points="
  181.747,148.569 200.644,148.569 
  "/>
<path clip-path="url(#clip700)" d="M49.5521 1699.91 L79.2279 1699.91 L79.2279 1703.84 L49.5521 1703.84 L49.5521 1699.91 Z" fill="#000000" fill-rule="evenodd" fill-opacity="1" /><path clip-path="url(#clip700)" d="M103.487 1698.1 Q106.843 1698.82 108.718 1701.09 Q110.617 1703.36 110.617 1706.69 Q110.617 1711.8 107.098 1714.61 Q103.58 1717.41 97.0982 1717.41 Q94.9223 1717.41 92.6075 1716.97 Q90.3158 1716.55 87.8621 1715.69 L87.8621 1711.18 Q89.8065 1712.31 92.1213 1712.89 Q94.4361 1713.47 96.9593 1713.47 Q101.357 1713.47 103.649 1711.73 Q105.964 1710 105.964 1706.69 Q105.964 1703.63 103.811 1701.92 Q101.681 1700.18 97.8621 1700.18 L93.8343 1700.18 L93.8343 1696.34 L98.0472 1696.34 Q101.496 1696.34 103.325 1694.98 Q105.154 1693.59 105.154 1690.99 Q105.154 1688.33 103.256 1686.92 Q101.381 1685.48 97.8621 1685.48 Q95.9408 1685.48 93.7417 1685.9 Q91.5426 1686.32 88.9038 1687.2 L88.9038 1683.03 Q91.5658 1682.29 93.8806 1681.92 Q96.2185 1681.55 98.2787 1681.55 Q103.603 1681.55 106.705 1683.98 Q109.806 1686.39 109.806 1690.51 Q109.806 1693.38 108.163 1695.37 Q106.519 1697.34 103.487 1698.1 Z" fill="#000000" fill-rule="evenodd" fill-opacity="1" /><path clip-path="url(#clip700)" d="M129.482 1685.25 Q125.871 1685.25 124.042 1688.82 Q122.237 1692.36 122.237 1699.49 Q122.237 1706.6 124.042 1710.16 Q125.871 1713.7 129.482 1713.7 Q133.116 1713.7 134.922 1710.16 Q136.751 1706.6 136.751 1699.49 Q136.751 1692.36 134.922 1688.82 Q133.116 1685.25 129.482 1685.25 M129.482 1681.55 Q135.292 1681.55 138.348 1686.16 Q141.427 1690.74 141.427 1699.49 Q141.427 1708.22 138.348 1712.82 Q135.292 1717.41 129.482 1717.41 Q123.672 1717.41 120.593 1712.82 Q117.538 1708.22 117.538 1699.49 Q117.538 1690.74 120.593 1686.16 Q123.672 1681.55 129.482 1681.55 Z" fill="#000000" fill-rule="evenodd" fill-opacity="1" /><path clip-path="url(#clip700)" d="M49.5521 1441.43 L79.2279 1441.43 L79.2279 1445.36 L49.5521 1445.36 L49.5521 1441.43 Z" fill="#000000" fill-rule="evenodd" fill-opacity="1" /><path clip-path="url(#clip700)" d="M93.3482 1454.32 L109.668 1454.32 L109.668 1458.25 L87.7232 1458.25 L87.7232 1454.32 Q90.3852 1451.56 94.9685 1446.93 Q99.575 1442.28 100.756 1440.94 Q103.001 1438.42 103.881 1436.68 Q104.783 1434.92 104.783 1433.23 Q104.783 1430.48 102.839 1428.74 Q100.918 1427 97.8158 1427 Q95.6167 1427 93.163 1427.77 Q90.7325 1428.53 87.9547 1430.08 L87.9547 1425.36 Q90.7788 1424.23 93.2324 1423.65 Q95.6861 1423.07 97.7232 1423.07 Q103.094 1423.07 106.288 1425.75 Q109.482 1428.44 109.482 1432.93 Q109.482 1435.06 108.672 1436.98 Q107.885 1438.88 105.779 1441.47 Q105.2 1442.14 102.098 1445.36 Q98.9963 1448.55 93.3482 1454.32 Z" fill="#000000" fill-rule="evenodd" fill-opacity="1" /><path clip-path="url(#clip700)" d="M129.482 1426.77 Q125.871 1426.77 124.042 1430.34 Q122.237 1433.88 122.237 1441.01 Q122.237 1448.11 124.042 1451.68 Q125.871 1455.22 129.482 1455.22 Q133.116 1455.22 134.922 1451.68 Q136.751 1448.11 136.751 1441.01 Q136.751 1433.88 134.922 1430.34 Q133.116 1426.77 129.482 1426.77 M129.482 1423.07 Q135.292 1423.07 138.348 1427.68 Q141.427 1432.26 141.427 1441.01 Q141.427 1449.74 138.348 1454.34 Q135.292 1458.93 129.482 1458.93 Q123.672 1458.93 120.593 1454.34 Q117.538 1449.74 117.538 1441.01 Q117.538 1432.26 120.593 1427.68 Q123.672 1423.07 129.482 1423.07 Z" fill="#000000" fill-rule="evenodd" fill-opacity="1" /><path clip-path="url(#clip700)" d="M49.5521 1182.94 L79.2279 1182.94 L79.2279 1186.88 L49.5521 1186.88 L49.5521 1182.94 Z" fill="#000000" fill-rule="evenodd" fill-opacity="1" /><path clip-path="url(#clip700)" d="M90.1306 1195.84 L97.7695 1195.84 L97.7695 1169.47 L89.4593 1171.14 L89.4593 1166.88 L97.7232 1165.21 L102.399 1165.21 L102.399 1195.84 L110.038 1195.84 L110.038 1199.77 L90.1306 1199.77 L90.1306 1195.84 Z" fill="#000000" fill-rule="evenodd" fill-opacity="1" /><path clip-path="url(#clip700)" d="M129.482 1168.29 Q125.871 1168.29 124.042 1171.86 Q122.237 1175.4 122.237 1182.53 Q122.237 1189.63 124.042 1193.2 Q125.871 1196.74 129.482 1196.74 Q133.116 1196.74 134.922 1193.2 Q136.751 1189.63 136.751 1182.53 Q136.751 1175.4 134.922 1171.86 Q133.116 1168.29 129.482 1168.29 M129.482 1164.59 Q135.292 1164.59 138.348 1169.19 Q141.427 1173.78 141.427 1182.53 Q141.427 1191.25 138.348 1195.86 Q135.292 1200.44 129.482 1200.44 Q123.672 1200.44 120.593 1195.86 Q117.538 1191.25 117.538 1182.53 Q117.538 1173.78 120.593 1169.19 Q123.672 1164.59 129.482 1164.59 Z" fill="#000000" fill-rule="evenodd" fill-opacity="1" /><path clip-path="url(#clip700)" d="M129.482 909.81 Q125.871 909.81 124.042 913.375 Q122.237 916.917 122.237 924.046 Q122.237 931.153 124.042 934.718 Q125.871 938.259 129.482 938.259 Q133.116 938.259 134.922 934.718 Q136.751 931.153 136.751 924.046 Q136.751 916.917 134.922 913.375 Q133.116 909.81 129.482 909.81 M129.482 906.107 Q135.292 906.107 138.348 910.713 Q141.427 915.296 141.427 924.046 Q141.427 932.773 138.348 937.38 Q135.292 941.963 129.482 941.963 Q123.672 941.963 120.593 937.38 Q117.538 932.773 117.538 924.046 Q117.538 915.296 120.593 910.713 Q123.672 906.107 129.482 906.107 Z" fill="#000000" fill-rule="evenodd" fill-opacity="1" /><path clip-path="url(#clip700)" d="M90.1306 678.876 L97.7695 678.876 L97.7695 652.51 L89.4593 654.177 L89.4593 649.917 L97.7232 648.251 L102.399 648.251 L102.399 678.876 L110.038 678.876 L110.038 682.811 L90.1306 682.811 L90.1306 678.876 Z" fill="#000000" fill-rule="evenodd" fill-opacity="1" /><path clip-path="url(#clip700)" d="M129.482 651.329 Q125.871 651.329 124.042 654.894 Q122.237 658.436 122.237 665.565 Q122.237 672.672 124.042 676.237 Q125.871 679.778 129.482 679.778 Q133.116 679.778 134.922 676.237 Q136.751 672.672 136.751 665.565 Q136.751 658.436 134.922 654.894 Q133.116 651.329 129.482 651.329 M129.482 647.626 Q135.292 647.626 138.348 652.232 Q141.427 656.815 141.427 665.565 Q141.427 674.292 138.348 678.899 Q135.292 683.482 129.482 683.482 Q123.672 683.482 120.593 678.899 Q117.538 674.292 117.538 665.565 Q117.538 656.815 120.593 652.232 Q123.672 647.626 129.482 647.626 Z" fill="#000000" fill-rule="evenodd" fill-opacity="1" /><path clip-path="url(#clip700)" d="M93.3482 420.395 L109.668 420.395 L109.668 424.33 L87.7232 424.33 L87.7232 420.395 Q90.3852 417.64 94.9685 413.01 Q99.575 408.358 100.756 407.015 Q103.001 404.492 103.881 402.756 Q104.783 400.996 104.783 399.307 Q104.783 396.552 102.839 394.816 Q100.918 393.08 97.8158 393.08 Q95.6167 393.08 93.163 393.844 Q90.7325 394.608 87.9547 396.159 L87.9547 391.436 Q90.7788 390.302 93.2324 389.723 Q95.6861 389.145 97.7232 389.145 Q103.094 389.145 106.288 391.83 Q109.482 394.515 109.482 399.006 Q109.482 401.135 108.672 403.057 Q107.885 404.955 105.779 407.547 Q105.2 408.219 102.098 411.436 Q98.9963 414.631 93.3482 420.395 Z" fill="#000000" fill-rule="evenodd" fill-opacity="1" /><path clip-path="url(#clip700)" d="M129.482 392.848 Q125.871 392.848 124.042 396.413 Q122.237 399.955 122.237 407.084 Q122.237 414.191 124.042 417.756 Q125.871 421.297 129.482 421.297 Q133.116 421.297 134.922 417.756 Q136.751 414.191 136.751 407.084 Q136.751 399.955 134.922 396.413 Q133.116 392.848 129.482 392.848 M129.482 389.145 Q135.292 389.145 138.348 393.751 Q141.427 398.334 141.427 407.084 Q141.427 415.811 138.348 420.418 Q135.292 425.001 129.482 425.001 Q123.672 425.001 120.593 420.418 Q117.538 415.811 117.538 407.084 Q117.538 398.334 120.593 393.751 Q123.672 389.145 129.482 389.145 Z" fill="#000000" fill-rule="evenodd" fill-opacity="1" /><path clip-path="url(#clip700)" d="M103.487 147.214 Q106.843 147.932 108.718 150.201 Q110.617 152.469 110.617 155.802 Q110.617 160.918 107.098 163.719 Q103.58 166.52 97.0982 166.52 Q94.9223 166.52 92.6075 166.08 Q90.3158 165.663 87.8621 164.807 L87.8621 160.293 Q89.8065 161.427 92.1213 162.006 Q94.4361 162.585 96.9593 162.585 Q101.357 162.585 103.649 160.849 Q105.964 159.113 105.964 155.802 Q105.964 152.747 103.811 151.034 Q101.681 149.298 97.8621 149.298 L93.8343 149.298 L93.8343 145.455 L98.0472 145.455 Q101.496 145.455 103.325 144.09 Q105.154 142.701 105.154 140.108 Q105.154 137.446 103.256 136.034 Q101.381 134.599 97.8621 134.599 Q95.9408 134.599 93.7417 135.015 Q91.5426 135.432 88.9038 136.312 L88.9038 132.145 Q91.5658 131.404 93.8806 131.034 Q96.2185 130.664 98.2787 130.664 Q103.603 130.664 106.705 133.094 Q109.806 135.502 109.806 139.622 Q109.806 142.492 108.163 144.483 Q106.519 146.451 103.487 147.214 Z" fill="#000000" fill-rule="evenodd" fill-opacity="1" /><path clip-path="url(#clip700)" d="M129.482 134.367 Q125.871 134.367 124.042 137.932 Q122.237 141.474 122.237 148.603 Q122.237 155.71 124.042 159.275 Q125.871 162.816 129.482 162.816 Q133.116 162.816 134.922 159.275 Q136.751 155.71 136.751 148.603 Q136.751 141.474 134.922 137.932 Q133.116 134.367 129.482 134.367 M129.482 130.664 Q135.292 130.664 138.348 135.27 Q141.427 139.853 141.427 148.603 Q141.427 157.33 138.348 161.937 Q135.292 166.52 129.482 166.52 Q123.672 166.52 120.593 161.937 Q117.538 157.33 117.538 148.603 Q117.538 139.853 120.593 135.27 Q123.672 130.664 129.482 130.664 Z" fill="#000000" fill-rule="evenodd" fill-opacity="1" /><polyline clip-path="url(#clip702)" style="stroke:#009af9; stroke-linecap:butt; stroke-linejoin:round; stroke-width:4; stroke-opacity:1; fill:none" points="
  251.341,1751.15 255.117,1737.78 258.893,1724.57 262.669,1711.54 266.445,1698.68 283.901,1641.4 301.357,1587.55 318.814,1536.98 336.27,1489.55 353.727,1445.1 
  371.183,1403.49 388.64,1364.58 406.096,1328.24 427.078,1287.77 448.059,1250.62 469.04,1216.56 490.021,1185.41 507.761,1161.19 525.5,1138.8 543.239,1118.14 
  560.979,1099.1 580.249,1080.14 599.518,1062.85 618.788,1047.14 638.058,1032.88 673.589,1010.06 709.119,991.24 747.211,974.878 785.303,961.869 829.437,950.277 
  873.571,941.716 952.012,932.059 1020.8,927.587 1095.79,925.242 1171.23,924.326 1254.64,924.049 1334.01,924.013 1416.52,924.012 1485.99,924.011 1570.79,923.971 
  1648.48,923.716 1720.23,922.902 1792.91,920.821 1874.37,915.619 1948.18,906.431 1990.44,898.335 2032.69,887.498 2071.81,874.463 2110.94,857.946 2149.51,837.614 
  2188.08,812.559 2206.81,798.464 2225.53,782.976 2244.26,765.997 2262.98,747.421 2282.18,726.604 2301.37,703.869 2320.57,679.086 2339.76,652.12 2360.79,619.901 
  2381.83,584.698 2402.86,546.308 2423.89,504.519 2439.16,471.91 2454.44,437.304 2469.71,400.611 2484.99,361.737 2500.26,320.587 2515.54,277.062 2530.82,231.061 
  2546.09,182.48 2552.36,161.776 2558.63,140.611 2564.89,118.98 2571.16,96.8724 
  "/>
<path clip-path="url(#clip700)" d="
M2233.14 209.375 L2558.79 209.375 L2558.79 105.695 L2233.14 105.695  Z
  " fill="#ffffff" fill-rule="evenodd" fill-opacity="1"/>
<polyline clip-path="url(#clip700)" style="stroke:#000000; stroke-linecap:butt; stroke-linejoin:round; stroke-width:4; stroke-opacity:1; fill:none" points="
  2233.14,209.375 2558.79,209.375 2558.79,105.695 2233.14,105.695 2233.14,209.375 
  "/>
<polyline clip-path="url(#clip700)" style="stroke:#009af9; stroke-linecap:butt; stroke-linejoin:round; stroke-width:4; stroke-opacity:1; fill:none" points="
  2260.46,157.535 2424.39,157.535 
  "/>
<path clip-path="url(#clip700)" d="M2465.56 177.223 Q2463.75 181.852 2462.04 183.264 Q2460.33 184.676 2457.45 184.676 L2454.05 184.676 L2454.05 181.112 L2456.55 181.112 Q2458.31 181.112 2459.28 180.278 Q2460.26 179.445 2461.44 176.343 L2462.2 174.399 L2451.71 148.889 L2456.23 148.889 L2464.33 169.167 L2472.43 148.889 L2476.95 148.889 L2465.56 177.223 Z" fill="#000000" fill-rule="evenodd" fill-opacity="1" /><path clip-path="url(#clip700)" d="M2484.24 170.88 L2491.88 170.88 L2491.88 144.515 L2483.57 146.181 L2483.57 141.922 L2491.83 140.255 L2496.51 140.255 L2496.51 170.88 L2504.14 170.88 L2504.14 174.815 L2484.24 174.815 L2484.24 170.88 Z" fill="#000000" fill-rule="evenodd" fill-opacity="1" /></svg>
