<?xml version="1.0" encoding="utf-8"?>
<svg xmlns="http://www.w3.org/2000/svg" xmlns:xlink="http://www.w3.org/1999/xlink" width="672" height="480" viewBox="0 0 2688 1920">
<defs>
  <clipPath id="clip720">
    <rect x="0" y="0" width="2688" height="1920"/>
  </clipPath>
</defs>
<path clip-path="url(#clip720)" d="
M0 1920 L2688 1920 L2688 0 L0 0  Z
  " fill="#ffffff" fill-rule="evenodd" fill-opacity="1"/>
<defs>
  <clipPath id="clip721">
    <rect x="537" y="0" width="1883" height="1883"/>
  </clipPath>
</defs>
<path clip-path="url(#clip720)" d="
M47.2441 912.756 L1296.76 912.756 L1296.76 127.792 L47.2441 127.792  Z
  " fill="#ffffff" fill-rule="evenodd" fill-opacity="1"/>
<defs>
  <clipPath id="clip722">
    <rect x="47" y="127" width="1251" height="786"/>
  </clipPath>
</defs>
<polyline clip-path="url(#clip720)" style="stroke:#000000; stroke-linecap:butt; stroke-linejoin:round; stroke-width:4; stroke-opacity:1; fill:none" points="
  47.2441,912.756 1296.76,912.756 
  "/>
<polyline clip-path="url(#clip720)" style="stroke:#000000; stroke-linecap:butt; stroke-linejoin:round; stroke-width:4; stroke-opacity:1; fill:none" points="
  47.2441,912.756 47.2441,127.792 
  "/>
<path clip-path="url(#clip720)" d="M371.382 45.1919 L371.382 72.576 L363.929 72.576 L363.929 45.4349 Q363.929 38.994 361.417 35.7938 Q358.906 32.5936 353.882 32.5936 Q347.847 32.5936 344.363 36.4419 Q340.879 40.2903 340.879 46.9338 L340.879 72.576 L333.385 72.576 L333.385 27.2059 L340.879 27.2059 L340.879 34.2544 Q343.553 30.163 347.158 28.1376 Q350.804 26.1121 355.543 26.1121 Q363.362 26.1121 367.372 30.9732 Q371.382 35.7938 371.382 45.1919 Z" fill="#000000" fill-rule="evenodd" fill-opacity="1" /><path clip-path="url(#clip720)" d="M413.593 31.7429 L413.593 24.3702 L465.525 43.2069 L465.525 49.9314 L413.593 68.7682 L413.593 61.3955 L455.317 46.6097 L413.593 31.7429 Z" fill="#000000" fill-rule="evenodd" fill-opacity="1" /><path clip-path="url(#clip720)" d="M547.313 48.0275 L547.313 51.6733 L513.043 51.6733 Q513.529 59.3701 517.661 63.421 Q521.833 67.4314 529.246 67.4314 Q533.54 67.4314 537.55 66.3781 Q541.601 65.3249 545.571 63.2184 L545.571 70.267 Q541.561 71.9684 537.348 72.8596 Q533.135 73.7508 528.801 73.7508 Q517.944 73.7508 511.584 67.4314 Q505.265 61.1119 505.265 50.3365 Q505.265 39.1965 511.26 32.6746 Q517.296 26.1121 527.504 26.1121 Q536.659 26.1121 541.966 32.0264 Q547.313 37.9003 547.313 48.0275 M539.86 45.84 Q539.778 39.7232 536.416 36.0774 Q533.094 32.4315 527.585 32.4315 Q521.347 32.4315 517.58 35.9558 Q513.853 39.4801 513.286 45.8805 L539.86 45.84 Z" fill="#000000" fill-rule="evenodd" fill-opacity="1" /><path clip-path="url(#clip720)" d="M554.2 27.2059 L562.099 27.2059 L576.277 65.2844 L590.455 27.2059 L598.355 27.2059 L581.341 72.576 L571.214 72.576 L554.2 27.2059 Z" fill="#000000" fill-rule="evenodd" fill-opacity="1" /><path clip-path="url(#clip720)" d="M647.452 48.0275 L647.452 51.6733 L613.181 51.6733 Q613.667 59.3701 617.799 63.421 Q621.971 67.4314 629.384 67.4314 Q633.678 67.4314 637.689 66.3781 Q641.74 65.3249 645.71 63.2184 L645.71 70.267 Q641.699 71.9684 637.486 72.8596 Q633.273 73.7508 628.939 73.7508 Q618.082 73.7508 611.723 67.4314 Q605.403 61.1119 605.403 50.3365 Q605.403 39.1965 611.398 32.6746 Q617.434 26.1121 627.643 26.1121 Q636.798 26.1121 642.104 32.0264 Q647.452 37.9003 647.452 48.0275 M639.998 45.84 Q639.917 39.7232 636.555 36.0774 Q633.233 32.4315 627.724 32.4315 Q621.485 32.4315 617.718 35.9558 Q613.991 39.4801 613.424 45.8805 L639.998 45.84 Z" fill="#000000" fill-rule="evenodd" fill-opacity="1" /><path clip-path="url(#clip720)" d="M697.399 45.1919 L697.399 72.576 L689.946 72.576 L689.946 45.4349 Q689.946 38.994 687.434 35.7938 Q684.922 32.5936 679.899 32.5936 Q673.863 32.5936 670.38 36.4419 Q666.896 40.2903 666.896 46.9338 L666.896 72.576 L659.402 72.576 L659.402 27.2059 L666.896 27.2059 L666.896 34.2544 Q669.569 30.163 673.175 28.1376 Q676.821 26.1121 681.56 26.1121 Q689.378 26.1121 693.389 30.9732 Q697.399 35.7938 697.399 45.1919 Z" fill="#000000" fill-rule="evenodd" fill-opacity="1" /><path clip-path="url(#clip720)" d="M714.17 62.2867 L722.717 62.2867 L722.717 69.2543 L716.074 82.2172 L710.848 82.2172 L714.17 69.2543 L714.17 62.2867 Z" fill="#000000" fill-rule="evenodd" fill-opacity="1" /><path clip-path="url(#clip720)" d="M785.628 49.7694 Q776.594 49.7694 773.111 51.8354 Q769.627 53.9013 769.627 58.8839 Q769.627 62.8538 772.219 65.2034 Q774.852 67.5124 779.349 67.5124 Q785.547 67.5124 789.274 63.1374 Q793.041 58.7219 793.041 51.4303 L793.041 49.7694 L785.628 49.7694 M800.495 46.6907 L800.495 72.576 L793.041 72.576 L793.041 65.6895 Q790.489 69.8214 786.681 71.8063 Q782.873 73.7508 777.364 73.7508 Q770.396 73.7508 766.265 69.8619 Q762.173 65.9325 762.173 59.3701 Q762.173 51.7138 767.277 47.825 Q772.422 43.9361 782.59 43.9361 L793.041 43.9361 L793.041 43.2069 Q793.041 38.0623 789.638 35.2672 Q786.276 32.4315 780.159 32.4315 Q776.27 32.4315 772.584 33.3632 Q768.898 34.295 765.495 36.1584 L765.495 29.2718 Q769.586 27.692 773.435 26.9223 Q777.283 26.1121 780.929 26.1121 Q790.773 26.1121 795.634 31.2163 Q800.495 36.3204 800.495 46.6907 Z" fill="#000000" fill-rule="evenodd" fill-opacity="1" /><path clip-path="url(#clip720)" d="M836.71 57.2231 L836.71 72.576 L832.011 72.576 L832.011 57.3851 Q832.011 53.7798 830.431 51.9974 Q828.851 50.1745 825.691 50.1745 Q821.883 50.1745 819.696 52.362 Q817.508 54.509 817.508 58.2358 L817.508 72.576 L812.769 72.576 L812.769 47.1768 L817.508 47.1768 L817.508 51.1062 Q819.169 48.8377 821.438 47.7034 Q823.747 46.5692 826.745 46.5692 Q831.646 46.5692 834.158 49.2833 Q836.71 51.9974 836.71 57.2231 Z" fill="#000000" fill-rule="evenodd" fill-opacity="1" /><path clip-path="url(#clip720)" d="M876.247 31.7429 L876.247 24.3702 L928.179 43.2069 L928.179 49.9314 L876.247 68.7682 L876.247 61.3955 L917.971 46.6097 L876.247 31.7429 Z" fill="#000000" fill-rule="evenodd" fill-opacity="1" /><path clip-path="url(#clip720)" d="M989.712 17.4837 Q983.393 17.4837 980.193 23.7221 Q977.033 29.92 977.033 42.3968 Q977.033 54.833 980.193 61.0714 Q983.393 67.2693 989.712 67.2693 Q996.072 67.2693 999.232 61.0714 Q1002.43 54.833 1002.43 42.3968 Q1002.43 29.92 999.232 23.7221 Q996.072 17.4837 989.712 17.4837 M989.712 11.0023 Q999.88 11.0023 1005.23 19.0636 Q1010.62 27.0843 1010.62 42.3968 Q1010.62 57.6687 1005.23 65.73 Q999.88 73.7508 989.712 73.7508 Q979.545 73.7508 974.157 65.73 Q968.81 57.6687 968.81 42.3968 Q968.81 27.0843 974.157 19.0636 Q979.545 11.0023 989.712 11.0023 Z" fill="#000000" fill-rule="evenodd" fill-opacity="1" /><polyline clip-path="url(#clip722)" style="stroke:#009af9; stroke-linecap:butt; stroke-linejoin:round; stroke-width:4; stroke-opacity:1; fill:none" points="
  82.6076,150.008 84.5263,159.604 86.4449,169.106 88.3635,178.515 90.2822,187.831 99.1524,229.722 108.023,269.711 116.893,307.857 125.763,344.217 134.634,378.849 
  143.504,411.807 152.374,443.147 161.244,472.923 166.575,490.086 171.906,506.715 177.236,522.82 182.567,538.413 193.228,568.107 203.89,595.881 212.904,617.93 
  221.918,638.718 230.932,658.293 239.946,676.705 249.737,695.44 259.529,712.917 269.321,729.192 279.113,744.323 288.14,757.305 297.167,769.403 306.194,780.657 
  315.221,791.109 324.899,801.466 334.577,810.993 344.255,819.734 353.933,827.734 365.146,836.133 376.359,843.66 387.572,850.378 398.785,856.346 418.714,865.284 
  438.644,872.343 456.12,877.212 473.597,881.031 492.651,884.191 511.704,886.488 530.872,888.106 550.039,889.182 592.422,890.294 632.749,890.525 674.68,890.54 
  709.976,890.527 753.069,890.275 792.546,889.244 810.775,888.264 829.005,886.811 847.471,884.722 865.937,881.859 886.632,877.517 907.327,871.72 926.08,864.965 
  944.834,856.537 955.569,850.861 966.305,844.502 977.04,837.408 987.776,829.524 997.716,821.471 1007.66,812.646 1017.6,803.001 1027.54,792.487 1037.34,781.221 
  1047.14,769.01 1056.94,755.805 1066.74,741.552 1076.25,726.659 1085.77,710.676 1095.28,693.553 1104.8,675.234 1114.55,655.159 1124.3,633.711 1134.06,610.83 
  1143.81,586.453 1154.5,557.952 1165.18,527.494 1170.53,511.503 1175.87,494.989 1181.21,477.942 1186.56,460.35 1194.32,433.799 1202.08,406.038 1209.84,377.03 
  1217.61,346.739 1225.37,315.127 1233.13,282.157 1240.89,247.789 1248.65,211.986 1251.84,196.871 1255.02,181.505 1258.21,165.885 1261.39,150.008 
  "/>
<path clip-path="url(#clip720)" d="
M1391.24 912.756 L2640.76 912.756 L2640.76 127.792 L1391.24 127.792  Z
  " fill="#ffffff" fill-rule="evenodd" fill-opacity="1"/>
<defs>
  <clipPath id="clip723">
    <rect x="1391" y="127" width="1251" height="786"/>
  </clipPath>
</defs>
<polyline clip-path="url(#clip720)" style="stroke:#000000; stroke-linecap:butt; stroke-linejoin:round; stroke-width:4; stroke-opacity:1; fill:none" points="
  1391.24,912.756 2640.76,912.756 
  "/>
<polyline clip-path="url(#clip720)" style="stroke:#000000; stroke-linecap:butt; stroke-linejoin:round; stroke-width:4; stroke-opacity:1; fill:none" points="
  1391.24,912.756 1391.24,127.792 
  "/>
<path clip-path="url(#clip720)" d="M1739.22 45.1919 L1739.22 72.576 L1731.77 72.576 L1731.77 45.4349 Q1731.77 38.994 1729.26 35.7938 Q1726.75 32.5936 1721.72 32.5936 Q1715.69 32.5936 1712.2 36.4419 Q1708.72 40.2903 1708.72 46.9338 L1708.72 72.576 L1701.22 72.576 L1701.22 27.2059 L1708.72 27.2059 L1708.72 34.2544 Q1711.39 30.163 1715 28.1376 Q1718.64 26.1121 1723.38 26.1121 Q1731.2 26.1121 1735.21 30.9732 Q1739.22 35.7938 1739.22 45.1919 Z" fill="#000000" fill-rule="evenodd" fill-opacity="1" /><path clip-path="url(#clip720)" d="M1781.43 31.7429 L1781.43 24.3702 L1833.36 43.2069 L1833.36 49.9314 L1781.43 68.7682 L1781.43 61.3955 L1823.16 46.6097 L1781.43 31.7429 Z" fill="#000000" fill-rule="evenodd" fill-opacity="1" /><path clip-path="url(#clip720)" d="M1893.93 32.4315 Q1887.93 32.4315 1884.45 37.1306 Q1880.96 41.7891 1880.96 49.9314 Q1880.96 58.0738 1884.41 62.7728 Q1887.89 67.4314 1893.93 67.4314 Q1899.88 67.4314 1903.36 62.7323 Q1906.85 58.0333 1906.85 49.9314 Q1906.85 41.8701 1903.36 37.1711 Q1899.88 32.4315 1893.93 32.4315 M1893.93 26.1121 Q1903.65 26.1121 1909.2 32.4315 Q1914.75 38.7509 1914.75 49.9314 Q1914.75 61.0714 1909.2 67.4314 Q1903.65 73.7508 1893.93 73.7508 Q1884.16 73.7508 1878.61 67.4314 Q1873.1 61.0714 1873.1 49.9314 Q1873.1 38.7509 1878.61 32.4315 Q1884.16 26.1121 1893.93 26.1121 Z" fill="#000000" fill-rule="evenodd" fill-opacity="1" /><path clip-path="url(#clip720)" d="M1956.96 34.0924 L1956.96 9.54393 L1964.41 9.54393 L1964.41 72.576 L1956.96 72.576 L1956.96 65.7705 Q1954.61 69.8214 1951 71.8063 Q1947.44 73.7508 1942.42 73.7508 Q1934.19 73.7508 1929.01 67.1883 Q1923.86 60.6258 1923.86 49.9314 Q1923.86 39.2371 1929.01 32.6746 Q1934.19 26.1121 1942.42 26.1121 Q1947.44 26.1121 1951 28.0971 Q1954.61 30.0415 1956.96 34.0924 M1931.56 49.9314 Q1931.56 58.1548 1934.92 62.8538 Q1938.32 67.5124 1944.24 67.5124 Q1950.15 67.5124 1953.56 62.8538 Q1956.96 58.1548 1956.96 49.9314 Q1956.96 41.7081 1953.56 37.0496 Q1950.15 32.3505 1944.24 32.3505 Q1938.32 32.3505 1934.92 37.0496 Q1931.56 41.7081 1931.56 49.9314 Z" fill="#000000" fill-rule="evenodd" fill-opacity="1" /><path clip-path="url(#clip720)" d="M2009.62 34.0924 L2009.62 9.54393 L2017.07 9.54393 L2017.07 72.576 L2009.62 72.576 L2009.62 65.7705 Q2007.27 69.8214 2003.66 71.8063 Q2000.1 73.7508 1995.08 73.7508 Q1986.85 73.7508 1981.67 67.1883 Q1976.52 60.6258 1976.52 49.9314 Q1976.52 39.2371 1981.67 32.6746 Q1986.85 26.1121 1995.08 26.1121 Q2000.1 26.1121 2003.66 28.0971 Q2007.27 30.0415 2009.62 34.0924 M1984.22 49.9314 Q1984.22 58.1548 1987.58 62.8538 Q1990.99 67.5124 1996.9 67.5124 Q2002.81 67.5124 2006.22 62.8538 Q2009.62 58.1548 2009.62 49.9314 Q2009.62 41.7081 2006.22 37.0496 Q2002.81 32.3505 1996.9 32.3505 Q1990.99 32.3505 1987.58 37.0496 Q1984.22 41.7081 1984.22 49.9314 Z" fill="#000000" fill-rule="evenodd" fill-opacity="1" /><path clip-path="url(#clip720)" d="M2034.33 62.2867 L2042.88 62.2867 L2042.88 69.2543 L2036.23 82.2172 L2031.01 82.2172 L2034.33 69.2543 L2034.33 62.2867 Z" fill="#000000" fill-rule="evenodd" fill-opacity="1" /><path clip-path="url(#clip720)" d="M2105.79 49.7694 Q2096.75 49.7694 2093.27 51.8354 Q2089.79 53.9013 2089.79 58.8839 Q2089.79 62.8538 2092.38 65.2034 Q2095.01 67.5124 2099.51 67.5124 Q2105.71 67.5124 2109.43 63.1374 Q2113.2 58.7219 2113.2 51.4303 L2113.2 49.7694 L2105.79 49.7694 M2120.66 46.6907 L2120.66 72.576 L2113.2 72.576 L2113.2 65.6895 Q2110.65 69.8214 2106.84 71.8063 Q2103.03 73.7508 2097.52 73.7508 Q2090.56 73.7508 2086.42 69.8619 Q2082.33 65.9325 2082.33 59.3701 Q2082.33 51.7138 2087.44 47.825 Q2092.58 43.9361 2102.75 43.9361 L2113.2 43.9361 L2113.2 43.2069 Q2113.2 38.0623 2109.8 35.2672 Q2106.44 32.4315 2100.32 32.4315 Q2096.43 32.4315 2092.74 33.3632 Q2089.06 34.295 2085.66 36.1584 L2085.66 29.2718 Q2089.75 27.692 2093.6 26.9223 Q2097.44 26.1121 2101.09 26.1121 Q2110.93 26.1121 2115.79 31.2163 Q2120.66 36.3204 2120.66 46.6907 Z" fill="#000000" fill-rule="evenodd" fill-opacity="1" /><path clip-path="url(#clip720)" d="M2156.87 57.2231 L2156.87 72.576 L2152.17 72.576 L2152.17 57.3851 Q2152.17 53.7798 2150.59 51.9974 Q2149.01 50.1745 2145.85 50.1745 Q2142.04 50.1745 2139.86 52.362 Q2137.67 54.509 2137.67 58.2358 L2137.67 72.576 L2132.93 72.576 L2132.93 47.1768 L2137.67 47.1768 L2137.67 51.1062 Q2139.33 48.8377 2141.6 47.7034 Q2143.91 46.5692 2146.9 46.5692 Q2151.81 46.5692 2154.32 49.2833 Q2156.87 51.9974 2156.87 57.2231 Z" fill="#000000" fill-rule="evenodd" fill-opacity="1" /><path clip-path="url(#clip720)" d="M2196.41 31.7429 L2196.41 24.3702 L2248.34 43.2069 L2248.34 49.9314 L2196.41 68.7682 L2196.41 61.3955 L2238.13 46.6097 L2196.41 31.7429 Z" fill="#000000" fill-rule="evenodd" fill-opacity="1" /><path clip-path="url(#clip720)" d="M2309.87 17.4837 Q2303.55 17.4837 2300.35 23.7221 Q2297.19 29.92 2297.19 42.3968 Q2297.19 54.833 2300.35 61.0714 Q2303.55 67.2693 2309.87 67.2693 Q2316.23 67.2693 2319.39 61.0714 Q2322.59 54.833 2322.59 42.3968 Q2322.59 29.92 2319.39 23.7221 Q2316.23 17.4837 2309.87 17.4837 M2309.87 11.0023 Q2320.04 11.0023 2325.39 19.0636 Q2330.78 27.0843 2330.78 42.3968 Q2330.78 57.6687 2325.39 65.73 Q2320.04 73.7508 2309.87 73.7508 Q2299.71 73.7508 2294.32 65.73 Q2288.97 57.6687 2288.97 42.3968 Q2288.97 27.0843 2294.32 19.0636 Q2299.71 11.0023 2309.87 11.0023 Z" fill="#000000" fill-rule="evenodd" fill-opacity="1" /><polyline clip-path="url(#clip723)" style="stroke:#009af9; stroke-linecap:butt; stroke-linejoin:round; stroke-width:4; stroke-opacity:1; fill:none" points="
  1426.61,890.54 1428.53,884.552 1430.44,878.643 1432.36,872.81 1434.28,867.053 1443.15,841.408 1452.02,817.303 1460.89,794.668 1469.76,773.434 1478.63,753.536 
  1487.5,734.909 1496.37,717.492 1505.24,701.223 1515.91,683.11 1526.57,666.478 1537.23,651.233 1547.89,637.287 1556.9,626.446 1565.92,616.424 1574.93,607.174 
  1583.95,598.65 1593.74,590.162 1603.53,582.426 1613.32,575.391 1623.11,569.008 1641.17,558.794 1659.22,550.369 1678.58,543.044 1697.93,537.221 1720.36,532.031 
  1742.78,528.199 1782.64,523.876 1817.6,521.874 1855.7,520.825 1894.04,520.414 1936.42,520.291 1976.75,520.275 2018.68,520.274 2053.98,520.274 2097.07,520.256 
  2136.55,520.142 2173,519.777 2209.94,518.846 2251.33,516.517 2288.83,512.404 2310.3,508.78 2331.78,503.929 2351.66,498.094 2371.54,490.7 2391.14,481.598 
  2410.74,470.383 2420.25,464.073 2429.77,457.14 2439.28,449.539 2448.8,441.224 2458.55,431.905 2468.3,421.728 2478.06,410.634 2487.81,398.563 2498.5,384.14 
  2509.18,368.381 2519.87,351.196 2530.56,332.489 2538.32,317.892 2546.08,302.401 2553.84,285.975 2561.61,268.574 2569.37,250.153 2577.13,230.669 2584.89,210.077 
  2592.65,188.33 2595.84,179.062 2599.02,169.588 2602.21,159.904 2605.39,150.008 
  "/>
<path clip-path="url(#clip720)" d="
M47.2441 1872.76 L1296.76 1872.76 L1296.76 1087.79 L47.2441 1087.79  Z
  " fill="#ffffff" fill-rule="evenodd" fill-opacity="1"/>
<defs>
  <clipPath id="clip724">
    <rect x="47" y="1087" width="1251" height="786"/>
  </clipPath>
</defs>
<polyline clip-path="url(#clip720)" style="stroke:#000000; stroke-linecap:butt; stroke-linejoin:round; stroke-width:4; stroke-opacity:1; fill:none" points="
  47.2441,1872.76 1296.76,1872.76 
  "/>
<polyline clip-path="url(#clip720)" style="stroke:#000000; stroke-linecap:butt; stroke-linejoin:round; stroke-width:4; stroke-opacity:1; fill:none" points="
  47.2441,1872.76 47.2441,1087.79 
  "/>
<path clip-path="url(#clip720)" d="M371.382 1005.19 L371.382 1032.58 L363.929 1032.58 L363.929 1005.43 Q363.929 998.994 361.417 995.794 Q358.906 992.594 353.882 992.594 Q347.847 992.594 344.363 996.442 Q340.879 1000.29 340.879 1006.93 L340.879 1032.58 L333.385 1032.58 L333.385 987.206 L340.879 987.206 L340.879 994.254 Q343.553 990.163 347.158 988.138 Q350.804 986.112 355.543 986.112 Q363.362 986.112 367.372 990.973 Q371.382 995.794 371.382 1005.19 Z" fill="#000000" fill-rule="evenodd" fill-opacity="1" /><path clip-path="url(#clip720)" d="M413.593 991.743 L413.593 984.37 L465.525 1003.21 L465.525 1009.93 L413.593 1028.77 L413.593 1021.4 L455.317 1006.61 L413.593 991.743 Z" fill="#000000" fill-rule="evenodd" fill-opacity="1" /><path clip-path="url(#clip720)" d="M547.313 1008.03 L547.313 1011.67 L513.043 1011.67 Q513.529 1019.37 517.661 1023.42 Q521.833 1027.43 529.246 1027.43 Q533.54 1027.43 537.55 1026.38 Q541.601 1025.32 545.571 1023.22 L545.571 1030.27 Q541.561 1031.97 537.348 1032.86 Q533.135 1033.75 528.801 1033.75 Q517.944 1033.75 511.584 1027.43 Q505.265 1021.11 505.265 1010.34 Q505.265 999.197 511.26 992.675 Q517.296 986.112 527.504 986.112 Q536.659 986.112 541.966 992.026 Q547.313 997.9 547.313 1008.03 M539.86 1005.84 Q539.778 999.723 536.416 996.077 Q533.094 992.432 527.585 992.432 Q521.347 992.432 517.58 995.956 Q513.853 999.48 513.286 1005.88 L539.86 1005.84 Z" fill="#000000" fill-rule="evenodd" fill-opacity="1" /><path clip-path="url(#clip720)" d="M554.2 987.206 L562.099 987.206 L576.277 1025.28 L590.455 987.206 L598.355 987.206 L581.341 1032.58 L571.214 1032.58 L554.2 987.206 Z" fill="#000000" fill-rule="evenodd" fill-opacity="1" /><path clip-path="url(#clip720)" d="M647.452 1008.03 L647.452 1011.67 L613.181 1011.67 Q613.667 1019.37 617.799 1023.42 Q621.971 1027.43 629.384 1027.43 Q633.678 1027.43 637.689 1026.38 Q641.74 1025.32 645.71 1023.22 L645.71 1030.27 Q641.699 1031.97 637.486 1032.86 Q633.273 1033.75 628.939 1033.75 Q618.082 1033.75 611.723 1027.43 Q605.403 1021.11 605.403 1010.34 Q605.403 999.197 611.398 992.675 Q617.434 986.112 627.643 986.112 Q636.798 986.112 642.104 992.026 Q647.452 997.9 647.452 1008.03 M639.998 1005.84 Q639.917 999.723 636.555 996.077 Q633.233 992.432 627.724 992.432 Q621.485 992.432 617.718 995.956 Q613.991 999.48 613.424 1005.88 L639.998 1005.84 Z" fill="#000000" fill-rule="evenodd" fill-opacity="1" /><path clip-path="url(#clip720)" d="M697.399 1005.19 L697.399 1032.58 L689.946 1032.58 L689.946 1005.43 Q689.946 998.994 687.434 995.794 Q684.922 992.594 679.899 992.594 Q673.863 992.594 670.38 996.442 Q666.896 1000.29 666.896 1006.93 L666.896 1032.58 L659.402 1032.58 L659.402 987.206 L666.896 987.206 L666.896 994.254 Q669.569 990.163 673.175 988.138 Q676.821 986.112 681.56 986.112 Q689.378 986.112 693.389 990.973 Q697.399 995.794 697.399 1005.19 Z" fill="#000000" fill-rule="evenodd" fill-opacity="1" /><path clip-path="url(#clip720)" d="M714.17 1022.29 L722.717 1022.29 L722.717 1029.25 L716.074 1042.22 L710.848 1042.22 L714.17 1029.25 L714.17 1022.29 Z" fill="#000000" fill-rule="evenodd" fill-opacity="1" /><path clip-path="url(#clip720)" d="M785.628 1009.77 Q776.594 1009.77 773.111 1011.84 Q769.627 1013.9 769.627 1018.88 Q769.627 1022.85 772.219 1025.2 Q774.852 1027.51 779.349 1027.51 Q785.547 1027.51 789.274 1023.14 Q793.041 1018.72 793.041 1011.43 L793.041 1009.77 L785.628 1009.77 M800.495 1006.69 L800.495 1032.58 L793.041 1032.58 L793.041 1025.69 Q790.489 1029.82 786.681 1031.81 Q782.873 1033.75 777.364 1033.75 Q770.396 1033.75 766.265 1029.86 Q762.173 1025.93 762.173 1019.37 Q762.173 1011.71 767.277 1007.82 Q772.422 1003.94 782.59 1003.94 L793.041 1003.94 L793.041 1003.21 Q793.041 998.062 789.638 995.267 Q786.276 992.432 780.159 992.432 Q776.27 992.432 772.584 993.363 Q768.898 994.295 765.495 996.158 L765.495 989.272 Q769.586 987.692 773.435 986.922 Q777.283 986.112 780.929 986.112 Q790.773 986.112 795.634 991.216 Q800.495 996.32 800.495 1006.69 Z" fill="#000000" fill-rule="evenodd" fill-opacity="1" /><path clip-path="url(#clip720)" d="M836.71 1017.22 L836.71 1032.58 L832.011 1032.58 L832.011 1017.39 Q832.011 1013.78 830.431 1012 Q828.851 1010.17 825.691 1010.17 Q821.883 1010.17 819.696 1012.36 Q817.508 1014.51 817.508 1018.24 L817.508 1032.58 L812.769 1032.58 L812.769 1007.18 L817.508 1007.18 L817.508 1011.11 Q819.169 1008.84 821.438 1007.7 Q823.747 1006.57 826.745 1006.57 Q831.646 1006.57 834.158 1009.28 Q836.71 1012 836.71 1017.22 Z" fill="#000000" fill-rule="evenodd" fill-opacity="1" /><path clip-path="url(#clip720)" d="M928.179 991.743 L886.374 1006.61 L928.179 1021.4 L928.179 1028.77 L876.247 1009.93 L876.247 1003.21 L928.179 984.37 L928.179 991.743 Z" fill="#000000" fill-rule="evenodd" fill-opacity="1" /><path clip-path="url(#clip720)" d="M989.712 977.484 Q983.393 977.484 980.193 983.722 Q977.033 989.92 977.033 1002.4 Q977.033 1014.83 980.193 1021.07 Q983.393 1027.27 989.712 1027.27 Q996.072 1027.27 999.232 1021.07 Q1002.43 1014.83 1002.43 1002.4 Q1002.43 989.92 999.232 983.722 Q996.072 977.484 989.712 977.484 M989.712 971.002 Q999.88 971.002 1005.23 979.064 Q1010.62 987.084 1010.62 1002.4 Q1010.62 1017.67 1005.23 1025.73 Q999.88 1033.75 989.712 1033.75 Q979.545 1033.75 974.157 1025.73 Q968.81 1017.67 968.81 1002.4 Q968.81 987.084 974.157 979.064 Q979.545 971.002 989.712 971.002 Z" fill="#000000" fill-rule="evenodd" fill-opacity="1" /><polyline clip-path="url(#clip724)" style="stroke:#009af9; stroke-linecap:butt; stroke-linejoin:round; stroke-width:4; stroke-opacity:1; fill:none" points="
  82.6076,1850.54 84.5263,1840.94 86.4449,1831.44 88.3635,1822.03 90.2822,1812.72 99.1524,1770.83 108.023,1730.84 116.893,1692.69 125.763,1656.33 134.634,1621.7 
  143.504,1588.74 152.374,1557.4 161.244,1527.63 166.575,1510.46 171.906,1493.83 177.236,1477.73 182.567,1462.13 193.228,1432.44 203.89,1404.67 212.904,1382.62 
  221.918,1361.83 230.932,1342.25 239.946,1323.84 249.737,1305.11 259.529,1287.63 269.321,1271.36 279.113,1256.23 288.14,1243.24 297.167,1231.15 306.194,1219.89 
  315.221,1209.44 324.899,1199.08 334.577,1189.56 344.255,1180.81 353.933,1172.81 365.146,1164.41 376.359,1156.89 387.572,1150.17 398.785,1144.2 418.714,1135.26 
  438.644,1128.21 456.12,1123.34 473.597,1119.52 492.651,1116.36 511.704,1114.06 530.872,1112.44 550.039,1111.37 592.422,1110.25 632.749,1110.02 674.68,1110.01 
  709.976,1110.02 753.069,1110.27 792.546,1111.3 810.775,1112.28 829.005,1113.74 847.471,1115.83 865.937,1118.69 886.632,1123.03 907.327,1128.83 926.08,1135.58 
  944.834,1144.01 955.569,1149.69 966.305,1156.05 977.04,1163.14 987.776,1171.02 997.716,1179.08 1007.66,1187.9 1017.6,1197.55 1027.54,1208.06 1037.34,1219.33 
  1047.14,1231.54 1056.94,1244.74 1066.74,1259 1076.25,1273.89 1085.77,1289.87 1095.28,1307 1104.8,1325.31 1114.55,1345.39 1124.3,1366.84 1134.06,1389.72 
  1143.81,1414.1 1154.5,1442.6 1165.18,1473.05 1170.53,1489.05 1175.87,1505.56 1181.21,1522.61 1186.56,1540.2 1194.32,1566.75 1202.08,1594.51 1209.84,1623.52 
  1217.61,1653.81 1225.37,1685.42 1233.13,1718.39 1240.89,1752.76 1248.65,1788.56 1251.84,1803.68 1255.02,1819.04 1258.21,1834.66 1261.39,1850.54 
  "/>
<path clip-path="url(#clip720)" d="
M1391.24 1872.76 L2640.76 1872.76 L2640.76 1087.79 L1391.24 1087.79  Z
  " fill="#ffffff" fill-rule="evenodd" fill-opacity="1"/>
<defs>
  <clipPath id="clip725">
    <rect x="1391" y="1087" width="1251" height="786"/>
  </clipPath>
</defs>
<polyline clip-path="url(#clip720)" style="stroke:#000000; stroke-linecap:butt; stroke-linejoin:round; stroke-width:4; stroke-opacity:1; fill:none" points="
  1391.24,1872.76 2640.76,1872.76 
  "/>
<polyline clip-path="url(#clip720)" style="stroke:#000000; stroke-linecap:butt; stroke-linejoin:round; stroke-width:4; stroke-opacity:1; fill:none" points="
  1391.24,1872.76 1391.24,1087.79 
  "/>
<path clip-path="url(#clip720)" d="M1739.22 1005.19 L1739.22 1032.58 L1731.77 1032.58 L1731.77 1005.43 Q1731.77 998.994 1729.26 995.794 Q1726.75 992.594 1721.72 992.594 Q1715.69 992.594 1712.2 996.442 Q1708.72 1000.29 1708.72 1006.93 L1708.72 1032.58 L1701.22 1032.58 L1701.22 987.206 L1708.72 987.206 L1708.72 994.254 Q1711.39 990.163 1715 988.138 Q1718.64 986.112 1723.38 986.112 Q1731.2 986.112 1735.21 990.973 Q1739.22 995.794 1739.22 1005.19 Z" fill="#000000" fill-rule="evenodd" fill-opacity="1" /><path clip-path="url(#clip720)" d="M1781.43 991.743 L1781.43 984.37 L1833.36 1003.21 L1833.36 1009.93 L1781.43 1028.77 L1781.43 1021.4 L1823.16 1006.61 L1781.43 991.743 Z" fill="#000000" fill-rule="evenodd" fill-opacity="1" /><path clip-path="url(#clip720)" d="M1893.93 992.432 Q1887.93 992.432 1884.45 997.131 Q1880.96 1001.79 1880.96 1009.93 Q1880.96 1018.07 1884.41 1022.77 Q1887.89 1027.43 1893.93 1027.43 Q1899.88 1027.43 1903.36 1022.73 Q1906.85 1018.03 1906.85 1009.93 Q1906.85 1001.87 1903.36 997.171 Q1899.88 992.432 1893.93 992.432 M1893.93 986.112 Q1903.65 986.112 1909.2 992.432 Q1914.75 998.751 1914.75 1009.93 Q1914.75 1021.07 1909.2 1027.43 Q1903.65 1033.75 1893.93 1033.75 Q1884.16 1033.75 1878.61 1027.43 Q1873.1 1021.07 1873.1 1009.93 Q1873.1 998.751 1878.61 992.432 Q1884.16 986.112 1893.93 986.112 Z" fill="#000000" fill-rule="evenodd" fill-opacity="1" /><path clip-path="url(#clip720)" d="M1956.96 994.092 L1956.96 969.544 L1964.41 969.544 L1964.41 1032.58 L1956.96 1032.58 L1956.96 1025.77 Q1954.61 1029.82 1951 1031.81 Q1947.44 1033.75 1942.42 1033.75 Q1934.19 1033.75 1929.01 1027.19 Q1923.86 1020.63 1923.86 1009.93 Q1923.86 999.237 1929.01 992.675 Q1934.19 986.112 1942.42 986.112 Q1947.44 986.112 1951 988.097 Q1954.61 990.042 1956.96 994.092 M1931.56 1009.93 Q1931.56 1018.15 1934.92 1022.85 Q1938.32 1027.51 1944.24 1027.51 Q1950.15 1027.51 1953.56 1022.85 Q1956.96 1018.15 1956.96 1009.93 Q1956.96 1001.71 1953.56 997.05 Q1950.15 992.351 1944.24 992.351 Q1938.32 992.351 1934.92 997.05 Q1931.56 1001.71 1931.56 1009.93 Z" fill="#000000" fill-rule="evenodd" fill-opacity="1" /><path clip-path="url(#clip720)" d="M2009.62 994.092 L2009.62 969.544 L2017.07 969.544 L2017.07 1032.58 L2009.62 1032.58 L2009.62 1025.77 Q2007.27 1029.82 2003.66 1031.81 Q2000.1 1033.75 1995.08 1033.75 Q1986.85 1033.75 1981.67 1027.19 Q1976.52 1020.63 1976.52 1009.93 Q1976.52 999.237 1981.67 992.675 Q1986.85 986.112 1995.08 986.112 Q2000.1 986.112 2003.66 988.097 Q2007.27 990.042 2009.62 994.092 M1984.22 1009.93 Q1984.22 1018.15 1987.58 1022.85 Q1990.99 1027.51 1996.9 1027.51 Q2002.81 1027.51 2006.22 1022.85 Q2009.62 1018.15 2009.62 1009.93 Q2009.62 1001.71 2006.22 997.05 Q2002.81 992.351 1996.9 992.351 Q1990.99 992.351 1987.58 997.05 Q1984.22 1001.71 1984.22 1009.93 Z" fill="#000000" fill-rule="evenodd" fill-opacity="1" /><path clip-path="url(#clip720)" d="M2034.33 1022.29 L2042.88 1022.29 L2042.88 1029.25 L2036.23 1042.22 L2031.01 1042.22 L2034.33 1029.25 L2034.33 1022.29 Z" fill="#000000" fill-rule="evenodd" fill-opacity="1" /><path clip-path="url(#clip720)" d="M2105.79 1009.77 Q2096.75 1009.77 2093.27 1011.84 Q2089.79 1013.9 2089.79 1018.88 Q2089.79 1022.85 2092.38 1025.2 Q2095.01 1027.51 2099.51 1027.51 Q2105.71 1027.51 2109.43 1023.14 Q2113.2 1018.72 2113.2 1011.43 L2113.2 1009.77 L2105.79 1009.77 M2120.66 1006.69 L2120.66 1032.58 L2113.2 1032.58 L2113.2 1025.69 Q2110.65 1029.82 2106.84 1031.81 Q2103.03 1033.75 2097.52 1033.75 Q2090.56 1033.75 2086.42 1029.86 Q2082.33 1025.93 2082.33 1019.37 Q2082.33 1011.71 2087.44 1007.82 Q2092.58 1003.94 2102.75 1003.94 L2113.2 1003.94 L2113.2 1003.21 Q2113.2 998.062 2109.8 995.267 Q2106.44 992.432 2100.32 992.432 Q2096.43 992.432 2092.74 993.363 Q2089.06 994.295 2085.66 996.158 L2085.66 989.272 Q2089.75 987.692 2093.6 986.922 Q2097.44 986.112 2101.09 986.112 Q2110.93 986.112 2115.79 991.216 Q2120.66 996.32 2120.66 1006.69 Z" fill="#000000" fill-rule="evenodd" fill-opacity="1" /><path clip-path="url(#clip720)" d="M2156.87 1017.22 L2156.87 1032.58 L2152.17 1032.58 L2152.17 1017.39 Q2152.17 1013.78 2150.59 1012 Q2149.01 1010.17 2145.85 1010.17 Q2142.04 1010.17 2139.86 1012.36 Q2137.67 1014.51 2137.67 1018.24 L2137.67 1032.58 L2132.93 1032.58 L2132.93 1007.18 L2137.67 1007.18 L2137.67 1011.11 Q2139.33 1008.84 2141.6 1007.7 Q2143.91 1006.57 2146.9 1006.57 Q2151.81 1006.57 2154.32 1009.28 Q2156.87 1012 2156.87 1017.22 Z" fill="#000000" fill-rule="evenodd" fill-opacity="1" /><path clip-path="url(#clip720)" d="M2248.34 991.743 L2206.53 1006.61 L2248.34 1021.4 L2248.34 1028.77 L2196.41 1009.93 L2196.41 1003.21 L2248.34 984.37 L2248.34 991.743 Z" fill="#000000" fill-rule="evenodd" fill-opacity="1" /><path clip-path="url(#clip720)" d="M2309.87 977.484 Q2303.55 977.484 2300.35 983.722 Q2297.19 989.92 2297.19 1002.4 Q2297.19 1014.83 2300.35 1021.07 Q2303.55 1027.27 2309.87 1027.27 Q2316.23 1027.27 2319.39 1021.07 Q2322.59 1014.83 2322.59 1002.4 Q2322.59 989.92 2319.39 983.722 Q2316.23 977.484 2309.87 977.484 M2309.87 971.002 Q2320.04 971.002 2325.39 979.064 Q2330.78 987.084 2330.78 1002.4 Q2330.78 1017.67 2325.39 1025.73 Q2320.04 1033.75 2309.87 1033.75 Q2299.71 1033.75 2294.32 1025.73 Q2288.97 1017.67 2288.97 1002.4 Q2288.97 987.084 2294.32 979.064 Q2299.71 971.002 2309.87 971.002 Z" fill="#000000" fill-rule="evenodd" fill-opacity="1" /><polyline clip-path="url(#clip725)" style="stroke:#009af9; stroke-linecap:butt; stroke-linejoin:round; stroke-width:4; stroke-opacity:1; fill:none" points="
  1426.61,1110.01 1428.53,1116 1430.44,1121.91 1432.36,1127.74 1434.28,1133.49 1443.15,1159.14 1452.02,1183.24 1460.89,1205.88 1469.76,1227.11 1478.63,1247.01 
  1487.5,1265.64 1496.37,1283.06 1505.24,1299.32 1515.91,1317.44 1526.57,1334.07 1537.23,1349.32 1547.89,1363.26 1556.9,1374.1 1565.92,1384.12 1574.93,1393.37 
  1583.95,1401.9 1593.74,1410.39 1603.53,1418.12 1613.32,1425.16 1623.11,1431.54 1641.17,1441.75 1659.22,1450.18 1678.58,1457.5 1697.93,1463.33 1720.36,1468.52 
  1742.78,1472.35 1782.64,1476.67 1817.6,1478.67 1855.7,1479.72 1894.04,1480.13 1936.42,1480.26 1976.75,1480.27 2018.68,1480.27 2053.98,1480.27 2097.07,1480.29 
  2136.55,1480.41 2173,1480.77 2209.94,1481.7 2251.33,1484.03 2288.83,1488.14 2310.3,1491.77 2331.78,1496.62 2351.66,1502.45 2371.54,1509.85 2391.14,1518.95 
  2410.74,1530.17 2420.25,1536.48 2429.77,1543.41 2439.28,1551.01 2448.8,1559.32 2458.55,1568.64 2468.3,1578.82 2478.06,1589.91 2487.81,1601.99 2498.5,1616.41 
  2509.18,1632.17 2519.87,1649.35 2530.56,1668.06 2538.32,1682.66 2546.08,1698.15 2553.84,1714.57 2561.61,1731.97 2569.37,1750.4 2577.13,1769.88 2584.89,1790.47 
  2592.65,1812.22 2595.84,1821.49 2599.02,1830.96 2602.21,1840.64 2605.39,1850.54 
  "/>
</svg>
