<?xml version="1.0" encoding="utf-8"?>
<svg xmlns="http://www.w3.org/2000/svg" xmlns:xlink="http://www.w3.org/1999/xlink" width="672" height="480" viewBox="0 0 2688 1920">
<defs>
  <clipPath id="clip510">
    <rect x="0" y="0" width="2688" height="1920"/>
  </clipPath>
</defs>
<path clip-path="url(#clip510)" d="
M0 1920 L2688 1920 L2688 0 L0 0  Z
  " fill="#ffffff" fill-rule="evenodd" fill-opacity="1"/>
<defs>
  <clipPath id="clip511">
    <rect x="537" y="0" width="1883" height="1883"/>
  </clipPath>
</defs>
<path clip-path="url(#clip510)" d="
M196.816 1800.78 L2640.76 1800.78 L2640.76 47.2441 L196.816 47.2441  Z
  " fill="#ffffff" fill-rule="evenodd" fill-opacity="1"/>
<defs>
  <clipPath id="clip512">
    <rect x="196" y="47" width="2445" height="1755"/>
  </clipPath>
</defs>
<polyline clip-path="url(#clip512)" style="stroke:#000000; stroke-linecap:butt; stroke-linejoin:round; stroke-width:2; stroke-opacity:0.1; fill:none" points="
  265.984,1800.78 265.984,47.2441 
  "/>
<polyline clip-path="url(#clip512)" style="stroke:#000000; stroke-linecap:butt; stroke-linejoin:round; stroke-width:2; stroke-opacity:0.1; fill:none" points="
  650.251,1800.78 650.251,47.2441 
  "/>
<polyline clip-path="url(#clip512)" style="stroke:#000000; stroke-linecap:butt; stroke-linejoin:round; stroke-width:2; stroke-opacity:0.1; fill:none" points="
  1034.52,1800.78 1034.52,47.2441 
  "/>
<polyline clip-path="url(#clip512)" style="stroke:#000000; stroke-linecap:butt; stroke-linejoin:round; stroke-width:2; stroke-opacity:0.1; fill:none" points="
  1418.79,1800.78 1418.79,47.2441 
  "/>
<polyline clip-path="url(#clip512)" style="stroke:#000000; stroke-linecap:butt; stroke-linejoin:round; stroke-width:2; stroke-opacity:0.1; fill:none" points="
  1803.05,1800.78 1803.05,47.2441 
  "/>
<polyline clip-path="url(#clip512)" style="stroke:#000000; stroke-linecap:butt; stroke-linejoin:round; stroke-width:2; stroke-opacity:0.1; fill:none" points="
  2187.32,1800.78 2187.32,47.2441 
  "/>
<polyline clip-path="url(#clip512)" style="stroke:#000000; stroke-linecap:butt; stroke-linejoin:round; stroke-width:2; stroke-opacity:0.1; fill:none" points="
  2571.59,1800.78 2571.59,47.2441 
  "/>
<polyline clip-path="url(#clip510)" style="stroke:#000000; stroke-linecap:butt; stroke-linejoin:round; stroke-width:4; stroke-opacity:1; fill:none" points="
  196.816,1800.78 2640.76,1800.78 
  "/>
<polyline clip-path="url(#clip510)" style="stroke:#000000; stroke-linecap:butt; stroke-linejoin:round; stroke-width:4; stroke-opacity:1; fill:none" points="
  265.984,1800.78 265.984,1781.88 
  "/>
<polyline clip-path="url(#clip510)" style="stroke:#000000; stroke-linecap:butt; stroke-linejoin:round; stroke-width:4; stroke-opacity:1; fill:none" points="
  650.251,1800.78 650.251,1781.88 
  "/>
<polyline clip-path="url(#clip510)" style="stroke:#000000; stroke-linecap:butt; stroke-linejoin:round; stroke-width:4; stroke-opacity:1; fill:none" points="
  1034.52,1800.78 1034.52,1781.88 
  "/>
<polyline clip-path="url(#clip510)" style="stroke:#000000; stroke-linecap:butt; stroke-linejoin:round; stroke-width:4; stroke-opacity:1; fill:none" points="
  1418.79,1800.78 1418.79,1781.88 
  "/>
<polyline clip-path="url(#clip510)" style="stroke:#000000; stroke-linecap:butt; stroke-linejoin:round; stroke-width:4; stroke-opacity:1; fill:none" points="
  1803.05,1800.78 1803.05,1781.88 
  "/>
<polyline clip-path="url(#clip510)" style="stroke:#000000; stroke-linecap:butt; stroke-linejoin:round; stroke-width:4; stroke-opacity:1; fill:none" points="
  2187.32,1800.78 2187.32,1781.88 
  "/>
<polyline clip-path="url(#clip510)" style="stroke:#000000; stroke-linecap:butt; stroke-linejoin:round; stroke-width:4; stroke-opacity:1; fill:none" points="
  2571.59,1800.78 2571.59,1781.88 
  "/>
<path clip-path="url(#clip510)" d="M213.01 1848.65 L242.686 1848.65 L242.686 1852.59 L213.01 1852.59 L213.01 1848.65 Z" fill="#000000" fill-rule="evenodd" fill-opacity="1" /><path clip-path="url(#clip510)" d="M253.588 1861.55 L261.227 1861.55 L261.227 1835.18 L252.917 1836.85 L252.917 1832.59 L261.181 1830.92 L265.857 1830.92 L265.857 1861.55 L273.496 1861.55 L273.496 1865.48 L253.588 1865.48 L253.588 1861.55 Z" fill="#000000" fill-rule="evenodd" fill-opacity="1" /><path clip-path="url(#clip510)" d="M282.94 1859.6 L287.824 1859.6 L287.824 1865.48 L282.94 1865.48 L282.94 1859.6 Z" fill="#000000" fill-rule="evenodd" fill-opacity="1" /><path clip-path="url(#clip510)" d="M298.056 1830.92 L316.412 1830.92 L316.412 1834.86 L302.338 1834.86 L302.338 1843.33 Q303.357 1842.98 304.375 1842.82 Q305.394 1842.64 306.412 1842.64 Q312.199 1842.64 315.579 1845.81 Q318.958 1848.98 318.958 1854.4 Q318.958 1859.97 315.486 1863.08 Q312.014 1866.15 305.695 1866.15 Q303.519 1866.15 301.25 1865.78 Q299.005 1865.41 296.597 1864.67 L296.597 1859.97 Q298.681 1861.11 300.903 1861.66 Q303.125 1862.22 305.602 1862.22 Q309.607 1862.22 311.945 1860.11 Q314.282 1858.01 314.282 1854.4 Q314.282 1850.78 311.945 1848.68 Q309.607 1846.57 305.602 1846.57 Q303.727 1846.57 301.852 1846.99 Q300 1847.4 298.056 1848.28 L298.056 1830.92 Z" fill="#000000" fill-rule="evenodd" fill-opacity="1" /><path clip-path="url(#clip510)" d="M596.779 1848.65 L626.455 1848.65 L626.455 1852.59 L596.779 1852.59 L596.779 1848.65 Z" fill="#000000" fill-rule="evenodd" fill-opacity="1" /><path clip-path="url(#clip510)" d="M637.358 1861.55 L644.997 1861.55 L644.997 1835.18 L636.687 1836.85 L636.687 1832.59 L644.95 1830.92 L649.626 1830.92 L649.626 1861.55 L657.265 1861.55 L657.265 1865.48 L637.358 1865.48 L637.358 1861.55 Z" fill="#000000" fill-rule="evenodd" fill-opacity="1" /><path clip-path="url(#clip510)" d="M666.71 1859.6 L671.594 1859.6 L671.594 1865.48 L666.71 1865.48 L666.71 1859.6 Z" fill="#000000" fill-rule="evenodd" fill-opacity="1" /><path clip-path="url(#clip510)" d="M691.779 1834 Q688.168 1834 686.339 1837.57 Q684.534 1841.11 684.534 1848.24 Q684.534 1855.34 686.339 1858.91 Q688.168 1862.45 691.779 1862.45 Q695.413 1862.45 697.219 1858.91 Q699.047 1855.34 699.047 1848.24 Q699.047 1841.11 697.219 1837.57 Q695.413 1834 691.779 1834 M691.779 1830.3 Q697.589 1830.3 700.645 1834.9 Q703.723 1839.49 703.723 1848.24 Q703.723 1856.96 700.645 1861.57 Q697.589 1866.15 691.779 1866.15 Q685.969 1866.15 682.89 1861.57 Q679.835 1856.96 679.835 1848.24 Q679.835 1839.49 682.89 1834.9 Q685.969 1830.3 691.779 1830.3 Z" fill="#000000" fill-rule="evenodd" fill-opacity="1" /><path clip-path="url(#clip510)" d="M981.544 1848.65 L1011.22 1848.65 L1011.22 1852.59 L981.544 1852.59 L981.544 1848.65 Z" fill="#000000" fill-rule="evenodd" fill-opacity="1" /><path clip-path="url(#clip510)" d="M1031.31 1834 Q1027.7 1834 1025.87 1837.57 Q1024.07 1841.11 1024.07 1848.24 Q1024.07 1855.34 1025.87 1858.91 Q1027.7 1862.45 1031.31 1862.45 Q1034.95 1862.45 1036.75 1858.91 Q1038.58 1855.34 1038.58 1848.24 Q1038.58 1841.11 1036.75 1837.57 Q1034.95 1834 1031.31 1834 M1031.31 1830.3 Q1037.12 1830.3 1040.18 1834.9 Q1043.26 1839.49 1043.26 1848.24 Q1043.26 1856.96 1040.18 1861.57 Q1037.12 1866.15 1031.31 1866.15 Q1025.5 1866.15 1022.42 1861.57 Q1019.37 1856.96 1019.37 1848.24 Q1019.37 1839.49 1022.42 1834.9 Q1025.5 1830.3 1031.31 1830.3 Z" fill="#000000" fill-rule="evenodd" fill-opacity="1" /><path clip-path="url(#clip510)" d="M1051.47 1859.6 L1056.36 1859.6 L1056.36 1865.48 L1051.47 1865.48 L1051.47 1859.6 Z" fill="#000000" fill-rule="evenodd" fill-opacity="1" /><path clip-path="url(#clip510)" d="M1066.59 1830.92 L1084.95 1830.92 L1084.95 1834.86 L1070.87 1834.86 L1070.87 1843.33 Q1071.89 1842.98 1072.91 1842.82 Q1073.93 1842.64 1074.95 1842.64 Q1080.73 1842.64 1084.11 1845.81 Q1087.49 1848.98 1087.49 1854.4 Q1087.49 1859.97 1084.02 1863.08 Q1080.55 1866.15 1074.23 1866.15 Q1072.05 1866.15 1069.78 1865.78 Q1067.54 1865.41 1065.13 1864.67 L1065.13 1859.97 Q1067.22 1861.11 1069.44 1861.66 Q1071.66 1862.22 1074.14 1862.22 Q1078.14 1862.22 1080.48 1860.11 Q1082.82 1858.01 1082.82 1854.4 Q1082.82 1850.78 1080.48 1848.68 Q1078.14 1846.57 1074.14 1846.57 Q1072.26 1846.57 1070.39 1846.99 Q1068.53 1847.4 1066.59 1848.28 L1066.59 1830.92 Z" fill="#000000" fill-rule="evenodd" fill-opacity="1" /><path clip-path="url(#clip510)" d="M1396.17 1834 Q1392.56 1834 1390.73 1837.57 Q1388.93 1841.11 1388.93 1848.24 Q1388.93 1855.34 1390.73 1858.91 Q1392.56 1862.45 1396.17 1862.45 Q1399.8 1862.45 1401.61 1858.91 Q1403.44 1855.34 1403.44 1848.24 Q1403.44 1841.11 1401.61 1837.57 Q1399.8 1834 1396.17 1834 M1396.17 1830.3 Q1401.98 1830.3 1405.04 1834.9 Q1408.11 1839.49 1408.11 1848.24 Q1408.11 1856.96 1405.04 1861.57 Q1401.98 1866.15 1396.17 1866.15 Q1390.36 1866.15 1387.28 1861.57 Q1384.23 1856.96 1384.23 1848.24 Q1384.23 1839.49 1387.28 1834.9 Q1390.36 1830.3 1396.17 1830.3 Z" fill="#000000" fill-rule="evenodd" fill-opacity="1" /><path clip-path="url(#clip510)" d="M1416.33 1859.6 L1421.22 1859.6 L1421.22 1865.48 L1416.33 1865.48 L1416.33 1859.6 Z" fill="#000000" fill-rule="evenodd" fill-opacity="1" /><path clip-path="url(#clip510)" d="M1441.4 1834 Q1437.79 1834 1435.96 1837.57 Q1434.16 1841.11 1434.16 1848.24 Q1434.16 1855.34 1435.96 1858.91 Q1437.79 1862.45 1441.4 1862.45 Q1445.04 1862.45 1446.84 1858.91 Q1448.67 1855.34 1448.67 1848.24 Q1448.67 1841.11 1446.84 1837.57 Q1445.04 1834 1441.4 1834 M1441.4 1830.3 Q1447.21 1830.3 1450.27 1834.9 Q1453.35 1839.49 1453.35 1848.24 Q1453.35 1856.96 1450.27 1861.57 Q1447.21 1866.15 1441.4 1866.15 Q1435.59 1866.15 1432.51 1861.57 Q1429.46 1856.96 1429.46 1848.24 Q1429.46 1839.49 1432.51 1834.9 Q1435.59 1830.3 1441.4 1830.3 Z" fill="#000000" fill-rule="evenodd" fill-opacity="1" /><path clip-path="url(#clip510)" d="M1780.94 1834 Q1777.32 1834 1775.5 1837.57 Q1773.69 1841.11 1773.69 1848.24 Q1773.69 1855.34 1775.5 1858.91 Q1777.32 1862.45 1780.94 1862.45 Q1784.57 1862.45 1786.38 1858.91 Q1788.2 1855.34 1788.2 1848.24 Q1788.2 1841.11 1786.38 1837.57 Q1784.57 1834 1780.94 1834 M1780.94 1830.3 Q1786.75 1830.3 1789.8 1834.9 Q1792.88 1839.49 1792.88 1848.24 Q1792.88 1856.96 1789.8 1861.57 Q1786.75 1866.15 1780.94 1866.15 Q1775.13 1866.15 1772.05 1861.57 Q1768.99 1856.96 1768.99 1848.24 Q1768.99 1839.49 1772.05 1834.9 Q1775.13 1830.3 1780.94 1830.3 Z" fill="#000000" fill-rule="evenodd" fill-opacity="1" /><path clip-path="url(#clip510)" d="M1801.1 1859.6 L1805.98 1859.6 L1805.98 1865.48 L1801.1 1865.48 L1801.1 1859.6 Z" fill="#000000" fill-rule="evenodd" fill-opacity="1" /><path clip-path="url(#clip510)" d="M1816.21 1830.92 L1834.57 1830.92 L1834.57 1834.86 L1820.5 1834.86 L1820.5 1843.33 Q1821.51 1842.98 1822.53 1842.82 Q1823.55 1842.64 1824.57 1842.64 Q1830.36 1842.64 1833.74 1845.81 Q1837.12 1848.98 1837.12 1854.4 Q1837.12 1859.97 1833.64 1863.08 Q1830.17 1866.15 1823.85 1866.15 Q1821.68 1866.15 1819.41 1865.78 Q1817.16 1865.41 1814.75 1864.67 L1814.75 1859.97 Q1816.84 1861.11 1819.06 1861.66 Q1821.28 1862.22 1823.76 1862.22 Q1827.76 1862.22 1830.1 1860.11 Q1832.44 1858.01 1832.44 1854.4 Q1832.44 1850.78 1830.1 1848.68 Q1827.76 1846.57 1823.76 1846.57 Q1821.88 1846.57 1820.01 1846.99 Q1818.16 1847.4 1816.21 1848.28 L1816.21 1830.92 Z" fill="#000000" fill-rule="evenodd" fill-opacity="1" /><path clip-path="url(#clip510)" d="M2154.47 1861.55 L2162.11 1861.55 L2162.11 1835.18 L2153.8 1836.85 L2153.8 1832.59 L2162.07 1830.92 L2166.74 1830.92 L2166.74 1861.55 L2174.38 1861.55 L2174.38 1865.48 L2154.47 1865.48 L2154.47 1861.55 Z" fill="#000000" fill-rule="evenodd" fill-opacity="1" /><path clip-path="url(#clip510)" d="M2183.83 1859.6 L2188.71 1859.6 L2188.71 1865.48 L2183.83 1865.48 L2183.83 1859.6 Z" fill="#000000" fill-rule="evenodd" fill-opacity="1" /><path clip-path="url(#clip510)" d="M2208.89 1834 Q2205.28 1834 2203.45 1837.57 Q2201.65 1841.11 2201.65 1848.24 Q2201.65 1855.34 2203.45 1858.91 Q2205.28 1862.45 2208.89 1862.45 Q2212.53 1862.45 2214.33 1858.91 Q2216.16 1855.34 2216.16 1848.24 Q2216.16 1841.11 2214.33 1837.57 Q2212.53 1834 2208.89 1834 M2208.89 1830.3 Q2214.7 1830.3 2217.76 1834.9 Q2220.84 1839.49 2220.84 1848.24 Q2220.84 1856.96 2217.76 1861.57 Q2214.7 1866.15 2208.89 1866.15 Q2203.08 1866.15 2200.01 1861.57 Q2196.95 1856.96 2196.95 1848.24 Q2196.95 1839.49 2200.01 1834.9 Q2203.08 1830.3 2208.89 1830.3 Z" fill="#000000" fill-rule="evenodd" fill-opacity="1" /><path clip-path="url(#clip510)" d="M2539.24 1861.55 L2546.88 1861.55 L2546.88 1835.18 L2538.57 1836.85 L2538.57 1832.59 L2546.83 1830.92 L2551.51 1830.92 L2551.51 1861.55 L2559.15 1861.55 L2559.15 1865.48 L2539.24 1865.48 L2539.24 1861.55 Z" fill="#000000" fill-rule="evenodd" fill-opacity="1" /><path clip-path="url(#clip510)" d="M2568.59 1859.6 L2573.47 1859.6 L2573.47 1865.48 L2568.59 1865.48 L2568.59 1859.6 Z" fill="#000000" fill-rule="evenodd" fill-opacity="1" /><path clip-path="url(#clip510)" d="M2583.71 1830.92 L2602.06 1830.92 L2602.06 1834.86 L2587.99 1834.86 L2587.99 1843.33 Q2589.01 1842.98 2590.03 1842.82 Q2591.04 1842.64 2592.06 1842.64 Q2597.85 1842.64 2601.23 1845.81 Q2604.61 1848.98 2604.61 1854.4 Q2604.61 1859.97 2601.14 1863.08 Q2597.66 1866.15 2591.34 1866.15 Q2589.17 1866.15 2586.9 1865.78 Q2584.65 1865.41 2582.25 1864.67 L2582.25 1859.97 Q2584.33 1861.11 2586.55 1861.66 Q2588.78 1862.22 2591.25 1862.22 Q2595.26 1862.22 2597.59 1860.11 Q2599.93 1858.01 2599.93 1854.4 Q2599.93 1850.78 2597.59 1848.68 Q2595.26 1846.57 2591.25 1846.57 Q2589.38 1846.57 2587.5 1846.99 Q2585.65 1847.4 2583.71 1848.28 L2583.71 1830.92 Z" fill="#000000" fill-rule="evenodd" fill-opacity="1" /><polyline clip-path="url(#clip512)" style="stroke:#000000; stroke-linecap:butt; stroke-linejoin:round; stroke-width:2; stroke-opacity:0.1; fill:none" points="
  196.816,1738.43 2640.76,1738.43 
  "/>
<polyline clip-path="url(#clip512)" style="stroke:#000000; stroke-linecap:butt; stroke-linejoin:round; stroke-width:2; stroke-opacity:0.1; fill:none" points="
  196.816,1399.09 2640.76,1399.09 
  "/>
<polyline clip-path="url(#clip512)" style="stroke:#000000; stroke-linecap:butt; stroke-linejoin:round; stroke-width:2; stroke-opacity:0.1; fill:none" points="
  196.816,1059.75 2640.76,1059.75 
  "/>
<polyline clip-path="url(#clip512)" style="stroke:#000000; stroke-linecap:butt; stroke-linejoin:round; stroke-width:2; stroke-opacity:0.1; fill:none" points="
  196.816,720.408 2640.76,720.408 
  "/>
<polyline clip-path="url(#clip512)" style="stroke:#000000; stroke-linecap:butt; stroke-linejoin:round; stroke-width:2; stroke-opacity:0.1; fill:none" points="
  196.816,381.069 2640.76,381.069 
  "/>
<polyline clip-path="url(#clip510)" style="stroke:#000000; stroke-linecap:butt; stroke-linejoin:round; stroke-width:4; stroke-opacity:1; fill:none" points="
  196.816,1800.78 196.816,47.2441 
  "/>
<polyline clip-path="url(#clip510)" style="stroke:#000000; stroke-linecap:butt; stroke-linejoin:round; stroke-width:4; stroke-opacity:1; fill:none" points="
  196.816,1738.43 215.714,1738.43 
  "/>
<polyline clip-path="url(#clip510)" style="stroke:#000000; stroke-linecap:butt; stroke-linejoin:round; stroke-width:4; stroke-opacity:1; fill:none" points="
  196.816,1399.09 215.714,1399.09 
  "/>
<polyline clip-path="url(#clip510)" style="stroke:#000000; stroke-linecap:butt; stroke-linejoin:round; stroke-width:4; stroke-opacity:1; fill:none" points="
  196.816,1059.75 215.714,1059.75 
  "/>
<polyline clip-path="url(#clip510)" style="stroke:#000000; stroke-linecap:butt; stroke-linejoin:round; stroke-width:4; stroke-opacity:1; fill:none" points="
  196.816,720.408 215.714,720.408 
  "/>
<polyline clip-path="url(#clip510)" style="stroke:#000000; stroke-linecap:butt; stroke-linejoin:round; stroke-width:4; stroke-opacity:1; fill:none" points="
  196.816,381.069 215.714,381.069 
  "/>
<path clip-path="url(#clip510)" d="M49.5521 1738.88 L79.2279 1738.88 L79.2279 1742.81 L49.5521 1742.81 L49.5521 1738.88 Z" fill="#000000" fill-rule="evenodd" fill-opacity="1" /><path clip-path="url(#clip510)" d="M89.3667 1721.15 L107.723 1721.15 L107.723 1725.08 L93.6491 1725.08 L93.6491 1733.55 Q94.6676 1733.21 95.6861 1733.04 Q96.7047 1732.86 97.7232 1732.86 Q103.51 1732.86 106.89 1736.03 Q110.269 1739.2 110.269 1744.62 Q110.269 1750.2 106.797 1753.3 Q103.325 1756.38 97.0056 1756.38 Q94.8297 1756.38 92.5612 1756.01 Q90.3158 1755.64 87.9084 1754.9 L87.9084 1750.2 Q89.9917 1751.33 92.2139 1751.89 Q94.4361 1752.44 96.913 1752.44 Q100.918 1752.44 103.256 1750.34 Q105.593 1748.23 105.593 1744.62 Q105.593 1741.01 103.256 1738.9 Q100.918 1736.79 96.913 1736.79 Q95.038 1736.79 93.163 1737.21 Q91.3112 1737.63 89.3667 1738.51 L89.3667 1721.15 Z" fill="#000000" fill-rule="evenodd" fill-opacity="1" /><path clip-path="url(#clip510)" d="M119.482 1749.83 L124.367 1749.83 L124.367 1755.71 L119.482 1755.71 L119.482 1749.83 Z" fill="#000000" fill-rule="evenodd" fill-opacity="1" /><path clip-path="url(#clip510)" d="M144.552 1724.22 Q140.941 1724.22 139.112 1727.79 Q137.306 1731.33 137.306 1738.46 Q137.306 1745.57 139.112 1749.13 Q140.941 1752.67 144.552 1752.67 Q148.186 1752.67 149.991 1749.13 Q151.82 1745.57 151.82 1738.46 Q151.82 1731.33 149.991 1727.79 Q148.186 1724.22 144.552 1724.22 M144.552 1720.52 Q150.362 1720.52 153.417 1725.13 Q156.496 1729.71 156.496 1738.46 Q156.496 1747.19 153.417 1751.79 Q150.362 1756.38 144.552 1756.38 Q138.741 1756.38 135.663 1751.79 Q132.607 1747.19 132.607 1738.46 Q132.607 1729.71 135.663 1725.13 Q138.741 1720.52 144.552 1720.52 Z" fill="#000000" fill-rule="evenodd" fill-opacity="1" /><path clip-path="url(#clip510)" d="M50.5475 1399.54 L80.2233 1399.54 L80.2233 1403.47 L50.5475 1403.47 L50.5475 1399.54 Z" fill="#000000" fill-rule="evenodd" fill-opacity="1" /><path clip-path="url(#clip510)" d="M94.3436 1412.43 L110.663 1412.43 L110.663 1416.37 L88.7186 1416.37 L88.7186 1412.43 Q91.3806 1409.68 95.9639 1405.05 Q100.57 1400.39 101.751 1399.05 Q103.996 1396.53 104.876 1394.79 Q105.779 1393.03 105.779 1391.34 Q105.779 1388.59 103.834 1386.85 Q101.913 1385.12 98.8111 1385.12 Q96.6121 1385.12 94.1584 1385.88 Q91.7278 1386.64 88.9501 1388.2 L88.9501 1383.47 Q91.7741 1382.34 94.2278 1381.76 Q96.6815 1381.18 98.7185 1381.18 Q104.089 1381.18 107.283 1383.87 Q110.478 1386.55 110.478 1391.04 Q110.478 1393.17 109.668 1395.09 Q108.881 1396.99 106.774 1399.58 Q106.195 1400.26 103.094 1403.47 Q99.9917 1406.67 94.3436 1412.43 Z" fill="#000000" fill-rule="evenodd" fill-opacity="1" /><path clip-path="url(#clip510)" d="M120.478 1410.49 L125.362 1410.49 L125.362 1416.37 L120.478 1416.37 L120.478 1410.49 Z" fill="#000000" fill-rule="evenodd" fill-opacity="1" /><path clip-path="url(#clip510)" d="M135.593 1381.81 L153.95 1381.81 L153.95 1385.74 L139.876 1385.74 L139.876 1394.21 Q140.894 1393.87 141.913 1393.7 Q142.931 1393.52 143.95 1393.52 Q149.737 1393.52 153.116 1396.69 Q156.496 1399.86 156.496 1405.28 Q156.496 1410.86 153.024 1413.96 Q149.552 1417.04 143.232 1417.04 Q141.056 1417.04 138.788 1416.67 Q136.542 1416.3 134.135 1415.56 L134.135 1410.86 Q136.218 1411.99 138.441 1412.55 Q140.663 1413.1 143.14 1413.1 Q147.144 1413.1 149.482 1411 Q151.82 1408.89 151.82 1405.28 Q151.82 1401.67 149.482 1399.56 Q147.144 1397.45 143.14 1397.45 Q141.265 1397.45 139.39 1397.87 Q137.538 1398.29 135.593 1399.17 L135.593 1381.81 Z" fill="#000000" fill-rule="evenodd" fill-opacity="1" /><path clip-path="url(#clip510)" d="M99.3204 1045.55 Q95.7093 1045.55 93.8806 1049.11 Q92.075 1052.65 92.075 1059.78 Q92.075 1066.89 93.8806 1070.45 Q95.7093 1073.99 99.3204 1073.99 Q102.955 1073.99 104.76 1070.45 Q106.589 1066.89 106.589 1059.78 Q106.589 1052.65 104.76 1049.11 Q102.955 1045.55 99.3204 1045.55 M99.3204 1041.84 Q105.131 1041.84 108.186 1046.45 Q111.265 1051.03 111.265 1059.78 Q111.265 1068.51 108.186 1073.12 Q105.131 1077.7 99.3204 1077.7 Q93.5102 1077.7 90.4315 1073.12 Q87.376 1068.51 87.376 1059.78 Q87.376 1051.03 90.4315 1046.45 Q93.5102 1041.84 99.3204 1041.84 Z" fill="#000000" fill-rule="evenodd" fill-opacity="1" /><path clip-path="url(#clip510)" d="M119.482 1071.15 L124.367 1071.15 L124.367 1077.03 L119.482 1077.03 L119.482 1071.15 Z" fill="#000000" fill-rule="evenodd" fill-opacity="1" /><path clip-path="url(#clip510)" d="M144.552 1045.55 Q140.941 1045.55 139.112 1049.11 Q137.306 1052.65 137.306 1059.78 Q137.306 1066.89 139.112 1070.45 Q140.941 1073.99 144.552 1073.99 Q148.186 1073.99 149.991 1070.45 Q151.82 1066.89 151.82 1059.78 Q151.82 1052.65 149.991 1049.11 Q148.186 1045.55 144.552 1045.55 M144.552 1041.84 Q150.362 1041.84 153.417 1046.45 Q156.496 1051.03 156.496 1059.78 Q156.496 1068.51 153.417 1073.12 Q150.362 1077.7 144.552 1077.7 Q138.741 1077.7 135.663 1073.12 Q132.607 1068.51 132.607 1059.78 Q132.607 1051.03 135.663 1046.45 Q138.741 1041.84 144.552 1041.84 Z" fill="#000000" fill-rule="evenodd" fill-opacity="1" /><path clip-path="url(#clip510)" d="M94.3436 733.753 L110.663 733.753 L110.663 737.688 L88.7186 737.688 L88.7186 733.753 Q91.3806 730.998 95.9639 726.369 Q100.57 721.716 101.751 720.373 Q103.996 717.85 104.876 716.114 Q105.779 714.355 105.779 712.665 Q105.779 709.911 103.834 708.174 Q101.913 706.438 98.8111 706.438 Q96.6121 706.438 94.1584 707.202 Q91.7278 707.966 88.9501 709.517 L88.9501 704.795 Q91.7741 703.661 94.2278 703.082 Q96.6815 702.503 98.7185 702.503 Q104.089 702.503 107.283 705.188 Q110.478 707.874 110.478 712.364 Q110.478 714.494 109.668 716.415 Q108.881 718.313 106.774 720.906 Q106.195 721.577 103.094 724.795 Q99.9917 727.989 94.3436 733.753 Z" fill="#000000" fill-rule="evenodd" fill-opacity="1" /><path clip-path="url(#clip510)" d="M120.478 731.809 L125.362 731.809 L125.362 737.688 L120.478 737.688 L120.478 731.809 Z" fill="#000000" fill-rule="evenodd" fill-opacity="1" /><path clip-path="url(#clip510)" d="M135.593 703.128 L153.95 703.128 L153.95 707.063 L139.876 707.063 L139.876 715.536 Q140.894 715.188 141.913 715.026 Q142.931 714.841 143.95 714.841 Q149.737 714.841 153.116 718.012 Q156.496 721.184 156.496 726.6 Q156.496 732.179 153.024 735.281 Q149.552 738.359 143.232 738.359 Q141.056 738.359 138.788 737.989 Q136.542 737.619 134.135 736.878 L134.135 732.179 Q136.218 733.313 138.441 733.869 Q140.663 734.424 143.14 734.424 Q147.144 734.424 149.482 732.318 Q151.82 730.211 151.82 726.6 Q151.82 722.989 149.482 720.883 Q147.144 718.776 143.14 718.776 Q141.265 718.776 139.39 719.193 Q137.538 719.61 135.593 720.489 L135.593 703.128 Z" fill="#000000" fill-rule="evenodd" fill-opacity="1" /><path clip-path="url(#clip510)" d="M89.3667 363.789 L107.723 363.789 L107.723 367.724 L93.6491 367.724 L93.6491 376.196 Q94.6676 375.849 95.6861 375.687 Q96.7047 375.502 97.7232 375.502 Q103.51 375.502 106.89 378.673 Q110.269 381.844 110.269 387.261 Q110.269 392.84 106.797 395.942 Q103.325 399.02 97.0056 399.02 Q94.8297 399.02 92.5612 398.65 Q90.3158 398.28 87.9084 397.539 L87.9084 392.84 Q89.9917 393.974 92.2139 394.53 Q94.4361 395.085 96.913 395.085 Q100.918 395.085 103.256 392.979 Q105.593 390.872 105.593 387.261 Q105.593 383.65 103.256 381.544 Q100.918 379.437 96.913 379.437 Q95.038 379.437 93.163 379.854 Q91.3112 380.27 89.3667 381.15 L89.3667 363.789 Z" fill="#000000" fill-rule="evenodd" fill-opacity="1" /><path clip-path="url(#clip510)" d="M119.482 392.469 L124.367 392.469 L124.367 398.349 L119.482 398.349 L119.482 392.469 Z" fill="#000000" fill-rule="evenodd" fill-opacity="1" /><path clip-path="url(#clip510)" d="M144.552 366.868 Q140.941 366.868 139.112 370.432 Q137.306 373.974 137.306 381.104 Q137.306 388.21 139.112 391.775 Q140.941 395.317 144.552 395.317 Q148.186 395.317 149.991 391.775 Q151.82 388.21 151.82 381.104 Q151.82 373.974 149.991 370.432 Q148.186 366.868 144.552 366.868 M144.552 363.164 Q150.362 363.164 153.417 367.77 Q156.496 372.354 156.496 381.104 Q156.496 389.831 153.417 394.437 Q150.362 399.02 144.552 399.02 Q138.741 399.02 135.663 394.437 Q132.607 389.831 132.607 381.104 Q132.607 372.354 135.663 367.77 Q138.741 363.164 144.552 363.164 Z" fill="#000000" fill-rule="evenodd" fill-opacity="1" /><polyline clip-path="url(#clip512)" style="stroke:#009af9; stroke-linecap:butt; stroke-linejoin:round; stroke-width:4; stroke-opacity:1; fill:none" points="
  265.984,1751.15 269.737,1735.15 273.489,1719.36 277.242,1703.78 280.995,1688.42 298.344,1620.09 315.694,1556.06 333.043,1496.11 350.393,1440.06 367.742,1387.73 
  385.092,1338.94 402.441,1293.52 419.791,1251.3 430.217,1227.4 440.643,1204.56 451.07,1182.75 461.496,1161.94 482.349,1123.18 503.201,1088.04 520.832,1060.98 
  538.463,1036.2 556.093,1013.56 573.724,992.942 592.876,972.697 612.028,954.544 631.179,938.342 650.331,923.955 667.988,912.188 685.644,901.757 703.3,892.571 
  720.956,884.54 739.886,877.121 758.815,870.837 777.745,865.597 796.674,861.312 818.606,857.436 840.537,854.614 862.469,852.734 884.4,851.693 923.381,851.622 
  962.361,853.428 996.543,856.232 1030.73,859.929 1105.26,870.172 1180.24,882.272 1263.14,896.568 1342.01,910.454 1424.03,924.937 1493.06,937.129 1577.35,951.966 
  1654.56,965.285 1725.87,976.866 1798.11,987.031 1838.59,991.555 1879.07,994.846 1915.75,996.437 1952.43,996.352 1994.42,993.681 2036.42,987.594 2055.86,983.401 
  2075.3,978.218 2094.74,971.951 2114.19,964.502 2133.35,955.898 2152.52,945.937 2171.69,934.505 2190.86,921.485 2209.47,907.206 2228.08,891.194 2246.69,873.322 
  2265.3,853.46 2284.37,830.888 2303.45,805.927 2322.53,778.413 2341.61,748.178 2362.51,711.72 2383.41,671.543 2393.86,649.982 2404.31,627.395 2414.77,603.749 
  2425.22,579.011 2440.4,541.057 2455.58,500.614 2470.76,457.569 2485.94,411.808 2501.13,363.21 2516.31,311.653 2531.49,257.01 2546.67,199.152 2552.9,174.451 
  2559.13,149.177 2565.36,123.321 2571.59,96.8724 
  "/>
<path clip-path="url(#clip510)" d="
M2235.31 209.375 L2559.29 209.375 L2559.29 105.695 L2235.31 105.695  Z
  " fill="#ffffff" fill-rule="evenodd" fill-opacity="1"/>
<polyline clip-path="url(#clip510)" style="stroke:#000000; stroke-linecap:butt; stroke-linejoin:round; stroke-width:4; stroke-opacity:1; fill:none" points="
  2235.31,209.375 2559.29,209.375 2559.29,105.695 2235.31,105.695 2235.31,209.375 
  "/>
<polyline clip-path="url(#clip510)" style="stroke:#009af9; stroke-linecap:butt; stroke-linejoin:round; stroke-width:4; stroke-opacity:1; fill:none" points="
  2262.47,157.535 2425.4,157.535 
  "/>
<path clip-path="url(#clip510)" d="M2466.39 177.223 Q2464.59 181.852 2462.88 183.264 Q2461.16 184.676 2458.29 184.676 L2454.89 184.676 L2454.89 181.112 L2457.39 181.112 Q2459.15 181.112 2460.12 180.278 Q2461.09 179.445 2462.27 176.343 L2463.04 174.399 L2452.55 148.889 L2457.07 148.889 L2465.17 169.167 L2473.27 148.889 L2477.78 148.889 L2466.39 177.223 Z" fill="#000000" fill-rule="evenodd" fill-opacity="1" /><path clip-path="url(#clip510)" d="M2485.07 170.88 L2492.71 170.88 L2492.71 144.515 L2484.4 146.181 L2484.4 141.922 L2492.67 140.255 L2497.34 140.255 L2497.34 170.88 L2504.98 170.88 L2504.98 174.815 L2485.07 174.815 L2485.07 170.88 Z" fill="#000000" fill-rule="evenodd" fill-opacity="1" /></svg>
