<?xml version="1.0" encoding="utf-8"?>
<svg xmlns="http://www.w3.org/2000/svg" xmlns:xlink="http://www.w3.org/1999/xlink" width="672" height="480" viewBox="0 0 2688 1920">
<defs>
  <clipPath id="clip760">
    <rect x="0" y="0" width="2688" height="1920"/>
  </clipPath>
</defs>
<path clip-path="url(#clip760)" d="
M0 1920 L2688 1920 L2688 0 L0 0  Z
  " fill="#ffffff" fill-rule="evenodd" fill-opacity="1"/>
<defs>
  <clipPath id="clip761">
    <rect x="537" y="0" width="1883" height="1883"/>
  </clipPath>
</defs>
<path clip-path="url(#clip760)" d="
M180.751 1800.78 L2640.76 1800.78 L2640.76 47.2441 L180.751 47.2441  Z
  " fill="#ffffff" fill-rule="evenodd" fill-opacity="1"/>
<defs>
  <clipPath id="clip762">
    <rect x="180" y="47" width="2461" height="1755"/>
  </clipPath>
</defs>
<polyline clip-path="url(#clip762)" style="stroke:#000000; stroke-linecap:butt; stroke-linejoin:round; stroke-width:2; stroke-opacity:0.1; fill:none" points="
  250.374,1800.78 250.374,47.2441 
  "/>
<polyline clip-path="url(#clip762)" style="stroke:#000000; stroke-linecap:butt; stroke-linejoin:round; stroke-width:2; stroke-opacity:0.1; fill:none" points="
  621.695,1800.78 621.695,47.2441 
  "/>
<polyline clip-path="url(#clip762)" style="stroke:#000000; stroke-linecap:butt; stroke-linejoin:round; stroke-width:2; stroke-opacity:0.1; fill:none" points="
  993.017,1800.78 993.017,47.2441 
  "/>
<polyline clip-path="url(#clip762)" style="stroke:#000000; stroke-linecap:butt; stroke-linejoin:round; stroke-width:2; stroke-opacity:0.1; fill:none" points="
  1364.34,1800.78 1364.34,47.2441 
  "/>
<polyline clip-path="url(#clip762)" style="stroke:#000000; stroke-linecap:butt; stroke-linejoin:round; stroke-width:2; stroke-opacity:0.1; fill:none" points="
  1735.66,1800.78 1735.66,47.2441 
  "/>
<polyline clip-path="url(#clip762)" style="stroke:#000000; stroke-linecap:butt; stroke-linejoin:round; stroke-width:2; stroke-opacity:0.1; fill:none" points="
  2106.98,1800.78 2106.98,47.2441 
  "/>
<polyline clip-path="url(#clip762)" style="stroke:#000000; stroke-linecap:butt; stroke-linejoin:round; stroke-width:2; stroke-opacity:0.1; fill:none" points="
  2478.3,1800.78 2478.3,47.2441 
  "/>
<polyline clip-path="url(#clip760)" style="stroke:#000000; stroke-linecap:butt; stroke-linejoin:round; stroke-width:4; stroke-opacity:1; fill:none" points="
  180.751,1800.78 2640.76,1800.78 
  "/>
<polyline clip-path="url(#clip760)" style="stroke:#000000; stroke-linecap:butt; stroke-linejoin:round; stroke-width:4; stroke-opacity:1; fill:none" points="
  250.374,1800.78 250.374,1781.88 
  "/>
<polyline clip-path="url(#clip760)" style="stroke:#000000; stroke-linecap:butt; stroke-linejoin:round; stroke-width:4; stroke-opacity:1; fill:none" points="
  621.695,1800.78 621.695,1781.88 
  "/>
<polyline clip-path="url(#clip760)" style="stroke:#000000; stroke-linecap:butt; stroke-linejoin:round; stroke-width:4; stroke-opacity:1; fill:none" points="
  993.017,1800.78 993.017,1781.88 
  "/>
<polyline clip-path="url(#clip760)" style="stroke:#000000; stroke-linecap:butt; stroke-linejoin:round; stroke-width:4; stroke-opacity:1; fill:none" points="
  1364.34,1800.78 1364.34,1781.88 
  "/>
<polyline clip-path="url(#clip760)" style="stroke:#000000; stroke-linecap:butt; stroke-linejoin:round; stroke-width:4; stroke-opacity:1; fill:none" points="
  1735.66,1800.78 1735.66,1781.88 
  "/>
<polyline clip-path="url(#clip760)" style="stroke:#000000; stroke-linecap:butt; stroke-linejoin:round; stroke-width:4; stroke-opacity:1; fill:none" points="
  2106.98,1800.78 2106.98,1781.88 
  "/>
<polyline clip-path="url(#clip760)" style="stroke:#000000; stroke-linecap:butt; stroke-linejoin:round; stroke-width:4; stroke-opacity:1; fill:none" points="
  2478.3,1800.78 2478.3,1781.88 
  "/>
<path clip-path="url(#clip760)" d="M250.374 1834 Q246.763 1834 244.934 1837.57 Q243.129 1841.11 243.129 1848.24 Q243.129 1855.34 244.934 1858.91 Q246.763 1862.45 250.374 1862.45 Q254.008 1862.45 255.814 1858.91 Q257.643 1855.34 257.643 1848.24 Q257.643 1841.11 255.814 1837.57 Q254.008 1834 250.374 1834 M250.374 1830.3 Q256.184 1830.3 259.24 1834.9 Q262.318 1839.49 262.318 1848.24 Q262.318 1856.96 259.24 1861.57 Q256.184 1866.15 250.374 1866.15 Q244.564 1866.15 241.485 1861.57 Q238.43 1856.96 238.43 1848.24 Q238.43 1839.49 241.485 1834.9 Q244.564 1830.3 250.374 1830.3 Z" fill="#000000" fill-rule="evenodd" fill-opacity="1" /><path clip-path="url(#clip760)" d="M585.388 1861.55 L601.707 1861.55 L601.707 1865.48 L579.763 1865.48 L579.763 1861.55 Q582.425 1858.79 587.008 1854.16 Q591.615 1849.51 592.795 1848.17 Q595.041 1845.65 595.92 1843.91 Q596.823 1842.15 596.823 1840.46 Q596.823 1837.71 594.879 1835.97 Q592.957 1834.23 589.855 1834.23 Q587.656 1834.23 585.203 1835 Q582.772 1835.76 579.994 1837.31 L579.994 1832.59 Q582.818 1831.46 585.272 1830.88 Q587.726 1830.3 589.763 1830.3 Q595.133 1830.3 598.328 1832.98 Q601.522 1835.67 601.522 1840.16 Q601.522 1842.29 600.712 1844.21 Q599.925 1846.11 597.818 1848.7 Q597.24 1849.37 594.138 1852.59 Q591.036 1855.78 585.388 1861.55 Z" fill="#000000" fill-rule="evenodd" fill-opacity="1" /><path clip-path="url(#clip760)" d="M621.522 1834 Q617.911 1834 616.082 1837.57 Q614.277 1841.11 614.277 1848.24 Q614.277 1855.34 616.082 1858.91 Q617.911 1862.45 621.522 1862.45 Q625.156 1862.45 626.962 1858.91 Q628.79 1855.34 628.79 1848.24 Q628.79 1841.11 626.962 1837.57 Q625.156 1834 621.522 1834 M621.522 1830.3 Q627.332 1830.3 630.388 1834.9 Q633.466 1839.49 633.466 1848.24 Q633.466 1856.96 630.388 1861.57 Q627.332 1866.15 621.522 1866.15 Q615.712 1866.15 612.633 1861.57 Q609.578 1856.96 609.578 1848.24 Q609.578 1839.49 612.633 1834.9 Q615.712 1830.3 621.522 1830.3 Z" fill="#000000" fill-rule="evenodd" fill-opacity="1" /><path clip-path="url(#clip760)" d="M651.684 1834 Q648.073 1834 646.244 1837.57 Q644.438 1841.11 644.438 1848.24 Q644.438 1855.34 646.244 1858.91 Q648.073 1862.45 651.684 1862.45 Q655.318 1862.45 657.124 1858.91 Q658.952 1855.34 658.952 1848.24 Q658.952 1841.11 657.124 1837.57 Q655.318 1834 651.684 1834 M651.684 1830.3 Q657.494 1830.3 660.549 1834.9 Q663.628 1839.49 663.628 1848.24 Q663.628 1856.96 660.549 1861.57 Q657.494 1866.15 651.684 1866.15 Q645.874 1866.15 642.795 1861.57 Q639.739 1856.96 639.739 1848.24 Q639.739 1839.49 642.795 1834.9 Q645.874 1830.3 651.684 1830.3 Z" fill="#000000" fill-rule="evenodd" fill-opacity="1" /><path clip-path="url(#clip760)" d="M966.107 1835 L954.302 1853.45 L966.107 1853.45 L966.107 1835 M964.881 1830.92 L970.76 1830.92 L970.76 1853.45 L975.691 1853.45 L975.691 1857.34 L970.76 1857.34 L970.76 1865.48 L966.107 1865.48 L966.107 1857.34 L950.506 1857.34 L950.506 1852.82 L964.881 1830.92 Z" fill="#000000" fill-rule="evenodd" fill-opacity="1" /><path clip-path="url(#clip760)" d="M993.422 1834 Q989.811 1834 987.982 1837.57 Q986.177 1841.11 986.177 1848.24 Q986.177 1855.34 987.982 1858.91 Q989.811 1862.45 993.422 1862.45 Q997.056 1862.45 998.862 1858.91 Q1000.69 1855.34 1000.69 1848.24 Q1000.69 1841.11 998.862 1837.57 Q997.056 1834 993.422 1834 M993.422 1830.3 Q999.232 1830.3 1002.29 1834.9 Q1005.37 1839.49 1005.37 1848.24 Q1005.37 1856.96 1002.29 1861.57 Q999.232 1866.15 993.422 1866.15 Q987.612 1866.15 984.533 1861.57 Q981.478 1856.96 981.478 1848.24 Q981.478 1839.49 984.533 1834.9 Q987.612 1830.3 993.422 1830.3 Z" fill="#000000" fill-rule="evenodd" fill-opacity="1" /><path clip-path="url(#clip760)" d="M1023.58 1834 Q1019.97 1834 1018.14 1837.57 Q1016.34 1841.11 1016.34 1848.24 Q1016.34 1855.34 1018.14 1858.91 Q1019.97 1862.45 1023.58 1862.45 Q1027.22 1862.45 1029.02 1858.91 Q1030.85 1855.34 1030.85 1848.24 Q1030.85 1841.11 1029.02 1837.57 Q1027.22 1834 1023.58 1834 M1023.58 1830.3 Q1029.39 1830.3 1032.45 1834.9 Q1035.53 1839.49 1035.53 1848.24 Q1035.53 1856.96 1032.45 1861.57 Q1029.39 1866.15 1023.58 1866.15 Q1017.77 1866.15 1014.7 1861.57 Q1011.64 1856.96 1011.64 1848.24 Q1011.64 1839.49 1014.7 1834.9 Q1017.77 1830.3 1023.58 1830.3 Z" fill="#000000" fill-rule="evenodd" fill-opacity="1" /><path clip-path="url(#clip760)" d="M1334.66 1846.34 Q1331.51 1846.34 1329.66 1848.49 Q1327.83 1850.65 1327.83 1854.4 Q1327.83 1858.12 1329.66 1860.3 Q1331.51 1862.45 1334.66 1862.45 Q1337.81 1862.45 1339.64 1860.3 Q1341.49 1858.12 1341.49 1854.4 Q1341.49 1850.65 1339.64 1848.49 Q1337.81 1846.34 1334.66 1846.34 M1343.94 1831.69 L1343.94 1835.95 Q1342.19 1835.11 1340.38 1834.67 Q1338.6 1834.23 1336.84 1834.23 Q1332.21 1834.23 1329.76 1837.36 Q1327.32 1840.48 1326.98 1846.8 Q1328.34 1844.79 1330.4 1843.72 Q1332.46 1842.64 1334.94 1842.64 Q1340.15 1842.64 1343.16 1845.81 Q1346.19 1848.96 1346.19 1854.4 Q1346.19 1859.72 1343.04 1862.94 Q1339.89 1866.15 1334.66 1866.15 Q1328.67 1866.15 1325.5 1861.57 Q1322.32 1856.96 1322.32 1848.24 Q1322.32 1840.04 1326.21 1835.18 Q1330.1 1830.3 1336.65 1830.3 Q1338.41 1830.3 1340.2 1830.65 Q1342 1830.99 1343.94 1831.69 Z" fill="#000000" fill-rule="evenodd" fill-opacity="1" /><path clip-path="url(#clip760)" d="M1364.25 1834 Q1360.63 1834 1358.81 1837.57 Q1357 1841.11 1357 1848.24 Q1357 1855.34 1358.81 1858.91 Q1360.63 1862.45 1364.25 1862.45 Q1367.88 1862.45 1369.69 1858.91 Q1371.51 1855.34 1371.51 1848.24 Q1371.51 1841.11 1369.69 1837.57 Q1367.88 1834 1364.25 1834 M1364.25 1830.3 Q1370.06 1830.3 1373.11 1834.9 Q1376.19 1839.49 1376.19 1848.24 Q1376.19 1856.96 1373.11 1861.57 Q1370.06 1866.15 1364.25 1866.15 Q1358.44 1866.15 1355.36 1861.57 Q1352.3 1856.96 1352.3 1848.24 Q1352.3 1839.49 1355.36 1834.9 Q1358.44 1830.3 1364.25 1830.3 Z" fill="#000000" fill-rule="evenodd" fill-opacity="1" /><path clip-path="url(#clip760)" d="M1394.41 1834 Q1390.8 1834 1388.97 1837.57 Q1387.16 1841.11 1387.16 1848.24 Q1387.16 1855.34 1388.97 1858.91 Q1390.8 1862.45 1394.41 1862.45 Q1398.04 1862.45 1399.85 1858.91 Q1401.68 1855.34 1401.68 1848.24 Q1401.68 1841.11 1399.85 1837.57 Q1398.04 1834 1394.41 1834 M1394.41 1830.3 Q1400.22 1830.3 1403.27 1834.9 Q1406.35 1839.49 1406.35 1848.24 Q1406.35 1856.96 1403.27 1861.57 Q1400.22 1866.15 1394.41 1866.15 Q1388.6 1866.15 1385.52 1861.57 Q1382.46 1856.96 1382.46 1848.24 Q1382.46 1839.49 1385.52 1834.9 Q1388.6 1830.3 1394.41 1830.3 Z" fill="#000000" fill-rule="evenodd" fill-opacity="1" /><path clip-path="url(#clip760)" d="M1705.45 1849.07 Q1702.12 1849.07 1700.2 1850.85 Q1698.3 1852.64 1698.3 1855.76 Q1698.3 1858.89 1700.2 1860.67 Q1702.12 1862.45 1705.45 1862.45 Q1708.79 1862.45 1710.71 1860.67 Q1712.63 1858.86 1712.63 1855.76 Q1712.63 1852.64 1710.71 1850.85 Q1708.81 1849.07 1705.45 1849.07 M1700.78 1847.08 Q1697.77 1846.34 1696.08 1844.28 Q1694.41 1842.22 1694.41 1839.26 Q1694.41 1835.11 1697.35 1832.71 Q1700.31 1830.3 1705.45 1830.3 Q1710.61 1830.3 1713.55 1832.71 Q1716.49 1835.11 1716.49 1839.26 Q1716.49 1842.22 1714.8 1844.28 Q1713.14 1846.34 1710.15 1847.08 Q1713.53 1847.87 1715.41 1850.16 Q1717.3 1852.45 1717.3 1855.76 Q1717.3 1860.78 1714.22 1863.47 Q1711.17 1866.15 1705.45 1866.15 Q1699.73 1866.15 1696.66 1863.47 Q1693.6 1860.78 1693.6 1855.76 Q1693.6 1852.45 1695.5 1850.16 Q1697.4 1847.87 1700.78 1847.08 M1699.06 1839.7 Q1699.06 1842.38 1700.73 1843.89 Q1702.42 1845.39 1705.45 1845.39 Q1708.46 1845.39 1710.15 1843.89 Q1711.86 1842.38 1711.86 1839.7 Q1711.86 1837.01 1710.15 1835.51 Q1708.46 1834 1705.45 1834 Q1702.42 1834 1700.73 1835.51 Q1699.06 1837.01 1699.06 1839.7 Z" fill="#000000" fill-rule="evenodd" fill-opacity="1" /><path clip-path="url(#clip760)" d="M1735.61 1834 Q1732 1834 1730.17 1837.57 Q1728.37 1841.11 1728.37 1848.24 Q1728.37 1855.34 1730.17 1858.91 Q1732 1862.45 1735.61 1862.45 Q1739.25 1862.45 1741.05 1858.91 Q1742.88 1855.34 1742.88 1848.24 Q1742.88 1841.11 1741.05 1837.57 Q1739.25 1834 1735.61 1834 M1735.61 1830.3 Q1741.42 1830.3 1744.48 1834.9 Q1747.56 1839.49 1747.56 1848.24 Q1747.56 1856.96 1744.48 1861.57 Q1741.42 1866.15 1735.61 1866.15 Q1729.8 1866.15 1726.72 1861.57 Q1723.67 1856.96 1723.67 1848.24 Q1723.67 1839.49 1726.72 1834.9 Q1729.8 1830.3 1735.61 1830.3 Z" fill="#000000" fill-rule="evenodd" fill-opacity="1" /><path clip-path="url(#clip760)" d="M1765.78 1834 Q1762.16 1834 1760.34 1837.57 Q1758.53 1841.11 1758.53 1848.24 Q1758.53 1855.34 1760.34 1858.91 Q1762.16 1862.45 1765.78 1862.45 Q1769.41 1862.45 1771.22 1858.91 Q1773.04 1855.34 1773.04 1848.24 Q1773.04 1841.11 1771.22 1837.57 Q1769.41 1834 1765.78 1834 M1765.78 1830.3 Q1771.59 1830.3 1774.64 1834.9 Q1777.72 1839.49 1777.72 1848.24 Q1777.72 1856.96 1774.64 1861.57 Q1771.59 1866.15 1765.78 1866.15 Q1759.97 1866.15 1756.89 1861.57 Q1753.83 1856.96 1753.83 1848.24 Q1753.83 1839.49 1756.89 1834.9 Q1759.97 1830.3 1765.78 1830.3 Z" fill="#000000" fill-rule="evenodd" fill-opacity="1" /><path clip-path="url(#clip760)" d="M2051.51 1861.55 L2059.15 1861.55 L2059.15 1835.18 L2050.84 1836.85 L2050.84 1832.59 L2059.1 1830.92 L2063.78 1830.92 L2063.78 1861.55 L2071.41 1861.55 L2071.41 1865.48 L2051.51 1865.48 L2051.51 1861.55 Z" fill="#000000" fill-rule="evenodd" fill-opacity="1" /><path clip-path="url(#clip760)" d="M2090.86 1834 Q2087.25 1834 2085.42 1837.57 Q2083.61 1841.11 2083.61 1848.24 Q2083.61 1855.34 2085.42 1858.91 Q2087.25 1862.45 2090.86 1862.45 Q2094.49 1862.45 2096.3 1858.91 Q2098.13 1855.34 2098.13 1848.24 Q2098.13 1841.11 2096.3 1837.57 Q2094.49 1834 2090.86 1834 M2090.86 1830.3 Q2096.67 1830.3 2099.72 1834.9 Q2102.8 1839.49 2102.8 1848.24 Q2102.8 1856.96 2099.72 1861.57 Q2096.67 1866.15 2090.86 1866.15 Q2085.05 1866.15 2081.97 1861.57 Q2078.91 1856.96 2078.91 1848.24 Q2078.91 1839.49 2081.97 1834.9 Q2085.05 1830.3 2090.86 1830.3 Z" fill="#000000" fill-rule="evenodd" fill-opacity="1" /><path clip-path="url(#clip760)" d="M2121.02 1834 Q2117.41 1834 2115.58 1837.57 Q2113.78 1841.11 2113.78 1848.24 Q2113.78 1855.34 2115.58 1858.91 Q2117.41 1862.45 2121.02 1862.45 Q2124.65 1862.45 2126.46 1858.91 Q2128.29 1855.34 2128.29 1848.24 Q2128.29 1841.11 2126.46 1837.57 Q2124.65 1834 2121.02 1834 M2121.02 1830.3 Q2126.83 1830.3 2129.89 1834.9 Q2132.96 1839.49 2132.96 1848.24 Q2132.96 1856.96 2129.89 1861.57 Q2126.83 1866.15 2121.02 1866.15 Q2115.21 1866.15 2112.13 1861.57 Q2109.08 1856.96 2109.08 1848.24 Q2109.08 1839.49 2112.13 1834.9 Q2115.21 1830.3 2121.02 1830.3 Z" fill="#000000" fill-rule="evenodd" fill-opacity="1" /><path clip-path="url(#clip760)" d="M2151.18 1834 Q2147.57 1834 2145.74 1837.57 Q2143.94 1841.11 2143.94 1848.24 Q2143.94 1855.34 2145.74 1858.91 Q2147.57 1862.45 2151.18 1862.45 Q2154.82 1862.45 2156.62 1858.91 Q2158.45 1855.34 2158.45 1848.24 Q2158.45 1841.11 2156.62 1837.57 Q2154.82 1834 2151.18 1834 M2151.18 1830.3 Q2156.99 1830.3 2160.05 1834.9 Q2163.13 1839.49 2163.13 1848.24 Q2163.13 1856.96 2160.05 1861.57 Q2156.99 1866.15 2151.18 1866.15 Q2145.37 1866.15 2142.29 1861.57 Q2139.24 1856.96 2139.24 1848.24 Q2139.24 1839.49 2142.29 1834.9 Q2145.37 1830.3 2151.18 1830.3 Z" fill="#000000" fill-rule="evenodd" fill-opacity="1" /><path clip-path="url(#clip760)" d="M2422.83 1861.55 L2430.47 1861.55 L2430.47 1835.18 L2422.16 1836.85 L2422.16 1832.59 L2430.42 1830.92 L2435.1 1830.92 L2435.1 1861.55 L2442.74 1861.55 L2442.74 1865.48 L2422.83 1865.48 L2422.83 1861.55 Z" fill="#000000" fill-rule="evenodd" fill-opacity="1" /><path clip-path="url(#clip760)" d="M2456.21 1861.55 L2472.53 1861.55 L2472.53 1865.48 L2450.58 1865.48 L2450.58 1861.55 Q2453.25 1858.79 2457.83 1854.16 Q2462.43 1849.51 2463.62 1848.17 Q2465.86 1845.65 2466.74 1843.91 Q2467.64 1842.15 2467.64 1840.46 Q2467.64 1837.71 2465.7 1835.97 Q2463.78 1834.23 2460.68 1834.23 Q2458.48 1834.23 2456.02 1835 Q2453.59 1835.76 2450.81 1837.31 L2450.81 1832.59 Q2453.64 1831.46 2456.09 1830.88 Q2458.55 1830.3 2460.58 1830.3 Q2465.95 1830.3 2469.15 1832.98 Q2472.34 1835.67 2472.34 1840.16 Q2472.34 1842.29 2471.53 1844.21 Q2470.74 1846.11 2468.64 1848.7 Q2468.06 1849.37 2464.96 1852.59 Q2461.86 1855.78 2456.21 1861.55 Z" fill="#000000" fill-rule="evenodd" fill-opacity="1" /><path clip-path="url(#clip760)" d="M2492.34 1834 Q2488.73 1834 2486.9 1837.57 Q2485.1 1841.11 2485.1 1848.24 Q2485.1 1855.34 2486.9 1858.91 Q2488.73 1862.45 2492.34 1862.45 Q2495.98 1862.45 2497.78 1858.91 Q2499.61 1855.34 2499.61 1848.24 Q2499.61 1841.11 2497.78 1837.57 Q2495.98 1834 2492.34 1834 M2492.34 1830.3 Q2498.15 1830.3 2501.21 1834.9 Q2504.29 1839.49 2504.29 1848.24 Q2504.29 1856.96 2501.21 1861.57 Q2498.15 1866.15 2492.34 1866.15 Q2486.53 1866.15 2483.45 1861.57 Q2480.4 1856.96 2480.4 1848.24 Q2480.4 1839.49 2483.45 1834.9 Q2486.53 1830.3 2492.34 1830.3 Z" fill="#000000" fill-rule="evenodd" fill-opacity="1" /><path clip-path="url(#clip760)" d="M2522.5 1834 Q2518.89 1834 2517.06 1837.57 Q2515.26 1841.11 2515.26 1848.24 Q2515.26 1855.34 2517.06 1858.91 Q2518.89 1862.45 2522.5 1862.45 Q2526.14 1862.45 2527.94 1858.91 Q2529.77 1855.34 2529.77 1848.24 Q2529.77 1841.11 2527.94 1837.57 Q2526.14 1834 2522.5 1834 M2522.5 1830.3 Q2528.31 1830.3 2531.37 1834.9 Q2534.45 1839.49 2534.45 1848.24 Q2534.45 1856.96 2531.37 1861.57 Q2528.31 1866.15 2522.5 1866.15 Q2516.69 1866.15 2513.62 1861.57 Q2510.56 1856.96 2510.56 1848.24 Q2510.56 1839.49 2513.62 1834.9 Q2516.69 1830.3 2522.5 1830.3 Z" fill="#000000" fill-rule="evenodd" fill-opacity="1" /><polyline clip-path="url(#clip762)" style="stroke:#000000; stroke-linecap:butt; stroke-linejoin:round; stroke-width:2; stroke-opacity:0.1; fill:none" points="
  180.751,1712.84 2640.76,1712.84 
  "/>
<polyline clip-path="url(#clip762)" style="stroke:#000000; stroke-linecap:butt; stroke-linejoin:round; stroke-width:2; stroke-opacity:0.1; fill:none" points="
  180.751,1353.21 2640.76,1353.21 
  "/>
<polyline clip-path="url(#clip762)" style="stroke:#000000; stroke-linecap:butt; stroke-linejoin:round; stroke-width:2; stroke-opacity:0.1; fill:none" points="
  180.751,993.573 2640.76,993.573 
  "/>
<polyline clip-path="url(#clip762)" style="stroke:#000000; stroke-linecap:butt; stroke-linejoin:round; stroke-width:2; stroke-opacity:0.1; fill:none" points="
  180.751,633.938 2640.76,633.938 
  "/>
<polyline clip-path="url(#clip762)" style="stroke:#000000; stroke-linecap:butt; stroke-linejoin:round; stroke-width:2; stroke-opacity:0.1; fill:none" points="
  180.751,274.304 2640.76,274.304 
  "/>
<polyline clip-path="url(#clip760)" style="stroke:#000000; stroke-linecap:butt; stroke-linejoin:round; stroke-width:4; stroke-opacity:1; fill:none" points="
  180.751,1800.78 180.751,47.2441 
  "/>
<polyline clip-path="url(#clip760)" style="stroke:#000000; stroke-linecap:butt; stroke-linejoin:round; stroke-width:4; stroke-opacity:1; fill:none" points="
  180.751,1712.84 199.649,1712.84 
  "/>
<polyline clip-path="url(#clip760)" style="stroke:#000000; stroke-linecap:butt; stroke-linejoin:round; stroke-width:4; stroke-opacity:1; fill:none" points="
  180.751,1353.21 199.649,1353.21 
  "/>
<polyline clip-path="url(#clip760)" style="stroke:#000000; stroke-linecap:butt; stroke-linejoin:round; stroke-width:4; stroke-opacity:1; fill:none" points="
  180.751,993.573 199.649,993.573 
  "/>
<polyline clip-path="url(#clip760)" style="stroke:#000000; stroke-linecap:butt; stroke-linejoin:round; stroke-width:4; stroke-opacity:1; fill:none" points="
  180.751,633.938 199.649,633.938 
  "/>
<polyline clip-path="url(#clip760)" style="stroke:#000000; stroke-linecap:butt; stroke-linejoin:round; stroke-width:4; stroke-opacity:1; fill:none" points="
  180.751,274.304 199.649,274.304 
  "/>
<path clip-path="url(#clip760)" d="M49.5521 1713.29 L79.2279 1713.29 L79.2279 1717.23 L49.5521 1717.23 L49.5521 1713.29 Z" fill="#000000" fill-rule="evenodd" fill-opacity="1" /><path clip-path="url(#clip760)" d="M93.3482 1726.19 L109.668 1726.19 L109.668 1730.12 L87.7232 1730.12 L87.7232 1726.19 Q90.3852 1723.43 94.9685 1718.8 Q99.575 1714.15 100.756 1712.81 Q103.001 1710.28 103.881 1708.55 Q104.783 1706.79 104.783 1705.1 Q104.783 1702.34 102.839 1700.61 Q100.918 1698.87 97.8158 1698.87 Q95.6167 1698.87 93.163 1699.64 Q90.7325 1700.4 87.9547 1701.95 L87.9547 1697.23 Q90.7788 1696.09 93.2324 1695.52 Q95.6861 1694.94 97.7232 1694.94 Q103.094 1694.94 106.288 1697.62 Q109.482 1700.31 109.482 1704.8 Q109.482 1706.93 108.672 1708.85 Q107.885 1710.75 105.779 1713.34 Q105.2 1714.01 102.098 1717.23 Q98.9963 1720.42 93.3482 1726.19 Z" fill="#000000" fill-rule="evenodd" fill-opacity="1" /><path clip-path="url(#clip760)" d="M119.529 1695.56 L137.885 1695.56 L137.885 1699.5 L123.811 1699.5 L123.811 1707.97 Q124.83 1707.62 125.848 1707.46 Q126.867 1707.27 127.885 1707.27 Q133.672 1707.27 137.052 1710.45 Q140.431 1713.62 140.431 1719.03 Q140.431 1724.61 136.959 1727.71 Q133.487 1730.79 127.167 1730.79 Q124.992 1730.79 122.723 1730.42 Q120.478 1730.05 118.07 1729.31 L118.07 1724.61 Q120.154 1725.75 122.376 1726.3 Q124.598 1726.86 127.075 1726.86 Q131.079 1726.86 133.417 1724.75 Q135.755 1722.64 135.755 1719.03 Q135.755 1715.42 133.417 1713.32 Q131.079 1711.21 127.075 1711.21 Q125.2 1711.21 123.325 1711.63 Q121.473 1712.04 119.529 1712.92 L119.529 1695.56 Z" fill="#000000" fill-rule="evenodd" fill-opacity="1" /><path clip-path="url(#clip760)" d="M128.487 1339.01 Q124.876 1339.01 123.047 1342.57 Q121.242 1346.11 121.242 1353.24 Q121.242 1360.35 123.047 1363.91 Q124.876 1367.45 128.487 1367.45 Q132.121 1367.45 133.927 1363.91 Q135.755 1360.35 135.755 1353.24 Q135.755 1346.11 133.927 1342.57 Q132.121 1339.01 128.487 1339.01 M128.487 1335.3 Q134.297 1335.3 137.353 1339.91 Q140.431 1344.49 140.431 1353.24 Q140.431 1361.97 137.353 1366.58 Q134.297 1371.16 128.487 1371.16 Q122.677 1371.16 119.598 1366.58 Q116.543 1361.97 116.543 1353.24 Q116.543 1344.49 119.598 1339.91 Q122.677 1335.3 128.487 1335.3 Z" fill="#000000" fill-rule="evenodd" fill-opacity="1" /><path clip-path="url(#clip760)" d="M93.3482 1006.92 L109.668 1006.92 L109.668 1010.85 L87.7232 1010.85 L87.7232 1006.92 Q90.3852 1004.16 94.9685 999.533 Q99.575 994.88 100.756 993.538 Q103.001 991.015 103.881 989.279 Q104.783 987.519 104.783 985.83 Q104.783 983.075 102.839 981.339 Q100.918 979.603 97.8158 979.603 Q95.6167 979.603 93.163 980.367 Q90.7325 981.131 87.9547 982.681 L87.9547 977.959 Q90.7788 976.825 93.2324 976.246 Q95.6861 975.668 97.7232 975.668 Q103.094 975.668 106.288 978.353 Q109.482 981.038 109.482 985.529 Q109.482 987.658 108.672 989.58 Q107.885 991.478 105.779 994.07 Q105.2 994.742 102.098 997.959 Q98.9963 1001.15 93.3482 1006.92 Z" fill="#000000" fill-rule="evenodd" fill-opacity="1" /><path clip-path="url(#clip760)" d="M119.529 976.293 L137.885 976.293 L137.885 980.228 L123.811 980.228 L123.811 988.7 Q124.83 988.353 125.848 988.191 Q126.867 988.005 127.885 988.005 Q133.672 988.005 137.052 991.177 Q140.431 994.348 140.431 999.765 Q140.431 1005.34 136.959 1008.45 Q133.487 1011.52 127.167 1011.52 Q124.992 1011.52 122.723 1011.15 Q120.478 1010.78 118.07 1010.04 L118.07 1005.34 Q120.154 1006.48 122.376 1007.03 Q124.598 1007.59 127.075 1007.59 Q131.079 1007.59 133.417 1005.48 Q135.755 1003.38 135.755 999.765 Q135.755 996.154 133.417 994.047 Q131.079 991.941 127.075 991.941 Q125.2 991.941 123.325 992.357 Q121.473 992.774 119.529 993.654 L119.529 976.293 Z" fill="#000000" fill-rule="evenodd" fill-opacity="1" /><path clip-path="url(#clip760)" d="M88.3714 616.658 L106.728 616.658 L106.728 620.593 L92.6537 620.593 L92.6537 629.065 Q93.6723 628.718 94.6908 628.556 Q95.7093 628.371 96.7278 628.371 Q102.515 628.371 105.894 631.542 Q109.274 634.714 109.274 640.13 Q109.274 645.709 105.802 648.811 Q102.33 651.889 96.0102 651.889 Q93.8343 651.889 91.5658 651.519 Q89.3204 651.149 86.913 650.408 L86.913 645.709 Q88.9964 646.843 91.2186 647.399 Q93.4408 647.954 95.9176 647.954 Q99.9222 647.954 102.26 645.848 Q104.598 643.741 104.598 640.13 Q104.598 636.519 102.26 634.413 Q99.9222 632.306 95.9176 632.306 Q94.0426 632.306 92.1676 632.723 Q90.3158 633.139 88.3714 634.019 L88.3714 616.658 Z" fill="#000000" fill-rule="evenodd" fill-opacity="1" /><path clip-path="url(#clip760)" d="M128.487 619.737 Q124.876 619.737 123.047 623.302 Q121.242 626.843 121.242 633.973 Q121.242 641.079 123.047 644.644 Q124.876 648.186 128.487 648.186 Q132.121 648.186 133.927 644.644 Q135.755 641.079 135.755 633.973 Q135.755 626.843 133.927 623.302 Q132.121 619.737 128.487 619.737 M128.487 616.033 Q134.297 616.033 137.353 620.64 Q140.431 625.223 140.431 633.973 Q140.431 642.7 137.353 647.306 Q134.297 651.889 128.487 651.889 Q122.677 651.889 119.598 647.306 Q116.543 642.7 116.543 633.973 Q116.543 625.223 119.598 620.64 Q122.677 616.033 128.487 616.033 Z" fill="#000000" fill-rule="evenodd" fill-opacity="1" /><path clip-path="url(#clip760)" d="M88.1399 257.024 L110.362 257.024 L110.362 259.014 L97.8158 291.584 L92.9315 291.584 L104.737 260.959 L88.1399 260.959 L88.1399 257.024 Z" fill="#000000" fill-rule="evenodd" fill-opacity="1" /><path clip-path="url(#clip760)" d="M119.529 257.024 L137.885 257.024 L137.885 260.959 L123.811 260.959 L123.811 269.431 Q124.83 269.084 125.848 268.922 Q126.867 268.737 127.885 268.737 Q133.672 268.737 137.052 271.908 Q140.431 275.079 140.431 280.496 Q140.431 286.074 136.959 289.176 Q133.487 292.255 127.167 292.255 Q124.992 292.255 122.723 291.885 Q120.478 291.514 118.07 290.773 L118.07 286.074 Q120.154 287.209 122.376 287.764 Q124.598 288.32 127.075 288.32 Q131.079 288.32 133.417 286.213 Q135.755 284.107 135.755 280.496 Q135.755 276.885 133.417 274.778 Q131.079 272.672 127.075 272.672 Q125.2 272.672 123.325 273.088 Q121.473 273.505 119.529 274.385 L119.529 257.024 Z" fill="#000000" fill-rule="evenodd" fill-opacity="1" /><polyline clip-path="url(#clip762)" style="stroke:#009af9; stroke-linecap:butt; stroke-linejoin:round; stroke-width:4; stroke-opacity:1; fill:none" points="
  250.374,1353.21 254.151,1323.99 257.929,1294.87 261.706,1265.85 265.483,1236.93 282.947,1104.69 300.411,975.114 309.142,911.462 317.874,848.656 326.606,786.774 
  335.338,725.903 344.069,666.146 352.801,607.622 361.533,550.469 370.265,494.849 378.996,440.956 387.728,389.024 396.46,339.337 405.192,292.243 410.439,265.368 
  415.687,239.702 420.934,215.377 426.181,192.552 431.429,171.415 436.676,152.189 441.924,135.148 447.171,120.628 449.795,114.44 452.419,109.047 455.042,104.521 
  457.666,100.94 460.29,98.3986 462.913,97.0015 465.537,96.8724 468.161,98.1559 470.785,101.023 473.408,105.676 476.032,112.362 478.656,121.381 481.279,133.103 
  483.903,147.998 485.215,156.817 486.527,166.668 487.839,177.656 489.151,189.903 490.26,201.346 491.369,213.89 492.478,227.654 493.587,242.773 494.696,259.406 
  495.806,277.745 496.915,298.017 498.024,320.5 499.133,345.536 500.242,373.553 500.797,388.845 501.351,405.098 501.906,422.406 502.461,440.88 503.015,460.645 
  503.57,481.85 504.124,504.671 504.679,529.319 505.233,556.046 505.788,585.165 506.343,617.062 506.897,652.225 507.452,691.284 508.006,735.071 508.561,784.717 
  509.115,841.812 509.67,908.7 510.225,989.041 510.779,1089.03 511.334,1220.44 511.888,1410.45 512.443,1751.15 
  "/>
<path clip-path="url(#clip760)" d="
M2232.99 209.375 L2558.76 209.375 L2558.76 105.695 L2232.99 105.695  Z
  " fill="#ffffff" fill-rule="evenodd" fill-opacity="1"/>
<polyline clip-path="url(#clip760)" style="stroke:#000000; stroke-linecap:butt; stroke-linejoin:round; stroke-width:4; stroke-opacity:1; fill:none" points="
  2232.99,209.375 2558.76,209.375 2558.76,105.695 2232.99,105.695 2232.99,209.375 
  "/>
<polyline clip-path="url(#clip760)" style="stroke:#009af9; stroke-linecap:butt; stroke-linejoin:round; stroke-width:4; stroke-opacity:1; fill:none" points="
  2260.33,157.535 2424.33,157.535 
  "/>
<path clip-path="url(#clip760)" d="M2465.5 177.223 Q2463.7 181.852 2461.98 183.264 Q2460.27 184.676 2457.4 184.676 L2454 184.676 L2454 181.112 L2456.5 181.112 Q2458.26 181.112 2459.23 180.278 Q2460.2 179.445 2461.38 176.343 L2462.14 174.399 L2451.66 148.889 L2456.17 148.889 L2464.27 169.167 L2472.38 148.889 L2476.89 148.889 L2465.5 177.223 Z" fill="#000000" fill-rule="evenodd" fill-opacity="1" /><path clip-path="url(#clip760)" d="M2484.18 170.88 L2491.82 170.88 L2491.82 144.515 L2483.51 146.181 L2483.51 141.922 L2491.77 140.255 L2496.45 140.255 L2496.45 170.88 L2504.09 170.88 L2504.09 174.815 L2484.18 174.815 L2484.18 170.88 Z" fill="#000000" fill-rule="evenodd" fill-opacity="1" /></svg>
