<?xml version="1.0" encoding="utf-8"?>
<svg xmlns="http://www.w3.org/2000/svg" xmlns:xlink="http://www.w3.org/1999/xlink" width="672" height="480" viewBox="0 0 2688 1920">
<defs>
  <clipPath id="clip920">
    <rect x="0" y="0" width="2688" height="1920"/>
  </clipPath>
</defs>
<path clip-path="url(#clip920)" d="
M0 1920 L2688 1920 L2688 0 L0 0  Z
  " fill="#ffffff" fill-rule="evenodd" fill-opacity="1"/>
<defs>
  <clipPath id="clip921">
    <rect x="537" y="0" width="1883" height="1883"/>
  </clipPath>
</defs>
<path clip-path="url(#clip920)" d="
M197.302 1800.78 L2640.76 1800.78 L2640.76 47.2441 L197.302 47.2441  Z
  " fill="#ffffff" fill-rule="evenodd" fill-opacity="1"/>
<defs>
  <clipPath id="clip922">
    <rect x="197" y="47" width="2444" height="1755"/>
  </clipPath>
</defs>
<polyline clip-path="url(#clip922)" style="stroke:#000000; stroke-linecap:butt; stroke-linejoin:round; stroke-width:2; stroke-opacity:0.1; fill:none" points="
  266.456,1800.78 266.456,47.2441 
  "/>
<polyline clip-path="url(#clip922)" style="stroke:#000000; stroke-linecap:butt; stroke-linejoin:round; stroke-width:2; stroke-opacity:0.1; fill:none" points="
  842.743,1800.78 842.743,47.2441 
  "/>
<polyline clip-path="url(#clip922)" style="stroke:#000000; stroke-linecap:butt; stroke-linejoin:round; stroke-width:2; stroke-opacity:0.1; fill:none" points="
  1419.03,1800.78 1419.03,47.2441 
  "/>
<polyline clip-path="url(#clip922)" style="stroke:#000000; stroke-linecap:butt; stroke-linejoin:round; stroke-width:2; stroke-opacity:0.1; fill:none" points="
  1995.32,1800.78 1995.32,47.2441 
  "/>
<polyline clip-path="url(#clip922)" style="stroke:#000000; stroke-linecap:butt; stroke-linejoin:round; stroke-width:2; stroke-opacity:0.1; fill:none" points="
  2571.6,1800.78 2571.6,47.2441 
  "/>
<polyline clip-path="url(#clip920)" style="stroke:#000000; stroke-linecap:butt; stroke-linejoin:round; stroke-width:4; stroke-opacity:1; fill:none" points="
  197.302,1800.78 2640.76,1800.78 
  "/>
<polyline clip-path="url(#clip920)" style="stroke:#000000; stroke-linecap:butt; stroke-linejoin:round; stroke-width:4; stroke-opacity:1; fill:none" points="
  266.456,1800.78 266.456,1781.88 
  "/>
<polyline clip-path="url(#clip920)" style="stroke:#000000; stroke-linecap:butt; stroke-linejoin:round; stroke-width:4; stroke-opacity:1; fill:none" points="
  842.743,1800.78 842.743,1781.88 
  "/>
<polyline clip-path="url(#clip920)" style="stroke:#000000; stroke-linecap:butt; stroke-linejoin:round; stroke-width:4; stroke-opacity:1; fill:none" points="
  1419.03,1800.78 1419.03,1781.88 
  "/>
<polyline clip-path="url(#clip920)" style="stroke:#000000; stroke-linecap:butt; stroke-linejoin:round; stroke-width:4; stroke-opacity:1; fill:none" points="
  1995.32,1800.78 1995.32,1781.88 
  "/>
<polyline clip-path="url(#clip920)" style="stroke:#000000; stroke-linecap:butt; stroke-linejoin:round; stroke-width:4; stroke-opacity:1; fill:none" points="
  2571.6,1800.78 2571.6,1781.88 
  "/>
<path clip-path="url(#clip920)" d="M220.519 1848.65 L250.195 1848.65 L250.195 1852.59 L220.519 1852.59 L220.519 1848.65 Z" fill="#000000" fill-rule="evenodd" fill-opacity="1" /><path clip-path="url(#clip920)" d="M261.098 1861.55 L268.737 1861.55 L268.737 1835.18 L260.426 1836.85 L260.426 1832.59 L268.69 1830.92 L273.366 1830.92 L273.366 1861.55 L281.005 1861.55 L281.005 1865.48 L261.098 1865.48 L261.098 1861.55 Z" fill="#000000" fill-rule="evenodd" fill-opacity="1" /><path clip-path="url(#clip920)" d="M300.449 1834 Q296.838 1834 295.01 1837.57 Q293.204 1841.11 293.204 1848.24 Q293.204 1855.34 295.01 1858.91 Q296.838 1862.45 300.449 1862.45 Q304.084 1862.45 305.889 1858.91 Q307.718 1855.34 307.718 1848.24 Q307.718 1841.11 305.889 1837.57 Q304.084 1834 300.449 1834 M300.449 1830.3 Q306.259 1830.3 309.315 1834.9 Q312.394 1839.49 312.394 1848.24 Q312.394 1856.96 309.315 1861.57 Q306.259 1866.15 300.449 1866.15 Q294.639 1866.15 291.56 1861.57 Q288.505 1856.96 288.505 1848.24 Q288.505 1839.49 291.56 1834.9 Q294.639 1830.3 300.449 1830.3 Z" fill="#000000" fill-rule="evenodd" fill-opacity="1" /><path clip-path="url(#clip920)" d="M812.384 1848.65 L842.06 1848.65 L842.06 1852.59 L812.384 1852.59 L812.384 1848.65 Z" fill="#000000" fill-rule="evenodd" fill-opacity="1" /><path clip-path="url(#clip920)" d="M852.199 1830.92 L870.555 1830.92 L870.555 1834.86 L856.481 1834.86 L856.481 1843.33 Q857.5 1842.98 858.518 1842.82 Q859.537 1842.64 860.555 1842.64 Q866.342 1842.64 869.722 1845.81 Q873.101 1848.98 873.101 1854.4 Q873.101 1859.97 869.629 1863.08 Q866.157 1866.15 859.838 1866.15 Q857.662 1866.15 855.393 1865.78 Q853.148 1865.41 850.74 1864.67 L850.74 1859.97 Q852.824 1861.11 855.046 1861.66 Q857.268 1862.22 859.745 1862.22 Q863.75 1862.22 866.088 1860.11 Q868.425 1858.01 868.425 1854.4 Q868.425 1850.78 866.088 1848.68 Q863.75 1846.57 859.745 1846.57 Q857.87 1846.57 855.995 1846.99 Q854.143 1847.4 852.199 1848.28 L852.199 1830.92 Z" fill="#000000" fill-rule="evenodd" fill-opacity="1" /><path clip-path="url(#clip920)" d="M1419.03 1834 Q1415.42 1834 1413.59 1837.57 Q1411.78 1841.11 1411.78 1848.24 Q1411.78 1855.34 1413.59 1858.91 Q1415.42 1862.45 1419.03 1862.45 Q1422.66 1862.45 1424.47 1858.91 Q1426.3 1855.34 1426.3 1848.24 Q1426.3 1841.11 1424.47 1837.57 Q1422.66 1834 1419.03 1834 M1419.03 1830.3 Q1424.84 1830.3 1427.89 1834.9 Q1430.97 1839.49 1430.97 1848.24 Q1430.97 1856.96 1427.89 1861.57 Q1424.84 1866.15 1419.03 1866.15 Q1413.22 1866.15 1410.14 1861.57 Q1407.08 1856.96 1407.08 1848.24 Q1407.08 1839.49 1410.14 1834.9 Q1413.22 1830.3 1419.03 1830.3 Z" fill="#000000" fill-rule="evenodd" fill-opacity="1" /><path clip-path="url(#clip920)" d="M1985.59 1830.92 L2003.95 1830.92 L2003.95 1834.86 L1989.88 1834.86 L1989.88 1843.33 Q1990.89 1842.98 1991.91 1842.82 Q1992.93 1842.64 1993.95 1842.64 Q1999.74 1842.64 2003.12 1845.81 Q2006.5 1848.98 2006.5 1854.4 Q2006.5 1859.97 2003.02 1863.08 Q1999.55 1866.15 1993.23 1866.15 Q1991.06 1866.15 1988.79 1865.78 Q1986.54 1865.41 1984.13 1864.67 L1984.13 1859.97 Q1986.22 1861.11 1988.44 1861.66 Q1990.66 1862.22 1993.14 1862.22 Q1997.14 1862.22 1999.48 1860.11 Q2001.82 1858.01 2001.82 1854.4 Q2001.82 1850.78 1999.48 1848.68 Q1997.14 1846.57 1993.14 1846.57 Q1991.26 1846.57 1989.39 1846.99 Q1987.54 1847.4 1985.59 1848.28 L1985.59 1830.92 Z" fill="#000000" fill-rule="evenodd" fill-opacity="1" /><path clip-path="url(#clip920)" d="M2546.29 1861.55 L2553.93 1861.55 L2553.93 1835.18 L2545.62 1836.85 L2545.62 1832.59 L2553.88 1830.92 L2558.56 1830.92 L2558.56 1861.55 L2566.2 1861.55 L2566.2 1865.48 L2546.29 1865.48 L2546.29 1861.55 Z" fill="#000000" fill-rule="evenodd" fill-opacity="1" /><path clip-path="url(#clip920)" d="M2585.64 1834 Q2582.03 1834 2580.2 1837.57 Q2578.4 1841.11 2578.4 1848.24 Q2578.4 1855.34 2580.2 1858.91 Q2582.03 1862.45 2585.64 1862.45 Q2589.28 1862.45 2591.08 1858.91 Q2592.91 1855.34 2592.91 1848.24 Q2592.91 1841.11 2591.08 1837.57 Q2589.28 1834 2585.64 1834 M2585.64 1830.3 Q2591.45 1830.3 2594.51 1834.9 Q2597.59 1839.49 2597.59 1848.24 Q2597.59 1856.96 2594.51 1861.57 Q2591.45 1866.15 2585.64 1866.15 Q2579.83 1866.15 2576.75 1861.57 Q2573.7 1856.96 2573.7 1848.24 Q2573.7 1839.49 2576.75 1834.9 Q2579.83 1830.3 2585.64 1830.3 Z" fill="#000000" fill-rule="evenodd" fill-opacity="1" /><polyline clip-path="url(#clip922)" style="stroke:#000000; stroke-linecap:butt; stroke-linejoin:round; stroke-width:2; stroke-opacity:0.1; fill:none" points="
  197.302,1718.21 2640.76,1718.21 
  "/>
<polyline clip-path="url(#clip922)" style="stroke:#000000; stroke-linecap:butt; stroke-linejoin:round; stroke-width:2; stroke-opacity:0.1; fill:none" points="
  197.302,1371.63 2640.76,1371.63 
  "/>
<polyline clip-path="url(#clip922)" style="stroke:#000000; stroke-linecap:butt; stroke-linejoin:round; stroke-width:2; stroke-opacity:0.1; fill:none" points="
  197.302,1025.05 2640.76,1025.05 
  "/>
<polyline clip-path="url(#clip922)" style="stroke:#000000; stroke-linecap:butt; stroke-linejoin:round; stroke-width:2; stroke-opacity:0.1; fill:none" points="
  197.302,678.475 2640.76,678.475 
  "/>
<polyline clip-path="url(#clip922)" style="stroke:#000000; stroke-linecap:butt; stroke-linejoin:round; stroke-width:2; stroke-opacity:0.1; fill:none" points="
  197.302,331.897 2640.76,331.897 
  "/>
<polyline clip-path="url(#clip920)" style="stroke:#000000; stroke-linecap:butt; stroke-linejoin:round; stroke-width:4; stroke-opacity:1; fill:none" points="
  197.302,1800.78 197.302,47.2441 
  "/>
<polyline clip-path="url(#clip920)" style="stroke:#000000; stroke-linecap:butt; stroke-linejoin:round; stroke-width:4; stroke-opacity:1; fill:none" points="
  197.302,1718.21 216.2,1718.21 
  "/>
<polyline clip-path="url(#clip920)" style="stroke:#000000; stroke-linecap:butt; stroke-linejoin:round; stroke-width:4; stroke-opacity:1; fill:none" points="
  197.302,1371.63 216.2,1371.63 
  "/>
<polyline clip-path="url(#clip920)" style="stroke:#000000; stroke-linecap:butt; stroke-linejoin:round; stroke-width:4; stroke-opacity:1; fill:none" points="
  197.302,1025.05 216.2,1025.05 
  "/>
<polyline clip-path="url(#clip920)" style="stroke:#000000; stroke-linecap:butt; stroke-linejoin:round; stroke-width:4; stroke-opacity:1; fill:none" points="
  197.302,678.475 216.2,678.475 
  "/>
<polyline clip-path="url(#clip920)" style="stroke:#000000; stroke-linecap:butt; stroke-linejoin:round; stroke-width:4; stroke-opacity:1; fill:none" points="
  197.302,331.897 216.2,331.897 
  "/>
<path clip-path="url(#clip920)" d="M49.5521 1718.66 L79.2279 1718.66 L79.2279 1722.6 L49.5521 1722.6 L49.5521 1718.66 Z" fill="#000000" fill-rule="evenodd" fill-opacity="1" /><path clip-path="url(#clip920)" d="M99.3204 1704.01 Q95.7093 1704.01 93.8806 1707.57 Q92.075 1711.12 92.075 1718.25 Q92.075 1725.35 93.8806 1728.92 Q95.7093 1732.46 99.3204 1732.46 Q102.955 1732.46 104.76 1728.92 Q106.589 1725.35 106.589 1718.25 Q106.589 1711.12 104.76 1707.57 Q102.955 1704.01 99.3204 1704.01 M99.3204 1700.31 Q105.131 1700.31 108.186 1704.91 Q111.265 1709.5 111.265 1718.25 Q111.265 1726.97 108.186 1731.58 Q105.131 1736.16 99.3204 1736.16 Q93.5102 1736.16 90.4315 1731.58 Q87.376 1726.97 87.376 1718.25 Q87.376 1709.5 90.4315 1704.91 Q93.5102 1700.31 99.3204 1700.31 Z" fill="#000000" fill-rule="evenodd" fill-opacity="1" /><path clip-path="url(#clip920)" d="M119.482 1729.61 L124.367 1729.61 L124.367 1735.49 L119.482 1735.49 L119.482 1729.61 Z" fill="#000000" fill-rule="evenodd" fill-opacity="1" /><path clip-path="url(#clip920)" d="M147.399 1705.01 L135.593 1723.45 L147.399 1723.45 L147.399 1705.01 M146.172 1700.93 L152.052 1700.93 L152.052 1723.45 L156.982 1723.45 L156.982 1727.34 L152.052 1727.34 L152.052 1735.49 L147.399 1735.49 L147.399 1727.34 L131.797 1727.34 L131.797 1722.83 L146.172 1700.93 Z" fill="#000000" fill-rule="evenodd" fill-opacity="1" /><path clip-path="url(#clip920)" d="M51.6354 1372.08 L81.3112 1372.08 L81.3112 1376.02 L51.6354 1376.02 L51.6354 1372.08 Z" fill="#000000" fill-rule="evenodd" fill-opacity="1" /><path clip-path="url(#clip920)" d="M101.404 1357.43 Q97.7926 1357.43 95.9639 1361 Q94.1584 1364.54 94.1584 1371.67 Q94.1584 1378.77 95.9639 1382.34 Q97.7926 1385.88 101.404 1385.88 Q105.038 1385.88 106.843 1382.34 Q108.672 1378.77 108.672 1371.67 Q108.672 1364.54 106.843 1361 Q105.038 1357.43 101.404 1357.43 M101.404 1353.73 Q107.214 1353.73 110.269 1358.33 Q113.348 1362.92 113.348 1371.67 Q113.348 1380.39 110.269 1385 Q107.214 1389.58 101.404 1389.58 Q95.5935 1389.58 92.5149 1385 Q89.4593 1380.39 89.4593 1371.67 Q89.4593 1362.92 92.5149 1358.33 Q95.5935 1353.73 101.404 1353.73 Z" fill="#000000" fill-rule="evenodd" fill-opacity="1" /><path clip-path="url(#clip920)" d="M121.566 1383.03 L126.45 1383.03 L126.45 1388.91 L121.566 1388.91 L121.566 1383.03 Z" fill="#000000" fill-rule="evenodd" fill-opacity="1" /><path clip-path="url(#clip920)" d="M140.663 1384.98 L156.982 1384.98 L156.982 1388.91 L135.038 1388.91 L135.038 1384.98 Q137.7 1382.22 142.283 1377.59 Q146.89 1372.94 148.07 1371.6 Q150.315 1369.07 151.195 1367.34 Q152.098 1365.58 152.098 1363.89 Q152.098 1361.13 150.153 1359.4 Q148.232 1357.66 145.13 1357.66 Q142.931 1357.66 140.478 1358.43 Q138.047 1359.19 135.269 1360.74 L135.269 1356.02 Q138.093 1354.88 140.547 1354.31 Q143.001 1353.73 145.038 1353.73 Q150.408 1353.73 153.602 1356.41 Q156.797 1359.1 156.797 1363.59 Q156.797 1365.72 155.987 1367.64 Q155.2 1369.54 153.093 1372.13 Q152.515 1372.8 149.413 1376.02 Q146.311 1379.21 140.663 1384.98 Z" fill="#000000" fill-rule="evenodd" fill-opacity="1" /><path clip-path="url(#clip920)" d="M99.8065 1010.85 Q96.1954 1010.85 94.3667 1014.42 Q92.5612 1017.96 92.5612 1025.09 Q92.5612 1032.2 94.3667 1035.76 Q96.1954 1039.3 99.8065 1039.3 Q103.441 1039.3 105.246 1035.76 Q107.075 1032.2 107.075 1025.09 Q107.075 1017.96 105.246 1014.42 Q103.441 1010.85 99.8065 1010.85 M99.8065 1007.15 Q105.617 1007.15 108.672 1011.76 Q111.751 1016.34 111.751 1025.09 Q111.751 1033.82 108.672 1038.42 Q105.617 1043.01 99.8065 1043.01 Q93.9963 1043.01 90.9176 1038.42 Q87.8621 1033.82 87.8621 1025.09 Q87.8621 1016.34 90.9176 1011.76 Q93.9963 1007.15 99.8065 1007.15 Z" fill="#000000" fill-rule="evenodd" fill-opacity="1" /><path clip-path="url(#clip920)" d="M119.968 1036.45 L124.853 1036.45 L124.853 1042.33 L119.968 1042.33 L119.968 1036.45 Z" fill="#000000" fill-rule="evenodd" fill-opacity="1" /><path clip-path="url(#clip920)" d="M145.038 1010.85 Q141.427 1010.85 139.598 1014.42 Q137.792 1017.96 137.792 1025.09 Q137.792 1032.2 139.598 1035.76 Q141.427 1039.3 145.038 1039.3 Q148.672 1039.3 150.478 1035.76 Q152.306 1032.2 152.306 1025.09 Q152.306 1017.96 150.478 1014.42 Q148.672 1010.85 145.038 1010.85 M145.038 1007.15 Q150.848 1007.15 153.903 1011.76 Q156.982 1016.34 156.982 1025.09 Q156.982 1033.82 153.903 1038.42 Q150.848 1043.01 145.038 1043.01 Q139.228 1043.01 136.149 1038.42 Q133.093 1033.82 133.093 1025.09 Q133.093 1016.34 136.149 1011.76 Q139.228 1007.15 145.038 1007.15 Z" fill="#000000" fill-rule="evenodd" fill-opacity="1" /><path clip-path="url(#clip920)" d="M101.404 664.274 Q97.7926 664.274 95.9639 667.839 Q94.1584 671.38 94.1584 678.51 Q94.1584 685.616 95.9639 689.181 Q97.7926 692.723 101.404 692.723 Q105.038 692.723 106.843 689.181 Q108.672 685.616 108.672 678.51 Q108.672 671.38 106.843 667.839 Q105.038 664.274 101.404 664.274 M101.404 660.57 Q107.214 660.57 110.269 665.177 Q113.348 669.76 113.348 678.51 Q113.348 687.237 110.269 691.843 Q107.214 696.427 101.404 696.427 Q95.5935 696.427 92.5149 691.843 Q89.4593 687.237 89.4593 678.51 Q89.4593 669.76 92.5149 665.177 Q95.5935 660.57 101.404 660.57 Z" fill="#000000" fill-rule="evenodd" fill-opacity="1" /><path clip-path="url(#clip920)" d="M121.566 689.876 L126.45 689.876 L126.45 695.755 L121.566 695.755 L121.566 689.876 Z" fill="#000000" fill-rule="evenodd" fill-opacity="1" /><path clip-path="url(#clip920)" d="M140.663 691.82 L156.982 691.82 L156.982 695.755 L135.038 695.755 L135.038 691.82 Q137.7 689.066 142.283 684.436 Q146.89 679.783 148.07 678.441 Q150.315 675.917 151.195 674.181 Q152.098 672.422 152.098 670.732 Q152.098 667.978 150.153 666.242 Q148.232 664.505 145.13 664.505 Q142.931 664.505 140.478 665.269 Q138.047 666.033 135.269 667.584 L135.269 662.862 Q138.093 661.728 140.547 661.149 Q143.001 660.57 145.038 660.57 Q150.408 660.57 153.602 663.255 Q156.797 665.941 156.797 670.431 Q156.797 672.561 155.987 674.482 Q155.2 676.38 153.093 678.973 Q152.515 679.644 149.413 682.862 Q146.311 686.056 140.663 691.82 Z" fill="#000000" fill-rule="evenodd" fill-opacity="1" /><path clip-path="url(#clip920)" d="M99.3204 317.695 Q95.7093 317.695 93.8806 321.26 Q92.075 324.802 92.075 331.931 Q92.075 339.038 93.8806 342.603 Q95.7093 346.144 99.3204 346.144 Q102.955 346.144 104.76 342.603 Q106.589 339.038 106.589 331.931 Q106.589 324.802 104.76 321.26 Q102.955 317.695 99.3204 317.695 M99.3204 313.992 Q105.131 313.992 108.186 318.598 Q111.265 323.181 111.265 331.931 Q111.265 340.658 108.186 345.265 Q105.131 349.848 99.3204 349.848 Q93.5102 349.848 90.4315 345.265 Q87.376 340.658 87.376 331.931 Q87.376 323.181 90.4315 318.598 Q93.5102 313.992 99.3204 313.992 Z" fill="#000000" fill-rule="evenodd" fill-opacity="1" /><path clip-path="url(#clip920)" d="M119.482 343.297 L124.367 343.297 L124.367 349.177 L119.482 349.177 L119.482 343.297 Z" fill="#000000" fill-rule="evenodd" fill-opacity="1" /><path clip-path="url(#clip920)" d="M147.399 318.691 L135.593 337.14 L147.399 337.14 L147.399 318.691 M146.172 314.617 L152.052 314.617 L152.052 337.14 L156.982 337.14 L156.982 341.029 L152.052 341.029 L152.052 349.177 L147.399 349.177 L147.399 341.029 L131.797 341.029 L131.797 336.515 L146.172 314.617 Z" fill="#000000" fill-rule="evenodd" fill-opacity="1" /><polyline clip-path="url(#clip922)" style="stroke:#009af9; stroke-linecap:butt; stroke-linejoin:round; stroke-width:4; stroke-opacity:1; fill:none" points="
  266.456,955.32 270.208,899.588 273.96,845.18 277.712,792.664 281.464,742.583 285.801,688.409 290.137,638.914 292.305,616.133 294.474,594.767 296.642,574.885 
  298.81,556.555 300.979,539.836 303.147,524.782 305.315,511.441 307.483,499.857 309.652,490.065 311.82,482.094 313.988,475.969 316.156,471.706 318.325,469.317 
  320.493,468.805 322.661,470.169 324.829,473.401 326.998,478.486 329.166,485.402 331.334,494.125 333.502,504.62 335.671,516.849 337.839,530.768 340.007,546.328 
  342.175,563.473 344.344,582.145 346.512,602.277 348.68,623.801 350.848,646.644 355.185,695.971 359.521,749.594 363.858,806.797 368.194,866.827 376.867,992.203 
  385.54,1119.26 389.877,1181.4 394.213,1241.57 398.55,1299.01 402.887,1353.03 405.055,1378.54 407.223,1402.95 409.391,1426.19 411.56,1448.19 413.728,1468.87 
  415.896,1488.19 418.064,1506.08 420.233,1522.5 422.839,1540.2 425.445,1555.63 428.051,1568.72 430.657,1579.43 433.263,1587.7 435.869,1593.52 438.475,1596.85 
  441.081,1597.7 443.687,1596.07 446.293,1591.97 448.899,1585.42 451.505,1576.46 454.111,1565.14 456.717,1551.5 459.323,1535.62 461.93,1517.57 464.536,1497.43 
  467.142,1475.28 469.748,1451.24 472.354,1425.4 474.96,1397.88 477.566,1368.8 480.172,1338.29 482.778,1306.47 487.99,1239.47 493.202,1168.93 498.414,1096.03 
  503.627,1021.97 508.033,959.342 512.44,897.473 516.847,837.07 521.254,778.814 523.457,750.697 525.66,723.359 527.864,696.876 530.067,671.32 534.474,623.264 
  538.881,579.711 541.084,559.771 543.288,541.125 545.491,523.823 547.694,507.909 549.898,493.424 552.101,480.403 554.305,468.879 556.508,458.879 558.711,450.428 
  560.915,443.544 563.118,438.242 565.322,434.532 567.525,432.42 569.728,431.908 571.932,432.993 574.135,435.668 576.529,440.362 578.922,446.899 581.316,455.253 
  583.709,465.392 586.103,477.28 588.496,490.875 590.89,506.129 593.283,522.991 595.677,541.404 598.07,561.306 600.464,582.632 602.857,605.313 605.251,629.276 
  607.644,654.444 610.038,680.736 612.431,708.071 617.218,765.521 622.005,826.083 626.792,889.018 631.579,953.564 641.153,1084.41 650.727,1212.52 655.14,1269.02 
  659.554,1323.16 663.967,1374.41 668.38,1422.31 672.793,1466.43 677.206,1506.35 679.413,1524.63 681.62,1541.74 683.826,1557.64 686.033,1572.29 688.239,1585.66 
  690.446,1597.74 692.653,1608.48 694.859,1617.88 697.066,1625.92 699.272,1632.57 701.479,1637.83 703.686,1641.7 705.892,1644.16 708.099,1645.22 710.305,1644.88 
  712.512,1643.14 714.718,1640.02 716.925,1635.51 719.132,1629.65 721.338,1622.43 723.704,1613.23 726.07,1602.53 728.435,1590.37 730.801,1576.78 733.167,1561.81 
  735.533,1545.49 737.898,1527.87 740.264,1508.99 744.995,1467.7 749.727,1422.05 754.458,1372.52 759.19,1319.61 763.921,1263.86 768.652,1205.83 773.384,1146.08 
  778.115,1085.18 787.578,962.278 797.041,841.674 802.523,774.58 808.004,710.513 813.486,650.213 818.968,594.362 821.709,568.301 824.45,543.578 827.191,520.259 
  829.932,498.406 832.673,478.074 835.413,459.316 838.154,442.177 840.895,426.7 843.636,412.919 846.377,400.866 849.118,390.566 851.859,382.04 854.6,375.304 
  857.341,370.366 860.082,367.232 862.822,365.901 865.563,366.37 868.304,368.626 871.045,372.656 873.786,378.44 876.527,385.953 879.268,395.167 882.009,406.049 
  884.75,418.562 887.185,431.017 889.621,444.696 892.057,459.566 894.493,475.59 899.364,510.949 904.236,550.446 909.108,593.728 913.979,640.418 918.851,690.117 
  923.722,742.413 928.594,796.877 933.465,853.075 938.337,910.568 943.209,968.914 952.952,1086.42 962.695,1202.16 966.967,1251.52 971.239,1299.66 975.511,1346.33 
  979.783,1391.31 984.055,1434.37 988.327,1475.31 992.599,1513.94 996.87,1550.09 1001.14,1583.59 1005.41,1614.32 1009.69,1642.14 1013.96,1666.95 1018.23,1688.66 
  1022.5,1707.21 1026.77,1722.53 1031.05,1734.6 1035.7,1744.01 1040.36,1749.52 1045.02,1751.15 1049.68,1748.93 1054.33,1742.93 1058.99,1733.21 1063.65,1719.89 
  1068.31,1703.07 1072.96,1682.88 1077.62,1659.47 1082.28,1632.98 1086.94,1603.6 1091.59,1571.5 1096.25,1536.86 1100.91,1499.89 1105.57,1460.77 1110.25,1419.47 
  1114.94,1376.42 1119.62,1331.85 1124.31,1285.95 1133.68,1191.06 1143.05,1093.46 1152.42,994.761 1161.79,896.517 1171.16,800.159 1180.53,706.985 1185.71,657.272 
  1190.89,609.061 1196.07,562.512 1201.25,517.769 1206.43,474.961 1211.61,434.202 1216.79,395.589 1221.97,359.206 1227.15,325.121 1232.33,293.388 1237.51,264.049 
  1242.69,237.13 1247.87,212.644 1253.05,190.595 1258.23,170.972 1263.41,153.754 1268.34,139.579 1273.27,127.52 1278.2,117.536 1283.13,109.579 1288.06,103.595 
  1292.99,99.5266 1297.91,97.3083 1302.84,96.8724 1307.77,98.1474 1312.7,101.058 1317.63,105.528 1322.56,111.477 1327.49,118.824 1332.42,127.487 1337.34,137.384 
  1342.27,148.431 1352.52,174.727 1362.77,204.906 1373.02,238.253 1383.27,274.087 1403.77,350.7 1424.27,430.211 1441.53,496.66 1458.78,560.834 1467.41,591.652 
  1476.04,621.452 1484.66,650.135 1493.29,677.623 1503.83,709.48 1514.36,739.401 1524.89,767.351 1535.43,793.326 1545.96,817.348 1556.5,839.461 1567.03,859.726 
  1577.56,878.219 1587.21,893.677 1596.86,907.792 1606.51,920.639 1616.16,932.296 1635.46,952.351 1654.76,968.575 1672.58,980.667 1690.41,990.419 1708.23,998.218 
  1726.06,1004.4 1762.17,1013.15 1798.28,1018.37 1879.22,1023.38 1952.56,1024.62 2036.54,1024.97 2114.29,1025.04 2190.95,1025.05 2265.37,1025.05 2341.67,1025.05 
  2425.26,1025.05 2546.69,1025.05 2571.6,1025.05 
  "/>
<path clip-path="url(#clip920)" d="
M2235.38 209.375 L2559.31 209.375 L2559.31 105.695 L2235.38 105.695  Z
  " fill="#ffffff" fill-rule="evenodd" fill-opacity="1"/>
<polyline clip-path="url(#clip920)" style="stroke:#000000; stroke-linecap:butt; stroke-linejoin:round; stroke-width:4; stroke-opacity:1; fill:none" points="
  2235.38,209.375 2559.31,209.375 2559.31,105.695 2235.38,105.695 2235.38,209.375 
  "/>
<polyline clip-path="url(#clip920)" style="stroke:#009af9; stroke-linecap:butt; stroke-linejoin:round; stroke-width:4; stroke-opacity:1; fill:none" points="
  2262.53,157.535 2425.43,157.535 
  "/>
<path clip-path="url(#clip920)" d="M2466.42 177.223 Q2464.62 181.852 2462.9 183.264 Q2461.19 184.676 2458.32 184.676 L2454.92 184.676 L2454.92 181.112 L2457.42 181.112 Q2459.18 181.112 2460.15 180.278 Q2461.12 179.445 2462.3 176.343 L2463.06 174.399 L2452.58 148.889 L2457.09 148.889 L2465.19 169.167 L2473.3 148.889 L2477.81 148.889 L2466.42 177.223 Z" fill="#000000" fill-rule="evenodd" fill-opacity="1" /><path clip-path="url(#clip920)" d="M2485.1 170.88 L2492.74 170.88 L2492.74 144.515 L2484.43 146.181 L2484.43 141.922 L2492.69 140.255 L2497.37 140.255 L2497.37 170.88 L2505.01 170.88 L2505.01 174.815 L2485.1 174.815 L2485.1 170.88 Z" fill="#000000" fill-rule="evenodd" fill-opacity="1" /></svg>
