<?xml version="1.0" encoding="utf-8"?>
<svg xmlns="http://www.w3.org/2000/svg" xmlns:xlink="http://www.w3.org/1999/xlink" width="672" height="480" viewBox="0 0 2688 1920">
<defs>
  <clipPath id="clip300">
    <rect x="0" y="0" width="2688" height="1920"/>
  </clipPath>
</defs>
<path clip-path="url(#clip300)" d="
M0 1920 L2688 1920 L2688 0 L0 0  Z
  " fill="#ffffff" fill-rule="evenodd" fill-opacity="1"/>
<defs>
  <clipPath id="clip301">
    <rect x="537" y="0" width="1883" height="1883"/>
  </clipPath>
</defs>
<path clip-path="url(#clip300)" d="
M150.937 1800.78 L2640.76 1800.78 L2640.76 47.2441 L150.937 47.2441  Z
  " fill="#ffffff" fill-rule="evenodd" fill-opacity="1"/>
<defs>
  <clipPath id="clip302">
    <rect x="150" y="47" width="2491" height="1755"/>
  </clipPath>
</defs>
<polyline clip-path="url(#clip302)" style="stroke:#000000; stroke-linecap:round; stroke-linejoin:round; stroke-width:2; stroke-opacity:0.1; fill:none" points="
  274.336,1800.78 274.336,47.2441 
  "/>
<polyline clip-path="url(#clip302)" style="stroke:#000000; stroke-linecap:round; stroke-linejoin:round; stroke-width:2; stroke-opacity:0.1; fill:none" points="
  648.173,1800.78 648.173,47.2441 
  "/>
<polyline clip-path="url(#clip302)" style="stroke:#000000; stroke-linecap:round; stroke-linejoin:round; stroke-width:2; stroke-opacity:0.1; fill:none" points="
  1022.01,1800.78 1022.01,47.2441 
  "/>
<polyline clip-path="url(#clip302)" style="stroke:#000000; stroke-linecap:round; stroke-linejoin:round; stroke-width:2; stroke-opacity:0.1; fill:none" points="
  1395.85,1800.78 1395.85,47.2441 
  "/>
<polyline clip-path="url(#clip302)" style="stroke:#000000; stroke-linecap:round; stroke-linejoin:round; stroke-width:2; stroke-opacity:0.1; fill:none" points="
  1769.68,1800.78 1769.68,47.2441 
  "/>
<polyline clip-path="url(#clip302)" style="stroke:#000000; stroke-linecap:round; stroke-linejoin:round; stroke-width:2; stroke-opacity:0.1; fill:none" points="
  2143.52,1800.78 2143.52,47.2441 
  "/>
<polyline clip-path="url(#clip302)" style="stroke:#000000; stroke-linecap:round; stroke-linejoin:round; stroke-width:2; stroke-opacity:0.1; fill:none" points="
  2517.36,1800.78 2517.36,47.2441 
  "/>
<polyline clip-path="url(#clip300)" style="stroke:#000000; stroke-linecap:round; stroke-linejoin:round; stroke-width:4; stroke-opacity:1; fill:none" points="
  150.937,1800.78 2640.76,1800.78 
  "/>
<polyline clip-path="url(#clip300)" style="stroke:#000000; stroke-linecap:round; stroke-linejoin:round; stroke-width:4; stroke-opacity:1; fill:none" points="
  274.336,1800.78 274.336,1781.88 
  "/>
<polyline clip-path="url(#clip300)" style="stroke:#000000; stroke-linecap:round; stroke-linejoin:round; stroke-width:4; stroke-opacity:1; fill:none" points="
  648.173,1800.78 648.173,1781.88 
  "/>
<polyline clip-path="url(#clip300)" style="stroke:#000000; stroke-linecap:round; stroke-linejoin:round; stroke-width:4; stroke-opacity:1; fill:none" points="
  1022.01,1800.78 1022.01,1781.88 
  "/>
<polyline clip-path="url(#clip300)" style="stroke:#000000; stroke-linecap:round; stroke-linejoin:round; stroke-width:4; stroke-opacity:1; fill:none" points="
  1395.85,1800.78 1395.85,1781.88 
  "/>
<polyline clip-path="url(#clip300)" style="stroke:#000000; stroke-linecap:round; stroke-linejoin:round; stroke-width:4; stroke-opacity:1; fill:none" points="
  1769.68,1800.78 1769.68,1781.88 
  "/>
<polyline clip-path="url(#clip300)" style="stroke:#000000; stroke-linecap:round; stroke-linejoin:round; stroke-width:4; stroke-opacity:1; fill:none" points="
  2143.52,1800.78 2143.52,1781.88 
  "/>
<polyline clip-path="url(#clip300)" style="stroke:#000000; stroke-linecap:round; stroke-linejoin:round; stroke-width:4; stroke-opacity:1; fill:none" points="
  2517.36,1800.78 2517.36,1781.88 
  "/>
<path clip-path="url(#clip300)" d="M243.804 1848.65 L273.479 1848.65 L273.479 1852.59 L243.804 1852.59 L243.804 1848.65 Z" fill="#000000" fill-rule="evenodd" fill-opacity="1" /><path clip-path="url(#clip300)" d="M297.738 1846.85 Q301.095 1847.57 302.97 1849.84 Q304.868 1852.1 304.868 1855.44 Q304.868 1860.55 301.349 1863.35 Q297.831 1866.15 291.35 1866.15 Q289.174 1866.15 286.859 1865.71 Q284.567 1865.3 282.113 1864.44 L282.113 1859.93 Q284.058 1861.06 286.373 1861.64 Q288.688 1862.22 291.211 1862.22 Q295.609 1862.22 297.9 1860.48 Q300.215 1858.75 300.215 1855.44 Q300.215 1852.38 298.062 1850.67 Q295.933 1848.93 292.113 1848.93 L288.086 1848.93 L288.086 1845.09 L292.299 1845.09 Q295.748 1845.09 297.576 1843.72 Q299.405 1842.34 299.405 1839.74 Q299.405 1837.08 297.507 1835.67 Q295.632 1834.23 292.113 1834.23 Q290.192 1834.23 287.993 1834.65 Q285.794 1835.07 283.155 1835.95 L283.155 1831.78 Q285.817 1831.04 288.132 1830.67 Q290.47 1830.3 292.53 1830.3 Q297.854 1830.3 300.956 1832.73 Q304.058 1835.14 304.058 1839.26 Q304.058 1842.13 302.414 1844.12 Q300.771 1846.09 297.738 1846.85 Z" fill="#000000" fill-rule="evenodd" fill-opacity="1" /><path clip-path="url(#clip300)" d="M618.115 1848.65 L647.791 1848.65 L647.791 1852.59 L618.115 1852.59 L618.115 1848.65 Z" fill="#000000" fill-rule="evenodd" fill-opacity="1" /><path clip-path="url(#clip300)" d="M661.911 1861.55 L678.23 1861.55 L678.23 1865.48 L656.286 1865.48 L656.286 1861.55 Q658.948 1858.79 663.531 1854.16 Q668.138 1849.51 669.318 1848.17 Q671.564 1845.65 672.443 1843.91 Q673.346 1842.15 673.346 1840.46 Q673.346 1837.71 671.402 1835.97 Q669.48 1834.23 666.379 1834.23 Q664.179 1834.23 661.726 1835 Q659.295 1835.76 656.517 1837.31 L656.517 1832.59 Q659.342 1831.46 661.795 1830.88 Q664.249 1830.3 666.286 1830.3 Q671.656 1830.3 674.851 1832.98 Q678.045 1835.67 678.045 1840.16 Q678.045 1842.29 677.235 1844.21 Q676.448 1846.11 674.341 1848.7 Q673.763 1849.37 670.661 1852.59 Q667.559 1855.78 661.911 1861.55 Z" fill="#000000" fill-rule="evenodd" fill-opacity="1" /><path clip-path="url(#clip300)" d="M991.767 1848.65 L1021.44 1848.65 L1021.44 1852.59 L991.767 1852.59 L991.767 1848.65 Z" fill="#000000" fill-rule="evenodd" fill-opacity="1" /><path clip-path="url(#clip300)" d="M1032.35 1861.55 L1039.98 1861.55 L1039.98 1835.18 L1031.67 1836.85 L1031.67 1832.59 L1039.94 1830.92 L1044.61 1830.92 L1044.61 1861.55 L1052.25 1861.55 L1052.25 1865.48 L1032.35 1865.48 L1032.35 1861.55 Z" fill="#000000" fill-rule="evenodd" fill-opacity="1" /><path clip-path="url(#clip300)" d="M1395.85 1834 Q1392.24 1834 1390.41 1837.57 Q1388.6 1841.11 1388.6 1848.24 Q1388.6 1855.34 1390.41 1858.91 Q1392.24 1862.45 1395.85 1862.45 Q1399.48 1862.45 1401.29 1858.91 Q1403.11 1855.34 1403.11 1848.24 Q1403.11 1841.11 1401.29 1837.57 Q1399.48 1834 1395.85 1834 M1395.85 1830.3 Q1401.66 1830.3 1404.71 1834.9 Q1407.79 1839.49 1407.79 1848.24 Q1407.79 1856.96 1404.71 1861.57 Q1401.66 1866.15 1395.85 1866.15 Q1390.04 1866.15 1386.96 1861.57 Q1383.9 1856.96 1383.9 1848.24 Q1383.9 1839.49 1386.96 1834.9 Q1390.04 1830.3 1395.85 1830.3 Z" fill="#000000" fill-rule="evenodd" fill-opacity="1" /><path clip-path="url(#clip300)" d="M1760.07 1861.55 L1767.7 1861.55 L1767.7 1835.18 L1759.39 1836.85 L1759.39 1832.59 L1767.66 1830.92 L1772.33 1830.92 L1772.33 1861.55 L1779.97 1861.55 L1779.97 1865.48 L1760.07 1865.48 L1760.07 1861.55 Z" fill="#000000" fill-rule="evenodd" fill-opacity="1" /><path clip-path="url(#clip300)" d="M2138.17 1861.55 L2154.49 1861.55 L2154.49 1865.48 L2132.55 1865.48 L2132.55 1861.55 Q2135.21 1858.79 2139.79 1854.16 Q2144.4 1849.51 2145.58 1848.17 Q2147.83 1845.65 2148.71 1843.91 Q2149.61 1842.15 2149.61 1840.46 Q2149.61 1837.71 2147.66 1835.97 Q2145.74 1834.23 2142.64 1834.23 Q2140.44 1834.23 2137.99 1835 Q2135.56 1835.76 2132.78 1837.31 L2132.78 1832.59 Q2135.6 1831.46 2138.06 1830.88 Q2140.51 1830.3 2142.55 1830.3 Q2147.92 1830.3 2151.11 1832.98 Q2154.31 1835.67 2154.31 1840.16 Q2154.31 1842.29 2153.5 1844.21 Q2152.71 1846.11 2150.6 1848.7 Q2150.02 1849.37 2146.92 1852.59 Q2143.82 1855.78 2138.17 1861.55 Z" fill="#000000" fill-rule="evenodd" fill-opacity="1" /><path clip-path="url(#clip300)" d="M2521.6 1846.85 Q2524.96 1847.57 2526.84 1849.84 Q2528.73 1852.1 2528.73 1855.44 Q2528.73 1860.55 2525.22 1863.35 Q2521.7 1866.15 2515.22 1866.15 Q2513.04 1866.15 2510.72 1865.71 Q2508.43 1865.3 2505.98 1864.44 L2505.98 1859.93 Q2507.92 1861.06 2510.24 1861.64 Q2512.55 1862.22 2515.08 1862.22 Q2519.47 1862.22 2521.77 1860.48 Q2524.08 1858.75 2524.08 1855.44 Q2524.08 1852.38 2521.93 1850.67 Q2519.8 1848.93 2515.98 1848.93 L2511.95 1848.93 L2511.95 1845.09 L2516.16 1845.09 Q2519.61 1845.09 2521.44 1843.72 Q2523.27 1842.34 2523.27 1839.74 Q2523.27 1837.08 2521.37 1835.67 Q2519.5 1834.23 2515.98 1834.23 Q2514.06 1834.23 2511.86 1834.65 Q2509.66 1835.07 2507.02 1835.95 L2507.02 1831.78 Q2509.68 1831.04 2512 1830.67 Q2514.34 1830.3 2516.4 1830.3 Q2521.72 1830.3 2524.82 1832.73 Q2527.92 1835.14 2527.92 1839.26 Q2527.92 1842.13 2526.28 1844.12 Q2524.64 1846.09 2521.6 1846.85 Z" fill="#000000" fill-rule="evenodd" fill-opacity="1" /><polyline clip-path="url(#clip302)" style="stroke:#000000; stroke-linecap:round; stroke-linejoin:round; stroke-width:2; stroke-opacity:0.1; fill:none" points="
  150.937,1713.87 2640.76,1713.87 
  "/>
<polyline clip-path="url(#clip302)" style="stroke:#000000; stroke-linecap:round; stroke-linejoin:round; stroke-width:2; stroke-opacity:0.1; fill:none" points="
  150.937,1450.58 2640.76,1450.58 
  "/>
<polyline clip-path="url(#clip302)" style="stroke:#000000; stroke-linecap:round; stroke-linejoin:round; stroke-width:2; stroke-opacity:0.1; fill:none" points="
  150.937,1187.3 2640.76,1187.3 
  "/>
<polyline clip-path="url(#clip302)" style="stroke:#000000; stroke-linecap:round; stroke-linejoin:round; stroke-width:2; stroke-opacity:0.1; fill:none" points="
  150.937,924.012 2640.76,924.012 
  "/>
<polyline clip-path="url(#clip302)" style="stroke:#000000; stroke-linecap:round; stroke-linejoin:round; stroke-width:2; stroke-opacity:0.1; fill:none" points="
  150.937,660.725 2640.76,660.725 
  "/>
<polyline clip-path="url(#clip302)" style="stroke:#000000; stroke-linecap:round; stroke-linejoin:round; stroke-width:2; stroke-opacity:0.1; fill:none" points="
  150.937,397.438 2640.76,397.438 
  "/>
<polyline clip-path="url(#clip302)" style="stroke:#000000; stroke-linecap:round; stroke-linejoin:round; stroke-width:2; stroke-opacity:0.1; fill:none" points="
  150.937,134.152 2640.76,134.152 
  "/>
<polyline clip-path="url(#clip300)" style="stroke:#000000; stroke-linecap:round; stroke-linejoin:round; stroke-width:4; stroke-opacity:1; fill:none" points="
  150.937,1800.78 150.937,47.2441 
  "/>
<polyline clip-path="url(#clip300)" style="stroke:#000000; stroke-linecap:round; stroke-linejoin:round; stroke-width:4; stroke-opacity:1; fill:none" points="
  150.937,1713.87 169.834,1713.87 
  "/>
<polyline clip-path="url(#clip300)" style="stroke:#000000; stroke-linecap:round; stroke-linejoin:round; stroke-width:4; stroke-opacity:1; fill:none" points="
  150.937,1450.58 169.834,1450.58 
  "/>
<polyline clip-path="url(#clip300)" style="stroke:#000000; stroke-linecap:round; stroke-linejoin:round; stroke-width:4; stroke-opacity:1; fill:none" points="
  150.937,1187.3 169.834,1187.3 
  "/>
<polyline clip-path="url(#clip300)" style="stroke:#000000; stroke-linecap:round; stroke-linejoin:round; stroke-width:4; stroke-opacity:1; fill:none" points="
  150.937,924.012 169.834,924.012 
  "/>
<polyline clip-path="url(#clip300)" style="stroke:#000000; stroke-linecap:round; stroke-linejoin:round; stroke-width:4; stroke-opacity:1; fill:none" points="
  150.937,660.725 169.834,660.725 
  "/>
<polyline clip-path="url(#clip300)" style="stroke:#000000; stroke-linecap:round; stroke-linejoin:round; stroke-width:4; stroke-opacity:1; fill:none" points="
  150.937,397.438 169.834,397.438 
  "/>
<polyline clip-path="url(#clip300)" style="stroke:#000000; stroke-linecap:round; stroke-linejoin:round; stroke-width:4; stroke-opacity:1; fill:none" points="
  150.937,134.152 169.834,134.152 
  "/>
<path clip-path="url(#clip300)" d="M49.5521 1714.32 L79.2279 1714.32 L79.2279 1718.26 L49.5521 1718.26 L49.5521 1714.32 Z" fill="#000000" fill-rule="evenodd" fill-opacity="1" /><path clip-path="url(#clip300)" d="M103.487 1712.52 Q106.843 1713.23 108.718 1715.5 Q110.617 1717.77 110.617 1721.11 Q110.617 1726.22 107.098 1729.02 Q103.58 1731.82 97.0982 1731.82 Q94.9223 1731.82 92.6075 1731.38 Q90.3158 1730.97 87.8621 1730.11 L87.8621 1725.6 Q89.8065 1726.73 92.1213 1727.31 Q94.4361 1727.89 96.9593 1727.89 Q101.357 1727.89 103.649 1726.15 Q105.964 1724.42 105.964 1721.11 Q105.964 1718.05 103.811 1716.34 Q101.681 1714.6 97.8621 1714.6 L93.8343 1714.6 L93.8343 1710.76 L98.0472 1710.76 Q101.496 1710.76 103.325 1709.39 Q105.154 1708 105.154 1705.41 Q105.154 1702.75 103.256 1701.34 Q101.381 1699.9 97.8621 1699.9 Q95.9408 1699.9 93.7417 1700.32 Q91.5426 1700.73 88.9038 1701.61 L88.9038 1697.45 Q91.5658 1696.71 93.8806 1696.34 Q96.2185 1695.97 98.2787 1695.97 Q103.603 1695.97 106.705 1698.4 Q109.806 1700.8 109.806 1704.92 Q109.806 1707.8 108.163 1709.79 Q106.519 1711.75 103.487 1712.52 Z" fill="#000000" fill-rule="evenodd" fill-opacity="1" /><path clip-path="url(#clip300)" d="M50.5012 1451.04 L80.177 1451.04 L80.177 1454.97 L50.5012 1454.97 L50.5012 1451.04 Z" fill="#000000" fill-rule="evenodd" fill-opacity="1" /><path clip-path="url(#clip300)" d="M94.2973 1463.93 L110.617 1463.93 L110.617 1467.86 L88.6723 1467.86 L88.6723 1463.93 Q91.3343 1461.18 95.9176 1456.55 Q100.524 1451.89 101.705 1450.55 Q103.95 1448.03 104.83 1446.29 Q105.732 1444.53 105.732 1442.84 Q105.732 1440.09 103.788 1438.35 Q101.867 1436.62 98.7648 1436.62 Q96.5658 1436.62 94.1121 1437.38 Q91.6815 1438.14 88.9038 1439.69 L88.9038 1434.97 Q91.7278 1433.84 94.1815 1433.26 Q96.6352 1432.68 98.6722 1432.68 Q104.043 1432.68 107.237 1435.37 Q110.431 1438.05 110.431 1442.54 Q110.431 1444.67 109.621 1446.59 Q108.834 1448.49 106.728 1451.08 Q106.149 1451.75 103.047 1454.97 Q99.9454 1458.17 94.2973 1463.93 Z" fill="#000000" fill-rule="evenodd" fill-opacity="1" /><path clip-path="url(#clip300)" d="M50.1308 1187.75 L79.8066 1187.75 L79.8066 1191.68 L50.1308 1191.68 L50.1308 1187.75 Z" fill="#000000" fill-rule="evenodd" fill-opacity="1" /><path clip-path="url(#clip300)" d="M90.7093 1200.64 L98.3482 1200.64 L98.3482 1174.28 L90.038 1175.94 L90.038 1171.68 L98.3019 1170.02 L102.978 1170.02 L102.978 1200.64 L110.617 1200.64 L110.617 1204.58 L90.7093 1204.58 L90.7093 1200.64 Z" fill="#000000" fill-rule="evenodd" fill-opacity="1" /><path clip-path="url(#clip300)" d="M98.6722 909.81 Q95.0611 909.81 93.2324 913.375 Q91.4269 916.917 91.4269 924.046 Q91.4269 931.153 93.2324 934.718 Q95.0611 938.259 98.6722 938.259 Q102.306 938.259 104.112 934.718 Q105.941 931.153 105.941 924.046 Q105.941 916.917 104.112 913.375 Q102.306 909.81 98.6722 909.81 M98.6722 906.107 Q104.482 906.107 107.538 910.713 Q110.617 915.296 110.617 924.046 Q110.617 932.773 107.538 937.38 Q104.482 941.963 98.6722 941.963 Q92.8621 941.963 89.7834 937.38 Q86.7279 932.773 86.7279 924.046 Q86.7279 915.296 89.7834 910.713 Q92.8621 906.107 98.6722 906.107 Z" fill="#000000" fill-rule="evenodd" fill-opacity="1" /><path clip-path="url(#clip300)" d="M90.7093 674.07 L98.3482 674.07 L98.3482 647.704 L90.038 649.371 L90.038 645.112 L98.3019 643.445 L102.978 643.445 L102.978 674.07 L110.617 674.07 L110.617 678.005 L90.7093 678.005 L90.7093 674.07 Z" fill="#000000" fill-rule="evenodd" fill-opacity="1" /><path clip-path="url(#clip300)" d="M94.2973 410.783 L110.617 410.783 L110.617 414.718 L88.6723 414.718 L88.6723 410.783 Q91.3343 408.029 95.9176 403.399 Q100.524 398.746 101.705 397.404 Q103.95 394.881 104.83 393.145 Q105.732 391.385 105.732 389.695 Q105.732 386.941 103.788 385.205 Q101.867 383.469 98.7648 383.469 Q96.5658 383.469 94.1121 384.233 Q91.6815 384.996 88.9038 386.547 L88.9038 381.825 Q91.7278 380.691 94.1815 380.112 Q96.6352 379.534 98.6722 379.534 Q104.043 379.534 107.237 382.219 Q110.431 384.904 110.431 389.395 Q110.431 391.524 109.621 393.445 Q108.834 395.344 106.728 397.936 Q106.149 398.607 103.047 401.825 Q99.9454 405.019 94.2973 410.783 Z" fill="#000000" fill-rule="evenodd" fill-opacity="1" /><path clip-path="url(#clip300)" d="M103.487 132.798 Q106.843 133.515 108.718 135.784 Q110.617 138.052 110.617 141.386 Q110.617 146.501 107.098 149.302 Q103.58 152.103 97.0982 152.103 Q94.9223 152.103 92.6075 151.663 Q90.3158 151.247 87.8621 150.39 L87.8621 145.876 Q89.8065 147.011 92.1213 147.589 Q94.4361 148.168 96.9593 148.168 Q101.357 148.168 103.649 146.432 Q105.964 144.696 105.964 141.386 Q105.964 138.33 103.811 136.617 Q101.681 134.881 97.8621 134.881 L93.8343 134.881 L93.8343 131.038 L98.0472 131.038 Q101.496 131.038 103.325 129.673 Q105.154 128.284 105.154 125.691 Q105.154 123.029 103.256 121.617 Q101.381 120.182 97.8621 120.182 Q95.9408 120.182 93.7417 120.599 Q91.5426 121.015 88.9038 121.895 L88.9038 117.728 Q91.5658 116.988 93.8806 116.617 Q96.2185 116.247 98.2787 116.247 Q103.603 116.247 106.705 118.677 Q109.806 121.085 109.806 125.205 Q109.806 128.076 108.163 130.066 Q106.519 132.034 103.487 132.798 Z" fill="#000000" fill-rule="evenodd" fill-opacity="1" /><polyline clip-path="url(#clip302)" style="stroke:#009af9; stroke-linecap:round; stroke-linejoin:round; stroke-width:4; stroke-opacity:1; fill:none" points="
  221.403,1187.3 225.226,1187.28 229.049,1187.24 232.873,1187.17 236.696,1187.08 254.371,1186.28 272.046,1184.89 289.721,1182.91 307.396,1180.36 325.072,1177.24 
  342.747,1173.55 360.422,1169.3 378.097,1164.51 399.341,1158.03 420.585,1150.8 441.83,1142.84 463.074,1134.17 481.035,1126.31 498.997,1117.99 516.959,1109.21 
  534.92,1100.01 554.432,1089.56 573.943,1078.65 593.454,1067.32 612.966,1055.61 648.941,1033.09 684.917,1009.56 762.056,956.725 851.429,893.931 891.141,866.368 
  930.853,839.454 965.677,816.628 1000.5,794.732 1019.48,783.257 1038.47,772.144 1057.45,761.423 1076.44,751.121 1095.53,741.208 1114.63,731.771 1133.73,722.836 
  1152.82,714.426 1173.94,705.765 1195.05,697.8 1216.16,690.556 1237.28,684.057 1257.37,678.583 1277.46,673.818 1297.54,669.775 1317.63,666.466 1338.52,663.814 
  1359.41,661.975 1380.3,660.953 1401.19,660.752 1418.77,661.22 1436.35,662.269 1453.94,663.897 1471.52,666.101 1492.99,669.564 1514.45,673.866 1535.92,678.992 
  1557.39,684.926 1577.05,691.055 1596.72,697.827 1616.38,705.226 1636.05,713.23 1654.21,721.141 1672.37,729.53 1690.54,738.378 1708.7,747.665 1727.1,757.496 
  1745.5,767.73 1763.89,778.343 1782.29,789.309 1823.53,815.031 1864.77,842.078 1902.14,867.457 1939.5,893.4 2025.07,953.532 2104.3,1007.9 2143.36,1033.47 
  2182.41,1057.85 2201.37,1069.17 2220.33,1080.12 2239.29,1090.66 2258.25,1100.78 2277.68,1110.68 2297.12,1120.08 2316.56,1128.95 2335.99,1137.26 2357.29,1145.71 
  2378.58,1153.43 2399.88,1160.41 2421.17,1166.63 2436.64,1170.65 2452.1,1174.25 2467.57,1177.42 2483.04,1180.16 2513.97,1184.32 2544.9,1186.69 2551.25,1186.96 
  2557.6,1187.15 2563.94,1187.26 2570.29,1187.3 
  "/>
<polyline clip-path="url(#clip302)" style="stroke:#e26f46; stroke-linecap:round; stroke-linejoin:round; stroke-width:4; stroke-opacity:1; fill:none" points="
  221.403,1751.15 236.696,1740.38 378.097,1640.79 463.074,1580.95 534.92,1530.35 612.966,1475.38 684.917,1424.71 762.056,1370.38 851.429,1307.44 930.853,1251.5 
  1000.5,1202.45 1076.44,1148.97 1152.82,1095.17 1237.28,1035.69 1317.63,979.095 1401.19,920.251 1471.52,870.717 1557.39,810.241 1636.05,754.841 1708.7,703.675 
  1782.29,651.846 1864.77,593.759 1939.5,541.124 2025.07,480.859 2104.3,425.06 2182.41,370.049 2258.25,316.637 2335.99,261.883 2421.17,201.894 2544.9,114.75 
  2570.29,96.8724 
  "/>
<path clip-path="url(#clip300)" d="
M2228.69 261.215 L2557.76 261.215 L2557.76 105.695 L2228.69 105.695  Z
  " fill="#ffffff" fill-rule="evenodd" fill-opacity="1"/>
<polyline clip-path="url(#clip300)" style="stroke:#000000; stroke-linecap:round; stroke-linejoin:round; stroke-width:4; stroke-opacity:1; fill:none" points="
  2228.69,261.215 2557.76,261.215 2557.76,105.695 2228.69,105.695 2228.69,261.215 
  "/>
<polyline clip-path="url(#clip300)" style="stroke:#009af9; stroke-linecap:round; stroke-linejoin:round; stroke-width:4; stroke-opacity:1; fill:none" points="
  2256.35,157.535 2422.34,157.535 
  "/>
<path clip-path="url(#clip300)" d="M2463.84 177.223 Q2462.04 181.852 2460.33 183.264 Q2458.61 184.676 2455.74 184.676 L2452.34 184.676 L2452.34 181.112 L2454.84 181.112 Q2456.6 181.112 2457.57 180.278 Q2458.54 179.445 2459.72 176.343 L2460.49 174.399 L2450 148.889 L2454.52 148.889 L2462.62 169.167 L2470.72 148.889 L2475.23 148.889 L2463.84 177.223 Z" fill="#000000" fill-rule="evenodd" fill-opacity="1" /><path clip-path="url(#clip300)" d="M2482.53 170.88 L2490.16 170.88 L2490.16 144.515 L2481.85 146.181 L2481.85 141.922 L2490.12 140.255 L2494.79 140.255 L2494.79 170.88 L2502.43 170.88 L2502.43 174.815 L2482.53 174.815 L2482.53 170.88 Z" fill="#000000" fill-rule="evenodd" fill-opacity="1" /><polyline clip-path="url(#clip300)" style="stroke:#e26f46; stroke-linecap:round; stroke-linejoin:round; stroke-width:4; stroke-opacity:1; fill:none" points="
  2256.35,209.375 2422.34,209.375 
  "/>
<path clip-path="url(#clip300)" d="M2463.84 229.063 Q2462.04 233.692 2460.33 235.104 Q2458.61 236.516 2455.74 236.516 L2452.34 236.516 L2452.34 232.952 L2454.84 232.952 Q2456.6 232.952 2457.57 232.118 Q2458.54 231.285 2459.72 228.183 L2460.49 226.239 L2450 200.729 L2454.52 200.729 L2462.62 221.007 L2470.72 200.729 L2475.23 200.729 L2463.84 229.063 Z" fill="#000000" fill-rule="evenodd" fill-opacity="1" /><path clip-path="url(#clip300)" d="M2485.74 222.72 L2502.06 222.72 L2502.06 226.655 L2480.12 226.655 L2480.12 222.72 Q2482.78 219.965 2487.36 215.336 Q2491.97 210.683 2493.15 209.341 Q2495.4 206.817 2496.28 205.081 Q2497.18 203.322 2497.18 201.632 Q2497.18 198.878 2495.23 197.142 Q2493.31 195.405 2490.21 195.405 Q2488.01 195.405 2485.56 196.169 Q2483.13 196.933 2480.35 198.484 L2480.35 193.762 Q2483.17 192.628 2485.63 192.049 Q2488.08 191.47 2490.12 191.47 Q2495.49 191.47 2498.68 194.155 Q2501.88 196.841 2501.88 201.331 Q2501.88 203.461 2501.07 205.382 Q2500.28 207.28 2498.17 209.873 Q2497.59 210.544 2494.49 213.762 Q2491.39 216.956 2485.74 222.72 Z" fill="#000000" fill-rule="evenodd" fill-opacity="1" /></svg>
