<?xml version="1.0" encoding="utf-8"?>
<svg xmlns="http://www.w3.org/2000/svg" xmlns:xlink="http://www.w3.org/1999/xlink" width="672" height="480" viewBox="0 0 2688 1920">
<defs>
  <clipPath id="clip680">
    <rect x="0" y="0" width="2688" height="1920"/>
  </clipPath>
</defs>
<path clip-path="url(#clip680)" d="
M0 1920 L2688 1920 L2688 0 L0 0  Z
  " fill="#ffffff" fill-rule="evenodd" fill-opacity="1"/>
<defs>
  <clipPath id="clip681">
    <rect x="537" y="0" width="1883" height="1883"/>
  </clipPath>
</defs>
<path clip-path="url(#clip680)" d="
M173.737 1800.78 L2640.76 1800.78 L2640.76 47.2441 L173.737 47.2441  Z
  " fill="#ffffff" fill-rule="evenodd" fill-opacity="1"/>
<defs>
  <clipPath id="clip682">
    <rect x="173" y="47" width="2468" height="1755"/>
  </clipPath>
</defs>
<polyline clip-path="url(#clip682)" style="stroke:#000000; stroke-linecap:butt; stroke-linejoin:round; stroke-width:2; stroke-opacity:0.1; fill:none" points="
  243.559,1800.78 243.559,47.2441 
  "/>
<polyline clip-path="url(#clip682)" style="stroke:#000000; stroke-linecap:butt; stroke-linejoin:round; stroke-width:2; stroke-opacity:0.1; fill:none" points="
  709.034,1800.78 709.034,47.2441 
  "/>
<polyline clip-path="url(#clip682)" style="stroke:#000000; stroke-linecap:butt; stroke-linejoin:round; stroke-width:2; stroke-opacity:0.1; fill:none" points="
  1174.51,1800.78 1174.51,47.2441 
  "/>
<polyline clip-path="url(#clip682)" style="stroke:#000000; stroke-linecap:butt; stroke-linejoin:round; stroke-width:2; stroke-opacity:0.1; fill:none" points="
  1639.98,1800.78 1639.98,47.2441 
  "/>
<polyline clip-path="url(#clip682)" style="stroke:#000000; stroke-linecap:butt; stroke-linejoin:round; stroke-width:2; stroke-opacity:0.1; fill:none" points="
  2105.46,1800.78 2105.46,47.2441 
  "/>
<polyline clip-path="url(#clip682)" style="stroke:#000000; stroke-linecap:butt; stroke-linejoin:round; stroke-width:2; stroke-opacity:0.1; fill:none" points="
  2570.93,1800.78 2570.93,47.2441 
  "/>
<polyline clip-path="url(#clip680)" style="stroke:#000000; stroke-linecap:butt; stroke-linejoin:round; stroke-width:4; stroke-opacity:1; fill:none" points="
  173.737,1800.78 2640.76,1800.78 
  "/>
<polyline clip-path="url(#clip680)" style="stroke:#000000; stroke-linecap:butt; stroke-linejoin:round; stroke-width:4; stroke-opacity:1; fill:none" points="
  243.559,1800.78 243.559,1781.88 
  "/>
<polyline clip-path="url(#clip680)" style="stroke:#000000; stroke-linecap:butt; stroke-linejoin:round; stroke-width:4; stroke-opacity:1; fill:none" points="
  709.034,1800.78 709.034,1781.88 
  "/>
<polyline clip-path="url(#clip680)" style="stroke:#000000; stroke-linecap:butt; stroke-linejoin:round; stroke-width:4; stroke-opacity:1; fill:none" points="
  1174.51,1800.78 1174.51,1781.88 
  "/>
<polyline clip-path="url(#clip680)" style="stroke:#000000; stroke-linecap:butt; stroke-linejoin:round; stroke-width:4; stroke-opacity:1; fill:none" points="
  1639.98,1800.78 1639.98,1781.88 
  "/>
<polyline clip-path="url(#clip680)" style="stroke:#000000; stroke-linecap:butt; stroke-linejoin:round; stroke-width:4; stroke-opacity:1; fill:none" points="
  2105.46,1800.78 2105.46,1781.88 
  "/>
<polyline clip-path="url(#clip680)" style="stroke:#000000; stroke-linecap:butt; stroke-linejoin:round; stroke-width:4; stroke-opacity:1; fill:none" points="
  2570.93,1800.78 2570.93,1781.88 
  "/>
<path clip-path="url(#clip680)" d="M243.559 1834 Q239.948 1834 238.119 1837.57 Q236.313 1841.11 236.313 1848.24 Q236.313 1855.34 238.119 1858.91 Q239.948 1862.45 243.559 1862.45 Q247.193 1862.45 248.998 1858.91 Q250.827 1855.34 250.827 1848.24 Q250.827 1841.11 248.998 1837.57 Q247.193 1834 243.559 1834 M243.559 1830.3 Q249.369 1830.3 252.424 1834.9 Q255.503 1839.49 255.503 1848.24 Q255.503 1856.96 252.424 1861.57 Q249.369 1866.15 243.559 1866.15 Q237.749 1866.15 234.67 1861.57 Q231.614 1856.96 231.614 1848.24 Q231.614 1839.49 234.67 1834.9 Q237.749 1830.3 243.559 1830.3 Z" fill="#000000" fill-rule="evenodd" fill-opacity="1" /><path clip-path="url(#clip680)" d="M668.641 1861.55 L676.279 1861.55 L676.279 1835.18 L667.969 1836.85 L667.969 1832.59 L676.233 1830.92 L680.909 1830.92 L680.909 1861.55 L688.548 1861.55 L688.548 1865.48 L668.641 1865.48 L668.641 1861.55 Z" fill="#000000" fill-rule="evenodd" fill-opacity="1" /><path clip-path="url(#clip680)" d="M707.992 1834 Q704.381 1834 702.552 1837.57 Q700.747 1841.11 700.747 1848.24 Q700.747 1855.34 702.552 1858.91 Q704.381 1862.45 707.992 1862.45 Q711.626 1862.45 713.432 1858.91 Q715.261 1855.34 715.261 1848.24 Q715.261 1841.11 713.432 1837.57 Q711.626 1834 707.992 1834 M707.992 1830.3 Q713.802 1830.3 716.858 1834.9 Q719.937 1839.49 719.937 1848.24 Q719.937 1856.96 716.858 1861.57 Q713.802 1866.15 707.992 1866.15 Q702.182 1866.15 699.103 1861.57 Q696.048 1856.96 696.048 1848.24 Q696.048 1839.49 699.103 1834.9 Q702.182 1830.3 707.992 1830.3 Z" fill="#000000" fill-rule="evenodd" fill-opacity="1" /><path clip-path="url(#clip680)" d="M738.154 1834 Q734.543 1834 732.714 1837.57 Q730.909 1841.11 730.909 1848.24 Q730.909 1855.34 732.714 1858.91 Q734.543 1862.45 738.154 1862.45 Q741.788 1862.45 743.594 1858.91 Q745.423 1855.34 745.423 1848.24 Q745.423 1841.11 743.594 1837.57 Q741.788 1834 738.154 1834 M738.154 1830.3 Q743.964 1830.3 747.02 1834.9 Q750.098 1839.49 750.098 1848.24 Q750.098 1856.96 747.02 1861.57 Q743.964 1866.15 738.154 1866.15 Q732.344 1866.15 729.265 1861.57 Q726.21 1856.96 726.21 1848.24 Q726.21 1839.49 729.265 1834.9 Q732.344 1830.3 738.154 1830.3 Z" fill="#000000" fill-rule="evenodd" fill-opacity="1" /><path clip-path="url(#clip680)" d="M1138.2 1861.55 L1154.52 1861.55 L1154.52 1865.48 L1132.58 1865.48 L1132.58 1861.55 Q1135.24 1858.79 1139.82 1854.16 Q1144.43 1849.51 1145.61 1848.17 Q1147.85 1845.65 1148.73 1843.91 Q1149.64 1842.15 1149.64 1840.46 Q1149.64 1837.71 1147.69 1835.97 Q1145.77 1834.23 1142.67 1834.23 Q1140.47 1834.23 1138.02 1835 Q1135.59 1835.76 1132.81 1837.31 L1132.81 1832.59 Q1135.63 1831.46 1138.09 1830.88 Q1140.54 1830.3 1142.58 1830.3 Q1147.95 1830.3 1151.14 1832.98 Q1154.34 1835.67 1154.34 1840.16 Q1154.34 1842.29 1153.53 1844.21 Q1152.74 1846.11 1150.63 1848.7 Q1150.05 1849.37 1146.95 1852.59 Q1143.85 1855.78 1138.2 1861.55 Z" fill="#000000" fill-rule="evenodd" fill-opacity="1" /><path clip-path="url(#clip680)" d="M1174.34 1834 Q1170.72 1834 1168.9 1837.57 Q1167.09 1841.11 1167.09 1848.24 Q1167.09 1855.34 1168.9 1858.91 Q1170.72 1862.45 1174.34 1862.45 Q1177.97 1862.45 1179.78 1858.91 Q1181.6 1855.34 1181.6 1848.24 Q1181.6 1841.11 1179.78 1837.57 Q1177.97 1834 1174.34 1834 M1174.34 1830.3 Q1180.15 1830.3 1183.2 1834.9 Q1186.28 1839.49 1186.28 1848.24 Q1186.28 1856.96 1183.2 1861.57 Q1180.15 1866.15 1174.34 1866.15 Q1168.53 1866.15 1165.45 1861.57 Q1162.39 1856.96 1162.39 1848.24 Q1162.39 1839.49 1165.45 1834.9 Q1168.53 1830.3 1174.34 1830.3 Z" fill="#000000" fill-rule="evenodd" fill-opacity="1" /><path clip-path="url(#clip680)" d="M1204.5 1834 Q1200.89 1834 1199.06 1837.57 Q1197.25 1841.11 1197.25 1848.24 Q1197.25 1855.34 1199.06 1858.91 Q1200.89 1862.45 1204.5 1862.45 Q1208.13 1862.45 1209.94 1858.91 Q1211.77 1855.34 1211.77 1848.24 Q1211.77 1841.11 1209.94 1837.57 Q1208.13 1834 1204.5 1834 M1204.5 1830.3 Q1210.31 1830.3 1213.36 1834.9 Q1216.44 1839.49 1216.44 1848.24 Q1216.44 1856.96 1213.36 1861.57 Q1210.31 1866.15 1204.5 1866.15 Q1198.69 1866.15 1195.61 1861.57 Q1192.55 1856.96 1192.55 1848.24 Q1192.55 1839.49 1195.61 1834.9 Q1198.69 1830.3 1204.5 1830.3 Z" fill="#000000" fill-rule="evenodd" fill-opacity="1" /><path clip-path="url(#clip680)" d="M1613.75 1846.85 Q1617.1 1847.57 1618.98 1849.84 Q1620.88 1852.1 1620.88 1855.44 Q1620.88 1860.55 1617.36 1863.35 Q1613.84 1866.15 1607.36 1866.15 Q1605.18 1866.15 1602.87 1865.71 Q1600.57 1865.3 1598.12 1864.44 L1598.12 1859.93 Q1600.07 1861.06 1602.38 1861.64 Q1604.7 1862.22 1607.22 1862.22 Q1611.62 1862.22 1613.91 1860.48 Q1616.22 1858.75 1616.22 1855.44 Q1616.22 1852.38 1614.07 1850.67 Q1611.94 1848.93 1608.12 1848.93 L1604.09 1848.93 L1604.09 1845.09 L1608.31 1845.09 Q1611.76 1845.09 1613.58 1843.72 Q1615.41 1842.34 1615.41 1839.74 Q1615.41 1837.08 1613.51 1835.67 Q1611.64 1834.23 1608.12 1834.23 Q1606.2 1834.23 1604 1834.65 Q1601.8 1835.07 1599.16 1835.95 L1599.16 1831.78 Q1601.82 1831.04 1604.14 1830.67 Q1606.48 1830.3 1608.54 1830.3 Q1613.86 1830.3 1616.96 1832.73 Q1620.07 1835.14 1620.07 1839.26 Q1620.07 1842.13 1618.42 1844.12 Q1616.78 1846.09 1613.75 1846.85 Z" fill="#000000" fill-rule="evenodd" fill-opacity="1" /><path clip-path="url(#clip680)" d="M1639.74 1834 Q1636.13 1834 1634.3 1837.57 Q1632.5 1841.11 1632.5 1848.24 Q1632.5 1855.34 1634.3 1858.91 Q1636.13 1862.45 1639.74 1862.45 Q1643.38 1862.45 1645.18 1858.91 Q1647.01 1855.34 1647.01 1848.24 Q1647.01 1841.11 1645.18 1837.57 Q1643.38 1834 1639.74 1834 M1639.74 1830.3 Q1645.55 1830.3 1648.61 1834.9 Q1651.69 1839.49 1651.69 1848.24 Q1651.69 1856.96 1648.61 1861.57 Q1645.55 1866.15 1639.74 1866.15 Q1633.93 1866.15 1630.85 1861.57 Q1627.8 1856.96 1627.8 1848.24 Q1627.8 1839.49 1630.85 1834.9 Q1633.93 1830.3 1639.74 1830.3 Z" fill="#000000" fill-rule="evenodd" fill-opacity="1" /><path clip-path="url(#clip680)" d="M1669.9 1834 Q1666.29 1834 1664.46 1837.57 Q1662.66 1841.11 1662.66 1848.24 Q1662.66 1855.34 1664.46 1858.91 Q1666.29 1862.45 1669.9 1862.45 Q1673.54 1862.45 1675.34 1858.91 Q1677.17 1855.34 1677.17 1848.24 Q1677.17 1841.11 1675.34 1837.57 Q1673.54 1834 1669.9 1834 M1669.9 1830.3 Q1675.71 1830.3 1678.77 1834.9 Q1681.85 1839.49 1681.85 1848.24 Q1681.85 1856.96 1678.77 1861.57 Q1675.71 1866.15 1669.9 1866.15 Q1664.09 1866.15 1661.01 1861.57 Q1657.96 1856.96 1657.96 1848.24 Q1657.96 1839.49 1661.01 1834.9 Q1664.09 1830.3 1669.9 1830.3 Z" fill="#000000" fill-rule="evenodd" fill-opacity="1" /><path clip-path="url(#clip680)" d="M2078.55 1835 L2066.74 1853.45 L2078.55 1853.45 L2078.55 1835 M2077.32 1830.92 L2083.2 1830.92 L2083.2 1853.45 L2088.13 1853.45 L2088.13 1857.34 L2083.2 1857.34 L2083.2 1865.48 L2078.55 1865.48 L2078.55 1857.34 L2062.95 1857.34 L2062.95 1852.82 L2077.32 1830.92 Z" fill="#000000" fill-rule="evenodd" fill-opacity="1" /><path clip-path="url(#clip680)" d="M2105.86 1834 Q2102.25 1834 2100.42 1837.57 Q2098.62 1841.11 2098.62 1848.24 Q2098.62 1855.34 2100.42 1858.91 Q2102.25 1862.45 2105.86 1862.45 Q2109.5 1862.45 2111.3 1858.91 Q2113.13 1855.34 2113.13 1848.24 Q2113.13 1841.11 2111.3 1837.57 Q2109.5 1834 2105.86 1834 M2105.86 1830.3 Q2111.67 1830.3 2114.73 1834.9 Q2117.81 1839.49 2117.81 1848.24 Q2117.81 1856.96 2114.73 1861.57 Q2111.67 1866.15 2105.86 1866.15 Q2100.05 1866.15 2096.98 1861.57 Q2093.92 1856.96 2093.92 1848.24 Q2093.92 1839.49 2096.98 1834.9 Q2100.05 1830.3 2105.86 1830.3 Z" fill="#000000" fill-rule="evenodd" fill-opacity="1" /><path clip-path="url(#clip680)" d="M2136.03 1834 Q2132.42 1834 2130.59 1837.57 Q2128.78 1841.11 2128.78 1848.24 Q2128.78 1855.34 2130.59 1858.91 Q2132.42 1862.45 2136.03 1862.45 Q2139.66 1862.45 2141.47 1858.91 Q2143.29 1855.34 2143.29 1848.24 Q2143.29 1841.11 2141.47 1837.57 Q2139.66 1834 2136.03 1834 M2136.03 1830.3 Q2141.84 1830.3 2144.89 1834.9 Q2147.97 1839.49 2147.97 1848.24 Q2147.97 1856.96 2144.89 1861.57 Q2141.84 1866.15 2136.03 1866.15 Q2130.22 1866.15 2127.14 1861.57 Q2124.08 1856.96 2124.08 1848.24 Q2124.08 1839.49 2127.14 1834.9 Q2130.22 1830.3 2136.03 1830.3 Z" fill="#000000" fill-rule="evenodd" fill-opacity="1" /><path clip-path="url(#clip680)" d="M2530.55 1830.92 L2548.91 1830.92 L2548.91 1834.86 L2534.84 1834.86 L2534.84 1843.33 Q2535.85 1842.98 2536.87 1842.82 Q2537.89 1842.64 2538.91 1842.64 Q2544.7 1842.64 2548.08 1845.81 Q2551.46 1848.98 2551.46 1854.4 Q2551.46 1859.97 2547.98 1863.08 Q2544.51 1866.15 2538.19 1866.15 Q2536.02 1866.15 2533.75 1865.78 Q2531.5 1865.41 2529.09 1864.67 L2529.09 1859.97 Q2531.18 1861.11 2533.4 1861.66 Q2535.62 1862.22 2538.1 1862.22 Q2542.1 1862.22 2544.44 1860.11 Q2546.78 1858.01 2546.78 1854.4 Q2546.78 1850.78 2544.44 1848.68 Q2542.1 1846.57 2538.1 1846.57 Q2536.22 1846.57 2534.35 1846.99 Q2532.5 1847.4 2530.55 1848.28 L2530.55 1830.92 Z" fill="#000000" fill-rule="evenodd" fill-opacity="1" /><path clip-path="url(#clip680)" d="M2570.67 1834 Q2567.06 1834 2565.23 1837.57 Q2563.42 1841.11 2563.42 1848.24 Q2563.42 1855.34 2565.23 1858.91 Q2567.06 1862.45 2570.67 1862.45 Q2574.3 1862.45 2576.11 1858.91 Q2577.94 1855.34 2577.94 1848.24 Q2577.94 1841.11 2576.11 1837.57 Q2574.3 1834 2570.67 1834 M2570.67 1830.3 Q2576.48 1830.3 2579.53 1834.9 Q2582.61 1839.49 2582.61 1848.24 Q2582.61 1856.96 2579.53 1861.57 Q2576.48 1866.15 2570.67 1866.15 Q2564.86 1866.15 2561.78 1861.57 Q2558.72 1856.96 2558.72 1848.24 Q2558.72 1839.49 2561.78 1834.9 Q2564.86 1830.3 2570.67 1830.3 Z" fill="#000000" fill-rule="evenodd" fill-opacity="1" /><path clip-path="url(#clip680)" d="M2600.83 1834 Q2597.22 1834 2595.39 1837.57 Q2593.58 1841.11 2593.58 1848.24 Q2593.58 1855.34 2595.39 1858.91 Q2597.22 1862.45 2600.83 1862.45 Q2604.46 1862.45 2606.27 1858.91 Q2608.1 1855.34 2608.1 1848.24 Q2608.1 1841.11 2606.27 1837.57 Q2604.46 1834 2600.83 1834 M2600.83 1830.3 Q2606.64 1830.3 2609.7 1834.9 Q2612.77 1839.49 2612.77 1848.24 Q2612.77 1856.96 2609.7 1861.57 Q2606.64 1866.15 2600.83 1866.15 Q2595.02 1866.15 2591.94 1861.57 Q2588.89 1856.96 2588.89 1848.24 Q2588.89 1839.49 2591.94 1834.9 Q2595.02 1830.3 2600.83 1830.3 Z" fill="#000000" fill-rule="evenodd" fill-opacity="1" /><polyline clip-path="url(#clip682)" style="stroke:#000000; stroke-linecap:butt; stroke-linejoin:round; stroke-width:2; stroke-opacity:0.1; fill:none" points="
  173.737,1751.15 2640.76,1751.15 
  "/>
<polyline clip-path="url(#clip682)" style="stroke:#000000; stroke-linecap:butt; stroke-linejoin:round; stroke-width:2; stroke-opacity:0.1; fill:none" points="
  173.737,1199.72 2640.76,1199.72 
  "/>
<polyline clip-path="url(#clip682)" style="stroke:#000000; stroke-linecap:butt; stroke-linejoin:round; stroke-width:2; stroke-opacity:0.1; fill:none" points="
  173.737,648.299 2640.76,648.299 
  "/>
<polyline clip-path="url(#clip682)" style="stroke:#000000; stroke-linecap:butt; stroke-linejoin:round; stroke-width:2; stroke-opacity:0.1; fill:none" points="
  173.737,96.8724 2640.76,96.8724 
  "/>
<polyline clip-path="url(#clip680)" style="stroke:#000000; stroke-linecap:butt; stroke-linejoin:round; stroke-width:4; stroke-opacity:1; fill:none" points="
  173.737,1800.78 173.737,47.2441 
  "/>
<polyline clip-path="url(#clip680)" style="stroke:#000000; stroke-linecap:butt; stroke-linejoin:round; stroke-width:4; stroke-opacity:1; fill:none" points="
  173.737,1751.15 192.635,1751.15 
  "/>
<polyline clip-path="url(#clip680)" style="stroke:#000000; stroke-linecap:butt; stroke-linejoin:round; stroke-width:4; stroke-opacity:1; fill:none" points="
  173.737,1199.72 192.635,1199.72 
  "/>
<polyline clip-path="url(#clip680)" style="stroke:#000000; stroke-linecap:butt; stroke-linejoin:round; stroke-width:4; stroke-opacity:1; fill:none" points="
  173.737,648.299 192.635,648.299 
  "/>
<polyline clip-path="url(#clip680)" style="stroke:#000000; stroke-linecap:butt; stroke-linejoin:round; stroke-width:4; stroke-opacity:1; fill:none" points="
  173.737,96.8724 192.635,96.8724 
  "/>
<path clip-path="url(#clip680)" d="M121.473 1736.95 Q117.862 1736.95 116.033 1740.51 Q114.228 1744.06 114.228 1751.19 Q114.228 1758.29 116.033 1761.86 Q117.862 1765.4 121.473 1765.4 Q125.107 1765.4 126.913 1761.86 Q128.742 1758.29 128.742 1751.19 Q128.742 1744.06 126.913 1740.51 Q125.107 1736.95 121.473 1736.95 M121.473 1733.25 Q127.283 1733.25 130.339 1737.85 Q133.417 1742.44 133.417 1751.19 Q133.417 1759.91 130.339 1764.52 Q127.283 1769.1 121.473 1769.1 Q115.663 1769.1 112.584 1764.52 Q109.529 1759.91 109.529 1751.19 Q109.529 1742.44 112.584 1737.85 Q115.663 1733.25 121.473 1733.25 Z" fill="#000000" fill-rule="evenodd" fill-opacity="1" /><path clip-path="url(#clip680)" d="M51.9595 1213.07 L59.5984 1213.07 L59.5984 1186.7 L51.2882 1188.37 L51.2882 1184.11 L59.5521 1182.44 L64.228 1182.44 L64.228 1213.07 L71.8668 1213.07 L71.8668 1217 L51.9595 1217 L51.9595 1213.07 Z" fill="#000000" fill-rule="evenodd" fill-opacity="1" /><path clip-path="url(#clip680)" d="M91.3112 1185.52 Q87.7001 1185.52 85.8714 1189.09 Q84.0658 1192.63 84.0658 1199.76 Q84.0658 1206.87 85.8714 1210.43 Q87.7001 1213.97 91.3112 1213.97 Q94.9454 1213.97 96.7509 1210.43 Q98.5796 1206.87 98.5796 1199.76 Q98.5796 1192.63 96.7509 1189.09 Q94.9454 1185.52 91.3112 1185.52 M91.3112 1181.82 Q97.1213 1181.82 100.177 1186.43 Q103.256 1191.01 103.256 1199.76 Q103.256 1208.49 100.177 1213.09 Q97.1213 1217.68 91.3112 1217.68 Q85.501 1217.68 82.4223 1213.09 Q79.3668 1208.49 79.3668 1199.76 Q79.3668 1191.01 82.4223 1186.43 Q85.501 1181.82 91.3112 1181.82 Z" fill="#000000" fill-rule="evenodd" fill-opacity="1" /><path clip-path="url(#clip680)" d="M121.473 1185.52 Q117.862 1185.52 116.033 1189.09 Q114.228 1192.63 114.228 1199.76 Q114.228 1206.87 116.033 1210.43 Q117.862 1213.97 121.473 1213.97 Q125.107 1213.97 126.913 1210.43 Q128.742 1206.87 128.742 1199.76 Q128.742 1192.63 126.913 1189.09 Q125.107 1185.52 121.473 1185.52 M121.473 1181.82 Q127.283 1181.82 130.339 1186.43 Q133.417 1191.01 133.417 1199.76 Q133.417 1208.49 130.339 1213.09 Q127.283 1217.68 121.473 1217.68 Q115.663 1217.68 112.584 1213.09 Q109.529 1208.49 109.529 1199.76 Q109.529 1191.01 112.584 1186.43 Q115.663 1181.82 121.473 1181.82 Z" fill="#000000" fill-rule="evenodd" fill-opacity="1" /><path clip-path="url(#clip680)" d="M55.1771 661.643 L71.4965 661.643 L71.4965 665.579 L49.5521 665.579 L49.5521 661.643 Q52.2141 658.889 56.7975 654.259 Q61.4039 649.606 62.5845 648.264 Q64.8298 645.741 65.7094 644.005 Q66.6122 642.245 66.6122 640.556 Q66.6122 637.801 64.6678 636.065 Q62.7465 634.329 59.6447 634.329 Q57.4456 634.329 54.9919 635.093 Q52.5614 635.857 49.7836 637.407 L49.7836 632.685 Q52.6077 631.551 55.0614 630.972 Q57.515 630.394 59.5521 630.394 Q64.9224 630.394 68.1168 633.079 Q71.3113 635.764 71.3113 640.255 Q71.3113 642.384 70.5011 644.306 Q69.7141 646.204 67.6076 648.796 Q67.0289 649.468 63.927 652.685 Q60.8252 655.88 55.1771 661.643 Z" fill="#000000" fill-rule="evenodd" fill-opacity="1" /><path clip-path="url(#clip680)" d="M91.3112 634.097 Q87.7001 634.097 85.8714 637.662 Q84.0658 641.204 84.0658 648.333 Q84.0658 655.44 85.8714 659.005 Q87.7001 662.546 91.3112 662.546 Q94.9454 662.546 96.7509 659.005 Q98.5796 655.44 98.5796 648.333 Q98.5796 641.204 96.7509 637.662 Q94.9454 634.097 91.3112 634.097 M91.3112 630.394 Q97.1213 630.394 100.177 635 Q103.256 639.583 103.256 648.333 Q103.256 657.06 100.177 661.667 Q97.1213 666.25 91.3112 666.25 Q85.501 666.25 82.4223 661.667 Q79.3668 657.06 79.3668 648.333 Q79.3668 639.583 82.4223 635 Q85.501 630.394 91.3112 630.394 Z" fill="#000000" fill-rule="evenodd" fill-opacity="1" /><path clip-path="url(#clip680)" d="M121.473 634.097 Q117.862 634.097 116.033 637.662 Q114.228 641.204 114.228 648.333 Q114.228 655.44 116.033 659.005 Q117.862 662.546 121.473 662.546 Q125.107 662.546 126.913 659.005 Q128.742 655.44 128.742 648.333 Q128.742 641.204 126.913 637.662 Q125.107 634.097 121.473 634.097 M121.473 630.394 Q127.283 630.394 130.339 635 Q133.417 639.583 133.417 648.333 Q133.417 657.06 130.339 661.667 Q127.283 666.25 121.473 666.25 Q115.663 666.25 112.584 661.667 Q109.529 657.06 109.529 648.333 Q109.529 639.583 112.584 635 Q115.663 630.394 121.473 630.394 Z" fill="#000000" fill-rule="evenodd" fill-opacity="1" /><path clip-path="url(#clip680)" d="M65.3159 95.5183 Q68.6724 96.2359 70.5474 98.5044 Q72.4455 100.773 72.4455 104.106 Q72.4455 109.222 68.927 112.023 Q65.4085 114.824 58.9271 114.824 Q56.7512 114.824 54.4364 114.384 Q52.1447 113.967 49.691 113.111 L49.691 108.597 Q51.6354 109.731 53.9503 110.31 Q56.2651 110.889 58.7882 110.889 Q63.1863 110.889 65.478 109.152 Q67.7928 107.416 67.7928 104.106 Q67.7928 101.051 65.64 99.3377 Q63.5104 97.6016 59.691 97.6016 L55.6632 97.6016 L55.6632 93.759 L59.8761 93.759 Q63.3252 93.759 65.1539 92.3933 Q66.9826 91.0044 66.9826 88.4118 Q66.9826 85.7498 65.0845 84.3378 Q63.2095 82.9026 59.691 82.9026 Q57.7697 82.9026 55.5706 83.3193 Q53.3715 83.7359 50.7327 84.6156 L50.7327 80.4489 Q53.3947 79.7082 55.7095 79.3378 Q58.0475 78.9675 60.1076 78.9675 Q65.4317 78.9675 68.5335 81.398 Q71.6353 83.8054 71.6353 87.9257 Q71.6353 90.7961 69.9918 92.7868 Q68.3483 94.7544 65.3159 95.5183 Z" fill="#000000" fill-rule="evenodd" fill-opacity="1" /><path clip-path="url(#clip680)" d="M91.3112 82.6711 Q87.7001 82.6711 85.8714 86.2359 Q84.0658 89.7776 84.0658 96.9072 Q84.0658 104.014 85.8714 107.578 Q87.7001 111.12 91.3112 111.12 Q94.9454 111.12 96.7509 107.578 Q98.5796 104.014 98.5796 96.9072 Q98.5796 89.7776 96.7509 86.2359 Q94.9454 82.6711 91.3112 82.6711 M91.3112 78.9675 Q97.1213 78.9675 100.177 83.5739 Q103.256 88.1572 103.256 96.9072 Q103.256 105.634 100.177 110.24 Q97.1213 114.824 91.3112 114.824 Q85.501 114.824 82.4223 110.24 Q79.3668 105.634 79.3668 96.9072 Q79.3668 88.1572 82.4223 83.5739 Q85.501 78.9675 91.3112 78.9675 Z" fill="#000000" fill-rule="evenodd" fill-opacity="1" /><path clip-path="url(#clip680)" d="M121.473 82.6711 Q117.862 82.6711 116.033 86.2359 Q114.228 89.7776 114.228 96.9072 Q114.228 104.014 116.033 107.578 Q117.862 111.12 121.473 111.12 Q125.107 111.12 126.913 107.578 Q128.742 104.014 128.742 96.9072 Q128.742 89.7776 126.913 86.2359 Q125.107 82.6711 121.473 82.6711 M121.473 78.9675 Q127.283 78.9675 130.339 83.5739 Q133.417 88.1572 133.417 96.9072 Q133.417 105.634 130.339 110.24 Q127.283 114.824 121.473 114.824 Q115.663 114.824 112.584 110.24 Q109.529 105.634 109.529 96.9072 Q109.529 88.1572 112.584 83.5739 Q115.663 78.9675 121.473 78.9675 Z" fill="#000000" fill-rule="evenodd" fill-opacity="1" /><polyline clip-path="url(#clip682)" style="stroke:#009af9; stroke-linecap:butt; stroke-linejoin:round; stroke-width:4; stroke-opacity:1; fill:none" points="
  243.559,1751.15 258.711,1733.25 398.818,1572.13 483.016,1479.15 554.205,1402.79 631.535,1322.18 702.827,1250.02 779.26,1174.96 867.815,1090.97 946.512,1019.01 
  1015.52,957.976 1090.76,893.647 1166.45,831.262 1250.13,765.002 1329.75,704.605 1412.54,644.544 1482.23,596.148 1567.31,539.744 1645.25,490.661 1717.23,447.527 
  1790.15,405.984 1871.87,362 1945.93,324.491 2030.71,284.288 2109.21,249.674 2186.61,218.005 2261.75,189.591 2338.78,162.849 2423.18,136.325 2545.78,102.961 
  2570.93,96.8724 
  "/>
<path clip-path="url(#clip680)" d="
M2231.98 209.375 L2558.52 209.375 L2558.52 105.695 L2231.98 105.695  Z
  " fill="#ffffff" fill-rule="evenodd" fill-opacity="1"/>
<polyline clip-path="url(#clip680)" style="stroke:#000000; stroke-linecap:butt; stroke-linejoin:round; stroke-width:4; stroke-opacity:1; fill:none" points="
  2231.98,209.375 2558.52,209.375 2558.52,105.695 2231.98,105.695 2231.98,209.375 
  "/>
<polyline clip-path="url(#clip680)" style="stroke:#009af9; stroke-linecap:butt; stroke-linejoin:round; stroke-width:4; stroke-opacity:1; fill:none" points="
  2259.39,157.535 2423.86,157.535 
  "/>
<path clip-path="url(#clip680)" d="M2465.11 177.223 Q2463.31 181.852 2461.59 183.264 Q2459.88 184.676 2457.01 184.676 L2453.61 184.676 L2453.61 181.112 L2456.11 181.112 Q2457.87 181.112 2458.84 180.278 Q2459.81 179.445 2460.99 176.343 L2461.76 174.399 L2451.27 148.889 L2455.78 148.889 L2463.88 169.167 L2471.99 148.889 L2476.5 148.889 L2465.11 177.223 Z" fill="#000000" fill-rule="evenodd" fill-opacity="1" /><path clip-path="url(#clip680)" d="M2483.79 170.88 L2491.43 170.88 L2491.43 144.515 L2483.12 146.181 L2483.12 141.922 L2491.38 140.255 L2496.06 140.255 L2496.06 170.88 L2503.7 170.88 L2503.7 174.815 L2483.79 174.815 L2483.79 170.88 Z" fill="#000000" fill-rule="evenodd" fill-opacity="1" /></svg>
