<?xml version="1.0" encoding="utf-8"?>
<svg xmlns="http://www.w3.org/2000/svg" xmlns:xlink="http://www.w3.org/1999/xlink" width="672" height="480" viewBox="0 0 2688 1920">
<defs>
  <clipPath id="clip600">
    <rect x="0" y="0" width="2688" height="1920"/>
  </clipPath>
</defs>
<path clip-path="url(#clip600)" d="
M0 1920 L2688 1920 L2688 0 L0 0  Z
  " fill="#ffffff" fill-rule="evenodd" fill-opacity="1"/>
<defs>
  <clipPath id="clip601">
    <rect x="537" y="0" width="1883" height="1883"/>
  </clipPath>
</defs>
<path clip-path="url(#clip600)" d="
M232.325 1800.78 L2640.76 1800.78 L2640.76 47.2441 L232.325 47.2441  Z
  " fill="#ffffff" fill-rule="evenodd" fill-opacity="1"/>
<defs>
  <clipPath id="clip602">
    <rect x="232" y="47" width="2409" height="1755"/>
  </clipPath>
</defs>
<polyline clip-path="url(#clip602)" style="stroke:#000000; stroke-linecap:round; stroke-linejoin:round; stroke-width:2; stroke-opacity:0.1; fill:none" points="
  300.488,1800.78 300.488,47.2441 
  "/>
<polyline clip-path="url(#clip602)" style="stroke:#000000; stroke-linecap:round; stroke-linejoin:round; stroke-width:2; stroke-opacity:0.1; fill:none" points="
  754.909,1800.78 754.909,47.2441 
  "/>
<polyline clip-path="url(#clip602)" style="stroke:#000000; stroke-linecap:round; stroke-linejoin:round; stroke-width:2; stroke-opacity:0.1; fill:none" points="
  1209.33,1800.78 1209.33,47.2441 
  "/>
<polyline clip-path="url(#clip602)" style="stroke:#000000; stroke-linecap:round; stroke-linejoin:round; stroke-width:2; stroke-opacity:0.1; fill:none" points="
  1663.75,1800.78 1663.75,47.2441 
  "/>
<polyline clip-path="url(#clip602)" style="stroke:#000000; stroke-linecap:round; stroke-linejoin:round; stroke-width:2; stroke-opacity:0.1; fill:none" points="
  2118.17,1800.78 2118.17,47.2441 
  "/>
<polyline clip-path="url(#clip602)" style="stroke:#000000; stroke-linecap:round; stroke-linejoin:round; stroke-width:2; stroke-opacity:0.1; fill:none" points="
  2572.59,1800.78 2572.59,47.2441 
  "/>
<polyline clip-path="url(#clip600)" style="stroke:#000000; stroke-linecap:round; stroke-linejoin:round; stroke-width:4; stroke-opacity:1; fill:none" points="
  232.325,1800.78 2640.76,1800.78 
  "/>
<polyline clip-path="url(#clip600)" style="stroke:#000000; stroke-linecap:round; stroke-linejoin:round; stroke-width:4; stroke-opacity:1; fill:none" points="
  300.488,1800.78 300.488,1781.88 
  "/>
<polyline clip-path="url(#clip600)" style="stroke:#000000; stroke-linecap:round; stroke-linejoin:round; stroke-width:4; stroke-opacity:1; fill:none" points="
  754.909,1800.78 754.909,1781.88 
  "/>
<polyline clip-path="url(#clip600)" style="stroke:#000000; stroke-linecap:round; stroke-linejoin:round; stroke-width:4; stroke-opacity:1; fill:none" points="
  1209.33,1800.78 1209.33,1781.88 
  "/>
<polyline clip-path="url(#clip600)" style="stroke:#000000; stroke-linecap:round; stroke-linejoin:round; stroke-width:4; stroke-opacity:1; fill:none" points="
  1663.75,1800.78 1663.75,1781.88 
  "/>
<polyline clip-path="url(#clip600)" style="stroke:#000000; stroke-linecap:round; stroke-linejoin:round; stroke-width:4; stroke-opacity:1; fill:none" points="
  2118.17,1800.78 2118.17,1781.88 
  "/>
<polyline clip-path="url(#clip600)" style="stroke:#000000; stroke-linecap:round; stroke-linejoin:round; stroke-width:4; stroke-opacity:1; fill:none" points="
  2572.59,1800.78 2572.59,1781.88 
  "/>
<path clip-path="url(#clip600)" d="M290.766 1830.92 L309.122 1830.92 L309.122 1834.86 L295.048 1834.86 L295.048 1843.33 Q296.067 1842.98 297.085 1842.82 Q298.104 1842.64 299.122 1842.64 Q304.909 1842.64 308.289 1845.81 Q311.669 1848.98 311.669 1854.4 Q311.669 1859.97 308.196 1863.08 Q304.724 1866.15 298.405 1866.15 Q296.229 1866.15 293.96 1865.78 Q291.715 1865.41 289.308 1864.67 L289.308 1859.97 Q291.391 1861.11 293.613 1861.66 Q295.835 1862.22 298.312 1862.22 Q302.317 1862.22 304.655 1860.11 Q306.993 1858.01 306.993 1854.4 Q306.993 1850.78 304.655 1848.68 Q302.317 1846.57 298.312 1846.57 Q296.437 1846.57 294.562 1846.99 Q292.71 1847.4 290.766 1848.28 L290.766 1830.92 Z" fill="#000000" fill-rule="evenodd" fill-opacity="1" /><path clip-path="url(#clip600)" d="M755.314 1846.34 Q752.166 1846.34 750.314 1848.49 Q748.486 1850.65 748.486 1854.4 Q748.486 1858.12 750.314 1860.3 Q752.166 1862.45 755.314 1862.45 Q758.462 1862.45 760.291 1860.3 Q762.143 1858.12 762.143 1854.4 Q762.143 1850.65 760.291 1848.49 Q758.462 1846.34 755.314 1846.34 M764.597 1831.69 L764.597 1835.95 Q762.837 1835.11 761.032 1834.67 Q759.249 1834.23 757.49 1834.23 Q752.861 1834.23 750.407 1837.36 Q747.976 1840.48 747.629 1846.8 Q748.995 1844.79 751.055 1843.72 Q753.115 1842.64 755.592 1842.64 Q760.8 1842.64 763.81 1845.81 Q766.842 1848.96 766.842 1854.4 Q766.842 1859.72 763.694 1862.94 Q760.546 1866.15 755.314 1866.15 Q749.319 1866.15 746.148 1861.57 Q742.976 1856.96 742.976 1848.24 Q742.976 1840.04 746.865 1835.18 Q750.754 1830.3 757.305 1830.3 Q759.064 1830.3 760.847 1830.65 Q762.652 1830.99 764.597 1831.69 Z" fill="#000000" fill-rule="evenodd" fill-opacity="1" /><path clip-path="url(#clip600)" d="M1198.22 1830.92 L1220.44 1830.92 L1220.44 1832.91 L1207.89 1865.48 L1203.01 1865.48 L1214.82 1834.86 L1198.22 1834.86 L1198.22 1830.92 Z" fill="#000000" fill-rule="evenodd" fill-opacity="1" /><path clip-path="url(#clip600)" d="M1663.75 1849.07 Q1660.42 1849.07 1658.5 1850.85 Q1656.6 1852.64 1656.6 1855.76 Q1656.6 1858.89 1658.5 1860.67 Q1660.42 1862.45 1663.75 1862.45 Q1667.08 1862.45 1669.01 1860.67 Q1670.93 1858.86 1670.93 1855.76 Q1670.93 1852.64 1669.01 1850.85 Q1667.11 1849.07 1663.75 1849.07 M1659.08 1847.08 Q1656.07 1846.34 1654.38 1844.28 Q1652.71 1842.22 1652.71 1839.26 Q1652.71 1835.11 1655.65 1832.71 Q1658.61 1830.3 1663.75 1830.3 Q1668.91 1830.3 1671.85 1832.71 Q1674.79 1835.11 1674.79 1839.26 Q1674.79 1842.22 1673.1 1844.28 Q1671.44 1846.34 1668.45 1847.08 Q1671.83 1847.87 1673.7 1850.16 Q1675.6 1852.45 1675.6 1855.76 Q1675.6 1860.78 1672.52 1863.47 Q1669.47 1866.15 1663.75 1866.15 Q1658.03 1866.15 1654.95 1863.47 Q1651.9 1860.78 1651.9 1855.76 Q1651.9 1852.45 1653.8 1850.16 Q1655.7 1847.87 1659.08 1847.08 M1657.36 1839.7 Q1657.36 1842.38 1659.03 1843.89 Q1660.72 1845.39 1663.75 1845.39 Q1666.76 1845.39 1668.45 1843.89 Q1670.16 1842.38 1670.16 1839.7 Q1670.16 1837.01 1668.45 1835.51 Q1666.76 1834 1663.75 1834 Q1660.72 1834 1659.03 1835.51 Q1657.36 1837.01 1657.36 1839.7 Z" fill="#000000" fill-rule="evenodd" fill-opacity="1" /><path clip-path="url(#clip600)" d="M2108.47 1864.77 L2108.47 1860.51 Q2110.23 1861.34 2112.04 1861.78 Q2113.84 1862.22 2115.58 1862.22 Q2120.21 1862.22 2122.64 1859.12 Q2125.09 1855.99 2125.44 1849.65 Q2124.1 1851.64 2122.04 1852.71 Q2119.98 1853.77 2117.48 1853.77 Q2112.29 1853.77 2109.26 1850.65 Q2106.25 1847.5 2106.25 1842.06 Q2106.25 1836.73 2109.4 1833.52 Q2112.55 1830.3 2117.78 1830.3 Q2123.77 1830.3 2126.92 1834.9 Q2130.09 1839.49 2130.09 1848.24 Q2130.09 1856.41 2126.2 1861.29 Q2122.34 1866.15 2115.79 1866.15 Q2114.03 1866.15 2112.22 1865.81 Q2110.42 1865.46 2108.47 1864.77 M2117.78 1850.11 Q2120.93 1850.11 2122.76 1847.96 Q2124.61 1845.81 2124.61 1842.06 Q2124.61 1838.33 2122.76 1836.18 Q2120.93 1834 2117.78 1834 Q2114.63 1834 2112.78 1836.18 Q2110.95 1838.33 2110.95 1842.06 Q2110.95 1845.81 2112.78 1847.96 Q2114.63 1850.11 2117.78 1850.11 Z" fill="#000000" fill-rule="evenodd" fill-opacity="1" /><path clip-path="url(#clip600)" d="M2547.28 1861.55 L2554.92 1861.55 L2554.92 1835.18 L2546.61 1836.85 L2546.61 1832.59 L2554.87 1830.92 L2559.55 1830.92 L2559.55 1861.55 L2567.19 1861.55 L2567.19 1865.48 L2547.28 1865.48 L2547.28 1861.55 Z" fill="#000000" fill-rule="evenodd" fill-opacity="1" /><path clip-path="url(#clip600)" d="M2586.63 1834 Q2583.02 1834 2581.19 1837.57 Q2579.39 1841.11 2579.39 1848.24 Q2579.39 1855.34 2581.19 1858.91 Q2583.02 1862.45 2586.63 1862.45 Q2590.27 1862.45 2592.07 1858.91 Q2593.9 1855.34 2593.9 1848.24 Q2593.9 1841.11 2592.07 1837.57 Q2590.27 1834 2586.63 1834 M2586.63 1830.3 Q2592.44 1830.3 2595.5 1834.9 Q2598.58 1839.49 2598.58 1848.24 Q2598.58 1856.96 2595.5 1861.57 Q2592.44 1866.15 2586.63 1866.15 Q2580.82 1866.15 2577.74 1861.57 Q2574.69 1856.96 2574.69 1848.24 Q2574.69 1839.49 2577.74 1834.9 Q2580.82 1830.3 2586.63 1830.3 Z" fill="#000000" fill-rule="evenodd" fill-opacity="1" /><polyline clip-path="url(#clip602)" style="stroke:#000000; stroke-linecap:round; stroke-linejoin:round; stroke-width:2; stroke-opacity:0.1; fill:none" points="
  232.325,1582.91 2640.76,1582.91 
  "/>
<polyline clip-path="url(#clip602)" style="stroke:#000000; stroke-linecap:round; stroke-linejoin:round; stroke-width:2; stroke-opacity:0.1; fill:none" points="
  232.325,1274 2640.76,1274 
  "/>
<polyline clip-path="url(#clip602)" style="stroke:#000000; stroke-linecap:round; stroke-linejoin:round; stroke-width:2; stroke-opacity:0.1; fill:none" points="
  232.325,965.089 2640.76,965.089 
  "/>
<polyline clip-path="url(#clip602)" style="stroke:#000000; stroke-linecap:round; stroke-linejoin:round; stroke-width:2; stroke-opacity:0.1; fill:none" points="
  232.325,656.18 2640.76,656.18 
  "/>
<polyline clip-path="url(#clip602)" style="stroke:#000000; stroke-linecap:round; stroke-linejoin:round; stroke-width:2; stroke-opacity:0.1; fill:none" points="
  232.325,347.27 2640.76,347.27 
  "/>
<polyline clip-path="url(#clip600)" style="stroke:#000000; stroke-linecap:round; stroke-linejoin:round; stroke-width:4; stroke-opacity:1; fill:none" points="
  232.325,1800.78 232.325,47.2441 
  "/>
<polyline clip-path="url(#clip600)" style="stroke:#000000; stroke-linecap:round; stroke-linejoin:round; stroke-width:4; stroke-opacity:1; fill:none" points="
  232.325,1582.91 251.223,1582.91 
  "/>
<polyline clip-path="url(#clip600)" style="stroke:#000000; stroke-linecap:round; stroke-linejoin:round; stroke-width:4; stroke-opacity:1; fill:none" points="
  232.325,1274 251.223,1274 
  "/>
<polyline clip-path="url(#clip600)" style="stroke:#000000; stroke-linecap:round; stroke-linejoin:round; stroke-width:4; stroke-opacity:1; fill:none" points="
  232.325,965.089 251.223,965.089 
  "/>
<polyline clip-path="url(#clip600)" style="stroke:#000000; stroke-linecap:round; stroke-linejoin:round; stroke-width:4; stroke-opacity:1; fill:none" points="
  232.325,656.18 251.223,656.18 
  "/>
<polyline clip-path="url(#clip600)" style="stroke:#000000; stroke-linecap:round; stroke-linejoin:round; stroke-width:4; stroke-opacity:1; fill:none" points="
  232.325,347.27 251.223,347.27 
  "/>
<path clip-path="url(#clip600)" d="M180.061 1568.71 Q176.45 1568.71 174.621 1572.27 Q172.815 1575.81 172.815 1582.94 Q172.815 1590.05 174.621 1593.61 Q176.45 1597.16 180.061 1597.16 Q183.695 1597.16 185.5 1593.61 Q187.329 1590.05 187.329 1582.94 Q187.329 1575.81 185.5 1572.27 Q183.695 1568.71 180.061 1568.71 M180.061 1565 Q185.871 1565 188.926 1569.61 Q192.005 1574.19 192.005 1582.94 Q192.005 1591.67 188.926 1596.28 Q185.871 1600.86 180.061 1600.86 Q174.251 1600.86 171.172 1596.28 Q168.116 1591.67 168.116 1582.94 Q168.116 1574.19 171.172 1569.61 Q174.251 1565 180.061 1565 Z" fill="#000000" fill-rule="evenodd" fill-opacity="1" /><path clip-path="url(#clip600)" d="M83.6029 1287.34 L99.9222 1287.34 L99.9222 1291.28 L77.9779 1291.28 L77.9779 1287.34 Q80.6399 1284.59 85.2232 1279.96 Q89.8297 1275.31 91.0102 1273.96 Q93.2556 1271.44 94.1352 1269.71 Q95.038 1267.95 95.038 1266.26 Q95.038 1263.5 93.0936 1261.77 Q91.1723 1260.03 88.0704 1260.03 Q85.8714 1260.03 83.4177 1260.79 Q80.9871 1261.56 78.2094 1263.11 L78.2094 1258.39 Q81.0334 1257.25 83.4871 1256.67 Q85.9408 1256.09 87.9778 1256.09 Q93.3482 1256.09 96.5426 1258.78 Q99.737 1261.46 99.737 1265.96 Q99.737 1268.08 98.9269 1270.01 Q98.1398 1271.9 96.0334 1274.5 Q95.4547 1275.17 92.3528 1278.39 Q89.251 1281.58 83.6029 1287.34 Z" fill="#000000" fill-rule="evenodd" fill-opacity="1" /><path clip-path="url(#clip600)" d="M109.783 1256.72 L128.14 1256.72 L128.14 1260.65 L114.066 1260.65 L114.066 1269.13 Q115.084 1268.78 116.103 1268.62 Q117.121 1268.43 118.14 1268.43 Q123.927 1268.43 127.306 1271.6 Q130.686 1274.77 130.686 1280.19 Q130.686 1285.77 127.214 1288.87 Q123.742 1291.95 117.422 1291.95 Q115.246 1291.95 112.978 1291.58 Q110.732 1291.21 108.325 1290.47 L108.325 1285.77 Q110.408 1286.9 112.63 1287.46 Q114.853 1288.02 117.33 1288.02 Q121.334 1288.02 123.672 1285.91 Q126.01 1283.8 126.01 1280.19 Q126.01 1276.58 123.672 1274.47 Q121.334 1272.37 117.33 1272.37 Q115.455 1272.37 113.58 1272.78 Q111.728 1273.2 109.783 1274.08 L109.783 1256.72 Z" fill="#000000" fill-rule="evenodd" fill-opacity="1" /><path clip-path="url(#clip600)" d="M149.899 1259.8 Q146.288 1259.8 144.459 1263.36 Q142.653 1266.9 142.653 1274.03 Q142.653 1281.14 144.459 1284.7 Q146.288 1288.25 149.899 1288.25 Q153.533 1288.25 155.339 1284.7 Q157.167 1281.14 157.167 1274.03 Q157.167 1266.9 155.339 1263.36 Q153.533 1259.8 149.899 1259.8 M149.899 1256.09 Q155.709 1256.09 158.765 1260.7 Q161.843 1265.28 161.843 1274.03 Q161.843 1282.76 158.765 1287.37 Q155.709 1291.95 149.899 1291.95 Q144.089 1291.95 141.01 1287.37 Q137.954 1282.76 137.954 1274.03 Q137.954 1265.28 141.01 1260.7 Q144.089 1256.09 149.899 1256.09 Z" fill="#000000" fill-rule="evenodd" fill-opacity="1" /><path clip-path="url(#clip600)" d="M180.061 1259.8 Q176.45 1259.8 174.621 1263.36 Q172.815 1266.9 172.815 1274.03 Q172.815 1281.14 174.621 1284.7 Q176.45 1288.25 180.061 1288.25 Q183.695 1288.25 185.5 1284.7 Q187.329 1281.14 187.329 1274.03 Q187.329 1266.9 185.5 1263.36 Q183.695 1259.8 180.061 1259.8 M180.061 1256.09 Q185.871 1256.09 188.926 1260.7 Q192.005 1265.28 192.005 1274.03 Q192.005 1282.76 188.926 1287.37 Q185.871 1291.95 180.061 1291.95 Q174.251 1291.95 171.172 1287.37 Q168.116 1282.76 168.116 1274.03 Q168.116 1265.28 171.172 1260.7 Q174.251 1256.09 180.061 1256.09 Z" fill="#000000" fill-rule="evenodd" fill-opacity="1" /><path clip-path="url(#clip600)" d="M79.6214 947.809 L97.9778 947.809 L97.9778 951.745 L83.9038 951.745 L83.9038 960.217 Q84.9223 959.87 85.9408 959.708 Q86.9593 959.522 87.9778 959.522 Q93.7649 959.522 97.1445 962.694 Q100.524 965.865 100.524 971.282 Q100.524 976.86 97.0519 979.962 Q93.5797 983.041 87.2603 983.041 Q85.0843 983.041 82.8158 982.67 Q80.5705 982.3 78.1631 981.559 L78.1631 976.86 Q80.2464 977.994 82.4686 978.55 Q84.6908 979.106 87.1677 979.106 Q91.1723 979.106 93.5102 976.999 Q95.8482 974.893 95.8482 971.282 Q95.8482 967.67 93.5102 965.564 Q91.1723 963.458 87.1677 963.458 Q85.2927 963.458 83.4177 963.874 Q81.5658 964.291 79.6214 965.17 L79.6214 947.809 Z" fill="#000000" fill-rule="evenodd" fill-opacity="1" /><path clip-path="url(#clip600)" d="M119.737 950.888 Q116.126 950.888 114.297 954.453 Q112.492 957.995 112.492 965.124 Q112.492 972.231 114.297 975.795 Q116.126 979.337 119.737 979.337 Q123.371 979.337 125.177 975.795 Q127.005 972.231 127.005 965.124 Q127.005 957.995 125.177 954.453 Q123.371 950.888 119.737 950.888 M119.737 947.184 Q125.547 947.184 128.603 951.791 Q131.681 956.374 131.681 965.124 Q131.681 973.851 128.603 978.457 Q125.547 983.041 119.737 983.041 Q113.927 983.041 110.848 978.457 Q107.793 973.851 107.793 965.124 Q107.793 956.374 110.848 951.791 Q113.927 947.184 119.737 947.184 Z" fill="#000000" fill-rule="evenodd" fill-opacity="1" /><path clip-path="url(#clip600)" d="M149.899 950.888 Q146.288 950.888 144.459 954.453 Q142.653 957.995 142.653 965.124 Q142.653 972.231 144.459 975.795 Q146.288 979.337 149.899 979.337 Q153.533 979.337 155.339 975.795 Q157.167 972.231 157.167 965.124 Q157.167 957.995 155.339 954.453 Q153.533 950.888 149.899 950.888 M149.899 947.184 Q155.709 947.184 158.765 951.791 Q161.843 956.374 161.843 965.124 Q161.843 973.851 158.765 978.457 Q155.709 983.041 149.899 983.041 Q144.089 983.041 141.01 978.457 Q137.954 973.851 137.954 965.124 Q137.954 956.374 141.01 951.791 Q144.089 947.184 149.899 947.184 Z" fill="#000000" fill-rule="evenodd" fill-opacity="1" /><path clip-path="url(#clip600)" d="M180.061 950.888 Q176.45 950.888 174.621 954.453 Q172.815 957.995 172.815 965.124 Q172.815 972.231 174.621 975.795 Q176.45 979.337 180.061 979.337 Q183.695 979.337 185.5 975.795 Q187.329 972.231 187.329 965.124 Q187.329 957.995 185.5 954.453 Q183.695 950.888 180.061 950.888 M180.061 947.184 Q185.871 947.184 188.926 951.791 Q192.005 956.374 192.005 965.124 Q192.005 973.851 188.926 978.457 Q185.871 983.041 180.061 983.041 Q174.251 983.041 171.172 978.457 Q168.116 973.851 168.116 965.124 Q168.116 956.374 171.172 951.791 Q174.251 947.184 180.061 947.184 Z" fill="#000000" fill-rule="evenodd" fill-opacity="1" /><path clip-path="url(#clip600)" d="M78.3946 638.9 L100.617 638.9 L100.617 640.891 L88.0704 673.46 L83.1862 673.46 L94.9917 642.835 L78.3946 642.835 L78.3946 638.9 Z" fill="#000000" fill-rule="evenodd" fill-opacity="1" /><path clip-path="url(#clip600)" d="M109.783 638.9 L128.14 638.9 L128.14 642.835 L114.066 642.835 L114.066 651.307 Q115.084 650.96 116.103 650.798 Q117.121 650.613 118.14 650.613 Q123.927 650.613 127.306 653.784 Q130.686 656.955 130.686 662.372 Q130.686 667.951 127.214 671.052 Q123.742 674.131 117.422 674.131 Q115.246 674.131 112.978 673.761 Q110.732 673.39 108.325 672.65 L108.325 667.951 Q110.408 669.085 112.63 669.64 Q114.853 670.196 117.33 670.196 Q121.334 670.196 123.672 668.09 Q126.01 665.983 126.01 662.372 Q126.01 658.761 123.672 656.654 Q121.334 654.548 117.33 654.548 Q115.455 654.548 113.58 654.965 Q111.728 655.381 109.783 656.261 L109.783 638.9 Z" fill="#000000" fill-rule="evenodd" fill-opacity="1" /><path clip-path="url(#clip600)" d="M149.899 641.979 Q146.288 641.979 144.459 645.543 Q142.653 649.085 142.653 656.215 Q142.653 663.321 144.459 666.886 Q146.288 670.427 149.899 670.427 Q153.533 670.427 155.339 666.886 Q157.167 663.321 157.167 656.215 Q157.167 649.085 155.339 645.543 Q153.533 641.979 149.899 641.979 M149.899 638.275 Q155.709 638.275 158.765 642.881 Q161.843 647.465 161.843 656.215 Q161.843 664.941 158.765 669.548 Q155.709 674.131 149.899 674.131 Q144.089 674.131 141.01 669.548 Q137.954 664.941 137.954 656.215 Q137.954 647.465 141.01 642.881 Q144.089 638.275 149.899 638.275 Z" fill="#000000" fill-rule="evenodd" fill-opacity="1" /><path clip-path="url(#clip600)" d="M180.061 641.979 Q176.45 641.979 174.621 645.543 Q172.815 649.085 172.815 656.215 Q172.815 663.321 174.621 666.886 Q176.45 670.427 180.061 670.427 Q183.695 670.427 185.5 666.886 Q187.329 663.321 187.329 656.215 Q187.329 649.085 185.5 645.543 Q183.695 641.979 180.061 641.979 M180.061 638.275 Q185.871 638.275 188.926 642.881 Q192.005 647.465 192.005 656.215 Q192.005 664.941 188.926 669.548 Q185.871 674.131 180.061 674.131 Q174.251 674.131 171.172 669.548 Q168.116 664.941 168.116 656.215 Q168.116 647.465 171.172 642.881 Q174.251 638.275 180.061 638.275 Z" fill="#000000" fill-rule="evenodd" fill-opacity="1" /><path clip-path="url(#clip600)" d="M50.2234 360.615 L57.8623 360.615 L57.8623 334.25 L49.5521 335.916 L49.5521 331.657 L57.816 329.99 L62.4919 329.99 L62.4919 360.615 L70.1307 360.615 L70.1307 364.55 L50.2234 364.55 L50.2234 360.615 Z" fill="#000000" fill-rule="evenodd" fill-opacity="1" /><path clip-path="url(#clip600)" d="M89.5751 333.069 Q85.964 333.069 84.1353 336.634 Q82.3297 340.175 82.3297 347.305 Q82.3297 354.411 84.1353 357.976 Q85.964 361.518 89.5751 361.518 Q93.2093 361.518 95.0148 357.976 Q96.8435 354.411 96.8435 347.305 Q96.8435 340.175 95.0148 336.634 Q93.2093 333.069 89.5751 333.069 M89.5751 329.365 Q95.3852 329.365 98.4408 333.972 Q101.519 338.555 101.519 347.305 Q101.519 356.032 98.4408 360.638 Q95.3852 365.222 89.5751 365.222 Q83.7649 365.222 80.6862 360.638 Q77.6307 356.032 77.6307 347.305 Q77.6307 338.555 80.6862 333.972 Q83.7649 329.365 89.5751 329.365 Z" fill="#000000" fill-rule="evenodd" fill-opacity="1" /><path clip-path="url(#clip600)" d="M119.737 333.069 Q116.126 333.069 114.297 336.634 Q112.492 340.175 112.492 347.305 Q112.492 354.411 114.297 357.976 Q116.126 361.518 119.737 361.518 Q123.371 361.518 125.177 357.976 Q127.005 354.411 127.005 347.305 Q127.005 340.175 125.177 336.634 Q123.371 333.069 119.737 333.069 M119.737 329.365 Q125.547 329.365 128.603 333.972 Q131.681 338.555 131.681 347.305 Q131.681 356.032 128.603 360.638 Q125.547 365.222 119.737 365.222 Q113.927 365.222 110.848 360.638 Q107.793 356.032 107.793 347.305 Q107.793 338.555 110.848 333.972 Q113.927 329.365 119.737 329.365 Z" fill="#000000" fill-rule="evenodd" fill-opacity="1" /><path clip-path="url(#clip600)" d="M149.899 333.069 Q146.288 333.069 144.459 336.634 Q142.653 340.175 142.653 347.305 Q142.653 354.411 144.459 357.976 Q146.288 361.518 149.899 361.518 Q153.533 361.518 155.339 357.976 Q157.167 354.411 157.167 347.305 Q157.167 340.175 155.339 336.634 Q153.533 333.069 149.899 333.069 M149.899 329.365 Q155.709 329.365 158.765 333.972 Q161.843 338.555 161.843 347.305 Q161.843 356.032 158.765 360.638 Q155.709 365.222 149.899 365.222 Q144.089 365.222 141.01 360.638 Q137.954 356.032 137.954 347.305 Q137.954 338.555 141.01 333.972 Q144.089 329.365 149.899 329.365 Z" fill="#000000" fill-rule="evenodd" fill-opacity="1" /><path clip-path="url(#clip600)" d="M180.061 333.069 Q176.45 333.069 174.621 336.634 Q172.815 340.175 172.815 347.305 Q172.815 354.411 174.621 357.976 Q176.45 361.518 180.061 361.518 Q183.695 361.518 185.5 357.976 Q187.329 354.411 187.329 347.305 Q187.329 340.175 185.5 336.634 Q183.695 333.069 180.061 333.069 M180.061 329.365 Q185.871 329.365 188.926 333.972 Q192.005 338.555 192.005 347.305 Q192.005 356.032 188.926 360.638 Q185.871 365.222 180.061 365.222 Q174.251 365.222 171.172 360.638 Q168.116 356.032 168.116 347.305 Q168.116 338.555 171.172 333.972 Q174.251 329.365 180.061 329.365 Z" fill="#000000" fill-rule="evenodd" fill-opacity="1" /><polyline clip-path="url(#clip602)" style="stroke:#009af9; stroke-linecap:round; stroke-linejoin:round; stroke-width:4; stroke-opacity:1; fill:none" points="
  300.488,1641.8 315.281,1643.22 452.06,1657.3 534.259,1666.49 603.757,1674.64 679.251,1683.8 748.85,1692.44 823.468,1701.8 909.919,1712.58 986.747,1721.83 
  1054.12,1729.49 1127.57,1737.05 1201.46,1743.48 1283.15,1748.69 1360.88,1751.15 1441.71,1750.29 1509.74,1746.1 1551.27,1741.66 1592.8,1735.56 1630.85,1728.34 
  1668.89,1719.37 1704.03,1709.35 1739.17,1697.52 1774.76,1683.47 1810.35,1667.16 1850.24,1645.91 1890.13,1621.18 1926.28,1595.47 1962.43,1566.28 1983.12,1547.89 
  2003.81,1528.19 2024.5,1507.11 2045.2,1484.57 2064.36,1462.35 2083.52,1438.75 2102.68,1413.71 2121.84,1387.17 2140.73,1359.45 2159.61,1330.12 2178.5,1299.11 
  2197.39,1266.34 2215.73,1232.75 2234.07,1197.35 2252.41,1160.05 2270.75,1120.77 2289.55,1078.35 2308.35,1033.66 2327.15,986.58 2345.96,937.017 2366.55,879.725 
  2387.15,819.157 2407.75,755.15 2428.35,687.534 2443.31,636.059 2458.27,582.516 2473.23,526.832 2488.19,468.93 2503.15,408.733 2518.12,346.159 2533.08,281.125 
  2548.04,213.544 2554.18,185.058 2560.32,156.121 2566.45,126.728 2572.59,96.8724 
  "/>
<path clip-path="url(#clip600)" d="
M2240.44 209.375 L2560.47 209.375 L2560.47 105.695 L2240.44 105.695  Z
  " fill="#ffffff" fill-rule="evenodd" fill-opacity="1"/>
<polyline clip-path="url(#clip600)" style="stroke:#000000; stroke-linecap:round; stroke-linejoin:round; stroke-width:4; stroke-opacity:1; fill:none" points="
  2240.44,209.375 2560.47,209.375 2560.47,105.695 2240.44,105.695 2240.44,209.375 
  "/>
<polyline clip-path="url(#clip600)" style="stroke:#009af9; stroke-linecap:round; stroke-linejoin:round; stroke-width:4; stroke-opacity:1; fill:none" points="
  2267.2,157.535 2427.76,157.535 
  "/>
<path clip-path="url(#clip600)" d="M2468.37 177.223 Q2466.56 181.852 2464.85 183.264 Q2463.13 184.676 2460.26 184.676 L2456.86 184.676 L2456.86 181.112 L2459.36 181.112 Q2461.12 181.112 2462.09 180.278 Q2463.07 179.445 2464.25 176.343 L2465.01 174.399 L2454.52 148.889 L2459.04 148.889 L2467.14 169.167 L2475.24 148.889 L2479.76 148.889 L2468.37 177.223 Z" fill="#000000" fill-rule="evenodd" fill-opacity="1" /><path clip-path="url(#clip600)" d="M2487.05 170.88 L2494.69 170.88 L2494.69 144.515 L2486.38 146.181 L2486.38 141.922 L2494.64 140.255 L2499.32 140.255 L2499.32 170.88 L2506.95 170.88 L2506.95 174.815 L2487.05 174.815 L2487.05 170.88 Z" fill="#000000" fill-rule="evenodd" fill-opacity="1" /></svg>
