<?xml version="1.0" encoding="utf-8"?>
<svg xmlns="http://www.w3.org/2000/svg" xmlns:xlink="http://www.w3.org/1999/xlink" width="672" height="480" viewBox="0 0 2688 1920">
<defs>
  <clipPath id="clip890">
    <rect x="0" y="0" width="2688" height="1920"/>
  </clipPath>
</defs>
<path clip-path="url(#clip890)" d="
M0 1920 L2688 1920 L2688 0 L0 0  Z
  " fill="#ffffff" fill-rule="evenodd" fill-opacity="1"/>
<defs>
  <clipPath id="clip891">
    <rect x="537" y="0" width="1883" height="1883"/>
  </clipPath>
</defs>
<path clip-path="url(#clip890)" d="
M189.154 1800.78 L2640.76 1800.78 L2640.76 47.2441 L189.154 47.2441  Z
  " fill="#ffffff" fill-rule="evenodd" fill-opacity="1"/>
<defs>
  <clipPath id="clip892">
    <rect x="189" y="47" width="2453" height="1755"/>
  </clipPath>
</defs>
<polyline clip-path="url(#clip892)" style="stroke:#000000; stroke-linecap:butt; stroke-linejoin:round; stroke-width:2; stroke-opacity:0.1; fill:none" points="
  258.539,1800.78 258.539,47.2441 
  "/>
<polyline clip-path="url(#clip892)" style="stroke:#000000; stroke-linecap:butt; stroke-linejoin:round; stroke-width:2; stroke-opacity:0.1; fill:none" points="
  836.747,1800.78 836.747,47.2441 
  "/>
<polyline clip-path="url(#clip892)" style="stroke:#000000; stroke-linecap:butt; stroke-linejoin:round; stroke-width:2; stroke-opacity:0.1; fill:none" points="
  1414.95,1800.78 1414.95,47.2441 
  "/>
<polyline clip-path="url(#clip892)" style="stroke:#000000; stroke-linecap:butt; stroke-linejoin:round; stroke-width:2; stroke-opacity:0.1; fill:none" points="
  1993.16,1800.78 1993.16,47.2441 
  "/>
<polyline clip-path="url(#clip892)" style="stroke:#000000; stroke-linecap:butt; stroke-linejoin:round; stroke-width:2; stroke-opacity:0.1; fill:none" points="
  2571.37,1800.78 2571.37,47.2441 
  "/>
<polyline clip-path="url(#clip890)" style="stroke:#000000; stroke-linecap:butt; stroke-linejoin:round; stroke-width:4; stroke-opacity:1; fill:none" points="
  189.154,1800.78 2640.76,1800.78 
  "/>
<polyline clip-path="url(#clip890)" style="stroke:#000000; stroke-linecap:butt; stroke-linejoin:round; stroke-width:4; stroke-opacity:1; fill:none" points="
  258.539,1800.78 258.539,1781.88 
  "/>
<polyline clip-path="url(#clip890)" style="stroke:#000000; stroke-linecap:butt; stroke-linejoin:round; stroke-width:4; stroke-opacity:1; fill:none" points="
  836.747,1800.78 836.747,1781.88 
  "/>
<polyline clip-path="url(#clip890)" style="stroke:#000000; stroke-linecap:butt; stroke-linejoin:round; stroke-width:4; stroke-opacity:1; fill:none" points="
  1414.95,1800.78 1414.95,1781.88 
  "/>
<polyline clip-path="url(#clip890)" style="stroke:#000000; stroke-linecap:butt; stroke-linejoin:round; stroke-width:4; stroke-opacity:1; fill:none" points="
  1993.16,1800.78 1993.16,1781.88 
  "/>
<polyline clip-path="url(#clip890)" style="stroke:#000000; stroke-linecap:butt; stroke-linejoin:round; stroke-width:4; stroke-opacity:1; fill:none" points="
  2571.37,1800.78 2571.37,1781.88 
  "/>
<path clip-path="url(#clip890)" d="M220.842 1834 Q217.231 1834 215.403 1837.57 Q213.597 1841.11 213.597 1848.24 Q213.597 1855.34 215.403 1858.91 Q217.231 1862.45 220.842 1862.45 Q224.477 1862.45 226.282 1858.91 Q228.111 1855.34 228.111 1848.24 Q228.111 1841.11 226.282 1837.57 Q224.477 1834 220.842 1834 M220.842 1830.3 Q226.653 1830.3 229.708 1834.9 Q232.787 1839.49 232.787 1848.24 Q232.787 1856.96 229.708 1861.57 Q226.653 1866.15 220.842 1866.15 Q215.032 1866.15 211.954 1861.57 Q208.898 1856.96 208.898 1848.24 Q208.898 1839.49 211.954 1834.9 Q215.032 1830.3 220.842 1830.3 Z" fill="#000000" fill-rule="evenodd" fill-opacity="1" /><path clip-path="url(#clip890)" d="M241.004 1859.6 L245.889 1859.6 L245.889 1865.48 L241.004 1865.48 L241.004 1859.6 Z" fill="#000000" fill-rule="evenodd" fill-opacity="1" /><path clip-path="url(#clip890)" d="M266.074 1834 Q262.463 1834 260.634 1837.57 Q258.828 1841.11 258.828 1848.24 Q258.828 1855.34 260.634 1858.91 Q262.463 1862.45 266.074 1862.45 Q269.708 1862.45 271.513 1858.91 Q273.342 1855.34 273.342 1848.24 Q273.342 1841.11 271.513 1837.57 Q269.708 1834 266.074 1834 M266.074 1830.3 Q271.884 1830.3 274.939 1834.9 Q278.018 1839.49 278.018 1848.24 Q278.018 1856.96 274.939 1861.57 Q271.884 1866.15 266.074 1866.15 Q260.263 1866.15 257.185 1861.57 Q254.129 1856.96 254.129 1848.24 Q254.129 1839.49 257.185 1834.9 Q260.263 1830.3 266.074 1830.3 Z" fill="#000000" fill-rule="evenodd" fill-opacity="1" /><path clip-path="url(#clip890)" d="M296.236 1834 Q292.624 1834 290.796 1837.57 Q288.99 1841.11 288.99 1848.24 Q288.99 1855.34 290.796 1858.91 Q292.624 1862.45 296.236 1862.45 Q299.87 1862.45 301.675 1858.91 Q303.504 1855.34 303.504 1848.24 Q303.504 1841.11 301.675 1837.57 Q299.87 1834 296.236 1834 M296.236 1830.3 Q302.046 1830.3 305.101 1834.9 Q308.18 1839.49 308.18 1848.24 Q308.18 1856.96 305.101 1861.57 Q302.046 1866.15 296.236 1866.15 Q290.425 1866.15 287.347 1861.57 Q284.291 1856.96 284.291 1848.24 Q284.291 1839.49 287.347 1834.9 Q290.425 1830.3 296.236 1830.3 Z" fill="#000000" fill-rule="evenodd" fill-opacity="1" /><path clip-path="url(#clip890)" d="M799.548 1834 Q795.937 1834 794.108 1837.57 Q792.303 1841.11 792.303 1848.24 Q792.303 1855.34 794.108 1858.91 Q795.937 1862.45 799.548 1862.45 Q803.182 1862.45 804.988 1858.91 Q806.817 1855.34 806.817 1848.24 Q806.817 1841.11 804.988 1837.57 Q803.182 1834 799.548 1834 M799.548 1830.3 Q805.358 1830.3 808.414 1834.9 Q811.492 1839.49 811.492 1848.24 Q811.492 1856.96 808.414 1861.57 Q805.358 1866.15 799.548 1866.15 Q793.738 1866.15 790.659 1861.57 Q787.604 1856.96 787.604 1848.24 Q787.604 1839.49 790.659 1834.9 Q793.738 1830.3 799.548 1830.3 Z" fill="#000000" fill-rule="evenodd" fill-opacity="1" /><path clip-path="url(#clip890)" d="M819.71 1859.6 L824.594 1859.6 L824.594 1865.48 L819.71 1865.48 L819.71 1859.6 Z" fill="#000000" fill-rule="evenodd" fill-opacity="1" /><path clip-path="url(#clip890)" d="M838.807 1861.55 L855.126 1861.55 L855.126 1865.48 L833.182 1865.48 L833.182 1861.55 Q835.844 1858.79 840.427 1854.16 Q845.034 1849.51 846.214 1848.17 Q848.46 1845.65 849.339 1843.91 Q850.242 1842.15 850.242 1840.46 Q850.242 1837.71 848.298 1835.97 Q846.377 1834.23 843.275 1834.23 Q841.076 1834.23 838.622 1835 Q836.191 1835.76 833.414 1837.31 L833.414 1832.59 Q836.238 1831.46 838.691 1830.88 Q841.145 1830.3 843.182 1830.3 Q848.552 1830.3 851.747 1832.98 Q854.941 1835.67 854.941 1840.16 Q854.941 1842.29 854.131 1844.21 Q853.344 1846.11 851.238 1848.7 Q850.659 1849.37 847.557 1852.59 Q844.455 1855.78 838.807 1861.55 Z" fill="#000000" fill-rule="evenodd" fill-opacity="1" /><path clip-path="url(#clip890)" d="M864.988 1830.92 L883.344 1830.92 L883.344 1834.86 L869.27 1834.86 L869.27 1843.33 Q870.288 1842.98 871.307 1842.82 Q872.325 1842.64 873.344 1842.64 Q879.131 1842.64 882.511 1845.81 Q885.89 1848.98 885.89 1854.4 Q885.89 1859.97 882.418 1863.08 Q878.946 1866.15 872.626 1866.15 Q870.45 1866.15 868.182 1865.78 Q865.937 1865.41 863.529 1864.67 L863.529 1859.97 Q865.613 1861.11 867.835 1861.66 Q870.057 1862.22 872.534 1862.22 Q876.538 1862.22 878.876 1860.11 Q881.214 1858.01 881.214 1854.4 Q881.214 1850.78 878.876 1848.68 Q876.538 1846.57 872.534 1846.57 Q870.659 1846.57 868.784 1846.99 Q866.932 1847.4 864.988 1848.28 L864.988 1830.92 Z" fill="#000000" fill-rule="evenodd" fill-opacity="1" /><path clip-path="url(#clip890)" d="M1377.26 1834 Q1373.65 1834 1371.82 1837.57 Q1370.01 1841.11 1370.01 1848.24 Q1370.01 1855.34 1371.82 1858.91 Q1373.65 1862.45 1377.26 1862.45 Q1380.89 1862.45 1382.7 1858.91 Q1384.53 1855.34 1384.53 1848.24 Q1384.53 1841.11 1382.7 1837.57 Q1380.89 1834 1377.26 1834 M1377.26 1830.3 Q1383.07 1830.3 1386.12 1834.9 Q1389.2 1839.49 1389.2 1848.24 Q1389.2 1856.96 1386.12 1861.57 Q1383.07 1866.15 1377.26 1866.15 Q1371.45 1866.15 1368.37 1861.57 Q1365.31 1856.96 1365.31 1848.24 Q1365.31 1839.49 1368.37 1834.9 Q1371.45 1830.3 1377.26 1830.3 Z" fill="#000000" fill-rule="evenodd" fill-opacity="1" /><path clip-path="url(#clip890)" d="M1397.42 1859.6 L1402.3 1859.6 L1402.3 1865.48 L1397.42 1865.48 L1397.42 1859.6 Z" fill="#000000" fill-rule="evenodd" fill-opacity="1" /><path clip-path="url(#clip890)" d="M1412.54 1830.92 L1430.89 1830.92 L1430.89 1834.86 L1416.82 1834.86 L1416.82 1843.33 Q1417.84 1842.98 1418.86 1842.82 Q1419.87 1842.64 1420.89 1842.64 Q1426.68 1842.64 1430.06 1845.81 Q1433.44 1848.98 1433.44 1854.4 Q1433.44 1859.97 1429.97 1863.08 Q1426.49 1866.15 1420.17 1866.15 Q1418 1866.15 1415.73 1865.78 Q1413.49 1865.41 1411.08 1864.67 L1411.08 1859.97 Q1413.16 1861.11 1415.38 1861.66 Q1417.61 1862.22 1420.08 1862.22 Q1424.09 1862.22 1426.42 1860.11 Q1428.76 1858.01 1428.76 1854.4 Q1428.76 1850.78 1426.42 1848.68 Q1424.09 1846.57 1420.08 1846.57 Q1418.21 1846.57 1416.33 1846.99 Q1414.48 1847.4 1412.54 1848.28 L1412.54 1830.92 Z" fill="#000000" fill-rule="evenodd" fill-opacity="1" /><path clip-path="url(#clip890)" d="M1452.65 1834 Q1449.04 1834 1447.21 1837.57 Q1445.41 1841.11 1445.41 1848.24 Q1445.41 1855.34 1447.21 1858.91 Q1449.04 1862.45 1452.65 1862.45 Q1456.29 1862.45 1458.09 1858.91 Q1459.92 1855.34 1459.92 1848.24 Q1459.92 1841.11 1458.09 1837.57 Q1456.29 1834 1452.65 1834 M1452.65 1830.3 Q1458.46 1830.3 1461.52 1834.9 Q1464.6 1839.49 1464.6 1848.24 Q1464.6 1856.96 1461.52 1861.57 Q1458.46 1866.15 1452.65 1866.15 Q1446.84 1866.15 1443.76 1861.57 Q1440.71 1856.96 1440.71 1848.24 Q1440.71 1839.49 1443.76 1834.9 Q1446.84 1830.3 1452.65 1830.3 Z" fill="#000000" fill-rule="evenodd" fill-opacity="1" /><path clip-path="url(#clip890)" d="M1955.96 1834 Q1952.35 1834 1950.52 1837.57 Q1948.72 1841.11 1948.72 1848.24 Q1948.72 1855.34 1950.52 1858.91 Q1952.35 1862.45 1955.96 1862.45 Q1959.6 1862.45 1961.4 1858.91 Q1963.23 1855.34 1963.23 1848.24 Q1963.23 1841.11 1961.4 1837.57 Q1959.6 1834 1955.96 1834 M1955.96 1830.3 Q1961.77 1830.3 1964.83 1834.9 Q1967.91 1839.49 1967.91 1848.24 Q1967.91 1856.96 1964.83 1861.57 Q1961.77 1866.15 1955.96 1866.15 Q1950.15 1866.15 1947.08 1861.57 Q1944.02 1856.96 1944.02 1848.24 Q1944.02 1839.49 1947.08 1834.9 Q1950.15 1830.3 1955.96 1830.3 Z" fill="#000000" fill-rule="evenodd" fill-opacity="1" /><path clip-path="url(#clip890)" d="M1976.13 1859.6 L1981.01 1859.6 L1981.01 1865.48 L1976.13 1865.48 L1976.13 1859.6 Z" fill="#000000" fill-rule="evenodd" fill-opacity="1" /><path clip-path="url(#clip890)" d="M1990.01 1830.92 L2012.24 1830.92 L2012.24 1832.91 L1999.69 1865.48 L1994.81 1865.48 L2006.61 1834.86 L1990.01 1834.86 L1990.01 1830.92 Z" fill="#000000" fill-rule="evenodd" fill-opacity="1" /><path clip-path="url(#clip890)" d="M2021.4 1830.92 L2039.76 1830.92 L2039.76 1834.86 L2025.69 1834.86 L2025.69 1843.33 Q2026.7 1842.98 2027.72 1842.82 Q2028.74 1842.64 2029.76 1842.64 Q2035.55 1842.64 2038.93 1845.81 Q2042.31 1848.98 2042.31 1854.4 Q2042.31 1859.97 2038.83 1863.08 Q2035.36 1866.15 2029.04 1866.15 Q2026.87 1866.15 2024.6 1865.78 Q2022.35 1865.41 2019.95 1864.67 L2019.95 1859.97 Q2022.03 1861.11 2024.25 1861.66 Q2026.47 1862.22 2028.95 1862.22 Q2032.95 1862.22 2035.29 1860.11 Q2037.63 1858.01 2037.63 1854.4 Q2037.63 1850.78 2035.29 1848.68 Q2032.95 1846.57 2028.95 1846.57 Q2027.07 1846.57 2025.2 1846.99 Q2023.35 1847.4 2021.4 1848.28 L2021.4 1830.92 Z" fill="#000000" fill-rule="evenodd" fill-opacity="1" /><path clip-path="url(#clip890)" d="M2523.44 1861.55 L2531.08 1861.55 L2531.08 1835.18 L2522.77 1836.85 L2522.77 1832.59 L2531.04 1830.92 L2535.71 1830.92 L2535.71 1861.55 L2543.35 1861.55 L2543.35 1865.48 L2523.44 1865.48 L2523.44 1861.55 Z" fill="#000000" fill-rule="evenodd" fill-opacity="1" /><path clip-path="url(#clip890)" d="M2552.79 1859.6 L2557.68 1859.6 L2557.68 1865.48 L2552.79 1865.48 L2552.79 1859.6 Z" fill="#000000" fill-rule="evenodd" fill-opacity="1" /><path clip-path="url(#clip890)" d="M2577.86 1834 Q2574.25 1834 2572.42 1837.57 Q2570.62 1841.11 2570.62 1848.24 Q2570.62 1855.34 2572.42 1858.91 Q2574.25 1862.45 2577.86 1862.45 Q2581.5 1862.45 2583.3 1858.91 Q2585.13 1855.34 2585.13 1848.24 Q2585.13 1841.11 2583.3 1837.57 Q2581.5 1834 2577.86 1834 M2577.86 1830.3 Q2583.67 1830.3 2586.73 1834.9 Q2589.81 1839.49 2589.81 1848.24 Q2589.81 1856.96 2586.73 1861.57 Q2583.67 1866.15 2577.86 1866.15 Q2572.05 1866.15 2568.98 1861.57 Q2565.92 1856.96 2565.92 1848.24 Q2565.92 1839.49 2568.98 1834.9 Q2572.05 1830.3 2577.86 1830.3 Z" fill="#000000" fill-rule="evenodd" fill-opacity="1" /><path clip-path="url(#clip890)" d="M2608.03 1834 Q2604.41 1834 2602.59 1837.57 Q2600.78 1841.11 2600.78 1848.24 Q2600.78 1855.34 2602.59 1858.91 Q2604.41 1862.45 2608.03 1862.45 Q2611.66 1862.45 2613.47 1858.91 Q2615.29 1855.34 2615.29 1848.24 Q2615.29 1841.11 2613.47 1837.57 Q2611.66 1834 2608.03 1834 M2608.03 1830.3 Q2613.84 1830.3 2616.89 1834.9 Q2619.97 1839.49 2619.97 1848.24 Q2619.97 1856.96 2616.89 1861.57 Q2613.84 1866.15 2608.03 1866.15 Q2602.22 1866.15 2599.14 1861.57 Q2596.08 1856.96 2596.08 1848.24 Q2596.08 1839.49 2599.14 1834.9 Q2602.22 1830.3 2608.03 1830.3 Z" fill="#000000" fill-rule="evenodd" fill-opacity="1" /><polyline clip-path="url(#clip892)" style="stroke:#000000; stroke-linecap:butt; stroke-linejoin:round; stroke-width:2; stroke-opacity:0.1; fill:none" points="
  189.154,1751.15 2640.76,1751.15 
  "/>
<polyline clip-path="url(#clip892)" style="stroke:#000000; stroke-linecap:butt; stroke-linejoin:round; stroke-width:2; stroke-opacity:0.1; fill:none" points="
  189.154,1337.58 2640.76,1337.58 
  "/>
<polyline clip-path="url(#clip892)" style="stroke:#000000; stroke-linecap:butt; stroke-linejoin:round; stroke-width:2; stroke-opacity:0.1; fill:none" points="
  189.154,924.012 2640.76,924.012 
  "/>
<polyline clip-path="url(#clip892)" style="stroke:#000000; stroke-linecap:butt; stroke-linejoin:round; stroke-width:2; stroke-opacity:0.1; fill:none" points="
  189.154,510.442 2640.76,510.442 
  "/>
<polyline clip-path="url(#clip892)" style="stroke:#000000; stroke-linecap:butt; stroke-linejoin:round; stroke-width:2; stroke-opacity:0.1; fill:none" points="
  189.154,96.8724 2640.76,96.8724 
  "/>
<polyline clip-path="url(#clip890)" style="stroke:#000000; stroke-linecap:butt; stroke-linejoin:round; stroke-width:4; stroke-opacity:1; fill:none" points="
  189.154,1800.78 189.154,47.2441 
  "/>
<polyline clip-path="url(#clip890)" style="stroke:#000000; stroke-linecap:butt; stroke-linejoin:round; stroke-width:4; stroke-opacity:1; fill:none" points="
  189.154,1751.15 208.052,1751.15 
  "/>
<polyline clip-path="url(#clip890)" style="stroke:#000000; stroke-linecap:butt; stroke-linejoin:round; stroke-width:4; stroke-opacity:1; fill:none" points="
  189.154,1337.58 208.052,1337.58 
  "/>
<polyline clip-path="url(#clip890)" style="stroke:#000000; stroke-linecap:butt; stroke-linejoin:round; stroke-width:4; stroke-opacity:1; fill:none" points="
  189.154,924.012 208.052,924.012 
  "/>
<polyline clip-path="url(#clip890)" style="stroke:#000000; stroke-linecap:butt; stroke-linejoin:round; stroke-width:4; stroke-opacity:1; fill:none" points="
  189.154,510.442 208.052,510.442 
  "/>
<polyline clip-path="url(#clip890)" style="stroke:#000000; stroke-linecap:butt; stroke-linejoin:round; stroke-width:4; stroke-opacity:1; fill:none" points="
  189.154,96.8724 208.052,96.8724 
  "/>
<path clip-path="url(#clip890)" d="M61.4965 1736.95 Q57.8854 1736.95 56.0567 1740.51 Q54.2512 1744.06 54.2512 1751.19 Q54.2512 1758.29 56.0567 1761.86 Q57.8854 1765.4 61.4965 1765.4 Q65.1307 1765.4 66.9363 1761.86 Q68.765 1758.29 68.765 1751.19 Q68.765 1744.06 66.9363 1740.51 Q65.1307 1736.95 61.4965 1736.95 M61.4965 1733.25 Q67.3067 1733.25 70.3622 1737.85 Q73.4409 1742.44 73.4409 1751.19 Q73.4409 1759.91 70.3622 1764.52 Q67.3067 1769.1 61.4965 1769.1 Q55.6864 1769.1 52.6077 1764.52 Q49.5521 1759.91 49.5521 1751.19 Q49.5521 1742.44 52.6077 1737.85 Q55.6864 1733.25 61.4965 1733.25 Z" fill="#000000" fill-rule="evenodd" fill-opacity="1" /><path clip-path="url(#clip890)" d="M81.6584 1762.55 L86.5427 1762.55 L86.5427 1768.43 L81.6584 1768.43 L81.6584 1762.55 Z" fill="#000000" fill-rule="evenodd" fill-opacity="1" /><path clip-path="url(#clip890)" d="M106.728 1736.95 Q103.117 1736.95 101.288 1740.51 Q99.4824 1744.06 99.4824 1751.19 Q99.4824 1758.29 101.288 1761.86 Q103.117 1765.4 106.728 1765.4 Q110.362 1765.4 112.168 1761.86 Q113.996 1758.29 113.996 1751.19 Q113.996 1744.06 112.168 1740.51 Q110.362 1736.95 106.728 1736.95 M106.728 1733.25 Q112.538 1733.25 115.593 1737.85 Q118.672 1742.44 118.672 1751.19 Q118.672 1759.91 115.593 1764.52 Q112.538 1769.1 106.728 1769.1 Q100.918 1769.1 97.8389 1764.52 Q94.7834 1759.91 94.7834 1751.19 Q94.7834 1742.44 97.8389 1737.85 Q100.918 1733.25 106.728 1733.25 Z" fill="#000000" fill-rule="evenodd" fill-opacity="1" /><path clip-path="url(#clip890)" d="M136.89 1736.95 Q133.279 1736.95 131.45 1740.51 Q129.644 1744.06 129.644 1751.19 Q129.644 1758.29 131.45 1761.86 Q133.279 1765.4 136.89 1765.4 Q140.524 1765.4 142.329 1761.86 Q144.158 1758.29 144.158 1751.19 Q144.158 1744.06 142.329 1740.51 Q140.524 1736.95 136.89 1736.95 M136.89 1733.25 Q142.7 1733.25 145.755 1737.85 Q148.834 1742.44 148.834 1751.19 Q148.834 1759.91 145.755 1764.52 Q142.7 1769.1 136.89 1769.1 Q131.079 1769.1 128.001 1764.52 Q124.945 1759.91 124.945 1751.19 Q124.945 1742.44 128.001 1737.85 Q131.079 1733.25 136.89 1733.25 Z" fill="#000000" fill-rule="evenodd" fill-opacity="1" /><path clip-path="url(#clip890)" d="M62.4919 1323.38 Q58.8808 1323.38 57.0521 1326.94 Q55.2465 1330.49 55.2465 1337.62 Q55.2465 1344.72 57.0521 1348.29 Q58.8808 1351.83 62.4919 1351.83 Q66.1261 1351.83 67.9317 1348.29 Q69.7604 1344.72 69.7604 1337.62 Q69.7604 1330.49 67.9317 1326.94 Q66.1261 1323.38 62.4919 1323.38 M62.4919 1319.68 Q68.302 1319.68 71.3576 1324.28 Q74.4363 1328.87 74.4363 1337.62 Q74.4363 1346.34 71.3576 1350.95 Q68.302 1355.53 62.4919 1355.53 Q56.6817 1355.53 53.603 1350.95 Q50.5475 1346.34 50.5475 1337.62 Q50.5475 1328.87 53.603 1324.28 Q56.6817 1319.68 62.4919 1319.68 Z" fill="#000000" fill-rule="evenodd" fill-opacity="1" /><path clip-path="url(#clip890)" d="M82.6538 1348.98 L87.538 1348.98 L87.538 1354.86 L82.6538 1354.86 L82.6538 1348.98 Z" fill="#000000" fill-rule="evenodd" fill-opacity="1" /><path clip-path="url(#clip890)" d="M101.751 1350.93 L118.07 1350.93 L118.07 1354.86 L96.126 1354.86 L96.126 1350.93 Q98.788 1348.17 103.371 1343.54 Q107.978 1338.89 109.158 1337.55 Q111.404 1335.02 112.283 1333.29 Q113.186 1331.53 113.186 1329.84 Q113.186 1327.08 111.242 1325.35 Q109.32 1323.61 106.218 1323.61 Q104.019 1323.61 101.566 1324.38 Q99.1352 1325.14 96.3574 1326.69 L96.3574 1321.97 Q99.1815 1320.83 101.635 1320.26 Q104.089 1319.68 106.126 1319.68 Q111.496 1319.68 114.691 1322.36 Q117.885 1325.05 117.885 1329.54 Q117.885 1331.67 117.075 1333.59 Q116.288 1335.49 114.181 1338.08 Q113.603 1338.75 110.501 1341.97 Q107.399 1345.16 101.751 1350.93 Z" fill="#000000" fill-rule="evenodd" fill-opacity="1" /><path clip-path="url(#clip890)" d="M127.931 1320.3 L146.288 1320.3 L146.288 1324.24 L132.214 1324.24 L132.214 1332.71 Q133.232 1332.36 134.251 1332.2 Q135.269 1332.01 136.288 1332.01 Q142.075 1332.01 145.454 1335.19 Q148.834 1338.36 148.834 1343.77 Q148.834 1349.35 145.362 1352.45 Q141.89 1355.53 135.57 1355.53 Q133.394 1355.53 131.126 1355.16 Q128.88 1354.79 126.473 1354.05 L126.473 1349.35 Q128.556 1350.49 130.779 1351.04 Q133.001 1351.6 135.478 1351.6 Q139.482 1351.6 141.82 1349.49 Q144.158 1347.38 144.158 1343.77 Q144.158 1340.16 141.82 1338.06 Q139.482 1335.95 135.478 1335.95 Q133.603 1335.95 131.728 1336.37 Q129.876 1336.78 127.931 1337.66 L127.931 1320.3 Z" fill="#000000" fill-rule="evenodd" fill-opacity="1" /><path clip-path="url(#clip890)" d="M61.4965 909.81 Q57.8854 909.81 56.0567 913.375 Q54.2512 916.917 54.2512 924.046 Q54.2512 931.153 56.0567 934.718 Q57.8854 938.259 61.4965 938.259 Q65.1307 938.259 66.9363 934.718 Q68.765 931.153 68.765 924.046 Q68.765 916.917 66.9363 913.375 Q65.1307 909.81 61.4965 909.81 M61.4965 906.107 Q67.3067 906.107 70.3622 910.713 Q73.4409 915.296 73.4409 924.046 Q73.4409 932.773 70.3622 937.38 Q67.3067 941.963 61.4965 941.963 Q55.6864 941.963 52.6077 937.38 Q49.5521 932.773 49.5521 924.046 Q49.5521 915.296 52.6077 910.713 Q55.6864 906.107 61.4965 906.107 Z" fill="#000000" fill-rule="evenodd" fill-opacity="1" /><path clip-path="url(#clip890)" d="M81.6584 935.412 L86.5427 935.412 L86.5427 941.292 L81.6584 941.292 L81.6584 935.412 Z" fill="#000000" fill-rule="evenodd" fill-opacity="1" /><path clip-path="url(#clip890)" d="M96.7741 906.732 L115.13 906.732 L115.13 910.667 L101.056 910.667 L101.056 919.139 Q102.075 918.792 103.094 918.63 Q104.112 918.445 105.131 918.445 Q110.918 918.445 114.297 921.616 Q117.677 924.787 117.677 930.204 Q117.677 935.782 114.205 938.884 Q110.732 941.963 104.413 941.963 Q102.237 941.963 99.9685 941.593 Q97.7232 941.222 95.3158 940.482 L95.3158 935.782 Q97.3991 936.917 99.6213 937.472 Q101.844 938.028 104.32 938.028 Q108.325 938.028 110.663 935.921 Q113.001 933.815 113.001 930.204 Q113.001 926.593 110.663 924.486 Q108.325 922.38 104.32 922.38 Q102.445 922.38 100.57 922.796 Q98.7185 923.213 96.7741 924.093 L96.7741 906.732 Z" fill="#000000" fill-rule="evenodd" fill-opacity="1" /><path clip-path="url(#clip890)" d="M136.89 909.81 Q133.279 909.81 131.45 913.375 Q129.644 916.917 129.644 924.046 Q129.644 931.153 131.45 934.718 Q133.279 938.259 136.89 938.259 Q140.524 938.259 142.329 934.718 Q144.158 931.153 144.158 924.046 Q144.158 916.917 142.329 913.375 Q140.524 909.81 136.89 909.81 M136.89 906.107 Q142.7 906.107 145.755 910.713 Q148.834 915.296 148.834 924.046 Q148.834 932.773 145.755 937.38 Q142.7 941.963 136.89 941.963 Q131.079 941.963 128.001 937.38 Q124.945 932.773 124.945 924.046 Q124.945 915.296 128.001 910.713 Q131.079 906.107 136.89 906.107 Z" fill="#000000" fill-rule="evenodd" fill-opacity="1" /><path clip-path="url(#clip890)" d="M62.4919 496.241 Q58.8808 496.241 57.0521 499.806 Q55.2465 503.347 55.2465 510.477 Q55.2465 517.583 57.0521 521.148 Q58.8808 524.69 62.4919 524.69 Q66.1261 524.69 67.9317 521.148 Q69.7604 517.583 69.7604 510.477 Q69.7604 503.347 67.9317 499.806 Q66.1261 496.241 62.4919 496.241 M62.4919 492.537 Q68.302 492.537 71.3576 497.144 Q74.4363 501.727 74.4363 510.477 Q74.4363 519.204 71.3576 523.81 Q68.302 528.393 62.4919 528.393 Q56.6817 528.393 53.603 523.81 Q50.5475 519.204 50.5475 510.477 Q50.5475 501.727 53.603 497.144 Q56.6817 492.537 62.4919 492.537 Z" fill="#000000" fill-rule="evenodd" fill-opacity="1" /><path clip-path="url(#clip890)" d="M82.6538 521.842 L87.538 521.842 L87.538 527.722 L82.6538 527.722 L82.6538 521.842 Z" fill="#000000" fill-rule="evenodd" fill-opacity="1" /><path clip-path="url(#clip890)" d="M96.5426 493.162 L118.765 493.162 L118.765 495.153 L106.218 527.722 L101.334 527.722 L113.14 497.097 L96.5426 497.097 L96.5426 493.162 Z" fill="#000000" fill-rule="evenodd" fill-opacity="1" /><path clip-path="url(#clip890)" d="M127.931 493.162 L146.288 493.162 L146.288 497.097 L132.214 497.097 L132.214 505.569 Q133.232 505.222 134.251 505.06 Q135.269 504.875 136.288 504.875 Q142.075 504.875 145.454 508.046 Q148.834 511.218 148.834 516.634 Q148.834 522.213 145.362 525.315 Q141.89 528.393 135.57 528.393 Q133.394 528.393 131.126 528.023 Q128.88 527.653 126.473 526.912 L126.473 522.213 Q128.556 523.347 130.779 523.903 Q133.001 524.458 135.478 524.458 Q139.482 524.458 141.82 522.352 Q144.158 520.245 144.158 516.634 Q144.158 513.023 141.82 510.917 Q139.482 508.81 135.478 508.81 Q133.603 508.81 131.728 509.227 Q129.876 509.643 127.931 510.523 L127.931 493.162 Z" fill="#000000" fill-rule="evenodd" fill-opacity="1" /><path clip-path="url(#clip890)" d="M52.3067 110.217 L59.9456 110.217 L59.9456 83.8517 L51.6354 85.5183 L51.6354 81.2591 L59.8993 79.5924 L64.5752 79.5924 L64.5752 110.217 L72.214 110.217 L72.214 114.152 L52.3067 114.152 L52.3067 110.217 Z" fill="#000000" fill-rule="evenodd" fill-opacity="1" /><path clip-path="url(#clip890)" d="M81.6584 108.273 L86.5427 108.273 L86.5427 114.152 L81.6584 114.152 L81.6584 108.273 Z" fill="#000000" fill-rule="evenodd" fill-opacity="1" /><path clip-path="url(#clip890)" d="M106.728 82.6711 Q103.117 82.6711 101.288 86.2359 Q99.4824 89.7776 99.4824 96.9072 Q99.4824 104.014 101.288 107.578 Q103.117 111.12 106.728 111.12 Q110.362 111.12 112.168 107.578 Q113.996 104.014 113.996 96.9072 Q113.996 89.7776 112.168 86.2359 Q110.362 82.6711 106.728 82.6711 M106.728 78.9675 Q112.538 78.9675 115.593 83.5739 Q118.672 88.1572 118.672 96.9072 Q118.672 105.634 115.593 110.24 Q112.538 114.824 106.728 114.824 Q100.918 114.824 97.8389 110.24 Q94.7834 105.634 94.7834 96.9072 Q94.7834 88.1572 97.8389 83.5739 Q100.918 78.9675 106.728 78.9675 Z" fill="#000000" fill-rule="evenodd" fill-opacity="1" /><path clip-path="url(#clip890)" d="M136.89 82.6711 Q133.279 82.6711 131.45 86.2359 Q129.644 89.7776 129.644 96.9072 Q129.644 104.014 131.45 107.578 Q133.279 111.12 136.89 111.12 Q140.524 111.12 142.329 107.578 Q144.158 104.014 144.158 96.9072 Q144.158 89.7776 142.329 86.2359 Q140.524 82.6711 136.89 82.6711 M136.89 78.9675 Q142.7 78.9675 145.755 83.5739 Q148.834 88.1572 148.834 96.9072 Q148.834 105.634 145.755 110.24 Q142.7 114.824 136.89 114.824 Q131.079 114.824 128.001 110.24 Q124.945 105.634 124.945 96.9072 Q124.945 88.1572 128.001 83.5739 Q131.079 78.9675 136.89 78.9675 Z" fill="#000000" fill-rule="evenodd" fill-opacity="1" /><polyline clip-path="url(#clip892)" style="stroke:#009af9; stroke-linecap:butt; stroke-linejoin:round; stroke-width:4; stroke-opacity:1; fill:none" points="
  258.539,1751.15 276.795,1742.84 295.05,1734.53 313.303,1726.21 331.552,1717.9 349.796,1709.59 368.035,1701.27 386.267,1692.96 404.492,1684.65 422.707,1676.33 
  440.912,1668.02 459.105,1659.71 477.286,1651.4 495.454,1643.08 513.606,1634.77 531.743,1626.46 549.863,1618.14 567.964,1609.83 586.046,1601.52 604.108,1593.2 
  622.149,1584.89 640.166,1576.58 658.16,1568.27 676.129,1559.95 694.072,1551.64 711.988,1543.33 729.876,1535.01 747.734,1526.7 765.562,1518.39 783.358,1510.08 
  801.121,1501.76 818.851,1493.45 836.546,1485.14 854.204,1476.82 871.826,1468.51 889.409,1460.2 906.954,1451.88 924.457,1443.57 941.919,1435.26 959.339,1426.95 
  976.715,1418.63 994.046,1410.32 1011.33,1402.01 1028.57,1393.69 1045.76,1385.38 1062.9,1377.07 1079.99,1368.75 1097.03,1360.44 1114.02,1352.13 1130.96,1343.82 
  1147.84,1335.5 1164.66,1327.19 1181.43,1318.88 1198.14,1310.56 1214.79,1302.25 1231.39,1293.94 1247.92,1285.63 1264.39,1277.31 1280.8,1269 1297.14,1260.69 
  1313.42,1252.37 1329.63,1244.06 1345.78,1235.75 1361.86,1227.43 1377.87,1219.12 1393.81,1210.81 1409.68,1202.5 1425.48,1194.18 1441.2,1185.87 1456.86,1177.56 
  1472.43,1169.24 1487.94,1160.93 1503.36,1152.62 1518.71,1144.31 1533.98,1135.99 1549.17,1127.68 1564.28,1119.37 1579.3,1111.05 1594.25,1102.74 1609.11,1094.43 
  1623.89,1086.11 1638.58,1077.8 1653.19,1069.49 1667.71,1061.18 1682.14,1052.86 1696.48,1044.55 1710.74,1036.24 1724.9,1027.92 1738.97,1019.61 1752.95,1011.3 
  1766.84,1002.98 1780.63,994.672 1794.33,986.359 1807.93,978.046 1821.44,969.733 1834.85,961.42 1848.16,953.107 1861.37,944.794 1874.48,936.481 1887.49,928.168 
  1900.4,919.855 1913.21,911.542 1925.91,903.229 1938.51,894.916 1951.01,886.603 1963.39,878.29 1975.68,869.977 1987.85,861.665 1999.92,853.352 2011.88,845.039 
  2023.73,836.726 2035.48,828.413 2047.11,820.1 2058.62,811.787 2070.03,803.474 2081.33,795.161 2092.51,786.848 2103.57,778.535 2114.52,770.222 2125.36,761.909 
  2136.08,753.596 2146.68,745.283 2157.16,736.97 2167.53,728.657 2177.78,720.344 2187.9,712.031 2197.91,703.718 2207.8,695.405 2217.56,687.092 2227.21,678.779 
  2236.73,670.467 2246.12,662.154 2255.4,653.841 2264.55,645.528 2273.57,637.215 2282.47,628.902 2291.24,620.589 2299.89,612.276 2308.4,603.963 2316.8,595.65 
  2325.06,587.337 2333.19,579.024 2341.2,570.711 2349.07,562.398 2356.81,554.085 2364.43,545.772 2371.91,537.459 2379.26,529.146 2386.48,520.833 2393.57,512.52 
  2400.52,504.207 2407.34,495.894 2414.02,487.581 2420.58,479.268 2426.99,470.956 2433.27,462.643 2439.42,454.33 2445.43,446.017 2451.3,437.704 2457.04,429.391 
  2462.64,421.078 2468.11,412.765 2473.43,404.452 2478.62,396.139 2483.67,387.826 2488.58,379.513 2493.35,371.2 2497.98,362.887 2502.47,354.574 2506.83,346.261 
  2511.04,337.948 2515.11,329.635 2519.04,321.322 2522.83,313.009 2526.48,304.696 2529.99,296.383 2533.36,288.07 2536.59,279.758 2539.67,271.445 2542.61,263.132 
  2545.41,254.819 2548.07,246.506 2550.58,238.193 2552.95,229.88 2555.18,221.567 2557.26,213.254 2559.2,204.941 2561,196.628 2562.66,188.315 2564.17,180.002 
  2565.54,171.689 2566.76,163.376 2567.84,155.063 2568.78,146.75 2569.57,138.437 2570.22,130.124 2570.72,121.811 2571.08,113.498 2571.3,105.185 2571.37,96.8724 
  
  "/>
<polyline clip-path="url(#clip892)" style="stroke:#e26f46; stroke-linecap:butt; stroke-linejoin:round; stroke-width:4; stroke-opacity:1; fill:none" points="
  258.539,1751.15 273.597,1751.15 412.828,1751.15 496.5,1751.15 567.244,1751.15 644.091,1751.15 714.938,1751.15 790.893,1751.15 878.894,1751.15 957.099,1751.15 
  1025.68,1751.15 1100.45,1751.15 1175.66,1751.15 1258.82,1751.15 1337.94,1751.15 1420.21,1751.15 1489.47,1751.15 1574.02,1751.15 1651.47,1751.15 1723.01,1751.15 
  1795.47,1751.15 1876.68,1751.15 1950.27,1751.15 2034.52,1751.15 2112.53,1751.15 2189.45,1751.15 2264.12,1751.15 2340.67,1751.15 2424.54,1751.15 2546.38,1751.15 
  2571.37,1751.15 
  "/>
<circle clip-path="url(#clip892)" cx="1143.62" cy="1337.58" r="18" fill="#ffa500" fill-rule="evenodd" fill-opacity="1" stroke="#000000" stroke-opacity="1" stroke-width="3.84"/>
<circle clip-path="url(#clip892)" cx="2395.32" cy="510.442" r="18" fill="#ffa500" fill-rule="evenodd" fill-opacity="1" stroke="#000000" stroke-opacity="1" stroke-width="3.84"/>
<path clip-path="url(#clip892)" d="
M1143.62 1751.15 L1143.62 1337.58 L258.539 1337.58 L258.539 510.442 L2395.32 510.442 L2395.32 1751.15 L1143.62 1751.15 L1143.62 1751.15  Z
  " fill="#ffa500" fill-rule="evenodd" fill-opacity="0.25"/>
<polyline clip-path="url(#clip892)" style="stroke:#000000; stroke-linecap:butt; stroke-linejoin:round; stroke-width:4; stroke-opacity:0.25; fill:none" points="
  1143.62,1751.15 1143.62,1337.58 258.539,1337.58 258.539,510.442 2395.32,510.442 2395.32,1751.15 1143.62,1751.15 
  "/>
<path clip-path="url(#clip890)" d="M1761.88 1315.4 L1750.78 1345.5 L1773.02 1345.5 L1761.88 1315.4 M1757.26 1307.34 L1766.54 1307.34 L1789.59 1367.82 L1781.08 1367.82 L1775.57 1352.31 L1748.31 1352.31 L1742.8 1367.82 L1734.17 1367.82 L1757.26 1307.34 Z" fill="#000000" fill-rule="evenodd" fill-opacity="1" /><path clip-path="url(#clip890)" d="M1170.41 842.655 L1170.41 864.813 L1183.53 864.813 Q1190.13 864.813 1193.29 862.099 Q1196.49 859.345 1196.49 853.714 Q1196.49 848.043 1193.29 845.369 Q1190.13 842.655 1183.53 842.655 L1170.41 842.655 M1170.41 817.782 L1170.41 836.011 L1182.52 836.011 Q1188.51 836.011 1191.43 833.783 Q1194.39 831.515 1194.39 826.897 Q1194.39 822.319 1191.43 820.051 Q1188.51 817.782 1182.52 817.782 L1170.41 817.782 M1162.22 811.058 L1183.12 811.058 Q1192.48 811.058 1197.55 814.947 Q1202.61 818.836 1202.61 826.006 Q1202.61 831.555 1200.02 834.837 Q1197.42 838.118 1192.4 838.928 Q1198.44 840.224 1201.76 844.356 Q1205.12 848.448 1205.12 854.605 Q1205.12 862.707 1199.61 867.122 Q1194.1 871.538 1183.94 871.538 L1162.22 871.538 L1162.22 811.058 Z" fill="#000000" fill-rule="evenodd" fill-opacity="1" /><path clip-path="url(#clip890)" d="M957.381 1172.53 Q951.953 1181.85 949.32 1190.96 Q946.687 1200.07 946.687 1209.43 Q946.687 1218.79 949.32 1227.98 Q951.993 1237.14 957.381 1246.42 L950.9 1246.42 Q944.823 1236.9 941.785 1227.7 Q938.787 1218.51 938.787 1209.43 Q938.787 1200.4 941.785 1191.24 Q944.783 1182.09 950.9 1172.53 L957.381 1172.53 Z" fill="#000000" fill-rule="evenodd" fill-opacity="1" /><path clip-path="url(#clip890)" d="M971.073 1217.57 L971.073 1190.11 L978.527 1190.11 L978.527 1217.29 Q978.527 1223.73 981.038 1226.97 Q983.55 1230.17 988.573 1230.17 Q994.609 1230.17 998.093 1226.32 Q1001.62 1222.48 1001.62 1215.83 L1001.62 1190.11 L1009.07 1190.11 L1009.07 1235.48 L1001.62 1235.48 L1001.62 1228.51 Q998.903 1232.64 995.298 1234.67 Q991.733 1236.65 986.993 1236.65 Q979.175 1236.65 975.124 1231.79 Q971.073 1226.93 971.073 1217.57 M989.829 1189.02 L989.829 1189.02 Z" fill="#000000" fill-rule="evenodd" fill-opacity="1" /><path clip-path="url(#clip890)" d="M1042.33 1172.53 Q1036.9 1181.85 1034.27 1190.96 Q1031.63 1200.07 1031.63 1209.43 Q1031.63 1218.79 1034.27 1227.98 Q1036.94 1237.14 1042.33 1246.42 L1035.85 1246.42 Q1029.77 1236.9 1026.73 1227.7 Q1023.73 1218.51 1023.73 1209.43 Q1023.73 1200.4 1026.73 1191.24 Q1029.73 1182.09 1035.85 1172.53 L1042.33 1172.53 Z" fill="#000000" fill-rule="evenodd" fill-opacity="1" /><path clip-path="url(#clip890)" d="M1077.41 1212.67 Q1068.38 1212.67 1064.89 1214.74 Q1061.41 1216.8 1061.41 1221.79 Q1061.41 1225.76 1064 1228.11 Q1066.63 1230.42 1071.13 1230.42 Q1077.33 1230.42 1081.06 1226.04 Q1084.82 1221.62 1084.82 1214.33 L1084.82 1212.67 L1077.41 1212.67 M1092.28 1209.59 L1092.28 1235.48 L1084.82 1235.48 L1084.82 1228.59 Q1082.27 1232.72 1078.46 1234.71 Q1074.65 1236.65 1069.15 1236.65 Q1062.18 1236.65 1058.05 1232.76 Q1053.95 1228.84 1053.95 1222.27 Q1053.95 1214.62 1059.06 1210.73 Q1064.2 1206.84 1074.37 1206.84 L1084.82 1206.84 L1084.82 1206.11 Q1084.82 1200.97 1081.42 1198.17 Q1078.06 1195.33 1071.94 1195.33 Q1068.05 1195.33 1064.37 1196.27 Q1060.68 1197.2 1057.28 1199.06 L1057.28 1192.17 Q1061.37 1190.6 1065.22 1189.83 Q1069.06 1189.02 1072.71 1189.02 Q1082.55 1189.02 1087.42 1194.12 Q1092.28 1199.22 1092.28 1209.59 Z" fill="#000000" fill-rule="evenodd" fill-opacity="1" /><path clip-path="url(#clip890)" d="M1106.45 1172.53 L1112.94 1172.53 Q1119.01 1182.09 1122.01 1191.24 Q1125.05 1200.4 1125.05 1209.43 Q1125.05 1218.51 1122.01 1227.7 Q1119.01 1236.9 1112.94 1246.42 L1106.45 1246.42 Q1111.84 1237.14 1114.48 1227.98 Q1117.15 1218.79 1117.15 1209.43 Q1117.15 1200.07 1114.48 1190.96 Q1111.84 1181.85 1106.45 1172.53 Z" fill="#000000" fill-rule="evenodd" fill-opacity="1" /><path clip-path="url(#clip890)" d="M1141.9 1225.19 L1150.45 1225.19 L1150.45 1232.16 L1143.8 1245.12 L1138.58 1245.12 L1141.9 1232.16 L1141.9 1225.19 Z" fill="#000000" fill-rule="evenodd" fill-opacity="1" /><path clip-path="url(#clip890)" d="M1161.02 1190.11 L1168.92 1190.11 L1183.1 1228.19 L1197.28 1190.11 L1205.17 1190.11 L1188.16 1235.48 L1178.03 1235.48 L1161.02 1190.11 Z" fill="#000000" fill-rule="evenodd" fill-opacity="1" /><path clip-path="url(#clip890)" d="M1233.37 1172.53 Q1227.94 1181.85 1225.31 1190.96 Q1222.67 1200.07 1222.67 1209.43 Q1222.67 1218.79 1225.31 1227.98 Q1227.98 1237.14 1233.37 1246.42 L1226.89 1246.42 Q1220.81 1236.9 1217.77 1227.7 Q1214.78 1218.51 1214.78 1209.43 Q1214.78 1200.4 1217.77 1191.24 Q1220.77 1182.09 1226.89 1172.53 L1233.37 1172.53 Z" fill="#000000" fill-rule="evenodd" fill-opacity="1" /><path clip-path="url(#clip890)" d="M1268.45 1212.67 Q1259.42 1212.67 1255.93 1214.74 Q1252.45 1216.8 1252.45 1221.79 Q1252.45 1225.76 1255.04 1228.11 Q1257.67 1230.42 1262.17 1230.42 Q1268.37 1230.42 1272.1 1226.04 Q1275.86 1221.62 1275.86 1214.33 L1275.86 1212.67 L1268.45 1212.67 M1283.32 1209.59 L1283.32 1235.48 L1275.86 1235.48 L1275.86 1228.59 Q1273.31 1232.72 1269.5 1234.71 Q1265.7 1236.65 1260.19 1236.65 Q1253.22 1236.65 1249.09 1232.76 Q1245 1228.84 1245 1222.27 Q1245 1214.62 1250.1 1210.73 Q1255.24 1206.84 1265.41 1206.84 L1275.86 1206.84 L1275.86 1206.11 Q1275.86 1200.97 1272.46 1198.17 Q1269.1 1195.33 1262.98 1195.33 Q1259.09 1195.33 1255.41 1196.27 Q1251.72 1197.2 1248.32 1199.06 L1248.32 1192.17 Q1252.41 1190.6 1256.26 1189.83 Q1260.11 1189.02 1263.75 1189.02 Q1273.59 1189.02 1278.46 1194.12 Q1283.32 1199.22 1283.32 1209.59 Z" fill="#000000" fill-rule="evenodd" fill-opacity="1" /><path clip-path="url(#clip890)" d="M1297.5 1172.53 L1303.98 1172.53 Q1310.05 1182.09 1313.05 1191.24 Q1316.09 1200.4 1316.09 1209.43 Q1316.09 1218.51 1313.05 1227.7 Q1310.05 1236.9 1303.98 1246.42 L1297.5 1246.42 Q1302.88 1237.14 1305.52 1227.98 Q1308.19 1218.79 1308.19 1209.43 Q1308.19 1200.07 1305.52 1190.96 Q1302.88 1181.85 1297.5 1172.53 Z" fill="#000000" fill-rule="evenodd" fill-opacity="1" /><path clip-path="url(#clip890)" d="M1329.86 1172.53 L1336.34 1172.53 Q1342.42 1182.09 1345.42 1191.24 Q1348.46 1200.4 1348.46 1209.43 Q1348.46 1218.51 1345.42 1227.7 Q1342.42 1236.9 1336.34 1246.42 L1329.86 1246.42 Q1335.25 1237.14 1337.88 1227.98 Q1340.56 1218.79 1340.56 1209.43 Q1340.56 1200.07 1337.88 1190.96 Q1335.25 1181.85 1329.86 1172.53 Z" fill="#000000" fill-rule="evenodd" fill-opacity="1" /><path clip-path="url(#clip890)" d="M2207.25 345.389 Q2201.83 354.706 2199.19 363.82 Q2196.56 372.935 2196.56 382.292 Q2196.56 391.65 2199.19 400.846 Q2201.87 410.001 2207.25 419.277 L2200.77 419.277 Q2194.7 409.758 2191.66 400.562 Q2188.66 391.367 2188.66 382.292 Q2188.66 373.259 2191.66 364.104 Q2194.66 354.949 2200.77 345.389 L2207.25 345.389 Z" fill="#000000" fill-rule="evenodd" fill-opacity="1" /><path clip-path="url(#clip890)" d="M2220.95 390.435 L2220.95 362.97 L2228.4 362.97 L2228.4 390.151 Q2228.4 396.592 2230.91 399.833 Q2233.42 403.033 2238.45 403.033 Q2244.48 403.033 2247.97 399.185 Q2251.49 395.336 2251.49 388.693 L2251.49 362.97 L2258.94 362.97 L2258.94 408.34 L2251.49 408.34 L2251.49 401.372 Q2248.78 405.504 2245.17 407.53 Q2241.61 409.515 2236.87 409.515 Q2229.05 409.515 2225 404.653 Q2220.95 399.792 2220.95 390.435 M2239.7 361.876 L2239.7 361.876 Z" fill="#000000" fill-rule="evenodd" fill-opacity="1" /><path clip-path="url(#clip890)" d="M2292.2 345.389 Q2286.77 354.706 2284.14 363.82 Q2281.51 372.935 2281.51 382.292 Q2281.51 391.65 2284.14 400.846 Q2286.81 410.001 2292.2 419.277 L2285.72 419.277 Q2279.64 409.758 2276.61 400.562 Q2273.61 391.367 2273.61 382.292 Q2273.61 373.259 2276.61 364.104 Q2279.6 354.949 2285.72 345.389 L2292.2 345.389 Z" fill="#000000" fill-rule="evenodd" fill-opacity="1" /><path clip-path="url(#clip890)" d="M2339.23 385.695 Q2339.23 377.472 2335.83 372.813 Q2332.47 368.114 2326.55 368.114 Q2320.64 368.114 2317.24 372.813 Q2313.87 377.472 2313.87 385.695 Q2313.87 393.919 2317.24 398.618 Q2320.64 403.276 2326.55 403.276 Q2332.47 403.276 2335.83 398.618 Q2339.23 393.919 2339.23 385.695 M2313.87 369.856 Q2316.22 365.805 2319.79 363.861 Q2323.39 361.876 2328.38 361.876 Q2336.64 361.876 2341.78 368.438 Q2346.97 375.001 2346.97 385.695 Q2346.97 396.39 2341.78 402.952 Q2336.64 409.515 2328.38 409.515 Q2323.39 409.515 2319.79 407.57 Q2316.22 405.585 2313.87 401.534 L2313.87 408.34 L2306.38 408.34 L2306.38 345.308 L2313.87 345.308 L2313.87 369.856 Z" fill="#000000" fill-rule="evenodd" fill-opacity="1" /><path clip-path="url(#clip890)" d="M2358.15 345.389 L2364.63 345.389 Q2370.71 354.949 2373.71 364.104 Q2376.74 373.259 2376.74 382.292 Q2376.74 391.367 2373.71 400.562 Q2370.71 409.758 2364.63 419.277 L2358.15 419.277 Q2363.54 410.001 2366.17 400.846 Q2368.84 391.65 2368.84 382.292 Q2368.84 372.935 2366.17 363.82 Q2363.54 354.706 2358.15 345.389 Z" fill="#000000" fill-rule="evenodd" fill-opacity="1" /><path clip-path="url(#clip890)" d="M2393.6 398.05 L2402.14 398.05 L2402.14 405.018 L2395.5 417.981 L2390.27 417.981 L2393.6 405.018 L2393.6 398.05 Z" fill="#000000" fill-rule="evenodd" fill-opacity="1" /><path clip-path="url(#clip890)" d="M2412.72 362.97 L2420.61 362.97 L2434.79 401.048 L2448.97 362.97 L2456.87 362.97 L2439.86 408.34 L2429.73 408.34 L2412.72 362.97 Z" fill="#000000" fill-rule="evenodd" fill-opacity="1" /><path clip-path="url(#clip890)" d="M2485.06 345.389 Q2479.64 354.706 2477 363.82 Q2474.37 372.935 2474.37 382.292 Q2474.37 391.65 2477 400.846 Q2479.68 410.001 2485.06 419.277 L2478.58 419.277 Q2472.51 409.758 2469.47 400.562 Q2466.47 391.367 2466.47 382.292 Q2466.47 373.259 2469.47 364.104 Q2472.47 354.949 2478.58 345.389 L2485.06 345.389 Z" fill="#000000" fill-rule="evenodd" fill-opacity="1" /><path clip-path="url(#clip890)" d="M2532.1 385.695 Q2532.1 377.472 2528.69 372.813 Q2525.33 368.114 2519.42 368.114 Q2513.5 368.114 2510.1 372.813 Q2506.74 377.472 2506.74 385.695 Q2506.74 393.919 2510.1 398.618 Q2513.5 403.276 2519.42 403.276 Q2525.33 403.276 2528.69 398.618 Q2532.1 393.919 2532.1 385.695 M2506.74 369.856 Q2509.09 365.805 2512.65 363.861 Q2516.26 361.876 2521.24 361.876 Q2529.5 361.876 2534.65 368.438 Q2539.83 375.001 2539.83 385.695 Q2539.83 396.39 2534.65 402.952 Q2529.5 409.515 2521.24 409.515 Q2516.26 409.515 2512.65 407.57 Q2509.09 405.585 2506.74 401.534 L2506.74 408.34 L2499.24 408.34 L2499.24 345.308 L2506.74 345.308 L2506.74 369.856 Z" fill="#000000" fill-rule="evenodd" fill-opacity="1" /><path clip-path="url(#clip890)" d="M2551.01 345.389 L2557.5 345.389 Q2563.57 354.949 2566.57 364.104 Q2569.61 373.259 2569.61 382.292 Q2569.61 391.367 2566.57 400.562 Q2563.57 409.758 2557.5 419.277 L2551.01 419.277 Q2556.4 410.001 2559.03 400.846 Q2561.71 391.65 2561.71 382.292 Q2561.71 372.935 2559.03 363.82 Q2556.4 354.706 2551.01 345.389 Z" fill="#000000" fill-rule="evenodd" fill-opacity="1" /><path clip-path="url(#clip890)" d="M2583.38 345.389 L2589.86 345.389 Q2595.94 354.949 2598.94 364.104 Q2601.97 373.259 2601.97 382.292 Q2601.97 391.367 2598.94 400.562 Q2595.94 409.758 2589.86 419.277 L2583.38 419.277 Q2588.77 410.001 2591.4 400.846 Q2594.07 391.65 2594.07 382.292 Q2594.07 372.935 2591.4 363.82 Q2588.77 354.706 2583.38 345.389 Z" fill="#000000" fill-rule="evenodd" fill-opacity="1" /></svg>
