<?xml version="1.0" encoding="utf-8"?>
<svg xmlns="http://www.w3.org/2000/svg" xmlns:xlink="http://www.w3.org/1999/xlink" width="672" height="480" viewBox="0 0 2688 1920">
<defs>
  <clipPath id="clip930">
    <rect x="0" y="0" width="2688" height="1920"/>
  </clipPath>
</defs>
<path clip-path="url(#clip930)" d="
M0 1920 L2688 1920 L2688 0 L0 0  Z
  " fill="#ffffff" fill-rule="evenodd" fill-opacity="1"/>
<defs>
  <clipPath id="clip931">
    <rect x="537" y="0" width="1883" height="1883"/>
  </clipPath>
</defs>
<path clip-path="url(#clip930)" d="
M152.071 1800.78 L2640.76 1800.78 L2640.76 47.2441 L152.071 47.2441  Z
  " fill="#ffffff" fill-rule="evenodd" fill-opacity="1"/>
<defs>
  <clipPath id="clip932">
    <rect x="152" y="47" width="2490" height="1755"/>
  </clipPath>
</defs>
<polyline clip-path="url(#clip932)" style="stroke:#000000; stroke-linecap:butt; stroke-linejoin:round; stroke-width:2; stroke-opacity:0.1; fill:none" points="
  488.514,1800.78 488.514,47.2441 
  "/>
<polyline clip-path="url(#clip932)" style="stroke:#000000; stroke-linecap:butt; stroke-linejoin:round; stroke-width:2; stroke-opacity:0.1; fill:none" points="
  862.227,1800.78 862.227,47.2441 
  "/>
<polyline clip-path="url(#clip932)" style="stroke:#000000; stroke-linecap:butt; stroke-linejoin:round; stroke-width:2; stroke-opacity:0.1; fill:none" points="
  1235.94,1800.78 1235.94,47.2441 
  "/>
<polyline clip-path="url(#clip932)" style="stroke:#000000; stroke-linecap:butt; stroke-linejoin:round; stroke-width:2; stroke-opacity:0.1; fill:none" points="
  1609.65,1800.78 1609.65,47.2441 
  "/>
<polyline clip-path="url(#clip932)" style="stroke:#000000; stroke-linecap:butt; stroke-linejoin:round; stroke-width:2; stroke-opacity:0.1; fill:none" points="
  1983.37,1800.78 1983.37,47.2441 
  "/>
<polyline clip-path="url(#clip932)" style="stroke:#000000; stroke-linecap:butt; stroke-linejoin:round; stroke-width:2; stroke-opacity:0.1; fill:none" points="
  2357.08,1800.78 2357.08,47.2441 
  "/>
<polyline clip-path="url(#clip930)" style="stroke:#000000; stroke-linecap:butt; stroke-linejoin:round; stroke-width:4; stroke-opacity:1; fill:none" points="
  152.071,1800.78 2640.76,1800.78 
  "/>
<polyline clip-path="url(#clip930)" style="stroke:#000000; stroke-linecap:butt; stroke-linejoin:round; stroke-width:4; stroke-opacity:1; fill:none" points="
  488.514,1800.78 488.514,1781.88 
  "/>
<polyline clip-path="url(#clip930)" style="stroke:#000000; stroke-linecap:butt; stroke-linejoin:round; stroke-width:4; stroke-opacity:1; fill:none" points="
  862.227,1800.78 862.227,1781.88 
  "/>
<polyline clip-path="url(#clip930)" style="stroke:#000000; stroke-linecap:butt; stroke-linejoin:round; stroke-width:4; stroke-opacity:1; fill:none" points="
  1235.94,1800.78 1235.94,1781.88 
  "/>
<polyline clip-path="url(#clip930)" style="stroke:#000000; stroke-linecap:butt; stroke-linejoin:round; stroke-width:4; stroke-opacity:1; fill:none" points="
  1609.65,1800.78 1609.65,1781.88 
  "/>
<polyline clip-path="url(#clip930)" style="stroke:#000000; stroke-linecap:butt; stroke-linejoin:round; stroke-width:4; stroke-opacity:1; fill:none" points="
  1983.37,1800.78 1983.37,1781.88 
  "/>
<polyline clip-path="url(#clip930)" style="stroke:#000000; stroke-linecap:butt; stroke-linejoin:round; stroke-width:4; stroke-opacity:1; fill:none" points="
  2357.08,1800.78 2357.08,1781.88 
  "/>
<path clip-path="url(#clip930)" d="M457.414 1848.65 L487.09 1848.65 L487.09 1852.59 L457.414 1852.59 L457.414 1848.65 Z" fill="#000000" fill-rule="evenodd" fill-opacity="1" /><path clip-path="url(#clip930)" d="M510.03 1835 L498.224 1853.45 L510.03 1853.45 L510.03 1835 M508.803 1830.92 L514.682 1830.92 L514.682 1853.45 L519.613 1853.45 L519.613 1857.34 L514.682 1857.34 L514.682 1865.48 L510.03 1865.48 L510.03 1857.34 L494.428 1857.34 L494.428 1852.82 L508.803 1830.92 Z" fill="#000000" fill-rule="evenodd" fill-opacity="1" /><path clip-path="url(#clip930)" d="M831.695 1848.65 L861.371 1848.65 L861.371 1852.59 L831.695 1852.59 L831.695 1848.65 Z" fill="#000000" fill-rule="evenodd" fill-opacity="1" /><path clip-path="url(#clip930)" d="M885.63 1846.85 Q888.986 1847.57 890.861 1849.84 Q892.759 1852.1 892.759 1855.44 Q892.759 1860.55 889.241 1863.35 Q885.722 1866.15 879.241 1866.15 Q877.065 1866.15 874.75 1865.71 Q872.459 1865.3 870.005 1864.44 L870.005 1859.93 Q871.949 1861.06 874.264 1861.64 Q876.579 1862.22 879.102 1862.22 Q883.5 1862.22 885.792 1860.48 Q888.107 1858.75 888.107 1855.44 Q888.107 1852.38 885.954 1850.67 Q883.824 1848.93 880.005 1848.93 L875.977 1848.93 L875.977 1845.09 L880.19 1845.09 Q883.639 1845.09 885.468 1843.72 Q887.296 1842.34 887.296 1839.74 Q887.296 1837.08 885.398 1835.67 Q883.523 1834.23 880.005 1834.23 Q878.084 1834.23 875.885 1834.65 Q873.685 1835.07 871.047 1835.95 L871.047 1831.78 Q873.709 1831.04 876.023 1830.67 Q878.361 1830.3 880.422 1830.3 Q885.746 1830.3 888.847 1832.73 Q891.949 1835.14 891.949 1839.26 Q891.949 1842.13 890.306 1844.12 Q888.662 1846.09 885.63 1846.85 Z" fill="#000000" fill-rule="evenodd" fill-opacity="1" /><path clip-path="url(#clip930)" d="M1205.88 1848.65 L1235.56 1848.65 L1235.56 1852.59 L1205.88 1852.59 L1205.88 1848.65 Z" fill="#000000" fill-rule="evenodd" fill-opacity="1" /><path clip-path="url(#clip930)" d="M1249.68 1861.55 L1266 1861.55 L1266 1865.48 L1244.05 1865.48 L1244.05 1861.55 Q1246.72 1858.79 1251.3 1854.16 Q1255.91 1849.51 1257.09 1848.17 Q1259.33 1845.65 1260.21 1843.91 Q1261.11 1842.15 1261.11 1840.46 Q1261.11 1837.71 1259.17 1835.97 Q1257.25 1834.23 1254.15 1834.23 Q1251.95 1834.23 1249.49 1835 Q1247.06 1835.76 1244.29 1837.31 L1244.29 1832.59 Q1247.11 1831.46 1249.56 1830.88 Q1252.02 1830.3 1254.05 1830.3 Q1259.42 1830.3 1262.62 1832.98 Q1265.81 1835.67 1265.81 1840.16 Q1265.81 1842.29 1265 1844.21 Q1264.22 1846.11 1262.11 1848.7 Q1261.53 1849.37 1258.43 1852.59 Q1255.33 1855.78 1249.68 1861.55 Z" fill="#000000" fill-rule="evenodd" fill-opacity="1" /><path clip-path="url(#clip930)" d="M1579.41 1848.65 L1609.09 1848.65 L1609.09 1852.59 L1579.41 1852.59 L1579.41 1848.65 Z" fill="#000000" fill-rule="evenodd" fill-opacity="1" /><path clip-path="url(#clip930)" d="M1619.99 1861.55 L1627.63 1861.55 L1627.63 1835.18 L1619.32 1836.85 L1619.32 1832.59 L1627.58 1830.92 L1632.26 1830.92 L1632.26 1861.55 L1639.9 1861.55 L1639.9 1865.48 L1619.99 1865.48 L1619.99 1861.55 Z" fill="#000000" fill-rule="evenodd" fill-opacity="1" /><path clip-path="url(#clip930)" d="M1983.37 1834 Q1979.76 1834 1977.93 1837.57 Q1976.12 1841.11 1976.12 1848.24 Q1976.12 1855.34 1977.93 1858.91 Q1979.76 1862.45 1983.37 1862.45 Q1987 1862.45 1988.81 1858.91 Q1990.64 1855.34 1990.64 1848.24 Q1990.64 1841.11 1988.81 1837.57 Q1987 1834 1983.37 1834 M1983.37 1830.3 Q1989.18 1830.3 1992.23 1834.9 Q1995.31 1839.49 1995.31 1848.24 Q1995.31 1856.96 1992.23 1861.57 Q1989.18 1866.15 1983.37 1866.15 Q1977.56 1866.15 1974.48 1861.57 Q1971.42 1856.96 1971.42 1848.24 Q1971.42 1839.49 1974.48 1834.9 Q1977.56 1830.3 1983.37 1830.3 Z" fill="#000000" fill-rule="evenodd" fill-opacity="1" /><path clip-path="url(#clip930)" d="M2347.46 1861.55 L2355.1 1861.55 L2355.1 1835.18 L2346.79 1836.85 L2346.79 1832.59 L2355.06 1830.92 L2359.73 1830.92 L2359.73 1861.55 L2367.37 1861.55 L2367.37 1865.48 L2347.46 1865.48 L2347.46 1861.55 Z" fill="#000000" fill-rule="evenodd" fill-opacity="1" /><polyline clip-path="url(#clip932)" style="stroke:#000000; stroke-linecap:butt; stroke-linejoin:round; stroke-width:2; stroke-opacity:0.1; fill:none" points="
  152.071,1701.44 2640.76,1701.44 
  "/>
<polyline clip-path="url(#clip932)" style="stroke:#000000; stroke-linecap:butt; stroke-linejoin:round; stroke-width:2; stroke-opacity:0.1; fill:none" points="
  152.071,1350.33 2640.76,1350.33 
  "/>
<polyline clip-path="url(#clip932)" style="stroke:#000000; stroke-linecap:butt; stroke-linejoin:round; stroke-width:2; stroke-opacity:0.1; fill:none" points="
  152.071,999.222 2640.76,999.222 
  "/>
<polyline clip-path="url(#clip932)" style="stroke:#000000; stroke-linecap:butt; stroke-linejoin:round; stroke-width:2; stroke-opacity:0.1; fill:none" points="
  152.071,648.115 2640.76,648.115 
  "/>
<polyline clip-path="url(#clip932)" style="stroke:#000000; stroke-linecap:butt; stroke-linejoin:round; stroke-width:2; stroke-opacity:0.1; fill:none" points="
  152.071,297.007 2640.76,297.007 
  "/>
<polyline clip-path="url(#clip930)" style="stroke:#000000; stroke-linecap:butt; stroke-linejoin:round; stroke-width:4; stroke-opacity:1; fill:none" points="
  152.071,1800.78 152.071,47.2441 
  "/>
<polyline clip-path="url(#clip930)" style="stroke:#000000; stroke-linecap:butt; stroke-linejoin:round; stroke-width:4; stroke-opacity:1; fill:none" points="
  152.071,1701.44 170.969,1701.44 
  "/>
<polyline clip-path="url(#clip930)" style="stroke:#000000; stroke-linecap:butt; stroke-linejoin:round; stroke-width:4; stroke-opacity:1; fill:none" points="
  152.071,1350.33 170.969,1350.33 
  "/>
<polyline clip-path="url(#clip930)" style="stroke:#000000; stroke-linecap:butt; stroke-linejoin:round; stroke-width:4; stroke-opacity:1; fill:none" points="
  152.071,999.222 170.969,999.222 
  "/>
<polyline clip-path="url(#clip930)" style="stroke:#000000; stroke-linecap:butt; stroke-linejoin:round; stroke-width:4; stroke-opacity:1; fill:none" points="
  152.071,648.115 170.969,648.115 
  "/>
<polyline clip-path="url(#clip930)" style="stroke:#000000; stroke-linecap:butt; stroke-linejoin:round; stroke-width:4; stroke-opacity:1; fill:none" points="
  152.071,297.007 170.969,297.007 
  "/>
<path clip-path="url(#clip930)" d="M49.8762 1701.89 L79.552 1701.89 L79.552 1705.82 L49.8762 1705.82 L49.8762 1701.89 Z" fill="#000000" fill-rule="evenodd" fill-opacity="1" /><path clip-path="url(#clip930)" d="M100.223 1699.57 Q97.075 1699.57 95.2232 1701.73 Q93.3945 1703.88 93.3945 1707.63 Q93.3945 1711.36 95.2232 1713.53 Q97.075 1715.68 100.223 1715.68 Q103.371 1715.68 105.2 1713.53 Q107.052 1711.36 107.052 1707.63 Q107.052 1703.88 105.2 1701.73 Q103.371 1699.57 100.223 1699.57 M109.506 1684.92 L109.506 1689.18 Q107.746 1688.35 105.941 1687.91 Q104.158 1687.47 102.399 1687.47 Q97.7695 1687.47 95.3158 1690.59 Q92.8852 1693.72 92.538 1700.04 Q93.9037 1698.02 95.9639 1696.96 Q98.0241 1695.87 100.501 1695.87 Q105.709 1695.87 108.718 1699.04 Q111.751 1702.19 111.751 1707.63 Q111.751 1712.95 108.603 1716.17 Q105.455 1719.39 100.223 1719.39 Q94.2278 1719.39 91.0565 1714.8 Q87.8853 1710.2 87.8853 1701.47 Q87.8853 1693.28 91.7741 1688.42 Q95.663 1683.53 102.214 1683.53 Q103.973 1683.53 105.756 1683.88 Q107.561 1684.23 109.506 1684.92 Z" fill="#000000" fill-rule="evenodd" fill-opacity="1" /><path clip-path="url(#clip930)" d="M49.5521 1350.78 L79.2279 1350.78 L79.2279 1354.72 L49.5521 1354.72 L49.5521 1350.78 Z" fill="#000000" fill-rule="evenodd" fill-opacity="1" /><path clip-path="url(#clip930)" d="M102.168 1337.12 L90.3621 1355.57 L102.168 1355.57 L102.168 1337.12 M100.941 1333.05 L106.82 1333.05 L106.82 1355.57 L111.751 1355.57 L111.751 1359.46 L106.82 1359.46 L106.82 1367.61 L102.168 1367.61 L102.168 1359.46 L86.5658 1359.46 L86.5658 1354.95 L100.941 1333.05 Z" fill="#000000" fill-rule="evenodd" fill-opacity="1" /><path clip-path="url(#clip930)" d="M51.6354 999.673 L81.3112 999.673 L81.3112 1003.61 L51.6354 1003.61 L51.6354 999.673 Z" fill="#000000" fill-rule="evenodd" fill-opacity="1" /><path clip-path="url(#clip930)" d="M95.4315 1012.57 L111.751 1012.57 L111.751 1016.5 L89.8065 1016.5 L89.8065 1012.57 Q92.4686 1009.81 97.0519 1005.18 Q101.658 1000.53 102.839 999.187 Q105.084 996.664 105.964 994.928 Q106.867 993.169 106.867 991.479 Q106.867 988.724 104.922 986.988 Q103.001 985.252 99.8991 985.252 Q97.7 985.252 95.2463 986.016 Q92.8158 986.78 90.038 988.331 L90.038 983.609 Q92.8621 982.474 95.3158 981.896 Q97.7695 981.317 99.8065 981.317 Q105.177 981.317 108.371 984.002 Q111.566 986.687 111.566 991.178 Q111.566 993.308 110.756 995.229 Q109.968 997.127 107.862 999.72 Q107.283 1000.39 104.181 1003.61 Q101.08 1006.8 95.4315 1012.57 Z" fill="#000000" fill-rule="evenodd" fill-opacity="1" /><path clip-path="url(#clip930)" d="M99.8065 633.913 Q96.1954 633.913 94.3667 637.478 Q92.5612 641.02 92.5612 648.149 Q92.5612 655.256 94.3667 658.821 Q96.1954 662.362 99.8065 662.362 Q103.441 662.362 105.246 658.821 Q107.075 655.256 107.075 648.149 Q107.075 641.02 105.246 637.478 Q103.441 633.913 99.8065 633.913 M99.8065 630.21 Q105.617 630.21 108.672 634.816 Q111.751 639.4 111.751 648.149 Q111.751 656.876 108.672 661.483 Q105.617 666.066 99.8065 666.066 Q93.9963 666.066 90.9176 661.483 Q87.8621 656.876 87.8621 648.149 Q87.8621 639.4 90.9176 634.816 Q93.9963 630.21 99.8065 630.21 Z" fill="#000000" fill-rule="evenodd" fill-opacity="1" /><path clip-path="url(#clip930)" d="M95.4315 310.352 L111.751 310.352 L111.751 314.287 L89.8065 314.287 L89.8065 310.352 Q92.4686 307.598 97.0519 302.968 Q101.658 298.315 102.839 296.973 Q105.084 294.45 105.964 292.713 Q106.867 290.954 106.867 289.264 Q106.867 286.51 104.922 284.774 Q103.001 283.038 99.8991 283.038 Q97.7 283.038 95.2463 283.801 Q92.8158 284.565 90.038 286.116 L90.038 281.394 Q92.8621 280.26 95.3158 279.681 Q97.7695 279.102 99.8065 279.102 Q105.177 279.102 108.371 281.788 Q111.566 284.473 111.566 288.963 Q111.566 291.093 110.756 293.014 Q109.968 294.913 107.862 297.505 Q107.283 298.176 104.181 301.394 Q101.08 304.588 95.4315 310.352 Z" fill="#000000" fill-rule="evenodd" fill-opacity="1" /><polyline clip-path="url(#clip932)" style="stroke:#009af9; stroke-linecap:butt; stroke-linejoin:round; stroke-width:4; stroke-opacity:1; fill:none" points="
  2357.08,648.115 2357.83,648.1 2360.08,647.995 2363.79,647.712 2368.93,647.163 2375.43,646.264 2383.2,644.93 2392.16,643.084 2402.19,640.651 2413.16,637.561 
  2424.94,633.749 2437.35,629.157 2450.25,623.733 2463.44,617.432 2476.74,610.216 2489.95,602.056 2502.86,592.93 2515.27,582.825 2526.96,571.738 2537.71,559.672 
  2547.3,546.643 2555.52,532.672 2562.14,517.793 2566.95,502.046 2569.74,485.483 2570.32,468.164 2568.49,450.156 2564.06,431.536 2556.86,412.389 2546.74,392.808 
  2533.55,372.893 2517.16,352.75 2497.46,332.494 2474.35,312.241 2447.76,292.118 2417.64,272.251 2383.94,252.773 2346.66,233.819 2305.81,215.525 2261.41,198.031 
  2213.54,181.476 2162.25,165.999 2107.67,151.737 2049.91,138.826 1989.13,127.399 1925.49,117.585 1859.2,109.509 1790.48,103.291 1719.57,99.0435 1646.72,96.8724 
  1572.22,96.8762 1496.36,99.1444 1419.48,103.757 1341.89,110.786 1263.95,120.289 1186.02,132.316 1108.48,146.903 1031.7,164.075 956.082,183.844 882.017,206.208 
  809.908,231.153 740.16,258.651 673.176,288.659 609.357,321.122 549.1,355.969 492.796,393.118 440.828,432.47 393.567,473.914 351.372,517.327 314.585,562.569 
  283.534,609.491 258.526,657.931 239.847,707.715 227.761,758.658 222.505,810.565 224.292,863.231 233.306,916.442 249.699,969.977 273.596,1023.61 305.087,1077.1 
  344.229,1130.22 391.045,1182.71 445.523,1234.34 507.614,1284.85 577.233,1334 654.26,1381.54 738.535,1427.22 829.865,1470.8 928.016,1512.05 1032.72,1550.72 
  1143.68,1586.6 1260.55,1619.47 1382.96,1649.11 1510.5,1675.32 1642.74,1697.93 1779.21,1716.75 1919.41,1731.62 2062.83,1742.4 2208.91,1748.95 2357.08,1751.15 
  
  "/>
<path clip-path="url(#clip930)" d="
M2228.85 209.375 L2557.8 209.375 L2557.8 105.695 L2228.85 105.695  Z
  " fill="#ffffff" fill-rule="evenodd" fill-opacity="1"/>
<polyline clip-path="url(#clip930)" style="stroke:#000000; stroke-linecap:butt; stroke-linejoin:round; stroke-width:4; stroke-opacity:1; fill:none" points="
  2228.85,209.375 2557.8,209.375 2557.8,105.695 2228.85,105.695 2228.85,209.375 
  "/>
<polyline clip-path="url(#clip930)" style="stroke:#009af9; stroke-linecap:butt; stroke-linejoin:round; stroke-width:4; stroke-opacity:1; fill:none" points="
  2256.5,157.535 2422.41,157.535 
  "/>
<path clip-path="url(#clip930)" d="M2463.91 177.223 Q2462.1 181.852 2460.39 183.264 Q2458.68 184.676 2455.81 184.676 L2452.4 184.676 L2452.4 181.112 L2454.9 181.112 Q2456.66 181.112 2457.63 180.278 Q2458.61 179.445 2459.79 176.343 L2460.55 174.399 L2450.07 148.889 L2454.58 148.889 L2462.68 169.167 L2470.78 148.889 L2475.3 148.889 L2463.91 177.223 Z" fill="#000000" fill-rule="evenodd" fill-opacity="1" /><path clip-path="url(#clip930)" d="M2482.59 170.88 L2490.23 170.88 L2490.23 144.515 L2481.92 146.181 L2481.92 141.922 L2490.18 140.255 L2494.86 140.255 L2494.86 170.88 L2502.5 170.88 L2502.5 174.815 L2482.59 174.815 L2482.59 170.88 Z" fill="#000000" fill-rule="evenodd" fill-opacity="1" /></svg>
