<?xml version="1.0" encoding="utf-8"?>
<svg xmlns="http://www.w3.org/2000/svg" xmlns:xlink="http://www.w3.org/1999/xlink" width="672" height="480" viewBox="0 0 2688 1920">
<defs>
  <clipPath id="clip260">
    <rect x="0" y="0" width="2688" height="1920"/>
  </clipPath>
</defs>
<path clip-path="url(#clip260)" d="
M0 1920 L2688 1920 L2688 0 L0 0  Z
  " fill="#ffffff" fill-rule="evenodd" fill-opacity="1"/>
<defs>
  <clipPath id="clip261">
    <rect x="537" y="0" width="1883" height="1883"/>
  </clipPath>
</defs>
<path clip-path="url(#clip260)" d="
M181.747 1800.78 L2640.76 1800.78 L2640.76 47.2441 L181.747 47.2441  Z
  " fill="#ffffff" fill-rule="evenodd" fill-opacity="1"/>
<defs>
  <clipPath id="clip262">
    <rect x="181" y="47" width="2460" height="1755"/>
  </clipPath>
</defs>
<polyline clip-path="url(#clip262)" style="stroke:#000000; stroke-linecap:round; stroke-linejoin:round; stroke-width:2; stroke-opacity:0.1; fill:none" points="
  251.341,1800.78 251.341,47.2441 
  "/>
<polyline clip-path="url(#clip262)" style="stroke:#000000; stroke-linecap:round; stroke-linejoin:round; stroke-width:2; stroke-opacity:0.1; fill:none" points="
  831.296,1800.78 831.296,47.2441 
  "/>
<polyline clip-path="url(#clip262)" style="stroke:#000000; stroke-linecap:round; stroke-linejoin:round; stroke-width:2; stroke-opacity:0.1; fill:none" points="
  1411.25,1800.78 1411.25,47.2441 
  "/>
<polyline clip-path="url(#clip262)" style="stroke:#000000; stroke-linecap:round; stroke-linejoin:round; stroke-width:2; stroke-opacity:0.1; fill:none" points="
  1991.21,1800.78 1991.21,47.2441 
  "/>
<polyline clip-path="url(#clip262)" style="stroke:#000000; stroke-linecap:round; stroke-linejoin:round; stroke-width:2; stroke-opacity:0.1; fill:none" points="
  2571.16,1800.78 2571.16,47.2441 
  "/>
<polyline clip-path="url(#clip260)" style="stroke:#000000; stroke-linecap:round; stroke-linejoin:round; stroke-width:4; stroke-opacity:1; fill:none" points="
  181.747,1800.78 2640.76,1800.78 
  "/>
<polyline clip-path="url(#clip260)" style="stroke:#000000; stroke-linecap:round; stroke-linejoin:round; stroke-width:4; stroke-opacity:1; fill:none" points="
  251.341,1800.78 251.341,1781.88 
  "/>
<polyline clip-path="url(#clip260)" style="stroke:#000000; stroke-linecap:round; stroke-linejoin:round; stroke-width:4; stroke-opacity:1; fill:none" points="
  831.296,1800.78 831.296,1781.88 
  "/>
<polyline clip-path="url(#clip260)" style="stroke:#000000; stroke-linecap:round; stroke-linejoin:round; stroke-width:4; stroke-opacity:1; fill:none" points="
  1411.25,1800.78 1411.25,1781.88 
  "/>
<polyline clip-path="url(#clip260)" style="stroke:#000000; stroke-linecap:round; stroke-linejoin:round; stroke-width:4; stroke-opacity:1; fill:none" points="
  1991.21,1800.78 1991.21,1781.88 
  "/>
<polyline clip-path="url(#clip260)" style="stroke:#000000; stroke-linecap:round; stroke-linejoin:round; stroke-width:4; stroke-opacity:1; fill:none" points="
  2571.16,1800.78 2571.16,1781.88 
  "/>
<path clip-path="url(#clip260)" d="M226.075 1861.55 L233.714 1861.55 L233.714 1835.18 L225.404 1836.85 L225.404 1832.59 L233.668 1830.92 L238.344 1830.92 L238.344 1861.55 L245.982 1861.55 L245.982 1865.48 L226.075 1865.48 L226.075 1861.55 Z" fill="#000000" fill-rule="evenodd" fill-opacity="1" /><path clip-path="url(#clip260)" d="M265.427 1849.07 Q262.093 1849.07 260.172 1850.85 Q258.274 1852.64 258.274 1855.76 Q258.274 1858.89 260.172 1860.67 Q262.093 1862.45 265.427 1862.45 Q268.76 1862.45 270.681 1860.67 Q272.603 1858.86 272.603 1855.76 Q272.603 1852.64 270.681 1850.85 Q268.783 1849.07 265.427 1849.07 M260.751 1847.08 Q257.742 1846.34 256.052 1844.28 Q254.385 1842.22 254.385 1839.26 Q254.385 1835.11 257.325 1832.71 Q260.288 1830.3 265.427 1830.3 Q270.589 1830.3 273.529 1832.71 Q276.468 1835.11 276.468 1839.26 Q276.468 1842.22 274.779 1844.28 Q273.112 1846.34 270.126 1847.08 Q273.505 1847.87 275.38 1850.16 Q277.279 1852.45 277.279 1855.76 Q277.279 1860.78 274.2 1863.47 Q271.144 1866.15 265.427 1866.15 Q259.709 1866.15 256.631 1863.47 Q253.575 1860.78 253.575 1855.76 Q253.575 1852.45 255.473 1850.16 Q257.371 1847.87 260.751 1847.08 M259.038 1839.7 Q259.038 1842.38 260.705 1843.89 Q262.394 1845.39 265.427 1845.39 Q268.436 1845.39 270.126 1843.89 Q271.839 1842.38 271.839 1839.7 Q271.839 1837.01 270.126 1835.51 Q268.436 1834 265.427 1834 Q262.394 1834 260.705 1835.51 Q259.038 1837.01 259.038 1839.7 Z" fill="#000000" fill-rule="evenodd" fill-opacity="1" /><path clip-path="url(#clip260)" d="M806.076 1861.55 L813.715 1861.55 L813.715 1835.18 L805.405 1836.85 L805.405 1832.59 L813.669 1830.92 L818.345 1830.92 L818.345 1861.55 L825.984 1861.55 L825.984 1865.48 L806.076 1865.48 L806.076 1861.55 Z" fill="#000000" fill-rule="evenodd" fill-opacity="1" /><path clip-path="url(#clip260)" d="M835.567 1864.77 L835.567 1860.51 Q837.326 1861.34 839.132 1861.78 Q840.937 1862.22 842.674 1862.22 Q847.303 1862.22 849.734 1859.12 Q852.187 1855.99 852.535 1849.65 Q851.192 1851.64 849.132 1852.71 Q847.072 1853.77 844.572 1853.77 Q839.386 1853.77 836.354 1850.65 Q833.345 1847.5 833.345 1842.06 Q833.345 1836.73 836.493 1833.52 Q839.641 1830.3 844.873 1830.3 Q850.868 1830.3 854.016 1834.9 Q857.187 1839.49 857.187 1848.24 Q857.187 1856.41 853.298 1861.29 Q849.433 1866.15 842.882 1866.15 Q841.123 1866.15 839.317 1865.81 Q837.511 1865.46 835.567 1864.77 M844.873 1850.11 Q848.021 1850.11 849.849 1847.96 Q851.701 1845.81 851.701 1842.06 Q851.701 1838.33 849.849 1836.18 Q848.021 1834 844.873 1834 Q841.724 1834 839.873 1836.18 Q838.044 1838.33 838.044 1842.06 Q838.044 1845.81 839.873 1847.96 Q841.724 1850.11 844.873 1850.11 Z" fill="#000000" fill-rule="evenodd" fill-opacity="1" /><path clip-path="url(#clip260)" d="M1390.02 1861.55 L1406.34 1861.55 L1406.34 1865.48 L1384.4 1865.48 L1384.4 1861.55 Q1387.06 1858.79 1391.64 1854.16 Q1396.25 1849.51 1397.43 1848.17 Q1399.68 1845.65 1400.56 1843.91 Q1401.46 1842.15 1401.46 1840.46 Q1401.46 1837.71 1399.52 1835.97 Q1397.59 1834.23 1394.49 1834.23 Q1392.29 1834.23 1389.84 1835 Q1387.41 1835.76 1384.63 1837.31 L1384.63 1832.59 Q1387.46 1831.46 1389.91 1830.88 Q1392.36 1830.3 1394.4 1830.3 Q1399.77 1830.3 1402.96 1832.98 Q1406.16 1835.67 1406.16 1840.16 Q1406.16 1842.29 1405.35 1844.21 Q1404.56 1846.11 1402.46 1848.7 Q1401.88 1849.37 1398.77 1852.59 Q1395.67 1855.78 1390.02 1861.55 Z" fill="#000000" fill-rule="evenodd" fill-opacity="1" /><path clip-path="url(#clip260)" d="M1426.16 1834 Q1422.55 1834 1420.72 1837.57 Q1418.91 1841.11 1418.91 1848.24 Q1418.91 1855.34 1420.72 1858.91 Q1422.55 1862.45 1426.16 1862.45 Q1429.79 1862.45 1431.6 1858.91 Q1433.43 1855.34 1433.43 1848.24 Q1433.43 1841.11 1431.6 1837.57 Q1429.79 1834 1426.16 1834 M1426.16 1830.3 Q1431.97 1830.3 1435.02 1834.9 Q1438.1 1839.49 1438.1 1848.24 Q1438.1 1856.96 1435.02 1861.57 Q1431.97 1866.15 1426.16 1866.15 Q1420.35 1866.15 1417.27 1861.57 Q1414.21 1856.96 1414.21 1848.24 Q1414.21 1839.49 1417.27 1834.9 Q1420.35 1830.3 1426.16 1830.3 Z" fill="#000000" fill-rule="evenodd" fill-opacity="1" /><path clip-path="url(#clip260)" d="M1970.59 1861.55 L1986.91 1861.55 L1986.91 1865.48 L1964.97 1865.48 L1964.97 1861.55 Q1967.63 1858.79 1972.21 1854.16 Q1976.82 1849.51 1978 1848.17 Q1980.25 1845.65 1981.13 1843.91 Q1982.03 1842.15 1982.03 1840.46 Q1982.03 1837.71 1980.08 1835.97 Q1978.16 1834.23 1975.06 1834.23 Q1972.86 1834.23 1970.41 1835 Q1967.98 1835.76 1965.2 1837.31 L1965.2 1832.59 Q1968.02 1831.46 1970.48 1830.88 Q1972.93 1830.3 1974.97 1830.3 Q1980.34 1830.3 1983.53 1832.98 Q1986.73 1835.67 1986.73 1840.16 Q1986.73 1842.29 1985.92 1844.21 Q1985.13 1846.11 1983.02 1848.7 Q1982.44 1849.37 1979.34 1852.59 Q1976.24 1855.78 1970.59 1861.55 Z" fill="#000000" fill-rule="evenodd" fill-opacity="1" /><path clip-path="url(#clip260)" d="M1997.54 1861.55 L2005.18 1861.55 L2005.18 1835.18 L1996.87 1836.85 L1996.87 1832.59 L2005.13 1830.92 L2009.81 1830.92 L2009.81 1861.55 L2017.44 1861.55 L2017.44 1865.48 L1997.54 1865.48 L1997.54 1861.55 Z" fill="#000000" fill-rule="evenodd" fill-opacity="1" /><path clip-path="url(#clip260)" d="M2550.73 1861.55 L2567.05 1861.55 L2567.05 1865.48 L2545.11 1865.48 L2545.11 1861.55 Q2547.77 1858.79 2552.35 1854.16 Q2556.96 1849.51 2558.14 1848.17 Q2560.39 1845.65 2561.27 1843.91 Q2562.17 1842.15 2562.17 1840.46 Q2562.17 1837.71 2560.22 1835.97 Q2558.3 1834.23 2555.2 1834.23 Q2553 1834.23 2550.55 1835 Q2548.12 1835.76 2545.34 1837.31 L2545.34 1832.59 Q2548.16 1831.46 2550.62 1830.88 Q2553.07 1830.3 2555.11 1830.3 Q2560.48 1830.3 2563.67 1832.98 Q2566.87 1835.67 2566.87 1840.16 Q2566.87 1842.29 2566.06 1844.21 Q2565.27 1846.11 2563.16 1848.7 Q2562.58 1849.37 2559.48 1852.59 Q2556.38 1855.78 2550.73 1861.55 Z" fill="#000000" fill-rule="evenodd" fill-opacity="1" /><path clip-path="url(#clip260)" d="M2580.9 1861.55 L2597.21 1861.55 L2597.21 1865.48 L2575.27 1865.48 L2575.27 1861.55 Q2577.93 1858.79 2582.52 1854.16 Q2587.12 1849.51 2588.3 1848.17 Q2590.55 1845.65 2591.43 1843.91 Q2592.33 1842.15 2592.33 1840.46 Q2592.33 1837.71 2590.39 1835.97 Q2588.46 1834.23 2585.36 1834.23 Q2583.16 1834.23 2580.71 1835 Q2578.28 1835.76 2575.5 1837.31 L2575.5 1832.59 Q2578.33 1831.46 2580.78 1830.88 Q2583.23 1830.3 2585.27 1830.3 Q2590.64 1830.3 2593.83 1832.98 Q2597.03 1835.67 2597.03 1840.16 Q2597.03 1842.29 2596.22 1844.21 Q2595.43 1846.11 2593.33 1848.7 Q2592.75 1849.37 2589.65 1852.59 Q2586.54 1855.78 2580.9 1861.55 Z" fill="#000000" fill-rule="evenodd" fill-opacity="1" /><polyline clip-path="url(#clip262)" style="stroke:#000000; stroke-linecap:round; stroke-linejoin:round; stroke-width:2; stroke-opacity:0.1; fill:none" points="
  181.747,1778.72 2640.76,1778.72 
  "/>
<polyline clip-path="url(#clip262)" style="stroke:#000000; stroke-linecap:round; stroke-linejoin:round; stroke-width:2; stroke-opacity:0.1; fill:none" points="
  181.747,1503.01 2640.76,1503.01 
  "/>
<polyline clip-path="url(#clip262)" style="stroke:#000000; stroke-linecap:round; stroke-linejoin:round; stroke-width:2; stroke-opacity:0.1; fill:none" points="
  181.747,1227.3 2640.76,1227.3 
  "/>
<polyline clip-path="url(#clip262)" style="stroke:#000000; stroke-linecap:round; stroke-linejoin:round; stroke-width:2; stroke-opacity:0.1; fill:none" points="
  181.747,951.583 2640.76,951.583 
  "/>
<polyline clip-path="url(#clip262)" style="stroke:#000000; stroke-linecap:round; stroke-linejoin:round; stroke-width:2; stroke-opacity:0.1; fill:none" points="
  181.747,675.87 2640.76,675.87 
  "/>
<polyline clip-path="url(#clip262)" style="stroke:#000000; stroke-linecap:round; stroke-linejoin:round; stroke-width:2; stroke-opacity:0.1; fill:none" points="
  181.747,400.157 2640.76,400.157 
  "/>
<polyline clip-path="url(#clip262)" style="stroke:#000000; stroke-linecap:round; stroke-linejoin:round; stroke-width:2; stroke-opacity:0.1; fill:none" points="
  181.747,124.444 2640.76,124.444 
  "/>
<polyline clip-path="url(#clip260)" style="stroke:#000000; stroke-linecap:round; stroke-linejoin:round; stroke-width:4; stroke-opacity:1; fill:none" points="
  181.747,1800.78 181.747,47.2441 
  "/>
<polyline clip-path="url(#clip260)" style="stroke:#000000; stroke-linecap:round; stroke-linejoin:round; stroke-width:4; stroke-opacity:1; fill:none" points="
  181.747,1778.72 200.644,1778.72 
  "/>
<polyline clip-path="url(#clip260)" style="stroke:#000000; stroke-linecap:round; stroke-linejoin:round; stroke-width:4; stroke-opacity:1; fill:none" points="
  181.747,1503.01 200.644,1503.01 
  "/>
<polyline clip-path="url(#clip260)" style="stroke:#000000; stroke-linecap:round; stroke-linejoin:round; stroke-width:4; stroke-opacity:1; fill:none" points="
  181.747,1227.3 200.644,1227.3 
  "/>
<polyline clip-path="url(#clip260)" style="stroke:#000000; stroke-linecap:round; stroke-linejoin:round; stroke-width:4; stroke-opacity:1; fill:none" points="
  181.747,951.583 200.644,951.583 
  "/>
<polyline clip-path="url(#clip260)" style="stroke:#000000; stroke-linecap:round; stroke-linejoin:round; stroke-width:4; stroke-opacity:1; fill:none" points="
  181.747,675.87 200.644,675.87 
  "/>
<polyline clip-path="url(#clip260)" style="stroke:#000000; stroke-linecap:round; stroke-linejoin:round; stroke-width:4; stroke-opacity:1; fill:none" points="
  181.747,400.157 200.644,400.157 
  "/>
<polyline clip-path="url(#clip260)" style="stroke:#000000; stroke-linecap:round; stroke-linejoin:round; stroke-width:4; stroke-opacity:1; fill:none" points="
  181.747,124.444 200.644,124.444 
  "/>
<path clip-path="url(#clip260)" d="M49.5521 1779.17 L79.2279 1779.17 L79.2279 1783.11 L49.5521 1783.11 L49.5521 1779.17 Z" fill="#000000" fill-rule="evenodd" fill-opacity="1" /><path clip-path="url(#clip260)" d="M103.487 1777.37 Q106.843 1778.09 108.718 1780.35 Q110.617 1782.62 110.617 1785.96 Q110.617 1791.07 107.098 1793.87 Q103.58 1796.67 97.0982 1796.67 Q94.9223 1796.67 92.6075 1796.23 Q90.3158 1795.82 87.8621 1794.96 L87.8621 1790.45 Q89.8065 1791.58 92.1213 1792.16 Q94.4361 1792.74 96.9593 1792.74 Q101.357 1792.74 103.649 1791 Q105.964 1789.27 105.964 1785.96 Q105.964 1782.9 103.811 1781.19 Q101.681 1779.45 97.8621 1779.45 L93.8343 1779.45 L93.8343 1775.61 L98.0472 1775.61 Q101.496 1775.61 103.325 1774.24 Q105.154 1772.85 105.154 1770.26 Q105.154 1767.6 103.256 1766.19 Q101.381 1764.75 97.8621 1764.75 Q95.9408 1764.75 93.7417 1765.17 Q91.5426 1765.59 88.9038 1766.47 L88.9038 1762.3 Q91.5658 1761.56 93.8806 1761.19 Q96.2185 1760.82 98.2787 1760.82 Q103.603 1760.82 106.705 1763.25 Q109.806 1765.66 109.806 1769.78 Q109.806 1772.65 108.163 1774.64 Q106.519 1776.6 103.487 1777.37 Z" fill="#000000" fill-rule="evenodd" fill-opacity="1" /><path clip-path="url(#clip260)" d="M129.482 1764.52 Q125.871 1764.52 124.042 1768.09 Q122.237 1771.63 122.237 1778.76 Q122.237 1785.86 124.042 1789.43 Q125.871 1792.97 129.482 1792.97 Q133.116 1792.97 134.922 1789.43 Q136.751 1785.86 136.751 1778.76 Q136.751 1771.63 134.922 1768.09 Q133.116 1764.52 129.482 1764.52 M129.482 1760.82 Q135.292 1760.82 138.348 1765.42 Q141.427 1770.01 141.427 1778.76 Q141.427 1787.48 138.348 1792.09 Q135.292 1796.67 129.482 1796.67 Q123.672 1796.67 120.593 1792.09 Q117.538 1787.48 117.538 1778.76 Q117.538 1770.01 120.593 1765.42 Q123.672 1760.82 129.482 1760.82 Z" fill="#000000" fill-rule="evenodd" fill-opacity="1" /><path clip-path="url(#clip260)" d="M49.5521 1503.46 L79.2279 1503.46 L79.2279 1507.4 L49.5521 1507.4 L49.5521 1503.46 Z" fill="#000000" fill-rule="evenodd" fill-opacity="1" /><path clip-path="url(#clip260)" d="M93.3482 1516.35 L109.668 1516.35 L109.668 1520.29 L87.7232 1520.29 L87.7232 1516.35 Q90.3852 1513.6 94.9685 1508.97 Q99.575 1504.32 100.756 1502.97 Q103.001 1500.45 103.881 1498.72 Q104.783 1496.96 104.783 1495.27 Q104.783 1492.51 102.839 1490.78 Q100.918 1489.04 97.8158 1489.04 Q95.6167 1489.04 93.163 1489.8 Q90.7325 1490.57 87.9547 1492.12 L87.9547 1487.4 Q90.7788 1486.26 93.2324 1485.68 Q95.6861 1485.1 97.7232 1485.1 Q103.094 1485.1 106.288 1487.79 Q109.482 1490.47 109.482 1494.97 Q109.482 1497.09 108.672 1499.02 Q107.885 1500.91 105.779 1503.51 Q105.2 1504.18 102.098 1507.4 Q98.9963 1510.59 93.3482 1516.35 Z" fill="#000000" fill-rule="evenodd" fill-opacity="1" /><path clip-path="url(#clip260)" d="M129.482 1488.81 Q125.871 1488.81 124.042 1492.37 Q122.237 1495.91 122.237 1503.04 Q122.237 1510.15 124.042 1513.72 Q125.871 1517.26 129.482 1517.26 Q133.116 1517.26 134.922 1513.72 Q136.751 1510.15 136.751 1503.04 Q136.751 1495.91 134.922 1492.37 Q133.116 1488.81 129.482 1488.81 M129.482 1485.1 Q135.292 1485.1 138.348 1489.71 Q141.427 1494.29 141.427 1503.04 Q141.427 1511.77 138.348 1516.38 Q135.292 1520.96 129.482 1520.96 Q123.672 1520.96 120.593 1516.38 Q117.538 1511.77 117.538 1503.04 Q117.538 1494.29 120.593 1489.71 Q123.672 1485.1 129.482 1485.1 Z" fill="#000000" fill-rule="evenodd" fill-opacity="1" /><path clip-path="url(#clip260)" d="M49.5521 1227.75 L79.2279 1227.75 L79.2279 1231.68 L49.5521 1231.68 L49.5521 1227.75 Z" fill="#000000" fill-rule="evenodd" fill-opacity="1" /><path clip-path="url(#clip260)" d="M90.1306 1240.64 L97.7695 1240.64 L97.7695 1214.28 L89.4593 1215.94 L89.4593 1211.68 L97.7232 1210.02 L102.399 1210.02 L102.399 1240.64 L110.038 1240.64 L110.038 1244.58 L90.1306 1244.58 L90.1306 1240.64 Z" fill="#000000" fill-rule="evenodd" fill-opacity="1" /><path clip-path="url(#clip260)" d="M129.482 1213.09 Q125.871 1213.09 124.042 1216.66 Q122.237 1220.2 122.237 1227.33 Q122.237 1234.44 124.042 1238 Q125.871 1241.54 129.482 1241.54 Q133.116 1241.54 134.922 1238 Q136.751 1234.44 136.751 1227.33 Q136.751 1220.2 134.922 1216.66 Q133.116 1213.09 129.482 1213.09 M129.482 1209.39 Q135.292 1209.39 138.348 1214 Q141.427 1218.58 141.427 1227.33 Q141.427 1236.06 138.348 1240.66 Q135.292 1245.25 129.482 1245.25 Q123.672 1245.25 120.593 1240.66 Q117.538 1236.06 117.538 1227.33 Q117.538 1218.58 120.593 1214 Q123.672 1209.39 129.482 1209.39 Z" fill="#000000" fill-rule="evenodd" fill-opacity="1" /><path clip-path="url(#clip260)" d="M129.482 937.382 Q125.871 937.382 124.042 940.946 Q122.237 944.488 122.237 951.618 Q122.237 958.724 124.042 962.289 Q125.871 965.831 129.482 965.831 Q133.116 965.831 134.922 962.289 Q136.751 958.724 136.751 951.618 Q136.751 944.488 134.922 940.946 Q133.116 937.382 129.482 937.382 M129.482 933.678 Q135.292 933.678 138.348 938.284 Q141.427 942.868 141.427 951.618 Q141.427 960.345 138.348 964.951 Q135.292 969.534 129.482 969.534 Q123.672 969.534 120.593 964.951 Q117.538 960.345 117.538 951.618 Q117.538 942.868 120.593 938.284 Q123.672 933.678 129.482 933.678 Z" fill="#000000" fill-rule="evenodd" fill-opacity="1" /><path clip-path="url(#clip260)" d="M90.1306 689.215 L97.7695 689.215 L97.7695 662.849 L89.4593 664.516 L89.4593 660.257 L97.7232 658.59 L102.399 658.59 L102.399 689.215 L110.038 689.215 L110.038 693.15 L90.1306 693.15 L90.1306 689.215 Z" fill="#000000" fill-rule="evenodd" fill-opacity="1" /><path clip-path="url(#clip260)" d="M129.482 661.669 Q125.871 661.669 124.042 665.233 Q122.237 668.775 122.237 675.905 Q122.237 683.011 124.042 686.576 Q125.871 690.118 129.482 690.118 Q133.116 690.118 134.922 686.576 Q136.751 683.011 136.751 675.905 Q136.751 668.775 134.922 665.233 Q133.116 661.669 129.482 661.669 M129.482 657.965 Q135.292 657.965 138.348 662.571 Q141.427 667.155 141.427 675.905 Q141.427 684.631 138.348 689.238 Q135.292 693.821 129.482 693.821 Q123.672 693.821 120.593 689.238 Q117.538 684.631 117.538 675.905 Q117.538 667.155 120.593 662.571 Q123.672 657.965 129.482 657.965 Z" fill="#000000" fill-rule="evenodd" fill-opacity="1" /><path clip-path="url(#clip260)" d="M93.3482 413.502 L109.668 413.502 L109.668 417.437 L87.7232 417.437 L87.7232 413.502 Q90.3852 410.747 94.9685 406.117 Q99.575 401.465 100.756 400.122 Q103.001 397.599 103.881 395.863 Q104.783 394.104 104.783 392.414 Q104.783 389.659 102.839 387.923 Q100.918 386.187 97.8158 386.187 Q95.6167 386.187 93.163 386.951 Q90.7325 387.715 87.9547 389.266 L87.9547 384.543 Q90.7788 383.409 93.2324 382.831 Q95.6861 382.252 97.7232 382.252 Q103.094 382.252 106.288 384.937 Q109.482 387.622 109.482 392.113 Q109.482 394.243 108.672 396.164 Q107.885 398.062 105.779 400.655 Q105.2 401.326 102.098 404.543 Q98.9963 407.738 93.3482 413.502 Z" fill="#000000" fill-rule="evenodd" fill-opacity="1" /><path clip-path="url(#clip260)" d="M129.482 385.956 Q125.871 385.956 124.042 389.52 Q122.237 393.062 122.237 400.192 Q122.237 407.298 124.042 410.863 Q125.871 414.404 129.482 414.404 Q133.116 414.404 134.922 410.863 Q136.751 407.298 136.751 400.192 Q136.751 393.062 134.922 389.52 Q133.116 385.956 129.482 385.956 M129.482 382.252 Q135.292 382.252 138.348 386.858 Q141.427 391.442 141.427 400.192 Q141.427 408.918 138.348 413.525 Q135.292 418.108 129.482 418.108 Q123.672 418.108 120.593 413.525 Q117.538 408.918 117.538 400.192 Q117.538 391.442 120.593 386.858 Q123.672 382.252 129.482 382.252 Z" fill="#000000" fill-rule="evenodd" fill-opacity="1" /><path clip-path="url(#clip260)" d="M103.487 123.09 Q106.843 123.807 108.718 126.076 Q110.617 128.344 110.617 131.678 Q110.617 136.793 107.098 139.594 Q103.58 142.395 97.0982 142.395 Q94.9223 142.395 92.6075 141.955 Q90.3158 141.539 87.8621 140.682 L87.8621 136.168 Q89.8065 137.302 92.1213 137.881 Q94.4361 138.46 96.9593 138.46 Q101.357 138.46 103.649 136.724 Q105.964 134.988 105.964 131.678 Q105.964 128.622 103.811 126.909 Q101.681 125.173 97.8621 125.173 L93.8343 125.173 L93.8343 121.33 L98.0472 121.33 Q101.496 121.33 103.325 119.965 Q105.154 118.576 105.154 115.983 Q105.154 113.321 103.256 111.909 Q101.381 110.474 97.8621 110.474 Q95.9408 110.474 93.7417 110.891 Q91.5426 111.307 88.9038 112.187 L88.9038 108.02 Q91.5658 107.279 93.8806 106.909 Q96.2185 106.539 98.2787 106.539 Q103.603 106.539 106.705 108.969 Q109.806 111.377 109.806 115.497 Q109.806 118.367 108.163 120.358 Q106.519 122.326 103.487 123.09 Z" fill="#000000" fill-rule="evenodd" fill-opacity="1" /><path clip-path="url(#clip260)" d="M129.482 110.242 Q125.871 110.242 124.042 113.807 Q122.237 117.349 122.237 124.478 Q122.237 131.585 124.042 135.15 Q125.871 138.691 129.482 138.691 Q133.116 138.691 134.922 135.15 Q136.751 131.585 136.751 124.478 Q136.751 117.349 134.922 113.807 Q133.116 110.242 129.482 110.242 M129.482 106.539 Q135.292 106.539 138.348 111.145 Q141.427 115.729 141.427 124.478 Q141.427 133.205 138.348 137.812 Q135.292 142.395 129.482 142.395 Q123.672 142.395 120.593 137.812 Q117.538 133.205 117.538 124.478 Q117.538 115.729 120.593 111.145 Q123.672 106.539 129.482 106.539 Z" fill="#000000" fill-rule="evenodd" fill-opacity="1" /><polyline clip-path="url(#clip262)" style="stroke:#009af9; stroke-linecap:round; stroke-linejoin:round; stroke-width:4; stroke-opacity:1; fill:none" points="
  251.341,1751.15 255.117,1737.06 258.893,1723.16 262.669,1709.44 266.445,1695.9 283.901,1635.63 301.357,1579.02 318.814,1525.91 336.27,1476.15 353.727,1429.56 
  371.183,1386.01 388.64,1345.33 406.096,1307.4 416.587,1285.86 427.078,1265.24 437.568,1245.49 448.059,1226.6 469.04,1191.27 490.021,1159.04 507.761,1134.05 
  525.5,1111.01 543.239,1089.81 560.979,1070.35 580.249,1051.04 599.518,1033.52 618.788,1017.67 638.058,1003.38 673.589,980.729 709.119,962.342 747.211,946.7 
  785.303,934.635 829.437,924.368 873.571,917.335 952.012,910.763 1020.8,909.263 1095.79,910.327 1171.23,912.936 1254.64,916.606 1334.01,920.341 1416.52,924.262 
  1485.99,927.564 1570.79,931.553 1648.48,934.974 1720.23,937.517 1792.91,938.753 1833.64,938.442 1874.37,937.076 1911.28,934.648 1948.18,930.784 1990.44,924.158 
  2032.69,914.608 2071.81,902.564 2110.94,886.805 2130.22,877.459 2149.51,866.952 2168.8,855.186 2188.08,842.06 2206.81,827.915 2225.53,812.285 2244.26,795.064 
  2262.98,776.14 2282.18,754.848 2301.37,731.51 2320.57,705.987 2339.76,678.135 2360.79,644.769 2381.83,608.218 2402.86,568.269 2423.89,524.694 2439.16,490.637 
  2454.44,454.45 2469.71,416.037 2484.99,375.298 2500.26,332.131 2515.54,286.43 2530.82,238.089 2546.09,186.995 2552.36,165.209 2558.63,142.931 2564.89,120.155 
  2571.16,96.8724 
  "/>
<path clip-path="url(#clip260)" d="
M2233.14 209.375 L2558.79 209.375 L2558.79 105.695 L2233.14 105.695  Z
  " fill="#ffffff" fill-rule="evenodd" fill-opacity="1"/>
<polyline clip-path="url(#clip260)" style="stroke:#000000; stroke-linecap:round; stroke-linejoin:round; stroke-width:4; stroke-opacity:1; fill:none" points="
  2233.14,209.375 2558.79,209.375 2558.79,105.695 2233.14,105.695 2233.14,209.375 
  "/>
<polyline clip-path="url(#clip260)" style="stroke:#009af9; stroke-linecap:round; stroke-linejoin:round; stroke-width:4; stroke-opacity:1; fill:none" points="
  2260.46,157.535 2424.39,157.535 
  "/>
<path clip-path="url(#clip260)" d="M2465.56 177.223 Q2463.75 181.852 2462.04 183.264 Q2460.33 184.676 2457.45 184.676 L2454.05 184.676 L2454.05 181.112 L2456.55 181.112 Q2458.31 181.112 2459.28 180.278 Q2460.26 179.445 2461.44 176.343 L2462.2 174.399 L2451.71 148.889 L2456.23 148.889 L2464.33 169.167 L2472.43 148.889 L2476.95 148.889 L2465.56 177.223 Z" fill="#000000" fill-rule="evenodd" fill-opacity="1" /><path clip-path="url(#clip260)" d="M2484.24 170.88 L2491.88 170.88 L2491.88 144.515 L2483.57 146.181 L2483.57 141.922 L2491.83 140.255 L2496.51 140.255 L2496.51 170.88 L2504.14 170.88 L2504.14 174.815 L2484.24 174.815 L2484.24 170.88 Z" fill="#000000" fill-rule="evenodd" fill-opacity="1" /></svg>
