<?xml version="1.0" encoding="utf-8"?>
<svg xmlns="http://www.w3.org/2000/svg" xmlns:xlink="http://www.w3.org/1999/xlink" width="672" height="480" viewBox="0 0 2688 1920">
<defs>
  <clipPath id="clip080">
    <rect x="0" y="0" width="2688" height="1920"/>
  </clipPath>
</defs>
<path clip-path="url(#clip080)" d="
M0 1920 L2688 1920 L2688 0 L0 0  Z
  " fill="#ffffff" fill-rule="evenodd" fill-opacity="1"/>
<defs>
  <clipPath id="clip081">
    <rect x="537" y="0" width="1883" height="1883"/>
  </clipPath>
</defs>
<path clip-path="url(#clip080)" d="
M346.414 1800.78 L2640.76 1800.78 L2640.76 47.2441 L346.414 47.2441  Z
  " fill="#ffffff" fill-rule="evenodd" fill-opacity="1"/>
<defs>
  <clipPath id="clip082">
    <rect x="346" y="47" width="2295" height="1755"/>
  </clipPath>
</defs>
<polyline clip-path="url(#clip082)" style="stroke:#000000; stroke-linecap:butt; stroke-linejoin:round; stroke-width:2; stroke-opacity:0.1; fill:none" points="
  411.349,1800.78 411.349,47.2441 
  "/>
<polyline clip-path="url(#clip082)" style="stroke:#000000; stroke-linecap:butt; stroke-linejoin:round; stroke-width:2; stroke-opacity:0.1; fill:none" points="
  952.467,1800.78 952.467,47.2441 
  "/>
<polyline clip-path="url(#clip082)" style="stroke:#000000; stroke-linecap:butt; stroke-linejoin:round; stroke-width:2; stroke-opacity:0.1; fill:none" points="
  1493.59,1800.78 1493.59,47.2441 
  "/>
<polyline clip-path="url(#clip082)" style="stroke:#000000; stroke-linecap:butt; stroke-linejoin:round; stroke-width:2; stroke-opacity:0.1; fill:none" points="
  2034.7,1800.78 2034.7,47.2441 
  "/>
<polyline clip-path="url(#clip082)" style="stroke:#000000; stroke-linecap:butt; stroke-linejoin:round; stroke-width:2; stroke-opacity:0.1; fill:none" points="
  2575.82,1800.78 2575.82,47.2441 
  "/>
<polyline clip-path="url(#clip080)" style="stroke:#000000; stroke-linecap:butt; stroke-linejoin:round; stroke-width:4; stroke-opacity:1; fill:none" points="
  346.414,1800.78 2640.76,1800.78 
  "/>
<polyline clip-path="url(#clip080)" style="stroke:#000000; stroke-linecap:butt; stroke-linejoin:round; stroke-width:4; stroke-opacity:1; fill:none" points="
  411.349,1800.78 411.349,1781.88 
  "/>
<polyline clip-path="url(#clip080)" style="stroke:#000000; stroke-linecap:butt; stroke-linejoin:round; stroke-width:4; stroke-opacity:1; fill:none" points="
  952.467,1800.78 952.467,1781.88 
  "/>
<polyline clip-path="url(#clip080)" style="stroke:#000000; stroke-linecap:butt; stroke-linejoin:round; stroke-width:4; stroke-opacity:1; fill:none" points="
  1493.59,1800.78 1493.59,1781.88 
  "/>
<polyline clip-path="url(#clip080)" style="stroke:#000000; stroke-linecap:butt; stroke-linejoin:round; stroke-width:4; stroke-opacity:1; fill:none" points="
  2034.7,1800.78 2034.7,1781.88 
  "/>
<polyline clip-path="url(#clip080)" style="stroke:#000000; stroke-linecap:butt; stroke-linejoin:round; stroke-width:4; stroke-opacity:1; fill:none" points="
  2575.82,1800.78 2575.82,1781.88 
  "/>
<path clip-path="url(#clip080)" d="M365.411 1848.65 L395.087 1848.65 L395.087 1852.59 L365.411 1852.59 L365.411 1848.65 Z" fill="#000000" fill-rule="evenodd" fill-opacity="1" /><path clip-path="url(#clip080)" d="M405.99 1861.55 L413.629 1861.55 L413.629 1835.18 L405.319 1836.85 L405.319 1832.59 L413.582 1830.92 L418.258 1830.92 L418.258 1861.55 L425.897 1861.55 L425.897 1865.48 L405.99 1865.48 L405.99 1861.55 Z" fill="#000000" fill-rule="evenodd" fill-opacity="1" /><path clip-path="url(#clip080)" d="M445.342 1834 Q441.73 1834 439.902 1837.57 Q438.096 1841.11 438.096 1848.24 Q438.096 1855.34 439.902 1858.91 Q441.73 1862.45 445.342 1862.45 Q448.976 1862.45 450.781 1858.91 Q452.61 1855.34 452.61 1848.24 Q452.61 1841.11 450.781 1837.57 Q448.976 1834 445.342 1834 M445.342 1830.3 Q451.152 1830.3 454.207 1834.9 Q457.286 1839.49 457.286 1848.24 Q457.286 1856.96 454.207 1861.57 Q451.152 1866.15 445.342 1866.15 Q439.531 1866.15 436.453 1861.57 Q433.397 1856.96 433.397 1848.24 Q433.397 1839.49 436.453 1834.9 Q439.531 1830.3 445.342 1830.3 Z" fill="#000000" fill-rule="evenodd" fill-opacity="1" /><path clip-path="url(#clip080)" d="M922.108 1848.65 L951.784 1848.65 L951.784 1852.59 L922.108 1852.59 L922.108 1848.65 Z" fill="#000000" fill-rule="evenodd" fill-opacity="1" /><path clip-path="url(#clip080)" d="M961.923 1830.92 L980.279 1830.92 L980.279 1834.86 L966.205 1834.86 L966.205 1843.33 Q967.224 1842.98 968.242 1842.82 Q969.261 1842.64 970.279 1842.64 Q976.066 1842.64 979.446 1845.81 Q982.826 1848.98 982.826 1854.4 Q982.826 1859.97 979.353 1863.08 Q975.881 1866.15 969.562 1866.15 Q967.386 1866.15 965.117 1865.78 Q962.872 1865.41 960.465 1864.67 L960.465 1859.97 Q962.548 1861.11 964.77 1861.66 Q966.992 1862.22 969.469 1862.22 Q973.474 1862.22 975.812 1860.11 Q978.15 1858.01 978.15 1854.4 Q978.15 1850.78 975.812 1848.68 Q973.474 1846.57 969.469 1846.57 Q967.594 1846.57 965.719 1846.99 Q963.867 1847.4 961.923 1848.28 L961.923 1830.92 Z" fill="#000000" fill-rule="evenodd" fill-opacity="1" /><path clip-path="url(#clip080)" d="M1493.59 1834 Q1489.97 1834 1488.15 1837.57 Q1486.34 1841.11 1486.34 1848.24 Q1486.34 1855.34 1488.15 1858.91 Q1489.97 1862.45 1493.59 1862.45 Q1497.22 1862.45 1499.02 1858.91 Q1500.85 1855.34 1500.85 1848.24 Q1500.85 1841.11 1499.02 1837.57 Q1497.22 1834 1493.59 1834 M1493.59 1830.3 Q1499.4 1830.3 1502.45 1834.9 Q1505.53 1839.49 1505.53 1848.24 Q1505.53 1856.96 1502.45 1861.57 Q1499.4 1866.15 1493.59 1866.15 Q1487.78 1866.15 1484.7 1861.57 Q1481.64 1856.96 1481.64 1848.24 Q1481.64 1839.49 1484.7 1834.9 Q1487.78 1830.3 1493.59 1830.3 Z" fill="#000000" fill-rule="evenodd" fill-opacity="1" /><path clip-path="url(#clip080)" d="M2024.98 1830.92 L2043.34 1830.92 L2043.34 1834.86 L2029.26 1834.86 L2029.26 1843.33 Q2030.28 1842.98 2031.3 1842.82 Q2032.32 1842.64 2033.34 1842.64 Q2039.12 1842.64 2042.5 1845.81 Q2045.88 1848.98 2045.88 1854.4 Q2045.88 1859.97 2042.41 1863.08 Q2038.94 1866.15 2032.62 1866.15 Q2030.44 1866.15 2028.18 1865.78 Q2025.93 1865.41 2023.52 1864.67 L2023.52 1859.97 Q2025.61 1861.11 2027.83 1861.66 Q2030.05 1862.22 2032.53 1862.22 Q2036.53 1862.22 2038.87 1860.11 Q2041.21 1858.01 2041.21 1854.4 Q2041.21 1850.78 2038.87 1848.68 Q2036.53 1846.57 2032.53 1846.57 Q2030.65 1846.57 2028.78 1846.99 Q2026.93 1847.4 2024.98 1848.28 L2024.98 1830.92 Z" fill="#000000" fill-rule="evenodd" fill-opacity="1" /><path clip-path="url(#clip080)" d="M2550.51 1861.55 L2558.15 1861.55 L2558.15 1835.18 L2549.84 1836.85 L2549.84 1832.59 L2558.1 1830.92 L2562.78 1830.92 L2562.78 1861.55 L2570.42 1861.55 L2570.42 1865.48 L2550.51 1865.48 L2550.51 1861.55 Z" fill="#000000" fill-rule="evenodd" fill-opacity="1" /><path clip-path="url(#clip080)" d="M2589.86 1834 Q2586.25 1834 2584.42 1837.57 Q2582.62 1841.11 2582.62 1848.24 Q2582.62 1855.34 2584.42 1858.91 Q2586.25 1862.45 2589.86 1862.45 Q2593.5 1862.45 2595.3 1858.91 Q2597.13 1855.34 2597.13 1848.24 Q2597.13 1841.11 2595.3 1837.57 Q2593.5 1834 2589.86 1834 M2589.86 1830.3 Q2595.67 1830.3 2598.73 1834.9 Q2601.81 1839.49 2601.81 1848.24 Q2601.81 1856.96 2598.73 1861.57 Q2595.67 1866.15 2589.86 1866.15 Q2584.05 1866.15 2580.97 1861.57 Q2577.92 1856.96 2577.92 1848.24 Q2577.92 1839.49 2580.97 1834.9 Q2584.05 1830.3 2589.86 1830.3 Z" fill="#000000" fill-rule="evenodd" fill-opacity="1" /><polyline clip-path="url(#clip082)" style="stroke:#000000; stroke-linecap:butt; stroke-linejoin:round; stroke-width:2; stroke-opacity:0.1; fill:none" points="
  346.414,1799 2640.76,1799 
  "/>
<polyline clip-path="url(#clip082)" style="stroke:#000000; stroke-linecap:butt; stroke-linejoin:round; stroke-width:2; stroke-opacity:0.1; fill:none" points="
  346.414,1457.21 2640.76,1457.21 
  "/>
<polyline clip-path="url(#clip082)" style="stroke:#000000; stroke-linecap:butt; stroke-linejoin:round; stroke-width:2; stroke-opacity:0.1; fill:none" points="
  346.414,1115.42 2640.76,1115.42 
  "/>
<polyline clip-path="url(#clip082)" style="stroke:#000000; stroke-linecap:butt; stroke-linejoin:round; stroke-width:2; stroke-opacity:0.1; fill:none" points="
  346.414,773.624 2640.76,773.624 
  "/>
<polyline clip-path="url(#clip082)" style="stroke:#000000; stroke-linecap:butt; stroke-linejoin:round; stroke-width:2; stroke-opacity:0.1; fill:none" points="
  346.414,431.831 2640.76,431.831 
  "/>
<polyline clip-path="url(#clip082)" style="stroke:#000000; stroke-linecap:butt; stroke-linejoin:round; stroke-width:2; stroke-opacity:0.1; fill:none" points="
  346.414,90.0373 2640.76,90.0373 
  "/>
<polyline clip-path="url(#clip080)" style="stroke:#000000; stroke-linecap:butt; stroke-linejoin:round; stroke-width:4; stroke-opacity:1; fill:none" points="
  346.414,1800.78 346.414,47.2441 
  "/>
<polyline clip-path="url(#clip080)" style="stroke:#000000; stroke-linecap:butt; stroke-linejoin:round; stroke-width:4; stroke-opacity:1; fill:none" points="
  346.414,1799 365.312,1799 
  "/>
<polyline clip-path="url(#clip080)" style="stroke:#000000; stroke-linecap:butt; stroke-linejoin:round; stroke-width:4; stroke-opacity:1; fill:none" points="
  346.414,1457.21 365.312,1457.21 
  "/>
<polyline clip-path="url(#clip080)" style="stroke:#000000; stroke-linecap:butt; stroke-linejoin:round; stroke-width:4; stroke-opacity:1; fill:none" points="
  346.414,1115.42 365.312,1115.42 
  "/>
<polyline clip-path="url(#clip080)" style="stroke:#000000; stroke-linecap:butt; stroke-linejoin:round; stroke-width:4; stroke-opacity:1; fill:none" points="
  346.414,773.624 365.312,773.624 
  "/>
<polyline clip-path="url(#clip080)" style="stroke:#000000; stroke-linecap:butt; stroke-linejoin:round; stroke-width:4; stroke-opacity:1; fill:none" points="
  346.414,431.831 365.312,431.831 
  "/>
<polyline clip-path="url(#clip080)" style="stroke:#000000; stroke-linecap:butt; stroke-linejoin:round; stroke-width:4; stroke-opacity:1; fill:none" points="
  346.414,90.0373 365.312,90.0373 
  "/>
<path clip-path="url(#clip080)" d="M50.8875 1805.9 L80.5632 1805.9 L80.5632 1809.84 L50.8875 1809.84 L50.8875 1805.9 Z" fill="#000000" fill-rule="evenodd" fill-opacity="1" /><path clip-path="url(#clip080)" d="M94.6835 1818.8 L111.003 1818.8 L111.003 1822.73 L89.0586 1822.73 L89.0586 1818.8 Q91.7206 1816.04 96.3039 1811.41 Q100.91 1806.76 102.091 1805.42 Q104.336 1802.89 105.216 1801.16 Q106.119 1799.4 106.119 1797.71 Q106.119 1794.95 104.174 1793.22 Q102.253 1791.48 99.1511 1791.48 Q96.952 1791.48 94.4984 1792.25 Q92.0678 1793.01 89.29 1794.56 L89.29 1789.84 Q92.1141 1788.7 94.5678 1788.13 Q97.0215 1787.55 99.0585 1787.55 Q104.429 1787.55 107.623 1790.23 Q110.818 1792.92 110.818 1797.41 Q110.818 1799.54 110.008 1801.46 Q109.22 1803.36 107.114 1805.95 Q106.535 1806.62 103.433 1809.84 Q100.332 1813.03 94.6835 1818.8 Z" fill="#000000" fill-rule="evenodd" fill-opacity="1" /><path clip-path="url(#clip080)" d="M120.818 1816.85 L125.702 1816.85 L125.702 1822.73 L120.818 1822.73 L120.818 1816.85 Z" fill="#000000" fill-rule="evenodd" fill-opacity="1" /><path clip-path="url(#clip080)" d="M135.933 1788.17 L154.29 1788.17 L154.29 1792.11 L140.216 1792.11 L140.216 1800.58 Q141.234 1800.23 142.253 1800.07 Q143.271 1799.88 144.29 1799.88 Q150.077 1799.88 153.456 1803.06 Q156.836 1806.23 156.836 1811.64 Q156.836 1817.22 153.364 1820.32 Q149.892 1823.4 143.572 1823.4 Q141.396 1823.4 139.128 1823.03 Q136.882 1822.66 134.475 1821.92 L134.475 1817.22 Q136.558 1818.36 138.781 1818.91 Q141.003 1819.47 143.48 1819.47 Q147.484 1819.47 149.822 1817.36 Q152.16 1815.25 152.16 1811.64 Q152.16 1808.03 149.822 1805.93 Q147.484 1803.82 143.48 1803.82 Q141.605 1803.82 139.73 1804.24 Q137.878 1804.65 135.933 1805.53 L135.933 1788.17 Z" fill="#000000" fill-rule="evenodd" fill-opacity="1" /><path clip-path="url(#clip080)" d="M176.049 1791.25 Q172.438 1791.25 170.609 1794.82 Q168.804 1798.36 168.804 1805.49 Q168.804 1812.59 170.609 1816.16 Q172.438 1819.7 176.049 1819.7 Q179.683 1819.7 181.489 1816.16 Q183.317 1812.59 183.317 1805.49 Q183.317 1798.36 181.489 1794.82 Q179.683 1791.25 176.049 1791.25 M176.049 1787.55 Q181.859 1787.55 184.915 1792.15 Q187.993 1796.74 187.993 1805.49 Q187.993 1814.21 184.915 1818.82 Q181.859 1823.4 176.049 1823.4 Q170.239 1823.4 167.16 1818.82 Q164.104 1814.21 164.104 1805.49 Q164.104 1796.74 167.16 1792.15 Q170.239 1787.55 176.049 1787.55 Z" fill="#000000" fill-rule="evenodd" fill-opacity="1" /><path clip-path="url(#clip080)" d="M224.382 1797.27 L213.803 1807.89 L224.382 1818.47 L221.627 1821.27 L211.002 1810.65 L200.377 1821.27 L197.646 1818.47 L208.201 1807.89 L197.646 1797.27 L200.377 1794.47 L211.002 1805.09 L221.627 1794.47 L224.382 1797.27 Z" fill="#000000" fill-rule="evenodd" fill-opacity="1" /><path clip-path="url(#clip080)" d="M236.743 1818.8 L244.382 1818.8 L244.382 1792.43 L236.072 1794.1 L236.072 1789.84 L244.336 1788.17 L249.011 1788.17 L249.011 1818.8 L256.65 1818.8 L256.65 1822.73 L236.743 1822.73 L236.743 1818.8 Z" fill="#000000" fill-rule="evenodd" fill-opacity="1" /><path clip-path="url(#clip080)" d="M276.095 1791.25 Q272.484 1791.25 270.655 1794.82 Q268.849 1798.36 268.849 1805.49 Q268.849 1812.59 270.655 1816.16 Q272.484 1819.7 276.095 1819.7 Q279.729 1819.7 281.534 1816.16 Q283.363 1812.59 283.363 1805.49 Q283.363 1798.36 281.534 1794.82 Q279.729 1791.25 276.095 1791.25 M276.095 1787.55 Q281.905 1787.55 284.96 1792.15 Q288.039 1796.74 288.039 1805.49 Q288.039 1814.21 284.96 1818.82 Q281.905 1823.4 276.095 1823.4 Q270.284 1823.4 267.206 1818.82 Q264.15 1814.21 264.15 1805.49 Q264.15 1796.74 267.206 1792.15 Q270.284 1787.55 276.095 1787.55 Z" fill="#000000" fill-rule="evenodd" fill-opacity="1" /><path clip-path="url(#clip080)" d="M288.039 1767.24 L306.094 1767.24 L306.094 1768.86 L295.901 1795.32 L291.932 1795.32 L301.524 1770.44 L288.039 1770.44 L288.039 1767.24 Z" fill="#000000" fill-rule="evenodd" fill-opacity="1" /><path clip-path="url(#clip080)" d="M50.8875 1464.11 L80.5632 1464.11 L80.5632 1468.04 L50.8875 1468.04 L50.8875 1464.11 Z" fill="#000000" fill-rule="evenodd" fill-opacity="1" /><path clip-path="url(#clip080)" d="M94.6835 1477 L111.003 1477 L111.003 1480.94 L89.0586 1480.94 L89.0586 1477 Q91.7206 1474.25 96.3039 1469.62 Q100.91 1464.97 102.091 1463.62 Q104.336 1461.1 105.216 1459.36 Q106.119 1457.61 106.119 1455.92 Q106.119 1453.16 104.174 1451.42 Q102.253 1449.69 99.1511 1449.69 Q96.952 1449.69 94.4984 1450.45 Q92.0678 1451.22 89.29 1452.77 L89.29 1448.05 Q92.1141 1446.91 94.5678 1446.33 Q97.0215 1445.75 99.0585 1445.75 Q104.429 1445.75 107.623 1448.44 Q110.818 1451.12 110.818 1455.61 Q110.818 1457.74 110.008 1459.67 Q109.22 1461.56 107.114 1464.16 Q106.535 1464.83 103.433 1468.04 Q100.332 1471.24 94.6835 1477 Z" fill="#000000" fill-rule="evenodd" fill-opacity="1" /><path clip-path="url(#clip080)" d="M120.818 1475.06 L125.702 1475.06 L125.702 1480.94 L120.818 1480.94 L120.818 1475.06 Z" fill="#000000" fill-rule="evenodd" fill-opacity="1" /><path clip-path="url(#clip080)" d="M145.887 1449.46 Q142.276 1449.46 140.447 1453.02 Q138.642 1456.56 138.642 1463.69 Q138.642 1470.8 140.447 1474.36 Q142.276 1477.91 145.887 1477.91 Q149.521 1477.91 151.327 1474.36 Q153.155 1470.8 153.155 1463.69 Q153.155 1456.56 151.327 1453.02 Q149.521 1449.46 145.887 1449.46 M145.887 1445.75 Q151.697 1445.75 154.753 1450.36 Q157.831 1454.94 157.831 1463.69 Q157.831 1472.42 154.753 1477.03 Q151.697 1481.61 145.887 1481.61 Q140.077 1481.61 136.998 1477.03 Q133.943 1472.42 133.943 1463.69 Q133.943 1454.94 136.998 1450.36 Q140.077 1445.75 145.887 1445.75 Z" fill="#000000" fill-rule="evenodd" fill-opacity="1" /><path clip-path="url(#clip080)" d="M176.049 1449.46 Q172.438 1449.46 170.609 1453.02 Q168.804 1456.56 168.804 1463.69 Q168.804 1470.8 170.609 1474.36 Q172.438 1477.91 176.049 1477.91 Q179.683 1477.91 181.489 1474.36 Q183.317 1470.8 183.317 1463.69 Q183.317 1456.56 181.489 1453.02 Q179.683 1449.46 176.049 1449.46 M176.049 1445.75 Q181.859 1445.75 184.915 1450.36 Q187.993 1454.94 187.993 1463.69 Q187.993 1472.42 184.915 1477.03 Q181.859 1481.61 176.049 1481.61 Q170.239 1481.61 167.16 1477.03 Q164.104 1472.42 164.104 1463.69 Q164.104 1454.94 167.16 1450.36 Q170.239 1445.75 176.049 1445.75 Z" fill="#000000" fill-rule="evenodd" fill-opacity="1" /><path clip-path="url(#clip080)" d="M224.382 1455.48 L213.803 1466.1 L224.382 1476.68 L221.627 1479.48 L211.002 1468.86 L200.377 1479.48 L197.646 1476.68 L208.201 1466.1 L197.646 1455.48 L200.377 1452.67 L211.002 1463.3 L221.627 1452.67 L224.382 1455.48 Z" fill="#000000" fill-rule="evenodd" fill-opacity="1" /><path clip-path="url(#clip080)" d="M236.743 1477 L244.382 1477 L244.382 1450.64 L236.072 1452.3 L236.072 1448.05 L244.336 1446.38 L249.011 1446.38 L249.011 1477 L256.65 1477 L256.65 1480.94 L236.743 1480.94 L236.743 1477 Z" fill="#000000" fill-rule="evenodd" fill-opacity="1" /><path clip-path="url(#clip080)" d="M276.095 1449.46 Q272.484 1449.46 270.655 1453.02 Q268.849 1456.56 268.849 1463.69 Q268.849 1470.8 270.655 1474.36 Q272.484 1477.91 276.095 1477.91 Q279.729 1477.91 281.534 1474.36 Q283.363 1470.8 283.363 1463.69 Q283.363 1456.56 281.534 1453.02 Q279.729 1449.46 276.095 1449.46 M276.095 1445.75 Q281.905 1445.75 284.96 1450.36 Q288.039 1454.94 288.039 1463.69 Q288.039 1472.42 284.96 1477.03 Q281.905 1481.61 276.095 1481.61 Q270.284 1481.61 267.206 1477.03 Q264.15 1472.42 264.15 1463.69 Q264.15 1454.94 267.206 1450.36 Q270.284 1445.75 276.095 1445.75 Z" fill="#000000" fill-rule="evenodd" fill-opacity="1" /><path clip-path="url(#clip080)" d="M288.039 1425.45 L306.094 1425.45 L306.094 1427.07 L295.901 1453.53 L291.932 1453.53 L301.524 1428.65 L288.039 1428.65 L288.039 1425.45 Z" fill="#000000" fill-rule="evenodd" fill-opacity="1" /><path clip-path="url(#clip080)" d="M50.8875 1122.32 L80.5632 1122.32 L80.5632 1126.25 L50.8875 1126.25 L50.8875 1122.32 Z" fill="#000000" fill-rule="evenodd" fill-opacity="1" /><path clip-path="url(#clip080)" d="M91.466 1135.21 L99.1048 1135.21 L99.1048 1108.84 L90.7947 1110.51 L90.7947 1106.25 L99.0585 1104.59 L103.734 1104.59 L103.734 1135.21 L111.373 1135.21 L111.373 1139.15 L91.466 1139.15 L91.466 1135.21 Z" fill="#000000" fill-rule="evenodd" fill-opacity="1" /><path clip-path="url(#clip080)" d="M120.818 1133.27 L125.702 1133.27 L125.702 1139.15 L120.818 1139.15 L120.818 1133.27 Z" fill="#000000" fill-rule="evenodd" fill-opacity="1" /><path clip-path="url(#clip080)" d="M135.933 1104.59 L154.29 1104.59 L154.29 1108.52 L140.216 1108.52 L140.216 1116.99 Q141.234 1116.65 142.253 1116.48 Q143.271 1116.3 144.29 1116.3 Q150.077 1116.3 153.456 1119.47 Q156.836 1122.64 156.836 1128.06 Q156.836 1133.64 153.364 1136.74 Q149.892 1139.82 143.572 1139.82 Q141.396 1139.82 139.128 1139.45 Q136.882 1139.08 134.475 1138.33 L134.475 1133.64 Q136.558 1134.77 138.781 1135.33 Q141.003 1135.88 143.48 1135.88 Q147.484 1135.88 149.822 1133.77 Q152.16 1131.67 152.16 1128.06 Q152.16 1124.45 149.822 1122.34 Q147.484 1120.23 143.48 1120.23 Q141.605 1120.23 139.73 1120.65 Q137.878 1121.07 135.933 1121.95 L135.933 1104.59 Z" fill="#000000" fill-rule="evenodd" fill-opacity="1" /><path clip-path="url(#clip080)" d="M176.049 1107.66 Q172.438 1107.66 170.609 1111.23 Q168.804 1114.77 168.804 1121.9 Q168.804 1129.01 170.609 1132.57 Q172.438 1136.11 176.049 1136.11 Q179.683 1136.11 181.489 1132.57 Q183.317 1129.01 183.317 1121.9 Q183.317 1114.77 181.489 1111.23 Q179.683 1107.66 176.049 1107.66 M176.049 1103.96 Q181.859 1103.96 184.915 1108.57 Q187.993 1113.15 187.993 1121.9 Q187.993 1130.63 184.915 1135.23 Q181.859 1139.82 176.049 1139.82 Q170.239 1139.82 167.16 1135.23 Q164.104 1130.63 164.104 1121.9 Q164.104 1113.15 167.16 1108.57 Q170.239 1103.96 176.049 1103.96 Z" fill="#000000" fill-rule="evenodd" fill-opacity="1" /><path clip-path="url(#clip080)" d="M224.382 1113.68 L213.803 1124.31 L224.382 1134.89 L221.627 1137.69 L211.002 1127.06 L200.377 1137.69 L197.646 1134.89 L208.201 1124.31 L197.646 1113.68 L200.377 1110.88 L211.002 1121.51 L221.627 1110.88 L224.382 1113.68 Z" fill="#000000" fill-rule="evenodd" fill-opacity="1" /><path clip-path="url(#clip080)" d="M236.743 1135.21 L244.382 1135.21 L244.382 1108.84 L236.072 1110.51 L236.072 1106.25 L244.336 1104.59 L249.011 1104.59 L249.011 1135.21 L256.65 1135.21 L256.65 1139.15 L236.743 1139.15 L236.743 1135.21 Z" fill="#000000" fill-rule="evenodd" fill-opacity="1" /><path clip-path="url(#clip080)" d="M276.095 1107.66 Q272.484 1107.66 270.655 1111.23 Q268.849 1114.77 268.849 1121.9 Q268.849 1129.01 270.655 1132.57 Q272.484 1136.11 276.095 1136.11 Q279.729 1136.11 281.534 1132.57 Q283.363 1129.01 283.363 1121.9 Q283.363 1114.77 281.534 1111.23 Q279.729 1107.66 276.095 1107.66 M276.095 1103.96 Q281.905 1103.96 284.96 1108.57 Q288.039 1113.15 288.039 1121.9 Q288.039 1130.63 284.96 1135.23 Q281.905 1139.82 276.095 1139.82 Q270.284 1139.82 267.206 1135.23 Q264.15 1130.63 264.15 1121.9 Q264.15 1113.15 267.206 1108.57 Q270.284 1103.96 276.095 1103.96 Z" fill="#000000" fill-rule="evenodd" fill-opacity="1" /><path clip-path="url(#clip080)" d="M288.039 1083.65 L306.094 1083.65 L306.094 1085.27 L295.901 1111.73 L291.932 1111.73 L301.524 1086.85 L288.039 1086.85 L288.039 1083.65 Z" fill="#000000" fill-rule="evenodd" fill-opacity="1" /><path clip-path="url(#clip080)" d="M50.8875 780.523 L80.5632 780.523 L80.5632 784.458 L50.8875 784.458 L50.8875 780.523 Z" fill="#000000" fill-rule="evenodd" fill-opacity="1" /><path clip-path="url(#clip080)" d="M91.466 793.416 L99.1048 793.416 L99.1048 767.051 L90.7947 768.718 L90.7947 764.458 L99.0585 762.792 L103.734 762.792 L103.734 793.416 L111.373 793.416 L111.373 797.352 L91.466 797.352 L91.466 793.416 Z" fill="#000000" fill-rule="evenodd" fill-opacity="1" /><path clip-path="url(#clip080)" d="M120.818 791.472 L125.702 791.472 L125.702 797.352 L120.818 797.352 L120.818 791.472 Z" fill="#000000" fill-rule="evenodd" fill-opacity="1" /><path clip-path="url(#clip080)" d="M145.887 765.87 Q142.276 765.87 140.447 769.435 Q138.642 772.977 138.642 780.106 Q138.642 787.213 140.447 790.778 Q142.276 794.319 145.887 794.319 Q149.521 794.319 151.327 790.778 Q153.155 787.213 153.155 780.106 Q153.155 772.977 151.327 769.435 Q149.521 765.87 145.887 765.87 M145.887 762.167 Q151.697 762.167 154.753 766.773 Q157.831 771.356 157.831 780.106 Q157.831 788.833 154.753 793.44 Q151.697 798.023 145.887 798.023 Q140.077 798.023 136.998 793.44 Q133.943 788.833 133.943 780.106 Q133.943 771.356 136.998 766.773 Q140.077 762.167 145.887 762.167 Z" fill="#000000" fill-rule="evenodd" fill-opacity="1" /><path clip-path="url(#clip080)" d="M176.049 765.87 Q172.438 765.87 170.609 769.435 Q168.804 772.977 168.804 780.106 Q168.804 787.213 170.609 790.778 Q172.438 794.319 176.049 794.319 Q179.683 794.319 181.489 790.778 Q183.317 787.213 183.317 780.106 Q183.317 772.977 181.489 769.435 Q179.683 765.87 176.049 765.87 M176.049 762.167 Q181.859 762.167 184.915 766.773 Q187.993 771.356 187.993 780.106 Q187.993 788.833 184.915 793.44 Q181.859 798.023 176.049 798.023 Q170.239 798.023 167.16 793.44 Q164.104 788.833 164.104 780.106 Q164.104 771.356 167.16 766.773 Q170.239 762.167 176.049 762.167 Z" fill="#000000" fill-rule="evenodd" fill-opacity="1" /><path clip-path="url(#clip080)" d="M224.382 771.889 L213.803 782.514 L224.382 793.092 L221.627 795.893 L211.002 785.268 L200.377 795.893 L197.646 793.092 L208.201 782.514 L197.646 771.889 L200.377 769.088 L211.002 779.713 L221.627 769.088 L224.382 771.889 Z" fill="#000000" fill-rule="evenodd" fill-opacity="1" /><path clip-path="url(#clip080)" d="M236.743 793.416 L244.382 793.416 L244.382 767.051 L236.072 768.718 L236.072 764.458 L244.336 762.792 L249.011 762.792 L249.011 793.416 L256.65 793.416 L256.65 797.352 L236.743 797.352 L236.743 793.416 Z" fill="#000000" fill-rule="evenodd" fill-opacity="1" /><path clip-path="url(#clip080)" d="M276.095 765.87 Q272.484 765.87 270.655 769.435 Q268.849 772.977 268.849 780.106 Q268.849 787.213 270.655 790.778 Q272.484 794.319 276.095 794.319 Q279.729 794.319 281.534 790.778 Q283.363 787.213 283.363 780.106 Q283.363 772.977 281.534 769.435 Q279.729 765.87 276.095 765.87 M276.095 762.167 Q281.905 762.167 284.96 766.773 Q288.039 771.356 288.039 780.106 Q288.039 788.833 284.96 793.44 Q281.905 798.023 276.095 798.023 Q270.284 798.023 267.206 793.44 Q264.15 788.833 264.15 780.106 Q264.15 771.356 267.206 766.773 Q270.284 762.167 276.095 762.167 Z" fill="#000000" fill-rule="evenodd" fill-opacity="1" /><path clip-path="url(#clip080)" d="M288.039 741.861 L306.094 741.861 L306.094 743.479 L295.901 769.941 L291.932 769.941 L301.524 745.059 L288.039 745.059 L288.039 741.861 Z" fill="#000000" fill-rule="evenodd" fill-opacity="1" /><path clip-path="url(#clip080)" d="M49.5521 438.73 L79.2279 438.73 L79.2279 442.665 L49.5521 442.665 L49.5521 438.73 Z" fill="#000000" fill-rule="evenodd" fill-opacity="1" /><path clip-path="url(#clip080)" d="M89.3667 420.998 L107.723 420.998 L107.723 424.933 L93.6491 424.933 L93.6491 433.406 Q94.6676 433.058 95.6861 432.896 Q96.7047 432.711 97.7232 432.711 Q103.51 432.711 106.89 435.882 Q110.269 439.054 110.269 444.47 Q110.269 450.049 106.797 453.151 Q103.325 456.23 97.0056 456.23 Q94.8297 456.23 92.5612 455.859 Q90.3158 455.489 87.9084 454.748 L87.9084 450.049 Q89.9917 451.183 92.2139 451.739 Q94.4361 452.294 96.913 452.294 Q100.918 452.294 103.256 450.188 Q105.593 448.081 105.593 444.47 Q105.593 440.859 103.256 438.753 Q100.918 436.646 96.913 436.646 Q95.038 436.646 93.163 437.063 Q91.3112 437.48 89.3667 438.359 L89.3667 420.998 Z" fill="#000000" fill-rule="evenodd" fill-opacity="1" /><path clip-path="url(#clip080)" d="M119.482 449.679 L124.367 449.679 L124.367 455.558 L119.482 455.558 L119.482 449.679 Z" fill="#000000" fill-rule="evenodd" fill-opacity="1" /><path clip-path="url(#clip080)" d="M144.552 424.077 Q140.941 424.077 139.112 427.642 Q137.306 431.183 137.306 438.313 Q137.306 445.419 139.112 448.984 Q140.941 452.526 144.552 452.526 Q148.186 452.526 149.991 448.984 Q151.82 445.419 151.82 438.313 Q151.82 431.183 149.991 427.642 Q148.186 424.077 144.552 424.077 M144.552 420.373 Q150.362 420.373 153.417 424.98 Q156.496 429.563 156.496 438.313 Q156.496 447.04 153.417 451.646 Q150.362 456.23 144.552 456.23 Q138.741 456.23 135.663 451.646 Q132.607 447.04 132.607 438.313 Q132.607 429.563 135.663 424.98 Q138.741 420.373 144.552 420.373 Z" fill="#000000" fill-rule="evenodd" fill-opacity="1" /><path clip-path="url(#clip080)" d="M174.713 424.077 Q171.102 424.077 169.274 427.642 Q167.468 431.183 167.468 438.313 Q167.468 445.419 169.274 448.984 Q171.102 452.526 174.713 452.526 Q178.348 452.526 180.153 448.984 Q181.982 445.419 181.982 438.313 Q181.982 431.183 180.153 427.642 Q178.348 424.077 174.713 424.077 M174.713 420.373 Q180.524 420.373 183.579 424.98 Q186.658 429.563 186.658 438.313 Q186.658 447.04 183.579 451.646 Q180.524 456.23 174.713 456.23 Q168.903 456.23 165.825 451.646 Q162.769 447.04 162.769 438.313 Q162.769 429.563 165.825 424.98 Q168.903 420.373 174.713 420.373 Z" fill="#000000" fill-rule="evenodd" fill-opacity="1" /><path clip-path="url(#clip080)" d="M223.047 430.095 L212.468 440.72 L223.047 451.299 L220.292 454.1 L209.667 443.475 L199.042 454.1 L196.311 451.299 L206.866 440.72 L196.311 430.095 L199.042 427.295 L209.667 437.92 L220.292 427.295 L223.047 430.095 Z" fill="#000000" fill-rule="evenodd" fill-opacity="1" /><path clip-path="url(#clip080)" d="M235.408 451.623 L243.046 451.623 L243.046 425.258 L234.736 426.924 L234.736 422.665 L243 420.998 L247.676 420.998 L247.676 451.623 L255.315 451.623 L255.315 455.558 L235.408 455.558 L235.408 451.623 Z" fill="#000000" fill-rule="evenodd" fill-opacity="1" /><path clip-path="url(#clip080)" d="M274.759 424.077 Q271.148 424.077 269.319 427.642 Q267.514 431.183 267.514 438.313 Q267.514 445.419 269.319 448.984 Q271.148 452.526 274.759 452.526 Q278.393 452.526 280.199 448.984 Q282.028 445.419 282.028 438.313 Q282.028 431.183 280.199 427.642 Q278.393 424.077 274.759 424.077 M274.759 420.373 Q280.569 420.373 283.625 424.98 Q286.704 429.563 286.704 438.313 Q286.704 447.04 283.625 451.646 Q280.569 456.23 274.759 456.23 Q268.949 456.23 265.87 451.646 Q262.815 447.04 262.815 438.313 Q262.815 429.563 265.87 424.98 Q268.949 420.373 274.759 420.373 Z" fill="#000000" fill-rule="evenodd" fill-opacity="1" /><path clip-path="url(#clip080)" d="M296.728 412.594 Q294.17 412.594 292.666 414.343 Q291.18 416.092 291.18 419.139 Q291.18 422.167 292.666 423.935 Q294.17 425.684 296.728 425.684 Q299.286 425.684 300.772 423.935 Q302.276 422.167 302.276 419.139 Q302.276 416.092 300.772 414.343 Q299.286 412.594 296.728 412.594 M304.27 400.689 L304.27 404.149 Q302.841 403.472 301.374 403.115 Q299.925 402.757 298.496 402.757 Q294.735 402.757 292.741 405.296 Q290.766 407.836 290.484 412.97 Q291.594 411.334 293.268 410.469 Q294.941 409.585 296.954 409.585 Q301.186 409.585 303.631 412.161 Q306.094 414.719 306.094 419.139 Q306.094 423.465 303.537 426.079 Q300.979 428.693 296.728 428.693 Q291.857 428.693 289.28 424.969 Q286.704 421.227 286.704 414.136 Q286.704 407.478 289.863 403.529 Q293.023 399.56 298.346 399.56 Q299.775 399.56 301.223 399.842 Q302.69 400.124 304.27 400.689 Z" fill="#000000" fill-rule="evenodd" fill-opacity="1" /><path clip-path="url(#clip080)" d="M294.15 75.836 Q290.539 75.836 288.71 79.4008 Q286.905 82.9425 286.905 90.0721 Q286.905 97.1785 288.71 100.743 Q290.539 104.285 294.15 104.285 Q297.784 104.285 299.59 100.743 Q301.419 97.1785 301.419 90.0721 Q301.419 82.9425 299.59 79.4008 Q297.784 75.836 294.15 75.836 M294.15 72.1323 Q299.96 72.1323 303.016 76.7388 Q306.094 81.3221 306.094 90.0721 Q306.094 98.7989 303.016 103.405 Q299.96 107.989 294.15 107.989 Q288.34 107.989 285.261 103.405 Q282.206 98.7989 282.206 90.0721 Q282.206 81.3221 285.261 76.7388 Q288.34 72.1323 294.15 72.1323 Z" fill="#000000" fill-rule="evenodd" fill-opacity="1" /><polyline clip-path="url(#clip082)" style="stroke:#009af9; stroke-linecap:butt; stroke-linejoin:round; stroke-width:4; stroke-opacity:1; fill:none" points="
  411.349,1751.15 414.872,1742.16 418.395,1733.2 421.918,1724.29 425.441,1715.41 458.016,1635.15 490.591,1558.09 523.166,1484.14 555.741,1413.2 575.317,1371.98 
  594.893,1331.79 614.469,1292.61 634.045,1254.43 667.148,1192.08 700.251,1132.43 736.21,1070.59 772.169,1011.72 805.32,959.981 838.471,910.595 874.013,860.166 
  909.554,812.248 950.732,759.744 991.91,710.338 1028.5,668.921 1065.1,629.746 1097.19,597.166 1129.28,566.179 1164.27,534.139 1199.25,503.849 1234.45,475.069 
  1269.64,447.912 1308.55,419.694 1347.47,393.285 1384.49,369.756 1421.51,347.71 1460.01,326.285 1498.51,306.309 1530.91,290.562 1563.32,275.746 1642.44,243.222 
  1714.93,217.589 1781.88,197.079 1849.69,179.083 1925.69,161.879 1994.56,148.69 2073.41,136.046 2146.42,126.38 2218.4,118.513 2288.28,112.241 2359.92,107.011 
  2438.41,102.463 2552.43,97.6438 2575.82,96.8724 
  "/>
<path clip-path="url(#clip080)" d="
M2256.92 209.375 L2564.28 209.375 L2564.28 105.695 L2256.92 105.695  Z
  " fill="#ffffff" fill-rule="evenodd" fill-opacity="1"/>
<polyline clip-path="url(#clip080)" style="stroke:#000000; stroke-linecap:butt; stroke-linejoin:round; stroke-width:4; stroke-opacity:1; fill:none" points="
  2256.92,209.375 2564.28,209.375 2564.28,105.695 2256.92,105.695 2256.92,209.375 
  "/>
<polyline clip-path="url(#clip080)" style="stroke:#009af9; stroke-linecap:butt; stroke-linejoin:round; stroke-width:4; stroke-opacity:1; fill:none" points="
  2282.41,157.535 2435.37,157.535 
  "/>
<path clip-path="url(#clip080)" d="M2474.7 177.223 Q2472.9 181.852 2471.19 183.264 Q2469.47 184.676 2466.6 184.676 L2463.2 184.676 L2463.2 181.112 L2465.7 181.112 Q2467.46 181.112 2468.43 180.278 Q2469.4 179.445 2470.58 176.343 L2471.35 174.399 L2460.86 148.889 L2465.38 148.889 L2473.48 169.167 L2481.58 148.889 L2486.09 148.889 L2474.7 177.223 Z" fill="#000000" fill-rule="evenodd" fill-opacity="1" /><path clip-path="url(#clip080)" d="M2493.39 170.88 L2501.02 170.88 L2501.02 144.515 L2492.71 146.181 L2492.71 141.922 L2500.98 140.255 L2505.65 140.255 L2505.65 170.88 L2513.29 170.88 L2513.29 174.815 L2493.39 174.815 L2493.39 170.88 Z" fill="#000000" fill-rule="evenodd" fill-opacity="1" /></svg>
