<?xml version="1.0" encoding="utf-8"?>
<svg xmlns="http://www.w3.org/2000/svg" xmlns:xlink="http://www.w3.org/1999/xlink" width="672" height="480" viewBox="0 0 2688 1920">
<defs>
  <clipPath id="clip950">
    <rect x="0" y="0" width="2688" height="1920"/>
  </clipPath>
</defs>
<path clip-path="url(#clip950)" d="
M0 1920 L2688 1920 L2688 0 L0 0  Z
  " fill="#ffffff" fill-rule="evenodd" fill-opacity="1"/>
<defs>
  <clipPath id="clip951">
    <rect x="537" y="0" width="1883" height="1883"/>
  </clipPath>
</defs>
<path clip-path="url(#clip950)" d="
M189.154 1800.78 L2640.76 1800.78 L2640.76 127.792 L189.154 127.792  Z
  " fill="#ffffff" fill-rule="evenodd" fill-opacity="1"/>
<defs>
  <clipPath id="clip952">
    <rect x="189" y="127" width="2453" height="1674"/>
  </clipPath>
</defs>
<polyline clip-path="url(#clip952)" style="stroke:#000000; stroke-linecap:butt; stroke-linejoin:round; stroke-width:2; stroke-opacity:0.1; fill:none" points="
  258.539,1800.78 258.539,127.792 
  "/>
<polyline clip-path="url(#clip952)" style="stroke:#000000; stroke-linecap:butt; stroke-linejoin:round; stroke-width:2; stroke-opacity:0.1; fill:none" points="
  994.736,1800.78 994.736,127.792 
  "/>
<polyline clip-path="url(#clip952)" style="stroke:#000000; stroke-linecap:butt; stroke-linejoin:round; stroke-width:2; stroke-opacity:0.1; fill:none" points="
  1730.93,1800.78 1730.93,127.792 
  "/>
<polyline clip-path="url(#clip952)" style="stroke:#000000; stroke-linecap:butt; stroke-linejoin:round; stroke-width:2; stroke-opacity:0.1; fill:none" points="
  2467.13,1800.78 2467.13,127.792 
  "/>
<polyline clip-path="url(#clip950)" style="stroke:#000000; stroke-linecap:butt; stroke-linejoin:round; stroke-width:4; stroke-opacity:1; fill:none" points="
  189.154,1800.78 2640.76,1800.78 
  "/>
<polyline clip-path="url(#clip950)" style="stroke:#000000; stroke-linecap:butt; stroke-linejoin:round; stroke-width:4; stroke-opacity:1; fill:none" points="
  258.539,1800.78 258.539,1781.88 
  "/>
<polyline clip-path="url(#clip950)" style="stroke:#000000; stroke-linecap:butt; stroke-linejoin:round; stroke-width:4; stroke-opacity:1; fill:none" points="
  994.736,1800.78 994.736,1781.88 
  "/>
<polyline clip-path="url(#clip950)" style="stroke:#000000; stroke-linecap:butt; stroke-linejoin:round; stroke-width:4; stroke-opacity:1; fill:none" points="
  1730.93,1800.78 1730.93,1781.88 
  "/>
<polyline clip-path="url(#clip950)" style="stroke:#000000; stroke-linecap:butt; stroke-linejoin:round; stroke-width:4; stroke-opacity:1; fill:none" points="
  2467.13,1800.78 2467.13,1781.88 
  "/>
<path clip-path="url(#clip950)" d="M258.539 1834 Q254.928 1834 253.099 1837.57 Q251.294 1841.11 251.294 1848.24 Q251.294 1855.34 253.099 1858.91 Q254.928 1862.45 258.539 1862.45 Q262.173 1862.45 263.979 1858.91 Q265.807 1855.34 265.807 1848.24 Q265.807 1841.11 263.979 1837.57 Q262.173 1834 258.539 1834 M258.539 1830.3 Q264.349 1830.3 267.405 1834.9 Q270.483 1839.49 270.483 1848.24 Q270.483 1856.96 267.405 1861.57 Q264.349 1866.15 258.539 1866.15 Q252.729 1866.15 249.65 1861.57 Q246.595 1856.96 246.595 1848.24 Q246.595 1839.49 249.65 1834.9 Q252.729 1830.3 258.539 1830.3 Z" fill="#000000" fill-rule="evenodd" fill-opacity="1" /><path clip-path="url(#clip950)" d="M985.118 1861.55 L992.757 1861.55 L992.757 1835.18 L984.447 1836.85 L984.447 1832.59 L992.711 1830.92 L997.387 1830.92 L997.387 1861.55 L1005.03 1861.55 L1005.03 1865.48 L985.118 1865.48 L985.118 1861.55 Z" fill="#000000" fill-rule="evenodd" fill-opacity="1" /><path clip-path="url(#clip950)" d="M1725.59 1861.55 L1741.91 1861.55 L1741.91 1865.48 L1719.96 1865.48 L1719.96 1861.55 Q1722.62 1858.79 1727.21 1854.16 Q1731.81 1849.51 1732.99 1848.17 Q1735.24 1845.65 1736.12 1843.91 Q1737.02 1842.15 1737.02 1840.46 Q1737.02 1837.71 1735.08 1835.97 Q1733.16 1834.23 1730.05 1834.23 Q1727.85 1834.23 1725.4 1835 Q1722.97 1835.76 1720.19 1837.31 L1720.19 1832.59 Q1723.02 1831.46 1725.47 1830.88 Q1727.92 1830.3 1729.96 1830.3 Q1735.33 1830.3 1738.53 1832.98 Q1741.72 1835.67 1741.72 1840.16 Q1741.72 1842.29 1740.91 1844.21 Q1740.12 1846.11 1738.02 1848.7 Q1737.44 1849.37 1734.34 1852.59 Q1731.23 1855.78 1725.59 1861.55 Z" fill="#000000" fill-rule="evenodd" fill-opacity="1" /><path clip-path="url(#clip950)" d="M2471.38 1846.85 Q2474.73 1847.57 2476.61 1849.84 Q2478.51 1852.1 2478.51 1855.44 Q2478.51 1860.55 2474.99 1863.35 Q2471.47 1866.15 2464.99 1866.15 Q2462.81 1866.15 2460.5 1865.71 Q2458.21 1865.3 2455.75 1864.44 L2455.75 1859.93 Q2457.7 1861.06 2460.01 1861.64 Q2462.33 1862.22 2464.85 1862.22 Q2469.25 1862.22 2471.54 1860.48 Q2473.86 1858.75 2473.86 1855.44 Q2473.86 1852.38 2471.7 1850.67 Q2469.57 1848.93 2465.75 1848.93 L2461.73 1848.93 L2461.73 1845.09 L2465.94 1845.09 Q2469.39 1845.09 2471.22 1843.72 Q2473.05 1842.34 2473.05 1839.74 Q2473.05 1837.08 2471.15 1835.67 Q2469.27 1834.23 2465.75 1834.23 Q2463.83 1834.23 2461.63 1834.65 Q2459.43 1835.07 2456.8 1835.95 L2456.8 1831.78 Q2459.46 1831.04 2461.77 1830.67 Q2464.11 1830.3 2466.17 1830.3 Q2471.49 1830.3 2474.6 1832.73 Q2477.7 1835.14 2477.7 1839.26 Q2477.7 1842.13 2476.05 1844.12 Q2474.41 1846.09 2471.38 1846.85 Z" fill="#000000" fill-rule="evenodd" fill-opacity="1" /><polyline clip-path="url(#clip952)" style="stroke:#000000; stroke-linecap:butt; stroke-linejoin:round; stroke-width:2; stroke-opacity:0.1; fill:none" points="
  189.154,1753.43 2640.76,1753.43 
  "/>
<polyline clip-path="url(#clip952)" style="stroke:#000000; stroke-linecap:butt; stroke-linejoin:round; stroke-width:2; stroke-opacity:0.1; fill:none" points="
  189.154,1358.86 2640.76,1358.86 
  "/>
<polyline clip-path="url(#clip952)" style="stroke:#000000; stroke-linecap:butt; stroke-linejoin:round; stroke-width:2; stroke-opacity:0.1; fill:none" points="
  189.154,964.286 2640.76,964.286 
  "/>
<polyline clip-path="url(#clip952)" style="stroke:#000000; stroke-linecap:butt; stroke-linejoin:round; stroke-width:2; stroke-opacity:0.1; fill:none" points="
  189.154,569.713 2640.76,569.713 
  "/>
<polyline clip-path="url(#clip952)" style="stroke:#000000; stroke-linecap:butt; stroke-linejoin:round; stroke-width:2; stroke-opacity:0.1; fill:none" points="
  189.154,175.141 2640.76,175.141 
  "/>
<polyline clip-path="url(#clip950)" style="stroke:#000000; stroke-linecap:butt; stroke-linejoin:round; stroke-width:4; stroke-opacity:1; fill:none" points="
  189.154,1800.78 189.154,127.792 
  "/>
<polyline clip-path="url(#clip950)" style="stroke:#000000; stroke-linecap:butt; stroke-linejoin:round; stroke-width:4; stroke-opacity:1; fill:none" points="
  189.154,1753.43 208.052,1753.43 
  "/>
<polyline clip-path="url(#clip950)" style="stroke:#000000; stroke-linecap:butt; stroke-linejoin:round; stroke-width:4; stroke-opacity:1; fill:none" points="
  189.154,1358.86 208.052,1358.86 
  "/>
<polyline clip-path="url(#clip950)" style="stroke:#000000; stroke-linecap:butt; stroke-linejoin:round; stroke-width:4; stroke-opacity:1; fill:none" points="
  189.154,964.286 208.052,964.286 
  "/>
<polyline clip-path="url(#clip950)" style="stroke:#000000; stroke-linecap:butt; stroke-linejoin:round; stroke-width:4; stroke-opacity:1; fill:none" points="
  189.154,569.713 208.052,569.713 
  "/>
<polyline clip-path="url(#clip950)" style="stroke:#000000; stroke-linecap:butt; stroke-linejoin:round; stroke-width:4; stroke-opacity:1; fill:none" points="
  189.154,175.141 208.052,175.141 
  "/>
<path clip-path="url(#clip950)" d="M61.4965 1739.23 Q57.8854 1739.23 56.0567 1742.79 Q54.2512 1746.34 54.2512 1753.47 Q54.2512 1760.57 56.0567 1764.14 Q57.8854 1767.68 61.4965 1767.68 Q65.1307 1767.68 66.9363 1764.14 Q68.765 1760.57 68.765 1753.47 Q68.765 1746.34 66.9363 1742.79 Q65.1307 1739.23 61.4965 1739.23 M61.4965 1735.53 Q67.3067 1735.53 70.3622 1740.13 Q73.4409 1744.72 73.4409 1753.47 Q73.4409 1762.19 70.3622 1766.8 Q67.3067 1771.38 61.4965 1771.38 Q55.6864 1771.38 52.6077 1766.8 Q49.5521 1762.19 49.5521 1753.47 Q49.5521 1744.72 52.6077 1740.13 Q55.6864 1735.53 61.4965 1735.53 Z" fill="#000000" fill-rule="evenodd" fill-opacity="1" /><path clip-path="url(#clip950)" d="M81.6584 1764.83 L86.5427 1764.83 L86.5427 1770.71 L81.6584 1770.71 L81.6584 1764.83 Z" fill="#000000" fill-rule="evenodd" fill-opacity="1" /><path clip-path="url(#clip950)" d="M106.728 1739.23 Q103.117 1739.23 101.288 1742.79 Q99.4824 1746.34 99.4824 1753.47 Q99.4824 1760.57 101.288 1764.14 Q103.117 1767.68 106.728 1767.68 Q110.362 1767.68 112.168 1764.14 Q113.996 1760.57 113.996 1753.47 Q113.996 1746.34 112.168 1742.79 Q110.362 1739.23 106.728 1739.23 M106.728 1735.53 Q112.538 1735.53 115.593 1740.13 Q118.672 1744.72 118.672 1753.47 Q118.672 1762.19 115.593 1766.8 Q112.538 1771.38 106.728 1771.38 Q100.918 1771.38 97.8389 1766.8 Q94.7834 1762.19 94.7834 1753.47 Q94.7834 1744.72 97.8389 1740.13 Q100.918 1735.53 106.728 1735.53 Z" fill="#000000" fill-rule="evenodd" fill-opacity="1" /><path clip-path="url(#clip950)" d="M136.89 1739.23 Q133.279 1739.23 131.45 1742.79 Q129.644 1746.34 129.644 1753.47 Q129.644 1760.57 131.45 1764.14 Q133.279 1767.68 136.89 1767.68 Q140.524 1767.68 142.329 1764.14 Q144.158 1760.57 144.158 1753.47 Q144.158 1746.34 142.329 1742.79 Q140.524 1739.23 136.89 1739.23 M136.89 1735.53 Q142.7 1735.53 145.755 1740.13 Q148.834 1744.72 148.834 1753.47 Q148.834 1762.19 145.755 1766.8 Q142.7 1771.38 136.89 1771.38 Q131.079 1771.38 128.001 1766.8 Q124.945 1762.19 124.945 1753.47 Q124.945 1744.72 128.001 1740.13 Q131.079 1735.53 136.89 1735.53 Z" fill="#000000" fill-rule="evenodd" fill-opacity="1" /><path clip-path="url(#clip950)" d="M62.4919 1344.66 Q58.8808 1344.66 57.0521 1348.22 Q55.2465 1351.76 55.2465 1358.89 Q55.2465 1366 57.0521 1369.56 Q58.8808 1373.11 62.4919 1373.11 Q66.1261 1373.11 67.9317 1369.56 Q69.7604 1366 69.7604 1358.89 Q69.7604 1351.76 67.9317 1348.22 Q66.1261 1344.66 62.4919 1344.66 M62.4919 1340.95 Q68.302 1340.95 71.3576 1345.56 Q74.4363 1350.14 74.4363 1358.89 Q74.4363 1367.62 71.3576 1372.23 Q68.302 1376.81 62.4919 1376.81 Q56.6817 1376.81 53.603 1372.23 Q50.5475 1367.62 50.5475 1358.89 Q50.5475 1350.14 53.603 1345.56 Q56.6817 1340.95 62.4919 1340.95 Z" fill="#000000" fill-rule="evenodd" fill-opacity="1" /><path clip-path="url(#clip950)" d="M82.6538 1370.26 L87.538 1370.26 L87.538 1376.14 L82.6538 1376.14 L82.6538 1370.26 Z" fill="#000000" fill-rule="evenodd" fill-opacity="1" /><path clip-path="url(#clip950)" d="M101.751 1372.2 L118.07 1372.2 L118.07 1376.14 L96.126 1376.14 L96.126 1372.2 Q98.788 1369.45 103.371 1364.82 Q107.978 1360.17 109.158 1358.82 Q111.404 1356.3 112.283 1354.56 Q113.186 1352.8 113.186 1351.12 Q113.186 1348.36 111.242 1346.62 Q109.32 1344.89 106.218 1344.89 Q104.019 1344.89 101.566 1345.65 Q99.1352 1346.42 96.3574 1347.97 L96.3574 1343.24 Q99.1815 1342.11 101.635 1341.53 Q104.089 1340.95 106.126 1340.95 Q111.496 1340.95 114.691 1343.64 Q117.885 1346.32 117.885 1350.81 Q117.885 1352.94 117.075 1354.87 Q116.288 1356.76 114.181 1359.36 Q113.603 1360.03 110.501 1363.24 Q107.399 1366.44 101.751 1372.2 Z" fill="#000000" fill-rule="evenodd" fill-opacity="1" /><path clip-path="url(#clip950)" d="M127.931 1341.58 L146.288 1341.58 L146.288 1345.51 L132.214 1345.51 L132.214 1353.99 Q133.232 1353.64 134.251 1353.48 Q135.269 1353.29 136.288 1353.29 Q142.075 1353.29 145.454 1356.46 Q148.834 1359.63 148.834 1365.05 Q148.834 1370.63 145.362 1373.73 Q141.89 1376.81 135.57 1376.81 Q133.394 1376.81 131.126 1376.44 Q128.88 1376.07 126.473 1375.33 L126.473 1370.63 Q128.556 1371.76 130.779 1372.32 Q133.001 1372.87 135.478 1372.87 Q139.482 1372.87 141.82 1370.77 Q144.158 1368.66 144.158 1365.05 Q144.158 1361.44 141.82 1359.33 Q139.482 1357.23 135.478 1357.23 Q133.603 1357.23 131.728 1357.64 Q129.876 1358.06 127.931 1358.94 L127.931 1341.58 Z" fill="#000000" fill-rule="evenodd" fill-opacity="1" /><path clip-path="url(#clip950)" d="M61.4965 950.084 Q57.8854 950.084 56.0567 953.649 Q54.2512 957.191 54.2512 964.32 Q54.2512 971.427 56.0567 974.992 Q57.8854 978.533 61.4965 978.533 Q65.1307 978.533 66.9363 974.992 Q68.765 971.427 68.765 964.32 Q68.765 957.191 66.9363 953.649 Q65.1307 950.084 61.4965 950.084 M61.4965 946.381 Q67.3067 946.381 70.3622 950.987 Q73.4409 955.57 73.4409 964.32 Q73.4409 973.047 70.3622 977.654 Q67.3067 982.237 61.4965 982.237 Q55.6864 982.237 52.6077 977.654 Q49.5521 973.047 49.5521 964.32 Q49.5521 955.57 52.6077 950.987 Q55.6864 946.381 61.4965 946.381 Z" fill="#000000" fill-rule="evenodd" fill-opacity="1" /><path clip-path="url(#clip950)" d="M81.6584 975.686 L86.5427 975.686 L86.5427 981.566 L81.6584 981.566 L81.6584 975.686 Z" fill="#000000" fill-rule="evenodd" fill-opacity="1" /><path clip-path="url(#clip950)" d="M96.7741 947.006 L115.13 947.006 L115.13 950.941 L101.056 950.941 L101.056 959.413 Q102.075 959.066 103.094 958.904 Q104.112 958.719 105.131 958.719 Q110.918 958.719 114.297 961.89 Q117.677 965.061 117.677 970.478 Q117.677 976.056 114.205 979.158 Q110.732 982.237 104.413 982.237 Q102.237 982.237 99.9685 981.867 Q97.7232 981.496 95.3158 980.756 L95.3158 976.056 Q97.3991 977.191 99.6213 977.746 Q101.844 978.302 104.32 978.302 Q108.325 978.302 110.663 976.195 Q113.001 974.089 113.001 970.478 Q113.001 966.867 110.663 964.76 Q108.325 962.654 104.32 962.654 Q102.445 962.654 100.57 963.07 Q98.7185 963.487 96.7741 964.367 L96.7741 947.006 Z" fill="#000000" fill-rule="evenodd" fill-opacity="1" /><path clip-path="url(#clip950)" d="M136.89 950.084 Q133.279 950.084 131.45 953.649 Q129.644 957.191 129.644 964.32 Q129.644 971.427 131.45 974.992 Q133.279 978.533 136.89 978.533 Q140.524 978.533 142.329 974.992 Q144.158 971.427 144.158 964.32 Q144.158 957.191 142.329 953.649 Q140.524 950.084 136.89 950.084 M136.89 946.381 Q142.7 946.381 145.755 950.987 Q148.834 955.57 148.834 964.32 Q148.834 973.047 145.755 977.654 Q142.7 982.237 136.89 982.237 Q131.079 982.237 128.001 977.654 Q124.945 973.047 124.945 964.32 Q124.945 955.57 128.001 950.987 Q131.079 946.381 136.89 946.381 Z" fill="#000000" fill-rule="evenodd" fill-opacity="1" /><path clip-path="url(#clip950)" d="M62.4919 555.512 Q58.8808 555.512 57.0521 559.077 Q55.2465 562.618 55.2465 569.748 Q55.2465 576.854 57.0521 580.419 Q58.8808 583.961 62.4919 583.961 Q66.1261 583.961 67.9317 580.419 Q69.7604 576.854 69.7604 569.748 Q69.7604 562.618 67.9317 559.077 Q66.1261 555.512 62.4919 555.512 M62.4919 551.808 Q68.302 551.808 71.3576 556.415 Q74.4363 560.998 74.4363 569.748 Q74.4363 578.475 71.3576 583.081 Q68.302 587.665 62.4919 587.665 Q56.6817 587.665 53.603 583.081 Q50.5475 578.475 50.5475 569.748 Q50.5475 560.998 53.603 556.415 Q56.6817 551.808 62.4919 551.808 Z" fill="#000000" fill-rule="evenodd" fill-opacity="1" /><path clip-path="url(#clip950)" d="M82.6538 581.114 L87.538 581.114 L87.538 586.993 L82.6538 586.993 L82.6538 581.114 Z" fill="#000000" fill-rule="evenodd" fill-opacity="1" /><path clip-path="url(#clip950)" d="M96.5426 552.433 L118.765 552.433 L118.765 554.424 L106.218 586.993 L101.334 586.993 L113.14 556.368 L96.5426 556.368 L96.5426 552.433 Z" fill="#000000" fill-rule="evenodd" fill-opacity="1" /><path clip-path="url(#clip950)" d="M127.931 552.433 L146.288 552.433 L146.288 556.368 L132.214 556.368 L132.214 564.841 Q133.232 564.493 134.251 564.331 Q135.269 564.146 136.288 564.146 Q142.075 564.146 145.454 567.317 Q148.834 570.489 148.834 575.905 Q148.834 581.484 145.362 584.586 Q141.89 587.665 135.57 587.665 Q133.394 587.665 131.126 587.294 Q128.88 586.924 126.473 586.183 L126.473 581.484 Q128.556 582.618 130.779 583.174 Q133.001 583.729 135.478 583.729 Q139.482 583.729 141.82 581.623 Q144.158 579.516 144.158 575.905 Q144.158 572.294 141.82 570.188 Q139.482 568.081 135.478 568.081 Q133.603 568.081 131.728 568.498 Q129.876 568.915 127.931 569.794 L127.931 552.433 Z" fill="#000000" fill-rule="evenodd" fill-opacity="1" /><path clip-path="url(#clip950)" d="M52.3067 188.486 L59.9456 188.486 L59.9456 162.12 L51.6354 163.787 L51.6354 159.527 L59.8993 157.861 L64.5752 157.861 L64.5752 188.486 L72.214 188.486 L72.214 192.421 L52.3067 192.421 L52.3067 188.486 Z" fill="#000000" fill-rule="evenodd" fill-opacity="1" /><path clip-path="url(#clip950)" d="M81.6584 186.541 L86.5427 186.541 L86.5427 192.421 L81.6584 192.421 L81.6584 186.541 Z" fill="#000000" fill-rule="evenodd" fill-opacity="1" /><path clip-path="url(#clip950)" d="M106.728 160.94 Q103.117 160.94 101.288 164.504 Q99.4824 168.046 99.4824 175.176 Q99.4824 182.282 101.288 185.847 Q103.117 189.388 106.728 189.388 Q110.362 189.388 112.168 185.847 Q113.996 182.282 113.996 175.176 Q113.996 168.046 112.168 164.504 Q110.362 160.94 106.728 160.94 M106.728 157.236 Q112.538 157.236 115.593 161.842 Q118.672 166.426 118.672 175.176 Q118.672 183.902 115.593 188.509 Q112.538 193.092 106.728 193.092 Q100.918 193.092 97.8389 188.509 Q94.7834 183.902 94.7834 175.176 Q94.7834 166.426 97.8389 161.842 Q100.918 157.236 106.728 157.236 Z" fill="#000000" fill-rule="evenodd" fill-opacity="1" /><path clip-path="url(#clip950)" d="M136.89 160.94 Q133.279 160.94 131.45 164.504 Q129.644 168.046 129.644 175.176 Q129.644 182.282 131.45 185.847 Q133.279 189.388 136.89 189.388 Q140.524 189.388 142.329 185.847 Q144.158 182.282 144.158 175.176 Q144.158 168.046 142.329 164.504 Q140.524 160.94 136.89 160.94 M136.89 157.236 Q142.7 157.236 145.755 161.842 Q148.834 166.426 148.834 175.176 Q148.834 183.902 145.755 188.509 Q142.7 193.092 136.89 193.092 Q131.079 193.092 128.001 188.509 Q124.945 183.902 124.945 175.176 Q124.945 166.426 128.001 161.842 Q131.079 157.236 136.89 157.236 Z" fill="#000000" fill-rule="evenodd" fill-opacity="1" /><path clip-path="url(#clip950)" d="M1101.7 12.096 L1139.94 12.096 L1139.94 18.9825 L1109.88 18.9825 L1109.88 36.8875 L1138.68 36.8875 L1138.68 43.7741 L1109.88 43.7741 L1109.88 65.6895 L1140.67 65.6895 L1140.67 72.576 L1101.7 72.576 L1101.7 12.096 Z" fill="#000000" fill-rule="evenodd" fill-opacity="1" /><path clip-path="url(#clip950)" d="M1180.08 34.1734 Q1178.83 33.4443 1177.33 33.1202 Q1175.87 32.7556 1174.09 32.7556 Q1167.77 32.7556 1164.37 36.8875 Q1161 40.9789 1161 48.6757 L1161 72.576 L1153.51 72.576 L1153.51 27.2059 L1161 27.2059 L1161 34.2544 Q1163.35 30.1225 1167.12 28.1376 Q1170.89 26.1121 1176.28 26.1121 Q1177.05 26.1121 1177.98 26.2337 Q1178.91 26.3147 1180.04 26.5172 L1180.08 34.1734 Z" fill="#000000" fill-rule="evenodd" fill-opacity="1" /><path clip-path="url(#clip950)" d="M1212.73 34.1734 Q1211.48 33.4443 1209.98 33.1202 Q1208.52 32.7556 1206.74 32.7556 Q1200.42 32.7556 1197.02 36.8875 Q1193.65 40.9789 1193.65 48.6757 L1193.65 72.576 L1186.16 72.576 L1186.16 27.2059 L1193.65 27.2059 L1193.65 34.2544 Q1196 30.1225 1199.77 28.1376 Q1203.54 26.1121 1208.93 26.1121 Q1209.7 26.1121 1210.63 26.2337 Q1211.56 26.3147 1212.69 26.5172 L1212.73 34.1734 Z" fill="#000000" fill-rule="evenodd" fill-opacity="1" /><path clip-path="url(#clip950)" d="M1236.31 32.4315 Q1230.31 32.4315 1226.83 37.1306 Q1223.35 41.7891 1223.35 49.9314 Q1223.35 58.0738 1226.79 62.7728 Q1230.27 67.4314 1236.31 67.4314 Q1242.26 67.4314 1245.75 62.7323 Q1249.23 58.0333 1249.23 49.9314 Q1249.23 41.8701 1245.75 37.1711 Q1242.26 32.4315 1236.31 32.4315 M1236.31 26.1121 Q1246.03 26.1121 1251.58 32.4315 Q1257.13 38.7509 1257.13 49.9314 Q1257.13 61.0714 1251.58 67.4314 Q1246.03 73.7508 1236.31 73.7508 Q1226.55 73.7508 1221 67.4314 Q1215.49 61.0714 1215.49 49.9314 Q1215.49 38.7509 1221 32.4315 Q1226.55 26.1121 1236.31 26.1121 Z" fill="#000000" fill-rule="evenodd" fill-opacity="1" /><path clip-path="url(#clip950)" d="M1295.78 34.1734 Q1294.52 33.4443 1293.02 33.1202 Q1291.56 32.7556 1289.78 32.7556 Q1283.46 32.7556 1280.06 36.8875 Q1276.7 40.9789 1276.7 48.6757 L1276.7 72.576 L1269.2 72.576 L1269.2 27.2059 L1276.7 27.2059 L1276.7 34.2544 Q1279.05 30.1225 1282.81 28.1376 Q1286.58 26.1121 1291.97 26.1121 Q1292.74 26.1121 1293.67 26.2337 Q1294.6 26.3147 1295.74 26.5172 L1295.78 34.1734 Z" fill="#000000" fill-rule="evenodd" fill-opacity="1" /><path clip-path="url(#clip950)" d="M1382.87 47.3389 L1382.87 54.59 Q1378.62 57.7497 1374.97 59.1675 Q1371.37 60.5448 1367.44 60.5448 Q1362.98 60.5448 1357.07 58.1548 Q1356.66 57.9927 1356.38 57.8712 Q1356.14 57.7902 1355.53 57.5471 Q1349.25 55.0761 1345.44 55.0761 Q1341.88 55.0761 1338.39 56.6154 Q1334.91 58.1548 1330.94 61.5575 L1330.94 54.3064 Q1335.19 51.1467 1338.8 49.7694 Q1342.44 48.3516 1346.37 48.3516 Q1350.83 48.3516 1356.78 50.7416 Q1357.23 50.9442 1357.43 51.0252 Q1357.68 51.1062 1358.28 51.3493 Q1364.56 53.8203 1368.37 53.8203 Q1371.85 53.8203 1375.26 52.3215 Q1378.7 50.7821 1382.87 47.3389 M1382.87 31.5808 L1382.87 38.7915 Q1378.62 41.9917 1374.97 43.4095 Q1371.37 44.7868 1367.44 44.7868 Q1362.98 44.7868 1357.07 42.3968 Q1356.66 42.2347 1356.38 42.1132 Q1356.14 42.0322 1355.53 41.7891 Q1349.25 39.3181 1345.44 39.3181 Q1341.88 39.3181 1338.39 40.8574 Q1334.91 42.3968 1330.94 45.759 L1330.94 38.5484 Q1335.19 35.3887 1338.8 34.0114 Q1342.44 32.5936 1346.37 32.5936 Q1350.83 32.5936 1356.78 34.9836 Q1357.19 35.1456 1357.39 35.2267 Q1357.68 35.3482 1358.28 35.5912 Q1364.56 38.0623 1368.37 38.0623 Q1371.85 38.0623 1375.26 36.5635 Q1378.7 35.0241 1382.87 31.5808 Z" fill="#000000" fill-rule="evenodd" fill-opacity="1" /><path clip-path="url(#clip950)" d="M1428.32 65.6895 L1441.69 65.6895 L1441.69 19.5497 L1427.15 22.4663 L1427.15 15.0127 L1441.61 12.096 L1449.79 12.096 L1449.79 65.6895 L1463.16 65.6895 L1463.16 72.576 L1428.32 72.576 L1428.32 65.6895 Z" fill="#000000" fill-rule="evenodd" fill-opacity="1" /><path clip-path="url(#clip950)" d="M1479.69 62.2867 L1488.24 62.2867 L1488.24 72.576 L1479.69 72.576 L1479.69 62.2867 Z" fill="#000000" fill-rule="evenodd" fill-opacity="1" /><path clip-path="url(#clip950)" d="M1523.56 43.8551 Q1517.73 43.8551 1514.36 46.9743 Q1511.04 50.0935 1511.04 55.5622 Q1511.04 61.0309 1514.36 64.1501 Q1517.73 67.2693 1523.56 67.2693 Q1529.39 67.2693 1532.76 64.1501 Q1536.12 60.9904 1536.12 55.5622 Q1536.12 50.0935 1532.76 46.9743 Q1529.43 43.8551 1523.56 43.8551 M1515.38 40.3713 Q1510.11 39.075 1507.15 35.4697 Q1504.24 31.8644 1504.24 26.6793 Q1504.24 19.4281 1509.38 15.2152 Q1514.57 11.0023 1523.56 11.0023 Q1532.59 11.0023 1537.74 15.2152 Q1542.88 19.4281 1542.88 26.6793 Q1542.88 31.8644 1539.93 35.4697 Q1537.01 39.075 1531.78 40.3713 Q1537.7 41.7486 1540.98 45.759 Q1544.3 49.7694 1544.3 55.5622 Q1544.3 64.3527 1538.91 69.0517 Q1533.57 73.7508 1523.56 73.7508 Q1513.55 73.7508 1508.17 69.0517 Q1502.82 64.3527 1502.82 55.5622 Q1502.82 49.7694 1506.14 45.759 Q1509.46 41.7486 1515.38 40.3713 M1512.38 27.4489 Q1512.38 32.148 1515.3 34.7811 Q1518.25 37.4142 1523.56 37.4142 Q1528.83 37.4142 1531.78 34.7811 Q1534.78 32.148 1534.78 27.4489 Q1534.78 22.7499 1531.78 20.1168 Q1528.83 17.4837 1523.56 17.4837 Q1518.25 17.4837 1515.3 20.1168 Q1512.38 22.7499 1512.38 27.4489 Z" fill="#000000" fill-rule="evenodd" fill-opacity="1" /><path clip-path="url(#clip950)" d="M1596.6 48.0275 L1596.6 51.6733 L1562.33 51.6733 Q1562.81 59.3701 1566.94 63.421 Q1571.12 67.4314 1578.53 67.4314 Q1582.82 67.4314 1586.83 66.3781 Q1590.89 65.3249 1594.86 63.2184 L1594.86 70.267 Q1590.85 71.9684 1586.63 72.8596 Q1582.42 73.7508 1578.08 73.7508 Q1567.23 73.7508 1560.87 67.4314 Q1554.55 61.1119 1554.55 50.3365 Q1554.55 39.1965 1560.54 32.6746 Q1566.58 26.1121 1576.79 26.1121 Q1585.94 26.1121 1591.25 32.0264 Q1596.6 37.9003 1596.6 48.0275 M1589.14 45.84 Q1589.06 39.7232 1585.7 36.0774 Q1582.38 32.4315 1576.87 32.4315 Q1570.63 32.4315 1566.86 35.9558 Q1563.14 39.4801 1562.57 45.8805 L1589.14 45.84 Z" fill="#000000" fill-rule="evenodd" fill-opacity="1" /><path clip-path="url(#clip950)" d="M1605.06 46.5287 L1626.9 46.5287 L1626.9 53.1722 L1605.06 53.1722 L1605.06 46.5287 Z" fill="#000000" fill-rule="evenodd" fill-opacity="1" /><path clip-path="url(#clip950)" d="M1641.24 65.6895 L1654.61 65.6895 L1654.61 19.5497 L1640.06 22.4663 L1640.06 15.0127 L1654.53 12.096 L1662.71 12.096 L1662.71 65.6895 L1676.08 65.6895 L1676.08 72.576 L1641.24 72.576 L1641.24 65.6895 Z" fill="#000000" fill-rule="evenodd" fill-opacity="1" /><path clip-path="url(#clip950)" d="M1699.65 65.6895 L1728.21 65.6895 L1728.21 72.576 L1689.81 72.576 L1689.81 65.6895 Q1694.47 60.8689 1702.49 52.7671 Q1710.55 44.6248 1712.62 42.2752 Q1716.54 37.8598 1718.08 34.8216 Q1719.66 31.7429 1719.66 28.7857 Q1719.66 23.9651 1716.26 20.927 Q1712.9 17.8888 1707.47 17.8888 Q1703.62 17.8888 1699.33 19.2256 Q1695.07 20.5624 1690.21 23.2765 L1690.21 15.0127 Q1695.16 13.0277 1699.45 12.015 Q1703.74 11.0023 1707.31 11.0023 Q1716.71 11.0023 1722.3 15.7013 Q1727.89 20.4004 1727.89 28.2591 Q1727.89 31.9859 1726.47 35.3482 Q1725.09 38.6699 1721.41 43.2069 Q1720.39 44.3817 1714.96 50.0125 Q1709.54 55.6027 1699.65 65.6895 Z" fill="#000000" fill-rule="evenodd" fill-opacity="1" /><polyline clip-path="url(#clip952)" style="stroke:#009af9; stroke-linecap:butt; stroke-linejoin:round; stroke-width:4; stroke-opacity:1; fill:none" points="
  258.539,1753.43 266.068,1737.29 273.597,1721.15 343.212,1572.3 412.828,1425.08 454.664,1337.93 496.5,1252.12 531.872,1180.82 567.244,1110.84 605.667,1036.51 
  644.091,964.137 679.514,899.312 714.938,836.465 752.915,771.447 790.893,709.042 834.893,640.225 878.894,575.383 898.445,547.908 917.997,521.283 937.548,495.527 
  957.099,470.658 991.389,429.237 1025.68,390.688 1063.06,352.031 1100.45,316.986 1138.05,285.47 1175.66,257.783 1196.45,244.148 1217.24,231.717 1238.03,220.499 
  1258.82,210.503 1278.6,202.135 1298.38,194.886 1318.16,188.762 1337.94,183.768 1358.51,179.777 1379.08,177.015 1399.65,175.482 1420.21,175.181 1454.84,177.456 
  1489.47,183.218 1510.6,188.443 1531.74,194.958 1552.88,202.758 1574.02,211.836 1612.74,231.759 1651.47,255.892 1687.24,281.863 1723.01,311.306 1759.24,344.601 
  1795.47,381.307 1836.07,426.388 1876.68,475.505 1913.47,523.374 1950.27,574.315 1992.39,636.247 2034.52,701.836 2073.53,765.64 2112.53,832.216 2150.99,900.385 
  2189.45,970.88 2226.78,1041.37 2264.12,1113.69 2302.4,1189.53 2340.67,1266.9 2382.61,1353.17 2424.54,1440.73 2485.46,1569.67 2546.38,1699.86 2558.87,1726.64 
  2571.37,1753.43 
  "/>
<circle clip-path="url(#clip952)" cx="317.391" cy="1627.39" r="14.4" fill="#e26f46" fill-rule="evenodd" fill-opacity="1" stroke="#000000" stroke-opacity="1" stroke-width="3.84"/>
<circle clip-path="url(#clip952)" cx="2512.52" cy="1627.39" r="14.4" fill="#e26f46" fill-rule="evenodd" fill-opacity="1" stroke="#000000" stroke-opacity="1" stroke-width="3.84"/>
<circle clip-path="url(#clip952)" cx="268.42" cy="1732.25" r="14.4" fill="#e26f46" fill-rule="evenodd" fill-opacity="1" stroke="#000000" stroke-opacity="1" stroke-width="3.84"/>
<circle clip-path="url(#clip952)" cx="2561.49" cy="1732.25" r="14.4" fill="#e26f46" fill-rule="evenodd" fill-opacity="1" stroke="#000000" stroke-opacity="1" stroke-width="3.84"/>
<circle clip-path="url(#clip952)" cx="557.436" cy="1130.1" r="14.4" fill="#e26f46" fill-rule="evenodd" fill-opacity="1" stroke="#000000" stroke-opacity="1" stroke-width="3.84"/>
<circle clip-path="url(#clip952)" cx="2272.47" cy="1130.1" r="14.4" fill="#e26f46" fill-rule="evenodd" fill-opacity="1" stroke="#000000" stroke-opacity="1" stroke-width="3.84"/>
<circle clip-path="url(#clip952)" cx="414.812" cy="1420.92" r="14.4" fill="#e26f46" fill-rule="evenodd" fill-opacity="1" stroke="#000000" stroke-opacity="1" stroke-width="3.84"/>
<circle clip-path="url(#clip952)" cx="2415.1" cy="1420.92" r="14.4" fill="#e26f46" fill-rule="evenodd" fill-opacity="1" stroke="#000000" stroke-opacity="1" stroke-width="3.84"/>
<circle clip-path="url(#clip952)" cx="945.629" cy="485.139" r="14.4" fill="#e26f46" fill-rule="evenodd" fill-opacity="1" stroke="#000000" stroke-opacity="1" stroke-width="3.84"/>
<circle clip-path="url(#clip952)" cx="1884.28" cy="485.139" r="14.4" fill="#e26f46" fill-rule="evenodd" fill-opacity="1" stroke="#000000" stroke-opacity="1" stroke-width="3.84"/>
<circle clip-path="url(#clip952)" cx="737.194" cy="798.054" r="14.4" fill="#e26f46" fill-rule="evenodd" fill-opacity="1" stroke="#000000" stroke-opacity="1" stroke-width="3.84"/>
<circle clip-path="url(#clip952)" cx="2092.72" cy="798.054" r="14.4" fill="#e26f46" fill-rule="evenodd" fill-opacity="1" stroke="#000000" stroke-opacity="1" stroke-width="3.84"/>
<circle clip-path="url(#clip952)" cx="1414.95" cy="175.141" r="14.4" fill="#e26f46" fill-rule="evenodd" fill-opacity="1" stroke="#000000" stroke-opacity="1" stroke-width="3.84"/>
<circle clip-path="url(#clip952)" cx="1174.67" cy="258.464" r="14.4" fill="#e26f46" fill-rule="evenodd" fill-opacity="1" stroke="#000000" stroke-opacity="1" stroke-width="3.84"/>
<circle clip-path="url(#clip952)" cx="1655.24" cy="258.464" r="14.4" fill="#e26f46" fill-rule="evenodd" fill-opacity="1" stroke="#000000" stroke-opacity="1" stroke-width="3.84"/>
</svg>
