<?xml version="1.0" encoding="utf-8"?>
<svg xmlns="http://www.w3.org/2000/svg" xmlns:xlink="http://www.w3.org/1999/xlink" width="672" height="480" viewBox="0 0 2688 1920">
<defs>
  <clipPath id="clip510">
    <rect x="0" y="0" width="2688" height="1920"/>
  </clipPath>
</defs>
<path clip-path="url(#clip510)" d="
M0 1920 L2688 1920 L2688 0 L0 0  Z
  " fill="#ffffff" fill-rule="evenodd" fill-opacity="1"/>
<defs>
  <clipPath id="clip511">
    <rect x="537" y="0" width="1883" height="1883"/>
  </clipPath>
</defs>
<path clip-path="url(#clip510)" d="
M158.992 1800.78 L2640.76 1800.78 L2640.76 47.2441 L158.992 47.2441  Z
  " fill="#ffffff" fill-rule="evenodd" fill-opacity="1"/>
<defs>
  <clipPath id="clip512">
    <rect x="158" y="47" width="2483" height="1755"/>
  </clipPath>
</defs>
<polyline clip-path="url(#clip512)" style="stroke:#000000; stroke-linecap:round; stroke-linejoin:round; stroke-width:2; stroke-opacity:0.1; fill:none" points="
  229.231,1800.78 229.231,47.2441 
  "/>
<polyline clip-path="url(#clip512)" style="stroke:#000000; stroke-linecap:round; stroke-linejoin:round; stroke-width:2; stroke-opacity:0.1; fill:none" points="
  619.445,1800.78 619.445,47.2441 
  "/>
<polyline clip-path="url(#clip512)" style="stroke:#000000; stroke-linecap:round; stroke-linejoin:round; stroke-width:2; stroke-opacity:0.1; fill:none" points="
  1009.66,1800.78 1009.66,47.2441 
  "/>
<polyline clip-path="url(#clip512)" style="stroke:#000000; stroke-linecap:round; stroke-linejoin:round; stroke-width:2; stroke-opacity:0.1; fill:none" points="
  1399.87,1800.78 1399.87,47.2441 
  "/>
<polyline clip-path="url(#clip512)" style="stroke:#000000; stroke-linecap:round; stroke-linejoin:round; stroke-width:2; stroke-opacity:0.1; fill:none" points="
  1790.09,1800.78 1790.09,47.2441 
  "/>
<polyline clip-path="url(#clip512)" style="stroke:#000000; stroke-linecap:round; stroke-linejoin:round; stroke-width:2; stroke-opacity:0.1; fill:none" points="
  2180.3,1800.78 2180.3,47.2441 
  "/>
<polyline clip-path="url(#clip512)" style="stroke:#000000; stroke-linecap:round; stroke-linejoin:round; stroke-width:2; stroke-opacity:0.1; fill:none" points="
  2570.52,1800.78 2570.52,47.2441 
  "/>
<polyline clip-path="url(#clip510)" style="stroke:#000000; stroke-linecap:round; stroke-linejoin:round; stroke-width:4; stroke-opacity:1; fill:none" points="
  158.992,1800.78 2640.76,1800.78 
  "/>
<polyline clip-path="url(#clip510)" style="stroke:#000000; stroke-linecap:round; stroke-linejoin:round; stroke-width:4; stroke-opacity:1; fill:none" points="
  229.231,1800.78 229.231,1781.88 
  "/>
<polyline clip-path="url(#clip510)" style="stroke:#000000; stroke-linecap:round; stroke-linejoin:round; stroke-width:4; stroke-opacity:1; fill:none" points="
  619.445,1800.78 619.445,1781.88 
  "/>
<polyline clip-path="url(#clip510)" style="stroke:#000000; stroke-linecap:round; stroke-linejoin:round; stroke-width:4; stroke-opacity:1; fill:none" points="
  1009.66,1800.78 1009.66,1781.88 
  "/>
<polyline clip-path="url(#clip510)" style="stroke:#000000; stroke-linecap:round; stroke-linejoin:round; stroke-width:4; stroke-opacity:1; fill:none" points="
  1399.87,1800.78 1399.87,1781.88 
  "/>
<polyline clip-path="url(#clip510)" style="stroke:#000000; stroke-linecap:round; stroke-linejoin:round; stroke-width:4; stroke-opacity:1; fill:none" points="
  1790.09,1800.78 1790.09,1781.88 
  "/>
<polyline clip-path="url(#clip510)" style="stroke:#000000; stroke-linecap:round; stroke-linejoin:round; stroke-width:4; stroke-opacity:1; fill:none" points="
  2180.3,1800.78 2180.3,1781.88 
  "/>
<polyline clip-path="url(#clip510)" style="stroke:#000000; stroke-linecap:round; stroke-linejoin:round; stroke-width:4; stroke-opacity:1; fill:none" points="
  2570.52,1800.78 2570.52,1781.88 
  "/>
<path clip-path="url(#clip510)" d="M198.698 1848.65 L228.374 1848.65 L228.374 1852.59 L198.698 1852.59 L198.698 1848.65 Z" fill="#000000" fill-rule="evenodd" fill-opacity="1" /><path clip-path="url(#clip510)" d="M252.633 1846.85 Q255.99 1847.57 257.865 1849.84 Q259.763 1852.1 259.763 1855.44 Q259.763 1860.55 256.244 1863.35 Q252.726 1866.15 246.245 1866.15 Q244.069 1866.15 241.754 1865.71 Q239.462 1865.3 237.008 1864.44 L237.008 1859.93 Q238.953 1861.06 241.268 1861.64 Q243.582 1862.22 246.106 1862.22 Q250.504 1862.22 252.795 1860.48 Q255.11 1858.75 255.11 1855.44 Q255.11 1852.38 252.957 1850.67 Q250.828 1848.93 247.008 1848.93 L242.981 1848.93 L242.981 1845.09 L247.194 1845.09 Q250.643 1845.09 252.471 1843.72 Q254.3 1842.34 254.3 1839.74 Q254.3 1837.08 252.402 1835.67 Q250.527 1834.23 247.008 1834.23 Q245.087 1834.23 242.888 1834.65 Q240.689 1835.07 238.05 1835.95 L238.05 1831.78 Q240.712 1831.04 243.027 1830.67 Q245.365 1830.3 247.425 1830.3 Q252.749 1830.3 255.851 1832.73 Q258.953 1835.14 258.953 1839.26 Q258.953 1842.13 257.309 1844.12 Q255.666 1846.09 252.633 1846.85 Z" fill="#000000" fill-rule="evenodd" fill-opacity="1" /><path clip-path="url(#clip510)" d="M589.387 1848.65 L619.063 1848.65 L619.063 1852.59 L589.387 1852.59 L589.387 1848.65 Z" fill="#000000" fill-rule="evenodd" fill-opacity="1" /><path clip-path="url(#clip510)" d="M633.184 1861.55 L649.503 1861.55 L649.503 1865.48 L627.559 1865.48 L627.559 1861.55 Q630.221 1858.79 634.804 1854.16 Q639.41 1849.51 640.591 1848.17 Q642.836 1845.65 643.716 1843.91 Q644.619 1842.15 644.619 1840.46 Q644.619 1837.71 642.674 1835.97 Q640.753 1834.23 637.651 1834.23 Q635.452 1834.23 632.998 1835 Q630.568 1835.76 627.79 1837.31 L627.79 1832.59 Q630.614 1831.46 633.068 1830.88 Q635.521 1830.3 637.558 1830.3 Q642.929 1830.3 646.123 1832.98 Q649.318 1835.67 649.318 1840.16 Q649.318 1842.29 648.507 1844.21 Q647.72 1846.11 645.614 1848.7 Q645.035 1849.37 641.933 1852.59 Q638.832 1855.78 633.184 1861.55 Z" fill="#000000" fill-rule="evenodd" fill-opacity="1" /><path clip-path="url(#clip510)" d="M979.417 1848.65 L1009.09 1848.65 L1009.09 1852.59 L979.417 1852.59 L979.417 1848.65 Z" fill="#000000" fill-rule="evenodd" fill-opacity="1" /><path clip-path="url(#clip510)" d="M1020 1861.55 L1027.63 1861.55 L1027.63 1835.18 L1019.32 1836.85 L1019.32 1832.59 L1027.59 1830.92 L1032.26 1830.92 L1032.26 1861.55 L1039.9 1861.55 L1039.9 1865.48 L1020 1865.48 L1020 1861.55 Z" fill="#000000" fill-rule="evenodd" fill-opacity="1" /><path clip-path="url(#clip510)" d="M1399.87 1834 Q1396.26 1834 1394.43 1837.57 Q1392.63 1841.11 1392.63 1848.24 Q1392.63 1855.34 1394.43 1858.91 Q1396.26 1862.45 1399.87 1862.45 Q1403.51 1862.45 1405.31 1858.91 Q1407.14 1855.34 1407.14 1848.24 Q1407.14 1841.11 1405.31 1837.57 Q1403.51 1834 1399.87 1834 M1399.87 1830.3 Q1405.68 1830.3 1408.74 1834.9 Q1411.82 1839.49 1411.82 1848.24 Q1411.82 1856.96 1408.74 1861.57 Q1405.68 1866.15 1399.87 1866.15 Q1394.06 1866.15 1390.99 1861.57 Q1387.93 1856.96 1387.93 1848.24 Q1387.93 1839.49 1390.99 1834.9 Q1394.06 1830.3 1399.87 1830.3 Z" fill="#000000" fill-rule="evenodd" fill-opacity="1" /><path clip-path="url(#clip510)" d="M1780.47 1861.55 L1788.11 1861.55 L1788.11 1835.18 L1779.8 1836.85 L1779.8 1832.59 L1788.06 1830.92 L1792.74 1830.92 L1792.74 1861.55 L1800.38 1861.55 L1800.38 1865.48 L1780.47 1865.48 L1780.47 1861.55 Z" fill="#000000" fill-rule="evenodd" fill-opacity="1" /><path clip-path="url(#clip510)" d="M2174.96 1861.55 L2191.28 1861.55 L2191.28 1865.48 L2169.33 1865.48 L2169.33 1861.55 Q2171.99 1858.79 2176.58 1854.16 Q2181.18 1849.51 2182.36 1848.17 Q2184.61 1845.65 2185.49 1843.91 Q2186.39 1842.15 2186.39 1840.46 Q2186.39 1837.71 2184.45 1835.97 Q2182.53 1834.23 2179.42 1834.23 Q2177.22 1834.23 2174.77 1835 Q2172.34 1835.76 2169.56 1837.31 L2169.56 1832.59 Q2172.39 1831.46 2174.84 1830.88 Q2177.29 1830.3 2179.33 1830.3 Q2184.7 1830.3 2187.9 1832.98 Q2191.09 1835.67 2191.09 1840.16 Q2191.09 1842.29 2190.28 1844.21 Q2189.49 1846.11 2187.39 1848.7 Q2186.81 1849.37 2183.71 1852.59 Q2180.6 1855.78 2174.96 1861.55 Z" fill="#000000" fill-rule="evenodd" fill-opacity="1" /><path clip-path="url(#clip510)" d="M2574.76 1846.85 Q2578.12 1847.57 2580 1849.84 Q2581.89 1852.1 2581.89 1855.44 Q2581.89 1860.55 2578.38 1863.35 Q2574.86 1866.15 2568.38 1866.15 Q2566.2 1866.15 2563.89 1865.71 Q2561.59 1865.3 2559.14 1864.44 L2559.14 1859.93 Q2561.08 1861.06 2563.4 1861.64 Q2565.71 1862.22 2568.24 1862.22 Q2572.64 1862.22 2574.93 1860.48 Q2577.24 1858.75 2577.24 1855.44 Q2577.24 1852.38 2575.09 1850.67 Q2572.96 1848.93 2569.14 1848.93 L2565.11 1848.93 L2565.11 1845.09 L2569.33 1845.09 Q2572.77 1845.09 2574.6 1843.72 Q2576.43 1842.34 2576.43 1839.74 Q2576.43 1837.08 2574.53 1835.67 Q2572.66 1834.23 2569.14 1834.23 Q2567.22 1834.23 2565.02 1834.65 Q2562.82 1835.07 2560.18 1835.95 L2560.18 1831.78 Q2562.84 1831.04 2565.16 1830.67 Q2567.5 1830.3 2569.56 1830.3 Q2574.88 1830.3 2577.98 1832.73 Q2581.08 1835.14 2581.08 1839.26 Q2581.08 1842.13 2579.44 1844.12 Q2577.8 1846.09 2574.76 1846.85 Z" fill="#000000" fill-rule="evenodd" fill-opacity="1" /><polyline clip-path="url(#clip512)" style="stroke:#000000; stroke-linecap:round; stroke-linejoin:round; stroke-width:2; stroke-opacity:0.1; fill:none" points="
  158.992,1704.5 2640.76,1704.5 
  "/>
<polyline clip-path="url(#clip512)" style="stroke:#000000; stroke-linecap:round; stroke-linejoin:round; stroke-width:2; stroke-opacity:0.1; fill:none" points="
  158.992,1314.29 2640.76,1314.29 
  "/>
<polyline clip-path="url(#clip512)" style="stroke:#000000; stroke-linecap:round; stroke-linejoin:round; stroke-width:2; stroke-opacity:0.1; fill:none" points="
  158.992,924.071 2640.76,924.071 
  "/>
<polyline clip-path="url(#clip512)" style="stroke:#000000; stroke-linecap:round; stroke-linejoin:round; stroke-width:2; stroke-opacity:0.1; fill:none" points="
  158.992,533.856 2640.76,533.856 
  "/>
<polyline clip-path="url(#clip512)" style="stroke:#000000; stroke-linecap:round; stroke-linejoin:round; stroke-width:2; stroke-opacity:0.1; fill:none" points="
  158.992,143.642 2640.76,143.642 
  "/>
<polyline clip-path="url(#clip510)" style="stroke:#000000; stroke-linecap:round; stroke-linejoin:round; stroke-width:4; stroke-opacity:1; fill:none" points="
  158.992,1800.78 158.992,47.2441 
  "/>
<polyline clip-path="url(#clip510)" style="stroke:#000000; stroke-linecap:round; stroke-linejoin:round; stroke-width:4; stroke-opacity:1; fill:none" points="
  158.992,1704.5 177.89,1704.5 
  "/>
<polyline clip-path="url(#clip510)" style="stroke:#000000; stroke-linecap:round; stroke-linejoin:round; stroke-width:4; stroke-opacity:1; fill:none" points="
  158.992,1314.29 177.89,1314.29 
  "/>
<polyline clip-path="url(#clip510)" style="stroke:#000000; stroke-linecap:round; stroke-linejoin:round; stroke-width:4; stroke-opacity:1; fill:none" points="
  158.992,924.071 177.89,924.071 
  "/>
<polyline clip-path="url(#clip510)" style="stroke:#000000; stroke-linecap:round; stroke-linejoin:round; stroke-width:4; stroke-opacity:1; fill:none" points="
  158.992,533.856 177.89,533.856 
  "/>
<polyline clip-path="url(#clip510)" style="stroke:#000000; stroke-linecap:round; stroke-linejoin:round; stroke-width:4; stroke-opacity:1; fill:none" points="
  158.992,143.642 177.89,143.642 
  "/>
<path clip-path="url(#clip510)" d="M58.1863 1704.95 L87.8621 1704.95 L87.8621 1708.89 L58.1863 1708.89 L58.1863 1704.95 Z" fill="#000000" fill-rule="evenodd" fill-opacity="1" /><path clip-path="url(#clip510)" d="M98.7648 1717.84 L106.404 1717.84 L106.404 1691.48 L98.0935 1693.15 L98.0935 1688.89 L106.357 1687.22 L111.033 1687.22 L111.033 1717.84 L118.672 1717.84 L118.672 1721.78 L98.7648 1721.78 L98.7648 1717.84 Z" fill="#000000" fill-rule="evenodd" fill-opacity="1" /><path clip-path="url(#clip510)" d="M106.728 1300.08 Q103.117 1300.08 101.288 1303.65 Q99.4824 1307.19 99.4824 1314.32 Q99.4824 1321.43 101.288 1324.99 Q103.117 1328.53 106.728 1328.53 Q110.362 1328.53 112.168 1324.99 Q113.996 1321.43 113.996 1314.32 Q113.996 1307.19 112.168 1303.65 Q110.362 1300.08 106.728 1300.08 M106.728 1296.38 Q112.538 1296.38 115.593 1300.99 Q118.672 1305.57 118.672 1314.32 Q118.672 1323.05 115.593 1327.65 Q112.538 1332.24 106.728 1332.24 Q100.918 1332.24 97.8389 1327.65 Q94.7834 1323.05 94.7834 1314.32 Q94.7834 1305.57 97.8389 1300.99 Q100.918 1296.38 106.728 1296.38 Z" fill="#000000" fill-rule="evenodd" fill-opacity="1" /><path clip-path="url(#clip510)" d="M98.7648 937.416 L106.404 937.416 L106.404 911.05 L98.0935 912.717 L98.0935 908.457 L106.357 906.791 L111.033 906.791 L111.033 937.416 L118.672 937.416 L118.672 941.351 L98.7648 941.351 L98.7648 937.416 Z" fill="#000000" fill-rule="evenodd" fill-opacity="1" /><path clip-path="url(#clip510)" d="M102.353 547.201 L118.672 547.201 L118.672 551.136 L96.7278 551.136 L96.7278 547.201 Q99.3898 544.447 103.973 539.817 Q108.58 535.164 109.76 533.822 Q112.005 531.298 112.885 529.562 Q113.788 527.803 113.788 526.113 Q113.788 523.359 111.843 521.623 Q109.922 519.886 106.82 519.886 Q104.621 519.886 102.168 520.65 Q99.737 521.414 96.9593 522.965 L96.9593 518.243 Q99.7833 517.109 102.237 516.53 Q104.691 515.951 106.728 515.951 Q112.098 515.951 115.293 518.637 Q118.487 521.322 118.487 525.812 Q118.487 527.942 117.677 529.863 Q116.89 531.761 114.783 534.354 Q114.205 535.025 111.103 538.243 Q108.001 541.437 102.353 547.201 Z" fill="#000000" fill-rule="evenodd" fill-opacity="1" /><path clip-path="url(#clip510)" d="M111.543 142.288 Q114.899 143.005 116.774 145.274 Q118.672 147.542 118.672 150.876 Q118.672 155.991 115.154 158.792 Q111.635 161.593 105.154 161.593 Q102.978 161.593 100.663 161.153 Q98.3713 160.737 95.9176 159.88 L95.9176 155.366 Q97.8621 156.501 100.177 157.079 Q102.492 157.658 105.015 157.658 Q109.413 157.658 111.705 155.922 Q114.019 154.186 114.019 150.876 Q114.019 147.82 111.867 146.107 Q109.737 144.371 105.918 144.371 L101.89 144.371 L101.89 140.528 L106.103 140.528 Q109.552 140.528 111.38 139.163 Q113.209 137.774 113.209 135.181 Q113.209 132.519 111.311 131.107 Q109.436 129.672 105.918 129.672 Q103.996 129.672 101.797 130.089 Q99.5982 130.505 96.9593 131.385 L96.9593 127.218 Q99.6213 126.478 101.936 126.107 Q104.274 125.737 106.334 125.737 Q111.658 125.737 114.76 128.167 Q117.862 130.575 117.862 134.695 Q117.862 137.566 116.218 139.556 Q114.575 141.524 111.543 142.288 Z" fill="#000000" fill-rule="evenodd" fill-opacity="1" /><polyline clip-path="url(#clip512)" style="stroke:#009af9; stroke-linecap:round; stroke-linejoin:round; stroke-width:4; stroke-opacity:1; fill:none" points="
  229.231,533.856 244.474,549.099 385.418,690.043 470.119,774.745 541.733,846.359 619.526,924.152 691.244,995.87 768.134,1072.76 857.218,1161.84 896.802,1201.43 
  936.385,1241.01 953.741,1258.37 971.097,1275.72 979.774,1284.4 988.452,1293.08 992.791,1297.42 997.13,1301.76 999.3,1303.93 1001.47,1306.09 1003.64,1308.26 
  1005.81,1310.43 1006.99,1311.62 1008.17,1312.8 1008.76,1313.39 1009.36,1313.98 1009.95,1299.31 1010.54,1288.11 1011.13,1280.44 1011.72,1274.23 1012.31,1268.86 
  1012.9,1264.07 1014.09,1255.67 1015.27,1248.36 1016.45,1241.8 1017.63,1235.8 1018.82,1230.24 1020,1225.05 1022.36,1215.52 1024.73,1206.89 1027.1,1198.94 
  1029.46,1191.56 1031.83,1184.64 1034.19,1178.11 1038.92,1166.03 1043.65,1154.99 1048.38,1144.81 1053.11,1135.33 1057.84,1126.45 1062.57,1118.08 1072.04,1102.65 
  1081.5,1088.67 1091.01,1075.8 1100.53,1063.96 1110.05,1053 1119.57,1042.82 1129.08,1033.32 1138.6,1024.45 1148.12,1016.15 1157.64,1008.36 1168.16,1000.32 
  1178.68,992.818 1189.2,985.826 1199.73,979.31 1220.77,967.601 1241.82,957.514 1261.84,949.3 1281.87,942.342 1301.89,936.573 1321.91,931.938 1342.74,928.277 
  1363.56,925.765 1384.38,924.379 1405.2,924.107 1422.72,924.74 1440.25,926.165 1457.78,928.391 1475.3,931.43 1496.7,936.275 1518.1,942.411 1539.5,949.905 
  1560.89,958.842 1580.49,968.39 1600.1,979.355 1619.7,991.881 1639.3,1006.16 1648.35,1013.41 1657.4,1021.12 1666.46,1029.33 1675.51,1038.07 1684.56,1047.41 
  1693.61,1057.41 1702.66,1068.14 1711.71,1079.72 1720.88,1092.43 1730.05,1106.32 1739.22,1121.65 1748.39,1138.78 1752.98,1148.19 1757.56,1158.31 1762.15,1169.28 
  1766.73,1181.3 1769.02,1187.81 1771.31,1194.71 1773.61,1202.08 1775.9,1210.01 1778.19,1218.67 1780.48,1228.24 1781.63,1233.48 1782.78,1239.1 1783.92,1245.19 
  1785.07,1251.9 1786.35,1260.42 1787.64,1270.62 1788.28,1276.76 1788.92,1284.14 1789.56,1294.07 1790.21,1314.17 1790.85,1313.52 1791.49,1312.88 1792.13,1312.24 
  1792.78,1311.6 1794.06,1310.31 1795.34,1309.03 1800.48,1303.89 1805.62,1298.75 1815.9,1288.48 1826.17,1278.2 1846.73,1257.65 1867.28,1237.1 1904.52,1199.85 
  1941.77,1162.6 2027.06,1077.31 2106.04,998.338 2183.89,920.48 2259.49,844.887 2336.98,767.395 2421.88,682.493 2545.21,559.159 2570.52,533.856 
  "/>
<path clip-path="url(#clip510)" d="
M2229.85 209.375 L2558.03 209.375 L2558.03 105.695 L2229.85 105.695  Z
  " fill="#ffffff" fill-rule="evenodd" fill-opacity="1"/>
<polyline clip-path="url(#clip510)" style="stroke:#000000; stroke-linecap:round; stroke-linejoin:round; stroke-width:4; stroke-opacity:1; fill:none" points="
  2229.85,209.375 2558.03,209.375 2558.03,105.695 2229.85,105.695 2229.85,209.375 
  "/>
<polyline clip-path="url(#clip510)" style="stroke:#009af9; stroke-linecap:round; stroke-linejoin:round; stroke-width:4; stroke-opacity:1; fill:none" points="
  2257.42,157.535 2422.87,157.535 
  "/>
<path clip-path="url(#clip510)" d="M2464.29 177.223 Q2462.49 181.852 2460.77 183.264 Q2459.06 184.676 2456.19 184.676 L2452.79 184.676 L2452.79 181.112 L2455.29 181.112 Q2457.05 181.112 2458.02 180.278 Q2458.99 179.445 2460.17 176.343 L2460.94 174.399 L2450.45 148.889 L2454.96 148.889 L2463.07 169.167 L2471.17 148.889 L2475.68 148.889 L2464.29 177.223 Z" fill="#000000" fill-rule="evenodd" fill-opacity="1" /><path clip-path="url(#clip510)" d="M2482.97 170.88 L2490.61 170.88 L2490.61 144.515 L2482.3 146.181 L2482.3 141.922 L2490.57 140.255 L2495.24 140.255 L2495.24 170.88 L2502.88 170.88 L2502.88 174.815 L2482.97 174.815 L2482.97 170.88 Z" fill="#000000" fill-rule="evenodd" fill-opacity="1" /></svg>
