<?xml version="1.0" encoding="utf-8"?>
<svg xmlns="http://www.w3.org/2000/svg" xmlns:xlink="http://www.w3.org/1999/xlink" width="672" height="480" viewBox="0 0 2688 1920">
<defs>
  <clipPath id="clip630">
    <rect x="0" y="0" width="2688" height="1920"/>
  </clipPath>
</defs>
<path clip-path="url(#clip630)" d="
M0 1920 L2688 1920 L2688 0 L0 0  Z
  " fill="#ffffff" fill-rule="evenodd" fill-opacity="1"/>
<defs>
  <clipPath id="clip631">
    <rect x="537" y="0" width="1883" height="1883"/>
  </clipPath>
</defs>
<path clip-path="url(#clip630)" d="
M150.358 1800.78 L2371.96 1800.78 L2371.96 47.2441 L150.358 47.2441  Z
  " fill="#ffffff" fill-rule="evenodd" fill-opacity="1"/>
<defs>
  <clipPath id="clip632">
    <rect x="150" y="47" width="2223" height="1755"/>
  </clipPath>
</defs>
<polyline clip-path="url(#clip632)" style="stroke:#000000; stroke-linecap:butt; stroke-linejoin:round; stroke-width:2; stroke-opacity:0.1; fill:none" points="
  150.358,1800.78 150.358,47.2441 
  "/>
<polyline clip-path="url(#clip632)" style="stroke:#000000; stroke-linecap:butt; stroke-linejoin:round; stroke-width:2; stroke-opacity:0.1; fill:none" points="
  705.757,1800.78 705.757,47.2441 
  "/>
<polyline clip-path="url(#clip632)" style="stroke:#000000; stroke-linecap:butt; stroke-linejoin:round; stroke-width:2; stroke-opacity:0.1; fill:none" points="
  1261.16,1800.78 1261.16,47.2441 
  "/>
<polyline clip-path="url(#clip632)" style="stroke:#000000; stroke-linecap:butt; stroke-linejoin:round; stroke-width:2; stroke-opacity:0.1; fill:none" points="
  1816.56,1800.78 1816.56,47.2441 
  "/>
<polyline clip-path="url(#clip632)" style="stroke:#000000; stroke-linecap:butt; stroke-linejoin:round; stroke-width:2; stroke-opacity:0.1; fill:none" points="
  2371.96,1800.78 2371.96,47.2441 
  "/>
<polyline clip-path="url(#clip630)" style="stroke:#000000; stroke-linecap:butt; stroke-linejoin:round; stroke-width:4; stroke-opacity:1; fill:none" points="
  150.358,1800.78 2371.96,1800.78 
  "/>
<polyline clip-path="url(#clip630)" style="stroke:#000000; stroke-linecap:butt; stroke-linejoin:round; stroke-width:4; stroke-opacity:1; fill:none" points="
  150.358,1800.78 150.358,1781.88 
  "/>
<polyline clip-path="url(#clip630)" style="stroke:#000000; stroke-linecap:butt; stroke-linejoin:round; stroke-width:4; stroke-opacity:1; fill:none" points="
  705.757,1800.78 705.757,1781.88 
  "/>
<polyline clip-path="url(#clip630)" style="stroke:#000000; stroke-linecap:butt; stroke-linejoin:round; stroke-width:4; stroke-opacity:1; fill:none" points="
  1261.16,1800.78 1261.16,1781.88 
  "/>
<polyline clip-path="url(#clip630)" style="stroke:#000000; stroke-linecap:butt; stroke-linejoin:round; stroke-width:4; stroke-opacity:1; fill:none" points="
  1816.56,1800.78 1816.56,1781.88 
  "/>
<polyline clip-path="url(#clip630)" style="stroke:#000000; stroke-linecap:butt; stroke-linejoin:round; stroke-width:4; stroke-opacity:1; fill:none" points="
  2371.96,1800.78 2371.96,1781.88 
  "/>
<path clip-path="url(#clip630)" d="M120.3 1848.65 L149.976 1848.65 L149.976 1852.59 L120.3 1852.59 L120.3 1848.65 Z" fill="#000000" fill-rule="evenodd" fill-opacity="1" /><path clip-path="url(#clip630)" d="M164.096 1861.55 L180.416 1861.55 L180.416 1865.48 L158.471 1865.48 L158.471 1861.55 Q161.133 1858.79 165.717 1854.16 Q170.323 1849.51 171.504 1848.17 Q173.749 1845.65 174.629 1843.91 Q175.531 1842.15 175.531 1840.46 Q175.531 1837.71 173.587 1835.97 Q171.666 1834.23 168.564 1834.23 Q166.365 1834.23 163.911 1835 Q161.481 1835.76 158.703 1837.31 L158.703 1832.59 Q161.527 1831.46 163.981 1830.88 Q166.434 1830.3 168.471 1830.3 Q173.842 1830.3 177.036 1832.98 Q180.23 1835.67 180.23 1840.16 Q180.23 1842.29 179.42 1844.21 Q178.633 1846.11 176.527 1848.7 Q175.948 1849.37 172.846 1852.59 Q169.744 1855.78 164.096 1861.55 Z" fill="#000000" fill-rule="evenodd" fill-opacity="1" /><path clip-path="url(#clip630)" d="M675.515 1848.65 L705.19 1848.65 L705.19 1852.59 L675.515 1852.59 L675.515 1848.65 Z" fill="#000000" fill-rule="evenodd" fill-opacity="1" /><path clip-path="url(#clip630)" d="M716.093 1861.55 L723.732 1861.55 L723.732 1835.18 L715.422 1836.85 L715.422 1832.59 L723.686 1830.92 L728.361 1830.92 L728.361 1861.55 L736 1861.55 L736 1865.48 L716.093 1865.48 L716.093 1861.55 Z" fill="#000000" fill-rule="evenodd" fill-opacity="1" /><path clip-path="url(#clip630)" d="M1261.16 1834 Q1257.55 1834 1255.72 1837.57 Q1253.91 1841.11 1253.91 1848.24 Q1253.91 1855.34 1255.72 1858.91 Q1257.55 1862.45 1261.16 1862.45 Q1264.79 1862.45 1266.6 1858.91 Q1268.43 1855.34 1268.43 1848.24 Q1268.43 1841.11 1266.6 1837.57 Q1264.79 1834 1261.16 1834 M1261.16 1830.3 Q1266.97 1830.3 1270.02 1834.9 Q1273.1 1839.49 1273.1 1848.24 Q1273.1 1856.96 1270.02 1861.57 Q1266.97 1866.15 1261.16 1866.15 Q1255.35 1866.15 1252.27 1861.57 Q1249.21 1856.96 1249.21 1848.24 Q1249.21 1839.49 1252.27 1834.9 Q1255.35 1830.3 1261.16 1830.3 Z" fill="#000000" fill-rule="evenodd" fill-opacity="1" /><path clip-path="url(#clip630)" d="M1806.94 1861.55 L1814.58 1861.55 L1814.58 1835.18 L1806.27 1836.85 L1806.27 1832.59 L1814.53 1830.92 L1819.21 1830.92 L1819.21 1861.55 L1826.85 1861.55 L1826.85 1865.48 L1806.94 1865.48 L1806.94 1861.55 Z" fill="#000000" fill-rule="evenodd" fill-opacity="1" /><path clip-path="url(#clip630)" d="M2366.61 1861.55 L2382.93 1861.55 L2382.93 1865.48 L2360.98 1865.48 L2360.98 1861.55 Q2363.65 1858.79 2368.23 1854.16 Q2372.84 1849.51 2374.02 1848.17 Q2376.26 1845.65 2377.14 1843.91 Q2378.04 1842.15 2378.04 1840.46 Q2378.04 1837.71 2376.1 1835.97 Q2374.18 1834.23 2371.08 1834.23 Q2368.88 1834.23 2366.42 1835 Q2363.99 1835.76 2361.22 1837.31 L2361.22 1832.59 Q2364.04 1831.46 2366.49 1830.88 Q2368.95 1830.3 2370.98 1830.3 Q2376.35 1830.3 2379.55 1832.98 Q2382.74 1835.67 2382.74 1840.16 Q2382.74 1842.29 2381.93 1844.21 Q2381.15 1846.11 2379.04 1848.7 Q2378.46 1849.37 2375.36 1852.59 Q2372.26 1855.78 2366.61 1861.55 Z" fill="#000000" fill-rule="evenodd" fill-opacity="1" /><polyline clip-path="url(#clip632)" style="stroke:#000000; stroke-linecap:butt; stroke-linejoin:round; stroke-width:2; stroke-opacity:0.1; fill:none" points="
  150.358,1800.78 2371.96,1800.78 
  "/>
<polyline clip-path="url(#clip632)" style="stroke:#000000; stroke-linecap:butt; stroke-linejoin:round; stroke-width:2; stroke-opacity:0.1; fill:none" points="
  150.358,1362.4 2371.96,1362.4 
  "/>
<polyline clip-path="url(#clip632)" style="stroke:#000000; stroke-linecap:butt; stroke-linejoin:round; stroke-width:2; stroke-opacity:0.1; fill:none" points="
  150.358,924.012 2371.96,924.012 
  "/>
<polyline clip-path="url(#clip632)" style="stroke:#000000; stroke-linecap:butt; stroke-linejoin:round; stroke-width:2; stroke-opacity:0.1; fill:none" points="
  150.358,485.628 2371.96,485.628 
  "/>
<polyline clip-path="url(#clip632)" style="stroke:#000000; stroke-linecap:butt; stroke-linejoin:round; stroke-width:2; stroke-opacity:0.1; fill:none" points="
  150.358,47.2441 2371.96,47.2441 
  "/>
<polyline clip-path="url(#clip630)" style="stroke:#000000; stroke-linecap:butt; stroke-linejoin:round; stroke-width:4; stroke-opacity:1; fill:none" points="
  150.358,1800.78 150.358,47.2441 
  "/>
<polyline clip-path="url(#clip630)" style="stroke:#000000; stroke-linecap:butt; stroke-linejoin:round; stroke-width:4; stroke-opacity:1; fill:none" points="
  150.358,1800.78 167.216,1800.78 
  "/>
<polyline clip-path="url(#clip630)" style="stroke:#000000; stroke-linecap:butt; stroke-linejoin:round; stroke-width:4; stroke-opacity:1; fill:none" points="
  150.358,1362.4 167.216,1362.4 
  "/>
<polyline clip-path="url(#clip630)" style="stroke:#000000; stroke-linecap:butt; stroke-linejoin:round; stroke-width:4; stroke-opacity:1; fill:none" points="
  150.358,924.012 167.216,924.012 
  "/>
<polyline clip-path="url(#clip630)" style="stroke:#000000; stroke-linecap:butt; stroke-linejoin:round; stroke-width:4; stroke-opacity:1; fill:none" points="
  150.358,485.628 167.216,485.628 
  "/>
<polyline clip-path="url(#clip630)" style="stroke:#000000; stroke-linecap:butt; stroke-linejoin:round; stroke-width:4; stroke-opacity:1; fill:none" points="
  150.358,47.2441 167.216,47.2441 
  "/>
<path clip-path="url(#clip630)" d="M49.9225 1801.23 L79.5983 1801.23 L79.5983 1805.17 L49.9225 1805.17 L49.9225 1801.23 Z" fill="#000000" fill-rule="evenodd" fill-opacity="1" /><path clip-path="url(#clip630)" d="M93.7186 1814.12 L110.038 1814.12 L110.038 1818.06 L88.0936 1818.06 L88.0936 1814.12 Q90.7556 1811.37 95.3389 1806.74 Q99.9454 1802.09 101.126 1800.74 Q103.371 1798.22 104.251 1796.49 Q105.154 1794.73 105.154 1793.04 Q105.154 1790.28 103.209 1788.55 Q101.288 1786.81 98.1861 1786.81 Q95.9871 1786.81 93.5334 1787.57 Q91.1028 1788.34 88.3251 1789.89 L88.3251 1785.17 Q91.1491 1784.03 93.6028 1783.45 Q96.0565 1782.87 98.0935 1782.87 Q103.464 1782.87 106.658 1785.56 Q109.853 1788.24 109.853 1792.74 Q109.853 1794.86 109.043 1796.79 Q108.256 1798.68 106.149 1801.28 Q105.57 1801.95 102.469 1805.17 Q99.3667 1808.36 93.7186 1814.12 Z" fill="#000000" fill-rule="evenodd" fill-opacity="1" /><path clip-path="url(#clip630)" d="M49.5521 1362.85 L79.2279 1362.85 L79.2279 1366.78 L49.5521 1366.78 L49.5521 1362.85 Z" fill="#000000" fill-rule="evenodd" fill-opacity="1" /><path clip-path="url(#clip630)" d="M90.1306 1375.74 L97.7695 1375.74 L97.7695 1349.37 L89.4593 1351.04 L89.4593 1346.78 L97.7232 1345.12 L102.399 1345.12 L102.399 1375.74 L110.038 1375.74 L110.038 1379.68 L90.1306 1379.68 L90.1306 1375.74 Z" fill="#000000" fill-rule="evenodd" fill-opacity="1" /><path clip-path="url(#clip630)" d="M98.0935 909.81 Q94.4824 909.81 92.6537 913.375 Q90.8482 916.917 90.8482 924.046 Q90.8482 931.153 92.6537 934.718 Q94.4824 938.259 98.0935 938.259 Q101.728 938.259 103.533 934.718 Q105.362 931.153 105.362 924.046 Q105.362 916.917 103.533 913.375 Q101.728 909.81 98.0935 909.81 M98.0935 906.107 Q103.904 906.107 106.959 910.713 Q110.038 915.296 110.038 924.046 Q110.038 932.773 106.959 937.38 Q103.904 941.963 98.0935 941.963 Q92.2834 941.963 89.2047 937.38 Q86.1492 932.773 86.1492 924.046 Q86.1492 915.296 89.2047 910.713 Q92.2834 906.107 98.0935 906.107 Z" fill="#000000" fill-rule="evenodd" fill-opacity="1" /><path clip-path="url(#clip630)" d="M90.1306 498.973 L97.7695 498.973 L97.7695 472.607 L89.4593 474.274 L89.4593 470.015 L97.7232 468.348 L102.399 468.348 L102.399 498.973 L110.038 498.973 L110.038 502.908 L90.1306 502.908 L90.1306 498.973 Z" fill="#000000" fill-rule="evenodd" fill-opacity="1" /><path clip-path="url(#clip630)" d="M93.7186 60.5889 L110.038 60.5889 L110.038 64.5241 L88.0936 64.5241 L88.0936 60.5889 Q90.7556 57.8343 95.3389 53.2047 Q99.9454 48.552 101.126 47.2094 Q103.371 44.6862 104.251 42.9501 Q105.154 41.1909 105.154 39.5011 Q105.154 36.7465 103.209 35.0104 Q101.288 33.2743 98.1861 33.2743 Q95.9871 33.2743 93.5334 34.0381 Q91.1028 34.802 88.3251 36.3529 L88.3251 31.6308 Q91.1491 30.4965 93.6028 29.9178 Q96.0565 29.3391 98.0935 29.3391 Q103.464 29.3391 106.658 32.0243 Q109.853 34.7094 109.853 39.2002 Q109.853 41.3298 109.043 43.2511 Q108.256 45.1492 106.149 47.7418 Q105.57 48.4131 102.469 51.6306 Q99.3667 54.8251 93.7186 60.5889 Z" fill="#000000" fill-rule="evenodd" fill-opacity="1" /><polyline clip-path="url(#clip632)" style="stroke:#e35832; stroke-linecap:butt; stroke-linejoin:round; stroke-width:4; stroke-opacity:1; fill:none" points="
  585.257,1464.24 599.166,1474.87 608.766,1481.95 621.606,1491.14 633.953,1499.67 644.046,1506.43 661.007,1517.38 666.487,1520.81 688.927,1534.36 690.189,1535.09 
  711.368,1547.03 722.033,1552.8 733.808,1559 756.248,1570.32 756.663,1570.52 778.689,1580.85 795.152,1588.23 801.129,1590.84 823.569,1600.16 838.222,1605.94 
  846.01,1608.94 868.45,1617.11 887.467,1623.65 890.891,1624.8 913.331,1631.89 935.771,1638.53 946.04,1641.37 958.212,1644.65 980.652,1650.26 1003.09,1655.45 
  1020.24,1659.08 1025.53,1660.17 1047.97,1664.39 1070.41,1668.19 1092.85,1671.56 1115.29,1674.51 1135.51,1676.79 1137.73,1677.04 1160.18,1679.1 1182.62,1680.74 
  1205.06,1681.98 1227.5,1682.8 1249.94,1683.22 1272.38,1683.22 1294.82,1682.8 1317.26,1681.98 1339.7,1680.74 1362.14,1679.1 1384.58,1677.04 1386.8,1676.79 
  1407.02,1674.51 1429.46,1671.56 1451.9,1668.19 1474.34,1664.39 1496.78,1660.17 1502.07,1659.08 1519.22,1655.45 1541.66,1650.26 1564.1,1644.65 1576.27,1641.37 
  1586.54,1638.53 1608.98,1631.89 1631.42,1624.8 1634.85,1623.65 1653.86,1617.11 1676.3,1608.94 1684.09,1605.94 1698.74,1600.16 1721.18,1590.84 1727.16,1588.23 
  1743.63,1580.85 1765.65,1570.52 1766.07,1570.32 1788.51,1559 1800.28,1552.8 1810.95,1547.03 1832.12,1535.09 1833.39,1534.36 1855.83,1520.81 1861.31,1517.38 
  1878.27,1506.43 1888.36,1499.67 1900.71,1491.14 1913.55,1481.95 1923.15,1474.87 1937.06,1464.24 1945.59,1457.51 1959.05,1446.53 1968.03,1438.95 1979.67,1428.82 
  1990.47,1419.07 1999.03,1411.1 2012.91,1397.72 2017.26,1393.39 2034.42,1375.68 2035.35,1374.68 2050.48,1357.97 2057.79,1349.55 2065.64,1340.25 2079.98,1322.54 
  2080.23,1322.22 2093.33,1304.83 2102.67,1291.84 2105.97,1287.12 2117.79,1269.4 2125.11,1257.84 2128.91,1251.69 2139.26,1233.98 2147.55,1218.97 2149.01,1216.27 
  2157.98,1198.56 2166.4,1180.84 2169.99,1172.74 2174.15,1163.13 2181.26,1145.42 2187.83,1127.71 2192.43,1114.17 2193.82,1109.99 2199.16,1092.28 2203.97,1074.57 
  2208.24,1056.86 2211.98,1039.14 2214.87,1023.18 2215.18,1021.43 2217.79,1003.72 2219.88,986.005 2221.45,968.293 2222.49,950.58 2223.01,932.868 2223.01,915.155 
  2222.49,897.443 2221.45,879.731 2219.88,862.018 2217.79,844.306 2215.18,826.593 2214.87,824.84 2211.98,808.881 2208.24,791.168 2203.97,773.456 2199.16,755.743 
  2193.82,738.031 2192.43,733.854 2187.83,720.318 2181.26,702.606 2174.15,684.893 2169.99,675.286 2166.4,667.181 2157.98,649.468 2149.01,631.756 2147.55,629.053 
  2139.26,614.043 2128.91,596.331 2125.11,590.184 2117.79,578.618 2105.97,560.906 2102.67,556.188 2093.33,543.193 2080.23,525.808 2079.98,525.481 2065.64,507.768 
  2057.79,498.474 2050.48,490.056 2035.35,473.34 2034.42,472.344 2017.26,454.631 2012.91,450.305 1999.03,436.919 1990.47,428.952 1979.67,419.206 1968.03,409.071 
  1959.05,401.494 1945.59,390.516 1937.06,383.781 1923.15,373.157 1913.55,366.069 1900.71,356.884 1888.36,348.356 1878.27,341.597 1861.31,330.644 1855.83,327.209 
  1833.39,313.664 1832.12,312.931 1810.95,300.991 1800.28,295.219 1788.51,289.022 1766.07,277.706 1765.65,277.506 1743.63,267.169 1727.16,259.794 1721.18,257.186 
  1698.74,247.864 1684.09,242.081 1676.3,239.087 1653.86,230.912 1634.85,224.369 1631.42,223.22 1608.98,216.135 1586.54,209.493 1576.27,206.656 1564.1,203.376 
  1541.66,197.76 1519.22,192.576 1502.07,188.944 1496.78,187.85 1474.34,183.633 1451.9,179.837 1429.46,176.463 1407.02,173.511 1386.8,171.231 1384.58,170.987 
  1362.14,168.927 1339.7,167.28 1317.26,166.044 1294.82,165.22 1272.38,164.808 1249.94,164.808 1227.5,165.22 1205.06,166.044 1182.62,167.28 1160.18,168.927 
  1137.73,170.987 1135.51,171.231 1115.29,173.511 1092.85,176.463 1070.41,179.837 1047.97,183.633 1025.53,187.85 1020.24,188.944 1003.09,192.576 980.652,197.76 
  958.212,203.376 946.04,206.656 935.771,209.493 913.331,216.135 890.891,223.22 887.467,224.369 868.45,230.912 846.01,239.087 838.222,242.081 823.569,247.864 
  801.129,257.186 795.152,259.794 778.689,267.169 756.663,277.506 756.248,277.706 733.808,289.022 722.033,295.219 711.368,300.991 690.189,312.931 688.927,313.664 
  666.487,327.209 661.007,330.644 644.046,341.597 633.953,348.356 621.606,356.884 608.766,366.069 599.166,373.157 585.257,383.781 576.725,390.516 563.265,401.494 
  554.285,409.071 542.648,419.206 531.844,428.952 523.281,436.919 509.404,450.305 505.052,454.631 487.892,472.344 486.964,473.34 471.836,490.056 464.523,498.474 
  456.673,507.768 442.336,525.481 442.083,525.808 428.986,543.193 419.643,556.188 416.339,560.906 404.528,578.618 397.202,590.184 393.408,596.331 383.051,614.043 
  374.762,629.053 373.307,631.756 364.33,649.468 355.915,667.181 352.321,675.286 348.165,684.893 341.05,702.606 334.482,720.318 329.881,733.854 328.495,738.031 
  323.152,755.743 318.344,773.456 314.069,791.168 310.329,808.881 307.441,824.84 307.131,826.593 304.521,844.306 302.434,862.018 300.868,879.731 299.825,897.443 
  299.303,915.155 299.303,932.868 299.825,950.58 300.868,968.293 302.434,986.005 304.521,1003.72 307.131,1021.43 307.441,1023.18 310.329,1039.14 314.069,1056.86 
  318.344,1074.57 323.152,1092.28 328.495,1109.99 329.881,1114.17 334.482,1127.71 341.05,1145.42 348.165,1163.13 352.321,1172.74 355.915,1180.84 364.33,1198.56 
  373.307,1216.27 374.762,1218.97 383.051,1233.98 393.408,1251.69 397.202,1257.84 404.528,1269.4 416.339,1287.12 419.643,1291.84 428.986,1304.83 442.083,1322.22 
  442.336,1322.54 456.673,1340.25 464.523,1349.55 471.836,1357.97 486.964,1374.68 487.892,1375.68 505.052,1393.39 509.404,1397.72 523.281,1411.1 531.844,1419.07 
  542.648,1428.82 554.285,1438.95 563.265,1446.53 576.725,1457.51 585.257,1464.24 
  "/>
<polyline clip-path="url(#clip632)" style="stroke:#f98c09; stroke-linecap:butt; stroke-linejoin:round; stroke-width:4; stroke-opacity:1; fill:none" points="
  723.231,1375.68 733.808,1383.39 748.138,1393.39 756.248,1398.85 775.31,1411.1 778.689,1413.2 801.129,1426.48 805.266,1428.82 823.569,1438.78 838.554,1446.53 
  846.01,1450.26 868.45,1460.88 875.958,1464.24 890.891,1470.71 913.331,1479.85 918.848,1481.95 935.771,1488.22 958.212,1495.97 969.756,1499.67 980.652,1503.06 
  1003.09,1509.5 1025.53,1515.4 1033.81,1517.38 1047.97,1520.67 1070.41,1525.36 1092.85,1529.52 1115.29,1533.17 1129.09,1535.09 1137.73,1536.26 1160.18,1538.79 
  1182.62,1540.82 1205.06,1542.34 1227.5,1543.35 1249.94,1543.85 1272.38,1543.85 1294.82,1543.35 1317.26,1542.34 1339.7,1540.82 1362.14,1538.79 1384.58,1536.26 
  1393.23,1535.09 1407.02,1533.17 1429.46,1529.52 1451.9,1525.36 1474.34,1520.67 1488.51,1517.38 1496.78,1515.4 1519.22,1509.5 1541.66,1503.06 1552.56,1499.67 
  1564.1,1495.97 1586.54,1488.22 1603.47,1481.95 1608.98,1479.85 1631.42,1470.71 1646.36,1464.24 1653.86,1460.88 1676.3,1450.26 1683.76,1446.53 1698.74,1438.78 
  1717.05,1428.82 1721.18,1426.48 1743.63,1413.2 1747,1411.1 1766.07,1398.85 1774.18,1393.39 1788.51,1383.39 1799.08,1375.68 1810.95,1366.69 1822,1357.97 
  1833.39,1348.6 1843.15,1340.25 1855.83,1328.94 1862.74,1322.54 1878.27,1307.5 1880.92,1304.83 1897.75,1287.12 1900.71,1283.85 1913.33,1269.4 1923.15,1257.58 
  1927.87,1251.69 1941.33,1233.98 1945.59,1228.05 1953.78,1216.27 1965.36,1198.56 1968.03,1194.2 1975.96,1180.84 1985.78,1163.13 1990.47,1154.02 1994.76,1145.42 
  2002.92,1127.71 2010.4,1109.99 2012.91,1103.46 2017.08,1092.28 2023.02,1074.57 2028.3,1056.86 2032.92,1039.14 2035.35,1028.26 2036.83,1021.43 2040.04,1003.72 
  2042.6,986.005 2044.53,968.293 2045.81,950.58 2046.45,932.868 2046.45,915.155 2045.81,897.443 2044.53,879.731 2042.6,862.018 2040.04,844.306 2036.83,826.593 
  2035.35,819.766 2032.92,808.881 2028.3,791.168 2023.02,773.456 2017.08,755.743 2012.91,744.562 2010.4,738.031 2002.92,720.318 1994.76,702.606 1990.47,694.005 
  1985.78,684.893 1975.96,667.181 1968.03,653.823 1965.36,649.468 1953.78,631.756 1945.59,619.969 1941.33,614.043 1927.87,596.331 1923.15,590.446 1913.33,578.618 
  1900.71,564.172 1897.75,560.906 1880.92,543.193 1878.27,540.527 1862.74,525.481 1855.83,519.079 1843.15,507.768 1833.39,499.42 1822,490.056 1810.95,481.333 
  1799.08,472.344 1788.51,464.637 1774.18,454.631 1766.07,449.178 1747,436.919 1743.63,434.823 1721.18,421.539 1717.05,419.206 1698.74,409.243 1683.76,401.494 
  1676.3,397.767 1653.86,387.139 1646.36,383.781 1631.42,377.318 1608.98,368.176 1603.47,366.069 1586.54,359.807 1564.1,352.058 1552.56,348.356 1541.66,344.968 
  1519.22,338.527 1496.78,332.623 1488.51,330.644 1474.34,327.355 1451.9,322.667 1429.46,318.499 1407.02,314.852 1393.23,312.931 1384.58,311.761 1362.14,309.231 
  1339.7,307.206 1317.26,305.688 1294.82,304.676 1272.38,304.17 1249.94,304.17 1227.5,304.676 1205.06,305.688 1182.62,307.206 1160.18,309.231 1137.73,311.761 
  1129.09,312.931 1115.29,314.852 1092.85,318.499 1070.41,322.667 1047.97,327.355 1033.81,330.644 1025.53,332.623 1003.09,338.527 980.652,344.968 969.756,348.356 
  958.212,352.058 935.771,359.807 918.848,366.069 913.331,368.176 890.891,377.318 875.958,383.781 868.45,387.139 846.01,397.767 838.554,401.494 823.569,409.243 
  805.266,419.206 801.129,421.539 778.689,434.823 775.31,436.919 756.248,449.178 748.138,454.631 733.808,464.637 723.231,472.344 711.368,481.333 700.316,490.056 
  688.927,499.42 679.163,507.768 666.487,519.079 659.578,525.481 644.046,540.527 641.392,543.193 624.561,560.906 621.606,564.172 608.983,578.618 599.166,590.446 
  594.444,596.331 580.98,614.043 576.725,619.969 568.536,631.756 556.954,649.468 554.285,653.823 546.352,667.181 536.534,684.893 531.844,694.005 527.552,702.606 
  519.392,720.318 511.912,738.031 509.404,744.562 505.238,755.743 499.298,773.456 494.018,791.168 489.397,808.881 486.964,819.766 485.481,826.593 482.275,844.306 
  479.711,862.018 477.787,879.731 476.505,897.443 475.864,915.155 475.864,932.868 476.505,950.58 477.787,968.293 479.711,986.005 482.275,1003.72 485.481,1021.43 
  486.964,1028.26 489.397,1039.14 494.018,1056.86 499.298,1074.57 505.238,1092.28 509.404,1103.46 511.912,1109.99 519.392,1127.71 527.552,1145.42 531.844,1154.02 
  536.534,1163.13 546.352,1180.84 554.285,1194.2 556.954,1198.56 568.536,1216.27 576.725,1228.05 580.98,1233.98 594.444,1251.69 599.166,1257.58 608.983,1269.4 
  621.606,1283.85 624.561,1287.12 641.392,1304.83 644.046,1307.5 659.578,1322.54 666.487,1328.94 679.163,1340.25 688.927,1348.6 700.316,1357.97 711.368,1366.69 
  723.231,1375.68 
  "/>
<polyline clip-path="url(#clip632)" style="stroke:#f8c931; stroke-linecap:butt; stroke-linejoin:round; stroke-width:4; stroke-opacity:1; fill:none" points="
  868.45,1234.01 868.411,1233.98 847.218,1216.27 846.01,1215.2 828.257,1198.56 823.569,1193.87 811.192,1180.84 801.129,1169.5 795.753,1163.13 781.861,1145.42 
  778.689,1141.04 769.477,1127.71 758.256,1109.99 756.248,1106.51 748.412,1092.28 739.631,1074.57 733.808,1061.35 731.909,1056.86 725.364,1039.14 719.753,1021.43 
  715.078,1003.72 711.368,986.144 711.339,986.005 708.647,968.293 706.851,950.58 705.954,932.868 705.954,915.155 706.851,897.443 708.647,879.731 711.339,862.018 
  711.368,861.88 715.078,844.306 719.753,826.593 725.364,808.881 731.909,791.168 733.808,786.671 739.631,773.456 748.412,755.743 756.248,741.518 758.256,738.031 
  769.477,720.318 778.689,706.988 781.861,702.606 795.753,684.893 801.129,678.528 811.192,667.181 823.569,654.155 828.257,649.468 846.01,632.828 847.218,631.756 
  868.411,614.043 868.45,614.013 890.891,597.284 892.249,596.331 913.331,582.318 919.268,578.618 935.771,568.849 950.147,560.906 958.212,556.662 980.652,545.697 
  986.204,543.193 1003.09,535.922 1025.53,527.066 1029.95,525.481 1047.97,519.296 1070.41,512.365 1087.16,507.768 1092.85,506.269 1115.29,501.103 1137.73,496.675 
  1160.18,492.985 1182.44,490.056 1182.62,490.034 1205.06,487.908 1227.5,486.491 1249.94,485.783 1272.38,485.783 1294.82,486.491 1317.26,487.908 1339.7,490.034 
  1339.87,490.056 1362.14,492.985 1384.58,496.675 1407.02,501.103 1429.46,506.269 1435.16,507.768 1451.9,512.365 1474.34,519.296 1492.36,525.481 1496.78,527.066 
  1519.22,535.922 1536.11,543.193 1541.66,545.697 1564.1,556.662 1572.17,560.906 1586.54,568.849 1603.05,578.618 1608.98,582.318 1630.06,596.331 1631.42,597.284 
  1653.86,614.013 1653.9,614.043 1675.1,631.756 1676.3,632.828 1694.06,649.468 1698.74,654.155 1711.12,667.181 1721.18,678.528 1726.56,684.893 1740.45,702.606 
  1743.63,706.988 1752.84,720.318 1764.06,738.031 1766.07,741.518 1773.9,755.743 1782.68,773.456 1788.51,786.671 1790.41,791.168 1796.95,808.881 1802.56,826.593 
  1807.24,844.306 1810.95,861.88 1810.97,862.018 1813.67,879.731 1815.46,897.443 1816.36,915.155 1816.36,932.868 1815.46,950.58 1813.67,968.293 1810.97,986.005 
  1810.95,986.144 1807.24,1003.72 1802.56,1021.43 1796.95,1039.14 1790.41,1056.86 1788.51,1061.35 1782.68,1074.57 1773.9,1092.28 1766.07,1106.51 1764.06,1109.99 
  1752.84,1127.71 1743.63,1141.04 1740.45,1145.42 1726.56,1163.13 1721.18,1169.5 1711.12,1180.84 1698.74,1193.87 1694.06,1198.56 1676.3,1215.2 1675.1,1216.27 
  1653.9,1233.98 1653.86,1234.01 1631.42,1250.74 1630.06,1251.69 1608.98,1265.71 1603.05,1269.4 1586.54,1279.17 1572.17,1287.12 1564.1,1291.36 1541.66,1302.33 
  1536.11,1304.83 1519.22,1312.1 1496.78,1320.96 1492.36,1322.54 1474.34,1328.73 1451.9,1335.66 1435.16,1340.25 1429.46,1341.75 1407.02,1346.92 1384.58,1351.35 
  1362.14,1355.04 1339.87,1357.97 1339.7,1357.99 1317.26,1360.12 1294.82,1361.53 1272.38,1362.24 1249.94,1362.24 1227.5,1361.53 1205.06,1360.12 1182.62,1357.99 
  1182.44,1357.97 1160.18,1355.04 1137.73,1351.35 1115.29,1346.92 1092.85,1341.75 1087.16,1340.25 1070.41,1335.66 1047.97,1328.73 1029.95,1322.54 1025.53,1320.96 
  1003.09,1312.1 986.204,1304.83 980.652,1302.33 958.212,1291.36 950.147,1287.12 935.771,1279.17 919.268,1269.4 913.331,1265.71 892.249,1251.69 890.891,1250.74 
  868.45,1234.01 
  "/>
<defs>
  <clipPath id="clip633">
    <rect x="2425" y="47" width="82" height="1755"/>
  </clipPath>
</defs>
<polyline clip-path="url(#clip633)" style="stroke:#e35832; stroke-linecap:butt; stroke-linejoin:round; stroke-width:4; stroke-opacity:1; fill:none" points="
  2425.72,704.708 2506.36,704.708 
  "/>
<polyline clip-path="url(#clip633)" style="stroke:#f98c09; stroke-linecap:butt; stroke-linejoin:round; stroke-width:4; stroke-opacity:1; fill:none" points="
  2425.72,485.494 2506.36,485.494 
  "/>
<polyline clip-path="url(#clip633)" style="stroke:#f8c931; stroke-linecap:butt; stroke-linejoin:round; stroke-width:4; stroke-opacity:1; fill:none" points="
  2425.72,266.279 2506.36,266.279 
  "/>
<path clip-path="url(#clip630)" d="M2546.68 1797.6 L2576.35 1797.6 L2576.35 1801.54 L2546.68 1801.54 L2546.68 1797.6 Z" fill="#000000" fill-rule="evenodd" fill-opacity="1" /><path clip-path="url(#clip630)" d="M2597.02 1795.29 Q2593.87 1795.29 2592.02 1797.44 Q2590.19 1799.59 2590.19 1803.34 Q2590.19 1807.07 2592.02 1809.25 Q2593.87 1811.4 2597.02 1811.4 Q2600.17 1811.4 2602 1809.25 Q2603.85 1807.07 2603.85 1803.34 Q2603.85 1799.59 2602 1797.44 Q2600.17 1795.29 2597.02 1795.29 M2606.31 1780.63 L2606.31 1784.89 Q2604.55 1784.06 2602.74 1783.62 Q2600.96 1783.18 2599.2 1783.18 Q2594.57 1783.18 2592.12 1786.31 Q2589.68 1789.43 2589.34 1795.75 Q2590.7 1793.74 2592.76 1792.67 Q2594.82 1791.58 2597.3 1791.58 Q2602.51 1791.58 2605.52 1794.75 Q2608.55 1797.9 2608.55 1803.34 Q2608.55 1808.67 2605.4 1811.88 Q2602.25 1815.1 2597.02 1815.1 Q2591.03 1815.1 2587.86 1810.52 Q2584.68 1805.91 2584.68 1797.19 Q2584.68 1788.99 2588.57 1784.13 Q2592.46 1779.25 2599.01 1779.25 Q2600.77 1779.25 2602.56 1779.59 Q2604.36 1779.94 2606.31 1780.63 Z" fill="#000000" fill-rule="evenodd" fill-opacity="1" /><path clip-path="url(#clip630)" d="M2546.68 1578.39 L2576.35 1578.39 L2576.35 1582.32 L2546.68 1582.32 L2546.68 1578.39 Z" fill="#000000" fill-rule="evenodd" fill-opacity="1" /><path clip-path="url(#clip630)" d="M2586.49 1560.66 L2604.85 1560.66 L2604.85 1564.59 L2590.77 1564.59 L2590.77 1573.06 Q2591.79 1572.72 2592.81 1572.55 Q2593.83 1572.37 2594.85 1572.37 Q2600.63 1572.37 2604.01 1575.54 Q2607.39 1578.71 2607.39 1584.13 Q2607.39 1589.71 2603.92 1592.81 Q2600.45 1595.89 2594.13 1595.89 Q2591.95 1595.89 2589.68 1595.52 Q2587.44 1595.15 2585.03 1594.41 L2585.03 1589.71 Q2587.12 1590.84 2589.34 1591.4 Q2591.56 1591.95 2594.04 1591.95 Q2598.04 1591.95 2600.38 1589.85 Q2602.72 1587.74 2602.72 1584.13 Q2602.72 1580.52 2600.38 1578.41 Q2598.04 1576.3 2594.04 1576.3 Q2592.16 1576.3 2590.29 1576.72 Q2588.43 1577.14 2586.49 1578.02 L2586.49 1560.66 Z" fill="#000000" fill-rule="evenodd" fill-opacity="1" /><path clip-path="url(#clip630)" d="M2546.68 1359.17 L2576.35 1359.17 L2576.35 1363.11 L2546.68 1363.11 L2546.68 1359.17 Z" fill="#000000" fill-rule="evenodd" fill-opacity="1" /><path clip-path="url(#clip630)" d="M2599.29 1345.52 L2587.49 1363.96 L2599.29 1363.96 L2599.29 1345.52 M2598.06 1341.44 L2603.94 1341.44 L2603.94 1363.96 L2608.87 1363.96 L2608.87 1367.85 L2603.94 1367.85 L2603.94 1376 L2599.29 1376 L2599.29 1367.85 L2583.69 1367.85 L2583.69 1363.34 L2598.06 1341.44 Z" fill="#000000" fill-rule="evenodd" fill-opacity="1" /><path clip-path="url(#clip630)" d="M2546.68 1139.96 L2576.35 1139.96 L2576.35 1143.89 L2546.68 1143.89 L2546.68 1139.96 Z" fill="#000000" fill-rule="evenodd" fill-opacity="1" /><path clip-path="url(#clip630)" d="M2600.61 1138.15 Q2603.97 1138.87 2605.84 1141.14 Q2607.74 1143.41 2607.74 1146.74 Q2607.74 1151.86 2604.22 1154.66 Q2600.7 1157.46 2594.22 1157.46 Q2592.05 1157.46 2589.73 1157.02 Q2587.44 1156.6 2584.99 1155.75 L2584.99 1151.23 Q2586.93 1152.37 2589.25 1152.95 Q2591.56 1153.52 2594.08 1153.52 Q2598.48 1153.52 2600.77 1151.79 Q2603.09 1150.05 2603.09 1146.74 Q2603.09 1143.69 2600.93 1141.97 Q2598.81 1140.24 2594.99 1140.24 L2590.96 1140.24 L2590.96 1136.39 L2595.17 1136.39 Q2598.62 1136.39 2600.45 1135.03 Q2602.28 1133.64 2602.28 1131.05 Q2602.28 1128.39 2600.38 1126.97 Q2598.5 1125.54 2594.99 1125.54 Q2593.06 1125.54 2590.87 1125.95 Q2588.67 1126.37 2586.03 1127.25 L2586.03 1123.08 Q2588.69 1122.34 2591 1121.97 Q2593.34 1121.6 2595.4 1121.6 Q2600.73 1121.6 2603.83 1124.03 Q2606.93 1126.44 2606.93 1130.56 Q2606.93 1133.43 2605.29 1135.42 Q2603.64 1137.39 2600.61 1138.15 Z" fill="#000000" fill-rule="evenodd" fill-opacity="1" /><path clip-path="url(#clip630)" d="M2546.68 920.745 L2576.35 920.745 L2576.35 924.68 L2546.68 924.68 L2546.68 920.745 Z" fill="#000000" fill-rule="evenodd" fill-opacity="1" /><path clip-path="url(#clip630)" d="M2590.47 933.638 L2606.79 933.638 L2606.79 937.573 L2584.85 937.573 L2584.85 933.638 Q2587.51 930.884 2592.09 926.254 Q2596.7 921.601 2597.88 920.259 Q2600.12 917.736 2601 915.999 Q2601.91 914.24 2601.91 912.55 Q2601.91 909.796 2599.96 908.06 Q2598.04 906.324 2594.94 906.324 Q2592.74 906.324 2590.29 907.087 Q2587.86 907.851 2585.08 909.402 L2585.08 904.68 Q2587.9 903.546 2590.36 902.967 Q2592.81 902.388 2594.85 902.388 Q2600.22 902.388 2603.41 905.074 Q2606.61 907.759 2606.61 912.249 Q2606.61 914.379 2605.8 916.3 Q2605.01 918.199 2602.9 920.791 Q2602.32 921.462 2599.22 924.68 Q2596.12 927.874 2590.47 933.638 Z" fill="#000000" fill-rule="evenodd" fill-opacity="1" /><path clip-path="url(#clip630)" d="M2546.68 701.531 L2576.35 701.531 L2576.35 705.466 L2546.68 705.466 L2546.68 701.531 Z" fill="#000000" fill-rule="evenodd" fill-opacity="1" /><path clip-path="url(#clip630)" d="M2587.25 714.424 L2594.89 714.424 L2594.89 688.058 L2586.58 689.725 L2586.58 685.466 L2594.85 683.799 L2599.52 683.799 L2599.52 714.424 L2607.16 714.424 L2607.16 718.359 L2587.25 718.359 L2587.25 714.424 Z" fill="#000000" fill-rule="evenodd" fill-opacity="1" /><path clip-path="url(#clip630)" d="M2558.62 467.664 Q2555.01 467.664 2553.18 471.228 Q2551.37 474.77 2551.37 481.9 Q2551.37 489.006 2553.18 492.571 Q2555.01 496.113 2558.62 496.113 Q2562.25 496.113 2564.06 492.571 Q2565.89 489.006 2565.89 481.9 Q2565.89 474.77 2564.06 471.228 Q2562.25 467.664 2558.62 467.664 M2558.62 463.96 Q2564.43 463.96 2567.49 468.566 Q2570.56 473.15 2570.56 481.9 Q2570.56 490.626 2567.49 495.233 Q2564.43 499.816 2558.62 499.816 Q2552.81 499.816 2549.73 495.233 Q2546.68 490.626 2546.68 481.9 Q2546.68 473.15 2549.73 468.566 Q2552.81 463.96 2558.62 463.96 Z" fill="#000000" fill-rule="evenodd" fill-opacity="1" /><path clip-path="url(#clip630)" d="M2547.35 275.995 L2554.99 275.995 L2554.99 249.63 L2546.68 251.297 L2546.68 247.037 L2554.94 245.371 L2559.62 245.371 L2559.62 275.995 L2567.25 275.995 L2567.25 279.931 L2547.35 279.931 L2547.35 275.995 Z" fill="#000000" fill-rule="evenodd" fill-opacity="1" /><polyline clip-path="url(#clip630)" style="stroke:#000000; stroke-linecap:butt; stroke-linejoin:round; stroke-width:4; stroke-opacity:1; fill:none" points="
  2506.36,1800.78 2506.36,1800.78 2533.24,1800.78 2506.36,1800.78 2506.36,1581.57 2533.24,1581.57 2506.36,1581.57 2506.36,1362.35 2533.24,1362.35 2506.36,1362.35 
  2506.36,1143.14 2533.24,1143.14 2506.36,1143.14 2506.36,923.922 2533.24,923.922 2506.36,923.922 2506.36,704.708 2533.24,704.708 2506.36,704.708 2506.36,485.494 
  2533.24,485.494 2506.36,485.494 2506.36,266.279 2533.24,266.279 2506.36,266.279 2506.36,47.2441 
  "/>
</svg>
