<?xml version="1.0" encoding="utf-8"?>
<svg xmlns="http://www.w3.org/2000/svg" xmlns:xlink="http://www.w3.org/1999/xlink" width="672" height="480" viewBox="0 0 2688 1920">
<defs>
  <clipPath id="clip310">
    <rect x="0" y="0" width="2688" height="1920"/>
  </clipPath>
</defs>
<path clip-path="url(#clip310)" d="
M0 1920 L2688 1920 L2688 0 L0 0  Z
  " fill="#ffffff" fill-rule="evenodd" fill-opacity="1"/>
<defs>
  <clipPath id="clip311">
    <rect x="537" y="0" width="1883" height="1883"/>
  </clipPath>
</defs>
<defs>
  <clipPath id="clip312">
    <rect x="141" y="47" width="2500" height="1755"/>
  </clipPath>
</defs>
<path clip-path="url(#clip312)" d="
M738.945 1424.98 L738.945 597.842 L1216.5 184.27 L2043.65 423.046 L2043.65 1250.19 L1566.1 1663.76 L738.945 1424.98  Z
  " fill="#ffffff" fill-rule="evenodd" fill-opacity="1"/>
<polyline clip-path="url(#clip312)" style="stroke:#000000; stroke-linecap:butt; stroke-linejoin:round; stroke-width:2; stroke-opacity:0.1; fill:none" points="
  724.621,1462.2 1230.82,1023.81 
  "/>
<polyline clip-path="url(#clip312)" style="stroke:#000000; stroke-linecap:butt; stroke-linejoin:round; stroke-width:2; stroke-opacity:0.1; fill:none" points="
  1230.82,1023.81 1230.82,147.047 
  "/>
<polyline clip-path="url(#clip312)" style="stroke:#000000; stroke-linecap:butt; stroke-linejoin:round; stroke-width:2; stroke-opacity:0.1; fill:none" points="
  931.409,1521.89 1437.61,1083.51 
  "/>
<polyline clip-path="url(#clip312)" style="stroke:#000000; stroke-linecap:butt; stroke-linejoin:round; stroke-width:2; stroke-opacity:0.1; fill:none" points="
  1437.61,1083.51 1437.61,206.742 
  "/>
<polyline clip-path="url(#clip312)" style="stroke:#000000; stroke-linecap:butt; stroke-linejoin:round; stroke-width:2; stroke-opacity:0.1; fill:none" points="
  1138.2,1581.59 1644.4,1143.2 
  "/>
<polyline clip-path="url(#clip312)" style="stroke:#000000; stroke-linecap:butt; stroke-linejoin:round; stroke-width:2; stroke-opacity:0.1; fill:none" points="
  1644.4,1143.2 1644.4,266.436 
  "/>
<polyline clip-path="url(#clip312)" style="stroke:#000000; stroke-linecap:butt; stroke-linejoin:round; stroke-width:2; stroke-opacity:0.1; fill:none" points="
  1344.99,1641.28 1851.19,1202.9 
  "/>
<polyline clip-path="url(#clip312)" style="stroke:#000000; stroke-linecap:butt; stroke-linejoin:round; stroke-width:2; stroke-opacity:0.1; fill:none" points="
  1851.19,1202.9 1851.19,326.131 
  "/>
<polyline clip-path="url(#clip312)" style="stroke:#000000; stroke-linecap:butt; stroke-linejoin:round; stroke-width:2; stroke-opacity:0.1; fill:none" points="
  1551.77,1700.98 2057.98,1262.59 
  "/>
<polyline clip-path="url(#clip312)" style="stroke:#000000; stroke-linecap:butt; stroke-linejoin:round; stroke-width:2; stroke-opacity:0.1; fill:none" points="
  2057.98,1262.59 2057.98,385.825 
  "/>
<polyline clip-path="url(#clip310)" style="stroke:#000000; stroke-linecap:butt; stroke-linejoin:round; stroke-width:4; stroke-opacity:1; fill:none" points="
  699.813,1455.04 1576.58,1708.14 
  "/>
<polyline clip-path="url(#clip310)" style="stroke:#000000; stroke-linecap:butt; stroke-linejoin:round; stroke-width:4; stroke-opacity:1; fill:none" points="
  724.621,1462.2 730.695,1456.94 
  "/>
<polyline clip-path="url(#clip310)" style="stroke:#000000; stroke-linecap:butt; stroke-linejoin:round; stroke-width:4; stroke-opacity:1; fill:none" points="
  931.409,1521.89 937.484,1516.63 
  "/>
<polyline clip-path="url(#clip310)" style="stroke:#000000; stroke-linecap:butt; stroke-linejoin:round; stroke-width:4; stroke-opacity:1; fill:none" points="
  1138.2,1581.59 1144.27,1576.33 
  "/>
<polyline clip-path="url(#clip310)" style="stroke:#000000; stroke-linecap:butt; stroke-linejoin:round; stroke-width:4; stroke-opacity:1; fill:none" points="
  1344.99,1641.28 1351.06,1636.02 
  "/>
<polyline clip-path="url(#clip310)" style="stroke:#000000; stroke-linecap:butt; stroke-linejoin:round; stroke-width:4; stroke-opacity:1; fill:none" points="
  1551.77,1700.98 1557.85,1695.72 
  "/>
<path clip-path="url(#clip310)" d="M608.731 1493.64 L638.407 1493.64 L638.407 1497.58 L608.731 1497.58 L608.731 1493.64 Z" fill="#000000" fill-rule="evenodd" fill-opacity="1" /><path clip-path="url(#clip310)" d="M649.31 1506.53 L656.948 1506.53 L656.948 1480.17 L648.638 1481.83 L648.638 1477.58 L656.902 1475.91 L661.578 1475.91 L661.578 1506.53 L669.217 1506.53 L669.217 1510.47 L649.31 1510.47 L649.31 1506.53 Z" fill="#000000" fill-rule="evenodd" fill-opacity="1" /><path clip-path="url(#clip310)" d="M678.661 1504.59 L683.545 1504.59 L683.545 1510.47 L678.661 1510.47 L678.661 1504.59 Z" fill="#000000" fill-rule="evenodd" fill-opacity="1" /><path clip-path="url(#clip310)" d="M703.731 1478.99 Q700.119 1478.99 698.291 1482.55 Q696.485 1486.09 696.485 1493.22 Q696.485 1500.33 698.291 1503.89 Q700.119 1507.44 703.731 1507.44 Q707.365 1507.44 709.17 1503.89 Q710.999 1500.33 710.999 1493.22 Q710.999 1486.09 709.17 1482.55 Q707.365 1478.99 703.731 1478.99 M703.731 1475.28 Q709.541 1475.28 712.596 1479.89 Q715.675 1484.47 715.675 1493.22 Q715.675 1501.95 712.596 1506.56 Q709.541 1511.14 703.731 1511.14 Q697.92 1511.14 694.842 1506.56 Q691.786 1501.95 691.786 1493.22 Q691.786 1484.47 694.842 1479.89 Q697.92 1475.28 703.731 1475.28 Z" fill="#000000" fill-rule="evenodd" fill-opacity="1" /><path clip-path="url(#clip310)" d="M816.514 1553.33 L846.19 1553.33 L846.19 1557.27 L816.514 1557.27 L816.514 1553.33 Z" fill="#000000" fill-rule="evenodd" fill-opacity="1" /><path clip-path="url(#clip310)" d="M866.283 1538.68 Q862.672 1538.68 860.843 1542.25 Q859.037 1545.79 859.037 1552.92 Q859.037 1560.02 860.843 1563.59 Q862.672 1567.13 866.283 1567.13 Q869.917 1567.13 871.723 1563.59 Q873.551 1560.02 873.551 1552.92 Q873.551 1545.79 871.723 1542.25 Q869.917 1538.68 866.283 1538.68 M866.283 1534.98 Q872.093 1534.98 875.148 1539.59 Q878.227 1544.17 878.227 1552.92 Q878.227 1561.65 875.148 1566.25 Q872.093 1570.83 866.283 1570.83 Q860.473 1570.83 857.394 1566.25 Q854.338 1561.65 854.338 1552.92 Q854.338 1544.17 857.394 1539.59 Q860.473 1534.98 866.283 1534.98 Z" fill="#000000" fill-rule="evenodd" fill-opacity="1" /><path clip-path="url(#clip310)" d="M886.445 1564.28 L891.329 1564.28 L891.329 1570.16 L886.445 1570.16 L886.445 1564.28 Z" fill="#000000" fill-rule="evenodd" fill-opacity="1" /><path clip-path="url(#clip310)" d="M901.56 1535.6 L919.917 1535.6 L919.917 1539.54 L905.843 1539.54 L905.843 1548.01 Q906.861 1547.66 907.88 1547.5 Q908.898 1547.32 909.917 1547.32 Q915.704 1547.32 919.083 1550.49 Q922.463 1553.66 922.463 1559.08 Q922.463 1564.65 918.991 1567.76 Q915.519 1570.83 909.199 1570.83 Q907.023 1570.83 904.755 1570.46 Q902.509 1570.09 900.102 1569.35 L900.102 1564.65 Q902.185 1565.79 904.408 1566.34 Q906.63 1566.9 909.107 1566.9 Q913.111 1566.9 915.449 1564.79 Q917.787 1562.69 917.787 1559.08 Q917.787 1555.46 915.449 1553.36 Q913.111 1551.25 909.107 1551.25 Q907.232 1551.25 905.357 1551.67 Q903.505 1552.08 901.56 1552.96 L901.56 1535.6 Z" fill="#000000" fill-rule="evenodd" fill-opacity="1" /><path clip-path="url(#clip310)" d="M1072.08 1598.38 Q1068.46 1598.38 1066.64 1601.94 Q1064.83 1605.48 1064.83 1612.61 Q1064.83 1619.72 1066.64 1623.28 Q1068.46 1626.83 1072.08 1626.83 Q1075.71 1626.83 1077.52 1623.28 Q1079.34 1619.72 1079.34 1612.61 Q1079.34 1605.48 1077.52 1601.94 Q1075.71 1598.38 1072.08 1598.38 M1072.08 1594.67 Q1077.89 1594.67 1080.94 1599.28 Q1084.02 1603.86 1084.02 1612.61 Q1084.02 1621.34 1080.94 1625.95 Q1077.89 1630.53 1072.08 1630.53 Q1066.27 1630.53 1063.19 1625.95 Q1060.13 1621.34 1060.13 1612.61 Q1060.13 1603.86 1063.19 1599.28 Q1066.27 1594.67 1072.08 1594.67 Z" fill="#000000" fill-rule="evenodd" fill-opacity="1" /><path clip-path="url(#clip310)" d="M1092.24 1623.98 L1097.12 1623.98 L1097.12 1629.86 L1092.24 1629.86 L1092.24 1623.98 Z" fill="#000000" fill-rule="evenodd" fill-opacity="1" /><path clip-path="url(#clip310)" d="M1117.31 1598.38 Q1113.7 1598.38 1111.87 1601.94 Q1110.06 1605.48 1110.06 1612.61 Q1110.06 1619.72 1111.87 1623.28 Q1113.7 1626.83 1117.31 1626.83 Q1120.94 1626.83 1122.75 1623.28 Q1124.58 1619.72 1124.58 1612.61 Q1124.58 1605.48 1122.75 1601.94 Q1120.94 1598.38 1117.31 1598.38 M1117.31 1594.67 Q1123.12 1594.67 1126.17 1599.28 Q1129.25 1603.86 1129.25 1612.61 Q1129.25 1621.34 1126.17 1625.95 Q1123.12 1630.53 1117.31 1630.53 Q1111.5 1630.53 1108.42 1625.95 Q1105.36 1621.34 1105.36 1612.61 Q1105.36 1603.86 1108.42 1599.28 Q1111.5 1594.67 1117.31 1594.67 Z" fill="#000000" fill-rule="evenodd" fill-opacity="1" /><path clip-path="url(#clip310)" d="M1279.86 1658.07 Q1276.25 1658.07 1274.42 1661.64 Q1272.61 1665.18 1272.61 1672.31 Q1272.61 1679.41 1274.42 1682.98 Q1276.25 1686.52 1279.86 1686.52 Q1283.49 1686.52 1285.3 1682.98 Q1287.13 1679.41 1287.13 1672.31 Q1287.13 1665.18 1285.3 1661.64 Q1283.49 1658.07 1279.86 1658.07 M1279.86 1654.37 Q1285.67 1654.37 1288.72 1658.97 Q1291.8 1663.56 1291.8 1672.31 Q1291.8 1681.03 1288.72 1685.64 Q1285.67 1690.22 1279.86 1690.22 Q1274.05 1690.22 1270.97 1685.64 Q1267.91 1681.03 1267.91 1672.31 Q1267.91 1663.56 1270.97 1658.97 Q1274.05 1654.37 1279.86 1654.37 Z" fill="#000000" fill-rule="evenodd" fill-opacity="1" /><path clip-path="url(#clip310)" d="M1300.02 1683.67 L1304.9 1683.67 L1304.9 1689.55 L1300.02 1689.55 L1300.02 1683.67 Z" fill="#000000" fill-rule="evenodd" fill-opacity="1" /><path clip-path="url(#clip310)" d="M1315.14 1654.99 L1333.49 1654.99 L1333.49 1658.93 L1319.42 1658.93 L1319.42 1667.4 Q1320.44 1667.05 1321.46 1666.89 Q1322.47 1666.71 1323.49 1666.71 Q1329.28 1666.71 1332.66 1669.88 Q1336.04 1673.05 1336.04 1678.46 Q1336.04 1684.04 1332.57 1687.15 Q1329.09 1690.22 1322.78 1690.22 Q1320.6 1690.22 1318.33 1689.85 Q1316.09 1689.48 1313.68 1688.74 L1313.68 1684.04 Q1315.76 1685.18 1317.98 1685.73 Q1320.21 1686.29 1322.68 1686.29 Q1326.69 1686.29 1329.03 1684.18 Q1331.36 1682.08 1331.36 1678.46 Q1331.36 1674.85 1329.03 1672.75 Q1326.69 1670.64 1322.68 1670.64 Q1320.81 1670.64 1318.93 1671.06 Q1317.08 1671.47 1315.14 1672.35 L1315.14 1654.99 Z" fill="#000000" fill-rule="evenodd" fill-opacity="1" /><path clip-path="url(#clip310)" d="M1476.46 1745.31 L1484.1 1745.31 L1484.1 1718.95 L1475.79 1720.61 L1475.79 1716.35 L1484.05 1714.69 L1488.73 1714.69 L1488.73 1745.31 L1496.37 1745.31 L1496.37 1749.25 L1476.46 1749.25 L1476.46 1745.31 Z" fill="#000000" fill-rule="evenodd" fill-opacity="1" /><path clip-path="url(#clip310)" d="M1505.81 1743.37 L1510.7 1743.37 L1510.7 1749.25 L1505.81 1749.25 L1505.81 1743.37 Z" fill="#000000" fill-rule="evenodd" fill-opacity="1" /><path clip-path="url(#clip310)" d="M1530.88 1717.77 Q1527.27 1717.77 1525.44 1721.33 Q1523.64 1724.87 1523.64 1732 Q1523.64 1739.11 1525.44 1742.67 Q1527.27 1746.21 1530.88 1746.21 Q1534.52 1746.21 1536.32 1742.67 Q1538.15 1739.11 1538.15 1732 Q1538.15 1724.87 1536.32 1721.33 Q1534.52 1717.77 1530.88 1717.77 M1530.88 1714.06 Q1536.69 1714.06 1539.75 1718.67 Q1542.83 1723.25 1542.83 1732 Q1542.83 1740.73 1539.75 1745.34 Q1536.69 1749.92 1530.88 1749.92 Q1525.07 1749.92 1521.99 1745.34 Q1518.94 1740.73 1518.94 1732 Q1518.94 1723.25 1521.99 1718.67 Q1525.07 1714.06 1530.88 1714.06 Z" fill="#000000" fill-rule="evenodd" fill-opacity="1" /><polyline clip-path="url(#clip312)" style="stroke:#000000; stroke-linecap:butt; stroke-linejoin:round; stroke-width:2; stroke-opacity:0.1; fill:none" points="
  1590.9,1695.73 714.137,1442.63 
  "/>
<polyline clip-path="url(#clip312)" style="stroke:#000000; stroke-linecap:butt; stroke-linejoin:round; stroke-width:2; stroke-opacity:0.1; fill:none" points="
  714.137,1442.63 714.137,565.864 
  "/>
<polyline clip-path="url(#clip312)" style="stroke:#000000; stroke-linecap:butt; stroke-linejoin:round; stroke-width:2; stroke-opacity:0.1; fill:none" points="
  1710.29,1592.34 833.525,1339.24 
  "/>
<polyline clip-path="url(#clip312)" style="stroke:#000000; stroke-linecap:butt; stroke-linejoin:round; stroke-width:2; stroke-opacity:0.1; fill:none" points="
  833.525,1339.24 833.525,462.471 
  "/>
<polyline clip-path="url(#clip312)" style="stroke:#000000; stroke-linecap:butt; stroke-linejoin:round; stroke-width:2; stroke-opacity:0.1; fill:none" points="
  1829.68,1488.95 952.913,1235.85 
  "/>
<polyline clip-path="url(#clip312)" style="stroke:#000000; stroke-linecap:butt; stroke-linejoin:round; stroke-width:2; stroke-opacity:0.1; fill:none" points="
  952.913,1235.85 952.913,359.078 
  "/>
<polyline clip-path="url(#clip312)" style="stroke:#000000; stroke-linecap:butt; stroke-linejoin:round; stroke-width:2; stroke-opacity:0.1; fill:none" points="
  1949.07,1385.55 1072.3,1132.45 
  "/>
<polyline clip-path="url(#clip312)" style="stroke:#000000; stroke-linecap:butt; stroke-linejoin:round; stroke-width:2; stroke-opacity:0.1; fill:none" points="
  1072.3,1132.45 1072.3,255.685 
  "/>
<polyline clip-path="url(#clip312)" style="stroke:#000000; stroke-linecap:butt; stroke-linejoin:round; stroke-width:2; stroke-opacity:0.1; fill:none" points="
  2068.46,1282.16 1191.69,1029.06 
  "/>
<polyline clip-path="url(#clip312)" style="stroke:#000000; stroke-linecap:butt; stroke-linejoin:round; stroke-width:2; stroke-opacity:0.1; fill:none" points="
  1191.69,1029.06 1191.69,152.293 
  "/>
<polyline clip-path="url(#clip310)" style="stroke:#000000; stroke-linecap:butt; stroke-linejoin:round; stroke-width:4; stroke-opacity:1; fill:none" points="
  1576.58,1708.14 2082.78,1269.75 
  "/>
<polyline clip-path="url(#clip310)" style="stroke:#000000; stroke-linecap:butt; stroke-linejoin:round; stroke-width:4; stroke-opacity:1; fill:none" points="
  1590.9,1695.73 1580.38,1692.7 
  "/>
<polyline clip-path="url(#clip310)" style="stroke:#000000; stroke-linecap:butt; stroke-linejoin:round; stroke-width:4; stroke-opacity:1; fill:none" points="
  1710.29,1592.34 1699.77,1589.3 
  "/>
<polyline clip-path="url(#clip310)" style="stroke:#000000; stroke-linecap:butt; stroke-linejoin:round; stroke-width:4; stroke-opacity:1; fill:none" points="
  1829.68,1488.95 1819.16,1485.91 
  "/>
<polyline clip-path="url(#clip310)" style="stroke:#000000; stroke-linecap:butt; stroke-linejoin:round; stroke-width:4; stroke-opacity:1; fill:none" points="
  1949.07,1385.55 1938.55,1382.52 
  "/>
<polyline clip-path="url(#clip310)" style="stroke:#000000; stroke-linecap:butt; stroke-linejoin:round; stroke-width:4; stroke-opacity:1; fill:none" points="
  2068.46,1282.16 2057.93,1279.12 
  "/>
<path clip-path="url(#clip310)" d="M1612.02 1720.57 L1641.7 1720.57 L1641.7 1724.5 L1612.02 1724.5 L1612.02 1720.57 Z" fill="#000000" fill-rule="evenodd" fill-opacity="1" /><path clip-path="url(#clip310)" d="M1652.6 1733.46 L1660.24 1733.46 L1660.24 1707.1 L1651.93 1708.76 L1651.93 1704.5 L1660.19 1702.84 L1664.87 1702.84 L1664.87 1733.46 L1672.51 1733.46 L1672.51 1737.4 L1652.6 1737.4 L1652.6 1733.46 Z" fill="#000000" fill-rule="evenodd" fill-opacity="1" /><path clip-path="url(#clip310)" d="M1681.95 1731.52 L1686.84 1731.52 L1686.84 1737.4 L1681.95 1737.4 L1681.95 1731.52 Z" fill="#000000" fill-rule="evenodd" fill-opacity="1" /><path clip-path="url(#clip310)" d="M1707.02 1705.91 Q1703.41 1705.91 1701.58 1709.48 Q1699.78 1713.02 1699.78 1720.15 Q1699.78 1727.26 1701.58 1730.82 Q1703.41 1734.36 1707.02 1734.36 Q1710.65 1734.36 1712.46 1730.82 Q1714.29 1727.26 1714.29 1720.15 Q1714.29 1713.02 1712.46 1709.48 Q1710.65 1705.91 1707.02 1705.91 M1707.02 1702.21 Q1712.83 1702.21 1715.89 1706.82 Q1718.97 1711.4 1718.97 1720.15 Q1718.97 1728.88 1715.89 1733.48 Q1712.83 1738.07 1707.02 1738.07 Q1701.21 1738.07 1698.13 1733.48 Q1695.08 1728.88 1695.08 1720.15 Q1695.08 1711.4 1698.13 1706.82 Q1701.21 1702.21 1707.02 1702.21 Z" fill="#000000" fill-rule="evenodd" fill-opacity="1" /><path clip-path="url(#clip310)" d="M1731.41 1617.17 L1761.08 1617.17 L1761.08 1621.11 L1731.41 1621.11 L1731.41 1617.17 Z" fill="#000000" fill-rule="evenodd" fill-opacity="1" /><path clip-path="url(#clip310)" d="M1781.18 1602.52 Q1777.57 1602.52 1775.74 1606.09 Q1773.93 1609.63 1773.93 1616.76 Q1773.93 1623.86 1775.74 1627.43 Q1777.57 1630.97 1781.18 1630.97 Q1784.81 1630.97 1786.62 1627.43 Q1788.45 1623.86 1788.45 1616.76 Q1788.45 1609.63 1786.62 1606.09 Q1784.81 1602.52 1781.18 1602.52 M1781.18 1598.82 Q1786.99 1598.82 1790.04 1603.42 Q1793.12 1608.01 1793.12 1616.76 Q1793.12 1625.48 1790.04 1630.09 Q1786.99 1634.67 1781.18 1634.67 Q1775.37 1634.67 1772.29 1630.09 Q1769.23 1625.48 1769.23 1616.76 Q1769.23 1608.01 1772.29 1603.42 Q1775.37 1598.82 1781.18 1598.82 Z" fill="#000000" fill-rule="evenodd" fill-opacity="1" /><path clip-path="url(#clip310)" d="M1801.34 1628.12 L1806.22 1628.12 L1806.22 1634 L1801.34 1634 L1801.34 1628.12 Z" fill="#000000" fill-rule="evenodd" fill-opacity="1" /><path clip-path="url(#clip310)" d="M1816.45 1599.44 L1834.81 1599.44 L1834.81 1603.38 L1820.74 1603.38 L1820.74 1611.85 Q1821.76 1611.5 1822.77 1611.34 Q1823.79 1611.16 1824.81 1611.16 Q1830.6 1611.16 1833.98 1614.33 Q1837.36 1617.5 1837.36 1622.92 Q1837.36 1628.49 1833.89 1631.6 Q1830.41 1634.67 1824.09 1634.67 Q1821.92 1634.67 1819.65 1634.3 Q1817.4 1633.93 1815 1633.19 L1815 1628.49 Q1817.08 1629.63 1819.3 1630.18 Q1821.52 1630.74 1824 1630.74 Q1828.01 1630.74 1830.34 1628.63 Q1832.68 1626.53 1832.68 1622.92 Q1832.68 1619.3 1830.34 1617.2 Q1828.01 1615.09 1824 1615.09 Q1822.13 1615.09 1820.25 1615.51 Q1818.4 1615.92 1816.45 1616.8 L1816.45 1599.44 Z" fill="#000000" fill-rule="evenodd" fill-opacity="1" /><path clip-path="url(#clip310)" d="M1862.74 1499.13 Q1859.13 1499.13 1857.3 1502.69 Q1855.5 1506.24 1855.5 1513.36 Q1855.5 1520.47 1857.3 1524.04 Q1859.13 1527.58 1862.74 1527.58 Q1866.38 1527.58 1868.18 1524.04 Q1870.01 1520.47 1870.01 1513.36 Q1870.01 1506.24 1868.18 1502.69 Q1866.38 1499.13 1862.74 1499.13 M1862.74 1495.43 Q1868.55 1495.43 1871.61 1500.03 Q1874.69 1504.62 1874.69 1513.36 Q1874.69 1522.09 1871.61 1526.7 Q1868.55 1531.28 1862.74 1531.28 Q1856.93 1531.28 1853.85 1526.7 Q1850.8 1522.09 1850.8 1513.36 Q1850.8 1504.62 1853.85 1500.03 Q1856.93 1495.43 1862.74 1495.43 Z" fill="#000000" fill-rule="evenodd" fill-opacity="1" /><path clip-path="url(#clip310)" d="M1882.9 1524.73 L1887.79 1524.73 L1887.79 1530.61 L1882.9 1530.61 L1882.9 1524.73 Z" fill="#000000" fill-rule="evenodd" fill-opacity="1" /><path clip-path="url(#clip310)" d="M1907.97 1499.13 Q1904.36 1499.13 1902.53 1502.69 Q1900.73 1506.24 1900.73 1513.36 Q1900.73 1520.47 1902.53 1524.04 Q1904.36 1527.58 1907.97 1527.58 Q1911.61 1527.58 1913.41 1524.04 Q1915.24 1520.47 1915.24 1513.36 Q1915.24 1506.24 1913.41 1502.69 Q1911.61 1499.13 1907.97 1499.13 M1907.97 1495.43 Q1913.78 1495.43 1916.84 1500.03 Q1919.92 1504.62 1919.92 1513.36 Q1919.92 1522.09 1916.84 1526.7 Q1913.78 1531.28 1907.97 1531.28 Q1902.16 1531.28 1899.08 1526.7 Q1896.03 1522.09 1896.03 1513.36 Q1896.03 1504.62 1899.08 1500.03 Q1902.16 1495.43 1907.97 1495.43 Z" fill="#000000" fill-rule="evenodd" fill-opacity="1" /><path clip-path="url(#clip310)" d="M1982.13 1395.74 Q1978.52 1395.74 1976.69 1399.3 Q1974.88 1402.84 1974.88 1409.97 Q1974.88 1417.08 1976.69 1420.64 Q1978.52 1424.19 1982.13 1424.19 Q1985.76 1424.19 1987.57 1420.64 Q1989.4 1417.08 1989.4 1409.97 Q1989.4 1402.84 1987.57 1399.3 Q1985.76 1395.74 1982.13 1395.74 M1982.13 1392.03 Q1987.94 1392.03 1990.99 1396.64 Q1994.07 1401.22 1994.07 1409.97 Q1994.07 1418.7 1990.99 1423.31 Q1987.94 1427.89 1982.13 1427.89 Q1976.32 1427.89 1973.24 1423.31 Q1970.18 1418.7 1970.18 1409.97 Q1970.18 1401.22 1973.24 1396.64 Q1976.32 1392.03 1982.13 1392.03 Z" fill="#000000" fill-rule="evenodd" fill-opacity="1" /><path clip-path="url(#clip310)" d="M2002.29 1421.34 L2007.18 1421.34 L2007.18 1427.22 L2002.29 1427.22 L2002.29 1421.34 Z" fill="#000000" fill-rule="evenodd" fill-opacity="1" /><path clip-path="url(#clip310)" d="M2017.41 1392.66 L2035.76 1392.66 L2035.76 1396.59 L2021.69 1396.59 L2021.69 1405.06 Q2022.71 1404.72 2023.73 1404.56 Q2024.74 1404.37 2025.76 1404.37 Q2031.55 1404.37 2034.93 1407.54 Q2038.31 1410.71 2038.31 1416.13 Q2038.31 1421.71 2034.84 1424.81 Q2031.36 1427.89 2025.05 1427.89 Q2022.87 1427.89 2020.6 1427.52 Q2018.36 1427.15 2015.95 1426.41 L2015.95 1421.71 Q2018.03 1422.84 2020.25 1423.4 Q2022.48 1423.95 2024.95 1423.95 Q2028.96 1423.95 2031.3 1421.85 Q2033.63 1419.74 2033.63 1416.13 Q2033.63 1412.52 2031.3 1410.41 Q2028.96 1408.31 2024.95 1408.31 Q2023.08 1408.31 2021.2 1408.72 Q2019.35 1409.14 2017.41 1410.02 L2017.41 1392.66 Z" fill="#000000" fill-rule="evenodd" fill-opacity="1" /><path clip-path="url(#clip310)" d="M2090.24 1319.89 L2097.88 1319.89 L2097.88 1293.52 L2089.57 1295.19 L2089.57 1290.93 L2097.84 1289.26 L2102.51 1289.26 L2102.51 1319.89 L2110.15 1319.89 L2110.15 1323.82 L2090.24 1323.82 L2090.24 1319.89 Z" fill="#000000" fill-rule="evenodd" fill-opacity="1" /><path clip-path="url(#clip310)" d="M2119.6 1317.94 L2124.48 1317.94 L2124.48 1323.82 L2119.6 1323.82 L2119.6 1317.94 Z" fill="#000000" fill-rule="evenodd" fill-opacity="1" /><path clip-path="url(#clip310)" d="M2144.66 1292.34 Q2141.05 1292.34 2139.22 1295.91 Q2137.42 1299.45 2137.42 1306.58 Q2137.42 1313.69 2139.22 1317.25 Q2141.05 1320.79 2144.66 1320.79 Q2148.3 1320.79 2150.1 1317.25 Q2151.93 1313.69 2151.93 1306.58 Q2151.93 1299.45 2150.1 1295.91 Q2148.3 1292.34 2144.66 1292.34 M2144.66 1288.64 Q2150.47 1288.64 2153.53 1293.25 Q2156.61 1297.83 2156.61 1306.58 Q2156.61 1315.31 2153.53 1319.91 Q2150.47 1324.5 2144.66 1324.5 Q2138.85 1324.5 2135.78 1319.91 Q2132.72 1315.31 2132.72 1306.58 Q2132.72 1297.83 2135.78 1293.25 Q2138.85 1288.64 2144.66 1288.64 Z" fill="#000000" fill-rule="evenodd" fill-opacity="1" /><polyline clip-path="url(#clip312)" style="stroke:#000000; stroke-linecap:butt; stroke-linejoin:round; stroke-width:2; stroke-opacity:0.1; fill:none" points="
  699.813,1430.22 1206.01,991.839 
  "/>
<polyline clip-path="url(#clip312)" style="stroke:#000000; stroke-linecap:butt; stroke-linejoin:round; stroke-width:2; stroke-opacity:0.1; fill:none" points="
  1206.01,991.839 2082.78,1244.94 
  "/>
<polyline clip-path="url(#clip312)" style="stroke:#000000; stroke-linecap:butt; stroke-linejoin:round; stroke-width:2; stroke-opacity:0.1; fill:none" points="
  699.813,1298.58 1206.01,860.196 
  "/>
<polyline clip-path="url(#clip312)" style="stroke:#000000; stroke-linecap:butt; stroke-linejoin:round; stroke-width:2; stroke-opacity:0.1; fill:none" points="
  1206.01,860.196 2082.78,1113.3 
  "/>
<polyline clip-path="url(#clip312)" style="stroke:#000000; stroke-linecap:butt; stroke-linejoin:round; stroke-width:2; stroke-opacity:0.1; fill:none" points="
  699.813,1166.94 1206.01,728.552 
  "/>
<polyline clip-path="url(#clip312)" style="stroke:#000000; stroke-linecap:butt; stroke-linejoin:round; stroke-width:2; stroke-opacity:0.1; fill:none" points="
  1206.01,728.552 2082.78,981.653 
  "/>
<polyline clip-path="url(#clip312)" style="stroke:#000000; stroke-linecap:butt; stroke-linejoin:round; stroke-width:2; stroke-opacity:0.1; fill:none" points="
  699.813,1035.29 1206.01,596.909 
  "/>
<polyline clip-path="url(#clip312)" style="stroke:#000000; stroke-linecap:butt; stroke-linejoin:round; stroke-width:2; stroke-opacity:0.1; fill:none" points="
  1206.01,596.909 2082.78,850.01 
  "/>
<polyline clip-path="url(#clip312)" style="stroke:#000000; stroke-linecap:butt; stroke-linejoin:round; stroke-width:2; stroke-opacity:0.1; fill:none" points="
  699.813,903.65 1206.01,465.266 
  "/>
<polyline clip-path="url(#clip312)" style="stroke:#000000; stroke-linecap:butt; stroke-linejoin:round; stroke-width:2; stroke-opacity:0.1; fill:none" points="
  1206.01,465.266 2082.78,718.367 
  "/>
<polyline clip-path="url(#clip312)" style="stroke:#000000; stroke-linecap:butt; stroke-linejoin:round; stroke-width:2; stroke-opacity:0.1; fill:none" points="
  699.813,772.006 1206.01,333.622 
  "/>
<polyline clip-path="url(#clip312)" style="stroke:#000000; stroke-linecap:butt; stroke-linejoin:round; stroke-width:2; stroke-opacity:0.1; fill:none" points="
  1206.01,333.622 2082.78,586.723 
  "/>
<polyline clip-path="url(#clip312)" style="stroke:#000000; stroke-linecap:butt; stroke-linejoin:round; stroke-width:2; stroke-opacity:0.1; fill:none" points="
  699.813,640.363 1206.01,201.979 
  "/>
<polyline clip-path="url(#clip312)" style="stroke:#000000; stroke-linecap:butt; stroke-linejoin:round; stroke-width:2; stroke-opacity:0.1; fill:none" points="
  1206.01,201.979 2082.78,455.08 
  "/>
<polyline clip-path="url(#clip310)" style="stroke:#000000; stroke-linecap:butt; stroke-linejoin:round; stroke-width:4; stroke-opacity:1; fill:none" points="
  699.813,1455.04 699.813,578.269 
  "/>
<polyline clip-path="url(#clip310)" style="stroke:#000000; stroke-linecap:butt; stroke-linejoin:round; stroke-width:4; stroke-opacity:1; fill:none" points="
  699.813,1430.22 705.887,1424.96 
  "/>
<polyline clip-path="url(#clip310)" style="stroke:#000000; stroke-linecap:butt; stroke-linejoin:round; stroke-width:4; stroke-opacity:1; fill:none" points="
  699.813,1298.58 705.887,1293.32 
  "/>
<polyline clip-path="url(#clip310)" style="stroke:#000000; stroke-linecap:butt; stroke-linejoin:round; stroke-width:4; stroke-opacity:1; fill:none" points="
  699.813,1166.94 705.887,1161.68 
  "/>
<polyline clip-path="url(#clip310)" style="stroke:#000000; stroke-linecap:butt; stroke-linejoin:round; stroke-width:4; stroke-opacity:1; fill:none" points="
  699.813,1035.29 705.887,1030.03 
  "/>
<polyline clip-path="url(#clip310)" style="stroke:#000000; stroke-linecap:butt; stroke-linejoin:round; stroke-width:4; stroke-opacity:1; fill:none" points="
  699.813,903.65 705.887,898.389 
  "/>
<polyline clip-path="url(#clip310)" style="stroke:#000000; stroke-linecap:butt; stroke-linejoin:round; stroke-width:4; stroke-opacity:1; fill:none" points="
  699.813,772.006 705.887,766.746 
  "/>
<polyline clip-path="url(#clip310)" style="stroke:#000000; stroke-linecap:butt; stroke-linejoin:round; stroke-width:4; stroke-opacity:1; fill:none" points="
  699.813,640.363 705.887,635.102 
  "/>
<path clip-path="url(#clip310)" d="M655.612 1416.02 Q652.001 1416.02 650.173 1419.59 Q648.367 1423.13 648.367 1430.26 Q648.367 1437.36 650.173 1440.93 Q652.001 1444.47 655.612 1444.47 Q659.247 1444.47 661.052 1440.93 Q662.881 1437.36 662.881 1430.26 Q662.881 1423.13 661.052 1419.59 Q659.247 1416.02 655.612 1416.02 M655.612 1412.32 Q661.423 1412.32 664.478 1416.92 Q667.557 1421.51 667.557 1430.26 Q667.557 1438.98 664.478 1443.59 Q661.423 1448.17 655.612 1448.17 Q649.802 1448.17 646.724 1443.59 Q643.668 1438.98 643.668 1430.26 Q643.668 1421.51 646.724 1416.92 Q649.802 1412.32 655.612 1412.32 Z" fill="#000000" fill-rule="evenodd" fill-opacity="1" /><path clip-path="url(#clip310)" d="M651.238 1311.92 L667.557 1311.92 L667.557 1315.86 L645.613 1315.86 L645.613 1311.92 Q648.275 1309.17 652.858 1304.54 Q657.464 1299.89 658.645 1298.54 Q660.89 1296.02 661.77 1294.29 Q662.673 1292.53 662.673 1290.84 Q662.673 1288.08 660.728 1286.35 Q658.807 1284.61 655.705 1284.61 Q653.506 1284.61 651.052 1285.37 Q648.622 1286.14 645.844 1287.69 L645.844 1282.97 Q648.668 1281.83 651.122 1281.25 Q653.575 1280.67 655.612 1280.67 Q660.983 1280.67 664.177 1283.36 Q667.372 1286.04 667.372 1290.54 Q667.372 1292.67 666.561 1294.59 Q665.774 1296.48 663.668 1299.08 Q663.089 1299.75 659.987 1302.97 Q656.886 1306.16 651.238 1311.92 Z" fill="#000000" fill-rule="evenodd" fill-opacity="1" /><path clip-path="url(#clip310)" d="M657.974 1153.73 L646.168 1172.18 L657.974 1172.18 L657.974 1153.73 M656.747 1149.66 L662.626 1149.66 L662.626 1172.18 L667.557 1172.18 L667.557 1176.07 L662.626 1176.07 L662.626 1184.22 L657.974 1184.22 L657.974 1176.07 L642.372 1176.07 L642.372 1171.55 L656.747 1149.66 Z" fill="#000000" fill-rule="evenodd" fill-opacity="1" /><path clip-path="url(#clip310)" d="M656.029 1033.43 Q652.881 1033.43 651.029 1035.58 Q649.2 1037.73 649.2 1041.48 Q649.2 1045.21 651.029 1047.39 Q652.881 1049.54 656.029 1049.54 Q659.177 1049.54 661.006 1047.39 Q662.858 1045.21 662.858 1041.48 Q662.858 1037.73 661.006 1035.58 Q659.177 1033.43 656.029 1033.43 M665.312 1018.78 L665.312 1023.04 Q663.552 1022.2 661.747 1021.76 Q659.964 1021.32 658.205 1021.32 Q653.575 1021.32 651.122 1024.45 Q648.691 1027.57 648.344 1033.89 Q649.71 1031.88 651.77 1030.81 Q653.83 1029.73 656.307 1029.73 Q661.515 1029.73 664.524 1032.9 Q667.557 1036.05 667.557 1041.48 Q667.557 1046.81 664.409 1050.03 Q661.261 1053.24 656.029 1053.24 Q650.034 1053.24 646.863 1048.66 Q643.691 1044.05 643.691 1035.33 Q643.691 1027.13 647.58 1022.27 Q651.469 1017.39 658.02 1017.39 Q659.779 1017.39 661.562 1017.74 Q663.367 1018.08 665.312 1018.78 Z" fill="#000000" fill-rule="evenodd" fill-opacity="1" /><path clip-path="url(#clip310)" d="M655.705 904.518 Q652.372 904.518 650.45 906.3 Q648.552 908.082 648.552 911.207 Q648.552 914.332 650.45 916.115 Q652.372 917.897 655.705 917.897 Q659.038 917.897 660.96 916.115 Q662.881 914.309 662.881 911.207 Q662.881 908.082 660.96 906.3 Q659.062 904.518 655.705 904.518 M651.029 902.527 Q648.02 901.786 646.33 899.726 Q644.663 897.666 644.663 894.703 Q644.663 890.559 647.603 888.152 Q650.566 885.745 655.705 885.745 Q660.867 885.745 663.807 888.152 Q666.747 890.559 666.747 894.703 Q666.747 897.666 665.057 899.726 Q663.39 901.786 660.404 902.527 Q663.784 903.314 665.659 905.606 Q667.557 907.897 667.557 911.207 Q667.557 916.23 664.478 918.916 Q661.423 921.601 655.705 921.601 Q649.988 921.601 646.909 918.916 Q643.853 916.23 643.853 911.207 Q643.853 907.897 645.751 905.606 Q647.65 903.314 651.029 902.527 M649.316 895.143 Q649.316 897.828 650.983 899.332 Q652.673 900.837 655.705 900.837 Q658.714 900.837 660.404 899.332 Q662.117 897.828 662.117 895.143 Q662.117 892.457 660.404 890.953 Q658.714 889.448 655.705 889.448 Q652.673 889.448 650.983 890.953 Q649.316 892.457 649.316 895.143 Z" fill="#000000" fill-rule="evenodd" fill-opacity="1" /><path clip-path="url(#clip310)" d="M616.261 785.351 L623.9 785.351 L623.9 758.985 L615.59 760.652 L615.59 756.393 L623.853 754.726 L628.529 754.726 L628.529 785.351 L636.168 785.351 L636.168 789.286 L616.261 789.286 L616.261 785.351 Z" fill="#000000" fill-rule="evenodd" fill-opacity="1" /><path clip-path="url(#clip310)" d="M655.612 757.805 Q652.001 757.805 650.173 761.37 Q648.367 764.911 648.367 772.041 Q648.367 779.147 650.173 782.712 Q652.001 786.254 655.612 786.254 Q659.247 786.254 661.052 782.712 Q662.881 779.147 662.881 772.041 Q662.881 764.911 661.052 761.37 Q659.247 757.805 655.612 757.805 M655.612 754.101 Q661.423 754.101 664.478 758.708 Q667.557 763.291 667.557 772.041 Q667.557 780.768 664.478 785.374 Q661.423 789.958 655.612 789.958 Q649.802 789.958 646.724 785.374 Q643.668 780.768 643.668 772.041 Q643.668 763.291 646.724 758.708 Q649.802 754.101 655.612 754.101 Z" fill="#000000" fill-rule="evenodd" fill-opacity="1" /><path clip-path="url(#clip310)" d="M617.858 653.708 L625.497 653.708 L625.497 627.342 L617.187 629.009 L617.187 624.75 L625.451 623.083 L630.127 623.083 L630.127 653.708 L637.765 653.708 L637.765 657.643 L617.858 657.643 L617.858 653.708 Z" fill="#000000" fill-rule="evenodd" fill-opacity="1" /><path clip-path="url(#clip310)" d="M651.238 653.708 L667.557 653.708 L667.557 657.643 L645.613 657.643 L645.613 653.708 Q648.275 650.953 652.858 646.324 Q657.464 641.671 658.645 640.328 Q660.89 637.805 661.77 636.069 Q662.673 634.31 662.673 632.62 Q662.673 629.865 660.728 628.129 Q658.807 626.393 655.705 626.393 Q653.506 626.393 651.052 627.157 Q648.622 627.921 645.844 629.472 L645.844 624.75 Q648.668 623.615 651.122 623.037 Q653.575 622.458 655.612 622.458 Q660.983 622.458 664.177 625.143 Q667.372 627.828 667.372 632.319 Q667.372 634.449 666.561 636.37 Q665.774 638.268 663.668 640.861 Q663.089 641.532 659.987 644.749 Q656.886 647.944 651.238 653.708 Z" fill="#000000" fill-rule="evenodd" fill-opacity="1" /><polyline clip-path="url(#clip312)" style="stroke:#009af9; stroke-linecap:butt; stroke-linejoin:round; stroke-width:4; stroke-opacity:1; fill:none" points="
  1630.07,1130.8 1638.48,1131.94 1646.79,1133.16 1654.98,1134.47 1663.07,1135.86 1681.33,1139.39 1698.94,1143.34 1715.85,1147.71 1732.05,1152.46 1747.48,1157.59 
  1762.12,1163.07 1775.93,1168.89 1788.87,1175.02 1800.93,1181.45 1812.08,1188.16 1822.28,1195.12 1831.52,1202.31 1839.78,1209.7 1847.03,1217.28 1853.27,1225.02 
  1858.47,1232.89 1863.34,1242.49 1866.69,1252.22 1868.5,1262.01 1868.77,1271.84 1867.5,1281.65 1864.69,1291.41 1860.36,1301.06 1854.51,1310.57 1848.39,1318.46 
  1841.23,1326.19 1833.02,1333.74 1823.79,1341.08 1813.57,1348.19 1802.37,1355.04 1790.22,1361.61 1777.15,1367.87 1761.94,1374.31 1745.73,1380.34 1728.55,1385.93 
  1710.45,1391.06 1691.49,1395.71 1671.7,1399.85 1651.15,1403.47 1629.9,1406.54 1609.72,1408.87 1589.04,1410.71 1567.91,1412.04 1546.36,1412.87 1524.46,1413.17 
  1502.25,1412.94 1479.78,1412.17 1457.1,1410.86 1432.63,1408.85 1408.04,1406.2 1383.41,1402.92 1358.8,1399 1334.27,1394.45 1309.9,1389.27 1285.74,1383.46 
  1261.87,1377.04 1234.64,1368.83 1207.98,1359.81 1181.96,1350.01 1156.7,1339.44 1132.27,1328.13 1108.77,1316.1 1086.28,1303.38 1064.87,1290.01 1046.83,1277.6 
  1029.75,1264.73 1013.7,1251.42 998.71,1237.69 984.828,1223.58 972.093,1209.12 960.54,1194.34 950.202,1179.26 942.159,1165.83 935.09,1152.22 929.012,1138.45 
  923.935,1124.56 919.873,1110.56 916.833,1096.48 914.822,1082.34 913.844,1068.16 913.958,1052.7 915.303,1037.25 917.875,1021.85 921.668,1006.54 926.671,991.33 
  932.873,976.267 940.256,961.376 948.802,946.688 958.55,932.145 969.426,917.867 981.404,903.88 994.45,890.213 1008.53,876.893 1023.61,863.945 1039.65,851.394 
  1056.61,839.265 1076.37,826.373 1097.14,814.053 1118.85,802.334 1141.42,791.239 1164.79,780.794 1188.88,771.019 1213.62,761.933 1238.93,753.554 1263.46,746.252 
  1288.36,739.614 1313.55,733.649 1338.97,728.364 1364.54,723.764 1390.19,719.853 1415.84,716.631 1441.43,714.098 1467.87,712.19 1494.07,711.019 1519.96,710.575 
  1545.44,710.848 1570.44,711.828 1594.88,713.498 1618.69,715.842 1641.79,718.841 1660.63,721.859 1678.87,725.313 1696.48,729.188 1713.41,733.47 1729.63,738.141 
  1745.1,743.186 1759.79,748.585 1773.67,754.32 1789.46,761.748 1803.93,769.612 1817.05,777.871 1828.76,786.487 1839.04,795.419 1847.83,804.625 1855.12,814.061 
  1860.88,823.685 1864.8,832.628 1867.41,841.657 1868.7,850.737 1868.67,859.833 1867.32,868.912 1864.66,877.937 1860.68,886.876 1855.41,895.692 1849.39,903.698 
  1842.3,911.544 1834.14,919.205 1824.94,926.655 1814.71,933.868 1803.49,940.822 1791.29,947.49 1778.15,953.851 1763.9,959.958 1748.76,965.702 1732.75,971.064 
  1715.91,976.021 1698.28,980.554 1679.92,984.644 1660.85,988.273 1641.13,991.425 1618.32,994.371 1594.81,996.679 1570.68,998.329 1546.01,999.307 1520.87,999.597 
  1495.34,999.189 1469.48,998.072 1443.39,996.238 1419.61,993.953 1395.76,991.073 1371.9,987.596 1348.08,983.524 1324.38,978.858 1300.84,973.601 1277.53,967.759 
  1254.5,961.338 1228.55,953.285 1203.14,944.497 1178.35,934.991 1154.25,924.785 1130.93,913.9 1108.46,902.361 1086.91,890.191 1066.37,877.419 1048.29,865.082 
  1031.17,852.279 1015.07,839.036 1000.02,825.38 986.07,811.34 973.257,796.945 961.617,782.226 951.183,767.215 942.105,752.16 934.253,736.885 927.647,721.421 
  922.307,705.801 918.245,690.058 915.474,674.226 914.001,658.338 913.831,642.429 914.911,626.994 917.216,611.603 920.741,596.285 925.475,581.072 931.408,565.994 
  938.523,551.082 946.802,536.364 956.225,521.872 967.045,507.278 979.012,492.981 992.093,479.009 1006.25,465.391 1021.45,452.155 1037.65,439.328 1054.81,426.933 
  1072.87,414.997 1093.65,402.473 1115.4,390.554 1138.03,379.267 1161.5,368.637 1185.7,358.686 1210.57,349.434 1236.03,340.899 1261.99,333.096 1281.12,327.896 
  1300.43,323.093 1319.9,318.691 1339.49,314.693 1359.17,311.102 1378.91,307.919 1398.67,305.143 1418.41,302.777 1438.11,300.819 1457.72,299.267 1477.23,298.12 
  1496.58,297.375 1515.76,297.028 1534.72,297.076 1553.44,297.514 1571.88,298.336 1586.78,299.294 1601.46,300.503 1615.9,301.959 1630.07,303.657 
  "/>
<path clip-path="url(#clip310)" d="
M2227.37 209.375 L2557.46 209.375 L2557.46 105.695 L2227.37 105.695  Z
  " fill="#ffffff" fill-rule="evenodd" fill-opacity="1"/>
<polyline clip-path="url(#clip310)" style="stroke:#000000; stroke-linecap:butt; stroke-linejoin:round; stroke-width:4; stroke-opacity:1; fill:none" points="
  2227.37,209.375 2557.46,209.375 2557.46,105.695 2227.37,105.695 2227.37,209.375 
  "/>
<polyline clip-path="url(#clip310)" style="stroke:#009af9; stroke-linecap:butt; stroke-linejoin:round; stroke-width:4; stroke-opacity:1; fill:none" points="
  2255.14,157.535 2421.73,157.535 
  "/>
<path clip-path="url(#clip310)" d="M2463.34 177.223 Q2461.53 181.852 2459.82 183.264 Q2458.11 184.676 2455.24 184.676 L2451.83 184.676 L2451.83 181.112 L2454.33 181.112 Q2456.09 181.112 2457.07 180.278 Q2458.04 179.445 2459.22 176.343 L2459.98 174.399 L2449.5 148.889 L2454.01 148.889 L2462.11 169.167 L2470.21 148.889 L2474.73 148.889 L2463.34 177.223 Z" fill="#000000" fill-rule="evenodd" fill-opacity="1" /><path clip-path="url(#clip310)" d="M2482.02 170.88 L2489.66 170.88 L2489.66 144.515 L2481.35 146.181 L2481.35 141.922 L2489.61 140.255 L2494.29 140.255 L2494.29 170.88 L2501.93 170.88 L2501.93 174.815 L2482.02 174.815 L2482.02 170.88 Z" fill="#000000" fill-rule="evenodd" fill-opacity="1" /></svg>
