<?xml version="1.0" encoding="utf-8"?>
<svg xmlns="http://www.w3.org/2000/svg" xmlns:xlink="http://www.w3.org/1999/xlink" width="672" height="480" viewBox="0 0 2688 1920">
<defs>
  <clipPath id="clip680">
    <rect x="0" y="0" width="2688" height="1920"/>
  </clipPath>
</defs>
<path clip-path="url(#clip680)" d="
M0 1920 L2688 1920 L2688 0 L0 0  Z
  " fill="#ffffff" fill-rule="evenodd" fill-opacity="1"/>
<defs>
  <clipPath id="clip681">
    <rect x="537" y="0" width="1883" height="1883"/>
  </clipPath>
</defs>
<defs>
  <clipPath id="clip682">
    <rect x="141" y="47" width="2500" height="1755"/>
  </clipPath>
</defs>
<path clip-path="url(#clip682)" d="
M777.947 1395.03 L673.549 565.144 L1238.09 275.65 L2039.14 426.511 L1952.87 1204.8 L1579.33 1719.77 L777.947 1395.03  Z
  " fill="#ffffff" fill-rule="evenodd" fill-opacity="1"/>
<polyline clip-path="url(#clip682)" style="stroke:#000000; stroke-linecap:butt; stroke-linejoin:round; stroke-width:2; stroke-opacity:0.1; fill:none" points="
  762.237,1431.83 1267.08,1001.27 
  "/>
<polyline clip-path="url(#clip682)" style="stroke:#000000; stroke-linecap:butt; stroke-linejoin:round; stroke-width:2; stroke-opacity:0.1; fill:none" points="
  1267.08,1001.27 1250.18,240.754 
  "/>
<polyline clip-path="url(#clip682)" style="stroke:#000000; stroke-linecap:butt; stroke-linejoin:round; stroke-width:2; stroke-opacity:0.1; fill:none" points="
  944.022,1505.5 1428.05,1050.57 
  "/>
<polyline clip-path="url(#clip682)" style="stroke:#000000; stroke-linecap:butt; stroke-linejoin:round; stroke-width:2; stroke-opacity:0.1; fill:none" points="
  1428.05,1050.57 1433.19,275.221 
  "/>
<polyline clip-path="url(#clip682)" style="stroke:#000000; stroke-linecap:butt; stroke-linejoin:round; stroke-width:2; stroke-opacity:0.1; fill:none" points="
  1137.33,1583.83 1597.3,1102.41 
  "/>
<polyline clip-path="url(#clip682)" style="stroke:#000000; stroke-linecap:butt; stroke-linejoin:round; stroke-width:2; stroke-opacity:0.1; fill:none" points="
  1597.3,1102.41 1626.97,311.716 
  "/>
<polyline clip-path="url(#clip682)" style="stroke:#000000; stroke-linecap:butt; stroke-linejoin:round; stroke-width:2; stroke-opacity:0.1; fill:none" points="
  1343.31,1667.3 1775.48,1156.99 
  "/>
<polyline clip-path="url(#clip682)" style="stroke:#000000; stroke-linecap:butt; stroke-linejoin:round; stroke-width:2; stroke-opacity:0.1; fill:none" points="
  1775.48,1156.99 1832.5,350.424 
  "/>
<polyline clip-path="url(#clip682)" style="stroke:#000000; stroke-linecap:butt; stroke-linejoin:round; stroke-width:2; stroke-opacity:0.1; fill:none" points="
  1563.22,1756.41 1963.33,1214.53 
  "/>
<polyline clip-path="url(#clip682)" style="stroke:#000000; stroke-linecap:butt; stroke-linejoin:round; stroke-width:2; stroke-opacity:0.1; fill:none" points="
  1963.33,1214.53 2050.88,391.552 
  "/>
<polyline clip-path="url(#clip680)" style="stroke:#000000; stroke-linecap:butt; stroke-linejoin:round; stroke-width:4; stroke-opacity:1; fill:none" points="
  741.154,1423.29 1590.61,1767.51 
  "/>
<polyline clip-path="url(#clip680)" style="stroke:#000000; stroke-linecap:butt; stroke-linejoin:round; stroke-width:4; stroke-opacity:1; fill:none" points="
  762.237,1431.83 769.602,1425.55 
  "/>
<polyline clip-path="url(#clip680)" style="stroke:#000000; stroke-linecap:butt; stroke-linejoin:round; stroke-width:4; stroke-opacity:1; fill:none" points="
  944.022,1505.5 951.122,1498.82 
  "/>
<polyline clip-path="url(#clip680)" style="stroke:#000000; stroke-linecap:butt; stroke-linejoin:round; stroke-width:4; stroke-opacity:1; fill:none" points="
  1137.33,1583.83 1144.12,1576.73 
  "/>
<polyline clip-path="url(#clip680)" style="stroke:#000000; stroke-linecap:butt; stroke-linejoin:round; stroke-width:4; stroke-opacity:1; fill:none" points="
  1343.31,1667.3 1349.72,1659.72 
  "/>
<polyline clip-path="url(#clip680)" style="stroke:#000000; stroke-linecap:butt; stroke-linejoin:round; stroke-width:4; stroke-opacity:1; fill:none" points="
  1563.22,1756.41 1569.2,1748.32 
  "/>
<path clip-path="url(#clip680)" d="M643.179 1462.18 L672.855 1462.18 L672.855 1466.11 L643.179 1466.11 L643.179 1462.18 Z" fill="#000000" fill-rule="evenodd" fill-opacity="1" /><path clip-path="url(#clip680)" d="M683.758 1475.07 L691.397 1475.07 L691.397 1448.71 L683.087 1450.37 L683.087 1446.11 L691.35 1444.45 L696.026 1444.45 L696.026 1475.07 L703.665 1475.07 L703.665 1479.01 L683.758 1479.01 L683.758 1475.07 Z" fill="#000000" fill-rule="evenodd" fill-opacity="1" /><path clip-path="url(#clip680)" d="M713.11 1473.13 L717.994 1473.13 L717.994 1479.01 L713.11 1479.01 L713.11 1473.13 Z" fill="#000000" fill-rule="evenodd" fill-opacity="1" /><path clip-path="url(#clip680)" d="M738.179 1447.53 Q734.568 1447.53 732.739 1451.09 Q730.934 1454.63 730.934 1461.76 Q730.934 1468.87 732.739 1472.43 Q734.568 1475.97 738.179 1475.97 Q741.813 1475.97 743.619 1472.43 Q745.447 1468.87 745.447 1461.76 Q745.447 1454.63 743.619 1451.09 Q741.813 1447.53 738.179 1447.53 M738.179 1443.82 Q743.989 1443.82 747.045 1448.43 Q750.123 1453.01 750.123 1461.76 Q750.123 1470.49 747.045 1475.09 Q743.989 1479.68 738.179 1479.68 Q732.369 1479.68 729.29 1475.09 Q726.235 1470.49 726.235 1461.76 Q726.235 1453.01 729.29 1448.43 Q732.369 1443.82 738.179 1443.82 Z" fill="#000000" fill-rule="evenodd" fill-opacity="1" /><path clip-path="url(#clip680)" d="M825.959 1535.84 L855.635 1535.84 L855.635 1539.78 L825.959 1539.78 L825.959 1535.84 Z" fill="#000000" fill-rule="evenodd" fill-opacity="1" /><path clip-path="url(#clip680)" d="M875.728 1521.19 Q872.117 1521.19 870.288 1524.75 Q868.482 1528.3 868.482 1535.43 Q868.482 1542.53 870.288 1546.1 Q872.117 1549.64 875.728 1549.64 Q879.362 1549.64 881.167 1546.1 Q882.996 1542.53 882.996 1535.43 Q882.996 1528.3 881.167 1524.75 Q879.362 1521.19 875.728 1521.19 M875.728 1517.49 Q881.538 1517.49 884.593 1522.09 Q887.672 1526.68 887.672 1535.43 Q887.672 1544.15 884.593 1548.76 Q881.538 1553.34 875.728 1553.34 Q869.918 1553.34 866.839 1548.76 Q863.783 1544.15 863.783 1535.43 Q863.783 1526.68 866.839 1522.09 Q869.918 1517.49 875.728 1517.49 Z" fill="#000000" fill-rule="evenodd" fill-opacity="1" /><path clip-path="url(#clip680)" d="M895.89 1546.79 L900.774 1546.79 L900.774 1552.67 L895.89 1552.67 L895.89 1546.79 Z" fill="#000000" fill-rule="evenodd" fill-opacity="1" /><path clip-path="url(#clip680)" d="M911.005 1518.11 L929.362 1518.11 L929.362 1522.05 L915.288 1522.05 L915.288 1530.52 Q916.306 1530.17 917.325 1530.01 Q918.343 1529.82 919.362 1529.82 Q925.149 1529.82 928.528 1532.99 Q931.908 1536.17 931.908 1541.58 Q931.908 1547.16 928.436 1550.26 Q924.964 1553.34 918.644 1553.34 Q916.468 1553.34 914.2 1552.97 Q911.954 1552.6 909.547 1551.86 L909.547 1547.16 Q911.63 1548.3 913.852 1548.85 Q916.075 1549.41 918.552 1549.41 Q922.556 1549.41 924.894 1547.3 Q927.232 1545.19 927.232 1541.58 Q927.232 1537.97 924.894 1535.86 Q922.556 1533.76 918.552 1533.76 Q916.677 1533.76 914.802 1534.18 Q912.95 1534.59 911.005 1535.47 L911.005 1518.11 Z" fill="#000000" fill-rule="evenodd" fill-opacity="1" /><path clip-path="url(#clip680)" d="M1068.04 1599.52 Q1064.43 1599.52 1062.6 1603.09 Q1060.8 1606.63 1060.8 1613.76 Q1060.8 1620.87 1062.6 1624.43 Q1064.43 1627.97 1068.04 1627.97 Q1071.68 1627.97 1073.48 1624.43 Q1075.31 1620.87 1075.31 1613.76 Q1075.31 1606.63 1073.48 1603.09 Q1071.68 1599.52 1068.04 1599.52 M1068.04 1595.82 Q1073.85 1595.82 1076.91 1600.43 Q1079.99 1605.01 1079.99 1613.76 Q1079.99 1622.49 1076.91 1627.09 Q1073.85 1631.68 1068.04 1631.68 Q1062.23 1631.68 1059.16 1627.09 Q1056.1 1622.49 1056.1 1613.76 Q1056.1 1605.01 1059.16 1600.43 Q1062.23 1595.82 1068.04 1595.82 Z" fill="#000000" fill-rule="evenodd" fill-opacity="1" /><path clip-path="url(#clip680)" d="M1088.21 1625.13 L1093.09 1625.13 L1093.09 1631.01 L1088.21 1631.01 L1088.21 1625.13 Z" fill="#000000" fill-rule="evenodd" fill-opacity="1" /><path clip-path="url(#clip680)" d="M1113.28 1599.52 Q1109.66 1599.52 1107.84 1603.09 Q1106.03 1606.63 1106.03 1613.76 Q1106.03 1620.87 1107.84 1624.43 Q1109.66 1627.97 1113.28 1627.97 Q1116.91 1627.97 1118.72 1624.43 Q1120.54 1620.87 1120.54 1613.76 Q1120.54 1606.63 1118.72 1603.09 Q1116.91 1599.52 1113.28 1599.52 M1113.28 1595.82 Q1119.09 1595.82 1122.14 1600.43 Q1125.22 1605.01 1125.22 1613.76 Q1125.22 1622.49 1122.14 1627.09 Q1119.09 1631.68 1113.28 1631.68 Q1107.47 1631.68 1104.39 1627.09 Q1101.33 1622.49 1101.33 1613.76 Q1101.33 1605.01 1104.39 1600.43 Q1107.47 1595.82 1113.28 1595.82 Z" fill="#000000" fill-rule="evenodd" fill-opacity="1" /><path clip-path="url(#clip680)" d="M1275.01 1682.99 Q1271.4 1682.99 1269.57 1686.55 Q1267.77 1690.09 1267.77 1697.22 Q1267.77 1704.33 1269.57 1707.9 Q1271.4 1711.44 1275.01 1711.44 Q1278.65 1711.44 1280.45 1707.9 Q1282.28 1704.33 1282.28 1697.22 Q1282.28 1690.09 1280.45 1686.55 Q1278.65 1682.99 1275.01 1682.99 M1275.01 1679.28 Q1280.82 1679.28 1283.88 1683.89 Q1286.96 1688.47 1286.96 1697.22 Q1286.96 1705.95 1283.88 1710.56 Q1280.82 1715.14 1275.01 1715.14 Q1269.2 1715.14 1266.12 1710.56 Q1263.07 1705.95 1263.07 1697.22 Q1263.07 1688.47 1266.12 1683.89 Q1269.2 1679.28 1275.01 1679.28 Z" fill="#000000" fill-rule="evenodd" fill-opacity="1" /><path clip-path="url(#clip680)" d="M1295.17 1708.59 L1300.06 1708.59 L1300.06 1714.47 L1295.17 1714.47 L1295.17 1708.59 Z" fill="#000000" fill-rule="evenodd" fill-opacity="1" /><path clip-path="url(#clip680)" d="M1310.29 1679.91 L1328.65 1679.91 L1328.65 1683.85 L1314.57 1683.85 L1314.57 1692.32 Q1315.59 1691.97 1316.61 1691.81 Q1317.63 1691.62 1318.65 1691.62 Q1324.43 1691.62 1327.81 1694.79 Q1331.19 1697.97 1331.19 1703.38 Q1331.19 1708.96 1327.72 1712.06 Q1324.25 1715.14 1317.93 1715.14 Q1315.75 1715.14 1313.48 1714.77 Q1311.24 1714.4 1308.83 1713.66 L1308.83 1708.96 Q1310.91 1710.09 1313.14 1710.65 Q1315.36 1711.21 1317.84 1711.21 Q1321.84 1711.21 1324.18 1709.1 Q1326.52 1706.99 1326.52 1703.38 Q1326.52 1699.77 1324.18 1697.66 Q1321.84 1695.56 1317.84 1695.56 Q1315.96 1695.56 1314.09 1695.97 Q1312.23 1696.39 1310.29 1697.27 L1310.29 1679.91 Z" fill="#000000" fill-rule="evenodd" fill-opacity="1" /><path clip-path="url(#clip680)" d="M1484.74 1799.65 L1492.38 1799.65 L1492.38 1773.28 L1484.07 1774.95 L1484.07 1770.69 L1492.34 1769.03 L1497.01 1769.03 L1497.01 1799.65 L1504.65 1799.65 L1504.65 1803.59 L1484.74 1803.59 L1484.74 1799.65 Z" fill="#000000" fill-rule="evenodd" fill-opacity="1" /><path clip-path="url(#clip680)" d="M1514.09 1797.71 L1518.98 1797.71 L1518.98 1803.59 L1514.09 1803.59 L1514.09 1797.71 Z" fill="#000000" fill-rule="evenodd" fill-opacity="1" /><path clip-path="url(#clip680)" d="M1539.16 1772.1 Q1535.55 1772.1 1533.72 1775.67 Q1531.92 1779.21 1531.92 1786.34 Q1531.92 1793.45 1533.72 1797.01 Q1535.55 1800.55 1539.16 1800.55 Q1542.8 1800.55 1544.6 1797.01 Q1546.43 1793.45 1546.43 1786.34 Q1546.43 1779.21 1544.6 1775.67 Q1542.8 1772.1 1539.16 1772.1 M1539.16 1768.4 Q1544.97 1768.4 1548.03 1773.01 Q1551.11 1777.59 1551.11 1786.34 Q1551.11 1795.07 1548.03 1799.67 Q1544.97 1804.26 1539.16 1804.26 Q1533.35 1804.26 1530.28 1799.67 Q1527.22 1795.07 1527.22 1786.34 Q1527.22 1777.59 1530.28 1773.01 Q1533.35 1768.4 1539.16 1768.4 Z" fill="#000000" fill-rule="evenodd" fill-opacity="1" /><polyline clip-path="url(#clip682)" style="stroke:#000000; stroke-linecap:butt; stroke-linejoin:round; stroke-width:2; stroke-opacity:0.1; fill:none" points="
  1604.51,1748.34 758.529,1408.63 
  "/>
<polyline clip-path="url(#clip682)" style="stroke:#000000; stroke-linecap:butt; stroke-linejoin:round; stroke-width:2; stroke-opacity:0.1; fill:none" points="
  758.529,1408.63 651.599,532.788 
  "/>
<polyline clip-path="url(#clip682)" style="stroke:#000000; stroke-linecap:butt; stroke-linejoin:round; stroke-width:2; stroke-opacity:0.1; fill:none" points="
  1713.22,1598.47 895.449,1293.14 
  "/>
<polyline clip-path="url(#clip682)" style="stroke:#000000; stroke-linecap:butt; stroke-linejoin:round; stroke-width:2; stroke-opacity:0.1; fill:none" points="
  895.449,1293.14 816.383,448.287 
  "/>
<polyline clip-path="url(#clip682)" style="stroke:#000000; stroke-linecap:butt; stroke-linejoin:round; stroke-width:2; stroke-opacity:0.1; fill:none" points="
  1810.55,1464.29 1019.66,1188.36 
  "/>
<polyline clip-path="url(#clip682)" style="stroke:#000000; stroke-linecap:butt; stroke-linejoin:round; stroke-width:2; stroke-opacity:0.1; fill:none" points="
  1019.66,1188.36 963.569,372.81 
  "/>
<polyline clip-path="url(#clip682)" style="stroke:#000000; stroke-linecap:butt; stroke-linejoin:round; stroke-width:2; stroke-opacity:0.1; fill:none" points="
  1898.19,1343.46 1132.86,1092.88 
  "/>
<polyline clip-path="url(#clip682)" style="stroke:#000000; stroke-linecap:butt; stroke-linejoin:round; stroke-width:2; stroke-opacity:0.1; fill:none" points="
  1132.86,1092.88 1095.83,304.986 
  "/>
<polyline clip-path="url(#clip682)" style="stroke:#000000; stroke-linecap:butt; stroke-linejoin:round; stroke-width:2; stroke-opacity:0.1; fill:none" points="
  1977.53,1234.07 1236.45,1005.5 
  "/>
<polyline clip-path="url(#clip682)" style="stroke:#000000; stroke-linecap:butt; stroke-linejoin:round; stroke-width:2; stroke-opacity:0.1; fill:none" points="
  1236.45,1005.5 1215.33,243.706 
  "/>
<polyline clip-path="url(#clip680)" style="stroke:#000000; stroke-linecap:butt; stroke-linejoin:round; stroke-width:4; stroke-opacity:1; fill:none" points="
  1590.61,1767.51 1986.55,1221.64 
  "/>
<polyline clip-path="url(#clip680)" style="stroke:#000000; stroke-linecap:butt; stroke-linejoin:round; stroke-width:4; stroke-opacity:1; fill:none" points="
  1604.51,1748.34 1592.93,1743.69 
  "/>
<polyline clip-path="url(#clip680)" style="stroke:#000000; stroke-linecap:butt; stroke-linejoin:round; stroke-width:4; stroke-opacity:1; fill:none" points="
  1713.22,1598.47 1702.1,1594.32 
  "/>
<polyline clip-path="url(#clip680)" style="stroke:#000000; stroke-linecap:butt; stroke-linejoin:round; stroke-width:4; stroke-opacity:1; fill:none" points="
  1810.55,1464.29 1799.86,1460.56 
  "/>
<polyline clip-path="url(#clip680)" style="stroke:#000000; stroke-linecap:butt; stroke-linejoin:round; stroke-width:4; stroke-opacity:1; fill:none" points="
  1898.19,1343.46 1887.91,1340.09 
  "/>
<polyline clip-path="url(#clip680)" style="stroke:#000000; stroke-linecap:butt; stroke-linejoin:round; stroke-width:4; stroke-opacity:1; fill:none" points="
  1977.53,1234.07 1967.62,1231.02 
  "/>
<path clip-path="url(#clip680)" d="M1630.62 1767.73 L1660.3 1767.73 L1660.3 1771.67 L1630.62 1771.67 L1630.62 1767.73 Z" fill="#000000" fill-rule="evenodd" fill-opacity="1" /><path clip-path="url(#clip680)" d="M1671.2 1780.63 L1678.84 1780.63 L1678.84 1754.26 L1670.53 1755.93 L1670.53 1751.67 L1678.79 1750 L1683.47 1750 L1683.47 1780.63 L1691.11 1780.63 L1691.11 1784.56 L1671.2 1784.56 L1671.2 1780.63 Z" fill="#000000" fill-rule="evenodd" fill-opacity="1" /><path clip-path="url(#clip680)" d="M1700.55 1778.68 L1705.44 1778.68 L1705.44 1784.56 L1700.55 1784.56 L1700.55 1778.68 Z" fill="#000000" fill-rule="evenodd" fill-opacity="1" /><path clip-path="url(#clip680)" d="M1725.62 1753.08 Q1722.01 1753.08 1720.18 1756.64 Q1718.38 1760.19 1718.38 1767.32 Q1718.38 1774.42 1720.18 1777.99 Q1722.01 1781.53 1725.62 1781.53 Q1729.26 1781.53 1731.06 1777.99 Q1732.89 1774.42 1732.89 1767.32 Q1732.89 1760.19 1731.06 1756.64 Q1729.26 1753.08 1725.62 1753.08 M1725.62 1749.38 Q1731.43 1749.38 1734.49 1753.98 Q1737.57 1758.57 1737.57 1767.32 Q1737.57 1776.04 1734.49 1780.65 Q1731.43 1785.23 1725.62 1785.23 Q1719.81 1785.23 1716.73 1780.65 Q1713.68 1776.04 1713.68 1767.32 Q1713.68 1758.57 1716.73 1753.98 Q1719.81 1749.38 1725.62 1749.38 Z" fill="#000000" fill-rule="evenodd" fill-opacity="1" /><path clip-path="url(#clip680)" d="M1739.33 1617.86 L1769.01 1617.86 L1769.01 1621.8 L1739.33 1621.8 L1739.33 1617.86 Z" fill="#000000" fill-rule="evenodd" fill-opacity="1" /><path clip-path="url(#clip680)" d="M1789.1 1603.21 Q1785.49 1603.21 1783.66 1606.77 Q1781.85 1610.32 1781.85 1617.44 Q1781.85 1624.55 1783.66 1628.12 Q1785.49 1631.66 1789.1 1631.66 Q1792.73 1631.66 1794.54 1628.12 Q1796.37 1624.55 1796.37 1617.44 Q1796.37 1610.32 1794.54 1606.77 Q1792.73 1603.21 1789.1 1603.21 M1789.1 1599.51 Q1794.91 1599.51 1797.96 1604.11 Q1801.04 1608.69 1801.04 1617.44 Q1801.04 1626.17 1797.96 1630.78 Q1794.91 1635.36 1789.1 1635.36 Q1783.29 1635.36 1780.21 1630.78 Q1777.15 1626.17 1777.15 1617.44 Q1777.15 1608.69 1780.21 1604.11 Q1783.29 1599.51 1789.1 1599.51 Z" fill="#000000" fill-rule="evenodd" fill-opacity="1" /><path clip-path="url(#clip680)" d="M1809.26 1628.81 L1814.14 1628.81 L1814.14 1634.69 L1809.26 1634.69 L1809.26 1628.81 Z" fill="#000000" fill-rule="evenodd" fill-opacity="1" /><path clip-path="url(#clip680)" d="M1824.38 1600.13 L1842.73 1600.13 L1842.73 1604.07 L1828.66 1604.07 L1828.66 1612.54 Q1829.68 1612.19 1830.69 1612.03 Q1831.71 1611.84 1832.73 1611.84 Q1838.52 1611.84 1841.9 1615.01 Q1845.28 1618.19 1845.28 1623.6 Q1845.28 1629.18 1841.81 1632.28 Q1838.33 1635.36 1832.01 1635.36 Q1829.84 1635.36 1827.57 1634.99 Q1825.32 1634.62 1822.92 1633.88 L1822.92 1629.18 Q1825 1630.32 1827.22 1630.87 Q1829.44 1631.43 1831.92 1631.43 Q1835.93 1631.43 1838.26 1629.32 Q1840.6 1627.21 1840.6 1623.6 Q1840.6 1619.99 1838.26 1617.88 Q1835.93 1615.78 1831.92 1615.78 Q1830.05 1615.78 1828.17 1616.19 Q1826.32 1616.61 1824.38 1617.49 L1824.38 1600.13 Z" fill="#000000" fill-rule="evenodd" fill-opacity="1" /><path clip-path="url(#clip680)" d="M1848.6 1469.03 Q1844.99 1469.03 1843.16 1472.59 Q1841.36 1476.13 1841.36 1483.26 Q1841.36 1490.37 1843.16 1493.93 Q1844.99 1497.48 1848.6 1497.48 Q1852.24 1497.48 1854.04 1493.93 Q1855.87 1490.37 1855.87 1483.26 Q1855.87 1476.13 1854.04 1472.59 Q1852.24 1469.03 1848.6 1469.03 M1848.6 1465.32 Q1854.41 1465.32 1857.47 1469.93 Q1860.55 1474.51 1860.55 1483.26 Q1860.55 1491.99 1857.47 1496.6 Q1854.41 1501.18 1848.6 1501.18 Q1842.79 1501.18 1839.71 1496.6 Q1836.66 1491.99 1836.66 1483.26 Q1836.66 1474.51 1839.71 1469.93 Q1842.79 1465.32 1848.6 1465.32 Z" fill="#000000" fill-rule="evenodd" fill-opacity="1" /><path clip-path="url(#clip680)" d="M1868.76 1494.63 L1873.65 1494.63 L1873.65 1500.51 L1868.76 1500.51 L1868.76 1494.63 Z" fill="#000000" fill-rule="evenodd" fill-opacity="1" /><path clip-path="url(#clip680)" d="M1893.83 1469.03 Q1890.22 1469.03 1888.39 1472.59 Q1886.59 1476.13 1886.59 1483.26 Q1886.59 1490.37 1888.39 1493.93 Q1890.22 1497.48 1893.83 1497.48 Q1897.47 1497.48 1899.27 1493.93 Q1901.1 1490.37 1901.1 1483.26 Q1901.1 1476.13 1899.27 1472.59 Q1897.47 1469.03 1893.83 1469.03 M1893.83 1465.32 Q1899.64 1465.32 1902.7 1469.93 Q1905.78 1474.51 1905.78 1483.26 Q1905.78 1491.99 1902.7 1496.6 Q1899.64 1501.18 1893.83 1501.18 Q1888.02 1501.18 1884.94 1496.6 Q1881.89 1491.99 1881.89 1483.26 Q1881.89 1474.51 1884.94 1469.93 Q1888.02 1465.32 1893.83 1465.32 Z" fill="#000000" fill-rule="evenodd" fill-opacity="1" /><path clip-path="url(#clip680)" d="M1936.25 1348.19 Q1932.64 1348.19 1930.81 1351.76 Q1929 1355.3 1929 1362.43 Q1929 1369.54 1930.81 1373.1 Q1932.64 1376.64 1936.25 1376.64 Q1939.88 1376.64 1941.69 1373.1 Q1943.52 1369.54 1943.52 1362.43 Q1943.52 1355.3 1941.69 1351.76 Q1939.88 1348.19 1936.25 1348.19 M1936.25 1344.49 Q1942.06 1344.49 1945.11 1349.1 Q1948.19 1353.68 1948.19 1362.43 Q1948.19 1371.16 1945.11 1375.76 Q1942.06 1380.35 1936.25 1380.35 Q1930.44 1380.35 1927.36 1375.76 Q1924.3 1371.16 1924.3 1362.43 Q1924.3 1353.68 1927.36 1349.1 Q1930.44 1344.49 1936.25 1344.49 Z" fill="#000000" fill-rule="evenodd" fill-opacity="1" /><path clip-path="url(#clip680)" d="M1956.41 1373.79 L1961.29 1373.79 L1961.29 1379.67 L1956.41 1379.67 L1956.41 1373.79 Z" fill="#000000" fill-rule="evenodd" fill-opacity="1" /><path clip-path="url(#clip680)" d="M1971.52 1345.11 L1989.88 1345.11 L1989.88 1349.05 L1975.81 1349.05 L1975.81 1357.52 Q1976.83 1357.17 1977.84 1357.01 Q1978.86 1356.83 1979.88 1356.83 Q1985.67 1356.83 1989.05 1360 Q1992.43 1363.17 1992.43 1368.59 Q1992.43 1374.17 1988.96 1377.27 Q1985.48 1380.35 1979.16 1380.35 Q1976.99 1380.35 1974.72 1379.98 Q1972.47 1379.61 1970.07 1378.86 L1970.07 1374.17 Q1972.15 1375.3 1974.37 1375.86 Q1976.59 1376.41 1979.07 1376.41 Q1983.08 1376.41 1985.41 1374.3 Q1987.75 1372.2 1987.75 1368.59 Q1987.75 1364.98 1985.41 1362.87 Q1983.08 1360.76 1979.07 1360.76 Q1977.2 1360.76 1975.32 1361.18 Q1973.47 1361.6 1971.52 1362.48 L1971.52 1345.11 Z" fill="#000000" fill-rule="evenodd" fill-opacity="1" /><path clip-path="url(#clip680)" d="M2004.31 1266.36 L2011.95 1266.36 L2011.95 1239.99 L2003.64 1241.66 L2003.64 1237.4 L2011.91 1235.73 L2016.58 1235.73 L2016.58 1266.36 L2024.22 1266.36 L2024.22 1270.29 L2004.31 1270.29 L2004.31 1266.36 Z" fill="#000000" fill-rule="evenodd" fill-opacity="1" /><path clip-path="url(#clip680)" d="M2033.67 1264.41 L2038.55 1264.41 L2038.55 1270.29 L2033.67 1270.29 L2033.67 1264.41 Z" fill="#000000" fill-rule="evenodd" fill-opacity="1" /><path clip-path="url(#clip680)" d="M2058.74 1238.81 Q2055.12 1238.81 2053.3 1242.37 Q2051.49 1245.92 2051.49 1253.05 Q2051.49 1260.15 2053.3 1263.72 Q2055.12 1267.26 2058.74 1267.26 Q2062.37 1267.26 2064.18 1263.72 Q2066 1260.15 2066 1253.05 Q2066 1245.92 2064.18 1242.37 Q2062.37 1238.81 2058.74 1238.81 M2058.74 1235.11 Q2064.55 1235.11 2067.6 1239.71 Q2070.68 1244.3 2070.68 1253.05 Q2070.68 1261.77 2067.6 1266.38 Q2064.55 1270.96 2058.74 1270.96 Q2052.93 1270.96 2049.85 1266.38 Q2046.79 1261.77 2046.79 1253.05 Q2046.79 1244.3 2049.85 1239.71 Q2052.93 1235.11 2058.74 1235.11 Z" fill="#000000" fill-rule="evenodd" fill-opacity="1" /><polyline clip-path="url(#clip682)" style="stroke:#000000; stroke-linecap:butt; stroke-linejoin:round; stroke-width:2; stroke-opacity:0.1; fill:none" points="
  738.467,1401.93 1247.81,976.54 
  "/>
<polyline clip-path="url(#clip682)" style="stroke:#000000; stroke-linecap:butt; stroke-linejoin:round; stroke-width:2; stroke-opacity:0.1; fill:none" points="
  1247.81,976.54 1988.8,1201.32 
  "/>
<polyline clip-path="url(#clip682)" style="stroke:#000000; stroke-linecap:butt; stroke-linejoin:round; stroke-width:2; stroke-opacity:0.1; fill:none" points="
  723.83,1285.57 1245.18,873.685 
  "/>
<polyline clip-path="url(#clip682)" style="stroke:#000000; stroke-linecap:butt; stroke-linejoin:round; stroke-width:2; stroke-opacity:0.1; fill:none" points="
  1245.18,873.685 2001.04,1090.92 
  "/>
<polyline clip-path="url(#clip682)" style="stroke:#000000; stroke-linecap:butt; stroke-linejoin:round; stroke-width:2; stroke-opacity:0.1; fill:none" points="
  708.521,1163.88 1242.45,766.992 
  "/>
<polyline clip-path="url(#clip682)" style="stroke:#000000; stroke-linecap:butt; stroke-linejoin:round; stroke-width:2; stroke-opacity:0.1; fill:none" points="
  1242.45,766.992 2013.79,975.902 
  "/>
<polyline clip-path="url(#clip682)" style="stroke:#000000; stroke-linecap:butt; stroke-linejoin:round; stroke-width:2; stroke-opacity:0.1; fill:none" points="
  692.494,1036.47 1239.62,656.241 
  "/>
<polyline clip-path="url(#clip682)" style="stroke:#000000; stroke-linecap:butt; stroke-linejoin:round; stroke-width:2; stroke-opacity:0.1; fill:none" points="
  1239.62,656.241 2027.09,855.971 
  "/>
<polyline clip-path="url(#clip682)" style="stroke:#000000; stroke-linecap:butt; stroke-linejoin:round; stroke-width:2; stroke-opacity:0.1; fill:none" points="
  675.697,902.939 1236.68,541.197 
  "/>
<polyline clip-path="url(#clip682)" style="stroke:#000000; stroke-linecap:butt; stroke-linejoin:round; stroke-width:2; stroke-opacity:0.1; fill:none" points="
  1236.68,541.197 2040.96,730.805 
  "/>
<polyline clip-path="url(#clip682)" style="stroke:#000000; stroke-linecap:butt; stroke-linejoin:round; stroke-width:2; stroke-opacity:0.1; fill:none" points="
  658.071,762.83 1233.63,421.605 
  "/>
<polyline clip-path="url(#clip682)" style="stroke:#000000; stroke-linecap:butt; stroke-linejoin:round; stroke-width:2; stroke-opacity:0.1; fill:none" points="
  1233.63,421.605 2055.45,600.054 
  "/>
<polyline clip-path="url(#clip682)" style="stroke:#000000; stroke-linecap:butt; stroke-linejoin:round; stroke-width:2; stroke-opacity:0.1; fill:none" points="
  639.556,615.645 1230.45,297.19 
  "/>
<polyline clip-path="url(#clip682)" style="stroke:#000000; stroke-linecap:butt; stroke-linejoin:round; stroke-width:2; stroke-opacity:0.1; fill:none" points="
  1230.45,297.19 2070.61,463.335 
  "/>
<polyline clip-path="url(#clip680)" style="stroke:#000000; stroke-linecap:butt; stroke-linejoin:round; stroke-width:4; stroke-opacity:1; fill:none" points="
  741.154,1423.29 630.494,543.61 
  "/>
<polyline clip-path="url(#clip680)" style="stroke:#000000; stroke-linecap:butt; stroke-linejoin:round; stroke-width:4; stroke-opacity:1; fill:none" points="
  738.467,1401.93 745.899,1395.72 
  "/>
<polyline clip-path="url(#clip680)" style="stroke:#000000; stroke-linecap:butt; stroke-linejoin:round; stroke-width:4; stroke-opacity:1; fill:none" points="
  723.83,1285.57 731.467,1279.54 
  "/>
<polyline clip-path="url(#clip680)" style="stroke:#000000; stroke-linecap:butt; stroke-linejoin:round; stroke-width:4; stroke-opacity:1; fill:none" points="
  708.521,1163.88 716.375,1158.04 
  "/>
<polyline clip-path="url(#clip680)" style="stroke:#000000; stroke-linecap:butt; stroke-linejoin:round; stroke-width:4; stroke-opacity:1; fill:none" points="
  692.494,1036.47 700.577,1030.85 
  "/>
<polyline clip-path="url(#clip680)" style="stroke:#000000; stroke-linecap:butt; stroke-linejoin:round; stroke-width:4; stroke-opacity:1; fill:none" points="
  675.697,902.939 684.021,897.571 
  "/>
<polyline clip-path="url(#clip680)" style="stroke:#000000; stroke-linecap:butt; stroke-linejoin:round; stroke-width:4; stroke-opacity:1; fill:none" points="
  658.071,762.83 666.652,757.743 
  "/>
<polyline clip-path="url(#clip680)" style="stroke:#000000; stroke-linecap:butt; stroke-linejoin:round; stroke-width:4; stroke-opacity:1; fill:none" points="
  639.556,615.645 648.409,610.874 
  "/>
<path clip-path="url(#clip680)" d="M694.267 1387.72 Q690.656 1387.72 688.827 1391.29 Q687.021 1394.83 687.021 1401.96 Q687.021 1409.07 688.827 1412.63 Q690.656 1416.17 694.267 1416.17 Q697.901 1416.17 699.706 1412.63 Q701.535 1409.07 701.535 1401.96 Q701.535 1394.83 699.706 1391.29 Q697.901 1387.72 694.267 1387.72 M694.267 1384.02 Q700.077 1384.02 703.132 1388.63 Q706.211 1393.21 706.211 1401.96 Q706.211 1410.69 703.132 1415.29 Q700.077 1419.88 694.267 1419.88 Q688.456 1419.88 685.378 1415.29 Q682.322 1410.69 682.322 1401.96 Q682.322 1393.21 685.378 1388.63 Q688.456 1384.02 694.267 1384.02 Z" fill="#000000" fill-rule="evenodd" fill-opacity="1" /><path clip-path="url(#clip680)" d="M675.255 1298.91 L691.574 1298.91 L691.574 1302.85 L669.63 1302.85 L669.63 1298.91 Q672.292 1296.16 676.875 1291.53 Q681.481 1286.88 682.662 1285.53 Q684.907 1283.01 685.787 1281.28 Q686.69 1279.52 686.69 1277.83 Q686.69 1275.07 684.745 1273.34 Q682.824 1271.6 679.722 1271.6 Q677.523 1271.6 675.069 1272.36 Q672.639 1273.13 669.861 1274.68 L669.861 1269.96 Q672.685 1268.82 675.139 1268.24 Q677.593 1267.66 679.63 1267.66 Q685 1267.66 688.194 1270.35 Q691.389 1273.04 691.389 1277.53 Q691.389 1279.66 690.579 1281.58 Q689.792 1283.47 687.685 1286.07 Q687.106 1286.74 684.005 1289.96 Q680.903 1293.15 675.255 1298.91 Z" fill="#000000" fill-rule="evenodd" fill-opacity="1" /><path clip-path="url(#clip680)" d="M666.682 1150.67 L654.877 1169.12 L666.682 1169.12 L666.682 1150.67 M665.455 1146.6 L671.335 1146.6 L671.335 1169.12 L676.265 1169.12 L676.265 1173.01 L671.335 1173.01 L671.335 1181.16 L666.682 1181.16 L666.682 1173.01 L651.08 1173.01 L651.08 1168.49 L665.455 1146.6 Z" fill="#000000" fill-rule="evenodd" fill-opacity="1" /><path clip-path="url(#clip680)" d="M648.711 1034.61 Q645.562 1034.61 643.711 1036.76 Q641.882 1038.91 641.882 1042.66 Q641.882 1046.39 643.711 1048.57 Q645.562 1050.72 648.711 1050.72 Q651.859 1050.72 653.687 1048.57 Q655.539 1046.39 655.539 1042.66 Q655.539 1038.91 653.687 1036.76 Q651.859 1034.61 648.711 1034.61 M657.993 1019.95 L657.993 1024.21 Q656.234 1023.38 654.428 1022.94 Q652.646 1022.5 650.886 1022.5 Q646.257 1022.5 643.803 1025.63 Q641.373 1028.75 641.025 1035.07 Q642.391 1033.06 644.451 1031.99 Q646.511 1030.9 648.988 1030.9 Q654.197 1030.9 657.206 1034.07 Q660.238 1037.22 660.238 1042.66 Q660.238 1047.99 657.09 1051.2 Q653.942 1054.42 648.711 1054.42 Q642.715 1054.42 639.544 1049.84 Q636.373 1045.23 636.373 1036.51 Q636.373 1028.31 640.262 1023.45 Q644.15 1018.57 650.701 1018.57 Q652.461 1018.57 654.243 1018.91 Q656.048 1019.26 657.993 1019.95 Z" fill="#000000" fill-rule="evenodd" fill-opacity="1" /><path clip-path="url(#clip680)" d="M631.589 903.807 Q628.255 903.807 626.334 905.59 Q624.436 907.372 624.436 910.497 Q624.436 913.622 626.334 915.405 Q628.255 917.187 631.589 917.187 Q634.922 917.187 636.843 915.405 Q638.765 913.599 638.765 910.497 Q638.765 907.372 636.843 905.59 Q634.945 903.807 631.589 903.807 M626.913 901.817 Q623.904 901.076 622.214 899.016 Q620.547 896.956 620.547 893.993 Q620.547 889.849 623.487 887.442 Q626.45 885.034 631.589 885.034 Q636.751 885.034 639.691 887.442 Q642.63 889.849 642.63 893.993 Q642.63 896.956 640.941 899.016 Q639.274 901.076 636.288 901.817 Q639.667 902.604 641.542 904.895 Q643.441 907.187 643.441 910.497 Q643.441 915.52 640.362 918.205 Q637.306 920.891 631.589 920.891 Q625.871 920.891 622.793 918.205 Q619.737 915.52 619.737 910.497 Q619.737 907.187 621.635 904.895 Q623.533 902.604 626.913 901.817 M625.2 894.432 Q625.2 897.118 626.867 898.622 Q628.556 900.127 631.589 900.127 Q634.598 900.127 636.288 898.622 Q638.001 897.118 638.001 894.432 Q638.001 891.747 636.288 890.243 Q634.598 888.738 631.589 888.738 Q628.556 888.738 626.867 890.243 Q625.2 891.747 625.2 894.432 Z" fill="#000000" fill-rule="evenodd" fill-opacity="1" /><path clip-path="url(#clip680)" d="M574.519 776.175 L582.158 776.175 L582.158 749.81 L573.848 751.476 L573.848 747.217 L582.112 745.55 L586.788 745.55 L586.788 776.175 L594.427 776.175 L594.427 780.11 L574.519 780.11 L574.519 776.175 Z" fill="#000000" fill-rule="evenodd" fill-opacity="1" /><path clip-path="url(#clip680)" d="M613.871 748.629 Q610.26 748.629 608.431 752.194 Q606.626 755.736 606.626 762.865 Q606.626 769.972 608.431 773.536 Q610.26 777.078 613.871 777.078 Q617.505 777.078 619.311 773.536 Q621.14 769.972 621.14 762.865 Q621.14 755.736 619.311 752.194 Q617.505 748.629 613.871 748.629 M613.871 744.925 Q619.681 744.925 622.737 749.532 Q625.815 754.115 625.815 762.865 Q625.815 771.592 622.737 776.198 Q619.681 780.782 613.871 780.782 Q608.061 780.782 604.982 776.198 Q601.927 771.592 601.927 762.865 Q601.927 754.115 604.982 749.532 Q608.061 744.925 613.871 744.925 Z" fill="#000000" fill-rule="evenodd" fill-opacity="1" /><path clip-path="url(#clip680)" d="M557.601 628.99 L565.24 628.99 L565.24 602.625 L556.93 604.291 L556.93 600.032 L565.194 598.365 L569.87 598.365 L569.87 628.99 L577.509 628.99 L577.509 632.925 L557.601 632.925 L557.601 628.99 Z" fill="#000000" fill-rule="evenodd" fill-opacity="1" /><path clip-path="url(#clip680)" d="M590.981 628.99 L607.3 628.99 L607.3 632.925 L585.356 632.925 L585.356 628.99 Q588.018 626.236 592.601 621.606 Q597.208 616.953 598.388 615.611 Q600.634 613.088 601.513 611.352 Q602.416 609.592 602.416 607.902 Q602.416 605.148 600.472 603.412 Q598.55 601.676 595.448 601.676 Q593.249 601.676 590.796 602.44 Q588.365 603.203 585.587 604.754 L585.587 600.032 Q588.411 598.898 590.865 598.319 Q593.319 597.74 595.356 597.74 Q600.726 597.74 603.921 600.426 Q607.115 603.111 607.115 607.602 Q607.115 609.731 606.305 611.652 Q605.518 613.551 603.411 616.143 Q602.833 616.814 599.731 620.032 Q596.629 623.226 590.981 628.99 Z" fill="#000000" fill-rule="evenodd" fill-opacity="1" /><polyline clip-path="url(#clip682)" style="stroke:#009af9; stroke-linecap:butt; stroke-linejoin:round; stroke-width:4; stroke-opacity:1; fill:none" points="
  1587.38,1093.83 1594.55,1094.98 1601.65,1096.21 1608.7,1097.53 1615.68,1098.92 1631.56,1102.43 1647.05,1106.35 1662.13,1110.68 1676.77,1115.4 1690.93,1120.5 
  1704.59,1125.98 1717.71,1131.82 1730.26,1138.02 1742.22,1144.55 1753.55,1151.42 1764.22,1158.59 1774.2,1166.07 1783.47,1173.83 1791.99,1181.86 1799.73,1190.13 
  1806.66,1198.64 1813.9,1209.14 1819.88,1219.9 1824.57,1230.9 1827.93,1242.09 1829.91,1253.42 1830.48,1264.85 1829.61,1276.34 1827.27,1287.83 1824.12,1297.52 
  1819.9,1307.13 1814.6,1316.66 1808.2,1326.05 1800.71,1335.27 1792.12,1344.3 1782.46,1353.09 1771.71,1361.62 1758.83,1370.53 1744.72,1379.04 1729.41,1387.11 
  1712.92,1394.68 1695.3,1401.71 1676.6,1408.17 1656.87,1414.01 1636.16,1419.2 1616.26,1423.37 1595.63,1426.92 1574.35,1429.84 1552.46,1432.1 1530.04,1433.68 
  1507.15,1434.57 1483.87,1434.74 1460.26,1434.19 1434.67,1432.79 1408.88,1430.55 1383,1427.45 1357.12,1423.5 1331.33,1418.71 1305.73,1413.08 1280.42,1406.63 
  1255.49,1399.38 1227.19,1390 1199.65,1379.6 1173.01,1368.23 1147.38,1355.94 1122.88,1342.78 1099.61,1328.81 1077.67,1314.09 1057.14,1298.69 1040.14,1284.47 
  1024.36,1269.82 1009.84,1254.77 996.607,1239.37 984.695,1223.68 974.12,1207.74 964.897,1191.6 957.033,1175.31 951.258,1160.93 946.529,1146.49 942.842,1132.04 
  940.189,1117.59 938.56,1103.17 937.944,1088.81 938.325,1074.53 939.689,1060.36 942.272,1045.07 945.974,1029.95 950.767,1015.05 956.622,1000.39 963.506,985.993 
  971.386,971.877 980.229,958.065 989.998,944.576 1000.72,931.353 1012.31,918.492 1024.73,906.008 1037.93,893.917 1051.89,882.23 1066.55,870.959 1081.88,860.115 
  1097.85,849.707 1116.19,838.718 1135.2,828.282 1154.84,818.408 1175.04,809.103 1195.76,800.374 1216.94,792.225 1238.54,784.661 1260.5,777.686 1281.68,771.596 
  1303.11,766.042 1324.73,761.025 1346.51,756.543 1368.4,752.597 1390.35,749.185 1412.33,746.305 1434.3,743.956 1457.07,742.073 1479.73,740.755 1502.22,739.999 
  1524.51,739.8 1546.53,740.152 1568.24,741.047 1589.59,742.479 1610.54,744.44 1627.81,746.493 1644.72,748.909 1661.25,751.681 1677.35,754.802 1693,758.265 
  1708.17,762.062 1722.82,766.185 1736.93,770.624 1753.36,776.458 1768.87,782.731 1783.4,789.422 1796.89,796.508 1809.28,803.966 1820.51,811.77 1830.53,819.891 
  1839.27,828.301 1846.13,836.232 1851.83,844.352 1856.34,852.634 1859.62,861.05 1861.64,869.569 1862.37,878.16 1861.77,886.789 1859.82,895.423 1856.81,903.369 
  1852.6,911.259 1847.2,919.063 1840.6,926.75 1832.78,934.289 1823.75,941.648 1813.52,948.795 1802.08,955.698 1789.29,962.407 1775.3,968.798 1760.13,974.837 
  1743.81,980.491 1726.38,985.728 1707.87,990.515 1688.33,994.823 1667.8,998.621 1643.7,1002.24 1618.52,1005.15 1592.36,1007.31 1565.31,1008.7 1537.48,1009.28 
  1508.98,1009.05 1479.93,1007.97 1450.46,1006.04 1423.5,1003.55 1396.38,1000.34 1369.21,996.422 1342.08,991.798 1315.09,986.472 1288.33,980.456 1261.91,973.763 
  1235.91,966.408 1206.78,957.201 1178.45,947.185 1151.05,936.398 1124.69,924.881 1099.48,912.679 1075.51,899.839 1052.89,886.411 1031.68,872.446 1013.38,859.085 
  996.399,845.353 980.787,831.293 966.577,816.949 953.794,802.365 942.46,787.584 932.588,772.647 924.184,757.596 917.337,742.685 911.914,727.739 907.906,712.795 
  905.297,697.887 904.071,683.048 904.204,668.309 905.671,653.701 908.442,639.251 912.35,625.398 917.427,611.742 923.639,598.303 930.951,585.103 939.326,572.158 
  948.727,559.486 959.116,547.103 970.452,535.022 983.016,522.966 996.49,511.253 1010.83,499.896 1026,488.905 1041.94,478.29 1058.62,468.057 1075.98,458.214 
  1094,448.767 1114.43,438.877 1135.53,429.475 1157.24,420.565 1179.5,412.151 1202.27,404.236 1225.48,396.82 1249.08,389.906 1273.02,383.494 1290.59,379.151 
  1308.29,375.073 1326.1,371.258 1344,367.706 1361.97,364.416 1379.98,361.388 1398.03,358.62 1416.08,356.11 1434.12,353.859 1452.13,351.863 1470.09,350.121 
  1487.97,348.632 1505.76,347.394 1523.44,346.403 1540.98,345.659 1558.37,345.158 1572.5,344.928 1586.51,344.858 1600.37,344.948 1614.08,345.195 
  "/>
<path clip-path="url(#clip680)" d="
M2227.37 209.375 L2557.46 209.375 L2557.46 105.695 L2227.37 105.695  Z
  " fill="#ffffff" fill-rule="evenodd" fill-opacity="1"/>
<polyline clip-path="url(#clip680)" style="stroke:#000000; stroke-linecap:butt; stroke-linejoin:round; stroke-width:4; stroke-opacity:1; fill:none" points="
  2227.37,209.375 2557.46,209.375 2557.46,105.695 2227.37,105.695 2227.37,209.375 
  "/>
<polyline clip-path="url(#clip680)" style="stroke:#009af9; stroke-linecap:butt; stroke-linejoin:round; stroke-width:4; stroke-opacity:1; fill:none" points="
  2255.14,157.535 2421.73,157.535 
  "/>
<path clip-path="url(#clip680)" d="M2463.34 177.223 Q2461.53 181.852 2459.82 183.264 Q2458.11 184.676 2455.24 184.676 L2451.83 184.676 L2451.83 181.112 L2454.33 181.112 Q2456.09 181.112 2457.07 180.278 Q2458.04 179.445 2459.22 176.343 L2459.98 174.399 L2449.5 148.889 L2454.01 148.889 L2462.11 169.167 L2470.21 148.889 L2474.73 148.889 L2463.34 177.223 Z" fill="#000000" fill-rule="evenodd" fill-opacity="1" /><path clip-path="url(#clip680)" d="M2482.02 170.88 L2489.66 170.88 L2489.66 144.515 L2481.35 146.181 L2481.35 141.922 L2489.61 140.255 L2494.29 140.255 L2494.29 170.88 L2501.93 170.88 L2501.93 174.815 L2482.02 174.815 L2482.02 170.88 Z" fill="#000000" fill-rule="evenodd" fill-opacity="1" /></svg>
