<?xml version="1.0" encoding="utf-8"?>
<svg xmlns="http://www.w3.org/2000/svg" xmlns:xlink="http://www.w3.org/1999/xlink" width="672" height="480" viewBox="0 0 2688 1920">
<defs>
  <clipPath id="clip140">
    <rect x="0" y="0" width="2688" height="1920"/>
  </clipPath>
</defs>
<path clip-path="url(#clip140)" d="
M0 1920 L2688 1920 L2688 0 L0 0  Z
  " fill="#ffffff" fill-rule="evenodd" fill-opacity="1"/>
<defs>
  <clipPath id="clip141">
    <rect x="537" y="0" width="1883" height="1883"/>
  </clipPath>
</defs>
<path clip-path="url(#clip140)" d="
M302.072 1800.78 L2640.76 1800.78 L2640.76 47.2441 L302.072 47.2441  Z
  " fill="#ffffff" fill-rule="evenodd" fill-opacity="1"/>
<defs>
  <clipPath id="clip142">
    <rect x="302" y="47" width="2340" height="1755"/>
  </clipPath>
</defs>
<polyline clip-path="url(#clip142)" style="stroke:#000000; stroke-linecap:butt; stroke-linejoin:round; stroke-width:2; stroke-opacity:0.1; fill:none" points="
  368.261,1800.78 368.261,47.2441 
  "/>
<polyline clip-path="url(#clip142)" style="stroke:#000000; stroke-linecap:butt; stroke-linejoin:round; stroke-width:2; stroke-opacity:0.1; fill:none" points="
  809.522,1800.78 809.522,47.2441 
  "/>
<polyline clip-path="url(#clip142)" style="stroke:#000000; stroke-linecap:butt; stroke-linejoin:round; stroke-width:2; stroke-opacity:0.1; fill:none" points="
  1250.78,1800.78 1250.78,47.2441 
  "/>
<polyline clip-path="url(#clip142)" style="stroke:#000000; stroke-linecap:butt; stroke-linejoin:round; stroke-width:2; stroke-opacity:0.1; fill:none" points="
  1692.04,1800.78 1692.04,47.2441 
  "/>
<polyline clip-path="url(#clip142)" style="stroke:#000000; stroke-linecap:butt; stroke-linejoin:round; stroke-width:2; stroke-opacity:0.1; fill:none" points="
  2133.31,1800.78 2133.31,47.2441 
  "/>
<polyline clip-path="url(#clip142)" style="stroke:#000000; stroke-linecap:butt; stroke-linejoin:round; stroke-width:2; stroke-opacity:0.1; fill:none" points="
  2574.57,1800.78 2574.57,47.2441 
  "/>
<polyline clip-path="url(#clip140)" style="stroke:#000000; stroke-linecap:butt; stroke-linejoin:round; stroke-width:4; stroke-opacity:1; fill:none" points="
  302.072,1800.78 2640.76,1800.78 
  "/>
<polyline clip-path="url(#clip140)" style="stroke:#000000; stroke-linecap:butt; stroke-linejoin:round; stroke-width:4; stroke-opacity:1; fill:none" points="
  368.261,1800.78 368.261,1781.88 
  "/>
<polyline clip-path="url(#clip140)" style="stroke:#000000; stroke-linecap:butt; stroke-linejoin:round; stroke-width:4; stroke-opacity:1; fill:none" points="
  809.522,1800.78 809.522,1781.88 
  "/>
<polyline clip-path="url(#clip140)" style="stroke:#000000; stroke-linecap:butt; stroke-linejoin:round; stroke-width:4; stroke-opacity:1; fill:none" points="
  1250.78,1800.78 1250.78,1781.88 
  "/>
<polyline clip-path="url(#clip140)" style="stroke:#000000; stroke-linecap:butt; stroke-linejoin:round; stroke-width:4; stroke-opacity:1; fill:none" points="
  1692.04,1800.78 1692.04,1781.88 
  "/>
<polyline clip-path="url(#clip140)" style="stroke:#000000; stroke-linecap:butt; stroke-linejoin:round; stroke-width:4; stroke-opacity:1; fill:none" points="
  2133.31,1800.78 2133.31,1781.88 
  "/>
<polyline clip-path="url(#clip140)" style="stroke:#000000; stroke-linecap:butt; stroke-linejoin:round; stroke-width:4; stroke-opacity:1; fill:none" points="
  2574.57,1800.78 2574.57,1781.88 
  "/>
<path clip-path="url(#clip140)" d="M368.261 1834 Q364.65 1834 362.821 1837.57 Q361.015 1841.11 361.015 1848.24 Q361.015 1855.34 362.821 1858.91 Q364.65 1862.45 368.261 1862.45 Q371.895 1862.45 373.7 1858.91 Q375.529 1855.34 375.529 1848.24 Q375.529 1841.11 373.7 1837.57 Q371.895 1834 368.261 1834 M368.261 1830.3 Q374.071 1830.3 377.126 1834.9 Q380.205 1839.49 380.205 1848.24 Q380.205 1856.96 377.126 1861.57 Q374.071 1866.15 368.261 1866.15 Q362.451 1866.15 359.372 1861.57 Q356.316 1856.96 356.316 1848.24 Q356.316 1839.49 359.372 1834.9 Q362.451 1830.3 368.261 1830.3 Z" fill="#000000" fill-rule="evenodd" fill-opacity="1" /><path clip-path="url(#clip140)" d="M799.8 1830.92 L818.156 1830.92 L818.156 1834.86 L804.082 1834.86 L804.082 1843.33 Q805.101 1842.98 806.119 1842.82 Q807.138 1842.64 808.156 1842.64 Q813.943 1842.64 817.323 1845.81 Q820.702 1848.98 820.702 1854.4 Q820.702 1859.97 817.23 1863.08 Q813.758 1866.15 807.439 1866.15 Q805.263 1866.15 802.994 1865.78 Q800.749 1865.41 798.341 1864.67 L798.341 1859.97 Q800.425 1861.11 802.647 1861.66 Q804.869 1862.22 807.346 1862.22 Q811.351 1862.22 813.689 1860.11 Q816.026 1858.01 816.026 1854.4 Q816.026 1850.78 813.689 1848.68 Q811.351 1846.57 807.346 1846.57 Q805.471 1846.57 803.596 1846.99 Q801.744 1847.4 799.8 1848.28 L799.8 1830.92 Z" fill="#000000" fill-rule="evenodd" fill-opacity="1" /><path clip-path="url(#clip140)" d="M1225.47 1861.55 L1233.11 1861.55 L1233.11 1835.18 L1224.8 1836.85 L1224.8 1832.59 L1233.06 1830.92 L1237.74 1830.92 L1237.74 1861.55 L1245.38 1861.55 L1245.38 1865.48 L1225.47 1865.48 L1225.47 1861.55 Z" fill="#000000" fill-rule="evenodd" fill-opacity="1" /><path clip-path="url(#clip140)" d="M1264.82 1834 Q1261.21 1834 1259.38 1837.57 Q1257.58 1841.11 1257.58 1848.24 Q1257.58 1855.34 1259.38 1858.91 Q1261.21 1862.45 1264.82 1862.45 Q1268.46 1862.45 1270.26 1858.91 Q1272.09 1855.34 1272.09 1848.24 Q1272.09 1841.11 1270.26 1837.57 Q1268.46 1834 1264.82 1834 M1264.82 1830.3 Q1270.63 1830.3 1273.69 1834.9 Q1276.77 1839.49 1276.77 1848.24 Q1276.77 1856.96 1273.69 1861.57 Q1270.63 1866.15 1264.82 1866.15 Q1259.01 1866.15 1255.93 1861.57 Q1252.88 1856.96 1252.88 1848.24 Q1252.88 1839.49 1255.93 1834.9 Q1259.01 1830.3 1264.82 1830.3 Z" fill="#000000" fill-rule="evenodd" fill-opacity="1" /><path clip-path="url(#clip140)" d="M1667.23 1861.55 L1674.87 1861.55 L1674.87 1835.18 L1666.56 1836.85 L1666.56 1832.59 L1674.82 1830.92 L1679.5 1830.92 L1679.5 1861.55 L1687.14 1861.55 L1687.14 1865.48 L1667.23 1865.48 L1667.23 1861.55 Z" fill="#000000" fill-rule="evenodd" fill-opacity="1" /><path clip-path="url(#clip140)" d="M1696.63 1830.92 L1714.98 1830.92 L1714.98 1834.86 L1700.91 1834.86 L1700.91 1843.33 Q1701.93 1842.98 1702.95 1842.82 Q1703.97 1842.64 1704.98 1842.64 Q1710.77 1842.64 1714.15 1845.81 Q1717.53 1848.98 1717.53 1854.4 Q1717.53 1859.97 1714.06 1863.08 Q1710.59 1866.15 1704.27 1866.15 Q1702.09 1866.15 1699.82 1865.78 Q1697.58 1865.41 1695.17 1864.67 L1695.17 1859.97 Q1697.25 1861.11 1699.47 1861.66 Q1701.7 1862.22 1704.17 1862.22 Q1708.18 1862.22 1710.52 1860.11 Q1712.85 1858.01 1712.85 1854.4 Q1712.85 1850.78 1710.52 1848.68 Q1708.18 1846.57 1704.17 1846.57 Q1702.3 1846.57 1700.42 1846.99 Q1698.57 1847.4 1696.63 1848.28 L1696.63 1830.92 Z" fill="#000000" fill-rule="evenodd" fill-opacity="1" /><path clip-path="url(#clip140)" d="M2112.08 1861.55 L2128.4 1861.55 L2128.4 1865.48 L2106.45 1865.48 L2106.45 1861.55 Q2109.12 1858.79 2113.7 1854.16 Q2118.31 1849.51 2119.49 1848.17 Q2121.73 1845.65 2122.61 1843.91 Q2123.51 1842.15 2123.51 1840.46 Q2123.51 1837.71 2121.57 1835.97 Q2119.65 1834.23 2116.55 1834.23 Q2114.35 1834.23 2111.89 1835 Q2109.46 1835.76 2106.69 1837.31 L2106.69 1832.59 Q2109.51 1831.46 2111.96 1830.88 Q2114.42 1830.3 2116.45 1830.3 Q2121.82 1830.3 2125.02 1832.98 Q2128.21 1835.67 2128.21 1840.16 Q2128.21 1842.29 2127.4 1844.21 Q2126.62 1846.11 2124.51 1848.7 Q2123.93 1849.37 2120.83 1852.59 Q2117.73 1855.78 2112.08 1861.55 Z" fill="#000000" fill-rule="evenodd" fill-opacity="1" /><path clip-path="url(#clip140)" d="M2148.21 1834 Q2144.6 1834 2142.77 1837.57 Q2140.97 1841.11 2140.97 1848.24 Q2140.97 1855.34 2142.77 1858.91 Q2144.6 1862.45 2148.21 1862.45 Q2151.85 1862.45 2153.65 1858.91 Q2155.48 1855.34 2155.48 1848.24 Q2155.48 1841.11 2153.65 1837.57 Q2151.85 1834 2148.21 1834 M2148.21 1830.3 Q2154.02 1830.3 2157.08 1834.9 Q2160.16 1839.49 2160.16 1848.24 Q2160.16 1856.96 2157.08 1861.57 Q2154.02 1866.15 2148.21 1866.15 Q2142.4 1866.15 2139.32 1861.57 Q2136.27 1856.96 2136.27 1848.24 Q2136.27 1839.49 2139.32 1834.9 Q2142.4 1830.3 2148.21 1830.3 Z" fill="#000000" fill-rule="evenodd" fill-opacity="1" /><path clip-path="url(#clip140)" d="M2553.84 1861.55 L2570.16 1861.55 L2570.16 1865.48 L2548.21 1865.48 L2548.21 1861.55 Q2550.87 1858.79 2555.46 1854.16 Q2560.06 1849.51 2561.25 1848.17 Q2563.49 1845.65 2564.37 1843.91 Q2565.27 1842.15 2565.27 1840.46 Q2565.27 1837.71 2563.33 1835.97 Q2561.41 1834.23 2558.31 1834.23 Q2556.11 1834.23 2553.65 1835 Q2551.22 1835.76 2548.44 1837.31 L2548.44 1832.59 Q2551.27 1831.46 2553.72 1830.88 Q2556.18 1830.3 2558.21 1830.3 Q2563.58 1830.3 2566.78 1832.98 Q2569.97 1835.67 2569.97 1840.16 Q2569.97 1842.29 2569.16 1844.21 Q2568.37 1846.11 2566.27 1848.7 Q2565.69 1849.37 2562.59 1852.59 Q2559.49 1855.78 2553.84 1861.55 Z" fill="#000000" fill-rule="evenodd" fill-opacity="1" /><path clip-path="url(#clip140)" d="M2580.02 1830.92 L2598.37 1830.92 L2598.37 1834.86 L2584.3 1834.86 L2584.3 1843.33 Q2585.32 1842.98 2586.34 1842.82 Q2587.36 1842.64 2588.37 1842.64 Q2594.16 1842.64 2597.54 1845.81 Q2600.92 1848.98 2600.92 1854.4 Q2600.92 1859.97 2597.45 1863.08 Q2593.98 1866.15 2587.66 1866.15 Q2585.48 1866.15 2583.21 1865.78 Q2580.97 1865.41 2578.56 1864.67 L2578.56 1859.97 Q2580.64 1861.11 2582.87 1861.66 Q2585.09 1862.22 2587.56 1862.22 Q2591.57 1862.22 2593.91 1860.11 Q2596.24 1858.01 2596.24 1854.4 Q2596.24 1850.78 2593.91 1848.68 Q2591.57 1846.57 2587.56 1846.57 Q2585.69 1846.57 2583.81 1846.99 Q2581.96 1847.4 2580.02 1848.28 L2580.02 1830.92 Z" fill="#000000" fill-rule="evenodd" fill-opacity="1" /><polyline clip-path="url(#clip142)" style="stroke:#000000; stroke-linecap:butt; stroke-linejoin:round; stroke-width:2; stroke-opacity:0.1; fill:none" points="
  302.072,1751.15 2640.76,1751.15 
  "/>
<polyline clip-path="url(#clip142)" style="stroke:#000000; stroke-linecap:butt; stroke-linejoin:round; stroke-width:2; stroke-opacity:0.1; fill:none" points="
  302.072,1291.66 2640.76,1291.66 
  "/>
<polyline clip-path="url(#clip142)" style="stroke:#000000; stroke-linecap:butt; stroke-linejoin:round; stroke-width:2; stroke-opacity:0.1; fill:none" points="
  302.072,832.17 2640.76,832.17 
  "/>
<polyline clip-path="url(#clip142)" style="stroke:#000000; stroke-linecap:butt; stroke-linejoin:round; stroke-width:2; stroke-opacity:0.1; fill:none" points="
  302.072,372.679 2640.76,372.679 
  "/>
<polyline clip-path="url(#clip140)" style="stroke:#000000; stroke-linecap:butt; stroke-linejoin:round; stroke-width:4; stroke-opacity:1; fill:none" points="
  302.072,1800.78 302.072,47.2441 
  "/>
<polyline clip-path="url(#clip140)" style="stroke:#000000; stroke-linecap:butt; stroke-linejoin:round; stroke-width:4; stroke-opacity:1; fill:none" points="
  302.072,1751.15 320.969,1751.15 
  "/>
<polyline clip-path="url(#clip140)" style="stroke:#000000; stroke-linecap:butt; stroke-linejoin:round; stroke-width:4; stroke-opacity:1; fill:none" points="
  302.072,1291.66 320.969,1291.66 
  "/>
<polyline clip-path="url(#clip140)" style="stroke:#000000; stroke-linecap:butt; stroke-linejoin:round; stroke-width:4; stroke-opacity:1; fill:none" points="
  302.072,832.17 320.969,832.17 
  "/>
<polyline clip-path="url(#clip140)" style="stroke:#000000; stroke-linecap:butt; stroke-linejoin:round; stroke-width:4; stroke-opacity:1; fill:none" points="
  302.072,372.679 320.969,372.679 
  "/>
<path clip-path="url(#clip140)" d="M249.807 1736.95 Q246.196 1736.95 244.367 1740.51 Q242.562 1744.06 242.562 1751.19 Q242.562 1758.29 244.367 1761.86 Q246.196 1765.4 249.807 1765.4 Q253.441 1765.4 255.247 1761.86 Q257.076 1758.29 257.076 1751.19 Q257.076 1744.06 255.247 1740.51 Q253.441 1736.95 249.807 1736.95 M249.807 1733.25 Q255.617 1733.25 258.673 1737.85 Q261.752 1742.44 261.752 1751.19 Q261.752 1759.91 258.673 1764.52 Q255.617 1769.1 249.807 1769.1 Q243.997 1769.1 240.918 1764.52 Q237.863 1759.91 237.863 1751.19 Q237.863 1742.44 240.918 1737.85 Q243.997 1733.25 249.807 1733.25 Z" fill="#000000" fill-rule="evenodd" fill-opacity="1" /><path clip-path="url(#clip140)" d="M56.3345 1311.45 L72.6539 1311.45 L72.6539 1315.39 L50.7095 1315.39 L50.7095 1311.45 Q53.3715 1308.7 57.9549 1304.07 Q62.5613 1299.42 63.7419 1298.07 Q65.9872 1295.55 66.8668 1293.81 Q67.7696 1292.05 67.7696 1290.36 Q67.7696 1287.61 65.8252 1285.87 Q63.9039 1284.14 60.8021 1284.14 Q58.603 1284.14 56.1493 1284.9 Q53.7188 1285.67 50.941 1287.22 L50.941 1282.49 Q53.7651 1281.36 56.2188 1280.78 Q58.6724 1280.2 60.7095 1280.2 Q66.0798 1280.2 69.2742 1282.89 Q72.4687 1285.57 72.4687 1290.06 Q72.4687 1292.19 71.6585 1294.11 Q70.8715 1296.01 68.765 1298.61 Q68.1863 1299.28 65.0845 1302.49 Q61.9826 1305.69 56.3345 1311.45 Z" fill="#000000" fill-rule="evenodd" fill-opacity="1" /><path clip-path="url(#clip140)" d="M82.4686 1309.51 L87.3528 1309.51 L87.3528 1315.39 L82.4686 1315.39 L82.4686 1309.51 Z" fill="#000000" fill-rule="evenodd" fill-opacity="1" /><path clip-path="url(#clip140)" d="M107.538 1283.91 Q103.927 1283.91 102.098 1287.47 Q100.293 1291.01 100.293 1298.14 Q100.293 1305.25 102.098 1308.81 Q103.927 1312.36 107.538 1312.36 Q111.172 1312.36 112.978 1308.81 Q114.806 1305.25 114.806 1298.14 Q114.806 1291.01 112.978 1287.47 Q111.172 1283.91 107.538 1283.91 M107.538 1280.2 Q113.348 1280.2 116.404 1284.81 Q119.482 1289.39 119.482 1298.14 Q119.482 1306.87 116.404 1311.48 Q113.348 1316.06 107.538 1316.06 Q101.728 1316.06 98.6491 1311.48 Q95.5935 1306.87 95.5935 1298.14 Q95.5935 1289.39 98.6491 1284.81 Q101.728 1280.2 107.538 1280.2 Z" fill="#000000" fill-rule="evenodd" fill-opacity="1" /><path clip-path="url(#clip140)" d="M155.871 1289.93 L145.292 1300.55 L155.871 1311.13 L153.116 1313.93 L142.491 1303.3 L131.866 1313.93 L129.135 1311.13 L139.691 1300.55 L129.135 1289.93 L131.866 1287.12 L142.491 1297.75 L153.116 1287.12 L155.871 1289.93 Z" fill="#000000" fill-rule="evenodd" fill-opacity="1" /><path clip-path="url(#clip140)" d="M168.232 1311.45 L175.871 1311.45 L175.871 1285.09 L167.561 1286.75 L167.561 1282.49 L175.825 1280.83 L180.5 1280.83 L180.5 1311.45 L188.139 1311.45 L188.139 1315.39 L168.232 1315.39 L168.232 1311.45 Z" fill="#000000" fill-rule="evenodd" fill-opacity="1" /><path clip-path="url(#clip140)" d="M207.584 1283.91 Q203.973 1283.91 202.144 1287.47 Q200.338 1291.01 200.338 1298.14 Q200.338 1305.25 202.144 1308.81 Q203.973 1312.36 207.584 1312.36 Q211.218 1312.36 213.023 1308.81 Q214.852 1305.25 214.852 1298.14 Q214.852 1291.01 213.023 1287.47 Q211.218 1283.91 207.584 1283.91 M207.584 1280.2 Q213.394 1280.2 216.449 1284.81 Q219.528 1289.39 219.528 1298.14 Q219.528 1306.87 216.449 1311.48 Q213.394 1316.06 207.584 1316.06 Q201.774 1316.06 198.695 1311.48 Q195.639 1306.87 195.639 1298.14 Q195.639 1289.39 198.695 1284.81 Q201.774 1280.2 207.584 1280.2 Z" fill="#000000" fill-rule="evenodd" fill-opacity="1" /><path clip-path="url(#clip140)" d="M220.073 1284.78 L226.28 1284.78 L226.28 1263.36 L219.528 1264.71 L219.528 1261.25 L226.242 1259.9 L230.042 1259.9 L230.042 1284.78 L236.248 1284.78 L236.248 1287.98 L220.073 1287.98 L220.073 1284.78 Z" fill="#000000" fill-rule="evenodd" fill-opacity="1" /><path clip-path="url(#clip140)" d="M252.047 1262.4 Q249.113 1262.4 247.627 1265.3 Q246.16 1268.17 246.16 1273.97 Q246.16 1279.74 247.627 1282.64 Q249.113 1285.51 252.047 1285.51 Q255 1285.51 256.467 1282.64 Q257.952 1279.74 257.952 1273.97 Q257.952 1268.17 256.467 1265.3 Q255 1262.4 252.047 1262.4 M252.047 1259.39 Q256.767 1259.39 259.25 1263.13 Q261.752 1266.86 261.752 1273.97 Q261.752 1281.06 259.25 1284.8 Q256.767 1288.52 252.047 1288.52 Q247.326 1288.52 244.825 1284.8 Q242.342 1281.06 242.342 1273.97 Q242.342 1266.86 244.825 1263.13 Q247.326 1259.39 252.047 1259.39 Z" fill="#000000" fill-rule="evenodd" fill-opacity="1" /><path clip-path="url(#clip140)" d="M65.1539 825.412 L53.3484 843.86 L65.1539 843.86 L65.1539 825.412 M63.927 821.337 L69.8066 821.337 L69.8066 843.86 L74.7372 843.86 L74.7372 847.749 L69.8066 847.749 L69.8066 855.897 L65.1539 855.897 L65.1539 847.749 L49.5521 847.749 L49.5521 843.236 L63.927 821.337 Z" fill="#000000" fill-rule="evenodd" fill-opacity="1" /><path clip-path="url(#clip140)" d="M82.4686 850.018 L87.3528 850.018 L87.3528 855.897 L82.4686 855.897 L82.4686 850.018 Z" fill="#000000" fill-rule="evenodd" fill-opacity="1" /><path clip-path="url(#clip140)" d="M107.538 824.416 Q103.927 824.416 102.098 827.981 Q100.293 831.523 100.293 838.652 Q100.293 845.759 102.098 849.323 Q103.927 852.865 107.538 852.865 Q111.172 852.865 112.978 849.323 Q114.806 845.759 114.806 838.652 Q114.806 831.523 112.978 827.981 Q111.172 824.416 107.538 824.416 M107.538 820.712 Q113.348 820.712 116.404 825.319 Q119.482 829.902 119.482 838.652 Q119.482 847.379 116.404 851.985 Q113.348 856.569 107.538 856.569 Q101.728 856.569 98.6491 851.985 Q95.5935 847.379 95.5935 838.652 Q95.5935 829.902 98.6491 825.319 Q101.728 820.712 107.538 820.712 Z" fill="#000000" fill-rule="evenodd" fill-opacity="1" /><path clip-path="url(#clip140)" d="M155.871 830.435 L145.292 841.06 L155.871 851.638 L153.116 854.439 L142.491 843.814 L131.866 854.439 L129.135 851.638 L139.691 841.06 L129.135 830.435 L131.866 827.634 L142.491 838.259 L153.116 827.634 L155.871 830.435 Z" fill="#000000" fill-rule="evenodd" fill-opacity="1" /><path clip-path="url(#clip140)" d="M168.232 851.962 L175.871 851.962 L175.871 825.597 L167.561 827.263 L167.561 823.004 L175.825 821.337 L180.5 821.337 L180.5 851.962 L188.139 851.962 L188.139 855.897 L168.232 855.897 L168.232 851.962 Z" fill="#000000" fill-rule="evenodd" fill-opacity="1" /><path clip-path="url(#clip140)" d="M207.584 824.416 Q203.973 824.416 202.144 827.981 Q200.338 831.523 200.338 838.652 Q200.338 845.759 202.144 849.323 Q203.973 852.865 207.584 852.865 Q211.218 852.865 213.023 849.323 Q214.852 845.759 214.852 838.652 Q214.852 831.523 213.023 827.981 Q211.218 824.416 207.584 824.416 M207.584 820.712 Q213.394 820.712 216.449 825.319 Q219.528 829.902 219.528 838.652 Q219.528 847.379 216.449 851.985 Q213.394 856.569 207.584 856.569 Q201.774 856.569 198.695 851.985 Q195.639 847.379 195.639 838.652 Q195.639 829.902 198.695 825.319 Q201.774 820.712 207.584 820.712 Z" fill="#000000" fill-rule="evenodd" fill-opacity="1" /><path clip-path="url(#clip140)" d="M220.073 825.29 L226.28 825.29 L226.28 803.868 L219.528 805.222 L219.528 801.761 L226.242 800.407 L230.042 800.407 L230.042 825.29 L236.248 825.29 L236.248 828.487 L220.073 828.487 L220.073 825.29 Z" fill="#000000" fill-rule="evenodd" fill-opacity="1" /><path clip-path="url(#clip140)" d="M252.047 802.909 Q249.113 802.909 247.627 805.805 Q246.16 808.682 246.16 814.475 Q246.16 820.249 247.627 823.146 Q249.113 826.023 252.047 826.023 Q255 826.023 256.467 823.146 Q257.952 820.249 257.952 814.475 Q257.952 808.682 256.467 805.805 Q255 802.909 252.047 802.909 M252.047 799.899 Q256.767 799.899 259.25 803.642 Q261.752 807.366 261.752 814.475 Q261.752 821.566 259.25 825.309 Q256.767 829.032 252.047 829.032 Q247.326 829.032 244.825 825.309 Q242.342 821.566 242.342 814.475 Q242.342 807.366 244.825 803.642 Q247.326 799.899 252.047 799.899 Z" fill="#000000" fill-rule="evenodd" fill-opacity="1" /><path clip-path="url(#clip140)" d="M62.8854 377.264 Q59.7373 377.264 57.8854 379.416 Q56.0567 381.569 56.0567 385.319 Q56.0567 389.046 57.8854 391.222 Q59.7373 393.375 62.8854 393.375 Q66.0335 393.375 67.8622 391.222 Q69.7141 389.046 69.7141 385.319 Q69.7141 381.569 67.8622 379.416 Q66.0335 377.264 62.8854 377.264 M72.1677 362.611 L72.1677 366.87 Q70.4085 366.037 68.6029 365.597 Q66.8206 365.157 65.0613 365.157 Q60.4317 365.157 57.978 368.282 Q55.5475 371.407 55.2002 377.726 Q56.566 375.713 58.6262 374.648 Q60.6863 373.56 63.1632 373.56 Q68.3715 373.56 71.3807 376.731 Q74.4131 379.879 74.4131 385.319 Q74.4131 390.643 71.265 393.861 Q68.1168 397.078 62.8854 397.078 Q56.89 397.078 53.7188 392.495 Q50.5475 387.888 50.5475 379.162 Q50.5475 370.967 54.4364 366.106 Q58.3252 361.222 64.8761 361.222 Q66.6354 361.222 68.4178 361.569 Q70.2233 361.916 72.1677 362.611 Z" fill="#000000" fill-rule="evenodd" fill-opacity="1" /><path clip-path="url(#clip140)" d="M82.4686 390.527 L87.3528 390.527 L87.3528 396.407 L82.4686 396.407 L82.4686 390.527 Z" fill="#000000" fill-rule="evenodd" fill-opacity="1" /><path clip-path="url(#clip140)" d="M107.538 364.926 Q103.927 364.926 102.098 368.49 Q100.293 372.032 100.293 379.162 Q100.293 386.268 102.098 389.833 Q103.927 393.375 107.538 393.375 Q111.172 393.375 112.978 389.833 Q114.806 386.268 114.806 379.162 Q114.806 372.032 112.978 368.49 Q111.172 364.926 107.538 364.926 M107.538 361.222 Q113.348 361.222 116.404 365.828 Q119.482 370.412 119.482 379.162 Q119.482 387.888 116.404 392.495 Q113.348 397.078 107.538 397.078 Q101.728 397.078 98.6491 392.495 Q95.5935 387.888 95.5935 379.162 Q95.5935 370.412 98.6491 365.828 Q101.728 361.222 107.538 361.222 Z" fill="#000000" fill-rule="evenodd" fill-opacity="1" /><path clip-path="url(#clip140)" d="M155.871 370.944 L145.292 381.569 L155.871 392.148 L153.116 394.949 L142.491 384.324 L131.866 394.949 L129.135 392.148 L139.691 381.569 L129.135 370.944 L131.866 368.143 L142.491 378.768 L153.116 368.143 L155.871 370.944 Z" fill="#000000" fill-rule="evenodd" fill-opacity="1" /><path clip-path="url(#clip140)" d="M168.232 392.472 L175.871 392.472 L175.871 366.106 L167.561 367.773 L167.561 363.514 L175.825 361.847 L180.5 361.847 L180.5 392.472 L188.139 392.472 L188.139 396.407 L168.232 396.407 L168.232 392.472 Z" fill="#000000" fill-rule="evenodd" fill-opacity="1" /><path clip-path="url(#clip140)" d="M207.584 364.926 Q203.973 364.926 202.144 368.49 Q200.338 372.032 200.338 379.162 Q200.338 386.268 202.144 389.833 Q203.973 393.375 207.584 393.375 Q211.218 393.375 213.023 389.833 Q214.852 386.268 214.852 379.162 Q214.852 372.032 213.023 368.49 Q211.218 364.926 207.584 364.926 M207.584 361.222 Q213.394 361.222 216.449 365.828 Q219.528 370.412 219.528 379.162 Q219.528 387.888 216.449 392.495 Q213.394 397.078 207.584 397.078 Q201.774 397.078 198.695 392.495 Q195.639 387.888 195.639 379.162 Q195.639 370.412 198.695 365.828 Q201.774 361.222 207.584 361.222 Z" fill="#000000" fill-rule="evenodd" fill-opacity="1" /><path clip-path="url(#clip140)" d="M220.073 365.799 L226.28 365.799 L226.28 344.377 L219.528 345.731 L219.528 342.271 L226.242 340.917 L230.042 340.917 L230.042 365.799 L236.248 365.799 L236.248 368.997 L220.073 368.997 L220.073 365.799 Z" fill="#000000" fill-rule="evenodd" fill-opacity="1" /><path clip-path="url(#clip140)" d="M252.047 343.418 Q249.113 343.418 247.627 346.314 Q246.16 349.192 246.16 354.985 Q246.16 360.759 247.627 363.655 Q249.113 366.533 252.047 366.533 Q255 366.533 256.467 363.655 Q257.952 360.759 257.952 354.985 Q257.952 349.192 256.467 346.314 Q255 343.418 252.047 343.418 M252.047 340.409 Q256.767 340.409 259.25 344.151 Q261.752 347.875 261.752 354.985 Q261.752 362.075 259.25 365.818 Q256.767 369.542 252.047 369.542 Q247.326 369.542 244.825 365.818 Q242.342 362.075 242.342 354.985 Q242.342 347.875 244.825 344.151 Q247.326 340.409 252.047 340.409 Z" fill="#000000" fill-rule="evenodd" fill-opacity="1" /><polyline clip-path="url(#clip142)" style="stroke:#009af9; stroke-linecap:butt; stroke-linejoin:round; stroke-width:4; stroke-opacity:1; fill:none" points="
  368.261,1751.15 382.625,1751.15 515.443,1751.15 595.262,1751.15 662.747,1751.15 736.055,1751.15 803.638,1751.15 876.095,1751.15 960.043,1751.15 1034.65,1751.15 
  1100.07,1751.15 1171.39,1751.15 1243.14,1751.15 1322.47,1751.15 1397.95,1751.15 1476.43,1751.14 1542.49,1751.14 1623.15,1751.12 1697.04,1751.07 1765.28,1750.98 
  1834.4,1750.77 1911.87,1750.24 1982.07,1749.14 2022.26,1747.98 2062.44,1746.16 2099.65,1743.54 2136.86,1739.55 2173.55,1733.56 2210.23,1724.5 2228.04,1718.54 
  2245.85,1711.25 2263.66,1702.33 2281.47,1691.41 2299.72,1677.68 2317.98,1660.8 2327.11,1650.96 2336.24,1640.04 2345.36,1627.93 2354.49,1614.5 2364.49,1598.1 
  2374.49,1579.74 2384.49,1559.17 2394.5,1536.14 2404.5,1510.34 2414.5,1481.44 2419.5,1465.72 2424.5,1449.08 2429.5,1431.47 2434.5,1412.83 2441.76,1383.8 
  2449.03,1352.29 2456.29,1318.07 2463.56,1280.92 2470.82,1240.57 2478.08,1196.77 2485.35,1149.21 2492.61,1097.57 2496.24,1070.11 2499.88,1041.5 2503.51,1011.68 
  2507.14,980.613 2510.77,948.24 2514.4,914.507 2518.04,879.357 2521.67,842.73 2525.3,804.564 2528.93,764.795 2532.56,723.355 2536.2,680.174 2539.83,635.179 
  2543.46,588.294 2547.09,539.438 2550.72,488.53 2553.7,445.161 2556.68,400.302 2559.66,353.902 2562.64,305.908 2565.63,256.266 2568.61,204.919 2571.59,151.808 
  2574.57,96.8724 
  "/>
<polyline clip-path="url(#clip142)" style="stroke:#e26f46; stroke-linecap:butt; stroke-linejoin:round; stroke-width:4; stroke-opacity:1; fill:none" points="
  368.261,1751.15 382.625,1751.15 515.443,1751.15 595.262,1751.15 662.747,1751.15 736.055,1751.15 803.638,1751.15 876.095,1751.15 960.043,1751.15 1034.65,1751.15 
  1100.07,1751.14 1171.39,1751.14 1243.14,1751.13 1322.47,1751.11 1397.95,1751.09 1476.43,1751.06 1542.49,1751.02 1582.82,1750.99 1623.15,1750.96 1660.09,1750.92 
  1697.04,1750.88 1731.16,1750.84 1765.28,1750.79 1799.84,1750.73 1834.4,1750.67 1873.14,1750.59 1911.87,1750.49 1946.97,1750.4 1982.07,1750.29 2002.16,1750.23 
  2022.26,1750.16 2042.35,1750.08 2062.44,1750 2081.05,1749.92 2099.65,1749.84 2118.26,1749.75 2136.86,1749.66 2155.21,1749.57 2173.55,1749.47 2191.89,1749.36 
  2210.23,1749.25 2228.04,1749.14 2245.85,1749.02 2263.66,1748.9 2281.47,1748.77 2299.72,1748.63 2317.98,1748.48 2336.24,1748.33 2354.49,1748.17 2374.49,1747.98 
  2394.5,1747.79 2414.5,1747.58 2434.5,1747.37 2449.03,1747.2 2463.56,1747.04 2478.08,1746.86 2492.61,1746.68 2507.14,1746.49 2521.67,1746.3 2536.2,1746.1 
  2550.72,1745.9 2556.68,1745.81 2562.64,1745.72 2568.61,1745.63 2574.57,1745.54 
  "/>
<path clip-path="url(#clip140)" d="
M2279.77 261.215 L2562.8 261.215 L2562.8 105.695 L2279.77 105.695  Z
  " fill="#ffffff" fill-rule="evenodd" fill-opacity="1"/>
<polyline clip-path="url(#clip140)" style="stroke:#000000; stroke-linecap:butt; stroke-linejoin:round; stroke-width:4; stroke-opacity:1; fill:none" points="
  2279.77,261.215 2562.8,261.215 2562.8,105.695 2279.77,105.695 2279.77,261.215 
  "/>
<polyline clip-path="url(#clip140)" style="stroke:#009af9; stroke-linecap:butt; stroke-linejoin:round; stroke-width:4; stroke-opacity:1; fill:none" points="
  2305.76,157.535 2461.67,157.535 
  "/>
<path clip-path="url(#clip140)" d="M2504.16 138.797 L2504.16 142.339 L2500.09 142.339 Q2497.8 142.339 2496.89 143.265 Q2496.01 144.19 2496.01 146.598 L2496.01 148.889 L2503.03 148.889 L2503.03 152.2 L2496.01 152.2 L2496.01 174.815 L2491.73 174.815 L2491.73 152.2 L2487.66 152.2 L2487.66 148.889 L2491.73 148.889 L2491.73 147.084 Q2491.73 142.755 2493.75 140.788 Q2495.76 138.797 2500.13 138.797 L2504.16 138.797 Z" fill="#000000" fill-rule="evenodd" fill-opacity="1" /><polyline clip-path="url(#clip140)" style="stroke:#e26f46; stroke-linecap:butt; stroke-linejoin:round; stroke-width:4; stroke-opacity:1; fill:none" points="
  2305.76,209.375 2461.67,209.375 
  "/>
<path clip-path="url(#clip140)" d="M2506.57 213.391 Q2506.57 208.762 2504.65 206.216 Q2502.75 203.669 2499.3 203.669 Q2495.88 203.669 2493.95 206.216 Q2492.06 208.762 2492.06 213.391 Q2492.06 217.998 2493.95 220.544 Q2495.88 223.09 2499.3 223.09 Q2502.75 223.09 2504.65 220.544 Q2506.57 217.998 2506.57 213.391 M2510.83 223.438 Q2510.83 230.058 2507.89 233.276 Q2504.95 236.516 2498.88 236.516 Q2496.64 236.516 2494.65 236.169 Q2492.66 235.845 2490.78 235.151 L2490.78 231.007 Q2492.66 232.026 2494.49 232.512 Q2496.32 232.998 2498.21 232.998 Q2502.4 232.998 2504.49 230.799 Q2506.57 228.623 2506.57 224.202 L2506.57 222.095 Q2505.25 224.387 2503.19 225.521 Q2501.13 226.655 2498.26 226.655 Q2493.49 226.655 2490.57 223.021 Q2487.66 219.387 2487.66 213.391 Q2487.66 207.373 2490.57 203.739 Q2493.49 200.104 2498.26 200.104 Q2501.13 200.104 2503.19 201.239 Q2505.25 202.373 2506.57 204.665 L2506.57 200.729 L2510.83 200.729 L2510.83 223.438 Z" fill="#000000" fill-rule="evenodd" fill-opacity="1" /></svg>
