<?xml version="1.0" encoding="utf-8"?>
<svg xmlns="http://www.w3.org/2000/svg" xmlns:xlink="http://www.w3.org/1999/xlink" width="672" height="480" viewBox="0 0 2688 1920">
<defs>
  <clipPath id="clip810">
    <rect x="0" y="0" width="2688" height="1920"/>
  </clipPath>
</defs>
<path clip-path="url(#clip810)" d="
M0 1920 L2688 1920 L2688 0 L0 0  Z
  " fill="#ffffff" fill-rule="evenodd" fill-opacity="1"/>
<defs>
  <clipPath id="clip811">
    <rect x="537" y="0" width="1883" height="1883"/>
  </clipPath>
</defs>
<path clip-path="url(#clip810)" d="
M197.302 1800.78 L2640.76 1800.78 L2640.76 47.2441 L197.302 47.2441  Z
  " fill="#ffffff" fill-rule="evenodd" fill-opacity="1"/>
<defs>
  <clipPath id="clip812">
    <rect x="197" y="47" width="2444" height="1755"/>
  </clipPath>
</defs>
<polyline clip-path="url(#clip812)" style="stroke:#000000; stroke-linecap:butt; stroke-linejoin:round; stroke-width:2; stroke-opacity:0.1; fill:none" points="
  476.015,1800.78 476.015,47.2441 
  "/>
<polyline clip-path="url(#clip812)" style="stroke:#000000; stroke-linecap:butt; stroke-linejoin:round; stroke-width:2; stroke-opacity:0.1; fill:none" points="
  1174.54,1800.78 1174.54,47.2441 
  "/>
<polyline clip-path="url(#clip812)" style="stroke:#000000; stroke-linecap:butt; stroke-linejoin:round; stroke-width:2; stroke-opacity:0.1; fill:none" points="
  1873.07,1800.78 1873.07,47.2441 
  "/>
<polyline clip-path="url(#clip812)" style="stroke:#000000; stroke-linecap:butt; stroke-linejoin:round; stroke-width:2; stroke-opacity:0.1; fill:none" points="
  2571.6,1800.78 2571.6,47.2441 
  "/>
<polyline clip-path="url(#clip810)" style="stroke:#000000; stroke-linecap:butt; stroke-linejoin:round; stroke-width:4; stroke-opacity:1; fill:none" points="
  197.302,1800.78 2640.76,1800.78 
  "/>
<polyline clip-path="url(#clip810)" style="stroke:#000000; stroke-linecap:butt; stroke-linejoin:round; stroke-width:4; stroke-opacity:1; fill:none" points="
  476.015,1800.78 476.015,1781.88 
  "/>
<polyline clip-path="url(#clip810)" style="stroke:#000000; stroke-linecap:butt; stroke-linejoin:round; stroke-width:4; stroke-opacity:1; fill:none" points="
  1174.54,1800.78 1174.54,1781.88 
  "/>
<polyline clip-path="url(#clip810)" style="stroke:#000000; stroke-linecap:butt; stroke-linejoin:round; stroke-width:4; stroke-opacity:1; fill:none" points="
  1873.07,1800.78 1873.07,1781.88 
  "/>
<polyline clip-path="url(#clip810)" style="stroke:#000000; stroke-linecap:butt; stroke-linejoin:round; stroke-width:4; stroke-opacity:1; fill:none" points="
  2571.6,1800.78 2571.6,1781.88 
  "/>
<path clip-path="url(#clip810)" d="M445.483 1848.65 L475.159 1848.65 L475.159 1852.59 L445.483 1852.59 L445.483 1848.65 Z" fill="#000000" fill-rule="evenodd" fill-opacity="1" /><path clip-path="url(#clip810)" d="M499.418 1846.85 Q502.774 1847.57 504.649 1849.84 Q506.547 1852.1 506.547 1855.44 Q506.547 1860.55 503.029 1863.35 Q499.51 1866.15 493.029 1866.15 Q490.853 1866.15 488.538 1865.71 Q486.247 1865.3 483.793 1864.44 L483.793 1859.93 Q485.737 1861.06 488.052 1861.64 Q490.367 1862.22 492.89 1862.22 Q497.288 1862.22 499.58 1860.48 Q501.895 1858.75 501.895 1855.44 Q501.895 1852.38 499.742 1850.67 Q497.612 1848.93 493.793 1848.93 L489.765 1848.93 L489.765 1845.09 L493.978 1845.09 Q497.427 1845.09 499.256 1843.72 Q501.084 1842.34 501.084 1839.74 Q501.084 1837.08 499.186 1835.67 Q497.311 1834.23 493.793 1834.23 Q491.872 1834.23 489.672 1834.65 Q487.473 1835.07 484.835 1835.95 L484.835 1831.78 Q487.497 1831.04 489.811 1830.67 Q492.149 1830.3 494.209 1830.3 Q499.533 1830.3 502.635 1832.73 Q505.737 1835.14 505.737 1839.26 Q505.737 1842.13 504.094 1844.12 Q502.45 1846.09 499.418 1846.85 Z" fill="#000000" fill-rule="evenodd" fill-opacity="1" /><path clip-path="url(#clip810)" d="M1144.49 1848.65 L1174.16 1848.65 L1174.16 1852.59 L1144.49 1852.59 L1144.49 1848.65 Z" fill="#000000" fill-rule="evenodd" fill-opacity="1" /><path clip-path="url(#clip810)" d="M1188.28 1861.55 L1204.6 1861.55 L1204.6 1865.48 L1182.66 1865.48 L1182.66 1861.55 Q1185.32 1858.79 1189.9 1854.16 Q1194.51 1849.51 1195.69 1848.17 Q1197.93 1845.65 1198.81 1843.91 Q1199.72 1842.15 1199.72 1840.46 Q1199.72 1837.71 1197.77 1835.97 Q1195.85 1834.23 1192.75 1834.23 Q1190.55 1834.23 1188.1 1835 Q1185.67 1835.76 1182.89 1837.31 L1182.89 1832.59 Q1185.71 1831.46 1188.17 1830.88 Q1190.62 1830.3 1192.66 1830.3 Q1198.03 1830.3 1201.22 1832.98 Q1204.42 1835.67 1204.42 1840.16 Q1204.42 1842.29 1203.61 1844.21 Q1202.82 1846.11 1200.71 1848.7 Q1200.13 1849.37 1197.03 1852.59 Q1193.93 1855.78 1188.28 1861.55 Z" fill="#000000" fill-rule="evenodd" fill-opacity="1" /><path clip-path="url(#clip810)" d="M1842.83 1848.65 L1872.51 1848.65 L1872.51 1852.59 L1842.83 1852.59 L1842.83 1848.65 Z" fill="#000000" fill-rule="evenodd" fill-opacity="1" /><path clip-path="url(#clip810)" d="M1883.41 1861.55 L1891.05 1861.55 L1891.05 1835.18 L1882.74 1836.85 L1882.74 1832.59 L1891 1830.92 L1895.68 1830.92 L1895.68 1861.55 L1903.32 1861.55 L1903.32 1865.48 L1883.41 1865.48 L1883.41 1861.55 Z" fill="#000000" fill-rule="evenodd" fill-opacity="1" /><path clip-path="url(#clip810)" d="M2571.6 1834 Q2567.99 1834 2566.16 1837.57 Q2564.36 1841.11 2564.36 1848.24 Q2564.36 1855.34 2566.16 1858.91 Q2567.99 1862.45 2571.6 1862.45 Q2575.24 1862.45 2577.04 1858.91 Q2578.87 1855.34 2578.87 1848.24 Q2578.87 1841.11 2577.04 1837.57 Q2575.24 1834 2571.6 1834 M2571.6 1830.3 Q2577.41 1830.3 2580.47 1834.9 Q2583.55 1839.49 2583.55 1848.24 Q2583.55 1856.96 2580.47 1861.57 Q2577.41 1866.15 2571.6 1866.15 Q2565.79 1866.15 2562.71 1861.57 Q2559.66 1856.96 2559.66 1848.24 Q2559.66 1839.49 2562.71 1834.9 Q2565.79 1830.3 2571.6 1830.3 Z" fill="#000000" fill-rule="evenodd" fill-opacity="1" /><polyline clip-path="url(#clip812)" style="stroke:#000000; stroke-linecap:butt; stroke-linejoin:round; stroke-width:2; stroke-opacity:0.1; fill:none" points="
  197.302,1718.23 2640.76,1718.23 
  "/>
<polyline clip-path="url(#clip812)" style="stroke:#000000; stroke-linecap:butt; stroke-linejoin:round; stroke-width:2; stroke-opacity:0.1; fill:none" points="
  197.302,1371.58 2640.76,1371.58 
  "/>
<polyline clip-path="url(#clip812)" style="stroke:#000000; stroke-linecap:butt; stroke-linejoin:round; stroke-width:2; stroke-opacity:0.1; fill:none" points="
  197.302,1024.93 2640.76,1024.93 
  "/>
<polyline clip-path="url(#clip812)" style="stroke:#000000; stroke-linecap:butt; stroke-linejoin:round; stroke-width:2; stroke-opacity:0.1; fill:none" points="
  197.302,678.287 2640.76,678.287 
  "/>
<polyline clip-path="url(#clip812)" style="stroke:#000000; stroke-linecap:butt; stroke-linejoin:round; stroke-width:2; stroke-opacity:0.1; fill:none" points="
  197.302,331.641 2640.76,331.641 
  "/>
<polyline clip-path="url(#clip810)" style="stroke:#000000; stroke-linecap:butt; stroke-linejoin:round; stroke-width:4; stroke-opacity:1; fill:none" points="
  197.302,1800.78 197.302,47.2441 
  "/>
<polyline clip-path="url(#clip810)" style="stroke:#000000; stroke-linecap:butt; stroke-linejoin:round; stroke-width:4; stroke-opacity:1; fill:none" points="
  197.302,1718.23 216.2,1718.23 
  "/>
<polyline clip-path="url(#clip810)" style="stroke:#000000; stroke-linecap:butt; stroke-linejoin:round; stroke-width:4; stroke-opacity:1; fill:none" points="
  197.302,1371.58 216.2,1371.58 
  "/>
<polyline clip-path="url(#clip810)" style="stroke:#000000; stroke-linecap:butt; stroke-linejoin:round; stroke-width:4; stroke-opacity:1; fill:none" points="
  197.302,1024.93 216.2,1024.93 
  "/>
<polyline clip-path="url(#clip810)" style="stroke:#000000; stroke-linecap:butt; stroke-linejoin:round; stroke-width:4; stroke-opacity:1; fill:none" points="
  197.302,678.287 216.2,678.287 
  "/>
<polyline clip-path="url(#clip810)" style="stroke:#000000; stroke-linecap:butt; stroke-linejoin:round; stroke-width:4; stroke-opacity:1; fill:none" points="
  197.302,331.641 216.2,331.641 
  "/>
<path clip-path="url(#clip810)" d="M49.5521 1718.68 L79.2279 1718.68 L79.2279 1722.61 L49.5521 1722.61 L49.5521 1718.68 Z" fill="#000000" fill-rule="evenodd" fill-opacity="1" /><path clip-path="url(#clip810)" d="M99.3204 1704.03 Q95.7093 1704.03 93.8806 1707.59 Q92.075 1711.13 92.075 1718.26 Q92.075 1725.37 93.8806 1728.93 Q95.7093 1732.48 99.3204 1732.48 Q102.955 1732.48 104.76 1728.93 Q106.589 1725.37 106.589 1718.26 Q106.589 1711.13 104.76 1707.59 Q102.955 1704.03 99.3204 1704.03 M99.3204 1700.32 Q105.131 1700.32 108.186 1704.93 Q111.265 1709.51 111.265 1718.26 Q111.265 1726.99 108.186 1731.6 Q105.131 1736.18 99.3204 1736.18 Q93.5102 1736.18 90.4315 1731.6 Q87.376 1726.99 87.376 1718.26 Q87.376 1709.51 90.4315 1704.93 Q93.5102 1700.32 99.3204 1700.32 Z" fill="#000000" fill-rule="evenodd" fill-opacity="1" /><path clip-path="url(#clip810)" d="M119.482 1729.63 L124.367 1729.63 L124.367 1735.51 L119.482 1735.51 L119.482 1729.63 Z" fill="#000000" fill-rule="evenodd" fill-opacity="1" /><path clip-path="url(#clip810)" d="M147.399 1705.02 L135.593 1723.47 L147.399 1723.47 L147.399 1705.02 M146.172 1700.95 L152.052 1700.95 L152.052 1723.47 L156.982 1723.47 L156.982 1727.36 L152.052 1727.36 L152.052 1735.51 L147.399 1735.51 L147.399 1727.36 L131.797 1727.36 L131.797 1722.85 L146.172 1700.95 Z" fill="#000000" fill-rule="evenodd" fill-opacity="1" /><path clip-path="url(#clip810)" d="M51.6354 1372.03 L81.3112 1372.03 L81.3112 1375.97 L51.6354 1375.97 L51.6354 1372.03 Z" fill="#000000" fill-rule="evenodd" fill-opacity="1" /><path clip-path="url(#clip810)" d="M101.404 1357.38 Q97.7926 1357.38 95.9639 1360.94 Q94.1584 1364.49 94.1584 1371.62 Q94.1584 1378.72 95.9639 1382.29 Q97.7926 1385.83 101.404 1385.83 Q105.038 1385.83 106.843 1382.29 Q108.672 1378.72 108.672 1371.62 Q108.672 1364.49 106.843 1360.94 Q105.038 1357.38 101.404 1357.38 M101.404 1353.68 Q107.214 1353.68 110.269 1358.28 Q113.348 1362.87 113.348 1371.62 Q113.348 1380.34 110.269 1384.95 Q107.214 1389.53 101.404 1389.53 Q95.5935 1389.53 92.5149 1384.95 Q89.4593 1380.34 89.4593 1371.62 Q89.4593 1362.87 92.5149 1358.28 Q95.5935 1353.68 101.404 1353.68 Z" fill="#000000" fill-rule="evenodd" fill-opacity="1" /><path clip-path="url(#clip810)" d="M121.566 1382.98 L126.45 1382.98 L126.45 1388.86 L121.566 1388.86 L121.566 1382.98 Z" fill="#000000" fill-rule="evenodd" fill-opacity="1" /><path clip-path="url(#clip810)" d="M140.663 1384.93 L156.982 1384.93 L156.982 1388.86 L135.038 1388.86 L135.038 1384.93 Q137.7 1382.17 142.283 1377.54 Q146.89 1372.89 148.07 1371.55 Q150.315 1369.02 151.195 1367.29 Q152.098 1365.53 152.098 1363.84 Q152.098 1361.08 150.153 1359.35 Q148.232 1357.61 145.13 1357.61 Q142.931 1357.61 140.478 1358.38 Q138.047 1359.14 135.269 1360.69 L135.269 1355.97 Q138.093 1354.83 140.547 1354.25 Q143.001 1353.68 145.038 1353.68 Q150.408 1353.68 153.602 1356.36 Q156.797 1359.05 156.797 1363.54 Q156.797 1365.67 155.987 1367.59 Q155.2 1369.49 153.093 1372.08 Q152.515 1372.75 149.413 1375.97 Q146.311 1379.16 140.663 1384.93 Z" fill="#000000" fill-rule="evenodd" fill-opacity="1" /><path clip-path="url(#clip810)" d="M99.8065 1010.73 Q96.1954 1010.73 94.3667 1014.3 Q92.5612 1017.84 92.5612 1024.97 Q92.5612 1032.08 94.3667 1035.64 Q96.1954 1039.18 99.8065 1039.18 Q103.441 1039.18 105.246 1035.64 Q107.075 1032.08 107.075 1024.97 Q107.075 1017.84 105.246 1014.3 Q103.441 1010.73 99.8065 1010.73 M99.8065 1007.03 Q105.617 1007.03 108.672 1011.64 Q111.751 1016.22 111.751 1024.97 Q111.751 1033.7 108.672 1038.3 Q105.617 1042.89 99.8065 1042.89 Q93.9963 1042.89 90.9176 1038.3 Q87.8621 1033.7 87.8621 1024.97 Q87.8621 1016.22 90.9176 1011.64 Q93.9963 1007.03 99.8065 1007.03 Z" fill="#000000" fill-rule="evenodd" fill-opacity="1" /><path clip-path="url(#clip810)" d="M119.968 1036.33 L124.853 1036.33 L124.853 1042.21 L119.968 1042.21 L119.968 1036.33 Z" fill="#000000" fill-rule="evenodd" fill-opacity="1" /><path clip-path="url(#clip810)" d="M145.038 1010.73 Q141.427 1010.73 139.598 1014.3 Q137.792 1017.84 137.792 1024.97 Q137.792 1032.08 139.598 1035.64 Q141.427 1039.18 145.038 1039.18 Q148.672 1039.18 150.478 1035.64 Q152.306 1032.08 152.306 1024.97 Q152.306 1017.84 150.478 1014.3 Q148.672 1010.73 145.038 1010.73 M145.038 1007.03 Q150.848 1007.03 153.903 1011.64 Q156.982 1016.22 156.982 1024.97 Q156.982 1033.7 153.903 1038.3 Q150.848 1042.89 145.038 1042.89 Q139.228 1042.89 136.149 1038.3 Q133.093 1033.7 133.093 1024.97 Q133.093 1016.22 136.149 1011.64 Q139.228 1007.03 145.038 1007.03 Z" fill="#000000" fill-rule="evenodd" fill-opacity="1" /><path clip-path="url(#clip810)" d="M101.404 664.086 Q97.7926 664.086 95.9639 667.651 Q94.1584 671.193 94.1584 678.322 Q94.1584 685.429 95.9639 688.993 Q97.7926 692.535 101.404 692.535 Q105.038 692.535 106.843 688.993 Q108.672 685.429 108.672 678.322 Q108.672 671.193 106.843 667.651 Q105.038 664.086 101.404 664.086 M101.404 660.382 Q107.214 660.382 110.269 664.989 Q113.348 669.572 113.348 678.322 Q113.348 687.049 110.269 691.655 Q107.214 696.239 101.404 696.239 Q95.5935 696.239 92.5149 691.655 Q89.4593 687.049 89.4593 678.322 Q89.4593 669.572 92.5149 664.989 Q95.5935 660.382 101.404 660.382 Z" fill="#000000" fill-rule="evenodd" fill-opacity="1" /><path clip-path="url(#clip810)" d="M121.566 689.688 L126.45 689.688 L126.45 695.567 L121.566 695.567 L121.566 689.688 Z" fill="#000000" fill-rule="evenodd" fill-opacity="1" /><path clip-path="url(#clip810)" d="M140.663 691.632 L156.982 691.632 L156.982 695.567 L135.038 695.567 L135.038 691.632 Q137.7 688.878 142.283 684.248 Q146.89 679.595 148.07 678.253 Q150.315 675.73 151.195 673.993 Q152.098 672.234 152.098 670.544 Q152.098 667.79 150.153 666.054 Q148.232 664.318 145.13 664.318 Q142.931 664.318 140.478 665.081 Q138.047 665.845 135.269 667.396 L135.269 662.674 Q138.093 661.54 140.547 660.961 Q143.001 660.382 145.038 660.382 Q150.408 660.382 153.602 663.068 Q156.797 665.753 156.797 670.244 Q156.797 672.373 155.987 674.294 Q155.2 676.193 153.093 678.785 Q152.515 679.456 149.413 682.674 Q146.311 685.868 140.663 691.632 Z" fill="#000000" fill-rule="evenodd" fill-opacity="1" /><path clip-path="url(#clip810)" d="M99.3204 317.439 Q95.7093 317.439 93.8806 321.004 Q92.075 324.546 92.075 331.675 Q92.075 338.782 93.8806 342.346 Q95.7093 345.888 99.3204 345.888 Q102.955 345.888 104.76 342.346 Q106.589 338.782 106.589 331.675 Q106.589 324.546 104.76 321.004 Q102.955 317.439 99.3204 317.439 M99.3204 313.736 Q105.131 313.736 108.186 318.342 Q111.265 322.925 111.265 331.675 Q111.265 340.402 108.186 345.009 Q105.131 349.592 99.3204 349.592 Q93.5102 349.592 90.4315 345.009 Q87.376 340.402 87.376 331.675 Q87.376 322.925 90.4315 318.342 Q93.5102 313.736 99.3204 313.736 Z" fill="#000000" fill-rule="evenodd" fill-opacity="1" /><path clip-path="url(#clip810)" d="M119.482 343.041 L124.367 343.041 L124.367 348.921 L119.482 348.921 L119.482 343.041 Z" fill="#000000" fill-rule="evenodd" fill-opacity="1" /><path clip-path="url(#clip810)" d="M147.399 318.435 L135.593 336.884 L147.399 336.884 L147.399 318.435 M146.172 314.361 L152.052 314.361 L152.052 336.884 L156.982 336.884 L156.982 340.772 L152.052 340.772 L152.052 348.921 L147.399 348.921 L147.399 340.772 L131.797 340.772 L131.797 336.259 L146.172 314.361 Z" fill="#000000" fill-rule="evenodd" fill-opacity="1" /><polyline clip-path="url(#clip812)" style="stroke:#009af9; stroke-linecap:butt; stroke-linejoin:round; stroke-width:4; stroke-opacity:1; fill:none" points="
  266.456,1748.01 270.208,1748.63 273.96,1749.19 277.712,1749.68 281.464,1750.1 298.81,1751.15 316.156,1750.75 333.502,1748.9 350.848,1745.62 368.194,1740.92 
  385.54,1734.84 402.887,1727.38 420.233,1718.58 441.081,1706.27 461.93,1692.1 482.778,1676.14 503.627,1658.44 521.254,1642.17 538.881,1624.75 556.508,1606.22 
  574.135,1586.62 593.283,1564.17 612.431,1540.57 631.579,1515.89 650.727,1490.18 686.033,1440.31 721.338,1387.57 759.19,1328.32 797.041,1266.75 840.895,1193.2 
  884.75,1118 962.695,982.625 1031.05,864.754 1068.31,801.769 1105.57,740.147 1143.05,679.873 1180.53,621.629 1221.97,559.932 1263.41,501.392 1302.84,448.89 
  1342.27,399.719 1383.27,352.308 1424.27,308.836 1458.78,275.377 1493.29,244.831 1535.43,211.522 1577.56,182.6 1616.16,159.931 1654.76,140.874 1690.41,126.42 
  1726.06,114.918 1762.17,106.19 1798.28,100.306 1838.75,96.9555 1879.22,96.8724 1915.89,99.4682 1952.56,104.458 1994.55,112.922 2036.54,124.109 2075.41,136.694 
  2114.29,151.233 2152.62,167.303 2190.95,184.921 2228.16,203.348 2265.37,222.922 2341.67,266.016 2425.26,316.621 2546.69,393.594 2571.6,409.587 
  "/>
<polyline clip-path="url(#clip812)" style="stroke:#e26f46; stroke-linecap:butt; stroke-linejoin:round; stroke-width:4; stroke-opacity:1; fill:none" points="
  266.456,1024.93 281.464,1024.93 420.233,1024.93 503.627,1024.93 574.135,1024.93 650.727,1024.93 721.338,1024.93 797.041,1024.93 884.75,1024.93 962.695,1024.93 
  1031.05,1024.93 1105.57,1024.93 1180.53,1024.93 1263.41,1024.93 1342.27,1024.93 1424.27,1024.93 1493.29,1024.93 1577.56,1024.93 1654.76,1024.93 1726.06,1024.93 
  1798.28,1024.93 1879.22,1024.93 1952.56,1024.93 2036.54,1024.93 2114.29,1024.93 2190.95,1024.93 2265.37,1024.93 2341.67,1024.93 2425.26,1024.93 2546.69,1024.93 
  2571.6,1024.93 
  "/>
<circle clip-path="url(#clip812)" cx="615.721" cy="1024.93" r="18" fill="#ffa500" fill-rule="evenodd" fill-opacity="1" stroke="#000000" stroke-opacity="1" stroke-width="3.84"/>
<path clip-path="url(#clip810)" d="M620.319 663.157 L603.912 685.235 L621.169 708.527 L612.379 708.527 L599.173 690.703 L585.967 708.527 L577.177 708.527 L594.798 684.789 L578.675 663.157 L587.466 663.157 L599.497 679.32 L611.528 663.157 L620.319 663.157 Z" fill="#000000" fill-rule="evenodd" fill-opacity="1" /><path clip-path="url(#clip810)" d="M646.974 681.103 Q644.948 677.619 640.857 677.619 Q636.765 677.619 634.74 681.103 Q632.674 684.587 632.674 691.554 Q632.674 698.562 634.74 702.046 Q636.765 705.53 640.857 705.53 Q644.948 705.53 646.974 702.046 Q649.04 698.562 649.04 691.554 Q649.04 684.587 646.974 681.103 M640.857 674.014 Q647.379 674.014 650.822 678.51 Q654.265 683.007 654.265 691.554 Q654.265 700.142 650.822 704.639 Q647.379 709.135 640.857 709.135 Q634.294 709.135 630.851 704.639 Q627.408 700.142 627.408 691.554 Q627.408 683.007 630.851 678.51 Q634.294 674.014 640.857 674.014 Z" fill="#000000" fill-rule="evenodd" fill-opacity="1" /></svg>
