<?xml version="1.0" encoding="utf-8"?>
<svg xmlns="http://www.w3.org/2000/svg" xmlns:xlink="http://www.w3.org/1999/xlink" width="672" height="480" viewBox="0 0 2688 1920">
<defs>
  <clipPath id="clip290">
    <rect x="0" y="0" width="2688" height="1920"/>
  </clipPath>
</defs>
<path clip-path="url(#clip290)" d="
M0 1920 L2688 1920 L2688 0 L0 0  Z
  " fill="#ffffff" fill-rule="evenodd" fill-opacity="1"/>
<defs>
  <clipPath id="clip291">
    <rect x="537" y="0" width="1883" height="1883"/>
  </clipPath>
</defs>
<path clip-path="url(#clip290)" d="
M518.789 1800.78 L2272.32 1800.78 L2272.32 47.2441 L518.789 47.2441  Z
  " fill="#ffffff" fill-rule="evenodd" fill-opacity="1"/>
<defs>
  <clipPath id="clip292">
    <rect x="518" y="47" width="1755" height="1755"/>
  </clipPath>
</defs>
<polyline clip-path="url(#clip292)" style="stroke:#000000; stroke-linecap:round; stroke-linejoin:round; stroke-width:2; stroke-opacity:0.1; fill:none" points="
  518.789,1800.78 518.789,47.2441 
  "/>
<polyline clip-path="url(#clip292)" style="stroke:#000000; stroke-linecap:round; stroke-linejoin:round; stroke-width:2; stroke-opacity:0.1; fill:none" points="
  957.173,1800.78 957.173,47.2441 
  "/>
<polyline clip-path="url(#clip292)" style="stroke:#000000; stroke-linecap:round; stroke-linejoin:round; stroke-width:2; stroke-opacity:0.1; fill:none" points="
  1395.56,1800.78 1395.56,47.2441 
  "/>
<polyline clip-path="url(#clip292)" style="stroke:#000000; stroke-linecap:round; stroke-linejoin:round; stroke-width:2; stroke-opacity:0.1; fill:none" points="
  1833.94,1800.78 1833.94,47.2441 
  "/>
<polyline clip-path="url(#clip292)" style="stroke:#000000; stroke-linecap:round; stroke-linejoin:round; stroke-width:2; stroke-opacity:0.1; fill:none" points="
  2272.32,1800.78 2272.32,47.2441 
  "/>
<polyline clip-path="url(#clip290)" style="stroke:#000000; stroke-linecap:round; stroke-linejoin:round; stroke-width:4; stroke-opacity:1; fill:none" points="
  518.789,1800.78 2272.32,1800.78 
  "/>
<polyline clip-path="url(#clip290)" style="stroke:#000000; stroke-linecap:round; stroke-linejoin:round; stroke-width:4; stroke-opacity:1; fill:none" points="
  518.789,1800.78 518.789,1781.88 
  "/>
<polyline clip-path="url(#clip290)" style="stroke:#000000; stroke-linecap:round; stroke-linejoin:round; stroke-width:4; stroke-opacity:1; fill:none" points="
  957.173,1800.78 957.173,1781.88 
  "/>
<polyline clip-path="url(#clip290)" style="stroke:#000000; stroke-linecap:round; stroke-linejoin:round; stroke-width:4; stroke-opacity:1; fill:none" points="
  1395.56,1800.78 1395.56,1781.88 
  "/>
<polyline clip-path="url(#clip290)" style="stroke:#000000; stroke-linecap:round; stroke-linejoin:round; stroke-width:4; stroke-opacity:1; fill:none" points="
  1833.94,1800.78 1833.94,1781.88 
  "/>
<polyline clip-path="url(#clip290)" style="stroke:#000000; stroke-linecap:round; stroke-linejoin:round; stroke-width:4; stroke-opacity:1; fill:none" points="
  2272.32,1800.78 2272.32,1781.88 
  "/>
<path clip-path="url(#clip290)" d="M488.732 1848.65 L518.407 1848.65 L518.407 1852.59 L488.732 1852.59 L488.732 1848.65 Z" fill="#000000" fill-rule="evenodd" fill-opacity="1" /><path clip-path="url(#clip290)" d="M532.528 1861.55 L548.847 1861.55 L548.847 1865.48 L526.903 1865.48 L526.903 1861.55 Q529.565 1858.79 534.148 1854.16 Q538.754 1849.51 539.935 1848.17 Q542.18 1845.65 543.06 1843.91 Q543.963 1842.15 543.963 1840.46 Q543.963 1837.71 542.018 1835.97 Q540.097 1834.23 536.995 1834.23 Q534.796 1834.23 532.342 1835 Q529.912 1835.76 527.134 1837.31 L527.134 1832.59 Q529.958 1831.46 532.412 1830.88 Q534.866 1830.3 536.903 1830.3 Q542.273 1830.3 545.467 1832.98 Q548.662 1835.67 548.662 1840.16 Q548.662 1842.29 547.852 1844.21 Q547.065 1846.11 544.958 1848.7 Q544.379 1849.37 541.278 1852.59 Q538.176 1855.78 532.528 1861.55 Z" fill="#000000" fill-rule="evenodd" fill-opacity="1" /><path clip-path="url(#clip290)" d="M926.93 1848.65 L956.606 1848.65 L956.606 1852.59 L926.93 1852.59 L926.93 1848.65 Z" fill="#000000" fill-rule="evenodd" fill-opacity="1" /><path clip-path="url(#clip290)" d="M967.509 1861.55 L975.148 1861.55 L975.148 1835.18 L966.837 1836.85 L966.837 1832.59 L975.101 1830.92 L979.777 1830.92 L979.777 1861.55 L987.416 1861.55 L987.416 1865.48 L967.509 1865.48 L967.509 1861.55 Z" fill="#000000" fill-rule="evenodd" fill-opacity="1" /><path clip-path="url(#clip290)" d="M1395.56 1834 Q1391.95 1834 1390.12 1837.57 Q1388.31 1841.11 1388.31 1848.24 Q1388.31 1855.34 1390.12 1858.91 Q1391.95 1862.45 1395.56 1862.45 Q1399.19 1862.45 1401 1858.91 Q1402.83 1855.34 1402.83 1848.24 Q1402.83 1841.11 1401 1837.57 Q1399.19 1834 1395.56 1834 M1395.56 1830.3 Q1401.37 1830.3 1404.42 1834.9 Q1407.5 1839.49 1407.5 1848.24 Q1407.5 1856.96 1404.42 1861.57 Q1401.37 1866.15 1395.56 1866.15 Q1389.75 1866.15 1386.67 1861.57 Q1383.61 1856.96 1383.61 1848.24 Q1383.61 1839.49 1386.67 1834.9 Q1389.75 1830.3 1395.56 1830.3 Z" fill="#000000" fill-rule="evenodd" fill-opacity="1" /><path clip-path="url(#clip290)" d="M1824.32 1861.55 L1831.96 1861.55 L1831.96 1835.18 L1823.65 1836.85 L1823.65 1832.59 L1831.92 1830.92 L1836.59 1830.92 L1836.59 1861.55 L1844.23 1861.55 L1844.23 1865.48 L1824.32 1865.48 L1824.32 1861.55 Z" fill="#000000" fill-rule="evenodd" fill-opacity="1" /><path clip-path="url(#clip290)" d="M2266.98 1861.55 L2283.3 1861.55 L2283.3 1865.48 L2261.35 1865.48 L2261.35 1861.55 Q2264.01 1858.79 2268.6 1854.16 Q2273.2 1849.51 2274.38 1848.17 Q2276.63 1845.65 2277.51 1843.91 Q2278.41 1842.15 2278.41 1840.46 Q2278.41 1837.71 2276.47 1835.97 Q2274.55 1834.23 2271.44 1834.23 Q2269.25 1834.23 2266.79 1835 Q2264.36 1835.76 2261.58 1837.31 L2261.58 1832.59 Q2264.41 1831.46 2266.86 1830.88 Q2269.32 1830.3 2271.35 1830.3 Q2276.72 1830.3 2279.92 1832.98 Q2283.11 1835.67 2283.11 1840.16 Q2283.11 1842.29 2282.3 1844.21 Q2281.51 1846.11 2279.41 1848.7 Q2278.83 1849.37 2275.73 1852.59 Q2272.63 1855.78 2266.98 1861.55 Z" fill="#000000" fill-rule="evenodd" fill-opacity="1" /><polyline clip-path="url(#clip292)" style="stroke:#000000; stroke-linecap:round; stroke-linejoin:round; stroke-width:2; stroke-opacity:0.1; fill:none" points="
  518.789,1800.78 2272.32,1800.78 
  "/>
<polyline clip-path="url(#clip292)" style="stroke:#000000; stroke-linecap:round; stroke-linejoin:round; stroke-width:2; stroke-opacity:0.1; fill:none" points="
  518.789,1362.4 2272.32,1362.4 
  "/>
<polyline clip-path="url(#clip292)" style="stroke:#000000; stroke-linecap:round; stroke-linejoin:round; stroke-width:2; stroke-opacity:0.1; fill:none" points="
  518.789,924.012 2272.32,924.012 
  "/>
<polyline clip-path="url(#clip292)" style="stroke:#000000; stroke-linecap:round; stroke-linejoin:round; stroke-width:2; stroke-opacity:0.1; fill:none" points="
  518.789,485.628 2272.32,485.628 
  "/>
<polyline clip-path="url(#clip292)" style="stroke:#000000; stroke-linecap:round; stroke-linejoin:round; stroke-width:2; stroke-opacity:0.1; fill:none" points="
  518.789,47.2441 2272.32,47.2441 
  "/>
<polyline clip-path="url(#clip290)" style="stroke:#000000; stroke-linecap:round; stroke-linejoin:round; stroke-width:4; stroke-opacity:1; fill:none" points="
  518.789,1800.78 518.789,47.2441 
  "/>
<polyline clip-path="url(#clip290)" style="stroke:#000000; stroke-linecap:round; stroke-linejoin:round; stroke-width:4; stroke-opacity:1; fill:none" points="
  518.789,1800.78 532.095,1800.78 
  "/>
<polyline clip-path="url(#clip290)" style="stroke:#000000; stroke-linecap:round; stroke-linejoin:round; stroke-width:4; stroke-opacity:1; fill:none" points="
  518.789,1362.4 532.095,1362.4 
  "/>
<polyline clip-path="url(#clip290)" style="stroke:#000000; stroke-linecap:round; stroke-linejoin:round; stroke-width:4; stroke-opacity:1; fill:none" points="
  518.789,924.012 532.095,924.012 
  "/>
<polyline clip-path="url(#clip290)" style="stroke:#000000; stroke-linecap:round; stroke-linejoin:round; stroke-width:4; stroke-opacity:1; fill:none" points="
  518.789,485.628 532.095,485.628 
  "/>
<polyline clip-path="url(#clip290)" style="stroke:#000000; stroke-linecap:round; stroke-linejoin:round; stroke-width:4; stroke-opacity:1; fill:none" points="
  518.789,47.2441 532.095,47.2441 
  "/>
<path clip-path="url(#clip290)" d="M418.354 1801.23 L448.03 1801.23 L448.03 1805.17 L418.354 1805.17 L418.354 1801.23 Z" fill="#000000" fill-rule="evenodd" fill-opacity="1" /><path clip-path="url(#clip290)" d="M462.15 1814.12 L478.469 1814.12 L478.469 1818.06 L456.525 1818.06 L456.525 1814.12 Q459.187 1811.37 463.77 1806.74 Q468.377 1802.09 469.557 1800.74 Q471.803 1798.22 472.682 1796.49 Q473.585 1794.73 473.585 1793.04 Q473.585 1790.28 471.641 1788.55 Q469.719 1786.81 466.618 1786.81 Q464.418 1786.81 461.965 1787.57 Q459.534 1788.34 456.756 1789.89 L456.756 1785.17 Q459.581 1784.03 462.034 1783.45 Q464.488 1782.87 466.525 1782.87 Q471.895 1782.87 475.09 1785.56 Q478.284 1788.24 478.284 1792.74 Q478.284 1794.86 477.474 1796.79 Q476.687 1798.68 474.58 1801.28 Q474.002 1801.95 470.9 1805.17 Q467.798 1808.36 462.15 1814.12 Z" fill="#000000" fill-rule="evenodd" fill-opacity="1" /><path clip-path="url(#clip290)" d="M417.984 1362.85 L447.659 1362.85 L447.659 1366.78 L417.984 1366.78 L417.984 1362.85 Z" fill="#000000" fill-rule="evenodd" fill-opacity="1" /><path clip-path="url(#clip290)" d="M458.562 1375.74 L466.201 1375.74 L466.201 1349.37 L457.891 1351.04 L457.891 1346.78 L466.155 1345.12 L470.83 1345.12 L470.83 1375.74 L478.469 1375.74 L478.469 1379.68 L458.562 1379.68 L458.562 1375.74 Z" fill="#000000" fill-rule="evenodd" fill-opacity="1" /><path clip-path="url(#clip290)" d="M466.525 909.81 Q462.914 909.81 461.085 913.375 Q459.28 916.917 459.28 924.046 Q459.28 931.153 461.085 934.718 Q462.914 938.259 466.525 938.259 Q470.159 938.259 471.965 934.718 Q473.793 931.153 473.793 924.046 Q473.793 916.917 471.965 913.375 Q470.159 909.81 466.525 909.81 M466.525 906.107 Q472.335 906.107 475.391 910.713 Q478.469 915.296 478.469 924.046 Q478.469 932.773 475.391 937.38 Q472.335 941.963 466.525 941.963 Q460.715 941.963 457.636 937.38 Q454.581 932.773 454.581 924.046 Q454.581 915.296 457.636 910.713 Q460.715 906.107 466.525 906.107 Z" fill="#000000" fill-rule="evenodd" fill-opacity="1" /><path clip-path="url(#clip290)" d="M458.562 498.973 L466.201 498.973 L466.201 472.607 L457.891 474.274 L457.891 470.015 L466.155 468.348 L470.83 468.348 L470.83 498.973 L478.469 498.973 L478.469 502.908 L458.562 502.908 L458.562 498.973 Z" fill="#000000" fill-rule="evenodd" fill-opacity="1" /><path clip-path="url(#clip290)" d="M462.15 60.5889 L478.469 60.5889 L478.469 64.5241 L456.525 64.5241 L456.525 60.5889 Q459.187 57.8343 463.77 53.2047 Q468.377 48.552 469.557 47.2094 Q471.803 44.6862 472.682 42.9501 Q473.585 41.1909 473.585 39.5011 Q473.585 36.7465 471.641 35.0104 Q469.719 33.2743 466.618 33.2743 Q464.418 33.2743 461.965 34.0381 Q459.534 34.802 456.756 36.3529 L456.756 31.6308 Q459.581 30.4965 462.034 29.9178 Q464.488 29.3391 466.525 29.3391 Q471.895 29.3391 475.09 32.0243 Q478.284 34.7094 478.284 39.2002 Q478.284 41.3298 477.474 43.2511 Q476.687 45.1492 474.58 47.7418 Q474.002 48.4131 470.9 51.6306 Q467.798 54.8251 462.15 60.5889 Z" fill="#000000" fill-rule="evenodd" fill-opacity="1" /><polyline clip-path="url(#clip292)" style="stroke:#1e90ff; stroke-linecap:round; stroke-linejoin:round; stroke-width:4; stroke-opacity:1; fill:none" points="
  1147.25,417.845 1142.85,417.815 1138.46,417.836 1134.06,417.909 1129.67,418.035 1125.28,418.214 1120.88,418.448 1116.49,418.737 1112.09,419.083 1107.7,419.487 
  1103.3,419.949 1098.91,420.471 1096.39,420.804 1094.51,421.057 1090.12,421.711 1085.72,422.428 1081.33,423.21 1076.93,424.06 1072.54,424.977 1071.54,425.199 
  1068.14,425.973 1063.75,427.044 1059.35,428.188 1054.96,429.407 1054.32,429.594 1050.56,430.717 1046.17,432.109 1041.77,433.581 1040.61,433.989 1037.38,435.152 
  1032.98,436.814 1029.04,438.384 1028.59,438.567 1024.19,440.433 1019.8,442.392 1018.97,442.778 1015.4,444.472 1011.01,446.658 1010.01,447.173 1006.61,448.972 
  1002.22,451.401 1001.93,451.568 997.825,453.977 994.576,455.963 993.43,456.681 989.036,459.537 987.817,460.358 984.641,462.553 981.572,464.752 980.246,465.728 
  975.851,469.076 975.761,469.147 971.456,472.627 970.361,473.542 967.061,476.377 965.303,477.937 962.667,480.344 960.557,482.332 958.272,484.548 956.094,486.727 
  953.877,489.011 951.889,491.121 949.482,493.758 947.922,495.516 945.087,498.815 944.172,499.911 940.693,504.216 940.622,504.306 937.273,508.701 936.298,510.026 
  934.098,513.096 931.903,516.272 931.082,517.49 928.226,521.885 927.508,523.031 925.522,526.28 923.113,530.383 922.946,530.675 920.517,535.07 918.718,538.468 
  918.203,539.465 916.018,543.859 914.324,547.424 913.938,548.254 911.978,552.649 910.112,557.044 909.929,557.494 908.359,561.439 906.697,565.833 905.534,569.07 
  905.126,570.228 903.654,574.623 902.262,579.018 901.139,582.775 900.952,583.413 899.734,587.808 898.589,592.202 897.518,596.597 896.744,599.997 896.522,600.992 
  895.605,605.387 894.756,609.782 893.973,614.177 893.256,618.571 892.603,622.966 892.349,624.844 892.016,627.361 891.494,631.756 891.032,636.151 890.628,640.545 
  890.282,644.94 889.993,649.335 889.759,653.73 889.58,658.125 889.454,662.52 889.382,666.914 889.361,671.309 889.391,675.704 889.47,680.099 889.6,684.494 
  889.777,688.889 890.002,693.283 890.274,697.678 890.591,702.073 890.954,706.468 891.361,710.863 891.812,715.258 892.306,719.652 892.349,720.006 892.848,724.047 
  893.432,728.442 894.057,732.837 894.723,737.232 895.429,741.626 896.174,746.021 896.744,749.211 896.961,750.416 897.792,754.811 898.66,759.206 899.566,763.601 
  900.509,767.995 901.139,770.82 901.491,772.39 902.516,776.785 903.576,781.18 904.671,785.575 905.534,788.932 905.802,789.97 906.976,794.364 908.184,798.759 
  909.425,803.154 909.929,804.89 910.705,807.549 912.023,811.944 913.372,816.338 914.324,819.362 914.757,820.733 916.182,825.128 917.638,829.523 918.718,832.716 
  919.127,833.918 920.657,838.313 922.216,842.707 923.113,845.185 923.811,847.102 925.443,851.497 927.103,855.892 927.508,856.944 928.803,860.287 930.534,864.682 
  931.903,868.099 932.296,869.076 934.099,873.471 935.927,877.866 936.298,878.74 937.796,882.261 939.694,886.656 940.693,888.932 941.627,891.051 943.593,895.445 
  945.087,898.738 945.59,899.84 947.625,904.235 949.482,908.198 949.686,908.63 951.788,913.025 953.877,917.343 953.914,917.419 956.084,921.814 958.272,926.201 
  958.276,926.209 960.512,930.604 962.667,934.798 962.77,934.999 965.072,939.394 967.061,943.156 967.398,943.788 969.764,948.183 971.456,951.295 972.158,952.578 
  974.589,956.973 975.851,959.232 977.051,961.368 979.545,965.763 980.246,966.984 982.077,970.157 984.634,974.552 984.641,974.564 987.235,978.947 989.036,981.963 
  989.863,983.342 992.527,987.737 993.43,989.213 995.226,992.131 997.825,996.322 997.952,996.526 1000.72,1000.92 1002.22,1003.28 1003.52,1005.32 1006.35,1009.71 
  1006.61,1010.11 1009.22,1014.11 1011.01,1016.81 1012.13,1018.5 1015.06,1022.9 1015.4,1023.4 1018.04,1027.29 1019.8,1029.87 1021.05,1031.68 1024.09,1036.08 
  1024.19,1036.23 1027.17,1040.47 1028.59,1042.48 1030.29,1044.87 1032.98,1048.64 1033.43,1049.26 1036.62,1053.66 1037.38,1054.69 1039.85,1058.05 1041.77,1060.65 
  1043.11,1062.45 1046.17,1066.53 1046.4,1066.84 1049.74,1071.24 1050.56,1072.31 1053.12,1075.63 1054.96,1078.01 1056.53,1080.03 1059.35,1083.63 1059.98,1084.42 
  1063.46,1088.82 1063.75,1089.17 1066.99,1093.21 1068.14,1094.63 1070.56,1097.61 1072.54,1100.02 1074.17,1102 1076.93,1105.34 1077.81,1106.4 1081.33,1110.59 
  1081.5,1110.79 1085.23,1115.19 1085.72,1115.76 1089,1119.58 1090.12,1120.87 1092.82,1123.98 1094.51,1125.92 1096.67,1128.37 1098.91,1130.9 1100.57,1132.77 
  1103.3,1135.82 1104.51,1137.16 1107.7,1140.68 1108.5,1141.56 1112.09,1145.48 1112.53,1145.95 1116.49,1150.22 1116.6,1150.35 1120.72,1154.74 1120.88,1154.9 
  1124.9,1159.13 1125.28,1159.53 1129.11,1163.53 1129.67,1164.1 1133.38,1167.92 1134.06,1168.62 1137.7,1172.32 1138.46,1173.09 1142.06,1176.71 1142.85,1177.51 
  1146.48,1181.11 1147.25,1181.87 1150.94,1185.5 1151.64,1186.19 1155.46,1189.9 1156.04,1190.45 1160.04,1194.29 1160.43,1194.67 1164.66,1198.69 1164.83,1198.84 
  1169.22,1202.97 1169.35,1203.08 1173.62,1207.04 1174.09,1207.48 1178.01,1211.07 1178.89,1211.87 1182.41,1215.06 1183.75,1216.27 1186.8,1219 1188.67,1220.66 
  1191.2,1222.9 1193.65,1225.06 1195.59,1226.75 1198.7,1229.45 1199.99,1230.57 1203.8,1233.85 1204.38,1234.34 1208.78,1238.07 1208.98,1238.24 1213.17,1241.76 
  1214.23,1242.64 1217.57,1245.4 1219.55,1247.03 1221.96,1249.01 1224.94,1251.43 1226.36,1252.58 1230.39,1255.82 1230.75,1256.11 1235.15,1259.59 1235.94,1260.22 
  1239.54,1263.04 1241.56,1264.61 1243.94,1266.45 1247.26,1269.01 1248.33,1269.83 1252.73,1273.17 1253.04,1273.4 1257.12,1276.46 1258.91,1277.8 1261.51,1279.72 
  1264.87,1282.19 1265.91,1282.95 1270.3,1286.14 1270.93,1286.58 1274.7,1289.28 1277.09,1290.98 1279.09,1292.4 1283.33,1295.37 1283.49,1295.48 1287.88,1298.52 
  1289.7,1299.77 1292.28,1301.53 1296.17,1304.16 1296.67,1304.51 1301.07,1307.44 1302.75,1308.56 1305.46,1310.34 1309.45,1312.95 1309.86,1313.22 1314.25,1316.05 
  1316.29,1317.35 1318.65,1318.85 1323.04,1321.62 1323.25,1321.74 1327.44,1324.34 1330.36,1326.14 1331.83,1327.04 1336.23,1329.71 1337.61,1330.53 1340.62,1332.33 
  1345,1334.93 1345.02,1334.93 1349.41,1337.49 1352.59,1339.32 1353.81,1340.02 1358.2,1342.52 1360.34,1343.72 1362.6,1344.98 1366.99,1347.41 1368.27,1348.11 
  1371.39,1349.8 1375.78,1352.17 1376.41,1352.51 1380.18,1354.5 1384.57,1356.8 1384.77,1356.9 1388.96,1359.06 1393.36,1361.29 1393.37,1361.3 1397.75,1363.48 
  1402.15,1365.65 1402.23,1365.69 1406.54,1367.78 1410.94,1369.88 1411.37,1370.09 1415.33,1371.94 1419.73,1373.98 1420.83,1374.48 1424.12,1375.98 1428.52,1377.94 
  1430.64,1378.88 1432.91,1379.87 1437.31,1381.77 1440.83,1383.27 1441.7,1383.64 1446.1,1385.47 1450.49,1387.27 1451.47,1387.67 1454.89,1389.03 1459.28,1390.77 
  1462.62,1392.06 1463.68,1392.47 1468.07,1394.13 1472.47,1395.76 1474.38,1396.46 1476.86,1397.35 1481.26,1398.91 1485.65,1400.44 1486.85,1400.85 1490.05,1401.93 
  1494.44,1403.39 1498.84,1404.81 1500.21,1405.25 1503.23,1406.2 1507.62,1407.55 1512.02,1408.86 1514.68,1409.64 1516.41,1410.14 1520.81,1411.38 1525.2,1412.59 
  1529.6,1413.77 1530.64,1414.03 1533.99,1414.9 1538.39,1415.99 1542.78,1417.05 1547.18,1418.08 1548.75,1418.43 1551.57,1419.06 1555.97,1420 1560.36,1420.91 
  1564.76,1421.78 1569.15,1422.61 1570.36,1422.82 1573.55,1423.39 1577.94,1424.14 1582.34,1424.85 1586.73,1425.51 1591.13,1426.14 1595.52,1426.72 1599.56,1427.22 
  1599.92,1427.26 1604.31,1427.76 1608.71,1428.21 1613.1,1428.61 1617.5,1428.98 1621.89,1429.3 1626.29,1429.57 1630.68,1429.79 1635.07,1429.97 1639.47,1430.1 
  1643.86,1430.18 1648.26,1430.21 1652.65,1430.19 1657.05,1430.11 1661.44,1429.99 1665.84,1429.81 1670.23,1429.58 1674.63,1429.29 1679.02,1428.94 1683.42,1428.54 
  1687.81,1428.07 1692.21,1427.55 1694.72,1427.22 1696.6,1426.97 1701,1426.31 1705.39,1425.6 1709.79,1424.81 1714.18,1423.96 1718.58,1423.05 1719.57,1422.82 
  1722.97,1422.05 1727.37,1420.98 1731.76,1419.84 1736.16,1418.62 1736.79,1418.43 1740.55,1417.31 1744.95,1415.91 1749.34,1414.44 1750.5,1414.03 1753.74,1412.87 
  1758.13,1411.21 1762.07,1409.64 1762.52,1409.46 1766.92,1407.59 1771.31,1405.63 1772.15,1405.25 1775.71,1403.55 1780.1,1401.37 1781.1,1400.85 1784.5,1399.05 
  1788.89,1396.62 1789.19,1396.46 1793.29,1394.05 1796.54,1392.06 1797.68,1391.34 1802.08,1388.49 1803.3,1387.67 1806.47,1385.47 1809.54,1383.27 1810.87,1382.3 
  1815.26,1378.95 1815.35,1378.88 1819.66,1375.4 1820.75,1374.48 1824.05,1371.65 1825.81,1370.09 1828.45,1367.68 1830.56,1365.69 1832.84,1363.48 1835.02,1361.3 
  1837.24,1359.01 1839.22,1356.9 1841.63,1354.27 1843.19,1352.51 1846.03,1349.21 1846.94,1348.11 1850.42,1343.81 1850.49,1343.72 1853.84,1339.32 1854.82,1338 
  1857.02,1334.93 1859.21,1331.75 1860.03,1330.53 1862.89,1326.14 1863.61,1324.99 1865.59,1321.74 1868,1317.64 1868.17,1317.35 1870.6,1312.95 1872.4,1309.56 
  1872.91,1308.56 1875.1,1304.16 1876.79,1300.6 1877.18,1299.77 1879.14,1295.37 1881,1290.98 1881.19,1290.53 1882.75,1286.58 1884.42,1282.19 1885.58,1278.95 
  1885.99,1277.8 1887.46,1273.4 1888.85,1269.01 1889.97,1265.25 1890.16,1264.61 1891.38,1260.22 1892.52,1255.82 1893.6,1251.43 1894.37,1248.03 1894.59,1247.03 
  1895.51,1242.64 1896.36,1238.24 1897.14,1233.85 1897.86,1229.45 1898.51,1225.06 1898.76,1223.18 1899.1,1220.66 1899.62,1216.27 1900.08,1211.87 1900.49,1207.48 
  1900.83,1203.08 1901.12,1198.69 1901.35,1194.29 1901.53,1189.9 1901.66,1185.5 1901.73,1181.11 1901.75,1176.71 1901.72,1172.32 1901.64,1167.92 1901.51,1163.53 
  1901.34,1159.13 1901.11,1154.74 1900.84,1150.35 1900.52,1145.95 1900.16,1141.56 1899.75,1137.16 1899.3,1132.77 1898.81,1128.37 1898.76,1128.02 1898.27,1123.98 
  1897.68,1119.58 1897.06,1115.19 1896.39,1110.79 1895.68,1106.4 1894.94,1102 1894.37,1098.81 1894.15,1097.61 1893.32,1093.21 1892.45,1088.82 1891.55,1084.42 
  1890.6,1080.03 1889.97,1077.2 1889.62,1075.63 1888.6,1071.24 1887.54,1066.84 1886.44,1062.45 1885.58,1059.09 1885.31,1058.05 1884.14,1053.66 1882.93,1049.26 
  1881.69,1044.87 1881.19,1043.13 1880.41,1040.47 1879.09,1036.08 1877.74,1031.68 1876.79,1028.66 1876.36,1027.29 1874.93,1022.9 1873.48,1018.5 1872.4,1015.31 
  1871.99,1014.11 1870.46,1009.71 1868.9,1005.32 1868,1002.84 1867.3,1000.92 1865.67,996.526 1864.01,992.131 1863.61,991.079 1862.31,987.737 1860.58,983.342 
  1859.21,979.925 1858.82,978.947 1857.01,974.552 1855.19,970.157 1854.82,969.283 1853.32,965.763 1851.42,961.368 1850.42,959.092 1849.49,956.973 1847.52,952.578 
  1846.03,949.285 1845.52,948.183 1843.49,943.788 1841.63,939.825 1841.43,939.394 1839.33,934.999 1837.24,930.681 1837.2,930.604 1835.03,926.209 1832.84,921.823 
  1832.84,921.814 1830.6,917.419 1828.45,913.226 1828.34,913.025 1826.04,908.63 1824.05,904.868 1823.72,904.235 1821.35,899.84 1819.66,896.729 1818.96,895.445 
  1816.53,891.051 1815.26,888.792 1814.06,886.656 1811.57,882.261 1810.87,881.04 1809.04,877.866 1806.48,873.471 1806.47,873.46 1803.88,869.076 1802.08,866.061 
  1801.25,864.682 1798.59,860.287 1797.68,858.81 1795.89,855.892 1793.29,851.701 1793.16,851.497 1790.39,847.102 1788.89,844.745 1787.59,842.707 1784.76,838.313 
  1784.5,837.909 1781.89,833.918 1780.1,831.209 1778.99,829.523 1776.05,825.128 1775.71,824.62 1773.07,820.733 1771.31,818.155 1770.07,816.338 1767.03,811.944 
  1766.92,811.789 1763.94,807.549 1762.52,805.541 1760.83,803.154 1758.13,799.384 1757.68,798.759 1754.49,794.364 1753.74,793.33 1751.27,789.97 1749.34,787.369 
  1748,785.575 1744.95,781.492 1744.71,781.18 1741.37,776.785 1740.55,775.711 1738,772.39 1736.16,770.012 1734.59,767.995 1731.76,764.39 1731.14,763.601 
  1727.65,759.206 1727.37,758.849 1724.12,754.811 1722.97,753.39 1720.55,750.416 1718.58,748.002 1716.95,746.021 1714.18,742.684 1713.3,741.626 1709.79,737.435 
  1709.62,737.232 1705.89,732.837 1705.39,732.26 1702.11,728.442 1701,727.152 1698.3,724.047 1696.6,722.108 1694.44,719.652 1692.21,717.127 1690.54,715.258 
  1687.81,712.206 1686.6,710.863 1683.42,707.346 1682.62,706.468 1679.02,702.546 1678.59,702.073 1674.63,697.803 1674.51,697.678 1670.39,693.283 1670.23,693.119 
  1666.22,688.889 1665.84,688.492 1662,684.494 1661.44,683.919 1657.73,680.099 1657.05,679.399 1653.42,675.704 1652.65,674.932 1649.05,671.309 1648.26,670.516 
  1644.64,666.914 1643.86,666.151 1640.17,662.52 1639.47,661.836 1635.65,658.125 1635.07,657.569 1631.08,653.73 1630.68,653.351 1626.45,649.335 1626.29,649.18 
  1621.89,645.056 1621.77,644.94 1617.5,640.981 1617.02,640.545 1613.1,636.951 1612.22,636.151 1608.71,632.966 1607.36,631.756 1604.31,629.024 1602.44,627.361 
  1599.92,625.126 1597.46,622.966 1595.52,621.27 1592.42,618.571 1591.13,617.456 1587.31,614.177 1586.73,613.683 1582.34,609.953 1582.13,609.782 1577.94,606.268 
  1576.88,605.387 1573.55,602.622 1571.57,600.992 1569.15,599.016 1566.18,596.597 1564.76,595.448 1560.72,592.202 1560.36,591.917 1555.97,588.43 1555.18,587.808 
  1551.57,584.983 1549.56,583.413 1547.18,581.571 1543.86,579.018 1542.78,578.196 1538.39,574.858 1538.08,574.623 1533.99,571.564 1532.2,570.228 1529.6,568.303 
  1526.24,565.833 1525.2,565.077 1520.81,561.888 1520.18,561.439 1516.41,558.74 1514.03,557.044 1512.02,555.625 1507.78,552.649 1507.62,552.541 1503.23,549.501 
  1501.41,548.254 1498.84,546.494 1494.95,543.859 1494.44,543.517 1490.05,540.581 1488.36,539.465 1485.65,537.679 1481.66,535.07 1481.26,534.807 1476.86,531.976 
  1474.82,530.675 1472.47,529.177 1468.07,526.407 1467.87,526.28 1463.68,523.681 1460.76,521.885 1459.28,520.982 1454.89,518.318 1453.51,517.49 1450.49,515.69 
  1446.11,513.096 1446.1,513.089 1441.7,510.531 1438.53,508.701 1437.31,508 1432.91,505.506 1430.78,504.306 1428.52,503.043 1424.12,500.613 1422.84,499.911 
  1419.73,498.219 1415.33,495.853 1414.7,495.516 1410.94,493.527 1406.54,491.225 1406.34,491.121 1402.15,488.967 1397.75,486.731 1397.75,486.727 1393.36,484.539 
  1388.96,482.369 1388.89,482.332 1384.57,480.243 1380.18,478.14 1379.74,477.937 1375.78,476.08 1371.39,474.044 1370.28,473.542 1366.99,472.048 1362.6,470.081 
  1360.48,469.147 1358.2,468.149 1353.81,466.251 1350.29,464.752 1349.41,464.382 1345.02,462.554 1340.62,460.751 1339.64,460.358 1336.23,458.989 1331.83,457.258 
  1328.49,455.963 1327.44,455.557 1323.04,453.898 1318.65,452.266 1316.73,451.568 1314.25,450.671 1309.86,449.112 1305.46,447.582 1304.26,447.173 1301.07,446.093 
  1296.67,444.637 1292.28,443.212 1290.91,442.778 1287.88,441.827 1283.49,440.478 1279.09,439.16 1276.43,438.384 1274.7,437.879 1270.3,436.639 1265.91,435.431 
  1261.51,434.257 1260.48,433.989 1257.12,433.125 1252.73,432.031 1248.33,430.971 1243.94,429.946 1242.36,429.594 1239.54,428.964 1235.15,428.021 1230.75,427.115 
  1226.36,426.246 1221.96,425.416 1220.76,425.199 1217.57,424.629 1213.17,423.884 1208.78,423.178 1204.38,422.512 1199.99,421.886 1195.59,421.302 1191.55,420.804 
  1191.2,420.761 1186.8,420.267 1182.41,419.816 1178.01,419.409 1173.62,419.046 1169.22,418.728 1164.83,418.457 1160.43,418.232 1156.04,418.054 1151.64,417.925 
  1147.25,417.845 
  "/>
</svg>
