<?xml version="1.0" encoding="utf-8"?>
<svg xmlns="http://www.w3.org/2000/svg" xmlns:xlink="http://www.w3.org/1999/xlink" width="672" height="480" viewBox="0 0 2688 1920">
<defs>
  <clipPath id="clip540">
    <rect x="0" y="0" width="2688" height="1920"/>
  </clipPath>
</defs>
<path clip-path="url(#clip540)" d="
M0 1920 L2688 1920 L2688 0 L0 0  Z
  " fill="#ffffff" fill-rule="evenodd" fill-opacity="1"/>
<defs>
  <clipPath id="clip541">
    <rect x="537" y="0" width="1883" height="1883"/>
  </clipPath>
</defs>
<path clip-path="url(#clip540)" d="
M158.645 1800.78 L2640.76 1800.78 L2640.76 47.2441 L158.645 47.2441  Z
  " fill="#ffffff" fill-rule="evenodd" fill-opacity="1"/>
<defs>
  <clipPath id="clip542">
    <rect x="158" y="47" width="2483" height="1755"/>
  </clipPath>
</defs>
<polyline clip-path="url(#clip542)" style="stroke:#000000; stroke-linecap:round; stroke-linejoin:round; stroke-width:2; stroke-opacity:0.1; fill:none" points="
  228.893,1800.78 228.893,47.2441 
  "/>
<polyline clip-path="url(#clip542)" style="stroke:#000000; stroke-linecap:round; stroke-linejoin:round; stroke-width:2; stroke-opacity:0.1; fill:none" points="
  697.216,1800.78 697.216,47.2441 
  "/>
<polyline clip-path="url(#clip542)" style="stroke:#000000; stroke-linecap:round; stroke-linejoin:round; stroke-width:2; stroke-opacity:0.1; fill:none" points="
  1165.54,1800.78 1165.54,47.2441 
  "/>
<polyline clip-path="url(#clip542)" style="stroke:#000000; stroke-linecap:round; stroke-linejoin:round; stroke-width:2; stroke-opacity:0.1; fill:none" points="
  1633.86,1800.78 1633.86,47.2441 
  "/>
<polyline clip-path="url(#clip542)" style="stroke:#000000; stroke-linecap:round; stroke-linejoin:round; stroke-width:2; stroke-opacity:0.1; fill:none" points="
  2102.18,1800.78 2102.18,47.2441 
  "/>
<polyline clip-path="url(#clip542)" style="stroke:#000000; stroke-linecap:round; stroke-linejoin:round; stroke-width:2; stroke-opacity:0.1; fill:none" points="
  2570.51,1800.78 2570.51,47.2441 
  "/>
<polyline clip-path="url(#clip540)" style="stroke:#000000; stroke-linecap:round; stroke-linejoin:round; stroke-width:4; stroke-opacity:1; fill:none" points="
  158.645,1800.78 2640.76,1800.78 
  "/>
<polyline clip-path="url(#clip540)" style="stroke:#000000; stroke-linecap:round; stroke-linejoin:round; stroke-width:4; stroke-opacity:1; fill:none" points="
  228.893,1800.78 228.893,1781.88 
  "/>
<polyline clip-path="url(#clip540)" style="stroke:#000000; stroke-linecap:round; stroke-linejoin:round; stroke-width:4; stroke-opacity:1; fill:none" points="
  697.216,1800.78 697.216,1781.88 
  "/>
<polyline clip-path="url(#clip540)" style="stroke:#000000; stroke-linecap:round; stroke-linejoin:round; stroke-width:4; stroke-opacity:1; fill:none" points="
  1165.54,1800.78 1165.54,1781.88 
  "/>
<polyline clip-path="url(#clip540)" style="stroke:#000000; stroke-linecap:round; stroke-linejoin:round; stroke-width:4; stroke-opacity:1; fill:none" points="
  1633.86,1800.78 1633.86,1781.88 
  "/>
<polyline clip-path="url(#clip540)" style="stroke:#000000; stroke-linecap:round; stroke-linejoin:round; stroke-width:4; stroke-opacity:1; fill:none" points="
  2102.18,1800.78 2102.18,1781.88 
  "/>
<polyline clip-path="url(#clip540)" style="stroke:#000000; stroke-linecap:round; stroke-linejoin:round; stroke-width:4; stroke-opacity:1; fill:none" points="
  2570.51,1800.78 2570.51,1781.88 
  "/>
<path clip-path="url(#clip540)" d="M206.775 1834 Q203.164 1834 201.336 1837.57 Q199.53 1841.11 199.53 1848.24 Q199.53 1855.34 201.336 1858.91 Q203.164 1862.45 206.775 1862.45 Q210.41 1862.45 212.215 1858.91 Q214.044 1855.34 214.044 1848.24 Q214.044 1841.11 212.215 1837.57 Q210.41 1834 206.775 1834 M206.775 1830.3 Q212.586 1830.3 215.641 1834.9 Q218.72 1839.49 218.72 1848.24 Q218.72 1856.96 215.641 1861.57 Q212.586 1866.15 206.775 1866.15 Q200.965 1866.15 197.887 1861.57 Q194.831 1856.96 194.831 1848.24 Q194.831 1839.49 197.887 1834.9 Q200.965 1830.3 206.775 1830.3 Z" fill="#000000" fill-rule="evenodd" fill-opacity="1" /><path clip-path="url(#clip540)" d="M226.937 1859.6 L231.822 1859.6 L231.822 1865.48 L226.937 1865.48 L226.937 1859.6 Z" fill="#000000" fill-rule="evenodd" fill-opacity="1" /><path clip-path="url(#clip540)" d="M242.053 1830.92 L260.409 1830.92 L260.409 1834.86 L246.335 1834.86 L246.335 1843.33 Q247.354 1842.98 248.372 1842.82 Q249.391 1842.64 250.409 1842.64 Q256.196 1842.64 259.576 1845.81 Q262.956 1848.98 262.956 1854.4 Q262.956 1859.97 259.483 1863.08 Q256.011 1866.15 249.692 1866.15 Q247.516 1866.15 245.247 1865.78 Q243.002 1865.41 240.595 1864.67 L240.595 1859.97 Q242.678 1861.11 244.9 1861.66 Q247.122 1862.22 249.599 1862.22 Q253.604 1862.22 255.942 1860.11 Q258.28 1858.01 258.28 1854.4 Q258.28 1850.78 255.942 1848.68 Q253.604 1846.57 249.599 1846.57 Q247.724 1846.57 245.849 1846.99 Q243.997 1847.4 242.053 1848.28 L242.053 1830.92 Z" fill="#000000" fill-rule="evenodd" fill-opacity="1" /><path clip-path="url(#clip540)" d="M674.52 1834 Q670.908 1834 669.08 1837.57 Q667.274 1841.11 667.274 1848.24 Q667.274 1855.34 669.08 1858.91 Q670.908 1862.45 674.52 1862.45 Q678.154 1862.45 679.959 1858.91 Q681.788 1855.34 681.788 1848.24 Q681.788 1841.11 679.959 1837.57 Q678.154 1834 674.52 1834 M674.52 1830.3 Q680.33 1830.3 683.385 1834.9 Q686.464 1839.49 686.464 1848.24 Q686.464 1856.96 683.385 1861.57 Q680.33 1866.15 674.52 1866.15 Q668.709 1866.15 665.631 1861.57 Q662.575 1856.96 662.575 1848.24 Q662.575 1839.49 665.631 1834.9 Q668.709 1830.3 674.52 1830.3 Z" fill="#000000" fill-rule="evenodd" fill-opacity="1" /><path clip-path="url(#clip540)" d="M694.681 1859.6 L699.566 1859.6 L699.566 1865.48 L694.681 1865.48 L694.681 1859.6 Z" fill="#000000" fill-rule="evenodd" fill-opacity="1" /><path clip-path="url(#clip540)" d="M720.329 1846.34 Q717.181 1846.34 715.329 1848.49 Q713.501 1850.65 713.501 1854.4 Q713.501 1858.12 715.329 1860.3 Q717.181 1862.45 720.329 1862.45 Q723.478 1862.45 725.306 1860.3 Q727.158 1858.12 727.158 1854.4 Q727.158 1850.65 725.306 1848.49 Q723.478 1846.34 720.329 1846.34 M729.612 1831.69 L729.612 1835.95 Q727.853 1835.11 726.047 1834.67 Q724.265 1834.23 722.505 1834.23 Q717.876 1834.23 715.422 1837.36 Q712.992 1840.48 712.644 1846.8 Q714.01 1844.79 716.07 1843.72 Q718.13 1842.64 720.607 1842.64 Q725.816 1842.64 728.825 1845.81 Q731.857 1848.96 731.857 1854.4 Q731.857 1859.72 728.709 1862.94 Q725.561 1866.15 720.329 1866.15 Q714.334 1866.15 711.163 1861.57 Q707.992 1856.96 707.992 1848.24 Q707.992 1840.04 711.88 1835.18 Q715.769 1830.3 722.32 1830.3 Q724.079 1830.3 725.862 1830.65 Q727.667 1830.99 729.612 1831.69 Z" fill="#000000" fill-rule="evenodd" fill-opacity="1" /><path clip-path="url(#clip540)" d="M1143.37 1834 Q1139.76 1834 1137.93 1837.57 Q1136.13 1841.11 1136.13 1848.24 Q1136.13 1855.34 1137.93 1858.91 Q1139.76 1862.45 1143.37 1862.45 Q1147.01 1862.45 1148.81 1858.91 Q1150.64 1855.34 1150.64 1848.24 Q1150.64 1841.11 1148.81 1837.57 Q1147.01 1834 1143.37 1834 M1143.37 1830.3 Q1149.18 1830.3 1152.24 1834.9 Q1155.32 1839.49 1155.32 1848.24 Q1155.32 1856.96 1152.24 1861.57 Q1149.18 1866.15 1143.37 1866.15 Q1137.56 1866.15 1134.49 1861.57 Q1131.43 1856.96 1131.43 1848.24 Q1131.43 1839.49 1134.49 1834.9 Q1137.56 1830.3 1143.37 1830.3 Z" fill="#000000" fill-rule="evenodd" fill-opacity="1" /><path clip-path="url(#clip540)" d="M1163.54 1859.6 L1168.42 1859.6 L1168.42 1865.48 L1163.54 1865.48 L1163.54 1859.6 Z" fill="#000000" fill-rule="evenodd" fill-opacity="1" /><path clip-path="url(#clip540)" d="M1177.43 1830.92 L1199.65 1830.92 L1199.65 1832.91 L1187.1 1865.48 L1182.22 1865.48 L1194.02 1834.86 L1177.43 1834.86 L1177.43 1830.92 Z" fill="#000000" fill-rule="evenodd" fill-opacity="1" /><path clip-path="url(#clip540)" d="M1611.29 1834 Q1607.68 1834 1605.85 1837.57 Q1604.05 1841.11 1604.05 1848.24 Q1604.05 1855.34 1605.85 1858.91 Q1607.68 1862.45 1611.29 1862.45 Q1614.93 1862.45 1616.73 1858.91 Q1618.56 1855.34 1618.56 1848.24 Q1618.56 1841.11 1616.73 1837.57 Q1614.93 1834 1611.29 1834 M1611.29 1830.3 Q1617.1 1830.3 1620.16 1834.9 Q1623.24 1839.49 1623.24 1848.24 Q1623.24 1856.96 1620.16 1861.57 Q1617.1 1866.15 1611.29 1866.15 Q1605.48 1866.15 1602.4 1861.57 Q1599.35 1856.96 1599.35 1848.24 Q1599.35 1839.49 1602.4 1834.9 Q1605.48 1830.3 1611.29 1830.3 Z" fill="#000000" fill-rule="evenodd" fill-opacity="1" /><path clip-path="url(#clip540)" d="M1631.45 1859.6 L1636.34 1859.6 L1636.34 1865.48 L1631.45 1865.48 L1631.45 1859.6 Z" fill="#000000" fill-rule="evenodd" fill-opacity="1" /><path clip-path="url(#clip540)" d="M1656.52 1849.07 Q1653.19 1849.07 1651.27 1850.85 Q1649.37 1852.64 1649.37 1855.76 Q1649.37 1858.89 1651.27 1860.67 Q1653.19 1862.45 1656.52 1862.45 Q1659.86 1862.45 1661.78 1860.67 Q1663.7 1858.86 1663.7 1855.76 Q1663.7 1852.64 1661.78 1850.85 Q1659.88 1849.07 1656.52 1849.07 M1651.85 1847.08 Q1648.84 1846.34 1647.15 1844.28 Q1645.48 1842.22 1645.48 1839.26 Q1645.48 1835.11 1648.42 1832.71 Q1651.38 1830.3 1656.52 1830.3 Q1661.69 1830.3 1664.63 1832.71 Q1667.57 1835.11 1667.57 1839.26 Q1667.57 1842.22 1665.88 1844.28 Q1664.21 1846.34 1661.22 1847.08 Q1664.6 1847.87 1666.48 1850.16 Q1668.38 1852.45 1668.38 1855.76 Q1668.38 1860.78 1665.3 1863.47 Q1662.24 1866.15 1656.52 1866.15 Q1650.81 1866.15 1647.73 1863.47 Q1644.67 1860.78 1644.67 1855.76 Q1644.67 1852.45 1646.57 1850.16 Q1648.47 1847.87 1651.85 1847.08 M1650.13 1839.7 Q1650.13 1842.38 1651.8 1843.89 Q1653.49 1845.39 1656.52 1845.39 Q1659.53 1845.39 1661.22 1843.89 Q1662.94 1842.38 1662.94 1839.7 Q1662.94 1837.01 1661.22 1835.51 Q1659.53 1834 1656.52 1834 Q1653.49 1834 1651.8 1835.51 Q1650.13 1837.01 1650.13 1839.7 Z" fill="#000000" fill-rule="evenodd" fill-opacity="1" /><path clip-path="url(#clip540)" d="M2079.66 1834 Q2076.05 1834 2074.22 1837.57 Q2072.42 1841.11 2072.42 1848.24 Q2072.42 1855.34 2074.22 1858.91 Q2076.05 1862.45 2079.66 1862.45 Q2083.3 1862.45 2085.1 1858.91 Q2086.93 1855.34 2086.93 1848.24 Q2086.93 1841.11 2085.1 1837.57 Q2083.3 1834 2079.66 1834 M2079.66 1830.3 Q2085.47 1830.3 2088.53 1834.9 Q2091.61 1839.49 2091.61 1848.24 Q2091.61 1856.96 2088.53 1861.57 Q2085.47 1866.15 2079.66 1866.15 Q2073.85 1866.15 2070.77 1861.57 Q2067.72 1856.96 2067.72 1848.24 Q2067.72 1839.49 2070.77 1834.9 Q2073.85 1830.3 2079.66 1830.3 Z" fill="#000000" fill-rule="evenodd" fill-opacity="1" /><path clip-path="url(#clip540)" d="M2099.82 1859.6 L2104.71 1859.6 L2104.71 1865.48 L2099.82 1865.48 L2099.82 1859.6 Z" fill="#000000" fill-rule="evenodd" fill-opacity="1" /><path clip-path="url(#clip540)" d="M2115.03 1864.77 L2115.03 1860.51 Q2116.79 1861.34 2118.6 1861.78 Q2120.4 1862.22 2122.14 1862.22 Q2126.77 1862.22 2129.2 1859.12 Q2131.65 1855.99 2132 1849.65 Q2130.66 1851.64 2128.6 1852.71 Q2126.54 1853.77 2124.04 1853.77 Q2118.85 1853.77 2115.82 1850.65 Q2112.81 1847.5 2112.81 1842.06 Q2112.81 1836.73 2115.96 1833.52 Q2119.11 1830.3 2124.34 1830.3 Q2130.33 1830.3 2133.48 1834.9 Q2136.65 1839.49 2136.65 1848.24 Q2136.65 1856.41 2132.76 1861.29 Q2128.9 1866.15 2122.35 1866.15 Q2120.59 1866.15 2118.78 1865.81 Q2116.98 1865.46 2115.03 1864.77 M2124.34 1850.11 Q2127.49 1850.11 2129.31 1847.96 Q2131.17 1845.81 2131.17 1842.06 Q2131.17 1838.33 2129.31 1836.18 Q2127.49 1834 2124.34 1834 Q2121.19 1834 2119.34 1836.18 Q2117.51 1838.33 2117.51 1842.06 Q2117.51 1845.81 2119.34 1847.96 Q2121.19 1850.11 2124.34 1850.11 Z" fill="#000000" fill-rule="evenodd" fill-opacity="1" /><path clip-path="url(#clip540)" d="M2537.66 1861.55 L2545.3 1861.55 L2545.3 1835.18 L2536.99 1836.85 L2536.99 1832.59 L2545.25 1830.92 L2549.93 1830.92 L2549.93 1861.55 L2557.57 1861.55 L2557.57 1865.48 L2537.66 1865.48 L2537.66 1861.55 Z" fill="#000000" fill-rule="evenodd" fill-opacity="1" /><path clip-path="url(#clip540)" d="M2567.01 1859.6 L2571.9 1859.6 L2571.9 1865.48 L2567.01 1865.48 L2567.01 1859.6 Z" fill="#000000" fill-rule="evenodd" fill-opacity="1" /><path clip-path="url(#clip540)" d="M2592.08 1834 Q2588.47 1834 2586.64 1837.57 Q2584.84 1841.11 2584.84 1848.24 Q2584.84 1855.34 2586.64 1858.91 Q2588.47 1862.45 2592.08 1862.45 Q2595.72 1862.45 2597.52 1858.91 Q2599.35 1855.34 2599.35 1848.24 Q2599.35 1841.11 2597.52 1837.57 Q2595.72 1834 2592.08 1834 M2592.08 1830.3 Q2597.89 1830.3 2600.95 1834.9 Q2604.03 1839.49 2604.03 1848.24 Q2604.03 1856.96 2600.95 1861.57 Q2597.89 1866.15 2592.08 1866.15 Q2586.27 1866.15 2583.19 1861.57 Q2580.14 1856.96 2580.14 1848.24 Q2580.14 1839.49 2583.19 1834.9 Q2586.27 1830.3 2592.08 1830.3 Z" fill="#000000" fill-rule="evenodd" fill-opacity="1" /><polyline clip-path="url(#clip542)" style="stroke:#000000; stroke-linecap:round; stroke-linejoin:round; stroke-width:2; stroke-opacity:0.1; fill:none" points="
  158.645,1659.25 2640.76,1659.25 
  "/>
<polyline clip-path="url(#clip542)" style="stroke:#000000; stroke-linecap:round; stroke-linejoin:round; stroke-width:2; stroke-opacity:0.1; fill:none" points="
  158.645,1346.77 2640.76,1346.77 
  "/>
<polyline clip-path="url(#clip542)" style="stroke:#000000; stroke-linecap:round; stroke-linejoin:round; stroke-width:2; stroke-opacity:0.1; fill:none" points="
  158.645,1034.3 2640.76,1034.3 
  "/>
<polyline clip-path="url(#clip542)" style="stroke:#000000; stroke-linecap:round; stroke-linejoin:round; stroke-width:2; stroke-opacity:0.1; fill:none" points="
  158.645,721.822 2640.76,721.822 
  "/>
<polyline clip-path="url(#clip542)" style="stroke:#000000; stroke-linecap:round; stroke-linejoin:round; stroke-width:2; stroke-opacity:0.1; fill:none" points="
  158.645,409.347 2640.76,409.347 
  "/>
<polyline clip-path="url(#clip542)" style="stroke:#000000; stroke-linecap:round; stroke-linejoin:round; stroke-width:2; stroke-opacity:0.1; fill:none" points="
  158.645,96.8724 2640.76,96.8724 
  "/>
<polyline clip-path="url(#clip540)" style="stroke:#000000; stroke-linecap:round; stroke-linejoin:round; stroke-width:4; stroke-opacity:1; fill:none" points="
  158.645,1800.78 158.645,47.2441 
  "/>
<polyline clip-path="url(#clip540)" style="stroke:#000000; stroke-linecap:round; stroke-linejoin:round; stroke-width:4; stroke-opacity:1; fill:none" points="
  158.645,1659.25 177.543,1659.25 
  "/>
<polyline clip-path="url(#clip540)" style="stroke:#000000; stroke-linecap:round; stroke-linejoin:round; stroke-width:4; stroke-opacity:1; fill:none" points="
  158.645,1346.77 177.543,1346.77 
  "/>
<polyline clip-path="url(#clip540)" style="stroke:#000000; stroke-linecap:round; stroke-linejoin:round; stroke-width:4; stroke-opacity:1; fill:none" points="
  158.645,1034.3 177.543,1034.3 
  "/>
<polyline clip-path="url(#clip540)" style="stroke:#000000; stroke-linecap:round; stroke-linejoin:round; stroke-width:4; stroke-opacity:1; fill:none" points="
  158.645,721.822 177.543,721.822 
  "/>
<polyline clip-path="url(#clip540)" style="stroke:#000000; stroke-linecap:round; stroke-linejoin:round; stroke-width:4; stroke-opacity:1; fill:none" points="
  158.645,409.347 177.543,409.347 
  "/>
<polyline clip-path="url(#clip540)" style="stroke:#000000; stroke-linecap:round; stroke-linejoin:round; stroke-width:4; stroke-opacity:1; fill:none" points="
  158.645,96.8724 177.543,96.8724 
  "/>
<path clip-path="url(#clip540)" d="M51.9595 1672.59 L59.5984 1672.59 L59.5984 1646.23 L51.2882 1647.89 L51.2882 1643.63 L59.5521 1641.97 L64.228 1641.97 L64.228 1672.59 L71.8668 1672.59 L71.8668 1676.53 L51.9595 1676.53 L51.9595 1672.59 Z" fill="#000000" fill-rule="evenodd" fill-opacity="1" /><path clip-path="url(#clip540)" d="M81.3112 1670.65 L86.1954 1670.65 L86.1954 1676.53 L81.3112 1676.53 L81.3112 1670.65 Z" fill="#000000" fill-rule="evenodd" fill-opacity="1" /><path clip-path="url(#clip540)" d="M106.381 1645.05 Q102.769 1645.05 100.941 1648.61 Q99.1352 1652.15 99.1352 1659.28 Q99.1352 1666.39 100.941 1669.95 Q102.769 1673.49 106.381 1673.49 Q110.015 1673.49 111.82 1669.95 Q113.649 1666.39 113.649 1659.28 Q113.649 1652.15 111.82 1648.61 Q110.015 1645.05 106.381 1645.05 M106.381 1641.34 Q112.191 1641.34 115.246 1645.95 Q118.325 1650.53 118.325 1659.28 Q118.325 1668.01 115.246 1672.61 Q112.191 1677.2 106.381 1677.2 Q100.57 1677.2 97.4917 1672.61 Q94.4361 1668.01 94.4361 1659.28 Q94.4361 1650.53 97.4917 1645.95 Q100.57 1641.34 106.381 1641.34 Z" fill="#000000" fill-rule="evenodd" fill-opacity="1" /><path clip-path="url(#clip540)" d="M53.5567 1360.12 L61.1956 1360.12 L61.1956 1333.75 L52.8854 1335.42 L52.8854 1331.16 L61.1493 1329.49 L65.8252 1329.49 L65.8252 1360.12 L73.464 1360.12 L73.464 1364.05 L53.5567 1364.05 L53.5567 1360.12 Z" fill="#000000" fill-rule="evenodd" fill-opacity="1" /><path clip-path="url(#clip540)" d="M82.9084 1358.17 L87.7927 1358.17 L87.7927 1364.05 L82.9084 1364.05 L82.9084 1358.17 Z" fill="#000000" fill-rule="evenodd" fill-opacity="1" /><path clip-path="url(#clip540)" d="M102.006 1360.12 L118.325 1360.12 L118.325 1364.05 L96.3806 1364.05 L96.3806 1360.12 Q99.0426 1357.36 103.626 1352.73 Q108.232 1348.08 109.413 1346.74 Q111.658 1344.21 112.538 1342.48 Q113.441 1340.72 113.441 1339.03 Q113.441 1336.27 111.496 1334.54 Q109.575 1332.8 106.473 1332.8 Q104.274 1332.8 101.82 1333.57 Q99.3898 1334.33 96.6121 1335.88 L96.6121 1331.16 Q99.4361 1330.02 101.89 1329.45 Q104.343 1328.87 106.381 1328.87 Q111.751 1328.87 114.945 1331.55 Q118.14 1334.24 118.14 1338.73 Q118.14 1340.86 117.33 1342.78 Q116.543 1344.68 114.436 1347.27 Q113.857 1347.94 110.756 1351.16 Q107.654 1354.35 102.006 1360.12 Z" fill="#000000" fill-rule="evenodd" fill-opacity="1" /><path clip-path="url(#clip540)" d="M51.4734 1047.64 L59.1123 1047.64 L59.1123 1021.28 L50.8021 1022.94 L50.8021 1018.68 L59.066 1017.02 L63.7419 1017.02 L63.7419 1047.64 L71.3807 1047.64 L71.3807 1051.58 L51.4734 1051.58 L51.4734 1047.64 Z" fill="#000000" fill-rule="evenodd" fill-opacity="1" /><path clip-path="url(#clip540)" d="M80.8251 1045.7 L85.7093 1045.7 L85.7093 1051.58 L80.8251 1051.58 L80.8251 1045.7 Z" fill="#000000" fill-rule="evenodd" fill-opacity="1" /><path clip-path="url(#clip540)" d="M108.742 1021.09 L96.9361 1039.54 L108.742 1039.54 L108.742 1021.09 M107.515 1017.02 L113.394 1017.02 L113.394 1039.54 L118.325 1039.54 L118.325 1043.43 L113.394 1043.43 L113.394 1051.58 L108.742 1051.58 L108.742 1043.43 L93.1399 1043.43 L93.1399 1038.91 L107.515 1017.02 Z" fill="#000000" fill-rule="evenodd" fill-opacity="1" /><path clip-path="url(#clip540)" d="M51.7975 735.167 L59.4363 735.167 L59.4363 708.801 L51.1262 710.468 L51.1262 706.209 L59.39 704.542 L64.0659 704.542 L64.0659 735.167 L71.7048 735.167 L71.7048 739.102 L51.7975 739.102 L51.7975 735.167 Z" fill="#000000" fill-rule="evenodd" fill-opacity="1" /><path clip-path="url(#clip540)" d="M81.1492 733.223 L86.0334 733.223 L86.0334 739.102 L81.1492 739.102 L81.1492 733.223 Z" fill="#000000" fill-rule="evenodd" fill-opacity="1" /><path clip-path="url(#clip540)" d="M106.797 719.959 Q103.649 719.959 101.797 722.111 Q99.9685 724.264 99.9685 728.014 Q99.9685 731.741 101.797 733.917 Q103.649 736.07 106.797 736.07 Q109.945 736.07 111.774 733.917 Q113.626 731.741 113.626 728.014 Q113.626 724.264 111.774 722.111 Q109.945 719.959 106.797 719.959 M116.08 705.306 L116.08 709.565 Q114.32 708.732 112.515 708.292 Q110.732 707.852 108.973 707.852 Q104.343 707.852 101.89 710.977 Q99.4593 714.102 99.112 720.422 Q100.478 718.408 102.538 717.343 Q104.598 716.255 107.075 716.255 Q112.283 716.255 115.293 719.426 Q118.325 722.574 118.325 728.014 Q118.325 733.338 115.177 736.556 Q112.029 739.773 106.797 739.773 Q100.802 739.773 97.6306 735.19 Q94.4593 730.584 94.4593 721.857 Q94.4593 713.662 98.3482 708.801 Q102.237 703.917 108.788 703.917 Q110.547 703.917 112.33 704.264 Q114.135 704.612 116.08 705.306 Z" fill="#000000" fill-rule="evenodd" fill-opacity="1" /><path clip-path="url(#clip540)" d="M52.0521 422.692 L59.691 422.692 L59.691 396.327 L51.3808 397.993 L51.3808 393.734 L59.6447 392.067 L64.3206 392.067 L64.3206 422.692 L71.9594 422.692 L71.9594 426.627 L52.0521 426.627 L52.0521 422.692 Z" fill="#000000" fill-rule="evenodd" fill-opacity="1" /><path clip-path="url(#clip540)" d="M81.4038 420.748 L86.288 420.748 L86.288 426.627 L81.4038 426.627 L81.4038 420.748 Z" fill="#000000" fill-rule="evenodd" fill-opacity="1" /><path clip-path="url(#clip540)" d="M106.473 410.215 Q103.14 410.215 101.219 411.998 Q99.3204 413.78 99.3204 416.905 Q99.3204 420.03 101.219 421.812 Q103.14 423.595 106.473 423.595 Q109.806 423.595 111.728 421.812 Q113.649 420.007 113.649 416.905 Q113.649 413.78 111.728 411.998 Q109.83 410.215 106.473 410.215 M101.797 408.225 Q98.788 407.484 97.0982 405.424 Q95.4315 403.364 95.4315 400.401 Q95.4315 396.257 98.3713 393.85 Q101.334 391.442 106.473 391.442 Q111.635 391.442 114.575 393.85 Q117.515 396.257 117.515 400.401 Q117.515 403.364 115.825 405.424 Q114.158 407.484 111.172 408.225 Q114.552 409.012 116.427 411.303 Q118.325 413.595 118.325 416.905 Q118.325 421.928 115.246 424.613 Q112.191 427.299 106.473 427.299 Q100.756 427.299 97.6769 424.613 Q94.6213 421.928 94.6213 416.905 Q94.6213 413.595 96.5195 411.303 Q98.4176 409.012 101.797 408.225 M100.084 400.84 Q100.084 403.526 101.751 405.03 Q103.441 406.535 106.473 406.535 Q109.482 406.535 111.172 405.03 Q112.885 403.526 112.885 400.84 Q112.885 398.155 111.172 396.651 Q109.482 395.146 106.473 395.146 Q103.441 395.146 101.751 396.651 Q100.084 398.155 100.084 400.84 Z" fill="#000000" fill-rule="evenodd" fill-opacity="1" /><path clip-path="url(#clip540)" d="M55.1771 110.217 L71.4965 110.217 L71.4965 114.152 L49.5521 114.152 L49.5521 110.217 Q52.2141 107.463 56.7975 102.833 Q61.4039 98.1803 62.5845 96.8377 Q64.8298 94.3146 65.7094 92.5785 Q66.6122 90.8192 66.6122 89.1294 Q66.6122 86.3748 64.6678 84.6387 Q62.7465 82.9026 59.6447 82.9026 Q57.4456 82.9026 54.9919 83.6665 Q52.5614 84.4304 49.7836 85.9813 L49.7836 81.2591 Q52.6077 80.1249 55.0614 79.5462 Q57.515 78.9675 59.5521 78.9675 Q64.9224 78.9675 68.1168 81.6526 Q71.3113 84.3378 71.3113 88.8285 Q71.3113 90.9581 70.5011 92.8794 Q69.7141 94.7776 67.6076 97.3701 Q67.0289 98.0414 63.927 101.259 Q60.8252 104.453 55.1771 110.217 Z" fill="#000000" fill-rule="evenodd" fill-opacity="1" /><path clip-path="url(#clip540)" d="M81.3112 108.273 L86.1954 108.273 L86.1954 114.152 L81.3112 114.152 L81.3112 108.273 Z" fill="#000000" fill-rule="evenodd" fill-opacity="1" /><path clip-path="url(#clip540)" d="M106.381 82.6711 Q102.769 82.6711 100.941 86.2359 Q99.1352 89.7776 99.1352 96.9072 Q99.1352 104.014 100.941 107.578 Q102.769 111.12 106.381 111.12 Q110.015 111.12 111.82 107.578 Q113.649 104.014 113.649 96.9072 Q113.649 89.7776 111.82 86.2359 Q110.015 82.6711 106.381 82.6711 M106.381 78.9675 Q112.191 78.9675 115.246 83.5739 Q118.325 88.1572 118.325 96.9072 Q118.325 105.634 115.246 110.24 Q112.191 114.824 106.381 114.824 Q100.57 114.824 97.4917 110.24 Q94.4361 105.634 94.4361 96.9072 Q94.4361 88.1572 97.4917 83.5739 Q100.57 78.9675 106.381 78.9675 Z" fill="#000000" fill-rule="evenodd" fill-opacity="1" /><polyline clip-path="url(#clip542)" style="stroke:#009af9; stroke-linecap:round; stroke-linejoin:round; stroke-width:4; stroke-opacity:1; fill:none" points="
  228.893,96.8724 236.516,107.011 244.139,117.085 314.62,207.23 385.102,292.288 427.459,341.134 469.816,388.377 505.628,427.128 541.44,464.834 580.342,504.656 
  619.243,543.345 655.108,578.048 690.972,611.864 729.422,647.17 767.872,681.534 812.42,720.218 856.968,757.742 936.147,821.728 1005.58,875.164 1081.28,930.777 
  1157.43,984.122 1241.62,1040.28 1321.73,1091.16 1405.02,1141.61 1475.14,1182.26 1560.74,1229.78 1639.16,1271.41 1711.58,1308.34 1784.95,1344.36 1867.17,1383.14 
  1941.67,1416.92 2026.98,1454.11 2105.96,1487.2 2183.83,1518.64 2259.43,1548.09 2336.94,1577.23 2421.85,1608.03 2545.2,1650.76 2570.51,1659.25 
  "/>
<polyline clip-path="url(#clip542)" style="stroke:#e26f46; stroke-linecap:round; stroke-linejoin:round; stroke-width:4; stroke-opacity:1; fill:none" points="
  228.893,280.681 244.139,290.255 385.102,378.776 469.816,431.974 541.44,476.952 619.243,525.81 690.972,570.854 767.872,619.145 856.968,675.095 936.147,724.817 
  1005.58,768.419 1081.28,815.956 1157.43,863.776 1241.62,916.647 1321.73,966.953 1405.02,1019.26 1475.14,1063.29 1560.74,1117.05 1639.16,1166.29 1711.58,1211.77 
  1784.95,1257.84 1867.17,1309.47 1941.67,1356.26 2026.98,1409.83 2105.96,1459.43 2183.83,1508.33 2259.43,1555.8 2336.94,1604.47 2421.85,1657.8 2545.2,1735.26 
  2570.51,1751.15 
  "/>
<path clip-path="url(#clip540)" d="
M1799.06 261.215 L2558.02 261.215 L2558.02 105.695 L1799.06 105.695  Z
  " fill="#ffffff" fill-rule="evenodd" fill-opacity="1"/>
<polyline clip-path="url(#clip540)" style="stroke:#000000; stroke-linecap:round; stroke-linejoin:round; stroke-width:4; stroke-opacity:1; fill:none" points="
  1799.06,261.215 2558.02,261.215 2558.02,105.695 1799.06,105.695 1799.06,261.215 
  "/>
<polyline clip-path="url(#clip540)" style="stroke:#009af9; stroke-linecap:round; stroke-linejoin:round; stroke-width:4; stroke-opacity:1; fill:none" points="
  1826.64,157.535 1992.11,157.535 
  "/>
<path clip-path="url(#clip540)" d="M2020.36 170.88 L2028 170.88 L2028 144.515 L2019.69 146.181 L2019.69 141.922 L2027.96 140.255 L2032.63 140.255 L2032.63 170.88 L2040.27 170.88 L2040.27 174.815 L2020.36 174.815 L2020.36 170.88 Z" fill="#000000" fill-rule="evenodd" fill-opacity="1" /><path clip-path="url(#clip540)" d="M2056.68 140.255 L2060.62 140.255 L2048.58 179.213 L2044.65 179.213 L2056.68 140.255 Z" fill="#000000" fill-rule="evenodd" fill-opacity="1" /><path clip-path="url(#clip540)" d="M2067.63 161.876 Q2067.63 166.575 2069.55 169.26 Q2071.5 171.922 2074.88 171.922 Q2078.26 171.922 2080.2 169.26 Q2082.15 166.575 2082.15 161.876 Q2082.15 157.176 2080.2 154.514 Q2078.26 151.829 2074.88 151.829 Q2071.5 151.829 2069.55 154.514 Q2067.63 157.176 2067.63 161.876 M2082.15 170.926 Q2080.8 173.241 2078.74 174.375 Q2076.71 175.487 2073.84 175.487 Q2069.14 175.487 2066.17 171.737 Q2063.23 167.987 2063.23 161.876 Q2063.23 155.764 2066.17 152.014 Q2069.14 148.264 2073.84 148.264 Q2076.71 148.264 2078.74 149.399 Q2080.8 150.51 2082.15 152.825 L2082.15 148.889 L2086.4 148.889 L2086.4 184.676 L2082.15 184.676 L2082.15 170.926 Z" fill="#000000" fill-rule="evenodd" fill-opacity="1" /><polyline clip-path="url(#clip540)" style="stroke:#e26f46; stroke-linecap:round; stroke-linejoin:round; stroke-width:4; stroke-opacity:1; fill:none" points="
  1826.64,209.375 1992.11,209.375 
  "/>
<path clip-path="url(#clip540)" d="M2019.69 190.637 L2023.95 190.637 L2023.95 226.655 L2019.69 226.655 L2019.69 190.637 Z" fill="#000000" fill-rule="evenodd" fill-opacity="1" /><path clip-path="url(#clip540)" d="M2032.86 200.729 L2037.12 200.729 L2037.12 226.655 L2032.86 226.655 L2032.86 200.729 M2032.86 190.637 L2037.12 190.637 L2037.12 196.03 L2032.86 196.03 L2032.86 190.637 Z" fill="#000000" fill-rule="evenodd" fill-opacity="1" /><path clip-path="url(#clip540)" d="M2067.59 211.007 L2067.59 226.655 L2063.33 226.655 L2063.33 211.146 Q2063.33 207.466 2061.89 205.637 Q2060.46 203.808 2057.59 203.808 Q2054.14 203.808 2052.15 206.007 Q2050.15 208.206 2050.15 212.003 L2050.15 226.655 L2045.87 226.655 L2045.87 200.729 L2050.15 200.729 L2050.15 204.757 Q2051.68 202.419 2053.74 201.262 Q2055.83 200.104 2058.53 200.104 Q2063 200.104 2065.29 202.882 Q2067.59 205.637 2067.59 211.007 Z" fill="#000000" fill-rule="evenodd" fill-opacity="1" /><path clip-path="url(#clip540)" d="M2098.26 212.628 L2098.26 214.711 L2078.67 214.711 Q2078.95 219.109 2081.31 221.424 Q2083.7 223.715 2087.93 223.715 Q2090.39 223.715 2092.68 223.114 Q2094.99 222.512 2097.26 221.308 L2097.26 225.336 Q2094.97 226.308 2092.56 226.817 Q2090.15 227.327 2087.68 227.327 Q2081.47 227.327 2077.84 223.715 Q2074.23 220.104 2074.23 213.947 Q2074.23 207.581 2077.65 203.854 Q2081.1 200.104 2086.94 200.104 Q2092.17 200.104 2095.2 203.484 Q2098.26 206.841 2098.26 212.628 M2094 211.378 Q2093.95 207.882 2092.03 205.799 Q2090.13 203.716 2086.98 203.716 Q2083.42 203.716 2081.27 205.729 Q2079.14 207.743 2078.81 211.401 L2094 211.378 Z" fill="#000000" fill-rule="evenodd" fill-opacity="1" /><path clip-path="url(#clip540)" d="M2117.03 213.623 Q2111.87 213.623 2109.88 214.803 Q2107.89 215.984 2107.89 218.831 Q2107.89 221.1 2109.37 222.442 Q2110.87 223.762 2113.44 223.762 Q2116.98 223.762 2119.11 221.262 Q2121.27 218.739 2121.27 214.572 L2121.27 213.623 L2117.03 213.623 M2125.52 211.864 L2125.52 226.655 L2121.27 226.655 L2121.27 222.72 Q2119.81 225.081 2117.63 226.215 Q2115.46 227.327 2112.31 227.327 Q2108.33 227.327 2105.96 225.104 Q2103.63 222.859 2103.63 219.109 Q2103.63 214.734 2106.54 212.512 Q2109.48 210.29 2115.29 210.29 L2121.27 210.29 L2121.27 209.873 Q2121.27 206.933 2119.32 205.336 Q2117.4 203.716 2113.9 203.716 Q2111.68 203.716 2109.58 204.248 Q2107.47 204.78 2105.53 205.845 L2105.53 201.91 Q2107.86 201.007 2110.06 200.567 Q2112.26 200.104 2114.34 200.104 Q2119.97 200.104 2122.75 203.021 Q2125.52 205.938 2125.52 211.864 Z" fill="#000000" fill-rule="evenodd" fill-opacity="1" /><path clip-path="url(#clip540)" d="M2149.32 204.711 Q2148.6 204.294 2147.75 204.109 Q2146.91 203.901 2145.9 203.901 Q2142.28 203.901 2140.34 206.262 Q2138.42 208.6 2138.42 212.998 L2138.42 226.655 L2134.14 226.655 L2134.14 200.729 L2138.42 200.729 L2138.42 204.757 Q2139.76 202.396 2141.91 201.262 Q2144.07 200.104 2147.15 200.104 Q2147.58 200.104 2148.12 200.174 Q2148.65 200.22 2149.3 200.336 L2149.32 204.711 Z" fill="#000000" fill-rule="evenodd" fill-opacity="1" /><path clip-path="url(#clip540)" d="M2180.64 213.623 Q2175.48 213.623 2173.49 214.803 Q2171.5 215.984 2171.5 218.831 Q2171.5 221.1 2172.98 222.442 Q2174.48 223.762 2177.05 223.762 Q2180.59 223.762 2182.72 221.262 Q2184.88 218.739 2184.88 214.572 L2184.88 213.623 L2180.64 213.623 M2189.14 211.864 L2189.14 226.655 L2184.88 226.655 L2184.88 222.72 Q2183.42 225.081 2181.24 226.215 Q2179.07 227.327 2175.92 227.327 Q2171.94 227.327 2169.58 225.104 Q2167.24 222.859 2167.24 219.109 Q2167.24 214.734 2170.15 212.512 Q2173.09 210.29 2178.9 210.29 L2184.88 210.29 L2184.88 209.873 Q2184.88 206.933 2182.93 205.336 Q2181.01 203.716 2177.52 203.716 Q2175.29 203.716 2173.19 204.248 Q2171.08 204.78 2169.14 205.845 L2169.14 201.91 Q2171.47 201.007 2173.67 200.567 Q2175.87 200.104 2177.96 200.104 Q2183.58 200.104 2186.36 203.021 Q2189.14 205.938 2189.14 211.864 Z" fill="#000000" fill-rule="evenodd" fill-opacity="1" /><path clip-path="url(#clip540)" d="M2202.03 222.766 L2202.03 236.516 L2197.75 236.516 L2197.75 200.729 L2202.03 200.729 L2202.03 204.665 Q2203.37 202.35 2205.41 201.239 Q2207.47 200.104 2210.32 200.104 Q2215.04 200.104 2217.98 203.854 Q2220.94 207.604 2220.94 213.716 Q2220.94 219.827 2217.98 223.577 Q2215.04 227.327 2210.32 227.327 Q2207.47 227.327 2205.41 226.215 Q2203.37 225.081 2202.03 222.766 M2216.52 213.716 Q2216.52 209.016 2214.58 206.354 Q2212.65 203.669 2209.27 203.669 Q2205.89 203.669 2203.95 206.354 Q2202.03 209.016 2202.03 213.716 Q2202.03 218.415 2203.95 221.1 Q2205.89 223.762 2209.27 223.762 Q2212.65 223.762 2214.58 221.1 Q2216.52 218.415 2216.52 213.716 Z" fill="#000000" fill-rule="evenodd" fill-opacity="1" /><path clip-path="url(#clip540)" d="M2232.12 222.766 L2232.12 236.516 L2227.84 236.516 L2227.84 200.729 L2232.12 200.729 L2232.12 204.665 Q2233.46 202.35 2235.5 201.239 Q2237.56 200.104 2240.41 200.104 Q2245.13 200.104 2248.07 203.854 Q2251.03 207.604 2251.03 213.716 Q2251.03 219.827 2248.07 223.577 Q2245.13 227.327 2240.41 227.327 Q2237.56 227.327 2235.5 226.215 Q2233.46 225.081 2232.12 222.766 M2246.61 213.716 Q2246.61 209.016 2244.67 206.354 Q2242.75 203.669 2239.37 203.669 Q2235.99 203.669 2234.04 206.354 Q2232.12 209.016 2232.12 213.716 Q2232.12 218.415 2234.04 221.1 Q2235.99 223.762 2239.37 223.762 Q2242.75 223.762 2244.67 221.1 Q2246.61 218.415 2246.61 213.716 Z" fill="#000000" fill-rule="evenodd" fill-opacity="1" /><path clip-path="url(#clip540)" d="M2273.12 204.711 Q2272.4 204.294 2271.54 204.109 Q2270.71 203.901 2269.69 203.901 Q2266.08 203.901 2264.14 206.262 Q2262.21 208.6 2262.21 212.998 L2262.21 226.655 L2257.93 226.655 L2257.93 200.729 L2262.21 200.729 L2262.21 204.757 Q2263.56 202.396 2265.71 201.262 Q2267.86 200.104 2270.94 200.104 Q2271.38 200.104 2271.91 200.174 Q2272.45 200.22 2273.09 200.336 L2273.12 204.711 Z" fill="#000000" fill-rule="evenodd" fill-opacity="1" /><path clip-path="url(#clip540)" d="M2286.59 203.716 Q2283.16 203.716 2281.17 206.401 Q2279.18 209.063 2279.18 213.716 Q2279.18 218.368 2281.15 221.053 Q2283.14 223.715 2286.59 223.715 Q2289.99 223.715 2291.98 221.03 Q2293.97 218.345 2293.97 213.716 Q2293.97 209.109 2291.98 206.424 Q2289.99 203.716 2286.59 203.716 M2286.59 200.104 Q2292.14 200.104 2295.32 203.716 Q2298.49 207.327 2298.49 213.716 Q2298.49 220.081 2295.32 223.715 Q2292.14 227.327 2286.59 227.327 Q2281.01 227.327 2277.84 223.715 Q2274.69 220.081 2274.69 213.716 Q2274.69 207.327 2277.84 203.716 Q2281.01 200.104 2286.59 200.104 Z" fill="#000000" fill-rule="evenodd" fill-opacity="1" /><path clip-path="url(#clip540)" d="M2325.64 200.729 L2316.26 213.345 L2326.13 226.655 L2321.1 226.655 L2313.56 216.47 L2306.01 226.655 L2300.99 226.655 L2311.06 213.091 L2301.84 200.729 L2306.87 200.729 L2313.74 209.966 L2320.62 200.729 L2325.64 200.729 Z" fill="#000000" fill-rule="evenodd" fill-opacity="1" /><path clip-path="url(#clip540)" d="M2332.14 200.729 L2336.4 200.729 L2336.4 226.655 L2332.14 226.655 L2332.14 200.729 M2332.14 190.637 L2336.4 190.637 L2336.4 196.03 L2332.14 196.03 L2332.14 190.637 Z" fill="#000000" fill-rule="evenodd" fill-opacity="1" /><path clip-path="url(#clip540)" d="M2365.5 205.706 Q2367.1 202.836 2369.32 201.47 Q2371.54 200.104 2374.55 200.104 Q2378.6 200.104 2380.8 202.952 Q2383 205.776 2383 211.007 L2383 226.655 L2378.72 226.655 L2378.72 211.146 Q2378.72 207.419 2377.4 205.614 Q2376.08 203.808 2373.37 203.808 Q2370.06 203.808 2368.14 206.007 Q2366.22 208.206 2366.22 212.003 L2366.22 226.655 L2361.94 226.655 L2361.94 211.146 Q2361.94 207.396 2360.62 205.614 Q2359.3 203.808 2356.54 203.808 Q2353.28 203.808 2351.36 206.03 Q2349.44 208.229 2349.44 212.003 L2349.44 226.655 L2345.15 226.655 L2345.15 200.729 L2349.44 200.729 L2349.44 204.757 Q2350.89 202.373 2352.93 201.239 Q2354.97 200.104 2357.77 200.104 Q2360.59 200.104 2362.56 201.54 Q2364.55 202.975 2365.5 205.706 Z" fill="#000000" fill-rule="evenodd" fill-opacity="1" /><path clip-path="url(#clip540)" d="M2403.28 213.623 Q2398.12 213.623 2396.13 214.803 Q2394.13 215.984 2394.13 218.831 Q2394.13 221.1 2395.62 222.442 Q2397.12 223.762 2399.69 223.762 Q2403.23 223.762 2405.36 221.262 Q2407.51 218.739 2407.51 214.572 L2407.51 213.623 L2403.28 213.623 M2411.77 211.864 L2411.77 226.655 L2407.51 226.655 L2407.51 222.72 Q2406.06 225.081 2403.88 226.215 Q2401.7 227.327 2398.56 227.327 Q2394.57 227.327 2392.21 225.104 Q2389.88 222.859 2389.88 219.109 Q2389.88 214.734 2392.79 212.512 Q2395.73 210.29 2401.54 210.29 L2407.51 210.29 L2407.51 209.873 Q2407.51 206.933 2405.57 205.336 Q2403.65 203.716 2400.15 203.716 Q2397.93 203.716 2395.82 204.248 Q2393.72 204.78 2391.77 205.845 L2391.77 201.91 Q2394.11 201.007 2396.31 200.567 Q2398.51 200.104 2400.59 200.104 Q2406.22 200.104 2409 203.021 Q2411.77 205.938 2411.77 211.864 Z" fill="#000000" fill-rule="evenodd" fill-opacity="1" /><path clip-path="url(#clip540)" d="M2424.76 193.368 L2424.76 200.729 L2433.53 200.729 L2433.53 204.04 L2424.76 204.04 L2424.76 218.114 Q2424.76 221.285 2425.62 222.188 Q2426.5 223.09 2429.16 223.09 L2433.53 223.09 L2433.53 226.655 L2429.16 226.655 Q2424.23 226.655 2422.35 224.827 Q2420.48 222.975 2420.48 218.114 L2420.48 204.04 L2417.35 204.04 L2417.35 200.729 L2420.48 200.729 L2420.48 193.368 L2424.76 193.368 Z" fill="#000000" fill-rule="evenodd" fill-opacity="1" /><path clip-path="url(#clip540)" d="M2439.13 200.729 L2443.39 200.729 L2443.39 226.655 L2439.13 226.655 L2439.13 200.729 M2439.13 190.637 L2443.39 190.637 L2443.39 196.03 L2439.13 196.03 L2439.13 190.637 Z" fill="#000000" fill-rule="evenodd" fill-opacity="1" /><path clip-path="url(#clip540)" d="M2462.35 203.716 Q2458.93 203.716 2456.94 206.401 Q2454.94 209.063 2454.94 213.716 Q2454.94 218.368 2456.91 221.053 Q2458.9 223.715 2462.35 223.715 Q2465.75 223.715 2467.75 221.03 Q2469.74 218.345 2469.74 213.716 Q2469.74 209.109 2467.75 206.424 Q2465.75 203.716 2462.35 203.716 M2462.35 200.104 Q2467.91 200.104 2471.08 203.716 Q2474.25 207.327 2474.25 213.716 Q2474.25 220.081 2471.08 223.715 Q2467.91 227.327 2462.35 227.327 Q2456.77 227.327 2453.6 223.715 Q2450.45 220.081 2450.45 213.716 Q2450.45 207.327 2453.6 203.716 Q2456.77 200.104 2462.35 200.104 Z" fill="#000000" fill-rule="evenodd" fill-opacity="1" /><path clip-path="url(#clip540)" d="M2502.86 211.007 L2502.86 226.655 L2498.6 226.655 L2498.6 211.146 Q2498.6 207.466 2497.17 205.637 Q2495.73 203.808 2492.86 203.808 Q2489.41 203.808 2487.42 206.007 Q2485.43 208.206 2485.43 212.003 L2485.43 226.655 L2481.15 226.655 L2481.15 200.729 L2485.43 200.729 L2485.43 204.757 Q2486.96 202.419 2489.02 201.262 Q2491.1 200.104 2493.81 200.104 Q2498.28 200.104 2500.57 202.882 Q2502.86 205.637 2502.86 211.007 Z" fill="#000000" fill-rule="evenodd" fill-opacity="1" /></svg>
