<?xml version="1.0" encoding="utf-8"?>
<svg xmlns="http://www.w3.org/2000/svg" xmlns:xlink="http://www.w3.org/1999/xlink" width="672" height="480" viewBox="0 0 2688 1920">
<defs>
  <clipPath id="clip180">
    <rect x="0" y="0" width="2688" height="1920"/>
  </clipPath>
</defs>
<path clip-path="url(#clip180)" d="
M0 1920 L2688 1920 L2688 0 L0 0  Z
  " fill="#ffffff" fill-rule="evenodd" fill-opacity="1"/>
<defs>
  <clipPath id="clip181">
    <rect x="537" y="0" width="1883" height="1883"/>
  </clipPath>
</defs>
<path clip-path="url(#clip180)" d="
M115.057 1800.78 L2640.76 1800.78 L2640.76 47.2441 L115.057 47.2441  Z
  " fill="#ffffff" fill-rule="evenodd" fill-opacity="1"/>
<defs>
  <clipPath id="clip182">
    <rect x="115" y="47" width="2527" height="1755"/>
  </clipPath>
</defs>
<polyline clip-path="url(#clip182)" style="stroke:#000000; stroke-linecap:round; stroke-linejoin:round; stroke-width:2; stroke-opacity:0.1; fill:none" points="
  186.539,1800.78 186.539,47.2441 
  "/>
<polyline clip-path="url(#clip182)" style="stroke:#000000; stroke-linecap:round; stroke-linejoin:round; stroke-width:2; stroke-opacity:0.1; fill:none" points="
  863.351,1800.78 863.351,47.2441 
  "/>
<polyline clip-path="url(#clip182)" style="stroke:#000000; stroke-linecap:round; stroke-linejoin:round; stroke-width:2; stroke-opacity:0.1; fill:none" points="
  1540.16,1800.78 1540.16,47.2441 
  "/>
<polyline clip-path="url(#clip182)" style="stroke:#000000; stroke-linecap:round; stroke-linejoin:round; stroke-width:2; stroke-opacity:0.1; fill:none" points="
  2216.97,1800.78 2216.97,47.2441 
  "/>
<polyline clip-path="url(#clip180)" style="stroke:#000000; stroke-linecap:round; stroke-linejoin:round; stroke-width:4; stroke-opacity:1; fill:none" points="
  115.057,1800.78 2640.76,1800.78 
  "/>
<polyline clip-path="url(#clip180)" style="stroke:#000000; stroke-linecap:round; stroke-linejoin:round; stroke-width:4; stroke-opacity:1; fill:none" points="
  186.539,1800.78 186.539,1781.88 
  "/>
<polyline clip-path="url(#clip180)" style="stroke:#000000; stroke-linecap:round; stroke-linejoin:round; stroke-width:4; stroke-opacity:1; fill:none" points="
  863.351,1800.78 863.351,1781.88 
  "/>
<polyline clip-path="url(#clip180)" style="stroke:#000000; stroke-linecap:round; stroke-linejoin:round; stroke-width:4; stroke-opacity:1; fill:none" points="
  1540.16,1800.78 1540.16,1781.88 
  "/>
<polyline clip-path="url(#clip180)" style="stroke:#000000; stroke-linecap:round; stroke-linejoin:round; stroke-width:4; stroke-opacity:1; fill:none" points="
  2216.97,1800.78 2216.97,1781.88 
  "/>
<path clip-path="url(#clip180)" d="M155.44 1848.65 L185.116 1848.65 L185.116 1852.59 L155.44 1852.59 L155.44 1848.65 Z" fill="#000000" fill-rule="evenodd" fill-opacity="1" /><path clip-path="url(#clip180)" d="M208.055 1835 L196.25 1853.45 L208.055 1853.45 L208.055 1835 M206.828 1830.92 L212.708 1830.92 L212.708 1853.45 L217.639 1853.45 L217.639 1857.34 L212.708 1857.34 L212.708 1865.48 L208.055 1865.48 L208.055 1857.34 L192.454 1857.34 L192.454 1852.82 L206.828 1830.92 Z" fill="#000000" fill-rule="evenodd" fill-opacity="1" /><path clip-path="url(#clip180)" d="M833.293 1848.65 L862.969 1848.65 L862.969 1852.59 L833.293 1852.59 L833.293 1848.65 Z" fill="#000000" fill-rule="evenodd" fill-opacity="1" /><path clip-path="url(#clip180)" d="M877.089 1861.55 L893.409 1861.55 L893.409 1865.48 L871.464 1865.48 L871.464 1861.55 Q874.126 1858.79 878.71 1854.16 Q883.316 1849.51 884.497 1848.17 Q886.742 1845.65 887.622 1843.91 Q888.525 1842.15 888.525 1840.46 Q888.525 1837.71 886.58 1835.97 Q884.659 1834.23 881.557 1834.23 Q879.358 1834.23 876.904 1835 Q874.474 1835.76 871.696 1837.31 L871.696 1832.59 Q874.52 1831.46 876.974 1830.88 Q879.427 1830.3 881.464 1830.3 Q886.835 1830.3 890.029 1832.98 Q893.224 1835.67 893.224 1840.16 Q893.224 1842.29 892.413 1844.21 Q891.626 1846.11 889.52 1848.7 Q888.941 1849.37 885.839 1852.59 Q882.738 1855.78 877.089 1861.55 Z" fill="#000000" fill-rule="evenodd" fill-opacity="1" /><path clip-path="url(#clip180)" d="M1540.16 1834 Q1536.55 1834 1534.72 1837.57 Q1532.92 1841.11 1532.92 1848.24 Q1532.92 1855.34 1534.72 1858.91 Q1536.55 1862.45 1540.16 1862.45 Q1543.8 1862.45 1545.6 1858.91 Q1547.43 1855.34 1547.43 1848.24 Q1547.43 1841.11 1545.6 1837.57 Q1543.8 1834 1540.16 1834 M1540.16 1830.3 Q1545.97 1830.3 1549.03 1834.9 Q1552.11 1839.49 1552.11 1848.24 Q1552.11 1856.96 1549.03 1861.57 Q1545.97 1866.15 1540.16 1866.15 Q1534.35 1866.15 1531.27 1861.57 Q1528.22 1856.96 1528.22 1848.24 Q1528.22 1839.49 1531.27 1834.9 Q1534.35 1830.3 1540.16 1830.3 Z" fill="#000000" fill-rule="evenodd" fill-opacity="1" /><path clip-path="url(#clip180)" d="M2211.63 1861.55 L2227.95 1861.55 L2227.95 1865.48 L2206 1865.48 L2206 1861.55 Q2208.66 1858.79 2213.25 1854.16 Q2217.85 1849.51 2219.04 1848.17 Q2221.28 1845.65 2222.16 1843.91 Q2223.06 1842.15 2223.06 1840.46 Q2223.06 1837.71 2221.12 1835.97 Q2219.2 1834.23 2216.1 1834.23 Q2213.9 1834.23 2211.44 1835 Q2209.01 1835.76 2206.23 1837.31 L2206.23 1832.59 Q2209.06 1831.46 2211.51 1830.88 Q2213.97 1830.3 2216 1830.3 Q2221.37 1830.3 2224.57 1832.98 Q2227.76 1835.67 2227.76 1840.16 Q2227.76 1842.29 2226.95 1844.21 Q2226.16 1846.11 2224.06 1848.7 Q2223.48 1849.37 2220.38 1852.59 Q2217.28 1855.78 2211.63 1861.55 Z" fill="#000000" fill-rule="evenodd" fill-opacity="1" /><polyline clip-path="url(#clip182)" style="stroke:#000000; stroke-linecap:round; stroke-linejoin:round; stroke-width:2; stroke-opacity:0.1; fill:none" points="
  115.057,1653.84 2640.76,1653.84 
  "/>
<polyline clip-path="url(#clip182)" style="stroke:#000000; stroke-linecap:round; stroke-linejoin:round; stroke-width:2; stroke-opacity:0.1; fill:none" points="
  115.057,1264.6 2640.76,1264.6 
  "/>
<polyline clip-path="url(#clip182)" style="stroke:#000000; stroke-linecap:round; stroke-linejoin:round; stroke-width:2; stroke-opacity:0.1; fill:none" points="
  115.057,875.356 2640.76,875.356 
  "/>
<polyline clip-path="url(#clip182)" style="stroke:#000000; stroke-linecap:round; stroke-linejoin:round; stroke-width:2; stroke-opacity:0.1; fill:none" points="
  115.057,486.114 2640.76,486.114 
  "/>
<polyline clip-path="url(#clip182)" style="stroke:#000000; stroke-linecap:round; stroke-linejoin:round; stroke-width:2; stroke-opacity:0.1; fill:none" points="
  115.057,96.8724 2640.76,96.8724 
  "/>
<polyline clip-path="url(#clip180)" style="stroke:#000000; stroke-linecap:round; stroke-linejoin:round; stroke-width:4; stroke-opacity:1; fill:none" points="
  115.057,1800.78 115.057,47.2441 
  "/>
<polyline clip-path="url(#clip180)" style="stroke:#000000; stroke-linecap:round; stroke-linejoin:round; stroke-width:4; stroke-opacity:1; fill:none" points="
  115.057,1653.84 133.955,1653.84 
  "/>
<polyline clip-path="url(#clip180)" style="stroke:#000000; stroke-linecap:round; stroke-linejoin:round; stroke-width:4; stroke-opacity:1; fill:none" points="
  115.057,1264.6 133.955,1264.6 
  "/>
<polyline clip-path="url(#clip180)" style="stroke:#000000; stroke-linecap:round; stroke-linejoin:round; stroke-width:4; stroke-opacity:1; fill:none" points="
  115.057,875.356 133.955,875.356 
  "/>
<polyline clip-path="url(#clip180)" style="stroke:#000000; stroke-linecap:round; stroke-linejoin:round; stroke-width:4; stroke-opacity:1; fill:none" points="
  115.057,486.114 133.955,486.114 
  "/>
<polyline clip-path="url(#clip180)" style="stroke:#000000; stroke-linecap:round; stroke-linejoin:round; stroke-width:4; stroke-opacity:1; fill:none" points="
  115.057,96.8724 133.955,96.8724 
  "/>
<path clip-path="url(#clip180)" d="M62.7928 1639.64 Q59.1817 1639.64 57.353 1643.2 Q55.5475 1646.75 55.5475 1653.88 Q55.5475 1660.98 57.353 1664.55 Q59.1817 1668.09 62.7928 1668.09 Q66.427 1668.09 68.2326 1664.55 Q70.0613 1660.98 70.0613 1653.88 Q70.0613 1646.75 68.2326 1643.2 Q66.427 1639.64 62.7928 1639.64 M62.7928 1635.94 Q68.6029 1635.94 71.6585 1640.54 Q74.7372 1645.13 74.7372 1653.88 Q74.7372 1662.6 71.6585 1667.21 Q68.6029 1671.79 62.7928 1671.79 Q56.9826 1671.79 53.904 1667.21 Q50.8484 1662.6 50.8484 1653.88 Q50.8484 1645.13 53.904 1640.54 Q56.9826 1635.94 62.7928 1635.94 Z" fill="#000000" fill-rule="evenodd" fill-opacity="1" /><path clip-path="url(#clip180)" d="M54.8299 1277.94 L62.4687 1277.94 L62.4687 1251.58 L54.1586 1253.24 L54.1586 1248.99 L62.4224 1247.32 L67.0983 1247.32 L67.0983 1277.94 L74.7372 1277.94 L74.7372 1281.88 L54.8299 1281.88 L54.8299 1277.94 Z" fill="#000000" fill-rule="evenodd" fill-opacity="1" /><path clip-path="url(#clip180)" d="M58.4178 888.701 L74.7372 888.701 L74.7372 892.636 L52.7928 892.636 L52.7928 888.701 Q55.4549 885.947 60.0382 881.317 Q64.6446 876.664 65.8252 875.322 Q68.0705 872.799 68.9502 871.062 Q69.8529 869.303 69.8529 867.613 Q69.8529 864.859 67.9085 863.123 Q65.9872 861.387 62.8854 861.387 Q60.6863 861.387 58.2326 862.151 Q55.8021 862.914 53.0243 864.465 L53.0243 859.743 Q55.8484 858.609 58.3021 858.03 Q60.7558 857.451 62.7928 857.451 Q68.1631 857.451 71.3576 860.137 Q74.552 862.822 74.552 867.313 Q74.552 869.442 73.7418 871.363 Q72.9548 873.262 70.8483 875.854 Q70.2696 876.525 67.1678 879.743 Q64.0659 882.937 58.4178 888.701 Z" fill="#000000" fill-rule="evenodd" fill-opacity="1" /><path clip-path="url(#clip180)" d="M67.6076 484.76 Q70.964 485.478 72.839 487.746 Q74.7372 490.015 74.7372 493.348 Q74.7372 498.464 71.2187 501.265 Q67.7002 504.066 61.2187 504.066 Q59.0428 504.066 56.728 503.626 Q54.4364 503.209 51.9827 502.353 L51.9827 497.839 Q53.9271 498.973 56.2419 499.552 Q58.5567 500.131 61.0798 500.131 Q65.478 500.131 67.7696 498.394 Q70.0844 496.658 70.0844 493.348 Q70.0844 490.293 67.9317 488.58 Q65.802 486.844 61.9826 486.844 L57.9549 486.844 L57.9549 483.001 L62.1678 483.001 Q65.6169 483.001 67.4455 481.635 Q69.2742 480.246 69.2742 477.654 Q69.2742 474.992 67.3761 473.58 Q65.5011 472.145 61.9826 472.145 Q60.0613 472.145 57.8623 472.561 Q55.6632 472.978 53.0243 473.858 L53.0243 469.691 Q55.6864 468.95 58.0012 468.58 Q60.3391 468.209 62.3993 468.209 Q67.7233 468.209 70.8252 470.64 Q73.927 473.047 73.927 477.168 Q73.927 480.038 72.2835 482.029 Q70.64 483.996 67.6076 484.76 Z" fill="#000000" fill-rule="evenodd" fill-opacity="1" /><path clip-path="url(#clip180)" d="M65.1539 83.6665 L53.3484 102.115 L65.1539 102.115 L65.1539 83.6665 M63.927 79.5924 L69.8066 79.5924 L69.8066 102.115 L74.7372 102.115 L74.7372 106.004 L69.8066 106.004 L69.8066 114.152 L65.1539 114.152 L65.1539 106.004 L49.5521 106.004 L49.5521 101.49 L63.927 79.5924 Z" fill="#000000" fill-rule="evenodd" fill-opacity="1" /><polyline clip-path="url(#clip182)" style="stroke:#009af9; stroke-linecap:round; stroke-linejoin:round; stroke-width:4; stroke-opacity:1; fill:none" points="
  366.317,1751.15 456.179,1734.44 544.17,1717.73 630.289,1701.02 714.538,1684.31 796.915,1667.6 877.422,1650.89 956.058,1634.18 1032.82,1617.47 1107.72,1600.76 
  1180.74,1584.05 1251.89,1567.34 1321.17,1550.63 1388.58,1533.92 1454.12,1517.21 1517.79,1500.5 1579.59,1483.79 1639.51,1467.08 1697.57,1450.37 1753.75,1433.66 
  1808.06,1416.95 1860.51,1400.24 1911.08,1383.53 1959.78,1366.82 2006.61,1350.11 2051.57,1333.4 2094.65,1316.69 2135.87,1299.98 2175.21,1283.27 2212.69,1266.56 
  2248.29,1249.85 2282.03,1233.14 2313.89,1216.43 2343.88,1199.72 2372,1183.01 2398.25,1166.31 2422.62,1149.6 2445.13,1132.89 2465.77,1116.18 2484.53,1099.47 
  2501.42,1082.76 2516.45,1066.05 2529.6,1049.34 2540.88,1032.63 2550.29,1015.92 2557.83,999.206 2563.5,982.496 2567.29,965.786 2569.22,949.077 2569.27,932.367 
  2567.46,915.657 2563.77,898.947 2558.21,882.237 2550.78,865.527 2541.48,848.817 2530.31,832.107 2517.27,815.397 2502.36,798.688 2485.58,781.978 2466.92,765.268 
  2446.4,748.558 2424,731.848 2399.73,715.138 2373.59,698.428 2345.58,681.718 2315.7,665.008 2283.95,648.299 2250.33,631.589 2214.84,614.879 2177.47,598.169 
  2138.24,581.459 2097.13,564.749 2054.15,548.039 2009.3,531.329 1962.58,514.62 1913.99,497.91 1863.53,481.2 1811.2,464.49 1757,447.78 1700.92,431.07 
  1642.98,414.36 1583.16,397.65 1521.48,380.94 1457.92,364.231 1392.49,347.521 1325.19,330.811 1256.02,314.101 1184.98,297.391 1112.06,280.681 1037.28,263.971 
  960.625,247.261 882.1,230.552 801.703,213.842 719.435,197.132 635.297,180.422 549.287,163.712 461.407,147.002 371.655,130.292 280.033,113.582 186.539,96.8724 
  
  "/>
<circle clip-path="url(#clip182)" cx="1878.57" cy="486.114" r="14.4" fill="#e26f46" fill-rule="evenodd" fill-opacity="1" stroke="#000000" stroke-opacity="1" stroke-width="3.84"/>
<circle clip-path="url(#clip182)" cx="2216.97" cy="1264.6" r="14.4" fill="#e26f46" fill-rule="evenodd" fill-opacity="1" stroke="#000000" stroke-opacity="1" stroke-width="3.84"/>
<circle clip-path="url(#clip182)" cx="2555.38" cy="875.356" r="14.4" fill="#e26f46" fill-rule="evenodd" fill-opacity="1" stroke="#000000" stroke-opacity="1" stroke-width="3.84"/>
<polyline clip-path="url(#clip182)" style="stroke:#3da44d; stroke-linecap:round; stroke-linejoin:round; stroke-width:4; stroke-opacity:1; fill:none" points="
  186.539,1653.84 202.052,1653.84 345.491,1653.84 431.692,1653.84 504.574,1653.84 583.744,1653.84 656.732,1653.84 734.983,1653.84 825.644,1653.84 906.213,1653.84 
  976.864,1653.84 1053.89,1653.84 1131.38,1653.84 1217.05,1653.84 1298.57,1653.84 1383.32,1653.84 1454.67,1653.84 1541.78,1653.84 1621.57,1653.84 1695.27,1653.84 
  1769.92,1653.84 1853.58,1653.84 1929.4,1653.84 2016.2,1653.84 2096.57,1653.84 2175.81,1653.84 2252.74,1653.84 2331.6,1653.84 2418.01,1653.84 2543.52,1653.84 
  2569.27,1653.84 
  "/>
<path clip-path="url(#clip182)" d="M863.351 1637.84 L859.591 1648.66 L848.135 1648.9 L857.271 1655.82 L853.943 1666.78 L863.351 1660.24 L872.759 1666.78 L869.431 1655.82 L878.567 1648.9 L867.111 1648.66 L863.351 1637.84 Z" fill="#c271d2" fill-rule="evenodd" fill-opacity="1" stroke="#000000" stroke-opacity="1" stroke-width="3.84"/>
</svg>
