<?xml version="1.0" encoding="utf-8"?>
<svg xmlns="http://www.w3.org/2000/svg" xmlns:xlink="http://www.w3.org/1999/xlink" width="672" height="480" viewBox="0 0 2688 1920">
<defs>
  <clipPath id="clip140">
    <rect x="0" y="0" width="2688" height="1920"/>
  </clipPath>
</defs>
<path clip-path="url(#clip140)" d="
M0 1920 L2688 1920 L2688 0 L0 0  Z
  " fill="#ffffff" fill-rule="evenodd" fill-opacity="1"/>
<defs>
  <clipPath id="clip141">
    <rect x="537" y="0" width="1883" height="1883"/>
  </clipPath>
</defs>
<path clip-path="url(#clip140)" d="
M159.478 1800.78 L2640.76 1800.78 L2640.76 47.2441 L159.478 47.2441  Z
  " fill="#ffffff" fill-rule="evenodd" fill-opacity="1"/>
<defs>
  <clipPath id="clip142">
    <rect x="159" y="47" width="2482" height="1755"/>
  </clipPath>
</defs>
<polyline clip-path="url(#clip142)" style="stroke:#000000; stroke-linecap:round; stroke-linejoin:round; stroke-width:2; stroke-opacity:0.1; fill:none" points="
  463.786,1800.78 463.786,47.2441 
  "/>
<polyline clip-path="url(#clip142)" style="stroke:#000000; stroke-linecap:round; stroke-linejoin:round; stroke-width:2; stroke-opacity:0.1; fill:none" points="
  931.951,1800.78 931.951,47.2441 
  "/>
<polyline clip-path="url(#clip142)" style="stroke:#000000; stroke-linecap:round; stroke-linejoin:round; stroke-width:2; stroke-opacity:0.1; fill:none" points="
  1400.12,1800.78 1400.12,47.2441 
  "/>
<polyline clip-path="url(#clip142)" style="stroke:#000000; stroke-linecap:round; stroke-linejoin:round; stroke-width:2; stroke-opacity:0.1; fill:none" points="
  1868.28,1800.78 1868.28,47.2441 
  "/>
<polyline clip-path="url(#clip142)" style="stroke:#000000; stroke-linecap:round; stroke-linejoin:round; stroke-width:2; stroke-opacity:0.1; fill:none" points="
  2336.45,1800.78 2336.45,47.2441 
  "/>
<polyline clip-path="url(#clip140)" style="stroke:#000000; stroke-linecap:round; stroke-linejoin:round; stroke-width:4; stroke-opacity:1; fill:none" points="
  159.478,1800.78 2640.76,1800.78 
  "/>
<polyline clip-path="url(#clip140)" style="stroke:#000000; stroke-linecap:round; stroke-linejoin:round; stroke-width:4; stroke-opacity:1; fill:none" points="
  463.786,1800.78 463.786,1781.88 
  "/>
<polyline clip-path="url(#clip140)" style="stroke:#000000; stroke-linecap:round; stroke-linejoin:round; stroke-width:4; stroke-opacity:1; fill:none" points="
  931.951,1800.78 931.951,1781.88 
  "/>
<polyline clip-path="url(#clip140)" style="stroke:#000000; stroke-linecap:round; stroke-linejoin:round; stroke-width:4; stroke-opacity:1; fill:none" points="
  1400.12,1800.78 1400.12,1781.88 
  "/>
<polyline clip-path="url(#clip140)" style="stroke:#000000; stroke-linecap:round; stroke-linejoin:round; stroke-width:4; stroke-opacity:1; fill:none" points="
  1868.28,1800.78 1868.28,1781.88 
  "/>
<polyline clip-path="url(#clip140)" style="stroke:#000000; stroke-linecap:round; stroke-linejoin:round; stroke-width:4; stroke-opacity:1; fill:none" points="
  2336.45,1800.78 2336.45,1781.88 
  "/>
<path clip-path="url(#clip140)" d="M430.858 1861.55 L438.497 1861.55 L438.497 1835.18 L430.187 1836.85 L430.187 1832.59 L438.45 1830.92 L443.126 1830.92 L443.126 1861.55 L450.765 1861.55 L450.765 1865.48 L430.858 1865.48 L430.858 1861.55 Z" fill="#000000" fill-rule="evenodd" fill-opacity="1" /><path clip-path="url(#clip140)" d="M460.21 1859.6 L465.094 1859.6 L465.094 1865.48 L460.21 1865.48 L460.21 1859.6 Z" fill="#000000" fill-rule="evenodd" fill-opacity="1" /><path clip-path="url(#clip140)" d="M485.858 1846.34 Q482.709 1846.34 480.858 1848.49 Q479.029 1850.65 479.029 1854.4 Q479.029 1858.12 480.858 1860.3 Q482.709 1862.45 485.858 1862.45 Q489.006 1862.45 490.834 1860.3 Q492.686 1858.12 492.686 1854.4 Q492.686 1850.65 490.834 1848.49 Q489.006 1846.34 485.858 1846.34 M495.14 1831.69 L495.14 1835.95 Q493.381 1835.11 491.575 1834.67 Q489.793 1834.23 488.033 1834.23 Q483.404 1834.23 480.95 1837.36 Q478.52 1840.48 478.172 1846.8 Q479.538 1844.79 481.598 1843.72 Q483.658 1842.64 486.135 1842.64 Q491.344 1842.64 494.353 1845.81 Q497.385 1848.96 497.385 1854.4 Q497.385 1859.72 494.237 1862.94 Q491.089 1866.15 485.858 1866.15 Q479.862 1866.15 476.691 1861.57 Q473.52 1856.96 473.52 1848.24 Q473.52 1840.04 477.408 1835.18 Q481.297 1830.3 487.848 1830.3 Q489.607 1830.3 491.39 1830.65 Q493.195 1830.99 495.14 1831.69 Z" fill="#000000" fill-rule="evenodd" fill-opacity="1" /><path clip-path="url(#clip140)" d="M899.151 1861.55 L906.79 1861.55 L906.79 1835.18 L898.479 1836.85 L898.479 1832.59 L906.743 1830.92 L911.419 1830.92 L911.419 1861.55 L919.058 1861.55 L919.058 1865.48 L899.151 1865.48 L899.151 1861.55 Z" fill="#000000" fill-rule="evenodd" fill-opacity="1" /><path clip-path="url(#clip140)" d="M928.502 1859.6 L933.387 1859.6 L933.387 1865.48 L928.502 1865.48 L928.502 1859.6 Z" fill="#000000" fill-rule="evenodd" fill-opacity="1" /><path clip-path="url(#clip140)" d="M953.572 1849.07 Q950.238 1849.07 948.317 1850.85 Q946.419 1852.64 946.419 1855.76 Q946.419 1858.89 948.317 1860.67 Q950.238 1862.45 953.572 1862.45 Q956.905 1862.45 958.826 1860.67 Q960.748 1858.86 960.748 1855.76 Q960.748 1852.64 958.826 1850.85 Q956.928 1849.07 953.572 1849.07 M948.896 1847.08 Q945.887 1846.34 944.197 1844.28 Q942.53 1842.22 942.53 1839.26 Q942.53 1835.11 945.47 1832.71 Q948.433 1830.3 953.572 1830.3 Q958.734 1830.3 961.674 1832.71 Q964.613 1835.11 964.613 1839.26 Q964.613 1842.22 962.924 1844.28 Q961.257 1846.34 958.271 1847.08 Q961.65 1847.87 963.525 1850.16 Q965.424 1852.45 965.424 1855.76 Q965.424 1860.78 962.345 1863.47 Q959.289 1866.15 953.572 1866.15 Q947.854 1866.15 944.775 1863.47 Q941.72 1860.78 941.72 1855.76 Q941.72 1852.45 943.618 1850.16 Q945.516 1847.87 948.896 1847.08 M947.183 1839.7 Q947.183 1842.38 948.85 1843.89 Q950.539 1845.39 953.572 1845.39 Q956.581 1845.39 958.271 1843.89 Q959.984 1842.38 959.984 1839.7 Q959.984 1837.01 958.271 1835.51 Q956.581 1834 953.572 1834 Q950.539 1834 948.85 1835.51 Q947.183 1837.01 947.183 1839.7 Z" fill="#000000" fill-rule="evenodd" fill-opacity="1" /><path clip-path="url(#clip140)" d="M1371.36 1861.55 L1387.68 1861.55 L1387.68 1865.48 L1365.73 1865.48 L1365.73 1861.55 Q1368.39 1858.79 1372.98 1854.16 Q1377.58 1849.51 1378.76 1848.17 Q1381.01 1845.65 1381.89 1843.91 Q1382.79 1842.15 1382.79 1840.46 Q1382.79 1837.71 1380.85 1835.97 Q1378.93 1834.23 1375.82 1834.23 Q1373.62 1834.23 1371.17 1835 Q1368.74 1835.76 1365.96 1837.31 L1365.96 1832.59 Q1368.79 1831.46 1371.24 1830.88 Q1373.69 1830.3 1375.73 1830.3 Q1381.1 1830.3 1384.3 1832.98 Q1387.49 1835.67 1387.49 1840.16 Q1387.49 1842.29 1386.68 1844.21 Q1385.89 1846.11 1383.79 1848.7 Q1383.21 1849.37 1380.11 1852.59 Q1377 1855.78 1371.36 1861.55 Z" fill="#000000" fill-rule="evenodd" fill-opacity="1" /><path clip-path="url(#clip140)" d="M1397.49 1859.6 L1402.37 1859.6 L1402.37 1865.48 L1397.49 1865.48 L1397.49 1859.6 Z" fill="#000000" fill-rule="evenodd" fill-opacity="1" /><path clip-path="url(#clip140)" d="M1422.56 1834 Q1418.95 1834 1417.12 1837.57 Q1415.31 1841.11 1415.31 1848.24 Q1415.31 1855.34 1417.12 1858.91 Q1418.95 1862.45 1422.56 1862.45 Q1426.19 1862.45 1428 1858.91 Q1429.83 1855.34 1429.83 1848.24 Q1429.83 1841.11 1428 1837.57 Q1426.19 1834 1422.56 1834 M1422.56 1830.3 Q1428.37 1830.3 1431.42 1834.9 Q1434.5 1839.49 1434.5 1848.24 Q1434.5 1856.96 1431.42 1861.57 Q1428.37 1866.15 1422.56 1866.15 Q1416.75 1866.15 1413.67 1861.57 Q1410.61 1856.96 1410.61 1848.24 Q1410.61 1839.49 1413.67 1834.9 Q1416.75 1830.3 1422.56 1830.3 Z" fill="#000000" fill-rule="evenodd" fill-opacity="1" /><path clip-path="url(#clip140)" d="M1840.32 1861.55 L1856.64 1861.55 L1856.64 1865.48 L1834.69 1865.48 L1834.69 1861.55 Q1837.36 1858.79 1841.94 1854.16 Q1846.55 1849.51 1847.73 1848.17 Q1849.97 1845.65 1850.85 1843.91 Q1851.75 1842.15 1851.75 1840.46 Q1851.75 1837.71 1849.81 1835.97 Q1847.89 1834.23 1844.79 1834.23 Q1842.59 1834.23 1840.13 1835 Q1837.7 1835.76 1834.93 1837.31 L1834.93 1832.59 Q1837.75 1831.46 1840.2 1830.88 Q1842.66 1830.3 1844.69 1830.3 Q1850.07 1830.3 1853.26 1832.98 Q1856.45 1835.67 1856.45 1840.16 Q1856.45 1842.29 1855.64 1844.21 Q1854.86 1846.11 1852.75 1848.7 Q1852.17 1849.37 1849.07 1852.59 Q1845.97 1855.78 1840.32 1861.55 Z" fill="#000000" fill-rule="evenodd" fill-opacity="1" /><path clip-path="url(#clip140)" d="M1866.45 1859.6 L1871.34 1859.6 L1871.34 1865.48 L1866.45 1865.48 L1866.45 1859.6 Z" fill="#000000" fill-rule="evenodd" fill-opacity="1" /><path clip-path="url(#clip140)" d="M1885.55 1861.55 L1901.87 1861.55 L1901.87 1865.48 L1879.93 1865.48 L1879.93 1861.55 Q1882.59 1858.79 1887.17 1854.16 Q1891.78 1849.51 1892.96 1848.17 Q1895.2 1845.65 1896.08 1843.91 Q1896.99 1842.15 1896.99 1840.46 Q1896.99 1837.71 1895.04 1835.97 Q1893.12 1834.23 1890.02 1834.23 Q1887.82 1834.23 1885.37 1835 Q1882.94 1835.76 1880.16 1837.31 L1880.16 1832.59 Q1882.98 1831.46 1885.44 1830.88 Q1887.89 1830.3 1889.93 1830.3 Q1895.3 1830.3 1898.49 1832.98 Q1901.69 1835.67 1901.69 1840.16 Q1901.69 1842.29 1900.88 1844.21 Q1900.09 1846.11 1897.98 1848.7 Q1897.4 1849.37 1894.3 1852.59 Q1891.2 1855.78 1885.55 1861.55 Z" fill="#000000" fill-rule="evenodd" fill-opacity="1" /><path clip-path="url(#clip140)" d="M2307.44 1861.55 L2323.76 1861.55 L2323.76 1865.48 L2301.82 1865.48 L2301.82 1861.55 Q2304.48 1858.79 2309.06 1854.16 Q2313.67 1849.51 2314.85 1848.17 Q2317.1 1845.65 2317.98 1843.91 Q2318.88 1842.15 2318.88 1840.46 Q2318.88 1837.71 2316.93 1835.97 Q2315.01 1834.23 2311.91 1834.23 Q2309.71 1834.23 2307.26 1835 Q2304.83 1835.76 2302.05 1837.31 L2302.05 1832.59 Q2304.87 1831.46 2307.33 1830.88 Q2309.78 1830.3 2311.82 1830.3 Q2317.19 1830.3 2320.38 1832.98 Q2323.58 1835.67 2323.58 1840.16 Q2323.58 1842.29 2322.77 1844.21 Q2321.98 1846.11 2319.87 1848.7 Q2319.3 1849.37 2316.19 1852.59 Q2313.09 1855.78 2307.44 1861.55 Z" fill="#000000" fill-rule="evenodd" fill-opacity="1" /><path clip-path="url(#clip140)" d="M2333.58 1859.6 L2338.46 1859.6 L2338.46 1865.48 L2333.58 1865.48 L2333.58 1859.6 Z" fill="#000000" fill-rule="evenodd" fill-opacity="1" /><path clip-path="url(#clip140)" d="M2361.49 1835 L2349.69 1853.45 L2361.49 1853.45 L2361.49 1835 M2360.27 1830.92 L2366.15 1830.92 L2366.15 1853.45 L2371.08 1853.45 L2371.08 1857.34 L2366.15 1857.34 L2366.15 1865.48 L2361.49 1865.48 L2361.49 1857.34 L2345.89 1857.34 L2345.89 1852.82 L2360.27 1830.92 Z" fill="#000000" fill-rule="evenodd" fill-opacity="1" /><polyline clip-path="url(#clip142)" style="stroke:#000000; stroke-linecap:round; stroke-linejoin:round; stroke-width:2; stroke-opacity:0.1; fill:none" points="
  159.478,1751.15 2640.76,1751.15 
  "/>
<polyline clip-path="url(#clip142)" style="stroke:#000000; stroke-linecap:round; stroke-linejoin:round; stroke-width:2; stroke-opacity:0.1; fill:none" points="
  159.478,1499.07 2640.76,1499.07 
  "/>
<polyline clip-path="url(#clip142)" style="stroke:#000000; stroke-linecap:round; stroke-linejoin:round; stroke-width:2; stroke-opacity:0.1; fill:none" points="
  159.478,1246.99 2640.76,1246.99 
  "/>
<polyline clip-path="url(#clip142)" style="stroke:#000000; stroke-linecap:round; stroke-linejoin:round; stroke-width:2; stroke-opacity:0.1; fill:none" points="
  159.478,994.909 2640.76,994.909 
  "/>
<polyline clip-path="url(#clip142)" style="stroke:#000000; stroke-linecap:round; stroke-linejoin:round; stroke-width:2; stroke-opacity:0.1; fill:none" points="
  159.478,742.829 2640.76,742.829 
  "/>
<polyline clip-path="url(#clip142)" style="stroke:#000000; stroke-linecap:round; stroke-linejoin:round; stroke-width:2; stroke-opacity:0.1; fill:none" points="
  159.478,490.748 2640.76,490.748 
  "/>
<polyline clip-path="url(#clip142)" style="stroke:#000000; stroke-linecap:round; stroke-linejoin:round; stroke-width:2; stroke-opacity:0.1; fill:none" points="
  159.478,238.668 2640.76,238.668 
  "/>
<polyline clip-path="url(#clip140)" style="stroke:#000000; stroke-linecap:round; stroke-linejoin:round; stroke-width:4; stroke-opacity:1; fill:none" points="
  159.478,1800.78 159.478,47.2441 
  "/>
<polyline clip-path="url(#clip140)" style="stroke:#000000; stroke-linecap:round; stroke-linejoin:round; stroke-width:4; stroke-opacity:1; fill:none" points="
  159.478,1751.15 178.376,1751.15 
  "/>
<polyline clip-path="url(#clip140)" style="stroke:#000000; stroke-linecap:round; stroke-linejoin:round; stroke-width:4; stroke-opacity:1; fill:none" points="
  159.478,1499.07 178.376,1499.07 
  "/>
<polyline clip-path="url(#clip140)" style="stroke:#000000; stroke-linecap:round; stroke-linejoin:round; stroke-width:4; stroke-opacity:1; fill:none" points="
  159.478,1246.99 178.376,1246.99 
  "/>
<polyline clip-path="url(#clip140)" style="stroke:#000000; stroke-linecap:round; stroke-linejoin:round; stroke-width:4; stroke-opacity:1; fill:none" points="
  159.478,994.909 178.376,994.909 
  "/>
<polyline clip-path="url(#clip140)" style="stroke:#000000; stroke-linecap:round; stroke-linejoin:round; stroke-width:4; stroke-opacity:1; fill:none" points="
  159.478,742.829 178.376,742.829 
  "/>
<polyline clip-path="url(#clip140)" style="stroke:#000000; stroke-linecap:round; stroke-linejoin:round; stroke-width:4; stroke-opacity:1; fill:none" points="
  159.478,490.748 178.376,490.748 
  "/>
<polyline clip-path="url(#clip140)" style="stroke:#000000; stroke-linecap:round; stroke-linejoin:round; stroke-width:4; stroke-opacity:1; fill:none" points="
  159.478,238.668 178.376,238.668 
  "/>
<path clip-path="url(#clip140)" d="M61.9826 1736.95 Q58.3715 1736.95 56.5428 1740.51 Q54.7373 1744.06 54.7373 1751.19 Q54.7373 1758.29 56.5428 1761.86 Q58.3715 1765.4 61.9826 1765.4 Q65.6169 1765.4 67.4224 1761.86 Q69.2511 1758.29 69.2511 1751.19 Q69.2511 1744.06 67.4224 1740.51 Q65.6169 1736.95 61.9826 1736.95 M61.9826 1733.25 Q67.7928 1733.25 70.8483 1737.85 Q73.927 1742.44 73.927 1751.19 Q73.927 1759.91 70.8483 1764.52 Q67.7928 1769.1 61.9826 1769.1 Q56.1725 1769.1 53.0938 1764.52 Q50.0382 1759.91 50.0382 1751.19 Q50.0382 1742.44 53.0938 1737.85 Q56.1725 1733.25 61.9826 1733.25 Z" fill="#000000" fill-rule="evenodd" fill-opacity="1" /><path clip-path="url(#clip140)" d="M82.1445 1762.55 L87.0288 1762.55 L87.0288 1768.43 L82.1445 1768.43 L82.1445 1762.55 Z" fill="#000000" fill-rule="evenodd" fill-opacity="1" /><path clip-path="url(#clip140)" d="M107.214 1736.95 Q103.603 1736.95 101.774 1740.51 Q99.9685 1744.06 99.9685 1751.19 Q99.9685 1758.29 101.774 1761.86 Q103.603 1765.4 107.214 1765.4 Q110.848 1765.4 112.654 1761.86 Q114.482 1758.29 114.482 1751.19 Q114.482 1744.06 112.654 1740.51 Q110.848 1736.95 107.214 1736.95 M107.214 1733.25 Q113.024 1733.25 116.08 1737.85 Q119.158 1742.44 119.158 1751.19 Q119.158 1759.91 116.08 1764.52 Q113.024 1769.1 107.214 1769.1 Q101.404 1769.1 98.325 1764.52 Q95.2695 1759.91 95.2695 1751.19 Q95.2695 1742.44 98.325 1737.85 Q101.404 1733.25 107.214 1733.25 Z" fill="#000000" fill-rule="evenodd" fill-opacity="1" /><path clip-path="url(#clip140)" d="M63.5798 1484.87 Q59.9687 1484.87 58.14 1488.43 Q56.3345 1491.98 56.3345 1499.11 Q56.3345 1506.21 58.14 1509.78 Q59.9687 1513.32 63.5798 1513.32 Q67.2141 1513.32 69.0196 1509.78 Q70.8483 1506.21 70.8483 1499.11 Q70.8483 1491.98 69.0196 1488.43 Q67.2141 1484.87 63.5798 1484.87 M63.5798 1481.17 Q69.39 1481.17 72.4455 1485.77 Q75.5242 1490.36 75.5242 1499.11 Q75.5242 1507.83 72.4455 1512.44 Q69.39 1517.02 63.5798 1517.02 Q57.7697 1517.02 54.691 1512.44 Q51.6354 1507.83 51.6354 1499.11 Q51.6354 1490.36 54.691 1485.77 Q57.7697 1481.17 63.5798 1481.17 Z" fill="#000000" fill-rule="evenodd" fill-opacity="1" /><path clip-path="url(#clip140)" d="M83.7418 1510.47 L88.626 1510.47 L88.626 1516.35 L83.7418 1516.35 L83.7418 1510.47 Z" fill="#000000" fill-rule="evenodd" fill-opacity="1" /><path clip-path="url(#clip140)" d="M102.839 1512.42 L119.158 1512.42 L119.158 1516.35 L97.2139 1516.35 L97.2139 1512.42 Q99.8759 1509.66 104.459 1505.03 Q109.066 1500.38 110.246 1499.04 Q112.492 1496.51 113.371 1494.78 Q114.274 1493.02 114.274 1491.33 Q114.274 1488.57 112.33 1486.84 Q110.408 1485.1 107.306 1485.1 Q105.107 1485.1 102.654 1485.86 Q100.223 1486.63 97.4454 1488.18 L97.4454 1483.46 Q100.269 1482.32 102.723 1481.74 Q105.177 1481.17 107.214 1481.17 Q112.584 1481.17 115.779 1483.85 Q118.973 1486.54 118.973 1491.03 Q118.973 1493.16 118.163 1495.08 Q117.376 1496.98 115.269 1499.57 Q114.691 1500.24 111.589 1503.46 Q108.487 1506.65 102.839 1512.42 Z" fill="#000000" fill-rule="evenodd" fill-opacity="1" /><path clip-path="url(#clip140)" d="M61.4965 1232.79 Q57.8854 1232.79 56.0567 1236.35 Q54.2512 1239.9 54.2512 1247.02 Q54.2512 1254.13 56.0567 1257.7 Q57.8854 1261.24 61.4965 1261.24 Q65.1307 1261.24 66.9363 1257.7 Q68.765 1254.13 68.765 1247.02 Q68.765 1239.9 66.9363 1236.35 Q65.1307 1232.79 61.4965 1232.79 M61.4965 1229.08 Q67.3067 1229.08 70.3622 1233.69 Q73.4409 1238.27 73.4409 1247.02 Q73.4409 1255.75 70.3622 1260.36 Q67.3067 1264.94 61.4965 1264.94 Q55.6864 1264.94 52.6077 1260.36 Q49.5521 1255.75 49.5521 1247.02 Q49.5521 1238.27 52.6077 1233.69 Q55.6864 1229.08 61.4965 1229.08 Z" fill="#000000" fill-rule="evenodd" fill-opacity="1" /><path clip-path="url(#clip140)" d="M81.6584 1258.39 L86.5427 1258.39 L86.5427 1264.27 L81.6584 1264.27 L81.6584 1258.39 Z" fill="#000000" fill-rule="evenodd" fill-opacity="1" /><path clip-path="url(#clip140)" d="M109.575 1233.78 L97.7695 1252.23 L109.575 1252.23 L109.575 1233.78 M108.348 1229.71 L114.228 1229.71 L114.228 1252.23 L119.158 1252.23 L119.158 1256.12 L114.228 1256.12 L114.228 1264.27 L109.575 1264.27 L109.575 1256.12 L93.9732 1256.12 L93.9732 1251.61 L108.348 1229.71 Z" fill="#000000" fill-rule="evenodd" fill-opacity="1" /><path clip-path="url(#clip140)" d="M61.8206 980.708 Q58.2095 980.708 56.3808 984.273 Q54.5752 987.814 54.5752 994.944 Q54.5752 1002.05 56.3808 1005.62 Q58.2095 1009.16 61.8206 1009.16 Q65.4548 1009.16 67.2604 1005.62 Q69.0891 1002.05 69.0891 994.944 Q69.0891 987.814 67.2604 984.273 Q65.4548 980.708 61.8206 980.708 M61.8206 977.004 Q67.6307 977.004 70.6863 981.611 Q73.765 986.194 73.765 994.944 Q73.765 1003.67 70.6863 1008.28 Q67.6307 1012.86 61.8206 1012.86 Q56.0104 1012.86 52.9317 1008.28 Q49.8762 1003.67 49.8762 994.944 Q49.8762 986.194 52.9317 981.611 Q56.0104 977.004 61.8206 977.004 Z" fill="#000000" fill-rule="evenodd" fill-opacity="1" /><path clip-path="url(#clip140)" d="M81.9825 1006.31 L86.8667 1006.31 L86.8667 1012.19 L81.9825 1012.19 L81.9825 1006.31 Z" fill="#000000" fill-rule="evenodd" fill-opacity="1" /><path clip-path="url(#clip140)" d="M107.631 993.046 Q104.482 993.046 102.631 995.199 Q100.802 997.351 100.802 1001.1 Q100.802 1004.83 102.631 1007 Q104.482 1009.16 107.631 1009.16 Q110.779 1009.16 112.607 1007 Q114.459 1004.83 114.459 1001.1 Q114.459 997.351 112.607 995.199 Q110.779 993.046 107.631 993.046 M116.913 978.393 L116.913 982.652 Q115.154 981.819 113.348 981.379 Q111.566 980.94 109.806 980.94 Q105.177 980.94 102.723 984.064 Q100.293 987.189 99.9454 993.509 Q101.311 991.495 103.371 990.43 Q105.431 989.342 107.908 989.342 Q113.117 989.342 116.126 992.514 Q119.158 995.662 119.158 1001.1 Q119.158 1006.43 116.01 1009.64 Q112.862 1012.86 107.631 1012.86 Q101.635 1012.86 98.4639 1008.28 Q95.2926 1003.67 95.2926 994.944 Q95.2926 986.75 99.1815 981.889 Q103.07 977.004 109.621 977.004 Q111.38 977.004 113.163 977.352 Q114.968 977.699 116.913 978.393 Z" fill="#000000" fill-rule="evenodd" fill-opacity="1" /><path clip-path="url(#clip140)" d="M62.0752 728.628 Q58.4641 728.628 56.6354 732.192 Q54.8299 735.734 54.8299 742.864 Q54.8299 749.97 56.6354 753.535 Q58.4641 757.076 62.0752 757.076 Q65.7094 757.076 67.515 753.535 Q69.3437 749.97 69.3437 742.864 Q69.3437 735.734 67.515 732.192 Q65.7094 728.628 62.0752 728.628 M62.0752 724.924 Q67.8854 724.924 70.9409 729.53 Q74.0196 734.114 74.0196 742.864 Q74.0196 751.59 70.9409 756.197 Q67.8854 760.78 62.0752 760.78 Q56.2651 760.78 53.1864 756.197 Q50.1308 751.59 50.1308 742.864 Q50.1308 734.114 53.1864 729.53 Q56.2651 724.924 62.0752 724.924 Z" fill="#000000" fill-rule="evenodd" fill-opacity="1" /><path clip-path="url(#clip140)" d="M82.2371 754.229 L87.1214 754.229 L87.1214 760.109 L82.2371 760.109 L82.2371 754.229 Z" fill="#000000" fill-rule="evenodd" fill-opacity="1" /><path clip-path="url(#clip140)" d="M107.306 743.697 Q103.973 743.697 102.052 745.479 Q100.154 747.262 100.154 750.387 Q100.154 753.512 102.052 755.294 Q103.973 757.076 107.306 757.076 Q110.64 757.076 112.561 755.294 Q114.482 753.488 114.482 750.387 Q114.482 747.262 112.561 745.479 Q110.663 743.697 107.306 743.697 M102.631 741.706 Q99.6213 740.965 97.9315 738.905 Q96.2648 736.845 96.2648 733.882 Q96.2648 729.739 99.2046 727.331 Q102.168 724.924 107.306 724.924 Q112.468 724.924 115.408 727.331 Q118.348 729.739 118.348 733.882 Q118.348 736.845 116.658 738.905 Q114.992 740.965 112.005 741.706 Q115.385 742.493 117.26 744.785 Q119.158 747.076 119.158 750.387 Q119.158 755.41 116.08 758.095 Q113.024 760.78 107.306 760.78 Q101.589 760.78 98.5102 758.095 Q95.4547 755.41 95.4547 750.387 Q95.4547 747.076 97.3528 744.785 Q99.2509 742.493 102.631 741.706 M100.918 734.322 Q100.918 737.007 102.584 738.512 Q104.274 740.016 107.306 740.016 Q110.316 740.016 112.005 738.512 Q113.718 737.007 113.718 734.322 Q113.718 731.637 112.005 730.132 Q110.316 728.628 107.306 728.628 Q104.274 728.628 102.584 730.132 Q100.918 731.637 100.918 734.322 Z" fill="#000000" fill-rule="evenodd" fill-opacity="1" /><path clip-path="url(#clip140)" d="M52.7928 504.093 L60.4317 504.093 L60.4317 477.728 L52.1216 479.394 L52.1216 475.135 L60.3854 473.468 L65.0613 473.468 L65.0613 504.093 L72.7002 504.093 L72.7002 508.028 L52.7928 508.028 L52.7928 504.093 Z" fill="#000000" fill-rule="evenodd" fill-opacity="1" /><path clip-path="url(#clip140)" d="M82.1445 502.149 L87.0288 502.149 L87.0288 508.028 L82.1445 508.028 L82.1445 502.149 Z" fill="#000000" fill-rule="evenodd" fill-opacity="1" /><path clip-path="url(#clip140)" d="M107.214 476.547 Q103.603 476.547 101.774 480.112 Q99.9685 483.653 99.9685 490.783 Q99.9685 497.889 101.774 501.454 Q103.603 504.996 107.214 504.996 Q110.848 504.996 112.654 501.454 Q114.482 497.889 114.482 490.783 Q114.482 483.653 112.654 480.112 Q110.848 476.547 107.214 476.547 M107.214 472.843 Q113.024 472.843 116.08 477.45 Q119.158 482.033 119.158 490.783 Q119.158 499.51 116.08 504.116 Q113.024 508.7 107.214 508.7 Q101.404 508.7 98.325 504.116 Q95.2695 499.51 95.2695 490.783 Q95.2695 482.033 98.325 477.45 Q101.404 472.843 107.214 472.843 Z" fill="#000000" fill-rule="evenodd" fill-opacity="1" /><path clip-path="url(#clip140)" d="M54.3901 252.013 L62.0289 252.013 L62.0289 225.647 L53.7188 227.314 L53.7188 223.054 L61.9826 221.388 L66.6585 221.388 L66.6585 252.013 L74.2974 252.013 L74.2974 255.948 L54.3901 255.948 L54.3901 252.013 Z" fill="#000000" fill-rule="evenodd" fill-opacity="1" /><path clip-path="url(#clip140)" d="M83.7418 250.068 L88.626 250.068 L88.626 255.948 L83.7418 255.948 L83.7418 250.068 Z" fill="#000000" fill-rule="evenodd" fill-opacity="1" /><path clip-path="url(#clip140)" d="M102.839 252.013 L119.158 252.013 L119.158 255.948 L97.2139 255.948 L97.2139 252.013 Q99.8759 249.258 104.459 244.628 Q109.066 239.976 110.246 238.633 Q112.492 236.11 113.371 234.374 Q114.274 232.615 114.274 230.925 Q114.274 228.17 112.33 226.434 Q110.408 224.698 107.306 224.698 Q105.107 224.698 102.654 225.462 Q100.223 226.226 97.4454 227.777 L97.4454 223.054 Q100.269 221.92 102.723 221.341 Q105.177 220.763 107.214 220.763 Q112.584 220.763 115.779 223.448 Q118.973 226.133 118.973 230.624 Q118.973 232.753 118.163 234.675 Q117.376 236.573 115.269 239.165 Q114.691 239.837 111.589 243.054 Q108.487 246.249 102.839 252.013 Z" fill="#000000" fill-rule="evenodd" fill-opacity="1" /><polyline clip-path="url(#clip142)" style="stroke:#009af9; stroke-linecap:round; stroke-linejoin:round; stroke-width:4; stroke-opacity:1; fill:none" points="
  229.703,1357.28 253.111,1363.76 276.52,1370.62 299.928,1377.81 323.336,1385.34 346.744,1393.19 370.153,1401.33 393.561,1409.76 416.969,1418.45 440.378,1427.39 
  463.786,1436.55 487.194,1445.93 510.602,1455.51 534.011,1465.25 557.419,1475.16 580.827,1485.2 604.236,1495.36 627.644,1505.61 651.052,1515.94 674.46,1526.33 
  697.869,1536.76 721.277,1547.2 744.685,1557.63 768.094,1568.04 791.502,1578.39 814.91,1588.68 838.318,1598.87 861.727,1608.94 885.135,1618.87 908.543,1628.64 
  931.951,1638.22 955.36,1647.59 978.768,1656.72 1002.18,1665.59 1025.58,1674.18 1048.99,1682.45 1072.4,1690.39 1095.81,1697.96 1119.22,1705.15 1142.63,1711.92 
  1166.03,1718.25 1189.44,1724.12 1212.85,1729.48 1236.26,1734.32 1259.67,1738.61 1283.08,1742.32 1306.48,1745.42 1329.89,1747.88 1353.3,1749.68 1376.71,1750.78 
  1400.12,1751.15 1423.53,1750.77 1446.93,1749.6 1470.34,1747.61 1493.75,1744.78 1517.16,1741.06 1540.57,1736.43 1563.98,1730.86 1587.38,1724.32 1610.79,1716.77 
  1634.2,1708.17 1657.61,1698.5 1681.02,1687.73 1704.42,1675.81 1727.83,1662.72 1751.24,1648.42 1774.65,1632.88 1798.06,1616.05 1821.47,1597.91 1844.87,1578.43 
  1868.28,1557.55 1891.69,1535.26 1915.1,1511.5 1938.51,1486.26 1961.92,1459.48 1985.32,1431.13 2008.73,1401.17 2032.14,1369.57 2055.55,1336.28 2078.96,1301.28 
  2102.37,1264.51 2125.77,1225.94 2149.18,1185.54 2172.59,1143.25 2196,1099.04 2219.41,1052.88 2242.82,1004.72 2266.22,954.509 2289.63,902.22 2313.04,847.807 
  2336.45,791.228 2359.86,732.441 2383.26,671.403 2406.67,608.072 2430.08,542.403 2453.49,474.355 2476.9,403.883 2500.31,330.943 2523.71,255.491 2547.12,177.483 
  2570.53,96.8724 
  "/>
</svg>
