<?xml version="1.0" encoding="utf-8"?>
<svg xmlns="http://www.w3.org/2000/svg" xmlns:xlink="http://www.w3.org/1999/xlink" width="672" height="480" viewBox="0 0 2688 1920">
<defs>
  <clipPath id="clip510">
    <rect x="0" y="0" width="2688" height="1920"/>
  </clipPath>
</defs>
<path clip-path="url(#clip510)" d="
M0 1920 L2688 1920 L2688 0 L0 0  Z
  " fill="#ffffff" fill-rule="evenodd" fill-opacity="1"/>
<defs>
  <clipPath id="clip511">
    <rect x="537" y="0" width="1883" height="1883"/>
  </clipPath>
</defs>
<defs>
  <clipPath id="clip512">
    <rect x="189" y="47" width="2453" height="1755"/>
  </clipPath>
</defs>
<path clip-path="url(#clip512)" d="
M-5547.4 6669.41 L-6650.56 2570.64 L-1414.65 -1678.59 L3159.42 3493.72 L2014.15 7446.61 L-2162.2 11952.7 L-5547.4 6669.41  Z
  " fill="#ffffff" fill-rule="evenodd" fill-opacity="1"/>
<polyline clip-path="url(#clip512)" style="stroke:#000000; stroke-linecap:butt; stroke-linejoin:round; stroke-width:2; stroke-opacity:0.1; fill:none" points="
  869.343,1163.81 1525.79,699.105 
  "/>
<polyline clip-path="url(#clip512)" style="stroke:#000000; stroke-linecap:butt; stroke-linejoin:round; stroke-width:2; stroke-opacity:0.1; fill:none" points="
  1525.79,699.105 1555.61,130.435 
  "/>
<polyline clip-path="url(#clip512)" style="stroke:#000000; stroke-linecap:butt; stroke-linejoin:round; stroke-width:2; stroke-opacity:0.1; fill:none" points="
  948.575,1258.45 1608.38,779.338 
  "/>
<polyline clip-path="url(#clip512)" style="stroke:#000000; stroke-linecap:butt; stroke-linejoin:round; stroke-width:2; stroke-opacity:0.1; fill:none" points="
  1608.38,779.338 1661.39,221.975 
  "/>
<polyline clip-path="url(#clip512)" style="stroke:#000000; stroke-linecap:butt; stroke-linejoin:round; stroke-width:2; stroke-opacity:0.1; fill:none" points="
  1030.39,1356.17 1693.44,861.972 
  "/>
<polyline clip-path="url(#clip512)" style="stroke:#000000; stroke-linecap:butt; stroke-linejoin:round; stroke-width:2; stroke-opacity:0.1; fill:none" points="
  1693.44,861.972 1771.21,317.019 
  "/>
<polyline clip-path="url(#clip512)" style="stroke:#000000; stroke-linecap:butt; stroke-linejoin:round; stroke-width:2; stroke-opacity:0.1; fill:none" points="
  1114.91,1457.12 1781.08,947.117 
  "/>
<polyline clip-path="url(#clip512)" style="stroke:#000000; stroke-linecap:butt; stroke-linejoin:round; stroke-width:2; stroke-opacity:0.1; fill:none" points="
  1781.08,947.117 1885.32,415.773 
  "/>
<polyline clip-path="url(#clip512)" style="stroke:#000000; stroke-linecap:butt; stroke-linejoin:round; stroke-width:2; stroke-opacity:0.1; fill:none" points="
  1202.27,1561.48 1871.42,1034.89 
  "/>
<polyline clip-path="url(#clip512)" style="stroke:#000000; stroke-linecap:butt; stroke-linejoin:round; stroke-width:2; stroke-opacity:0.1; fill:none" points="
  1871.42,1034.89 2003.98,518.457 
  "/>
<polyline clip-path="url(#clip512)" style="stroke:#000000; stroke-linecap:butt; stroke-linejoin:round; stroke-width:2; stroke-opacity:0.1; fill:none" points="
  1292.63,1669.4 1964.59,1125.41 
  "/>
<polyline clip-path="url(#clip512)" style="stroke:#000000; stroke-linecap:butt; stroke-linejoin:round; stroke-width:2; stroke-opacity:0.1; fill:none" points="
  1964.59,1125.41 2127.45,625.313 
  "/>
<polyline clip-path="url(#clip510)" style="stroke:#000000; stroke-linecap:butt; stroke-linejoin:round; stroke-width:4; stroke-opacity:1; fill:none" points="
  809.964,1092.89 1356.11,1745.22 
  "/>
<polyline clip-path="url(#clip510)" style="stroke:#000000; stroke-linecap:butt; stroke-linejoin:round; stroke-width:4; stroke-opacity:1; fill:none" points="
  869.343,1163.81 877.884,1157.76 
  "/>
<polyline clip-path="url(#clip510)" style="stroke:#000000; stroke-linecap:butt; stroke-linejoin:round; stroke-width:4; stroke-opacity:1; fill:none" points="
  948.575,1258.45 957.171,1252.21 
  "/>
<polyline clip-path="url(#clip510)" style="stroke:#000000; stroke-linecap:butt; stroke-linejoin:round; stroke-width:4; stroke-opacity:1; fill:none" points="
  1030.39,1356.17 1039.04,1349.72 
  "/>
<polyline clip-path="url(#clip510)" style="stroke:#000000; stroke-linecap:butt; stroke-linejoin:round; stroke-width:4; stroke-opacity:1; fill:none" points="
  1114.91,1457.12 1123.61,1450.46 
  "/>
<polyline clip-path="url(#clip510)" style="stroke:#000000; stroke-linecap:butt; stroke-linejoin:round; stroke-width:4; stroke-opacity:1; fill:none" points="
  1202.27,1561.48 1211.03,1554.59 
  "/>
<polyline clip-path="url(#clip510)" style="stroke:#000000; stroke-linecap:butt; stroke-linejoin:round; stroke-width:4; stroke-opacity:1; fill:none" points="
  1292.63,1669.4 1301.43,1662.28 
  "/>
<path clip-path="url(#clip510)" d="M754.846 1167.01 Q751.235 1167.01 749.406 1170.58 Q747.601 1174.12 747.601 1181.25 Q747.601 1188.35 749.406 1191.92 Q751.235 1195.46 754.846 1195.46 Q758.48 1195.46 760.286 1191.92 Q762.115 1188.35 762.115 1181.25 Q762.115 1174.12 760.286 1170.58 Q758.48 1167.01 754.846 1167.01 M754.846 1163.31 Q760.656 1163.31 763.712 1167.91 Q766.791 1172.5 766.791 1181.25 Q766.791 1189.97 763.712 1194.58 Q760.656 1199.16 754.846 1199.16 Q749.036 1199.16 745.957 1194.58 Q742.902 1189.97 742.902 1181.25 Q742.902 1172.5 745.957 1167.91 Q749.036 1163.31 754.846 1163.31 Z" fill="#000000" fill-rule="evenodd" fill-opacity="1" /><path clip-path="url(#clip510)" d="M775.008 1192.61 L779.892 1192.61 L779.892 1198.49 L775.008 1198.49 L775.008 1192.61 Z" fill="#000000" fill-rule="evenodd" fill-opacity="1" /><path clip-path="url(#clip510)" d="M804.244 1179.86 Q807.6 1180.58 809.475 1182.84 Q811.374 1185.11 811.374 1188.45 Q811.374 1193.56 807.855 1196.36 Q804.337 1199.16 797.855 1199.16 Q795.679 1199.16 793.364 1198.72 Q791.073 1198.31 788.619 1197.45 L788.619 1192.94 Q790.564 1194.07 792.878 1194.65 Q795.193 1195.23 797.716 1195.23 Q802.114 1195.23 804.406 1193.49 Q806.721 1191.76 806.721 1188.45 Q806.721 1185.39 804.568 1183.68 Q802.438 1181.94 798.619 1181.94 L794.591 1181.94 L794.591 1178.1 L798.804 1178.1 Q802.253 1178.1 804.082 1176.73 Q805.911 1175.34 805.911 1172.75 Q805.911 1170.09 804.013 1168.68 Q802.138 1167.24 798.619 1167.24 Q796.698 1167.24 794.499 1167.66 Q792.3 1168.08 789.661 1168.96 L789.661 1164.79 Q792.323 1164.05 794.638 1163.68 Q796.976 1163.31 799.036 1163.31 Q804.36 1163.31 807.462 1165.74 Q810.563 1168.15 810.563 1172.27 Q810.563 1175.14 808.92 1177.13 Q807.276 1179.09 804.244 1179.86 Z" fill="#000000" fill-rule="evenodd" fill-opacity="1" /><path clip-path="url(#clip510)" d="M830.239 1167.01 Q826.628 1167.01 824.799 1170.58 Q822.994 1174.12 822.994 1181.25 Q822.994 1188.35 824.799 1191.92 Q826.628 1195.46 830.239 1195.46 Q833.874 1195.46 835.679 1191.92 Q837.508 1188.35 837.508 1181.25 Q837.508 1174.12 835.679 1170.58 Q833.874 1167.01 830.239 1167.01 M830.239 1163.31 Q836.049 1163.31 839.105 1167.91 Q842.184 1172.5 842.184 1181.25 Q842.184 1189.97 839.105 1194.58 Q836.049 1199.16 830.239 1199.16 Q824.429 1199.16 821.35 1194.58 Q818.295 1189.97 818.295 1181.25 Q818.295 1172.5 821.35 1167.91 Q824.429 1163.31 830.239 1163.31 Z" fill="#000000" fill-rule="evenodd" fill-opacity="1" /><path clip-path="url(#clip510)" d="M835.074 1261.65 Q831.463 1261.65 829.634 1265.21 Q827.829 1268.76 827.829 1275.89 Q827.829 1282.99 829.634 1286.56 Q831.463 1290.1 835.074 1290.1 Q838.708 1290.1 840.514 1286.56 Q842.342 1282.99 842.342 1275.89 Q842.342 1268.76 840.514 1265.21 Q838.708 1261.65 835.074 1261.65 M835.074 1257.95 Q840.884 1257.95 843.94 1262.55 Q847.018 1267.14 847.018 1275.89 Q847.018 1284.61 843.94 1289.22 Q840.884 1293.8 835.074 1293.8 Q829.264 1293.8 826.185 1289.22 Q823.13 1284.61 823.13 1275.89 Q823.13 1267.14 826.185 1262.55 Q829.264 1257.95 835.074 1257.95 Z" fill="#000000" fill-rule="evenodd" fill-opacity="1" /><path clip-path="url(#clip510)" d="M855.236 1287.25 L860.12 1287.25 L860.12 1293.13 L855.236 1293.13 L855.236 1287.25 Z" fill="#000000" fill-rule="evenodd" fill-opacity="1" /><path clip-path="url(#clip510)" d="M884.472 1274.5 Q887.828 1275.21 889.703 1277.48 Q891.601 1279.75 891.601 1283.08 Q891.601 1288.2 888.083 1291 Q884.564 1293.8 878.083 1293.8 Q875.907 1293.8 873.592 1293.36 Q871.301 1292.95 868.847 1292.09 L868.847 1287.57 Q870.791 1288.71 873.106 1289.29 Q875.421 1289.87 877.944 1289.87 Q882.342 1289.87 884.634 1288.13 Q886.949 1286.39 886.949 1283.08 Q886.949 1280.03 884.796 1278.32 Q882.666 1276.58 878.847 1276.58 L874.819 1276.58 L874.819 1272.74 L879.032 1272.74 Q882.481 1272.74 884.31 1271.37 Q886.139 1269.98 886.139 1267.39 Q886.139 1264.73 884.24 1263.32 Q882.365 1261.88 878.847 1261.88 Q876.926 1261.88 874.727 1262.3 Q872.528 1262.71 869.889 1263.59 L869.889 1259.43 Q872.551 1258.69 874.865 1258.32 Q877.203 1257.95 879.264 1257.95 Q884.588 1257.95 887.689 1260.38 Q890.791 1262.78 890.791 1266.9 Q890.791 1269.77 889.148 1271.76 Q887.504 1273.73 884.472 1274.5 Z" fill="#000000" fill-rule="evenodd" fill-opacity="1" /><path clip-path="url(#clip510)" d="M900.513 1258.57 L918.87 1258.57 L918.87 1262.51 L904.796 1262.51 L904.796 1270.98 Q905.814 1270.63 906.833 1270.47 Q907.851 1270.28 908.87 1270.28 Q914.657 1270.28 918.037 1273.45 Q921.416 1276.63 921.416 1282.04 Q921.416 1287.62 917.944 1290.72 Q914.472 1293.8 908.152 1293.8 Q905.976 1293.8 903.708 1293.43 Q901.463 1293.06 899.055 1292.32 L899.055 1287.62 Q901.138 1288.76 903.361 1289.31 Q905.583 1289.87 908.06 1289.87 Q912.064 1289.87 914.402 1287.76 Q916.74 1285.65 916.74 1282.04 Q916.74 1278.43 914.402 1276.32 Q912.064 1274.22 908.06 1274.22 Q906.185 1274.22 904.31 1274.64 Q902.458 1275.05 900.513 1275.93 L900.513 1258.57 Z" fill="#000000" fill-rule="evenodd" fill-opacity="1" /><path clip-path="url(#clip510)" d="M915.891 1359.37 Q912.28 1359.37 910.451 1362.93 Q908.646 1366.48 908.646 1373.6 Q908.646 1380.71 910.451 1384.28 Q912.28 1387.82 915.891 1387.82 Q919.525 1387.82 921.331 1384.28 Q923.16 1380.71 923.16 1373.6 Q923.16 1366.48 921.331 1362.93 Q919.525 1359.37 915.891 1359.37 M915.891 1355.67 Q921.701 1355.67 924.757 1360.27 Q927.836 1364.86 927.836 1373.6 Q927.836 1382.33 924.757 1386.94 Q921.701 1391.52 915.891 1391.52 Q910.081 1391.52 907.002 1386.94 Q903.947 1382.33 903.947 1373.6 Q903.947 1364.86 907.002 1360.27 Q910.081 1355.67 915.891 1355.67 Z" fill="#000000" fill-rule="evenodd" fill-opacity="1" /><path clip-path="url(#clip510)" d="M936.053 1384.97 L940.937 1384.97 L940.937 1390.85 L936.053 1390.85 L936.053 1384.97 Z" fill="#000000" fill-rule="evenodd" fill-opacity="1" /><path clip-path="url(#clip510)" d="M963.97 1360.36 L952.164 1378.81 L963.97 1378.81 L963.97 1360.36 M962.743 1356.29 L968.622 1356.29 L968.622 1378.81 L973.553 1378.81 L973.553 1382.7 L968.622 1382.7 L968.622 1390.85 L963.97 1390.85 L963.97 1382.7 L948.368 1382.7 L948.368 1378.19 L962.743 1356.29 Z" fill="#000000" fill-rule="evenodd" fill-opacity="1" /><path clip-path="url(#clip510)" d="M991.284 1359.37 Q987.673 1359.37 985.845 1362.93 Q984.039 1366.48 984.039 1373.6 Q984.039 1380.71 985.845 1384.28 Q987.673 1387.82 991.284 1387.82 Q994.919 1387.82 996.724 1384.28 Q998.553 1380.71 998.553 1373.6 Q998.553 1366.48 996.724 1362.93 Q994.919 1359.37 991.284 1359.37 M991.284 1355.67 Q997.094 1355.67 1000.15 1360.27 Q1003.23 1364.86 1003.23 1373.6 Q1003.23 1382.33 1000.15 1386.94 Q997.094 1391.52 991.284 1391.52 Q985.474 1391.52 982.395 1386.94 Q979.34 1382.33 979.34 1373.6 Q979.34 1364.86 982.395 1360.27 Q985.474 1355.67 991.284 1355.67 Z" fill="#000000" fill-rule="evenodd" fill-opacity="1" /><path clip-path="url(#clip510)" d="M1001.41 1460.32 Q997.796 1460.32 995.967 1463.89 Q994.162 1467.43 994.162 1474.56 Q994.162 1481.67 995.967 1485.23 Q997.796 1488.77 1001.41 1488.77 Q1005.04 1488.77 1006.85 1485.23 Q1008.68 1481.67 1008.68 1474.56 Q1008.68 1467.43 1006.85 1463.89 Q1005.04 1460.32 1001.41 1460.32 M1001.41 1456.62 Q1007.22 1456.62 1010.27 1461.23 Q1013.35 1465.81 1013.35 1474.56 Q1013.35 1483.29 1010.27 1487.89 Q1007.22 1492.48 1001.41 1492.48 Q995.597 1492.48 992.518 1487.89 Q989.463 1483.29 989.463 1474.56 Q989.463 1465.81 992.518 1461.23 Q995.597 1456.62 1001.41 1456.62 Z" fill="#000000" fill-rule="evenodd" fill-opacity="1" /><path clip-path="url(#clip510)" d="M1021.57 1485.93 L1026.45 1485.93 L1026.45 1491.8 L1021.57 1491.8 L1021.57 1485.93 Z" fill="#000000" fill-rule="evenodd" fill-opacity="1" /><path clip-path="url(#clip510)" d="M1049.49 1461.32 L1037.68 1479.77 L1049.49 1479.77 L1049.49 1461.32 M1048.26 1457.24 L1054.14 1457.24 L1054.14 1479.77 L1059.07 1479.77 L1059.07 1483.66 L1054.14 1483.66 L1054.14 1491.8 L1049.49 1491.8 L1049.49 1483.66 L1033.88 1483.66 L1033.88 1479.14 L1048.26 1457.24 Z" fill="#000000" fill-rule="evenodd" fill-opacity="1" /><path clip-path="url(#clip510)" d="M1066.85 1457.24 L1085.2 1457.24 L1085.2 1461.18 L1071.13 1461.18 L1071.13 1469.65 Q1072.15 1469.3 1073.17 1469.14 Q1074.18 1468.96 1075.2 1468.96 Q1080.99 1468.96 1084.37 1472.13 Q1087.75 1475.3 1087.75 1480.72 Q1087.75 1486.3 1084.28 1489.4 Q1080.8 1492.48 1074.49 1492.48 Q1072.31 1492.48 1070.04 1492.11 Q1067.8 1491.74 1065.39 1490.99 L1065.39 1486.3 Q1067.47 1487.43 1069.69 1487.99 Q1071.92 1488.54 1074.39 1488.54 Q1078.4 1488.54 1080.74 1486.43 Q1083.07 1484.33 1083.07 1480.72 Q1083.07 1477.11 1080.74 1475 Q1078.4 1472.89 1074.39 1472.89 Q1072.52 1472.89 1070.64 1473.31 Q1068.79 1473.73 1066.85 1474.61 L1066.85 1457.24 Z" fill="#000000" fill-rule="evenodd" fill-opacity="1" /><path clip-path="url(#clip510)" d="M1087.78 1564.68 Q1084.17 1564.68 1082.34 1568.24 Q1080.53 1571.78 1080.53 1578.91 Q1080.53 1586.02 1082.34 1589.58 Q1084.17 1593.12 1087.78 1593.12 Q1091.41 1593.12 1093.22 1589.58 Q1095.05 1586.02 1095.05 1578.91 Q1095.05 1571.78 1093.22 1568.24 Q1091.41 1564.68 1087.78 1564.68 M1087.78 1560.97 Q1093.59 1560.97 1096.64 1565.58 Q1099.72 1570.16 1099.72 1578.91 Q1099.72 1587.64 1096.64 1592.25 Q1093.59 1596.83 1087.78 1596.83 Q1081.97 1596.83 1078.89 1592.25 Q1075.83 1587.64 1075.83 1578.91 Q1075.83 1570.16 1078.89 1565.58 Q1081.97 1560.97 1087.78 1560.97 Z" fill="#000000" fill-rule="evenodd" fill-opacity="1" /><path clip-path="url(#clip510)" d="M1107.94 1590.28 L1112.82 1590.28 L1112.82 1596.16 L1107.94 1596.16 L1107.94 1590.28 Z" fill="#000000" fill-rule="evenodd" fill-opacity="1" /><path clip-path="url(#clip510)" d="M1123.05 1561.6 L1141.41 1561.6 L1141.41 1565.53 L1127.34 1565.53 L1127.34 1574 Q1128.36 1573.66 1129.37 1573.5 Q1130.39 1573.31 1131.41 1573.31 Q1137.2 1573.31 1140.58 1576.48 Q1143.96 1579.65 1143.96 1585.07 Q1143.96 1590.65 1140.49 1593.75 Q1137.01 1596.83 1130.69 1596.83 Q1128.52 1596.83 1126.25 1596.46 Q1124 1596.09 1121.6 1595.35 L1121.6 1590.65 Q1123.68 1591.78 1125.9 1592.34 Q1128.12 1592.89 1130.6 1592.89 Q1134.61 1592.89 1136.94 1590.79 Q1139.28 1588.68 1139.28 1585.07 Q1139.28 1581.46 1136.94 1579.35 Q1134.61 1577.25 1130.6 1577.25 Q1128.73 1577.25 1126.85 1577.66 Q1125 1578.08 1123.05 1578.96 L1123.05 1561.6 Z" fill="#000000" fill-rule="evenodd" fill-opacity="1" /><path clip-path="url(#clip510)" d="M1163.17 1564.68 Q1159.56 1564.68 1157.73 1568.24 Q1155.93 1571.78 1155.93 1578.91 Q1155.93 1586.02 1157.73 1589.58 Q1159.56 1593.12 1163.17 1593.12 Q1166.8 1593.12 1168.61 1589.58 Q1170.44 1586.02 1170.44 1578.91 Q1170.44 1571.78 1168.61 1568.24 Q1166.8 1564.68 1163.17 1564.68 M1163.17 1560.97 Q1168.98 1560.97 1172.04 1565.58 Q1175.11 1570.16 1175.11 1578.91 Q1175.11 1587.64 1172.04 1592.25 Q1168.98 1596.83 1163.17 1596.83 Q1157.36 1596.83 1154.28 1592.25 Q1151.23 1587.64 1151.23 1578.91 Q1151.23 1570.16 1154.28 1565.58 Q1157.36 1560.97 1163.17 1560.97 Z" fill="#000000" fill-rule="evenodd" fill-opacity="1" /><path clip-path="url(#clip510)" d="M1179.13 1672.6 Q1175.52 1672.6 1173.69 1676.17 Q1171.88 1679.71 1171.88 1686.84 Q1171.88 1693.94 1173.69 1697.51 Q1175.52 1701.05 1179.13 1701.05 Q1182.76 1701.05 1184.57 1697.51 Q1186.4 1693.94 1186.4 1686.84 Q1186.4 1679.71 1184.57 1676.17 Q1182.76 1672.6 1179.13 1672.6 M1179.13 1668.9 Q1184.94 1668.9 1187.99 1673.5 Q1191.07 1678.09 1191.07 1686.84 Q1191.07 1695.56 1187.99 1700.17 Q1184.94 1704.75 1179.13 1704.75 Q1173.32 1704.75 1170.24 1700.17 Q1167.18 1695.56 1167.18 1686.84 Q1167.18 1678.09 1170.24 1673.5 Q1173.32 1668.9 1179.13 1668.9 Z" fill="#000000" fill-rule="evenodd" fill-opacity="1" /><path clip-path="url(#clip510)" d="M1199.29 1698.2 L1204.18 1698.2 L1204.18 1704.08 L1199.29 1704.08 L1199.29 1698.2 Z" fill="#000000" fill-rule="evenodd" fill-opacity="1" /><path clip-path="url(#clip510)" d="M1214.41 1669.52 L1232.76 1669.52 L1232.76 1673.46 L1218.69 1673.46 L1218.69 1681.93 Q1219.71 1681.58 1220.73 1681.42 Q1221.74 1681.24 1222.76 1681.24 Q1228.55 1681.24 1231.93 1684.41 Q1235.31 1687.58 1235.31 1692.99 Q1235.31 1698.57 1231.84 1701.67 Q1228.36 1704.75 1222.05 1704.75 Q1219.87 1704.75 1217.6 1704.38 Q1215.36 1704.01 1212.95 1703.27 L1212.95 1698.57 Q1215.03 1699.71 1217.25 1700.26 Q1219.48 1700.82 1221.95 1700.82 Q1225.96 1700.82 1228.3 1698.71 Q1230.63 1696.61 1230.63 1692.99 Q1230.63 1689.38 1228.3 1687.28 Q1225.96 1685.17 1221.95 1685.17 Q1220.08 1685.17 1218.2 1685.59 Q1216.35 1686 1214.41 1686.88 L1214.41 1669.52 Z" fill="#000000" fill-rule="evenodd" fill-opacity="1" /><path clip-path="url(#clip510)" d="M1244.57 1669.52 L1262.92 1669.52 L1262.92 1673.46 L1248.85 1673.46 L1248.85 1681.93 Q1249.87 1681.58 1250.89 1681.42 Q1251.91 1681.24 1252.93 1681.24 Q1258.71 1681.24 1262.09 1684.41 Q1265.47 1687.58 1265.47 1692.99 Q1265.47 1698.57 1262 1701.67 Q1258.53 1704.75 1252.21 1704.75 Q1250.03 1704.75 1247.76 1704.38 Q1245.52 1704.01 1243.11 1703.27 L1243.11 1698.57 Q1245.19 1699.71 1247.42 1700.26 Q1249.64 1700.82 1252.11 1700.82 Q1256.12 1700.82 1258.46 1698.71 Q1260.8 1696.61 1260.8 1692.99 Q1260.8 1689.38 1258.46 1687.28 Q1256.12 1685.17 1252.11 1685.17 Q1250.24 1685.17 1248.36 1685.59 Q1246.51 1686 1244.57 1686.88 L1244.57 1669.52 Z" fill="#000000" fill-rule="evenodd" fill-opacity="1" /><polyline clip-path="url(#clip512)" style="stroke:#000000; stroke-linecap:butt; stroke-linejoin:round; stroke-width:2; stroke-opacity:0.1; fill:none" points="
  1376.91,1728.04 829.981,1078.99 
  "/>
<polyline clip-path="url(#clip512)" style="stroke:#000000; stroke-linecap:butt; stroke-linejoin:round; stroke-width:2; stroke-opacity:0.1; fill:none" points="
  829.981,1078.99 658.424,570.391 
  "/>
<polyline clip-path="url(#clip512)" style="stroke:#000000; stroke-linecap:butt; stroke-linejoin:round; stroke-width:2; stroke-opacity:0.1; fill:none" points="
  1522.58,1607.75 970.453,981.433 
  "/>
<polyline clip-path="url(#clip512)" style="stroke:#000000; stroke-linecap:butt; stroke-linejoin:round; stroke-width:2; stroke-opacity:0.1; fill:none" points="
  970.453,981.433 842.903,455.813 
  "/>
<polyline clip-path="url(#clip512)" style="stroke:#000000; stroke-linecap:butt; stroke-linejoin:round; stroke-width:2; stroke-opacity:0.1; fill:none" points="
  1662.94,1491.86 1106.29,887.096 
  "/>
<polyline clip-path="url(#clip512)" style="stroke:#000000; stroke-linecap:butt; stroke-linejoin:round; stroke-width:2; stroke-opacity:0.1; fill:none" points="
  1106.29,887.096 1019.59,346.071 
  "/>
<polyline clip-path="url(#clip512)" style="stroke:#000000; stroke-linecap:butt; stroke-linejoin:round; stroke-width:2; stroke-opacity:0.1; fill:none" points="
  1798.27,1380.11 1237.73,795.817 
  "/>
<polyline clip-path="url(#clip512)" style="stroke:#000000; stroke-linecap:butt; stroke-linejoin:round; stroke-width:2; stroke-opacity:0.1; fill:none" points="
  1237.73,795.817 1188.98,240.866 
  "/>
<polyline clip-path="url(#clip512)" style="stroke:#000000; stroke-linecap:butt; stroke-linejoin:round; stroke-width:2; stroke-opacity:0.1; fill:none" points="
  1928.83,1272.3 1364.98,707.451 
  "/>
<polyline clip-path="url(#clip512)" style="stroke:#000000; stroke-linecap:butt; stroke-linejoin:round; stroke-width:2; stroke-opacity:0.1; fill:none" points="
  1364.98,707.451 1351.51,139.923 
  "/>
<polyline clip-path="url(#clip510)" style="stroke:#000000; stroke-linecap:butt; stroke-linejoin:round; stroke-width:4; stroke-opacity:1; fill:none" points="
  1356.11,1745.22 2029.89,1188.85 
  "/>
<polyline clip-path="url(#clip510)" style="stroke:#000000; stroke-linecap:butt; stroke-linejoin:round; stroke-width:4; stroke-opacity:1; fill:none" points="
  1376.91,1728.04 1369.63,1719.4 
  "/>
<polyline clip-path="url(#clip510)" style="stroke:#000000; stroke-linecap:butt; stroke-linejoin:round; stroke-width:4; stroke-opacity:1; fill:none" points="
  1522.58,1607.75 1515.24,1599.43 
  "/>
<polyline clip-path="url(#clip510)" style="stroke:#000000; stroke-linecap:butt; stroke-linejoin:round; stroke-width:4; stroke-opacity:1; fill:none" points="
  1662.94,1491.86 1655.55,1483.83 
  "/>
<polyline clip-path="url(#clip510)" style="stroke:#000000; stroke-linecap:butt; stroke-linejoin:round; stroke-width:4; stroke-opacity:1; fill:none" points="
  1798.27,1380.11 1790.84,1372.37 
  "/>
<polyline clip-path="url(#clip510)" style="stroke:#000000; stroke-linecap:butt; stroke-linejoin:round; stroke-width:4; stroke-opacity:1; fill:none" points="
  1928.83,1272.3 1921.37,1264.83 
  "/>
<path clip-path="url(#clip510)" d="M1412.51 1735.77 Q1408.9 1735.77 1407.07 1739.33 Q1405.27 1742.88 1405.27 1750 Q1405.27 1757.11 1407.07 1760.68 Q1408.9 1764.22 1412.51 1764.22 Q1416.15 1764.22 1417.95 1760.68 Q1419.78 1757.11 1419.78 1750 Q1419.78 1742.88 1417.95 1739.33 Q1416.15 1735.77 1412.51 1735.77 M1412.51 1732.07 Q1418.32 1732.07 1421.38 1736.67 Q1424.46 1741.26 1424.46 1750 Q1424.46 1758.73 1421.38 1763.34 Q1418.32 1767.92 1412.51 1767.92 Q1406.7 1767.92 1403.62 1763.34 Q1400.57 1758.73 1400.57 1750 Q1400.57 1741.26 1403.62 1736.67 Q1406.7 1732.07 1412.51 1732.07 Z" fill="#000000" fill-rule="evenodd" fill-opacity="1" /><path clip-path="url(#clip510)" d="M1432.68 1761.37 L1437.56 1761.37 L1437.56 1767.25 L1432.68 1767.25 L1432.68 1761.37 Z" fill="#000000" fill-rule="evenodd" fill-opacity="1" /><path clip-path="url(#clip510)" d="M1447.79 1732.69 L1466.15 1732.69 L1466.15 1736.63 L1452.07 1736.63 L1452.07 1745.1 Q1453.09 1744.75 1454.11 1744.59 Q1455.13 1744.4 1456.15 1744.4 Q1461.93 1744.4 1465.31 1747.57 Q1468.69 1750.75 1468.69 1756.16 Q1468.69 1761.74 1465.22 1764.84 Q1461.75 1767.92 1455.43 1767.92 Q1453.25 1767.92 1450.99 1767.55 Q1448.74 1767.18 1446.33 1766.44 L1446.33 1761.74 Q1448.42 1762.88 1450.64 1763.43 Q1452.86 1763.99 1455.34 1763.99 Q1459.34 1763.99 1461.68 1761.88 Q1464.02 1759.77 1464.02 1756.16 Q1464.02 1752.55 1461.68 1750.44 Q1459.34 1748.34 1455.34 1748.34 Q1453.46 1748.34 1451.59 1748.75 Q1449.74 1749.17 1447.79 1750.05 L1447.79 1732.69 Z" fill="#000000" fill-rule="evenodd" fill-opacity="1" /><path clip-path="url(#clip510)" d="M1487.91 1735.77 Q1484.3 1735.77 1482.47 1739.33 Q1480.66 1742.88 1480.66 1750 Q1480.66 1757.11 1482.47 1760.68 Q1484.3 1764.22 1487.91 1764.22 Q1491.54 1764.22 1493.35 1760.68 Q1495.18 1757.11 1495.18 1750 Q1495.18 1742.88 1493.35 1739.33 Q1491.54 1735.77 1487.91 1735.77 M1487.91 1732.07 Q1493.72 1732.07 1496.77 1736.67 Q1499.85 1741.26 1499.85 1750 Q1499.85 1758.73 1496.77 1763.34 Q1493.72 1767.92 1487.91 1767.92 Q1482.1 1767.92 1479.02 1763.34 Q1475.96 1758.73 1475.96 1750 Q1475.96 1741.26 1479.02 1736.67 Q1482.1 1732.07 1487.91 1732.07 Z" fill="#000000" fill-rule="evenodd" fill-opacity="1" /><path clip-path="url(#clip510)" d="M1558.19 1615.48 Q1554.58 1615.48 1552.75 1619.04 Q1550.94 1622.59 1550.94 1629.72 Q1550.94 1636.82 1552.75 1640.39 Q1554.58 1643.93 1558.19 1643.93 Q1561.82 1643.93 1563.63 1640.39 Q1565.46 1636.82 1565.46 1629.72 Q1565.46 1622.59 1563.63 1619.04 Q1561.82 1615.48 1558.19 1615.48 M1558.19 1611.78 Q1564 1611.78 1567.05 1616.38 Q1570.13 1620.97 1570.13 1629.72 Q1570.13 1638.44 1567.05 1643.05 Q1564 1647.63 1558.19 1647.63 Q1552.38 1647.63 1549.3 1643.05 Q1546.24 1638.44 1546.24 1629.72 Q1546.24 1620.97 1549.3 1616.38 Q1552.38 1611.78 1558.19 1611.78 Z" fill="#000000" fill-rule="evenodd" fill-opacity="1" /><path clip-path="url(#clip510)" d="M1578.35 1641.08 L1583.23 1641.08 L1583.23 1646.96 L1578.35 1646.96 L1578.35 1641.08 Z" fill="#000000" fill-rule="evenodd" fill-opacity="1" /><path clip-path="url(#clip510)" d="M1593.46 1612.4 L1611.82 1612.4 L1611.82 1616.34 L1597.75 1616.34 L1597.75 1624.81 Q1598.77 1624.46 1599.78 1624.3 Q1600.8 1624.11 1601.82 1624.11 Q1607.61 1624.11 1610.99 1627.29 Q1614.37 1630.46 1614.37 1635.87 Q1614.37 1641.45 1610.89 1644.55 Q1607.42 1647.63 1601.1 1647.63 Q1598.93 1647.63 1596.66 1647.26 Q1594.41 1646.89 1592.01 1646.15 L1592.01 1641.45 Q1594.09 1642.59 1596.31 1643.14 Q1598.53 1643.7 1601.01 1643.7 Q1605.02 1643.7 1607.35 1641.59 Q1609.69 1639.48 1609.69 1635.87 Q1609.69 1632.26 1607.35 1630.16 Q1605.02 1628.05 1601.01 1628.05 Q1599.14 1628.05 1597.26 1628.47 Q1595.41 1628.88 1593.46 1629.76 L1593.46 1612.4 Z" fill="#000000" fill-rule="evenodd" fill-opacity="1" /><path clip-path="url(#clip510)" d="M1623.63 1612.4 L1641.98 1612.4 L1641.98 1616.34 L1627.91 1616.34 L1627.91 1624.81 Q1628.93 1624.46 1629.95 1624.3 Q1630.96 1624.11 1631.98 1624.11 Q1637.77 1624.11 1641.15 1627.29 Q1644.53 1630.46 1644.53 1635.87 Q1644.53 1641.45 1641.06 1644.55 Q1637.58 1647.63 1631.27 1647.63 Q1629.09 1647.63 1626.82 1647.26 Q1624.58 1646.89 1622.17 1646.15 L1622.17 1641.45 Q1624.25 1642.59 1626.47 1643.14 Q1628.7 1643.7 1631.17 1643.7 Q1635.18 1643.7 1637.52 1641.59 Q1639.85 1639.48 1639.85 1635.87 Q1639.85 1632.26 1637.52 1630.16 Q1635.18 1628.05 1631.17 1628.05 Q1629.3 1628.05 1627.42 1628.47 Q1625.57 1628.88 1623.63 1629.76 L1623.63 1612.4 Z" fill="#000000" fill-rule="evenodd" fill-opacity="1" /><path clip-path="url(#clip510)" d="M1698.54 1499.58 Q1694.93 1499.58 1693.1 1503.15 Q1691.3 1506.69 1691.3 1513.82 Q1691.3 1520.92 1693.1 1524.49 Q1694.93 1528.03 1698.54 1528.03 Q1702.18 1528.03 1703.98 1524.49 Q1705.81 1520.92 1705.81 1513.82 Q1705.81 1506.69 1703.98 1503.15 Q1702.18 1499.58 1698.54 1499.58 M1698.54 1495.88 Q1704.35 1495.88 1707.41 1500.48 Q1710.49 1505.07 1710.49 1513.82 Q1710.49 1522.54 1707.41 1527.15 Q1704.35 1531.73 1698.54 1531.73 Q1692.73 1531.73 1689.65 1527.15 Q1686.6 1522.54 1686.6 1513.82 Q1686.6 1505.07 1689.65 1500.48 Q1692.73 1495.88 1698.54 1495.88 Z" fill="#000000" fill-rule="evenodd" fill-opacity="1" /><path clip-path="url(#clip510)" d="M1718.71 1525.18 L1723.59 1525.18 L1723.59 1531.06 L1718.71 1531.06 L1718.71 1525.18 Z" fill="#000000" fill-rule="evenodd" fill-opacity="1" /><path clip-path="url(#clip510)" d="M1744.35 1511.92 Q1741.21 1511.92 1739.35 1514.07 Q1737.52 1516.22 1737.52 1519.97 Q1737.52 1523.7 1739.35 1525.88 Q1741.21 1528.03 1744.35 1528.03 Q1747.5 1528.03 1749.33 1525.88 Q1751.18 1523.7 1751.18 1519.97 Q1751.18 1516.22 1749.33 1514.07 Q1747.5 1511.92 1744.35 1511.92 M1753.64 1497.27 L1753.64 1501.53 Q1751.88 1500.69 1750.07 1500.25 Q1748.29 1499.81 1746.53 1499.81 Q1741.9 1499.81 1739.45 1502.94 Q1737.02 1506.06 1736.67 1512.38 Q1738.03 1510.37 1740.09 1509.3 Q1742.15 1508.22 1744.63 1508.22 Q1749.84 1508.22 1752.85 1511.39 Q1755.88 1514.53 1755.88 1519.97 Q1755.88 1525.3 1752.73 1528.52 Q1749.58 1531.73 1744.35 1531.73 Q1738.36 1531.73 1735.19 1527.15 Q1732.02 1522.54 1732.02 1513.82 Q1732.02 1505.62 1735.9 1500.76 Q1739.79 1495.88 1746.34 1495.88 Q1748.1 1495.88 1749.89 1496.22 Q1751.69 1496.57 1753.64 1497.27 Z" fill="#000000" fill-rule="evenodd" fill-opacity="1" /><path clip-path="url(#clip510)" d="M1773.94 1499.58 Q1770.33 1499.58 1768.5 1503.15 Q1766.69 1506.69 1766.69 1513.82 Q1766.69 1520.92 1768.5 1524.49 Q1770.33 1528.03 1773.94 1528.03 Q1777.57 1528.03 1779.38 1524.49 Q1781.21 1520.92 1781.21 1513.82 Q1781.21 1506.69 1779.38 1503.15 Q1777.57 1499.58 1773.94 1499.58 M1773.94 1495.88 Q1779.75 1495.88 1782.8 1500.48 Q1785.88 1505.07 1785.88 1513.82 Q1785.88 1522.54 1782.8 1527.15 Q1779.75 1531.73 1773.94 1531.73 Q1768.13 1531.73 1765.05 1527.15 Q1761.99 1522.54 1761.99 1513.82 Q1761.99 1505.07 1765.05 1500.48 Q1768.13 1495.88 1773.94 1495.88 Z" fill="#000000" fill-rule="evenodd" fill-opacity="1" /><path clip-path="url(#clip510)" d="M1833.87 1387.84 Q1830.26 1387.84 1828.43 1391.4 Q1826.62 1394.94 1826.62 1402.07 Q1826.62 1409.18 1828.43 1412.74 Q1830.26 1416.29 1833.87 1416.29 Q1837.5 1416.29 1839.31 1412.74 Q1841.14 1409.18 1841.14 1402.07 Q1841.14 1394.94 1839.31 1391.4 Q1837.5 1387.84 1833.87 1387.84 M1833.87 1384.13 Q1839.68 1384.13 1842.74 1388.74 Q1845.81 1393.32 1845.81 1402.07 Q1845.81 1410.8 1842.74 1415.41 Q1839.68 1419.99 1833.87 1419.99 Q1828.06 1419.99 1824.98 1415.41 Q1821.93 1410.8 1821.93 1402.07 Q1821.93 1393.32 1824.98 1388.74 Q1828.06 1384.13 1833.87 1384.13 Z" fill="#000000" fill-rule="evenodd" fill-opacity="1" /><path clip-path="url(#clip510)" d="M1854.03 1413.44 L1858.92 1413.44 L1858.92 1419.32 L1854.03 1419.32 L1854.03 1413.44 Z" fill="#000000" fill-rule="evenodd" fill-opacity="1" /><path clip-path="url(#clip510)" d="M1879.68 1400.17 Q1876.53 1400.17 1874.68 1402.33 Q1872.85 1404.48 1872.85 1408.23 Q1872.85 1411.96 1874.68 1414.13 Q1876.53 1416.29 1879.68 1416.29 Q1882.83 1416.29 1884.66 1414.13 Q1886.51 1411.96 1886.51 1408.23 Q1886.51 1404.48 1884.66 1402.33 Q1882.83 1400.17 1879.68 1400.17 M1888.96 1385.52 L1888.96 1389.78 Q1887.2 1388.95 1885.4 1388.51 Q1883.61 1388.07 1881.86 1388.07 Q1877.23 1388.07 1874.77 1391.19 Q1872.34 1394.32 1871.99 1400.64 Q1873.36 1398.62 1875.42 1397.56 Q1877.48 1396.47 1879.96 1396.47 Q1885.17 1396.47 1888.17 1399.64 Q1891.21 1402.79 1891.21 1408.23 Q1891.21 1413.55 1888.06 1416.77 Q1884.91 1419.99 1879.68 1419.99 Q1873.68 1419.99 1870.51 1415.41 Q1867.34 1410.8 1867.34 1402.07 Q1867.34 1393.88 1871.23 1389.02 Q1875.12 1384.13 1881.67 1384.13 Q1883.43 1384.13 1885.21 1384.48 Q1887.02 1384.83 1888.96 1385.52 Z" fill="#000000" fill-rule="evenodd" fill-opacity="1" /><path clip-path="url(#clip510)" d="M1899.31 1384.76 L1917.67 1384.76 L1917.67 1388.69 L1903.59 1388.69 L1903.59 1397.17 Q1904.61 1396.82 1905.63 1396.66 Q1906.65 1396.47 1907.67 1396.47 Q1913.45 1396.47 1916.83 1399.64 Q1920.21 1402.81 1920.21 1408.23 Q1920.21 1413.81 1916.74 1416.91 Q1913.27 1419.99 1906.95 1419.99 Q1904.77 1419.99 1902.5 1419.62 Q1900.26 1419.25 1897.85 1418.51 L1897.85 1413.81 Q1899.93 1414.94 1902.16 1415.5 Q1904.38 1416.05 1906.86 1416.05 Q1910.86 1416.05 1913.2 1413.95 Q1915.54 1411.84 1915.54 1408.23 Q1915.54 1404.62 1913.2 1402.51 Q1910.86 1400.41 1906.86 1400.41 Q1904.98 1400.41 1903.11 1400.82 Q1901.25 1401.24 1899.31 1402.12 L1899.31 1384.76 Z" fill="#000000" fill-rule="evenodd" fill-opacity="1" /><path clip-path="url(#clip510)" d="M1964.43 1280.03 Q1960.82 1280.03 1958.99 1283.59 Q1957.18 1287.13 1957.18 1294.26 Q1957.18 1301.37 1958.99 1304.93 Q1960.82 1308.48 1964.43 1308.48 Q1968.06 1308.48 1969.87 1304.93 Q1971.7 1301.37 1971.7 1294.26 Q1971.7 1287.13 1969.87 1283.59 Q1968.06 1280.03 1964.43 1280.03 M1964.43 1276.32 Q1970.24 1276.32 1973.3 1280.93 Q1976.37 1285.51 1976.37 1294.26 Q1976.37 1302.99 1973.3 1307.6 Q1970.24 1312.18 1964.43 1312.18 Q1958.62 1312.18 1955.54 1307.6 Q1952.49 1302.99 1952.49 1294.26 Q1952.49 1285.51 1955.54 1280.93 Q1958.62 1276.32 1964.43 1276.32 Z" fill="#000000" fill-rule="evenodd" fill-opacity="1" /><path clip-path="url(#clip510)" d="M1984.59 1305.63 L1989.48 1305.63 L1989.48 1311.51 L1984.59 1311.51 L1984.59 1305.63 Z" fill="#000000" fill-rule="evenodd" fill-opacity="1" /><path clip-path="url(#clip510)" d="M1998.48 1276.95 L2020.7 1276.95 L2020.7 1278.94 L2008.16 1311.51 L2003.27 1311.51 L2015.08 1280.88 L1998.48 1280.88 L1998.48 1276.95 Z" fill="#000000" fill-rule="evenodd" fill-opacity="1" /><path clip-path="url(#clip510)" d="M2039.82 1280.03 Q2036.21 1280.03 2034.38 1283.59 Q2032.58 1287.13 2032.58 1294.26 Q2032.58 1301.37 2034.38 1304.93 Q2036.21 1308.48 2039.82 1308.48 Q2043.46 1308.48 2045.26 1304.93 Q2047.09 1301.37 2047.09 1294.26 Q2047.09 1287.13 2045.26 1283.59 Q2043.46 1280.03 2039.82 1280.03 M2039.82 1276.32 Q2045.63 1276.32 2048.69 1280.93 Q2051.77 1285.51 2051.77 1294.26 Q2051.77 1302.99 2048.69 1307.6 Q2045.63 1312.18 2039.82 1312.18 Q2034.01 1312.18 2030.93 1307.6 Q2027.88 1302.99 2027.88 1294.26 Q2027.88 1285.51 2030.93 1280.93 Q2034.01 1276.32 2039.82 1276.32 Z" fill="#000000" fill-rule="evenodd" fill-opacity="1" /><polyline clip-path="url(#clip512)" style="stroke:#000000; stroke-linecap:butt; stroke-linejoin:round; stroke-width:2; stroke-opacity:0.1; fill:none" points="
  778.327,1002.92 1466.11,534.409 
  "/>
<polyline clip-path="url(#clip512)" style="stroke:#000000; stroke-linecap:butt; stroke-linejoin:round; stroke-width:2; stroke-opacity:0.1; fill:none" points="
  1466.11,534.409 2062.61,1102.43 
  "/>
<polyline clip-path="url(#clip512)" style="stroke:#000000; stroke-linecap:butt; stroke-linejoin:round; stroke-width:2; stroke-opacity:0.1; fill:none" points="
  741.134,897.166 1468.84,412.713 
  "/>
<polyline clip-path="url(#clip512)" style="stroke:#000000; stroke-linecap:butt; stroke-linejoin:round; stroke-width:2; stroke-opacity:0.1; fill:none" points="
  1468.84,412.713 2101.14,1000.65 
  "/>
<polyline clip-path="url(#clip512)" style="stroke:#000000; stroke-linecap:butt; stroke-linejoin:round; stroke-width:2; stroke-opacity:0.1; fill:none" points="
  699.326,778.285 1471.88,277.286 
  "/>
<polyline clip-path="url(#clip512)" style="stroke:#000000; stroke-linecap:butt; stroke-linejoin:round; stroke-width:2; stroke-opacity:0.1; fill:none" points="
  1471.88,277.286 2144.54,886 
  "/>
<polyline clip-path="url(#clip512)" style="stroke:#000000; stroke-linecap:butt; stroke-linejoin:round; stroke-width:2; stroke-opacity:0.1; fill:none" points="
  651.986,643.674 1475.29,125.665 
  "/>
<polyline clip-path="url(#clip512)" style="stroke:#000000; stroke-linecap:butt; stroke-linejoin:round; stroke-width:2; stroke-opacity:0.1; fill:none" points="
  1475.29,125.665 2193.81,755.86 
  "/>
<polyline clip-path="url(#clip510)" style="stroke:#000000; stroke-linecap:butt; stroke-linejoin:round; stroke-width:4; stroke-opacity:1; fill:none" points="
  809.964,1092.89 631.989,586.811 
  "/>
<polyline clip-path="url(#clip510)" style="stroke:#000000; stroke-linecap:butt; stroke-linejoin:round; stroke-width:4; stroke-opacity:1; fill:none" points="
  778.327,1002.92 787.303,996.81 
  "/>
<polyline clip-path="url(#clip510)" style="stroke:#000000; stroke-linecap:butt; stroke-linejoin:round; stroke-width:4; stroke-opacity:1; fill:none" points="
  741.134,897.166 750.676,890.814 
  "/>
<polyline clip-path="url(#clip510)" style="stroke:#000000; stroke-linecap:butt; stroke-linejoin:round; stroke-width:4; stroke-opacity:1; fill:none" points="
  699.326,778.285 709.509,771.681 
  "/>
<polyline clip-path="url(#clip510)" style="stroke:#000000; stroke-linecap:butt; stroke-linejoin:round; stroke-width:4; stroke-opacity:1; fill:none" points="
  651.986,643.674 662.903,636.806 
  "/>
<path clip-path="url(#clip510)" d="M659.729 988.723 Q656.117 988.723 654.289 992.288 Q652.483 995.83 652.483 1002.96 Q652.483 1010.07 654.289 1013.63 Q656.117 1017.17 659.729 1017.17 Q663.363 1017.17 665.168 1013.63 Q666.997 1010.07 666.997 1002.96 Q666.997 995.83 665.168 992.288 Q663.363 988.723 659.729 988.723 M659.729 985.02 Q665.539 985.02 668.594 989.626 Q671.673 994.209 671.673 1002.96 Q671.673 1011.69 668.594 1016.29 Q665.539 1020.88 659.729 1020.88 Q653.918 1020.88 650.84 1016.29 Q647.784 1011.69 647.784 1002.96 Q647.784 994.209 650.84 989.626 Q653.918 985.02 659.729 985.02 Z" fill="#000000" fill-rule="evenodd" fill-opacity="1" /><path clip-path="url(#clip510)" d="M679.891 1014.32 L684.775 1014.32 L684.775 1020.2 L679.891 1020.2 L679.891 1014.32 Z" fill="#000000" fill-rule="evenodd" fill-opacity="1" /><path clip-path="url(#clip510)" d="M705.539 1001.06 Q702.39 1001.06 700.539 1003.21 Q698.71 1005.37 698.71 1009.12 Q698.71 1012.84 700.539 1015.02 Q702.39 1017.17 705.539 1017.17 Q708.687 1017.17 710.515 1015.02 Q712.367 1012.84 712.367 1009.12 Q712.367 1005.37 710.515 1003.21 Q708.687 1001.06 705.539 1001.06 M714.821 986.408 L714.821 990.668 Q713.062 989.834 711.256 989.395 Q709.474 988.955 707.714 988.955 Q703.085 988.955 700.631 992.08 Q698.201 995.205 697.853 1001.52 Q699.219 999.51 701.279 998.445 Q703.339 997.357 705.816 997.357 Q711.025 997.357 714.034 1000.53 Q717.066 1003.68 717.066 1009.12 Q717.066 1014.44 713.918 1017.66 Q710.77 1020.88 705.539 1020.88 Q699.543 1020.88 696.372 1016.29 Q693.201 1011.69 693.201 1002.96 Q693.201 994.765 697.09 989.904 Q700.978 985.02 707.529 985.02 Q709.289 985.02 711.071 985.367 Q712.876 985.714 714.821 986.408 Z" fill="#000000" fill-rule="evenodd" fill-opacity="1" /><path clip-path="url(#clip510)" d="M725.168 985.645 L743.524 985.645 L743.524 989.58 L729.45 989.58 L729.45 998.052 Q730.469 997.705 731.487 997.543 Q732.506 997.357 733.524 997.357 Q739.311 997.357 742.691 1000.53 Q746.071 1003.7 746.071 1009.12 Q746.071 1014.7 742.599 1017.8 Q739.126 1020.88 732.807 1020.88 Q730.631 1020.88 728.362 1020.51 Q726.117 1020.14 723.71 1019.39 L723.71 1014.7 Q725.793 1015.83 728.015 1016.39 Q730.237 1016.94 732.714 1016.94 Q736.719 1016.94 739.057 1014.83 Q741.395 1012.73 741.395 1009.12 Q741.395 1005.51 739.057 1003.4 Q736.719 1001.29 732.714 1001.29 Q730.839 1001.29 728.964 1001.71 Q727.112 1002.13 725.168 1003.01 L725.168 985.645 Z" fill="#000000" fill-rule="evenodd" fill-opacity="1" /><path clip-path="url(#clip510)" d="M621.54 882.965 Q617.929 882.965 616.101 886.53 Q614.295 890.072 614.295 897.201 Q614.295 904.308 616.101 907.872 Q617.929 911.414 621.54 911.414 Q625.175 911.414 626.98 907.872 Q628.809 904.308 628.809 897.201 Q628.809 890.072 626.98 886.53 Q625.175 882.965 621.54 882.965 M621.54 879.261 Q627.351 879.261 630.406 883.868 Q633.485 888.451 633.485 897.201 Q633.485 905.928 630.406 910.534 Q627.351 915.118 621.54 915.118 Q615.73 915.118 612.652 910.534 Q609.596 905.928 609.596 897.201 Q609.596 888.451 612.652 883.868 Q615.73 879.261 621.54 879.261 Z" fill="#000000" fill-rule="evenodd" fill-opacity="1" /><path clip-path="url(#clip510)" d="M641.702 908.567 L646.587 908.567 L646.587 914.446 L641.702 914.446 L641.702 908.567 Z" fill="#000000" fill-rule="evenodd" fill-opacity="1" /><path clip-path="url(#clip510)" d="M655.591 879.886 L677.813 879.886 L677.813 881.877 L665.267 914.446 L660.383 914.446 L672.188 883.822 L655.591 883.822 L655.591 879.886 Z" fill="#000000" fill-rule="evenodd" fill-opacity="1" /><path clip-path="url(#clip510)" d="M696.934 882.965 Q693.322 882.965 691.494 886.53 Q689.688 890.072 689.688 897.201 Q689.688 904.308 691.494 907.872 Q693.322 911.414 696.934 911.414 Q700.568 911.414 702.373 907.872 Q704.202 904.308 704.202 897.201 Q704.202 890.072 702.373 886.53 Q700.568 882.965 696.934 882.965 M696.934 879.261 Q702.744 879.261 705.799 883.868 Q708.878 888.451 708.878 897.201 Q708.878 905.928 705.799 910.534 Q702.744 915.118 696.934 915.118 Q691.123 915.118 688.045 910.534 Q684.989 905.928 684.989 897.201 Q684.989 888.451 688.045 883.868 Q691.123 879.261 696.934 879.261 Z" fill="#000000" fill-rule="evenodd" fill-opacity="1" /><path clip-path="url(#clip510)" d="M580.728 764.083 Q577.117 764.083 575.288 767.648 Q573.482 771.19 573.482 778.319 Q573.482 785.426 575.288 788.991 Q577.117 792.532 580.728 792.532 Q584.362 792.532 586.167 788.991 Q587.996 785.426 587.996 778.319 Q587.996 771.19 586.167 767.648 Q584.362 764.083 580.728 764.083 M580.728 760.38 Q586.538 760.38 589.593 764.986 Q592.672 769.569 592.672 778.319 Q592.672 787.046 589.593 791.653 Q586.538 796.236 580.728 796.236 Q574.917 796.236 571.839 791.653 Q568.783 787.046 568.783 778.319 Q568.783 769.569 571.839 764.986 Q574.917 760.38 580.728 760.38 Z" fill="#000000" fill-rule="evenodd" fill-opacity="1" /><path clip-path="url(#clip510)" d="M600.89 789.685 L605.774 789.685 L605.774 795.565 L600.89 795.565 L600.89 789.685 Z" fill="#000000" fill-rule="evenodd" fill-opacity="1" /><path clip-path="url(#clip510)" d="M614.778 761.005 L637 761.005 L637 762.995 L624.454 795.565 L619.57 795.565 L631.376 764.94 L614.778 764.94 L614.778 761.005 Z" fill="#000000" fill-rule="evenodd" fill-opacity="1" /><path clip-path="url(#clip510)" d="M646.167 761.005 L664.523 761.005 L664.523 764.94 L650.449 764.94 L650.449 773.412 Q651.468 773.065 652.486 772.903 Q653.505 772.717 654.524 772.717 Q660.311 772.717 663.69 775.889 Q667.07 779.06 667.07 784.477 Q667.07 790.055 663.598 793.157 Q660.125 796.236 653.806 796.236 Q651.63 796.236 649.362 795.865 Q647.116 795.495 644.709 794.754 L644.709 790.055 Q646.792 791.19 649.014 791.745 Q651.237 792.301 653.713 792.301 Q657.718 792.301 660.056 790.194 Q662.394 788.088 662.394 784.477 Q662.394 780.866 660.056 778.759 Q657.718 776.653 653.713 776.653 Q651.838 776.653 649.963 777.069 Q648.112 777.486 646.167 778.366 L646.167 761.005 Z" fill="#000000" fill-rule="evenodd" fill-opacity="1" /><path clip-path="url(#clip510)" d="M532.393 629.473 Q528.782 629.473 526.953 633.038 Q525.147 636.579 525.147 643.709 Q525.147 650.816 526.953 654.38 Q528.782 657.922 532.393 657.922 Q536.027 657.922 537.833 654.38 Q539.661 650.816 539.661 643.709 Q539.661 636.579 537.833 633.038 Q536.027 629.473 532.393 629.473 M532.393 625.769 Q538.203 625.769 541.259 630.376 Q544.337 634.959 544.337 643.709 Q544.337 652.436 541.259 657.042 Q538.203 661.626 532.393 661.626 Q526.583 661.626 523.504 657.042 Q520.448 652.436 520.448 643.709 Q520.448 634.959 523.504 630.376 Q526.583 625.769 532.393 625.769 Z" fill="#000000" fill-rule="evenodd" fill-opacity="1" /><path clip-path="url(#clip510)" d="M552.555 655.075 L557.439 655.075 L557.439 660.954 L552.555 660.954 L552.555 655.075 Z" fill="#000000" fill-rule="evenodd" fill-opacity="1" /><path clip-path="url(#clip510)" d="M577.624 644.542 Q574.291 644.542 572.369 646.325 Q570.471 648.107 570.471 651.232 Q570.471 654.357 572.369 656.14 Q574.291 657.922 577.624 657.922 Q580.957 657.922 582.879 656.14 Q584.8 654.334 584.8 651.232 Q584.8 648.107 582.879 646.325 Q580.981 644.542 577.624 644.542 M572.948 642.552 Q569.939 641.811 568.249 639.751 Q566.582 637.691 566.582 634.728 Q566.582 630.584 569.522 628.177 Q572.485 625.769 577.624 625.769 Q582.786 625.769 585.726 628.177 Q588.666 630.584 588.666 634.728 Q588.666 637.691 586.976 639.751 Q585.309 641.811 582.323 642.552 Q585.703 643.339 587.578 645.63 Q589.476 647.922 589.476 651.232 Q589.476 656.255 586.397 658.94 Q583.342 661.626 577.624 661.626 Q571.906 661.626 568.828 658.94 Q565.772 656.255 565.772 651.232 Q565.772 647.922 567.67 645.63 Q569.569 643.339 572.948 642.552 M571.235 635.167 Q571.235 637.853 572.902 639.357 Q574.592 640.862 577.624 640.862 Q580.633 640.862 582.323 639.357 Q584.036 637.853 584.036 635.167 Q584.036 632.482 582.323 630.978 Q580.633 629.473 577.624 629.473 Q574.592 629.473 572.902 630.978 Q571.235 632.482 571.235 635.167 Z" fill="#000000" fill-rule="evenodd" fill-opacity="1" /><path clip-path="url(#clip510)" d="M607.786 629.473 Q604.175 629.473 602.346 633.038 Q600.541 636.579 600.541 643.709 Q600.541 650.816 602.346 654.38 Q604.175 657.922 607.786 657.922 Q611.42 657.922 613.226 654.38 Q615.054 650.816 615.054 643.709 Q615.054 636.579 613.226 633.038 Q611.42 629.473 607.786 629.473 M607.786 625.769 Q613.596 625.769 616.652 630.376 Q619.73 634.959 619.73 643.709 Q619.73 652.436 616.652 657.042 Q613.596 661.626 607.786 661.626 Q601.976 661.626 598.897 657.042 Q595.842 652.436 595.842 643.709 Q595.842 634.959 598.897 630.376 Q601.976 625.769 607.786 625.769 Z" fill="#000000" fill-rule="evenodd" fill-opacity="1" /><polyline clip-path="url(#clip512)" style="stroke:#000000; stroke-linecap:butt; stroke-linejoin:round; stroke-width:8; stroke-opacity:1; fill:none" points="
  1197.16,1375.46 1197.16,1375.46 1199.59,1374.08 1222.2,1361.17 1235.96,1353.31 
  1247.7,1346.61 1260.57,1339.26 1272.54,1332.43 
  1285.48,1325.05 1300.62,1316.41 1314.2,1308.65 
  1326.23,1301.79 1339.45,1294.24 1352.87,1286.58 1367.85,1278.03 
  1382.24,1269.81 1397.36,1261.18 1410.21,1253.85 
  1426.04,1244.81 1440.69,1236.45 1454.35,1228.65 
  1468.31,1220.68 1484.11,1211.66 1498.57,1203.41 1515.29,1193.86 
  1530.93,1184.93 1546.51,1176.04 1561.79,1167.32 
  1577.6,1158.29 1595.11,1148.3 1620.89,1133.58 
  1626.23,1130.53 
  "/>
<polyline clip-path="url(#clip512)" style="stroke:#000000; stroke-linecap:butt; stroke-linejoin:round; stroke-width:8; stroke-opacity:1; fill:none" points="
  1197.16,1375.46 1197.16,1375.46 1198.86,1369.22 1213.61,1312.2 1221.62,1278.49 
  1227.91,1250.31 1234.25,1220.03 1239.64,1192.42 
  1244.93,1163.15 1250.47,1129.66 1254.84,1100.28 
  1258.26,1074.81 1261.56,1047.35 1264.43,1020.06 1267.08,990.257 
  1269.1,962.272 1270.7,933.555 1271.65,909.68 
  1272.32,880.9 1272.47,854.889 1272.22,831.167 
  1271.6,807.428 1270.47,781.172 1269.04,757.695 1266.95,731.182 
  1264.59,706.981 1261.86,683.446 1258.84,660.904 
  1255.37,638.107 1251.13,613.492 1244.19,578.402 
  1242.65,571.301 
  "/>
<polyline clip-path="url(#clip512)" style="stroke:#000000; stroke-linecap:butt; stroke-linejoin:round; stroke-width:8; stroke-opacity:1; fill:none" points="
  1197.16,1375.46 1197.16,1375.46 1199.61,1376.47 1221.97,1385.83 1235.17,1391.43 
  1246.2,1396.14 1258.05,1401.25 1268.84,1405.95 
  1280.28,1410.97 1293.35,1416.77 1304.82,1421.9 
  1314.76,1426.39 1325.47,1431.27 1336.12,1436.16 1347.73,1441.55 
  1358.64,1446.66 1369.82,1451.96 1379.12,1456.4 
  1390.33,1461.8 1400.45,1466.74 1409.69,1471.28 
  1418.93,1475.86 1429.15,1480.98 1438.29,1485.6 1448.61,1490.87 
  1458.03,1495.73 1467.19,1500.5 1475.97,1505.12 
  1484.84,1509.84 1494.43,1514.99 1508.1,1522.43 
  1510.87,1523.95 
  "/>
<polyline clip-path="url(#clip512)" style="stroke:#c271d2; stroke-linecap:butt; stroke-linejoin:round; stroke-width:4; stroke-opacity:1; fill:none" points="
  1247.9,1145.64 1247.9,1145.64 1250.26,1146.61 1271.8,1155.49 1284.52,1160.83 
  1295.14,1165.33 1306.55,1170.21 1316.94,1174.7 
  1327.95,1179.52 1340.54,1185.08 1351.58,1190.02 
  1361.14,1194.35 1371.45,1199.05 1381.69,1203.78 1392.86,1208.99 
  1403.35,1213.95 1414.11,1219.09 1423.05,1223.41 
  1433.82,1228.67 1443.56,1233.48 1452.43,1237.91 
  1461.31,1242.4 1471.13,1247.41 1479.91,1251.95 1489.83,1257.12 
  1498.88,1261.91 1507.67,1266.62 1516.1,1271.17 
  1524.63,1275.84 1533.83,1280.93 1546.95,1288.31 
  1549.61,1289.82 
  "/>
<polyline clip-path="url(#clip512)" style="stroke:#ac8d18; stroke-linecap:butt; stroke-linejoin:round; stroke-width:4; stroke-opacity:1; fill:none" points="
  1270.61,935.378 1270.61,935.378 1272.89,936.294 1293.67,944.763 1305.94,949.854 
  1316.19,954.16 1327.19,958.837 1337.21,963.149 
  1347.83,967.772 1359.97,973.127 1370.62,977.886 
  1379.84,982.058 1389.78,986.606 1399.65,991.179 1410.42,996.234 
  1420.53,1001.04 1430.9,1006.04 1439.52,1010.24 
  1449.9,1015.37 1459.29,1020.06 1467.84,1024.4 
  1476.4,1028.79 1485.87,1033.7 1494.33,1038.15 1503.88,1043.24 
  1512.6,1047.94 1521.08,1052.58 1529.2,1057.08 
  1537.42,1061.68 1546.29,1066.72 1558.93,1074.03 
  1561.49,1075.53 
  "/>
<polyline clip-path="url(#clip512)" style="stroke:#00a9ad; stroke-linecap:butt; stroke-linejoin:round; stroke-width:4; stroke-opacity:1; fill:none" points="
  1268.04,744.148 1268.04,744.148 1270.24,745.022 1290.32,753.117 1302.17,757.993 
  1312.08,762.123 1322.71,766.615 1332.39,770.762 
  1342.65,775.214 1354.38,780.379 1364.67,784.974 
  1373.58,789.009 1383.18,793.411 1392.72,797.845 1403.13,802.751 
  1412.9,807.423 1422.92,812.285 1431.25,816.381 
  1441.29,821.385 1450.36,825.972 1458.63,830.21 
  1466.9,834.505 1476.05,839.321 1484.23,843.687 1493.47,848.687 
  1501.9,853.318 1510.1,857.884 1517.95,862.319 
  1525.9,866.865 1534.47,871.846 1546.7,879.082 
  1549.18,880.567 
  "/>
<polyline clip-path="url(#clip512)" style="stroke:#ed5d92; stroke-linecap:butt; stroke-linejoin:round; stroke-width:4; stroke-opacity:1; fill:none" points="
  1242.65,571.301 1242.65,571.301 1244.78,572.138 1264.22,579.9 1275.69,584.585 
  1285.28,588.557 1295.57,592.884 1304.95,596.883 
  1314.88,601.181 1326.24,606.174 1336.2,610.622 
  1344.83,614.532 1354.13,618.803 1363.37,623.109 1373.46,627.88 
  1382.93,632.429 1392.64,637.168 1400.71,641.164 
  1410.44,646.052 1419.23,650.538 1427.25,654.687 
  1435.27,658.896 1444.14,663.62 1452.07,667.907 1461.03,672.822 
  1469.21,677.379 1477.17,681.877 1484.79,686.25 
  1492.5,690.737 1500.83,695.658 1512.7,702.816 
  1515.11,704.286 
  "/>
<polyline clip-path="url(#clip512)" style="stroke:#c68125; stroke-linecap:butt; stroke-linejoin:round; stroke-width:4; stroke-opacity:1; fill:none" points="
  1287.11,1413.99 1287.11,1413.99 1288.73,1407.71 1302.65,1350.25 1310.18,1316.28 
  1316.06,1287.88 1321.96,1257.37 1326.95,1229.55 
  1331.82,1200.06 1336.87,1166.32 1340.82,1136.71 
  1343.87,1111.05 1346.77,1083.38 1349.24,1055.88 1351.45,1025.85 
  1353.07,997.659 1354.24,968.725 1354.84,944.671 
  1355.08,915.675 1354.85,889.47 1354.26,865.571 
  1353.29,841.655 1351.76,815.203 1349.99,791.552 1347.51,764.842 
  1344.78,740.461 1341.71,716.753 1338.35,694.043 
  1334.54,671.078 1329.93,646.282 1322.47,610.934 
  1320.82,603.781 
  "/>
<polyline clip-path="url(#clip512)" style="stroke:#00a98d; stroke-linecap:butt; stroke-linejoin:round; stroke-width:4; stroke-opacity:1; fill:none" points="
  1369.11,1451.62 1369.11,1451.62 1370.64,1445.3 1383.79,1387.52 1390.86,1353.36 
  1396.36,1324.81 1401.85,1294.13 1406.47,1266.15 
  1410.95,1236.5 1415.54,1202.57 1419.1,1172.8 
  1421.81,1146.99 1424.33,1119.17 1426.44,1091.51 1428.25,1061.32 
  1429.49,1032.97 1430.28,1003.87 1430.55,979.681 
  1430.41,950.522 1429.84,924.17 1428.92,900.136 
  1427.63,876.085 1425.76,849.484 1423.67,825.699 1420.83,798.839 
  1417.79,774.32 1414.4,750.477 1410.74,727.639 
  1406.62,704.544 1401.69,679.607 1393.76,644.059 
  1392.02,636.865 
  "/>
<polyline clip-path="url(#clip512)" style="stroke:#8e971d; stroke-linecap:butt; stroke-linejoin:round; stroke-width:4; stroke-opacity:1; fill:none" points="
  1443.56,1488.28 1443.56,1488.28 1445.01,1481.94 1457.43,1423.96 1464.08,1389.68 
  1469.23,1361.02 1474.34,1330.23 1478.61,1302.15 
  1482.72,1272.39 1486.9,1238.33 1490.09,1208.45 
  1492.48,1182.55 1494.67,1154.62 1496.44,1126.86 1497.89,1096.55 
  1498.78,1068.09 1499.22,1038.88 1499.21,1014.6 
  1498.72,985.328 1497.83,958.873 1496.63,934.744 
  1495.05,910.599 1492.86,883.892 1490.5,860.012 1487.34,833.044 
  1484.01,808.427 1480.34,784.487 1476.42,761.556 
  1472.03,738.367 1466.82,713.327 1458.47,677.633 
  1456.65,670.409 
  "/>
<polyline clip-path="url(#clip512)" style="stroke:#00a8cb; stroke-linecap:butt; stroke-linejoin:round; stroke-width:4; stroke-opacity:1; fill:none" points="
  1510.87,1523.95 1510.87,1523.95 1512.24,1517.6 1523.99,1459.51 1530.24,1425.17 
  1535.06,1396.46 1539.82,1365.61 1543.77,1337.49 
  1547.55,1307.66 1551.35,1273.54 1554.2,1243.6 
  1556.31,1217.64 1558.19,1189.66 1559.65,1161.84 1560.77,1131.47 
  1561.36,1102.94 1561.48,1073.67 1561.21,1049.33 
  1560.41,1020 1559.23,993.479 1557.78,969.293 
  1555.95,945.09 1553.49,918.319 1550.87,894.381 1547.44,867.345 
  1543.85,842.666 1539.94,818.666 1535.79,795.676 
  1531.17,772.426 1525.7,747.32 1517,711.529 
  1515.11,704.286 
  "/>
<polyline clip-path="url(#clip512)" style="stroke:#0000ff; stroke-linecap:butt; stroke-linejoin:round; stroke-width:16; stroke-opacity:1; fill:none" points="
  1197.16,1375.46 1372.86,1275.17 
  "/>
<polyline clip-path="url(#clip512)" style="stroke:#0000ff; stroke-linecap:butt; stroke-linejoin:round; stroke-width:16; stroke-opacity:1; fill:none" points="
  1197.16,1375.46 1349.31,820.416 
  "/>
<polyline clip-path="url(#clip512)" style="stroke:#0000ff; stroke-linecap:butt; stroke-linejoin:round; stroke-width:16; stroke-opacity:1; fill:none" points="
  1197.16,1375.46 1460.26,1484.46 
  "/>
</svg>
