<?xml version="1.0" encoding="utf-8"?>
<svg xmlns="http://www.w3.org/2000/svg" xmlns:xlink="http://www.w3.org/1999/xlink" width="672" height="480" viewBox="0 0 2688 1920">
<defs>
  <clipPath id="clip100">
    <rect x="0" y="0" width="2688" height="1920"/>
  </clipPath>
</defs>
<path clip-path="url(#clip100)" d="
M0 1920 L2688 1920 L2688 0 L0 0  Z
  " fill="#ffffff" fill-rule="evenodd" fill-opacity="1"/>
<defs>
  <clipPath id="clip101">
    <rect x="537" y="0" width="1883" height="1883"/>
  </clipPath>
</defs>
<path clip-path="url(#clip100)" d="
M197.302 1800.78 L2640.76 1800.78 L2640.76 47.2441 L197.302 47.2441  Z
  " fill="#ffffff" fill-rule="evenodd" fill-opacity="1"/>
<defs>
  <clipPath id="clip102">
    <rect x="197" y="47" width="2444" height="1755"/>
  </clipPath>
</defs>
<polyline clip-path="url(#clip102)" style="stroke:#000000; stroke-linecap:butt; stroke-linejoin:round; stroke-width:2; stroke-opacity:0.1; fill:none" points="
  551.619,1800.78 551.619,47.2441 
  "/>
<polyline clip-path="url(#clip102)" style="stroke:#000000; stroke-linecap:butt; stroke-linejoin:round; stroke-width:2; stroke-opacity:0.1; fill:none" points="
  984.899,1800.78 984.899,47.2441 
  "/>
<polyline clip-path="url(#clip102)" style="stroke:#000000; stroke-linecap:butt; stroke-linejoin:round; stroke-width:2; stroke-opacity:0.1; fill:none" points="
  1418.18,1800.78 1418.18,47.2441 
  "/>
<polyline clip-path="url(#clip102)" style="stroke:#000000; stroke-linecap:butt; stroke-linejoin:round; stroke-width:2; stroke-opacity:0.1; fill:none" points="
  1851.46,1800.78 1851.46,47.2441 
  "/>
<polyline clip-path="url(#clip102)" style="stroke:#000000; stroke-linecap:butt; stroke-linejoin:round; stroke-width:2; stroke-opacity:0.1; fill:none" points="
  2284.74,1800.78 2284.74,47.2441 
  "/>
<polyline clip-path="url(#clip100)" style="stroke:#000000; stroke-linecap:butt; stroke-linejoin:round; stroke-width:4; stroke-opacity:1; fill:none" points="
  197.302,1800.78 2640.76,1800.78 
  "/>
<polyline clip-path="url(#clip100)" style="stroke:#000000; stroke-linecap:butt; stroke-linejoin:round; stroke-width:4; stroke-opacity:1; fill:none" points="
  551.619,1800.78 551.619,1781.88 
  "/>
<polyline clip-path="url(#clip100)" style="stroke:#000000; stroke-linecap:butt; stroke-linejoin:round; stroke-width:4; stroke-opacity:1; fill:none" points="
  984.899,1800.78 984.899,1781.88 
  "/>
<polyline clip-path="url(#clip100)" style="stroke:#000000; stroke-linecap:butt; stroke-linejoin:round; stroke-width:4; stroke-opacity:1; fill:none" points="
  1418.18,1800.78 1418.18,1781.88 
  "/>
<polyline clip-path="url(#clip100)" style="stroke:#000000; stroke-linecap:butt; stroke-linejoin:round; stroke-width:4; stroke-opacity:1; fill:none" points="
  1851.46,1800.78 1851.46,1781.88 
  "/>
<polyline clip-path="url(#clip100)" style="stroke:#000000; stroke-linecap:butt; stroke-linejoin:round; stroke-width:4; stroke-opacity:1; fill:none" points="
  2284.74,1800.78 2284.74,1781.88 
  "/>
<path clip-path="url(#clip100)" d="M483.066 1848.65 L512.742 1848.65 L512.742 1852.59 L483.066 1852.59 L483.066 1848.65 Z" fill="#000000" fill-rule="evenodd" fill-opacity="1" /><path clip-path="url(#clip100)" d="M532.835 1834 Q529.224 1834 527.395 1837.57 Q525.589 1841.11 525.589 1848.24 Q525.589 1855.34 527.395 1858.91 Q529.224 1862.45 532.835 1862.45 Q536.469 1862.45 538.274 1858.91 Q540.103 1855.34 540.103 1848.24 Q540.103 1841.11 538.274 1837.57 Q536.469 1834 532.835 1834 M532.835 1830.3 Q538.645 1830.3 541.7 1834.9 Q544.779 1839.49 544.779 1848.24 Q544.779 1856.96 541.7 1861.57 Q538.645 1866.15 532.835 1866.15 Q527.024 1866.15 523.946 1861.57 Q520.89 1856.96 520.89 1848.24 Q520.89 1839.49 523.946 1834.9 Q527.024 1830.3 532.835 1830.3 Z" fill="#000000" fill-rule="evenodd" fill-opacity="1" /><path clip-path="url(#clip100)" d="M552.997 1859.6 L557.881 1859.6 L557.881 1865.48 L552.997 1865.48 L552.997 1859.6 Z" fill="#000000" fill-rule="evenodd" fill-opacity="1" /><path clip-path="url(#clip100)" d="M568.112 1830.92 L586.469 1830.92 L586.469 1834.86 L572.395 1834.86 L572.395 1843.33 Q573.413 1842.98 574.432 1842.82 Q575.45 1842.64 576.469 1842.64 Q582.256 1842.64 585.635 1845.81 Q589.015 1848.98 589.015 1854.4 Q589.015 1859.97 585.543 1863.08 Q582.07 1866.15 575.751 1866.15 Q573.575 1866.15 571.307 1865.78 Q569.061 1865.41 566.654 1864.67 L566.654 1859.97 Q568.737 1861.11 570.959 1861.66 Q573.182 1862.22 575.658 1862.22 Q579.663 1862.22 582.001 1860.11 Q584.339 1858.01 584.339 1854.4 Q584.339 1850.78 582.001 1848.68 Q579.663 1846.57 575.658 1846.57 Q573.783 1846.57 571.908 1846.99 Q570.057 1847.4 568.112 1848.28 L568.112 1830.92 Z" fill="#000000" fill-rule="evenodd" fill-opacity="1" /><path clip-path="url(#clip100)" d="M608.228 1834 Q604.617 1834 602.788 1837.57 Q600.982 1841.11 600.982 1848.24 Q600.982 1855.34 602.788 1858.91 Q604.617 1862.45 608.228 1862.45 Q611.862 1862.45 613.668 1858.91 Q615.496 1855.34 615.496 1848.24 Q615.496 1841.11 613.668 1837.57 Q611.862 1834 608.228 1834 M608.228 1830.3 Q614.038 1830.3 617.093 1834.9 Q620.172 1839.49 620.172 1848.24 Q620.172 1856.96 617.093 1861.57 Q614.038 1866.15 608.228 1866.15 Q602.418 1866.15 599.339 1861.57 Q596.283 1856.96 596.283 1848.24 Q596.283 1839.49 599.339 1834.9 Q602.418 1830.3 608.228 1830.3 Z" fill="#000000" fill-rule="evenodd" fill-opacity="1" /><path clip-path="url(#clip100)" d="M916.844 1848.65 L946.52 1848.65 L946.52 1852.59 L916.844 1852.59 L916.844 1848.65 Z" fill="#000000" fill-rule="evenodd" fill-opacity="1" /><path clip-path="url(#clip100)" d="M966.612 1834 Q963.001 1834 961.172 1837.57 Q959.367 1841.11 959.367 1848.24 Q959.367 1855.34 961.172 1858.91 Q963.001 1862.45 966.612 1862.45 Q970.246 1862.45 972.052 1858.91 Q973.881 1855.34 973.881 1848.24 Q973.881 1841.11 972.052 1837.57 Q970.246 1834 966.612 1834 M966.612 1830.3 Q972.422 1830.3 975.478 1834.9 Q978.556 1839.49 978.556 1848.24 Q978.556 1856.96 975.478 1861.57 Q972.422 1866.15 966.612 1866.15 Q960.802 1866.15 957.723 1861.57 Q954.668 1856.96 954.668 1848.24 Q954.668 1839.49 957.723 1834.9 Q960.802 1830.3 966.612 1830.3 Z" fill="#000000" fill-rule="evenodd" fill-opacity="1" /><path clip-path="url(#clip100)" d="M986.774 1859.6 L991.658 1859.6 L991.658 1865.48 L986.774 1865.48 L986.774 1859.6 Z" fill="#000000" fill-rule="evenodd" fill-opacity="1" /><path clip-path="url(#clip100)" d="M1005.87 1861.55 L1022.19 1861.55 L1022.19 1865.48 L1000.25 1865.48 L1000.25 1861.55 Q1002.91 1858.79 1007.49 1854.16 Q1012.1 1849.51 1013.28 1848.17 Q1015.52 1845.65 1016.4 1843.91 Q1017.31 1842.15 1017.31 1840.46 Q1017.31 1837.71 1015.36 1835.97 Q1013.44 1834.23 1010.34 1834.23 Q1008.14 1834.23 1005.69 1835 Q1003.26 1835.76 1000.48 1837.31 L1000.48 1832.59 Q1003.3 1831.46 1005.76 1830.88 Q1008.21 1830.3 1010.25 1830.3 Q1015.62 1830.3 1018.81 1832.98 Q1022.01 1835.67 1022.01 1840.16 Q1022.01 1842.29 1021.2 1844.21 Q1020.41 1846.11 1018.3 1848.7 Q1017.72 1849.37 1014.62 1852.59 Q1011.52 1855.78 1005.87 1861.55 Z" fill="#000000" fill-rule="evenodd" fill-opacity="1" /><path clip-path="url(#clip100)" d="M1032.05 1830.92 L1050.41 1830.92 L1050.41 1834.86 L1036.33 1834.86 L1036.33 1843.33 Q1037.35 1842.98 1038.37 1842.82 Q1039.39 1842.64 1040.41 1842.64 Q1046.2 1842.64 1049.57 1845.81 Q1052.95 1848.98 1052.95 1854.4 Q1052.95 1859.97 1049.48 1863.08 Q1046.01 1866.15 1039.69 1866.15 Q1037.51 1866.15 1035.25 1865.78 Q1033 1865.41 1030.59 1864.67 L1030.59 1859.97 Q1032.68 1861.11 1034.9 1861.66 Q1037.12 1862.22 1039.6 1862.22 Q1043.6 1862.22 1045.94 1860.11 Q1048.28 1858.01 1048.28 1854.4 Q1048.28 1850.78 1045.94 1848.68 Q1043.6 1846.57 1039.6 1846.57 Q1037.72 1846.57 1035.85 1846.99 Q1034 1847.4 1032.05 1848.28 L1032.05 1830.92 Z" fill="#000000" fill-rule="evenodd" fill-opacity="1" /><path clip-path="url(#clip100)" d="M1380.48 1834 Q1376.87 1834 1375.04 1837.57 Q1373.24 1841.11 1373.24 1848.24 Q1373.24 1855.34 1375.04 1858.91 Q1376.87 1862.45 1380.48 1862.45 Q1384.12 1862.45 1385.92 1858.91 Q1387.75 1855.34 1387.75 1848.24 Q1387.75 1841.11 1385.92 1837.57 Q1384.12 1834 1380.48 1834 M1380.48 1830.3 Q1386.29 1830.3 1389.35 1834.9 Q1392.43 1839.49 1392.43 1848.24 Q1392.43 1856.96 1389.35 1861.57 Q1386.29 1866.15 1380.48 1866.15 Q1374.67 1866.15 1371.59 1861.57 Q1368.54 1856.96 1368.54 1848.24 Q1368.54 1839.49 1371.59 1834.9 Q1374.67 1830.3 1380.48 1830.3 Z" fill="#000000" fill-rule="evenodd" fill-opacity="1" /><path clip-path="url(#clip100)" d="M1400.64 1859.6 L1405.53 1859.6 L1405.53 1865.48 L1400.64 1865.48 L1400.64 1859.6 Z" fill="#000000" fill-rule="evenodd" fill-opacity="1" /><path clip-path="url(#clip100)" d="M1425.71 1834 Q1422.1 1834 1420.27 1837.57 Q1418.47 1841.11 1418.47 1848.24 Q1418.47 1855.34 1420.27 1858.91 Q1422.1 1862.45 1425.71 1862.45 Q1429.35 1862.45 1431.15 1858.91 Q1432.98 1855.34 1432.98 1848.24 Q1432.98 1841.11 1431.15 1837.57 Q1429.35 1834 1425.71 1834 M1425.71 1830.3 Q1431.52 1830.3 1434.58 1834.9 Q1437.66 1839.49 1437.66 1848.24 Q1437.66 1856.96 1434.58 1861.57 Q1431.52 1866.15 1425.71 1866.15 Q1419.9 1866.15 1416.82 1861.57 Q1413.77 1856.96 1413.77 1848.24 Q1413.77 1839.49 1416.82 1834.9 Q1419.9 1830.3 1425.71 1830.3 Z" fill="#000000" fill-rule="evenodd" fill-opacity="1" /><path clip-path="url(#clip100)" d="M1455.88 1834 Q1452.26 1834 1450.44 1837.57 Q1448.63 1841.11 1448.63 1848.24 Q1448.63 1855.34 1450.44 1858.91 Q1452.26 1862.45 1455.88 1862.45 Q1459.51 1862.45 1461.32 1858.91 Q1463.14 1855.34 1463.14 1848.24 Q1463.14 1841.11 1461.32 1837.57 Q1459.51 1834 1455.88 1834 M1455.88 1830.3 Q1461.69 1830.3 1464.74 1834.9 Q1467.82 1839.49 1467.82 1848.24 Q1467.82 1856.96 1464.74 1861.57 Q1461.69 1866.15 1455.88 1866.15 Q1450.07 1866.15 1446.99 1861.57 Q1443.93 1856.96 1443.93 1848.24 Q1443.93 1839.49 1446.99 1834.9 Q1450.07 1830.3 1455.88 1830.3 Z" fill="#000000" fill-rule="evenodd" fill-opacity="1" /><path clip-path="url(#clip100)" d="M1814.26 1834 Q1810.65 1834 1808.82 1837.57 Q1807.01 1841.11 1807.01 1848.24 Q1807.01 1855.34 1808.82 1858.91 Q1810.65 1862.45 1814.26 1862.45 Q1817.89 1862.45 1819.7 1858.91 Q1821.53 1855.34 1821.53 1848.24 Q1821.53 1841.11 1819.7 1837.57 Q1817.89 1834 1814.26 1834 M1814.26 1830.3 Q1820.07 1830.3 1823.13 1834.9 Q1826.2 1839.49 1826.2 1848.24 Q1826.2 1856.96 1823.13 1861.57 Q1820.07 1866.15 1814.26 1866.15 Q1808.45 1866.15 1805.37 1861.57 Q1802.32 1856.96 1802.32 1848.24 Q1802.32 1839.49 1805.37 1834.9 Q1808.45 1830.3 1814.26 1830.3 Z" fill="#000000" fill-rule="evenodd" fill-opacity="1" /><path clip-path="url(#clip100)" d="M1834.42 1859.6 L1839.31 1859.6 L1839.31 1865.48 L1834.42 1865.48 L1834.42 1859.6 Z" fill="#000000" fill-rule="evenodd" fill-opacity="1" /><path clip-path="url(#clip100)" d="M1853.52 1861.55 L1869.84 1861.55 L1869.84 1865.48 L1847.89 1865.48 L1847.89 1861.55 Q1850.56 1858.79 1855.14 1854.16 Q1859.75 1849.51 1860.93 1848.17 Q1863.17 1845.65 1864.05 1843.91 Q1864.95 1842.15 1864.95 1840.46 Q1864.95 1837.71 1863.01 1835.97 Q1861.09 1834.23 1857.99 1834.23 Q1855.79 1834.23 1853.33 1835 Q1850.9 1835.76 1848.13 1837.31 L1848.13 1832.59 Q1850.95 1831.46 1853.4 1830.88 Q1855.86 1830.3 1857.89 1830.3 Q1863.26 1830.3 1866.46 1832.98 Q1869.65 1835.67 1869.65 1840.16 Q1869.65 1842.29 1868.84 1844.21 Q1868.06 1846.11 1865.95 1848.7 Q1865.37 1849.37 1862.27 1852.59 Q1859.17 1855.78 1853.52 1861.55 Z" fill="#000000" fill-rule="evenodd" fill-opacity="1" /><path clip-path="url(#clip100)" d="M1879.7 1830.92 L1898.06 1830.92 L1898.06 1834.86 L1883.98 1834.86 L1883.98 1843.33 Q1885 1842.98 1886.02 1842.82 Q1887.04 1842.64 1888.06 1842.64 Q1893.84 1842.64 1897.22 1845.81 Q1900.6 1848.98 1900.6 1854.4 Q1900.6 1859.97 1897.13 1863.08 Q1893.66 1866.15 1887.34 1866.15 Q1885.16 1866.15 1882.89 1865.78 Q1880.65 1865.41 1878.24 1864.67 L1878.24 1859.97 Q1880.32 1861.11 1882.55 1861.66 Q1884.77 1862.22 1887.25 1862.22 Q1891.25 1862.22 1893.59 1860.11 Q1895.93 1858.01 1895.93 1854.4 Q1895.93 1850.78 1893.59 1848.68 Q1891.25 1846.57 1887.25 1846.57 Q1885.37 1846.57 1883.5 1846.99 Q1881.64 1847.4 1879.7 1848.28 L1879.7 1830.92 Z" fill="#000000" fill-rule="evenodd" fill-opacity="1" /><path clip-path="url(#clip100)" d="M2247.04 1834 Q2243.43 1834 2241.6 1837.57 Q2239.8 1841.11 2239.8 1848.24 Q2239.8 1855.34 2241.6 1858.91 Q2243.43 1862.45 2247.04 1862.45 Q2250.68 1862.45 2252.48 1858.91 Q2254.31 1855.34 2254.31 1848.24 Q2254.31 1841.11 2252.48 1837.57 Q2250.68 1834 2247.04 1834 M2247.04 1830.3 Q2252.85 1830.3 2255.91 1834.9 Q2258.99 1839.49 2258.99 1848.24 Q2258.99 1856.96 2255.91 1861.57 Q2252.85 1866.15 2247.04 1866.15 Q2241.23 1866.15 2238.15 1861.57 Q2235.1 1856.96 2235.1 1848.24 Q2235.1 1839.49 2238.15 1834.9 Q2241.23 1830.3 2247.04 1830.3 Z" fill="#000000" fill-rule="evenodd" fill-opacity="1" /><path clip-path="url(#clip100)" d="M2267.2 1859.6 L2272.09 1859.6 L2272.09 1865.48 L2267.2 1865.48 L2267.2 1859.6 Z" fill="#000000" fill-rule="evenodd" fill-opacity="1" /><path clip-path="url(#clip100)" d="M2282.32 1830.92 L2300.68 1830.92 L2300.68 1834.86 L2286.6 1834.86 L2286.6 1843.33 Q2287.62 1842.98 2288.64 1842.82 Q2289.66 1842.64 2290.68 1842.64 Q2296.46 1842.64 2299.84 1845.81 Q2303.22 1848.98 2303.22 1854.4 Q2303.22 1859.97 2299.75 1863.08 Q2296.28 1866.15 2289.96 1866.15 Q2287.78 1866.15 2285.51 1865.78 Q2283.27 1865.41 2280.86 1864.67 L2280.86 1859.97 Q2282.94 1861.11 2285.17 1861.66 Q2287.39 1862.22 2289.87 1862.22 Q2293.87 1862.22 2296.21 1860.11 Q2298.55 1858.01 2298.55 1854.4 Q2298.55 1850.78 2296.21 1848.68 Q2293.87 1846.57 2289.87 1846.57 Q2287.99 1846.57 2286.12 1846.99 Q2284.26 1847.4 2282.32 1848.28 L2282.32 1830.92 Z" fill="#000000" fill-rule="evenodd" fill-opacity="1" /><path clip-path="url(#clip100)" d="M2322.44 1834 Q2318.82 1834 2317 1837.57 Q2315.19 1841.11 2315.19 1848.24 Q2315.19 1855.34 2317 1858.91 Q2318.82 1862.45 2322.44 1862.45 Q2326.07 1862.45 2327.87 1858.91 Q2329.7 1855.34 2329.7 1848.24 Q2329.7 1841.11 2327.87 1837.57 Q2326.07 1834 2322.44 1834 M2322.44 1830.3 Q2328.25 1830.3 2331.3 1834.9 Q2334.38 1839.49 2334.38 1848.24 Q2334.38 1856.96 2331.3 1861.57 Q2328.25 1866.15 2322.44 1866.15 Q2316.62 1866.15 2313.55 1861.57 Q2310.49 1856.96 2310.49 1848.24 Q2310.49 1839.49 2313.55 1834.9 Q2316.62 1830.3 2322.44 1830.3 Z" fill="#000000" fill-rule="evenodd" fill-opacity="1" /><polyline clip-path="url(#clip102)" style="stroke:#000000; stroke-linecap:butt; stroke-linejoin:round; stroke-width:2; stroke-opacity:0.1; fill:none" points="
  197.302,1617.26 2640.76,1617.26 
  "/>
<polyline clip-path="url(#clip102)" style="stroke:#000000; stroke-linecap:butt; stroke-linejoin:round; stroke-width:2; stroke-opacity:0.1; fill:none" points="
  197.302,1270.64 2640.76,1270.64 
  "/>
<polyline clip-path="url(#clip102)" style="stroke:#000000; stroke-linecap:butt; stroke-linejoin:round; stroke-width:2; stroke-opacity:0.1; fill:none" points="
  197.302,924.012 2640.76,924.012 
  "/>
<polyline clip-path="url(#clip102)" style="stroke:#000000; stroke-linecap:butt; stroke-linejoin:round; stroke-width:2; stroke-opacity:0.1; fill:none" points="
  197.302,577.388 2640.76,577.388 
  "/>
<polyline clip-path="url(#clip102)" style="stroke:#000000; stroke-linecap:butt; stroke-linejoin:round; stroke-width:2; stroke-opacity:0.1; fill:none" points="
  197.302,230.764 2640.76,230.764 
  "/>
<polyline clip-path="url(#clip100)" style="stroke:#000000; stroke-linecap:butt; stroke-linejoin:round; stroke-width:4; stroke-opacity:1; fill:none" points="
  197.302,1800.78 197.302,47.2441 
  "/>
<polyline clip-path="url(#clip100)" style="stroke:#000000; stroke-linecap:butt; stroke-linejoin:round; stroke-width:4; stroke-opacity:1; fill:none" points="
  197.302,1617.26 216.2,1617.26 
  "/>
<polyline clip-path="url(#clip100)" style="stroke:#000000; stroke-linecap:butt; stroke-linejoin:round; stroke-width:4; stroke-opacity:1; fill:none" points="
  197.302,1270.64 216.2,1270.64 
  "/>
<polyline clip-path="url(#clip100)" style="stroke:#000000; stroke-linecap:butt; stroke-linejoin:round; stroke-width:4; stroke-opacity:1; fill:none" points="
  197.302,924.012 216.2,924.012 
  "/>
<polyline clip-path="url(#clip100)" style="stroke:#000000; stroke-linecap:butt; stroke-linejoin:round; stroke-width:4; stroke-opacity:1; fill:none" points="
  197.302,577.388 216.2,577.388 
  "/>
<polyline clip-path="url(#clip100)" style="stroke:#000000; stroke-linecap:butt; stroke-linejoin:round; stroke-width:4; stroke-opacity:1; fill:none" points="
  197.302,230.764 216.2,230.764 
  "/>
<path clip-path="url(#clip100)" d="M49.5521 1617.71 L79.2279 1617.71 L79.2279 1621.65 L49.5521 1621.65 L49.5521 1617.71 Z" fill="#000000" fill-rule="evenodd" fill-opacity="1" /><path clip-path="url(#clip100)" d="M99.3204 1603.06 Q95.7093 1603.06 93.8806 1606.62 Q92.075 1610.16 92.075 1617.29 Q92.075 1624.4 93.8806 1627.97 Q95.7093 1631.51 99.3204 1631.51 Q102.955 1631.51 104.76 1627.97 Q106.589 1624.4 106.589 1617.29 Q106.589 1610.16 104.76 1606.62 Q102.955 1603.06 99.3204 1603.06 M99.3204 1599.35 Q105.131 1599.35 108.186 1603.96 Q111.265 1608.54 111.265 1617.29 Q111.265 1626.02 108.186 1630.63 Q105.131 1635.21 99.3204 1635.21 Q93.5102 1635.21 90.4315 1630.63 Q87.376 1626.02 87.376 1617.29 Q87.376 1608.54 90.4315 1603.96 Q93.5102 1599.35 99.3204 1599.35 Z" fill="#000000" fill-rule="evenodd" fill-opacity="1" /><path clip-path="url(#clip100)" d="M119.482 1628.66 L124.367 1628.66 L124.367 1634.54 L119.482 1634.54 L119.482 1628.66 Z" fill="#000000" fill-rule="evenodd" fill-opacity="1" /><path clip-path="url(#clip100)" d="M147.399 1604.05 L135.593 1622.5 L147.399 1622.5 L147.399 1604.05 M146.172 1599.98 L152.052 1599.98 L152.052 1622.5 L156.982 1622.5 L156.982 1626.39 L152.052 1626.39 L152.052 1634.54 L147.399 1634.54 L147.399 1626.39 L131.797 1626.39 L131.797 1621.88 L146.172 1599.98 Z" fill="#000000" fill-rule="evenodd" fill-opacity="1" /><path clip-path="url(#clip100)" d="M51.6354 1271.09 L81.3112 1271.09 L81.3112 1275.02 L51.6354 1275.02 L51.6354 1271.09 Z" fill="#000000" fill-rule="evenodd" fill-opacity="1" /><path clip-path="url(#clip100)" d="M101.404 1256.43 Q97.7926 1256.43 95.9639 1260 Q94.1584 1263.54 94.1584 1270.67 Q94.1584 1277.78 95.9639 1281.34 Q97.7926 1284.88 101.404 1284.88 Q105.038 1284.88 106.843 1281.34 Q108.672 1277.78 108.672 1270.67 Q108.672 1263.54 106.843 1260 Q105.038 1256.43 101.404 1256.43 M101.404 1252.73 Q107.214 1252.73 110.269 1257.34 Q113.348 1261.92 113.348 1270.67 Q113.348 1279.4 110.269 1284 Q107.214 1288.59 101.404 1288.59 Q95.5935 1288.59 92.5149 1284 Q89.4593 1279.4 89.4593 1270.67 Q89.4593 1261.92 92.5149 1257.34 Q95.5935 1252.73 101.404 1252.73 Z" fill="#000000" fill-rule="evenodd" fill-opacity="1" /><path clip-path="url(#clip100)" d="M121.566 1282.04 L126.45 1282.04 L126.45 1287.92 L121.566 1287.92 L121.566 1282.04 Z" fill="#000000" fill-rule="evenodd" fill-opacity="1" /><path clip-path="url(#clip100)" d="M140.663 1283.98 L156.982 1283.98 L156.982 1287.92 L135.038 1287.92 L135.038 1283.98 Q137.7 1281.23 142.283 1276.6 Q146.89 1271.94 148.07 1270.6 Q150.315 1268.08 151.195 1266.34 Q152.098 1264.58 152.098 1262.89 Q152.098 1260.14 150.153 1258.4 Q148.232 1256.67 145.13 1256.67 Q142.931 1256.67 140.478 1257.43 Q138.047 1258.19 135.269 1259.74 L135.269 1255.02 Q138.093 1253.89 140.547 1253.31 Q143.001 1252.73 145.038 1252.73 Q150.408 1252.73 153.602 1255.42 Q156.797 1258.1 156.797 1262.59 Q156.797 1264.72 155.987 1266.64 Q155.2 1268.54 153.093 1271.13 Q152.515 1271.8 149.413 1275.02 Q146.311 1278.22 140.663 1283.98 Z" fill="#000000" fill-rule="evenodd" fill-opacity="1" /><path clip-path="url(#clip100)" d="M99.8065 909.81 Q96.1954 909.81 94.3667 913.375 Q92.5612 916.917 92.5612 924.046 Q92.5612 931.153 94.3667 934.718 Q96.1954 938.259 99.8065 938.259 Q103.441 938.259 105.246 934.718 Q107.075 931.153 107.075 924.046 Q107.075 916.917 105.246 913.375 Q103.441 909.81 99.8065 909.81 M99.8065 906.107 Q105.617 906.107 108.672 910.713 Q111.751 915.296 111.751 924.046 Q111.751 932.773 108.672 937.38 Q105.617 941.963 99.8065 941.963 Q93.9963 941.963 90.9176 937.38 Q87.8621 932.773 87.8621 924.046 Q87.8621 915.296 90.9176 910.713 Q93.9963 906.107 99.8065 906.107 Z" fill="#000000" fill-rule="evenodd" fill-opacity="1" /><path clip-path="url(#clip100)" d="M119.968 935.412 L124.853 935.412 L124.853 941.292 L119.968 941.292 L119.968 935.412 Z" fill="#000000" fill-rule="evenodd" fill-opacity="1" /><path clip-path="url(#clip100)" d="M145.038 909.81 Q141.427 909.81 139.598 913.375 Q137.792 916.917 137.792 924.046 Q137.792 931.153 139.598 934.718 Q141.427 938.259 145.038 938.259 Q148.672 938.259 150.478 934.718 Q152.306 931.153 152.306 924.046 Q152.306 916.917 150.478 913.375 Q148.672 909.81 145.038 909.81 M145.038 906.107 Q150.848 906.107 153.903 910.713 Q156.982 915.296 156.982 924.046 Q156.982 932.773 153.903 937.38 Q150.848 941.963 145.038 941.963 Q139.228 941.963 136.149 937.38 Q133.093 932.773 133.093 924.046 Q133.093 915.296 136.149 910.713 Q139.228 906.107 145.038 906.107 Z" fill="#000000" fill-rule="evenodd" fill-opacity="1" /><path clip-path="url(#clip100)" d="M101.404 563.187 Q97.7926 563.187 95.9639 566.751 Q94.1584 570.293 94.1584 577.423 Q94.1584 584.529 95.9639 588.094 Q97.7926 591.635 101.404 591.635 Q105.038 591.635 106.843 588.094 Q108.672 584.529 108.672 577.423 Q108.672 570.293 106.843 566.751 Q105.038 563.187 101.404 563.187 M101.404 559.483 Q107.214 559.483 110.269 564.089 Q113.348 568.673 113.348 577.423 Q113.348 586.149 110.269 590.756 Q107.214 595.339 101.404 595.339 Q95.5935 595.339 92.5149 590.756 Q89.4593 586.149 89.4593 577.423 Q89.4593 568.673 92.5149 564.089 Q95.5935 559.483 101.404 559.483 Z" fill="#000000" fill-rule="evenodd" fill-opacity="1" /><path clip-path="url(#clip100)" d="M121.566 588.788 L126.45 588.788 L126.45 594.668 L121.566 594.668 L121.566 588.788 Z" fill="#000000" fill-rule="evenodd" fill-opacity="1" /><path clip-path="url(#clip100)" d="M140.663 590.733 L156.982 590.733 L156.982 594.668 L135.038 594.668 L135.038 590.733 Q137.7 587.978 142.283 583.348 Q146.89 578.696 148.07 577.353 Q150.315 574.83 151.195 573.094 Q152.098 571.335 152.098 569.645 Q152.098 566.89 150.153 565.154 Q148.232 563.418 145.13 563.418 Q142.931 563.418 140.478 564.182 Q138.047 564.946 135.269 566.497 L135.269 561.775 Q138.093 560.64 140.547 560.062 Q143.001 559.483 145.038 559.483 Q150.408 559.483 153.602 562.168 Q156.797 564.853 156.797 569.344 Q156.797 571.474 155.987 573.395 Q155.2 575.293 153.093 577.886 Q152.515 578.557 149.413 581.774 Q146.311 584.969 140.663 590.733 Z" fill="#000000" fill-rule="evenodd" fill-opacity="1" /><path clip-path="url(#clip100)" d="M99.3204 216.563 Q95.7093 216.563 93.8806 220.127 Q92.075 223.669 92.075 230.799 Q92.075 237.905 93.8806 241.47 Q95.7093 245.012 99.3204 245.012 Q102.955 245.012 104.76 241.47 Q106.589 237.905 106.589 230.799 Q106.589 223.669 104.76 220.127 Q102.955 216.563 99.3204 216.563 M99.3204 212.859 Q105.131 212.859 108.186 217.465 Q111.265 222.049 111.265 230.799 Q111.265 239.526 108.186 244.132 Q105.131 248.715 99.3204 248.715 Q93.5102 248.715 90.4315 244.132 Q87.376 239.526 87.376 230.799 Q87.376 222.049 90.4315 217.465 Q93.5102 212.859 99.3204 212.859 Z" fill="#000000" fill-rule="evenodd" fill-opacity="1" /><path clip-path="url(#clip100)" d="M119.482 242.164 L124.367 242.164 L124.367 248.044 L119.482 248.044 L119.482 242.164 Z" fill="#000000" fill-rule="evenodd" fill-opacity="1" /><path clip-path="url(#clip100)" d="M147.399 217.558 L135.593 236.007 L147.399 236.007 L147.399 217.558 M146.172 213.484 L152.052 213.484 L152.052 236.007 L156.982 236.007 L156.982 239.896 L152.052 239.896 L152.052 248.044 L147.399 248.044 L147.399 239.896 L131.797 239.896 L131.797 235.382 L146.172 213.484 Z" fill="#000000" fill-rule="evenodd" fill-opacity="1" /><polyline clip-path="url(#clip102)" style="stroke:#009af9; stroke-linecap:butt; stroke-linejoin:round; stroke-width:4; stroke-opacity:1; fill:none" points="
  2245.74,924.012 2240.41,840.902 2224.49,759.157 2198.25,680.118 2162.11,605.085 2116.68,535.288 2062.69,471.874 2001.04,415.884 1932.74,368.238 1858.9,329.717 
  1780.74,300.955 1699.55,282.423 1616.65,274.426 1533.42,277.095 1451.2,290.387 1371.36,314.083 1295.21,347.793 1223.99,390.966 1158.88,442.89 1100.94,502.715 
  1051.13,569.458 1010.27,642.022 979.014,719.217 957.889,799.774 947.239,882.371 947.239,965.652 957.889,1048.25 979.014,1128.81 1010.27,1206 1051.13,1278.57 
  1100.94,1345.31 1158.88,1405.13 1223.99,1457.06 1295.21,1500.23 1371.36,1533.94 1451.2,1557.64 1533.42,1570.93 1616.65,1573.6 1699.55,1565.6 1780.74,1547.07 
  1858.9,1518.31 1932.74,1479.79 2001.04,1432.14 2062.69,1376.15 2116.68,1312.74 2162.11,1242.94 2198.25,1167.91 2224.49,1088.87 2240.41,1007.12 2245.74,924.012 
  
  "/>
<polyline clip-path="url(#clip102)" style="stroke:#e26f46; stroke-linecap:butt; stroke-linejoin:round; stroke-width:4; stroke-opacity:1; fill:none" points="
  2245.74,924.012 2239.8,831.483 2222.08,740.473 2192.86,652.477 2152.63,568.94 2102.05,491.233 2041.95,420.632 1973.31,358.296 1897.26,305.25 1815.06,262.363 
  1728.04,230.341 1637.65,209.709 1545.36,200.806 1452.69,203.778 1361.15,218.576 1272.27,244.957 1187.48,282.489 1108.2,330.554 1035.7,388.363 971.201,454.968 
  915.744,529.275 870.245,610.063 835.451,696.007 811.932,785.694 800.075,877.652 800.075,970.371 811.932,1062.33 835.451,1152.02 870.245,1237.96 915.744,1318.75 
  971.201,1393.06 1035.7,1459.66 1108.2,1517.47 1187.48,1565.53 1272.27,1603.07 1361.15,1629.45 1452.69,1644.25 1545.36,1647.22 1637.65,1638.31 1728.04,1617.68 
  1815.06,1585.66 1897.26,1542.77 1973.31,1489.73 2041.95,1427.39 2102.05,1356.79 2152.63,1279.08 2192.86,1195.55 2222.08,1107.55 2239.8,1016.54 2245.74,924.012 
  
  "/>
<polyline clip-path="url(#clip102)" style="stroke:#3da44d; stroke-linecap:butt; stroke-linejoin:round; stroke-width:4; stroke-opacity:1; fill:none" points="
  2245.74,924.012 2240.73,845.888 2225.76,769.048 2201.09,694.752 2167.13,624.22 2124.42,558.611 2073.68,499.002 2015.72,446.372 1951.52,401.584 1882.11,365.375 
  1808.64,338.338 1732.32,320.918 1654.4,313.401 1576.16,315.91 1498.88,328.404 1423.83,350.678 1352.24,382.366 1285.3,422.948 1224.09,471.758 1169.63,527.993 
  1122.81,590.731 1084.39,658.941 1055.02,731.504 1035.16,807.228 1025.15,884.87 1025.15,963.154 1035.16,1040.8 1055.02,1116.52 1084.39,1189.08 1122.81,1257.29 
  1169.63,1320.03 1224.09,1376.27 1285.3,1425.08 1352.24,1465.66 1423.83,1497.35 1498.88,1519.62 1576.16,1532.11 1654.4,1534.62 1732.32,1527.11 1808.64,1509.69 
  1882.11,1482.65 1951.52,1446.44 2015.72,1401.65 2073.68,1349.02 2124.42,1289.41 2167.13,1223.8 2201.09,1153.27 2225.76,1078.98 2240.73,1002.13 2245.74,924.012 
  
  "/>
<polyline clip-path="url(#clip102)" style="stroke:#c271d2; stroke-linecap:butt; stroke-linejoin:round; stroke-width:4; stroke-opacity:1; fill:none" points="
  2245.74,924.012 2238.95,818.185 2218.68,714.096 2185.26,613.454 2139.25,517.911 2081.4,429.037 2012.66,348.29 1934.16,276.996 1847.18,216.326 1753.16,167.276 
  1653.64,130.652 1550.26,107.055 1444.7,96.8724 1338.71,100.271 1234.03,117.196 1132.37,147.369 1035.4,190.294 944.715,245.266 861.807,311.384 788.033,387.561 
  724.607,472.546 672.569,564.945 632.774,663.239 605.875,765.816 592.315,870.989 592.315,977.034 605.875,1082.21 632.774,1184.78 672.569,1283.08 724.607,1375.48 
  788.033,1460.46 861.807,1536.64 944.715,1602.76 1035.4,1657.73 1132.37,1700.65 1234.03,1730.83 1338.71,1747.75 1444.7,1751.15 1550.26,1740.97 1653.64,1717.37 
  1753.16,1680.75 1847.18,1631.7 1934.16,1571.03 2012.66,1499.73 2081.4,1418.99 2139.25,1330.11 2185.26,1234.57 2218.68,1133.93 2238.95,1029.84 2245.74,924.012 
  
  "/>
</svg>
