<?xml version="1.0" encoding="utf-8"?>
<svg xmlns="http://www.w3.org/2000/svg" xmlns:xlink="http://www.w3.org/1999/xlink" width="672" height="480" viewBox="0 0 2688 1920">
<defs>
  <clipPath id="clip990">
    <rect x="0" y="0" width="2688" height="1920"/>
  </clipPath>
</defs>
<path clip-path="url(#clip990)" d="
M0 1920 L2688 1920 L2688 0 L0 0  Z
  " fill="#ffffff" fill-rule="evenodd" fill-opacity="1"/>
<defs>
  <clipPath id="clip991">
    <rect x="537" y="0" width="1883" height="1883"/>
  </clipPath>
</defs>
<path clip-path="url(#clip990)" d="
M159.478 1800.78 L2640.76 1800.78 L2640.76 47.2441 L159.478 47.2441  Z
  " fill="#ffffff" fill-rule="evenodd" fill-opacity="1"/>
<defs>
  <clipPath id="clip992">
    <rect x="159" y="47" width="2482" height="1755"/>
  </clipPath>
</defs>
<polyline clip-path="url(#clip992)" style="stroke:#000000; stroke-linecap:butt; stroke-linejoin:round; stroke-width:2; stroke-opacity:0.1; fill:none" points="
  229.703,1800.78 229.703,47.2441 
  "/>
<polyline clip-path="url(#clip992)" style="stroke:#000000; stroke-linecap:butt; stroke-linejoin:round; stroke-width:2; stroke-opacity:0.1; fill:none" points="
  814.91,1800.78 814.91,47.2441 
  "/>
<polyline clip-path="url(#clip992)" style="stroke:#000000; stroke-linecap:butt; stroke-linejoin:round; stroke-width:2; stroke-opacity:0.1; fill:none" points="
  1400.12,1800.78 1400.12,47.2441 
  "/>
<polyline clip-path="url(#clip992)" style="stroke:#000000; stroke-linecap:butt; stroke-linejoin:round; stroke-width:2; stroke-opacity:0.1; fill:none" points="
  1985.32,1800.78 1985.32,47.2441 
  "/>
<polyline clip-path="url(#clip992)" style="stroke:#000000; stroke-linecap:butt; stroke-linejoin:round; stroke-width:2; stroke-opacity:0.1; fill:none" points="
  2570.53,1800.78 2570.53,47.2441 
  "/>
<polyline clip-path="url(#clip990)" style="stroke:#000000; stroke-linecap:butt; stroke-linejoin:round; stroke-width:4; stroke-opacity:1; fill:none" points="
  159.478,1800.78 2640.76,1800.78 
  "/>
<polyline clip-path="url(#clip990)" style="stroke:#000000; stroke-linecap:butt; stroke-linejoin:round; stroke-width:4; stroke-opacity:1; fill:none" points="
  229.703,1800.78 229.703,1781.88 
  "/>
<polyline clip-path="url(#clip990)" style="stroke:#000000; stroke-linecap:butt; stroke-linejoin:round; stroke-width:4; stroke-opacity:1; fill:none" points="
  814.91,1800.78 814.91,1781.88 
  "/>
<polyline clip-path="url(#clip990)" style="stroke:#000000; stroke-linecap:butt; stroke-linejoin:round; stroke-width:4; stroke-opacity:1; fill:none" points="
  1400.12,1800.78 1400.12,1781.88 
  "/>
<polyline clip-path="url(#clip990)" style="stroke:#000000; stroke-linecap:butt; stroke-linejoin:round; stroke-width:4; stroke-opacity:1; fill:none" points="
  1985.32,1800.78 1985.32,1781.88 
  "/>
<polyline clip-path="url(#clip990)" style="stroke:#000000; stroke-linecap:butt; stroke-linejoin:round; stroke-width:4; stroke-opacity:1; fill:none" points="
  2570.53,1800.78 2570.53,1781.88 
  "/>
<path clip-path="url(#clip990)" d="M176.231 1848.65 L205.907 1848.65 L205.907 1852.59 L176.231 1852.59 L176.231 1848.65 Z" fill="#000000" fill-rule="evenodd" fill-opacity="1" /><path clip-path="url(#clip990)" d="M216.81 1861.55 L224.448 1861.55 L224.448 1835.18 L216.138 1836.85 L216.138 1832.59 L224.402 1830.92 L229.078 1830.92 L229.078 1861.55 L236.717 1861.55 L236.717 1865.48 L216.81 1865.48 L216.81 1861.55 Z" fill="#000000" fill-rule="evenodd" fill-opacity="1" /><path clip-path="url(#clip990)" d="M246.161 1859.6 L251.046 1859.6 L251.046 1865.48 L246.161 1865.48 L246.161 1859.6 Z" fill="#000000" fill-rule="evenodd" fill-opacity="1" /><path clip-path="url(#clip990)" d="M271.231 1834 Q267.62 1834 265.791 1837.57 Q263.985 1841.11 263.985 1848.24 Q263.985 1855.34 265.791 1858.91 Q267.62 1862.45 271.231 1862.45 Q274.865 1862.45 276.67 1858.91 Q278.499 1855.34 278.499 1848.24 Q278.499 1841.11 276.67 1837.57 Q274.865 1834 271.231 1834 M271.231 1830.3 Q277.041 1830.3 280.096 1834.9 Q283.175 1839.49 283.175 1848.24 Q283.175 1856.96 280.096 1861.57 Q277.041 1866.15 271.231 1866.15 Q265.42 1866.15 262.342 1861.57 Q259.286 1856.96 259.286 1848.24 Q259.286 1839.49 262.342 1834.9 Q265.42 1830.3 271.231 1830.3 Z" fill="#000000" fill-rule="evenodd" fill-opacity="1" /><path clip-path="url(#clip990)" d="M761.936 1848.65 L791.612 1848.65 L791.612 1852.59 L761.936 1852.59 L761.936 1848.65 Z" fill="#000000" fill-rule="evenodd" fill-opacity="1" /><path clip-path="url(#clip990)" d="M811.704 1834 Q808.093 1834 806.264 1837.57 Q804.459 1841.11 804.459 1848.24 Q804.459 1855.34 806.264 1858.91 Q808.093 1862.45 811.704 1862.45 Q815.338 1862.45 817.144 1858.91 Q818.973 1855.34 818.973 1848.24 Q818.973 1841.11 817.144 1837.57 Q815.338 1834 811.704 1834 M811.704 1830.3 Q817.514 1830.3 820.57 1834.9 Q823.648 1839.49 823.648 1848.24 Q823.648 1856.96 820.57 1861.57 Q817.514 1866.15 811.704 1866.15 Q805.894 1866.15 802.815 1861.57 Q799.76 1856.96 799.76 1848.24 Q799.76 1839.49 802.815 1834.9 Q805.894 1830.3 811.704 1830.3 Z" fill="#000000" fill-rule="evenodd" fill-opacity="1" /><path clip-path="url(#clip990)" d="M831.866 1859.6 L836.75 1859.6 L836.75 1865.48 L831.866 1865.48 L831.866 1859.6 Z" fill="#000000" fill-rule="evenodd" fill-opacity="1" /><path clip-path="url(#clip990)" d="M846.982 1830.92 L865.338 1830.92 L865.338 1834.86 L851.264 1834.86 L851.264 1843.33 Q852.283 1842.98 853.301 1842.82 Q854.32 1842.64 855.338 1842.64 Q861.125 1842.64 864.505 1845.81 Q867.884 1848.98 867.884 1854.4 Q867.884 1859.97 864.412 1863.08 Q860.94 1866.15 854.621 1866.15 Q852.445 1866.15 850.176 1865.78 Q847.931 1865.41 845.523 1864.67 L845.523 1859.97 Q847.607 1861.11 849.829 1861.66 Q852.051 1862.22 854.528 1862.22 Q858.533 1862.22 860.87 1860.11 Q863.208 1858.01 863.208 1854.4 Q863.208 1850.78 860.87 1848.68 Q858.533 1846.57 854.528 1846.57 Q852.653 1846.57 850.778 1846.99 Q848.926 1847.4 846.982 1848.28 L846.982 1830.92 Z" fill="#000000" fill-rule="evenodd" fill-opacity="1" /><path clip-path="url(#clip990)" d="M1377.5 1834 Q1373.89 1834 1372.06 1837.57 Q1370.26 1841.11 1370.26 1848.24 Q1370.26 1855.34 1372.06 1858.91 Q1373.89 1862.45 1377.5 1862.45 Q1381.14 1862.45 1382.94 1858.91 Q1384.77 1855.34 1384.77 1848.24 Q1384.77 1841.11 1382.94 1837.57 Q1381.14 1834 1377.5 1834 M1377.5 1830.3 Q1383.31 1830.3 1386.37 1834.9 Q1389.45 1839.49 1389.45 1848.24 Q1389.45 1856.96 1386.37 1861.57 Q1383.31 1866.15 1377.5 1866.15 Q1371.69 1866.15 1368.61 1861.57 Q1365.56 1856.96 1365.56 1848.24 Q1365.56 1839.49 1368.61 1834.9 Q1371.69 1830.3 1377.5 1830.3 Z" fill="#000000" fill-rule="evenodd" fill-opacity="1" /><path clip-path="url(#clip990)" d="M1397.66 1859.6 L1402.55 1859.6 L1402.55 1865.48 L1397.66 1865.48 L1397.66 1859.6 Z" fill="#000000" fill-rule="evenodd" fill-opacity="1" /><path clip-path="url(#clip990)" d="M1422.73 1834 Q1419.12 1834 1417.29 1837.57 Q1415.49 1841.11 1415.49 1848.24 Q1415.49 1855.34 1417.29 1858.91 Q1419.12 1862.45 1422.73 1862.45 Q1426.37 1862.45 1428.17 1858.91 Q1430 1855.34 1430 1848.24 Q1430 1841.11 1428.17 1837.57 Q1426.37 1834 1422.73 1834 M1422.73 1830.3 Q1428.54 1830.3 1431.6 1834.9 Q1434.68 1839.49 1434.68 1848.24 Q1434.68 1856.96 1431.6 1861.57 Q1428.54 1866.15 1422.73 1866.15 Q1416.92 1866.15 1413.84 1861.57 Q1410.79 1856.96 1410.79 1848.24 Q1410.79 1839.49 1413.84 1834.9 Q1416.92 1830.3 1422.73 1830.3 Z" fill="#000000" fill-rule="evenodd" fill-opacity="1" /><path clip-path="url(#clip990)" d="M1963.21 1834 Q1959.6 1834 1957.77 1837.57 Q1955.96 1841.11 1955.96 1848.24 Q1955.96 1855.34 1957.77 1858.91 Q1959.6 1862.45 1963.21 1862.45 Q1966.84 1862.45 1968.65 1858.91 Q1970.47 1855.34 1970.47 1848.24 Q1970.47 1841.11 1968.65 1837.57 Q1966.84 1834 1963.21 1834 M1963.21 1830.3 Q1969.02 1830.3 1972.07 1834.9 Q1975.15 1839.49 1975.15 1848.24 Q1975.15 1856.96 1972.07 1861.57 Q1969.02 1866.15 1963.21 1866.15 Q1957.4 1866.15 1954.32 1861.57 Q1951.26 1856.96 1951.26 1848.24 Q1951.26 1839.49 1954.32 1834.9 Q1957.4 1830.3 1963.21 1830.3 Z" fill="#000000" fill-rule="evenodd" fill-opacity="1" /><path clip-path="url(#clip990)" d="M1983.37 1859.6 L1988.25 1859.6 L1988.25 1865.48 L1983.37 1865.48 L1983.37 1859.6 Z" fill="#000000" fill-rule="evenodd" fill-opacity="1" /><path clip-path="url(#clip990)" d="M1998.48 1830.92 L2016.84 1830.92 L2016.84 1834.86 L2002.77 1834.86 L2002.77 1843.33 Q2003.78 1842.98 2004.8 1842.82 Q2005.82 1842.64 2006.84 1842.64 Q2012.63 1842.64 2016.01 1845.81 Q2019.39 1848.98 2019.39 1854.4 Q2019.39 1859.97 2015.91 1863.08 Q2012.44 1866.15 2006.12 1866.15 Q2003.95 1866.15 2001.68 1865.78 Q1999.43 1865.41 1997.03 1864.67 L1997.03 1859.97 Q1999.11 1861.11 2001.33 1861.66 Q2003.55 1862.22 2006.03 1862.22 Q2010.03 1862.22 2012.37 1860.11 Q2014.71 1858.01 2014.71 1854.4 Q2014.71 1850.78 2012.37 1848.68 Q2010.03 1846.57 2006.03 1846.57 Q2004.15 1846.57 2002.28 1846.99 Q2000.43 1847.4 1998.48 1848.28 L1998.48 1830.92 Z" fill="#000000" fill-rule="evenodd" fill-opacity="1" /><path clip-path="url(#clip990)" d="M2537.68 1861.55 L2545.32 1861.55 L2545.32 1835.18 L2537.01 1836.85 L2537.01 1832.59 L2545.28 1830.92 L2549.95 1830.92 L2549.95 1861.55 L2557.59 1861.55 L2557.59 1865.48 L2537.68 1865.48 L2537.68 1861.55 Z" fill="#000000" fill-rule="evenodd" fill-opacity="1" /><path clip-path="url(#clip990)" d="M2567.04 1859.6 L2571.92 1859.6 L2571.92 1865.48 L2567.04 1865.48 L2567.04 1859.6 Z" fill="#000000" fill-rule="evenodd" fill-opacity="1" /><path clip-path="url(#clip990)" d="M2592.11 1834 Q2588.49 1834 2586.67 1837.57 Q2584.86 1841.11 2584.86 1848.24 Q2584.86 1855.34 2586.67 1858.91 Q2588.49 1862.45 2592.11 1862.45 Q2595.74 1862.45 2597.54 1858.91 Q2599.37 1855.34 2599.37 1848.24 Q2599.37 1841.11 2597.54 1837.57 Q2595.74 1834 2592.11 1834 M2592.11 1830.3 Q2597.92 1830.3 2600.97 1834.9 Q2604.05 1839.49 2604.05 1848.24 Q2604.05 1856.96 2600.97 1861.57 Q2597.92 1866.15 2592.11 1866.15 Q2586.29 1866.15 2583.22 1861.57 Q2580.16 1856.96 2580.16 1848.24 Q2580.16 1839.49 2583.22 1834.9 Q2586.29 1830.3 2592.11 1830.3 Z" fill="#000000" fill-rule="evenodd" fill-opacity="1" /><polyline clip-path="url(#clip992)" style="stroke:#000000; stroke-linecap:butt; stroke-linejoin:round; stroke-width:2; stroke-opacity:0.1; fill:none" points="
  159.478,1751.15 2640.76,1751.15 
  "/>
<polyline clip-path="url(#clip992)" style="stroke:#000000; stroke-linecap:butt; stroke-linejoin:round; stroke-width:2; stroke-opacity:0.1; fill:none" points="
  159.478,1402.88 2640.76,1402.88 
  "/>
<polyline clip-path="url(#clip992)" style="stroke:#000000; stroke-linecap:butt; stroke-linejoin:round; stroke-width:2; stroke-opacity:0.1; fill:none" points="
  159.478,1054.61 2640.76,1054.61 
  "/>
<polyline clip-path="url(#clip992)" style="stroke:#000000; stroke-linecap:butt; stroke-linejoin:round; stroke-width:2; stroke-opacity:0.1; fill:none" points="
  159.478,706.343 2640.76,706.343 
  "/>
<polyline clip-path="url(#clip992)" style="stroke:#000000; stroke-linecap:butt; stroke-linejoin:round; stroke-width:2; stroke-opacity:0.1; fill:none" points="
  159.478,358.074 2640.76,358.074 
  "/>
<polyline clip-path="url(#clip990)" style="stroke:#000000; stroke-linecap:butt; stroke-linejoin:round; stroke-width:4; stroke-opacity:1; fill:none" points="
  159.478,1800.78 159.478,47.2441 
  "/>
<polyline clip-path="url(#clip990)" style="stroke:#000000; stroke-linecap:butt; stroke-linejoin:round; stroke-width:4; stroke-opacity:1; fill:none" points="
  159.478,1751.15 178.376,1751.15 
  "/>
<polyline clip-path="url(#clip990)" style="stroke:#000000; stroke-linecap:butt; stroke-linejoin:round; stroke-width:4; stroke-opacity:1; fill:none" points="
  159.478,1402.88 178.376,1402.88 
  "/>
<polyline clip-path="url(#clip990)" style="stroke:#000000; stroke-linecap:butt; stroke-linejoin:round; stroke-width:4; stroke-opacity:1; fill:none" points="
  159.478,1054.61 178.376,1054.61 
  "/>
<polyline clip-path="url(#clip990)" style="stroke:#000000; stroke-linecap:butt; stroke-linejoin:round; stroke-width:4; stroke-opacity:1; fill:none" points="
  159.478,706.343 178.376,706.343 
  "/>
<polyline clip-path="url(#clip990)" style="stroke:#000000; stroke-linecap:butt; stroke-linejoin:round; stroke-width:4; stroke-opacity:1; fill:none" points="
  159.478,358.074 178.376,358.074 
  "/>
<path clip-path="url(#clip990)" d="M61.9826 1736.95 Q58.3715 1736.95 56.5428 1740.51 Q54.7373 1744.06 54.7373 1751.19 Q54.7373 1758.29 56.5428 1761.86 Q58.3715 1765.4 61.9826 1765.4 Q65.6169 1765.4 67.4224 1761.86 Q69.2511 1758.29 69.2511 1751.19 Q69.2511 1744.06 67.4224 1740.51 Q65.6169 1736.95 61.9826 1736.95 M61.9826 1733.25 Q67.7928 1733.25 70.8483 1737.85 Q73.927 1742.44 73.927 1751.19 Q73.927 1759.91 70.8483 1764.52 Q67.7928 1769.1 61.9826 1769.1 Q56.1725 1769.1 53.0938 1764.52 Q50.0382 1759.91 50.0382 1751.19 Q50.0382 1742.44 53.0938 1737.85 Q56.1725 1733.25 61.9826 1733.25 Z" fill="#000000" fill-rule="evenodd" fill-opacity="1" /><path clip-path="url(#clip990)" d="M82.1445 1762.55 L87.0288 1762.55 L87.0288 1768.43 L82.1445 1768.43 L82.1445 1762.55 Z" fill="#000000" fill-rule="evenodd" fill-opacity="1" /><path clip-path="url(#clip990)" d="M107.214 1736.95 Q103.603 1736.95 101.774 1740.51 Q99.9685 1744.06 99.9685 1751.19 Q99.9685 1758.29 101.774 1761.86 Q103.603 1765.4 107.214 1765.4 Q110.848 1765.4 112.654 1761.86 Q114.482 1758.29 114.482 1751.19 Q114.482 1744.06 112.654 1740.51 Q110.848 1736.95 107.214 1736.95 M107.214 1733.25 Q113.024 1733.25 116.08 1737.85 Q119.158 1742.44 119.158 1751.19 Q119.158 1759.91 116.08 1764.52 Q113.024 1769.1 107.214 1769.1 Q101.404 1769.1 98.325 1764.52 Q95.2695 1759.91 95.2695 1751.19 Q95.2695 1742.44 98.325 1737.85 Q101.404 1733.25 107.214 1733.25 Z" fill="#000000" fill-rule="evenodd" fill-opacity="1" /><path clip-path="url(#clip990)" d="M63.5798 1388.68 Q59.9687 1388.68 58.14 1392.25 Q56.3345 1395.79 56.3345 1402.92 Q56.3345 1410.02 58.14 1413.59 Q59.9687 1417.13 63.5798 1417.13 Q67.2141 1417.13 69.0196 1413.59 Q70.8483 1410.02 70.8483 1402.92 Q70.8483 1395.79 69.0196 1392.25 Q67.2141 1388.68 63.5798 1388.68 M63.5798 1384.98 Q69.39 1384.98 72.4455 1389.58 Q75.5242 1394.17 75.5242 1402.92 Q75.5242 1411.64 72.4455 1416.25 Q69.39 1420.83 63.5798 1420.83 Q57.7697 1420.83 54.691 1416.25 Q51.6354 1411.64 51.6354 1402.92 Q51.6354 1394.17 54.691 1389.58 Q57.7697 1384.98 63.5798 1384.98 Z" fill="#000000" fill-rule="evenodd" fill-opacity="1" /><path clip-path="url(#clip990)" d="M83.7418 1414.28 L88.626 1414.28 L88.626 1420.16 L83.7418 1420.16 L83.7418 1414.28 Z" fill="#000000" fill-rule="evenodd" fill-opacity="1" /><path clip-path="url(#clip990)" d="M102.839 1416.23 L119.158 1416.23 L119.158 1420.16 L97.2139 1420.16 L97.2139 1416.23 Q99.8759 1413.47 104.459 1408.84 Q109.066 1404.19 110.246 1402.85 Q112.492 1400.32 113.371 1398.59 Q114.274 1396.83 114.274 1395.14 Q114.274 1392.38 112.33 1390.65 Q110.408 1388.91 107.306 1388.91 Q105.107 1388.91 102.654 1389.68 Q100.223 1390.44 97.4454 1391.99 L97.4454 1387.27 Q100.269 1386.13 102.723 1385.56 Q105.177 1384.98 107.214 1384.98 Q112.584 1384.98 115.779 1387.66 Q118.973 1390.35 118.973 1394.84 Q118.973 1396.97 118.163 1398.89 Q117.376 1400.79 115.269 1403.38 Q114.691 1404.05 111.589 1407.27 Q108.487 1410.46 102.839 1416.23 Z" fill="#000000" fill-rule="evenodd" fill-opacity="1" /><path clip-path="url(#clip990)" d="M61.4965 1040.41 Q57.8854 1040.41 56.0567 1043.98 Q54.2512 1047.52 54.2512 1054.65 Q54.2512 1061.75 56.0567 1065.32 Q57.8854 1068.86 61.4965 1068.86 Q65.1307 1068.86 66.9363 1065.32 Q68.765 1061.75 68.765 1054.65 Q68.765 1047.52 66.9363 1043.98 Q65.1307 1040.41 61.4965 1040.41 M61.4965 1036.71 Q67.3067 1036.71 70.3622 1041.31 Q73.4409 1045.9 73.4409 1054.65 Q73.4409 1063.37 70.3622 1067.98 Q67.3067 1072.56 61.4965 1072.56 Q55.6864 1072.56 52.6077 1067.98 Q49.5521 1063.37 49.5521 1054.65 Q49.5521 1045.9 52.6077 1041.31 Q55.6864 1036.71 61.4965 1036.71 Z" fill="#000000" fill-rule="evenodd" fill-opacity="1" /><path clip-path="url(#clip990)" d="M81.6584 1066.01 L86.5427 1066.01 L86.5427 1071.89 L81.6584 1071.89 L81.6584 1066.01 Z" fill="#000000" fill-rule="evenodd" fill-opacity="1" /><path clip-path="url(#clip990)" d="M109.575 1041.41 L97.7695 1059.86 L109.575 1059.86 L109.575 1041.41 M108.348 1037.33 L114.228 1037.33 L114.228 1059.86 L119.158 1059.86 L119.158 1063.74 L114.228 1063.74 L114.228 1071.89 L109.575 1071.89 L109.575 1063.74 L93.9732 1063.74 L93.9732 1059.23 L108.348 1037.33 Z" fill="#000000" fill-rule="evenodd" fill-opacity="1" /><path clip-path="url(#clip990)" d="M61.8206 692.142 Q58.2095 692.142 56.3808 695.707 Q54.5752 699.249 54.5752 706.378 Q54.5752 713.485 56.3808 717.049 Q58.2095 720.591 61.8206 720.591 Q65.4548 720.591 67.2604 717.049 Q69.0891 713.485 69.0891 706.378 Q69.0891 699.249 67.2604 695.707 Q65.4548 692.142 61.8206 692.142 M61.8206 688.438 Q67.6307 688.438 70.6863 693.045 Q73.765 697.628 73.765 706.378 Q73.765 715.105 70.6863 719.711 Q67.6307 724.295 61.8206 724.295 Q56.0104 724.295 52.9317 719.711 Q49.8762 715.105 49.8762 706.378 Q49.8762 697.628 52.9317 693.045 Q56.0104 688.438 61.8206 688.438 Z" fill="#000000" fill-rule="evenodd" fill-opacity="1" /><path clip-path="url(#clip990)" d="M81.9825 717.744 L86.8667 717.744 L86.8667 723.623 L81.9825 723.623 L81.9825 717.744 Z" fill="#000000" fill-rule="evenodd" fill-opacity="1" /><path clip-path="url(#clip990)" d="M107.631 704.48 Q104.482 704.48 102.631 706.633 Q100.802 708.786 100.802 712.536 Q100.802 716.262 102.631 718.438 Q104.482 720.591 107.631 720.591 Q110.779 720.591 112.607 718.438 Q114.459 716.262 114.459 712.536 Q114.459 708.786 112.607 706.633 Q110.779 704.48 107.631 704.48 M116.913 689.827 L116.913 694.087 Q115.154 693.253 113.348 692.813 Q111.566 692.374 109.806 692.374 Q105.177 692.374 102.723 695.499 Q100.293 698.624 99.9454 704.943 Q101.311 702.929 103.371 701.864 Q105.431 700.776 107.908 700.776 Q113.117 700.776 116.126 703.948 Q119.158 707.096 119.158 712.536 Q119.158 717.86 116.01 721.077 Q112.862 724.295 107.631 724.295 Q101.635 724.295 98.4639 719.711 Q95.2926 715.105 95.2926 706.378 Q95.2926 698.184 99.1815 693.323 Q103.07 688.438 109.621 688.438 Q111.38 688.438 113.163 688.786 Q114.968 689.133 116.913 689.827 Z" fill="#000000" fill-rule="evenodd" fill-opacity="1" /><path clip-path="url(#clip990)" d="M62.0752 343.873 Q58.4641 343.873 56.6354 347.438 Q54.8299 350.979 54.8299 358.109 Q54.8299 365.215 56.6354 368.78 Q58.4641 372.322 62.0752 372.322 Q65.7094 372.322 67.515 368.78 Q69.3437 365.215 69.3437 358.109 Q69.3437 350.979 67.515 347.438 Q65.7094 343.873 62.0752 343.873 M62.0752 340.169 Q67.8854 340.169 70.9409 344.776 Q74.0196 349.359 74.0196 358.109 Q74.0196 366.836 70.9409 371.442 Q67.8854 376.026 62.0752 376.026 Q56.2651 376.026 53.1864 371.442 Q50.1308 366.836 50.1308 358.109 Q50.1308 349.359 53.1864 344.776 Q56.2651 340.169 62.0752 340.169 Z" fill="#000000" fill-rule="evenodd" fill-opacity="1" /><path clip-path="url(#clip990)" d="M82.2371 369.475 L87.1214 369.475 L87.1214 375.354 L82.2371 375.354 L82.2371 369.475 Z" fill="#000000" fill-rule="evenodd" fill-opacity="1" /><path clip-path="url(#clip990)" d="M107.306 358.942 Q103.973 358.942 102.052 360.725 Q100.154 362.507 100.154 365.632 Q100.154 368.757 102.052 370.54 Q103.973 372.322 107.306 372.322 Q110.64 372.322 112.561 370.54 Q114.482 368.734 114.482 365.632 Q114.482 362.507 112.561 360.725 Q110.663 358.942 107.306 358.942 M102.631 356.952 Q99.6213 356.211 97.9315 354.151 Q96.2648 352.091 96.2648 349.128 Q96.2648 344.984 99.2046 342.577 Q102.168 340.169 107.306 340.169 Q112.468 340.169 115.408 342.577 Q118.348 344.984 118.348 349.128 Q118.348 352.091 116.658 354.151 Q114.992 356.211 112.005 356.952 Q115.385 357.739 117.26 360.03 Q119.158 362.322 119.158 365.632 Q119.158 370.655 116.08 373.34 Q113.024 376.026 107.306 376.026 Q101.589 376.026 98.5102 373.34 Q95.4547 370.655 95.4547 365.632 Q95.4547 362.322 97.3528 360.03 Q99.2509 357.739 102.631 356.952 M100.918 349.567 Q100.918 352.253 102.584 353.757 Q104.274 355.262 107.306 355.262 Q110.316 355.262 112.005 353.757 Q113.718 352.253 113.718 349.567 Q113.718 346.882 112.005 345.378 Q110.316 343.873 107.306 343.873 Q104.274 343.873 102.584 345.378 Q100.918 346.882 100.918 349.567 Z" fill="#000000" fill-rule="evenodd" fill-opacity="1" /><path clip-path="url(#clip992)" d="
M229.703 1751.15 L346.744 1751.15 L346.744 1664.08 L229.703 1664.08 L229.703 1751.15  Z
  " fill="#ff0000" fill-rule="evenodd" fill-opacity="1"/>
<polyline clip-path="url(#clip992)" style="stroke:#000000; stroke-linecap:butt; stroke-linejoin:round; stroke-width:4; stroke-opacity:1; fill:none" points="
  229.703,1751.15 346.744,1751.15 346.744,1664.08 229.703,1664.08 229.703,1751.15 
  "/>
<path clip-path="url(#clip992)" d="
M346.744 1751.15 L463.786 1751.15 L463.786 1489.95 L346.744 1489.95 L346.744 1751.15  Z
  " fill="#ff0000" fill-rule="evenodd" fill-opacity="1"/>
<polyline clip-path="url(#clip992)" style="stroke:#000000; stroke-linecap:butt; stroke-linejoin:round; stroke-width:4; stroke-opacity:1; fill:none" points="
  346.744,1751.15 463.786,1751.15 463.786,1489.95 346.744,1489.95 346.744,1751.15 
  "/>
<path clip-path="url(#clip992)" d="
M463.786 1751.15 L580.827 1751.15 L580.827 1315.81 L463.786 1315.81 L463.786 1751.15  Z
  " fill="#ff0000" fill-rule="evenodd" fill-opacity="1"/>
<polyline clip-path="url(#clip992)" style="stroke:#000000; stroke-linecap:butt; stroke-linejoin:round; stroke-width:4; stroke-opacity:1; fill:none" points="
  463.786,1751.15 580.827,1751.15 580.827,1315.81 463.786,1315.81 463.786,1751.15 
  "/>
<path clip-path="url(#clip992)" d="
M580.827 1751.15 L697.869 1751.15 L697.869 1141.68 L580.827 1141.68 L580.827 1751.15  Z
  " fill="#ff0000" fill-rule="evenodd" fill-opacity="1"/>
<polyline clip-path="url(#clip992)" style="stroke:#000000; stroke-linecap:butt; stroke-linejoin:round; stroke-width:4; stroke-opacity:1; fill:none" points="
  580.827,1751.15 697.869,1751.15 697.869,1141.68 580.827,1141.68 580.827,1751.15 
  "/>
<path clip-path="url(#clip992)" d="
M697.869 1751.15 L814.91 1751.15 L814.91 967.545 L697.869 967.545 L697.869 1751.15  Z
  " fill="#ff0000" fill-rule="evenodd" fill-opacity="1"/>
<polyline clip-path="url(#clip992)" style="stroke:#000000; stroke-linecap:butt; stroke-linejoin:round; stroke-width:4; stroke-opacity:1; fill:none" points="
  697.869,1751.15 814.91,1751.15 814.91,967.545 697.869,967.545 697.869,1751.15 
  "/>
<path clip-path="url(#clip992)" d="
M814.91 1751.15 L931.951 1751.15 L931.951 793.411 L814.91 793.411 L814.91 1751.15  Z
  " fill="#ff0000" fill-rule="evenodd" fill-opacity="1"/>
<polyline clip-path="url(#clip992)" style="stroke:#000000; stroke-linecap:butt; stroke-linejoin:round; stroke-width:4; stroke-opacity:1; fill:none" points="
  814.91,1751.15 931.951,1751.15 931.951,793.411 814.91,793.411 814.91,1751.15 
  "/>
<path clip-path="url(#clip992)" d="
M931.951 1751.15 L1048.99 1751.15 L1048.99 619.276 L931.951 619.276 L931.951 1751.15  Z
  " fill="#ff0000" fill-rule="evenodd" fill-opacity="1"/>
<polyline clip-path="url(#clip992)" style="stroke:#000000; stroke-linecap:butt; stroke-linejoin:round; stroke-width:4; stroke-opacity:1; fill:none" points="
  931.951,1751.15 1048.99,1751.15 1048.99,619.276 931.951,619.276 931.951,1751.15 
  "/>
<path clip-path="url(#clip992)" d="
M1048.99 1751.15 L1166.03 1751.15 L1166.03 445.142 L1048.99 445.142 L1048.99 1751.15  Z
  " fill="#ff0000" fill-rule="evenodd" fill-opacity="1"/>
<polyline clip-path="url(#clip992)" style="stroke:#000000; stroke-linecap:butt; stroke-linejoin:round; stroke-width:4; stroke-opacity:1; fill:none" points="
  1048.99,1751.15 1166.03,1751.15 1166.03,445.142 1048.99,445.142 1048.99,1751.15 
  "/>
<path clip-path="url(#clip992)" d="
M1166.03 1751.15 L1283.08 1751.15 L1283.08 271.007 L1166.03 271.007 L1166.03 1751.15  Z
  " fill="#ff0000" fill-rule="evenodd" fill-opacity="1"/>
<polyline clip-path="url(#clip992)" style="stroke:#000000; stroke-linecap:butt; stroke-linejoin:round; stroke-width:4; stroke-opacity:1; fill:none" points="
  1166.03,1751.15 1283.08,1751.15 1283.08,271.007 1166.03,271.007 1166.03,1751.15 
  "/>
<path clip-path="url(#clip992)" d="
M1283.08 1751.15 L1400.12 1751.15 L1400.12 96.8724 L1283.08 96.8724 L1283.08 1751.15  Z
  " fill="#ff0000" fill-rule="evenodd" fill-opacity="1"/>
<polyline clip-path="url(#clip992)" style="stroke:#000000; stroke-linecap:butt; stroke-linejoin:round; stroke-width:4; stroke-opacity:1; fill:none" points="
  1283.08,1751.15 1400.12,1751.15 1400.12,96.8724 1283.08,96.8724 1283.08,1751.15 
  "/>
<path clip-path="url(#clip992)" d="
M1400.12 1751.15 L1517.16 1751.15 L1517.16 96.8724 L1400.12 96.8724 L1400.12 1751.15  Z
  " fill="#ff0000" fill-rule="evenodd" fill-opacity="1"/>
<polyline clip-path="url(#clip992)" style="stroke:#000000; stroke-linecap:butt; stroke-linejoin:round; stroke-width:4; stroke-opacity:1; fill:none" points="
  1400.12,1751.15 1517.16,1751.15 1517.16,96.8724 1400.12,96.8724 1400.12,1751.15 
  "/>
<path clip-path="url(#clip992)" d="
M1517.16 1751.15 L1634.2 1751.15 L1634.2 271.007 L1517.16 271.007 L1517.16 1751.15  Z
  " fill="#ff0000" fill-rule="evenodd" fill-opacity="1"/>
<polyline clip-path="url(#clip992)" style="stroke:#000000; stroke-linecap:butt; stroke-linejoin:round; stroke-width:4; stroke-opacity:1; fill:none" points="
  1517.16,1751.15 1634.2,1751.15 1634.2,271.007 1517.16,271.007 1517.16,1751.15 
  "/>
<path clip-path="url(#clip992)" d="
M1634.2 1751.15 L1751.24 1751.15 L1751.24 445.142 L1634.2 445.142 L1634.2 1751.15  Z
  " fill="#ff0000" fill-rule="evenodd" fill-opacity="1"/>
<polyline clip-path="url(#clip992)" style="stroke:#000000; stroke-linecap:butt; stroke-linejoin:round; stroke-width:4; stroke-opacity:1; fill:none" points="
  1634.2,1751.15 1751.24,1751.15 1751.24,445.142 1634.2,445.142 1634.2,1751.15 
  "/>
<path clip-path="url(#clip992)" d="
M1751.24 1751.15 L1868.28 1751.15 L1868.28 619.276 L1751.24 619.276 L1751.24 1751.15  Z
  " fill="#ff0000" fill-rule="evenodd" fill-opacity="1"/>
<polyline clip-path="url(#clip992)" style="stroke:#000000; stroke-linecap:butt; stroke-linejoin:round; stroke-width:4; stroke-opacity:1; fill:none" points="
  1751.24,1751.15 1868.28,1751.15 1868.28,619.276 1751.24,619.276 1751.24,1751.15 
  "/>
<path clip-path="url(#clip992)" d="
M1868.28 1751.15 L1985.32 1751.15 L1985.32 793.411 L1868.28 793.411 L1868.28 1751.15  Z
  " fill="#ff0000" fill-rule="evenodd" fill-opacity="1"/>
<polyline clip-path="url(#clip992)" style="stroke:#000000; stroke-linecap:butt; stroke-linejoin:round; stroke-width:4; stroke-opacity:1; fill:none" points="
  1868.28,1751.15 1985.32,1751.15 1985.32,793.411 1868.28,793.411 1868.28,1751.15 
  "/>
<path clip-path="url(#clip992)" d="
M1985.32 1751.15 L2102.37 1751.15 L2102.37 967.545 L1985.32 967.545 L1985.32 1751.15  Z
  " fill="#ff0000" fill-rule="evenodd" fill-opacity="1"/>
<polyline clip-path="url(#clip992)" style="stroke:#000000; stroke-linecap:butt; stroke-linejoin:round; stroke-width:4; stroke-opacity:1; fill:none" points="
  1985.32,1751.15 2102.37,1751.15 2102.37,967.545 1985.32,967.545 1985.32,1751.15 
  "/>
<path clip-path="url(#clip992)" d="
M2102.37 1751.15 L2219.41 1751.15 L2219.41 1141.68 L2102.37 1141.68 L2102.37 1751.15  Z
  " fill="#ff0000" fill-rule="evenodd" fill-opacity="1"/>
<polyline clip-path="url(#clip992)" style="stroke:#000000; stroke-linecap:butt; stroke-linejoin:round; stroke-width:4; stroke-opacity:1; fill:none" points="
  2102.37,1751.15 2219.41,1751.15 2219.41,1141.68 2102.37,1141.68 2102.37,1751.15 
  "/>
<path clip-path="url(#clip992)" d="
M2219.41 1751.15 L2336.45 1751.15 L2336.45 1315.81 L2219.41 1315.81 L2219.41 1751.15  Z
  " fill="#ff0000" fill-rule="evenodd" fill-opacity="1"/>
<polyline clip-path="url(#clip992)" style="stroke:#000000; stroke-linecap:butt; stroke-linejoin:round; stroke-width:4; stroke-opacity:1; fill:none" points="
  2219.41,1751.15 2336.45,1751.15 2336.45,1315.81 2219.41,1315.81 2219.41,1751.15 
  "/>
<path clip-path="url(#clip992)" d="
M2336.45 1751.15 L2453.49 1751.15 L2453.49 1489.95 L2336.45 1489.95 L2336.45 1751.15  Z
  " fill="#ff0000" fill-rule="evenodd" fill-opacity="1"/>
<polyline clip-path="url(#clip992)" style="stroke:#000000; stroke-linecap:butt; stroke-linejoin:round; stroke-width:4; stroke-opacity:1; fill:none" points="
  2336.45,1751.15 2453.49,1751.15 2453.49,1489.95 2336.45,1489.95 2336.45,1751.15 
  "/>
<path clip-path="url(#clip992)" d="
M2453.49 1751.15 L2570.53 1751.15 L2570.53 1664.08 L2453.49 1664.08 L2453.49 1751.15  Z
  " fill="#ff0000" fill-rule="evenodd" fill-opacity="1"/>
<polyline clip-path="url(#clip992)" style="stroke:#000000; stroke-linecap:butt; stroke-linejoin:round; stroke-width:4; stroke-opacity:1; fill:none" points="
  2453.49,1751.15 2570.53,1751.15 2570.53,1664.08 2453.49,1664.08 2453.49,1751.15 
  "/>
<circle clip-path="url(#clip992)" cx="288.224" cy="1577.02" r="2.16" fill="#ffa500" fill-rule="evenodd" fill-opacity="1" stroke="#000000" stroke-opacity="1" stroke-width="3.84"/>
<circle clip-path="url(#clip992)" cx="405.265" cy="1577.02" r="6.48" fill="#ffa500" fill-rule="evenodd" fill-opacity="1" stroke="#000000" stroke-opacity="1" stroke-width="3.84"/>
<circle clip-path="url(#clip992)" cx="522.307" cy="1577.02" r="10.8" fill="#ffa500" fill-rule="evenodd" fill-opacity="1" stroke="#000000" stroke-opacity="1" stroke-width="3.84"/>
<circle clip-path="url(#clip992)" cx="639.348" cy="1577.02" r="15.12" fill="#ffa500" fill-rule="evenodd" fill-opacity="1" stroke="#000000" stroke-opacity="1" stroke-width="3.84"/>
<circle clip-path="url(#clip992)" cx="756.389" cy="1577.02" r="19.44" fill="#ffa500" fill-rule="evenodd" fill-opacity="1" stroke="#000000" stroke-opacity="1" stroke-width="3.84"/>
<circle clip-path="url(#clip992)" cx="873.431" cy="1577.02" r="23.76" fill="#ffa500" fill-rule="evenodd" fill-opacity="1" stroke="#000000" stroke-opacity="1" stroke-width="3.84"/>
<circle clip-path="url(#clip992)" cx="990.472" cy="1577.02" r="28.08" fill="#ffa500" fill-rule="evenodd" fill-opacity="1" stroke="#000000" stroke-opacity="1" stroke-width="3.84"/>
<circle clip-path="url(#clip992)" cx="1107.51" cy="1577.02" r="32.4" fill="#ffa500" fill-rule="evenodd" fill-opacity="1" stroke="#000000" stroke-opacity="1" stroke-width="3.84"/>
<circle clip-path="url(#clip992)" cx="1224.55" cy="1577.02" r="36.72" fill="#ffa500" fill-rule="evenodd" fill-opacity="1" stroke="#000000" stroke-opacity="1" stroke-width="3.84"/>
<circle clip-path="url(#clip992)" cx="1341.6" cy="1577.02" r="41.04" fill="#ffa500" fill-rule="evenodd" fill-opacity="1" stroke="#000000" stroke-opacity="1" stroke-width="3.84"/>
<circle clip-path="url(#clip992)" cx="1458.64" cy="1577.02" r="41.04" fill="#ffa500" fill-rule="evenodd" fill-opacity="1" stroke="#000000" stroke-opacity="1" stroke-width="3.84"/>
<circle clip-path="url(#clip992)" cx="1575.68" cy="1577.02" r="36.72" fill="#ffa500" fill-rule="evenodd" fill-opacity="1" stroke="#000000" stroke-opacity="1" stroke-width="3.84"/>
<circle clip-path="url(#clip992)" cx="1692.72" cy="1577.02" r="32.4" fill="#ffa500" fill-rule="evenodd" fill-opacity="1" stroke="#000000" stroke-opacity="1" stroke-width="3.84"/>
<circle clip-path="url(#clip992)" cx="1809.76" cy="1577.02" r="28.08" fill="#ffa500" fill-rule="evenodd" fill-opacity="1" stroke="#000000" stroke-opacity="1" stroke-width="3.84"/>
<circle clip-path="url(#clip992)" cx="1926.8" cy="1577.02" r="23.76" fill="#ffa500" fill-rule="evenodd" fill-opacity="1" stroke="#000000" stroke-opacity="1" stroke-width="3.84"/>
<circle clip-path="url(#clip992)" cx="2043.84" cy="1577.02" r="19.44" fill="#ffa500" fill-rule="evenodd" fill-opacity="1" stroke="#000000" stroke-opacity="1" stroke-width="3.84"/>
<circle clip-path="url(#clip992)" cx="2160.89" cy="1577.02" r="15.12" fill="#ffa500" fill-rule="evenodd" fill-opacity="1" stroke="#000000" stroke-opacity="1" stroke-width="3.84"/>
<circle clip-path="url(#clip992)" cx="2277.93" cy="1577.02" r="10.8" fill="#ffa500" fill-rule="evenodd" fill-opacity="1" stroke="#000000" stroke-opacity="1" stroke-width="3.84"/>
<circle clip-path="url(#clip992)" cx="2394.97" cy="1577.02" r="6.48" fill="#ffa500" fill-rule="evenodd" fill-opacity="1" stroke="#000000" stroke-opacity="1" stroke-width="3.84"/>
<circle clip-path="url(#clip992)" cx="2512.01" cy="1577.02" r="2.16" fill="#ffa500" fill-rule="evenodd" fill-opacity="1" stroke="#000000" stroke-opacity="1" stroke-width="3.84"/>
<polyline clip-path="url(#clip992)" style="stroke:#00a98d; stroke-linecap:butt; stroke-linejoin:round; stroke-width:4; stroke-opacity:1; fill:none" points="
  229.703,1751.15 2570.53,1751.15 
  "/>
</svg>
