<?xml version="1.0" encoding="utf-8"?>
<svg xmlns="http://www.w3.org/2000/svg" xmlns:xlink="http://www.w3.org/1999/xlink" width="672" height="480" viewBox="0 0 2688 1920">
<defs>
  <clipPath id="clip120">
    <rect x="0" y="0" width="2688" height="1920"/>
  </clipPath>
</defs>
<path clip-path="url(#clip120)" d="
M0 1920 L2688 1920 L2688 0 L0 0  Z
  " fill="#ffffff" fill-rule="evenodd" fill-opacity="1"/>
<defs>
  <clipPath id="clip121">
    <rect x="537" y="0" width="1883" height="1883"/>
  </clipPath>
</defs>
<path clip-path="url(#clip120)" d="
M150.358 1800.78 L2640.76 1800.78 L2640.76 47.2441 L150.358 47.2441  Z
  " fill="#ffffff" fill-rule="evenodd" fill-opacity="1"/>
<defs>
  <clipPath id="clip122">
    <rect x="150" y="47" width="2491" height="1755"/>
  </clipPath>
</defs>
<polyline clip-path="url(#clip122)" style="stroke:#000000; stroke-linecap:butt; stroke-linejoin:round; stroke-width:2; stroke-opacity:0.1; fill:none" points="
  154.758,1800.78 154.758,47.2441 
  "/>
<polyline clip-path="url(#clip122)" style="stroke:#000000; stroke-linecap:butt; stroke-linejoin:round; stroke-width:2; stroke-opacity:0.1; fill:none" points="
  568.34,1800.78 568.34,47.2441 
  "/>
<polyline clip-path="url(#clip122)" style="stroke:#000000; stroke-linecap:butt; stroke-linejoin:round; stroke-width:2; stroke-opacity:0.1; fill:none" points="
  981.923,1800.78 981.923,47.2441 
  "/>
<polyline clip-path="url(#clip122)" style="stroke:#000000; stroke-linecap:butt; stroke-linejoin:round; stroke-width:2; stroke-opacity:0.1; fill:none" points="
  1395.51,1800.78 1395.51,47.2441 
  "/>
<polyline clip-path="url(#clip122)" style="stroke:#000000; stroke-linecap:butt; stroke-linejoin:round; stroke-width:2; stroke-opacity:0.1; fill:none" points="
  1809.09,1800.78 1809.09,47.2441 
  "/>
<polyline clip-path="url(#clip122)" style="stroke:#000000; stroke-linecap:butt; stroke-linejoin:round; stroke-width:2; stroke-opacity:0.1; fill:none" points="
  2222.67,1800.78 2222.67,47.2441 
  "/>
<polyline clip-path="url(#clip122)" style="stroke:#000000; stroke-linecap:butt; stroke-linejoin:round; stroke-width:2; stroke-opacity:0.1; fill:none" points="
  2636.25,1800.78 2636.25,47.2441 
  "/>
<polyline clip-path="url(#clip120)" style="stroke:#000000; stroke-linecap:butt; stroke-linejoin:round; stroke-width:4; stroke-opacity:1; fill:none" points="
  150.358,1800.78 2640.76,1800.78 
  "/>
<polyline clip-path="url(#clip120)" style="stroke:#000000; stroke-linecap:butt; stroke-linejoin:round; stroke-width:4; stroke-opacity:1; fill:none" points="
  154.758,1800.78 154.758,1781.88 
  "/>
<polyline clip-path="url(#clip120)" style="stroke:#000000; stroke-linecap:butt; stroke-linejoin:round; stroke-width:4; stroke-opacity:1; fill:none" points="
  568.34,1800.78 568.34,1781.88 
  "/>
<polyline clip-path="url(#clip120)" style="stroke:#000000; stroke-linecap:butt; stroke-linejoin:round; stroke-width:4; stroke-opacity:1; fill:none" points="
  981.923,1800.78 981.923,1781.88 
  "/>
<polyline clip-path="url(#clip120)" style="stroke:#000000; stroke-linecap:butt; stroke-linejoin:round; stroke-width:4; stroke-opacity:1; fill:none" points="
  1395.51,1800.78 1395.51,1781.88 
  "/>
<polyline clip-path="url(#clip120)" style="stroke:#000000; stroke-linecap:butt; stroke-linejoin:round; stroke-width:4; stroke-opacity:1; fill:none" points="
  1809.09,1800.78 1809.09,1781.88 
  "/>
<polyline clip-path="url(#clip120)" style="stroke:#000000; stroke-linecap:butt; stroke-linejoin:round; stroke-width:4; stroke-opacity:1; fill:none" points="
  2222.67,1800.78 2222.67,1781.88 
  "/>
<polyline clip-path="url(#clip120)" style="stroke:#000000; stroke-linecap:butt; stroke-linejoin:round; stroke-width:4; stroke-opacity:1; fill:none" points="
  2636.25,1800.78 2636.25,1781.88 
  "/>
<path clip-path="url(#clip120)" d="M124.226 1848.65 L153.901 1848.65 L153.901 1852.59 L124.226 1852.59 L124.226 1848.65 Z" fill="#000000" fill-rule="evenodd" fill-opacity="1" /><path clip-path="url(#clip120)" d="M178.16 1846.85 Q181.517 1847.57 183.392 1849.84 Q185.29 1852.1 185.29 1855.44 Q185.29 1860.55 181.772 1863.35 Q178.253 1866.15 171.772 1866.15 Q169.596 1866.15 167.281 1865.71 Q164.989 1865.3 162.536 1864.44 L162.536 1859.93 Q164.48 1861.06 166.795 1861.64 Q169.11 1862.22 171.633 1862.22 Q176.031 1862.22 178.323 1860.48 Q180.637 1858.75 180.637 1855.44 Q180.637 1852.38 178.485 1850.67 Q176.355 1848.93 172.536 1848.93 L168.508 1848.93 L168.508 1845.09 L172.721 1845.09 Q176.17 1845.09 177.998 1843.72 Q179.827 1842.34 179.827 1839.74 Q179.827 1837.08 177.929 1835.67 Q176.054 1834.23 172.536 1834.23 Q170.614 1834.23 168.415 1834.65 Q166.216 1835.07 163.577 1835.95 L163.577 1831.78 Q166.239 1831.04 168.554 1830.67 Q170.892 1830.3 172.952 1830.3 Q178.276 1830.3 181.378 1832.73 Q184.48 1835.14 184.48 1839.26 Q184.48 1842.13 182.836 1844.12 Q181.193 1846.09 178.16 1846.85 Z" fill="#000000" fill-rule="evenodd" fill-opacity="1" /><path clip-path="url(#clip120)" d="M538.283 1848.65 L567.958 1848.65 L567.958 1852.59 L538.283 1852.59 L538.283 1848.65 Z" fill="#000000" fill-rule="evenodd" fill-opacity="1" /><path clip-path="url(#clip120)" d="M582.079 1861.55 L598.398 1861.55 L598.398 1865.48 L576.454 1865.48 L576.454 1861.55 Q579.116 1858.79 583.699 1854.16 Q588.306 1849.51 589.486 1848.17 Q591.731 1845.65 592.611 1843.91 Q593.514 1842.15 593.514 1840.46 Q593.514 1837.71 591.569 1835.97 Q589.648 1834.23 586.546 1834.23 Q584.347 1834.23 581.894 1835 Q579.463 1835.76 576.685 1837.31 L576.685 1832.59 Q579.509 1831.46 581.963 1830.88 Q584.417 1830.3 586.454 1830.3 Q591.824 1830.3 595.018 1832.98 Q598.213 1835.67 598.213 1840.16 Q598.213 1842.29 597.403 1844.21 Q596.616 1846.11 594.509 1848.7 Q593.93 1849.37 590.829 1852.59 Q587.727 1855.78 582.079 1861.55 Z" fill="#000000" fill-rule="evenodd" fill-opacity="1" /><path clip-path="url(#clip120)" d="M951.68 1848.65 L981.356 1848.65 L981.356 1852.59 L951.68 1852.59 L951.68 1848.65 Z" fill="#000000" fill-rule="evenodd" fill-opacity="1" /><path clip-path="url(#clip120)" d="M992.258 1861.55 L999.897 1861.55 L999.897 1835.18 L991.587 1836.85 L991.587 1832.59 L999.851 1830.92 L1004.53 1830.92 L1004.53 1861.55 L1012.17 1861.55 L1012.17 1865.48 L992.258 1865.48 L992.258 1861.55 Z" fill="#000000" fill-rule="evenodd" fill-opacity="1" /><path clip-path="url(#clip120)" d="M1395.51 1834 Q1391.89 1834 1390.07 1837.57 Q1388.26 1841.11 1388.26 1848.24 Q1388.26 1855.34 1390.07 1858.91 Q1391.89 1862.45 1395.51 1862.45 Q1399.14 1862.45 1400.95 1858.91 Q1402.77 1855.34 1402.77 1848.24 Q1402.77 1841.11 1400.95 1837.57 Q1399.14 1834 1395.51 1834 M1395.51 1830.3 Q1401.32 1830.3 1404.37 1834.9 Q1407.45 1839.49 1407.45 1848.24 Q1407.45 1856.96 1404.37 1861.57 Q1401.32 1866.15 1395.51 1866.15 Q1389.7 1866.15 1386.62 1861.57 Q1383.56 1856.96 1383.56 1848.24 Q1383.56 1839.49 1386.62 1834.9 Q1389.7 1830.3 1395.51 1830.3 Z" fill="#000000" fill-rule="evenodd" fill-opacity="1" /><path clip-path="url(#clip120)" d="M1799.47 1861.55 L1807.11 1861.55 L1807.11 1835.18 L1798.8 1836.85 L1798.8 1832.59 L1807.06 1830.92 L1811.74 1830.92 L1811.74 1861.55 L1819.38 1861.55 L1819.38 1865.48 L1799.47 1865.48 L1799.47 1861.55 Z" fill="#000000" fill-rule="evenodd" fill-opacity="1" /><path clip-path="url(#clip120)" d="M2217.32 1861.55 L2233.64 1861.55 L2233.64 1865.48 L2211.7 1865.48 L2211.7 1861.55 Q2214.36 1858.79 2218.94 1854.16 Q2223.55 1849.51 2224.73 1848.17 Q2226.98 1845.65 2227.86 1843.91 Q2228.76 1842.15 2228.76 1840.46 Q2228.76 1837.71 2226.81 1835.97 Q2224.89 1834.23 2221.79 1834.23 Q2219.59 1834.23 2217.14 1835 Q2214.71 1835.76 2211.93 1837.31 L2211.93 1832.59 Q2214.75 1831.46 2217.21 1830.88 Q2219.66 1830.3 2221.7 1830.3 Q2227.07 1830.3 2230.26 1832.98 Q2233.46 1835.67 2233.46 1840.16 Q2233.46 1842.29 2232.65 1844.21 Q2231.86 1846.11 2229.75 1848.7 Q2229.17 1849.37 2226.07 1852.59 Q2222.97 1855.78 2217.32 1861.55 Z" fill="#000000" fill-rule="evenodd" fill-opacity="1" /><path clip-path="url(#clip120)" d="M2640.5 1846.85 Q2643.86 1847.57 2645.73 1849.84 Q2647.63 1852.1 2647.63 1855.44 Q2647.63 1860.55 2644.11 1863.35 Q2640.59 1866.15 2634.11 1866.15 Q2631.94 1866.15 2629.62 1865.71 Q2627.33 1865.3 2624.88 1864.44 L2624.88 1859.93 Q2626.82 1861.06 2629.13 1861.64 Q2631.45 1862.22 2633.97 1862.22 Q2638.37 1862.22 2640.66 1860.48 Q2642.98 1858.75 2642.98 1855.44 Q2642.98 1852.38 2640.82 1850.67 Q2638.7 1848.93 2634.88 1848.93 L2630.85 1848.93 L2630.85 1845.09 L2635.06 1845.09 Q2638.51 1845.09 2640.34 1843.72 Q2642.17 1842.34 2642.17 1839.74 Q2642.17 1837.08 2640.27 1835.67 Q2638.39 1834.23 2634.88 1834.23 Q2632.95 1834.23 2630.76 1834.65 Q2628.56 1835.07 2625.92 1835.95 L2625.92 1831.78 Q2628.58 1831.04 2630.89 1830.67 Q2633.23 1830.3 2635.29 1830.3 Q2640.62 1830.3 2643.72 1832.73 Q2646.82 1835.14 2646.82 1839.26 Q2646.82 1842.13 2645.18 1844.12 Q2643.53 1846.09 2640.5 1846.85 Z" fill="#000000" fill-rule="evenodd" fill-opacity="1" /><polyline clip-path="url(#clip122)" style="stroke:#000000; stroke-linecap:butt; stroke-linejoin:round; stroke-width:2; stroke-opacity:0.1; fill:none" points="
  150.358,1751.18 2640.76,1751.18 
  "/>
<polyline clip-path="url(#clip122)" style="stroke:#000000; stroke-linecap:butt; stroke-linejoin:round; stroke-width:2; stroke-opacity:0.1; fill:none" points="
  150.358,1337.59 2640.76,1337.59 
  "/>
<polyline clip-path="url(#clip122)" style="stroke:#000000; stroke-linecap:butt; stroke-linejoin:round; stroke-width:2; stroke-opacity:0.1; fill:none" points="
  150.358,924.012 2640.76,924.012 
  "/>
<polyline clip-path="url(#clip122)" style="stroke:#000000; stroke-linecap:butt; stroke-linejoin:round; stroke-width:2; stroke-opacity:0.1; fill:none" points="
  150.358,510.429 2640.76,510.429 
  "/>
<polyline clip-path="url(#clip122)" style="stroke:#000000; stroke-linecap:butt; stroke-linejoin:round; stroke-width:2; stroke-opacity:0.1; fill:none" points="
  150.358,96.8467 2640.76,96.8467 
  "/>
<polyline clip-path="url(#clip120)" style="stroke:#000000; stroke-linecap:butt; stroke-linejoin:round; stroke-width:4; stroke-opacity:1; fill:none" points="
  150.358,1800.78 150.358,47.2441 
  "/>
<polyline clip-path="url(#clip120)" style="stroke:#000000; stroke-linecap:butt; stroke-linejoin:round; stroke-width:4; stroke-opacity:1; fill:none" points="
  150.358,1751.18 169.256,1751.18 
  "/>
<polyline clip-path="url(#clip120)" style="stroke:#000000; stroke-linecap:butt; stroke-linejoin:round; stroke-width:4; stroke-opacity:1; fill:none" points="
  150.358,1337.59 169.256,1337.59 
  "/>
<polyline clip-path="url(#clip120)" style="stroke:#000000; stroke-linecap:butt; stroke-linejoin:round; stroke-width:4; stroke-opacity:1; fill:none" points="
  150.358,924.012 169.256,924.012 
  "/>
<polyline clip-path="url(#clip120)" style="stroke:#000000; stroke-linecap:butt; stroke-linejoin:round; stroke-width:4; stroke-opacity:1; fill:none" points="
  150.358,510.429 169.256,510.429 
  "/>
<polyline clip-path="url(#clip120)" style="stroke:#000000; stroke-linecap:butt; stroke-linejoin:round; stroke-width:4; stroke-opacity:1; fill:none" points="
  150.358,96.8467 169.256,96.8467 
  "/>
<path clip-path="url(#clip120)" d="M49.9225 1751.63 L79.5983 1751.63 L79.5983 1755.56 L49.9225 1755.56 L49.9225 1751.63 Z" fill="#000000" fill-rule="evenodd" fill-opacity="1" /><path clip-path="url(#clip120)" d="M93.7186 1764.52 L110.038 1764.52 L110.038 1768.46 L88.0936 1768.46 L88.0936 1764.52 Q90.7556 1761.77 95.3389 1757.14 Q99.9454 1752.48 101.126 1751.14 Q103.371 1748.62 104.251 1746.88 Q105.154 1745.12 105.154 1743.43 Q105.154 1740.68 103.209 1738.94 Q101.288 1737.21 98.1861 1737.21 Q95.9871 1737.21 93.5334 1737.97 Q91.1028 1738.73 88.3251 1740.29 L88.3251 1735.56 Q91.1491 1734.43 93.6028 1733.85 Q96.0565 1733.27 98.0935 1733.27 Q103.464 1733.27 106.658 1735.96 Q109.853 1738.64 109.853 1743.13 Q109.853 1745.26 109.043 1747.18 Q108.256 1749.08 106.149 1751.67 Q105.57 1752.35 102.469 1755.56 Q99.3667 1758.76 93.7186 1764.52 Z" fill="#000000" fill-rule="evenodd" fill-opacity="1" /><path clip-path="url(#clip120)" d="M49.5521 1338.05 L79.2279 1338.05 L79.2279 1341.98 L49.5521 1341.98 L49.5521 1338.05 Z" fill="#000000" fill-rule="evenodd" fill-opacity="1" /><path clip-path="url(#clip120)" d="M90.1306 1350.94 L97.7695 1350.94 L97.7695 1324.57 L89.4593 1326.24 L89.4593 1321.98 L97.7232 1320.31 L102.399 1320.31 L102.399 1350.94 L110.038 1350.94 L110.038 1354.87 L90.1306 1354.87 L90.1306 1350.94 Z" fill="#000000" fill-rule="evenodd" fill-opacity="1" /><path clip-path="url(#clip120)" d="M98.0935 909.81 Q94.4824 909.81 92.6537 913.375 Q90.8482 916.917 90.8482 924.046 Q90.8482 931.153 92.6537 934.718 Q94.4824 938.259 98.0935 938.259 Q101.728 938.259 103.533 934.718 Q105.362 931.153 105.362 924.046 Q105.362 916.917 103.533 913.375 Q101.728 909.81 98.0935 909.81 M98.0935 906.107 Q103.904 906.107 106.959 910.713 Q110.038 915.296 110.038 924.046 Q110.038 932.773 106.959 937.38 Q103.904 941.963 98.0935 941.963 Q92.2834 941.963 89.2047 937.38 Q86.1492 932.773 86.1492 924.046 Q86.1492 915.296 89.2047 910.713 Q92.2834 906.107 98.0935 906.107 Z" fill="#000000" fill-rule="evenodd" fill-opacity="1" /><path clip-path="url(#clip120)" d="M90.1306 523.774 L97.7695 523.774 L97.7695 497.408 L89.4593 499.075 L89.4593 494.816 L97.7232 493.149 L102.399 493.149 L102.399 523.774 L110.038 523.774 L110.038 527.709 L90.1306 527.709 L90.1306 523.774 Z" fill="#000000" fill-rule="evenodd" fill-opacity="1" /><path clip-path="url(#clip120)" d="M93.7186 110.192 L110.038 110.192 L110.038 114.127 L88.0936 114.127 L88.0936 110.192 Q90.7556 107.437 95.3389 102.807 Q99.9454 98.1545 101.126 96.812 Q103.371 94.2888 104.251 92.5527 Q105.154 90.7935 105.154 89.1037 Q105.154 86.3491 103.209 84.6129 Q101.288 82.8768 98.1861 82.8768 Q95.9871 82.8768 93.5334 83.6407 Q91.1028 84.4046 88.3251 85.9555 L88.3251 81.2333 Q91.1491 80.0991 93.6028 79.5204 Q96.0565 78.9417 98.0935 78.9417 Q103.464 78.9417 106.658 81.6269 Q109.853 84.312 109.853 88.8027 Q109.853 90.9324 109.043 92.8536 Q108.256 94.7518 106.149 97.3444 Q105.57 98.0157 102.469 101.233 Q99.3667 104.428 93.7186 110.192 Z" fill="#000000" fill-rule="evenodd" fill-opacity="1" /><polyline clip-path="url(#clip122)" style="stroke:#009af9; stroke-linecap:butt; stroke-linejoin:round; stroke-width:4; stroke-opacity:1; fill:none" points="
  2222.67,924.012 2222.26,897.899 2221.02,871.813 2218.96,845.779 2216.08,819.822 2212.38,793.97 2207.87,768.247 2202.55,742.679 2196.42,717.292 2189.5,692.112 
  2181.78,667.162 2173.28,642.468 2164.01,618.056 2153.96,593.948 2143.17,570.169 2131.62,546.742 2119.35,523.692 2106.35,501.041 2092.64,478.812 2078.24,457.026 
  2063.16,435.706 2047.41,414.872 2031.01,394.546 2013.98,374.748 1996.33,355.498 1978.09,336.814 1959.26,318.715 1939.87,301.22 1919.94,284.346 1899.48,268.109 
  1878.53,252.526 1857.09,237.612 1835.19,223.383 1812.85,209.852 1790.1,197.033 1766.95,184.939 1743.44,173.581 1719.57,162.971 1695.39,153.12 1670.9,144.038 
  1646.14,135.733 1621.13,128.213 1595.9,121.487 1570.46,115.561 1544.85,110.441 1519.1,106.132 1493.21,102.638 1467.24,99.9628 1441.19,98.109 1415.09,97.0786 
  1388.98,96.8724 1362.87,97.4908 1336.79,98.9331 1310.77,101.198 1284.84,104.283 1259.02,108.185 1233.33,112.9 1207.81,118.424 1182.47,124.751 1157.35,131.874 
  1132.46,139.787 1107.83,148.482 1083.49,157.95 1059.46,168.182 1035.77,179.167 1012.44,190.894 989.485,203.353 966.937,216.529 944.817,230.411 923.145,244.985 
  901.945,260.235 881.236,276.147 861.04,292.704 841.377,309.891 822.267,327.69 803.727,346.084 785.778,365.053 768.436,384.58 751.72,404.645 735.645,425.227 
  720.228,446.306 705.484,467.862 691.428,489.872 678.074,512.315 665.435,535.169 653.523,558.41 642.352,582.015 631.931,605.962 622.271,630.225 613.382,654.782 
  605.272,679.606 597.951,704.675 591.424,729.962 585.699,755.442 580.781,781.09 576.675,806.881 573.386,832.789 570.916,858.788 569.268,884.851 568.443,910.954 
  568.443,937.07 569.268,963.172 570.916,989.236 573.386,1015.23 576.675,1041.14 580.781,1066.93 585.699,1092.58 591.424,1118.06 597.951,1143.35 605.272,1168.42 
  613.382,1193.24 622.271,1217.8 631.931,1242.06 642.352,1266.01 653.523,1289.61 665.435,1312.85 678.074,1335.71 691.428,1358.15 705.484,1380.16 720.228,1401.72 
  735.645,1422.8 751.72,1443.38 768.436,1463.44 785.778,1482.97 803.727,1501.94 822.267,1520.33 841.377,1538.13 861.04,1555.32 881.236,1571.88 901.945,1587.79 
  923.145,1603.04 944.817,1617.61 966.937,1631.49 989.485,1644.67 1012.44,1657.13 1035.77,1668.86 1059.46,1679.84 1083.49,1690.07 1107.83,1699.54 1132.46,1708.24 
  1157.35,1716.15 1182.47,1723.27 1207.81,1729.6 1233.33,1735.12 1259.02,1739.84 1284.84,1743.74 1310.77,1746.83 1336.79,1749.09 1362.87,1750.53 1388.98,1751.15 
  1415.09,1750.94 1441.19,1749.91 1467.24,1748.06 1493.21,1745.39 1519.1,1741.89 1544.85,1737.58 1570.46,1732.46 1595.9,1726.54 1621.13,1719.81 1646.14,1712.29 
  1670.9,1703.99 1695.39,1694.9 1719.57,1685.05 1743.44,1674.44 1766.95,1663.08 1790.1,1650.99 1812.85,1638.17 1835.19,1624.64 1857.09,1610.41 1878.53,1595.5 
  1899.48,1579.91 1919.94,1563.68 1939.87,1546.8 1959.26,1529.31 1978.09,1511.21 1996.33,1492.53 2013.98,1473.28 2031.01,1453.48 2047.41,1433.15 2063.16,1412.32 
  2078.24,1391 2092.64,1369.21 2106.35,1346.98 2119.35,1324.33 2131.62,1301.28 2143.17,1277.85 2153.96,1254.08 2164.01,1229.97 2173.28,1205.55 2181.78,1180.86 
  2189.5,1155.91 2196.42,1130.73 2202.55,1105.34 2207.87,1079.78 2212.38,1054.05 2216.08,1028.2 2218.96,1002.24 2221.02,976.21 2222.26,950.124 2222.67,924.012 
  
  "/>
<path clip-path="url(#clip122)" d="
M1809.09 510.429 L1805.69 457.541 L1795.56 405.522 L1778.86 355.225 L1755.87 307.477 L1726.96 263.061 L1692.6 222.707 L1653.37 187.077 L1609.9 156.757 L1562.92 132.244 
  L1513.18 113.941 L1461.51 102.148 L1408.76 97.0592 L1355.79 98.7578 L1303.47 107.216 L1252.67 122.295 L1204.21 143.747 L1158.89 171.22 L1117.45 204.263 L1080.58 242.333 
  L1048.89 284.805 L1022.88 330.982 L1002.99 380.106 L989.55 431.369 L982.773 483.931 L982.773 536.928 L989.55 589.489 L1002.99 640.752 L1022.88 689.876 L1048.89 736.053 
  L1080.58 778.525 L1117.45 816.595 L1158.89 849.638 L1204.21 877.111 L1252.67 898.563 L1303.47 913.642 L1355.79 922.101 L1408.76 923.799 L1461.51 918.71 L1513.18 906.917 
  L1562.92 888.614 L1609.9 864.101 L1653.37 833.781 L1692.6 798.151 L1726.96 757.797 L1755.87 713.381 L1778.86 665.633 L1795.56 615.336 L1805.69 563.317 L1809.09 510.429 
  L1809.09 510.429  Z
  " fill="#ff0000" fill-rule="evenodd" fill-opacity="1"/>
<polyline clip-path="url(#clip122)" style="stroke:#000000; stroke-linecap:butt; stroke-linejoin:round; stroke-width:4; stroke-opacity:1; fill:none" points="
  1809.09,510.429 1805.69,457.541 1795.56,405.522 1778.86,355.225 1755.87,307.477 1726.96,263.061 1692.6,222.707 1653.37,187.077 1609.9,156.757 1562.92,132.244 
  1513.18,113.941 1461.51,102.148 1408.76,97.0592 1355.79,98.7578 1303.47,107.216 1252.67,122.295 1204.21,143.747 1158.89,171.22 1117.45,204.263 1080.58,242.333 
  1048.89,284.805 1022.88,330.982 1002.99,380.106 989.55,431.369 982.773,483.931 982.773,536.928 989.55,589.489 1002.99,640.752 1022.88,689.876 1048.89,736.053 
  1080.58,778.525 1117.45,816.595 1158.89,849.638 1204.21,877.111 1252.67,898.563 1303.47,913.642 1355.79,922.101 1408.76,923.799 1461.51,918.71 1513.18,906.917 
  1562.92,888.614 1609.9,864.101 1653.37,833.781 1692.6,798.151 1726.96,757.797 1755.87,713.381 1778.86,665.633 1795.56,615.336 1805.69,563.317 1809.09,510.429 
  1809.09,510.429 
  "/>
<polyline clip-path="url(#clip122)" style="stroke:#ffa500; stroke-linecap:butt; stroke-linejoin:round; stroke-width:4; stroke-opacity:1; fill:none" points="
  679.159,1337.59 2111.85,1337.59 
  "/>
<polyline clip-path="url(#clip122)" style="stroke:#ffa500; stroke-linecap:butt; stroke-linejoin:round; stroke-width:4; stroke-opacity:1; fill:none" points="
  679.159,510.429 981.923,510.429 
  "/>
<polyline clip-path="url(#clip122)" style="stroke:#ffa500; stroke-linecap:butt; stroke-linejoin:round; stroke-width:4; stroke-opacity:1; fill:none" points="
  2111.85,510.429 1809.09,510.429 
  "/>
</svg>
