<?xml version="1.0" encoding="utf-8"?>
<svg xmlns="http://www.w3.org/2000/svg" xmlns:xlink="http://www.w3.org/1999/xlink" width="672" height="480" viewBox="0 0 2688 1920">
<defs>
  <clipPath id="clip610">
    <rect x="0" y="0" width="2688" height="1920"/>
  </clipPath>
</defs>
<path clip-path="url(#clip610)" d="
M0 1920 L2688 1920 L2688 0 L0 0  Z
  " fill="#ffffff" fill-rule="evenodd" fill-opacity="1"/>
<defs>
  <clipPath id="clip611">
    <rect x="537" y="0" width="1883" height="1883"/>
  </clipPath>
</defs>
<path clip-path="url(#clip610)" d="
M196.168 1800.78 L2640.76 1800.78 L2640.76 47.2441 L196.168 47.2441  Z
  " fill="#ffffff" fill-rule="evenodd" fill-opacity="1"/>
<defs>
  <clipPath id="clip612">
    <rect x="196" y="47" width="2446" height="1755"/>
  </clipPath>
</defs>
<polyline clip-path="url(#clip612)" style="stroke:#000000; stroke-linecap:round; stroke-linejoin:round; stroke-width:2; stroke-opacity:0.1; fill:none" points="
  265.354,1800.78 265.354,47.2441 
  "/>
<polyline clip-path="url(#clip612)" style="stroke:#000000; stroke-linecap:round; stroke-linejoin:round; stroke-width:2; stroke-opacity:0.1; fill:none" points="
  649.723,1800.78 649.723,47.2441 
  "/>
<polyline clip-path="url(#clip612)" style="stroke:#000000; stroke-linecap:round; stroke-linejoin:round; stroke-width:2; stroke-opacity:0.1; fill:none" points="
  1034.09,1800.78 1034.09,47.2441 
  "/>
<polyline clip-path="url(#clip612)" style="stroke:#000000; stroke-linecap:round; stroke-linejoin:round; stroke-width:2; stroke-opacity:0.1; fill:none" points="
  1418.46,1800.78 1418.46,47.2441 
  "/>
<polyline clip-path="url(#clip612)" style="stroke:#000000; stroke-linecap:round; stroke-linejoin:round; stroke-width:2; stroke-opacity:0.1; fill:none" points="
  1802.83,1800.78 1802.83,47.2441 
  "/>
<polyline clip-path="url(#clip612)" style="stroke:#000000; stroke-linecap:round; stroke-linejoin:round; stroke-width:2; stroke-opacity:0.1; fill:none" points="
  2187.2,1800.78 2187.2,47.2441 
  "/>
<polyline clip-path="url(#clip612)" style="stroke:#000000; stroke-linecap:round; stroke-linejoin:round; stroke-width:2; stroke-opacity:0.1; fill:none" points="
  2571.57,1800.78 2571.57,47.2441 
  "/>
<polyline clip-path="url(#clip610)" style="stroke:#000000; stroke-linecap:round; stroke-linejoin:round; stroke-width:4; stroke-opacity:1; fill:none" points="
  196.168,1800.78 2640.76,1800.78 
  "/>
<polyline clip-path="url(#clip610)" style="stroke:#000000; stroke-linecap:round; stroke-linejoin:round; stroke-width:4; stroke-opacity:1; fill:none" points="
  265.354,1800.78 265.354,1781.88 
  "/>
<polyline clip-path="url(#clip610)" style="stroke:#000000; stroke-linecap:round; stroke-linejoin:round; stroke-width:4; stroke-opacity:1; fill:none" points="
  649.723,1800.78 649.723,1781.88 
  "/>
<polyline clip-path="url(#clip610)" style="stroke:#000000; stroke-linecap:round; stroke-linejoin:round; stroke-width:4; stroke-opacity:1; fill:none" points="
  1034.09,1800.78 1034.09,1781.88 
  "/>
<polyline clip-path="url(#clip610)" style="stroke:#000000; stroke-linecap:round; stroke-linejoin:round; stroke-width:4; stroke-opacity:1; fill:none" points="
  1418.46,1800.78 1418.46,1781.88 
  "/>
<polyline clip-path="url(#clip610)" style="stroke:#000000; stroke-linecap:round; stroke-linejoin:round; stroke-width:4; stroke-opacity:1; fill:none" points="
  1802.83,1800.78 1802.83,1781.88 
  "/>
<polyline clip-path="url(#clip610)" style="stroke:#000000; stroke-linecap:round; stroke-linejoin:round; stroke-width:4; stroke-opacity:1; fill:none" points="
  2187.2,1800.78 2187.2,1781.88 
  "/>
<polyline clip-path="url(#clip610)" style="stroke:#000000; stroke-linecap:round; stroke-linejoin:round; stroke-width:4; stroke-opacity:1; fill:none" points="
  2571.57,1800.78 2571.57,1781.88 
  "/>
<path clip-path="url(#clip610)" d="M212.38 1848.65 L242.056 1848.65 L242.056 1852.59 L212.38 1852.59 L212.38 1848.65 Z" fill="#000000" fill-rule="evenodd" fill-opacity="1" /><path clip-path="url(#clip610)" d="M252.959 1861.55 L260.597 1861.55 L260.597 1835.18 L252.287 1836.85 L252.287 1832.59 L260.551 1830.92 L265.227 1830.92 L265.227 1861.55 L272.866 1861.55 L272.866 1865.48 L252.959 1865.48 L252.959 1861.55 Z" fill="#000000" fill-rule="evenodd" fill-opacity="1" /><path clip-path="url(#clip610)" d="M282.31 1859.6 L287.194 1859.6 L287.194 1865.48 L282.31 1865.48 L282.31 1859.6 Z" fill="#000000" fill-rule="evenodd" fill-opacity="1" /><path clip-path="url(#clip610)" d="M297.426 1830.92 L315.782 1830.92 L315.782 1834.86 L301.708 1834.86 L301.708 1843.33 Q302.727 1842.98 303.745 1842.82 Q304.764 1842.64 305.782 1842.64 Q311.569 1842.64 314.949 1845.81 Q318.329 1848.98 318.329 1854.4 Q318.329 1859.97 314.856 1863.08 Q311.384 1866.15 305.065 1866.15 Q302.889 1866.15 300.62 1865.78 Q298.375 1865.41 295.968 1864.67 L295.968 1859.97 Q298.051 1861.11 300.273 1861.66 Q302.495 1862.22 304.972 1862.22 Q308.977 1862.22 311.315 1860.11 Q313.653 1858.01 313.653 1854.4 Q313.653 1850.78 311.315 1848.68 Q308.977 1846.57 304.972 1846.57 Q303.097 1846.57 301.222 1846.99 Q299.37 1847.4 297.426 1848.28 L297.426 1830.92 Z" fill="#000000" fill-rule="evenodd" fill-opacity="1" /><path clip-path="url(#clip610)" d="M596.252 1848.65 L625.927 1848.65 L625.927 1852.59 L596.252 1852.59 L596.252 1848.65 Z" fill="#000000" fill-rule="evenodd" fill-opacity="1" /><path clip-path="url(#clip610)" d="M636.83 1861.55 L644.469 1861.55 L644.469 1835.18 L636.159 1836.85 L636.159 1832.59 L644.423 1830.92 L649.099 1830.92 L649.099 1861.55 L656.737 1861.55 L656.737 1865.48 L636.83 1865.48 L636.83 1861.55 Z" fill="#000000" fill-rule="evenodd" fill-opacity="1" /><path clip-path="url(#clip610)" d="M666.182 1859.6 L671.066 1859.6 L671.066 1865.48 L666.182 1865.48 L666.182 1859.6 Z" fill="#000000" fill-rule="evenodd" fill-opacity="1" /><path clip-path="url(#clip610)" d="M691.251 1834 Q687.64 1834 685.811 1837.57 Q684.006 1841.11 684.006 1848.24 Q684.006 1855.34 685.811 1858.91 Q687.64 1862.45 691.251 1862.45 Q694.885 1862.45 696.691 1858.91 Q698.52 1855.34 698.52 1848.24 Q698.52 1841.11 696.691 1837.57 Q694.885 1834 691.251 1834 M691.251 1830.3 Q697.061 1830.3 700.117 1834.9 Q703.195 1839.49 703.195 1848.24 Q703.195 1856.96 700.117 1861.57 Q697.061 1866.15 691.251 1866.15 Q685.441 1866.15 682.362 1861.57 Q679.307 1856.96 679.307 1848.24 Q679.307 1839.49 682.362 1834.9 Q685.441 1830.3 691.251 1830.3 Z" fill="#000000" fill-rule="evenodd" fill-opacity="1" /><path clip-path="url(#clip610)" d="M981.118 1848.65 L1010.79 1848.65 L1010.79 1852.59 L981.118 1852.59 L981.118 1848.65 Z" fill="#000000" fill-rule="evenodd" fill-opacity="1" /><path clip-path="url(#clip610)" d="M1030.89 1834 Q1027.28 1834 1025.45 1837.57 Q1023.64 1841.11 1023.64 1848.24 Q1023.64 1855.34 1025.45 1858.91 Q1027.28 1862.45 1030.89 1862.45 Q1034.52 1862.45 1036.33 1858.91 Q1038.16 1855.34 1038.16 1848.24 Q1038.16 1841.11 1036.33 1837.57 Q1034.52 1834 1030.89 1834 M1030.89 1830.3 Q1036.7 1830.3 1039.75 1834.9 Q1042.83 1839.49 1042.83 1848.24 Q1042.83 1856.96 1039.75 1861.57 Q1036.7 1866.15 1030.89 1866.15 Q1025.08 1866.15 1022 1861.57 Q1018.94 1856.96 1018.94 1848.24 Q1018.94 1839.49 1022 1834.9 Q1025.08 1830.3 1030.89 1830.3 Z" fill="#000000" fill-rule="evenodd" fill-opacity="1" /><path clip-path="url(#clip610)" d="M1051.05 1859.6 L1055.93 1859.6 L1055.93 1865.48 L1051.05 1865.48 L1051.05 1859.6 Z" fill="#000000" fill-rule="evenodd" fill-opacity="1" /><path clip-path="url(#clip610)" d="M1066.16 1830.92 L1084.52 1830.92 L1084.52 1834.86 L1070.45 1834.86 L1070.45 1843.33 Q1071.47 1842.98 1072.48 1842.82 Q1073.5 1842.64 1074.52 1842.64 Q1080.31 1842.64 1083.69 1845.81 Q1087.07 1848.98 1087.07 1854.4 Q1087.07 1859.97 1083.59 1863.08 Q1080.12 1866.15 1073.8 1866.15 Q1071.63 1866.15 1069.36 1865.78 Q1067.11 1865.41 1064.71 1864.67 L1064.71 1859.97 Q1066.79 1861.11 1069.01 1861.66 Q1071.23 1862.22 1073.71 1862.22 Q1077.72 1862.22 1080.05 1860.11 Q1082.39 1858.01 1082.39 1854.4 Q1082.39 1850.78 1080.05 1848.68 Q1077.72 1846.57 1073.71 1846.57 Q1071.84 1846.57 1069.96 1846.99 Q1068.11 1847.4 1066.16 1848.28 L1066.16 1830.92 Z" fill="#000000" fill-rule="evenodd" fill-opacity="1" /><path clip-path="url(#clip610)" d="M1395.85 1834 Q1392.24 1834 1390.41 1837.57 Q1388.6 1841.11 1388.6 1848.24 Q1388.6 1855.34 1390.41 1858.91 Q1392.24 1862.45 1395.85 1862.45 Q1399.48 1862.45 1401.29 1858.91 Q1403.11 1855.34 1403.11 1848.24 Q1403.11 1841.11 1401.29 1837.57 Q1399.48 1834 1395.85 1834 M1395.85 1830.3 Q1401.66 1830.3 1404.71 1834.9 Q1407.79 1839.49 1407.79 1848.24 Q1407.79 1856.96 1404.71 1861.57 Q1401.66 1866.15 1395.85 1866.15 Q1390.04 1866.15 1386.96 1861.57 Q1383.9 1856.96 1383.9 1848.24 Q1383.9 1839.49 1386.96 1834.9 Q1390.04 1830.3 1395.85 1830.3 Z" fill="#000000" fill-rule="evenodd" fill-opacity="1" /><path clip-path="url(#clip610)" d="M1416.01 1859.6 L1420.89 1859.6 L1420.89 1865.48 L1416.01 1865.48 L1416.01 1859.6 Z" fill="#000000" fill-rule="evenodd" fill-opacity="1" /><path clip-path="url(#clip610)" d="M1441.08 1834 Q1437.47 1834 1435.64 1837.57 Q1433.83 1841.11 1433.83 1848.24 Q1433.83 1855.34 1435.64 1858.91 Q1437.47 1862.45 1441.08 1862.45 Q1444.71 1862.45 1446.52 1858.91 Q1448.35 1855.34 1448.35 1848.24 Q1448.35 1841.11 1446.52 1837.57 Q1444.71 1834 1441.08 1834 M1441.08 1830.3 Q1446.89 1830.3 1449.94 1834.9 Q1453.02 1839.49 1453.02 1848.24 Q1453.02 1856.96 1449.94 1861.57 Q1446.89 1866.15 1441.08 1866.15 Q1435.27 1866.15 1432.19 1861.57 Q1429.13 1856.96 1429.13 1848.24 Q1429.13 1839.49 1432.19 1834.9 Q1435.27 1830.3 1441.08 1830.3 Z" fill="#000000" fill-rule="evenodd" fill-opacity="1" /><path clip-path="url(#clip610)" d="M1780.71 1834 Q1777.1 1834 1775.27 1837.57 Q1773.47 1841.11 1773.47 1848.24 Q1773.47 1855.34 1775.27 1858.91 Q1777.1 1862.45 1780.71 1862.45 Q1784.35 1862.45 1786.15 1858.91 Q1787.98 1855.34 1787.98 1848.24 Q1787.98 1841.11 1786.15 1837.57 Q1784.35 1834 1780.71 1834 M1780.71 1830.3 Q1786.52 1830.3 1789.58 1834.9 Q1792.66 1839.49 1792.66 1848.24 Q1792.66 1856.96 1789.58 1861.57 Q1786.52 1866.15 1780.71 1866.15 Q1774.9 1866.15 1771.82 1861.57 Q1768.77 1856.96 1768.77 1848.24 Q1768.77 1839.49 1771.82 1834.9 Q1774.9 1830.3 1780.71 1830.3 Z" fill="#000000" fill-rule="evenodd" fill-opacity="1" /><path clip-path="url(#clip610)" d="M1800.88 1859.6 L1805.76 1859.6 L1805.76 1865.48 L1800.88 1865.48 L1800.88 1859.6 Z" fill="#000000" fill-rule="evenodd" fill-opacity="1" /><path clip-path="url(#clip610)" d="M1815.99 1830.92 L1834.35 1830.92 L1834.35 1834.86 L1820.27 1834.86 L1820.27 1843.33 Q1821.29 1842.98 1822.31 1842.82 Q1823.33 1842.64 1824.35 1842.64 Q1830.13 1842.64 1833.51 1845.81 Q1836.89 1848.98 1836.89 1854.4 Q1836.89 1859.97 1833.42 1863.08 Q1829.95 1866.15 1823.63 1866.15 Q1821.45 1866.15 1819.19 1865.78 Q1816.94 1865.41 1814.53 1864.67 L1814.53 1859.97 Q1816.62 1861.11 1818.84 1861.66 Q1821.06 1862.22 1823.54 1862.22 Q1827.54 1862.22 1829.88 1860.11 Q1832.22 1858.01 1832.22 1854.4 Q1832.22 1850.78 1829.88 1848.68 Q1827.54 1846.57 1823.54 1846.57 Q1821.66 1846.57 1819.79 1846.99 Q1817.94 1847.4 1815.99 1848.28 L1815.99 1830.92 Z" fill="#000000" fill-rule="evenodd" fill-opacity="1" /><path clip-path="url(#clip610)" d="M2154.35 1861.55 L2161.99 1861.55 L2161.99 1835.18 L2153.68 1836.85 L2153.68 1832.59 L2161.95 1830.92 L2166.62 1830.92 L2166.62 1861.55 L2174.26 1861.55 L2174.26 1865.48 L2154.35 1865.48 L2154.35 1861.55 Z" fill="#000000" fill-rule="evenodd" fill-opacity="1" /><path clip-path="url(#clip610)" d="M2183.7 1859.6 L2188.59 1859.6 L2188.59 1865.48 L2183.7 1865.48 L2183.7 1859.6 Z" fill="#000000" fill-rule="evenodd" fill-opacity="1" /><path clip-path="url(#clip610)" d="M2208.77 1834 Q2205.16 1834 2203.33 1837.57 Q2201.53 1841.11 2201.53 1848.24 Q2201.53 1855.34 2203.33 1858.91 Q2205.16 1862.45 2208.77 1862.45 Q2212.41 1862.45 2214.21 1858.91 Q2216.04 1855.34 2216.04 1848.24 Q2216.04 1841.11 2214.21 1837.57 Q2212.41 1834 2208.77 1834 M2208.77 1830.3 Q2214.58 1830.3 2217.64 1834.9 Q2220.72 1839.49 2220.72 1848.24 Q2220.72 1856.96 2217.64 1861.57 Q2214.58 1866.15 2208.77 1866.15 Q2202.96 1866.15 2199.89 1861.57 Q2196.83 1856.96 2196.83 1848.24 Q2196.83 1839.49 2199.89 1834.9 Q2202.96 1830.3 2208.77 1830.3 Z" fill="#000000" fill-rule="evenodd" fill-opacity="1" /><path clip-path="url(#clip610)" d="M2539.22 1861.55 L2546.86 1861.55 L2546.86 1835.18 L2538.55 1836.85 L2538.55 1832.59 L2546.81 1830.92 L2551.49 1830.92 L2551.49 1861.55 L2559.13 1861.55 L2559.13 1865.48 L2539.22 1865.48 L2539.22 1861.55 Z" fill="#000000" fill-rule="evenodd" fill-opacity="1" /><path clip-path="url(#clip610)" d="M2568.57 1859.6 L2573.46 1859.6 L2573.46 1865.48 L2568.57 1865.48 L2568.57 1859.6 Z" fill="#000000" fill-rule="evenodd" fill-opacity="1" /><path clip-path="url(#clip610)" d="M2583.69 1830.92 L2602.04 1830.92 L2602.04 1834.86 L2587.97 1834.86 L2587.97 1843.33 Q2588.99 1842.98 2590.01 1842.82 Q2591.03 1842.64 2592.04 1842.64 Q2597.83 1842.64 2601.21 1845.81 Q2604.59 1848.98 2604.59 1854.4 Q2604.59 1859.97 2601.12 1863.08 Q2597.65 1866.15 2591.33 1866.15 Q2589.15 1866.15 2586.88 1865.78 Q2584.64 1865.41 2582.23 1864.67 L2582.23 1859.97 Q2584.31 1861.11 2586.53 1861.66 Q2588.76 1862.22 2591.23 1862.22 Q2595.24 1862.22 2597.58 1860.11 Q2599.91 1858.01 2599.91 1854.4 Q2599.91 1850.78 2597.58 1848.68 Q2595.24 1846.57 2591.23 1846.57 Q2589.36 1846.57 2587.48 1846.99 Q2585.63 1847.4 2583.69 1848.28 L2583.69 1830.92 Z" fill="#000000" fill-rule="evenodd" fill-opacity="1" /><polyline clip-path="url(#clip612)" style="stroke:#000000; stroke-linecap:round; stroke-linejoin:round; stroke-width:2; stroke-opacity:0.1; fill:none" points="
  196.168,1530.56 2640.76,1530.56 
  "/>
<polyline clip-path="url(#clip612)" style="stroke:#000000; stroke-linecap:round; stroke-linejoin:round; stroke-width:2; stroke-opacity:0.1; fill:none" points="
  196.168,1199.67 2640.76,1199.67 
  "/>
<polyline clip-path="url(#clip612)" style="stroke:#000000; stroke-linecap:round; stroke-linejoin:round; stroke-width:2; stroke-opacity:0.1; fill:none" points="
  196.168,868.781 2640.76,868.781 
  "/>
<polyline clip-path="url(#clip612)" style="stroke:#000000; stroke-linecap:round; stroke-linejoin:round; stroke-width:2; stroke-opacity:0.1; fill:none" points="
  196.168,537.892 2640.76,537.892 
  "/>
<polyline clip-path="url(#clip612)" style="stroke:#000000; stroke-linecap:round; stroke-linejoin:round; stroke-width:2; stroke-opacity:0.1; fill:none" points="
  196.168,207.003 2640.76,207.003 
  "/>
<polyline clip-path="url(#clip610)" style="stroke:#000000; stroke-linecap:round; stroke-linejoin:round; stroke-width:4; stroke-opacity:1; fill:none" points="
  196.168,1800.78 196.168,47.2441 
  "/>
<polyline clip-path="url(#clip610)" style="stroke:#000000; stroke-linecap:round; stroke-linejoin:round; stroke-width:4; stroke-opacity:1; fill:none" points="
  196.168,1530.56 215.065,1530.56 
  "/>
<polyline clip-path="url(#clip610)" style="stroke:#000000; stroke-linecap:round; stroke-linejoin:round; stroke-width:4; stroke-opacity:1; fill:none" points="
  196.168,1199.67 215.065,1199.67 
  "/>
<polyline clip-path="url(#clip610)" style="stroke:#000000; stroke-linecap:round; stroke-linejoin:round; stroke-width:4; stroke-opacity:1; fill:none" points="
  196.168,868.781 215.065,868.781 
  "/>
<polyline clip-path="url(#clip610)" style="stroke:#000000; stroke-linecap:round; stroke-linejoin:round; stroke-width:4; stroke-opacity:1; fill:none" points="
  196.168,537.892 215.065,537.892 
  "/>
<polyline clip-path="url(#clip610)" style="stroke:#000000; stroke-linecap:round; stroke-linejoin:round; stroke-width:4; stroke-opacity:1; fill:none" points="
  196.168,207.003 215.065,207.003 
  "/>
<path clip-path="url(#clip610)" d="M49.5521 1531.01 L79.2279 1531.01 L79.2279 1534.94 L49.5521 1534.94 L49.5521 1531.01 Z" fill="#000000" fill-rule="evenodd" fill-opacity="1" /><path clip-path="url(#clip610)" d="M99.3204 1516.36 Q95.7093 1516.36 93.8806 1519.92 Q92.075 1523.46 92.075 1530.59 Q92.075 1537.7 93.8806 1541.26 Q95.7093 1544.81 99.3204 1544.81 Q102.955 1544.81 104.76 1541.26 Q106.589 1537.7 106.589 1530.59 Q106.589 1523.46 104.76 1519.92 Q102.955 1516.36 99.3204 1516.36 M99.3204 1512.65 Q105.131 1512.65 108.186 1517.26 Q111.265 1521.84 111.265 1530.59 Q111.265 1539.32 108.186 1543.93 Q105.131 1548.51 99.3204 1548.51 Q93.5102 1548.51 90.4315 1543.93 Q87.376 1539.32 87.376 1530.59 Q87.376 1521.84 90.4315 1517.26 Q93.5102 1512.65 99.3204 1512.65 Z" fill="#000000" fill-rule="evenodd" fill-opacity="1" /><path clip-path="url(#clip610)" d="M119.482 1541.96 L124.367 1541.96 L124.367 1547.84 L119.482 1547.84 L119.482 1541.96 Z" fill="#000000" fill-rule="evenodd" fill-opacity="1" /><path clip-path="url(#clip610)" d="M148.718 1529.2 Q152.075 1529.92 153.95 1532.19 Q155.848 1534.46 155.848 1537.79 Q155.848 1542.91 152.329 1545.71 Q148.811 1548.51 142.329 1548.51 Q140.153 1548.51 137.839 1548.07 Q135.547 1547.65 133.093 1546.8 L133.093 1542.28 Q135.038 1543.42 137.353 1544 Q139.667 1544.57 142.191 1544.57 Q146.589 1544.57 148.88 1542.84 Q151.195 1541.1 151.195 1537.79 Q151.195 1534.74 149.042 1533.02 Q146.913 1531.29 143.093 1531.29 L139.066 1531.29 L139.066 1527.44 L143.278 1527.44 Q146.728 1527.44 148.556 1526.08 Q150.385 1524.69 150.385 1522.1 Q150.385 1519.44 148.487 1518.02 Q146.612 1516.59 143.093 1516.59 Q141.172 1516.59 138.973 1517.01 Q136.774 1517.42 134.135 1518.3 L134.135 1514.13 Q136.797 1513.39 139.112 1513.02 Q141.45 1512.65 143.51 1512.65 Q148.834 1512.65 151.936 1515.08 Q155.038 1517.49 155.038 1521.61 Q155.038 1524.48 153.394 1526.47 Q151.751 1528.44 148.718 1529.2 Z" fill="#000000" fill-rule="evenodd" fill-opacity="1" /><path clip-path="url(#clip610)" d="M98.6722 1185.47 Q95.0611 1185.47 93.2324 1189.03 Q91.4269 1192.57 91.4269 1199.7 Q91.4269 1206.81 93.2324 1210.38 Q95.0611 1213.92 98.6722 1213.92 Q102.306 1213.92 104.112 1210.38 Q105.941 1206.81 105.941 1199.7 Q105.941 1192.57 104.112 1189.03 Q102.306 1185.47 98.6722 1185.47 M98.6722 1181.76 Q104.482 1181.76 107.538 1186.37 Q110.617 1190.95 110.617 1199.7 Q110.617 1208.43 107.538 1213.04 Q104.482 1217.62 98.6722 1217.62 Q92.8621 1217.62 89.7834 1213.04 Q86.7279 1208.43 86.7279 1199.7 Q86.7279 1190.95 89.7834 1186.37 Q92.8621 1181.76 98.6722 1181.76 Z" fill="#000000" fill-rule="evenodd" fill-opacity="1" /><path clip-path="url(#clip610)" d="M118.834 1211.07 L123.718 1211.07 L123.718 1216.95 L118.834 1216.95 L118.834 1211.07 Z" fill="#000000" fill-rule="evenodd" fill-opacity="1" /><path clip-path="url(#clip610)" d="M143.903 1185.47 Q140.292 1185.47 138.464 1189.03 Q136.658 1192.57 136.658 1199.7 Q136.658 1206.81 138.464 1210.38 Q140.292 1213.92 143.903 1213.92 Q147.538 1213.92 149.343 1210.38 Q151.172 1206.81 151.172 1199.7 Q151.172 1192.57 149.343 1189.03 Q147.538 1185.47 143.903 1185.47 M143.903 1181.76 Q149.714 1181.76 152.769 1186.37 Q155.848 1190.95 155.848 1199.7 Q155.848 1208.43 152.769 1213.04 Q149.714 1217.62 143.903 1217.62 Q138.093 1217.62 135.015 1213.04 Q131.959 1208.43 131.959 1199.7 Q131.959 1190.95 135.015 1186.37 Q138.093 1181.76 143.903 1181.76 Z" fill="#000000" fill-rule="evenodd" fill-opacity="1" /><path clip-path="url(#clip610)" d="M99.3204 854.579 Q95.7093 854.579 93.8806 858.144 Q92.075 861.686 92.075 868.815 Q92.075 875.922 93.8806 879.487 Q95.7093 883.028 99.3204 883.028 Q102.955 883.028 104.76 879.487 Q106.589 875.922 106.589 868.815 Q106.589 861.686 104.76 858.144 Q102.955 854.579 99.3204 854.579 M99.3204 850.876 Q105.131 850.876 108.186 855.482 Q111.265 860.065 111.265 868.815 Q111.265 877.542 108.186 882.149 Q105.131 886.732 99.3204 886.732 Q93.5102 886.732 90.4315 882.149 Q87.376 877.542 87.376 868.815 Q87.376 860.065 90.4315 855.482 Q93.5102 850.876 99.3204 850.876 Z" fill="#000000" fill-rule="evenodd" fill-opacity="1" /><path clip-path="url(#clip610)" d="M119.482 880.181 L124.367 880.181 L124.367 886.061 L119.482 886.061 L119.482 880.181 Z" fill="#000000" fill-rule="evenodd" fill-opacity="1" /><path clip-path="url(#clip610)" d="M148.718 867.426 Q152.075 868.144 153.95 870.413 Q155.848 872.681 155.848 876.014 Q155.848 881.13 152.329 883.931 Q148.811 886.732 142.329 886.732 Q140.153 886.732 137.839 886.292 Q135.547 885.875 133.093 885.019 L133.093 880.505 Q135.038 881.639 137.353 882.218 Q139.667 882.797 142.191 882.797 Q146.589 882.797 148.88 881.061 Q151.195 879.325 151.195 876.014 Q151.195 872.959 149.042 871.246 Q146.913 869.51 143.093 869.51 L139.066 869.51 L139.066 865.667 L143.278 865.667 Q146.728 865.667 148.556 864.302 Q150.385 862.913 150.385 860.32 Q150.385 857.658 148.487 856.246 Q146.612 854.811 143.093 854.811 Q141.172 854.811 138.973 855.227 Q136.774 855.644 134.135 856.524 L134.135 852.357 Q136.797 851.616 139.112 851.246 Q141.45 850.876 143.51 850.876 Q148.834 850.876 151.936 853.306 Q155.038 855.714 155.038 859.834 Q155.038 862.704 153.394 864.695 Q151.751 866.663 148.718 867.426 Z" fill="#000000" fill-rule="evenodd" fill-opacity="1" /><path clip-path="url(#clip610)" d="M98.5102 523.69 Q94.8991 523.69 93.0704 527.255 Q91.2649 530.797 91.2649 537.927 Q91.2649 545.033 93.0704 548.598 Q94.8991 552.139 98.5102 552.139 Q102.144 552.139 103.95 548.598 Q105.779 545.033 105.779 537.927 Q105.779 530.797 103.95 527.255 Q102.144 523.69 98.5102 523.69 M98.5102 519.987 Q104.32 519.987 107.376 524.593 Q110.455 529.177 110.455 537.927 Q110.455 546.653 107.376 551.26 Q104.32 555.843 98.5102 555.843 Q92.7 555.843 89.6214 551.26 Q86.5658 546.653 86.5658 537.927 Q86.5658 529.177 89.6214 524.593 Q92.7 519.987 98.5102 519.987 Z" fill="#000000" fill-rule="evenodd" fill-opacity="1" /><path clip-path="url(#clip610)" d="M118.672 549.292 L123.556 549.292 L123.556 555.172 L118.672 555.172 L118.672 549.292 Z" fill="#000000" fill-rule="evenodd" fill-opacity="1" /><path clip-path="url(#clip610)" d="M144.32 536.028 Q141.172 536.028 139.32 538.181 Q137.491 540.334 137.491 544.084 Q137.491 547.811 139.32 549.987 Q141.172 552.139 144.32 552.139 Q147.468 552.139 149.297 549.987 Q151.149 547.811 151.149 544.084 Q151.149 540.334 149.297 538.181 Q147.468 536.028 144.32 536.028 M153.602 521.376 L153.602 525.635 Q151.843 524.802 150.038 524.362 Q148.255 523.922 146.496 523.922 Q141.866 523.922 139.413 527.047 Q136.982 530.172 136.635 536.491 Q138.001 534.477 140.061 533.413 Q142.121 532.325 144.598 532.325 Q149.806 532.325 152.815 535.496 Q155.848 538.644 155.848 544.084 Q155.848 549.408 152.7 552.626 Q149.552 555.843 144.32 555.843 Q138.325 555.843 135.154 551.26 Q131.982 546.653 131.982 537.927 Q131.982 529.732 135.871 524.871 Q139.76 519.987 146.311 519.987 Q148.07 519.987 149.853 520.334 Q151.658 520.681 153.602 521.376 Z" fill="#000000" fill-rule="evenodd" fill-opacity="1" /><path clip-path="url(#clip610)" d="M98.8574 192.802 Q95.2463 192.802 93.4176 196.366 Q91.6121 199.908 91.6121 207.038 Q91.6121 214.144 93.4176 217.709 Q95.2463 221.251 98.8574 221.251 Q102.492 221.251 104.297 217.709 Q106.126 214.144 106.126 207.038 Q106.126 199.908 104.297 196.366 Q102.492 192.802 98.8574 192.802 M98.8574 189.098 Q104.668 189.098 107.723 193.704 Q110.802 198.288 110.802 207.038 Q110.802 215.764 107.723 220.371 Q104.668 224.954 98.8574 224.954 Q93.0473 224.954 89.9686 220.371 Q86.913 215.764 86.913 207.038 Q86.913 198.288 89.9686 193.704 Q93.0473 189.098 98.8574 189.098 Z" fill="#000000" fill-rule="evenodd" fill-opacity="1" /><path clip-path="url(#clip610)" d="M119.019 218.403 L123.904 218.403 L123.904 224.283 L119.019 224.283 L119.019 218.403 Z" fill="#000000" fill-rule="evenodd" fill-opacity="1" /><path clip-path="url(#clip610)" d="M134.228 223.565 L134.228 219.306 Q135.987 220.139 137.792 220.579 Q139.598 221.019 141.334 221.019 Q145.964 221.019 148.394 217.917 Q150.848 214.792 151.195 208.45 Q149.853 210.44 147.792 211.505 Q145.732 212.57 143.232 212.57 Q138.047 212.57 135.015 209.445 Q132.005 206.297 132.005 200.857 Q132.005 195.533 135.154 192.316 Q138.302 189.098 143.533 189.098 Q149.528 189.098 152.677 193.704 Q155.848 198.288 155.848 207.038 Q155.848 215.209 151.959 220.093 Q148.093 224.954 141.542 224.954 Q139.783 224.954 137.978 224.607 Q136.172 224.26 134.228 223.565 M143.533 208.913 Q146.681 208.913 148.51 206.76 Q150.362 204.607 150.362 200.857 Q150.362 197.13 148.51 194.978 Q146.681 192.802 143.533 192.802 Q140.385 192.802 138.533 194.978 Q136.704 197.13 136.704 200.857 Q136.704 204.607 138.533 206.76 Q140.385 208.913 143.533 208.913 Z" fill="#000000" fill-rule="evenodd" fill-opacity="1" /><polyline clip-path="url(#clip612)" style="stroke:#009af9; stroke-linecap:round; stroke-linejoin:round; stroke-width:4; stroke-opacity:1; fill:none" points="
  265.354,1751.15 280.369,1729.61 419.202,1530.42 502.634,1410.71 573.176,1309.5 649.803,1199.55 720.447,1098.2 796.185,989.531 883.935,863.63 961.916,751.745 
  1030.3,653.632 1104.85,546.662 1179.85,439.056 1262.77,320.084 1341.67,206.885 1362.18,177.46 1382.69,148.035 1392.94,133.322 1403.2,118.61 1408.32,111.253 
  1413.45,103.897 1416.01,100.219 1418.58,96.8724 1421.14,100.551 1423.7,104.229 1432.34,116.614 1440.97,128.998 1449.6,141.383 1458.23,153.768 1475.5,178.538 
  1492.76,203.307 1577.07,324.271 1654.3,435.082 1725.63,537.424 1797.89,641.094 1878.86,757.278 1952.24,862.56 2036.26,983.1 2114.05,1094.71 2190.74,1204.74 
  2265.2,1311.58 2341.53,1421.1 2425.16,1541.09 2546.65,1715.39 2571.57,1751.15 
  "/>
<polyline clip-path="url(#clip612)" style="stroke:#e26f46; stroke-linecap:round; stroke-linejoin:round; stroke-width:4; stroke-opacity:1; fill:none" points="
  265.354,1199.67 280.369,1199.67 419.202,1199.67 502.634,1199.67 573.176,1199.67 649.803,1199.67 720.447,1199.67 796.185,1199.67 883.935,1199.67 961.916,1199.67 
  1030.3,1199.67 1104.85,1199.67 1179.85,1199.67 1262.77,1199.67 1341.67,1199.67 1423.7,1199.67 1492.76,1199.67 1577.07,1199.67 1654.3,1199.67 1725.63,1199.67 
  1797.89,1199.67 1878.86,1199.67 1952.24,1199.67 2036.26,1199.67 2114.05,1199.67 2190.74,1199.67 2265.2,1199.67 2341.53,1199.67 2425.16,1199.67 2546.65,1199.67 
  2571.57,1199.67 
  "/>
<path clip-path="url(#clip610)" d="
M2235.22 261.215 L2559.27 261.215 L2559.27 105.695 L2235.22 105.695  Z
  " fill="#ffffff" fill-rule="evenodd" fill-opacity="1"/>
<polyline clip-path="url(#clip610)" style="stroke:#000000; stroke-linecap:round; stroke-linejoin:round; stroke-width:4; stroke-opacity:1; fill:none" points="
  2235.22,261.215 2559.27,261.215 2559.27,105.695 2235.22,105.695 2235.22,261.215 
  "/>
<polyline clip-path="url(#clip610)" style="stroke:#009af9; stroke-linecap:round; stroke-linejoin:round; stroke-width:4; stroke-opacity:1; fill:none" points="
  2262.38,157.535 2425.35,157.535 
  "/>
<path clip-path="url(#clip610)" d="M2466.36 177.223 Q2464.55 181.852 2462.84 183.264 Q2461.13 184.676 2458.26 184.676 L2454.85 184.676 L2454.85 181.112 L2457.35 181.112 Q2459.11 181.112 2460.08 180.278 Q2461.06 179.445 2462.24 176.343 L2463 174.399 L2452.52 148.889 L2457.03 148.889 L2465.13 169.167 L2473.23 148.889 L2477.75 148.889 L2466.36 177.223 Z" fill="#000000" fill-rule="evenodd" fill-opacity="1" /><path clip-path="url(#clip610)" d="M2485.04 170.88 L2492.68 170.88 L2492.68 144.515 L2484.37 146.181 L2484.37 141.922 L2492.63 140.255 L2497.31 140.255 L2497.31 170.88 L2504.95 170.88 L2504.95 174.815 L2485.04 174.815 L2485.04 170.88 Z" fill="#000000" fill-rule="evenodd" fill-opacity="1" /><polyline clip-path="url(#clip610)" style="stroke:#e26f46; stroke-linecap:round; stroke-linejoin:round; stroke-width:4; stroke-opacity:1; fill:none" points="
  2262.38,209.375 2425.35,209.375 
  "/>
<path clip-path="url(#clip610)" d="M2466.36 229.063 Q2464.55 233.692 2462.84 235.104 Q2461.13 236.516 2458.26 236.516 L2454.85 236.516 L2454.85 232.952 L2457.35 232.952 Q2459.11 232.952 2460.08 232.118 Q2461.06 231.285 2462.24 228.183 L2463 226.239 L2452.52 200.729 L2457.03 200.729 L2465.13 221.007 L2473.23 200.729 L2477.75 200.729 L2466.36 229.063 Z" fill="#000000" fill-rule="evenodd" fill-opacity="1" /><path clip-path="url(#clip610)" d="M2488.26 222.72 L2504.58 222.72 L2504.58 226.655 L2482.63 226.655 L2482.63 222.72 Q2485.29 219.965 2489.88 215.336 Q2494.48 210.683 2495.66 209.341 Q2497.91 206.817 2498.79 205.081 Q2499.69 203.322 2499.69 201.632 Q2499.69 198.878 2497.75 197.142 Q2495.83 195.405 2492.72 195.405 Q2490.52 195.405 2488.07 196.169 Q2485.64 196.933 2482.86 198.484 L2482.86 193.762 Q2485.69 192.628 2488.14 192.049 Q2490.59 191.47 2492.63 191.47 Q2498 191.47 2501.2 194.155 Q2504.39 196.841 2504.39 201.331 Q2504.39 203.461 2503.58 205.382 Q2502.79 207.28 2500.69 209.873 Q2500.11 210.544 2497.01 213.762 Q2493.9 216.956 2488.26 222.72 Z" fill="#000000" fill-rule="evenodd" fill-opacity="1" /></svg>
