<?xml version="1.0" encoding="utf-8"?>
<svg xmlns="http://www.w3.org/2000/svg" xmlns:xlink="http://www.w3.org/1999/xlink" width="672" height="480" viewBox="0 0 2688 1920">
<defs>
  <clipPath id="clip940">
    <rect x="0" y="0" width="2688" height="1920"/>
  </clipPath>
</defs>
<path clip-path="url(#clip940)" d="
M0 1920 L2688 1920 L2688 0 L0 0  Z
  " fill="#ffffff" fill-rule="evenodd" fill-opacity="1"/>
<defs>
  <clipPath id="clip941">
    <rect x="537" y="0" width="1883" height="1883"/>
  </clipPath>
</defs>
<path clip-path="url(#clip940)" d="
M144.733 1800.78 L2640.76 1800.78 L2640.76 47.2441 L144.733 47.2441  Z
  " fill="#ffffff" fill-rule="evenodd" fill-opacity="1"/>
<defs>
  <clipPath id="clip942">
    <rect x="144" y="47" width="2497" height="1755"/>
  </clipPath>
</defs>
<polyline clip-path="url(#clip942)" style="stroke:#000000; stroke-linecap:butt; stroke-linejoin:round; stroke-width:2; stroke-opacity:0.1; fill:none" points="
  215.375,1800.78 215.375,47.2441 
  "/>
<polyline clip-path="url(#clip942)" style="stroke:#000000; stroke-linecap:butt; stroke-linejoin:round; stroke-width:2; stroke-opacity:0.1; fill:none" points="
  1000.29,1800.78 1000.29,47.2441 
  "/>
<polyline clip-path="url(#clip942)" style="stroke:#000000; stroke-linecap:butt; stroke-linejoin:round; stroke-width:2; stroke-opacity:0.1; fill:none" points="
  1785.2,1800.78 1785.2,47.2441 
  "/>
<polyline clip-path="url(#clip942)" style="stroke:#000000; stroke-linecap:butt; stroke-linejoin:round; stroke-width:2; stroke-opacity:0.1; fill:none" points="
  2570.11,1800.78 2570.11,47.2441 
  "/>
<polyline clip-path="url(#clip940)" style="stroke:#000000; stroke-linecap:butt; stroke-linejoin:round; stroke-width:4; stroke-opacity:1; fill:none" points="
  144.733,1800.78 2640.76,1800.78 
  "/>
<polyline clip-path="url(#clip940)" style="stroke:#000000; stroke-linecap:butt; stroke-linejoin:round; stroke-width:4; stroke-opacity:1; fill:none" points="
  215.375,1800.78 215.375,1781.88 
  "/>
<polyline clip-path="url(#clip940)" style="stroke:#000000; stroke-linecap:butt; stroke-linejoin:round; stroke-width:4; stroke-opacity:1; fill:none" points="
  1000.29,1800.78 1000.29,1781.88 
  "/>
<polyline clip-path="url(#clip940)" style="stroke:#000000; stroke-linecap:butt; stroke-linejoin:round; stroke-width:4; stroke-opacity:1; fill:none" points="
  1785.2,1800.78 1785.2,1781.88 
  "/>
<polyline clip-path="url(#clip940)" style="stroke:#000000; stroke-linecap:butt; stroke-linejoin:round; stroke-width:4; stroke-opacity:1; fill:none" points="
  2570.11,1800.78 2570.11,1781.88 
  "/>
<path clip-path="url(#clip940)" d="M215.375 1834 Q211.764 1834 209.935 1837.57 Q208.13 1841.11 208.13 1848.24 Q208.13 1855.34 209.935 1858.91 Q211.764 1862.45 215.375 1862.45 Q219.009 1862.45 220.815 1858.91 Q222.644 1855.34 222.644 1848.24 Q222.644 1841.11 220.815 1837.57 Q219.009 1834 215.375 1834 M215.375 1830.3 Q221.185 1830.3 224.241 1834.9 Q227.319 1839.49 227.319 1848.24 Q227.319 1856.96 224.241 1861.57 Q221.185 1866.15 215.375 1866.15 Q209.565 1866.15 206.486 1861.57 Q203.431 1856.96 203.431 1848.24 Q203.431 1839.49 206.486 1834.9 Q209.565 1830.3 215.375 1830.3 Z" fill="#000000" fill-rule="evenodd" fill-opacity="1" /><path clip-path="url(#clip940)" d="M990.67 1861.55 L998.309 1861.55 L998.309 1835.18 L989.999 1836.85 L989.999 1832.59 L998.263 1830.92 L1002.94 1830.92 L1002.94 1861.55 L1010.58 1861.55 L1010.58 1865.48 L990.67 1865.48 L990.67 1861.55 Z" fill="#000000" fill-rule="evenodd" fill-opacity="1" /><path clip-path="url(#clip940)" d="M1779.85 1861.55 L1796.17 1861.55 L1796.17 1865.48 L1774.23 1865.48 L1774.23 1861.55 Q1776.89 1858.79 1781.47 1854.16 Q1786.08 1849.51 1787.26 1848.17 Q1789.51 1845.65 1790.39 1843.91 Q1791.29 1842.15 1791.29 1840.46 Q1791.29 1837.71 1789.34 1835.97 Q1787.42 1834.23 1784.32 1834.23 Q1782.12 1834.23 1779.67 1835 Q1777.24 1835.76 1774.46 1837.31 L1774.46 1832.59 Q1777.28 1831.46 1779.74 1830.88 Q1782.19 1830.3 1784.23 1830.3 Q1789.6 1830.3 1792.79 1832.98 Q1795.99 1835.67 1795.99 1840.16 Q1795.99 1842.29 1795.18 1844.21 Q1794.39 1846.11 1792.28 1848.7 Q1791.71 1849.37 1788.6 1852.59 Q1785.5 1855.78 1779.85 1861.55 Z" fill="#000000" fill-rule="evenodd" fill-opacity="1" /><path clip-path="url(#clip940)" d="M2574.36 1846.85 Q2577.72 1847.57 2579.59 1849.84 Q2581.49 1852.1 2581.49 1855.44 Q2581.49 1860.55 2577.97 1863.35 Q2574.45 1866.15 2567.97 1866.15 Q2565.8 1866.15 2563.48 1865.71 Q2561.19 1865.3 2558.74 1864.44 L2558.74 1859.93 Q2560.68 1861.06 2563 1861.64 Q2565.31 1862.22 2567.83 1862.22 Q2572.23 1862.22 2574.52 1860.48 Q2576.84 1858.75 2576.84 1855.44 Q2576.84 1852.38 2574.69 1850.67 Q2572.56 1848.93 2568.74 1848.93 L2564.71 1848.93 L2564.71 1845.09 L2568.92 1845.09 Q2572.37 1845.09 2574.2 1843.72 Q2576.03 1842.34 2576.03 1839.74 Q2576.03 1837.08 2574.13 1835.67 Q2572.25 1834.23 2568.74 1834.23 Q2566.82 1834.23 2564.62 1834.65 Q2562.42 1835.07 2559.78 1835.95 L2559.78 1831.78 Q2562.44 1831.04 2564.75 1830.67 Q2567.09 1830.3 2569.15 1830.3 Q2574.48 1830.3 2577.58 1832.73 Q2580.68 1835.14 2580.68 1839.26 Q2580.68 1842.13 2579.04 1844.12 Q2577.39 1846.09 2574.36 1846.85 Z" fill="#000000" fill-rule="evenodd" fill-opacity="1" /><polyline clip-path="url(#clip942)" style="stroke:#000000; stroke-linecap:butt; stroke-linejoin:round; stroke-width:2; stroke-opacity:0.1; fill:none" points="
  144.733,1751.15 2640.76,1751.15 
  "/>
<polyline clip-path="url(#clip942)" style="stroke:#000000; stroke-linecap:butt; stroke-linejoin:round; stroke-width:2; stroke-opacity:0.1; fill:none" points="
  144.733,1442.51 2640.76,1442.51 
  "/>
<polyline clip-path="url(#clip942)" style="stroke:#000000; stroke-linecap:butt; stroke-linejoin:round; stroke-width:2; stroke-opacity:0.1; fill:none" points="
  144.733,1133.86 2640.76,1133.86 
  "/>
<polyline clip-path="url(#clip942)" style="stroke:#000000; stroke-linecap:butt; stroke-linejoin:round; stroke-width:2; stroke-opacity:0.1; fill:none" points="
  144.733,825.217 2640.76,825.217 
  "/>
<polyline clip-path="url(#clip942)" style="stroke:#000000; stroke-linecap:butt; stroke-linejoin:round; stroke-width:2; stroke-opacity:0.1; fill:none" points="
  144.733,516.572 2640.76,516.572 
  "/>
<polyline clip-path="url(#clip942)" style="stroke:#000000; stroke-linecap:butt; stroke-linejoin:round; stroke-width:2; stroke-opacity:0.1; fill:none" points="
  144.733,207.927 2640.76,207.927 
  "/>
<polyline clip-path="url(#clip940)" style="stroke:#000000; stroke-linecap:butt; stroke-linejoin:round; stroke-width:4; stroke-opacity:1; fill:none" points="
  144.733,1800.78 144.733,47.2441 
  "/>
<polyline clip-path="url(#clip940)" style="stroke:#000000; stroke-linecap:butt; stroke-linejoin:round; stroke-width:4; stroke-opacity:1; fill:none" points="
  144.733,1751.15 163.631,1751.15 
  "/>
<polyline clip-path="url(#clip940)" style="stroke:#000000; stroke-linecap:butt; stroke-linejoin:round; stroke-width:4; stroke-opacity:1; fill:none" points="
  144.733,1442.51 163.631,1442.51 
  "/>
<polyline clip-path="url(#clip940)" style="stroke:#000000; stroke-linecap:butt; stroke-linejoin:round; stroke-width:4; stroke-opacity:1; fill:none" points="
  144.733,1133.86 163.631,1133.86 
  "/>
<polyline clip-path="url(#clip940)" style="stroke:#000000; stroke-linecap:butt; stroke-linejoin:round; stroke-width:4; stroke-opacity:1; fill:none" points="
  144.733,825.217 163.631,825.217 
  "/>
<polyline clip-path="url(#clip940)" style="stroke:#000000; stroke-linecap:butt; stroke-linejoin:round; stroke-width:4; stroke-opacity:1; fill:none" points="
  144.733,516.572 163.631,516.572 
  "/>
<polyline clip-path="url(#clip940)" style="stroke:#000000; stroke-linecap:butt; stroke-linejoin:round; stroke-width:4; stroke-opacity:1; fill:none" points="
  144.733,207.927 163.631,207.927 
  "/>
<path clip-path="url(#clip940)" d="M92.4686 1736.95 Q88.8575 1736.95 87.0288 1740.51 Q85.2232 1744.06 85.2232 1751.19 Q85.2232 1758.29 87.0288 1761.86 Q88.8575 1765.4 92.4686 1765.4 Q96.1028 1765.4 97.9083 1761.86 Q99.737 1758.29 99.737 1751.19 Q99.737 1744.06 97.9083 1740.51 Q96.1028 1736.95 92.4686 1736.95 M92.4686 1733.25 Q98.2787 1733.25 101.334 1737.85 Q104.413 1742.44 104.413 1751.19 Q104.413 1759.91 101.334 1764.52 Q98.2787 1769.1 92.4686 1769.1 Q86.6584 1769.1 83.5797 1764.52 Q80.5242 1759.91 80.5242 1751.19 Q80.5242 1742.44 83.5797 1737.85 Q86.6584 1733.25 92.4686 1733.25 Z" fill="#000000" fill-rule="evenodd" fill-opacity="1" /><path clip-path="url(#clip940)" d="M53.1169 1455.85 L60.7558 1455.85 L60.7558 1429.49 L52.4456 1431.15 L52.4456 1426.89 L60.7095 1425.23 L65.3854 1425.23 L65.3854 1455.85 L73.0242 1455.85 L73.0242 1459.79 L53.1169 1459.79 L53.1169 1455.85 Z" fill="#000000" fill-rule="evenodd" fill-opacity="1" /><path clip-path="url(#clip940)" d="M92.4686 1428.3 Q88.8575 1428.3 87.0288 1431.87 Q85.2232 1435.41 85.2232 1442.54 Q85.2232 1449.65 87.0288 1453.21 Q88.8575 1456.75 92.4686 1456.75 Q96.1028 1456.75 97.9083 1453.21 Q99.737 1449.65 99.737 1442.54 Q99.737 1435.41 97.9083 1431.87 Q96.1028 1428.3 92.4686 1428.3 M92.4686 1424.6 Q98.2787 1424.6 101.334 1429.21 Q104.413 1433.79 104.413 1442.54 Q104.413 1451.27 101.334 1455.87 Q98.2787 1460.46 92.4686 1460.46 Q86.6584 1460.46 83.5797 1455.87 Q80.5242 1451.27 80.5242 1442.54 Q80.5242 1433.79 83.5797 1429.21 Q86.6584 1424.6 92.4686 1424.6 Z" fill="#000000" fill-rule="evenodd" fill-opacity="1" /><path clip-path="url(#clip940)" d="M56.3345 1147.21 L72.6539 1147.21 L72.6539 1151.14 L50.7095 1151.14 L50.7095 1147.21 Q53.3715 1144.45 57.9549 1139.82 Q62.5613 1135.17 63.7419 1133.83 Q65.9872 1131.3 66.8668 1129.57 Q67.7696 1127.81 67.7696 1126.12 Q67.7696 1123.36 65.8252 1121.63 Q63.9039 1119.89 60.8021 1119.89 Q58.603 1119.89 56.1493 1120.66 Q53.7188 1121.42 50.941 1122.97 L50.941 1118.25 Q53.7651 1117.11 56.2188 1116.54 Q58.6724 1115.96 60.7095 1115.96 Q66.0798 1115.96 69.2742 1118.64 Q72.4687 1121.33 72.4687 1125.82 Q72.4687 1127.95 71.6585 1129.87 Q70.8715 1131.77 68.765 1134.36 Q68.1863 1135.03 65.0845 1138.25 Q61.9826 1141.44 56.3345 1147.21 Z" fill="#000000" fill-rule="evenodd" fill-opacity="1" /><path clip-path="url(#clip940)" d="M92.4686 1119.66 Q88.8575 1119.66 87.0288 1123.23 Q85.2232 1126.77 85.2232 1133.9 Q85.2232 1141 87.0288 1144.57 Q88.8575 1148.11 92.4686 1148.11 Q96.1028 1148.11 97.9083 1144.57 Q99.737 1141 99.737 1133.9 Q99.737 1126.77 97.9083 1123.23 Q96.1028 1119.66 92.4686 1119.66 M92.4686 1115.96 Q98.2787 1115.96 101.334 1120.56 Q104.413 1125.15 104.413 1133.9 Q104.413 1142.62 101.334 1147.23 Q98.2787 1151.81 92.4686 1151.81 Q86.6584 1151.81 83.5797 1147.23 Q80.5242 1142.62 80.5242 1133.9 Q80.5242 1125.15 83.5797 1120.56 Q86.6584 1115.96 92.4686 1115.96 Z" fill="#000000" fill-rule="evenodd" fill-opacity="1" /><path clip-path="url(#clip940)" d="M66.4733 823.863 Q69.8298 824.58 71.7048 826.849 Q73.6029 829.117 73.6029 832.451 Q73.6029 837.566 70.0844 840.367 Q66.5659 843.168 60.0845 843.168 Q57.9086 843.168 55.5938 842.728 Q53.3021 842.312 50.8484 841.455 L50.8484 836.941 Q52.7928 838.076 55.1077 838.654 Q57.4225 839.233 59.9456 839.233 Q64.3437 839.233 66.6354 837.497 Q68.9502 835.761 68.9502 832.451 Q68.9502 829.395 66.7974 827.682 Q64.6678 825.946 60.8484 825.946 L56.8206 825.946 L56.8206 822.103 L61.0335 822.103 Q64.4826 822.103 66.3113 820.738 Q68.14 819.349 68.14 816.756 Q68.14 814.094 66.2419 812.682 Q64.3669 811.247 60.8484 811.247 Q58.9271 811.247 56.728 811.664 Q54.529 812.08 51.8901 812.96 L51.8901 808.793 Q54.5521 808.053 56.8669 807.682 Q59.2049 807.312 61.265 807.312 Q66.5891 807.312 69.6909 809.742 Q72.7927 812.15 72.7927 816.27 Q72.7927 819.14 71.1492 821.131 Q69.5057 823.099 66.4733 823.863 Z" fill="#000000" fill-rule="evenodd" fill-opacity="1" /><path clip-path="url(#clip940)" d="M92.4686 811.016 Q88.8575 811.016 87.0288 814.58 Q85.2232 818.122 85.2232 825.252 Q85.2232 832.358 87.0288 835.923 Q88.8575 839.464 92.4686 839.464 Q96.1028 839.464 97.9083 835.923 Q99.737 832.358 99.737 825.252 Q99.737 818.122 97.9083 814.58 Q96.1028 811.016 92.4686 811.016 M92.4686 807.312 Q98.2787 807.312 101.334 811.918 Q104.413 816.502 104.413 825.252 Q104.413 833.978 101.334 838.585 Q98.2787 843.168 92.4686 843.168 Q86.6584 843.168 83.5797 838.585 Q80.5242 833.978 80.5242 825.252 Q80.5242 816.502 83.5797 811.918 Q86.6584 807.312 92.4686 807.312 Z" fill="#000000" fill-rule="evenodd" fill-opacity="1" /><path clip-path="url(#clip940)" d="M65.1539 503.366 L53.3484 521.815 L65.1539 521.815 L65.1539 503.366 M63.927 499.292 L69.8066 499.292 L69.8066 521.815 L74.7372 521.815 L74.7372 525.704 L69.8066 525.704 L69.8066 533.852 L65.1539 533.852 L65.1539 525.704 L49.5521 525.704 L49.5521 521.19 L63.927 499.292 Z" fill="#000000" fill-rule="evenodd" fill-opacity="1" /><path clip-path="url(#clip940)" d="M92.4686 502.371 Q88.8575 502.371 87.0288 505.936 Q85.2232 509.477 85.2232 516.607 Q85.2232 523.713 87.0288 527.278 Q88.8575 530.82 92.4686 530.82 Q96.1028 530.82 97.9083 527.278 Q99.737 523.713 99.737 516.607 Q99.737 509.477 97.9083 505.936 Q96.1028 502.371 92.4686 502.371 M92.4686 498.667 Q98.2787 498.667 101.334 503.274 Q104.413 507.857 104.413 516.607 Q104.413 525.334 101.334 529.94 Q98.2787 534.523 92.4686 534.523 Q86.6584 534.523 83.5797 529.94 Q80.5242 525.334 80.5242 516.607 Q80.5242 507.857 83.5797 503.274 Q86.6584 498.667 92.4686 498.667 Z" fill="#000000" fill-rule="evenodd" fill-opacity="1" /><path clip-path="url(#clip940)" d="M52.353 190.647 L70.7094 190.647 L70.7094 194.583 L56.6354 194.583 L56.6354 203.055 Q57.6539 202.708 58.6724 202.546 Q59.691 202.36 60.7095 202.36 Q66.4965 202.36 69.8761 205.532 Q73.2557 208.703 73.2557 214.12 Q73.2557 219.698 69.7835 222.8 Q66.3113 225.879 59.9919 225.879 Q57.816 225.879 55.5475 225.508 Q53.3021 225.138 50.8947 224.397 L50.8947 219.698 Q52.978 220.832 55.2002 221.388 Q57.4225 221.944 59.8993 221.944 Q63.9039 221.944 66.2419 219.837 Q68.5798 217.731 68.5798 214.12 Q68.5798 210.508 66.2419 208.402 Q63.9039 206.296 59.8993 206.296 Q58.0243 206.296 56.1493 206.712 Q54.2975 207.129 52.353 208.008 L52.353 190.647 Z" fill="#000000" fill-rule="evenodd" fill-opacity="1" /><path clip-path="url(#clip940)" d="M92.4686 193.726 Q88.8575 193.726 87.0288 197.291 Q85.2232 200.833 85.2232 207.962 Q85.2232 215.069 87.0288 218.633 Q88.8575 222.175 92.4686 222.175 Q96.1028 222.175 97.9083 218.633 Q99.737 215.069 99.737 207.962 Q99.737 200.833 97.9083 197.291 Q96.1028 193.726 92.4686 193.726 M92.4686 190.022 Q98.2787 190.022 101.334 194.629 Q104.413 199.212 104.413 207.962 Q104.413 216.689 101.334 221.295 Q98.2787 225.879 92.4686 225.879 Q86.6584 225.879 83.5797 221.295 Q80.5242 216.689 80.5242 207.962 Q80.5242 199.212 83.5797 194.629 Q86.6584 190.022 92.4686 190.022 Z" fill="#000000" fill-rule="evenodd" fill-opacity="1" /><polyline clip-path="url(#clip942)" style="stroke:#009af9; stroke-linecap:butt; stroke-linejoin:round; stroke-width:4; stroke-opacity:1; fill:none" points="
  215.375,1751.15 230.706,1751.15 372.46,1751.15 457.648,1751.15 529.673,1751.15 607.913,1751.15 680.043,1751.15 757.375,1751.15 846.97,1751.15 886.782,1751.15 
  926.593,1751.15 944.048,1751.15 961.503,1751.15 970.231,1751.15 978.959,1751.15 983.323,1751.15 987.686,1751.15 992.05,1751.15 996.414,1751.15 998.793,1751.15 
  1001.17,1747.36 1003.55,1737.2 1005.93,1727.1 1010.69,1707.08 1015.45,1687.31 1024.96,1648.47 1034.48,1610.56 1053.51,1537.45 1072.54,1467.8 1091.68,1401.06 
  1110.83,1337.5 1129.97,1276.97 1149.11,1219.31 1170.28,1158.76 1191.45,1101.38 1212.61,1047.02 1233.78,995.516 1253.92,949.02 1274.06,904.851 1294.2,862.891 
  1314.34,823.03 1335.28,783.696 1356.22,746.407 1377.16,711.054 1398.1,677.539 1415.72,650.68 1433.35,625.001 1450.98,600.449 1468.61,576.976 1490.13,549.711 
  1511.65,523.901 1533.17,499.468 1554.69,476.339 1594.12,437.117 1633.55,401.645 1669.96,371.903 1706.38,344.797 1743.26,319.787 1780.15,297.02 1821.49,273.924 
  1862.83,253.136 1900.29,236.1 1937.76,220.615 1980.65,204.609 2023.54,190.26 2063.25,178.302 2102.96,167.495 2181.27,149.138 2257.3,134.498 2335.23,122.162 
  2420.62,111.182 2544.67,98.9401 2570.11,96.8724 
  "/>
<polyline clip-path="url(#clip942)" style="stroke:#e26f46; stroke-linecap:butt; stroke-linejoin:round; stroke-width:4; stroke-opacity:1; fill:none" points="
  215.375,1751.15 219.208,1734.77 223.04,1718.56 226.873,1702.5 230.706,1686.59 248.425,1615.05 266.144,1546.67 283.863,1481.3 301.583,1418.82 319.302,1359.1 
  337.021,1302.02 354.74,1247.46 372.46,1195.3 393.757,1135.65 415.054,1079.15 436.351,1025.64 457.648,974.951 475.654,934.19 493.66,895.256 511.667,858.069 
  529.673,822.549 549.233,785.768 568.793,750.774 588.353,717.482 607.913,685.809 625.946,657.974 643.978,631.39 662.011,606 680.043,581.75 699.376,556.959 
  718.709,533.361 738.042,510.896 757.375,489.512 779.774,466.017 802.173,443.827 824.572,422.867 846.97,403.07 886.782,370.555 926.593,341.177 961.503,317.757 
  996.414,296.33 1034.48,275.041 1072.54,255.72 1110.83,238.086 1149.11,222.091 1191.45,206.131 1233.78,191.803 1274.06,179.533 1314.34,168.46 1398.1,148.77 
  1468.61,135.16 1554.69,121.54 1633.55,111.432 1706.38,103.738 1780.15,97.2721 1862.83,96.8724 1937.76,96.8724 2023.54,96.8724 2102.96,96.8724 2181.27,96.8724 
  2257.3,96.8724 2335.23,96.8724 2420.62,96.8724 2544.67,96.8724 2570.11,96.8724 
  "/>
<polyline clip-path="url(#clip942)" style="stroke:#3da44d; stroke-linecap:butt; stroke-linejoin:round; stroke-width:4; stroke-opacity:1; fill:none" points="
  215.375,1751.15 230.706,1751.15 372.46,1751.15 457.648,1751.15 529.673,1751.15 607.913,1751.15 680.043,1751.15 757.375,1751.15 846.97,1751.15 926.593,1751.15 
  996.414,1751.15 1072.54,1751.15 1149.11,1751.15 1233.78,1751.15 1314.34,1751.15 1398.1,1751.15 1468.61,1751.15 1554.69,1751.15 1633.55,1751.15 1706.38,1751.15 
  1780.15,1751.15 1862.83,1751.15 1937.76,1751.15 2023.54,1751.15 2102.96,1751.15 2181.27,1751.15 2257.3,1751.15 2335.23,1751.15 2420.62,1751.15 2544.67,1751.15 
  2570.11,1751.15 
  "/>
</svg>
