<?xml version="1.0" encoding="utf-8"?>
<svg xmlns="http://www.w3.org/2000/svg" xmlns:xlink="http://www.w3.org/1999/xlink" width="672" height="480" viewBox="0 0 2688 1920">
<defs>
  <clipPath id="clip190">
    <rect x="0" y="0" width="2688" height="1920"/>
  </clipPath>
</defs>
<path clip-path="url(#clip190)" d="
M0 1920 L2688 1920 L2688 0 L0 0  Z
  " fill="#ffffff" fill-rule="evenodd" fill-opacity="1"/>
<defs>
  <clipPath id="clip191">
    <rect x="537" y="0" width="1883" height="1883"/>
  </clipPath>
</defs>
<path clip-path="url(#clip190)" d="
M150.358 1800.78 L2640.76 1800.78 L2640.76 47.2441 L150.358 47.2441  Z
  " fill="#ffffff" fill-rule="evenodd" fill-opacity="1"/>
<defs>
  <clipPath id="clip192">
    <rect x="150" y="47" width="2491" height="1755"/>
  </clipPath>
</defs>
<polyline clip-path="url(#clip192)" style="stroke:#000000; stroke-linecap:butt; stroke-linejoin:round; stroke-width:2; stroke-opacity:0.1; fill:none" points="
  220.841,1800.78 220.841,47.2441 
  "/>
<polyline clip-path="url(#clip192)" style="stroke:#000000; stroke-linecap:butt; stroke-linejoin:round; stroke-width:2; stroke-opacity:0.1; fill:none" points="
  808.199,1800.78 808.199,47.2441 
  "/>
<polyline clip-path="url(#clip192)" style="stroke:#000000; stroke-linecap:butt; stroke-linejoin:round; stroke-width:2; stroke-opacity:0.1; fill:none" points="
  1395.56,1800.78 1395.56,47.2441 
  "/>
<polyline clip-path="url(#clip192)" style="stroke:#000000; stroke-linecap:butt; stroke-linejoin:round; stroke-width:2; stroke-opacity:0.1; fill:none" points="
  1982.91,1800.78 1982.91,47.2441 
  "/>
<polyline clip-path="url(#clip192)" style="stroke:#000000; stroke-linecap:butt; stroke-linejoin:round; stroke-width:2; stroke-opacity:0.1; fill:none" points="
  2570.27,1800.78 2570.27,47.2441 
  "/>
<polyline clip-path="url(#clip190)" style="stroke:#000000; stroke-linecap:butt; stroke-linejoin:round; stroke-width:4; stroke-opacity:1; fill:none" points="
  150.358,1800.78 2640.76,1800.78 
  "/>
<polyline clip-path="url(#clip190)" style="stroke:#000000; stroke-linecap:butt; stroke-linejoin:round; stroke-width:4; stroke-opacity:1; fill:none" points="
  220.841,1800.78 220.841,1781.88 
  "/>
<polyline clip-path="url(#clip190)" style="stroke:#000000; stroke-linecap:butt; stroke-linejoin:round; stroke-width:4; stroke-opacity:1; fill:none" points="
  808.199,1800.78 808.199,1781.88 
  "/>
<polyline clip-path="url(#clip190)" style="stroke:#000000; stroke-linecap:butt; stroke-linejoin:round; stroke-width:4; stroke-opacity:1; fill:none" points="
  1395.56,1800.78 1395.56,1781.88 
  "/>
<polyline clip-path="url(#clip190)" style="stroke:#000000; stroke-linecap:butt; stroke-linejoin:round; stroke-width:4; stroke-opacity:1; fill:none" points="
  1982.91,1800.78 1982.91,1781.88 
  "/>
<polyline clip-path="url(#clip190)" style="stroke:#000000; stroke-linecap:butt; stroke-linejoin:round; stroke-width:4; stroke-opacity:1; fill:none" points="
  2570.27,1800.78 2570.27,1781.88 
  "/>
<path clip-path="url(#clip190)" d="M190.783 1848.65 L220.459 1848.65 L220.459 1852.59 L190.783 1852.59 L190.783 1848.65 Z" fill="#000000" fill-rule="evenodd" fill-opacity="1" /><path clip-path="url(#clip190)" d="M234.579 1861.55 L250.899 1861.55 L250.899 1865.48 L228.954 1865.48 L228.954 1861.55 Q231.616 1858.79 236.2 1854.16 Q240.806 1849.51 241.987 1848.17 Q244.232 1845.65 245.112 1843.91 Q246.014 1842.15 246.014 1840.46 Q246.014 1837.71 244.07 1835.97 Q242.149 1834.23 239.047 1834.23 Q236.848 1834.23 234.394 1835 Q231.964 1835.76 229.186 1837.31 L229.186 1832.59 Q232.01 1831.46 234.463 1830.88 Q236.917 1830.3 238.954 1830.3 Q244.325 1830.3 247.519 1832.98 Q250.713 1835.67 250.713 1840.16 Q250.713 1842.29 249.903 1844.21 Q249.116 1846.11 247.01 1848.7 Q246.431 1849.37 243.329 1852.59 Q240.227 1855.78 234.579 1861.55 Z" fill="#000000" fill-rule="evenodd" fill-opacity="1" /><path clip-path="url(#clip190)" d="M777.956 1848.65 L807.632 1848.65 L807.632 1852.59 L777.956 1852.59 L777.956 1848.65 Z" fill="#000000" fill-rule="evenodd" fill-opacity="1" /><path clip-path="url(#clip190)" d="M818.534 1861.55 L826.173 1861.55 L826.173 1835.18 L817.863 1836.85 L817.863 1832.59 L826.127 1830.92 L830.803 1830.92 L830.803 1861.55 L838.442 1861.55 L838.442 1865.48 L818.534 1865.48 L818.534 1861.55 Z" fill="#000000" fill-rule="evenodd" fill-opacity="1" /><path clip-path="url(#clip190)" d="M1395.56 1834 Q1391.95 1834 1390.12 1837.57 Q1388.31 1841.11 1388.31 1848.24 Q1388.31 1855.34 1390.12 1858.91 Q1391.95 1862.45 1395.56 1862.45 Q1399.19 1862.45 1401 1858.91 Q1402.83 1855.34 1402.83 1848.24 Q1402.83 1841.11 1401 1837.57 Q1399.19 1834 1395.56 1834 M1395.56 1830.3 Q1401.37 1830.3 1404.42 1834.9 Q1407.5 1839.49 1407.5 1848.24 Q1407.5 1856.96 1404.42 1861.57 Q1401.37 1866.15 1395.56 1866.15 Q1389.75 1866.15 1386.67 1861.57 Q1383.61 1856.96 1383.61 1848.24 Q1383.61 1839.49 1386.67 1834.9 Q1389.75 1830.3 1395.56 1830.3 Z" fill="#000000" fill-rule="evenodd" fill-opacity="1" /><path clip-path="url(#clip190)" d="M1973.3 1861.55 L1980.94 1861.55 L1980.94 1835.18 L1972.63 1836.85 L1972.63 1832.59 L1980.89 1830.92 L1985.57 1830.92 L1985.57 1861.55 L1993.2 1861.55 L1993.2 1865.48 L1973.3 1865.48 L1973.3 1861.55 Z" fill="#000000" fill-rule="evenodd" fill-opacity="1" /><path clip-path="url(#clip190)" d="M2564.93 1861.55 L2581.25 1861.55 L2581.25 1865.48 L2559.3 1865.48 L2559.3 1861.55 Q2561.96 1858.79 2566.55 1854.16 Q2571.15 1849.51 2572.33 1848.17 Q2574.58 1845.65 2575.46 1843.91 Q2576.36 1842.15 2576.36 1840.46 Q2576.36 1837.71 2574.42 1835.97 Q2572.5 1834.23 2569.39 1834.23 Q2567.19 1834.23 2564.74 1835 Q2562.31 1835.76 2559.53 1837.31 L2559.53 1832.59 Q2562.36 1831.46 2564.81 1830.88 Q2567.26 1830.3 2569.3 1830.3 Q2574.67 1830.3 2577.87 1832.98 Q2581.06 1835.67 2581.06 1840.16 Q2581.06 1842.29 2580.25 1844.21 Q2579.46 1846.11 2577.36 1848.7 Q2576.78 1849.37 2573.68 1852.59 Q2570.57 1855.78 2564.93 1861.55 Z" fill="#000000" fill-rule="evenodd" fill-opacity="1" /><polyline clip-path="url(#clip192)" style="stroke:#000000; stroke-linecap:butt; stroke-linejoin:round; stroke-width:2; stroke-opacity:0.1; fill:none" points="
  150.358,1751.16 2640.76,1751.16 
  "/>
<polyline clip-path="url(#clip192)" style="stroke:#000000; stroke-linecap:butt; stroke-linejoin:round; stroke-width:2; stroke-opacity:0.1; fill:none" points="
  150.358,1337.59 2640.76,1337.59 
  "/>
<polyline clip-path="url(#clip192)" style="stroke:#000000; stroke-linecap:butt; stroke-linejoin:round; stroke-width:2; stroke-opacity:0.1; fill:none" points="
  150.358,924.011 2640.76,924.011 
  "/>
<polyline clip-path="url(#clip192)" style="stroke:#000000; stroke-linecap:butt; stroke-linejoin:round; stroke-width:2; stroke-opacity:0.1; fill:none" points="
  150.358,510.435 2640.76,510.435 
  "/>
<polyline clip-path="url(#clip192)" style="stroke:#000000; stroke-linecap:butt; stroke-linejoin:round; stroke-width:2; stroke-opacity:0.1; fill:none" points="
  150.358,96.8587 2640.76,96.8587 
  "/>
<polyline clip-path="url(#clip190)" style="stroke:#000000; stroke-linecap:butt; stroke-linejoin:round; stroke-width:4; stroke-opacity:1; fill:none" points="
  150.358,1800.78 150.358,47.2441 
  "/>
<polyline clip-path="url(#clip190)" style="stroke:#000000; stroke-linecap:butt; stroke-linejoin:round; stroke-width:4; stroke-opacity:1; fill:none" points="
  150.358,1751.16 169.256,1751.16 
  "/>
<polyline clip-path="url(#clip190)" style="stroke:#000000; stroke-linecap:butt; stroke-linejoin:round; stroke-width:4; stroke-opacity:1; fill:none" points="
  150.358,1337.59 169.256,1337.59 
  "/>
<polyline clip-path="url(#clip190)" style="stroke:#000000; stroke-linecap:butt; stroke-linejoin:round; stroke-width:4; stroke-opacity:1; fill:none" points="
  150.358,924.011 169.256,924.011 
  "/>
<polyline clip-path="url(#clip190)" style="stroke:#000000; stroke-linecap:butt; stroke-linejoin:round; stroke-width:4; stroke-opacity:1; fill:none" points="
  150.358,510.435 169.256,510.435 
  "/>
<polyline clip-path="url(#clip190)" style="stroke:#000000; stroke-linecap:butt; stroke-linejoin:round; stroke-width:4; stroke-opacity:1; fill:none" points="
  150.358,96.8587 169.256,96.8587 
  "/>
<path clip-path="url(#clip190)" d="M49.9225 1751.61 L79.5983 1751.61 L79.5983 1755.55 L49.9225 1755.55 L49.9225 1751.61 Z" fill="#000000" fill-rule="evenodd" fill-opacity="1" /><path clip-path="url(#clip190)" d="M93.7186 1764.51 L110.038 1764.51 L110.038 1768.44 L88.0936 1768.44 L88.0936 1764.51 Q90.7556 1761.75 95.3389 1757.12 Q99.9454 1752.47 101.126 1751.13 Q103.371 1748.61 104.251 1746.87 Q105.154 1745.11 105.154 1743.42 Q105.154 1740.67 103.209 1738.93 Q101.288 1737.19 98.1861 1737.19 Q95.9871 1737.19 93.5334 1737.96 Q91.1028 1738.72 88.3251 1740.27 L88.3251 1735.55 Q91.1491 1734.42 93.6028 1733.84 Q96.0565 1733.26 98.0935 1733.26 Q103.464 1733.26 106.658 1735.94 Q109.853 1738.63 109.853 1743.12 Q109.853 1745.25 109.043 1747.17 Q108.256 1749.07 106.149 1751.66 Q105.57 1752.33 102.469 1755.55 Q99.3667 1758.74 93.7186 1764.51 Z" fill="#000000" fill-rule="evenodd" fill-opacity="1" /><path clip-path="url(#clip190)" d="M49.5521 1338.04 L79.2279 1338.04 L79.2279 1341.97 L49.5521 1341.97 L49.5521 1338.04 Z" fill="#000000" fill-rule="evenodd" fill-opacity="1" /><path clip-path="url(#clip190)" d="M90.1306 1350.93 L97.7695 1350.93 L97.7695 1324.57 L89.4593 1326.23 L89.4593 1321.97 L97.7232 1320.31 L102.399 1320.31 L102.399 1350.93 L110.038 1350.93 L110.038 1354.87 L90.1306 1354.87 L90.1306 1350.93 Z" fill="#000000" fill-rule="evenodd" fill-opacity="1" /><path clip-path="url(#clip190)" d="M98.0935 909.809 Q94.4824 909.809 92.6537 913.374 Q90.8482 916.916 90.8482 924.046 Q90.8482 931.152 92.6537 934.717 Q94.4824 938.258 98.0935 938.258 Q101.728 938.258 103.533 934.717 Q105.362 931.152 105.362 924.046 Q105.362 916.916 103.533 913.374 Q101.728 909.809 98.0935 909.809 M98.0935 906.106 Q103.904 906.106 106.959 910.712 Q110.038 915.296 110.038 924.046 Q110.038 932.772 106.959 937.379 Q103.904 941.962 98.0935 941.962 Q92.2834 941.962 89.2047 937.379 Q86.1492 932.772 86.1492 924.046 Q86.1492 915.296 89.2047 910.712 Q92.2834 906.106 98.0935 906.106 Z" fill="#000000" fill-rule="evenodd" fill-opacity="1" /><path clip-path="url(#clip190)" d="M90.1306 523.78 L97.7695 523.78 L97.7695 497.414 L89.4593 499.081 L89.4593 494.821 L97.7232 493.155 L102.399 493.155 L102.399 523.78 L110.038 523.78 L110.038 527.715 L90.1306 527.715 L90.1306 523.78 Z" fill="#000000" fill-rule="evenodd" fill-opacity="1" /><path clip-path="url(#clip190)" d="M93.7186 110.203 L110.038 110.203 L110.038 114.139 L88.0936 114.139 L88.0936 110.203 Q90.7556 107.449 95.3389 102.819 Q99.9454 98.1665 101.126 96.8239 Q103.371 94.3008 104.251 92.5647 Q105.154 90.8054 105.154 89.1156 Q105.154 86.361 103.209 84.6249 Q101.288 82.8888 98.1861 82.8888 Q95.9871 82.8888 93.5334 83.6527 Q91.1028 84.4166 88.3251 85.9675 L88.3251 81.2453 Q91.1491 80.1111 93.6028 79.5324 Q96.0565 78.9537 98.0935 78.9537 Q103.464 78.9537 106.658 81.6388 Q109.853 84.324 109.853 88.8147 Q109.853 90.9443 109.043 92.8656 Q108.256 94.7638 106.149 97.3563 Q105.57 98.0276 102.469 101.245 Q99.3667 104.44 93.7186 110.203 Z" fill="#000000" fill-rule="evenodd" fill-opacity="1" /><polyline clip-path="url(#clip192)" style="stroke:#009af9; stroke-linecap:butt; stroke-linejoin:round; stroke-width:4; stroke-opacity:1; fill:none" points="
  220.841,924.011 224.665,907.094 228.489,890.184 232.313,873.288 236.137,856.414 253.816,778.877 271.496,702.637 289.175,628.376 306.854,556.755 315.694,522.137 
  324.533,488.416 333.373,455.67 342.213,423.97 351.052,393.387 359.892,363.991 368.732,335.846 377.571,309.016 388.196,278.592 398.82,250.252 409.445,224.088 
  420.069,200.183 430.694,178.614 441.318,159.453 451.943,142.759 462.568,128.588 471.55,118.609 480.533,110.488 489.516,104.245 498.499,99.8936 507.482,97.4446 
  516.465,96.9034 525.448,98.2712 534.431,101.545 544.189,107.252 553.947,115.183 563.705,125.317 573.463,137.626 583.22,152.076 592.978,168.629 602.736,187.239 
  612.494,207.856 621.49,228.592 630.486,250.938 639.482,274.842 648.478,300.248 657.474,327.098 666.47,355.33 675.466,384.879 684.462,415.675 694.107,449.997 
  703.751,485.58 713.396,522.33 723.04,560.148 742.33,638.585 761.619,720.058 806.316,915.68 851.013,1111.78 870.874,1196.13 890.734,1277.42 900.665,1316.62 
  910.595,1354.72 920.525,1391.6 930.456,1427.16 939.164,1457.19 947.872,1486.05 956.58,1513.7 965.288,1540.06 973.996,1565.1 982.704,1588.74 991.412,1610.93 
  1000.12,1631.64 1009.61,1652.47 1019.11,1671.42 1028.6,1688.44 1038.1,1703.5 1047.59,1716.54 1057.08,1727.54 1066.58,1736.46 1076.07,1743.3 1085.62,1748.04 
  1095.17,1750.63 1104.72,1751.07 1114.27,1749.35 1123.82,1745.47 1133.38,1739.45 1142.93,1731.31 1152.48,1721.06 1163.04,1707.3 1173.6,1691.05 1184.15,1672.35 
  1194.71,1651.27 1205.27,1627.87 1215.83,1602.22 1226.39,1574.41 1236.95,1544.52 1247,1514.25 1257.04,1482.27 1267.09,1448.68 1277.14,1413.58 1287.19,1377.06 
  1297.23,1339.24 1307.28,1300.22 1317.33,1260.11 1338.22,1173.73 1359.11,1084.23 1380,992.736 1400.9,900.385 1418.49,822.826 1436.07,746.162 1453.66,671.07 
  1471.25,598.216 1481.98,555.118 1492.72,513.236 1503.46,472.709 1514.19,433.669 1524.93,396.245 1535.66,360.562 1546.4,326.736 1557.14,294.879 1566.97,267.514 
  1576.81,241.965 1586.64,218.302 1596.48,196.593 1606.31,176.895 1616.15,159.265 1625.98,143.75 1635.82,130.394 1644.9,120.008 1653.98,111.52 1663.07,104.949 
  1672.15,100.311 1681.23,97.6164 1690.32,96.8724 1699.4,98.0805 1708.48,101.238 1717.68,106.415 1726.88,113.573 1736.09,122.693 1745.29,133.753 1754.49,146.727 
  1763.69,161.583 1772.89,178.286 1782.09,196.794 1792.4,219.627 1802.72,244.602 1813.03,271.644 1823.34,300.669 1833.65,331.591 1843.96,364.314 1854.27,398.739 
  1864.59,434.762 1873.93,468.692 1883.28,503.76 1892.62,539.877 1901.96,576.954 1920.65,653.613 1939.34,732.971 1982.13,920.558 2024.93,1108.33 2044.74,1192.58 
  2064.55,1273.82 2074.46,1313.02 2084.36,1351.14 2094.27,1388.05 2104.18,1423.66 2113.94,1457.4 2123.71,1489.68 2133.47,1520.41 2143.24,1549.53 2153.01,1576.93 
  2162.77,1602.55 2172.54,1626.33 2182.3,1648.18 2191.79,1667.51 2201.27,1684.93 2210.75,1700.39 2220.23,1713.86 2229.71,1725.3 2239.2,1734.67 2248.68,1741.96 
  2258.16,1747.15 2267.88,1750.26 2277.6,1751.15 2287.32,1749.8 2297.04,1746.22 2306.76,1740.42 2316.48,1732.41 2326.2,1722.22 2335.92,1709.87 2346.57,1693.9 
  2357.22,1675.43 2367.87,1654.53 2378.52,1631.26 2389.17,1605.69 2399.82,1577.91 2410.47,1548.01 2421.12,1516.09 2436.59,1466.32 2452.06,1412.85 2467.53,1356.03 
  2483,1296.25 2498.47,1233.92 2513.94,1169.48 2529.41,1103.35 2544.88,1036 2551.23,1008.11 2557.58,980.133 2563.93,952.088 2570.27,924.011 
  "/>
<path clip-path="url(#clip190)" d="
M2228.6 209.375 L2557.74 209.375 L2557.74 105.695 L2228.6 105.695  Z
  " fill="#ffffff" fill-rule="evenodd" fill-opacity="1"/>
<polyline clip-path="url(#clip190)" style="stroke:#000000; stroke-linecap:butt; stroke-linejoin:round; stroke-width:4; stroke-opacity:1; fill:none" points="
  2228.6,209.375 2557.74,209.375 2557.74,105.695 2228.6,105.695 2228.6,209.375 
  "/>
<polyline clip-path="url(#clip190)" style="stroke:#009af9; stroke-linecap:butt; stroke-linejoin:round; stroke-width:4; stroke-opacity:1; fill:none" points="
  2256.27,157.535 2422.3,157.535 
  "/>
<path clip-path="url(#clip190)" d="M2463.81 177.223 Q2462.01 181.852 2460.29 183.264 Q2458.58 184.676 2455.71 184.676 L2452.31 184.676 L2452.31 181.112 L2454.81 181.112 Q2456.57 181.112 2457.54 180.278 Q2458.51 179.445 2459.69 176.343 L2460.46 174.399 L2449.97 148.889 L2454.48 148.889 L2462.59 169.167 L2470.69 148.889 L2475.2 148.889 L2463.81 177.223 Z" fill="#000000" fill-rule="evenodd" fill-opacity="1" /><path clip-path="url(#clip190)" d="M2482.49 170.88 L2490.13 170.88 L2490.13 144.515 L2481.82 146.181 L2481.82 141.922 L2490.09 140.255 L2494.76 140.255 L2494.76 170.88 L2502.4 170.88 L2502.4 174.815 L2482.49 174.815 L2482.49 170.88 Z" fill="#000000" fill-rule="evenodd" fill-opacity="1" /></svg>
