<?xml version="1.0" encoding="utf-8"?>
<svg xmlns="http://www.w3.org/2000/svg" xmlns:xlink="http://www.w3.org/1999/xlink" width="672" height="480" viewBox="0 0 2688 1920">
<defs>
  <clipPath id="clip680">
    <rect x="0" y="0" width="2688" height="1920"/>
  </clipPath>
</defs>
<path clip-path="url(#clip680)" d="
M0 1920 L2688 1920 L2688 0 L0 0  Z
  " fill="#ffffff" fill-rule="evenodd" fill-opacity="1"/>
<defs>
  <clipPath id="clip681">
    <rect x="537" y="0" width="1883" height="1883"/>
  </clipPath>
</defs>
<path clip-path="url(#clip680)" d="
M115.057 1800.78 L2640.76 1800.78 L2640.76 47.2441 L115.057 47.2441  Z
  " fill="#ffffff" fill-rule="evenodd" fill-opacity="1"/>
<defs>
  <clipPath id="clip682">
    <rect x="115" y="47" width="2527" height="1755"/>
  </clipPath>
</defs>
<polyline clip-path="url(#clip682)" style="stroke:#000000; stroke-linecap:butt; stroke-linejoin:round; stroke-width:2; stroke-opacity:0.1; fill:none" points="
  186.539,1800.78 186.539,47.2441 
  "/>
<polyline clip-path="url(#clip682)" style="stroke:#000000; stroke-linecap:butt; stroke-linejoin:round; stroke-width:2; stroke-opacity:0.1; fill:none" points="
  980.784,1800.78 980.784,47.2441 
  "/>
<polyline clip-path="url(#clip682)" style="stroke:#000000; stroke-linecap:butt; stroke-linejoin:round; stroke-width:2; stroke-opacity:0.1; fill:none" points="
  1775.03,1800.78 1775.03,47.2441 
  "/>
<polyline clip-path="url(#clip682)" style="stroke:#000000; stroke-linecap:butt; stroke-linejoin:round; stroke-width:2; stroke-opacity:0.1; fill:none" points="
  2569.27,1800.78 2569.27,47.2441 
  "/>
<polyline clip-path="url(#clip680)" style="stroke:#000000; stroke-linecap:butt; stroke-linejoin:round; stroke-width:4; stroke-opacity:1; fill:none" points="
  115.057,1800.78 2640.76,1800.78 
  "/>
<polyline clip-path="url(#clip680)" style="stroke:#000000; stroke-linecap:butt; stroke-linejoin:round; stroke-width:4; stroke-opacity:1; fill:none" points="
  186.539,1800.78 186.539,1781.88 
  "/>
<polyline clip-path="url(#clip680)" style="stroke:#000000; stroke-linecap:butt; stroke-linejoin:round; stroke-width:4; stroke-opacity:1; fill:none" points="
  980.784,1800.78 980.784,1781.88 
  "/>
<polyline clip-path="url(#clip680)" style="stroke:#000000; stroke-linecap:butt; stroke-linejoin:round; stroke-width:4; stroke-opacity:1; fill:none" points="
  1775.03,1800.78 1775.03,1781.88 
  "/>
<polyline clip-path="url(#clip680)" style="stroke:#000000; stroke-linecap:butt; stroke-linejoin:round; stroke-width:4; stroke-opacity:1; fill:none" points="
  2569.27,1800.78 2569.27,1781.88 
  "/>
<path clip-path="url(#clip680)" d="M186.539 1834 Q182.928 1834 181.099 1837.57 Q179.294 1841.11 179.294 1848.24 Q179.294 1855.34 181.099 1858.91 Q182.928 1862.45 186.539 1862.45 Q190.173 1862.45 191.979 1858.91 Q193.808 1855.34 193.808 1848.24 Q193.808 1841.11 191.979 1837.57 Q190.173 1834 186.539 1834 M186.539 1830.3 Q192.349 1830.3 195.405 1834.9 Q198.484 1839.49 198.484 1848.24 Q198.484 1856.96 195.405 1861.57 Q192.349 1866.15 186.539 1866.15 Q180.729 1866.15 177.65 1861.57 Q174.595 1856.96 174.595 1848.24 Q174.595 1839.49 177.65 1834.9 Q180.729 1830.3 186.539 1830.3 Z" fill="#000000" fill-rule="evenodd" fill-opacity="1" /><path clip-path="url(#clip680)" d="M971.166 1861.55 L978.805 1861.55 L978.805 1835.18 L970.495 1836.85 L970.495 1832.59 L978.759 1830.92 L983.435 1830.92 L983.435 1861.55 L991.073 1861.55 L991.073 1865.48 L971.166 1865.48 L971.166 1861.55 Z" fill="#000000" fill-rule="evenodd" fill-opacity="1" /><path clip-path="url(#clip680)" d="M1769.68 1861.55 L1786 1861.55 L1786 1865.48 L1764.06 1865.48 L1764.06 1861.55 Q1766.72 1858.79 1771.3 1854.16 Q1775.91 1849.51 1777.09 1848.17 Q1779.33 1845.65 1780.21 1843.91 Q1781.12 1842.15 1781.12 1840.46 Q1781.12 1837.71 1779.17 1835.97 Q1777.25 1834.23 1774.15 1834.23 Q1771.95 1834.23 1769.5 1835 Q1767.07 1835.76 1764.29 1837.31 L1764.29 1832.59 Q1767.11 1831.46 1769.57 1830.88 Q1772.02 1830.3 1774.06 1830.3 Q1779.43 1830.3 1782.62 1832.98 Q1785.82 1835.67 1785.82 1840.16 Q1785.82 1842.29 1785.01 1844.21 Q1784.22 1846.11 1782.11 1848.7 Q1781.53 1849.37 1778.43 1852.59 Q1775.33 1855.78 1769.68 1861.55 Z" fill="#000000" fill-rule="evenodd" fill-opacity="1" /><path clip-path="url(#clip680)" d="M2573.52 1846.85 Q2576.88 1847.57 2578.75 1849.84 Q2580.65 1852.1 2580.65 1855.44 Q2580.65 1860.55 2577.13 1863.35 Q2573.61 1866.15 2567.13 1866.15 Q2564.96 1866.15 2562.64 1865.71 Q2560.35 1865.3 2557.9 1864.44 L2557.9 1859.93 Q2559.84 1861.06 2562.16 1861.64 Q2564.47 1862.22 2566.99 1862.22 Q2571.39 1862.22 2573.68 1860.48 Q2576 1858.75 2576 1855.44 Q2576 1852.38 2573.85 1850.67 Q2571.72 1848.93 2567.9 1848.93 L2563.87 1848.93 L2563.87 1845.09 L2568.08 1845.09 Q2571.53 1845.09 2573.36 1843.72 Q2575.19 1842.34 2575.19 1839.74 Q2575.19 1837.08 2573.29 1835.67 Q2571.42 1834.23 2567.9 1834.23 Q2565.98 1834.23 2563.78 1834.65 Q2561.58 1835.07 2558.94 1835.95 L2558.94 1831.78 Q2561.6 1831.04 2563.92 1830.67 Q2566.25 1830.3 2568.31 1830.3 Q2573.64 1830.3 2576.74 1832.73 Q2579.84 1835.14 2579.84 1839.26 Q2579.84 1842.13 2578.2 1844.12 Q2576.55 1846.09 2573.52 1846.85 Z" fill="#000000" fill-rule="evenodd" fill-opacity="1" /><polyline clip-path="url(#clip682)" style="stroke:#000000; stroke-linecap:butt; stroke-linejoin:round; stroke-width:2; stroke-opacity:0.1; fill:none" points="
  115.057,1464.36 2640.76,1464.36 
  "/>
<polyline clip-path="url(#clip682)" style="stroke:#000000; stroke-linecap:butt; stroke-linejoin:round; stroke-width:2; stroke-opacity:0.1; fill:none" points="
  115.057,1126.96 2640.76,1126.96 
  "/>
<polyline clip-path="url(#clip682)" style="stroke:#000000; stroke-linecap:butt; stroke-linejoin:round; stroke-width:2; stroke-opacity:0.1; fill:none" points="
  115.057,789.557 2640.76,789.557 
  "/>
<polyline clip-path="url(#clip682)" style="stroke:#000000; stroke-linecap:butt; stroke-linejoin:round; stroke-width:2; stroke-opacity:0.1; fill:none" points="
  115.057,452.156 2640.76,452.156 
  "/>
<polyline clip-path="url(#clip682)" style="stroke:#000000; stroke-linecap:butt; stroke-linejoin:round; stroke-width:2; stroke-opacity:0.1; fill:none" points="
  115.057,114.755 2640.76,114.755 
  "/>
<polyline clip-path="url(#clip680)" style="stroke:#000000; stroke-linecap:butt; stroke-linejoin:round; stroke-width:4; stroke-opacity:1; fill:none" points="
  115.057,1800.78 115.057,47.2441 
  "/>
<polyline clip-path="url(#clip680)" style="stroke:#000000; stroke-linecap:butt; stroke-linejoin:round; stroke-width:4; stroke-opacity:1; fill:none" points="
  115.057,1464.36 133.955,1464.36 
  "/>
<polyline clip-path="url(#clip680)" style="stroke:#000000; stroke-linecap:butt; stroke-linejoin:round; stroke-width:4; stroke-opacity:1; fill:none" points="
  115.057,1126.96 133.955,1126.96 
  "/>
<polyline clip-path="url(#clip680)" style="stroke:#000000; stroke-linecap:butt; stroke-linejoin:round; stroke-width:4; stroke-opacity:1; fill:none" points="
  115.057,789.557 133.955,789.557 
  "/>
<polyline clip-path="url(#clip680)" style="stroke:#000000; stroke-linecap:butt; stroke-linejoin:round; stroke-width:4; stroke-opacity:1; fill:none" points="
  115.057,452.156 133.955,452.156 
  "/>
<polyline clip-path="url(#clip680)" style="stroke:#000000; stroke-linecap:butt; stroke-linejoin:round; stroke-width:4; stroke-opacity:1; fill:none" points="
  115.057,114.755 133.955,114.755 
  "/>
<path clip-path="url(#clip680)" d="M54.8299 1477.7 L62.4687 1477.7 L62.4687 1451.34 L54.1586 1453.01 L54.1586 1448.75 L62.4224 1447.08 L67.0983 1447.08 L67.0983 1477.7 L74.7372 1477.7 L74.7372 1481.64 L54.8299 1481.64 L54.8299 1477.7 Z" fill="#000000" fill-rule="evenodd" fill-opacity="1" /><path clip-path="url(#clip680)" d="M58.4178 1140.3 L74.7372 1140.3 L74.7372 1144.24 L52.7928 1144.24 L52.7928 1140.3 Q55.4549 1137.55 60.0382 1132.92 Q64.6446 1128.27 65.8252 1126.92 Q68.0705 1124.4 68.9502 1122.66 Q69.8529 1120.91 69.8529 1119.22 Q69.8529 1116.46 67.9085 1114.72 Q65.9872 1112.99 62.8854 1112.99 Q60.6863 1112.99 58.2326 1113.75 Q55.8021 1114.52 53.0243 1116.07 L53.0243 1111.35 Q55.8484 1110.21 58.3021 1109.63 Q60.7558 1109.05 62.7928 1109.05 Q68.1631 1109.05 71.3576 1111.74 Q74.552 1114.42 74.552 1118.91 Q74.552 1121.04 73.7418 1122.97 Q72.9548 1124.86 70.8483 1127.46 Q70.2696 1128.13 67.1678 1131.35 Q64.0659 1134.54 58.4178 1140.3 Z" fill="#000000" fill-rule="evenodd" fill-opacity="1" /><path clip-path="url(#clip680)" d="M67.6076 788.203 Q70.964 788.921 72.839 791.189 Q74.7372 793.458 74.7372 796.791 Q74.7372 801.907 71.2187 804.708 Q67.7002 807.509 61.2187 807.509 Q59.0428 807.509 56.728 807.069 Q54.4364 806.652 51.9827 805.796 L51.9827 801.282 Q53.9271 802.416 56.2419 802.995 Q58.5567 803.573 61.0798 803.573 Q65.478 803.573 67.7696 801.837 Q70.0844 800.101 70.0844 796.791 Q70.0844 793.736 67.9317 792.023 Q65.802 790.286 61.9826 790.286 L57.9549 790.286 L57.9549 786.444 L62.1678 786.444 Q65.6169 786.444 67.4455 785.078 Q69.2742 783.689 69.2742 781.097 Q69.2742 778.435 67.3761 777.023 Q65.5011 775.587 61.9826 775.587 Q60.0613 775.587 57.8623 776.004 Q55.6632 776.421 53.0243 777.3 L53.0243 773.134 Q55.6864 772.393 58.0012 772.023 Q60.3391 771.652 62.3993 771.652 Q67.7233 771.652 70.8252 774.083 Q73.927 776.49 73.927 780.611 Q73.927 783.481 72.2835 785.472 Q70.64 787.439 67.6076 788.203 Z" fill="#000000" fill-rule="evenodd" fill-opacity="1" /><path clip-path="url(#clip680)" d="M65.1539 438.95 L53.3484 457.399 L65.1539 457.399 L65.1539 438.95 M63.927 434.876 L69.8066 434.876 L69.8066 457.399 L74.7372 457.399 L74.7372 461.288 L69.8066 461.288 L69.8066 469.436 L65.1539 469.436 L65.1539 461.288 L49.5521 461.288 L49.5521 456.774 L63.927 434.876 Z" fill="#000000" fill-rule="evenodd" fill-opacity="1" /><path clip-path="url(#clip680)" d="M53.8345 97.4747 L72.1909 97.4747 L72.1909 101.41 L58.1169 101.41 L58.1169 109.882 Q59.1354 109.535 60.1539 109.373 Q61.1724 109.188 62.1909 109.188 Q67.978 109.188 71.3576 112.359 Q74.7372 115.53 74.7372 120.947 Q74.7372 126.526 71.265 129.627 Q67.7928 132.706 61.4734 132.706 Q59.2974 132.706 57.0289 132.336 Q54.7836 131.965 52.3762 131.225 L52.3762 126.526 Q54.4595 127.66 56.6817 128.215 Q58.9039 128.771 61.3808 128.771 Q65.3854 128.771 67.7233 126.664 Q70.0613 124.558 70.0613 120.947 Q70.0613 117.336 67.7233 115.229 Q65.3854 113.123 61.3808 113.123 Q59.5058 113.123 57.6308 113.539 Q55.7789 113.956 53.8345 114.836 L53.8345 97.4747 Z" fill="#000000" fill-rule="evenodd" fill-opacity="1" /><polyline clip-path="url(#clip682)" style="stroke:#009af9; stroke-linecap:butt; stroke-linejoin:round; stroke-width:4; stroke-opacity:1; fill:none" points="
  186.539,1751.15 202.052,1750.82 345.491,1747.24 431.692,1744.57 504.574,1741.9 583.744,1738.47 656.732,1734.67 734.983,1729.74 825.644,1722.52 906.213,1714.26 
  976.864,1705.01 1053.89,1691.95 1131.38,1674.27 1174.22,1661.77 1217.05,1646.63 1257.81,1629.09 1298.57,1607.58 1319.76,1594.44 1340.95,1579.68 1362.13,1563.03 
  1383.32,1544.19 1401.16,1526.35 1419,1506.43 1436.83,1484.1 1454.67,1459.02 1465.56,1442.16 1476.45,1424.01 1487.33,1404.44 1498.22,1383.32 1509.11,1360.51 
  1520,1335.84 1530.89,1309.15 1541.78,1280.25 1551.75,1251.68 1561.72,1220.93 1571.7,1187.84 1581.67,1152.25 1591.65,1113.98 1601.62,1072.87 1611.6,1028.77 
  1621.57,981.568 1630.78,935.136 1640,885.953 1649.21,834.045 1658.42,779.512 1667.63,722.541 1676.84,663.433 1686.06,602.621 1695.27,540.692 1704.6,477.598 
  1713.93,415.116 1723.26,354.411 1732.59,296.819 1737.26,269.643 1741.93,243.8 1746.59,219.481 1751.26,196.876 1755.92,176.172 1760.59,157.545 1765.25,141.161 
  1769.92,127.171 1775.15,114.5 1780.38,105.156 1785.61,99.2556 1790.84,96.8724 1796.07,98.0372 1801.29,102.735 1806.52,110.907 1811.75,122.451 1816.98,137.224 
  1822.21,155.051 1827.44,175.724 1832.67,199.012 1837.9,224.664 1843.13,252.418 1848.36,282.006 1853.58,313.159 1863.06,372.75 1872.54,435.116 1882.01,498.911 
  1891.49,562.976 1900.97,626.356 1910.44,688.295 1919.92,748.224 1929.4,805.735 1940.25,868.273 1951.1,927.071 1961.95,982.055 1972.8,1033.26 1983.65,1080.8 
  1994.5,1124.84 2005.35,1165.57 2016.2,1203.2 2026.25,1235.47 2036.29,1265.45 2046.34,1293.29 2056.38,1319.16 2066.43,1343.21 2076.48,1365.58 2086.52,1386.39 
  2096.57,1405.78 2106.47,1423.61 2116.38,1440.26 2126.28,1455.82 2136.19,1470.38 2156,1496.79 2175.81,1520.03 2195.04,1540 2214.27,1557.77 2233.5,1573.63 
  2252.74,1587.84 2292.17,1612.66 2331.6,1632.85 2374.8,1650.89 2418.01,1665.65 2480.76,1682.71 2543.52,1695.95 2556.4,1698.3 2569.27,1700.54 
  "/>
<path clip-path="url(#clip680)" d="
M2223.5 209.375 L2556.57 209.375 L2556.57 105.695 L2223.5 105.695  Z
  " fill="#ffffff" fill-rule="evenodd" fill-opacity="1"/>
<polyline clip-path="url(#clip680)" style="stroke:#000000; stroke-linecap:butt; stroke-linejoin:round; stroke-width:4; stroke-opacity:1; fill:none" points="
  2223.5,209.375 2556.57,209.375 2556.57,105.695 2223.5,105.695 2223.5,209.375 
  "/>
<polyline clip-path="url(#clip680)" style="stroke:#009af9; stroke-linecap:butt; stroke-linejoin:round; stroke-width:4; stroke-opacity:1; fill:none" points="
  2251.57,157.535 2419.95,157.535 
  "/>
<path clip-path="url(#clip680)" d="M2461.85 177.223 Q2460.05 181.852 2458.33 183.264 Q2456.62 184.676 2453.75 184.676 L2450.35 184.676 L2450.35 181.112 L2452.85 181.112 Q2454.61 181.112 2455.58 180.278 Q2456.55 179.445 2457.73 176.343 L2458.5 174.399 L2448.01 148.889 L2452.52 148.889 L2460.62 169.167 L2468.73 148.889 L2473.24 148.889 L2461.85 177.223 Z" fill="#000000" fill-rule="evenodd" fill-opacity="1" /><path clip-path="url(#clip680)" d="M2480.53 170.88 L2488.17 170.88 L2488.17 144.515 L2479.86 146.181 L2479.86 141.922 L2488.12 140.255 L2492.8 140.255 L2492.8 170.88 L2500.44 170.88 L2500.44 174.815 L2480.53 174.815 L2480.53 170.88 Z" fill="#000000" fill-rule="evenodd" fill-opacity="1" /></svg>
