<?xml version="1.0" encoding="utf-8"?>
<svg xmlns="http://www.w3.org/2000/svg" xmlns:xlink="http://www.w3.org/1999/xlink" width="672" height="480" viewBox="0 0 2688 1920">
<defs>
  <clipPath id="clip560">
    <rect x="0" y="0" width="2688" height="1920"/>
  </clipPath>
</defs>
<path clip-path="url(#clip560)" d="
M0 1920 L2688 1920 L2688 0 L0 0  Z
  " fill="#ffffff" fill-rule="evenodd" fill-opacity="1"/>
<defs>
  <clipPath id="clip561">
    <rect x="537" y="0" width="1883" height="1883"/>
  </clipPath>
</defs>
<path clip-path="url(#clip560)" d="
M150.358 1800.78 L2371.96 1800.78 L2371.96 47.2441 L150.358 47.2441  Z
  " fill="#ffffff" fill-rule="evenodd" fill-opacity="1"/>
<defs>
  <clipPath id="clip562">
    <rect x="150" y="47" width="2223" height="1755"/>
  </clipPath>
</defs>
<polyline clip-path="url(#clip562)" style="stroke:#000000; stroke-linecap:butt; stroke-linejoin:round; stroke-width:2; stroke-opacity:0.1; fill:none" points="
  150.358,1800.78 150.358,47.2441 
  "/>
<polyline clip-path="url(#clip562)" style="stroke:#000000; stroke-linecap:butt; stroke-linejoin:round; stroke-width:2; stroke-opacity:0.1; fill:none" points="
  705.757,1800.78 705.757,47.2441 
  "/>
<polyline clip-path="url(#clip562)" style="stroke:#000000; stroke-linecap:butt; stroke-linejoin:round; stroke-width:2; stroke-opacity:0.1; fill:none" points="
  1261.16,1800.78 1261.16,47.2441 
  "/>
<polyline clip-path="url(#clip562)" style="stroke:#000000; stroke-linecap:butt; stroke-linejoin:round; stroke-width:2; stroke-opacity:0.1; fill:none" points="
  1816.56,1800.78 1816.56,47.2441 
  "/>
<polyline clip-path="url(#clip562)" style="stroke:#000000; stroke-linecap:butt; stroke-linejoin:round; stroke-width:2; stroke-opacity:0.1; fill:none" points="
  2371.96,1800.78 2371.96,47.2441 
  "/>
<polyline clip-path="url(#clip560)" style="stroke:#000000; stroke-linecap:butt; stroke-linejoin:round; stroke-width:4; stroke-opacity:1; fill:none" points="
  150.358,1800.78 2371.96,1800.78 
  "/>
<polyline clip-path="url(#clip560)" style="stroke:#000000; stroke-linecap:butt; stroke-linejoin:round; stroke-width:4; stroke-opacity:1; fill:none" points="
  150.358,1800.78 150.358,1781.88 
  "/>
<polyline clip-path="url(#clip560)" style="stroke:#000000; stroke-linecap:butt; stroke-linejoin:round; stroke-width:4; stroke-opacity:1; fill:none" points="
  705.757,1800.78 705.757,1781.88 
  "/>
<polyline clip-path="url(#clip560)" style="stroke:#000000; stroke-linecap:butt; stroke-linejoin:round; stroke-width:4; stroke-opacity:1; fill:none" points="
  1261.16,1800.78 1261.16,1781.88 
  "/>
<polyline clip-path="url(#clip560)" style="stroke:#000000; stroke-linecap:butt; stroke-linejoin:round; stroke-width:4; stroke-opacity:1; fill:none" points="
  1816.56,1800.78 1816.56,1781.88 
  "/>
<polyline clip-path="url(#clip560)" style="stroke:#000000; stroke-linecap:butt; stroke-linejoin:round; stroke-width:4; stroke-opacity:1; fill:none" points="
  2371.96,1800.78 2371.96,1781.88 
  "/>
<path clip-path="url(#clip560)" d="M120.3 1848.65 L149.976 1848.65 L149.976 1852.59 L120.3 1852.59 L120.3 1848.65 Z" fill="#000000" fill-rule="evenodd" fill-opacity="1" /><path clip-path="url(#clip560)" d="M164.096 1861.55 L180.416 1861.55 L180.416 1865.48 L158.471 1865.48 L158.471 1861.55 Q161.133 1858.79 165.717 1854.16 Q170.323 1849.51 171.504 1848.17 Q173.749 1845.65 174.629 1843.91 Q175.531 1842.15 175.531 1840.46 Q175.531 1837.71 173.587 1835.97 Q171.666 1834.23 168.564 1834.23 Q166.365 1834.23 163.911 1835 Q161.481 1835.76 158.703 1837.31 L158.703 1832.59 Q161.527 1831.46 163.981 1830.88 Q166.434 1830.3 168.471 1830.3 Q173.842 1830.3 177.036 1832.98 Q180.23 1835.67 180.23 1840.16 Q180.23 1842.29 179.42 1844.21 Q178.633 1846.11 176.527 1848.7 Q175.948 1849.37 172.846 1852.59 Q169.744 1855.78 164.096 1861.55 Z" fill="#000000" fill-rule="evenodd" fill-opacity="1" /><path clip-path="url(#clip560)" d="M675.515 1848.65 L705.19 1848.65 L705.19 1852.59 L675.515 1852.59 L675.515 1848.65 Z" fill="#000000" fill-rule="evenodd" fill-opacity="1" /><path clip-path="url(#clip560)" d="M716.093 1861.55 L723.732 1861.55 L723.732 1835.18 L715.422 1836.85 L715.422 1832.59 L723.686 1830.92 L728.361 1830.92 L728.361 1861.55 L736 1861.55 L736 1865.48 L716.093 1865.48 L716.093 1861.55 Z" fill="#000000" fill-rule="evenodd" fill-opacity="1" /><path clip-path="url(#clip560)" d="M1261.16 1834 Q1257.55 1834 1255.72 1837.57 Q1253.91 1841.11 1253.91 1848.24 Q1253.91 1855.34 1255.72 1858.91 Q1257.55 1862.45 1261.16 1862.45 Q1264.79 1862.45 1266.6 1858.91 Q1268.43 1855.34 1268.43 1848.24 Q1268.43 1841.11 1266.6 1837.57 Q1264.79 1834 1261.16 1834 M1261.16 1830.3 Q1266.97 1830.3 1270.02 1834.9 Q1273.1 1839.49 1273.1 1848.24 Q1273.1 1856.96 1270.02 1861.57 Q1266.97 1866.15 1261.16 1866.15 Q1255.35 1866.15 1252.27 1861.57 Q1249.21 1856.96 1249.21 1848.24 Q1249.21 1839.49 1252.27 1834.9 Q1255.35 1830.3 1261.16 1830.3 Z" fill="#000000" fill-rule="evenodd" fill-opacity="1" /><path clip-path="url(#clip560)" d="M1806.94 1861.55 L1814.58 1861.55 L1814.58 1835.18 L1806.27 1836.85 L1806.27 1832.59 L1814.53 1830.92 L1819.21 1830.92 L1819.21 1861.55 L1826.85 1861.55 L1826.85 1865.48 L1806.94 1865.48 L1806.94 1861.55 Z" fill="#000000" fill-rule="evenodd" fill-opacity="1" /><path clip-path="url(#clip560)" d="M2366.61 1861.55 L2382.93 1861.55 L2382.93 1865.48 L2360.98 1865.48 L2360.98 1861.55 Q2363.65 1858.79 2368.23 1854.16 Q2372.84 1849.51 2374.02 1848.17 Q2376.26 1845.65 2377.14 1843.91 Q2378.04 1842.15 2378.04 1840.46 Q2378.04 1837.71 2376.1 1835.97 Q2374.18 1834.23 2371.08 1834.23 Q2368.88 1834.23 2366.42 1835 Q2363.99 1835.76 2361.22 1837.31 L2361.22 1832.59 Q2364.04 1831.46 2366.49 1830.88 Q2368.95 1830.3 2370.98 1830.3 Q2376.35 1830.3 2379.55 1832.98 Q2382.74 1835.67 2382.74 1840.16 Q2382.74 1842.29 2381.93 1844.21 Q2381.15 1846.11 2379.04 1848.7 Q2378.46 1849.37 2375.36 1852.59 Q2372.26 1855.78 2366.61 1861.55 Z" fill="#000000" fill-rule="evenodd" fill-opacity="1" /><polyline clip-path="url(#clip562)" style="stroke:#000000; stroke-linecap:butt; stroke-linejoin:round; stroke-width:2; stroke-opacity:0.1; fill:none" points="
  150.358,1800.78 2371.96,1800.78 
  "/>
<polyline clip-path="url(#clip562)" style="stroke:#000000; stroke-linecap:butt; stroke-linejoin:round; stroke-width:2; stroke-opacity:0.1; fill:none" points="
  150.358,1362.4 2371.96,1362.4 
  "/>
<polyline clip-path="url(#clip562)" style="stroke:#000000; stroke-linecap:butt; stroke-linejoin:round; stroke-width:2; stroke-opacity:0.1; fill:none" points="
  150.358,924.012 2371.96,924.012 
  "/>
<polyline clip-path="url(#clip562)" style="stroke:#000000; stroke-linecap:butt; stroke-linejoin:round; stroke-width:2; stroke-opacity:0.1; fill:none" points="
  150.358,485.628 2371.96,485.628 
  "/>
<polyline clip-path="url(#clip562)" style="stroke:#000000; stroke-linecap:butt; stroke-linejoin:round; stroke-width:2; stroke-opacity:0.1; fill:none" points="
  150.358,47.2441 2371.96,47.2441 
  "/>
<polyline clip-path="url(#clip560)" style="stroke:#000000; stroke-linecap:butt; stroke-linejoin:round; stroke-width:4; stroke-opacity:1; fill:none" points="
  150.358,1800.78 150.358,47.2441 
  "/>
<polyline clip-path="url(#clip560)" style="stroke:#000000; stroke-linecap:butt; stroke-linejoin:round; stroke-width:4; stroke-opacity:1; fill:none" points="
  150.358,1800.78 167.216,1800.78 
  "/>
<polyline clip-path="url(#clip560)" style="stroke:#000000; stroke-linecap:butt; stroke-linejoin:round; stroke-width:4; stroke-opacity:1; fill:none" points="
  150.358,1362.4 167.216,1362.4 
  "/>
<polyline clip-path="url(#clip560)" style="stroke:#000000; stroke-linecap:butt; stroke-linejoin:round; stroke-width:4; stroke-opacity:1; fill:none" points="
  150.358,924.012 167.216,924.012 
  "/>
<polyline clip-path="url(#clip560)" style="stroke:#000000; stroke-linecap:butt; stroke-linejoin:round; stroke-width:4; stroke-opacity:1; fill:none" points="
  150.358,485.628 167.216,485.628 
  "/>
<polyline clip-path="url(#clip560)" style="stroke:#000000; stroke-linecap:butt; stroke-linejoin:round; stroke-width:4; stroke-opacity:1; fill:none" points="
  150.358,47.2441 167.216,47.2441 
  "/>
<path clip-path="url(#clip560)" d="M49.9225 1801.23 L79.5983 1801.23 L79.5983 1805.17 L49.9225 1805.17 L49.9225 1801.23 Z" fill="#000000" fill-rule="evenodd" fill-opacity="1" /><path clip-path="url(#clip560)" d="M93.7186 1814.12 L110.038 1814.12 L110.038 1818.06 L88.0936 1818.06 L88.0936 1814.12 Q90.7556 1811.37 95.3389 1806.74 Q99.9454 1802.09 101.126 1800.74 Q103.371 1798.22 104.251 1796.49 Q105.154 1794.73 105.154 1793.04 Q105.154 1790.28 103.209 1788.55 Q101.288 1786.81 98.1861 1786.81 Q95.9871 1786.81 93.5334 1787.57 Q91.1028 1788.34 88.3251 1789.89 L88.3251 1785.17 Q91.1491 1784.03 93.6028 1783.45 Q96.0565 1782.87 98.0935 1782.87 Q103.464 1782.87 106.658 1785.56 Q109.853 1788.24 109.853 1792.74 Q109.853 1794.86 109.043 1796.79 Q108.256 1798.68 106.149 1801.28 Q105.57 1801.95 102.469 1805.17 Q99.3667 1808.36 93.7186 1814.12 Z" fill="#000000" fill-rule="evenodd" fill-opacity="1" /><path clip-path="url(#clip560)" d="M49.5521 1362.85 L79.2279 1362.85 L79.2279 1366.78 L49.5521 1366.78 L49.5521 1362.85 Z" fill="#000000" fill-rule="evenodd" fill-opacity="1" /><path clip-path="url(#clip560)" d="M90.1306 1375.74 L97.7695 1375.74 L97.7695 1349.37 L89.4593 1351.04 L89.4593 1346.78 L97.7232 1345.12 L102.399 1345.12 L102.399 1375.74 L110.038 1375.74 L110.038 1379.68 L90.1306 1379.68 L90.1306 1375.74 Z" fill="#000000" fill-rule="evenodd" fill-opacity="1" /><path clip-path="url(#clip560)" d="M98.0935 909.81 Q94.4824 909.81 92.6537 913.375 Q90.8482 916.917 90.8482 924.046 Q90.8482 931.153 92.6537 934.718 Q94.4824 938.259 98.0935 938.259 Q101.728 938.259 103.533 934.718 Q105.362 931.153 105.362 924.046 Q105.362 916.917 103.533 913.375 Q101.728 909.81 98.0935 909.81 M98.0935 906.107 Q103.904 906.107 106.959 910.713 Q110.038 915.296 110.038 924.046 Q110.038 932.773 106.959 937.38 Q103.904 941.963 98.0935 941.963 Q92.2834 941.963 89.2047 937.38 Q86.1492 932.773 86.1492 924.046 Q86.1492 915.296 89.2047 910.713 Q92.2834 906.107 98.0935 906.107 Z" fill="#000000" fill-rule="evenodd" fill-opacity="1" /><path clip-path="url(#clip560)" d="M90.1306 498.973 L97.7695 498.973 L97.7695 472.607 L89.4593 474.274 L89.4593 470.015 L97.7232 468.348 L102.399 468.348 L102.399 498.973 L110.038 498.973 L110.038 502.908 L90.1306 502.908 L90.1306 498.973 Z" fill="#000000" fill-rule="evenodd" fill-opacity="1" /><path clip-path="url(#clip560)" d="M93.7186 60.5889 L110.038 60.5889 L110.038 64.5241 L88.0936 64.5241 L88.0936 60.5889 Q90.7556 57.8343 95.3389 53.2047 Q99.9454 48.552 101.126 47.2094 Q103.371 44.6862 104.251 42.9501 Q105.154 41.1909 105.154 39.5011 Q105.154 36.7465 103.209 35.0104 Q101.288 33.2743 98.1861 33.2743 Q95.9871 33.2743 93.5334 34.0381 Q91.1028 34.802 88.3251 36.3529 L88.3251 31.6308 Q91.1491 30.4965 93.6028 29.9178 Q96.0565 29.3391 98.0935 29.3391 Q103.464 29.3391 106.658 32.0243 Q109.853 34.7094 109.853 39.2002 Q109.853 41.3298 109.043 43.2511 Q108.256 45.1492 106.149 47.7418 Q105.57 48.4131 102.469 51.6306 Q99.3667 54.8251 93.7186 60.5889 Z" fill="#000000" fill-rule="evenodd" fill-opacity="1" /><polyline clip-path="url(#clip562)" style="stroke:#090621; stroke-linecap:butt; stroke-linejoin:round; stroke-width:4; stroke-opacity:1; fill:none" points="
  222.131,1800.78 217.679,1797.48 198.641,1783.07 195.239,1780.44 176.129,1765.35 172.798,1762.67 154.537,1747.64 150.358,1744.13 
  "/>
<polyline clip-path="url(#clip562)" style="stroke:#1f0c47; stroke-linecap:butt; stroke-linejoin:round; stroke-width:4; stroke-opacity:1; fill:none" points="
  150.358,1683.28 162.838,1694.5 172.798,1703.26 183.2,1712.22 195.239,1722.35 204.43,1729.93 217.679,1740.61 226.582,1747.64 240.119,1758.1 249.719,1765.35 
  262.56,1774.86 273.908,1783.07 285,1790.93 299.221,1800.78 
  "/>
<polyline clip-path="url(#clip562)" style="stroke:#3b0964; stroke-linecap:butt; stroke-linejoin:round; stroke-width:4; stroke-opacity:1; fill:none" points="
  383.033,1800.78 374.762,1795.58 355.337,1783.07 352.321,1781.08 329.881,1765.95 329.013,1765.35 307.441,1750.14 303.983,1747.64 285,1733.64 280.091,1729.93 
  262.56,1716.4 257.261,1712.22 240.119,1698.38 235.424,1694.5 217.679,1679.52 214.516,1676.79 195.239,1659.76 194.479,1659.08 175.311,1641.37 172.798,1638.99 
  156.941,1623.65 150.358,1617.13 
  "/>
<polyline clip-path="url(#clip562)" style="stroke:#550f6d; stroke-linecap:butt; stroke-linejoin:round; stroke-width:4; stroke-opacity:1; fill:none" points="
  150.358,1543.95 158.372,1552.8 172.798,1568.3 174.902,1570.52 192.2,1588.23 195.239,1591.26 210.279,1605.94 217.679,1612.98 229.143,1623.65 240.119,1633.62 
  248.846,1641.37 262.56,1653.25 269.445,1659.08 285,1671.94 291.002,1676.79 307.441,1689.77 313.585,1694.5 329.881,1706.78 337.27,1712.22 352.321,1723.04 
  362.139,1729.93 374.762,1738.59 388.284,1747.64 397.202,1753.48 415.804,1765.35 419.643,1767.75 442.083,1781.41 444.888,1783.07 464.523,1794.45 475.743,1800.78 
  
  "/>
<polyline clip-path="url(#clip562)" style="stroke:#6e186e; stroke-linecap:butt; stroke-linejoin:round; stroke-width:4; stroke-opacity:1; fill:none" points="
  580.933,1800.78 576.725,1798.75 554.285,1787.54 545.607,1783.07 531.844,1775.83 512.549,1765.35 509.404,1763.61 486.964,1750.8 481.594,1747.64 464.523,1737.39 
  452.446,1729.93 442.083,1723.39 424.874,1712.22 419.643,1708.74 398.752,1694.5 397.202,1693.42 374.762,1677.36 373.99,1676.79 352.321,1660.5 350.474,1659.08 
  329.881,1642.83 328.078,1641.37 307.441,1624.26 306.723,1623.65 286.37,1605.94 285,1604.72 266.959,1588.23 262.56,1584.1 248.41,1570.52 240.119,1562.34 
  230.668,1552.8 217.679,1539.33 213.68,1535.09 197.447,1517.38 195.239,1514.9 181.973,1499.67 172.798,1488.8 167.131,1481.95 152.934,1464.24 150.358,1460.92 
  
  "/>
<polyline clip-path="url(#clip562)" style="stroke:#88216a; stroke-linecap:butt; stroke-linejoin:round; stroke-width:4; stroke-opacity:1; fill:none" points="
  150.358,1362.4 158.945,1375.68 170.852,1393.39 172.798,1396.18 183.434,1411.1 195.239,1427.08 196.552,1428.82 210.398,1446.53 217.679,1455.53 224.875,1464.24 
  239.997,1481.95 240.119,1482.09 255.952,1499.67 262.56,1506.78 272.633,1517.38 285,1530.01 290.088,1535.09 307.441,1551.92 308.376,1552.8 327.61,1570.52 
  329.881,1572.55 347.806,1588.23 352.321,1592.08 369.011,1605.94 374.762,1610.6 391.304,1623.65 397.202,1628.19 414.771,1641.37 419.643,1644.93 439.505,1659.08 
  442.083,1660.87 464.523,1676.05 465.645,1676.79 486.964,1690.49 493.399,1694.5 509.404,1704.27 522.834,1712.22 531.844,1717.43 554.11,1729.93 554.285,1730.03 
  576.725,1741.96 587.758,1747.64 599.166,1753.39 621.606,1764.32 623.81,1765.35 644.046,1774.67 662.954,1783.07 666.487,1784.6 688.927,1794 705.757,1800.78 
  
  "/>
<polyline clip-path="url(#clip562)" style="stroke:#a12b61; stroke-linecap:butt; stroke-linejoin:round; stroke-width:4; stroke-opacity:1; fill:none" points="
  868.294,1800.78 846.01,1794.32 823.569,1787.45 809.965,1783.07 801.129,1780.16 778.689,1772.41 759.181,1765.35 756.248,1764.27 733.808,1755.6 714.056,1747.64 
  711.368,1746.53 688.927,1736.91 673.284,1729.93 666.487,1726.83 644.046,1716.2 635.932,1712.22 621.606,1705.02 601.39,1694.5 599.166,1693.32 576.725,1680.96 
  569.396,1676.79 554.285,1667.99 539.471,1659.08 531.844,1654.38 511.359,1641.37 509.404,1640.09 486.964,1625.04 484.96,1623.65 464.523,1609.18 460.082,1605.94 
  442.083,1592.48 436.549,1588.23 419.643,1574.89 414.254,1570.52 397.202,1556.31 393.102,1552.8 374.762,1536.67 373.009,1535.09 353.934,1517.38 352.321,1515.84 
  335.833,1499.67 329.881,1493.65 318.594,1481.95 307.441,1470.03 302.157,1464.24 286.501,1446.53 285,1444.77 271.676,1428.82 262.56,1417.51 257.511,1411.1 
  244.047,1393.39 240.119,1388.03 231.277,1375.68 219.082,1357.97 217.679,1355.85 207.593,1340.25 196.611,1322.54 195.239,1320.23 186.298,1304.83 176.48,1287.12 
  172.798,1280.14 167.245,1269.4 158.544,1251.69 150.358,1234.1 
  "/>
<polyline clip-path="url(#clip562)" style="stroke:#ba3655; stroke-linecap:butt; stroke-linejoin:round; stroke-width:4; stroke-opacity:1; fill:none" points="
  150.358,932.868 150.816,950.58 151.732,968.293 153.106,986.005 154.938,1003.72 157.227,1021.43 159.975,1039.14 163.181,1056.86 166.845,1074.57 170.966,1092.28 
  172.798,1099.37 175.603,1109.99 180.746,1127.71 186.356,1145.42 192.434,1163.13 195.239,1170.72 199.058,1180.84 206.22,1198.56 213.859,1216.27 217.679,1224.6 
  222.07,1233.98 230.851,1251.69 240.119,1269.4 250.093,1287.12 260.565,1304.83 262.56,1308.05 271.74,1322.54 283.47,1340.25 285,1342.47 
  295.959,1357.97 307.441,1373.55 309.043,1375.68 322.935,1393.39 329.881,1401.92 337.544,1411.1 352.321,1428.18 352.882,1428.82 369.152,1446.53 374.762,1452.43 
  386.27,1464.24 397.202,1475.1 404.289,1481.95 419.643,1496.35 423.281,1499.67 442.083,1516.31 443.33,1517.38 464.523,1535.09 486.964,1552.8 
  509.404,1569.53 510.764,1570.52 531.844,1585.36 536.052,1588.23 554.285,1600.35 562.971,1605.94 576.725,1614.57 591.685,1623.65 599.166,1628.08 
  621.606,1640.92 622.407,1641.37 644.046,1653.03 655.682,1659.08 666.487,1664.56 688.927,1675.53 691.62,1676.79 711.368,1685.85 731.003,1694.5 733.808,1695.71 
  756.248,1704.97 774.609,1712.22 778.689,1713.79 801.129,1722.06 823.569,1729.93 846.01,1737.25 868.45,1744.18 880.33,1747.64 890.891,1750.66 
  913.331,1756.69 935.771,1762.34 948.594,1765.35 958.212,1767.57 980.652,1772.37 1003.09,1776.79 1025.53,1780.85 1039,1783.07 1047.97,1784.51 1070.41,1787.77 
  1092.85,1790.66 1115.29,1793.19 1137.73,1795.36 1160.18,1797.16 1182.62,1798.61 1205.06,1799.69 1227.5,1800.42 1249.94,1800.78 
  "/>
<polyline clip-path="url(#clip562)" style="stroke:#ba3655; stroke-linecap:butt; stroke-linejoin:round; stroke-width:4; stroke-opacity:1; fill:none" points="
  1272.38,1800.78 1294.82,1800.42 1317.26,1799.69 1339.7,1798.61 1362.14,1797.16 1384.58,1795.36 1407.02,1793.19 1429.46,1790.66 1451.9,1787.77 1474.34,1784.51 
  1483.32,1783.07 1496.78,1780.85 1519.22,1776.79 1541.66,1772.37 1564.1,1767.57 1573.72,1765.35 1586.54,1762.34 1608.98,1756.69 1631.42,1750.66 1641.98,1747.64 
  1653.86,1744.18 1676.3,1737.25 1698.74,1729.93 1721.18,1722.06 1743.63,1713.79 1747.71,1712.22 1766.07,1704.97 1788.51,1695.71 1791.31,1694.5 
  1810.95,1685.85 1830.69,1676.79 1833.39,1675.53 1855.83,1664.56 1866.63,1659.08 1878.27,1653.03 1899.91,1641.37 1900.71,1640.92 1923.15,1628.08 1930.63,1623.65 
  1945.59,1614.57 1959.34,1605.94 1968.03,1600.35 1986.26,1588.23 1990.47,1585.36 2011.55,1570.52 2012.91,1569.53 2035.35,1552.8 2057.79,1535.09 
  2078.98,1517.38 2080.23,1516.31 2099.03,1499.67 2102.67,1496.35 2118.03,1481.95 2125.11,1475.1 2136.04,1464.24 2147.55,1452.43 2153.16,1446.53 
  2169.43,1428.82 2169.99,1428.18 2184.77,1411.1 2192.43,1401.92 2199.38,1393.39 2213.27,1375.68 2214.87,1373.55 2226.35,1357.97 2237.31,1342.47 2238.84,1340.25 
  2250.57,1322.54 2259.75,1308.05 2261.75,1304.83 2272.22,1287.12 2282.19,1269.4 2291.46,1251.69 2300.24,1233.98 2304.63,1224.6 2308.45,1216.27 
  2316.09,1198.56 2323.26,1180.84 2327.08,1170.72 2329.88,1163.13 2335.96,1145.42 2341.57,1127.71 2346.71,1109.99 2349.52,1099.37 2351.35,1092.28 2355.47,1074.57 
  2359.13,1056.86 2362.34,1039.14 2365.09,1021.43 2367.38,1003.72 2369.21,986.005 2370.58,968.293 2371.5,950.58 2371.96,932.868 
  "/>
<polyline clip-path="url(#clip562)" style="stroke:#ba3655; stroke-linecap:butt; stroke-linejoin:round; stroke-width:4; stroke-opacity:1; fill:none" points="
  2371.96,915.155 2371.5,897.443 2370.58,879.731 2369.21,862.018 2367.38,844.306 2365.09,826.593 2362.34,808.881 2359.13,791.168 2355.47,773.456 2351.35,755.743 
  2349.52,748.658 2346.71,738.031 2341.57,720.318 2335.96,702.606 2329.88,684.893 2327.08,677.302 2323.26,667.181 2316.09,649.468 2308.45,631.756 2304.63,623.421 
  2300.24,614.043 2291.46,596.331 2282.19,578.618 2272.22,560.906 2261.75,543.193 2259.75,539.973 2250.57,525.481 2238.84,507.768 2237.31,505.554 
  2226.35,490.056 2214.87,474.469 2213.27,472.344 2199.38,454.631 2192.43,446.103 2184.77,436.919 2169.99,419.839 2169.43,419.206 2153.16,401.494 2147.55,395.589 
  2136.04,383.781 2125.11,372.925 2118.03,366.069 2102.67,351.677 2099.03,348.356 2080.23,331.717 2078.98,330.644 2057.79,312.931 2035.35,295.219 
  2012.91,278.49 2011.55,277.506 1990.47,262.666 1986.26,259.794 1968.03,247.675 1959.34,242.081 1945.59,233.452 1930.63,224.369 1923.15,219.941 
  1900.71,207.099 1899.91,206.656 1878.27,194.992 1866.63,188.944 1855.83,183.461 1833.39,172.497 1830.69,171.231 1810.95,162.169 1791.31,153.519 1788.51,152.311 
  1766.07,143.052 1747.71,135.806 1743.63,134.232 1721.18,125.966 1698.74,118.094 1676.3,110.778 1653.86,103.847 1641.98,100.382 1631.42,97.3666 
  1608.98,91.3369 1586.54,85.6839 1573.72,82.669 1564.1,80.455 1541.66,75.6579 1519.22,71.2297 1496.78,67.1706 1483.32,64.9566 1474.34,63.5107 1451.9,60.2573 
  1429.46,57.3655 1407.02,54.8352 1384.58,52.6663 1362.14,50.8589 1339.7,49.413 1317.26,48.3285 1294.82,47.6056 1272.38,47.2441 
  "/>
<polyline clip-path="url(#clip562)" style="stroke:#ba3655; stroke-linecap:butt; stroke-linejoin:round; stroke-width:4; stroke-opacity:1; fill:none" points="
  1249.94,47.2441 1227.5,47.6056 1205.06,48.3285 1182.62,49.413 1160.18,50.8589 1137.73,52.6663 1115.29,54.8352 1092.85,57.3655 1070.41,60.2573 1047.97,63.5107 
  1039,64.9566 1025.53,67.1706 1003.09,71.2297 980.652,75.6579 958.212,80.455 948.594,82.669 935.771,85.6839 913.331,91.3369 890.891,97.3666 880.33,100.382 
  868.45,103.847 846.01,110.778 823.569,118.094 801.129,125.966 778.689,134.232 774.609,135.806 756.248,143.052 733.808,152.311 731.003,153.519 
  711.368,162.169 691.62,171.231 688.927,172.497 666.487,183.461 655.682,188.944 644.046,194.992 622.407,206.656 621.606,207.099 599.166,219.941 591.685,224.369 
  576.725,233.452 562.971,242.081 554.285,247.675 536.052,259.794 531.844,262.666 510.764,277.506 509.404,278.49 486.964,295.219 464.523,312.931 
  443.33,330.644 442.083,331.717 423.281,348.356 419.643,351.677 404.289,366.069 397.202,372.925 386.27,383.781 374.762,395.589 369.152,401.494 
  352.882,419.206 352.321,419.839 337.544,436.919 329.881,446.103 322.935,454.631 309.043,472.344 307.441,474.469 295.959,490.056 285,505.554 283.47,507.768 
  271.74,525.481 262.56,539.973 260.565,543.193 250.093,560.906 240.119,578.618 230.851,596.331 222.07,614.043 217.679,623.421 213.859,631.756 
  206.22,649.468 199.058,667.181 195.239,677.302 192.434,684.893 186.356,702.606 180.746,720.318 175.603,738.031 172.798,748.658 170.966,755.743 166.845,773.456 
  163.181,791.168 159.975,808.881 157.227,826.593 154.938,844.306 153.106,862.018 151.732,879.731 150.816,897.443 150.358,915.155 
  "/>
<polyline clip-path="url(#clip562)" style="stroke:#a12b61; stroke-linecap:butt; stroke-linejoin:round; stroke-width:4; stroke-opacity:1; fill:none" points="
  150.358,613.92 158.544,596.331 167.245,578.618 172.798,567.88 176.48,560.906 186.298,543.193 195.239,527.796 196.611,525.481 207.593,507.768 217.679,492.178 
  219.082,490.056 231.277,472.344 240.119,459.996 244.047,454.631 257.511,436.919 262.56,430.514 271.676,419.206 285,403.25 286.501,401.494 302.157,383.781 
  307.441,377.996 318.594,366.069 329.881,354.376 335.833,348.356 352.321,332.187 353.934,330.644 373.009,312.931 374.762,311.35 393.102,295.219 397.202,291.713 
  414.254,277.506 419.643,273.138 436.549,259.794 442.083,255.54 460.082,242.081 464.523,238.845 484.96,224.369 486.964,222.985 509.404,207.929 511.359,206.656 
  531.844,193.642 539.471,188.944 554.285,180.035 569.396,171.231 576.725,167.061 599.166,154.703 601.39,153.519 621.606,143.002 635.932,135.806 644.046,131.821 
  666.487,121.194 673.284,118.094 688.927,111.115 711.368,101.489 714.056,100.382 733.808,92.4203 756.248,83.7525 759.181,82.669 778.689,75.6117 801.129,67.8625 
  809.965,64.9566 823.569,60.5736 846.01,53.7055 868.294,47.2441 
  "/>
<polyline clip-path="url(#clip562)" style="stroke:#88216a; stroke-linecap:butt; stroke-linejoin:round; stroke-width:4; stroke-opacity:1; fill:none" points="
  705.757,47.2441 688.927,54.0218 666.487,63.4203 662.954,64.9566 644.046,73.3515 623.81,82.669 621.606,83.7054 599.166,94.6344 587.758,100.382 576.725,106.061 
  554.285,117.998 554.11,118.094 531.844,130.591 522.834,135.806 509.404,143.757 493.399,153.519 486.964,157.535 465.645,171.231 464.523,171.969 442.083,187.152 
  439.505,188.944 419.643,203.092 414.771,206.656 397.202,219.83 391.304,224.369 374.762,237.426 369.011,242.081 352.321,255.948 347.806,259.794 329.881,275.472 
  327.61,277.506 308.376,295.219 307.441,296.104 290.088,312.931 285,318.011 272.633,330.644 262.56,341.244 255.952,348.356 240.119,365.93 239.997,366.069 
  224.875,383.781 217.679,392.49 210.398,401.494 196.552,419.206 195.239,420.946 183.434,436.919 172.798,451.843 170.852,454.631 158.945,472.344 150.358,485.628 
  
  "/>
<polyline clip-path="url(#clip562)" style="stroke:#6e186e; stroke-linecap:butt; stroke-linejoin:round; stroke-width:4; stroke-opacity:1; fill:none" points="
  150.358,387.102 152.934,383.781 167.131,366.069 172.798,359.219 181.973,348.356 195.239,333.126 197.447,330.644 213.68,312.931 217.679,308.693 230.668,295.219 
  240.119,285.686 248.41,277.506 262.56,263.923 266.959,259.794 285,243.305 286.37,242.081 306.723,224.369 307.441,223.76 328.078,206.656 329.881,205.198 
  350.474,188.944 352.321,187.521 373.99,171.231 374.762,170.665 397.202,154.6 398.752,153.519 419.643,139.279 424.874,135.806 442.083,124.638 452.446,118.094 
  464.523,110.634 481.594,100.382 486.964,97.2253 509.404,84.412 512.549,82.669 531.844,72.1984 545.607,64.9566 554.285,60.4833 576.725,49.2774 580.933,47.2441 
  
  "/>
<polyline clip-path="url(#clip562)" style="stroke:#550f6d; stroke-linecap:butt; stroke-linejoin:round; stroke-width:4; stroke-opacity:1; fill:none" points="
  475.743,47.2441 464.523,53.57 444.888,64.9566 442.083,66.6171 419.643,80.2705 415.804,82.669 397.202,94.5402 388.284,100.382 374.762,109.43 362.139,118.094 
  352.321,124.982 337.27,135.806 329.881,141.241 313.585,153.519 307.441,158.256 291.002,171.231 285,176.081 269.445,188.944 262.56,194.776 248.846,206.656 
  240.119,214.406 229.143,224.369 217.679,235.042 210.279,242.081 195.239,256.764 192.2,259.794 174.902,277.506 172.798,279.72 158.372,295.219 150.358,304.075 
  
  "/>
<polyline clip-path="url(#clip562)" style="stroke:#3b0964; stroke-linecap:butt; stroke-linejoin:round; stroke-width:4; stroke-opacity:1; fill:none" points="
  150.358,230.898 156.941,224.369 172.798,209.037 175.311,206.656 194.479,188.944 195.239,188.259 214.516,171.231 217.679,168.502 235.424,153.519 240.119,149.644 
  257.261,135.806 262.56,131.624 280.091,118.094 285,114.388 303.983,100.382 307.441,97.8848 329.013,82.669 329.881,82.0694 352.321,66.94 355.337,64.9566 
  374.762,52.4404 383.033,47.2441 
  "/>
<polyline clip-path="url(#clip562)" style="stroke:#1f0c47; stroke-linecap:butt; stroke-linejoin:round; stroke-width:4; stroke-opacity:1; fill:none" points="
  299.221,47.2441 285,57.0944 273.908,64.9566 262.56,73.167 249.719,82.669 240.119,89.9236 226.582,100.382 217.679,107.409 204.43,118.094 195.239,125.671 
  183.2,135.806 172.798,144.763 162.838,153.519 150.358,164.744 
  "/>
<polyline clip-path="url(#clip562)" style="stroke:#090621; stroke-linecap:butt; stroke-linejoin:round; stroke-width:4; stroke-opacity:1; fill:none" points="
  150.358,103.895 154.537,100.382 172.798,85.3542 176.129,82.669 195.239,67.5858 198.641,64.9566 217.679,50.5426 222.131,47.2441 
  "/>
<polyline clip-path="url(#clip562)" style="stroke:#a12b61; stroke-linecap:butt; stroke-linejoin:round; stroke-width:4; stroke-opacity:1; fill:none" points="
  1654.02,47.2441 1676.3,53.7055 1698.74,60.5736 1712.35,64.9566 1721.18,67.8625 1743.63,75.6117 1763.13,82.669 1766.07,83.7525 1788.51,92.4203 1808.26,100.382 
  1810.95,101.489 1833.39,111.115 1849.03,118.094 1855.83,121.194 1878.27,131.821 1886.38,135.806 1900.71,143.002 1920.92,153.519 1923.15,154.703 1945.59,167.061 
  1952.92,171.231 1968.03,180.035 1982.84,188.944 1990.47,193.642 2010.95,206.656 2012.91,207.929 2035.35,222.985 2037.35,224.369 2057.79,238.845 2062.23,242.081 
  2080.23,255.54 2085.77,259.794 2102.67,273.138 2108.06,277.506 2125.11,291.713 2129.21,295.219 2147.55,311.35 2149.31,312.931 2168.38,330.644 2169.99,332.187 
  2186.48,348.356 2192.43,354.376 2203.72,366.069 2214.87,377.996 2220.16,383.781 2235.81,401.494 2237.31,403.25 2250.64,419.206 2259.75,430.514 2264.8,436.919 
  2278.27,454.631 2282.19,459.996 2291.04,472.344 2303.23,490.056 2304.63,492.178 2314.72,507.768 2325.7,525.481 2327.08,527.796 2336.02,543.193 2345.83,560.906 
  2349.52,567.88 2355.07,578.618 2363.77,596.331 2371.96,613.92 
  "/>
<polyline clip-path="url(#clip562)" style="stroke:#88216a; stroke-linecap:butt; stroke-linejoin:round; stroke-width:4; stroke-opacity:1; fill:none" points="
  2371.96,485.628 2363.37,472.344 2351.46,454.631 2349.52,451.843 2338.88,436.919 2327.08,420.946 2325.76,419.206 2311.92,401.494 2304.63,392.49 2297.44,383.781 
  2282.32,366.069 2282.19,365.93 2266.36,348.356 2259.75,341.244 2249.68,330.644 2237.31,318.011 2232.23,312.931 2214.87,296.104 2213.94,295.219 2194.7,277.506 
  2192.43,275.472 2174.51,259.794 2169.99,255.948 2153.3,242.081 2147.55,237.426 2131.01,224.369 2125.11,219.83 2107.54,206.656 2102.67,203.092 2082.81,188.944 
  2080.23,187.152 2057.79,171.969 2056.67,171.231 2035.35,157.535 2028.92,153.519 2012.91,143.757 1999.48,135.806 1990.47,130.591 1968.2,118.094 1968.03,117.998 
  1945.59,106.061 1934.56,100.382 1923.15,94.6344 1900.71,83.7054 1898.5,82.669 1878.27,73.3515 1859.36,64.9566 1855.83,63.4203 1833.39,54.0218 1816.56,47.2441 
  
  "/>
<polyline clip-path="url(#clip562)" style="stroke:#6e186e; stroke-linecap:butt; stroke-linejoin:round; stroke-width:4; stroke-opacity:1; fill:none" points="
  1941.38,47.2441 1945.59,49.2774 1968.03,60.4833 1976.71,64.9566 1990.47,72.1984 2009.76,82.669 2012.91,84.412 2035.35,97.2253 2040.72,100.382 2057.79,110.634 
  2069.87,118.094 2080.23,124.638 2097.44,135.806 2102.67,139.279 2123.56,153.519 2125.11,154.6 2147.55,170.665 2148.32,171.231 2169.99,187.521 2171.84,188.944 
  2192.43,205.198 2194.24,206.656 2214.87,223.76 2215.59,224.369 2235.94,242.081 2237.31,243.305 2255.36,259.794 2259.75,263.923 2273.9,277.506 2282.19,285.686 
  2291.65,295.219 2304.63,308.693 2308.63,312.931 2324.87,330.644 2327.08,333.126 2340.34,348.356 2349.52,359.219 2355.18,366.069 2369.38,383.781 2371.96,387.102 
  
  "/>
<polyline clip-path="url(#clip562)" style="stroke:#550f6d; stroke-linecap:butt; stroke-linejoin:round; stroke-width:4; stroke-opacity:1; fill:none" points="
  2371.96,304.075 2363.94,295.219 2349.52,279.72 2347.41,277.506 2330.11,259.794 2327.08,256.764 2312.04,242.081 2304.63,235.042 2293.17,224.369 2282.19,214.406 
  2273.47,206.656 2259.75,194.776 2252.87,188.944 2237.31,176.081 2231.31,171.231 2214.87,158.256 2208.73,153.519 2192.43,141.241 2185.04,135.806 2169.99,124.982 
  2160.17,118.094 2147.55,109.43 2134.03,100.382 2125.11,94.5402 2106.51,82.669 2102.67,80.2705 2080.23,66.6171 2077.43,64.9566 2057.79,53.57 2046.57,47.2441 
  
  "/>
<polyline clip-path="url(#clip562)" style="stroke:#3b0964; stroke-linecap:butt; stroke-linejoin:round; stroke-width:4; stroke-opacity:1; fill:none" points="
  2139.28,47.2441 2147.55,52.4404 2166.98,64.9566 2169.99,66.94 2192.43,82.0694 2193.3,82.669 2214.87,97.8848 2218.33,100.382 2237.31,114.388 2242.22,118.094 
  2259.75,131.624 2265.05,135.806 2282.19,149.644 2286.89,153.519 2304.63,168.502 2307.8,171.231 2327.08,188.259 2327.83,188.944 2347,206.656 2349.52,209.037 
  2365.37,224.369 2371.96,230.898 
  "/>
<polyline clip-path="url(#clip562)" style="stroke:#1f0c47; stroke-linecap:butt; stroke-linejoin:round; stroke-width:4; stroke-opacity:1; fill:none" points="
  2371.96,164.744 2359.48,153.519 2349.52,144.763 2339.11,135.806 2327.08,125.671 2317.88,118.094 2304.63,107.409 2295.73,100.382 2282.19,89.9236 2272.59,82.669 
  2259.75,73.167 2248.41,64.9566 2237.31,57.0944 2223.09,47.2441 
  "/>
<polyline clip-path="url(#clip562)" style="stroke:#090621; stroke-linecap:butt; stroke-linejoin:round; stroke-width:4; stroke-opacity:1; fill:none" points="
  2300.18,47.2441 2304.63,50.5426 2323.67,64.9566 2327.08,67.5858 2346.18,82.669 2349.52,85.3542 2367.78,100.382 2371.96,103.895 
  "/>
<polyline clip-path="url(#clip562)" style="stroke:#a12b61; stroke-linecap:butt; stroke-linejoin:round; stroke-width:4; stroke-opacity:1; fill:none" points="
  2371.96,1234.1 2363.77,1251.69 2355.07,1269.4 2349.52,1280.14 2345.83,1287.12 2336.02,1304.83 2327.08,1320.23 2325.7,1322.54 2314.72,1340.25 2304.63,1355.85 
  2303.23,1357.97 2291.04,1375.68 2282.19,1388.03 2278.27,1393.39 2264.8,1411.1 2259.75,1417.51 2250.64,1428.82 2237.31,1444.77 2235.81,1446.53 2220.16,1464.24 
  2214.87,1470.03 2203.72,1481.95 2192.43,1493.65 2186.48,1499.67 2169.99,1515.84 2168.38,1517.38 2149.31,1535.09 2147.55,1536.67 2129.21,1552.8 2125.11,1556.31 
  2108.06,1570.52 2102.67,1574.89 2085.77,1588.23 2080.23,1592.48 2062.23,1605.94 2057.79,1609.18 2037.35,1623.65 2035.35,1625.04 2012.91,1640.09 2010.95,1641.37 
  1990.47,1654.38 1982.84,1659.08 1968.03,1667.99 1952.92,1676.79 1945.59,1680.96 1923.15,1693.32 1920.92,1694.5 1900.71,1705.02 1886.38,1712.22 1878.27,1716.2 
  1855.83,1726.83 1849.03,1729.93 1833.39,1736.91 1810.95,1746.53 1808.26,1747.64 1788.51,1755.6 1766.07,1764.27 1763.13,1765.35 1743.63,1772.41 1721.18,1780.16 
  1712.35,1783.07 1698.74,1787.45 1676.3,1794.32 1654.02,1800.78 
  "/>
<polyline clip-path="url(#clip562)" style="stroke:#88216a; stroke-linecap:butt; stroke-linejoin:round; stroke-width:4; stroke-opacity:1; fill:none" points="
  1816.56,1800.78 1833.39,1794 1855.83,1784.6 1859.36,1783.07 1878.27,1774.67 1898.5,1765.35 1900.71,1764.32 1923.15,1753.39 1934.56,1747.64 1945.59,1741.96 
  1968.03,1730.03 1968.2,1729.93 1990.47,1717.43 1999.48,1712.22 2012.91,1704.27 2028.92,1694.5 2035.35,1690.49 2056.67,1676.79 2057.79,1676.05 2080.23,1660.87 
  2082.81,1659.08 2102.67,1644.93 2107.54,1641.37 2125.11,1628.19 2131.01,1623.65 2147.55,1610.6 2153.3,1605.94 2169.99,1592.08 2174.51,1588.23 2192.43,1572.55 
  2194.7,1570.52 2213.94,1552.8 2214.87,1551.92 2232.23,1535.09 2237.31,1530.01 2249.68,1517.38 2259.75,1506.78 2266.36,1499.67 2282.19,1482.09 2282.32,1481.95 
  2297.44,1464.24 2304.63,1455.53 2311.92,1446.53 2325.76,1428.82 2327.08,1427.08 2338.88,1411.1 2349.52,1396.18 2351.46,1393.39 2363.37,1375.68 2371.96,1362.4 
  
  "/>
<polyline clip-path="url(#clip562)" style="stroke:#6e186e; stroke-linecap:butt; stroke-linejoin:round; stroke-width:4; stroke-opacity:1; fill:none" points="
  2371.96,1460.92 2369.38,1464.24 2355.18,1481.95 2349.52,1488.8 2340.34,1499.67 2327.08,1514.9 2324.87,1517.38 2308.63,1535.09 2304.63,1539.33 2291.65,1552.8 
  2282.19,1562.34 2273.9,1570.52 2259.75,1584.1 2255.36,1588.23 2237.31,1604.72 2235.94,1605.94 2215.59,1623.65 2214.87,1624.26 2194.24,1641.37 2192.43,1642.83 
  2171.84,1659.08 2169.99,1660.5 2148.32,1676.79 2147.55,1677.36 2125.11,1693.42 2123.56,1694.5 2102.67,1708.74 2097.44,1712.22 2080.23,1723.39 2069.87,1729.93 
  2057.79,1737.39 2040.72,1747.64 2035.35,1750.8 2012.91,1763.61 2009.76,1765.35 1990.47,1775.83 1976.71,1783.07 1968.03,1787.54 1945.59,1798.75 1941.38,1800.78 
  
  "/>
<polyline clip-path="url(#clip562)" style="stroke:#550f6d; stroke-linecap:butt; stroke-linejoin:round; stroke-width:4; stroke-opacity:1; fill:none" points="
  2046.57,1800.78 2057.79,1794.45 2077.43,1783.07 2080.23,1781.41 2102.67,1767.75 2106.51,1765.35 2125.11,1753.48 2134.03,1747.64 2147.55,1738.59 2160.17,1729.93 
  2169.99,1723.04 2185.04,1712.22 2192.43,1706.78 2208.73,1694.5 2214.87,1689.77 2231.31,1676.79 2237.31,1671.94 2252.87,1659.08 2259.75,1653.25 2273.47,1641.37 
  2282.19,1633.62 2293.17,1623.65 2304.63,1612.98 2312.04,1605.94 2327.08,1591.26 2330.11,1588.23 2347.41,1570.52 2349.52,1568.3 2363.94,1552.8 2371.96,1543.95 
  
  "/>
<polyline clip-path="url(#clip562)" style="stroke:#3b0964; stroke-linecap:butt; stroke-linejoin:round; stroke-width:4; stroke-opacity:1; fill:none" points="
  2371.96,1617.13 2365.37,1623.65 2349.52,1638.99 2347,1641.37 2327.83,1659.08 2327.08,1659.76 2307.8,1676.79 2304.63,1679.52 2286.89,1694.5 2282.19,1698.38 
  2265.05,1712.22 2259.75,1716.4 2242.22,1729.93 2237.31,1733.64 2218.33,1747.64 2214.87,1750.14 2193.3,1765.35 2192.43,1765.95 2169.99,1781.08 2166.98,1783.07 
  2147.55,1795.58 2139.28,1800.78 
  "/>
<polyline clip-path="url(#clip562)" style="stroke:#1f0c47; stroke-linecap:butt; stroke-linejoin:round; stroke-width:4; stroke-opacity:1; fill:none" points="
  2223.09,1800.78 2237.31,1790.93 2248.41,1783.07 2259.75,1774.86 2272.59,1765.35 2282.19,1758.1 2295.73,1747.64 2304.63,1740.61 2317.88,1729.93 2327.08,1722.35 
  2339.11,1712.22 2349.52,1703.26 2359.48,1694.5 2371.96,1683.28 
  "/>
<polyline clip-path="url(#clip562)" style="stroke:#090621; stroke-linecap:butt; stroke-linejoin:round; stroke-width:4; stroke-opacity:1; fill:none" points="
  2371.96,1744.13 2367.78,1747.64 2349.52,1762.67 2346.18,1765.35 2327.08,1780.44 2323.67,1783.07 2304.63,1797.48 2300.18,1800.78 
  "/>
<polyline clip-path="url(#clip562)" style="stroke:#d04544; stroke-linecap:butt; stroke-linejoin:round; stroke-width:4; stroke-opacity:1; fill:none" points="
  1968.03,1525.13 1954.18,1535.09 1945.59,1541.1 1928.29,1552.8 1923.15,1556.19 1900.71,1570.46 1900.61,1570.52 1878.27,1583.86 1870.68,1588.23 1855.83,1596.56 
  1838.46,1605.94 1833.39,1608.61 1810.95,1619.96 1803.35,1623.65 1788.51,1630.68 1766.07,1640.87 1764.92,1641.37 1743.63,1650.39 1722.12,1659.08 1721.18,1659.45 
  1698.74,1667.88 1676.3,1675.9 1673.65,1676.79 1653.86,1683.33 1631.42,1690.33 1617.22,1694.5 1608.98,1696.87 1586.54,1702.91 1564.1,1708.54 1548.35,1712.22 
  1541.66,1713.74 1519.22,1718.47 1496.78,1722.8 1474.34,1726.73 1454.08,1729.93 1451.9,1730.27 1429.46,1733.35 1407.02,1736.04 1384.58,1738.35 1362.14,1740.28 
  1339.7,1741.82 1317.26,1742.97 1294.82,1743.74 1272.38,1744.13 1249.94,1744.13 1227.5,1743.74 1205.06,1742.97 1182.62,1741.82 1160.18,1740.28 1137.73,1738.35 
  1115.29,1736.04 1092.85,1733.35 1070.41,1730.27 1068.23,1729.93 1047.97,1726.73 1025.53,1722.8 1003.09,1718.47 980.652,1713.74 973.963,1712.22 958.212,1708.54 
  935.771,1702.91 913.331,1696.87 905.091,1694.5 890.891,1690.33 868.45,1683.33 848.659,1676.79 846.01,1675.9 823.569,1667.88 801.129,1659.45 800.194,1659.08 
  778.689,1650.39 757.396,1641.37 756.248,1640.87 733.808,1630.68 718.965,1623.65 711.368,1619.96 688.927,1608.61 683.856,1605.94 666.487,1596.56 651.63,1588.23 
  644.046,1583.86 621.706,1570.52 621.606,1570.46 599.166,1556.19 594.023,1552.8 576.725,1541.1 568.129,1535.09 554.285,1525.13 543.854,1517.38 531.844,1508.19 
  521.049,1499.67 509.404,1490.19 499.586,1481.95 486.964,1471.03 479.35,1464.24 464.523,1450.59 460.238,1446.53 442.161,1428.82 442.083,1428.74 425.177,1411.1 
  419.643,1405.12 409.087,1393.39 397.202,1379.68 393.822,1375.68 379.437,1357.97 374.762,1351.97 365.856,1340.25 352.953,1322.54 352.321,1321.64 340.896,1304.83 
  329.881,1287.86 329.413,1287.12 318.728,1269.4 308.576,1251.69 307.441,1249.6 299.156,1233.98 290.284,1216.27 285,1205.06 282.004,1198.56 274.354,1180.84 
  267.214,1163.13 262.56,1150.7 260.627,1145.42 254.643,1127.71 249.158,1109.99 244.171,1092.28 240.119,1076.29 239.693,1074.57 235.79,1056.86 232.375,1039.14 
  229.448,1021.43 227.009,1003.72 225.058,986.005 223.594,968.293 222.618,950.58 222.131,932.868 222.131,915.155 222.618,897.443 223.594,879.731 225.058,862.018 
  227.009,844.306 229.448,826.593 232.375,808.881 235.79,791.168 239.693,773.456 240.119,771.734 244.171,755.743 249.158,738.031 254.643,720.318 260.627,702.606 
  262.56,697.326 267.214,684.893 274.354,667.181 282.004,649.468 285,642.965 290.284,631.756 299.156,614.043 307.441,598.422 308.576,596.331 318.728,578.618 
  329.413,560.906 329.881,560.168 340.896,543.193 352.321,526.387 352.953,525.481 365.856,507.768 374.762,496.052 379.437,490.056 393.822,472.344 397.202,468.341 
  409.087,454.631 419.643,442.905 425.177,436.919 442.083,419.285 442.161,419.206 460.238,401.494 464.523,397.435 479.35,383.781 486.964,376.996 499.586,366.069 
  509.404,357.835 521.049,348.356 531.844,339.835 543.854,330.644 554.285,322.895 568.129,312.931 576.725,306.922 594.023,295.219 599.166,291.836 621.606,277.568 
  621.706,277.506 644.046,264.162 651.63,259.794 666.487,251.462 683.856,242.081 688.927,239.413 711.368,228.059 718.965,224.369 733.808,217.339 756.248,207.155 
  757.396,206.656 778.689,197.638 800.194,188.944 801.129,188.575 823.569,180.14 846.01,172.128 848.659,171.231 868.45,164.692 890.891,157.69 905.091,153.519 
  913.331,151.154 935.771,145.116 958.212,139.48 973.963,135.806 980.652,134.281 1003.09,129.558 1025.53,125.228 1047.97,121.292 1068.23,118.094 1070.41,117.757 
  1092.85,114.677 1115.29,111.981 1137.73,109.671 1160.18,107.746 1182.62,106.205 1205.06,105.05 1227.5,104.28 1249.94,103.895 1272.38,103.895 1294.82,104.28 
  1317.26,105.05 1339.7,106.205 1362.14,107.746 1384.58,109.671 1407.02,111.981 1429.46,114.677 1451.9,117.757 1454.08,118.094 1474.34,121.292 1496.78,125.228 
  1519.22,129.558 1541.66,134.281 1548.35,135.806 1564.1,139.48 1586.54,145.116 1608.98,151.154 1617.22,153.519 1631.42,157.69 1653.86,164.692 1673.65,171.231 
  1676.3,172.128 1698.74,180.14 1721.18,188.575 1722.12,188.944 1743.63,197.638 1764.92,206.656 1766.07,207.155 1788.51,217.339 1803.35,224.369 1810.95,228.059 
  1833.39,239.413 1838.46,242.081 1855.83,251.462 1870.68,259.794 1878.27,264.162 1900.61,277.506 1900.71,277.568 1923.15,291.836 1928.29,295.219 1945.59,306.922 
  1954.18,312.931 1968.03,322.895 1978.46,330.644 1990.47,339.835 2001.26,348.356 2012.91,357.835 2022.73,366.069 2035.35,376.996 2042.96,383.781 2057.79,397.435 
  2062.08,401.494 2080.15,419.206 2080.23,419.285 2097.14,436.919 2102.67,442.905 2113.23,454.631 2125.11,468.341 2128.49,472.344 2142.88,490.056 2147.55,496.052 
  2156.46,507.768 2169.36,525.481 2169.99,526.387 2181.42,543.193 2192.43,560.168 2192.9,560.906 2203.59,578.618 2213.74,596.331 2214.87,598.422 2223.16,614.043 
  2232.03,631.756 2237.31,642.965 2240.31,649.468 2247.96,667.181 2255.1,684.893 2259.75,697.326 2261.69,702.606 2267.67,720.318 2273.16,738.031 2278.14,755.743 
  2282.19,771.734 2282.62,773.456 2286.52,791.168 2289.94,808.881 2292.87,826.593 2295.3,844.306 2297.26,862.018 2298.72,879.731 2299.7,897.443 2300.18,915.155 
  2300.18,932.868 2299.7,950.58 2298.72,968.293 2297.26,986.005 2295.3,1003.72 2292.87,1021.43 2289.94,1039.14 2286.52,1056.86 2282.62,1074.57 2282.19,1076.29 
  2278.14,1092.28 2273.16,1109.99 2267.67,1127.71 2261.69,1145.42 2259.75,1150.7 2255.1,1163.13 2247.96,1180.84 2240.31,1198.56 2237.31,1205.06 2232.03,1216.27 
  2223.16,1233.98 2214.87,1249.6 2213.74,1251.69 2203.59,1269.4 2192.9,1287.12 2192.43,1287.86 2181.42,1304.83 2169.99,1321.64 2169.36,1322.54 2156.46,1340.25 
  2147.55,1351.97 2142.88,1357.97 2128.49,1375.68 2125.11,1379.68 2113.23,1393.39 2102.67,1405.12 2097.14,1411.1 2080.23,1428.74 2080.15,1428.82 2062.08,1446.53 
  2057.79,1450.59 2042.96,1464.24 2035.35,1471.03 2022.73,1481.95 2012.91,1490.19 2001.26,1499.67 1990.47,1508.19 1978.46,1517.38 1968.03,1525.13 
  "/>
<polyline clip-path="url(#clip562)" style="stroke:#e35832; stroke-linecap:butt; stroke-linejoin:round; stroke-width:4; stroke-opacity:1; fill:none" points="
  1923.15,1474.96 1913.67,1481.95 1900.71,1491.23 1888.49,1499.67 1878.27,1506.51 1861.44,1517.38 1855.83,1520.9 1833.39,1534.44 1832.26,1535.09 1810.95,1547.11 
  1800.43,1552.8 1788.51,1559.08 1766.07,1570.39 1765.81,1570.52 1743.63,1580.93 1727.33,1588.23 1721.18,1590.91 1698.74,1600.23 1684.28,1605.94 1676.3,1609.01 
  1653.86,1617.18 1635.05,1623.65 1631.42,1624.87 1608.98,1631.96 1586.54,1638.6 1576.52,1641.37 1564.1,1644.72 1541.66,1650.33 1519.22,1655.52 1502.39,1659.08 
  1496.78,1660.24 1474.34,1664.46 1451.9,1668.25 1429.46,1671.63 1407.02,1674.58 1387.38,1676.79 1384.58,1677.1 1362.14,1679.16 1339.7,1680.81 1317.26,1682.04 
  1294.82,1682.87 1272.38,1683.28 1249.94,1683.28 1227.5,1682.87 1205.06,1682.04 1182.62,1680.81 1160.18,1679.16 1137.73,1677.1 1134.93,1676.79 1115.29,1674.58 
  1092.85,1671.63 1070.41,1668.25 1047.97,1664.46 1025.53,1660.24 1019.92,1659.08 1003.09,1655.52 980.652,1650.33 958.212,1644.72 945.789,1641.37 935.771,1638.6 
  913.331,1631.96 890.891,1624.87 887.261,1623.65 868.45,1617.18 846.01,1609.01 838.038,1605.94 823.569,1600.23 801.129,1590.91 794.985,1588.23 778.689,1580.93 
  756.503,1570.52 756.248,1570.39 733.808,1559.08 721.886,1552.8 711.368,1547.11 690.049,1535.09 688.927,1534.44 666.487,1520.9 660.877,1517.38 644.046,1506.51 
  633.828,1499.67 621.606,1491.23 608.645,1481.95 599.166,1474.96 585.14,1464.24 576.725,1457.6 563.152,1446.53 554.285,1439.05 542.539,1428.82 531.844,1419.17 
  523.174,1411.1 509.404,1397.82 504.949,1393.39 487.789,1375.68 486.964,1374.79 471.736,1357.97 464.523,1349.66 456.576,1340.25 442.239,1322.54 442.083,1322.34 
  428.892,1304.83 419.643,1291.97 416.247,1287.12 404.436,1269.4 397.202,1257.99 393.318,1251.69 382.961,1233.98 374.762,1219.13 373.219,1216.27 364.243,1198.56 
  355.828,1180.84 352.321,1172.94 348.08,1163.13 340.964,1145.42 334.396,1127.71 329.881,1114.42 328.412,1109.99 323.069,1092.28 318.26,1074.57 313.986,1056.86 
  310.246,1039.14 307.441,1023.64 307.049,1021.43 304.44,1003.72 302.352,986.005 300.787,968.293 299.743,950.58 299.221,932.868 299.221,915.155 299.743,897.443 
  300.787,879.731 302.352,862.018 304.44,844.306 307.049,826.593 307.441,824.379 310.246,808.881 313.986,791.168 318.26,773.456 323.069,755.743 328.412,738.031 
  329.881,733.603 334.396,720.318 340.964,702.606 348.08,684.893 352.321,675.088 355.828,667.181 364.243,649.468 373.219,631.756 374.762,628.891 382.961,614.043 
  393.318,596.331 397.202,590.038 404.436,578.618 416.247,560.906 419.643,556.056 428.892,543.193 442.083,525.682 442.239,525.481 456.576,507.768 464.523,498.359 
  471.736,490.056 486.964,473.229 487.789,472.344 504.949,454.631 509.404,450.203 523.174,436.919 531.844,428.853 542.539,419.206 554.285,408.976 563.152,401.494 
  576.725,390.423 585.14,383.781 599.166,373.068 608.645,366.069 621.606,356.797 633.828,348.356 644.046,341.513 660.877,330.644 666.487,327.127 688.927,313.582 
  690.049,312.931 711.368,300.912 721.886,295.219 733.808,288.946 756.248,277.629 756.503,277.506 778.689,267.094 794.985,259.794 801.129,257.114 823.569,247.791 
  838.038,242.081 846.01,239.016 868.45,230.841 887.261,224.369 890.891,223.151 913.331,216.066 935.771,209.424 945.789,206.656 958.212,203.308 980.652,197.692 
  1003.09,192.508 1019.92,188.944 1025.53,187.784 1047.97,183.567 1070.41,179.771 1092.85,176.398 1115.29,173.445 1134.93,171.231 1137.73,170.922 1160.18,168.863 
  1182.62,167.215 1205.06,165.979 1227.5,165.156 1249.94,164.744 1272.38,164.744 1294.82,165.156 1317.26,165.979 1339.7,167.215 1362.14,168.863 1384.58,170.922 
  1387.38,171.231 1407.02,173.445 1429.46,176.398 1451.9,179.771 1474.34,183.567 1496.78,187.784 1502.39,188.944 1519.22,192.508 1541.66,197.692 1564.1,203.308 
  1576.52,206.656 1586.54,209.424 1608.98,216.066 1631.42,223.151 1635.05,224.369 1653.86,230.841 1676.3,239.016 1684.28,242.081 1698.74,247.791 1721.18,257.114 
  1727.33,259.794 1743.63,267.094 1765.81,277.506 1766.07,277.629 1788.51,288.946 1800.43,295.219 1810.95,300.912 1832.26,312.931 1833.39,313.582 1855.83,327.127 
  1861.44,330.644 1878.27,341.513 1888.49,348.356 1900.71,356.797 1913.67,366.069 1923.15,373.068 1937.17,383.781 1945.59,390.423 1959.16,401.494 1968.03,408.976 
  1979.78,419.206 1990.47,428.853 1999.14,436.919 2012.91,450.203 2017.36,454.631 2034.53,472.344 2035.35,473.229 2050.58,490.056 2057.79,498.359 2065.74,507.768 
  2080.08,525.481 2080.23,525.682 2093.42,543.193 2102.67,556.056 2106.07,560.906 2117.88,578.618 2125.11,590.038 2129,596.331 2139.35,614.043 2147.55,628.891 
  2149.09,631.756 2158.07,649.468 2166.49,667.181 2169.99,675.088 2174.23,684.893 2181.35,702.606 2187.92,720.318 2192.43,733.603 2193.9,738.031 2199.25,755.743 
  2204.05,773.456 2208.33,791.168 2212.07,808.881 2214.87,824.379 2215.26,826.593 2217.87,844.306 2219.96,862.018 2221.53,879.731 2222.57,897.443 2223.09,915.155 
  2223.09,932.868 2222.57,950.58 2221.53,968.293 2219.96,986.005 2217.87,1003.72 2215.26,1021.43 2214.87,1023.64 2212.07,1039.14 2208.33,1056.86 2204.05,1074.57 
  2199.25,1092.28 2193.9,1109.99 2192.43,1114.42 2187.92,1127.71 2181.35,1145.42 2174.23,1163.13 2169.99,1172.94 2166.49,1180.84 2158.07,1198.56 2149.09,1216.27 
  2147.55,1219.13 2139.35,1233.98 2129,1251.69 2125.11,1257.99 2117.88,1269.4 2106.07,1287.12 2102.67,1291.97 2093.42,1304.83 2080.23,1322.34 2080.08,1322.54 
  2065.74,1340.25 2057.79,1349.66 2050.58,1357.97 2035.35,1374.79 2034.53,1375.68 2017.36,1393.39 2012.91,1397.82 1999.14,1411.1 1990.47,1419.17 1979.78,1428.82 
  1968.03,1439.05 1959.16,1446.53 1945.59,1457.6 1937.17,1464.24 1923.15,1474.96 
  "/>
<polyline clip-path="url(#clip562)" style="stroke:#f0701e; stroke-linecap:butt; stroke-linejoin:round; stroke-width:4; stroke-opacity:1; fill:none" points="
  1878.27,1417.19 1863,1428.82 1855.83,1434.09 1838.24,1446.53 1833.39,1449.85 1811.51,1464.24 1810.95,1464.6 1788.51,1478.31 1782.29,1481.95 1766.07,1491.16 
  1750.38,1499.67 1743.63,1503.22 1721.18,1514.49 1715.15,1517.38 1698.74,1525 1676.3,1534.9 1675.84,1535.09 1653.86,1544.01 1631.42,1552.61 1630.9,1552.8 
  1608.98,1560.49 1586.54,1567.87 1577.93,1570.52 1564.1,1574.65 1541.66,1580.87 1519.22,1586.61 1512.34,1588.23 1496.78,1591.78 1474.34,1596.44 1451.9,1600.64 
  1429.46,1604.37 1418.64,1605.94 1407.02,1607.59 1384.58,1610.31 1362.14,1612.58 1339.7,1614.4 1317.26,1615.76 1294.82,1616.67 1272.38,1617.13 1249.94,1617.13 
  1227.5,1616.67 1205.06,1615.76 1182.62,1614.4 1160.18,1612.58 1137.73,1610.31 1115.29,1607.59 1103.67,1605.94 1092.85,1604.37 1070.41,1600.64 1047.97,1596.44 
  1025.53,1591.78 1009.98,1588.23 1003.09,1586.61 980.652,1580.87 958.212,1574.65 944.387,1570.52 935.771,1567.87 913.331,1560.49 891.417,1552.8 890.891,1552.61 
  868.45,1544.01 846.477,1535.09 846.01,1534.9 823.569,1525 807.16,1517.38 801.129,1514.49 778.689,1503.22 771.931,1499.67 756.248,1491.16 740.028,1481.95 
  733.808,1478.31 711.368,1464.6 710.806,1464.24 688.927,1449.85 684.072,1446.53 666.487,1434.09 659.318,1428.82 644.046,1417.19 636.332,1411.1 621.606,1399.05 
  614.932,1393.39 599.166,1379.51 594.958,1375.68 576.725,1358.41 576.273,1357.97 558.9,1340.25 554.285,1335.35 542.626,1322.54 531.844,1310.16 527.339,1304.83 
  513.059,1287.12 509.404,1282.36 499.751,1269.4 487.211,1251.69 486.964,1251.32 475.663,1233.98 464.764,1216.27 464.523,1215.85 454.784,1198.56 445.433,1180.84 
  442.083,1174.04 436.852,1163.13 428.967,1145.42 421.689,1127.71 419.643,1122.27 415.14,1109.99 409.234,1092.28 403.919,1074.57 399.195,1056.86 397.202,1048.32 
  395.116,1039.14 391.664,1021.43 388.787,1003.72 386.485,986.005 384.759,968.293 383.608,950.58 383.033,932.868 383.033,915.155 383.608,897.443 384.759,879.731 
  386.485,862.018 388.787,844.306 391.664,826.593 395.116,808.881 397.202,799.708 399.195,791.168 403.919,773.456 409.234,755.743 415.14,738.031 419.643,725.753 
  421.689,720.318 428.967,702.606 436.852,684.893 442.083,673.981 445.433,667.181 454.784,649.468 464.523,632.171 464.764,631.756 475.663,614.043 486.964,596.7 
  487.211,596.331 499.751,578.618 509.404,565.666 513.059,560.906 527.339,543.193 531.844,537.86 542.626,525.481 554.285,512.678 558.9,507.768 576.273,490.056 
  576.725,489.613 594.958,472.344 599.166,468.512 614.932,454.631 621.606,448.973 636.332,436.919 644.046,430.83 659.318,419.206 666.487,413.938 684.072,401.494 
  688.927,398.173 710.806,383.781 711.368,383.424 733.808,369.711 740.028,366.069 756.248,356.866 771.931,348.356 778.689,344.8 801.129,333.529 807.16,330.644 
  823.569,323.025 846.01,313.127 846.477,312.931 868.45,304.012 890.891,295.409 891.417,295.219 913.331,287.531 935.771,280.151 944.387,277.506 958.212,273.377 
  980.652,267.154 1003.09,261.409 1009.98,259.794 1025.53,256.24 1047.97,251.578 1070.41,247.383 1092.85,243.654 1103.67,242.081 1115.29,240.435 1137.73,237.71 
  1160.18,235.439 1182.62,233.622 1205.06,232.26 1227.5,231.352 1249.94,230.898 1272.38,230.898 1294.82,231.352 1317.26,232.26 1339.7,233.622 1362.14,235.439 
  1384.58,237.71 1407.02,240.435 1418.64,242.081 1429.46,243.654 1451.9,247.383 1474.34,251.578 1496.78,256.24 1512.34,259.794 1519.22,261.409 1541.66,267.154 
  1564.1,273.377 1577.93,277.506 1586.54,280.151 1608.98,287.531 1630.9,295.219 1631.42,295.409 1653.86,304.012 1675.84,312.931 1676.3,313.127 1698.74,323.025 
  1715.15,330.644 1721.18,333.529 1743.63,344.8 1750.38,348.356 1766.07,356.866 1782.29,366.069 1788.51,369.711 1810.95,383.424 1811.51,383.781 1833.39,398.173 
  1838.24,401.494 1855.83,413.938 1863,419.206 1878.27,430.83 1885.98,436.919 1900.71,448.973 1907.38,454.631 1923.15,468.512 1927.36,472.344 1945.59,489.613 
  1946.04,490.056 1963.41,507.768 1968.03,512.678 1979.69,525.481 1990.47,537.86 1994.97,543.193 2009.25,560.906 2012.91,565.666 2022.56,578.618 2035.1,596.331 
  2035.35,596.7 2046.65,614.043 2057.55,631.756 2057.79,632.171 2067.53,649.468 2076.88,667.181 2080.23,673.981 2085.46,684.893 2093.35,702.606 2100.62,720.318 
  2102.67,725.753 2107.17,738.031 2113.08,755.743 2118.39,773.456 2123.12,791.168 2125.11,799.708 2127.2,808.881 2130.65,826.593 2133.53,844.306 2135.83,862.018 
  2137.55,879.731 2138.71,897.443 2139.28,915.155 2139.28,932.868 2138.71,950.58 2137.55,968.293 2135.83,986.005 2133.53,1003.72 2130.65,1021.43 2127.2,1039.14 
  2125.11,1048.32 2123.12,1056.86 2118.39,1074.57 2113.08,1092.28 2107.17,1109.99 2102.67,1122.27 2100.62,1127.71 2093.35,1145.42 2085.46,1163.13 2080.23,1174.04 
  2076.88,1180.84 2067.53,1198.56 2057.79,1215.85 2057.55,1216.27 2046.65,1233.98 2035.35,1251.32 2035.1,1251.69 2022.56,1269.4 2012.91,1282.36 2009.25,1287.12 
  1994.97,1304.83 1990.47,1310.16 1979.69,1322.54 1968.03,1335.35 1963.41,1340.25 1946.04,1357.97 1945.59,1358.41 1927.36,1375.68 1923.15,1379.51 1907.38,1393.39 
  1900.71,1399.05 1885.98,1411.1 1878.27,1417.19 
  "/>
<polyline clip-path="url(#clip562)" style="stroke:#f98c09; stroke-linecap:butt; stroke-linejoin:round; stroke-width:4; stroke-opacity:1; fill:none" points="
  1810.95,1366.82 1799.26,1375.68 1788.51,1383.51 1774.36,1393.39 1766.07,1398.97 1747.2,1411.1 1743.63,1413.32 1721.18,1426.6 1717.26,1428.82 1698.74,1438.9 
  1683.98,1446.53 1676.3,1450.37 1653.86,1460.99 1646.6,1464.24 1631.42,1470.81 1608.98,1479.95 1603.75,1481.95 1586.54,1488.32 1564.1,1496.07 1552.88,1499.67 
  1541.66,1503.16 1519.22,1509.6 1496.78,1515.5 1488.93,1517.38 1474.34,1520.77 1451.9,1525.45 1429.46,1529.62 1407.02,1533.27 1393.93,1535.09 1384.58,1536.36 
  1362.14,1538.89 1339.7,1540.91 1317.26,1542.43 1294.82,1543.44 1272.38,1543.95 1249.94,1543.95 1227.5,1543.44 1205.06,1542.43 1182.62,1540.91 1160.18,1538.89 
  1137.73,1536.36 1128.38,1535.09 1115.29,1533.27 1092.85,1529.62 1070.41,1525.45 1047.97,1520.77 1033.39,1517.38 1025.53,1515.5 1003.09,1509.6 980.652,1503.16 
  969.432,1499.67 958.212,1496.07 935.771,1488.32 918.567,1481.95 913.331,1479.95 890.891,1470.81 875.71,1464.24 868.45,1460.99 846.01,1450.37 838.333,1446.53 
  823.569,1438.9 805.056,1428.82 801.129,1426.6 778.689,1413.32 775.119,1411.1 756.248,1398.97 747.955,1393.39 733.808,1383.51 723.055,1375.68 711.368,1366.82 
  700.147,1357.97 688.927,1348.74 679.002,1340.25 666.487,1329.09 659.422,1322.54 644.046,1307.65 641.241,1304.83 624.411,1287.12 621.606,1284.02 608.838,1269.4 
  599.166,1257.75 594.304,1251.69 580.839,1233.98 576.725,1228.25 568.401,1216.27 556.818,1198.56 554.285,1194.42 546.22,1180.84 536.403,1163.13 531.844,1154.27 
  527.424,1145.42 519.264,1127.71 511.784,1109.99 509.404,1103.79 505.114,1092.28 499.174,1074.57 493.894,1056.86 489.274,1039.14 486.964,1028.81 485.361,1021.43 
  482.155,1003.72 479.59,986.005 477.667,968.293 476.385,950.58 475.743,932.868 475.743,915.155 476.385,897.443 477.667,879.731 479.59,862.018 482.155,844.306 
  485.361,826.593 486.964,819.213 489.274,808.881 493.894,791.168 499.174,773.456 505.114,755.743 509.404,744.23 511.784,738.031 519.264,720.318 527.424,702.606 
  531.844,693.749 536.403,684.893 546.22,667.181 554.285,653.601 556.818,649.468 568.401,631.756 576.725,619.774 580.839,614.043 594.304,596.331 599.166,590.271 
  608.838,578.618 621.606,564.006 624.411,560.906 641.241,543.193 644.046,540.376 659.422,525.481 666.487,518.935 679.002,507.768 688.927,499.281 700.147,490.056 
  711.368,481.2 723.055,472.344 733.808,464.509 747.955,454.631 756.248,449.055 775.119,436.919 778.689,434.705 801.129,421.42 805.056,419.206 823.569,409.128 
  838.333,401.494 846.01,397.656 868.45,387.028 875.71,383.781 890.891,377.21 913.331,368.068 918.567,366.069 935.771,359.703 958.212,351.954 969.432,348.356 
  980.652,344.867 1003.09,338.426 1025.53,332.522 1033.39,330.644 1047.97,327.258 1070.41,322.569 1092.85,318.401 1115.29,314.755 1128.38,312.931 1137.73,311.666 
  1160.18,309.136 1182.62,307.111 1205.06,305.593 1227.5,304.581 1249.94,304.075 1272.38,304.075 1294.82,304.581 1317.26,305.593 1339.7,307.111 1362.14,309.136 
  1384.58,311.666 1393.93,312.931 1407.02,314.755 1429.46,318.401 1451.9,322.569 1474.34,327.258 1488.93,330.644 1496.78,332.522 1519.22,338.426 1541.66,344.867 
  1552.88,348.356 1564.1,351.954 1586.54,359.703 1603.75,366.069 1608.98,368.068 1631.42,377.21 1646.6,383.781 1653.86,387.028 1676.3,397.656 1683.98,401.494 
  1698.74,409.128 1717.26,419.206 1721.18,421.42 1743.63,434.705 1747.2,436.919 1766.07,449.055 1774.36,454.631 1788.51,464.509 1799.26,472.344 1810.95,481.2 
  1822.17,490.056 1833.39,499.281 1843.31,507.768 1855.83,518.935 1862.89,525.481 1878.27,540.376 1881.07,543.193 1897.9,560.906 1900.71,564.006 1913.48,578.618 
  1923.15,590.271 1928.01,596.331 1941.47,614.043 1945.59,619.774 1953.91,631.756 1965.5,649.468 1968.03,653.601 1976.09,667.181 1985.91,684.893 1990.47,693.749 
  1994.89,702.606 2003.05,720.318 2010.53,738.031 2012.91,744.23 2017.2,755.743 2023.14,773.456 2028.42,791.168 2033.04,808.881 2035.35,819.213 2036.95,826.593 
  2040.16,844.306 2042.72,862.018 2044.65,879.731 2045.93,897.443 2046.57,915.155 2046.57,932.868 2045.93,950.58 2044.65,968.293 2042.72,986.005 2040.16,1003.72 
  2036.95,1021.43 2035.35,1028.81 2033.04,1039.14 2028.42,1056.86 2023.14,1074.57 2017.2,1092.28 2012.91,1103.79 2010.53,1109.99 2003.05,1127.71 1994.89,1145.42 
  1990.47,1154.27 1985.91,1163.13 1976.09,1180.84 1968.03,1194.42 1965.5,1198.56 1953.91,1216.27 1945.59,1228.25 1941.47,1233.98 1928.01,1251.69 1923.15,1257.75 
  1913.48,1269.4 1900.71,1284.02 1897.9,1287.12 1881.07,1304.83 1878.27,1307.65 1862.89,1322.54 1855.83,1329.09 1843.31,1340.25 1833.39,1348.74 1822.17,1357.97 
  1810.95,1366.82 
  "/>
<polyline clip-path="url(#clip562)" style="stroke:#fbaa0e; stroke-linecap:butt; stroke-linejoin:round; stroke-width:4; stroke-opacity:1; fill:none" points="
  1743.63,1302.62 1740.82,1304.83 1721.18,1319.62 1717.12,1322.54 1698.74,1335.15 1690.92,1340.25 1676.3,1349.39 1661.81,1357.97 1653.86,1362.48 1631.42,1374.53 
  1629.14,1375.68 1608.98,1385.47 1591.59,1393.39 1586.54,1395.61 1564.1,1404.79 1547.49,1411.1 1541.66,1413.24 1519.22,1420.83 1496.78,1427.79 1493.13,1428.82 
  1474.34,1433.93 1451.9,1439.43 1429.46,1444.32 1417.84,1446.53 1407.02,1448.52 1384.58,1452.06 1362.14,1455.02 1339.7,1457.38 1317.26,1459.15 1294.82,1460.33 
  1272.38,1460.92 1249.94,1460.92 1227.5,1460.33 1205.06,1459.15 1182.62,1457.38 1160.18,1455.02 1137.73,1452.06 1115.29,1448.52 1104.47,1446.53 1092.85,1444.32 
  1070.41,1439.43 1047.97,1433.93 1029.18,1428.82 1025.53,1427.79 1003.09,1420.83 980.652,1413.24 974.826,1411.1 958.212,1404.79 935.771,1395.61 930.722,1393.39 
  913.331,1385.47 893.17,1375.68 890.891,1374.53 868.45,1362.48 860.503,1357.97 846.01,1349.39 831.394,1340.25 823.569,1335.15 805.196,1322.54 801.129,1319.62 
  781.494,1304.83 778.689,1302.62 759.946,1287.12 756.248,1283.91 740.272,1269.4 733.808,1263.23 722.237,1251.69 711.368,1240.25 705.645,1233.98 690.386,1216.27 
  688.927,1214.47 676.52,1198.56 666.487,1184.83 663.682,1180.84 652.046,1163.13 644.046,1150.02 641.341,1145.42 631.724,1127.71 622.908,1109.99 621.606,1107.11 
  615.125,1092.28 608.161,1074.57 601.971,1056.86 599.166,1047.68 596.641,1039.14 592.153,1021.43 588.413,1003.72 585.421,986.005 583.177,968.293 581.681,950.58 
  580.933,932.868 580.933,915.155 581.681,897.443 583.177,879.731 585.421,862.018 588.413,844.306 592.153,826.593 596.641,808.881 599.166,800.341 601.971,791.168 
  608.161,773.456 615.125,755.743 621.606,740.909 622.908,738.031 631.724,720.318 641.341,702.606 644.046,698.007 652.046,684.893 663.682,667.181 666.487,663.195 
  676.52,649.468 688.927,633.555 690.386,631.756 705.645,614.043 711.368,607.77 722.237,596.331 733.808,584.794 740.272,578.618 756.248,564.116 759.946,560.906 
  778.689,545.408 781.494,543.193 801.129,528.4 805.196,525.481 823.569,512.87 831.394,507.768 846.01,498.635 860.503,490.056 868.45,485.539 890.891,473.495 
  893.17,472.344 913.331,462.551 930.722,454.631 935.771,452.417 958.212,443.233 974.826,436.919 980.652,434.784 1003.09,427.193 1025.53,420.234 1029.18,419.206 
  1047.97,414.091 1070.41,408.594 1092.85,403.708 1104.47,401.494 1115.29,399.501 1137.73,395.958 1160.18,393.006 1182.62,390.645 1205.06,388.873 1227.5,387.693 
  1249.94,387.102 1272.38,387.102 1294.82,387.693 1317.26,388.873 1339.7,390.645 1362.14,393.006 1384.58,395.958 1407.02,399.501 1417.84,401.494 1429.46,403.708 
  1451.9,408.594 1474.34,414.091 1493.13,419.206 1496.78,420.234 1519.22,427.193 1541.66,434.784 1547.49,436.919 1564.1,443.233 1586.54,452.417 1591.59,454.631 
  1608.98,462.551 1629.14,472.344 1631.42,473.495 1653.86,485.539 1661.81,490.056 1676.3,498.635 1690.92,507.768 1698.74,512.87 1717.12,525.481 1721.18,528.4 
  1740.82,543.193 1743.63,545.408 1762.37,560.906 1766.07,564.116 1782.04,578.618 1788.51,584.794 1800.08,596.331 1810.95,607.77 1816.67,614.043 1831.93,631.756 
  1833.39,633.555 1845.79,649.468 1855.83,663.195 1858.63,667.181 1870.27,684.893 1878.27,698.007 1880.97,702.606 1890.59,720.318 1899.41,738.031 1900.71,740.909 
  1907.19,755.743 1914.15,773.456 1920.34,791.168 1923.15,800.341 1925.67,808.881 1930.16,826.593 1933.9,844.306 1936.89,862.018 1939.14,879.731 1940.63,897.443 
  1941.38,915.155 1941.38,932.868 1940.63,950.58 1939.14,968.293 1936.89,986.005 1933.9,1003.72 1930.16,1021.43 1925.67,1039.14 1923.15,1047.68 1920.34,1056.86 
  1914.15,1074.57 1907.19,1092.28 1900.71,1107.11 1899.41,1109.99 1890.59,1127.71 1880.97,1145.42 1878.27,1150.02 1870.27,1163.13 1858.63,1180.84 1855.83,1184.83 
  1845.79,1198.56 1833.39,1214.47 1831.93,1216.27 1816.67,1233.98 1810.95,1240.25 1800.08,1251.69 1788.51,1263.23 1782.04,1269.4 1766.07,1283.91 1762.37,1287.12 
  1743.63,1302.62 
  "/>
<polyline clip-path="url(#clip562)" style="stroke:#f8c931; stroke-linecap:butt; stroke-linejoin:round; stroke-width:4; stroke-opacity:1; fill:none" points="
  1654.18,1233.98 1653.86,1234.23 1631.42,1250.95 1630.37,1251.69 1608.98,1265.91 1603.37,1269.4 1586.54,1279.37 1572.52,1287.12 1564.1,1291.55 1541.66,1302.51 
  1536.52,1304.83 1519.22,1312.28 1496.78,1321.13 1492.85,1322.54 1474.34,1328.9 1451.9,1335.83 1435.77,1340.25 1429.46,1341.92 1407.02,1347.08 1384.58,1351.51 
  1362.14,1355.2 1341.1,1357.97 1339.7,1358.14 1317.26,1360.27 1294.82,1361.69 1272.38,1362.4 1249.94,1362.4 1227.5,1361.69 1205.06,1360.27 1182.62,1358.14 
  1181.21,1357.97 1160.18,1355.2 1137.73,1351.51 1115.29,1347.08 1092.85,1341.92 1086.54,1340.25 1070.41,1335.83 1047.97,1328.9 1029.46,1322.54 1025.53,1321.13 
  1003.09,1312.28 985.795,1304.83 980.652,1302.51 958.212,1291.55 949.797,1287.12 935.771,1279.37 918.941,1269.4 913.331,1265.91 891.942,1251.69 890.891,1250.95 
  868.45,1234.23 868.139,1233.98 846.945,1216.27 846.01,1215.44 827.998,1198.56 823.569,1194.13 810.947,1180.84 801.129,1169.77 795.519,1163.13 781.627,1145.42 
  778.689,1141.36 769.253,1127.71 758.033,1109.99 756.248,1106.89 748.199,1092.28 739.418,1074.57 733.808,1061.84 731.704,1056.86 725.159,1039.14 719.549,1021.43 
  714.874,1003.72 711.368,987.112 711.143,986.005 708.45,968.293 706.655,950.58 705.757,932.868 705.757,915.155 706.655,897.443 708.45,879.731 711.143,862.018 
  711.368,860.911 714.874,844.306 719.549,826.593 725.159,808.881 731.704,791.168 733.808,786.186 739.418,773.456 748.199,755.743 756.248,741.13 758.033,738.031 
  769.253,720.318 778.689,706.665 781.627,702.606 795.519,684.893 801.129,678.251 810.947,667.181 823.569,653.896 827.998,649.468 846.01,632.586 846.945,631.756 
  868.139,614.043 868.45,613.797 890.891,597.069 891.942,596.331 913.331,582.114 918.941,578.618 935.771,568.655 949.797,560.906 958.212,556.478 980.652,545.513 
  985.795,543.193 1003.09,535.746 1025.53,526.89 1029.46,525.481 1047.97,519.128 1070.41,512.197 1086.54,507.768 1092.85,506.108 1115.29,500.942 1137.73,496.514 
  1160.18,492.824 1181.21,490.056 1182.62,489.879 1205.06,487.753 1227.5,486.336 1249.94,485.628 1272.38,485.628 1294.82,486.336 1317.26,487.753 1339.7,489.879 
  1341.1,490.056 1362.14,492.824 1384.58,496.514 1407.02,500.942 1429.46,506.108 1435.77,507.768 1451.9,512.197 1474.34,519.128 1492.85,525.481 1496.78,526.89 
  1519.22,535.746 1536.52,543.193 1541.66,545.513 1564.1,556.478 1572.52,560.906 1586.54,568.655 1603.37,578.618 1608.98,582.114 1630.37,596.331 1631.42,597.069 
  1653.86,613.797 1654.18,614.043 1675.37,631.756 1676.3,632.586 1694.32,649.468 1698.74,653.896 1711.37,667.181 1721.18,678.251 1726.79,684.893 1740.69,702.606 
  1743.63,706.665 1753.06,720.318 1764.28,738.031 1766.07,741.13 1774.11,755.743 1782.9,773.456 1788.51,786.186 1790.61,791.168 1797.15,808.881 1802.76,826.593 
  1807.44,844.306 1810.95,860.911 1811.17,862.018 1813.86,879.731 1815.66,897.443 1816.56,915.155 1816.56,932.868 1815.66,950.58 1813.86,968.293 1811.17,986.005 
  1810.95,987.112 1807.44,1003.72 1802.76,1021.43 1797.15,1039.14 1790.61,1056.86 1788.51,1061.84 1782.9,1074.57 1774.11,1092.28 1766.07,1106.89 1764.28,1109.99 
  1753.06,1127.71 1743.63,1141.36 1740.69,1145.42 1726.79,1163.13 1721.18,1169.77 1711.37,1180.84 1698.74,1194.13 1694.32,1198.56 1676.3,1215.44 1675.37,1216.27 
  1654.18,1233.98 
  "/>
<polyline clip-path="url(#clip562)" style="stroke:#f1e864; stroke-linecap:butt; stroke-linejoin:round; stroke-width:4; stroke-opacity:1; fill:none" points="
  1541.66,1141.17 1536.29,1145.42 1519.22,1157.85 1511.32,1163.13 1496.78,1172.14 1481.35,1180.84 1474.34,1184.53 1451.9,1195.16 1443.84,1198.56 1429.46,1204.23 
  1407.02,1211.98 1392.53,1216.27 1384.58,1218.48 1362.14,1223.69 1339.7,1227.86 1317.26,1230.98 1294.82,1233.07 1275.18,1233.98 1272.38,1234.1 1249.94,1234.1 
  1247.13,1233.98 1227.5,1233.07 1205.06,1230.98 1182.62,1227.86 1160.18,1223.69 1137.73,1218.48 1129.79,1216.27 1115.29,1211.98 1092.85,1204.23 1078.48,1198.56 
  1070.41,1195.16 1047.97,1184.53 1040.96,1180.84 1025.53,1172.14 1011,1163.13 1003.09,1157.85 986.028,1145.42 980.652,1141.17 964.901,1127.71 958.212,1121.47 
  946.791,1109.99 935.771,1097.82 931.096,1092.28 917.632,1074.57 913.331,1068.2 906.143,1056.86 896.325,1039.14 890.891,1027.7 888.086,1021.43 881.485,1003.72 
  876.205,986.005 872.245,968.293 869.605,950.58 868.45,935.082 868.294,932.868 868.294,915.155 868.45,912.941 869.605,897.443 872.245,879.731 876.205,862.018 
  881.485,844.306 888.086,826.593 890.891,820.32 896.325,808.881 906.143,791.168 913.331,779.821 917.632,773.456 931.096,755.743 935.771,750.208 946.791,738.031 
  958.212,726.558 964.901,720.318 980.652,706.849 986.028,702.606 1003.09,690.173 1011,684.893 1025.53,675.879 1040.96,667.181 1047.97,663.491 1070.41,652.863 
  1078.48,649.468 1092.85,643.795 1115.29,636.046 1129.79,631.756 1137.73,629.542 1160.18,624.332 1182.62,620.165 1205.06,617.039 1227.5,614.955 1247.13,614.043 
  1249.94,613.92 1272.38,613.92 1275.18,614.043 1294.82,614.955 1317.26,617.039 1339.7,620.165 1362.14,624.332 1384.58,629.542 1392.53,631.756 1407.02,636.046 
  1429.46,643.795 1443.84,649.468 1451.9,652.863 1474.34,663.491 1481.35,667.181 1496.78,675.879 1511.32,684.893 1519.22,690.173 1536.29,702.606 1541.66,706.849 
  1557.41,720.318 1564.1,726.558 1575.52,738.031 1586.54,750.208 1591.22,755.743 1604.68,773.456 1608.98,779.821 1616.17,791.168 1625.99,808.881 1631.42,820.32 
  1634.23,826.593 1640.83,844.306 1646.11,862.018 1650.07,879.731 1652.71,897.443 1653.86,912.941 1654.02,915.155 1654.02,932.868 1653.86,935.082 1652.71,950.58 
  1650.07,968.293 1646.11,986.005 1640.83,1003.72 1634.23,1021.43 1631.42,1027.7 1625.99,1039.14 1616.17,1056.86 1608.98,1068.2 1604.68,1074.57 1591.22,1092.28 
  1586.54,1097.82 1575.52,1109.99 1564.1,1121.47 1557.41,1127.71 1541.66,1141.17 
  "/>
<defs>
  <clipPath id="clip563">
    <rect x="2425" y="47" width="82" height="1755"/>
  </clipPath>
</defs>
<polyline clip-path="url(#clip563)" style="stroke:#0a0723; stroke-linecap:butt; stroke-linejoin:round; stroke-width:4; stroke-opacity:1; fill:none" points="
  2425.72,1691.18 2506.36,1691.18 
  "/>
<polyline clip-path="url(#clip563)" style="stroke:#200c4a; stroke-linecap:butt; stroke-linejoin:round; stroke-width:4; stroke-opacity:1; fill:none" points="
  2425.72,1581.59 2506.36,1581.59 
  "/>
<polyline clip-path="url(#clip563)" style="stroke:#3c0965; stroke-linecap:butt; stroke-linejoin:round; stroke-width:4; stroke-opacity:1; fill:none" points="
  2425.72,1471.99 2506.36,1471.99 
  "/>
<polyline clip-path="url(#clip563)" style="stroke:#570f6d; stroke-linecap:butt; stroke-linejoin:round; stroke-width:4; stroke-opacity:1; fill:none" points="
  2425.72,1362.4 2506.36,1362.4 
  "/>
<polyline clip-path="url(#clip563)" style="stroke:#70196e; stroke-linecap:butt; stroke-linejoin:round; stroke-width:4; stroke-opacity:1; fill:none" points="
  2425.72,1252.8 2506.36,1252.8 
  "/>
<polyline clip-path="url(#clip563)" style="stroke:#892269; stroke-linecap:butt; stroke-linejoin:round; stroke-width:4; stroke-opacity:1; fill:none" points="
  2425.72,1143.2 2506.36,1143.2 
  "/>
<polyline clip-path="url(#clip563)" style="stroke:#a32b61; stroke-linecap:butt; stroke-linejoin:round; stroke-width:4; stroke-opacity:1; fill:none" points="
  2425.72,1033.61 2506.36,1033.61 
  "/>
<polyline clip-path="url(#clip563)" style="stroke:#bb3754; stroke-linecap:butt; stroke-linejoin:round; stroke-width:4; stroke-opacity:1; fill:none" points="
  2425.72,924.012 2506.36,924.012 
  "/>
<polyline clip-path="url(#clip563)" style="stroke:#d04544; stroke-linecap:butt; stroke-linejoin:round; stroke-width:4; stroke-opacity:1; fill:none" points="
  2425.72,814.416 2506.36,814.416 
  "/>
<polyline clip-path="url(#clip563)" style="stroke:#e35832; stroke-linecap:butt; stroke-linejoin:round; stroke-width:4; stroke-opacity:1; fill:none" points="
  2425.72,704.82 2506.36,704.82 
  "/>
<polyline clip-path="url(#clip563)" style="stroke:#f0701e; stroke-linecap:butt; stroke-linejoin:round; stroke-width:4; stroke-opacity:1; fill:none" points="
  2425.72,595.224 2506.36,595.224 
  "/>
<polyline clip-path="url(#clip563)" style="stroke:#f98c09; stroke-linecap:butt; stroke-linejoin:round; stroke-width:4; stroke-opacity:1; fill:none" points="
  2425.72,485.628 2506.36,485.628 
  "/>
<polyline clip-path="url(#clip563)" style="stroke:#fbaa0e; stroke-linecap:butt; stroke-linejoin:round; stroke-width:4; stroke-opacity:1; fill:none" points="
  2425.72,376.032 2506.36,376.032 
  "/>
<polyline clip-path="url(#clip563)" style="stroke:#f8c931; stroke-linecap:butt; stroke-linejoin:round; stroke-width:4; stroke-opacity:1; fill:none" points="
  2425.72,266.436 2506.36,266.436 
  "/>
<polyline clip-path="url(#clip563)" style="stroke:#f1e864; stroke-linecap:butt; stroke-linejoin:round; stroke-width:4; stroke-opacity:1; fill:none" points="
  2425.72,156.84 2506.36,156.84 
  "/>
<path clip-path="url(#clip560)" d="M2546.68 1797.6 L2576.35 1797.6 L2576.35 1801.54 L2546.68 1801.54 L2546.68 1797.6 Z" fill="#000000" fill-rule="evenodd" fill-opacity="1" /><path clip-path="url(#clip560)" d="M2597.02 1795.29 Q2593.87 1795.29 2592.02 1797.44 Q2590.19 1799.59 2590.19 1803.34 Q2590.19 1807.07 2592.02 1809.25 Q2593.87 1811.4 2597.02 1811.4 Q2600.17 1811.4 2602 1809.25 Q2603.85 1807.07 2603.85 1803.34 Q2603.85 1799.59 2602 1797.44 Q2600.17 1795.29 2597.02 1795.29 M2606.31 1780.63 L2606.31 1784.89 Q2604.55 1784.06 2602.74 1783.62 Q2600.96 1783.18 2599.2 1783.18 Q2594.57 1783.18 2592.12 1786.31 Q2589.68 1789.43 2589.34 1795.75 Q2590.7 1793.74 2592.76 1792.67 Q2594.82 1791.58 2597.3 1791.58 Q2602.51 1791.58 2605.52 1794.75 Q2608.55 1797.9 2608.55 1803.34 Q2608.55 1808.67 2605.4 1811.88 Q2602.25 1815.1 2597.02 1815.1 Q2591.03 1815.1 2587.86 1810.52 Q2584.68 1805.91 2584.68 1797.19 Q2584.68 1788.99 2588.57 1784.13 Q2592.46 1779.25 2599.01 1779.25 Q2600.77 1779.25 2602.56 1779.59 Q2604.36 1779.94 2606.31 1780.63 Z" fill="#000000" fill-rule="evenodd" fill-opacity="1" /><path clip-path="url(#clip560)" d="M2546.68 1578.39 L2576.35 1578.39 L2576.35 1582.32 L2546.68 1582.32 L2546.68 1578.39 Z" fill="#000000" fill-rule="evenodd" fill-opacity="1" /><path clip-path="url(#clip560)" d="M2586.49 1560.66 L2604.85 1560.66 L2604.85 1564.59 L2590.77 1564.59 L2590.77 1573.06 Q2591.79 1572.72 2592.81 1572.55 Q2593.83 1572.37 2594.85 1572.37 Q2600.63 1572.37 2604.01 1575.54 Q2607.39 1578.71 2607.39 1584.13 Q2607.39 1589.71 2603.92 1592.81 Q2600.45 1595.89 2594.13 1595.89 Q2591.95 1595.89 2589.68 1595.52 Q2587.44 1595.15 2585.03 1594.41 L2585.03 1589.71 Q2587.12 1590.84 2589.34 1591.4 Q2591.56 1591.95 2594.04 1591.95 Q2598.04 1591.95 2600.38 1589.85 Q2602.72 1587.74 2602.72 1584.13 Q2602.72 1580.52 2600.38 1578.41 Q2598.04 1576.3 2594.04 1576.3 Q2592.16 1576.3 2590.29 1576.72 Q2588.43 1577.14 2586.49 1578.02 L2586.49 1560.66 Z" fill="#000000" fill-rule="evenodd" fill-opacity="1" /><path clip-path="url(#clip560)" d="M2546.68 1359.17 L2576.35 1359.17 L2576.35 1363.11 L2546.68 1363.11 L2546.68 1359.17 Z" fill="#000000" fill-rule="evenodd" fill-opacity="1" /><path clip-path="url(#clip560)" d="M2599.29 1345.52 L2587.49 1363.96 L2599.29 1363.96 L2599.29 1345.52 M2598.06 1341.44 L2603.94 1341.44 L2603.94 1363.96 L2608.87 1363.96 L2608.87 1367.85 L2603.94 1367.85 L2603.94 1376 L2599.29 1376 L2599.29 1367.85 L2583.69 1367.85 L2583.69 1363.34 L2598.06 1341.44 Z" fill="#000000" fill-rule="evenodd" fill-opacity="1" /><path clip-path="url(#clip560)" d="M2546.68 1139.96 L2576.35 1139.96 L2576.35 1143.89 L2546.68 1143.89 L2546.68 1139.96 Z" fill="#000000" fill-rule="evenodd" fill-opacity="1" /><path clip-path="url(#clip560)" d="M2600.61 1138.15 Q2603.97 1138.87 2605.84 1141.14 Q2607.74 1143.41 2607.74 1146.74 Q2607.74 1151.86 2604.22 1154.66 Q2600.7 1157.46 2594.22 1157.46 Q2592.05 1157.46 2589.73 1157.02 Q2587.44 1156.6 2584.99 1155.75 L2584.99 1151.23 Q2586.93 1152.37 2589.25 1152.95 Q2591.56 1153.52 2594.08 1153.52 Q2598.48 1153.52 2600.77 1151.79 Q2603.09 1150.05 2603.09 1146.74 Q2603.09 1143.69 2600.93 1141.97 Q2598.81 1140.24 2594.99 1140.24 L2590.96 1140.24 L2590.96 1136.39 L2595.17 1136.39 Q2598.62 1136.39 2600.45 1135.03 Q2602.28 1133.64 2602.28 1131.05 Q2602.28 1128.39 2600.38 1126.97 Q2598.5 1125.54 2594.99 1125.54 Q2593.06 1125.54 2590.87 1125.95 Q2588.67 1126.37 2586.03 1127.25 L2586.03 1123.08 Q2588.69 1122.34 2591 1121.97 Q2593.34 1121.6 2595.4 1121.6 Q2600.73 1121.6 2603.83 1124.03 Q2606.93 1126.44 2606.93 1130.56 Q2606.93 1133.43 2605.29 1135.42 Q2603.64 1137.39 2600.61 1138.15 Z" fill="#000000" fill-rule="evenodd" fill-opacity="1" /><path clip-path="url(#clip560)" d="M2546.68 920.745 L2576.35 920.745 L2576.35 924.68 L2546.68 924.68 L2546.68 920.745 Z" fill="#000000" fill-rule="evenodd" fill-opacity="1" /><path clip-path="url(#clip560)" d="M2590.47 933.638 L2606.79 933.638 L2606.79 937.573 L2584.85 937.573 L2584.85 933.638 Q2587.51 930.884 2592.09 926.254 Q2596.7 921.601 2597.88 920.259 Q2600.12 917.736 2601 915.999 Q2601.91 914.24 2601.91 912.55 Q2601.91 909.796 2599.96 908.06 Q2598.04 906.324 2594.94 906.324 Q2592.74 906.324 2590.29 907.087 Q2587.86 907.851 2585.08 909.402 L2585.08 904.68 Q2587.9 903.546 2590.36 902.967 Q2592.81 902.388 2594.85 902.388 Q2600.22 902.388 2603.41 905.074 Q2606.61 907.759 2606.61 912.249 Q2606.61 914.379 2605.8 916.3 Q2605.01 918.199 2602.9 920.791 Q2602.32 921.462 2599.22 924.68 Q2596.12 927.874 2590.47 933.638 Z" fill="#000000" fill-rule="evenodd" fill-opacity="1" /><path clip-path="url(#clip560)" d="M2546.68 701.531 L2576.35 701.531 L2576.35 705.466 L2546.68 705.466 L2546.68 701.531 Z" fill="#000000" fill-rule="evenodd" fill-opacity="1" /><path clip-path="url(#clip560)" d="M2587.25 714.424 L2594.89 714.424 L2594.89 688.058 L2586.58 689.725 L2586.58 685.466 L2594.85 683.799 L2599.52 683.799 L2599.52 714.424 L2607.16 714.424 L2607.16 718.359 L2587.25 718.359 L2587.25 714.424 Z" fill="#000000" fill-rule="evenodd" fill-opacity="1" /><path clip-path="url(#clip560)" d="M2558.62 467.664 Q2555.01 467.664 2553.18 471.228 Q2551.37 474.77 2551.37 481.9 Q2551.37 489.006 2553.18 492.571 Q2555.01 496.113 2558.62 496.113 Q2562.25 496.113 2564.06 492.571 Q2565.89 489.006 2565.89 481.9 Q2565.89 474.77 2564.06 471.228 Q2562.25 467.664 2558.62 467.664 M2558.62 463.96 Q2564.43 463.96 2567.49 468.566 Q2570.56 473.15 2570.56 481.9 Q2570.56 490.626 2567.49 495.233 Q2564.43 499.816 2558.62 499.816 Q2552.81 499.816 2549.73 495.233 Q2546.68 490.626 2546.68 481.9 Q2546.68 473.15 2549.73 468.566 Q2552.81 463.96 2558.62 463.96 Z" fill="#000000" fill-rule="evenodd" fill-opacity="1" /><path clip-path="url(#clip560)" d="M2547.35 275.995 L2554.99 275.995 L2554.99 249.63 L2546.68 251.297 L2546.68 247.037 L2554.94 245.371 L2559.62 245.371 L2559.62 275.995 L2567.25 275.995 L2567.25 279.931 L2547.35 279.931 L2547.35 275.995 Z" fill="#000000" fill-rule="evenodd" fill-opacity="1" /><polyline clip-path="url(#clip560)" style="stroke:#000000; stroke-linecap:butt; stroke-linejoin:round; stroke-width:4; stroke-opacity:1; fill:none" points="
  2506.36,1800.78 2506.36,1800.78 2533.24,1800.78 2506.36,1800.78 2506.36,1581.57 2533.24,1581.57 2506.36,1581.57 2506.36,1362.35 2533.24,1362.35 2506.36,1362.35 
  2506.36,1143.14 2533.24,1143.14 2506.36,1143.14 2506.36,923.922 2533.24,923.922 2506.36,923.922 2506.36,704.708 2533.24,704.708 2506.36,704.708 2506.36,485.494 
  2533.24,485.494 2506.36,485.494 2506.36,266.279 2533.24,266.279 2506.36,266.279 2506.36,47.2441 
  "/>
</svg>
