<?xml version="1.0" encoding="utf-8"?>
<svg xmlns="http://www.w3.org/2000/svg" xmlns:xlink="http://www.w3.org/1999/xlink" width="672" height="480" viewBox="0 0 2688 1920">
<defs>
  <clipPath id="clip640">
    <rect x="0" y="0" width="2688" height="1920"/>
  </clipPath>
</defs>
<path clip-path="url(#clip640)" d="
M0 1920 L2688 1920 L2688 0 L0 0  Z
  " fill="#ffffff" fill-rule="evenodd" fill-opacity="1"/>
<defs>
  <clipPath id="clip641">
    <rect x="537" y="0" width="1883" height="1883"/>
  </clipPath>
</defs>
<path clip-path="url(#clip640)" d="
M196.816 1800.78 L2371.96 1800.78 L2371.96 47.2441 L196.816 47.2441  Z
  " fill="#ffffff" fill-rule="evenodd" fill-opacity="1"/>
<defs>
  <clipPath id="clip642">
    <rect x="196" y="47" width="2176" height="1755"/>
  </clipPath>
</defs>
<polyline clip-path="url(#clip642)" style="stroke:#000000; stroke-linecap:butt; stroke-linejoin:round; stroke-width:2; stroke-opacity:0.1; fill:none" points="
  196.816,1800.78 196.816,47.2441 
  "/>
<polyline clip-path="url(#clip642)" style="stroke:#000000; stroke-linecap:butt; stroke-linejoin:round; stroke-width:2; stroke-opacity:0.1; fill:none" points="
  740.601,1800.78 740.601,47.2441 
  "/>
<polyline clip-path="url(#clip642)" style="stroke:#000000; stroke-linecap:butt; stroke-linejoin:round; stroke-width:2; stroke-opacity:0.1; fill:none" points="
  1284.39,1800.78 1284.39,47.2441 
  "/>
<polyline clip-path="url(#clip642)" style="stroke:#000000; stroke-linecap:butt; stroke-linejoin:round; stroke-width:2; stroke-opacity:0.1; fill:none" points="
  1828.17,1800.78 1828.17,47.2441 
  "/>
<polyline clip-path="url(#clip642)" style="stroke:#000000; stroke-linecap:butt; stroke-linejoin:round; stroke-width:2; stroke-opacity:0.1; fill:none" points="
  2371.96,1800.78 2371.96,47.2441 
  "/>
<polyline clip-path="url(#clip640)" style="stroke:#000000; stroke-linecap:butt; stroke-linejoin:round; stroke-width:4; stroke-opacity:1; fill:none" points="
  196.816,1800.78 2371.96,1800.78 
  "/>
<polyline clip-path="url(#clip640)" style="stroke:#000000; stroke-linecap:butt; stroke-linejoin:round; stroke-width:4; stroke-opacity:1; fill:none" points="
  196.816,1800.78 196.816,1781.88 
  "/>
<polyline clip-path="url(#clip640)" style="stroke:#000000; stroke-linecap:butt; stroke-linejoin:round; stroke-width:4; stroke-opacity:1; fill:none" points="
  740.601,1800.78 740.601,1781.88 
  "/>
<polyline clip-path="url(#clip640)" style="stroke:#000000; stroke-linecap:butt; stroke-linejoin:round; stroke-width:4; stroke-opacity:1; fill:none" points="
  1284.39,1800.78 1284.39,1781.88 
  "/>
<polyline clip-path="url(#clip640)" style="stroke:#000000; stroke-linecap:butt; stroke-linejoin:round; stroke-width:4; stroke-opacity:1; fill:none" points="
  1828.17,1800.78 1828.17,1781.88 
  "/>
<polyline clip-path="url(#clip640)" style="stroke:#000000; stroke-linecap:butt; stroke-linejoin:round; stroke-width:4; stroke-opacity:1; fill:none" points="
  2371.96,1800.78 2371.96,1781.88 
  "/>
<path clip-path="url(#clip640)" d="M143.344 1848.65 L173.02 1848.65 L173.02 1852.59 L143.344 1852.59 L143.344 1848.65 Z" fill="#000000" fill-rule="evenodd" fill-opacity="1" /><path clip-path="url(#clip640)" d="M183.159 1830.92 L201.515 1830.92 L201.515 1834.86 L187.441 1834.86 L187.441 1843.33 Q188.46 1842.98 189.478 1842.82 Q190.497 1842.64 191.515 1842.64 Q197.302 1842.64 200.682 1845.81 Q204.061 1848.98 204.061 1854.4 Q204.061 1859.97 200.589 1863.08 Q197.117 1866.15 190.798 1866.15 Q188.622 1866.15 186.353 1865.78 Q184.108 1865.41 181.7 1864.67 L181.7 1859.97 Q183.784 1861.11 186.006 1861.66 Q188.228 1862.22 190.705 1862.22 Q194.71 1862.22 197.047 1860.11 Q199.385 1858.01 199.385 1854.4 Q199.385 1850.78 197.047 1848.68 Q194.71 1846.57 190.705 1846.57 Q188.83 1846.57 186.955 1846.99 Q185.103 1847.4 183.159 1848.28 L183.159 1830.92 Z" fill="#000000" fill-rule="evenodd" fill-opacity="1" /><path clip-path="url(#clip640)" d="M213.274 1859.6 L218.158 1859.6 L218.158 1865.48 L213.274 1865.48 L213.274 1859.6 Z" fill="#000000" fill-rule="evenodd" fill-opacity="1" /><path clip-path="url(#clip640)" d="M238.344 1834 Q234.732 1834 232.904 1837.57 Q231.098 1841.11 231.098 1848.24 Q231.098 1855.34 232.904 1858.91 Q234.732 1862.45 238.344 1862.45 Q241.978 1862.45 243.783 1858.91 Q245.612 1855.34 245.612 1848.24 Q245.612 1841.11 243.783 1837.57 Q241.978 1834 238.344 1834 M238.344 1830.3 Q244.154 1830.3 247.209 1834.9 Q250.288 1839.49 250.288 1848.24 Q250.288 1856.96 247.209 1861.57 Q244.154 1866.15 238.344 1866.15 Q232.533 1866.15 229.455 1861.57 Q226.399 1856.96 226.399 1848.24 Q226.399 1839.49 229.455 1834.9 Q232.533 1830.3 238.344 1830.3 Z" fill="#000000" fill-rule="evenodd" fill-opacity="1" /><path clip-path="url(#clip640)" d="M687.627 1848.65 L717.302 1848.65 L717.302 1852.59 L687.627 1852.59 L687.627 1848.65 Z" fill="#000000" fill-rule="evenodd" fill-opacity="1" /><path clip-path="url(#clip640)" d="M731.423 1861.55 L747.742 1861.55 L747.742 1865.48 L725.798 1865.48 L725.798 1861.55 Q728.46 1858.79 733.043 1854.16 Q737.65 1849.51 738.83 1848.17 Q741.076 1845.65 741.955 1843.91 Q742.858 1842.15 742.858 1840.46 Q742.858 1837.71 740.913 1835.97 Q738.992 1834.23 735.89 1834.23 Q733.691 1834.23 731.238 1835 Q728.807 1835.76 726.029 1837.31 L726.029 1832.59 Q728.853 1831.46 731.307 1830.88 Q733.761 1830.3 735.798 1830.3 Q741.168 1830.3 744.363 1832.98 Q747.557 1835.67 747.557 1840.16 Q747.557 1842.29 746.747 1844.21 Q745.96 1846.11 743.853 1848.7 Q743.275 1849.37 740.173 1852.59 Q737.071 1855.78 731.423 1861.55 Z" fill="#000000" fill-rule="evenodd" fill-opacity="1" /><path clip-path="url(#clip640)" d="M757.557 1859.6 L762.441 1859.6 L762.441 1865.48 L757.557 1865.48 L757.557 1859.6 Z" fill="#000000" fill-rule="evenodd" fill-opacity="1" /><path clip-path="url(#clip640)" d="M772.673 1830.92 L791.029 1830.92 L791.029 1834.86 L776.955 1834.86 L776.955 1843.33 Q777.973 1842.98 778.992 1842.82 Q780.01 1842.64 781.029 1842.64 Q786.816 1842.64 790.196 1845.81 Q793.575 1848.98 793.575 1854.4 Q793.575 1859.97 790.103 1863.08 Q786.631 1866.15 780.311 1866.15 Q778.135 1866.15 775.867 1865.78 Q773.622 1865.41 771.214 1864.67 L771.214 1859.97 Q773.298 1861.11 775.52 1861.66 Q777.742 1862.22 780.219 1862.22 Q784.223 1862.22 786.561 1860.11 Q788.899 1858.01 788.899 1854.4 Q788.899 1850.78 786.561 1848.68 Q784.223 1846.57 780.219 1846.57 Q778.344 1846.57 776.469 1846.99 Q774.617 1847.4 772.673 1848.28 L772.673 1830.92 Z" fill="#000000" fill-rule="evenodd" fill-opacity="1" /><path clip-path="url(#clip640)" d="M1261.77 1834 Q1258.16 1834 1256.33 1837.57 Q1254.53 1841.11 1254.53 1848.24 Q1254.53 1855.34 1256.33 1858.91 Q1258.16 1862.45 1261.77 1862.45 Q1265.4 1862.45 1267.21 1858.91 Q1269.04 1855.34 1269.04 1848.24 Q1269.04 1841.11 1267.21 1837.57 Q1265.4 1834 1261.77 1834 M1261.77 1830.3 Q1267.58 1830.3 1270.64 1834.9 Q1273.71 1839.49 1273.71 1848.24 Q1273.71 1856.96 1270.64 1861.57 Q1267.58 1866.15 1261.77 1866.15 Q1255.96 1866.15 1252.88 1861.57 Q1249.83 1856.96 1249.83 1848.24 Q1249.83 1839.49 1252.88 1834.9 Q1255.96 1830.3 1261.77 1830.3 Z" fill="#000000" fill-rule="evenodd" fill-opacity="1" /><path clip-path="url(#clip640)" d="M1281.93 1859.6 L1286.82 1859.6 L1286.82 1865.48 L1281.93 1865.48 L1281.93 1859.6 Z" fill="#000000" fill-rule="evenodd" fill-opacity="1" /><path clip-path="url(#clip640)" d="M1307 1834 Q1303.39 1834 1301.56 1837.57 Q1299.76 1841.11 1299.76 1848.24 Q1299.76 1855.34 1301.56 1858.91 Q1303.39 1862.45 1307 1862.45 Q1310.64 1862.45 1312.44 1858.91 Q1314.27 1855.34 1314.27 1848.24 Q1314.27 1841.11 1312.44 1837.57 Q1310.64 1834 1307 1834 M1307 1830.3 Q1312.81 1830.3 1315.87 1834.9 Q1318.95 1839.49 1318.95 1848.24 Q1318.95 1856.96 1315.87 1861.57 Q1312.81 1866.15 1307 1866.15 Q1301.19 1866.15 1298.11 1861.57 Q1295.06 1856.96 1295.06 1848.24 Q1295.06 1839.49 1298.11 1834.9 Q1301.19 1830.3 1307 1830.3 Z" fill="#000000" fill-rule="evenodd" fill-opacity="1" /><path clip-path="url(#clip640)" d="M1799.91 1861.55 L1816.23 1861.55 L1816.23 1865.48 L1794.28 1865.48 L1794.28 1861.55 Q1796.94 1858.79 1801.53 1854.16 Q1806.13 1849.51 1807.31 1848.17 Q1809.56 1845.65 1810.44 1843.91 Q1811.34 1842.15 1811.34 1840.46 Q1811.34 1837.71 1809.4 1835.97 Q1807.48 1834.23 1804.37 1834.23 Q1802.18 1834.23 1799.72 1835 Q1797.29 1835.76 1794.51 1837.31 L1794.51 1832.59 Q1797.34 1831.46 1799.79 1830.88 Q1802.25 1830.3 1804.28 1830.3 Q1809.65 1830.3 1812.85 1832.98 Q1816.04 1835.67 1816.04 1840.16 Q1816.04 1842.29 1815.23 1844.21 Q1814.44 1846.11 1812.34 1848.7 Q1811.76 1849.37 1808.66 1852.59 Q1805.56 1855.78 1799.91 1861.55 Z" fill="#000000" fill-rule="evenodd" fill-opacity="1" /><path clip-path="url(#clip640)" d="M1826.04 1859.6 L1830.93 1859.6 L1830.93 1865.48 L1826.04 1865.48 L1826.04 1859.6 Z" fill="#000000" fill-rule="evenodd" fill-opacity="1" /><path clip-path="url(#clip640)" d="M1841.16 1830.92 L1859.51 1830.92 L1859.51 1834.86 L1845.44 1834.86 L1845.44 1843.33 Q1846.46 1842.98 1847.48 1842.82 Q1848.49 1842.64 1849.51 1842.64 Q1855.3 1842.64 1858.68 1845.81 Q1862.06 1848.98 1862.06 1854.4 Q1862.06 1859.97 1858.59 1863.08 Q1855.12 1866.15 1848.8 1866.15 Q1846.62 1866.15 1844.35 1865.78 Q1842.11 1865.41 1839.7 1864.67 L1839.7 1859.97 Q1841.78 1861.11 1844 1861.66 Q1846.23 1862.22 1848.7 1862.22 Q1852.71 1862.22 1855.05 1860.11 Q1857.38 1858.01 1857.38 1854.4 Q1857.38 1850.78 1855.05 1848.68 Q1852.71 1846.57 1848.7 1846.57 Q1846.83 1846.57 1844.95 1846.99 Q1843.1 1847.4 1841.16 1848.28 L1841.16 1830.92 Z" fill="#000000" fill-rule="evenodd" fill-opacity="1" /><path clip-path="url(#clip640)" d="M2339.12 1830.92 L2357.48 1830.92 L2357.48 1834.86 L2343.4 1834.86 L2343.4 1843.33 Q2344.42 1842.98 2345.44 1842.82 Q2346.46 1842.64 2347.48 1842.64 Q2353.26 1842.64 2356.64 1845.81 Q2360.02 1848.98 2360.02 1854.4 Q2360.02 1859.97 2356.55 1863.08 Q2353.08 1866.15 2346.76 1866.15 Q2344.58 1866.15 2342.31 1865.78 Q2340.07 1865.41 2337.66 1864.67 L2337.66 1859.97 Q2339.75 1861.11 2341.97 1861.66 Q2344.19 1862.22 2346.67 1862.22 Q2350.67 1862.22 2353.01 1860.11 Q2355.35 1858.01 2355.35 1854.4 Q2355.35 1850.78 2353.01 1848.68 Q2350.67 1846.57 2346.67 1846.57 Q2344.79 1846.57 2342.92 1846.99 Q2341.06 1847.4 2339.12 1848.28 L2339.12 1830.92 Z" fill="#000000" fill-rule="evenodd" fill-opacity="1" /><path clip-path="url(#clip640)" d="M2369.24 1859.6 L2374.12 1859.6 L2374.12 1865.48 L2369.24 1865.48 L2369.24 1859.6 Z" fill="#000000" fill-rule="evenodd" fill-opacity="1" /><path clip-path="url(#clip640)" d="M2394.31 1834 Q2390.69 1834 2388.87 1837.57 Q2387.06 1841.11 2387.06 1848.24 Q2387.06 1855.34 2388.87 1858.91 Q2390.69 1862.45 2394.31 1862.45 Q2397.94 1862.45 2399.75 1858.91 Q2401.57 1855.34 2401.57 1848.24 Q2401.57 1841.11 2399.75 1837.57 Q2397.94 1834 2394.31 1834 M2394.31 1830.3 Q2400.12 1830.3 2403.17 1834.9 Q2406.25 1839.49 2406.25 1848.24 Q2406.25 1856.96 2403.17 1861.57 Q2400.12 1866.15 2394.31 1866.15 Q2388.5 1866.15 2385.42 1861.57 Q2382.36 1856.96 2382.36 1848.24 Q2382.36 1839.49 2385.42 1834.9 Q2388.5 1830.3 2394.31 1830.3 Z" fill="#000000" fill-rule="evenodd" fill-opacity="1" /><polyline clip-path="url(#clip642)" style="stroke:#000000; stroke-linecap:butt; stroke-linejoin:round; stroke-width:2; stroke-opacity:0.1; fill:none" points="
  196.816,1800.78 2371.96,1800.78 
  "/>
<polyline clip-path="url(#clip642)" style="stroke:#000000; stroke-linecap:butt; stroke-linejoin:round; stroke-width:2; stroke-opacity:0.1; fill:none" points="
  196.816,1362.4 2371.96,1362.4 
  "/>
<polyline clip-path="url(#clip642)" style="stroke:#000000; stroke-linecap:butt; stroke-linejoin:round; stroke-width:2; stroke-opacity:0.1; fill:none" points="
  196.816,924.012 2371.96,924.012 
  "/>
<polyline clip-path="url(#clip642)" style="stroke:#000000; stroke-linecap:butt; stroke-linejoin:round; stroke-width:2; stroke-opacity:0.1; fill:none" points="
  196.816,485.628 2371.96,485.628 
  "/>
<polyline clip-path="url(#clip642)" style="stroke:#000000; stroke-linecap:butt; stroke-linejoin:round; stroke-width:2; stroke-opacity:0.1; fill:none" points="
  196.816,47.2441 2371.96,47.2441 
  "/>
<polyline clip-path="url(#clip640)" style="stroke:#000000; stroke-linecap:butt; stroke-linejoin:round; stroke-width:4; stroke-opacity:1; fill:none" points="
  196.816,1800.78 196.816,47.2441 
  "/>
<polyline clip-path="url(#clip640)" style="stroke:#000000; stroke-linecap:butt; stroke-linejoin:round; stroke-width:4; stroke-opacity:1; fill:none" points="
  196.816,1800.78 213.635,1800.78 
  "/>
<polyline clip-path="url(#clip640)" style="stroke:#000000; stroke-linecap:butt; stroke-linejoin:round; stroke-width:4; stroke-opacity:1; fill:none" points="
  196.816,1362.4 213.635,1362.4 
  "/>
<polyline clip-path="url(#clip640)" style="stroke:#000000; stroke-linecap:butt; stroke-linejoin:round; stroke-width:4; stroke-opacity:1; fill:none" points="
  196.816,924.012 213.635,924.012 
  "/>
<polyline clip-path="url(#clip640)" style="stroke:#000000; stroke-linecap:butt; stroke-linejoin:round; stroke-width:4; stroke-opacity:1; fill:none" points="
  196.816,485.628 213.635,485.628 
  "/>
<polyline clip-path="url(#clip640)" style="stroke:#000000; stroke-linecap:butt; stroke-linejoin:round; stroke-width:4; stroke-opacity:1; fill:none" points="
  196.816,47.2441 213.635,47.2441 
  "/>
<path clip-path="url(#clip640)" d="M49.5521 1801.23 L79.2279 1801.23 L79.2279 1805.17 L49.5521 1805.17 L49.5521 1801.23 Z" fill="#000000" fill-rule="evenodd" fill-opacity="1" /><path clip-path="url(#clip640)" d="M89.3667 1783.5 L107.723 1783.5 L107.723 1787.43 L93.6491 1787.43 L93.6491 1795.91 Q94.6676 1795.56 95.6861 1795.4 Q96.7047 1795.21 97.7232 1795.21 Q103.51 1795.21 106.89 1798.38 Q110.269 1801.55 110.269 1806.97 Q110.269 1812.55 106.797 1815.65 Q103.325 1818.73 97.0056 1818.73 Q94.8297 1818.73 92.5612 1818.36 Q90.3158 1817.99 87.9084 1817.25 L87.9084 1812.55 Q89.9917 1813.68 92.2139 1814.24 Q94.4361 1814.8 96.913 1814.8 Q100.918 1814.8 103.256 1812.69 Q105.593 1810.58 105.593 1806.97 Q105.593 1803.36 103.256 1801.25 Q100.918 1799.15 96.913 1799.15 Q95.038 1799.15 93.163 1799.56 Q91.3112 1799.98 89.3667 1800.86 L89.3667 1783.5 Z" fill="#000000" fill-rule="evenodd" fill-opacity="1" /><path clip-path="url(#clip640)" d="M119.482 1812.18 L124.367 1812.18 L124.367 1818.06 L119.482 1818.06 L119.482 1812.18 Z" fill="#000000" fill-rule="evenodd" fill-opacity="1" /><path clip-path="url(#clip640)" d="M144.552 1786.58 Q140.941 1786.58 139.112 1790.14 Q137.306 1793.68 137.306 1800.81 Q137.306 1807.92 139.112 1811.49 Q140.941 1815.03 144.552 1815.03 Q148.186 1815.03 149.991 1811.49 Q151.82 1807.92 151.82 1800.81 Q151.82 1793.68 149.991 1790.14 Q148.186 1786.58 144.552 1786.58 M144.552 1782.87 Q150.362 1782.87 153.417 1787.48 Q156.496 1792.06 156.496 1800.81 Q156.496 1809.54 153.417 1814.15 Q150.362 1818.73 144.552 1818.73 Q138.741 1818.73 135.663 1814.15 Q132.607 1809.54 132.607 1800.81 Q132.607 1792.06 135.663 1787.48 Q138.741 1782.87 144.552 1782.87 Z" fill="#000000" fill-rule="evenodd" fill-opacity="1" /><path clip-path="url(#clip640)" d="M50.5475 1362.85 L80.2233 1362.85 L80.2233 1366.78 L50.5475 1366.78 L50.5475 1362.85 Z" fill="#000000" fill-rule="evenodd" fill-opacity="1" /><path clip-path="url(#clip640)" d="M94.3436 1375.74 L110.663 1375.74 L110.663 1379.68 L88.7186 1379.68 L88.7186 1375.74 Q91.3806 1372.99 95.9639 1368.36 Q100.57 1363.7 101.751 1362.36 Q103.996 1359.84 104.876 1358.1 Q105.779 1356.34 105.779 1354.65 Q105.779 1351.9 103.834 1350.16 Q101.913 1348.43 98.8111 1348.43 Q96.6121 1348.43 94.1584 1349.19 Q91.7278 1349.95 88.9501 1351.5 L88.9501 1346.78 Q91.7741 1345.65 94.2278 1345.07 Q96.6815 1344.49 98.7185 1344.49 Q104.089 1344.49 107.283 1347.18 Q110.478 1349.86 110.478 1354.35 Q110.478 1356.48 109.668 1358.4 Q108.881 1360.3 106.774 1362.89 Q106.195 1363.56 103.094 1366.78 Q99.9917 1369.98 94.3436 1375.74 Z" fill="#000000" fill-rule="evenodd" fill-opacity="1" /><path clip-path="url(#clip640)" d="M120.478 1373.8 L125.362 1373.8 L125.362 1379.68 L120.478 1379.68 L120.478 1373.8 Z" fill="#000000" fill-rule="evenodd" fill-opacity="1" /><path clip-path="url(#clip640)" d="M135.593 1345.12 L153.95 1345.12 L153.95 1349.05 L139.876 1349.05 L139.876 1357.52 Q140.894 1357.18 141.913 1357.01 Q142.931 1356.83 143.95 1356.83 Q149.737 1356.83 153.116 1360 Q156.496 1363.17 156.496 1368.59 Q156.496 1374.17 153.024 1377.27 Q149.552 1380.35 143.232 1380.35 Q141.056 1380.35 138.788 1379.98 Q136.542 1379.61 134.135 1378.87 L134.135 1374.17 Q136.218 1375.3 138.441 1375.86 Q140.663 1376.41 143.14 1376.41 Q147.144 1376.41 149.482 1374.31 Q151.82 1372.2 151.82 1368.59 Q151.82 1364.98 149.482 1362.87 Q147.144 1360.76 143.14 1360.76 Q141.265 1360.76 139.39 1361.18 Q137.538 1361.6 135.593 1362.48 L135.593 1345.12 Z" fill="#000000" fill-rule="evenodd" fill-opacity="1" /><path clip-path="url(#clip640)" d="M99.3204 909.81 Q95.7093 909.81 93.8806 913.375 Q92.075 916.917 92.075 924.046 Q92.075 931.153 93.8806 934.718 Q95.7093 938.259 99.3204 938.259 Q102.955 938.259 104.76 934.718 Q106.589 931.153 106.589 924.046 Q106.589 916.917 104.76 913.375 Q102.955 909.81 99.3204 909.81 M99.3204 906.107 Q105.131 906.107 108.186 910.713 Q111.265 915.296 111.265 924.046 Q111.265 932.773 108.186 937.38 Q105.131 941.963 99.3204 941.963 Q93.5102 941.963 90.4315 937.38 Q87.376 932.773 87.376 924.046 Q87.376 915.296 90.4315 910.713 Q93.5102 906.107 99.3204 906.107 Z" fill="#000000" fill-rule="evenodd" fill-opacity="1" /><path clip-path="url(#clip640)" d="M119.482 935.412 L124.367 935.412 L124.367 941.292 L119.482 941.292 L119.482 935.412 Z" fill="#000000" fill-rule="evenodd" fill-opacity="1" /><path clip-path="url(#clip640)" d="M144.552 909.81 Q140.941 909.81 139.112 913.375 Q137.306 916.917 137.306 924.046 Q137.306 931.153 139.112 934.718 Q140.941 938.259 144.552 938.259 Q148.186 938.259 149.991 934.718 Q151.82 931.153 151.82 924.046 Q151.82 916.917 149.991 913.375 Q148.186 909.81 144.552 909.81 M144.552 906.107 Q150.362 906.107 153.417 910.713 Q156.496 915.296 156.496 924.046 Q156.496 932.773 153.417 937.38 Q150.362 941.963 144.552 941.963 Q138.741 941.963 135.663 937.38 Q132.607 932.773 132.607 924.046 Q132.607 915.296 135.663 910.713 Q138.741 906.107 144.552 906.107 Z" fill="#000000" fill-rule="evenodd" fill-opacity="1" /><path clip-path="url(#clip640)" d="M94.3436 498.973 L110.663 498.973 L110.663 502.908 L88.7186 502.908 L88.7186 498.973 Q91.3806 496.218 95.9639 491.589 Q100.57 486.936 101.751 485.593 Q103.996 483.07 104.876 481.334 Q105.779 479.575 105.779 477.885 Q105.779 475.13 103.834 473.394 Q101.913 471.658 98.8111 471.658 Q96.6121 471.658 94.1584 472.422 Q91.7278 473.186 88.9501 474.737 L88.9501 470.015 Q91.7741 468.88 94.2278 468.302 Q96.6815 467.723 98.7185 467.723 Q104.089 467.723 107.283 470.408 Q110.478 473.093 110.478 477.584 Q110.478 479.714 109.668 481.635 Q108.881 483.533 106.774 486.126 Q106.195 486.797 103.094 490.014 Q99.9917 493.209 94.3436 498.973 Z" fill="#000000" fill-rule="evenodd" fill-opacity="1" /><path clip-path="url(#clip640)" d="M120.478 497.028 L125.362 497.028 L125.362 502.908 L120.478 502.908 L120.478 497.028 Z" fill="#000000" fill-rule="evenodd" fill-opacity="1" /><path clip-path="url(#clip640)" d="M135.593 468.348 L153.95 468.348 L153.95 472.283 L139.876 472.283 L139.876 480.755 Q140.894 480.408 141.913 480.246 Q142.931 480.061 143.95 480.061 Q149.737 480.061 153.116 483.232 Q156.496 486.403 156.496 491.82 Q156.496 497.399 153.024 500.501 Q149.552 503.579 143.232 503.579 Q141.056 503.579 138.788 503.209 Q136.542 502.838 134.135 502.098 L134.135 497.399 Q136.218 498.533 138.441 499.088 Q140.663 499.644 143.14 499.644 Q147.144 499.644 149.482 497.538 Q151.82 495.431 151.82 491.82 Q151.82 488.209 149.482 486.102 Q147.144 483.996 143.14 483.996 Q141.265 483.996 139.39 484.413 Q137.538 484.829 135.593 485.709 L135.593 468.348 Z" fill="#000000" fill-rule="evenodd" fill-opacity="1" /><path clip-path="url(#clip640)" d="M89.3667 29.9641 L107.723 29.9641 L107.723 33.8993 L93.6491 33.8993 L93.6491 42.3714 Q94.6676 42.0242 95.6861 41.8622 Q96.7047 41.677 97.7232 41.677 Q103.51 41.677 106.89 44.8483 Q110.269 48.0196 110.269 53.4362 Q110.269 59.0149 106.797 62.1167 Q103.325 65.1954 97.0056 65.1954 Q94.8297 65.1954 92.5612 64.825 Q90.3158 64.4547 87.9084 63.7139 L87.9084 59.0149 Q89.9917 60.1491 92.2139 60.7047 Q94.4361 61.2602 96.913 61.2602 Q100.918 61.2602 103.256 59.1538 Q105.593 57.0473 105.593 53.4362 Q105.593 49.8251 103.256 47.7186 Q100.918 45.6122 96.913 45.6122 Q95.038 45.6122 93.163 46.0288 Q91.3112 46.4455 89.3667 47.3251 L89.3667 29.9641 Z" fill="#000000" fill-rule="evenodd" fill-opacity="1" /><path clip-path="url(#clip640)" d="M119.482 58.6445 L124.367 58.6445 L124.367 64.5241 L119.482 64.5241 L119.482 58.6445 Z" fill="#000000" fill-rule="evenodd" fill-opacity="1" /><path clip-path="url(#clip640)" d="M144.552 33.0428 Q140.941 33.0428 139.112 36.6076 Q137.306 40.1492 137.306 47.2788 Q137.306 54.3853 139.112 57.9501 Q140.941 61.4917 144.552 61.4917 Q148.186 61.4917 149.991 57.9501 Q151.82 54.3853 151.82 47.2788 Q151.82 40.1492 149.991 36.6076 Q148.186 33.0428 144.552 33.0428 M144.552 29.3391 Q150.362 29.3391 153.417 33.9456 Q156.496 38.5289 156.496 47.2788 Q156.496 56.0056 153.417 60.6121 Q150.362 65.1954 144.552 65.1954 Q138.741 65.1954 135.663 60.6121 Q132.607 56.0056 132.607 47.2788 Q132.607 38.5289 135.663 33.9456 Q138.741 29.3391 144.552 29.3391 Z" fill="#000000" fill-rule="evenodd" fill-opacity="1" /><polyline clip-path="url(#clip642)" style="stroke:#b53357; stroke-linecap:butt; stroke-linejoin:round; stroke-width:4; stroke-opacity:1; fill:none" points="
  196.816,1791.55 207.567,1783.07 218.787,1773.64 229.288,1765.35 240.758,1755.71 250.998,1747.64 262.729,1737.77 272.696,1729.93 284.7,1719.83 294.379,1712.22 
  306.672,1701.87 316.048,1694.5 328.643,1683.9 337.701,1676.79 350.614,1665.91 359.336,1659.08 372.585,1647.91 380.953,1641.37 394.556,1629.89 402.549,1623.65 
  416.527,1611.86 424.122,1605.94 438.498,1593.81 445.671,1588.23 460.469,1575.74 467.192,1570.52 482.44,1557.64 488.684,1552.8 504.412,1539.52 510.142,1535.09 
  526.383,1521.37 531.562,1517.38 548.354,1503.19 552.941,1499.67 570.325,1484.98 574.274,1481.95 592.296,1466.73 595.553,1464.24 614.267,1448.43 616.772,1446.53 
  636.238,1430.09 637.922,1428.82 658.209,1411.69 658.992,1411.1 679.994,1393.39 680.18,1393.21 700.993,1375.68 702.152,1374.58 721.892,1357.97 724.123,1355.83 
  742.67,1340.25 746.094,1336.96 763.306,1322.54 768.065,1317.94 783.769,1304.83 790.036,1298.75 804.02,1287.12 812.007,1279.33 824.004,1269.4 833.978,1259.64 
  843.648,1251.69 855.949,1239.59 862.846,1233.98 877.92,1219.1 881.441,1216.27 899.331,1198.56 899.892,1197.86 917.056,1180.84 921.863,1174.73 933.58,1163.13 
  943.834,1149.74 948.226,1145.42 961.383,1127.71 965.805,1119.14 972.364,1109.99 980.55,1092.28 985.186,1074.57 987.135,1056.86 987.162,1039.14 985.939,1021.43 
  984.042,1003.72 981.949,986.005 980.044,968.293 978.614,950.58 977.851,932.868 977.851,915.155 978.614,897.443 980.044,879.731 981.949,862.018 984.042,844.306 
  985.939,826.593 987.162,808.881 987.135,791.168 985.186,773.456 980.55,755.743 972.364,738.031 965.805,728.879 961.383,720.318 948.226,702.606 943.834,698.282 
  933.58,684.893 921.863,673.292 917.056,667.181 899.892,650.164 899.331,649.468 881.441,631.756 877.92,628.926 862.846,614.043 855.949,608.43 843.648,596.331 
  833.978,588.388 824.004,578.618 812.007,568.695 804.02,560.906 790.036,549.277 783.769,543.193 768.065,530.079 763.306,525.481 746.094,511.062 742.67,507.768 
  724.123,492.193 721.892,490.056 702.152,473.448 700.993,472.344 680.18,454.809 679.994,454.631 658.992,436.919 658.209,436.329 637.922,419.206 636.238,417.933 
  616.772,401.494 614.267,399.59 595.553,383.781 592.296,381.296 574.274,366.069 570.325,363.045 552.941,348.356 548.354,344.832 531.562,330.644 526.383,326.653 
  510.142,312.931 504.412,308.504 488.684,295.219 482.44,290.383 467.192,277.506 460.469,272.288 445.671,259.794 438.498,254.215 424.122,242.081 416.527,236.162 
  402.549,224.369 394.556,218.129 380.953,206.656 372.585,200.113 359.336,188.944 350.614,182.113 337.701,171.231 328.643,164.128 316.048,153.519 306.672,146.156 
  294.379,135.806 284.7,128.197 272.696,118.094 262.729,110.25 250.998,100.382 240.758,92.3135 229.288,82.669 218.787,74.3871 207.567,64.9566 196.816,56.4703 
  
  "/>
<polyline clip-path="url(#clip642)" style="stroke:#b53357; stroke-linecap:butt; stroke-linejoin:round; stroke-width:4; stroke-opacity:1; fill:none" points="
  2371.96,1791.55 2361.21,1783.07 2349.98,1773.64 2339.48,1765.35 2328.01,1755.71 2317.77,1747.64 2306.04,1737.77 2296.08,1729.93 2284.07,1719.83 2274.39,1712.22 
  2262.1,1701.87 2252.72,1694.5 2240.13,1683.9 2231.07,1676.79 2218.16,1665.91 2209.44,1659.08 2196.19,1647.91 2187.82,1641.37 2174.22,1629.89 2166.22,1623.65 
  2152.24,1611.86 2144.65,1605.94 2130.27,1593.81 2123.1,1588.23 2108.3,1575.74 2101.58,1570.52 2086.33,1557.64 2080.09,1552.8 2064.36,1539.52 2058.63,1535.09 
  2042.39,1521.37 2037.21,1517.38 2020.42,1503.19 2015.83,1499.67 1998.45,1484.98 1994.5,1481.95 1976.48,1466.73 1973.22,1464.24 1954.5,1448.43 1952,1446.53 
  1932.53,1430.09 1930.85,1428.82 1910.56,1411.69 1909.78,1411.1 1888.78,1393.39 1888.59,1393.21 1867.78,1375.68 1866.62,1374.58 1846.88,1357.97 1844.65,1355.83 
  1826.1,1340.25 1822.68,1336.96 1805.47,1322.54 1800.71,1317.94 1785,1304.83 1778.74,1298.75 1764.75,1287.12 1756.76,1279.33 1744.77,1269.4 1734.79,1259.64 
  1725.12,1251.69 1712.82,1239.59 1705.93,1233.98 1690.85,1219.1 1687.33,1216.27 1669.44,1198.56 1668.88,1197.86 1651.72,1180.84 1646.91,1174.73 1635.19,1163.13 
  1624.94,1149.74 1620.55,1145.42 1607.39,1127.71 1602.97,1119.14 1596.41,1109.99 1588.22,1092.28 1583.59,1074.57 1581.64,1056.86 1581.61,1039.14 1582.83,1021.43 
  1584.73,1003.72 1586.82,986.005 1588.73,968.293 1590.16,950.58 1590.92,932.868 1590.92,915.155 1590.16,897.443 1588.73,879.731 1586.82,862.018 1584.73,844.306 
  1582.83,826.593 1581.61,808.881 1581.64,791.168 1583.59,773.456 1588.22,755.743 1596.41,738.031 1602.97,728.879 1607.39,720.318 1620.55,702.606 1624.94,698.282 
  1635.19,684.893 1646.91,673.292 1651.72,667.181 1668.88,650.164 1669.44,649.468 1687.33,631.756 1690.85,628.926 1705.93,614.043 1712.82,608.43 1725.12,596.331 
  1734.79,588.388 1744.77,578.618 1756.76,568.695 1764.75,560.906 1778.74,549.277 1785,543.193 1800.71,530.079 1805.47,525.481 1822.68,511.062 1826.1,507.768 
  1844.65,492.193 1846.88,490.056 1866.62,473.448 1867.78,472.344 1888.59,454.809 1888.78,454.631 1909.78,436.919 1910.56,436.329 1930.85,419.206 1932.53,417.933 
  1952,401.494 1954.5,399.59 1973.22,383.781 1976.48,381.296 1994.5,366.069 1998.45,363.045 2015.83,348.356 2020.42,344.832 2037.21,330.644 2042.39,326.653 
  2058.63,312.931 2064.36,308.504 2080.09,295.219 2086.33,290.383 2101.58,277.506 2108.3,272.288 2123.1,259.794 2130.27,254.215 2144.65,242.081 2152.24,236.162 
  2166.22,224.369 2174.22,218.129 2187.82,206.656 2196.19,200.113 2209.44,188.944 2218.16,182.113 2231.07,171.231 2240.13,164.128 2252.72,153.519 2262.1,146.156 
  2274.39,135.806 2284.07,128.197 2296.08,118.094 2306.04,110.25 2317.77,100.382 2328.01,92.3135 2339.48,82.669 2349.98,74.3871 2361.21,64.9566 2371.96,56.4703 
  
  "/>
<polyline clip-path="url(#clip642)" style="stroke:#b53357; stroke-linecap:butt; stroke-linejoin:round; stroke-width:4; stroke-opacity:1; fill:none" points="
  1362.93,791.168 1363.04,808.881 1361.28,814.937 1357.13,826.593 1347.33,844.306 1339.31,857.438 1335.34,862.018 1321.37,879.731 1317.34,886.534 1304.82,897.443 
  1295.37,912.883 1273.4,912.883 1263.95,897.443 1251.43,886.534 1247.4,879.731 1233.43,862.018 1229.46,857.438 1221.44,844.306 1211.64,826.593 1207.49,814.937 
  1205.73,808.881 1205.84,791.168 1207.49,787.617 1215.53,773.456 1229.46,763.155 1243.69,755.743 1251.43,753.459 1273.4,750.114 1295.37,750.114 1317.34,753.459 
  1325.09,755.743 1339.31,763.155 1353.24,773.456 1361.28,787.617 1362.93,791.168 
  "/>
<polyline clip-path="url(#clip642)" style="stroke:#b53357; stroke-linecap:butt; stroke-linejoin:round; stroke-width:4; stroke-opacity:1; fill:none" points="
  1263.95,950.58 1251.43,961.49 1247.4,968.293 1233.43,986.005 1229.46,990.585 1221.44,1003.72 1211.64,1021.43 1207.49,1033.09 1205.73,1039.14 1205.84,1056.86 
  1207.49,1060.41 1215.53,1074.57 1229.46,1084.87 1243.69,1092.28 1251.43,1094.56 1273.4,1097.91 1295.37,1097.91 1317.34,1094.56 1325.09,1092.28 1339.31,1084.87 
  1353.24,1074.57 1361.28,1060.41 1362.93,1056.86 1363.04,1039.14 1361.28,1033.09 1357.13,1021.43 1347.33,1003.72 1339.31,990.585 1335.34,986.005 1321.37,968.293 
  1317.34,961.49 1304.82,950.58 1295.37,935.14 1273.4,935.14 1263.95,950.58 
  "/>
<defs>
  <clipPath id="clip643">
    <rect x="2425" y="47" width="82" height="1755"/>
  </clipPath>
</defs>
<polyline clip-path="url(#clip643)" style="stroke:#b73456; stroke-linecap:butt; stroke-linejoin:round; stroke-width:4; stroke-opacity:1; fill:none" points="
  2425.72,943.205 2506.36,943.205 
  "/>
<path clip-path="url(#clip640)" d="M2546.68 1685.43 L2576.35 1685.43 L2576.35 1689.36 L2546.68 1689.36 L2546.68 1685.43 Z" fill="#000000" fill-rule="evenodd" fill-opacity="1" /><path clip-path="url(#clip640)" d="M2586.49 1667.7 L2604.85 1667.7 L2604.85 1671.63 L2590.77 1671.63 L2590.77 1680.1 Q2591.79 1679.76 2592.81 1679.59 Q2593.83 1679.41 2594.85 1679.41 Q2600.63 1679.41 2604.01 1682.58 Q2607.39 1685.75 2607.39 1691.17 Q2607.39 1696.75 2603.92 1699.85 Q2600.45 1702.93 2594.13 1702.93 Q2591.95 1702.93 2589.68 1702.56 Q2587.44 1702.19 2585.03 1701.44 L2585.03 1696.75 Q2587.12 1697.88 2589.34 1698.44 Q2591.56 1698.99 2594.04 1698.99 Q2598.04 1698.99 2600.38 1696.88 Q2602.72 1694.78 2602.72 1691.17 Q2602.72 1687.56 2600.38 1685.45 Q2598.04 1683.34 2594.04 1683.34 Q2592.16 1683.34 2590.29 1683.76 Q2588.43 1684.18 2586.49 1685.06 L2586.49 1667.7 Z" fill="#000000" fill-rule="evenodd" fill-opacity="1" /><path clip-path="url(#clip640)" d="M2626.61 1670.77 Q2622.99 1670.77 2621.17 1674.34 Q2619.36 1677.88 2619.36 1685.01 Q2619.36 1692.12 2621.17 1695.68 Q2622.99 1699.22 2626.61 1699.22 Q2630.24 1699.22 2632.05 1695.68 Q2633.87 1692.12 2633.87 1685.01 Q2633.87 1677.88 2632.05 1674.34 Q2630.24 1670.77 2626.61 1670.77 M2626.61 1667.07 Q2632.42 1667.07 2635.47 1671.68 Q2638.55 1676.26 2638.55 1685.01 Q2638.55 1693.74 2635.47 1698.34 Q2632.42 1702.93 2626.61 1702.93 Q2620.8 1702.93 2617.72 1698.34 Q2614.66 1693.74 2614.66 1685.01 Q2614.66 1676.26 2617.72 1671.68 Q2620.8 1667.07 2626.61 1667.07 Z" fill="#000000" fill-rule="evenodd" fill-opacity="1" /><path clip-path="url(#clip640)" d="M2656.77 1670.77 Q2653.16 1670.77 2651.33 1674.34 Q2649.52 1677.88 2649.52 1685.01 Q2649.52 1692.12 2651.33 1695.68 Q2653.16 1699.22 2656.77 1699.22 Q2660.4 1699.22 2662.21 1695.68 Q2664.04 1692.12 2664.04 1685.01 Q2664.04 1677.88 2662.21 1674.34 Q2660.4 1670.77 2656.77 1670.77 M2656.77 1667.07 Q2662.58 1667.07 2665.63 1671.68 Q2668.71 1676.26 2668.71 1685.01 Q2668.71 1693.74 2665.63 1698.34 Q2662.58 1702.93 2656.77 1702.93 Q2650.96 1702.93 2647.88 1698.34 Q2644.82 1693.74 2644.82 1685.01 Q2644.82 1676.26 2647.88 1671.68 Q2650.96 1667.07 2656.77 1667.07 Z" fill="#000000" fill-rule="evenodd" fill-opacity="1" /><path clip-path="url(#clip640)" d="M2546.68 1312.73 L2576.35 1312.73 L2576.35 1316.66 L2546.68 1316.66 L2546.68 1312.73 Z" fill="#000000" fill-rule="evenodd" fill-opacity="1" /><path clip-path="url(#clip640)" d="M2590.47 1325.62 L2606.79 1325.62 L2606.79 1329.56 L2584.85 1329.56 L2584.85 1325.62 Q2587.51 1322.87 2592.09 1318.24 Q2596.7 1313.58 2597.88 1312.24 Q2600.12 1309.72 2601 1307.98 Q2601.91 1306.22 2601.91 1304.53 Q2601.91 1301.78 2599.96 1300.04 Q2598.04 1298.31 2594.94 1298.31 Q2592.74 1298.31 2590.29 1299.07 Q2587.86 1299.83 2585.08 1301.38 L2585.08 1296.66 Q2587.9 1295.53 2590.36 1294.95 Q2592.81 1294.37 2594.85 1294.37 Q2600.22 1294.37 2603.41 1297.06 Q2606.61 1299.74 2606.61 1304.23 Q2606.61 1306.36 2605.8 1308.28 Q2605.01 1310.18 2602.9 1312.77 Q2602.32 1313.44 2599.22 1316.66 Q2596.12 1319.86 2590.47 1325.62 Z" fill="#000000" fill-rule="evenodd" fill-opacity="1" /><path clip-path="url(#clip640)" d="M2616.65 1295 L2635.01 1295 L2635.01 1298.93 L2620.93 1298.93 L2620.93 1307.4 Q2621.95 1307.06 2622.97 1306.89 Q2623.99 1306.71 2625.01 1306.71 Q2630.8 1306.71 2634.18 1309.88 Q2637.56 1313.05 2637.56 1318.47 Q2637.56 1324.05 2634.08 1327.15 Q2630.61 1330.23 2624.29 1330.23 Q2622.12 1330.23 2619.85 1329.86 Q2617.6 1329.49 2615.19 1328.75 L2615.19 1324.05 Q2617.28 1325.18 2619.5 1325.74 Q2621.72 1326.29 2624.2 1326.29 Q2628.2 1326.29 2630.54 1324.19 Q2632.88 1322.08 2632.88 1318.47 Q2632.88 1314.86 2630.54 1312.75 Q2628.2 1310.64 2624.2 1310.64 Q2622.32 1310.64 2620.45 1311.06 Q2618.6 1311.48 2616.65 1312.36 L2616.65 1295 Z" fill="#000000" fill-rule="evenodd" fill-opacity="1" /><path clip-path="url(#clip640)" d="M2656.77 1298.07 Q2653.16 1298.07 2651.33 1301.64 Q2649.52 1305.18 2649.52 1312.31 Q2649.52 1319.42 2651.33 1322.98 Q2653.16 1326.52 2656.77 1326.52 Q2660.4 1326.52 2662.21 1322.98 Q2664.04 1319.42 2664.04 1312.31 Q2664.04 1305.18 2662.21 1301.64 Q2660.4 1298.07 2656.77 1298.07 M2656.77 1294.37 Q2662.58 1294.37 2665.63 1298.98 Q2668.71 1303.56 2668.71 1312.31 Q2668.71 1321.04 2665.63 1325.64 Q2662.58 1330.23 2656.77 1330.23 Q2650.96 1330.23 2647.88 1325.64 Q2644.82 1321.04 2644.82 1312.31 Q2644.82 1303.56 2647.88 1298.98 Q2650.96 1294.37 2656.77 1294.37 Z" fill="#000000" fill-rule="evenodd" fill-opacity="1" /><path clip-path="url(#clip640)" d="M2558.62 925.374 Q2555.01 925.374 2553.18 928.939 Q2551.37 932.481 2551.37 939.611 Q2551.37 946.717 2553.18 950.282 Q2555.01 953.823 2558.62 953.823 Q2562.25 953.823 2564.06 950.282 Q2565.89 946.717 2565.89 939.611 Q2565.89 932.481 2564.06 928.939 Q2562.25 925.374 2558.62 925.374 M2558.62 921.671 Q2564.43 921.671 2567.49 926.277 Q2570.56 930.861 2570.56 939.611 Q2570.56 948.337 2567.49 952.944 Q2564.43 957.527 2558.62 957.527 Q2552.81 957.527 2549.73 952.944 Q2546.68 948.337 2546.68 939.611 Q2546.68 930.861 2549.73 926.277 Q2552.81 921.671 2558.62 921.671 Z" fill="#000000" fill-rule="evenodd" fill-opacity="1" /><path clip-path="url(#clip640)" d="M2552.3 580.221 L2568.62 580.221 L2568.62 584.156 L2546.68 584.156 L2546.68 580.221 Q2549.34 577.466 2553.92 572.837 Q2558.53 568.184 2559.71 566.841 Q2561.95 564.318 2562.83 562.582 Q2563.74 560.823 2563.74 559.133 Q2563.74 556.379 2561.79 554.642 Q2559.87 552.906 2556.77 552.906 Q2554.57 552.906 2552.12 553.67 Q2549.69 554.434 2546.91 555.985 L2546.91 551.263 Q2549.73 550.129 2552.19 549.55 Q2554.64 548.971 2556.68 548.971 Q2562.05 548.971 2565.24 551.656 Q2568.44 554.342 2568.44 558.832 Q2568.44 560.962 2567.62 562.883 Q2566.84 564.781 2564.73 567.374 Q2564.15 568.045 2561.05 571.263 Q2557.95 574.457 2552.3 580.221 Z" fill="#000000" fill-rule="evenodd" fill-opacity="1" /><path clip-path="url(#clip640)" d="M2578.48 549.596 L2596.84 549.596 L2596.84 553.531 L2582.76 553.531 L2582.76 562.004 Q2583.78 561.656 2584.8 561.494 Q2585.82 561.309 2586.84 561.309 Q2592.62 561.309 2596 564.48 Q2599.38 567.652 2599.38 573.068 Q2599.38 578.647 2595.91 581.749 Q2592.44 584.827 2586.12 584.827 Q2583.94 584.827 2581.68 584.457 Q2579.43 584.087 2577.02 583.346 L2577.02 578.647 Q2579.11 579.781 2581.33 580.337 Q2583.55 580.892 2586.03 580.892 Q2590.03 580.892 2592.37 578.786 Q2594.71 576.679 2594.71 573.068 Q2594.71 569.457 2592.37 567.351 Q2590.03 565.244 2586.03 565.244 Q2584.15 565.244 2582.28 565.661 Q2580.43 566.078 2578.48 566.957 L2578.48 549.596 Z" fill="#000000" fill-rule="evenodd" fill-opacity="1" /><path clip-path="url(#clip640)" d="M2618.6 552.675 Q2614.99 552.675 2613.16 556.24 Q2611.35 559.781 2611.35 566.911 Q2611.35 574.017 2613.16 577.582 Q2614.99 581.124 2618.6 581.124 Q2622.23 581.124 2624.04 577.582 Q2625.87 574.017 2625.87 566.911 Q2625.87 559.781 2624.04 556.24 Q2622.23 552.675 2618.6 552.675 M2618.6 548.971 Q2624.41 548.971 2627.46 553.578 Q2630.54 558.161 2630.54 566.911 Q2630.54 575.638 2627.46 580.244 Q2624.41 584.827 2618.6 584.827 Q2612.79 584.827 2609.71 580.244 Q2606.65 575.638 2606.65 566.911 Q2606.65 558.161 2609.71 553.578 Q2612.79 548.971 2618.6 548.971 Z" fill="#000000" fill-rule="evenodd" fill-opacity="1" /><path clip-path="url(#clip640)" d="M2548.13 176.897 L2566.49 176.897 L2566.49 180.832 L2552.42 180.832 L2552.42 189.304 Q2553.44 188.957 2554.45 188.795 Q2555.47 188.609 2556.49 188.609 Q2562.28 188.609 2565.66 191.781 Q2569.04 194.952 2569.04 200.369 Q2569.04 205.947 2565.56 209.049 Q2562.09 212.128 2555.77 212.128 Q2553.6 212.128 2551.33 211.758 Q2549.08 211.387 2546.68 210.646 L2546.68 205.947 Q2548.76 207.082 2550.98 207.637 Q2553.2 208.193 2555.68 208.193 Q2559.69 208.193 2562.02 206.086 Q2564.36 203.98 2564.36 200.369 Q2564.36 196.758 2562.02 194.651 Q2559.69 192.545 2555.68 192.545 Q2553.81 192.545 2551.93 192.961 Q2550.08 193.378 2548.13 194.258 L2548.13 176.897 Z" fill="#000000" fill-rule="evenodd" fill-opacity="1" /><path clip-path="url(#clip640)" d="M2588.25 179.975 Q2584.64 179.975 2582.81 183.54 Q2581 187.082 2581 194.211 Q2581 201.318 2582.81 204.883 Q2584.64 208.424 2588.25 208.424 Q2591.88 208.424 2593.69 204.883 Q2595.52 201.318 2595.52 194.211 Q2595.52 187.082 2593.69 183.54 Q2591.88 179.975 2588.25 179.975 M2588.25 176.272 Q2594.06 176.272 2597.12 180.878 Q2600.19 185.461 2600.19 194.211 Q2600.19 202.938 2597.12 207.545 Q2594.06 212.128 2588.25 212.128 Q2582.44 212.128 2579.36 207.545 Q2576.31 202.938 2576.31 194.211 Q2576.31 185.461 2579.36 180.878 Q2582.44 176.272 2588.25 176.272 Z" fill="#000000" fill-rule="evenodd" fill-opacity="1" /><path clip-path="url(#clip640)" d="M2618.41 179.975 Q2614.8 179.975 2612.97 183.54 Q2611.17 187.082 2611.17 194.211 Q2611.17 201.318 2612.97 204.883 Q2614.8 208.424 2618.41 208.424 Q2622.05 208.424 2623.85 204.883 Q2625.68 201.318 2625.68 194.211 Q2625.68 187.082 2623.85 183.54 Q2622.05 179.975 2618.41 179.975 M2618.41 176.272 Q2624.22 176.272 2627.28 180.878 Q2630.36 185.461 2630.36 194.211 Q2630.36 202.938 2627.28 207.545 Q2624.22 212.128 2618.41 212.128 Q2612.6 212.128 2609.52 207.545 Q2606.47 202.938 2606.47 194.211 Q2606.47 185.461 2609.52 180.878 Q2612.6 176.272 2618.41 176.272 Z" fill="#000000" fill-rule="evenodd" fill-opacity="1" /><polyline clip-path="url(#clip640)" style="stroke:#000000; stroke-linecap:butt; stroke-linejoin:round; stroke-width:4; stroke-opacity:1; fill:none" points="
  2506.36,1800.78 2506.36,1688.6 2533.24,1688.6 2506.36,1688.6 2506.36,1315.9 2533.24,1315.9 2506.36,1315.9 2506.36,943.205 2533.24,943.205 2506.36,943.205 
  2506.36,570.505 2533.24,570.505 2506.36,570.505 2506.36,197.805 2533.24,197.805 2506.36,197.805 2506.36,47.2441 
  "/>
</svg>
