<?xml version="1.0" encoding="utf-8"?>
<svg xmlns="http://www.w3.org/2000/svg" xmlns:xlink="http://www.w3.org/1999/xlink" width="672" height="480" viewBox="0 0 2688 1920">
<defs>
  <clipPath id="clip730">
    <rect x="0" y="0" width="2688" height="1920"/>
  </clipPath>
</defs>
<path clip-path="url(#clip730)" d="
M0 1920 L2688 1920 L2688 0 L0 0  Z
  " fill="#ffffff" fill-rule="evenodd" fill-opacity="1"/>
<defs>
  <clipPath id="clip731">
    <rect x="537" y="0" width="1883" height="1883"/>
  </clipPath>
</defs>
<path clip-path="url(#clip730)" d="
M150.358 1800.78 L2371.96 1800.78 L2371.96 47.2441 L150.358 47.2441  Z
  " fill="#ffffff" fill-rule="evenodd" fill-opacity="1"/>
<defs>
  <clipPath id="clip732">
    <rect x="150" y="47" width="2223" height="1755"/>
  </clipPath>
</defs>
<polyline clip-path="url(#clip732)" style="stroke:#000000; stroke-linecap:butt; stroke-linejoin:round; stroke-width:2; stroke-opacity:0.1; fill:none" points="
  150.358,1800.78 150.358,47.2441 
  "/>
<polyline clip-path="url(#clip732)" style="stroke:#000000; stroke-linecap:butt; stroke-linejoin:round; stroke-width:2; stroke-opacity:0.1; fill:none" points="
  705.757,1800.78 705.757,47.2441 
  "/>
<polyline clip-path="url(#clip732)" style="stroke:#000000; stroke-linecap:butt; stroke-linejoin:round; stroke-width:2; stroke-opacity:0.1; fill:none" points="
  1261.16,1800.78 1261.16,47.2441 
  "/>
<polyline clip-path="url(#clip732)" style="stroke:#000000; stroke-linecap:butt; stroke-linejoin:round; stroke-width:2; stroke-opacity:0.1; fill:none" points="
  1816.56,1800.78 1816.56,47.2441 
  "/>
<polyline clip-path="url(#clip732)" style="stroke:#000000; stroke-linecap:butt; stroke-linejoin:round; stroke-width:2; stroke-opacity:0.1; fill:none" points="
  2371.96,1800.78 2371.96,47.2441 
  "/>
<polyline clip-path="url(#clip730)" style="stroke:#000000; stroke-linecap:butt; stroke-linejoin:round; stroke-width:4; stroke-opacity:1; fill:none" points="
  150.358,1800.78 2371.96,1800.78 
  "/>
<polyline clip-path="url(#clip730)" style="stroke:#000000; stroke-linecap:butt; stroke-linejoin:round; stroke-width:4; stroke-opacity:1; fill:none" points="
  150.358,1800.78 150.358,1781.88 
  "/>
<polyline clip-path="url(#clip730)" style="stroke:#000000; stroke-linecap:butt; stroke-linejoin:round; stroke-width:4; stroke-opacity:1; fill:none" points="
  705.757,1800.78 705.757,1781.88 
  "/>
<polyline clip-path="url(#clip730)" style="stroke:#000000; stroke-linecap:butt; stroke-linejoin:round; stroke-width:4; stroke-opacity:1; fill:none" points="
  1261.16,1800.78 1261.16,1781.88 
  "/>
<polyline clip-path="url(#clip730)" style="stroke:#000000; stroke-linecap:butt; stroke-linejoin:round; stroke-width:4; stroke-opacity:1; fill:none" points="
  1816.56,1800.78 1816.56,1781.88 
  "/>
<polyline clip-path="url(#clip730)" style="stroke:#000000; stroke-linecap:butt; stroke-linejoin:round; stroke-width:4; stroke-opacity:1; fill:none" points="
  2371.96,1800.78 2371.96,1781.88 
  "/>
<path clip-path="url(#clip730)" d="M120.3 1848.65 L149.976 1848.65 L149.976 1852.59 L120.3 1852.59 L120.3 1848.65 Z" fill="#000000" fill-rule="evenodd" fill-opacity="1" /><path clip-path="url(#clip730)" d="M164.096 1861.55 L180.416 1861.55 L180.416 1865.48 L158.471 1865.48 L158.471 1861.55 Q161.133 1858.79 165.717 1854.16 Q170.323 1849.51 171.504 1848.17 Q173.749 1845.65 174.629 1843.91 Q175.531 1842.15 175.531 1840.46 Q175.531 1837.71 173.587 1835.97 Q171.666 1834.23 168.564 1834.23 Q166.365 1834.23 163.911 1835 Q161.481 1835.76 158.703 1837.31 L158.703 1832.59 Q161.527 1831.46 163.981 1830.88 Q166.434 1830.3 168.471 1830.3 Q173.842 1830.3 177.036 1832.98 Q180.23 1835.67 180.23 1840.16 Q180.23 1842.29 179.42 1844.21 Q178.633 1846.11 176.527 1848.7 Q175.948 1849.37 172.846 1852.59 Q169.744 1855.78 164.096 1861.55 Z" fill="#000000" fill-rule="evenodd" fill-opacity="1" /><path clip-path="url(#clip730)" d="M675.515 1848.65 L705.19 1848.65 L705.19 1852.59 L675.515 1852.59 L675.515 1848.65 Z" fill="#000000" fill-rule="evenodd" fill-opacity="1" /><path clip-path="url(#clip730)" d="M716.093 1861.55 L723.732 1861.55 L723.732 1835.18 L715.422 1836.85 L715.422 1832.59 L723.686 1830.92 L728.361 1830.92 L728.361 1861.55 L736 1861.55 L736 1865.48 L716.093 1865.48 L716.093 1861.55 Z" fill="#000000" fill-rule="evenodd" fill-opacity="1" /><path clip-path="url(#clip730)" d="M1261.16 1834 Q1257.55 1834 1255.72 1837.57 Q1253.91 1841.11 1253.91 1848.24 Q1253.91 1855.34 1255.72 1858.91 Q1257.55 1862.45 1261.16 1862.45 Q1264.79 1862.45 1266.6 1858.91 Q1268.43 1855.34 1268.43 1848.24 Q1268.43 1841.11 1266.6 1837.57 Q1264.79 1834 1261.16 1834 M1261.16 1830.3 Q1266.97 1830.3 1270.02 1834.9 Q1273.1 1839.49 1273.1 1848.24 Q1273.1 1856.96 1270.02 1861.57 Q1266.97 1866.15 1261.16 1866.15 Q1255.35 1866.15 1252.27 1861.57 Q1249.21 1856.96 1249.21 1848.24 Q1249.21 1839.49 1252.27 1834.9 Q1255.35 1830.3 1261.16 1830.3 Z" fill="#000000" fill-rule="evenodd" fill-opacity="1" /><path clip-path="url(#clip730)" d="M1806.94 1861.55 L1814.58 1861.55 L1814.58 1835.18 L1806.27 1836.85 L1806.27 1832.59 L1814.53 1830.92 L1819.21 1830.92 L1819.21 1861.55 L1826.85 1861.55 L1826.85 1865.48 L1806.94 1865.48 L1806.94 1861.55 Z" fill="#000000" fill-rule="evenodd" fill-opacity="1" /><path clip-path="url(#clip730)" d="M2366.61 1861.55 L2382.93 1861.55 L2382.93 1865.48 L2360.98 1865.48 L2360.98 1861.55 Q2363.65 1858.79 2368.23 1854.16 Q2372.84 1849.51 2374.02 1848.17 Q2376.26 1845.65 2377.14 1843.91 Q2378.04 1842.15 2378.04 1840.46 Q2378.04 1837.71 2376.1 1835.97 Q2374.18 1834.23 2371.08 1834.23 Q2368.88 1834.23 2366.42 1835 Q2363.99 1835.76 2361.22 1837.31 L2361.22 1832.59 Q2364.04 1831.46 2366.49 1830.88 Q2368.95 1830.3 2370.98 1830.3 Q2376.35 1830.3 2379.55 1832.98 Q2382.74 1835.67 2382.74 1840.16 Q2382.74 1842.29 2381.93 1844.21 Q2381.15 1846.11 2379.04 1848.7 Q2378.46 1849.37 2375.36 1852.59 Q2372.26 1855.78 2366.61 1861.55 Z" fill="#000000" fill-rule="evenodd" fill-opacity="1" /><polyline clip-path="url(#clip732)" style="stroke:#000000; stroke-linecap:butt; stroke-linejoin:round; stroke-width:2; stroke-opacity:0.1; fill:none" points="
  150.358,1800.78 2371.96,1800.78 
  "/>
<polyline clip-path="url(#clip732)" style="stroke:#000000; stroke-linecap:butt; stroke-linejoin:round; stroke-width:2; stroke-opacity:0.1; fill:none" points="
  150.358,1362.4 2371.96,1362.4 
  "/>
<polyline clip-path="url(#clip732)" style="stroke:#000000; stroke-linecap:butt; stroke-linejoin:round; stroke-width:2; stroke-opacity:0.1; fill:none" points="
  150.358,924.012 2371.96,924.012 
  "/>
<polyline clip-path="url(#clip732)" style="stroke:#000000; stroke-linecap:butt; stroke-linejoin:round; stroke-width:2; stroke-opacity:0.1; fill:none" points="
  150.358,485.628 2371.96,485.628 
  "/>
<polyline clip-path="url(#clip732)" style="stroke:#000000; stroke-linecap:butt; stroke-linejoin:round; stroke-width:2; stroke-opacity:0.1; fill:none" points="
  150.358,47.2441 2371.96,47.2441 
  "/>
<polyline clip-path="url(#clip730)" style="stroke:#000000; stroke-linecap:butt; stroke-linejoin:round; stroke-width:4; stroke-opacity:1; fill:none" points="
  150.358,1800.78 150.358,47.2441 
  "/>
<polyline clip-path="url(#clip730)" style="stroke:#000000; stroke-linecap:butt; stroke-linejoin:round; stroke-width:4; stroke-opacity:1; fill:none" points="
  150.358,1800.78 167.216,1800.78 
  "/>
<polyline clip-path="url(#clip730)" style="stroke:#000000; stroke-linecap:butt; stroke-linejoin:round; stroke-width:4; stroke-opacity:1; fill:none" points="
  150.358,1362.4 167.216,1362.4 
  "/>
<polyline clip-path="url(#clip730)" style="stroke:#000000; stroke-linecap:butt; stroke-linejoin:round; stroke-width:4; stroke-opacity:1; fill:none" points="
  150.358,924.012 167.216,924.012 
  "/>
<polyline clip-path="url(#clip730)" style="stroke:#000000; stroke-linecap:butt; stroke-linejoin:round; stroke-width:4; stroke-opacity:1; fill:none" points="
  150.358,485.628 167.216,485.628 
  "/>
<polyline clip-path="url(#clip730)" style="stroke:#000000; stroke-linecap:butt; stroke-linejoin:round; stroke-width:4; stroke-opacity:1; fill:none" points="
  150.358,47.2441 167.216,47.2441 
  "/>
<path clip-path="url(#clip730)" d="M49.9225 1801.23 L79.5983 1801.23 L79.5983 1805.17 L49.9225 1805.17 L49.9225 1801.23 Z" fill="#000000" fill-rule="evenodd" fill-opacity="1" /><path clip-path="url(#clip730)" d="M93.7186 1814.12 L110.038 1814.12 L110.038 1818.06 L88.0936 1818.06 L88.0936 1814.12 Q90.7556 1811.37 95.3389 1806.74 Q99.9454 1802.09 101.126 1800.74 Q103.371 1798.22 104.251 1796.49 Q105.154 1794.73 105.154 1793.04 Q105.154 1790.28 103.209 1788.55 Q101.288 1786.81 98.1861 1786.81 Q95.9871 1786.81 93.5334 1787.57 Q91.1028 1788.34 88.3251 1789.89 L88.3251 1785.17 Q91.1491 1784.03 93.6028 1783.45 Q96.0565 1782.87 98.0935 1782.87 Q103.464 1782.87 106.658 1785.56 Q109.853 1788.24 109.853 1792.74 Q109.853 1794.86 109.043 1796.79 Q108.256 1798.68 106.149 1801.28 Q105.57 1801.95 102.469 1805.17 Q99.3667 1808.36 93.7186 1814.12 Z" fill="#000000" fill-rule="evenodd" fill-opacity="1" /><path clip-path="url(#clip730)" d="M49.5521 1362.85 L79.2279 1362.85 L79.2279 1366.78 L49.5521 1366.78 L49.5521 1362.85 Z" fill="#000000" fill-rule="evenodd" fill-opacity="1" /><path clip-path="url(#clip730)" d="M90.1306 1375.74 L97.7695 1375.74 L97.7695 1349.37 L89.4593 1351.04 L89.4593 1346.78 L97.7232 1345.12 L102.399 1345.12 L102.399 1375.74 L110.038 1375.74 L110.038 1379.68 L90.1306 1379.68 L90.1306 1375.74 Z" fill="#000000" fill-rule="evenodd" fill-opacity="1" /><path clip-path="url(#clip730)" d="M98.0935 909.81 Q94.4824 909.81 92.6537 913.375 Q90.8482 916.917 90.8482 924.046 Q90.8482 931.153 92.6537 934.718 Q94.4824 938.259 98.0935 938.259 Q101.728 938.259 103.533 934.718 Q105.362 931.153 105.362 924.046 Q105.362 916.917 103.533 913.375 Q101.728 909.81 98.0935 909.81 M98.0935 906.107 Q103.904 906.107 106.959 910.713 Q110.038 915.296 110.038 924.046 Q110.038 932.773 106.959 937.38 Q103.904 941.963 98.0935 941.963 Q92.2834 941.963 89.2047 937.38 Q86.1492 932.773 86.1492 924.046 Q86.1492 915.296 89.2047 910.713 Q92.2834 906.107 98.0935 906.107 Z" fill="#000000" fill-rule="evenodd" fill-opacity="1" /><path clip-path="url(#clip730)" d="M90.1306 498.973 L97.7695 498.973 L97.7695 472.607 L89.4593 474.274 L89.4593 470.015 L97.7232 468.348 L102.399 468.348 L102.399 498.973 L110.038 498.973 L110.038 502.908 L90.1306 502.908 L90.1306 498.973 Z" fill="#000000" fill-rule="evenodd" fill-opacity="1" /><path clip-path="url(#clip730)" d="M93.7186 60.5889 L110.038 60.5889 L110.038 64.5241 L88.0936 64.5241 L88.0936 60.5889 Q90.7556 57.8343 95.3389 53.2047 Q99.9454 48.552 101.126 47.2094 Q103.371 44.6862 104.251 42.9501 Q105.154 41.1909 105.154 39.5011 Q105.154 36.7465 103.209 35.0104 Q101.288 33.2743 98.1861 33.2743 Q95.9871 33.2743 93.5334 34.0381 Q91.1028 34.802 88.3251 36.3529 L88.3251 31.6308 Q91.1491 30.4965 93.6028 29.9178 Q96.0565 29.3391 98.0935 29.3391 Q103.464 29.3391 106.658 32.0243 Q109.853 34.7094 109.853 39.2002 Q109.853 41.3298 109.043 43.2511 Q108.256 45.1492 106.149 47.7418 Q105.57 48.4131 102.469 51.6306 Q99.3667 54.8251 93.7186 60.5889 Z" fill="#000000" fill-rule="evenodd" fill-opacity="1" /><polyline clip-path="url(#clip732)" style="stroke:#f1e864; stroke-linecap:butt; stroke-linejoin:round; stroke-width:4; stroke-opacity:1; fill:none" points="
  289.208,1800.78 285,1797 269.168,1783.07 262.56,1777.38 248.284,1765.35 240.119,1758.63 226.501,1747.64 217.679,1740.68 203.762,1729.93 195.239,1723.49 
  180,1712.22 172.798,1707 155.146,1694.5 150.358,1691.18 
  "/>
<polyline clip-path="url(#clip732)" style="stroke:#f8c931; stroke-linecap:butt; stroke-linejoin:round; stroke-width:4; stroke-opacity:1; fill:none" points="
  150.358,1581.59 161.466,1588.23 172.798,1595.15 190.029,1605.94 195.239,1609.27 217.146,1623.65 217.679,1624.01 240.119,1639.4 242.924,1641.37 262.56,1655.47 
  267.46,1659.08 285,1672.29 290.841,1676.79 307.441,1689.89 313.147,1694.5 329.881,1708.35 334.451,1712.22 352.321,1727.72 354.818,1729.93 374.309,1747.64 
  374.762,1748.06 392.98,1765.35 397.202,1769.47 410.88,1783.07 419.643,1792.01 428.058,1800.78 
  "/>
<polyline clip-path="url(#clip732)" style="stroke:#fbaa0e; stroke-linecap:butt; stroke-linejoin:round; stroke-width:4; stroke-opacity:1; fill:none" points="
  566.908,1800.78 554.285,1785.12 552.593,1783.07 537.676,1765.35 531.844,1758.63 522.117,1747.64 509.404,1733.71 505.875,1729.93 488.902,1712.22 486.964,1710.24 
  471.149,1694.5 464.523,1688.1 452.561,1676.79 442.083,1667.16 433.076,1659.08 419.643,1647.34 412.63,1641.37 397.202,1628.56 391.148,1623.65 374.762,1610.72 
  368.551,1605.94 352.321,1593.76 344.748,1588.23 329.881,1577.63 319.641,1570.52 307.441,1562.25 293.119,1552.8 285,1547.57 265.06,1535.09 262.56,1533.56 
  240.119,1520.17 235.326,1517.38 217.679,1507.34 203.762,1499.67 195.239,1495.06 172.798,1483.29 170.194,1481.95 150.358,1471.99 
  "/>
<polyline clip-path="url(#clip732)" style="stroke:#f98c09; stroke-linecap:butt; stroke-linejoin:round; stroke-width:4; stroke-opacity:1; fill:none" points="
  150.358,1362.4 172.798,1371.43 183.028,1375.68 195.239,1380.85 217.679,1390.68 223.713,1393.39 240.119,1400.93 261.438,1411.1 262.56,1411.65 285,1422.86 
  296.516,1428.82 307.441,1434.6 329.215,1446.53 329.881,1446.9 352.321,1459.81 359.771,1464.24 374.762,1473.38 388.386,1481.95 397.202,1487.65 415.241,1499.67 
  419.643,1502.68 440.492,1517.38 442.083,1518.53 464.279,1535.09 464.523,1535.28 486.727,1552.8 486.964,1553 507.944,1570.52 509.404,1571.77 528.03,1588.23 
  531.844,1591.7 547.072,1605.94 554.285,1612.9 565.15,1623.65 576.725,1635.49 582.335,1641.37 598.692,1659.08 599.166,1659.6 614.28,1676.79 621.606,1685.42 
  629.151,1694.5 643.353,1712.22 644.046,1713.1 656.931,1729.93 666.487,1742.88 669.925,1747.64 682.372,1765.35 688.927,1774.99 694.306,1783.07 705.757,1800.78 
  
  "/>
<polyline clip-path="url(#clip732)" style="stroke:#f0701e; stroke-linecap:butt; stroke-linejoin:round; stroke-width:4; stroke-opacity:1; fill:none" points="
  844.607,1800.78 836.019,1783.07 827.068,1765.35 823.569,1758.63 817.733,1747.64 807.988,1729.93 801.129,1717.91 797.804,1712.22 787.152,1694.5 778.689,1680.99 
  775.999,1676.79 764.309,1659.08 756.248,1647.34 752.041,1641.37 739.152,1623.65 733.808,1616.56 725.593,1605.94 711.368,1588.3 711.311,1588.23 696.247,1570.52 
  688.927,1562.25 680.334,1552.8 666.487,1538.16 663.499,1535.09 645.658,1517.38 644.046,1515.83 626.72,1499.67 621.606,1495.06 606.579,1481.95 599.166,1475.71 
  585.117,1464.24 576.725,1457.62 562.201,1446.53 554.285,1440.68 537.676,1428.82 531.844,1424.78 511.368,1411.1 509.404,1409.83 486.964,1395.75 483.074,1393.39 
  464.523,1382.46 452.561,1375.68 442.083,1369.9 419.643,1358.01 419.557,1357.97 397.202,1346.74 383.744,1340.25 374.762,1336.04 352.321,1325.86 344.748,1322.54 
  329.881,1316.18 307.441,1306.95 302.124,1304.83 285,1298.15 262.56,1289.74 255.342,1287.12 240.119,1281.7 217.679,1274.01 203.762,1269.4 195.239,1266.64 
  172.798,1259.58 150.358,1252.8 
  "/>
<polyline clip-path="url(#clip732)" style="stroke:#e35832; stroke-linecap:butt; stroke-linejoin:round; stroke-width:4; stroke-opacity:1; fill:none" points="
  150.358,1143.2 161.466,1145.42 172.798,1147.72 195.239,1152.43 217.679,1157.35 240.119,1162.47 242.924,1163.13 262.56,1167.83 285,1173.44 307.441,1179.31 
  313.147,1180.84 329.881,1185.46 352.321,1191.91 374.309,1198.56 374.762,1198.7 397.202,1205.83 419.643,1213.35 428.058,1216.27 442.083,1221.27 464.523,1229.65 
  475.663,1233.98 486.964,1238.5 509.404,1247.89 518.122,1251.69 531.844,1257.86 554.285,1268.46 556.227,1269.4 576.725,1279.75 590.614,1287.12 599.166,1291.81 
  621.606,1304.71 621.802,1304.83 644.046,1318.56 650.217,1322.54 666.487,1333.45 676.215,1340.25 688.927,1349.5 700.09,1357.97 711.368,1366.87 722.093,1375.68 
  733.808,1385.71 742.435,1393.39 756.248,1406.23 761.297,1411.1 778.689,1428.66 778.836,1428.82 795.186,1446.53 801.129,1453.28 810.464,1464.24 823.569,1480.42 
  824.772,1481.95 838.199,1499.67 846.01,1510.5 850.824,1517.38 862.718,1535.09 868.45,1544.01 873.942,1552.8 884.55,1570.52 890.891,1581.59 894.593,1588.23 
  904.114,1605.94 913.153,1623.65 913.331,1624.01 921.746,1641.37 929.925,1659.08 935.771,1672.29 937.718,1676.79 945.154,1694.5 952.255,1712.22 958.212,1727.72 
  959.044,1729.93 965.541,1747.64 971.765,1765.35 977.731,1783.07 980.652,1792.01 983.457,1800.78 
  "/>
<polyline clip-path="url(#clip732)" style="stroke:#d04544; stroke-linecap:butt; stroke-linejoin:round; stroke-width:4; stroke-opacity:1; fill:none" points="
  1122.31,1800.78 1119.44,1783.07 1116.46,1765.35 1115.29,1758.63 1113.35,1747.64 1110.1,1729.93 1106.71,1712.22 1103.16,1694.5 1099.44,1676.79 1095.54,1659.08 
  1092.85,1647.34 1091.45,1641.37 1087.16,1623.65 1082.64,1605.94 1077.88,1588.23 1072.85,1570.52 1070.41,1562.25 1067.55,1552.8 1061.94,1535.09 1055.99,1517.38 
  1049.68,1499.67 1047.97,1495.06 1042.96,1481.95 1035.81,1464.24 1028.17,1446.53 1025.53,1440.68 1020,1428.82 1011.23,1411.1 1003.09,1395.75 1001.8,1393.39 
  991.625,1375.68 980.652,1358.01 980.623,1357.97 968.686,1340.25 958.212,1325.86 955.687,1322.54 941.479,1304.83 935.771,1298.15 925.885,1287.12 913.331,1274.01 
  908.692,1269.4 890.891,1252.8 889.64,1251.69 868.45,1234.01 868.41,1233.98 846.01,1217.25 844.607,1216.27 823.569,1202.22 817.733,1198.56 801.129,1188.65 
  787.152,1180.84 778.689,1176.34 756.248,1165.12 752.041,1163.13 733.808,1154.86 711.368,1145.44 711.311,1145.42 688.927,1136.76 666.487,1128.73 663.499,1127.71 
  644.046,1121.28 621.606,1114.36 606.579,1109.99 599.166,1107.91 576.725,1101.88 554.285,1096.23 537.676,1092.28 531.844,1090.93 509.404,1085.95 486.964,1081.26 
  464.523,1076.83 452.561,1074.57 442.083,1072.64 419.643,1068.68 397.202,1064.92 374.762,1061.35 352.321,1057.96 344.748,1056.86 329.881,1054.73 307.441,1051.66 
  285,1048.72 262.56,1045.92 240.119,1043.24 217.679,1040.68 203.762,1039.14 195.239,1038.22 172.798,1035.87 150.358,1033.61 
  "/>
<polyline clip-path="url(#clip732)" style="stroke:#ba3655; stroke-linecap:butt; stroke-linejoin:round; stroke-width:4; stroke-opacity:1; fill:none" points="
  150.358,924.012 172.798,924.012 195.239,924.012 217.679,924.012 240.119,924.012 262.56,924.012 285,924.012 307.441,924.012 329.881,924.012 352.321,924.012 
  374.762,924.012 397.202,924.012 419.643,924.012 442.083,924.012 464.523,924.012 486.964,924.012 509.404,924.012 531.844,924.012 554.285,924.012 576.725,924.012 
  599.166,924.012 621.606,924.012 644.046,924.012 666.487,924.012 688.927,924.012 711.368,924.012 733.808,924.012 756.248,924.012 778.689,924.012 801.129,924.012 
  823.569,924.012 846.01,924.012 868.45,924.012 890.891,924.012 913.331,924.012 935.771,924.012 958.212,924.012 980.652,924.012 1003.09,924.012 1025.53,924.012 
  1047.97,924.012 1070.41,924.012 1092.85,924.012 1115.29,924.012 1137.73,924.012 1160.18,924.012 1182.62,924.012 1205.06,924.012 1227.5,924.012 1249.94,924.012 
  1261.16,932.868 1261.16,950.58 1261.16,968.293 1261.16,986.005 1261.16,1003.72 1261.16,1021.43 1261.16,1039.14 1261.16,1056.86 1261.16,1074.57 1261.16,1092.28 
  1261.16,1109.99 1261.16,1127.71 1261.16,1145.42 1261.16,1163.13 1261.16,1180.84 1261.16,1198.56 1261.16,1216.27 1261.16,1233.98 1261.16,1251.69 1261.16,1269.4 
  1261.16,1287.12 1261.16,1304.83 1261.16,1322.54 1261.16,1340.25 1261.16,1357.97 1261.16,1375.68 1261.16,1393.39 1261.16,1411.1 1261.16,1428.82 1261.16,1446.53 
  1261.16,1464.24 1261.16,1481.95 1261.16,1499.67 1261.16,1517.38 1261.16,1535.09 1261.16,1552.8 1261.16,1570.52 1261.16,1588.23 1261.16,1605.94 1261.16,1623.65 
  1261.16,1641.37 1261.16,1659.08 1261.16,1676.79 1261.16,1694.5 1261.16,1712.22 1261.16,1729.93 1261.16,1747.64 1261.16,1765.35 1261.16,1783.07 1261.16,1800.78 
  
  "/>
<polyline clip-path="url(#clip732)" style="stroke:#a12b61; stroke-linecap:butt; stroke-linejoin:round; stroke-width:4; stroke-opacity:1; fill:none" points="
  1400.01,1800.78 1402.87,1783.07 1405.85,1765.35 1407.02,1758.63 1408.96,1747.64 1412.21,1729.93 1415.61,1712.22 1419.16,1694.5 1422.88,1676.79 1426.77,1659.08 
  1429.46,1647.34 1430.86,1641.37 1435.16,1623.65 1439.68,1605.94 1444.44,1588.23 1449.46,1570.52 1451.9,1562.25 1454.76,1552.8 1460.38,1535.09 1466.32,1517.38 
  1472.64,1499.67 1474.34,1495.06 1479.35,1481.95 1486.5,1464.24 1494.14,1446.53 1496.78,1440.68 1502.32,1428.82 1511.09,1411.1 1519.22,1395.75 1520.52,1393.39 
  1530.69,1375.68 1541.66,1358.01 1541.69,1357.97 1553.63,1340.25 1564.1,1325.86 1566.63,1322.54 1580.83,1304.83 1586.54,1298.15 1596.43,1287.12 1608.98,1274.01 
  1613.62,1269.4 1631.42,1252.8 1632.67,1251.69 1653.86,1234.01 1653.9,1233.98 1676.3,1217.25 1677.71,1216.27 1698.74,1202.22 1704.58,1198.56 1721.18,1188.65 
  1735.16,1180.84 1743.63,1176.34 1766.07,1165.12 1770.27,1163.13 1788.51,1154.86 1810.95,1145.44 1811,1145.42 1833.39,1136.76 1855.83,1128.73 1858.82,1127.71 
  1878.27,1121.28 1900.71,1114.36 1915.73,1109.99 1923.15,1107.91 1945.59,1101.88 1968.03,1096.23 1984.64,1092.28 1990.47,1090.93 2012.91,1085.95 2035.35,1081.26 
  2057.79,1076.83 2069.75,1074.57 2080.23,1072.64 2102.67,1068.68 2125.11,1064.92 2147.55,1061.35 2169.99,1057.96 2177.57,1056.86 2192.43,1054.73 2214.87,1051.66 
  2237.31,1048.72 2259.75,1045.92 2282.19,1043.24 2304.63,1040.68 2318.55,1039.14 2327.08,1038.22 2349.52,1035.87 2371.96,1033.61 
  "/>
<polyline clip-path="url(#clip732)" style="stroke:#ba3655; stroke-linecap:butt; stroke-linejoin:round; stroke-width:4; stroke-opacity:1; fill:none" points="
  2371.96,924.012 2349.52,924.012 2327.08,924.012 2304.63,924.012 2282.19,924.012 2259.75,924.012 2237.31,924.012 2214.87,924.012 2192.43,924.012 2169.99,924.012 
  2147.55,924.012 2125.11,924.012 2102.67,924.012 2080.23,924.012 2057.79,924.012 2035.35,924.012 2012.91,924.012 1990.47,924.012 1968.03,924.012 1945.59,924.012 
  1923.15,924.012 1900.71,924.012 1878.27,924.012 1855.83,924.012 1833.39,924.012 1810.95,924.012 1788.51,924.012 1766.07,924.012 1743.63,924.012 1721.18,924.012 
  1698.74,924.012 1676.3,924.012 1653.86,924.012 1631.42,924.012 1608.98,924.012 1586.54,924.012 1564.1,924.012 1541.66,924.012 1519.22,924.012 1496.78,924.012 
  1474.34,924.012 1451.9,924.012 1429.46,924.012 1407.02,924.012 1384.58,924.012 1362.14,924.012 1339.7,924.012 1317.26,924.012 1294.82,924.012 1272.38,924.012 
  1261.16,915.155 1261.16,897.443 1261.16,879.731 1261.16,862.018 1261.16,844.306 1261.16,826.593 1261.16,808.881 1261.16,791.168 1261.16,773.456 1261.16,755.743 
  1261.16,738.031 1261.16,720.318 1261.16,702.606 1261.16,684.893 1261.16,667.181 1261.16,649.468 1261.16,631.756 1261.16,614.043 1261.16,596.331 1261.16,578.618 
  1261.16,560.906 1261.16,543.193 1261.16,525.481 1261.16,507.768 1261.16,490.056 1261.16,472.344 1261.16,454.631 1261.16,436.919 1261.16,419.206 1261.16,401.494 
  1261.16,383.781 1261.16,366.069 1261.16,348.356 1261.16,330.644 1261.16,312.931 1261.16,295.219 1261.16,277.506 1261.16,259.794 1261.16,242.081 1261.16,224.369 
  1261.16,206.656 1261.16,188.944 1261.16,171.231 1261.16,153.519 1261.16,135.806 1261.16,118.094 1261.16,100.382 1261.16,82.669 1261.16,64.9566 1261.16,47.2441 
  
  "/>
<polyline clip-path="url(#clip732)" style="stroke:#d04544; stroke-linecap:butt; stroke-linejoin:round; stroke-width:4; stroke-opacity:1; fill:none" points="
  1400.01,47.2441 1402.87,64.9566 1405.85,82.669 1407.02,89.3964 1408.96,100.382 1412.21,118.094 1415.61,135.806 1419.16,153.519 1422.88,171.231 1426.77,188.944 
  1429.46,200.678 1430.86,206.656 1435.16,224.369 1439.68,242.081 1444.44,259.794 1449.46,277.506 1451.9,285.776 1454.76,295.219 1460.38,312.931 1466.32,330.644 
  1472.64,348.356 1474.34,352.959 1479.35,366.069 1486.5,383.781 1494.14,401.494 1496.78,407.345 1502.32,419.206 1511.09,436.919 1519.22,452.273 1520.52,454.631 
  1530.69,472.344 1541.66,490.012 1541.69,490.056 1553.63,507.768 1564.1,522.16 1566.63,525.481 1580.83,543.193 1586.54,549.874 1596.43,560.906 1608.98,574.012 
  1613.62,578.618 1631.42,595.224 1632.67,596.331 1653.86,614.012 1653.9,614.043 1676.3,630.768 1677.71,631.756 1698.74,645.807 1704.58,649.468 1721.18,659.378 
  1735.16,667.181 1743.63,671.686 1766.07,682.901 1770.27,684.893 1788.51,693.161 1810.95,702.583 1811,702.606 1833.39,711.267 1855.83,719.295 1858.82,720.318 
  1878.27,726.739 1900.71,733.661 1915.73,738.031 1923.15,740.113 1945.59,746.143 1968.03,751.789 1984.64,755.743 1990.47,757.089 2012.91,762.071 2035.35,766.765 
  2057.79,771.195 2069.75,773.456 2080.23,775.382 2102.67,779.345 2125.11,783.103 2147.55,786.67 2169.99,790.061 2177.57,791.168 2192.43,793.289 2214.87,796.365 
  2237.31,799.299 2259.75,802.102 2282.19,804.781 2304.63,807.345 2318.55,808.881 2327.08,809.801 2349.52,812.156 2371.96,814.416 
  "/>
<polyline clip-path="url(#clip732)" style="stroke:#e35832; stroke-linecap:butt; stroke-linejoin:round; stroke-width:4; stroke-opacity:1; fill:none" points="
  2371.96,704.82 2360.85,702.606 2349.52,700.3 2327.08,695.591 2304.63,690.678 2282.19,685.55 2279.39,684.893 2259.75,680.191 2237.31,674.586 2214.87,668.718 
  2209.17,667.181 2192.43,662.566 2169.99,656.11 2148,649.468 2147.55,649.328 2125.11,642.194 2102.67,634.678 2094.26,631.756 2080.23,626.751 2057.79,618.378 
  2046.65,614.043 2035.35,609.519 2012.91,600.131 2004.19,596.331 1990.47,590.166 1968.03,579.567 1966.09,578.618 1945.59,568.274 1931.7,560.906 1923.15,556.215 
  1900.71,543.31 1900.51,543.193 1878.27,529.466 1872.1,525.481 1855.83,514.578 1846.1,507.768 1833.39,498.522 1822.22,490.056 1810.95,481.155 1800.22,472.344 
  1788.51,462.31 1779.88,454.631 1766.07,441.79 1761.02,436.919 1743.63,419.361 1743.48,419.206 1727.13,401.494 1721.18,394.743 1711.85,383.781 1698.74,367.601 
  1697.54,366.069 1684.11,348.356 1676.3,337.525 1671.49,330.644 1659.6,312.931 1653.86,304.012 1648.37,295.219 1637.76,277.506 1631.42,266.436 1627.72,259.794 
  1618.2,242.081 1609.16,224.369 1608.98,224.012 1600.57,206.656 1592.39,188.944 1586.54,175.736 1584.6,171.231 1577.16,153.519 1570.06,135.806 1564.1,120.308 
  1563.27,118.094 1556.77,100.382 1550.55,82.669 1544.58,64.9566 1541.66,56.0118 1538.86,47.2441 
  "/>
<polyline clip-path="url(#clip732)" style="stroke:#f0701e; stroke-linecap:butt; stroke-linejoin:round; stroke-width:4; stroke-opacity:1; fill:none" points="
  1677.71,47.2441 1686.3,64.9566 1695.25,82.669 1698.74,89.3964 1704.58,100.382 1714.33,118.094 1721.18,130.109 1724.51,135.806 1735.16,153.519 1743.63,167.035 
  1746.31,171.231 1758.01,188.944 1766.07,200.678 1770.27,206.656 1783.16,224.369 1788.51,231.459 1796.72,242.081 1810.95,259.726 1811,259.794 1826.07,277.506 
  1833.39,285.776 1841.98,295.219 1855.83,309.861 1858.82,312.931 1876.66,330.644 1878.27,332.194 1895.59,348.356 1900.71,352.959 1915.73,366.069 1923.15,372.317 
  1937.2,383.781 1945.59,390.405 1960.11,401.494 1968.03,407.345 1984.64,419.206 1990.47,423.243 2010.95,436.919 2012.91,438.191 2035.35,452.273 2039.24,454.631 
  2057.79,465.561 2069.75,472.344 2080.23,478.121 2102.67,490.012 2102.76,490.056 2125.11,501.284 2138.57,507.768 2147.55,511.986 2169.99,522.16 2177.57,525.481 
  2192.43,531.843 2214.87,541.071 2220.19,543.193 2237.31,549.874 2259.75,558.281 2266.97,560.906 2282.19,566.319 2304.63,574.012 2318.55,578.618 2327.08,581.38 
  2349.52,588.445 2371.96,595.224 
  "/>
<polyline clip-path="url(#clip732)" style="stroke:#f98c09; stroke-linecap:butt; stroke-linejoin:round; stroke-width:4; stroke-opacity:1; fill:none" points="
  2371.96,485.628 2349.52,476.589 2339.29,472.344 2327.08,467.17 2304.63,457.345 2298.6,454.631 2282.19,447.089 2260.88,436.919 2259.75,436.371 2237.31,425.161 
  2225.8,419.206 2214.87,413.424 2193.1,401.494 2192.43,401.12 2169.99,388.209 2162.54,383.781 2147.55,374.645 2133.93,366.069 2125.11,360.375 2107.07,348.356 
  2102.67,345.345 2081.82,330.644 2080.23,329.491 2058.03,312.931 2057.79,312.744 2035.59,295.219 2035.35,295.026 2014.37,277.506 2012.91,276.251 1994.28,259.794 
  1990.47,256.319 1975.24,242.081 1968.03,235.123 1957.16,224.369 1945.59,212.536 1939.98,206.656 1923.62,188.944 1923.15,188.419 1908.03,171.231 1900.71,162.608 
  1893.16,153.519 1878.96,135.806 1878.27,134.921 1865.38,118.094 1855.83,105.144 1852.39,100.382 1839.94,82.669 1833.39,73.0314 1828.01,64.9566 1816.56,47.2441 
  
  "/>
<polyline clip-path="url(#clip732)" style="stroke:#fbaa0e; stroke-linecap:butt; stroke-linejoin:round; stroke-width:4; stroke-opacity:1; fill:none" points="
  1955.41,47.2441 1968.03,62.9007 1969.72,64.9566 1984.64,82.669 1990.47,89.3964 2000.2,100.382 2012.91,114.31 2016.44,118.094 2033.41,135.806 2035.35,137.78 
  2051.16,153.519 2057.79,159.927 2069.75,171.231 2080.23,180.861 2089.24,188.944 2102.67,200.678 2109.68,206.656 2125.11,219.466 2131.17,224.369 2147.55,237.303 
  2153.76,242.081 2169.99,254.259 2177.57,259.794 2192.43,270.397 2202.67,277.506 2214.87,285.776 2229.19,295.219 2237.31,300.449 2257.25,312.931 2259.75,314.461 
  2282.19,327.858 2286.99,330.644 2304.63,340.678 2318.55,348.356 2327.08,352.959 2349.52,364.733 2352.12,366.069 2371.96,376.032 
  "/>
<polyline clip-path="url(#clip732)" style="stroke:#f8c931; stroke-linecap:butt; stroke-linejoin:round; stroke-width:4; stroke-opacity:1; fill:none" points="
  2371.96,266.436 2360.85,259.794 2349.52,252.878 2332.28,242.081 2327.08,238.749 2305.17,224.369 2304.63,224.012 2282.19,208.627 2279.39,206.656 2259.75,192.551 
  2254.85,188.944 2237.31,175.736 2231.47,171.231 2214.87,158.129 2209.17,153.519 2192.43,139.674 2187.86,135.806 2169.99,120.308 2167.5,118.094 2148,100.382 
  2147.55,99.9611 2129.33,82.669 2125.11,78.5572 2111.43,64.9566 2102.67,56.0118 2094.26,47.2441 
  "/>
<polyline clip-path="url(#clip732)" style="stroke:#f1e864; stroke-linecap:butt; stroke-linejoin:round; stroke-width:4; stroke-opacity:1; fill:none" points="
  2233.11,47.2441 2237.31,51.0233 2253.15,64.9566 2259.75,70.641 2274.03,82.669 2282.19,89.3964 2295.81,100.382 2304.63,107.345 2318.55,118.094 2327.08,124.538 
  2342.31,135.806 2349.52,141.022 2367.17,153.519 2371.96,156.84 
  "/>
<polyline clip-path="url(#clip732)" style="stroke:#88216a; stroke-linecap:butt; stroke-linejoin:round; stroke-width:4; stroke-opacity:1; fill:none" points="
  2371.96,1143.2 2360.85,1145.42 2349.52,1147.72 2327.08,1152.43 2304.63,1157.35 2282.19,1162.47 2279.39,1163.13 2259.75,1167.83 2237.31,1173.44 2214.87,1179.31 
  2209.17,1180.84 2192.43,1185.46 2169.99,1191.91 2148,1198.56 2147.55,1198.7 2125.11,1205.83 2102.67,1213.35 2094.26,1216.27 2080.23,1221.27 2057.79,1229.65 
  2046.65,1233.98 2035.35,1238.5 2012.91,1247.89 2004.19,1251.69 1990.47,1257.86 1968.03,1268.46 1966.09,1269.4 1945.59,1279.75 1931.7,1287.12 1923.15,1291.81 
  1900.71,1304.71 1900.51,1304.83 1878.27,1318.56 1872.1,1322.54 1855.83,1333.45 1846.1,1340.25 1833.39,1349.5 1822.22,1357.97 1810.95,1366.87 1800.22,1375.68 
  1788.51,1385.71 1779.88,1393.39 1766.07,1406.23 1761.02,1411.1 1743.63,1428.66 1743.48,1428.82 1727.13,1446.53 1721.18,1453.28 1711.85,1464.24 1698.74,1480.42 
  1697.54,1481.95 1684.11,1499.67 1676.3,1510.5 1671.49,1517.38 1659.6,1535.09 1653.86,1544.01 1648.37,1552.8 1637.76,1570.52 1631.42,1581.59 1627.72,1588.23 
  1618.2,1605.94 1609.16,1623.65 1608.98,1624.01 1600.57,1641.37 1592.39,1659.08 1586.54,1672.29 1584.6,1676.79 1577.16,1694.5 1570.06,1712.22 1564.1,1727.72 
  1563.27,1729.93 1556.77,1747.64 1550.55,1765.35 1544.58,1783.07 1541.66,1792.01 1538.86,1800.78 
  "/>
<polyline clip-path="url(#clip732)" style="stroke:#6e186e; stroke-linecap:butt; stroke-linejoin:round; stroke-width:4; stroke-opacity:1; fill:none" points="
  1677.71,1800.78 1686.3,1783.07 1695.25,1765.35 1698.74,1758.63 1704.58,1747.64 1714.33,1729.93 1721.18,1717.91 1724.51,1712.22 1735.16,1694.5 1743.63,1680.99 
  1746.31,1676.79 1758.01,1659.08 1766.07,1647.34 1770.27,1641.37 1783.16,1623.65 1788.51,1616.56 1796.72,1605.94 1810.95,1588.3 1811,1588.23 1826.07,1570.52 
  1833.39,1562.25 1841.98,1552.8 1855.83,1538.16 1858.82,1535.09 1876.66,1517.38 1878.27,1515.83 1895.59,1499.67 1900.71,1495.06 1915.73,1481.95 1923.15,1475.71 
  1937.2,1464.24 1945.59,1457.62 1960.11,1446.53 1968.03,1440.68 1984.64,1428.82 1990.47,1424.78 2010.95,1411.1 2012.91,1409.83 2035.35,1395.75 2039.24,1393.39 
  2057.79,1382.46 2069.75,1375.68 2080.23,1369.9 2102.67,1358.01 2102.76,1357.97 2125.11,1346.74 2138.57,1340.25 2147.55,1336.04 2169.99,1325.86 2177.57,1322.54 
  2192.43,1316.18 2214.87,1306.95 2220.19,1304.83 2237.31,1298.15 2259.75,1289.74 2266.97,1287.12 2282.19,1281.7 2304.63,1274.01 2318.55,1269.4 2327.08,1266.64 
  2349.52,1259.58 2371.96,1252.8 
  "/>
<polyline clip-path="url(#clip732)" style="stroke:#550f6d; stroke-linecap:butt; stroke-linejoin:round; stroke-width:4; stroke-opacity:1; fill:none" points="
  2371.96,1362.4 2349.52,1371.43 2339.29,1375.68 2327.08,1380.85 2304.63,1390.68 2298.6,1393.39 2282.19,1400.93 2260.88,1411.1 2259.75,1411.65 2237.31,1422.86 
  2225.8,1428.82 2214.87,1434.6 2193.1,1446.53 2192.43,1446.9 2169.99,1459.81 2162.54,1464.24 2147.55,1473.38 2133.93,1481.95 2125.11,1487.65 2107.07,1499.67 
  2102.67,1502.68 2081.82,1517.38 2080.23,1518.53 2058.03,1535.09 2057.79,1535.28 2035.59,1552.8 2035.35,1553 2014.37,1570.52 2012.91,1571.77 1994.28,1588.23 
  1990.47,1591.7 1975.24,1605.94 1968.03,1612.9 1957.16,1623.65 1945.59,1635.49 1939.98,1641.37 1923.62,1659.08 1923.15,1659.6 1908.03,1676.79 1900.71,1685.42 
  1893.16,1694.5 1878.96,1712.22 1878.27,1713.1 1865.38,1729.93 1855.83,1742.88 1852.39,1747.64 1839.94,1765.35 1833.39,1774.99 1828.01,1783.07 1816.56,1800.78 
  
  "/>
<polyline clip-path="url(#clip732)" style="stroke:#3b0964; stroke-linecap:butt; stroke-linejoin:round; stroke-width:4; stroke-opacity:1; fill:none" points="
  1955.41,1800.78 1968.03,1785.12 1969.72,1783.07 1984.64,1765.35 1990.47,1758.63 2000.2,1747.64 2012.91,1733.71 2016.44,1729.93 2033.41,1712.22 2035.35,1710.24 
  2051.16,1694.5 2057.79,1688.1 2069.75,1676.79 2080.23,1667.16 2089.24,1659.08 2102.67,1647.34 2109.68,1641.37 2125.11,1628.56 2131.17,1623.65 2147.55,1610.72 
  2153.76,1605.94 2169.99,1593.76 2177.57,1588.23 2192.43,1577.63 2202.67,1570.52 2214.87,1562.25 2229.19,1552.8 2237.31,1547.57 2257.25,1535.09 2259.75,1533.56 
  2282.19,1520.17 2286.99,1517.38 2304.63,1507.34 2318.55,1499.67 2327.08,1495.06 2349.52,1483.29 2352.12,1481.95 2371.96,1471.99 
  "/>
<polyline clip-path="url(#clip732)" style="stroke:#1f0c47; stroke-linecap:butt; stroke-linejoin:round; stroke-width:4; stroke-opacity:1; fill:none" points="
  2371.96,1581.59 2360.85,1588.23 2349.52,1595.15 2332.28,1605.94 2327.08,1609.27 2305.17,1623.65 2304.63,1624.01 2282.19,1639.4 2279.39,1641.37 2259.75,1655.47 
  2254.85,1659.08 2237.31,1672.29 2231.47,1676.79 2214.87,1689.89 2209.17,1694.5 2192.43,1708.35 2187.86,1712.22 2169.99,1727.72 2167.5,1729.93 2148,1747.64 
  2147.55,1748.06 2129.33,1765.35 2125.11,1769.47 2111.43,1783.07 2102.67,1792.01 2094.26,1800.78 
  "/>
<polyline clip-path="url(#clip732)" style="stroke:#090621; stroke-linecap:butt; stroke-linejoin:round; stroke-width:4; stroke-opacity:1; fill:none" points="
  2233.11,1800.78 2237.31,1797 2253.15,1783.07 2259.75,1777.38 2274.03,1765.35 2282.19,1758.63 2295.81,1747.64 2304.63,1740.68 2318.55,1729.93 2327.08,1723.49 
  2342.31,1712.22 2349.52,1707 2367.17,1694.5 2371.96,1691.18 
  "/>
<polyline clip-path="url(#clip732)" style="stroke:#a12b61; stroke-linecap:butt; stroke-linejoin:round; stroke-width:4; stroke-opacity:1; fill:none" points="
  1122.31,47.2441 1119.44,64.9566 1116.46,82.669 1115.29,89.3964 1113.35,100.382 1110.1,118.094 1106.71,135.806 1103.16,153.519 1099.44,171.231 1095.54,188.944 
  1092.85,200.678 1091.45,206.656 1087.16,224.369 1082.64,242.081 1077.88,259.794 1072.85,277.506 1070.41,285.776 1067.55,295.219 1061.94,312.931 1055.99,330.644 
  1049.68,348.356 1047.97,352.959 1042.96,366.069 1035.81,383.781 1028.17,401.494 1025.53,407.345 1020,419.206 1011.23,436.919 1003.09,452.273 1001.8,454.631 
  991.625,472.344 980.652,490.012 980.623,490.056 968.686,507.768 958.212,522.16 955.687,525.481 941.479,543.193 935.771,549.874 925.885,560.906 913.331,574.012 
  908.692,578.618 890.891,595.224 889.64,596.331 868.45,614.012 868.41,614.043 846.01,630.768 844.607,631.756 823.569,645.807 817.733,649.468 801.129,659.378 
  787.152,667.181 778.689,671.686 756.248,682.901 752.041,684.893 733.808,693.161 711.368,702.583 711.311,702.606 688.927,711.267 666.487,719.295 663.499,720.318 
  644.046,726.739 621.606,733.661 606.579,738.031 599.166,740.113 576.725,746.143 554.285,751.789 537.676,755.743 531.844,757.089 509.404,762.071 486.964,766.765 
  464.523,771.195 452.561,773.456 442.083,775.382 419.643,779.345 397.202,783.103 374.762,786.67 352.321,790.061 344.748,791.168 329.881,793.289 307.441,796.365 
  285,799.299 262.56,802.102 240.119,804.781 217.679,807.345 203.762,808.881 195.239,809.801 172.798,812.156 150.358,814.416 
  "/>
<polyline clip-path="url(#clip732)" style="stroke:#88216a; stroke-linecap:butt; stroke-linejoin:round; stroke-width:4; stroke-opacity:1; fill:none" points="
  150.358,704.82 161.466,702.606 172.798,700.3 195.239,695.591 217.679,690.678 240.119,685.55 242.924,684.893 262.56,680.191 285,674.586 307.441,668.718 
  313.147,667.181 329.881,662.566 352.321,656.11 374.309,649.468 374.762,649.328 397.202,642.194 419.643,634.678 428.058,631.756 442.083,626.751 464.523,618.378 
  475.663,614.043 486.964,609.519 509.404,600.131 518.122,596.331 531.844,590.166 554.285,579.567 556.227,578.618 576.725,568.274 590.614,560.906 599.166,556.215 
  621.606,543.31 621.802,543.193 644.046,529.466 650.217,525.481 666.487,514.578 676.215,507.768 688.927,498.522 700.09,490.056 711.368,481.155 722.093,472.344 
  733.808,462.31 742.435,454.631 756.248,441.79 761.297,436.919 778.689,419.361 778.836,419.206 795.186,401.494 801.129,394.743 810.464,383.781 823.569,367.601 
  824.772,366.069 838.199,348.356 846.01,337.525 850.824,330.644 862.718,312.931 868.45,304.012 873.942,295.219 884.55,277.506 890.891,266.436 894.593,259.794 
  904.114,242.081 913.153,224.369 913.331,224.012 921.746,206.656 929.925,188.944 935.771,175.736 937.718,171.231 945.154,153.519 952.255,135.806 958.212,120.308 
  959.044,118.094 965.541,100.382 971.765,82.669 977.731,64.9566 980.652,56.0118 983.457,47.2441 
  "/>
<polyline clip-path="url(#clip732)" style="stroke:#6e186e; stroke-linecap:butt; stroke-linejoin:round; stroke-width:4; stroke-opacity:1; fill:none" points="
  844.607,47.2441 836.019,64.9566 827.068,82.669 823.569,89.3964 817.733,100.382 807.988,118.094 801.129,130.109 797.804,135.806 787.152,153.519 778.689,167.035 
  775.999,171.231 764.309,188.944 756.248,200.678 752.041,206.656 739.152,224.369 733.808,231.459 725.593,242.081 711.368,259.726 711.311,259.794 696.247,277.506 
  688.927,285.776 680.334,295.219 666.487,309.861 663.499,312.931 645.658,330.644 644.046,332.194 626.72,348.356 621.606,352.959 606.579,366.069 599.166,372.317 
  585.117,383.781 576.725,390.405 562.201,401.494 554.285,407.345 537.676,419.206 531.844,423.243 511.368,436.919 509.404,438.191 486.964,452.273 483.074,454.631 
  464.523,465.561 452.561,472.344 442.083,478.121 419.643,490.012 419.557,490.056 397.202,501.284 383.744,507.768 374.762,511.986 352.321,522.16 344.748,525.481 
  329.881,531.843 307.441,541.071 302.124,543.193 285,549.874 262.56,558.281 255.342,560.906 240.119,566.319 217.679,574.012 203.762,578.618 195.239,581.38 
  172.798,588.445 150.358,595.224 
  "/>
<polyline clip-path="url(#clip732)" style="stroke:#550f6d; stroke-linecap:butt; stroke-linejoin:round; stroke-width:4; stroke-opacity:1; fill:none" points="
  150.358,485.628 172.798,476.589 183.028,472.344 195.239,467.17 217.679,457.345 223.713,454.631 240.119,447.089 261.438,436.919 262.56,436.371 285,425.161 
  296.516,419.206 307.441,413.424 329.215,401.494 329.881,401.12 352.321,388.209 359.771,383.781 374.762,374.645 388.386,366.069 397.202,360.375 415.241,348.356 
  419.643,345.345 440.492,330.644 442.083,329.491 464.279,312.931 464.523,312.744 486.727,295.219 486.964,295.026 507.944,277.506 509.404,276.251 528.03,259.794 
  531.844,256.319 547.072,242.081 554.285,235.123 565.15,224.369 576.725,212.536 582.335,206.656 598.692,188.944 599.166,188.419 614.28,171.231 621.606,162.608 
  629.151,153.519 643.353,135.806 644.046,134.921 656.931,118.094 666.487,105.144 669.925,100.382 682.372,82.669 688.927,73.0314 694.306,64.9566 705.757,47.2441 
  
  "/>
<polyline clip-path="url(#clip732)" style="stroke:#3b0964; stroke-linecap:butt; stroke-linejoin:round; stroke-width:4; stroke-opacity:1; fill:none" points="
  566.908,47.2441 554.285,62.9007 552.593,64.9566 537.676,82.669 531.844,89.3964 522.117,100.382 509.404,114.31 505.875,118.094 488.902,135.806 486.964,137.78 
  471.149,153.519 464.523,159.927 452.561,171.231 442.083,180.861 433.076,188.944 419.643,200.678 412.63,206.656 397.202,219.466 391.148,224.369 374.762,237.303 
  368.551,242.081 352.321,254.259 344.748,259.794 329.881,270.397 319.641,277.506 307.441,285.776 293.119,295.219 285,300.449 265.06,312.931 262.56,314.461 
  240.119,327.858 235.326,330.644 217.679,340.678 203.762,348.356 195.239,352.959 172.798,364.733 170.194,366.069 150.358,376.032 
  "/>
<polyline clip-path="url(#clip732)" style="stroke:#1f0c47; stroke-linecap:butt; stroke-linejoin:round; stroke-width:4; stroke-opacity:1; fill:none" points="
  150.358,266.436 161.466,259.794 172.798,252.878 190.029,242.081 195.239,238.749 217.146,224.369 217.679,224.012 240.119,208.627 242.924,206.656 262.56,192.551 
  267.46,188.944 285,175.736 290.841,171.231 307.441,158.129 313.147,153.519 329.881,139.674 334.451,135.806 352.321,120.308 354.818,118.094 374.309,100.382 
  374.762,99.9611 392.98,82.669 397.202,78.5572 410.88,64.9566 419.643,56.0118 428.058,47.2441 
  "/>
<polyline clip-path="url(#clip732)" style="stroke:#090621; stroke-linecap:butt; stroke-linejoin:round; stroke-width:4; stroke-opacity:1; fill:none" points="
  289.208,47.2441 285,51.0233 269.168,64.9566 262.56,70.641 248.284,82.669 240.119,89.3964 226.501,100.382 217.679,107.345 203.762,118.094 195.239,124.538 
  180,135.806 172.798,141.022 155.146,153.519 150.358,156.84 
  "/>
<defs>
  <clipPath id="clip733">
    <rect x="2425" y="47" width="82" height="1755"/>
  </clipPath>
</defs>
<polyline clip-path="url(#clip733)" style="stroke:#0a0723; stroke-linecap:butt; stroke-linejoin:round; stroke-width:4; stroke-opacity:1; fill:none" points="
  2425.72,1691.18 2506.36,1691.18 
  "/>
<polyline clip-path="url(#clip733)" style="stroke:#200c4a; stroke-linecap:butt; stroke-linejoin:round; stroke-width:4; stroke-opacity:1; fill:none" points="
  2425.72,1581.59 2506.36,1581.59 
  "/>
<polyline clip-path="url(#clip733)" style="stroke:#3c0965; stroke-linecap:butt; stroke-linejoin:round; stroke-width:4; stroke-opacity:1; fill:none" points="
  2425.72,1471.99 2506.36,1471.99 
  "/>
<polyline clip-path="url(#clip733)" style="stroke:#570f6d; stroke-linecap:butt; stroke-linejoin:round; stroke-width:4; stroke-opacity:1; fill:none" points="
  2425.72,1362.4 2506.36,1362.4 
  "/>
<polyline clip-path="url(#clip733)" style="stroke:#70196e; stroke-linecap:butt; stroke-linejoin:round; stroke-width:4; stroke-opacity:1; fill:none" points="
  2425.72,1252.8 2506.36,1252.8 
  "/>
<polyline clip-path="url(#clip733)" style="stroke:#892269; stroke-linecap:butt; stroke-linejoin:round; stroke-width:4; stroke-opacity:1; fill:none" points="
  2425.72,1143.2 2506.36,1143.2 
  "/>
<polyline clip-path="url(#clip733)" style="stroke:#a32b61; stroke-linecap:butt; stroke-linejoin:round; stroke-width:4; stroke-opacity:1; fill:none" points="
  2425.72,1033.61 2506.36,1033.61 
  "/>
<polyline clip-path="url(#clip733)" style="stroke:#bb3754; stroke-linecap:butt; stroke-linejoin:round; stroke-width:4; stroke-opacity:1; fill:none" points="
  2425.72,924.012 2506.36,924.012 
  "/>
<polyline clip-path="url(#clip733)" style="stroke:#d04544; stroke-linecap:butt; stroke-linejoin:round; stroke-width:4; stroke-opacity:1; fill:none" points="
  2425.72,814.416 2506.36,814.416 
  "/>
<polyline clip-path="url(#clip733)" style="stroke:#e35832; stroke-linecap:butt; stroke-linejoin:round; stroke-width:4; stroke-opacity:1; fill:none" points="
  2425.72,704.82 2506.36,704.82 
  "/>
<polyline clip-path="url(#clip733)" style="stroke:#f0701e; stroke-linecap:butt; stroke-linejoin:round; stroke-width:4; stroke-opacity:1; fill:none" points="
  2425.72,595.224 2506.36,595.224 
  "/>
<polyline clip-path="url(#clip733)" style="stroke:#f98c09; stroke-linecap:butt; stroke-linejoin:round; stroke-width:4; stroke-opacity:1; fill:none" points="
  2425.72,485.628 2506.36,485.628 
  "/>
<polyline clip-path="url(#clip733)" style="stroke:#fbaa0e; stroke-linecap:butt; stroke-linejoin:round; stroke-width:4; stroke-opacity:1; fill:none" points="
  2425.72,376.032 2506.36,376.032 
  "/>
<polyline clip-path="url(#clip733)" style="stroke:#f8c931; stroke-linecap:butt; stroke-linejoin:round; stroke-width:4; stroke-opacity:1; fill:none" points="
  2425.72,266.436 2506.36,266.436 
  "/>
<polyline clip-path="url(#clip733)" style="stroke:#f1e864; stroke-linecap:butt; stroke-linejoin:round; stroke-width:4; stroke-opacity:1; fill:none" points="
  2425.72,156.84 2506.36,156.84 
  "/>
<path clip-path="url(#clip730)" d="M2546.68 1797.6 L2576.35 1797.6 L2576.35 1801.54 L2546.68 1801.54 L2546.68 1797.6 Z" fill="#000000" fill-rule="evenodd" fill-opacity="1" /><path clip-path="url(#clip730)" d="M2599.29 1783.94 L2587.49 1802.39 L2599.29 1802.39 L2599.29 1783.94 M2598.06 1779.87 L2603.94 1779.87 L2603.94 1802.39 L2608.87 1802.39 L2608.87 1806.28 L2603.94 1806.28 L2603.94 1814.43 L2599.29 1814.43 L2599.29 1806.28 L2583.69 1806.28 L2583.69 1801.77 L2598.06 1779.87 Z" fill="#000000" fill-rule="evenodd" fill-opacity="1" /><path clip-path="url(#clip730)" d="M2546.68 1578.41 L2576.35 1578.41 L2576.35 1582.35 L2546.68 1582.35 L2546.68 1578.41 Z" fill="#000000" fill-rule="evenodd" fill-opacity="1" /><path clip-path="url(#clip730)" d="M2600.61 1576.6 Q2603.97 1577.32 2605.84 1579.59 Q2607.74 1581.86 2607.74 1585.19 Q2607.74 1590.31 2604.22 1593.11 Q2600.7 1595.91 2594.22 1595.91 Q2592.05 1595.91 2589.73 1595.47 Q2587.44 1595.05 2584.99 1594.2 L2584.99 1589.68 Q2586.93 1590.82 2589.25 1591.4 Q2591.56 1591.97 2594.08 1591.97 Q2598.48 1591.97 2600.77 1590.24 Q2603.09 1588.5 2603.09 1585.19 Q2603.09 1582.14 2600.93 1580.42 Q2598.81 1578.69 2594.99 1578.69 L2590.96 1578.69 L2590.96 1574.85 L2595.17 1574.85 Q2598.62 1574.85 2600.45 1573.48 Q2602.28 1572.09 2602.28 1569.5 Q2602.28 1566.84 2600.38 1565.42 Q2598.5 1563.99 2594.99 1563.99 Q2593.06 1563.99 2590.87 1564.41 Q2588.67 1564.82 2586.03 1565.7 L2586.03 1561.54 Q2588.69 1560.79 2591 1560.42 Q2593.34 1560.05 2595.4 1560.05 Q2600.73 1560.05 2603.83 1562.48 Q2606.93 1564.89 2606.93 1569.01 Q2606.93 1571.88 2605.29 1573.87 Q2603.64 1575.84 2600.61 1576.6 Z" fill="#000000" fill-rule="evenodd" fill-opacity="1" /><path clip-path="url(#clip730)" d="M2546.68 1359.22 L2576.35 1359.22 L2576.35 1363.15 L2546.68 1363.15 L2546.68 1359.22 Z" fill="#000000" fill-rule="evenodd" fill-opacity="1" /><path clip-path="url(#clip730)" d="M2590.47 1372.11 L2606.79 1372.11 L2606.79 1376.05 L2584.85 1376.05 L2584.85 1372.11 Q2587.51 1369.36 2592.09 1364.73 Q2596.7 1360.07 2597.88 1358.73 Q2600.12 1356.21 2601 1354.47 Q2601.91 1352.71 2601.91 1351.02 Q2601.91 1348.27 2599.96 1346.53 Q2598.04 1344.8 2594.94 1344.8 Q2592.74 1344.8 2590.29 1345.56 Q2587.86 1346.32 2585.08 1347.88 L2585.08 1343.15 Q2587.9 1342.02 2590.36 1341.44 Q2592.81 1340.86 2594.85 1340.86 Q2600.22 1340.86 2603.41 1343.55 Q2606.61 1346.23 2606.61 1350.72 Q2606.61 1352.85 2605.8 1354.77 Q2605.01 1356.67 2602.9 1359.26 Q2602.32 1359.94 2599.22 1363.15 Q2596.12 1366.35 2590.47 1372.11 Z" fill="#000000" fill-rule="evenodd" fill-opacity="1" /><path clip-path="url(#clip730)" d="M2546.68 1140.03 L2576.35 1140.03 L2576.35 1143.96 L2546.68 1143.96 L2546.68 1140.03 Z" fill="#000000" fill-rule="evenodd" fill-opacity="1" /><path clip-path="url(#clip730)" d="M2587.25 1152.92 L2594.89 1152.92 L2594.89 1126.55 L2586.58 1128.22 L2586.58 1123.96 L2594.85 1122.29 L2599.52 1122.29 L2599.52 1152.92 L2607.16 1152.92 L2607.16 1156.85 L2587.25 1156.85 L2587.25 1152.92 Z" fill="#000000" fill-rule="evenodd" fill-opacity="1" /><path clip-path="url(#clip730)" d="M2558.62 906.182 Q2555.01 906.182 2553.18 909.746 Q2551.37 913.288 2551.37 920.418 Q2551.37 927.524 2553.18 931.089 Q2555.01 934.631 2558.62 934.631 Q2562.25 934.631 2564.06 931.089 Q2565.89 927.524 2565.89 920.418 Q2565.89 913.288 2564.06 909.746 Q2562.25 906.182 2558.62 906.182 M2558.62 902.478 Q2564.43 902.478 2567.49 907.084 Q2570.56 911.668 2570.56 920.418 Q2570.56 929.144 2567.49 933.751 Q2564.43 938.334 2558.62 938.334 Q2552.81 938.334 2549.73 933.751 Q2546.68 929.144 2546.68 920.418 Q2546.68 911.668 2549.73 907.084 Q2552.81 902.478 2558.62 902.478 Z" fill="#000000" fill-rule="evenodd" fill-opacity="1" /><path clip-path="url(#clip730)" d="M2547.35 714.536 L2554.99 714.536 L2554.99 688.17 L2546.68 689.837 L2546.68 685.578 L2554.94 683.911 L2559.62 683.911 L2559.62 714.536 L2567.25 714.536 L2567.25 718.471 L2547.35 718.471 L2547.35 714.536 Z" fill="#000000" fill-rule="evenodd" fill-opacity="1" /><path clip-path="url(#clip730)" d="M2552.3 495.344 L2568.62 495.344 L2568.62 499.279 L2546.68 499.279 L2546.68 495.344 Q2549.34 492.589 2553.92 487.96 Q2558.53 483.307 2559.71 481.964 Q2561.95 479.441 2562.83 477.705 Q2563.74 475.946 2563.74 474.256 Q2563.74 471.501 2561.79 469.765 Q2559.87 468.029 2556.77 468.029 Q2554.57 468.029 2552.12 468.793 Q2549.69 469.557 2546.91 471.108 L2546.91 466.386 Q2549.73 465.252 2552.19 464.673 Q2554.64 464.094 2556.68 464.094 Q2562.05 464.094 2565.24 466.779 Q2568.44 469.464 2568.44 473.955 Q2568.44 476.085 2567.62 478.006 Q2566.84 479.904 2564.73 482.497 Q2564.15 483.168 2561.05 486.386 Q2557.95 489.58 2552.3 495.344 Z" fill="#000000" fill-rule="evenodd" fill-opacity="1" /><path clip-path="url(#clip730)" d="M2562.3 261.453 Q2565.66 262.171 2567.53 264.439 Q2569.43 266.708 2569.43 270.041 Q2569.43 275.157 2565.91 277.958 Q2562.39 280.758 2555.91 280.758 Q2553.74 280.758 2551.42 280.319 Q2549.13 279.902 2546.68 279.046 L2546.68 274.532 Q2548.62 275.666 2550.94 276.245 Q2553.25 276.823 2555.77 276.823 Q2560.17 276.823 2562.46 275.087 Q2564.78 273.351 2564.78 270.041 Q2564.78 266.985 2562.62 265.272 Q2560.5 263.536 2556.68 263.536 L2552.65 263.536 L2552.65 259.694 L2556.86 259.694 Q2560.31 259.694 2562.14 258.328 Q2563.97 256.939 2563.97 254.347 Q2563.97 251.685 2562.07 250.273 Q2560.19 248.837 2556.68 248.837 Q2554.75 248.837 2552.56 249.254 Q2550.36 249.671 2547.72 250.55 L2547.72 246.384 Q2550.38 245.643 2552.69 245.273 Q2555.03 244.902 2557.09 244.902 Q2562.42 244.902 2565.52 247.333 Q2568.62 249.74 2568.62 253.86 Q2568.62 256.731 2566.98 258.722 Q2565.33 260.689 2562.3 261.453 Z" fill="#000000" fill-rule="evenodd" fill-opacity="1" /><path clip-path="url(#clip730)" d="M2562.28 30.4093 L2550.47 48.8583 L2562.28 48.8583 L2562.28 30.4093 M2561.05 26.3353 L2566.93 26.3353 L2566.93 48.8583 L2571.86 48.8583 L2571.86 52.7472 L2566.93 52.7472 L2566.93 60.8953 L2562.28 60.8953 L2562.28 52.7472 L2546.68 52.7472 L2546.68 48.2333 L2561.05 26.3353 Z" fill="#000000" fill-rule="evenodd" fill-opacity="1" /><polyline clip-path="url(#clip730)" style="stroke:#000000; stroke-linecap:butt; stroke-linejoin:round; stroke-width:4; stroke-opacity:1; fill:none" points="
  2506.36,1800.78 2506.36,1800.78 2533.24,1800.78 2506.36,1800.78 2506.36,1581.59 2533.24,1581.59 2506.36,1581.59 2506.36,1362.4 2533.24,1362.4 2506.36,1362.4 
  2506.36,1143.2 2533.24,1143.2 2506.36,1143.2 2506.36,924.012 2533.24,924.012 2506.36,924.012 2506.36,704.82 2533.24,704.82 2506.36,704.82 2506.36,485.628 
  2533.24,485.628 2506.36,485.628 2506.36,266.436 2533.24,266.436 2506.36,266.436 2506.36,47.2441 2533.24,47.2441 2506.36,47.2441 
  "/>
</svg>
