<?xml version="1.0" encoding="utf-8"?>
<svg xmlns="http://www.w3.org/2000/svg" xmlns:xlink="http://www.w3.org/1999/xlink" width="672" height="480" viewBox="0 0 2688 1920">
<defs>
  <clipPath id="clip310">
    <rect x="0" y="0" width="2688" height="1920"/>
  </clipPath>
</defs>
<path clip-path="url(#clip310)" d="
M0 1920 L2688 1920 L2688 0 L0 0  Z
  " fill="#ffffff" fill-rule="evenodd" fill-opacity="1"/>
<defs>
  <clipPath id="clip311">
    <rect x="537" y="0" width="1883" height="1883"/>
  </clipPath>
</defs>
<path clip-path="url(#clip310)" d="
M113.761 1800.78 L2640.76 1800.78 L2640.76 47.2441 L113.761 47.2441  Z
  " fill="#ffffff" fill-rule="evenodd" fill-opacity="1"/>
<defs>
  <clipPath id="clip312">
    <rect x="113" y="47" width="2528" height="1755"/>
  </clipPath>
</defs>
<polyline clip-path="url(#clip312)" style="stroke:#000000; stroke-linecap:butt; stroke-linejoin:round; stroke-width:2; stroke-opacity:0.1; fill:none" points="
  185.28,1800.78 185.28,47.2441 
  "/>
<polyline clip-path="url(#clip312)" style="stroke:#000000; stroke-linecap:butt; stroke-linejoin:round; stroke-width:2; stroke-opacity:0.1; fill:none" points="
  979.932,1800.78 979.932,47.2441 
  "/>
<polyline clip-path="url(#clip312)" style="stroke:#000000; stroke-linecap:butt; stroke-linejoin:round; stroke-width:2; stroke-opacity:0.1; fill:none" points="
  1774.58,1800.78 1774.58,47.2441 
  "/>
<polyline clip-path="url(#clip312)" style="stroke:#000000; stroke-linecap:butt; stroke-linejoin:round; stroke-width:2; stroke-opacity:0.1; fill:none" points="
  2569.24,1800.78 2569.24,47.2441 
  "/>
<polyline clip-path="url(#clip310)" style="stroke:#000000; stroke-linecap:butt; stroke-linejoin:round; stroke-width:4; stroke-opacity:1; fill:none" points="
  113.761,1800.78 2640.76,1800.78 
  "/>
<polyline clip-path="url(#clip310)" style="stroke:#000000; stroke-linecap:butt; stroke-linejoin:round; stroke-width:4; stroke-opacity:1; fill:none" points="
  185.28,1800.78 185.28,1781.88 
  "/>
<polyline clip-path="url(#clip310)" style="stroke:#000000; stroke-linecap:butt; stroke-linejoin:round; stroke-width:4; stroke-opacity:1; fill:none" points="
  979.932,1800.78 979.932,1781.88 
  "/>
<polyline clip-path="url(#clip310)" style="stroke:#000000; stroke-linecap:butt; stroke-linejoin:round; stroke-width:4; stroke-opacity:1; fill:none" points="
  1774.58,1800.78 1774.58,1781.88 
  "/>
<polyline clip-path="url(#clip310)" style="stroke:#000000; stroke-linecap:butt; stroke-linejoin:round; stroke-width:4; stroke-opacity:1; fill:none" points="
  2569.24,1800.78 2569.24,1781.88 
  "/>
<path clip-path="url(#clip310)" d="M185.28 1834 Q181.669 1834 179.84 1837.57 Q178.034 1841.11 178.034 1848.24 Q178.034 1855.34 179.84 1858.91 Q181.669 1862.45 185.28 1862.45 Q188.914 1862.45 190.719 1858.91 Q192.548 1855.34 192.548 1848.24 Q192.548 1841.11 190.719 1837.57 Q188.914 1834 185.28 1834 M185.28 1830.3 Q191.09 1830.3 194.145 1834.9 Q197.224 1839.49 197.224 1848.24 Q197.224 1856.96 194.145 1861.57 Q191.09 1866.15 185.28 1866.15 Q179.469 1866.15 176.391 1861.57 Q173.335 1856.96 173.335 1848.24 Q173.335 1839.49 176.391 1834.9 Q179.469 1830.3 185.28 1830.3 Z" fill="#000000" fill-rule="evenodd" fill-opacity="1" /><path clip-path="url(#clip310)" d="M970.314 1861.55 L977.953 1861.55 L977.953 1835.18 L969.643 1836.85 L969.643 1832.59 L977.907 1830.92 L982.583 1830.92 L982.583 1861.55 L990.221 1861.55 L990.221 1865.48 L970.314 1865.48 L970.314 1861.55 Z" fill="#000000" fill-rule="evenodd" fill-opacity="1" /><path clip-path="url(#clip310)" d="M1769.24 1861.55 L1785.56 1861.55 L1785.56 1865.48 L1763.61 1865.48 L1763.61 1861.55 Q1766.27 1858.79 1770.86 1854.16 Q1775.46 1849.51 1776.64 1848.17 Q1778.89 1845.65 1779.77 1843.91 Q1780.67 1842.15 1780.67 1840.46 Q1780.67 1837.71 1778.73 1835.97 Q1776.81 1834.23 1773.71 1834.23 Q1771.51 1834.23 1769.05 1835 Q1766.62 1835.76 1763.84 1837.31 L1763.84 1832.59 Q1766.67 1831.46 1769.12 1830.88 Q1771.58 1830.3 1773.61 1830.3 Q1778.98 1830.3 1782.18 1832.98 Q1785.37 1835.67 1785.37 1840.16 Q1785.37 1842.29 1784.56 1844.21 Q1783.77 1846.11 1781.67 1848.7 Q1781.09 1849.37 1777.99 1852.59 Q1774.89 1855.78 1769.24 1861.55 Z" fill="#000000" fill-rule="evenodd" fill-opacity="1" /><path clip-path="url(#clip310)" d="M2573.48 1846.85 Q2576.84 1847.57 2578.72 1849.84 Q2580.61 1852.1 2580.61 1855.44 Q2580.61 1860.55 2577.1 1863.35 Q2573.58 1866.15 2567.1 1866.15 Q2564.92 1866.15 2562.61 1865.71 Q2560.31 1865.3 2557.86 1864.44 L2557.86 1859.93 Q2559.8 1861.06 2562.12 1861.64 Q2564.43 1862.22 2566.96 1862.22 Q2571.36 1862.22 2573.65 1860.48 Q2575.96 1858.75 2575.96 1855.44 Q2575.96 1852.38 2573.81 1850.67 Q2571.68 1848.93 2567.86 1848.93 L2563.83 1848.93 L2563.83 1845.09 L2568.05 1845.09 Q2571.49 1845.09 2573.32 1843.72 Q2575.15 1842.34 2575.15 1839.74 Q2575.15 1837.08 2573.25 1835.67 Q2571.38 1834.23 2567.86 1834.23 Q2565.94 1834.23 2563.74 1834.65 Q2561.54 1835.07 2558.9 1835.95 L2558.9 1831.78 Q2561.56 1831.04 2563.88 1830.67 Q2566.22 1830.3 2568.28 1830.3 Q2573.6 1830.3 2576.7 1832.73 Q2579.8 1835.14 2579.8 1839.26 Q2579.8 1842.13 2578.16 1844.12 Q2576.52 1846.09 2573.48 1846.85 Z" fill="#000000" fill-rule="evenodd" fill-opacity="1" /><polyline clip-path="url(#clip312)" style="stroke:#000000; stroke-linecap:butt; stroke-linejoin:round; stroke-width:2; stroke-opacity:0.1; fill:none" points="
  113.761,1751.15 2640.76,1751.15 
  "/>
<polyline clip-path="url(#clip312)" style="stroke:#000000; stroke-linecap:butt; stroke-linejoin:round; stroke-width:2; stroke-opacity:0.1; fill:none" points="
  113.761,1199.72 2640.76,1199.72 
  "/>
<polyline clip-path="url(#clip312)" style="stroke:#000000; stroke-linecap:butt; stroke-linejoin:round; stroke-width:2; stroke-opacity:0.1; fill:none" points="
  113.761,648.299 2640.76,648.299 
  "/>
<polyline clip-path="url(#clip312)" style="stroke:#000000; stroke-linecap:butt; stroke-linejoin:round; stroke-width:2; stroke-opacity:0.1; fill:none" points="
  113.761,96.8724 2640.76,96.8724 
  "/>
<polyline clip-path="url(#clip310)" style="stroke:#000000; stroke-linecap:butt; stroke-linejoin:round; stroke-width:4; stroke-opacity:1; fill:none" points="
  113.761,1800.78 113.761,47.2441 
  "/>
<polyline clip-path="url(#clip310)" style="stroke:#000000; stroke-linecap:butt; stroke-linejoin:round; stroke-width:4; stroke-opacity:1; fill:none" points="
  113.761,1751.15 132.659,1751.15 
  "/>
<polyline clip-path="url(#clip310)" style="stroke:#000000; stroke-linecap:butt; stroke-linejoin:round; stroke-width:4; stroke-opacity:1; fill:none" points="
  113.761,1199.72 132.659,1199.72 
  "/>
<polyline clip-path="url(#clip310)" style="stroke:#000000; stroke-linecap:butt; stroke-linejoin:round; stroke-width:4; stroke-opacity:1; fill:none" points="
  113.761,648.299 132.659,648.299 
  "/>
<polyline clip-path="url(#clip310)" style="stroke:#000000; stroke-linecap:butt; stroke-linejoin:round; stroke-width:4; stroke-opacity:1; fill:none" points="
  113.761,96.8724 132.659,96.8724 
  "/>
<path clip-path="url(#clip310)" d="M61.4965 1736.95 Q57.8854 1736.95 56.0567 1740.51 Q54.2512 1744.06 54.2512 1751.19 Q54.2512 1758.29 56.0567 1761.86 Q57.8854 1765.4 61.4965 1765.4 Q65.1307 1765.4 66.9363 1761.86 Q68.765 1758.29 68.765 1751.19 Q68.765 1744.06 66.9363 1740.51 Q65.1307 1736.95 61.4965 1736.95 M61.4965 1733.25 Q67.3067 1733.25 70.3622 1737.85 Q73.4409 1742.44 73.4409 1751.19 Q73.4409 1759.91 70.3622 1764.52 Q67.3067 1769.1 61.4965 1769.1 Q55.6864 1769.1 52.6077 1764.52 Q49.5521 1759.91 49.5521 1751.19 Q49.5521 1742.44 52.6077 1737.85 Q55.6864 1733.25 61.4965 1733.25 Z" fill="#000000" fill-rule="evenodd" fill-opacity="1" /><path clip-path="url(#clip310)" d="M53.5336 1213.07 L61.1724 1213.07 L61.1724 1186.7 L52.8623 1188.37 L52.8623 1184.11 L61.1261 1182.44 L65.802 1182.44 L65.802 1213.07 L73.4409 1213.07 L73.4409 1217 L53.5336 1217 L53.5336 1213.07 Z" fill="#000000" fill-rule="evenodd" fill-opacity="1" /><path clip-path="url(#clip310)" d="M57.1215 661.643 L73.4409 661.643 L73.4409 665.579 L51.4966 665.579 L51.4966 661.643 Q54.1586 658.889 58.7419 654.259 Q63.3483 649.606 64.5289 648.264 Q66.7743 645.741 67.6539 644.005 Q68.5567 642.245 68.5567 640.556 Q68.5567 637.801 66.6122 636.065 Q64.6909 634.329 61.5891 634.329 Q59.39 634.329 56.9363 635.093 Q54.5058 635.857 51.728 637.407 L51.728 632.685 Q54.5521 631.551 57.0058 630.972 Q59.4595 630.394 61.4965 630.394 Q66.8668 630.394 70.0613 633.079 Q73.2557 635.764 73.2557 640.255 Q73.2557 642.384 72.4455 644.306 Q71.6585 646.204 69.552 648.796 Q68.9733 649.468 65.8715 652.685 Q62.7696 655.88 57.1215 661.643 Z" fill="#000000" fill-rule="evenodd" fill-opacity="1" /><path clip-path="url(#clip310)" d="M66.3113 95.5183 Q69.6678 96.2359 71.5427 98.5044 Q73.4409 100.773 73.4409 104.106 Q73.4409 109.222 69.9224 112.023 Q66.4039 114.824 59.9224 114.824 Q57.7465 114.824 55.4317 114.384 Q53.1401 113.967 50.6864 113.111 L50.6864 108.597 Q52.6308 109.731 54.9456 110.31 Q57.2604 110.889 59.7836 110.889 Q64.1817 110.889 66.4733 109.152 Q68.7881 107.416 68.7881 104.106 Q68.7881 101.051 66.6354 99.3377 Q64.5057 97.6016 60.6863 97.6016 L56.6586 97.6016 L56.6586 93.759 L60.8715 93.759 Q64.3206 93.759 66.1493 92.3933 Q67.978 91.0044 67.978 88.4118 Q67.978 85.7498 66.0798 84.3378 Q64.2048 82.9026 60.6863 82.9026 Q58.765 82.9026 56.566 83.3193 Q54.3669 83.7359 51.728 84.6156 L51.728 80.4489 Q54.3901 79.7082 56.7049 79.3378 Q59.0428 78.9675 61.103 78.9675 Q66.427 78.9675 69.5289 81.398 Q72.6307 83.8054 72.6307 87.9257 Q72.6307 90.7961 70.9872 92.7868 Q69.3437 94.7544 66.3113 95.5183 Z" fill="#000000" fill-rule="evenodd" fill-opacity="1" /><polyline clip-path="url(#clip312)" style="stroke:#0000ff; stroke-linecap:butt; stroke-linejoin:round; stroke-width:4; stroke-opacity:1; fill:none" points="
  185.28,1751.15 201.279,1672.91 217.279,1640.5 233.279,1615.63 249.278,1594.66 265.278,1576.19 281.278,1559.49 297.278,1544.13 313.277,1529.84 329.277,1516.42 
  345.277,1503.72 361.276,1491.64 377.276,1480.1 393.276,1469.04 409.276,1458.39 425.275,1448.11 441.275,1438.17 457.275,1428.54 473.274,1419.19 489.274,1410.09 
  505.274,1401.23 521.274,1392.59 537.273,1384.15 553.273,1375.9 569.273,1367.83 585.272,1359.93 601.272,1352.18 617.272,1344.58 633.272,1337.12 649.271,1329.79 
  665.271,1322.59 681.271,1315.5 697.271,1308.53 713.27,1301.67 729.27,1294.91 745.27,1288.25 761.269,1281.68 777.269,1275.21 793.269,1268.82 809.269,1262.51 
  825.268,1256.29 841.268,1250.14 857.268,1244.07 873.267,1238.07 889.267,1232.13 905.267,1226.27 921.267,1220.47 937.266,1214.73 953.266,1209.06 969.266,1203.44 
  985.265,1197.88 1001.27,1192.37 1017.26,1186.92 1033.26,1181.52 1049.26,1176.17 1065.26,1170.87 1081.26,1165.62 1097.26,1160.42 1113.26,1155.26 1129.26,1150.14 
  1145.26,1145.07 1161.26,1140.04 1177.26,1135.05 1193.26,1130.1 1209.26,1125.19 1225.26,1120.32 1241.26,1115.49 1257.26,1110.69 1273.26,1105.93 1289.26,1101.2 
  1305.26,1096.51 1321.26,1091.85 1337.26,1087.22 1353.26,1082.63 1369.26,1078.06 1385.26,1073.53 1401.26,1069.03 1417.26,1064.56 1433.26,1060.11 1449.26,1055.7 
  1465.26,1051.31 1481.26,1046.95 1497.26,1042.62 1513.26,1038.31 1529.26,1034.03 1545.26,1029.77 1561.26,1025.54 1577.25,1021.33 1593.25,1017.15 1609.25,1012.99 
  1625.25,1008.86 1641.25,1004.74 1657.25,1000.65 1673.25,996.587 1689.25,992.541 1705.25,988.516 1721.25,984.513 1737.25,980.53 1753.25,976.568 1769.25,972.626 
  1785.25,968.704 1801.25,964.802 1817.25,960.918 1833.25,957.054 1849.25,953.209 1865.25,949.381 1881.25,945.573 1897.25,941.782 1913.25,938.008 1929.25,934.252 
  1945.25,930.514 1961.25,926.792 1977.25,923.087 1993.25,919.399 2009.25,915.726 2025.25,912.07 2041.25,908.43 2057.25,904.805 2073.25,901.196 2089.25,897.602 
  2105.25,894.023 2121.25,890.459 2137.24,886.91 2153.24,883.375 2169.24,879.855 2185.24,876.349 2201.24,872.857 2217.24,869.378 2233.24,865.913 2249.24,862.462 
  2265.24,859.024 2281.24,855.6 2297.24,852.188 2313.24,848.789 2329.24,845.403 2345.24,842.03 2361.24,838.669 2377.24,835.32 2393.24,831.984 2409.24,828.66 
  2425.24,825.347 2441.24,822.047 2457.24,818.758 2473.24,815.481 2489.24,812.215 2505.24,808.96 2521.24,805.717 2537.24,802.485 2553.24,799.263 2569.24,796.053 
  
  "/>
<polyline clip-path="url(#clip312)" style="stroke:#0000ff; stroke-linecap:butt; stroke-linejoin:round; stroke-width:4; stroke-opacity:1; fill:none" points="
  185.28,1361.23 201.279,1357.31 217.279,1353.38 233.279,1349.46 249.278,1345.53 265.278,1341.61 281.278,1337.68 297.278,1333.76 313.277,1329.83 329.277,1325.91 
  345.277,1321.98 361.276,1318.06 377.276,1314.13 393.276,1310.2 409.276,1306.28 425.275,1302.35 441.275,1298.43 457.275,1294.5 473.274,1290.58 489.274,1286.65 
  505.274,1282.73 521.274,1278.8 537.273,1274.88 553.273,1270.95 569.273,1267.03 585.272,1263.1 601.272,1259.17 617.272,1255.25 633.272,1251.32 649.271,1247.4 
  665.271,1243.47 681.271,1239.55 697.271,1235.62 713.27,1231.7 729.27,1227.77 745.27,1223.85 761.269,1219.92 777.269,1216 793.269,1212.07 809.269,1208.15 
  825.268,1204.22 841.268,1200.29 857.268,1196.37 873.267,1192.44 889.267,1188.52 905.267,1184.59 921.267,1180.67 937.266,1176.74 953.266,1172.82 969.266,1168.89 
  985.265,1164.97 1001.27,1161.04 1017.26,1157.12 1033.26,1153.19 1049.26,1149.27 1065.26,1145.34 1081.26,1141.41 1097.26,1137.49 1113.26,1133.56 1129.26,1129.64 
  1145.26,1125.71 1161.26,1121.79 1177.26,1117.86 1193.26,1113.94 1209.26,1110.01 1225.26,1106.09 1241.26,1102.16 1257.26,1098.24 1273.26,1094.31 1289.26,1090.39 
  1305.26,1086.46 1321.26,1082.53 1337.26,1078.61 1353.26,1074.68 1369.26,1070.76 1385.26,1066.83 1401.26,1062.91 1417.26,1058.98 1433.26,1055.06 1449.26,1051.13 
  1465.26,1047.21 1481.26,1043.28 1497.26,1039.36 1513.26,1035.43 1529.26,1031.51 1545.26,1027.58 1561.26,1023.65 1577.25,1019.73 1593.25,1015.8 1609.25,1011.88 
  1625.25,1007.95 1641.25,1004.03 1657.25,1000.1 1673.25,996.177 1689.25,992.252 1705.25,988.326 1721.25,984.401 1737.25,980.476 1753.25,976.55 1769.25,972.625 
  1785.25,968.7 1801.25,964.774 1817.25,960.849 1833.25,956.924 1849.25,952.998 1865.25,949.073 1881.25,945.148 1897.25,941.222 1913.25,937.297 1929.25,933.372 
  1945.25,929.446 1961.25,925.521 1977.25,921.596 1993.25,917.67 2009.25,913.745 2025.25,909.82 2041.25,905.894 2057.25,901.969 2073.25,898.044 2089.25,894.118 
  2105.25,890.193 2121.25,886.268 2137.24,882.342 2153.24,878.417 2169.24,874.492 2185.24,870.566 2201.24,866.641 2217.24,862.715 2233.24,858.79 2249.24,854.865 
  2265.24,850.939 2281.24,847.014 2297.24,843.089 2313.24,839.163 2329.24,835.238 2345.24,831.313 2361.24,827.387 2377.24,823.462 2393.24,819.537 2409.24,815.611 
  2425.24,811.686 2441.24,807.761 2457.24,803.835 2473.24,799.91 2489.24,795.985 2505.24,792.059 2521.24,788.134 2537.24,784.209 2553.24,780.283 2569.24,776.358 
  
  "/>
<polyline clip-path="url(#clip312)" style="stroke:#ff0000; stroke-linecap:butt; stroke-linejoin:round; stroke-width:4; stroke-opacity:1; fill:none" points="
  185.28,1751.15 298.037,1740.05 344.743,1728.95 380.581,1717.84 410.794,1706.74 437.413,1695.64 461.478,1684.54 483.607,1673.43 504.205,1662.33 523.552,1651.23 
  541.85,1640.13 559.253,1629.02 575.882,1617.92 591.832,1606.82 607.179,1595.72 621.987,1584.61 636.309,1573.51 650.19,1562.41 663.668,1551.31 676.777,1540.2 
  689.546,1529.1 701.999,1518 714.158,1506.9 726.045,1495.79 737.675,1484.69 749.066,1473.59 760.231,1462.48 771.184,1451.38 781.935,1440.28 792.496,1429.18 
  802.877,1418.07 813.086,1406.97 823.131,1395.87 833.021,1384.77 842.762,1373.66 852.361,1362.56 861.824,1351.46 871.156,1340.36 880.362,1329.25 889.449,1318.15 
  898.42,1307.05 907.279,1295.95 916.031,1284.84 924.679,1273.74 933.227,1262.64 941.679,1251.54 950.037,1240.43 958.305,1229.33 966.485,1218.23 974.581,1207.13 
  982.594,1196.02 990.528,1184.92 998.384,1173.82 1006.17,1162.72 1013.87,1151.61 1021.51,1140.51 1029.08,1129.41 1036.58,1118.31 1044.01,1107.2 1051.39,1096.1 
  1058.69,1085 1065.94,1073.9 1073.13,1062.79 1080.26,1051.69 1087.34,1040.59 1094.36,1029.49 1101.32,1018.38 1108.24,1007.28 1115.1,996.178 1121.91,985.076 
  1128.68,973.973 1135.39,962.871 1142.06,951.768 1148.68,940.666 1155.25,929.563 1161.79,918.46 1168.28,907.358 1174.72,896.255 1181.13,885.153 1187.49,874.05 
  1193.81,862.948 1200.1,851.845 1206.34,840.743 1212.55,829.64 1218.72,818.538 1224.85,807.435 1230.95,796.332 1237.01,785.23 1243.04,774.127 1249.03,763.025 
  1254.99,751.922 1260.92,740.82 1266.81,729.717 1272.67,718.615 1278.5,707.512 1284.3,696.41 1290.07,685.307 1295.81,674.205 1301.52,663.102 1307.2,651.999 
  1312.85,640.897 1318.48,629.794 1324.07,618.692 1329.64,607.589 1335.18,596.487 1340.7,585.384 1346.19,574.282 1351.65,563.179 1357.09,552.077 1362.5,540.974 
  1367.89,529.872 1373.25,518.769 1378.59,507.666 1383.91,496.564 1389.2,485.461 1394.47,474.359 1399.71,463.256 1404.94,452.154 1410.14,441.051 1415.32,429.949 
  1420.47,418.846 1425.61,407.744 1430.72,396.641 1435.82,385.538 1440.89,374.436 1445.94,363.333 1450.98,352.231 1455.99,341.128 1460.98,330.026 1465.96,318.923 
  1470.91,307.821 1475.85,296.718 1480.76,285.616 1485.66,274.513 1490.54,263.411 1495.4,252.308 1500.24,241.205 1505.07,230.103 1509.88,219 1514.67,207.898 
  1519.44,196.795 1524.2,185.693 1528.94,174.59 1533.66,163.488 1538.37,152.385 1543.06,141.283 1547.73,130.18 1552.39,119.078 1557.03,107.975 1561.66,96.8724 
  
  "/>
<polyline clip-path="url(#clip312)" style="stroke:#ff0000; stroke-linecap:butt; stroke-linejoin:round; stroke-width:4; stroke-opacity:1; fill:none" points="
  747.184,1751.15 752.841,1740.05 758.497,1728.95 764.154,1717.84 769.811,1706.74 775.468,1695.64 781.124,1684.54 786.781,1673.43 792.438,1662.33 798.095,1651.23 
  803.751,1640.13 809.408,1629.02 815.065,1617.92 820.722,1606.82 826.378,1595.72 832.035,1584.61 837.692,1573.51 843.349,1562.41 849.005,1551.31 854.662,1540.2 
  860.319,1529.1 865.976,1518 871.632,1506.9 877.289,1495.79 882.946,1484.69 888.603,1473.59 894.259,1462.48 899.916,1451.38 905.573,1440.28 911.23,1429.18 
  916.886,1418.07 922.543,1406.97 928.2,1395.87 933.857,1384.77 939.513,1373.66 945.17,1362.56 950.827,1351.46 956.484,1340.36 962.14,1329.25 967.797,1318.15 
  973.454,1307.05 979.111,1295.95 984.767,1284.84 990.424,1273.74 996.081,1262.64 1001.74,1251.54 1007.39,1240.43 1013.05,1229.33 1018.71,1218.23 1024.36,1207.13 
  1030.02,1196.02 1035.68,1184.92 1041.33,1173.82 1046.99,1162.72 1052.65,1151.61 1058.31,1140.51 1063.96,1129.41 1069.62,1118.31 1075.28,1107.2 1080.93,1096.1 
  1086.59,1085 1092.25,1073.9 1097.9,1062.79 1103.56,1051.69 1109.22,1040.59 1114.87,1029.49 1120.53,1018.38 1126.19,1007.28 1131.84,996.178 1137.5,985.076 
  1143.16,973.973 1148.81,962.871 1154.47,951.768 1160.13,940.666 1165.78,929.563 1171.44,918.46 1177.1,907.358 1182.75,896.255 1188.41,885.153 1194.07,874.05 
  1199.72,862.948 1205.38,851.845 1211.04,840.743 1216.69,829.64 1222.35,818.538 1228.01,807.435 1233.66,796.332 1239.32,785.23 1244.98,774.127 1250.63,763.025 
  1256.29,751.922 1261.95,740.82 1267.61,729.717 1273.26,718.615 1278.92,707.512 1284.58,696.41 1290.23,685.307 1295.89,674.205 1301.55,663.102 1307.2,651.999 
  1312.86,640.897 1318.52,629.794 1324.17,618.692 1329.83,607.589 1335.49,596.487 1341.14,585.384 1346.8,574.282 1352.46,563.179 1358.11,552.077 1363.77,540.974 
  1369.43,529.872 1375.08,518.769 1380.74,507.666 1386.4,496.564 1392.05,485.461 1397.71,474.359 1403.37,463.256 1409.02,452.154 1414.68,441.051 1420.34,429.949 
  1425.99,418.846 1431.65,407.744 1437.31,396.641 1442.96,385.538 1448.62,374.436 1454.28,363.333 1459.93,352.231 1465.59,341.128 1471.25,330.026 1476.91,318.923 
  1482.56,307.821 1488.22,296.718 1493.88,285.616 1499.53,274.513 1505.19,263.411 1510.85,252.308 1516.5,241.205 1522.16,230.103 1527.82,219 1533.47,207.898 
  1539.13,196.795 1544.79,185.693 1550.44,174.59 1556.1,163.488 1561.76,152.385 1567.41,141.283 1573.07,130.18 1578.73,119.078 1584.38,107.975 1590.04,96.8724 
  
  "/>
</svg>
