<?xml version="1.0" encoding="utf-8"?>
<svg xmlns="http://www.w3.org/2000/svg" xmlns:xlink="http://www.w3.org/1999/xlink" width="672" height="480" viewBox="0 0 2688 1920">
<defs>
  <clipPath id="clip060">
    <rect x="0" y="0" width="2688" height="1920"/>
  </clipPath>
</defs>
<path clip-path="url(#clip060)" d="
M0 1920 L2688 1920 L2688 0 L0 0  Z
  " fill="#ffffff" fill-rule="evenodd" fill-opacity="1"/>
<defs>
  <clipPath id="clip061">
    <rect x="537" y="0" width="1883" height="1883"/>
  </clipPath>
</defs>
<path clip-path="url(#clip060)" d="
M141.839 1800.78 L2640.76 1800.78 L2640.76 47.2441 L141.839 47.2441  Z
  " fill="#ffffff" fill-rule="evenodd" fill-opacity="1"/>
<defs>
  <clipPath id="clip062">
    <rect x="141" y="47" width="2500" height="1755"/>
  </clipPath>
</defs>
<polyline clip-path="url(#clip062)" style="stroke:#000000; stroke-linecap:butt; stroke-linejoin:round; stroke-width:2; stroke-opacity:0.1; fill:none" points="
  212.563,1800.78 212.563,47.2441 
  "/>
<polyline clip-path="url(#clip062)" style="stroke:#000000; stroke-linecap:butt; stroke-linejoin:round; stroke-width:2; stroke-opacity:0.1; fill:none" points="
  801.931,1800.78 801.931,47.2441 
  "/>
<polyline clip-path="url(#clip062)" style="stroke:#000000; stroke-linecap:butt; stroke-linejoin:round; stroke-width:2; stroke-opacity:0.1; fill:none" points="
  1391.3,1800.78 1391.3,47.2441 
  "/>
<polyline clip-path="url(#clip062)" style="stroke:#000000; stroke-linecap:butt; stroke-linejoin:round; stroke-width:2; stroke-opacity:0.1; fill:none" points="
  1980.66,1800.78 1980.66,47.2441 
  "/>
<polyline clip-path="url(#clip062)" style="stroke:#000000; stroke-linecap:butt; stroke-linejoin:round; stroke-width:2; stroke-opacity:0.1; fill:none" points="
  2570.03,1800.78 2570.03,47.2441 
  "/>
<polyline clip-path="url(#clip060)" style="stroke:#000000; stroke-linecap:butt; stroke-linejoin:round; stroke-width:4; stroke-opacity:1; fill:none" points="
  141.839,1800.78 2640.76,1800.78 
  "/>
<polyline clip-path="url(#clip060)" style="stroke:#000000; stroke-linecap:butt; stroke-linejoin:round; stroke-width:4; stroke-opacity:1; fill:none" points="
  212.563,1800.78 212.563,1781.88 
  "/>
<polyline clip-path="url(#clip060)" style="stroke:#000000; stroke-linecap:butt; stroke-linejoin:round; stroke-width:4; stroke-opacity:1; fill:none" points="
  801.931,1800.78 801.931,1781.88 
  "/>
<polyline clip-path="url(#clip060)" style="stroke:#000000; stroke-linecap:butt; stroke-linejoin:round; stroke-width:4; stroke-opacity:1; fill:none" points="
  1391.3,1800.78 1391.3,1781.88 
  "/>
<polyline clip-path="url(#clip060)" style="stroke:#000000; stroke-linecap:butt; stroke-linejoin:round; stroke-width:4; stroke-opacity:1; fill:none" points="
  1980.66,1800.78 1980.66,1781.88 
  "/>
<polyline clip-path="url(#clip060)" style="stroke:#000000; stroke-linecap:butt; stroke-linejoin:round; stroke-width:4; stroke-opacity:1; fill:none" points="
  2570.03,1800.78 2570.03,1781.88 
  "/>
<path clip-path="url(#clip060)" d="M212.563 1834 Q208.952 1834 207.124 1837.57 Q205.318 1841.11 205.318 1848.24 Q205.318 1855.34 207.124 1858.91 Q208.952 1862.45 212.563 1862.45 Q216.198 1862.45 218.003 1858.91 Q219.832 1855.34 219.832 1848.24 Q219.832 1841.11 218.003 1837.57 Q216.198 1834 212.563 1834 M212.563 1830.3 Q218.374 1830.3 221.429 1834.9 Q224.508 1839.49 224.508 1848.24 Q224.508 1856.96 221.429 1861.57 Q218.374 1866.15 212.563 1866.15 Q206.753 1866.15 203.675 1861.57 Q200.619 1856.96 200.619 1848.24 Q200.619 1839.49 203.675 1834.9 Q206.753 1830.3 212.563 1830.3 Z" fill="#000000" fill-rule="evenodd" fill-opacity="1" /><path clip-path="url(#clip060)" d="M792.313 1861.55 L799.951 1861.55 L799.951 1835.18 L791.641 1836.85 L791.641 1832.59 L799.905 1830.92 L804.581 1830.92 L804.581 1861.55 L812.22 1861.55 L812.22 1865.48 L792.313 1865.48 L792.313 1861.55 Z" fill="#000000" fill-rule="evenodd" fill-opacity="1" /><path clip-path="url(#clip060)" d="M1385.95 1861.55 L1402.27 1861.55 L1402.27 1865.48 L1380.33 1865.48 L1380.33 1861.55 Q1382.99 1858.79 1387.57 1854.16 Q1392.18 1849.51 1393.36 1848.17 Q1395.6 1845.65 1396.48 1843.91 Q1397.39 1842.15 1397.39 1840.46 Q1397.39 1837.71 1395.44 1835.97 Q1393.52 1834.23 1390.42 1834.23 Q1388.22 1834.23 1385.77 1835 Q1383.33 1835.76 1380.56 1837.31 L1380.56 1832.59 Q1383.38 1831.46 1385.83 1830.88 Q1388.29 1830.3 1390.33 1830.3 Q1395.7 1830.3 1398.89 1832.98 Q1402.08 1835.67 1402.08 1840.16 Q1402.08 1842.29 1401.27 1844.21 Q1400.49 1846.11 1398.38 1848.7 Q1397.8 1849.37 1394.7 1852.59 Q1391.6 1855.78 1385.95 1861.55 Z" fill="#000000" fill-rule="evenodd" fill-opacity="1" /><path clip-path="url(#clip060)" d="M1984.91 1846.85 Q1988.27 1847.57 1990.14 1849.84 Q1992.04 1852.1 1992.04 1855.44 Q1992.04 1860.55 1988.52 1863.35 Q1985.01 1866.15 1978.52 1866.15 Q1976.35 1866.15 1974.03 1865.71 Q1971.74 1865.3 1969.29 1864.44 L1969.29 1859.93 Q1971.23 1861.06 1973.55 1861.64 Q1975.86 1862.22 1978.38 1862.22 Q1982.78 1862.22 1985.07 1860.48 Q1987.39 1858.75 1987.39 1855.44 Q1987.39 1852.38 1985.24 1850.67 Q1983.11 1848.93 1979.29 1848.93 L1975.26 1848.93 L1975.26 1845.09 L1979.47 1845.09 Q1982.92 1845.09 1984.75 1843.72 Q1986.58 1842.34 1986.58 1839.74 Q1986.58 1837.08 1984.68 1835.67 Q1982.81 1834.23 1979.29 1834.23 Q1977.37 1834.23 1975.17 1834.65 Q1972.97 1835.07 1970.33 1835.95 L1970.33 1831.78 Q1972.99 1831.04 1975.31 1830.67 Q1977.64 1830.3 1979.7 1830.3 Q1985.03 1830.3 1988.13 1832.73 Q1991.23 1835.14 1991.23 1839.26 Q1991.23 1842.13 1989.59 1844.12 Q1987.94 1846.09 1984.91 1846.85 Z" fill="#000000" fill-rule="evenodd" fill-opacity="1" /><path clip-path="url(#clip060)" d="M2573.04 1835 L2561.24 1853.45 L2573.04 1853.45 L2573.04 1835 M2571.81 1830.92 L2577.69 1830.92 L2577.69 1853.45 L2582.62 1853.45 L2582.62 1857.34 L2577.69 1857.34 L2577.69 1865.48 L2573.04 1865.48 L2573.04 1857.34 L2557.44 1857.34 L2557.44 1852.82 L2571.81 1830.92 Z" fill="#000000" fill-rule="evenodd" fill-opacity="1" /><polyline clip-path="url(#clip062)" style="stroke:#000000; stroke-linecap:butt; stroke-linejoin:round; stroke-width:2; stroke-opacity:0.1; fill:none" points="
  141.839,1751.15 2640.76,1751.15 
  "/>
<polyline clip-path="url(#clip062)" style="stroke:#000000; stroke-linecap:butt; stroke-linejoin:round; stroke-width:2; stroke-opacity:0.1; fill:none" points="
  141.839,1234.19 2640.76,1234.19 
  "/>
<polyline clip-path="url(#clip062)" style="stroke:#000000; stroke-linecap:butt; stroke-linejoin:round; stroke-width:2; stroke-opacity:0.1; fill:none" points="
  141.839,717.227 2640.76,717.227 
  "/>
<polyline clip-path="url(#clip062)" style="stroke:#000000; stroke-linecap:butt; stroke-linejoin:round; stroke-width:2; stroke-opacity:0.1; fill:none" points="
  141.839,200.265 2640.76,200.265 
  "/>
<polyline clip-path="url(#clip060)" style="stroke:#000000; stroke-linecap:butt; stroke-linejoin:round; stroke-width:4; stroke-opacity:1; fill:none" points="
  141.839,1800.78 141.839,47.2441 
  "/>
<polyline clip-path="url(#clip060)" style="stroke:#000000; stroke-linecap:butt; stroke-linejoin:round; stroke-width:4; stroke-opacity:1; fill:none" points="
  141.839,1751.15 160.737,1751.15 
  "/>
<polyline clip-path="url(#clip060)" style="stroke:#000000; stroke-linecap:butt; stroke-linejoin:round; stroke-width:4; stroke-opacity:1; fill:none" points="
  141.839,1234.19 160.737,1234.19 
  "/>
<polyline clip-path="url(#clip060)" style="stroke:#000000; stroke-linecap:butt; stroke-linejoin:round; stroke-width:4; stroke-opacity:1; fill:none" points="
  141.839,717.227 160.737,717.227 
  "/>
<polyline clip-path="url(#clip060)" style="stroke:#000000; stroke-linecap:butt; stroke-linejoin:round; stroke-width:4; stroke-opacity:1; fill:none" points="
  141.839,200.265 160.737,200.265 
  "/>
<path clip-path="url(#clip060)" d="M89.5751 1736.95 Q85.964 1736.95 84.1353 1740.51 Q82.3297 1744.06 82.3297 1751.19 Q82.3297 1758.29 84.1353 1761.86 Q85.964 1765.4 89.5751 1765.4 Q93.2093 1765.4 95.0148 1761.86 Q96.8435 1758.29 96.8435 1751.19 Q96.8435 1744.06 95.0148 1740.51 Q93.2093 1736.95 89.5751 1736.95 M89.5751 1733.25 Q95.3852 1733.25 98.4408 1737.85 Q101.519 1742.44 101.519 1751.19 Q101.519 1759.91 98.4408 1764.52 Q95.3852 1769.1 89.5751 1769.1 Q83.7649 1769.1 80.6862 1764.52 Q77.6307 1759.91 77.6307 1751.19 Q77.6307 1742.44 80.6862 1737.85 Q83.7649 1733.25 89.5751 1733.25 Z" fill="#000000" fill-rule="evenodd" fill-opacity="1" /><path clip-path="url(#clip060)" d="M80.6168 1216.91 L98.9732 1216.91 L98.9732 1220.84 L84.8992 1220.84 L84.8992 1229.32 Q85.9177 1228.97 86.9362 1228.81 Q87.9547 1228.62 88.9732 1228.62 Q94.7602 1228.62 98.1398 1231.79 Q101.519 1234.96 101.519 1240.38 Q101.519 1245.96 98.0472 1249.06 Q94.575 1252.14 88.2556 1252.14 Q86.0797 1252.14 83.8112 1251.77 Q81.5658 1251.4 79.1584 1250.66 L79.1584 1245.96 Q81.2418 1247.09 83.464 1247.65 Q85.6862 1248.21 88.163 1248.21 Q92.1676 1248.21 94.5056 1246.1 Q96.8435 1243.99 96.8435 1240.38 Q96.8435 1236.77 94.5056 1234.66 Q92.1676 1232.56 88.163 1232.56 Q86.288 1232.56 84.4131 1232.97 Q82.5612 1233.39 80.6168 1234.27 L80.6168 1216.91 Z" fill="#000000" fill-rule="evenodd" fill-opacity="1" /><path clip-path="url(#clip060)" d="M50.2234 730.572 L57.8623 730.572 L57.8623 704.206 L49.5521 705.873 L49.5521 701.614 L57.816 699.947 L62.4919 699.947 L62.4919 730.572 L70.1307 730.572 L70.1307 734.507 L50.2234 734.507 L50.2234 730.572 Z" fill="#000000" fill-rule="evenodd" fill-opacity="1" /><path clip-path="url(#clip060)" d="M89.5751 703.026 Q85.964 703.026 84.1353 706.59 Q82.3297 710.132 82.3297 717.262 Q82.3297 724.368 84.1353 727.933 Q85.964 731.474 89.5751 731.474 Q93.2093 731.474 95.0148 727.933 Q96.8435 724.368 96.8435 717.262 Q96.8435 710.132 95.0148 706.59 Q93.2093 703.026 89.5751 703.026 M89.5751 699.322 Q95.3852 699.322 98.4408 703.928 Q101.519 708.512 101.519 717.262 Q101.519 725.988 98.4408 730.595 Q95.3852 735.178 89.5751 735.178 Q83.7649 735.178 80.6862 730.595 Q77.6307 725.988 77.6307 717.262 Q77.6307 708.512 80.6862 703.928 Q83.7649 699.322 89.5751 699.322 Z" fill="#000000" fill-rule="evenodd" fill-opacity="1" /><path clip-path="url(#clip060)" d="M51.2188 213.61 L58.8576 213.61 L58.8576 187.244 L50.5475 188.911 L50.5475 184.652 L58.8113 182.985 L63.4872 182.985 L63.4872 213.61 L71.1261 213.61 L71.1261 217.545 L51.2188 217.545 L51.2188 213.61 Z" fill="#000000" fill-rule="evenodd" fill-opacity="1" /><path clip-path="url(#clip060)" d="M80.6168 182.985 L98.9732 182.985 L98.9732 186.92 L84.8992 186.92 L84.8992 195.392 Q85.9177 195.045 86.9362 194.883 Q87.9547 194.698 88.9732 194.698 Q94.7602 194.698 98.1398 197.869 Q101.519 201.04 101.519 206.457 Q101.519 212.036 98.0472 215.137 Q94.575 218.216 88.2556 218.216 Q86.0797 218.216 83.8112 217.846 Q81.5658 217.475 79.1584 216.735 L79.1584 212.036 Q81.2418 213.17 83.464 213.725 Q85.6862 214.281 88.163 214.281 Q92.1676 214.281 94.5056 212.175 Q96.8435 210.068 96.8435 206.457 Q96.8435 202.846 94.5056 200.739 Q92.1676 198.633 88.163 198.633 Q86.288 198.633 84.4131 199.05 Q82.5612 199.466 80.6168 200.346 L80.6168 182.985 Z" fill="#000000" fill-rule="evenodd" fill-opacity="1" /><polyline clip-path="url(#clip062)" style="stroke:#009af9; stroke-linecap:butt; stroke-linejoin:round; stroke-width:4; stroke-opacity:1; fill:none" points="
  212.563,1647.76 227.912,1645.88 369.83,1626.75 455.117,1613.63 527.226,1601.46 605.557,1587.01 677.77,1572.46 755.191,1555.43 844.891,1533.65 924.606,1512.27 
  994.508,1491.8 1070.72,1467.48 1147.39,1440.72 1232.15,1408.18 1312.8,1374.05 1396.66,1334.97 1467.25,1298.94 1510.34,1275.43 1553.43,1250.7 1592.9,1226.92 
  1632.38,1202.01 1668.84,1177.95 1705.29,1152.84 1742.22,1126.28 1779.15,1098.54 1820.54,1065.99 1861.93,1031.81 1899.44,999.373 1936.94,965.47 1979.88,924.773 
  2022.82,881.968 2062.58,840.36 2102.34,796.759 2141.54,751.732 2180.74,704.58 2218.79,656.673 2256.85,606.572 2295.87,552.83 2334.88,496.566 2377.62,431.884 
  2420.37,363.868 2451.41,312.277 2482.46,258.768 2513.51,203.268 2544.55,145.705 2550.92,133.634 2557.29,121.472 2563.66,109.218 2570.03,96.8724 
  "/>
<polyline clip-path="url(#clip062)" style="stroke:#e26f46; stroke-linecap:butt; stroke-linejoin:round; stroke-width:4; stroke-opacity:1; fill:none" points="
  1391.3,1751.15 1391.3,1337.58 212.563,1337.58 
  "/>
</svg>
