<?xml version="1.0" encoding="utf-8"?>
<svg xmlns="http://www.w3.org/2000/svg" xmlns:xlink="http://www.w3.org/1999/xlink" width="672" height="480" viewBox="0 0 2688 1920">
<defs>
  <clipPath id="clip640">
    <rect x="0" y="0" width="2688" height="1920"/>
  </clipPath>
</defs>
<path clip-path="url(#clip640)" d="
M0 1920 L2688 1920 L2688 0 L0 0  Z
  " fill="#ffffff" fill-rule="evenodd" fill-opacity="1"/>
<defs>
  <clipPath id="clip641">
    <rect x="537" y="0" width="1883" height="1883"/>
  </clipPath>
</defs>
<path clip-path="url(#clip640)" d="
M196.816 1800.78 L2640.76 1800.78 L2640.76 47.2441 L196.816 47.2441  Z
  " fill="#ffffff" fill-rule="evenodd" fill-opacity="1"/>
<defs>
  <clipPath id="clip642">
    <rect x="196" y="47" width="2445" height="1755"/>
  </clipPath>
</defs>
<polyline clip-path="url(#clip642)" style="stroke:#000000; stroke-linecap:butt; stroke-linejoin:round; stroke-width:2; stroke-opacity:0.1; fill:none" points="
  370.784,1800.78 370.784,47.2441 
  "/>
<polyline clip-path="url(#clip642)" style="stroke:#000000; stroke-linecap:butt; stroke-linejoin:round; stroke-width:2; stroke-opacity:0.1; fill:none" points="
  894.785,1800.78 894.785,47.2441 
  "/>
<polyline clip-path="url(#clip642)" style="stroke:#000000; stroke-linecap:butt; stroke-linejoin:round; stroke-width:2; stroke-opacity:0.1; fill:none" points="
  1418.79,1800.78 1418.79,47.2441 
  "/>
<polyline clip-path="url(#clip642)" style="stroke:#000000; stroke-linecap:butt; stroke-linejoin:round; stroke-width:2; stroke-opacity:0.1; fill:none" points="
  1942.79,1800.78 1942.79,47.2441 
  "/>
<polyline clip-path="url(#clip642)" style="stroke:#000000; stroke-linecap:butt; stroke-linejoin:round; stroke-width:2; stroke-opacity:0.1; fill:none" points="
  2466.79,1800.78 2466.79,47.2441 
  "/>
<polyline clip-path="url(#clip640)" style="stroke:#000000; stroke-linecap:butt; stroke-linejoin:round; stroke-width:4; stroke-opacity:1; fill:none" points="
  196.816,1800.78 2640.76,1800.78 
  "/>
<polyline clip-path="url(#clip640)" style="stroke:#000000; stroke-linecap:butt; stroke-linejoin:round; stroke-width:4; stroke-opacity:1; fill:none" points="
  370.784,1800.78 370.784,1781.88 
  "/>
<polyline clip-path="url(#clip640)" style="stroke:#000000; stroke-linecap:butt; stroke-linejoin:round; stroke-width:4; stroke-opacity:1; fill:none" points="
  894.785,1800.78 894.785,1781.88 
  "/>
<polyline clip-path="url(#clip640)" style="stroke:#000000; stroke-linecap:butt; stroke-linejoin:round; stroke-width:4; stroke-opacity:1; fill:none" points="
  1418.79,1800.78 1418.79,1781.88 
  "/>
<polyline clip-path="url(#clip640)" style="stroke:#000000; stroke-linecap:butt; stroke-linejoin:round; stroke-width:4; stroke-opacity:1; fill:none" points="
  1942.79,1800.78 1942.79,1781.88 
  "/>
<polyline clip-path="url(#clip640)" style="stroke:#000000; stroke-linecap:butt; stroke-linejoin:round; stroke-width:4; stroke-opacity:1; fill:none" points="
  2466.79,1800.78 2466.79,1781.88 
  "/>
<path clip-path="url(#clip640)" d="M317.312 1848.65 L346.988 1848.65 L346.988 1852.59 L317.312 1852.59 L317.312 1848.65 Z" fill="#000000" fill-rule="evenodd" fill-opacity="1" /><path clip-path="url(#clip640)" d="M357.891 1861.55 L365.53 1861.55 L365.53 1835.18 L357.22 1836.85 L357.22 1832.59 L365.483 1830.92 L370.159 1830.92 L370.159 1861.55 L377.798 1861.55 L377.798 1865.48 L357.891 1865.48 L357.891 1861.55 Z" fill="#000000" fill-rule="evenodd" fill-opacity="1" /><path clip-path="url(#clip640)" d="M387.243 1859.6 L392.127 1859.6 L392.127 1865.48 L387.243 1865.48 L387.243 1859.6 Z" fill="#000000" fill-rule="evenodd" fill-opacity="1" /><path clip-path="url(#clip640)" d="M412.312 1834 Q408.701 1834 406.872 1837.57 Q405.066 1841.11 405.066 1848.24 Q405.066 1855.34 406.872 1858.91 Q408.701 1862.45 412.312 1862.45 Q415.946 1862.45 417.752 1858.91 Q419.58 1855.34 419.58 1848.24 Q419.58 1841.11 417.752 1837.57 Q415.946 1834 412.312 1834 M412.312 1830.3 Q418.122 1830.3 421.178 1834.9 Q424.256 1839.49 424.256 1848.24 Q424.256 1856.96 421.178 1861.57 Q418.122 1866.15 412.312 1866.15 Q406.502 1866.15 403.423 1861.57 Q400.367 1856.96 400.367 1848.24 Q400.367 1839.49 403.423 1834.9 Q406.502 1830.3 412.312 1830.3 Z" fill="#000000" fill-rule="evenodd" fill-opacity="1" /><path clip-path="url(#clip640)" d="M841.811 1848.65 L871.487 1848.65 L871.487 1852.59 L841.811 1852.59 L841.811 1848.65 Z" fill="#000000" fill-rule="evenodd" fill-opacity="1" /><path clip-path="url(#clip640)" d="M891.579 1834 Q887.968 1834 886.139 1837.57 Q884.334 1841.11 884.334 1848.24 Q884.334 1855.34 886.139 1858.91 Q887.968 1862.45 891.579 1862.45 Q895.213 1862.45 897.019 1858.91 Q898.848 1855.34 898.848 1848.24 Q898.848 1841.11 897.019 1837.57 Q895.213 1834 891.579 1834 M891.579 1830.3 Q897.389 1830.3 900.445 1834.9 Q903.523 1839.49 903.523 1848.24 Q903.523 1856.96 900.445 1861.57 Q897.389 1866.15 891.579 1866.15 Q885.769 1866.15 882.69 1861.57 Q879.635 1856.96 879.635 1848.24 Q879.635 1839.49 882.69 1834.9 Q885.769 1830.3 891.579 1830.3 Z" fill="#000000" fill-rule="evenodd" fill-opacity="1" /><path clip-path="url(#clip640)" d="M911.741 1859.6 L916.625 1859.6 L916.625 1865.48 L911.741 1865.48 L911.741 1859.6 Z" fill="#000000" fill-rule="evenodd" fill-opacity="1" /><path clip-path="url(#clip640)" d="M926.857 1830.92 L945.213 1830.92 L945.213 1834.86 L931.139 1834.86 L931.139 1843.33 Q932.158 1842.98 933.176 1842.82 Q934.195 1842.64 935.213 1842.64 Q941 1842.64 944.38 1845.81 Q947.759 1848.98 947.759 1854.4 Q947.759 1859.97 944.287 1863.08 Q940.815 1866.15 934.496 1866.15 Q932.32 1866.15 930.051 1865.78 Q927.806 1865.41 925.398 1864.67 L925.398 1859.97 Q927.482 1861.11 929.704 1861.66 Q931.926 1862.22 934.403 1862.22 Q938.408 1862.22 940.746 1860.11 Q943.083 1858.01 943.083 1854.4 Q943.083 1850.78 940.746 1848.68 Q938.408 1846.57 934.403 1846.57 Q932.528 1846.57 930.653 1846.99 Q928.801 1847.4 926.857 1848.28 L926.857 1830.92 Z" fill="#000000" fill-rule="evenodd" fill-opacity="1" /><path clip-path="url(#clip640)" d="M1396.17 1834 Q1392.56 1834 1390.73 1837.57 Q1388.93 1841.11 1388.93 1848.24 Q1388.93 1855.34 1390.73 1858.91 Q1392.56 1862.45 1396.17 1862.45 Q1399.8 1862.45 1401.61 1858.91 Q1403.44 1855.34 1403.44 1848.24 Q1403.44 1841.11 1401.61 1837.57 Q1399.8 1834 1396.17 1834 M1396.17 1830.3 Q1401.98 1830.3 1405.04 1834.9 Q1408.11 1839.49 1408.11 1848.24 Q1408.11 1856.96 1405.04 1861.57 Q1401.98 1866.15 1396.17 1866.15 Q1390.36 1866.15 1387.28 1861.57 Q1384.23 1856.96 1384.23 1848.24 Q1384.23 1839.49 1387.28 1834.9 Q1390.36 1830.3 1396.17 1830.3 Z" fill="#000000" fill-rule="evenodd" fill-opacity="1" /><path clip-path="url(#clip640)" d="M1416.33 1859.6 L1421.22 1859.6 L1421.22 1865.48 L1416.33 1865.48 L1416.33 1859.6 Z" fill="#000000" fill-rule="evenodd" fill-opacity="1" /><path clip-path="url(#clip640)" d="M1441.4 1834 Q1437.79 1834 1435.96 1837.57 Q1434.16 1841.11 1434.16 1848.24 Q1434.16 1855.34 1435.96 1858.91 Q1437.79 1862.45 1441.4 1862.45 Q1445.04 1862.45 1446.84 1858.91 Q1448.67 1855.34 1448.67 1848.24 Q1448.67 1841.11 1446.84 1837.57 Q1445.04 1834 1441.4 1834 M1441.4 1830.3 Q1447.21 1830.3 1450.27 1834.9 Q1453.35 1839.49 1453.35 1848.24 Q1453.35 1856.96 1450.27 1861.57 Q1447.21 1866.15 1441.4 1866.15 Q1435.59 1866.15 1432.51 1861.57 Q1429.46 1856.96 1429.46 1848.24 Q1429.46 1839.49 1432.51 1834.9 Q1435.59 1830.3 1441.4 1830.3 Z" fill="#000000" fill-rule="evenodd" fill-opacity="1" /><path clip-path="url(#clip640)" d="M1920.67 1834 Q1917.06 1834 1915.23 1837.57 Q1913.42 1841.11 1913.42 1848.24 Q1913.42 1855.34 1915.23 1858.91 Q1917.06 1862.45 1920.67 1862.45 Q1924.3 1862.45 1926.11 1858.91 Q1927.94 1855.34 1927.94 1848.24 Q1927.94 1841.11 1926.11 1837.57 Q1924.3 1834 1920.67 1834 M1920.67 1830.3 Q1926.48 1830.3 1929.53 1834.9 Q1932.61 1839.49 1932.61 1848.24 Q1932.61 1856.96 1929.53 1861.57 Q1926.48 1866.15 1920.67 1866.15 Q1914.86 1866.15 1911.78 1861.57 Q1908.72 1856.96 1908.72 1848.24 Q1908.72 1839.49 1911.78 1834.9 Q1914.86 1830.3 1920.67 1830.3 Z" fill="#000000" fill-rule="evenodd" fill-opacity="1" /><path clip-path="url(#clip640)" d="M1940.83 1859.6 L1945.72 1859.6 L1945.72 1865.48 L1940.83 1865.48 L1940.83 1859.6 Z" fill="#000000" fill-rule="evenodd" fill-opacity="1" /><path clip-path="url(#clip640)" d="M1955.95 1830.92 L1974.3 1830.92 L1974.3 1834.86 L1960.23 1834.86 L1960.23 1843.33 Q1961.25 1842.98 1962.27 1842.82 Q1963.28 1842.64 1964.3 1842.64 Q1970.09 1842.64 1973.47 1845.81 Q1976.85 1848.98 1976.85 1854.4 Q1976.85 1859.97 1973.38 1863.08 Q1969.9 1866.15 1963.59 1866.15 Q1961.41 1866.15 1959.14 1865.78 Q1956.9 1865.41 1954.49 1864.67 L1954.49 1859.97 Q1956.57 1861.11 1958.79 1861.66 Q1961.02 1862.22 1963.49 1862.22 Q1967.5 1862.22 1969.84 1860.11 Q1972.17 1858.01 1972.17 1854.4 Q1972.17 1850.78 1969.84 1848.68 Q1967.5 1846.57 1963.49 1846.57 Q1961.62 1846.57 1959.74 1846.99 Q1957.89 1847.4 1955.95 1848.28 L1955.95 1830.92 Z" fill="#000000" fill-rule="evenodd" fill-opacity="1" /><path clip-path="url(#clip640)" d="M2433.94 1861.55 L2441.58 1861.55 L2441.58 1835.18 L2433.27 1836.85 L2433.27 1832.59 L2441.53 1830.92 L2446.21 1830.92 L2446.21 1861.55 L2453.85 1861.55 L2453.85 1865.48 L2433.94 1865.48 L2433.94 1861.55 Z" fill="#000000" fill-rule="evenodd" fill-opacity="1" /><path clip-path="url(#clip640)" d="M2463.29 1859.6 L2468.18 1859.6 L2468.18 1865.48 L2463.29 1865.48 L2463.29 1859.6 Z" fill="#000000" fill-rule="evenodd" fill-opacity="1" /><path clip-path="url(#clip640)" d="M2488.36 1834 Q2484.75 1834 2482.92 1837.57 Q2481.12 1841.11 2481.12 1848.24 Q2481.12 1855.34 2482.92 1858.91 Q2484.75 1862.45 2488.36 1862.45 Q2492 1862.45 2493.8 1858.91 Q2495.63 1855.34 2495.63 1848.24 Q2495.63 1841.11 2493.8 1837.57 Q2492 1834 2488.36 1834 M2488.36 1830.3 Q2494.17 1830.3 2497.23 1834.9 Q2500.31 1839.49 2500.31 1848.24 Q2500.31 1856.96 2497.23 1861.57 Q2494.17 1866.15 2488.36 1866.15 Q2482.55 1866.15 2479.47 1861.57 Q2476.42 1856.96 2476.42 1848.24 Q2476.42 1839.49 2479.47 1834.9 Q2482.55 1830.3 2488.36 1830.3 Z" fill="#000000" fill-rule="evenodd" fill-opacity="1" /><polyline clip-path="url(#clip642)" style="stroke:#000000; stroke-linecap:butt; stroke-linejoin:round; stroke-width:2; stroke-opacity:0.1; fill:none" points="
  196.816,1651.17 2640.76,1651.17 
  "/>
<polyline clip-path="url(#clip642)" style="stroke:#000000; stroke-linecap:butt; stroke-linejoin:round; stroke-width:2; stroke-opacity:0.1; fill:none" points="
  196.816,1287.59 2640.76,1287.59 
  "/>
<polyline clip-path="url(#clip642)" style="stroke:#000000; stroke-linecap:butt; stroke-linejoin:round; stroke-width:2; stroke-opacity:0.1; fill:none" points="
  196.816,924.012 2640.76,924.012 
  "/>
<polyline clip-path="url(#clip642)" style="stroke:#000000; stroke-linecap:butt; stroke-linejoin:round; stroke-width:2; stroke-opacity:0.1; fill:none" points="
  196.816,560.434 2640.76,560.434 
  "/>
<polyline clip-path="url(#clip642)" style="stroke:#000000; stroke-linecap:butt; stroke-linejoin:round; stroke-width:2; stroke-opacity:0.1; fill:none" points="
  196.816,196.856 2640.76,196.856 
  "/>
<polyline clip-path="url(#clip640)" style="stroke:#000000; stroke-linecap:butt; stroke-linejoin:round; stroke-width:4; stroke-opacity:1; fill:none" points="
  196.816,1800.78 196.816,47.2441 
  "/>
<polyline clip-path="url(#clip640)" style="stroke:#000000; stroke-linecap:butt; stroke-linejoin:round; stroke-width:4; stroke-opacity:1; fill:none" points="
  196.816,1651.17 215.714,1651.17 
  "/>
<polyline clip-path="url(#clip640)" style="stroke:#000000; stroke-linecap:butt; stroke-linejoin:round; stroke-width:4; stroke-opacity:1; fill:none" points="
  196.816,1287.59 215.714,1287.59 
  "/>
<polyline clip-path="url(#clip640)" style="stroke:#000000; stroke-linecap:butt; stroke-linejoin:round; stroke-width:4; stroke-opacity:1; fill:none" points="
  196.816,924.012 215.714,924.012 
  "/>
<polyline clip-path="url(#clip640)" style="stroke:#000000; stroke-linecap:butt; stroke-linejoin:round; stroke-width:4; stroke-opacity:1; fill:none" points="
  196.816,560.434 215.714,560.434 
  "/>
<polyline clip-path="url(#clip640)" style="stroke:#000000; stroke-linecap:butt; stroke-linejoin:round; stroke-width:4; stroke-opacity:1; fill:none" points="
  196.816,196.856 215.714,196.856 
  "/>
<path clip-path="url(#clip640)" d="M49.5521 1651.62 L79.2279 1651.62 L79.2279 1655.55 L49.5521 1655.55 L49.5521 1651.62 Z" fill="#000000" fill-rule="evenodd" fill-opacity="1" /><path clip-path="url(#clip640)" d="M90.1306 1664.51 L97.7695 1664.51 L97.7695 1638.15 L89.4593 1639.81 L89.4593 1635.55 L97.7232 1633.89 L102.399 1633.89 L102.399 1664.51 L110.038 1664.51 L110.038 1668.45 L90.1306 1668.45 L90.1306 1664.51 Z" fill="#000000" fill-rule="evenodd" fill-opacity="1" /><path clip-path="url(#clip640)" d="M119.482 1662.57 L124.367 1662.57 L124.367 1668.45 L119.482 1668.45 L119.482 1662.57 Z" fill="#000000" fill-rule="evenodd" fill-opacity="1" /><path clip-path="url(#clip640)" d="M144.552 1636.97 Q140.941 1636.97 139.112 1640.53 Q137.306 1644.07 137.306 1651.2 Q137.306 1658.31 139.112 1661.87 Q140.941 1665.41 144.552 1665.41 Q148.186 1665.41 149.991 1661.87 Q151.82 1658.31 151.82 1651.2 Q151.82 1644.07 149.991 1640.53 Q148.186 1636.97 144.552 1636.97 M144.552 1633.26 Q150.362 1633.26 153.417 1637.87 Q156.496 1642.45 156.496 1651.2 Q156.496 1659.93 153.417 1664.54 Q150.362 1669.12 144.552 1669.12 Q138.741 1669.12 135.663 1664.54 Q132.607 1659.93 132.607 1651.2 Q132.607 1642.45 135.663 1637.87 Q138.741 1633.26 144.552 1633.26 Z" fill="#000000" fill-rule="evenodd" fill-opacity="1" /><path clip-path="url(#clip640)" d="M50.5475 1288.04 L80.2233 1288.04 L80.2233 1291.98 L50.5475 1291.98 L50.5475 1288.04 Z" fill="#000000" fill-rule="evenodd" fill-opacity="1" /><path clip-path="url(#clip640)" d="M100.316 1273.39 Q96.7047 1273.39 94.876 1276.95 Q93.0704 1280.49 93.0704 1287.62 Q93.0704 1294.73 94.876 1298.3 Q96.7047 1301.84 100.316 1301.84 Q103.95 1301.84 105.756 1298.3 Q107.584 1294.73 107.584 1287.62 Q107.584 1280.49 105.756 1276.95 Q103.95 1273.39 100.316 1273.39 M100.316 1269.68 Q106.126 1269.68 109.181 1274.29 Q112.26 1278.87 112.26 1287.62 Q112.26 1296.35 109.181 1300.96 Q106.126 1305.54 100.316 1305.54 Q94.5056 1305.54 91.4269 1300.96 Q88.3714 1296.35 88.3714 1287.62 Q88.3714 1278.87 91.4269 1274.29 Q94.5056 1269.68 100.316 1269.68 Z" fill="#000000" fill-rule="evenodd" fill-opacity="1" /><path clip-path="url(#clip640)" d="M120.478 1298.99 L125.362 1298.99 L125.362 1304.87 L120.478 1304.87 L120.478 1298.99 Z" fill="#000000" fill-rule="evenodd" fill-opacity="1" /><path clip-path="url(#clip640)" d="M135.593 1270.31 L153.95 1270.31 L153.95 1274.24 L139.876 1274.24 L139.876 1282.72 Q140.894 1282.37 141.913 1282.21 Q142.931 1282.02 143.95 1282.02 Q149.737 1282.02 153.116 1285.19 Q156.496 1288.36 156.496 1293.78 Q156.496 1299.36 153.024 1302.46 Q149.552 1305.54 143.232 1305.54 Q141.056 1305.54 138.788 1305.17 Q136.542 1304.8 134.135 1304.06 L134.135 1299.36 Q136.218 1300.49 138.441 1301.05 Q140.663 1301.61 143.14 1301.61 Q147.144 1301.61 149.482 1299.5 Q151.82 1297.39 151.82 1293.78 Q151.82 1290.17 149.482 1288.06 Q147.144 1285.96 143.14 1285.96 Q141.265 1285.96 139.39 1286.37 Q137.538 1286.79 135.593 1287.67 L135.593 1270.31 Z" fill="#000000" fill-rule="evenodd" fill-opacity="1" /><path clip-path="url(#clip640)" d="M99.3204 909.81 Q95.7093 909.81 93.8806 913.375 Q92.075 916.917 92.075 924.046 Q92.075 931.153 93.8806 934.718 Q95.7093 938.259 99.3204 938.259 Q102.955 938.259 104.76 934.718 Q106.589 931.153 106.589 924.046 Q106.589 916.917 104.76 913.375 Q102.955 909.81 99.3204 909.81 M99.3204 906.107 Q105.131 906.107 108.186 910.713 Q111.265 915.296 111.265 924.046 Q111.265 932.773 108.186 937.38 Q105.131 941.963 99.3204 941.963 Q93.5102 941.963 90.4315 937.38 Q87.376 932.773 87.376 924.046 Q87.376 915.296 90.4315 910.713 Q93.5102 906.107 99.3204 906.107 Z" fill="#000000" fill-rule="evenodd" fill-opacity="1" /><path clip-path="url(#clip640)" d="M119.482 935.412 L124.367 935.412 L124.367 941.292 L119.482 941.292 L119.482 935.412 Z" fill="#000000" fill-rule="evenodd" fill-opacity="1" /><path clip-path="url(#clip640)" d="M144.552 909.81 Q140.941 909.81 139.112 913.375 Q137.306 916.917 137.306 924.046 Q137.306 931.153 139.112 934.718 Q140.941 938.259 144.552 938.259 Q148.186 938.259 149.991 934.718 Q151.82 931.153 151.82 924.046 Q151.82 916.917 149.991 913.375 Q148.186 909.81 144.552 909.81 M144.552 906.107 Q150.362 906.107 153.417 910.713 Q156.496 915.296 156.496 924.046 Q156.496 932.773 153.417 937.38 Q150.362 941.963 144.552 941.963 Q138.741 941.963 135.663 937.38 Q132.607 932.773 132.607 924.046 Q132.607 915.296 135.663 910.713 Q138.741 906.107 144.552 906.107 Z" fill="#000000" fill-rule="evenodd" fill-opacity="1" /><path clip-path="url(#clip640)" d="M100.316 546.233 Q96.7047 546.233 94.876 549.797 Q93.0704 553.339 93.0704 560.469 Q93.0704 567.575 94.876 571.14 Q96.7047 574.682 100.316 574.682 Q103.95 574.682 105.756 571.14 Q107.584 567.575 107.584 560.469 Q107.584 553.339 105.756 549.797 Q103.95 546.233 100.316 546.233 M100.316 542.529 Q106.126 542.529 109.181 547.135 Q112.26 551.719 112.26 560.469 Q112.26 569.196 109.181 573.802 Q106.126 578.385 100.316 578.385 Q94.5056 578.385 91.4269 573.802 Q88.3714 569.196 88.3714 560.469 Q88.3714 551.719 91.4269 547.135 Q94.5056 542.529 100.316 542.529 Z" fill="#000000" fill-rule="evenodd" fill-opacity="1" /><path clip-path="url(#clip640)" d="M120.478 571.834 L125.362 571.834 L125.362 577.714 L120.478 577.714 L120.478 571.834 Z" fill="#000000" fill-rule="evenodd" fill-opacity="1" /><path clip-path="url(#clip640)" d="M135.593 543.154 L153.95 543.154 L153.95 547.089 L139.876 547.089 L139.876 555.561 Q140.894 555.214 141.913 555.052 Q142.931 554.867 143.95 554.867 Q149.737 554.867 153.116 558.038 Q156.496 561.209 156.496 566.626 Q156.496 572.205 153.024 575.307 Q149.552 578.385 143.232 578.385 Q141.056 578.385 138.788 578.015 Q136.542 577.645 134.135 576.904 L134.135 572.205 Q136.218 573.339 138.441 573.895 Q140.663 574.45 143.14 574.45 Q147.144 574.45 149.482 572.344 Q151.82 570.237 151.82 566.626 Q151.82 563.015 149.482 560.909 Q147.144 558.802 143.14 558.802 Q141.265 558.802 139.39 559.219 Q137.538 559.635 135.593 560.515 L135.593 543.154 Z" fill="#000000" fill-rule="evenodd" fill-opacity="1" /><path clip-path="url(#clip640)" d="M90.1306 210.201 L97.7695 210.201 L97.7695 183.836 L89.4593 185.502 L89.4593 181.243 L97.7232 179.576 L102.399 179.576 L102.399 210.201 L110.038 210.201 L110.038 214.136 L90.1306 214.136 L90.1306 210.201 Z" fill="#000000" fill-rule="evenodd" fill-opacity="1" /><path clip-path="url(#clip640)" d="M119.482 208.257 L124.367 208.257 L124.367 214.136 L119.482 214.136 L119.482 208.257 Z" fill="#000000" fill-rule="evenodd" fill-opacity="1" /><path clip-path="url(#clip640)" d="M144.552 182.655 Q140.941 182.655 139.112 186.22 Q137.306 189.761 137.306 196.891 Q137.306 203.997 139.112 207.562 Q140.941 211.104 144.552 211.104 Q148.186 211.104 149.991 207.562 Q151.82 203.997 151.82 196.891 Q151.82 189.761 149.991 186.22 Q148.186 182.655 144.552 182.655 M144.552 178.951 Q150.362 178.951 153.417 183.558 Q156.496 188.141 156.496 196.891 Q156.496 205.618 153.417 210.224 Q150.362 214.808 144.552 214.808 Q138.741 214.808 135.663 210.224 Q132.607 205.618 132.607 196.891 Q132.607 188.141 135.663 183.558 Q138.741 178.951 144.552 178.951 Z" fill="#000000" fill-rule="evenodd" fill-opacity="1" /><polyline clip-path="url(#clip642)" style="stroke:#009af9; stroke-linecap:butt; stroke-linejoin:round; stroke-width:4; stroke-opacity:1; fill:none" points="
  265.984,1751.15 280.995,1743.34 419.791,1671.11 503.201,1627.71 573.724,1591.01 650.331,1551.14 720.956,1514.39 796.674,1474.99 884.4,1429.34 962.361,1388.77 
  1030.73,1353.19 1067.99,1333.8 1105.26,1314.4 1124.01,1304.65 1142.75,1294.89 1152.12,1290.02 1161.5,1281.05 1170.87,1268.05 1180.24,1255.04 1221.69,1197.52 
  1263.14,1140 1302.58,1085.28 1342.01,1030.55 1424.03,916.738 1493.06,820.936 1535.21,762.453 1577.35,703.971 1615.96,650.398 1654.56,596.824 1663.48,584.455 
  1672.39,572.085 1681.3,560.164 1690.22,555.526 1708.05,546.248 1725.87,536.971 1761.99,518.176 1798.11,499.38 1879.07,457.252 1952.43,419.077 2036.42,375.369 
  2114.19,334.899 2190.86,295 2265.3,256.262 2341.61,216.551 2425.22,173.042 2546.67,109.839 2571.59,96.8724 
  "/>
<path clip-path="url(#clip640)" d="
M2235.31 209.375 L2559.29 209.375 L2559.29 105.695 L2235.31 105.695  Z
  " fill="#ffffff" fill-rule="evenodd" fill-opacity="1"/>
<polyline clip-path="url(#clip640)" style="stroke:#000000; stroke-linecap:butt; stroke-linejoin:round; stroke-width:4; stroke-opacity:1; fill:none" points="
  2235.31,209.375 2559.29,209.375 2559.29,105.695 2235.31,105.695 2235.31,209.375 
  "/>
<polyline clip-path="url(#clip640)" style="stroke:#009af9; stroke-linecap:butt; stroke-linejoin:round; stroke-width:4; stroke-opacity:1; fill:none" points="
  2262.47,157.535 2425.4,157.535 
  "/>
<path clip-path="url(#clip640)" d="M2466.39 177.223 Q2464.59 181.852 2462.88 183.264 Q2461.16 184.676 2458.29 184.676 L2454.89 184.676 L2454.89 181.112 L2457.39 181.112 Q2459.15 181.112 2460.12 180.278 Q2461.09 179.445 2462.27 176.343 L2463.04 174.399 L2452.55 148.889 L2457.07 148.889 L2465.17 169.167 L2473.27 148.889 L2477.78 148.889 L2466.39 177.223 Z" fill="#000000" fill-rule="evenodd" fill-opacity="1" /><path clip-path="url(#clip640)" d="M2485.07 170.88 L2492.71 170.88 L2492.71 144.515 L2484.4 146.181 L2484.4 141.922 L2492.67 140.255 L2497.34 140.255 L2497.34 170.88 L2504.98 170.88 L2504.98 174.815 L2485.07 174.815 L2485.07 170.88 Z" fill="#000000" fill-rule="evenodd" fill-opacity="1" /></svg>
