<?xml version="1.0" encoding="utf-8"?>
<svg xmlns="http://www.w3.org/2000/svg" xmlns:xlink="http://www.w3.org/1999/xlink" width="672" height="480" viewBox="0 0 2688 1920">
<defs>
  <clipPath id="clip530">
    <rect x="0" y="0" width="2688" height="1920"/>
  </clipPath>
</defs>
<path clip-path="url(#clip530)" d="
M0 1920 L2688 1920 L2688 0 L0 0  Z
  " fill="#ffffff" fill-rule="evenodd" fill-opacity="1"/>
<defs>
  <clipPath id="clip531">
    <rect x="537" y="0" width="1883" height="1883"/>
  </clipPath>
</defs>
<path clip-path="url(#clip530)" d="
M226.978 1800.78 L2640.76 1800.78 L2640.76 47.2441 L226.978 47.2441  Z
  " fill="#ffffff" fill-rule="evenodd" fill-opacity="1"/>
<defs>
  <clipPath id="clip532">
    <rect x="226" y="47" width="2415" height="1755"/>
  </clipPath>
</defs>
<polyline clip-path="url(#clip532)" style="stroke:#000000; stroke-linecap:butt; stroke-linejoin:round; stroke-width:2; stroke-opacity:0.1; fill:none" points="
  258.802,1800.78 258.802,47.2441 
  "/>
<polyline clip-path="url(#clip532)" style="stroke:#000000; stroke-linecap:butt; stroke-linejoin:round; stroke-width:2; stroke-opacity:0.1; fill:none" points="
  846.334,1800.78 846.334,47.2441 
  "/>
<polyline clip-path="url(#clip532)" style="stroke:#000000; stroke-linecap:butt; stroke-linejoin:round; stroke-width:2; stroke-opacity:0.1; fill:none" points="
  1433.87,1800.78 1433.87,47.2441 
  "/>
<polyline clip-path="url(#clip532)" style="stroke:#000000; stroke-linecap:butt; stroke-linejoin:round; stroke-width:2; stroke-opacity:0.1; fill:none" points="
  2021.4,1800.78 2021.4,47.2441 
  "/>
<polyline clip-path="url(#clip532)" style="stroke:#000000; stroke-linecap:butt; stroke-linejoin:round; stroke-width:2; stroke-opacity:0.1; fill:none" points="
  2608.93,1800.78 2608.93,47.2441 
  "/>
<polyline clip-path="url(#clip530)" style="stroke:#000000; stroke-linecap:butt; stroke-linejoin:round; stroke-width:4; stroke-opacity:1; fill:none" points="
  226.978,1800.78 2640.76,1800.78 
  "/>
<polyline clip-path="url(#clip530)" style="stroke:#000000; stroke-linecap:butt; stroke-linejoin:round; stroke-width:4; stroke-opacity:1; fill:none" points="
  258.802,1800.78 258.802,1781.88 
  "/>
<polyline clip-path="url(#clip530)" style="stroke:#000000; stroke-linecap:butt; stroke-linejoin:round; stroke-width:4; stroke-opacity:1; fill:none" points="
  846.334,1800.78 846.334,1781.88 
  "/>
<polyline clip-path="url(#clip530)" style="stroke:#000000; stroke-linecap:butt; stroke-linejoin:round; stroke-width:4; stroke-opacity:1; fill:none" points="
  1433.87,1800.78 1433.87,1781.88 
  "/>
<polyline clip-path="url(#clip530)" style="stroke:#000000; stroke-linecap:butt; stroke-linejoin:round; stroke-width:4; stroke-opacity:1; fill:none" points="
  2021.4,1800.78 2021.4,1781.88 
  "/>
<polyline clip-path="url(#clip530)" style="stroke:#000000; stroke-linecap:butt; stroke-linejoin:round; stroke-width:4; stroke-opacity:1; fill:none" points="
  2608.93,1800.78 2608.93,1781.88 
  "/>
<path clip-path="url(#clip530)" d="M227.703 1848.65 L257.378 1848.65 L257.378 1852.59 L227.703 1852.59 L227.703 1848.65 Z" fill="#000000" fill-rule="evenodd" fill-opacity="1" /><path clip-path="url(#clip530)" d="M280.318 1835 L268.513 1853.45 L280.318 1853.45 L280.318 1835 M279.091 1830.92 L284.971 1830.92 L284.971 1853.45 L289.901 1853.45 L289.901 1857.34 L284.971 1857.34 L284.971 1865.48 L280.318 1865.48 L280.318 1857.34 L264.716 1857.34 L264.716 1852.82 L279.091 1830.92 Z" fill="#000000" fill-rule="evenodd" fill-opacity="1" /><path clip-path="url(#clip530)" d="M816.277 1848.65 L845.953 1848.65 L845.953 1852.59 L816.277 1852.59 L816.277 1848.65 Z" fill="#000000" fill-rule="evenodd" fill-opacity="1" /><path clip-path="url(#clip530)" d="M860.073 1861.55 L876.392 1861.55 L876.392 1865.48 L854.448 1865.48 L854.448 1861.55 Q857.11 1858.79 861.693 1854.16 Q866.3 1849.51 867.48 1848.17 Q869.726 1845.65 870.605 1843.91 Q871.508 1842.15 871.508 1840.46 Q871.508 1837.71 869.564 1835.97 Q867.642 1834.23 864.54 1834.23 Q862.341 1834.23 859.888 1835 Q857.457 1835.76 854.679 1837.31 L854.679 1832.59 Q857.503 1831.46 859.957 1830.88 Q862.411 1830.3 864.448 1830.3 Q869.818 1830.3 873.013 1832.98 Q876.207 1835.67 876.207 1840.16 Q876.207 1842.29 875.397 1844.21 Q874.61 1846.11 872.503 1848.7 Q871.925 1849.37 868.823 1852.59 Q865.721 1855.78 860.073 1861.55 Z" fill="#000000" fill-rule="evenodd" fill-opacity="1" /><path clip-path="url(#clip530)" d="M1433.87 1834 Q1430.26 1834 1428.43 1837.57 Q1426.62 1841.11 1426.62 1848.24 Q1426.62 1855.34 1428.43 1858.91 Q1430.26 1862.45 1433.87 1862.45 Q1437.5 1862.45 1439.31 1858.91 Q1441.14 1855.34 1441.14 1848.24 Q1441.14 1841.11 1439.31 1837.57 Q1437.5 1834 1433.87 1834 M1433.87 1830.3 Q1439.68 1830.3 1442.73 1834.9 Q1445.81 1839.49 1445.81 1848.24 Q1445.81 1856.96 1442.73 1861.57 Q1439.68 1866.15 1433.87 1866.15 Q1428.06 1866.15 1424.98 1861.57 Q1421.92 1856.96 1421.92 1848.24 Q1421.92 1839.49 1424.98 1834.9 Q1428.06 1830.3 1433.87 1830.3 Z" fill="#000000" fill-rule="evenodd" fill-opacity="1" /><path clip-path="url(#clip530)" d="M2016.05 1861.55 L2032.37 1861.55 L2032.37 1865.48 L2010.43 1865.48 L2010.43 1861.55 Q2013.09 1858.79 2017.67 1854.16 Q2022.28 1849.51 2023.46 1848.17 Q2025.7 1845.65 2026.58 1843.91 Q2027.49 1842.15 2027.49 1840.46 Q2027.49 1837.71 2025.54 1835.97 Q2023.62 1834.23 2020.52 1834.23 Q2018.32 1834.23 2015.87 1835 Q2013.44 1835.76 2010.66 1837.31 L2010.66 1832.59 Q2013.48 1831.46 2015.94 1830.88 Q2018.39 1830.3 2020.43 1830.3 Q2025.8 1830.3 2028.99 1832.98 Q2032.19 1835.67 2032.19 1840.16 Q2032.19 1842.29 2031.38 1844.21 Q2030.59 1846.11 2028.48 1848.7 Q2027.9 1849.37 2024.8 1852.59 Q2021.7 1855.78 2016.05 1861.55 Z" fill="#000000" fill-rule="evenodd" fill-opacity="1" /><path clip-path="url(#clip530)" d="M2611.94 1835 L2600.14 1853.45 L2611.94 1853.45 L2611.94 1835 M2610.71 1830.92 L2616.59 1830.92 L2616.59 1853.45 L2621.52 1853.45 L2621.52 1857.34 L2616.59 1857.34 L2616.59 1865.48 L2611.94 1865.48 L2611.94 1857.34 L2596.34 1857.34 L2596.34 1852.82 L2610.71 1830.92 Z" fill="#000000" fill-rule="evenodd" fill-opacity="1" /><polyline clip-path="url(#clip532)" style="stroke:#000000; stroke-linecap:butt; stroke-linejoin:round; stroke-width:2; stroke-opacity:0.1; fill:none" points="
  226.978,1648.56 2640.76,1648.56 
  "/>
<polyline clip-path="url(#clip532)" style="stroke:#000000; stroke-linecap:butt; stroke-linejoin:round; stroke-width:2; stroke-opacity:0.1; fill:none" points="
  226.978,1286.29 2640.76,1286.29 
  "/>
<polyline clip-path="url(#clip532)" style="stroke:#000000; stroke-linecap:butt; stroke-linejoin:round; stroke-width:2; stroke-opacity:0.1; fill:none" points="
  226.978,924.012 2640.76,924.012 
  "/>
<polyline clip-path="url(#clip532)" style="stroke:#000000; stroke-linecap:butt; stroke-linejoin:round; stroke-width:2; stroke-opacity:0.1; fill:none" points="
  226.978,561.737 2640.76,561.737 
  "/>
<polyline clip-path="url(#clip532)" style="stroke:#000000; stroke-linecap:butt; stroke-linejoin:round; stroke-width:2; stroke-opacity:0.1; fill:none" points="
  226.978,199.463 2640.76,199.463 
  "/>
<polyline clip-path="url(#clip530)" style="stroke:#000000; stroke-linecap:butt; stroke-linejoin:round; stroke-width:4; stroke-opacity:1; fill:none" points="
  226.978,1800.78 226.978,47.2441 
  "/>
<polyline clip-path="url(#clip530)" style="stroke:#000000; stroke-linecap:butt; stroke-linejoin:round; stroke-width:4; stroke-opacity:1; fill:none" points="
  226.978,1648.56 245.876,1648.56 
  "/>
<polyline clip-path="url(#clip530)" style="stroke:#000000; stroke-linecap:butt; stroke-linejoin:round; stroke-width:4; stroke-opacity:1; fill:none" points="
  226.978,1286.29 245.876,1286.29 
  "/>
<polyline clip-path="url(#clip530)" style="stroke:#000000; stroke-linecap:butt; stroke-linejoin:round; stroke-width:4; stroke-opacity:1; fill:none" points="
  226.978,924.012 245.876,924.012 
  "/>
<polyline clip-path="url(#clip530)" style="stroke:#000000; stroke-linecap:butt; stroke-linejoin:round; stroke-width:4; stroke-opacity:1; fill:none" points="
  226.978,561.737 245.876,561.737 
  "/>
<polyline clip-path="url(#clip530)" style="stroke:#000000; stroke-linecap:butt; stroke-linejoin:round; stroke-width:4; stroke-opacity:1; fill:none" points="
  226.978,199.463 245.876,199.463 
  "/>
<path clip-path="url(#clip530)" d="M49.5521 1649.01 L79.2279 1649.01 L79.2279 1652.95 L49.5521 1652.95 L49.5521 1649.01 Z" fill="#000000" fill-rule="evenodd" fill-opacity="1" /><path clip-path="url(#clip530)" d="M99.3204 1634.36 Q95.7093 1634.36 93.8806 1637.92 Q92.075 1641.47 92.075 1648.59 Q92.075 1655.7 93.8806 1659.27 Q95.7093 1662.81 99.3204 1662.81 Q102.955 1662.81 104.76 1659.27 Q106.589 1655.7 106.589 1648.59 Q106.589 1641.47 104.76 1637.92 Q102.955 1634.36 99.3204 1634.36 M99.3204 1630.66 Q105.131 1630.66 108.186 1635.26 Q111.265 1639.84 111.265 1648.59 Q111.265 1657.32 108.186 1661.93 Q105.131 1666.51 99.3204 1666.51 Q93.5102 1666.51 90.4315 1661.93 Q87.376 1657.32 87.376 1648.59 Q87.376 1639.84 90.4315 1635.26 Q93.5102 1630.66 99.3204 1630.66 Z" fill="#000000" fill-rule="evenodd" fill-opacity="1" /><path clip-path="url(#clip530)" d="M119.482 1659.96 L124.367 1659.96 L124.367 1665.84 L119.482 1665.84 L119.482 1659.96 Z" fill="#000000" fill-rule="evenodd" fill-opacity="1" /><path clip-path="url(#clip530)" d="M134.598 1631.28 L152.954 1631.28 L152.954 1635.22 L138.88 1635.22 L138.88 1643.69 Q139.899 1643.34 140.917 1643.18 Q141.936 1642.99 142.954 1642.99 Q148.741 1642.99 152.121 1646.16 Q155.501 1649.34 155.501 1654.75 Q155.501 1660.33 152.028 1663.43 Q148.556 1666.51 142.237 1666.51 Q140.061 1666.51 137.792 1666.14 Q135.547 1665.77 133.14 1665.03 L133.14 1660.33 Q135.223 1661.47 137.445 1662.02 Q139.667 1662.58 142.144 1662.58 Q146.149 1662.58 148.487 1660.47 Q150.825 1658.36 150.825 1654.75 Q150.825 1651.14 148.487 1649.03 Q146.149 1646.93 142.144 1646.93 Q140.269 1646.93 138.394 1647.34 Q136.542 1647.76 134.598 1648.64 L134.598 1631.28 Z" fill="#000000" fill-rule="evenodd" fill-opacity="1" /><path clip-path="url(#clip530)" d="M174.713 1634.36 Q171.102 1634.36 169.274 1637.92 Q167.468 1641.47 167.468 1648.59 Q167.468 1655.7 169.274 1659.27 Q171.102 1662.81 174.713 1662.81 Q178.348 1662.81 180.153 1659.27 Q181.982 1655.7 181.982 1648.59 Q181.982 1641.47 180.153 1637.92 Q178.348 1634.36 174.713 1634.36 M174.713 1630.66 Q180.524 1630.66 183.579 1635.26 Q186.658 1639.84 186.658 1648.59 Q186.658 1657.32 183.579 1661.93 Q180.524 1666.51 174.713 1666.51 Q168.903 1666.51 165.825 1661.93 Q162.769 1657.32 162.769 1648.59 Q162.769 1639.84 165.825 1635.26 Q168.903 1630.66 174.713 1630.66 Z" fill="#000000" fill-rule="evenodd" fill-opacity="1" /><path clip-path="url(#clip530)" d="M50.5475 1286.74 L80.2233 1286.74 L80.2233 1290.67 L50.5475 1290.67 L50.5475 1286.74 Z" fill="#000000" fill-rule="evenodd" fill-opacity="1" /><path clip-path="url(#clip530)" d="M100.316 1272.08 Q96.7047 1272.08 94.876 1275.65 Q93.0704 1279.19 93.0704 1286.32 Q93.0704 1293.43 94.876 1296.99 Q96.7047 1300.53 100.316 1300.53 Q103.95 1300.53 105.756 1296.99 Q107.584 1293.43 107.584 1286.32 Q107.584 1279.19 105.756 1275.65 Q103.95 1272.08 100.316 1272.08 M100.316 1268.38 Q106.126 1268.38 109.181 1272.99 Q112.26 1277.57 112.26 1286.32 Q112.26 1295.05 109.181 1299.65 Q106.126 1304.24 100.316 1304.24 Q94.5056 1304.24 91.4269 1299.65 Q88.3714 1295.05 88.3714 1286.32 Q88.3714 1277.57 91.4269 1272.99 Q94.5056 1268.38 100.316 1268.38 Z" fill="#000000" fill-rule="evenodd" fill-opacity="1" /><path clip-path="url(#clip530)" d="M120.478 1297.69 L125.362 1297.69 L125.362 1303.57 L120.478 1303.57 L120.478 1297.69 Z" fill="#000000" fill-rule="evenodd" fill-opacity="1" /><path clip-path="url(#clip530)" d="M139.575 1299.63 L155.894 1299.63 L155.894 1303.57 L133.95 1303.57 L133.95 1299.63 Q136.612 1296.88 141.195 1292.25 Q145.802 1287.59 146.982 1286.25 Q149.228 1283.73 150.107 1281.99 Q151.01 1280.23 151.01 1278.54 Q151.01 1275.79 149.065 1274.05 Q147.144 1272.32 144.042 1272.32 Q141.843 1272.32 139.39 1273.08 Q136.959 1273.84 134.181 1275.39 L134.181 1270.67 Q137.005 1269.54 139.459 1268.96 Q141.913 1268.38 143.95 1268.38 Q149.32 1268.38 152.515 1271.07 Q155.709 1273.75 155.709 1278.24 Q155.709 1280.37 154.899 1282.29 Q154.112 1284.19 152.005 1286.78 Q151.427 1287.45 148.325 1290.67 Q145.223 1293.87 139.575 1299.63 Z" fill="#000000" fill-rule="evenodd" fill-opacity="1" /><path clip-path="url(#clip530)" d="M165.755 1269.01 L184.112 1269.01 L184.112 1272.94 L170.038 1272.94 L170.038 1281.41 Q171.056 1281.07 172.075 1280.9 Q173.093 1280.72 174.112 1280.72 Q179.899 1280.72 183.278 1283.89 Q186.658 1287.06 186.658 1292.48 Q186.658 1298.06 183.186 1301.16 Q179.713 1304.24 173.394 1304.24 Q171.218 1304.24 168.95 1303.87 Q166.704 1303.5 164.297 1302.76 L164.297 1298.06 Q166.38 1299.19 168.602 1299.75 Q170.825 1300.3 173.301 1300.3 Q177.306 1300.3 179.644 1298.2 Q181.982 1296.09 181.982 1292.48 Q181.982 1288.87 179.644 1286.76 Q177.306 1284.65 173.301 1284.65 Q171.426 1284.65 169.551 1285.07 Q167.7 1285.49 165.755 1286.37 L165.755 1269.01 Z" fill="#000000" fill-rule="evenodd" fill-opacity="1" /><path clip-path="url(#clip530)" d="M99.3204 909.81 Q95.7093 909.81 93.8806 913.375 Q92.075 916.917 92.075 924.046 Q92.075 931.153 93.8806 934.718 Q95.7093 938.259 99.3204 938.259 Q102.955 938.259 104.76 934.718 Q106.589 931.153 106.589 924.046 Q106.589 916.917 104.76 913.375 Q102.955 909.81 99.3204 909.81 M99.3204 906.107 Q105.131 906.107 108.186 910.713 Q111.265 915.296 111.265 924.046 Q111.265 932.773 108.186 937.38 Q105.131 941.963 99.3204 941.963 Q93.5102 941.963 90.4315 937.38 Q87.376 932.773 87.376 924.046 Q87.376 915.296 90.4315 910.713 Q93.5102 906.107 99.3204 906.107 Z" fill="#000000" fill-rule="evenodd" fill-opacity="1" /><path clip-path="url(#clip530)" d="M119.482 935.412 L124.367 935.412 L124.367 941.292 L119.482 941.292 L119.482 935.412 Z" fill="#000000" fill-rule="evenodd" fill-opacity="1" /><path clip-path="url(#clip530)" d="M144.552 909.81 Q140.941 909.81 139.112 913.375 Q137.306 916.917 137.306 924.046 Q137.306 931.153 139.112 934.718 Q140.941 938.259 144.552 938.259 Q148.186 938.259 149.991 934.718 Q151.82 931.153 151.82 924.046 Q151.82 916.917 149.991 913.375 Q148.186 909.81 144.552 909.81 M144.552 906.107 Q150.362 906.107 153.417 910.713 Q156.496 915.296 156.496 924.046 Q156.496 932.773 153.417 937.38 Q150.362 941.963 144.552 941.963 Q138.741 941.963 135.663 937.38 Q132.607 932.773 132.607 924.046 Q132.607 915.296 135.663 910.713 Q138.741 906.107 144.552 906.107 Z" fill="#000000" fill-rule="evenodd" fill-opacity="1" /><path clip-path="url(#clip530)" d="M174.713 909.81 Q171.102 909.81 169.274 913.375 Q167.468 916.917 167.468 924.046 Q167.468 931.153 169.274 934.718 Q171.102 938.259 174.713 938.259 Q178.348 938.259 180.153 934.718 Q181.982 931.153 181.982 924.046 Q181.982 916.917 180.153 913.375 Q178.348 909.81 174.713 909.81 M174.713 906.107 Q180.524 906.107 183.579 910.713 Q186.658 915.296 186.658 924.046 Q186.658 932.773 183.579 937.38 Q180.524 941.963 174.713 941.963 Q168.903 941.963 165.825 937.38 Q162.769 932.773 162.769 924.046 Q162.769 915.296 165.825 910.713 Q168.903 906.107 174.713 906.107 Z" fill="#000000" fill-rule="evenodd" fill-opacity="1" /><path clip-path="url(#clip530)" d="M100.316 547.536 Q96.7047 547.536 94.876 551.101 Q93.0704 554.643 93.0704 561.772 Q93.0704 568.879 94.876 572.443 Q96.7047 575.985 100.316 575.985 Q103.95 575.985 105.756 572.443 Q107.584 568.879 107.584 561.772 Q107.584 554.643 105.756 551.101 Q103.95 547.536 100.316 547.536 M100.316 543.832 Q106.126 543.832 109.181 548.439 Q112.26 553.022 112.26 561.772 Q112.26 570.499 109.181 575.105 Q106.126 579.689 100.316 579.689 Q94.5056 579.689 91.4269 575.105 Q88.3714 570.499 88.3714 561.772 Q88.3714 553.022 91.4269 548.439 Q94.5056 543.832 100.316 543.832 Z" fill="#000000" fill-rule="evenodd" fill-opacity="1" /><path clip-path="url(#clip530)" d="M120.478 573.138 L125.362 573.138 L125.362 579.017 L120.478 579.017 L120.478 573.138 Z" fill="#000000" fill-rule="evenodd" fill-opacity="1" /><path clip-path="url(#clip530)" d="M139.575 575.082 L155.894 575.082 L155.894 579.017 L133.95 579.017 L133.95 575.082 Q136.612 572.328 141.195 567.698 Q145.802 563.045 146.982 561.703 Q149.228 559.18 150.107 557.443 Q151.01 555.684 151.01 553.994 Q151.01 551.24 149.065 549.504 Q147.144 547.768 144.042 547.768 Q141.843 547.768 139.39 548.531 Q136.959 549.295 134.181 550.846 L134.181 546.124 Q137.005 544.99 139.459 544.411 Q141.913 543.832 143.95 543.832 Q149.32 543.832 152.515 546.518 Q155.709 549.203 155.709 553.694 Q155.709 555.823 154.899 557.744 Q154.112 559.643 152.005 562.235 Q151.427 562.906 148.325 566.124 Q145.223 569.318 139.575 575.082 Z" fill="#000000" fill-rule="evenodd" fill-opacity="1" /><path clip-path="url(#clip530)" d="M165.755 544.457 L184.112 544.457 L184.112 548.393 L170.038 548.393 L170.038 556.865 Q171.056 556.518 172.075 556.356 Q173.093 556.17 174.112 556.17 Q179.899 556.17 183.278 559.342 Q186.658 562.513 186.658 567.93 Q186.658 573.508 183.186 576.61 Q179.713 579.689 173.394 579.689 Q171.218 579.689 168.95 579.318 Q166.704 578.948 164.297 578.207 L164.297 573.508 Q166.38 574.642 168.602 575.198 Q170.825 575.754 173.301 575.754 Q177.306 575.754 179.644 573.647 Q181.982 571.541 181.982 567.93 Q181.982 564.318 179.644 562.212 Q177.306 560.106 173.301 560.106 Q171.426 560.106 169.551 560.522 Q167.7 560.939 165.755 561.818 L165.755 544.457 Z" fill="#000000" fill-rule="evenodd" fill-opacity="1" /><path clip-path="url(#clip530)" d="M99.3204 185.262 Q95.7093 185.262 93.8806 188.827 Q92.075 192.368 92.075 199.498 Q92.075 206.604 93.8806 210.169 Q95.7093 213.711 99.3204 213.711 Q102.955 213.711 104.76 210.169 Q106.589 206.604 106.589 199.498 Q106.589 192.368 104.76 188.827 Q102.955 185.262 99.3204 185.262 M99.3204 181.558 Q105.131 181.558 108.186 186.165 Q111.265 190.748 111.265 199.498 Q111.265 208.225 108.186 212.831 Q105.131 217.414 99.3204 217.414 Q93.5102 217.414 90.4315 212.831 Q87.376 208.225 87.376 199.498 Q87.376 190.748 90.4315 186.165 Q93.5102 181.558 99.3204 181.558 Z" fill="#000000" fill-rule="evenodd" fill-opacity="1" /><path clip-path="url(#clip530)" d="M119.482 210.864 L124.367 210.864 L124.367 216.743 L119.482 216.743 L119.482 210.864 Z" fill="#000000" fill-rule="evenodd" fill-opacity="1" /><path clip-path="url(#clip530)" d="M134.598 182.183 L152.954 182.183 L152.954 186.118 L138.88 186.118 L138.88 194.591 Q139.899 194.243 140.917 194.081 Q141.936 193.896 142.954 193.896 Q148.741 193.896 152.121 197.067 Q155.501 200.239 155.501 205.655 Q155.501 211.234 152.028 214.336 Q148.556 217.414 142.237 217.414 Q140.061 217.414 137.792 217.044 Q135.547 216.674 133.14 215.933 L133.14 211.234 Q135.223 212.368 137.445 212.924 Q139.667 213.479 142.144 213.479 Q146.149 213.479 148.487 211.373 Q150.825 209.266 150.825 205.655 Q150.825 202.044 148.487 199.938 Q146.149 197.831 142.144 197.831 Q140.269 197.831 138.394 198.248 Q136.542 198.665 134.598 199.544 L134.598 182.183 Z" fill="#000000" fill-rule="evenodd" fill-opacity="1" /><path clip-path="url(#clip530)" d="M174.713 185.262 Q171.102 185.262 169.274 188.827 Q167.468 192.368 167.468 199.498 Q167.468 206.604 169.274 210.169 Q171.102 213.711 174.713 213.711 Q178.348 213.711 180.153 210.169 Q181.982 206.604 181.982 199.498 Q181.982 192.368 180.153 188.827 Q178.348 185.262 174.713 185.262 M174.713 181.558 Q180.524 181.558 183.579 186.165 Q186.658 190.748 186.658 199.498 Q186.658 208.225 183.579 212.831 Q180.524 217.414 174.713 217.414 Q168.903 217.414 165.825 212.831 Q162.769 208.225 162.769 199.498 Q162.769 190.748 165.825 186.165 Q168.903 181.558 174.713 181.558 Z" fill="#000000" fill-rule="evenodd" fill-opacity="1" /><polyline clip-path="url(#clip532)" style="stroke:#009af9; stroke-linecap:butt; stroke-linejoin:round; stroke-width:4; stroke-opacity:1; fill:none" points="
  295.292,1751.15 329.277,1728.45 362.579,1706.12 395.205,1684.15 427.162,1662.53 458.456,1641.28 489.095,1620.39 519.085,1599.85 548.434,1579.68 577.149,1559.86 
  605.236,1540.4 632.702,1521.3 659.554,1502.56 685.8,1484.16 711.446,1466.13 736.498,1448.44 760.965,1431.11 784.853,1414.12 808.168,1397.48 830.919,1381.19 
  853.111,1365.25 874.752,1349.65 895.848,1334.39 916.407,1319.47 936.436,1304.88 955.94,1290.64 974.929,1276.72 993.407,1263.14 1011.38,1249.88 1028.86,1236.96 
  1045.85,1224.35 1062.36,1212.07 1078.4,1200.11 1093.96,1188.46 1109.07,1177.12 1123.72,1166.1 1137.92,1155.38 1151.68,1144.97 1165.01,1134.86 1177.91,1125.05 
  1190.4,1115.53 1202.47,1106.3 1214.13,1097.36 1225.4,1088.71 1236.27,1080.34 1246.76,1072.24 1256.87,1064.42 1266.62,1056.87 1275.99,1049.58 1285.01,1042.56 
  1293.68,1035.8 1302.01,1029.29 1309.99,1023.03 1317.65,1017.01 1324.99,1011.24 1332.01,1005.71 1338.73,1000.41 1345.14,995.334 1351.26,990.486 1357.09,985.859 
  1362.63,981.447 1367.91,977.246 1372.92,973.252 1377.66,969.458 1382.16,965.862 1386.4,962.458 1390.41,959.24 1394.19,956.205 1397.74,953.347 1401.07,950.662 
  1404.19,948.144 1407.11,945.788 1409.83,943.588 1412.36,941.541 1414.7,939.641 1416.87,937.882 1418.87,936.259 1420.7,934.768 1422.38,933.401 1423.91,932.155 
  1425.3,931.024 1426.55,930.003 1427.67,929.085 1428.67,928.266 1429.56,927.54 1430.34,926.901 1431.02,926.344 1431.61,925.864 1432.11,925.455 1432.53,925.11 
  1432.88,924.826 1433.16,924.595 1433.38,924.412 1433.55,924.273 1433.67,924.17 1433.76,924.098 1433.82,924.052 1433.85,924.027 1433.86,924.015 1433.87,924.012 
  1433.87,924.012 1433.87,924.008 1433.88,923.997 1433.92,923.971 1433.97,923.925 1434.06,923.854 1434.18,923.751 1434.35,923.611 1434.58,923.429 1434.86,923.198 
  1435.2,922.913 1435.62,922.569 1436.12,922.159 1436.71,921.679 1437.39,921.122 1438.17,920.484 1439.06,919.758 1440.06,918.938 1441.19,918.021 1442.44,916.999 
  1443.82,915.868 1445.35,914.622 1447.03,913.256 1448.87,911.764 1450.86,910.141 1453.03,908.382 1455.38,906.482 1457.9,904.435 1460.62,902.236 1463.54,899.88 
  1466.66,897.362 1469.99,894.676 1473.54,891.818 1477.32,888.783 1481.33,885.566 1485.58,882.161 1490.07,878.565 1494.82,874.772 1499.83,870.777 1505.1,866.576 
  1510.65,862.164 1516.48,857.537 1522.59,852.69 1529.01,847.618 1535.72,842.317 1542.74,836.783 1550.08,831.011 1557.74,824.997 1565.73,818.737 1574.05,812.227 
  1582.72,805.462 1591.74,798.439 1601.12,791.154 1610.86,783.603 1620.97,775.781 1631.46,767.686 1642.33,759.313 1653.6,750.659 1665.27,741.721 1677.34,732.494 
  1689.82,722.976 1702.72,713.163 1716.05,703.052 1729.81,692.64 1744.02,681.923 1758.67,670.899 1773.77,659.565 1789.34,647.917 1805.37,635.954 1821.88,623.671 
  1838.87,611.067 1856.35,598.14 1874.33,584.885 1892.81,571.302 1911.79,557.388 1931.3,543.141 1951.33,528.558 1971.89,513.637 1992.98,498.377 2014.62,482.775 
  2036.81,466.83 2059.57,450.54 2082.88,433.903 2106.77,416.918 2131.24,399.583 2156.29,381.898 2181.93,363.86 2208.18,345.468 2235.03,326.722 2262.5,307.62 
  2290.59,288.161 2319.3,268.345 2348.65,248.17 2378.64,227.637 2409.28,206.744 2440.57,185.491 2472.53,163.878 2505.15,141.904 2538.46,119.569 2572.44,96.8724 
  
  "/>
<path clip-path="url(#clip530)" d="
M2239.67 209.375 L2560.3 209.375 L2560.3 105.695 L2239.67 105.695  Z
  " fill="#ffffff" fill-rule="evenodd" fill-opacity="1"/>
<polyline clip-path="url(#clip530)" style="stroke:#000000; stroke-linecap:butt; stroke-linejoin:round; stroke-width:4; stroke-opacity:1; fill:none" points="
  2239.67,209.375 2560.3,209.375 2560.3,105.695 2239.67,105.695 2239.67,209.375 
  "/>
<polyline clip-path="url(#clip530)" style="stroke:#009af9; stroke-linecap:butt; stroke-linejoin:round; stroke-width:4; stroke-opacity:1; fill:none" points="
  2266.49,157.535 2427.41,157.535 
  "/>
<path clip-path="url(#clip530)" d="M2468.07 177.223 Q2466.26 181.852 2464.55 183.264 Q2462.84 184.676 2459.97 184.676 L2456.56 184.676 L2456.56 181.112 L2459.06 181.112 Q2460.82 181.112 2461.8 180.278 Q2462.77 179.445 2463.95 176.343 L2464.71 174.399 L2454.23 148.889 L2458.74 148.889 L2466.84 169.167 L2474.94 148.889 L2479.46 148.889 L2468.07 177.223 Z" fill="#000000" fill-rule="evenodd" fill-opacity="1" /><path clip-path="url(#clip530)" d="M2486.75 170.88 L2494.39 170.88 L2494.39 144.515 L2486.08 146.181 L2486.08 141.922 L2494.34 140.255 L2499.02 140.255 L2499.02 170.88 L2506.66 170.88 L2506.66 174.815 L2486.75 174.815 L2486.75 170.88 Z" fill="#000000" fill-rule="evenodd" fill-opacity="1" /></svg>
