<?xml version="1.0" encoding="utf-8"?>
<svg xmlns="http://www.w3.org/2000/svg" xmlns:xlink="http://www.w3.org/1999/xlink" width="672" height="480" viewBox="0 0 2688 1920">
<defs>
  <clipPath id="clip720">
    <rect x="0" y="0" width="2688" height="1920"/>
  </clipPath>
</defs>
<path clip-path="url(#clip720)" d="
M0 1920 L2688 1920 L2688 0 L0 0  Z
  " fill="#ffffff" fill-rule="evenodd" fill-opacity="1"/>
<defs>
  <clipPath id="clip721">
    <rect x="537" y="0" width="1883" height="1883"/>
  </clipPath>
</defs>
<path clip-path="url(#clip720)" d="
M150.358 1800.78 L2640.76 1800.78 L2640.76 47.2441 L150.358 47.2441  Z
  " fill="#ffffff" fill-rule="evenodd" fill-opacity="1"/>
<defs>
  <clipPath id="clip722">
    <rect x="150" y="47" width="2491" height="1755"/>
  </clipPath>
</defs>
<polyline clip-path="url(#clip722)" style="stroke:#000000; stroke-linecap:butt; stroke-linejoin:round; stroke-width:2; stroke-opacity:0.1; fill:none" points="
  579.388,1800.78 579.388,47.2441 
  "/>
<polyline clip-path="url(#clip722)" style="stroke:#000000; stroke-linecap:butt; stroke-linejoin:round; stroke-width:2; stroke-opacity:0.1; fill:none" points="
  1114.82,1800.78 1114.82,47.2441 
  "/>
<polyline clip-path="url(#clip722)" style="stroke:#000000; stroke-linecap:butt; stroke-linejoin:round; stroke-width:2; stroke-opacity:0.1; fill:none" points="
  1650.25,1800.78 1650.25,47.2441 
  "/>
<polyline clip-path="url(#clip722)" style="stroke:#000000; stroke-linecap:butt; stroke-linejoin:round; stroke-width:2; stroke-opacity:0.1; fill:none" points="
  2185.68,1800.78 2185.68,47.2441 
  "/>
<polyline clip-path="url(#clip720)" style="stroke:#000000; stroke-linecap:butt; stroke-linejoin:round; stroke-width:4; stroke-opacity:1; fill:none" points="
  150.358,1800.78 2640.76,1800.78 
  "/>
<polyline clip-path="url(#clip720)" style="stroke:#000000; stroke-linecap:butt; stroke-linejoin:round; stroke-width:4; stroke-opacity:1; fill:none" points="
  579.388,1800.78 579.388,1781.88 
  "/>
<polyline clip-path="url(#clip720)" style="stroke:#000000; stroke-linecap:butt; stroke-linejoin:round; stroke-width:4; stroke-opacity:1; fill:none" points="
  1114.82,1800.78 1114.82,1781.88 
  "/>
<polyline clip-path="url(#clip720)" style="stroke:#000000; stroke-linecap:butt; stroke-linejoin:round; stroke-width:4; stroke-opacity:1; fill:none" points="
  1650.25,1800.78 1650.25,1781.88 
  "/>
<polyline clip-path="url(#clip720)" style="stroke:#000000; stroke-linecap:butt; stroke-linejoin:round; stroke-width:4; stroke-opacity:1; fill:none" points="
  2185.68,1800.78 2185.68,1781.88 
  "/>
<path clip-path="url(#clip720)" d="M549.145 1848.65 L578.821 1848.65 L578.821 1852.59 L549.145 1852.59 L549.145 1848.65 Z" fill="#000000" fill-rule="evenodd" fill-opacity="1" /><path clip-path="url(#clip720)" d="M589.724 1861.55 L597.363 1861.55 L597.363 1835.18 L589.052 1836.85 L589.052 1832.59 L597.316 1830.92 L601.992 1830.92 L601.992 1861.55 L609.631 1861.55 L609.631 1865.48 L589.724 1865.48 L589.724 1861.55 Z" fill="#000000" fill-rule="evenodd" fill-opacity="1" /><path clip-path="url(#clip720)" d="M1114.82 1834 Q1111.21 1834 1109.38 1837.57 Q1107.57 1841.11 1107.57 1848.24 Q1107.57 1855.34 1109.38 1858.91 Q1111.21 1862.45 1114.82 1862.45 Q1118.45 1862.45 1120.26 1858.91 Q1122.09 1855.34 1122.09 1848.24 Q1122.09 1841.11 1120.26 1837.57 Q1118.45 1834 1114.82 1834 M1114.82 1830.3 Q1120.63 1830.3 1123.69 1834.9 Q1126.76 1839.49 1126.76 1848.24 Q1126.76 1856.96 1123.69 1861.57 Q1120.63 1866.15 1114.82 1866.15 Q1109.01 1866.15 1105.93 1861.57 Q1102.88 1856.96 1102.88 1848.24 Q1102.88 1839.49 1105.93 1834.9 Q1109.01 1830.3 1114.82 1830.3 Z" fill="#000000" fill-rule="evenodd" fill-opacity="1" /><path clip-path="url(#clip720)" d="M1640.63 1861.55 L1648.27 1861.55 L1648.27 1835.18 L1639.96 1836.85 L1639.96 1832.59 L1648.23 1830.92 L1652.9 1830.92 L1652.9 1861.55 L1660.54 1861.55 L1660.54 1865.48 L1640.63 1865.48 L1640.63 1861.55 Z" fill="#000000" fill-rule="evenodd" fill-opacity="1" /><path clip-path="url(#clip720)" d="M2180.34 1861.55 L2196.65 1861.55 L2196.65 1865.48 L2174.71 1865.48 L2174.71 1861.55 Q2177.37 1858.79 2181.96 1854.16 Q2186.56 1849.51 2187.74 1848.17 Q2189.99 1845.65 2190.87 1843.91 Q2191.77 1842.15 2191.77 1840.46 Q2191.77 1837.71 2189.83 1835.97 Q2187.9 1834.23 2184.8 1834.23 Q2182.6 1834.23 2180.15 1835 Q2177.72 1835.76 2174.94 1837.31 L2174.94 1832.59 Q2177.77 1831.46 2180.22 1830.88 Q2182.67 1830.3 2184.71 1830.3 Q2190.08 1830.3 2193.27 1832.98 Q2196.47 1835.67 2196.47 1840.16 Q2196.47 1842.29 2195.66 1844.21 Q2194.87 1846.11 2192.77 1848.7 Q2192.19 1849.37 2189.09 1852.59 Q2185.98 1855.78 2180.34 1861.55 Z" fill="#000000" fill-rule="evenodd" fill-opacity="1" /><polyline clip-path="url(#clip722)" style="stroke:#000000; stroke-linecap:butt; stroke-linejoin:round; stroke-width:2; stroke-opacity:0.1; fill:none" points="
  150.358,1685.06 2640.76,1685.06 
  "/>
<polyline clip-path="url(#clip722)" style="stroke:#000000; stroke-linecap:butt; stroke-linejoin:round; stroke-width:2; stroke-opacity:0.1; fill:none" points="
  150.358,1225.47 2640.76,1225.47 
  "/>
<polyline clip-path="url(#clip722)" style="stroke:#000000; stroke-linecap:butt; stroke-linejoin:round; stroke-width:2; stroke-opacity:0.1; fill:none" points="
  150.358,765.88 2640.76,765.88 
  "/>
<polyline clip-path="url(#clip722)" style="stroke:#000000; stroke-linecap:butt; stroke-linejoin:round; stroke-width:2; stroke-opacity:0.1; fill:none" points="
  150.358,306.29 2640.76,306.29 
  "/>
<polyline clip-path="url(#clip720)" style="stroke:#000000; stroke-linecap:butt; stroke-linejoin:round; stroke-width:4; stroke-opacity:1; fill:none" points="
  150.358,1800.78 150.358,47.2441 
  "/>
<polyline clip-path="url(#clip720)" style="stroke:#000000; stroke-linecap:butt; stroke-linejoin:round; stroke-width:4; stroke-opacity:1; fill:none" points="
  150.358,1685.06 169.256,1685.06 
  "/>
<polyline clip-path="url(#clip720)" style="stroke:#000000; stroke-linecap:butt; stroke-linejoin:round; stroke-width:4; stroke-opacity:1; fill:none" points="
  150.358,1225.47 169.256,1225.47 
  "/>
<polyline clip-path="url(#clip720)" style="stroke:#000000; stroke-linecap:butt; stroke-linejoin:round; stroke-width:4; stroke-opacity:1; fill:none" points="
  150.358,765.88 169.256,765.88 
  "/>
<polyline clip-path="url(#clip720)" style="stroke:#000000; stroke-linecap:butt; stroke-linejoin:round; stroke-width:4; stroke-opacity:1; fill:none" points="
  150.358,306.29 169.256,306.29 
  "/>
<path clip-path="url(#clip720)" d="M49.9225 1685.51 L79.5983 1685.51 L79.5983 1689.45 L49.9225 1689.45 L49.9225 1685.51 Z" fill="#000000" fill-rule="evenodd" fill-opacity="1" /><path clip-path="url(#clip720)" d="M93.7186 1698.4 L110.038 1698.4 L110.038 1702.34 L88.0936 1702.34 L88.0936 1698.4 Q90.7556 1695.65 95.3389 1691.02 Q99.9454 1686.37 101.126 1685.02 Q103.371 1682.5 104.251 1680.76 Q105.154 1679.01 105.154 1677.32 Q105.154 1674.56 103.209 1672.82 Q101.288 1671.09 98.1861 1671.09 Q95.9871 1671.09 93.5334 1671.85 Q91.1028 1672.62 88.3251 1674.17 L88.3251 1669.45 Q91.1491 1668.31 93.6028 1667.73 Q96.0565 1667.15 98.0935 1667.15 Q103.464 1667.15 106.658 1669.84 Q109.853 1672.52 109.853 1677.01 Q109.853 1679.14 109.043 1681.07 Q108.256 1682.96 106.149 1685.56 Q105.57 1686.23 102.469 1689.45 Q99.3667 1692.64 93.7186 1698.4 Z" fill="#000000" fill-rule="evenodd" fill-opacity="1" /><path clip-path="url(#clip720)" d="M49.5521 1225.92 L79.2279 1225.92 L79.2279 1229.86 L49.5521 1229.86 L49.5521 1225.92 Z" fill="#000000" fill-rule="evenodd" fill-opacity="1" /><path clip-path="url(#clip720)" d="M90.1306 1238.81 L97.7695 1238.81 L97.7695 1212.45 L89.4593 1214.12 L89.4593 1209.86 L97.7232 1208.19 L102.399 1208.19 L102.399 1238.81 L110.038 1238.81 L110.038 1242.75 L90.1306 1242.75 L90.1306 1238.81 Z" fill="#000000" fill-rule="evenodd" fill-opacity="1" /><path clip-path="url(#clip720)" d="M98.0935 751.679 Q94.4824 751.679 92.6537 755.243 Q90.8482 758.785 90.8482 765.915 Q90.8482 773.021 92.6537 776.586 Q94.4824 780.127 98.0935 780.127 Q101.728 780.127 103.533 776.586 Q105.362 773.021 105.362 765.915 Q105.362 758.785 103.533 755.243 Q101.728 751.679 98.0935 751.679 M98.0935 747.975 Q103.904 747.975 106.959 752.581 Q110.038 757.165 110.038 765.915 Q110.038 774.641 106.959 779.248 Q103.904 783.831 98.0935 783.831 Q92.2834 783.831 89.2047 779.248 Q86.1492 774.641 86.1492 765.915 Q86.1492 757.165 89.2047 752.581 Q92.2834 747.975 98.0935 747.975 Z" fill="#000000" fill-rule="evenodd" fill-opacity="1" /><path clip-path="url(#clip720)" d="M90.1306 319.635 L97.7695 319.635 L97.7695 293.27 L89.4593 294.936 L89.4593 290.677 L97.7232 289.01 L102.399 289.01 L102.399 319.635 L110.038 319.635 L110.038 323.57 L90.1306 323.57 L90.1306 319.635 Z" fill="#000000" fill-rule="evenodd" fill-opacity="1" /><polyline clip-path="url(#clip722)" style="stroke:#009af9; stroke-linecap:butt; stroke-linejoin:round; stroke-width:4; stroke-opacity:1; fill:none" points="
  1650.25,765.88 1651.1,761.172 1651.88,756.45 1652.62,751.713 1653.3,746.962 1656.91,702.458 1655.59,657.183 1649.2,611.537 1637.64,565.93 1628.19,538.72 
  1616.85,511.771 1603.63,485.179 1588.53,459.039 1558.78,416.134 1523.85,375.257 1480.22,333.68 1430.98,295.604 1380.92,264.078 1326.74,236.405 1296.13,223.294 
  1264.52,211.458 1231.97,200.95 1198.56,191.823 1158.88,183.036 1118.28,176.236 1076.88,171.484 1034.83,168.838 997.022,168.295 958.915,169.485 920.613,172.435 
  882.224,177.166 848.576,182.794 815.023,189.812 781.64,198.226 748.504,208.037 712.752,220.325 677.488,234.266 642.816,249.852 608.836,267.067 575.456,286.008 
  542.983,306.554 511.521,328.676 481.169,352.339 449.026,380.249 418.496,409.939 389.709,441.341 362.793,474.383 339.031,507.273 317.176,541.502 297.325,576.992 
  279.572,613.658 263.434,652.933 249.756,693.278 238.625,734.582 230.124,776.727 225.06,812.769 221.954,849.247 220.841,886.085 221.754,923.205 225.656,968.786 
  232.663,1014.52 242.808,1060.24 256.115,1105.81 271.092,1147.27 288.734,1188.35 309.038,1228.91 331.989,1268.82 355.52,1305.02 381.27,1340.46 409.21,1375.05 
  439.305,1408.7 471.949,1441.72 506.716,1473.57 543.555,1504.15 582.404,1533.36 628.252,1564.37 676.443,1593.41 726.866,1620.36 779.403,1645.1 828.729,1665.52 
  879.583,1683.94 931.861,1700.28 985.449,1714.47 1048.26,1728 1112.45,1738.51 1177.84,1745.91 1244.2,1750.14 1306.36,1751.15 1369.01,1749.32 1432,1744.6 
  1495.13,1736.97 1557.34,1726.55 1619.35,1713.25 1680.98,1697.06 1742.04,1677.97 1800.61,1656.66 1858.32,1632.64 1914.99,1605.93 1970.45,1576.55 2025.88,1543.7 
  2079.69,1508.12 2131.71,1469.88 2181.75,1429.03 2234.1,1381.38 2283.66,1330.78 2330.2,1277.36 2373.51,1221.25 2402.83,1178.88 2430.26,1135.23 2455.74,1090.34 
  2479.18,1044.28 2500.52,997.124 2519.7,948.931 2536.65,899.777 2551.31,849.734 2556.65,828.962 2561.6,808.058 2566.14,787.029 2570.27,765.88 
  "/>
<polyline clip-path="url(#clip722)" style="stroke:#e26f46; stroke-linecap:butt; stroke-linejoin:round; stroke-width:4; stroke-opacity:1; fill:none" points="
  1641.4,578.659 1507.09,96.8724 
  "/>
<polyline clip-path="url(#clip722)" style="stroke:#e26f46; stroke-linecap:butt; stroke-linejoin:round; stroke-width:4; stroke-opacity:1; fill:none" points="
  1498.5,141.125 1507.09,96.8724 1537.34,130.298 
  "/>
<polyline clip-path="url(#clip722)" style="stroke:#e26f46; stroke-linecap:butt; stroke-linejoin:round; stroke-width:4; stroke-opacity:1; fill:none" points="
  1507.09,96.8724 1641.4,578.659 
  "/>
<path clip-path="url(#clip720)" d="
M2228.6 209.375 L2557.74 209.375 L2557.74 105.695 L2228.6 105.695  Z
  " fill="#ffffff" fill-rule="evenodd" fill-opacity="1"/>
<polyline clip-path="url(#clip720)" style="stroke:#000000; stroke-linecap:butt; stroke-linejoin:round; stroke-width:4; stroke-opacity:1; fill:none" points="
  2228.6,209.375 2557.74,209.375 2557.74,105.695 2228.6,105.695 2228.6,209.375 
  "/>
<polyline clip-path="url(#clip720)" style="stroke:#009af9; stroke-linecap:butt; stroke-linejoin:round; stroke-width:4; stroke-opacity:1; fill:none" points="
  2256.27,157.535 2422.3,157.535 
  "/>
<path clip-path="url(#clip720)" d="M2463.81 177.223 Q2462.01 181.852 2460.29 183.264 Q2458.58 184.676 2455.71 184.676 L2452.31 184.676 L2452.31 181.112 L2454.81 181.112 Q2456.57 181.112 2457.54 180.278 Q2458.51 179.445 2459.69 176.343 L2460.46 174.399 L2449.97 148.889 L2454.48 148.889 L2462.59 169.167 L2470.69 148.889 L2475.2 148.889 L2463.81 177.223 Z" fill="#000000" fill-rule="evenodd" fill-opacity="1" /><path clip-path="url(#clip720)" d="M2482.49 170.88 L2490.13 170.88 L2490.13 144.515 L2481.82 146.181 L2481.82 141.922 L2490.09 140.255 L2494.76 140.255 L2494.76 170.88 L2502.4 170.88 L2502.4 174.815 L2482.49 174.815 L2482.49 170.88 Z" fill="#000000" fill-rule="evenodd" fill-opacity="1" /></svg>
