<?xml version="1.0" encoding="utf-8"?>
<svg xmlns="http://www.w3.org/2000/svg" xmlns:xlink="http://www.w3.org/1999/xlink" width="672" height="480" viewBox="0 0 2688 1920">
<defs>
  <clipPath id="clip560">
    <rect x="0" y="0" width="2688" height="1920"/>
  </clipPath>
</defs>
<path clip-path="url(#clip560)" d="
M0 1920 L2688 1920 L2688 0 L0 0  Z
  " fill="#ffffff" fill-rule="evenodd" fill-opacity="1"/>
<defs>
  <clipPath id="clip561">
    <rect x="537" y="0" width="1883" height="1883"/>
  </clipPath>
</defs>
<path clip-path="url(#clip560)" d="
M150.358 1800.78 L2640.76 1800.78 L2640.76 47.2441 L150.358 47.2441  Z
  " fill="#ffffff" fill-rule="evenodd" fill-opacity="1"/>
<defs>
  <clipPath id="clip562">
    <rect x="150" y="47" width="2491" height="1755"/>
  </clipPath>
</defs>
<polyline clip-path="url(#clip562)" style="stroke:#000000; stroke-linecap:butt; stroke-linejoin:round; stroke-width:2; stroke-opacity:0.1; fill:none" points="
  579.294,1800.78 579.294,47.2441 
  "/>
<polyline clip-path="url(#clip562)" style="stroke:#000000; stroke-linecap:butt; stroke-linejoin:round; stroke-width:2; stroke-opacity:0.1; fill:none" points="
  1114.75,1800.78 1114.75,47.2441 
  "/>
<polyline clip-path="url(#clip562)" style="stroke:#000000; stroke-linecap:butt; stroke-linejoin:round; stroke-width:2; stroke-opacity:0.1; fill:none" points="
  1650.21,1800.78 1650.21,47.2441 
  "/>
<polyline clip-path="url(#clip562)" style="stroke:#000000; stroke-linecap:butt; stroke-linejoin:round; stroke-width:2; stroke-opacity:0.1; fill:none" points="
  2185.66,1800.78 2185.66,47.2441 
  "/>
<polyline clip-path="url(#clip560)" style="stroke:#000000; stroke-linecap:butt; stroke-linejoin:round; stroke-width:4; stroke-opacity:1; fill:none" points="
  150.358,1800.78 2640.76,1800.78 
  "/>
<polyline clip-path="url(#clip560)" style="stroke:#000000; stroke-linecap:butt; stroke-linejoin:round; stroke-width:4; stroke-opacity:1; fill:none" points="
  579.294,1800.78 579.294,1781.88 
  "/>
<polyline clip-path="url(#clip560)" style="stroke:#000000; stroke-linecap:butt; stroke-linejoin:round; stroke-width:4; stroke-opacity:1; fill:none" points="
  1114.75,1800.78 1114.75,1781.88 
  "/>
<polyline clip-path="url(#clip560)" style="stroke:#000000; stroke-linecap:butt; stroke-linejoin:round; stroke-width:4; stroke-opacity:1; fill:none" points="
  1650.21,1800.78 1650.21,1781.88 
  "/>
<polyline clip-path="url(#clip560)" style="stroke:#000000; stroke-linecap:butt; stroke-linejoin:round; stroke-width:4; stroke-opacity:1; fill:none" points="
  2185.66,1800.78 2185.66,1781.88 
  "/>
<path clip-path="url(#clip560)" d="M549.051 1848.65 L578.727 1848.65 L578.727 1852.59 L549.051 1852.59 L549.051 1848.65 Z" fill="#000000" fill-rule="evenodd" fill-opacity="1" /><path clip-path="url(#clip560)" d="M589.63 1861.55 L597.269 1861.55 L597.269 1835.18 L588.959 1836.85 L588.959 1832.59 L597.222 1830.92 L601.898 1830.92 L601.898 1861.55 L609.537 1861.55 L609.537 1865.48 L589.63 1865.48 L589.63 1861.55 Z" fill="#000000" fill-rule="evenodd" fill-opacity="1" /><path clip-path="url(#clip560)" d="M1114.75 1834 Q1111.14 1834 1109.31 1837.57 Q1107.51 1841.11 1107.51 1848.24 Q1107.51 1855.34 1109.31 1858.91 Q1111.14 1862.45 1114.75 1862.45 Q1118.39 1862.45 1120.19 1858.91 Q1122.02 1855.34 1122.02 1848.24 Q1122.02 1841.11 1120.19 1837.57 Q1118.39 1834 1114.75 1834 M1114.75 1830.3 Q1120.56 1830.3 1123.62 1834.9 Q1126.7 1839.49 1126.7 1848.24 Q1126.7 1856.96 1123.62 1861.57 Q1120.56 1866.15 1114.75 1866.15 Q1108.94 1866.15 1105.86 1861.57 Q1102.81 1856.96 1102.81 1848.24 Q1102.81 1839.49 1105.86 1834.9 Q1108.94 1830.3 1114.75 1830.3 Z" fill="#000000" fill-rule="evenodd" fill-opacity="1" /><path clip-path="url(#clip560)" d="M1640.59 1861.55 L1648.23 1861.55 L1648.23 1835.18 L1639.92 1836.85 L1639.92 1832.59 L1648.18 1830.92 L1652.86 1830.92 L1652.86 1861.55 L1660.5 1861.55 L1660.5 1865.48 L1640.59 1865.48 L1640.59 1861.55 Z" fill="#000000" fill-rule="evenodd" fill-opacity="1" /><path clip-path="url(#clip560)" d="M2180.32 1861.55 L2196.64 1861.55 L2196.64 1865.48 L2174.69 1865.48 L2174.69 1861.55 Q2177.35 1858.79 2181.94 1854.16 Q2186.54 1849.51 2187.72 1848.17 Q2189.97 1845.65 2190.85 1843.91 Q2191.75 1842.15 2191.75 1840.46 Q2191.75 1837.71 2189.81 1835.97 Q2187.89 1834.23 2184.78 1834.23 Q2182.59 1834.23 2180.13 1835 Q2177.7 1835.76 2174.92 1837.31 L2174.92 1832.59 Q2177.75 1831.46 2180.2 1830.88 Q2182.65 1830.3 2184.69 1830.3 Q2190.06 1830.3 2193.26 1832.98 Q2196.45 1835.67 2196.45 1840.16 Q2196.45 1842.29 2195.64 1844.21 Q2194.85 1846.11 2192.75 1848.7 Q2192.17 1849.37 2189.07 1852.59 Q2185.97 1855.78 2180.32 1861.55 Z" fill="#000000" fill-rule="evenodd" fill-opacity="1" /><polyline clip-path="url(#clip562)" style="stroke:#000000; stroke-linecap:butt; stroke-linejoin:round; stroke-width:2; stroke-opacity:0.1; fill:none" points="
  150.358,1682.08 2640.76,1682.08 
  "/>
<polyline clip-path="url(#clip562)" style="stroke:#000000; stroke-linecap:butt; stroke-linejoin:round; stroke-width:2; stroke-opacity:0.1; fill:none" points="
  150.358,1201.75 2640.76,1201.75 
  "/>
<polyline clip-path="url(#clip562)" style="stroke:#000000; stroke-linecap:butt; stroke-linejoin:round; stroke-width:2; stroke-opacity:0.1; fill:none" points="
  150.358,721.43 2640.76,721.43 
  "/>
<polyline clip-path="url(#clip562)" style="stroke:#000000; stroke-linecap:butt; stroke-linejoin:round; stroke-width:2; stroke-opacity:0.1; fill:none" points="
  150.358,241.105 2640.76,241.105 
  "/>
<polyline clip-path="url(#clip560)" style="stroke:#000000; stroke-linecap:butt; stroke-linejoin:round; stroke-width:4; stroke-opacity:1; fill:none" points="
  150.358,1800.78 150.358,47.2441 
  "/>
<polyline clip-path="url(#clip560)" style="stroke:#000000; stroke-linecap:butt; stroke-linejoin:round; stroke-width:4; stroke-opacity:1; fill:none" points="
  150.358,1682.08 169.256,1682.08 
  "/>
<polyline clip-path="url(#clip560)" style="stroke:#000000; stroke-linecap:butt; stroke-linejoin:round; stroke-width:4; stroke-opacity:1; fill:none" points="
  150.358,1201.75 169.256,1201.75 
  "/>
<polyline clip-path="url(#clip560)" style="stroke:#000000; stroke-linecap:butt; stroke-linejoin:round; stroke-width:4; stroke-opacity:1; fill:none" points="
  150.358,721.43 169.256,721.43 
  "/>
<polyline clip-path="url(#clip560)" style="stroke:#000000; stroke-linecap:butt; stroke-linejoin:round; stroke-width:4; stroke-opacity:1; fill:none" points="
  150.358,241.105 169.256,241.105 
  "/>
<path clip-path="url(#clip560)" d="M49.9225 1682.53 L79.5983 1682.53 L79.5983 1686.47 L49.9225 1686.47 L49.9225 1682.53 Z" fill="#000000" fill-rule="evenodd" fill-opacity="1" /><path clip-path="url(#clip560)" d="M93.7186 1695.42 L110.038 1695.42 L110.038 1699.36 L88.0936 1699.36 L88.0936 1695.42 Q90.7556 1692.67 95.3389 1688.04 Q99.9454 1683.39 101.126 1682.04 Q103.371 1679.52 104.251 1677.79 Q105.154 1676.03 105.154 1674.34 Q105.154 1671.58 103.209 1669.85 Q101.288 1668.11 98.1861 1668.11 Q95.9871 1668.11 93.5334 1668.87 Q91.1028 1669.64 88.3251 1671.19 L88.3251 1666.47 Q91.1491 1665.33 93.6028 1664.75 Q96.0565 1664.17 98.0935 1664.17 Q103.464 1664.17 106.658 1666.86 Q109.853 1669.54 109.853 1674.04 Q109.853 1676.17 109.043 1678.09 Q108.256 1679.98 106.149 1682.58 Q105.57 1683.25 102.469 1686.47 Q99.3667 1689.66 93.7186 1695.42 Z" fill="#000000" fill-rule="evenodd" fill-opacity="1" /><path clip-path="url(#clip560)" d="M49.5521 1202.21 L79.2279 1202.21 L79.2279 1206.14 L49.5521 1206.14 L49.5521 1202.21 Z" fill="#000000" fill-rule="evenodd" fill-opacity="1" /><path clip-path="url(#clip560)" d="M90.1306 1215.1 L97.7695 1215.1 L97.7695 1188.73 L89.4593 1190.4 L89.4593 1186.14 L97.7232 1184.47 L102.399 1184.47 L102.399 1215.1 L110.038 1215.1 L110.038 1219.03 L90.1306 1219.03 L90.1306 1215.1 Z" fill="#000000" fill-rule="evenodd" fill-opacity="1" /><path clip-path="url(#clip560)" d="M98.0935 707.228 Q94.4824 707.228 92.6537 710.793 Q90.8482 714.335 90.8482 721.464 Q90.8482 728.571 92.6537 732.136 Q94.4824 735.677 98.0935 735.677 Q101.728 735.677 103.533 732.136 Q105.362 728.571 105.362 721.464 Q105.362 714.335 103.533 710.793 Q101.728 707.228 98.0935 707.228 M98.0935 703.525 Q103.904 703.525 106.959 708.131 Q110.038 712.714 110.038 721.464 Q110.038 730.191 106.959 734.798 Q103.904 739.381 98.0935 739.381 Q92.2834 739.381 89.2047 734.798 Q86.1492 730.191 86.1492 721.464 Q86.1492 712.714 89.2047 708.131 Q92.2834 703.525 98.0935 703.525 Z" fill="#000000" fill-rule="evenodd" fill-opacity="1" /><path clip-path="url(#clip560)" d="M90.1306 254.449 L97.7695 254.449 L97.7695 228.084 L89.4593 229.751 L89.4593 225.491 L97.7232 223.825 L102.399 223.825 L102.399 254.449 L110.038 254.449 L110.038 258.385 L90.1306 258.385 L90.1306 254.449 Z" fill="#000000" fill-rule="evenodd" fill-opacity="1" /><polyline clip-path="url(#clip562)" style="stroke:#009af9; stroke-linecap:butt; stroke-linejoin:round; stroke-width:4; stroke-opacity:1; fill:none" points="
  1650.21,721.43 1652.64,706.19 1654.54,690.812 1655.9,675.311 1656.73,659.7 1657,643.994 1656.72,628.21 1655.89,612.362 1654.48,596.466 1652.51,580.538 
  1649.97,564.594 1646.85,548.649 1643.15,532.721 1638.88,516.826 1634.02,500.981 1628.58,485.202 1622.55,469.507 1615.95,453.911 1608.76,438.433 1600.99,423.089 
  1592.64,407.897 1583.72,392.873 1574.23,378.035 1564.17,363.4 1553.54,348.985 1542.36,334.807 1530.63,320.883 1518.35,307.23 1505.53,293.864 1492.18,280.802 
  1478.31,268.061 1463.92,255.657 1449.03,243.606 1433.65,231.925 1417.78,220.628 1401.44,209.731 1384.64,199.251 1367.4,189.2 1349.72,179.595 1331.62,170.449 
  1313.12,161.777 1294.22,153.592 1274.95,145.908 1255.32,138.738 1235.35,132.093 1215.06,125.987 1194.45,120.431 1173.56,115.436 1152.39,111.013 1130.97,107.172 
  1109.32,103.924 1087.45,101.277 1065.39,99.2406 1043.16,97.8226 1020.78,97.0308 998.271,96.8724 975.652,97.354 952.948,98.4816 930.181,100.26 907.373,102.695 
  884.548,105.79 861.729,109.549 838.94,113.974 816.203,119.068 793.543,124.832 770.985,131.267 748.552,138.374 726.268,146.151 704.158,154.597 682.247,163.712 
  660.559,173.491 639.118,183.932 617.949,195.03 597.077,206.781 576.526,219.18 556.32,232.219 536.483,245.893 517.04,260.194 498.015,275.113 479.431,290.641 
  461.312,306.768 443.681,323.484 426.561,340.778 409.976,358.637 393.947,377.05 378.496,396.002 363.646,415.48 349.417,435.469 335.83,455.954 322.907,476.918 
  310.666,498.346 299.128,520.219 288.311,542.519 278.233,565.229 268.914,588.328 260.368,611.797 252.615,635.616 245.668,659.764 239.544,684.219 234.257,708.96 
  229.822,733.963 226.25,759.205 223.555,784.664 221.748,810.315 220.841,836.134 220.842,862.096 221.762,888.175 223.608,914.347 226.389,940.585 230.11,966.863 
  234.777,993.154 240.395,1019.43 246.969,1045.67 254.5,1071.84 262.991,1097.91 272.442,1123.86 282.855,1149.66 294.226,1175.28 306.556,1200.69 319.841,1225.87 
  334.076,1250.78 349.257,1275.4 365.377,1299.7 382.43,1323.65 400.408,1347.22 419.301,1370.39 439.099,1393.13 459.792,1415.41 481.366,1437.2 503.809,1458.47 
  527.105,1479.2 551.241,1499.37 576.2,1518.93 601.964,1537.88 628.515,1556.18 655.833,1573.8 683.899,1590.73 712.691,1606.94 742.186,1622.4 772.363,1637.09 
  803.196,1650.99 834.66,1664.07 866.73,1676.32 899.379,1687.71 932.578,1698.23 966.3,1707.84 1000.52,1716.54 1035.19,1724.31 1070.3,1731.12 1105.81,1736.97 
  1141.69,1741.83 1177.91,1745.69 1214.42,1748.54 1251.2,1750.37 1288.21,1751.15 1325.42,1750.89 1362.79,1749.56 1400.28,1747.17 1437.85,1743.69 1475.47,1739.14 
  1513.11,1733.49 1550.71,1726.74 1588.24,1718.89 1625.67,1709.94 1662.95,1699.89 1700.05,1688.72 1736.91,1676.45 1773.52,1663.08 1809.81,1648.6 1845.76,1633.03 
  1881.32,1616.36 1916.45,1598.6 1951.11,1579.76 1985.26,1559.85 2018.87,1538.88 2051.88,1516.86 2084.27,1493.8 2115.98,1469.71 2146.99,1444.61 2177.25,1418.51 
  2206.73,1391.43 2235.38,1363.39 2263.17,1334.41 2290.06,1304.51 2316.01,1273.7 2341,1242.02 2364.97,1209.48 2387.91,1176.11 2409.77,1141.94 2430.51,1106.99 
  2450.12,1071.29 2468.55,1034.87 2485.78,997.765 2501.78,959.998 2516.51,921.604 2529.95,882.617 2542.07,843.071 2552.85,803 2562.26,762.441 2570.27,721.43 
  
  "/>
<path clip-path="url(#clip560)" d="
M2228.6 209.375 L2557.74 209.375 L2557.74 105.695 L2228.6 105.695  Z
  " fill="#ffffff" fill-rule="evenodd" fill-opacity="1"/>
<polyline clip-path="url(#clip560)" style="stroke:#000000; stroke-linecap:butt; stroke-linejoin:round; stroke-width:4; stroke-opacity:1; fill:none" points="
  2228.6,209.375 2557.74,209.375 2557.74,105.695 2228.6,105.695 2228.6,209.375 
  "/>
<polyline clip-path="url(#clip560)" style="stroke:#009af9; stroke-linecap:butt; stroke-linejoin:round; stroke-width:4; stroke-opacity:1; fill:none" points="
  2256.27,157.535 2422.3,157.535 
  "/>
<path clip-path="url(#clip560)" d="M2463.81 177.223 Q2462.01 181.852 2460.29 183.264 Q2458.58 184.676 2455.71 184.676 L2452.31 184.676 L2452.31 181.112 L2454.81 181.112 Q2456.57 181.112 2457.54 180.278 Q2458.51 179.445 2459.69 176.343 L2460.46 174.399 L2449.97 148.889 L2454.48 148.889 L2462.59 169.167 L2470.69 148.889 L2475.2 148.889 L2463.81 177.223 Z" fill="#000000" fill-rule="evenodd" fill-opacity="1" /><path clip-path="url(#clip560)" d="M2482.49 170.88 L2490.13 170.88 L2490.13 144.515 L2481.82 146.181 L2481.82 141.922 L2490.09 140.255 L2494.76 140.255 L2494.76 170.88 L2502.4 170.88 L2502.4 174.815 L2482.49 174.815 L2482.49 170.88 Z" fill="#000000" fill-rule="evenodd" fill-opacity="1" /></svg>
