<?xml version="1.0" encoding="utf-8"?>
<svg xmlns="http://www.w3.org/2000/svg" xmlns:xlink="http://www.w3.org/1999/xlink" width="672" height="480" viewBox="0 0 2688 1920">
<defs>
  <clipPath id="clip390">
    <rect x="0" y="0" width="2688" height="1920"/>
  </clipPath>
</defs>
<path clip-path="url(#clip390)" d="
M0 1920 L2688 1920 L2688 0 L0 0  Z
  " fill="#ffffff" fill-rule="evenodd" fill-opacity="1"/>
<defs>
  <clipPath id="clip391">
    <rect x="537" y="0" width="1883" height="1883"/>
  </clipPath>
</defs>
<path clip-path="url(#clip390)" d="
M150.358 1800.78 L2640.76 1800.78 L2640.76 47.2441 L150.358 47.2441  Z
  " fill="#ffffff" fill-rule="evenodd" fill-opacity="1"/>
<defs>
  <clipPath id="clip392">
    <rect x="150" y="47" width="2491" height="1755"/>
  </clipPath>
</defs>
<polyline clip-path="url(#clip392)" style="stroke:#000000; stroke-linecap:butt; stroke-linejoin:round; stroke-width:2; stroke-opacity:0.1; fill:none" points="
  579.22,1800.78 579.22,47.2441 
  "/>
<polyline clip-path="url(#clip392)" style="stroke:#000000; stroke-linecap:butt; stroke-linejoin:round; stroke-width:2; stroke-opacity:0.1; fill:none" points="
  1114.7,1800.78 1114.7,47.2441 
  "/>
<polyline clip-path="url(#clip392)" style="stroke:#000000; stroke-linecap:butt; stroke-linejoin:round; stroke-width:2; stroke-opacity:0.1; fill:none" points="
  1650.17,1800.78 1650.17,47.2441 
  "/>
<polyline clip-path="url(#clip392)" style="stroke:#000000; stroke-linecap:butt; stroke-linejoin:round; stroke-width:2; stroke-opacity:0.1; fill:none" points="
  2185.65,1800.78 2185.65,47.2441 
  "/>
<polyline clip-path="url(#clip390)" style="stroke:#000000; stroke-linecap:butt; stroke-linejoin:round; stroke-width:4; stroke-opacity:1; fill:none" points="
  150.358,1800.78 2640.76,1800.78 
  "/>
<polyline clip-path="url(#clip390)" style="stroke:#000000; stroke-linecap:butt; stroke-linejoin:round; stroke-width:4; stroke-opacity:1; fill:none" points="
  579.22,1800.78 579.22,1781.88 
  "/>
<polyline clip-path="url(#clip390)" style="stroke:#000000; stroke-linecap:butt; stroke-linejoin:round; stroke-width:4; stroke-opacity:1; fill:none" points="
  1114.7,1800.78 1114.7,1781.88 
  "/>
<polyline clip-path="url(#clip390)" style="stroke:#000000; stroke-linecap:butt; stroke-linejoin:round; stroke-width:4; stroke-opacity:1; fill:none" points="
  1650.17,1800.78 1650.17,1781.88 
  "/>
<polyline clip-path="url(#clip390)" style="stroke:#000000; stroke-linecap:butt; stroke-linejoin:round; stroke-width:4; stroke-opacity:1; fill:none" points="
  2185.65,1800.78 2185.65,1781.88 
  "/>
<path clip-path="url(#clip390)" d="M548.977 1848.65 L578.653 1848.65 L578.653 1852.59 L548.977 1852.59 L548.977 1848.65 Z" fill="#000000" fill-rule="evenodd" fill-opacity="1" /><path clip-path="url(#clip390)" d="M589.555 1861.55 L597.194 1861.55 L597.194 1835.18 L588.884 1836.85 L588.884 1832.59 L597.148 1830.92 L601.824 1830.92 L601.824 1861.55 L609.463 1861.55 L609.463 1865.48 L589.555 1865.48 L589.555 1861.55 Z" fill="#000000" fill-rule="evenodd" fill-opacity="1" /><path clip-path="url(#clip390)" d="M1114.7 1834 Q1111.09 1834 1109.26 1837.57 Q1107.45 1841.11 1107.45 1848.24 Q1107.45 1855.34 1109.26 1858.91 Q1111.09 1862.45 1114.7 1862.45 Q1118.33 1862.45 1120.14 1858.91 Q1121.96 1855.34 1121.96 1848.24 Q1121.96 1841.11 1120.14 1837.57 Q1118.33 1834 1114.7 1834 M1114.7 1830.3 Q1120.51 1830.3 1123.56 1834.9 Q1126.64 1839.49 1126.64 1848.24 Q1126.64 1856.96 1123.56 1861.57 Q1120.51 1866.15 1114.7 1866.15 Q1108.89 1866.15 1105.81 1861.57 Q1102.75 1856.96 1102.75 1848.24 Q1102.75 1839.49 1105.81 1834.9 Q1108.89 1830.3 1114.7 1830.3 Z" fill="#000000" fill-rule="evenodd" fill-opacity="1" /><path clip-path="url(#clip390)" d="M1640.56 1861.55 L1648.19 1861.55 L1648.19 1835.18 L1639.88 1836.85 L1639.88 1832.59 L1648.15 1830.92 L1652.82 1830.92 L1652.82 1861.55 L1660.46 1861.55 L1660.46 1865.48 L1640.56 1865.48 L1640.56 1861.55 Z" fill="#000000" fill-rule="evenodd" fill-opacity="1" /><path clip-path="url(#clip390)" d="M2180.3 1861.55 L2196.62 1861.55 L2196.62 1865.48 L2174.68 1865.48 L2174.68 1861.55 Q2177.34 1858.79 2181.92 1854.16 Q2186.53 1849.51 2187.71 1848.17 Q2189.96 1845.65 2190.83 1843.91 Q2191.74 1842.15 2191.74 1840.46 Q2191.74 1837.71 2189.79 1835.97 Q2187.87 1834.23 2184.77 1834.23 Q2182.57 1834.23 2180.12 1835 Q2177.69 1835.76 2174.91 1837.31 L2174.91 1832.59 Q2177.73 1831.46 2180.19 1830.88 Q2182.64 1830.3 2184.68 1830.3 Q2190.05 1830.3 2193.24 1832.98 Q2196.44 1835.67 2196.44 1840.16 Q2196.44 1842.29 2195.63 1844.21 Q2194.84 1846.11 2192.73 1848.7 Q2192.15 1849.37 2189.05 1852.59 Q2185.95 1855.78 2180.3 1861.55 Z" fill="#000000" fill-rule="evenodd" fill-opacity="1" /><polyline clip-path="url(#clip392)" style="stroke:#000000; stroke-linecap:butt; stroke-linejoin:round; stroke-width:2; stroke-opacity:0.1; fill:none" points="
  150.358,1682.06 2640.76,1682.06 
  "/>
<polyline clip-path="url(#clip392)" style="stroke:#000000; stroke-linecap:butt; stroke-linejoin:round; stroke-width:2; stroke-opacity:0.1; fill:none" points="
  150.358,1201.73 2640.76,1201.73 
  "/>
<polyline clip-path="url(#clip392)" style="stroke:#000000; stroke-linecap:butt; stroke-linejoin:round; stroke-width:2; stroke-opacity:0.1; fill:none" points="
  150.358,721.4 2640.76,721.4 
  "/>
<polyline clip-path="url(#clip392)" style="stroke:#000000; stroke-linecap:butt; stroke-linejoin:round; stroke-width:2; stroke-opacity:0.1; fill:none" points="
  150.358,241.071 2640.76,241.071 
  "/>
<polyline clip-path="url(#clip390)" style="stroke:#000000; stroke-linecap:butt; stroke-linejoin:round; stroke-width:4; stroke-opacity:1; fill:none" points="
  150.358,1800.78 150.358,47.2441 
  "/>
<polyline clip-path="url(#clip390)" style="stroke:#000000; stroke-linecap:butt; stroke-linejoin:round; stroke-width:4; stroke-opacity:1; fill:none" points="
  150.358,1682.06 169.256,1682.06 
  "/>
<polyline clip-path="url(#clip390)" style="stroke:#000000; stroke-linecap:butt; stroke-linejoin:round; stroke-width:4; stroke-opacity:1; fill:none" points="
  150.358,1201.73 169.256,1201.73 
  "/>
<polyline clip-path="url(#clip390)" style="stroke:#000000; stroke-linecap:butt; stroke-linejoin:round; stroke-width:4; stroke-opacity:1; fill:none" points="
  150.358,721.4 169.256,721.4 
  "/>
<polyline clip-path="url(#clip390)" style="stroke:#000000; stroke-linecap:butt; stroke-linejoin:round; stroke-width:4; stroke-opacity:1; fill:none" points="
  150.358,241.071 169.256,241.071 
  "/>
<path clip-path="url(#clip390)" d="M49.9225 1682.51 L79.5983 1682.51 L79.5983 1686.44 L49.9225 1686.44 L49.9225 1682.51 Z" fill="#000000" fill-rule="evenodd" fill-opacity="1" /><path clip-path="url(#clip390)" d="M93.7186 1695.4 L110.038 1695.4 L110.038 1699.34 L88.0936 1699.34 L88.0936 1695.4 Q90.7556 1692.65 95.3389 1688.02 Q99.9454 1683.37 101.126 1682.02 Q103.371 1679.5 104.251 1677.76 Q105.154 1676 105.154 1674.32 Q105.154 1671.56 103.209 1669.82 Q101.288 1668.09 98.1861 1668.09 Q95.9871 1668.09 93.5334 1668.85 Q91.1028 1669.62 88.3251 1671.17 L88.3251 1666.44 Q91.1491 1665.31 93.6028 1664.73 Q96.0565 1664.15 98.0935 1664.15 Q103.464 1664.15 106.658 1666.84 Q109.853 1669.52 109.853 1674.01 Q109.853 1676.14 109.043 1678.07 Q108.256 1679.96 106.149 1682.56 Q105.57 1683.23 102.469 1686.44 Q99.3667 1689.64 93.7186 1695.4 Z" fill="#000000" fill-rule="evenodd" fill-opacity="1" /><path clip-path="url(#clip390)" d="M49.5521 1202.18 L79.2279 1202.18 L79.2279 1206.12 L49.5521 1206.12 L49.5521 1202.18 Z" fill="#000000" fill-rule="evenodd" fill-opacity="1" /><path clip-path="url(#clip390)" d="M90.1306 1215.07 L97.7695 1215.07 L97.7695 1188.71 L89.4593 1190.37 L89.4593 1186.12 L97.7232 1184.45 L102.399 1184.45 L102.399 1215.07 L110.038 1215.07 L110.038 1219.01 L90.1306 1219.01 L90.1306 1215.07 Z" fill="#000000" fill-rule="evenodd" fill-opacity="1" /><path clip-path="url(#clip390)" d="M98.0935 707.199 Q94.4824 707.199 92.6537 710.763 Q90.8482 714.305 90.8482 721.435 Q90.8482 728.541 92.6537 732.106 Q94.4824 735.647 98.0935 735.647 Q101.728 735.647 103.533 732.106 Q105.362 728.541 105.362 721.435 Q105.362 714.305 103.533 710.763 Q101.728 707.199 98.0935 707.199 M98.0935 703.495 Q103.904 703.495 106.959 708.101 Q110.038 712.685 110.038 721.435 Q110.038 730.161 106.959 734.768 Q103.904 739.351 98.0935 739.351 Q92.2834 739.351 89.2047 734.768 Q86.1492 730.161 86.1492 721.435 Q86.1492 712.685 89.2047 708.101 Q92.2834 703.495 98.0935 703.495 Z" fill="#000000" fill-rule="evenodd" fill-opacity="1" /><path clip-path="url(#clip390)" d="M90.1306 254.416 L97.7695 254.416 L97.7695 228.05 L89.4593 229.717 L89.4593 225.457 L97.7232 223.791 L102.399 223.791 L102.399 254.416 L110.038 254.416 L110.038 258.351 L90.1306 258.351 L90.1306 254.416 Z" fill="#000000" fill-rule="evenodd" fill-opacity="1" /><polyline clip-path="url(#clip392)" style="stroke:#009af9; stroke-linecap:butt; stroke-linejoin:round; stroke-width:4; stroke-opacity:1; fill:none" points="
  1650.17,721.4 1651.42,714.014 1652.54,706.593 1653.54,699.14 1654.41,691.656 1656.39,621.28 1647.06,549.763 1626.08,478.559 1593.36,409.181 1538.72,330.396 
  1468.08,259.162 1396.79,206.751 1316.02,163.079 1219.06,127.122 1114.47,104.613 1013.26,96.8724 909.502,102.398 797.878,123.623 688.576,160.937 568.614,224.1 
  460.079,307.797 376.731,398.112 308.712,501.74 263.746,601.947 234.126,709.152 220.841,831.806 228.647,957.868 258.645,1085.19 311.225,1209.91 395.427,1340.93 
  505.995,1460.52 633.973,1559.82 781.804,1641.47 865.538,1675.89 953.352,1704.27 1044.72,1726.25 1139.07,1741.5 1220.35,1748.89 1302.94,1751.15 1386.43,1748.15 
  1470.41,1739.78 1573,1722.19 1674.92,1696.38 1775.34,1662.35 1873.47,1620.11 1962.87,1573.02 2048.85,1518.91 2130.7,1457.95 2207.79,1390.39 2319.7,1269.12 
  2415.13,1133.11 2491.72,984.126 2547.31,824.237 2553.88,798.809 2559.9,773.187 2565.37,747.381 2570.27,721.4 
  "/>
<path clip-path="url(#clip390)" d="
M2228.6 209.375 L2557.74 209.375 L2557.74 105.695 L2228.6 105.695  Z
  " fill="#ffffff" fill-rule="evenodd" fill-opacity="1"/>
<polyline clip-path="url(#clip390)" style="stroke:#000000; stroke-linecap:butt; stroke-linejoin:round; stroke-width:4; stroke-opacity:1; fill:none" points="
  2228.6,209.375 2557.74,209.375 2557.74,105.695 2228.6,105.695 2228.6,209.375 
  "/>
<polyline clip-path="url(#clip390)" style="stroke:#009af9; stroke-linecap:butt; stroke-linejoin:round; stroke-width:4; stroke-opacity:1; fill:none" points="
  2256.27,157.535 2422.3,157.535 
  "/>
<path clip-path="url(#clip390)" d="M2463.81 177.223 Q2462.01 181.852 2460.29 183.264 Q2458.58 184.676 2455.71 184.676 L2452.31 184.676 L2452.31 181.112 L2454.81 181.112 Q2456.57 181.112 2457.54 180.278 Q2458.51 179.445 2459.69 176.343 L2460.46 174.399 L2449.97 148.889 L2454.48 148.889 L2462.59 169.167 L2470.69 148.889 L2475.2 148.889 L2463.81 177.223 Z" fill="#000000" fill-rule="evenodd" fill-opacity="1" /><path clip-path="url(#clip390)" d="M2482.49 170.88 L2490.13 170.88 L2490.13 144.515 L2481.82 146.181 L2481.82 141.922 L2490.09 140.255 L2494.76 140.255 L2494.76 170.88 L2502.4 170.88 L2502.4 174.815 L2482.49 174.815 L2482.49 170.88 Z" fill="#000000" fill-rule="evenodd" fill-opacity="1" /></svg>
