<?xml version="1.0" encoding="utf-8"?>
<svg xmlns="http://www.w3.org/2000/svg" xmlns:xlink="http://www.w3.org/1999/xlink" width="672" height="480" viewBox="0 0 2688 1920">
<defs>
  <clipPath id="clip110">
    <rect x="0" y="0" width="2688" height="1920"/>
  </clipPath>
</defs>
<path clip-path="url(#clip110)" d="
M0 1920 L2688 1920 L2688 0 L0 0  Z
  " fill="#ffffff" fill-rule="evenodd" fill-opacity="1"/>
<defs>
  <clipPath id="clip111">
    <rect x="537" y="0" width="1883" height="1883"/>
  </clipPath>
</defs>
<path clip-path="url(#clip110)" d="
M196.168 1800.78 L2640.76 1800.78 L2640.76 47.2441 L196.168 47.2441  Z
  " fill="#ffffff" fill-rule="evenodd" fill-opacity="1"/>
<defs>
  <clipPath id="clip112">
    <rect x="196" y="47" width="2446" height="1755"/>
  </clipPath>
</defs>
<polyline clip-path="url(#clip112)" style="stroke:#000000; stroke-linecap:butt; stroke-linejoin:round; stroke-width:2; stroke-opacity:0.1; fill:none" points="
  265.354,1800.78 265.354,47.2441 
  "/>
<polyline clip-path="url(#clip112)" style="stroke:#000000; stroke-linecap:butt; stroke-linejoin:round; stroke-width:2; stroke-opacity:0.1; fill:none" points="
  632.4,1800.78 632.4,47.2441 
  "/>
<polyline clip-path="url(#clip112)" style="stroke:#000000; stroke-linecap:butt; stroke-linejoin:round; stroke-width:2; stroke-opacity:0.1; fill:none" points="
  999.445,1800.78 999.445,47.2441 
  "/>
<polyline clip-path="url(#clip112)" style="stroke:#000000; stroke-linecap:butt; stroke-linejoin:round; stroke-width:2; stroke-opacity:0.1; fill:none" points="
  1366.49,1800.78 1366.49,47.2441 
  "/>
<polyline clip-path="url(#clip112)" style="stroke:#000000; stroke-linecap:butt; stroke-linejoin:round; stroke-width:2; stroke-opacity:0.1; fill:none" points="
  1733.54,1800.78 1733.54,47.2441 
  "/>
<polyline clip-path="url(#clip112)" style="stroke:#000000; stroke-linecap:butt; stroke-linejoin:round; stroke-width:2; stroke-opacity:0.1; fill:none" points="
  2100.58,1800.78 2100.58,47.2441 
  "/>
<polyline clip-path="url(#clip112)" style="stroke:#000000; stroke-linecap:butt; stroke-linejoin:round; stroke-width:2; stroke-opacity:0.1; fill:none" points="
  2467.63,1800.78 2467.63,47.2441 
  "/>
<polyline clip-path="url(#clip110)" style="stroke:#000000; stroke-linecap:butt; stroke-linejoin:round; stroke-width:4; stroke-opacity:1; fill:none" points="
  196.168,1800.78 2640.76,1800.78 
  "/>
<polyline clip-path="url(#clip110)" style="stroke:#000000; stroke-linecap:butt; stroke-linejoin:round; stroke-width:4; stroke-opacity:1; fill:none" points="
  265.354,1800.78 265.354,1781.88 
  "/>
<polyline clip-path="url(#clip110)" style="stroke:#000000; stroke-linecap:butt; stroke-linejoin:round; stroke-width:4; stroke-opacity:1; fill:none" points="
  632.4,1800.78 632.4,1781.88 
  "/>
<polyline clip-path="url(#clip110)" style="stroke:#000000; stroke-linecap:butt; stroke-linejoin:round; stroke-width:4; stroke-opacity:1; fill:none" points="
  999.445,1800.78 999.445,1781.88 
  "/>
<polyline clip-path="url(#clip110)" style="stroke:#000000; stroke-linecap:butt; stroke-linejoin:round; stroke-width:4; stroke-opacity:1; fill:none" points="
  1366.49,1800.78 1366.49,1781.88 
  "/>
<polyline clip-path="url(#clip110)" style="stroke:#000000; stroke-linecap:butt; stroke-linejoin:round; stroke-width:4; stroke-opacity:1; fill:none" points="
  1733.54,1800.78 1733.54,1781.88 
  "/>
<polyline clip-path="url(#clip110)" style="stroke:#000000; stroke-linecap:butt; stroke-linejoin:round; stroke-width:4; stroke-opacity:1; fill:none" points="
  2100.58,1800.78 2100.58,1781.88 
  "/>
<polyline clip-path="url(#clip110)" style="stroke:#000000; stroke-linecap:butt; stroke-linejoin:round; stroke-width:4; stroke-opacity:1; fill:none" points="
  2467.63,1800.78 2467.63,1781.88 
  "/>
<path clip-path="url(#clip110)" d="M265.354 1834 Q261.743 1834 259.915 1837.57 Q258.109 1841.11 258.109 1848.24 Q258.109 1855.34 259.915 1858.91 Q261.743 1862.45 265.354 1862.45 Q268.989 1862.45 270.794 1858.91 Q272.623 1855.34 272.623 1848.24 Q272.623 1841.11 270.794 1837.57 Q268.989 1834 265.354 1834 M265.354 1830.3 Q271.164 1830.3 274.22 1834.9 Q277.299 1839.49 277.299 1848.24 Q277.299 1856.96 274.22 1861.57 Q271.164 1866.15 265.354 1866.15 Q259.544 1866.15 256.465 1861.57 Q253.41 1856.96 253.41 1848.24 Q253.41 1839.49 256.465 1834.9 Q259.544 1830.3 265.354 1830.3 Z" fill="#000000" fill-rule="evenodd" fill-opacity="1" /><path clip-path="url(#clip110)" d="M622.782 1861.55 L630.421 1861.55 L630.421 1835.18 L622.111 1836.85 L622.111 1832.59 L630.374 1830.92 L635.05 1830.92 L635.05 1861.55 L642.689 1861.55 L642.689 1865.48 L622.782 1865.48 L622.782 1861.55 Z" fill="#000000" fill-rule="evenodd" fill-opacity="1" /><path clip-path="url(#clip110)" d="M994.098 1861.55 L1010.42 1861.55 L1010.42 1865.48 L988.473 1865.48 L988.473 1861.55 Q991.135 1858.79 995.719 1854.16 Q1000.33 1849.51 1001.51 1848.17 Q1003.75 1845.65 1004.63 1843.91 Q1005.53 1842.15 1005.53 1840.46 Q1005.53 1837.71 1003.59 1835.97 Q1001.67 1834.23 998.566 1834.23 Q996.367 1834.23 993.913 1835 Q991.482 1835.76 988.705 1837.31 L988.705 1832.59 Q991.529 1831.46 993.982 1830.88 Q996.436 1830.3 998.473 1830.3 Q1003.84 1830.3 1007.04 1832.98 Q1010.23 1835.67 1010.23 1840.16 Q1010.23 1842.29 1009.42 1844.21 Q1008.64 1846.11 1006.53 1848.7 Q1005.95 1849.37 1002.85 1852.59 Q999.746 1855.78 994.098 1861.55 Z" fill="#000000" fill-rule="evenodd" fill-opacity="1" /><path clip-path="url(#clip110)" d="M1370.74 1846.85 Q1374.1 1847.57 1375.97 1849.84 Q1377.87 1852.1 1377.87 1855.44 Q1377.87 1860.55 1374.35 1863.35 Q1370.83 1866.15 1364.35 1866.15 Q1362.17 1866.15 1359.86 1865.71 Q1357.57 1865.3 1355.11 1864.44 L1355.11 1859.93 Q1357.06 1861.06 1359.37 1861.64 Q1361.69 1862.22 1364.21 1862.22 Q1368.61 1862.22 1370.9 1860.48 Q1373.22 1858.75 1373.22 1855.44 Q1373.22 1852.38 1371.06 1850.67 Q1368.93 1848.93 1365.11 1848.93 L1361.09 1848.93 L1361.09 1845.09 L1365.3 1845.09 Q1368.75 1845.09 1370.58 1843.72 Q1372.41 1842.34 1372.41 1839.74 Q1372.41 1837.08 1370.51 1835.67 Q1368.63 1834.23 1365.11 1834.23 Q1363.19 1834.23 1360.99 1834.65 Q1358.79 1835.07 1356.16 1835.95 L1356.16 1831.78 Q1358.82 1831.04 1361.13 1830.67 Q1363.47 1830.3 1365.53 1830.3 Q1370.85 1830.3 1373.96 1832.73 Q1377.06 1835.14 1377.06 1839.26 Q1377.06 1842.13 1375.41 1844.12 Q1373.77 1846.09 1370.74 1846.85 Z" fill="#000000" fill-rule="evenodd" fill-opacity="1" /><path clip-path="url(#clip110)" d="M1736.55 1835 L1724.74 1853.45 L1736.55 1853.45 L1736.55 1835 M1735.32 1830.92 L1741.2 1830.92 L1741.2 1853.45 L1746.13 1853.45 L1746.13 1857.34 L1741.2 1857.34 L1741.2 1865.48 L1736.55 1865.48 L1736.55 1857.34 L1720.94 1857.34 L1720.94 1852.82 L1735.32 1830.92 Z" fill="#000000" fill-rule="evenodd" fill-opacity="1" /><path clip-path="url(#clip110)" d="M2090.86 1830.92 L2109.22 1830.92 L2109.22 1834.86 L2095.14 1834.86 L2095.14 1843.33 Q2096.16 1842.98 2097.18 1842.82 Q2098.2 1842.64 2099.22 1842.64 Q2105 1842.64 2108.38 1845.81 Q2111.76 1848.98 2111.76 1854.4 Q2111.76 1859.97 2108.29 1863.08 Q2104.82 1866.15 2098.5 1866.15 Q2096.32 1866.15 2094.05 1865.78 Q2091.81 1865.41 2089.4 1864.67 L2089.4 1859.97 Q2091.48 1861.11 2093.71 1861.66 Q2095.93 1862.22 2098.41 1862.22 Q2102.41 1862.22 2104.75 1860.11 Q2107.09 1858.01 2107.09 1854.4 Q2107.09 1850.78 2104.75 1848.68 Q2102.41 1846.57 2098.41 1846.57 Q2096.53 1846.57 2094.66 1846.99 Q2092.8 1847.4 2090.86 1848.28 L2090.86 1830.92 Z" fill="#000000" fill-rule="evenodd" fill-opacity="1" /><path clip-path="url(#clip110)" d="M2468.03 1846.34 Q2464.88 1846.34 2463.03 1848.49 Q2461.2 1850.65 2461.2 1854.4 Q2461.2 1858.12 2463.03 1860.3 Q2464.88 1862.45 2468.03 1862.45 Q2471.18 1862.45 2473.01 1860.3 Q2474.86 1858.12 2474.86 1854.4 Q2474.86 1850.65 2473.01 1848.49 Q2471.18 1846.34 2468.03 1846.34 M2477.31 1831.69 L2477.31 1835.95 Q2475.56 1835.11 2473.75 1834.67 Q2471.97 1834.23 2470.21 1834.23 Q2465.58 1834.23 2463.13 1837.36 Q2460.69 1840.48 2460.35 1846.8 Q2461.71 1844.79 2463.77 1843.72 Q2465.83 1842.64 2468.31 1842.64 Q2473.52 1842.64 2476.53 1845.81 Q2479.56 1848.96 2479.56 1854.4 Q2479.56 1859.72 2476.41 1862.94 Q2473.26 1866.15 2468.03 1866.15 Q2462.04 1866.15 2458.87 1861.57 Q2455.69 1856.96 2455.69 1848.24 Q2455.69 1840.04 2459.58 1835.18 Q2463.47 1830.3 2470.02 1830.3 Q2471.78 1830.3 2473.57 1830.65 Q2475.37 1830.99 2477.31 1831.69 Z" fill="#000000" fill-rule="evenodd" fill-opacity="1" /><polyline clip-path="url(#clip112)" style="stroke:#000000; stroke-linecap:butt; stroke-linejoin:round; stroke-width:2; stroke-opacity:0.1; fill:none" points="
  196.168,1518.32 2640.76,1518.32 
  "/>
<polyline clip-path="url(#clip112)" style="stroke:#000000; stroke-linecap:butt; stroke-linejoin:round; stroke-width:2; stroke-opacity:0.1; fill:none" points="
  196.168,1126.62 2640.76,1126.62 
  "/>
<polyline clip-path="url(#clip112)" style="stroke:#000000; stroke-linecap:butt; stroke-linejoin:round; stroke-width:2; stroke-opacity:0.1; fill:none" points="
  196.168,734.924 2640.76,734.924 
  "/>
<polyline clip-path="url(#clip112)" style="stroke:#000000; stroke-linecap:butt; stroke-linejoin:round; stroke-width:2; stroke-opacity:0.1; fill:none" points="
  196.168,343.229 2640.76,343.229 
  "/>
<polyline clip-path="url(#clip110)" style="stroke:#000000; stroke-linecap:butt; stroke-linejoin:round; stroke-width:4; stroke-opacity:1; fill:none" points="
  196.168,1800.78 196.168,47.2441 
  "/>
<polyline clip-path="url(#clip110)" style="stroke:#000000; stroke-linecap:butt; stroke-linejoin:round; stroke-width:4; stroke-opacity:1; fill:none" points="
  196.168,1518.32 215.065,1518.32 
  "/>
<polyline clip-path="url(#clip110)" style="stroke:#000000; stroke-linecap:butt; stroke-linejoin:round; stroke-width:4; stroke-opacity:1; fill:none" points="
  196.168,1126.62 215.065,1126.62 
  "/>
<polyline clip-path="url(#clip110)" style="stroke:#000000; stroke-linecap:butt; stroke-linejoin:round; stroke-width:4; stroke-opacity:1; fill:none" points="
  196.168,734.924 215.065,734.924 
  "/>
<polyline clip-path="url(#clip110)" style="stroke:#000000; stroke-linecap:butt; stroke-linejoin:round; stroke-width:4; stroke-opacity:1; fill:none" points="
  196.168,343.229 215.065,343.229 
  "/>
<path clip-path="url(#clip110)" d="M49.5521 1518.77 L79.2279 1518.77 L79.2279 1522.7 L49.5521 1522.7 L49.5521 1518.77 Z" fill="#000000" fill-rule="evenodd" fill-opacity="1" /><path clip-path="url(#clip110)" d="M99.3204 1504.11 Q95.7093 1504.11 93.8806 1507.68 Q92.075 1511.22 92.075 1518.35 Q92.075 1525.46 93.8806 1529.02 Q95.7093 1532.56 99.3204 1532.56 Q102.955 1532.56 104.76 1529.02 Q106.589 1525.46 106.589 1518.35 Q106.589 1511.22 104.76 1507.68 Q102.955 1504.11 99.3204 1504.11 M99.3204 1500.41 Q105.131 1500.41 108.186 1505.02 Q111.265 1509.6 111.265 1518.35 Q111.265 1527.08 108.186 1531.68 Q105.131 1536.27 99.3204 1536.27 Q93.5102 1536.27 90.4315 1531.68 Q87.376 1527.08 87.376 1518.35 Q87.376 1509.6 90.4315 1505.02 Q93.5102 1500.41 99.3204 1500.41 Z" fill="#000000" fill-rule="evenodd" fill-opacity="1" /><path clip-path="url(#clip110)" d="M119.482 1529.72 L124.367 1529.72 L124.367 1535.6 L119.482 1535.6 L119.482 1529.72 Z" fill="#000000" fill-rule="evenodd" fill-opacity="1" /><path clip-path="url(#clip110)" d="M148.718 1516.96 Q152.075 1517.68 153.95 1519.95 Q155.848 1522.22 155.848 1525.55 Q155.848 1530.67 152.329 1533.47 Q148.811 1536.27 142.329 1536.27 Q140.153 1536.27 137.839 1535.83 Q135.547 1535.41 133.093 1534.55 L133.093 1530.04 Q135.038 1531.17 137.353 1531.75 Q139.667 1532.33 142.191 1532.33 Q146.589 1532.33 148.88 1530.6 Q151.195 1528.86 151.195 1525.55 Q151.195 1522.49 149.042 1520.78 Q146.913 1519.04 143.093 1519.04 L139.066 1519.04 L139.066 1515.2 L143.278 1515.2 Q146.728 1515.2 148.556 1513.84 Q150.385 1512.45 150.385 1509.86 Q150.385 1507.19 148.487 1505.78 Q146.612 1504.35 143.093 1504.35 Q141.172 1504.35 138.973 1504.76 Q136.774 1505.18 134.135 1506.06 L134.135 1501.89 Q136.797 1501.15 139.112 1500.78 Q141.45 1500.41 143.51 1500.41 Q148.834 1500.41 151.936 1502.84 Q155.038 1505.25 155.038 1509.37 Q155.038 1512.24 153.394 1514.23 Q151.751 1516.2 148.718 1516.96 Z" fill="#000000" fill-rule="evenodd" fill-opacity="1" /><path clip-path="url(#clip110)" d="M98.6722 1112.42 Q95.0611 1112.42 93.2324 1115.98 Q91.4269 1119.53 91.4269 1126.65 Q91.4269 1133.76 93.2324 1137.33 Q95.0611 1140.87 98.6722 1140.87 Q102.306 1140.87 104.112 1137.33 Q105.941 1133.76 105.941 1126.65 Q105.941 1119.53 104.112 1115.98 Q102.306 1112.42 98.6722 1112.42 M98.6722 1108.71 Q104.482 1108.71 107.538 1113.32 Q110.617 1117.9 110.617 1126.65 Q110.617 1135.38 107.538 1139.99 Q104.482 1144.57 98.6722 1144.57 Q92.8621 1144.57 89.7834 1139.99 Q86.7279 1135.38 86.7279 1126.65 Q86.7279 1117.9 89.7834 1113.32 Q92.8621 1108.71 98.6722 1108.71 Z" fill="#000000" fill-rule="evenodd" fill-opacity="1" /><path clip-path="url(#clip110)" d="M118.834 1138.02 L123.718 1138.02 L123.718 1143.9 L118.834 1143.9 L118.834 1138.02 Z" fill="#000000" fill-rule="evenodd" fill-opacity="1" /><path clip-path="url(#clip110)" d="M143.903 1112.42 Q140.292 1112.42 138.464 1115.98 Q136.658 1119.53 136.658 1126.65 Q136.658 1133.76 138.464 1137.33 Q140.292 1140.87 143.903 1140.87 Q147.538 1140.87 149.343 1137.33 Q151.172 1133.76 151.172 1126.65 Q151.172 1119.53 149.343 1115.98 Q147.538 1112.42 143.903 1112.42 M143.903 1108.71 Q149.714 1108.71 152.769 1113.32 Q155.848 1117.9 155.848 1126.65 Q155.848 1135.38 152.769 1139.99 Q149.714 1144.57 143.903 1144.57 Q138.093 1144.57 135.015 1139.99 Q131.959 1135.38 131.959 1126.65 Q131.959 1117.9 135.015 1113.32 Q138.093 1108.71 143.903 1108.71 Z" fill="#000000" fill-rule="evenodd" fill-opacity="1" /><path clip-path="url(#clip110)" d="M99.3204 720.723 Q95.7093 720.723 93.8806 724.288 Q92.075 727.829 92.075 734.959 Q92.075 742.065 93.8806 745.63 Q95.7093 749.172 99.3204 749.172 Q102.955 749.172 104.76 745.63 Q106.589 742.065 106.589 734.959 Q106.589 727.829 104.76 724.288 Q102.955 720.723 99.3204 720.723 M99.3204 717.019 Q105.131 717.019 108.186 721.626 Q111.265 726.209 111.265 734.959 Q111.265 743.686 108.186 748.292 Q105.131 752.876 99.3204 752.876 Q93.5102 752.876 90.4315 748.292 Q87.376 743.686 87.376 734.959 Q87.376 726.209 90.4315 721.626 Q93.5102 717.019 99.3204 717.019 Z" fill="#000000" fill-rule="evenodd" fill-opacity="1" /><path clip-path="url(#clip110)" d="M119.482 746.325 L124.367 746.325 L124.367 752.204 L119.482 752.204 L119.482 746.325 Z" fill="#000000" fill-rule="evenodd" fill-opacity="1" /><path clip-path="url(#clip110)" d="M148.718 733.57 Q152.075 734.288 153.95 736.556 Q155.848 738.825 155.848 742.158 Q155.848 747.274 152.329 750.075 Q148.811 752.876 142.329 752.876 Q140.153 752.876 137.839 752.436 Q135.547 752.019 133.093 751.163 L133.093 746.649 Q135.038 747.783 137.353 748.362 Q139.667 748.94 142.191 748.94 Q146.589 748.94 148.88 747.204 Q151.195 745.468 151.195 742.158 Q151.195 739.103 149.042 737.39 Q146.913 735.653 143.093 735.653 L139.066 735.653 L139.066 731.811 L143.278 731.811 Q146.728 731.811 148.556 730.445 Q150.385 729.056 150.385 726.464 Q150.385 723.802 148.487 722.39 Q146.612 720.954 143.093 720.954 Q141.172 720.954 138.973 721.371 Q136.774 721.788 134.135 722.667 L134.135 718.501 Q136.797 717.76 139.112 717.39 Q141.45 717.019 143.51 717.019 Q148.834 717.019 151.936 719.45 Q155.038 721.857 155.038 725.978 Q155.038 728.848 153.394 730.839 Q151.751 732.806 148.718 733.57 Z" fill="#000000" fill-rule="evenodd" fill-opacity="1" /><path clip-path="url(#clip110)" d="M98.5102 329.027 Q94.8991 329.027 93.0704 332.592 Q91.2649 336.134 91.2649 343.263 Q91.2649 350.37 93.0704 353.935 Q94.8991 357.476 98.5102 357.476 Q102.144 357.476 103.95 353.935 Q105.779 350.37 105.779 343.263 Q105.779 336.134 103.95 332.592 Q102.144 329.027 98.5102 329.027 M98.5102 325.324 Q104.32 325.324 107.376 329.93 Q110.455 334.513 110.455 343.263 Q110.455 351.99 107.376 356.597 Q104.32 361.18 98.5102 361.18 Q92.7 361.18 89.6214 356.597 Q86.5658 351.99 86.5658 343.263 Q86.5658 334.513 89.6214 329.93 Q92.7 325.324 98.5102 325.324 Z" fill="#000000" fill-rule="evenodd" fill-opacity="1" /><path clip-path="url(#clip110)" d="M118.672 354.629 L123.556 354.629 L123.556 360.509 L118.672 360.509 L118.672 354.629 Z" fill="#000000" fill-rule="evenodd" fill-opacity="1" /><path clip-path="url(#clip110)" d="M144.32 341.365 Q141.172 341.365 139.32 343.518 Q137.491 345.671 137.491 349.421 Q137.491 353.148 139.32 355.323 Q141.172 357.476 144.32 357.476 Q147.468 357.476 149.297 355.323 Q151.149 353.148 151.149 349.421 Q151.149 345.671 149.297 343.518 Q147.468 341.365 144.32 341.365 M153.602 326.713 L153.602 330.972 Q151.843 330.138 150.038 329.699 Q148.255 329.259 146.496 329.259 Q141.866 329.259 139.413 332.384 Q136.982 335.509 136.635 341.828 Q138.001 339.814 140.061 338.749 Q142.121 337.662 144.598 337.662 Q149.806 337.662 152.815 340.833 Q155.848 343.981 155.848 349.421 Q155.848 354.745 152.7 357.962 Q149.552 361.18 144.32 361.18 Q138.325 361.18 135.154 356.597 Q131.982 351.99 131.982 343.263 Q131.982 335.069 135.871 330.208 Q139.76 325.324 146.311 325.324 Q148.07 325.324 149.853 325.671 Q151.658 326.018 153.602 326.713 Z" fill="#000000" fill-rule="evenodd" fill-opacity="1" /><polyline clip-path="url(#clip112)" style="stroke:#009af9; stroke-linecap:butt; stroke-linejoin:round; stroke-width:4; stroke-opacity:1; fill:none" points="
  265.354,1126.62 270.985,1106.64 276.615,1086.76 282.246,1066.99 287.876,1047.33 339.939,871.516 392.001,708.597 444.063,561.288 496.126,431.864 527.413,363.467 
  558.7,302.507 589.987,249.232 621.275,203.828 647.728,171.672 674.181,145.272 700.634,124.634 727.087,109.738 755.822,100.001 784.557,96.8724 813.293,100.209 
  842.028,109.83 895.011,143.305 947.994,195.773 1004.8,270.901 1061.6,362.88 1127.41,486.546 1193.22,623.804 1310.2,885.34 1412.77,1114.31 1468.69,1232.32 
  1524.6,1342.29 1580.85,1442.62 1637.1,1530.75 1699.29,1612.23 1761.48,1675.55 1820.66,1718.15 1879.83,1743.29 1941.35,1751.15 2002.88,1741.13 2054.67,1719.7 
  2106.46,1687.39 2169.69,1634.84 2232.93,1570.09 2292.37,1500.38 2351.81,1424.4 2447.03,1295.35 2542.26,1165.42 2556.91,1145.91 2571.57,1126.62 
  "/>
<path clip-path="url(#clip110)" d="
M2235.22 209.375 L2559.27 209.375 L2559.27 105.695 L2235.22 105.695  Z
  " fill="#ffffff" fill-rule="evenodd" fill-opacity="1"/>
<polyline clip-path="url(#clip110)" style="stroke:#000000; stroke-linecap:butt; stroke-linejoin:round; stroke-width:4; stroke-opacity:1; fill:none" points="
  2235.22,209.375 2559.27,209.375 2559.27,105.695 2235.22,105.695 2235.22,209.375 
  "/>
<polyline clip-path="url(#clip110)" style="stroke:#009af9; stroke-linecap:butt; stroke-linejoin:round; stroke-width:4; stroke-opacity:1; fill:none" points="
  2262.38,157.535 2425.35,157.535 
  "/>
<path clip-path="url(#clip110)" d="M2466.36 177.223 Q2464.55 181.852 2462.84 183.264 Q2461.13 184.676 2458.26 184.676 L2454.85 184.676 L2454.85 181.112 L2457.35 181.112 Q2459.11 181.112 2460.08 180.278 Q2461.06 179.445 2462.24 176.343 L2463 174.399 L2452.52 148.889 L2457.03 148.889 L2465.13 169.167 L2473.23 148.889 L2477.75 148.889 L2466.36 177.223 Z" fill="#000000" fill-rule="evenodd" fill-opacity="1" /><path clip-path="url(#clip110)" d="M2485.04 170.88 L2492.68 170.88 L2492.68 144.515 L2484.37 146.181 L2484.37 141.922 L2492.63 140.255 L2497.31 140.255 L2497.31 170.88 L2504.95 170.88 L2504.95 174.815 L2485.04 174.815 L2485.04 170.88 Z" fill="#000000" fill-rule="evenodd" fill-opacity="1" /></svg>
