<?xml version="1.0" encoding="utf-8"?>
<svg xmlns="http://www.w3.org/2000/svg" xmlns:xlink="http://www.w3.org/1999/xlink" width="672" height="480" viewBox="0 0 2688 1920">
<defs>
  <clipPath id="clip270">
    <rect x="0" y="0" width="2688" height="1920"/>
  </clipPath>
</defs>
<path clip-path="url(#clip270)" d="
M0 1920 L2688 1920 L2688 0 L0 0  Z
  " fill="#ffffff" fill-rule="evenodd" fill-opacity="1"/>
<defs>
  <clipPath id="clip271">
    <rect x="537" y="0" width="1883" height="1883"/>
  </clipPath>
</defs>
<path clip-path="url(#clip270)" d="
M196.816 1800.78 L2640.76 1800.78 L2640.76 47.2441 L196.816 47.2441  Z
  " fill="#ffffff" fill-rule="evenodd" fill-opacity="1"/>
<defs>
  <clipPath id="clip272">
    <rect x="196" y="47" width="2445" height="1755"/>
  </clipPath>
</defs>
<polyline clip-path="url(#clip272)" style="stroke:#000000; stroke-linecap:butt; stroke-linejoin:round; stroke-width:2; stroke-opacity:0.1; fill:none" points="
  265.984,1800.78 265.984,47.2441 
  "/>
<polyline clip-path="url(#clip272)" style="stroke:#000000; stroke-linecap:butt; stroke-linejoin:round; stroke-width:2; stroke-opacity:0.1; fill:none" points="
  632.932,1800.78 632.932,47.2441 
  "/>
<polyline clip-path="url(#clip272)" style="stroke:#000000; stroke-linecap:butt; stroke-linejoin:round; stroke-width:2; stroke-opacity:0.1; fill:none" points="
  999.881,1800.78 999.881,47.2441 
  "/>
<polyline clip-path="url(#clip272)" style="stroke:#000000; stroke-linecap:butt; stroke-linejoin:round; stroke-width:2; stroke-opacity:0.1; fill:none" points="
  1366.83,1800.78 1366.83,47.2441 
  "/>
<polyline clip-path="url(#clip272)" style="stroke:#000000; stroke-linecap:butt; stroke-linejoin:round; stroke-width:2; stroke-opacity:0.1; fill:none" points="
  1733.78,1800.78 1733.78,47.2441 
  "/>
<polyline clip-path="url(#clip272)" style="stroke:#000000; stroke-linecap:butt; stroke-linejoin:round; stroke-width:2; stroke-opacity:0.1; fill:none" points="
  2100.73,1800.78 2100.73,47.2441 
  "/>
<polyline clip-path="url(#clip272)" style="stroke:#000000; stroke-linecap:butt; stroke-linejoin:round; stroke-width:2; stroke-opacity:0.1; fill:none" points="
  2467.67,1800.78 2467.67,47.2441 
  "/>
<polyline clip-path="url(#clip270)" style="stroke:#000000; stroke-linecap:butt; stroke-linejoin:round; stroke-width:4; stroke-opacity:1; fill:none" points="
  196.816,1800.78 2640.76,1800.78 
  "/>
<polyline clip-path="url(#clip270)" style="stroke:#000000; stroke-linecap:butt; stroke-linejoin:round; stroke-width:4; stroke-opacity:1; fill:none" points="
  265.984,1800.78 265.984,1781.88 
  "/>
<polyline clip-path="url(#clip270)" style="stroke:#000000; stroke-linecap:butt; stroke-linejoin:round; stroke-width:4; stroke-opacity:1; fill:none" points="
  632.932,1800.78 632.932,1781.88 
  "/>
<polyline clip-path="url(#clip270)" style="stroke:#000000; stroke-linecap:butt; stroke-linejoin:round; stroke-width:4; stroke-opacity:1; fill:none" points="
  999.881,1800.78 999.881,1781.88 
  "/>
<polyline clip-path="url(#clip270)" style="stroke:#000000; stroke-linecap:butt; stroke-linejoin:round; stroke-width:4; stroke-opacity:1; fill:none" points="
  1366.83,1800.78 1366.83,1781.88 
  "/>
<polyline clip-path="url(#clip270)" style="stroke:#000000; stroke-linecap:butt; stroke-linejoin:round; stroke-width:4; stroke-opacity:1; fill:none" points="
  1733.78,1800.78 1733.78,1781.88 
  "/>
<polyline clip-path="url(#clip270)" style="stroke:#000000; stroke-linecap:butt; stroke-linejoin:round; stroke-width:4; stroke-opacity:1; fill:none" points="
  2100.73,1800.78 2100.73,1781.88 
  "/>
<polyline clip-path="url(#clip270)" style="stroke:#000000; stroke-linecap:butt; stroke-linejoin:round; stroke-width:4; stroke-opacity:1; fill:none" points="
  2467.67,1800.78 2467.67,1781.88 
  "/>
<path clip-path="url(#clip270)" d="M265.984 1834 Q262.373 1834 260.544 1837.57 Q258.739 1841.11 258.739 1848.24 Q258.739 1855.34 260.544 1858.91 Q262.373 1862.45 265.984 1862.45 Q269.618 1862.45 271.424 1858.91 Q273.253 1855.34 273.253 1848.24 Q273.253 1841.11 271.424 1837.57 Q269.618 1834 265.984 1834 M265.984 1830.3 Q271.794 1830.3 274.85 1834.9 Q277.928 1839.49 277.928 1848.24 Q277.928 1856.96 274.85 1861.57 Q271.794 1866.15 265.984 1866.15 Q260.174 1866.15 257.095 1861.57 Q254.04 1856.96 254.04 1848.24 Q254.04 1839.49 257.095 1834.9 Q260.174 1830.3 265.984 1830.3 Z" fill="#000000" fill-rule="evenodd" fill-opacity="1" /><path clip-path="url(#clip270)" d="M623.314 1861.55 L630.953 1861.55 L630.953 1835.18 L622.643 1836.85 L622.643 1832.59 L630.907 1830.92 L635.583 1830.92 L635.583 1861.55 L643.222 1861.55 L643.222 1865.48 L623.314 1865.48 L623.314 1861.55 Z" fill="#000000" fill-rule="evenodd" fill-opacity="1" /><path clip-path="url(#clip270)" d="M994.533 1861.55 L1010.85 1861.55 L1010.85 1865.48 L988.908 1865.48 L988.908 1861.55 Q991.57 1858.79 996.154 1854.16 Q1000.76 1849.51 1001.94 1848.17 Q1004.19 1845.65 1005.07 1843.91 Q1005.97 1842.15 1005.97 1840.46 Q1005.97 1837.71 1004.02 1835.97 Q1002.1 1834.23 999.001 1834.23 Q996.802 1834.23 994.348 1835 Q991.918 1835.76 989.14 1837.31 L989.14 1832.59 Q991.964 1831.46 994.418 1830.88 Q996.871 1830.3 998.908 1830.3 Q1004.28 1830.3 1007.47 1832.98 Q1010.67 1835.67 1010.67 1840.16 Q1010.67 1842.29 1009.86 1844.21 Q1009.07 1846.11 1006.96 1848.7 Q1006.39 1849.37 1003.28 1852.59 Q1000.18 1855.78 994.533 1861.55 Z" fill="#000000" fill-rule="evenodd" fill-opacity="1" /><path clip-path="url(#clip270)" d="M1371.08 1846.85 Q1374.43 1847.57 1376.31 1849.84 Q1378.21 1852.1 1378.21 1855.44 Q1378.21 1860.55 1374.69 1863.35 Q1371.17 1866.15 1364.69 1866.15 Q1362.51 1866.15 1360.2 1865.71 Q1357.91 1865.3 1355.45 1864.44 L1355.45 1859.93 Q1357.4 1861.06 1359.71 1861.64 Q1362.03 1862.22 1364.55 1862.22 Q1368.95 1862.22 1371.24 1860.48 Q1373.55 1858.75 1373.55 1855.44 Q1373.55 1852.38 1371.4 1850.67 Q1369.27 1848.93 1365.45 1848.93 L1361.42 1848.93 L1361.42 1845.09 L1365.64 1845.09 Q1369.09 1845.09 1370.91 1843.72 Q1372.74 1842.34 1372.74 1839.74 Q1372.74 1837.08 1370.84 1835.67 Q1368.97 1834.23 1365.45 1834.23 Q1363.53 1834.23 1361.33 1834.65 Q1359.13 1835.07 1356.49 1835.95 L1356.49 1831.78 Q1359.16 1831.04 1361.47 1830.67 Q1363.81 1830.3 1365.87 1830.3 Q1371.19 1830.3 1374.29 1832.73 Q1377.4 1835.14 1377.4 1839.26 Q1377.4 1842.13 1375.75 1844.12 Q1374.11 1846.09 1371.08 1846.85 Z" fill="#000000" fill-rule="evenodd" fill-opacity="1" /><path clip-path="url(#clip270)" d="M1736.79 1835 L1724.98 1853.45 L1736.79 1853.45 L1736.79 1835 M1735.56 1830.92 L1741.44 1830.92 L1741.44 1853.45 L1746.37 1853.45 L1746.37 1857.34 L1741.44 1857.34 L1741.44 1865.48 L1736.79 1865.48 L1736.79 1857.34 L1721.18 1857.34 L1721.18 1852.82 L1735.56 1830.92 Z" fill="#000000" fill-rule="evenodd" fill-opacity="1" /><path clip-path="url(#clip270)" d="M2091 1830.92 L2109.36 1830.92 L2109.36 1834.86 L2095.29 1834.86 L2095.29 1843.33 Q2096.3 1842.98 2097.32 1842.82 Q2098.34 1842.64 2099.36 1842.64 Q2105.15 1842.64 2108.53 1845.81 Q2111.91 1848.98 2111.91 1854.4 Q2111.91 1859.97 2108.43 1863.08 Q2104.96 1866.15 2098.64 1866.15 Q2096.47 1866.15 2094.2 1865.78 Q2091.95 1865.41 2089.54 1864.67 L2089.54 1859.97 Q2091.63 1861.11 2093.85 1861.66 Q2096.07 1862.22 2098.55 1862.22 Q2102.55 1862.22 2104.89 1860.11 Q2107.23 1858.01 2107.23 1854.4 Q2107.23 1850.78 2104.89 1848.68 Q2102.55 1846.57 2098.55 1846.57 Q2096.67 1846.57 2094.8 1846.99 Q2092.95 1847.4 2091 1848.28 L2091 1830.92 Z" fill="#000000" fill-rule="evenodd" fill-opacity="1" /><path clip-path="url(#clip270)" d="M2468.08 1846.34 Q2464.93 1846.34 2463.08 1848.49 Q2461.25 1850.65 2461.25 1854.4 Q2461.25 1858.12 2463.08 1860.3 Q2464.93 1862.45 2468.08 1862.45 Q2471.23 1862.45 2473.06 1860.3 Q2474.91 1858.12 2474.91 1854.4 Q2474.91 1850.65 2473.06 1848.49 Q2471.23 1846.34 2468.08 1846.34 M2477.36 1831.69 L2477.36 1835.95 Q2475.6 1835.11 2473.8 1834.67 Q2472.01 1834.23 2470.25 1834.23 Q2465.62 1834.23 2463.17 1837.36 Q2460.74 1840.48 2460.39 1846.8 Q2461.76 1844.79 2463.82 1843.72 Q2465.88 1842.64 2468.36 1842.64 Q2473.56 1842.64 2476.57 1845.81 Q2479.61 1848.96 2479.61 1854.4 Q2479.61 1859.72 2476.46 1862.94 Q2473.31 1866.15 2468.08 1866.15 Q2462.08 1866.15 2458.91 1861.57 Q2455.74 1856.96 2455.74 1848.24 Q2455.74 1840.04 2459.63 1835.18 Q2463.52 1830.3 2470.07 1830.3 Q2471.83 1830.3 2473.61 1830.65 Q2475.42 1830.99 2477.36 1831.69 Z" fill="#000000" fill-rule="evenodd" fill-opacity="1" /><polyline clip-path="url(#clip272)" style="stroke:#000000; stroke-linecap:butt; stroke-linejoin:round; stroke-width:2; stroke-opacity:0.1; fill:none" points="
  196.816,1751.25 2640.76,1751.25 
  "/>
<polyline clip-path="url(#clip272)" style="stroke:#000000; stroke-linecap:butt; stroke-linejoin:round; stroke-width:2; stroke-opacity:0.1; fill:none" points="
  196.816,1337.66 2640.76,1337.66 
  "/>
<polyline clip-path="url(#clip272)" style="stroke:#000000; stroke-linecap:butt; stroke-linejoin:round; stroke-width:2; stroke-opacity:0.1; fill:none" points="
  196.816,924.061 2640.76,924.061 
  "/>
<polyline clip-path="url(#clip272)" style="stroke:#000000; stroke-linecap:butt; stroke-linejoin:round; stroke-width:2; stroke-opacity:0.1; fill:none" points="
  196.816,510.467 2640.76,510.467 
  "/>
<polyline clip-path="url(#clip272)" style="stroke:#000000; stroke-linecap:butt; stroke-linejoin:round; stroke-width:2; stroke-opacity:0.1; fill:none" points="
  196.816,96.8724 2640.76,96.8724 
  "/>
<polyline clip-path="url(#clip270)" style="stroke:#000000; stroke-linecap:butt; stroke-linejoin:round; stroke-width:4; stroke-opacity:1; fill:none" points="
  196.816,1800.78 196.816,47.2441 
  "/>
<polyline clip-path="url(#clip270)" style="stroke:#000000; stroke-linecap:butt; stroke-linejoin:round; stroke-width:4; stroke-opacity:1; fill:none" points="
  196.816,1751.25 215.714,1751.25 
  "/>
<polyline clip-path="url(#clip270)" style="stroke:#000000; stroke-linecap:butt; stroke-linejoin:round; stroke-width:4; stroke-opacity:1; fill:none" points="
  196.816,1337.66 215.714,1337.66 
  "/>
<polyline clip-path="url(#clip270)" style="stroke:#000000; stroke-linecap:butt; stroke-linejoin:round; stroke-width:4; stroke-opacity:1; fill:none" points="
  196.816,924.061 215.714,924.061 
  "/>
<polyline clip-path="url(#clip270)" style="stroke:#000000; stroke-linecap:butt; stroke-linejoin:round; stroke-width:4; stroke-opacity:1; fill:none" points="
  196.816,510.467 215.714,510.467 
  "/>
<polyline clip-path="url(#clip270)" style="stroke:#000000; stroke-linecap:butt; stroke-linejoin:round; stroke-width:4; stroke-opacity:1; fill:none" points="
  196.816,96.8724 215.714,96.8724 
  "/>
<path clip-path="url(#clip270)" d="M49.5521 1751.7 L79.2279 1751.7 L79.2279 1755.64 L49.5521 1755.64 L49.5521 1751.7 Z" fill="#000000" fill-rule="evenodd" fill-opacity="1" /><path clip-path="url(#clip270)" d="M90.1306 1764.6 L97.7695 1764.6 L97.7695 1738.23 L89.4593 1739.9 L89.4593 1735.64 L97.7232 1733.97 L102.399 1733.97 L102.399 1764.6 L110.038 1764.6 L110.038 1768.53 L90.1306 1768.53 L90.1306 1764.6 Z" fill="#000000" fill-rule="evenodd" fill-opacity="1" /><path clip-path="url(#clip270)" d="M119.482 1762.65 L124.367 1762.65 L124.367 1768.53 L119.482 1768.53 L119.482 1762.65 Z" fill="#000000" fill-rule="evenodd" fill-opacity="1" /><path clip-path="url(#clip270)" d="M144.552 1737.05 Q140.941 1737.05 139.112 1740.61 Q137.306 1744.16 137.306 1751.29 Q137.306 1758.39 139.112 1761.96 Q140.941 1765.5 144.552 1765.5 Q148.186 1765.5 149.991 1761.96 Q151.82 1758.39 151.82 1751.29 Q151.82 1744.16 149.991 1740.61 Q148.186 1737.05 144.552 1737.05 M144.552 1733.35 Q150.362 1733.35 153.417 1737.95 Q156.496 1742.54 156.496 1751.29 Q156.496 1760.01 153.417 1764.62 Q150.362 1769.2 144.552 1769.2 Q138.741 1769.2 135.663 1764.62 Q132.607 1760.01 132.607 1751.29 Q132.607 1742.54 135.663 1737.95 Q138.741 1733.35 144.552 1733.35 Z" fill="#000000" fill-rule="evenodd" fill-opacity="1" /><path clip-path="url(#clip270)" d="M50.5475 1338.11 L80.2233 1338.11 L80.2233 1342.04 L50.5475 1342.04 L50.5475 1338.11 Z" fill="#000000" fill-rule="evenodd" fill-opacity="1" /><path clip-path="url(#clip270)" d="M100.316 1323.45 Q96.7047 1323.45 94.876 1327.02 Q93.0704 1330.56 93.0704 1337.69 Q93.0704 1344.8 94.876 1348.36 Q96.7047 1351.9 100.316 1351.9 Q103.95 1351.9 105.756 1348.36 Q107.584 1344.8 107.584 1337.69 Q107.584 1330.56 105.756 1327.02 Q103.95 1323.45 100.316 1323.45 M100.316 1319.75 Q106.126 1319.75 109.181 1324.36 Q112.26 1328.94 112.26 1337.69 Q112.26 1346.42 109.181 1351.02 Q106.126 1355.61 100.316 1355.61 Q94.5056 1355.61 91.4269 1351.02 Q88.3714 1346.42 88.3714 1337.69 Q88.3714 1328.94 91.4269 1324.36 Q94.5056 1319.75 100.316 1319.75 Z" fill="#000000" fill-rule="evenodd" fill-opacity="1" /><path clip-path="url(#clip270)" d="M120.478 1349.06 L125.362 1349.06 L125.362 1354.94 L120.478 1354.94 L120.478 1349.06 Z" fill="#000000" fill-rule="evenodd" fill-opacity="1" /><path clip-path="url(#clip270)" d="M135.593 1320.38 L153.95 1320.38 L153.95 1324.31 L139.876 1324.31 L139.876 1332.78 Q140.894 1332.44 141.913 1332.27 Q142.931 1332.09 143.95 1332.09 Q149.737 1332.09 153.116 1335.26 Q156.496 1338.43 156.496 1343.85 Q156.496 1349.43 153.024 1352.53 Q149.552 1355.61 143.232 1355.61 Q141.056 1355.61 138.788 1355.24 Q136.542 1354.87 134.135 1354.13 L134.135 1349.43 Q136.218 1350.56 138.441 1351.12 Q140.663 1351.67 143.14 1351.67 Q147.144 1351.67 149.482 1349.57 Q151.82 1347.46 151.82 1343.85 Q151.82 1340.24 149.482 1338.13 Q147.144 1336.02 143.14 1336.02 Q141.265 1336.02 139.39 1336.44 Q137.538 1336.86 135.593 1337.74 L135.593 1320.38 Z" fill="#000000" fill-rule="evenodd" fill-opacity="1" /><path clip-path="url(#clip270)" d="M99.3204 909.86 Q95.7093 909.86 93.8806 913.425 Q92.075 916.967 92.075 924.096 Q92.075 931.203 93.8806 934.767 Q95.7093 938.309 99.3204 938.309 Q102.955 938.309 104.76 934.767 Q106.589 931.203 106.589 924.096 Q106.589 916.967 104.76 913.425 Q102.955 909.86 99.3204 909.86 M99.3204 906.156 Q105.131 906.156 108.186 910.763 Q111.265 915.346 111.265 924.096 Q111.265 932.823 108.186 937.429 Q105.131 942.013 99.3204 942.013 Q93.5102 942.013 90.4315 937.429 Q87.376 932.823 87.376 924.096 Q87.376 915.346 90.4315 910.763 Q93.5102 906.156 99.3204 906.156 Z" fill="#000000" fill-rule="evenodd" fill-opacity="1" /><path clip-path="url(#clip270)" d="M119.482 935.462 L124.367 935.462 L124.367 941.341 L119.482 941.341 L119.482 935.462 Z" fill="#000000" fill-rule="evenodd" fill-opacity="1" /><path clip-path="url(#clip270)" d="M144.552 909.86 Q140.941 909.86 139.112 913.425 Q137.306 916.967 137.306 924.096 Q137.306 931.203 139.112 934.767 Q140.941 938.309 144.552 938.309 Q148.186 938.309 149.991 934.767 Q151.82 931.203 151.82 924.096 Q151.82 916.967 149.991 913.425 Q148.186 909.86 144.552 909.86 M144.552 906.156 Q150.362 906.156 153.417 910.763 Q156.496 915.346 156.496 924.096 Q156.496 932.823 153.417 937.429 Q150.362 942.013 144.552 942.013 Q138.741 942.013 135.663 937.429 Q132.607 932.823 132.607 924.096 Q132.607 915.346 135.663 910.763 Q138.741 906.156 144.552 906.156 Z" fill="#000000" fill-rule="evenodd" fill-opacity="1" /><path clip-path="url(#clip270)" d="M100.316 496.266 Q96.7047 496.266 94.876 499.83 Q93.0704 503.372 93.0704 510.502 Q93.0704 517.608 94.876 521.173 Q96.7047 524.715 100.316 524.715 Q103.95 524.715 105.756 521.173 Q107.584 517.608 107.584 510.502 Q107.584 503.372 105.756 499.83 Q103.95 496.266 100.316 496.266 M100.316 492.562 Q106.126 492.562 109.181 497.168 Q112.26 501.752 112.26 510.502 Q112.26 519.228 109.181 523.835 Q106.126 528.418 100.316 528.418 Q94.5056 528.418 91.4269 523.835 Q88.3714 519.228 88.3714 510.502 Q88.3714 501.752 91.4269 497.168 Q94.5056 492.562 100.316 492.562 Z" fill="#000000" fill-rule="evenodd" fill-opacity="1" /><path clip-path="url(#clip270)" d="M120.478 521.867 L125.362 521.867 L125.362 527.747 L120.478 527.747 L120.478 521.867 Z" fill="#000000" fill-rule="evenodd" fill-opacity="1" /><path clip-path="url(#clip270)" d="M135.593 493.187 L153.95 493.187 L153.95 497.122 L139.876 497.122 L139.876 505.594 Q140.894 505.247 141.913 505.085 Q142.931 504.9 143.95 504.9 Q149.737 504.9 153.116 508.071 Q156.496 511.242 156.496 516.659 Q156.496 522.238 153.024 525.34 Q149.552 528.418 143.232 528.418 Q141.056 528.418 138.788 528.048 Q136.542 527.677 134.135 526.937 L134.135 522.238 Q136.218 523.372 138.441 523.928 Q140.663 524.483 143.14 524.483 Q147.144 524.483 149.482 522.377 Q151.82 520.27 151.82 516.659 Q151.82 513.048 149.482 510.941 Q147.144 508.835 143.14 508.835 Q141.265 508.835 139.39 509.252 Q137.538 509.668 135.593 510.548 L135.593 493.187 Z" fill="#000000" fill-rule="evenodd" fill-opacity="1" /><path clip-path="url(#clip270)" d="M90.1306 110.217 L97.7695 110.217 L97.7695 83.8517 L89.4593 85.5183 L89.4593 81.2591 L97.7232 79.5924 L102.399 79.5924 L102.399 110.217 L110.038 110.217 L110.038 114.152 L90.1306 114.152 L90.1306 110.217 Z" fill="#000000" fill-rule="evenodd" fill-opacity="1" /><path clip-path="url(#clip270)" d="M119.482 108.273 L124.367 108.273 L124.367 114.152 L119.482 114.152 L119.482 108.273 Z" fill="#000000" fill-rule="evenodd" fill-opacity="1" /><path clip-path="url(#clip270)" d="M144.552 82.6711 Q140.941 82.6711 139.112 86.2359 Q137.306 89.7776 137.306 96.9072 Q137.306 104.014 139.112 107.578 Q140.941 111.12 144.552 111.12 Q148.186 111.12 149.991 107.578 Q151.82 104.014 151.82 96.9072 Q151.82 89.7776 149.991 86.2359 Q148.186 82.6711 144.552 82.6711 M144.552 78.9675 Q150.362 78.9675 153.417 83.5739 Q156.496 88.1572 156.496 96.9072 Q156.496 105.634 153.417 110.24 Q150.362 114.824 144.552 114.824 Q138.741 114.824 135.663 110.24 Q132.607 105.634 132.607 96.9072 Q132.607 88.1572 135.663 83.5739 Q138.741 78.9675 144.552 78.9675 Z" fill="#000000" fill-rule="evenodd" fill-opacity="1" /><polyline clip-path="url(#clip272)" style="stroke:#ff0000; stroke-linecap:butt; stroke-linejoin:round; stroke-width:4; stroke-opacity:1; fill:none" points="
  265.984,924.061 277.242,898.687 288.5,873.337 392.597,644.275 496.694,437.579 559.252,331.129 621.81,241.87 648.256,209.954 674.702,181.746 701.148,157.392 
  727.594,137.018 785.049,106.949 842.505,96.8725 895.474,105.514 948.443,131.183 1005.23,176.999 1062.02,240.673 1127.81,334.749 1193.61,447.721 1252.08,561.059 
  1310.55,683.594 1361.82,796.169 1413.1,911.237 1469,1036.9 1524.9,1159.95 1581.13,1278.21 1637.37,1388.17 1699.54,1496.99 1761.72,1589.39 1820.87,1659.66 
  1880.03,1710.85 1910.78,1729.47 1941.54,1742.43 1972.29,1749.64 2003.05,1751.06 2054.83,1740.35 2106.6,1713.41 2169.82,1659.33 2233.03,1583.48 2292.46,1494.34 
  2351.88,1390.26 2447.08,1199.37 2542.29,990.045 2556.94,957.08 2571.59,924.061 
  "/>
<polyline clip-path="url(#clip272)" style="stroke:#0000ff; stroke-linecap:butt; stroke-linejoin:round; stroke-width:4; stroke-opacity:1; fill:none" points="
  265.984,96.8724 271.613,96.9698 277.242,97.2617 282.871,97.7482 288.5,98.4292 340.549,113.892 392.597,145.626 444.646,192.996 496.694,255.05 527.973,298.897 
  559.252,347.284 590.531,399.859 621.81,456.24 674.702,559.083 727.594,669.495 842.505,924.332 948.443,1159.83 1005.23,1279.22 1062.02,1390.13 1127.81,1504.54 
  1193.61,1600.33 1222.84,1636.1 1252.08,1667.34 1281.31,1693.88 1310.55,1715.53 1361.82,1741.3 1413.1,1751.15 1469,1743.52 1524.9,1716.9 1581.13,1671.6 
  1637.37,1608.78 1699.54,1520.72 1761.72,1415.56 1820.87,1302.39 1880.03,1179.41 2003.05,906.34 2106.6,676.741 2169.82,545.09 2233.03,424.659 2292.46,324.872 
  2351.88,240.764 2399.48,186.198 2447.08,144.031 2494.68,114.972 2542.29,99.5084 2549.61,98.3555 2556.94,97.5317 2564.26,97.0373 2571.59,96.8724 
  "/>
<polyline clip-path="url(#clip272)" style="stroke:#008000; stroke-linecap:butt; stroke-linejoin:round; stroke-width:4; stroke-opacity:1; fill:none" points="
  265.984,924.061 288.5,924.061 496.694,924.061 621.81,924.061 727.594,924.061 842.505,924.061 948.443,924.061 1062.02,924.061 1193.61,924.061 1310.55,924.061 
  1413.1,924.061 1524.9,924.061 1637.37,924.061 1761.72,924.061 1880.03,924.061 2003.05,924.061 2106.6,924.061 2233.03,924.061 2351.88,924.061 2542.29,924.061 
  2571.59,924.061 
  "/>
<path clip-path="url(#clip270)" d="
M2234.73 313.055 L2559.29 313.055 L2559.29 105.695 L2234.73 105.695  Z
  " fill="#ffffff" fill-rule="evenodd" fill-opacity="1"/>
<polyline clip-path="url(#clip270)" style="stroke:#000000; stroke-linecap:butt; stroke-linejoin:round; stroke-width:4; stroke-opacity:1; fill:none" points="
  2234.73,313.055 2559.29,313.055 2559.29,105.695 2234.73,105.695 2234.73,313.055 
  "/>
<polyline clip-path="url(#clip270)" style="stroke:#ff0000; stroke-linecap:butt; stroke-linejoin:round; stroke-width:4; stroke-opacity:1; fill:none" points="
  2261.89,157.535 2424.82,157.535 
  "/>
<path clip-path="url(#clip270)" d="M2465.82 177.223 Q2464.01 181.852 2462.3 183.264 Q2460.58 184.676 2457.71 184.676 L2454.31 184.676 L2454.31 181.112 L2456.81 181.112 Q2458.57 181.112 2459.54 180.278 Q2460.51 179.445 2461.69 176.343 L2462.46 174.399 L2451.97 148.889 L2456.49 148.889 L2464.59 169.167 L2472.69 148.889 L2477.2 148.889 L2465.82 177.223 Z" fill="#000000" fill-rule="evenodd" fill-opacity="1" /><path clip-path="url(#clip270)" d="M2484.5 170.88 L2492.13 170.88 L2492.13 144.515 L2483.82 146.181 L2483.82 141.922 L2492.09 140.255 L2496.76 140.255 L2496.76 170.88 L2504.4 170.88 L2504.4 174.815 L2484.5 174.815 L2484.5 170.88 Z" fill="#000000" fill-rule="evenodd" fill-opacity="1" /><polyline clip-path="url(#clip270)" style="stroke:#0000ff; stroke-linecap:butt; stroke-linejoin:round; stroke-width:4; stroke-opacity:1; fill:none" points="
  2261.89,209.375 2424.82,209.375 
  "/>
<path clip-path="url(#clip270)" d="M2465.82 229.063 Q2464.01 233.692 2462.3 235.104 Q2460.58 236.516 2457.71 236.516 L2454.31 236.516 L2454.31 232.952 L2456.81 232.952 Q2458.57 232.952 2459.54 232.118 Q2460.51 231.285 2461.69 228.183 L2462.46 226.239 L2451.97 200.729 L2456.49 200.729 L2464.59 221.007 L2472.69 200.729 L2477.2 200.729 L2465.82 229.063 Z" fill="#000000" fill-rule="evenodd" fill-opacity="1" /><path clip-path="url(#clip270)" d="M2487.71 222.72 L2504.03 222.72 L2504.03 226.655 L2482.09 226.655 L2482.09 222.72 Q2484.75 219.965 2489.33 215.336 Q2493.94 210.683 2495.12 209.341 Q2497.37 206.817 2498.25 205.081 Q2499.15 203.322 2499.15 201.632 Q2499.15 198.878 2497.2 197.142 Q2495.28 195.405 2492.18 195.405 Q2489.98 195.405 2487.53 196.169 Q2485.1 196.933 2482.32 198.484 L2482.32 193.762 Q2485.14 192.628 2487.6 192.049 Q2490.05 191.47 2492.09 191.47 Q2497.46 191.47 2500.65 194.155 Q2503.85 196.841 2503.85 201.331 Q2503.85 203.461 2503.04 205.382 Q2502.25 207.28 2500.14 209.873 Q2499.56 210.544 2496.46 213.762 Q2493.36 216.956 2487.71 222.72 Z" fill="#000000" fill-rule="evenodd" fill-opacity="1" /><polyline clip-path="url(#clip270)" style="stroke:#008000; stroke-linecap:butt; stroke-linejoin:round; stroke-width:4; stroke-opacity:1; fill:none" points="
  2261.89,261.215 2424.82,261.215 
  "/>
<path clip-path="url(#clip270)" d="M2465.82 280.903 Q2464.01 285.532 2462.3 286.944 Q2460.58 288.356 2457.71 288.356 L2454.31 288.356 L2454.31 284.792 L2456.81 284.792 Q2458.57 284.792 2459.54 283.958 Q2460.51 283.125 2461.69 280.023 L2462.46 278.079 L2451.97 252.569 L2456.49 252.569 L2464.59 272.847 L2472.69 252.569 L2477.2 252.569 L2465.82 280.903 Z" fill="#000000" fill-rule="evenodd" fill-opacity="1" /><path clip-path="url(#clip270)" d="M2497.85 259.861 Q2501.21 260.579 2503.08 262.847 Q2504.98 265.116 2504.98 268.449 Q2504.98 273.565 2501.46 276.366 Q2497.94 279.167 2491.46 279.167 Q2489.29 279.167 2486.97 278.727 Q2484.68 278.31 2482.23 277.454 L2482.23 272.94 Q2484.17 274.074 2486.49 274.653 Q2488.8 275.231 2491.32 275.231 Q2495.72 275.231 2498.01 273.495 Q2500.33 271.759 2500.33 268.449 Q2500.33 265.393 2498.18 263.681 Q2496.05 261.944 2492.23 261.944 L2488.2 261.944 L2488.2 258.102 L2492.41 258.102 Q2495.86 258.102 2497.69 256.736 Q2499.52 255.347 2499.52 252.755 Q2499.52 250.093 2497.62 248.681 Q2495.75 247.245 2492.23 247.245 Q2490.31 247.245 2488.11 247.662 Q2485.91 248.079 2483.27 248.958 L2483.27 244.792 Q2485.93 244.051 2488.25 243.681 Q2490.58 243.31 2492.64 243.31 Q2497.97 243.31 2501.07 245.741 Q2504.17 248.148 2504.17 252.269 Q2504.17 255.139 2502.53 257.13 Q2500.88 259.097 2497.85 259.861 Z" fill="#000000" fill-rule="evenodd" fill-opacity="1" /></svg>
