<?xml version="1.0" encoding="utf-8"?>
<svg xmlns="http://www.w3.org/2000/svg" xmlns:xlink="http://www.w3.org/1999/xlink" width="672" height="480" viewBox="0 0 2688 1920">
<defs>
  <clipPath id="clip880">
    <rect x="0" y="0" width="2688" height="1920"/>
  </clipPath>
</defs>
<path clip-path="url(#clip880)" d="
M0 1920 L2688 1920 L2688 0 L0 0  Z
  " fill="#ffffff" fill-rule="evenodd" fill-opacity="1"/>
<defs>
  <clipPath id="clip881">
    <rect x="537" y="0" width="1883" height="1883"/>
  </clipPath>
</defs>
<path clip-path="url(#clip880)" d="
M150.358 1800.78 L2371.96 1800.78 L2371.96 47.2441 L150.358 47.2441  Z
  " fill="#ffffff" fill-rule="evenodd" fill-opacity="1"/>
<defs>
  <clipPath id="clip882">
    <rect x="150" y="47" width="2223" height="1755"/>
  </clipPath>
</defs>
<polyline clip-path="url(#clip882)" style="stroke:#000000; stroke-linecap:butt; stroke-linejoin:round; stroke-width:2; stroke-opacity:0.1; fill:none" points="
  150.358,1800.78 150.358,47.2441 
  "/>
<polyline clip-path="url(#clip882)" style="stroke:#000000; stroke-linecap:butt; stroke-linejoin:round; stroke-width:2; stroke-opacity:0.1; fill:none" points="
  705.757,1800.78 705.757,47.2441 
  "/>
<polyline clip-path="url(#clip882)" style="stroke:#000000; stroke-linecap:butt; stroke-linejoin:round; stroke-width:2; stroke-opacity:0.1; fill:none" points="
  1261.16,1800.78 1261.16,47.2441 
  "/>
<polyline clip-path="url(#clip882)" style="stroke:#000000; stroke-linecap:butt; stroke-linejoin:round; stroke-width:2; stroke-opacity:0.1; fill:none" points="
  1816.56,1800.78 1816.56,47.2441 
  "/>
<polyline clip-path="url(#clip882)" style="stroke:#000000; stroke-linecap:butt; stroke-linejoin:round; stroke-width:2; stroke-opacity:0.1; fill:none" points="
  2371.96,1800.78 2371.96,47.2441 
  "/>
<polyline clip-path="url(#clip880)" style="stroke:#000000; stroke-linecap:butt; stroke-linejoin:round; stroke-width:4; stroke-opacity:1; fill:none" points="
  150.358,1800.78 2371.96,1800.78 
  "/>
<polyline clip-path="url(#clip880)" style="stroke:#000000; stroke-linecap:butt; stroke-linejoin:round; stroke-width:4; stroke-opacity:1; fill:none" points="
  150.358,1800.78 150.358,1781.88 
  "/>
<polyline clip-path="url(#clip880)" style="stroke:#000000; stroke-linecap:butt; stroke-linejoin:round; stroke-width:4; stroke-opacity:1; fill:none" points="
  705.757,1800.78 705.757,1781.88 
  "/>
<polyline clip-path="url(#clip880)" style="stroke:#000000; stroke-linecap:butt; stroke-linejoin:round; stroke-width:4; stroke-opacity:1; fill:none" points="
  1261.16,1800.78 1261.16,1781.88 
  "/>
<polyline clip-path="url(#clip880)" style="stroke:#000000; stroke-linecap:butt; stroke-linejoin:round; stroke-width:4; stroke-opacity:1; fill:none" points="
  1816.56,1800.78 1816.56,1781.88 
  "/>
<polyline clip-path="url(#clip880)" style="stroke:#000000; stroke-linecap:butt; stroke-linejoin:round; stroke-width:4; stroke-opacity:1; fill:none" points="
  2371.96,1800.78 2371.96,1781.88 
  "/>
<path clip-path="url(#clip880)" d="M120.3 1848.65 L149.976 1848.65 L149.976 1852.59 L120.3 1852.59 L120.3 1848.65 Z" fill="#000000" fill-rule="evenodd" fill-opacity="1" /><path clip-path="url(#clip880)" d="M164.096 1861.55 L180.416 1861.55 L180.416 1865.48 L158.471 1865.48 L158.471 1861.55 Q161.133 1858.79 165.717 1854.16 Q170.323 1849.51 171.504 1848.17 Q173.749 1845.65 174.629 1843.91 Q175.531 1842.15 175.531 1840.46 Q175.531 1837.71 173.587 1835.97 Q171.666 1834.23 168.564 1834.23 Q166.365 1834.23 163.911 1835 Q161.481 1835.76 158.703 1837.31 L158.703 1832.59 Q161.527 1831.46 163.981 1830.88 Q166.434 1830.3 168.471 1830.3 Q173.842 1830.3 177.036 1832.98 Q180.23 1835.67 180.23 1840.16 Q180.23 1842.29 179.42 1844.21 Q178.633 1846.11 176.527 1848.7 Q175.948 1849.37 172.846 1852.59 Q169.744 1855.78 164.096 1861.55 Z" fill="#000000" fill-rule="evenodd" fill-opacity="1" /><path clip-path="url(#clip880)" d="M675.515 1848.65 L705.19 1848.65 L705.19 1852.59 L675.515 1852.59 L675.515 1848.65 Z" fill="#000000" fill-rule="evenodd" fill-opacity="1" /><path clip-path="url(#clip880)" d="M716.093 1861.55 L723.732 1861.55 L723.732 1835.18 L715.422 1836.85 L715.422 1832.59 L723.686 1830.92 L728.361 1830.92 L728.361 1861.55 L736 1861.55 L736 1865.48 L716.093 1865.48 L716.093 1861.55 Z" fill="#000000" fill-rule="evenodd" fill-opacity="1" /><path clip-path="url(#clip880)" d="M1261.16 1834 Q1257.55 1834 1255.72 1837.57 Q1253.91 1841.11 1253.91 1848.24 Q1253.91 1855.34 1255.72 1858.91 Q1257.55 1862.45 1261.16 1862.45 Q1264.79 1862.45 1266.6 1858.91 Q1268.43 1855.34 1268.43 1848.24 Q1268.43 1841.11 1266.6 1837.57 Q1264.79 1834 1261.16 1834 M1261.16 1830.3 Q1266.97 1830.3 1270.02 1834.9 Q1273.1 1839.49 1273.1 1848.24 Q1273.1 1856.96 1270.02 1861.57 Q1266.97 1866.15 1261.16 1866.15 Q1255.35 1866.15 1252.27 1861.57 Q1249.21 1856.96 1249.21 1848.24 Q1249.21 1839.49 1252.27 1834.9 Q1255.35 1830.3 1261.16 1830.3 Z" fill="#000000" fill-rule="evenodd" fill-opacity="1" /><path clip-path="url(#clip880)" d="M1806.94 1861.55 L1814.58 1861.55 L1814.58 1835.18 L1806.27 1836.85 L1806.27 1832.59 L1814.53 1830.92 L1819.21 1830.92 L1819.21 1861.55 L1826.85 1861.55 L1826.85 1865.48 L1806.94 1865.48 L1806.94 1861.55 Z" fill="#000000" fill-rule="evenodd" fill-opacity="1" /><path clip-path="url(#clip880)" d="M2366.61 1861.55 L2382.93 1861.55 L2382.93 1865.48 L2360.98 1865.48 L2360.98 1861.55 Q2363.65 1858.79 2368.23 1854.16 Q2372.84 1849.51 2374.02 1848.17 Q2376.26 1845.65 2377.14 1843.91 Q2378.04 1842.15 2378.04 1840.46 Q2378.04 1837.71 2376.1 1835.97 Q2374.18 1834.23 2371.08 1834.23 Q2368.88 1834.23 2366.42 1835 Q2363.99 1835.76 2361.22 1837.31 L2361.22 1832.59 Q2364.04 1831.46 2366.49 1830.88 Q2368.95 1830.3 2370.98 1830.3 Q2376.35 1830.3 2379.55 1832.98 Q2382.74 1835.67 2382.74 1840.16 Q2382.74 1842.29 2381.93 1844.21 Q2381.15 1846.11 2379.04 1848.7 Q2378.46 1849.37 2375.36 1852.59 Q2372.26 1855.78 2366.61 1861.55 Z" fill="#000000" fill-rule="evenodd" fill-opacity="1" /><polyline clip-path="url(#clip882)" style="stroke:#000000; stroke-linecap:butt; stroke-linejoin:round; stroke-width:2; stroke-opacity:0.1; fill:none" points="
  150.358,1800.78 2371.96,1800.78 
  "/>
<polyline clip-path="url(#clip882)" style="stroke:#000000; stroke-linecap:butt; stroke-linejoin:round; stroke-width:2; stroke-opacity:0.1; fill:none" points="
  150.358,1362.4 2371.96,1362.4 
  "/>
<polyline clip-path="url(#clip882)" style="stroke:#000000; stroke-linecap:butt; stroke-linejoin:round; stroke-width:2; stroke-opacity:0.1; fill:none" points="
  150.358,924.012 2371.96,924.012 
  "/>
<polyline clip-path="url(#clip882)" style="stroke:#000000; stroke-linecap:butt; stroke-linejoin:round; stroke-width:2; stroke-opacity:0.1; fill:none" points="
  150.358,485.628 2371.96,485.628 
  "/>
<polyline clip-path="url(#clip882)" style="stroke:#000000; stroke-linecap:butt; stroke-linejoin:round; stroke-width:2; stroke-opacity:0.1; fill:none" points="
  150.358,47.2441 2371.96,47.2441 
  "/>
<polyline clip-path="url(#clip880)" style="stroke:#000000; stroke-linecap:butt; stroke-linejoin:round; stroke-width:4; stroke-opacity:1; fill:none" points="
  150.358,1800.78 150.358,47.2441 
  "/>
<polyline clip-path="url(#clip880)" style="stroke:#000000; stroke-linecap:butt; stroke-linejoin:round; stroke-width:4; stroke-opacity:1; fill:none" points="
  150.358,1800.78 167.216,1800.78 
  "/>
<polyline clip-path="url(#clip880)" style="stroke:#000000; stroke-linecap:butt; stroke-linejoin:round; stroke-width:4; stroke-opacity:1; fill:none" points="
  150.358,1362.4 167.216,1362.4 
  "/>
<polyline clip-path="url(#clip880)" style="stroke:#000000; stroke-linecap:butt; stroke-linejoin:round; stroke-width:4; stroke-opacity:1; fill:none" points="
  150.358,924.012 167.216,924.012 
  "/>
<polyline clip-path="url(#clip880)" style="stroke:#000000; stroke-linecap:butt; stroke-linejoin:round; stroke-width:4; stroke-opacity:1; fill:none" points="
  150.358,485.628 167.216,485.628 
  "/>
<polyline clip-path="url(#clip880)" style="stroke:#000000; stroke-linecap:butt; stroke-linejoin:round; stroke-width:4; stroke-opacity:1; fill:none" points="
  150.358,47.2441 167.216,47.2441 
  "/>
<path clip-path="url(#clip880)" d="M49.9225 1801.23 L79.5983 1801.23 L79.5983 1805.17 L49.9225 1805.17 L49.9225 1801.23 Z" fill="#000000" fill-rule="evenodd" fill-opacity="1" /><path clip-path="url(#clip880)" d="M93.7186 1814.12 L110.038 1814.12 L110.038 1818.06 L88.0936 1818.06 L88.0936 1814.12 Q90.7556 1811.37 95.3389 1806.74 Q99.9454 1802.09 101.126 1800.74 Q103.371 1798.22 104.251 1796.49 Q105.154 1794.73 105.154 1793.04 Q105.154 1790.28 103.209 1788.55 Q101.288 1786.81 98.1861 1786.81 Q95.9871 1786.81 93.5334 1787.57 Q91.1028 1788.34 88.3251 1789.89 L88.3251 1785.17 Q91.1491 1784.03 93.6028 1783.45 Q96.0565 1782.87 98.0935 1782.87 Q103.464 1782.87 106.658 1785.56 Q109.853 1788.24 109.853 1792.74 Q109.853 1794.86 109.043 1796.79 Q108.256 1798.68 106.149 1801.28 Q105.57 1801.95 102.469 1805.17 Q99.3667 1808.36 93.7186 1814.12 Z" fill="#000000" fill-rule="evenodd" fill-opacity="1" /><path clip-path="url(#clip880)" d="M49.5521 1362.85 L79.2279 1362.85 L79.2279 1366.78 L49.5521 1366.78 L49.5521 1362.85 Z" fill="#000000" fill-rule="evenodd" fill-opacity="1" /><path clip-path="url(#clip880)" d="M90.1306 1375.74 L97.7695 1375.74 L97.7695 1349.37 L89.4593 1351.04 L89.4593 1346.78 L97.7232 1345.12 L102.399 1345.12 L102.399 1375.74 L110.038 1375.74 L110.038 1379.68 L90.1306 1379.68 L90.1306 1375.74 Z" fill="#000000" fill-rule="evenodd" fill-opacity="1" /><path clip-path="url(#clip880)" d="M98.0935 909.81 Q94.4824 909.81 92.6537 913.375 Q90.8482 916.917 90.8482 924.046 Q90.8482 931.153 92.6537 934.718 Q94.4824 938.259 98.0935 938.259 Q101.728 938.259 103.533 934.718 Q105.362 931.153 105.362 924.046 Q105.362 916.917 103.533 913.375 Q101.728 909.81 98.0935 909.81 M98.0935 906.107 Q103.904 906.107 106.959 910.713 Q110.038 915.296 110.038 924.046 Q110.038 932.773 106.959 937.38 Q103.904 941.963 98.0935 941.963 Q92.2834 941.963 89.2047 937.38 Q86.1492 932.773 86.1492 924.046 Q86.1492 915.296 89.2047 910.713 Q92.2834 906.107 98.0935 906.107 Z" fill="#000000" fill-rule="evenodd" fill-opacity="1" /><path clip-path="url(#clip880)" d="M90.1306 498.973 L97.7695 498.973 L97.7695 472.607 L89.4593 474.274 L89.4593 470.015 L97.7232 468.348 L102.399 468.348 L102.399 498.973 L110.038 498.973 L110.038 502.908 L90.1306 502.908 L90.1306 498.973 Z" fill="#000000" fill-rule="evenodd" fill-opacity="1" /><path clip-path="url(#clip880)" d="M93.7186 60.5889 L110.038 60.5889 L110.038 64.5241 L88.0936 64.5241 L88.0936 60.5889 Q90.7556 57.8343 95.3389 53.2047 Q99.9454 48.552 101.126 47.2094 Q103.371 44.6862 104.251 42.9501 Q105.154 41.1909 105.154 39.5011 Q105.154 36.7465 103.209 35.0104 Q101.288 33.2743 98.1861 33.2743 Q95.9871 33.2743 93.5334 34.0381 Q91.1028 34.802 88.3251 36.3529 L88.3251 31.6308 Q91.1491 30.4965 93.6028 29.9178 Q96.0565 29.3391 98.0935 29.3391 Q103.464 29.3391 106.658 32.0243 Q109.853 34.7094 109.853 39.2002 Q109.853 41.3298 109.043 43.2511 Q108.256 45.1492 106.149 47.7418 Q105.57 48.4131 102.469 51.6306 Q99.3667 54.8251 93.7186 60.5889 Z" fill="#000000" fill-rule="evenodd" fill-opacity="1" /><polyline clip-path="url(#clip882)" style="stroke:#a12b61; stroke-linecap:butt; stroke-linejoin:round; stroke-width:4; stroke-opacity:1; fill:none" points="
  222.801,1800.78 242.924,1784.9 322.267,1727.72 335.491,1717.28 423.186,1654.65 428.058,1650.81 520.624,1585.43 526.795,1581.59 613.191,1521.42 634.552,1508.52 
  705.757,1459.81 747.833,1435.46 798.324,1401.74 870.32,1362.4 890.891,1349.11 983.457,1302.62 1020.48,1289.33 1076.02,1264.98 1168.59,1240.62 1261.16,1232.5 
  1353.72,1240.62 1446.29,1264.98 1501.83,1289.33 1538.86,1302.62 1631.42,1349.11 1651.99,1362.4 1723.99,1401.74 1774.48,1435.46 1816.56,1459.81 1887.76,1508.52 
  1909.12,1521.42 1995.52,1581.59 2001.69,1585.43 2094.26,1650.81 2099.13,1654.65 2186.82,1717.28 2200.05,1727.72 2279.39,1784.9 2299.51,1800.78 
  "/>
<polyline clip-path="url(#clip882)" style="stroke:#ba3655; stroke-linecap:butt; stroke-linejoin:round; stroke-width:4; stroke-opacity:1; fill:none" points="
  2371.96,1800.78 2279.39,1727.72 2186.82,1654.65 2094.26,1581.59 2001.69,1508.52 1909.12,1435.46 
  1816.56,1362.4 1723.99,1289.33 1631.42,1216.27 1538.86,1143.2 1446.29,1070.14 
  1353.72,997.076 1261.16,924.012 1168.59,997.076 1076.02,1070.14 983.457,1143.2 
  890.891,1216.27 798.324,1289.33 705.757,1362.4 613.191,1435.46 520.624,1508.52 
  428.058,1581.59 335.491,1654.65 242.924,1727.72 150.358,1800.78 
  "/>
<polyline clip-path="url(#clip882)" style="stroke:#d04544; stroke-linecap:butt; stroke-linejoin:round; stroke-width:4; stroke-opacity:1; fill:none" points="
  150.358,1743.6 170.481,1727.72 242.924,1665.09 256.148,1654.65 335.491,1585.43 340.363,1581.59 423.186,1508.52 428.058,1503.65 504.289,1435.46 520.624,1418.6 
  582.335,1362.4 613.191,1329.18 655.914,1289.33 705.757,1232.5 722.588,1216.27 781.494,1143.2 798.324,1113.98 829.18,1070.14 860.035,997.076 870.32,924.012 
  860.035,850.948 829.18,777.884 798.324,734.045 781.494,704.82 722.588,631.756 705.757,615.519 655.914,558.692 613.191,518.839 582.335,485.628 520.624,429.425 
  504.289,412.564 428.058,344.371 423.186,339.5 340.363,266.436 335.491,262.591 256.148,193.372 242.924,182.934 170.481,120.308 150.358,104.425 
  "/>
<polyline clip-path="url(#clip882)" style="stroke:#88216a; stroke-linecap:butt; stroke-linejoin:round; stroke-width:4; stroke-opacity:1; fill:none" points="
  300.228,47.2441 335.491,72.6576 408.57,120.308 428.058,134.225 520.624,193.372 613.191,251.054 641.673,266.436 705.757,305.117 773.079,339.5 
  798.324,354.113 890.891,397.951 930.562,412.564 983.457,435.045 1076.02,463.147 1168.59,480.008 1261.16,485.628 1353.72,480.008 1446.29,463.147 1538.86,435.045 
  1591.75,412.564 1631.42,397.951 1723.99,354.113 1749.24,339.5 1816.56,305.117 1880.64,266.436 1909.12,251.054 2001.69,193.372 2094.26,134.225 
  2113.74,120.308 2186.82,72.6576 2222.09,47.2441 
  "/>
<polyline clip-path="url(#clip882)" style="stroke:#a12b61; stroke-linecap:butt; stroke-linejoin:round; stroke-width:4; stroke-opacity:1; fill:none" points="
  2299.51,47.2441 2279.39,63.1276 2200.05,120.308 2186.82,130.746 2099.13,193.372 2094.26,197.218 2001.69,262.591 1995.52,266.436 1909.12,326.606 1887.76,339.5 
  1816.56,388.209 1774.48,412.564 1723.99,446.286 1651.99,485.628 1631.42,498.912 1538.86,545.408 1501.83,558.692 1446.29,583.047 1353.72,607.401 1261.16,615.519 
  1168.59,607.401 1076.02,583.047 1020.48,558.692 983.457,545.408 890.891,498.912 870.32,485.628 798.324,446.286 747.833,412.564 705.757,388.209 634.552,339.5 
  613.191,326.606 526.795,266.436 520.624,262.591 428.058,197.218 423.186,193.372 335.491,130.746 322.267,120.308 242.924,63.1276 222.801,47.2441 
  "/>
<polyline clip-path="url(#clip882)" style="stroke:#ba3655; stroke-linecap:butt; stroke-linejoin:round; stroke-width:4; stroke-opacity:1; fill:none" points="
  150.358,47.2441 242.924,120.308 335.491,193.372 428.058,266.436 520.624,339.5 613.191,412.564 
  705.757,485.628 798.324,558.692 890.891,631.756 983.457,704.82 1076.02,777.884 
  1168.59,850.948 1261.16,924.012 1353.72,850.948 1446.29,777.884 1538.86,704.82 
  1631.42,631.756 1723.99,558.692 1816.56,485.628 1909.12,412.564 2001.69,339.5 
  2094.26,266.436 2186.82,193.372 2279.39,120.308 2371.96,47.2441 
  "/>
<polyline clip-path="url(#clip882)" style="stroke:#d04544; stroke-linecap:butt; stroke-linejoin:round; stroke-width:4; stroke-opacity:1; fill:none" points="
  2371.96,104.425 2351.83,120.308 2279.39,182.934 2266.17,193.372 2186.82,262.591 2181.95,266.436 2099.13,339.5 2094.26,344.371 2018.02,412.564 2001.69,429.425 
  1939.98,485.628 1909.12,518.839 1866.4,558.692 1816.56,615.519 1799.73,631.756 1740.82,704.82 1723.99,734.045 1693.13,777.884 1662.28,850.948 1651.99,924.012 
  1662.28,997.076 1693.13,1070.14 1723.99,1113.98 1740.82,1143.2 1799.73,1216.27 1816.56,1232.5 1866.4,1289.33 1909.12,1329.18 1939.98,1362.4 2001.69,1418.6 
  2018.02,1435.46 2094.26,1503.65 2099.13,1508.52 2181.95,1581.59 2186.82,1585.43 2266.17,1654.65 2279.39,1665.09 2351.83,1727.72 2371.96,1743.6 
  "/>
<polyline clip-path="url(#clip882)" style="stroke:#e35832; stroke-linecap:butt; stroke-linejoin:round; stroke-width:4; stroke-opacity:1; fill:none" points="
  2371.96,1682.49 2339.76,1654.65 2279.39,1596.97 2261.76,1581.59 2186.82,1508.52 2113.74,1435.46 2094.26,1412.98 2045.25,1362.4 2001.69,1309.26 
  1983.18,1289.33 1927.64,1216.27 1909.12,1184.95 1880.64,1143.2 1845.04,1070.14 1823.68,997.076 1816.56,924.012 1823.68,850.948 
  1845.04,777.884 1880.64,704.82 1909.12,663.069 1927.64,631.756 1983.18,558.692 2001.69,538.765 2045.25,485.628 2094.26,435.045 2113.74,412.564 2186.82,339.5 
  2261.76,266.436 2279.39,251.054 2339.76,193.372 2371.96,165.538 
  "/>
<polyline clip-path="url(#clip882)" style="stroke:#f0701e; stroke-linecap:butt; stroke-linejoin:round; stroke-width:4; stroke-opacity:1; fill:none" points="
  2371.96,231.827 2335.73,266.436 2279.39,326.606 2266.17,339.5 2200.05,412.564 2186.82,429.425 2138.1,485.628 2094.26,545.408 2083.37,558.692 2034.36,631.756 
  2001.69,694.382 1995.52,704.82 1964.66,777.884 1946.15,850.948 1939.98,924.012 1946.15,997.076 1964.66,1070.14 1995.52,1143.2 2001.69,1153.64 2034.36,1216.27 
  2083.37,1289.33 2094.26,1302.62 2138.1,1362.4 2186.82,1418.6 2200.05,1435.46 2266.17,1508.52 2279.39,1521.42 2335.73,1581.59 2371.96,1616.2 
  "/>
<polyline clip-path="url(#clip882)" style="stroke:#f98c09; stroke-linecap:butt; stroke-linejoin:round; stroke-width:4; stroke-opacity:1; fill:none" points="
  2371.96,1542.91 2339.76,1508.52 2279.39,1435.46 2279.39,1435.46 2222.09,1362.4 2186.82,1309.26 2172.21,1289.33 2128.36,1216.27 2094.26,1143.2 
  2067.03,1070.14 2050.7,997.076 2045.25,924.012 2050.7,850.948 2067.03,777.884 2094.26,704.82 2128.36,631.756 2172.21,558.692 2186.82,538.765 
  2222.09,485.628 2279.39,412.564 2279.39,412.564 2339.76,339.5 2371.96,305.117 
  "/>
<polyline clip-path="url(#clip882)" style="stroke:#fbaa0e; stroke-linecap:butt; stroke-linejoin:round; stroke-width:4; stroke-opacity:1; fill:none" points="
  2371.96,388.209 2351.83,412.564 2299.51,485.628 2279.39,518.839 2252.94,558.692 2213.27,631.756 2186.82,694.382 2181.95,704.82 2157.59,777.884 2142.98,850.948 
  2138.1,924.012 2142.98,997.076 2157.59,1070.14 2181.95,1143.2 2186.82,1153.64 2213.27,1216.27 2252.94,1289.33 2279.39,1329.18 2299.51,1362.4 2351.83,1435.46 
  2371.96,1459.81 
  "/>
<polyline clip-path="url(#clip882)" style="stroke:#f8c931; stroke-linecap:butt; stroke-linejoin:round; stroke-width:4; stroke-opacity:1; fill:none" points="
  2371.96,1362.4 2327.68,1289.33 2291.46,1216.27 2279.39,1184.95 2261.76,1143.2 2239.72,1070.14 2226.49,997.076 2222.09,924.012 2226.49,850.948 2239.72,777.884 
  2261.76,704.82 2279.39,663.069 2291.46,631.756 2327.68,558.692 2371.96,485.628 
  "/>
<polyline clip-path="url(#clip882)" style="stroke:#f1e864; stroke-linecap:butt; stroke-linejoin:round; stroke-width:4; stroke-opacity:1; fill:none" points="
  2371.96,615.519 2363.91,631.756 2335.73,704.82 2315.61,777.884 2303.54,850.948 
  "/>
<polyline clip-path="url(#clip882)" style="stroke:#f1e864; stroke-linecap:butt; stroke-linejoin:round; stroke-width:4; stroke-opacity:1; fill:none" points="
  2303.54,997.076 2315.61,1070.14 2335.73,1143.2 2363.91,1216.27 2371.96,1232.5 
  "/>
<polyline clip-path="url(#clip882)" style="stroke:#1f0c47; stroke-linecap:butt; stroke-linejoin:round; stroke-width:4; stroke-opacity:1; fill:none" points="
  1816.56,1800.78 1723.99,1765.84 1631.42,1737.25 1591.75,1727.72 1538.86,1713.8 1446.29,1696.4 1353.72,1685.96 1261.16,1682.49 1168.59,1685.96 1076.02,1696.4 
  983.457,1713.8 930.562,1727.72 890.891,1737.25 798.324,1765.84 705.757,1800.78 
  "/>
<polyline clip-path="url(#clip882)" style="stroke:#090621; stroke-linecap:butt; stroke-linejoin:round; stroke-width:4; stroke-opacity:1; fill:none" points="
  870.32,1800.78 890.891,1794.43 983.457,1772.19 1076.02,1756.31 1168.59,1746.78 1261.16,1743.6 1353.72,1746.78 1446.29,1756.31 1538.86,1772.19 1631.42,1794.43 
  1651.99,1800.78 
  "/>
<polyline clip-path="url(#clip882)" style="stroke:#3b0964; stroke-linecap:butt; stroke-linejoin:round; stroke-width:4; stroke-opacity:1; fill:none" points="
  1939.98,1800.78 1909.12,1784.9 1816.56,1743.6 1774.48,1727.72 1723.99,1706.84 1631.42,1675.53 1552.08,1654.65 1538.86,1650.81 1446.29,1631.58 1353.72,1620.04 
  1261.16,1616.2 1168.59,1620.04 1076.02,1631.58 983.457,1650.81 970.233,1654.65 890.891,1675.53 798.324,1706.84 747.833,1727.72 705.757,1743.6 613.191,1784.9 
  582.335,1800.78 
  "/>
<polyline clip-path="url(#clip882)" style="stroke:#550f6d; stroke-linecap:butt; stroke-linejoin:round; stroke-width:4; stroke-opacity:1; fill:none" points="
  477.064,1800.78 520.624,1775.37 613.191,1727.72 613.191,1727.72 705.757,1682.49 773.079,1654.65 798.324,1643.11 890.891,1608.51 983.457,1581.59 
  1076.02,1560.1 1168.59,1547.2 1261.16,1542.91 1353.72,1547.2 1446.29,1560.1 1538.86,1581.59 1631.42,1608.51 1723.99,1643.11 1749.24,1654.65 
  1816.56,1682.49 1909.12,1727.72 2001.69,1775.37 2045.25,1800.78 
  "/>
<polyline clip-path="url(#clip882)" style="stroke:#6e186e; stroke-linecap:butt; stroke-linejoin:round; stroke-width:4; stroke-opacity:1; fill:none" points="
  2138.1,1800.78 2094.26,1772.19 2018.02,1727.72 2001.69,1717.28 1909.12,1665.09 1887.76,1654.65 1816.56,1616.2 1740.82,1581.59 1723.99,1572.99 1631.42,1534.31 
  1552.08,1508.52 1538.86,1503.65 1446.29,1479.3 1353.72,1464.69 1261.16,1459.81 1168.59,1464.69 1076.02,1479.3 983.457,1503.65 970.233,1508.52 890.891,1534.31 
  798.324,1572.99 781.494,1581.59 705.757,1616.2 634.552,1654.65 613.191,1665.09 520.624,1717.28 504.289,1727.72 428.058,1772.19 384.21,1800.78 
  "/>
<polyline clip-path="url(#clip882)" style="stroke:#88216a; stroke-linecap:butt; stroke-linejoin:round; stroke-width:4; stroke-opacity:1; fill:none" points="
  300.228,1800.78 335.491,1775.37 408.57,1727.72 428.058,1713.8 520.624,1654.65 613.191,1596.97 641.673,1581.59 705.757,1542.91 773.079,1508.52 
  798.324,1493.91 890.891,1450.07 930.562,1435.46 983.457,1412.98 1076.02,1384.88 1168.59,1368.02 1261.16,1362.4 1353.72,1368.02 1446.29,1384.88 1538.86,1412.98 
  1591.75,1435.46 1631.42,1450.07 1723.99,1493.91 1749.24,1508.52 1816.56,1542.91 1880.64,1581.59 1909.12,1596.97 2001.69,1654.65 2094.26,1713.8 
  2113.74,1727.72 2186.82,1775.37 2222.09,1800.78 
  "/>
<polyline clip-path="url(#clip882)" style="stroke:#e35832; stroke-linecap:butt; stroke-linejoin:round; stroke-width:4; stroke-opacity:1; fill:none" points="
  150.358,165.538 182.555,193.372 242.924,251.054 260.556,266.436 335.491,339.5 335.491,339.5 408.57,412.564 428.058,435.045 477.064,485.628 520.624,538.765 
  539.138,558.692 594.678,631.756 613.191,663.069 641.673,704.82 677.275,777.884 698.637,850.948 705.757,924.012 698.637,997.076 
  677.275,1070.14 641.673,1143.2 613.191,1184.95 594.678,1216.27 539.138,1289.33 520.624,1309.26 477.064,1362.4 428.058,1412.98 408.57,1435.46 335.491,1508.52 
  335.491,1508.52 260.556,1581.59 242.924,1596.97 182.555,1654.65 150.358,1682.49 
  "/>
<polyline clip-path="url(#clip882)" style="stroke:#f0701e; stroke-linecap:butt; stroke-linejoin:round; stroke-width:4; stroke-opacity:1; fill:none" points="
  150.358,1616.2 186.58,1581.59 242.924,1521.42 256.148,1508.52 322.267,1435.46 335.491,1418.6 384.21,1362.4 428.058,1302.62 438.948,1289.33 487.954,1216.27 
  520.624,1153.64 526.795,1143.2 557.651,1070.14 576.164,997.076 582.335,924.012 576.164,850.948 557.651,777.884 526.795,704.82 520.624,694.382 487.954,631.756 
  438.948,558.692 428.058,545.408 384.21,485.628 335.491,429.425 322.267,412.564 256.148,339.5 242.924,326.606 186.58,266.436 150.358,231.827 
  "/>
<polyline clip-path="url(#clip882)" style="stroke:#f98c09; stroke-linecap:butt; stroke-linejoin:round; stroke-width:4; stroke-opacity:1; fill:none" points="
  150.358,305.117 182.555,339.5 242.924,412.564 242.924,412.564 300.228,485.628 335.491,538.765 350.107,558.692 393.954,631.756 428.058,704.82 
  455.283,777.884 471.618,850.948 477.064,924.012 471.618,997.076 455.283,1070.14 428.058,1143.2 393.954,1216.27 350.107,1289.33 335.491,1309.26 
  300.228,1362.4 242.924,1435.46 242.924,1435.46 182.555,1508.52 150.358,1542.91 
  "/>
<polyline clip-path="url(#clip882)" style="stroke:#fbaa0e; stroke-linecap:butt; stroke-linejoin:round; stroke-width:4; stroke-opacity:1; fill:none" points="
  150.358,1459.81 170.481,1435.46 222.801,1362.4 242.924,1329.18 269.372,1289.33 309.043,1216.27 335.491,1153.64 340.363,1143.2 364.723,1070.14 379.338,997.076 
  384.21,924.012 379.338,850.948 364.723,777.884 340.363,704.82 335.491,694.382 309.043,631.756 269.372,558.692 242.924,518.839 222.801,485.628 170.481,412.564 
  150.358,388.209 
  "/>
<polyline clip-path="url(#clip882)" style="stroke:#f8c931; stroke-linecap:butt; stroke-linejoin:round; stroke-width:4; stroke-opacity:1; fill:none" points="
  150.358,485.628 150.358,485.628 194.629,558.692 230.851,631.756 242.924,663.069 260.556,704.82 282.596,777.884 295.82,850.948 300.228,924.012 295.82,997.076 
  282.596,1070.14 260.556,1143.2 242.924,1184.95 230.851,1216.27 194.629,1289.33 150.358,1362.4 
  "/>
<polyline clip-path="url(#clip882)" style="stroke:#f1e864; stroke-linecap:butt; stroke-linejoin:round; stroke-width:4; stroke-opacity:1; fill:none" points="
  150.358,1232.5 158.407,1216.27 186.58,1143.2 206.703,1070.14 218.777,997.076 222.801,924.012 218.777,850.948 206.703,777.884 186.58,704.82 158.407,631.756 
  150.358,615.519 
  "/>
<polyline clip-path="url(#clip882)" style="stroke:#090621; stroke-linecap:butt; stroke-linejoin:round; stroke-width:4; stroke-opacity:1; fill:none" points="
  870.32,47.2441 890.891,53.5975 983.457,75.8343 1076.02,91.7178 1168.59,101.248 1261.16,104.425 1353.72,101.248 1446.29,91.7178 1538.86,75.8343 1631.42,53.5975 
  1651.99,47.2441 
  "/>
<polyline clip-path="url(#clip882)" style="stroke:#1f0c47; stroke-linecap:butt; stroke-linejoin:round; stroke-width:4; stroke-opacity:1; fill:none" points="
  1816.56,47.2441 1723.99,82.1877 1631.42,110.778 1591.75,120.308 1538.86,134.225 1446.29,151.621 1353.72,162.059 1261.16,165.538 1168.59,162.059 1076.02,151.621 
  983.457,134.225 930.562,120.308 890.891,110.778 798.324,82.1877 705.757,47.2441 
  "/>
<polyline clip-path="url(#clip882)" style="stroke:#3b0964; stroke-linecap:butt; stroke-linejoin:round; stroke-width:4; stroke-opacity:1; fill:none" points="
  582.335,47.2441 613.191,63.1276 705.757,104.425 747.833,120.308 798.324,141.183 890.891,172.497 970.233,193.372 983.457,197.218 1076.02,216.445 1168.59,227.981 
  1261.16,231.827 1353.72,227.981 1446.29,216.445 1538.86,197.218 1552.08,193.372 1631.42,172.497 1723.99,141.183 1774.48,120.308 1816.56,104.425 1909.12,63.1276 
  1939.98,47.2441 
  "/>
<polyline clip-path="url(#clip882)" style="stroke:#550f6d; stroke-linecap:butt; stroke-linejoin:round; stroke-width:4; stroke-opacity:1; fill:none" points="
  2045.25,47.2441 2001.69,72.6576 1909.12,120.308 1816.56,165.538 1749.24,193.372 1723.99,204.908 1631.42,239.518 1538.86,266.436 
  1446.29,287.925 1353.72,300.819 1261.16,305.117 1168.59,300.819 1076.02,287.925 983.457,266.436 890.891,239.518 798.324,204.908 773.079,193.372 
  705.757,165.538 613.191,120.308 613.191,120.308 520.624,72.6576 477.064,47.2441 
  "/>
<polyline clip-path="url(#clip882)" style="stroke:#6e186e; stroke-linecap:butt; stroke-linejoin:round; stroke-width:4; stroke-opacity:1; fill:none" points="
  384.21,47.2441 428.058,75.8343 504.289,120.308 520.624,130.746 613.191,182.934 634.552,193.372 705.757,231.827 781.494,266.436 798.324,275.032 890.891,313.713 
  970.233,339.5 983.457,344.371 1076.02,368.726 1168.59,383.338 1261.16,388.209 1353.72,383.338 1446.29,368.726 1538.86,344.371 1552.08,339.5 1631.42,313.713 
  1723.99,275.032 1740.82,266.436 1816.56,231.827 1887.76,193.372 1909.12,182.934 2001.69,130.746 2018.02,120.308 2094.26,75.8343 2138.1,47.2441 
  "/>
<polyline clip-path="url(#clip882)" style="stroke:#f1e864; stroke-linecap:butt; stroke-linejoin:round; stroke-width:4; stroke-opacity:1; fill:none" points="
  2299.51,924.012 2303.54,997.076 
  "/>
<defs>
  <clipPath id="clip883">
    <rect x="2425" y="47" width="82" height="1755"/>
  </clipPath>
</defs>
<polyline clip-path="url(#clip883)" style="stroke:#0a0723; stroke-linecap:butt; stroke-linejoin:round; stroke-width:4; stroke-opacity:1; fill:none" points="
  2425.72,1691.18 2506.36,1691.18 
  "/>
<polyline clip-path="url(#clip883)" style="stroke:#200c4a; stroke-linecap:butt; stroke-linejoin:round; stroke-width:4; stroke-opacity:1; fill:none" points="
  2425.72,1581.59 2506.36,1581.59 
  "/>
<polyline clip-path="url(#clip883)" style="stroke:#3c0965; stroke-linecap:butt; stroke-linejoin:round; stroke-width:4; stroke-opacity:1; fill:none" points="
  2425.72,1471.99 2506.36,1471.99 
  "/>
<polyline clip-path="url(#clip883)" style="stroke:#570f6d; stroke-linecap:butt; stroke-linejoin:round; stroke-width:4; stroke-opacity:1; fill:none" points="
  2425.72,1362.4 2506.36,1362.4 
  "/>
<polyline clip-path="url(#clip883)" style="stroke:#70196e; stroke-linecap:butt; stroke-linejoin:round; stroke-width:4; stroke-opacity:1; fill:none" points="
  2425.72,1252.8 2506.36,1252.8 
  "/>
<polyline clip-path="url(#clip883)" style="stroke:#892269; stroke-linecap:butt; stroke-linejoin:round; stroke-width:4; stroke-opacity:1; fill:none" points="
  2425.72,1143.2 2506.36,1143.2 
  "/>
<polyline clip-path="url(#clip883)" style="stroke:#a32b61; stroke-linecap:butt; stroke-linejoin:round; stroke-width:4; stroke-opacity:1; fill:none" points="
  2425.72,1033.61 2506.36,1033.61 
  "/>
<polyline clip-path="url(#clip883)" style="stroke:#bb3754; stroke-linecap:butt; stroke-linejoin:round; stroke-width:4; stroke-opacity:1; fill:none" points="
  2425.72,924.012 2506.36,924.012 
  "/>
<polyline clip-path="url(#clip883)" style="stroke:#d04544; stroke-linecap:butt; stroke-linejoin:round; stroke-width:4; stroke-opacity:1; fill:none" points="
  2425.72,814.416 2506.36,814.416 
  "/>
<polyline clip-path="url(#clip883)" style="stroke:#e35832; stroke-linecap:butt; stroke-linejoin:round; stroke-width:4; stroke-opacity:1; fill:none" points="
  2425.72,704.82 2506.36,704.82 
  "/>
<polyline clip-path="url(#clip883)" style="stroke:#f0701e; stroke-linecap:butt; stroke-linejoin:round; stroke-width:4; stroke-opacity:1; fill:none" points="
  2425.72,595.224 2506.36,595.224 
  "/>
<polyline clip-path="url(#clip883)" style="stroke:#f98c09; stroke-linecap:butt; stroke-linejoin:round; stroke-width:4; stroke-opacity:1; fill:none" points="
  2425.72,485.628 2506.36,485.628 
  "/>
<polyline clip-path="url(#clip883)" style="stroke:#fbaa0e; stroke-linecap:butt; stroke-linejoin:round; stroke-width:4; stroke-opacity:1; fill:none" points="
  2425.72,376.032 2506.36,376.032 
  "/>
<polyline clip-path="url(#clip883)" style="stroke:#f8c931; stroke-linecap:butt; stroke-linejoin:round; stroke-width:4; stroke-opacity:1; fill:none" points="
  2425.72,266.436 2506.36,266.436 
  "/>
<polyline clip-path="url(#clip883)" style="stroke:#f1e864; stroke-linecap:butt; stroke-linejoin:round; stroke-width:4; stroke-opacity:1; fill:none" points="
  2425.72,156.84 2506.36,156.84 
  "/>
<path clip-path="url(#clip880)" d="M2546.68 1797.6 L2576.35 1797.6 L2576.35 1801.54 L2546.68 1801.54 L2546.68 1797.6 Z" fill="#000000" fill-rule="evenodd" fill-opacity="1" /><path clip-path="url(#clip880)" d="M2590.47 1810.5 L2606.79 1810.5 L2606.79 1814.43 L2584.85 1814.43 L2584.85 1810.5 Q2587.51 1807.74 2592.09 1803.11 Q2596.7 1798.46 2597.88 1797.12 Q2600.12 1794.59 2601 1792.86 Q2601.91 1791.1 2601.91 1789.41 Q2601.91 1786.65 2599.96 1784.92 Q2598.04 1783.18 2594.94 1783.18 Q2592.74 1783.18 2590.29 1783.94 Q2587.86 1784.71 2585.08 1786.26 L2585.08 1781.54 Q2587.9 1780.4 2590.36 1779.82 Q2592.81 1779.25 2594.85 1779.25 Q2600.22 1779.25 2603.41 1781.93 Q2606.61 1784.62 2606.61 1789.11 Q2606.61 1791.24 2605.8 1793.16 Q2605.01 1795.06 2602.9 1797.65 Q2602.32 1798.32 2599.22 1801.54 Q2596.12 1804.73 2590.47 1810.5 Z" fill="#000000" fill-rule="evenodd" fill-opacity="1" /><path clip-path="url(#clip880)" d="M2546.68 1578.41 L2576.35 1578.41 L2576.35 1582.35 L2546.68 1582.35 L2546.68 1578.41 Z" fill="#000000" fill-rule="evenodd" fill-opacity="1" /><path clip-path="url(#clip880)" d="M2587.25 1591.3 L2594.89 1591.3 L2594.89 1564.94 L2586.58 1566.6 L2586.58 1562.35 L2594.85 1560.68 L2599.52 1560.68 L2599.52 1591.3 L2607.16 1591.3 L2607.16 1595.24 L2587.25 1595.24 L2587.25 1591.3 Z" fill="#000000" fill-rule="evenodd" fill-opacity="1" /><path clip-path="url(#clip880)" d="M2558.62 1344.57 Q2555.01 1344.57 2553.18 1348.13 Q2551.37 1351.67 2551.37 1358.8 Q2551.37 1365.91 2553.18 1369.47 Q2555.01 1373.01 2558.62 1373.01 Q2562.25 1373.01 2564.06 1369.47 Q2565.89 1365.91 2565.89 1358.8 Q2565.89 1351.67 2564.06 1348.13 Q2562.25 1344.57 2558.62 1344.57 M2558.62 1340.86 Q2564.43 1340.86 2567.49 1345.47 Q2570.56 1350.05 2570.56 1358.8 Q2570.56 1367.53 2567.49 1372.13 Q2564.43 1376.72 2558.62 1376.72 Q2552.81 1376.72 2549.73 1372.13 Q2546.68 1367.53 2546.68 1358.8 Q2546.68 1350.05 2549.73 1345.47 Q2552.81 1340.86 2558.62 1340.86 Z" fill="#000000" fill-rule="evenodd" fill-opacity="1" /><path clip-path="url(#clip880)" d="M2547.35 1152.92 L2554.99 1152.92 L2554.99 1126.55 L2546.68 1128.22 L2546.68 1123.96 L2554.94 1122.29 L2559.62 1122.29 L2559.62 1152.92 L2567.25 1152.92 L2567.25 1156.85 L2547.35 1156.85 L2547.35 1152.92 Z" fill="#000000" fill-rule="evenodd" fill-opacity="1" /><path clip-path="url(#clip880)" d="M2552.3 933.728 L2568.62 933.728 L2568.62 937.663 L2546.68 937.663 L2546.68 933.728 Q2549.34 930.973 2553.92 926.344 Q2558.53 921.691 2559.71 920.348 Q2561.95 917.825 2562.83 916.089 Q2563.74 914.33 2563.74 912.64 Q2563.74 909.885 2561.79 908.149 Q2559.87 906.413 2556.77 906.413 Q2554.57 906.413 2552.12 907.177 Q2549.69 907.941 2546.91 909.492 L2546.91 904.77 Q2549.73 903.635 2552.19 903.057 Q2554.64 902.478 2556.68 902.478 Q2562.05 902.478 2565.24 905.163 Q2568.44 907.848 2568.44 912.339 Q2568.44 914.469 2567.62 916.39 Q2566.84 918.288 2564.73 920.881 Q2564.15 921.552 2561.05 924.769 Q2557.95 927.964 2552.3 933.728 Z" fill="#000000" fill-rule="evenodd" fill-opacity="1" /><path clip-path="url(#clip880)" d="M2562.3 699.837 Q2565.66 700.554 2567.53 702.823 Q2569.43 705.091 2569.43 708.425 Q2569.43 713.54 2565.91 716.341 Q2562.39 719.142 2555.91 719.142 Q2553.74 719.142 2551.42 718.702 Q2549.13 718.286 2546.68 717.429 L2546.68 712.915 Q2548.62 714.05 2550.94 714.628 Q2553.25 715.207 2555.77 715.207 Q2560.17 715.207 2562.46 713.471 Q2564.78 711.735 2564.78 708.425 Q2564.78 705.369 2562.62 703.656 Q2560.5 701.92 2556.68 701.92 L2552.65 701.92 L2552.65 698.078 L2556.86 698.078 Q2560.31 698.078 2562.14 696.712 Q2563.97 695.323 2563.97 692.73 Q2563.97 690.068 2562.07 688.656 Q2560.19 687.221 2556.68 687.221 Q2554.75 687.221 2552.56 687.638 Q2550.36 688.054 2547.72 688.934 L2547.72 684.767 Q2550.38 684.027 2552.69 683.656 Q2555.03 683.286 2557.09 683.286 Q2562.42 683.286 2565.52 685.717 Q2568.62 688.124 2568.62 692.244 Q2568.62 695.115 2566.98 697.105 Q2565.33 699.073 2562.3 699.837 Z" fill="#000000" fill-rule="evenodd" fill-opacity="1" /><path clip-path="url(#clip880)" d="M2562.28 468.793 L2550.47 487.242 L2562.28 487.242 L2562.28 468.793 M2561.05 464.719 L2566.93 464.719 L2566.93 487.242 L2571.86 487.242 L2571.86 491.131 L2566.93 491.131 L2566.93 499.279 L2562.28 499.279 L2562.28 491.131 L2546.68 491.131 L2546.68 486.617 L2561.05 464.719 Z" fill="#000000" fill-rule="evenodd" fill-opacity="1" /><path clip-path="url(#clip880)" d="M2548.13 245.527 L2566.49 245.527 L2566.49 249.462 L2552.42 249.462 L2552.42 257.935 Q2553.44 257.587 2554.45 257.425 Q2555.47 257.24 2556.49 257.24 Q2562.28 257.24 2565.66 260.411 Q2569.04 263.583 2569.04 268.999 Q2569.04 274.578 2565.56 277.68 Q2562.09 280.758 2555.77 280.758 Q2553.6 280.758 2551.33 280.388 Q2549.08 280.018 2546.68 279.277 L2546.68 274.578 Q2548.76 275.712 2550.98 276.268 Q2553.2 276.823 2555.68 276.823 Q2559.69 276.823 2562.02 274.717 Q2564.36 272.61 2564.36 268.999 Q2564.36 265.388 2562.02 263.282 Q2559.69 261.175 2555.68 261.175 Q2553.81 261.175 2551.93 261.592 Q2550.08 262.009 2548.13 262.888 L2548.13 245.527 Z" fill="#000000" fill-rule="evenodd" fill-opacity="1" /><path clip-path="url(#clip880)" d="M2559.01 41.7519 Q2555.87 41.7519 2554.01 43.9046 Q2552.19 46.0574 2552.19 49.8074 Q2552.19 53.5342 2554.01 55.7101 Q2555.87 57.8629 2559.01 57.8629 Q2562.16 57.8629 2563.99 55.7101 Q2565.84 53.5342 2565.84 49.8074 Q2565.84 46.0574 2563.99 43.9046 Q2562.16 41.7519 2559.01 41.7519 M2568.3 27.0992 L2568.3 31.3584 Q2566.54 30.5251 2564.73 30.0853 Q2562.95 29.6455 2561.19 29.6455 Q2556.56 29.6455 2554.11 32.7704 Q2551.68 35.8954 2551.33 42.2148 Q2552.69 40.201 2554.75 39.1362 Q2556.81 38.0482 2559.29 38.0482 Q2564.5 38.0482 2567.51 41.2195 Q2570.54 44.3676 2570.54 49.8074 Q2570.54 55.1314 2567.39 58.349 Q2564.25 61.5666 2559.01 61.5666 Q2553.02 61.5666 2549.85 56.9833 Q2546.68 52.3768 2546.68 43.65 Q2546.68 35.4556 2550.56 30.5945 Q2554.45 25.7103 2561 25.7103 Q2562.76 25.7103 2564.55 26.0575 Q2566.35 26.4047 2568.3 27.0992 Z" fill="#000000" fill-rule="evenodd" fill-opacity="1" /><polyline clip-path="url(#clip880)" style="stroke:#000000; stroke-linecap:butt; stroke-linejoin:round; stroke-width:4; stroke-opacity:1; fill:none" points="
  2506.36,1800.78 2506.36,1800.78 2533.24,1800.78 2506.36,1800.78 2506.36,1581.59 2533.24,1581.59 2506.36,1581.59 2506.36,1362.4 2533.24,1362.4 2506.36,1362.4 
  2506.36,1143.2 2533.24,1143.2 2506.36,1143.2 2506.36,924.012 2533.24,924.012 2506.36,924.012 2506.36,704.82 2533.24,704.82 2506.36,704.82 2506.36,485.628 
  2533.24,485.628 2506.36,485.628 2506.36,266.436 2533.24,266.436 2506.36,266.436 2506.36,47.2441 2533.24,47.2441 2506.36,47.2441 
  "/>
</svg>
