<?xml version="1.0" encoding="utf-8"?>
<svg xmlns="http://www.w3.org/2000/svg" xmlns:xlink="http://www.w3.org/1999/xlink" width="672" height="480" viewBox="0 0 2688 1920">
<defs>
  <clipPath id="clip530">
    <rect x="0" y="0" width="2688" height="1920"/>
  </clipPath>
</defs>
<path clip-path="url(#clip530)" d="
M0 1920 L2688 1920 L2688 0 L0 0  Z
  " fill="#ffffff" fill-rule="evenodd" fill-opacity="1"/>
<defs>
  <clipPath id="clip531">
    <rect x="537" y="0" width="1883" height="1883"/>
  </clipPath>
</defs>
<path clip-path="url(#clip530)" d="
M150.358 1800.78 L2640.76 1800.78 L2640.76 47.2441 L150.358 47.2441  Z
  " fill="#ffffff" fill-rule="evenodd" fill-opacity="1"/>
<defs>
  <clipPath id="clip532">
    <rect x="150" y="47" width="2491" height="1755"/>
  </clipPath>
</defs>
<polyline clip-path="url(#clip532)" style="stroke:#000000; stroke-linecap:butt; stroke-linejoin:round; stroke-width:2; stroke-opacity:0.1; fill:none" points="
  579.388,1800.78 579.388,47.2441 
  "/>
<polyline clip-path="url(#clip532)" style="stroke:#000000; stroke-linecap:butt; stroke-linejoin:round; stroke-width:2; stroke-opacity:0.1; fill:none" points="
  1114.82,1800.78 1114.82,47.2441 
  "/>
<polyline clip-path="url(#clip532)" style="stroke:#000000; stroke-linecap:butt; stroke-linejoin:round; stroke-width:2; stroke-opacity:0.1; fill:none" points="
  1650.25,1800.78 1650.25,47.2441 
  "/>
<polyline clip-path="url(#clip532)" style="stroke:#000000; stroke-linecap:butt; stroke-linejoin:round; stroke-width:2; stroke-opacity:0.1; fill:none" points="
  2185.68,1800.78 2185.68,47.2441 
  "/>
<polyline clip-path="url(#clip530)" style="stroke:#000000; stroke-linecap:butt; stroke-linejoin:round; stroke-width:4; stroke-opacity:1; fill:none" points="
  150.358,1800.78 2640.76,1800.78 
  "/>
<polyline clip-path="url(#clip530)" style="stroke:#000000; stroke-linecap:butt; stroke-linejoin:round; stroke-width:4; stroke-opacity:1; fill:none" points="
  579.388,1800.78 579.388,1781.88 
  "/>
<polyline clip-path="url(#clip530)" style="stroke:#000000; stroke-linecap:butt; stroke-linejoin:round; stroke-width:4; stroke-opacity:1; fill:none" points="
  1114.82,1800.78 1114.82,1781.88 
  "/>
<polyline clip-path="url(#clip530)" style="stroke:#000000; stroke-linecap:butt; stroke-linejoin:round; stroke-width:4; stroke-opacity:1; fill:none" points="
  1650.25,1800.78 1650.25,1781.88 
  "/>
<polyline clip-path="url(#clip530)" style="stroke:#000000; stroke-linecap:butt; stroke-linejoin:round; stroke-width:4; stroke-opacity:1; fill:none" points="
  2185.68,1800.78 2185.68,1781.88 
  "/>
<path clip-path="url(#clip530)" d="M549.145 1848.65 L578.821 1848.65 L578.821 1852.59 L549.145 1852.59 L549.145 1848.65 Z" fill="#000000" fill-rule="evenodd" fill-opacity="1" /><path clip-path="url(#clip530)" d="M589.724 1861.55 L597.363 1861.55 L597.363 1835.18 L589.052 1836.85 L589.052 1832.59 L597.316 1830.92 L601.992 1830.92 L601.992 1861.55 L609.631 1861.55 L609.631 1865.48 L589.724 1865.48 L589.724 1861.55 Z" fill="#000000" fill-rule="evenodd" fill-opacity="1" /><path clip-path="url(#clip530)" d="M1114.82 1834 Q1111.21 1834 1109.38 1837.57 Q1107.57 1841.11 1107.57 1848.24 Q1107.57 1855.34 1109.38 1858.91 Q1111.21 1862.45 1114.82 1862.45 Q1118.45 1862.45 1120.26 1858.91 Q1122.09 1855.34 1122.09 1848.24 Q1122.09 1841.11 1120.26 1837.57 Q1118.45 1834 1114.82 1834 M1114.82 1830.3 Q1120.63 1830.3 1123.69 1834.9 Q1126.76 1839.49 1126.76 1848.24 Q1126.76 1856.96 1123.69 1861.57 Q1120.63 1866.15 1114.82 1866.15 Q1109.01 1866.15 1105.93 1861.57 Q1102.88 1856.96 1102.88 1848.24 Q1102.88 1839.49 1105.93 1834.9 Q1109.01 1830.3 1114.82 1830.3 Z" fill="#000000" fill-rule="evenodd" fill-opacity="1" /><path clip-path="url(#clip530)" d="M1640.63 1861.55 L1648.27 1861.55 L1648.27 1835.18 L1639.96 1836.85 L1639.96 1832.59 L1648.23 1830.92 L1652.9 1830.92 L1652.9 1861.55 L1660.54 1861.55 L1660.54 1865.48 L1640.63 1865.48 L1640.63 1861.55 Z" fill="#000000" fill-rule="evenodd" fill-opacity="1" /><path clip-path="url(#clip530)" d="M2180.34 1861.55 L2196.65 1861.55 L2196.65 1865.48 L2174.71 1865.48 L2174.71 1861.55 Q2177.37 1858.79 2181.96 1854.16 Q2186.56 1849.51 2187.74 1848.17 Q2189.99 1845.65 2190.87 1843.91 Q2191.77 1842.15 2191.77 1840.46 Q2191.77 1837.71 2189.83 1835.97 Q2187.9 1834.23 2184.8 1834.23 Q2182.6 1834.23 2180.15 1835 Q2177.72 1835.76 2174.94 1837.31 L2174.94 1832.59 Q2177.77 1831.46 2180.22 1830.88 Q2182.67 1830.3 2184.71 1830.3 Q2190.08 1830.3 2193.27 1832.98 Q2196.47 1835.67 2196.47 1840.16 Q2196.47 1842.29 2195.66 1844.21 Q2194.87 1846.11 2192.77 1848.7 Q2192.19 1849.37 2189.09 1852.59 Q2185.98 1855.78 2180.34 1861.55 Z" fill="#000000" fill-rule="evenodd" fill-opacity="1" /><polyline clip-path="url(#clip532)" style="stroke:#000000; stroke-linecap:butt; stroke-linejoin:round; stroke-width:2; stroke-opacity:0.1; fill:none" points="
  150.358,1682.08 2640.76,1682.08 
  "/>
<polyline clip-path="url(#clip532)" style="stroke:#000000; stroke-linecap:butt; stroke-linejoin:round; stroke-width:2; stroke-opacity:0.1; fill:none" points="
  150.358,1201.75 2640.76,1201.75 
  "/>
<polyline clip-path="url(#clip532)" style="stroke:#000000; stroke-linecap:butt; stroke-linejoin:round; stroke-width:2; stroke-opacity:0.1; fill:none" points="
  150.358,721.422 2640.76,721.422 
  "/>
<polyline clip-path="url(#clip532)" style="stroke:#000000; stroke-linecap:butt; stroke-linejoin:round; stroke-width:2; stroke-opacity:0.1; fill:none" points="
  150.358,241.095 2640.76,241.095 
  "/>
<polyline clip-path="url(#clip530)" style="stroke:#000000; stroke-linecap:butt; stroke-linejoin:round; stroke-width:4; stroke-opacity:1; fill:none" points="
  150.358,1800.78 150.358,47.2441 
  "/>
<polyline clip-path="url(#clip530)" style="stroke:#000000; stroke-linecap:butt; stroke-linejoin:round; stroke-width:4; stroke-opacity:1; fill:none" points="
  150.358,1682.08 169.256,1682.08 
  "/>
<polyline clip-path="url(#clip530)" style="stroke:#000000; stroke-linecap:butt; stroke-linejoin:round; stroke-width:4; stroke-opacity:1; fill:none" points="
  150.358,1201.75 169.256,1201.75 
  "/>
<polyline clip-path="url(#clip530)" style="stroke:#000000; stroke-linecap:butt; stroke-linejoin:round; stroke-width:4; stroke-opacity:1; fill:none" points="
  150.358,721.422 169.256,721.422 
  "/>
<polyline clip-path="url(#clip530)" style="stroke:#000000; stroke-linecap:butt; stroke-linejoin:round; stroke-width:4; stroke-opacity:1; fill:none" points="
  150.358,241.095 169.256,241.095 
  "/>
<path clip-path="url(#clip530)" d="M49.9225 1682.53 L79.5983 1682.53 L79.5983 1686.46 L49.9225 1686.46 L49.9225 1682.53 Z" fill="#000000" fill-rule="evenodd" fill-opacity="1" /><path clip-path="url(#clip530)" d="M93.7186 1695.42 L110.038 1695.42 L110.038 1699.36 L88.0936 1699.36 L88.0936 1695.42 Q90.7556 1692.67 95.3389 1688.04 Q99.9454 1683.38 101.126 1682.04 Q103.371 1679.52 104.251 1677.78 Q105.154 1676.02 105.154 1674.33 Q105.154 1671.58 103.209 1669.84 Q101.288 1668.11 98.1861 1668.11 Q95.9871 1668.11 93.5334 1668.87 Q91.1028 1669.63 88.3251 1671.19 L88.3251 1666.46 Q91.1491 1665.33 93.6028 1664.75 Q96.0565 1664.17 98.0935 1664.17 Q103.464 1664.17 106.658 1666.86 Q109.853 1669.54 109.853 1674.03 Q109.853 1676.16 109.043 1678.08 Q108.256 1679.98 106.149 1682.57 Q105.57 1683.25 102.469 1686.46 Q99.3667 1689.66 93.7186 1695.42 Z" fill="#000000" fill-rule="evenodd" fill-opacity="1" /><path clip-path="url(#clip530)" d="M49.5521 1202.2 L79.2279 1202.2 L79.2279 1206.14 L49.5521 1206.14 L49.5521 1202.2 Z" fill="#000000" fill-rule="evenodd" fill-opacity="1" /><path clip-path="url(#clip530)" d="M90.1306 1215.09 L97.7695 1215.09 L97.7695 1188.73 L89.4593 1190.4 L89.4593 1186.14 L97.7232 1184.47 L102.399 1184.47 L102.399 1215.09 L110.038 1215.09 L110.038 1219.03 L90.1306 1219.03 L90.1306 1215.09 Z" fill="#000000" fill-rule="evenodd" fill-opacity="1" /><path clip-path="url(#clip530)" d="M98.0935 707.221 Q94.4824 707.221 92.6537 710.786 Q90.8482 714.327 90.8482 721.457 Q90.8482 728.563 92.6537 732.128 Q94.4824 735.67 98.0935 735.67 Q101.728 735.67 103.533 732.128 Q105.362 728.563 105.362 721.457 Q105.362 714.327 103.533 710.786 Q101.728 707.221 98.0935 707.221 M98.0935 703.517 Q103.904 703.517 106.959 708.123 Q110.038 712.707 110.038 721.457 Q110.038 730.184 106.959 734.79 Q103.904 739.373 98.0935 739.373 Q92.2834 739.373 89.2047 734.79 Q86.1492 730.184 86.1492 721.457 Q86.1492 712.707 89.2047 708.123 Q92.2834 703.517 98.0935 703.517 Z" fill="#000000" fill-rule="evenodd" fill-opacity="1" /><path clip-path="url(#clip530)" d="M90.1306 254.44 L97.7695 254.44 L97.7695 228.074 L89.4593 229.741 L89.4593 225.481 L97.7232 223.815 L102.399 223.815 L102.399 254.44 L110.038 254.44 L110.038 258.375 L90.1306 258.375 L90.1306 254.44 Z" fill="#000000" fill-rule="evenodd" fill-opacity="1" /><polyline clip-path="url(#clip532)" style="stroke:#009af9; stroke-linecap:butt; stroke-linejoin:round; stroke-width:4; stroke-opacity:1; fill:none" points="
  1650.25,721.422 1651.1,716.502 1651.88,711.566 1652.62,706.616 1653.3,701.65 1656.91,655.138 1655.59,607.821 1649.2,560.114 1637.64,512.45 1628.19,484.012 
  1616.85,455.847 1603.63,428.055 1588.53,400.736 1558.78,355.895 1523.85,313.173 1480.22,269.72 1430.98,229.926 1380.92,196.977 1326.74,168.056 1296.13,154.353 
  1264.52,141.983 1231.97,131.002 1198.56,121.462 1158.88,112.279 1118.28,105.172 1076.88,100.205 1034.83,97.4402 997.022,96.8724 958.915,98.1166 920.613,101.2 
  882.224,106.144 848.576,112.026 815.023,119.361 781.64,128.154 748.504,138.408 712.752,151.25 677.488,165.821 642.816,182.11 608.836,200.101 575.456,219.897 
  542.983,241.37 511.521,264.49 481.169,289.221 449.026,318.391 418.496,349.42 389.709,382.239 362.793,416.772 339.031,451.146 317.176,486.92 297.325,524.011 
  279.572,562.331 263.434,603.379 249.756,645.544 238.625,688.712 230.124,732.759 225.06,770.427 221.954,808.551 220.841,847.052 221.754,885.846 225.656,933.484 
  232.663,981.278 242.808,1029.07 256.115,1076.69 271.092,1120.02 288.734,1162.95 309.038,1205.34 331.989,1247.06 355.52,1284.89 381.27,1321.93 409.21,1358.08 
  439.305,1393.25 471.949,1427.75 506.716,1461.04 543.555,1493 582.404,1523.54 628.252,1555.94 676.443,1586.29 726.866,1614.46 779.403,1640.32 828.729,1661.65 
  879.583,1680.9 931.861,1697.98 985.449,1712.82 1048.26,1726.95 1112.45,1737.93 1177.84,1745.68 1244.2,1750.09 1306.36,1751.15 1369.01,1749.24 1432,1744.31 
  1495.13,1736.33 1557.34,1725.44 1619.35,1711.54 1680.98,1694.62 1742.04,1674.66 1800.61,1652.4 1858.32,1627.3 1914.99,1599.38 1970.45,1568.67 2025.88,1534.33 
  2079.69,1497.16 2131.71,1457.19 2181.75,1414.5 2234.1,1364.69 2283.66,1311.81 2330.2,1255.98 2373.51,1197.34 2402.83,1153.06 2430.26,1107.44 2455.74,1060.52 
  2479.18,1012.39 2500.52,963.1 2519.7,912.733 2536.65,861.361 2551.31,809.06 2556.65,787.35 2561.6,765.504 2566.14,743.526 2570.27,721.422 
  "/>
<path clip-path="url(#clip530)" d="
M2228.6 209.375 L2557.74 209.375 L2557.74 105.695 L2228.6 105.695  Z
  " fill="#ffffff" fill-rule="evenodd" fill-opacity="1"/>
<polyline clip-path="url(#clip530)" style="stroke:#000000; stroke-linecap:butt; stroke-linejoin:round; stroke-width:4; stroke-opacity:1; fill:none" points="
  2228.6,209.375 2557.74,209.375 2557.74,105.695 2228.6,105.695 2228.6,209.375 
  "/>
<polyline clip-path="url(#clip530)" style="stroke:#009af9; stroke-linecap:butt; stroke-linejoin:round; stroke-width:4; stroke-opacity:1; fill:none" points="
  2256.27,157.535 2422.3,157.535 
  "/>
<path clip-path="url(#clip530)" d="M2463.81 177.223 Q2462.01 181.852 2460.29 183.264 Q2458.58 184.676 2455.71 184.676 L2452.31 184.676 L2452.31 181.112 L2454.81 181.112 Q2456.57 181.112 2457.54 180.278 Q2458.51 179.445 2459.69 176.343 L2460.46 174.399 L2449.97 148.889 L2454.48 148.889 L2462.59 169.167 L2470.69 148.889 L2475.2 148.889 L2463.81 177.223 Z" fill="#000000" fill-rule="evenodd" fill-opacity="1" /><path clip-path="url(#clip530)" d="M2482.49 170.88 L2490.13 170.88 L2490.13 144.515 L2481.82 146.181 L2481.82 141.922 L2490.09 140.255 L2494.76 140.255 L2494.76 170.88 L2502.4 170.88 L2502.4 174.815 L2482.49 174.815 L2482.49 170.88 Z" fill="#000000" fill-rule="evenodd" fill-opacity="1" /></svg>
