<?xml version="1.0" encoding="utf-8"?>
<svg xmlns="http://www.w3.org/2000/svg" xmlns:xlink="http://www.w3.org/1999/xlink" width="672" height="480" viewBox="0 0 2688 1920">
<defs>
  <clipPath id="clip640">
    <rect x="0" y="0" width="2688" height="1920"/>
  </clipPath>
</defs>
<path clip-path="url(#clip640)" d="
M0 1920 L2688 1920 L2688 0 L0 0  Z
  " fill="#ffffff" fill-rule="evenodd" fill-opacity="1"/>
<defs>
  <clipPath id="clip641">
    <rect x="537" y="0" width="1883" height="1883"/>
  </clipPath>
</defs>
<path clip-path="url(#clip640)" d="
M197.302 1800.78 L2640.76 1800.78 L2640.76 47.2441 L197.302 47.2441  Z
  " fill="#ffffff" fill-rule="evenodd" fill-opacity="1"/>
<defs>
  <clipPath id="clip642">
    <rect x="197" y="47" width="2444" height="1755"/>
  </clipPath>
</defs>
<polyline clip-path="url(#clip642)" style="stroke:#000000; stroke-linecap:butt; stroke-linejoin:round; stroke-width:2; stroke-opacity:0.1; fill:none" points="
  266.456,1800.78 266.456,47.2441 
  "/>
<polyline clip-path="url(#clip642)" style="stroke:#000000; stroke-linecap:butt; stroke-linejoin:round; stroke-width:2; stroke-opacity:0.1; fill:none" points="
  842.743,1800.78 842.743,47.2441 
  "/>
<polyline clip-path="url(#clip642)" style="stroke:#000000; stroke-linecap:butt; stroke-linejoin:round; stroke-width:2; stroke-opacity:0.1; fill:none" points="
  1419.03,1800.78 1419.03,47.2441 
  "/>
<polyline clip-path="url(#clip642)" style="stroke:#000000; stroke-linecap:butt; stroke-linejoin:round; stroke-width:2; stroke-opacity:0.1; fill:none" points="
  1995.32,1800.78 1995.32,47.2441 
  "/>
<polyline clip-path="url(#clip642)" style="stroke:#000000; stroke-linecap:butt; stroke-linejoin:round; stroke-width:2; stroke-opacity:0.1; fill:none" points="
  2571.6,1800.78 2571.6,47.2441 
  "/>
<polyline clip-path="url(#clip640)" style="stroke:#000000; stroke-linecap:butt; stroke-linejoin:round; stroke-width:4; stroke-opacity:1; fill:none" points="
  197.302,1800.78 2640.76,1800.78 
  "/>
<polyline clip-path="url(#clip640)" style="stroke:#000000; stroke-linecap:butt; stroke-linejoin:round; stroke-width:4; stroke-opacity:1; fill:none" points="
  266.456,1800.78 266.456,1781.88 
  "/>
<polyline clip-path="url(#clip640)" style="stroke:#000000; stroke-linecap:butt; stroke-linejoin:round; stroke-width:4; stroke-opacity:1; fill:none" points="
  842.743,1800.78 842.743,1781.88 
  "/>
<polyline clip-path="url(#clip640)" style="stroke:#000000; stroke-linecap:butt; stroke-linejoin:round; stroke-width:4; stroke-opacity:1; fill:none" points="
  1419.03,1800.78 1419.03,1781.88 
  "/>
<polyline clip-path="url(#clip640)" style="stroke:#000000; stroke-linecap:butt; stroke-linejoin:round; stroke-width:4; stroke-opacity:1; fill:none" points="
  1995.32,1800.78 1995.32,1781.88 
  "/>
<polyline clip-path="url(#clip640)" style="stroke:#000000; stroke-linecap:butt; stroke-linejoin:round; stroke-width:4; stroke-opacity:1; fill:none" points="
  2571.6,1800.78 2571.6,1781.88 
  "/>
<path clip-path="url(#clip640)" d="M233.609 1861.55 L241.248 1861.55 L241.248 1835.18 L232.938 1836.85 L232.938 1832.59 L241.202 1830.92 L245.878 1830.92 L245.878 1861.55 L253.517 1861.55 L253.517 1865.48 L233.609 1865.48 L233.609 1861.55 Z" fill="#000000" fill-rule="evenodd" fill-opacity="1" /><path clip-path="url(#clip640)" d="M262.961 1859.6 L267.845 1859.6 L267.845 1865.48 L262.961 1865.48 L262.961 1859.6 Z" fill="#000000" fill-rule="evenodd" fill-opacity="1" /><path clip-path="url(#clip640)" d="M288.03 1834 Q284.419 1834 282.591 1837.57 Q280.785 1841.11 280.785 1848.24 Q280.785 1855.34 282.591 1858.91 Q284.419 1862.45 288.03 1862.45 Q291.665 1862.45 293.47 1858.91 Q295.299 1855.34 295.299 1848.24 Q295.299 1841.11 293.47 1837.57 Q291.665 1834 288.03 1834 M288.03 1830.3 Q293.841 1830.3 296.896 1834.9 Q299.975 1839.49 299.975 1848.24 Q299.975 1856.96 296.896 1861.57 Q293.841 1866.15 288.03 1866.15 Q282.22 1866.15 279.142 1861.57 Q276.086 1856.96 276.086 1848.24 Q276.086 1839.49 279.142 1834.9 Q282.22 1830.3 288.03 1830.3 Z" fill="#000000" fill-rule="evenodd" fill-opacity="1" /><path clip-path="url(#clip640)" d="M810.393 1861.55 L818.032 1861.55 L818.032 1835.18 L809.722 1836.85 L809.722 1832.59 L817.986 1830.92 L822.662 1830.92 L822.662 1861.55 L830.301 1861.55 L830.301 1865.48 L810.393 1865.48 L810.393 1861.55 Z" fill="#000000" fill-rule="evenodd" fill-opacity="1" /><path clip-path="url(#clip640)" d="M839.745 1859.6 L844.629 1859.6 L844.629 1865.48 L839.745 1865.48 L839.745 1859.6 Z" fill="#000000" fill-rule="evenodd" fill-opacity="1" /><path clip-path="url(#clip640)" d="M854.861 1830.92 L873.217 1830.92 L873.217 1834.86 L859.143 1834.86 L859.143 1843.33 Q860.162 1842.98 861.18 1842.82 Q862.199 1842.64 863.217 1842.64 Q869.004 1842.64 872.384 1845.81 Q875.763 1848.98 875.763 1854.4 Q875.763 1859.97 872.291 1863.08 Q868.819 1866.15 862.5 1866.15 Q860.324 1866.15 858.055 1865.78 Q855.81 1865.41 853.402 1864.67 L853.402 1859.97 Q855.486 1861.11 857.708 1861.66 Q859.93 1862.22 862.407 1862.22 Q866.412 1862.22 868.75 1860.11 Q871.087 1858.01 871.087 1854.4 Q871.087 1850.78 868.75 1848.68 Q866.412 1846.57 862.407 1846.57 Q860.532 1846.57 858.657 1846.99 Q856.805 1847.4 854.861 1848.28 L854.861 1830.92 Z" fill="#000000" fill-rule="evenodd" fill-opacity="1" /><path clip-path="url(#clip640)" d="M1390.27 1861.55 L1406.59 1861.55 L1406.59 1865.48 L1384.64 1865.48 L1384.64 1861.55 Q1387.3 1858.79 1391.89 1854.16 Q1396.49 1849.51 1397.67 1848.17 Q1399.92 1845.65 1400.8 1843.91 Q1401.7 1842.15 1401.7 1840.46 Q1401.7 1837.71 1399.76 1835.97 Q1397.84 1834.23 1394.74 1834.23 Q1392.54 1834.23 1390.08 1835 Q1387.65 1835.76 1384.87 1837.31 L1384.87 1832.59 Q1387.7 1831.46 1390.15 1830.88 Q1392.61 1830.3 1394.64 1830.3 Q1400.01 1830.3 1403.21 1832.98 Q1406.4 1835.67 1406.4 1840.16 Q1406.4 1842.29 1405.59 1844.21 Q1404.8 1846.11 1402.7 1848.7 Q1402.12 1849.37 1399.02 1852.59 Q1395.92 1855.78 1390.27 1861.55 Z" fill="#000000" fill-rule="evenodd" fill-opacity="1" /><path clip-path="url(#clip640)" d="M1416.4 1859.6 L1421.29 1859.6 L1421.29 1865.48 L1416.4 1865.48 L1416.4 1859.6 Z" fill="#000000" fill-rule="evenodd" fill-opacity="1" /><path clip-path="url(#clip640)" d="M1441.47 1834 Q1437.86 1834 1436.03 1837.57 Q1434.23 1841.11 1434.23 1848.24 Q1434.23 1855.34 1436.03 1858.91 Q1437.86 1862.45 1441.47 1862.45 Q1445.11 1862.45 1446.91 1858.91 Q1448.74 1855.34 1448.74 1848.24 Q1448.74 1841.11 1446.91 1837.57 Q1445.11 1834 1441.47 1834 M1441.47 1830.3 Q1447.28 1830.3 1450.34 1834.9 Q1453.42 1839.49 1453.42 1848.24 Q1453.42 1856.96 1450.34 1861.57 Q1447.28 1866.15 1441.47 1866.15 Q1435.66 1866.15 1432.58 1861.57 Q1429.53 1856.96 1429.53 1848.24 Q1429.53 1839.49 1432.58 1834.9 Q1435.66 1830.3 1441.47 1830.3 Z" fill="#000000" fill-rule="evenodd" fill-opacity="1" /><path clip-path="url(#clip640)" d="M1967.05 1861.55 L1983.37 1861.55 L1983.37 1865.48 L1961.43 1865.48 L1961.43 1861.55 Q1964.09 1858.79 1968.67 1854.16 Q1973.28 1849.51 1974.46 1848.17 Q1976.7 1845.65 1977.58 1843.91 Q1978.49 1842.15 1978.49 1840.46 Q1978.49 1837.71 1976.54 1835.97 Q1974.62 1834.23 1971.52 1834.23 Q1969.32 1834.23 1966.87 1835 Q1964.44 1835.76 1961.66 1837.31 L1961.66 1832.59 Q1964.48 1831.46 1966.94 1830.88 Q1969.39 1830.3 1971.43 1830.3 Q1976.8 1830.3 1979.99 1832.98 Q1983.19 1835.67 1983.19 1840.16 Q1983.19 1842.29 1982.38 1844.21 Q1981.59 1846.11 1979.48 1848.7 Q1978.9 1849.37 1975.8 1852.59 Q1972.7 1855.78 1967.05 1861.55 Z" fill="#000000" fill-rule="evenodd" fill-opacity="1" /><path clip-path="url(#clip640)" d="M1993.19 1859.6 L1998.07 1859.6 L1998.07 1865.48 L1993.19 1865.48 L1993.19 1859.6 Z" fill="#000000" fill-rule="evenodd" fill-opacity="1" /><path clip-path="url(#clip640)" d="M2008.3 1830.92 L2026.66 1830.92 L2026.66 1834.86 L2012.58 1834.86 L2012.58 1843.33 Q2013.6 1842.98 2014.62 1842.82 Q2015.64 1842.64 2016.66 1842.64 Q2022.44 1842.64 2025.82 1845.81 Q2029.2 1848.98 2029.2 1854.4 Q2029.2 1859.97 2025.73 1863.08 Q2022.26 1866.15 2015.94 1866.15 Q2013.76 1866.15 2011.5 1865.78 Q2009.25 1865.41 2006.84 1864.67 L2006.84 1859.97 Q2008.93 1861.11 2011.15 1861.66 Q2013.37 1862.22 2015.85 1862.22 Q2019.85 1862.22 2022.19 1860.11 Q2024.53 1858.01 2024.53 1854.4 Q2024.53 1850.78 2022.19 1848.68 Q2019.85 1846.57 2015.85 1846.57 Q2013.97 1846.57 2012.1 1846.99 Q2010.25 1847.4 2008.3 1848.28 L2008.3 1830.92 Z" fill="#000000" fill-rule="evenodd" fill-opacity="1" /><path clip-path="url(#clip640)" d="M2552.91 1846.85 Q2556.27 1847.57 2558.14 1849.84 Q2560.04 1852.1 2560.04 1855.44 Q2560.04 1860.55 2556.52 1863.35 Q2553 1866.15 2546.52 1866.15 Q2544.34 1866.15 2542.03 1865.71 Q2539.74 1865.3 2537.28 1864.44 L2537.28 1859.93 Q2539.23 1861.06 2541.54 1861.64 Q2543.86 1862.22 2546.38 1862.22 Q2550.78 1862.22 2553.07 1860.48 Q2555.39 1858.75 2555.39 1855.44 Q2555.39 1852.38 2553.23 1850.67 Q2551.1 1848.93 2547.28 1848.93 L2543.26 1848.93 L2543.26 1845.09 L2547.47 1845.09 Q2550.92 1845.09 2552.75 1843.72 Q2554.58 1842.34 2554.58 1839.74 Q2554.58 1837.08 2552.68 1835.67 Q2550.8 1834.23 2547.28 1834.23 Q2545.36 1834.23 2543.16 1834.65 Q2540.97 1835.07 2538.33 1835.95 L2538.33 1831.78 Q2540.99 1831.04 2543.3 1830.67 Q2545.64 1830.3 2547.7 1830.3 Q2553.03 1830.3 2556.13 1832.73 Q2559.23 1835.14 2559.23 1839.26 Q2559.23 1842.13 2557.59 1844.12 Q2555.94 1846.09 2552.91 1846.85 Z" fill="#000000" fill-rule="evenodd" fill-opacity="1" /><path clip-path="url(#clip640)" d="M2568.9 1859.6 L2573.79 1859.6 L2573.79 1865.48 L2568.9 1865.48 L2568.9 1859.6 Z" fill="#000000" fill-rule="evenodd" fill-opacity="1" /><path clip-path="url(#clip640)" d="M2593.97 1834 Q2590.36 1834 2588.53 1837.57 Q2586.73 1841.11 2586.73 1848.24 Q2586.73 1855.34 2588.53 1858.91 Q2590.36 1862.45 2593.97 1862.45 Q2597.61 1862.45 2599.41 1858.91 Q2601.24 1855.34 2601.24 1848.24 Q2601.24 1841.11 2599.41 1837.57 Q2597.61 1834 2593.97 1834 M2593.97 1830.3 Q2599.78 1830.3 2602.84 1834.9 Q2605.92 1839.49 2605.92 1848.24 Q2605.92 1856.96 2602.84 1861.57 Q2599.78 1866.15 2593.97 1866.15 Q2588.16 1866.15 2585.09 1861.57 Q2582.03 1856.96 2582.03 1848.24 Q2582.03 1839.49 2585.09 1834.9 Q2588.16 1830.3 2593.97 1830.3 Z" fill="#000000" fill-rule="evenodd" fill-opacity="1" /><polyline clip-path="url(#clip642)" style="stroke:#000000; stroke-linecap:butt; stroke-linejoin:round; stroke-width:2; stroke-opacity:0.1; fill:none" points="
  197.302,1751.15 2640.76,1751.15 
  "/>
<polyline clip-path="url(#clip642)" style="stroke:#000000; stroke-linecap:butt; stroke-linejoin:round; stroke-width:2; stroke-opacity:0.1; fill:none" points="
  197.302,1420.3 2640.76,1420.3 
  "/>
<polyline clip-path="url(#clip642)" style="stroke:#000000; stroke-linecap:butt; stroke-linejoin:round; stroke-width:2; stroke-opacity:0.1; fill:none" points="
  197.302,1089.44 2640.76,1089.44 
  "/>
<polyline clip-path="url(#clip642)" style="stroke:#000000; stroke-linecap:butt; stroke-linejoin:round; stroke-width:2; stroke-opacity:0.1; fill:none" points="
  197.302,758.584 2640.76,758.584 
  "/>
<polyline clip-path="url(#clip642)" style="stroke:#000000; stroke-linecap:butt; stroke-linejoin:round; stroke-width:2; stroke-opacity:0.1; fill:none" points="
  197.302,427.728 2640.76,427.728 
  "/>
<polyline clip-path="url(#clip642)" style="stroke:#000000; stroke-linecap:butt; stroke-linejoin:round; stroke-width:2; stroke-opacity:0.1; fill:none" points="
  197.302,96.8724 2640.76,96.8724 
  "/>
<polyline clip-path="url(#clip640)" style="stroke:#000000; stroke-linecap:butt; stroke-linejoin:round; stroke-width:4; stroke-opacity:1; fill:none" points="
  197.302,1800.78 197.302,47.2441 
  "/>
<polyline clip-path="url(#clip640)" style="stroke:#000000; stroke-linecap:butt; stroke-linejoin:round; stroke-width:4; stroke-opacity:1; fill:none" points="
  197.302,1751.15 216.2,1751.15 
  "/>
<polyline clip-path="url(#clip640)" style="stroke:#000000; stroke-linecap:butt; stroke-linejoin:round; stroke-width:4; stroke-opacity:1; fill:none" points="
  197.302,1420.3 216.2,1420.3 
  "/>
<polyline clip-path="url(#clip640)" style="stroke:#000000; stroke-linecap:butt; stroke-linejoin:round; stroke-width:4; stroke-opacity:1; fill:none" points="
  197.302,1089.44 216.2,1089.44 
  "/>
<polyline clip-path="url(#clip640)" style="stroke:#000000; stroke-linecap:butt; stroke-linejoin:round; stroke-width:4; stroke-opacity:1; fill:none" points="
  197.302,758.584 216.2,758.584 
  "/>
<polyline clip-path="url(#clip640)" style="stroke:#000000; stroke-linecap:butt; stroke-linejoin:round; stroke-width:4; stroke-opacity:1; fill:none" points="
  197.302,427.728 216.2,427.728 
  "/>
<polyline clip-path="url(#clip640)" style="stroke:#000000; stroke-linecap:butt; stroke-linejoin:round; stroke-width:4; stroke-opacity:1; fill:none" points="
  197.302,96.8724 216.2,96.8724 
  "/>
<path clip-path="url(#clip640)" d="M51.0336 1751.6 L80.7094 1751.6 L80.7094 1755.54 L51.0336 1755.54 L51.0336 1751.6 Z" fill="#000000" fill-rule="evenodd" fill-opacity="1" /><path clip-path="url(#clip640)" d="M100.802 1736.95 Q97.1908 1736.95 95.3621 1740.51 Q93.5565 1744.06 93.5565 1751.19 Q93.5565 1758.29 95.3621 1761.86 Q97.1908 1765.4 100.802 1765.4 Q104.436 1765.4 106.242 1761.86 Q108.07 1758.29 108.07 1751.19 Q108.07 1744.06 106.242 1740.51 Q104.436 1736.95 100.802 1736.95 M100.802 1733.25 Q106.612 1733.25 109.668 1737.85 Q112.746 1742.44 112.746 1751.19 Q112.746 1759.91 109.668 1764.52 Q106.612 1769.1 100.802 1769.1 Q94.9917 1769.1 91.913 1764.52 Q88.8575 1759.91 88.8575 1751.19 Q88.8575 1742.44 91.913 1737.85 Q94.9917 1733.25 100.802 1733.25 Z" fill="#000000" fill-rule="evenodd" fill-opacity="1" /><path clip-path="url(#clip640)" d="M120.964 1762.55 L125.848 1762.55 L125.848 1768.43 L120.964 1768.43 L120.964 1762.55 Z" fill="#000000" fill-rule="evenodd" fill-opacity="1" /><path clip-path="url(#clip640)" d="M136.079 1733.87 L154.436 1733.87 L154.436 1737.81 L140.362 1737.81 L140.362 1746.28 Q141.38 1745.93 142.399 1745.77 Q143.417 1745.58 144.436 1745.58 Q150.223 1745.58 153.602 1748.76 Q156.982 1751.93 156.982 1757.34 Q156.982 1762.92 153.51 1766.02 Q150.038 1769.1 143.718 1769.1 Q141.542 1769.1 139.274 1768.73 Q137.029 1768.36 134.621 1767.62 L134.621 1762.92 Q136.704 1764.06 138.927 1764.61 Q141.149 1765.17 143.626 1765.17 Q147.63 1765.17 149.968 1763.06 Q152.306 1760.95 152.306 1757.34 Q152.306 1753.73 149.968 1751.63 Q147.63 1749.52 143.626 1749.52 Q141.751 1749.52 139.876 1749.94 Q138.024 1750.35 136.079 1751.23 L136.079 1733.87 Z" fill="#000000" fill-rule="evenodd" fill-opacity="1" /><path clip-path="url(#clip640)" d="M49.5521 1420.75 L79.2279 1420.75 L79.2279 1424.68 L49.5521 1424.68 L49.5521 1420.75 Z" fill="#000000" fill-rule="evenodd" fill-opacity="1" /><path clip-path="url(#clip640)" d="M99.3204 1406.09 Q95.7093 1406.09 93.8806 1409.66 Q92.075 1413.2 92.075 1420.33 Q92.075 1427.44 93.8806 1431 Q95.7093 1434.54 99.3204 1434.54 Q102.955 1434.54 104.76 1431 Q106.589 1427.44 106.589 1420.33 Q106.589 1413.2 104.76 1409.66 Q102.955 1406.09 99.3204 1406.09 M99.3204 1402.39 Q105.131 1402.39 108.186 1407 Q111.265 1411.58 111.265 1420.33 Q111.265 1429.06 108.186 1433.66 Q105.131 1438.25 99.3204 1438.25 Q93.5102 1438.25 90.4315 1433.66 Q87.376 1429.06 87.376 1420.33 Q87.376 1411.58 90.4315 1407 Q93.5102 1402.39 99.3204 1402.39 Z" fill="#000000" fill-rule="evenodd" fill-opacity="1" /><path clip-path="url(#clip640)" d="M119.482 1431.7 L124.367 1431.7 L124.367 1437.58 L119.482 1437.58 L119.482 1431.7 Z" fill="#000000" fill-rule="evenodd" fill-opacity="1" /><path clip-path="url(#clip640)" d="M147.399 1407.09 L135.593 1425.54 L147.399 1425.54 L147.399 1407.09 M146.172 1403.02 L152.052 1403.02 L152.052 1425.54 L156.982 1425.54 L156.982 1429.43 L152.052 1429.43 L152.052 1437.58 L147.399 1437.58 L147.399 1429.43 L131.797 1429.43 L131.797 1424.91 L146.172 1403.02 Z" fill="#000000" fill-rule="evenodd" fill-opacity="1" /><path clip-path="url(#clip640)" d="M50.6864 1089.89 L80.3621 1089.89 L80.3621 1093.83 L50.6864 1093.83 L50.6864 1089.89 Z" fill="#000000" fill-rule="evenodd" fill-opacity="1" /><path clip-path="url(#clip640)" d="M100.455 1075.24 Q96.8435 1075.24 95.0148 1078.8 Q93.2093 1082.34 93.2093 1089.47 Q93.2093 1096.58 95.0148 1100.15 Q96.8435 1103.69 100.455 1103.69 Q104.089 1103.69 105.894 1100.15 Q107.723 1096.58 107.723 1089.47 Q107.723 1082.34 105.894 1078.8 Q104.089 1075.24 100.455 1075.24 M100.455 1071.53 Q106.265 1071.53 109.32 1076.14 Q112.399 1080.72 112.399 1089.47 Q112.399 1098.2 109.32 1102.81 Q106.265 1107.39 100.455 1107.39 Q94.6445 1107.39 91.5658 1102.81 Q88.5103 1098.2 88.5103 1089.47 Q88.5103 1080.72 91.5658 1076.14 Q94.6445 1071.53 100.455 1071.53 Z" fill="#000000" fill-rule="evenodd" fill-opacity="1" /><path clip-path="url(#clip640)" d="M120.617 1100.84 L125.501 1100.84 L125.501 1106.72 L120.617 1106.72 L120.617 1100.84 Z" fill="#000000" fill-rule="evenodd" fill-opacity="1" /><path clip-path="url(#clip640)" d="M149.853 1088.09 Q153.209 1088.8 155.084 1091.07 Q156.982 1093.34 156.982 1096.67 Q156.982 1101.79 153.464 1104.59 Q149.945 1107.39 143.464 1107.39 Q141.288 1107.39 138.973 1106.95 Q136.681 1106.53 134.228 1105.68 L134.228 1101.16 Q136.172 1102.3 138.487 1102.88 Q140.802 1103.46 143.325 1103.46 Q147.723 1103.46 150.015 1101.72 Q152.329 1099.98 152.329 1096.67 Q152.329 1093.62 150.177 1091.9 Q148.047 1090.17 144.228 1090.17 L140.2 1090.17 L140.2 1086.33 L144.413 1086.33 Q147.862 1086.33 149.69 1084.96 Q151.519 1083.57 151.519 1080.98 Q151.519 1078.32 149.621 1076.9 Q147.746 1075.47 144.228 1075.47 Q142.306 1075.47 140.107 1075.89 Q137.908 1076.3 135.269 1077.18 L135.269 1073.02 Q137.931 1072.28 140.246 1071.9 Q142.584 1071.53 144.644 1071.53 Q149.968 1071.53 153.07 1073.97 Q156.172 1076.37 156.172 1080.49 Q156.172 1083.36 154.528 1085.35 Q152.885 1087.32 149.853 1088.09 Z" fill="#000000" fill-rule="evenodd" fill-opacity="1" /><path clip-path="url(#clip640)" d="M51.6354 759.035 L81.3112 759.035 L81.3112 762.97 L51.6354 762.97 L51.6354 759.035 Z" fill="#000000" fill-rule="evenodd" fill-opacity="1" /><path clip-path="url(#clip640)" d="M101.404 744.383 Q97.7926 744.383 95.9639 747.947 Q94.1584 751.489 94.1584 758.619 Q94.1584 765.725 95.9639 769.29 Q97.7926 772.831 101.404 772.831 Q105.038 772.831 106.843 769.29 Q108.672 765.725 108.672 758.619 Q108.672 751.489 106.843 747.947 Q105.038 744.383 101.404 744.383 M101.404 740.679 Q107.214 740.679 110.269 745.285 Q113.348 749.869 113.348 758.619 Q113.348 767.345 110.269 771.952 Q107.214 776.535 101.404 776.535 Q95.5935 776.535 92.5149 771.952 Q89.4593 767.345 89.4593 758.619 Q89.4593 749.869 92.5149 745.285 Q95.5935 740.679 101.404 740.679 Z" fill="#000000" fill-rule="evenodd" fill-opacity="1" /><path clip-path="url(#clip640)" d="M121.566 769.984 L126.45 769.984 L126.45 775.864 L121.566 775.864 L121.566 769.984 Z" fill="#000000" fill-rule="evenodd" fill-opacity="1" /><path clip-path="url(#clip640)" d="M140.663 771.929 L156.982 771.929 L156.982 775.864 L135.038 775.864 L135.038 771.929 Q137.7 769.174 142.283 764.544 Q146.89 759.892 148.07 758.549 Q150.315 756.026 151.195 754.29 Q152.098 752.531 152.098 750.841 Q152.098 748.086 150.153 746.35 Q148.232 744.614 145.13 744.614 Q142.931 744.614 140.478 745.378 Q138.047 746.142 135.269 747.693 L135.269 742.971 Q138.093 741.836 140.547 741.258 Q143.001 740.679 145.038 740.679 Q150.408 740.679 153.602 743.364 Q156.797 746.049 156.797 750.54 Q156.797 752.67 155.987 754.591 Q155.2 756.489 153.093 759.082 Q152.515 759.753 149.413 762.97 Q146.311 766.165 140.663 771.929 Z" fill="#000000" fill-rule="evenodd" fill-opacity="1" /><path clip-path="url(#clip640)" d="M51.2651 428.18 L80.9408 428.18 L80.9408 432.115 L51.2651 432.115 L51.2651 428.18 Z" fill="#000000" fill-rule="evenodd" fill-opacity="1" /><path clip-path="url(#clip640)" d="M101.033 413.527 Q97.4222 413.527 95.5935 417.092 Q93.788 420.633 93.788 427.763 Q93.788 434.869 95.5935 438.434 Q97.4222 441.976 101.033 441.976 Q104.668 441.976 106.473 438.434 Q108.302 434.869 108.302 427.763 Q108.302 420.633 106.473 417.092 Q104.668 413.527 101.033 413.527 M101.033 409.823 Q106.843 409.823 109.899 414.43 Q112.978 419.013 112.978 427.763 Q112.978 436.49 109.899 441.096 Q106.843 445.679 101.033 445.679 Q95.2232 445.679 92.1445 441.096 Q89.089 436.49 89.089 427.763 Q89.089 419.013 92.1445 414.43 Q95.2232 409.823 101.033 409.823 Z" fill="#000000" fill-rule="evenodd" fill-opacity="1" /><path clip-path="url(#clip640)" d="M121.195 439.129 L126.079 439.129 L126.079 445.008 L121.195 445.008 L121.195 439.129 Z" fill="#000000" fill-rule="evenodd" fill-opacity="1" /><path clip-path="url(#clip640)" d="M137.075 441.073 L144.714 441.073 L144.714 414.707 L136.404 416.374 L136.404 412.115 L144.667 410.448 L149.343 410.448 L149.343 441.073 L156.982 441.073 L156.982 445.008 L137.075 445.008 L137.075 441.073 Z" fill="#000000" fill-rule="evenodd" fill-opacity="1" /><path clip-path="url(#clip640)" d="M99.8065 82.6711 Q96.1954 82.6711 94.3667 86.2359 Q92.5612 89.7776 92.5612 96.9072 Q92.5612 104.014 94.3667 107.578 Q96.1954 111.12 99.8065 111.12 Q103.441 111.12 105.246 107.578 Q107.075 104.014 107.075 96.9072 Q107.075 89.7776 105.246 86.2359 Q103.441 82.6711 99.8065 82.6711 M99.8065 78.9675 Q105.617 78.9675 108.672 83.5739 Q111.751 88.1572 111.751 96.9072 Q111.751 105.634 108.672 110.24 Q105.617 114.824 99.8065 114.824 Q93.9963 114.824 90.9176 110.24 Q87.8621 105.634 87.8621 96.9072 Q87.8621 88.1572 90.9176 83.5739 Q93.9963 78.9675 99.8065 78.9675 Z" fill="#000000" fill-rule="evenodd" fill-opacity="1" /><path clip-path="url(#clip640)" d="M119.968 108.273 L124.853 108.273 L124.853 114.152 L119.968 114.152 L119.968 108.273 Z" fill="#000000" fill-rule="evenodd" fill-opacity="1" /><path clip-path="url(#clip640)" d="M145.038 82.6711 Q141.427 82.6711 139.598 86.2359 Q137.792 89.7776 137.792 96.9072 Q137.792 104.014 139.598 107.578 Q141.427 111.12 145.038 111.12 Q148.672 111.12 150.478 107.578 Q152.306 104.014 152.306 96.9072 Q152.306 89.7776 150.478 86.2359 Q148.672 82.6711 145.038 82.6711 M145.038 78.9675 Q150.848 78.9675 153.903 83.5739 Q156.982 88.1572 156.982 96.9072 Q156.982 105.634 153.903 110.24 Q150.848 114.824 145.038 114.824 Q139.228 114.824 136.149 110.24 Q133.093 105.634 133.093 96.9072 Q133.093 88.1572 136.149 83.5739 Q139.228 78.9675 145.038 78.9675 Z" fill="#000000" fill-rule="evenodd" fill-opacity="1" /><polyline clip-path="url(#clip642)" style="stroke:#009af9; stroke-linecap:butt; stroke-linejoin:round; stroke-width:4; stroke-opacity:1; fill:none" points="
  266.456,1751.15 281.464,1735.05 420.233,1590.96 503.627,1508.34 574.135,1440.67 650.727,1369.32 721.338,1305.46 797.041,1238.94 884.75,1164.28 962.695,1100.01 
  1031.05,1045.18 1105.57,986.963 1180.53,929.989 1263.41,868.77 1342.27,812.178 1424.27,754.977 1493.29,708.072 1577.56,652.288 1654.76,602.562 1726.06,557.76 
  1798.28,513.437 1879.22,464.986 1952.56,422.158 2036.54,374.331 2114.29,331.157 2190.95,289.598 2265.37,250.171 2341.67,210.663 2425.26,168.401 2546.69,108.834 
  2571.6,96.8724 
  "/>
<path clip-path="url(#clip640)" d="
M2235.38 209.375 L2559.31 209.375 L2559.31 105.695 L2235.38 105.695  Z
  " fill="#ffffff" fill-rule="evenodd" fill-opacity="1"/>
<polyline clip-path="url(#clip640)" style="stroke:#000000; stroke-linecap:butt; stroke-linejoin:round; stroke-width:4; stroke-opacity:1; fill:none" points="
  2235.38,209.375 2559.31,209.375 2559.31,105.695 2235.38,105.695 2235.38,209.375 
  "/>
<polyline clip-path="url(#clip640)" style="stroke:#009af9; stroke-linecap:butt; stroke-linejoin:round; stroke-width:4; stroke-opacity:1; fill:none" points="
  2262.53,157.535 2425.43,157.535 
  "/>
<path clip-path="url(#clip640)" d="M2466.42 177.223 Q2464.62 181.852 2462.9 183.264 Q2461.19 184.676 2458.32 184.676 L2454.92 184.676 L2454.92 181.112 L2457.42 181.112 Q2459.18 181.112 2460.15 180.278 Q2461.12 179.445 2462.3 176.343 L2463.06 174.399 L2452.58 148.889 L2457.09 148.889 L2465.19 169.167 L2473.3 148.889 L2477.81 148.889 L2466.42 177.223 Z" fill="#000000" fill-rule="evenodd" fill-opacity="1" /><path clip-path="url(#clip640)" d="M2485.1 170.88 L2492.74 170.88 L2492.74 144.515 L2484.43 146.181 L2484.43 141.922 L2492.69 140.255 L2497.37 140.255 L2497.37 170.88 L2505.01 170.88 L2505.01 174.815 L2485.1 174.815 L2485.1 170.88 Z" fill="#000000" fill-rule="evenodd" fill-opacity="1" /></svg>
