<?xml version="1.0" encoding="utf-8"?>
<svg xmlns="http://www.w3.org/2000/svg" xmlns:xlink="http://www.w3.org/1999/xlink" width="672" height="480" viewBox="0 0 2688 1920">
<defs>
  <clipPath id="clip530">
    <rect x="0" y="0" width="2688" height="1920"/>
  </clipPath>
</defs>
<path clip-path="url(#clip530)" d="
M0 1920 L2688 1920 L2688 0 L0 0  Z
  " fill="#ffffff" fill-rule="evenodd" fill-opacity="1"/>
<defs>
  <clipPath id="clip531">
    <rect x="537" y="0" width="1883" height="1883"/>
  </clipPath>
</defs>
<path clip-path="url(#clip530)" d="
M150.358 1800.78 L2640.76 1800.78 L2640.76 47.2441 L150.358 47.2441  Z
  " fill="#ffffff" fill-rule="evenodd" fill-opacity="1"/>
<defs>
  <clipPath id="clip532">
    <rect x="150" y="47" width="2491" height="1755"/>
  </clipPath>
</defs>
<polyline clip-path="url(#clip532)" style="stroke:#000000; stroke-linecap:butt; stroke-linejoin:round; stroke-width:2; stroke-opacity:0.1; fill:none" points="
  220.841,1800.78 220.841,47.2441 
  "/>
<polyline clip-path="url(#clip532)" style="stroke:#000000; stroke-linecap:butt; stroke-linejoin:round; stroke-width:2; stroke-opacity:0.1; fill:none" points="
  690.727,1800.78 690.727,47.2441 
  "/>
<polyline clip-path="url(#clip532)" style="stroke:#000000; stroke-linecap:butt; stroke-linejoin:round; stroke-width:2; stroke-opacity:0.1; fill:none" points="
  1160.61,1800.78 1160.61,47.2441 
  "/>
<polyline clip-path="url(#clip532)" style="stroke:#000000; stroke-linecap:butt; stroke-linejoin:round; stroke-width:2; stroke-opacity:0.1; fill:none" points="
  1630.5,1800.78 1630.5,47.2441 
  "/>
<polyline clip-path="url(#clip532)" style="stroke:#000000; stroke-linecap:butt; stroke-linejoin:round; stroke-width:2; stroke-opacity:0.1; fill:none" points="
  2100.39,1800.78 2100.39,47.2441 
  "/>
<polyline clip-path="url(#clip532)" style="stroke:#000000; stroke-linecap:butt; stroke-linejoin:round; stroke-width:2; stroke-opacity:0.1; fill:none" points="
  2570.27,1800.78 2570.27,47.2441 
  "/>
<polyline clip-path="url(#clip530)" style="stroke:#000000; stroke-linecap:butt; stroke-linejoin:round; stroke-width:4; stroke-opacity:1; fill:none" points="
  150.358,1800.78 2640.76,1800.78 
  "/>
<polyline clip-path="url(#clip530)" style="stroke:#000000; stroke-linecap:butt; stroke-linejoin:round; stroke-width:4; stroke-opacity:1; fill:none" points="
  220.841,1800.78 220.841,1781.88 
  "/>
<polyline clip-path="url(#clip530)" style="stroke:#000000; stroke-linecap:butt; stroke-linejoin:round; stroke-width:4; stroke-opacity:1; fill:none" points="
  690.727,1800.78 690.727,1781.88 
  "/>
<polyline clip-path="url(#clip530)" style="stroke:#000000; stroke-linecap:butt; stroke-linejoin:round; stroke-width:4; stroke-opacity:1; fill:none" points="
  1160.61,1800.78 1160.61,1781.88 
  "/>
<polyline clip-path="url(#clip530)" style="stroke:#000000; stroke-linecap:butt; stroke-linejoin:round; stroke-width:4; stroke-opacity:1; fill:none" points="
  1630.5,1800.78 1630.5,1781.88 
  "/>
<polyline clip-path="url(#clip530)" style="stroke:#000000; stroke-linecap:butt; stroke-linejoin:round; stroke-width:4; stroke-opacity:1; fill:none" points="
  2100.39,1800.78 2100.39,1781.88 
  "/>
<polyline clip-path="url(#clip530)" style="stroke:#000000; stroke-linecap:butt; stroke-linejoin:round; stroke-width:4; stroke-opacity:1; fill:none" points="
  2570.27,1800.78 2570.27,1781.88 
  "/>
<path clip-path="url(#clip530)" d="M190.783 1848.65 L220.459 1848.65 L220.459 1852.59 L190.783 1852.59 L190.783 1848.65 Z" fill="#000000" fill-rule="evenodd" fill-opacity="1" /><path clip-path="url(#clip530)" d="M234.579 1861.55 L250.899 1861.55 L250.899 1865.48 L228.954 1865.48 L228.954 1861.55 Q231.616 1858.79 236.2 1854.16 Q240.806 1849.51 241.987 1848.17 Q244.232 1845.65 245.112 1843.91 Q246.014 1842.15 246.014 1840.46 Q246.014 1837.71 244.07 1835.97 Q242.149 1834.23 239.047 1834.23 Q236.848 1834.23 234.394 1835 Q231.964 1835.76 229.186 1837.31 L229.186 1832.59 Q232.01 1831.46 234.463 1830.88 Q236.917 1830.3 238.954 1830.3 Q244.325 1830.3 247.519 1832.98 Q250.713 1835.67 250.713 1840.16 Q250.713 1842.29 249.903 1844.21 Q249.116 1846.11 247.01 1848.7 Q246.431 1849.37 243.329 1852.59 Q240.227 1855.78 234.579 1861.55 Z" fill="#000000" fill-rule="evenodd" fill-opacity="1" /><path clip-path="url(#clip530)" d="M660.484 1848.65 L690.16 1848.65 L690.16 1852.59 L660.484 1852.59 L660.484 1848.65 Z" fill="#000000" fill-rule="evenodd" fill-opacity="1" /><path clip-path="url(#clip530)" d="M701.063 1861.55 L708.702 1861.55 L708.702 1835.18 L700.392 1836.85 L700.392 1832.59 L708.655 1830.92 L713.331 1830.92 L713.331 1861.55 L720.97 1861.55 L720.97 1865.48 L701.063 1865.48 L701.063 1861.55 Z" fill="#000000" fill-rule="evenodd" fill-opacity="1" /><path clip-path="url(#clip530)" d="M1160.61 1834 Q1157 1834 1155.17 1837.57 Q1153.37 1841.11 1153.37 1848.24 Q1153.37 1855.34 1155.17 1858.91 Q1157 1862.45 1160.61 1862.45 Q1164.25 1862.45 1166.05 1858.91 Q1167.88 1855.34 1167.88 1848.24 Q1167.88 1841.11 1166.05 1837.57 Q1164.25 1834 1160.61 1834 M1160.61 1830.3 Q1166.42 1830.3 1169.48 1834.9 Q1172.56 1839.49 1172.56 1848.24 Q1172.56 1856.96 1169.48 1861.57 Q1166.42 1866.15 1160.61 1866.15 Q1154.8 1866.15 1151.72 1861.57 Q1148.67 1856.96 1148.67 1848.24 Q1148.67 1839.49 1151.72 1834.9 Q1154.8 1830.3 1160.61 1830.3 Z" fill="#000000" fill-rule="evenodd" fill-opacity="1" /><path clip-path="url(#clip530)" d="M1620.88 1861.55 L1628.52 1861.55 L1628.52 1835.18 L1620.21 1836.85 L1620.21 1832.59 L1628.47 1830.92 L1633.15 1830.92 L1633.15 1861.55 L1640.79 1861.55 L1640.79 1865.48 L1620.88 1865.48 L1620.88 1861.55 Z" fill="#000000" fill-rule="evenodd" fill-opacity="1" /><path clip-path="url(#clip530)" d="M2095.04 1861.55 L2111.36 1861.55 L2111.36 1865.48 L2089.41 1865.48 L2089.41 1861.55 Q2092.08 1858.79 2096.66 1854.16 Q2101.27 1849.51 2102.45 1848.17 Q2104.69 1845.65 2105.57 1843.91 Q2106.47 1842.15 2106.47 1840.46 Q2106.47 1837.71 2104.53 1835.97 Q2102.61 1834.23 2099.51 1834.23 Q2097.31 1834.23 2094.85 1835 Q2092.42 1835.76 2089.65 1837.31 L2089.65 1832.59 Q2092.47 1831.46 2094.92 1830.88 Q2097.38 1830.3 2099.41 1830.3 Q2104.78 1830.3 2107.98 1832.98 Q2111.17 1835.67 2111.17 1840.16 Q2111.17 1842.29 2110.36 1844.21 Q2109.58 1846.11 2107.47 1848.7 Q2106.89 1849.37 2103.79 1852.59 Q2100.69 1855.78 2095.04 1861.55 Z" fill="#000000" fill-rule="evenodd" fill-opacity="1" /><path clip-path="url(#clip530)" d="M2574.52 1846.85 Q2577.88 1847.57 2579.75 1849.84 Q2581.65 1852.1 2581.65 1855.44 Q2581.65 1860.55 2578.13 1863.35 Q2574.61 1866.15 2568.13 1866.15 Q2565.96 1866.15 2563.64 1865.71 Q2561.35 1865.3 2558.9 1864.44 L2558.9 1859.93 Q2560.84 1861.06 2563.15 1861.64 Q2565.47 1862.22 2567.99 1862.22 Q2572.39 1862.22 2574.68 1860.48 Q2577 1858.75 2577 1855.44 Q2577 1852.38 2574.84 1850.67 Q2572.72 1848.93 2568.9 1848.93 L2564.87 1848.93 L2564.87 1845.09 L2569.08 1845.09 Q2572.53 1845.09 2574.36 1843.72 Q2576.19 1842.34 2576.19 1839.74 Q2576.19 1837.08 2574.29 1835.67 Q2572.41 1834.23 2568.9 1834.23 Q2566.97 1834.23 2564.78 1834.65 Q2562.58 1835.07 2559.94 1835.95 L2559.94 1831.78 Q2562.6 1831.04 2564.91 1830.67 Q2567.25 1830.3 2569.31 1830.3 Q2574.64 1830.3 2577.74 1832.73 Q2580.84 1835.14 2580.84 1839.26 Q2580.84 1842.13 2579.2 1844.12 Q2577.55 1846.09 2574.52 1846.85 Z" fill="#000000" fill-rule="evenodd" fill-opacity="1" /><polyline clip-path="url(#clip532)" style="stroke:#000000; stroke-linecap:butt; stroke-linejoin:round; stroke-width:2; stroke-opacity:0.1; fill:none" points="
  150.358,1751.15 2640.76,1751.15 
  "/>
<polyline clip-path="url(#clip532)" style="stroke:#000000; stroke-linecap:butt; stroke-linejoin:round; stroke-width:2; stroke-opacity:0.1; fill:none" points="
  150.358,1337.58 2640.76,1337.58 
  "/>
<polyline clip-path="url(#clip532)" style="stroke:#000000; stroke-linecap:butt; stroke-linejoin:round; stroke-width:2; stroke-opacity:0.1; fill:none" points="
  150.358,924.012 2640.76,924.012 
  "/>
<polyline clip-path="url(#clip532)" style="stroke:#000000; stroke-linecap:butt; stroke-linejoin:round; stroke-width:2; stroke-opacity:0.1; fill:none" points="
  150.358,510.442 2640.76,510.442 
  "/>
<polyline clip-path="url(#clip532)" style="stroke:#000000; stroke-linecap:butt; stroke-linejoin:round; stroke-width:2; stroke-opacity:0.1; fill:none" points="
  150.358,96.8724 2640.76,96.8724 
  "/>
<polyline clip-path="url(#clip530)" style="stroke:#000000; stroke-linecap:butt; stroke-linejoin:round; stroke-width:4; stroke-opacity:1; fill:none" points="
  150.358,1800.78 150.358,47.2441 
  "/>
<polyline clip-path="url(#clip530)" style="stroke:#000000; stroke-linecap:butt; stroke-linejoin:round; stroke-width:4; stroke-opacity:1; fill:none" points="
  150.358,1751.15 169.256,1751.15 
  "/>
<polyline clip-path="url(#clip530)" style="stroke:#000000; stroke-linecap:butt; stroke-linejoin:round; stroke-width:4; stroke-opacity:1; fill:none" points="
  150.358,1337.58 169.256,1337.58 
  "/>
<polyline clip-path="url(#clip530)" style="stroke:#000000; stroke-linecap:butt; stroke-linejoin:round; stroke-width:4; stroke-opacity:1; fill:none" points="
  150.358,924.012 169.256,924.012 
  "/>
<polyline clip-path="url(#clip530)" style="stroke:#000000; stroke-linecap:butt; stroke-linejoin:round; stroke-width:4; stroke-opacity:1; fill:none" points="
  150.358,510.442 169.256,510.442 
  "/>
<polyline clip-path="url(#clip530)" style="stroke:#000000; stroke-linecap:butt; stroke-linejoin:round; stroke-width:4; stroke-opacity:1; fill:none" points="
  150.358,96.8724 169.256,96.8724 
  "/>
<path clip-path="url(#clip530)" d="M49.9225 1751.6 L79.5983 1751.6 L79.5983 1755.54 L49.9225 1755.54 L49.9225 1751.6 Z" fill="#000000" fill-rule="evenodd" fill-opacity="1" /><path clip-path="url(#clip530)" d="M93.7186 1764.5 L110.038 1764.5 L110.038 1768.43 L88.0936 1768.43 L88.0936 1764.5 Q90.7556 1761.74 95.3389 1757.11 Q99.9454 1752.46 101.126 1751.12 Q103.371 1748.59 104.251 1746.86 Q105.154 1745.1 105.154 1743.41 Q105.154 1740.65 103.209 1738.92 Q101.288 1737.18 98.1861 1737.18 Q95.9871 1737.18 93.5334 1737.94 Q91.1028 1738.71 88.3251 1740.26 L88.3251 1735.54 Q91.1491 1734.4 93.6028 1733.82 Q96.0565 1733.25 98.0935 1733.25 Q103.464 1733.25 106.658 1735.93 Q109.853 1738.62 109.853 1743.11 Q109.853 1745.24 109.043 1747.16 Q108.256 1749.06 106.149 1751.65 Q105.57 1752.32 102.469 1755.54 Q99.3667 1758.73 93.7186 1764.5 Z" fill="#000000" fill-rule="evenodd" fill-opacity="1" /><path clip-path="url(#clip530)" d="M49.5521 1338.03 L79.2279 1338.03 L79.2279 1341.97 L49.5521 1341.97 L49.5521 1338.03 Z" fill="#000000" fill-rule="evenodd" fill-opacity="1" /><path clip-path="url(#clip530)" d="M90.1306 1350.93 L97.7695 1350.93 L97.7695 1324.56 L89.4593 1326.23 L89.4593 1321.97 L97.7232 1320.3 L102.399 1320.3 L102.399 1350.93 L110.038 1350.93 L110.038 1354.86 L90.1306 1354.86 L90.1306 1350.93 Z" fill="#000000" fill-rule="evenodd" fill-opacity="1" /><path clip-path="url(#clip530)" d="M98.0935 909.81 Q94.4824 909.81 92.6537 913.375 Q90.8482 916.917 90.8482 924.046 Q90.8482 931.153 92.6537 934.718 Q94.4824 938.259 98.0935 938.259 Q101.728 938.259 103.533 934.718 Q105.362 931.153 105.362 924.046 Q105.362 916.917 103.533 913.375 Q101.728 909.81 98.0935 909.81 M98.0935 906.107 Q103.904 906.107 106.959 910.713 Q110.038 915.296 110.038 924.046 Q110.038 932.773 106.959 937.38 Q103.904 941.963 98.0935 941.963 Q92.2834 941.963 89.2047 937.38 Q86.1492 932.773 86.1492 924.046 Q86.1492 915.296 89.2047 910.713 Q92.2834 906.107 98.0935 906.107 Z" fill="#000000" fill-rule="evenodd" fill-opacity="1" /><path clip-path="url(#clip530)" d="M90.1306 523.787 L97.7695 523.787 L97.7695 497.421 L89.4593 499.088 L89.4593 494.829 L97.7232 493.162 L102.399 493.162 L102.399 523.787 L110.038 523.787 L110.038 527.722 L90.1306 527.722 L90.1306 523.787 Z" fill="#000000" fill-rule="evenodd" fill-opacity="1" /><path clip-path="url(#clip530)" d="M93.7186 110.217 L110.038 110.217 L110.038 114.152 L88.0936 114.152 L88.0936 110.217 Q90.7556 107.463 95.3389 102.833 Q99.9454 98.1803 101.126 96.8377 Q103.371 94.3146 104.251 92.5785 Q105.154 90.8192 105.154 89.1294 Q105.154 86.3748 103.209 84.6387 Q101.288 82.9026 98.1861 82.9026 Q95.9871 82.9026 93.5334 83.6665 Q91.1028 84.4304 88.3251 85.9813 L88.3251 81.2591 Q91.1491 80.1249 93.6028 79.5462 Q96.0565 78.9675 98.0935 78.9675 Q103.464 78.9675 106.658 81.6526 Q109.853 84.3378 109.853 88.8285 Q109.853 90.9581 109.043 92.8794 Q108.256 94.7776 106.149 97.3701 Q105.57 98.0414 102.469 101.259 Q99.3667 104.453 93.7186 110.217 Z" fill="#000000" fill-rule="evenodd" fill-opacity="1" /><polyline clip-path="url(#clip532)" style="stroke:#000000; stroke-linecap:butt; stroke-linejoin:round; stroke-width:4; stroke-opacity:1; fill:none" points="
  220.841,1751.15 690.727,1751.15 
  "/>
<polyline clip-path="url(#clip532)" style="stroke:#000000; stroke-linecap:butt; stroke-linejoin:round; stroke-width:4; stroke-opacity:1; fill:none" points="
  690.727,1337.58 1160.61,1337.58 
  "/>
<polyline clip-path="url(#clip532)" style="stroke:#000000; stroke-linecap:butt; stroke-linejoin:round; stroke-width:4; stroke-opacity:1; fill:none" points="
  1160.61,924.012 1630.5,924.012 
  "/>
<polyline clip-path="url(#clip532)" style="stroke:#000000; stroke-linecap:butt; stroke-linejoin:round; stroke-width:4; stroke-opacity:1; fill:none" points="
  1630.5,510.442 2100.39,510.442 
  "/>
<polyline clip-path="url(#clip532)" style="stroke:#000000; stroke-linecap:butt; stroke-linejoin:round; stroke-width:4; stroke-opacity:1; fill:none" points="
  2100.39,96.8724 2570.27,96.8724 
  "/>
<circle clip-path="url(#clip532)" cx="220.841" cy="1751.15" r="18" fill="#00a9ad" fill-rule="evenodd" fill-opacity="1" stroke="#000000" stroke-opacity="1" stroke-width="3.84"/>
<circle clip-path="url(#clip532)" cx="690.727" cy="1337.58" r="18" fill="#00a9ad" fill-rule="evenodd" fill-opacity="1" stroke="#000000" stroke-opacity="1" stroke-width="3.84"/>
<circle clip-path="url(#clip532)" cx="1160.61" cy="924.012" r="18" fill="#00a9ad" fill-rule="evenodd" fill-opacity="1" stroke="#000000" stroke-opacity="1" stroke-width="3.84"/>
<circle clip-path="url(#clip532)" cx="1630.5" cy="510.442" r="18" fill="#00a9ad" fill-rule="evenodd" fill-opacity="1" stroke="#000000" stroke-opacity="1" stroke-width="3.84"/>
<circle clip-path="url(#clip532)" cx="2100.39" cy="96.8724" r="18" fill="#00a9ad" fill-rule="evenodd" fill-opacity="1" stroke="#000000" stroke-opacity="1" stroke-width="3.84"/>
</svg>
