<?xml version="1.0" encoding="utf-8"?>
<svg xmlns="http://www.w3.org/2000/svg" xmlns:xlink="http://www.w3.org/1999/xlink" width="672" height="480" viewBox="0 0 2688 1920">
<defs>
  <clipPath id="clip440">
    <rect x="0" y="0" width="2688" height="1920"/>
  </clipPath>
</defs>
<path clip-path="url(#clip440)" d="
M0 1920 L2688 1920 L2688 0 L0 0  Z
  " fill="#ffffff" fill-rule="evenodd" fill-opacity="1"/>
<defs>
  <clipPath id="clip441">
    <rect x="537" y="0" width="1883" height="1883"/>
  </clipPath>
</defs>
<path clip-path="url(#clip440)" d="
M152.071 1800.78 L2640.76 1800.78 L2640.76 47.2441 L152.071 47.2441  Z
  " fill="#ffffff" fill-rule="evenodd" fill-opacity="1"/>
<defs>
  <clipPath id="clip442">
    <rect x="152" y="47" width="2490" height="1755"/>
  </clipPath>
</defs>
<polyline clip-path="url(#clip442)" style="stroke:#000000; stroke-linecap:butt; stroke-linejoin:round; stroke-width:2; stroke-opacity:0.1; fill:none" points="
  403.797,1800.78 403.797,47.2441 
  "/>
<polyline clip-path="url(#clip442)" style="stroke:#000000; stroke-linecap:butt; stroke-linejoin:round; stroke-width:2; stroke-opacity:0.1; fill:none" points="
  734.655,1800.78 734.655,47.2441 
  "/>
<polyline clip-path="url(#clip442)" style="stroke:#000000; stroke-linecap:butt; stroke-linejoin:round; stroke-width:2; stroke-opacity:0.1; fill:none" points="
  1065.51,1800.78 1065.51,47.2441 
  "/>
<polyline clip-path="url(#clip442)" style="stroke:#000000; stroke-linecap:butt; stroke-linejoin:round; stroke-width:2; stroke-opacity:0.1; fill:none" points="
  1396.37,1800.78 1396.37,47.2441 
  "/>
<polyline clip-path="url(#clip442)" style="stroke:#000000; stroke-linecap:butt; stroke-linejoin:round; stroke-width:2; stroke-opacity:0.1; fill:none" points="
  1727.23,1800.78 1727.23,47.2441 
  "/>
<polyline clip-path="url(#clip442)" style="stroke:#000000; stroke-linecap:butt; stroke-linejoin:round; stroke-width:2; stroke-opacity:0.1; fill:none" points="
  2058.09,1800.78 2058.09,47.2441 
  "/>
<polyline clip-path="url(#clip442)" style="stroke:#000000; stroke-linecap:butt; stroke-linejoin:round; stroke-width:2; stroke-opacity:0.1; fill:none" points="
  2388.95,1800.78 2388.95,47.2441 
  "/>
<polyline clip-path="url(#clip440)" style="stroke:#000000; stroke-linecap:butt; stroke-linejoin:round; stroke-width:4; stroke-opacity:1; fill:none" points="
  152.071,1800.78 2640.76,1800.78 
  "/>
<polyline clip-path="url(#clip440)" style="stroke:#000000; stroke-linecap:butt; stroke-linejoin:round; stroke-width:4; stroke-opacity:1; fill:none" points="
  403.797,1800.78 403.797,1781.88 
  "/>
<polyline clip-path="url(#clip440)" style="stroke:#000000; stroke-linecap:butt; stroke-linejoin:round; stroke-width:4; stroke-opacity:1; fill:none" points="
  734.655,1800.78 734.655,1781.88 
  "/>
<polyline clip-path="url(#clip440)" style="stroke:#000000; stroke-linecap:butt; stroke-linejoin:round; stroke-width:4; stroke-opacity:1; fill:none" points="
  1065.51,1800.78 1065.51,1781.88 
  "/>
<polyline clip-path="url(#clip440)" style="stroke:#000000; stroke-linecap:butt; stroke-linejoin:round; stroke-width:4; stroke-opacity:1; fill:none" points="
  1396.37,1800.78 1396.37,1781.88 
  "/>
<polyline clip-path="url(#clip440)" style="stroke:#000000; stroke-linecap:butt; stroke-linejoin:round; stroke-width:4; stroke-opacity:1; fill:none" points="
  1727.23,1800.78 1727.23,1781.88 
  "/>
<polyline clip-path="url(#clip440)" style="stroke:#000000; stroke-linecap:butt; stroke-linejoin:round; stroke-width:4; stroke-opacity:1; fill:none" points="
  2058.09,1800.78 2058.09,1781.88 
  "/>
<polyline clip-path="url(#clip440)" style="stroke:#000000; stroke-linecap:butt; stroke-linejoin:round; stroke-width:4; stroke-opacity:1; fill:none" points="
  2388.95,1800.78 2388.95,1781.88 
  "/>
<path clip-path="url(#clip440)" d="M372.859 1848.65 L402.535 1848.65 L402.535 1852.59 L372.859 1852.59 L372.859 1848.65 Z" fill="#000000" fill-rule="evenodd" fill-opacity="1" /><path clip-path="url(#clip440)" d="M423.206 1846.34 Q420.058 1846.34 418.206 1848.49 Q416.378 1850.65 416.378 1854.4 Q416.378 1858.12 418.206 1860.3 Q420.058 1862.45 423.206 1862.45 Q426.354 1862.45 428.183 1860.3 Q430.035 1858.12 430.035 1854.4 Q430.035 1850.65 428.183 1848.49 Q426.354 1846.34 423.206 1846.34 M432.489 1831.69 L432.489 1835.95 Q430.729 1835.11 428.924 1834.67 Q427.142 1834.23 425.382 1834.23 Q420.753 1834.23 418.299 1837.36 Q415.868 1840.48 415.521 1846.8 Q416.887 1844.79 418.947 1843.72 Q421.007 1842.64 423.484 1842.64 Q428.692 1842.64 431.702 1845.81 Q434.734 1848.96 434.734 1854.4 Q434.734 1859.72 431.586 1862.94 Q428.438 1866.15 423.206 1866.15 Q417.211 1866.15 414.04 1861.57 Q410.868 1856.96 410.868 1848.24 Q410.868 1840.04 414.757 1835.18 Q418.646 1830.3 425.197 1830.3 Q426.956 1830.3 428.739 1830.65 Q430.544 1830.99 432.489 1831.69 Z" fill="#000000" fill-rule="evenodd" fill-opacity="1" /><path clip-path="url(#clip440)" d="M703.556 1848.65 L733.231 1848.65 L733.231 1852.59 L703.556 1852.59 L703.556 1848.65 Z" fill="#000000" fill-rule="evenodd" fill-opacity="1" /><path clip-path="url(#clip440)" d="M756.171 1835 L744.365 1853.45 L756.171 1853.45 L756.171 1835 M754.944 1830.92 L760.824 1830.92 L760.824 1853.45 L765.754 1853.45 L765.754 1857.34 L760.824 1857.34 L760.824 1865.48 L756.171 1865.48 L756.171 1857.34 L740.569 1857.34 L740.569 1852.82 L754.944 1830.92 Z" fill="#000000" fill-rule="evenodd" fill-opacity="1" /><path clip-path="url(#clip440)" d="M1035.46 1848.65 L1065.13 1848.65 L1065.13 1852.59 L1035.46 1852.59 L1035.46 1848.65 Z" fill="#000000" fill-rule="evenodd" fill-opacity="1" /><path clip-path="url(#clip440)" d="M1079.25 1861.55 L1095.57 1861.55 L1095.57 1865.48 L1073.63 1865.48 L1073.63 1861.55 Q1076.29 1858.79 1080.87 1854.16 Q1085.48 1849.51 1086.66 1848.17 Q1088.9 1845.65 1089.78 1843.91 Q1090.69 1842.15 1090.69 1840.46 Q1090.69 1837.71 1088.74 1835.97 Q1086.82 1834.23 1083.72 1834.23 Q1081.52 1834.23 1079.07 1835 Q1076.64 1835.76 1073.86 1837.31 L1073.86 1832.59 Q1076.68 1831.46 1079.14 1830.88 Q1081.59 1830.3 1083.63 1830.3 Q1089 1830.3 1092.19 1832.98 Q1095.39 1835.67 1095.39 1840.16 Q1095.39 1842.29 1094.58 1844.21 Q1093.79 1846.11 1091.68 1848.7 Q1091.1 1849.37 1088 1852.59 Q1084.9 1855.78 1079.25 1861.55 Z" fill="#000000" fill-rule="evenodd" fill-opacity="1" /><path clip-path="url(#clip440)" d="M1396.37 1834 Q1392.76 1834 1390.93 1837.57 Q1389.13 1841.11 1389.13 1848.24 Q1389.13 1855.34 1390.93 1858.91 Q1392.76 1862.45 1396.37 1862.45 Q1400.01 1862.45 1401.81 1858.91 Q1403.64 1855.34 1403.64 1848.24 Q1403.64 1841.11 1401.81 1837.57 Q1400.01 1834 1396.37 1834 M1396.37 1830.3 Q1402.18 1830.3 1405.24 1834.9 Q1408.32 1839.49 1408.32 1848.24 Q1408.32 1856.96 1405.24 1861.57 Q1402.18 1866.15 1396.37 1866.15 Q1390.56 1866.15 1387.48 1861.57 Q1384.43 1856.96 1384.43 1848.24 Q1384.43 1839.49 1387.48 1834.9 Q1390.56 1830.3 1396.37 1830.3 Z" fill="#000000" fill-rule="evenodd" fill-opacity="1" /><path clip-path="url(#clip440)" d="M1721.88 1861.55 L1738.2 1861.55 L1738.2 1865.48 L1716.26 1865.48 L1716.26 1861.55 Q1718.92 1858.79 1723.5 1854.16 Q1728.11 1849.51 1729.29 1848.17 Q1731.53 1845.65 1732.41 1843.91 Q1733.32 1842.15 1733.32 1840.46 Q1733.32 1837.71 1731.37 1835.97 Q1729.45 1834.23 1726.35 1834.23 Q1724.15 1834.23 1721.7 1835 Q1719.27 1835.76 1716.49 1837.31 L1716.49 1832.59 Q1719.31 1831.46 1721.77 1830.88 Q1724.22 1830.3 1726.26 1830.3 Q1731.63 1830.3 1734.82 1832.98 Q1738.02 1835.67 1738.02 1840.16 Q1738.02 1842.29 1737.21 1844.21 Q1736.42 1846.11 1734.31 1848.7 Q1733.73 1849.37 1730.63 1852.59 Q1727.53 1855.78 1721.88 1861.55 Z" fill="#000000" fill-rule="evenodd" fill-opacity="1" /><path clip-path="url(#clip440)" d="M2061.1 1835 L2049.29 1853.45 L2061.1 1853.45 L2061.1 1835 M2059.87 1830.92 L2065.75 1830.92 L2065.75 1853.45 L2070.68 1853.45 L2070.68 1857.34 L2065.75 1857.34 L2065.75 1865.48 L2061.1 1865.48 L2061.1 1857.34 L2045.49 1857.34 L2045.49 1852.82 L2059.87 1830.92 Z" fill="#000000" fill-rule="evenodd" fill-opacity="1" /><path clip-path="url(#clip440)" d="M2389.35 1846.34 Q2386.2 1846.34 2384.35 1848.49 Q2382.52 1850.65 2382.52 1854.4 Q2382.52 1858.12 2384.35 1860.3 Q2386.2 1862.45 2389.35 1862.45 Q2392.5 1862.45 2394.33 1860.3 Q2396.18 1858.12 2396.18 1854.4 Q2396.18 1850.65 2394.33 1848.49 Q2392.5 1846.34 2389.35 1846.34 M2398.63 1831.69 L2398.63 1835.95 Q2396.87 1835.11 2395.07 1834.67 Q2393.29 1834.23 2391.53 1834.23 Q2386.9 1834.23 2384.44 1837.36 Q2382.01 1840.48 2381.67 1846.8 Q2383.03 1844.79 2385.09 1843.72 Q2387.15 1842.64 2389.63 1842.64 Q2394.84 1842.64 2397.85 1845.81 Q2400.88 1848.96 2400.88 1854.4 Q2400.88 1859.72 2397.73 1862.94 Q2394.58 1866.15 2389.35 1866.15 Q2383.36 1866.15 2380.18 1861.57 Q2377.01 1856.96 2377.01 1848.24 Q2377.01 1840.04 2380.9 1835.18 Q2384.79 1830.3 2391.34 1830.3 Q2393.1 1830.3 2394.88 1830.65 Q2396.69 1830.99 2398.63 1831.69 Z" fill="#000000" fill-rule="evenodd" fill-opacity="1" /><polyline clip-path="url(#clip442)" style="stroke:#000000; stroke-linecap:butt; stroke-linejoin:round; stroke-width:2; stroke-opacity:0.1; fill:none" points="
  152.071,1585.72 2640.76,1585.72 
  "/>
<polyline clip-path="url(#clip442)" style="stroke:#000000; stroke-linecap:butt; stroke-linejoin:round; stroke-width:2; stroke-opacity:0.1; fill:none" points="
  152.071,1254.87 2640.76,1254.87 
  "/>
<polyline clip-path="url(#clip442)" style="stroke:#000000; stroke-linecap:butt; stroke-linejoin:round; stroke-width:2; stroke-opacity:0.1; fill:none" points="
  152.071,924.007 2640.76,924.007 
  "/>
<polyline clip-path="url(#clip442)" style="stroke:#000000; stroke-linecap:butt; stroke-linejoin:round; stroke-width:2; stroke-opacity:0.1; fill:none" points="
  152.071,593.149 2640.76,593.149 
  "/>
<polyline clip-path="url(#clip442)" style="stroke:#000000; stroke-linecap:butt; stroke-linejoin:round; stroke-width:2; stroke-opacity:0.1; fill:none" points="
  152.071,262.291 2640.76,262.291 
  "/>
<polyline clip-path="url(#clip440)" style="stroke:#000000; stroke-linecap:butt; stroke-linejoin:round; stroke-width:4; stroke-opacity:1; fill:none" points="
  152.071,1800.78 152.071,47.2441 
  "/>
<polyline clip-path="url(#clip440)" style="stroke:#000000; stroke-linecap:butt; stroke-linejoin:round; stroke-width:4; stroke-opacity:1; fill:none" points="
  152.071,1585.72 170.969,1585.72 
  "/>
<polyline clip-path="url(#clip440)" style="stroke:#000000; stroke-linecap:butt; stroke-linejoin:round; stroke-width:4; stroke-opacity:1; fill:none" points="
  152.071,1254.87 170.969,1254.87 
  "/>
<polyline clip-path="url(#clip440)" style="stroke:#000000; stroke-linecap:butt; stroke-linejoin:round; stroke-width:4; stroke-opacity:1; fill:none" points="
  152.071,924.007 170.969,924.007 
  "/>
<polyline clip-path="url(#clip440)" style="stroke:#000000; stroke-linecap:butt; stroke-linejoin:round; stroke-width:4; stroke-opacity:1; fill:none" points="
  152.071,593.149 170.969,593.149 
  "/>
<polyline clip-path="url(#clip440)" style="stroke:#000000; stroke-linecap:butt; stroke-linejoin:round; stroke-width:4; stroke-opacity:1; fill:none" points="
  152.071,262.291 170.969,262.291 
  "/>
<path clip-path="url(#clip440)" d="M49.5521 1586.18 L79.2279 1586.18 L79.2279 1590.11 L49.5521 1590.11 L49.5521 1586.18 Z" fill="#000000" fill-rule="evenodd" fill-opacity="1" /><path clip-path="url(#clip440)" d="M102.168 1572.52 L90.3621 1590.97 L102.168 1590.97 L102.168 1572.52 M100.941 1568.44 L106.82 1568.44 L106.82 1590.97 L111.751 1590.97 L111.751 1594.86 L106.82 1594.86 L106.82 1603 L102.168 1603 L102.168 1594.86 L86.5658 1594.86 L86.5658 1590.34 L100.941 1568.44 Z" fill="#000000" fill-rule="evenodd" fill-opacity="1" /><path clip-path="url(#clip440)" d="M51.6354 1255.32 L81.3112 1255.32 L81.3112 1259.25 L51.6354 1259.25 L51.6354 1255.32 Z" fill="#000000" fill-rule="evenodd" fill-opacity="1" /><path clip-path="url(#clip440)" d="M95.4315 1268.21 L111.751 1268.21 L111.751 1272.15 L89.8065 1272.15 L89.8065 1268.21 Q92.4686 1265.46 97.0519 1260.83 Q101.658 1256.17 102.839 1254.83 Q105.084 1252.31 105.964 1250.57 Q106.867 1248.81 106.867 1247.12 Q106.867 1244.37 104.922 1242.63 Q103.001 1240.9 99.8991 1240.9 Q97.7 1240.9 95.2463 1241.66 Q92.8158 1242.42 90.038 1243.97 L90.038 1239.25 Q92.8621 1238.12 95.3158 1237.54 Q97.7695 1236.96 99.8065 1236.96 Q105.177 1236.96 108.371 1239.65 Q111.566 1242.33 111.566 1246.82 Q111.566 1248.95 110.756 1250.87 Q109.968 1252.77 107.862 1255.36 Q107.283 1256.03 104.181 1259.25 Q101.08 1262.45 95.4315 1268.21 Z" fill="#000000" fill-rule="evenodd" fill-opacity="1" /><path clip-path="url(#clip440)" d="M99.8065 909.806 Q96.1954 909.806 94.3667 913.371 Q92.5612 916.912 92.5612 924.042 Q92.5612 931.149 94.3667 934.713 Q96.1954 938.255 99.8065 938.255 Q103.441 938.255 105.246 934.713 Q107.075 931.149 107.075 924.042 Q107.075 916.912 105.246 913.371 Q103.441 909.806 99.8065 909.806 M99.8065 906.102 Q105.617 906.102 108.672 910.709 Q111.751 915.292 111.751 924.042 Q111.751 932.769 108.672 937.375 Q105.617 941.959 99.8065 941.959 Q93.9963 941.959 90.9176 937.375 Q87.8621 932.769 87.8621 924.042 Q87.8621 915.292 90.9176 910.709 Q93.9963 906.102 99.8065 906.102 Z" fill="#000000" fill-rule="evenodd" fill-opacity="1" /><path clip-path="url(#clip440)" d="M95.4315 606.494 L111.751 606.494 L111.751 610.429 L89.8065 610.429 L89.8065 606.494 Q92.4686 603.739 97.0519 599.11 Q101.658 594.457 102.839 593.114 Q105.084 590.591 105.964 588.855 Q106.867 587.096 106.867 585.406 Q106.867 582.652 104.922 580.915 Q103.001 579.179 99.8991 579.179 Q97.7 579.179 95.2463 579.943 Q92.8158 580.707 90.038 582.258 L90.038 577.536 Q92.8621 576.402 95.3158 575.823 Q97.7695 575.244 99.8065 575.244 Q105.177 575.244 108.371 577.929 Q111.566 580.615 111.566 585.105 Q111.566 587.235 110.756 589.156 Q109.968 591.054 107.862 593.647 Q107.283 594.318 104.181 597.536 Q101.08 600.73 95.4315 606.494 Z" fill="#000000" fill-rule="evenodd" fill-opacity="1" /><path clip-path="url(#clip440)" d="M102.168 249.085 L90.3621 267.534 L102.168 267.534 L102.168 249.085 M100.941 245.011 L106.82 245.011 L106.82 267.534 L111.751 267.534 L111.751 271.423 L106.82 271.423 L106.82 279.571 L102.168 279.571 L102.168 271.423 L86.5658 271.423 L86.5658 266.909 L100.941 245.011 Z" fill="#000000" fill-rule="evenodd" fill-opacity="1" /><polyline clip-path="url(#clip442)" style="stroke:#0000ff; stroke-linecap:butt; stroke-linejoin:round; stroke-width:4; stroke-opacity:1; fill:none" points="
  2223.52,924.007 2223.47,915.549 2223.34,907.091 2223.13,898.634 2222.82,890.181 2220.3,851.158 2215.94,812.298 2209.74,773.688 2201.73,735.413 2191.92,697.561 
  2180.32,660.214 2166.98,623.457 2151.91,587.372 2131.58,545.003 2108.86,503.857 2083.85,464.068 2056.62,425.764 2031.92,394.629 2005.77,364.715 1978.2,336.093 
  1949.29,308.827 1916.45,280.82 1882.18,254.564 1846.6,230.131 1809.79,207.588 1774.85,188.533 1739.04,171.18 1702.43,155.57 1665.12,141.738 1624.42,128.922 
  1583.12,118.22 1541.33,109.662 1499.14,103.271 1449.94,98.5981 1400.54,96.8724 1351.12,98.1005 1301.87,102.278 1258.38,108.454 1215.28,116.93 1172.68,127.682 
  1130.72,140.681 1094.54,153.899 1059.01,168.787 1024.21,185.313 990.225,203.442 954.173,224.986 919.262,248.333 885.58,273.422 853.215,300.187 822.071,328.735 
  792.426,358.835 764.356,390.41 737.934,423.377 710.724,461.343 685.701,500.785 662.944,541.576 642.526,583.586 625.329,624.568 610.359,666.414 597.658,709.004 
  587.262,752.215 578.931,797.669 573.151,843.516 569.941,889.615 569.31,935.822 570.78,974.695 574.077,1013.46 579.192,1052.02 586.114,1090.3 596.993,1136.53 
  610.508,1182.06 626.614,1226.73 645.256,1270.41 664.509,1309.43 685.787,1347.37 709.03,1384.15 734.175,1419.65 759.028,1451.23 785.384,1481.56 813.183,1510.57 
  842.357,1538.2 873.243,1564.71 905.395,1589.67 938.737,1613.02 973.186,1634.7 1013.01,1656.95 1054,1676.97 1096.03,1694.7 1138.97,1710.08 1178.56,1721.96 
  1218.7,1731.84 1259.28,1739.71 1300.2,1745.54 1347.34,1749.7 1394.65,1751.15 1441.95,1749.9 1489.11,1745.94 1532.51,1739.87 1575.53,1731.52 1618.04,1720.9 
  1659.93,1708.04 1700.51,1693.21 1740.25,1676.28 1779.06,1657.3 1816.83,1636.32 1852.4,1614.09 1886.79,1590.08 1919.93,1564.36 1951.72,1537 1982.82,1507.31 
  2012.34,1476.05 2040.2,1443.29 2066.32,1409.13 2092.85,1370.2 2117.12,1329.83 2139.05,1288.14 2158.58,1245.27 2171.22,1213.46 2182.53,1181.17 2192.49,1148.43 
  2201.09,1115.31 2214.15,1048.15 2221.61,980.129 2222.44,966.113 2223.04,952.085 2223.4,938.048 2223.52,924.007 
  "/>
<polyline clip-path="url(#clip442)" style="stroke:#000000; stroke-linecap:butt; stroke-linejoin:round; stroke-width:4; stroke-opacity:1; fill:none" points="
  2223.52,924.007 2223.5,920.624 2223.45,917.241 2223.36,913.858 2223.24,910.477 2222.23,894.868 2220.49,879.324 2218.01,863.88 2214.8,848.57 2210.88,833.429 
  2206.24,818.49 2200.9,803.787 2194.88,789.353 2186.74,772.405 2177.65,755.947 2167.65,740.032 2156.76,724.71 2146.88,712.256 2136.42,700.291 2125.39,688.842 
  2113.83,677.935 2100.69,666.732 2086.98,656.23 2072.75,646.457 2058.03,637.44 2044.05,629.818 2029.73,622.876 2015.08,616.632 2000.16,611.1 1983.88,605.973 
  1967.36,601.692 1950.64,598.269 1933.77,595.713 1914.08,593.844 1894.32,593.153 1874.56,593.645 1854.86,595.316 1837.46,597.786 1820.22,601.176 1803.18,605.477 
  1786.4,610.677 1771.93,615.964 1757.71,621.919 1743.8,628.53 1730.2,635.781 1715.78,644.399 1701.81,653.738 1688.34,663.773 1675.4,674.479 1662.94,685.898 
  1651.08,697.939 1639.85,710.569 1629.28,723.755 1618.4,738.942 1608.39,754.718 1599.29,771.035 1591.12,787.839 1584.24,804.232 1578.25,820.97 1573.17,838.006 
  1569.01,855.291 1565.68,873.472 1563.37,891.811 1562.09,910.251 1561.83,928.733 1562.42,944.282 1563.74,959.787 1565.79,975.212 1568.56,990.524 1572.91,1009.02 
  1578.31,1027.23 1584.76,1045.1 1592.21,1062.57 1599.91,1078.17 1608.42,1093.35 1617.72,1108.06 1627.78,1122.27 1637.72,1134.9 1648.26,1147.03 1659.38,1158.63 
  1671.05,1169.69 1683.41,1180.29 1696.27,1190.27 1709.6,1199.61 1723.38,1208.28 1739.31,1217.18 1755.71,1225.19 1772.52,1232.28 1789.7,1238.44 1805.53,1243.19 
  1821.59,1247.14 1837.82,1250.29 1854.19,1252.62 1873.05,1254.28 1891.97,1254.86 1910.89,1254.36 1929.76,1252.78 1947.11,1250.35 1964.32,1247.01 1981.33,1242.76 
  1998.08,1237.62 2014.31,1231.69 2030.21,1224.92 2045.73,1217.32 2060.84,1208.93 2075.07,1200.04 2088.83,1190.44 2102.08,1180.15 2114.8,1169.2 2127.24,1157.33 
  2139.05,1144.82 2150.19,1131.72 2160.64,1118.06 2171.25,1102.49 2180.96,1086.34 2189.73,1069.66 2197.54,1052.51 2202.6,1039.79 2207.12,1026.87 2211.11,1013.78 
  2214.55,1000.53 2219.77,973.662 2222.75,946.456 2223.09,940.85 2223.33,935.238 2223.47,929.624 2223.52,924.007 
  "/>
<polyline clip-path="url(#clip442)" style="stroke:#ff0000; stroke-linecap:butt; stroke-linejoin:round; stroke-width:4; stroke-opacity:1; fill:none" points="
  2157.34,924.007 2157.23,925.699 2156.9,927.386 2156.33,929.065 2155.55,930.733 2149.01,938.181 2137.76,944.919 2130.41,947.907 2121.93,950.58 2112.35,952.896 
  2101.7,954.813 2077.28,957.29 2048.96,957.709 2033.43,957.063 2017.04,955.804 1999.85,953.905 1981.88,951.341 1959.35,947.347 1935.88,942.326 1911.55,936.249 
  1886.47,929.094 1860.72,920.845 1834.42,911.494 1807.65,901.036 1780.52,889.476 1734.11,867.452 1687.44,842.398 1641.01,814.459 1595.27,783.83 1546.91,747.794 
  1500.44,709.244 1456.36,668.61 1415.12,626.374 1379.95,586.47 1347.77,546.087 1318.79,505.684 1293.16,465.73 1280.84,444.664 1269.52,423.937 1259.2,403.623 
  1249.89,383.796 1234.25,345.883 1222.53,310.757 1217.46,291.893 1213.61,274.24 1210.93,257.892 1209.37,242.936 1208.86,229.454 1209.34,217.522 1210.74,207.209 
  1212.97,198.578 1215.6,192.363 1218.76,187.554 1222.4,184.179 1226.45,182.262 1230.85,181.821 1235.53,182.869 1240.42,185.415 1245.45,189.46 1249.93,194.24 
  1254.42,200.166 1258.87,207.23 1263.25,215.419 1267.5,224.721 1271.58,235.115 1275.45,246.583 1279.06,259.1 1282.66,273.911 1285.86,289.899 1288.6,307.022 
  1290.85,325.235 1292.55,344.487 1293.67,364.728 1294.16,385.9 1294,407.947 1291.55,454.697 1286.09,504.205 1277.47,555.913 1265.6,609.236 1248.67,669.353 
  1227.81,729.898 1215.94,760.077 1203.17,790.062 1189.51,819.753 1175.02,849.056 1145.3,903.415 1113.11,955.425 1096.22,980.373 1078.88,1004.53 1061.16,1027.83 
  1043.12,1050.23 1024.11,1072.5 1004.91,1093.68 985.61,1113.72 966.298,1132.58 947.06,1150.23 927.985,1166.63 909.163,1181.76 890.685,1195.61 860.6,1216 
  832.169,1232.71 805.808,1245.78 781.915,1255.29 768.707,1259.41 756.641,1262.29 745.795,1263.99 736.242,1264.54 728.049,1264 721.278,1262.45 715.986,1259.94 
  712.223,1256.54 710.157,1252.7 709.441,1248.25 710.1,1243.23 712.153,1237.72 715.616,1231.77 720.498,1225.46 726.804,1218.84 734.534,1211.99 742.933,1205.52 
  752.534,1198.96 763.324,1192.36 775.288,1185.78 788.407,1179.28 802.657,1172.89 818.013,1166.68 834.444,1160.69 870.89,1149.43 911.295,1139.64 955.293,1131.65 
  1002.47,1125.78 1058.57,1122.02 1117.42,1121.52 1147.64,1122.55 1178.28,1124.46 1209.24,1127.27 1240.41,1130.97 1297.17,1139.97 1353.75,1151.87 1409.61,1166.57 
  1464.19,1183.9 1524.41,1206.66 1581.52,1232.16 1608.69,1245.77 1634.82,1259.87 1659.86,1274.38 1683.73,1289.22 1704.73,1303.19 1724.63,1317.31 1743.4,1331.5 
  1760.99,1345.7 1777.38,1359.84 1792.54,1373.84 1806.46,1387.63 1819.11,1401.13 1830.34,1414.09 1840.33,1426.63 1849.08,1438.68 1856.6,1450.17 1862.89,1461.04 
  1867.98,1471.21 1871.88,1480.62 1874.62,1489.22 1876.19,1496.72 1876.72,1503.35 1876.24,1509.04 1874.79,1513.76 1872.42,1517.46 1869.16,1520.09 1865.06,1521.63 
  1860.16,1522.03 1854.38,1521.24 1847.89,1519.2 1840.73,1515.89 1832.98,1511.29 1824.69,1505.39 1815.93,1498.16 1806.78,1489.62 1797.29,1479.77 1786.59,1467.46 
  1775.65,1453.58 1764.58,1438.16 1753.45,1421.23 1742.34,1402.81 1731.36,1382.95 1720.57,1361.69 1710.07,1339.09 1695.46,1303.99 1681.83,1266.39 1669.39,1226.52 
  1658.31,1184.62 1648.77,1140.96 1640.9,1095.84 1634.83,1049.54 1630.63,1002.4 1629.47,982.879 1628.64,963.293 1628.14,943.661 1627.97,924.007 
  "/>
</svg>
