<?xml version="1.0" encoding="utf-8"?>
<svg xmlns="http://www.w3.org/2000/svg" xmlns:xlink="http://www.w3.org/1999/xlink" width="672" height="480" viewBox="0 0 2688 1920">
<defs>
  <clipPath id="clip480">
    <rect x="0" y="0" width="2688" height="1920"/>
  </clipPath>
</defs>
<path clip-path="url(#clip480)" d="
M0 1920 L2688 1920 L2688 0 L0 0  Z
  " fill="#ffffff" fill-rule="evenodd" fill-opacity="1"/>
<defs>
  <clipPath id="clip481">
    <rect x="537" y="0" width="1883" height="1883"/>
  </clipPath>
</defs>
<path clip-path="url(#clip480)" d="
M152.071 1800.78 L2640.76 1800.78 L2640.76 47.2441 L152.071 47.2441  Z
  " fill="#ffffff" fill-rule="evenodd" fill-opacity="1"/>
<defs>
  <clipPath id="clip482">
    <rect x="152" y="47" width="2490" height="1755"/>
  </clipPath>
</defs>
<polyline clip-path="url(#clip482)" style="stroke:#000000; stroke-linecap:butt; stroke-linejoin:round; stroke-width:2; stroke-opacity:0.1; fill:none" points="
  403.797,1800.78 403.797,47.2441 
  "/>
<polyline clip-path="url(#clip482)" style="stroke:#000000; stroke-linecap:butt; stroke-linejoin:round; stroke-width:2; stroke-opacity:0.1; fill:none" points="
  734.655,1800.78 734.655,47.2441 
  "/>
<polyline clip-path="url(#clip482)" style="stroke:#000000; stroke-linecap:butt; stroke-linejoin:round; stroke-width:2; stroke-opacity:0.1; fill:none" points="
  1065.51,1800.78 1065.51,47.2441 
  "/>
<polyline clip-path="url(#clip482)" style="stroke:#000000; stroke-linecap:butt; stroke-linejoin:round; stroke-width:2; stroke-opacity:0.1; fill:none" points="
  1396.37,1800.78 1396.37,47.2441 
  "/>
<polyline clip-path="url(#clip482)" style="stroke:#000000; stroke-linecap:butt; stroke-linejoin:round; stroke-width:2; stroke-opacity:0.1; fill:none" points="
  1727.23,1800.78 1727.23,47.2441 
  "/>
<polyline clip-path="url(#clip482)" style="stroke:#000000; stroke-linecap:butt; stroke-linejoin:round; stroke-width:2; stroke-opacity:0.1; fill:none" points="
  2058.09,1800.78 2058.09,47.2441 
  "/>
<polyline clip-path="url(#clip482)" style="stroke:#000000; stroke-linecap:butt; stroke-linejoin:round; stroke-width:2; stroke-opacity:0.1; fill:none" points="
  2388.95,1800.78 2388.95,47.2441 
  "/>
<polyline clip-path="url(#clip480)" style="stroke:#000000; stroke-linecap:butt; stroke-linejoin:round; stroke-width:4; stroke-opacity:1; fill:none" points="
  152.071,1800.78 2640.76,1800.78 
  "/>
<polyline clip-path="url(#clip480)" style="stroke:#000000; stroke-linecap:butt; stroke-linejoin:round; stroke-width:4; stroke-opacity:1; fill:none" points="
  403.797,1800.78 403.797,1781.88 
  "/>
<polyline clip-path="url(#clip480)" style="stroke:#000000; stroke-linecap:butt; stroke-linejoin:round; stroke-width:4; stroke-opacity:1; fill:none" points="
  734.655,1800.78 734.655,1781.88 
  "/>
<polyline clip-path="url(#clip480)" style="stroke:#000000; stroke-linecap:butt; stroke-linejoin:round; stroke-width:4; stroke-opacity:1; fill:none" points="
  1065.51,1800.78 1065.51,1781.88 
  "/>
<polyline clip-path="url(#clip480)" style="stroke:#000000; stroke-linecap:butt; stroke-linejoin:round; stroke-width:4; stroke-opacity:1; fill:none" points="
  1396.37,1800.78 1396.37,1781.88 
  "/>
<polyline clip-path="url(#clip480)" style="stroke:#000000; stroke-linecap:butt; stroke-linejoin:round; stroke-width:4; stroke-opacity:1; fill:none" points="
  1727.23,1800.78 1727.23,1781.88 
  "/>
<polyline clip-path="url(#clip480)" style="stroke:#000000; stroke-linecap:butt; stroke-linejoin:round; stroke-width:4; stroke-opacity:1; fill:none" points="
  2058.09,1800.78 2058.09,1781.88 
  "/>
<polyline clip-path="url(#clip480)" style="stroke:#000000; stroke-linecap:butt; stroke-linejoin:round; stroke-width:4; stroke-opacity:1; fill:none" points="
  2388.95,1800.78 2388.95,1781.88 
  "/>
<path clip-path="url(#clip480)" d="M372.859 1848.65 L402.535 1848.65 L402.535 1852.59 L372.859 1852.59 L372.859 1848.65 Z" fill="#000000" fill-rule="evenodd" fill-opacity="1" /><path clip-path="url(#clip480)" d="M423.206 1846.34 Q420.058 1846.34 418.206 1848.49 Q416.378 1850.65 416.378 1854.4 Q416.378 1858.12 418.206 1860.3 Q420.058 1862.45 423.206 1862.45 Q426.354 1862.45 428.183 1860.3 Q430.035 1858.12 430.035 1854.4 Q430.035 1850.65 428.183 1848.49 Q426.354 1846.34 423.206 1846.34 M432.489 1831.69 L432.489 1835.95 Q430.729 1835.11 428.924 1834.67 Q427.142 1834.23 425.382 1834.23 Q420.753 1834.23 418.299 1837.36 Q415.868 1840.48 415.521 1846.8 Q416.887 1844.79 418.947 1843.72 Q421.007 1842.64 423.484 1842.64 Q428.692 1842.64 431.702 1845.81 Q434.734 1848.96 434.734 1854.4 Q434.734 1859.72 431.586 1862.94 Q428.438 1866.15 423.206 1866.15 Q417.211 1866.15 414.04 1861.57 Q410.868 1856.96 410.868 1848.24 Q410.868 1840.04 414.757 1835.18 Q418.646 1830.3 425.197 1830.3 Q426.956 1830.3 428.739 1830.65 Q430.544 1830.99 432.489 1831.69 Z" fill="#000000" fill-rule="evenodd" fill-opacity="1" /><path clip-path="url(#clip480)" d="M703.556 1848.65 L733.231 1848.65 L733.231 1852.59 L703.556 1852.59 L703.556 1848.65 Z" fill="#000000" fill-rule="evenodd" fill-opacity="1" /><path clip-path="url(#clip480)" d="M756.171 1835 L744.365 1853.45 L756.171 1853.45 L756.171 1835 M754.944 1830.92 L760.824 1830.92 L760.824 1853.45 L765.754 1853.45 L765.754 1857.34 L760.824 1857.34 L760.824 1865.48 L756.171 1865.48 L756.171 1857.34 L740.569 1857.34 L740.569 1852.82 L754.944 1830.92 Z" fill="#000000" fill-rule="evenodd" fill-opacity="1" /><path clip-path="url(#clip480)" d="M1035.46 1848.65 L1065.13 1848.65 L1065.13 1852.59 L1035.46 1852.59 L1035.46 1848.65 Z" fill="#000000" fill-rule="evenodd" fill-opacity="1" /><path clip-path="url(#clip480)" d="M1079.25 1861.55 L1095.57 1861.55 L1095.57 1865.48 L1073.63 1865.48 L1073.63 1861.55 Q1076.29 1858.79 1080.87 1854.16 Q1085.48 1849.51 1086.66 1848.17 Q1088.9 1845.65 1089.78 1843.91 Q1090.69 1842.15 1090.69 1840.46 Q1090.69 1837.71 1088.74 1835.97 Q1086.82 1834.23 1083.72 1834.23 Q1081.52 1834.23 1079.07 1835 Q1076.64 1835.76 1073.86 1837.31 L1073.86 1832.59 Q1076.68 1831.46 1079.14 1830.88 Q1081.59 1830.3 1083.63 1830.3 Q1089 1830.3 1092.19 1832.98 Q1095.39 1835.67 1095.39 1840.16 Q1095.39 1842.29 1094.58 1844.21 Q1093.79 1846.11 1091.68 1848.7 Q1091.1 1849.37 1088 1852.59 Q1084.9 1855.78 1079.25 1861.55 Z" fill="#000000" fill-rule="evenodd" fill-opacity="1" /><path clip-path="url(#clip480)" d="M1396.37 1834 Q1392.76 1834 1390.93 1837.57 Q1389.13 1841.11 1389.13 1848.24 Q1389.13 1855.34 1390.93 1858.91 Q1392.76 1862.45 1396.37 1862.45 Q1400.01 1862.45 1401.81 1858.91 Q1403.64 1855.34 1403.64 1848.24 Q1403.64 1841.11 1401.81 1837.57 Q1400.01 1834 1396.37 1834 M1396.37 1830.3 Q1402.18 1830.3 1405.24 1834.9 Q1408.32 1839.49 1408.32 1848.24 Q1408.32 1856.96 1405.24 1861.57 Q1402.18 1866.15 1396.37 1866.15 Q1390.56 1866.15 1387.48 1861.57 Q1384.43 1856.96 1384.43 1848.24 Q1384.43 1839.49 1387.48 1834.9 Q1390.56 1830.3 1396.37 1830.3 Z" fill="#000000" fill-rule="evenodd" fill-opacity="1" /><path clip-path="url(#clip480)" d="M1721.88 1861.55 L1738.2 1861.55 L1738.2 1865.48 L1716.26 1865.48 L1716.26 1861.55 Q1718.92 1858.79 1723.5 1854.16 Q1728.11 1849.51 1729.29 1848.17 Q1731.53 1845.65 1732.41 1843.91 Q1733.32 1842.15 1733.32 1840.46 Q1733.32 1837.71 1731.37 1835.97 Q1729.45 1834.23 1726.35 1834.23 Q1724.15 1834.23 1721.7 1835 Q1719.27 1835.76 1716.49 1837.31 L1716.49 1832.59 Q1719.31 1831.46 1721.77 1830.88 Q1724.22 1830.3 1726.26 1830.3 Q1731.63 1830.3 1734.82 1832.98 Q1738.02 1835.67 1738.02 1840.16 Q1738.02 1842.29 1737.21 1844.21 Q1736.42 1846.11 1734.31 1848.7 Q1733.73 1849.37 1730.63 1852.59 Q1727.53 1855.78 1721.88 1861.55 Z" fill="#000000" fill-rule="evenodd" fill-opacity="1" /><path clip-path="url(#clip480)" d="M2061.1 1835 L2049.29 1853.45 L2061.1 1853.45 L2061.1 1835 M2059.87 1830.92 L2065.75 1830.92 L2065.75 1853.45 L2070.68 1853.45 L2070.68 1857.34 L2065.75 1857.34 L2065.75 1865.48 L2061.1 1865.48 L2061.1 1857.34 L2045.49 1857.34 L2045.49 1852.82 L2059.87 1830.92 Z" fill="#000000" fill-rule="evenodd" fill-opacity="1" /><path clip-path="url(#clip480)" d="M2389.35 1846.34 Q2386.2 1846.34 2384.35 1848.49 Q2382.52 1850.65 2382.52 1854.4 Q2382.52 1858.12 2384.35 1860.3 Q2386.2 1862.45 2389.35 1862.45 Q2392.5 1862.45 2394.33 1860.3 Q2396.18 1858.12 2396.18 1854.4 Q2396.18 1850.65 2394.33 1848.49 Q2392.5 1846.34 2389.35 1846.34 M2398.63 1831.69 L2398.63 1835.95 Q2396.87 1835.11 2395.07 1834.67 Q2393.29 1834.23 2391.53 1834.23 Q2386.9 1834.23 2384.44 1837.36 Q2382.01 1840.48 2381.67 1846.8 Q2383.03 1844.79 2385.09 1843.72 Q2387.15 1842.64 2389.63 1842.64 Q2394.84 1842.64 2397.85 1845.81 Q2400.88 1848.96 2400.88 1854.4 Q2400.88 1859.72 2397.73 1862.94 Q2394.58 1866.15 2389.35 1866.15 Q2383.36 1866.15 2380.18 1861.57 Q2377.01 1856.96 2377.01 1848.24 Q2377.01 1840.04 2380.9 1835.18 Q2384.79 1830.3 2391.34 1830.3 Q2393.1 1830.3 2394.88 1830.65 Q2396.69 1830.99 2398.63 1831.69 Z" fill="#000000" fill-rule="evenodd" fill-opacity="1" /><polyline clip-path="url(#clip482)" style="stroke:#000000; stroke-linecap:butt; stroke-linejoin:round; stroke-width:2; stroke-opacity:0.1; fill:none" points="
  152.071,1585.72 2640.76,1585.72 
  "/>
<polyline clip-path="url(#clip482)" style="stroke:#000000; stroke-linecap:butt; stroke-linejoin:round; stroke-width:2; stroke-opacity:0.1; fill:none" points="
  152.071,1254.87 2640.76,1254.87 
  "/>
<polyline clip-path="url(#clip482)" style="stroke:#000000; stroke-linecap:butt; stroke-linejoin:round; stroke-width:2; stroke-opacity:0.1; fill:none" points="
  152.071,924.007 2640.76,924.007 
  "/>
<polyline clip-path="url(#clip482)" style="stroke:#000000; stroke-linecap:butt; stroke-linejoin:round; stroke-width:2; stroke-opacity:0.1; fill:none" points="
  152.071,593.149 2640.76,593.149 
  "/>
<polyline clip-path="url(#clip482)" style="stroke:#000000; stroke-linecap:butt; stroke-linejoin:round; stroke-width:2; stroke-opacity:0.1; fill:none" points="
  152.071,262.291 2640.76,262.291 
  "/>
<polyline clip-path="url(#clip480)" style="stroke:#000000; stroke-linecap:butt; stroke-linejoin:round; stroke-width:4; stroke-opacity:1; fill:none" points="
  152.071,1800.78 152.071,47.2441 
  "/>
<polyline clip-path="url(#clip480)" style="stroke:#000000; stroke-linecap:butt; stroke-linejoin:round; stroke-width:4; stroke-opacity:1; fill:none" points="
  152.071,1585.72 170.969,1585.72 
  "/>
<polyline clip-path="url(#clip480)" style="stroke:#000000; stroke-linecap:butt; stroke-linejoin:round; stroke-width:4; stroke-opacity:1; fill:none" points="
  152.071,1254.87 170.969,1254.87 
  "/>
<polyline clip-path="url(#clip480)" style="stroke:#000000; stroke-linecap:butt; stroke-linejoin:round; stroke-width:4; stroke-opacity:1; fill:none" points="
  152.071,924.007 170.969,924.007 
  "/>
<polyline clip-path="url(#clip480)" style="stroke:#000000; stroke-linecap:butt; stroke-linejoin:round; stroke-width:4; stroke-opacity:1; fill:none" points="
  152.071,593.149 170.969,593.149 
  "/>
<polyline clip-path="url(#clip480)" style="stroke:#000000; stroke-linecap:butt; stroke-linejoin:round; stroke-width:4; stroke-opacity:1; fill:none" points="
  152.071,262.291 170.969,262.291 
  "/>
<path clip-path="url(#clip480)" d="M49.5521 1586.18 L79.2279 1586.18 L79.2279 1590.11 L49.5521 1590.11 L49.5521 1586.18 Z" fill="#000000" fill-rule="evenodd" fill-opacity="1" /><path clip-path="url(#clip480)" d="M102.168 1572.52 L90.3621 1590.97 L102.168 1590.97 L102.168 1572.52 M100.941 1568.44 L106.82 1568.44 L106.82 1590.97 L111.751 1590.97 L111.751 1594.86 L106.82 1594.86 L106.82 1603 L102.168 1603 L102.168 1594.86 L86.5658 1594.86 L86.5658 1590.34 L100.941 1568.44 Z" fill="#000000" fill-rule="evenodd" fill-opacity="1" /><path clip-path="url(#clip480)" d="M51.6354 1255.32 L81.3112 1255.32 L81.3112 1259.25 L51.6354 1259.25 L51.6354 1255.32 Z" fill="#000000" fill-rule="evenodd" fill-opacity="1" /><path clip-path="url(#clip480)" d="M95.4315 1268.21 L111.751 1268.21 L111.751 1272.15 L89.8065 1272.15 L89.8065 1268.21 Q92.4686 1265.46 97.0519 1260.83 Q101.658 1256.17 102.839 1254.83 Q105.084 1252.31 105.964 1250.57 Q106.867 1248.81 106.867 1247.12 Q106.867 1244.37 104.922 1242.63 Q103.001 1240.9 99.8991 1240.9 Q97.7 1240.9 95.2463 1241.66 Q92.8158 1242.42 90.038 1243.97 L90.038 1239.25 Q92.8621 1238.12 95.3158 1237.54 Q97.7695 1236.96 99.8065 1236.96 Q105.177 1236.96 108.371 1239.65 Q111.566 1242.33 111.566 1246.82 Q111.566 1248.95 110.756 1250.87 Q109.968 1252.77 107.862 1255.36 Q107.283 1256.03 104.181 1259.25 Q101.08 1262.45 95.4315 1268.21 Z" fill="#000000" fill-rule="evenodd" fill-opacity="1" /><path clip-path="url(#clip480)" d="M99.8065 909.806 Q96.1954 909.806 94.3667 913.371 Q92.5612 916.912 92.5612 924.042 Q92.5612 931.149 94.3667 934.713 Q96.1954 938.255 99.8065 938.255 Q103.441 938.255 105.246 934.713 Q107.075 931.149 107.075 924.042 Q107.075 916.912 105.246 913.371 Q103.441 909.806 99.8065 909.806 M99.8065 906.102 Q105.617 906.102 108.672 910.709 Q111.751 915.292 111.751 924.042 Q111.751 932.769 108.672 937.375 Q105.617 941.959 99.8065 941.959 Q93.9963 941.959 90.9176 937.375 Q87.8621 932.769 87.8621 924.042 Q87.8621 915.292 90.9176 910.709 Q93.9963 906.102 99.8065 906.102 Z" fill="#000000" fill-rule="evenodd" fill-opacity="1" /><path clip-path="url(#clip480)" d="M95.4315 606.494 L111.751 606.494 L111.751 610.429 L89.8065 610.429 L89.8065 606.494 Q92.4686 603.739 97.0519 599.11 Q101.658 594.457 102.839 593.114 Q105.084 590.591 105.964 588.855 Q106.867 587.096 106.867 585.406 Q106.867 582.652 104.922 580.915 Q103.001 579.179 99.8991 579.179 Q97.7 579.179 95.2463 579.943 Q92.8158 580.707 90.038 582.258 L90.038 577.536 Q92.8621 576.402 95.3158 575.823 Q97.7695 575.244 99.8065 575.244 Q105.177 575.244 108.371 577.929 Q111.566 580.615 111.566 585.105 Q111.566 587.235 110.756 589.156 Q109.968 591.054 107.862 593.647 Q107.283 594.318 104.181 597.536 Q101.08 600.73 95.4315 606.494 Z" fill="#000000" fill-rule="evenodd" fill-opacity="1" /><path clip-path="url(#clip480)" d="M102.168 249.085 L90.3621 267.534 L102.168 267.534 L102.168 249.085 M100.941 245.011 L106.82 245.011 L106.82 267.534 L111.751 267.534 L111.751 271.423 L106.82 271.423 L106.82 279.571 L102.168 279.571 L102.168 271.423 L86.5658 271.423 L86.5658 266.909 L100.941 245.011 Z" fill="#000000" fill-rule="evenodd" fill-opacity="1" /><polyline clip-path="url(#clip482)" style="stroke:#0000ff; stroke-linecap:butt; stroke-linejoin:round; stroke-width:4; stroke-opacity:1; fill:none" points="
  2223.52,924.007 2223.47,915.549 2223.34,907.091 2223.13,898.634 2222.82,890.181 2220.3,851.158 2215.94,812.298 2209.74,773.688 2201.73,735.413 2191.92,697.561 
  2180.32,660.214 2166.98,623.457 2151.91,587.372 2131.58,545.003 2108.86,503.857 2083.85,464.068 2056.62,425.764 2031.92,394.629 2005.77,364.715 1978.2,336.093 
  1949.29,308.827 1916.45,280.82 1882.18,254.564 1846.6,230.131 1809.79,207.588 1774.85,188.533 1739.04,171.18 1702.43,155.57 1665.12,141.738 1624.42,128.922 
  1583.12,118.22 1541.33,109.662 1499.14,103.271 1449.94,98.5981 1400.54,96.8724 1351.12,98.1005 1301.87,102.278 1258.38,108.454 1215.28,116.93 1172.68,127.682 
  1130.72,140.681 1094.54,153.899 1059.01,168.787 1024.21,185.313 990.225,203.442 954.173,224.986 919.262,248.333 885.58,273.422 853.215,300.187 822.071,328.735 
  792.426,358.835 764.356,390.41 737.934,423.377 710.724,461.343 685.701,500.785 662.944,541.576 642.526,583.586 625.329,624.568 610.359,666.414 597.658,709.004 
  587.262,752.215 578.931,797.669 573.151,843.516 569.941,889.615 569.31,935.822 570.78,974.695 574.077,1013.46 579.192,1052.02 586.114,1090.3 596.993,1136.53 
  610.508,1182.06 626.614,1226.73 645.256,1270.41 664.509,1309.43 685.787,1347.37 709.03,1384.15 734.175,1419.65 759.028,1451.23 785.384,1481.56 813.183,1510.57 
  842.357,1538.2 873.243,1564.71 905.395,1589.67 938.737,1613.02 973.186,1634.7 1013.01,1656.95 1054,1676.97 1096.03,1694.7 1138.97,1710.08 1178.56,1721.96 
  1218.7,1731.84 1259.28,1739.71 1300.2,1745.54 1347.34,1749.7 1394.65,1751.15 1441.95,1749.9 1489.11,1745.94 1532.51,1739.87 1575.53,1731.52 1618.04,1720.9 
  1659.93,1708.04 1700.51,1693.21 1740.25,1676.28 1779.06,1657.3 1816.83,1636.32 1852.4,1614.09 1886.79,1590.08 1919.93,1564.36 1951.72,1537 1982.82,1507.31 
  2012.34,1476.05 2040.2,1443.29 2066.32,1409.13 2092.85,1370.2 2117.12,1329.83 2139.05,1288.14 2158.58,1245.27 2171.22,1213.46 2182.53,1181.17 2192.49,1148.43 
  2201.09,1115.31 2214.15,1048.15 2221.61,980.129 2222.44,966.113 2223.04,952.085 2223.4,938.048 2223.52,924.007 
  "/>
<polyline clip-path="url(#clip482)" style="stroke:#000000; stroke-linecap:butt; stroke-linejoin:round; stroke-width:4; stroke-opacity:1; fill:none" points="
  2223.52,924.007 2223.5,920.624 2223.45,917.241 2223.36,913.858 2223.24,910.477 2222.23,894.868 2220.49,879.324 2218.01,863.88 2214.8,848.57 2210.88,833.429 
  2206.24,818.49 2200.9,803.787 2194.88,789.353 2186.74,772.405 2177.65,755.947 2167.65,740.032 2156.76,724.71 2146.88,712.256 2136.42,700.291 2125.39,688.842 
  2113.83,677.935 2100.69,666.732 2086.98,656.23 2072.75,646.457 2058.03,637.44 2044.05,629.818 2029.73,622.876 2015.08,616.632 2000.16,611.1 1983.88,605.973 
  1967.36,601.692 1950.64,598.269 1933.77,595.713 1914.08,593.844 1894.32,593.153 1874.56,593.645 1854.86,595.316 1837.46,597.786 1820.22,601.176 1803.18,605.477 
  1786.4,610.677 1771.93,615.964 1757.71,621.919 1743.8,628.53 1730.2,635.781 1715.78,644.399 1701.81,653.738 1688.34,663.773 1675.4,674.479 1662.94,685.898 
  1651.08,697.939 1639.85,710.569 1629.28,723.755 1618.4,738.942 1608.39,754.718 1599.29,771.035 1591.12,787.839 1584.24,804.232 1578.25,820.97 1573.17,838.006 
  1569.01,855.291 1565.68,873.472 1563.37,891.811 1562.09,910.251 1561.83,928.733 1562.42,944.282 1563.74,959.787 1565.79,975.212 1568.56,990.524 1572.91,1009.02 
  1578.31,1027.23 1584.76,1045.1 1592.21,1062.57 1599.91,1078.17 1608.42,1093.35 1617.72,1108.06 1627.78,1122.27 1637.72,1134.9 1648.26,1147.03 1659.38,1158.63 
  1671.05,1169.69 1683.41,1180.29 1696.27,1190.27 1709.6,1199.61 1723.38,1208.28 1739.31,1217.18 1755.71,1225.19 1772.52,1232.28 1789.7,1238.44 1805.53,1243.19 
  1821.59,1247.14 1837.82,1250.29 1854.19,1252.62 1873.05,1254.28 1891.97,1254.86 1910.89,1254.36 1929.76,1252.78 1947.11,1250.35 1964.32,1247.01 1981.33,1242.76 
  1998.08,1237.62 2014.31,1231.69 2030.21,1224.92 2045.73,1217.32 2060.84,1208.93 2075.07,1200.04 2088.83,1190.44 2102.08,1180.15 2114.8,1169.2 2127.24,1157.33 
  2139.05,1144.82 2150.19,1131.72 2160.64,1118.06 2171.25,1102.49 2180.96,1086.34 2189.73,1069.66 2197.54,1052.51 2202.6,1039.79 2207.12,1026.87 2211.11,1013.78 
  2214.55,1000.53 2219.77,973.662 2222.75,946.456 2223.09,940.85 2223.33,935.238 2223.47,929.624 2223.52,924.007 
  "/>
<polyline clip-path="url(#clip482)" style="stroke:#ff0000; stroke-linecap:butt; stroke-linejoin:round; stroke-width:4; stroke-opacity:1; fill:none" points="
  2157.34,924.007 2156.9,927.386 2155.55,930.733 2153.3,934.018 2150.17,937.21 2145.44,940.744 2139.55,944.066 2132.51,947.13 2124.33,949.893 2115.04,952.309 
  2104.68,954.338 2093.25,955.937 2080.81,957.069 2067.38,957.696 2053,957.783 2037.7,957.296 2021.54,956.205 1986.8,952.099 1949.14,945.268 1908.99,935.557 
  1866.76,922.859 1822.91,907.114 1777.91,888.312 1732.21,866.491 1686.29,841.741 1640.6,814.202 1595.6,784.059 1543.01,744.714 1492.72,702.43 1445.36,657.77 
  1401.49,611.369 1381.01,587.73 1361.58,563.918 1343.23,540.029 1326.01,516.156 1309.94,492.397 1295.06,468.849 1281.38,445.611 1268.91,422.782 1259.32,403.871 
  1250.61,385.38 1242.76,367.368 1235.77,349.892 1224.33,316.77 1216.17,286.446 1211.13,259.326 1208.98,235.781 1208.91,225.457 1209.46,216.149 1210.61,207.893 
  1212.29,200.721 1214.7,194.193 1217.64,189.012 1221.06,185.207 1224.9,182.802 1229.1,181.816 1233.6,182.264 1238.33,184.155 1243.22,187.495 1248.22,192.281 
  1253.25,198.51 1258.25,206.17 1263.16,215.247 1267.92,225.72 1272.45,237.563 1276.71,250.747 1280.63,265.237 1283.9,279.719 1286.79,295.245 1289.25,311.777 
  1291.26,329.276 1293.75,367.001 1293.99,408.048 1291.76,452.01 1286.87,498.446 1279.18,546.891 1268.62,596.86 1254.08,651.558 1236.22,706.814 1215.15,762.009 
  1191.04,816.532 1164.13,869.796 1134.7,921.239 1103.13,970.339 1069.81,1016.62 1049.89,1041.97 1029.64,1066.16 1009.15,1089.11 988.516,1110.78 967.856,1131.1 
  947.273,1150.04 926.875,1167.55 906.773,1183.61 887.077,1198.2 867.896,1211.31 849.342,1222.93 831.521,1233.06 814.54,1241.73 798.502,1248.94 783.506,1254.74 
  769.651,1259.15 758.368,1261.94 748.12,1263.71 738.964,1264.49 730.954,1264.33 724.142,1263.27 718.575,1261.37 714.293,1258.68 711.337,1255.25 709.738,1251.15 
  709.525,1246.44 710.722,1241.17 713.348,1235.43 717.415,1229.26 722.931,1222.76 729.9,1215.97 738.318,1208.97 746.887,1202.72 756.556,1196.41 767.314,1190.09 
  779.144,1183.8 792.029,1177.59 805.949,1171.51 820.879,1165.59 836.792,1159.89 871.447,1149.27 909.643,1139.99 929.975,1135.93 951.072,1132.31 972.892,1129.16 
  995.388,1126.5 1046.55,1122.55 1100.16,1121.31 1155.67,1122.96 1212.48,1127.61 1270.02,1135.3 1327.66,1146.02 1384.82,1159.68 1440.91,1176.14 1495.67,1195.3 
  1548.23,1216.81 1598.07,1240.33 1644.73,1265.49 1666.74,1278.55 1687.8,1291.86 1707.87,1305.36 1726.91,1318.98 1744.89,1332.67 1761.78,1346.36 1777.55,1359.99 
  1792.17,1373.49 1806.99,1388.18 1820.38,1402.55 1832.32,1416.5 1842.82,1429.94 1851.86,1442.79 1859.47,1454.96 1865.66,1466.36 1870.44,1476.91 1873.86,1486.53 
  1875.93,1495.15 1876.71,1502.69 1876.23,1509.08 1874.55,1514.26 1871.73,1518.17 1867.82,1520.75 1862.89,1521.96 1857.32,1521.79 1850.94,1520.29 1843.84,1517.45 
  1836.07,1513.24 1827.7,1507.64 1818.81,1500.64 1809.47,1492.23 1799.74,1482.41 1789.72,1471.19 1779.46,1458.57 1769.06,1444.56 1758.57,1429.2 1748.07,1412.5 
  1737.63,1394.5 1727.34,1375.23 1717.24,1354.74 1707.04,1332.18 1697.19,1308.41 1687.78,1283.48 1678.87,1257.47 1670.52,1230.44 1662.79,1202.48 1655.73,1173.66 
  1649.39,1144.08 1639.02,1082.97 1631.96,1019.89 1628.4,955.614 1628.44,890.945 1631.27,836.793 1636.59,783.412 1644.3,731.268 1654.27,680.814 1666.29,632.48 
  1680.15,586.673 1695.56,543.764 1712.24,504.09 1722.9,481.591 1733.82,460.468 1744.93,440.775 1756.14,422.558 1767.35,405.858 1778.49,390.707 1789.46,377.132 
  1800.17,365.15 1810.53,354.774 1820.45,346.008 1829.83,338.849 1838.6,333.286 1846.66,329.304 1853.94,326.877 1860.34,325.976 1865.79,326.562 1869.88,328.368 
  1873.07,331.347 1875.29,335.458 1876.49,340.655 1876.65,346.887 1875.7,354.102 1873.62,362.242 1870.38,371.25 1865.95,381.062 1860.31,391.614 1853.43,402.84 
  1845.31,414.671 1835.93,427.038 1825.3,439.869 1813.41,453.094 1800.27,466.639 1787.04,479.371 1772.76,492.258 1757.45,505.243 1741.14,518.269 1723.85,531.282 
  1705.6,544.226 1686.42,557.048 1666.35,569.697 1623.69,594.274 1577.94,617.573 1529.49,639.246 1478.73,658.983 1425.44,676.728 1370.76,691.982 1315.2,704.571 
  1259.3,714.373 1203.62,721.323 1148.7,725.417 1095.08,726.705 1043.28,725.294 1015.25,723.383 988.035,720.71 961.723,717.316 936.392,713.247 912.116,708.553 
  888.967,703.287 867.012,697.508 846.311,691.277 826.922,684.659 808.896,677.722 792.28,670.537 777.112,663.177 763.429,655.715 751.258,648.229 740.622,640.795 
  731.538,633.492 724.655,627.053 719.058,620.843 714.746,614.921 711.713,609.343 709.951,604.167 709.446,599.448 710.181,595.239 712.134,591.595 715.281,588.565 
  719.592,586.198 725.035,584.542 731.574,583.64 739.17,583.535 747.78,584.264 757.359,585.866 767.858,588.371 780.945,592.388 795.091,597.668 810.213,604.244 
  826.224,612.143 843.034,621.384 860.551,631.981 878.68,643.941 897.327,657.264 916.393,671.942 935.783,687.96 955.399,705.3 975.146,723.931 994.929,743.821 
  1014.65,764.927 1034.23,787.202 1053.56,810.592 1088.45,856.643 1121.7,905.875 1152.87,957.797 1181.53,1011.86 1207.33,1067.47 1230.01,1124 1249.34,1180.8 
  1265.21,1237.2 1277.4,1291.75 1286.2,1344.61 1291.69,1395.17 1294.05,1442.82 1294.13,1465.38 1293.51,1487 1292.24,1507.63 1290.36,1527.2 1287.92,1545.65 
  1284.96,1562.95 1281.54,1579.02 1277.71,1593.84 1273.65,1606.98 1269.31,1618.87 1264.75,1629.47 1260.02,1638.76 1255.19,1646.71 1250.3,1653.33 1245.42,1658.58 
  1240.61,1662.47 1235.94,1664.99 1231.44,1666.14 1227.2,1665.94 1223.26,1664.38 1219.68,1661.5 1216.52,1657.3 1213.84,1651.81 1211.68,1645.06 1210.07,1636.86 
  1209.11,1627.41 1208.87,1616.74 1209.38,1604.91 1210.69,1591.97 1212.84,1577.96 1215.86,1562.96 1219.79,1547 1224.66,1530.17 1230.5,1512.52 1237.31,1494.12 
  1245.13,1475.05 1253.95,1455.37 1263.8,1435.15 1274.66,1414.48 1286.55,1393.42 1300.73,1370 1316.12,1346.3 1332.68,1322.42 1350.4,1298.48 1369.23,1274.55 
  1389.13,1250.74 1410.06,1227.14 1431.97,1203.84 1478.47,1158.49 1528.08,1115.35 1580.19,1075 1634.12,1037.96 1674.01,1013.38 1714.18,990.901 1754.31,970.627 
  1794.09,952.634 1833.22,936.967 1871.38,923.645 1908.27,912.653 1943.57,903.951 1977,897.468 2008.29,893.107 2037.16,890.746 2063.38,890.237 2086.73,891.412 
  2107,894.08 2124.03,898.034 2137.67,903.051 2146.24,907.796 2152.4,912.964 2156.11,918.415 2157.34,924.007 
  "/>
</svg>
