<?xml version="1.0" encoding="utf-8"?>
<svg xmlns="http://www.w3.org/2000/svg" xmlns:xlink="http://www.w3.org/1999/xlink" width="672" height="480" viewBox="0 0 2688 1920">
<defs>
  <clipPath id="clip370">
    <rect x="0" y="0" width="2688" height="1920"/>
  </clipPath>
</defs>
<path clip-path="url(#clip370)" d="
M0 1920 L2688 1920 L2688 0 L0 0  Z
  " fill="#ffffff" fill-rule="evenodd" fill-opacity="1"/>
<defs>
  <clipPath id="clip371">
    <rect x="537" y="0" width="1883" height="1883"/>
  </clipPath>
</defs>
<defs>
  <clipPath id="clip372">
    <rect x="141" y="47" width="2500" height="1755"/>
  </clipPath>
</defs>
<path clip-path="url(#clip372)" d="
M777.936 1395.11 L673.536 565.171 L1238.09 275.66 L2039.15 426.53 L1952.88 1204.86 L1579.33 1719.86 L777.936 1395.11  Z
  " fill="#ffffff" fill-rule="evenodd" fill-opacity="1"/>
<polyline clip-path="url(#clip372)" style="stroke:#000000; stroke-linecap:butt; stroke-linejoin:round; stroke-width:2; stroke-opacity:0.1; fill:none" points="
  762.231,1431.83 1267.07,1001.27 
  "/>
<polyline clip-path="url(#clip372)" style="stroke:#000000; stroke-linecap:butt; stroke-linejoin:round; stroke-width:2; stroke-opacity:0.1; fill:none" points="
  1267.07,1001.27 1250.17,240.753 
  "/>
<polyline clip-path="url(#clip372)" style="stroke:#000000; stroke-linecap:butt; stroke-linejoin:round; stroke-width:2; stroke-opacity:0.1; fill:none" points="
  944.019,1505.49 1428.04,1050.57 
  "/>
<polyline clip-path="url(#clip372)" style="stroke:#000000; stroke-linecap:butt; stroke-linejoin:round; stroke-width:2; stroke-opacity:0.1; fill:none" points="
  1428.04,1050.57 1433.19,275.22 
  "/>
<polyline clip-path="url(#clip372)" style="stroke:#000000; stroke-linecap:butt; stroke-linejoin:round; stroke-width:2; stroke-opacity:0.1; fill:none" points="
  1137.33,1583.83 1597.3,1102.41 
  "/>
<polyline clip-path="url(#clip372)" style="stroke:#000000; stroke-linecap:butt; stroke-linejoin:round; stroke-width:2; stroke-opacity:0.1; fill:none" points="
  1597.3,1102.41 1626.97,311.716 
  "/>
<polyline clip-path="url(#clip372)" style="stroke:#000000; stroke-linecap:butt; stroke-linejoin:round; stroke-width:2; stroke-opacity:0.1; fill:none" points="
  1343.31,1667.3 1775.48,1156.99 
  "/>
<polyline clip-path="url(#clip372)" style="stroke:#000000; stroke-linecap:butt; stroke-linejoin:round; stroke-width:2; stroke-opacity:0.1; fill:none" points="
  1775.48,1156.99 1832.5,350.424 
  "/>
<polyline clip-path="url(#clip372)" style="stroke:#000000; stroke-linecap:butt; stroke-linejoin:round; stroke-width:2; stroke-opacity:0.1; fill:none" points="
  1563.23,1756.41 1963.34,1214.53 
  "/>
<polyline clip-path="url(#clip372)" style="stroke:#000000; stroke-linecap:butt; stroke-linejoin:round; stroke-width:2; stroke-opacity:0.1; fill:none" points="
  1963.34,1214.53 2050.89,391.553 
  "/>
<polyline clip-path="url(#clip370)" style="stroke:#000000; stroke-linecap:butt; stroke-linejoin:round; stroke-width:4; stroke-opacity:1; fill:none" points="
  741.154,1423.29 1590.61,1767.51 
  "/>
<polyline clip-path="url(#clip370)" style="stroke:#000000; stroke-linecap:butt; stroke-linejoin:round; stroke-width:4; stroke-opacity:1; fill:none" points="
  762.231,1431.83 769.597,1425.55 
  "/>
<polyline clip-path="url(#clip370)" style="stroke:#000000; stroke-linecap:butt; stroke-linejoin:round; stroke-width:4; stroke-opacity:1; fill:none" points="
  944.019,1505.49 951.119,1498.82 
  "/>
<polyline clip-path="url(#clip370)" style="stroke:#000000; stroke-linecap:butt; stroke-linejoin:round; stroke-width:4; stroke-opacity:1; fill:none" points="
  1137.33,1583.83 1144.12,1576.73 
  "/>
<polyline clip-path="url(#clip370)" style="stroke:#000000; stroke-linecap:butt; stroke-linejoin:round; stroke-width:4; stroke-opacity:1; fill:none" points="
  1343.31,1667.3 1349.72,1659.72 
  "/>
<polyline clip-path="url(#clip370)" style="stroke:#000000; stroke-linecap:butt; stroke-linejoin:round; stroke-width:4; stroke-opacity:1; fill:none" points="
  1563.23,1756.41 1569.21,1748.32 
  "/>
<path clip-path="url(#clip370)" d="M643.173 1462.18 L672.849 1462.18 L672.849 1466.11 L643.173 1466.11 L643.173 1462.18 Z" fill="#000000" fill-rule="evenodd" fill-opacity="1" /><path clip-path="url(#clip370)" d="M683.752 1475.07 L691.39 1475.07 L691.39 1448.7 L683.08 1450.37 L683.08 1446.11 L691.344 1444.44 L696.02 1444.44 L696.02 1475.07 L703.659 1475.07 L703.659 1479 L683.752 1479 L683.752 1475.07 Z" fill="#000000" fill-rule="evenodd" fill-opacity="1" /><path clip-path="url(#clip370)" d="M713.103 1473.12 L717.988 1473.12 L717.988 1479 L713.103 1479 L713.103 1473.12 Z" fill="#000000" fill-rule="evenodd" fill-opacity="1" /><path clip-path="url(#clip370)" d="M738.173 1447.52 Q734.562 1447.52 732.733 1451.09 Q730.927 1454.63 730.927 1461.76 Q730.927 1468.87 732.733 1472.43 Q734.562 1475.97 738.173 1475.97 Q741.807 1475.97 743.612 1472.43 Q745.441 1468.87 745.441 1461.76 Q745.441 1454.63 743.612 1451.09 Q741.807 1447.52 738.173 1447.52 M738.173 1443.82 Q743.983 1443.82 747.038 1448.43 Q750.117 1453.01 750.117 1461.76 Q750.117 1470.49 747.038 1475.09 Q743.983 1479.68 738.173 1479.68 Q732.362 1479.68 729.284 1475.09 Q726.228 1470.49 726.228 1461.76 Q726.228 1453.01 729.284 1448.43 Q732.362 1443.82 738.173 1443.82 Z" fill="#000000" fill-rule="evenodd" fill-opacity="1" /><path clip-path="url(#clip370)" d="M825.956 1535.84 L855.631 1535.84 L855.631 1539.78 L825.956 1539.78 L825.956 1535.84 Z" fill="#000000" fill-rule="evenodd" fill-opacity="1" /><path clip-path="url(#clip370)" d="M875.724 1521.19 Q872.113 1521.19 870.284 1524.75 Q868.479 1528.29 868.479 1535.42 Q868.479 1542.53 870.284 1546.09 Q872.113 1549.64 875.724 1549.64 Q879.358 1549.64 881.164 1546.09 Q882.992 1542.53 882.992 1535.42 Q882.992 1528.29 881.164 1524.75 Q879.358 1521.19 875.724 1521.19 M875.724 1517.48 Q881.534 1517.48 884.59 1522.09 Q887.668 1526.67 887.668 1535.42 Q887.668 1544.15 884.59 1548.76 Q881.534 1553.34 875.724 1553.34 Q869.914 1553.34 866.835 1548.76 Q863.78 1544.15 863.78 1535.42 Q863.78 1526.67 866.835 1522.09 Q869.914 1517.48 875.724 1517.48 Z" fill="#000000" fill-rule="evenodd" fill-opacity="1" /><path clip-path="url(#clip370)" d="M895.886 1546.79 L900.77 1546.79 L900.77 1552.67 L895.886 1552.67 L895.886 1546.79 Z" fill="#000000" fill-rule="evenodd" fill-opacity="1" /><path clip-path="url(#clip370)" d="M911.002 1518.11 L929.358 1518.11 L929.358 1522.04 L915.284 1522.04 L915.284 1530.52 Q916.302 1530.17 917.321 1530.01 Q918.339 1529.82 919.358 1529.82 Q925.145 1529.82 928.525 1532.99 Q931.904 1536.16 931.904 1541.58 Q931.904 1547.16 928.432 1550.26 Q924.96 1553.34 918.64 1553.34 Q916.464 1553.34 914.196 1552.97 Q911.951 1552.6 909.543 1551.86 L909.543 1547.16 Q911.627 1548.29 913.849 1548.85 Q916.071 1549.4 918.548 1549.4 Q922.552 1549.4 924.89 1547.3 Q927.228 1545.19 927.228 1541.58 Q927.228 1537.97 924.89 1535.86 Q922.552 1533.76 918.548 1533.76 Q916.673 1533.76 914.798 1534.17 Q912.946 1534.59 911.002 1535.47 L911.002 1518.11 Z" fill="#000000" fill-rule="evenodd" fill-opacity="1" /><path clip-path="url(#clip370)" d="M1068.04 1599.52 Q1064.43 1599.52 1062.6 1603.09 Q1060.8 1606.63 1060.8 1613.76 Q1060.8 1620.87 1062.6 1624.43 Q1064.43 1627.97 1068.04 1627.97 Q1071.68 1627.97 1073.48 1624.43 Q1075.31 1620.87 1075.31 1613.76 Q1075.31 1606.63 1073.48 1603.09 Q1071.68 1599.52 1068.04 1599.52 M1068.04 1595.82 Q1073.85 1595.82 1076.91 1600.43 Q1079.99 1605.01 1079.99 1613.76 Q1079.99 1622.49 1076.91 1627.09 Q1073.85 1631.68 1068.04 1631.68 Q1062.23 1631.68 1059.15 1627.09 Q1056.1 1622.49 1056.1 1613.76 Q1056.1 1605.01 1059.15 1600.43 Q1062.23 1595.82 1068.04 1595.82 Z" fill="#000000" fill-rule="evenodd" fill-opacity="1" /><path clip-path="url(#clip370)" d="M1088.21 1625.13 L1093.09 1625.13 L1093.09 1631 L1088.21 1631 L1088.21 1625.13 Z" fill="#000000" fill-rule="evenodd" fill-opacity="1" /><path clip-path="url(#clip370)" d="M1113.27 1599.52 Q1109.66 1599.52 1107.83 1603.09 Q1106.03 1606.63 1106.03 1613.76 Q1106.03 1620.87 1107.83 1624.43 Q1109.66 1627.97 1113.27 1627.97 Q1116.91 1627.97 1118.71 1624.43 Q1120.54 1620.87 1120.54 1613.76 Q1120.54 1606.63 1118.71 1603.09 Q1116.91 1599.52 1113.27 1599.52 M1113.27 1595.82 Q1119.08 1595.82 1122.14 1600.43 Q1125.22 1605.01 1125.22 1613.76 Q1125.22 1622.49 1122.14 1627.09 Q1119.08 1631.68 1113.27 1631.68 Q1107.46 1631.68 1104.39 1627.09 Q1101.33 1622.49 1101.33 1613.76 Q1101.33 1605.01 1104.39 1600.43 Q1107.46 1595.82 1113.27 1595.82 Z" fill="#000000" fill-rule="evenodd" fill-opacity="1" /><path clip-path="url(#clip370)" d="M1275.01 1682.99 Q1271.4 1682.99 1269.57 1686.55 Q1267.77 1690.1 1267.77 1697.23 Q1267.77 1704.33 1269.57 1707.9 Q1271.4 1711.44 1275.01 1711.44 Q1278.65 1711.44 1280.45 1707.9 Q1282.28 1704.33 1282.28 1697.23 Q1282.28 1690.1 1280.45 1686.55 Q1278.65 1682.99 1275.01 1682.99 M1275.01 1679.29 Q1280.82 1679.29 1283.88 1683.89 Q1286.96 1688.48 1286.96 1697.23 Q1286.96 1705.95 1283.88 1710.56 Q1280.82 1715.14 1275.01 1715.14 Q1269.2 1715.14 1266.12 1710.56 Q1263.07 1705.95 1263.07 1697.23 Q1263.07 1688.48 1266.12 1683.89 Q1269.2 1679.29 1275.01 1679.29 Z" fill="#000000" fill-rule="evenodd" fill-opacity="1" /><path clip-path="url(#clip370)" d="M1295.18 1708.59 L1300.06 1708.59 L1300.06 1714.47 L1295.18 1714.47 L1295.18 1708.59 Z" fill="#000000" fill-rule="evenodd" fill-opacity="1" /><path clip-path="url(#clip370)" d="M1310.29 1679.91 L1328.65 1679.91 L1328.65 1683.85 L1314.57 1683.85 L1314.57 1692.32 Q1315.59 1691.97 1316.61 1691.81 Q1317.63 1691.62 1318.65 1691.62 Q1324.43 1691.62 1327.81 1694.79 Q1331.19 1697.97 1331.19 1703.38 Q1331.19 1708.96 1327.72 1712.06 Q1324.25 1715.14 1317.93 1715.14 Q1315.75 1715.14 1313.49 1714.77 Q1311.24 1714.4 1308.83 1713.66 L1308.83 1708.96 Q1310.92 1710.1 1313.14 1710.65 Q1315.36 1711.21 1317.84 1711.21 Q1321.84 1711.21 1324.18 1709.1 Q1326.52 1706.99 1326.52 1703.38 Q1326.52 1699.77 1324.18 1697.67 Q1321.84 1695.56 1317.84 1695.56 Q1315.96 1695.56 1314.09 1695.98 Q1312.24 1696.39 1310.29 1697.27 L1310.29 1679.91 Z" fill="#000000" fill-rule="evenodd" fill-opacity="1" /><path clip-path="url(#clip370)" d="M1484.75 1799.65 L1492.39 1799.65 L1492.39 1773.29 L1484.08 1774.95 L1484.08 1770.69 L1492.34 1769.03 L1497.02 1769.03 L1497.02 1799.65 L1504.66 1799.65 L1504.66 1803.59 L1484.75 1803.59 L1484.75 1799.65 Z" fill="#000000" fill-rule="evenodd" fill-opacity="1" /><path clip-path="url(#clip370)" d="M1514.1 1797.71 L1518.99 1797.71 L1518.99 1803.59 L1514.1 1803.59 L1514.1 1797.71 Z" fill="#000000" fill-rule="evenodd" fill-opacity="1" /><path clip-path="url(#clip370)" d="M1539.17 1772.11 Q1535.56 1772.11 1533.73 1775.67 Q1531.93 1779.21 1531.93 1786.34 Q1531.93 1793.45 1533.73 1797.01 Q1535.56 1800.56 1539.17 1800.56 Q1542.8 1800.56 1544.61 1797.01 Q1546.44 1793.45 1546.44 1786.34 Q1546.44 1779.21 1544.61 1775.67 Q1542.8 1772.11 1539.17 1772.11 M1539.17 1768.4 Q1544.98 1768.4 1548.04 1773.01 Q1551.11 1777.59 1551.11 1786.34 Q1551.11 1795.07 1548.04 1799.68 Q1544.98 1804.26 1539.17 1804.26 Q1533.36 1804.26 1530.28 1799.68 Q1527.23 1795.07 1527.23 1786.34 Q1527.23 1777.59 1530.28 1773.01 Q1533.36 1768.4 1539.17 1768.4 Z" fill="#000000" fill-rule="evenodd" fill-opacity="1" /><polyline clip-path="url(#clip372)" style="stroke:#000000; stroke-linecap:butt; stroke-linejoin:round; stroke-width:2; stroke-opacity:0.1; fill:none" points="
  1604.49,1748.38 758.496,1408.66 
  "/>
<polyline clip-path="url(#clip372)" style="stroke:#000000; stroke-linecap:butt; stroke-linejoin:round; stroke-width:2; stroke-opacity:0.1; fill:none" points="
  758.496,1408.66 651.558,532.808 
  "/>
<polyline clip-path="url(#clip372)" style="stroke:#000000; stroke-linecap:butt; stroke-linejoin:round; stroke-width:2; stroke-opacity:0.1; fill:none" points="
  1713.2,1598.5 895.426,1293.16 
  "/>
<polyline clip-path="url(#clip372)" style="stroke:#000000; stroke-linecap:butt; stroke-linejoin:round; stroke-width:2; stroke-opacity:0.1; fill:none" points="
  895.426,1293.16 816.356,448.301 
  "/>
<polyline clip-path="url(#clip372)" style="stroke:#000000; stroke-linecap:butt; stroke-linejoin:round; stroke-width:2; stroke-opacity:0.1; fill:none" points="
  1810.54,1464.3 1019.65,1188.38 
  "/>
<polyline clip-path="url(#clip372)" style="stroke:#000000; stroke-linecap:butt; stroke-linejoin:round; stroke-width:2; stroke-opacity:0.1; fill:none" points="
  1019.65,1188.38 963.553,372.819 
  "/>
<polyline clip-path="url(#clip372)" style="stroke:#000000; stroke-linecap:butt; stroke-linejoin:round; stroke-width:2; stroke-opacity:0.1; fill:none" points="
  1898.19,1343.46 1132.86,1092.89 
  "/>
<polyline clip-path="url(#clip372)" style="stroke:#000000; stroke-linecap:butt; stroke-linejoin:round; stroke-width:2; stroke-opacity:0.1; fill:none" points="
  1132.86,1092.89 1095.82,304.99 
  "/>
<polyline clip-path="url(#clip372)" style="stroke:#000000; stroke-linecap:butt; stroke-linejoin:round; stroke-width:2; stroke-opacity:0.1; fill:none" points="
  1977.53,1234.07 1236.45,1005.5 
  "/>
<polyline clip-path="url(#clip372)" style="stroke:#000000; stroke-linecap:butt; stroke-linejoin:round; stroke-width:2; stroke-opacity:0.1; fill:none" points="
  1236.45,1005.5 1215.33,243.706 
  "/>
<polyline clip-path="url(#clip370)" style="stroke:#000000; stroke-linecap:butt; stroke-linejoin:round; stroke-width:4; stroke-opacity:1; fill:none" points="
  1590.61,1767.51 1986.55,1221.64 
  "/>
<polyline clip-path="url(#clip370)" style="stroke:#000000; stroke-linecap:butt; stroke-linejoin:round; stroke-width:4; stroke-opacity:1; fill:none" points="
  1604.49,1748.38 1592.9,1743.73 
  "/>
<polyline clip-path="url(#clip370)" style="stroke:#000000; stroke-linecap:butt; stroke-linejoin:round; stroke-width:4; stroke-opacity:1; fill:none" points="
  1713.2,1598.5 1702.08,1594.34 
  "/>
<polyline clip-path="url(#clip370)" style="stroke:#000000; stroke-linecap:butt; stroke-linejoin:round; stroke-width:4; stroke-opacity:1; fill:none" points="
  1810.54,1464.3 1799.85,1460.57 
  "/>
<polyline clip-path="url(#clip370)" style="stroke:#000000; stroke-linecap:butt; stroke-linejoin:round; stroke-width:4; stroke-opacity:1; fill:none" points="
  1898.19,1343.46 1887.9,1340.09 
  "/>
<polyline clip-path="url(#clip370)" style="stroke:#000000; stroke-linecap:butt; stroke-linejoin:round; stroke-width:4; stroke-opacity:1; fill:none" points="
  1977.53,1234.07 1967.62,1231.02 
  "/>
<path clip-path="url(#clip370)" d="M1630.6 1767.77 L1660.27 1767.77 L1660.27 1771.7 L1630.6 1771.7 L1630.6 1767.77 Z" fill="#000000" fill-rule="evenodd" fill-opacity="1" /><path clip-path="url(#clip370)" d="M1671.17 1780.66 L1678.81 1780.66 L1678.81 1754.3 L1670.5 1755.96 L1670.5 1751.7 L1678.77 1750.04 L1683.44 1750.04 L1683.44 1780.66 L1691.08 1780.66 L1691.08 1784.6 L1671.17 1784.6 L1671.17 1780.66 Z" fill="#000000" fill-rule="evenodd" fill-opacity="1" /><path clip-path="url(#clip370)" d="M1700.53 1778.72 L1705.41 1778.72 L1705.41 1784.6 L1700.53 1784.6 L1700.53 1778.72 Z" fill="#000000" fill-rule="evenodd" fill-opacity="1" /><path clip-path="url(#clip370)" d="M1725.6 1753.12 Q1721.98 1753.12 1720.16 1756.68 Q1718.35 1760.22 1718.35 1767.35 Q1718.35 1774.46 1720.16 1778.02 Q1721.98 1781.56 1725.6 1781.56 Q1729.23 1781.56 1731.04 1778.02 Q1732.86 1774.46 1732.86 1767.35 Q1732.86 1760.22 1731.04 1756.68 Q1729.23 1753.12 1725.6 1753.12 M1725.6 1749.41 Q1731.41 1749.41 1734.46 1754.02 Q1737.54 1758.6 1737.54 1767.35 Q1737.54 1776.08 1734.46 1780.68 Q1731.41 1785.27 1725.6 1785.27 Q1719.79 1785.27 1716.71 1780.68 Q1713.65 1776.08 1713.65 1767.35 Q1713.65 1758.6 1716.71 1754.02 Q1719.79 1749.41 1725.6 1749.41 Z" fill="#000000" fill-rule="evenodd" fill-opacity="1" /><path clip-path="url(#clip370)" d="M1739.31 1617.89 L1768.99 1617.89 L1768.99 1621.82 L1739.31 1621.82 L1739.31 1617.89 Z" fill="#000000" fill-rule="evenodd" fill-opacity="1" /><path clip-path="url(#clip370)" d="M1789.08 1603.23 Q1785.47 1603.23 1783.64 1606.8 Q1781.83 1610.34 1781.83 1617.47 Q1781.83 1624.58 1783.64 1628.14 Q1785.47 1631.68 1789.08 1631.68 Q1792.71 1631.68 1794.52 1628.14 Q1796.35 1624.58 1796.35 1617.47 Q1796.35 1610.34 1794.52 1606.8 Q1792.71 1603.23 1789.08 1603.23 M1789.08 1599.53 Q1794.89 1599.53 1797.95 1604.14 Q1801.02 1608.72 1801.02 1617.47 Q1801.02 1626.2 1797.95 1630.8 Q1794.89 1635.39 1789.08 1635.39 Q1783.27 1635.39 1780.19 1630.8 Q1777.14 1626.2 1777.14 1617.47 Q1777.14 1608.72 1780.19 1604.14 Q1783.27 1599.53 1789.08 1599.53 Z" fill="#000000" fill-rule="evenodd" fill-opacity="1" /><path clip-path="url(#clip370)" d="M1809.24 1628.83 L1814.13 1628.83 L1814.13 1634.71 L1809.24 1634.71 L1809.24 1628.83 Z" fill="#000000" fill-rule="evenodd" fill-opacity="1" /><path clip-path="url(#clip370)" d="M1824.36 1600.15 L1842.71 1600.15 L1842.71 1604.09 L1828.64 1604.09 L1828.64 1612.56 Q1829.66 1612.21 1830.68 1612.05 Q1831.7 1611.87 1832.71 1611.87 Q1838.5 1611.87 1841.88 1615.04 Q1845.26 1618.21 1845.26 1623.63 Q1845.26 1629.21 1841.79 1632.31 Q1838.32 1635.39 1832 1635.39 Q1829.82 1635.39 1827.55 1635.02 Q1825.31 1634.64 1822.9 1633.9 L1822.9 1629.21 Q1824.98 1630.34 1827.21 1630.89 Q1829.43 1631.45 1831.9 1631.45 Q1835.91 1631.45 1838.25 1629.34 Q1840.58 1627.24 1840.58 1623.63 Q1840.58 1620.02 1838.25 1617.91 Q1835.91 1615.8 1831.9 1615.8 Q1830.03 1615.8 1828.15 1616.22 Q1826.3 1616.64 1824.36 1617.52 L1824.36 1600.15 Z" fill="#000000" fill-rule="evenodd" fill-opacity="1" /><path clip-path="url(#clip370)" d="M1848.59 1469.04 Q1844.98 1469.04 1843.15 1472.61 Q1841.35 1476.15 1841.35 1483.28 Q1841.35 1490.38 1843.15 1493.95 Q1844.98 1497.49 1848.59 1497.49 Q1852.23 1497.49 1854.03 1493.95 Q1855.86 1490.38 1855.86 1483.28 Q1855.86 1476.15 1854.03 1472.61 Q1852.23 1469.04 1848.59 1469.04 M1848.59 1465.34 Q1854.4 1465.34 1857.46 1469.94 Q1860.54 1474.53 1860.54 1483.28 Q1860.54 1492 1857.46 1496.61 Q1854.4 1501.19 1848.59 1501.19 Q1842.78 1501.19 1839.7 1496.61 Q1836.65 1492 1836.65 1483.28 Q1836.65 1474.53 1839.7 1469.94 Q1842.78 1465.34 1848.59 1465.34 Z" fill="#000000" fill-rule="evenodd" fill-opacity="1" /><path clip-path="url(#clip370)" d="M1868.75 1494.64 L1873.64 1494.64 L1873.64 1500.52 L1868.75 1500.52 L1868.75 1494.64 Z" fill="#000000" fill-rule="evenodd" fill-opacity="1" /><path clip-path="url(#clip370)" d="M1893.82 1469.04 Q1890.21 1469.04 1888.38 1472.61 Q1886.58 1476.15 1886.58 1483.28 Q1886.58 1490.38 1888.38 1493.95 Q1890.21 1497.49 1893.82 1497.49 Q1897.46 1497.49 1899.26 1493.95 Q1901.09 1490.38 1901.09 1483.28 Q1901.09 1476.15 1899.26 1472.61 Q1897.46 1469.04 1893.82 1469.04 M1893.82 1465.34 Q1899.63 1465.34 1902.69 1469.94 Q1905.77 1474.53 1905.77 1483.28 Q1905.77 1492 1902.69 1496.61 Q1899.63 1501.19 1893.82 1501.19 Q1888.01 1501.19 1884.93 1496.61 Q1881.88 1492 1881.88 1483.28 Q1881.88 1474.53 1884.93 1469.94 Q1888.01 1465.34 1893.82 1465.34 Z" fill="#000000" fill-rule="evenodd" fill-opacity="1" /><path clip-path="url(#clip370)" d="M1936.24 1348.2 Q1932.63 1348.2 1930.8 1351.76 Q1929 1355.31 1929 1362.44 Q1929 1369.54 1930.8 1373.11 Q1932.63 1376.65 1936.24 1376.65 Q1939.88 1376.65 1941.68 1373.11 Q1943.51 1369.54 1943.51 1362.44 Q1943.51 1355.31 1941.68 1351.76 Q1939.88 1348.2 1936.24 1348.2 M1936.24 1344.5 Q1942.05 1344.5 1945.11 1349.1 Q1948.19 1353.69 1948.19 1362.44 Q1948.19 1371.16 1945.11 1375.77 Q1942.05 1380.35 1936.24 1380.35 Q1930.43 1380.35 1927.35 1375.77 Q1924.3 1371.16 1924.3 1362.44 Q1924.3 1353.69 1927.35 1349.1 Q1930.43 1344.5 1936.24 1344.5 Z" fill="#000000" fill-rule="evenodd" fill-opacity="1" /><path clip-path="url(#clip370)" d="M1956.4 1373.8 L1961.29 1373.8 L1961.29 1379.68 L1956.4 1379.68 L1956.4 1373.8 Z" fill="#000000" fill-rule="evenodd" fill-opacity="1" /><path clip-path="url(#clip370)" d="M1971.52 1345.12 L1989.88 1345.12 L1989.88 1349.06 L1975.8 1349.06 L1975.8 1357.53 Q1976.82 1357.18 1977.84 1357.02 Q1978.86 1356.83 1979.88 1356.83 Q1985.66 1356.83 1989.04 1360 Q1992.42 1363.18 1992.42 1368.59 Q1992.42 1374.17 1988.95 1377.27 Q1985.48 1380.35 1979.16 1380.35 Q1976.98 1380.35 1974.71 1379.98 Q1972.47 1379.61 1970.06 1378.87 L1970.06 1374.17 Q1972.15 1375.31 1974.37 1375.86 Q1976.59 1376.42 1979.07 1376.42 Q1983.07 1376.42 1985.41 1374.31 Q1987.75 1372.2 1987.75 1368.59 Q1987.75 1364.98 1985.41 1362.88 Q1983.07 1360.77 1979.07 1360.77 Q1977.19 1360.77 1975.32 1361.19 Q1973.46 1361.6 1971.52 1362.48 L1971.52 1345.12 Z" fill="#000000" fill-rule="evenodd" fill-opacity="1" /><path clip-path="url(#clip370)" d="M2004.31 1266.36 L2011.95 1266.36 L2011.95 1239.99 L2003.64 1241.66 L2003.64 1237.4 L2011.91 1235.73 L2016.58 1235.73 L2016.58 1266.36 L2024.22 1266.36 L2024.22 1270.29 L2004.31 1270.29 L2004.31 1266.36 Z" fill="#000000" fill-rule="evenodd" fill-opacity="1" /><path clip-path="url(#clip370)" d="M2033.67 1264.41 L2038.55 1264.41 L2038.55 1270.29 L2033.67 1270.29 L2033.67 1264.41 Z" fill="#000000" fill-rule="evenodd" fill-opacity="1" /><path clip-path="url(#clip370)" d="M2058.74 1238.81 Q2055.12 1238.81 2053.3 1242.37 Q2051.49 1245.92 2051.49 1253.05 Q2051.49 1260.15 2053.3 1263.72 Q2055.12 1267.26 2058.74 1267.26 Q2062.37 1267.26 2064.18 1263.72 Q2066 1260.15 2066 1253.05 Q2066 1245.92 2064.18 1242.37 Q2062.37 1238.81 2058.74 1238.81 M2058.74 1235.11 Q2064.55 1235.11 2067.6 1239.71 Q2070.68 1244.3 2070.68 1253.05 Q2070.68 1261.77 2067.6 1266.38 Q2064.55 1270.96 2058.74 1270.96 Q2052.93 1270.96 2049.85 1266.38 Q2046.79 1261.77 2046.79 1253.05 Q2046.79 1244.3 2049.85 1239.71 Q2052.93 1235.11 2058.74 1235.11 Z" fill="#000000" fill-rule="evenodd" fill-opacity="1" /><polyline clip-path="url(#clip372)" style="stroke:#000000; stroke-linecap:butt; stroke-linejoin:round; stroke-width:2; stroke-opacity:0.1; fill:none" points="
  738.467,1401.93 1247.81,976.54 
  "/>
<polyline clip-path="url(#clip372)" style="stroke:#000000; stroke-linecap:butt; stroke-linejoin:round; stroke-width:2; stroke-opacity:0.1; fill:none" points="
  1247.81,976.54 1988.8,1201.32 
  "/>
<polyline clip-path="url(#clip372)" style="stroke:#000000; stroke-linecap:butt; stroke-linejoin:round; stroke-width:2; stroke-opacity:0.1; fill:none" points="
  713.702,1205.06 1243.37,802.996 
  "/>
<polyline clip-path="url(#clip372)" style="stroke:#000000; stroke-linecap:butt; stroke-linejoin:round; stroke-width:2; stroke-opacity:0.1; fill:none" points="
  1243.37,802.996 2009.48,1014.77 
  "/>
<polyline clip-path="url(#clip372)" style="stroke:#000000; stroke-linecap:butt; stroke-linejoin:round; stroke-width:2; stroke-opacity:0.1; fill:none" points="
  686.983,992.662 1238.66,618.382 
  "/>
<polyline clip-path="url(#clip372)" style="stroke:#000000; stroke-linecap:butt; stroke-linejoin:round; stroke-width:2; stroke-opacity:0.1; fill:none" points="
  1238.66,618.382 2031.64,814.847 
  "/>
<polyline clip-path="url(#clip372)" style="stroke:#000000; stroke-linecap:butt; stroke-linejoin:round; stroke-width:2; stroke-opacity:0.1; fill:none" points="
  658.071,762.83 1233.63,421.605 
  "/>
<polyline clip-path="url(#clip372)" style="stroke:#000000; stroke-linecap:butt; stroke-linejoin:round; stroke-width:2; stroke-opacity:0.1; fill:none" points="
  1233.63,421.605 2055.45,600.054 
  "/>
<polyline clip-path="url(#clip370)" style="stroke:#000000; stroke-linecap:butt; stroke-linejoin:round; stroke-width:4; stroke-opacity:1; fill:none" points="
  741.154,1423.29 630.494,543.61 
  "/>
<polyline clip-path="url(#clip370)" style="stroke:#000000; stroke-linecap:butt; stroke-linejoin:round; stroke-width:4; stroke-opacity:1; fill:none" points="
  738.467,1401.93 745.899,1395.72 
  "/>
<polyline clip-path="url(#clip370)" style="stroke:#000000; stroke-linecap:butt; stroke-linejoin:round; stroke-width:4; stroke-opacity:1; fill:none" points="
  713.702,1205.06 721.482,1199.15 
  "/>
<polyline clip-path="url(#clip370)" style="stroke:#000000; stroke-linecap:butt; stroke-linejoin:round; stroke-width:4; stroke-opacity:1; fill:none" points="
  686.983,992.662 695.145,987.125 
  "/>
<polyline clip-path="url(#clip370)" style="stroke:#000000; stroke-linecap:butt; stroke-linejoin:round; stroke-width:4; stroke-opacity:1; fill:none" points="
  658.071,762.83 666.652,757.743 
  "/>
<path clip-path="url(#clip370)" d="M694.267 1387.72 Q690.656 1387.72 688.827 1391.29 Q687.021 1394.83 687.021 1401.96 Q687.021 1409.07 688.827 1412.63 Q690.656 1416.17 694.267 1416.17 Q697.901 1416.17 699.706 1412.63 Q701.535 1409.07 701.535 1401.96 Q701.535 1394.83 699.706 1391.29 Q697.901 1387.72 694.267 1387.72 M694.267 1384.02 Q700.077 1384.02 703.132 1388.63 Q706.211 1393.21 706.211 1401.96 Q706.211 1410.69 703.132 1415.29 Q700.077 1419.88 694.267 1419.88 Q688.456 1419.88 685.378 1415.29 Q682.322 1410.69 682.322 1401.96 Q682.322 1393.21 685.378 1388.63 Q688.456 1384.02 694.267 1384.02 Z" fill="#000000" fill-rule="evenodd" fill-opacity="1" /><path clip-path="url(#clip370)" d="M660.543 1187.78 L678.899 1187.78 L678.899 1191.71 L664.825 1191.71 L664.825 1200.18 Q665.844 1199.84 666.862 1199.67 Q667.881 1199.49 668.899 1199.49 Q674.686 1199.49 678.066 1202.66 Q681.446 1205.83 681.446 1211.25 Q681.446 1216.83 677.973 1219.93 Q674.501 1223.01 668.182 1223.01 Q666.006 1223.01 663.737 1222.64 Q661.492 1222.27 659.085 1221.53 L659.085 1216.83 Q661.168 1217.96 663.39 1218.52 Q665.612 1219.07 668.089 1219.07 Q672.094 1219.07 674.432 1216.97 Q676.77 1214.86 676.77 1211.25 Q676.77 1207.64 674.432 1205.53 Q672.094 1203.42 668.089 1203.42 Q666.214 1203.42 664.339 1203.84 Q662.487 1204.26 660.543 1205.14 L660.543 1187.78 Z" fill="#000000" fill-rule="evenodd" fill-opacity="1" /><path clip-path="url(#clip370)" d="M603.431 1006.01 L611.07 1006.01 L611.07 979.641 L602.76 981.308 L602.76 977.049 L611.024 975.382 L615.7 975.382 L615.7 1006.01 L623.339 1006.01 L623.339 1009.94 L603.431 1009.94 L603.431 1006.01 Z" fill="#000000" fill-rule="evenodd" fill-opacity="1" /><path clip-path="url(#clip370)" d="M642.783 978.461 Q639.172 978.461 637.343 982.026 Q635.538 985.567 635.538 992.697 Q635.538 999.803 637.343 1003.37 Q639.172 1006.91 642.783 1006.91 Q646.417 1006.91 648.223 1003.37 Q650.051 999.803 650.051 992.697 Q650.051 985.567 648.223 982.026 Q646.417 978.461 642.783 978.461 M642.783 974.757 Q648.593 974.757 651.649 979.364 Q654.727 983.947 654.727 992.697 Q654.727 1001.42 651.649 1006.03 Q648.593 1010.61 642.783 1010.61 Q636.973 1010.61 633.894 1006.03 Q630.839 1001.42 630.839 992.697 Q630.839 983.947 633.894 979.364 Q636.973 974.757 642.783 974.757 Z" fill="#000000" fill-rule="evenodd" fill-opacity="1" /><path clip-path="url(#clip370)" d="M575.515 776.175 L583.154 776.175 L583.154 749.81 L574.843 751.476 L574.843 747.217 L583.107 745.55 L587.783 745.55 L587.783 776.175 L595.422 776.175 L595.422 780.11 L575.515 780.11 L575.515 776.175 Z" fill="#000000" fill-rule="evenodd" fill-opacity="1" /><path clip-path="url(#clip370)" d="M604.913 745.55 L623.269 745.55 L623.269 749.486 L609.195 749.486 L609.195 757.958 Q610.214 757.611 611.232 757.449 Q612.251 757.263 613.269 757.263 Q619.056 757.263 622.436 760.435 Q625.815 763.606 625.815 769.023 Q625.815 774.601 622.343 777.703 Q618.871 780.782 612.552 780.782 Q610.376 780.782 608.107 780.411 Q605.862 780.041 603.454 779.3 L603.454 774.601 Q605.538 775.735 607.76 776.291 Q609.982 776.847 612.459 776.847 Q616.464 776.847 618.802 774.74 Q621.14 772.634 621.14 769.023 Q621.14 765.411 618.802 763.305 Q616.464 761.198 612.459 761.198 Q610.584 761.198 608.709 761.615 Q606.857 762.032 604.913 762.911 L604.913 745.55 Z" fill="#000000" fill-rule="evenodd" fill-opacity="1" /><polyline clip-path="url(#clip372)" style="stroke:#009af9; stroke-linecap:butt; stroke-linejoin:round; stroke-width:4; stroke-opacity:1; fill:none" points="
  1587.38,1093.83 1619.98,1101.5 1651.1,1110.85 1680.51,1121.83 1707.96,1134.37 1733.21,1148.38 1756.02,1163.76 1776.14,1180.42 1793.33,1198.22 1807.36,1217.03 
  1818.02,1236.69 1825.1,1257.03 1828.41,1277.86 1827.79,1298.96 1823.11,1320.11 1814.28,1341.08 1801.25,1361.61 1784.01,1381.44 1762.6,1400.3 1737.15,1417.91 
  1707.82,1434.01 1674.85,1448.33 1638.53,1460.63 1599.22,1470.68 1557.35,1478.28 1513.39,1483.26 1467.85,1485.49 1421.29,1484.88 1374.29,1481.39 1327.42,1475.01 
  1281.29,1465.79 1236.44,1453.83 1193.43,1439.26 1152.75,1422.25 1114.87,1402.99 1080.17,1381.73 1048.99,1358.72 1021.62,1334.21 998.259,1308.49 979.051,1281.83 
  964.083,1254.5 953.384,1226.77 946.93,1198.89 944.65,1171.11 946.434,1143.64 952.138,1116.69 961.589,1090.45 974.592,1065.09 990.934,1040.76 1010.39,1017.58 
  1032.72,995.674 1057.69,975.139 1085.04,956.059 1114.54,938.503 1145.94,922.53 1179,908.186 1213.47,895.509 1249.11,884.528 1285.69,875.262 1322.96,867.726 
  1360.71,861.926 1398.68,857.862 1436.66,855.531 1474.41,854.919 1511.69,856.012 1548.27,858.787 1583.91,863.214 1618.37,869.258 1651.41,876.876 1682.77,886.016 
  1712.2,896.617 1739.45,908.609 1764.27,921.908 1786.39,936.422 1805.58,952.04 1821.57,968.641 1834.13,986.086 1843.04,1004.22 1848.08,1022.88 1849.07,1041.86 
  1845.85,1060.98 1838.3,1080.01 1826.35,1098.71 1809.95,1116.84 1789.15,1134.16 1764.01,1150.41 1734.69,1165.32 1701.42,1178.66 1664.47,1190.18 1624.2,1199.66 
  1581.05,1206.9 1535.48,1211.73 1488.05,1214.03 1439.31,1213.68 1389.9,1210.64 1340.42,1204.89 1291.51,1196.46 1243.77,1185.45 1197.8,1171.95 1154.15,1156.12 
  1113.32,1138.16 1075.75,1118.27 1041.81,1096.69 1011.82,1073.67 986.013,1049.47 964.56,1024.34 947.565,998.548 935.067,972.343 927.05,945.965 923.448,919.641 
  924.148,893.581 929.003,867.98 937.832,843.013 950.432,818.837 966.579,795.592 986.035,773.399 1008.55,752.364 1033.88,732.576 1061.76,714.114 1091.94,697.038 
  1124.15,681.402 1158.15,667.247 1193.68,654.606 1230.5,643.502 1268.36,633.954 1307.03,625.971 1346.25,619.558 1385.79,614.716 1425.41,611.439 1464.88,609.717 
  1503.96,609.535 1542.41,610.872 1579.97,613.705 1616.42,618.002 1651.49,623.726 1684.93,630.833 1716.47,639.272 1745.87,648.983 1772.84,659.895 1797.13,671.929 
  1818.45,684.991 1836.56,698.977 1851.18,713.768 1862.08,729.231 1869.01,745.217 1871.77,761.562 1870.18,778.088 1864.07,794.6 1853.34,810.892 1837.93,826.746 
  1817.83,841.934 1793.1,856.224 1763.87,869.38 1730.34,881.173 1692.78,891.378 1651.54,899.787 1607.05,906.21 1559.8,910.484 1510.34,912.474 1459.28,912.081 
  1407.26,909.245 1354.94,903.944 1303.01,896.2 1252.11,886.073 1202.91,873.664 1155.99,859.109 1111.92,842.574 1071.19,824.254 1034.21,804.36 1001.33,783.122 
  972.832,760.775 948.908,737.559 929.681,713.712 915.207,689.464 905.477,665.037 900.428,640.639 899.945,616.461 903.876,592.682 912.033,569.459 924.2,546.936 
  940.142,525.238 959.609,504.473 982.339,484.734 1008.07,466.101 1036.52,448.64 1067.43,432.405 1100.53,417.439 1135.56,403.778 1172.24,391.446 1210.34,380.464 
  1249.58,370.842 1289.73,362.59 1330.53,355.707 1371.75,350.193 1413.14,346.04 1454.45,343.237 1495.45,341.772 1535.89,341.625 1575.52,342.775 1614.08,345.194 
  
  "/>
<polyline clip-path="url(#clip372)" style="stroke:#e26f46; stroke-linecap:butt; stroke-linejoin:round; stroke-width:4; stroke-opacity:1; fill:none" points="
  1391.28,1297.2 1595.54,865.051 
  "/>
<path clip-path="url(#clip370)" d="
M2227.37 261.215 L2557.46 261.215 L2557.46 105.695 L2227.37 105.695  Z
  " fill="#ffffff" fill-rule="evenodd" fill-opacity="1"/>
<polyline clip-path="url(#clip370)" style="stroke:#000000; stroke-linecap:butt; stroke-linejoin:round; stroke-width:4; stroke-opacity:1; fill:none" points="
  2227.37,261.215 2557.46,261.215 2557.46,105.695 2227.37,105.695 2227.37,261.215 
  "/>
<polyline clip-path="url(#clip370)" style="stroke:#009af9; stroke-linecap:butt; stroke-linejoin:round; stroke-width:4; stroke-opacity:1; fill:none" points="
  2255.14,157.535 2421.73,157.535 
  "/>
<path clip-path="url(#clip370)" d="M2463.34 177.223 Q2461.53 181.852 2459.82 183.264 Q2458.11 184.676 2455.24 184.676 L2451.83 184.676 L2451.83 181.112 L2454.33 181.112 Q2456.09 181.112 2457.07 180.278 Q2458.04 179.445 2459.22 176.343 L2459.98 174.399 L2449.5 148.889 L2454.01 148.889 L2462.11 169.167 L2470.21 148.889 L2474.73 148.889 L2463.34 177.223 Z" fill="#000000" fill-rule="evenodd" fill-opacity="1" /><path clip-path="url(#clip370)" d="M2482.02 170.88 L2489.66 170.88 L2489.66 144.515 L2481.35 146.181 L2481.35 141.922 L2489.61 140.255 L2494.29 140.255 L2494.29 170.88 L2501.93 170.88 L2501.93 174.815 L2482.02 174.815 L2482.02 170.88 Z" fill="#000000" fill-rule="evenodd" fill-opacity="1" /><polyline clip-path="url(#clip370)" style="stroke:#e26f46; stroke-linecap:butt; stroke-linejoin:round; stroke-width:4; stroke-opacity:1; fill:none" points="
  2255.14,209.375 2421.73,209.375 
  "/>
<path clip-path="url(#clip370)" d="M2463.34 229.063 Q2461.53 233.692 2459.82 235.104 Q2458.11 236.516 2455.24 236.516 L2451.83 236.516 L2451.83 232.952 L2454.33 232.952 Q2456.09 232.952 2457.07 232.118 Q2458.04 231.285 2459.22 228.183 L2459.98 226.239 L2449.5 200.729 L2454.01 200.729 L2462.11 221.007 L2470.21 200.729 L2474.73 200.729 L2463.34 229.063 Z" fill="#000000" fill-rule="evenodd" fill-opacity="1" /><path clip-path="url(#clip370)" d="M2485.24 222.72 L2501.56 222.72 L2501.56 226.655 L2479.61 226.655 L2479.61 222.72 Q2482.27 219.965 2486.86 215.336 Q2491.46 210.683 2492.64 209.341 Q2494.89 206.817 2495.77 205.081 Q2496.67 203.322 2496.67 201.632 Q2496.67 198.878 2494.73 197.142 Q2492.81 195.405 2489.71 195.405 Q2487.51 195.405 2485.05 196.169 Q2482.62 196.933 2479.84 198.484 L2479.84 193.762 Q2482.67 192.628 2485.12 192.049 Q2487.58 191.47 2489.61 191.47 Q2494.98 191.47 2498.18 194.155 Q2501.37 196.841 2501.37 201.331 Q2501.37 203.461 2500.56 205.382 Q2499.77 207.28 2497.67 209.873 Q2497.09 210.544 2493.99 213.762 Q2490.89 216.956 2485.24 222.72 Z" fill="#000000" fill-rule="evenodd" fill-opacity="1" /></svg>
