<?xml version="1.0" encoding="utf-8"?>
<svg xmlns="http://www.w3.org/2000/svg" xmlns:xlink="http://www.w3.org/1999/xlink" width="672" height="480" viewBox="0 0 2688 1920">
<defs>
  <clipPath id="clip160">
    <rect x="0" y="0" width="2688" height="1920"/>
  </clipPath>
</defs>
<path clip-path="url(#clip160)" d="
M0 1920 L2688 1920 L2688 0 L0 0  Z
  " fill="#ffffff" fill-rule="evenodd" fill-opacity="1"/>
<defs>
  <clipPath id="clip161">
    <rect x="537" y="0" width="1883" height="1883"/>
  </clipPath>
</defs>
<path clip-path="url(#clip160)" d="
M150.358 1800.78 L2640.76 1800.78 L2640.76 47.2441 L150.358 47.2441  Z
  " fill="#ffffff" fill-rule="evenodd" fill-opacity="1"/>
<defs>
  <clipPath id="clip162">
    <rect x="150" y="47" width="2491" height="1755"/>
  </clipPath>
</defs>
<polyline clip-path="url(#clip162)" style="stroke:#000000; stroke-linecap:round; stroke-linejoin:round; stroke-width:2; stroke-opacity:0.1; fill:none" points="
  679.041,1800.78 679.041,47.2441 
  "/>
<polyline clip-path="url(#clip162)" style="stroke:#000000; stroke-linecap:round; stroke-linejoin:round; stroke-width:2; stroke-opacity:0.1; fill:none" points="
  1315.86,1800.78 1315.86,47.2441 
  "/>
<polyline clip-path="url(#clip162)" style="stroke:#000000; stroke-linecap:round; stroke-linejoin:round; stroke-width:2; stroke-opacity:0.1; fill:none" points="
  1952.69,1800.78 1952.69,47.2441 
  "/>
<polyline clip-path="url(#clip162)" style="stroke:#000000; stroke-linecap:round; stroke-linejoin:round; stroke-width:2; stroke-opacity:0.1; fill:none" points="
  2589.51,1800.78 2589.51,47.2441 
  "/>
<polyline clip-path="url(#clip160)" style="stroke:#000000; stroke-linecap:round; stroke-linejoin:round; stroke-width:4; stroke-opacity:1; fill:none" points="
  150.358,1800.78 2640.76,1800.78 
  "/>
<polyline clip-path="url(#clip160)" style="stroke:#000000; stroke-linecap:round; stroke-linejoin:round; stroke-width:4; stroke-opacity:1; fill:none" points="
  679.041,1800.78 679.041,1781.88 
  "/>
<polyline clip-path="url(#clip160)" style="stroke:#000000; stroke-linecap:round; stroke-linejoin:round; stroke-width:4; stroke-opacity:1; fill:none" points="
  1315.86,1800.78 1315.86,1781.88 
  "/>
<polyline clip-path="url(#clip160)" style="stroke:#000000; stroke-linecap:round; stroke-linejoin:round; stroke-width:4; stroke-opacity:1; fill:none" points="
  1952.69,1800.78 1952.69,1781.88 
  "/>
<polyline clip-path="url(#clip160)" style="stroke:#000000; stroke-linecap:round; stroke-linejoin:round; stroke-width:4; stroke-opacity:1; fill:none" points="
  2589.51,1800.78 2589.51,1781.88 
  "/>
<path clip-path="url(#clip160)" d="M647.942 1848.65 L677.617 1848.65 L677.617 1852.59 L647.942 1852.59 L647.942 1848.65 Z" fill="#000000" fill-rule="evenodd" fill-opacity="1" /><path clip-path="url(#clip160)" d="M700.557 1835 L688.752 1853.45 L700.557 1853.45 L700.557 1835 M699.33 1830.92 L705.21 1830.92 L705.21 1853.45 L710.14 1853.45 L710.14 1857.34 L705.21 1857.34 L705.21 1865.48 L700.557 1865.48 L700.557 1857.34 L684.955 1857.34 L684.955 1852.82 L699.33 1830.92 Z" fill="#000000" fill-rule="evenodd" fill-opacity="1" /><path clip-path="url(#clip160)" d="M1285.81 1848.65 L1315.48 1848.65 L1315.48 1852.59 L1285.81 1852.59 L1285.81 1848.65 Z" fill="#000000" fill-rule="evenodd" fill-opacity="1" /><path clip-path="url(#clip160)" d="M1329.6 1861.55 L1345.92 1861.55 L1345.92 1865.48 L1323.98 1865.48 L1323.98 1861.55 Q1326.64 1858.79 1331.22 1854.16 Q1335.83 1849.51 1337.01 1848.17 Q1339.26 1845.65 1340.14 1843.91 Q1341.04 1842.15 1341.04 1840.46 Q1341.04 1837.71 1339.09 1835.97 Q1337.17 1834.23 1334.07 1834.23 Q1331.87 1834.23 1329.42 1835 Q1326.99 1835.76 1324.21 1837.31 L1324.21 1832.59 Q1327.03 1831.46 1329.49 1830.88 Q1331.94 1830.3 1333.98 1830.3 Q1339.35 1830.3 1342.54 1832.98 Q1345.74 1835.67 1345.74 1840.16 Q1345.74 1842.29 1344.93 1844.21 Q1344.14 1846.11 1342.03 1848.7 Q1341.46 1849.37 1338.35 1852.59 Q1335.25 1855.78 1329.6 1861.55 Z" fill="#000000" fill-rule="evenodd" fill-opacity="1" /><path clip-path="url(#clip160)" d="M1952.69 1834 Q1949.08 1834 1947.25 1837.57 Q1945.44 1841.11 1945.44 1848.24 Q1945.44 1855.34 1947.25 1858.91 Q1949.08 1862.45 1952.69 1862.45 Q1956.32 1862.45 1958.13 1858.91 Q1959.96 1855.34 1959.96 1848.24 Q1959.96 1841.11 1958.13 1837.57 Q1956.32 1834 1952.69 1834 M1952.69 1830.3 Q1958.5 1830.3 1961.55 1834.9 Q1964.63 1839.49 1964.63 1848.24 Q1964.63 1856.96 1961.55 1861.57 Q1958.5 1866.15 1952.69 1866.15 Q1946.88 1866.15 1943.8 1861.57 Q1940.74 1856.96 1940.74 1848.24 Q1940.74 1839.49 1943.8 1834.9 Q1946.88 1830.3 1952.69 1830.3 Z" fill="#000000" fill-rule="evenodd" fill-opacity="1" /><path clip-path="url(#clip160)" d="M2584.17 1861.55 L2600.49 1861.55 L2600.49 1865.48 L2578.54 1865.48 L2578.54 1861.55 Q2581.2 1858.79 2585.79 1854.16 Q2590.39 1849.51 2591.57 1848.17 Q2593.82 1845.65 2594.7 1843.91 Q2595.6 1842.15 2595.6 1840.46 Q2595.6 1837.71 2593.66 1835.97 Q2591.74 1834.23 2588.63 1834.23 Q2586.43 1834.23 2583.98 1835 Q2581.55 1835.76 2578.77 1837.31 L2578.77 1832.59 Q2581.6 1831.46 2584.05 1830.88 Q2586.5 1830.3 2588.54 1830.3 Q2593.91 1830.3 2597.11 1832.98 Q2600.3 1835.67 2600.3 1840.16 Q2600.3 1842.29 2599.49 1844.21 Q2598.7 1846.11 2596.6 1848.7 Q2596.02 1849.37 2592.92 1852.59 Q2589.81 1855.78 2584.17 1861.55 Z" fill="#000000" fill-rule="evenodd" fill-opacity="1" /><polyline clip-path="url(#clip162)" style="stroke:#000000; stroke-linecap:round; stroke-linejoin:round; stroke-width:2; stroke-opacity:0.1; fill:none" points="
  150.358,1560.87 2640.76,1560.87 
  "/>
<polyline clip-path="url(#clip162)" style="stroke:#000000; stroke-linecap:round; stroke-linejoin:round; stroke-width:2; stroke-opacity:0.1; fill:none" points="
  150.358,1242.45 2640.76,1242.45 
  "/>
<polyline clip-path="url(#clip162)" style="stroke:#000000; stroke-linecap:round; stroke-linejoin:round; stroke-width:2; stroke-opacity:0.1; fill:none" points="
  150.358,924.043 2640.76,924.043 
  "/>
<polyline clip-path="url(#clip162)" style="stroke:#000000; stroke-linecap:round; stroke-linejoin:round; stroke-width:2; stroke-opacity:0.1; fill:none" points="
  150.358,605.631 2640.76,605.631 
  "/>
<polyline clip-path="url(#clip162)" style="stroke:#000000; stroke-linecap:round; stroke-linejoin:round; stroke-width:2; stroke-opacity:0.1; fill:none" points="
  150.358,287.219 2640.76,287.219 
  "/>
<polyline clip-path="url(#clip160)" style="stroke:#000000; stroke-linecap:round; stroke-linejoin:round; stroke-width:4; stroke-opacity:1; fill:none" points="
  150.358,1800.78 150.358,47.2441 
  "/>
<polyline clip-path="url(#clip160)" style="stroke:#000000; stroke-linecap:round; stroke-linejoin:round; stroke-width:4; stroke-opacity:1; fill:none" points="
  150.358,1560.87 169.256,1560.87 
  "/>
<polyline clip-path="url(#clip160)" style="stroke:#000000; stroke-linecap:round; stroke-linejoin:round; stroke-width:4; stroke-opacity:1; fill:none" points="
  150.358,1242.45 169.256,1242.45 
  "/>
<polyline clip-path="url(#clip160)" style="stroke:#000000; stroke-linecap:round; stroke-linejoin:round; stroke-width:4; stroke-opacity:1; fill:none" points="
  150.358,924.043 169.256,924.043 
  "/>
<polyline clip-path="url(#clip160)" style="stroke:#000000; stroke-linecap:round; stroke-linejoin:round; stroke-width:4; stroke-opacity:1; fill:none" points="
  150.358,605.631 169.256,605.631 
  "/>
<polyline clip-path="url(#clip160)" style="stroke:#000000; stroke-linecap:round; stroke-linejoin:round; stroke-width:4; stroke-opacity:1; fill:none" points="
  150.358,287.219 169.256,287.219 
  "/>
<path clip-path="url(#clip160)" d="M49.9225 1561.32 L79.5983 1561.32 L79.5983 1565.25 L49.9225 1565.25 L49.9225 1561.32 Z" fill="#000000" fill-rule="evenodd" fill-opacity="1" /><path clip-path="url(#clip160)" d="M93.7186 1574.21 L110.038 1574.21 L110.038 1578.15 L88.0936 1578.15 L88.0936 1574.21 Q90.7556 1571.46 95.3389 1566.83 Q99.9454 1562.17 101.126 1560.83 Q103.371 1558.31 104.251 1556.57 Q105.154 1554.81 105.154 1553.12 Q105.154 1550.37 103.209 1548.63 Q101.288 1546.9 98.1861 1546.9 Q95.9871 1546.9 93.5334 1547.66 Q91.1028 1548.42 88.3251 1549.98 L88.3251 1545.25 Q91.1491 1544.12 93.6028 1543.54 Q96.0565 1542.96 98.0935 1542.96 Q103.464 1542.96 106.658 1545.65 Q109.853 1548.33 109.853 1552.82 Q109.853 1554.95 109.043 1556.87 Q108.256 1558.77 106.149 1561.36 Q105.57 1562.04 102.469 1565.25 Q99.3667 1568.45 93.7186 1574.21 Z" fill="#000000" fill-rule="evenodd" fill-opacity="1" /><path clip-path="url(#clip160)" d="M49.5521 1242.91 L79.2279 1242.91 L79.2279 1246.84 L49.5521 1246.84 L49.5521 1242.91 Z" fill="#000000" fill-rule="evenodd" fill-opacity="1" /><path clip-path="url(#clip160)" d="M90.1306 1255.8 L97.7695 1255.8 L97.7695 1229.43 L89.4593 1231.1 L89.4593 1226.84 L97.7232 1225.17 L102.399 1225.17 L102.399 1255.8 L110.038 1255.8 L110.038 1259.73 L90.1306 1259.73 L90.1306 1255.8 Z" fill="#000000" fill-rule="evenodd" fill-opacity="1" /><path clip-path="url(#clip160)" d="M98.0935 909.842 Q94.4824 909.842 92.6537 913.406 Q90.8482 916.948 90.8482 924.078 Q90.8482 931.184 92.6537 934.749 Q94.4824 938.29 98.0935 938.29 Q101.728 938.29 103.533 934.749 Q105.362 931.184 105.362 924.078 Q105.362 916.948 103.533 913.406 Q101.728 909.842 98.0935 909.842 M98.0935 906.138 Q103.904 906.138 106.959 910.744 Q110.038 915.328 110.038 924.078 Q110.038 932.804 106.959 937.411 Q103.904 941.994 98.0935 941.994 Q92.2834 941.994 89.2047 937.411 Q86.1492 932.804 86.1492 924.078 Q86.1492 915.328 89.2047 910.744 Q92.2834 906.138 98.0935 906.138 Z" fill="#000000" fill-rule="evenodd" fill-opacity="1" /><path clip-path="url(#clip160)" d="M90.1306 618.976 L97.7695 618.976 L97.7695 592.61 L89.4593 594.277 L89.4593 590.018 L97.7232 588.351 L102.399 588.351 L102.399 618.976 L110.038 618.976 L110.038 622.911 L90.1306 622.911 L90.1306 618.976 Z" fill="#000000" fill-rule="evenodd" fill-opacity="1" /><path clip-path="url(#clip160)" d="M93.7186 300.564 L110.038 300.564 L110.038 304.499 L88.0936 304.499 L88.0936 300.564 Q90.7556 297.809 95.3389 293.179 Q99.9454 288.527 101.126 287.184 Q103.371 284.661 104.251 282.925 Q105.154 281.166 105.154 279.476 Q105.154 276.721 103.209 274.985 Q101.288 273.249 98.1861 273.249 Q95.9871 273.249 93.5334 274.013 Q91.1028 274.777 88.3251 276.328 L88.3251 271.606 Q91.1491 270.471 93.6028 269.893 Q96.0565 269.314 98.0935 269.314 Q103.464 269.314 106.658 271.999 Q109.853 274.684 109.853 279.175 Q109.853 281.305 109.043 283.226 Q108.256 285.124 106.149 287.717 Q105.57 288.388 102.469 291.605 Q99.3667 294.8 93.7186 300.564 Z" fill="#000000" fill-rule="evenodd" fill-opacity="1" /><polyline clip-path="url(#clip162)" style="stroke:#009af9; stroke-linecap:round; stroke-linejoin:round; stroke-width:4; stroke-opacity:1; fill:none" points="
  1952.69,924.043 1952.72,924.043 1952.82,924.04 1952.99,924.034 1953.22,924.021 1955.15,923.825 1958.47,923.255 1963.12,922.116 1969.02,920.218 1976.09,917.382 
  1984.21,913.438 1993.24,908.227 2003.04,901.607 2009.24,896.897 2015.61,891.608 2022.12,885.717 2028.73,879.204 2042.06,864.25 2055.26,846.641 2066.03,829.637 
  2076.2,810.685 2085.54,789.799 2093.82,767.02 2101.34,740.207 2107.04,711.353 2110.64,680.608 2111.89,648.151 2110.75,616.896 2107.22,584.554 2101.14,551.332 
  2092.37,517.453 2079.86,480.675 2064.01,443.732 2054.8,425.299 2044.73,406.948 2033.79,388.723 2021.98,370.665 2007.21,350.011 1991.26,329.708 1974.15,309.827 
  1955.88,290.434 1936.47,271.598 1915.95,253.387 1894.32,235.869 1871.62,219.108 1828.72,191.391 1782.74,166.626 1733.9,145.147 1682.48,127.266 1635.51,114.774 
  1587.02,105.445 1537.25,99.4323 1486.45,96.8724 1458.43,96.9722 1430.23,98.1474 1401.9,100.411 1373.48,103.775 1345.02,108.248 1316.58,113.836 1288.19,120.545 
  1259.91,128.377 1231.62,137.387 1203.54,147.532 1175.71,158.806 1148.2,171.201 1121.04,184.71 1094.29,199.319 1068,215.016 1042.22,231.783 1014.35,251.544 
  987.226,272.563 960.902,294.808 935.438,318.243 910.895,342.831 887.328,368.531 864.793,395.297 843.342,423.085 823.984,450.425 805.694,478.6 788.511,507.561 
  772.472,537.261 757.61,567.647 743.958,598.669 731.545,630.271 720.398,662.4 710.175,696.302 701.37,730.646 694.004,765.367 688.094,800.396 683.653,835.666 
  680.693,871.108 679.219,906.654 679.236,942.234 680.405,972.159 682.629,1002.02 685.903,1031.77 690.223,1061.37 695.58,1090.79 701.967,1119.97 709.371,1148.88 
  717.783,1177.49 729.395,1211.93 742.459,1245.79 756.941,1278.99 772.805,1311.47 790.014,1343.17 808.525,1374.01 828.293,1403.95 849.27,1432.93 869.503,1458.58 
  890.668,1483.33 912.721,1507.16 935.618,1530.01 959.312,1551.87 983.757,1572.7 1008.9,1592.47 1034.7,1611.15 1083.9,1642.72 1134.81,1670.39 1187.12,1694.05 
  1240.46,1713.64 1267.76,1722 1295.2,1729.31 1322.73,1735.55 1350.31,1740.75 1377.88,1744.9 1405.42,1748.01 1432.86,1750.09 1460.18,1751.15 1490.6,1751.14 
  1520.74,1749.88 1550.55,1747.39 1579.98,1743.71 1608.98,1738.85 1637.49,1732.86 1665.46,1725.75 1692.84,1717.58 1740.84,1700.17 1786.51,1679.6 1829.65,1656.15 
  1870.04,1630.09 1891.86,1614.11 1912.7,1597.43 1932.54,1580.1 1951.36,1562.19 1969.13,1543.76 1985.85,1524.86 2001.5,1505.55 2016.09,1485.9 2028.63,1467.45 
  2040.25,1448.8 2050.96,1430 2060.75,1411.09 2077.62,1373.15 2090.95,1335.33 2100.75,1298.5 2107.37,1262.43 2111.01,1227.4 2111.85,1193.69 2110.22,1162.42 
  2106.4,1132.81 2100.64,1104.99 2093.19,1079.12 2084.08,1054.72 2073.76,1032.55 2062.55,1012.65 2050.72,995.028 2037.4,978.312 2024.07,964.233 2011.08,952.67 
  1998.76,943.461 1982.68,933.855 1969.49,928.036 1959.82,925.125 1954.15,924.142 1953.51,924.085 1953.06,924.055 1952.78,924.044 1952.69,924.043 
  "/>
<polyline clip-path="url(#clip162)" style="stroke:#e26f46; stroke-linecap:round; stroke-linejoin:round; stroke-width:4; stroke-opacity:1; fill:none" points="
  1952.66,919.701 1952.56,915.361 1952.39,911.023 1952.16,906.688 1950.22,886.724 1946.87,866.968 1944.68,857.203 1942.14,847.531 1939.27,837.965 1936.06,828.518 
  1932.53,819.204 1928.67,810.035 1924.5,801.023 1920.01,792.181 1910.15,775.051 1899.15,758.736 1892.02,749.359 1884.53,740.323 1876.68,731.644 1868.49,723.338 
  1860,715.42 1851.21,707.901 1842.15,700.794 1832.83,694.11 1816.57,683.797 1799.75,674.761 1782.49,667.032 1764.89,660.63 1755.24,657.713 1745.53,655.192 
  1735.79,653.066 1726.04,651.334 1716.3,649.993 1706.58,649.042 1696.89,648.476 1687.27,648.29 1669.72,648.928 1652.51,650.802 1635.75,653.864 1619.52,658.057 
  1602.8,663.738 1586.89,670.56 1571.86,678.428 1557.79,687.243 1550.11,692.739 1542.78,698.496 1535.81,704.491 1529.21,710.702 1523,717.106 1517.16,723.681 
  1511.72,730.404 1506.66,737.252 1502.49,743.424 1498.63,749.661 1495.08,755.947 1491.84,762.266 1486.26,774.945 1481.86,787.577 1478.94,798.525 1476.87,809.277 
  1475.6,819.763 1475.09,829.921 1475.33,840.554 1476.32,850.662 1478,860.185 1480.28,869.077 1483.09,877.344 1486.32,884.904 1489.88,891.738 1493.67,897.838 
  1498.04,903.731 1502.46,908.748 1506.81,912.923 1511,916.301 1514.72,918.831 1518.11,920.755 1521.09,922.146 1523.61,923.081 1525.68,923.662 1527.14,923.945 
  1527.96,924.035 1528.12,924.043 1527.74,924.067 1526.9,924.177 1525.61,924.439 1523.89,924.914 1521.25,925.874 1518.07,927.348 1514.43,929.433 1510.42,932.214 
  1506.5,935.437 1502.44,939.354 1498.33,944.002 1494.25,949.409 1490.61,955.09 1487.16,961.436 1484,968.441 1481.19,976.092 1478.79,984.478 1476.93,993.473 
  1475.67,1003.04 1475.1,1013.12 1475.1,1018.97 1475.35,1024.96 1475.86,1031.07 1476.64,1037.29 1479.05,1050.01 1482.64,1063 1486.96,1074.9 1492.34,1086.83 
  1498.79,1098.68 1506.33,1110.36 1511.14,1116.93 1516.3,1123.38 1521.82,1129.71 1527.7,1135.87 1533.92,1141.87 1540.48,1147.68 1547.38,1153.27 1554.61,1158.63 
  1568.83,1167.88 1584.08,1176.16 1600.27,1183.36 1617.33,1189.37 1634.89,1194.03 1653.08,1197.37 1662.38,1198.51 1671.79,1199.3 1681.3,1199.72 1690.89,1199.77 
  1700.27,1199.46 1709.69,1198.78 1719.15,1197.74 1728.62,1196.33 1738.09,1194.55 1747.55,1192.4 1756.97,1189.88 1766.35,1186.98 1775.89,1183.62 1785.35,1179.87 
  1794.71,1175.74 1803.94,1171.22 1813.04,1166.32 1821.98,1161.04 1830.75,1155.39 1839.33,1149.38 1848.49,1142.39 1857.38,1134.97 1865.99,1127.15 1874.29,1118.94 
  1882.25,1110.35 1889.87,1101.4 1897.13,1092.1 1904,1082.46 1913.27,1067.92 1921.65,1052.77 1929.1,1037.07 1935.58,1020.9 1941.06,1004.32 1945.5,987.398 
  1948.9,970.205 1951.22,952.815 1951.86,945.64 1952.32,938.45 1952.6,931.249 1952.69,924.043 
  "/>
<polyline clip-path="url(#clip162)" style="stroke:#3da44d; stroke-linecap:round; stroke-linejoin:round; stroke-width:4; stroke-opacity:1; fill:none" points="
  1669.66,924.043 1669.67,924.043 1669.69,924.042 1669.72,924.04 1670.3,923.955 1671.47,923.618 1673.16,922.864 1675.25,921.55 1675.94,921.027 1676.65,920.439 
  1677.37,919.784 1678.1,919.061 1679.59,917.399 1681.05,915.443 1682.25,913.553 1683.38,911.447 1684.42,909.127 1685.34,906.596 1686.17,903.617 1686.81,900.411 
  1687.21,896.994 1687.35,893.388 1687.22,889.915 1686.83,886.322 1686.15,882.631 1685.18,878.866 1683.79,874.78 1682.02,870.675 1679.88,866.588 1677.36,862.556 
  1673.94,858.006 1670.01,853.642 1665.57,849.526 1660.65,845.717 1655.88,842.637 1650.77,839.885 1645.35,837.499 1639.63,835.512 1634.41,834.124 1629.03,833.087 
  1623.5,832.419 1617.85,832.135 1614.74,832.146 1611.61,832.277 1608.46,832.528 1605.3,832.902 1602.14,833.399 1598.98,834.02 1595.82,834.765 1592.68,835.635 
  1589.54,836.637 1586.42,837.764 1583.33,839.016 1580.27,840.394 1577.25,841.895 1574.28,843.518 1571.36,845.262 1568.49,847.125 1565.4,849.321 1562.38,851.656 
  1559.46,854.128 1556.63,856.732 1553.9,859.464 1551.28,862.319 1548.78,865.293 1546.4,868.381 1542.21,874.549 1538.52,881.067 1536.87,884.443 1535.35,887.89 
  1533.97,891.402 1532.73,894.971 1530.62,902.554 1529.15,910.304 1528.32,918.161 1528.16,926.064 1528.54,932.707 1529.38,939.302 1530.69,945.812 1532.44,952.203 
  1535.19,959.793 1538.56,967.091 1542.53,974.039 1547.05,980.585 1551.65,986.186 1556.65,991.373 1559.28,993.802 1562,996.116 1564.79,998.312 1567.66,1000.39 
  1573.12,1003.9 1578.78,1006.97 1584.59,1009.6 1590.52,1011.78 1593.55,1012.7 1596.6,1013.52 1599.66,1014.21 1602.72,1014.79 1605.79,1015.25 1608.85,1015.6 
  1611.9,1015.83 1614.93,1015.94 1618.31,1015.94 1621.66,1015.8 1624.97,1015.53 1628.24,1015.12 1631.47,1014.58 1634.63,1013.91 1637.74,1013.12 1640.78,1012.21 
  1646.12,1010.28 1651.19,1007.99 1655.98,1005.39 1660.47,1002.49 1665.21,998.863 1669.51,994.949 1673.34,990.8 1676.7,986.471 1679.39,982.349 1681.66,978.159 
  1683.54,973.944 1685.02,969.742 1686.11,965.649 1686.84,961.641 1687.25,957.75 1687.34,954.003 1687.16,950.53 1686.73,947.239 1686.09,944.149 1685.27,941.274 
  1684.25,938.563 1683.11,936.099 1681.86,933.888 1680.55,931.93 1679.07,930.073 1677.59,928.508 1676.14,927.224 1674.77,926.2 1672.99,925.133 1671.52,924.487 
  1670.45,924.163 1669.82,924.054 1669.75,924.048 1669.7,924.044 1669.67,924.043 1952.69,924.043 
  "/>
</svg>
