<?xml version="1.0" encoding="utf-8"?>
<svg xmlns="http://www.w3.org/2000/svg" xmlns:xlink="http://www.w3.org/1999/xlink" width="672" height="480" viewBox="0 0 2688 1920">
<defs>
  <clipPath id="clip650">
    <rect x="0" y="0" width="2688" height="1920"/>
  </clipPath>
</defs>
<path clip-path="url(#clip650)" d="
M0 1920 L2688 1920 L2688 0 L0 0  Z
  " fill="#ffffff" fill-rule="evenodd" fill-opacity="1"/>
<defs>
  <clipPath id="clip651">
    <rect x="537" y="0" width="1883" height="1883"/>
  </clipPath>
</defs>
<defs>
  <clipPath id="clip652">
    <rect x="115" y="47" width="2527" height="1755"/>
  </clipPath>
</defs>
<path clip-path="url(#clip652)" d="
M725.448 1424.99 L725.448 597.829 L1203.03 184.247 L2030.22 423.029 L2030.22 1250.19 L1552.64 1663.78 L725.448 1424.99  Z
  " fill="#ffffff" fill-rule="evenodd" fill-opacity="1"/>
<polyline clip-path="url(#clip652)" style="stroke:#000000; stroke-linecap:round; stroke-linejoin:round; stroke-width:2; stroke-opacity:0.1; fill:none" points="
  711.184,1462.19 1217.39,1023.8 
  "/>
<polyline clip-path="url(#clip652)" style="stroke:#000000; stroke-linecap:round; stroke-linejoin:round; stroke-width:2; stroke-opacity:0.1; fill:none" points="
  1217.39,1023.8 1217.39,147.034 
  "/>
<polyline clip-path="url(#clip652)" style="stroke:#000000; stroke-linecap:round; stroke-linejoin:round; stroke-width:2; stroke-opacity:0.1; fill:none" points="
  917.982,1521.88 1424.18,1083.5 
  "/>
<polyline clip-path="url(#clip652)" style="stroke:#000000; stroke-linecap:round; stroke-linejoin:round; stroke-width:2; stroke-opacity:0.1; fill:none" points="
  1424.18,1083.5 1424.18,206.731 
  "/>
<polyline clip-path="url(#clip652)" style="stroke:#000000; stroke-linecap:round; stroke-linejoin:round; stroke-width:2; stroke-opacity:0.1; fill:none" points="
  1124.78,1581.58 1630.98,1143.2 
  "/>
<polyline clip-path="url(#clip652)" style="stroke:#000000; stroke-linecap:round; stroke-linejoin:round; stroke-width:2; stroke-opacity:0.1; fill:none" points="
  1630.98,1143.2 1630.98,266.429 
  "/>
<polyline clip-path="url(#clip652)" style="stroke:#000000; stroke-linecap:round; stroke-linejoin:round; stroke-width:2; stroke-opacity:0.1; fill:none" points="
  1331.58,1641.28 1837.78,1202.89 
  "/>
<polyline clip-path="url(#clip652)" style="stroke:#000000; stroke-linecap:round; stroke-linejoin:round; stroke-width:2; stroke-opacity:0.1; fill:none" points="
  1837.78,1202.89 1837.78,326.126 
  "/>
<polyline clip-path="url(#clip652)" style="stroke:#000000; stroke-linecap:round; stroke-linejoin:round; stroke-width:2; stroke-opacity:0.1; fill:none" points="
  1538.38,1700.97 2044.58,1262.59 
  "/>
<polyline clip-path="url(#clip652)" style="stroke:#000000; stroke-linecap:round; stroke-linejoin:round; stroke-width:2; stroke-opacity:0.1; fill:none" points="
  2044.58,1262.59 2044.58,385.823 
  "/>
<polyline clip-path="url(#clip650)" style="stroke:#000000; stroke-linecap:round; stroke-linejoin:round; stroke-width:4; stroke-opacity:1; fill:none" points="
  686.422,1455.04 1563.19,1708.14 
  "/>
<polyline clip-path="url(#clip650)" style="stroke:#000000; stroke-linecap:round; stroke-linejoin:round; stroke-width:4; stroke-opacity:1; fill:none" points="
  711.184,1462.19 717.259,1456.92 
  "/>
<polyline clip-path="url(#clip650)" style="stroke:#000000; stroke-linecap:round; stroke-linejoin:round; stroke-width:4; stroke-opacity:1; fill:none" points="
  917.982,1521.88 924.056,1516.62 
  "/>
<polyline clip-path="url(#clip650)" style="stroke:#000000; stroke-linecap:round; stroke-linejoin:round; stroke-width:4; stroke-opacity:1; fill:none" points="
  1124.78,1581.58 1130.85,1576.32 
  "/>
<polyline clip-path="url(#clip650)" style="stroke:#000000; stroke-linecap:round; stroke-linejoin:round; stroke-width:4; stroke-opacity:1; fill:none" points="
  1331.58,1641.28 1337.65,1636.02 
  "/>
<polyline clip-path="url(#clip650)" style="stroke:#000000; stroke-linecap:round; stroke-linejoin:round; stroke-width:4; stroke-opacity:1; fill:none" points="
  1538.38,1700.97 1544.45,1695.71 
  "/>
<path clip-path="url(#clip650)" d="M595.295 1493.63 L624.97 1493.63 L624.97 1497.56 L595.295 1497.56 L595.295 1493.63 Z" fill="#000000" fill-rule="evenodd" fill-opacity="1" /><path clip-path="url(#clip650)" d="M635.873 1506.52 L643.512 1506.52 L643.512 1480.16 L635.202 1481.82 L635.202 1477.56 L643.466 1475.9 L648.141 1475.9 L648.141 1506.52 L655.78 1506.52 L655.78 1510.46 L635.873 1510.46 L635.873 1506.52 Z" fill="#000000" fill-rule="evenodd" fill-opacity="1" /><path clip-path="url(#clip650)" d="M665.225 1504.58 L670.109 1504.58 L670.109 1510.46 L665.225 1510.46 L665.225 1504.58 Z" fill="#000000" fill-rule="evenodd" fill-opacity="1" /><path clip-path="url(#clip650)" d="M690.294 1478.97 Q686.683 1478.97 684.854 1482.54 Q683.049 1486.08 683.049 1493.21 Q683.049 1500.32 684.854 1503.88 Q686.683 1507.42 690.294 1507.42 Q693.928 1507.42 695.734 1503.88 Q697.563 1500.32 697.563 1493.21 Q697.563 1486.08 695.734 1482.54 Q693.928 1478.97 690.294 1478.97 M690.294 1475.27 Q696.104 1475.27 699.16 1479.88 Q702.238 1484.46 702.238 1493.21 Q702.238 1501.94 699.16 1506.54 Q696.104 1511.13 690.294 1511.13 Q684.484 1511.13 681.405 1506.54 Q678.35 1501.94 678.35 1493.21 Q678.35 1484.46 681.405 1479.88 Q684.484 1475.27 690.294 1475.27 Z" fill="#000000" fill-rule="evenodd" fill-opacity="1" /><path clip-path="url(#clip650)" d="M803.088 1553.32 L832.763 1553.32 L832.763 1557.26 L803.088 1557.26 L803.088 1553.32 Z" fill="#000000" fill-rule="evenodd" fill-opacity="1" /><path clip-path="url(#clip650)" d="M852.856 1538.67 Q849.245 1538.67 847.416 1542.24 Q845.611 1545.78 845.611 1552.91 Q845.611 1560.01 847.416 1563.58 Q849.245 1567.12 852.856 1567.12 Q856.49 1567.12 858.296 1563.58 Q860.124 1560.01 860.124 1552.91 Q860.124 1545.78 858.296 1542.24 Q856.49 1538.67 852.856 1538.67 M852.856 1534.97 Q858.666 1534.97 861.722 1539.57 Q864.8 1544.16 864.8 1552.91 Q864.8 1561.63 861.722 1566.24 Q858.666 1570.82 852.856 1570.82 Q847.046 1570.82 843.967 1566.24 Q840.911 1561.63 840.911 1552.91 Q840.911 1544.16 843.967 1539.57 Q847.046 1534.97 852.856 1534.97 Z" fill="#000000" fill-rule="evenodd" fill-opacity="1" /><path clip-path="url(#clip650)" d="M873.018 1564.27 L877.902 1564.27 L877.902 1570.15 L873.018 1570.15 L873.018 1564.27 Z" fill="#000000" fill-rule="evenodd" fill-opacity="1" /><path clip-path="url(#clip650)" d="M888.133 1535.59 L906.49 1535.59 L906.49 1539.53 L892.416 1539.53 L892.416 1548 Q893.434 1547.65 894.453 1547.49 Q895.471 1547.31 896.49 1547.31 Q902.277 1547.31 905.657 1550.48 Q909.036 1553.65 909.036 1559.07 Q909.036 1564.64 905.564 1567.75 Q902.092 1570.82 895.772 1570.82 Q893.596 1570.82 891.328 1570.45 Q889.083 1570.08 886.675 1569.34 L886.675 1564.64 Q888.758 1565.78 890.981 1566.33 Q893.203 1566.89 895.68 1566.89 Q899.684 1566.89 902.022 1564.78 Q904.36 1562.68 904.36 1559.07 Q904.36 1555.45 902.022 1553.35 Q899.684 1551.24 895.68 1551.24 Q893.805 1551.24 891.93 1551.66 Q890.078 1552.07 888.133 1552.95 L888.133 1535.59 Z" fill="#000000" fill-rule="evenodd" fill-opacity="1" /><path clip-path="url(#clip650)" d="M1058.66 1598.37 Q1055.05 1598.37 1053.22 1601.93 Q1051.41 1605.48 1051.41 1612.61 Q1051.41 1619.71 1053.22 1623.28 Q1055.05 1626.82 1058.66 1626.82 Q1062.29 1626.82 1064.1 1623.28 Q1065.93 1619.71 1065.93 1612.61 Q1065.93 1605.48 1064.1 1601.93 Q1062.29 1598.37 1058.66 1598.37 M1058.66 1594.67 Q1064.47 1594.67 1067.52 1599.27 Q1070.6 1603.86 1070.6 1612.61 Q1070.6 1621.33 1067.52 1625.94 Q1064.47 1630.52 1058.66 1630.52 Q1052.85 1630.52 1049.77 1625.94 Q1046.71 1621.33 1046.71 1612.61 Q1046.71 1603.86 1049.77 1599.27 Q1052.85 1594.67 1058.66 1594.67 Z" fill="#000000" fill-rule="evenodd" fill-opacity="1" /><path clip-path="url(#clip650)" d="M1078.82 1623.97 L1083.7 1623.97 L1083.7 1629.85 L1078.82 1629.85 L1078.82 1623.97 Z" fill="#000000" fill-rule="evenodd" fill-opacity="1" /><path clip-path="url(#clip650)" d="M1103.89 1598.37 Q1100.28 1598.37 1098.45 1601.93 Q1096.64 1605.48 1096.64 1612.61 Q1096.64 1619.71 1098.45 1623.28 Q1100.28 1626.82 1103.89 1626.82 Q1107.52 1626.82 1109.33 1623.28 Q1111.16 1619.71 1111.16 1612.61 Q1111.16 1605.48 1109.33 1601.93 Q1107.52 1598.37 1103.89 1598.37 M1103.89 1594.67 Q1109.7 1594.67 1112.76 1599.27 Q1115.83 1603.86 1115.83 1612.61 Q1115.83 1621.33 1112.76 1625.94 Q1109.7 1630.52 1103.89 1630.52 Q1098.08 1630.52 1095 1625.94 Q1091.95 1621.33 1091.95 1612.61 Q1091.95 1603.86 1095 1599.27 Q1098.08 1594.67 1103.89 1594.67 Z" fill="#000000" fill-rule="evenodd" fill-opacity="1" /><path clip-path="url(#clip650)" d="M1266.45 1658.07 Q1262.84 1658.07 1261.01 1661.63 Q1259.21 1665.17 1259.21 1672.3 Q1259.21 1679.41 1261.01 1682.97 Q1262.84 1686.52 1266.45 1686.52 Q1270.09 1686.52 1271.89 1682.97 Q1273.72 1679.41 1273.72 1672.3 Q1273.72 1665.17 1271.89 1661.63 Q1270.09 1658.07 1266.45 1658.07 M1266.45 1654.36 Q1272.26 1654.36 1275.32 1658.97 Q1278.4 1663.55 1278.4 1672.3 Q1278.4 1681.03 1275.32 1685.64 Q1272.26 1690.22 1266.45 1690.22 Q1260.64 1690.22 1257.56 1685.64 Q1254.51 1681.03 1254.51 1672.3 Q1254.51 1663.55 1257.56 1658.97 Q1260.64 1654.36 1266.45 1654.36 Z" fill="#000000" fill-rule="evenodd" fill-opacity="1" /><path clip-path="url(#clip650)" d="M1286.61 1683.67 L1291.5 1683.67 L1291.5 1689.55 L1286.61 1689.55 L1286.61 1683.67 Z" fill="#000000" fill-rule="evenodd" fill-opacity="1" /><path clip-path="url(#clip650)" d="M1301.73 1654.99 L1320.09 1654.99 L1320.09 1658.92 L1306.01 1658.92 L1306.01 1667.4 Q1307.03 1667.05 1308.05 1666.89 Q1309.07 1666.7 1310.09 1666.7 Q1315.87 1666.7 1319.25 1669.87 Q1322.63 1673.04 1322.63 1678.46 Q1322.63 1684.04 1319.16 1687.14 Q1315.69 1690.22 1309.37 1690.22 Q1307.19 1690.22 1304.92 1689.85 Q1302.68 1689.48 1300.27 1688.74 L1300.27 1684.04 Q1302.35 1685.17 1304.58 1685.73 Q1306.8 1686.28 1309.28 1686.28 Q1313.28 1686.28 1315.62 1684.18 Q1317.96 1682.07 1317.96 1678.46 Q1317.96 1674.85 1315.62 1672.74 Q1313.28 1670.64 1309.28 1670.64 Q1307.4 1670.64 1305.53 1671.05 Q1303.67 1671.47 1301.73 1672.35 L1301.73 1654.99 Z" fill="#000000" fill-rule="evenodd" fill-opacity="1" /><path clip-path="url(#clip650)" d="M1463.06 1745.31 L1470.7 1745.31 L1470.7 1718.94 L1462.39 1720.61 L1462.39 1716.35 L1470.66 1714.69 L1475.33 1714.69 L1475.33 1745.31 L1482.97 1745.31 L1482.97 1749.25 L1463.06 1749.25 L1463.06 1745.31 Z" fill="#000000" fill-rule="evenodd" fill-opacity="1" /><path clip-path="url(#clip650)" d="M1492.42 1743.37 L1497.3 1743.37 L1497.3 1749.25 L1492.42 1749.25 L1492.42 1743.37 Z" fill="#000000" fill-rule="evenodd" fill-opacity="1" /><path clip-path="url(#clip650)" d="M1517.48 1717.76 Q1513.87 1717.76 1512.05 1721.33 Q1510.24 1724.87 1510.24 1732 Q1510.24 1739.11 1512.05 1742.67 Q1513.87 1746.21 1517.48 1746.21 Q1521.12 1746.21 1522.92 1742.67 Q1524.75 1739.11 1524.75 1732 Q1524.75 1724.87 1522.92 1721.33 Q1521.12 1717.76 1517.48 1717.76 M1517.48 1714.06 Q1523.29 1714.06 1526.35 1718.67 Q1529.43 1723.25 1529.43 1732 Q1529.43 1740.73 1526.35 1745.33 Q1523.29 1749.92 1517.48 1749.92 Q1511.67 1749.92 1508.6 1745.33 Q1505.54 1740.73 1505.54 1732 Q1505.54 1723.25 1508.6 1718.67 Q1511.67 1714.06 1517.48 1714.06 Z" fill="#000000" fill-rule="evenodd" fill-opacity="1" /><polyline clip-path="url(#clip652)" style="stroke:#000000; stroke-linecap:round; stroke-linejoin:round; stroke-width:2; stroke-opacity:0.1; fill:none" points="
  1577.51,1695.74 700.741,1442.64 
  "/>
<polyline clip-path="url(#clip652)" style="stroke:#000000; stroke-linecap:round; stroke-linejoin:round; stroke-width:2; stroke-opacity:0.1; fill:none" points="
  700.741,1442.64 700.741,565.869 
  "/>
<polyline clip-path="url(#clip652)" style="stroke:#000000; stroke-linecap:round; stroke-linejoin:round; stroke-width:2; stroke-opacity:0.1; fill:none" points="
  1696.9,1592.34 820.132,1339.24 
  "/>
<polyline clip-path="url(#clip652)" style="stroke:#000000; stroke-linecap:round; stroke-linejoin:round; stroke-width:2; stroke-opacity:0.1; fill:none" points="
  820.132,1339.24 820.132,462.473 
  "/>
<polyline clip-path="url(#clip652)" style="stroke:#000000; stroke-linecap:round; stroke-linejoin:round; stroke-width:2; stroke-opacity:0.1; fill:none" points="
  1816.29,1488.95 939.523,1235.84 
  "/>
<polyline clip-path="url(#clip652)" style="stroke:#000000; stroke-linecap:round; stroke-linejoin:round; stroke-width:2; stroke-opacity:0.1; fill:none" points="
  939.523,1235.84 939.523,359.077 
  "/>
<polyline clip-path="url(#clip652)" style="stroke:#000000; stroke-linecap:round; stroke-linejoin:round; stroke-width:2; stroke-opacity:0.1; fill:none" points="
  1935.68,1385.55 1058.91,1132.45 
  "/>
<polyline clip-path="url(#clip652)" style="stroke:#000000; stroke-linecap:round; stroke-linejoin:round; stroke-width:2; stroke-opacity:0.1; fill:none" points="
  1058.91,1132.45 1058.91,255.682 
  "/>
<polyline clip-path="url(#clip652)" style="stroke:#000000; stroke-linecap:round; stroke-linejoin:round; stroke-width:2; stroke-opacity:0.1; fill:none" points="
  2055.07,1282.15 1178.3,1029.05 
  "/>
<polyline clip-path="url(#clip652)" style="stroke:#000000; stroke-linecap:round; stroke-linejoin:round; stroke-width:2; stroke-opacity:0.1; fill:none" points="
  1178.3,1029.05 1178.3,152.286 
  "/>
<polyline clip-path="url(#clip650)" style="stroke:#000000; stroke-linecap:round; stroke-linejoin:round; stroke-width:4; stroke-opacity:1; fill:none" points="
  1563.19,1708.14 2069.39,1269.75 
  "/>
<polyline clip-path="url(#clip650)" style="stroke:#000000; stroke-linecap:round; stroke-linejoin:round; stroke-width:4; stroke-opacity:1; fill:none" points="
  1577.51,1695.74 1566.99,1692.7 
  "/>
<polyline clip-path="url(#clip650)" style="stroke:#000000; stroke-linecap:round; stroke-linejoin:round; stroke-width:4; stroke-opacity:1; fill:none" points="
  1696.9,1592.34 1686.38,1589.3 
  "/>
<polyline clip-path="url(#clip650)" style="stroke:#000000; stroke-linecap:round; stroke-linejoin:round; stroke-width:4; stroke-opacity:1; fill:none" points="
  1816.29,1488.95 1805.77,1485.91 
  "/>
<polyline clip-path="url(#clip650)" style="stroke:#000000; stroke-linecap:round; stroke-linejoin:round; stroke-width:4; stroke-opacity:1; fill:none" points="
  1935.68,1385.55 1925.16,1382.51 
  "/>
<polyline clip-path="url(#clip650)" style="stroke:#000000; stroke-linecap:round; stroke-linejoin:round; stroke-width:4; stroke-opacity:1; fill:none" points="
  2055.07,1282.15 2044.55,1279.12 
  "/>
<path clip-path="url(#clip650)" d="M1598.62 1720.57 L1628.3 1720.57 L1628.3 1724.51 L1598.62 1724.51 L1598.62 1720.57 Z" fill="#000000" fill-rule="evenodd" fill-opacity="1" /><path clip-path="url(#clip650)" d="M1639.2 1733.47 L1646.84 1733.47 L1646.84 1707.1 L1638.53 1708.77 L1638.53 1704.51 L1646.8 1702.84 L1651.47 1702.84 L1651.47 1733.47 L1659.11 1733.47 L1659.11 1737.4 L1639.2 1737.4 L1639.2 1733.47 Z" fill="#000000" fill-rule="evenodd" fill-opacity="1" /><path clip-path="url(#clip650)" d="M1668.55 1731.52 L1673.44 1731.52 L1673.44 1737.4 L1668.55 1737.4 L1668.55 1731.52 Z" fill="#000000" fill-rule="evenodd" fill-opacity="1" /><path clip-path="url(#clip650)" d="M1693.62 1705.92 Q1690.01 1705.92 1688.18 1709.48 Q1686.38 1713.03 1686.38 1720.16 Q1686.38 1727.26 1688.18 1730.83 Q1690.01 1734.37 1693.62 1734.37 Q1697.26 1734.37 1699.06 1730.83 Q1700.89 1727.26 1700.89 1720.16 Q1700.89 1713.03 1699.06 1709.48 Q1697.26 1705.92 1693.62 1705.92 M1693.62 1702.22 Q1699.43 1702.22 1702.49 1706.82 Q1705.57 1711.41 1705.57 1720.16 Q1705.57 1728.88 1702.49 1733.49 Q1699.43 1738.07 1693.62 1738.07 Q1687.81 1738.07 1684.74 1733.49 Q1681.68 1728.88 1681.68 1720.16 Q1681.68 1711.41 1684.74 1706.82 Q1687.81 1702.22 1693.62 1702.22 Z" fill="#000000" fill-rule="evenodd" fill-opacity="1" /><path clip-path="url(#clip650)" d="M1718.02 1617.18 L1747.69 1617.18 L1747.69 1621.11 L1718.02 1621.11 L1718.02 1617.18 Z" fill="#000000" fill-rule="evenodd" fill-opacity="1" /><path clip-path="url(#clip650)" d="M1767.78 1602.52 Q1764.17 1602.52 1762.34 1606.09 Q1760.54 1609.63 1760.54 1616.76 Q1760.54 1623.87 1762.34 1627.43 Q1764.17 1630.97 1767.78 1630.97 Q1771.42 1630.97 1773.22 1627.43 Q1775.05 1623.87 1775.05 1616.76 Q1775.05 1609.63 1773.22 1606.09 Q1771.42 1602.52 1767.78 1602.52 M1767.78 1598.82 Q1773.59 1598.82 1776.65 1603.43 Q1779.73 1608.01 1779.73 1616.76 Q1779.73 1625.49 1776.65 1630.09 Q1773.59 1634.68 1767.78 1634.68 Q1761.97 1634.68 1758.89 1630.09 Q1755.84 1625.49 1755.84 1616.76 Q1755.84 1608.01 1758.89 1603.43 Q1761.97 1598.82 1767.78 1598.82 Z" fill="#000000" fill-rule="evenodd" fill-opacity="1" /><path clip-path="url(#clip650)" d="M1787.95 1628.13 L1792.83 1628.13 L1792.83 1634.01 L1787.95 1634.01 L1787.95 1628.13 Z" fill="#000000" fill-rule="evenodd" fill-opacity="1" /><path clip-path="url(#clip650)" d="M1803.06 1599.45 L1821.42 1599.45 L1821.42 1603.38 L1807.34 1603.38 L1807.34 1611.85 Q1808.36 1611.51 1809.38 1611.34 Q1810.4 1611.16 1811.42 1611.16 Q1817.2 1611.16 1820.58 1614.33 Q1823.96 1617.5 1823.96 1622.92 Q1823.96 1628.5 1820.49 1631.6 Q1817.02 1634.68 1810.7 1634.68 Q1808.52 1634.68 1806.26 1634.31 Q1804.01 1633.94 1801.6 1633.2 L1801.6 1628.5 Q1803.69 1629.63 1805.91 1630.19 Q1808.13 1630.74 1810.61 1630.74 Q1814.61 1630.74 1816.95 1628.63 Q1819.29 1626.53 1819.29 1622.92 Q1819.29 1619.31 1816.95 1617.2 Q1814.61 1615.09 1810.61 1615.09 Q1808.73 1615.09 1806.86 1615.51 Q1805.01 1615.93 1803.06 1616.81 L1803.06 1599.45 Z" fill="#000000" fill-rule="evenodd" fill-opacity="1" /><path clip-path="url(#clip650)" d="M1849.35 1499.13 Q1845.74 1499.13 1843.91 1502.69 Q1842.11 1506.23 1842.11 1513.36 Q1842.11 1520.47 1843.91 1524.04 Q1845.74 1527.58 1849.35 1527.58 Q1852.99 1527.58 1854.79 1524.04 Q1856.62 1520.47 1856.62 1513.36 Q1856.62 1506.23 1854.79 1502.69 Q1852.99 1499.13 1849.35 1499.13 M1849.35 1495.42 Q1855.16 1495.42 1858.22 1500.03 Q1861.3 1504.61 1861.3 1513.36 Q1861.3 1522.09 1858.22 1526.7 Q1855.16 1531.28 1849.35 1531.28 Q1843.54 1531.28 1840.46 1526.7 Q1837.41 1522.09 1837.41 1513.36 Q1837.41 1504.61 1840.46 1500.03 Q1843.54 1495.42 1849.35 1495.42 Z" fill="#000000" fill-rule="evenodd" fill-opacity="1" /><path clip-path="url(#clip650)" d="M1869.51 1524.73 L1874.4 1524.73 L1874.4 1530.61 L1869.51 1530.61 L1869.51 1524.73 Z" fill="#000000" fill-rule="evenodd" fill-opacity="1" /><path clip-path="url(#clip650)" d="M1894.58 1499.13 Q1890.97 1499.13 1889.14 1502.69 Q1887.34 1506.23 1887.34 1513.36 Q1887.34 1520.47 1889.14 1524.04 Q1890.97 1527.58 1894.58 1527.58 Q1898.22 1527.58 1900.02 1524.04 Q1901.85 1520.47 1901.85 1513.36 Q1901.85 1506.23 1900.02 1502.69 Q1898.22 1499.13 1894.58 1499.13 M1894.58 1495.42 Q1900.39 1495.42 1903.45 1500.03 Q1906.53 1504.61 1906.53 1513.36 Q1906.53 1522.09 1903.45 1526.7 Q1900.39 1531.28 1894.58 1531.28 Q1888.77 1531.28 1885.69 1526.7 Q1882.64 1522.09 1882.64 1513.36 Q1882.64 1504.61 1885.69 1500.03 Q1888.77 1495.42 1894.58 1495.42 Z" fill="#000000" fill-rule="evenodd" fill-opacity="1" /><path clip-path="url(#clip650)" d="M1968.74 1395.73 Q1965.13 1395.73 1963.3 1399.3 Q1961.5 1402.84 1961.5 1409.97 Q1961.5 1417.08 1963.3 1420.64 Q1965.13 1424.18 1968.74 1424.18 Q1972.38 1424.18 1974.18 1420.64 Q1976.01 1417.08 1976.01 1409.97 Q1976.01 1402.84 1974.18 1399.3 Q1972.38 1395.73 1968.74 1395.73 M1968.74 1392.03 Q1974.55 1392.03 1977.61 1396.64 Q1980.69 1401.22 1980.69 1409.97 Q1980.69 1418.7 1977.61 1423.3 Q1974.55 1427.89 1968.74 1427.89 Q1962.93 1427.89 1959.85 1423.3 Q1956.8 1418.7 1956.8 1409.97 Q1956.8 1401.22 1959.85 1396.64 Q1962.93 1392.03 1968.74 1392.03 Z" fill="#000000" fill-rule="evenodd" fill-opacity="1" /><path clip-path="url(#clip650)" d="M1988.9 1421.33 L1993.79 1421.33 L1993.79 1427.21 L1988.9 1427.21 L1988.9 1421.33 Z" fill="#000000" fill-rule="evenodd" fill-opacity="1" /><path clip-path="url(#clip650)" d="M2004.02 1392.65 L2022.38 1392.65 L2022.38 1396.59 L2008.3 1396.59 L2008.3 1405.06 Q2009.32 1404.71 2010.34 1404.55 Q2011.36 1404.37 2012.38 1404.37 Q2018.16 1404.37 2021.54 1407.54 Q2024.92 1410.71 2024.92 1416.13 Q2024.92 1421.7 2021.45 1424.81 Q2017.98 1427.89 2011.66 1427.89 Q2009.48 1427.89 2007.21 1427.51 Q2004.97 1427.14 2002.56 1426.4 L2002.56 1421.7 Q2004.64 1422.84 2006.87 1423.39 Q2009.09 1423.95 2011.57 1423.95 Q2015.57 1423.95 2017.91 1421.84 Q2020.25 1419.74 2020.25 1416.13 Q2020.25 1412.51 2017.91 1410.41 Q2015.57 1408.3 2011.57 1408.3 Q2009.69 1408.3 2007.82 1408.72 Q2005.96 1409.14 2004.02 1410.01 L2004.02 1392.65 Z" fill="#000000" fill-rule="evenodd" fill-opacity="1" /><path clip-path="url(#clip650)" d="M2076.86 1319.88 L2084.5 1319.88 L2084.5 1293.52 L2076.19 1295.18 L2076.19 1290.92 L2084.45 1289.26 L2089.13 1289.26 L2089.13 1319.88 L2096.77 1319.88 L2096.77 1323.82 L2076.86 1323.82 L2076.86 1319.88 Z" fill="#000000" fill-rule="evenodd" fill-opacity="1" /><path clip-path="url(#clip650)" d="M2106.21 1317.94 L2111.1 1317.94 L2111.1 1323.82 L2106.21 1323.82 L2106.21 1317.94 Z" fill="#000000" fill-rule="evenodd" fill-opacity="1" /><path clip-path="url(#clip650)" d="M2131.28 1292.34 Q2127.67 1292.34 2125.84 1295.9 Q2124.04 1299.44 2124.04 1306.57 Q2124.04 1313.68 2125.84 1317.24 Q2127.67 1320.79 2131.28 1320.79 Q2134.91 1320.79 2136.72 1317.24 Q2138.55 1313.68 2138.55 1306.57 Q2138.55 1299.44 2136.72 1295.9 Q2134.91 1292.34 2131.28 1292.34 M2131.28 1288.63 Q2137.09 1288.63 2140.15 1293.24 Q2143.23 1297.82 2143.23 1306.57 Q2143.23 1315.3 2140.15 1319.91 Q2137.09 1324.49 2131.28 1324.49 Q2125.47 1324.49 2122.39 1319.91 Q2119.34 1315.3 2119.34 1306.57 Q2119.34 1297.82 2122.39 1293.24 Q2125.47 1288.63 2131.28 1288.63 Z" fill="#000000" fill-rule="evenodd" fill-opacity="1" /><polyline clip-path="url(#clip652)" style="stroke:#000000; stroke-linecap:round; stroke-linejoin:round; stroke-width:2; stroke-opacity:0.1; fill:none" points="
  686.422,1430.22 1192.62,991.839 
  "/>
<polyline clip-path="url(#clip652)" style="stroke:#000000; stroke-linecap:round; stroke-linejoin:round; stroke-width:2; stroke-opacity:0.1; fill:none" points="
  1192.62,991.839 2069.39,1244.94 
  "/>
<polyline clip-path="url(#clip652)" style="stroke:#000000; stroke-linecap:round; stroke-linejoin:round; stroke-width:2; stroke-opacity:0.1; fill:none" points="
  686.422,1298.58 1192.62,860.196 
  "/>
<polyline clip-path="url(#clip652)" style="stroke:#000000; stroke-linecap:round; stroke-linejoin:round; stroke-width:2; stroke-opacity:0.1; fill:none" points="
  1192.62,860.196 2069.39,1113.3 
  "/>
<polyline clip-path="url(#clip652)" style="stroke:#000000; stroke-linecap:round; stroke-linejoin:round; stroke-width:2; stroke-opacity:0.1; fill:none" points="
  686.422,1166.94 1192.62,728.552 
  "/>
<polyline clip-path="url(#clip652)" style="stroke:#000000; stroke-linecap:round; stroke-linejoin:round; stroke-width:2; stroke-opacity:0.1; fill:none" points="
  1192.62,728.552 2069.39,981.653 
  "/>
<polyline clip-path="url(#clip652)" style="stroke:#000000; stroke-linecap:round; stroke-linejoin:round; stroke-width:2; stroke-opacity:0.1; fill:none" points="
  686.422,1035.29 1192.62,596.909 
  "/>
<polyline clip-path="url(#clip652)" style="stroke:#000000; stroke-linecap:round; stroke-linejoin:round; stroke-width:2; stroke-opacity:0.1; fill:none" points="
  1192.62,596.909 2069.39,850.01 
  "/>
<polyline clip-path="url(#clip652)" style="stroke:#000000; stroke-linecap:round; stroke-linejoin:round; stroke-width:2; stroke-opacity:0.1; fill:none" points="
  686.422,903.65 1192.62,465.266 
  "/>
<polyline clip-path="url(#clip652)" style="stroke:#000000; stroke-linecap:round; stroke-linejoin:round; stroke-width:2; stroke-opacity:0.1; fill:none" points="
  1192.62,465.266 2069.39,718.367 
  "/>
<polyline clip-path="url(#clip652)" style="stroke:#000000; stroke-linecap:round; stroke-linejoin:round; stroke-width:2; stroke-opacity:0.1; fill:none" points="
  686.422,772.006 1192.62,333.622 
  "/>
<polyline clip-path="url(#clip652)" style="stroke:#000000; stroke-linecap:round; stroke-linejoin:round; stroke-width:2; stroke-opacity:0.1; fill:none" points="
  1192.62,333.622 2069.39,586.723 
  "/>
<polyline clip-path="url(#clip652)" style="stroke:#000000; stroke-linecap:round; stroke-linejoin:round; stroke-width:2; stroke-opacity:0.1; fill:none" points="
  686.422,640.363 1192.62,201.979 
  "/>
<polyline clip-path="url(#clip652)" style="stroke:#000000; stroke-linecap:round; stroke-linejoin:round; stroke-width:2; stroke-opacity:0.1; fill:none" points="
  1192.62,201.979 2069.39,455.08 
  "/>
<polyline clip-path="url(#clip650)" style="stroke:#000000; stroke-linecap:round; stroke-linejoin:round; stroke-width:4; stroke-opacity:1; fill:none" points="
  686.422,1455.04 686.422,578.269 
  "/>
<polyline clip-path="url(#clip650)" style="stroke:#000000; stroke-linecap:round; stroke-linejoin:round; stroke-width:4; stroke-opacity:1; fill:none" points="
  686.422,1430.22 692.496,1424.96 
  "/>
<polyline clip-path="url(#clip650)" style="stroke:#000000; stroke-linecap:round; stroke-linejoin:round; stroke-width:4; stroke-opacity:1; fill:none" points="
  686.422,1298.58 692.496,1293.32 
  "/>
<polyline clip-path="url(#clip650)" style="stroke:#000000; stroke-linecap:round; stroke-linejoin:round; stroke-width:4; stroke-opacity:1; fill:none" points="
  686.422,1166.94 692.496,1161.68 
  "/>
<polyline clip-path="url(#clip650)" style="stroke:#000000; stroke-linecap:round; stroke-linejoin:round; stroke-width:4; stroke-opacity:1; fill:none" points="
  686.422,1035.29 692.496,1030.03 
  "/>
<polyline clip-path="url(#clip650)" style="stroke:#000000; stroke-linecap:round; stroke-linejoin:round; stroke-width:4; stroke-opacity:1; fill:none" points="
  686.422,903.65 692.496,898.389 
  "/>
<polyline clip-path="url(#clip650)" style="stroke:#000000; stroke-linecap:round; stroke-linejoin:round; stroke-width:4; stroke-opacity:1; fill:none" points="
  686.422,772.006 692.496,766.746 
  "/>
<polyline clip-path="url(#clip650)" style="stroke:#000000; stroke-linecap:round; stroke-linejoin:round; stroke-width:4; stroke-opacity:1; fill:none" points="
  686.422,640.363 692.496,635.102 
  "/>
<path clip-path="url(#clip650)" d="M642.221 1416.02 Q638.61 1416.02 636.782 1419.59 Q634.976 1423.13 634.976 1430.26 Q634.976 1437.36 636.782 1440.93 Q638.61 1444.47 642.221 1444.47 Q645.856 1444.47 647.661 1440.93 Q649.49 1437.36 649.49 1430.26 Q649.49 1423.13 647.661 1419.59 Q645.856 1416.02 642.221 1416.02 M642.221 1412.32 Q648.032 1412.32 651.087 1416.92 Q654.166 1421.51 654.166 1430.26 Q654.166 1438.98 651.087 1443.59 Q648.032 1448.17 642.221 1448.17 Q636.411 1448.17 633.333 1443.59 Q630.277 1438.98 630.277 1430.26 Q630.277 1421.51 633.333 1416.92 Q636.411 1412.32 642.221 1412.32 Z" fill="#000000" fill-rule="evenodd" fill-opacity="1" /><path clip-path="url(#clip650)" d="M634.258 1311.92 L641.897 1311.92 L641.897 1285.56 L633.587 1287.23 L633.587 1282.97 L641.851 1281.3 L646.527 1281.3 L646.527 1311.92 L654.166 1311.92 L654.166 1315.86 L634.258 1315.86 L634.258 1311.92 Z" fill="#000000" fill-rule="evenodd" fill-opacity="1" /><path clip-path="url(#clip650)" d="M637.846 1180.28 L654.166 1180.28 L654.166 1184.22 L632.221 1184.22 L632.221 1180.28 Q634.883 1177.53 639.467 1172.9 Q644.073 1168.24 645.254 1166.9 Q647.499 1164.38 648.379 1162.64 Q649.281 1160.88 649.281 1159.19 Q649.281 1156.44 647.337 1154.7 Q645.416 1152.97 642.314 1152.97 Q640.115 1152.97 637.661 1153.73 Q635.231 1154.49 632.453 1156.04 L632.453 1151.32 Q635.277 1150.19 637.731 1149.61 Q640.184 1149.03 642.221 1149.03 Q647.592 1149.03 650.786 1151.72 Q653.981 1154.4 653.981 1158.89 Q653.981 1161.02 653.17 1162.94 Q652.383 1164.84 650.277 1167.43 Q649.698 1168.11 646.596 1171.32 Q643.494 1174.52 637.846 1180.28 Z" fill="#000000" fill-rule="evenodd" fill-opacity="1" /><path clip-path="url(#clip650)" d="M647.036 1033.94 Q650.393 1034.66 652.268 1036.92 Q654.166 1039.19 654.166 1042.53 Q654.166 1047.64 650.647 1050.44 Q647.129 1053.24 640.647 1053.24 Q638.471 1053.24 636.157 1052.8 Q633.865 1052.39 631.411 1051.53 L631.411 1047.02 Q633.356 1048.15 635.67 1048.73 Q637.985 1049.31 640.508 1049.31 Q644.907 1049.31 647.198 1047.57 Q649.513 1045.84 649.513 1042.53 Q649.513 1039.47 647.36 1037.76 Q645.231 1036.02 641.411 1036.02 L637.383 1036.02 L637.383 1032.18 L641.596 1032.18 Q645.045 1032.18 646.874 1030.81 Q648.703 1029.42 648.703 1026.83 Q648.703 1024.17 646.805 1022.76 Q644.93 1021.32 641.411 1021.32 Q639.49 1021.32 637.291 1021.74 Q635.092 1022.16 632.453 1023.04 L632.453 1018.87 Q635.115 1018.13 637.43 1017.76 Q639.768 1017.39 641.828 1017.39 Q647.152 1017.39 650.254 1019.82 Q653.356 1022.23 653.356 1026.35 Q653.356 1029.22 651.712 1031.21 Q650.069 1033.17 647.036 1033.94 Z" fill="#000000" fill-rule="evenodd" fill-opacity="1" /><path clip-path="url(#clip650)" d="M644.582 890.444 L632.777 908.893 L644.582 908.893 L644.582 890.444 M643.356 886.37 L649.235 886.37 L649.235 908.893 L654.166 908.893 L654.166 912.781 L649.235 912.781 L649.235 920.93 L644.582 920.93 L644.582 912.781 L628.981 912.781 L628.981 908.268 L643.356 886.37 Z" fill="#000000" fill-rule="evenodd" fill-opacity="1" /><path clip-path="url(#clip650)" d="M633.263 754.726 L651.619 754.726 L651.619 758.661 L637.545 758.661 L637.545 767.134 Q638.564 766.786 639.582 766.624 Q640.601 766.439 641.62 766.439 Q647.407 766.439 650.786 769.61 Q654.166 772.782 654.166 778.198 Q654.166 783.777 650.694 786.879 Q647.221 789.958 640.902 789.958 Q638.726 789.958 636.457 789.587 Q634.212 789.217 631.805 788.476 L631.805 783.777 Q633.888 784.911 636.11 785.467 Q638.332 786.022 640.809 786.022 Q644.814 786.022 647.152 783.916 Q649.49 781.809 649.49 778.198 Q649.49 774.587 647.152 772.481 Q644.814 770.374 640.809 770.374 Q638.934 770.374 637.059 770.791 Q635.208 771.208 633.263 772.087 L633.263 754.726 Z" fill="#000000" fill-rule="evenodd" fill-opacity="1" /><path clip-path="url(#clip650)" d="M642.638 638.5 Q639.49 638.5 637.638 640.652 Q635.809 642.805 635.809 646.555 Q635.809 650.282 637.638 652.458 Q639.49 654.611 642.638 654.611 Q645.786 654.611 647.615 652.458 Q649.467 650.282 649.467 646.555 Q649.467 642.805 647.615 640.652 Q645.786 638.5 642.638 638.5 M651.92 623.847 L651.92 628.106 Q650.161 627.273 648.356 626.833 Q646.573 626.393 644.814 626.393 Q640.184 626.393 637.731 629.518 Q635.3 632.643 634.953 638.962 Q636.319 636.949 638.379 635.884 Q640.439 634.796 642.916 634.796 Q648.124 634.796 651.133 637.967 Q654.166 641.115 654.166 646.555 Q654.166 651.879 651.018 655.097 Q647.869 658.314 642.638 658.314 Q636.643 658.314 633.471 653.731 Q630.3 649.124 630.3 640.398 Q630.3 632.203 634.189 627.342 Q638.078 622.458 644.629 622.458 Q646.388 622.458 648.17 622.805 Q649.976 623.152 651.92 623.847 Z" fill="#000000" fill-rule="evenodd" fill-opacity="1" /><polyline clip-path="url(#clip652)" style="stroke:#009af9; stroke-linecap:round; stroke-linejoin:round; stroke-width:4; stroke-opacity:1; fill:none" points="
  1791.48,1456.97 1798.81,1446.22 1805.72,1435.37 1812.21,1424.41 1818.26,1413.34 1823.87,1402.19 1829.04,1390.95 1833.76,1379.64 1838.03,1368.25 1841.83,1356.8 
  1845.18,1345.29 1848.06,1333.73 1850.46,1322.13 1852.4,1310.5 1853.87,1298.84 1854.86,1287.16 1855.37,1275.47 1855.41,1263.78 1854.98,1252.08 1854.07,1240.4 
  1852.68,1228.74 1850.82,1217.1 1848.49,1205.5 1845.69,1193.93 1842.42,1182.41 1838.69,1170.95 1834.5,1159.55 1829.86,1148.23 1824.76,1136.97 1819.22,1125.81 
  1813.24,1114.73 1806.83,1103.75 1799.98,1092.87 1792.72,1082.11 1785.04,1071.47 1776.96,1060.94 1768.48,1050.55 1759.61,1040.3 1750.36,1030.19 1740.74,1020.23 
  1730.76,1010.42 1720.42,1000.78 1709.75,991.296 1698.74,981.986 1687.41,972.853 1675.78,963.902 1663.85,955.136 1651.63,946.561 1639.14,938.181 1626.39,930 
  1613.39,922.023 1600.16,914.252 1586.7,906.693 1573.04,899.347 1559.18,892.218 1545.14,885.31 1530.94,878.625 1516.58,872.165 1502.09,865.933 1487.47,859.931 
  1472.74,854.16 1457.92,848.623 1443.01,843.32 1428.04,838.253 1413.03,833.423 1397.97,828.831 1382.9,824.476 1367.82,820.359 1352.75,816.48 1337.71,812.839 
  1322.71,809.435 1307.76,806.267 1292.88,803.335 1278.09,800.637 1263.4,798.172 1248.82,795.938 1234.36,793.933 1220.06,792.155 1205.91,790.601 1191.93,789.27 
  1178.13,788.158 1164.54,787.263 1151.16,786.58 1138,786.107 1125.08,785.839 1112.42,785.774 1100.02,785.906 1087.89,786.232 1076.06,786.747 1064.53,787.446 
  1053.31,788.326 1042.41,789.379 1031.85,790.603 1021.63,791.99 1011.76,793.536 1002.27,795.234 993.142,797.08 984.402,799.066 976.054,801.188 968.106,803.438 
  960.567,805.811 953.444,808.299 946.745,810.896 940.475,813.596 934.64,816.391 929.248,819.275 924.303,822.24 919.81,825.28 915.774,828.388 912.198,831.555 
  909.087,834.775 906.443,838.041 904.268,841.345 902.566,844.679 901.338,848.037 900.585,851.41 900.307,854.791 900.506,858.173 901.18,861.548 902.33,864.908 
  903.954,868.247 906.05,871.556 908.616,874.829 911.65,878.057 915.149,881.234 919.109,884.352 923.527,887.404 928.397,890.382 933.716,893.28 939.477,896.091 
  945.675,898.807 952.304,901.422 959.357,903.929 966.828,906.321 974.708,908.592 982.99,910.736 991.666,912.745 1000.73,914.615 1010.16,916.339 1019.97,917.911 
  1030.13,919.325 1040.63,920.576 1051.48,921.658 1062.64,922.567 1074.13,923.297 1085.91,923.843 1097.99,924.201 1110.34,924.366 1122.97,924.334 1135.84,924.101 
  1148.96,923.662 1162.3,923.015 1175.86,922.155 1189.63,921.08 1203.58,919.785 1217.7,918.27 1231.98,916.529 1246.41,914.563 1260.97,912.367 1275.65,909.941 
  1290.42,907.282 1305.29,904.389 1320.23,901.261 1335.22,897.897 1350.26,894.295 1365.32,890.456 1380.4,886.379 1395.48,882.064 1410.53,877.511 1425.56,872.721 
  1440.53,867.693 1455.45,862.43 1470.29,856.932 1485.03,851.201 1499.67,845.237 1514.19,839.043 1528.57,832.621 1542.8,825.974 1556.87,819.103 1570.76,812.011 
  1584.45,804.701 1597.94,797.177 1611.21,789.442 1624.25,781.499 1637.04,773.352 1649.58,765.005 1661.84,756.462 1673.82,747.728 1685.51,738.807 1696.88,729.705 
  1707.95,720.424 1718.68,710.972 1729.07,701.354 1739.11,691.573 1748.79,681.637 1758.11,671.552 1767.04,661.322 1775.58,650.954 1783.73,640.454 1791.48,629.829 
  
  "/>
<path clip-path="url(#clip650)" d="
M2223.5 209.375 L2556.57 209.375 L2556.57 105.695 L2223.5 105.695  Z
  " fill="#ffffff" fill-rule="evenodd" fill-opacity="1"/>
<polyline clip-path="url(#clip650)" style="stroke:#000000; stroke-linecap:round; stroke-linejoin:round; stroke-width:4; stroke-opacity:1; fill:none" points="
  2223.5,209.375 2556.57,209.375 2556.57,105.695 2223.5,105.695 2223.5,209.375 
  "/>
<polyline clip-path="url(#clip650)" style="stroke:#009af9; stroke-linecap:round; stroke-linejoin:round; stroke-width:4; stroke-opacity:1; fill:none" points="
  2251.57,157.535 2419.95,157.535 
  "/>
<path clip-path="url(#clip650)" d="M2461.85 177.223 Q2460.05 181.852 2458.33 183.264 Q2456.62 184.676 2453.75 184.676 L2450.35 184.676 L2450.35 181.112 L2452.85 181.112 Q2454.61 181.112 2455.58 180.278 Q2456.55 179.445 2457.73 176.343 L2458.5 174.399 L2448.01 148.889 L2452.52 148.889 L2460.62 169.167 L2468.73 148.889 L2473.24 148.889 L2461.85 177.223 Z" fill="#000000" fill-rule="evenodd" fill-opacity="1" /><path clip-path="url(#clip650)" d="M2480.53 170.88 L2488.17 170.88 L2488.17 144.515 L2479.86 146.181 L2479.86 141.922 L2488.12 140.255 L2492.8 140.255 L2492.8 170.88 L2500.44 170.88 L2500.44 174.815 L2480.53 174.815 L2480.53 170.88 Z" fill="#000000" fill-rule="evenodd" fill-opacity="1" /></svg>
