<?xml version="1.0" encoding="utf-8"?>
<svg xmlns="http://www.w3.org/2000/svg" xmlns:xlink="http://www.w3.org/1999/xlink" width="672" height="480" viewBox="0 0 2688 1920">
<defs>
  <clipPath id="clip030">
    <rect x="0" y="0" width="2688" height="1920"/>
  </clipPath>
</defs>
<path clip-path="url(#clip030)" d="
M0 1920 L2688 1920 L2688 0 L0 0  Z
  " fill="#ffffff" fill-rule="evenodd" fill-opacity="1"/>
<defs>
  <clipPath id="clip031">
    <rect x="537" y="0" width="1883" height="1883"/>
  </clipPath>
</defs>
<defs>
  <clipPath id="clip032">
    <rect x="141" y="47" width="2500" height="1755"/>
  </clipPath>
</defs>
<path clip-path="url(#clip032)" d="
M738.933 1425.06 L738.933 597.871 L1216.5 184.275 L2043.66 423.065 L2043.66 1250.26 L1566.1 1663.85 L738.933 1425.06  Z
  " fill="#ffffff" fill-rule="evenodd" fill-opacity="1"/>
<polyline clip-path="url(#clip032)" style="stroke:#000000; stroke-linecap:butt; stroke-linejoin:round; stroke-width:2; stroke-opacity:0.1; fill:none" points="
  724.614,1462.2 1230.82,1023.81 
  "/>
<polyline clip-path="url(#clip032)" style="stroke:#000000; stroke-linecap:butt; stroke-linejoin:round; stroke-width:2; stroke-opacity:0.1; fill:none" points="
  1230.82,1023.81 1230.82,147.045 
  "/>
<polyline clip-path="url(#clip032)" style="stroke:#000000; stroke-linecap:butt; stroke-linejoin:round; stroke-width:2; stroke-opacity:0.1; fill:none" points="
  931.405,1521.89 1437.61,1083.51 
  "/>
<polyline clip-path="url(#clip032)" style="stroke:#000000; stroke-linecap:butt; stroke-linejoin:round; stroke-width:2; stroke-opacity:0.1; fill:none" points="
  1437.61,1083.51 1437.61,206.741 
  "/>
<polyline clip-path="url(#clip032)" style="stroke:#000000; stroke-linecap:butt; stroke-linejoin:round; stroke-width:2; stroke-opacity:0.1; fill:none" points="
  1138.2,1581.59 1644.4,1143.2 
  "/>
<polyline clip-path="url(#clip032)" style="stroke:#000000; stroke-linecap:butt; stroke-linejoin:round; stroke-width:2; stroke-opacity:0.1; fill:none" points="
  1644.4,1143.2 1644.4,266.436 
  "/>
<polyline clip-path="url(#clip032)" style="stroke:#000000; stroke-linecap:butt; stroke-linejoin:round; stroke-width:2; stroke-opacity:0.1; fill:none" points="
  1344.99,1641.28 1851.19,1202.9 
  "/>
<polyline clip-path="url(#clip032)" style="stroke:#000000; stroke-linecap:butt; stroke-linejoin:round; stroke-width:2; stroke-opacity:0.1; fill:none" points="
  1851.19,1202.9 1851.19,326.131 
  "/>
<polyline clip-path="url(#clip032)" style="stroke:#000000; stroke-linecap:butt; stroke-linejoin:round; stroke-width:2; stroke-opacity:0.1; fill:none" points="
  1551.78,1700.98 2057.98,1262.59 
  "/>
<polyline clip-path="url(#clip032)" style="stroke:#000000; stroke-linecap:butt; stroke-linejoin:round; stroke-width:2; stroke-opacity:0.1; fill:none" points="
  2057.98,1262.59 2057.98,385.827 
  "/>
<polyline clip-path="url(#clip030)" style="stroke:#000000; stroke-linecap:butt; stroke-linejoin:round; stroke-width:4; stroke-opacity:1; fill:none" points="
  699.813,1455.04 1576.58,1708.14 
  "/>
<polyline clip-path="url(#clip030)" style="stroke:#000000; stroke-linecap:butt; stroke-linejoin:round; stroke-width:4; stroke-opacity:1; fill:none" points="
  724.614,1462.2 730.689,1456.94 
  "/>
<polyline clip-path="url(#clip030)" style="stroke:#000000; stroke-linecap:butt; stroke-linejoin:round; stroke-width:4; stroke-opacity:1; fill:none" points="
  931.405,1521.89 937.48,1516.63 
  "/>
<polyline clip-path="url(#clip030)" style="stroke:#000000; stroke-linecap:butt; stroke-linejoin:round; stroke-width:4; stroke-opacity:1; fill:none" points="
  1138.2,1581.59 1144.27,1576.33 
  "/>
<polyline clip-path="url(#clip030)" style="stroke:#000000; stroke-linecap:butt; stroke-linejoin:round; stroke-width:4; stroke-opacity:1; fill:none" points="
  1344.99,1641.28 1351.06,1636.02 
  "/>
<polyline clip-path="url(#clip030)" style="stroke:#000000; stroke-linecap:butt; stroke-linejoin:round; stroke-width:4; stroke-opacity:1; fill:none" points="
  1551.78,1700.98 1557.85,1695.72 
  "/>
<path clip-path="url(#clip030)" d="M608.724 1493.64 L638.4 1493.64 L638.4 1497.57 L608.724 1497.57 L608.724 1493.64 Z" fill="#000000" fill-rule="evenodd" fill-opacity="1" /><path clip-path="url(#clip030)" d="M649.302 1506.53 L656.941 1506.53 L656.941 1480.17 L648.631 1481.83 L648.631 1477.57 L656.895 1475.91 L661.571 1475.91 L661.571 1506.53 L669.21 1506.53 L669.21 1510.47 L649.302 1510.47 L649.302 1506.53 Z" fill="#000000" fill-rule="evenodd" fill-opacity="1" /><path clip-path="url(#clip030)" d="M678.654 1504.59 L683.538 1504.59 L683.538 1510.47 L678.654 1510.47 L678.654 1504.59 Z" fill="#000000" fill-rule="evenodd" fill-opacity="1" /><path clip-path="url(#clip030)" d="M703.723 1478.99 Q700.112 1478.99 698.284 1482.55 Q696.478 1486.09 696.478 1493.22 Q696.478 1500.33 698.284 1503.89 Q700.112 1507.43 703.723 1507.43 Q707.358 1507.43 709.163 1503.89 Q710.992 1500.33 710.992 1493.22 Q710.992 1486.09 709.163 1482.55 Q707.358 1478.99 703.723 1478.99 M703.723 1475.28 Q709.533 1475.28 712.589 1479.89 Q715.668 1484.47 715.668 1493.22 Q715.668 1501.95 712.589 1506.55 Q709.533 1511.14 703.723 1511.14 Q697.913 1511.14 694.834 1506.55 Q691.779 1501.95 691.779 1493.22 Q691.779 1484.47 694.834 1479.89 Q697.913 1475.28 703.723 1475.28 Z" fill="#000000" fill-rule="evenodd" fill-opacity="1" /><path clip-path="url(#clip030)" d="M816.51 1553.33 L846.186 1553.33 L846.186 1557.27 L816.51 1557.27 L816.51 1553.33 Z" fill="#000000" fill-rule="evenodd" fill-opacity="1" /><path clip-path="url(#clip030)" d="M866.279 1538.68 Q862.668 1538.68 860.839 1542.25 Q859.033 1545.79 859.033 1552.92 Q859.033 1560.02 860.839 1563.59 Q862.668 1567.13 866.279 1567.13 Q869.913 1567.13 871.718 1563.59 Q873.547 1560.02 873.547 1552.92 Q873.547 1545.79 871.718 1542.25 Q869.913 1538.68 866.279 1538.68 M866.279 1534.98 Q872.089 1534.98 875.144 1539.58 Q878.223 1544.17 878.223 1552.92 Q878.223 1561.64 875.144 1566.25 Q872.089 1570.83 866.279 1570.83 Q860.469 1570.83 857.39 1566.25 Q854.334 1561.64 854.334 1552.92 Q854.334 1544.17 857.39 1539.58 Q860.469 1534.98 866.279 1534.98 Z" fill="#000000" fill-rule="evenodd" fill-opacity="1" /><path clip-path="url(#clip030)" d="M886.441 1564.28 L891.325 1564.28 L891.325 1570.16 L886.441 1570.16 L886.441 1564.28 Z" fill="#000000" fill-rule="evenodd" fill-opacity="1" /><path clip-path="url(#clip030)" d="M901.556 1535.6 L919.913 1535.6 L919.913 1539.54 L905.839 1539.54 L905.839 1548.01 Q906.857 1547.66 907.876 1547.5 Q908.894 1547.32 909.913 1547.32 Q915.7 1547.32 919.079 1550.49 Q922.459 1553.66 922.459 1559.07 Q922.459 1564.65 918.987 1567.76 Q915.515 1570.83 909.195 1570.83 Q907.019 1570.83 904.751 1570.46 Q902.505 1570.09 900.098 1569.35 L900.098 1564.65 Q902.181 1565.79 904.403 1566.34 Q906.626 1566.9 909.103 1566.9 Q913.107 1566.9 915.445 1564.79 Q917.783 1562.69 917.783 1559.07 Q917.783 1555.46 915.445 1553.36 Q913.107 1551.25 909.103 1551.25 Q907.228 1551.25 905.353 1551.67 Q903.501 1552.08 901.556 1552.96 L901.556 1535.6 Z" fill="#000000" fill-rule="evenodd" fill-opacity="1" /><path clip-path="url(#clip030)" d="M1072.07 1598.38 Q1068.46 1598.38 1066.63 1601.94 Q1064.83 1605.48 1064.83 1612.61 Q1064.83 1619.72 1066.63 1623.28 Q1068.46 1626.83 1072.07 1626.83 Q1075.71 1626.83 1077.51 1623.28 Q1079.34 1619.72 1079.34 1612.61 Q1079.34 1605.48 1077.51 1601.94 Q1075.71 1598.38 1072.07 1598.38 M1072.07 1594.67 Q1077.88 1594.67 1080.94 1599.28 Q1084.02 1603.86 1084.02 1612.61 Q1084.02 1621.34 1080.94 1625.95 Q1077.88 1630.53 1072.07 1630.53 Q1066.26 1630.53 1063.19 1625.95 Q1060.13 1621.34 1060.13 1612.61 Q1060.13 1603.86 1063.19 1599.28 Q1066.26 1594.67 1072.07 1594.67 Z" fill="#000000" fill-rule="evenodd" fill-opacity="1" /><path clip-path="url(#clip030)" d="M1092.24 1623.98 L1097.12 1623.98 L1097.12 1629.86 L1092.24 1629.86 L1092.24 1623.98 Z" fill="#000000" fill-rule="evenodd" fill-opacity="1" /><path clip-path="url(#clip030)" d="M1117.31 1598.38 Q1113.69 1598.38 1111.87 1601.94 Q1110.06 1605.48 1110.06 1612.61 Q1110.06 1619.72 1111.87 1623.28 Q1113.69 1626.83 1117.31 1626.83 Q1120.94 1626.83 1122.75 1623.28 Q1124.57 1619.72 1124.57 1612.61 Q1124.57 1605.48 1122.75 1601.94 Q1120.94 1598.38 1117.31 1598.38 M1117.31 1594.67 Q1123.12 1594.67 1126.17 1599.28 Q1129.25 1603.86 1129.25 1612.61 Q1129.25 1621.34 1126.17 1625.95 Q1123.12 1630.53 1117.31 1630.53 Q1111.5 1630.53 1108.42 1625.95 Q1105.36 1621.34 1105.36 1612.61 Q1105.36 1603.86 1108.42 1599.28 Q1111.5 1594.67 1117.31 1594.67 Z" fill="#000000" fill-rule="evenodd" fill-opacity="1" /><path clip-path="url(#clip030)" d="M1279.86 1658.07 Q1276.25 1658.07 1274.42 1661.64 Q1272.62 1665.18 1272.62 1672.31 Q1272.62 1679.41 1274.42 1682.98 Q1276.25 1686.52 1279.86 1686.52 Q1283.5 1686.52 1285.3 1682.98 Q1287.13 1679.41 1287.13 1672.31 Q1287.13 1665.18 1285.3 1661.64 Q1283.5 1658.07 1279.86 1658.07 M1279.86 1654.37 Q1285.67 1654.37 1288.73 1658.97 Q1291.81 1663.56 1291.81 1672.31 Q1291.81 1681.03 1288.73 1685.64 Q1285.67 1690.22 1279.86 1690.22 Q1274.05 1690.22 1270.97 1685.64 Q1267.92 1681.03 1267.92 1672.31 Q1267.92 1663.56 1270.97 1658.97 Q1274.05 1654.37 1279.86 1654.37 Z" fill="#000000" fill-rule="evenodd" fill-opacity="1" /><path clip-path="url(#clip030)" d="M1300.02 1683.67 L1304.91 1683.67 L1304.91 1689.55 L1300.02 1689.55 L1300.02 1683.67 Z" fill="#000000" fill-rule="evenodd" fill-opacity="1" /><path clip-path="url(#clip030)" d="M1315.14 1654.99 L1333.5 1654.99 L1333.5 1658.93 L1319.42 1658.93 L1319.42 1667.4 Q1320.44 1667.05 1321.46 1666.89 Q1322.48 1666.71 1323.5 1666.71 Q1329.28 1666.71 1332.66 1669.88 Q1336.04 1673.05 1336.04 1678.47 Q1336.04 1684.04 1332.57 1687.15 Q1329.1 1690.22 1322.78 1690.22 Q1320.6 1690.22 1318.33 1689.85 Q1316.09 1689.48 1313.68 1688.74 L1313.68 1684.04 Q1315.76 1685.18 1317.99 1685.73 Q1320.21 1686.29 1322.69 1686.29 Q1326.69 1686.29 1329.03 1684.18 Q1331.37 1682.08 1331.37 1678.47 Q1331.37 1674.85 1329.03 1672.75 Q1326.69 1670.64 1322.69 1670.64 Q1320.81 1670.64 1318.94 1671.06 Q1317.08 1671.47 1315.14 1672.35 L1315.14 1654.99 Z" fill="#000000" fill-rule="evenodd" fill-opacity="1" /><path clip-path="url(#clip030)" d="M1476.47 1745.31 L1484.11 1745.31 L1484.11 1718.95 L1475.8 1720.61 L1475.8 1716.36 L1484.06 1714.69 L1488.74 1714.69 L1488.74 1745.31 L1496.37 1745.31 L1496.37 1749.25 L1476.47 1749.25 L1476.47 1745.31 Z" fill="#000000" fill-rule="evenodd" fill-opacity="1" /><path clip-path="url(#clip030)" d="M1505.82 1743.37 L1510.7 1743.37 L1510.7 1749.25 L1505.82 1749.25 L1505.82 1743.37 Z" fill="#000000" fill-rule="evenodd" fill-opacity="1" /><path clip-path="url(#clip030)" d="M1530.89 1717.77 Q1527.28 1717.77 1525.45 1721.33 Q1523.64 1724.87 1523.64 1732 Q1523.64 1739.11 1525.45 1742.67 Q1527.28 1746.22 1530.89 1746.22 Q1534.52 1746.22 1536.33 1742.67 Q1538.16 1739.11 1538.16 1732 Q1538.16 1724.87 1536.33 1721.33 Q1534.52 1717.77 1530.89 1717.77 M1530.89 1714.06 Q1536.7 1714.06 1539.75 1718.67 Q1542.83 1723.25 1542.83 1732 Q1542.83 1740.73 1539.75 1745.34 Q1536.7 1749.92 1530.89 1749.92 Q1525.08 1749.92 1522 1745.34 Q1518.94 1740.73 1518.94 1732 Q1518.94 1723.25 1522 1718.67 Q1525.08 1714.06 1530.89 1714.06 Z" fill="#000000" fill-rule="evenodd" fill-opacity="1" /><polyline clip-path="url(#clip032)" style="stroke:#000000; stroke-linecap:butt; stroke-linejoin:round; stroke-width:2; stroke-opacity:0.1; fill:none" points="
  1590.88,1695.76 714.11,1442.66 
  "/>
<polyline clip-path="url(#clip032)" style="stroke:#000000; stroke-linecap:butt; stroke-linejoin:round; stroke-width:2; stroke-opacity:0.1; fill:none" points="
  714.11,1442.66 714.11,565.888 
  "/>
<polyline clip-path="url(#clip032)" style="stroke:#000000; stroke-linecap:butt; stroke-linejoin:round; stroke-width:2; stroke-opacity:0.1; fill:none" points="
  1710.27,1592.36 833.504,1339.26 
  "/>
<polyline clip-path="url(#clip032)" style="stroke:#000000; stroke-linecap:butt; stroke-linejoin:round; stroke-width:2; stroke-opacity:0.1; fill:none" points="
  833.504,1339.26 833.504,462.489 
  "/>
<polyline clip-path="url(#clip032)" style="stroke:#000000; stroke-linecap:butt; stroke-linejoin:round; stroke-width:2; stroke-opacity:0.1; fill:none" points="
  1829.67,1488.96 952.899,1235.86 
  "/>
<polyline clip-path="url(#clip032)" style="stroke:#000000; stroke-linecap:butt; stroke-linejoin:round; stroke-width:2; stroke-opacity:0.1; fill:none" points="
  952.899,1235.86 952.899,359.09 
  "/>
<polyline clip-path="url(#clip032)" style="stroke:#000000; stroke-linecap:butt; stroke-linejoin:round; stroke-width:2; stroke-opacity:0.1; fill:none" points="
  1949.06,1385.56 1072.29,1132.46 
  "/>
<polyline clip-path="url(#clip032)" style="stroke:#000000; stroke-linecap:butt; stroke-linejoin:round; stroke-width:2; stroke-opacity:0.1; fill:none" points="
  1072.29,1132.46 1072.29,255.691 
  "/>
<polyline clip-path="url(#clip032)" style="stroke:#000000; stroke-linecap:butt; stroke-linejoin:round; stroke-width:2; stroke-opacity:0.1; fill:none" points="
  2068.46,1282.16 1191.69,1029.06 
  "/>
<polyline clip-path="url(#clip032)" style="stroke:#000000; stroke-linecap:butt; stroke-linejoin:round; stroke-width:2; stroke-opacity:0.1; fill:none" points="
  1191.69,1029.06 1191.69,152.293 
  "/>
<polyline clip-path="url(#clip030)" style="stroke:#000000; stroke-linecap:butt; stroke-linejoin:round; stroke-width:4; stroke-opacity:1; fill:none" points="
  1576.58,1708.14 2082.78,1269.75 
  "/>
<polyline clip-path="url(#clip030)" style="stroke:#000000; stroke-linecap:butt; stroke-linejoin:round; stroke-width:4; stroke-opacity:1; fill:none" points="
  1590.88,1695.76 1580.36,1692.72 
  "/>
<polyline clip-path="url(#clip030)" style="stroke:#000000; stroke-linecap:butt; stroke-linejoin:round; stroke-width:4; stroke-opacity:1; fill:none" points="
  1710.27,1592.36 1699.75,1589.32 
  "/>
<polyline clip-path="url(#clip030)" style="stroke:#000000; stroke-linecap:butt; stroke-linejoin:round; stroke-width:4; stroke-opacity:1; fill:none" points="
  1829.67,1488.96 1819.15,1485.92 
  "/>
<polyline clip-path="url(#clip030)" style="stroke:#000000; stroke-linecap:butt; stroke-linejoin:round; stroke-width:4; stroke-opacity:1; fill:none" points="
  1949.06,1385.56 1938.54,1382.52 
  "/>
<polyline clip-path="url(#clip030)" style="stroke:#000000; stroke-linecap:butt; stroke-linejoin:round; stroke-width:4; stroke-opacity:1; fill:none" points="
  2068.46,1282.16 2057.93,1279.12 
  "/>
<path clip-path="url(#clip030)" d="M1611.99 1720.59 L1641.67 1720.59 L1641.67 1724.53 L1611.99 1724.53 L1611.99 1720.59 Z" fill="#000000" fill-rule="evenodd" fill-opacity="1" /><path clip-path="url(#clip030)" d="M1652.57 1733.48 L1660.21 1733.48 L1660.21 1707.12 L1651.9 1708.79 L1651.9 1704.53 L1660.17 1702.86 L1664.84 1702.86 L1664.84 1733.48 L1672.48 1733.48 L1672.48 1737.42 L1652.57 1737.42 L1652.57 1733.48 Z" fill="#000000" fill-rule="evenodd" fill-opacity="1" /><path clip-path="url(#clip030)" d="M1681.92 1731.54 L1686.81 1731.54 L1686.81 1737.42 L1681.92 1737.42 L1681.92 1731.54 Z" fill="#000000" fill-rule="evenodd" fill-opacity="1" /><path clip-path="url(#clip030)" d="M1706.99 1705.94 Q1703.38 1705.94 1701.55 1709.5 Q1699.75 1713.04 1699.75 1720.17 Q1699.75 1727.28 1701.55 1730.85 Q1703.38 1734.39 1706.99 1734.39 Q1710.63 1734.39 1712.43 1730.85 Q1714.26 1727.28 1714.26 1720.17 Q1714.26 1713.04 1712.43 1709.5 Q1710.63 1705.94 1706.99 1705.94 M1706.99 1702.23 Q1712.8 1702.23 1715.86 1706.84 Q1718.94 1711.42 1718.94 1720.17 Q1718.94 1728.9 1715.86 1733.51 Q1712.8 1738.09 1706.99 1738.09 Q1701.18 1738.09 1698.1 1733.51 Q1695.05 1728.9 1695.05 1720.17 Q1695.05 1711.42 1698.1 1706.84 Q1701.18 1702.23 1706.99 1702.23 Z" fill="#000000" fill-rule="evenodd" fill-opacity="1" /><path clip-path="url(#clip030)" d="M1731.39 1617.19 L1761.06 1617.19 L1761.06 1621.13 L1731.39 1621.13 L1731.39 1617.19 Z" fill="#000000" fill-rule="evenodd" fill-opacity="1" /><path clip-path="url(#clip030)" d="M1781.16 1602.54 Q1777.55 1602.54 1775.72 1606.1 Q1773.91 1609.65 1773.91 1616.78 Q1773.91 1623.88 1775.72 1627.45 Q1777.55 1630.99 1781.16 1630.99 Q1784.79 1630.99 1786.6 1627.45 Q1788.43 1623.88 1788.43 1616.78 Q1788.43 1609.65 1786.6 1606.1 Q1784.79 1602.54 1781.16 1602.54 M1781.16 1598.84 Q1786.97 1598.84 1790.02 1603.44 Q1793.1 1608.03 1793.1 1616.78 Q1793.1 1625.5 1790.02 1630.11 Q1786.97 1634.69 1781.16 1634.69 Q1775.35 1634.69 1772.27 1630.11 Q1769.21 1625.5 1769.21 1616.78 Q1769.21 1608.03 1772.27 1603.44 Q1775.35 1598.84 1781.16 1598.84 Z" fill="#000000" fill-rule="evenodd" fill-opacity="1" /><path clip-path="url(#clip030)" d="M1801.32 1628.14 L1806.2 1628.14 L1806.2 1634.02 L1801.32 1634.02 L1801.32 1628.14 Z" fill="#000000" fill-rule="evenodd" fill-opacity="1" /><path clip-path="url(#clip030)" d="M1816.43 1599.46 L1834.79 1599.46 L1834.79 1603.4 L1820.72 1603.4 L1820.72 1611.87 Q1821.74 1611.52 1822.75 1611.36 Q1823.77 1611.17 1824.79 1611.17 Q1830.58 1611.17 1833.96 1614.34 Q1837.34 1617.52 1837.34 1622.93 Q1837.34 1628.51 1833.87 1631.61 Q1830.39 1634.69 1824.07 1634.69 Q1821.9 1634.69 1819.63 1634.32 Q1817.38 1633.95 1814.98 1633.21 L1814.98 1628.51 Q1817.06 1629.65 1819.28 1630.2 Q1821.5 1630.76 1823.98 1630.76 Q1827.99 1630.76 1830.32 1628.65 Q1832.66 1626.54 1832.66 1622.93 Q1832.66 1619.32 1830.32 1617.22 Q1827.99 1615.11 1823.98 1615.11 Q1822.11 1615.11 1820.23 1615.53 Q1818.38 1615.94 1816.43 1616.82 L1816.43 1599.46 Z" fill="#000000" fill-rule="evenodd" fill-opacity="1" /><path clip-path="url(#clip030)" d="M1862.73 1499.14 Q1859.12 1499.14 1857.29 1502.71 Q1855.48 1506.25 1855.48 1513.38 Q1855.48 1520.48 1857.29 1524.05 Q1859.12 1527.59 1862.73 1527.59 Q1866.36 1527.59 1868.17 1524.05 Q1870 1520.48 1870 1513.38 Q1870 1506.25 1868.17 1502.71 Q1866.36 1499.14 1862.73 1499.14 M1862.73 1495.44 Q1868.54 1495.44 1871.59 1500.04 Q1874.67 1504.63 1874.67 1513.38 Q1874.67 1522.1 1871.59 1526.71 Q1868.54 1531.29 1862.73 1531.29 Q1856.92 1531.29 1853.84 1526.71 Q1850.78 1522.1 1850.78 1513.38 Q1850.78 1504.63 1853.84 1500.04 Q1856.92 1495.44 1862.73 1495.44 Z" fill="#000000" fill-rule="evenodd" fill-opacity="1" /><path clip-path="url(#clip030)" d="M1882.89 1524.74 L1887.77 1524.74 L1887.77 1530.62 L1882.89 1530.62 L1882.89 1524.74 Z" fill="#000000" fill-rule="evenodd" fill-opacity="1" /><path clip-path="url(#clip030)" d="M1907.96 1499.14 Q1904.35 1499.14 1902.52 1502.71 Q1900.71 1506.25 1900.71 1513.38 Q1900.71 1520.48 1902.52 1524.05 Q1904.35 1527.59 1907.96 1527.59 Q1911.59 1527.59 1913.4 1524.05 Q1915.23 1520.48 1915.23 1513.38 Q1915.23 1506.25 1913.4 1502.71 Q1911.59 1499.14 1907.96 1499.14 M1907.96 1495.44 Q1913.77 1495.44 1916.82 1500.04 Q1919.9 1504.63 1919.9 1513.38 Q1919.9 1522.1 1916.82 1526.71 Q1913.77 1531.29 1907.96 1531.29 Q1902.15 1531.29 1899.07 1526.71 Q1896.01 1522.1 1896.01 1513.38 Q1896.01 1504.63 1899.07 1500.04 Q1902.15 1495.44 1907.96 1495.44 Z" fill="#000000" fill-rule="evenodd" fill-opacity="1" /><path clip-path="url(#clip030)" d="M1982.12 1395.74 Q1978.51 1395.74 1976.68 1399.31 Q1974.88 1402.85 1974.88 1409.98 Q1974.88 1417.08 1976.68 1420.65 Q1978.51 1424.19 1982.12 1424.19 Q1985.76 1424.19 1987.56 1420.65 Q1989.39 1417.08 1989.39 1409.98 Q1989.39 1402.85 1987.56 1399.31 Q1985.76 1395.74 1982.12 1395.74 M1982.12 1392.04 Q1987.93 1392.04 1990.99 1396.64 Q1994.07 1401.23 1994.07 1409.98 Q1994.07 1418.7 1990.99 1423.31 Q1987.93 1427.89 1982.12 1427.89 Q1976.31 1427.89 1973.23 1423.31 Q1970.18 1418.7 1970.18 1409.98 Q1970.18 1401.23 1973.23 1396.64 Q1976.31 1392.04 1982.12 1392.04 Z" fill="#000000" fill-rule="evenodd" fill-opacity="1" /><path clip-path="url(#clip030)" d="M2002.28 1421.34 L2007.17 1421.34 L2007.17 1427.22 L2002.28 1427.22 L2002.28 1421.34 Z" fill="#000000" fill-rule="evenodd" fill-opacity="1" /><path clip-path="url(#clip030)" d="M2017.4 1392.66 L2035.76 1392.66 L2035.76 1396.6 L2021.68 1396.6 L2021.68 1405.07 Q2022.7 1404.72 2023.72 1404.56 Q2024.74 1404.38 2025.76 1404.38 Q2031.54 1404.38 2034.92 1407.55 Q2038.3 1410.72 2038.3 1416.14 Q2038.3 1421.71 2034.83 1424.82 Q2031.36 1427.89 2025.04 1427.89 Q2022.86 1427.89 2020.59 1427.52 Q2018.35 1427.15 2015.94 1426.41 L2015.94 1421.71 Q2018.03 1422.85 2020.25 1423.4 Q2022.47 1423.96 2024.95 1423.96 Q2028.95 1423.96 2031.29 1421.85 Q2033.63 1419.75 2033.63 1416.14 Q2033.63 1412.52 2031.29 1410.42 Q2028.95 1408.31 2024.95 1408.31 Q2023.07 1408.31 2021.2 1408.73 Q2019.34 1409.14 2017.4 1410.02 L2017.4 1392.66 Z" fill="#000000" fill-rule="evenodd" fill-opacity="1" /><path clip-path="url(#clip030)" d="M2090.24 1319.89 L2097.88 1319.89 L2097.88 1293.52 L2089.57 1295.19 L2089.57 1290.93 L2097.84 1289.26 L2102.51 1289.26 L2102.51 1319.89 L2110.15 1319.89 L2110.15 1323.82 L2090.24 1323.82 L2090.24 1319.89 Z" fill="#000000" fill-rule="evenodd" fill-opacity="1" /><path clip-path="url(#clip030)" d="M2119.6 1317.94 L2124.48 1317.94 L2124.48 1323.82 L2119.6 1323.82 L2119.6 1317.94 Z" fill="#000000" fill-rule="evenodd" fill-opacity="1" /><path clip-path="url(#clip030)" d="M2144.67 1292.34 Q2141.05 1292.34 2139.23 1295.91 Q2137.42 1299.45 2137.42 1306.58 Q2137.42 1313.69 2139.23 1317.25 Q2141.05 1320.79 2144.67 1320.79 Q2148.3 1320.79 2150.1 1317.25 Q2151.93 1313.69 2151.93 1306.58 Q2151.93 1299.45 2150.1 1295.91 Q2148.3 1292.34 2144.67 1292.34 M2144.67 1288.64 Q2150.48 1288.64 2153.53 1293.25 Q2156.61 1297.83 2156.61 1306.58 Q2156.61 1315.31 2153.53 1319.91 Q2150.48 1324.5 2144.67 1324.5 Q2138.86 1324.5 2135.78 1319.91 Q2132.72 1315.31 2132.72 1306.58 Q2132.72 1297.83 2135.78 1293.25 Q2138.86 1288.64 2144.67 1288.64 Z" fill="#000000" fill-rule="evenodd" fill-opacity="1" /><polyline clip-path="url(#clip032)" style="stroke:#000000; stroke-linecap:butt; stroke-linejoin:round; stroke-width:2; stroke-opacity:0.1; fill:none" points="
  699.813,1430.22 1206.01,991.839 
  "/>
<polyline clip-path="url(#clip032)" style="stroke:#000000; stroke-linecap:butt; stroke-linejoin:round; stroke-width:2; stroke-opacity:0.1; fill:none" points="
  1206.01,991.839 2082.78,1244.94 
  "/>
<polyline clip-path="url(#clip032)" style="stroke:#000000; stroke-linecap:butt; stroke-linejoin:round; stroke-width:2; stroke-opacity:0.1; fill:none" points="
  699.813,1210.82 1206.01,772.433 
  "/>
<polyline clip-path="url(#clip032)" style="stroke:#000000; stroke-linecap:butt; stroke-linejoin:round; stroke-width:2; stroke-opacity:0.1; fill:none" points="
  1206.01,772.433 2082.78,1025.53 
  "/>
<polyline clip-path="url(#clip032)" style="stroke:#000000; stroke-linecap:butt; stroke-linejoin:round; stroke-width:2; stroke-opacity:0.1; fill:none" points="
  699.813,991.412 1206.01,553.028 
  "/>
<polyline clip-path="url(#clip032)" style="stroke:#000000; stroke-linecap:butt; stroke-linejoin:round; stroke-width:2; stroke-opacity:0.1; fill:none" points="
  1206.01,553.028 2082.78,806.129 
  "/>
<polyline clip-path="url(#clip032)" style="stroke:#000000; stroke-linecap:butt; stroke-linejoin:round; stroke-width:2; stroke-opacity:0.1; fill:none" points="
  699.813,772.006 1206.01,333.622 
  "/>
<polyline clip-path="url(#clip032)" style="stroke:#000000; stroke-linecap:butt; stroke-linejoin:round; stroke-width:2; stroke-opacity:0.1; fill:none" points="
  1206.01,333.622 2082.78,586.723 
  "/>
<polyline clip-path="url(#clip030)" style="stroke:#000000; stroke-linecap:butt; stroke-linejoin:round; stroke-width:4; stroke-opacity:1; fill:none" points="
  699.813,1455.04 699.813,578.269 
  "/>
<polyline clip-path="url(#clip030)" style="stroke:#000000; stroke-linecap:butt; stroke-linejoin:round; stroke-width:4; stroke-opacity:1; fill:none" points="
  699.813,1430.22 705.887,1424.96 
  "/>
<polyline clip-path="url(#clip030)" style="stroke:#000000; stroke-linecap:butt; stroke-linejoin:round; stroke-width:4; stroke-opacity:1; fill:none" points="
  699.813,1210.82 705.887,1205.56 
  "/>
<polyline clip-path="url(#clip030)" style="stroke:#000000; stroke-linecap:butt; stroke-linejoin:round; stroke-width:4; stroke-opacity:1; fill:none" points="
  699.813,991.412 705.887,986.151 
  "/>
<polyline clip-path="url(#clip030)" style="stroke:#000000; stroke-linecap:butt; stroke-linejoin:round; stroke-width:4; stroke-opacity:1; fill:none" points="
  699.813,772.006 705.887,766.746 
  "/>
<path clip-path="url(#clip030)" d="M655.612 1416.02 Q652.001 1416.02 650.173 1419.59 Q648.367 1423.13 648.367 1430.26 Q648.367 1437.36 650.173 1440.93 Q652.001 1444.47 655.612 1444.47 Q659.247 1444.47 661.052 1440.93 Q662.881 1437.36 662.881 1430.26 Q662.881 1423.13 661.052 1419.59 Q659.247 1416.02 655.612 1416.02 M655.612 1412.32 Q661.423 1412.32 664.478 1416.92 Q667.557 1421.51 667.557 1430.26 Q667.557 1438.98 664.478 1443.59 Q661.423 1448.17 655.612 1448.17 Q649.802 1448.17 646.724 1443.59 Q643.668 1438.98 643.668 1430.26 Q643.668 1421.51 646.724 1416.92 Q649.802 1412.32 655.612 1412.32 Z" fill="#000000" fill-rule="evenodd" fill-opacity="1" /><path clip-path="url(#clip030)" d="M646.654 1193.54 L665.011 1193.54 L665.011 1197.47 L650.937 1197.47 L650.937 1205.94 Q651.955 1205.6 652.974 1205.44 Q653.992 1205.25 655.011 1205.25 Q660.798 1205.25 664.177 1208.42 Q667.557 1211.59 667.557 1217.01 Q667.557 1222.59 664.085 1225.69 Q660.612 1228.77 654.293 1228.77 Q652.117 1228.77 649.849 1228.4 Q647.603 1228.03 645.196 1227.29 L645.196 1222.59 Q647.279 1223.72 649.501 1224.28 Q651.724 1224.83 654.2 1224.83 Q658.205 1224.83 660.543 1222.73 Q662.881 1220.62 662.881 1217.01 Q662.881 1213.4 660.543 1211.29 Q658.205 1209.19 654.2 1209.19 Q652.325 1209.19 650.45 1209.6 Q648.599 1210.02 646.654 1210.9 L646.654 1193.54 Z" fill="#000000" fill-rule="evenodd" fill-opacity="1" /><path clip-path="url(#clip030)" d="M616.261 1004.76 L623.9 1004.76 L623.9 978.391 L615.59 980.058 L615.59 975.798 L623.853 974.132 L628.529 974.132 L628.529 1004.76 L636.168 1004.76 L636.168 1008.69 L616.261 1008.69 L616.261 1004.76 Z" fill="#000000" fill-rule="evenodd" fill-opacity="1" /><path clip-path="url(#clip030)" d="M655.612 977.21 Q652.001 977.21 650.173 980.775 Q648.367 984.317 648.367 991.446 Q648.367 998.553 650.173 1002.12 Q652.001 1005.66 655.612 1005.66 Q659.247 1005.66 661.052 1002.12 Q662.881 998.553 662.881 991.446 Q662.881 984.317 661.052 980.775 Q659.247 977.21 655.612 977.21 M655.612 973.507 Q661.423 973.507 664.478 978.113 Q667.557 982.696 667.557 991.446 Q667.557 1000.17 664.478 1004.78 Q661.423 1009.36 655.612 1009.36 Q649.802 1009.36 646.724 1004.78 Q643.668 1000.17 643.668 991.446 Q643.668 982.696 646.724 978.113 Q649.802 973.507 655.612 973.507 Z" fill="#000000" fill-rule="evenodd" fill-opacity="1" /><path clip-path="url(#clip030)" d="M617.256 785.351 L624.895 785.351 L624.895 758.985 L616.585 760.652 L616.585 756.393 L624.849 754.726 L629.525 754.726 L629.525 785.351 L637.164 785.351 L637.164 789.286 L617.256 789.286 L617.256 785.351 Z" fill="#000000" fill-rule="evenodd" fill-opacity="1" /><path clip-path="url(#clip030)" d="M646.654 754.726 L665.011 754.726 L665.011 758.661 L650.937 758.661 L650.937 767.134 Q651.955 766.786 652.974 766.624 Q653.992 766.439 655.011 766.439 Q660.798 766.439 664.177 769.61 Q667.557 772.782 667.557 778.198 Q667.557 783.777 664.085 786.879 Q660.612 789.958 654.293 789.958 Q652.117 789.958 649.849 789.587 Q647.603 789.217 645.196 788.476 L645.196 783.777 Q647.279 784.911 649.501 785.467 Q651.724 786.022 654.2 786.022 Q658.205 786.022 660.543 783.916 Q662.881 781.809 662.881 778.198 Q662.881 774.587 660.543 772.481 Q658.205 770.374 654.2 770.374 Q652.325 770.374 650.45 770.791 Q648.599 771.208 646.654 772.087 L646.654 754.726 Z" fill="#000000" fill-rule="evenodd" fill-opacity="1" /><polyline clip-path="url(#clip032)" style="stroke:#009af9; stroke-linecap:butt; stroke-linejoin:round; stroke-width:4; stroke-opacity:1; fill:none" points="
  1630.07,1130.8 1668.12,1138.86 1703.68,1148.67 1736.45,1160.09 1766.11,1173 1792.42,1187.23 1815.13,1202.62 1834.05,1219.01 1848.99,1236.19 1859.83,1253.98 
  1866.47,1272.19 1868.84,1290.61 1866.94,1309.05 1860.77,1327.29 1850.39,1345.14 1835.9,1362.4 1817.42,1378.88 1795.12,1394.39 1769.2,1408.76 1739.89,1421.82 
  1707.46,1433.42 1672.19,1443.42 1634.4,1451.68 1594.43,1458.1 1552.64,1462.58 1509.41,1465.05 1465.12,1465.44 1420.16,1463.72 1374.94,1459.86 1329.88,1453.86 
  1285.36,1445.74 1241.79,1435.53 1199.56,1423.29 1159.05,1409.09 1120.62,1393.01 1084.62,1375.18 1051.37,1355.7 1021.17,1334.71 994.283,1312.38 970.957,1288.85 
  951.399,1264.31 935.785,1238.94 924.255,1212.92 916.911,1186.45 913.821,1159.74 915.011,1132.98 920.471,1106.38 930.153,1080.14 943.968,1054.45 961.794,1029.52 
  983.47,1005.52 1008.8,982.631 1037.56,961.027 1069.5,940.862 1104.32,922.278 1141.71,905.406 1181.33,890.359 1222.85,877.235 1265.87,866.114 1310.01,857.059 
  1354.88,850.113 1400.08,845.302 1445.21,842.631 1489.84,842.088 1533.6,843.639 1576.08,847.234 1616.9,852.803 1655.7,860.259 1692.12,869.498 1725.85,880.399 
  1756.59,892.828 1784.04,906.636 1807.98,921.662 1828.18,937.734 1844.46,954.67 1856.68,972.283 1864.72,990.375 1868.53,1008.75 1868.05,1027.2 1863.3,1045.53 
  1854.32,1063.53 1841.18,1081.01 1824.01,1097.77 1802.97,1113.63 1778.23,1128.4 1750.02,1141.91 1718.6,1154.01 1684.24,1164.56 1647.26,1173.41 1607.98,1180.46 
  1566.75,1185.59 1523.96,1188.74 1479.97,1189.83 1435.19,1188.82 1390.02,1185.67 1344.86,1180.39 1300.11,1172.97 1256.18,1163.45 1213.46,1151.88 1172.34,1138.32 
  1133.18,1122.86 1096.33,1105.6 1062.13,1086.65 1030.88,1066.15 1002.86,1044.25 978.324,1021.1 957.488,996.881 940.542,971.763 927.637,945.937 918.889,919.598 
  914.376,892.945 914.139,866.179 918.179,839.503 926.461,813.119 938.91,787.226 955.415,762.019 975.828,737.688 999.966,714.412 1027.61,692.363 1058.52,671.702 
  1092.41,652.576 1128.98,635.12 1167.9,619.453 1208.82,605.678 1251.38,593.881 1295.2,584.131 1339.87,576.479 1385.01,570.955 1430.2,567.571 1475.04,566.321 
  1519.14,567.179 1562.08,570.099 1603.5,575.019 1643.01,581.857 1680.27,590.514 1714.93,600.875 1746.69,612.811 1775.27,626.177 1800.4,640.815 1821.87,656.558 
  1839.48,673.227 1853.06,690.636 1862.51,708.59 1867.73,726.892 1868.68,745.34 1865.36,763.732 1857.78,781.866 1846.02,799.541 1830.18,816.562 1810.4,832.74 
  1786.87,847.891 1759.79,861.843 1729.41,874.433 1696,885.512 1659.86,894.942 1621.3,902.602 1580.69,908.386 1538.38,912.204 1494.74,913.986 1450.18,913.678 
  1405.1,911.245 1359.89,906.672 1314.96,899.964 1270.71,891.142 1227.55,880.248 1185.85,867.343 1145.99,852.506 1108.34,835.832 1073.22,817.433 1040.95,797.437 
  1011.83,775.986 986.102,753.235 964.01,729.351 945.749,704.511 931.482,678.899 921.337,652.709 915.406,626.139 913.742,599.388 916.358,572.659 923.233,546.156 
  934.304,520.077 949.472,494.621 968.6,469.977 991.519,446.329 1018.02,423.853 1047.87,402.712 1080.8,383.059 1116.51,365.032 1154.68,348.756 1194.98,334.34 
  1237.04,321.876 1280.48,311.437 1324.91,303.081 1369.93,296.845 1415.15,292.748 1460.16,290.789 1504.55,290.948 1547.92,293.187 1589.89,297.449 1630.07,303.657 
  
  "/>
<polyline clip-path="url(#clip032)" style="stroke:#e26f46; stroke-linecap:butt; stroke-linejoin:round; stroke-width:4; stroke-opacity:1; fill:none" points="
  1391.28,1337.59 1630.07,855.083 
  "/>
<path clip-path="url(#clip030)" d="
M2227.37 261.215 L2557.46 261.215 L2557.46 105.695 L2227.37 105.695  Z
  " fill="#ffffff" fill-rule="evenodd" fill-opacity="1"/>
<polyline clip-path="url(#clip030)" style="stroke:#000000; stroke-linecap:butt; stroke-linejoin:round; stroke-width:4; stroke-opacity:1; fill:none" points="
  2227.37,261.215 2557.46,261.215 2557.46,105.695 2227.37,105.695 2227.37,261.215 
  "/>
<polyline clip-path="url(#clip030)" style="stroke:#009af9; stroke-linecap:butt; stroke-linejoin:round; stroke-width:4; stroke-opacity:1; fill:none" points="
  2255.14,157.535 2421.73,157.535 
  "/>
<path clip-path="url(#clip030)" d="M2463.34 177.223 Q2461.53 181.852 2459.82 183.264 Q2458.11 184.676 2455.24 184.676 L2451.83 184.676 L2451.83 181.112 L2454.33 181.112 Q2456.09 181.112 2457.07 180.278 Q2458.04 179.445 2459.22 176.343 L2459.98 174.399 L2449.5 148.889 L2454.01 148.889 L2462.11 169.167 L2470.21 148.889 L2474.73 148.889 L2463.34 177.223 Z" fill="#000000" fill-rule="evenodd" fill-opacity="1" /><path clip-path="url(#clip030)" d="M2482.02 170.88 L2489.66 170.88 L2489.66 144.515 L2481.35 146.181 L2481.35 141.922 L2489.61 140.255 L2494.29 140.255 L2494.29 170.88 L2501.93 170.88 L2501.93 174.815 L2482.02 174.815 L2482.02 170.88 Z" fill="#000000" fill-rule="evenodd" fill-opacity="1" /><polyline clip-path="url(#clip030)" style="stroke:#e26f46; stroke-linecap:butt; stroke-linejoin:round; stroke-width:4; stroke-opacity:1; fill:none" points="
  2255.14,209.375 2421.73,209.375 
  "/>
<path clip-path="url(#clip030)" d="M2463.34 229.063 Q2461.53 233.692 2459.82 235.104 Q2458.11 236.516 2455.24 236.516 L2451.83 236.516 L2451.83 232.952 L2454.33 232.952 Q2456.09 232.952 2457.07 232.118 Q2458.04 231.285 2459.22 228.183 L2459.98 226.239 L2449.5 200.729 L2454.01 200.729 L2462.11 221.007 L2470.21 200.729 L2474.73 200.729 L2463.34 229.063 Z" fill="#000000" fill-rule="evenodd" fill-opacity="1" /><path clip-path="url(#clip030)" d="M2485.24 222.72 L2501.56 222.72 L2501.56 226.655 L2479.61 226.655 L2479.61 222.72 Q2482.27 219.965 2486.86 215.336 Q2491.46 210.683 2492.64 209.341 Q2494.89 206.817 2495.77 205.081 Q2496.67 203.322 2496.67 201.632 Q2496.67 198.878 2494.73 197.142 Q2492.81 195.405 2489.71 195.405 Q2487.51 195.405 2485.05 196.169 Q2482.62 196.933 2479.84 198.484 L2479.84 193.762 Q2482.67 192.628 2485.12 192.049 Q2487.58 191.47 2489.61 191.47 Q2494.98 191.47 2498.18 194.155 Q2501.37 196.841 2501.37 201.331 Q2501.37 203.461 2500.56 205.382 Q2499.77 207.28 2497.67 209.873 Q2497.09 210.544 2493.99 213.762 Q2490.89 216.956 2485.24 222.72 Z" fill="#000000" fill-rule="evenodd" fill-opacity="1" /></svg>
