<?xml version="1.0" encoding="utf-8"?>
<svg xmlns="http://www.w3.org/2000/svg" xmlns:xlink="http://www.w3.org/1999/xlink" width="672" height="480" viewBox="0 0 2688 1920">
<defs>
  <clipPath id="clip770">
    <rect x="0" y="0" width="2688" height="1920"/>
  </clipPath>
</defs>
<path clip-path="url(#clip770)" d="
M0 1920 L2688 1920 L2688 0 L0 0  Z
  " fill="#ffffff" fill-rule="evenodd" fill-opacity="1"/>
<defs>
  <clipPath id="clip771">
    <rect x="537" y="0" width="1883" height="1883"/>
  </clipPath>
</defs>
<path clip-path="url(#clip770)" d="
M150.358 1800.78 L2640.76 1800.78 L2640.76 47.2441 L150.358 47.2441  Z
  " fill="#ffffff" fill-rule="evenodd" fill-opacity="1"/>
<defs>
  <clipPath id="clip772">
    <rect x="150" y="47" width="2491" height="1755"/>
  </clipPath>
</defs>
<polyline clip-path="url(#clip772)" style="stroke:#000000; stroke-linecap:round; stroke-linejoin:round; stroke-width:2; stroke-opacity:0.1; fill:none" points="
  220.841,1800.78 220.841,47.2441 
  "/>
<polyline clip-path="url(#clip772)" style="stroke:#000000; stroke-linecap:round; stroke-linejoin:round; stroke-width:2; stroke-opacity:0.1; fill:none" points="
  594.765,1800.78 594.765,47.2441 
  "/>
<polyline clip-path="url(#clip772)" style="stroke:#000000; stroke-linecap:round; stroke-linejoin:round; stroke-width:2; stroke-opacity:0.1; fill:none" points="
  968.688,1800.78 968.688,47.2441 
  "/>
<polyline clip-path="url(#clip772)" style="stroke:#000000; stroke-linecap:round; stroke-linejoin:round; stroke-width:2; stroke-opacity:0.1; fill:none" points="
  1342.61,1800.78 1342.61,47.2441 
  "/>
<polyline clip-path="url(#clip772)" style="stroke:#000000; stroke-linecap:round; stroke-linejoin:round; stroke-width:2; stroke-opacity:0.1; fill:none" points="
  1716.54,1800.78 1716.54,47.2441 
  "/>
<polyline clip-path="url(#clip772)" style="stroke:#000000; stroke-linecap:round; stroke-linejoin:round; stroke-width:2; stroke-opacity:0.1; fill:none" points="
  2090.46,1800.78 2090.46,47.2441 
  "/>
<polyline clip-path="url(#clip772)" style="stroke:#000000; stroke-linecap:round; stroke-linejoin:round; stroke-width:2; stroke-opacity:0.1; fill:none" points="
  2464.38,1800.78 2464.38,47.2441 
  "/>
<polyline clip-path="url(#clip770)" style="stroke:#000000; stroke-linecap:round; stroke-linejoin:round; stroke-width:4; stroke-opacity:1; fill:none" points="
  150.358,1800.78 2640.76,1800.78 
  "/>
<polyline clip-path="url(#clip770)" style="stroke:#000000; stroke-linecap:round; stroke-linejoin:round; stroke-width:4; stroke-opacity:1; fill:none" points="
  220.841,1800.78 220.841,1781.88 
  "/>
<polyline clip-path="url(#clip770)" style="stroke:#000000; stroke-linecap:round; stroke-linejoin:round; stroke-width:4; stroke-opacity:1; fill:none" points="
  594.765,1800.78 594.765,1781.88 
  "/>
<polyline clip-path="url(#clip770)" style="stroke:#000000; stroke-linecap:round; stroke-linejoin:round; stroke-width:4; stroke-opacity:1; fill:none" points="
  968.688,1800.78 968.688,1781.88 
  "/>
<polyline clip-path="url(#clip770)" style="stroke:#000000; stroke-linecap:round; stroke-linejoin:round; stroke-width:4; stroke-opacity:1; fill:none" points="
  1342.61,1800.78 1342.61,1781.88 
  "/>
<polyline clip-path="url(#clip770)" style="stroke:#000000; stroke-linecap:round; stroke-linejoin:round; stroke-width:4; stroke-opacity:1; fill:none" points="
  1716.54,1800.78 1716.54,1781.88 
  "/>
<polyline clip-path="url(#clip770)" style="stroke:#000000; stroke-linecap:round; stroke-linejoin:round; stroke-width:4; stroke-opacity:1; fill:none" points="
  2090.46,1800.78 2090.46,1781.88 
  "/>
<polyline clip-path="url(#clip770)" style="stroke:#000000; stroke-linecap:round; stroke-linejoin:round; stroke-width:4; stroke-opacity:1; fill:none" points="
  2464.38,1800.78 2464.38,1781.88 
  "/>
<path clip-path="url(#clip770)" d="M220.841 1834 Q217.23 1834 215.401 1837.57 Q213.596 1841.11 213.596 1848.24 Q213.596 1855.34 215.401 1858.91 Q217.23 1862.45 220.841 1862.45 Q224.475 1862.45 226.281 1858.91 Q228.109 1855.34 228.109 1848.24 Q228.109 1841.11 226.281 1837.57 Q224.475 1834 220.841 1834 M220.841 1830.3 Q226.651 1830.3 229.707 1834.9 Q232.785 1839.49 232.785 1848.24 Q232.785 1856.96 229.707 1861.57 Q226.651 1866.15 220.841 1866.15 Q215.031 1866.15 211.952 1861.57 Q208.896 1856.96 208.896 1848.24 Q208.896 1839.49 211.952 1834.9 Q215.031 1830.3 220.841 1830.3 Z" fill="#000000" fill-rule="evenodd" fill-opacity="1" /><path clip-path="url(#clip770)" d="M589.417 1861.55 L605.737 1861.55 L605.737 1865.48 L583.792 1865.48 L583.792 1861.55 Q586.454 1858.79 591.038 1854.16 Q595.644 1849.51 596.825 1848.17 Q599.07 1845.65 599.95 1843.91 Q600.853 1842.15 600.853 1840.46 Q600.853 1837.71 598.908 1835.97 Q596.987 1834.23 593.885 1834.23 Q591.686 1834.23 589.232 1835 Q586.802 1835.76 584.024 1837.31 L584.024 1832.59 Q586.848 1831.46 589.302 1830.88 Q591.755 1830.3 593.792 1830.3 Q599.163 1830.3 602.357 1832.98 Q605.552 1835.67 605.552 1840.16 Q605.552 1842.29 604.741 1844.21 Q603.954 1846.11 601.848 1848.7 Q601.269 1849.37 598.167 1852.59 Q595.066 1855.78 589.417 1861.55 Z" fill="#000000" fill-rule="evenodd" fill-opacity="1" /><path clip-path="url(#clip770)" d="M971.698 1835 L959.892 1853.45 L971.698 1853.45 L971.698 1835 M970.471 1830.92 L976.35 1830.92 L976.35 1853.45 L981.281 1853.45 L981.281 1857.34 L976.35 1857.34 L976.35 1865.48 L971.698 1865.48 L971.698 1857.34 L956.096 1857.34 L956.096 1852.82 L970.471 1830.92 Z" fill="#000000" fill-rule="evenodd" fill-opacity="1" /><path clip-path="url(#clip770)" d="M1343.02 1846.34 Q1339.87 1846.34 1338.02 1848.49 Q1336.19 1850.65 1336.19 1854.4 Q1336.19 1858.12 1338.02 1860.3 Q1339.87 1862.45 1343.02 1862.45 Q1346.17 1862.45 1347.99 1860.3 Q1349.85 1858.12 1349.85 1854.4 Q1349.85 1850.65 1347.99 1848.49 Q1346.17 1846.34 1343.02 1846.34 M1352.3 1831.69 L1352.3 1835.95 Q1350.54 1835.11 1348.73 1834.67 Q1346.95 1834.23 1345.19 1834.23 Q1340.56 1834.23 1338.11 1837.36 Q1335.68 1840.48 1335.33 1846.8 Q1336.7 1844.79 1338.76 1843.72 Q1340.82 1842.64 1343.29 1842.64 Q1348.5 1842.64 1351.51 1845.81 Q1354.54 1848.96 1354.54 1854.4 Q1354.54 1859.72 1351.4 1862.94 Q1348.25 1866.15 1343.02 1866.15 Q1337.02 1866.15 1333.85 1861.57 Q1330.68 1856.96 1330.68 1848.24 Q1330.68 1840.04 1334.57 1835.18 Q1338.46 1830.3 1345.01 1830.3 Q1346.77 1830.3 1348.55 1830.65 Q1350.36 1830.99 1352.3 1831.69 Z" fill="#000000" fill-rule="evenodd" fill-opacity="1" /><path clip-path="url(#clip770)" d="M1716.54 1849.07 Q1713.2 1849.07 1711.28 1850.85 Q1709.38 1852.64 1709.38 1855.76 Q1709.38 1858.89 1711.28 1860.67 Q1713.2 1862.45 1716.54 1862.45 Q1719.87 1862.45 1721.79 1860.67 Q1723.71 1858.86 1723.71 1855.76 Q1723.71 1852.64 1721.79 1850.85 Q1719.89 1849.07 1716.54 1849.07 M1711.86 1847.08 Q1708.85 1846.34 1707.16 1844.28 Q1705.49 1842.22 1705.49 1839.26 Q1705.49 1835.11 1708.43 1832.71 Q1711.4 1830.3 1716.54 1830.3 Q1721.7 1830.3 1724.64 1832.71 Q1727.58 1835.11 1727.58 1839.26 Q1727.58 1842.22 1725.89 1844.28 Q1724.22 1846.34 1721.23 1847.08 Q1724.61 1847.87 1726.49 1850.16 Q1728.39 1852.45 1728.39 1855.76 Q1728.39 1860.78 1725.31 1863.47 Q1722.25 1866.15 1716.54 1866.15 Q1710.82 1866.15 1707.74 1863.47 Q1704.68 1860.78 1704.68 1855.76 Q1704.68 1852.45 1706.58 1850.16 Q1708.48 1847.87 1711.86 1847.08 M1710.15 1839.7 Q1710.15 1842.38 1711.81 1843.89 Q1713.5 1845.39 1716.54 1845.39 Q1719.55 1845.39 1721.23 1843.89 Q1722.95 1842.38 1722.95 1839.7 Q1722.95 1837.01 1721.23 1835.51 Q1719.55 1834 1716.54 1834 Q1713.5 1834 1711.81 1835.51 Q1710.15 1837.01 1710.15 1839.7 Z" fill="#000000" fill-rule="evenodd" fill-opacity="1" /><path clip-path="url(#clip770)" d="M2065.15 1861.55 L2072.79 1861.55 L2072.79 1835.18 L2064.48 1836.85 L2064.48 1832.59 L2072.74 1830.92 L2077.42 1830.92 L2077.42 1861.55 L2085.05 1861.55 L2085.05 1865.48 L2065.15 1865.48 L2065.15 1861.55 Z" fill="#000000" fill-rule="evenodd" fill-opacity="1" /><path clip-path="url(#clip770)" d="M2104.5 1834 Q2100.89 1834 2099.06 1837.57 Q2097.25 1841.11 2097.25 1848.24 Q2097.25 1855.34 2099.06 1858.91 Q2100.89 1862.45 2104.5 1862.45 Q2108.13 1862.45 2109.94 1858.91 Q2111.77 1855.34 2111.77 1848.24 Q2111.77 1841.11 2109.94 1837.57 Q2108.13 1834 2104.5 1834 M2104.5 1830.3 Q2110.31 1830.3 2113.36 1834.9 Q2116.44 1839.49 2116.44 1848.24 Q2116.44 1856.96 2113.36 1861.57 Q2110.31 1866.15 2104.5 1866.15 Q2098.69 1866.15 2095.61 1861.57 Q2092.55 1856.96 2092.55 1848.24 Q2092.55 1839.49 2095.61 1834.9 Q2098.69 1830.3 2104.5 1830.3 Z" fill="#000000" fill-rule="evenodd" fill-opacity="1" /><path clip-path="url(#clip770)" d="M2439.87 1861.55 L2447.51 1861.55 L2447.51 1835.18 L2439.2 1836.85 L2439.2 1832.59 L2447.46 1830.92 L2452.14 1830.92 L2452.14 1861.55 L2459.78 1861.55 L2459.78 1865.48 L2439.87 1865.48 L2439.87 1861.55 Z" fill="#000000" fill-rule="evenodd" fill-opacity="1" /><path clip-path="url(#clip770)" d="M2473.25 1861.55 L2489.57 1861.55 L2489.57 1865.48 L2467.62 1865.48 L2467.62 1861.55 Q2470.29 1858.79 2474.87 1854.16 Q2479.48 1849.51 2480.66 1848.17 Q2482.9 1845.65 2483.78 1843.91 Q2484.68 1842.15 2484.68 1840.46 Q2484.68 1837.71 2482.74 1835.97 Q2480.82 1834.23 2477.72 1834.23 Q2475.52 1834.23 2473.06 1835 Q2470.63 1835.76 2467.86 1837.31 L2467.86 1832.59 Q2470.68 1831.46 2473.13 1830.88 Q2475.59 1830.3 2477.62 1830.3 Q2482.99 1830.3 2486.19 1832.98 Q2489.38 1835.67 2489.38 1840.16 Q2489.38 1842.29 2488.57 1844.21 Q2487.79 1846.11 2485.68 1848.7 Q2485.1 1849.37 2482 1852.59 Q2478.9 1855.78 2473.25 1861.55 Z" fill="#000000" fill-rule="evenodd" fill-opacity="1" /><polyline clip-path="url(#clip772)" style="stroke:#000000; stroke-linecap:round; stroke-linejoin:round; stroke-width:2; stroke-opacity:0.1; fill:none" points="
  150.358,1751.16 2640.76,1751.16 
  "/>
<polyline clip-path="url(#clip772)" style="stroke:#000000; stroke-linecap:round; stroke-linejoin:round; stroke-width:2; stroke-opacity:0.1; fill:none" points="
  150.358,1337.59 2640.76,1337.59 
  "/>
<polyline clip-path="url(#clip772)" style="stroke:#000000; stroke-linecap:round; stroke-linejoin:round; stroke-width:2; stroke-opacity:0.1; fill:none" points="
  150.358,924.011 2640.76,924.011 
  "/>
<polyline clip-path="url(#clip772)" style="stroke:#000000; stroke-linecap:round; stroke-linejoin:round; stroke-width:2; stroke-opacity:0.1; fill:none" points="
  150.358,510.435 2640.76,510.435 
  "/>
<polyline clip-path="url(#clip772)" style="stroke:#000000; stroke-linecap:round; stroke-linejoin:round; stroke-width:2; stroke-opacity:0.1; fill:none" points="
  150.358,96.8587 2640.76,96.8587 
  "/>
<polyline clip-path="url(#clip770)" style="stroke:#000000; stroke-linecap:round; stroke-linejoin:round; stroke-width:4; stroke-opacity:1; fill:none" points="
  150.358,1800.78 150.358,47.2441 
  "/>
<polyline clip-path="url(#clip770)" style="stroke:#000000; stroke-linecap:round; stroke-linejoin:round; stroke-width:4; stroke-opacity:1; fill:none" points="
  150.358,1751.16 169.256,1751.16 
  "/>
<polyline clip-path="url(#clip770)" style="stroke:#000000; stroke-linecap:round; stroke-linejoin:round; stroke-width:4; stroke-opacity:1; fill:none" points="
  150.358,1337.59 169.256,1337.59 
  "/>
<polyline clip-path="url(#clip770)" style="stroke:#000000; stroke-linecap:round; stroke-linejoin:round; stroke-width:4; stroke-opacity:1; fill:none" points="
  150.358,924.011 169.256,924.011 
  "/>
<polyline clip-path="url(#clip770)" style="stroke:#000000; stroke-linecap:round; stroke-linejoin:round; stroke-width:4; stroke-opacity:1; fill:none" points="
  150.358,510.435 169.256,510.435 
  "/>
<polyline clip-path="url(#clip770)" style="stroke:#000000; stroke-linecap:round; stroke-linejoin:round; stroke-width:4; stroke-opacity:1; fill:none" points="
  150.358,96.8587 169.256,96.8587 
  "/>
<path clip-path="url(#clip770)" d="M49.9225 1751.61 L79.5983 1751.61 L79.5983 1755.55 L49.9225 1755.55 L49.9225 1751.61 Z" fill="#000000" fill-rule="evenodd" fill-opacity="1" /><path clip-path="url(#clip770)" d="M93.7186 1764.51 L110.038 1764.51 L110.038 1768.44 L88.0936 1768.44 L88.0936 1764.51 Q90.7556 1761.75 95.3389 1757.12 Q99.9454 1752.47 101.126 1751.13 Q103.371 1748.61 104.251 1746.87 Q105.154 1745.11 105.154 1743.42 Q105.154 1740.67 103.209 1738.93 Q101.288 1737.19 98.1861 1737.19 Q95.9871 1737.19 93.5334 1737.96 Q91.1028 1738.72 88.3251 1740.27 L88.3251 1735.55 Q91.1491 1734.42 93.6028 1733.84 Q96.0565 1733.26 98.0935 1733.26 Q103.464 1733.26 106.658 1735.94 Q109.853 1738.63 109.853 1743.12 Q109.853 1745.25 109.043 1747.17 Q108.256 1749.07 106.149 1751.66 Q105.57 1752.33 102.469 1755.55 Q99.3667 1758.74 93.7186 1764.51 Z" fill="#000000" fill-rule="evenodd" fill-opacity="1" /><path clip-path="url(#clip770)" d="M49.5521 1338.04 L79.2279 1338.04 L79.2279 1341.97 L49.5521 1341.97 L49.5521 1338.04 Z" fill="#000000" fill-rule="evenodd" fill-opacity="1" /><path clip-path="url(#clip770)" d="M90.1306 1350.93 L97.7695 1350.93 L97.7695 1324.57 L89.4593 1326.23 L89.4593 1321.97 L97.7232 1320.31 L102.399 1320.31 L102.399 1350.93 L110.038 1350.93 L110.038 1354.87 L90.1306 1354.87 L90.1306 1350.93 Z" fill="#000000" fill-rule="evenodd" fill-opacity="1" /><path clip-path="url(#clip770)" d="M98.0935 909.809 Q94.4824 909.809 92.6537 913.374 Q90.8482 916.916 90.8482 924.046 Q90.8482 931.152 92.6537 934.717 Q94.4824 938.258 98.0935 938.258 Q101.728 938.258 103.533 934.717 Q105.362 931.152 105.362 924.046 Q105.362 916.916 103.533 913.374 Q101.728 909.809 98.0935 909.809 M98.0935 906.106 Q103.904 906.106 106.959 910.712 Q110.038 915.296 110.038 924.046 Q110.038 932.772 106.959 937.379 Q103.904 941.962 98.0935 941.962 Q92.2834 941.962 89.2047 937.379 Q86.1492 932.772 86.1492 924.046 Q86.1492 915.296 89.2047 910.712 Q92.2834 906.106 98.0935 906.106 Z" fill="#000000" fill-rule="evenodd" fill-opacity="1" /><path clip-path="url(#clip770)" d="M90.1306 523.78 L97.7695 523.78 L97.7695 497.414 L89.4593 499.081 L89.4593 494.821 L97.7232 493.155 L102.399 493.155 L102.399 523.78 L110.038 523.78 L110.038 527.715 L90.1306 527.715 L90.1306 523.78 Z" fill="#000000" fill-rule="evenodd" fill-opacity="1" /><path clip-path="url(#clip770)" d="M93.7186 110.203 L110.038 110.203 L110.038 114.139 L88.0936 114.139 L88.0936 110.203 Q90.7556 107.449 95.3389 102.819 Q99.9454 98.1665 101.126 96.8239 Q103.371 94.3008 104.251 92.5647 Q105.154 90.8054 105.154 89.1156 Q105.154 86.361 103.209 84.6249 Q101.288 82.8888 98.1861 82.8888 Q95.9871 82.8888 93.5334 83.6527 Q91.1028 84.4166 88.3251 85.9675 L88.3251 81.2453 Q91.1491 80.1111 93.6028 79.5324 Q96.0565 78.9537 98.0935 78.9537 Q103.464 78.9537 106.658 81.6388 Q109.853 84.324 109.853 88.8147 Q109.853 90.9443 109.043 92.8656 Q108.256 94.7638 106.149 97.3563 Q105.57 98.0276 102.469 101.245 Q99.3667 104.44 93.7186 110.203 Z" fill="#000000" fill-rule="evenodd" fill-opacity="1" /><polyline clip-path="url(#clip772)" style="stroke:#009af9; stroke-linecap:round; stroke-linejoin:round; stroke-width:4; stroke-opacity:1; fill:none" points="
  220.841,924.011 224.665,907.094 228.489,890.184 232.313,873.288 236.137,856.414 253.816,778.877 271.496,702.637 289.175,628.376 306.854,556.755 315.694,522.137 
  324.533,488.416 333.373,455.67 342.213,423.97 351.052,393.387 359.892,363.991 368.732,335.846 377.571,309.016 388.196,278.592 398.82,250.252 409.445,224.088 
  420.069,200.183 430.694,178.614 441.318,159.453 451.943,142.759 462.568,128.588 471.55,118.609 480.533,110.488 489.516,104.245 498.499,99.8936 507.482,97.4446 
  516.465,96.9034 525.448,98.2712 534.431,101.545 544.189,107.252 553.947,115.183 563.705,125.317 573.463,137.626 583.22,152.076 592.978,168.629 602.736,187.239 
  612.494,207.856 621.49,228.592 630.486,250.938 639.482,274.842 648.478,300.248 657.474,327.098 666.47,355.33 675.466,384.879 684.462,415.675 694.107,449.997 
  703.751,485.58 713.396,522.33 723.04,560.148 742.33,638.585 761.619,720.058 806.316,915.68 851.013,1111.78 870.874,1196.13 890.734,1277.42 900.665,1316.62 
  910.595,1354.72 920.525,1391.6 930.456,1427.16 939.164,1457.19 947.872,1486.05 956.58,1513.7 965.288,1540.06 973.996,1565.1 982.704,1588.74 991.412,1610.93 
  1000.12,1631.64 1009.61,1652.47 1019.11,1671.42 1028.6,1688.44 1038.1,1703.5 1047.59,1716.54 1057.08,1727.54 1066.58,1736.46 1076.07,1743.3 1085.62,1748.04 
  1095.17,1750.63 1104.72,1751.07 1114.27,1749.35 1123.82,1745.47 1133.38,1739.45 1142.93,1731.31 1152.48,1721.06 1163.04,1707.3 1173.6,1691.05 1184.15,1672.35 
  1194.71,1651.27 1205.27,1627.87 1215.83,1602.22 1226.39,1574.41 1236.95,1544.52 1247,1514.25 1257.04,1482.27 1267.09,1448.68 1277.14,1413.58 1287.19,1377.06 
  1297.23,1339.24 1307.28,1300.22 1317.33,1260.11 1338.22,1173.73 1359.11,1084.23 1380,992.736 1400.9,900.385 1418.49,822.826 1436.07,746.162 1453.66,671.07 
  1471.25,598.216 1481.98,555.118 1492.72,513.236 1503.46,472.709 1514.19,433.669 1524.93,396.245 1535.66,360.562 1546.4,326.736 1557.14,294.879 1566.97,267.514 
  1576.81,241.965 1586.64,218.302 1596.48,196.593 1606.31,176.895 1616.15,159.265 1625.98,143.75 1635.82,130.394 1644.9,120.008 1653.98,111.52 1663.07,104.949 
  1672.15,100.311 1681.23,97.6164 1690.32,96.8724 1699.4,98.0805 1708.48,101.238 1717.68,106.415 1726.88,113.573 1736.09,122.693 1745.29,133.753 1754.49,146.727 
  1763.69,161.583 1772.89,178.286 1782.09,196.794 1792.4,219.627 1802.72,244.602 1813.03,271.644 1823.34,300.669 1833.65,331.591 1843.96,364.314 1854.27,398.739 
  1864.59,434.762 1873.93,468.692 1883.28,503.76 1892.62,539.877 1901.96,576.954 1920.65,653.613 1939.34,732.971 1982.13,920.558 2024.93,1108.33 2044.74,1192.58 
  2064.55,1273.82 2074.46,1313.02 2084.36,1351.14 2094.27,1388.05 2104.18,1423.66 2113.94,1457.4 2123.71,1489.68 2133.47,1520.41 2143.24,1549.53 2153.01,1576.93 
  2162.77,1602.55 2172.54,1626.33 2182.3,1648.18 2191.79,1667.51 2201.27,1684.93 2210.75,1700.39 2220.23,1713.86 2229.71,1725.3 2239.2,1734.67 2248.68,1741.96 
  2258.16,1747.15 2267.88,1750.26 2277.6,1751.15 2287.32,1749.8 2297.04,1746.22 2306.76,1740.42 2316.48,1732.41 2326.2,1722.22 2335.92,1709.87 2346.57,1693.9 
  2357.22,1675.43 2367.87,1654.53 2378.52,1631.26 2389.17,1605.69 2399.82,1577.91 2410.47,1548.01 2421.12,1516.09 2436.59,1466.32 2452.06,1412.85 2467.53,1356.03 
  2483,1296.25 2498.47,1233.92 2513.94,1169.48 2529.41,1103.35 2544.88,1036 2551.23,1008.11 2557.58,980.133 2563.93,952.088 2570.27,924.011 
  "/>
<polyline clip-path="url(#clip772)" style="stroke:#e26f46; stroke-linecap:round; stroke-linejoin:round; stroke-width:12; stroke-opacity:1; fill:none" points="
  220.841,1337.59 220.919,1320.59 221.149,1303.44 221.528,1286.18 222.052,1268.81 226.205,1187.92 232.812,1107.26 241.341,1028.19 251.312,951.66 256.706,914.588 
  262.31,878.416 268.084,843.209 273.991,809.029 279.997,775.93 286.07,743.962 292.184,713.169 298.312,683.59 305.665,649.692 312.969,617.648 320.192,587.494 
  327.302,559.257 334.275,532.95 341.086,508.572 347.715,486.106 354.146,465.52 359.419,449.545 364.536,434.838 369.495,421.351 374.299,409.025 378.954,397.793 
  383.47,387.58 387.864,378.304 392.162,369.877 401.326,354.064 410.656,340.953 420.814,329.887 432.627,320.705 438.873,317.236 445.738,314.398 453.291,312.35 
  461.583,311.278 470.647,311.4 480.492,312.944 491.104,316.141 502.443,321.204 515.336,328.922 528.892,339.194 542.996,352.146 557.52,367.838 572.334,386.27 
  587.314,407.375 602.342,431.034 617.318,457.089 634.49,490.012 651.367,525.547 667.87,563.334 683.943,603.003 714.684,686.542 743.501,773.422 767.548,851.453 
  790.221,928.694 811.621,1003.85 831.84,1075.8 840.351,1106.09 848.654,1135.52 856.752,1164.01 864.648,1191.52 872.343,1217.99 879.84,1243.38 887.139,1267.65 
  894.24,1290.78 901.756,1314.65 909.036,1337.12 916.08,1358.16 922.886,1377.77 929.457,1395.98 935.793,1412.8 941.899,1428.28 947.782,1442.45 953.485,1455.45 
  958.988,1467.27 964.312,1477.99 969.484,1487.7 979.528,1504.45 989.523,1518.3 1001.21,1530.97 1014.5,1541.15 1022.09,1545.17 1030.47,1548.27 1039.75,1550.21 
  1050.01,1550.69 1060.72,1549.5 1072.34,1546.37 1084.85,1541.02 1098.17,1533.19 1112.19,1522.66 1126.8,1509.29 1141.87,1492.99 1157.25,1473.77 1173.42,1450.74 
  1189.64,1424.77 1197.73,1410.74 1205.79,1396.05 1213.81,1380.74 1221.76,1364.83 1237.48,1331.37 1252.87,1295.96 1267.89,1258.91 1282.52,1220.49 1306.21,1153.52 
  1328.73,1084.78 1350.12,1015.43 1370.43,946.509 1382.33,905.046 1393.87,864.279 1405.06,824.381 1415.93,785.512 1426.46,747.818 1436.69,711.43 1446.6,676.466 
  1456.22,643.028 1464.76,613.813 1473.05,586.011 1481.09,559.668 1488.88,534.82 1496.42,511.489 1503.7,489.687 1510.74,469.413 1517.52,450.651 1523.56,434.643 
  1529.39,419.868 1535.01,406.285 1540.44,393.842 1545.69,382.476 1550.77,372.119 1555.71,362.693 1560.54,354.118 1570.14,339.008 1579.84,326.387 1590.21,315.771 
  1601.89,307.039 1609.29,303.1 1617.44,300.033 1626.45,298.058 1636.38,297.453 1647.29,298.526 1659.16,301.604 1671.97,307.009 1685.63,315.026 1698.66,324.74 
  1712.2,336.91 1726.15,351.605 1740.4,368.837 1754.83,388.565 1769.34,410.703 1783.83,435.123 1798.23,461.665 1814.51,494.424 1830.49,529.423 1846.11,566.352 
  1861.34,604.894 1890.51,685.584 1917.95,769.148 1941.86,847.255 1964.42,924.561 1985.73,999.791 2005.89,1071.85 2015.42,1105.91 2024.69,1138.87 2033.7,1170.65 
  2042.46,1201.17 2050.98,1230.36 2059.25,1258.17 2067.27,1284.54 2075.04,1309.44 2082.35,1332.19 2089.43,1353.51 2096.27,1373.42 2102.87,1391.92 2109.24,1409.02 
  2115.38,1424.78 2121.3,1439.22 2127,1452.41 2132.64,1464.7 2138.09,1475.82 2143.37,1485.89 2148.53,1494.98 2158.66,1510.67 2168.98,1523.66 2181.3,1535.4 
  2195.72,1544.49 2204.05,1547.76 2213.29,1549.89 2223.51,1550.57 2234.77,1549.48 2243.59,1547.36 2252.95,1543.97 2262.82,1539.18 2273.15,1532.89 2283.9,1525 
  2295.01,1515.43 2306.43,1504.14 2318.09,1491.12 2329.93,1476.36 2341.88,1459.89 2353.89,1441.77 2365.9,1422.07 2377.87,1400.87 2389.74,1378.28 2401.49,1354.39 
  2413.08,1329.33 2422.46,1307.96 2431.71,1285.96 2440.83,1263.37 2449.79,1240.26 
  "/>
</svg>
