<?xml version="1.0" encoding="utf-8"?>
<svg xmlns="http://www.w3.org/2000/svg" xmlns:xlink="http://www.w3.org/1999/xlink" width="672" height="480" viewBox="0 0 2688 1920">
<defs>
  <clipPath id="clip610">
    <rect x="0" y="0" width="2688" height="1920"/>
  </clipPath>
</defs>
<path clip-path="url(#clip610)" d="
M0 1920 L2688 1920 L2688 0 L0 0  Z
  " fill="#ffffff" fill-rule="evenodd" fill-opacity="1"/>
<defs>
  <clipPath id="clip611">
    <rect x="537" y="0" width="1883" height="1883"/>
  </clipPath>
</defs>
<path clip-path="url(#clip610)" d="
M115.057 1800.78 L2640.76 1800.78 L2640.76 47.2441 L115.057 47.2441  Z
  " fill="#ffffff" fill-rule="evenodd" fill-opacity="1"/>
<defs>
  <clipPath id="clip612">
    <rect x="115" y="47" width="2527" height="1755"/>
  </clipPath>
</defs>
<polyline clip-path="url(#clip612)" style="stroke:#000000; stroke-linecap:butt; stroke-linejoin:round; stroke-width:2; stroke-opacity:0.1; fill:none" points="
  186.539,1800.78 186.539,47.2441 
  "/>
<polyline clip-path="url(#clip612)" style="stroke:#000000; stroke-linecap:butt; stroke-linejoin:round; stroke-width:2; stroke-opacity:0.1; fill:none" points="
  782.223,1800.78 782.223,47.2441 
  "/>
<polyline clip-path="url(#clip612)" style="stroke:#000000; stroke-linecap:butt; stroke-linejoin:round; stroke-width:2; stroke-opacity:0.1; fill:none" points="
  1377.91,1800.78 1377.91,47.2441 
  "/>
<polyline clip-path="url(#clip612)" style="stroke:#000000; stroke-linecap:butt; stroke-linejoin:round; stroke-width:2; stroke-opacity:0.1; fill:none" points="
  1973.59,1800.78 1973.59,47.2441 
  "/>
<polyline clip-path="url(#clip612)" style="stroke:#000000; stroke-linecap:butt; stroke-linejoin:round; stroke-width:2; stroke-opacity:0.1; fill:none" points="
  2569.27,1800.78 2569.27,47.2441 
  "/>
<polyline clip-path="url(#clip610)" style="stroke:#000000; stroke-linecap:butt; stroke-linejoin:round; stroke-width:4; stroke-opacity:1; fill:none" points="
  115.057,1800.78 2640.76,1800.78 
  "/>
<polyline clip-path="url(#clip610)" style="stroke:#000000; stroke-linecap:butt; stroke-linejoin:round; stroke-width:4; stroke-opacity:1; fill:none" points="
  186.539,1800.78 186.539,1781.88 
  "/>
<polyline clip-path="url(#clip610)" style="stroke:#000000; stroke-linecap:butt; stroke-linejoin:round; stroke-width:4; stroke-opacity:1; fill:none" points="
  782.223,1800.78 782.223,1781.88 
  "/>
<polyline clip-path="url(#clip610)" style="stroke:#000000; stroke-linecap:butt; stroke-linejoin:round; stroke-width:4; stroke-opacity:1; fill:none" points="
  1377.91,1800.78 1377.91,1781.88 
  "/>
<polyline clip-path="url(#clip610)" style="stroke:#000000; stroke-linecap:butt; stroke-linejoin:round; stroke-width:4; stroke-opacity:1; fill:none" points="
  1973.59,1800.78 1973.59,1781.88 
  "/>
<polyline clip-path="url(#clip610)" style="stroke:#000000; stroke-linecap:butt; stroke-linejoin:round; stroke-width:4; stroke-opacity:1; fill:none" points="
  2569.27,1800.78 2569.27,1781.88 
  "/>
<path clip-path="url(#clip610)" d="M186.539 1834 Q182.928 1834 181.099 1837.57 Q179.294 1841.11 179.294 1848.24 Q179.294 1855.34 181.099 1858.91 Q182.928 1862.45 186.539 1862.45 Q190.173 1862.45 191.979 1858.91 Q193.808 1855.34 193.808 1848.24 Q193.808 1841.11 191.979 1837.57 Q190.173 1834 186.539 1834 M186.539 1830.3 Q192.349 1830.3 195.405 1834.9 Q198.484 1839.49 198.484 1848.24 Q198.484 1856.96 195.405 1861.57 Q192.349 1866.15 186.539 1866.15 Q180.729 1866.15 177.65 1861.57 Q174.595 1856.96 174.595 1848.24 Q174.595 1839.49 177.65 1834.9 Q180.729 1830.3 186.539 1830.3 Z" fill="#000000" fill-rule="evenodd" fill-opacity="1" /><path clip-path="url(#clip610)" d="M772.605 1861.55 L780.244 1861.55 L780.244 1835.18 L771.934 1836.85 L771.934 1832.59 L780.197 1830.92 L784.873 1830.92 L784.873 1861.55 L792.512 1861.55 L792.512 1865.48 L772.605 1865.48 L772.605 1861.55 Z" fill="#000000" fill-rule="evenodd" fill-opacity="1" /><path clip-path="url(#clip610)" d="M1372.56 1861.55 L1388.88 1861.55 L1388.88 1865.48 L1366.93 1865.48 L1366.93 1861.55 Q1369.6 1858.79 1374.18 1854.16 Q1378.79 1849.51 1379.97 1848.17 Q1382.21 1845.65 1383.09 1843.91 Q1383.99 1842.15 1383.99 1840.46 Q1383.99 1837.71 1382.05 1835.97 Q1380.13 1834.23 1377.03 1834.23 Q1374.83 1834.23 1372.37 1835 Q1369.94 1835.76 1367.17 1837.31 L1367.17 1832.59 Q1369.99 1831.46 1372.44 1830.88 Q1374.9 1830.3 1376.93 1830.3 Q1382.3 1830.3 1385.5 1832.98 Q1388.69 1835.67 1388.69 1840.16 Q1388.69 1842.29 1387.88 1844.21 Q1387.1 1846.11 1384.99 1848.7 Q1384.41 1849.37 1381.31 1852.59 Q1378.21 1855.78 1372.56 1861.55 Z" fill="#000000" fill-rule="evenodd" fill-opacity="1" /><path clip-path="url(#clip610)" d="M1977.84 1846.85 Q1981.19 1847.57 1983.07 1849.84 Q1984.97 1852.1 1984.97 1855.44 Q1984.97 1860.55 1981.45 1863.35 Q1977.93 1866.15 1971.45 1866.15 Q1969.27 1866.15 1966.96 1865.71 Q1964.67 1865.3 1962.21 1864.44 L1962.21 1859.93 Q1964.16 1861.06 1966.47 1861.64 Q1968.79 1862.22 1971.31 1862.22 Q1975.71 1862.22 1978 1860.48 Q1980.31 1858.75 1980.31 1855.44 Q1980.31 1852.38 1978.16 1850.67 Q1976.03 1848.93 1972.21 1848.93 L1968.19 1848.93 L1968.19 1845.09 L1972.4 1845.09 Q1975.85 1845.09 1977.68 1843.72 Q1979.5 1842.34 1979.5 1839.74 Q1979.5 1837.08 1977.61 1835.67 Q1975.73 1834.23 1972.21 1834.23 Q1970.29 1834.23 1968.09 1834.65 Q1965.89 1835.07 1963.25 1835.95 L1963.25 1831.78 Q1965.92 1831.04 1968.23 1830.67 Q1970.57 1830.3 1972.63 1830.3 Q1977.95 1830.3 1981.06 1832.73 Q1984.16 1835.14 1984.16 1839.26 Q1984.16 1842.13 1982.51 1844.12 Q1980.87 1846.09 1977.84 1846.85 Z" fill="#000000" fill-rule="evenodd" fill-opacity="1" /><path clip-path="url(#clip610)" d="M2572.28 1835 L2560.48 1853.45 L2572.28 1853.45 L2572.28 1835 M2571.06 1830.92 L2576.94 1830.92 L2576.94 1853.45 L2581.87 1853.45 L2581.87 1857.34 L2576.94 1857.34 L2576.94 1865.48 L2572.28 1865.48 L2572.28 1857.34 L2556.68 1857.34 L2556.68 1852.82 L2571.06 1830.92 Z" fill="#000000" fill-rule="evenodd" fill-opacity="1" /><polyline clip-path="url(#clip612)" style="stroke:#000000; stroke-linecap:butt; stroke-linejoin:round; stroke-width:2; stroke-opacity:0.1; fill:none" points="
  115.057,1544.37 2640.76,1544.37 
  "/>
<polyline clip-path="url(#clip612)" style="stroke:#000000; stroke-linecap:butt; stroke-linejoin:round; stroke-width:2; stroke-opacity:0.1; fill:none" points="
  115.057,1130.8 2640.76,1130.8 
  "/>
<polyline clip-path="url(#clip612)" style="stroke:#000000; stroke-linecap:butt; stroke-linejoin:round; stroke-width:2; stroke-opacity:0.1; fill:none" points="
  115.057,717.227 2640.76,717.227 
  "/>
<polyline clip-path="url(#clip612)" style="stroke:#000000; stroke-linecap:butt; stroke-linejoin:round; stroke-width:2; stroke-opacity:0.1; fill:none" points="
  115.057,303.657 2640.76,303.657 
  "/>
<polyline clip-path="url(#clip610)" style="stroke:#000000; stroke-linecap:butt; stroke-linejoin:round; stroke-width:4; stroke-opacity:1; fill:none" points="
  115.057,1800.78 115.057,47.2441 
  "/>
<polyline clip-path="url(#clip610)" style="stroke:#000000; stroke-linecap:butt; stroke-linejoin:round; stroke-width:4; stroke-opacity:1; fill:none" points="
  115.057,1544.37 133.955,1544.37 
  "/>
<polyline clip-path="url(#clip610)" style="stroke:#000000; stroke-linecap:butt; stroke-linejoin:round; stroke-width:4; stroke-opacity:1; fill:none" points="
  115.057,1130.8 133.955,1130.8 
  "/>
<polyline clip-path="url(#clip610)" style="stroke:#000000; stroke-linecap:butt; stroke-linejoin:round; stroke-width:4; stroke-opacity:1; fill:none" points="
  115.057,717.227 133.955,717.227 
  "/>
<polyline clip-path="url(#clip610)" style="stroke:#000000; stroke-linecap:butt; stroke-linejoin:round; stroke-width:4; stroke-opacity:1; fill:none" points="
  115.057,303.657 133.955,303.657 
  "/>
<path clip-path="url(#clip610)" d="M62.7928 1530.16 Q59.1817 1530.16 57.353 1533.73 Q55.5475 1537.27 55.5475 1544.4 Q55.5475 1551.51 57.353 1555.07 Q59.1817 1558.61 62.7928 1558.61 Q66.427 1558.61 68.2326 1555.07 Q70.0613 1551.51 70.0613 1544.4 Q70.0613 1537.27 68.2326 1533.73 Q66.427 1530.16 62.7928 1530.16 M62.7928 1526.46 Q68.6029 1526.46 71.6585 1531.07 Q74.7372 1535.65 74.7372 1544.4 Q74.7372 1553.13 71.6585 1557.73 Q68.6029 1562.32 62.7928 1562.32 Q56.9826 1562.32 53.904 1557.73 Q50.8484 1553.13 50.8484 1544.4 Q50.8484 1535.65 53.904 1531.07 Q56.9826 1526.46 62.7928 1526.46 Z" fill="#000000" fill-rule="evenodd" fill-opacity="1" /><path clip-path="url(#clip610)" d="M58.4178 1144.14 L74.7372 1144.14 L74.7372 1148.08 L52.7928 1148.08 L52.7928 1144.14 Q55.4549 1141.39 60.0382 1136.76 Q64.6446 1132.1 65.8252 1130.76 Q68.0705 1128.24 68.9502 1126.5 Q69.8529 1124.74 69.8529 1123.05 Q69.8529 1120.3 67.9085 1118.56 Q65.9872 1116.83 62.8854 1116.83 Q60.6863 1116.83 58.2326 1117.59 Q55.8021 1118.35 53.0243 1119.91 L53.0243 1115.18 Q55.8484 1114.05 58.3021 1113.47 Q60.7558 1112.89 62.7928 1112.89 Q68.1631 1112.89 71.3576 1115.58 Q74.552 1118.26 74.552 1122.75 Q74.552 1124.88 73.7418 1126.8 Q72.9548 1128.7 70.8483 1131.29 Q70.2696 1131.97 67.1678 1135.18 Q64.0659 1138.38 58.4178 1144.14 Z" fill="#000000" fill-rule="evenodd" fill-opacity="1" /><path clip-path="url(#clip610)" d="M65.1539 704.021 L53.3484 722.47 L65.1539 722.47 L65.1539 704.021 M63.927 699.947 L69.8066 699.947 L69.8066 722.47 L74.7372 722.47 L74.7372 726.359 L69.8066 726.359 L69.8066 734.507 L65.1539 734.507 L65.1539 726.359 L49.5521 726.359 L49.5521 721.845 L63.927 699.947 Z" fill="#000000" fill-rule="evenodd" fill-opacity="1" /><path clip-path="url(#clip610)" d="M63.2095 301.794 Q60.0613 301.794 58.2095 303.947 Q56.3808 306.099 56.3808 309.849 Q56.3808 313.576 58.2095 315.752 Q60.0613 317.905 63.2095 317.905 Q66.3576 317.905 68.1863 315.752 Q70.0381 313.576 70.0381 309.849 Q70.0381 306.099 68.1863 303.947 Q66.3576 301.794 63.2095 301.794 M72.4918 287.141 L72.4918 291.4 Q70.7326 290.567 68.927 290.127 Q67.1446 289.687 65.3854 289.687 Q60.7558 289.687 58.3021 292.812 Q55.8715 295.937 55.5243 302.257 Q56.89 300.243 58.9502 299.178 Q61.0104 298.09 63.4872 298.09 Q68.6955 298.09 71.7048 301.261 Q74.7372 304.41 74.7372 309.849 Q74.7372 315.173 71.589 318.391 Q68.4409 321.609 63.2095 321.609 Q57.2141 321.609 54.0428 317.025 Q50.8716 312.419 50.8716 303.692 Q50.8716 295.498 54.7604 290.636 Q58.6493 285.752 65.2002 285.752 Q66.9594 285.752 68.7418 286.099 Q70.5474 286.447 72.4918 287.141 Z" fill="#000000" fill-rule="evenodd" fill-opacity="1" /><polyline clip-path="url(#clip612)" style="stroke:#009af9; stroke-linecap:butt; stroke-linejoin:round; stroke-width:4; stroke-opacity:1; fill:none" points="
  186.539,1751.15 202.052,1740.38 345.491,1640.79 431.692,1580.95 504.574,1530.35 583.744,1475.38 656.732,1424.71 734.983,1370.38 825.644,1307.44 906.213,1251.5 
  976.864,1202.45 1053.89,1148.97 1131.38,1095.17 1217.05,1035.69 1298.57,979.095 1383.32,920.251 1454.67,870.717 1541.78,810.241 1621.57,754.841 1695.27,703.675 
  1769.92,651.846 1853.58,593.759 1929.4,541.124 2016.2,480.859 2096.57,425.06 2175.81,370.049 2252.74,316.637 2331.6,261.883 2418.01,201.894 2543.52,114.75 
  2569.27,96.8724 
  "/>
<path clip-path="url(#clip610)" d="
M2223.5 209.375 L2556.57 209.375 L2556.57 105.695 L2223.5 105.695  Z
  " fill="#ffffff" fill-rule="evenodd" fill-opacity="1"/>
<polyline clip-path="url(#clip610)" style="stroke:#000000; stroke-linecap:butt; stroke-linejoin:round; stroke-width:4; stroke-opacity:1; fill:none" points="
  2223.5,209.375 2556.57,209.375 2556.57,105.695 2223.5,105.695 2223.5,209.375 
  "/>
<polyline clip-path="url(#clip610)" style="stroke:#009af9; stroke-linecap:butt; stroke-linejoin:round; stroke-width:4; stroke-opacity:1; fill:none" points="
  2251.57,157.535 2419.95,157.535 
  "/>
<path clip-path="url(#clip610)" d="M2461.85 177.223 Q2460.05 181.852 2458.33 183.264 Q2456.62 184.676 2453.75 184.676 L2450.35 184.676 L2450.35 181.112 L2452.85 181.112 Q2454.61 181.112 2455.58 180.278 Q2456.55 179.445 2457.73 176.343 L2458.5 174.399 L2448.01 148.889 L2452.52 148.889 L2460.62 169.167 L2468.73 148.889 L2473.24 148.889 L2461.85 177.223 Z" fill="#000000" fill-rule="evenodd" fill-opacity="1" /><path clip-path="url(#clip610)" d="M2480.53 170.88 L2488.17 170.88 L2488.17 144.515 L2479.86 146.181 L2479.86 141.922 L2488.12 140.255 L2492.8 140.255 L2492.8 170.88 L2500.44 170.88 L2500.44 174.815 L2480.53 174.815 L2480.53 170.88 Z" fill="#000000" fill-rule="evenodd" fill-opacity="1" /></svg>
