<?xml version="1.0" encoding="utf-8"?>
<svg xmlns="http://www.w3.org/2000/svg" xmlns:xlink="http://www.w3.org/1999/xlink" width="672" height="480" viewBox="0 0 2688 1920">
<defs>
  <clipPath id="clip560">
    <rect x="0" y="0" width="2688" height="1920"/>
  </clipPath>
</defs>
<path clip-path="url(#clip560)" d="
M0 1920 L2688 1920 L2688 0 L0 0  Z
  " fill="#ffffff" fill-rule="evenodd" fill-opacity="1"/>
<defs>
  <clipPath id="clip561">
    <rect x="537" y="0" width="1883" height="1883"/>
  </clipPath>
</defs>
<path clip-path="url(#clip560)" d="
M187.071 1800.78 L2640.76 1800.78 L2640.76 47.2441 L187.071 47.2441  Z
  " fill="#ffffff" fill-rule="evenodd" fill-opacity="1"/>
<defs>
  <clipPath id="clip562">
    <rect x="187" y="47" width="2455" height="1755"/>
  </clipPath>
</defs>
<polyline clip-path="url(#clip562)" style="stroke:#000000; stroke-linecap:butt; stroke-linejoin:round; stroke-width:2; stroke-opacity:0.1; fill:none" points="
  188.43,1800.78 188.43,47.2441 
  "/>
<polyline clip-path="url(#clip562)" style="stroke:#000000; stroke-linecap:butt; stroke-linejoin:round; stroke-width:2; stroke-opacity:0.1; fill:none" points="
  784.15,1800.78 784.15,47.2441 
  "/>
<polyline clip-path="url(#clip562)" style="stroke:#000000; stroke-linecap:butt; stroke-linejoin:round; stroke-width:2; stroke-opacity:0.1; fill:none" points="
  1379.87,1800.78 1379.87,47.2441 
  "/>
<polyline clip-path="url(#clip562)" style="stroke:#000000; stroke-linecap:butt; stroke-linejoin:round; stroke-width:2; stroke-opacity:0.1; fill:none" points="
  1975.59,1800.78 1975.59,47.2441 
  "/>
<polyline clip-path="url(#clip562)" style="stroke:#000000; stroke-linecap:butt; stroke-linejoin:round; stroke-width:2; stroke-opacity:0.1; fill:none" points="
  2571.31,1800.78 2571.31,47.2441 
  "/>
<polyline clip-path="url(#clip560)" style="stroke:#000000; stroke-linecap:butt; stroke-linejoin:round; stroke-width:4; stroke-opacity:1; fill:none" points="
  187.071,1800.78 2640.76,1800.78 
  "/>
<polyline clip-path="url(#clip560)" style="stroke:#000000; stroke-linecap:butt; stroke-linejoin:round; stroke-width:4; stroke-opacity:1; fill:none" points="
  188.43,1800.78 188.43,1781.88 
  "/>
<polyline clip-path="url(#clip560)" style="stroke:#000000; stroke-linecap:butt; stroke-linejoin:round; stroke-width:4; stroke-opacity:1; fill:none" points="
  784.15,1800.78 784.15,1781.88 
  "/>
<polyline clip-path="url(#clip560)" style="stroke:#000000; stroke-linecap:butt; stroke-linejoin:round; stroke-width:4; stroke-opacity:1; fill:none" points="
  1379.87,1800.78 1379.87,1781.88 
  "/>
<polyline clip-path="url(#clip560)" style="stroke:#000000; stroke-linecap:butt; stroke-linejoin:round; stroke-width:4; stroke-opacity:1; fill:none" points="
  1975.59,1800.78 1975.59,1781.88 
  "/>
<polyline clip-path="url(#clip560)" style="stroke:#000000; stroke-linecap:butt; stroke-linejoin:round; stroke-width:4; stroke-opacity:1; fill:none" points="
  2571.31,1800.78 2571.31,1781.88 
  "/>
<path clip-path="url(#clip560)" d="M142.493 1848.65 L172.168 1848.65 L172.168 1852.59 L142.493 1852.59 L142.493 1848.65 Z" fill="#000000" fill-rule="evenodd" fill-opacity="1" /><path clip-path="url(#clip560)" d="M183.071 1861.55 L190.71 1861.55 L190.71 1835.18 L182.4 1836.85 L182.4 1832.59 L190.664 1830.92 L195.34 1830.92 L195.34 1861.55 L202.978 1861.55 L202.978 1865.48 L183.071 1865.48 L183.071 1861.55 Z" fill="#000000" fill-rule="evenodd" fill-opacity="1" /><path clip-path="url(#clip560)" d="M222.423 1834 Q218.812 1834 216.983 1837.57 Q215.177 1841.11 215.177 1848.24 Q215.177 1855.34 216.983 1858.91 Q218.812 1862.45 222.423 1862.45 Q226.057 1862.45 227.863 1858.91 Q229.691 1855.34 229.691 1848.24 Q229.691 1841.11 227.863 1837.57 Q226.057 1834 222.423 1834 M222.423 1830.3 Q228.233 1830.3 231.288 1834.9 Q234.367 1839.49 234.367 1848.24 Q234.367 1856.96 231.288 1861.57 Q228.233 1866.15 222.423 1866.15 Q216.613 1866.15 213.534 1861.57 Q210.478 1856.96 210.478 1848.24 Q210.478 1839.49 213.534 1834.9 Q216.613 1830.3 222.423 1830.3 Z" fill="#000000" fill-rule="evenodd" fill-opacity="1" /><path clip-path="url(#clip560)" d="M753.792 1848.65 L783.468 1848.65 L783.468 1852.59 L753.792 1852.59 L753.792 1848.65 Z" fill="#000000" fill-rule="evenodd" fill-opacity="1" /><path clip-path="url(#clip560)" d="M793.606 1830.92 L811.963 1830.92 L811.963 1834.86 L797.889 1834.86 L797.889 1843.33 Q798.907 1842.98 799.926 1842.82 Q800.944 1842.64 801.963 1842.64 Q807.75 1842.64 811.129 1845.81 Q814.509 1848.98 814.509 1854.4 Q814.509 1859.97 811.037 1863.08 Q807.565 1866.15 801.245 1866.15 Q799.069 1866.15 796.801 1865.78 Q794.555 1865.41 792.148 1864.67 L792.148 1859.97 Q794.231 1861.11 796.454 1861.66 Q798.676 1862.22 801.153 1862.22 Q805.157 1862.22 807.495 1860.11 Q809.833 1858.01 809.833 1854.4 Q809.833 1850.78 807.495 1848.68 Q805.157 1846.57 801.153 1846.57 Q799.278 1846.57 797.403 1846.99 Q795.551 1847.4 793.606 1848.28 L793.606 1830.92 Z" fill="#000000" fill-rule="evenodd" fill-opacity="1" /><path clip-path="url(#clip560)" d="M1379.87 1834 Q1376.26 1834 1374.43 1837.57 Q1372.63 1841.11 1372.63 1848.24 Q1372.63 1855.34 1374.43 1858.91 Q1376.26 1862.45 1379.87 1862.45 Q1383.51 1862.45 1385.31 1858.91 Q1387.14 1855.34 1387.14 1848.24 Q1387.14 1841.11 1385.31 1837.57 Q1383.51 1834 1379.87 1834 M1379.87 1830.3 Q1385.68 1830.3 1388.74 1834.9 Q1391.82 1839.49 1391.82 1848.24 Q1391.82 1856.96 1388.74 1861.57 Q1385.68 1866.15 1379.87 1866.15 Q1374.06 1866.15 1370.98 1861.57 Q1367.93 1856.96 1367.93 1848.24 Q1367.93 1839.49 1370.98 1834.9 Q1374.06 1830.3 1379.87 1830.3 Z" fill="#000000" fill-rule="evenodd" fill-opacity="1" /><path clip-path="url(#clip560)" d="M1965.87 1830.92 L1984.23 1830.92 L1984.23 1834.86 L1970.15 1834.86 L1970.15 1843.33 Q1971.17 1842.98 1972.19 1842.82 Q1973.21 1842.64 1974.23 1842.64 Q1980.01 1842.64 1983.39 1845.81 Q1986.77 1848.98 1986.77 1854.4 Q1986.77 1859.97 1983.3 1863.08 Q1979.83 1866.15 1973.51 1866.15 Q1971.33 1866.15 1969.06 1865.78 Q1966.82 1865.41 1964.41 1864.67 L1964.41 1859.97 Q1966.49 1861.11 1968.72 1861.66 Q1970.94 1862.22 1973.42 1862.22 Q1977.42 1862.22 1979.76 1860.11 Q1982.1 1858.01 1982.1 1854.4 Q1982.1 1850.78 1979.76 1848.68 Q1977.42 1846.57 1973.42 1846.57 Q1971.54 1846.57 1969.67 1846.99 Q1967.81 1847.4 1965.87 1848.28 L1965.87 1830.92 Z" fill="#000000" fill-rule="evenodd" fill-opacity="1" /><path clip-path="url(#clip560)" d="M2546 1861.55 L2553.64 1861.55 L2553.64 1835.18 L2545.33 1836.85 L2545.33 1832.59 L2553.59 1830.92 L2558.27 1830.92 L2558.27 1861.55 L2565.91 1861.55 L2565.91 1865.48 L2546 1865.48 L2546 1861.55 Z" fill="#000000" fill-rule="evenodd" fill-opacity="1" /><path clip-path="url(#clip560)" d="M2585.35 1834 Q2581.74 1834 2579.91 1837.57 Q2578.11 1841.11 2578.11 1848.24 Q2578.11 1855.34 2579.91 1858.91 Q2581.74 1862.45 2585.35 1862.45 Q2588.99 1862.45 2590.79 1858.91 Q2592.62 1855.34 2592.62 1848.24 Q2592.62 1841.11 2590.79 1837.57 Q2588.99 1834 2585.35 1834 M2585.35 1830.3 Q2591.16 1830.3 2594.22 1834.9 Q2597.3 1839.49 2597.3 1848.24 Q2597.3 1856.96 2594.22 1861.57 Q2591.16 1866.15 2585.35 1866.15 Q2579.54 1866.15 2576.46 1861.57 Q2573.41 1856.96 2573.41 1848.24 Q2573.41 1839.49 2576.46 1834.9 Q2579.54 1830.3 2585.35 1830.3 Z" fill="#000000" fill-rule="evenodd" fill-opacity="1" /><polyline clip-path="url(#clip562)" style="stroke:#000000; stroke-linecap:butt; stroke-linejoin:round; stroke-width:2; stroke-opacity:0.1; fill:none" points="
  187.071,1751.15 2640.76,1751.15 
  "/>
<polyline clip-path="url(#clip562)" style="stroke:#000000; stroke-linecap:butt; stroke-linejoin:round; stroke-width:2; stroke-opacity:0.1; fill:none" points="
  187.071,1337.58 2640.76,1337.58 
  "/>
<polyline clip-path="url(#clip562)" style="stroke:#000000; stroke-linecap:butt; stroke-linejoin:round; stroke-width:2; stroke-opacity:0.1; fill:none" points="
  187.071,924.011 2640.76,924.011 
  "/>
<polyline clip-path="url(#clip562)" style="stroke:#000000; stroke-linecap:butt; stroke-linejoin:round; stroke-width:2; stroke-opacity:0.1; fill:none" points="
  187.071,510.442 2640.76,510.442 
  "/>
<polyline clip-path="url(#clip562)" style="stroke:#000000; stroke-linecap:butt; stroke-linejoin:round; stroke-width:2; stroke-opacity:0.1; fill:none" points="
  187.071,96.8724 2640.76,96.8724 
  "/>
<polyline clip-path="url(#clip560)" style="stroke:#000000; stroke-linecap:butt; stroke-linejoin:round; stroke-width:4; stroke-opacity:1; fill:none" points="
  187.071,1800.78 187.071,47.2441 
  "/>
<polyline clip-path="url(#clip560)" style="stroke:#000000; stroke-linecap:butt; stroke-linejoin:round; stroke-width:4; stroke-opacity:1; fill:none" points="
  187.071,1751.15 205.968,1751.15 
  "/>
<polyline clip-path="url(#clip560)" style="stroke:#000000; stroke-linecap:butt; stroke-linejoin:round; stroke-width:4; stroke-opacity:1; fill:none" points="
  187.071,1337.58 205.968,1337.58 
  "/>
<polyline clip-path="url(#clip560)" style="stroke:#000000; stroke-linecap:butt; stroke-linejoin:round; stroke-width:4; stroke-opacity:1; fill:none" points="
  187.071,924.011 205.968,924.011 
  "/>
<polyline clip-path="url(#clip560)" style="stroke:#000000; stroke-linecap:butt; stroke-linejoin:round; stroke-width:4; stroke-opacity:1; fill:none" points="
  187.071,510.442 205.968,510.442 
  "/>
<polyline clip-path="url(#clip560)" style="stroke:#000000; stroke-linecap:butt; stroke-linejoin:round; stroke-width:4; stroke-opacity:1; fill:none" points="
  187.071,96.8724 205.968,96.8724 
  "/>
<path clip-path="url(#clip560)" d="M89.5751 1736.95 Q85.964 1736.95 84.1353 1740.51 Q82.3297 1744.05 82.3297 1751.18 Q82.3297 1758.29 84.1353 1761.86 Q85.964 1765.4 89.5751 1765.4 Q93.2093 1765.4 95.0148 1761.86 Q96.8435 1758.29 96.8435 1751.18 Q96.8435 1744.05 95.0148 1740.51 Q93.2093 1736.95 89.5751 1736.95 M89.5751 1733.24 Q95.3852 1733.24 98.4408 1737.85 Q101.519 1742.43 101.519 1751.18 Q101.519 1759.91 98.4408 1764.52 Q95.3852 1769.1 89.5751 1769.1 Q83.7649 1769.1 80.6862 1764.52 Q77.6307 1759.91 77.6307 1751.18 Q77.6307 1742.43 80.6862 1737.85 Q83.7649 1733.24 89.5751 1733.24 Z" fill="#000000" fill-rule="evenodd" fill-opacity="1" /><path clip-path="url(#clip560)" d="M109.737 1762.55 L114.621 1762.55 L114.621 1768.43 L109.737 1768.43 L109.737 1762.55 Z" fill="#000000" fill-rule="evenodd" fill-opacity="1" /><path clip-path="url(#clip560)" d="M134.806 1736.95 Q131.195 1736.95 129.367 1740.51 Q127.561 1744.05 127.561 1751.18 Q127.561 1758.29 129.367 1761.86 Q131.195 1765.4 134.806 1765.4 Q138.441 1765.4 140.246 1761.86 Q142.075 1758.29 142.075 1751.18 Q142.075 1744.05 140.246 1740.51 Q138.441 1736.95 134.806 1736.95 M134.806 1733.24 Q140.616 1733.24 143.672 1737.85 Q146.751 1742.43 146.751 1751.18 Q146.751 1759.91 143.672 1764.52 Q140.616 1769.1 134.806 1769.1 Q128.996 1769.1 125.917 1764.52 Q122.862 1759.91 122.862 1751.18 Q122.862 1742.43 125.917 1737.85 Q128.996 1733.24 134.806 1733.24 Z" fill="#000000" fill-rule="evenodd" fill-opacity="1" /><path clip-path="url(#clip560)" d="M84.5982 1350.92 L100.918 1350.92 L100.918 1354.86 L78.9733 1354.86 L78.9733 1350.92 Q81.6353 1348.17 86.2186 1343.54 Q90.8251 1338.89 92.0056 1337.55 Q94.251 1335.02 95.1306 1333.29 Q96.0334 1331.53 96.0334 1329.84 Q96.0334 1327.08 94.0889 1325.35 Q92.1676 1323.61 89.0658 1323.61 Q86.8667 1323.61 84.4131 1324.37 Q81.9825 1325.14 79.2047 1326.69 L79.2047 1321.97 Q82.0288 1320.83 84.4825 1320.25 Q86.9362 1319.68 88.9732 1319.68 Q94.3436 1319.68 97.538 1322.36 Q100.732 1325.05 100.732 1329.54 Q100.732 1331.67 99.9222 1333.59 Q99.1352 1335.49 97.0287 1338.08 Q96.45 1338.75 93.3482 1341.97 Q90.2464 1345.16 84.5982 1350.92 Z" fill="#000000" fill-rule="evenodd" fill-opacity="1" /><path clip-path="url(#clip560)" d="M110.732 1348.98 L115.617 1348.98 L115.617 1354.86 L110.732 1354.86 L110.732 1348.98 Z" fill="#000000" fill-rule="evenodd" fill-opacity="1" /><path clip-path="url(#clip560)" d="M125.848 1320.3 L144.204 1320.3 L144.204 1324.24 L130.13 1324.24 L130.13 1332.71 Q131.149 1332.36 132.167 1332.2 Q133.186 1332.01 134.204 1332.01 Q139.991 1332.01 143.371 1335.18 Q146.751 1338.36 146.751 1343.77 Q146.751 1349.35 143.278 1352.45 Q139.806 1355.53 133.487 1355.53 Q131.311 1355.53 129.042 1355.16 Q126.797 1354.79 124.39 1354.05 L124.39 1349.35 Q126.473 1350.49 128.695 1351.04 Q130.917 1351.6 133.394 1351.6 Q137.399 1351.6 139.737 1349.49 Q142.075 1347.38 142.075 1343.77 Q142.075 1340.16 139.737 1338.05 Q137.399 1335.95 133.394 1335.95 Q131.519 1335.95 129.644 1336.36 Q127.792 1336.78 125.848 1337.66 L125.848 1320.3 Z" fill="#000000" fill-rule="evenodd" fill-opacity="1" /><path clip-path="url(#clip560)" d="M79.6214 906.731 L97.9778 906.731 L97.9778 910.666 L83.9038 910.666 L83.9038 919.138 Q84.9223 918.791 85.9408 918.629 Q86.9593 918.444 87.9778 918.444 Q93.7649 918.444 97.1445 921.615 Q100.524 924.786 100.524 930.203 Q100.524 935.782 97.0519 938.883 Q93.5797 941.962 87.2603 941.962 Q85.0843 941.962 82.8158 941.592 Q80.5705 941.221 78.1631 940.481 L78.1631 935.782 Q80.2464 936.916 82.4686 937.471 Q84.6908 938.027 87.1677 938.027 Q91.1723 938.027 93.5102 935.921 Q95.8482 933.814 95.8482 930.203 Q95.8482 926.592 93.5102 924.485 Q91.1723 922.379 87.1677 922.379 Q85.2927 922.379 83.4177 922.796 Q81.5658 923.212 79.6214 924.092 L79.6214 906.731 Z" fill="#000000" fill-rule="evenodd" fill-opacity="1" /><path clip-path="url(#clip560)" d="M109.737 935.411 L114.621 935.411 L114.621 941.291 L109.737 941.291 L109.737 935.411 Z" fill="#000000" fill-rule="evenodd" fill-opacity="1" /><path clip-path="url(#clip560)" d="M134.806 909.81 Q131.195 909.81 129.367 913.374 Q127.561 916.916 127.561 924.046 Q127.561 931.152 129.367 934.717 Q131.195 938.258 134.806 938.258 Q138.441 938.258 140.246 934.717 Q142.075 931.152 142.075 924.046 Q142.075 916.916 140.246 913.374 Q138.441 909.81 134.806 909.81 M134.806 906.106 Q140.616 906.106 143.672 910.712 Q146.751 915.296 146.751 924.046 Q146.751 932.772 143.672 937.379 Q140.616 941.962 134.806 941.962 Q128.996 941.962 125.917 937.379 Q122.862 932.772 122.862 924.046 Q122.862 915.296 125.917 910.712 Q128.996 906.106 134.806 906.106 Z" fill="#000000" fill-rule="evenodd" fill-opacity="1" /><path clip-path="url(#clip560)" d="M79.3899 493.162 L101.612 493.162 L101.612 495.152 L89.0658 527.722 L84.1816 527.722 L95.9871 497.097 L79.3899 497.097 L79.3899 493.162 Z" fill="#000000" fill-rule="evenodd" fill-opacity="1" /><path clip-path="url(#clip560)" d="M110.732 521.842 L115.617 521.842 L115.617 527.722 L110.732 527.722 L110.732 521.842 Z" fill="#000000" fill-rule="evenodd" fill-opacity="1" /><path clip-path="url(#clip560)" d="M125.848 493.162 L144.204 493.162 L144.204 497.097 L130.13 497.097 L130.13 505.569 Q131.149 505.222 132.167 505.06 Q133.186 504.875 134.204 504.875 Q139.991 504.875 143.371 508.046 Q146.751 511.217 146.751 516.634 Q146.751 522.212 143.278 525.314 Q139.806 528.393 133.487 528.393 Q131.311 528.393 129.042 528.023 Q126.797 527.652 124.39 526.911 L124.39 522.212 Q126.473 523.347 128.695 523.902 Q130.917 524.458 133.394 524.458 Q137.399 524.458 139.737 522.351 Q142.075 520.245 142.075 516.634 Q142.075 513.023 139.737 510.916 Q137.399 508.81 133.394 508.81 Q131.519 508.81 129.644 509.226 Q127.792 509.643 125.848 510.523 L125.848 493.162 Z" fill="#000000" fill-rule="evenodd" fill-opacity="1" /><path clip-path="url(#clip560)" d="M50.2234 110.217 L57.8623 110.217 L57.8623 83.8517 L49.5521 85.5183 L49.5521 81.2591 L57.816 79.5924 L62.4919 79.5924 L62.4919 110.217 L70.1307 110.217 L70.1307 114.152 L50.2234 114.152 L50.2234 110.217 Z" fill="#000000" fill-rule="evenodd" fill-opacity="1" /><path clip-path="url(#clip560)" d="M89.5751 82.6711 Q85.964 82.6711 84.1353 86.2359 Q82.3297 89.7776 82.3297 96.9072 Q82.3297 104.014 84.1353 107.578 Q85.964 111.12 89.5751 111.12 Q93.2093 111.12 95.0148 107.578 Q96.8435 104.014 96.8435 96.9072 Q96.8435 89.7776 95.0148 86.2359 Q93.2093 82.6711 89.5751 82.6711 M89.5751 78.9675 Q95.3852 78.9675 98.4408 83.5739 Q101.519 88.1572 101.519 96.9072 Q101.519 105.634 98.4408 110.24 Q95.3852 114.824 89.5751 114.824 Q83.7649 114.824 80.6862 110.24 Q77.6307 105.634 77.6307 96.9072 Q77.6307 88.1572 80.6862 83.5739 Q83.7649 78.9675 89.5751 78.9675 Z" fill="#000000" fill-rule="evenodd" fill-opacity="1" /><path clip-path="url(#clip560)" d="M109.737 108.273 L114.621 108.273 L114.621 114.152 L109.737 114.152 L109.737 108.273 Z" fill="#000000" fill-rule="evenodd" fill-opacity="1" /><path clip-path="url(#clip560)" d="M134.806 82.6711 Q131.195 82.6711 129.367 86.2359 Q127.561 89.7776 127.561 96.9072 Q127.561 104.014 129.367 107.578 Q131.195 111.12 134.806 111.12 Q138.441 111.12 140.246 107.578 Q142.075 104.014 142.075 96.9072 Q142.075 89.7776 140.246 86.2359 Q138.441 82.6711 134.806 82.6711 M134.806 78.9675 Q140.616 78.9675 143.672 83.5739 Q146.751 88.1572 146.751 96.9072 Q146.751 105.634 143.672 110.24 Q140.616 114.824 134.806 114.824 Q128.996 114.824 125.917 110.24 Q122.862 105.634 122.862 96.9072 Q122.862 88.1572 125.917 83.5739 Q128.996 78.9675 134.806 78.9675 Z" fill="#000000" fill-rule="evenodd" fill-opacity="1" /><polyline clip-path="url(#clip562)" style="stroke:#009af9; stroke-linecap:butt; stroke-linejoin:round; stroke-width:4; stroke-opacity:1; fill:none" points="
  2571.31,1751.15 2571.3,1742.69 2571.25,1734.23 2569.34,1656.07 2564.78,1578.12 2560.76,1531.45 2555.79,1484.96 2550.84,1445.81 2545.22,1406.85 2530.7,1322.9 
  2514.53,1246.54 2504.78,1206.08 2494.28,1165.98 2481.19,1120.01 2467.12,1074.6 2439.72,995.412 2413.23,927.716 2381.79,855.949 2347.56,786.085 2306.78,711.78 
  2265.24,644.153 2219.33,577.229 2178.65,523.726 2126.6,462.096 2076.75,409.364 2029,363.956 1979.06,321.297 1921.38,277.608 1867.69,241.886 1836.39,223.127 
  1804.72,205.619 1775.09,190.536 1745.17,176.549 1715.43,163.84 1685.47,152.214 1656.17,141.969 1626.69,132.76 1596.31,124.399 1565.79,117.137 1532.2,110.449 
  1498.49,105.091 1449.35,99.6877 1400.1,97.1108 1389.98,96.932 1379.87,96.8724 
  "/>
<polyline clip-path="url(#clip562)" style="stroke:#e26f46; stroke-linecap:butt; stroke-linejoin:round; stroke-width:4; stroke-opacity:1; fill:none" points="
  1379.87,96.8724 1373.32,96.8975 1366.76,96.9726 1306.41,100.027 1246.54,107.303 1210.87,113.68 1175.47,121.545 1145.76,129.342 1116.3,138.179 1084.57,148.944 
  1053.16,160.908 1024.52,172.984 996.178,186.051 966.163,201.145 936.546,217.343 902.757,237.466 869.564,259.015 812.133,300.732 763.53,340.786 712.545,387.985 
  663.494,438.995 637.387,468.643 612.024,499.278 588.6,529.311 565.882,560.175 520.966,626.881 485.666,685.501 465.276,722.312 445.781,759.852 428.72,794.846 
  412.43,830.384 398.077,863.662 384.396,897.351 371.228,931.869 358.759,966.756 345.624,1006.26 333.38,1046.15 323.058,1082.6 313.476,1119.31 303.416,1161.63 
  294.331,1204.2 286.79,1243.82 280.088,1283.58 274.301,1322.9 269.329,1362.3 265.279,1400.61 261.994,1438.93 259.418,1478.2 257.64,1517.42 256.604,1560.31 
  256.515,1603.06 258.059,1664.85 261.564,1726.16 262.523,1738.67 263.563,1751.15 
  "/>
<polyline clip-path="url(#clip562)" style="stroke:#3da44d; stroke-linecap:butt; stroke-linejoin:round; stroke-width:4; stroke-opacity:1; fill:none" points="
  1379.87,1751.15 1379.87,1750.3 1379.86,1749.46 1379.86,1748.61 1379.85,1747.77 1379.6,1739.95 1379.08,1732.16 1378.31,1724.42 1377.26,1716.73 1375.67,1707.6 
  1373.7,1698.6 1371.75,1691.13 1369.55,1683.8 1366.87,1676.01 1363.9,1668.42 1360.92,1661.63 1357.7,1655.04 1354,1648.22 1350.06,1641.68 1345.19,1634.47 
  1340.02,1627.67 1337.63,1624.79 1335.18,1622 1332.69,1619.3 1330.14,1616.7 1325.56,1612.35 1320.83,1608.31 1315.53,1604.26 1310.09,1600.59 1304.49,1597.29 
  1298.78,1594.38 1295.57,1592.95 1292.34,1591.65 1289.09,1590.48 1285.81,1589.43 1282.67,1588.55 1279.51,1587.79 1276.35,1587.15 1273.17,1586.63 1269.85,1586.21 
  1266.53,1585.92 1263.2,1585.76 1259.88,1585.73 1254.28,1585.96 1248.69,1586.57 1245.29,1587.12 1241.91,1587.8 1238.54,1588.62 1235.18,1589.57 1229.1,1591.66 
  1223.1,1594.19 1217.66,1596.91 1212.31,1599.99 1207.02,1603.48 1201.85,1607.33 1196.23,1612.06 1190.81,1617.2 1186.07,1622.22 1181.53,1627.56 1176.57,1634.05 
  1171.88,1640.93 1167.8,1647.61 1163.98,1654.59 1160.48,1661.74 1157.26,1669.13 1154.4,1676.51 1151.81,1684.1 1149.45,1692.04 1147.38,1700.15 1145.48,1709.2 
  1143.94,1718.37 1143.07,1725.11 1142.39,1731.89 1141.92,1738.7 1141.65,1745.53 1141.62,1746.94 1141.6,1748.34 1141.59,1749.75 1141.58,1751.15 
  "/>
<polyline clip-path="url(#clip562)" style="stroke:#c271d2; stroke-linecap:butt; stroke-linejoin:round; stroke-width:4; stroke-opacity:1; fill:none" points="
  1379.87,1751.15 2571.31,1751.15 
  "/>
</svg>
