<?xml version="1.0" encoding="utf-8"?>
<svg xmlns="http://www.w3.org/2000/svg" xmlns:xlink="http://www.w3.org/1999/xlink" width="672" height="480" viewBox="0 0 2688 1920">
<defs>
  <clipPath id="clip200">
    <rect x="0" y="0" width="2688" height="1920"/>
  </clipPath>
</defs>
<path clip-path="url(#clip200)" d="
M0 1920 L2688 1920 L2688 0 L0 0  Z
  " fill="#ffffff" fill-rule="evenodd" fill-opacity="1"/>
<defs>
  <clipPath id="clip201">
    <rect x="537" y="0" width="1883" height="1883"/>
  </clipPath>
</defs>
<path clip-path="url(#clip200)" d="
M158.645 1800.78 L2640.76 1800.78 L2640.76 47.2441 L158.645 47.2441  Z
  " fill="#ffffff" fill-rule="evenodd" fill-opacity="1"/>
<defs>
  <clipPath id="clip202">
    <rect x="158" y="47" width="2483" height="1755"/>
  </clipPath>
</defs>
<polyline clip-path="url(#clip202)" style="stroke:#000000; stroke-linecap:round; stroke-linejoin:round; stroke-width:2; stroke-opacity:0.1; fill:none" points="
  228.893,1800.78 228.893,47.2441 
  "/>
<polyline clip-path="url(#clip202)" style="stroke:#000000; stroke-linecap:round; stroke-linejoin:round; stroke-width:2; stroke-opacity:0.1; fill:none" points="
  814.297,1800.78 814.297,47.2441 
  "/>
<polyline clip-path="url(#clip202)" style="stroke:#000000; stroke-linecap:round; stroke-linejoin:round; stroke-width:2; stroke-opacity:0.1; fill:none" points="
  1399.7,1800.78 1399.7,47.2441 
  "/>
<polyline clip-path="url(#clip202)" style="stroke:#000000; stroke-linecap:round; stroke-linejoin:round; stroke-width:2; stroke-opacity:0.1; fill:none" points="
  1985.1,1800.78 1985.1,47.2441 
  "/>
<polyline clip-path="url(#clip202)" style="stroke:#000000; stroke-linecap:round; stroke-linejoin:round; stroke-width:2; stroke-opacity:0.1; fill:none" points="
  2570.51,1800.78 2570.51,47.2441 
  "/>
<polyline clip-path="url(#clip200)" style="stroke:#000000; stroke-linecap:round; stroke-linejoin:round; stroke-width:4; stroke-opacity:1; fill:none" points="
  158.645,1800.78 2640.76,1800.78 
  "/>
<polyline clip-path="url(#clip200)" style="stroke:#000000; stroke-linecap:round; stroke-linejoin:round; stroke-width:4; stroke-opacity:1; fill:none" points="
  228.893,1800.78 228.893,1781.88 
  "/>
<polyline clip-path="url(#clip200)" style="stroke:#000000; stroke-linecap:round; stroke-linejoin:round; stroke-width:4; stroke-opacity:1; fill:none" points="
  814.297,1800.78 814.297,1781.88 
  "/>
<polyline clip-path="url(#clip200)" style="stroke:#000000; stroke-linecap:round; stroke-linejoin:round; stroke-width:4; stroke-opacity:1; fill:none" points="
  1399.7,1800.78 1399.7,1781.88 
  "/>
<polyline clip-path="url(#clip200)" style="stroke:#000000; stroke-linecap:round; stroke-linejoin:round; stroke-width:4; stroke-opacity:1; fill:none" points="
  1985.1,1800.78 1985.1,1781.88 
  "/>
<polyline clip-path="url(#clip200)" style="stroke:#000000; stroke-linecap:round; stroke-linejoin:round; stroke-width:4; stroke-opacity:1; fill:none" points="
  2570.51,1800.78 2570.51,1781.88 
  "/>
<path clip-path="url(#clip200)" d="M198.836 1848.65 L228.511 1848.65 L228.511 1852.59 L198.836 1852.59 L198.836 1848.65 Z" fill="#000000" fill-rule="evenodd" fill-opacity="1" /><path clip-path="url(#clip200)" d="M242.632 1861.55 L258.951 1861.55 L258.951 1865.48 L237.007 1865.48 L237.007 1861.55 Q239.669 1858.79 244.252 1854.16 Q248.859 1849.51 250.039 1848.17 Q252.284 1845.65 253.164 1843.91 Q254.067 1842.15 254.067 1840.46 Q254.067 1837.71 252.122 1835.97 Q250.201 1834.23 247.099 1834.23 Q244.9 1834.23 242.446 1835 Q240.016 1835.76 237.238 1837.31 L237.238 1832.59 Q240.062 1831.46 242.516 1830.88 Q244.97 1830.3 247.007 1830.3 Q252.377 1830.3 255.571 1832.98 Q258.766 1835.67 258.766 1840.16 Q258.766 1842.29 257.956 1844.21 Q257.169 1846.11 255.062 1848.7 Q254.483 1849.37 251.382 1852.59 Q248.28 1855.78 242.632 1861.55 Z" fill="#000000" fill-rule="evenodd" fill-opacity="1" /><path clip-path="url(#clip200)" d="M784.054 1848.65 L813.73 1848.65 L813.73 1852.59 L784.054 1852.59 L784.054 1848.65 Z" fill="#000000" fill-rule="evenodd" fill-opacity="1" /><path clip-path="url(#clip200)" d="M824.632 1861.55 L832.271 1861.55 L832.271 1835.18 L823.961 1836.85 L823.961 1832.59 L832.225 1830.92 L836.901 1830.92 L836.901 1861.55 L844.54 1861.55 L844.54 1865.48 L824.632 1865.48 L824.632 1861.55 Z" fill="#000000" fill-rule="evenodd" fill-opacity="1" /><path clip-path="url(#clip200)" d="M1399.7 1834 Q1396.09 1834 1394.26 1837.57 Q1392.46 1841.11 1392.46 1848.24 Q1392.46 1855.34 1394.26 1858.91 Q1396.09 1862.45 1399.7 1862.45 Q1403.33 1862.45 1405.14 1858.91 Q1406.97 1855.34 1406.97 1848.24 Q1406.97 1841.11 1405.14 1837.57 Q1403.33 1834 1399.7 1834 M1399.7 1830.3 Q1405.51 1830.3 1408.57 1834.9 Q1411.64 1839.49 1411.64 1848.24 Q1411.64 1856.96 1408.57 1861.57 Q1405.51 1866.15 1399.7 1866.15 Q1393.89 1866.15 1390.81 1861.57 Q1387.76 1856.96 1387.76 1848.24 Q1387.76 1839.49 1390.81 1834.9 Q1393.89 1830.3 1399.7 1830.3 Z" fill="#000000" fill-rule="evenodd" fill-opacity="1" /><path clip-path="url(#clip200)" d="M1975.49 1861.55 L1983.12 1861.55 L1983.12 1835.18 L1974.81 1836.85 L1974.81 1832.59 L1983.08 1830.92 L1987.75 1830.92 L1987.75 1861.55 L1995.39 1861.55 L1995.39 1865.48 L1975.49 1865.48 L1975.49 1861.55 Z" fill="#000000" fill-rule="evenodd" fill-opacity="1" /><path clip-path="url(#clip200)" d="M2565.16 1861.55 L2581.48 1861.55 L2581.48 1865.48 L2559.54 1865.48 L2559.54 1861.55 Q2562.2 1858.79 2566.78 1854.16 Q2571.39 1849.51 2572.57 1848.17 Q2574.81 1845.65 2575.69 1843.91 Q2576.6 1842.15 2576.6 1840.46 Q2576.6 1837.71 2574.65 1835.97 Q2572.73 1834.23 2569.63 1834.23 Q2567.43 1834.23 2564.98 1835 Q2562.54 1835.76 2559.77 1837.31 L2559.77 1832.59 Q2562.59 1831.46 2565.04 1830.88 Q2567.5 1830.3 2569.54 1830.3 Q2574.91 1830.3 2578.1 1832.98 Q2581.29 1835.67 2581.29 1840.16 Q2581.29 1842.29 2580.48 1844.21 Q2579.7 1846.11 2577.59 1848.7 Q2577.01 1849.37 2573.91 1852.59 Q2570.81 1855.78 2565.16 1861.55 Z" fill="#000000" fill-rule="evenodd" fill-opacity="1" /><polyline clip-path="url(#clip202)" style="stroke:#000000; stroke-linecap:round; stroke-linejoin:round; stroke-width:2; stroke-opacity:0.1; fill:none" points="
  158.645,1640.34 2640.76,1640.34 
  "/>
<polyline clip-path="url(#clip202)" style="stroke:#000000; stroke-linecap:round; stroke-linejoin:round; stroke-width:2; stroke-opacity:0.1; fill:none" points="
  158.645,1403.77 2640.76,1403.77 
  "/>
<polyline clip-path="url(#clip202)" style="stroke:#000000; stroke-linecap:round; stroke-linejoin:round; stroke-width:2; stroke-opacity:0.1; fill:none" points="
  158.645,1167.2 2640.76,1167.2 
  "/>
<polyline clip-path="url(#clip202)" style="stroke:#000000; stroke-linecap:round; stroke-linejoin:round; stroke-width:2; stroke-opacity:0.1; fill:none" points="
  158.645,930.635 2640.76,930.635 
  "/>
<polyline clip-path="url(#clip202)" style="stroke:#000000; stroke-linecap:round; stroke-linejoin:round; stroke-width:2; stroke-opacity:0.1; fill:none" points="
  158.645,694.066 2640.76,694.066 
  "/>
<polyline clip-path="url(#clip202)" style="stroke:#000000; stroke-linecap:round; stroke-linejoin:round; stroke-width:2; stroke-opacity:0.1; fill:none" points="
  158.645,457.497 2640.76,457.497 
  "/>
<polyline clip-path="url(#clip202)" style="stroke:#000000; stroke-linecap:round; stroke-linejoin:round; stroke-width:2; stroke-opacity:0.1; fill:none" points="
  158.645,220.927 2640.76,220.927 
  "/>
<polyline clip-path="url(#clip200)" style="stroke:#000000; stroke-linecap:round; stroke-linejoin:round; stroke-width:4; stroke-opacity:1; fill:none" points="
  158.645,1800.78 158.645,47.2441 
  "/>
<polyline clip-path="url(#clip200)" style="stroke:#000000; stroke-linecap:round; stroke-linejoin:round; stroke-width:4; stroke-opacity:1; fill:none" points="
  158.645,1640.34 177.543,1640.34 
  "/>
<polyline clip-path="url(#clip200)" style="stroke:#000000; stroke-linecap:round; stroke-linejoin:round; stroke-width:4; stroke-opacity:1; fill:none" points="
  158.645,1403.77 177.543,1403.77 
  "/>
<polyline clip-path="url(#clip200)" style="stroke:#000000; stroke-linecap:round; stroke-linejoin:round; stroke-width:4; stroke-opacity:1; fill:none" points="
  158.645,1167.2 177.543,1167.2 
  "/>
<polyline clip-path="url(#clip200)" style="stroke:#000000; stroke-linecap:round; stroke-linejoin:round; stroke-width:4; stroke-opacity:1; fill:none" points="
  158.645,930.635 177.543,930.635 
  "/>
<polyline clip-path="url(#clip200)" style="stroke:#000000; stroke-linecap:round; stroke-linejoin:round; stroke-width:4; stroke-opacity:1; fill:none" points="
  158.645,694.066 177.543,694.066 
  "/>
<polyline clip-path="url(#clip200)" style="stroke:#000000; stroke-linecap:round; stroke-linejoin:round; stroke-width:4; stroke-opacity:1; fill:none" points="
  158.645,457.497 177.543,457.497 
  "/>
<polyline clip-path="url(#clip200)" style="stroke:#000000; stroke-linecap:round; stroke-linejoin:round; stroke-width:4; stroke-opacity:1; fill:none" points="
  158.645,220.927 177.543,220.927 
  "/>
<path clip-path="url(#clip200)" d="M62.1447 1626.14 Q58.5336 1626.14 56.7049 1629.71 Q54.8993 1633.25 54.8993 1640.38 Q54.8993 1647.48 56.7049 1651.05 Q58.5336 1654.59 62.1447 1654.59 Q65.7789 1654.59 67.5844 1651.05 Q69.4131 1647.48 69.4131 1640.38 Q69.4131 1633.25 67.5844 1629.71 Q65.7789 1626.14 62.1447 1626.14 M62.1447 1622.44 Q67.9548 1622.44 71.0103 1627.04 Q74.089 1631.63 74.089 1640.38 Q74.089 1649.1 71.0103 1653.71 Q67.9548 1658.29 62.1447 1658.29 Q56.3345 1658.29 53.2558 1653.71 Q50.2003 1649.1 50.2003 1640.38 Q50.2003 1631.63 53.2558 1627.04 Q56.3345 1622.44 62.1447 1622.44 Z" fill="#000000" fill-rule="evenodd" fill-opacity="1" /><path clip-path="url(#clip200)" d="M82.3066 1651.74 L87.1908 1651.74 L87.1908 1657.62 L82.3066 1657.62 L82.3066 1651.74 Z" fill="#000000" fill-rule="evenodd" fill-opacity="1" /><path clip-path="url(#clip200)" d="M97.4222 1623.06 L115.779 1623.06 L115.779 1627 L101.705 1627 L101.705 1635.47 Q102.723 1635.12 103.742 1634.96 Q104.76 1634.78 105.779 1634.78 Q111.566 1634.78 114.945 1637.95 Q118.325 1641.12 118.325 1646.54 Q118.325 1652.11 114.853 1655.22 Q111.38 1658.29 105.061 1658.29 Q102.885 1658.29 100.617 1657.92 Q98.3713 1657.55 95.9639 1656.81 L95.9639 1652.11 Q98.0472 1653.25 100.269 1653.8 Q102.492 1654.36 104.968 1654.36 Q108.973 1654.36 111.311 1652.25 Q113.649 1650.15 113.649 1646.54 Q113.649 1642.92 111.311 1640.82 Q108.973 1638.71 104.968 1638.71 Q103.094 1638.71 101.219 1639.13 Q99.3667 1639.54 97.4222 1640.42 L97.4222 1623.06 Z" fill="#000000" fill-rule="evenodd" fill-opacity="1" /><path clip-path="url(#clip200)" d="M51.9595 1417.12 L59.5984 1417.12 L59.5984 1390.75 L51.2882 1392.42 L51.2882 1388.16 L59.5521 1386.49 L64.228 1386.49 L64.228 1417.12 L71.8668 1417.12 L71.8668 1421.05 L51.9595 1421.05 L51.9595 1417.12 Z" fill="#000000" fill-rule="evenodd" fill-opacity="1" /><path clip-path="url(#clip200)" d="M81.3112 1415.17 L86.1954 1415.17 L86.1954 1421.05 L81.3112 1421.05 L81.3112 1415.17 Z" fill="#000000" fill-rule="evenodd" fill-opacity="1" /><path clip-path="url(#clip200)" d="M106.381 1389.57 Q102.769 1389.57 100.941 1393.14 Q99.1352 1396.68 99.1352 1403.81 Q99.1352 1410.91 100.941 1414.48 Q102.769 1418.02 106.381 1418.02 Q110.015 1418.02 111.82 1414.48 Q113.649 1410.91 113.649 1403.81 Q113.649 1396.68 111.82 1393.14 Q110.015 1389.57 106.381 1389.57 M106.381 1385.87 Q112.191 1385.87 115.246 1390.48 Q118.325 1395.06 118.325 1403.81 Q118.325 1412.54 115.246 1417.14 Q112.191 1421.72 106.381 1421.72 Q100.57 1421.72 97.4917 1417.14 Q94.4361 1412.54 94.4361 1403.81 Q94.4361 1395.06 97.4917 1390.48 Q100.57 1385.87 106.381 1385.87 Z" fill="#000000" fill-rule="evenodd" fill-opacity="1" /><path clip-path="url(#clip200)" d="M52.9549 1180.55 L60.5937 1180.55 L60.5937 1154.18 L52.2836 1155.85 L52.2836 1151.59 L60.5474 1149.92 L65.2233 1149.92 L65.2233 1180.55 L72.8622 1180.55 L72.8622 1184.48 L52.9549 1184.48 L52.9549 1180.55 Z" fill="#000000" fill-rule="evenodd" fill-opacity="1" /><path clip-path="url(#clip200)" d="M82.3066 1178.6 L87.1908 1178.6 L87.1908 1184.48 L82.3066 1184.48 L82.3066 1178.6 Z" fill="#000000" fill-rule="evenodd" fill-opacity="1" /><path clip-path="url(#clip200)" d="M97.4222 1149.92 L115.779 1149.92 L115.779 1153.86 L101.705 1153.86 L101.705 1162.33 Q102.723 1161.98 103.742 1161.82 Q104.76 1161.64 105.779 1161.64 Q111.566 1161.64 114.945 1164.81 Q118.325 1167.98 118.325 1173.4 Q118.325 1178.98 114.853 1182.08 Q111.38 1185.16 105.061 1185.16 Q102.885 1185.16 100.617 1184.79 Q98.3713 1184.41 95.9639 1183.67 L95.9639 1178.98 Q98.0472 1180.11 100.269 1180.66 Q102.492 1181.22 104.968 1181.22 Q108.973 1181.22 111.311 1179.11 Q113.649 1177.01 113.649 1173.4 Q113.649 1169.79 111.311 1167.68 Q108.973 1165.57 104.968 1165.57 Q103.094 1165.57 101.219 1165.99 Q99.3667 1166.41 97.4222 1167.29 L97.4222 1149.92 Z" fill="#000000" fill-rule="evenodd" fill-opacity="1" /><path clip-path="url(#clip200)" d="M55.1771 943.98 L71.4965 943.98 L71.4965 947.915 L49.5521 947.915 L49.5521 943.98 Q52.2141 941.225 56.7975 936.596 Q61.4039 931.943 62.5845 930.6 Q64.8298 928.077 65.7094 926.341 Q66.6122 924.582 66.6122 922.892 Q66.6122 920.138 64.6678 918.401 Q62.7465 916.665 59.6447 916.665 Q57.4456 916.665 54.9919 917.429 Q52.5614 918.193 49.7836 919.744 L49.7836 915.022 Q52.6077 913.888 55.0614 913.309 Q57.515 912.73 59.5521 912.73 Q64.9224 912.73 68.1168 915.415 Q71.3113 918.1 71.3113 922.591 Q71.3113 924.721 70.5011 926.642 Q69.7141 928.54 67.6076 931.133 Q67.0289 931.804 63.927 935.022 Q60.8252 938.216 55.1771 943.98 Z" fill="#000000" fill-rule="evenodd" fill-opacity="1" /><path clip-path="url(#clip200)" d="M81.3112 942.036 L86.1954 942.036 L86.1954 947.915 L81.3112 947.915 L81.3112 942.036 Z" fill="#000000" fill-rule="evenodd" fill-opacity="1" /><path clip-path="url(#clip200)" d="M106.381 916.434 Q102.769 916.434 100.941 919.999 Q99.1352 923.54 99.1352 930.67 Q99.1352 937.776 100.941 941.341 Q102.769 944.883 106.381 944.883 Q110.015 944.883 111.82 941.341 Q113.649 937.776 113.649 930.67 Q113.649 923.54 111.82 919.999 Q110.015 916.434 106.381 916.434 M106.381 912.73 Q112.191 912.73 115.246 917.337 Q118.325 921.92 118.325 930.67 Q118.325 939.397 115.246 944.003 Q112.191 948.586 106.381 948.586 Q100.57 948.586 97.4917 944.003 Q94.4361 939.397 94.4361 930.67 Q94.4361 921.92 97.4917 917.337 Q100.57 912.73 106.381 912.73 Z" fill="#000000" fill-rule="evenodd" fill-opacity="1" /><path clip-path="url(#clip200)" d="M56.1725 707.411 L72.4918 707.411 L72.4918 711.346 L50.5475 711.346 L50.5475 707.411 Q53.2095 704.656 57.7928 700.026 Q62.3993 695.374 63.5798 694.031 Q65.8252 691.508 66.7048 689.772 Q67.6076 688.013 67.6076 686.323 Q67.6076 683.568 65.6632 681.832 Q63.7419 680.096 60.64 680.096 Q58.441 680.096 55.9873 680.86 Q53.5567 681.624 50.779 683.175 L50.779 678.453 Q53.603 677.318 56.0567 676.74 Q58.5104 676.161 60.5474 676.161 Q65.9178 676.161 69.1122 678.846 Q72.3066 681.531 72.3066 686.022 Q72.3066 688.152 71.4965 690.073 Q70.7094 691.971 68.6029 694.564 Q68.0242 695.235 64.9224 698.452 Q61.8206 701.647 56.1725 707.411 Z" fill="#000000" fill-rule="evenodd" fill-opacity="1" /><path clip-path="url(#clip200)" d="M82.3066 705.466 L87.1908 705.466 L87.1908 711.346 L82.3066 711.346 L82.3066 705.466 Z" fill="#000000" fill-rule="evenodd" fill-opacity="1" /><path clip-path="url(#clip200)" d="M97.4222 676.786 L115.779 676.786 L115.779 680.721 L101.705 680.721 L101.705 689.193 Q102.723 688.846 103.742 688.684 Q104.76 688.499 105.779 688.499 Q111.566 688.499 114.945 691.67 Q118.325 694.841 118.325 700.258 Q118.325 705.837 114.853 708.938 Q111.38 712.017 105.061 712.017 Q102.885 712.017 100.617 711.647 Q98.3713 711.276 95.9639 710.536 L95.9639 705.837 Q98.0472 706.971 100.269 707.526 Q102.492 708.082 104.968 708.082 Q108.973 708.082 111.311 705.976 Q113.649 703.869 113.649 700.258 Q113.649 696.647 111.311 694.54 Q108.973 692.434 104.968 692.434 Q103.094 692.434 101.219 692.851 Q99.3667 693.267 97.4222 694.147 L97.4222 676.786 Z" fill="#000000" fill-rule="evenodd" fill-opacity="1" /><path clip-path="url(#clip200)" d="M65.3159 456.142 Q68.6724 456.86 70.5474 459.129 Q72.4455 461.397 72.4455 464.73 Q72.4455 469.846 68.927 472.647 Q65.4085 475.448 58.9271 475.448 Q56.7512 475.448 54.4364 475.008 Q52.1447 474.591 49.691 473.735 L49.691 469.221 Q51.6354 470.355 53.9503 470.934 Q56.2651 471.513 58.7882 471.513 Q63.1863 471.513 65.478 469.777 Q67.7928 468.041 67.7928 464.73 Q67.7928 461.675 65.64 459.962 Q63.5104 458.226 59.691 458.226 L55.6632 458.226 L55.6632 454.383 L59.8761 454.383 Q63.3252 454.383 65.1539 453.017 Q66.9826 451.629 66.9826 449.036 Q66.9826 446.374 65.0845 444.962 Q63.2095 443.527 59.691 443.527 Q57.7697 443.527 55.5706 443.943 Q53.3715 444.36 50.7327 445.24 L50.7327 441.073 Q53.3947 440.332 55.7095 439.962 Q58.0475 439.592 60.1076 439.592 Q65.4317 439.592 68.5335 442.022 Q71.6353 444.43 71.6353 448.55 Q71.6353 451.42 69.9918 453.411 Q68.3483 455.379 65.3159 456.142 Z" fill="#000000" fill-rule="evenodd" fill-opacity="1" /><path clip-path="url(#clip200)" d="M81.3112 468.897 L86.1954 468.897 L86.1954 474.777 L81.3112 474.777 L81.3112 468.897 Z" fill="#000000" fill-rule="evenodd" fill-opacity="1" /><path clip-path="url(#clip200)" d="M106.381 443.295 Q102.769 443.295 100.941 446.86 Q99.1352 450.402 99.1352 457.531 Q99.1352 464.638 100.941 468.203 Q102.769 471.744 106.381 471.744 Q110.015 471.744 111.82 468.203 Q113.649 464.638 113.649 457.531 Q113.649 450.402 111.82 446.86 Q110.015 443.295 106.381 443.295 M106.381 439.592 Q112.191 439.592 115.246 444.198 Q118.325 448.781 118.325 457.531 Q118.325 466.258 115.246 470.865 Q112.191 475.448 106.381 475.448 Q100.57 475.448 97.4917 470.865 Q94.4361 466.258 94.4361 457.531 Q94.4361 448.781 97.4917 444.198 Q100.57 439.592 106.381 439.592 Z" fill="#000000" fill-rule="evenodd" fill-opacity="1" /><path clip-path="url(#clip200)" d="M66.3113 219.573 Q69.6678 220.291 71.5427 222.559 Q73.4409 224.828 73.4409 228.161 Q73.4409 233.277 69.9224 236.078 Q66.4039 238.879 59.9224 238.879 Q57.7465 238.879 55.4317 238.439 Q53.1401 238.022 50.6864 237.166 L50.6864 232.652 Q52.6308 233.786 54.9456 234.365 Q57.2604 234.943 59.7836 234.943 Q64.1817 234.943 66.4733 233.207 Q68.7881 231.471 68.7881 228.161 Q68.7881 225.106 66.6354 223.393 Q64.5057 221.656 60.6863 221.656 L56.6586 221.656 L56.6586 217.814 L60.8715 217.814 Q64.3206 217.814 66.1493 216.448 Q67.978 215.059 67.978 212.467 Q67.978 209.805 66.0798 208.393 Q64.2048 206.958 60.6863 206.958 Q58.765 206.958 56.566 207.374 Q54.3669 207.791 51.728 208.67 L51.728 204.504 Q54.3901 203.763 56.7049 203.393 Q59.0428 203.022 61.103 203.022 Q66.427 203.022 69.5289 205.453 Q72.6307 207.86 72.6307 211.981 Q72.6307 214.851 70.9872 216.842 Q69.3437 218.809 66.3113 219.573 Z" fill="#000000" fill-rule="evenodd" fill-opacity="1" /><path clip-path="url(#clip200)" d="M82.3066 232.328 L87.1908 232.328 L87.1908 238.207 L82.3066 238.207 L82.3066 232.328 Z" fill="#000000" fill-rule="evenodd" fill-opacity="1" /><path clip-path="url(#clip200)" d="M97.4222 203.647 L115.779 203.647 L115.779 207.583 L101.705 207.583 L101.705 216.055 Q102.723 215.707 103.742 215.545 Q104.76 215.36 105.779 215.36 Q111.566 215.36 114.945 218.532 Q118.325 221.703 118.325 227.119 Q118.325 232.698 114.853 235.8 Q111.38 238.879 105.061 238.879 Q102.885 238.879 100.617 238.508 Q98.3713 238.138 95.9639 237.397 L95.9639 232.698 Q98.0472 233.832 100.269 234.388 Q102.492 234.943 104.968 234.943 Q108.973 234.943 111.311 232.837 Q113.649 230.731 113.649 227.119 Q113.649 223.508 111.311 221.402 Q108.973 219.295 104.968 219.295 Q103.094 219.295 101.219 219.712 Q99.3667 220.129 97.4222 221.008 L97.4222 203.647 Z" fill="#000000" fill-rule="evenodd" fill-opacity="1" /><polyline clip-path="url(#clip202)" style="stroke:#009af9; stroke-linecap:round; stroke-linejoin:round; stroke-width:4; stroke-opacity:1; fill:none" points="
  228.893,96.8724 232.705,108.007 236.516,119.066 240.327,130.051 244.139,140.962 261.759,190.457 279.379,238.423 297,284.905 314.62,329.945 332.241,373.583 
  349.861,415.858 367.482,456.81 385.102,496.475 406.281,542.498 427.459,586.773 448.637,629.36 469.816,670.314 487.722,703.706 505.628,736 523.534,767.227 
  541.44,797.415 560.891,829.064 580.342,859.556 599.793,888.926 619.243,917.204 655.108,966.588 690.972,1012.55 710.197,1035.85 729.422,1058.23 748.647,1079.74 
  767.872,1100.38 790.146,1123.25 812.42,1145.04 834.694,1165.76 856.968,1185.45 896.558,1217.99 936.147,1247.52 970.863,1271.04 1005.58,1292.43 1043.43,1313.41 
  1081.28,1332.04 1119.35,1348.47 1157.43,1362.67 1199.53,1375.84 1241.62,1386.42 1281.68,1394.13 1321.73,1399.57 1363.38,1402.86 1405.02,1403.75 1440.08,1402.65 
  1475.14,1399.84 1517.94,1394.09 1560.74,1385.76 1599.95,1375.82 1639.16,1363.64 1675.37,1350.34 1711.58,1335.02 1748.27,1317.39 1784.95,1297.57 1826.06,1272.64 
  1867.17,1244.73 1904.42,1216.75 1941.67,1186.1 1963,1167.3 1984.33,1147.56 2005.65,1126.85 2026.98,1105.15 2046.72,1084.14 2066.47,1062.23 2086.22,1039.39 
  2105.96,1015.6 2125.43,991.182 2144.9,965.788 2164.36,939.386 2183.83,911.947 2202.73,884.286 2221.63,855.59 2240.53,825.829 2259.43,794.972 2278.81,762.169 
  2298.18,728.144 2317.56,692.861 2336.94,656.281 2358.16,614.666 2379.39,571.391 2400.62,526.399 2421.85,479.631 2437.27,444.514 2452.69,408.402 2468.11,371.272 
  2483.53,333.098 2498.94,293.852 2514.36,253.508 2529.78,212.037 2545.2,169.412 2551.53,151.581 2557.85,133.549 2564.18,115.314 2570.51,96.8724 
  "/>
<polyline clip-path="url(#clip202)" style="stroke:#e26f46; stroke-linecap:round; stroke-linejoin:round; stroke-width:4; stroke-opacity:1; fill:none" points="
  793.238,1751.15 800.316,1749.56 865.053,1733.99 903.266,1723.82 935.104,1714.73 969.138,1704.33 999.948,1694.25 1032.31,1682.9 1068.82,1669.06 1100.29,1656.15 
  1127.04,1644.35 1155.21,1631.01 1182.42,1617.11 1196.92,1609.24 1211.03,1601.24 1224.07,1593.53 1236.71,1585.72 1249.42,1577.51 1261.68,1569.23 1271.62,1562.21 
  1281.22,1555.16 1292.46,1546.52 1303.15,1537.88 1312.45,1529.97 1321.27,1522.08 1328.98,1514.85 1336.28,1507.67 1343.23,1500.48 1349.74,1493.39 1356.51,1485.58 
  1362.73,1477.95 1367.88,1471.22 1372.59,1464.68 1377.44,1457.45 1381.73,1450.55 1385.2,1444.47 1388.23,1438.72 1390.8,1433.4 1392.96,1428.45 1394.71,1424.03 
  1396.14,1420 1397.3,1416.29 1398.18,1413.04 1398.86,1410.01 1399.3,1407.56 1399.5,1406.16 1399.62,1405.08 1399.68,1404.32 1399.7,1403.88 1399.7,1403.84 
  1399.7,1403.8 1399.7,1403.78 1399.7,1403.77 
  "/>
<polyline clip-path="url(#clip202)" style="stroke:#3da44d; stroke-linecap:round; stroke-linejoin:round; stroke-width:4; stroke-opacity:1; fill:none" points="
  228.893,96.8724 793.238,1751.15 
  "/>
<polyline clip-path="url(#clip202)" style="stroke:#3da44d; stroke-linecap:round; stroke-linejoin:round; stroke-width:4; stroke-opacity:1; fill:none" points="
  799.301,1706.48 793.238,1751.15 761.14,1719.5 
  "/>
<polyline clip-path="url(#clip202)" style="stroke:#3da44d; stroke-linecap:round; stroke-linejoin:round; stroke-width:4; stroke-opacity:1; fill:none" points="
  793.238,1751.15 228.893,96.8724 
  "/>
<circle clip-path="url(#clip202)" cx="228.893" cy="96.8724" r="14.4" fill="#c271d2" fill-rule="evenodd" fill-opacity="1" stroke="#000000" stroke-opacity="1" stroke-width="3.84"/>
<polyline clip-path="url(#clip202)" style="stroke:#ac8d18; stroke-linecap:round; stroke-linejoin:round; stroke-width:4; stroke-opacity:1; fill:none" points="
  580.135,859.239 1098.42,1656.94 
  "/>
<polyline clip-path="url(#clip202)" style="stroke:#ac8d18; stroke-linecap:round; stroke-linejoin:round; stroke-width:4; stroke-opacity:1; fill:none" points="
  1093.36,1612.15 1098.42,1656.94 1059.55,1634.11 
  "/>
<polyline clip-path="url(#clip202)" style="stroke:#ac8d18; stroke-linecap:round; stroke-linejoin:round; stroke-width:4; stroke-opacity:1; fill:none" points="
  1098.42,1656.94 580.135,859.239 
  "/>
<circle clip-path="url(#clip202)" cx="580.135" cy="859.239" r="14.4" fill="#00a9ad" fill-rule="evenodd" fill-opacity="1" stroke="#000000" stroke-opacity="1" stroke-width="3.84"/>
<polyline clip-path="url(#clip202)" style="stroke:#ed5d92; stroke-linecap:round; stroke-linejoin:round; stroke-width:4; stroke-opacity:1; fill:none" points="
  931.378,1244.12 1320.11,1523.15 
  "/>
<polyline clip-path="url(#clip202)" style="stroke:#ed5d92; stroke-linecap:round; stroke-linejoin:round; stroke-width:4; stroke-opacity:1; fill:none" points="
  1299.11,1483.26 1320.11,1523.15 1275.6,1516.01 
  "/>
<polyline clip-path="url(#clip202)" style="stroke:#ed5d92; stroke-linecap:round; stroke-linejoin:round; stroke-width:4; stroke-opacity:1; fill:none" points="
  1320.11,1523.15 931.378,1244.12 
  "/>
<circle clip-path="url(#clip202)" cx="931.378" cy="1244.12" r="14.4" fill="#c68125" fill-rule="evenodd" fill-opacity="1" stroke="#000000" stroke-opacity="1" stroke-width="3.84"/>
<polyline clip-path="url(#clip202)" style="stroke:#00a98d; stroke-linecap:round; stroke-linejoin:round; stroke-width:4; stroke-opacity:1; fill:none" points="
  1282.62,1394.28 1398.16,1413.08 
  "/>
<polyline clip-path="url(#clip202)" style="stroke:#00a98d; stroke-linecap:round; stroke-linejoin:round; stroke-width:4; stroke-opacity:1; fill:none" points="
  1361.61,1386.71 1398.16,1413.08 1355.13,1426.5 
  "/>
<polyline clip-path="url(#clip202)" style="stroke:#00a98d; stroke-linecap:round; stroke-linejoin:round; stroke-width:4; stroke-opacity:1; fill:none" points="
  1398.16,1413.08 1282.62,1394.28 
  "/>
<circle clip-path="url(#clip202)" cx="1282.62" cy="1394.28" r="14.4" fill="#8e971d" fill-rule="evenodd" fill-opacity="1" stroke="#000000" stroke-opacity="1" stroke-width="3.84"/>
</svg>
