<?xml version="1.0" encoding="utf-8"?>
<svg xmlns="http://www.w3.org/2000/svg" xmlns:xlink="http://www.w3.org/1999/xlink" width="672" height="480" viewBox="0 0 2688 1920">
<defs>
  <clipPath id="clip360">
    <rect x="0" y="0" width="2688" height="1920"/>
  </clipPath>
</defs>
<path clip-path="url(#clip360)" d="
M0 1920 L2688 1920 L2688 0 L0 0  Z
  " fill="#ffffff" fill-rule="evenodd" fill-opacity="1"/>
<defs>
  <clipPath id="clip361">
    <rect x="537" y="0" width="1883" height="1883"/>
  </clipPath>
</defs>
<path clip-path="url(#clip360)" d="
M181.747 1800.78 L2640.76 1800.78 L2640.76 47.2441 L181.747 47.2441  Z
  " fill="#ffffff" fill-rule="evenodd" fill-opacity="1"/>
<defs>
  <clipPath id="clip362">
    <rect x="181" y="47" width="2460" height="1755"/>
  </clipPath>
</defs>
<polyline clip-path="url(#clip362)" style="stroke:#000000; stroke-linecap:butt; stroke-linejoin:round; stroke-width:2; stroke-opacity:0.1; fill:none" points="
  541.318,1800.78 541.318,47.2441 
  "/>
<polyline clip-path="url(#clip362)" style="stroke:#000000; stroke-linecap:butt; stroke-linejoin:round; stroke-width:2; stroke-opacity:0.1; fill:none" points="
  1121.27,1800.78 1121.27,47.2441 
  "/>
<polyline clip-path="url(#clip362)" style="stroke:#000000; stroke-linecap:butt; stroke-linejoin:round; stroke-width:2; stroke-opacity:0.1; fill:none" points="
  1701.23,1800.78 1701.23,47.2441 
  "/>
<polyline clip-path="url(#clip362)" style="stroke:#000000; stroke-linecap:butt; stroke-linejoin:round; stroke-width:2; stroke-opacity:0.1; fill:none" points="
  2281.18,1800.78 2281.18,47.2441 
  "/>
<polyline clip-path="url(#clip360)" style="stroke:#000000; stroke-linecap:butt; stroke-linejoin:round; stroke-width:4; stroke-opacity:1; fill:none" points="
  181.747,1800.78 2640.76,1800.78 
  "/>
<polyline clip-path="url(#clip360)" style="stroke:#000000; stroke-linecap:butt; stroke-linejoin:round; stroke-width:4; stroke-opacity:1; fill:none" points="
  541.318,1800.78 541.318,1781.88 
  "/>
<polyline clip-path="url(#clip360)" style="stroke:#000000; stroke-linecap:butt; stroke-linejoin:round; stroke-width:4; stroke-opacity:1; fill:none" points="
  1121.27,1800.78 1121.27,1781.88 
  "/>
<polyline clip-path="url(#clip360)" style="stroke:#000000; stroke-linecap:butt; stroke-linejoin:round; stroke-width:4; stroke-opacity:1; fill:none" points="
  1701.23,1800.78 1701.23,1781.88 
  "/>
<polyline clip-path="url(#clip360)" style="stroke:#000000; stroke-linecap:butt; stroke-linejoin:round; stroke-width:4; stroke-opacity:1; fill:none" points="
  2281.18,1800.78 2281.18,1781.88 
  "/>
<path clip-path="url(#clip360)" d="M495.381 1848.65 L525.057 1848.65 L525.057 1852.59 L495.381 1852.59 L495.381 1848.65 Z" fill="#000000" fill-rule="evenodd" fill-opacity="1" /><path clip-path="url(#clip360)" d="M549.316 1846.85 Q552.672 1847.57 554.547 1849.84 Q556.446 1852.1 556.446 1855.44 Q556.446 1860.55 552.927 1863.35 Q549.409 1866.15 542.927 1866.15 Q540.751 1866.15 538.436 1865.71 Q536.145 1865.3 533.691 1864.44 L533.691 1859.93 Q535.636 1861.06 537.95 1861.64 Q540.265 1862.22 542.788 1862.22 Q547.186 1862.22 549.478 1860.48 Q551.793 1858.75 551.793 1855.44 Q551.793 1852.38 549.64 1850.67 Q547.51 1848.93 543.691 1848.93 L539.663 1848.93 L539.663 1845.09 L543.876 1845.09 Q547.325 1845.09 549.154 1843.72 Q550.983 1842.34 550.983 1839.74 Q550.983 1837.08 549.085 1835.67 Q547.21 1834.23 543.691 1834.23 Q541.77 1834.23 539.571 1834.65 Q537.372 1835.07 534.733 1835.95 L534.733 1831.78 Q537.395 1831.04 539.71 1830.67 Q542.048 1830.3 544.108 1830.3 Q549.432 1830.3 552.534 1832.73 Q555.635 1835.14 555.635 1839.26 Q555.635 1842.13 553.992 1844.12 Q552.348 1846.09 549.316 1846.85 Z" fill="#000000" fill-rule="evenodd" fill-opacity="1" /><path clip-path="url(#clip360)" d="M575.311 1834 Q571.7 1834 569.871 1837.57 Q568.066 1841.11 568.066 1848.24 Q568.066 1855.34 569.871 1858.91 Q571.7 1862.45 575.311 1862.45 Q578.946 1862.45 580.751 1858.91 Q582.58 1855.34 582.58 1848.24 Q582.58 1841.11 580.751 1837.57 Q578.946 1834 575.311 1834 M575.311 1830.3 Q581.121 1830.3 584.177 1834.9 Q587.256 1839.49 587.256 1848.24 Q587.256 1856.96 584.177 1861.57 Q581.121 1866.15 575.311 1866.15 Q569.501 1866.15 566.422 1861.57 Q563.367 1856.96 563.367 1848.24 Q563.367 1839.49 566.422 1834.9 Q569.501 1830.3 575.311 1830.3 Z" fill="#000000" fill-rule="evenodd" fill-opacity="1" /><path clip-path="url(#clip360)" d="M1075.34 1848.65 L1105.01 1848.65 L1105.01 1852.59 L1075.34 1852.59 L1075.34 1848.65 Z" fill="#000000" fill-rule="evenodd" fill-opacity="1" /><path clip-path="url(#clip360)" d="M1119.13 1861.55 L1135.45 1861.55 L1135.45 1865.48 L1113.51 1865.48 L1113.51 1861.55 Q1116.17 1858.79 1120.75 1854.16 Q1125.36 1849.51 1126.54 1848.17 Q1128.79 1845.65 1129.66 1843.91 Q1130.57 1842.15 1130.57 1840.46 Q1130.57 1837.71 1128.62 1835.97 Q1126.7 1834.23 1123.6 1834.23 Q1121.4 1834.23 1118.95 1835 Q1116.52 1835.76 1113.74 1837.31 L1113.74 1832.59 Q1116.56 1831.46 1119.02 1830.88 Q1121.47 1830.3 1123.51 1830.3 Q1128.88 1830.3 1132.07 1832.98 Q1135.27 1835.67 1135.27 1840.16 Q1135.27 1842.29 1134.46 1844.21 Q1133.67 1846.11 1131.56 1848.7 Q1130.98 1849.37 1127.88 1852.59 Q1124.78 1855.78 1119.13 1861.55 Z" fill="#000000" fill-rule="evenodd" fill-opacity="1" /><path clip-path="url(#clip360)" d="M1155.27 1834 Q1151.66 1834 1149.83 1837.57 Q1148.02 1841.11 1148.02 1848.24 Q1148.02 1855.34 1149.83 1858.91 Q1151.66 1862.45 1155.27 1862.45 Q1158.9 1862.45 1160.71 1858.91 Q1162.53 1855.34 1162.53 1848.24 Q1162.53 1841.11 1160.71 1837.57 Q1158.9 1834 1155.27 1834 M1155.27 1830.3 Q1161.08 1830.3 1164.13 1834.9 Q1167.21 1839.49 1167.21 1848.24 Q1167.21 1856.96 1164.13 1861.57 Q1161.08 1866.15 1155.27 1866.15 Q1149.46 1866.15 1146.38 1861.57 Q1143.32 1856.96 1143.32 1848.24 Q1143.32 1839.49 1146.38 1834.9 Q1149.46 1830.3 1155.27 1830.3 Z" fill="#000000" fill-rule="evenodd" fill-opacity="1" /><path clip-path="url(#clip360)" d="M1655.29 1848.65 L1684.97 1848.65 L1684.97 1852.59 L1655.29 1852.59 L1655.29 1848.65 Z" fill="#000000" fill-rule="evenodd" fill-opacity="1" /><path clip-path="url(#clip360)" d="M1695.87 1861.55 L1703.51 1861.55 L1703.51 1835.18 L1695.2 1836.85 L1695.2 1832.59 L1703.46 1830.92 L1708.14 1830.92 L1708.14 1861.55 L1715.78 1861.55 L1715.78 1865.48 L1695.87 1865.48 L1695.87 1861.55 Z" fill="#000000" fill-rule="evenodd" fill-opacity="1" /><path clip-path="url(#clip360)" d="M1735.22 1834 Q1731.61 1834 1729.78 1837.57 Q1727.98 1841.11 1727.98 1848.24 Q1727.98 1855.34 1729.78 1858.91 Q1731.61 1862.45 1735.22 1862.45 Q1738.86 1862.45 1740.66 1858.91 Q1742.49 1855.34 1742.49 1848.24 Q1742.49 1841.11 1740.66 1837.57 Q1738.86 1834 1735.22 1834 M1735.22 1830.3 Q1741.03 1830.3 1744.09 1834.9 Q1747.17 1839.49 1747.17 1848.24 Q1747.17 1856.96 1744.09 1861.57 Q1741.03 1866.15 1735.22 1866.15 Q1729.41 1866.15 1726.33 1861.57 Q1723.28 1856.96 1723.28 1848.24 Q1723.28 1839.49 1726.33 1834.9 Q1729.41 1830.3 1735.22 1830.3 Z" fill="#000000" fill-rule="evenodd" fill-opacity="1" /><path clip-path="url(#clip360)" d="M2281.18 1834 Q2277.57 1834 2275.74 1837.57 Q2273.94 1841.11 2273.94 1848.24 Q2273.94 1855.34 2275.74 1858.91 Q2277.57 1862.45 2281.18 1862.45 Q2284.82 1862.45 2286.62 1858.91 Q2288.45 1855.34 2288.45 1848.24 Q2288.45 1841.11 2286.62 1837.57 Q2284.82 1834 2281.18 1834 M2281.18 1830.3 Q2286.99 1830.3 2290.05 1834.9 Q2293.13 1839.49 2293.13 1848.24 Q2293.13 1856.96 2290.05 1861.57 Q2286.99 1866.15 2281.18 1866.15 Q2275.37 1866.15 2272.29 1861.57 Q2269.24 1856.96 2269.24 1848.24 Q2269.24 1839.49 2272.29 1834.9 Q2275.37 1830.3 2281.18 1830.3 Z" fill="#000000" fill-rule="evenodd" fill-opacity="1" /><polyline clip-path="url(#clip362)" style="stroke:#000000; stroke-linecap:butt; stroke-linejoin:round; stroke-width:2; stroke-opacity:0.1; fill:none" points="
  181.747,1549.31 2640.76,1549.31 
  "/>
<polyline clip-path="url(#clip362)" style="stroke:#000000; stroke-linecap:butt; stroke-linejoin:round; stroke-width:2; stroke-opacity:0.1; fill:none" points="
  181.747,1236.67 2640.76,1236.67 
  "/>
<polyline clip-path="url(#clip362)" style="stroke:#000000; stroke-linecap:butt; stroke-linejoin:round; stroke-width:2; stroke-opacity:0.1; fill:none" points="
  181.747,924.03 2640.76,924.03 
  "/>
<polyline clip-path="url(#clip362)" style="stroke:#000000; stroke-linecap:butt; stroke-linejoin:round; stroke-width:2; stroke-opacity:0.1; fill:none" points="
  181.747,611.388 2640.76,611.388 
  "/>
<polyline clip-path="url(#clip362)" style="stroke:#000000; stroke-linecap:butt; stroke-linejoin:round; stroke-width:2; stroke-opacity:0.1; fill:none" points="
  181.747,298.746 2640.76,298.746 
  "/>
<polyline clip-path="url(#clip360)" style="stroke:#000000; stroke-linecap:butt; stroke-linejoin:round; stroke-width:4; stroke-opacity:1; fill:none" points="
  181.747,1800.78 181.747,47.2441 
  "/>
<polyline clip-path="url(#clip360)" style="stroke:#000000; stroke-linecap:butt; stroke-linejoin:round; stroke-width:4; stroke-opacity:1; fill:none" points="
  181.747,1549.31 200.644,1549.31 
  "/>
<polyline clip-path="url(#clip360)" style="stroke:#000000; stroke-linecap:butt; stroke-linejoin:round; stroke-width:4; stroke-opacity:1; fill:none" points="
  181.747,1236.67 200.644,1236.67 
  "/>
<polyline clip-path="url(#clip360)" style="stroke:#000000; stroke-linecap:butt; stroke-linejoin:round; stroke-width:4; stroke-opacity:1; fill:none" points="
  181.747,924.03 200.644,924.03 
  "/>
<polyline clip-path="url(#clip360)" style="stroke:#000000; stroke-linecap:butt; stroke-linejoin:round; stroke-width:4; stroke-opacity:1; fill:none" points="
  181.747,611.388 200.644,611.388 
  "/>
<polyline clip-path="url(#clip360)" style="stroke:#000000; stroke-linecap:butt; stroke-linejoin:round; stroke-width:4; stroke-opacity:1; fill:none" points="
  181.747,298.746 200.644,298.746 
  "/>
<path clip-path="url(#clip360)" d="M49.5521 1549.76 L79.2279 1549.76 L79.2279 1553.7 L49.5521 1553.7 L49.5521 1549.76 Z" fill="#000000" fill-rule="evenodd" fill-opacity="1" /><path clip-path="url(#clip360)" d="M90.1306 1562.66 L97.7695 1562.66 L97.7695 1536.29 L89.4593 1537.96 L89.4593 1533.7 L97.7232 1532.03 L102.399 1532.03 L102.399 1562.66 L110.038 1562.66 L110.038 1566.59 L90.1306 1566.59 L90.1306 1562.66 Z" fill="#000000" fill-rule="evenodd" fill-opacity="1" /><path clip-path="url(#clip360)" d="M129.482 1535.11 Q125.871 1535.11 124.042 1538.68 Q122.237 1542.22 122.237 1549.35 Q122.237 1556.45 124.042 1560.02 Q125.871 1563.56 129.482 1563.56 Q133.116 1563.56 134.922 1560.02 Q136.751 1556.45 136.751 1549.35 Q136.751 1542.22 134.922 1538.68 Q133.116 1535.11 129.482 1535.11 M129.482 1531.41 Q135.292 1531.41 138.348 1536.01 Q141.427 1540.6 141.427 1549.35 Q141.427 1558.07 138.348 1562.68 Q135.292 1567.26 129.482 1567.26 Q123.672 1567.26 120.593 1562.68 Q117.538 1558.07 117.538 1549.35 Q117.538 1540.6 120.593 1536.01 Q123.672 1531.41 129.482 1531.41 Z" fill="#000000" fill-rule="evenodd" fill-opacity="1" /><path clip-path="url(#clip360)" d="M80.7094 1237.12 L110.385 1237.12 L110.385 1241.06 L80.7094 1241.06 L80.7094 1237.12 Z" fill="#000000" fill-rule="evenodd" fill-opacity="1" /><path clip-path="url(#clip360)" d="M120.524 1219.39 L138.88 1219.39 L138.88 1223.33 L124.806 1223.33 L124.806 1231.8 Q125.825 1231.45 126.843 1231.29 Q127.862 1231.1 128.88 1231.1 Q134.667 1231.1 138.047 1234.28 Q141.427 1237.45 141.427 1242.86 Q141.427 1248.44 137.954 1251.54 Q134.482 1254.62 128.163 1254.62 Q125.987 1254.62 123.718 1254.25 Q121.473 1253.88 119.066 1253.14 L119.066 1248.44 Q121.149 1249.58 123.371 1250.13 Q125.593 1250.69 128.07 1250.69 Q132.075 1250.69 134.413 1248.58 Q136.751 1246.47 136.751 1242.86 Q136.751 1239.25 134.413 1237.15 Q132.075 1235.04 128.07 1235.04 Q126.195 1235.04 124.32 1235.46 Q122.468 1235.87 120.524 1236.75 L120.524 1219.39 Z" fill="#000000" fill-rule="evenodd" fill-opacity="1" /><path clip-path="url(#clip360)" d="M129.482 909.829 Q125.871 909.829 124.042 913.393 Q122.237 916.935 122.237 924.065 Q122.237 931.171 124.042 934.736 Q125.871 938.277 129.482 938.277 Q133.116 938.277 134.922 934.736 Q136.751 931.171 136.751 924.065 Q136.751 916.935 134.922 913.393 Q133.116 909.829 129.482 909.829 M129.482 906.125 Q135.292 906.125 138.348 910.731 Q141.427 915.315 141.427 924.065 Q141.427 932.791 138.348 937.398 Q135.292 941.981 129.482 941.981 Q123.672 941.981 120.593 937.398 Q117.538 932.791 117.538 924.065 Q117.538 915.315 120.593 910.731 Q123.672 906.125 129.482 906.125 Z" fill="#000000" fill-rule="evenodd" fill-opacity="1" /><path clip-path="url(#clip360)" d="M120.524 594.108 L138.88 594.108 L138.88 598.043 L124.806 598.043 L124.806 606.515 Q125.825 606.168 126.843 606.006 Q127.862 605.821 128.88 605.821 Q134.667 605.821 138.047 608.992 Q141.427 612.164 141.427 617.58 Q141.427 623.159 137.954 626.261 Q134.482 629.339 128.163 629.339 Q125.987 629.339 123.718 628.969 Q121.473 628.599 119.066 627.858 L119.066 623.159 Q121.149 624.293 123.371 624.849 Q125.593 625.404 128.07 625.404 Q132.075 625.404 134.413 623.298 Q136.751 621.191 136.751 617.58 Q136.751 613.969 134.413 611.863 Q132.075 609.756 128.07 609.756 Q126.195 609.756 124.32 610.173 Q122.468 610.59 120.524 611.469 L120.524 594.108 Z" fill="#000000" fill-rule="evenodd" fill-opacity="1" /><path clip-path="url(#clip360)" d="M90.1306 312.091 L97.7695 312.091 L97.7695 285.726 L89.4593 287.392 L89.4593 283.133 L97.7232 281.466 L102.399 281.466 L102.399 312.091 L110.038 312.091 L110.038 316.026 L90.1306 316.026 L90.1306 312.091 Z" fill="#000000" fill-rule="evenodd" fill-opacity="1" /><path clip-path="url(#clip360)" d="M129.482 284.545 Q125.871 284.545 124.042 288.11 Q122.237 291.652 122.237 298.781 Q122.237 305.888 124.042 309.452 Q125.871 312.994 129.482 312.994 Q133.116 312.994 134.922 309.452 Q136.751 305.888 136.751 298.781 Q136.751 291.652 134.922 288.11 Q133.116 284.545 129.482 284.545 M129.482 280.841 Q135.292 280.841 138.348 285.448 Q141.427 290.031 141.427 298.781 Q141.427 307.508 138.348 312.114 Q135.292 316.698 129.482 316.698 Q123.672 316.698 120.593 312.114 Q117.538 307.508 117.538 298.781 Q117.538 290.031 120.593 285.448 Q123.672 280.841 129.482 280.841 Z" fill="#000000" fill-rule="evenodd" fill-opacity="1" /><polyline clip-path="url(#clip362)" style="stroke:#009af9; stroke-linecap:butt; stroke-linejoin:round; stroke-width:4; stroke-opacity:1; fill:none" points="
  2571.16,924.03 2571.13,917.635 2571.02,911.24 2566.75,851.932 2556.26,791.887 2546.74,755.193 2534.56,717.878 2521.99,685.747 2507.13,652.996 2488.09,616.631 
  2465.66,579.353 2441.58,544.109 2413.76,507.975 2379.17,468.219 2338.86,427.423 2312.52,403.344 2283.73,378.972 2252.24,354.353 2217.77,329.55 2184.42,307.423 
  2148.25,285.298 2109.03,263.276 2066.49,241.486 2026.23,222.692 1983,204.329 1936.58,186.555 1886.75,169.559 1828.31,152.177 1765.29,136.332 1697.45,122.434 
  1624.58,110.967 1546.02,102.46 1462.13,97.6538 1418.2,96.8724 1372.96,97.3084 1326.46,99.0705 1278.74,102.273 1224.64,107.633 1169.24,115.063 1112.68,124.732 
  1055.12,136.811 996.788,151.467 937.917,168.865 878.796,189.161 819.75,212.495 763.973,237.632 708.945,265.718 655.049,296.816 602.692,330.959 552.306,368.148 
  504.342,408.345 459.26,451.471 417.52,497.405 378.151,547.96 343.371,601.125 313.632,656.604 289.335,714.053 279.335,743.397 270.817,773.084 263.812,803.06 
  258.344,833.269 254.435,863.655 252.097,894.158 251.341,924.719 252.169,955.279 257.129,1006.56 266.515,1057.39 280.229,1107.49 298.133,1156.6 320.046,1204.49 
  345.754,1250.91 375.011,1295.68 407.55,1338.62 451.305,1388.33 498.973,1434.88 549.992,1478.09 603.801,1517.87 659.851,1554.17 717.615,1587 776.6,1616.4 
  836.348,1642.45 891.393,1663.47 946.44,1681.88 1001.23,1697.8 1055.54,1711.34 1109.17,1722.66 1161.95,1731.87 1213.74,1739.12 1264.42,1744.55 1310.17,1748.05 
  1354.83,1750.22 1398.35,1751.15 1440.72,1750.94 1521.87,1747.43 1598.2,1740.39 1670.63,1730.25 1738.27,1717.65 1801.29,1703.03 1859.9,1686.82 1920.67,1667.16 
  1976.57,1646.31 2027.96,1624.6 2075.19,1602.29 2114.67,1581.74 2151.25,1561 2185.14,1540.18 2216.55,1519.36 2249.7,1495.6 2280.12,1472.01 2308.04,1448.64 
  2333.67,1425.53 2355.53,1404.39 2375.74,1383.52 2394.42,1362.92 2411.69,1342.6 2442.01,1303.35 2467.94,1265.15 2489.45,1229 2507.79,1193.7 2523.66,1158.32 
  2536.88,1123.65 2548.6,1086.37 2557.7,1049.69 2566.62,997.188 2570.78,945.264 2571.07,934.645 2571.16,924.03 
  "/>
<circle clip-path="url(#clip362)" cx="2281.18" cy="924.03" r="14.4" fill="#e26f46" fill-rule="evenodd" fill-opacity="1" stroke="#000000" stroke-opacity="1" stroke-width="3.84"/>
</svg>
