<?xml version="1.0" encoding="utf-8"?>
<svg xmlns="http://www.w3.org/2000/svg" xmlns:xlink="http://www.w3.org/1999/xlink" width="672" height="480" viewBox="0 0 2688 1920">
<defs>
  <clipPath id="clip340">
    <rect x="0" y="0" width="2688" height="1920"/>
  </clipPath>
</defs>
<path clip-path="url(#clip340)" d="
M0 1920 L2688 1920 L2688 0 L0 0  Z
  " fill="#ffffff" fill-rule="evenodd" fill-opacity="1"/>
<defs>
  <clipPath id="clip341">
    <rect x="537" y="0" width="1883" height="1883"/>
  </clipPath>
</defs>
<defs>
  <clipPath id="clip342">
    <rect x="159" y="47" width="2482" height="1755"/>
  </clipPath>
</defs>
<path clip-path="url(#clip342)" d="
M-929.404 -11107.7 L-929.404 -12052.8 L-636.319 -12525.3 L-128.679 -12252.5 L-128.679 -11307.4 L-421.765 -10834.9 L-929.404 -11107.7  Z
  " fill="#ffffff" fill-rule="evenodd" fill-opacity="1"/>
<polyline clip-path="url(#clip342)" style="stroke:#000000; stroke-linecap:round; stroke-linejoin:round; stroke-width:2; stroke-opacity:0.1; fill:none" points="
  719.177,1458.03 1225.38,1019.65 
  "/>
<polyline clip-path="url(#clip342)" style="stroke:#000000; stroke-linecap:round; stroke-linejoin:round; stroke-width:2; stroke-opacity:0.1; fill:none" points="
  1225.38,1019.65 1225.38,142.883 
  "/>
<polyline clip-path="url(#clip342)" style="stroke:#000000; stroke-linecap:round; stroke-linejoin:round; stroke-width:2; stroke-opacity:0.1; fill:none" points="
  972.997,1531.31 1479.2,1092.92 
  "/>
<polyline clip-path="url(#clip342)" style="stroke:#000000; stroke-linecap:round; stroke-linejoin:round; stroke-width:2; stroke-opacity:0.1; fill:none" points="
  1479.2,1092.92 1479.2,216.154 
  "/>
<polyline clip-path="url(#clip342)" style="stroke:#000000; stroke-linecap:round; stroke-linejoin:round; stroke-width:2; stroke-opacity:0.1; fill:none" points="
  1226.82,1604.58 1733.02,1166.19 
  "/>
<polyline clip-path="url(#clip342)" style="stroke:#000000; stroke-linecap:round; stroke-linejoin:round; stroke-width:2; stroke-opacity:0.1; fill:none" points="
  1733.02,1166.19 1733.02,289.426 
  "/>
<polyline clip-path="url(#clip342)" style="stroke:#000000; stroke-linecap:round; stroke-linejoin:round; stroke-width:2; stroke-opacity:0.1; fill:none" points="
  1480.64,1677.85 1986.84,1239.46 
  "/>
<polyline clip-path="url(#clip342)" style="stroke:#000000; stroke-linecap:round; stroke-linejoin:round; stroke-width:2; stroke-opacity:0.1; fill:none" points="
  1986.84,1239.46 1986.84,362.697 
  "/>
<polyline clip-path="url(#clip340)" style="stroke:#000000; stroke-linecap:round; stroke-linejoin:round; stroke-width:4; stroke-opacity:1; fill:none" points="
  708.794,1455.04 1585.56,1708.14 
  "/>
<polyline clip-path="url(#clip340)" style="stroke:#000000; stroke-linecap:round; stroke-linejoin:round; stroke-width:4; stroke-opacity:1; fill:none" points="
  719.177,1458.03 725.251,1452.77 
  "/>
<polyline clip-path="url(#clip340)" style="stroke:#000000; stroke-linecap:round; stroke-linejoin:round; stroke-width:4; stroke-opacity:1; fill:none" points="
  972.997,1531.31 979.071,1526.04 
  "/>
<polyline clip-path="url(#clip340)" style="stroke:#000000; stroke-linecap:round; stroke-linejoin:round; stroke-width:4; stroke-opacity:1; fill:none" points="
  1226.82,1604.58 1232.89,1599.32 
  "/>
<polyline clip-path="url(#clip340)" style="stroke:#000000; stroke-linecap:round; stroke-linejoin:round; stroke-width:4; stroke-opacity:1; fill:none" points="
  1480.64,1677.85 1486.71,1672.59 
  "/>
<path clip-path="url(#clip340)" d="M684 1499.79 L691.638 1499.79 L691.638 1473.43 L683.328 1475.09 L683.328 1470.83 L691.592 1469.17 L696.268 1469.17 L696.268 1499.79 L703.907 1499.79 L703.907 1503.73 L684 1503.73 L684 1499.79 Z" fill="#000000" fill-rule="evenodd" fill-opacity="1" /><path clip-path="url(#clip340)" d="M941.407 1573.06 L957.727 1573.06 L957.727 1577 L935.782 1577 L935.782 1573.06 Q938.444 1570.31 943.028 1565.68 Q947.634 1561.03 948.815 1559.68 Q951.06 1557.16 951.94 1555.42 Q952.842 1553.66 952.842 1551.98 Q952.842 1549.22 950.898 1547.48 Q948.977 1545.75 945.875 1545.75 Q943.676 1545.75 941.222 1546.51 Q938.791 1547.28 936.014 1548.83 L936.014 1544.1 Q938.838 1542.97 941.291 1542.39 Q943.745 1541.81 945.782 1541.81 Q951.153 1541.81 954.347 1544.5 Q957.541 1547.18 957.541 1551.67 Q957.541 1553.8 956.731 1555.73 Q955.944 1557.62 953.838 1560.22 Q953.259 1560.89 950.157 1564.1 Q947.055 1567.3 941.407 1573.06 Z" fill="#000000" fill-rule="evenodd" fill-opacity="1" /><path clip-path="url(#clip340)" d="M1204.42 1631.64 Q1207.77 1632.35 1209.65 1634.62 Q1211.55 1636.89 1211.55 1640.22 Q1211.55 1645.34 1208.03 1648.14 Q1204.51 1650.94 1198.03 1650.94 Q1195.85 1650.94 1193.54 1650.5 Q1191.25 1650.08 1188.79 1649.23 L1188.79 1644.71 Q1190.74 1645.85 1193.05 1646.43 Q1195.37 1647.01 1197.89 1647.01 Q1202.29 1647.01 1204.58 1645.27 Q1206.89 1643.53 1206.89 1640.22 Q1206.89 1637.17 1204.74 1635.45 Q1202.61 1633.72 1198.79 1633.72 L1194.76 1633.72 L1194.76 1629.88 L1198.98 1629.88 Q1202.43 1629.88 1204.25 1628.51 Q1206.08 1627.12 1206.08 1624.53 Q1206.08 1621.87 1204.19 1620.45 Q1202.31 1619.02 1198.79 1619.02 Q1196.87 1619.02 1194.67 1619.44 Q1192.47 1619.85 1189.83 1620.73 L1189.83 1616.57 Q1192.5 1615.83 1194.81 1615.45 Q1197.15 1615.08 1199.21 1615.08 Q1204.53 1615.08 1207.63 1617.52 Q1210.74 1619.92 1210.74 1624.04 Q1210.74 1626.91 1209.09 1628.9 Q1207.45 1630.87 1204.42 1631.64 Z" fill="#000000" fill-rule="evenodd" fill-opacity="1" /><path clip-path="url(#clip340)" d="M1455.78 1693.06 L1443.98 1711.5 L1455.78 1711.5 L1455.78 1693.06 M1454.56 1688.98 L1460.44 1688.98 L1460.44 1711.5 L1465.37 1711.5 L1465.37 1715.39 L1460.44 1715.39 L1460.44 1723.54 L1455.78 1723.54 L1455.78 1715.39 L1440.18 1715.39 L1440.18 1710.88 L1454.56 1688.98 Z" fill="#000000" fill-rule="evenodd" fill-opacity="1" /><polyline clip-path="url(#clip342)" style="stroke:#000000; stroke-linecap:round; stroke-linejoin:round; stroke-width:2; stroke-opacity:0.1; fill:none" points="
  1657.62,1645.73 780.857,1392.63 
  "/>
<polyline clip-path="url(#clip342)" style="stroke:#000000; stroke-linecap:round; stroke-linejoin:round; stroke-width:2; stroke-opacity:0.1; fill:none" points="
  780.857,1392.63 780.857,515.861 
  "/>
<polyline clip-path="url(#clip342)" style="stroke:#000000; stroke-linecap:round; stroke-linejoin:round; stroke-width:2; stroke-opacity:0.1; fill:none" points="
  1794.04,1527.59 917.269,1274.49 
  "/>
<polyline clip-path="url(#clip342)" style="stroke:#000000; stroke-linecap:round; stroke-linejoin:round; stroke-width:2; stroke-opacity:0.1; fill:none" points="
  917.269,1274.49 917.269,397.725 
  "/>
<polyline clip-path="url(#clip342)" style="stroke:#000000; stroke-linecap:round; stroke-linejoin:round; stroke-width:2; stroke-opacity:0.1; fill:none" points="
  1930.45,1409.46 1053.68,1156.36 
  "/>
<polyline clip-path="url(#clip342)" style="stroke:#000000; stroke-linecap:round; stroke-linejoin:round; stroke-width:2; stroke-opacity:0.1; fill:none" points="
  1053.68,1156.36 1053.68,279.589 
  "/>
<polyline clip-path="url(#clip342)" style="stroke:#000000; stroke-linecap:round; stroke-linejoin:round; stroke-width:2; stroke-opacity:0.1; fill:none" points="
  2066.86,1291.32 1190.09,1038.22 
  "/>
<polyline clip-path="url(#clip342)" style="stroke:#000000; stroke-linecap:round; stroke-linejoin:round; stroke-width:2; stroke-opacity:0.1; fill:none" points="
  1190.09,1038.22 1190.09,161.453 
  "/>
<polyline clip-path="url(#clip340)" style="stroke:#000000; stroke-linecap:round; stroke-linejoin:round; stroke-width:4; stroke-opacity:1; fill:none" points="
  1585.56,1708.14 2091.76,1269.75 
  "/>
<polyline clip-path="url(#clip340)" style="stroke:#000000; stroke-linecap:round; stroke-linejoin:round; stroke-width:4; stroke-opacity:1; fill:none" points="
  1657.62,1645.73 1647.1,1642.69 
  "/>
<polyline clip-path="url(#clip340)" style="stroke:#000000; stroke-linecap:round; stroke-linejoin:round; stroke-width:4; stroke-opacity:1; fill:none" points="
  1794.04,1527.59 1783.52,1524.56 
  "/>
<polyline clip-path="url(#clip340)" style="stroke:#000000; stroke-linecap:round; stroke-linejoin:round; stroke-width:4; stroke-opacity:1; fill:none" points="
  1930.45,1409.46 1919.93,1406.42 
  "/>
<polyline clip-path="url(#clip340)" style="stroke:#000000; stroke-linecap:round; stroke-linejoin:round; stroke-width:4; stroke-opacity:1; fill:none" points="
  2066.86,1291.32 2056.34,1288.28 
  "/>
<path clip-path="url(#clip340)" d="M1685.04 1663.18 L1714.71 1663.18 L1714.71 1667.12 L1685.04 1667.12 L1685.04 1663.18 Z" fill="#000000" fill-rule="evenodd" fill-opacity="1" /><path clip-path="url(#clip340)" d="M1725.61 1676.08 L1733.25 1676.08 L1733.25 1649.71 L1724.94 1651.38 L1724.94 1647.12 L1733.21 1645.45 L1737.88 1645.45 L1737.88 1676.08 L1745.52 1676.08 L1745.52 1680.01 L1725.61 1680.01 L1725.61 1676.08 Z" fill="#000000" fill-rule="evenodd" fill-opacity="1" /><path clip-path="url(#clip340)" d="M1767.81 1649.53 L1756.01 1667.97 L1767.81 1667.97 L1767.81 1649.53 M1766.59 1645.45 L1772.47 1645.45 L1772.47 1667.97 L1777.4 1667.97 L1777.4 1671.86 L1772.47 1671.86 L1772.47 1680.01 L1767.81 1680.01 L1767.81 1671.86 L1752.21 1671.86 L1752.21 1667.35 L1766.59 1645.45 Z" fill="#000000" fill-rule="evenodd" fill-opacity="1" /><path clip-path="url(#clip340)" d="M1785.13 1674.13 L1790.01 1674.13 L1790.01 1680.01 L1785.13 1680.01 L1785.13 1674.13 Z" fill="#000000" fill-rule="evenodd" fill-opacity="1" /><path clip-path="url(#clip340)" d="M1810.2 1648.53 Q1806.59 1648.53 1804.76 1652.09 Q1802.95 1655.64 1802.95 1662.77 Q1802.95 1669.87 1804.76 1673.44 Q1806.59 1676.98 1810.2 1676.98 Q1813.83 1676.98 1815.64 1673.44 Q1817.47 1669.87 1817.47 1662.77 Q1817.47 1655.64 1815.64 1652.09 Q1813.83 1648.53 1810.2 1648.53 M1810.2 1644.83 Q1816.01 1644.83 1819.06 1649.43 Q1822.14 1654.02 1822.14 1662.77 Q1822.14 1671.49 1819.06 1676.1 Q1816.01 1680.68 1810.2 1680.68 Q1804.39 1680.68 1801.31 1676.1 Q1798.25 1671.49 1798.25 1662.77 Q1798.25 1654.02 1801.31 1649.43 Q1804.39 1644.83 1810.2 1644.83 Z" fill="#000000" fill-rule="evenodd" fill-opacity="1" /><path clip-path="url(#clip340)" d="M1821.45 1545.05 L1851.12 1545.05 L1851.12 1548.98 L1821.45 1548.98 L1821.45 1545.05 Z" fill="#000000" fill-rule="evenodd" fill-opacity="1" /><path clip-path="url(#clip340)" d="M1862.03 1557.94 L1869.67 1557.94 L1869.67 1531.57 L1861.36 1533.24 L1861.36 1528.98 L1869.62 1527.32 L1874.29 1527.32 L1874.29 1557.94 L1881.93 1557.94 L1881.93 1561.88 L1862.03 1561.88 L1862.03 1557.94 Z" fill="#000000" fill-rule="evenodd" fill-opacity="1" /><path clip-path="url(#clip340)" d="M1905.54 1543.24 Q1908.9 1543.96 1910.78 1546.23 Q1912.67 1548.5 1912.67 1551.83 Q1912.67 1556.94 1909.16 1559.75 Q1905.64 1562.55 1899.16 1562.55 Q1896.98 1562.55 1894.67 1562.11 Q1892.37 1561.69 1889.92 1560.83 L1889.92 1556.32 Q1891.86 1557.45 1894.18 1558.03 Q1896.49 1558.61 1899.02 1558.61 Q1903.42 1558.61 1905.71 1556.88 Q1908.02 1555.14 1908.02 1551.83 Q1908.02 1548.77 1905.87 1547.06 Q1903.74 1545.32 1899.92 1545.32 L1895.89 1545.32 L1895.89 1541.48 L1900.1 1541.48 Q1903.55 1541.48 1905.38 1540.12 Q1907.21 1538.73 1907.21 1536.13 Q1907.21 1533.47 1905.31 1532.06 Q1903.44 1530.63 1899.92 1530.63 Q1898 1530.63 1895.8 1531.04 Q1893.6 1531.46 1890.96 1532.34 L1890.96 1528.17 Q1893.62 1527.43 1895.94 1527.06 Q1898.28 1526.69 1900.34 1526.69 Q1905.66 1526.69 1908.76 1529.12 Q1911.86 1531.53 1911.86 1535.65 Q1911.86 1538.52 1910.22 1540.51 Q1908.58 1542.48 1905.54 1543.24 Z" fill="#000000" fill-rule="evenodd" fill-opacity="1" /><path clip-path="url(#clip340)" d="M1921.54 1556 L1926.42 1556 L1926.42 1561.88 L1921.54 1561.88 L1921.54 1556 Z" fill="#000000" fill-rule="evenodd" fill-opacity="1" /><path clip-path="url(#clip340)" d="M1936.66 1527.32 L1955.01 1527.32 L1955.01 1531.25 L1940.94 1531.25 L1940.94 1539.72 Q1941.96 1539.38 1942.98 1539.21 Q1943.99 1539.03 1945.01 1539.03 Q1950.8 1539.03 1954.18 1542.2 Q1957.56 1545.37 1957.56 1550.79 Q1957.56 1556.37 1954.09 1559.47 Q1950.61 1562.55 1944.29 1562.55 Q1942.12 1562.55 1939.85 1562.18 Q1937.6 1561.81 1935.2 1561.07 L1935.2 1556.37 Q1937.28 1557.5 1939.5 1558.06 Q1941.73 1558.61 1944.2 1558.61 Q1948.21 1558.61 1950.54 1556.5 Q1952.88 1554.4 1952.88 1550.79 Q1952.88 1547.18 1950.54 1545.07 Q1948.21 1542.96 1944.2 1542.96 Q1942.33 1542.96 1940.45 1543.38 Q1938.6 1543.8 1936.66 1544.68 L1936.66 1527.32 Z" fill="#000000" fill-rule="evenodd" fill-opacity="1" /><path clip-path="url(#clip340)" d="M1957.86 1426.91 L1987.54 1426.91 L1987.54 1430.85 L1957.86 1430.85 L1957.86 1426.91 Z" fill="#000000" fill-rule="evenodd" fill-opacity="1" /><path clip-path="url(#clip340)" d="M1998.44 1439.8 L2006.08 1439.8 L2006.08 1413.44 L1997.77 1415.1 L1997.77 1410.85 L2006.03 1409.18 L2010.71 1409.18 L2010.71 1439.8 L2018.35 1439.8 L2018.35 1443.74 L1998.44 1443.74 L1998.44 1439.8 Z" fill="#000000" fill-rule="evenodd" fill-opacity="1" /><path clip-path="url(#clip340)" d="M2041.96 1425.1 Q2045.31 1425.82 2047.19 1428.09 Q2049.09 1430.36 2049.09 1433.69 Q2049.09 1438.81 2045.57 1441.61 Q2042.05 1444.41 2035.57 1444.41 Q2033.39 1444.41 2031.08 1443.97 Q2028.79 1443.55 2026.33 1442.7 L2026.33 1438.18 Q2028.28 1439.32 2030.59 1439.9 Q2032.91 1440.48 2035.43 1440.48 Q2039.83 1440.48 2042.12 1438.74 Q2044.43 1437 2044.43 1433.69 Q2044.43 1430.64 2042.28 1428.92 Q2040.15 1427.19 2036.33 1427.19 L2032.3 1427.19 L2032.3 1423.35 L2036.52 1423.35 Q2039.97 1423.35 2041.79 1421.98 Q2043.62 1420.59 2043.62 1418 Q2043.62 1415.34 2041.73 1413.92 Q2039.85 1412.49 2036.33 1412.49 Q2034.41 1412.49 2032.21 1412.91 Q2030.01 1413.32 2027.37 1414.2 L2027.37 1410.04 Q2030.04 1409.29 2032.35 1408.92 Q2034.69 1408.55 2036.75 1408.55 Q2042.07 1408.55 2045.17 1410.98 Q2048.28 1413.39 2048.28 1417.51 Q2048.28 1420.38 2046.63 1422.37 Q2044.99 1424.34 2041.96 1425.1 Z" fill="#000000" fill-rule="evenodd" fill-opacity="1" /><path clip-path="url(#clip340)" d="M2057.95 1437.86 L2062.84 1437.86 L2062.84 1443.74 L2057.95 1443.74 L2057.95 1437.86 Z" fill="#000000" fill-rule="evenodd" fill-opacity="1" /><path clip-path="url(#clip340)" d="M2083.02 1412.26 Q2079.41 1412.26 2077.58 1415.82 Q2075.78 1419.36 2075.78 1426.49 Q2075.78 1433.6 2077.58 1437.16 Q2079.41 1440.71 2083.02 1440.71 Q2086.66 1440.71 2088.46 1437.16 Q2090.29 1433.6 2090.29 1426.49 Q2090.29 1419.36 2088.46 1415.82 Q2086.66 1412.26 2083.02 1412.26 M2083.02 1408.55 Q2088.83 1408.55 2091.89 1413.16 Q2094.97 1417.74 2094.97 1426.49 Q2094.97 1435.22 2091.89 1439.83 Q2088.83 1444.41 2083.02 1444.41 Q2077.21 1444.41 2074.13 1439.83 Q2071.08 1435.22 2071.08 1426.49 Q2071.08 1417.74 2074.13 1413.16 Q2077.21 1408.55 2083.02 1408.55 Z" fill="#000000" fill-rule="evenodd" fill-opacity="1" /><path clip-path="url(#clip340)" d="M2094.27 1308.77 L2123.95 1308.77 L2123.95 1312.71 L2094.27 1312.71 L2094.27 1308.77 Z" fill="#000000" fill-rule="evenodd" fill-opacity="1" /><path clip-path="url(#clip340)" d="M2134.85 1321.67 L2142.49 1321.67 L2142.49 1295.3 L2134.18 1296.97 L2134.18 1292.71 L2142.44 1291.04 L2147.12 1291.04 L2147.12 1321.67 L2154.76 1321.67 L2154.76 1325.6 L2134.85 1325.6 L2134.85 1321.67 Z" fill="#000000" fill-rule="evenodd" fill-opacity="1" /><path clip-path="url(#clip340)" d="M2168.23 1321.67 L2184.55 1321.67 L2184.55 1325.6 L2162.6 1325.6 L2162.6 1321.67 Q2165.27 1318.91 2169.85 1314.28 Q2174.46 1309.63 2175.64 1308.29 Q2177.88 1305.76 2178.76 1304.03 Q2179.66 1302.27 2179.66 1300.58 Q2179.66 1297.83 2177.72 1296.09 Q2175.8 1294.35 2172.7 1294.35 Q2170.5 1294.35 2168.04 1295.12 Q2165.61 1295.88 2162.84 1297.43 L2162.84 1292.71 Q2165.66 1291.58 2168.11 1291 Q2170.57 1290.42 2172.6 1290.42 Q2177.98 1290.42 2181.17 1293.1 Q2184.36 1295.79 2184.36 1300.28 Q2184.36 1302.41 2183.55 1304.33 Q2182.77 1306.23 2180.66 1308.82 Q2180.08 1309.49 2176.98 1312.71 Q2173.88 1315.9 2168.23 1321.67 Z" fill="#000000" fill-rule="evenodd" fill-opacity="1" /><path clip-path="url(#clip340)" d="M2194.36 1319.72 L2199.25 1319.72 L2199.25 1325.6 L2194.36 1325.6 L2194.36 1319.72 Z" fill="#000000" fill-rule="evenodd" fill-opacity="1" /><path clip-path="url(#clip340)" d="M2209.48 1291.04 L2227.84 1291.04 L2227.84 1294.98 L2213.76 1294.98 L2213.76 1303.45 Q2214.78 1303.1 2215.8 1302.94 Q2216.82 1302.76 2217.84 1302.76 Q2223.62 1302.76 2227 1305.93 Q2230.38 1309.1 2230.38 1314.51 Q2230.38 1320.09 2226.91 1323.2 Q2223.44 1326.27 2217.12 1326.27 Q2214.94 1326.27 2212.67 1325.9 Q2210.43 1325.53 2208.02 1324.79 L2208.02 1320.09 Q2210.1 1321.23 2212.33 1321.78 Q2214.55 1322.34 2217.03 1322.34 Q2221.03 1322.34 2223.37 1320.23 Q2225.71 1318.13 2225.71 1314.51 Q2225.71 1310.9 2223.37 1308.8 Q2221.03 1306.69 2217.03 1306.69 Q2215.15 1306.69 2213.28 1307.11 Q2211.42 1307.52 2209.48 1308.4 L2209.48 1291.04 Z" fill="#000000" fill-rule="evenodd" fill-opacity="1" /><polyline clip-path="url(#clip342)" style="stroke:#000000; stroke-linecap:round; stroke-linejoin:round; stroke-width:2; stroke-opacity:0.1; fill:none" points="
  708.794,1321.03 1215,882.649 
  "/>
<polyline clip-path="url(#clip342)" style="stroke:#000000; stroke-linecap:round; stroke-linejoin:round; stroke-width:2; stroke-opacity:0.1; fill:none" points="
  1215,882.649 2091.76,1135.75 
  "/>
<polyline clip-path="url(#clip342)" style="stroke:#000000; stroke-linecap:round; stroke-linejoin:round; stroke-width:2; stroke-opacity:0.1; fill:none" points="
  708.794,1136.91 1215,698.523 
  "/>
<polyline clip-path="url(#clip342)" style="stroke:#000000; stroke-linecap:round; stroke-linejoin:round; stroke-width:2; stroke-opacity:0.1; fill:none" points="
  1215,698.523 2091.76,951.624 
  "/>
<polyline clip-path="url(#clip342)" style="stroke:#000000; stroke-linecap:round; stroke-linejoin:round; stroke-width:2; stroke-opacity:0.1; fill:none" points="
  708.794,952.782 1215,514.398 
  "/>
<polyline clip-path="url(#clip342)" style="stroke:#000000; stroke-linecap:round; stroke-linejoin:round; stroke-width:2; stroke-opacity:0.1; fill:none" points="
  1215,514.398 2091.76,767.499 
  "/>
<polyline clip-path="url(#clip342)" style="stroke:#000000; stroke-linecap:round; stroke-linejoin:round; stroke-width:2; stroke-opacity:0.1; fill:none" points="
  708.794,768.656 1215,330.272 
  "/>
<polyline clip-path="url(#clip342)" style="stroke:#000000; stroke-linecap:round; stroke-linejoin:round; stroke-width:2; stroke-opacity:0.1; fill:none" points="
  1215,330.272 2091.76,583.373 
  "/>
<polyline clip-path="url(#clip342)" style="stroke:#000000; stroke-linecap:round; stroke-linejoin:round; stroke-width:2; stroke-opacity:0.1; fill:none" points="
  708.794,584.531 1215,146.147 
  "/>
<polyline clip-path="url(#clip342)" style="stroke:#000000; stroke-linecap:round; stroke-linejoin:round; stroke-width:2; stroke-opacity:0.1; fill:none" points="
  1215,146.147 2091.76,399.248 
  "/>
<polyline clip-path="url(#clip340)" style="stroke:#000000; stroke-linecap:round; stroke-linejoin:round; stroke-width:4; stroke-opacity:1; fill:none" points="
  708.794,1455.04 708.794,578.269 
  "/>
<polyline clip-path="url(#clip340)" style="stroke:#000000; stroke-linecap:round; stroke-linejoin:round; stroke-width:4; stroke-opacity:1; fill:none" points="
  708.794,1321.03 714.869,1315.77 
  "/>
<polyline clip-path="url(#clip340)" style="stroke:#000000; stroke-linecap:round; stroke-linejoin:round; stroke-width:4; stroke-opacity:1; fill:none" points="
  708.794,1136.91 714.869,1131.65 
  "/>
<polyline clip-path="url(#clip340)" style="stroke:#000000; stroke-linecap:round; stroke-linejoin:round; stroke-width:4; stroke-opacity:1; fill:none" points="
  708.794,952.782 714.869,947.521 
  "/>
<polyline clip-path="url(#clip340)" style="stroke:#000000; stroke-linecap:round; stroke-linejoin:round; stroke-width:4; stroke-opacity:1; fill:none" points="
  708.794,768.656 714.869,763.396 
  "/>
<polyline clip-path="url(#clip340)" style="stroke:#000000; stroke-linecap:round; stroke-linejoin:round; stroke-width:4; stroke-opacity:1; fill:none" points="
  708.794,584.531 714.869,579.27 
  "/>
<path clip-path="url(#clip340)" d="M614.386 1334.38 L630.705 1334.38 L630.705 1338.31 L608.761 1338.31 L608.761 1334.38 Q611.423 1331.62 616.006 1326.99 Q620.613 1322.34 621.793 1321 Q624.039 1318.47 624.918 1316.74 Q625.821 1314.98 625.821 1313.29 Q625.821 1310.54 623.877 1308.8 Q621.955 1307.06 618.853 1307.06 Q616.654 1307.06 614.201 1307.83 Q611.77 1308.59 608.992 1310.14 L608.992 1305.42 Q611.816 1304.29 614.27 1303.71 Q616.724 1303.13 618.761 1303.13 Q624.131 1303.13 627.326 1305.81 Q630.52 1308.5 630.52 1312.99 Q630.52 1315.12 629.71 1317.04 Q628.923 1318.94 626.816 1321.53 Q626.238 1322.2 623.136 1325.42 Q620.034 1328.61 614.386 1334.38 Z" fill="#000000" fill-rule="evenodd" fill-opacity="1" /><path clip-path="url(#clip340)" d="M640.52 1332.43 L645.404 1332.43 L645.404 1338.31 L640.52 1338.31 L640.52 1332.43 Z" fill="#000000" fill-rule="evenodd" fill-opacity="1" /><path clip-path="url(#clip340)" d="M655.636 1303.75 L673.992 1303.75 L673.992 1307.69 L659.918 1307.69 L659.918 1316.16 Q660.937 1315.81 661.955 1315.65 Q662.974 1315.47 663.992 1315.47 Q669.779 1315.47 673.159 1318.64 Q676.538 1321.81 676.538 1327.22 Q676.538 1332.8 673.066 1335.91 Q669.594 1338.98 663.274 1338.98 Q661.099 1338.98 658.83 1338.61 Q656.585 1338.24 654.177 1337.5 L654.177 1332.8 Q656.261 1333.94 658.483 1334.49 Q660.705 1335.05 663.182 1335.05 Q667.186 1335.05 669.524 1332.94 Q671.862 1330.84 671.862 1327.22 Q671.862 1323.61 669.524 1321.51 Q667.186 1319.4 663.182 1319.4 Q661.307 1319.4 659.432 1319.82 Q657.58 1320.23 655.636 1321.11 L655.636 1303.75 Z" fill="#000000" fill-rule="evenodd" fill-opacity="1" /><path clip-path="url(#clip340)" d="M623.529 1135.55 Q626.886 1136.27 628.761 1138.54 Q630.659 1140.81 630.659 1144.14 Q630.659 1149.26 627.14 1152.06 Q623.622 1154.86 617.14 1154.86 Q614.965 1154.86 612.65 1154.42 Q610.358 1154 607.904 1153.15 L607.904 1148.63 Q609.849 1149.77 612.164 1150.34 Q614.478 1150.92 617.002 1150.92 Q621.4 1150.92 623.691 1149.19 Q626.006 1147.45 626.006 1144.14 Q626.006 1141.09 623.853 1139.37 Q621.724 1137.64 617.904 1137.64 L613.877 1137.64 L613.877 1133.79 L618.09 1133.79 Q621.539 1133.79 623.367 1132.43 Q625.196 1131.04 625.196 1128.45 Q625.196 1125.78 623.298 1124.37 Q621.423 1122.94 617.904 1122.94 Q615.983 1122.94 613.784 1123.35 Q611.585 1123.77 608.946 1124.65 L608.946 1120.48 Q611.608 1119.74 613.923 1119.37 Q616.261 1119 618.321 1119 Q623.645 1119 626.747 1121.43 Q629.849 1123.84 629.849 1127.96 Q629.849 1130.83 628.205 1132.82 Q626.562 1134.79 623.529 1135.55 Z" fill="#000000" fill-rule="evenodd" fill-opacity="1" /><path clip-path="url(#clip340)" d="M639.525 1148.31 L644.409 1148.31 L644.409 1154.19 L639.525 1154.19 L639.525 1148.31 Z" fill="#000000" fill-rule="evenodd" fill-opacity="1" /><path clip-path="url(#clip340)" d="M664.594 1122.71 Q660.983 1122.71 659.154 1126.27 Q657.349 1129.81 657.349 1136.94 Q657.349 1144.05 659.154 1147.61 Q660.983 1151.15 664.594 1151.15 Q668.228 1151.15 670.034 1147.61 Q671.862 1144.05 671.862 1136.94 Q671.862 1129.81 670.034 1126.27 Q668.228 1122.71 664.594 1122.71 M664.594 1119 Q670.404 1119 673.46 1123.61 Q676.538 1128.19 676.538 1136.94 Q676.538 1145.67 673.46 1150.28 Q670.404 1154.86 664.594 1154.86 Q658.784 1154.86 655.705 1150.28 Q652.65 1145.67 652.65 1136.94 Q652.65 1128.19 655.705 1123.61 Q658.784 1119 664.594 1119 Z" fill="#000000" fill-rule="evenodd" fill-opacity="1" /><path clip-path="url(#clip340)" d="M624.525 951.428 Q627.881 952.145 629.756 954.414 Q631.654 956.682 631.654 960.016 Q631.654 965.131 628.136 967.932 Q624.617 970.733 618.136 970.733 Q615.96 970.733 613.645 970.293 Q611.353 969.877 608.9 969.02 L608.9 964.506 Q610.844 965.64 613.159 966.219 Q615.474 966.798 617.997 966.798 Q622.395 966.798 624.687 965.062 Q627.002 963.326 627.002 960.016 Q627.002 956.96 624.849 955.247 Q622.719 953.511 618.9 953.511 L614.872 953.511 L614.872 949.668 L619.085 949.668 Q622.534 949.668 624.363 948.303 Q626.191 946.914 626.191 944.321 Q626.191 941.659 624.293 940.247 Q622.418 938.812 618.9 938.812 Q616.978 938.812 614.779 939.229 Q612.58 939.645 609.941 940.525 L609.941 936.358 Q612.603 935.617 614.918 935.247 Q617.256 934.877 619.316 934.877 Q624.64 934.877 627.742 937.307 Q630.844 939.715 630.844 943.835 Q630.844 946.705 629.201 948.696 Q627.557 950.664 624.525 951.428 Z" fill="#000000" fill-rule="evenodd" fill-opacity="1" /><path clip-path="url(#clip340)" d="M640.52 964.182 L645.404 964.182 L645.404 970.062 L640.52 970.062 L640.52 964.182 Z" fill="#000000" fill-rule="evenodd" fill-opacity="1" /><path clip-path="url(#clip340)" d="M655.636 935.502 L673.992 935.502 L673.992 939.437 L659.918 939.437 L659.918 947.909 Q660.937 947.562 661.955 947.4 Q662.974 947.215 663.992 947.215 Q669.779 947.215 673.159 950.386 Q676.538 953.557 676.538 958.974 Q676.538 964.553 673.066 967.654 Q669.594 970.733 663.274 970.733 Q661.099 970.733 658.83 970.363 Q656.585 969.992 654.177 969.252 L654.177 964.553 Q656.261 965.687 658.483 966.242 Q660.705 966.798 663.182 966.798 Q667.186 966.798 669.524 964.691 Q671.862 962.585 671.862 958.974 Q671.862 955.363 669.524 953.256 Q667.186 951.15 663.182 951.15 Q661.307 951.15 659.432 951.566 Q657.58 951.983 655.636 952.863 L655.636 935.502 Z" fill="#000000" fill-rule="evenodd" fill-opacity="1" /><path clip-path="url(#clip340)" d="M622.21 755.45 L610.404 773.899 L622.21 773.899 L622.21 755.45 M620.983 751.376 L626.863 751.376 L626.863 773.899 L631.793 773.899 L631.793 777.788 L626.863 777.788 L626.863 785.936 L622.21 785.936 L622.21 777.788 L606.608 777.788 L606.608 773.274 L620.983 751.376 Z" fill="#000000" fill-rule="evenodd" fill-opacity="1" /><path clip-path="url(#clip340)" d="M639.525 780.057 L644.409 780.057 L644.409 785.936 L639.525 785.936 L639.525 780.057 Z" fill="#000000" fill-rule="evenodd" fill-opacity="1" /><path clip-path="url(#clip340)" d="M664.594 754.455 Q660.983 754.455 659.154 758.02 Q657.349 761.561 657.349 768.691 Q657.349 775.797 659.154 779.362 Q660.983 782.904 664.594 782.904 Q668.228 782.904 670.034 779.362 Q671.862 775.797 671.862 768.691 Q671.862 761.561 670.034 758.02 Q668.228 754.455 664.594 754.455 M664.594 750.751 Q670.404 750.751 673.46 755.358 Q676.538 759.941 676.538 768.691 Q676.538 777.418 673.46 782.024 Q670.404 786.608 664.594 786.608 Q658.784 786.608 655.705 782.024 Q652.65 777.418 652.65 768.691 Q652.65 759.941 655.705 755.358 Q658.784 750.751 664.594 750.751 Z" fill="#000000" fill-rule="evenodd" fill-opacity="1" /><path clip-path="url(#clip340)" d="M623.205 571.325 L611.4 589.774 L623.205 589.774 L623.205 571.325 M621.978 567.251 L627.858 567.251 L627.858 589.774 L632.789 589.774 L632.789 593.663 L627.858 593.663 L627.858 601.811 L623.205 601.811 L623.205 593.663 L607.603 593.663 L607.603 589.149 L621.978 567.251 Z" fill="#000000" fill-rule="evenodd" fill-opacity="1" /><path clip-path="url(#clip340)" d="M640.52 595.931 L645.404 595.931 L645.404 601.811 L640.52 601.811 L640.52 595.931 Z" fill="#000000" fill-rule="evenodd" fill-opacity="1" /><path clip-path="url(#clip340)" d="M655.636 567.251 L673.992 567.251 L673.992 571.186 L659.918 571.186 L659.918 579.658 Q660.937 579.311 661.955 579.149 Q662.974 578.964 663.992 578.964 Q669.779 578.964 673.159 582.135 Q676.538 585.306 676.538 590.723 Q676.538 596.302 673.066 599.403 Q669.594 602.482 663.274 602.482 Q661.099 602.482 658.83 602.112 Q656.585 601.741 654.177 601.001 L654.177 596.302 Q656.261 597.436 658.483 597.991 Q660.705 598.547 663.182 598.547 Q667.186 598.547 669.524 596.44 Q671.862 594.334 671.862 590.723 Q671.862 587.112 669.524 585.005 Q667.186 582.899 663.182 582.899 Q661.307 582.899 659.432 583.315 Q657.58 583.732 655.636 584.612 L655.636 567.251 Z" fill="#000000" fill-rule="evenodd" fill-opacity="1" /><polyline clip-path="url(#clip342)" style="stroke:#009af9; stroke-linecap:round; stroke-linejoin:round; stroke-width:4; stroke-opacity:1; fill:none" points="
  1958.29,925.478 1956.44,924.157 1954.57,922.546 1952.69,920.651 1950.79,918.474 1946.35,912.399 1941.88,904.927 1937.41,896.15 1932.96,886.171 1928.57,875.108 
  1924.25,863.095 1920.05,850.279 1915.97,836.799 1912.06,822.808 1908.32,808.461 1904.78,793.913 1901.45,779.321 1898.36,764.842 1895.51,750.632 1892.91,736.849 
  1890.57,723.643 1889.29,716.039 1888.11,708.721 1887.02,701.717 1886.03,695.055 1885.14,688.758 1884.34,682.851 1883.63,677.356 1883.02,672.293 1882.5,667.68 
  1882.06,663.535 1881.71,659.873 1881.45,656.708 1881.26,654.052 1881.14,651.914 1881.1,650.302 1881.13,649.222 1881.32,648.622 1881.67,649.57 1882.16,652.065 
  1882.78,656.086 1883.48,661.598 1884.25,668.55 1885.06,676.875 1885.89,686.497 1886.77,698.322 1887.61,711.457 1888.37,725.768 1889.03,741.113 1889.54,757.336 
  1889.89,774.272 1890.05,791.743 1890,809.569 1889.74,826.174 1889.27,842.8 1888.56,859.311 1887.62,875.576 1886.44,891.467 1884.99,906.858 1883.3,921.631 
  1881.34,935.67 1878.96,949.79 1876.28,962.831 1873.31,974.682 1870.06,985.246 1866.54,994.443 1862.75,1002.2 1858.73,1008.48 1854.47,1013.23 1849.29,1016.79 
  1843.85,1018.26 1838.2,1017.65 1832.37,1014.98 1826.39,1010.3 1820.31,1003.71 1814.16,995.289 1807.97,985.171 1802.48,974.863 1797.02,963.425 1791.61,950.969 
  1786.28,937.611 1781.06,923.475 1775.96,908.686 1770.99,893.378 1766.19,877.686 1762.13,863.722 1758.21,849.668 1754.45,835.608 1750.86,821.634 1747.43,807.832 
  1744.18,794.288 1741.1,781.085 1738.22,768.299 1735.28,754.925 1732.56,742.229 1730.07,730.301 1727.79,719.222 1725.72,709.061 1723.87,699.885 1722.22,691.757 
  1720.77,684.727 1719.49,678.808 1718.4,674.082 1717.47,670.578 1716.71,668.316 1716.08,667.306 1715.59,667.553 1715.21,669.053 1714.93,671.798 1714.73,676.262 
  1714.61,682.199 1714.55,689.569 1714.54,698.324 1714.55,708.408 1714.56,719.754 1714.55,732.289 1714.5,745.931 1714.4,759.869 1714.23,774.662 1713.97,790.234 
  1713.61,806.506 1713.14,823.399 1712.54,840.829 1711.8,858.713 1710.9,876.967 1709.8,896.245 1708.51,915.729 1707.02,935.332 1705.33,954.963 1703.42,974.531 
  1701.29,993.951 1698.94,1013.14 1696.35,1032.02 1694,1047.62 1691.48,1062.9 1688.79,1077.82 1685.93,1092.34 1682.9,1106.43 1679.71,1120.05 1676.36,1133.17 
  1672.83,1145.76 1668.32,1160.37 1663.56,1174.1 1658.57,1186.91 1653.35,1198.77 1647.92,1209.64 1642.26,1219.5 1636.41,1228.34 1630.35,1236.14 1624.64,1242.36 
  1618.77,1247.69 1612.76,1252.14 1606.61,1255.7 1600.33,1258.38 1593.92,1260.19 1587.4,1261.13 1580.77,1261.22 1574.55,1260.55 1568.26,1259.19 1561.88,1257.13 
  1555.44,1254.41 1542.37,1247.02 1529.08,1237.17 1515.45,1224.85 1501.69,1210.34 1487.83,1193.83 1473.91,1175.53 1466.09,1164.56 1458.28,1153.12 1450.46,1141.25 
  1442.66,1129 1434.86,1116.38 1427.08,1103.43 1419.32,1090.2 1411.59,1076.71 1397.64,1051.71 1383.79,1026.17 1370.06,1000.26 1356.45,974.154 1348.73,959.188 
  1341.05,944.242 1333.41,929.345 1325.82,914.523 1310.79,885.203 1295.94,856.468 1282.35,830.53 1268.91,805.354 1255.62,781.048 1242.46,757.702 1229.61,735.701 
  1216.87,714.771 1204.22,694.964 1191.65,676.318 1179.52,659.355 1167.44,643.535 1155.4,628.872 1143.38,615.374 1131.08,602.745 1118.78,591.334 1106.47,581.128 
  1094.14,572.105 1080.58,563.553 1066.96,556.362 1053.26,550.492 1039.48,545.9 1029.4,543.34 1019.27,541.413 1009.07,540.099 998.813,539.378 978.081,539.635 
  957.047,542.013 952.692,542.748 948.324,543.563 943.943,544.458 939.547,545.431 
  "/>
<polyline clip-path="url(#clip342)" style="stroke:#e26f46; stroke-linecap:round; stroke-linejoin:round; stroke-width:4; stroke-opacity:1; fill:none" points="
  1697.7,1022.41 1639.65,1447.21 
  "/>
<polyline clip-path="url(#clip342)" style="stroke:#3da44d; stroke-linecap:round; stroke-linejoin:round; stroke-width:4; stroke-opacity:1; fill:none" points="
  1697.7,1022.41 1619.21,904.422 
  "/>
<polyline clip-path="url(#clip342)" style="stroke:#c271d2; stroke-linecap:round; stroke-linejoin:round; stroke-width:4; stroke-opacity:1; fill:none" points="
  1697.7,1022.41 1335.62,1107.24 
  "/>
<polyline clip-path="url(#clip342)" style="stroke:#ac8d18; stroke-linecap:round; stroke-linejoin:round; stroke-width:4; stroke-opacity:1; fill:none" points="
  1682.01,998.814 1681.27,998.989 1680.53,999.166 1679.79,999.345 1679.06,999.528 1675.69,1000.4 1672.37,1001.32 1669.11,1002.29 1665.91,1003.3 1662.78,1004.36 
  1659.73,1005.46 1656.77,1006.59 1653.89,1007.76 1650.57,1009.21 1647.4,1010.7 1644.39,1012.23 1641.55,1013.8 1639.29,1015.14 1637.17,1016.5 1635.19,1017.87 
  1633.35,1019.26 1631.52,1020.77 1629.87,1022.28 1628.41,1023.8 1627.14,1025.31 1626.13,1026.7 1625.29,1028.08 1624.62,1029.44 1624.12,1030.79 1623.77,1032.21 
  1623.61,1033.61 1623.66,1034.98 1623.9,1036.31 1624.42,1037.81 1625.21,1039.26 1626.26,1040.64 1627.56,1041.96 1628.92,1043.08 1630.48,1044.13 1632.23,1045.13 
  1634.17,1046.06 1636.01,1046.82 1637.99,1047.53 1640.1,1048.18 1642.33,1048.78 1644.9,1049.37 1647.61,1049.88 1650.44,1050.33 1653.4,1050.7 1656.49,1051.01 
  1659.69,1051.23 1662.98,1051.39 1666.37,1051.47 1670.21,1051.46 1674.14,1051.37 1678.14,1051.18 1682.21,1050.9 1686.12,1050.55 1690.07,1050.12 1694.04,1049.61 
  1698.02,1049.02 1702.16,1048.32 1706.28,1047.55 1710.38,1046.69 1714.44,1045.76 1717.81,1044.93 1721.14,1044.04 1724.42,1043.1 1727.64,1042.12 1731.48,1040.86 
  1735.21,1039.54 1738.82,1038.16 1742.29,1036.73 1745.34,1035.39 1748.26,1034 1751.04,1032.58 1753.67,1031.14 1755.96,1029.78 1758.11,1028.41 1760.13,1027.02 
  1761.99,1025.62 1763.73,1024.19 1765.3,1022.76 1766.71,1021.33 1767.96,1019.91 1769.15,1018.31 1770.12,1016.73 1770.88,1015.17 1771.41,1013.63 1771.7,1012.26 
  1771.8,1010.91 1771.72,1009.59 1771.46,1008.3 1770.92,1006.87 1770.15,1005.49 1769.15,1004.17 1767.9,1002.91 1766.55,1001.79 1765,1000.74 1763.26,999.742 
  1761.34,998.81 1759.28,997.957 1757.04,997.17 1754.64,996.452 1752.09,995.805 1749.47,995.247 1746.71,994.758 1743.83,994.34 1740.83,993.994 1737.64,993.716 
  1734.34,993.515 1730.95,993.392 1727.46,993.348 1723.55,993.389 1719.55,993.525 1715.49,993.754 1711.36,994.077 1708.34,994.369 1705.3,994.708 1702.24,995.096 
  1699.18,995.53 1696.11,996.01 1693.05,996.535 1690,997.104 1686.96,997.717 1685.71,997.981 1684.47,998.252 1683.24,998.529 1682.01,998.814 
  "/>
<path clip-path="url(#clip340)" d="
M2228.25 416.735 L2558.06 416.735 L2558.06 105.695 L2228.25 105.695  Z
  " fill="#ffffff" fill-rule="evenodd" fill-opacity="1"/>
<polyline clip-path="url(#clip340)" style="stroke:#000000; stroke-linecap:round; stroke-linejoin:round; stroke-width:4; stroke-opacity:1; fill:none" points="
  2228.25,416.735 2558.06,416.735 2558.06,105.695 2228.25,105.695 2228.25,416.735 
  "/>
<polyline clip-path="url(#clip340)" style="stroke:#009af9; stroke-linecap:round; stroke-linejoin:round; stroke-width:4; stroke-opacity:1; fill:none" points="
  2255.82,157.535 2421.22,157.535 
  "/>
<path clip-path="url(#clip340)" d="M2462.62 177.223 Q2460.82 181.852 2459.11 183.264 Q2457.39 184.676 2454.52 184.676 L2451.12 184.676 L2451.12 181.112 L2453.62 181.112 Q2455.38 181.112 2456.35 180.278 Q2457.32 179.445 2458.5 176.343 L2459.27 174.399 L2448.78 148.889 L2453.3 148.889 L2461.4 169.167 L2469.5 148.889 L2474.01 148.889 L2462.62 177.223 Z" fill="#000000" fill-rule="evenodd" fill-opacity="1" /><path clip-path="url(#clip340)" d="M2481.3 170.88 L2488.94 170.88 L2488.94 144.515 L2480.63 146.181 L2480.63 141.922 L2488.9 140.255 L2493.57 140.255 L2493.57 170.88 L2501.21 170.88 L2501.21 174.815 L2481.3 174.815 L2481.3 170.88 Z" fill="#000000" fill-rule="evenodd" fill-opacity="1" /><polyline clip-path="url(#clip340)" style="stroke:#e26f46; stroke-linecap:round; stroke-linejoin:round; stroke-width:4; stroke-opacity:1; fill:none" points="
  2255.82,209.375 2421.22,209.375 
  "/>
<path clip-path="url(#clip340)" d="M2462.62 229.063 Q2460.82 233.692 2459.11 235.104 Q2457.39 236.516 2454.52 236.516 L2451.12 236.516 L2451.12 232.952 L2453.62 232.952 Q2455.38 232.952 2456.35 232.118 Q2457.32 231.285 2458.5 228.183 L2459.27 226.239 L2448.78 200.729 L2453.3 200.729 L2461.4 221.007 L2469.5 200.729 L2474.01 200.729 L2462.62 229.063 Z" fill="#000000" fill-rule="evenodd" fill-opacity="1" /><path clip-path="url(#clip340)" d="M2484.52 222.72 L2500.84 222.72 L2500.84 226.655 L2478.9 226.655 L2478.9 222.72 Q2481.56 219.965 2486.14 215.336 Q2490.75 210.683 2491.93 209.341 Q2494.18 206.817 2495.05 205.081 Q2495.96 203.322 2495.96 201.632 Q2495.96 198.878 2494.01 197.142 Q2492.09 195.405 2488.99 195.405 Q2486.79 195.405 2484.34 196.169 Q2481.91 196.933 2479.13 198.484 L2479.13 193.762 Q2481.95 192.628 2484.41 192.049 Q2486.86 191.47 2488.9 191.47 Q2494.27 191.47 2497.46 194.155 Q2500.66 196.841 2500.66 201.331 Q2500.66 203.461 2499.85 205.382 Q2499.06 207.28 2496.95 209.873 Q2496.37 210.544 2493.27 213.762 Q2490.17 216.956 2484.52 222.72 Z" fill="#000000" fill-rule="evenodd" fill-opacity="1" /><polyline clip-path="url(#clip340)" style="stroke:#3da44d; stroke-linecap:round; stroke-linejoin:round; stroke-width:4; stroke-opacity:1; fill:none" points="
  2255.82,261.215 2421.22,261.215 
  "/>
<path clip-path="url(#clip340)" d="M2462.62 280.903 Q2460.82 285.532 2459.11 286.944 Q2457.39 288.356 2454.52 288.356 L2451.12 288.356 L2451.12 284.792 L2453.62 284.792 Q2455.38 284.792 2456.35 283.958 Q2457.32 283.125 2458.5 280.023 L2459.27 278.079 L2448.78 252.569 L2453.3 252.569 L2461.4 272.847 L2469.5 252.569 L2474.01 252.569 L2462.62 280.903 Z" fill="#000000" fill-rule="evenodd" fill-opacity="1" /><path clip-path="url(#clip340)" d="M2494.66 259.861 Q2498.02 260.579 2499.89 262.847 Q2501.79 265.116 2501.79 268.449 Q2501.79 273.565 2498.27 276.366 Q2494.75 279.167 2488.27 279.167 Q2486.1 279.167 2483.78 278.727 Q2481.49 278.31 2479.04 277.454 L2479.04 272.94 Q2480.98 274.074 2483.3 274.653 Q2485.61 275.231 2488.13 275.231 Q2492.53 275.231 2494.82 273.495 Q2497.14 271.759 2497.14 268.449 Q2497.14 265.393 2494.99 263.681 Q2492.86 261.944 2489.04 261.944 L2485.01 261.944 L2485.01 258.102 L2489.22 258.102 Q2492.67 258.102 2494.5 256.736 Q2496.33 255.347 2496.33 252.755 Q2496.33 250.093 2494.43 248.681 Q2492.55 247.245 2489.04 247.245 Q2487.12 247.245 2484.92 247.662 Q2482.72 248.079 2480.08 248.958 L2480.08 244.792 Q2482.74 244.051 2485.05 243.681 Q2487.39 243.31 2489.45 243.31 Q2494.78 243.31 2497.88 245.741 Q2500.98 248.148 2500.98 252.269 Q2500.98 255.139 2499.34 257.13 Q2497.69 259.097 2494.66 259.861 Z" fill="#000000" fill-rule="evenodd" fill-opacity="1" /><polyline clip-path="url(#clip340)" style="stroke:#c271d2; stroke-linecap:round; stroke-linejoin:round; stroke-width:4; stroke-opacity:1; fill:none" points="
  2255.82,313.055 2421.22,313.055 
  "/>
<path clip-path="url(#clip340)" d="M2462.62 332.743 Q2460.82 337.372 2459.11 338.784 Q2457.39 340.196 2454.52 340.196 L2451.12 340.196 L2451.12 336.632 L2453.62 336.632 Q2455.38 336.632 2456.35 335.798 Q2457.32 334.965 2458.5 331.863 L2459.27 329.919 L2448.78 304.409 L2453.3 304.409 L2461.4 324.687 L2469.5 304.409 L2474.01 304.409 L2462.62 332.743 Z" fill="#000000" fill-rule="evenodd" fill-opacity="1" /><path clip-path="url(#clip340)" d="M2493.34 299.849 L2481.54 318.298 L2493.34 318.298 L2493.34 299.849 M2492.12 295.775 L2497.99 295.775 L2497.99 318.298 L2502.93 318.298 L2502.93 322.187 L2497.99 322.187 L2497.99 330.335 L2493.34 330.335 L2493.34 322.187 L2477.74 322.187 L2477.74 317.673 L2492.12 295.775 Z" fill="#000000" fill-rule="evenodd" fill-opacity="1" /><polyline clip-path="url(#clip340)" style="stroke:#ac8d18; stroke-linecap:round; stroke-linejoin:round; stroke-width:4; stroke-opacity:1; fill:none" points="
  2255.82,364.895 2421.22,364.895 
  "/>
<path clip-path="url(#clip340)" d="M2462.62 384.583 Q2460.82 389.212 2459.11 390.624 Q2457.39 392.036 2454.52 392.036 L2451.12 392.036 L2451.12 388.472 L2453.62 388.472 Q2455.38 388.472 2456.35 387.638 Q2457.32 386.805 2458.5 383.703 L2459.27 381.759 L2448.78 356.249 L2453.3 356.249 L2461.4 376.527 L2469.5 356.249 L2474.01 356.249 L2462.62 384.583 Z" fill="#000000" fill-rule="evenodd" fill-opacity="1" /><path clip-path="url(#clip340)" d="M2480.54 347.615 L2498.9 347.615 L2498.9 351.55 L2484.82 351.55 L2484.82 360.023 Q2485.84 359.675 2486.86 359.513 Q2487.88 359.328 2488.9 359.328 Q2494.68 359.328 2498.06 362.499 Q2501.44 365.671 2501.44 371.087 Q2501.44 376.666 2497.97 379.768 Q2494.5 382.847 2488.18 382.847 Q2486 382.847 2483.74 382.476 Q2481.49 382.106 2479.08 381.365 L2479.08 376.666 Q2481.17 377.8 2483.39 378.356 Q2485.61 378.911 2488.09 378.911 Q2492.09 378.911 2494.43 376.805 Q2496.77 374.698 2496.77 371.087 Q2496.77 367.476 2494.43 365.37 Q2492.09 363.263 2488.09 363.263 Q2486.21 363.263 2484.34 363.68 Q2482.49 364.097 2480.54 364.976 L2480.54 347.615 Z" fill="#000000" fill-rule="evenodd" fill-opacity="1" /></svg>
