<?xml version="1.0" encoding="utf-8"?>
<svg xmlns="http://www.w3.org/2000/svg" xmlns:xlink="http://www.w3.org/1999/xlink" width="672" height="480" viewBox="0 0 2688 1920">
<defs>
  <clipPath id="clip210">
    <rect x="0" y="0" width="2688" height="1920"/>
  </clipPath>
</defs>
<path clip-path="url(#clip210)" d="
M0 1920 L2688 1920 L2688 0 L0 0  Z
  " fill="#ffffff" fill-rule="evenodd" fill-opacity="1"/>
<defs>
  <clipPath id="clip211">
    <rect x="537" y="0" width="1883" height="1883"/>
  </clipPath>
</defs>
<path clip-path="url(#clip210)" d="
M115.057 1800.78 L2640.76 1800.78 L2640.76 47.2441 L115.057 47.2441  Z
  " fill="#ffffff" fill-rule="evenodd" fill-opacity="1"/>
<defs>
  <clipPath id="clip212">
    <rect x="115" y="47" width="2527" height="1755"/>
  </clipPath>
</defs>
<polyline clip-path="url(#clip212)" style="stroke:#000000; stroke-linecap:butt; stroke-linejoin:round; stroke-width:2; stroke-opacity:0.1; fill:none" points="
  186.539,1800.78 186.539,47.2441 
  "/>
<polyline clip-path="url(#clip212)" style="stroke:#000000; stroke-linecap:butt; stroke-linejoin:round; stroke-width:2; stroke-opacity:0.1; fill:none" points="
  565.763,1800.78 565.763,47.2441 
  "/>
<polyline clip-path="url(#clip212)" style="stroke:#000000; stroke-linecap:butt; stroke-linejoin:round; stroke-width:2; stroke-opacity:0.1; fill:none" points="
  944.987,1800.78 944.987,47.2441 
  "/>
<polyline clip-path="url(#clip212)" style="stroke:#000000; stroke-linecap:butt; stroke-linejoin:round; stroke-width:2; stroke-opacity:0.1; fill:none" points="
  1324.21,1800.78 1324.21,47.2441 
  "/>
<polyline clip-path="url(#clip212)" style="stroke:#000000; stroke-linecap:butt; stroke-linejoin:round; stroke-width:2; stroke-opacity:0.1; fill:none" points="
  1703.44,1800.78 1703.44,47.2441 
  "/>
<polyline clip-path="url(#clip212)" style="stroke:#000000; stroke-linecap:butt; stroke-linejoin:round; stroke-width:2; stroke-opacity:0.1; fill:none" points="
  2082.66,1800.78 2082.66,47.2441 
  "/>
<polyline clip-path="url(#clip212)" style="stroke:#000000; stroke-linecap:butt; stroke-linejoin:round; stroke-width:2; stroke-opacity:0.1; fill:none" points="
  2461.88,1800.78 2461.88,47.2441 
  "/>
<polyline clip-path="url(#clip210)" style="stroke:#000000; stroke-linecap:butt; stroke-linejoin:round; stroke-width:4; stroke-opacity:1; fill:none" points="
  115.057,1800.78 2640.76,1800.78 
  "/>
<polyline clip-path="url(#clip210)" style="stroke:#000000; stroke-linecap:butt; stroke-linejoin:round; stroke-width:4; stroke-opacity:1; fill:none" points="
  186.539,1800.78 186.539,1781.88 
  "/>
<polyline clip-path="url(#clip210)" style="stroke:#000000; stroke-linecap:butt; stroke-linejoin:round; stroke-width:4; stroke-opacity:1; fill:none" points="
  565.763,1800.78 565.763,1781.88 
  "/>
<polyline clip-path="url(#clip210)" style="stroke:#000000; stroke-linecap:butt; stroke-linejoin:round; stroke-width:4; stroke-opacity:1; fill:none" points="
  944.987,1800.78 944.987,1781.88 
  "/>
<polyline clip-path="url(#clip210)" style="stroke:#000000; stroke-linecap:butt; stroke-linejoin:round; stroke-width:4; stroke-opacity:1; fill:none" points="
  1324.21,1800.78 1324.21,1781.88 
  "/>
<polyline clip-path="url(#clip210)" style="stroke:#000000; stroke-linecap:butt; stroke-linejoin:round; stroke-width:4; stroke-opacity:1; fill:none" points="
  1703.44,1800.78 1703.44,1781.88 
  "/>
<polyline clip-path="url(#clip210)" style="stroke:#000000; stroke-linecap:butt; stroke-linejoin:round; stroke-width:4; stroke-opacity:1; fill:none" points="
  2082.66,1800.78 2082.66,1781.88 
  "/>
<polyline clip-path="url(#clip210)" style="stroke:#000000; stroke-linecap:butt; stroke-linejoin:round; stroke-width:4; stroke-opacity:1; fill:none" points="
  2461.88,1800.78 2461.88,1781.88 
  "/>
<path clip-path="url(#clip210)" d="M186.539 1834 Q182.928 1834 181.099 1837.57 Q179.294 1841.11 179.294 1848.24 Q179.294 1855.34 181.099 1858.91 Q182.928 1862.45 186.539 1862.45 Q190.173 1862.45 191.979 1858.91 Q193.808 1855.34 193.808 1848.24 Q193.808 1841.11 191.979 1837.57 Q190.173 1834 186.539 1834 M186.539 1830.3 Q192.349 1830.3 195.405 1834.9 Q198.484 1839.49 198.484 1848.24 Q198.484 1856.96 195.405 1861.57 Q192.349 1866.15 186.539 1866.15 Q180.729 1866.15 177.65 1861.57 Q174.595 1856.96 174.595 1848.24 Q174.595 1839.49 177.65 1834.9 Q180.729 1830.3 186.539 1830.3 Z" fill="#000000" fill-rule="evenodd" fill-opacity="1" /><path clip-path="url(#clip210)" d="M560.416 1861.55 L576.735 1861.55 L576.735 1865.48 L554.791 1865.48 L554.791 1861.55 Q557.453 1858.79 562.036 1854.16 Q566.643 1849.51 567.823 1848.17 Q570.069 1845.65 570.948 1843.91 Q571.851 1842.15 571.851 1840.46 Q571.851 1837.71 569.907 1835.97 Q567.985 1834.23 564.884 1834.23 Q562.685 1834.23 560.231 1835 Q557.8 1835.76 555.023 1837.31 L555.023 1832.59 Q557.847 1831.46 560.3 1830.88 Q562.754 1830.3 564.791 1830.3 Q570.161 1830.3 573.356 1832.98 Q576.55 1835.67 576.55 1840.16 Q576.55 1842.29 575.74 1844.21 Q574.953 1846.11 572.847 1848.7 Q572.268 1849.37 569.166 1852.59 Q566.064 1855.78 560.416 1861.55 Z" fill="#000000" fill-rule="evenodd" fill-opacity="1" /><path clip-path="url(#clip210)" d="M947.996 1835 L936.191 1853.45 L947.996 1853.45 L947.996 1835 M946.77 1830.92 L952.649 1830.92 L952.649 1853.45 L957.58 1853.45 L957.58 1857.34 L952.649 1857.34 L952.649 1865.48 L947.996 1865.48 L947.996 1857.34 L932.395 1857.34 L932.395 1852.82 L946.77 1830.92 Z" fill="#000000" fill-rule="evenodd" fill-opacity="1" /><path clip-path="url(#clip210)" d="M1324.62 1846.34 Q1321.47 1846.34 1319.62 1848.49 Q1317.79 1850.65 1317.79 1854.4 Q1317.79 1858.12 1319.62 1860.3 Q1321.47 1862.45 1324.62 1862.45 Q1327.76 1862.45 1329.59 1860.3 Q1331.44 1858.12 1331.44 1854.4 Q1331.44 1850.65 1329.59 1848.49 Q1327.76 1846.34 1324.62 1846.34 M1333.9 1831.69 L1333.9 1835.95 Q1332.14 1835.11 1330.33 1834.67 Q1328.55 1834.23 1326.79 1834.23 Q1322.16 1834.23 1319.71 1837.36 Q1317.28 1840.48 1316.93 1846.8 Q1318.3 1844.79 1320.36 1843.72 Q1322.42 1842.64 1324.89 1842.64 Q1330.1 1842.64 1333.11 1845.81 Q1336.14 1848.96 1336.14 1854.4 Q1336.14 1859.72 1333 1862.94 Q1329.85 1866.15 1324.62 1866.15 Q1318.62 1866.15 1315.45 1861.57 Q1312.28 1856.96 1312.28 1848.24 Q1312.28 1840.04 1316.17 1835.18 Q1320.06 1830.3 1326.61 1830.3 Q1328.37 1830.3 1330.15 1830.65 Q1331.95 1830.99 1333.9 1831.69 Z" fill="#000000" fill-rule="evenodd" fill-opacity="1" /><path clip-path="url(#clip210)" d="M1703.44 1849.07 Q1700.1 1849.07 1698.18 1850.85 Q1696.28 1852.64 1696.28 1855.76 Q1696.28 1858.89 1698.18 1860.67 Q1700.1 1862.45 1703.44 1862.45 Q1706.77 1862.45 1708.69 1860.67 Q1710.61 1858.86 1710.61 1855.76 Q1710.61 1852.64 1708.69 1850.85 Q1706.79 1849.07 1703.44 1849.07 M1698.76 1847.08 Q1695.75 1846.34 1694.06 1844.28 Q1692.39 1842.22 1692.39 1839.26 Q1692.39 1835.11 1695.33 1832.71 Q1698.3 1830.3 1703.44 1830.3 Q1708.6 1830.3 1711.54 1832.71 Q1714.48 1835.11 1714.48 1839.26 Q1714.48 1842.22 1712.79 1844.28 Q1711.12 1846.34 1708.13 1847.08 Q1711.51 1847.87 1713.39 1850.16 Q1715.29 1852.45 1715.29 1855.76 Q1715.29 1860.78 1712.21 1863.47 Q1709.15 1866.15 1703.44 1866.15 Q1697.72 1866.15 1694.64 1863.47 Q1691.58 1860.78 1691.58 1855.76 Q1691.58 1852.45 1693.48 1850.16 Q1695.38 1847.87 1698.76 1847.08 M1697.05 1839.7 Q1697.05 1842.38 1698.71 1843.89 Q1700.4 1845.39 1703.44 1845.39 Q1706.44 1845.39 1708.13 1843.89 Q1709.85 1842.38 1709.85 1839.7 Q1709.85 1837.01 1708.13 1835.51 Q1706.44 1834 1703.44 1834 Q1700.4 1834 1698.71 1835.51 Q1697.05 1837.01 1697.05 1839.7 Z" fill="#000000" fill-rule="evenodd" fill-opacity="1" /><path clip-path="url(#clip210)" d="M2057.35 1861.55 L2064.99 1861.55 L2064.99 1835.18 L2056.68 1836.85 L2056.68 1832.59 L2064.94 1830.92 L2069.62 1830.92 L2069.62 1861.55 L2077.25 1861.55 L2077.25 1865.48 L2057.35 1865.48 L2057.35 1861.55 Z" fill="#000000" fill-rule="evenodd" fill-opacity="1" /><path clip-path="url(#clip210)" d="M2096.7 1834 Q2093.09 1834 2091.26 1837.57 Q2089.45 1841.11 2089.45 1848.24 Q2089.45 1855.34 2091.26 1858.91 Q2093.09 1862.45 2096.7 1862.45 Q2100.33 1862.45 2102.14 1858.91 Q2103.97 1855.34 2103.97 1848.24 Q2103.97 1841.11 2102.14 1837.57 Q2100.33 1834 2096.7 1834 M2096.7 1830.3 Q2102.51 1830.3 2105.56 1834.9 Q2108.64 1839.49 2108.64 1848.24 Q2108.64 1856.96 2105.56 1861.57 Q2102.51 1866.15 2096.7 1866.15 Q2090.89 1866.15 2087.81 1861.57 Q2084.75 1856.96 2084.75 1848.24 Q2084.75 1839.49 2087.81 1834.9 Q2090.89 1830.3 2096.7 1830.3 Z" fill="#000000" fill-rule="evenodd" fill-opacity="1" /><path clip-path="url(#clip210)" d="M2437.37 1861.55 L2445.01 1861.55 L2445.01 1835.18 L2436.7 1836.85 L2436.7 1832.59 L2444.96 1830.92 L2449.64 1830.92 L2449.64 1861.55 L2457.28 1861.55 L2457.28 1865.48 L2437.37 1865.48 L2437.37 1861.55 Z" fill="#000000" fill-rule="evenodd" fill-opacity="1" /><path clip-path="url(#clip210)" d="M2470.75 1861.55 L2487.07 1861.55 L2487.07 1865.48 L2465.12 1865.48 L2465.12 1861.55 Q2467.79 1858.79 2472.37 1854.16 Q2476.98 1849.51 2478.16 1848.17 Q2480.4 1845.65 2481.28 1843.91 Q2482.18 1842.15 2482.18 1840.46 Q2482.18 1837.71 2480.24 1835.97 Q2478.32 1834.23 2475.22 1834.23 Q2473.02 1834.23 2470.56 1835 Q2468.13 1835.76 2465.36 1837.31 L2465.36 1832.59 Q2468.18 1831.46 2470.63 1830.88 Q2473.09 1830.3 2475.12 1830.3 Q2480.49 1830.3 2483.69 1832.98 Q2486.88 1835.67 2486.88 1840.16 Q2486.88 1842.29 2486.07 1844.21 Q2485.29 1846.11 2483.18 1848.7 Q2482.6 1849.37 2479.5 1852.59 Q2476.4 1855.78 2470.75 1861.55 Z" fill="#000000" fill-rule="evenodd" fill-opacity="1" /><polyline clip-path="url(#clip212)" style="stroke:#000000; stroke-linecap:butt; stroke-linejoin:round; stroke-width:2; stroke-opacity:0.1; fill:none" points="
  115.057,1751.15 2640.76,1751.15 
  "/>
<polyline clip-path="url(#clip212)" style="stroke:#000000; stroke-linecap:butt; stroke-linejoin:round; stroke-width:2; stroke-opacity:0.1; fill:none" points="
  115.057,1337.58 2640.76,1337.58 
  "/>
<polyline clip-path="url(#clip212)" style="stroke:#000000; stroke-linecap:butt; stroke-linejoin:round; stroke-width:2; stroke-opacity:0.1; fill:none" points="
  115.057,924.012 2640.76,924.012 
  "/>
<polyline clip-path="url(#clip212)" style="stroke:#000000; stroke-linecap:butt; stroke-linejoin:round; stroke-width:2; stroke-opacity:0.1; fill:none" points="
  115.057,510.442 2640.76,510.442 
  "/>
<polyline clip-path="url(#clip212)" style="stroke:#000000; stroke-linecap:butt; stroke-linejoin:round; stroke-width:2; stroke-opacity:0.1; fill:none" points="
  115.057,96.8724 2640.76,96.8724 
  "/>
<polyline clip-path="url(#clip210)" style="stroke:#000000; stroke-linecap:butt; stroke-linejoin:round; stroke-width:4; stroke-opacity:1; fill:none" points="
  115.057,1800.78 115.057,47.2441 
  "/>
<polyline clip-path="url(#clip210)" style="stroke:#000000; stroke-linecap:butt; stroke-linejoin:round; stroke-width:4; stroke-opacity:1; fill:none" points="
  115.057,1751.15 133.955,1751.15 
  "/>
<polyline clip-path="url(#clip210)" style="stroke:#000000; stroke-linecap:butt; stroke-linejoin:round; stroke-width:4; stroke-opacity:1; fill:none" points="
  115.057,1337.58 133.955,1337.58 
  "/>
<polyline clip-path="url(#clip210)" style="stroke:#000000; stroke-linecap:butt; stroke-linejoin:round; stroke-width:4; stroke-opacity:1; fill:none" points="
  115.057,924.012 133.955,924.012 
  "/>
<polyline clip-path="url(#clip210)" style="stroke:#000000; stroke-linecap:butt; stroke-linejoin:round; stroke-width:4; stroke-opacity:1; fill:none" points="
  115.057,510.442 133.955,510.442 
  "/>
<polyline clip-path="url(#clip210)" style="stroke:#000000; stroke-linecap:butt; stroke-linejoin:round; stroke-width:4; stroke-opacity:1; fill:none" points="
  115.057,96.8724 133.955,96.8724 
  "/>
<path clip-path="url(#clip210)" d="M62.7928 1736.95 Q59.1817 1736.95 57.353 1740.51 Q55.5475 1744.06 55.5475 1751.19 Q55.5475 1758.29 57.353 1761.86 Q59.1817 1765.4 62.7928 1765.4 Q66.427 1765.4 68.2326 1761.86 Q70.0613 1758.29 70.0613 1751.19 Q70.0613 1744.06 68.2326 1740.51 Q66.427 1736.95 62.7928 1736.95 M62.7928 1733.25 Q68.6029 1733.25 71.6585 1737.85 Q74.7372 1742.44 74.7372 1751.19 Q74.7372 1759.91 71.6585 1764.52 Q68.6029 1769.1 62.7928 1769.1 Q56.9826 1769.1 53.904 1764.52 Q50.8484 1759.91 50.8484 1751.19 Q50.8484 1742.44 53.904 1737.85 Q56.9826 1733.25 62.7928 1733.25 Z" fill="#000000" fill-rule="evenodd" fill-opacity="1" /><path clip-path="url(#clip210)" d="M54.8299 1350.93 L62.4687 1350.93 L62.4687 1324.56 L54.1586 1326.23 L54.1586 1321.97 L62.4224 1320.3 L67.0983 1320.3 L67.0983 1350.93 L74.7372 1350.93 L74.7372 1354.86 L54.8299 1354.86 L54.8299 1350.93 Z" fill="#000000" fill-rule="evenodd" fill-opacity="1" /><path clip-path="url(#clip210)" d="M58.4178 937.357 L74.7372 937.357 L74.7372 941.292 L52.7928 941.292 L52.7928 937.357 Q55.4549 934.602 60.0382 929.972 Q64.6446 925.32 65.8252 923.977 Q68.0705 921.454 68.9502 919.718 Q69.8529 917.958 69.8529 916.269 Q69.8529 913.514 67.9085 911.778 Q65.9872 910.042 62.8854 910.042 Q60.6863 910.042 58.2326 910.806 Q55.8021 911.57 53.0243 913.121 L53.0243 908.398 Q55.8484 907.264 58.3021 906.685 Q60.7558 906.107 62.7928 906.107 Q68.1631 906.107 71.3576 908.792 Q74.552 911.477 74.552 915.968 Q74.552 918.097 73.7418 920.019 Q72.9548 921.917 70.8483 924.509 Q70.2696 925.181 67.1678 928.398 Q64.0659 931.593 58.4178 937.357 Z" fill="#000000" fill-rule="evenodd" fill-opacity="1" /><path clip-path="url(#clip210)" d="M67.6076 509.088 Q70.964 509.806 72.839 512.074 Q74.7372 514.343 74.7372 517.676 Q74.7372 522.792 71.2187 525.592 Q67.7002 528.393 61.2187 528.393 Q59.0428 528.393 56.728 527.954 Q54.4364 527.537 51.9827 526.68 L51.9827 522.167 Q53.9271 523.301 56.2419 523.88 Q58.5567 524.458 61.0798 524.458 Q65.478 524.458 67.7696 522.722 Q70.0844 520.986 70.0844 517.676 Q70.0844 514.62 67.9317 512.907 Q65.802 511.171 61.9826 511.171 L57.9549 511.171 L57.9549 507.329 L62.1678 507.329 Q65.6169 507.329 67.4455 505.963 Q69.2742 504.574 69.2742 501.981 Q69.2742 499.319 67.3761 497.907 Q65.5011 496.472 61.9826 496.472 Q60.0613 496.472 57.8623 496.889 Q55.6632 497.306 53.0243 498.185 L53.0243 494.019 Q55.6864 493.278 58.0012 492.907 Q60.3391 492.537 62.3993 492.537 Q67.7233 492.537 70.8252 494.968 Q73.927 497.375 73.927 501.495 Q73.927 504.366 72.2835 506.356 Q70.64 508.324 67.6076 509.088 Z" fill="#000000" fill-rule="evenodd" fill-opacity="1" /><path clip-path="url(#clip210)" d="M65.1539 83.6665 L53.3484 102.115 L65.1539 102.115 L65.1539 83.6665 M63.927 79.5924 L69.8066 79.5924 L69.8066 102.115 L74.7372 102.115 L74.7372 106.004 L69.8066 106.004 L69.8066 114.152 L65.1539 114.152 L65.1539 106.004 L49.5521 106.004 L49.5521 101.49 L63.927 79.5924 Z" fill="#000000" fill-rule="evenodd" fill-opacity="1" /><polyline clip-path="url(#clip212)" style="stroke:#009af9; stroke-linecap:butt; stroke-linejoin:round; stroke-width:4; stroke-opacity:1; fill:none" points="
  186.539,1751.15 186.539,1751.06 186.541,1750.8 186.547,1750.37 186.557,1749.77 186.607,1747.71 186.712,1744.73 186.892,1740.85 187.165,1736.06 187.552,1730.39 
  188.072,1723.83 188.743,1716.42 189.584,1708.15 190.613,1699.06 191.848,1689.16 193.307,1678.47 195.005,1667.02 196.959,1654.84 199.185,1641.94 201.699,1628.37 
  204.513,1614.15 208.314,1596.24 212.593,1577.49 217.37,1557.97 222.665,1537.74 228.496,1516.86 234.879,1495.4 241.827,1473.43 249.354,1451.03 263.425,1412.35 
  279.217,1372.98 296.752,1333.28 316.036,1293.62 338.955,1251.01 363.892,1209.35 390.792,1169.08 419.577,1130.64 433.454,1113.66 447.699,1097.19 462.303,1081.28 
  477.25,1065.97 492.529,1051.28 508.124,1037.26 524.021,1023.93 540.204,1011.33 557.853,998.658 575.791,986.888 593.997,976.051 612.447,966.176 631.12,957.289 
  649.991,949.414 669.035,942.572 688.23,936.781 710.622,931.405 733.142,927.48 755.749,925.02 778.404,924.033 801.065,924.522 823.693,926.487 846.246,929.92 
  868.686,934.808 888.5,940.36 908.165,947.033 927.654,954.807 946.941,963.66 965.999,973.569 984.804,984.503 1003.33,996.434 1021.55,1009.33 1037.27,1021.4 
  1052.71,1034.15 1067.88,1047.56 1082.76,1061.61 1097.33,1076.25 1111.58,1091.45 1125.5,1107.2 1139.08,1123.44 1167.45,1160.41 1194.06,1199.21 1218.83,1239.44 
  1241.7,1280.68 1262.76,1322.75 1281.83,1364.98 1298.94,1406.93 1314.09,1448.15 1321.65,1470.47 1328.63,1492.36 1335.05,1513.76 1340.93,1534.6 1346.27,1554.82 
  1351.1,1574.33 1355.44,1593.1 1359.3,1611.05 1362.55,1627.32 1365.4,1642.75 1367.89,1657.3 1370.04,1670.93 1371.85,1683.6 1373.37,1695.26 1374.62,1705.9 
  1375.61,1715.47 1376.41,1724.27 1377,1731.85 1377.41,1738.21 1377.67,1743.32 1377.82,1747.16 1377.89,1749.72 1377.91,1751 1377.91,1750.98 1377.92,1749.97 
  1377.96,1748.04 1378.06,1745.21 1378.23,1741.48 1378.48,1736.85 1378.85,1731.34 1379.34,1724.96 1379.99,1717.72 1381,1707.74 1382.28,1696.55 1383.88,1684.17 
  1385.82,1670.65 1388.13,1656.03 1390.84,1640.36 1393.97,1623.69 1397.56,1606.08 1401.26,1589.17 1405.38,1571.56 1409.93,1553.31 1414.92,1534.46 1426.32,1495.17 
  1439.65,1454.15 1453.74,1415.1 1469.6,1375.33 1487.23,1335.19 1506.66,1295.08 1528.15,1254.86 1551.44,1215.44 1576.48,1177.21 1603.22,1140.52 1618.91,1120.78 
  1635.09,1101.69 1651.75,1083.32 1668.86,1065.73 1686.41,1048.96 1704.37,1033.07 1722.72,1018.11 1741.43,1004.11 1758.69,992.309 1776.2,981.367 1793.96,971.315 
  1811.93,962.177 1830.11,953.976 1848.46,946.734 1866.97,940.468 1885.61,935.193 1907.08,930.389 1928.66,926.918 1950.31,924.791 1972.01,924.015 1993.7,924.593 
  2015.37,926.524 2036.96,929.799 2058.45,934.41 2078.23,939.856 2097.86,946.419 2117.31,954.079 2136.57,962.816 2155.61,972.604 2174.39,983.417 2192.9,995.224 
  2211.11,1007.99 2228.74,1021.48 2246.05,1035.84 2263,1051.02 2279.58,1066.98 2295.76,1083.68 2311.54,1101.07 2326.9,1119.1 2341.81,1137.74 2369.47,1175.43 
  2395.33,1214.79 2419.34,1255.41 2441.43,1296.87 2462.06,1339.81 2480.65,1382.72 2497.2,1425.15 2511.75,1466.63 2518.89,1488.79 2525.45,1510.46 2531.46,1531.57 
  2536.93,1552.04 2541.87,1571.83 2546.3,1590.85 2550.25,1609.06 2553.73,1626.38 2555.98,1638.37 2558.01,1649.86 2559.83,1660.81 2561.44,1671.2 2562.87,1681.02 
  2564.11,1690.26 2565.18,1698.89 2566.09,1706.91 2566.86,1714.29 2567.5,1721.03 2568.01,1727.11 2568.41,1732.52 2568.72,1737.26 2568.94,1741.31 2569.1,1744.68 
  2569.19,1747.34 2569.24,1749.01 2569.26,1750.2 2569.27,1750.91 2569.27,1751.15 
  "/>
<polyline clip-path="url(#clip212)" style="stroke:#e26f46; stroke-linecap:butt; stroke-linejoin:round; stroke-width:4; stroke-opacity:1; fill:none" points="
  194.295,96.959 202.05,97.2184 209.801,97.6508 217.548,98.2558 235.427,100.314 253.252,103.288 271.002,107.173 288.658,111.959 306.201,117.636 323.612,124.19 
  340.871,131.608 357.959,139.873 374.86,148.965 391.555,158.866 408.027,169.552 424.258,181.001 440.234,193.186 455.937,206.079 471.354,219.653 486.469,233.877 
  504.219,251.788 521.49,270.534 538.263,290.055 554.518,310.287 570.238,331.165 585.405,352.622 600.007,374.589 614.031,396.994 636.4,435.675 657.049,475.047 
  675.955,514.745 693.112,554.403 709.778,597.011 724.426,638.677 737.111,678.947 747.912,717.383 752.282,734.366 756.283,750.831 759.927,766.739 763.226,782.054 
  766.195,796.74 768.846,810.764 771.196,824.092 773.26,836.694 775.174,849.366 776.798,861.136 778.155,871.972 779.267,881.847 780.158,890.734 780.849,898.609 
  781.367,905.451 781.736,911.243 782.009,916.618 782.154,920.543 782.212,923.004 782.223,923.991 782.227,923.501 782.264,921.536 782.376,918.104 782.601,913.215 
  782.93,907.663 783.407,900.991 784.06,893.217 784.915,884.363 785.999,874.455 787.337,863.52 788.954,851.589 790.872,838.696 792.822,826.627 795.036,813.872 
  797.53,800.459 800.317,786.417 803.411,771.776 806.823,756.569 810.566,740.828 814.65,724.586 824.789,687.611 836.694,648.81 850.44,608.583 866.085,567.344 
  883.775,525.269 903.442,483.04 925.081,441.097 948.67,399.877 962.532,377.557 976.966,355.662 991.961,334.26 1007.5,313.42 1023.58,293.208 1040.17,273.689 
  1057.25,254.925 1074.81,236.976 1091.94,220.706 1109.46,205.273 1127.35,190.721 1145.58,177.092 1164.14,164.426 1183,152.758 1202.14,142.124 1221.52,132.552 
  1241.91,123.757 1262.51,116.169 1283.29,109.812 1304.22,104.705 1325.26,100.865 1346.38,98.3024 1367.55,97.0266 1388.74,97.0412 1406.56,98.0538 1424.35,99.9785 
  1442.1,102.811 1459.77,106.545 1477.35,111.173 1494.82,116.684 1512.16,123.065 1529.35,130.304 1550.12,140.279 1570.61,151.475 1590.79,163.854 1610.63,177.376 
  1630.09,191.996 1649.16,207.665 1667.8,224.333 1686,241.944 1702.24,258.855 1718.07,276.462 1733.47,294.716 1748.42,313.567 1776.93,352.85 1803.5,393.875 
  1826.25,432.921 1847.24,472.698 1866.45,512.831 1883.88,552.941 1899.71,593.161 1913.75,632.581 1926.03,670.818 1936.62,707.503 1941.85,727.248 1946.58,746.333 
  1950.84,764.701 1954.64,782.295 1958.01,799.063 1960.97,814.953 1963.54,829.917 1965.74,843.91 1967.44,855.714 1968.87,866.656 1970.07,876.709 1971.05,885.847 
  1971.83,894.047 1972.43,901.289 1972.88,907.556 1973.19,912.83 1973.42,917.634 1973.54,921.106 1973.58,923.232 1973.59,924.008 1973.59,923.43 1973.63,921.5 
  1973.74,918.224 1973.95,913.613 1974.26,908.167 1974.73,901.605 1975.36,893.944 1976.2,885.208 1977.26,875.419 1978.57,864.606 1980.15,852.8 1982.03,840.032 
  1984.2,826.539 1986.71,812.184 1989.57,797.005 1992.8,781.045 1996.42,764.346 2000.45,746.955 2004.91,728.919 2009.8,710.287 2020.61,672.596 2033.21,633.238 
  2047.67,592.618 2064.05,551.153 2082.84,508.216 2103.69,465.302 2126.57,422.877 2151.46,381.397 2165.92,359.237 2180.95,337.567 2196.54,316.458 2212.68,295.979 
  2229.34,276.195 2246.51,257.171 2264.16,238.968 2282.28,221.646 2295.72,209.649 2309.38,198.166 2323.25,187.218 2337.33,176.824 2351.59,167 2366.04,157.764 
  2380.66,149.131 2395.44,141.117 2410.36,133.735 2425.41,126.998 2440.59,120.917 2455.88,115.503 2471.26,110.765 2486.72,106.71 2502.26,103.347 2517.85,100.68 
  2530.68,99.0158 2543.53,97.8255 2556.4,97.1108 2569.27,96.8724 
  "/>
</svg>
