<?xml version="1.0" encoding="utf-8"?>
<svg xmlns="http://www.w3.org/2000/svg" xmlns:xlink="http://www.w3.org/1999/xlink" width="672" height="480" viewBox="0 0 2688 1920">
<defs>
  <clipPath id="clip720">
    <rect x="0" y="0" width="2688" height="1920"/>
  </clipPath>
</defs>
<path clip-path="url(#clip720)" d="
M0 1920 L2688 1920 L2688 0 L0 0  Z
  " fill="#ffffff" fill-rule="evenodd" fill-opacity="1"/>
<defs>
  <clipPath id="clip721">
    <rect x="537" y="0" width="1883" height="1883"/>
  </clipPath>
</defs>
<path clip-path="url(#clip720)" d="
M150.937 1800.78 L2640.76 1800.78 L2640.76 47.2441 L150.937 47.2441  Z
  " fill="#ffffff" fill-rule="evenodd" fill-opacity="1"/>
<defs>
  <clipPath id="clip722">
    <rect x="150" y="47" width="2491" height="1755"/>
  </clipPath>
</defs>
<polyline clip-path="url(#clip722)" style="stroke:#000000; stroke-linecap:butt; stroke-linejoin:round; stroke-width:2; stroke-opacity:0.1; fill:none" points="
  221.393,1800.78 221.393,47.2441 
  "/>
<polyline clip-path="url(#clip722)" style="stroke:#000000; stroke-linecap:butt; stroke-linejoin:round; stroke-width:2; stroke-opacity:0.1; fill:none" points="
  612.876,1800.78 612.876,47.2441 
  "/>
<polyline clip-path="url(#clip722)" style="stroke:#000000; stroke-linecap:butt; stroke-linejoin:round; stroke-width:2; stroke-opacity:0.1; fill:none" points="
  1004.36,1800.78 1004.36,47.2441 
  "/>
<polyline clip-path="url(#clip722)" style="stroke:#000000; stroke-linecap:butt; stroke-linejoin:round; stroke-width:2; stroke-opacity:0.1; fill:none" points="
  1395.84,1800.78 1395.84,47.2441 
  "/>
<polyline clip-path="url(#clip722)" style="stroke:#000000; stroke-linecap:butt; stroke-linejoin:round; stroke-width:2; stroke-opacity:0.1; fill:none" points="
  1787.32,1800.78 1787.32,47.2441 
  "/>
<polyline clip-path="url(#clip722)" style="stroke:#000000; stroke-linecap:butt; stroke-linejoin:round; stroke-width:2; stroke-opacity:0.1; fill:none" points="
  2178.81,1800.78 2178.81,47.2441 
  "/>
<polyline clip-path="url(#clip722)" style="stroke:#000000; stroke-linecap:butt; stroke-linejoin:round; stroke-width:2; stroke-opacity:0.1; fill:none" points="
  2570.29,1800.78 2570.29,47.2441 
  "/>
<polyline clip-path="url(#clip720)" style="stroke:#000000; stroke-linecap:butt; stroke-linejoin:round; stroke-width:4; stroke-opacity:1; fill:none" points="
  150.937,1800.78 2640.76,1800.78 
  "/>
<polyline clip-path="url(#clip720)" style="stroke:#000000; stroke-linecap:butt; stroke-linejoin:round; stroke-width:4; stroke-opacity:1; fill:none" points="
  221.393,1800.78 221.393,1781.88 
  "/>
<polyline clip-path="url(#clip720)" style="stroke:#000000; stroke-linecap:butt; stroke-linejoin:round; stroke-width:4; stroke-opacity:1; fill:none" points="
  612.876,1800.78 612.876,1781.88 
  "/>
<polyline clip-path="url(#clip720)" style="stroke:#000000; stroke-linecap:butt; stroke-linejoin:round; stroke-width:4; stroke-opacity:1; fill:none" points="
  1004.36,1800.78 1004.36,1781.88 
  "/>
<polyline clip-path="url(#clip720)" style="stroke:#000000; stroke-linecap:butt; stroke-linejoin:round; stroke-width:4; stroke-opacity:1; fill:none" points="
  1395.84,1800.78 1395.84,1781.88 
  "/>
<polyline clip-path="url(#clip720)" style="stroke:#000000; stroke-linecap:butt; stroke-linejoin:round; stroke-width:4; stroke-opacity:1; fill:none" points="
  1787.32,1800.78 1787.32,1781.88 
  "/>
<polyline clip-path="url(#clip720)" style="stroke:#000000; stroke-linecap:butt; stroke-linejoin:round; stroke-width:4; stroke-opacity:1; fill:none" points="
  2178.81,1800.78 2178.81,1781.88 
  "/>
<polyline clip-path="url(#clip720)" style="stroke:#000000; stroke-linecap:butt; stroke-linejoin:round; stroke-width:4; stroke-opacity:1; fill:none" points="
  2570.29,1800.78 2570.29,1781.88 
  "/>
<path clip-path="url(#clip720)" d="M190.861 1848.65 L220.536 1848.65 L220.536 1852.59 L190.861 1852.59 L190.861 1848.65 Z" fill="#000000" fill-rule="evenodd" fill-opacity="1" /><path clip-path="url(#clip720)" d="M244.796 1846.85 Q248.152 1847.57 250.027 1849.84 Q251.925 1852.1 251.925 1855.44 Q251.925 1860.55 248.407 1863.35 Q244.888 1866.15 238.407 1866.15 Q236.231 1866.15 233.916 1865.71 Q231.624 1865.3 229.171 1864.44 L229.171 1859.93 Q231.115 1861.06 233.43 1861.64 Q235.745 1862.22 238.268 1862.22 Q242.666 1862.22 244.958 1860.48 Q247.272 1858.75 247.272 1855.44 Q247.272 1852.38 245.12 1850.67 Q242.99 1848.93 239.171 1848.93 L235.143 1848.93 L235.143 1845.09 L239.356 1845.09 Q242.805 1845.09 244.634 1843.72 Q246.462 1842.34 246.462 1839.74 Q246.462 1837.08 244.564 1835.67 Q242.689 1834.23 239.171 1834.23 Q237.249 1834.23 235.05 1834.65 Q232.851 1835.07 230.212 1835.95 L230.212 1831.78 Q232.874 1831.04 235.189 1830.67 Q237.527 1830.3 239.587 1830.3 Q244.911 1830.3 248.013 1832.73 Q251.115 1835.14 251.115 1839.26 Q251.115 1842.13 249.472 1844.12 Q247.828 1846.09 244.796 1846.85 Z" fill="#000000" fill-rule="evenodd" fill-opacity="1" /><path clip-path="url(#clip720)" d="M582.818 1848.65 L612.494 1848.65 L612.494 1852.59 L582.818 1852.59 L582.818 1848.65 Z" fill="#000000" fill-rule="evenodd" fill-opacity="1" /><path clip-path="url(#clip720)" d="M626.614 1861.55 L642.933 1861.55 L642.933 1865.48 L620.989 1865.48 L620.989 1861.55 Q623.651 1858.79 628.234 1854.16 Q632.841 1849.51 634.021 1848.17 Q636.267 1845.65 637.146 1843.91 Q638.049 1842.15 638.049 1840.46 Q638.049 1837.71 636.105 1835.97 Q634.183 1834.23 631.082 1834.23 Q628.883 1834.23 626.429 1835 Q623.998 1835.76 621.221 1837.31 L621.221 1832.59 Q624.045 1831.46 626.498 1830.88 Q628.952 1830.3 630.989 1830.3 Q636.359 1830.3 639.554 1832.98 Q642.748 1835.67 642.748 1840.16 Q642.748 1842.29 641.938 1844.21 Q641.151 1846.11 639.045 1848.7 Q638.466 1849.37 635.364 1852.59 Q632.262 1855.78 626.614 1861.55 Z" fill="#000000" fill-rule="evenodd" fill-opacity="1" /><path clip-path="url(#clip720)" d="M974.116 1848.65 L1003.79 1848.65 L1003.79 1852.59 L974.116 1852.59 L974.116 1848.65 Z" fill="#000000" fill-rule="evenodd" fill-opacity="1" /><path clip-path="url(#clip720)" d="M1014.69 1861.55 L1022.33 1861.55 L1022.33 1835.18 L1014.02 1836.85 L1014.02 1832.59 L1022.29 1830.92 L1026.96 1830.92 L1026.96 1861.55 L1034.6 1861.55 L1034.6 1865.48 L1014.69 1865.48 L1014.69 1861.55 Z" fill="#000000" fill-rule="evenodd" fill-opacity="1" /><path clip-path="url(#clip720)" d="M1395.84 1834 Q1392.23 1834 1390.4 1837.57 Q1388.6 1841.11 1388.6 1848.24 Q1388.6 1855.34 1390.4 1858.91 Q1392.23 1862.45 1395.84 1862.45 Q1399.48 1862.45 1401.28 1858.91 Q1403.11 1855.34 1403.11 1848.24 Q1403.11 1841.11 1401.28 1837.57 Q1399.48 1834 1395.84 1834 M1395.84 1830.3 Q1401.65 1830.3 1404.71 1834.9 Q1407.79 1839.49 1407.79 1848.24 Q1407.79 1856.96 1404.71 1861.57 Q1401.65 1866.15 1395.84 1866.15 Q1390.03 1866.15 1386.95 1861.57 Q1383.9 1856.96 1383.9 1848.24 Q1383.9 1839.49 1386.95 1834.9 Q1390.03 1830.3 1395.84 1830.3 Z" fill="#000000" fill-rule="evenodd" fill-opacity="1" /><path clip-path="url(#clip720)" d="M1777.71 1861.55 L1785.34 1861.55 L1785.34 1835.18 L1777.03 1836.85 L1777.03 1832.59 L1785.3 1830.92 L1789.97 1830.92 L1789.97 1861.55 L1797.61 1861.55 L1797.61 1865.48 L1777.71 1865.48 L1777.71 1861.55 Z" fill="#000000" fill-rule="evenodd" fill-opacity="1" /><path clip-path="url(#clip720)" d="M2173.46 1861.55 L2189.78 1861.55 L2189.78 1865.48 L2167.83 1865.48 L2167.83 1861.55 Q2170.5 1858.79 2175.08 1854.16 Q2179.69 1849.51 2180.87 1848.17 Q2183.11 1845.65 2183.99 1843.91 Q2184.89 1842.15 2184.89 1840.46 Q2184.89 1837.71 2182.95 1835.97 Q2181.03 1834.23 2177.93 1834.23 Q2175.73 1834.23 2173.27 1835 Q2170.84 1835.76 2168.07 1837.31 L2168.07 1832.59 Q2170.89 1831.46 2173.34 1830.88 Q2175.8 1830.3 2177.83 1830.3 Q2183.2 1830.3 2186.4 1832.98 Q2189.59 1835.67 2189.59 1840.16 Q2189.59 1842.29 2188.78 1844.21 Q2188 1846.11 2185.89 1848.7 Q2185.31 1849.37 2182.21 1852.59 Q2179.11 1855.78 2173.46 1861.55 Z" fill="#000000" fill-rule="evenodd" fill-opacity="1" /><path clip-path="url(#clip720)" d="M2574.54 1846.85 Q2577.89 1847.57 2579.77 1849.84 Q2581.67 1852.1 2581.67 1855.44 Q2581.67 1860.55 2578.15 1863.35 Q2574.63 1866.15 2568.15 1866.15 Q2565.97 1866.15 2563.66 1865.71 Q2561.37 1865.3 2558.91 1864.44 L2558.91 1859.93 Q2560.86 1861.06 2563.17 1861.64 Q2565.49 1862.22 2568.01 1862.22 Q2572.41 1862.22 2574.7 1860.48 Q2577.01 1858.75 2577.01 1855.44 Q2577.01 1852.38 2574.86 1850.67 Q2572.73 1848.93 2568.91 1848.93 L2564.88 1848.93 L2564.88 1845.09 L2569.1 1845.09 Q2572.55 1845.09 2574.37 1843.72 Q2576.2 1842.34 2576.2 1839.74 Q2576.2 1837.08 2574.31 1835.67 Q2572.43 1834.23 2568.91 1834.23 Q2566.99 1834.23 2564.79 1834.65 Q2562.59 1835.07 2559.95 1835.95 L2559.95 1831.78 Q2562.62 1831.04 2564.93 1830.67 Q2567.27 1830.3 2569.33 1830.3 Q2574.65 1830.3 2577.75 1832.73 Q2580.86 1835.14 2580.86 1839.26 Q2580.86 1842.13 2579.21 1844.12 Q2577.57 1846.09 2574.54 1846.85 Z" fill="#000000" fill-rule="evenodd" fill-opacity="1" /><polyline clip-path="url(#clip722)" style="stroke:#000000; stroke-linecap:butt; stroke-linejoin:round; stroke-width:2; stroke-opacity:0.1; fill:none" points="
  150.937,1751.16 2640.76,1751.16 
  "/>
<polyline clip-path="url(#clip722)" style="stroke:#000000; stroke-linecap:butt; stroke-linejoin:round; stroke-width:2; stroke-opacity:0.1; fill:none" points="
  150.937,1475.45 2640.76,1475.45 
  "/>
<polyline clip-path="url(#clip722)" style="stroke:#000000; stroke-linecap:butt; stroke-linejoin:round; stroke-width:2; stroke-opacity:0.1; fill:none" points="
  150.937,1199.73 2640.76,1199.73 
  "/>
<polyline clip-path="url(#clip722)" style="stroke:#000000; stroke-linecap:butt; stroke-linejoin:round; stroke-width:2; stroke-opacity:0.1; fill:none" points="
  150.937,924.011 2640.76,924.011 
  "/>
<polyline clip-path="url(#clip722)" style="stroke:#000000; stroke-linecap:butt; stroke-linejoin:round; stroke-width:2; stroke-opacity:0.1; fill:none" points="
  150.937,648.293 2640.76,648.293 
  "/>
<polyline clip-path="url(#clip722)" style="stroke:#000000; stroke-linecap:butt; stroke-linejoin:round; stroke-width:2; stroke-opacity:0.1; fill:none" points="
  150.937,372.576 2640.76,372.576 
  "/>
<polyline clip-path="url(#clip722)" style="stroke:#000000; stroke-linecap:butt; stroke-linejoin:round; stroke-width:2; stroke-opacity:0.1; fill:none" points="
  150.937,96.8587 2640.76,96.8587 
  "/>
<polyline clip-path="url(#clip720)" style="stroke:#000000; stroke-linecap:butt; stroke-linejoin:round; stroke-width:4; stroke-opacity:1; fill:none" points="
  150.937,1800.78 150.937,47.2441 
  "/>
<polyline clip-path="url(#clip720)" style="stroke:#000000; stroke-linecap:butt; stroke-linejoin:round; stroke-width:4; stroke-opacity:1; fill:none" points="
  150.937,1751.16 169.834,1751.16 
  "/>
<polyline clip-path="url(#clip720)" style="stroke:#000000; stroke-linecap:butt; stroke-linejoin:round; stroke-width:4; stroke-opacity:1; fill:none" points="
  150.937,1475.45 169.834,1475.45 
  "/>
<polyline clip-path="url(#clip720)" style="stroke:#000000; stroke-linecap:butt; stroke-linejoin:round; stroke-width:4; stroke-opacity:1; fill:none" points="
  150.937,1199.73 169.834,1199.73 
  "/>
<polyline clip-path="url(#clip720)" style="stroke:#000000; stroke-linecap:butt; stroke-linejoin:round; stroke-width:4; stroke-opacity:1; fill:none" points="
  150.937,924.011 169.834,924.011 
  "/>
<polyline clip-path="url(#clip720)" style="stroke:#000000; stroke-linecap:butt; stroke-linejoin:round; stroke-width:4; stroke-opacity:1; fill:none" points="
  150.937,648.293 169.834,648.293 
  "/>
<polyline clip-path="url(#clip720)" style="stroke:#000000; stroke-linecap:butt; stroke-linejoin:round; stroke-width:4; stroke-opacity:1; fill:none" points="
  150.937,372.576 169.834,372.576 
  "/>
<polyline clip-path="url(#clip720)" style="stroke:#000000; stroke-linecap:butt; stroke-linejoin:round; stroke-width:4; stroke-opacity:1; fill:none" points="
  150.937,96.8587 169.834,96.8587 
  "/>
<path clip-path="url(#clip720)" d="M49.5521 1751.61 L79.2279 1751.61 L79.2279 1755.55 L49.5521 1755.55 L49.5521 1751.61 Z" fill="#000000" fill-rule="evenodd" fill-opacity="1" /><path clip-path="url(#clip720)" d="M103.487 1749.81 Q106.843 1750.53 108.718 1752.79 Q110.617 1755.06 110.617 1758.4 Q110.617 1763.51 107.098 1766.31 Q103.58 1769.11 97.0982 1769.11 Q94.9223 1769.11 92.6075 1768.67 Q90.3158 1768.26 87.8621 1767.4 L87.8621 1762.89 Q89.8065 1764.02 92.1213 1764.6 Q94.4361 1765.18 96.9593 1765.18 Q101.357 1765.18 103.649 1763.44 Q105.964 1761.71 105.964 1758.4 Q105.964 1755.34 103.811 1753.63 Q101.681 1751.89 97.8621 1751.89 L93.8343 1751.89 L93.8343 1748.05 L98.0472 1748.05 Q101.496 1748.05 103.325 1746.68 Q105.154 1745.29 105.154 1742.7 Q105.154 1740.04 103.256 1738.63 Q101.381 1737.19 97.8621 1737.19 Q95.9408 1737.19 93.7417 1737.61 Q91.5426 1738.03 88.9038 1738.91 L88.9038 1734.74 Q91.5658 1734 93.8806 1733.63 Q96.2185 1733.26 98.2787 1733.26 Q103.603 1733.26 106.705 1735.69 Q109.806 1738.1 109.806 1742.22 Q109.806 1745.09 108.163 1747.08 Q106.519 1749.04 103.487 1749.81 Z" fill="#000000" fill-rule="evenodd" fill-opacity="1" /><path clip-path="url(#clip720)" d="M50.5012 1475.9 L80.177 1475.9 L80.177 1479.83 L50.5012 1479.83 L50.5012 1475.9 Z" fill="#000000" fill-rule="evenodd" fill-opacity="1" /><path clip-path="url(#clip720)" d="M94.2973 1488.79 L110.617 1488.79 L110.617 1492.73 L88.6723 1492.73 L88.6723 1488.79 Q91.3343 1486.04 95.9176 1481.41 Q100.524 1476.75 101.705 1475.41 Q103.95 1472.89 104.83 1471.15 Q105.732 1469.39 105.732 1467.7 Q105.732 1464.95 103.788 1463.21 Q101.867 1461.48 98.7648 1461.48 Q96.5658 1461.48 94.1121 1462.24 Q91.6815 1463 88.9038 1464.55 L88.9038 1459.83 Q91.7278 1458.7 94.1815 1458.12 Q96.6352 1457.54 98.6722 1457.54 Q104.043 1457.54 107.237 1460.23 Q110.431 1462.91 110.431 1467.4 Q110.431 1469.53 109.621 1471.45 Q108.834 1473.35 106.728 1475.94 Q106.149 1476.61 103.047 1479.83 Q99.9454 1483.03 94.2973 1488.79 Z" fill="#000000" fill-rule="evenodd" fill-opacity="1" /><path clip-path="url(#clip720)" d="M50.1308 1200.18 L79.8066 1200.18 L79.8066 1204.11 L50.1308 1204.11 L50.1308 1200.18 Z" fill="#000000" fill-rule="evenodd" fill-opacity="1" /><path clip-path="url(#clip720)" d="M90.7093 1213.07 L98.3482 1213.07 L98.3482 1186.71 L90.038 1188.37 L90.038 1184.11 L98.3019 1182.45 L102.978 1182.45 L102.978 1213.07 L110.617 1213.07 L110.617 1217.01 L90.7093 1217.01 L90.7093 1213.07 Z" fill="#000000" fill-rule="evenodd" fill-opacity="1" /><path clip-path="url(#clip720)" d="M98.6722 909.809 Q95.0611 909.809 93.2324 913.374 Q91.4269 916.916 91.4269 924.046 Q91.4269 931.152 93.2324 934.717 Q95.0611 938.258 98.6722 938.258 Q102.306 938.258 104.112 934.717 Q105.941 931.152 105.941 924.046 Q105.941 916.916 104.112 913.374 Q102.306 909.809 98.6722 909.809 M98.6722 906.106 Q104.482 906.106 107.538 910.712 Q110.617 915.296 110.617 924.046 Q110.617 932.772 107.538 937.379 Q104.482 941.962 98.6722 941.962 Q92.8621 941.962 89.7834 937.379 Q86.7279 932.772 86.7279 924.046 Q86.7279 915.296 89.7834 910.712 Q92.8621 906.106 98.6722 906.106 Z" fill="#000000" fill-rule="evenodd" fill-opacity="1" /><path clip-path="url(#clip720)" d="M90.7093 661.638 L98.3482 661.638 L98.3482 635.273 L90.038 636.939 L90.038 632.68 L98.3019 631.013 L102.978 631.013 L102.978 661.638 L110.617 661.638 L110.617 665.573 L90.7093 665.573 L90.7093 661.638 Z" fill="#000000" fill-rule="evenodd" fill-opacity="1" /><path clip-path="url(#clip720)" d="M94.2973 385.921 L110.617 385.921 L110.617 389.856 L88.6723 389.856 L88.6723 385.921 Q91.3343 383.166 95.9176 378.537 Q100.524 373.884 101.705 372.541 Q103.95 370.018 104.83 368.282 Q105.732 366.523 105.732 364.833 Q105.732 362.078 103.788 360.342 Q101.867 358.606 98.7648 358.606 Q96.5658 358.606 94.1121 359.37 Q91.6815 360.134 88.9038 361.685 L88.9038 356.963 Q91.7278 355.828 94.1815 355.25 Q96.6352 354.671 98.6722 354.671 Q104.043 354.671 107.237 357.356 Q110.431 360.041 110.431 364.532 Q110.431 366.662 109.621 368.583 Q108.834 370.481 106.728 373.074 Q106.149 373.745 103.047 376.963 Q99.9454 380.157 94.2973 385.921 Z" fill="#000000" fill-rule="evenodd" fill-opacity="1" /><path clip-path="url(#clip720)" d="M103.487 95.5045 Q106.843 96.2221 108.718 98.4906 Q110.617 100.759 110.617 104.092 Q110.617 109.208 107.098 112.009 Q103.58 114.81 97.0982 114.81 Q94.9223 114.81 92.6075 114.37 Q90.3158 113.953 87.8621 113.097 L87.8621 108.583 Q89.8065 109.717 92.1213 110.296 Q94.4361 110.875 96.9593 110.875 Q101.357 110.875 103.649 109.139 Q105.964 107.403 105.964 104.092 Q105.964 101.037 103.811 99.3239 Q101.681 97.5878 97.8621 97.5878 L93.8343 97.5878 L93.8343 93.7452 L98.0472 93.7452 Q101.496 93.7452 103.325 92.3795 Q105.154 90.9906 105.154 88.398 Q105.154 85.736 103.256 84.324 Q101.381 82.8888 97.8621 82.8888 Q95.9408 82.8888 93.7417 83.3055 Q91.5426 83.7221 88.9038 84.6018 L88.9038 80.4351 Q91.5658 79.6944 93.8806 79.324 Q96.2185 78.9537 98.2787 78.9537 Q103.603 78.9537 106.705 81.3842 Q109.806 83.7916 109.806 87.9119 Q109.806 90.7823 108.163 92.773 Q106.519 94.7406 103.487 95.5045 Z" fill="#000000" fill-rule="evenodd" fill-opacity="1" /><polyline clip-path="url(#clip722)" style="stroke:#009af9; stroke-linecap:butt; stroke-linejoin:round; stroke-width:4; stroke-opacity:1; fill:none" points="
  2570.29,924.011 2570.04,907.094 2569.31,890.184 2568.08,873.288 2566.36,856.414 2560.52,817.526 2552.07,778.877 2541.04,740.552 2527.45,702.637 2511.33,665.217 
  2492.71,628.376 2471.65,592.195 2448.18,556.755 2422.36,522.137 2394.24,488.416 2363.89,455.67 2331.38,423.97 2296.78,393.387 2260.17,363.991 2221.62,335.846 
  2181.23,309.016 2130.36,278.592 2077.13,250.252 2021.69,224.088 1964.24,200.183 1904.95,178.614 1844.02,159.453 1781.64,142.759 1718.01,128.588 1663.39,118.609 
  1608.16,110.488 1552.44,104.245 1496.36,99.8936 1440.04,97.4446 1383.62,96.9034 1327.23,98.2712 1271,101.545 1210.25,107.252 1150,115.183 1090.43,125.317 
  1031.68,137.626 973.928,152.076 917.323,168.629 862.022,187.239 808.174,207.856 759.946,228.592 713.19,250.938 668.014,274.842 624.523,300.248 582.817,327.098 
  542.993,355.33 505.143,384.879 469.355,415.675 433.371,449.997 399.947,485.58 369.173,522.33 341.131,560.148 315.894,598.934 293.531,638.585 274.101,678.996 
  257.655,720.058 242.389,768.304 231.243,817.107 224.256,866.29 221.453,915.68 222.843,965.1 228.422,1014.37 238.17,1063.32 252.053,1111.78 267.82,1154.28 
  286.768,1196.13 308.844,1237.22 333.987,1277.42 362.124,1316.62 393.176,1354.72 427.057,1391.6 463.67,1427.16 497.944,1457.19 534.165,1486.05 572.255,1513.7 
  612.132,1540.06 653.708,1565.1 696.894,1588.74 741.596,1610.93 787.717,1631.64 839.501,1652.47 892.719,1671.42 947.235,1688.44 1002.91,1703.5 1059.59,1716.54 
  1117.14,1727.54 1175.41,1736.46 1234.25,1743.3 1293.86,1748.04 1353.73,1750.63 1413.72,1751.07 1473.66,1749.35 1533.39,1745.47 1592.77,1739.45 1651.63,1731.31 
  1709.82,1721.06 1773.21,1707.3 1835.38,1691.05 1896.16,1672.35 1955.34,1651.27 2012.74,1627.87 2068.17,1602.22 2121.45,1574.41 2172.43,1544.52 2218.63,1514.25 
  2262.45,1482.27 2303.78,1448.68 2342.48,1413.58 2378.45,1377.06 2411.59,1339.24 2441.79,1300.22 2468.97,1260.11 2493.94,1217.37 2515.49,1173.73 2533.54,1129.3 
  2548.05,1084.23 2558.95,1038.66 2566.23,992.736 2569.85,946.596 2569.81,900.385 2566.93,861.536 2561.47,822.826 2553.42,784.339 2542.82,746.162 2529.68,708.378 
  2514.03,671.07 2495.91,634.323 2475.35,598.216 2447.02,555.118 2415.23,513.236 2380.07,472.709 2341.68,433.669 2300.16,396.245 2255.66,360.562 2208.33,326.736 
  2158.32,294.879 2110.29,267.514 2060.29,241.965 2008.46,218.302 1954.92,196.593 1899.84,176.895 1843.37,159.265 1785.66,143.75 1726.87,130.394 1671.75,120.008 
  1615.98,111.52 1559.7,104.949 1503.03,100.311 1446.1,97.6164 1389.06,96.8724 1332.03,98.0805 1275.15,101.238 1217.83,106.415 1160.94,113.573 1104.61,122.693 
  1048.99,133.753 994.214,146.727 940.408,161.583 887.704,178.286 836.231,196.794 780.161,219.627 725.962,244.602 673.801,271.644 623.837,300.669 576.219,331.591 
  531.095,364.314 488.601,398.739 448.866,434.762 415.343,468.692 384.27,503.76 355.723,539.877 329.773,576.954 306.486,614.897 285.919,653.613 268.125,693.003 
  253.147,732.971 239.504,779.311 229.646,826.124 223.606,873.258 221.403,920.558 223.045,967.87 228.526,1015.04 237.829,1061.91 250.922,1108.33 266.388,1150.77 
  285.024,1192.58 306.778,1233.63 331.588,1273.82 359.385,1313.02 390.091,1351.14 423.62,1388.05 459.877,1423.66 498.195,1457.4 538.961,1489.68 582.064,1520.41 
  627.388,1549.53 674.808,1576.93 724.195,1602.55 775.414,1626.33 828.325,1648.18 881.18,1667.51 935.359,1684.93 990.722,1700.39 1047.13,1713.86 1104.43,1725.3 
  1162.48,1734.67 1221.13,1741.96 1280.23,1747.15 1341.12,1750.26 1402.16,1751.15 1463.19,1749.8 1524.03,1746.22 1584.52,1740.42 1644.51,1732.41 1703.82,1722.22 
  1762.3,1709.87 1825.23,1693.9 1886.77,1675.43 1946.71,1654.53 2004.87,1631.26 2061.05,1605.69 2115.08,1577.91 2166.77,1548.01 2215.96,1516.09 2250.03,1491.69 
  2282.64,1466.32 2313.73,1440.03 2343.25,1412.85 2371.14,1384.83 2397.37,1356.03 2421.89,1326.48 2444.64,1296.25 2465.61,1265.38 2484.74,1233.92 2502.01,1201.94 
  2517.38,1169.48 2530.84,1136.6 2542.35,1103.35 2551.9,1069.8 2559.48,1036 2564.2,1008.11 2567.58,980.133 2569.61,952.088 2570.29,924.011 
  "/>
<polyline clip-path="url(#clip722)" style="stroke:#e26f46; stroke-linecap:butt; stroke-linejoin:round; stroke-width:12; stroke-opacity:1; fill:none" points="
  2570.29,1199.73 2570.28,1182.81 2570.25,1165.9 2570.16,1149 2569.99,1132.12 2567.47,1054.38 2560.78,977.354 2555.41,939.181 2548.5,901.279 2539.94,863.685 
  2529.64,826.437 2517.53,789.583 2503.54,753.169 2487.64,717.249 2469.8,681.878 2449.99,647.114 2428.21,613.016 2404.45,579.647 2378.74,547.069 2345.28,509.048 
  2309.07,472.37 2270.18,437.144 2228.7,403.475 2184.73,371.467 2138.38,341.221 2089.77,312.832 2039.03,286.391 1994.59,265.619 1948.82,246.348 1901.83,228.625 
  1853.71,212.49 1804.57,197.982 1754.52,185.135 1703.67,173.979 1652.13,164.543 1595.5,156.265 1538.34,150.066 1480.81,145.964 1423.06,143.97 1365.25,144.091 
  1307.52,146.328 1250.05,150.675 1192.97,157.122 1140.84,164.911 1089.31,174.453 1038.48,185.727 988.489,198.705 939.438,213.36 891.443,229.657 844.617,247.558 
  799.067,267.024 751.77,289.579 706.187,313.82 662.438,339.683 620.64,367.099 580.904,395.995 543.337,426.296 508.037,457.92 475.098,490.783 440.004,530.293 
  408.323,571.208 380.169,613.383 355.64,656.666 334.826,700.904 317.801,745.938 304.625,791.608 295.346,837.75 290.397,879.02 288.566,920.416 289.857,961.822 
  294.268,1003.12 301.785,1044.2 312.389,1084.94 326.048,1125.22 342.724,1164.94 359.793,1199.21 379.11,1232.88 400.632,1265.89 424.313,1298.15 450.1,1329.6 
  477.939,1360.18 507.769,1389.8 539.525,1418.42 576.261,1448.39 615.111,1477.02 655.973,1504.21 698.743,1529.91 743.309,1554.05 789.559,1576.57 837.371,1597.4 
  886.623,1616.5 937.492,1633.91 989.557,1649.46 1042.68,1663.13 1096.73,1674.87 1151.55,1684.64 1207.02,1692.43 1262.97,1698.22 1319.28,1701.99 1381.75,1703.79 
  1444.28,1703.11 1506.64,1699.94 1568.66,1694.3 1630.12,1686.2 1690.83,1675.67 1750.61,1662.75 1809.25,1647.46 1863.83,1630.78 1917.06,1612.06 1968.78,1591.35 
  2018.84,1568.71 2067.11,1544.21 2113.44,1517.92 2157.7,1489.92 2199.76,1460.28 2241.03,1427.83 2279.66,1393.8 2315.53,1358.3 2348.53,1321.45 2378.56,1283.36 
  2405.52,1244.15 2429.33,1203.94 2449.91,1162.85 2464.69,1127.68 2477.11,1092.07 2487.13,1056.07 2494.74,1019.79 2499.92,983.297 2502.65,946.671 2502.94,909.995 
  2500.78,873.351 2494.83,828.771 2485.26,784.506 2472.1,740.701 2455.38,697.499 2435.18,655.045 2411.55,613.477 2384.57,572.933 2354.33,533.547 2323.85,498.593 
  2290.81,464.815 2255.29,432.309 2217.39,401.162 2177.22,371.462 2134.89,343.291 2090.51,316.726 2044.21,291.842 1999.86,270.411 1954.08,250.522 1906.98,232.223 
  1858.67,215.557 1809.27,200.563 1758.9,187.275 1707.67,175.727 1655.7,165.944 1602.44,157.858 1548.67,151.628 1494.54,147.268 1440.16,144.789 1385.68,144.197 
  1331.22,145.493 1276.92,148.675 1222.91,153.734 1162.88,161.619 1103.56,171.823 1045.13,184.315 987.763,199.056 931.639,216.003 876.927,235.102 823.793,256.297 
  772.399,279.522 727.461,302.263 684.192,326.557 642.7,352.342 603.09,379.556 565.459,408.129 529.902,437.99 496.507,469.065 465.359,501.277 432.554,539.448 
  402.902,578.878 376.501,619.438 353.437,660.995 333.785,703.414 317.61,746.554 304.964,790.275 295.89,834.434 290.698,875.586 288.607,916.874 289.624,958.182 
  293.746,999.393 300.961,1040.39 311.249,1081.07 324.58,1121.3 340.919,1160.98 359.925,1199.45 381.757,1237.17 406.356,1274.03 433.653,1309.94 463.576,1344.79 
  496.041,1378.5 530.962,1410.97 568.241,1442.11 606.598,1470.99 646.984,1498.46 689.295,1524.46 733.424,1548.92 779.256,1571.76 826.674,1592.94 875.555,1612.41 
  925.775,1630.1 978.51,1646.35 1032.37,1660.65 1087.22,1672.95 1142.9,1683.24 1199.26,1691.47 1256.15,1697.63 1313.42,1701.69 1370.92,1703.66 1433.98,1703.39 
  1496.92,1700.6 1559.53,1695.29 1621.61,1687.47 1682.96,1677.18 1743.38,1664.45 1802.67,1649.31 1860.64,1631.83 1901.81,1617.68 1942.11,1602.35 1981.48,1585.85 
  2019.85,1568.23 2057.15,1549.5 2093.32,1529.7 2128.29,1508.86 2162.01,1487.03 2225.46,1440.5 2283.24,1390.44 2334.94,1337.19 2380.21,1281.11 2396.86,1257.37 
  2412.35,1233.25 2426.66,1208.77 2439.8,1183.96 
  "/>
<polyline clip-path="url(#clip722)" style="stroke:#000000; stroke-linecap:butt; stroke-linejoin:round; stroke-width:12; stroke-opacity:1; fill:none" points="
  2570.29,1199.73 2570.29,924.011 
  "/>
<polyline clip-path="url(#clip722)" style="stroke:#000000; stroke-linecap:butt; stroke-linejoin:round; stroke-width:12; stroke-opacity:1; fill:none" points="
  2071.66,303.043 1758.77,137.342 
  "/>
<polyline clip-path="url(#clip722)" style="stroke:#000000; stroke-linecap:butt; stroke-linejoin:round; stroke-width:12; stroke-opacity:1; fill:none" points="
  768.154,281.481 445.693,437.823 
  "/>
<polyline clip-path="url(#clip722)" style="stroke:#000000; stroke-linecap:butt; stroke-linejoin:round; stroke-width:12; stroke-opacity:1; fill:none" points="
  334.314,1145.88 445.693,1410.2 
  "/>
<polyline clip-path="url(#clip722)" style="stroke:#000000; stroke-linecap:butt; stroke-linejoin:round; stroke-width:12; stroke-opacity:1; fill:none" points="
  1367.41,1703.6 1758.77,1710.68 
  "/>
<polyline clip-path="url(#clip722)" style="stroke:#000000; stroke-linecap:butt; stroke-linejoin:round; stroke-width:12; stroke-opacity:1; fill:none" points="
  2439.8,1183.96 2570.29,924.011 
  "/>
<polyline clip-path="url(#clip722)" style="stroke:#000000; stroke-linecap:butt; stroke-linejoin:round; stroke-width:12; stroke-opacity:1; fill:none" points="
  2069.47,305.079 1758.77,137.342 
  "/>
<polyline clip-path="url(#clip722)" style="stroke:#000000; stroke-linecap:butt; stroke-linejoin:round; stroke-width:12; stroke-opacity:1; fill:none" points="
  768.212,281.541 445.693,437.823 
  "/>
<polyline clip-path="url(#clip722)" style="stroke:#000000; stroke-linecap:butt; stroke-linejoin:round; stroke-width:12; stroke-opacity:1; fill:none" points="
  334.317,1145.87 445.693,1410.2 
  "/>
<polyline clip-path="url(#clip722)" style="stroke:#000000; stroke-linecap:butt; stroke-linejoin:round; stroke-width:12; stroke-opacity:1; fill:none" points="
  1367.41,1703.6 1758.77,1710.68 
  "/>
<polyline clip-path="url(#clip722)" style="stroke:#000000; stroke-linecap:butt; stroke-linejoin:round; stroke-width:12; stroke-opacity:1; fill:none" points="
  2439.8,1183.96 2570.29,924.011 
  "/>
</svg>
