<?xml version="1.0" encoding="utf-8"?>
<svg xmlns="http://www.w3.org/2000/svg" xmlns:xlink="http://www.w3.org/1999/xlink" width="672" height="480" viewBox="0 0 2688 1920">
<defs>
  <clipPath id="clip810">
    <rect x="0" y="0" width="2688" height="1920"/>
  </clipPath>
</defs>
<path clip-path="url(#clip810)" d="
M0 1920 L2688 1920 L2688 0 L0 0  Z
  " fill="#ffffff" fill-rule="evenodd" fill-opacity="1"/>
<defs>
  <clipPath id="clip811">
    <rect x="537" y="0" width="1883" height="1883"/>
  </clipPath>
</defs>
<defs>
  <clipPath id="clip812">
    <rect x="187" y="47" width="2455" height="1755"/>
  </clipPath>
</defs>
<path clip-path="url(#clip812)" d="
M1391.9 961.594 L1391.9 933.34 L1408.02 919.214 L1435.94 927.37 L1435.94 955.623 L1419.82 969.75 L1391.9 961.594  Z
  " fill="#ffffff" fill-rule="evenodd" fill-opacity="1"/>
<polyline clip-path="url(#clip812)" style="stroke:#000000; stroke-linecap:butt; stroke-linejoin:round; stroke-width:2; stroke-opacity:0.1; fill:none" points="
  741.973,1460.68 1248.18,1022.3 
  "/>
<polyline clip-path="url(#clip812)" style="stroke:#000000; stroke-linecap:butt; stroke-linejoin:round; stroke-width:2; stroke-opacity:0.1; fill:none" points="
  1248.18,1022.3 1248.18,145.528 
  "/>
<polyline clip-path="url(#clip812)" style="stroke:#000000; stroke-linecap:butt; stroke-linejoin:round; stroke-width:2; stroke-opacity:0.1; fill:none" points="
  881.587,1500.98 1387.79,1062.6 
  "/>
<polyline clip-path="url(#clip812)" style="stroke:#000000; stroke-linecap:butt; stroke-linejoin:round; stroke-width:2; stroke-opacity:0.1; fill:none" points="
  1387.79,1062.6 1387.79,185.831 
  "/>
<polyline clip-path="url(#clip812)" style="stroke:#000000; stroke-linecap:butt; stroke-linejoin:round; stroke-width:2; stroke-opacity:0.1; fill:none" points="
  1021.2,1541.28 1527.4,1102.9 
  "/>
<polyline clip-path="url(#clip812)" style="stroke:#000000; stroke-linecap:butt; stroke-linejoin:round; stroke-width:2; stroke-opacity:0.1; fill:none" points="
  1527.4,1102.9 1527.4,226.134 
  "/>
<polyline clip-path="url(#clip812)" style="stroke:#000000; stroke-linecap:butt; stroke-linejoin:round; stroke-width:2; stroke-opacity:0.1; fill:none" points="
  1160.81,1581.59 1667.02,1143.2 
  "/>
<polyline clip-path="url(#clip812)" style="stroke:#000000; stroke-linecap:butt; stroke-linejoin:round; stroke-width:2; stroke-opacity:0.1; fill:none" points="
  1667.02,1143.2 1667.02,266.436 
  "/>
<polyline clip-path="url(#clip812)" style="stroke:#000000; stroke-linecap:butt; stroke-linejoin:round; stroke-width:2; stroke-opacity:0.1; fill:none" points="
  1300.43,1621.89 1806.63,1183.51 
  "/>
<polyline clip-path="url(#clip812)" style="stroke:#000000; stroke-linecap:butt; stroke-linejoin:round; stroke-width:2; stroke-opacity:0.1; fill:none" points="
  1806.63,1183.51 1806.63,306.739 
  "/>
<polyline clip-path="url(#clip812)" style="stroke:#000000; stroke-linecap:butt; stroke-linejoin:round; stroke-width:2; stroke-opacity:0.1; fill:none" points="
  1440.04,1662.19 1946.24,1223.81 
  "/>
<polyline clip-path="url(#clip812)" style="stroke:#000000; stroke-linecap:butt; stroke-linejoin:round; stroke-width:2; stroke-opacity:0.1; fill:none" points="
  1946.24,1223.81 1946.24,347.042 
  "/>
<polyline clip-path="url(#clip812)" style="stroke:#000000; stroke-linecap:butt; stroke-linejoin:round; stroke-width:2; stroke-opacity:0.1; fill:none" points="
  1579.65,1702.5 2085.86,1264.11 
  "/>
<polyline clip-path="url(#clip812)" style="stroke:#000000; stroke-linecap:butt; stroke-linejoin:round; stroke-width:2; stroke-opacity:0.1; fill:none" points="
  2085.86,1264.11 2085.86,387.345 
  "/>
<polyline clip-path="url(#clip810)" style="stroke:#000000; stroke-linecap:butt; stroke-linejoin:round; stroke-width:4; stroke-opacity:1; fill:none" points="
  722.428,1455.04 1599.2,1708.14 
  "/>
<polyline clip-path="url(#clip810)" style="stroke:#000000; stroke-linecap:butt; stroke-linejoin:round; stroke-width:4; stroke-opacity:1; fill:none" points="
  741.973,1460.68 748.048,1455.42 
  "/>
<polyline clip-path="url(#clip810)" style="stroke:#000000; stroke-linecap:butt; stroke-linejoin:round; stroke-width:4; stroke-opacity:1; fill:none" points="
  881.587,1500.98 887.661,1495.72 
  "/>
<polyline clip-path="url(#clip810)" style="stroke:#000000; stroke-linecap:butt; stroke-linejoin:round; stroke-width:4; stroke-opacity:1; fill:none" points="
  1021.2,1541.28 1027.27,1536.02 
  "/>
<polyline clip-path="url(#clip810)" style="stroke:#000000; stroke-linecap:butt; stroke-linejoin:round; stroke-width:4; stroke-opacity:1; fill:none" points="
  1160.81,1581.59 1166.89,1576.33 
  "/>
<polyline clip-path="url(#clip810)" style="stroke:#000000; stroke-linecap:butt; stroke-linejoin:round; stroke-width:4; stroke-opacity:1; fill:none" points="
  1300.43,1621.89 1306.5,1616.63 
  "/>
<polyline clip-path="url(#clip810)" style="stroke:#000000; stroke-linecap:butt; stroke-linejoin:round; stroke-width:4; stroke-opacity:1; fill:none" points="
  1440.04,1662.19 1446.12,1656.93 
  "/>
<polyline clip-path="url(#clip810)" style="stroke:#000000; stroke-linecap:butt; stroke-linejoin:round; stroke-width:4; stroke-opacity:1; fill:none" points="
  1579.65,1702.5 1585.73,1697.24 
  "/>
<path clip-path="url(#clip810)" d="M641.055 1492.09 L670.731 1492.09 L670.731 1496.03 L641.055 1496.03 L641.055 1492.09 Z" fill="#000000" fill-rule="evenodd" fill-opacity="1" /><path clip-path="url(#clip810)" d="M694.99 1490.29 Q698.346 1491 700.221 1493.27 Q702.119 1495.54 702.119 1498.87 Q702.119 1503.99 698.601 1506.79 Q695.082 1509.59 688.601 1509.59 Q686.425 1509.59 684.11 1509.15 Q681.819 1508.74 679.365 1507.88 L679.365 1503.37 Q681.309 1504.5 683.624 1505.08 Q685.939 1505.66 688.462 1505.66 Q692.86 1505.66 695.152 1503.92 Q697.467 1502.19 697.467 1498.87 Q697.467 1495.82 695.314 1494.11 Q693.184 1492.37 689.365 1492.37 L685.337 1492.37 L685.337 1488.53 L689.55 1488.53 Q692.999 1488.53 694.828 1487.16 Q696.656 1485.77 696.656 1483.18 Q696.656 1480.52 694.758 1479.11 Q692.883 1477.67 689.365 1477.67 Q687.444 1477.67 685.244 1478.09 Q683.045 1478.5 680.407 1479.38 L680.407 1475.22 Q683.069 1474.48 685.383 1474.11 Q687.721 1473.74 689.782 1473.74 Q695.106 1473.74 698.207 1476.17 Q701.309 1478.57 701.309 1482.69 Q701.309 1485.56 699.666 1487.56 Q698.022 1489.52 694.99 1490.29 Z" fill="#000000" fill-rule="evenodd" fill-opacity="1" /><path clip-path="url(#clip810)" d="M720.985 1477.44 Q717.374 1477.44 715.545 1481 Q713.74 1484.55 713.74 1491.68 Q713.74 1498.78 715.545 1502.35 Q717.374 1505.89 720.985 1505.89 Q724.619 1505.89 726.425 1502.35 Q728.254 1498.78 728.254 1491.68 Q728.254 1484.55 726.425 1481 Q724.619 1477.44 720.985 1477.44 M720.985 1473.74 Q726.795 1473.74 729.851 1478.34 Q732.929 1482.93 732.929 1491.68 Q732.929 1500.4 729.851 1505.01 Q726.795 1509.59 720.985 1509.59 Q715.175 1509.59 712.096 1505.01 Q709.041 1500.4 709.041 1491.68 Q709.041 1482.93 712.096 1478.34 Q715.175 1473.74 720.985 1473.74 Z" fill="#000000" fill-rule="evenodd" fill-opacity="1" /><path clip-path="url(#clip810)" d="M780.668 1532.4 L810.344 1532.4 L810.344 1536.33 L780.668 1536.33 L780.668 1532.4 Z" fill="#000000" fill-rule="evenodd" fill-opacity="1" /><path clip-path="url(#clip810)" d="M824.464 1545.29 L840.784 1545.29 L840.784 1549.22 L818.84 1549.22 L818.84 1545.29 Q821.502 1542.53 826.085 1537.9 Q830.691 1533.25 831.872 1531.91 Q834.117 1529.39 834.997 1527.65 Q835.9 1525.89 835.9 1524.2 Q835.9 1521.45 833.955 1519.71 Q832.034 1517.97 828.932 1517.97 Q826.733 1517.97 824.279 1518.74 Q821.849 1519.5 819.071 1521.05 L819.071 1516.33 Q821.895 1515.2 824.349 1514.62 Q826.802 1514.04 828.839 1514.04 Q834.21 1514.04 837.404 1516.72 Q840.599 1519.41 840.599 1523.9 Q840.599 1526.03 839.788 1527.95 Q839.001 1529.85 836.895 1532.44 Q836.316 1533.11 833.214 1536.33 Q830.113 1539.53 824.464 1545.29 Z" fill="#000000" fill-rule="evenodd" fill-opacity="1" /><path clip-path="url(#clip810)" d="M860.599 1517.74 Q856.987 1517.74 855.159 1521.31 Q853.353 1524.85 853.353 1531.98 Q853.353 1539.09 855.159 1542.65 Q856.987 1546.19 860.599 1546.19 Q864.233 1546.19 866.038 1542.65 Q867.867 1539.09 867.867 1531.98 Q867.867 1524.85 866.038 1521.31 Q864.233 1517.74 860.599 1517.74 M860.599 1514.04 Q866.409 1514.04 869.464 1518.65 Q872.543 1523.23 872.543 1531.98 Q872.543 1540.71 869.464 1545.31 Q866.409 1549.9 860.599 1549.9 Q854.788 1549.9 851.71 1545.31 Q848.654 1540.71 848.654 1531.98 Q848.654 1523.23 851.71 1518.65 Q854.788 1514.04 860.599 1514.04 Z" fill="#000000" fill-rule="evenodd" fill-opacity="1" /><path clip-path="url(#clip810)" d="M920.282 1572.7 L949.958 1572.7 L949.958 1576.63 L920.282 1576.63 L920.282 1572.7 Z" fill="#000000" fill-rule="evenodd" fill-opacity="1" /><path clip-path="url(#clip810)" d="M960.86 1585.59 L968.499 1585.59 L968.499 1559.23 L960.189 1560.89 L960.189 1556.63 L968.453 1554.97 L973.129 1554.97 L973.129 1585.59 L980.768 1585.59 L980.768 1589.53 L960.86 1589.53 L960.86 1585.59 Z" fill="#000000" fill-rule="evenodd" fill-opacity="1" /><path clip-path="url(#clip810)" d="M1000.21 1558.05 Q996.601 1558.05 994.772 1561.61 Q992.967 1565.15 992.967 1572.28 Q992.967 1579.39 994.772 1582.95 Q996.601 1586.49 1000.21 1586.49 Q1003.85 1586.49 1005.65 1582.95 Q1007.48 1579.39 1007.48 1572.28 Q1007.48 1565.15 1005.65 1561.61 Q1003.85 1558.05 1000.21 1558.05 M1000.21 1554.34 Q1006.02 1554.34 1009.08 1558.95 Q1012.16 1563.53 1012.16 1572.28 Q1012.16 1581.01 1009.08 1585.62 Q1006.02 1590.2 1000.21 1590.2 Q994.402 1590.2 991.323 1585.62 Q988.268 1581.01 988.268 1572.28 Q988.268 1563.53 991.323 1558.95 Q994.402 1554.34 1000.21 1554.34 Z" fill="#000000" fill-rule="evenodd" fill-opacity="1" /><path clip-path="url(#clip810)" d="M1139.83 1598.35 Q1136.21 1598.35 1134.39 1601.91 Q1132.58 1605.46 1132.58 1612.58 Q1132.58 1619.69 1134.39 1623.26 Q1136.21 1626.8 1139.83 1626.8 Q1143.46 1626.8 1145.27 1623.26 Q1147.09 1619.69 1147.09 1612.58 Q1147.09 1605.46 1145.27 1601.91 Q1143.46 1598.35 1139.83 1598.35 M1139.83 1594.65 Q1145.64 1594.65 1148.69 1599.25 Q1151.77 1603.83 1151.77 1612.58 Q1151.77 1621.31 1148.69 1625.92 Q1145.64 1630.5 1139.83 1630.5 Q1134.02 1630.5 1130.94 1625.92 Q1127.88 1621.31 1127.88 1612.58 Q1127.88 1603.83 1130.94 1599.25 Q1134.02 1594.65 1139.83 1594.65 Z" fill="#000000" fill-rule="evenodd" fill-opacity="1" /><path clip-path="url(#clip810)" d="M1240.09 1666.2 L1247.73 1666.2 L1247.73 1639.83 L1239.42 1641.5 L1239.42 1637.24 L1247.68 1635.57 L1252.36 1635.57 L1252.36 1666.2 L1259.99 1666.2 L1259.99 1670.13 L1240.09 1670.13 L1240.09 1666.2 Z" fill="#000000" fill-rule="evenodd" fill-opacity="1" /><path clip-path="url(#clip810)" d="M1279.44 1638.65 Q1275.83 1638.65 1274 1642.22 Q1272.19 1645.76 1272.19 1652.89 Q1272.19 1659.99 1274 1663.56 Q1275.83 1667.1 1279.44 1667.1 Q1283.07 1667.1 1284.88 1663.56 Q1286.71 1659.99 1286.71 1652.89 Q1286.71 1645.76 1284.88 1642.22 Q1283.07 1638.65 1279.44 1638.65 M1279.44 1634.95 Q1285.25 1634.95 1288.3 1639.55 Q1291.38 1644.14 1291.38 1652.89 Q1291.38 1661.61 1288.3 1666.22 Q1285.25 1670.8 1279.44 1670.8 Q1273.63 1670.8 1270.55 1666.22 Q1267.49 1661.61 1267.49 1652.89 Q1267.49 1644.14 1270.55 1639.55 Q1273.63 1634.95 1279.44 1634.95 Z" fill="#000000" fill-rule="evenodd" fill-opacity="1" /><path clip-path="url(#clip810)" d="M1382.92 1706.5 L1399.24 1706.5 L1399.24 1710.44 L1377.29 1710.44 L1377.29 1706.5 Q1379.96 1703.75 1384.54 1699.12 Q1389.15 1694.46 1390.33 1693.12 Q1392.57 1690.6 1393.45 1688.86 Q1394.35 1687.1 1394.35 1685.41 Q1394.35 1682.66 1392.41 1680.92 Q1390.49 1679.19 1387.39 1679.19 Q1385.19 1679.19 1382.73 1679.95 Q1380.3 1680.71 1377.53 1682.26 L1377.53 1677.54 Q1380.35 1676.41 1382.8 1675.83 Q1385.26 1675.25 1387.29 1675.25 Q1392.66 1675.25 1395.86 1677.94 Q1399.05 1680.62 1399.05 1685.11 Q1399.05 1687.24 1398.24 1689.16 Q1397.46 1691.06 1395.35 1693.65 Q1394.77 1694.32 1391.67 1697.54 Q1388.57 1700.74 1382.92 1706.5 Z" fill="#000000" fill-rule="evenodd" fill-opacity="1" /><path clip-path="url(#clip810)" d="M1419.05 1678.95 Q1415.44 1678.95 1413.61 1682.52 Q1411.81 1686.06 1411.81 1693.19 Q1411.81 1700.3 1413.61 1703.86 Q1415.44 1707.4 1419.05 1707.4 Q1422.69 1707.4 1424.49 1703.86 Q1426.32 1700.3 1426.32 1693.19 Q1426.32 1686.06 1424.49 1682.52 Q1422.69 1678.95 1419.05 1678.95 M1419.05 1675.25 Q1424.86 1675.25 1427.92 1679.86 Q1431 1684.44 1431 1693.19 Q1431 1701.92 1427.92 1706.52 Q1424.86 1711.11 1419.05 1711.11 Q1413.24 1711.11 1410.16 1706.52 Q1407.11 1701.92 1407.11 1693.19 Q1407.11 1684.44 1410.16 1679.86 Q1413.24 1675.25 1419.05 1675.25 Z" fill="#000000" fill-rule="evenodd" fill-opacity="1" /><path clip-path="url(#clip810)" d="M1532.67 1732.1 Q1536.03 1732.82 1537.9 1735.09 Q1539.8 1737.36 1539.8 1740.69 Q1539.8 1745.81 1536.28 1748.61 Q1532.76 1751.41 1526.28 1751.41 Q1524.11 1751.41 1521.79 1750.97 Q1519.5 1750.55 1517.05 1749.7 L1517.05 1745.18 Q1518.99 1746.32 1521.31 1746.9 Q1523.62 1747.48 1526.14 1747.48 Q1530.54 1747.48 1532.83 1745.74 Q1535.15 1744 1535.15 1740.69 Q1535.15 1737.64 1533 1735.92 Q1530.87 1734.19 1527.05 1734.19 L1523.02 1734.19 L1523.02 1730.35 L1527.23 1730.35 Q1530.68 1730.35 1532.51 1728.98 Q1534.34 1727.59 1534.34 1725 Q1534.34 1722.34 1532.44 1720.92 Q1530.56 1719.49 1527.05 1719.49 Q1525.12 1719.49 1522.93 1719.91 Q1520.73 1720.32 1518.09 1721.2 L1518.09 1717.04 Q1520.75 1716.29 1523.06 1715.92 Q1525.4 1715.55 1527.46 1715.55 Q1532.79 1715.55 1535.89 1717.98 Q1538.99 1720.39 1538.99 1724.51 Q1538.99 1727.38 1537.35 1729.37 Q1535.7 1731.34 1532.67 1732.1 Z" fill="#000000" fill-rule="evenodd" fill-opacity="1" /><path clip-path="url(#clip810)" d="M1558.67 1719.26 Q1555.06 1719.26 1553.23 1722.82 Q1551.42 1726.36 1551.42 1733.49 Q1551.42 1740.6 1553.23 1744.16 Q1555.06 1747.71 1558.67 1747.71 Q1562.3 1747.71 1564.11 1744.16 Q1565.93 1740.6 1565.93 1733.49 Q1565.93 1726.36 1564.11 1722.82 Q1562.3 1719.26 1558.67 1719.26 M1558.67 1715.55 Q1564.48 1715.55 1567.53 1720.16 Q1570.61 1724.74 1570.61 1733.49 Q1570.61 1742.22 1567.53 1746.83 Q1564.48 1751.41 1558.67 1751.41 Q1552.86 1751.41 1549.78 1746.83 Q1546.72 1742.22 1546.72 1733.49 Q1546.72 1724.74 1549.78 1720.16 Q1552.86 1715.55 1558.67 1715.55 Z" fill="#000000" fill-rule="evenodd" fill-opacity="1" /><polyline clip-path="url(#clip812)" style="stroke:#000000; stroke-linecap:butt; stroke-linejoin:round; stroke-width:2; stroke-opacity:0.1; fill:none" points="
  1601.7,1705.97 724.937,1452.86 
  "/>
<polyline clip-path="url(#clip812)" style="stroke:#000000; stroke-linecap:butt; stroke-linejoin:round; stroke-width:2; stroke-opacity:0.1; fill:none" points="
  724.937,1452.86 724.937,576.097 
  "/>
<polyline clip-path="url(#clip812)" style="stroke:#000000; stroke-linecap:butt; stroke-linejoin:round; stroke-width:2; stroke-opacity:0.1; fill:none" points="
  1683.27,1635.33 806.498,1382.23 
  "/>
<polyline clip-path="url(#clip812)" style="stroke:#000000; stroke-linecap:butt; stroke-linejoin:round; stroke-width:2; stroke-opacity:0.1; fill:none" points="
  806.498,1382.23 806.498,505.463 
  "/>
<polyline clip-path="url(#clip812)" style="stroke:#000000; stroke-linecap:butt; stroke-linejoin:round; stroke-width:2; stroke-opacity:0.1; fill:none" points="
  1764.83,1564.7 888.059,1311.6 
  "/>
<polyline clip-path="url(#clip812)" style="stroke:#000000; stroke-linecap:butt; stroke-linejoin:round; stroke-width:2; stroke-opacity:0.1; fill:none" points="
  888.059,1311.6 888.059,434.829 
  "/>
<polyline clip-path="url(#clip812)" style="stroke:#000000; stroke-linecap:butt; stroke-linejoin:round; stroke-width:2; stroke-opacity:0.1; fill:none" points="
  1846.39,1494.06 969.62,1240.96 
  "/>
<polyline clip-path="url(#clip812)" style="stroke:#000000; stroke-linecap:butt; stroke-linejoin:round; stroke-width:2; stroke-opacity:0.1; fill:none" points="
  969.62,1240.96 969.62,364.195 
  "/>
<polyline clip-path="url(#clip812)" style="stroke:#000000; stroke-linecap:butt; stroke-linejoin:round; stroke-width:2; stroke-opacity:0.1; fill:none" points="
  1927.95,1423.43 1051.18,1170.33 
  "/>
<polyline clip-path="url(#clip812)" style="stroke:#000000; stroke-linecap:butt; stroke-linejoin:round; stroke-width:2; stroke-opacity:0.1; fill:none" points="
  1051.18,1170.33 1051.18,293.561 
  "/>
<polyline clip-path="url(#clip812)" style="stroke:#000000; stroke-linecap:butt; stroke-linejoin:round; stroke-width:2; stroke-opacity:0.1; fill:none" points="
  2009.51,1352.8 1132.74,1099.69 
  "/>
<polyline clip-path="url(#clip812)" style="stroke:#000000; stroke-linecap:butt; stroke-linejoin:round; stroke-width:2; stroke-opacity:0.1; fill:none" points="
  1132.74,1099.69 1132.74,222.927 
  "/>
<polyline clip-path="url(#clip812)" style="stroke:#000000; stroke-linecap:butt; stroke-linejoin:round; stroke-width:2; stroke-opacity:0.1; fill:none" points="
  2091.07,1282.16 1214.3,1029.06 
  "/>
<polyline clip-path="url(#clip812)" style="stroke:#000000; stroke-linecap:butt; stroke-linejoin:round; stroke-width:2; stroke-opacity:0.1; fill:none" points="
  1214.3,1029.06 1214.3,152.293 
  "/>
<polyline clip-path="url(#clip810)" style="stroke:#000000; stroke-linecap:butt; stroke-linejoin:round; stroke-width:4; stroke-opacity:1; fill:none" points="
  1599.2,1708.14 2105.4,1269.75 
  "/>
<polyline clip-path="url(#clip810)" style="stroke:#000000; stroke-linecap:butt; stroke-linejoin:round; stroke-width:4; stroke-opacity:1; fill:none" points="
  1601.7,1705.97 1591.18,1702.93 
  "/>
<polyline clip-path="url(#clip810)" style="stroke:#000000; stroke-linecap:butt; stroke-linejoin:round; stroke-width:4; stroke-opacity:1; fill:none" points="
  1683.27,1635.33 1672.74,1632.29 
  "/>
<polyline clip-path="url(#clip810)" style="stroke:#000000; stroke-linecap:butt; stroke-linejoin:round; stroke-width:4; stroke-opacity:1; fill:none" points="
  1764.83,1564.7 1754.31,1561.66 
  "/>
<polyline clip-path="url(#clip810)" style="stroke:#000000; stroke-linecap:butt; stroke-linejoin:round; stroke-width:4; stroke-opacity:1; fill:none" points="
  1846.39,1494.06 1835.87,1491.03 
  "/>
<polyline clip-path="url(#clip810)" style="stroke:#000000; stroke-linecap:butt; stroke-linejoin:round; stroke-width:4; stroke-opacity:1; fill:none" points="
  1927.95,1423.43 1917.43,1420.39 
  "/>
<polyline clip-path="url(#clip810)" style="stroke:#000000; stroke-linecap:butt; stroke-linejoin:round; stroke-width:4; stroke-opacity:1; fill:none" points="
  2009.51,1352.8 1998.99,1349.76 
  "/>
<polyline clip-path="url(#clip810)" style="stroke:#000000; stroke-linecap:butt; stroke-linejoin:round; stroke-width:4; stroke-opacity:1; fill:none" points="
  2091.07,1282.16 2080.55,1279.12 
  "/>
<path clip-path="url(#clip810)" d="M1622.96 1730.68 L1652.64 1730.68 L1652.64 1734.61 L1622.96 1734.61 L1622.96 1730.68 Z" fill="#000000" fill-rule="evenodd" fill-opacity="1" /><path clip-path="url(#clip810)" d="M1676.9 1728.87 Q1680.25 1729.59 1682.13 1731.86 Q1684.03 1734.13 1684.03 1737.46 Q1684.03 1742.57 1680.51 1745.38 Q1676.99 1748.18 1670.51 1748.18 Q1668.33 1748.18 1666.02 1747.74 Q1663.73 1747.32 1661.27 1746.46 L1661.27 1741.95 Q1663.22 1743.08 1665.53 1743.66 Q1667.85 1744.24 1670.37 1744.24 Q1674.77 1744.24 1677.06 1742.51 Q1679.37 1740.77 1679.37 1737.46 Q1679.37 1734.4 1677.22 1732.69 Q1675.09 1730.95 1671.27 1730.95 L1667.24 1730.95 L1667.24 1727.11 L1671.46 1727.11 Q1674.91 1727.11 1676.74 1725.75 Q1678.56 1724.36 1678.56 1721.76 Q1678.56 1719.1 1676.67 1717.69 Q1674.79 1716.26 1671.27 1716.26 Q1669.35 1716.26 1667.15 1716.67 Q1664.95 1717.09 1662.31 1717.97 L1662.31 1713.8 Q1664.98 1713.06 1667.29 1712.69 Q1669.63 1712.32 1671.69 1712.32 Q1677.01 1712.32 1680.12 1714.75 Q1683.22 1717.16 1683.22 1721.28 Q1683.22 1724.15 1681.57 1726.14 Q1679.93 1728.11 1676.9 1728.87 Z" fill="#000000" fill-rule="evenodd" fill-opacity="1" /><path clip-path="url(#clip810)" d="M1702.89 1716.02 Q1699.28 1716.02 1697.45 1719.59 Q1695.65 1723.13 1695.65 1730.26 Q1695.65 1737.37 1697.45 1740.93 Q1699.28 1744.47 1702.89 1744.47 Q1706.53 1744.47 1708.33 1740.93 Q1710.16 1737.37 1710.16 1730.26 Q1710.16 1723.13 1708.33 1719.59 Q1706.53 1716.02 1702.89 1716.02 M1702.89 1712.32 Q1708.7 1712.32 1711.76 1716.93 Q1714.84 1721.51 1714.84 1730.26 Q1714.84 1738.99 1711.76 1743.59 Q1708.7 1748.18 1702.89 1748.18 Q1697.08 1748.18 1694 1743.59 Q1690.95 1738.99 1690.95 1730.26 Q1690.95 1721.51 1694 1716.93 Q1697.08 1712.32 1702.89 1712.32 Z" fill="#000000" fill-rule="evenodd" fill-opacity="1" /><path clip-path="url(#clip810)" d="M1704.52 1660.04 L1734.2 1660.04 L1734.2 1663.98 L1704.52 1663.98 L1704.52 1660.04 Z" fill="#000000" fill-rule="evenodd" fill-opacity="1" /><path clip-path="url(#clip810)" d="M1748.32 1672.94 L1764.64 1672.94 L1764.64 1676.87 L1742.69 1676.87 L1742.69 1672.94 Q1745.36 1670.18 1749.94 1665.55 Q1754.55 1660.9 1755.73 1659.56 Q1757.97 1657.03 1758.85 1655.3 Q1759.75 1653.54 1759.75 1651.85 Q1759.75 1649.09 1757.81 1647.36 Q1755.89 1645.62 1752.79 1645.62 Q1750.59 1645.62 1748.13 1646.39 Q1745.7 1647.15 1742.93 1648.7 L1742.93 1643.98 Q1745.75 1642.84 1748.2 1642.27 Q1750.66 1641.69 1752.69 1641.69 Q1758.07 1641.69 1761.26 1644.37 Q1764.45 1647.06 1764.45 1651.55 Q1764.45 1653.68 1763.64 1655.6 Q1762.86 1657.5 1760.75 1660.09 Q1760.17 1660.76 1757.07 1663.98 Q1753.97 1667.17 1748.32 1672.94 Z" fill="#000000" fill-rule="evenodd" fill-opacity="1" /><path clip-path="url(#clip810)" d="M1784.45 1645.39 Q1780.84 1645.39 1779.01 1648.95 Q1777.21 1652.5 1777.21 1659.63 Q1777.21 1666.73 1779.01 1670.3 Q1780.84 1673.84 1784.45 1673.84 Q1788.09 1673.84 1789.89 1670.3 Q1791.72 1666.73 1791.72 1659.63 Q1791.72 1652.5 1789.89 1648.95 Q1788.09 1645.39 1784.45 1645.39 M1784.45 1641.69 Q1790.26 1641.69 1793.32 1646.29 Q1796.4 1650.88 1796.4 1659.63 Q1796.4 1668.35 1793.32 1672.96 Q1790.26 1677.54 1784.45 1677.54 Q1778.64 1677.54 1775.57 1672.96 Q1772.51 1668.35 1772.51 1659.63 Q1772.51 1650.88 1775.57 1646.29 Q1778.64 1641.69 1784.45 1641.69 Z" fill="#000000" fill-rule="evenodd" fill-opacity="1" /><path clip-path="url(#clip810)" d="M1786.09 1589.41 L1815.76 1589.41 L1815.76 1593.34 L1786.09 1593.34 L1786.09 1589.41 Z" fill="#000000" fill-rule="evenodd" fill-opacity="1" /><path clip-path="url(#clip810)" d="M1826.66 1602.3 L1834.3 1602.3 L1834.3 1575.94 L1825.99 1577.6 L1825.99 1573.34 L1834.26 1571.68 L1838.93 1571.68 L1838.93 1602.3 L1846.57 1602.3 L1846.57 1606.24 L1826.66 1606.24 L1826.66 1602.3 Z" fill="#000000" fill-rule="evenodd" fill-opacity="1" /><path clip-path="url(#clip810)" d="M1866.02 1574.76 Q1862.4 1574.76 1860.58 1578.32 Q1858.77 1581.86 1858.77 1588.99 Q1858.77 1596.1 1860.58 1599.66 Q1862.4 1603.2 1866.02 1603.2 Q1869.65 1603.2 1871.45 1599.66 Q1873.28 1596.1 1873.28 1588.99 Q1873.28 1581.86 1871.45 1578.32 Q1869.65 1574.76 1866.02 1574.76 M1866.02 1571.05 Q1871.83 1571.05 1874.88 1575.66 Q1877.96 1580.24 1877.96 1588.99 Q1877.96 1597.72 1874.88 1602.33 Q1871.83 1606.91 1866.02 1606.91 Q1860.21 1606.91 1857.13 1602.33 Q1854.07 1597.72 1854.07 1588.99 Q1854.07 1580.24 1857.13 1575.66 Q1860.21 1571.05 1866.02 1571.05 Z" fill="#000000" fill-rule="evenodd" fill-opacity="1" /><path clip-path="url(#clip810)" d="M1879.59 1504.12 Q1875.98 1504.12 1874.15 1507.69 Q1872.35 1511.23 1872.35 1518.36 Q1872.35 1525.46 1874.15 1529.03 Q1875.98 1532.57 1879.59 1532.57 Q1883.22 1532.57 1885.03 1529.03 Q1886.86 1525.46 1886.86 1518.36 Q1886.86 1511.23 1885.03 1507.69 Q1883.22 1504.12 1879.59 1504.12 M1879.59 1500.42 Q1885.4 1500.42 1888.46 1505.02 Q1891.54 1509.61 1891.54 1518.36 Q1891.54 1527.08 1888.46 1531.69 Q1885.4 1536.27 1879.59 1536.27 Q1873.78 1536.27 1870.7 1531.69 Q1867.65 1527.08 1867.65 1518.36 Q1867.65 1509.61 1870.7 1505.02 Q1873.78 1500.42 1879.59 1500.42 Z" fill="#000000" fill-rule="evenodd" fill-opacity="1" /><path clip-path="url(#clip810)" d="M1949.88 1461.03 L1957.52 1461.03 L1957.52 1434.67 L1949.21 1436.33 L1949.21 1432.08 L1957.47 1430.41 L1962.15 1430.41 L1962.15 1461.03 L1969.79 1461.03 L1969.79 1464.97 L1949.88 1464.97 L1949.88 1461.03 Z" fill="#000000" fill-rule="evenodd" fill-opacity="1" /><path clip-path="url(#clip810)" d="M1989.23 1433.49 Q1985.62 1433.49 1983.79 1437.05 Q1981.99 1440.59 1981.99 1447.72 Q1981.99 1454.83 1983.79 1458.39 Q1985.62 1461.94 1989.23 1461.94 Q1992.86 1461.94 1994.67 1458.39 Q1996.5 1454.83 1996.5 1447.72 Q1996.5 1440.59 1994.67 1437.05 Q1992.86 1433.49 1989.23 1433.49 M1989.23 1429.78 Q1995.04 1429.78 1998.1 1434.39 Q2001.17 1438.97 2001.17 1447.72 Q2001.17 1456.45 1998.1 1461.06 Q1995.04 1465.64 1989.23 1465.64 Q1983.42 1465.64 1980.34 1461.06 Q1977.29 1456.45 1977.29 1447.72 Q1977.29 1438.97 1980.34 1434.39 Q1983.42 1429.78 1989.23 1429.78 Z" fill="#000000" fill-rule="evenodd" fill-opacity="1" /><path clip-path="url(#clip810)" d="M2036.39 1390.4 L2052.71 1390.4 L2052.71 1394.33 L2030.77 1394.33 L2030.77 1390.4 Q2033.43 1387.65 2038.01 1383.02 Q2042.62 1378.36 2043.8 1377.02 Q2046.05 1374.5 2046.93 1372.76 Q2047.83 1371 2047.83 1369.31 Q2047.83 1366.56 2045.88 1364.82 Q2043.96 1363.09 2040.86 1363.09 Q2038.66 1363.09 2036.21 1363.85 Q2033.78 1364.61 2031 1366.16 L2031 1361.44 Q2033.82 1360.31 2036.28 1359.73 Q2038.73 1359.15 2040.77 1359.15 Q2046.14 1359.15 2049.33 1361.84 Q2052.53 1364.52 2052.53 1369.01 Q2052.53 1371.14 2051.72 1373.06 Q2050.93 1374.96 2048.82 1377.55 Q2048.25 1378.22 2045.14 1381.44 Q2042.04 1384.64 2036.39 1390.4 Z" fill="#000000" fill-rule="evenodd" fill-opacity="1" /><path clip-path="url(#clip810)" d="M2072.53 1362.85 Q2068.92 1362.85 2067.09 1366.42 Q2065.28 1369.96 2065.28 1377.09 Q2065.28 1384.2 2067.09 1387.76 Q2068.92 1391.3 2072.53 1391.3 Q2076.16 1391.3 2077.97 1387.76 Q2079.8 1384.2 2079.8 1377.09 Q2079.8 1369.96 2077.97 1366.42 Q2076.16 1362.85 2072.53 1362.85 M2072.53 1359.15 Q2078.34 1359.15 2081.39 1363.76 Q2084.47 1368.34 2084.47 1377.09 Q2084.47 1385.82 2081.39 1390.42 Q2078.34 1395.01 2072.53 1395.01 Q2066.72 1395.01 2063.64 1390.42 Q2060.58 1385.82 2060.58 1377.09 Q2060.58 1368.34 2063.64 1363.76 Q2066.72 1359.15 2072.53 1359.15 Z" fill="#000000" fill-rule="evenodd" fill-opacity="1" /><path clip-path="url(#clip810)" d="M2127.95 1305.07 Q2131.31 1305.78 2133.19 1308.05 Q2135.08 1310.32 2135.08 1313.65 Q2135.08 1318.77 2131.57 1321.57 Q2128.05 1324.37 2121.57 1324.37 Q2119.39 1324.37 2117.08 1323.93 Q2114.78 1323.52 2112.33 1322.66 L2112.33 1318.15 Q2114.27 1319.28 2116.59 1319.86 Q2118.9 1320.44 2121.43 1320.44 Q2125.83 1320.44 2128.12 1318.7 Q2130.43 1316.96 2130.43 1313.65 Q2130.43 1310.6 2128.28 1308.89 Q2126.15 1307.15 2122.33 1307.15 L2118.3 1307.15 L2118.3 1303.31 L2122.52 1303.31 Q2125.96 1303.31 2127.79 1301.94 Q2129.62 1300.55 2129.62 1297.96 Q2129.62 1295.3 2127.72 1293.89 Q2125.85 1292.45 2122.33 1292.45 Q2120.41 1292.45 2118.21 1292.87 Q2116.01 1293.28 2113.37 1294.16 L2113.37 1290 Q2116.03 1289.26 2118.35 1288.89 Q2120.69 1288.52 2122.75 1288.52 Q2128.07 1288.52 2131.17 1290.95 Q2134.27 1293.35 2134.27 1297.47 Q2134.27 1300.34 2132.63 1302.34 Q2130.99 1304.3 2127.95 1305.07 Z" fill="#000000" fill-rule="evenodd" fill-opacity="1" /><path clip-path="url(#clip810)" d="M2153.95 1292.22 Q2150.34 1292.22 2148.51 1295.78 Q2146.7 1299.33 2146.7 1306.46 Q2146.7 1313.56 2148.51 1317.13 Q2150.34 1320.67 2153.95 1320.67 Q2157.58 1320.67 2159.39 1317.13 Q2161.22 1313.56 2161.22 1306.46 Q2161.22 1299.33 2159.39 1295.78 Q2157.58 1292.22 2153.95 1292.22 M2153.95 1288.52 Q2159.76 1288.52 2162.82 1293.12 Q2165.89 1297.71 2165.89 1306.46 Q2165.89 1315.18 2162.82 1319.79 Q2159.76 1324.37 2153.95 1324.37 Q2148.14 1324.37 2145.06 1319.79 Q2142.01 1315.18 2142.01 1306.46 Q2142.01 1297.71 2145.06 1293.12 Q2148.14 1288.52 2153.95 1288.52 Z" fill="#000000" fill-rule="evenodd" fill-opacity="1" /><polyline clip-path="url(#clip812)" style="stroke:#000000; stroke-linecap:butt; stroke-linejoin:round; stroke-width:2; stroke-opacity:0.1; fill:none" points="
  722.428,1430.23 1228.63,991.842 
  "/>
<polyline clip-path="url(#clip812)" style="stroke:#000000; stroke-linecap:butt; stroke-linejoin:round; stroke-width:2; stroke-opacity:0.1; fill:none" points="
  1228.63,991.842 2105.4,1244.94 
  "/>
<polyline clip-path="url(#clip812)" style="stroke:#000000; stroke-linecap:butt; stroke-linejoin:round; stroke-width:2; stroke-opacity:0.1; fill:none" points="
  722.428,1223.44 1228.63,785.056 
  "/>
<polyline clip-path="url(#clip812)" style="stroke:#000000; stroke-linecap:butt; stroke-linejoin:round; stroke-width:2; stroke-opacity:0.1; fill:none" points="
  1228.63,785.056 2105.4,1038.16 
  "/>
<polyline clip-path="url(#clip812)" style="stroke:#000000; stroke-linecap:butt; stroke-linejoin:round; stroke-width:2; stroke-opacity:0.1; fill:none" points="
  722.428,1016.65 1228.63,578.27 
  "/>
<polyline clip-path="url(#clip812)" style="stroke:#000000; stroke-linecap:butt; stroke-linejoin:round; stroke-width:2; stroke-opacity:0.1; fill:none" points="
  1228.63,578.27 2105.4,831.371 
  "/>
<polyline clip-path="url(#clip812)" style="stroke:#000000; stroke-linecap:butt; stroke-linejoin:round; stroke-width:2; stroke-opacity:0.1; fill:none" points="
  722.428,809.868 1228.63,371.485 
  "/>
<polyline clip-path="url(#clip812)" style="stroke:#000000; stroke-linecap:butt; stroke-linejoin:round; stroke-width:2; stroke-opacity:0.1; fill:none" points="
  1228.63,371.485 2105.4,624.586 
  "/>
<polyline clip-path="url(#clip812)" style="stroke:#000000; stroke-linecap:butt; stroke-linejoin:round; stroke-width:2; stroke-opacity:0.1; fill:none" points="
  722.428,603.083 1228.63,164.699 
  "/>
<polyline clip-path="url(#clip812)" style="stroke:#000000; stroke-linecap:butt; stroke-linejoin:round; stroke-width:2; stroke-opacity:0.1; fill:none" points="
  1228.63,164.699 2105.4,417.8 
  "/>
<polyline clip-path="url(#clip810)" style="stroke:#000000; stroke-linecap:butt; stroke-linejoin:round; stroke-width:4; stroke-opacity:1; fill:none" points="
  722.428,1455.04 722.428,578.269 
  "/>
<polyline clip-path="url(#clip810)" style="stroke:#000000; stroke-linecap:butt; stroke-linejoin:round; stroke-width:4; stroke-opacity:1; fill:none" points="
  722.428,1430.23 728.503,1424.96 
  "/>
<polyline clip-path="url(#clip810)" style="stroke:#000000; stroke-linecap:butt; stroke-linejoin:round; stroke-width:4; stroke-opacity:1; fill:none" points="
  722.428,1223.44 728.503,1218.18 
  "/>
<polyline clip-path="url(#clip810)" style="stroke:#000000; stroke-linecap:butt; stroke-linejoin:round; stroke-width:4; stroke-opacity:1; fill:none" points="
  722.428,1016.65 728.503,1011.39 
  "/>
<polyline clip-path="url(#clip810)" style="stroke:#000000; stroke-linecap:butt; stroke-linejoin:round; stroke-width:4; stroke-opacity:1; fill:none" points="
  722.428,809.868 728.503,804.608 
  "/>
<polyline clip-path="url(#clip810)" style="stroke:#000000; stroke-linecap:butt; stroke-linejoin:round; stroke-width:4; stroke-opacity:1; fill:none" points="
  722.428,603.083 728.503,597.822 
  "/>
<path clip-path="url(#clip810)" d="M632.997 1416.02 Q629.386 1416.02 627.557 1419.59 Q625.752 1423.13 625.752 1430.26 Q625.752 1437.37 627.557 1440.93 Q629.386 1444.47 632.997 1444.47 Q636.631 1444.47 638.437 1440.93 Q640.265 1437.37 640.265 1430.26 Q640.265 1423.13 638.437 1419.59 Q636.631 1416.02 632.997 1416.02 M632.997 1412.32 Q638.807 1412.32 641.863 1416.93 Q644.941 1421.51 644.941 1430.26 Q644.941 1438.99 641.863 1443.59 Q638.807 1448.18 632.997 1448.18 Q627.187 1448.18 624.108 1443.59 Q621.052 1438.99 621.052 1430.26 Q621.052 1421.51 624.108 1416.93 Q627.187 1412.32 632.997 1412.32 Z" fill="#000000" fill-rule="evenodd" fill-opacity="1" /><path clip-path="url(#clip810)" d="M653.159 1441.63 L658.043 1441.63 L658.043 1447.51 L653.159 1447.51 L653.159 1441.63 Z" fill="#000000" fill-rule="evenodd" fill-opacity="1" /><path clip-path="url(#clip810)" d="M678.228 1416.02 Q674.617 1416.02 672.788 1419.59 Q670.983 1423.13 670.983 1430.26 Q670.983 1437.37 672.788 1440.93 Q674.617 1444.47 678.228 1444.47 Q681.862 1444.47 683.668 1440.93 Q685.497 1437.37 685.497 1430.26 Q685.497 1423.13 683.668 1419.59 Q681.862 1416.02 678.228 1416.02 M678.228 1412.32 Q684.038 1412.32 687.094 1416.93 Q690.172 1421.51 690.172 1430.26 Q690.172 1438.99 687.094 1443.59 Q684.038 1448.18 678.228 1448.18 Q672.418 1448.18 669.339 1443.59 Q666.284 1438.99 666.284 1430.26 Q666.284 1421.51 669.339 1416.93 Q672.418 1412.32 678.228 1412.32 Z" fill="#000000" fill-rule="evenodd" fill-opacity="1" /><path clip-path="url(#clip810)" d="M628.02 1236.78 L644.339 1236.78 L644.339 1240.72 L622.395 1240.72 L622.395 1236.78 Q625.057 1234.03 629.64 1229.4 Q634.247 1224.75 635.427 1223.41 Q637.673 1220.88 638.552 1219.15 Q639.455 1217.39 639.455 1215.7 Q639.455 1212.94 637.511 1211.21 Q635.589 1209.47 632.488 1209.47 Q630.289 1209.47 627.835 1210.23 Q625.404 1211 622.627 1212.55 L622.627 1207.83 Q625.451 1206.69 627.904 1206.11 Q630.358 1205.53 632.395 1205.53 Q637.765 1205.53 640.96 1208.22 Q644.154 1210.91 644.154 1215.4 Q644.154 1217.53 643.344 1219.45 Q642.557 1221.34 640.451 1223.94 Q639.872 1224.61 636.77 1227.83 Q633.668 1231.02 628.02 1236.78 Z" fill="#000000" fill-rule="evenodd" fill-opacity="1" /><path clip-path="url(#clip810)" d="M654.154 1234.84 L659.038 1234.84 L659.038 1240.72 L654.154 1240.72 L654.154 1234.84 Z" fill="#000000" fill-rule="evenodd" fill-opacity="1" /><path clip-path="url(#clip810)" d="M669.27 1206.16 L687.626 1206.16 L687.626 1210.09 L673.552 1210.09 L673.552 1218.57 Q674.571 1218.22 675.589 1218.06 Q676.608 1217.87 677.626 1217.87 Q683.413 1217.87 686.793 1221.04 Q690.172 1224.22 690.172 1229.63 Q690.172 1235.21 686.7 1238.31 Q683.228 1241.39 676.909 1241.39 Q674.733 1241.39 672.464 1241.02 Q670.219 1240.65 667.811 1239.91 L667.811 1235.21 Q669.895 1236.34 672.117 1236.9 Q674.339 1237.46 676.816 1237.46 Q680.821 1237.46 683.159 1235.35 Q685.497 1233.24 685.497 1229.63 Q685.497 1226.02 683.159 1223.91 Q680.821 1221.81 676.816 1221.81 Q674.941 1221.81 673.066 1222.22 Q671.214 1222.64 669.27 1223.52 L669.27 1206.16 Z" fill="#000000" fill-rule="evenodd" fill-opacity="1" /><path clip-path="url(#clip810)" d="M623.043 999.374 L641.4 999.374 L641.4 1003.31 L627.326 1003.31 L627.326 1011.78 Q628.344 1011.43 629.363 1011.27 Q630.381 1011.09 631.4 1011.09 Q637.187 1011.09 640.566 1014.26 Q643.946 1017.43 643.946 1022.85 Q643.946 1028.42 640.474 1031.53 Q637.001 1034.61 630.682 1034.61 Q628.506 1034.61 626.238 1034.24 Q623.992 1033.86 621.585 1033.12 L621.585 1028.42 Q623.668 1029.56 625.89 1030.11 Q628.113 1030.67 630.589 1030.67 Q634.594 1030.67 636.932 1028.56 Q639.27 1026.46 639.27 1022.85 Q639.27 1019.24 636.932 1017.13 Q634.594 1015.02 630.589 1015.02 Q628.714 1015.02 626.839 1015.44 Q624.988 1015.86 623.043 1016.74 L623.043 999.374 Z" fill="#000000" fill-rule="evenodd" fill-opacity="1" /><path clip-path="url(#clip810)" d="M653.159 1028.05 L658.043 1028.05 L658.043 1033.93 L653.159 1033.93 L653.159 1028.05 Z" fill="#000000" fill-rule="evenodd" fill-opacity="1" /><path clip-path="url(#clip810)" d="M678.228 1002.45 Q674.617 1002.45 672.788 1006.02 Q670.983 1009.56 670.983 1016.69 Q670.983 1023.8 672.788 1027.36 Q674.617 1030.9 678.228 1030.9 Q681.862 1030.9 683.668 1027.36 Q685.497 1023.8 685.497 1016.69 Q685.497 1009.56 683.668 1006.02 Q681.862 1002.45 678.228 1002.45 M678.228 998.749 Q684.038 998.749 687.094 1003.36 Q690.172 1007.94 690.172 1016.69 Q690.172 1025.42 687.094 1030.02 Q684.038 1034.61 678.228 1034.61 Q672.418 1034.61 669.339 1030.02 Q666.284 1025.42 666.284 1016.69 Q666.284 1007.94 669.339 1003.36 Q672.418 998.749 678.228 998.749 Z" fill="#000000" fill-rule="evenodd" fill-opacity="1" /><path clip-path="url(#clip810)" d="M622.812 792.588 L645.034 792.588 L645.034 794.579 L632.488 827.148 L627.603 827.148 L639.409 796.524 L622.812 796.524 L622.812 792.588 Z" fill="#000000" fill-rule="evenodd" fill-opacity="1" /><path clip-path="url(#clip810)" d="M654.154 821.269 L659.038 821.269 L659.038 827.148 L654.154 827.148 L654.154 821.269 Z" fill="#000000" fill-rule="evenodd" fill-opacity="1" /><path clip-path="url(#clip810)" d="M669.27 792.588 L687.626 792.588 L687.626 796.524 L673.552 796.524 L673.552 804.996 Q674.571 804.649 675.589 804.487 Q676.608 804.301 677.626 804.301 Q683.413 804.301 686.793 807.473 Q690.172 810.644 690.172 816.061 Q690.172 821.639 686.7 824.741 Q683.228 827.82 676.909 827.82 Q674.733 827.82 672.464 827.449 Q670.219 827.079 667.811 826.338 L667.811 821.639 Q669.895 822.773 672.117 823.329 Q674.339 823.885 676.816 823.885 Q680.821 823.885 683.159 821.778 Q685.497 819.672 685.497 816.061 Q685.497 812.449 683.159 810.343 Q680.821 808.237 676.816 808.237 Q674.941 808.237 673.066 808.653 Q671.214 809.07 669.27 809.949 L669.27 792.588 Z" fill="#000000" fill-rule="evenodd" fill-opacity="1" /><path clip-path="url(#clip810)" d="M593.645 616.428 L601.284 616.428 L601.284 590.062 L592.974 591.729 L592.974 587.469 L601.238 585.803 L605.914 585.803 L605.914 616.428 L613.553 616.428 L613.553 620.363 L593.645 620.363 L593.645 616.428 Z" fill="#000000" fill-rule="evenodd" fill-opacity="1" /><path clip-path="url(#clip810)" d="M632.997 588.881 Q629.386 588.881 627.557 592.446 Q625.752 595.988 625.752 603.117 Q625.752 610.224 627.557 613.789 Q629.386 617.33 632.997 617.33 Q636.631 617.33 638.437 613.789 Q640.265 610.224 640.265 603.117 Q640.265 595.988 638.437 592.446 Q636.631 588.881 632.997 588.881 M632.997 585.178 Q638.807 585.178 641.863 589.784 Q644.941 594.368 644.941 603.117 Q644.941 611.844 641.863 616.451 Q638.807 621.034 632.997 621.034 Q627.187 621.034 624.108 616.451 Q621.052 611.844 621.052 603.117 Q621.052 594.368 624.108 589.784 Q627.187 585.178 632.997 585.178 Z" fill="#000000" fill-rule="evenodd" fill-opacity="1" /><path clip-path="url(#clip810)" d="M653.159 614.483 L658.043 614.483 L658.043 620.363 L653.159 620.363 L653.159 614.483 Z" fill="#000000" fill-rule="evenodd" fill-opacity="1" /><path clip-path="url(#clip810)" d="M678.228 588.881 Q674.617 588.881 672.788 592.446 Q670.983 595.988 670.983 603.117 Q670.983 610.224 672.788 613.789 Q674.617 617.33 678.228 617.33 Q681.862 617.33 683.668 613.789 Q685.497 610.224 685.497 603.117 Q685.497 595.988 683.668 592.446 Q681.862 588.881 678.228 588.881 M678.228 585.178 Q684.038 585.178 687.094 589.784 Q690.172 594.368 690.172 603.117 Q690.172 611.844 687.094 616.451 Q684.038 621.034 678.228 621.034 Q672.418 621.034 669.339 616.451 Q666.284 611.844 666.284 603.117 Q666.284 594.368 669.339 589.784 Q672.418 585.178 678.228 585.178 Z" fill="#000000" fill-rule="evenodd" fill-opacity="1" /><polyline clip-path="url(#clip812)" style="stroke:#009af9; stroke-linecap:butt; stroke-linejoin:round; stroke-width:4; stroke-opacity:1; fill:none" points="
  1652.69,313.844 1667.5,314.927 1681.95,316.982 1696,320.007 1709.64,323.997 1724.86,329.802 1739.47,336.874 1753.43,345.2 1766.71,354.76 1779.29,365.533 
  1791.14,377.497 1802.23,390.625 1812.54,404.888 1822.06,420.255 1830.76,436.693 1838.61,454.165 1845.62,472.633 1851.76,492.055 1857.02,512.391 1861.38,533.594 
  1864.85,555.618 1867.42,578.414 1869.08,601.932 1869.82,626.121 1869.66,650.927 1868.58,676.294 1866.6,702.168 1863.72,728.492 1859.95,755.206 1855.29,782.252 
  1849.76,809.57 1843.38,837.101 1836.16,864.783 1828.11,892.555 1819.25,920.356 1809.61,948.125 1799.21,975.8 1785.74,1008.85 1771.25,1041.58 1755.79,1073.87 
  1739.41,1105.62 1722.17,1136.74 1704.12,1167.12 1685.33,1196.67 1665.85,1225.3 1645.75,1252.9 1625.11,1279.41 1603.97,1304.72 1582.43,1328.76 1560.54,1351.46 
  1538.38,1372.74 1516.02,1392.54 1493.53,1410.79 1474.48,1424.97 1455.44,1437.98 1436.45,1449.78 1417.56,1460.34 1398.81,1469.65 1380.25,1477.68 1361.92,1484.41 
  1343.86,1489.84 1326.12,1493.94 1308.73,1496.71 1291.74,1498.15 1275.19,1498.26 1259.11,1497.02 1243.55,1494.46 1228.54,1490.57 1214.11,1485.36 1199.14,1478.23 
  1184.94,1469.58 1171.55,1459.44 1159.01,1447.84 1147.35,1434.81 1136.61,1420.39 1126.81,1404.61 1117.98,1387.53 1110.14,1369.19 1103.33,1349.64 1097.55,1328.93 
  1092.82,1307.13 1089.15,1284.29 1086.56,1260.49 1085.05,1235.77 1084.63,1210.22 1085.2,1185.99 1086.7,1161.16 1089.11,1135.79 1092.44,1109.95 1096.68,1083.7 
  1101.8,1057.09 1107.82,1030.19 1114.7,1003.07 1122.44,975.777 1131.01,948.39 1140.4,920.968 1150.58,893.576 1161.53,866.279 1173.22,839.141 1185.63,812.226 
  1198.73,785.596 1213.5,757.436 1228.98,729.752 1245.14,702.62 1261.92,676.114 1279.29,650.305 1297.2,625.263 1315.6,601.056 1334.43,577.749 1353.66,555.407 
  1373.22,534.089 1393.06,513.854 1413.14,494.756 1433.39,476.848 1453.76,460.179 1474.19,444.794 1494.64,430.735 1518.27,416.156 1541.75,403.463 1565,392.703 
  1587.93,383.916 1610.47,377.136 1632.52,372.389 1654,369.693 1674.85,369.06 1694.97,370.494 1714.31,373.992 1732.78,379.542 1750.32,387.128 1766.86,396.722 
  1782.34,408.293 1796.71,421.802 1809.91,437.201 1820.62,452.43 1830.33,469.068 1839.03,487.069 1846.67,506.384 1853.23,526.96 1858.71,548.739 1863.07,571.661 
  1866.31,595.663 1868.41,620.678 1869.37,646.637 1869.18,673.466 1867.84,701.093 1865.35,729.439 1861.72,758.425 1856.95,787.972 1851.06,817.997 1844.98,844.652 
  1838.05,871.554 1830.31,898.643 1821.74,925.863 1812.39,953.153 1802.25,980.457 1791.36,1007.71 1779.74,1034.87 1767.4,1061.86 1754.38,1088.63 1740.7,1115.12 
  1726.39,1141.28 1711.48,1167.04 1696,1192.36 1679.98,1217.18 1663.46,1241.45 1644.9,1267.21 1625.84,1292.18 1606.3,1316.31 1586.35,1339.52 1566.03,1361.76 
  1545.38,1382.97 1524.47,1403.1 1503.34,1422.1 1482.05,1439.92 1460.65,1456.51 1439.18,1471.83 1417.71,1485.84 1396.29,1498.5 1374.96,1509.79 1353.79,1519.67 
  1332.82,1528.13 1311.99,1535.17 1291.47,1540.72 1271.31,1544.77 1251.56,1547.32 1232.28,1548.34 1213.5,1547.84 1195.28,1545.83 1177.66,1542.3 1160.69,1537.28 
  1144.4,1530.76 1128.84,1522.77 1114.05,1513.32 1100.06,1502.46 1086.9,1490.19 1074.6,1476.56 1063.21,1461.6 1051.68,1443.55 1041.32,1423.99 1032.15,1402.97 
  1024.2,1380.56 1017.48,1356.84 1012.03,1331.87 1007.84,1305.73 1004.94,1278.52 1003.33,1250.32 1003,1221.21 1003.96,1191.29 1006.2,1160.66 1009.71,1129.41 
  1014.48,1097.64 1020.48,1065.46 1027.7,1032.97 1035.67,1001.85 1044.69,970.633 1054.73,939.407 1065.75,908.259 1077.73,877.281 1090.63,846.561 1104.4,816.188 
  1119.01,786.249 1134.4,756.83 1150.54,728.017 1167.37,699.891 1184.83,672.533 1202.89,646.024 1221.47,620.437 1240.53,595.847 1260.01,572.325 1280.65,549.072 
  1301.6,527.118 1322.8,506.531 1344.19,487.375 1365.69,469.709 1387.23,453.587 1408.74,439.059 1430.16,426.17 1451.41,414.96 1472.42,405.462 1493.12,397.706 
  1513.45,391.715 1533.34,387.507 1552.73,385.095 1571.55,384.484 1589.73,385.677 1604.51,388.076 1618.77,391.744 1632.47,396.672 1645.58,402.849 1658.07,410.26 
  1669.91,418.889 1681.08,428.716 1691.55,439.719 1701.29,451.873 1710.28,465.15 1718.5,479.52 1725.92,494.951 1732.54,511.409 1738.33,528.855 1743.29,547.252 
  1747.39,566.557 1751.22,591.295 1753.76,617.24 1754.98,644.306 1754.89,672.401 1753.47,701.431 1750.74,731.301 1746.69,761.91 1741.34,793.155 1734.71,824.933 
  1726.81,857.138 1717.66,889.661 1707.31,922.395 1695.77,955.23 1683.08,988.056 1669.28,1020.76 1654.43,1053.24 1639.92,1082.7 1624.6,1111.8 1608.5,1140.45 
  1591.68,1168.58 1574.17,1196.09 1556.01,1222.93 1537.27,1249 1517.99,1274.25 1498.22,1298.59 1478.02,1321.96 1457.43,1344.29 1436.53,1365.53 1415.35,1385.6 
  1393.97,1404.46 1372.43,1422.04 1350.8,1438.31 1330.79,1452.11 1310.79,1464.72 1290.86,1476.1 1271.04,1486.22 1251.38,1495.06 1231.91,1502.59 1212.69,1508.8 
  1193.76,1513.68 1175.17,1517.19 1156.96,1519.35 1139.16,1520.14 1121.83,1519.56 1105,1517.61 1088.71,1514.3 1073,1509.62 1057.9,1503.59 1043.28,1496.13 
  1029.36,1487.31 1016.17,1477.15 1003.75,1465.69 992.131,1452.94 981.335,1438.94 971.391,1423.71 962.322,1407.3 954.15,1389.74 946.894,1371.08 940.571,1351.35 
  935.198,1330.61 930.786,1308.91 927.346,1286.29 924.887,1262.8 923.414,1238.52 922.94,1210.41 923.711,1181.45 925.724,1151.73 928.974,1121.32 933.45,1090.32 
  939.139,1058.83 946.025,1026.94 954.085,994.737 963.298,962.327 973.633,929.803 985.061,897.264 997.547,864.806 1011.05,832.526 1025.54,800.522 1040.96,768.889 
  1057.28,737.722 1072.79,709.959 1088.95,682.724 1105.73,656.082 1123.08,630.1 1140.95,604.841 1159.32,580.367 1178.12,556.738 1197.31,534.012 1216.85,512.244 
  1236.69,491.488 1256.78,471.794 1277.07,453.211 1297.5,435.783 1318.04,419.554 1338.63,404.562 1359.21,390.844 1382.72,376.745 1406.08,364.404 1429.22,353.859 
  1452.07,345.143 1474.55,338.285 1496.6,333.303 1518.13,330.213 1539.1,329.024 1559.41,329.738 1579.02,332.351 1597.86,336.852 1615.87,343.227 1632.99,351.451 
  1649.17,361.498 1664.36,373.332 1678.51,386.913 1690.64,401.006 1701.81,416.517 1711.99,433.401 1721.15,451.611 1729.27,471.092 1736.32,491.791 1742.3,513.647 
  1747.17,536.599 1750.94,560.58 1753.6,585.523 1755.13,611.356 1755.53,638.006 1754.82,665.398 1752.98,693.452 1750.03,722.09 1745.98,751.23 1740.92,780.369 
  1734.82,809.836 1727.69,839.549 1719.57,869.426 1710.46,899.385 1700.41,929.343 1689.43,959.217 1677.57,988.926 1664.85,1018.39 1651.31,1047.52 1637,1076.24 
  1621.95,1104.48 1606.2,1132.15 1589.81,1159.18 1572.81,1185.49 1555.26,1211.01 1537.74,1234.97 1519.8,1258.06 1501.48,1280.21 1482.82,1301.37 1463.89,1321.49 
  1444.74,1340.52 1425.4,1358.39 1405.94,1375.08 1386.41,1390.52 1366.86,1404.69 1347.34,1417.55 1327.91,1429.06 1308.62,1439.19 1289.52,1447.92 1270.65,1455.22 
  1252.08,1461.08 1233.4,1465.57 1215.13,1468.51 1197.33,1469.89 1180.04,1469.71 1163.32,1467.98 1147.21,1464.68 1131.75,1459.84 1117,1453.46 1103,1445.57 
  1089.78,1436.18 1077.39,1425.32 1065.85,1413.02 1055.21,1399.3 1045.5,1384.22 1036.73,1367.8 1028.95,1350.09 1021.58,1329.27 1015.45,1307.03 1010.56,1283.44 
  1006.96,1258.58 1004.64,1232.52 1003.63,1205.36 1003.93,1177.18 1005.53,1148.07 1008.45,1118.12 1012.67,1087.44 1018.18,1056.12 1024.97,1024.27 1033.03,991.984 
  1042.32,959.371 1052.82,926.537 1064.5,893.588 1073.7,869.645 1083.5,845.74 1093.87,821.913 1104.8,798.204 1116.27,774.656 1128.26,751.307 1140.76,728.199 
  1153.74,705.371 1167.18,682.861 1181.06,660.709 1195.36,638.953 1210.06,617.631 1240.54,576.43 1272.31,537.392 1305.16,500.784 1338.87,466.858 1373.23,435.849 
  1408.01,407.97 1425.49,395.265 1442.98,383.414 1460.46,372.436 1477.91,362.35 1495.29,353.175 1512.57,344.926 1529.74,337.618 1546.74,331.263 1574.26,322.928 
  1601.16,317.23 1627.35,314.197 1652.69,313.844 
  "/>
<path clip-path="url(#clip810)" d="
M2233.9 209.375 L2558.97 209.375 L2558.97 105.695 L2233.9 105.695  Z
  " fill="#ffffff" fill-rule="evenodd" fill-opacity="1"/>
<polyline clip-path="url(#clip810)" style="stroke:#000000; stroke-linecap:butt; stroke-linejoin:round; stroke-width:4; stroke-opacity:1; fill:none" points="
  2233.9,209.375 2558.97,209.375 2558.97,105.695 2233.9,105.695 2233.9,209.375 
  "/>
<polyline clip-path="url(#clip810)" style="stroke:#009af9; stroke-linecap:butt; stroke-linejoin:round; stroke-width:4; stroke-opacity:1; fill:none" points="
  2261.17,157.535 2424.75,157.535 
  "/>
<path clip-path="url(#clip810)" d="M2465.85 177.223 Q2464.05 181.852 2462.33 183.264 Q2460.62 184.676 2457.75 184.676 L2454.35 184.676 L2454.35 181.112 L2456.85 181.112 Q2458.61 181.112 2459.58 180.278 Q2460.55 179.445 2461.73 176.343 L2462.5 174.399 L2452.01 148.889 L2456.52 148.889 L2464.63 169.167 L2472.73 148.889 L2477.24 148.889 L2465.85 177.223 Z" fill="#000000" fill-rule="evenodd" fill-opacity="1" /><path clip-path="url(#clip810)" d="M2484.53 170.88 L2492.17 170.88 L2492.17 144.515 L2483.86 146.181 L2483.86 141.922 L2492.13 140.255 L2496.8 140.255 L2496.8 170.88 L2504.44 170.88 L2504.44 174.815 L2484.53 174.815 L2484.53 170.88 Z" fill="#000000" fill-rule="evenodd" fill-opacity="1" /></svg>
