<?xml version="1.0" encoding="utf-8"?>
<svg xmlns="http://www.w3.org/2000/svg" xmlns:xlink="http://www.w3.org/1999/xlink" width="672" height="480" viewBox="0 0 2688 1920">
<defs>
  <clipPath id="clip160">
    <rect x="0" y="0" width="2688" height="1920"/>
  </clipPath>
</defs>
<path clip-path="url(#clip160)" d="
M0 1920 L2688 1920 L2688 0 L0 0  Z
  " fill="#ffffff" fill-rule="evenodd" fill-opacity="1"/>
<defs>
  <clipPath id="clip161">
    <rect x="537" y="0" width="1883" height="1883"/>
  </clipPath>
</defs>
<path clip-path="url(#clip160)" d="
M150.358 1800.78 L2640.76 1800.78 L2640.76 47.2441 L150.358 47.2441  Z
  " fill="#ffffff" fill-rule="evenodd" fill-opacity="1"/>
<defs>
  <clipPath id="clip162">
    <rect x="150" y="47" width="2491" height="1755"/>
  </clipPath>
</defs>
<polyline clip-path="url(#clip162)" style="stroke:#000000; stroke-linecap:butt; stroke-linejoin:round; stroke-width:2; stroke-opacity:0.1; fill:none" points="
  220.804,1800.78 220.804,47.2441 
  "/>
<polyline clip-path="url(#clip162)" style="stroke:#000000; stroke-linecap:butt; stroke-linejoin:round; stroke-width:2; stroke-opacity:0.1; fill:none" points="
  808.181,1800.78 808.181,47.2441 
  "/>
<polyline clip-path="url(#clip162)" style="stroke:#000000; stroke-linecap:butt; stroke-linejoin:round; stroke-width:2; stroke-opacity:0.1; fill:none" points="
  1395.56,1800.78 1395.56,47.2441 
  "/>
<polyline clip-path="url(#clip162)" style="stroke:#000000; stroke-linecap:butt; stroke-linejoin:round; stroke-width:2; stroke-opacity:0.1; fill:none" points="
  1982.93,1800.78 1982.93,47.2441 
  "/>
<polyline clip-path="url(#clip162)" style="stroke:#000000; stroke-linecap:butt; stroke-linejoin:round; stroke-width:2; stroke-opacity:0.1; fill:none" points="
  2570.31,1800.78 2570.31,47.2441 
  "/>
<polyline clip-path="url(#clip160)" style="stroke:#000000; stroke-linecap:butt; stroke-linejoin:round; stroke-width:4; stroke-opacity:1; fill:none" points="
  150.358,1800.78 2640.76,1800.78 
  "/>
<polyline clip-path="url(#clip160)" style="stroke:#000000; stroke-linecap:butt; stroke-linejoin:round; stroke-width:4; stroke-opacity:1; fill:none" points="
  220.804,1800.78 220.804,1781.88 
  "/>
<polyline clip-path="url(#clip160)" style="stroke:#000000; stroke-linecap:butt; stroke-linejoin:round; stroke-width:4; stroke-opacity:1; fill:none" points="
  808.181,1800.78 808.181,1781.88 
  "/>
<polyline clip-path="url(#clip160)" style="stroke:#000000; stroke-linecap:butt; stroke-linejoin:round; stroke-width:4; stroke-opacity:1; fill:none" points="
  1395.56,1800.78 1395.56,1781.88 
  "/>
<polyline clip-path="url(#clip160)" style="stroke:#000000; stroke-linecap:butt; stroke-linejoin:round; stroke-width:4; stroke-opacity:1; fill:none" points="
  1982.93,1800.78 1982.93,1781.88 
  "/>
<polyline clip-path="url(#clip160)" style="stroke:#000000; stroke-linecap:butt; stroke-linejoin:round; stroke-width:4; stroke-opacity:1; fill:none" points="
  2570.31,1800.78 2570.31,1781.88 
  "/>
<path clip-path="url(#clip160)" d="M167.332 1848.65 L197.008 1848.65 L197.008 1852.59 L167.332 1852.59 L167.332 1848.65 Z" fill="#000000" fill-rule="evenodd" fill-opacity="1" /><path clip-path="url(#clip160)" d="M207.911 1861.55 L215.55 1861.55 L215.55 1835.18 L207.24 1836.85 L207.24 1832.59 L215.503 1830.92 L220.179 1830.92 L220.179 1861.55 L227.818 1861.55 L227.818 1865.48 L207.911 1865.48 L207.911 1861.55 Z" fill="#000000" fill-rule="evenodd" fill-opacity="1" /><path clip-path="url(#clip160)" d="M237.263 1859.6 L242.147 1859.6 L242.147 1865.48 L237.263 1865.48 L237.263 1859.6 Z" fill="#000000" fill-rule="evenodd" fill-opacity="1" /><path clip-path="url(#clip160)" d="M262.332 1834 Q258.721 1834 256.892 1837.57 Q255.087 1841.11 255.087 1848.24 Q255.087 1855.34 256.892 1858.91 Q258.721 1862.45 262.332 1862.45 Q265.966 1862.45 267.772 1858.91 Q269.6 1855.34 269.6 1848.24 Q269.6 1841.11 267.772 1837.57 Q265.966 1834 262.332 1834 M262.332 1830.3 Q268.142 1830.3 271.198 1834.9 Q274.276 1839.49 274.276 1848.24 Q274.276 1856.96 271.198 1861.57 Q268.142 1866.15 262.332 1866.15 Q256.522 1866.15 253.443 1861.57 Q250.387 1856.96 250.387 1848.24 Q250.387 1839.49 253.443 1834.9 Q256.522 1830.3 262.332 1830.3 Z" fill="#000000" fill-rule="evenodd" fill-opacity="1" /><path clip-path="url(#clip160)" d="M755.206 1848.65 L784.882 1848.65 L784.882 1852.59 L755.206 1852.59 L755.206 1848.65 Z" fill="#000000" fill-rule="evenodd" fill-opacity="1" /><path clip-path="url(#clip160)" d="M804.975 1834 Q801.364 1834 799.535 1837.57 Q797.729 1841.11 797.729 1848.24 Q797.729 1855.34 799.535 1858.91 Q801.364 1862.45 804.975 1862.45 Q808.609 1862.45 810.414 1858.91 Q812.243 1855.34 812.243 1848.24 Q812.243 1841.11 810.414 1837.57 Q808.609 1834 804.975 1834 M804.975 1830.3 Q810.785 1830.3 813.84 1834.9 Q816.919 1839.49 816.919 1848.24 Q816.919 1856.96 813.84 1861.57 Q810.785 1866.15 804.975 1866.15 Q799.164 1866.15 796.086 1861.57 Q793.03 1856.96 793.03 1848.24 Q793.03 1839.49 796.086 1834.9 Q799.164 1830.3 804.975 1830.3 Z" fill="#000000" fill-rule="evenodd" fill-opacity="1" /><path clip-path="url(#clip160)" d="M825.137 1859.6 L830.021 1859.6 L830.021 1865.48 L825.137 1865.48 L825.137 1859.6 Z" fill="#000000" fill-rule="evenodd" fill-opacity="1" /><path clip-path="url(#clip160)" d="M840.252 1830.92 L858.609 1830.92 L858.609 1834.86 L844.535 1834.86 L844.535 1843.33 Q845.553 1842.98 846.572 1842.82 Q847.59 1842.64 848.609 1842.64 Q854.396 1842.64 857.775 1845.81 Q861.155 1848.98 861.155 1854.4 Q861.155 1859.97 857.683 1863.08 Q854.21 1866.15 847.891 1866.15 Q845.715 1866.15 843.447 1865.78 Q841.201 1865.41 838.794 1864.67 L838.794 1859.97 Q840.877 1861.11 843.099 1861.66 Q845.322 1862.22 847.798 1862.22 Q851.803 1862.22 854.141 1860.11 Q856.479 1858.01 856.479 1854.4 Q856.479 1850.78 854.141 1848.68 Q851.803 1846.57 847.798 1846.57 Q845.923 1846.57 844.048 1846.99 Q842.197 1847.4 840.252 1848.28 L840.252 1830.92 Z" fill="#000000" fill-rule="evenodd" fill-opacity="1" /><path clip-path="url(#clip160)" d="M1372.94 1834 Q1369.33 1834 1367.5 1837.57 Q1365.7 1841.11 1365.7 1848.24 Q1365.7 1855.34 1367.5 1858.91 Q1369.33 1862.45 1372.94 1862.45 Q1376.58 1862.45 1378.38 1858.91 Q1380.21 1855.34 1380.21 1848.24 Q1380.21 1841.11 1378.38 1837.57 Q1376.58 1834 1372.94 1834 M1372.94 1830.3 Q1378.75 1830.3 1381.81 1834.9 Q1384.89 1839.49 1384.89 1848.24 Q1384.89 1856.96 1381.81 1861.57 Q1378.75 1866.15 1372.94 1866.15 Q1367.13 1866.15 1364.05 1861.57 Q1361 1856.96 1361 1848.24 Q1361 1839.49 1364.05 1834.9 Q1367.13 1830.3 1372.94 1830.3 Z" fill="#000000" fill-rule="evenodd" fill-opacity="1" /><path clip-path="url(#clip160)" d="M1393.1 1859.6 L1397.99 1859.6 L1397.99 1865.48 L1393.1 1865.48 L1393.1 1859.6 Z" fill="#000000" fill-rule="evenodd" fill-opacity="1" /><path clip-path="url(#clip160)" d="M1418.17 1834 Q1414.56 1834 1412.73 1837.57 Q1410.93 1841.11 1410.93 1848.24 Q1410.93 1855.34 1412.73 1858.91 Q1414.56 1862.45 1418.17 1862.45 Q1421.81 1862.45 1423.61 1858.91 Q1425.44 1855.34 1425.44 1848.24 Q1425.44 1841.11 1423.61 1837.57 Q1421.81 1834 1418.17 1834 M1418.17 1830.3 Q1423.98 1830.3 1427.04 1834.9 Q1430.12 1839.49 1430.12 1848.24 Q1430.12 1856.96 1427.04 1861.57 Q1423.98 1866.15 1418.17 1866.15 Q1412.36 1866.15 1409.28 1861.57 Q1406.23 1856.96 1406.23 1848.24 Q1406.23 1839.49 1409.28 1834.9 Q1412.36 1830.3 1418.17 1830.3 Z" fill="#000000" fill-rule="evenodd" fill-opacity="1" /><path clip-path="url(#clip160)" d="M1960.82 1834 Q1957.2 1834 1955.38 1837.57 Q1953.57 1841.11 1953.57 1848.24 Q1953.57 1855.34 1955.38 1858.91 Q1957.2 1862.45 1960.82 1862.45 Q1964.45 1862.45 1966.26 1858.91 Q1968.08 1855.34 1968.08 1848.24 Q1968.08 1841.11 1966.26 1837.57 Q1964.45 1834 1960.82 1834 M1960.82 1830.3 Q1966.63 1830.3 1969.68 1834.9 Q1972.76 1839.49 1972.76 1848.24 Q1972.76 1856.96 1969.68 1861.57 Q1966.63 1866.15 1960.82 1866.15 Q1955.01 1866.15 1951.93 1861.57 Q1948.87 1856.96 1948.87 1848.24 Q1948.87 1839.49 1951.93 1834.9 Q1955.01 1830.3 1960.82 1830.3 Z" fill="#000000" fill-rule="evenodd" fill-opacity="1" /><path clip-path="url(#clip160)" d="M1980.98 1859.6 L1985.86 1859.6 L1985.86 1865.48 L1980.98 1865.48 L1980.98 1859.6 Z" fill="#000000" fill-rule="evenodd" fill-opacity="1" /><path clip-path="url(#clip160)" d="M1996.09 1830.92 L2014.45 1830.92 L2014.45 1834.86 L2000.38 1834.86 L2000.38 1843.33 Q2001.39 1842.98 2002.41 1842.82 Q2003.43 1842.64 2004.45 1842.64 Q2010.24 1842.64 2013.62 1845.81 Q2017 1848.98 2017 1854.4 Q2017 1859.97 2013.52 1863.08 Q2010.05 1866.15 2003.73 1866.15 Q2001.56 1866.15 1999.29 1865.78 Q1997.04 1865.41 1994.63 1864.67 L1994.63 1859.97 Q1996.72 1861.11 1998.94 1861.66 Q2001.16 1862.22 2003.64 1862.22 Q2007.64 1862.22 2009.98 1860.11 Q2012.32 1858.01 2012.32 1854.4 Q2012.32 1850.78 2009.98 1848.68 Q2007.64 1846.57 2003.64 1846.57 Q2001.76 1846.57 1999.89 1846.99 Q1998.04 1847.4 1996.09 1848.28 L1996.09 1830.92 Z" fill="#000000" fill-rule="evenodd" fill-opacity="1" /><path clip-path="url(#clip160)" d="M2537.46 1861.55 L2545.1 1861.55 L2545.1 1835.18 L2536.79 1836.85 L2536.79 1832.59 L2545.06 1830.92 L2549.73 1830.92 L2549.73 1861.55 L2557.37 1861.55 L2557.37 1865.48 L2537.46 1865.48 L2537.46 1861.55 Z" fill="#000000" fill-rule="evenodd" fill-opacity="1" /><path clip-path="url(#clip160)" d="M2566.81 1859.6 L2571.7 1859.6 L2571.7 1865.48 L2566.81 1865.48 L2566.81 1859.6 Z" fill="#000000" fill-rule="evenodd" fill-opacity="1" /><path clip-path="url(#clip160)" d="M2591.88 1834 Q2588.27 1834 2586.44 1837.57 Q2584.64 1841.11 2584.64 1848.24 Q2584.64 1855.34 2586.44 1858.91 Q2588.27 1862.45 2591.88 1862.45 Q2595.52 1862.45 2597.32 1858.91 Q2599.15 1855.34 2599.15 1848.24 Q2599.15 1841.11 2597.32 1837.57 Q2595.52 1834 2591.88 1834 M2591.88 1830.3 Q2597.69 1830.3 2600.75 1834.9 Q2603.83 1839.49 2603.83 1848.24 Q2603.83 1856.96 2600.75 1861.57 Q2597.69 1866.15 2591.88 1866.15 Q2586.07 1866.15 2582.99 1861.57 Q2579.94 1856.96 2579.94 1848.24 Q2579.94 1839.49 2582.99 1834.9 Q2586.07 1830.3 2591.88 1830.3 Z" fill="#000000" fill-rule="evenodd" fill-opacity="1" /><polyline clip-path="url(#clip162)" style="stroke:#000000; stroke-linecap:butt; stroke-linejoin:round; stroke-width:2; stroke-opacity:0.1; fill:none" points="
  150.358,1751.25 2640.76,1751.25 
  "/>
<polyline clip-path="url(#clip162)" style="stroke:#000000; stroke-linecap:butt; stroke-linejoin:round; stroke-width:2; stroke-opacity:0.1; fill:none" points="
  150.358,1337.66 2640.76,1337.66 
  "/>
<polyline clip-path="url(#clip162)" style="stroke:#000000; stroke-linecap:butt; stroke-linejoin:round; stroke-width:2; stroke-opacity:0.1; fill:none" points="
  150.358,924.063 2640.76,924.063 
  "/>
<polyline clip-path="url(#clip162)" style="stroke:#000000; stroke-linecap:butt; stroke-linejoin:round; stroke-width:2; stroke-opacity:0.1; fill:none" points="
  150.358,510.468 2640.76,510.468 
  "/>
<polyline clip-path="url(#clip162)" style="stroke:#000000; stroke-linecap:butt; stroke-linejoin:round; stroke-width:2; stroke-opacity:0.1; fill:none" points="
  150.358,96.8724 2640.76,96.8724 
  "/>
<polyline clip-path="url(#clip160)" style="stroke:#000000; stroke-linecap:butt; stroke-linejoin:round; stroke-width:4; stroke-opacity:1; fill:none" points="
  150.358,1800.78 150.358,47.2441 
  "/>
<polyline clip-path="url(#clip160)" style="stroke:#000000; stroke-linecap:butt; stroke-linejoin:round; stroke-width:4; stroke-opacity:1; fill:none" points="
  150.358,1751.25 169.256,1751.25 
  "/>
<polyline clip-path="url(#clip160)" style="stroke:#000000; stroke-linecap:butt; stroke-linejoin:round; stroke-width:4; stroke-opacity:1; fill:none" points="
  150.358,1337.66 169.256,1337.66 
  "/>
<polyline clip-path="url(#clip160)" style="stroke:#000000; stroke-linecap:butt; stroke-linejoin:round; stroke-width:4; stroke-opacity:1; fill:none" points="
  150.358,924.063 169.256,924.063 
  "/>
<polyline clip-path="url(#clip160)" style="stroke:#000000; stroke-linecap:butt; stroke-linejoin:round; stroke-width:4; stroke-opacity:1; fill:none" points="
  150.358,510.468 169.256,510.468 
  "/>
<polyline clip-path="url(#clip160)" style="stroke:#000000; stroke-linecap:butt; stroke-linejoin:round; stroke-width:4; stroke-opacity:1; fill:none" points="
  150.358,96.8724 169.256,96.8724 
  "/>
<path clip-path="url(#clip160)" d="M49.9225 1751.71 L79.5983 1751.71 L79.5983 1755.64 L49.9225 1755.64 L49.9225 1751.71 Z" fill="#000000" fill-rule="evenodd" fill-opacity="1" /><path clip-path="url(#clip160)" d="M93.7186 1764.6 L110.038 1764.6 L110.038 1768.53 L88.0936 1768.53 L88.0936 1764.6 Q90.7556 1761.84 95.3389 1757.21 Q99.9454 1752.56 101.126 1751.22 Q103.371 1748.7 104.251 1746.96 Q105.154 1745.2 105.154 1743.51 Q105.154 1740.76 103.209 1739.02 Q101.288 1737.28 98.1861 1737.28 Q95.9871 1737.28 93.5334 1738.05 Q91.1028 1738.81 88.3251 1740.36 L88.3251 1735.64 Q91.1491 1734.51 93.6028 1733.93 Q96.0565 1733.35 98.0935 1733.35 Q103.464 1733.35 106.658 1736.03 Q109.853 1738.72 109.853 1743.21 Q109.853 1745.34 109.043 1747.26 Q108.256 1749.16 106.149 1751.75 Q105.57 1752.42 102.469 1755.64 Q99.3667 1758.84 93.7186 1764.6 Z" fill="#000000" fill-rule="evenodd" fill-opacity="1" /><path clip-path="url(#clip160)" d="M49.5521 1338.11 L79.2279 1338.11 L79.2279 1342.05 L49.5521 1342.05 L49.5521 1338.11 Z" fill="#000000" fill-rule="evenodd" fill-opacity="1" /><path clip-path="url(#clip160)" d="M90.1306 1351 L97.7695 1351 L97.7695 1324.64 L89.4593 1326.3 L89.4593 1322.05 L97.7232 1320.38 L102.399 1320.38 L102.399 1351 L110.038 1351 L110.038 1354.94 L90.1306 1354.94 L90.1306 1351 Z" fill="#000000" fill-rule="evenodd" fill-opacity="1" /><path clip-path="url(#clip160)" d="M98.0935 909.862 Q94.4824 909.862 92.6537 913.427 Q90.8482 916.968 90.8482 924.098 Q90.8482 931.204 92.6537 934.769 Q94.4824 938.311 98.0935 938.311 Q101.728 938.311 103.533 934.769 Q105.362 931.204 105.362 924.098 Q105.362 916.968 103.533 913.427 Q101.728 909.862 98.0935 909.862 M98.0935 906.158 Q103.904 906.158 106.959 910.765 Q110.038 915.348 110.038 924.098 Q110.038 932.825 106.959 937.431 Q103.904 942.015 98.0935 942.015 Q92.2834 942.015 89.2047 937.431 Q86.1492 932.825 86.1492 924.098 Q86.1492 915.348 89.2047 910.765 Q92.2834 906.158 98.0935 906.158 Z" fill="#000000" fill-rule="evenodd" fill-opacity="1" /><path clip-path="url(#clip160)" d="M90.1306 523.813 L97.7695 523.813 L97.7695 497.447 L89.4593 499.114 L89.4593 494.855 L97.7232 493.188 L102.399 493.188 L102.399 523.813 L110.038 523.813 L110.038 527.748 L90.1306 527.748 L90.1306 523.813 Z" fill="#000000" fill-rule="evenodd" fill-opacity="1" /><path clip-path="url(#clip160)" d="M93.7186 110.217 L110.038 110.217 L110.038 114.152 L88.0936 114.152 L88.0936 110.217 Q90.7556 107.463 95.3389 102.833 Q99.9454 98.1803 101.126 96.8377 Q103.371 94.3146 104.251 92.5785 Q105.154 90.8192 105.154 89.1294 Q105.154 86.3748 103.209 84.6387 Q101.288 82.9026 98.1861 82.9026 Q95.9871 82.9026 93.5334 83.6665 Q91.1028 84.4304 88.3251 85.9813 L88.3251 81.2591 Q91.1491 80.1249 93.6028 79.5462 Q96.0565 78.9675 98.0935 78.9675 Q103.464 78.9675 106.658 81.6526 Q109.853 84.3378 109.853 88.8285 Q109.853 90.9581 109.043 92.8794 Q108.256 94.7776 106.149 97.3701 Q105.57 98.0414 102.469 101.259 Q99.3667 104.453 93.7186 110.217 Z" fill="#000000" fill-rule="evenodd" fill-opacity="1" /><polyline clip-path="url(#clip162)" style="stroke:#009af9; stroke-linecap:butt; stroke-linejoin:round; stroke-width:4; stroke-opacity:1; fill:none" points="
  1395.56,96.8724 1432.64,97.2847 1469.69,98.5212 1506.66,100.581 1543.53,103.461 1580.24,107.159 1616.78,111.671 1653.09,116.994 1689.14,123.121 1724.9,130.046 
  1760.34,137.763 1795.41,146.263 1830.08,155.539 1864.32,165.581 1898.09,176.379 1931.36,187.922 1964.1,200.199 1996.27,213.198 2027.84,226.905 2058.78,241.308 
  2089.06,256.39 2118.64,272.139 2147.51,288.537 2175.63,305.569 2202.97,323.217 2229.5,341.464 2255.21,360.292 2280.06,379.682 2304.02,399.614 2327.08,420.07 
  2349.21,441.028 2370.39,462.467 2390.6,484.366 2409.82,506.704 2428.02,529.458 2445.2,552.605 2461.33,576.122 2476.4,599.986 2490.39,624.173 2503.29,648.659 
  2515.08,673.42 2525.76,698.431 2535.31,723.666 2543.73,749.101 2551,774.711 2557.12,800.469 2562.08,826.351 2565.88,852.33 2568.52,878.381 2569.98,904.477 
  2570.27,930.593 2569.39,956.702 2567.35,982.778 2564.13,1008.8 2559.75,1034.73 2554.21,1060.55 2547.51,1086.24 2539.67,1111.77 2530.68,1137.1 2520.56,1162.23 
  2509.32,1187.12 2496.98,1211.75 2483.53,1236.09 2469,1260.11 2453.4,1283.81 2436.74,1307.14 2419.05,1330.1 2400.33,1352.64 2380.62,1374.77 2359.92,1396.44 
  2338.26,1417.64 2315.67,1438.35 2292.15,1458.54 2267.74,1478.21 2242.46,1497.32 2216.34,1515.86 2189.4,1533.81 2161.67,1551.15 2133.17,1567.87 2103.94,1583.94 
  2074,1599.36 2043.39,1614.11 2012.13,1628.16 1980.25,1641.52 1947.8,1654.16 1914.79,1666.07 1881.27,1677.24 1847.26,1687.66 1812.8,1697.32 1777.92,1706.21 
  1742.67,1714.32 1707.06,1721.64 1671.15,1728.17 1634.96,1733.89 1598.54,1738.81 1561.91,1742.92 1525.11,1746.21 1488.19,1748.68 1451.17,1750.33 1414.1,1751.15 
  1377.01,1751.15 1339.94,1750.33 1302.92,1748.68 1266,1746.21 1229.21,1742.92 1192.58,1738.81 1156.15,1733.89 1119.96,1728.17 1084.05,1721.64 1048.45,1714.32 
  1013.19,1706.21 978.317,1697.32 943.858,1687.66 909.849,1677.24 876.324,1666.07 843.316,1654.16 810.859,1641.52 778.985,1628.16 747.726,1614.11 717.112,1599.36 
  687.175,1583.94 657.944,1567.87 629.448,1551.15 601.716,1533.81 574.775,1515.86 548.652,1497.32 523.373,1478.21 498.964,1458.54 475.449,1438.35 452.851,1417.64 
  431.192,1396.44 410.495,1374.77 390.78,1352.64 372.066,1330.1 354.372,1307.14 337.717,1283.81 322.116,1260.11 307.585,1236.09 294.138,1211.75 281.789,1187.12 
  270.551,1162.23 260.434,1137.1 251.449,1111.77 243.604,1086.24 236.907,1060.55 231.365,1034.73 226.984,1008.8 223.767,982.778 221.719,956.702 220.841,930.593 
  221.134,904.477 222.597,878.381 225.23,852.33 229.029,826.351 233.991,800.469 240.111,774.711 247.383,749.101 255.799,723.666 265.352,698.431 276.031,673.42 
  287.826,648.659 300.725,624.173 314.715,599.986 329.783,576.122 345.914,552.605 363.09,529.458 381.296,506.704 400.513,484.366 420.722,462.467 441.902,441.028 
  464.034,420.07 487.093,399.614 511.059,379.682 535.906,360.292 561.609,341.464 588.145,323.217 615.485,305.569 643.602,288.537 672.469,272.139 702.057,256.39 
  732.337,241.308 763.277,226.905 794.848,213.198 827.017,200.199 859.753,187.922 893.023,176.379 926.795,165.581 961.033,155.539 995.705,146.263 1030.78,137.763 
  1066.21,130.046 1101.97,123.121 1138.03,116.994 1174.34,111.671 1210.87,107.159 1247.59,103.461 1284.45,100.581 1321.42,98.5212 1358.47,97.2847 1395.56,96.8724 
  
  "/>
<polyline clip-path="url(#clip162)" style="stroke:#e26f46; stroke-linecap:butt; stroke-linejoin:round; stroke-width:4; stroke-opacity:1; fill:none" points="
  1395.56,924.063 2384.08,477.13 
  "/>
<polyline clip-path="url(#clip162)" style="stroke:#e26f46; stroke-linecap:butt; stroke-linejoin:round; stroke-width:4; stroke-opacity:1; fill:none" points="
  2339.03,475.371 2384.08,477.13 2355.64,512.111 
  "/>
<polyline clip-path="url(#clip162)" style="stroke:#e26f46; stroke-linecap:butt; stroke-linejoin:round; stroke-width:4; stroke-opacity:1; fill:none" points="
  2384.08,477.13 1395.56,924.063 
  "/>
<path clip-path="url(#clip160)" d="
M2228.6 209.375 L2557.74 209.375 L2557.74 105.695 L2228.6 105.695  Z
  " fill="#ffffff" fill-rule="evenodd" fill-opacity="1"/>
<polyline clip-path="url(#clip160)" style="stroke:#000000; stroke-linecap:butt; stroke-linejoin:round; stroke-width:4; stroke-opacity:1; fill:none" points="
  2228.6,209.375 2557.74,209.375 2557.74,105.695 2228.6,105.695 2228.6,209.375 
  "/>
<polyline clip-path="url(#clip160)" style="stroke:#009af9; stroke-linecap:butt; stroke-linejoin:round; stroke-width:4; stroke-opacity:1; fill:none" points="
  2256.27,157.535 2422.3,157.535 
  "/>
<path clip-path="url(#clip160)" d="M2463.81 177.223 Q2462.01 181.852 2460.29 183.264 Q2458.58 184.676 2455.71 184.676 L2452.31 184.676 L2452.31 181.112 L2454.81 181.112 Q2456.57 181.112 2457.54 180.278 Q2458.51 179.445 2459.69 176.343 L2460.46 174.399 L2449.97 148.889 L2454.48 148.889 L2462.59 169.167 L2470.69 148.889 L2475.2 148.889 L2463.81 177.223 Z" fill="#000000" fill-rule="evenodd" fill-opacity="1" /><path clip-path="url(#clip160)" d="M2482.49 170.88 L2490.13 170.88 L2490.13 144.515 L2481.82 146.181 L2481.82 141.922 L2490.09 140.255 L2494.76 140.255 L2494.76 170.88 L2502.4 170.88 L2502.4 174.815 L2482.49 174.815 L2482.49 170.88 Z" fill="#000000" fill-rule="evenodd" fill-opacity="1" /></svg>
