<?xml version="1.0" encoding="utf-8"?>
<svg xmlns="http://www.w3.org/2000/svg" xmlns:xlink="http://www.w3.org/1999/xlink" width="672" height="480" viewBox="0 0 2688 1920">
<defs>
  <clipPath id="clip730">
    <rect x="0" y="0" width="2688" height="1920"/>
  </clipPath>
</defs>
<path clip-path="url(#clip730)" d="
M0 1920 L2688 1920 L2688 0 L0 0  Z
  " fill="#ffffff" fill-rule="evenodd" fill-opacity="1"/>
<defs>
  <clipPath id="clip731">
    <rect x="537" y="0" width="1883" height="1883"/>
  </clipPath>
</defs>
<path clip-path="url(#clip730)" d="
M150.358 1800.78 L2640.76 1800.78 L2640.76 47.2441 L150.358 47.2441  Z
  " fill="#ffffff" fill-rule="evenodd" fill-opacity="1"/>
<defs>
  <clipPath id="clip732">
    <rect x="150" y="47" width="2491" height="1755"/>
  </clipPath>
</defs>
<polyline clip-path="url(#clip732)" style="stroke:#000000; stroke-linecap:round; stroke-linejoin:round; stroke-width:2; stroke-opacity:0.1; fill:none" points="
  220.841,1800.78 220.841,47.2441 
  "/>
<polyline clip-path="url(#clip732)" style="stroke:#000000; stroke-linecap:round; stroke-linejoin:round; stroke-width:2; stroke-opacity:0.1; fill:none" points="
  684.935,1800.78 684.935,47.2441 
  "/>
<polyline clip-path="url(#clip732)" style="stroke:#000000; stroke-linecap:round; stroke-linejoin:round; stroke-width:2; stroke-opacity:0.1; fill:none" points="
  1149.03,1800.78 1149.03,47.2441 
  "/>
<polyline clip-path="url(#clip732)" style="stroke:#000000; stroke-linecap:round; stroke-linejoin:round; stroke-width:2; stroke-opacity:0.1; fill:none" points="
  1613.12,1800.78 1613.12,47.2441 
  "/>
<polyline clip-path="url(#clip732)" style="stroke:#000000; stroke-linecap:round; stroke-linejoin:round; stroke-width:2; stroke-opacity:0.1; fill:none" points="
  2077.22,1800.78 2077.22,47.2441 
  "/>
<polyline clip-path="url(#clip732)" style="stroke:#000000; stroke-linecap:round; stroke-linejoin:round; stroke-width:2; stroke-opacity:0.1; fill:none" points="
  2541.31,1800.78 2541.31,47.2441 
  "/>
<polyline clip-path="url(#clip730)" style="stroke:#000000; stroke-linecap:round; stroke-linejoin:round; stroke-width:4; stroke-opacity:1; fill:none" points="
  150.358,1800.78 2640.76,1800.78 
  "/>
<polyline clip-path="url(#clip730)" style="stroke:#000000; stroke-linecap:round; stroke-linejoin:round; stroke-width:4; stroke-opacity:1; fill:none" points="
  220.841,1800.78 220.841,1781.88 
  "/>
<polyline clip-path="url(#clip730)" style="stroke:#000000; stroke-linecap:round; stroke-linejoin:round; stroke-width:4; stroke-opacity:1; fill:none" points="
  684.935,1800.78 684.935,1781.88 
  "/>
<polyline clip-path="url(#clip730)" style="stroke:#000000; stroke-linecap:round; stroke-linejoin:round; stroke-width:4; stroke-opacity:1; fill:none" points="
  1149.03,1800.78 1149.03,1781.88 
  "/>
<polyline clip-path="url(#clip730)" style="stroke:#000000; stroke-linecap:round; stroke-linejoin:round; stroke-width:4; stroke-opacity:1; fill:none" points="
  1613.12,1800.78 1613.12,1781.88 
  "/>
<polyline clip-path="url(#clip730)" style="stroke:#000000; stroke-linecap:round; stroke-linejoin:round; stroke-width:4; stroke-opacity:1; fill:none" points="
  2077.22,1800.78 2077.22,1781.88 
  "/>
<polyline clip-path="url(#clip730)" style="stroke:#000000; stroke-linecap:round; stroke-linejoin:round; stroke-width:4; stroke-opacity:1; fill:none" points="
  2541.31,1800.78 2541.31,1781.88 
  "/>
<path clip-path="url(#clip730)" d="M167.369 1848.65 L197.045 1848.65 L197.045 1852.59 L167.369 1852.59 L167.369 1848.65 Z" fill="#000000" fill-rule="evenodd" fill-opacity="1" /><path clip-path="url(#clip730)" d="M207.947 1861.55 L215.586 1861.55 L215.586 1835.18 L207.276 1836.85 L207.276 1832.59 L215.54 1830.92 L220.216 1830.92 L220.216 1861.55 L227.855 1861.55 L227.855 1865.48 L207.947 1865.48 L207.947 1861.55 Z" fill="#000000" fill-rule="evenodd" fill-opacity="1" /><path clip-path="url(#clip730)" d="M237.299 1859.6 L242.183 1859.6 L242.183 1865.48 L237.299 1865.48 L237.299 1859.6 Z" fill="#000000" fill-rule="evenodd" fill-opacity="1" /><path clip-path="url(#clip730)" d="M262.368 1834 Q258.757 1834 256.929 1837.57 Q255.123 1841.11 255.123 1848.24 Q255.123 1855.34 256.929 1858.91 Q258.757 1862.45 262.368 1862.45 Q266.003 1862.45 267.808 1858.91 Q269.637 1855.34 269.637 1848.24 Q269.637 1841.11 267.808 1837.57 Q266.003 1834 262.368 1834 M262.368 1830.3 Q268.179 1830.3 271.234 1834.9 Q274.313 1839.49 274.313 1848.24 Q274.313 1856.96 271.234 1861.57 Q268.179 1866.15 262.368 1866.15 Q256.558 1866.15 253.48 1861.57 Q250.424 1856.96 250.424 1848.24 Q250.424 1839.49 253.48 1834.9 Q256.558 1830.3 262.368 1830.3 Z" fill="#000000" fill-rule="evenodd" fill-opacity="1" /><path clip-path="url(#clip730)" d="M631.961 1848.65 L661.637 1848.65 L661.637 1852.59 L631.961 1852.59 L631.961 1848.65 Z" fill="#000000" fill-rule="evenodd" fill-opacity="1" /><path clip-path="url(#clip730)" d="M681.729 1834 Q678.118 1834 676.29 1837.57 Q674.484 1841.11 674.484 1848.24 Q674.484 1855.34 676.29 1858.91 Q678.118 1862.45 681.729 1862.45 Q685.364 1862.45 687.169 1858.91 Q688.998 1855.34 688.998 1848.24 Q688.998 1841.11 687.169 1837.57 Q685.364 1834 681.729 1834 M681.729 1830.3 Q687.54 1830.3 690.595 1834.9 Q693.674 1839.49 693.674 1848.24 Q693.674 1856.96 690.595 1861.57 Q687.54 1866.15 681.729 1866.15 Q675.919 1866.15 672.841 1861.57 Q669.785 1856.96 669.785 1848.24 Q669.785 1839.49 672.841 1834.9 Q675.919 1830.3 681.729 1830.3 Z" fill="#000000" fill-rule="evenodd" fill-opacity="1" /><path clip-path="url(#clip730)" d="M701.891 1859.6 L706.776 1859.6 L706.776 1865.48 L701.891 1865.48 L701.891 1859.6 Z" fill="#000000" fill-rule="evenodd" fill-opacity="1" /><path clip-path="url(#clip730)" d="M717.007 1830.92 L735.363 1830.92 L735.363 1834.86 L721.289 1834.86 L721.289 1843.33 Q722.308 1842.98 723.326 1842.82 Q724.345 1842.64 725.363 1842.64 Q731.15 1842.64 734.53 1845.81 Q737.91 1848.98 737.91 1854.4 Q737.91 1859.97 734.437 1863.08 Q730.965 1866.15 724.646 1866.15 Q722.47 1866.15 720.201 1865.78 Q717.956 1865.41 715.549 1864.67 L715.549 1859.97 Q717.632 1861.11 719.854 1861.66 Q722.076 1862.22 724.553 1862.22 Q728.558 1862.22 730.896 1860.11 Q733.234 1858.01 733.234 1854.4 Q733.234 1850.78 730.896 1848.68 Q728.558 1846.57 724.553 1846.57 Q722.678 1846.57 720.803 1846.99 Q718.951 1847.4 717.007 1848.28 L717.007 1830.92 Z" fill="#000000" fill-rule="evenodd" fill-opacity="1" /><path clip-path="url(#clip730)" d="M1126.41 1834 Q1122.8 1834 1120.97 1837.57 Q1119.17 1841.11 1119.17 1848.24 Q1119.17 1855.34 1120.97 1858.91 Q1122.8 1862.45 1126.41 1862.45 Q1130.05 1862.45 1131.85 1858.91 Q1133.68 1855.34 1133.68 1848.24 Q1133.68 1841.11 1131.85 1837.57 Q1130.05 1834 1126.41 1834 M1126.41 1830.3 Q1132.22 1830.3 1135.28 1834.9 Q1138.36 1839.49 1138.36 1848.24 Q1138.36 1856.96 1135.28 1861.57 Q1132.22 1866.15 1126.41 1866.15 Q1120.6 1866.15 1117.53 1861.57 Q1114.47 1856.96 1114.47 1848.24 Q1114.47 1839.49 1117.53 1834.9 Q1120.6 1830.3 1126.41 1830.3 Z" fill="#000000" fill-rule="evenodd" fill-opacity="1" /><path clip-path="url(#clip730)" d="M1146.58 1859.6 L1151.46 1859.6 L1151.46 1865.48 L1146.58 1865.48 L1146.58 1859.6 Z" fill="#000000" fill-rule="evenodd" fill-opacity="1" /><path clip-path="url(#clip730)" d="M1171.65 1834 Q1168.03 1834 1166.21 1837.57 Q1164.4 1841.11 1164.4 1848.24 Q1164.4 1855.34 1166.21 1858.91 Q1168.03 1862.45 1171.65 1862.45 Q1175.28 1862.45 1177.09 1858.91 Q1178.91 1855.34 1178.91 1848.24 Q1178.91 1841.11 1177.09 1837.57 Q1175.28 1834 1171.65 1834 M1171.65 1830.3 Q1177.46 1830.3 1180.51 1834.9 Q1183.59 1839.49 1183.59 1848.24 Q1183.59 1856.96 1180.51 1861.57 Q1177.46 1866.15 1171.65 1866.15 Q1165.84 1866.15 1162.76 1861.57 Q1159.7 1856.96 1159.7 1848.24 Q1159.7 1839.49 1162.76 1834.9 Q1165.84 1830.3 1171.65 1830.3 Z" fill="#000000" fill-rule="evenodd" fill-opacity="1" /><path clip-path="url(#clip730)" d="M1591.01 1834 Q1587.4 1834 1585.57 1837.57 Q1583.76 1841.11 1583.76 1848.24 Q1583.76 1855.34 1585.57 1858.91 Q1587.4 1862.45 1591.01 1862.45 Q1594.64 1862.45 1596.45 1858.91 Q1598.28 1855.34 1598.28 1848.24 Q1598.28 1841.11 1596.45 1837.57 Q1594.64 1834 1591.01 1834 M1591.01 1830.3 Q1596.82 1830.3 1599.87 1834.9 Q1602.95 1839.49 1602.95 1848.24 Q1602.95 1856.96 1599.87 1861.57 Q1596.82 1866.15 1591.01 1866.15 Q1585.2 1866.15 1582.12 1861.57 Q1579.06 1856.96 1579.06 1848.24 Q1579.06 1839.49 1582.12 1834.9 Q1585.2 1830.3 1591.01 1830.3 Z" fill="#000000" fill-rule="evenodd" fill-opacity="1" /><path clip-path="url(#clip730)" d="M1611.17 1859.6 L1616.05 1859.6 L1616.05 1865.48 L1611.17 1865.48 L1611.17 1859.6 Z" fill="#000000" fill-rule="evenodd" fill-opacity="1" /><path clip-path="url(#clip730)" d="M1626.28 1830.92 L1644.64 1830.92 L1644.64 1834.86 L1630.57 1834.86 L1630.57 1843.33 Q1631.59 1842.98 1632.6 1842.82 Q1633.62 1842.64 1634.64 1842.64 Q1640.43 1842.64 1643.81 1845.81 Q1647.19 1848.98 1647.19 1854.4 Q1647.19 1859.97 1643.71 1863.08 Q1640.24 1866.15 1633.92 1866.15 Q1631.75 1866.15 1629.48 1865.78 Q1627.23 1865.41 1624.83 1864.67 L1624.83 1859.97 Q1626.91 1861.11 1629.13 1861.66 Q1631.35 1862.22 1633.83 1862.22 Q1637.84 1862.22 1640.17 1860.11 Q1642.51 1858.01 1642.51 1854.4 Q1642.51 1850.78 1640.17 1848.68 Q1637.84 1846.57 1633.83 1846.57 Q1631.96 1846.57 1630.08 1846.99 Q1628.23 1847.4 1626.28 1848.28 L1626.28 1830.92 Z" fill="#000000" fill-rule="evenodd" fill-opacity="1" /><path clip-path="url(#clip730)" d="M2044.37 1861.55 L2052.01 1861.55 L2052.01 1835.18 L2043.7 1836.85 L2043.7 1832.59 L2051.96 1830.92 L2056.64 1830.92 L2056.64 1861.55 L2064.28 1861.55 L2064.28 1865.48 L2044.37 1865.48 L2044.37 1861.55 Z" fill="#000000" fill-rule="evenodd" fill-opacity="1" /><path clip-path="url(#clip730)" d="M2073.72 1859.6 L2078.61 1859.6 L2078.61 1865.48 L2073.72 1865.48 L2073.72 1859.6 Z" fill="#000000" fill-rule="evenodd" fill-opacity="1" /><path clip-path="url(#clip730)" d="M2098.79 1834 Q2095.18 1834 2093.35 1837.57 Q2091.55 1841.11 2091.55 1848.24 Q2091.55 1855.34 2093.35 1858.91 Q2095.18 1862.45 2098.79 1862.45 Q2102.43 1862.45 2104.23 1858.91 Q2106.06 1855.34 2106.06 1848.24 Q2106.06 1841.11 2104.23 1837.57 Q2102.43 1834 2098.79 1834 M2098.79 1830.3 Q2104.6 1830.3 2107.66 1834.9 Q2110.74 1839.49 2110.74 1848.24 Q2110.74 1856.96 2107.66 1861.57 Q2104.6 1866.15 2098.79 1866.15 Q2092.98 1866.15 2089.9 1861.57 Q2086.85 1856.96 2086.85 1848.24 Q2086.85 1839.49 2089.9 1834.9 Q2092.98 1830.3 2098.79 1830.3 Z" fill="#000000" fill-rule="evenodd" fill-opacity="1" /><path clip-path="url(#clip730)" d="M2508.96 1861.55 L2516.6 1861.55 L2516.6 1835.18 L2508.29 1836.85 L2508.29 1832.59 L2516.56 1830.92 L2521.23 1830.92 L2521.23 1861.55 L2528.87 1861.55 L2528.87 1865.48 L2508.96 1865.48 L2508.96 1861.55 Z" fill="#000000" fill-rule="evenodd" fill-opacity="1" /><path clip-path="url(#clip730)" d="M2538.32 1859.6 L2543.2 1859.6 L2543.2 1865.48 L2538.32 1865.48 L2538.32 1859.6 Z" fill="#000000" fill-rule="evenodd" fill-opacity="1" /><path clip-path="url(#clip730)" d="M2553.43 1830.92 L2571.79 1830.92 L2571.79 1834.86 L2557.71 1834.86 L2557.71 1843.33 Q2558.73 1842.98 2559.75 1842.82 Q2560.77 1842.64 2561.79 1842.64 Q2567.58 1842.64 2570.95 1845.81 Q2574.33 1848.98 2574.33 1854.4 Q2574.33 1859.97 2570.86 1863.08 Q2567.39 1866.15 2561.07 1866.15 Q2558.89 1866.15 2556.63 1865.78 Q2554.38 1865.41 2551.97 1864.67 L2551.97 1859.97 Q2554.06 1861.11 2556.28 1861.66 Q2558.5 1862.22 2560.98 1862.22 Q2564.98 1862.22 2567.32 1860.11 Q2569.66 1858.01 2569.66 1854.4 Q2569.66 1850.78 2567.32 1848.68 Q2564.98 1846.57 2560.98 1846.57 Q2559.1 1846.57 2557.23 1846.99 Q2555.38 1847.4 2553.43 1848.28 L2553.43 1830.92 Z" fill="#000000" fill-rule="evenodd" fill-opacity="1" /><polyline clip-path="url(#clip732)" style="stroke:#000000; stroke-linecap:round; stroke-linejoin:round; stroke-width:2; stroke-opacity:0.1; fill:none" points="
  150.358,1751.15 2640.76,1751.15 
  "/>
<polyline clip-path="url(#clip732)" style="stroke:#000000; stroke-linecap:round; stroke-linejoin:round; stroke-width:2; stroke-opacity:0.1; fill:none" points="
  150.358,1228.48 2640.76,1228.48 
  "/>
<polyline clip-path="url(#clip732)" style="stroke:#000000; stroke-linecap:round; stroke-linejoin:round; stroke-width:2; stroke-opacity:0.1; fill:none" points="
  150.358,705.814 2640.76,705.814 
  "/>
<polyline clip-path="url(#clip732)" style="stroke:#000000; stroke-linecap:round; stroke-linejoin:round; stroke-width:2; stroke-opacity:0.1; fill:none" points="
  150.358,183.146 2640.76,183.146 
  "/>
<polyline clip-path="url(#clip730)" style="stroke:#000000; stroke-linecap:round; stroke-linejoin:round; stroke-width:4; stroke-opacity:1; fill:none" points="
  150.358,1800.78 150.358,47.2441 
  "/>
<polyline clip-path="url(#clip730)" style="stroke:#000000; stroke-linecap:round; stroke-linejoin:round; stroke-width:4; stroke-opacity:1; fill:none" points="
  150.358,1751.15 169.256,1751.15 
  "/>
<polyline clip-path="url(#clip730)" style="stroke:#000000; stroke-linecap:round; stroke-linejoin:round; stroke-width:4; stroke-opacity:1; fill:none" points="
  150.358,1228.48 169.256,1228.48 
  "/>
<polyline clip-path="url(#clip730)" style="stroke:#000000; stroke-linecap:round; stroke-linejoin:round; stroke-width:4; stroke-opacity:1; fill:none" points="
  150.358,705.814 169.256,705.814 
  "/>
<polyline clip-path="url(#clip730)" style="stroke:#000000; stroke-linecap:round; stroke-linejoin:round; stroke-width:4; stroke-opacity:1; fill:none" points="
  150.358,183.146 169.256,183.146 
  "/>
<path clip-path="url(#clip730)" d="M49.5521 1751.6 L79.2279 1751.6 L79.2279 1755.54 L49.5521 1755.54 L49.5521 1751.6 Z" fill="#000000" fill-rule="evenodd" fill-opacity="1" /><path clip-path="url(#clip730)" d="M90.1306 1764.5 L97.7695 1764.5 L97.7695 1738.13 L89.4593 1739.8 L89.4593 1735.54 L97.7232 1733.87 L102.399 1733.87 L102.399 1764.5 L110.038 1764.5 L110.038 1768.43 L90.1306 1768.43 L90.1306 1764.5 Z" fill="#000000" fill-rule="evenodd" fill-opacity="1" /><path clip-path="url(#clip730)" d="M98.0935 1214.28 Q94.4824 1214.28 92.6537 1217.85 Q90.8482 1221.39 90.8482 1228.52 Q90.8482 1235.62 92.6537 1239.19 Q94.4824 1242.73 98.0935 1242.73 Q101.728 1242.73 103.533 1239.19 Q105.362 1235.62 105.362 1228.52 Q105.362 1221.39 103.533 1217.85 Q101.728 1214.28 98.0935 1214.28 M98.0935 1210.58 Q103.904 1210.58 106.959 1215.18 Q110.038 1219.77 110.038 1228.52 Q110.038 1237.24 106.959 1241.85 Q103.904 1246.43 98.0935 1246.43 Q92.2834 1246.43 89.2047 1241.85 Q86.1492 1237.24 86.1492 1228.52 Q86.1492 1219.77 89.2047 1215.18 Q92.2834 1210.58 98.0935 1210.58 Z" fill="#000000" fill-rule="evenodd" fill-opacity="1" /><path clip-path="url(#clip730)" d="M90.1306 719.159 L97.7695 719.159 L97.7695 692.793 L89.4593 694.46 L89.4593 690.201 L97.7232 688.534 L102.399 688.534 L102.399 719.159 L110.038 719.159 L110.038 723.094 L90.1306 723.094 L90.1306 719.159 Z" fill="#000000" fill-rule="evenodd" fill-opacity="1" /><path clip-path="url(#clip730)" d="M93.7186 196.491 L110.038 196.491 L110.038 200.426 L88.0936 200.426 L88.0936 196.491 Q90.7556 193.736 95.3389 189.107 Q99.9454 184.454 101.126 183.111 Q103.371 180.588 104.251 178.852 Q105.154 177.093 105.154 175.403 Q105.154 172.648 103.209 170.912 Q101.288 169.176 98.1861 169.176 Q95.9871 169.176 93.5334 169.94 Q91.1028 170.704 88.3251 172.255 L88.3251 167.533 Q91.1491 166.398 93.6028 165.82 Q96.0565 165.241 98.0935 165.241 Q103.464 165.241 106.658 167.926 Q109.853 170.611 109.853 175.102 Q109.853 177.232 109.043 179.153 Q108.256 181.051 106.149 183.644 Q105.57 184.315 102.469 187.532 Q99.3667 190.727 93.7186 196.491 Z" fill="#000000" fill-rule="evenodd" fill-opacity="1" /><polyline clip-path="url(#clip732)" style="stroke:#ff0000; stroke-linecap:round; stroke-linejoin:round; stroke-width:4; stroke-opacity:1; fill:none" points="
  747.112,1289.13 747.112,1289.13 756.549,1288.31 766.044,1287.45 856.429,1277.75 950.977,1264.72 1009.48,1255.26 1069.05,1244.55 
  1120.1,1234.51 1171.69,1223.58 1228.21,1210.69 1285.08,1196.75 1337.71,1182.96 1390.43,1168.3 
  1446.91,1151.62 1503.23,1133.95 1568.11,1112.29 1632.39,1089.38 1744.55,1045.71 1839.97,1004.52 
  1890.57,981.011 1940.01,956.81 1988.49,931.812 2035.59,906.207 2085.95,877.25 2134.37,847.684 2178.53,819.055 
  2220.72,790.008 2262.39,759.437 2301.74,728.569 2332.98,702.416 2362.45,676.162 2395.96,644.046 2426.68,611.95 
  2452.32,582.649 2475.51,553.521 2494.72,526.838 2511.79,500.428 2526.88,474.015 2539.73,448.005 
  2551.46,419.413 2560.36,391.493 2565.99,366.847 2569.3,342.889 2570.27,316.384 2568.26,290.957 
  2563.77,268.454 2556.78,247.023 2547.51,227.012 2535.91,208.174 2522.48,191.064 
  2506.96,175.174 2488.96,160.204 2468.9,146.624 2444.66,133.4 2418.16,121.969 
  2397.56,114.823 2375.87,108.675 2353.14,103.544 2329.43,99.4479 2324.45,98.7372 2319.42,98.071 2314.36,97.4494 
  2309.27,96.8724 
  "/>
<polyline clip-path="url(#clip732)" style="stroke:#0000ff; stroke-linecap:round; stroke-linejoin:round; stroke-width:4; stroke-opacity:1; fill:none" points="
  220.841,1751.15 220.841,1751.15 222.724,1749.5 224.637,1747.85 226.581,1746.17 228.555,1744.49 248.271,1728.32 270.648,1711.21 295.689,1693.28 
  323.36,1674.66 359.993,1651.55 400.134,1627.83 436.636,1607.43 475.311,1586.81 519.578,1564.24 565.957,1541.57 
  610.372,1520.62 656.179,1499.66 758.2,1454.76 880.936,1402.85 992.122,1356.74 
  1089.93,1316.24 1195.69,1271.93 1300.06,1227.11 1411.84,1177.29 1513.61,1129.69 
  1564.42,1104.91 1613.66,1080.16 1653.8,1059.36 1692.68,1038.63 1738.37,1013.44 1782.03,988.441 1820.17,965.755 
  1856.49,943.323 1888.38,922.874 1918.65,902.727 1947.66,882.668 1974.97,863.007 2003.57,841.5 2030.03,820.616 
  2052.17,802.283 2072.6,784.563 2093.89,765.089 2112.99,746.551 2128.79,730.282 
  2142.82,714.927 2154.98,700.733 2165.56,687.52 2174.4,675.67 2181.9,664.819 
  2188.3,654.766 2193.49,645.823 2197.92,637.329 2201.19,630.22 2204.19,622.386 
  2205.62,617.505 2205.76,616.865 2205.87,616.347 
  "/>
</svg>
