<?xml version="1.0" encoding="utf-8"?>
<svg xmlns="http://www.w3.org/2000/svg" xmlns:xlink="http://www.w3.org/1999/xlink" width="672" height="480" viewBox="0 0 2688 1920">
<defs>
  <clipPath id="clip400">
    <rect x="0" y="0" width="2688" height="1920"/>
  </clipPath>
</defs>
<path clip-path="url(#clip400)" d="
M0 1920 L2688 1920 L2688 0 L0 0  Z
  " fill="#ffffff" fill-rule="evenodd" fill-opacity="1"/>
<defs>
  <clipPath id="clip401">
    <rect x="537" y="0" width="1883" height="1883"/>
  </clipPath>
</defs>
<path clip-path="url(#clip400)" d="
M152.071 1800.78 L2640.76 1800.78 L2640.76 47.2441 L152.071 47.2441  Z
  " fill="#ffffff" fill-rule="evenodd" fill-opacity="1"/>
<defs>
  <clipPath id="clip402">
    <rect x="152" y="47" width="2490" height="1755"/>
  </clipPath>
</defs>
<polyline clip-path="url(#clip402)" style="stroke:#000000; stroke-linecap:butt; stroke-linejoin:round; stroke-width:2; stroke-opacity:0.1; fill:none" points="
  403.822,1800.78 403.822,47.2441 
  "/>
<polyline clip-path="url(#clip402)" style="stroke:#000000; stroke-linecap:butt; stroke-linejoin:round; stroke-width:2; stroke-opacity:0.1; fill:none" points="
  734.68,1800.78 734.68,47.2441 
  "/>
<polyline clip-path="url(#clip402)" style="stroke:#000000; stroke-linecap:butt; stroke-linejoin:round; stroke-width:2; stroke-opacity:0.1; fill:none" points="
  1065.54,1800.78 1065.54,47.2441 
  "/>
<polyline clip-path="url(#clip402)" style="stroke:#000000; stroke-linecap:butt; stroke-linejoin:round; stroke-width:2; stroke-opacity:0.1; fill:none" points="
  1396.4,1800.78 1396.4,47.2441 
  "/>
<polyline clip-path="url(#clip402)" style="stroke:#000000; stroke-linecap:butt; stroke-linejoin:round; stroke-width:2; stroke-opacity:0.1; fill:none" points="
  1727.25,1800.78 1727.25,47.2441 
  "/>
<polyline clip-path="url(#clip402)" style="stroke:#000000; stroke-linecap:butt; stroke-linejoin:round; stroke-width:2; stroke-opacity:0.1; fill:none" points="
  2058.11,1800.78 2058.11,47.2441 
  "/>
<polyline clip-path="url(#clip402)" style="stroke:#000000; stroke-linecap:butt; stroke-linejoin:round; stroke-width:2; stroke-opacity:0.1; fill:none" points="
  2388.97,1800.78 2388.97,47.2441 
  "/>
<polyline clip-path="url(#clip400)" style="stroke:#000000; stroke-linecap:butt; stroke-linejoin:round; stroke-width:4; stroke-opacity:1; fill:none" points="
  152.071,1800.78 2640.76,1800.78 
  "/>
<polyline clip-path="url(#clip400)" style="stroke:#000000; stroke-linecap:butt; stroke-linejoin:round; stroke-width:4; stroke-opacity:1; fill:none" points="
  403.822,1800.78 403.822,1781.88 
  "/>
<polyline clip-path="url(#clip400)" style="stroke:#000000; stroke-linecap:butt; stroke-linejoin:round; stroke-width:4; stroke-opacity:1; fill:none" points="
  734.68,1800.78 734.68,1781.88 
  "/>
<polyline clip-path="url(#clip400)" style="stroke:#000000; stroke-linecap:butt; stroke-linejoin:round; stroke-width:4; stroke-opacity:1; fill:none" points="
  1065.54,1800.78 1065.54,1781.88 
  "/>
<polyline clip-path="url(#clip400)" style="stroke:#000000; stroke-linecap:butt; stroke-linejoin:round; stroke-width:4; stroke-opacity:1; fill:none" points="
  1396.4,1800.78 1396.4,1781.88 
  "/>
<polyline clip-path="url(#clip400)" style="stroke:#000000; stroke-linecap:butt; stroke-linejoin:round; stroke-width:4; stroke-opacity:1; fill:none" points="
  1727.25,1800.78 1727.25,1781.88 
  "/>
<polyline clip-path="url(#clip400)" style="stroke:#000000; stroke-linecap:butt; stroke-linejoin:round; stroke-width:4; stroke-opacity:1; fill:none" points="
  2058.11,1800.78 2058.11,1781.88 
  "/>
<polyline clip-path="url(#clip400)" style="stroke:#000000; stroke-linecap:butt; stroke-linejoin:round; stroke-width:4; stroke-opacity:1; fill:none" points="
  2388.97,1800.78 2388.97,1781.88 
  "/>
<path clip-path="url(#clip400)" d="M372.885 1848.65 L402.56 1848.65 L402.56 1852.59 L372.885 1852.59 L372.885 1848.65 Z" fill="#000000" fill-rule="evenodd" fill-opacity="1" /><path clip-path="url(#clip400)" d="M423.232 1846.34 Q420.084 1846.34 418.232 1848.49 Q416.403 1850.65 416.403 1854.4 Q416.403 1858.12 418.232 1860.3 Q420.084 1862.45 423.232 1862.45 Q426.38 1862.45 428.208 1860.3 Q430.06 1858.12 430.06 1854.4 Q430.06 1850.65 428.208 1848.49 Q426.38 1846.34 423.232 1846.34 M432.514 1831.69 L432.514 1835.95 Q430.755 1835.11 428.949 1834.67 Q427.167 1834.23 425.408 1834.23 Q420.778 1834.23 418.324 1837.36 Q415.894 1840.48 415.547 1846.8 Q416.912 1844.79 418.972 1843.72 Q421.033 1842.64 423.509 1842.64 Q428.718 1842.64 431.727 1845.81 Q434.759 1848.96 434.759 1854.4 Q434.759 1859.72 431.611 1862.94 Q428.463 1866.15 423.232 1866.15 Q417.236 1866.15 414.065 1861.57 Q410.894 1856.96 410.894 1848.24 Q410.894 1840.04 414.783 1835.18 Q418.671 1830.3 425.222 1830.3 Q426.982 1830.3 428.764 1830.65 Q430.57 1830.99 432.514 1831.69 Z" fill="#000000" fill-rule="evenodd" fill-opacity="1" /><path clip-path="url(#clip400)" d="M703.581 1848.65 L733.257 1848.65 L733.257 1852.59 L703.581 1852.59 L703.581 1848.65 Z" fill="#000000" fill-rule="evenodd" fill-opacity="1" /><path clip-path="url(#clip400)" d="M756.196 1835 L744.391 1853.45 L756.196 1853.45 L756.196 1835 M754.969 1830.92 L760.849 1830.92 L760.849 1853.45 L765.78 1853.45 L765.78 1857.34 L760.849 1857.34 L760.849 1865.48 L756.196 1865.48 L756.196 1857.34 L740.595 1857.34 L740.595 1852.82 L754.969 1830.92 Z" fill="#000000" fill-rule="evenodd" fill-opacity="1" /><path clip-path="url(#clip400)" d="M1035.48 1848.65 L1065.16 1848.65 L1065.16 1852.59 L1035.48 1852.59 L1035.48 1848.65 Z" fill="#000000" fill-rule="evenodd" fill-opacity="1" /><path clip-path="url(#clip400)" d="M1079.28 1861.55 L1095.6 1861.55 L1095.6 1865.48 L1073.65 1865.48 L1073.65 1861.55 Q1076.31 1858.79 1080.9 1854.16 Q1085.5 1849.51 1086.68 1848.17 Q1088.93 1845.65 1089.81 1843.91 Q1090.71 1842.15 1090.71 1840.46 Q1090.71 1837.71 1088.77 1835.97 Q1086.85 1834.23 1083.74 1834.23 Q1081.55 1834.23 1079.09 1835 Q1076.66 1835.76 1073.88 1837.31 L1073.88 1832.59 Q1076.71 1831.46 1079.16 1830.88 Q1081.61 1830.3 1083.65 1830.3 Q1089.02 1830.3 1092.22 1832.98 Q1095.41 1835.67 1095.41 1840.16 Q1095.41 1842.29 1094.6 1844.21 Q1093.81 1846.11 1091.71 1848.7 Q1091.13 1849.37 1088.03 1852.59 Q1084.92 1855.78 1079.28 1861.55 Z" fill="#000000" fill-rule="evenodd" fill-opacity="1" /><path clip-path="url(#clip400)" d="M1396.4 1834 Q1392.79 1834 1390.96 1837.57 Q1389.15 1841.11 1389.15 1848.24 Q1389.15 1855.34 1390.96 1858.91 Q1392.79 1862.45 1396.4 1862.45 Q1400.03 1862.45 1401.84 1858.91 Q1403.66 1855.34 1403.66 1848.24 Q1403.66 1841.11 1401.84 1837.57 Q1400.03 1834 1396.4 1834 M1396.4 1830.3 Q1402.21 1830.3 1405.26 1834.9 Q1408.34 1839.49 1408.34 1848.24 Q1408.34 1856.96 1405.26 1861.57 Q1402.21 1866.15 1396.4 1866.15 Q1390.59 1866.15 1387.51 1861.57 Q1384.45 1856.96 1384.45 1848.24 Q1384.45 1839.49 1387.51 1834.9 Q1390.59 1830.3 1396.4 1830.3 Z" fill="#000000" fill-rule="evenodd" fill-opacity="1" /><path clip-path="url(#clip400)" d="M1721.91 1861.55 L1738.23 1861.55 L1738.23 1865.48 L1716.28 1865.48 L1716.28 1861.55 Q1718.94 1858.79 1723.53 1854.16 Q1728.13 1849.51 1729.31 1848.17 Q1731.56 1845.65 1732.44 1843.91 Q1733.34 1842.15 1733.34 1840.46 Q1733.34 1837.71 1731.4 1835.97 Q1729.48 1834.23 1726.38 1834.23 Q1724.18 1834.23 1721.72 1835 Q1719.29 1835.76 1716.51 1837.31 L1716.51 1832.59 Q1719.34 1831.46 1721.79 1830.88 Q1724.25 1830.3 1726.28 1830.3 Q1731.65 1830.3 1734.85 1832.98 Q1738.04 1835.67 1738.04 1840.16 Q1738.04 1842.29 1737.23 1844.21 Q1736.44 1846.11 1734.34 1848.7 Q1733.76 1849.37 1730.66 1852.59 Q1727.56 1855.78 1721.91 1861.55 Z" fill="#000000" fill-rule="evenodd" fill-opacity="1" /><path clip-path="url(#clip400)" d="M2061.12 1835 L2049.32 1853.45 L2061.12 1853.45 L2061.12 1835 M2059.9 1830.92 L2065.77 1830.92 L2065.77 1853.45 L2070.71 1853.45 L2070.71 1857.34 L2065.77 1857.34 L2065.77 1865.48 L2061.12 1865.48 L2061.12 1857.34 L2045.52 1857.34 L2045.52 1852.82 L2059.9 1830.92 Z" fill="#000000" fill-rule="evenodd" fill-opacity="1" /><path clip-path="url(#clip400)" d="M2389.38 1846.34 Q2386.23 1846.34 2384.38 1848.49 Q2382.55 1850.65 2382.55 1854.4 Q2382.55 1858.12 2384.38 1860.3 Q2386.23 1862.45 2389.38 1862.45 Q2392.52 1862.45 2394.35 1860.3 Q2396.2 1858.12 2396.2 1854.4 Q2396.2 1850.65 2394.35 1848.49 Q2392.52 1846.34 2389.38 1846.34 M2398.66 1831.69 L2398.66 1835.95 Q2396.9 1835.11 2395.09 1834.67 Q2393.31 1834.23 2391.55 1834.23 Q2386.92 1834.23 2384.47 1837.36 Q2382.04 1840.48 2381.69 1846.8 Q2383.06 1844.79 2385.12 1843.72 Q2387.18 1842.64 2389.65 1842.64 Q2394.86 1842.64 2397.87 1845.81 Q2400.9 1848.96 2400.9 1854.4 Q2400.9 1859.72 2397.76 1862.94 Q2394.61 1866.15 2389.38 1866.15 Q2383.38 1866.15 2380.21 1861.57 Q2377.04 1856.96 2377.04 1848.24 Q2377.04 1840.04 2380.93 1835.18 Q2384.82 1830.3 2391.37 1830.3 Q2393.13 1830.3 2394.91 1830.65 Q2396.71 1830.99 2398.66 1831.69 Z" fill="#000000" fill-rule="evenodd" fill-opacity="1" /><polyline clip-path="url(#clip402)" style="stroke:#000000; stroke-linecap:butt; stroke-linejoin:round; stroke-width:2; stroke-opacity:0.1; fill:none" points="
  152.071,1585.72 2640.76,1585.72 
  "/>
<polyline clip-path="url(#clip402)" style="stroke:#000000; stroke-linecap:butt; stroke-linejoin:round; stroke-width:2; stroke-opacity:0.1; fill:none" points="
  152.071,1254.87 2640.76,1254.87 
  "/>
<polyline clip-path="url(#clip402)" style="stroke:#000000; stroke-linecap:butt; stroke-linejoin:round; stroke-width:2; stroke-opacity:0.1; fill:none" points="
  152.071,924.007 2640.76,924.007 
  "/>
<polyline clip-path="url(#clip402)" style="stroke:#000000; stroke-linecap:butt; stroke-linejoin:round; stroke-width:2; stroke-opacity:0.1; fill:none" points="
  152.071,593.149 2640.76,593.149 
  "/>
<polyline clip-path="url(#clip402)" style="stroke:#000000; stroke-linecap:butt; stroke-linejoin:round; stroke-width:2; stroke-opacity:0.1; fill:none" points="
  152.071,262.291 2640.76,262.291 
  "/>
<polyline clip-path="url(#clip400)" style="stroke:#000000; stroke-linecap:butt; stroke-linejoin:round; stroke-width:4; stroke-opacity:1; fill:none" points="
  152.071,1800.78 152.071,47.2441 
  "/>
<polyline clip-path="url(#clip400)" style="stroke:#000000; stroke-linecap:butt; stroke-linejoin:round; stroke-width:4; stroke-opacity:1; fill:none" points="
  152.071,1585.72 170.969,1585.72 
  "/>
<polyline clip-path="url(#clip400)" style="stroke:#000000; stroke-linecap:butt; stroke-linejoin:round; stroke-width:4; stroke-opacity:1; fill:none" points="
  152.071,1254.87 170.969,1254.87 
  "/>
<polyline clip-path="url(#clip400)" style="stroke:#000000; stroke-linecap:butt; stroke-linejoin:round; stroke-width:4; stroke-opacity:1; fill:none" points="
  152.071,924.007 170.969,924.007 
  "/>
<polyline clip-path="url(#clip400)" style="stroke:#000000; stroke-linecap:butt; stroke-linejoin:round; stroke-width:4; stroke-opacity:1; fill:none" points="
  152.071,593.149 170.969,593.149 
  "/>
<polyline clip-path="url(#clip400)" style="stroke:#000000; stroke-linecap:butt; stroke-linejoin:round; stroke-width:4; stroke-opacity:1; fill:none" points="
  152.071,262.291 170.969,262.291 
  "/>
<path clip-path="url(#clip400)" d="M49.5521 1586.18 L79.2279 1586.18 L79.2279 1590.11 L49.5521 1590.11 L49.5521 1586.18 Z" fill="#000000" fill-rule="evenodd" fill-opacity="1" /><path clip-path="url(#clip400)" d="M102.168 1572.52 L90.3621 1590.97 L102.168 1590.97 L102.168 1572.52 M100.941 1568.44 L106.82 1568.44 L106.82 1590.97 L111.751 1590.97 L111.751 1594.86 L106.82 1594.86 L106.82 1603 L102.168 1603 L102.168 1594.86 L86.5658 1594.86 L86.5658 1590.34 L100.941 1568.44 Z" fill="#000000" fill-rule="evenodd" fill-opacity="1" /><path clip-path="url(#clip400)" d="M51.6354 1255.32 L81.3112 1255.32 L81.3112 1259.25 L51.6354 1259.25 L51.6354 1255.32 Z" fill="#000000" fill-rule="evenodd" fill-opacity="1" /><path clip-path="url(#clip400)" d="M95.4315 1268.21 L111.751 1268.21 L111.751 1272.15 L89.8065 1272.15 L89.8065 1268.21 Q92.4686 1265.46 97.0519 1260.83 Q101.658 1256.17 102.839 1254.83 Q105.084 1252.31 105.964 1250.57 Q106.867 1248.81 106.867 1247.12 Q106.867 1244.37 104.922 1242.63 Q103.001 1240.9 99.8991 1240.9 Q97.7 1240.9 95.2463 1241.66 Q92.8158 1242.42 90.038 1243.97 L90.038 1239.25 Q92.8621 1238.12 95.3158 1237.54 Q97.7695 1236.96 99.8065 1236.96 Q105.177 1236.96 108.371 1239.65 Q111.566 1242.33 111.566 1246.82 Q111.566 1248.95 110.756 1250.87 Q109.968 1252.77 107.862 1255.36 Q107.283 1256.03 104.181 1259.25 Q101.08 1262.45 95.4315 1268.21 Z" fill="#000000" fill-rule="evenodd" fill-opacity="1" /><path clip-path="url(#clip400)" d="M99.8065 909.806 Q96.1954 909.806 94.3667 913.371 Q92.5612 916.912 92.5612 924.042 Q92.5612 931.149 94.3667 934.713 Q96.1954 938.255 99.8065 938.255 Q103.441 938.255 105.246 934.713 Q107.075 931.149 107.075 924.042 Q107.075 916.912 105.246 913.371 Q103.441 909.806 99.8065 909.806 M99.8065 906.102 Q105.617 906.102 108.672 910.709 Q111.751 915.292 111.751 924.042 Q111.751 932.769 108.672 937.375 Q105.617 941.959 99.8065 941.959 Q93.9963 941.959 90.9176 937.375 Q87.8621 932.769 87.8621 924.042 Q87.8621 915.292 90.9176 910.709 Q93.9963 906.102 99.8065 906.102 Z" fill="#000000" fill-rule="evenodd" fill-opacity="1" /><path clip-path="url(#clip400)" d="M95.4315 606.494 L111.751 606.494 L111.751 610.429 L89.8065 610.429 L89.8065 606.494 Q92.4686 603.739 97.0519 599.11 Q101.658 594.457 102.839 593.114 Q105.084 590.591 105.964 588.855 Q106.867 587.096 106.867 585.406 Q106.867 582.652 104.922 580.915 Q103.001 579.179 99.8991 579.179 Q97.7 579.179 95.2463 579.943 Q92.8158 580.707 90.038 582.258 L90.038 577.536 Q92.8621 576.402 95.3158 575.823 Q97.7695 575.244 99.8065 575.244 Q105.177 575.244 108.371 577.929 Q111.566 580.615 111.566 585.105 Q111.566 587.235 110.756 589.156 Q109.968 591.054 107.862 593.647 Q107.283 594.318 104.181 597.536 Q101.08 600.73 95.4315 606.494 Z" fill="#000000" fill-rule="evenodd" fill-opacity="1" /><path clip-path="url(#clip400)" d="M102.168 249.085 L90.3621 267.534 L102.168 267.534 L102.168 249.085 M100.941 245.011 L106.82 245.011 L106.82 267.534 L111.751 267.534 L111.751 271.423 L106.82 271.423 L106.82 279.571 L102.168 279.571 L102.168 271.423 L86.5658 271.423 L86.5658 266.909 L100.941 245.011 Z" fill="#000000" fill-rule="evenodd" fill-opacity="1" /><polyline clip-path="url(#clip402)" style="stroke:#0000ff; stroke-linecap:butt; stroke-linejoin:round; stroke-width:4; stroke-opacity:1; fill:none" points="
  2223.54,924.007 2223.5,915.549 2223.37,907.091 2223.15,898.634 2222.85,890.181 2220.33,851.158 2215.96,812.298 2209.77,773.688 2201.75,735.413 2191.94,697.561 
  2180.35,660.214 2167.01,623.457 2151.94,587.372 2131.6,545.003 2108.89,503.857 2083.87,464.068 2056.64,425.764 2031.95,394.629 2005.79,364.715 1978.23,336.093 
  1949.32,308.827 1916.47,280.82 1882.21,254.564 1846.62,230.131 1809.81,207.588 1774.88,188.533 1739.06,171.18 1702.46,155.57 1665.14,141.738 1624.45,128.922 
  1583.15,118.22 1541.35,109.662 1499.17,103.271 1449.96,98.5981 1400.56,96.8724 1351.15,98.1005 1301.9,102.278 1258.4,108.454 1215.3,116.93 1172.71,127.682 
  1130.75,140.681 1094.57,153.899 1059.04,168.787 1024.24,185.313 990.25,203.442 954.198,224.986 919.287,248.333 885.605,273.422 853.241,300.187 822.097,328.735 
  792.451,358.835 764.381,390.41 737.96,423.377 710.75,461.343 685.726,500.785 662.969,541.576 642.551,583.586 625.355,624.568 610.384,666.414 597.683,709.004 
  587.288,752.215 578.957,797.669 573.177,843.516 569.966,889.615 569.335,935.822 570.806,974.695 574.102,1013.46 579.217,1052.02 586.139,1090.3 597.019,1136.53 
  610.533,1182.06 626.639,1226.73 645.282,1270.41 664.535,1309.43 685.812,1347.37 709.056,1384.15 734.201,1419.65 759.053,1451.23 785.41,1481.56 813.208,1510.57 
  842.383,1538.2 873.268,1564.71 905.421,1589.67 938.762,1613.02 973.211,1634.7 1013.03,1656.95 1054.02,1676.97 1096.05,1694.7 1138.99,1710.08 1178.59,1721.96 
  1218.72,1731.84 1259.3,1739.71 1300.22,1745.54 1347.37,1749.7 1394.67,1751.15 1441.98,1749.9 1489.14,1745.94 1532.54,1739.87 1575.55,1731.52 1618.07,1720.9 
  1659.96,1708.04 1700.53,1693.21 1740.28,1676.28 1779.09,1657.3 1816.85,1636.32 1852.42,1614.09 1886.82,1590.08 1919.95,1564.36 1951.74,1537 1982.85,1507.31 
  2012.37,1476.05 2040.22,1443.29 2066.34,1409.13 2092.87,1370.2 2117.15,1329.83 2139.08,1288.14 2158.61,1245.27 2171.24,1213.46 2182.55,1181.17 2192.51,1148.43 
  2201.12,1115.31 2214.17,1048.15 2221.64,980.129 2222.47,966.113 2223.07,952.085 2223.42,938.048 2223.54,924.007 
  "/>
<polyline clip-path="url(#clip402)" style="stroke:#000000; stroke-linecap:butt; stroke-linejoin:round; stroke-width:4; stroke-opacity:1; fill:none" points="
  1230.97,924.007 1230.95,920.624 1230.9,917.241 1230.81,913.858 1230.69,910.477 1229.68,894.868 1227.94,879.324 1225.46,863.88 1222.25,848.57 1218.33,833.429 
  1213.69,818.49 1208.35,803.787 1202.33,789.353 1194.19,772.405 1185.11,755.947 1175.1,740.032 1164.21,724.71 1154.33,712.256 1143.87,700.291 1132.84,688.842 
  1121.28,677.935 1108.14,666.732 1094.43,656.23 1080.2,646.457 1065.48,637.44 1051.5,629.818 1037.18,622.876 1022.53,616.632 1007.61,611.1 991.33,605.973 
  974.81,601.692 958.091,598.269 941.218,595.713 921.535,593.844 901.775,593.153 882.01,593.645 862.309,595.316 844.912,597.786 827.671,601.176 810.634,605.477 
  793.85,610.677 779.377,615.964 765.165,621.919 751.247,628.53 737.651,635.781 723.23,644.399 709.265,653.738 695.793,663.773 682.847,674.479 670.389,685.898 
  658.531,697.939 647.303,710.569 636.735,723.755 625.851,738.942 615.841,754.718 606.738,771.035 598.571,787.839 591.693,804.232 585.704,820.97 580.624,838.006 
  576.466,855.291 573.133,873.472 570.821,891.811 569.537,910.251 569.285,928.733 569.873,944.282 571.191,959.787 573.237,975.212 576.006,990.524 580.358,1009.02 
  585.764,1027.23 592.206,1045.1 599.663,1062.57 607.365,1078.17 615.876,1093.35 625.173,1108.06 635.231,1122.27 645.172,1134.9 655.714,1147.03 666.834,1158.63 
  678.504,1169.69 690.858,1180.29 703.719,1190.27 717.055,1199.61 730.835,1208.28 746.764,1217.18 763.159,1225.19 779.971,1232.28 797.148,1238.44 812.985,1243.19 
  829.039,1247.14 845.272,1250.29 861.641,1252.62 880.498,1254.28 899.419,1254.86 918.342,1254.36 937.206,1252.78 954.565,1250.35 971.772,1247.01 988.777,1242.76 
  1005.53,1237.62 1021.76,1231.69 1037.66,1224.92 1053.19,1217.32 1068.29,1208.93 1082.52,1200.04 1096.28,1190.44 1109.53,1180.15 1122.25,1169.2 1134.69,1157.33 
  1146.5,1144.82 1157.64,1131.72 1168.09,1118.06 1178.7,1102.49 1188.41,1086.34 1197.18,1069.66 1204.99,1052.51 1210.05,1039.79 1214.57,1026.87 1218.56,1013.78 
  1222,1000.53 1227.22,973.662 1230.2,946.456 1230.54,940.85 1230.78,935.238 1230.92,929.624 1230.97,924.007 
  "/>
<polyline clip-path="url(#clip402)" style="stroke:#ff0000; stroke-linecap:butt; stroke-linejoin:round; stroke-width:4; stroke-opacity:1; fill:none" points="
  2157.37,924.007 2157.34,924.853 2157.26,925.699 2157.12,926.543 2156.92,927.386 2155.28,931.25 2152.45,935.024 2148.42,938.662 2143.22,942.115 2136.86,945.339 
  2129.36,948.286 2120.73,950.914 2111,953.179 2097.9,955.361 2083.3,956.89 2067.26,957.7 2049.85,957.729 2034.12,957.101 2017.49,955.843 2000.03,953.925 
  1981.78,951.32 1961.11,947.684 1939.65,943.184 1917.46,937.796 1894.6,931.503 1873.02,924.888 1850.99,917.484 1828.59,909.288 1805.87,900.299 1781.24,889.785 
  1756.39,878.37 1731.4,866.067 1706.35,852.892 1677.34,836.565 1648.46,819.135 1619.82,800.65 1591.53,781.165 1542.46,744.259 1495.4,704.788 1456.2,668.427 
  1419.26,630.792 1400.18,609.871 1381.89,588.744 1364.43,567.477 1347.84,546.135 1332.04,524.661 1317.17,503.251 1303.25,481.976 1290.3,460.906 1277.1,437.937 
  1265.12,415.403 1254.33,393.401 1244.75,372.025 1236.74,352.353 1229.8,333.412 1223.9,315.278 1219.03,298.026 1215.02,281.099 1212.05,265.281 1210.08,250.645 
  1209.06,237.259 1208.9,227.01 1209.35,217.729 1210.36,209.45 1211.9,202.204 1214.45,194.799 1217.66,189.021 1221.45,184.908 1225.74,182.493 1230.03,181.791 
  1234.62,182.547 1239.43,184.772 1244.39,188.467 1249.05,193.186 1253.73,199.153 1258.39,206.36 1262.96,214.793 1267.46,224.57 1271.77,235.569 1275.84,247.763 
  1279.62,261.127 1283.45,277.453 1286.8,295.157 1289.59,314.183 1291.77,334.472 1293.18,353.893 1294,374.245 1294.2,395.475 1293.75,417.526 1292.39,443.703 
  1290.11,470.785 1286.86,498.675 1282.63,527.276 1277.81,554.303 1272.11,581.769 1265.54,609.592 1258.08,637.688 1249.87,665.572 1240.82,693.558 1230.93,721.567 
  1220.23,749.517 1197.22,803.331 1171.42,856.062 1142.39,908.432 1111.07,958.552 1093.09,984.872 1074.62,1010.29 1055.74,1034.73 1036.52,1058.14 1008.19,1090.17 
  979.615,1119.73 951.066,1146.67 922.834,1170.89 917.108,1175.52 911.41,1180.03 905.743,1184.42 900.109,1188.69 
  "/>
</svg>
