<?xml version="1.0" encoding="utf-8"?>
<svg xmlns="http://www.w3.org/2000/svg" xmlns:xlink="http://www.w3.org/1999/xlink" width="672" height="480" viewBox="0 0 2688 1920">
<defs>
  <clipPath id="clip600">
    <rect x="0" y="0" width="2688" height="1920"/>
  </clipPath>
</defs>
<path clip-path="url(#clip600)" d="
M0 1920 L2688 1920 L2688 0 L0 0  Z
  " fill="#ffffff" fill-rule="evenodd" fill-opacity="1"/>
<defs>
  <clipPath id="clip601">
    <rect x="537" y="0" width="1883" height="1883"/>
  </clipPath>
</defs>
<defs>
  <clipPath id="clip602">
    <rect x="187" y="47" width="2455" height="1755"/>
  </clipPath>
</defs>
<path clip-path="url(#clip602)" d="
M1393.21 960.571 L1389.69 932.223 L1408.75 922.335 L1435.79 927.488 L1432.88 954.073 L1420.27 971.663 L1393.21 960.571  Z
  " fill="#ffffff" fill-rule="evenodd" fill-opacity="1"/>
<polyline clip-path="url(#clip602)" style="stroke:#000000; stroke-linecap:butt; stroke-linejoin:round; stroke-width:2; stroke-opacity:0.1; fill:none" points="
  780.367,1430.01 1285.7,1000.04 
  "/>
<polyline clip-path="url(#clip602)" style="stroke:#000000; stroke-linecap:butt; stroke-linejoin:round; stroke-width:2; stroke-opacity:0.1; fill:none" points="
  1285.7,1000.04 1268.27,239.902 
  "/>
<polyline clip-path="url(#clip602)" style="stroke:#000000; stroke-linecap:butt; stroke-linejoin:round; stroke-width:2; stroke-opacity:0.1; fill:none" points="
  901.701,1479.18 1393.36,1033.02 
  "/>
<polyline clip-path="url(#clip602)" style="stroke:#000000; stroke-linecap:butt; stroke-linejoin:round; stroke-width:2; stroke-opacity:0.1; fill:none" points="
  1393.36,1033.02 1390.52,262.925 
  "/>
<polyline clip-path="url(#clip602)" style="stroke:#000000; stroke-linecap:butt; stroke-linejoin:round; stroke-width:2; stroke-opacity:0.1; fill:none" points="
  1028.12,1530.41 1504.71,1067.12 
  "/>
<polyline clip-path="url(#clip602)" style="stroke:#000000; stroke-linecap:butt; stroke-linejoin:round; stroke-width:2; stroke-opacity:0.1; fill:none" points="
  1504.71,1067.12 1517.53,286.846 
  "/>
<polyline clip-path="url(#clip602)" style="stroke:#000000; stroke-linecap:butt; stroke-linejoin:round; stroke-width:2; stroke-opacity:0.1; fill:none" points="
  1159.95,1583.83 1619.91,1102.41 
  "/>
<polyline clip-path="url(#clip602)" style="stroke:#000000; stroke-linecap:butt; stroke-linejoin:round; stroke-width:2; stroke-opacity:0.1; fill:none" points="
  1619.91,1102.41 1649.59,311.716 
  "/>
<polyline clip-path="url(#clip602)" style="stroke:#000000; stroke-linecap:butt; stroke-linejoin:round; stroke-width:2; stroke-opacity:0.1; fill:none" points="
  1297.55,1639.59 1739.19,1138.95 
  "/>
<polyline clip-path="url(#clip602)" style="stroke:#000000; stroke-linecap:butt; stroke-linejoin:round; stroke-width:2; stroke-opacity:0.1; fill:none" points="
  1739.19,1138.95 1787,337.595 
  "/>
<polyline clip-path="url(#clip602)" style="stroke:#000000; stroke-linecap:butt; stroke-linejoin:round; stroke-width:2; stroke-opacity:0.1; fill:none" points="
  1441.3,1697.84 1862.76,1176.8 
  "/>
<polyline clip-path="url(#clip602)" style="stroke:#000000; stroke-linecap:butt; stroke-linejoin:round; stroke-width:2; stroke-opacity:0.1; fill:none" points="
  1862.76,1176.8 1930.09,364.545 
  "/>
<polyline clip-path="url(#clip602)" style="stroke:#000000; stroke-linecap:butt; stroke-linejoin:round; stroke-width:2; stroke-opacity:0.1; fill:none" points="
  1591.63,1758.76 1990.86,1216.03 
  "/>
<polyline clip-path="url(#clip602)" style="stroke:#000000; stroke-linecap:butt; stroke-linejoin:round; stroke-width:2; stroke-opacity:0.1; fill:none" points="
  1990.86,1216.03 2079.24,392.633 
  "/>
<polyline clip-path="url(#clip600)" style="stroke:#000000; stroke-linecap:butt; stroke-linejoin:round; stroke-width:4; stroke-opacity:1; fill:none" points="
  763.77,1423.29 1613.22,1767.51 
  "/>
<polyline clip-path="url(#clip600)" style="stroke:#000000; stroke-linecap:butt; stroke-linejoin:round; stroke-width:4; stroke-opacity:1; fill:none" points="
  780.367,1430.01 787.739,1423.74 
  "/>
<polyline clip-path="url(#clip600)" style="stroke:#000000; stroke-linecap:butt; stroke-linejoin:round; stroke-width:4; stroke-opacity:1; fill:none" points="
  901.701,1479.18 908.899,1472.65 
  "/>
<polyline clip-path="url(#clip600)" style="stroke:#000000; stroke-linecap:butt; stroke-linejoin:round; stroke-width:4; stroke-opacity:1; fill:none" points="
  1028.12,1530.41 1035.12,1523.6 
  "/>
<polyline clip-path="url(#clip600)" style="stroke:#000000; stroke-linecap:butt; stroke-linejoin:round; stroke-width:4; stroke-opacity:1; fill:none" points="
  1159.95,1583.83 1166.74,1576.73 
  "/>
<polyline clip-path="url(#clip600)" style="stroke:#000000; stroke-linecap:butt; stroke-linejoin:round; stroke-width:4; stroke-opacity:1; fill:none" points="
  1297.55,1639.59 1304.09,1632.17 
  "/>
<polyline clip-path="url(#clip600)" style="stroke:#000000; stroke-linecap:butt; stroke-linejoin:round; stroke-width:4; stroke-opacity:1; fill:none" points="
  1441.3,1697.84 1447.57,1690.09 
  "/>
<polyline clip-path="url(#clip600)" style="stroke:#000000; stroke-linecap:butt; stroke-linejoin:round; stroke-width:4; stroke-opacity:1; fill:none" points="
  1591.63,1758.76 1597.6,1750.65 
  "/>
<path clip-path="url(#clip600)" d="M676.256 1460.31 L705.932 1460.31 L705.932 1464.25 L676.256 1464.25 L676.256 1460.31 Z" fill="#000000" fill-rule="evenodd" fill-opacity="1" /><path clip-path="url(#clip600)" d="M730.191 1458.5 Q733.547 1459.22 735.422 1461.49 Q737.32 1463.76 737.32 1467.09 Q737.32 1472.21 733.802 1475.01 Q730.283 1477.81 723.802 1477.81 Q721.626 1477.81 719.311 1477.37 Q717.019 1476.95 714.566 1476.1 L714.566 1471.58 Q716.51 1472.72 718.825 1473.3 Q721.14 1473.88 723.663 1473.88 Q728.061 1473.88 730.353 1472.14 Q732.667 1470.4 732.667 1467.09 Q732.667 1464.04 730.515 1462.32 Q728.385 1460.59 724.566 1460.59 L720.538 1460.59 L720.538 1456.75 L724.751 1456.75 Q728.2 1456.75 730.029 1455.38 Q731.857 1453.99 731.857 1451.4 Q731.857 1448.74 729.959 1447.32 Q728.084 1445.89 724.566 1445.89 Q722.644 1445.89 720.445 1446.31 Q718.246 1446.72 715.607 1447.6 L715.607 1443.44 Q718.269 1442.69 720.584 1442.32 Q722.922 1441.95 724.982 1441.95 Q730.306 1441.95 733.408 1444.38 Q736.51 1446.79 736.51 1450.91 Q736.51 1453.78 734.867 1455.77 Q733.223 1457.74 730.191 1458.5 Z" fill="#000000" fill-rule="evenodd" fill-opacity="1" /><path clip-path="url(#clip600)" d="M756.186 1445.66 Q752.575 1445.66 750.746 1449.22 Q748.941 1452.76 748.941 1459.89 Q748.941 1467 750.746 1470.56 Q752.575 1474.11 756.186 1474.11 Q759.82 1474.11 761.626 1470.56 Q763.454 1467 763.454 1459.89 Q763.454 1452.76 761.626 1449.22 Q759.82 1445.66 756.186 1445.66 M756.186 1441.95 Q761.996 1441.95 765.052 1446.56 Q768.13 1451.14 768.13 1459.89 Q768.13 1468.62 765.052 1473.23 Q761.996 1477.81 756.186 1477.81 Q750.376 1477.81 747.297 1473.23 Q744.242 1468.62 744.242 1459.89 Q744.242 1451.14 747.297 1446.56 Q750.376 1441.95 756.186 1441.95 Z" fill="#000000" fill-rule="evenodd" fill-opacity="1" /><path clip-path="url(#clip600)" d="M797.589 1509.48 L827.265 1509.48 L827.265 1513.41 L797.589 1513.41 L797.589 1509.48 Z" fill="#000000" fill-rule="evenodd" fill-opacity="1" /><path clip-path="url(#clip600)" d="M841.385 1522.37 L857.704 1522.37 L857.704 1526.31 L835.76 1526.31 L835.76 1522.37 Q838.422 1519.62 843.005 1514.99 Q847.612 1510.33 848.792 1508.99 Q851.038 1506.47 851.917 1504.73 Q852.82 1502.97 852.82 1501.28 Q852.82 1498.53 850.876 1496.79 Q848.954 1495.06 845.853 1495.06 Q843.653 1495.06 841.2 1495.82 Q838.769 1496.58 835.991 1498.13 L835.991 1493.41 Q838.816 1492.28 841.269 1491.7 Q843.723 1491.12 845.76 1491.12 Q851.13 1491.12 854.325 1493.81 Q857.519 1496.49 857.519 1500.98 Q857.519 1503.11 856.709 1505.03 Q855.922 1506.93 853.815 1509.52 Q853.237 1510.2 850.135 1513.41 Q847.033 1516.61 841.385 1522.37 Z" fill="#000000" fill-rule="evenodd" fill-opacity="1" /><path clip-path="url(#clip600)" d="M877.519 1494.82 Q873.908 1494.82 872.079 1498.39 Q870.274 1501.93 870.274 1509.06 Q870.274 1516.17 872.079 1519.73 Q873.908 1523.27 877.519 1523.27 Q881.153 1523.27 882.959 1519.73 Q884.788 1516.17 884.788 1509.06 Q884.788 1501.93 882.959 1498.39 Q881.153 1494.82 877.519 1494.82 M877.519 1491.12 Q883.329 1491.12 886.385 1495.73 Q889.463 1500.31 889.463 1509.06 Q889.463 1517.79 886.385 1522.39 Q883.329 1526.98 877.519 1526.98 Q871.709 1526.98 868.63 1522.39 Q865.575 1517.79 865.575 1509.06 Q865.575 1500.31 868.63 1495.73 Q871.709 1491.12 877.519 1491.12 Z" fill="#000000" fill-rule="evenodd" fill-opacity="1" /><path clip-path="url(#clip600)" d="M924.008 1560.71 L953.684 1560.71 L953.684 1564.64 L924.008 1564.64 L924.008 1560.71 Z" fill="#000000" fill-rule="evenodd" fill-opacity="1" /><path clip-path="url(#clip600)" d="M964.586 1573.6 L972.225 1573.6 L972.225 1547.23 L963.915 1548.9 L963.915 1544.64 L972.179 1542.97 L976.855 1542.97 L976.855 1573.6 L984.494 1573.6 L984.494 1577.53 L964.586 1577.53 L964.586 1573.6 Z" fill="#000000" fill-rule="evenodd" fill-opacity="1" /><path clip-path="url(#clip600)" d="M1003.94 1546.05 Q1000.33 1546.05 998.498 1549.62 Q996.693 1553.16 996.693 1560.29 Q996.693 1567.4 998.498 1570.96 Q1000.33 1574.5 1003.94 1574.5 Q1007.57 1574.5 1009.38 1570.96 Q1011.21 1567.4 1011.21 1560.29 Q1011.21 1553.16 1009.38 1549.62 Q1007.57 1546.05 1003.94 1546.05 M1003.94 1542.35 Q1009.75 1542.35 1012.8 1546.96 Q1015.88 1551.54 1015.88 1560.29 Q1015.88 1569.02 1012.8 1573.62 Q1009.75 1578.21 1003.94 1578.21 Q998.128 1578.21 995.049 1573.62 Q991.994 1569.02 991.994 1560.29 Q991.994 1551.54 995.049 1546.96 Q998.128 1542.35 1003.94 1542.35 Z" fill="#000000" fill-rule="evenodd" fill-opacity="1" /><path clip-path="url(#clip600)" d="M1135.77 1599.47 Q1132.16 1599.47 1130.33 1603.04 Q1128.52 1606.58 1128.52 1613.71 Q1128.52 1620.82 1130.33 1624.38 Q1132.16 1627.92 1135.77 1627.92 Q1139.4 1627.92 1141.21 1624.38 Q1143.04 1620.82 1143.04 1613.71 Q1143.04 1606.58 1141.21 1603.04 Q1139.4 1599.47 1135.77 1599.47 M1135.77 1595.77 Q1141.58 1595.77 1144.63 1600.38 Q1147.71 1604.96 1147.71 1613.71 Q1147.71 1622.44 1144.63 1627.04 Q1141.58 1631.63 1135.77 1631.63 Q1129.96 1631.63 1126.88 1627.04 Q1123.82 1622.44 1123.82 1613.71 Q1123.82 1604.96 1126.88 1600.38 Q1129.96 1595.77 1135.77 1595.77 Z" fill="#000000" fill-rule="evenodd" fill-opacity="1" /><path clip-path="url(#clip600)" d="M1234.02 1682.78 L1241.66 1682.78 L1241.66 1656.41 L1233.35 1658.08 L1233.35 1653.82 L1241.61 1652.15 L1246.28 1652.15 L1246.28 1682.78 L1253.92 1682.78 L1253.92 1686.71 L1234.02 1686.71 L1234.02 1682.78 Z" fill="#000000" fill-rule="evenodd" fill-opacity="1" /><path clip-path="url(#clip600)" d="M1273.37 1655.23 Q1269.76 1655.23 1267.93 1658.8 Q1266.12 1662.34 1266.12 1669.47 Q1266.12 1676.57 1267.93 1680.14 Q1269.76 1683.68 1273.37 1683.68 Q1277 1683.68 1278.81 1680.14 Q1280.64 1676.57 1280.64 1669.47 Q1280.64 1662.34 1278.81 1658.8 Q1277 1655.23 1273.37 1655.23 M1273.37 1651.53 Q1279.18 1651.53 1282.23 1656.14 Q1285.31 1660.72 1285.31 1669.47 Q1285.31 1678.2 1282.23 1682.8 Q1279.18 1687.39 1273.37 1687.39 Q1267.56 1687.39 1264.48 1682.8 Q1261.42 1678.2 1261.42 1669.47 Q1261.42 1660.72 1264.48 1656.14 Q1267.56 1651.53 1273.37 1651.53 Z" fill="#000000" fill-rule="evenodd" fill-opacity="1" /><path clip-path="url(#clip600)" d="M1380.99 1741.03 L1397.31 1741.03 L1397.31 1744.97 L1375.36 1744.97 L1375.36 1741.03 Q1378.02 1738.28 1382.61 1733.65 Q1387.21 1728.99 1388.39 1727.65 Q1390.64 1725.13 1391.52 1723.39 Q1392.42 1721.63 1392.42 1719.94 Q1392.42 1717.19 1390.48 1715.45 Q1388.56 1713.72 1385.45 1713.72 Q1383.26 1713.72 1380.8 1714.48 Q1378.37 1715.24 1375.59 1716.79 L1375.59 1712.07 Q1378.42 1710.94 1380.87 1710.36 Q1383.33 1709.78 1385.36 1709.78 Q1390.73 1709.78 1393.93 1712.47 Q1397.12 1715.15 1397.12 1719.64 Q1397.12 1721.77 1396.31 1723.69 Q1395.52 1725.59 1393.42 1728.18 Q1392.84 1728.86 1389.74 1732.07 Q1386.64 1735.27 1380.99 1741.03 Z" fill="#000000" fill-rule="evenodd" fill-opacity="1" /><path clip-path="url(#clip600)" d="M1417.12 1713.48 Q1413.51 1713.48 1411.68 1717.05 Q1409.88 1720.59 1409.88 1727.72 Q1409.88 1734.83 1411.68 1738.39 Q1413.51 1741.93 1417.12 1741.93 Q1420.76 1741.93 1422.56 1738.39 Q1424.39 1734.83 1424.39 1727.72 Q1424.39 1720.59 1422.56 1717.05 Q1420.76 1713.48 1417.12 1713.48 M1417.12 1709.78 Q1422.93 1709.78 1425.99 1714.39 Q1429.07 1718.97 1429.07 1727.72 Q1429.07 1736.45 1425.99 1741.05 Q1422.93 1745.64 1417.12 1745.64 Q1411.31 1745.64 1408.23 1741.05 Q1405.18 1736.45 1405.18 1727.72 Q1405.18 1718.97 1408.23 1714.39 Q1411.31 1709.78 1417.12 1709.78 Z" fill="#000000" fill-rule="evenodd" fill-opacity="1" /><path clip-path="url(#clip600)" d="M1541.46 1787.25 Q1544.81 1787.97 1546.69 1790.24 Q1548.59 1792.5 1548.59 1795.84 Q1548.59 1800.95 1545.07 1803.75 Q1541.55 1806.55 1535.07 1806.55 Q1532.89 1806.55 1530.58 1806.11 Q1528.28 1805.7 1525.83 1804.84 L1525.83 1800.33 Q1527.78 1801.46 1530.09 1802.04 Q1532.41 1802.62 1534.93 1802.62 Q1539.33 1802.62 1541.62 1800.88 Q1543.93 1799.15 1543.93 1795.84 Q1543.93 1792.78 1541.78 1791.07 Q1539.65 1789.33 1535.83 1789.33 L1531.8 1789.33 L1531.8 1785.49 L1536.02 1785.49 Q1539.47 1785.49 1541.29 1784.12 Q1543.12 1782.74 1543.12 1780.14 Q1543.12 1777.48 1541.22 1776.07 Q1539.35 1774.63 1535.83 1774.63 Q1533.91 1774.63 1531.71 1775.05 Q1529.51 1775.47 1526.87 1776.35 L1526.87 1772.18 Q1529.53 1771.44 1531.85 1771.07 Q1534.19 1770.7 1536.25 1770.7 Q1541.57 1770.7 1544.67 1773.13 Q1547.78 1775.54 1547.78 1779.66 Q1547.78 1782.53 1546.13 1784.52 Q1544.49 1786.49 1541.46 1787.25 Z" fill="#000000" fill-rule="evenodd" fill-opacity="1" /><path clip-path="url(#clip600)" d="M1567.45 1774.4 Q1563.84 1774.4 1562.01 1777.97 Q1560.21 1781.51 1560.21 1788.64 Q1560.21 1795.74 1562.01 1799.31 Q1563.84 1802.85 1567.45 1802.85 Q1571.09 1802.85 1572.89 1799.31 Q1574.72 1795.74 1574.72 1788.64 Q1574.72 1781.51 1572.89 1777.97 Q1571.09 1774.4 1567.45 1774.4 M1567.45 1770.7 Q1573.26 1770.7 1576.32 1775.3 Q1579.4 1779.89 1579.4 1788.64 Q1579.4 1797.37 1576.32 1801.97 Q1573.26 1806.55 1567.45 1806.55 Q1561.64 1806.55 1558.56 1801.97 Q1555.51 1797.37 1555.51 1788.64 Q1555.51 1779.89 1558.56 1775.3 Q1561.64 1770.7 1567.45 1770.7 Z" fill="#000000" fill-rule="evenodd" fill-opacity="1" /><polyline clip-path="url(#clip602)" style="stroke:#000000; stroke-linecap:butt; stroke-linejoin:round; stroke-width:2; stroke-opacity:0.1; fill:none" points="
  1615.67,1764.13 766.828,1420.71 
  "/>
<polyline clip-path="url(#clip602)" style="stroke:#000000; stroke-linecap:butt; stroke-linejoin:round; stroke-width:2; stroke-opacity:0.1; fill:none" points="
  766.828,1420.71 656.827,541.704 
  "/>
<polyline clip-path="url(#clip602)" style="stroke:#000000; stroke-linecap:butt; stroke-linejoin:round; stroke-width:2; stroke-opacity:0.1; fill:none" points="
  1692.13,1658.73 862.783,1339.77 
  "/>
<polyline clip-path="url(#clip602)" style="stroke:#000000; stroke-linecap:butt; stroke-linejoin:round; stroke-width:2; stroke-opacity:0.1; fill:none" points="
  862.783,1339.77 772.792,482.238 
  "/>
<polyline clip-path="url(#clip602)" style="stroke:#000000; stroke-linecap:butt; stroke-linejoin:round; stroke-width:2; stroke-opacity:0.1; fill:none" points="
  1762.89,1561.17 952.442,1264.14 
  "/>
<polyline clip-path="url(#clip602)" style="stroke:#000000; stroke-linecap:butt; stroke-linejoin:round; stroke-width:2; stroke-opacity:0.1; fill:none" points="
  952.442,1264.14 879.951,427.286 
  "/>
<polyline clip-path="url(#clip602)" style="stroke:#000000; stroke-linecap:butt; stroke-linejoin:round; stroke-width:2; stroke-opacity:0.1; fill:none" points="
  1828.59,1470.6 1036.4,1193.32 
  "/>
<polyline clip-path="url(#clip602)" style="stroke:#000000; stroke-linecap:butt; stroke-linejoin:round; stroke-width:2; stroke-opacity:0.1; fill:none" points="
  1036.4,1193.32 979.271,376.355 
  "/>
<polyline clip-path="url(#clip602)" style="stroke:#000000; stroke-linecap:butt; stroke-linejoin:round; stroke-width:2; stroke-opacity:0.1; fill:none" points="
  1889.73,1386.3 1115.2,1126.86 
  "/>
<polyline clip-path="url(#clip602)" style="stroke:#000000; stroke-linecap:butt; stroke-linejoin:round; stroke-width:2; stroke-opacity:0.1; fill:none" points="
  1115.2,1126.86 1071.58,329.018 
  "/>
<polyline clip-path="url(#clip602)" style="stroke:#000000; stroke-linecap:butt; stroke-linejoin:round; stroke-width:2; stroke-opacity:0.1; fill:none" points="
  1946.79,1307.64 1189.28,1064.37 
  "/>
<polyline clip-path="url(#clip602)" style="stroke:#000000; stroke-linecap:butt; stroke-linejoin:round; stroke-width:2; stroke-opacity:0.1; fill:none" points="
  1189.28,1064.37 1157.6,284.908 
  "/>
<polyline clip-path="url(#clip602)" style="stroke:#000000; stroke-linecap:butt; stroke-linejoin:round; stroke-width:2; stroke-opacity:0.1; fill:none" points="
  2000.15,1234.07 1259.07,1005.5 
  "/>
<polyline clip-path="url(#clip602)" style="stroke:#000000; stroke-linecap:butt; stroke-linejoin:round; stroke-width:2; stroke-opacity:0.1; fill:none" points="
  1259.07,1005.5 1237.95,243.706 
  "/>
<polyline clip-path="url(#clip600)" style="stroke:#000000; stroke-linecap:butt; stroke-linejoin:round; stroke-width:4; stroke-opacity:1; fill:none" points="
  1613.22,1767.51 2009.17,1221.64 
  "/>
<polyline clip-path="url(#clip600)" style="stroke:#000000; stroke-linecap:butt; stroke-linejoin:round; stroke-width:4; stroke-opacity:1; fill:none" points="
  1615.67,1764.13 1604.04,1759.43 
  "/>
<polyline clip-path="url(#clip600)" style="stroke:#000000; stroke-linecap:butt; stroke-linejoin:round; stroke-width:4; stroke-opacity:1; fill:none" points="
  1692.13,1658.73 1680.82,1654.38 
  "/>
<polyline clip-path="url(#clip600)" style="stroke:#000000; stroke-linecap:butt; stroke-linejoin:round; stroke-width:4; stroke-opacity:1; fill:none" points="
  1762.89,1561.17 1751.89,1557.13 
  "/>
<polyline clip-path="url(#clip600)" style="stroke:#000000; stroke-linecap:butt; stroke-linejoin:round; stroke-width:4; stroke-opacity:1; fill:none" points="
  1828.59,1470.6 1817.88,1466.85 
  "/>
<polyline clip-path="url(#clip600)" style="stroke:#000000; stroke-linecap:butt; stroke-linejoin:round; stroke-width:4; stroke-opacity:1; fill:none" points="
  1889.73,1386.3 1879.3,1382.8 
  "/>
<polyline clip-path="url(#clip600)" style="stroke:#000000; stroke-linecap:butt; stroke-linejoin:round; stroke-width:4; stroke-opacity:1; fill:none" points="
  1946.79,1307.64 1936.62,1304.37 
  "/>
<polyline clip-path="url(#clip600)" style="stroke:#000000; stroke-linecap:butt; stroke-linejoin:round; stroke-width:4; stroke-opacity:1; fill:none" points="
  2000.15,1234.07 1990.24,1231.02 
  "/>
<path clip-path="url(#clip600)" d="M1641.89 1783.38 L1671.57 1783.38 L1671.57 1787.31 L1641.89 1787.31 L1641.89 1783.38 Z" fill="#000000" fill-rule="evenodd" fill-opacity="1" /><path clip-path="url(#clip600)" d="M1695.82 1781.57 Q1699.18 1782.29 1701.06 1784.56 Q1702.95 1786.83 1702.95 1790.16 Q1702.95 1795.28 1699.44 1798.08 Q1695.92 1800.88 1689.44 1800.88 Q1687.26 1800.88 1684.94 1800.44 Q1682.65 1800.02 1680.2 1799.16 L1680.2 1794.65 Q1682.14 1795.78 1684.46 1796.36 Q1686.77 1796.94 1689.3 1796.94 Q1693.69 1796.94 1695.99 1795.21 Q1698.3 1793.47 1698.3 1790.16 Q1698.3 1787.1 1696.15 1785.39 Q1694.02 1783.65 1690.2 1783.65 L1686.17 1783.65 L1686.17 1779.81 L1690.38 1779.81 Q1693.83 1779.81 1695.66 1778.45 Q1697.49 1777.06 1697.49 1774.47 Q1697.49 1771.8 1695.59 1770.39 Q1693.72 1768.96 1690.2 1768.96 Q1688.28 1768.96 1686.08 1769.37 Q1683.88 1769.79 1681.24 1770.67 L1681.24 1766.5 Q1683.9 1765.76 1686.22 1765.39 Q1688.56 1765.02 1690.62 1765.02 Q1695.94 1765.02 1699.04 1767.45 Q1702.14 1769.86 1702.14 1773.98 Q1702.14 1776.85 1700.5 1778.84 Q1698.86 1780.81 1695.82 1781.57 Z" fill="#000000" fill-rule="evenodd" fill-opacity="1" /><path clip-path="url(#clip600)" d="M1721.82 1768.72 Q1718.21 1768.72 1716.38 1772.29 Q1714.57 1775.83 1714.57 1782.96 Q1714.57 1790.07 1716.38 1793.63 Q1718.21 1797.17 1721.82 1797.17 Q1725.45 1797.17 1727.26 1793.63 Q1729.09 1790.07 1729.09 1782.96 Q1729.09 1775.83 1727.26 1772.29 Q1725.45 1768.72 1721.82 1768.72 M1721.82 1765.02 Q1727.63 1765.02 1730.69 1769.63 Q1733.76 1774.21 1733.76 1782.96 Q1733.76 1791.69 1730.69 1796.29 Q1727.63 1800.88 1721.82 1800.88 Q1716.01 1800.88 1712.93 1796.29 Q1709.88 1791.69 1709.88 1782.96 Q1709.88 1774.21 1712.93 1769.63 Q1716.01 1765.02 1721.82 1765.02 Z" fill="#000000" fill-rule="evenodd" fill-opacity="1" /><path clip-path="url(#clip600)" d="M1718.34 1677.98 L1748.02 1677.98 L1748.02 1681.91 L1718.34 1681.91 L1718.34 1677.98 Z" fill="#000000" fill-rule="evenodd" fill-opacity="1" /><path clip-path="url(#clip600)" d="M1762.14 1690.87 L1778.46 1690.87 L1778.46 1694.8 L1756.51 1694.8 L1756.51 1690.87 Q1759.17 1688.11 1763.76 1683.48 Q1768.36 1678.83 1769.55 1677.49 Q1771.79 1674.97 1772.67 1673.23 Q1773.57 1671.47 1773.57 1669.78 Q1773.57 1667.03 1771.63 1665.29 Q1769.71 1663.55 1766.61 1663.55 Q1764.41 1663.55 1761.95 1664.32 Q1759.52 1665.08 1756.74 1666.63 L1756.74 1661.91 Q1759.57 1660.78 1762.02 1660.2 Q1764.48 1659.62 1766.51 1659.62 Q1771.88 1659.62 1775.08 1662.3 Q1778.27 1664.99 1778.27 1669.48 Q1778.27 1671.61 1777.46 1673.53 Q1776.67 1675.43 1774.57 1678.02 Q1773.99 1678.69 1770.89 1681.91 Q1767.79 1685.1 1762.14 1690.87 Z" fill="#000000" fill-rule="evenodd" fill-opacity="1" /><path clip-path="url(#clip600)" d="M1798.27 1663.32 Q1794.66 1663.32 1792.83 1666.89 Q1791.03 1670.43 1791.03 1677.56 Q1791.03 1684.66 1792.83 1688.23 Q1794.66 1691.77 1798.27 1691.77 Q1801.91 1691.77 1803.71 1688.23 Q1805.54 1684.66 1805.54 1677.56 Q1805.54 1670.43 1803.71 1666.89 Q1801.91 1663.32 1798.27 1663.32 M1798.27 1659.62 Q1804.08 1659.62 1807.14 1664.23 Q1810.22 1668.81 1810.22 1677.56 Q1810.22 1686.29 1807.14 1690.89 Q1804.08 1695.47 1798.27 1695.47 Q1792.46 1695.47 1789.38 1690.89 Q1786.33 1686.29 1786.33 1677.56 Q1786.33 1668.81 1789.38 1664.23 Q1792.46 1659.62 1798.27 1659.62 Z" fill="#000000" fill-rule="evenodd" fill-opacity="1" /><path clip-path="url(#clip600)" d="M1789.11 1580.41 L1818.78 1580.41 L1818.78 1584.35 L1789.11 1584.35 L1789.11 1580.41 Z" fill="#000000" fill-rule="evenodd" fill-opacity="1" /><path clip-path="url(#clip600)" d="M1829.69 1593.3 L1837.33 1593.3 L1837.33 1566.94 L1829.02 1568.61 L1829.02 1564.35 L1837.28 1562.68 L1841.96 1562.68 L1841.96 1593.3 L1849.59 1593.3 L1849.59 1597.24 L1829.69 1597.24 L1829.69 1593.3 Z" fill="#000000" fill-rule="evenodd" fill-opacity="1" /><path clip-path="url(#clip600)" d="M1869.04 1565.76 Q1865.43 1565.76 1863.6 1569.32 Q1861.79 1572.86 1861.79 1579.99 Q1861.79 1587.1 1863.6 1590.67 Q1865.43 1594.21 1869.04 1594.21 Q1872.67 1594.21 1874.48 1590.67 Q1876.31 1587.1 1876.31 1579.99 Q1876.31 1572.86 1874.48 1569.32 Q1872.67 1565.76 1869.04 1565.76 M1869.04 1562.05 Q1874.85 1562.05 1877.9 1566.66 Q1880.98 1571.24 1880.98 1579.99 Q1880.98 1588.72 1877.9 1593.33 Q1874.85 1597.91 1869.04 1597.91 Q1863.23 1597.91 1860.15 1593.33 Q1857.09 1588.72 1857.09 1579.99 Q1857.09 1571.24 1860.15 1566.66 Q1863.23 1562.05 1869.04 1562.05 Z" fill="#000000" fill-rule="evenodd" fill-opacity="1" /><path clip-path="url(#clip600)" d="M1866.75 1475.19 Q1863.14 1475.19 1861.31 1478.75 Q1859.5 1482.3 1859.5 1489.43 Q1859.5 1496.53 1861.31 1500.1 Q1863.14 1503.64 1866.75 1503.64 Q1870.38 1503.64 1872.19 1500.1 Q1874.01 1496.53 1874.01 1489.43 Q1874.01 1482.3 1872.19 1478.75 Q1870.38 1475.19 1866.75 1475.19 M1866.75 1471.49 Q1872.56 1471.49 1875.61 1476.09 Q1878.69 1480.68 1878.69 1489.43 Q1878.69 1498.15 1875.61 1502.76 Q1872.56 1507.34 1866.75 1507.34 Q1860.94 1507.34 1857.86 1502.76 Q1854.8 1498.15 1854.8 1489.43 Q1854.8 1480.68 1857.86 1476.09 Q1860.94 1471.49 1866.75 1471.49 Z" fill="#000000" fill-rule="evenodd" fill-opacity="1" /><path clip-path="url(#clip600)" d="M1916.62 1418.44 L1924.26 1418.44 L1924.26 1392.07 L1915.95 1393.74 L1915.95 1389.48 L1924.21 1387.81 L1928.89 1387.81 L1928.89 1418.44 L1936.53 1418.44 L1936.53 1422.37 L1916.62 1422.37 L1916.62 1418.44 Z" fill="#000000" fill-rule="evenodd" fill-opacity="1" /><path clip-path="url(#clip600)" d="M1955.97 1390.89 Q1952.36 1390.89 1950.53 1394.46 Q1948.73 1398 1948.73 1405.13 Q1948.73 1412.23 1950.53 1415.8 Q1952.36 1419.34 1955.97 1419.34 Q1959.6 1419.34 1961.41 1415.8 Q1963.24 1412.23 1963.24 1405.13 Q1963.24 1398 1961.41 1394.46 Q1959.6 1390.89 1955.97 1390.89 M1955.97 1387.19 Q1961.78 1387.19 1964.84 1391.79 Q1967.92 1396.38 1967.92 1405.13 Q1967.92 1413.85 1964.84 1418.46 Q1961.78 1423.04 1955.97 1423.04 Q1950.16 1423.04 1947.08 1418.46 Q1944.03 1413.85 1944.03 1405.13 Q1944.03 1396.38 1947.08 1391.79 Q1950.16 1387.19 1955.97 1387.19 Z" fill="#000000" fill-rule="evenodd" fill-opacity="1" /><path clip-path="url(#clip600)" d="M1978.63 1339.78 L1994.95 1339.78 L1994.95 1343.71 L1973 1343.71 L1973 1339.78 Q1975.66 1337.02 1980.25 1332.39 Q1984.85 1327.74 1986.04 1326.4 Q1988.28 1323.87 1989.16 1322.14 Q1990.06 1320.38 1990.06 1318.69 Q1990.06 1315.93 1988.12 1314.2 Q1986.2 1312.46 1983.1 1312.46 Q1980.9 1312.46 1978.44 1313.23 Q1976.01 1313.99 1973.23 1315.54 L1973.23 1310.82 Q1976.06 1309.68 1978.51 1309.11 Q1980.97 1308.53 1983 1308.53 Q1988.37 1308.53 1991.57 1311.21 Q1994.76 1313.9 1994.76 1318.39 Q1994.76 1320.52 1993.95 1322.44 Q1993.16 1324.34 1991.06 1326.93 Q1990.48 1327.6 1987.38 1330.82 Q1984.28 1334.01 1978.63 1339.78 Z" fill="#000000" fill-rule="evenodd" fill-opacity="1" /><path clip-path="url(#clip600)" d="M2014.76 1312.23 Q2011.15 1312.23 2009.32 1315.8 Q2007.52 1319.34 2007.52 1326.47 Q2007.52 1333.57 2009.32 1337.14 Q2011.15 1340.68 2014.76 1340.68 Q2018.4 1340.68 2020.2 1337.14 Q2022.03 1333.57 2022.03 1326.47 Q2022.03 1319.34 2020.2 1315.8 Q2018.4 1312.23 2014.76 1312.23 M2014.76 1308.53 Q2020.57 1308.53 2023.63 1313.13 Q2026.71 1317.72 2026.71 1326.47 Q2026.71 1335.19 2023.63 1339.8 Q2020.57 1344.38 2014.76 1344.38 Q2008.95 1344.38 2005.87 1339.8 Q2002.82 1335.19 2002.82 1326.47 Q2002.82 1317.72 2005.87 1313.13 Q2008.95 1308.53 2014.76 1308.53 Z" fill="#000000" fill-rule="evenodd" fill-opacity="1" /><path clip-path="url(#clip600)" d="M2041.99 1251.51 Q2045.35 1252.23 2047.22 1254.5 Q2049.12 1256.77 2049.12 1260.1 Q2049.12 1265.21 2045.6 1268.01 Q2042.08 1270.82 2035.6 1270.82 Q2033.42 1270.82 2031.11 1270.38 Q2028.82 1269.96 2026.36 1269.1 L2026.36 1264.59 Q2028.31 1265.72 2030.62 1266.3 Q2032.94 1266.88 2035.46 1266.88 Q2039.86 1266.88 2042.15 1265.14 Q2044.47 1263.41 2044.47 1260.1 Q2044.47 1257.04 2042.31 1255.33 Q2040.18 1253.59 2036.36 1253.59 L2032.34 1253.59 L2032.34 1249.75 L2036.55 1249.75 Q2040 1249.75 2041.83 1248.39 Q2043.66 1247 2043.66 1244.4 Q2043.66 1241.74 2041.76 1240.33 Q2039.88 1238.89 2036.36 1238.89 Q2034.44 1238.89 2032.24 1239.31 Q2030.04 1239.73 2027.41 1240.61 L2027.41 1236.44 Q2030.07 1235.7 2032.38 1235.33 Q2034.72 1234.96 2036.78 1234.96 Q2042.1 1234.96 2045.21 1237.39 Q2048.31 1239.8 2048.31 1243.92 Q2048.31 1246.79 2046.67 1248.78 Q2045.02 1250.75 2041.99 1251.51 Z" fill="#000000" fill-rule="evenodd" fill-opacity="1" /><path clip-path="url(#clip600)" d="M2067.98 1238.66 Q2064.37 1238.66 2062.54 1242.23 Q2060.74 1245.77 2060.74 1252.9 Q2060.74 1260.01 2062.54 1263.57 Q2064.37 1267.11 2067.98 1267.11 Q2071.62 1267.11 2073.42 1263.57 Q2075.25 1260.01 2075.25 1252.9 Q2075.25 1245.77 2073.42 1242.23 Q2071.62 1238.66 2067.98 1238.66 M2067.98 1234.96 Q2073.79 1234.96 2076.85 1239.57 Q2079.93 1244.15 2079.93 1252.9 Q2079.93 1261.63 2076.85 1266.23 Q2073.79 1270.82 2067.98 1270.82 Q2062.17 1270.82 2059.1 1266.23 Q2056.04 1261.63 2056.04 1252.9 Q2056.04 1244.15 2059.1 1239.57 Q2062.17 1234.96 2067.98 1234.96 Z" fill="#000000" fill-rule="evenodd" fill-opacity="1" /><polyline clip-path="url(#clip602)" style="stroke:#000000; stroke-linecap:butt; stroke-linejoin:round; stroke-width:2; stroke-opacity:0.1; fill:none" points="
  761.083,1401.93 1270.42,976.542 
  "/>
<polyline clip-path="url(#clip602)" style="stroke:#000000; stroke-linecap:butt; stroke-linejoin:round; stroke-width:2; stroke-opacity:0.1; fill:none" points="
  1270.42,976.542 2011.42,1201.33 
  "/>
<polyline clip-path="url(#clip602)" style="stroke:#000000; stroke-linecap:butt; stroke-linejoin:round; stroke-width:2; stroke-opacity:0.1; fill:none" points="
  737.793,1216.79 1266.25,813.27 
  "/>
<polyline clip-path="url(#clip602)" style="stroke:#000000; stroke-linecap:butt; stroke-linejoin:round; stroke-width:2; stroke-opacity:0.1; fill:none" points="
  1266.25,813.27 2030.87,1025.85 
  "/>
<polyline clip-path="url(#clip602)" style="stroke:#000000; stroke-linecap:butt; stroke-linejoin:round; stroke-width:2; stroke-opacity:0.1; fill:none" points="
  712.78,1017.95 1261.83,640.219 
  "/>
<polyline clip-path="url(#clip602)" style="stroke:#000000; stroke-linecap:butt; stroke-linejoin:round; stroke-width:2; stroke-opacity:0.1; fill:none" points="
  1261.83,640.219 2051.63,838.575 
  "/>
<polyline clip-path="url(#clip602)" style="stroke:#000000; stroke-linecap:butt; stroke-linejoin:round; stroke-width:2; stroke-opacity:0.1; fill:none" points="
  685.845,803.83 1257.13,456.483 
  "/>
<polyline clip-path="url(#clip602)" style="stroke:#000000; stroke-linecap:butt; stroke-linejoin:round; stroke-width:2; stroke-opacity:0.1; fill:none" points="
  1257.13,456.483 2073.84,638.253 
  "/>
<polyline clip-path="url(#clip602)" style="stroke:#000000; stroke-linecap:butt; stroke-linejoin:round; stroke-width:2; stroke-opacity:0.1; fill:none" points="
  656.757,572.604 1252.14,261.04 
  "/>
<polyline clip-path="url(#clip602)" style="stroke:#000000; stroke-linecap:butt; stroke-linejoin:round; stroke-width:2; stroke-opacity:0.1; fill:none" points="
  1252.14,261.04 2097.64,423.477 
  "/>
<polyline clip-path="url(#clip600)" style="stroke:#000000; stroke-linecap:butt; stroke-linejoin:round; stroke-width:4; stroke-opacity:1; fill:none" points="
  763.77,1423.29 653.11,543.61 
  "/>
<polyline clip-path="url(#clip600)" style="stroke:#000000; stroke-linecap:butt; stroke-linejoin:round; stroke-width:4; stroke-opacity:1; fill:none" points="
  761.083,1401.93 768.514,1395.72 
  "/>
<polyline clip-path="url(#clip600)" style="stroke:#000000; stroke-linecap:butt; stroke-linejoin:round; stroke-width:4; stroke-opacity:1; fill:none" points="
  737.793,1216.79 745.552,1210.86 
  "/>
<polyline clip-path="url(#clip600)" style="stroke:#000000; stroke-linecap:butt; stroke-linejoin:round; stroke-width:4; stroke-opacity:1; fill:none" points="
  712.78,1017.95 720.896,1012.36 
  "/>
<polyline clip-path="url(#clip600)" style="stroke:#000000; stroke-linecap:butt; stroke-linejoin:round; stroke-width:4; stroke-opacity:1; fill:none" points="
  685.845,803.83 694.35,798.658 
  "/>
<polyline clip-path="url(#clip600)" style="stroke:#000000; stroke-linecap:butt; stroke-linejoin:round; stroke-width:4; stroke-opacity:1; fill:none" points="
  656.757,572.604 665.69,567.929 
  "/>
<path clip-path="url(#clip600)" d="M671.651 1387.73 Q668.04 1387.73 666.212 1391.29 Q664.406 1394.83 664.406 1401.96 Q664.406 1409.07 666.212 1412.63 Q668.04 1416.18 671.651 1416.18 Q675.286 1416.18 677.091 1412.63 Q678.92 1409.07 678.92 1401.96 Q678.92 1394.83 677.091 1391.29 Q675.286 1387.73 671.651 1387.73 M671.651 1384.02 Q677.461 1384.02 680.517 1388.63 Q683.596 1393.21 683.596 1401.96 Q683.596 1410.69 680.517 1415.3 Q677.461 1419.88 671.651 1419.88 Q665.841 1419.88 662.762 1415.3 Q659.707 1410.69 659.707 1401.96 Q659.707 1393.21 662.762 1388.63 Q665.841 1384.02 671.651 1384.02 Z" fill="#000000" fill-rule="evenodd" fill-opacity="1" /><path clip-path="url(#clip600)" d="M691.813 1413.33 L696.697 1413.33 L696.697 1419.21 L691.813 1419.21 L691.813 1413.33 Z" fill="#000000" fill-rule="evenodd" fill-opacity="1" /><path clip-path="url(#clip600)" d="M716.883 1387.73 Q713.271 1387.73 711.443 1391.29 Q709.637 1394.83 709.637 1401.96 Q709.637 1409.07 711.443 1412.63 Q713.271 1416.18 716.883 1416.18 Q720.517 1416.18 722.322 1412.63 Q724.151 1409.07 724.151 1401.96 Q724.151 1394.83 722.322 1391.29 Q720.517 1387.73 716.883 1387.73 M716.883 1384.02 Q722.693 1384.02 725.748 1388.63 Q728.827 1393.21 728.827 1401.96 Q728.827 1410.69 725.748 1415.3 Q722.693 1419.88 716.883 1419.88 Q711.072 1419.88 707.994 1415.3 Q704.938 1410.69 704.938 1401.96 Q704.938 1393.21 707.994 1388.63 Q711.072 1384.02 716.883 1384.02 Z" fill="#000000" fill-rule="evenodd" fill-opacity="1" /><path clip-path="url(#clip600)" d="M643.384 1230.13 L659.704 1230.13 L659.704 1234.07 L637.759 1234.07 L637.759 1230.13 Q640.422 1227.38 645.005 1222.75 Q649.611 1218.09 650.792 1216.75 Q653.037 1214.23 653.917 1212.49 Q654.82 1210.73 654.82 1209.04 Q654.82 1206.29 652.875 1204.55 Q650.954 1202.82 647.852 1202.82 Q645.653 1202.82 643.199 1203.58 Q640.769 1204.34 637.991 1205.9 L637.991 1201.17 Q640.815 1200.04 643.269 1199.46 Q645.722 1198.88 647.759 1198.88 Q653.13 1198.88 656.324 1201.57 Q659.519 1204.25 659.519 1208.74 Q659.519 1210.87 658.708 1212.79 Q657.921 1214.69 655.815 1217.28 Q655.236 1217.96 652.134 1221.17 Q649.033 1224.37 643.384 1230.13 Z" fill="#000000" fill-rule="evenodd" fill-opacity="1" /><path clip-path="url(#clip600)" d="M669.519 1228.19 L674.403 1228.19 L674.403 1234.07 L669.519 1234.07 L669.519 1228.19 Z" fill="#000000" fill-rule="evenodd" fill-opacity="1" /><path clip-path="url(#clip600)" d="M684.634 1199.51 L702.991 1199.51 L702.991 1203.44 L688.917 1203.44 L688.917 1211.91 Q689.935 1211.57 690.954 1211.4 Q691.972 1211.22 692.991 1211.22 Q698.778 1211.22 702.157 1214.39 Q705.537 1217.56 705.537 1222.98 Q705.537 1228.56 702.065 1231.66 Q698.593 1234.74 692.273 1234.74 Q690.097 1234.74 687.829 1234.37 Q685.583 1234 683.176 1233.26 L683.176 1228.56 Q685.259 1229.69 687.481 1230.25 Q689.704 1230.8 692.18 1230.8 Q696.185 1230.8 698.523 1228.7 Q700.861 1226.59 700.861 1222.98 Q700.861 1219.37 698.523 1217.26 Q696.185 1215.15 692.18 1215.15 Q690.306 1215.15 688.431 1215.57 Q686.579 1215.99 684.634 1216.87 L684.634 1199.51 Z" fill="#000000" fill-rule="evenodd" fill-opacity="1" /><path clip-path="url(#clip600)" d="M613.394 1000.67 L631.751 1000.67 L631.751 1004.6 L617.677 1004.6 L617.677 1013.07 Q618.695 1012.73 619.714 1012.56 Q620.732 1012.38 621.751 1012.38 Q627.538 1012.38 630.917 1015.55 Q634.297 1018.72 634.297 1024.14 Q634.297 1029.72 630.825 1032.82 Q627.353 1035.9 621.033 1035.9 Q618.857 1035.9 616.589 1035.53 Q614.343 1035.16 611.936 1034.42 L611.936 1029.72 Q614.019 1030.85 616.242 1031.41 Q618.464 1031.96 620.941 1031.96 Q624.945 1031.96 627.283 1029.86 Q629.621 1027.75 629.621 1024.14 Q629.621 1020.53 627.283 1018.42 Q624.945 1016.31 620.941 1016.31 Q619.066 1016.31 617.191 1016.73 Q615.339 1017.15 613.394 1018.03 L613.394 1000.67 Z" fill="#000000" fill-rule="evenodd" fill-opacity="1" /><path clip-path="url(#clip600)" d="M643.51 1029.35 L648.394 1029.35 L648.394 1035.23 L643.51 1035.23 L643.51 1029.35 Z" fill="#000000" fill-rule="evenodd" fill-opacity="1" /><path clip-path="url(#clip600)" d="M668.579 1003.75 Q664.968 1003.75 663.139 1007.31 Q661.334 1010.85 661.334 1017.98 Q661.334 1025.09 663.139 1028.65 Q664.968 1032.19 668.579 1032.19 Q672.214 1032.19 674.019 1028.65 Q675.848 1025.09 675.848 1017.98 Q675.848 1010.85 674.019 1007.31 Q672.214 1003.75 668.579 1003.75 M668.579 1000.04 Q674.389 1000.04 677.445 1004.65 Q680.524 1009.23 680.524 1017.98 Q680.524 1026.71 677.445 1031.31 Q674.389 1035.9 668.579 1035.9 Q662.769 1035.9 659.69 1031.31 Q656.635 1026.71 656.635 1017.98 Q656.635 1009.23 659.69 1004.65 Q662.769 1000.04 668.579 1000.04 Z" fill="#000000" fill-rule="evenodd" fill-opacity="1" /><path clip-path="url(#clip600)" d="M586.228 786.55 L608.45 786.55 L608.45 788.54 L595.904 821.11 L591.019 821.11 L602.825 790.485 L586.228 790.485 L586.228 786.55 Z" fill="#000000" fill-rule="evenodd" fill-opacity="1" /><path clip-path="url(#clip600)" d="M617.57 815.23 L622.454 815.23 L622.454 821.11 L617.57 821.11 L617.57 815.23 Z" fill="#000000" fill-rule="evenodd" fill-opacity="1" /><path clip-path="url(#clip600)" d="M632.686 786.55 L651.042 786.55 L651.042 790.485 L636.968 790.485 L636.968 798.957 Q637.987 798.61 639.005 798.448 Q640.024 798.262 641.042 798.262 Q646.829 798.262 650.209 801.434 Q653.589 804.605 653.589 810.022 Q653.589 815.6 650.116 818.702 Q646.644 821.781 640.325 821.781 Q638.149 821.781 635.88 821.41 Q633.635 821.04 631.228 820.299 L631.228 815.6 Q633.311 816.735 635.533 817.29 Q637.755 817.846 640.232 817.846 Q644.237 817.846 646.575 815.739 Q648.913 813.633 648.913 810.022 Q648.913 806.411 646.575 804.304 Q644.237 802.198 640.232 802.198 Q638.357 802.198 636.482 802.614 Q634.63 803.031 632.686 803.911 L632.686 786.55 Z" fill="#000000" fill-rule="evenodd" fill-opacity="1" /><path clip-path="url(#clip600)" d="M527.974 585.949 L535.613 585.949 L535.613 559.583 L527.303 561.25 L527.303 556.99 L535.567 555.324 L540.243 555.324 L540.243 585.949 L547.881 585.949 L547.881 589.884 L527.974 589.884 L527.974 585.949 Z" fill="#000000" fill-rule="evenodd" fill-opacity="1" /><path clip-path="url(#clip600)" d="M567.326 558.402 Q563.715 558.402 561.886 561.967 Q560.08 565.509 560.08 572.638 Q560.08 579.745 561.886 583.31 Q563.715 586.851 567.326 586.851 Q570.96 586.851 572.765 583.31 Q574.594 579.745 574.594 572.638 Q574.594 565.509 572.765 561.967 Q570.96 558.402 567.326 558.402 M567.326 554.699 Q573.136 554.699 576.191 559.305 Q579.27 563.888 579.27 572.638 Q579.27 581.365 576.191 585.972 Q573.136 590.555 567.326 590.555 Q561.516 590.555 558.437 585.972 Q555.381 581.365 555.381 572.638 Q555.381 563.888 558.437 559.305 Q561.516 554.699 567.326 554.699 Z" fill="#000000" fill-rule="evenodd" fill-opacity="1" /><path clip-path="url(#clip600)" d="M587.488 584.004 L592.372 584.004 L592.372 589.884 L587.488 589.884 L587.488 584.004 Z" fill="#000000" fill-rule="evenodd" fill-opacity="1" /><path clip-path="url(#clip600)" d="M612.557 558.402 Q608.946 558.402 607.117 561.967 Q605.312 565.509 605.312 572.638 Q605.312 579.745 607.117 583.31 Q608.946 586.851 612.557 586.851 Q616.191 586.851 617.997 583.31 Q619.825 579.745 619.825 572.638 Q619.825 565.509 617.997 561.967 Q616.191 558.402 612.557 558.402 M612.557 554.699 Q618.367 554.699 621.423 559.305 Q624.501 563.888 624.501 572.638 Q624.501 581.365 621.423 585.972 Q618.367 590.555 612.557 590.555 Q606.747 590.555 603.668 585.972 Q600.613 581.365 600.613 572.638 Q600.613 563.888 603.668 559.305 Q606.747 554.699 612.557 554.699 Z" fill="#000000" fill-rule="evenodd" fill-opacity="1" /><polyline clip-path="url(#clip602)" style="stroke:#009af9; stroke-linecap:butt; stroke-linejoin:round; stroke-width:4; stroke-opacity:1; fill:none" points="
  1636.33,355.652 1650.78,355.088 1664.98,355.413 1678.9,356.635 1692.51,358.76 1707.83,362.346 1722.68,367.149 1737.02,373.17 1750.81,380.411 1764.02,388.866 
  1776.62,398.53 1788.56,409.394 1799.83,421.445 1810.38,434.668 1820.19,449.043 1829.23,464.55 1837.46,481.162 1844.87,498.85 1851.43,517.582 1857.11,537.323 
  1861.9,558.033 1865.77,579.669 1868.72,602.186 1870.72,625.535 1871.77,649.662 1871.85,674.514 1870.96,700.03 1869.11,726.151 1866.27,752.811 1862.47,779.946 
  1857.7,807.486 1851.98,835.361 1845.31,863.498 1837.71,891.825 1829.21,920.266 1819.81,948.746 1809.54,977.187 1796.09,1011.21 1781.48,1044.94 1765.76,1078.24 
  1749,1110.97 1731.26,1143.02 1712.63,1174.25 1693.16,1204.54 1672.95,1233.79 1652.07,1261.87 1630.62,1288.69 1608.67,1314.13 1586.32,1338.13 1563.66,1360.58 
  1540.78,1381.41 1517.76,1400.56 1494.71,1417.96 1475.25,1431.27 1455.87,1443.28 1436.63,1453.95 1417.58,1463.27 1398.77,1471.22 1380.24,1477.81 1362.05,1483.01 
  1344.23,1486.84 1326.83,1489.3 1309.89,1490.38 1293.45,1490.11 1277.55,1488.5 1262.21,1485.56 1247.47,1481.31 1233.37,1475.78 1219.93,1469 1206.11,1460.24 
  1193.12,1450.08 1181,1438.55 1169.78,1425.71 1159.46,1411.6 1150.08,1396.27 1141.64,1379.78 1134.16,1362.19 1127.65,1343.54 1122.11,1323.9 1117.55,1303.32 
  1113.98,1281.88 1111.39,1259.62 1109.79,1236.61 1109.16,1212.92 1109.5,1188.61 1110.67,1165.69 1112.65,1142.35 1115.43,1118.63 1119.01,1094.59 1123.36,1070.26 
  1128.49,1045.71 1134.37,1020.98 1140.99,996.12 1148.33,971.178 1156.38,946.203 1165.13,921.243 1174.54,896.346 1184.61,871.56 1195.31,846.931 1206.62,822.506 
  1218.53,798.331 1231.91,772.744 1245.93,747.552 1260.53,722.812 1275.7,698.578 1291.39,674.904 1307.59,651.843 1324.24,629.447 1341.32,607.768 1358.8,586.856 
  1376.63,566.763 1394.78,547.535 1413.2,529.222 1431.86,511.871 1450.72,495.526 1469.73,480.233 1488.86,466.034 1511.11,451.006 1533.37,437.565 1555.6,425.771 
  1577.7,415.678 1599.61,407.339 1621.26,400.802 1642.56,396.112 1663.45,393.306 1683.84,392.42 1703.66,393.482 1722.84,396.516 1741.29,401.537 1758.94,408.558 
  1775.71,417.58 1791.53,428.601 1806.33,441.608 1818.56,454.819 1829.88,469.563 1840.24,485.818 1849.6,503.551 1857.92,522.728 1865.15,543.307 1871.26,565.241 
  1876.21,588.477 1879.98,612.955 1882.54,638.613 1883.87,665.379 1883.95,693.179 1882.77,721.932 1880.31,751.551 1876.57,781.948 1871.55,813.026 1866.11,840.762 
  1859.69,868.878 1852.31,897.303 1843.98,925.964 1834.72,954.787 1824.54,983.697 1813.47,1012.62 1801.54,1041.48 1788.77,1070.19 1775.19,1098.69 1760.83,1126.89 
  1745.73,1154.73 1729.93,1182.12 1713.48,1208.99 1696.4,1235.28 1678.75,1260.9 1658.91,1288.02 1638.5,1314.19 1617.6,1339.33 1596.25,1363.38 1574.54,1386.26 
  1552.52,1407.89 1530.27,1428.24 1507.86,1447.23 1485.34,1464.81 1462.79,1480.95 1440.28,1495.6 1417.86,1508.74 1395.62,1520.32 1373.6,1530.34 1351.86,1538.78 
  1330.48,1545.62 1309.37,1550.88 1288.73,1554.53 1268.6,1556.57 1249.04,1557 1230.09,1555.85 1211.8,1553.14 1194.21,1548.88 1177.36,1543.1 1161.28,1535.85 
  1146,1527.15 1131.57,1517.05 1117.99,1505.58 1105.3,1492.8 1093.51,1478.74 1082.65,1463.46 1072.72,1447.01 1062.86,1427.52 1054.17,1406.75 1046.66,1384.76 
  1040.35,1361.64 1035.23,1337.46 1031.3,1312.3 1028.57,1286.25 1027.01,1259.39 1026.62,1231.8 1027.4,1203.56 1029.31,1174.76 1032.36,1145.48 1036.51,1115.79 
  1041.75,1085.79 1048.05,1055.55 1055.38,1025.15 1063.3,996.163 1072.1,967.172 1081.77,938.248 1092.26,909.459 1103.56,880.871 1115.63,852.551 1128.44,824.563 
  1141.96,796.971 1156.15,769.84 1170.98,743.231 1186.41,717.206 1202.41,691.826 1218.93,667.151 1235.93,643.24 1253.37,620.151 1271.22,597.94 1290.16,575.837 
  1309.43,554.806 1329,534.905 1348.79,516.192 1368.77,498.724 1388.87,482.556 1409.05,467.738 1429.24,454.321 1449.39,442.354 1469.44,431.879 1489.32,422.941 
  1508.99,415.577 1528.37,409.824 1547.42,405.714 1566.06,403.276 1584.23,402.533 1599.12,403.238 1613.6,405.169 1627.63,408.332 1641.18,412.733 1654.21,418.374 
  1666.69,425.253 1678.57,433.367 1689.83,442.71 1700.44,453.271 1710.35,465.038 1719.54,477.994 1727.98,492.121 1735.64,507.395 1742.49,523.79 1748.51,541.277 
  1753.67,559.822 1758.78,583.843 1762.54,609.314 1764.92,636.151 1765.91,664.267 1765.47,693.564 1763.6,723.94 1760.29,755.286 1755.53,787.485 1749.34,820.415 
  1741.72,853.951 1732.69,887.962 1722.29,922.312 1710.53,956.865 1697.47,991.48 1683.15,1026.02 1667.62,1060.33 1652.38,1091.46 1636.23,1122.17 1619.21,1152.36 
  1601.39,1181.94 1582.82,1210.79 1563.57,1238.82 1543.7,1265.94 1523.28,1292.05 1502.38,1317.06 1481.07,1340.91 1459.42,1363.5 1437.51,1384.78 1415.41,1404.67 
  1393.19,1423.11 1370.93,1440.07 1348.69,1455.48 1328.24,1468.31 1307.93,1479.77 1287.8,1489.83 1267.93,1498.48 1248.35,1505.71 1229.11,1511.5 1210.26,1515.86 
  1191.86,1518.79 1173.93,1520.29 1156.52,1520.37 1139.67,1519.04 1123.41,1516.33 1107.79,1512.25 1092.83,1506.82 1078.55,1500.08 1065,1492.04 1052.03,1482.63 
  1039.84,1471.96 1028.45,1460.07 1017.89,1447.01 1008.17,1432.82 999.301,1417.55 991.297,1401.23 984.165,1383.92 977.914,1365.67 972.547,1346.52 968.069,1326.53 
  964.48,1305.74 961.779,1284.22 959.964,1262 959.032,1239.15 958.975,1215.72 959.945,1188.83 961.993,1161.35 965.107,1133.36 969.268,1104.92 974.46,1076.13 
  980.661,1047.04 987.849,1017.74 996.001,988.29 1005.09,958.773 1015.09,929.258 1025.98,899.816 1037.72,870.518 1050.28,841.434 1063.63,812.633 1077.74,784.184 
  1092.57,756.154 1106.6,731.172 1121.16,706.638 1136.23,682.599 1151.78,659.104 1167.77,636.2 1184.18,613.932 1200.98,592.346 1218.12,571.486 1235.59,551.397 
  1253.34,532.121 1271.34,513.699 1289.55,496.174 1307.95,479.585 1326.48,463.97 1345.12,449.367 1363.83,435.813 1385.27,421.626 1406.7,408.909 1428.04,397.71 
  1449.24,388.071 1470.23,380.035 1490.95,373.639 1511.34,368.917 1531.34,365.899 1550.88,364.611 1569.89,365.074 1588.32,367.304 1606.11,371.313 1623.18,377.106 
  1639.47,384.685 1654.94,394.042 1669.51,405.167 1682.16,417.027 1693.95,430.366 1704.84,445.161 1714.8,461.38 1723.77,478.99 1731.73,497.948 1738.65,518.211 
  1744.48,539.726 1749.22,562.437 1752.84,586.282 1755.3,611.195 1756.61,637.104 1756.75,663.932 1755.71,691.598 1753.48,720.017 1750.08,749.098 1745.57,778.327 
  1739.93,808.017 1733.18,838.073 1725.32,868.398 1716.4,898.892 1706.42,929.455 1695.43,959.984 1683.46,990.378 1670.56,1020.53 1656.76,1050.35 1642.11,1079.73 
  1626.67,1108.57 1610.48,1136.78 1593.61,1164.26 1576.11,1190.92 1558.06,1216.68 1540.04,1240.74 1521.62,1263.8 1502.85,1285.79 1483.79,1306.64 1464.5,1326.29 
  1445.04,1344.7 1425.49,1361.8 1405.9,1377.57 1386.33,1391.95 1366.84,1404.92 1347.49,1416.45 1328.35,1426.51 1309.46,1435.08 1290.88,1442.17 1272.67,1447.74 
  1254.88,1451.82 1237.12,1454.43 1219.89,1455.47 1203.26,1454.96 1187.25,1452.9 1171.91,1449.32 1157.29,1444.25 1143.41,1437.71 1130.31,1429.74 1118.02,1420.38 
  1106.56,1409.67 1095.96,1397.65 1086.25,1384.36 1077.43,1369.86 1069.53,1354.19 1062.56,1337.41 1056.53,1319.57 1051.02,1298.87 1046.64,1277.04 1043.42,1254.17 
  1041.34,1230.31 1040.42,1205.56 1040.63,1179.99 1041.98,1153.68 1044.46,1126.71 1048.04,1099.17 1052.73,1071.13 1058.49,1042.67 1065.31,1013.87 1073.17,984.82 
  1082.04,955.591 1091.89,926.263 1102.71,896.915 1111.16,875.63 1120.08,854.405 1129.47,833.269 1139.31,812.251 1149.6,791.38 1160.31,770.685 1171.44,750.194 
  1182.97,729.936 1194.88,709.937 1207.17,690.227 1219.8,670.831 1232.78,651.778 1259.68,614.806 1287.74,579.521 1316.81,546.128 1346.75,514.827 1377.4,485.81 
  1408.6,459.265 1424.35,446.976 1440.19,435.37 1456.07,424.469 1471.99,414.294 1487.92,404.863 1503.84,396.196 1519.72,388.311 1535.55,381.226 1561.33,371.374 
  1586.8,363.788 1611.83,358.529 1636.33,355.652 
  "/>
<path clip-path="url(#clip600)" d="
M2233.9 209.375 L2558.97 209.375 L2558.97 105.695 L2233.9 105.695  Z
  " fill="#ffffff" fill-rule="evenodd" fill-opacity="1"/>
<polyline clip-path="url(#clip600)" style="stroke:#000000; stroke-linecap:butt; stroke-linejoin:round; stroke-width:4; stroke-opacity:1; fill:none" points="
  2233.9,209.375 2558.97,209.375 2558.97,105.695 2233.9,105.695 2233.9,209.375 
  "/>
<polyline clip-path="url(#clip600)" style="stroke:#009af9; stroke-linecap:butt; stroke-linejoin:round; stroke-width:4; stroke-opacity:1; fill:none" points="
  2261.17,157.535 2424.75,157.535 
  "/>
<path clip-path="url(#clip600)" d="M2465.85 177.223 Q2464.05 181.852 2462.33 183.264 Q2460.62 184.676 2457.75 184.676 L2454.35 184.676 L2454.35 181.112 L2456.85 181.112 Q2458.61 181.112 2459.58 180.278 Q2460.55 179.445 2461.73 176.343 L2462.5 174.399 L2452.01 148.889 L2456.52 148.889 L2464.63 169.167 L2472.73 148.889 L2477.24 148.889 L2465.85 177.223 Z" fill="#000000" fill-rule="evenodd" fill-opacity="1" /><path clip-path="url(#clip600)" d="M2484.53 170.88 L2492.17 170.88 L2492.17 144.515 L2483.86 146.181 L2483.86 141.922 L2492.13 140.255 L2496.8 140.255 L2496.8 170.88 L2504.44 170.88 L2504.44 174.815 L2484.53 174.815 L2484.53 170.88 Z" fill="#000000" fill-rule="evenodd" fill-opacity="1" /></svg>
