<?xml version="1.0" encoding="utf-8"?>
<svg xmlns="http://www.w3.org/2000/svg" xmlns:xlink="http://www.w3.org/1999/xlink" width="528" height="336" viewBox="0 0 2112 1344">
<defs>
  <clipPath id="clip120">
    <rect x="0" y="0" width="2112" height="1344"/>
  </clipPath>
</defs>
<path clip-path="url(#clip120)" d="M0 1344 L2112 1344 L2112 2.13163e-14 L0 2.13163e-14  Z" fill="#ffffff" fill-rule="evenodd" fill-opacity="1"/>
<defs>
  <clipPath id="clip121">
    <rect x="47" y="47" width="2019" height="1251"/>
  </clipPath>
</defs>
<path clip-path="url(#clip120)" d="M183.394 1234.58 L2064.76 1234.58 L2064.76 120.723 L183.394 120.723  Z" fill="#ffffff" fill-rule="evenodd" fill-opacity="1"/>
<defs>
  <clipPath id="clip122">
    <rect x="183" y="120" width="1882" height="1115"/>
  </clipPath>
</defs>
<polyline clip-path="url(#clip122)" style="stroke:#000000; stroke-linecap:round; stroke-linejoin:round; stroke-width:2; stroke-opacity:0.1; fill:none" points="236.64,1234.58 236.64,120.723 "/>
<polyline clip-path="url(#clip122)" style="stroke:#000000; stroke-linecap:round; stroke-linejoin:round; stroke-width:2; stroke-opacity:0.1; fill:none" points="801.599,1234.58 801.599,120.723 "/>
<polyline clip-path="url(#clip122)" style="stroke:#000000; stroke-linecap:round; stroke-linejoin:round; stroke-width:2; stroke-opacity:0.1; fill:none" points="1366.56,1234.58 1366.56,120.723 "/>
<polyline clip-path="url(#clip122)" style="stroke:#000000; stroke-linecap:round; stroke-linejoin:round; stroke-width:2; stroke-opacity:0.1; fill:none" points="1931.52,1234.58 1931.52,120.723 "/>
<polyline clip-path="url(#clip122)" style="stroke:#000000; stroke-linecap:round; stroke-linejoin:round; stroke-width:2; stroke-opacity:0.1; fill:none" points="183.394,1203.05 2064.76,1203.05 "/>
<polyline clip-path="url(#clip122)" style="stroke:#000000; stroke-linecap:round; stroke-linejoin:round; stroke-width:2; stroke-opacity:0.1; fill:none" points="183.394,940.353 2064.76,940.353 "/>
<polyline clip-path="url(#clip122)" style="stroke:#000000; stroke-linecap:round; stroke-linejoin:round; stroke-width:2; stroke-opacity:0.1; fill:none" points="183.394,677.651 2064.76,677.651 "/>
<polyline clip-path="url(#clip122)" style="stroke:#000000; stroke-linecap:round; stroke-linejoin:round; stroke-width:2; stroke-opacity:0.1; fill:none" points="183.394,414.949 2064.76,414.949 "/>
<polyline clip-path="url(#clip122)" style="stroke:#000000; stroke-linecap:round; stroke-linejoin:round; stroke-width:2; stroke-opacity:0.1; fill:none" points="183.394,152.247 2064.76,152.247 "/>
<polyline clip-path="url(#clip120)" style="stroke:#000000; stroke-linecap:round; stroke-linejoin:round; stroke-width:4; stroke-opacity:1; fill:none" points="183.394,1234.58 2064.76,1234.58 "/>
<polyline clip-path="url(#clip120)" style="stroke:#000000; stroke-linecap:round; stroke-linejoin:round; stroke-width:4; stroke-opacity:1; fill:none" points="236.64,1234.58 236.64,1215.68 "/>
<polyline clip-path="url(#clip120)" style="stroke:#000000; stroke-linecap:round; stroke-linejoin:round; stroke-width:4; stroke-opacity:1; fill:none" points="801.599,1234.58 801.599,1215.68 "/>
<polyline clip-path="url(#clip120)" style="stroke:#000000; stroke-linecap:round; stroke-linejoin:round; stroke-width:4; stroke-opacity:1; fill:none" points="1366.56,1234.58 1366.56,1215.68 "/>
<polyline clip-path="url(#clip120)" style="stroke:#000000; stroke-linecap:round; stroke-linejoin:round; stroke-width:4; stroke-opacity:1; fill:none" points="1931.52,1234.58 1931.52,1215.68 "/>
<path clip-path="url(#clip120)" d="M236.64 1263.19 Q233.029 1263.19 231.2 1266.76 Q229.395 1270.3 229.395 1277.43 Q229.395 1284.54 231.2 1288.1 Q233.029 1291.64 236.64 1291.64 Q240.274 1291.64 242.08 1288.1 Q243.909 1284.54 243.909 1277.43 Q243.909 1270.3 242.08 1266.76 Q240.274 1263.19 236.64 1263.19 M236.64 1259.49 Q242.45 1259.49 245.506 1264.1 Q248.584 1268.68 248.584 1277.43 Q248.584 1286.16 245.506 1290.76 Q242.45 1295.35 236.64 1295.35 Q230.83 1295.35 227.751 1290.76 Q224.696 1286.16 224.696 1277.43 Q224.696 1268.68 227.751 1264.1 Q230.83 1259.49 236.64 1259.49 Z" fill="#000000" fill-rule="nonzero" fill-opacity="1" /><path clip-path="url(#clip120)" d="M791.981 1290.74 L799.62 1290.74 L799.62 1264.37 L791.309 1266.04 L791.309 1261.78 L799.573 1260.11 L804.249 1260.11 L804.249 1290.74 L811.888 1290.74 L811.888 1294.67 L791.981 1294.67 L791.981 1290.74 Z" fill="#000000" fill-rule="nonzero" fill-opacity="1" /><path clip-path="url(#clip120)" d="M1361.21 1290.74 L1377.53 1290.74 L1377.53 1294.67 L1355.59 1294.67 L1355.59 1290.74 Q1358.25 1287.99 1362.83 1283.36 Q1367.44 1278.7 1368.62 1277.36 Q1370.86 1274.84 1371.74 1273.1 Q1372.65 1271.34 1372.65 1269.65 Q1372.65 1266.9 1370.7 1265.16 Q1368.78 1263.42 1365.68 1263.42 Q1363.48 1263.42 1361.02 1264.19 Q1358.59 1264.95 1355.82 1266.5 L1355.82 1261.78 Q1358.64 1260.65 1361.09 1260.07 Q1363.55 1259.49 1365.59 1259.49 Q1370.96 1259.49 1374.15 1262.17 Q1377.34 1264.86 1377.34 1269.35 Q1377.34 1271.48 1376.53 1273.4 Q1375.75 1275.3 1373.64 1277.89 Q1373.06 1278.56 1369.96 1281.78 Q1366.86 1284.98 1361.21 1290.74 Z" fill="#000000" fill-rule="nonzero" fill-opacity="1" /><path clip-path="url(#clip120)" d="M1935.76 1276.04 Q1939.12 1276.76 1940.99 1279.03 Q1942.89 1281.3 1942.89 1284.63 Q1942.89 1289.74 1939.37 1292.55 Q1935.86 1295.35 1929.37 1295.35 Q1927.2 1295.35 1924.88 1294.91 Q1922.59 1294.49 1920.14 1293.63 L1920.14 1289.12 Q1922.08 1290.25 1924.4 1290.83 Q1926.71 1291.41 1929.24 1291.41 Q1933.63 1291.41 1935.93 1289.67 Q1938.24 1287.94 1938.24 1284.63 Q1938.24 1281.57 1936.09 1279.86 Q1933.96 1278.12 1930.14 1278.12 L1926.11 1278.12 L1926.11 1274.28 L1930.32 1274.28 Q1933.77 1274.28 1935.6 1272.92 Q1937.43 1271.53 1937.43 1268.93 Q1937.43 1266.27 1935.53 1264.86 Q1933.66 1263.42 1930.14 1263.42 Q1928.22 1263.42 1926.02 1263.84 Q1923.82 1264.26 1921.18 1265.14 L1921.18 1260.97 Q1923.84 1260.23 1926.16 1259.86 Q1928.5 1259.49 1930.56 1259.49 Q1935.88 1259.49 1938.98 1261.92 Q1942.08 1264.33 1942.08 1268.45 Q1942.08 1271.32 1940.44 1273.31 Q1938.8 1275.28 1935.76 1276.04 Z" fill="#000000" fill-rule="nonzero" fill-opacity="1" /><polyline clip-path="url(#clip120)" style="stroke:#000000; stroke-linecap:round; stroke-linejoin:round; stroke-width:4; stroke-opacity:1; fill:none" points="183.394,1234.58 183.394,120.723 "/>
<polyline clip-path="url(#clip120)" style="stroke:#000000; stroke-linecap:round; stroke-linejoin:round; stroke-width:4; stroke-opacity:1; fill:none" points="183.394,1203.05 202.292,1203.05 "/>
<polyline clip-path="url(#clip120)" style="stroke:#000000; stroke-linecap:round; stroke-linejoin:round; stroke-width:4; stroke-opacity:1; fill:none" points="183.394,940.353 202.292,940.353 "/>
<polyline clip-path="url(#clip120)" style="stroke:#000000; stroke-linecap:round; stroke-linejoin:round; stroke-width:4; stroke-opacity:1; fill:none" points="183.394,677.651 202.292,677.651 "/>
<polyline clip-path="url(#clip120)" style="stroke:#000000; stroke-linecap:round; stroke-linejoin:round; stroke-width:4; stroke-opacity:1; fill:none" points="183.394,414.949 202.292,414.949 "/>
<polyline clip-path="url(#clip120)" style="stroke:#000000; stroke-linecap:round; stroke-linejoin:round; stroke-width:4; stroke-opacity:1; fill:none" points="183.394,152.247 202.292,152.247 "/>
<path clip-path="url(#clip120)" d="M64.3765 1188.85 Q60.7654 1188.85 58.9367 1192.42 Q57.1312 1195.96 57.1312 1203.09 Q57.1312 1210.2 58.9367 1213.76 Q60.7654 1217.3 64.3765 1217.3 Q68.0107 1217.3 69.8163 1213.76 Q71.645 1210.2 71.645 1203.09 Q71.645 1195.96 69.8163 1192.42 Q68.0107 1188.85 64.3765 1188.85 M64.3765 1185.15 Q70.1867 1185.15 73.2422 1189.76 Q76.3209 1194.34 76.3209 1203.09 Q76.3209 1211.82 73.2422 1216.42 Q70.1867 1221.01 64.3765 1221.01 Q58.5664 1221.01 55.4877 1216.42 Q52.4321 1211.82 52.4321 1203.09 Q52.4321 1194.34 55.4877 1189.76 Q58.5664 1185.15 64.3765 1185.15 Z" fill="#000000" fill-rule="nonzero" fill-opacity="1" /><path clip-path="url(#clip120)" d="M84.5384 1214.45 L89.4227 1214.45 L89.4227 1220.33 L84.5384 1220.33 L84.5384 1214.45 Z" fill="#000000" fill-rule="nonzero" fill-opacity="1" /><path clip-path="url(#clip120)" d="M109.608 1188.85 Q105.997 1188.85 104.168 1192.42 Q102.362 1195.96 102.362 1203.09 Q102.362 1210.2 104.168 1213.76 Q105.997 1217.3 109.608 1217.3 Q113.242 1217.3 115.048 1213.76 Q116.876 1210.2 116.876 1203.09 Q116.876 1195.96 115.048 1192.42 Q113.242 1188.85 109.608 1188.85 M109.608 1185.15 Q115.418 1185.15 118.473 1189.76 Q121.552 1194.34 121.552 1203.09 Q121.552 1211.82 118.473 1216.42 Q115.418 1221.01 109.608 1221.01 Q103.798 1221.01 100.719 1216.42 Q97.6634 1211.82 97.6634 1203.09 Q97.6634 1194.34 100.719 1189.76 Q103.798 1185.15 109.608 1185.15 Z" fill="#000000" fill-rule="nonzero" fill-opacity="1" /><path clip-path="url(#clip120)" d="M139.77 1188.85 Q136.159 1188.85 134.33 1192.42 Q132.524 1195.96 132.524 1203.09 Q132.524 1210.2 134.33 1213.76 Q136.159 1217.3 139.77 1217.3 Q143.404 1217.3 145.209 1213.76 Q147.038 1210.2 147.038 1203.09 Q147.038 1195.96 145.209 1192.42 Q143.404 1188.85 139.77 1188.85 M139.77 1185.15 Q145.58 1185.15 148.635 1189.76 Q151.714 1194.34 151.714 1203.09 Q151.714 1211.82 148.635 1216.42 Q145.58 1221.01 139.77 1221.01 Q133.959 1221.01 130.881 1216.42 Q127.825 1211.82 127.825 1203.09 Q127.825 1194.34 130.881 1189.76 Q133.959 1185.15 139.77 1185.15 Z" fill="#000000" fill-rule="nonzero" fill-opacity="1" /><path clip-path="url(#clip120)" d="M65.3719 926.151 Q61.7608 926.151 59.9321 929.716 Q58.1265 933.258 58.1265 940.387 Q58.1265 947.494 59.9321 951.059 Q61.7608 954.6 65.3719 954.6 Q69.0061 954.6 70.8117 951.059 Q72.6404 947.494 72.6404 940.387 Q72.6404 933.258 70.8117 929.716 Q69.0061 926.151 65.3719 926.151 M65.3719 922.448 Q71.182 922.448 74.2376 927.054 Q77.3163 931.638 77.3163 940.387 Q77.3163 949.114 74.2376 953.721 Q71.182 958.304 65.3719 958.304 Q59.5617 958.304 56.483 953.721 Q53.4275 949.114 53.4275 940.387 Q53.4275 931.638 56.483 927.054 Q59.5617 922.448 65.3719 922.448 Z" fill="#000000" fill-rule="nonzero" fill-opacity="1" /><path clip-path="url(#clip120)" d="M85.5338 951.753 L90.418 951.753 L90.418 957.633 L85.5338 957.633 L85.5338 951.753 Z" fill="#000000" fill-rule="nonzero" fill-opacity="1" /><path clip-path="url(#clip120)" d="M104.631 953.698 L120.95 953.698 L120.95 957.633 L99.006 957.633 L99.006 953.698 Q101.668 950.943 106.251 946.313 Q110.858 941.661 112.038 940.318 Q114.284 937.795 115.163 936.059 Q116.066 934.3 116.066 932.61 Q116.066 929.855 114.122 928.119 Q112.2 926.383 109.098 926.383 Q106.899 926.383 104.446 927.147 Q102.015 927.911 99.2374 929.462 L99.2374 924.739 Q102.061 923.605 104.515 923.026 Q106.969 922.448 109.006 922.448 Q114.376 922.448 117.571 925.133 Q120.765 927.818 120.765 932.309 Q120.765 934.438 119.955 936.36 Q119.168 938.258 117.061 940.85 Q116.483 941.522 113.381 944.739 Q110.279 947.934 104.631 953.698 Z" fill="#000000" fill-rule="nonzero" fill-opacity="1" /><path clip-path="url(#clip120)" d="M130.811 923.073 L149.168 923.073 L149.168 927.008 L135.094 927.008 L135.094 935.48 Q136.112 935.133 137.131 934.971 Q138.149 934.786 139.168 934.786 Q144.955 934.786 148.334 937.957 Q151.714 941.128 151.714 946.545 Q151.714 952.124 148.242 955.225 Q144.77 958.304 138.45 958.304 Q136.274 958.304 134.006 957.934 Q131.76 957.563 129.353 956.823 L129.353 952.124 Q131.436 953.258 133.659 953.813 Q135.881 954.369 138.358 954.369 Q142.362 954.369 144.7 952.262 Q147.038 950.156 147.038 946.545 Q147.038 942.934 144.7 940.827 Q142.362 938.721 138.358 938.721 Q136.483 938.721 134.608 939.137 Q132.756 939.554 130.811 940.434 L130.811 923.073 Z" fill="#000000" fill-rule="nonzero" fill-opacity="1" /><path clip-path="url(#clip120)" d="M64.3765 663.45 Q60.7654 663.45 58.9367 667.014 Q57.1312 670.556 57.1312 677.686 Q57.1312 684.792 58.9367 688.357 Q60.7654 691.899 64.3765 691.899 Q68.0107 691.899 69.8163 688.357 Q71.645 684.792 71.645 677.686 Q71.645 670.556 69.8163 667.014 Q68.0107 663.45 64.3765 663.45 M64.3765 659.746 Q70.1867 659.746 73.2422 664.352 Q76.3209 668.936 76.3209 677.686 Q76.3209 686.412 73.2422 691.019 Q70.1867 695.602 64.3765 695.602 Q58.5664 695.602 55.4877 691.019 Q52.4321 686.412 52.4321 677.686 Q52.4321 668.936 55.4877 664.352 Q58.5664 659.746 64.3765 659.746 Z" fill="#000000" fill-rule="nonzero" fill-opacity="1" /><path clip-path="url(#clip120)" d="M84.5384 689.051 L89.4227 689.051 L89.4227 694.931 L84.5384 694.931 L84.5384 689.051 Z" fill="#000000" fill-rule="nonzero" fill-opacity="1" /><path clip-path="url(#clip120)" d="M99.6541 660.371 L118.01 660.371 L118.01 664.306 L103.936 664.306 L103.936 672.778 Q104.955 672.431 105.974 672.269 Q106.992 672.084 108.011 672.084 Q113.798 672.084 117.177 675.255 Q120.557 678.426 120.557 683.843 Q120.557 689.422 117.085 692.524 Q113.612 695.602 107.293 695.602 Q105.117 695.602 102.849 695.232 Q100.603 694.861 98.1958 694.121 L98.1958 689.422 Q100.279 690.556 102.501 691.111 Q104.724 691.667 107.2 691.667 Q111.205 691.667 113.543 689.561 Q115.881 687.454 115.881 683.843 Q115.881 680.232 113.543 678.125 Q111.205 676.019 107.2 676.019 Q105.325 676.019 103.45 676.436 Q101.599 676.852 99.6541 677.732 L99.6541 660.371 Z" fill="#000000" fill-rule="nonzero" fill-opacity="1" /><path clip-path="url(#clip120)" d="M139.77 663.45 Q136.159 663.45 134.33 667.014 Q132.524 670.556 132.524 677.686 Q132.524 684.792 134.33 688.357 Q136.159 691.899 139.77 691.899 Q143.404 691.899 145.209 688.357 Q147.038 684.792 147.038 677.686 Q147.038 670.556 145.209 667.014 Q143.404 663.45 139.77 663.45 M139.77 659.746 Q145.58 659.746 148.635 664.352 Q151.714 668.936 151.714 677.686 Q151.714 686.412 148.635 691.019 Q145.58 695.602 139.77 695.602 Q133.959 695.602 130.881 691.019 Q127.825 686.412 127.825 677.686 Q127.825 668.936 130.881 664.352 Q133.959 659.746 139.77 659.746 Z" fill="#000000" fill-rule="nonzero" fill-opacity="1" /><path clip-path="url(#clip120)" d="M65.3719 400.748 Q61.7608 400.748 59.9321 404.313 Q58.1265 407.854 58.1265 414.984 Q58.1265 422.09 59.9321 425.655 Q61.7608 429.197 65.3719 429.197 Q69.0061 429.197 70.8117 425.655 Q72.6404 422.09 72.6404 414.984 Q72.6404 407.854 70.8117 404.313 Q69.0061 400.748 65.3719 400.748 M65.3719 397.044 Q71.182 397.044 74.2376 401.651 Q77.3163 406.234 77.3163 414.984 Q77.3163 423.711 74.2376 428.317 Q71.182 432.9 65.3719 432.9 Q59.5617 432.9 56.483 428.317 Q53.4275 423.711 53.4275 414.984 Q53.4275 406.234 56.483 401.651 Q59.5617 397.044 65.3719 397.044 Z" fill="#000000" fill-rule="nonzero" fill-opacity="1" /><path clip-path="url(#clip120)" d="M85.5338 426.349 L90.418 426.349 L90.418 432.229 L85.5338 432.229 L85.5338 426.349 Z" fill="#000000" fill-rule="nonzero" fill-opacity="1" /><path clip-path="url(#clip120)" d="M99.4226 397.669 L121.645 397.669 L121.645 399.66 L109.098 432.229 L104.214 432.229 L116.02 401.604 L99.4226 401.604 L99.4226 397.669 Z" fill="#000000" fill-rule="nonzero" fill-opacity="1" /><path clip-path="url(#clip120)" d="M130.811 397.669 L149.168 397.669 L149.168 401.604 L135.094 401.604 L135.094 410.076 Q136.112 409.729 137.131 409.567 Q138.149 409.382 139.168 409.382 Q144.955 409.382 148.334 412.553 Q151.714 415.725 151.714 421.141 Q151.714 426.72 148.242 429.822 Q144.77 432.9 138.45 432.9 Q136.274 432.9 134.006 432.53 Q131.76 432.16 129.353 431.419 L129.353 426.72 Q131.436 427.854 133.659 428.41 Q135.881 428.965 138.358 428.965 Q142.362 428.965 144.7 426.859 Q147.038 424.752 147.038 421.141 Q147.038 417.53 144.7 415.424 Q142.362 413.317 138.358 413.317 Q136.483 413.317 134.608 413.734 Q132.756 414.15 130.811 415.03 L130.811 397.669 Z" fill="#000000" fill-rule="nonzero" fill-opacity="1" /><path clip-path="url(#clip120)" d="M55.1867 165.592 L62.8256 165.592 L62.8256 139.226 L54.5154 140.893 L54.5154 136.634 L62.7793 134.967 L67.4552 134.967 L67.4552 165.592 L75.094 165.592 L75.094 169.527 L55.1867 169.527 L55.1867 165.592 Z" fill="#000000" fill-rule="nonzero" fill-opacity="1" /><path clip-path="url(#clip120)" d="M84.5384 163.648 L89.4227 163.648 L89.4227 169.527 L84.5384 169.527 L84.5384 163.648 Z" fill="#000000" fill-rule="nonzero" fill-opacity="1" /><path clip-path="url(#clip120)" d="M109.608 138.046 Q105.997 138.046 104.168 141.611 Q102.362 145.152 102.362 152.282 Q102.362 159.388 104.168 162.953 Q105.997 166.495 109.608 166.495 Q113.242 166.495 115.048 162.953 Q116.876 159.388 116.876 152.282 Q116.876 145.152 115.048 141.611 Q113.242 138.046 109.608 138.046 M109.608 134.342 Q115.418 134.342 118.473 138.949 Q121.552 143.532 121.552 152.282 Q121.552 161.009 118.473 165.615 Q115.418 170.199 109.608 170.199 Q103.798 170.199 100.719 165.615 Q97.6634 161.009 97.6634 152.282 Q97.6634 143.532 100.719 138.949 Q103.798 134.342 109.608 134.342 Z" fill="#000000" fill-rule="nonzero" fill-opacity="1" /><path clip-path="url(#clip120)" d="M139.77 138.046 Q136.159 138.046 134.33 141.611 Q132.524 145.152 132.524 152.282 Q132.524 159.388 134.33 162.953 Q136.159 166.495 139.77 166.495 Q143.404 166.495 145.209 162.953 Q147.038 159.388 147.038 152.282 Q147.038 145.152 145.209 141.611 Q143.404 138.046 139.77 138.046 M139.77 134.342 Q145.58 134.342 148.635 138.949 Q151.714 143.532 151.714 152.282 Q151.714 161.009 148.635 165.615 Q145.58 170.199 139.77 170.199 Q133.959 170.199 130.881 165.615 Q127.825 161.009 127.825 152.282 Q127.825 143.532 130.881 138.949 Q133.959 134.342 139.77 134.342 Z" fill="#000000" fill-rule="nonzero" fill-opacity="1" /><path clip-path="url(#clip120)" d="M810.819 12.096 L849.059 12.096 L849.059 18.9825 L819.001 18.9825 L819.001 36.8875 L847.803 36.8875 L847.803 43.7741 L819.001 43.7741 L819.001 65.6895 L849.788 65.6895 L849.788 72.576 L810.819 72.576 L810.819 12.096 Z" fill="#000000" fill-rule="nonzero" fill-opacity="1" /><path clip-path="url(#clip120)" d="M889.204 34.1734 Q887.948 33.4443 886.449 33.1202 Q884.991 32.7556 883.208 32.7556 Q876.889 32.7556 873.486 36.8875 Q870.124 40.9789 870.124 48.6757 L870.124 72.576 L862.63 72.576 L862.63 27.2059 L870.124 27.2059 L870.124 34.2544 Q872.473 30.1225 876.241 28.1376 Q880.008 26.1121 885.396 26.1121 Q886.165 26.1121 887.097 26.2337 Q888.029 26.3147 889.163 26.5172 L889.204 34.1734 Z" fill="#000000" fill-rule="nonzero" fill-opacity="1" /><path clip-path="url(#clip120)" d="M921.854 34.1734 Q920.598 33.4443 919.099 33.1202 Q917.641 32.7556 915.858 32.7556 Q909.539 32.7556 906.136 36.8875 Q902.774 40.9789 902.774 48.6757 L902.774 72.576 L895.28 72.576 L895.28 27.2059 L902.774 27.2059 L902.774 34.2544 Q905.124 30.1225 908.891 28.1376 Q912.658 26.1121 918.046 26.1121 Q918.816 26.1121 919.747 26.2337 Q920.679 26.3147 921.813 26.5172 L921.854 34.1734 Z" fill="#000000" fill-rule="nonzero" fill-opacity="1" /><path clip-path="url(#clip120)" d="M945.43 32.4315 Q939.435 32.4315 935.951 37.1306 Q932.467 41.7891 932.467 49.9314 Q932.467 58.0738 935.91 62.7728 Q939.394 67.4314 945.43 67.4314 Q951.385 67.4314 954.869 62.7323 Q958.352 58.0333 958.352 49.9314 Q958.352 41.8701 954.869 37.1711 Q951.385 32.4315 945.43 32.4315 M945.43 26.1121 Q955.152 26.1121 960.702 32.4315 Q966.252 38.7509 966.252 49.9314 Q966.252 61.0714 960.702 67.4314 Q955.152 73.7508 945.43 73.7508 Q935.667 73.7508 930.118 67.4314 Q924.608 61.0714 924.608 49.9314 Q924.608 38.7509 930.118 32.4315 Q935.667 26.1121 945.43 26.1121 Z" fill="#000000" fill-rule="nonzero" fill-opacity="1" /><path clip-path="url(#clip120)" d="M1004.9 34.1734 Q1003.64 33.4443 1002.14 33.1202 Q1000.68 32.7556 998.902 32.7556 Q992.583 32.7556 989.18 36.8875 Q985.818 40.9789 985.818 48.6757 L985.818 72.576 L978.323 72.576 L978.323 27.2059 L985.818 27.2059 L985.818 34.2544 Q988.167 30.1225 991.934 28.1376 Q995.702 26.1121 1001.09 26.1121 Q1001.86 26.1121 1002.79 26.2337 Q1003.72 26.3147 1004.86 26.5172 L1004.9 34.1734 Z" fill="#000000" fill-rule="nonzero" fill-opacity="1" /><path clip-path="url(#clip120)" d="M1091.99 47.3389 L1091.99 54.59 Q1087.74 57.7497 1084.09 59.1675 Q1080.49 60.5448 1076.56 60.5448 Q1072.1 60.5448 1066.19 58.1548 Q1065.78 57.9927 1065.5 57.8712 Q1065.26 57.7902 1064.65 57.5471 Q1058.37 55.0761 1054.56 55.0761 Q1051 55.0761 1047.51 56.6154 Q1044.03 58.1548 1040.06 61.5575 L1040.06 54.3064 Q1044.31 51.1467 1047.92 49.7694 Q1051.56 48.3516 1055.49 48.3516 Q1059.95 48.3516 1065.9 50.7416 Q1066.35 50.9442 1066.55 51.0252 Q1066.8 51.1062 1067.4 51.3493 Q1073.68 53.8203 1077.49 53.8203 Q1080.97 53.8203 1084.38 52.3215 Q1087.82 50.7821 1091.99 47.3389 M1091.99 31.5808 L1091.99 38.7915 Q1087.74 41.9917 1084.09 43.4095 Q1080.49 44.7868 1076.56 44.7868 Q1072.1 44.7868 1066.19 42.3968 Q1065.78 42.2347 1065.5 42.1132 Q1065.26 42.0322 1064.65 41.7891 Q1058.37 39.3181 1054.56 39.3181 Q1051 39.3181 1047.51 40.8574 Q1044.03 42.3968 1040.06 45.759 L1040.06 38.5484 Q1044.31 35.3887 1047.92 34.0114 Q1051.56 32.5936 1055.49 32.5936 Q1059.95 32.5936 1065.9 34.9836 Q1066.31 35.1456 1066.51 35.2267 Q1066.8 35.3482 1067.4 35.5912 Q1073.68 38.0623 1077.49 38.0623 Q1080.97 38.0623 1084.38 36.5635 Q1087.82 35.0241 1091.99 31.5808 Z" fill="#000000" fill-rule="nonzero" fill-opacity="1" /><path clip-path="url(#clip120)" d="M1137.44 65.6895 L1150.81 65.6895 L1150.81 19.5497 L1136.27 22.4663 L1136.27 15.0127 L1150.73 12.096 L1158.91 12.096 L1158.91 65.6895 L1172.28 65.6895 L1172.28 72.576 L1137.44 72.576 L1137.44 65.6895 Z" fill="#000000" fill-rule="nonzero" fill-opacity="1" /><path clip-path="url(#clip120)" d="M1188.81 62.2867 L1197.36 62.2867 L1197.36 72.576 L1188.81 72.576 L1188.81 62.2867 Z" fill="#000000" fill-rule="nonzero" fill-opacity="1" /><path clip-path="url(#clip120)" d="M1232.68 43.8551 Q1226.85 43.8551 1223.48 46.9743 Q1220.16 50.0935 1220.16 55.5622 Q1220.16 61.0309 1223.48 64.1501 Q1226.85 67.2693 1232.68 67.2693 Q1238.51 67.2693 1241.88 64.1501 Q1245.24 60.9904 1245.24 55.5622 Q1245.24 50.0935 1241.88 46.9743 Q1238.55 43.8551 1232.68 43.8551 M1224.5 40.3713 Q1219.23 39.075 1216.27 35.4697 Q1213.36 31.8644 1213.36 26.6793 Q1213.36 19.4281 1218.5 15.2152 Q1223.69 11.0023 1232.68 11.0023 Q1241.71 11.0023 1246.86 15.2152 Q1252 19.4281 1252 26.6793 Q1252 31.8644 1249.05 35.4697 Q1246.13 39.075 1240.9 40.3713 Q1246.82 41.7486 1250.1 45.759 Q1253.42 49.7694 1253.42 55.5622 Q1253.42 64.3527 1248.03 69.0517 Q1242.69 73.7508 1232.68 73.7508 Q1222.67 73.7508 1217.29 69.0517 Q1211.94 64.3527 1211.94 55.5622 Q1211.94 49.7694 1215.26 45.759 Q1218.58 41.7486 1224.5 40.3713 M1221.5 27.4489 Q1221.5 32.148 1224.42 34.7811 Q1227.37 37.4142 1232.68 37.4142 Q1237.95 37.4142 1240.9 34.7811 Q1243.9 32.148 1243.9 27.4489 Q1243.9 22.7499 1240.9 20.1168 Q1237.95 17.4837 1232.68 17.4837 Q1227.37 17.4837 1224.42 20.1168 Q1221.5 22.7499 1221.5 27.4489 Z" fill="#000000" fill-rule="nonzero" fill-opacity="1" /><path clip-path="url(#clip120)" d="M1305.72 48.0275 L1305.72 51.6733 L1271.45 51.6733 Q1271.93 59.3701 1276.06 63.421 Q1280.24 67.4314 1287.65 67.4314 Q1291.94 67.4314 1295.95 66.3781 Q1300.01 65.3249 1303.98 63.2184 L1303.98 70.267 Q1299.97 71.9684 1295.75 72.8596 Q1291.54 73.7508 1287.2 73.7508 Q1276.35 73.7508 1269.99 67.4314 Q1263.67 61.1119 1263.67 50.3365 Q1263.67 39.1965 1269.66 32.6746 Q1275.7 26.1121 1285.91 26.1121 Q1295.06 26.1121 1300.37 32.0264 Q1305.72 37.9003 1305.72 48.0275 M1298.26 45.84 Q1298.18 39.7232 1294.82 36.0774 Q1291.5 32.4315 1285.99 32.4315 Q1279.75 32.4315 1275.98 35.9558 Q1272.26 39.4801 1271.69 45.8805 L1298.26 45.84 Z" fill="#000000" fill-rule="nonzero" fill-opacity="1" /><path clip-path="url(#clip120)" d="M1314.18 46.5287 L1336.02 46.5287 L1336.02 53.1722 L1314.18 53.1722 L1314.18 46.5287 Z" fill="#000000" fill-rule="nonzero" fill-opacity="1" /><path clip-path="url(#clip120)" d="M1350.36 65.6895 L1363.73 65.6895 L1363.73 19.5497 L1349.18 22.4663 L1349.18 15.0127 L1363.65 12.096 L1371.83 12.096 L1371.83 65.6895 L1385.2 65.6895 L1385.2 72.576 L1350.36 72.576 L1350.36 65.6895 Z" fill="#000000" fill-rule="nonzero" fill-opacity="1" /><path clip-path="url(#clip120)" d="M1408.77 65.6895 L1437.33 65.6895 L1437.33 72.576 L1398.93 72.576 L1398.93 65.6895 Q1403.59 60.8689 1411.61 52.7671 Q1419.67 44.6248 1421.74 42.2752 Q1425.66 37.8598 1427.2 34.8216 Q1428.78 31.7429 1428.78 28.7857 Q1428.78 23.9651 1425.38 20.927 Q1422.02 17.8888 1416.59 17.8888 Q1412.74 17.8888 1408.45 19.2256 Q1404.19 20.5624 1399.33 23.2765 L1399.33 15.0127 Q1404.28 13.0277 1408.57 12.015 Q1412.86 11.0023 1416.43 11.0023 Q1425.83 11.0023 1431.42 15.7013 Q1437.01 20.4004 1437.01 28.2591 Q1437.01 31.9859 1435.59 35.3482 Q1434.21 38.6699 1430.53 43.2069 Q1429.51 44.3817 1424.08 50.0125 Q1418.66 55.6027 1408.77 65.6895 Z" fill="#000000" fill-rule="nonzero" fill-opacity="1" /><polyline clip-path="url(#clip122)" style="stroke:#009af9; stroke-linecap:round; stroke-linejoin:round; stroke-width:4; stroke-opacity:1; fill:none" points="236.64,1203.05 245.802,1186.01 254.963,1168.98 308.622,1069.53 362.281,971.288 387.243,926.243 412.205,881.739 445.663,823.086 479.122,765.765 506.769,719.549 534.416,674.49 560.125,633.724 585.834,594.136 618.107,546.233 650.381,500.474 679.33,461.374 708.28,424.22 724.848,403.87 741.417,384.208 757.985,365.25 774.553,347.012 799.323,321.125 824.093,296.932 839.933,282.371 855.774,268.533 871.614,255.43 887.455,243.072 916.37,222.467 945.285,204.429 961.74,195.329 978.194,187.084 994.649,179.701 1011.1,173.186 1037.19,164.649 1063.28,158.326 1079.48,155.519 1095.69,153.573 1111.9,152.491 1128.1,152.274 1152.92,153.617 1177.74,156.985 1195.24,160.573 1212.74,165.161 1230.24,170.745 1247.73,177.318 1273.88,188.975 1300.03,202.803 1314.9,211.624 1329.77,221.132 1344.64,231.32 1359.51,242.181 1388.97,265.65 1418.42,291.666 1434.62,307.038 1450.82,323.147 1467.02,339.979 1483.22,357.521 1507.97,385.656 1532.72,415.36 1563.96,454.994 1595.19,496.913 1624.08,537.608 1652.96,580.042 1682.75,625.509 1712.55,672.583 1742.74,721.801 1772.94,772.395 1804.47,826.534 1836.01,881.846 1860.84,926.131 1885.68,970.951 1942.25,1074.56 1998.82,1179.45 2005.16,1191.25 2011.51,1203.05 "/>
<circle clip-path="url(#clip122)" cx="1124.07" cy="152.247" r="14.4" fill="#e26f46" fill-rule="evenodd" fill-opacity="1" stroke="#000000" stroke-opacity="1" stroke-width="2.688"/>
<circle clip-path="url(#clip122)" cx="939.679" cy="207.723" r="14.4" fill="#e26f46" fill-rule="evenodd" fill-opacity="1" stroke="#000000" stroke-opacity="1" stroke-width="2.688"/>
<circle clip-path="url(#clip122)" cx="1308.47" cy="207.723" r="14.4" fill="#e26f46" fill-rule="evenodd" fill-opacity="1" stroke="#000000" stroke-opacity="1" stroke-width="2.688"/>
<circle clip-path="url(#clip122)" cx="281.804" cy="1119.14" r="14.4" fill="#e26f46" fill-rule="evenodd" fill-opacity="1" stroke="#000000" stroke-opacity="1" stroke-width="2.688"/>
<circle clip-path="url(#clip122)" cx="1966.35" cy="1119.14" r="14.4" fill="#e26f46" fill-rule="evenodd" fill-opacity="1" stroke="#000000" stroke-opacity="1" stroke-width="2.688"/>
<circle clip-path="url(#clip122)" cx="244.223" cy="1188.95" r="14.4" fill="#e26f46" fill-rule="evenodd" fill-opacity="1" stroke="#000000" stroke-opacity="1" stroke-width="2.688"/>
<circle clip-path="url(#clip122)" cx="2003.93" cy="1188.95" r="14.4" fill="#e26f46" fill-rule="evenodd" fill-opacity="1" stroke="#000000" stroke-opacity="1" stroke-width="2.688"/>
<circle clip-path="url(#clip122)" cx="466.014" cy="788.049" r="14.4" fill="#e26f46" fill-rule="evenodd" fill-opacity="1" stroke="#000000" stroke-opacity="1" stroke-width="2.688"/>
<circle clip-path="url(#clip122)" cx="1782.14" cy="788.049" r="14.4" fill="#e26f46" fill-rule="evenodd" fill-opacity="1" stroke="#000000" stroke-opacity="1" stroke-width="2.688"/>
<circle clip-path="url(#clip122)" cx="356.564" cy="981.671" r="14.4" fill="#e26f46" fill-rule="evenodd" fill-opacity="1" stroke="#000000" stroke-opacity="1" stroke-width="2.688"/>
<circle clip-path="url(#clip122)" cx="1891.59" cy="981.671" r="14.4" fill="#e26f46" fill-rule="evenodd" fill-opacity="1" stroke="#000000" stroke-opacity="1" stroke-width="2.688"/>
<circle clip-path="url(#clip122)" cx="763.914" cy="358.64" r="14.4" fill="#e26f46" fill-rule="evenodd" fill-opacity="1" stroke="#000000" stroke-opacity="1" stroke-width="2.688"/>
<circle clip-path="url(#clip122)" cx="1484.24" cy="358.64" r="14.4" fill="#e26f46" fill-rule="evenodd" fill-opacity="1" stroke="#000000" stroke-opacity="1" stroke-width="2.688"/>
<circle clip-path="url(#clip122)" cx="603.961" cy="566.976" r="14.4" fill="#e26f46" fill-rule="evenodd" fill-opacity="1" stroke="#000000" stroke-opacity="1" stroke-width="2.688"/>
<circle clip-path="url(#clip122)" cx="1644.19" cy="566.976" r="14.4" fill="#e26f46" fill-rule="evenodd" fill-opacity="1" stroke="#000000" stroke-opacity="1" stroke-width="2.688"/>
</svg>
