<?xml version="1.0" encoding="utf-8"?>
<svg xmlns="http://www.w3.org/2000/svg" xmlns:xlink="http://www.w3.org/1999/xlink" width="672" height="480" viewBox="0 0 2688 1920">
<defs>
  <clipPath id="clip820">
    <rect x="0" y="0" width="2688" height="1920"/>
  </clipPath>
</defs>
<path clip-path="url(#clip820)" d="
M0 1920 L2688 1920 L2688 0 L0 0  Z
  " fill="#ffffff" fill-rule="evenodd" fill-opacity="1"/>
<defs>
  <clipPath id="clip821">
    <rect x="537" y="0" width="1883" height="1883"/>
  </clipPath>
</defs>
<path clip-path="url(#clip820)" d="
M47.2441 1872.76 L2640.76 1872.76 L2640.76 47.2441 L47.2441 47.2441  Z
  " fill="#ffffff" fill-rule="evenodd" fill-opacity="1"/>
<defs>
  <clipPath id="clip822">
    <rect x="47" y="47" width="2595" height="1827"/>
  </clipPath>
</defs>
<polyline clip-path="url(#clip822)" style="stroke:#009af9; stroke-linecap:butt; stroke-linejoin:round; stroke-width:12; stroke-opacity:1; fill:none" points="
  170.745,1611.97 2146.75,1611.97 2146.75,47.2441 170.745,1611.97 
  "/>
<polyline clip-path="url(#clip822)" style="stroke:#000000; stroke-linecap:butt; stroke-linejoin:round; stroke-width:12; stroke-opacity:1; fill:none" points="
  2023.25,1611.97 2023.25,1481.57 2146.75,1481.57 
  "/>
<path clip-path="url(#clip820)" d="M554.128 1483.05 L528.324 1483.05 Q528.932 1495.17 531.727 1500.31 Q535.21 1506.63 541.246 1506.63 Q547.323 1506.63 550.685 1500.27 Q553.642 1494.68 554.128 1483.05 M554.007 1476.17 Q552.872 1464.66 550.685 1460.61 Q547.201 1454.21 541.246 1454.21 Q535.048 1454.21 531.767 1460.53 Q529.175 1465.63 528.405 1476.17 L554.007 1476.17 M541.246 1448.13 Q550.969 1448.13 556.518 1456.72 Q562.068 1465.27 562.068 1480.42 Q562.068 1495.53 556.518 1504.12 Q550.969 1512.75 541.246 1512.75 Q531.484 1512.75 525.974 1504.12 Q520.425 1495.53 520.425 1480.42 Q520.425 1465.27 525.974 1456.72 Q531.484 1448.13 541.246 1448.13 Z" fill="#000000" fill-rule="evenodd" fill-opacity="1" /><path clip-path="url(#clip820)" d="M1993.73 950.096 Q1987.74 950.096 1984.25 954.795 Q1980.77 959.453 1980.77 967.595 Q1980.77 975.738 1984.21 980.437 Q1987.69 985.095 1993.73 985.095 Q1999.69 985.095 2003.17 980.396 Q2006.65 975.697 2006.65 967.595 Q2006.65 959.534 2003.17 954.835 Q1999.69 950.096 1993.73 950.096 M1993.73 943.776 Q2003.45 943.776 2009 950.096 Q2014.55 956.415 2014.55 967.595 Q2014.55 978.735 2009 985.095 Q2003.45 991.415 1993.73 991.415 Q1983.97 991.415 1978.42 985.095 Q1972.91 978.735 1972.91 967.595 Q1972.91 956.415 1978.42 950.096 Q1983.97 943.776 1993.73 943.776 Z" fill="#000000" fill-rule="evenodd" fill-opacity="1" /><path clip-path="url(#clip820)" d="M2034.12 983.434 L2034.12 1007.5 L2026.62 1007.5 L2026.62 944.87 L2034.12 944.87 L2034.12 951.756 Q2036.47 947.706 2040.03 945.761 Q2043.64 943.776 2048.62 943.776 Q2056.88 943.776 2062.03 950.339 Q2067.21 956.901 2067.21 967.595 Q2067.21 978.29 2062.03 984.852 Q2056.88 991.415 2048.62 991.415 Q2043.64 991.415 2040.03 989.47 Q2036.47 987.485 2034.12 983.434 M2059.48 967.595 Q2059.48 959.372 2056.07 954.714 Q2052.71 950.015 2046.8 950.015 Q2040.88 950.015 2037.48 954.714 Q2034.12 959.372 2034.12 967.595 Q2034.12 975.819 2037.48 980.518 Q2040.88 985.176 2046.8 985.176 Q2052.71 985.176 2056.07 980.518 Q2059.48 975.819 2059.48 967.595 Z" fill="#000000" fill-rule="evenodd" fill-opacity="1" /><path clip-path="url(#clip820)" d="M2086.78 983.434 L2086.78 1007.5 L2079.29 1007.5 L2079.29 944.87 L2086.78 944.87 L2086.78 951.756 Q2089.13 947.706 2092.69 945.761 Q2096.3 943.776 2101.28 943.776 Q2109.55 943.776 2114.69 950.339 Q2119.88 956.901 2119.88 967.595 Q2119.88 978.29 2114.69 984.852 Q2109.55 991.415 2101.28 991.415 Q2096.3 991.415 2092.69 989.47 Q2089.13 987.485 2086.78 983.434 M2112.14 967.595 Q2112.14 959.372 2108.74 954.714 Q2105.37 950.015 2099.46 950.015 Q2093.55 950.015 2090.14 954.714 Q2086.78 959.372 2086.78 967.595 Q2086.78 975.819 2090.14 980.518 Q2093.55 985.176 2099.46 985.176 Q2105.37 985.176 2108.74 980.518 Q2112.14 975.819 2112.14 967.595 Z" fill="#000000" fill-rule="evenodd" fill-opacity="1" /><path clip-path="url(#clip820)" d="M2149.81 950.096 Q2143.82 950.096 2140.33 954.795 Q2136.85 959.453 2136.85 967.595 Q2136.85 975.738 2140.29 980.437 Q2143.78 985.095 2149.81 985.095 Q2155.77 985.095 2159.25 980.396 Q2162.73 975.697 2162.73 967.595 Q2162.73 959.534 2159.25 954.835 Q2155.77 950.096 2149.81 950.096 M2149.81 943.776 Q2159.53 943.776 2165.08 950.096 Q2170.63 956.415 2170.63 967.595 Q2170.63 978.735 2165.08 985.095 Q2159.53 991.415 2149.81 991.415 Q2140.05 991.415 2134.5 985.095 Q2128.99 978.735 2128.99 967.595 Q2128.99 956.415 2134.5 950.096 Q2140.05 943.776 2149.81 943.776 Z" fill="#000000" fill-rule="evenodd" fill-opacity="1" /><path clip-path="url(#clip820)" d="M2211.91 946.207 L2211.91 953.255 Q2208.75 951.635 2205.35 950.825 Q2201.95 950.015 2198.3 950.015 Q2192.75 950.015 2189.96 951.716 Q2187.2 953.417 2187.2 956.82 Q2187.2 959.413 2189.19 960.911 Q2191.17 962.37 2197.17 963.707 L2199.72 964.274 Q2207.66 965.975 2210.98 969.094 Q2214.34 972.173 2214.34 977.723 Q2214.34 984.042 2209.32 987.728 Q2204.34 991.415 2195.59 991.415 Q2191.94 991.415 2187.97 990.686 Q2184.04 989.997 2179.67 988.579 L2179.67 980.882 Q2183.8 983.029 2187.81 984.123 Q2191.82 985.176 2195.75 985.176 Q2201.02 985.176 2203.85 983.394 Q2206.69 981.571 2206.69 978.29 Q2206.69 975.252 2204.62 973.631 Q2202.6 972.011 2195.67 970.512 L2193.08 969.904 Q2186.15 968.446 2183.07 965.448 Q2179.99 962.41 2179.99 957.144 Q2179.99 950.744 2184.53 947.26 Q2189.07 943.776 2197.41 943.776 Q2201.54 943.776 2205.19 944.384 Q2208.83 944.991 2211.91 946.207 Z" fill="#000000" fill-rule="evenodd" fill-opacity="1" /><path clip-path="url(#clip820)" d="M2226.21 944.87 L2233.67 944.87 L2233.67 990.24 L2226.21 990.24 L2226.21 944.87 M2226.21 927.208 L2233.67 927.208 L2233.67 936.647 L2226.21 936.647 L2226.21 927.208 Z" fill="#000000" fill-rule="evenodd" fill-opacity="1" /><path clip-path="url(#clip820)" d="M2256.63 931.988 L2256.63 944.87 L2271.99 944.87 L2271.99 950.663 L2256.63 950.663 L2256.63 975.292 Q2256.63 980.842 2258.13 982.422 Q2259.67 984.002 2264.33 984.002 L2271.99 984.002 L2271.99 990.24 L2264.33 990.24 Q2255.7 990.24 2252.42 987.04 Q2249.14 983.799 2249.14 975.292 L2249.14 950.663 L2243.67 950.663 L2243.67 944.87 L2249.14 944.87 L2249.14 931.988 L2256.63 931.988 Z" fill="#000000" fill-rule="evenodd" fill-opacity="1" /><path clip-path="url(#clip820)" d="M2320.6 965.692 L2320.6 969.337 L2286.33 969.337 Q2286.81 977.034 2290.95 981.085 Q2295.12 985.095 2302.53 985.095 Q2306.83 985.095 2310.84 984.042 Q2314.89 982.989 2318.86 980.882 L2318.86 987.931 Q2314.85 989.632 2310.63 990.524 Q2306.42 991.415 2302.09 991.415 Q2291.23 991.415 2284.87 985.095 Q2278.55 978.776 2278.55 968.001 Q2278.55 956.861 2284.55 950.339 Q2290.58 943.776 2300.79 943.776 Q2309.94 943.776 2315.25 949.69 Q2320.6 955.564 2320.6 965.692 M2313.14 963.504 Q2313.06 957.387 2309.7 953.741 Q2306.38 950.096 2300.87 950.096 Q2294.63 950.096 2290.86 953.62 Q2287.14 957.144 2286.57 963.545 L2313.14 963.504 Z" fill="#000000" fill-rule="evenodd" fill-opacity="1" /><path clip-path="url(#clip820)" d="M1006.11 1749.8 Q997.078 1749.8 993.594 1751.86 Q990.11 1753.93 990.11 1758.91 Q990.11 1762.88 992.703 1765.23 Q995.336 1767.54 999.832 1767.54 Q1006.03 1767.54 1009.76 1763.16 Q1013.52 1758.75 1013.52 1751.46 L1013.52 1749.8 L1006.11 1749.8 M1020.98 1746.72 L1020.98 1772.6 L1013.52 1772.6 L1013.52 1765.72 Q1010.97 1769.85 1007.16 1771.83 Q1003.36 1773.78 997.847 1773.78 Q990.88 1773.78 986.748 1769.89 Q982.656 1765.96 982.656 1759.4 Q982.656 1751.74 987.76 1747.85 Q992.905 1743.96 1003.07 1743.96 L1013.52 1743.96 L1013.52 1743.23 Q1013.52 1738.09 1010.12 1735.29 Q1006.76 1732.46 1000.64 1732.46 Q996.753 1732.46 993.067 1733.39 Q989.381 1734.32 985.978 1736.18 L985.978 1729.3 Q990.07 1727.72 993.918 1726.95 Q997.766 1726.14 1001.41 1726.14 Q1011.26 1726.14 1016.12 1731.24 Q1020.98 1736.35 1020.98 1746.72 Z" fill="#000000" fill-rule="evenodd" fill-opacity="1" /><path clip-path="url(#clip820)" d="M1066.19 1734.12 L1066.19 1709.57 L1073.64 1709.57 L1073.64 1772.6 L1066.19 1772.6 L1066.19 1765.8 Q1063.84 1769.85 1060.23 1771.83 Q1056.67 1773.78 1051.64 1773.78 Q1043.42 1773.78 1038.23 1767.21 Q1033.09 1760.65 1033.09 1749.96 Q1033.09 1739.26 1038.23 1732.7 Q1043.42 1726.14 1051.64 1726.14 Q1056.67 1726.14 1060.23 1728.12 Q1063.84 1730.07 1066.19 1734.12 M1040.79 1749.96 Q1040.79 1758.18 1044.15 1762.88 Q1047.55 1767.54 1053.47 1767.54 Q1059.38 1767.54 1062.78 1762.88 Q1066.19 1758.18 1066.19 1749.96 Q1066.19 1741.73 1062.78 1737.08 Q1059.38 1732.38 1053.47 1732.38 Q1047.55 1732.38 1044.15 1737.08 Q1040.79 1741.73 1040.79 1749.96 Z" fill="#000000" fill-rule="evenodd" fill-opacity="1" /><path clip-path="url(#clip820)" d="M1088.99 1727.23 L1096.45 1727.23 L1096.45 1773.41 Q1096.45 1782.08 1093.12 1785.97 Q1089.84 1789.86 1082.51 1789.86 L1079.68 1789.86 L1079.68 1783.54 L1081.66 1783.54 Q1085.91 1783.54 1087.45 1781.55 Q1088.99 1779.61 1088.99 1773.41 L1088.99 1727.23 M1088.99 1709.57 L1096.45 1709.57 L1096.45 1719.01 L1088.99 1719.01 L1088.99 1709.57 Z" fill="#000000" fill-rule="evenodd" fill-opacity="1" /><path clip-path="url(#clip820)" d="M1132.66 1749.8 Q1123.63 1749.8 1120.14 1751.86 Q1116.66 1753.93 1116.66 1758.91 Q1116.66 1762.88 1119.25 1765.23 Q1121.89 1767.54 1126.38 1767.54 Q1132.58 1767.54 1136.31 1763.16 Q1140.07 1758.75 1140.07 1751.46 L1140.07 1749.8 L1132.66 1749.8 M1147.53 1746.72 L1147.53 1772.6 L1140.07 1772.6 L1140.07 1765.72 Q1137.52 1769.85 1133.71 1771.83 Q1129.91 1773.78 1124.4 1773.78 Q1117.43 1773.78 1113.3 1769.89 Q1109.21 1765.96 1109.21 1759.4 Q1109.21 1751.74 1114.31 1747.85 Q1119.46 1743.96 1129.62 1743.96 L1140.07 1743.96 L1140.07 1743.23 Q1140.07 1738.09 1136.67 1735.29 Q1133.31 1732.46 1127.19 1732.46 Q1123.3 1732.46 1119.62 1733.39 Q1115.93 1734.32 1112.53 1736.18 L1112.53 1729.3 Q1116.62 1727.72 1120.47 1726.95 Q1124.32 1726.14 1127.96 1726.14 Q1137.81 1726.14 1142.67 1731.24 Q1147.53 1736.35 1147.53 1746.72 Z" fill="#000000" fill-rule="evenodd" fill-opacity="1" /><path clip-path="url(#clip820)" d="M1195.53 1728.97 L1195.53 1735.94 Q1192.37 1734.2 1189.17 1733.35 Q1186.01 1732.46 1182.77 1732.46 Q1175.52 1732.46 1171.51 1737.08 Q1167.5 1741.65 1167.5 1749.96 Q1167.5 1758.26 1171.51 1762.88 Q1175.52 1767.46 1182.77 1767.46 Q1186.01 1767.46 1189.17 1766.61 Q1192.37 1765.72 1195.53 1763.97 L1195.53 1770.86 Q1192.41 1772.32 1189.05 1773.05 Q1185.73 1773.78 1181.96 1773.78 Q1171.71 1773.78 1165.68 1767.34 Q1159.64 1760.9 1159.64 1749.96 Q1159.64 1738.86 1165.72 1732.5 Q1171.83 1726.14 1182.45 1726.14 Q1185.89 1726.14 1189.17 1726.87 Q1192.45 1727.56 1195.53 1728.97 Z" fill="#000000" fill-rule="evenodd" fill-opacity="1" /><path clip-path="url(#clip820)" d="M1247.3 1748.05 L1247.3 1751.7 L1213.03 1751.7 Q1213.52 1759.4 1217.65 1763.45 Q1221.82 1767.46 1229.23 1767.46 Q1233.53 1767.46 1237.54 1766.4 Q1241.59 1765.35 1245.56 1763.24 L1245.56 1770.29 Q1241.55 1771.99 1237.34 1772.89 Q1233.12 1773.78 1228.79 1773.78 Q1217.93 1773.78 1211.57 1767.46 Q1205.25 1761.14 1205.25 1750.36 Q1205.25 1739.22 1211.25 1732.7 Q1217.28 1726.14 1227.49 1726.14 Q1236.65 1726.14 1241.95 1732.05 Q1247.3 1737.93 1247.3 1748.05 M1239.85 1745.87 Q1239.77 1739.75 1236.4 1736.1 Q1233.08 1732.46 1227.57 1732.46 Q1221.34 1732.46 1217.57 1735.98 Q1213.84 1739.51 1213.27 1745.91 L1239.85 1745.87 Z" fill="#000000" fill-rule="evenodd" fill-opacity="1" /><path clip-path="url(#clip820)" d="M1297.25 1745.22 L1297.25 1772.6 L1289.8 1772.6 L1289.8 1745.46 Q1289.8 1739.02 1287.28 1735.82 Q1284.77 1732.62 1279.75 1732.62 Q1273.71 1732.62 1270.23 1736.47 Q1266.75 1740.32 1266.75 1746.96 L1266.75 1772.6 L1259.25 1772.6 L1259.25 1727.23 L1266.75 1727.23 L1266.75 1734.28 Q1269.42 1730.19 1273.03 1728.16 Q1276.67 1726.14 1281.41 1726.14 Q1289.23 1726.14 1293.24 1731 Q1297.25 1735.82 1297.25 1745.22 Z" fill="#000000" fill-rule="evenodd" fill-opacity="1" /><path clip-path="url(#clip820)" d="M1319.49 1714.35 L1319.49 1727.23 L1334.84 1727.23 L1334.84 1733.02 L1319.49 1733.02 L1319.49 1757.65 Q1319.49 1763.2 1320.99 1764.78 Q1322.53 1766.36 1327.19 1766.36 L1334.84 1766.36 L1334.84 1772.6 L1327.19 1772.6 Q1318.56 1772.6 1315.28 1769.4 Q1311.99 1766.16 1311.99 1757.65 L1311.99 1733.02 L1306.53 1733.02 L1306.53 1727.23 L1311.99 1727.23 L1311.99 1714.35 L1319.49 1714.35 Z" fill="#000000" fill-rule="evenodd" fill-opacity="1" /><path clip-path="url(#clip820)" d="M711.674 962.856 L711.674 990.24 L704.22 990.24 L704.22 963.099 Q704.22 956.658 701.709 953.458 Q699.197 950.258 694.174 950.258 Q688.138 950.258 684.654 954.106 Q681.171 957.954 681.171 964.598 L681.171 990.24 L673.676 990.24 L673.676 927.208 L681.171 927.208 L681.171 951.918 Q683.844 947.827 687.449 945.802 Q691.095 943.776 695.835 943.776 Q703.653 943.776 707.663 948.637 Q711.674 953.458 711.674 962.856 Z" fill="#000000" fill-rule="evenodd" fill-opacity="1" /><path clip-path="url(#clip820)" d="M745.418 994.453 Q742.258 1002.55 739.261 1005.03 Q736.263 1007.5 731.24 1007.5 L725.285 1007.5 L725.285 1001.26 L729.66 1001.26 Q732.739 1001.26 734.44 999.8 Q736.141 998.342 738.207 992.914 L739.544 989.511 L721.193 944.87 L729.093 944.87 L743.271 980.356 L757.449 944.87 L765.348 944.87 L745.418 994.453 Z" fill="#000000" fill-rule="evenodd" fill-opacity="1" /><path clip-path="url(#clip820)" d="M782.848 983.434 L782.848 1007.5 L775.354 1007.5 L775.354 944.87 L782.848 944.87 L782.848 951.756 Q785.198 947.706 788.763 945.761 Q792.368 943.776 797.35 943.776 Q805.614 943.776 810.759 950.339 Q815.944 956.901 815.944 967.595 Q815.944 978.29 810.759 984.852 Q805.614 991.415 797.35 991.415 Q792.368 991.415 788.763 989.47 Q785.198 987.485 782.848 983.434 M808.207 967.595 Q808.207 959.372 804.804 954.714 Q801.442 950.015 795.528 950.015 Q789.613 950.015 786.211 954.714 Q782.848 959.372 782.848 967.595 Q782.848 975.819 786.211 980.518 Q789.613 985.176 795.528 985.176 Q801.442 985.176 804.804 980.518 Q808.207 975.819 808.207 967.595 Z" fill="#000000" fill-rule="evenodd" fill-opacity="1" /><path clip-path="url(#clip820)" d="M845.88 950.096 Q839.885 950.096 836.401 954.795 Q832.917 959.453 832.917 967.595 Q832.917 975.738 836.361 980.437 Q839.844 985.095 845.88 985.095 Q851.835 985.095 855.319 980.396 Q858.803 975.697 858.803 967.595 Q858.803 959.534 855.319 954.835 Q851.835 950.096 845.88 950.096 M845.88 943.776 Q855.602 943.776 861.152 950.096 Q866.702 956.415 866.702 967.595 Q866.702 978.735 861.152 985.095 Q855.602 991.415 845.88 991.415 Q836.118 991.415 830.568 985.095 Q825.059 978.735 825.059 967.595 Q825.059 956.415 830.568 950.096 Q836.118 943.776 845.88 943.776 Z" fill="#000000" fill-rule="evenodd" fill-opacity="1" /><path clip-path="url(#clip820)" d="M886.43 931.988 L886.43 944.87 L901.783 944.87 L901.783 950.663 L886.43 950.663 L886.43 975.292 Q886.43 980.842 887.929 982.422 Q889.468 984.002 894.127 984.002 L901.783 984.002 L901.783 990.24 L894.127 990.24 Q885.498 990.24 882.217 987.04 Q878.936 983.799 878.936 975.292 L878.936 950.663 L873.467 950.663 L873.467 944.87 L878.936 944.87 L878.936 931.988 L886.43 931.988 Z" fill="#000000" fill-rule="evenodd" fill-opacity="1" /><path clip-path="url(#clip820)" d="M950.394 965.692 L950.394 969.337 L916.123 969.337 Q916.609 977.034 920.741 981.085 Q924.913 985.095 932.327 985.095 Q936.621 985.095 940.631 984.042 Q944.682 982.989 948.652 980.882 L948.652 987.931 Q944.641 989.632 940.428 990.524 Q936.215 991.415 931.881 991.415 Q921.025 991.415 914.665 985.095 Q908.345 978.776 908.345 968.001 Q908.345 956.861 914.341 950.339 Q920.376 943.776 930.585 943.776 Q939.74 943.776 945.046 949.69 Q950.394 955.564 950.394 965.692 M942.94 963.504 Q942.859 957.387 939.497 953.741 Q936.175 950.096 930.666 950.096 Q924.427 950.096 920.66 953.62 Q916.933 957.144 916.366 963.545 L942.94 963.504 Z" fill="#000000" fill-rule="evenodd" fill-opacity="1" /><path clip-path="url(#clip820)" d="M1000.34 962.856 L1000.34 990.24 L992.888 990.24 L992.888 963.099 Q992.888 956.658 990.376 953.458 Q987.865 950.258 982.841 950.258 Q976.806 950.258 973.322 954.106 Q969.838 957.954 969.838 964.598 L969.838 990.24 L962.344 990.24 L962.344 944.87 L969.838 944.87 L969.838 951.918 Q972.512 947.827 976.117 945.802 Q979.763 943.776 984.502 943.776 Q992.321 943.776 996.331 948.637 Q1000.34 953.458 1000.34 962.856 Z" fill="#000000" fill-rule="evenodd" fill-opacity="1" /><path clip-path="url(#clip820)" d="M1014.44 972.335 L1014.44 944.87 L1021.89 944.87 L1021.89 972.051 Q1021.89 978.492 1024.4 981.733 Q1026.92 984.933 1031.94 984.933 Q1037.97 984.933 1041.46 981.085 Q1044.98 977.237 1044.98 970.593 L1044.98 944.87 L1052.44 944.87 L1052.44 990.24 L1044.98 990.24 L1044.98 983.272 Q1042.27 987.404 1038.66 989.43 Q1035.1 991.415 1030.36 991.415 Q1022.54 991.415 1018.49 986.554 Q1014.44 981.693 1014.44 972.335 M1033.19 943.776 L1033.19 943.776 Z" fill="#000000" fill-rule="evenodd" fill-opacity="1" /><path clip-path="url(#clip820)" d="M1096.71 946.207 L1096.71 953.255 Q1093.55 951.635 1090.15 950.825 Q1086.75 950.015 1083.1 950.015 Q1077.55 950.015 1074.76 951.716 Q1072 953.417 1072 956.82 Q1072 959.413 1073.99 960.911 Q1075.97 962.37 1081.97 963.707 L1084.52 964.274 Q1092.46 965.975 1095.78 969.094 Q1099.14 972.173 1099.14 977.723 Q1099.14 984.042 1094.12 987.728 Q1089.14 991.415 1080.39 991.415 Q1076.74 991.415 1072.77 990.686 Q1068.84 989.997 1064.47 988.579 L1064.47 980.882 Q1068.6 983.029 1072.61 984.123 Q1076.62 985.176 1080.55 985.176 Q1085.82 985.176 1088.65 983.394 Q1091.49 981.571 1091.49 978.29 Q1091.49 975.252 1089.42 973.631 Q1087.4 972.011 1080.47 970.512 L1077.88 969.904 Q1070.95 968.446 1067.87 965.448 Q1064.79 962.41 1064.79 957.144 Q1064.79 950.744 1069.33 947.26 Q1073.87 943.776 1082.21 943.776 Q1086.34 943.776 1089.99 944.384 Q1093.63 944.991 1096.71 946.207 Z" fill="#000000" fill-rule="evenodd" fill-opacity="1" /><path clip-path="url(#clip820)" d="M1149.82 965.692 L1149.82 969.337 L1115.55 969.337 Q1116.04 977.034 1120.17 981.085 Q1124.34 985.095 1131.75 985.095 Q1136.05 985.095 1140.06 984.042 Q1144.11 982.989 1148.08 980.882 L1148.08 987.931 Q1144.07 989.632 1139.85 990.524 Q1135.64 991.415 1131.31 991.415 Q1120.45 991.415 1114.09 985.095 Q1107.77 978.776 1107.77 968.001 Q1107.77 956.861 1113.77 950.339 Q1119.8 943.776 1130.01 943.776 Q1139.17 943.776 1144.47 949.69 Q1149.82 955.564 1149.82 965.692 M1142.37 963.504 Q1142.28 957.387 1138.92 953.741 Q1135.6 950.096 1130.09 950.096 Q1123.85 950.096 1120.09 953.62 Q1116.36 957.144 1115.79 963.545 L1142.37 963.504 Z" fill="#000000" fill-rule="evenodd" fill-opacity="1" /></svg>
