<?xml version="1.0" encoding="utf-8"?>
<svg xmlns="http://www.w3.org/2000/svg" xmlns:xlink="http://www.w3.org/1999/xlink" width="672" height="480" viewBox="0 0 2688 1920">
<defs>
  <clipPath id="clip270">
    <rect x="0" y="0" width="2688" height="1920"/>
  </clipPath>
</defs>
<path clip-path="url(#clip270)" d="
M0 1920 L2688 1920 L2688 0 L0 0  Z
  " fill="#ffffff" fill-rule="evenodd" fill-opacity="1"/>
<defs>
  <clipPath id="clip271">
    <rect x="537" y="0" width="1883" height="1883"/>
  </clipPath>
</defs>
<path clip-path="url(#clip270)" d="
M150.358 1800.78 L2640.76 1800.78 L2640.76 47.2441 L150.358 47.2441  Z
  " fill="#ffffff" fill-rule="evenodd" fill-opacity="1"/>
<defs>
  <clipPath id="clip272">
    <rect x="150" y="47" width="2491" height="1755"/>
  </clipPath>
</defs>
<polyline clip-path="url(#clip272)" style="stroke:#000000; stroke-linecap:butt; stroke-linejoin:round; stroke-width:2; stroke-opacity:0.1; fill:none" points="
  220.841,1800.78 220.841,47.2441 
  "/>
<polyline clip-path="url(#clip272)" style="stroke:#000000; stroke-linecap:butt; stroke-linejoin:round; stroke-width:2; stroke-opacity:0.1; fill:none" points="
  808.199,1800.78 808.199,47.2441 
  "/>
<polyline clip-path="url(#clip272)" style="stroke:#000000; stroke-linecap:butt; stroke-linejoin:round; stroke-width:2; stroke-opacity:0.1; fill:none" points="
  1395.56,1800.78 1395.56,47.2441 
  "/>
<polyline clip-path="url(#clip272)" style="stroke:#000000; stroke-linecap:butt; stroke-linejoin:round; stroke-width:2; stroke-opacity:0.1; fill:none" points="
  1982.91,1800.78 1982.91,47.2441 
  "/>
<polyline clip-path="url(#clip272)" style="stroke:#000000; stroke-linecap:butt; stroke-linejoin:round; stroke-width:2; stroke-opacity:0.1; fill:none" points="
  2570.27,1800.78 2570.27,47.2441 
  "/>
<polyline clip-path="url(#clip270)" style="stroke:#000000; stroke-linecap:butt; stroke-linejoin:round; stroke-width:4; stroke-opacity:1; fill:none" points="
  150.358,1800.78 2640.76,1800.78 
  "/>
<polyline clip-path="url(#clip270)" style="stroke:#000000; stroke-linecap:butt; stroke-linejoin:round; stroke-width:4; stroke-opacity:1; fill:none" points="
  220.841,1800.78 220.841,1781.88 
  "/>
<polyline clip-path="url(#clip270)" style="stroke:#000000; stroke-linecap:butt; stroke-linejoin:round; stroke-width:4; stroke-opacity:1; fill:none" points="
  808.199,1800.78 808.199,1781.88 
  "/>
<polyline clip-path="url(#clip270)" style="stroke:#000000; stroke-linecap:butt; stroke-linejoin:round; stroke-width:4; stroke-opacity:1; fill:none" points="
  1395.56,1800.78 1395.56,1781.88 
  "/>
<polyline clip-path="url(#clip270)" style="stroke:#000000; stroke-linecap:butt; stroke-linejoin:round; stroke-width:4; stroke-opacity:1; fill:none" points="
  1982.91,1800.78 1982.91,1781.88 
  "/>
<polyline clip-path="url(#clip270)" style="stroke:#000000; stroke-linecap:butt; stroke-linejoin:round; stroke-width:4; stroke-opacity:1; fill:none" points="
  2570.27,1800.78 2570.27,1781.88 
  "/>
<path clip-path="url(#clip270)" d="M183.144 1834 Q179.533 1834 177.705 1837.57 Q175.899 1841.11 175.899 1848.24 Q175.899 1855.34 177.705 1858.91 Q179.533 1862.45 183.144 1862.45 Q186.779 1862.45 188.584 1858.91 Q190.413 1855.34 190.413 1848.24 Q190.413 1841.11 188.584 1837.57 Q186.779 1834 183.144 1834 M183.144 1830.3 Q188.954 1830.3 192.01 1834.9 Q195.089 1839.49 195.089 1848.24 Q195.089 1856.96 192.01 1861.57 Q188.954 1866.15 183.144 1866.15 Q177.334 1866.15 174.255 1861.57 Q171.2 1856.96 171.2 1848.24 Q171.2 1839.49 174.255 1834.9 Q177.334 1830.3 183.144 1830.3 Z" fill="#000000" fill-rule="evenodd" fill-opacity="1" /><path clip-path="url(#clip270)" d="M203.306 1859.6 L208.19 1859.6 L208.19 1865.48 L203.306 1865.48 L203.306 1859.6 Z" fill="#000000" fill-rule="evenodd" fill-opacity="1" /><path clip-path="url(#clip270)" d="M228.376 1834 Q224.764 1834 222.936 1837.57 Q221.13 1841.11 221.13 1848.24 Q221.13 1855.34 222.936 1858.91 Q224.764 1862.45 228.376 1862.45 Q232.01 1862.45 233.815 1858.91 Q235.644 1855.34 235.644 1848.24 Q235.644 1841.11 233.815 1837.57 Q232.01 1834 228.376 1834 M228.376 1830.3 Q234.186 1830.3 237.241 1834.9 Q240.32 1839.49 240.32 1848.24 Q240.32 1856.96 237.241 1861.57 Q234.186 1866.15 228.376 1866.15 Q222.565 1866.15 219.487 1861.57 Q216.431 1856.96 216.431 1848.24 Q216.431 1839.49 219.487 1834.9 Q222.565 1830.3 228.376 1830.3 Z" fill="#000000" fill-rule="evenodd" fill-opacity="1" /><path clip-path="url(#clip270)" d="M258.537 1834 Q254.926 1834 253.098 1837.57 Q251.292 1841.11 251.292 1848.24 Q251.292 1855.34 253.098 1858.91 Q254.926 1862.45 258.537 1862.45 Q262.172 1862.45 263.977 1858.91 Q265.806 1855.34 265.806 1848.24 Q265.806 1841.11 263.977 1837.57 Q262.172 1834 258.537 1834 M258.537 1830.3 Q264.348 1830.3 267.403 1834.9 Q270.482 1839.49 270.482 1848.24 Q270.482 1856.96 267.403 1861.57 Q264.348 1866.15 258.537 1866.15 Q252.727 1866.15 249.649 1861.57 Q246.593 1856.96 246.593 1848.24 Q246.593 1839.49 249.649 1834.9 Q252.727 1830.3 258.537 1830.3 Z" fill="#000000" fill-rule="evenodd" fill-opacity="1" /><path clip-path="url(#clip270)" d="M771 1834 Q767.389 1834 765.56 1837.57 Q763.755 1841.11 763.755 1848.24 Q763.755 1855.34 765.56 1858.91 Q767.389 1862.45 771 1862.45 Q774.634 1862.45 776.44 1858.91 Q778.268 1855.34 778.268 1848.24 Q778.268 1841.11 776.44 1837.57 Q774.634 1834 771 1834 M771 1830.3 Q776.81 1830.3 779.866 1834.9 Q782.944 1839.49 782.944 1848.24 Q782.944 1856.96 779.866 1861.57 Q776.81 1866.15 771 1866.15 Q765.19 1866.15 762.111 1861.57 Q759.056 1856.96 759.056 1848.24 Q759.056 1839.49 762.111 1834.9 Q765.19 1830.3 771 1830.3 Z" fill="#000000" fill-rule="evenodd" fill-opacity="1" /><path clip-path="url(#clip270)" d="M791.162 1859.6 L796.046 1859.6 L796.046 1865.48 L791.162 1865.48 L791.162 1859.6 Z" fill="#000000" fill-rule="evenodd" fill-opacity="1" /><path clip-path="url(#clip270)" d="M810.259 1861.55 L826.578 1861.55 L826.578 1865.48 L804.634 1865.48 L804.634 1861.55 Q807.296 1858.79 811.879 1854.16 Q816.486 1849.51 817.666 1848.17 Q819.912 1845.65 820.791 1843.91 Q821.694 1842.15 821.694 1840.46 Q821.694 1837.71 819.75 1835.97 Q817.828 1834.23 814.727 1834.23 Q812.528 1834.23 810.074 1835 Q807.643 1835.76 804.866 1837.31 L804.866 1832.59 Q807.69 1831.46 810.143 1830.88 Q812.597 1830.3 814.634 1830.3 Q820.004 1830.3 823.199 1832.98 Q826.393 1835.67 826.393 1840.16 Q826.393 1842.29 825.583 1844.21 Q824.796 1846.11 822.69 1848.7 Q822.111 1849.37 819.009 1852.59 Q815.907 1855.78 810.259 1861.55 Z" fill="#000000" fill-rule="evenodd" fill-opacity="1" /><path clip-path="url(#clip270)" d="M836.439 1830.92 L854.796 1830.92 L854.796 1834.86 L840.722 1834.86 L840.722 1843.33 Q841.74 1842.98 842.759 1842.82 Q843.777 1842.64 844.796 1842.64 Q850.583 1842.64 853.963 1845.81 Q857.342 1848.98 857.342 1854.4 Q857.342 1859.97 853.87 1863.08 Q850.398 1866.15 844.078 1866.15 Q841.902 1866.15 839.634 1865.78 Q837.389 1865.41 834.981 1864.67 L834.981 1859.97 Q837.064 1861.11 839.287 1861.66 Q841.509 1862.22 843.986 1862.22 Q847.99 1862.22 850.328 1860.11 Q852.666 1858.01 852.666 1854.4 Q852.666 1850.78 850.328 1848.68 Q847.99 1846.57 843.986 1846.57 Q842.111 1846.57 840.236 1846.99 Q838.384 1847.4 836.439 1848.28 L836.439 1830.92 Z" fill="#000000" fill-rule="evenodd" fill-opacity="1" /><path clip-path="url(#clip270)" d="M1357.86 1834 Q1354.25 1834 1352.42 1837.57 Q1350.62 1841.11 1350.62 1848.24 Q1350.62 1855.34 1352.42 1858.91 Q1354.25 1862.45 1357.86 1862.45 Q1361.49 1862.45 1363.3 1858.91 Q1365.13 1855.34 1365.13 1848.24 Q1365.13 1841.11 1363.3 1837.57 Q1361.49 1834 1357.86 1834 M1357.86 1830.3 Q1363.67 1830.3 1366.73 1834.9 Q1369.8 1839.49 1369.8 1848.24 Q1369.8 1856.96 1366.73 1861.57 Q1363.67 1866.15 1357.86 1866.15 Q1352.05 1866.15 1348.97 1861.57 Q1345.92 1856.96 1345.92 1848.24 Q1345.92 1839.49 1348.97 1834.9 Q1352.05 1830.3 1357.86 1830.3 Z" fill="#000000" fill-rule="evenodd" fill-opacity="1" /><path clip-path="url(#clip270)" d="M1378.02 1859.6 L1382.91 1859.6 L1382.91 1865.48 L1378.02 1865.48 L1378.02 1859.6 Z" fill="#000000" fill-rule="evenodd" fill-opacity="1" /><path clip-path="url(#clip270)" d="M1393.14 1830.92 L1411.49 1830.92 L1411.49 1834.86 L1397.42 1834.86 L1397.42 1843.33 Q1398.44 1842.98 1399.46 1842.82 Q1400.48 1842.64 1401.49 1842.64 Q1407.28 1842.64 1410.66 1845.81 Q1414.04 1848.98 1414.04 1854.4 Q1414.04 1859.97 1410.57 1863.08 Q1407.1 1866.15 1400.78 1866.15 Q1398.6 1866.15 1396.33 1865.78 Q1394.09 1865.41 1391.68 1864.67 L1391.68 1859.97 Q1393.76 1861.11 1395.99 1861.66 Q1398.21 1862.22 1400.68 1862.22 Q1404.69 1862.22 1407.03 1860.11 Q1409.36 1858.01 1409.36 1854.4 Q1409.36 1850.78 1407.03 1848.68 Q1404.69 1846.57 1400.68 1846.57 Q1398.81 1846.57 1396.93 1846.99 Q1395.08 1847.4 1393.14 1848.28 L1393.14 1830.92 Z" fill="#000000" fill-rule="evenodd" fill-opacity="1" /><path clip-path="url(#clip270)" d="M1433.25 1834 Q1429.64 1834 1427.81 1837.57 Q1426.01 1841.11 1426.01 1848.24 Q1426.01 1855.34 1427.81 1858.91 Q1429.64 1862.45 1433.25 1862.45 Q1436.89 1862.45 1438.69 1858.91 Q1440.52 1855.34 1440.52 1848.24 Q1440.52 1841.11 1438.69 1837.57 Q1436.89 1834 1433.25 1834 M1433.25 1830.3 Q1439.06 1830.3 1442.12 1834.9 Q1445.2 1839.49 1445.2 1848.24 Q1445.2 1856.96 1442.12 1861.57 Q1439.06 1866.15 1433.25 1866.15 Q1427.44 1866.15 1424.36 1861.57 Q1421.31 1856.96 1421.31 1848.24 Q1421.31 1839.49 1424.36 1834.9 Q1427.44 1830.3 1433.25 1830.3 Z" fill="#000000" fill-rule="evenodd" fill-opacity="1" /><path clip-path="url(#clip270)" d="M1945.72 1834 Q1942.1 1834 1940.28 1837.57 Q1938.47 1841.11 1938.47 1848.24 Q1938.47 1855.34 1940.28 1858.91 Q1942.1 1862.45 1945.72 1862.45 Q1949.35 1862.45 1951.16 1858.91 Q1952.98 1855.34 1952.98 1848.24 Q1952.98 1841.11 1951.16 1837.57 Q1949.35 1834 1945.72 1834 M1945.72 1830.3 Q1951.53 1830.3 1954.58 1834.9 Q1957.66 1839.49 1957.66 1848.24 Q1957.66 1856.96 1954.58 1861.57 Q1951.53 1866.15 1945.72 1866.15 Q1939.91 1866.15 1936.83 1861.57 Q1933.77 1856.96 1933.77 1848.24 Q1933.77 1839.49 1936.83 1834.9 Q1939.91 1830.3 1945.72 1830.3 Z" fill="#000000" fill-rule="evenodd" fill-opacity="1" /><path clip-path="url(#clip270)" d="M1965.88 1859.6 L1970.76 1859.6 L1970.76 1865.48 L1965.88 1865.48 L1965.88 1859.6 Z" fill="#000000" fill-rule="evenodd" fill-opacity="1" /><path clip-path="url(#clip270)" d="M1979.77 1830.92 L2001.99 1830.92 L2001.99 1832.91 L1989.44 1865.48 L1984.56 1865.48 L1996.36 1834.86 L1979.77 1834.86 L1979.77 1830.92 Z" fill="#000000" fill-rule="evenodd" fill-opacity="1" /><path clip-path="url(#clip270)" d="M2011.16 1830.92 L2029.51 1830.92 L2029.51 1834.86 L2015.44 1834.86 L2015.44 1843.33 Q2016.46 1842.98 2017.47 1842.82 Q2018.49 1842.64 2019.51 1842.64 Q2025.3 1842.64 2028.68 1845.81 Q2032.06 1848.98 2032.06 1854.4 Q2032.06 1859.97 2028.59 1863.08 Q2025.11 1866.15 2018.79 1866.15 Q2016.62 1866.15 2014.35 1865.78 Q2012.1 1865.41 2009.7 1864.67 L2009.7 1859.97 Q2011.78 1861.11 2014 1861.66 Q2016.22 1862.22 2018.7 1862.22 Q2022.71 1862.22 2025.04 1860.11 Q2027.38 1858.01 2027.38 1854.4 Q2027.38 1850.78 2025.04 1848.68 Q2022.71 1846.57 2018.7 1846.57 Q2016.83 1846.57 2014.95 1846.99 Q2013.1 1847.4 2011.16 1848.28 L2011.16 1830.92 Z" fill="#000000" fill-rule="evenodd" fill-opacity="1" /><path clip-path="url(#clip270)" d="M2522.34 1861.55 L2529.98 1861.55 L2529.98 1835.18 L2521.67 1836.85 L2521.67 1832.59 L2529.94 1830.92 L2534.61 1830.92 L2534.61 1861.55 L2542.25 1861.55 L2542.25 1865.48 L2522.34 1865.48 L2522.34 1861.55 Z" fill="#000000" fill-rule="evenodd" fill-opacity="1" /><path clip-path="url(#clip270)" d="M2551.7 1859.6 L2556.58 1859.6 L2556.58 1865.48 L2551.7 1865.48 L2551.7 1859.6 Z" fill="#000000" fill-rule="evenodd" fill-opacity="1" /><path clip-path="url(#clip270)" d="M2576.77 1834 Q2573.15 1834 2571.33 1837.57 Q2569.52 1841.11 2569.52 1848.24 Q2569.52 1855.34 2571.33 1858.91 Q2573.15 1862.45 2576.77 1862.45 Q2580.4 1862.45 2582.21 1858.91 Q2584.03 1855.34 2584.03 1848.24 Q2584.03 1841.11 2582.21 1837.57 Q2580.4 1834 2576.77 1834 M2576.77 1830.3 Q2582.58 1830.3 2585.63 1834.9 Q2588.71 1839.49 2588.71 1848.24 Q2588.71 1856.96 2585.63 1861.57 Q2582.58 1866.15 2576.77 1866.15 Q2570.96 1866.15 2567.88 1861.57 Q2564.82 1856.96 2564.82 1848.24 Q2564.82 1839.49 2567.88 1834.9 Q2570.96 1830.3 2576.77 1830.3 Z" fill="#000000" fill-rule="evenodd" fill-opacity="1" /><path clip-path="url(#clip270)" d="M2606.93 1834 Q2603.32 1834 2601.49 1837.57 Q2599.68 1841.11 2599.68 1848.24 Q2599.68 1855.34 2601.49 1858.91 Q2603.32 1862.45 2606.93 1862.45 Q2610.56 1862.45 2612.37 1858.91 Q2614.2 1855.34 2614.2 1848.24 Q2614.2 1841.11 2612.37 1837.57 Q2610.56 1834 2606.93 1834 M2606.93 1830.3 Q2612.74 1830.3 2615.79 1834.9 Q2618.87 1839.49 2618.87 1848.24 Q2618.87 1856.96 2615.79 1861.57 Q2612.74 1866.15 2606.93 1866.15 Q2601.12 1866.15 2598.04 1861.57 Q2594.98 1856.96 2594.98 1848.24 Q2594.98 1839.49 2598.04 1834.9 Q2601.12 1830.3 2606.93 1830.3 Z" fill="#000000" fill-rule="evenodd" fill-opacity="1" /><polyline clip-path="url(#clip272)" style="stroke:#000000; stroke-linecap:butt; stroke-linejoin:round; stroke-width:2; stroke-opacity:0.1; fill:none" points="
  150.358,1751.15 2640.76,1751.15 
  "/>
<polyline clip-path="url(#clip272)" style="stroke:#000000; stroke-linecap:butt; stroke-linejoin:round; stroke-width:2; stroke-opacity:0.1; fill:none" points="
  150.358,1337.58 2640.76,1337.58 
  "/>
<polyline clip-path="url(#clip272)" style="stroke:#000000; stroke-linecap:butt; stroke-linejoin:round; stroke-width:2; stroke-opacity:0.1; fill:none" points="
  150.358,924.012 2640.76,924.012 
  "/>
<polyline clip-path="url(#clip272)" style="stroke:#000000; stroke-linecap:butt; stroke-linejoin:round; stroke-width:2; stroke-opacity:0.1; fill:none" points="
  150.358,510.441 2640.76,510.441 
  "/>
<polyline clip-path="url(#clip272)" style="stroke:#000000; stroke-linecap:butt; stroke-linejoin:round; stroke-width:2; stroke-opacity:0.1; fill:none" points="
  150.358,96.8711 2640.76,96.8711 
  "/>
<polyline clip-path="url(#clip270)" style="stroke:#000000; stroke-linecap:butt; stroke-linejoin:round; stroke-width:4; stroke-opacity:1; fill:none" points="
  150.358,1800.78 150.358,47.2441 
  "/>
<polyline clip-path="url(#clip270)" style="stroke:#000000; stroke-linecap:butt; stroke-linejoin:round; stroke-width:4; stroke-opacity:1; fill:none" points="
  150.358,1751.15 169.256,1751.15 
  "/>
<polyline clip-path="url(#clip270)" style="stroke:#000000; stroke-linecap:butt; stroke-linejoin:round; stroke-width:4; stroke-opacity:1; fill:none" points="
  150.358,1337.58 169.256,1337.58 
  "/>
<polyline clip-path="url(#clip270)" style="stroke:#000000; stroke-linecap:butt; stroke-linejoin:round; stroke-width:4; stroke-opacity:1; fill:none" points="
  150.358,924.012 169.256,924.012 
  "/>
<polyline clip-path="url(#clip270)" style="stroke:#000000; stroke-linecap:butt; stroke-linejoin:round; stroke-width:4; stroke-opacity:1; fill:none" points="
  150.358,510.441 169.256,510.441 
  "/>
<polyline clip-path="url(#clip270)" style="stroke:#000000; stroke-linecap:butt; stroke-linejoin:round; stroke-width:4; stroke-opacity:1; fill:none" points="
  150.358,96.8711 169.256,96.8711 
  "/>
<path clip-path="url(#clip270)" d="M49.5521 1751.6 L79.2279 1751.6 L79.2279 1755.54 L49.5521 1755.54 L49.5521 1751.6 Z" fill="#000000" fill-rule="evenodd" fill-opacity="1" /><path clip-path="url(#clip270)" d="M90.1306 1764.5 L97.7695 1764.5 L97.7695 1738.13 L89.4593 1739.8 L89.4593 1735.54 L97.7232 1733.87 L102.399 1733.87 L102.399 1764.5 L110.038 1764.5 L110.038 1768.43 L90.1306 1768.43 L90.1306 1764.5 Z" fill="#000000" fill-rule="evenodd" fill-opacity="1" /><path clip-path="url(#clip270)" d="M98.0935 1323.38 Q94.4824 1323.38 92.6537 1326.95 Q90.8482 1330.49 90.8482 1337.62 Q90.8482 1344.72 92.6537 1348.29 Q94.4824 1351.83 98.0935 1351.83 Q101.728 1351.83 103.533 1348.29 Q105.362 1344.72 105.362 1337.62 Q105.362 1330.49 103.533 1326.95 Q101.728 1323.38 98.0935 1323.38 M98.0935 1319.68 Q103.904 1319.68 106.959 1324.28 Q110.038 1328.87 110.038 1337.62 Q110.038 1346.34 106.959 1350.95 Q103.904 1355.53 98.0935 1355.53 Q92.2834 1355.53 89.2047 1350.95 Q86.1492 1346.34 86.1492 1337.62 Q86.1492 1328.87 89.2047 1324.28 Q92.2834 1319.68 98.0935 1319.68 Z" fill="#000000" fill-rule="evenodd" fill-opacity="1" /><path clip-path="url(#clip270)" d="M90.1306 937.356 L97.7695 937.356 L97.7695 910.991 L89.4593 912.658 L89.4593 908.398 L97.7232 906.732 L102.399 906.732 L102.399 937.356 L110.038 937.356 L110.038 941.292 L90.1306 941.292 L90.1306 937.356 Z" fill="#000000" fill-rule="evenodd" fill-opacity="1" /><path clip-path="url(#clip270)" d="M93.7186 523.786 L110.038 523.786 L110.038 527.721 L88.0936 527.721 L88.0936 523.786 Q90.7556 521.032 95.3389 516.402 Q99.9454 511.749 101.126 510.407 Q103.371 507.884 104.251 506.147 Q105.154 504.388 105.154 502.698 Q105.154 499.944 103.209 498.208 Q101.288 496.472 98.1861 496.472 Q95.9871 496.472 93.5334 497.235 Q91.1028 497.999 88.3251 499.55 L88.3251 494.828 Q91.1491 493.694 93.6028 493.115 Q96.0565 492.536 98.0935 492.536 Q103.464 492.536 106.658 495.222 Q109.853 497.907 109.853 502.397 Q109.853 504.527 109.043 506.448 Q108.256 508.346 106.149 510.939 Q105.57 511.61 102.469 514.828 Q99.3667 518.022 93.7186 523.786 Z" fill="#000000" fill-rule="evenodd" fill-opacity="1" /><path clip-path="url(#clip270)" d="M102.908 95.517 Q106.265 96.2346 108.14 98.5031 Q110.038 100.772 110.038 104.105 Q110.038 109.221 106.519 112.022 Q103.001 114.822 96.5195 114.822 Q94.3436 114.822 92.0288 114.383 Q89.7371 113.966 87.2834 113.109 L87.2834 108.596 Q89.2278 109.73 91.5426 110.309 Q93.8574 110.887 96.3806 110.887 Q100.779 110.887 103.07 109.151 Q105.385 107.415 105.385 104.105 Q105.385 101.049 103.232 99.3364 Q101.103 97.6003 97.2834 97.6003 L93.2556 97.6003 L93.2556 93.7577 L97.4685 93.7577 Q100.918 93.7577 102.746 92.392 Q104.575 91.0031 104.575 88.4105 Q104.575 85.7485 102.677 84.3365 Q100.802 82.9013 97.2834 82.9013 Q95.3621 82.9013 93.163 83.318 Q90.9639 83.7346 88.3251 84.6143 L88.3251 80.4476 Q90.9871 79.7069 93.3019 79.3365 Q95.6398 78.9661 97.7 78.9661 Q103.024 78.9661 106.126 81.3967 Q109.228 83.8041 109.228 87.9244 Q109.228 90.7948 107.584 92.7855 Q105.941 94.7531 102.908 95.517 Z" fill="#000000" fill-rule="evenodd" fill-opacity="1" /><polyline clip-path="url(#clip272)" style="stroke:#009af9; stroke-linecap:butt; stroke-linejoin:round; stroke-width:4; stroke-opacity:1; fill:none" points="
  220.841,924.012 224.665,898.639 228.489,873.29 232.313,847.989 236.137,822.759 253.816,707.725 271.496,597.036 280.335,544.02 289.175,492.914 298.015,443.975 
  306.854,397.451 315.694,353.573 324.533,312.563 333.373,274.628 342.213,239.957 351.052,208.726 359.892,181.091 368.732,157.191 377.571,137.146 382.884,126.997 
  388.196,118.296 393.508,111.059 398.82,105.298 404.133,101.023 409.445,98.2439 414.757,96.9642 420.069,97.1866 425.382,98.9107 430.694,102.133 436.006,106.849 
  441.318,113.048 446.631,120.721 451.943,129.852 457.255,140.426 462.568,152.423 471.55,175.885 480.533,203.232 489.516,234.32 498.499,268.99 507.482,307.06 
  516.465,348.333 525.448,392.595 534.431,439.616 544.189,493.536 553.947,550.092 563.705,608.94 573.463,669.717 592.978,795.563 612.494,924.552 630.486,1043.53 
  648.478,1160.02 657.474,1216.57 666.47,1271.6 675.466,1324.82 684.462,1375.96 694.107,1428.15 703.751,1477.34 713.396,1523.21 723.04,1565.49 732.685,1603.94 
  742.33,1638.31 751.974,1668.41 761.619,1694.06 767.206,1706.82 772.793,1718 778.38,1727.59 783.967,1735.57 789.555,1741.92 795.142,1746.62 800.729,1749.67 
  806.316,1751.06 811.903,1750.79 817.49,1748.86 823.077,1745.27 828.664,1740.03 834.252,1733.15 839.839,1724.65 845.426,1714.53 851.013,1702.83 855.978,1691.12 
  860.943,1678.19 865.908,1664.07 870.874,1648.77 875.839,1632.32 880.804,1614.74 885.769,1596.07 890.734,1576.34 900.665,1533.79 910.595,1487.38 920.525,1437.39 
  930.456,1384.15 939.164,1335.05 947.872,1283.94 956.58,1231.07 965.288,1176.71 982.704,1064.55 1000.12,949.657 1019.11,823.898 1038.1,700.459 1047.59,640.506 
  1057.08,582.198 1066.58,525.871 1076.07,471.854 1085.62,420.162 1095.17,371.426 1104.72,325.933 1114.27,283.951 1123.82,245.724 1133.38,211.477 1142.93,181.412 
  1152.48,155.705 1157.76,143.42 1163.04,132.536 1168.32,123.072 1173.6,115.044 1178.87,108.468 1184.15,103.355 1189.43,99.714 1194.71,97.5519 1199.99,96.8724 
  1205.27,97.6769 1210.55,99.9638 1215.83,103.729 1221.11,108.966 1226.39,115.665 1231.67,123.814 1236.95,133.399 1241.97,143.836 1247,155.539 1252.02,168.491 
  1257.04,182.67 1262.07,198.053 1267.09,214.615 1272.12,232.33 1277.14,251.167 1287.19,292.089 1297.23,337.114 1302.26,361.075 1307.28,385.95 1312.3,411.699 
  1317.33,438.28 1327.77,496.032 1338.22,556.787 1348.67,620.121 1359.11,685.589 1380,821.074 1400.9,959.444 1418.49,1075.31 1436.07,1188.17 1444.87,1242.77 
  1453.66,1295.78 1462.45,1346.94 1471.25,1396 1476.62,1424.81 1481.98,1452.69 1487.35,1479.58 1492.72,1505.45 1498.09,1530.24 1503.46,1553.91 1508.82,1576.4 
  1514.19,1597.69 1519.56,1617.73 1524.93,1636.48 1530.3,1653.91 1535.66,1669.99 1541.03,1684.68 1546.4,1697.96 1551.77,1709.81 1557.14,1720.2 1562.05,1728.42 
  1566.97,1735.39 1571.89,1741.1 1576.81,1745.53 1581.72,1748.69 1586.64,1750.56 1591.56,1751.15 1596.48,1750.45 1601.39,1748.46 1606.31,1745.2 1611.23,1740.65 
  1616.15,1734.83 1621.06,1727.75 1625.98,1719.42 1630.9,1709.85 1635.82,1699.06 1644.9,1675.96 1653.98,1648.88 1663.07,1617.95 1672.15,1583.33 1681.23,1545.21 
  1690.32,1503.8 1699.4,1459.31 1708.48,1411.97 1717.68,1361.39 1726.88,1308.42 1736.09,1253.35 1745.29,1196.5 1763.69,1078.65 1782.09,957.432 1802.72,820.847 
  1823.34,687.081 1833.65,622.402 1843.96,559.786 1854.27,499.662 1864.59,442.441 1873.93,393.425 1883.28,347.389 1892.62,304.592 1901.96,265.276 1911.31,229.659 
  1920.65,197.944 1930,170.307 1939.34,146.905 1944.69,135.465 1950.04,125.477 1955.39,116.96 1960.74,109.93 1966.09,104.398 1971.44,100.376 1976.79,97.8711 
  1982.13,96.8873 1987.48,97.4268 1992.83,99.4885 1998.18,103.069 2003.53,108.161 2008.88,114.755 2014.23,122.84 2019.58,132.4 2024.93,143.418 2029.88,154.902 
  2034.83,167.6 2039.79,181.493 2044.74,196.558 2049.69,212.771 2054.65,230.108 2059.6,248.54 2064.55,268.038 2074.46,310.11 2084.36,356.057 2094.27,405.589 
  2104.18,458.395 2113.94,513.334 2123.71,570.793 2133.47,630.419 2143.24,691.847 2162.77,818.59 2182.3,947.917 2201.27,1072.95 2220.23,1194.55 2229.71,1253.17 
  2239.2,1309.89 2248.68,1364.38 2258.16,1416.32 2267.88,1466.6 2277.6,1513.59 2287.32,1557 2297.04,1596.55 2301.9,1614.81 2306.76,1632.02 2311.62,1648.15 
  2316.48,1663.19 2321.34,1677.09 2326.2,1689.86 2331.06,1701.46 2335.92,1711.87 2341.25,1721.91 2346.57,1730.49 2351.9,1737.6 2357.22,1743.23 2362.55,1747.36 
  2367.87,1749.99 2373.2,1751.11 2378.52,1750.72 2383.85,1748.82 2389.17,1745.42 2394.5,1740.52 2399.82,1734.13 2405.14,1726.26 2410.47,1716.92 2415.79,1706.14 
  2421.12,1693.93 2428.85,1673.7 2436.59,1650.59 2444.32,1624.67 2452.06,1596.06 2459.8,1564.86 2467.53,1531.2 2475.27,1495.19 2483,1456.99 2490.74,1416.73 
  2498.47,1374.58 2506.21,1330.69 2513.94,1285.24 2529.41,1190.34 2544.88,1091.34 2551.23,1049.89 2557.58,1008.11 2563.93,966.117 2570.27,924.012 
  "/>
<path clip-path="url(#clip270)" d="
M2228.6 209.375 L2557.74 209.375 L2557.74 105.695 L2228.6 105.695  Z
  " fill="#ffffff" fill-rule="evenodd" fill-opacity="1"/>
<polyline clip-path="url(#clip270)" style="stroke:#000000; stroke-linecap:butt; stroke-linejoin:round; stroke-width:4; stroke-opacity:1; fill:none" points="
  2228.6,209.375 2557.74,209.375 2557.74,105.695 2228.6,105.695 2228.6,209.375 
  "/>
<polyline clip-path="url(#clip270)" style="stroke:#009af9; stroke-linecap:butt; stroke-linejoin:round; stroke-width:4; stroke-opacity:1; fill:none" points="
  2256.27,157.535 2422.3,157.535 
  "/>
<path clip-path="url(#clip270)" d="M2463.81 177.223 Q2462.01 181.852 2460.29 183.264 Q2458.58 184.676 2455.71 184.676 L2452.31 184.676 L2452.31 181.112 L2454.81 181.112 Q2456.57 181.112 2457.54 180.278 Q2458.51 179.445 2459.69 176.343 L2460.46 174.399 L2449.97 148.889 L2454.48 148.889 L2462.59 169.167 L2470.69 148.889 L2475.2 148.889 L2463.81 177.223 Z" fill="#000000" fill-rule="evenodd" fill-opacity="1" /><path clip-path="url(#clip270)" d="M2482.49 170.88 L2490.13 170.88 L2490.13 144.515 L2481.82 146.181 L2481.82 141.922 L2490.09 140.255 L2494.76 140.255 L2494.76 170.88 L2502.4 170.88 L2502.4 174.815 L2482.49 174.815 L2482.49 170.88 Z" fill="#000000" fill-rule="evenodd" fill-opacity="1" /></svg>
