<?xml version="1.0" encoding="utf-8"?>
<svg xmlns="http://www.w3.org/2000/svg" xmlns:xlink="http://www.w3.org/1999/xlink" width="672" height="480" viewBox="0 0 2688 1920">
<defs>
  <clipPath id="clip490">
    <rect x="0" y="0" width="2688" height="1920"/>
  </clipPath>
</defs>
<path clip-path="url(#clip490)" d="
M0 1920 L2688 1920 L2688 0 L0 0  Z
  " fill="#ffffff" fill-rule="evenodd" fill-opacity="1"/>
<defs>
  <clipPath id="clip491">
    <rect x="537" y="0" width="1883" height="1883"/>
  </clipPath>
</defs>
<path clip-path="url(#clip490)" d="
M181.747 1800.78 L2640.76 1800.78 L2640.76 47.2441 L181.747 47.2441  Z
  " fill="#ffffff" fill-rule="evenodd" fill-opacity="1"/>
<defs>
  <clipPath id="clip492">
    <rect x="181" y="47" width="2460" height="1755"/>
  </clipPath>
</defs>
<polyline clip-path="url(#clip492)" style="stroke:#000000; stroke-linecap:round; stroke-linejoin:round; stroke-width:2; stroke-opacity:0.1; fill:none" points="
  251.341,1800.78 251.341,47.2441 
  "/>
<polyline clip-path="url(#clip492)" style="stroke:#000000; stroke-linecap:round; stroke-linejoin:round; stroke-width:2; stroke-opacity:0.1; fill:none" points="
  831.296,1800.78 831.296,47.2441 
  "/>
<polyline clip-path="url(#clip492)" style="stroke:#000000; stroke-linecap:round; stroke-linejoin:round; stroke-width:2; stroke-opacity:0.1; fill:none" points="
  1411.25,1800.78 1411.25,47.2441 
  "/>
<polyline clip-path="url(#clip492)" style="stroke:#000000; stroke-linecap:round; stroke-linejoin:round; stroke-width:2; stroke-opacity:0.1; fill:none" points="
  1991.21,1800.78 1991.21,47.2441 
  "/>
<polyline clip-path="url(#clip492)" style="stroke:#000000; stroke-linecap:round; stroke-linejoin:round; stroke-width:2; stroke-opacity:0.1; fill:none" points="
  2571.16,1800.78 2571.16,47.2441 
  "/>
<polyline clip-path="url(#clip490)" style="stroke:#000000; stroke-linecap:round; stroke-linejoin:round; stroke-width:4; stroke-opacity:1; fill:none" points="
  181.747,1800.78 2640.76,1800.78 
  "/>
<polyline clip-path="url(#clip490)" style="stroke:#000000; stroke-linecap:round; stroke-linejoin:round; stroke-width:4; stroke-opacity:1; fill:none" points="
  251.341,1800.78 251.341,1781.88 
  "/>
<polyline clip-path="url(#clip490)" style="stroke:#000000; stroke-linecap:round; stroke-linejoin:round; stroke-width:4; stroke-opacity:1; fill:none" points="
  831.296,1800.78 831.296,1781.88 
  "/>
<polyline clip-path="url(#clip490)" style="stroke:#000000; stroke-linecap:round; stroke-linejoin:round; stroke-width:4; stroke-opacity:1; fill:none" points="
  1411.25,1800.78 1411.25,1781.88 
  "/>
<polyline clip-path="url(#clip490)" style="stroke:#000000; stroke-linecap:round; stroke-linejoin:round; stroke-width:4; stroke-opacity:1; fill:none" points="
  1991.21,1800.78 1991.21,1781.88 
  "/>
<polyline clip-path="url(#clip490)" style="stroke:#000000; stroke-linecap:round; stroke-linejoin:round; stroke-width:4; stroke-opacity:1; fill:none" points="
  2571.16,1800.78 2571.16,1781.88 
  "/>
<path clip-path="url(#clip490)" d="M205.404 1848.65 L235.08 1848.65 L235.08 1852.59 L205.404 1852.59 L205.404 1848.65 Z" fill="#000000" fill-rule="evenodd" fill-opacity="1" /><path clip-path="url(#clip490)" d="M245.982 1861.55 L253.621 1861.55 L253.621 1835.18 L245.311 1836.85 L245.311 1832.59 L253.575 1830.92 L258.251 1830.92 L258.251 1861.55 L265.89 1861.55 L265.89 1865.48 L245.982 1865.48 L245.982 1861.55 Z" fill="#000000" fill-rule="evenodd" fill-opacity="1" /><path clip-path="url(#clip490)" d="M285.334 1834 Q281.723 1834 279.894 1837.57 Q278.089 1841.11 278.089 1848.24 Q278.089 1855.34 279.894 1858.91 Q281.723 1862.45 285.334 1862.45 Q288.968 1862.45 290.774 1858.91 Q292.603 1855.34 292.603 1848.24 Q292.603 1841.11 290.774 1837.57 Q288.968 1834 285.334 1834 M285.334 1830.3 Q291.144 1830.3 294.2 1834.9 Q297.278 1839.49 297.278 1848.24 Q297.278 1856.96 294.2 1861.57 Q291.144 1866.15 285.334 1866.15 Q279.524 1866.15 276.445 1861.57 Q273.39 1856.96 273.39 1848.24 Q273.39 1839.49 276.445 1834.9 Q279.524 1830.3 285.334 1830.3 Z" fill="#000000" fill-rule="evenodd" fill-opacity="1" /><path clip-path="url(#clip490)" d="M800.938 1848.65 L830.613 1848.65 L830.613 1852.59 L800.938 1852.59 L800.938 1848.65 Z" fill="#000000" fill-rule="evenodd" fill-opacity="1" /><path clip-path="url(#clip490)" d="M840.752 1830.92 L859.109 1830.92 L859.109 1834.86 L845.035 1834.86 L845.035 1843.33 Q846.053 1842.98 847.072 1842.82 Q848.09 1842.64 849.109 1842.64 Q854.896 1842.64 858.275 1845.81 Q861.655 1848.98 861.655 1854.4 Q861.655 1859.97 858.183 1863.08 Q854.71 1866.15 848.391 1866.15 Q846.215 1866.15 843.947 1865.78 Q841.701 1865.41 839.294 1864.67 L839.294 1859.97 Q841.377 1861.11 843.599 1861.66 Q845.822 1862.22 848.298 1862.22 Q852.303 1862.22 854.641 1860.11 Q856.979 1858.01 856.979 1854.4 Q856.979 1850.78 854.641 1848.68 Q852.303 1846.57 848.298 1846.57 Q846.423 1846.57 844.548 1846.99 Q842.697 1847.4 840.752 1848.28 L840.752 1830.92 Z" fill="#000000" fill-rule="evenodd" fill-opacity="1" /><path clip-path="url(#clip490)" d="M1411.25 1834 Q1407.64 1834 1405.81 1837.57 Q1404.01 1841.11 1404.01 1848.24 Q1404.01 1855.34 1405.81 1858.91 Q1407.64 1862.45 1411.25 1862.45 Q1414.89 1862.45 1416.69 1858.91 Q1418.52 1855.34 1418.52 1848.24 Q1418.52 1841.11 1416.69 1837.57 Q1414.89 1834 1411.25 1834 M1411.25 1830.3 Q1417.06 1830.3 1420.12 1834.9 Q1423.2 1839.49 1423.2 1848.24 Q1423.2 1856.96 1420.12 1861.57 Q1417.06 1866.15 1411.25 1866.15 Q1405.44 1866.15 1402.36 1861.57 Q1399.31 1856.96 1399.31 1848.24 Q1399.31 1839.49 1402.36 1834.9 Q1405.44 1830.3 1411.25 1830.3 Z" fill="#000000" fill-rule="evenodd" fill-opacity="1" /><path clip-path="url(#clip490)" d="M1981.48 1830.92 L1999.84 1830.92 L1999.84 1834.86 L1985.77 1834.86 L1985.77 1843.33 Q1986.79 1842.98 1987.8 1842.82 Q1988.82 1842.64 1989.84 1842.64 Q1995.63 1842.64 1999.01 1845.81 Q2002.39 1848.98 2002.39 1854.4 Q2002.39 1859.97 1998.91 1863.08 Q1995.44 1866.15 1989.12 1866.15 Q1986.95 1866.15 1984.68 1865.78 Q1982.43 1865.41 1980.03 1864.67 L1980.03 1859.97 Q1982.11 1861.11 1984.33 1861.66 Q1986.55 1862.22 1989.03 1862.22 Q1993.03 1862.22 1995.37 1860.11 Q1997.71 1858.01 1997.71 1854.4 Q1997.71 1850.78 1995.37 1848.68 Q1993.03 1846.57 1989.03 1846.57 Q1987.16 1846.57 1985.28 1846.99 Q1983.43 1847.4 1981.48 1848.28 L1981.48 1830.92 Z" fill="#000000" fill-rule="evenodd" fill-opacity="1" /><path clip-path="url(#clip490)" d="M2545.85 1861.55 L2553.49 1861.55 L2553.49 1835.18 L2545.18 1836.85 L2545.18 1832.59 L2553.44 1830.92 L2558.12 1830.92 L2558.12 1861.55 L2565.76 1861.55 L2565.76 1865.48 L2545.85 1865.48 L2545.85 1861.55 Z" fill="#000000" fill-rule="evenodd" fill-opacity="1" /><path clip-path="url(#clip490)" d="M2585.2 1834 Q2581.59 1834 2579.76 1837.57 Q2577.96 1841.11 2577.96 1848.24 Q2577.96 1855.34 2579.76 1858.91 Q2581.59 1862.45 2585.2 1862.45 Q2588.83 1862.45 2590.64 1858.91 Q2592.47 1855.34 2592.47 1848.24 Q2592.47 1841.11 2590.64 1837.57 Q2588.83 1834 2585.2 1834 M2585.2 1830.3 Q2591.01 1830.3 2594.07 1834.9 Q2597.14 1839.49 2597.14 1848.24 Q2597.14 1856.96 2594.07 1861.57 Q2591.01 1866.15 2585.2 1866.15 Q2579.39 1866.15 2576.31 1861.57 Q2573.26 1856.96 2573.26 1848.24 Q2573.26 1839.49 2576.31 1834.9 Q2579.39 1830.3 2585.2 1830.3 Z" fill="#000000" fill-rule="evenodd" fill-opacity="1" /><polyline clip-path="url(#clip492)" style="stroke:#000000; stroke-linecap:round; stroke-linejoin:round; stroke-width:2; stroke-opacity:0.1; fill:none" points="
  181.747,1757.24 2640.76,1757.24 
  "/>
<polyline clip-path="url(#clip492)" style="stroke:#000000; stroke-linecap:round; stroke-linejoin:round; stroke-width:2; stroke-opacity:0.1; fill:none" points="
  181.747,1341.81 2640.76,1341.81 
  "/>
<polyline clip-path="url(#clip492)" style="stroke:#000000; stroke-linecap:round; stroke-linejoin:round; stroke-width:2; stroke-opacity:0.1; fill:none" points="
  181.747,926.39 2640.76,926.39 
  "/>
<polyline clip-path="url(#clip492)" style="stroke:#000000; stroke-linecap:round; stroke-linejoin:round; stroke-width:2; stroke-opacity:0.1; fill:none" points="
  181.747,510.965 2640.76,510.965 
  "/>
<polyline clip-path="url(#clip492)" style="stroke:#000000; stroke-linecap:round; stroke-linejoin:round; stroke-width:2; stroke-opacity:0.1; fill:none" points="
  181.747,95.5395 2640.76,95.5395 
  "/>
<polyline clip-path="url(#clip490)" style="stroke:#000000; stroke-linecap:round; stroke-linejoin:round; stroke-width:4; stroke-opacity:1; fill:none" points="
  181.747,1800.78 181.747,47.2441 
  "/>
<polyline clip-path="url(#clip490)" style="stroke:#000000; stroke-linecap:round; stroke-linejoin:round; stroke-width:4; stroke-opacity:1; fill:none" points="
  181.747,1757.24 200.644,1757.24 
  "/>
<polyline clip-path="url(#clip490)" style="stroke:#000000; stroke-linecap:round; stroke-linejoin:round; stroke-width:4; stroke-opacity:1; fill:none" points="
  181.747,1341.81 200.644,1341.81 
  "/>
<polyline clip-path="url(#clip490)" style="stroke:#000000; stroke-linecap:round; stroke-linejoin:round; stroke-width:4; stroke-opacity:1; fill:none" points="
  181.747,926.39 200.644,926.39 
  "/>
<polyline clip-path="url(#clip490)" style="stroke:#000000; stroke-linecap:round; stroke-linejoin:round; stroke-width:4; stroke-opacity:1; fill:none" points="
  181.747,510.965 200.644,510.965 
  "/>
<polyline clip-path="url(#clip490)" style="stroke:#000000; stroke-linecap:round; stroke-linejoin:round; stroke-width:4; stroke-opacity:1; fill:none" points="
  181.747,95.5395 200.644,95.5395 
  "/>
<path clip-path="url(#clip490)" d="M49.5521 1757.69 L79.2279 1757.69 L79.2279 1761.63 L49.5521 1761.63 L49.5521 1757.69 Z" fill="#000000" fill-rule="evenodd" fill-opacity="1" /><path clip-path="url(#clip490)" d="M93.3482 1770.58 L109.668 1770.58 L109.668 1774.52 L87.7232 1774.52 L87.7232 1770.58 Q90.3852 1767.83 94.9685 1763.2 Q99.575 1758.55 100.756 1757.21 Q103.001 1754.68 103.881 1752.95 Q104.783 1751.19 104.783 1749.5 Q104.783 1746.74 102.839 1745.01 Q100.918 1743.27 97.8158 1743.27 Q95.6167 1743.27 93.163 1744.03 Q90.7325 1744.8 87.9547 1746.35 L87.9547 1741.63 Q90.7788 1740.49 93.2324 1739.91 Q95.6861 1739.33 97.7232 1739.33 Q103.094 1739.33 106.288 1742.02 Q109.482 1744.71 109.482 1749.2 Q109.482 1751.33 108.672 1753.25 Q107.885 1755.14 105.779 1757.74 Q105.2 1758.41 102.098 1761.63 Q98.9963 1764.82 93.3482 1770.58 Z" fill="#000000" fill-rule="evenodd" fill-opacity="1" /><path clip-path="url(#clip490)" d="M129.482 1743.04 Q125.871 1743.04 124.042 1746.6 Q122.237 1750.14 122.237 1757.27 Q122.237 1764.38 124.042 1767.95 Q125.871 1771.49 129.482 1771.49 Q133.116 1771.49 134.922 1767.95 Q136.751 1764.38 136.751 1757.27 Q136.751 1750.14 134.922 1746.6 Q133.116 1743.04 129.482 1743.04 M129.482 1739.33 Q135.292 1739.33 138.348 1743.94 Q141.427 1748.52 141.427 1757.27 Q141.427 1766 138.348 1770.61 Q135.292 1775.19 129.482 1775.19 Q123.672 1775.19 120.593 1770.61 Q117.538 1766 117.538 1757.27 Q117.538 1748.52 120.593 1743.94 Q123.672 1739.33 129.482 1739.33 Z" fill="#000000" fill-rule="evenodd" fill-opacity="1" /><path clip-path="url(#clip490)" d="M49.5521 1342.27 L79.2279 1342.27 L79.2279 1346.2 L49.5521 1346.2 L49.5521 1342.27 Z" fill="#000000" fill-rule="evenodd" fill-opacity="1" /><path clip-path="url(#clip490)" d="M90.1306 1355.16 L97.7695 1355.16 L97.7695 1328.79 L89.4593 1330.46 L89.4593 1326.2 L97.7232 1324.53 L102.399 1324.53 L102.399 1355.16 L110.038 1355.16 L110.038 1359.09 L90.1306 1359.09 L90.1306 1355.16 Z" fill="#000000" fill-rule="evenodd" fill-opacity="1" /><path clip-path="url(#clip490)" d="M129.482 1327.61 Q125.871 1327.61 124.042 1331.18 Q122.237 1334.72 122.237 1341.85 Q122.237 1348.96 124.042 1352.52 Q125.871 1356.06 129.482 1356.06 Q133.116 1356.06 134.922 1352.52 Q136.751 1348.96 136.751 1341.85 Q136.751 1334.72 134.922 1331.18 Q133.116 1327.61 129.482 1327.61 M129.482 1323.91 Q135.292 1323.91 138.348 1328.52 Q141.427 1333.1 141.427 1341.85 Q141.427 1350.58 138.348 1355.18 Q135.292 1359.77 129.482 1359.77 Q123.672 1359.77 120.593 1355.18 Q117.538 1350.58 117.538 1341.85 Q117.538 1333.1 120.593 1328.52 Q123.672 1323.91 129.482 1323.91 Z" fill="#000000" fill-rule="evenodd" fill-opacity="1" /><path clip-path="url(#clip490)" d="M129.482 912.188 Q125.871 912.188 124.042 915.753 Q122.237 919.295 122.237 926.424 Q122.237 933.531 124.042 937.096 Q125.871 940.637 129.482 940.637 Q133.116 940.637 134.922 937.096 Q136.751 933.531 136.751 926.424 Q136.751 919.295 134.922 915.753 Q133.116 912.188 129.482 912.188 M129.482 908.485 Q135.292 908.485 138.348 913.091 Q141.427 917.674 141.427 926.424 Q141.427 935.151 138.348 939.758 Q135.292 944.341 129.482 944.341 Q123.672 944.341 120.593 939.758 Q117.538 935.151 117.538 926.424 Q117.538 917.674 120.593 913.091 Q123.672 908.485 129.482 908.485 Z" fill="#000000" fill-rule="evenodd" fill-opacity="1" /><path clip-path="url(#clip490)" d="M90.1306 524.309 L97.7695 524.309 L97.7695 497.944 L89.4593 499.61 L89.4593 495.351 L97.7232 493.685 L102.399 493.685 L102.399 524.309 L110.038 524.309 L110.038 528.245 L90.1306 528.245 L90.1306 524.309 Z" fill="#000000" fill-rule="evenodd" fill-opacity="1" /><path clip-path="url(#clip490)" d="M129.482 496.763 Q125.871 496.763 124.042 500.328 Q122.237 503.87 122.237 510.999 Q122.237 518.106 124.042 521.671 Q125.871 525.212 129.482 525.212 Q133.116 525.212 134.922 521.671 Q136.751 518.106 136.751 510.999 Q136.751 503.87 134.922 500.328 Q133.116 496.763 129.482 496.763 M129.482 493.06 Q135.292 493.06 138.348 497.666 Q141.427 502.249 141.427 510.999 Q141.427 519.726 138.348 524.333 Q135.292 528.916 129.482 528.916 Q123.672 528.916 120.593 524.333 Q117.538 519.726 117.538 510.999 Q117.538 502.249 120.593 497.666 Q123.672 493.06 129.482 493.06 Z" fill="#000000" fill-rule="evenodd" fill-opacity="1" /><path clip-path="url(#clip490)" d="M93.3482 108.884 L109.668 108.884 L109.668 112.819 L87.7232 112.819 L87.7232 108.884 Q90.3852 106.13 94.9685 101.5 Q99.575 96.8473 100.756 95.5047 Q103.001 92.9816 103.881 91.2455 Q104.783 89.4862 104.783 87.7964 Q104.783 85.0418 102.839 83.3057 Q100.918 81.5696 97.8158 81.5696 Q95.6167 81.5696 93.163 82.3335 Q90.7325 83.0974 87.9547 84.6483 L87.9547 79.9261 Q90.7788 78.7919 93.2324 78.2132 Q95.6861 77.6345 97.7232 77.6345 Q103.094 77.6345 106.288 80.3196 Q109.482 83.0048 109.482 87.4955 Q109.482 89.6251 108.672 91.5464 Q107.885 93.4446 105.779 96.0371 Q105.2 96.7084 102.098 99.926 Q98.9963 103.12 93.3482 108.884 Z" fill="#000000" fill-rule="evenodd" fill-opacity="1" /><path clip-path="url(#clip490)" d="M129.482 81.3381 Q125.871 81.3381 124.042 84.9029 Q122.237 88.4446 122.237 95.5742 Q122.237 102.681 124.042 106.245 Q125.871 109.787 129.482 109.787 Q133.116 109.787 134.922 106.245 Q136.751 102.681 136.751 95.5742 Q136.751 88.4446 134.922 84.9029 Q133.116 81.3381 129.482 81.3381 M129.482 77.6345 Q135.292 77.6345 138.348 82.2409 Q141.427 86.8242 141.427 95.5742 Q141.427 104.301 138.348 108.907 Q135.292 113.491 129.482 113.491 Q123.672 113.491 120.593 108.907 Q117.538 104.301 117.538 95.5742 Q117.538 86.8242 120.593 82.2409 Q123.672 77.6345 129.482 77.6345 Z" fill="#000000" fill-rule="evenodd" fill-opacity="1" /><polyline clip-path="url(#clip492)" style="stroke:#009af9; stroke-linecap:round; stroke-linejoin:round; stroke-width:4; stroke-opacity:1; fill:none" points="
  251.341,953.324 255.117,951.442 258.893,949.633 262.669,947.889 266.445,946.202 301.357,932.414 336.27,919.814 353.727,913.198 371.183,905.912 388.64,897.449 
  406.096,886.986 416.587,879.156 427.078,869.525 432.323,863.765 437.568,857.163 442.813,849.484 448.059,840.4 450.681,835.192 453.304,829.439 455.927,823.045 
  458.549,815.889 461.172,807.817 463.795,798.631 465.106,793.543 466.417,788.072 467.073,785.18 467.729,782.174 468.384,779.048 469.04,775.793 471.663,761.321 
  474.285,743.992 475.597,733.971 476.908,722.842 478.219,710.407 479.531,696.42 480.842,680.565 482.153,662.436 483.465,641.502 484.776,617.048 485.432,603.209 
  486.087,588.098 486.743,571.528 487.399,553.277 488.054,533.073 488.71,510.585 489.366,485.399 490.021,456.998 492.239,326.638 494.456,96.8724 
  "/>
<polyline clip-path="url(#clip492)" style="stroke:#009af9; stroke-linecap:round; stroke-linejoin:round; stroke-width:4; stroke-opacity:1; fill:none" points="
  506.097,1751.15 506.652,1679.49 507.206,1619.26 507.761,1567.93 508.315,1523.65 508.869,1485.06 509.424,1451.13 509.978,1421.07 510.532,1394.25 511.087,1370.16 
  511.641,1348.42 512.195,1328.69 512.75,1310.7 513.304,1294.24 513.858,1279.11 514.413,1265.17 515.522,1240.3 516.63,1218.78 517.739,1199.98 518.848,1183.4 
  519.956,1168.68 521.065,1155.51 523.282,1132.93 525.5,1114.28 526.054,1110.11 526.609,1106.11 527.163,1102.28 527.717,1098.59 528.826,1091.65 529.935,1085.21 
  532.152,1073.65 534.37,1063.56 536.587,1054.67 538.804,1046.77 541.022,1039.7 543.239,1033.32 547.674,1022.29 552.109,1013.05 554.326,1008.96 556.544,1005.17 
  558.761,1001.65 560.979,998.364 570.614,986.268 580.249,976.764 589.884,969.003 599.518,962.463 618.788,951.798 638.058,943.117 673.589,929.573 709.119,916.669 
  728.165,909.116 747.211,900.445 756.734,895.436 766.257,889.773 775.78,883.224 785.303,875.45 790.82,870.192 796.337,864.212 801.854,857.313 807.37,849.229 
  812.887,839.577 818.404,827.793 821.162,820.846 823.92,813.007 825.299,808.693 826.679,804.078 828.058,799.129 829.437,793.805 832.195,781.845 834.954,767.726 
  837.712,750.785 840.47,730.057 841.85,717.844 843.229,704.079 844.608,688.444 845.987,670.523 847.366,649.77 848.745,625.448 849.435,611.646 850.125,596.541 
  850.814,579.94 851.504,561.607 852.193,541.254 852.883,518.526 853.573,492.981 854.262,464.057 854.952,431.035 855.641,392.973 856.331,348.62 857.021,296.271 
  857.71,233.545 858.4,157.01 
  "/>
<polyline clip-path="url(#clip492)" style="stroke:#009af9; stroke-linecap:round; stroke-linejoin:round; stroke-width:4; stroke-opacity:1; fill:none" points="
  870.812,1708.43 872.191,1564.99 873.571,1465.88 874.183,1431.04 874.796,1400.39 875.409,1373.24 876.022,1349 876.635,1327.24 877.248,1307.58 877.86,1289.75 
  878.473,1273.49 879.086,1258.6 879.699,1244.92 880.312,1232.31 880.925,1220.64 882.15,1199.74 883.376,1181.56 884.601,1165.6 885.827,1151.46 887.053,1138.86 
  888.278,1127.55 890.73,1108.08 893.181,1091.9 893.794,1088.27 894.407,1084.79 895.019,1081.45 895.632,1078.23 896.858,1072.16 898.084,1066.53 900.535,1056.38 
  902.986,1047.49 905.437,1039.64 907.889,1032.64 910.34,1026.36 912.791,1020.68 917.694,1010.82 922.597,1002.52 927.499,995.413 932.402,989.239 937.304,983.809 
  942.207,978.978 947.11,974.638 952.012,970.704 969.209,959.262 986.405,950.239 1003.6,942.641 1020.8,935.882 1058.3,922.279 1095.79,907.742 1114.65,898.903 
  1133.51,887.912 1142.94,881.109 1152.37,872.981 1157.09,868.252 1161.8,862.951 1166.52,856.948 1171.23,850.07 1176.45,841.159 1181.66,830.437 1186.87,817.23 
  1192.09,800.482 1194.69,790.276 1197.3,778.448 1199.91,764.561 1202.51,748.009 1203.82,738.476 1205.12,727.922 1206.42,716.17 1207.73,703.001 1209.03,688.138 
  1210.33,671.228 1211.64,651.811 1212.94,629.278 1213.59,616.597 1214.24,602.807 1214.89,587.755 1215.55,571.258 1216.2,553.097 1216.85,533.004 1217.5,510.654 
  1218.15,485.64 1218.8,457.456 1219.46,425.455 1220.11,388.803 1220.76,346.404 1221.41,296.787 1222.06,237.935 1222.71,166.999 
  "/>
<polyline clip-path="url(#clip492)" style="stroke:#009af9; stroke-linecap:round; stroke-linejoin:round; stroke-width:4; stroke-opacity:1; fill:none" points="
  1235.1,1723.16 1235.75,1645.45 1236.4,1581.51 1237.05,1527.98 1237.7,1482.5 1238.35,1443.38 1239.01,1409.38 1239.66,1379.55 1240.31,1353.16 1240.96,1329.65 
  1241.61,1308.58 1242.26,1289.57 1242.91,1272.35 1243.57,1256.66 1244.22,1242.32 1245.52,1217.02 1246.82,1195.4 1248.13,1176.72 1249.43,1160.41 1250.73,1146.04 
  1252.04,1133.28 1253.34,1121.87 1254.64,1111.61 1257.12,1094.68 1259.6,1080.44 1262.08,1068.3 1264.56,1057.81 1269.52,1040.58 1274.48,1026.97 1279.45,1015.92 
  1284.41,1006.73 1289.37,998.95 1294.33,992.25 1299.29,986.401 1304.25,981.234 1309.21,976.619 1314.17,972.458 1324.09,965.206 1334.01,959.029 1354.64,948.447 
  1375.27,939.708 1395.9,931.922 1416.52,924.5 1451.26,911.465 1485.99,895.179 1496.59,888.782 1507.19,881.228 1512.49,876.866 1517.79,872.002 1523.09,866.518 
  1528.39,860.26 1533.69,853.019 1538.99,844.506 1544.29,834.307 1549.59,821.806 1552.24,814.415 1554.89,806.054 1557.54,796.506 1560.19,785.49 1562.84,772.623 
  1565.49,757.377 1568.14,739.006 1570.79,716.413 1572.01,704.226 1573.22,690.594 1574.44,675.24 1575.65,657.812 1576.86,637.855 1578.08,614.769 1578.68,601.811 
  1579.29,587.749 1579.9,572.433 1580.51,555.689 1581.11,537.304 1581.72,517.024 1582.33,494.539 1582.93,469.466 1583.54,441.332 1584.15,409.536 1584.75,373.312 
  1585.36,331.663 1585.97,283.269 1586.57,226.343 1587.18,158.406 
  "/>
<polyline clip-path="url(#clip492)" style="stroke:#009af9; stroke-linecap:round; stroke-linejoin:round; stroke-width:4; stroke-opacity:1; fill:none" points="
  1599.32,1746.49 1599.93,1669.51 1600.53,1605.71 1601.14,1551.96 1601.75,1506.07 1602.35,1466.42 1602.96,1431.82 1603.57,1401.37 1604.18,1374.35 1604.78,1350.22 
  1605.39,1328.53 1606,1308.94 1606.6,1291.14 1607.21,1274.91 1608.42,1246.38 1609.64,1222.11 1610.24,1211.28 1610.85,1201.2 1611.46,1191.8 1612.07,1183 
  1613.28,1167.01 1614.49,1152.85 1615.71,1140.21 1616.92,1128.87 1618.14,1118.63 1619.35,1109.34 1621.78,1093.1 1624.2,1079.38 1626.63,1067.62 1629.06,1057.42 
  1633.92,1040.6 1638.77,1027.24 1643.63,1016.35 1648.48,1007.28 1652.97,1000.12 1657.45,993.878 1661.94,988.376 1666.42,983.474 1675.39,975.072 1684.36,968.069 
  1702.3,956.832 1720.23,947.899 1756.57,933.283 1792.91,920.16 1813.28,912.419 1833.64,903.696 1843.82,898.709 1854.01,893.1 1864.19,886.641 1874.37,878.994 
  1883.6,870.61 1892.82,860.215 1897.44,853.972 1902.05,846.798 1906.66,838.439 1911.28,828.543 1913.58,822.867 1915.89,816.599 1918.2,809.636 1920.5,801.848 
  1922.81,793.073 1925.11,783.101 1926.27,777.585 1927.42,771.661 1928,768.531 1928.57,765.281 1929.15,761.903 1929.73,758.389 1932.03,742.796 1934.34,724.198 
  1935.49,713.481 1936.65,701.614 1937.8,688.396 1938.95,673.582 1940.11,656.859 1941.26,637.83 1942.41,615.978 1943.57,590.617 1944.14,576.345 1944.72,560.824 
  1945.3,543.883 1945.87,525.317 1946.45,504.879 1947.03,482.269 1947.6,457.121 1948.18,428.98 1948.84,392.346 1949.5,349.927 1950.16,300.232 1950.82,241.21 
  1951.48,169.958 
  "/>
<polyline clip-path="url(#clip492)" style="stroke:#009af9; stroke-linecap:round; stroke-linejoin:round; stroke-width:4; stroke-opacity:1; fill:none" points="
  1964.03,1705.27 1966.67,1471.56 1969.31,1345.4 1969.97,1322.42 1970.63,1301.82 1971.29,1283.22 1971.95,1266.36 1972.61,1251.01 1973.27,1236.96 1973.93,1224.05 
  1974.59,1212.16 1975.91,1190.97 1977.23,1172.64 1978.55,1156.63 1979.87,1142.52 1981.19,1129.99 1982.51,1118.78 1983.83,1108.69 1985.15,1099.57 1987.79,1083.69 
  1990.44,1070.33 1991.76,1064.42 1993.08,1058.93 1994.4,1053.83 1995.72,1049.07 1998.36,1040.45 2001,1032.85 2006.28,1020.02 2011.56,1009.59 2016.84,1000.89 
  2022.13,993.515 2027.41,987.148 2032.69,981.577 2042.47,972.849 2052.25,965.628 2062.03,959.475 2071.81,954.098 2091.38,944.921 2110.94,937.038 2149.51,922.992 
  2188.08,908.129 2206.81,899.434 2225.53,888.684 2234.89,882.069 2244.26,874.205 2248.94,869.65 2253.62,864.562 2258.3,858.824 2262.98,852.279 2267.78,844.513 
  2272.58,835.367 2277.38,824.396 2282.18,810.943 2284.58,802.988 2286.98,793.992 2289.38,783.725 2291.78,771.888 2294.17,758.078 2296.57,741.74 2298.97,722.094 
  2301.37,697.996 2302.57,683.769 2303.77,667.713 2304.97,649.446 2306.17,628.474 2306.77,616.776 2307.37,604.14 2307.97,590.449 2308.57,575.562 2309.17,559.315 
  2309.77,541.512 2310.37,521.918 2310.97,500.245 2311.57,476.144 2312.17,449.181 2312.77,418.812 2313.37,384.347 2313.97,344.893 2314.57,299.281 2315.17,245.945 
  2315.77,182.736 2316.37,106.629 
  "/>
<polyline clip-path="url(#clip492)" style="stroke:#009af9; stroke-linecap:round; stroke-linejoin:round; stroke-width:4; stroke-opacity:1; fill:none" points="
  2328.37,1712.46 2328.97,1642.2 2329.57,1583.43 2330.17,1533.56 2330.77,1490.69 2331.37,1453.45 2331.97,1420.79 2332.57,1391.93 2333.17,1366.22 2333.77,1343.18 
  2334.37,1322.42 2334.97,1303.61 2335.57,1286.48 2336.16,1270.83 2336.76,1256.46 2337.36,1243.23 2338.56,1219.66 2339.76,1199.3 2341.08,1179.95 2342.39,1163.11 
  2343.71,1148.31 2345.02,1135.2 2346.34,1123.5 2347.65,1112.99 2348.97,1103.51 2350.28,1094.89 2352.91,1079.84 2355.54,1067.12 2358.17,1056.21 2360.79,1046.74 
  2366.05,1031.1 2371.31,1018.66 2376.57,1008.5 2381.83,1000.02 2384.45,996.27 2387.08,992.796 2389.71,989.565 2392.34,986.549 2397.6,981.073 2402.86,976.214 
  2408.11,971.856 2413.37,967.91 2418.63,964.307 2423.89,960.99 2454.44,945.497 2484.99,933.422 2515.54,922.402 2546.09,910.796 2552.36,908.18 2558.63,905.436 
  2564.89,902.538 2571.16,899.455 
  "/>
<path clip-path="url(#clip490)" d="
M2213.18 209.375 L2558.79 209.375 L2558.79 105.695 L2213.18 105.695  Z
  " fill="#ffffff" fill-rule="evenodd" fill-opacity="1"/>
<polyline clip-path="url(#clip490)" style="stroke:#000000; stroke-linecap:round; stroke-linejoin:round; stroke-width:4; stroke-opacity:1; fill:none" points="
  2213.18,209.375 2558.79,209.375 2558.79,105.695 2213.18,105.695 2213.18,209.375 
  "/>
<polyline clip-path="url(#clip490)" style="stroke:#009af9; stroke-linecap:round; stroke-linejoin:round; stroke-width:4; stroke-opacity:1; fill:none" points="
  2240.5,157.535 2404.44,157.535 
  "/>
<path clip-path="url(#clip490)" d="M2439.17 141.528 L2439.17 148.889 L2447.94 148.889 L2447.94 152.2 L2439.17 152.2 L2439.17 166.274 Q2439.17 169.445 2440.02 170.348 Q2440.9 171.25 2443.57 171.25 L2447.94 171.25 L2447.94 174.815 L2443.57 174.815 Q2438.64 174.815 2436.76 172.987 Q2434.89 171.135 2434.89 166.274 L2434.89 152.2 L2431.76 152.2 L2431.76 148.889 L2434.89 148.889 L2434.89 141.528 L2439.17 141.528 Z" fill="#000000" fill-rule="evenodd" fill-opacity="1" /><path clip-path="url(#clip490)" d="M2465.33 161.783 Q2460.16 161.783 2458.17 162.963 Q2456.18 164.144 2456.18 166.991 Q2456.18 169.26 2457.66 170.602 Q2459.17 171.922 2461.74 171.922 Q2465.28 171.922 2467.41 169.422 Q2469.56 166.899 2469.56 162.732 L2469.56 161.783 L2465.33 161.783 M2473.82 160.024 L2473.82 174.815 L2469.56 174.815 L2469.56 170.88 Q2468.1 173.241 2465.93 174.375 Q2463.75 175.487 2460.6 175.487 Q2456.62 175.487 2454.26 173.264 Q2451.92 171.019 2451.92 167.269 Q2451.92 162.894 2454.84 160.672 Q2457.78 158.45 2463.59 158.45 L2469.56 158.45 L2469.56 158.033 Q2469.56 155.093 2467.62 153.496 Q2465.7 151.876 2462.2 151.876 Q2459.98 151.876 2457.87 152.408 Q2455.76 152.94 2453.82 154.005 L2453.82 150.07 Q2456.16 149.167 2458.36 148.727 Q2460.56 148.264 2462.64 148.264 Q2468.26 148.264 2471.04 151.181 Q2473.82 154.098 2473.82 160.024 Z" fill="#000000" fill-rule="evenodd" fill-opacity="1" /><path clip-path="url(#clip490)" d="M2504.14 159.167 L2504.14 174.815 L2499.89 174.815 L2499.89 159.306 Q2499.89 155.626 2498.45 153.797 Q2497.01 151.968 2494.14 151.968 Q2490.7 151.968 2488.7 154.167 Q2486.71 156.366 2486.71 160.163 L2486.71 174.815 L2482.43 174.815 L2482.43 148.889 L2486.71 148.889 L2486.71 152.917 Q2488.24 150.579 2490.3 149.422 Q2492.39 148.264 2495.09 148.264 Q2499.56 148.264 2501.85 151.042 Q2504.14 153.797 2504.14 159.167 Z" fill="#000000" fill-rule="evenodd" fill-opacity="1" /></svg>
