<?xml version="1.0" encoding="utf-8"?>
<svg xmlns="http://www.w3.org/2000/svg" xmlns:xlink="http://www.w3.org/1999/xlink" width="672" height="480" viewBox="0 0 2688 1920">
<defs>
  <clipPath id="clip850">
    <rect x="0" y="0" width="2688" height="1920"/>
  </clipPath>
</defs>
<path clip-path="url(#clip850)" d="
M0 1920 L2688 1920 L2688 0 L0 0  Z
  " fill="#ffffff" fill-rule="evenodd" fill-opacity="1"/>
<defs>
  <clipPath id="clip851">
    <rect x="537" y="0" width="1883" height="1883"/>
  </clipPath>
</defs>
<path clip-path="url(#clip850)" d="
M159.131 1800.78 L2640.76 1800.78 L2640.76 47.2441 L159.131 47.2441  Z
  " fill="#ffffff" fill-rule="evenodd" fill-opacity="1"/>
<defs>
  <clipPath id="clip852">
    <rect x="159" y="47" width="2483" height="1755"/>
  </clipPath>
</defs>
<polyline clip-path="url(#clip852)" style="stroke:#000000; stroke-linecap:butt; stroke-linejoin:round; stroke-width:2; stroke-opacity:0.1; fill:none" points="
  229.366,1800.78 229.366,47.2441 
  "/>
<polyline clip-path="url(#clip852)" style="stroke:#000000; stroke-linecap:butt; stroke-linejoin:round; stroke-width:2; stroke-opacity:0.1; fill:none" points="
  974.579,1800.78 974.579,47.2441 
  "/>
<polyline clip-path="url(#clip852)" style="stroke:#000000; stroke-linecap:butt; stroke-linejoin:round; stroke-width:2; stroke-opacity:0.1; fill:none" points="
  1719.79,1800.78 1719.79,47.2441 
  "/>
<polyline clip-path="url(#clip852)" style="stroke:#000000; stroke-linecap:butt; stroke-linejoin:round; stroke-width:2; stroke-opacity:0.1; fill:none" points="
  2465,1800.78 2465,47.2441 
  "/>
<polyline clip-path="url(#clip850)" style="stroke:#000000; stroke-linecap:butt; stroke-linejoin:round; stroke-width:4; stroke-opacity:1; fill:none" points="
  159.131,1800.78 2640.76,1800.78 
  "/>
<polyline clip-path="url(#clip850)" style="stroke:#000000; stroke-linecap:butt; stroke-linejoin:round; stroke-width:4; stroke-opacity:1; fill:none" points="
  229.366,1800.78 229.366,1781.88 
  "/>
<polyline clip-path="url(#clip850)" style="stroke:#000000; stroke-linecap:butt; stroke-linejoin:round; stroke-width:4; stroke-opacity:1; fill:none" points="
  974.579,1800.78 974.579,1781.88 
  "/>
<polyline clip-path="url(#clip850)" style="stroke:#000000; stroke-linecap:butt; stroke-linejoin:round; stroke-width:4; stroke-opacity:1; fill:none" points="
  1719.79,1800.78 1719.79,1781.88 
  "/>
<polyline clip-path="url(#clip850)" style="stroke:#000000; stroke-linecap:butt; stroke-linejoin:round; stroke-width:4; stroke-opacity:1; fill:none" points="
  2465,1800.78 2465,1781.88 
  "/>
<path clip-path="url(#clip850)" d="M206.75 1834 Q203.139 1834 201.31 1837.57 Q199.505 1841.11 199.505 1848.24 Q199.505 1855.34 201.31 1858.91 Q203.139 1862.45 206.75 1862.45 Q210.384 1862.45 212.19 1858.91 Q214.019 1855.34 214.019 1848.24 Q214.019 1841.11 212.19 1837.57 Q210.384 1834 206.75 1834 M206.75 1830.3 Q212.56 1830.3 215.616 1834.9 Q218.694 1839.49 218.694 1848.24 Q218.694 1856.96 215.616 1861.57 Q212.56 1866.15 206.75 1866.15 Q200.94 1866.15 197.861 1861.57 Q194.806 1856.96 194.806 1848.24 Q194.806 1839.49 197.861 1834.9 Q200.94 1830.3 206.75 1830.3 Z" fill="#000000" fill-rule="evenodd" fill-opacity="1" /><path clip-path="url(#clip850)" d="M226.912 1859.6 L231.796 1859.6 L231.796 1865.48 L226.912 1865.48 L226.912 1859.6 Z" fill="#000000" fill-rule="evenodd" fill-opacity="1" /><path clip-path="url(#clip850)" d="M251.981 1834 Q248.37 1834 246.542 1837.57 Q244.736 1841.11 244.736 1848.24 Q244.736 1855.34 246.542 1858.91 Q248.37 1862.45 251.981 1862.45 Q255.616 1862.45 257.421 1858.91 Q259.25 1855.34 259.25 1848.24 Q259.25 1841.11 257.421 1837.57 Q255.616 1834 251.981 1834 M251.981 1830.3 Q257.791 1830.3 260.847 1834.9 Q263.926 1839.49 263.926 1848.24 Q263.926 1856.96 260.847 1861.57 Q257.791 1866.15 251.981 1866.15 Q246.171 1866.15 243.092 1861.57 Q240.037 1856.96 240.037 1848.24 Q240.037 1839.49 243.092 1834.9 Q246.171 1830.3 251.981 1830.3 Z" fill="#000000" fill-rule="evenodd" fill-opacity="1" /><path clip-path="url(#clip850)" d="M952.461 1834 Q948.85 1834 947.021 1837.57 Q945.215 1841.11 945.215 1848.24 Q945.215 1855.34 947.021 1858.91 Q948.85 1862.45 952.461 1862.45 Q956.095 1862.45 957.9 1858.91 Q959.729 1855.34 959.729 1848.24 Q959.729 1841.11 957.9 1837.57 Q956.095 1834 952.461 1834 M952.461 1830.3 Q958.271 1830.3 961.326 1834.9 Q964.405 1839.49 964.405 1848.24 Q964.405 1856.96 961.326 1861.57 Q958.271 1866.15 952.461 1866.15 Q946.651 1866.15 943.572 1861.57 Q940.516 1856.96 940.516 1848.24 Q940.516 1839.49 943.572 1834.9 Q946.651 1830.3 952.461 1830.3 Z" fill="#000000" fill-rule="evenodd" fill-opacity="1" /><path clip-path="url(#clip850)" d="M972.623 1859.6 L977.507 1859.6 L977.507 1865.48 L972.623 1865.48 L972.623 1859.6 Z" fill="#000000" fill-rule="evenodd" fill-opacity="1" /><path clip-path="url(#clip850)" d="M987.738 1830.92 L1006.09 1830.92 L1006.09 1834.86 L992.021 1834.86 L992.021 1843.33 Q993.039 1842.98 994.058 1842.82 Q995.076 1842.64 996.095 1842.64 Q1001.88 1842.64 1005.26 1845.81 Q1008.64 1848.98 1008.64 1854.4 Q1008.64 1859.97 1005.17 1863.08 Q1001.7 1866.15 995.377 1866.15 Q993.201 1866.15 990.933 1865.78 Q988.687 1865.41 986.28 1864.67 L986.28 1859.97 Q988.363 1861.11 990.585 1861.66 Q992.808 1862.22 995.285 1862.22 Q999.289 1862.22 1001.63 1860.11 Q1003.97 1858.01 1003.97 1854.4 Q1003.97 1850.78 1001.63 1848.68 Q999.289 1846.57 995.285 1846.57 Q993.41 1846.57 991.535 1846.99 Q989.683 1847.4 987.738 1848.28 L987.738 1830.92 Z" fill="#000000" fill-rule="evenodd" fill-opacity="1" /><path clip-path="url(#clip850)" d="M1686.94 1861.55 L1694.58 1861.55 L1694.58 1835.18 L1686.27 1836.85 L1686.27 1832.59 L1694.54 1830.92 L1699.21 1830.92 L1699.21 1861.55 L1706.85 1861.55 L1706.85 1865.48 L1686.94 1865.48 L1686.94 1861.55 Z" fill="#000000" fill-rule="evenodd" fill-opacity="1" /><path clip-path="url(#clip850)" d="M1716.3 1859.6 L1721.18 1859.6 L1721.18 1865.48 L1716.3 1865.48 L1716.3 1859.6 Z" fill="#000000" fill-rule="evenodd" fill-opacity="1" /><path clip-path="url(#clip850)" d="M1741.37 1834 Q1737.75 1834 1735.93 1837.57 Q1734.12 1841.11 1734.12 1848.24 Q1734.12 1855.34 1735.93 1858.91 Q1737.75 1862.45 1741.37 1862.45 Q1745 1862.45 1746.81 1858.91 Q1748.63 1855.34 1748.63 1848.24 Q1748.63 1841.11 1746.81 1837.57 Q1745 1834 1741.37 1834 M1741.37 1830.3 Q1747.18 1830.3 1750.23 1834.9 Q1753.31 1839.49 1753.31 1848.24 Q1753.31 1856.96 1750.23 1861.57 Q1747.18 1866.15 1741.37 1866.15 Q1735.56 1866.15 1732.48 1861.57 Q1729.42 1856.96 1729.42 1848.24 Q1729.42 1839.49 1732.48 1834.9 Q1735.56 1830.3 1741.37 1830.3 Z" fill="#000000" fill-rule="evenodd" fill-opacity="1" /><path clip-path="url(#clip850)" d="M2432.66 1861.55 L2440.29 1861.55 L2440.29 1835.18 L2431.98 1836.85 L2431.98 1832.59 L2440.25 1830.92 L2444.92 1830.92 L2444.92 1861.55 L2452.56 1861.55 L2452.56 1865.48 L2432.66 1865.48 L2432.66 1861.55 Z" fill="#000000" fill-rule="evenodd" fill-opacity="1" /><path clip-path="url(#clip850)" d="M2462.01 1859.6 L2466.89 1859.6 L2466.89 1865.48 L2462.01 1865.48 L2462.01 1859.6 Z" fill="#000000" fill-rule="evenodd" fill-opacity="1" /><path clip-path="url(#clip850)" d="M2477.12 1830.92 L2495.48 1830.92 L2495.48 1834.86 L2481.4 1834.86 L2481.4 1843.33 Q2482.42 1842.98 2483.44 1842.82 Q2484.46 1842.64 2485.48 1842.64 Q2491.27 1842.64 2494.65 1845.81 Q2498.03 1848.98 2498.03 1854.4 Q2498.03 1859.97 2494.55 1863.08 Q2491.08 1866.15 2484.76 1866.15 Q2482.59 1866.15 2480.32 1865.78 Q2478.07 1865.41 2475.66 1864.67 L2475.66 1859.97 Q2477.75 1861.11 2479.97 1861.66 Q2482.19 1862.22 2484.67 1862.22 Q2488.67 1862.22 2491.01 1860.11 Q2493.35 1858.01 2493.35 1854.4 Q2493.35 1850.78 2491.01 1848.68 Q2488.67 1846.57 2484.67 1846.57 Q2482.79 1846.57 2480.92 1846.99 Q2479.07 1847.4 2477.12 1848.28 L2477.12 1830.92 Z" fill="#000000" fill-rule="evenodd" fill-opacity="1" /><polyline clip-path="url(#clip852)" style="stroke:#000000; stroke-linecap:butt; stroke-linejoin:round; stroke-width:2; stroke-opacity:0.1; fill:none" points="
  159.131,1769.43 2640.76,1769.43 
  "/>
<polyline clip-path="url(#clip852)" style="stroke:#000000; stroke-linecap:butt; stroke-linejoin:round; stroke-width:2; stroke-opacity:0.1; fill:none" points="
  159.131,1318.36 2640.76,1318.36 
  "/>
<polyline clip-path="url(#clip852)" style="stroke:#000000; stroke-linecap:butt; stroke-linejoin:round; stroke-width:2; stroke-opacity:0.1; fill:none" points="
  159.131,867.286 2640.76,867.286 
  "/>
<polyline clip-path="url(#clip852)" style="stroke:#000000; stroke-linecap:butt; stroke-linejoin:round; stroke-width:2; stroke-opacity:0.1; fill:none" points="
  159.131,416.214 2640.76,416.214 
  "/>
<polyline clip-path="url(#clip850)" style="stroke:#000000; stroke-linecap:butt; stroke-linejoin:round; stroke-width:4; stroke-opacity:1; fill:none" points="
  159.131,1800.78 159.131,47.2441 
  "/>
<polyline clip-path="url(#clip850)" style="stroke:#000000; stroke-linecap:butt; stroke-linejoin:round; stroke-width:4; stroke-opacity:1; fill:none" points="
  159.131,1769.43 178.029,1769.43 
  "/>
<polyline clip-path="url(#clip850)" style="stroke:#000000; stroke-linecap:butt; stroke-linejoin:round; stroke-width:4; stroke-opacity:1; fill:none" points="
  159.131,1318.36 178.029,1318.36 
  "/>
<polyline clip-path="url(#clip850)" style="stroke:#000000; stroke-linecap:butt; stroke-linejoin:round; stroke-width:4; stroke-opacity:1; fill:none" points="
  159.131,867.286 178.029,867.286 
  "/>
<polyline clip-path="url(#clip850)" style="stroke:#000000; stroke-linecap:butt; stroke-linejoin:round; stroke-width:4; stroke-opacity:1; fill:none" points="
  159.131,416.214 178.029,416.214 
  "/>
<path clip-path="url(#clip850)" d="M55.1771 1782.77 L71.4965 1782.77 L71.4965 1786.71 L49.5521 1786.71 L49.5521 1782.77 Q52.2141 1780.02 56.7975 1775.39 Q61.4039 1770.74 62.5845 1769.39 Q64.8298 1766.87 65.7094 1765.13 Q66.6122 1763.37 66.6122 1761.68 Q66.6122 1758.93 64.6678 1757.19 Q62.7465 1755.46 59.6447 1755.46 Q57.4456 1755.46 54.9919 1756.22 Q52.5614 1756.99 49.7836 1758.54 L49.7836 1753.81 Q52.6077 1752.68 55.0614 1752.1 Q57.515 1751.52 59.5521 1751.52 Q64.9224 1751.52 68.1168 1754.21 Q71.3113 1756.89 71.3113 1761.38 Q71.3113 1763.51 70.5011 1765.43 Q69.7141 1767.33 67.6076 1769.93 Q67.0289 1770.6 63.927 1773.81 Q60.8252 1777.01 55.1771 1782.77 Z" fill="#000000" fill-rule="evenodd" fill-opacity="1" /><path clip-path="url(#clip850)" d="M81.3112 1780.83 L86.1954 1780.83 L86.1954 1786.71 L81.3112 1786.71 L81.3112 1780.83 Z" fill="#000000" fill-rule="evenodd" fill-opacity="1" /><path clip-path="url(#clip850)" d="M109.228 1756.22 L97.4222 1774.67 L109.228 1774.67 L109.228 1756.22 M108.001 1752.15 L113.88 1752.15 L113.88 1774.67 L118.811 1774.67 L118.811 1778.56 L113.88 1778.56 L113.88 1786.71 L109.228 1786.71 L109.228 1778.56 L93.626 1778.56 L93.626 1774.05 L108.001 1752.15 Z" fill="#000000" fill-rule="evenodd" fill-opacity="1" /><path clip-path="url(#clip850)" d="M55.5012 1331.7 L71.8205 1331.7 L71.8205 1335.64 L49.8762 1335.64 L49.8762 1331.7 Q52.5382 1328.95 57.1215 1324.32 Q61.728 1319.66 62.9085 1318.32 Q65.1539 1315.8 66.0335 1314.06 Q66.9363 1312.3 66.9363 1310.61 Q66.9363 1307.86 64.9919 1306.12 Q63.0706 1304.39 59.9687 1304.39 Q57.7697 1304.39 55.316 1305.15 Q52.8854 1305.91 50.1077 1307.47 L50.1077 1302.74 Q52.9317 1301.61 55.3854 1301.03 Q57.8391 1300.45 59.8761 1300.45 Q65.2465 1300.45 68.4409 1303.14 Q71.6353 1305.82 71.6353 1310.31 Q71.6353 1312.44 70.8252 1314.36 Q70.0381 1316.26 67.9317 1318.85 Q67.353 1319.53 64.2511 1322.74 Q61.1493 1325.94 55.5012 1331.7 Z" fill="#000000" fill-rule="evenodd" fill-opacity="1" /><path clip-path="url(#clip850)" d="M81.6353 1329.76 L86.5195 1329.76 L86.5195 1335.64 L81.6353 1335.64 L81.6353 1329.76 Z" fill="#000000" fill-rule="evenodd" fill-opacity="1" /><path clip-path="url(#clip850)" d="M107.283 1316.49 Q104.135 1316.49 102.283 1318.65 Q100.455 1320.8 100.455 1324.55 Q100.455 1328.28 102.283 1330.45 Q104.135 1332.6 107.283 1332.6 Q110.431 1332.6 112.26 1330.45 Q114.112 1328.28 114.112 1324.55 Q114.112 1320.8 112.26 1318.65 Q110.431 1316.49 107.283 1316.49 M116.566 1301.84 L116.566 1306.1 Q114.806 1305.27 113.001 1304.83 Q111.218 1304.39 109.459 1304.39 Q104.83 1304.39 102.376 1307.51 Q99.9454 1310.64 99.5982 1316.96 Q100.964 1314.94 103.024 1313.88 Q105.084 1312.79 107.561 1312.79 Q112.769 1312.79 115.779 1315.96 Q118.811 1319.11 118.811 1324.55 Q118.811 1329.87 115.663 1333.09 Q112.515 1336.31 107.283 1336.31 Q101.288 1336.31 98.1167 1331.72 Q94.9454 1327.12 94.9454 1318.39 Q94.9454 1310.2 98.8343 1305.34 Q102.723 1300.45 109.274 1300.45 Q111.033 1300.45 112.816 1300.8 Q114.621 1301.15 116.566 1301.84 Z" fill="#000000" fill-rule="evenodd" fill-opacity="1" /><path clip-path="url(#clip850)" d="M55.7558 880.63 L72.0752 880.63 L72.0752 884.566 L50.1308 884.566 L50.1308 880.63 Q52.7928 877.876 57.3762 873.246 Q61.9826 868.593 63.1632 867.251 Q65.4085 864.728 66.2881 862.992 Q67.1909 861.232 67.1909 859.543 Q67.1909 856.788 65.2465 855.052 Q63.3252 853.316 60.2234 853.316 Q58.0243 853.316 55.5706 854.08 Q53.1401 854.843 50.3623 856.394 L50.3623 851.672 Q53.1864 850.538 55.6401 849.959 Q58.0937 849.381 60.1308 849.381 Q65.5011 849.381 68.6955 852.066 Q71.89 854.751 71.89 859.242 Q71.89 861.371 71.0798 863.292 Q70.2928 865.191 68.1863 867.783 Q67.6076 868.455 64.5057 871.672 Q61.4039 874.867 55.7558 880.63 Z" fill="#000000" fill-rule="evenodd" fill-opacity="1" /><path clip-path="url(#clip850)" d="M81.8899 878.686 L86.7741 878.686 L86.7741 884.566 L81.8899 884.566 L81.8899 878.686 Z" fill="#000000" fill-rule="evenodd" fill-opacity="1" /><path clip-path="url(#clip850)" d="M106.959 868.154 Q103.626 868.154 101.705 869.936 Q99.8065 871.718 99.8065 874.843 Q99.8065 877.968 101.705 879.751 Q103.626 881.533 106.959 881.533 Q110.293 881.533 112.214 879.751 Q114.135 877.945 114.135 874.843 Q114.135 871.718 112.214 869.936 Q110.316 868.154 106.959 868.154 M102.283 866.163 Q99.2741 865.422 97.5843 863.362 Q95.9176 861.302 95.9176 858.339 Q95.9176 854.195 98.8574 851.788 Q101.82 849.381 106.959 849.381 Q112.121 849.381 115.061 851.788 Q118.001 854.195 118.001 858.339 Q118.001 861.302 116.311 863.362 Q114.644 865.422 111.658 866.163 Q115.038 866.95 116.913 869.242 Q118.811 871.533 118.811 874.843 Q118.811 879.866 115.732 882.552 Q112.677 885.237 106.959 885.237 Q101.242 885.237 98.163 882.552 Q95.1074 879.866 95.1074 874.843 Q95.1074 871.533 97.0056 869.242 Q98.9037 866.95 102.283 866.163 M100.57 858.779 Q100.57 861.464 102.237 862.968 Q103.927 864.473 106.959 864.473 Q109.968 864.473 111.658 862.968 Q113.371 861.464 113.371 858.779 Q113.371 856.093 111.658 854.589 Q109.968 853.084 106.959 853.084 Q103.927 853.084 102.237 854.589 Q100.57 856.093 100.57 858.779 Z" fill="#000000" fill-rule="evenodd" fill-opacity="1" /><path clip-path="url(#clip850)" d="M65.802 414.86 Q69.1585 415.578 71.0335 417.846 Q72.9316 420.115 72.9316 423.448 Q72.9316 428.564 69.4131 431.365 Q65.8946 434.166 59.4132 434.166 Q57.2373 434.166 54.9225 433.726 Q52.6308 433.309 50.1771 432.453 L50.1771 427.939 Q52.1216 429.073 54.4364 429.652 Q56.7512 430.23 59.2743 430.23 Q63.6724 430.23 65.9641 428.494 Q68.2789 426.758 68.2789 423.448 Q68.2789 420.393 66.1261 418.68 Q63.9965 416.943 60.1771 416.943 L56.1493 416.943 L56.1493 413.101 L60.3623 413.101 Q63.8113 413.101 65.64 411.735 Q67.4687 410.346 67.4687 407.754 Q67.4687 405.092 65.5706 403.68 Q63.6956 402.244 60.1771 402.244 Q58.2558 402.244 56.0567 402.661 Q53.8577 403.078 51.2188 403.957 L51.2188 399.791 Q53.8808 399.05 56.1956 398.68 Q58.5336 398.309 60.5937 398.309 Q65.9178 398.309 69.0196 400.74 Q72.1214 403.147 72.1214 407.268 Q72.1214 410.138 70.4779 412.129 Q68.8344 414.096 65.802 414.86 Z" fill="#000000" fill-rule="evenodd" fill-opacity="1" /><path clip-path="url(#clip850)" d="M81.7973 427.615 L86.6816 427.615 L86.6816 433.494 L81.7973 433.494 L81.7973 427.615 Z" fill="#000000" fill-rule="evenodd" fill-opacity="1" /><path clip-path="url(#clip850)" d="M106.867 402.013 Q103.256 402.013 101.427 405.578 Q99.6213 409.119 99.6213 416.249 Q99.6213 423.355 101.427 426.92 Q103.256 430.462 106.867 430.462 Q110.501 430.462 112.306 426.92 Q114.135 423.355 114.135 416.249 Q114.135 409.119 112.306 405.578 Q110.501 402.013 106.867 402.013 M106.867 398.309 Q112.677 398.309 115.732 402.916 Q118.811 407.499 118.811 416.249 Q118.811 424.976 115.732 429.582 Q112.677 434.166 106.867 434.166 Q101.056 434.166 97.9778 429.582 Q94.9223 424.976 94.9223 416.249 Q94.9223 407.499 97.9778 402.916 Q101.056 398.309 106.867 398.309 Z" fill="#000000" fill-rule="evenodd" fill-opacity="1" /><polyline clip-path="url(#clip852)" style="stroke:#009af9; stroke-linecap:butt; stroke-linejoin:round; stroke-width:4; stroke-opacity:1; fill:none" points="
  229.366,96.8724 244.608,119.937 385.544,332.637 470.241,459.278 541.851,565.146 619.639,678.464 691.354,780.982 768.239,888.364 857.318,1008.85 936.481,1111.74 
  1005.9,1198.19 1043.74,1243.67 1081.58,1287.87 1119.65,1330.97 1157.72,1372.61 1199.81,1416.85 1241.9,1459.06 1281.94,1497.21 1321.99,1533.29 1363.63,1568.45 
  1405.27,1601.07 1440.32,1626.45 1475.37,1649.8 1518.16,1675.44 1560.95,1697.72 1600.15,1715.01 1639.36,1729.15 1675.56,1739.26 1711.77,1746.4 1748.44,1750.45 
  1785.12,1751.15 1805.67,1750.02 1826.22,1747.76 1846.77,1744.34 1867.32,1739.73 1904.57,1728.25 1941.81,1712.61 1963.13,1701.71 1984.45,1689.34 2005.78,1675.49 
  2027.1,1660.11 2046.84,1644.49 2066.58,1627.5 2086.32,1609.12 2106.07,1589.33 2125.53,1568.4 2144.99,1546.06 2164.46,1522.27 2183.92,1497 2202.82,1471.05 
  2221.71,1443.66 2240.61,1414.84 2259.51,1384.54 2278.88,1351.94 2298.25,1317.77 2317.62,1281.99 2337,1244.61 2358.22,1201.77 2379.44,1156.96 2400.67,1110.16 
  2421.89,1061.35 2452.72,986.827 2483.56,907.995 2514.39,824.823 2545.22,737.289 2551.55,718.79 2557.87,700.108 2564.2,681.241 2570.52,662.19 
  "/>
<path clip-path="url(#clip850)" d="
M2229.87 209.375 L2558.04 209.375 L2558.04 105.695 L2229.87 105.695  Z
  " fill="#ffffff" fill-rule="evenodd" fill-opacity="1"/>
<polyline clip-path="url(#clip850)" style="stroke:#000000; stroke-linecap:butt; stroke-linejoin:round; stroke-width:4; stroke-opacity:1; fill:none" points="
  2229.87,209.375 2558.04,209.375 2558.04,105.695 2229.87,105.695 2229.87,209.375 
  "/>
<polyline clip-path="url(#clip850)" style="stroke:#009af9; stroke-linecap:butt; stroke-linejoin:round; stroke-width:4; stroke-opacity:1; fill:none" points="
  2257.44,157.535 2422.88,157.535 
  "/>
<path clip-path="url(#clip850)" d="M2464.3 177.223 Q2462.49 181.852 2460.78 183.264 Q2459.07 184.676 2456.2 184.676 L2452.8 184.676 L2452.8 181.112 L2455.3 181.112 Q2457.05 181.112 2458.03 180.278 Q2459 179.445 2460.18 176.343 L2460.94 174.399 L2450.46 148.889 L2454.97 148.889 L2463.07 169.167 L2471.18 148.889 L2475.69 148.889 L2464.3 177.223 Z" fill="#000000" fill-rule="evenodd" fill-opacity="1" /><path clip-path="url(#clip850)" d="M2482.98 170.88 L2490.62 170.88 L2490.62 144.515 L2482.31 146.181 L2482.31 141.922 L2490.57 140.255 L2495.25 140.255 L2495.25 170.88 L2502.89 170.88 L2502.89 174.815 L2482.98 174.815 L2482.98 170.88 Z" fill="#000000" fill-rule="evenodd" fill-opacity="1" /></svg>
