<?xml version="1.0" encoding="utf-8"?>
<svg xmlns="http://www.w3.org/2000/svg" xmlns:xlink="http://www.w3.org/1999/xlink" width="672" height="480" viewBox="0 0 2688 1920">
<defs>
  <clipPath id="clip220">
    <rect x="0" y="0" width="2688" height="1920"/>
  </clipPath>
</defs>
<path clip-path="url(#clip220)" d="
M0 1920 L2688 1920 L2688 0 L0 0  Z
  " fill="#ffffff" fill-rule="evenodd" fill-opacity="1"/>
<defs>
  <clipPath id="clip221">
    <rect x="537" y="0" width="1883" height="1883"/>
  </clipPath>
</defs>
<path clip-path="url(#clip220)" d="
M152.071 1800.78 L2640.76 1800.78 L2640.76 47.2441 L152.071 47.2441  Z
  " fill="#ffffff" fill-rule="evenodd" fill-opacity="1"/>
<defs>
  <clipPath id="clip222">
    <rect x="152" y="47" width="2490" height="1755"/>
  </clipPath>
</defs>
<polyline clip-path="url(#clip222)" style="stroke:#000000; stroke-linecap:butt; stroke-linejoin:round; stroke-width:2; stroke-opacity:0.1; fill:none" points="
  275.414,1800.78 275.414,47.2441 
  "/>
<polyline clip-path="url(#clip222)" style="stroke:#000000; stroke-linecap:butt; stroke-linejoin:round; stroke-width:2; stroke-opacity:0.1; fill:none" points="
  649.08,1800.78 649.08,47.2441 
  "/>
<polyline clip-path="url(#clip222)" style="stroke:#000000; stroke-linecap:butt; stroke-linejoin:round; stroke-width:2; stroke-opacity:0.1; fill:none" points="
  1022.75,1800.78 1022.75,47.2441 
  "/>
<polyline clip-path="url(#clip222)" style="stroke:#000000; stroke-linecap:butt; stroke-linejoin:round; stroke-width:2; stroke-opacity:0.1; fill:none" points="
  1396.41,1800.78 1396.41,47.2441 
  "/>
<polyline clip-path="url(#clip222)" style="stroke:#000000; stroke-linecap:butt; stroke-linejoin:round; stroke-width:2; stroke-opacity:0.1; fill:none" points="
  1770.08,1800.78 1770.08,47.2441 
  "/>
<polyline clip-path="url(#clip222)" style="stroke:#000000; stroke-linecap:butt; stroke-linejoin:round; stroke-width:2; stroke-opacity:0.1; fill:none" points="
  2143.75,1800.78 2143.75,47.2441 
  "/>
<polyline clip-path="url(#clip222)" style="stroke:#000000; stroke-linecap:butt; stroke-linejoin:round; stroke-width:2; stroke-opacity:0.1; fill:none" points="
  2517.41,1800.78 2517.41,47.2441 
  "/>
<polyline clip-path="url(#clip220)" style="stroke:#000000; stroke-linecap:butt; stroke-linejoin:round; stroke-width:4; stroke-opacity:1; fill:none" points="
  152.071,1800.78 2640.76,1800.78 
  "/>
<polyline clip-path="url(#clip220)" style="stroke:#000000; stroke-linecap:butt; stroke-linejoin:round; stroke-width:4; stroke-opacity:1; fill:none" points="
  275.414,1800.78 275.414,1781.88 
  "/>
<polyline clip-path="url(#clip220)" style="stroke:#000000; stroke-linecap:butt; stroke-linejoin:round; stroke-width:4; stroke-opacity:1; fill:none" points="
  649.08,1800.78 649.08,1781.88 
  "/>
<polyline clip-path="url(#clip220)" style="stroke:#000000; stroke-linecap:butt; stroke-linejoin:round; stroke-width:4; stroke-opacity:1; fill:none" points="
  1022.75,1800.78 1022.75,1781.88 
  "/>
<polyline clip-path="url(#clip220)" style="stroke:#000000; stroke-linecap:butt; stroke-linejoin:round; stroke-width:4; stroke-opacity:1; fill:none" points="
  1396.41,1800.78 1396.41,1781.88 
  "/>
<polyline clip-path="url(#clip220)" style="stroke:#000000; stroke-linecap:butt; stroke-linejoin:round; stroke-width:4; stroke-opacity:1; fill:none" points="
  1770.08,1800.78 1770.08,1781.88 
  "/>
<polyline clip-path="url(#clip220)" style="stroke:#000000; stroke-linecap:butt; stroke-linejoin:round; stroke-width:4; stroke-opacity:1; fill:none" points="
  2143.75,1800.78 2143.75,1781.88 
  "/>
<polyline clip-path="url(#clip220)" style="stroke:#000000; stroke-linecap:butt; stroke-linejoin:round; stroke-width:4; stroke-opacity:1; fill:none" points="
  2517.41,1800.78 2517.41,1781.88 
  "/>
<path clip-path="url(#clip220)" d="M244.882 1848.65 L274.557 1848.65 L274.557 1852.59 L244.882 1852.59 L244.882 1848.65 Z" fill="#000000" fill-rule="evenodd" fill-opacity="1" /><path clip-path="url(#clip220)" d="M298.816 1846.85 Q302.173 1847.57 304.048 1849.84 Q305.946 1852.1 305.946 1855.44 Q305.946 1860.55 302.428 1863.35 Q298.909 1866.15 292.428 1866.15 Q290.252 1866.15 287.937 1865.71 Q285.645 1865.3 283.192 1864.44 L283.192 1859.93 Q285.136 1861.06 287.451 1861.64 Q289.766 1862.22 292.289 1862.22 Q296.687 1862.22 298.978 1860.48 Q301.293 1858.75 301.293 1855.44 Q301.293 1852.38 299.141 1850.67 Q297.011 1848.93 293.191 1848.93 L289.164 1848.93 L289.164 1845.09 L293.377 1845.09 Q296.826 1845.09 298.654 1843.72 Q300.483 1842.34 300.483 1839.74 Q300.483 1837.08 298.585 1835.67 Q296.71 1834.23 293.191 1834.23 Q291.27 1834.23 289.071 1834.65 Q286.872 1835.07 284.233 1835.95 L284.233 1831.78 Q286.895 1831.04 289.21 1830.67 Q291.548 1830.3 293.608 1830.3 Q298.932 1830.3 302.034 1832.73 Q305.136 1835.14 305.136 1839.26 Q305.136 1842.13 303.492 1844.12 Q301.849 1846.09 298.816 1846.85 Z" fill="#000000" fill-rule="evenodd" fill-opacity="1" /><path clip-path="url(#clip220)" d="M619.023 1848.65 L648.698 1848.65 L648.698 1852.59 L619.023 1852.59 L619.023 1848.65 Z" fill="#000000" fill-rule="evenodd" fill-opacity="1" /><path clip-path="url(#clip220)" d="M662.819 1861.55 L679.138 1861.55 L679.138 1865.48 L657.194 1865.48 L657.194 1861.55 Q659.856 1858.79 664.439 1854.16 Q669.045 1849.51 670.226 1848.17 Q672.471 1845.65 673.351 1843.91 Q674.254 1842.15 674.254 1840.46 Q674.254 1837.71 672.309 1835.97 Q670.388 1834.23 667.286 1834.23 Q665.087 1834.23 662.633 1835 Q660.203 1835.76 657.425 1837.31 L657.425 1832.59 Q660.249 1831.46 662.703 1830.88 Q665.157 1830.3 667.194 1830.3 Q672.564 1830.3 675.758 1832.98 Q678.953 1835.67 678.953 1840.16 Q678.953 1842.29 678.143 1844.21 Q677.356 1846.11 675.249 1848.7 Q674.67 1849.37 671.569 1852.59 Q668.467 1855.78 662.819 1861.55 Z" fill="#000000" fill-rule="evenodd" fill-opacity="1" /><path clip-path="url(#clip220)" d="M992.504 1848.65 L1022.18 1848.65 L1022.18 1852.59 L992.504 1852.59 L992.504 1848.65 Z" fill="#000000" fill-rule="evenodd" fill-opacity="1" /><path clip-path="url(#clip220)" d="M1033.08 1861.55 L1040.72 1861.55 L1040.72 1835.18 L1032.41 1836.85 L1032.41 1832.59 L1040.67 1830.92 L1045.35 1830.92 L1045.35 1861.55 L1052.99 1861.55 L1052.99 1865.48 L1033.08 1865.48 L1033.08 1861.55 Z" fill="#000000" fill-rule="evenodd" fill-opacity="1" /><path clip-path="url(#clip220)" d="M1396.41 1834 Q1392.8 1834 1390.97 1837.57 Q1389.17 1841.11 1389.17 1848.24 Q1389.17 1855.34 1390.97 1858.91 Q1392.8 1862.45 1396.41 1862.45 Q1400.05 1862.45 1401.85 1858.91 Q1403.68 1855.34 1403.68 1848.24 Q1403.68 1841.11 1401.85 1837.57 Q1400.05 1834 1396.41 1834 M1396.41 1830.3 Q1402.22 1830.3 1405.28 1834.9 Q1408.36 1839.49 1408.36 1848.24 Q1408.36 1856.96 1405.28 1861.57 Q1402.22 1866.15 1396.41 1866.15 Q1390.6 1866.15 1387.52 1861.57 Q1384.47 1856.96 1384.47 1848.24 Q1384.47 1839.49 1387.52 1834.9 Q1390.6 1830.3 1396.41 1830.3 Z" fill="#000000" fill-rule="evenodd" fill-opacity="1" /><path clip-path="url(#clip220)" d="M1760.46 1861.55 L1768.1 1861.55 L1768.1 1835.18 L1759.79 1836.85 L1759.79 1832.59 L1768.05 1830.92 L1772.73 1830.92 L1772.73 1861.55 L1780.37 1861.55 L1780.37 1865.48 L1760.46 1865.48 L1760.46 1861.55 Z" fill="#000000" fill-rule="evenodd" fill-opacity="1" /><path clip-path="url(#clip220)" d="M2138.4 1861.55 L2154.72 1861.55 L2154.72 1865.48 L2132.77 1865.48 L2132.77 1861.55 Q2135.44 1858.79 2140.02 1854.16 Q2144.63 1849.51 2145.81 1848.17 Q2148.05 1845.65 2148.93 1843.91 Q2149.83 1842.15 2149.83 1840.46 Q2149.83 1837.71 2147.89 1835.97 Q2145.97 1834.23 2142.87 1834.23 Q2140.67 1834.23 2138.21 1835 Q2135.78 1835.76 2133.01 1837.31 L2133.01 1832.59 Q2135.83 1831.46 2138.28 1830.88 Q2140.74 1830.3 2142.77 1830.3 Q2148.14 1830.3 2151.34 1832.98 Q2154.53 1835.67 2154.53 1840.16 Q2154.53 1842.29 2153.72 1844.21 Q2152.94 1846.11 2150.83 1848.7 Q2150.25 1849.37 2147.15 1852.59 Q2144.05 1855.78 2138.4 1861.55 Z" fill="#000000" fill-rule="evenodd" fill-opacity="1" /><path clip-path="url(#clip220)" d="M2521.66 1846.85 Q2525.02 1847.57 2526.89 1849.84 Q2528.79 1852.1 2528.79 1855.44 Q2528.79 1860.55 2525.27 1863.35 Q2521.75 1866.15 2515.27 1866.15 Q2513.1 1866.15 2510.78 1865.71 Q2508.49 1865.3 2506.04 1864.44 L2506.04 1859.93 Q2507.98 1861.06 2510.29 1861.64 Q2512.61 1862.22 2515.13 1862.22 Q2519.53 1862.22 2521.82 1860.48 Q2524.14 1858.75 2524.14 1855.44 Q2524.14 1852.38 2521.98 1850.67 Q2519.86 1848.93 2516.04 1848.93 L2512.01 1848.93 L2512.01 1845.09 L2516.22 1845.09 Q2519.67 1845.09 2521.5 1843.72 Q2523.33 1842.34 2523.33 1839.74 Q2523.33 1837.08 2521.43 1835.67 Q2519.55 1834.23 2516.04 1834.23 Q2514.11 1834.23 2511.92 1834.65 Q2509.72 1835.07 2507.08 1835.95 L2507.08 1831.78 Q2509.74 1831.04 2512.05 1830.67 Q2514.39 1830.3 2516.45 1830.3 Q2521.78 1830.3 2524.88 1832.73 Q2527.98 1835.14 2527.98 1839.26 Q2527.98 1842.13 2526.34 1844.12 Q2524.69 1846.09 2521.66 1846.85 Z" fill="#000000" fill-rule="evenodd" fill-opacity="1" /><polyline clip-path="url(#clip222)" style="stroke:#000000; stroke-linecap:butt; stroke-linejoin:round; stroke-width:2; stroke-opacity:0.1; fill:none" points="
  152.071,1616.14 2640.76,1616.14 
  "/>
<polyline clip-path="url(#clip222)" style="stroke:#000000; stroke-linecap:butt; stroke-linejoin:round; stroke-width:2; stroke-opacity:0.1; fill:none" points="
  152.071,1364.02 2640.76,1364.02 
  "/>
<polyline clip-path="url(#clip222)" style="stroke:#000000; stroke-linecap:butt; stroke-linejoin:round; stroke-width:2; stroke-opacity:0.1; fill:none" points="
  152.071,1111.91 2640.76,1111.91 
  "/>
<polyline clip-path="url(#clip222)" style="stroke:#000000; stroke-linecap:butt; stroke-linejoin:round; stroke-width:2; stroke-opacity:0.1; fill:none" points="
  152.071,859.797 2640.76,859.797 
  "/>
<polyline clip-path="url(#clip222)" style="stroke:#000000; stroke-linecap:butt; stroke-linejoin:round; stroke-width:2; stroke-opacity:0.1; fill:none" points="
  152.071,607.684 2640.76,607.684 
  "/>
<polyline clip-path="url(#clip222)" style="stroke:#000000; stroke-linecap:butt; stroke-linejoin:round; stroke-width:2; stroke-opacity:0.1; fill:none" points="
  152.071,355.571 2640.76,355.571 
  "/>
<polyline clip-path="url(#clip222)" style="stroke:#000000; stroke-linecap:butt; stroke-linejoin:round; stroke-width:2; stroke-opacity:0.1; fill:none" points="
  152.071,103.458 2640.76,103.458 
  "/>
<polyline clip-path="url(#clip220)" style="stroke:#000000; stroke-linecap:butt; stroke-linejoin:round; stroke-width:4; stroke-opacity:1; fill:none" points="
  152.071,1800.78 152.071,47.2441 
  "/>
<polyline clip-path="url(#clip220)" style="stroke:#000000; stroke-linecap:butt; stroke-linejoin:round; stroke-width:4; stroke-opacity:1; fill:none" points="
  152.071,1616.14 170.969,1616.14 
  "/>
<polyline clip-path="url(#clip220)" style="stroke:#000000; stroke-linecap:butt; stroke-linejoin:round; stroke-width:4; stroke-opacity:1; fill:none" points="
  152.071,1364.02 170.969,1364.02 
  "/>
<polyline clip-path="url(#clip220)" style="stroke:#000000; stroke-linecap:butt; stroke-linejoin:round; stroke-width:4; stroke-opacity:1; fill:none" points="
  152.071,1111.91 170.969,1111.91 
  "/>
<polyline clip-path="url(#clip220)" style="stroke:#000000; stroke-linecap:butt; stroke-linejoin:round; stroke-width:4; stroke-opacity:1; fill:none" points="
  152.071,859.797 170.969,859.797 
  "/>
<polyline clip-path="url(#clip220)" style="stroke:#000000; stroke-linecap:butt; stroke-linejoin:round; stroke-width:4; stroke-opacity:1; fill:none" points="
  152.071,607.684 170.969,607.684 
  "/>
<polyline clip-path="url(#clip220)" style="stroke:#000000; stroke-linecap:butt; stroke-linejoin:round; stroke-width:4; stroke-opacity:1; fill:none" points="
  152.071,355.571 170.969,355.571 
  "/>
<polyline clip-path="url(#clip220)" style="stroke:#000000; stroke-linecap:butt; stroke-linejoin:round; stroke-width:4; stroke-opacity:1; fill:none" points="
  152.071,103.458 170.969,103.458 
  "/>
<path clip-path="url(#clip220)" d="M49.5521 1616.59 L79.2279 1616.59 L79.2279 1620.52 L49.5521 1620.52 L49.5521 1616.59 Z" fill="#000000" fill-rule="evenodd" fill-opacity="1" /><path clip-path="url(#clip220)" d="M102.168 1602.93 L90.3621 1621.38 L102.168 1621.38 L102.168 1602.93 M100.941 1598.86 L106.82 1598.86 L106.82 1621.38 L111.751 1621.38 L111.751 1625.27 L106.82 1625.27 L106.82 1633.42 L102.168 1633.42 L102.168 1625.27 L86.5658 1625.27 L86.5658 1620.76 L100.941 1598.86 Z" fill="#000000" fill-rule="evenodd" fill-opacity="1" /><path clip-path="url(#clip220)" d="M50.6864 1364.48 L80.3621 1364.48 L80.3621 1368.41 L50.6864 1368.41 L50.6864 1364.48 Z" fill="#000000" fill-rule="evenodd" fill-opacity="1" /><path clip-path="url(#clip220)" d="M104.621 1362.67 Q107.978 1363.39 109.853 1365.66 Q111.751 1367.92 111.751 1371.26 Q111.751 1376.37 108.232 1379.17 Q104.714 1381.98 98.2324 1381.98 Q96.0565 1381.98 93.7417 1381.54 Q91.45 1381.12 88.9964 1380.26 L88.9964 1375.75 Q90.9408 1376.88 93.2556 1377.46 Q95.5704 1378.04 98.0935 1378.04 Q102.492 1378.04 104.783 1376.3 Q107.098 1374.57 107.098 1371.26 Q107.098 1368.2 104.945 1366.49 Q102.816 1364.75 98.9963 1364.75 L94.9685 1364.75 L94.9685 1360.91 L99.1815 1360.91 Q102.631 1360.91 104.459 1359.54 Q106.288 1358.16 106.288 1355.56 Q106.288 1352.9 104.39 1351.49 Q102.515 1350.05 98.9963 1350.05 Q97.075 1350.05 94.876 1350.47 Q92.6769 1350.89 90.038 1351.77 L90.038 1347.6 Q92.7 1346.86 95.0148 1346.49 Q97.3528 1346.12 99.413 1346.12 Q104.737 1346.12 107.839 1348.55 Q110.941 1350.96 110.941 1355.08 Q110.941 1357.95 109.297 1359.94 Q107.654 1361.91 104.621 1362.67 Z" fill="#000000" fill-rule="evenodd" fill-opacity="1" /><path clip-path="url(#clip220)" d="M51.6354 1112.36 L81.3112 1112.36 L81.3112 1116.3 L51.6354 1116.3 L51.6354 1112.36 Z" fill="#000000" fill-rule="evenodd" fill-opacity="1" /><path clip-path="url(#clip220)" d="M95.4315 1125.26 L111.751 1125.26 L111.751 1129.19 L89.8065 1129.19 L89.8065 1125.26 Q92.4686 1122.5 97.0519 1117.87 Q101.658 1113.22 102.839 1111.88 Q105.084 1109.35 105.964 1107.62 Q106.867 1105.86 106.867 1104.17 Q106.867 1101.41 104.922 1099.68 Q103.001 1097.94 99.8991 1097.94 Q97.7 1097.94 95.2463 1098.7 Q92.8158 1099.47 90.038 1101.02 L90.038 1096.3 Q92.8621 1095.16 95.3158 1094.58 Q97.7695 1094.01 99.8065 1094.01 Q105.177 1094.01 108.371 1096.69 Q111.566 1099.38 111.566 1103.87 Q111.566 1106 110.756 1107.92 Q109.968 1109.82 107.862 1112.41 Q107.283 1113.08 104.181 1116.3 Q101.08 1119.49 95.4315 1125.26 Z" fill="#000000" fill-rule="evenodd" fill-opacity="1" /><path clip-path="url(#clip220)" d="M51.2651 860.249 L80.9408 860.249 L80.9408 864.184 L51.2651 864.184 L51.2651 860.249 Z" fill="#000000" fill-rule="evenodd" fill-opacity="1" /><path clip-path="url(#clip220)" d="M91.8436 873.142 L99.4824 873.142 L99.4824 846.777 L91.1723 848.443 L91.1723 844.184 L99.4361 842.517 L104.112 842.517 L104.112 873.142 L111.751 873.142 L111.751 877.077 L91.8436 877.077 L91.8436 873.142 Z" fill="#000000" fill-rule="evenodd" fill-opacity="1" /><path clip-path="url(#clip220)" d="M99.8065 593.483 Q96.1954 593.483 94.3667 597.048 Q92.5612 600.589 92.5612 607.719 Q92.5612 614.825 94.3667 618.39 Q96.1954 621.932 99.8065 621.932 Q103.441 621.932 105.246 618.39 Q107.075 614.825 107.075 607.719 Q107.075 600.589 105.246 597.048 Q103.441 593.483 99.8065 593.483 M99.8065 589.779 Q105.617 589.779 108.672 594.386 Q111.751 598.969 111.751 607.719 Q111.751 616.446 108.672 621.052 Q105.617 625.635 99.8065 625.635 Q93.9963 625.635 90.9176 621.052 Q87.8621 616.446 87.8621 607.719 Q87.8621 598.969 90.9176 594.386 Q93.9963 589.779 99.8065 589.779 Z" fill="#000000" fill-rule="evenodd" fill-opacity="1" /><path clip-path="url(#clip220)" d="M91.8436 368.916 L99.4824 368.916 L99.4824 342.55 L91.1723 344.217 L91.1723 339.958 L99.4361 338.291 L104.112 338.291 L104.112 368.916 L111.751 368.916 L111.751 372.851 L91.8436 372.851 L91.8436 368.916 Z" fill="#000000" fill-rule="evenodd" fill-opacity="1" /><path clip-path="url(#clip220)" d="M95.4315 116.803 L111.751 116.803 L111.751 120.738 L89.8065 120.738 L89.8065 116.803 Q92.4686 114.048 97.0519 109.418 Q101.658 104.766 102.839 103.423 Q105.084 100.9 105.964 99.1637 Q106.867 97.4045 106.867 95.7147 Q106.867 92.9601 104.922 91.2239 Q103.001 89.4878 99.8991 89.4878 Q97.7 89.4878 95.2463 90.2517 Q92.8158 91.0156 90.038 92.5665 L90.038 87.8443 Q92.8621 86.7101 95.3158 86.1314 Q97.7695 85.5527 99.8065 85.5527 Q105.177 85.5527 108.371 88.2379 Q111.566 90.923 111.566 95.4137 Q111.566 97.5434 110.756 99.4646 Q109.968 101.363 107.862 103.955 Q107.283 104.627 104.181 107.844 Q101.08 111.039 95.4315 116.803 Z" fill="#000000" fill-rule="evenodd" fill-opacity="1" /><polyline clip-path="url(#clip222)" style="stroke:#0000ff; stroke-linecap:butt; stroke-linejoin:round; stroke-width:4; stroke-opacity:1; fill:none" points="
  222.505,1751.15 226.327,1735.95 230.148,1720.91 233.97,1706.01 237.791,1691.27 255.458,1625.04 273.125,1561.9 290.792,1501.77 308.459,1444.55 326.127,1390.15 
  343.794,1338.47 361.461,1289.43 379.128,1242.94 389.745,1216.19 400.362,1190.3 410.98,1165.27 421.597,1141.07 442.831,1095.08 464.066,1052.2 482.019,1018.26 
  499.973,986.341 517.926,956.373 535.88,928.269 555.382,899.756 574.884,873.245 594.387,848.637 613.889,825.835 631.869,806.332 649.848,788.212 667.828,771.404 
  685.808,755.841 705.084,740.463 724.36,726.36 743.636,713.455 762.911,701.674 785.245,689.336 807.578,678.305 829.911,668.476 852.244,659.755 891.938,646.699 
  931.632,636.364 966.44,629.195 1001.25,623.516 1039.2,618.742 1077.15,615.178 1115.32,612.571 1153.5,610.733 1237.92,608.544 1318.24,607.836 1401.75,607.682 
  1472.05,607.682 1557.88,607.686 1636.51,607.682 1709.12,607.688 1782.68,607.677 1865.12,607.479 1939.82,606.81 2025.35,604.814 2104.54,600.898 2143.58,597.893 
  2182.62,593.974 2220.52,589.132 2258.42,583.104 2297.28,575.508 2336.13,566.285 2378.7,554.074 2421.27,539.4 2452.19,527.043 2483.11,513.142 2514.03,497.596 
  2544.95,480.308 2551.29,476.538 2557.63,472.689 2563.98,468.761 2570.32,464.754 
  "/>
<polyline clip-path="url(#clip222)" style="stroke:#008000; stroke-linecap:butt; stroke-linejoin:round; stroke-width:4; stroke-opacity:1; fill:none" points="
  222.505,1118.5 226.327,1110.97 230.148,1103.53 233.97,1096.17 237.791,1088.89 255.458,1056.27 273.125,1025.32 290.792,995.993 308.459,968.23 326.127,941.979 
  343.794,917.189 361.461,893.806 379.128,871.779 400.362,847.027 421.597,824.073 442.831,802.829 464.066,783.21 482.019,767.828 499.973,753.498 517.926,740.171 
  535.88,727.798 555.382,715.385 574.884,703.983 594.387,693.536 613.889,683.987 631.869,675.932 649.848,668.553 667.828,661.808 685.808,655.659 724.36,644.31 
  762.911,635.175 807.578,626.933 852.244,620.771 891.938,616.708 931.632,613.714 966.44,611.791 1001.25,610.39 1077.15,608.624 1153.5,607.926 1237.92,607.713 
  1318.24,607.685 1401.75,607.684 1472.05,607.683 1557.88,607.653 1636.51,607.456 1709.12,606.836 1782.68,605.266 1823.9,603.693 1865.12,601.399 1902.47,598.52 
  1939.82,594.687 1982.59,588.856 2025.35,581.144 2064.95,571.979 2104.54,560.511 2124.06,553.895 2143.58,546.579 2163.1,538.512 2182.62,529.645 2201.57,520.217 
  2220.52,509.933 2239.47,498.741 2258.42,486.588 2277.85,473.075 2297.28,458.435 2316.7,442.606 2336.13,425.527 2357.42,405.304 2378.7,383.419 2399.99,359.784 
  2421.27,334.312 2436.73,314.609 2452.19,293.855 2467.65,272.016 2483.11,249.057 2498.57,224.942 2514.03,199.637 2529.49,173.106 2544.95,145.314 2551.29,133.537 
  2557.63,121.54 2563.98,109.319 2570.32,96.8724 
  "/>
<path clip-path="url(#clip220)" d="
M1986.37 261.215 L2557.8 261.215 L2557.8 105.695 L1986.37 105.695  Z
  " fill="#ffffff" fill-rule="evenodd" fill-opacity="1"/>
<polyline clip-path="url(#clip220)" style="stroke:#000000; stroke-linecap:butt; stroke-linejoin:round; stroke-width:4; stroke-opacity:1; fill:none" points="
  1986.37,261.215 2557.8,261.215 2557.8,105.695 1986.37,105.695 1986.37,261.215 
  "/>
<polyline clip-path="url(#clip220)" style="stroke:#0000ff; stroke-linecap:butt; stroke-linejoin:round; stroke-width:4; stroke-opacity:1; fill:none" points="
  2014.03,157.535 2179.94,157.535 
  "/>
<path clip-path="url(#clip220)" d="M2207.59 148.889 L2211.85 148.889 L2211.85 174.815 L2207.59 174.815 L2207.59 148.889 M2207.59 138.797 L2211.85 138.797 L2211.85 144.19 L2207.59 144.19 L2207.59 138.797 Z" fill="#000000" fill-rule="evenodd" fill-opacity="1" /><path clip-path="url(#clip220)" d="M2242.31 159.167 L2242.31 174.815 L2238.05 174.815 L2238.05 159.306 Q2238.05 155.626 2236.62 153.797 Q2235.18 151.968 2232.31 151.968 Q2228.86 151.968 2226.87 154.167 Q2224.88 156.366 2224.88 160.163 L2224.88 174.815 L2220.6 174.815 L2220.6 148.889 L2224.88 148.889 L2224.88 152.917 Q2226.41 150.579 2228.47 149.422 Q2230.55 148.264 2233.26 148.264 Q2237.73 148.264 2240.02 151.042 Q2242.31 153.797 2242.31 159.167 Z" fill="#000000" fill-rule="evenodd" fill-opacity="1" /><path clip-path="url(#clip220)" d="M2255.02 141.528 L2255.02 148.889 L2263.79 148.889 L2263.79 152.2 L2255.02 152.2 L2255.02 166.274 Q2255.02 169.445 2255.88 170.348 Q2256.76 171.25 2259.42 171.25 L2263.79 171.25 L2263.79 174.815 L2259.42 174.815 Q2254.49 174.815 2252.61 172.987 Q2250.74 171.135 2250.74 166.274 L2250.74 152.2 L2247.61 152.2 L2247.61 148.889 L2250.74 148.889 L2250.74 141.528 L2255.02 141.528 Z" fill="#000000" fill-rule="evenodd" fill-opacity="1" /><path clip-path="url(#clip220)" d="M2291.57 160.788 L2291.57 162.871 L2271.99 162.871 Q2272.27 167.269 2274.63 169.584 Q2277.01 171.875 2281.25 171.875 Q2283.7 171.875 2285.99 171.274 Q2288.31 170.672 2290.58 169.468 L2290.58 173.496 Q2288.28 174.468 2285.88 174.977 Q2283.47 175.487 2280.99 175.487 Q2274.79 175.487 2271.15 171.875 Q2267.54 168.264 2267.54 162.107 Q2267.54 155.741 2270.97 152.014 Q2274.42 148.264 2280.25 148.264 Q2285.48 148.264 2288.52 151.644 Q2291.57 155.001 2291.57 160.788 M2287.31 159.538 Q2287.27 156.042 2285.34 153.959 Q2283.45 151.876 2280.3 151.876 Q2276.73 151.876 2274.58 153.889 Q2272.45 155.903 2272.13 159.561 L2287.31 159.538 Z" fill="#000000" fill-rule="evenodd" fill-opacity="1" /><path clip-path="url(#clip220)" d="M2313.58 152.871 Q2312.87 152.454 2312.01 152.269 Q2311.18 152.061 2310.16 152.061 Q2306.55 152.061 2304.6 154.422 Q2302.68 156.76 2302.68 161.158 L2302.68 174.815 L2298.4 174.815 L2298.4 148.889 L2302.68 148.889 L2302.68 152.917 Q2304.02 150.556 2306.18 149.422 Q2308.33 148.264 2311.41 148.264 Q2311.85 148.264 2312.38 148.334 Q2312.91 148.38 2313.56 148.496 L2313.58 152.871 Z" fill="#000000" fill-rule="evenodd" fill-opacity="1" /><path clip-path="url(#clip220)" d="M2322.17 170.926 L2322.17 184.676 L2317.89 184.676 L2317.89 148.889 L2322.17 148.889 L2322.17 152.825 Q2323.52 150.51 2325.55 149.399 Q2327.61 148.264 2330.46 148.264 Q2335.18 148.264 2338.12 152.014 Q2341.08 155.764 2341.08 161.876 Q2341.08 167.987 2338.12 171.737 Q2335.18 175.487 2330.46 175.487 Q2327.61 175.487 2325.55 174.375 Q2323.52 173.241 2322.17 170.926 M2336.66 161.876 Q2336.66 157.176 2334.72 154.514 Q2332.8 151.829 2329.42 151.829 Q2326.04 151.829 2324.09 154.514 Q2322.17 157.176 2322.17 161.876 Q2322.17 166.575 2324.09 169.26 Q2326.04 171.922 2329.42 171.922 Q2332.8 171.922 2334.72 169.26 Q2336.66 166.575 2336.66 161.876 Z" fill="#000000" fill-rule="evenodd" fill-opacity="1" /><path clip-path="url(#clip220)" d="M2358.19 151.876 Q2354.76 151.876 2352.77 154.561 Q2350.78 157.223 2350.78 161.876 Q2350.78 166.528 2352.75 169.213 Q2354.74 171.875 2358.19 171.875 Q2361.59 171.875 2363.58 169.19 Q2365.58 166.505 2365.58 161.876 Q2365.58 157.269 2363.58 154.584 Q2361.59 151.876 2358.19 151.876 M2358.19 148.264 Q2363.75 148.264 2366.92 151.876 Q2370.09 155.487 2370.09 161.876 Q2370.09 168.241 2366.92 171.875 Q2363.75 175.487 2358.19 175.487 Q2352.61 175.487 2349.44 171.875 Q2346.29 168.241 2346.29 161.876 Q2346.29 155.487 2349.44 151.876 Q2352.61 148.264 2358.19 148.264 Z" fill="#000000" fill-rule="evenodd" fill-opacity="1" /><path clip-path="url(#clip220)" d="M2377.15 138.797 L2381.41 138.797 L2381.41 174.815 L2377.15 174.815 L2377.15 138.797 Z" fill="#000000" fill-rule="evenodd" fill-opacity="1" /><path clip-path="url(#clip220)" d="M2402.1 161.783 Q2396.94 161.783 2394.95 162.963 Q2392.96 164.144 2392.96 166.991 Q2392.96 169.26 2394.44 170.602 Q2395.95 171.922 2398.51 171.922 Q2402.06 171.922 2404.19 169.422 Q2406.34 166.899 2406.34 162.732 L2406.34 161.783 L2402.1 161.783 M2410.6 160.024 L2410.6 174.815 L2406.34 174.815 L2406.34 170.88 Q2404.88 173.241 2402.7 174.375 Q2400.53 175.487 2397.38 175.487 Q2393.4 175.487 2391.04 173.264 Q2388.7 171.019 2388.7 167.269 Q2388.7 162.894 2391.62 160.672 Q2394.56 158.45 2400.37 158.45 L2406.34 158.45 L2406.34 158.033 Q2406.34 155.093 2404.39 153.496 Q2402.47 151.876 2398.98 151.876 Q2396.76 151.876 2394.65 152.408 Q2392.54 152.94 2390.6 154.005 L2390.6 150.07 Q2392.94 149.167 2395.14 148.727 Q2397.33 148.264 2399.42 148.264 Q2405.04 148.264 2407.82 151.181 Q2410.6 154.098 2410.6 160.024 Z" fill="#000000" fill-rule="evenodd" fill-opacity="1" /><path clip-path="url(#clip220)" d="M2423.58 141.528 L2423.58 148.889 L2432.36 148.889 L2432.36 152.2 L2423.58 152.2 L2423.58 166.274 Q2423.58 169.445 2424.44 170.348 Q2425.32 171.25 2427.98 171.25 L2432.36 171.25 L2432.36 174.815 L2427.98 174.815 Q2423.05 174.815 2421.18 172.987 Q2419.3 171.135 2419.3 166.274 L2419.3 152.2 L2416.18 152.2 L2416.18 148.889 L2419.3 148.889 L2419.3 141.528 L2423.58 141.528 Z" fill="#000000" fill-rule="evenodd" fill-opacity="1" /><path clip-path="url(#clip220)" d="M2437.96 148.889 L2442.22 148.889 L2442.22 174.815 L2437.96 174.815 L2437.96 148.889 M2437.96 138.797 L2442.22 138.797 L2442.22 144.19 L2437.96 144.19 L2437.96 138.797 Z" fill="#000000" fill-rule="evenodd" fill-opacity="1" /><path clip-path="url(#clip220)" d="M2472.68 159.167 L2472.68 174.815 L2468.42 174.815 L2468.42 159.306 Q2468.42 155.626 2466.99 153.797 Q2465.55 151.968 2462.68 151.968 Q2459.23 151.968 2457.24 154.167 Q2455.25 156.366 2455.25 160.163 L2455.25 174.815 L2450.97 174.815 L2450.97 148.889 L2455.25 148.889 L2455.25 152.917 Q2456.78 150.579 2458.84 149.422 Q2460.92 148.264 2463.63 148.264 Q2468.1 148.264 2470.39 151.042 Q2472.68 153.797 2472.68 159.167 Z" fill="#000000" fill-rule="evenodd" fill-opacity="1" /><path clip-path="url(#clip220)" d="M2498.24 161.551 Q2498.24 156.922 2496.32 154.376 Q2494.42 151.829 2490.97 151.829 Q2487.54 151.829 2485.62 154.376 Q2483.72 156.922 2483.72 161.551 Q2483.72 166.158 2485.62 168.704 Q2487.54 171.25 2490.97 171.25 Q2494.42 171.25 2496.32 168.704 Q2498.24 166.158 2498.24 161.551 M2502.5 171.598 Q2502.5 178.218 2499.56 181.436 Q2496.62 184.676 2490.55 184.676 Q2488.31 184.676 2486.32 184.329 Q2484.32 184.005 2482.45 183.311 L2482.45 179.167 Q2484.32 180.186 2486.15 180.672 Q2487.98 181.158 2489.88 181.158 Q2494.07 181.158 2496.15 178.959 Q2498.24 176.783 2498.24 172.362 L2498.24 170.255 Q2496.92 172.547 2494.86 173.681 Q2492.8 174.815 2489.93 174.815 Q2485.16 174.815 2482.24 171.181 Q2479.32 167.547 2479.32 161.551 Q2479.32 155.533 2482.24 151.899 Q2485.16 148.264 2489.93 148.264 Q2492.8 148.264 2494.86 149.399 Q2496.92 150.533 2498.24 152.825 L2498.24 148.889 L2502.5 148.889 L2502.5 171.598 Z" fill="#000000" fill-rule="evenodd" fill-opacity="1" /><polyline clip-path="url(#clip220)" style="stroke:#008000; stroke-linecap:butt; stroke-linejoin:round; stroke-width:4; stroke-opacity:1; fill:none" points="
  2014.03,209.375 2179.94,209.375 
  "/>
<path clip-path="url(#clip220)" d="M2207.59 192.095 L2236.83 192.095 L2236.83 196.03 L2224.56 196.03 L2224.56 226.655 L2219.86 226.655 L2219.86 196.03 L2207.59 196.03 L2207.59 192.095 Z" fill="#000000" fill-rule="evenodd" fill-opacity="1" /><path clip-path="url(#clip220)" d="M2245.09 213.623 Q2239.93 213.623 2237.94 214.803 Q2235.95 215.984 2235.95 218.831 Q2235.95 221.1 2237.43 222.442 Q2238.93 223.762 2241.5 223.762 Q2245.04 223.762 2247.17 221.262 Q2249.33 218.739 2249.33 214.572 L2249.33 213.623 L2245.09 213.623 M2253.58 211.864 L2253.58 226.655 L2249.33 226.655 L2249.33 222.72 Q2247.87 225.081 2245.69 226.215 Q2243.52 227.327 2240.37 227.327 Q2236.39 227.327 2234.02 225.104 Q2231.69 222.859 2231.69 219.109 Q2231.69 214.734 2234.6 212.512 Q2237.54 210.29 2243.35 210.29 L2249.33 210.29 L2249.33 209.873 Q2249.33 206.933 2247.38 205.336 Q2245.46 203.716 2241.96 203.716 Q2239.74 203.716 2237.64 204.248 Q2235.53 204.78 2233.59 205.845 L2233.59 201.91 Q2235.92 201.007 2238.12 200.567 Q2240.32 200.104 2242.4 200.104 Q2248.03 200.104 2250.81 203.021 Q2253.58 205.938 2253.58 211.864 Z" fill="#000000" fill-rule="evenodd" fill-opacity="1" /><path clip-path="url(#clip220)" d="M2273.15 229.063 Q2271.34 233.692 2269.63 235.104 Q2267.91 236.516 2265.04 236.516 L2261.64 236.516 L2261.64 232.952 L2264.14 232.952 Q2265.9 232.952 2266.87 232.118 Q2267.84 231.285 2269.02 228.183 L2269.79 226.239 L2259.3 200.729 L2263.82 200.729 L2271.92 221.007 L2280.02 200.729 L2284.53 200.729 L2273.15 229.063 Z" fill="#000000" fill-rule="evenodd" fill-opacity="1" /><path clip-path="url(#clip220)" d="M2290.41 190.637 L2294.67 190.637 L2294.67 226.655 L2290.41 226.655 L2290.41 190.637 Z" fill="#000000" fill-rule="evenodd" fill-opacity="1" /><path clip-path="url(#clip220)" d="M2313.63 203.716 Q2310.2 203.716 2308.21 206.401 Q2306.22 209.063 2306.22 213.716 Q2306.22 218.368 2308.19 221.053 Q2310.18 223.715 2313.63 223.715 Q2317.03 223.715 2319.02 221.03 Q2321.02 218.345 2321.02 213.716 Q2321.02 209.109 2319.02 206.424 Q2317.03 203.716 2313.63 203.716 M2313.63 200.104 Q2319.19 200.104 2322.36 203.716 Q2325.53 207.327 2325.53 213.716 Q2325.53 220.081 2322.36 223.715 Q2319.19 227.327 2313.63 227.327 Q2308.05 227.327 2304.88 223.715 Q2301.73 220.081 2301.73 213.716 Q2301.73 207.327 2304.88 203.716 Q2308.05 200.104 2313.63 200.104 Z" fill="#000000" fill-rule="evenodd" fill-opacity="1" /><path clip-path="url(#clip220)" d="M2347.61 204.711 Q2346.89 204.294 2346.04 204.109 Q2345.2 203.901 2344.19 203.901 Q2340.58 203.901 2338.63 206.262 Q2336.71 208.6 2336.71 212.998 L2336.71 226.655 L2332.43 226.655 L2332.43 200.729 L2336.71 200.729 L2336.71 204.757 Q2338.05 202.396 2340.2 201.262 Q2342.36 200.104 2345.44 200.104 Q2345.88 200.104 2346.41 200.174 Q2346.94 200.22 2347.59 200.336 L2347.61 204.711 Z" fill="#000000" fill-rule="evenodd" fill-opacity="1" /></svg>
