<?xml version="1.0" encoding="utf-8"?>
<svg xmlns="http://www.w3.org/2000/svg" xmlns:xlink="http://www.w3.org/1999/xlink" width="672" height="480" viewBox="0 0 2688 1920">
<defs>
  <clipPath id="clip520">
    <rect x="0" y="0" width="2688" height="1920"/>
  </clipPath>
</defs>
<path clip-path="url(#clip520)" d="
M0 1920 L2688 1920 L2688 0 L0 0  Z
  " fill="#ffffff" fill-rule="evenodd" fill-opacity="1"/>
<defs>
  <clipPath id="clip521">
    <rect x="537" y="0" width="1883" height="1883"/>
  </clipPath>
</defs>
<path clip-path="url(#clip520)" d="
M189.154 1800.78 L2640.76 1800.78 L2640.76 47.2441 L189.154 47.2441  Z
  " fill="#ffffff" fill-rule="evenodd" fill-opacity="1"/>
<defs>
  <clipPath id="clip522">
    <rect x="189" y="47" width="2453" height="1755"/>
  </clipPath>
</defs>
<polyline clip-path="url(#clip522)" style="stroke:#000000; stroke-linecap:butt; stroke-linejoin:round; stroke-width:2; stroke-opacity:0.1; fill:none" points="
  258.539,1800.78 258.539,47.2441 
  "/>
<polyline clip-path="url(#clip522)" style="stroke:#000000; stroke-linecap:butt; stroke-linejoin:round; stroke-width:2; stroke-opacity:0.1; fill:none" points="
  836.747,1800.78 836.747,47.2441 
  "/>
<polyline clip-path="url(#clip522)" style="stroke:#000000; stroke-linecap:butt; stroke-linejoin:round; stroke-width:2; stroke-opacity:0.1; fill:none" points="
  1414.95,1800.78 1414.95,47.2441 
  "/>
<polyline clip-path="url(#clip522)" style="stroke:#000000; stroke-linecap:butt; stroke-linejoin:round; stroke-width:2; stroke-opacity:0.1; fill:none" points="
  1993.16,1800.78 1993.16,47.2441 
  "/>
<polyline clip-path="url(#clip522)" style="stroke:#000000; stroke-linecap:butt; stroke-linejoin:round; stroke-width:2; stroke-opacity:0.1; fill:none" points="
  2571.37,1800.78 2571.37,47.2441 
  "/>
<polyline clip-path="url(#clip520)" style="stroke:#000000; stroke-linecap:butt; stroke-linejoin:round; stroke-width:4; stroke-opacity:1; fill:none" points="
  189.154,1800.78 2640.76,1800.78 
  "/>
<polyline clip-path="url(#clip520)" style="stroke:#000000; stroke-linecap:butt; stroke-linejoin:round; stroke-width:4; stroke-opacity:1; fill:none" points="
  258.539,1800.78 258.539,1781.88 
  "/>
<polyline clip-path="url(#clip520)" style="stroke:#000000; stroke-linecap:butt; stroke-linejoin:round; stroke-width:4; stroke-opacity:1; fill:none" points="
  836.747,1800.78 836.747,1781.88 
  "/>
<polyline clip-path="url(#clip520)" style="stroke:#000000; stroke-linecap:butt; stroke-linejoin:round; stroke-width:4; stroke-opacity:1; fill:none" points="
  1414.95,1800.78 1414.95,1781.88 
  "/>
<polyline clip-path="url(#clip520)" style="stroke:#000000; stroke-linecap:butt; stroke-linejoin:round; stroke-width:4; stroke-opacity:1; fill:none" points="
  1993.16,1800.78 1993.16,1781.88 
  "/>
<polyline clip-path="url(#clip520)" style="stroke:#000000; stroke-linecap:butt; stroke-linejoin:round; stroke-width:4; stroke-opacity:1; fill:none" points="
  2571.37,1800.78 2571.37,1781.88 
  "/>
<path clip-path="url(#clip520)" d="M205.067 1848.65 L234.743 1848.65 L234.743 1852.59 L205.067 1852.59 L205.067 1848.65 Z" fill="#000000" fill-rule="evenodd" fill-opacity="1" /><path clip-path="url(#clip520)" d="M245.646 1861.55 L253.284 1861.55 L253.284 1835.18 L244.974 1836.85 L244.974 1832.59 L253.238 1830.92 L257.914 1830.92 L257.914 1861.55 L265.553 1861.55 L265.553 1865.48 L245.646 1865.48 L245.646 1861.55 Z" fill="#000000" fill-rule="evenodd" fill-opacity="1" /><path clip-path="url(#clip520)" d="M274.997 1859.6 L279.881 1859.6 L279.881 1865.48 L274.997 1865.48 L274.997 1859.6 Z" fill="#000000" fill-rule="evenodd" fill-opacity="1" /><path clip-path="url(#clip520)" d="M300.067 1834 Q296.455 1834 294.627 1837.57 Q292.821 1841.11 292.821 1848.24 Q292.821 1855.34 294.627 1858.91 Q296.455 1862.45 300.067 1862.45 Q303.701 1862.45 305.506 1858.91 Q307.335 1855.34 307.335 1848.24 Q307.335 1841.11 305.506 1837.57 Q303.701 1834 300.067 1834 M300.067 1830.3 Q305.877 1830.3 308.932 1834.9 Q312.011 1839.49 312.011 1848.24 Q312.011 1856.96 308.932 1861.57 Q305.877 1866.15 300.067 1866.15 Q294.256 1866.15 291.178 1861.57 Q288.122 1856.96 288.122 1848.24 Q288.122 1839.49 291.178 1834.9 Q294.256 1830.3 300.067 1830.3 Z" fill="#000000" fill-rule="evenodd" fill-opacity="1" /><path clip-path="url(#clip520)" d="M783.773 1848.65 L813.448 1848.65 L813.448 1852.59 L783.773 1852.59 L783.773 1848.65 Z" fill="#000000" fill-rule="evenodd" fill-opacity="1" /><path clip-path="url(#clip520)" d="M833.541 1834 Q829.93 1834 828.101 1837.57 Q826.296 1841.11 826.296 1848.24 Q826.296 1855.34 828.101 1858.91 Q829.93 1862.45 833.541 1862.45 Q837.175 1862.45 838.981 1858.91 Q840.809 1855.34 840.809 1848.24 Q840.809 1841.11 838.981 1837.57 Q837.175 1834 833.541 1834 M833.541 1830.3 Q839.351 1830.3 842.407 1834.9 Q845.485 1839.49 845.485 1848.24 Q845.485 1856.96 842.407 1861.57 Q839.351 1866.15 833.541 1866.15 Q827.731 1866.15 824.652 1861.57 Q821.597 1856.96 821.597 1848.24 Q821.597 1839.49 824.652 1834.9 Q827.731 1830.3 833.541 1830.3 Z" fill="#000000" fill-rule="evenodd" fill-opacity="1" /><path clip-path="url(#clip520)" d="M853.703 1859.6 L858.587 1859.6 L858.587 1865.48 L853.703 1865.48 L853.703 1859.6 Z" fill="#000000" fill-rule="evenodd" fill-opacity="1" /><path clip-path="url(#clip520)" d="M868.819 1830.92 L887.175 1830.92 L887.175 1834.86 L873.101 1834.86 L873.101 1843.33 Q874.119 1842.98 875.138 1842.82 Q876.156 1842.64 877.175 1842.64 Q882.962 1842.64 886.342 1845.81 Q889.721 1848.98 889.721 1854.4 Q889.721 1859.97 886.249 1863.08 Q882.777 1866.15 876.457 1866.15 Q874.281 1866.15 872.013 1865.78 Q869.768 1865.41 867.36 1864.67 L867.36 1859.97 Q869.444 1861.11 871.666 1861.66 Q873.888 1862.22 876.365 1862.22 Q880.369 1862.22 882.707 1860.11 Q885.045 1858.01 885.045 1854.4 Q885.045 1850.78 882.707 1848.68 Q880.369 1846.57 876.365 1846.57 Q874.49 1846.57 872.615 1846.99 Q870.763 1847.4 868.819 1848.28 L868.819 1830.92 Z" fill="#000000" fill-rule="evenodd" fill-opacity="1" /><path clip-path="url(#clip520)" d="M1392.34 1834 Q1388.73 1834 1386.9 1837.57 Q1385.09 1841.11 1385.09 1848.24 Q1385.09 1855.34 1386.9 1858.91 Q1388.73 1862.45 1392.34 1862.45 Q1395.97 1862.45 1397.78 1858.91 Q1399.61 1855.34 1399.61 1848.24 Q1399.61 1841.11 1397.78 1837.57 Q1395.97 1834 1392.34 1834 M1392.34 1830.3 Q1398.15 1830.3 1401.21 1834.9 Q1404.28 1839.49 1404.28 1848.24 Q1404.28 1856.96 1401.21 1861.57 Q1398.15 1866.15 1392.34 1866.15 Q1386.53 1866.15 1383.45 1861.57 Q1380.39 1856.96 1380.39 1848.24 Q1380.39 1839.49 1383.45 1834.9 Q1386.53 1830.3 1392.34 1830.3 Z" fill="#000000" fill-rule="evenodd" fill-opacity="1" /><path clip-path="url(#clip520)" d="M1412.5 1859.6 L1417.39 1859.6 L1417.39 1865.48 L1412.5 1865.48 L1412.5 1859.6 Z" fill="#000000" fill-rule="evenodd" fill-opacity="1" /><path clip-path="url(#clip520)" d="M1437.57 1834 Q1433.96 1834 1432.13 1837.57 Q1430.33 1841.11 1430.33 1848.24 Q1430.33 1855.34 1432.13 1858.91 Q1433.96 1862.45 1437.57 1862.45 Q1441.2 1862.45 1443.01 1858.91 Q1444.84 1855.34 1444.84 1848.24 Q1444.84 1841.11 1443.01 1837.57 Q1441.2 1834 1437.57 1834 M1437.57 1830.3 Q1443.38 1830.3 1446.44 1834.9 Q1449.51 1839.49 1449.51 1848.24 Q1449.51 1856.96 1446.44 1861.57 Q1443.38 1866.15 1437.57 1866.15 Q1431.76 1866.15 1428.68 1861.57 Q1425.63 1856.96 1425.63 1848.24 Q1425.63 1839.49 1428.68 1834.9 Q1431.76 1830.3 1437.57 1830.3 Z" fill="#000000" fill-rule="evenodd" fill-opacity="1" /><path clip-path="url(#clip520)" d="M1971.05 1834 Q1967.43 1834 1965.61 1837.57 Q1963.8 1841.11 1963.8 1848.24 Q1963.8 1855.34 1965.61 1858.91 Q1967.43 1862.45 1971.05 1862.45 Q1974.68 1862.45 1976.48 1858.91 Q1978.31 1855.34 1978.31 1848.24 Q1978.31 1841.11 1976.48 1837.57 Q1974.68 1834 1971.05 1834 M1971.05 1830.3 Q1976.86 1830.3 1979.91 1834.9 Q1982.99 1839.49 1982.99 1848.24 Q1982.99 1856.96 1979.91 1861.57 Q1976.86 1866.15 1971.05 1866.15 Q1965.23 1866.15 1962.16 1861.57 Q1959.1 1856.96 1959.1 1848.24 Q1959.1 1839.49 1962.16 1834.9 Q1965.23 1830.3 1971.05 1830.3 Z" fill="#000000" fill-rule="evenodd" fill-opacity="1" /><path clip-path="url(#clip520)" d="M1991.21 1859.6 L1996.09 1859.6 L1996.09 1865.48 L1991.21 1865.48 L1991.21 1859.6 Z" fill="#000000" fill-rule="evenodd" fill-opacity="1" /><path clip-path="url(#clip520)" d="M2006.32 1830.92 L2024.68 1830.92 L2024.68 1834.86 L2010.6 1834.86 L2010.6 1843.33 Q2011.62 1842.98 2012.64 1842.82 Q2013.66 1842.64 2014.68 1842.64 Q2020.47 1842.64 2023.85 1845.81 Q2027.23 1848.98 2027.23 1854.4 Q2027.23 1859.97 2023.75 1863.08 Q2020.28 1866.15 2013.96 1866.15 Q2011.79 1866.15 2009.52 1865.78 Q2007.27 1865.41 2004.86 1864.67 L2004.86 1859.97 Q2006.95 1861.11 2009.17 1861.66 Q2011.39 1862.22 2013.87 1862.22 Q2017.87 1862.22 2020.21 1860.11 Q2022.55 1858.01 2022.55 1854.4 Q2022.55 1850.78 2020.21 1848.68 Q2017.87 1846.57 2013.87 1846.57 Q2011.99 1846.57 2010.12 1846.99 Q2008.27 1847.4 2006.32 1848.28 L2006.32 1830.92 Z" fill="#000000" fill-rule="evenodd" fill-opacity="1" /><path clip-path="url(#clip520)" d="M2538.52 1861.55 L2546.16 1861.55 L2546.16 1835.18 L2537.85 1836.85 L2537.85 1832.59 L2546.12 1830.92 L2550.79 1830.92 L2550.79 1861.55 L2558.43 1861.55 L2558.43 1865.48 L2538.52 1865.48 L2538.52 1861.55 Z" fill="#000000" fill-rule="evenodd" fill-opacity="1" /><path clip-path="url(#clip520)" d="M2567.88 1859.6 L2572.76 1859.6 L2572.76 1865.48 L2567.88 1865.48 L2567.88 1859.6 Z" fill="#000000" fill-rule="evenodd" fill-opacity="1" /><path clip-path="url(#clip520)" d="M2592.94 1834 Q2589.33 1834 2587.51 1837.57 Q2585.7 1841.11 2585.7 1848.24 Q2585.7 1855.34 2587.51 1858.91 Q2589.33 1862.45 2592.94 1862.45 Q2596.58 1862.45 2598.38 1858.91 Q2600.21 1855.34 2600.21 1848.24 Q2600.21 1841.11 2598.38 1837.57 Q2596.58 1834 2592.94 1834 M2592.94 1830.3 Q2598.76 1830.3 2601.81 1834.9 Q2604.89 1839.49 2604.89 1848.24 Q2604.89 1856.96 2601.81 1861.57 Q2598.76 1866.15 2592.94 1866.15 Q2587.13 1866.15 2584.06 1861.57 Q2581 1856.96 2581 1848.24 Q2581 1839.49 2584.06 1834.9 Q2587.13 1830.3 2592.94 1830.3 Z" fill="#000000" fill-rule="evenodd" fill-opacity="1" /><polyline clip-path="url(#clip522)" style="stroke:#000000; stroke-linecap:butt; stroke-linejoin:round; stroke-width:2; stroke-opacity:0.1; fill:none" points="
  189.154,1751.15 2640.76,1751.15 
  "/>
<polyline clip-path="url(#clip522)" style="stroke:#000000; stroke-linecap:butt; stroke-linejoin:round; stroke-width:2; stroke-opacity:0.1; fill:none" points="
  189.154,1337.58 2640.76,1337.58 
  "/>
<polyline clip-path="url(#clip522)" style="stroke:#000000; stroke-linecap:butt; stroke-linejoin:round; stroke-width:2; stroke-opacity:0.1; fill:none" points="
  189.154,924.012 2640.76,924.012 
  "/>
<polyline clip-path="url(#clip522)" style="stroke:#000000; stroke-linecap:butt; stroke-linejoin:round; stroke-width:2; stroke-opacity:0.1; fill:none" points="
  189.154,510.442 2640.76,510.442 
  "/>
<polyline clip-path="url(#clip522)" style="stroke:#000000; stroke-linecap:butt; stroke-linejoin:round; stroke-width:2; stroke-opacity:0.1; fill:none" points="
  189.154,96.8724 2640.76,96.8724 
  "/>
<polyline clip-path="url(#clip520)" style="stroke:#000000; stroke-linecap:butt; stroke-linejoin:round; stroke-width:4; stroke-opacity:1; fill:none" points="
  189.154,1800.78 189.154,47.2441 
  "/>
<polyline clip-path="url(#clip520)" style="stroke:#000000; stroke-linecap:butt; stroke-linejoin:round; stroke-width:4; stroke-opacity:1; fill:none" points="
  189.154,1751.15 208.052,1751.15 
  "/>
<polyline clip-path="url(#clip520)" style="stroke:#000000; stroke-linecap:butt; stroke-linejoin:round; stroke-width:4; stroke-opacity:1; fill:none" points="
  189.154,1337.58 208.052,1337.58 
  "/>
<polyline clip-path="url(#clip520)" style="stroke:#000000; stroke-linecap:butt; stroke-linejoin:round; stroke-width:4; stroke-opacity:1; fill:none" points="
  189.154,924.012 208.052,924.012 
  "/>
<polyline clip-path="url(#clip520)" style="stroke:#000000; stroke-linecap:butt; stroke-linejoin:round; stroke-width:4; stroke-opacity:1; fill:none" points="
  189.154,510.442 208.052,510.442 
  "/>
<polyline clip-path="url(#clip520)" style="stroke:#000000; stroke-linecap:butt; stroke-linejoin:round; stroke-width:4; stroke-opacity:1; fill:none" points="
  189.154,96.8724 208.052,96.8724 
  "/>
<path clip-path="url(#clip520)" d="M61.4965 1736.95 Q57.8854 1736.95 56.0567 1740.51 Q54.2512 1744.06 54.2512 1751.19 Q54.2512 1758.29 56.0567 1761.86 Q57.8854 1765.4 61.4965 1765.4 Q65.1307 1765.4 66.9363 1761.86 Q68.765 1758.29 68.765 1751.19 Q68.765 1744.06 66.9363 1740.51 Q65.1307 1736.95 61.4965 1736.95 M61.4965 1733.25 Q67.3067 1733.25 70.3622 1737.85 Q73.4409 1742.44 73.4409 1751.19 Q73.4409 1759.91 70.3622 1764.52 Q67.3067 1769.1 61.4965 1769.1 Q55.6864 1769.1 52.6077 1764.52 Q49.5521 1759.91 49.5521 1751.19 Q49.5521 1742.44 52.6077 1737.85 Q55.6864 1733.25 61.4965 1733.25 Z" fill="#000000" fill-rule="evenodd" fill-opacity="1" /><path clip-path="url(#clip520)" d="M81.6584 1762.55 L86.5427 1762.55 L86.5427 1768.43 L81.6584 1768.43 L81.6584 1762.55 Z" fill="#000000" fill-rule="evenodd" fill-opacity="1" /><path clip-path="url(#clip520)" d="M106.728 1736.95 Q103.117 1736.95 101.288 1740.51 Q99.4824 1744.06 99.4824 1751.19 Q99.4824 1758.29 101.288 1761.86 Q103.117 1765.4 106.728 1765.4 Q110.362 1765.4 112.168 1761.86 Q113.996 1758.29 113.996 1751.19 Q113.996 1744.06 112.168 1740.51 Q110.362 1736.95 106.728 1736.95 M106.728 1733.25 Q112.538 1733.25 115.593 1737.85 Q118.672 1742.44 118.672 1751.19 Q118.672 1759.91 115.593 1764.52 Q112.538 1769.1 106.728 1769.1 Q100.918 1769.1 97.8389 1764.52 Q94.7834 1759.91 94.7834 1751.19 Q94.7834 1742.44 97.8389 1737.85 Q100.918 1733.25 106.728 1733.25 Z" fill="#000000" fill-rule="evenodd" fill-opacity="1" /><path clip-path="url(#clip520)" d="M136.89 1736.95 Q133.279 1736.95 131.45 1740.51 Q129.644 1744.06 129.644 1751.19 Q129.644 1758.29 131.45 1761.86 Q133.279 1765.4 136.89 1765.4 Q140.524 1765.4 142.329 1761.86 Q144.158 1758.29 144.158 1751.19 Q144.158 1744.06 142.329 1740.51 Q140.524 1736.95 136.89 1736.95 M136.89 1733.25 Q142.7 1733.25 145.755 1737.85 Q148.834 1742.44 148.834 1751.19 Q148.834 1759.91 145.755 1764.52 Q142.7 1769.1 136.89 1769.1 Q131.079 1769.1 128.001 1764.52 Q124.945 1759.91 124.945 1751.19 Q124.945 1742.44 128.001 1737.85 Q131.079 1733.25 136.89 1733.25 Z" fill="#000000" fill-rule="evenodd" fill-opacity="1" /><path clip-path="url(#clip520)" d="M62.4919 1323.38 Q58.8808 1323.38 57.0521 1326.94 Q55.2465 1330.49 55.2465 1337.62 Q55.2465 1344.72 57.0521 1348.29 Q58.8808 1351.83 62.4919 1351.83 Q66.1261 1351.83 67.9317 1348.29 Q69.7604 1344.72 69.7604 1337.62 Q69.7604 1330.49 67.9317 1326.94 Q66.1261 1323.38 62.4919 1323.38 M62.4919 1319.68 Q68.302 1319.68 71.3576 1324.28 Q74.4363 1328.87 74.4363 1337.62 Q74.4363 1346.34 71.3576 1350.95 Q68.302 1355.53 62.4919 1355.53 Q56.6817 1355.53 53.603 1350.95 Q50.5475 1346.34 50.5475 1337.62 Q50.5475 1328.87 53.603 1324.28 Q56.6817 1319.68 62.4919 1319.68 Z" fill="#000000" fill-rule="evenodd" fill-opacity="1" /><path clip-path="url(#clip520)" d="M82.6538 1348.98 L87.538 1348.98 L87.538 1354.86 L82.6538 1354.86 L82.6538 1348.98 Z" fill="#000000" fill-rule="evenodd" fill-opacity="1" /><path clip-path="url(#clip520)" d="M101.751 1350.93 L118.07 1350.93 L118.07 1354.86 L96.126 1354.86 L96.126 1350.93 Q98.788 1348.17 103.371 1343.54 Q107.978 1338.89 109.158 1337.55 Q111.404 1335.02 112.283 1333.29 Q113.186 1331.53 113.186 1329.84 Q113.186 1327.08 111.242 1325.35 Q109.32 1323.61 106.218 1323.61 Q104.019 1323.61 101.566 1324.38 Q99.1352 1325.14 96.3574 1326.69 L96.3574 1321.97 Q99.1815 1320.83 101.635 1320.26 Q104.089 1319.68 106.126 1319.68 Q111.496 1319.68 114.691 1322.36 Q117.885 1325.05 117.885 1329.54 Q117.885 1331.67 117.075 1333.59 Q116.288 1335.49 114.181 1338.08 Q113.603 1338.75 110.501 1341.97 Q107.399 1345.16 101.751 1350.93 Z" fill="#000000" fill-rule="evenodd" fill-opacity="1" /><path clip-path="url(#clip520)" d="M127.931 1320.3 L146.288 1320.3 L146.288 1324.24 L132.214 1324.24 L132.214 1332.71 Q133.232 1332.36 134.251 1332.2 Q135.269 1332.01 136.288 1332.01 Q142.075 1332.01 145.454 1335.19 Q148.834 1338.36 148.834 1343.77 Q148.834 1349.35 145.362 1352.45 Q141.89 1355.53 135.57 1355.53 Q133.394 1355.53 131.126 1355.16 Q128.88 1354.79 126.473 1354.05 L126.473 1349.35 Q128.556 1350.49 130.779 1351.04 Q133.001 1351.6 135.478 1351.6 Q139.482 1351.6 141.82 1349.49 Q144.158 1347.38 144.158 1343.77 Q144.158 1340.16 141.82 1338.06 Q139.482 1335.95 135.478 1335.95 Q133.603 1335.95 131.728 1336.37 Q129.876 1336.78 127.931 1337.66 L127.931 1320.3 Z" fill="#000000" fill-rule="evenodd" fill-opacity="1" /><path clip-path="url(#clip520)" d="M61.4965 909.81 Q57.8854 909.81 56.0567 913.375 Q54.2512 916.917 54.2512 924.046 Q54.2512 931.153 56.0567 934.718 Q57.8854 938.259 61.4965 938.259 Q65.1307 938.259 66.9363 934.718 Q68.765 931.153 68.765 924.046 Q68.765 916.917 66.9363 913.375 Q65.1307 909.81 61.4965 909.81 M61.4965 906.107 Q67.3067 906.107 70.3622 910.713 Q73.4409 915.296 73.4409 924.046 Q73.4409 932.773 70.3622 937.38 Q67.3067 941.963 61.4965 941.963 Q55.6864 941.963 52.6077 937.38 Q49.5521 932.773 49.5521 924.046 Q49.5521 915.296 52.6077 910.713 Q55.6864 906.107 61.4965 906.107 Z" fill="#000000" fill-rule="evenodd" fill-opacity="1" /><path clip-path="url(#clip520)" d="M81.6584 935.412 L86.5427 935.412 L86.5427 941.292 L81.6584 941.292 L81.6584 935.412 Z" fill="#000000" fill-rule="evenodd" fill-opacity="1" /><path clip-path="url(#clip520)" d="M96.7741 906.732 L115.13 906.732 L115.13 910.667 L101.056 910.667 L101.056 919.139 Q102.075 918.792 103.094 918.63 Q104.112 918.445 105.131 918.445 Q110.918 918.445 114.297 921.616 Q117.677 924.787 117.677 930.204 Q117.677 935.782 114.205 938.884 Q110.732 941.963 104.413 941.963 Q102.237 941.963 99.9685 941.593 Q97.7232 941.222 95.3158 940.482 L95.3158 935.782 Q97.3991 936.917 99.6213 937.472 Q101.844 938.028 104.32 938.028 Q108.325 938.028 110.663 935.921 Q113.001 933.815 113.001 930.204 Q113.001 926.593 110.663 924.486 Q108.325 922.38 104.32 922.38 Q102.445 922.38 100.57 922.796 Q98.7185 923.213 96.7741 924.093 L96.7741 906.732 Z" fill="#000000" fill-rule="evenodd" fill-opacity="1" /><path clip-path="url(#clip520)" d="M136.89 909.81 Q133.279 909.81 131.45 913.375 Q129.644 916.917 129.644 924.046 Q129.644 931.153 131.45 934.718 Q133.279 938.259 136.89 938.259 Q140.524 938.259 142.329 934.718 Q144.158 931.153 144.158 924.046 Q144.158 916.917 142.329 913.375 Q140.524 909.81 136.89 909.81 M136.89 906.107 Q142.7 906.107 145.755 910.713 Q148.834 915.296 148.834 924.046 Q148.834 932.773 145.755 937.38 Q142.7 941.963 136.89 941.963 Q131.079 941.963 128.001 937.38 Q124.945 932.773 124.945 924.046 Q124.945 915.296 128.001 910.713 Q131.079 906.107 136.89 906.107 Z" fill="#000000" fill-rule="evenodd" fill-opacity="1" /><path clip-path="url(#clip520)" d="M62.4919 496.241 Q58.8808 496.241 57.0521 499.806 Q55.2465 503.347 55.2465 510.477 Q55.2465 517.583 57.0521 521.148 Q58.8808 524.69 62.4919 524.69 Q66.1261 524.69 67.9317 521.148 Q69.7604 517.583 69.7604 510.477 Q69.7604 503.347 67.9317 499.806 Q66.1261 496.241 62.4919 496.241 M62.4919 492.537 Q68.302 492.537 71.3576 497.144 Q74.4363 501.727 74.4363 510.477 Q74.4363 519.204 71.3576 523.81 Q68.302 528.393 62.4919 528.393 Q56.6817 528.393 53.603 523.81 Q50.5475 519.204 50.5475 510.477 Q50.5475 501.727 53.603 497.144 Q56.6817 492.537 62.4919 492.537 Z" fill="#000000" fill-rule="evenodd" fill-opacity="1" /><path clip-path="url(#clip520)" d="M82.6538 521.842 L87.538 521.842 L87.538 527.722 L82.6538 527.722 L82.6538 521.842 Z" fill="#000000" fill-rule="evenodd" fill-opacity="1" /><path clip-path="url(#clip520)" d="M96.5426 493.162 L118.765 493.162 L118.765 495.153 L106.218 527.722 L101.334 527.722 L113.14 497.097 L96.5426 497.097 L96.5426 493.162 Z" fill="#000000" fill-rule="evenodd" fill-opacity="1" /><path clip-path="url(#clip520)" d="M127.931 493.162 L146.288 493.162 L146.288 497.097 L132.214 497.097 L132.214 505.569 Q133.232 505.222 134.251 505.06 Q135.269 504.875 136.288 504.875 Q142.075 504.875 145.454 508.046 Q148.834 511.218 148.834 516.634 Q148.834 522.213 145.362 525.315 Q141.89 528.393 135.57 528.393 Q133.394 528.393 131.126 528.023 Q128.88 527.653 126.473 526.912 L126.473 522.213 Q128.556 523.347 130.779 523.903 Q133.001 524.458 135.478 524.458 Q139.482 524.458 141.82 522.352 Q144.158 520.245 144.158 516.634 Q144.158 513.023 141.82 510.917 Q139.482 508.81 135.478 508.81 Q133.603 508.81 131.728 509.227 Q129.876 509.643 127.931 510.523 L127.931 493.162 Z" fill="#000000" fill-rule="evenodd" fill-opacity="1" /><path clip-path="url(#clip520)" d="M52.3067 110.217 L59.9456 110.217 L59.9456 83.8517 L51.6354 85.5183 L51.6354 81.2591 L59.8993 79.5924 L64.5752 79.5924 L64.5752 110.217 L72.214 110.217 L72.214 114.152 L52.3067 114.152 L52.3067 110.217 Z" fill="#000000" fill-rule="evenodd" fill-opacity="1" /><path clip-path="url(#clip520)" d="M81.6584 108.273 L86.5427 108.273 L86.5427 114.152 L81.6584 114.152 L81.6584 108.273 Z" fill="#000000" fill-rule="evenodd" fill-opacity="1" /><path clip-path="url(#clip520)" d="M106.728 82.6711 Q103.117 82.6711 101.288 86.2359 Q99.4824 89.7776 99.4824 96.9072 Q99.4824 104.014 101.288 107.578 Q103.117 111.12 106.728 111.12 Q110.362 111.12 112.168 107.578 Q113.996 104.014 113.996 96.9072 Q113.996 89.7776 112.168 86.2359 Q110.362 82.6711 106.728 82.6711 M106.728 78.9675 Q112.538 78.9675 115.593 83.5739 Q118.672 88.1572 118.672 96.9072 Q118.672 105.634 115.593 110.24 Q112.538 114.824 106.728 114.824 Q100.918 114.824 97.8389 110.24 Q94.7834 105.634 94.7834 96.9072 Q94.7834 88.1572 97.8389 83.5739 Q100.918 78.9675 106.728 78.9675 Z" fill="#000000" fill-rule="evenodd" fill-opacity="1" /><path clip-path="url(#clip520)" d="M136.89 82.6711 Q133.279 82.6711 131.45 86.2359 Q129.644 89.7776 129.644 96.9072 Q129.644 104.014 131.45 107.578 Q133.279 111.12 136.89 111.12 Q140.524 111.12 142.329 107.578 Q144.158 104.014 144.158 96.9072 Q144.158 89.7776 142.329 86.2359 Q140.524 82.6711 136.89 82.6711 M136.89 78.9675 Q142.7 78.9675 145.755 83.5739 Q148.834 88.1572 148.834 96.9072 Q148.834 105.634 145.755 110.24 Q142.7 114.824 136.89 114.824 Q131.079 114.824 128.001 110.24 Q124.945 105.634 124.945 96.9072 Q124.945 88.1572 128.001 83.5739 Q131.079 78.9675 136.89 78.9675 Z" fill="#000000" fill-rule="evenodd" fill-opacity="1" /><polyline clip-path="url(#clip522)" style="stroke:#009af9; stroke-linecap:butt; stroke-linejoin:round; stroke-width:4; stroke-opacity:1; fill:none" points="
  258.539,96.8724 273.597,107.643 412.828,207.229 496.5,267.077 567.244,317.677 644.091,372.643 714.938,423.317 790.893,477.644 878.894,540.588 957.099,596.525 
  1025.68,645.577 1100.45,699.057 1175.66,752.854 1258.82,812.334 1337.94,868.928 1420.21,927.772 1489.47,977.307 1574.02,1037.78 1651.47,1093.18 1723.01,1144.35 
  1795.47,1196.18 1876.68,1254.26 1950.27,1306.9 2034.52,1367.16 2112.53,1422.96 2189.45,1477.97 2264.12,1531.39 2340.67,1586.14 2424.54,1646.13 2546.38,1733.27 
  2571.37,1751.15 
  "/>
<polyline clip-path="url(#clip522)" style="stroke:#e26f46; stroke-linecap:butt; stroke-linejoin:round; stroke-width:4; stroke-opacity:1; fill:none" points="
  258.539,1751.15 273.597,1751.15 412.828,1751.15 496.5,1751.15 567.244,1751.15 644.091,1751.15 714.938,1751.15 790.893,1751.15 878.894,1751.15 957.099,1751.15 
  1025.68,1751.15 1100.45,1751.15 1175.66,1751.15 1258.82,1751.15 1337.94,1751.15 1420.21,1751.15 1489.47,1751.15 1574.02,1751.15 1651.47,1751.15 1723.01,1751.15 
  1795.47,1751.15 1876.68,1751.15 1950.27,1751.15 2034.52,1751.15 2112.53,1751.15 2189.45,1751.15 2264.12,1751.15 2340.67,1751.15 2424.54,1751.15 2546.38,1751.15 
  2571.37,1751.15 
  "/>
<path clip-path="url(#clip520)" d="
M2234.21 261.215 L2559.04 261.215 L2559.04 105.695 L2234.21 105.695  Z
  " fill="#ffffff" fill-rule="evenodd" fill-opacity="1"/>
<polyline clip-path="url(#clip520)" style="stroke:#000000; stroke-linecap:butt; stroke-linejoin:round; stroke-width:4; stroke-opacity:1; fill:none" points="
  2234.21,261.215 2559.04,261.215 2559.04,105.695 2234.21,105.695 2234.21,261.215 
  "/>
<polyline clip-path="url(#clip520)" style="stroke:#009af9; stroke-linecap:butt; stroke-linejoin:round; stroke-width:4; stroke-opacity:1; fill:none" points="
  2261.45,157.535 2424.89,157.535 
  "/>
<path clip-path="url(#clip520)" d="M2465.97 177.223 Q2464.16 181.852 2462.45 183.264 Q2460.74 184.676 2457.87 184.676 L2454.46 184.676 L2454.46 181.112 L2456.96 181.112 Q2458.72 181.112 2459.69 180.278 Q2460.67 179.445 2461.85 176.343 L2462.61 174.399 L2452.13 148.889 L2456.64 148.889 L2464.74 169.167 L2472.84 148.889 L2477.36 148.889 L2465.97 177.223 Z" fill="#000000" fill-rule="evenodd" fill-opacity="1" /><path clip-path="url(#clip520)" d="M2484.65 170.88 L2492.29 170.88 L2492.29 144.515 L2483.98 146.181 L2483.98 141.922 L2492.24 140.255 L2496.92 140.255 L2496.92 170.88 L2504.56 170.88 L2504.56 174.815 L2484.65 174.815 L2484.65 170.88 Z" fill="#000000" fill-rule="evenodd" fill-opacity="1" /><polyline clip-path="url(#clip520)" style="stroke:#e26f46; stroke-linecap:butt; stroke-linejoin:round; stroke-width:4; stroke-opacity:1; fill:none" points="
  2261.45,209.375 2424.89,209.375 
  "/>
<path clip-path="url(#clip520)" d="M2465.97 229.063 Q2464.16 233.692 2462.45 235.104 Q2460.74 236.516 2457.87 236.516 L2454.46 236.516 L2454.46 232.952 L2456.96 232.952 Q2458.72 232.952 2459.69 232.118 Q2460.67 231.285 2461.85 228.183 L2462.61 226.239 L2452.13 200.729 L2456.64 200.729 L2464.74 221.007 L2472.84 200.729 L2477.36 200.729 L2465.97 229.063 Z" fill="#000000" fill-rule="evenodd" fill-opacity="1" /><path clip-path="url(#clip520)" d="M2487.87 222.72 L2504.19 222.72 L2504.19 226.655 L2482.24 226.655 L2482.24 222.72 Q2484.9 219.965 2489.49 215.336 Q2494.09 210.683 2495.27 209.341 Q2497.52 206.817 2498.4 205.081 Q2499.3 203.322 2499.3 201.632 Q2499.3 198.878 2497.36 197.142 Q2495.44 195.405 2492.33 195.405 Q2490.13 195.405 2487.68 196.169 Q2485.25 196.933 2482.47 198.484 L2482.47 193.762 Q2485.3 192.628 2487.75 192.049 Q2490.2 191.47 2492.24 191.47 Q2497.61 191.47 2500.81 194.155 Q2504 196.841 2504 201.331 Q2504 203.461 2503.19 205.382 Q2502.4 207.28 2500.3 209.873 Q2499.72 210.544 2496.62 213.762 Q2493.51 216.956 2487.87 222.72 Z" fill="#000000" fill-rule="evenodd" fill-opacity="1" /></svg>
