<?xml version="1.0" encoding="utf-8"?>
<svg xmlns="http://www.w3.org/2000/svg" xmlns:xlink="http://www.w3.org/1999/xlink" width="672" height="480" viewBox="0 0 2688 1920">
<defs>
  <clipPath id="clip350">
    <rect x="0" y="0" width="2688" height="1920"/>
  </clipPath>
</defs>
<path clip-path="url(#clip350)" d="
M0 1920 L2688 1920 L2688 0 L0 0  Z
  " fill="#ffffff" fill-rule="evenodd" fill-opacity="1"/>
<defs>
  <clipPath id="clip351">
    <rect x="537" y="0" width="1883" height="1883"/>
  </clipPath>
</defs>
<path clip-path="url(#clip350)" d="
M196.816 1800.78 L2640.76 1800.78 L2640.76 47.2441 L196.816 47.2441  Z
  " fill="#ffffff" fill-rule="evenodd" fill-opacity="1"/>
<defs>
  <clipPath id="clip352">
    <rect x="196" y="47" width="2445" height="1755"/>
  </clipPath>
</defs>
<polyline clip-path="url(#clip352)" style="stroke:#000000; stroke-linecap:butt; stroke-linejoin:round; stroke-width:2; stroke-opacity:0.1; fill:none" points="
  265.984,1800.78 265.984,47.2441 
  "/>
<polyline clip-path="url(#clip352)" style="stroke:#000000; stroke-linecap:butt; stroke-linejoin:round; stroke-width:2; stroke-opacity:0.1; fill:none" points="
  650.251,1800.78 650.251,47.2441 
  "/>
<polyline clip-path="url(#clip352)" style="stroke:#000000; stroke-linecap:butt; stroke-linejoin:round; stroke-width:2; stroke-opacity:0.1; fill:none" points="
  1034.52,1800.78 1034.52,47.2441 
  "/>
<polyline clip-path="url(#clip352)" style="stroke:#000000; stroke-linecap:butt; stroke-linejoin:round; stroke-width:2; stroke-opacity:0.1; fill:none" points="
  1418.79,1800.78 1418.79,47.2441 
  "/>
<polyline clip-path="url(#clip352)" style="stroke:#000000; stroke-linecap:butt; stroke-linejoin:round; stroke-width:2; stroke-opacity:0.1; fill:none" points="
  1803.05,1800.78 1803.05,47.2441 
  "/>
<polyline clip-path="url(#clip352)" style="stroke:#000000; stroke-linecap:butt; stroke-linejoin:round; stroke-width:2; stroke-opacity:0.1; fill:none" points="
  2187.32,1800.78 2187.32,47.2441 
  "/>
<polyline clip-path="url(#clip352)" style="stroke:#000000; stroke-linecap:butt; stroke-linejoin:round; stroke-width:2; stroke-opacity:0.1; fill:none" points="
  2571.59,1800.78 2571.59,47.2441 
  "/>
<polyline clip-path="url(#clip350)" style="stroke:#000000; stroke-linecap:butt; stroke-linejoin:round; stroke-width:4; stroke-opacity:1; fill:none" points="
  196.816,1800.78 2640.76,1800.78 
  "/>
<polyline clip-path="url(#clip350)" style="stroke:#000000; stroke-linecap:butt; stroke-linejoin:round; stroke-width:4; stroke-opacity:1; fill:none" points="
  265.984,1800.78 265.984,1781.88 
  "/>
<polyline clip-path="url(#clip350)" style="stroke:#000000; stroke-linecap:butt; stroke-linejoin:round; stroke-width:4; stroke-opacity:1; fill:none" points="
  650.251,1800.78 650.251,1781.88 
  "/>
<polyline clip-path="url(#clip350)" style="stroke:#000000; stroke-linecap:butt; stroke-linejoin:round; stroke-width:4; stroke-opacity:1; fill:none" points="
  1034.52,1800.78 1034.52,1781.88 
  "/>
<polyline clip-path="url(#clip350)" style="stroke:#000000; stroke-linecap:butt; stroke-linejoin:round; stroke-width:4; stroke-opacity:1; fill:none" points="
  1418.79,1800.78 1418.79,1781.88 
  "/>
<polyline clip-path="url(#clip350)" style="stroke:#000000; stroke-linecap:butt; stroke-linejoin:round; stroke-width:4; stroke-opacity:1; fill:none" points="
  1803.05,1800.78 1803.05,1781.88 
  "/>
<polyline clip-path="url(#clip350)" style="stroke:#000000; stroke-linecap:butt; stroke-linejoin:round; stroke-width:4; stroke-opacity:1; fill:none" points="
  2187.32,1800.78 2187.32,1781.88 
  "/>
<polyline clip-path="url(#clip350)" style="stroke:#000000; stroke-linecap:butt; stroke-linejoin:round; stroke-width:4; stroke-opacity:1; fill:none" points="
  2571.59,1800.78 2571.59,1781.88 
  "/>
<path clip-path="url(#clip350)" d="M235.452 1848.65 L265.128 1848.65 L265.128 1852.59 L235.452 1852.59 L235.452 1848.65 Z" fill="#000000" fill-rule="evenodd" fill-opacity="1" /><path clip-path="url(#clip350)" d="M289.387 1846.85 Q292.743 1847.57 294.618 1849.84 Q296.516 1852.1 296.516 1855.44 Q296.516 1860.55 292.998 1863.35 Q289.479 1866.15 282.998 1866.15 Q280.822 1866.15 278.507 1865.71 Q276.216 1865.3 273.762 1864.44 L273.762 1859.93 Q275.706 1861.06 278.021 1861.64 Q280.336 1862.22 282.859 1862.22 Q287.257 1862.22 289.549 1860.48 Q291.864 1858.75 291.864 1855.44 Q291.864 1852.38 289.711 1850.67 Q287.581 1848.93 283.762 1848.93 L279.734 1848.93 L279.734 1845.09 L283.947 1845.09 Q287.396 1845.09 289.225 1843.72 Q291.053 1842.34 291.053 1839.74 Q291.053 1837.08 289.155 1835.67 Q287.28 1834.23 283.762 1834.23 Q281.841 1834.23 279.641 1834.65 Q277.442 1835.07 274.804 1835.95 L274.804 1831.78 Q277.466 1831.04 279.78 1830.67 Q282.118 1830.3 284.178 1830.3 Q289.503 1830.3 292.604 1832.73 Q295.706 1835.14 295.706 1839.26 Q295.706 1842.13 294.063 1844.12 Q292.419 1846.09 289.387 1846.85 Z" fill="#000000" fill-rule="evenodd" fill-opacity="1" /><path clip-path="url(#clip350)" d="M620.194 1848.65 L649.869 1848.65 L649.869 1852.59 L620.194 1852.59 L620.194 1848.65 Z" fill="#000000" fill-rule="evenodd" fill-opacity="1" /><path clip-path="url(#clip350)" d="M663.99 1861.55 L680.309 1861.55 L680.309 1865.48 L658.365 1865.48 L658.365 1861.55 Q661.027 1858.79 665.61 1854.16 Q670.217 1849.51 671.397 1848.17 Q673.642 1845.65 674.522 1843.91 Q675.425 1842.15 675.425 1840.46 Q675.425 1837.71 673.48 1835.97 Q671.559 1834.23 668.457 1834.23 Q666.258 1834.23 663.805 1835 Q661.374 1835.76 658.596 1837.31 L658.596 1832.59 Q661.42 1831.46 663.874 1830.88 Q666.328 1830.3 668.365 1830.3 Q673.735 1830.3 676.929 1832.98 Q680.124 1835.67 680.124 1840.16 Q680.124 1842.29 679.314 1844.21 Q678.527 1846.11 676.42 1848.7 Q675.842 1849.37 672.74 1852.59 Q669.638 1855.78 663.99 1861.55 Z" fill="#000000" fill-rule="evenodd" fill-opacity="1" /><path clip-path="url(#clip350)" d="M1004.28 1848.65 L1033.95 1848.65 L1033.95 1852.59 L1004.28 1852.59 L1004.28 1848.65 Z" fill="#000000" fill-rule="evenodd" fill-opacity="1" /><path clip-path="url(#clip350)" d="M1044.85 1861.55 L1052.49 1861.55 L1052.49 1835.18 L1044.18 1836.85 L1044.18 1832.59 L1052.45 1830.92 L1057.12 1830.92 L1057.12 1861.55 L1064.76 1861.55 L1064.76 1865.48 L1044.85 1865.48 L1044.85 1861.55 Z" fill="#000000" fill-rule="evenodd" fill-opacity="1" /><path clip-path="url(#clip350)" d="M1418.79 1834 Q1415.17 1834 1413.35 1837.57 Q1411.54 1841.11 1411.54 1848.24 Q1411.54 1855.34 1413.35 1858.91 Q1415.17 1862.45 1418.79 1862.45 Q1422.42 1862.45 1424.23 1858.91 Q1426.05 1855.34 1426.05 1848.24 Q1426.05 1841.11 1424.23 1837.57 Q1422.42 1834 1418.79 1834 M1418.79 1830.3 Q1424.6 1830.3 1427.65 1834.9 Q1430.73 1839.49 1430.73 1848.24 Q1430.73 1856.96 1427.65 1861.57 Q1424.6 1866.15 1418.79 1866.15 Q1412.98 1866.15 1409.9 1861.57 Q1406.84 1856.96 1406.84 1848.24 Q1406.84 1839.49 1409.9 1834.9 Q1412.98 1830.3 1418.79 1830.3 Z" fill="#000000" fill-rule="evenodd" fill-opacity="1" /><path clip-path="url(#clip350)" d="M1793.44 1861.55 L1801.07 1861.55 L1801.07 1835.18 L1792.76 1836.85 L1792.76 1832.59 L1801.03 1830.92 L1805.7 1830.92 L1805.7 1861.55 L1813.34 1861.55 L1813.34 1865.48 L1793.44 1865.48 L1793.44 1861.55 Z" fill="#000000" fill-rule="evenodd" fill-opacity="1" /><path clip-path="url(#clip350)" d="M2181.97 1861.55 L2198.29 1861.55 L2198.29 1865.48 L2176.35 1865.48 L2176.35 1861.55 Q2179.01 1858.79 2183.59 1854.16 Q2188.2 1849.51 2189.38 1848.17 Q2191.63 1845.65 2192.51 1843.91 Q2193.41 1842.15 2193.41 1840.46 Q2193.41 1837.71 2191.46 1835.97 Q2189.54 1834.23 2186.44 1834.23 Q2184.24 1834.23 2181.79 1835 Q2179.36 1835.76 2176.58 1837.31 L2176.58 1832.59 Q2179.4 1831.46 2181.86 1830.88 Q2184.31 1830.3 2186.35 1830.3 Q2191.72 1830.3 2194.91 1832.98 Q2198.11 1835.67 2198.11 1840.16 Q2198.11 1842.29 2197.3 1844.21 Q2196.51 1846.11 2194.4 1848.7 Q2193.83 1849.37 2190.72 1852.59 Q2187.62 1855.78 2181.97 1861.55 Z" fill="#000000" fill-rule="evenodd" fill-opacity="1" /><path clip-path="url(#clip350)" d="M2575.84 1846.85 Q2579.19 1847.57 2581.07 1849.84 Q2582.97 1852.1 2582.97 1855.44 Q2582.97 1860.55 2579.45 1863.35 Q2575.93 1866.15 2569.45 1866.15 Q2567.27 1866.15 2564.96 1865.71 Q2562.66 1865.3 2560.21 1864.44 L2560.21 1859.93 Q2562.15 1861.06 2564.47 1861.64 Q2566.78 1862.22 2569.31 1862.22 Q2573.71 1862.22 2576 1860.48 Q2578.31 1858.75 2578.31 1855.44 Q2578.31 1852.38 2576.16 1850.67 Q2574.03 1848.93 2570.21 1848.93 L2566.18 1848.93 L2566.18 1845.09 L2570.4 1845.09 Q2573.84 1845.09 2575.67 1843.72 Q2577.5 1842.34 2577.5 1839.74 Q2577.5 1837.08 2575.6 1835.67 Q2573.73 1834.23 2570.21 1834.23 Q2568.29 1834.23 2566.09 1834.65 Q2563.89 1835.07 2561.25 1835.95 L2561.25 1831.78 Q2563.91 1831.04 2566.23 1830.67 Q2568.57 1830.3 2570.63 1830.3 Q2575.95 1830.3 2579.05 1832.73 Q2582.15 1835.14 2582.15 1839.26 Q2582.15 1842.13 2580.51 1844.12 Q2578.87 1846.09 2575.84 1846.85 Z" fill="#000000" fill-rule="evenodd" fill-opacity="1" /><polyline clip-path="url(#clip352)" style="stroke:#000000; stroke-linecap:butt; stroke-linejoin:round; stroke-width:2; stroke-opacity:0.1; fill:none" points="
  196.816,1496.65 2640.76,1496.65 
  "/>
<polyline clip-path="url(#clip352)" style="stroke:#000000; stroke-linecap:butt; stroke-linejoin:round; stroke-width:2; stroke-opacity:0.1; fill:none" points="
  196.816,1178.52 2640.76,1178.52 
  "/>
<polyline clip-path="url(#clip352)" style="stroke:#000000; stroke-linecap:butt; stroke-linejoin:round; stroke-width:2; stroke-opacity:0.1; fill:none" points="
  196.816,860.386 2640.76,860.386 
  "/>
<polyline clip-path="url(#clip352)" style="stroke:#000000; stroke-linecap:butt; stroke-linejoin:round; stroke-width:2; stroke-opacity:0.1; fill:none" points="
  196.816,542.255 2640.76,542.255 
  "/>
<polyline clip-path="url(#clip352)" style="stroke:#000000; stroke-linecap:butt; stroke-linejoin:round; stroke-width:2; stroke-opacity:0.1; fill:none" points="
  196.816,224.125 2640.76,224.125 
  "/>
<polyline clip-path="url(#clip350)" style="stroke:#000000; stroke-linecap:butt; stroke-linejoin:round; stroke-width:4; stroke-opacity:1; fill:none" points="
  196.816,1800.78 196.816,47.2441 
  "/>
<polyline clip-path="url(#clip350)" style="stroke:#000000; stroke-linecap:butt; stroke-linejoin:round; stroke-width:4; stroke-opacity:1; fill:none" points="
  196.816,1496.65 215.714,1496.65 
  "/>
<polyline clip-path="url(#clip350)" style="stroke:#000000; stroke-linecap:butt; stroke-linejoin:round; stroke-width:4; stroke-opacity:1; fill:none" points="
  196.816,1178.52 215.714,1178.52 
  "/>
<polyline clip-path="url(#clip350)" style="stroke:#000000; stroke-linecap:butt; stroke-linejoin:round; stroke-width:4; stroke-opacity:1; fill:none" points="
  196.816,860.386 215.714,860.386 
  "/>
<polyline clip-path="url(#clip350)" style="stroke:#000000; stroke-linecap:butt; stroke-linejoin:round; stroke-width:4; stroke-opacity:1; fill:none" points="
  196.816,542.255 215.714,542.255 
  "/>
<polyline clip-path="url(#clip350)" style="stroke:#000000; stroke-linecap:butt; stroke-linejoin:round; stroke-width:4; stroke-opacity:1; fill:none" points="
  196.816,224.125 215.714,224.125 
  "/>
<path clip-path="url(#clip350)" d="M49.5521 1497.1 L79.2279 1497.1 L79.2279 1501.03 L49.5521 1501.03 L49.5521 1497.1 Z" fill="#000000" fill-rule="evenodd" fill-opacity="1" /><path clip-path="url(#clip350)" d="M89.3667 1479.37 L107.723 1479.37 L107.723 1483.3 L93.6491 1483.3 L93.6491 1491.77 Q94.6676 1491.43 95.6861 1491.26 Q96.7047 1491.08 97.7232 1491.08 Q103.51 1491.08 106.89 1494.25 Q110.269 1497.42 110.269 1502.84 Q110.269 1508.42 106.797 1511.52 Q103.325 1514.6 97.0056 1514.6 Q94.8297 1514.6 92.5612 1514.23 Q90.3158 1513.86 87.9084 1513.12 L87.9084 1508.42 Q89.9917 1509.55 92.2139 1510.11 Q94.4361 1510.66 96.913 1510.66 Q100.918 1510.66 103.256 1508.56 Q105.593 1506.45 105.593 1502.84 Q105.593 1499.23 103.256 1497.12 Q100.918 1495.01 96.913 1495.01 Q95.038 1495.01 93.163 1495.43 Q91.3112 1495.85 89.3667 1496.73 L89.3667 1479.37 Z" fill="#000000" fill-rule="evenodd" fill-opacity="1" /><path clip-path="url(#clip350)" d="M119.482 1508.05 L124.367 1508.05 L124.367 1513.93 L119.482 1513.93 L119.482 1508.05 Z" fill="#000000" fill-rule="evenodd" fill-opacity="1" /><path clip-path="url(#clip350)" d="M144.552 1482.45 Q140.941 1482.45 139.112 1486.01 Q137.306 1489.55 137.306 1496.68 Q137.306 1503.79 139.112 1507.35 Q140.941 1510.89 144.552 1510.89 Q148.186 1510.89 149.991 1507.35 Q151.82 1503.79 151.82 1496.68 Q151.82 1489.55 149.991 1486.01 Q148.186 1482.45 144.552 1482.45 M144.552 1478.74 Q150.362 1478.74 153.417 1483.35 Q156.496 1487.93 156.496 1496.68 Q156.496 1505.41 153.417 1510.01 Q150.362 1514.6 144.552 1514.6 Q138.741 1514.6 135.663 1510.01 Q132.607 1505.41 132.607 1496.68 Q132.607 1487.93 135.663 1483.35 Q138.741 1478.74 144.552 1478.74 Z" fill="#000000" fill-rule="evenodd" fill-opacity="1" /><path clip-path="url(#clip350)" d="M50.5475 1178.97 L80.2233 1178.97 L80.2233 1182.9 L50.5475 1182.9 L50.5475 1178.97 Z" fill="#000000" fill-rule="evenodd" fill-opacity="1" /><path clip-path="url(#clip350)" d="M94.3436 1191.86 L110.663 1191.86 L110.663 1195.8 L88.7186 1195.8 L88.7186 1191.86 Q91.3806 1189.11 95.9639 1184.48 Q100.57 1179.82 101.751 1178.48 Q103.996 1175.96 104.876 1174.22 Q105.779 1172.46 105.779 1170.77 Q105.779 1168.02 103.834 1166.28 Q101.913 1164.55 98.8111 1164.55 Q96.6121 1164.55 94.1584 1165.31 Q91.7278 1166.07 88.9501 1167.62 L88.9501 1162.9 Q91.7741 1161.77 94.2278 1161.19 Q96.6815 1160.61 98.7185 1160.61 Q104.089 1160.61 107.283 1163.3 Q110.478 1165.98 110.478 1170.47 Q110.478 1172.6 109.668 1174.52 Q108.881 1176.42 106.774 1179.01 Q106.195 1179.69 103.094 1182.9 Q99.9917 1186.1 94.3436 1191.86 Z" fill="#000000" fill-rule="evenodd" fill-opacity="1" /><path clip-path="url(#clip350)" d="M120.478 1189.92 L125.362 1189.92 L125.362 1195.8 L120.478 1195.8 L120.478 1189.92 Z" fill="#000000" fill-rule="evenodd" fill-opacity="1" /><path clip-path="url(#clip350)" d="M135.593 1161.24 L153.95 1161.24 L153.95 1165.17 L139.876 1165.17 L139.876 1173.64 Q140.894 1173.3 141.913 1173.13 Q142.931 1172.95 143.95 1172.95 Q149.737 1172.95 153.116 1176.12 Q156.496 1179.29 156.496 1184.71 Q156.496 1190.29 153.024 1193.39 Q149.552 1196.47 143.232 1196.47 Q141.056 1196.47 138.788 1196.1 Q136.542 1195.73 134.135 1194.99 L134.135 1190.29 Q136.218 1191.42 138.441 1191.98 Q140.663 1192.53 143.14 1192.53 Q147.144 1192.53 149.482 1190.43 Q151.82 1188.32 151.82 1184.71 Q151.82 1181.1 149.482 1178.99 Q147.144 1176.88 143.14 1176.88 Q141.265 1176.88 139.39 1177.3 Q137.538 1177.72 135.593 1178.6 L135.593 1161.24 Z" fill="#000000" fill-rule="evenodd" fill-opacity="1" /><path clip-path="url(#clip350)" d="M99.3204 846.184 Q95.7093 846.184 93.8806 849.749 Q92.075 853.291 92.075 860.42 Q92.075 867.527 93.8806 871.092 Q95.7093 874.633 99.3204 874.633 Q102.955 874.633 104.76 871.092 Q106.589 867.527 106.589 860.42 Q106.589 853.291 104.76 849.749 Q102.955 846.184 99.3204 846.184 M99.3204 842.481 Q105.131 842.481 108.186 847.087 Q111.265 851.67 111.265 860.42 Q111.265 869.147 108.186 873.754 Q105.131 878.337 99.3204 878.337 Q93.5102 878.337 90.4315 873.754 Q87.376 869.147 87.376 860.42 Q87.376 851.67 90.4315 847.087 Q93.5102 842.481 99.3204 842.481 Z" fill="#000000" fill-rule="evenodd" fill-opacity="1" /><path clip-path="url(#clip350)" d="M119.482 871.786 L124.367 871.786 L124.367 877.666 L119.482 877.666 L119.482 871.786 Z" fill="#000000" fill-rule="evenodd" fill-opacity="1" /><path clip-path="url(#clip350)" d="M144.552 846.184 Q140.941 846.184 139.112 849.749 Q137.306 853.291 137.306 860.42 Q137.306 867.527 139.112 871.092 Q140.941 874.633 144.552 874.633 Q148.186 874.633 149.991 871.092 Q151.82 867.527 151.82 860.42 Q151.82 853.291 149.991 849.749 Q148.186 846.184 144.552 846.184 M144.552 842.481 Q150.362 842.481 153.417 847.087 Q156.496 851.67 156.496 860.42 Q156.496 869.147 153.417 873.754 Q150.362 878.337 144.552 878.337 Q138.741 878.337 135.663 873.754 Q132.607 869.147 132.607 860.42 Q132.607 851.67 135.663 847.087 Q138.741 842.481 144.552 842.481 Z" fill="#000000" fill-rule="evenodd" fill-opacity="1" /><path clip-path="url(#clip350)" d="M94.3436 555.6 L110.663 555.6 L110.663 559.535 L88.7186 559.535 L88.7186 555.6 Q91.3806 552.845 95.9639 548.216 Q100.57 543.563 101.751 542.22 Q103.996 539.697 104.876 537.961 Q105.779 536.202 105.779 534.512 Q105.779 531.757 103.834 530.021 Q101.913 528.285 98.8111 528.285 Q96.6121 528.285 94.1584 529.049 Q91.7278 529.813 88.9501 531.364 L88.9501 526.642 Q91.7741 525.508 94.2278 524.929 Q96.6815 524.35 98.7185 524.35 Q104.089 524.35 107.283 527.035 Q110.478 529.72 110.478 534.211 Q110.478 536.341 109.668 538.262 Q108.881 540.16 106.774 542.753 Q106.195 543.424 103.094 546.642 Q99.9917 549.836 94.3436 555.6 Z" fill="#000000" fill-rule="evenodd" fill-opacity="1" /><path clip-path="url(#clip350)" d="M120.478 553.656 L125.362 553.656 L125.362 559.535 L120.478 559.535 L120.478 553.656 Z" fill="#000000" fill-rule="evenodd" fill-opacity="1" /><path clip-path="url(#clip350)" d="M135.593 524.975 L153.95 524.975 L153.95 528.91 L139.876 528.91 L139.876 537.382 Q140.894 537.035 141.913 536.873 Q142.931 536.688 143.95 536.688 Q149.737 536.688 153.116 539.859 Q156.496 543.031 156.496 548.447 Q156.496 554.026 153.024 557.128 Q149.552 560.206 143.232 560.206 Q141.056 560.206 138.788 559.836 Q136.542 559.466 134.135 558.725 L134.135 554.026 Q136.218 555.16 138.441 555.716 Q140.663 556.271 143.14 556.271 Q147.144 556.271 149.482 554.165 Q151.82 552.058 151.82 548.447 Q151.82 544.836 149.482 542.73 Q147.144 540.623 143.14 540.623 Q141.265 540.623 139.39 541.04 Q137.538 541.457 135.593 542.336 L135.593 524.975 Z" fill="#000000" fill-rule="evenodd" fill-opacity="1" /><path clip-path="url(#clip350)" d="M89.3667 206.845 L107.723 206.845 L107.723 210.78 L93.6491 210.78 L93.6491 219.252 Q94.6676 218.905 95.6861 218.743 Q96.7047 218.558 97.7232 218.558 Q103.51 218.558 106.89 221.729 Q110.269 224.9 110.269 230.317 Q110.269 235.895 106.797 238.997 Q103.325 242.076 97.0056 242.076 Q94.8297 242.076 92.5612 241.706 Q90.3158 241.335 87.9084 240.594 L87.9084 235.895 Q89.9917 237.03 92.2139 237.585 Q94.4361 238.141 96.913 238.141 Q100.918 238.141 103.256 236.034 Q105.593 233.928 105.593 230.317 Q105.593 226.706 103.256 224.599 Q100.918 222.493 96.913 222.493 Q95.038 222.493 93.163 222.909 Q91.3112 223.326 89.3667 224.206 L89.3667 206.845 Z" fill="#000000" fill-rule="evenodd" fill-opacity="1" /><path clip-path="url(#clip350)" d="M119.482 235.525 L124.367 235.525 L124.367 241.405 L119.482 241.405 L119.482 235.525 Z" fill="#000000" fill-rule="evenodd" fill-opacity="1" /><path clip-path="url(#clip350)" d="M144.552 209.923 Q140.941 209.923 139.112 213.488 Q137.306 217.03 137.306 224.159 Q137.306 231.266 139.112 234.831 Q140.941 238.372 144.552 238.372 Q148.186 238.372 149.991 234.831 Q151.82 231.266 151.82 224.159 Q151.82 217.03 149.991 213.488 Q148.186 209.923 144.552 209.923 M144.552 206.22 Q150.362 206.22 153.417 210.826 Q156.496 215.409 156.496 224.159 Q156.496 232.886 153.417 237.493 Q150.362 242.076 144.552 242.076 Q138.741 242.076 135.663 237.493 Q132.607 232.886 132.607 224.159 Q132.607 215.409 135.663 210.826 Q138.741 206.22 144.552 206.22 Z" fill="#000000" fill-rule="evenodd" fill-opacity="1" /><polyline clip-path="url(#clip352)" style="stroke:#009af9; stroke-linecap:butt; stroke-linejoin:round; stroke-width:4; stroke-opacity:1; fill:none" points="
  265.984,1751.15 269.737,1743.71 273.489,1736.29 277.242,1728.89 280.995,1721.52 315.694,1654.51 350.393,1589.58 385.092,1526.72 419.791,1465.93 461.496,1395.62 
  503.201,1328.31 538.463,1273.74 573.724,1221.31 612.028,1166.78 650.331,1114.78 685.644,1069.09 720.956,1025.54 758.815,981.241 796.674,939.412 818.606,916.31 
  840.537,894.037 862.469,872.594 884.4,851.979 923.381,817.386 962.361,785.411 996.543,759.528 1030.73,735.658 1067.99,711.928 1105.26,690.593 1142.75,671.545 
  1180.24,654.92 1221.69,639.359 1263.14,626.759 1302.58,617.519 1342.01,610.96 1383.02,606.984 1424.03,605.905 1458.55,607.244 1493.06,610.636 1514.14,613.716 
  1535.21,617.562 1556.28,622.173 1577.35,627.549 1615.96,639.384 1654.56,653.788 1690.22,669.374 1725.87,687.15 1761.99,707.391 1798.11,729.88 1838.59,757.757 
  1879.07,788.457 1915.75,818.715 1952.43,851.292 1973.42,870.985 1994.42,891.438 2015.42,912.651 2036.42,934.624 2075.3,977.321 2114.19,1022.62 2152.52,1069.84 
  2190.86,1119.58 2228.08,1170.31 2265.3,1223.42 2303.45,1280.34 2341.61,1339.78 2362.51,1373.4 2383.41,1407.78 2404.31,1442.9 2425.22,1478.78 2455.58,1532.25 
  2485.94,1587.3 2516.31,1643.95 2546.67,1702.18 2552.9,1714.32 2559.13,1726.53 2565.36,1738.81 2571.59,1751.15 
  "/>
<polyline clip-path="url(#clip352)" style="stroke:#e26f46; stroke-linecap:butt; stroke-linejoin:round; stroke-width:4; stroke-opacity:1; fill:none" points="
  265.984,1623.9 280.995,1613.96 419.791,1522.03 503.201,1466.79 573.724,1420.08 650.331,1369.34 720.956,1322.57 796.674,1272.42 884.4,1214.31 962.361,1162.68 
  1030.73,1117.4 1105.26,1068.04 1180.24,1018.38 1263.14,963.472 1342.01,911.232 1424.03,856.914 1493.06,811.19 1577.35,755.366 1654.56,704.228 1725.87,656.998 
  1798.11,609.155 1879.07,555.537 1952.43,506.95 2036.42,451.322 2114.19,399.815 2190.86,349.035 2265.3,299.732 2341.61,249.19 2425.22,193.816 2546.67,113.375 
  2571.59,96.8724 
  "/>
<path clip-path="url(#clip350)" d="
M2235.31 261.215 L2559.29 261.215 L2559.29 105.695 L2235.31 105.695  Z
  " fill="#ffffff" fill-rule="evenodd" fill-opacity="1"/>
<polyline clip-path="url(#clip350)" style="stroke:#000000; stroke-linecap:butt; stroke-linejoin:round; stroke-width:4; stroke-opacity:1; fill:none" points="
  2235.31,261.215 2559.29,261.215 2559.29,105.695 2235.31,105.695 2235.31,261.215 
  "/>
<polyline clip-path="url(#clip350)" style="stroke:#009af9; stroke-linecap:butt; stroke-linejoin:round; stroke-width:4; stroke-opacity:1; fill:none" points="
  2262.47,157.535 2425.4,157.535 
  "/>
<path clip-path="url(#clip350)" d="M2466.39 177.223 Q2464.59 181.852 2462.88 183.264 Q2461.16 184.676 2458.29 184.676 L2454.89 184.676 L2454.89 181.112 L2457.39 181.112 Q2459.15 181.112 2460.12 180.278 Q2461.09 179.445 2462.27 176.343 L2463.04 174.399 L2452.55 148.889 L2457.07 148.889 L2465.17 169.167 L2473.27 148.889 L2477.78 148.889 L2466.39 177.223 Z" fill="#000000" fill-rule="evenodd" fill-opacity="1" /><path clip-path="url(#clip350)" d="M2485.07 170.88 L2492.71 170.88 L2492.71 144.515 L2484.4 146.181 L2484.4 141.922 L2492.67 140.255 L2497.34 140.255 L2497.34 170.88 L2504.98 170.88 L2504.98 174.815 L2485.07 174.815 L2485.07 170.88 Z" fill="#000000" fill-rule="evenodd" fill-opacity="1" /><polyline clip-path="url(#clip350)" style="stroke:#e26f46; stroke-linecap:butt; stroke-linejoin:round; stroke-width:4; stroke-opacity:1; fill:none" points="
  2262.47,209.375 2425.4,209.375 
  "/>
<path clip-path="url(#clip350)" d="M2466.39 229.063 Q2464.59 233.692 2462.88 235.104 Q2461.16 236.516 2458.29 236.516 L2454.89 236.516 L2454.89 232.952 L2457.39 232.952 Q2459.15 232.952 2460.12 232.118 Q2461.09 231.285 2462.27 228.183 L2463.04 226.239 L2452.55 200.729 L2457.07 200.729 L2465.17 221.007 L2473.27 200.729 L2477.78 200.729 L2466.39 229.063 Z" fill="#000000" fill-rule="evenodd" fill-opacity="1" /><path clip-path="url(#clip350)" d="M2488.29 222.72 L2504.61 222.72 L2504.61 226.655 L2482.67 226.655 L2482.67 222.72 Q2485.33 219.965 2489.91 215.336 Q2494.52 210.683 2495.7 209.341 Q2497.94 206.817 2498.82 205.081 Q2499.73 203.322 2499.73 201.632 Q2499.73 198.878 2497.78 197.142 Q2495.86 195.405 2492.76 195.405 Q2490.56 195.405 2488.11 196.169 Q2485.68 196.933 2482.9 198.484 L2482.9 193.762 Q2485.72 192.628 2488.18 192.049 Q2490.63 191.47 2492.67 191.47 Q2498.04 191.47 2501.23 194.155 Q2504.43 196.841 2504.43 201.331 Q2504.43 203.461 2503.62 205.382 Q2502.83 207.28 2500.72 209.873 Q2500.14 210.544 2497.04 213.762 Q2493.94 216.956 2488.29 222.72 Z" fill="#000000" fill-rule="evenodd" fill-opacity="1" /></svg>
