<?xml version="1.0" encoding="utf-8"?>
<svg xmlns="http://www.w3.org/2000/svg" xmlns:xlink="http://www.w3.org/1999/xlink" width="672" height="480" viewBox="0 0 2688 1920">
<defs>
  <clipPath id="clip960">
    <rect x="0" y="0" width="2688" height="1920"/>
  </clipPath>
</defs>
<path clip-path="url(#clip960)" d="
M0 1920 L2688 1920 L2688 0 L0 0  Z
  " fill="#ffffff" fill-rule="evenodd" fill-opacity="1"/>
<defs>
  <clipPath id="clip961">
    <rect x="537" y="0" width="1883" height="1883"/>
  </clipPath>
</defs>
<path clip-path="url(#clip960)" d="
M158.992 1800.78 L2640.76 1800.78 L2640.76 47.2441 L158.992 47.2441  Z
  " fill="#ffffff" fill-rule="evenodd" fill-opacity="1"/>
<defs>
  <clipPath id="clip962">
    <rect x="158" y="47" width="2483" height="1755"/>
  </clipPath>
</defs>
<polyline clip-path="url(#clip962)" style="stroke:#000000; stroke-linecap:butt; stroke-linejoin:round; stroke-width:2; stroke-opacity:0.1; fill:none" points="
  229.231,1800.78 229.231,47.2441 
  "/>
<polyline clip-path="url(#clip962)" style="stroke:#000000; stroke-linecap:butt; stroke-linejoin:round; stroke-width:2; stroke-opacity:0.1; fill:none" points="
  749.517,1800.78 749.517,47.2441 
  "/>
<polyline clip-path="url(#clip962)" style="stroke:#000000; stroke-linecap:butt; stroke-linejoin:round; stroke-width:2; stroke-opacity:0.1; fill:none" points="
  1269.8,1800.78 1269.8,47.2441 
  "/>
<polyline clip-path="url(#clip962)" style="stroke:#000000; stroke-linecap:butt; stroke-linejoin:round; stroke-width:2; stroke-opacity:0.1; fill:none" points="
  1790.09,1800.78 1790.09,47.2441 
  "/>
<polyline clip-path="url(#clip962)" style="stroke:#000000; stroke-linecap:butt; stroke-linejoin:round; stroke-width:2; stroke-opacity:0.1; fill:none" points="
  2310.37,1800.78 2310.37,47.2441 
  "/>
<polyline clip-path="url(#clip960)" style="stroke:#000000; stroke-linecap:butt; stroke-linejoin:round; stroke-width:4; stroke-opacity:1; fill:none" points="
  158.992,1800.78 2640.76,1800.78 
  "/>
<polyline clip-path="url(#clip960)" style="stroke:#000000; stroke-linecap:butt; stroke-linejoin:round; stroke-width:4; stroke-opacity:1; fill:none" points="
  229.231,1800.78 229.231,1781.88 
  "/>
<polyline clip-path="url(#clip960)" style="stroke:#000000; stroke-linecap:butt; stroke-linejoin:round; stroke-width:4; stroke-opacity:1; fill:none" points="
  749.517,1800.78 749.517,1781.88 
  "/>
<polyline clip-path="url(#clip960)" style="stroke:#000000; stroke-linecap:butt; stroke-linejoin:round; stroke-width:4; stroke-opacity:1; fill:none" points="
  1269.8,1800.78 1269.8,1781.88 
  "/>
<polyline clip-path="url(#clip960)" style="stroke:#000000; stroke-linecap:butt; stroke-linejoin:round; stroke-width:4; stroke-opacity:1; fill:none" points="
  1790.09,1800.78 1790.09,1781.88 
  "/>
<polyline clip-path="url(#clip960)" style="stroke:#000000; stroke-linecap:butt; stroke-linejoin:round; stroke-width:4; stroke-opacity:1; fill:none" points="
  2310.37,1800.78 2310.37,1781.88 
  "/>
<path clip-path="url(#clip960)" d="M206.615 1834 Q203.004 1834 201.175 1837.57 Q199.37 1841.11 199.37 1848.24 Q199.37 1855.34 201.175 1858.91 Q203.004 1862.45 206.615 1862.45 Q210.249 1862.45 212.055 1858.91 Q213.884 1855.34 213.884 1848.24 Q213.884 1841.11 212.055 1837.57 Q210.249 1834 206.615 1834 M206.615 1830.3 Q212.425 1830.3 215.481 1834.9 Q218.559 1839.49 218.559 1848.24 Q218.559 1856.96 215.481 1861.57 Q212.425 1866.15 206.615 1866.15 Q200.805 1866.15 197.726 1861.57 Q194.671 1856.96 194.671 1848.24 Q194.671 1839.49 197.726 1834.9 Q200.805 1830.3 206.615 1830.3 Z" fill="#000000" fill-rule="evenodd" fill-opacity="1" /><path clip-path="url(#clip960)" d="M226.777 1859.6 L231.661 1859.6 L231.661 1865.48 L226.777 1865.48 L226.777 1859.6 Z" fill="#000000" fill-rule="evenodd" fill-opacity="1" /><path clip-path="url(#clip960)" d="M251.846 1834 Q248.235 1834 246.407 1837.57 Q244.601 1841.11 244.601 1848.24 Q244.601 1855.34 246.407 1858.91 Q248.235 1862.45 251.846 1862.45 Q255.481 1862.45 257.286 1858.91 Q259.115 1855.34 259.115 1848.24 Q259.115 1841.11 257.286 1837.57 Q255.481 1834 251.846 1834 M251.846 1830.3 Q257.656 1830.3 260.712 1834.9 Q263.791 1839.49 263.791 1848.24 Q263.791 1856.96 260.712 1861.57 Q257.656 1866.15 251.846 1866.15 Q246.036 1866.15 242.958 1861.57 Q239.902 1856.96 239.902 1848.24 Q239.902 1839.49 242.958 1834.9 Q246.036 1830.3 251.846 1830.3 Z" fill="#000000" fill-rule="evenodd" fill-opacity="1" /><path clip-path="url(#clip960)" d="M727.399 1834 Q723.788 1834 721.959 1837.57 Q720.153 1841.11 720.153 1848.24 Q720.153 1855.34 721.959 1858.91 Q723.788 1862.45 727.399 1862.45 Q731.033 1862.45 732.838 1858.91 Q734.667 1855.34 734.667 1848.24 Q734.667 1841.11 732.838 1837.57 Q731.033 1834 727.399 1834 M727.399 1830.3 Q733.209 1830.3 736.264 1834.9 Q739.343 1839.49 739.343 1848.24 Q739.343 1856.96 736.264 1861.57 Q733.209 1866.15 727.399 1866.15 Q721.589 1866.15 718.51 1861.57 Q715.454 1856.96 715.454 1848.24 Q715.454 1839.49 718.51 1834.9 Q721.589 1830.3 727.399 1830.3 Z" fill="#000000" fill-rule="evenodd" fill-opacity="1" /><path clip-path="url(#clip960)" d="M747.561 1859.6 L752.445 1859.6 L752.445 1865.48 L747.561 1865.48 L747.561 1859.6 Z" fill="#000000" fill-rule="evenodd" fill-opacity="1" /><path clip-path="url(#clip960)" d="M762.676 1830.92 L781.033 1830.92 L781.033 1834.86 L766.959 1834.86 L766.959 1843.33 Q767.977 1842.98 768.996 1842.82 Q770.014 1842.64 771.033 1842.64 Q776.82 1842.64 780.199 1845.81 Q783.579 1848.98 783.579 1854.4 Q783.579 1859.97 780.107 1863.08 Q776.635 1866.15 770.315 1866.15 Q768.139 1866.15 765.871 1865.78 Q763.625 1865.41 761.218 1864.67 L761.218 1859.97 Q763.301 1861.11 765.523 1861.66 Q767.746 1862.22 770.223 1862.22 Q774.227 1862.22 776.565 1860.11 Q778.903 1858.01 778.903 1854.4 Q778.903 1850.78 776.565 1848.68 Q774.227 1846.57 770.223 1846.57 Q768.348 1846.57 766.473 1846.99 Q764.621 1847.4 762.676 1848.28 L762.676 1830.92 Z" fill="#000000" fill-rule="evenodd" fill-opacity="1" /><path clip-path="url(#clip960)" d="M1236.96 1861.55 L1244.59 1861.55 L1244.59 1835.18 L1236.28 1836.85 L1236.28 1832.59 L1244.55 1830.92 L1249.22 1830.92 L1249.22 1861.55 L1256.86 1861.55 L1256.86 1865.48 L1236.96 1865.48 L1236.96 1861.55 Z" fill="#000000" fill-rule="evenodd" fill-opacity="1" /><path clip-path="url(#clip960)" d="M1266.31 1859.6 L1271.19 1859.6 L1271.19 1865.48 L1266.31 1865.48 L1266.31 1859.6 Z" fill="#000000" fill-rule="evenodd" fill-opacity="1" /><path clip-path="url(#clip960)" d="M1291.38 1834 Q1287.77 1834 1285.94 1837.57 Q1284.13 1841.11 1284.13 1848.24 Q1284.13 1855.34 1285.94 1858.91 Q1287.77 1862.45 1291.38 1862.45 Q1295.01 1862.45 1296.82 1858.91 Q1298.64 1855.34 1298.64 1848.24 Q1298.64 1841.11 1296.82 1837.57 Q1295.01 1834 1291.38 1834 M1291.38 1830.3 Q1297.19 1830.3 1300.24 1834.9 Q1303.32 1839.49 1303.32 1848.24 Q1303.32 1856.96 1300.24 1861.57 Q1297.19 1866.15 1291.38 1866.15 Q1285.57 1866.15 1282.49 1861.57 Q1279.43 1856.96 1279.43 1848.24 Q1279.43 1839.49 1282.49 1834.9 Q1285.57 1830.3 1291.38 1830.3 Z" fill="#000000" fill-rule="evenodd" fill-opacity="1" /><path clip-path="url(#clip960)" d="M1757.74 1861.55 L1765.38 1861.55 L1765.38 1835.18 L1757.07 1836.85 L1757.07 1832.59 L1765.33 1830.92 L1770.01 1830.92 L1770.01 1861.55 L1777.65 1861.55 L1777.65 1865.48 L1757.74 1865.48 L1757.74 1861.55 Z" fill="#000000" fill-rule="evenodd" fill-opacity="1" /><path clip-path="url(#clip960)" d="M1787.09 1859.6 L1791.98 1859.6 L1791.98 1865.48 L1787.09 1865.48 L1787.09 1859.6 Z" fill="#000000" fill-rule="evenodd" fill-opacity="1" /><path clip-path="url(#clip960)" d="M1802.21 1830.92 L1820.56 1830.92 L1820.56 1834.86 L1806.49 1834.86 L1806.49 1843.33 Q1807.51 1842.98 1808.53 1842.82 Q1809.54 1842.64 1810.56 1842.64 Q1816.35 1842.64 1819.73 1845.81 Q1823.11 1848.98 1823.11 1854.4 Q1823.11 1859.97 1819.64 1863.08 Q1816.16 1866.15 1809.85 1866.15 Q1807.67 1866.15 1805.4 1865.78 Q1803.16 1865.41 1800.75 1864.67 L1800.75 1859.97 Q1802.83 1861.11 1805.05 1861.66 Q1807.28 1862.22 1809.75 1862.22 Q1813.76 1862.22 1816.1 1860.11 Q1818.43 1858.01 1818.43 1854.4 Q1818.43 1850.78 1816.1 1848.68 Q1813.76 1846.57 1809.75 1846.57 Q1807.88 1846.57 1806 1846.99 Q1804.15 1847.4 1802.21 1848.28 L1802.21 1830.92 Z" fill="#000000" fill-rule="evenodd" fill-opacity="1" /><path clip-path="url(#clip960)" d="M2281.61 1861.55 L2297.93 1861.55 L2297.93 1865.48 L2275.99 1865.48 L2275.99 1861.55 Q2278.65 1858.79 2283.23 1854.16 Q2287.84 1849.51 2289.02 1848.17 Q2291.27 1845.65 2292.15 1843.91 Q2293.05 1842.15 2293.05 1840.46 Q2293.05 1837.71 2291.1 1835.97 Q2289.18 1834.23 2286.08 1834.23 Q2283.88 1834.23 2281.43 1835 Q2279 1835.76 2276.22 1837.31 L2276.22 1832.59 Q2279.04 1831.46 2281.5 1830.88 Q2283.95 1830.3 2285.99 1830.3 Q2291.36 1830.3 2294.55 1832.98 Q2297.75 1835.67 2297.75 1840.16 Q2297.75 1842.29 2296.94 1844.21 Q2296.15 1846.11 2294.04 1848.7 Q2293.46 1849.37 2290.36 1852.59 Q2287.26 1855.78 2281.61 1861.55 Z" fill="#000000" fill-rule="evenodd" fill-opacity="1" /><path clip-path="url(#clip960)" d="M2307.75 1859.6 L2312.63 1859.6 L2312.63 1865.48 L2307.75 1865.48 L2307.75 1859.6 Z" fill="#000000" fill-rule="evenodd" fill-opacity="1" /><path clip-path="url(#clip960)" d="M2332.82 1834 Q2329.21 1834 2327.38 1837.57 Q2325.57 1841.11 2325.57 1848.24 Q2325.57 1855.34 2327.38 1858.91 Q2329.21 1862.45 2332.82 1862.45 Q2336.45 1862.45 2338.26 1858.91 Q2340.08 1855.34 2340.08 1848.24 Q2340.08 1841.11 2338.26 1837.57 Q2336.45 1834 2332.82 1834 M2332.82 1830.3 Q2338.63 1830.3 2341.68 1834.9 Q2344.76 1839.49 2344.76 1848.24 Q2344.76 1856.96 2341.68 1861.57 Q2338.63 1866.15 2332.82 1866.15 Q2327.01 1866.15 2323.93 1861.57 Q2320.87 1856.96 2320.87 1848.24 Q2320.87 1839.49 2323.93 1834.9 Q2327.01 1830.3 2332.82 1830.3 Z" fill="#000000" fill-rule="evenodd" fill-opacity="1" /><polyline clip-path="url(#clip962)" style="stroke:#000000; stroke-linecap:butt; stroke-linejoin:round; stroke-width:2; stroke-opacity:0.1; fill:none" points="
  158.992,1509.34 2640.76,1509.34 
  "/>
<polyline clip-path="url(#clip962)" style="stroke:#000000; stroke-linecap:butt; stroke-linejoin:round; stroke-width:2; stroke-opacity:0.1; fill:none" points="
  158.992,1204.67 2640.76,1204.67 
  "/>
<polyline clip-path="url(#clip962)" style="stroke:#000000; stroke-linecap:butt; stroke-linejoin:round; stroke-width:2; stroke-opacity:0.1; fill:none" points="
  158.992,900.003 2640.76,900.003 
  "/>
<polyline clip-path="url(#clip962)" style="stroke:#000000; stroke-linecap:butt; stroke-linejoin:round; stroke-width:2; stroke-opacity:0.1; fill:none" points="
  158.992,595.336 2640.76,595.336 
  "/>
<polyline clip-path="url(#clip962)" style="stroke:#000000; stroke-linecap:butt; stroke-linejoin:round; stroke-width:2; stroke-opacity:0.1; fill:none" points="
  158.992,290.669 2640.76,290.669 
  "/>
<polyline clip-path="url(#clip960)" style="stroke:#000000; stroke-linecap:butt; stroke-linejoin:round; stroke-width:4; stroke-opacity:1; fill:none" points="
  158.992,1800.78 158.992,47.2441 
  "/>
<polyline clip-path="url(#clip960)" style="stroke:#000000; stroke-linecap:butt; stroke-linejoin:round; stroke-width:4; stroke-opacity:1; fill:none" points="
  158.992,1509.34 177.89,1509.34 
  "/>
<polyline clip-path="url(#clip960)" style="stroke:#000000; stroke-linecap:butt; stroke-linejoin:round; stroke-width:4; stroke-opacity:1; fill:none" points="
  158.992,1204.67 177.89,1204.67 
  "/>
<polyline clip-path="url(#clip960)" style="stroke:#000000; stroke-linecap:butt; stroke-linejoin:round; stroke-width:4; stroke-opacity:1; fill:none" points="
  158.992,900.003 177.89,900.003 
  "/>
<polyline clip-path="url(#clip960)" style="stroke:#000000; stroke-linecap:butt; stroke-linejoin:round; stroke-width:4; stroke-opacity:1; fill:none" points="
  158.992,595.336 177.89,595.336 
  "/>
<polyline clip-path="url(#clip960)" style="stroke:#000000; stroke-linecap:butt; stroke-linejoin:round; stroke-width:4; stroke-opacity:1; fill:none" points="
  158.992,290.669 177.89,290.669 
  "/>
<path clip-path="url(#clip960)" d="M61.4965 1495.14 Q57.8854 1495.14 56.0567 1498.7 Q54.2512 1502.24 54.2512 1509.37 Q54.2512 1516.48 56.0567 1520.04 Q57.8854 1523.58 61.4965 1523.58 Q65.1307 1523.58 66.9363 1520.04 Q68.765 1516.48 68.765 1509.37 Q68.765 1502.24 66.9363 1498.7 Q65.1307 1495.14 61.4965 1495.14 M61.4965 1491.43 Q67.3067 1491.43 70.3622 1496.04 Q73.4409 1500.62 73.4409 1509.37 Q73.4409 1518.1 70.3622 1522.7 Q67.3067 1527.29 61.4965 1527.29 Q55.6864 1527.29 52.6077 1522.7 Q49.5521 1518.1 49.5521 1509.37 Q49.5521 1500.62 52.6077 1496.04 Q55.6864 1491.43 61.4965 1491.43 Z" fill="#000000" fill-rule="evenodd" fill-opacity="1" /><path clip-path="url(#clip960)" d="M81.6584 1520.74 L86.5427 1520.74 L86.5427 1526.62 L81.6584 1526.62 L81.6584 1520.74 Z" fill="#000000" fill-rule="evenodd" fill-opacity="1" /><path clip-path="url(#clip960)" d="M106.728 1495.14 Q103.117 1495.14 101.288 1498.7 Q99.4824 1502.24 99.4824 1509.37 Q99.4824 1516.48 101.288 1520.04 Q103.117 1523.58 106.728 1523.58 Q110.362 1523.58 112.168 1520.04 Q113.996 1516.48 113.996 1509.37 Q113.996 1502.24 112.168 1498.7 Q110.362 1495.14 106.728 1495.14 M106.728 1491.43 Q112.538 1491.43 115.593 1496.04 Q118.672 1500.62 118.672 1509.37 Q118.672 1518.1 115.593 1522.7 Q112.538 1527.29 106.728 1527.29 Q100.918 1527.29 97.8389 1522.7 Q94.7834 1518.1 94.7834 1509.37 Q94.7834 1500.62 97.8389 1496.04 Q100.918 1491.43 106.728 1491.43 Z" fill="#000000" fill-rule="evenodd" fill-opacity="1" /><path clip-path="url(#clip960)" d="M62.4919 1190.47 Q58.8808 1190.47 57.0521 1194.03 Q55.2465 1197.57 55.2465 1204.7 Q55.2465 1211.81 57.0521 1215.38 Q58.8808 1218.92 62.4919 1218.92 Q66.1261 1218.92 67.9317 1215.38 Q69.7604 1211.81 69.7604 1204.7 Q69.7604 1197.57 67.9317 1194.03 Q66.1261 1190.47 62.4919 1190.47 M62.4919 1186.76 Q68.302 1186.76 71.3576 1191.37 Q74.4363 1195.95 74.4363 1204.7 Q74.4363 1213.43 71.3576 1218.04 Q68.302 1222.62 62.4919 1222.62 Q56.6817 1222.62 53.603 1218.04 Q50.5475 1213.43 50.5475 1204.7 Q50.5475 1195.95 53.603 1191.37 Q56.6817 1186.76 62.4919 1186.76 Z" fill="#000000" fill-rule="evenodd" fill-opacity="1" /><path clip-path="url(#clip960)" d="M82.6538 1216.07 L87.538 1216.07 L87.538 1221.95 L82.6538 1221.95 L82.6538 1216.07 Z" fill="#000000" fill-rule="evenodd" fill-opacity="1" /><path clip-path="url(#clip960)" d="M97.7695 1187.39 L116.126 1187.39 L116.126 1191.32 L102.052 1191.32 L102.052 1199.8 Q103.07 1199.45 104.089 1199.29 Q105.107 1199.1 106.126 1199.1 Q111.913 1199.1 115.293 1202.27 Q118.672 1205.45 118.672 1210.86 Q118.672 1216.44 115.2 1219.54 Q111.728 1222.62 105.408 1222.62 Q103.232 1222.62 100.964 1222.25 Q98.7185 1221.88 96.3111 1221.14 L96.3111 1216.44 Q98.3945 1217.57 100.617 1218.13 Q102.839 1218.69 105.316 1218.69 Q109.32 1218.69 111.658 1216.58 Q113.996 1214.47 113.996 1210.86 Q113.996 1207.25 111.658 1205.14 Q109.32 1203.04 105.316 1203.04 Q103.441 1203.04 101.566 1203.45 Q99.7139 1203.87 97.7695 1204.75 L97.7695 1187.39 Z" fill="#000000" fill-rule="evenodd" fill-opacity="1" /><path clip-path="url(#clip960)" d="M52.3067 913.348 L59.9456 913.348 L59.9456 886.982 L51.6354 888.649 L51.6354 884.389 L59.8993 882.723 L64.5752 882.723 L64.5752 913.348 L72.214 913.348 L72.214 917.283 L52.3067 917.283 L52.3067 913.348 Z" fill="#000000" fill-rule="evenodd" fill-opacity="1" /><path clip-path="url(#clip960)" d="M81.6584 911.403 L86.5427 911.403 L86.5427 917.283 L81.6584 917.283 L81.6584 911.403 Z" fill="#000000" fill-rule="evenodd" fill-opacity="1" /><path clip-path="url(#clip960)" d="M106.728 885.801 Q103.117 885.801 101.288 889.366 Q99.4824 892.908 99.4824 900.037 Q99.4824 907.144 101.288 910.709 Q103.117 914.25 106.728 914.25 Q110.362 914.25 112.168 910.709 Q113.996 907.144 113.996 900.037 Q113.996 892.908 112.168 889.366 Q110.362 885.801 106.728 885.801 M106.728 882.098 Q112.538 882.098 115.593 886.704 Q118.672 891.288 118.672 900.037 Q118.672 908.764 115.593 913.371 Q112.538 917.954 106.728 917.954 Q100.918 917.954 97.8389 913.371 Q94.7834 908.764 94.7834 900.037 Q94.7834 891.288 97.8389 886.704 Q100.918 882.098 106.728 882.098 Z" fill="#000000" fill-rule="evenodd" fill-opacity="1" /><path clip-path="url(#clip960)" d="M53.3021 608.681 L60.941 608.681 L60.941 582.315 L52.6308 583.982 L52.6308 579.722 L60.8947 578.056 L65.5706 578.056 L65.5706 608.681 L73.2094 608.681 L73.2094 612.616 L53.3021 612.616 L53.3021 608.681 Z" fill="#000000" fill-rule="evenodd" fill-opacity="1" /><path clip-path="url(#clip960)" d="M82.6538 606.736 L87.538 606.736 L87.538 612.616 L82.6538 612.616 L82.6538 606.736 Z" fill="#000000" fill-rule="evenodd" fill-opacity="1" /><path clip-path="url(#clip960)" d="M97.7695 578.056 L116.126 578.056 L116.126 581.991 L102.052 581.991 L102.052 590.463 Q103.07 590.116 104.089 589.954 Q105.107 589.769 106.126 589.769 Q111.913 589.769 115.293 592.94 Q118.672 596.111 118.672 601.528 Q118.672 607.107 115.2 610.208 Q111.728 613.287 105.408 613.287 Q103.232 613.287 100.964 612.917 Q98.7185 612.546 96.3111 611.806 L96.3111 607.107 Q98.3945 608.241 100.617 608.796 Q102.839 609.352 105.316 609.352 Q109.32 609.352 111.658 607.245 Q113.996 605.139 113.996 601.528 Q113.996 597.917 111.658 595.81 Q109.32 593.704 105.316 593.704 Q103.441 593.704 101.566 594.121 Q99.7139 594.537 97.7695 595.417 L97.7695 578.056 Z" fill="#000000" fill-rule="evenodd" fill-opacity="1" /><path clip-path="url(#clip960)" d="M55.5243 304.014 L71.8437 304.014 L71.8437 307.949 L49.8993 307.949 L49.8993 304.014 Q52.5614 301.259 57.1447 296.629 Q61.7511 291.977 62.9317 290.634 Q65.177 288.111 66.0567 286.375 Q66.9594 284.616 66.9594 282.926 Q66.9594 280.171 65.015 278.435 Q63.0937 276.699 59.9919 276.699 Q57.7928 276.699 55.3391 277.463 Q52.9086 278.227 50.1308 279.778 L50.1308 275.056 Q52.9549 273.921 55.4086 273.343 Q57.8623 272.764 59.8993 272.764 Q65.2696 272.764 68.4641 275.449 Q71.6585 278.134 71.6585 282.625 Q71.6585 284.755 70.8483 286.676 Q70.0613 288.574 67.9548 291.167 Q67.3761 291.838 64.2743 295.055 Q61.1724 298.25 55.5243 304.014 Z" fill="#000000" fill-rule="evenodd" fill-opacity="1" /><path clip-path="url(#clip960)" d="M81.6584 302.069 L86.5427 302.069 L86.5427 307.949 L81.6584 307.949 L81.6584 302.069 Z" fill="#000000" fill-rule="evenodd" fill-opacity="1" /><path clip-path="url(#clip960)" d="M106.728 276.468 Q103.117 276.468 101.288 280.032 Q99.4824 283.574 99.4824 290.704 Q99.4824 297.81 101.288 301.375 Q103.117 304.916 106.728 304.916 Q110.362 304.916 112.168 301.375 Q113.996 297.81 113.996 290.704 Q113.996 283.574 112.168 280.032 Q110.362 276.468 106.728 276.468 M106.728 272.764 Q112.538 272.764 115.593 277.37 Q118.672 281.954 118.672 290.704 Q118.672 299.43 115.593 304.037 Q112.538 308.62 106.728 308.62 Q100.918 308.62 97.8389 304.037 Q94.7834 299.43 94.7834 290.704 Q94.7834 281.954 97.8389 277.37 Q100.918 272.764 106.728 272.764 Z" fill="#000000" fill-rule="evenodd" fill-opacity="1" /><polyline clip-path="url(#clip962)" style="stroke:#009af9; stroke-linecap:butt; stroke-linejoin:round; stroke-width:4; stroke-opacity:1; fill:none" points="
  229.231,1509.34 231.136,1500.22 233.041,1494.86 234.947,1490.37 236.852,1486.36 238.758,1482.67 240.663,1479.22 242.568,1475.96 244.474,1472.86 253.283,1459.89 
  262.092,1448.46 270.901,1438.01 279.71,1428.29 297.328,1410.38 314.946,1393.98 332.564,1378.67 350.182,1364.21 367.8,1350.44 385.418,1337.24 406.593,1322.02 
  427.769,1307.39 448.944,1293.27 470.119,1279.61 505.926,1257.37 541.733,1236.08 580.63,1213.85 619.526,1192.43 655.385,1173.3 691.244,1154.71 768.134,1116.38 
  857.218,1074.18 936.385,1038.34 1005.81,1008 1081.5,975.931 1157.64,944.618 1241.82,910.977 1321.91,879.825 1405.2,848.232 1475.3,822.211 1560.89,791.096 
  1639.3,763.173 1711.71,737.84 1785.07,712.596 1867.28,684.772 1941.77,659.958 2027.06,631.985 2106.04,606.477 2183.89,581.677 2259.49,557.912 2336.98,533.854 
  2421.88,507.831 2545.21,470.619 2570.52,463.067 
  "/>
<polyline clip-path="url(#clip962)" style="stroke:#ff0000; stroke-linecap:butt; stroke-linejoin:round; stroke-width:4; stroke-opacity:1; fill:none" points="
  229.231,1509.34 236.852,1509.24 244.474,1509.02 314.946,1503.64 385.418,1493.84 427.769,1486.22 470.119,1477.43 505.926,1469.14 541.733,1460.1 619.526,1438.02 
  691.244,1414.86 768.134,1387.23 857.218,1351.77 936.385,1317.29 1005.81,1284.85 1081.5,1247.21 1157.64,1207.03 1241.82,1159.98 1321.91,1112.71 1405.2,1061.06 
  1475.3,1015.64 1560.89,957.839 1639.3,902.665 1711.71,849.854 1785.07,794.576 1867.28,730.529 1941.77,670.608 2027.06,599.838 2106.04,532.283 2183.89,463.8 
  2259.49,395.544 2336.98,323.793 2421.88,243.137 2545.21,122.222 2570.52,96.8724 
  "/>
<circle clip-path="url(#clip962)" cx="1061.69" cy="1509.34" r="14.4" fill="#ffa500" fill-rule="evenodd" fill-opacity="1" stroke="#000000" stroke-opacity="1" stroke-width="3.84"/>
<circle clip-path="url(#clip962)" cx="2310.37" cy="1509.34" r="14.4" fill="#ffa500" fill-rule="evenodd" fill-opacity="1" stroke="#000000" stroke-opacity="1" stroke-width="3.84"/>
<circle clip-path="url(#clip962)" cx="2310.37" cy="542.079" r="14.4" fill="#ffa500" fill-rule="evenodd" fill-opacity="1" stroke="#000000" stroke-opacity="1" stroke-width="3.84"/>
<circle clip-path="url(#clip962)" cx="2310.37" cy="348.628" r="14.4" fill="#ffa500" fill-rule="evenodd" fill-opacity="1" stroke="#000000" stroke-opacity="1" stroke-width="3.84"/>
<polyline clip-path="url(#clip962)" style="stroke:#ffa500; stroke-linecap:butt; stroke-linejoin:round; stroke-width:4; stroke-opacity:1; fill:none" points="
  801.545,1751.15 2570.52,106.814 
  "/>
<polyline clip-path="url(#clip962)" style="stroke:#008000; stroke-linecap:butt; stroke-linejoin:round; stroke-width:4; stroke-opacity:1; fill:none" points="
  1061.69,1509.34 2310.37,1509.34 2310.37,348.628 
  "/>
<path clip-path="url(#clip960)" d="M1036.11 1570.5 L1087.27 1570.5 L1087.27 1577.38 L1065.8 1577.38 L1065.8 1630.98 L1057.58 1630.98 L1057.58 1577.38 L1036.11 1577.38 L1036.11 1570.5 Z" fill="#000000" fill-rule="evenodd" fill-opacity="1" /><path clip-path="url(#clip960)" d="M2331.52 1585.61 L2315.11 1607.68 L2332.37 1630.98 L2323.58 1630.98 L2310.37 1613.15 L2297.17 1630.98 L2288.38 1630.98 L2306 1607.24 L2289.88 1585.61 L2298.67 1585.61 L2310.7 1601.77 L2322.73 1585.61 L2331.52 1585.61 Z" fill="#000000" fill-rule="evenodd" fill-opacity="1" /><path clip-path="url(#clip960)" d="M2414.47 578.323 Q2405.56 578.323 2400.29 584.966 Q2395.07 591.609 2395.07 603.074 Q2395.07 614.497 2400.29 621.141 Q2405.56 627.784 2414.47 627.784 Q2423.38 627.784 2428.57 621.141 Q2433.79 614.497 2433.79 603.074 Q2433.79 591.609 2428.57 584.966 Q2423.38 578.323 2414.47 578.323 M2425.94 632.159 L2436.71 643.947 L2426.83 643.947 L2417.87 634.265 Q2416.54 634.347 2415.81 634.387 Q2415.12 634.428 2414.47 634.428 Q2401.71 634.428 2394.06 625.921 Q2386.44 617.373 2386.44 603.074 Q2386.44 588.733 2394.06 580.226 Q2401.71 571.679 2414.47 571.679 Q2427.19 571.679 2434.81 580.226 Q2442.42 588.733 2442.42 603.074 Q2442.42 613.606 2438.17 621.1 Q2433.96 628.594 2425.94 632.159 Z" fill="#000000" fill-rule="evenodd" fill-opacity="1" /><path clip-path="url(#clip960)" d="M2403.09 325.112 L2403.09 347.838 L2413.38 347.838 Q2419.09 347.838 2422.21 344.881 Q2425.33 341.924 2425.33 336.455 Q2425.33 331.027 2422.21 328.07 Q2419.09 325.112 2413.38 325.112 L2403.09 325.112 M2394.91 318.388 L2413.38 318.388 Q2423.55 318.388 2428.73 323.006 Q2433.96 327.583 2433.96 336.455 Q2433.96 345.407 2428.73 349.985 Q2423.55 354.563 2413.38 354.563 L2403.09 354.563 L2403.09 378.868 L2394.91 378.868 L2394.91 318.388 Z" fill="#000000" fill-rule="evenodd" fill-opacity="1" /></svg>
