<?xml version="1.0" encoding="utf-8"?>
<svg xmlns="http://www.w3.org/2000/svg" xmlns:xlink="http://www.w3.org/1999/xlink" width="672" height="480" viewBox="0 0 2688 1920">
<defs>
  <clipPath id="clip600">
    <rect x="0" y="0" width="2688" height="1920"/>
  </clipPath>
</defs>
<path clip-path="url(#clip600)" d="
M0 1920 L2688 1920 L2688 0 L0 0  Z
  " fill="#ffffff" fill-rule="evenodd" fill-opacity="1"/>
<defs>
  <clipPath id="clip601">
    <rect x="537" y="0" width="1883" height="1883"/>
  </clipPath>
</defs>
<path clip-path="url(#clip600)" d="
M196.816 1800.78 L2640.76 1800.78 L2640.76 47.2441 L196.816 47.2441  Z
  " fill="#ffffff" fill-rule="evenodd" fill-opacity="1"/>
<defs>
  <clipPath id="clip602">
    <rect x="196" y="47" width="2445" height="1755"/>
  </clipPath>
</defs>
<polyline clip-path="url(#clip602)" style="stroke:#000000; stroke-linecap:butt; stroke-linejoin:round; stroke-width:2; stroke-opacity:0.1; fill:none" points="
  265.984,1800.78 265.984,47.2441 
  "/>
<polyline clip-path="url(#clip602)" style="stroke:#000000; stroke-linecap:butt; stroke-linejoin:round; stroke-width:2; stroke-opacity:0.1; fill:none" points="
  496.544,1800.78 496.544,47.2441 
  "/>
<polyline clip-path="url(#clip602)" style="stroke:#000000; stroke-linecap:butt; stroke-linejoin:round; stroke-width:2; stroke-opacity:0.1; fill:none" points="
  727.105,1800.78 727.105,47.2441 
  "/>
<polyline clip-path="url(#clip602)" style="stroke:#000000; stroke-linecap:butt; stroke-linejoin:round; stroke-width:2; stroke-opacity:0.1; fill:none" points="
  957.665,1800.78 957.665,47.2441 
  "/>
<polyline clip-path="url(#clip602)" style="stroke:#000000; stroke-linecap:butt; stroke-linejoin:round; stroke-width:2; stroke-opacity:0.1; fill:none" points="
  1188.23,1800.78 1188.23,47.2441 
  "/>
<polyline clip-path="url(#clip602)" style="stroke:#000000; stroke-linecap:butt; stroke-linejoin:round; stroke-width:2; stroke-opacity:0.1; fill:none" points="
  1418.79,1800.78 1418.79,47.2441 
  "/>
<polyline clip-path="url(#clip602)" style="stroke:#000000; stroke-linecap:butt; stroke-linejoin:round; stroke-width:2; stroke-opacity:0.1; fill:none" points="
  1649.35,1800.78 1649.35,47.2441 
  "/>
<polyline clip-path="url(#clip602)" style="stroke:#000000; stroke-linecap:butt; stroke-linejoin:round; stroke-width:2; stroke-opacity:0.1; fill:none" points="
  1879.91,1800.78 1879.91,47.2441 
  "/>
<polyline clip-path="url(#clip602)" style="stroke:#000000; stroke-linecap:butt; stroke-linejoin:round; stroke-width:2; stroke-opacity:0.1; fill:none" points="
  2110.47,1800.78 2110.47,47.2441 
  "/>
<polyline clip-path="url(#clip602)" style="stroke:#000000; stroke-linecap:butt; stroke-linejoin:round; stroke-width:2; stroke-opacity:0.1; fill:none" points="
  2341.03,1800.78 2341.03,47.2441 
  "/>
<polyline clip-path="url(#clip602)" style="stroke:#000000; stroke-linecap:butt; stroke-linejoin:round; stroke-width:2; stroke-opacity:0.1; fill:none" points="
  2571.59,1800.78 2571.59,47.2441 
  "/>
<polyline clip-path="url(#clip600)" style="stroke:#000000; stroke-linecap:butt; stroke-linejoin:round; stroke-width:4; stroke-opacity:1; fill:none" points="
  196.816,1800.78 2640.76,1800.78 
  "/>
<polyline clip-path="url(#clip600)" style="stroke:#000000; stroke-linecap:butt; stroke-linejoin:round; stroke-width:4; stroke-opacity:1; fill:none" points="
  265.984,1800.78 265.984,1781.88 
  "/>
<polyline clip-path="url(#clip600)" style="stroke:#000000; stroke-linecap:butt; stroke-linejoin:round; stroke-width:4; stroke-opacity:1; fill:none" points="
  496.544,1800.78 496.544,1781.88 
  "/>
<polyline clip-path="url(#clip600)" style="stroke:#000000; stroke-linecap:butt; stroke-linejoin:round; stroke-width:4; stroke-opacity:1; fill:none" points="
  727.105,1800.78 727.105,1781.88 
  "/>
<polyline clip-path="url(#clip600)" style="stroke:#000000; stroke-linecap:butt; stroke-linejoin:round; stroke-width:4; stroke-opacity:1; fill:none" points="
  957.665,1800.78 957.665,1781.88 
  "/>
<polyline clip-path="url(#clip600)" style="stroke:#000000; stroke-linecap:butt; stroke-linejoin:round; stroke-width:4; stroke-opacity:1; fill:none" points="
  1188.23,1800.78 1188.23,1781.88 
  "/>
<polyline clip-path="url(#clip600)" style="stroke:#000000; stroke-linecap:butt; stroke-linejoin:round; stroke-width:4; stroke-opacity:1; fill:none" points="
  1418.79,1800.78 1418.79,1781.88 
  "/>
<polyline clip-path="url(#clip600)" style="stroke:#000000; stroke-linecap:butt; stroke-linejoin:round; stroke-width:4; stroke-opacity:1; fill:none" points="
  1649.35,1800.78 1649.35,1781.88 
  "/>
<polyline clip-path="url(#clip600)" style="stroke:#000000; stroke-linecap:butt; stroke-linejoin:round; stroke-width:4; stroke-opacity:1; fill:none" points="
  1879.91,1800.78 1879.91,1781.88 
  "/>
<polyline clip-path="url(#clip600)" style="stroke:#000000; stroke-linecap:butt; stroke-linejoin:round; stroke-width:4; stroke-opacity:1; fill:none" points="
  2110.47,1800.78 2110.47,1781.88 
  "/>
<polyline clip-path="url(#clip600)" style="stroke:#000000; stroke-linecap:butt; stroke-linejoin:round; stroke-width:4; stroke-opacity:1; fill:none" points="
  2341.03,1800.78 2341.03,1781.88 
  "/>
<polyline clip-path="url(#clip600)" style="stroke:#000000; stroke-linecap:butt; stroke-linejoin:round; stroke-width:4; stroke-opacity:1; fill:none" points="
  2571.59,1800.78 2571.59,1781.88 
  "/>
<path clip-path="url(#clip600)" d="M265.984 1834 Q262.373 1834 260.544 1837.57 Q258.739 1841.11 258.739 1848.24 Q258.739 1855.34 260.544 1858.91 Q262.373 1862.45 265.984 1862.45 Q269.618 1862.45 271.424 1858.91 Q273.253 1855.34 273.253 1848.24 Q273.253 1841.11 271.424 1837.57 Q269.618 1834 265.984 1834 M265.984 1830.3 Q271.794 1830.3 274.85 1834.9 Q277.928 1839.49 277.928 1848.24 Q277.928 1856.96 274.85 1861.57 Q271.794 1866.15 265.984 1866.15 Q260.174 1866.15 257.095 1861.57 Q254.04 1856.96 254.04 1848.24 Q254.04 1839.49 257.095 1834.9 Q260.174 1830.3 265.984 1830.3 Z" fill="#000000" fill-rule="evenodd" fill-opacity="1" /><path clip-path="url(#clip600)" d="M486.926 1861.55 L494.565 1861.55 L494.565 1835.18 L486.255 1836.85 L486.255 1832.59 L494.519 1830.92 L499.195 1830.92 L499.195 1861.55 L506.834 1861.55 L506.834 1865.48 L486.926 1865.48 L486.926 1861.55 Z" fill="#000000" fill-rule="evenodd" fill-opacity="1" /><path clip-path="url(#clip600)" d="M721.758 1861.55 L738.077 1861.55 L738.077 1865.48 L716.133 1865.48 L716.133 1861.55 Q718.795 1858.79 723.378 1854.16 Q727.984 1849.51 729.165 1848.17 Q731.41 1845.65 732.29 1843.91 Q733.193 1842.15 733.193 1840.46 Q733.193 1837.71 731.248 1835.97 Q729.327 1834.23 726.225 1834.23 Q724.026 1834.23 721.572 1835 Q719.142 1835.76 716.364 1837.31 L716.364 1832.59 Q719.188 1831.46 721.642 1830.88 Q724.096 1830.3 726.133 1830.3 Q731.503 1830.3 734.697 1832.98 Q737.892 1835.67 737.892 1840.16 Q737.892 1842.29 737.082 1844.21 Q736.295 1846.11 734.188 1848.7 Q733.609 1849.37 730.508 1852.59 Q727.406 1855.78 721.758 1861.55 Z" fill="#000000" fill-rule="evenodd" fill-opacity="1" /><path clip-path="url(#clip600)" d="M961.913 1846.85 Q965.269 1847.57 967.144 1849.84 Q969.042 1852.1 969.042 1855.44 Q969.042 1860.55 965.524 1863.35 Q962.005 1866.15 955.524 1866.15 Q953.348 1866.15 951.033 1865.71 Q948.742 1865.3 946.288 1864.44 L946.288 1859.93 Q948.232 1861.06 950.547 1861.64 Q952.862 1862.22 955.385 1862.22 Q959.783 1862.22 962.075 1860.48 Q964.39 1858.75 964.39 1855.44 Q964.39 1852.38 962.237 1850.67 Q960.107 1848.93 956.288 1848.93 L952.26 1848.93 L952.26 1845.09 L956.473 1845.09 Q959.922 1845.09 961.751 1843.72 Q963.58 1842.34 963.58 1839.74 Q963.58 1837.08 961.681 1835.67 Q959.806 1834.23 956.288 1834.23 Q954.367 1834.23 952.168 1834.65 Q949.968 1835.07 947.33 1835.95 L947.33 1831.78 Q949.992 1831.04 952.306 1830.67 Q954.644 1830.3 956.705 1830.3 Q962.029 1830.3 965.13 1832.73 Q968.232 1835.14 968.232 1839.26 Q968.232 1842.13 966.589 1844.12 Q964.945 1846.09 961.913 1846.85 Z" fill="#000000" fill-rule="evenodd" fill-opacity="1" /><path clip-path="url(#clip600)" d="M1191.23 1835 L1179.43 1853.45 L1191.23 1853.45 L1191.23 1835 M1190.01 1830.92 L1195.89 1830.92 L1195.89 1853.45 L1200.82 1853.45 L1200.82 1857.34 L1195.89 1857.34 L1195.89 1865.48 L1191.23 1865.48 L1191.23 1857.34 L1175.63 1857.34 L1175.63 1852.82 L1190.01 1830.92 Z" fill="#000000" fill-rule="evenodd" fill-opacity="1" /><path clip-path="url(#clip600)" d="M1409.06 1830.92 L1427.42 1830.92 L1427.42 1834.86 L1413.35 1834.86 L1413.35 1843.33 Q1414.36 1842.98 1415.38 1842.82 Q1416.4 1842.64 1417.42 1842.64 Q1423.21 1842.64 1426.59 1845.81 Q1429.97 1848.98 1429.97 1854.4 Q1429.97 1859.97 1426.49 1863.08 Q1423.02 1866.15 1416.7 1866.15 Q1414.53 1866.15 1412.26 1865.78 Q1410.01 1865.41 1407.61 1864.67 L1407.61 1859.97 Q1409.69 1861.11 1411.91 1861.66 Q1414.13 1862.22 1416.61 1862.22 Q1420.61 1862.22 1422.95 1860.11 Q1425.29 1858.01 1425.29 1854.4 Q1425.29 1850.78 1422.95 1848.68 Q1420.61 1846.57 1416.61 1846.57 Q1414.74 1846.57 1412.86 1846.99 Q1411.01 1847.4 1409.06 1848.28 L1409.06 1830.92 Z" fill="#000000" fill-rule="evenodd" fill-opacity="1" /><path clip-path="url(#clip600)" d="M1649.75 1846.34 Q1646.6 1846.34 1644.75 1848.49 Q1642.92 1850.65 1642.92 1854.4 Q1642.92 1858.12 1644.75 1860.3 Q1646.6 1862.45 1649.75 1862.45 Q1652.9 1862.45 1654.73 1860.3 Q1656.58 1858.12 1656.58 1854.4 Q1656.58 1850.65 1654.73 1848.49 Q1652.9 1846.34 1649.75 1846.34 M1659.03 1831.69 L1659.03 1835.95 Q1657.27 1835.11 1655.47 1834.67 Q1653.69 1834.23 1651.93 1834.23 Q1647.3 1834.23 1644.84 1837.36 Q1642.41 1840.48 1642.07 1846.8 Q1643.43 1844.79 1645.49 1843.72 Q1647.55 1842.64 1650.03 1842.64 Q1655.24 1842.64 1658.25 1845.81 Q1661.28 1848.96 1661.28 1854.4 Q1661.28 1859.72 1658.13 1862.94 Q1654.98 1866.15 1649.75 1866.15 Q1643.76 1866.15 1640.58 1861.57 Q1637.41 1856.96 1637.41 1848.24 Q1637.41 1840.04 1641.3 1835.18 Q1645.19 1830.3 1651.74 1830.3 Q1653.5 1830.3 1655.28 1830.65 Q1657.09 1830.99 1659.03 1831.69 Z" fill="#000000" fill-rule="evenodd" fill-opacity="1" /><path clip-path="url(#clip600)" d="M1868.8 1830.92 L1891.02 1830.92 L1891.02 1832.91 L1878.47 1865.48 L1873.59 1865.48 L1885.39 1834.86 L1868.8 1834.86 L1868.8 1830.92 Z" fill="#000000" fill-rule="evenodd" fill-opacity="1" /><path clip-path="url(#clip600)" d="M2110.47 1849.07 Q2107.13 1849.07 2105.21 1850.85 Q2103.31 1852.64 2103.31 1855.76 Q2103.31 1858.89 2105.21 1860.67 Q2107.13 1862.45 2110.47 1862.45 Q2113.8 1862.45 2115.72 1860.67 Q2117.64 1858.86 2117.64 1855.76 Q2117.64 1852.64 2115.72 1850.85 Q2113.82 1849.07 2110.47 1849.07 M2105.79 1847.08 Q2102.78 1846.34 2101.09 1844.28 Q2099.43 1842.22 2099.43 1839.26 Q2099.43 1835.11 2102.37 1832.71 Q2105.33 1830.3 2110.47 1830.3 Q2115.63 1830.3 2118.57 1832.71 Q2121.51 1835.11 2121.51 1839.26 Q2121.51 1842.22 2119.82 1844.28 Q2118.15 1846.34 2115.17 1847.08 Q2118.55 1847.87 2120.42 1850.16 Q2122.32 1852.45 2122.32 1855.76 Q2122.32 1860.78 2119.24 1863.47 Q2116.18 1866.15 2110.47 1866.15 Q2104.75 1866.15 2101.67 1863.47 Q2098.62 1860.78 2098.62 1855.76 Q2098.62 1852.45 2100.51 1850.16 Q2102.41 1847.87 2105.79 1847.08 M2104.08 1839.7 Q2104.08 1842.38 2105.74 1843.89 Q2107.43 1845.39 2110.47 1845.39 Q2113.48 1845.39 2115.17 1843.89 Q2116.88 1842.38 2116.88 1839.7 Q2116.88 1837.01 2115.17 1835.51 Q2113.48 1834 2110.47 1834 Q2107.43 1834 2105.74 1835.51 Q2104.08 1837.01 2104.08 1839.7 Z" fill="#000000" fill-rule="evenodd" fill-opacity="1" /><path clip-path="url(#clip600)" d="M2331.33 1864.77 L2331.33 1860.51 Q2333.09 1861.34 2334.89 1861.78 Q2336.7 1862.22 2338.43 1862.22 Q2343.06 1862.22 2345.49 1859.12 Q2347.95 1855.99 2348.3 1849.65 Q2346.95 1851.64 2344.89 1852.71 Q2342.83 1853.77 2340.33 1853.77 Q2335.15 1853.77 2332.12 1850.65 Q2329.11 1847.5 2329.11 1842.06 Q2329.11 1836.73 2332.25 1833.52 Q2335.4 1830.3 2340.63 1830.3 Q2346.63 1830.3 2349.78 1834.9 Q2352.95 1839.49 2352.95 1848.24 Q2352.95 1856.41 2349.06 1861.29 Q2345.19 1866.15 2338.64 1866.15 Q2336.88 1866.15 2335.08 1865.81 Q2333.27 1865.46 2331.33 1864.77 M2340.63 1850.11 Q2343.78 1850.11 2345.61 1847.96 Q2347.46 1845.81 2347.46 1842.06 Q2347.46 1838.33 2345.61 1836.18 Q2343.78 1834 2340.63 1834 Q2337.49 1834 2335.63 1836.18 Q2333.81 1838.33 2333.81 1842.06 Q2333.81 1845.81 2335.63 1847.96 Q2337.49 1850.11 2340.63 1850.11 Z" fill="#000000" fill-rule="evenodd" fill-opacity="1" /><path clip-path="url(#clip600)" d="M2546.28 1861.55 L2553.91 1861.55 L2553.91 1835.18 L2545.6 1836.85 L2545.6 1832.59 L2553.87 1830.92 L2558.54 1830.92 L2558.54 1861.55 L2566.18 1861.55 L2566.18 1865.48 L2546.28 1865.48 L2546.28 1861.55 Z" fill="#000000" fill-rule="evenodd" fill-opacity="1" /><path clip-path="url(#clip600)" d="M2585.63 1834 Q2582.02 1834 2580.19 1837.57 Q2578.38 1841.11 2578.38 1848.24 Q2578.38 1855.34 2580.19 1858.91 Q2582.02 1862.45 2585.63 1862.45 Q2589.26 1862.45 2591.07 1858.91 Q2592.9 1855.34 2592.9 1848.24 Q2592.9 1841.11 2591.07 1837.57 Q2589.26 1834 2585.63 1834 M2585.63 1830.3 Q2591.44 1830.3 2594.49 1834.9 Q2597.57 1839.49 2597.57 1848.24 Q2597.57 1856.96 2594.49 1861.57 Q2591.44 1866.15 2585.63 1866.15 Q2579.82 1866.15 2576.74 1861.57 Q2573.68 1856.96 2573.68 1848.24 Q2573.68 1839.49 2576.74 1834.9 Q2579.82 1830.3 2585.63 1830.3 Z" fill="#000000" fill-rule="evenodd" fill-opacity="1" /><polyline clip-path="url(#clip602)" style="stroke:#000000; stroke-linecap:butt; stroke-linejoin:round; stroke-width:2; stroke-opacity:0.1; fill:none" points="
  196.816,1751.15 2640.76,1751.15 
  "/>
<polyline clip-path="url(#clip602)" style="stroke:#000000; stroke-linecap:butt; stroke-linejoin:round; stroke-width:2; stroke-opacity:0.1; fill:none" points="
  196.816,1337.58 2640.76,1337.58 
  "/>
<polyline clip-path="url(#clip602)" style="stroke:#000000; stroke-linecap:butt; stroke-linejoin:round; stroke-width:2; stroke-opacity:0.1; fill:none" points="
  196.816,924.012 2640.76,924.012 
  "/>
<polyline clip-path="url(#clip602)" style="stroke:#000000; stroke-linecap:butt; stroke-linejoin:round; stroke-width:2; stroke-opacity:0.1; fill:none" points="
  196.816,510.442 2640.76,510.442 
  "/>
<polyline clip-path="url(#clip602)" style="stroke:#000000; stroke-linecap:butt; stroke-linejoin:round; stroke-width:2; stroke-opacity:0.1; fill:none" points="
  196.816,96.8724 2640.76,96.8724 
  "/>
<polyline clip-path="url(#clip600)" style="stroke:#000000; stroke-linecap:butt; stroke-linejoin:round; stroke-width:4; stroke-opacity:1; fill:none" points="
  196.816,1800.78 196.816,47.2441 
  "/>
<polyline clip-path="url(#clip600)" style="stroke:#000000; stroke-linecap:butt; stroke-linejoin:round; stroke-width:4; stroke-opacity:1; fill:none" points="
  196.816,1751.15 215.714,1751.15 
  "/>
<polyline clip-path="url(#clip600)" style="stroke:#000000; stroke-linecap:butt; stroke-linejoin:round; stroke-width:4; stroke-opacity:1; fill:none" points="
  196.816,1337.58 215.714,1337.58 
  "/>
<polyline clip-path="url(#clip600)" style="stroke:#000000; stroke-linecap:butt; stroke-linejoin:round; stroke-width:4; stroke-opacity:1; fill:none" points="
  196.816,924.012 215.714,924.012 
  "/>
<polyline clip-path="url(#clip600)" style="stroke:#000000; stroke-linecap:butt; stroke-linejoin:round; stroke-width:4; stroke-opacity:1; fill:none" points="
  196.816,510.442 215.714,510.442 
  "/>
<polyline clip-path="url(#clip600)" style="stroke:#000000; stroke-linecap:butt; stroke-linejoin:round; stroke-width:4; stroke-opacity:1; fill:none" points="
  196.816,96.8724 215.714,96.8724 
  "/>
<path clip-path="url(#clip600)" d="M49.5521 1751.6 L79.2279 1751.6 L79.2279 1755.54 L49.5521 1755.54 L49.5521 1751.6 Z" fill="#000000" fill-rule="evenodd" fill-opacity="1" /><path clip-path="url(#clip600)" d="M90.1306 1764.5 L97.7695 1764.5 L97.7695 1738.13 L89.4593 1739.8 L89.4593 1735.54 L97.7232 1733.87 L102.399 1733.87 L102.399 1764.5 L110.038 1764.5 L110.038 1768.43 L90.1306 1768.43 L90.1306 1764.5 Z" fill="#000000" fill-rule="evenodd" fill-opacity="1" /><path clip-path="url(#clip600)" d="M119.482 1762.55 L124.367 1762.55 L124.367 1768.43 L119.482 1768.43 L119.482 1762.55 Z" fill="#000000" fill-rule="evenodd" fill-opacity="1" /><path clip-path="url(#clip600)" d="M144.552 1736.95 Q140.941 1736.95 139.112 1740.51 Q137.306 1744.06 137.306 1751.19 Q137.306 1758.29 139.112 1761.86 Q140.941 1765.4 144.552 1765.4 Q148.186 1765.4 149.991 1761.86 Q151.82 1758.29 151.82 1751.19 Q151.82 1744.06 149.991 1740.51 Q148.186 1736.95 144.552 1736.95 M144.552 1733.25 Q150.362 1733.25 153.417 1737.85 Q156.496 1742.44 156.496 1751.19 Q156.496 1759.91 153.417 1764.52 Q150.362 1769.1 144.552 1769.1 Q138.741 1769.1 135.663 1764.52 Q132.607 1759.91 132.607 1751.19 Q132.607 1742.44 135.663 1737.85 Q138.741 1733.25 144.552 1733.25 Z" fill="#000000" fill-rule="evenodd" fill-opacity="1" /><path clip-path="url(#clip600)" d="M50.5475 1338.03 L80.2233 1338.03 L80.2233 1341.97 L50.5475 1341.97 L50.5475 1338.03 Z" fill="#000000" fill-rule="evenodd" fill-opacity="1" /><path clip-path="url(#clip600)" d="M100.316 1323.38 Q96.7047 1323.38 94.876 1326.94 Q93.0704 1330.49 93.0704 1337.62 Q93.0704 1344.72 94.876 1348.29 Q96.7047 1351.83 100.316 1351.83 Q103.95 1351.83 105.756 1348.29 Q107.584 1344.72 107.584 1337.62 Q107.584 1330.49 105.756 1326.94 Q103.95 1323.38 100.316 1323.38 M100.316 1319.68 Q106.126 1319.68 109.181 1324.28 Q112.26 1328.87 112.26 1337.62 Q112.26 1346.34 109.181 1350.95 Q106.126 1355.53 100.316 1355.53 Q94.5056 1355.53 91.4269 1350.95 Q88.3714 1346.34 88.3714 1337.62 Q88.3714 1328.87 91.4269 1324.28 Q94.5056 1319.68 100.316 1319.68 Z" fill="#000000" fill-rule="evenodd" fill-opacity="1" /><path clip-path="url(#clip600)" d="M120.478 1348.98 L125.362 1348.98 L125.362 1354.86 L120.478 1354.86 L120.478 1348.98 Z" fill="#000000" fill-rule="evenodd" fill-opacity="1" /><path clip-path="url(#clip600)" d="M135.593 1320.3 L153.95 1320.3 L153.95 1324.24 L139.876 1324.24 L139.876 1332.71 Q140.894 1332.36 141.913 1332.2 Q142.931 1332.01 143.95 1332.01 Q149.737 1332.01 153.116 1335.19 Q156.496 1338.36 156.496 1343.77 Q156.496 1349.35 153.024 1352.45 Q149.552 1355.53 143.232 1355.53 Q141.056 1355.53 138.788 1355.16 Q136.542 1354.79 134.135 1354.05 L134.135 1349.35 Q136.218 1350.49 138.441 1351.04 Q140.663 1351.6 143.14 1351.6 Q147.144 1351.6 149.482 1349.49 Q151.82 1347.38 151.82 1343.77 Q151.82 1340.16 149.482 1338.06 Q147.144 1335.95 143.14 1335.95 Q141.265 1335.95 139.39 1336.37 Q137.538 1336.78 135.593 1337.66 L135.593 1320.3 Z" fill="#000000" fill-rule="evenodd" fill-opacity="1" /><path clip-path="url(#clip600)" d="M99.3204 909.81 Q95.7093 909.81 93.8806 913.375 Q92.075 916.917 92.075 924.046 Q92.075 931.153 93.8806 934.718 Q95.7093 938.259 99.3204 938.259 Q102.955 938.259 104.76 934.718 Q106.589 931.153 106.589 924.046 Q106.589 916.917 104.76 913.375 Q102.955 909.81 99.3204 909.81 M99.3204 906.107 Q105.131 906.107 108.186 910.713 Q111.265 915.296 111.265 924.046 Q111.265 932.773 108.186 937.38 Q105.131 941.963 99.3204 941.963 Q93.5102 941.963 90.4315 937.38 Q87.376 932.773 87.376 924.046 Q87.376 915.296 90.4315 910.713 Q93.5102 906.107 99.3204 906.107 Z" fill="#000000" fill-rule="evenodd" fill-opacity="1" /><path clip-path="url(#clip600)" d="M119.482 935.412 L124.367 935.412 L124.367 941.292 L119.482 941.292 L119.482 935.412 Z" fill="#000000" fill-rule="evenodd" fill-opacity="1" /><path clip-path="url(#clip600)" d="M144.552 909.81 Q140.941 909.81 139.112 913.375 Q137.306 916.917 137.306 924.046 Q137.306 931.153 139.112 934.718 Q140.941 938.259 144.552 938.259 Q148.186 938.259 149.991 934.718 Q151.82 931.153 151.82 924.046 Q151.82 916.917 149.991 913.375 Q148.186 909.81 144.552 909.81 M144.552 906.107 Q150.362 906.107 153.417 910.713 Q156.496 915.296 156.496 924.046 Q156.496 932.773 153.417 937.38 Q150.362 941.963 144.552 941.963 Q138.741 941.963 135.663 937.38 Q132.607 932.773 132.607 924.046 Q132.607 915.296 135.663 910.713 Q138.741 906.107 144.552 906.107 Z" fill="#000000" fill-rule="evenodd" fill-opacity="1" /><path clip-path="url(#clip600)" d="M100.316 496.241 Q96.7047 496.241 94.876 499.806 Q93.0704 503.347 93.0704 510.477 Q93.0704 517.583 94.876 521.148 Q96.7047 524.69 100.316 524.69 Q103.95 524.69 105.756 521.148 Q107.584 517.583 107.584 510.477 Q107.584 503.347 105.756 499.806 Q103.95 496.241 100.316 496.241 M100.316 492.537 Q106.126 492.537 109.181 497.144 Q112.26 501.727 112.26 510.477 Q112.26 519.204 109.181 523.81 Q106.126 528.393 100.316 528.393 Q94.5056 528.393 91.4269 523.81 Q88.3714 519.204 88.3714 510.477 Q88.3714 501.727 91.4269 497.144 Q94.5056 492.537 100.316 492.537 Z" fill="#000000" fill-rule="evenodd" fill-opacity="1" /><path clip-path="url(#clip600)" d="M120.478 521.842 L125.362 521.842 L125.362 527.722 L120.478 527.722 L120.478 521.842 Z" fill="#000000" fill-rule="evenodd" fill-opacity="1" /><path clip-path="url(#clip600)" d="M135.593 493.162 L153.95 493.162 L153.95 497.097 L139.876 497.097 L139.876 505.569 Q140.894 505.222 141.913 505.06 Q142.931 504.875 143.95 504.875 Q149.737 504.875 153.116 508.046 Q156.496 511.218 156.496 516.634 Q156.496 522.213 153.024 525.315 Q149.552 528.393 143.232 528.393 Q141.056 528.393 138.788 528.023 Q136.542 527.653 134.135 526.912 L134.135 522.213 Q136.218 523.347 138.441 523.903 Q140.663 524.458 143.14 524.458 Q147.144 524.458 149.482 522.352 Q151.82 520.245 151.82 516.634 Q151.82 513.023 149.482 510.917 Q147.144 508.81 143.14 508.81 Q141.265 508.81 139.39 509.227 Q137.538 509.643 135.593 510.523 L135.593 493.162 Z" fill="#000000" fill-rule="evenodd" fill-opacity="1" /><path clip-path="url(#clip600)" d="M90.1306 110.217 L97.7695 110.217 L97.7695 83.8517 L89.4593 85.5183 L89.4593 81.2591 L97.7232 79.5924 L102.399 79.5924 L102.399 110.217 L110.038 110.217 L110.038 114.152 L90.1306 114.152 L90.1306 110.217 Z" fill="#000000" fill-rule="evenodd" fill-opacity="1" /><path clip-path="url(#clip600)" d="M119.482 108.273 L124.367 108.273 L124.367 114.152 L119.482 114.152 L119.482 108.273 Z" fill="#000000" fill-rule="evenodd" fill-opacity="1" /><path clip-path="url(#clip600)" d="M144.552 82.6711 Q140.941 82.6711 139.112 86.2359 Q137.306 89.7776 137.306 96.9072 Q137.306 104.014 139.112 107.578 Q140.941 111.12 144.552 111.12 Q148.186 111.12 149.991 107.578 Q151.82 104.014 151.82 96.9072 Q151.82 89.7776 149.991 86.2359 Q148.186 82.6711 144.552 82.6711 M144.552 78.9675 Q150.362 78.9675 153.417 83.5739 Q156.496 88.1572 156.496 96.9072 Q156.496 105.634 153.417 110.24 Q150.362 114.824 144.552 114.824 Q138.741 114.824 135.663 110.24 Q132.607 105.634 132.607 96.9072 Q132.607 88.1572 135.663 83.5739 Q138.741 78.9675 144.552 78.9675 Z" fill="#000000" fill-rule="evenodd" fill-opacity="1" /><polyline clip-path="url(#clip602)" style="stroke:#009af9; stroke-linecap:butt; stroke-linejoin:round; stroke-width:12; stroke-opacity:1; fill:none" points="
  265.984,1751.15 496.544,924.012 727.105,96.8724 957.665,924.012 1188.23,1751.15 1418.79,924.012 1649.35,510.442 1879.91,924.012 2110.47,510.442 2341.03,924.012 
  2571.59,1751.15 
  "/>
</svg>
