<?xml version="1.0" encoding="utf-8"?>
<svg xmlns="http://www.w3.org/2000/svg" xmlns:xlink="http://www.w3.org/1999/xlink" width="672" height="480" viewBox="0 0 2688 1920">
<defs>
  <clipPath id="clip480">
    <rect x="0" y="0" width="2688" height="1920"/>
  </clipPath>
</defs>
<path clip-path="url(#clip480)" d="
M0 1920 L2688 1920 L2688 0 L0 0  Z
  " fill="#ffffff" fill-rule="evenodd" fill-opacity="1"/>
<defs>
  <clipPath id="clip481">
    <rect x="537" y="0" width="1883" height="1883"/>
  </clipPath>
</defs>
<path clip-path="url(#clip480)" d="
M189.154 1734.12 L2640.76 1734.12 L2640.76 47.2441 L189.154 47.2441  Z
  " fill="#ffffff" fill-rule="evenodd" fill-opacity="1"/>
<defs>
  <clipPath id="clip482">
    <rect x="189" y="47" width="2453" height="1688"/>
  </clipPath>
</defs>
<polyline clip-path="url(#clip482)" style="stroke:#000000; stroke-linecap:butt; stroke-linejoin:round; stroke-width:2; stroke-opacity:0.1; fill:none" points="
  189.154,1734.12 189.154,47.2441 
  "/>
<polyline clip-path="url(#clip482)" style="stroke:#000000; stroke-linecap:butt; stroke-linejoin:round; stroke-width:2; stroke-opacity:0.1; fill:none" points="
  1006.35,1734.12 1006.35,47.2441 
  "/>
<polyline clip-path="url(#clip482)" style="stroke:#000000; stroke-linecap:butt; stroke-linejoin:round; stroke-width:2; stroke-opacity:0.1; fill:none" points="
  1823.56,1734.12 1823.56,47.2441 
  "/>
<polyline clip-path="url(#clip482)" style="stroke:#000000; stroke-linecap:butt; stroke-linejoin:round; stroke-width:2; stroke-opacity:0.1; fill:none" points="
  2640.76,1734.12 2640.76,47.2441 
  "/>
<polyline clip-path="url(#clip480)" style="stroke:#000000; stroke-linecap:butt; stroke-linejoin:round; stroke-width:4; stroke-opacity:1; fill:none" points="
  189.154,1734.12 2640.76,1734.12 
  "/>
<polyline clip-path="url(#clip480)" style="stroke:#000000; stroke-linecap:butt; stroke-linejoin:round; stroke-width:4; stroke-opacity:1; fill:none" points="
  189.154,1734.12 189.154,1715.22 
  "/>
<polyline clip-path="url(#clip480)" style="stroke:#000000; stroke-linecap:butt; stroke-linejoin:round; stroke-width:4; stroke-opacity:1; fill:none" points="
  1006.35,1734.12 1006.35,1715.22 
  "/>
<polyline clip-path="url(#clip480)" style="stroke:#000000; stroke-linecap:butt; stroke-linejoin:round; stroke-width:4; stroke-opacity:1; fill:none" points="
  1823.56,1734.12 1823.56,1715.22 
  "/>
<polyline clip-path="url(#clip480)" style="stroke:#000000; stroke-linecap:butt; stroke-linejoin:round; stroke-width:4; stroke-opacity:1; fill:none" points="
  2640.76,1734.12 2640.76,1715.22 
  "/>
<path clip-path="url(#clip480)" d="M189.154 1767.34 Q185.543 1767.34 183.714 1770.9 Q181.909 1774.45 181.909 1781.58 Q181.909 1788.68 183.714 1792.25 Q185.543 1795.79 189.154 1795.79 Q192.788 1795.79 194.594 1792.25 Q196.422 1788.68 196.422 1781.58 Q196.422 1774.45 194.594 1770.9 Q192.788 1767.34 189.154 1767.34 M189.154 1763.64 Q194.964 1763.64 198.02 1768.24 Q201.098 1772.83 201.098 1781.58 Q201.098 1790.3 198.02 1794.91 Q194.964 1799.49 189.154 1799.49 Q183.344 1799.49 180.265 1794.91 Q177.21 1790.3 177.21 1781.58 Q177.21 1772.83 180.265 1768.24 Q183.344 1763.64 189.154 1763.64 Z" fill="#000000" fill-rule="evenodd" fill-opacity="1" /><path clip-path="url(#clip480)" d="M981.054 1764.26 L999.41 1764.26 L999.41 1768.2 L985.336 1768.2 L985.336 1776.67 Q986.355 1776.32 987.373 1776.16 Q988.392 1775.97 989.41 1775.97 Q995.197 1775.97 998.577 1779.15 Q1001.96 1782.32 1001.96 1787.73 Q1001.96 1793.31 998.484 1796.41 Q995.012 1799.49 988.693 1799.49 Q986.517 1799.49 984.248 1799.12 Q982.003 1798.75 979.596 1798.01 L979.596 1793.31 Q981.679 1794.45 983.901 1795 Q986.123 1795.56 988.6 1795.56 Q992.605 1795.56 994.943 1793.45 Q997.281 1791.34 997.281 1787.73 Q997.281 1784.12 994.943 1782.02 Q992.605 1779.91 988.6 1779.91 Q986.725 1779.91 984.85 1780.33 Q982.998 1780.74 981.054 1781.62 L981.054 1764.26 Z" fill="#000000" fill-rule="evenodd" fill-opacity="1" /><path clip-path="url(#clip480)" d="M1021.17 1767.34 Q1017.56 1767.34 1015.73 1770.9 Q1013.92 1774.45 1013.92 1781.58 Q1013.92 1788.68 1015.73 1792.25 Q1017.56 1795.79 1021.17 1795.79 Q1024.8 1795.79 1026.61 1792.25 Q1028.44 1788.68 1028.44 1781.58 Q1028.44 1774.45 1026.61 1770.9 Q1024.8 1767.34 1021.17 1767.34 M1021.17 1763.64 Q1026.98 1763.64 1030.04 1768.24 Q1033.11 1772.83 1033.11 1781.58 Q1033.11 1790.3 1030.04 1794.91 Q1026.98 1799.49 1021.17 1799.49 Q1015.36 1799.49 1012.28 1794.91 Q1009.22 1790.3 1009.22 1781.58 Q1009.22 1772.83 1012.28 1768.24 Q1015.36 1763.64 1021.17 1763.64 Z" fill="#000000" fill-rule="evenodd" fill-opacity="1" /><path clip-path="url(#clip480)" d="M1783.16 1794.89 L1790.8 1794.89 L1790.8 1768.52 L1782.49 1770.19 L1782.49 1765.93 L1790.75 1764.26 L1795.43 1764.26 L1795.43 1794.89 L1803.07 1794.89 L1803.07 1798.82 L1783.16 1798.82 L1783.16 1794.89 Z" fill="#000000" fill-rule="evenodd" fill-opacity="1" /><path clip-path="url(#clip480)" d="M1822.51 1767.34 Q1818.9 1767.34 1817.07 1770.9 Q1815.27 1774.45 1815.27 1781.58 Q1815.27 1788.68 1817.07 1792.25 Q1818.9 1795.79 1822.51 1795.79 Q1826.15 1795.79 1827.95 1792.25 Q1829.78 1788.68 1829.78 1781.58 Q1829.78 1774.45 1827.95 1770.9 Q1826.15 1767.34 1822.51 1767.34 M1822.51 1763.64 Q1828.32 1763.64 1831.38 1768.24 Q1834.46 1772.83 1834.46 1781.58 Q1834.46 1790.3 1831.38 1794.91 Q1828.32 1799.49 1822.51 1799.49 Q1816.7 1799.49 1813.62 1794.91 Q1810.57 1790.3 1810.57 1781.58 Q1810.57 1772.83 1813.62 1768.24 Q1816.7 1763.64 1822.51 1763.64 Z" fill="#000000" fill-rule="evenodd" fill-opacity="1" /><path clip-path="url(#clip480)" d="M1852.68 1767.34 Q1849.06 1767.34 1847.24 1770.9 Q1845.43 1774.45 1845.43 1781.58 Q1845.43 1788.68 1847.24 1792.25 Q1849.06 1795.79 1852.68 1795.79 Q1856.31 1795.79 1858.12 1792.25 Q1859.94 1788.68 1859.94 1781.58 Q1859.94 1774.45 1858.12 1770.9 Q1856.31 1767.34 1852.68 1767.34 M1852.68 1763.64 Q1858.49 1763.64 1861.54 1768.24 Q1864.62 1772.83 1864.62 1781.58 Q1864.62 1790.3 1861.54 1794.91 Q1858.49 1799.49 1852.68 1799.49 Q1846.87 1799.49 1843.79 1794.91 Q1840.73 1790.3 1840.73 1781.58 Q1840.73 1772.83 1843.79 1768.24 Q1846.87 1763.64 1852.68 1763.64 Z" fill="#000000" fill-rule="evenodd" fill-opacity="1" /><path clip-path="url(#clip480)" d="M2600.36 1794.89 L2608 1794.89 L2608 1768.52 L2599.69 1770.19 L2599.69 1765.93 L2607.96 1764.26 L2612.63 1764.26 L2612.63 1794.89 L2620.27 1794.89 L2620.27 1798.82 L2600.36 1798.82 L2600.36 1794.89 Z" fill="#000000" fill-rule="evenodd" fill-opacity="1" /><path clip-path="url(#clip480)" d="M2629.76 1764.26 L2648.12 1764.26 L2648.12 1768.2 L2634.04 1768.2 L2634.04 1776.67 Q2635.06 1776.32 2636.08 1776.16 Q2637.1 1775.97 2638.12 1775.97 Q2643.9 1775.97 2647.28 1779.15 Q2650.66 1782.32 2650.66 1787.73 Q2650.66 1793.31 2647.19 1796.41 Q2643.72 1799.49 2637.4 1799.49 Q2635.22 1799.49 2632.96 1799.12 Q2630.71 1798.75 2628.3 1798.01 L2628.3 1793.31 Q2630.39 1794.45 2632.61 1795 Q2634.83 1795.56 2637.31 1795.56 Q2641.31 1795.56 2643.65 1793.45 Q2645.99 1791.34 2645.99 1787.73 Q2645.99 1784.12 2643.65 1782.02 Q2641.31 1779.91 2637.31 1779.91 Q2635.43 1779.91 2633.56 1780.33 Q2631.71 1780.74 2629.76 1781.62 L2629.76 1764.26 Z" fill="#000000" fill-rule="evenodd" fill-opacity="1" /><path clip-path="url(#clip480)" d="M2669.88 1767.34 Q2666.27 1767.34 2664.44 1770.9 Q2662.63 1774.45 2662.63 1781.58 Q2662.63 1788.68 2664.44 1792.25 Q2666.27 1795.79 2669.88 1795.79 Q2673.51 1795.79 2675.32 1792.25 Q2677.14 1788.68 2677.14 1781.58 Q2677.14 1774.45 2675.32 1770.9 Q2673.51 1767.34 2669.88 1767.34 M2669.88 1763.64 Q2675.69 1763.64 2678.74 1768.24 Q2681.82 1772.83 2681.82 1781.58 Q2681.82 1790.3 2678.74 1794.91 Q2675.69 1799.49 2669.88 1799.49 Q2664.07 1799.49 2660.99 1794.91 Q2657.93 1790.3 2657.93 1781.58 Q2657.93 1772.83 2660.99 1768.24 Q2664.07 1763.64 2669.88 1763.64 Z" fill="#000000" fill-rule="evenodd" fill-opacity="1" /><path clip-path="url(#clip480)" d="M1414.02 1837.53 L1414.02 1847.65 L1426.08 1847.65 L1426.08 1852.2 L1414.02 1852.2 L1414.02 1871.56 Q1414.02 1875.92 1415.19 1877.16 Q1416.4 1878.4 1420.06 1878.4 L1426.08 1878.4 L1426.08 1883.3 L1420.06 1883.3 Q1413.28 1883.3 1410.71 1880.79 Q1408.13 1878.24 1408.13 1871.56 L1408.13 1852.2 L1403.83 1852.2 L1403.83 1847.65 L1408.13 1847.65 L1408.13 1837.53 L1414.02 1837.53 Z" fill="#000000" fill-rule="evenodd" fill-opacity="1" /><polyline clip-path="url(#clip482)" style="stroke:#000000; stroke-linecap:butt; stroke-linejoin:round; stroke-width:2; stroke-opacity:0.1; fill:none" points="
  189.154,1686.37 2640.76,1686.37 
  "/>
<polyline clip-path="url(#clip482)" style="stroke:#000000; stroke-linecap:butt; stroke-linejoin:round; stroke-width:2; stroke-opacity:0.1; fill:none" points="
  189.154,1288.53 2640.76,1288.53 
  "/>
<polyline clip-path="url(#clip482)" style="stroke:#000000; stroke-linecap:butt; stroke-linejoin:round; stroke-width:2; stroke-opacity:0.1; fill:none" points="
  189.154,890.679 2640.76,890.679 
  "/>
<polyline clip-path="url(#clip482)" style="stroke:#000000; stroke-linecap:butt; stroke-linejoin:round; stroke-width:2; stroke-opacity:0.1; fill:none" points="
  189.154,492.831 2640.76,492.831 
  "/>
<polyline clip-path="url(#clip482)" style="stroke:#000000; stroke-linecap:butt; stroke-linejoin:round; stroke-width:2; stroke-opacity:0.1; fill:none" points="
  189.154,94.9838 2640.76,94.9838 
  "/>
<polyline clip-path="url(#clip480)" style="stroke:#000000; stroke-linecap:butt; stroke-linejoin:round; stroke-width:4; stroke-opacity:1; fill:none" points="
  189.154,1734.12 189.154,47.2441 
  "/>
<polyline clip-path="url(#clip480)" style="stroke:#000000; stroke-linecap:butt; stroke-linejoin:round; stroke-width:4; stroke-opacity:1; fill:none" points="
  189.154,1686.37 208.052,1686.37 
  "/>
<polyline clip-path="url(#clip480)" style="stroke:#000000; stroke-linecap:butt; stroke-linejoin:round; stroke-width:4; stroke-opacity:1; fill:none" points="
  189.154,1288.53 208.052,1288.53 
  "/>
<polyline clip-path="url(#clip480)" style="stroke:#000000; stroke-linecap:butt; stroke-linejoin:round; stroke-width:4; stroke-opacity:1; fill:none" points="
  189.154,890.679 208.052,890.679 
  "/>
<polyline clip-path="url(#clip480)" style="stroke:#000000; stroke-linecap:butt; stroke-linejoin:round; stroke-width:4; stroke-opacity:1; fill:none" points="
  189.154,492.831 208.052,492.831 
  "/>
<polyline clip-path="url(#clip480)" style="stroke:#000000; stroke-linecap:butt; stroke-linejoin:round; stroke-width:4; stroke-opacity:1; fill:none" points="
  189.154,94.9838 208.052,94.9838 
  "/>
<path clip-path="url(#clip480)" d="M61.4965 1672.17 Q57.8854 1672.17 56.0567 1675.74 Q54.2512 1679.28 54.2512 1686.41 Q54.2512 1693.51 56.0567 1697.08 Q57.8854 1700.62 61.4965 1700.62 Q65.1307 1700.62 66.9363 1697.08 Q68.765 1693.51 68.765 1686.41 Q68.765 1679.28 66.9363 1675.74 Q65.1307 1672.17 61.4965 1672.17 M61.4965 1668.47 Q67.3067 1668.47 70.3622 1673.08 Q73.4409 1677.66 73.4409 1686.41 Q73.4409 1695.14 70.3622 1699.74 Q67.3067 1704.32 61.4965 1704.32 Q55.6864 1704.32 52.6077 1699.74 Q49.5521 1695.14 49.5521 1686.41 Q49.5521 1677.66 52.6077 1673.08 Q55.6864 1668.47 61.4965 1668.47 Z" fill="#000000" fill-rule="evenodd" fill-opacity="1" /><path clip-path="url(#clip480)" d="M81.6584 1697.77 L86.5427 1697.77 L86.5427 1703.65 L81.6584 1703.65 L81.6584 1697.77 Z" fill="#000000" fill-rule="evenodd" fill-opacity="1" /><path clip-path="url(#clip480)" d="M106.728 1672.17 Q103.117 1672.17 101.288 1675.74 Q99.4824 1679.28 99.4824 1686.41 Q99.4824 1693.51 101.288 1697.08 Q103.117 1700.62 106.728 1700.62 Q110.362 1700.62 112.168 1697.08 Q113.996 1693.51 113.996 1686.41 Q113.996 1679.28 112.168 1675.74 Q110.362 1672.17 106.728 1672.17 M106.728 1668.47 Q112.538 1668.47 115.593 1673.08 Q118.672 1677.66 118.672 1686.41 Q118.672 1695.14 115.593 1699.74 Q112.538 1704.32 106.728 1704.32 Q100.918 1704.32 97.8389 1699.74 Q94.7834 1695.14 94.7834 1686.41 Q94.7834 1677.66 97.8389 1673.08 Q100.918 1668.47 106.728 1668.47 Z" fill="#000000" fill-rule="evenodd" fill-opacity="1" /><path clip-path="url(#clip480)" d="M136.89 1672.17 Q133.279 1672.17 131.45 1675.74 Q129.644 1679.28 129.644 1686.41 Q129.644 1693.51 131.45 1697.08 Q133.279 1700.62 136.89 1700.62 Q140.524 1700.62 142.329 1697.08 Q144.158 1693.51 144.158 1686.41 Q144.158 1679.28 142.329 1675.74 Q140.524 1672.17 136.89 1672.17 M136.89 1668.47 Q142.7 1668.47 145.755 1673.08 Q148.834 1677.66 148.834 1686.41 Q148.834 1695.14 145.755 1699.74 Q142.7 1704.32 136.89 1704.32 Q131.079 1704.32 128.001 1699.74 Q124.945 1695.14 124.945 1686.41 Q124.945 1677.66 128.001 1673.08 Q131.079 1668.47 136.89 1668.47 Z" fill="#000000" fill-rule="evenodd" fill-opacity="1" /><path clip-path="url(#clip480)" d="M62.4919 1274.32 Q58.8808 1274.32 57.0521 1277.89 Q55.2465 1281.43 55.2465 1288.56 Q55.2465 1295.67 57.0521 1299.23 Q58.8808 1302.77 62.4919 1302.77 Q66.1261 1302.77 67.9317 1299.23 Q69.7604 1295.67 69.7604 1288.56 Q69.7604 1281.43 67.9317 1277.89 Q66.1261 1274.32 62.4919 1274.32 M62.4919 1270.62 Q68.302 1270.62 71.3576 1275.23 Q74.4363 1279.81 74.4363 1288.56 Q74.4363 1297.29 71.3576 1301.89 Q68.302 1306.48 62.4919 1306.48 Q56.6817 1306.48 53.603 1301.89 Q50.5475 1297.29 50.5475 1288.56 Q50.5475 1279.81 53.603 1275.23 Q56.6817 1270.62 62.4919 1270.62 Z" fill="#000000" fill-rule="evenodd" fill-opacity="1" /><path clip-path="url(#clip480)" d="M82.6538 1299.93 L87.538 1299.93 L87.538 1305.81 L82.6538 1305.81 L82.6538 1299.93 Z" fill="#000000" fill-rule="evenodd" fill-opacity="1" /><path clip-path="url(#clip480)" d="M101.751 1301.87 L118.07 1301.87 L118.07 1305.81 L96.126 1305.81 L96.126 1301.87 Q98.788 1299.12 103.371 1294.49 Q107.978 1289.83 109.158 1288.49 Q111.404 1285.97 112.283 1284.23 Q113.186 1282.47 113.186 1280.78 Q113.186 1278.03 111.242 1276.29 Q109.32 1274.56 106.218 1274.56 Q104.019 1274.56 101.566 1275.32 Q99.1352 1276.08 96.3574 1277.64 L96.3574 1272.91 Q99.1815 1271.78 101.635 1271.2 Q104.089 1270.62 106.126 1270.62 Q111.496 1270.62 114.691 1273.31 Q117.885 1275.99 117.885 1280.48 Q117.885 1282.61 117.075 1284.53 Q116.288 1286.43 114.181 1289.02 Q113.603 1289.7 110.501 1292.91 Q107.399 1296.11 101.751 1301.87 Z" fill="#000000" fill-rule="evenodd" fill-opacity="1" /><path clip-path="url(#clip480)" d="M127.931 1271.25 L146.288 1271.25 L146.288 1275.18 L132.214 1275.18 L132.214 1283.65 Q133.232 1283.31 134.251 1283.14 Q135.269 1282.96 136.288 1282.96 Q142.075 1282.96 145.454 1286.13 Q148.834 1289.3 148.834 1294.72 Q148.834 1300.3 145.362 1303.4 Q141.89 1306.48 135.57 1306.48 Q133.394 1306.48 131.126 1306.11 Q128.88 1305.74 126.473 1305 L126.473 1300.3 Q128.556 1301.43 130.779 1301.99 Q133.001 1302.54 135.478 1302.54 Q139.482 1302.54 141.82 1300.44 Q144.158 1298.33 144.158 1294.72 Q144.158 1291.11 141.82 1289 Q139.482 1286.89 135.478 1286.89 Q133.603 1286.89 131.728 1287.31 Q129.876 1287.73 127.931 1288.61 L127.931 1271.25 Z" fill="#000000" fill-rule="evenodd" fill-opacity="1" /><path clip-path="url(#clip480)" d="M61.4965 876.477 Q57.8854 876.477 56.0567 880.042 Q54.2512 883.584 54.2512 890.713 Q54.2512 897.82 56.0567 901.385 Q57.8854 904.926 61.4965 904.926 Q65.1307 904.926 66.9363 901.385 Q68.765 897.82 68.765 890.713 Q68.765 883.584 66.9363 880.042 Q65.1307 876.477 61.4965 876.477 M61.4965 872.774 Q67.3067 872.774 70.3622 877.38 Q73.4409 881.963 73.4409 890.713 Q73.4409 899.44 70.3622 904.047 Q67.3067 908.63 61.4965 908.63 Q55.6864 908.63 52.6077 904.047 Q49.5521 899.44 49.5521 890.713 Q49.5521 881.963 52.6077 877.38 Q55.6864 872.774 61.4965 872.774 Z" fill="#000000" fill-rule="evenodd" fill-opacity="1" /><path clip-path="url(#clip480)" d="M81.6584 902.079 L86.5427 902.079 L86.5427 907.959 L81.6584 907.959 L81.6584 902.079 Z" fill="#000000" fill-rule="evenodd" fill-opacity="1" /><path clip-path="url(#clip480)" d="M96.7741 873.399 L115.13 873.399 L115.13 877.334 L101.056 877.334 L101.056 885.806 Q102.075 885.459 103.094 885.297 Q104.112 885.112 105.131 885.112 Q110.918 885.112 114.297 888.283 Q117.677 891.454 117.677 896.871 Q117.677 902.449 114.205 905.551 Q110.732 908.63 104.413 908.63 Q102.237 908.63 99.9685 908.26 Q97.7232 907.889 95.3158 907.149 L95.3158 902.449 Q97.3991 903.584 99.6213 904.139 Q101.844 904.695 104.32 904.695 Q108.325 904.695 110.663 902.588 Q113.001 900.482 113.001 896.871 Q113.001 893.26 110.663 891.153 Q108.325 889.047 104.32 889.047 Q102.445 889.047 100.57 889.463 Q98.7185 889.88 96.7741 890.76 L96.7741 873.399 Z" fill="#000000" fill-rule="evenodd" fill-opacity="1" /><path clip-path="url(#clip480)" d="M136.89 876.477 Q133.279 876.477 131.45 880.042 Q129.644 883.584 129.644 890.713 Q129.644 897.82 131.45 901.385 Q133.279 904.926 136.89 904.926 Q140.524 904.926 142.329 901.385 Q144.158 897.82 144.158 890.713 Q144.158 883.584 142.329 880.042 Q140.524 876.477 136.89 876.477 M136.89 872.774 Q142.7 872.774 145.755 877.38 Q148.834 881.963 148.834 890.713 Q148.834 899.44 145.755 904.047 Q142.7 908.63 136.89 908.63 Q131.079 908.63 128.001 904.047 Q124.945 899.44 124.945 890.713 Q124.945 881.963 128.001 877.38 Q131.079 872.774 136.89 872.774 Z" fill="#000000" fill-rule="evenodd" fill-opacity="1" /><path clip-path="url(#clip480)" d="M62.4919 478.63 Q58.8808 478.63 57.0521 482.195 Q55.2465 485.736 55.2465 492.866 Q55.2465 499.972 57.0521 503.537 Q58.8808 507.079 62.4919 507.079 Q66.1261 507.079 67.9317 503.537 Q69.7604 499.972 69.7604 492.866 Q69.7604 485.736 67.9317 482.195 Q66.1261 478.63 62.4919 478.63 M62.4919 474.926 Q68.302 474.926 71.3576 479.533 Q74.4363 484.116 74.4363 492.866 Q74.4363 501.593 71.3576 506.199 Q68.302 510.783 62.4919 510.783 Q56.6817 510.783 53.603 506.199 Q50.5475 501.593 50.5475 492.866 Q50.5475 484.116 53.603 479.533 Q56.6817 474.926 62.4919 474.926 Z" fill="#000000" fill-rule="evenodd" fill-opacity="1" /><path clip-path="url(#clip480)" d="M82.6538 504.232 L87.538 504.232 L87.538 510.111 L82.6538 510.111 L82.6538 504.232 Z" fill="#000000" fill-rule="evenodd" fill-opacity="1" /><path clip-path="url(#clip480)" d="M96.5426 475.551 L118.765 475.551 L118.765 477.542 L106.218 510.111 L101.334 510.111 L113.14 479.486 L96.5426 479.486 L96.5426 475.551 Z" fill="#000000" fill-rule="evenodd" fill-opacity="1" /><path clip-path="url(#clip480)" d="M127.931 475.551 L146.288 475.551 L146.288 479.486 L132.214 479.486 L132.214 487.959 Q133.232 487.611 134.251 487.449 Q135.269 487.264 136.288 487.264 Q142.075 487.264 145.454 490.435 Q148.834 493.607 148.834 499.023 Q148.834 504.602 145.362 507.704 Q141.89 510.783 135.57 510.783 Q133.394 510.783 131.126 510.412 Q128.88 510.042 126.473 509.301 L126.473 504.602 Q128.556 505.736 130.779 506.292 Q133.001 506.847 135.478 506.847 Q139.482 506.847 141.82 504.741 Q144.158 502.634 144.158 499.023 Q144.158 495.412 141.82 493.306 Q139.482 491.199 135.478 491.199 Q133.603 491.199 131.728 491.616 Q129.876 492.033 127.931 492.912 L127.931 475.551 Z" fill="#000000" fill-rule="evenodd" fill-opacity="1" /><path clip-path="url(#clip480)" d="M52.3067 108.329 L59.9456 108.329 L59.9456 81.963 L51.6354 83.6297 L51.6354 79.3704 L59.8993 77.7038 L64.5752 77.7038 L64.5752 108.329 L72.214 108.329 L72.214 112.264 L52.3067 112.264 L52.3067 108.329 Z" fill="#000000" fill-rule="evenodd" fill-opacity="1" /><path clip-path="url(#clip480)" d="M81.6584 106.384 L86.5427 106.384 L86.5427 112.264 L81.6584 112.264 L81.6584 106.384 Z" fill="#000000" fill-rule="evenodd" fill-opacity="1" /><path clip-path="url(#clip480)" d="M106.728 80.7825 Q103.117 80.7825 101.288 84.3472 Q99.4824 87.8889 99.4824 95.0185 Q99.4824 102.125 101.288 105.69 Q103.117 109.231 106.728 109.231 Q110.362 109.231 112.168 105.69 Q113.996 102.125 113.996 95.0185 Q113.996 87.8889 112.168 84.3472 Q110.362 80.7825 106.728 80.7825 M106.728 77.0788 Q112.538 77.0788 115.593 81.6852 Q118.672 86.2685 118.672 95.0185 Q118.672 103.745 115.593 108.352 Q112.538 112.935 106.728 112.935 Q100.918 112.935 97.8389 108.352 Q94.7834 103.745 94.7834 95.0185 Q94.7834 86.2685 97.8389 81.6852 Q100.918 77.0788 106.728 77.0788 Z" fill="#000000" fill-rule="evenodd" fill-opacity="1" /><path clip-path="url(#clip480)" d="M136.89 80.7825 Q133.279 80.7825 131.45 84.3472 Q129.644 87.8889 129.644 95.0185 Q129.644 102.125 131.45 105.69 Q133.279 109.231 136.89 109.231 Q140.524 109.231 142.329 105.69 Q144.158 102.125 144.158 95.0185 Q144.158 87.8889 142.329 84.3472 Q140.524 80.7825 136.89 80.7825 M136.89 77.0788 Q142.7 77.0788 145.755 81.6852 Q148.834 86.2685 148.834 95.0185 Q148.834 103.745 145.755 108.352 Q142.7 112.935 136.89 112.935 Q131.079 112.935 128.001 108.352 Q124.945 103.745 124.945 95.0185 Q124.945 86.2685 128.001 81.6852 Q131.079 77.0788 136.89 77.0788 Z" fill="#000000" fill-rule="evenodd" fill-opacity="1" /><polyline clip-path="url(#clip482)" style="stroke:#009af9; stroke-linecap:butt; stroke-linejoin:round; stroke-width:4; stroke-opacity:1; fill:none" points="
  189.154,94.9858 191.608,94.9865 194.062,94.9873 196.516,94.9884 198.97,94.9897 201.424,94.9914 203.878,94.9935 206.332,94.9961 208.786,94.9994 211.241,95.0035 
  213.695,95.0086 216.149,95.015 218.603,95.0231 221.057,95.0333 223.511,95.0459 225.965,95.0618 228.419,95.0816 230.873,95.1064 233.327,95.1376 235.781,95.1767 
  238.235,95.2256 240.689,95.2869 243.143,95.3634 245.597,95.4591 248.051,95.5792 250.505,95.7299 252.959,95.9188 255.414,96.155 257.868,96.4503 260.322,96.8194 
  262.776,97.2818 265.23,97.8619 267.684,98.5884 270.138,99.4964 272.592,100.63 275.046,102.046 277.5,103.817 279.954,106.033 282.408,108.8 284.862,112.245 
  287.316,116.53 289.77,121.859 292.224,128.481 294.678,136.693 297.132,146.837 299.587,159.299 302.041,174.58 304.495,193.252 306.949,215.909 309.403,243.168 
  311.857,275.666 314.311,313.988 316.765,358.708 319.219,410.143 321.673,468.269 324.127,532.728 326.581,602.824 329.035,677.523 331.489,755.152 333.943,833.957 
  336.397,912.247 338.851,988.394 341.305,1060.84 343.76,1128.39 346.214,1190.43 348.668,1246.6 351.122,1296.79 353.576,1341.13 356.03,1380.01 358.484,1413.99 
  360.938,1443.57 363.392,1469.24 365.846,1491.49 368.3,1510.75 370.754,1527.43 373.208,1541.88 375.662,1554.42 378.116,1565.34 380.57,1574.86 383.024,1583.19 
  385.478,1590.49 387.933,1596.92 390.387,1602.59 392.841,1607.6 395.295,1612.05 397.749,1616 400.203,1619.53 402.657,1622.67 405.111,1625.49 407.565,1628.02 
  410.019,1630.3 412.473,1632.36 414.927,1634.22 417.381,1635.91 419.835,1637.43 422.289,1638.82 424.743,1640.09 427.197,1641.24 429.651,1642.29 432.106,1643.25 
  434.56,1644.13 437.014,1644.94 439.468,1645.68 441.922,1646.36 444.376,1646.99 446.83,1647.56 449.284,1648.09 451.738,1648.58 454.192,1649.03 456.646,1649.45 
  459.1,1649.83 461.554,1650.19 464.008,1650.52 466.462,1650.82 468.916,1651.11 471.37,1651.37 473.824,1651.61 476.279,1651.84 478.733,1652.05 481.187,1652.24 
  483.641,1652.42 486.095,1652.59 488.549,1652.74 491.003,1652.89 493.457,1653.02 495.911,1653.15 498.365,1653.26 500.819,1653.37 503.273,1653.47 505.727,1653.57 
  508.181,1653.65 510.635,1653.73 513.089,1653.81 515.543,1653.88 517.998,1653.94 520.452,1654.01 522.906,1654.06 525.36,1654.12 527.814,1654.17 530.268,1654.21 
  532.722,1654.25 535.176,1654.29 537.63,1654.33 540.084,1654.37 542.538,1654.4 544.992,1654.43 547.446,1654.46 549.9,1654.48 552.354,1654.51 554.808,1654.53 
  557.262,1654.55 559.716,1654.57 562.171,1654.59 564.625,1654.61 567.079,1654.62 569.533,1654.64 571.987,1654.65 574.441,1654.67 576.895,1654.68 579.349,1654.69 
  581.803,1654.7 584.257,1654.71 586.711,1654.72 589.165,1654.73 591.619,1654.74 594.073,1654.74 596.527,1654.75 598.981,1654.76 601.435,1654.76 603.889,1654.77 
  606.344,1654.77 608.798,1654.78 611.252,1654.78 613.706,1654.79 616.16,1654.79 618.614,1654.8 621.068,1654.8 623.522,1654.8 625.976,1654.81 628.43,1654.81 
  630.884,1654.81 633.338,1654.81 635.792,1654.82 638.246,1654.82 640.7,1654.82 643.154,1654.82 645.608,1654.82 648.062,1654.83 650.517,1654.83 652.971,1654.83 
  655.425,1654.83 657.879,1654.83 660.333,1654.83 662.787,1654.83 665.241,1654.83 667.695,1654.83 670.149,1654.84 672.603,1654.84 675.057,1654.84 677.511,1654.84 
  679.965,1654.84 682.419,1654.84 684.873,1654.84 687.327,1654.84 689.781,1654.84 692.235,1654.84 694.69,1654.84 697.144,1654.84 699.598,1654.84 702.052,1654.84 
  704.506,1654.84 706.96,1654.84 709.414,1654.84 711.868,1654.84 714.322,1654.84 716.776,1654.84 719.23,1654.85 721.684,1654.85 724.138,1654.85 726.592,1654.85 
  729.046,1654.85 731.5,1654.85 733.954,1654.85 736.408,1654.85 738.863,1654.85 741.317,1654.85 743.771,1654.85 746.225,1654.85 748.679,1654.85 751.133,1654.85 
  753.587,1654.85 756.041,1654.85 758.495,1654.85 760.949,1654.85 763.403,1654.85 765.857,1654.85 768.311,1654.85 770.765,1654.85 773.219,1654.85 775.673,1654.85 
  778.127,1654.85 780.581,1654.85 783.036,1654.85 785.49,1654.85 787.944,1654.85 790.398,1654.85 792.852,1654.85 795.306,1654.85 797.76,1654.85 800.214,1654.85 
  802.668,1654.85 805.122,1654.85 807.576,1654.85 810.03,1654.85 812.484,1654.85 814.938,1654.85 817.392,1654.85 819.846,1654.85 822.3,1654.85 824.754,1654.85 
  827.209,1654.85 829.663,1654.85 832.117,1654.85 834.571,1654.85 837.025,1654.85 839.479,1654.85 841.933,1654.85 844.387,1654.85 846.841,1654.85 849.295,1654.85 
  851.749,1654.85 854.203,1654.85 856.657,1654.85 859.111,1654.85 861.565,1654.85 864.019,1654.85 866.473,1654.85 868.928,1654.85 871.382,1654.85 873.836,1654.85 
  876.29,1654.85 878.744,1654.85 881.198,1654.85 883.652,1654.85 886.106,1654.85 888.56,1654.85 891.014,1654.85 893.468,1654.85 895.922,1654.85 898.376,1654.85 
  900.83,1654.85 903.284,1654.85 905.738,1654.85 908.192,1654.85 910.646,1654.85 913.101,1654.85 915.555,1654.85 918.009,1654.85 920.463,1654.85 922.917,1654.85 
  925.371,1654.85 927.825,1654.85 930.279,1654.85 932.733,1654.85 935.187,1654.85 937.641,1654.85 940.095,1654.85 942.549,1654.85 945.003,1654.85 947.457,1654.85 
  949.911,1654.85 952.365,1654.85 954.819,1654.85 957.274,1654.85 959.728,1654.85 962.182,1654.85 964.636,1654.85 967.09,1654.85 969.544,1654.85 971.998,1654.85 
  974.452,1654.85 976.906,1654.85 979.36,1654.85 981.814,1654.85 984.268,1654.85 986.722,1654.85 989.176,1654.85 991.63,1654.85 994.084,1654.85 996.538,1654.85 
  998.992,1654.85 1001.45,1654.85 1003.9,1654.85 1006.35,1654.85 1008.81,1654.85 1011.26,1654.85 1013.72,1654.85 1016.17,1654.85 1018.62,1654.85 1021.08,1654.85 
  1023.53,1654.85 1025.99,1654.85 1028.44,1654.85 1030.9,1654.85 1033.35,1654.85 1035.8,1654.85 1038.26,1654.85 1040.71,1654.85 1043.17,1654.85 1045.62,1654.85 
  1048.07,1654.85 1050.53,1654.85 1052.98,1654.85 1055.44,1654.85 1057.89,1654.85 1060.34,1654.85 1062.8,1654.85 1065.25,1654.85 1067.71,1654.85 1070.16,1654.85 
  1072.61,1654.85 1075.07,1654.85 1077.52,1654.85 1079.98,1654.85 1082.43,1654.85 1084.88,1654.85 1087.34,1654.85 1089.79,1654.85 1092.25,1654.85 1094.7,1654.85 
  1097.15,1654.85 1099.61,1654.85 1102.06,1654.85 1104.52,1654.85 1106.97,1654.85 1109.42,1654.85 1111.88,1654.85 1114.33,1654.85 1116.79,1654.85 1119.24,1654.85 
  1121.7,1654.85 1124.15,1654.85 1126.6,1654.85 1129.06,1654.85 1131.51,1654.85 1133.97,1654.85 1136.42,1654.85 1138.87,1654.85 1141.33,1654.85 1143.78,1654.85 
  1146.24,1654.85 1148.69,1654.85 1151.14,1654.85 1153.6,1654.85 1156.05,1654.85 1158.51,1654.85 1160.96,1654.85 1163.41,1654.85 1165.87,1654.85 1168.32,1654.85 
  1170.78,1654.85 1173.23,1654.85 1175.68,1654.85 1178.14,1654.85 1180.59,1654.85 1183.05,1654.85 1185.5,1654.85 1187.95,1654.85 1190.41,1654.85 1192.86,1654.85 
  1195.32,1654.85 1197.77,1654.85 1200.23,1654.85 1202.68,1654.85 1205.13,1654.85 1207.59,1654.85 1210.04,1654.85 1212.5,1654.85 1214.95,1654.85 1217.4,1654.85 
  1219.86,1654.85 1222.31,1654.85 1224.77,1654.85 1227.22,1654.85 1229.67,1654.85 1232.13,1654.85 1234.58,1654.85 1237.04,1654.85 1239.49,1654.85 1241.94,1654.85 
  1244.4,1654.85 1246.85,1654.85 1249.31,1654.85 1251.76,1654.85 1254.21,1654.85 1256.67,1654.85 1259.12,1654.85 1261.58,1654.85 1264.03,1654.85 1266.48,1654.85 
  1268.94,1654.85 1271.39,1654.85 1273.85,1654.85 1276.3,1654.85 1278.75,1654.85 1281.21,1654.85 1283.66,1654.85 1286.12,1654.85 1288.57,1654.85 1291.03,1654.85 
  1293.48,1654.85 1295.93,1654.85 1298.39,1654.85 1300.84,1654.85 1303.3,1654.85 1305.75,1654.85 1308.2,1654.85 1310.66,1654.85 1313.11,1654.85 1315.57,1654.85 
  1318.02,1654.85 1320.47,1654.85 1322.93,1654.85 1325.38,1654.85 1327.84,1654.85 1330.29,1654.85 1332.74,1654.85 1335.2,1654.85 1337.65,1654.85 1340.11,1654.85 
  1342.56,1654.85 1345.01,1654.85 1347.47,1654.85 1349.92,1654.85 1352.38,1654.85 1354.83,1654.85 1357.28,1654.85 1359.74,1654.85 1362.19,1654.85 1364.65,1654.85 
  1367.1,1654.85 1369.55,1654.85 1372.01,1654.85 1374.46,1654.85 1376.92,1654.85 1379.37,1654.85 1381.83,1654.85 1384.28,1654.85 1386.73,1654.85 1389.19,1654.85 
  1391.64,1654.85 1394.1,1654.85 1396.55,1654.85 1399,1654.85 1401.46,1654.85 1403.91,1654.85 1406.37,1654.85 1408.82,1654.85 1411.27,1654.85 1413.73,1654.85 
  1416.18,1654.85 1418.64,1654.85 1421.09,1654.85 1423.54,1654.85 1426,1654.85 1428.45,1654.85 1430.91,1654.85 1433.36,1654.85 1435.81,1654.85 1438.27,1654.85 
  1440.72,1654.85 1443.18,1654.85 1445.63,1654.85 1448.08,1654.85 1450.54,1654.85 1452.99,1654.85 1455.45,1654.85 1457.9,1654.85 1460.35,1654.85 1462.81,1654.85 
  1465.26,1654.85 1467.72,1654.85 1470.17,1654.85 1472.63,1654.85 1475.08,1654.85 1477.53,1654.85 1479.99,1654.85 1482.44,1654.85 1484.9,1654.85 1487.35,1654.85 
  1489.8,1654.85 1492.26,1654.85 1494.71,1654.85 1497.17,1654.85 1499.62,1654.85 1502.07,1654.85 1504.53,1654.85 1506.98,1654.85 1509.44,1654.85 1511.89,1654.85 
  1514.34,1654.85 1516.8,1654.85 1519.25,1654.85 1521.71,1654.85 1524.16,1654.85 1526.61,1654.85 1529.07,1654.85 1531.52,1654.85 1533.98,1654.85 1536.43,1654.85 
  1538.88,1654.85 1541.34,1654.85 1543.79,1654.85 1546.25,1654.85 1548.7,1654.85 1551.16,1654.85 1553.61,1654.85 1556.06,1654.85 1558.52,1654.85 1560.97,1654.85 
  1563.43,1654.85 1565.88,1654.85 1568.33,1654.85 1570.79,1654.85 1573.24,1654.85 1575.7,1654.85 1578.15,1654.85 1580.6,1654.85 1583.06,1654.85 1585.51,1654.85 
  1587.97,1654.85 1590.42,1654.85 1592.87,1654.85 1595.33,1654.85 1597.78,1654.85 1600.24,1654.85 1602.69,1654.85 1605.14,1654.85 1607.6,1654.85 1610.05,1654.85 
  1612.51,1654.85 1614.96,1654.85 1617.41,1654.85 1619.87,1654.85 1622.32,1654.85 1624.78,1654.85 1627.23,1654.85 1629.68,1654.85 1632.14,1654.85 1634.59,1654.85 
  1637.05,1654.85 1639.5,1654.85 1641.96,1654.85 1644.41,1654.85 1646.86,1654.85 1649.32,1654.85 1651.77,1654.85 1654.23,1654.85 1656.68,1654.85 1659.13,1654.85 
  1661.59,1654.85 1664.04,1654.85 1666.5,1654.85 1668.95,1654.85 1671.4,1654.85 1673.86,1654.85 1676.31,1654.85 1678.77,1654.85 1681.22,1654.85 1683.67,1654.85 
  1686.13,1654.85 1688.58,1654.85 1691.04,1654.85 1693.49,1654.85 1695.94,1654.85 1698.4,1654.85 1700.85,1654.85 1703.31,1654.85 1705.76,1654.85 1708.21,1654.85 
  1710.67,1654.85 1713.12,1654.85 1715.58,1654.85 1718.03,1654.85 1720.48,1654.85 1722.94,1654.85 1725.39,1654.85 1727.85,1654.85 1730.3,1654.85 1732.76,1654.85 
  1735.21,1654.85 1737.66,1654.85 1740.12,1654.85 1742.57,1654.85 1745.03,1654.85 1747.48,1654.85 1749.93,1654.85 1752.39,1654.85 1754.84,1654.85 1757.3,1654.85 
  1759.75,1654.85 1762.2,1654.85 1764.66,1654.85 1767.11,1654.85 1769.57,1654.85 1772.02,1654.85 1774.47,1654.85 1776.93,1654.85 1779.38,1654.85 1781.84,1654.85 
  1784.29,1654.85 1786.74,1654.85 1789.2,1654.85 1791.65,1654.85 1794.11,1654.85 1796.56,1654.85 1799.01,1654.85 1801.47,1654.85 1803.92,1654.85 1806.38,1654.85 
  1808.83,1654.85 1811.28,1654.85 1813.74,1654.85 1816.19,1654.85 1818.65,1654.85 1821.1,1654.85 1823.56,1654.85 1826.01,1654.85 1828.46,1654.85 1830.92,1654.85 
  1833.37,1654.85 1835.83,1654.85 1838.28,1654.85 1840.73,1654.85 1843.19,1654.85 1845.64,1654.85 1848.1,1654.85 1850.55,1654.85 1853,1654.85 1855.46,1654.85 
  1857.91,1654.85 1860.37,1654.85 1862.82,1654.85 1865.27,1654.85 1867.73,1654.85 1870.18,1654.85 1872.64,1654.85 1875.09,1654.85 1877.54,1654.85 1880,1654.85 
  1882.45,1654.85 1884.91,1654.85 1887.36,1654.85 1889.81,1654.85 1892.27,1654.85 1894.72,1654.85 1897.18,1654.85 1899.63,1654.85 1902.09,1654.85 1904.54,1654.85 
  1906.99,1654.85 1909.45,1654.85 1911.9,1654.85 1914.36,1654.85 1916.81,1654.85 1919.26,1654.85 1921.72,1654.85 1924.17,1654.85 1926.63,1654.85 1929.08,1654.85 
  1931.53,1654.85 1933.99,1654.85 1936.44,1654.85 1938.9,1654.85 1941.35,1654.85 1943.8,1654.85 1946.26,1654.85 1948.71,1654.85 1951.17,1654.85 1953.62,1654.85 
  1956.07,1654.85 1958.53,1654.85 1960.98,1654.85 1963.44,1654.85 1965.89,1654.85 1968.34,1654.85 1970.8,1654.85 1973.25,1654.85 1975.71,1654.85 1978.16,1654.85 
  1980.61,1654.85 1983.07,1654.85 1985.52,1654.85 1987.98,1654.85 1990.43,1654.85 1992.89,1654.85 1995.34,1654.85 1997.79,1654.85 2000.25,1654.85 2002.7,1654.85 
  2005.16,1654.85 2007.61,1654.85 2010.06,1654.85 2012.52,1654.85 2014.97,1654.85 2017.43,1654.85 2019.88,1654.85 2022.33,1654.85 2024.79,1654.85 2027.24,1654.85 
  2029.7,1654.85 2032.15,1654.85 2034.6,1654.85 2037.06,1654.85 2039.51,1654.85 2041.97,1654.85 2044.42,1654.85 2046.87,1654.85 2049.33,1654.85 2051.78,1654.85 
  2054.24,1654.85 2056.69,1654.85 2059.14,1654.85 2061.6,1654.85 2064.05,1654.85 2066.51,1654.85 2068.96,1654.85 2071.41,1654.85 2073.87,1654.85 2076.32,1654.85 
  2078.78,1654.85 2081.23,1654.85 2083.69,1654.85 2086.14,1654.85 2088.59,1654.85 2091.05,1654.85 2093.5,1654.85 2095.96,1654.85 2098.41,1654.85 2100.86,1654.85 
  2103.32,1654.85 2105.77,1654.85 2108.23,1654.85 2110.68,1654.85 2113.13,1654.85 2115.59,1654.85 2118.04,1654.85 2120.5,1654.85 2122.95,1654.85 2125.4,1654.85 
  2127.86,1654.85 2130.31,1654.85 2132.77,1654.85 2135.22,1654.85 2137.67,1654.85 2140.13,1654.85 2142.58,1654.85 2145.04,1654.85 2147.49,1654.85 2149.94,1654.85 
  2152.4,1654.85 2154.85,1654.85 2157.31,1654.85 2159.76,1654.85 2162.21,1654.85 2164.67,1654.85 2167.12,1654.85 2169.58,1654.85 2172.03,1654.85 2174.49,1654.85 
  2176.94,1654.85 2179.39,1654.85 2181.85,1654.85 2184.3,1654.85 2186.76,1654.85 2189.21,1654.85 2191.66,1654.85 2194.12,1654.85 2196.57,1654.85 2199.03,1654.85 
  2201.48,1654.85 2203.93,1654.85 2206.39,1654.85 2208.84,1654.85 2211.3,1654.85 2213.75,1654.85 2216.2,1654.85 2218.66,1654.85 2221.11,1654.85 2223.57,1654.85 
  2226.02,1654.85 2228.47,1654.85 2230.93,1654.85 2233.38,1654.85 2235.84,1654.85 2238.29,1654.85 2240.74,1654.85 2243.2,1654.85 2245.65,1654.85 2248.11,1654.85 
  2250.56,1654.85 2253.02,1654.85 2255.47,1654.85 2257.92,1654.85 2260.38,1654.85 2262.83,1654.85 2265.29,1654.85 2267.74,1654.85 2270.19,1654.85 2272.65,1654.85 
  2275.1,1654.85 2277.56,1654.85 2280.01,1654.85 2282.46,1654.85 2284.92,1654.85 2287.37,1654.85 2289.83,1654.85 2292.28,1654.85 2294.73,1654.85 2297.19,1654.85 
  2299.64,1654.85 2302.1,1654.85 2304.55,1654.85 2307,1654.85 2309.46,1654.85 2311.91,1654.85 2314.37,1654.85 2316.82,1654.85 2319.27,1654.85 2321.73,1654.85 
  2324.18,1654.85 2326.64,1654.85 2329.09,1654.85 2331.54,1654.85 2334,1654.85 2336.45,1654.85 2338.91,1654.85 2341.36,1654.85 2343.82,1654.85 2346.27,1654.85 
  2348.72,1654.85 2351.18,1654.85 2353.63,1654.85 2356.09,1654.85 2358.54,1654.85 2360.99,1654.85 2363.45,1654.85 2365.9,1654.85 2368.36,1654.85 2370.81,1654.85 
  2373.26,1654.85 2375.72,1654.85 2378.17,1654.85 2380.63,1654.85 2383.08,1654.85 2385.53,1654.85 2387.99,1654.85 2390.44,1654.85 2392.9,1654.85 2395.35,1654.85 
  2397.8,1654.85 2400.26,1654.85 2402.71,1654.85 2405.17,1654.85 2407.62,1654.85 2410.07,1654.85 2412.53,1654.85 2414.98,1654.85 2417.44,1654.85 2419.89,1654.85 
  2422.34,1654.85 2424.8,1654.85 2427.25,1654.85 2429.71,1654.85 2432.16,1654.85 2434.62,1654.85 2437.07,1654.85 2439.52,1654.85 2441.98,1654.85 2444.43,1654.85 
  2446.89,1654.85 2449.34,1654.85 2451.79,1654.85 2454.25,1654.85 2456.7,1654.85 2459.16,1654.85 2461.61,1654.85 2464.06,1654.85 2466.52,1654.85 2468.97,1654.85 
  2471.43,1654.85 2473.88,1654.85 2476.33,1654.85 2478.79,1654.85 2481.24,1654.85 2483.7,1654.85 2486.15,1654.85 2488.6,1654.85 2491.06,1654.85 2493.51,1654.85 
  2495.97,1654.85 2498.42,1654.85 2500.87,1654.85 2503.33,1654.85 2505.78,1654.85 2508.24,1654.85 2510.69,1654.85 2513.14,1654.85 2515.6,1654.85 2518.05,1654.85 
  2520.51,1654.85 2522.96,1654.85 2525.42,1654.85 2527.87,1654.85 2530.32,1654.85 2532.78,1654.85 2535.23,1654.85 2537.69,1654.85 2540.14,1654.85 2542.59,1654.85 
  2545.05,1654.85 2547.5,1654.85 2549.96,1654.85 2552.41,1654.85 2554.86,1654.85 2557.32,1654.85 2559.77,1654.85 2562.23,1654.85 2564.68,1654.85 2567.13,1654.85 
  2569.59,1654.85 2572.04,1654.85 2574.5,1654.85 2576.95,1654.85 2579.4,1654.85 2581.86,1654.85 2584.31,1654.85 2586.77,1654.85 2589.22,1654.85 2591.67,1654.85 
  2594.13,1654.85 2596.58,1654.85 2599.04,1654.85 2601.49,1654.85 2603.95,1654.85 2606.4,1654.85 2608.85,1654.85 2611.31,1654.85 2613.76,1654.85 2616.22,1654.85 
  2618.67,1654.85 2621.12,1654.85 2623.58,1654.85 2626.03,1654.85 2628.49,1654.85 2630.94,1654.85 2633.39,1654.85 2635.85,1654.85 2638.3,1654.85 2640.76,1654.85 
  
  "/>
<polyline clip-path="url(#clip482)" style="stroke:#e26f46; stroke-linecap:butt; stroke-linejoin:round; stroke-width:4; stroke-opacity:1; fill:none" points="
  189.154,1686.37 191.608,1686.37 194.062,1686.37 196.516,1686.37 198.97,1686.37 201.424,1686.37 203.878,1686.37 206.332,1686.36 208.786,1686.36 211.241,1686.36 
  213.695,1686.35 216.149,1686.35 218.603,1686.34 221.057,1686.34 223.511,1686.33 225.965,1686.31 228.419,1686.3 230.873,1686.28 233.327,1686.26 235.781,1686.23 
  238.235,1686.19 240.689,1686.15 243.143,1686.09 245.597,1686.02 248.051,1685.93 250.505,1685.81 252.959,1685.67 255.414,1685.49 257.868,1685.27 260.322,1685 
  262.776,1684.65 265.23,1684.22 267.684,1683.67 270.138,1682.99 272.592,1682.14 275.046,1681.08 277.5,1679.75 279.954,1678.1 282.408,1676.03 284.862,1673.45 
  287.316,1670.25 289.77,1666.27 292.224,1661.34 294.678,1655.23 297.132,1647.7 299.587,1638.47 302.041,1627.19 304.495,1613.46 306.949,1596.88 309.403,1577.07 
  311.857,1553.63 314.311,1526.26 316.765,1494.7 319.219,1458.98 321.673,1419.41 324.127,1376.59 326.581,1331.44 329.035,1285.13 331.489,1239.36 333.943,1195.77 
  336.397,1155.83 338.851,1120.85 341.305,1091.99 343.76,1069.95 346.214,1054.81 348.668,1046.4 351.122,1044.35 353.576,1048.1 356.03,1056.84 358.484,1069.65 
  360.938,1085.75 363.392,1104.45 365.846,1125.11 368.3,1147.18 370.754,1170.16 373.208,1193.62 375.662,1217.2 378.116,1240.62 380.57,1263.69 383.024,1286.25 
  385.478,1308.16 387.933,1329.33 390.387,1349.69 392.841,1369.22 395.295,1387.87 397.749,1405.66 400.203,1422.57 402.657,1438.62 405.111,1453.83 407.565,1468.22 
  410.019,1481.8 412.473,1494.61 414.927,1506.69 417.381,1518.06 419.835,1528.77 422.289,1538.83 424.743,1548.29 427.197,1557.16 429.651,1565.5 432.106,1573.31 
  434.56,1580.64 437.014,1587.51 439.468,1593.95 441.922,1599.98 444.376,1605.63 446.83,1610.92 449.284,1615.86 451.738,1620.49 454.192,1624.82 456.646,1628.87 
  459.1,1632.65 461.554,1636.19 464.008,1639.51 466.462,1642.6 468.916,1645.5 471.37,1648.2 473.824,1650.73 476.279,1653.09 478.733,1655.3 481.187,1657.36 
  483.641,1659.28 486.095,1661.08 488.549,1662.76 491.003,1664.33 493.457,1665.79 495.911,1667.16 498.365,1668.44 500.819,1669.63 503.273,1670.75 505.727,1671.79 
  508.181,1672.76 510.635,1673.66 513.089,1674.51 515.543,1675.3 517.998,1676.04 520.452,1676.73 522.906,1677.37 525.36,1677.97 527.814,1678.53 530.268,1679.05 
  532.722,1679.54 535.176,1680 537.63,1680.42 540.084,1680.82 542.538,1681.19 544.992,1681.53 547.446,1681.86 549.9,1682.16 552.354,1682.44 554.808,1682.7 
  557.262,1682.95 559.716,1683.18 562.171,1683.39 564.625,1683.59 567.079,1683.77 569.533,1683.95 571.987,1684.11 574.441,1684.26 576.895,1684.4 579.349,1684.53 
  581.803,1684.66 584.257,1684.77 586.711,1684.88 589.165,1684.98 591.619,1685.07 594.073,1685.16 596.527,1685.24 598.981,1685.31 601.435,1685.39 603.889,1685.45 
  606.344,1685.51 608.798,1685.57 611.252,1685.62 613.706,1685.67 616.16,1685.72 618.614,1685.76 621.068,1685.81 623.522,1685.84 625.976,1685.88 628.43,1685.91 
  630.884,1685.94 633.338,1685.97 635.792,1686 638.246,1686.02 640.7,1686.05 643.154,1686.07 645.608,1686.09 648.062,1686.11 650.517,1686.13 652.971,1686.14 
  655.425,1686.16 657.879,1686.17 660.333,1686.19 662.787,1686.2 665.241,1686.21 667.695,1686.22 670.149,1686.23 672.603,1686.24 675.057,1686.25 677.511,1686.26 
  679.965,1686.27 682.419,1686.27 684.873,1686.28 687.327,1686.29 689.781,1686.29 692.235,1686.3 694.69,1686.3 697.144,1686.31 699.598,1686.31 702.052,1686.32 
  704.506,1686.32 706.96,1686.32 709.414,1686.33 711.868,1686.33 714.322,1686.33 716.776,1686.34 719.23,1686.34 721.684,1686.34 724.138,1686.34 726.592,1686.34 
  729.046,1686.35 731.5,1686.35 733.954,1686.35 736.408,1686.35 738.863,1686.35 741.317,1686.35 743.771,1686.36 746.225,1686.36 748.679,1686.36 751.133,1686.36 
  753.587,1686.36 756.041,1686.36 758.495,1686.36 760.949,1686.36 763.403,1686.36 765.857,1686.36 768.311,1686.36 770.765,1686.37 773.219,1686.37 775.673,1686.37 
  778.127,1686.37 780.581,1686.37 783.036,1686.37 785.49,1686.37 787.944,1686.37 790.398,1686.37 792.852,1686.37 795.306,1686.37 797.76,1686.37 800.214,1686.37 
  802.668,1686.37 805.122,1686.37 807.576,1686.37 810.03,1686.37 812.484,1686.37 814.938,1686.37 817.392,1686.37 819.846,1686.37 822.3,1686.37 824.754,1686.37 
  827.209,1686.37 829.663,1686.37 832.117,1686.37 834.571,1686.37 837.025,1686.37 839.479,1686.37 841.933,1686.37 844.387,1686.37 846.841,1686.37 849.295,1686.37 
  851.749,1686.37 854.203,1686.37 856.657,1686.37 859.111,1686.37 861.565,1686.37 864.019,1686.37 866.473,1686.37 868.928,1686.37 871.382,1686.37 873.836,1686.37 
  876.29,1686.37 878.744,1686.37 881.198,1686.37 883.652,1686.37 886.106,1686.37 888.56,1686.37 891.014,1686.37 893.468,1686.37 895.922,1686.37 898.376,1686.37 
  900.83,1686.37 903.284,1686.37 905.738,1686.37 908.192,1686.37 910.646,1686.37 913.101,1686.37 915.555,1686.37 918.009,1686.37 920.463,1686.37 922.917,1686.37 
  925.371,1686.37 927.825,1686.37 930.279,1686.37 932.733,1686.37 935.187,1686.37 937.641,1686.37 940.095,1686.37 942.549,1686.37 945.003,1686.37 947.457,1686.37 
  949.911,1686.37 952.365,1686.37 954.819,1686.37 957.274,1686.37 959.728,1686.37 962.182,1686.37 964.636,1686.37 967.09,1686.37 969.544,1686.37 971.998,1686.37 
  974.452,1686.37 976.906,1686.37 979.36,1686.37 981.814,1686.37 984.268,1686.37 986.722,1686.37 989.176,1686.37 991.63,1686.37 994.084,1686.37 996.538,1686.37 
  998.992,1686.37 1001.45,1686.37 1003.9,1686.37 1006.35,1686.37 1008.81,1686.37 1011.26,1686.37 1013.72,1686.37 1016.17,1686.37 1018.62,1686.37 1021.08,1686.37 
  1023.53,1686.37 1025.99,1686.37 1028.44,1686.37 1030.9,1686.37 1033.35,1686.37 1035.8,1686.37 1038.26,1686.37 1040.71,1686.37 1043.17,1686.37 1045.62,1686.37 
  1048.07,1686.37 1050.53,1686.37 1052.98,1686.37 1055.44,1686.37 1057.89,1686.37 1060.34,1686.37 1062.8,1686.37 1065.25,1686.37 1067.71,1686.37 1070.16,1686.37 
  1072.61,1686.37 1075.07,1686.37 1077.52,1686.37 1079.98,1686.37 1082.43,1686.37 1084.88,1686.37 1087.34,1686.37 1089.79,1686.37 1092.25,1686.37 1094.7,1686.37 
  1097.15,1686.37 1099.61,1686.37 1102.06,1686.37 1104.52,1686.37 1106.97,1686.37 1109.42,1686.37 1111.88,1686.37 1114.33,1686.37 1116.79,1686.37 1119.24,1686.37 
  1121.7,1686.37 1124.15,1686.37 1126.6,1686.37 1129.06,1686.37 1131.51,1686.37 1133.97,1686.37 1136.42,1686.37 1138.87,1686.37 1141.33,1686.37 1143.78,1686.37 
  1146.24,1686.37 1148.69,1686.37 1151.14,1686.37 1153.6,1686.37 1156.05,1686.37 1158.51,1686.37 1160.96,1686.37 1163.41,1686.37 1165.87,1686.37 1168.32,1686.37 
  1170.78,1686.37 1173.23,1686.37 1175.68,1686.37 1178.14,1686.37 1180.59,1686.37 1183.05,1686.37 1185.5,1686.37 1187.95,1686.37 1190.41,1686.37 1192.86,1686.37 
  1195.32,1686.37 1197.77,1686.37 1200.23,1686.37 1202.68,1686.37 1205.13,1686.37 1207.59,1686.37 1210.04,1686.37 1212.5,1686.37 1214.95,1686.37 1217.4,1686.37 
  1219.86,1686.37 1222.31,1686.37 1224.77,1686.37 1227.22,1686.37 1229.67,1686.37 1232.13,1686.37 1234.58,1686.37 1237.04,1686.37 1239.49,1686.37 1241.94,1686.37 
  1244.4,1686.37 1246.85,1686.37 1249.31,1686.37 1251.76,1686.37 1254.21,1686.37 1256.67,1686.37 1259.12,1686.37 1261.58,1686.37 1264.03,1686.37 1266.48,1686.37 
  1268.94,1686.37 1271.39,1686.37 1273.85,1686.37 1276.3,1686.37 1278.75,1686.37 1281.21,1686.37 1283.66,1686.37 1286.12,1686.37 1288.57,1686.37 1291.03,1686.37 
  1293.48,1686.37 1295.93,1686.37 1298.39,1686.37 1300.84,1686.37 1303.3,1686.37 1305.75,1686.37 1308.2,1686.37 1310.66,1686.37 1313.11,1686.37 1315.57,1686.37 
  1318.02,1686.37 1320.47,1686.37 1322.93,1686.37 1325.38,1686.37 1327.84,1686.37 1330.29,1686.37 1332.74,1686.37 1335.2,1686.37 1337.65,1686.37 1340.11,1686.37 
  1342.56,1686.37 1345.01,1686.37 1347.47,1686.37 1349.92,1686.37 1352.38,1686.37 1354.83,1686.37 1357.28,1686.37 1359.74,1686.37 1362.19,1686.37 1364.65,1686.37 
  1367.1,1686.37 1369.55,1686.37 1372.01,1686.37 1374.46,1686.37 1376.92,1686.37 1379.37,1686.37 1381.83,1686.37 1384.28,1686.37 1386.73,1686.37 1389.19,1686.37 
  1391.64,1686.37 1394.1,1686.37 1396.55,1686.37 1399,1686.37 1401.46,1686.37 1403.91,1686.37 1406.37,1686.37 1408.82,1686.37 1411.27,1686.37 1413.73,1686.37 
  1416.18,1686.37 1418.64,1686.37 1421.09,1686.37 1423.54,1686.37 1426,1686.37 1428.45,1686.37 1430.91,1686.37 1433.36,1686.37 1435.81,1686.37 1438.27,1686.37 
  1440.72,1686.37 1443.18,1686.37 1445.63,1686.37 1448.08,1686.37 1450.54,1686.37 1452.99,1686.37 1455.45,1686.37 1457.9,1686.37 1460.35,1686.37 1462.81,1686.37 
  1465.26,1686.37 1467.72,1686.37 1470.17,1686.37 1472.63,1686.37 1475.08,1686.37 1477.53,1686.37 1479.99,1686.37 1482.44,1686.37 1484.9,1686.37 1487.35,1686.37 
  1489.8,1686.37 1492.26,1686.37 1494.71,1686.37 1497.17,1686.37 1499.62,1686.37 1502.07,1686.37 1504.53,1686.37 1506.98,1686.37 1509.44,1686.37 1511.89,1686.37 
  1514.34,1686.37 1516.8,1686.37 1519.25,1686.37 1521.71,1686.37 1524.16,1686.37 1526.61,1686.37 1529.07,1686.37 1531.52,1686.37 1533.98,1686.37 1536.43,1686.37 
  1538.88,1686.37 1541.34,1686.37 1543.79,1686.37 1546.25,1686.37 1548.7,1686.37 1551.16,1686.37 1553.61,1686.37 1556.06,1686.37 1558.52,1686.37 1560.97,1686.37 
  1563.43,1686.37 1565.88,1686.37 1568.33,1686.37 1570.79,1686.37 1573.24,1686.37 1575.7,1686.37 1578.15,1686.37 1580.6,1686.37 1583.06,1686.37 1585.51,1686.37 
  1587.97,1686.37 1590.42,1686.37 1592.87,1686.37 1595.33,1686.37 1597.78,1686.37 1600.24,1686.37 1602.69,1686.37 1605.14,1686.37 1607.6,1686.37 1610.05,1686.37 
  1612.51,1686.37 1614.96,1686.37 1617.41,1686.37 1619.87,1686.37 1622.32,1686.37 1624.78,1686.37 1627.23,1686.37 1629.68,1686.37 1632.14,1686.37 1634.59,1686.37 
  1637.05,1686.38 1639.5,1686.38 1641.96,1686.38 1644.41,1686.38 1646.86,1686.38 1649.32,1686.38 1651.77,1686.38 1654.23,1686.38 1656.68,1686.38 1659.13,1686.38 
  1661.59,1686.38 1664.04,1686.38 1666.5,1686.37 1668.95,1686.37 1671.4,1686.37 1673.86,1686.37 1676.31,1686.37 1678.77,1686.37 1681.22,1686.37 1683.67,1686.37 
  1686.13,1686.37 1688.58,1686.37 1691.04,1686.37 1693.49,1686.37 1695.94,1686.37 1698.4,1686.37 1700.85,1686.37 1703.31,1686.37 1705.76,1686.37 1708.21,1686.37 
  1710.67,1686.37 1713.12,1686.37 1715.58,1686.37 1718.03,1686.37 1720.48,1686.37 1722.94,1686.37 1725.39,1686.37 1727.85,1686.37 1730.3,1686.37 1732.76,1686.37 
  1735.21,1686.37 1737.66,1686.37 1740.12,1686.37 1742.57,1686.37 1745.03,1686.37 1747.48,1686.37 1749.93,1686.37 1752.39,1686.37 1754.84,1686.37 1757.3,1686.37 
  1759.75,1686.37 1762.2,1686.37 1764.66,1686.37 1767.11,1686.37 1769.57,1686.37 1772.02,1686.37 1774.47,1686.37 1776.93,1686.37 1779.38,1686.38 1781.84,1686.38 
  1784.29,1686.38 1786.74,1686.38 1789.2,1686.37 1791.65,1686.37 1794.11,1686.37 1796.56,1686.37 1799.01,1686.37 1801.47,1686.37 1803.92,1686.37 1806.38,1686.37 
  1808.83,1686.37 1811.28,1686.37 1813.74,1686.37 1816.19,1686.37 1818.65,1686.37 1821.1,1686.37 1823.56,1686.37 1826.01,1686.37 1828.46,1686.37 1830.92,1686.37 
  1833.37,1686.37 1835.83,1686.37 1838.28,1686.37 1840.73,1686.37 1843.19,1686.37 1845.64,1686.37 1848.1,1686.37 1850.55,1686.37 1853,1686.37 1855.46,1686.37 
  1857.91,1686.37 1860.37,1686.37 1862.82,1686.37 1865.27,1686.37 1867.73,1686.37 1870.18,1686.37 1872.64,1686.37 1875.09,1686.37 1877.54,1686.37 1880,1686.37 
  1882.45,1686.37 1884.91,1686.37 1887.36,1686.37 1889.81,1686.37 1892.27,1686.37 1894.72,1686.37 1897.18,1686.37 1899.63,1686.37 1902.09,1686.37 1904.54,1686.37 
  1906.99,1686.37 1909.45,1686.37 1911.9,1686.37 1914.36,1686.37 1916.81,1686.37 1919.26,1686.37 1921.72,1686.37 1924.17,1686.37 1926.63,1686.37 1929.08,1686.37 
  1931.53,1686.37 1933.99,1686.37 1936.44,1686.37 1938.9,1686.37 1941.35,1686.37 1943.8,1686.37 1946.26,1686.37 1948.71,1686.37 1951.17,1686.37 1953.62,1686.37 
  1956.07,1686.37 1958.53,1686.37 1960.98,1686.37 1963.44,1686.37 1965.89,1686.37 1968.34,1686.37 1970.8,1686.37 1973.25,1686.37 1975.71,1686.37 1978.16,1686.37 
  1980.61,1686.37 1983.07,1686.37 1985.52,1686.37 1987.98,1686.37 1990.43,1686.37 1992.89,1686.37 1995.34,1686.37 1997.79,1686.37 2000.25,1686.37 2002.7,1686.37 
  2005.16,1686.37 2007.61,1686.37 2010.06,1686.37 2012.52,1686.37 2014.97,1686.37 2017.43,1686.37 2019.88,1686.37 2022.33,1686.37 2024.79,1686.37 2027.24,1686.37 
  2029.7,1686.37 2032.15,1686.37 2034.6,1686.37 2037.06,1686.37 2039.51,1686.37 2041.97,1686.37 2044.42,1686.37 2046.87,1686.37 2049.33,1686.37 2051.78,1686.37 
  2054.24,1686.37 2056.69,1686.37 2059.14,1686.37 2061.6,1686.37 2064.05,1686.37 2066.51,1686.37 2068.96,1686.37 2071.41,1686.37 2073.87,1686.37 2076.32,1686.37 
  2078.78,1686.37 2081.23,1686.37 2083.69,1686.37 2086.14,1686.37 2088.59,1686.37 2091.05,1686.37 2093.5,1686.37 2095.96,1686.37 2098.41,1686.37 2100.86,1686.37 
  2103.32,1686.37 2105.77,1686.37 2108.23,1686.37 2110.68,1686.37 2113.13,1686.37 2115.59,1686.37 2118.04,1686.37 2120.5,1686.37 2122.95,1686.37 2125.4,1686.37 
  2127.86,1686.37 2130.31,1686.37 2132.77,1686.37 2135.22,1686.37 2137.67,1686.37 2140.13,1686.37 2142.58,1686.37 2145.04,1686.37 2147.49,1686.37 2149.94,1686.37 
  2152.4,1686.37 2154.85,1686.37 2157.31,1686.37 2159.76,1686.37 2162.21,1686.37 2164.67,1686.37 2167.12,1686.37 2169.58,1686.37 2172.03,1686.37 2174.49,1686.37 
  2176.94,1686.37 2179.39,1686.37 2181.85,1686.37 2184.3,1686.37 2186.76,1686.37 2189.21,1686.37 2191.66,1686.37 2194.12,1686.37 2196.57,1686.37 2199.03,1686.37 
  2201.48,1686.37 2203.93,1686.37 2206.39,1686.37 2208.84,1686.37 2211.3,1686.37 2213.75,1686.37 2216.2,1686.37 2218.66,1686.37 2221.11,1686.37 2223.57,1686.37 
  2226.02,1686.37 2228.47,1686.37 2230.93,1686.37 2233.38,1686.37 2235.84,1686.37 2238.29,1686.37 2240.74,1686.37 2243.2,1686.37 2245.65,1686.37 2248.11,1686.37 
  2250.56,1686.37 2253.02,1686.37 2255.47,1686.37 2257.92,1686.37 2260.38,1686.37 2262.83,1686.37 2265.29,1686.37 2267.74,1686.37 2270.19,1686.37 2272.65,1686.37 
  2275.1,1686.37 2277.56,1686.37 2280.01,1686.37 2282.46,1686.37 2284.92,1686.37 2287.37,1686.37 2289.83,1686.37 2292.28,1686.37 2294.73,1686.37 2297.19,1686.37 
  2299.64,1686.37 2302.1,1686.37 2304.55,1686.37 2307,1686.37 2309.46,1686.37 2311.91,1686.37 2314.37,1686.37 2316.82,1686.37 2319.27,1686.37 2321.73,1686.37 
  2324.18,1686.37 2326.64,1686.37 2329.09,1686.37 2331.54,1686.37 2334,1686.37 2336.45,1686.37 2338.91,1686.37 2341.36,1686.37 2343.82,1686.37 2346.27,1686.37 
  2348.72,1686.37 2351.18,1686.37 2353.63,1686.37 2356.09,1686.37 2358.54,1686.37 2360.99,1686.37 2363.45,1686.37 2365.9,1686.37 2368.36,1686.37 2370.81,1686.37 
  2373.26,1686.37 2375.72,1686.37 2378.17,1686.37 2380.63,1686.37 2383.08,1686.37 2385.53,1686.37 2387.99,1686.37 2390.44,1686.37 2392.9,1686.37 2395.35,1686.37 
  2397.8,1686.37 2400.26,1686.37 2402.71,1686.37 2405.17,1686.37 2407.62,1686.37 2410.07,1686.37 2412.53,1686.37 2414.98,1686.37 2417.44,1686.37 2419.89,1686.37 
  2422.34,1686.37 2424.8,1686.37 2427.25,1686.37 2429.71,1686.37 2432.16,1686.37 2434.62,1686.37 2437.07,1686.37 2439.52,1686.37 2441.98,1686.37 2444.43,1686.37 
  2446.89,1686.37 2449.34,1686.37 2451.79,1686.37 2454.25,1686.37 2456.7,1686.37 2459.16,1686.37 2461.61,1686.37 2464.06,1686.37 2466.52,1686.37 2468.97,1686.37 
  2471.43,1686.37 2473.88,1686.37 2476.33,1686.37 2478.79,1686.37 2481.24,1686.37 2483.7,1686.37 2486.15,1686.37 2488.6,1686.37 2491.06,1686.37 2493.51,1686.37 
  2495.97,1686.37 2498.42,1686.37 2500.87,1686.37 2503.33,1686.37 2505.78,1686.37 2508.24,1686.37 2510.69,1686.37 2513.14,1686.37 2515.6,1686.37 2518.05,1686.37 
  2520.51,1686.37 2522.96,1686.37 2525.42,1686.37 2527.87,1686.37 2530.32,1686.37 2532.78,1686.37 2535.23,1686.37 2537.69,1686.37 2540.14,1686.37 2542.59,1686.37 
  2545.05,1686.37 2547.5,1686.37 2549.96,1686.37 2552.41,1686.37 2554.86,1686.37 2557.32,1686.37 2559.77,1686.37 2562.23,1686.37 2564.68,1686.37 2567.13,1686.37 
  2569.59,1686.37 2572.04,1686.37 2574.5,1686.37 2576.95,1686.37 2579.4,1686.37 2581.86,1686.37 2584.31,1686.37 2586.77,1686.37 2589.22,1686.37 2591.67,1686.37 
  2594.13,1686.37 2596.58,1686.37 2599.04,1686.37 2601.49,1686.37 2603.95,1686.37 2606.4,1686.37 2608.85,1686.37 2611.31,1686.37 2613.76,1686.37 2616.22,1686.37 
  2618.67,1686.37 2621.12,1686.37 2623.58,1686.37 2626.03,1686.37 2628.49,1686.37 2630.94,1686.37 2633.39,1686.37 2635.85,1686.37 2638.3,1686.37 2640.76,1686.37 
  
  "/>
<polyline clip-path="url(#clip482)" style="stroke:#3da44d; stroke-linecap:butt; stroke-linejoin:round; stroke-width:4; stroke-opacity:1; fill:none" points="
  189.154,1686.37 191.608,1686.37 194.062,1686.37 196.516,1686.37 198.97,1686.37 201.424,1686.37 203.878,1686.37 206.332,1686.37 208.786,1686.37 211.241,1686.37 
  213.695,1686.37 216.149,1686.37 218.603,1686.36 221.057,1686.36 223.511,1686.36 225.965,1686.35 228.419,1686.35 230.873,1686.34 233.327,1686.34 235.781,1686.33 
  238.235,1686.31 240.689,1686.3 243.143,1686.28 245.597,1686.26 248.051,1686.23 250.505,1686.19 252.959,1686.14 255.414,1686.08 257.868,1686.01 260.322,1685.91 
  262.776,1685.8 265.23,1685.65 267.684,1685.47 270.138,1685.24 272.592,1684.96 275.046,1684.6 277.5,1684.16 279.954,1683.6 282.408,1682.91 284.862,1682.04 
  287.316,1680.95 289.77,1679.6 292.224,1677.91 294.678,1675.81 297.132,1673.2 299.587,1669.96 302.041,1665.96 304.495,1661.02 306.949,1654.94 309.403,1647.49 
  311.857,1638.43 314.311,1627.49 316.765,1614.32 319.219,1598.6 321.673,1580.05 324.127,1558.41 326.581,1533.47 329.035,1505.07 331.489,1473.21 333.943,1438.01 
  336.397,1399.66 338.851,1358.49 341.305,1314.9 343.76,1269.39 346.214,1222.49 348.668,1174.73 351.122,1126.58 353.576,1078.5 356.03,1030.88 358.484,984.083 
  360.938,938.408 363.392,894.039 365.846,851.126 368.3,809.793 370.754,770.138 373.208,732.23 375.662,696.112 378.116,661.773 380.57,629.18 383.024,598.296 
  385.478,569.081 387.933,541.484 390.387,515.447 392.841,490.91 395.295,467.807 397.749,446.07 400.203,425.635 402.657,406.436 405.111,388.411 407.565,371.497 
  410.019,355.634 412.473,340.763 414.927,326.824 417.381,313.764 419.835,301.532 422.289,290.079 424.743,279.361 427.197,269.331 429.651,259.948 432.106,251.171 
  434.56,242.963 437.014,235.285 439.468,228.105 441.922,221.392 444.376,215.117 446.83,209.254 449.284,203.776 451.738,198.659 454.192,193.88 456.646,189.415 
  459.1,185.244 461.554,181.347 464.008,177.706 466.462,174.304 468.916,171.126 471.37,168.158 473.824,165.388 476.279,162.802 478.733,160.388 481.187,158.134 
  483.641,156.03 486.095,154.065 488.549,152.231 491.003,150.517 493.457,148.916 495.911,147.422 498.365,146.028 500.819,144.726 503.273,143.512 505.727,142.378 
  508.181,141.321 510.635,140.334 513.089,139.413 515.543,138.553 517.998,137.749 520.452,136.999 522.906,136.299 525.36,135.645 527.814,135.035 530.268,134.466 
  532.722,133.935 535.176,133.44 537.63,132.978 540.084,132.546 542.538,132.144 544.992,131.768 547.446,131.417 549.9,131.089 552.354,130.783 554.808,130.497 
  557.262,130.231 559.716,129.982 562.171,129.751 564.625,129.534 567.079,129.333 569.533,129.144 571.987,128.969 574.441,128.804 576.895,128.651 579.349,128.508 
  581.803,128.374 584.257,128.25 586.711,128.133 589.165,128.025 591.619,127.924 594.073,127.829 596.527,127.741 598.981,127.659 601.435,127.582 603.889,127.511 
  606.344,127.444 608.798,127.381 611.252,127.323 613.706,127.269 616.16,127.218 618.614,127.171 621.068,127.126 623.522,127.085 625.976,127.047 628.43,127.011 
  630.884,126.978 633.338,126.946 635.792,126.917 638.246,126.89 640.7,126.864 643.154,126.841 645.608,126.818 648.062,126.798 650.517,126.778 652.971,126.761 
  655.425,126.744 657.879,126.728 660.333,126.714 662.787,126.7 665.241,126.687 667.695,126.675 670.149,126.664 672.603,126.654 675.057,126.644 677.511,126.635 
  679.965,126.627 682.419,126.619 684.873,126.612 687.327,126.605 689.781,126.598 692.235,126.592 694.69,126.587 697.144,126.582 699.598,126.577 702.052,126.572 
  704.506,126.568 706.96,126.564 709.414,126.561 711.868,126.557 714.322,126.554 716.776,126.551 719.23,126.548 721.684,126.546 724.138,126.543 726.592,126.541 
  729.046,126.539 731.5,126.537 733.954,126.535 736.408,126.533 738.863,126.532 741.317,126.53 743.771,126.529 746.225,126.527 748.679,126.526 751.133,126.525 
  753.587,126.524 756.041,126.523 758.495,126.522 760.949,126.521 763.403,126.52 765.857,126.52 768.311,126.519 770.765,126.518 773.219,126.518 775.673,126.517 
  778.127,126.517 780.581,126.516 783.036,126.516 785.49,126.515 787.944,126.515 790.398,126.515 792.852,126.514 795.306,126.514 797.76,126.514 800.214,126.513 
  802.668,126.513 805.122,126.513 807.576,126.512 810.03,126.512 812.484,126.512 814.938,126.512 817.392,126.512 819.846,126.512 822.3,126.511 824.754,126.511 
  827.209,126.511 829.663,126.511 832.117,126.511 834.571,126.511 837.025,126.511 839.479,126.511 841.933,126.51 844.387,126.51 846.841,126.51 849.295,126.51 
  851.749,126.51 854.203,126.51 856.657,126.51 859.111,126.51 861.565,126.51 864.019,126.51 866.473,126.51 868.928,126.51 871.382,126.51 873.836,126.51 
  876.29,126.51 878.744,126.51 881.198,126.51 883.652,126.51 886.106,126.51 888.56,126.51 891.014,126.51 893.468,126.51 895.922,126.509 898.376,126.509 
  900.83,126.509 903.284,126.509 905.738,126.509 908.192,126.509 910.646,126.509 913.101,126.509 915.555,126.509 918.009,126.509 920.463,126.509 922.917,126.509 
  925.371,126.509 927.825,126.509 930.279,126.509 932.733,126.509 935.187,126.509 937.641,126.509 940.095,126.509 942.549,126.509 945.003,126.509 947.457,126.509 
  949.911,126.509 952.365,126.509 954.819,126.509 957.274,126.509 959.728,126.509 962.182,126.509 964.636,126.509 967.09,126.509 969.544,126.509 971.998,126.509 
  974.452,126.509 976.906,126.509 979.36,126.509 981.814,126.509 984.268,126.509 986.722,126.509 989.176,126.509 991.63,126.509 994.084,126.509 996.538,126.509 
  998.992,126.509 1001.45,126.509 1003.9,126.509 1006.35,126.509 1008.81,126.509 1011.26,126.509 1013.72,126.509 1016.17,126.509 1018.62,126.509 1021.08,126.509 
  1023.53,126.509 1025.99,126.509 1028.44,126.509 1030.9,126.509 1033.35,126.509 1035.8,126.509 1038.26,126.509 1040.71,126.509 1043.17,126.509 1045.62,126.509 
  1048.07,126.509 1050.53,126.509 1052.98,126.509 1055.44,126.509 1057.89,126.509 1060.34,126.509 1062.8,126.509 1065.25,126.509 1067.71,126.509 1070.16,126.509 
  1072.61,126.509 1075.07,126.509 1077.52,126.509 1079.98,126.509 1082.43,126.509 1084.88,126.509 1087.34,126.509 1089.79,126.509 1092.25,126.509 1094.7,126.509 
  1097.15,126.509 1099.61,126.509 1102.06,126.509 1104.52,126.509 1106.97,126.509 1109.42,126.509 1111.88,126.509 1114.33,126.509 1116.79,126.509 1119.24,126.509 
  1121.7,126.509 1124.15,126.509 1126.6,126.509 1129.06,126.509 1131.51,126.509 1133.97,126.509 1136.42,126.509 1138.87,126.509 1141.33,126.509 1143.78,126.509 
  1146.24,126.509 1148.69,126.509 1151.14,126.509 1153.6,126.509 1156.05,126.509 1158.51,126.509 1160.96,126.509 1163.41,126.509 1165.87,126.509 1168.32,126.509 
  1170.78,126.509 1173.23,126.509 1175.68,126.509 1178.14,126.509 1180.59,126.509 1183.05,126.509 1185.5,126.509 1187.95,126.509 1190.41,126.509 1192.86,126.509 
  1195.32,126.509 1197.77,126.509 1200.23,126.509 1202.68,126.509 1205.13,126.509 1207.59,126.509 1210.04,126.509 1212.5,126.509 1214.95,126.509 1217.4,126.509 
  1219.86,126.509 1222.31,126.509 1224.77,126.509 1227.22,126.509 1229.67,126.509 1232.13,126.509 1234.58,126.509 1237.04,126.509 1239.49,126.509 1241.94,126.509 
  1244.4,126.509 1246.85,126.509 1249.31,126.509 1251.76,126.509 1254.21,126.509 1256.67,126.509 1259.12,126.509 1261.58,126.509 1264.03,126.509 1266.48,126.509 
  1268.94,126.509 1271.39,126.509 1273.85,126.509 1276.3,126.509 1278.75,126.509 1281.21,126.509 1283.66,126.509 1286.12,126.509 1288.57,126.509 1291.03,126.509 
  1293.48,126.509 1295.93,126.509 1298.39,126.509 1300.84,126.509 1303.3,126.509 1305.75,126.509 1308.2,126.509 1310.66,126.509 1313.11,126.509 1315.57,126.509 
  1318.02,126.509 1320.47,126.509 1322.93,126.509 1325.38,126.509 1327.84,126.509 1330.29,126.509 1332.74,126.509 1335.2,126.509 1337.65,126.509 1340.11,126.509 
  1342.56,126.509 1345.01,126.509 1347.47,126.509 1349.92,126.509 1352.38,126.509 1354.83,126.509 1357.28,126.509 1359.74,126.509 1362.19,126.509 1364.65,126.509 
  1367.1,126.509 1369.55,126.509 1372.01,126.509 1374.46,126.509 1376.92,126.509 1379.37,126.509 1381.83,126.509 1384.28,126.509 1386.73,126.509 1389.19,126.509 
  1391.64,126.509 1394.1,126.509 1396.55,126.509 1399,126.509 1401.46,126.509 1403.91,126.509 1406.37,126.509 1408.82,126.509 1411.27,126.509 1413.73,126.509 
  1416.18,126.509 1418.64,126.509 1421.09,126.51 1423.54,126.51 1426,126.51 1428.45,126.51 1430.91,126.51 1433.36,126.51 1435.81,126.51 1438.27,126.509 
  1440.72,126.509 1443.18,126.509 1445.63,126.509 1448.08,126.509 1450.54,126.509 1452.99,126.509 1455.45,126.509 1457.9,126.509 1460.35,126.509 1462.81,126.509 
  1465.26,126.509 1467.72,126.509 1470.17,126.509 1472.63,126.509 1475.08,126.509 1477.53,126.509 1479.99,126.508 1482.44,126.508 1484.9,126.508 1487.35,126.508 
  1489.8,126.508 1492.26,126.508 1494.71,126.508 1497.17,126.508 1499.62,126.508 1502.07,126.508 1504.53,126.508 1506.98,126.508 1509.44,126.508 1511.89,126.508 
  1514.34,126.508 1516.8,126.508 1519.25,126.508 1521.71,126.508 1524.16,126.508 1526.61,126.509 1529.07,126.509 1531.52,126.509 1533.98,126.509 1536.43,126.509 
  1538.88,126.509 1541.34,126.509 1543.79,126.509 1546.25,126.509 1548.7,126.509 1551.16,126.509 1553.61,126.51 1556.06,126.51 1558.52,126.51 1560.97,126.51 
  1563.43,126.51 1565.88,126.51 1568.33,126.51 1570.79,126.51 1573.24,126.51 1575.7,126.51 1578.15,126.51 1580.6,126.51 1583.06,126.51 1585.51,126.51 
  1587.97,126.51 1590.42,126.51 1592.87,126.51 1595.33,126.51 1597.78,126.51 1600.24,126.51 1602.69,126.51 1605.14,126.51 1607.6,126.509 1610.05,126.509 
  1612.51,126.509 1614.96,126.509 1617.41,126.509 1619.87,126.509 1622.32,126.508 1624.78,126.508 1627.23,126.508 1629.68,126.508 1632.14,126.508 1634.59,126.508 
  1637.05,126.508 1639.5,126.508 1641.96,126.507 1644.41,126.507 1646.86,126.507 1649.32,126.507 1651.77,126.507 1654.23,126.507 1656.68,126.507 1659.13,126.508 
  1661.59,126.508 1664.04,126.508 1666.5,126.508 1668.95,126.508 1671.4,126.508 1673.86,126.508 1676.31,126.508 1678.77,126.509 1681.22,126.509 1683.67,126.509 
  1686.13,126.509 1688.58,126.509 1691.04,126.51 1693.49,126.51 1695.94,126.51 1698.4,126.51 1700.85,126.51 1703.31,126.51 1705.76,126.511 1708.21,126.511 
  1710.67,126.511 1713.12,126.511 1715.58,126.511 1718.03,126.511 1720.48,126.511 1722.94,126.511 1725.39,126.511 1727.85,126.511 1730.3,126.511 1732.76,126.511 
  1735.21,126.511 1737.66,126.51 1740.12,126.51 1742.57,126.51 1745.03,126.51 1747.48,126.51 1749.93,126.509 1752.39,126.509 1754.84,126.509 1757.3,126.509 
  1759.75,126.509 1762.2,126.508 1764.66,126.508 1767.11,126.508 1769.57,126.508 1772.02,126.508 1774.47,126.508 1776.93,126.508 1779.38,126.508 1781.84,126.508 
  1784.29,126.508 1786.74,126.508 1789.2,126.508 1791.65,126.508 1794.11,126.508 1796.56,126.508 1799.01,126.508 1801.47,126.508 1803.92,126.508 1806.38,126.509 
  1808.83,126.509 1811.28,126.509 1813.74,126.509 1816.19,126.509 1818.65,126.51 1821.1,126.51 1823.56,126.51 1826.01,126.51 1828.46,126.51 1830.92,126.511 
  1833.37,126.511 1835.83,126.511 1838.28,126.511 1840.73,126.511 1843.19,126.511 1845.64,126.511 1848.1,126.511 1850.55,126.511 1853,126.511 1855.46,126.511 
  1857.91,126.511 1860.37,126.51 1862.82,126.51 1865.27,126.51 1867.73,126.51 1870.18,126.51 1872.64,126.51 1875.09,126.509 1877.54,126.509 1880,126.509 
  1882.45,126.509 1884.91,126.509 1887.36,126.509 1889.81,126.509 1892.27,126.508 1894.72,126.508 1897.18,126.508 1899.63,126.508 1902.09,126.508 1904.54,126.508 
  1906.99,126.508 1909.45,126.508 1911.9,126.508 1914.36,126.508 1916.81,126.508 1919.26,126.509 1921.72,126.509 1924.17,126.509 1926.63,126.509 1929.08,126.509 
  1931.53,126.509 1933.99,126.509 1936.44,126.509 1938.9,126.51 1941.35,126.51 1943.8,126.51 1946.26,126.51 1948.71,126.51 1951.17,126.51 1953.62,126.51 
  1956.07,126.51 1958.53,126.51 1960.98,126.511 1963.44,126.511 1965.89,126.511 1968.34,126.51 1970.8,126.51 1973.25,126.51 1975.71,126.51 1978.16,126.51 
  1980.61,126.51 1983.07,126.51 1985.52,126.51 1987.98,126.51 1990.43,126.509 1992.89,126.509 1995.34,126.509 1997.79,126.509 2000.25,126.509 2002.7,126.509 
  2005.16,126.509 2007.61,126.509 2010.06,126.509 2012.52,126.509 2014.97,126.509 2017.43,126.509 2019.88,126.509 2022.33,126.509 2024.79,126.509 2027.24,126.509 
  2029.7,126.509 2032.15,126.509 2034.6,126.509 2037.06,126.509 2039.51,126.509 2041.97,126.509 2044.42,126.509 2046.87,126.509 2049.33,126.509 2051.78,126.509 
  2054.24,126.509 2056.69,126.509 2059.14,126.51 2061.6,126.51 2064.05,126.51 2066.51,126.51 2068.96,126.51 2071.41,126.51 2073.87,126.51 2076.32,126.51 
  2078.78,126.51 2081.23,126.51 2083.69,126.51 2086.14,126.51 2088.59,126.51 2091.05,126.51 2093.5,126.51 2095.96,126.51 2098.41,126.51 2100.86,126.51 
  2103.32,126.51 2105.77,126.509 2108.23,126.509 2110.68,126.509 2113.13,126.509 2115.59,126.509 2118.04,126.509 2120.5,126.509 2122.95,126.509 2125.4,126.509 
  2127.86,126.509 2130.31,126.509 2132.77,126.509 2135.22,126.509 2137.67,126.509 2140.13,126.509 2142.58,126.509 2145.04,126.509 2147.49,126.509 2149.94,126.509 
  2152.4,126.509 2154.85,126.509 2157.31,126.509 2159.76,126.509 2162.21,126.509 2164.67,126.509 2167.12,126.509 2169.58,126.509 2172.03,126.509 2174.49,126.509 
  2176.94,126.509 2179.39,126.51 2181.85,126.51 2184.3,126.51 2186.76,126.51 2189.21,126.51 2191.66,126.51 2194.12,126.51 2196.57,126.51 2199.03,126.51 
  2201.48,126.51 2203.93,126.51 2206.39,126.51 2208.84,126.51 2211.3,126.51 2213.75,126.51 2216.2,126.51 2218.66,126.51 2221.11,126.51 2223.57,126.509 
  2226.02,126.509 2228.47,126.509 2230.93,126.509 2233.38,126.509 2235.84,126.509 2238.29,126.509 2240.74,126.509 2243.2,126.509 2245.65,126.509 2248.11,126.509 
  2250.56,126.509 2253.02,126.509 2255.47,126.509 2257.92,126.509 2260.38,126.509 2262.83,126.509 2265.29,126.509 2267.74,126.509 2270.19,126.509 2272.65,126.509 
  2275.1,126.509 2277.56,126.509 2280.01,126.509 2282.46,126.509 2284.92,126.509 2287.37,126.509 2289.83,126.509 2292.28,126.509 2294.73,126.509 2297.19,126.509 
  2299.64,126.509 2302.1,126.509 2304.55,126.51 2307,126.51 2309.46,126.51 2311.91,126.51 2314.37,126.51 2316.82,126.51 2319.27,126.51 2321.73,126.51 
  2324.18,126.51 2326.64,126.51 2329.09,126.51 2331.54,126.51 2334,126.51 2336.45,126.51 2338.91,126.51 2341.36,126.51 2343.82,126.51 2346.27,126.509 
  2348.72,126.509 2351.18,126.509 2353.63,126.509 2356.09,126.509 2358.54,126.509 2360.99,126.509 2363.45,126.509 2365.9,126.509 2368.36,126.509 2370.81,126.509 
  2373.26,126.509 2375.72,126.509 2378.17,126.509 2380.63,126.509 2383.08,126.509 2385.53,126.509 2387.99,126.509 2390.44,126.509 2392.9,126.509 2395.35,126.509 
  2397.8,126.509 2400.26,126.509 2402.71,126.509 2405.17,126.509 2407.62,126.509 2410.07,126.509 2412.53,126.509 2414.98,126.509 2417.44,126.509 2419.89,126.509 
  2422.34,126.509 2424.8,126.509 2427.25,126.51 2429.71,126.51 2432.16,126.51 2434.62,126.51 2437.07,126.51 2439.52,126.51 2441.98,126.51 2444.43,126.51 
  2446.89,126.51 2449.34,126.51 2451.79,126.51 2454.25,126.51 2456.7,126.51 2459.16,126.51 2461.61,126.51 2464.06,126.51 2466.52,126.51 2468.97,126.51 
  2471.43,126.509 2473.88,126.509 2476.33,126.509 2478.79,126.509 2481.24,126.509 2483.7,126.509 2486.15,126.509 2488.6,126.509 2491.06,126.509 2493.51,126.509 
  2495.97,126.509 2498.42,126.509 2500.87,126.509 2503.33,126.509 2505.78,126.509 2508.24,126.509 2510.69,126.509 2513.14,126.509 2515.6,126.509 2518.05,126.509 
  2520.51,126.509 2522.96,126.509 2525.42,126.509 2527.87,126.509 2530.32,126.509 2532.78,126.509 2535.23,126.509 2537.69,126.509 2540.14,126.509 2542.59,126.509 
  2545.05,126.509 2547.5,126.509 2549.96,126.509 2552.41,126.509 2554.86,126.51 2557.32,126.51 2559.77,126.51 2562.23,126.51 2564.68,126.51 2567.13,126.51 
  2569.59,126.51 2572.04,126.51 2574.5,126.51 2576.95,126.51 2579.4,126.51 2581.86,126.51 2584.31,126.51 2586.77,126.51 2589.22,126.51 2591.67,126.51 
  2594.13,126.51 2596.58,126.51 2599.04,126.51 2601.49,126.51 2603.95,126.51 2606.4,126.51 2608.85,126.51 2611.31,126.51 2613.76,126.51 2616.22,126.51 
  2618.67,126.509 2621.12,126.509 2623.58,126.509 2626.03,126.509 2628.49,126.509 2630.94,126.509 2633.39,126.509 2635.85,126.509 2638.3,126.509 2640.76,126.509 
  
  "/>
<path clip-path="url(#clip480)" d="
M2178.95 310.833 L2559.04 310.833 L2559.04 103.473 L2178.95 103.473  Z
  " fill="#ffffff" fill-rule="evenodd" fill-opacity="1"/>
<polyline clip-path="url(#clip480)" style="stroke:#000000; stroke-linecap:butt; stroke-linejoin:round; stroke-width:4; stroke-opacity:1; fill:none" points="
  2178.95,310.833 2559.04,310.833 2559.04,103.473 2178.95,103.473 2178.95,310.833 
  "/>
<polyline clip-path="url(#clip480)" style="stroke:#009af9; stroke-linecap:butt; stroke-linejoin:round; stroke-width:4; stroke-opacity:1; fill:none" points="
  2206.19,155.313 2369.63,155.313 
  "/>
<path clip-path="url(#clip480)" d="M2396.87 162.362 L2396.87 146.667 L2401.13 146.667 L2401.13 162.2 Q2401.13 165.88 2402.57 167.732 Q2404 169.561 2406.87 169.561 Q2410.32 169.561 2412.31 167.362 Q2414.32 165.163 2414.32 161.366 L2414.32 146.667 L2418.58 146.667 L2418.58 172.593 L2414.32 172.593 L2414.32 168.612 Q2412.77 170.973 2410.71 172.13 Q2408.68 173.264 2405.97 173.264 Q2401.5 173.264 2399.19 170.487 Q2396.87 167.709 2396.87 162.362 M2407.59 146.042 L2407.59 146.042 Z" fill="#000000" fill-rule="evenodd" fill-opacity="1" /><path clip-path="url(#clip480)" d="M2428.77 168.658 L2436.41 168.658 L2436.41 142.292 L2428.1 143.959 L2428.1 139.7 L2436.36 138.033 L2441.04 138.033 L2441.04 168.658 L2448.68 168.658 L2448.68 172.593 L2428.77 172.593 L2428.77 168.658 Z" fill="#000000" fill-rule="evenodd" fill-opacity="1" /><path clip-path="url(#clip480)" d="M2467.75 136.621 Q2464.65 141.945 2463.14 147.154 Q2461.64 152.362 2461.64 157.709 Q2461.64 163.056 2463.14 168.311 Q2464.67 173.542 2467.75 178.843 L2464.05 178.843 Q2460.57 173.403 2458.84 168.149 Q2457.13 162.894 2457.13 157.709 Q2457.13 152.547 2458.84 147.316 Q2460.55 142.084 2464.05 136.621 L2467.75 136.621 Z" fill="#000000" fill-rule="evenodd" fill-opacity="1" /><path clip-path="url(#clip480)" d="M2480.23 139.306 L2480.23 146.667 L2489 146.667 L2489 149.978 L2480.23 149.978 L2480.23 164.052 Q2480.23 167.223 2481.08 168.126 Q2481.96 169.028 2484.63 169.028 L2489 169.028 L2489 172.593 L2484.63 172.593 Q2479.69 172.593 2477.82 170.764 Q2475.94 168.913 2475.94 164.052 L2475.94 149.978 L2472.82 149.978 L2472.82 146.667 L2475.94 146.667 L2475.94 139.306 L2480.23 139.306 Z" fill="#000000" fill-rule="evenodd" fill-opacity="1" /><path clip-path="url(#clip480)" d="M2493.93 136.621 L2497.63 136.621 Q2501.11 142.084 2502.82 147.316 Q2504.56 152.547 2504.56 157.709 Q2504.56 162.894 2502.82 168.149 Q2501.11 173.403 2497.63 178.843 L2493.93 178.843 Q2497.01 173.542 2498.51 168.311 Q2500.04 163.056 2500.04 157.709 Q2500.04 152.362 2498.51 147.154 Q2497.01 141.945 2493.93 136.621 Z" fill="#000000" fill-rule="evenodd" fill-opacity="1" /><polyline clip-path="url(#clip480)" style="stroke:#e26f46; stroke-linecap:butt; stroke-linejoin:round; stroke-width:4; stroke-opacity:1; fill:none" points="
  2206.19,207.153 2369.63,207.153 
  "/>
<path clip-path="url(#clip480)" d="M2396.87 214.202 L2396.87 198.507 L2401.13 198.507 L2401.13 214.04 Q2401.13 217.72 2402.57 219.572 Q2404 221.401 2406.87 221.401 Q2410.32 221.401 2412.31 219.202 Q2414.32 217.003 2414.32 213.206 L2414.32 198.507 L2418.58 198.507 L2418.58 224.433 L2414.32 224.433 L2414.32 220.452 Q2412.77 222.813 2410.71 223.97 Q2408.68 225.104 2405.97 225.104 Q2401.5 225.104 2399.19 222.327 Q2396.87 219.549 2396.87 214.202 M2407.59 197.882 L2407.59 197.882 Z" fill="#000000" fill-rule="evenodd" fill-opacity="1" /><path clip-path="url(#clip480)" d="M2431.99 220.498 L2448.31 220.498 L2448.31 224.433 L2426.36 224.433 L2426.36 220.498 Q2429.02 217.743 2433.61 213.114 Q2438.21 208.461 2439.39 207.118 Q2441.64 204.595 2442.52 202.859 Q2443.42 201.1 2443.42 199.41 Q2443.42 196.656 2441.48 194.919 Q2439.56 193.183 2436.45 193.183 Q2434.26 193.183 2431.8 193.947 Q2429.37 194.711 2426.59 196.262 L2426.59 191.54 Q2429.42 190.406 2431.87 189.827 Q2434.32 189.248 2436.36 189.248 Q2441.73 189.248 2444.93 191.933 Q2448.12 194.619 2448.12 199.109 Q2448.12 201.239 2447.31 203.16 Q2446.52 205.058 2444.42 207.651 Q2443.84 208.322 2440.74 211.54 Q2437.63 214.734 2431.99 220.498 Z" fill="#000000" fill-rule="evenodd" fill-opacity="1" /><path clip-path="url(#clip480)" d="M2467.75 188.461 Q2464.65 193.785 2463.14 198.994 Q2461.64 204.202 2461.64 209.549 Q2461.64 214.896 2463.14 220.151 Q2464.67 225.382 2467.75 230.683 L2464.05 230.683 Q2460.57 225.243 2458.84 219.989 Q2457.13 214.734 2457.13 209.549 Q2457.13 204.387 2458.84 199.156 Q2460.55 193.924 2464.05 188.461 L2467.75 188.461 Z" fill="#000000" fill-rule="evenodd" fill-opacity="1" /><path clip-path="url(#clip480)" d="M2480.23 191.146 L2480.23 198.507 L2489 198.507 L2489 201.818 L2480.23 201.818 L2480.23 215.892 Q2480.23 219.063 2481.08 219.966 Q2481.96 220.868 2484.63 220.868 L2489 220.868 L2489 224.433 L2484.63 224.433 Q2479.69 224.433 2477.82 222.604 Q2475.94 220.753 2475.94 215.892 L2475.94 201.818 L2472.82 201.818 L2472.82 198.507 L2475.94 198.507 L2475.94 191.146 L2480.23 191.146 Z" fill="#000000" fill-rule="evenodd" fill-opacity="1" /><path clip-path="url(#clip480)" d="M2493.93 188.461 L2497.63 188.461 Q2501.11 193.924 2502.82 199.156 Q2504.56 204.387 2504.56 209.549 Q2504.56 214.734 2502.82 219.989 Q2501.11 225.243 2497.63 230.683 L2493.93 230.683 Q2497.01 225.382 2498.51 220.151 Q2500.04 214.896 2500.04 209.549 Q2500.04 204.202 2498.51 198.994 Q2497.01 193.785 2493.93 188.461 Z" fill="#000000" fill-rule="evenodd" fill-opacity="1" /><polyline clip-path="url(#clip480)" style="stroke:#3da44d; stroke-linecap:butt; stroke-linejoin:round; stroke-width:4; stroke-opacity:1; fill:none" points="
  2206.19,258.993 2369.63,258.993 
  "/>
<path clip-path="url(#clip480)" d="M2396.87 266.042 L2396.87 250.347 L2401.13 250.347 L2401.13 265.88 Q2401.13 269.56 2402.57 271.412 Q2404 273.241 2406.87 273.241 Q2410.32 273.241 2412.31 271.042 Q2414.32 268.843 2414.32 265.046 L2414.32 250.347 L2418.58 250.347 L2418.58 276.273 L2414.32 276.273 L2414.32 272.292 Q2412.77 274.653 2410.71 275.81 Q2408.68 276.944 2405.97 276.944 Q2401.5 276.944 2399.19 274.167 Q2396.87 271.389 2396.87 266.042 M2407.59 249.722 L2407.59 249.722 Z" fill="#000000" fill-rule="evenodd" fill-opacity="1" /><path clip-path="url(#clip480)" d="M2442.13 257.639 Q2445.48 258.357 2447.36 260.625 Q2449.26 262.894 2449.26 266.227 Q2449.26 271.343 2445.74 274.144 Q2442.22 276.944 2435.74 276.944 Q2433.56 276.944 2431.25 276.505 Q2428.95 276.088 2426.5 275.232 L2426.5 270.718 Q2428.45 271.852 2430.76 272.431 Q2433.07 273.009 2435.6 273.009 Q2440 273.009 2442.29 271.273 Q2444.6 269.537 2444.6 266.227 Q2444.6 263.171 2442.45 261.458 Q2440.32 259.722 2436.5 259.722 L2432.47 259.722 L2432.47 255.88 L2436.69 255.88 Q2440.13 255.88 2441.96 254.514 Q2443.79 253.125 2443.79 250.533 Q2443.79 247.871 2441.89 246.459 Q2440.02 245.023 2436.5 245.023 Q2434.58 245.023 2432.38 245.44 Q2430.18 245.857 2427.54 246.736 L2427.54 242.57 Q2430.2 241.829 2432.52 241.459 Q2434.86 241.088 2436.92 241.088 Q2442.24 241.088 2445.34 243.519 Q2448.44 245.926 2448.44 250.046 Q2448.44 252.917 2446.8 254.908 Q2445.16 256.875 2442.13 257.639 Z" fill="#000000" fill-rule="evenodd" fill-opacity="1" /><path clip-path="url(#clip480)" d="M2467.75 240.301 Q2464.65 245.625 2463.14 250.834 Q2461.64 256.042 2461.64 261.389 Q2461.64 266.736 2463.14 271.991 Q2464.67 277.222 2467.75 282.523 L2464.05 282.523 Q2460.57 277.083 2458.84 271.829 Q2457.13 266.574 2457.13 261.389 Q2457.13 256.227 2458.84 250.996 Q2460.55 245.764 2464.05 240.301 L2467.75 240.301 Z" fill="#000000" fill-rule="evenodd" fill-opacity="1" /><path clip-path="url(#clip480)" d="M2480.23 242.986 L2480.23 250.347 L2489 250.347 L2489 253.658 L2480.23 253.658 L2480.23 267.732 Q2480.23 270.903 2481.08 271.806 Q2481.96 272.708 2484.63 272.708 L2489 272.708 L2489 276.273 L2484.63 276.273 Q2479.69 276.273 2477.82 274.444 Q2475.94 272.593 2475.94 267.732 L2475.94 253.658 L2472.82 253.658 L2472.82 250.347 L2475.94 250.347 L2475.94 242.986 L2480.23 242.986 Z" fill="#000000" fill-rule="evenodd" fill-opacity="1" /><path clip-path="url(#clip480)" d="M2493.93 240.301 L2497.63 240.301 Q2501.11 245.764 2502.82 250.996 Q2504.56 256.227 2504.56 261.389 Q2504.56 266.574 2502.82 271.829 Q2501.11 277.083 2497.63 282.523 L2493.93 282.523 Q2497.01 277.222 2498.51 271.991 Q2500.04 266.736 2500.04 261.389 Q2500.04 256.042 2498.51 250.834 Q2497.01 245.625 2493.93 240.301 Z" fill="#000000" fill-rule="evenodd" fill-opacity="1" /></svg>
