<?xml version="1.0" encoding="utf-8"?>
<svg xmlns="http://www.w3.org/2000/svg" xmlns:xlink="http://www.w3.org/1999/xlink" width="672" height="480" viewBox="0 0 2688 1920">
<defs>
  <clipPath id="clip070">
    <rect x="0" y="0" width="2688" height="1920"/>
  </clipPath>
</defs>
<path clip-path="url(#clip070)" d="
M0 1920 L2688 1920 L2688 0 L0 0  Z
  " fill="#ffffff" fill-rule="evenodd" fill-opacity="1"/>
<defs>
  <clipPath id="clip071">
    <rect x="537" y="0" width="1883" height="1883"/>
  </clipPath>
</defs>
<path clip-path="url(#clip070)" d="
M189.154 1800.78 L2640.76 1800.78 L2640.76 47.2441 L189.154 47.2441  Z
  " fill="#ffffff" fill-rule="evenodd" fill-opacity="1"/>
<defs>
  <clipPath id="clip072">
    <rect x="189" y="47" width="2453" height="1755"/>
  </clipPath>
</defs>
<polyline clip-path="url(#clip072)" style="stroke:#000000; stroke-linecap:round; stroke-linejoin:round; stroke-width:2; stroke-opacity:0.1; fill:none" points="
  258.539,1800.78 258.539,47.2441 
  "/>
<polyline clip-path="url(#clip072)" style="stroke:#000000; stroke-linecap:round; stroke-linejoin:round; stroke-width:2; stroke-opacity:0.1; fill:none" points="
  994.736,1800.78 994.736,47.2441 
  "/>
<polyline clip-path="url(#clip072)" style="stroke:#000000; stroke-linecap:round; stroke-linejoin:round; stroke-width:2; stroke-opacity:0.1; fill:none" points="
  1730.93,1800.78 1730.93,47.2441 
  "/>
<polyline clip-path="url(#clip072)" style="stroke:#000000; stroke-linecap:round; stroke-linejoin:round; stroke-width:2; stroke-opacity:0.1; fill:none" points="
  2467.13,1800.78 2467.13,47.2441 
  "/>
<polyline clip-path="url(#clip070)" style="stroke:#000000; stroke-linecap:round; stroke-linejoin:round; stroke-width:4; stroke-opacity:1; fill:none" points="
  189.154,1800.78 2640.76,1800.78 
  "/>
<polyline clip-path="url(#clip070)" style="stroke:#000000; stroke-linecap:round; stroke-linejoin:round; stroke-width:4; stroke-opacity:1; fill:none" points="
  258.539,1800.78 258.539,1781.88 
  "/>
<polyline clip-path="url(#clip070)" style="stroke:#000000; stroke-linecap:round; stroke-linejoin:round; stroke-width:4; stroke-opacity:1; fill:none" points="
  994.736,1800.78 994.736,1781.88 
  "/>
<polyline clip-path="url(#clip070)" style="stroke:#000000; stroke-linecap:round; stroke-linejoin:round; stroke-width:4; stroke-opacity:1; fill:none" points="
  1730.93,1800.78 1730.93,1781.88 
  "/>
<polyline clip-path="url(#clip070)" style="stroke:#000000; stroke-linecap:round; stroke-linejoin:round; stroke-width:4; stroke-opacity:1; fill:none" points="
  2467.13,1800.78 2467.13,1781.88 
  "/>
<path clip-path="url(#clip070)" d="M258.539 1834 Q254.928 1834 253.099 1837.57 Q251.294 1841.11 251.294 1848.24 Q251.294 1855.34 253.099 1858.91 Q254.928 1862.45 258.539 1862.45 Q262.173 1862.45 263.979 1858.91 Q265.807 1855.34 265.807 1848.24 Q265.807 1841.11 263.979 1837.57 Q262.173 1834 258.539 1834 M258.539 1830.3 Q264.349 1830.3 267.405 1834.9 Q270.483 1839.49 270.483 1848.24 Q270.483 1856.96 267.405 1861.57 Q264.349 1866.15 258.539 1866.15 Q252.729 1866.15 249.65 1861.57 Q246.595 1856.96 246.595 1848.24 Q246.595 1839.49 249.65 1834.9 Q252.729 1830.3 258.539 1830.3 Z" fill="#000000" fill-rule="evenodd" fill-opacity="1" /><path clip-path="url(#clip070)" d="M985.118 1861.55 L992.757 1861.55 L992.757 1835.18 L984.447 1836.85 L984.447 1832.59 L992.711 1830.92 L997.387 1830.92 L997.387 1861.55 L1005.03 1861.55 L1005.03 1865.48 L985.118 1865.48 L985.118 1861.55 Z" fill="#000000" fill-rule="evenodd" fill-opacity="1" /><path clip-path="url(#clip070)" d="M1725.59 1861.55 L1741.91 1861.55 L1741.91 1865.48 L1719.96 1865.48 L1719.96 1861.55 Q1722.62 1858.79 1727.21 1854.16 Q1731.81 1849.51 1732.99 1848.17 Q1735.24 1845.65 1736.12 1843.91 Q1737.02 1842.15 1737.02 1840.46 Q1737.02 1837.71 1735.08 1835.97 Q1733.16 1834.23 1730.05 1834.23 Q1727.85 1834.23 1725.4 1835 Q1722.97 1835.76 1720.19 1837.31 L1720.19 1832.59 Q1723.02 1831.46 1725.47 1830.88 Q1727.92 1830.3 1729.96 1830.3 Q1735.33 1830.3 1738.53 1832.98 Q1741.72 1835.67 1741.72 1840.16 Q1741.72 1842.29 1740.91 1844.21 Q1740.12 1846.11 1738.02 1848.7 Q1737.44 1849.37 1734.34 1852.59 Q1731.23 1855.78 1725.59 1861.55 Z" fill="#000000" fill-rule="evenodd" fill-opacity="1" /><path clip-path="url(#clip070)" d="M2471.38 1846.85 Q2474.73 1847.57 2476.61 1849.84 Q2478.51 1852.1 2478.51 1855.44 Q2478.51 1860.55 2474.99 1863.35 Q2471.47 1866.15 2464.99 1866.15 Q2462.81 1866.15 2460.5 1865.71 Q2458.21 1865.3 2455.75 1864.44 L2455.75 1859.93 Q2457.7 1861.06 2460.01 1861.64 Q2462.33 1862.22 2464.85 1862.22 Q2469.25 1862.22 2471.54 1860.48 Q2473.86 1858.75 2473.86 1855.44 Q2473.86 1852.38 2471.7 1850.67 Q2469.57 1848.93 2465.75 1848.93 L2461.73 1848.93 L2461.73 1845.09 L2465.94 1845.09 Q2469.39 1845.09 2471.22 1843.72 Q2473.05 1842.34 2473.05 1839.74 Q2473.05 1837.08 2471.15 1835.67 Q2469.27 1834.23 2465.75 1834.23 Q2463.83 1834.23 2461.63 1834.65 Q2459.43 1835.07 2456.8 1835.95 L2456.8 1831.78 Q2459.46 1831.04 2461.77 1830.67 Q2464.11 1830.3 2466.17 1830.3 Q2471.49 1830.3 2474.6 1832.73 Q2477.7 1835.14 2477.7 1839.26 Q2477.7 1842.13 2476.05 1844.12 Q2474.41 1846.09 2471.38 1846.85 Z" fill="#000000" fill-rule="evenodd" fill-opacity="1" /><polyline clip-path="url(#clip072)" style="stroke:#000000; stroke-linecap:round; stroke-linejoin:round; stroke-width:2; stroke-opacity:0.1; fill:none" points="
  189.154,1751.15 2640.76,1751.15 
  "/>
<polyline clip-path="url(#clip072)" style="stroke:#000000; stroke-linecap:round; stroke-linejoin:round; stroke-width:2; stroke-opacity:0.1; fill:none" points="
  189.154,1337.57 2640.76,1337.57 
  "/>
<polyline clip-path="url(#clip072)" style="stroke:#000000; stroke-linecap:round; stroke-linejoin:round; stroke-width:2; stroke-opacity:0.1; fill:none" points="
  189.154,923.991 2640.76,923.991 
  "/>
<polyline clip-path="url(#clip072)" style="stroke:#000000; stroke-linecap:round; stroke-linejoin:round; stroke-width:2; stroke-opacity:0.1; fill:none" points="
  189.154,510.41 2640.76,510.41 
  "/>
<polyline clip-path="url(#clip072)" style="stroke:#000000; stroke-linecap:round; stroke-linejoin:round; stroke-width:2; stroke-opacity:0.1; fill:none" points="
  189.154,96.8303 2640.76,96.8303 
  "/>
<polyline clip-path="url(#clip070)" style="stroke:#000000; stroke-linecap:round; stroke-linejoin:round; stroke-width:4; stroke-opacity:1; fill:none" points="
  189.154,1800.78 189.154,47.2441 
  "/>
<polyline clip-path="url(#clip070)" style="stroke:#000000; stroke-linecap:round; stroke-linejoin:round; stroke-width:4; stroke-opacity:1; fill:none" points="
  189.154,1751.15 208.052,1751.15 
  "/>
<polyline clip-path="url(#clip070)" style="stroke:#000000; stroke-linecap:round; stroke-linejoin:round; stroke-width:4; stroke-opacity:1; fill:none" points="
  189.154,1337.57 208.052,1337.57 
  "/>
<polyline clip-path="url(#clip070)" style="stroke:#000000; stroke-linecap:round; stroke-linejoin:round; stroke-width:4; stroke-opacity:1; fill:none" points="
  189.154,923.991 208.052,923.991 
  "/>
<polyline clip-path="url(#clip070)" style="stroke:#000000; stroke-linecap:round; stroke-linejoin:round; stroke-width:4; stroke-opacity:1; fill:none" points="
  189.154,510.41 208.052,510.41 
  "/>
<polyline clip-path="url(#clip070)" style="stroke:#000000; stroke-linecap:round; stroke-linejoin:round; stroke-width:4; stroke-opacity:1; fill:none" points="
  189.154,96.8303 208.052,96.8303 
  "/>
<path clip-path="url(#clip070)" d="M61.4965 1736.95 Q57.8854 1736.95 56.0567 1740.51 Q54.2512 1744.06 54.2512 1751.19 Q54.2512 1758.29 56.0567 1761.86 Q57.8854 1765.4 61.4965 1765.4 Q65.1307 1765.4 66.9363 1761.86 Q68.765 1758.29 68.765 1751.19 Q68.765 1744.06 66.9363 1740.51 Q65.1307 1736.95 61.4965 1736.95 M61.4965 1733.25 Q67.3067 1733.25 70.3622 1737.85 Q73.4409 1742.44 73.4409 1751.19 Q73.4409 1759.91 70.3622 1764.52 Q67.3067 1769.1 61.4965 1769.1 Q55.6864 1769.1 52.6077 1764.52 Q49.5521 1759.91 49.5521 1751.19 Q49.5521 1742.44 52.6077 1737.85 Q55.6864 1733.25 61.4965 1733.25 Z" fill="#000000" fill-rule="evenodd" fill-opacity="1" /><path clip-path="url(#clip070)" d="M81.6584 1762.55 L86.5427 1762.55 L86.5427 1768.43 L81.6584 1768.43 L81.6584 1762.55 Z" fill="#000000" fill-rule="evenodd" fill-opacity="1" /><path clip-path="url(#clip070)" d="M106.728 1736.95 Q103.117 1736.95 101.288 1740.51 Q99.4824 1744.06 99.4824 1751.19 Q99.4824 1758.29 101.288 1761.86 Q103.117 1765.4 106.728 1765.4 Q110.362 1765.4 112.168 1761.86 Q113.996 1758.29 113.996 1751.19 Q113.996 1744.06 112.168 1740.51 Q110.362 1736.95 106.728 1736.95 M106.728 1733.25 Q112.538 1733.25 115.593 1737.85 Q118.672 1742.44 118.672 1751.19 Q118.672 1759.91 115.593 1764.52 Q112.538 1769.1 106.728 1769.1 Q100.918 1769.1 97.8389 1764.52 Q94.7834 1759.91 94.7834 1751.19 Q94.7834 1742.44 97.8389 1737.85 Q100.918 1733.25 106.728 1733.25 Z" fill="#000000" fill-rule="evenodd" fill-opacity="1" /><path clip-path="url(#clip070)" d="M136.89 1736.95 Q133.279 1736.95 131.45 1740.51 Q129.644 1744.06 129.644 1751.19 Q129.644 1758.29 131.45 1761.86 Q133.279 1765.4 136.89 1765.4 Q140.524 1765.4 142.329 1761.86 Q144.158 1758.29 144.158 1751.19 Q144.158 1744.06 142.329 1740.51 Q140.524 1736.95 136.89 1736.95 M136.89 1733.25 Q142.7 1733.25 145.755 1737.85 Q148.834 1742.44 148.834 1751.19 Q148.834 1759.91 145.755 1764.52 Q142.7 1769.1 136.89 1769.1 Q131.079 1769.1 128.001 1764.52 Q124.945 1759.91 124.945 1751.19 Q124.945 1742.44 128.001 1737.85 Q131.079 1733.25 136.89 1733.25 Z" fill="#000000" fill-rule="evenodd" fill-opacity="1" /><path clip-path="url(#clip070)" d="M62.4919 1323.37 Q58.8808 1323.37 57.0521 1326.93 Q55.2465 1330.48 55.2465 1337.61 Q55.2465 1344.71 57.0521 1348.28 Q58.8808 1351.82 62.4919 1351.82 Q66.1261 1351.82 67.9317 1348.28 Q69.7604 1344.71 69.7604 1337.61 Q69.7604 1330.48 67.9317 1326.93 Q66.1261 1323.37 62.4919 1323.37 M62.4919 1319.67 Q68.302 1319.67 71.3576 1324.27 Q74.4363 1328.86 74.4363 1337.61 Q74.4363 1346.33 71.3576 1350.94 Q68.302 1355.52 62.4919 1355.52 Q56.6817 1355.52 53.603 1350.94 Q50.5475 1346.33 50.5475 1337.61 Q50.5475 1328.86 53.603 1324.27 Q56.6817 1319.67 62.4919 1319.67 Z" fill="#000000" fill-rule="evenodd" fill-opacity="1" /><path clip-path="url(#clip070)" d="M82.6538 1348.97 L87.538 1348.97 L87.538 1354.85 L82.6538 1354.85 L82.6538 1348.97 Z" fill="#000000" fill-rule="evenodd" fill-opacity="1" /><path clip-path="url(#clip070)" d="M101.751 1350.92 L118.07 1350.92 L118.07 1354.85 L96.126 1354.85 L96.126 1350.92 Q98.788 1348.16 103.371 1343.53 Q107.978 1338.88 109.158 1337.54 Q111.404 1335.01 112.283 1333.28 Q113.186 1331.52 113.186 1329.83 Q113.186 1327.07 111.242 1325.34 Q109.32 1323.6 106.218 1323.6 Q104.019 1323.6 101.566 1324.36 Q99.1352 1325.13 96.3574 1326.68 L96.3574 1321.96 Q99.1815 1320.82 101.635 1320.24 Q104.089 1319.67 106.126 1319.67 Q111.496 1319.67 114.691 1322.35 Q117.885 1325.04 117.885 1329.53 Q117.885 1331.66 117.075 1333.58 Q116.288 1335.48 114.181 1338.07 Q113.603 1338.74 110.501 1341.96 Q107.399 1345.15 101.751 1350.92 Z" fill="#000000" fill-rule="evenodd" fill-opacity="1" /><path clip-path="url(#clip070)" d="M127.931 1320.29 L146.288 1320.29 L146.288 1324.23 L132.214 1324.23 L132.214 1332.7 Q133.232 1332.35 134.251 1332.19 Q135.269 1332 136.288 1332 Q142.075 1332 145.454 1335.17 Q148.834 1338.35 148.834 1343.76 Q148.834 1349.34 145.362 1352.44 Q141.89 1355.52 135.57 1355.52 Q133.394 1355.52 131.126 1355.15 Q128.88 1354.78 126.473 1354.04 L126.473 1349.34 Q128.556 1350.48 130.779 1351.03 Q133.001 1351.59 135.478 1351.59 Q139.482 1351.59 141.82 1349.48 Q144.158 1347.37 144.158 1343.76 Q144.158 1340.15 141.82 1338.05 Q139.482 1335.94 135.478 1335.94 Q133.603 1335.94 131.728 1336.36 Q129.876 1336.77 127.931 1337.65 L127.931 1320.29 Z" fill="#000000" fill-rule="evenodd" fill-opacity="1" /><path clip-path="url(#clip070)" d="M61.4965 909.789 Q57.8854 909.789 56.0567 913.354 Q54.2512 916.896 54.2512 924.025 Q54.2512 931.132 56.0567 934.697 Q57.8854 938.238 61.4965 938.238 Q65.1307 938.238 66.9363 934.697 Q68.765 931.132 68.765 924.025 Q68.765 916.896 66.9363 913.354 Q65.1307 909.789 61.4965 909.789 M61.4965 906.086 Q67.3067 906.086 70.3622 910.692 Q73.4409 915.275 73.4409 924.025 Q73.4409 932.752 70.3622 937.359 Q67.3067 941.942 61.4965 941.942 Q55.6864 941.942 52.6077 937.359 Q49.5521 932.752 49.5521 924.025 Q49.5521 915.275 52.6077 910.692 Q55.6864 906.086 61.4965 906.086 Z" fill="#000000" fill-rule="evenodd" fill-opacity="1" /><path clip-path="url(#clip070)" d="M81.6584 935.391 L86.5427 935.391 L86.5427 941.271 L81.6584 941.271 L81.6584 935.391 Z" fill="#000000" fill-rule="evenodd" fill-opacity="1" /><path clip-path="url(#clip070)" d="M96.7741 906.711 L115.13 906.711 L115.13 910.646 L101.056 910.646 L101.056 919.118 Q102.075 918.771 103.094 918.609 Q104.112 918.424 105.131 918.424 Q110.918 918.424 114.297 921.595 Q117.677 924.766 117.677 930.183 Q117.677 935.761 114.205 938.863 Q110.732 941.942 104.413 941.942 Q102.237 941.942 99.9685 941.572 Q97.7232 941.201 95.3158 940.46 L95.3158 935.761 Q97.3991 936.896 99.6213 937.451 Q101.844 938.007 104.32 938.007 Q108.325 938.007 110.663 935.9 Q113.001 933.794 113.001 930.183 Q113.001 926.572 110.663 924.465 Q108.325 922.359 104.32 922.359 Q102.445 922.359 100.57 922.775 Q98.7185 923.192 96.7741 924.072 L96.7741 906.711 Z" fill="#000000" fill-rule="evenodd" fill-opacity="1" /><path clip-path="url(#clip070)" d="M136.89 909.789 Q133.279 909.789 131.45 913.354 Q129.644 916.896 129.644 924.025 Q129.644 931.132 131.45 934.697 Q133.279 938.238 136.89 938.238 Q140.524 938.238 142.329 934.697 Q144.158 931.132 144.158 924.025 Q144.158 916.896 142.329 913.354 Q140.524 909.789 136.89 909.789 M136.89 906.086 Q142.7 906.086 145.755 910.692 Q148.834 915.275 148.834 924.025 Q148.834 932.752 145.755 937.359 Q142.7 941.942 136.89 941.942 Q131.079 941.942 128.001 937.359 Q124.945 932.752 124.945 924.025 Q124.945 915.275 128.001 910.692 Q131.079 906.086 136.89 906.086 Z" fill="#000000" fill-rule="evenodd" fill-opacity="1" /><path clip-path="url(#clip070)" d="M62.4919 496.209 Q58.8808 496.209 57.0521 499.774 Q55.2465 503.316 55.2465 510.445 Q55.2465 517.552 57.0521 521.116 Q58.8808 524.658 62.4919 524.658 Q66.1261 524.658 67.9317 521.116 Q69.7604 517.552 69.7604 510.445 Q69.7604 503.316 67.9317 499.774 Q66.1261 496.209 62.4919 496.209 M62.4919 492.505 Q68.302 492.505 71.3576 497.112 Q74.4363 501.695 74.4363 510.445 Q74.4363 519.172 71.3576 523.778 Q68.302 528.362 62.4919 528.362 Q56.6817 528.362 53.603 523.778 Q50.5475 519.172 50.5475 510.445 Q50.5475 501.695 53.603 497.112 Q56.6817 492.505 62.4919 492.505 Z" fill="#000000" fill-rule="evenodd" fill-opacity="1" /><path clip-path="url(#clip070)" d="M82.6538 521.811 L87.538 521.811 L87.538 527.69 L82.6538 527.69 L82.6538 521.811 Z" fill="#000000" fill-rule="evenodd" fill-opacity="1" /><path clip-path="url(#clip070)" d="M96.5426 493.13 L118.765 493.13 L118.765 495.121 L106.218 527.69 L101.334 527.69 L113.14 497.066 L96.5426 497.066 L96.5426 493.13 Z" fill="#000000" fill-rule="evenodd" fill-opacity="1" /><path clip-path="url(#clip070)" d="M127.931 493.13 L146.288 493.13 L146.288 497.066 L132.214 497.066 L132.214 505.538 Q133.232 505.191 134.251 505.029 Q135.269 504.843 136.288 504.843 Q142.075 504.843 145.454 508.015 Q148.834 511.186 148.834 516.603 Q148.834 522.181 145.362 525.283 Q141.89 528.362 135.57 528.362 Q133.394 528.362 131.126 527.991 Q128.88 527.621 126.473 526.88 L126.473 522.181 Q128.556 523.315 130.779 523.871 Q133.001 524.427 135.478 524.427 Q139.482 524.427 141.82 522.32 Q144.158 520.214 144.158 516.603 Q144.158 512.991 141.82 510.885 Q139.482 508.778 135.478 508.778 Q133.603 508.778 131.728 509.195 Q129.876 509.612 127.931 510.491 L127.931 493.13 Z" fill="#000000" fill-rule="evenodd" fill-opacity="1" /><path clip-path="url(#clip070)" d="M52.3067 110.175 L59.9456 110.175 L59.9456 83.8095 L51.6354 85.4762 L51.6354 81.2169 L59.8993 79.5503 L64.5752 79.5503 L64.5752 110.175 L72.214 110.175 L72.214 114.11 L52.3067 114.11 L52.3067 110.175 Z" fill="#000000" fill-rule="evenodd" fill-opacity="1" /><path clip-path="url(#clip070)" d="M81.6584 108.231 L86.5427 108.231 L86.5427 114.11 L81.6584 114.11 L81.6584 108.231 Z" fill="#000000" fill-rule="evenodd" fill-opacity="1" /><path clip-path="url(#clip070)" d="M106.728 82.6289 Q103.117 82.6289 101.288 86.1937 Q99.4824 89.7354 99.4824 96.865 Q99.4824 103.971 101.288 107.536 Q103.117 111.078 106.728 111.078 Q110.362 111.078 112.168 107.536 Q113.996 103.971 113.996 96.865 Q113.996 89.7354 112.168 86.1937 Q110.362 82.6289 106.728 82.6289 M106.728 78.9253 Q112.538 78.9253 115.593 83.5317 Q118.672 88.115 118.672 96.865 Q118.672 105.592 115.593 110.198 Q112.538 114.782 106.728 114.782 Q100.918 114.782 97.8389 110.198 Q94.7834 105.592 94.7834 96.865 Q94.7834 88.115 97.8389 83.5317 Q100.918 78.9253 106.728 78.9253 Z" fill="#000000" fill-rule="evenodd" fill-opacity="1" /><path clip-path="url(#clip070)" d="M136.89 82.6289 Q133.279 82.6289 131.45 86.1937 Q129.644 89.7354 129.644 96.865 Q129.644 103.971 131.45 107.536 Q133.279 111.078 136.89 111.078 Q140.524 111.078 142.329 107.536 Q144.158 103.971 144.158 96.865 Q144.158 89.7354 142.329 86.1937 Q140.524 82.6289 136.89 82.6289 M136.89 78.9253 Q142.7 78.9253 145.755 83.5317 Q148.834 88.115 148.834 96.865 Q148.834 105.592 145.755 110.198 Q142.7 114.782 136.89 114.782 Q131.079 114.782 128.001 110.198 Q124.945 105.592 124.945 96.865 Q124.945 88.115 128.001 83.5317 Q131.079 78.9253 136.89 78.9253 Z" fill="#000000" fill-rule="evenodd" fill-opacity="1" /><polyline clip-path="url(#clip072)" style="stroke:#009af9; stroke-linecap:round; stroke-linejoin:round; stroke-width:4; stroke-opacity:1; fill:none" points="
  258.539,1751.15 266.068,1734.23 273.597,1717.32 343.212,1561.3 412.828,1406.98 454.664,1315.63 496.5,1225.69 531.872,1150.95 567.244,1077.61 605.667,999.697 
  644.091,923.835 679.514,855.887 714.938,790.012 752.915,721.862 790.893,656.451 834.893,584.319 878.894,516.353 898.445,487.554 917.997,459.647 937.548,432.65 
  957.099,406.583 991.389,363.167 1025.68,322.761 1063.06,282.241 1100.45,245.509 1138.05,212.474 1175.66,183.454 1196.45,169.162 1217.24,156.132 1238.03,144.373 
  1258.82,133.896 1278.6,125.124 1298.38,117.527 1318.16,111.108 1337.94,105.873 1358.51,101.69 1379.08,98.7943 1399.65,97.188 1420.21,96.8724 1454.84,99.2575 
  1489.47,105.296 1510.6,110.773 1531.74,117.602 1552.88,125.778 1574.02,135.293 1612.74,156.176 1651.47,181.472 1687.24,208.693 1723.01,239.555 1759.24,274.454 
  1795.47,312.928 1836.07,360.181 1876.68,411.664 1913.47,461.839 1950.27,515.234 1992.39,580.15 2034.52,648.898 2073.53,715.776 2112.53,785.559 2150.99,857.011 
  2189.45,930.902 2226.78,1004.79 2264.12,1080.59 2302.4,1160.09 2340.67,1241.18 2382.61,1331.61 2424.54,1423.39 2485.46,1558.53 2546.38,1695 2558.87,1723.07 
  2571.37,1751.15 
  "/>
<polyline clip-path="url(#clip072)" style="stroke:#e26f46; stroke-linecap:round; stroke-linejoin:round; stroke-width:4; stroke-opacity:1; fill:none" points="
  258.539,697.978 273.597,697.978 412.828,697.978 496.5,697.978 567.244,697.978 644.091,697.978 714.938,697.978 790.893,697.978 878.894,697.978 957.099,697.978 
  1025.68,697.978 1100.45,697.978 1175.66,697.978 1258.82,697.978 1337.94,697.978 1420.21,697.978 1489.47,697.978 1574.02,697.978 1651.47,697.978 1723.01,697.978 
  1795.47,697.978 1876.68,697.978 1950.27,697.978 2034.52,697.978 2112.53,697.978 2189.45,697.978 2264.12,697.978 2340.67,697.978 2424.54,697.978 2546.38,697.978 
  2571.37,697.978 
  "/>
<path clip-path="url(#clip070)" d="
M2234.21 261.215 L2559.04 261.215 L2559.04 105.695 L2234.21 105.695  Z
  " fill="#ffffff" fill-rule="evenodd" fill-opacity="1"/>
<polyline clip-path="url(#clip070)" style="stroke:#000000; stroke-linecap:round; stroke-linejoin:round; stroke-width:4; stroke-opacity:1; fill:none" points="
  2234.21,261.215 2559.04,261.215 2559.04,105.695 2234.21,105.695 2234.21,261.215 
  "/>
<polyline clip-path="url(#clip070)" style="stroke:#009af9; stroke-linecap:round; stroke-linejoin:round; stroke-width:4; stroke-opacity:1; fill:none" points="
  2261.45,157.535 2424.89,157.535 
  "/>
<path clip-path="url(#clip070)" d="M2465.97 177.223 Q2464.16 181.852 2462.45 183.264 Q2460.74 184.676 2457.87 184.676 L2454.46 184.676 L2454.46 181.112 L2456.96 181.112 Q2458.72 181.112 2459.69 180.278 Q2460.67 179.445 2461.85 176.343 L2462.61 174.399 L2452.13 148.889 L2456.64 148.889 L2464.74 169.167 L2472.84 148.889 L2477.36 148.889 L2465.97 177.223 Z" fill="#000000" fill-rule="evenodd" fill-opacity="1" /><path clip-path="url(#clip070)" d="M2484.65 170.88 L2492.29 170.88 L2492.29 144.515 L2483.98 146.181 L2483.98 141.922 L2492.24 140.255 L2496.92 140.255 L2496.92 170.88 L2504.56 170.88 L2504.56 174.815 L2484.65 174.815 L2484.65 170.88 Z" fill="#000000" fill-rule="evenodd" fill-opacity="1" /><polyline clip-path="url(#clip070)" style="stroke:#e26f46; stroke-linecap:round; stroke-linejoin:round; stroke-width:4; stroke-opacity:1; fill:none" points="
  2261.45,209.375 2424.89,209.375 
  "/>
<path clip-path="url(#clip070)" d="M2465.97 229.063 Q2464.16 233.692 2462.45 235.104 Q2460.74 236.516 2457.87 236.516 L2454.46 236.516 L2454.46 232.952 L2456.96 232.952 Q2458.72 232.952 2459.69 232.118 Q2460.67 231.285 2461.85 228.183 L2462.61 226.239 L2452.13 200.729 L2456.64 200.729 L2464.74 221.007 L2472.84 200.729 L2477.36 200.729 L2465.97 229.063 Z" fill="#000000" fill-rule="evenodd" fill-opacity="1" /><path clip-path="url(#clip070)" d="M2487.87 222.72 L2504.19 222.72 L2504.19 226.655 L2482.24 226.655 L2482.24 222.72 Q2484.9 219.965 2489.49 215.336 Q2494.09 210.683 2495.27 209.341 Q2497.52 206.817 2498.4 205.081 Q2499.3 203.322 2499.3 201.632 Q2499.3 198.878 2497.36 197.142 Q2495.44 195.405 2492.33 195.405 Q2490.13 195.405 2487.68 196.169 Q2485.25 196.933 2482.47 198.484 L2482.47 193.762 Q2485.3 192.628 2487.75 192.049 Q2490.2 191.47 2492.24 191.47 Q2497.61 191.47 2500.81 194.155 Q2504 196.841 2504 201.331 Q2504 203.461 2503.19 205.382 Q2502.4 207.28 2500.3 209.873 Q2499.72 210.544 2496.62 213.762 Q2493.51 216.956 2487.87 222.72 Z" fill="#000000" fill-rule="evenodd" fill-opacity="1" /></svg>
