<?xml version="1.0" encoding="utf-8"?>
<svg xmlns="http://www.w3.org/2000/svg" xmlns:xlink="http://www.w3.org/1999/xlink" width="672" height="480" viewBox="0 0 2688 1920">
<defs>
  <clipPath id="clip920">
    <rect x="0" y="0" width="2688" height="1920"/>
  </clipPath>
</defs>
<path clip-path="url(#clip920)" d="
M0 1920 L2688 1920 L2688 0 L0 0  Z
  " fill="#ffffff" fill-rule="evenodd" fill-opacity="1"/>
<defs>
  <clipPath id="clip921">
    <rect x="537" y="0" width="1883" height="1883"/>
  </clipPath>
</defs>
<path clip-path="url(#clip920)" d="
M181.747 1734.12 L2640.76 1734.12 L2640.76 127.792 L181.747 127.792  Z
  " fill="#ffffff" fill-rule="evenodd" fill-opacity="1"/>
<defs>
  <clipPath id="clip922">
    <rect x="181" y="127" width="2460" height="1607"/>
  </clipPath>
</defs>
<polyline clip-path="url(#clip922)" style="stroke:#000000; stroke-linecap:butt; stroke-linejoin:round; stroke-width:2; stroke-opacity:0.1; fill:none" points="
  251.341,1734.12 251.341,127.792 
  "/>
<polyline clip-path="url(#clip922)" style="stroke:#000000; stroke-linecap:butt; stroke-linejoin:round; stroke-width:2; stroke-opacity:0.1; fill:none" points="
  831.296,1734.12 831.296,127.792 
  "/>
<polyline clip-path="url(#clip922)" style="stroke:#000000; stroke-linecap:butt; stroke-linejoin:round; stroke-width:2; stroke-opacity:0.1; fill:none" points="
  1411.25,1734.12 1411.25,127.792 
  "/>
<polyline clip-path="url(#clip922)" style="stroke:#000000; stroke-linecap:butt; stroke-linejoin:round; stroke-width:2; stroke-opacity:0.1; fill:none" points="
  1991.21,1734.12 1991.21,127.792 
  "/>
<polyline clip-path="url(#clip922)" style="stroke:#000000; stroke-linecap:butt; stroke-linejoin:round; stroke-width:2; stroke-opacity:0.1; fill:none" points="
  2571.16,1734.12 2571.16,127.792 
  "/>
<polyline clip-path="url(#clip920)" style="stroke:#000000; stroke-linecap:butt; stroke-linejoin:round; stroke-width:4; stroke-opacity:1; fill:none" points="
  181.747,1734.12 2640.76,1734.12 
  "/>
<polyline clip-path="url(#clip920)" style="stroke:#000000; stroke-linecap:butt; stroke-linejoin:round; stroke-width:4; stroke-opacity:1; fill:none" points="
  251.341,1734.12 251.341,1715.22 
  "/>
<polyline clip-path="url(#clip920)" style="stroke:#000000; stroke-linecap:butt; stroke-linejoin:round; stroke-width:4; stroke-opacity:1; fill:none" points="
  831.296,1734.12 831.296,1715.22 
  "/>
<polyline clip-path="url(#clip920)" style="stroke:#000000; stroke-linecap:butt; stroke-linejoin:round; stroke-width:4; stroke-opacity:1; fill:none" points="
  1411.25,1734.12 1411.25,1715.22 
  "/>
<polyline clip-path="url(#clip920)" style="stroke:#000000; stroke-linecap:butt; stroke-linejoin:round; stroke-width:4; stroke-opacity:1; fill:none" points="
  1991.21,1734.12 1991.21,1715.22 
  "/>
<polyline clip-path="url(#clip920)" style="stroke:#000000; stroke-linecap:butt; stroke-linejoin:round; stroke-width:4; stroke-opacity:1; fill:none" points="
  2571.16,1734.12 2571.16,1715.22 
  "/>
<path clip-path="url(#clip920)" d="M251.341 1767.34 Q247.73 1767.34 245.901 1770.9 Q244.096 1774.45 244.096 1781.58 Q244.096 1788.68 245.901 1792.25 Q247.73 1795.79 251.341 1795.79 Q254.975 1795.79 256.781 1792.25 Q258.61 1788.68 258.61 1781.58 Q258.61 1774.45 256.781 1770.9 Q254.975 1767.34 251.341 1767.34 M251.341 1763.64 Q257.151 1763.64 260.207 1768.24 Q263.286 1772.83 263.286 1781.58 Q263.286 1790.3 260.207 1794.91 Q257.151 1799.49 251.341 1799.49 Q245.531 1799.49 242.452 1794.91 Q239.397 1790.3 239.397 1781.58 Q239.397 1772.83 242.452 1768.24 Q245.531 1763.64 251.341 1763.64 Z" fill="#000000" fill-rule="evenodd" fill-opacity="1" /><path clip-path="url(#clip920)" d="M825.949 1794.89 L842.268 1794.89 L842.268 1798.82 L820.324 1798.82 L820.324 1794.89 Q822.986 1792.13 827.569 1787.5 Q832.176 1782.85 833.356 1781.51 Q835.602 1778.98 836.481 1777.25 Q837.384 1775.49 837.384 1773.8 Q837.384 1771.04 835.44 1769.31 Q833.518 1767.57 830.417 1767.57 Q828.218 1767.57 825.764 1768.34 Q823.333 1769.1 820.556 1770.65 L820.556 1765.93 Q823.38 1764.79 825.833 1764.21 Q828.287 1763.64 830.324 1763.64 Q835.694 1763.64 838.889 1766.32 Q842.083 1769.01 842.083 1773.5 Q842.083 1775.63 841.273 1777.55 Q840.486 1779.45 838.38 1782.04 Q837.801 1782.71 834.699 1785.93 Q831.597 1789.12 825.949 1794.89 Z" fill="#000000" fill-rule="evenodd" fill-opacity="1" /><path clip-path="url(#clip920)" d="M1414.26 1768.34 L1402.46 1786.78 L1414.26 1786.78 L1414.26 1768.34 M1413.03 1764.26 L1418.91 1764.26 L1418.91 1786.78 L1423.84 1786.78 L1423.84 1790.67 L1418.91 1790.67 L1418.91 1798.82 L1414.26 1798.82 L1414.26 1790.67 L1398.66 1790.67 L1398.66 1786.16 L1413.03 1764.26 Z" fill="#000000" fill-rule="evenodd" fill-opacity="1" /><path clip-path="url(#clip920)" d="M1991.61 1779.68 Q1988.46 1779.68 1986.61 1781.83 Q1984.78 1783.98 1984.78 1787.73 Q1984.78 1791.46 1986.61 1793.64 Q1988.46 1795.79 1991.61 1795.79 Q1994.76 1795.79 1996.59 1793.64 Q1998.44 1791.46 1998.44 1787.73 Q1998.44 1783.98 1996.59 1781.83 Q1994.76 1779.68 1991.61 1779.68 M2000.89 1765.02 L2000.89 1769.28 Q1999.13 1768.45 1997.33 1768.01 Q1995.55 1767.57 1993.79 1767.57 Q1989.16 1767.57 1986.7 1770.7 Q1984.27 1773.82 1983.93 1780.14 Q1985.29 1778.13 1987.35 1777.06 Q1989.41 1775.97 1991.89 1775.97 Q1997.1 1775.97 2000.11 1779.15 Q2003.14 1782.29 2003.14 1787.73 Q2003.14 1793.06 1999.99 1796.27 Q1996.84 1799.49 1991.61 1799.49 Q1985.62 1799.49 1982.44 1794.91 Q1979.27 1790.3 1979.27 1781.58 Q1979.27 1773.38 1983.16 1768.52 Q1987.05 1763.64 1993.6 1763.64 Q1995.36 1763.64 1997.14 1763.98 Q1998.95 1764.33 2000.89 1765.02 Z" fill="#000000" fill-rule="evenodd" fill-opacity="1" /><path clip-path="url(#clip920)" d="M2571.16 1782.41 Q2567.83 1782.41 2565.91 1784.19 Q2564.01 1785.97 2564.01 1789.1 Q2564.01 1792.22 2565.91 1794.01 Q2567.83 1795.79 2571.16 1795.79 Q2574.49 1795.79 2576.42 1794.01 Q2578.34 1792.2 2578.34 1789.1 Q2578.34 1785.97 2576.42 1784.19 Q2574.52 1782.41 2571.16 1782.41 M2566.49 1780.42 Q2563.48 1779.68 2561.79 1777.62 Q2560.12 1775.56 2560.12 1772.59 Q2560.12 1768.45 2563.06 1766.04 Q2566.02 1763.64 2571.16 1763.64 Q2576.32 1763.64 2579.26 1766.04 Q2582.2 1768.45 2582.2 1772.59 Q2582.2 1775.56 2580.51 1777.62 Q2578.85 1779.68 2575.86 1780.42 Q2579.24 1781.21 2581.11 1783.5 Q2583.01 1785.79 2583.01 1789.1 Q2583.01 1794.12 2579.93 1796.81 Q2576.88 1799.49 2571.16 1799.49 Q2565.44 1799.49 2562.37 1796.81 Q2559.31 1794.12 2559.31 1789.1 Q2559.31 1785.79 2561.21 1783.5 Q2563.11 1781.21 2566.49 1780.42 M2564.77 1773.03 Q2564.77 1775.72 2566.44 1777.22 Q2568.13 1778.73 2571.16 1778.73 Q2574.17 1778.73 2575.86 1777.22 Q2577.57 1775.72 2577.57 1773.03 Q2577.57 1770.35 2575.86 1768.84 Q2574.17 1767.34 2571.16 1767.34 Q2568.13 1767.34 2566.44 1768.84 Q2564.77 1770.35 2564.77 1773.03 Z" fill="#000000" fill-rule="evenodd" fill-opacity="1" /><path clip-path="url(#clip920)" d="M1410.31 1837.53 L1410.31 1847.65 L1422.38 1847.65 L1422.38 1852.2 L1410.31 1852.2 L1410.31 1871.56 Q1410.31 1875.92 1411.49 1877.16 Q1412.7 1878.4 1416.36 1878.4 L1422.38 1878.4 L1422.38 1883.3 L1416.36 1883.3 Q1409.58 1883.3 1407 1880.79 Q1404.42 1878.24 1404.42 1871.56 L1404.42 1852.2 L1400.13 1852.2 L1400.13 1847.65 L1404.42 1847.65 L1404.42 1837.53 L1410.31 1837.53 Z" fill="#000000" fill-rule="evenodd" fill-opacity="1" /><polyline clip-path="url(#clip922)" style="stroke:#000000; stroke-linecap:butt; stroke-linejoin:round; stroke-width:2; stroke-opacity:0.1; fill:none" points="
  181.747,1703.69 2640.76,1703.69 
  "/>
<polyline clip-path="url(#clip922)" style="stroke:#000000; stroke-linecap:butt; stroke-linejoin:round; stroke-width:2; stroke-opacity:0.1; fill:none" points="
  181.747,1387.16 2640.76,1387.16 
  "/>
<polyline clip-path="url(#clip922)" style="stroke:#000000; stroke-linecap:butt; stroke-linejoin:round; stroke-width:2; stroke-opacity:0.1; fill:none" points="
  181.747,1070.64 2640.76,1070.64 
  "/>
<polyline clip-path="url(#clip922)" style="stroke:#000000; stroke-linecap:butt; stroke-linejoin:round; stroke-width:2; stroke-opacity:0.1; fill:none" points="
  181.747,754.122 2640.76,754.122 
  "/>
<polyline clip-path="url(#clip922)" style="stroke:#000000; stroke-linecap:butt; stroke-linejoin:round; stroke-width:2; stroke-opacity:0.1; fill:none" points="
  181.747,437.601 2640.76,437.601 
  "/>
<polyline clip-path="url(#clip920)" style="stroke:#000000; stroke-linecap:butt; stroke-linejoin:round; stroke-width:4; stroke-opacity:1; fill:none" points="
  181.747,1734.12 181.747,127.792 
  "/>
<polyline clip-path="url(#clip920)" style="stroke:#000000; stroke-linecap:butt; stroke-linejoin:round; stroke-width:4; stroke-opacity:1; fill:none" points="
  181.747,1703.69 200.644,1703.69 
  "/>
<polyline clip-path="url(#clip920)" style="stroke:#000000; stroke-linecap:butt; stroke-linejoin:round; stroke-width:4; stroke-opacity:1; fill:none" points="
  181.747,1387.16 200.644,1387.16 
  "/>
<polyline clip-path="url(#clip920)" style="stroke:#000000; stroke-linecap:butt; stroke-linejoin:round; stroke-width:4; stroke-opacity:1; fill:none" points="
  181.747,1070.64 200.644,1070.64 
  "/>
<polyline clip-path="url(#clip920)" style="stroke:#000000; stroke-linecap:butt; stroke-linejoin:round; stroke-width:4; stroke-opacity:1; fill:none" points="
  181.747,754.122 200.644,754.122 
  "/>
<polyline clip-path="url(#clip920)" style="stroke:#000000; stroke-linecap:butt; stroke-linejoin:round; stroke-width:4; stroke-opacity:1; fill:none" points="
  181.747,437.601 200.644,437.601 
  "/>
<path clip-path="url(#clip920)" d="M50.5475 1704.14 L80.2233 1704.14 L80.2233 1708.07 L50.5475 1708.07 L50.5475 1704.14 Z" fill="#000000" fill-rule="evenodd" fill-opacity="1" /><path clip-path="url(#clip920)" d="M89.1352 1686.41 L111.357 1686.41 L111.357 1688.4 L98.8111 1720.97 L93.9269 1720.97 L105.732 1690.34 L89.1352 1690.34 L89.1352 1686.41 Z" fill="#000000" fill-rule="evenodd" fill-opacity="1" /><path clip-path="url(#clip920)" d="M120.524 1686.41 L138.88 1686.41 L138.88 1690.34 L124.806 1690.34 L124.806 1698.81 Q125.825 1698.47 126.843 1698.3 Q127.862 1698.12 128.88 1698.12 Q134.667 1698.12 138.047 1701.29 Q141.427 1704.46 141.427 1709.88 Q141.427 1715.46 137.954 1718.56 Q134.482 1721.64 128.163 1721.64 Q125.987 1721.64 123.718 1721.27 Q121.473 1720.9 119.066 1720.16 L119.066 1715.46 Q121.149 1716.59 123.371 1717.15 Q125.593 1717.7 128.07 1717.7 Q132.075 1717.7 134.413 1715.6 Q136.751 1713.49 136.751 1709.88 Q136.751 1706.27 134.413 1704.16 Q132.075 1702.05 128.07 1702.05 Q126.195 1702.05 124.32 1702.47 Q122.468 1702.89 120.524 1703.77 L120.524 1686.41 Z" fill="#000000" fill-rule="evenodd" fill-opacity="1" /><path clip-path="url(#clip920)" d="M49.5521 1387.62 L79.2279 1387.62 L79.2279 1391.55 L49.5521 1391.55 L49.5521 1387.62 Z" fill="#000000" fill-rule="evenodd" fill-opacity="1" /><path clip-path="url(#clip920)" d="M89.3667 1369.88 L107.723 1369.88 L107.723 1373.82 L93.6491 1373.82 L93.6491 1382.29 Q94.6676 1381.94 95.6861 1381.78 Q96.7047 1381.6 97.7232 1381.6 Q103.51 1381.6 106.89 1384.77 Q110.269 1387.94 110.269 1393.36 Q110.269 1398.94 106.797 1402.04 Q103.325 1405.12 97.0056 1405.12 Q94.8297 1405.12 92.5612 1404.75 Q90.3158 1404.38 87.9084 1403.63 L87.9084 1398.94 Q89.9917 1400.07 92.2139 1400.63 Q94.4361 1401.18 96.913 1401.18 Q100.918 1401.18 103.256 1399.07 Q105.593 1396.97 105.593 1393.36 Q105.593 1389.75 103.256 1387.64 Q100.918 1385.53 96.913 1385.53 Q95.038 1385.53 93.163 1385.95 Q91.3112 1386.37 89.3667 1387.25 L89.3667 1369.88 Z" fill="#000000" fill-rule="evenodd" fill-opacity="1" /><path clip-path="url(#clip920)" d="M129.482 1372.96 Q125.871 1372.96 124.042 1376.53 Q122.237 1380.07 122.237 1387.2 Q122.237 1394.31 124.042 1397.87 Q125.871 1401.41 129.482 1401.41 Q133.116 1401.41 134.922 1397.87 Q136.751 1394.31 136.751 1387.2 Q136.751 1380.07 134.922 1376.53 Q133.116 1372.96 129.482 1372.96 M129.482 1369.26 Q135.292 1369.26 138.348 1373.87 Q141.427 1378.45 141.427 1387.2 Q141.427 1395.93 138.348 1400.53 Q135.292 1405.12 129.482 1405.12 Q123.672 1405.12 120.593 1400.53 Q117.538 1395.93 117.538 1387.2 Q117.538 1378.45 120.593 1373.87 Q123.672 1369.26 129.482 1369.26 Z" fill="#000000" fill-rule="evenodd" fill-opacity="1" /><path clip-path="url(#clip920)" d="M50.5475 1071.09 L80.2233 1071.09 L80.2233 1075.03 L50.5475 1075.03 L50.5475 1071.09 Z" fill="#000000" fill-rule="evenodd" fill-opacity="1" /><path clip-path="url(#clip920)" d="M94.3436 1083.99 L110.663 1083.99 L110.663 1087.92 L88.7186 1087.92 L88.7186 1083.99 Q91.3806 1081.23 95.9639 1076.6 Q100.57 1071.95 101.751 1070.61 Q103.996 1068.09 104.876 1066.35 Q105.779 1064.59 105.779 1062.9 Q105.779 1060.15 103.834 1058.41 Q101.913 1056.67 98.8111 1056.67 Q96.6121 1056.67 94.1584 1057.44 Q91.7278 1058.2 88.9501 1059.75 L88.9501 1055.03 Q91.7741 1053.9 94.2278 1053.32 Q96.6815 1052.74 98.7185 1052.74 Q104.089 1052.74 107.283 1055.42 Q110.478 1058.11 110.478 1062.6 Q110.478 1064.73 109.668 1066.65 Q108.881 1068.55 106.774 1071.14 Q106.195 1071.81 103.094 1075.03 Q99.9917 1078.22 94.3436 1083.99 Z" fill="#000000" fill-rule="evenodd" fill-opacity="1" /><path clip-path="url(#clip920)" d="M120.524 1053.36 L138.88 1053.36 L138.88 1057.3 L124.806 1057.3 L124.806 1065.77 Q125.825 1065.42 126.843 1065.26 Q127.862 1065.08 128.88 1065.08 Q134.667 1065.08 138.047 1068.25 Q141.427 1071.42 141.427 1076.84 Q141.427 1082.41 137.954 1085.52 Q134.482 1088.59 128.163 1088.59 Q125.987 1088.59 123.718 1088.22 Q121.473 1087.85 119.066 1087.11 L119.066 1082.41 Q121.149 1083.55 123.371 1084.1 Q125.593 1084.66 128.07 1084.66 Q132.075 1084.66 134.413 1082.55 Q136.751 1080.45 136.751 1076.84 Q136.751 1073.22 134.413 1071.12 Q132.075 1069.01 128.07 1069.01 Q126.195 1069.01 124.32 1069.43 Q122.468 1069.84 120.524 1070.72 L120.524 1053.36 Z" fill="#000000" fill-rule="evenodd" fill-opacity="1" /><path clip-path="url(#clip920)" d="M129.482 739.921 Q125.871 739.921 124.042 743.485 Q122.237 747.027 122.237 754.157 Q122.237 761.263 124.042 764.828 Q125.871 768.37 129.482 768.37 Q133.116 768.37 134.922 764.828 Q136.751 761.263 136.751 754.157 Q136.751 747.027 134.922 743.485 Q133.116 739.921 129.482 739.921 M129.482 736.217 Q135.292 736.217 138.348 740.823 Q141.427 745.407 141.427 754.157 Q141.427 762.884 138.348 767.49 Q135.292 772.073 129.482 772.073 Q123.672 772.073 120.593 767.49 Q117.538 762.884 117.538 754.157 Q117.538 745.407 120.593 740.823 Q123.672 736.217 129.482 736.217 Z" fill="#000000" fill-rule="evenodd" fill-opacity="1" /><path clip-path="url(#clip920)" d="M94.3436 450.946 L110.663 450.946 L110.663 454.881 L88.7186 454.881 L88.7186 450.946 Q91.3806 448.191 95.9639 443.561 Q100.57 438.909 101.751 437.566 Q103.996 435.043 104.876 433.307 Q105.779 431.547 105.779 429.858 Q105.779 427.103 103.834 425.367 Q101.913 423.631 98.8111 423.631 Q96.6121 423.631 94.1584 424.395 Q91.7278 425.159 88.9501 426.71 L88.9501 421.987 Q91.7741 420.853 94.2278 420.274 Q96.6815 419.696 98.7185 419.696 Q104.089 419.696 107.283 422.381 Q110.478 425.066 110.478 429.557 Q110.478 431.686 109.668 433.608 Q108.881 435.506 106.774 438.098 Q106.195 438.77 103.094 441.987 Q99.9917 445.182 94.3436 450.946 Z" fill="#000000" fill-rule="evenodd" fill-opacity="1" /><path clip-path="url(#clip920)" d="M120.524 420.321 L138.88 420.321 L138.88 424.256 L124.806 424.256 L124.806 432.728 Q125.825 432.381 126.843 432.219 Q127.862 432.034 128.88 432.034 Q134.667 432.034 138.047 435.205 Q141.427 438.376 141.427 443.793 Q141.427 449.371 137.954 452.473 Q134.482 455.552 128.163 455.552 Q125.987 455.552 123.718 455.182 Q121.473 454.811 119.066 454.07 L119.066 449.371 Q121.149 450.506 123.371 451.061 Q125.593 451.617 128.07 451.617 Q132.075 451.617 134.413 449.51 Q136.751 447.404 136.751 443.793 Q136.751 440.182 134.413 438.075 Q132.075 435.969 128.07 435.969 Q126.195 435.969 124.32 436.385 Q122.468 436.802 120.524 437.682 L120.524 420.321 Z" fill="#000000" fill-rule="evenodd" fill-opacity="1" /><path clip-path="url(#clip920)" d="M1180.51 17.6457 Q1171.6 17.6457 1166.33 24.2892 Q1161.11 30.9327 1161.11 42.3968 Q1161.11 53.8203 1166.33 60.4638 Q1171.6 67.1073 1180.51 67.1073 Q1189.42 67.1073 1194.61 60.4638 Q1199.83 53.8203 1199.83 42.3968 Q1199.83 30.9327 1194.61 24.2892 Q1189.42 17.6457 1180.51 17.6457 M1180.51 11.0023 Q1193.23 11.0023 1200.85 19.5497 Q1208.46 28.0566 1208.46 42.3968 Q1208.46 56.6965 1200.85 65.2439 Q1193.23 73.7508 1180.51 73.7508 Q1167.75 73.7508 1160.1 65.2439 Q1152.48 56.737 1152.48 42.3968 Q1152.48 28.0566 1160.1 19.5497 Q1167.75 11.0023 1180.51 11.0023 Z" fill="#000000" fill-rule="evenodd" fill-opacity="1" /><path clip-path="url(#clip920)" d="M1258.65 45.1919 L1258.65 72.576 L1251.2 72.576 L1251.2 45.4349 Q1251.2 38.994 1248.69 35.7938 Q1246.18 32.5936 1241.15 32.5936 Q1235.12 32.5936 1231.63 36.4419 Q1228.15 40.2903 1228.15 46.9338 L1228.15 72.576 L1220.66 72.576 L1220.66 27.2059 L1228.15 27.2059 L1228.15 34.2544 Q1230.82 30.163 1234.43 28.1376 Q1238.08 26.1121 1242.81 26.1121 Q1250.63 26.1121 1254.64 30.9732 Q1258.65 35.7938 1258.65 45.1919 Z" fill="#000000" fill-rule="evenodd" fill-opacity="1" /><path clip-path="url(#clip920)" d="M1307.26 14.324 L1307.26 27.2059 L1322.62 27.2059 L1322.62 32.9987 L1307.26 32.9987 L1307.26 57.6282 Q1307.26 63.1779 1308.76 64.7578 Q1310.3 66.3376 1314.96 66.3376 L1322.62 66.3376 L1322.62 72.576 L1314.96 72.576 Q1306.33 72.576 1303.05 69.3758 Q1299.77 66.1351 1299.77 57.6282 L1299.77 32.9987 L1294.3 32.9987 L1294.3 27.2059 L1299.77 27.2059 L1299.77 14.324 L1307.26 14.324 Z" fill="#000000" fill-rule="evenodd" fill-opacity="1" /><path clip-path="url(#clip920)" d="M1370.13 45.1919 L1370.13 72.576 L1362.68 72.576 L1362.68 45.4349 Q1362.68 38.994 1360.17 35.7938 Q1357.66 32.5936 1352.63 32.5936 Q1346.6 32.5936 1343.12 36.4419 Q1339.63 40.2903 1339.63 46.9338 L1339.63 72.576 L1332.14 72.576 L1332.14 9.54393 L1339.63 9.54393 L1339.63 34.2544 Q1342.3 30.163 1345.91 28.1376 Q1349.56 26.1121 1354.3 26.1121 Q1362.11 26.1121 1366.12 30.9732 Q1370.13 35.7938 1370.13 45.1919 Z" fill="#000000" fill-rule="evenodd" fill-opacity="1" /><path clip-path="url(#clip920)" d="M1423.81 48.0275 L1423.81 51.6733 L1389.54 51.6733 Q1390.02 59.3701 1394.16 63.421 Q1398.33 67.4314 1405.74 67.4314 Q1410.04 67.4314 1414.05 66.3781 Q1418.1 65.3249 1422.07 63.2184 L1422.07 70.267 Q1418.06 71.9684 1413.84 72.8596 Q1409.63 73.7508 1405.3 73.7508 Q1394.44 73.7508 1388.08 67.4314 Q1381.76 61.1119 1381.76 50.3365 Q1381.76 39.1965 1387.76 32.6746 Q1393.79 26.1121 1404 26.1121 Q1413.16 26.1121 1418.46 32.0264 Q1423.81 37.9003 1423.81 48.0275 M1416.36 45.84 Q1416.27 39.7232 1412.91 36.0774 Q1409.59 32.4315 1404.08 32.4315 Q1397.84 32.4315 1394.08 35.9558 Q1390.35 39.4801 1389.78 45.8805 L1416.36 45.84 Z" fill="#000000" fill-rule="evenodd" fill-opacity="1" /><path clip-path="url(#clip920)" d="M1462.74 12.096 L1500.98 12.096 L1500.98 18.9825 L1470.92 18.9825 L1470.92 36.8875 L1499.72 36.8875 L1499.72 43.7741 L1470.92 43.7741 L1470.92 65.6895 L1501.71 65.6895 L1501.71 72.576 L1462.74 72.576 L1462.74 12.096 Z" fill="#000000" fill-rule="evenodd" fill-opacity="1" /><path clip-path="url(#clip920)" d="M1535.45 49.7694 Q1526.42 49.7694 1522.93 51.8354 Q1519.45 53.9013 1519.45 58.8839 Q1519.45 62.8538 1522.04 65.2034 Q1524.68 67.5124 1529.17 67.5124 Q1535.37 67.5124 1539.1 63.1374 Q1542.87 58.7219 1542.87 51.4303 L1542.87 49.7694 L1535.45 49.7694 M1550.32 46.6907 L1550.32 72.576 L1542.87 72.576 L1542.87 65.6895 Q1540.31 69.8214 1536.51 71.8063 Q1532.7 73.7508 1527.19 73.7508 Q1520.22 73.7508 1516.09 69.8619 Q1512 65.9325 1512 59.3701 Q1512 51.7138 1517.1 47.825 Q1522.25 43.9361 1532.41 43.9361 L1542.87 43.9361 L1542.87 43.2069 Q1542.87 38.0623 1539.46 35.2672 Q1536.1 32.4315 1529.98 32.4315 Q1526.09 32.4315 1522.41 33.3632 Q1518.72 34.295 1515.32 36.1584 L1515.32 29.2718 Q1519.41 27.692 1523.26 26.9223 Q1527.11 26.1121 1530.75 26.1121 Q1540.6 26.1121 1545.46 31.2163 Q1550.32 36.3204 1550.32 46.6907 Z" fill="#000000" fill-rule="evenodd" fill-opacity="1" /><path clip-path="url(#clip920)" d="M1591.96 34.1734 Q1590.71 33.4443 1589.21 33.1202 Q1587.75 32.7556 1585.97 32.7556 Q1579.65 32.7556 1576.24 36.8875 Q1572.88 40.9789 1572.88 48.6757 L1572.88 72.576 L1565.39 72.576 L1565.39 27.2059 L1572.88 27.2059 L1572.88 34.2544 Q1575.23 30.1225 1579 28.1376 Q1582.77 26.1121 1588.15 26.1121 Q1588.92 26.1121 1589.86 26.2337 Q1590.79 26.3147 1591.92 26.5172 L1591.96 34.1734 Z" fill="#000000" fill-rule="evenodd" fill-opacity="1" /><path clip-path="url(#clip920)" d="M1607.15 14.324 L1607.15 27.2059 L1622.51 27.2059 L1622.51 32.9987 L1607.15 32.9987 L1607.15 57.6282 Q1607.15 63.1779 1608.65 64.7578 Q1610.19 66.3376 1614.85 66.3376 L1622.51 66.3376 L1622.51 72.576 L1614.85 72.576 Q1606.22 72.576 1602.94 69.3758 Q1599.66 66.1351 1599.66 57.6282 L1599.66 32.9987 L1594.19 32.9987 L1594.19 27.2059 L1599.66 27.2059 L1599.66 14.324 L1607.15 14.324 Z" fill="#000000" fill-rule="evenodd" fill-opacity="1" /><path clip-path="url(#clip920)" d="M1670.02 45.1919 L1670.02 72.576 L1662.57 72.576 L1662.57 45.4349 Q1662.57 38.994 1660.06 35.7938 Q1657.55 32.5936 1652.52 32.5936 Q1646.49 32.5936 1643 36.4419 Q1639.52 40.2903 1639.52 46.9338 L1639.52 72.576 L1632.03 72.576 L1632.03 9.54393 L1639.52 9.54393 L1639.52 34.2544 Q1642.19 30.163 1645.8 28.1376 Q1649.44 26.1121 1654.18 26.1121 Q1662 26.1121 1666.01 30.9732 Q1670.02 35.7938 1670.02 45.1919 Z" fill="#000000" fill-rule="evenodd" fill-opacity="1" /><polyline clip-path="url(#clip922)" style="stroke:#009af9; stroke-linecap:butt; stroke-linejoin:round; stroke-width:4; stroke-opacity:1; fill:none" stroke-dasharray="16, 10" points="
  251.341,754.122 831.296,242.792 1411.25,228.104 1991.21,710.058 2571.16,1688.65 
  "/>
<polyline clip-path="url(#clip922)" style="stroke:#e26f46; stroke-linecap:butt; stroke-linejoin:round; stroke-width:4; stroke-opacity:1; fill:none" stroke-dasharray="16, 8, 2, 8" points="
  251.341,754.122 280.339,716.76 309.337,680.64 338.334,645.762 367.332,612.125 396.33,579.729 425.328,548.576 454.325,518.663 483.323,489.993 512.321,462.564 
  541.319,436.377 570.316,411.431 599.314,387.727 628.312,365.264 657.31,344.044 686.307,324.064 715.305,305.327 744.303,287.831 773.301,271.576 802.299,256.563 
  831.296,242.792 860.294,230.262 889.292,218.974 918.29,208.928 947.287,200.123 976.285,192.56 1005.28,186.238 1034.28,181.158 1063.28,177.32 1092.28,174.723 
  1121.27,173.368 1150.27,173.254 1179.27,174.382 1208.27,176.752 1237.26,180.363 1266.26,185.216 1295.26,191.31 1324.26,198.646 1353.26,207.224 1382.25,217.043 
  1411.25,228.104 1440.25,240.407 1469.25,253.951 1498.24,268.736 1527.24,284.764 1556.24,302.032 1585.24,320.543 1614.24,340.295 1643.23,361.289 1672.23,383.524 
  1701.23,407.001 1730.23,431.72 1759.22,457.68 1788.22,484.881 1817.22,513.325 1846.22,543.01 1875.22,573.936 1904.21,606.104 1933.21,639.514 1962.21,674.165 
  1991.21,710.058 2020.2,747.193 2049.2,785.569 2078.2,825.187 2107.2,866.046 2136.2,908.147 2165.19,951.49 2194.19,996.074 2223.19,1041.9 2252.19,1088.97 
  2281.18,1137.28 2310.18,1186.83 2339.18,1237.62 2368.18,1289.65 2397.17,1342.93 2426.17,1397.45 2455.17,1453.2 2484.17,1510.2 2513.17,1568.45 2542.16,1627.93 
  2571.16,1688.65 
  "/>
<path clip-path="url(#clip920)" d="
M263.714 1680.57 L1277.49 1680.57 L1277.49 1525.05 L263.714 1525.05  Z
  " fill="#ffffff" fill-rule="evenodd" fill-opacity="1"/>
<polyline clip-path="url(#clip920)" style="stroke:#000000; stroke-linecap:butt; stroke-linejoin:round; stroke-width:4; stroke-opacity:1; fill:none" points="
  263.714,1680.57 1277.49,1680.57 1277.49,1525.05 263.714,1525.05 263.714,1680.57 
  "/>
<polyline clip-path="url(#clip920)" style="stroke:#009af9; stroke-linecap:butt; stroke-linejoin:round; stroke-width:4; stroke-opacity:1; fill:none" stroke-dasharray="16, 10" points="
  291.036,1576.89 454.97,1576.89 
  "/>
<path clip-path="url(#clip920)" d="M487.917 1590.24 L504.237 1590.24 L504.237 1594.17 L482.292 1594.17 L482.292 1590.24 Q484.954 1587.48 489.538 1582.85 Q494.144 1578.2 495.325 1576.86 Q497.57 1574.33 498.45 1572.6 Q499.352 1570.84 499.352 1569.15 Q499.352 1566.4 497.408 1564.66 Q495.487 1562.92 492.385 1562.92 Q490.186 1562.92 487.732 1563.69 Q485.301 1564.45 482.524 1566 L482.524 1561.28 Q485.348 1560.15 487.801 1559.57 Q490.255 1558.99 492.292 1558.99 Q497.662 1558.99 500.857 1561.67 Q504.051 1564.36 504.051 1568.85 Q504.051 1570.98 503.241 1572.9 Q502.454 1574.8 500.348 1577.39 Q499.769 1578.06 496.667 1581.28 Q493.565 1584.47 487.917 1590.24 Z" fill="#000000" fill-rule="evenodd" fill-opacity="1" /><path clip-path="url(#clip920)" d="M535 1578.52 L535 1594.17 L530.741 1594.17 L530.741 1578.66 Q530.741 1574.98 529.306 1573.15 Q527.871 1571.33 525 1571.33 Q521.551 1571.33 519.561 1573.52 Q517.57 1575.72 517.57 1579.52 L517.57 1594.17 L513.287 1594.17 L513.287 1568.25 L517.57 1568.25 L517.57 1572.27 Q519.098 1569.94 521.158 1568.78 Q523.241 1567.62 525.949 1567.62 Q530.417 1567.62 532.709 1570.4 Q535 1573.15 535 1578.52 Z" fill="#000000" fill-rule="evenodd" fill-opacity="1" /><path clip-path="url(#clip920)" d="M560.556 1572.18 L560.556 1558.15 L564.815 1558.15 L564.815 1594.17 L560.556 1594.17 L560.556 1590.28 Q559.213 1592.6 557.153 1593.73 Q555.116 1594.84 552.246 1594.84 Q547.546 1594.84 544.584 1591.09 Q541.644 1587.34 541.644 1581.23 Q541.644 1575.12 544.584 1571.37 Q547.546 1567.62 552.246 1567.62 Q555.116 1567.62 557.153 1568.76 Q559.213 1569.87 560.556 1572.18 M546.042 1581.23 Q546.042 1585.93 547.963 1588.62 Q549.908 1591.28 553.287 1591.28 Q556.667 1591.28 558.611 1588.62 Q560.556 1585.93 560.556 1581.23 Q560.556 1576.53 558.611 1573.87 Q556.667 1571.19 553.287 1571.19 Q549.908 1571.19 547.963 1573.87 Q546.042 1576.53 546.042 1581.23 Z" fill="#000000" fill-rule="evenodd" fill-opacity="1" /><path clip-path="url(#clip920)" d="M598.704 1571.23 Q595.278 1571.23 593.287 1573.92 Q591.296 1576.58 591.296 1581.23 Q591.296 1585.89 593.264 1588.57 Q595.255 1591.23 598.704 1591.23 Q602.106 1591.23 604.097 1588.55 Q606.088 1585.86 606.088 1581.23 Q606.088 1576.63 604.097 1573.94 Q602.106 1571.23 598.704 1571.23 M598.704 1567.62 Q604.259 1567.62 607.43 1571.23 Q610.602 1574.84 610.602 1581.23 Q610.602 1587.6 607.43 1591.23 Q604.259 1594.84 598.704 1594.84 Q593.125 1594.84 589.954 1591.23 Q586.806 1587.6 586.806 1581.23 Q586.806 1574.84 589.954 1571.23 Q593.125 1567.62 598.704 1567.62 Z" fill="#000000" fill-rule="evenodd" fill-opacity="1" /><path clip-path="url(#clip920)" d="M632.685 1572.23 Q631.967 1571.81 631.111 1571.63 Q630.278 1571.42 629.259 1571.42 Q625.648 1571.42 623.703 1573.78 Q621.782 1576.12 621.782 1580.52 L621.782 1594.17 L617.5 1594.17 L617.5 1568.25 L621.782 1568.25 L621.782 1572.27 Q623.125 1569.91 625.278 1568.78 Q627.43 1567.62 630.509 1567.62 Q630.949 1567.62 631.481 1567.69 Q632.014 1567.74 632.662 1567.85 L632.685 1572.23 Z" fill="#000000" fill-rule="evenodd" fill-opacity="1" /><path clip-path="url(#clip920)" d="M653.379 1572.18 L653.379 1558.15 L657.638 1558.15 L657.638 1594.17 L653.379 1594.17 L653.379 1590.28 Q652.037 1592.6 649.976 1593.73 Q647.939 1594.84 645.069 1594.84 Q640.37 1594.84 637.407 1591.09 Q634.467 1587.34 634.467 1581.23 Q634.467 1575.12 637.407 1571.37 Q640.37 1567.62 645.069 1567.62 Q647.939 1567.62 649.976 1568.76 Q652.037 1569.87 653.379 1572.18 M638.865 1581.23 Q638.865 1585.93 640.787 1588.62 Q642.731 1591.28 646.111 1591.28 Q649.49 1591.28 651.435 1588.62 Q653.379 1585.93 653.379 1581.23 Q653.379 1576.53 651.435 1573.87 Q649.49 1571.19 646.111 1571.19 Q642.731 1571.19 640.787 1573.87 Q638.865 1576.53 638.865 1581.23 Z" fill="#000000" fill-rule="evenodd" fill-opacity="1" /><path clip-path="url(#clip920)" d="M688.587 1580.15 L688.587 1582.23 L669.004 1582.23 Q669.282 1586.63 671.643 1588.94 Q674.027 1591.23 678.263 1591.23 Q680.717 1591.23 683.009 1590.63 Q685.324 1590.03 687.592 1588.83 L687.592 1592.85 Q685.3 1593.83 682.893 1594.33 Q680.486 1594.84 678.009 1594.84 Q671.805 1594.84 668.171 1591.23 Q664.56 1587.62 664.56 1581.46 Q664.56 1575.1 667.986 1571.37 Q671.435 1567.62 677.268 1567.62 Q682.499 1567.62 685.532 1571 Q688.587 1574.36 688.587 1580.15 M684.328 1578.9 Q684.282 1575.4 682.361 1573.32 Q680.462 1571.23 677.314 1571.23 Q673.75 1571.23 671.597 1573.25 Q669.467 1575.26 669.143 1578.92 L684.328 1578.9 Z" fill="#000000" fill-rule="evenodd" fill-opacity="1" /><path clip-path="url(#clip920)" d="M710.601 1572.23 Q709.884 1571.81 709.027 1571.63 Q708.194 1571.42 707.175 1571.42 Q703.564 1571.42 701.62 1573.78 Q699.698 1576.12 699.698 1580.52 L699.698 1594.17 L695.416 1594.17 L695.416 1568.25 L699.698 1568.25 L699.698 1572.27 Q701.041 1569.91 703.194 1568.78 Q705.347 1567.62 708.425 1567.62 Q708.865 1567.62 709.397 1567.69 Q709.93 1567.74 710.578 1567.85 L710.601 1572.23 Z" fill="#000000" fill-rule="evenodd" fill-opacity="1" /><path clip-path="url(#clip920)" d="M746.666 1569.01 L746.666 1573.04 Q744.86 1572.11 742.916 1571.65 Q740.971 1571.19 738.888 1571.19 Q735.717 1571.19 734.12 1572.16 Q732.546 1573.13 732.546 1575.08 Q732.546 1576.56 733.68 1577.41 Q734.814 1578.25 738.24 1579.01 L739.698 1579.33 Q744.235 1580.31 746.133 1582.09 Q748.055 1583.85 748.055 1587.02 Q748.055 1590.63 745.184 1592.74 Q742.337 1594.84 737.337 1594.84 Q735.254 1594.84 732.985 1594.43 Q730.74 1594.03 728.24 1593.22 L728.24 1588.83 Q730.601 1590.05 732.893 1590.68 Q735.184 1591.28 737.43 1591.28 Q740.439 1591.28 742.059 1590.26 Q743.68 1589.22 743.68 1587.34 Q743.68 1585.61 742.499 1584.68 Q741.342 1583.76 737.383 1582.9 L735.902 1582.55 Q731.944 1581.72 730.184 1580.01 Q728.425 1578.27 728.425 1575.26 Q728.425 1571.6 731.018 1569.61 Q733.61 1567.62 738.379 1567.62 Q740.74 1567.62 742.823 1567.97 Q744.907 1568.32 746.666 1569.01 Z" fill="#000000" fill-rule="evenodd" fill-opacity="1" /><path clip-path="url(#clip920)" d="M765.624 1596.58 Q763.818 1601.21 762.106 1602.62 Q760.393 1604.03 757.522 1604.03 L754.119 1604.03 L754.119 1600.47 L756.619 1600.47 Q758.379 1600.47 759.351 1599.64 Q760.323 1598.8 761.504 1595.7 L762.268 1593.76 L751.782 1568.25 L756.295 1568.25 L764.397 1588.52 L772.499 1568.25 L777.013 1568.25 L765.624 1596.58 Z" fill="#000000" fill-rule="evenodd" fill-opacity="1" /><path clip-path="url(#clip920)" d="M803.078 1573.22 Q804.675 1570.35 806.897 1568.99 Q809.119 1567.62 812.128 1567.62 Q816.179 1567.62 818.378 1570.47 Q820.577 1573.29 820.577 1578.52 L820.577 1594.17 L816.295 1594.17 L816.295 1578.66 Q816.295 1574.94 814.976 1573.13 Q813.656 1571.33 810.948 1571.33 Q807.638 1571.33 805.716 1573.52 Q803.795 1575.72 803.795 1579.52 L803.795 1594.17 L799.513 1594.17 L799.513 1578.66 Q799.513 1574.91 798.193 1573.13 Q796.874 1571.33 794.119 1571.33 Q790.855 1571.33 788.934 1573.55 Q787.013 1575.75 787.013 1579.52 L787.013 1594.17 L782.73 1594.17 L782.73 1568.25 L787.013 1568.25 L787.013 1572.27 Q788.471 1569.89 790.508 1568.76 Q792.545 1567.62 795.346 1567.62 Q798.17 1567.62 800.138 1569.06 Q802.128 1570.49 803.078 1573.22 Z" fill="#000000" fill-rule="evenodd" fill-opacity="1" /><path clip-path="url(#clip920)" d="M833.193 1590.28 L833.193 1604.03 L828.911 1604.03 L828.911 1568.25 L833.193 1568.25 L833.193 1572.18 Q834.536 1569.87 836.573 1568.76 Q838.633 1567.62 841.48 1567.62 Q846.202 1567.62 849.142 1571.37 Q852.105 1575.12 852.105 1581.23 Q852.105 1587.34 849.142 1591.09 Q846.202 1594.84 841.48 1594.84 Q838.633 1594.84 836.573 1593.73 Q834.536 1592.6 833.193 1590.28 M847.684 1581.23 Q847.684 1576.53 845.739 1573.87 Q843.818 1571.19 840.438 1571.19 Q837.059 1571.19 835.114 1573.87 Q833.193 1576.53 833.193 1581.23 Q833.193 1585.93 835.114 1588.62 Q837.059 1591.28 840.438 1591.28 Q843.818 1591.28 845.739 1588.62 Q847.684 1585.93 847.684 1581.23 Z" fill="#000000" fill-rule="evenodd" fill-opacity="1" /><path clip-path="url(#clip920)" d="M859.165 1558.15 L863.424 1558.15 L863.424 1594.17 L859.165 1594.17 L859.165 1558.15 Z" fill="#000000" fill-rule="evenodd" fill-opacity="1" /><path clip-path="url(#clip920)" d="M894.512 1580.15 L894.512 1582.23 L874.929 1582.23 Q875.207 1586.63 877.568 1588.94 Q879.952 1591.23 884.188 1591.23 Q886.642 1591.23 888.934 1590.63 Q891.248 1590.03 893.517 1588.83 L893.517 1592.85 Q891.225 1593.83 888.818 1594.33 Q886.41 1594.84 883.934 1594.84 Q877.73 1594.84 874.096 1591.23 Q870.485 1587.62 870.485 1581.46 Q870.485 1575.1 873.91 1571.37 Q877.36 1567.62 883.193 1567.62 Q888.424 1567.62 891.457 1571 Q894.512 1574.36 894.512 1580.15 M890.253 1578.9 Q890.207 1575.4 888.285 1573.32 Q886.387 1571.23 883.239 1571.23 Q879.674 1571.23 877.522 1573.25 Q875.392 1575.26 875.068 1578.92 L890.253 1578.9 Z" fill="#000000" fill-rule="evenodd" fill-opacity="1" /><path clip-path="url(#clip920)" d="M920.16 1569.24 L920.16 1573.22 Q918.355 1572.23 916.526 1571.74 Q914.72 1571.23 912.869 1571.23 Q908.725 1571.23 906.433 1573.87 Q904.142 1576.49 904.142 1581.23 Q904.142 1585.98 906.433 1588.62 Q908.725 1591.23 912.869 1591.23 Q914.72 1591.23 916.526 1590.75 Q918.355 1590.24 920.16 1589.24 L920.16 1593.18 Q918.378 1594.01 916.457 1594.43 Q914.558 1594.84 912.406 1594.84 Q906.549 1594.84 903.1 1591.16 Q899.651 1587.48 899.651 1581.23 Q899.651 1574.89 903.123 1571.26 Q906.619 1567.62 912.683 1567.62 Q914.651 1567.62 916.526 1568.04 Q918.401 1568.43 920.16 1569.24 Z" fill="#000000" fill-rule="evenodd" fill-opacity="1" /><path clip-path="url(#clip920)" d="M931.781 1560.89 L931.781 1568.25 L940.554 1568.25 L940.554 1571.56 L931.781 1571.56 L931.781 1585.63 Q931.781 1588.8 932.637 1589.71 Q933.517 1590.61 936.179 1590.61 L940.554 1590.61 L940.554 1594.17 L936.179 1594.17 Q931.248 1594.17 929.373 1592.34 Q927.498 1590.49 927.498 1585.63 L927.498 1571.56 L924.373 1571.56 L924.373 1568.25 L927.498 1568.25 L927.498 1560.89 L931.781 1560.89 Z" fill="#000000" fill-rule="evenodd" fill-opacity="1" /><path clip-path="url(#clip920)" d="M946.155 1568.25 L950.415 1568.25 L950.415 1594.17 L946.155 1594.17 L946.155 1568.25 M946.155 1558.15 L950.415 1558.15 L950.415 1563.55 L946.155 1563.55 L946.155 1558.15 Z" fill="#000000" fill-rule="evenodd" fill-opacity="1" /><path clip-path="url(#clip920)" d="M977.984 1569.24 L977.984 1573.22 Q976.178 1572.23 974.35 1571.74 Q972.544 1571.23 970.692 1571.23 Q966.549 1571.23 964.257 1573.87 Q961.966 1576.49 961.966 1581.23 Q961.966 1585.98 964.257 1588.62 Q966.549 1591.23 970.692 1591.23 Q972.544 1591.23 974.35 1590.75 Q976.178 1590.24 977.984 1589.24 L977.984 1593.18 Q976.202 1594.01 974.28 1594.43 Q972.382 1594.84 970.229 1594.84 Q964.373 1594.84 960.924 1591.16 Q957.475 1587.48 957.475 1581.23 Q957.475 1574.89 960.947 1571.26 Q964.442 1567.62 970.507 1567.62 Q972.475 1567.62 974.35 1568.04 Q976.225 1568.43 977.984 1569.24 Z" fill="#000000" fill-rule="evenodd" fill-opacity="1" /><path clip-path="url(#clip920)" d="M1010.69 1558.2 Q1007.59 1563.52 1006.09 1568.73 Q1004.58 1573.94 1004.58 1579.29 Q1004.58 1584.64 1006.09 1589.89 Q1007.61 1595.12 1010.69 1600.42 L1006.99 1600.42 Q1003.52 1594.98 1001.78 1589.73 Q1000.07 1584.47 1000.07 1579.29 Q1000.07 1574.13 1001.78 1568.9 Q1003.49 1563.66 1006.99 1558.2 L1010.69 1558.2 Z" fill="#000000" fill-rule="evenodd" fill-opacity="1" /><path clip-path="url(#clip920)" d="M1036.02 1572.18 L1036.02 1558.15 L1040.28 1558.15 L1040.28 1594.17 L1036.02 1594.17 L1036.02 1590.28 Q1034.67 1592.6 1032.61 1593.73 Q1030.58 1594.84 1027.71 1594.84 Q1023.01 1594.84 1020.04 1591.09 Q1017.1 1587.34 1017.1 1581.23 Q1017.1 1575.12 1020.04 1571.37 Q1023.01 1567.62 1027.71 1567.62 Q1030.58 1567.62 1032.61 1568.76 Q1034.67 1569.87 1036.02 1572.18 M1021.5 1581.23 Q1021.5 1585.93 1023.42 1588.62 Q1025.37 1591.28 1028.75 1591.28 Q1032.13 1591.28 1034.07 1588.62 Q1036.02 1585.93 1036.02 1581.23 Q1036.02 1576.53 1034.07 1573.87 Q1032.13 1571.19 1028.75 1571.19 Q1025.37 1571.19 1023.42 1573.87 Q1021.5 1576.53 1021.5 1581.23 Z" fill="#000000" fill-rule="evenodd" fill-opacity="1" /><path clip-path="url(#clip920)" d="M1053.26 1560.89 L1053.26 1568.25 L1062.03 1568.25 L1062.03 1571.56 L1053.26 1571.56 L1053.26 1585.63 Q1053.26 1588.8 1054.12 1589.71 Q1055 1590.61 1057.66 1590.61 L1062.03 1590.61 L1062.03 1594.17 L1057.66 1594.17 Q1052.73 1594.17 1050.85 1592.34 Q1048.98 1590.49 1048.98 1585.63 L1048.98 1571.56 L1045.85 1571.56 L1045.85 1568.25 L1048.98 1568.25 L1048.98 1560.89 L1053.26 1560.89 Z" fill="#000000" fill-rule="evenodd" fill-opacity="1" /><path clip-path="url(#clip920)" d="M1083.26 1572.65 L1112.94 1572.65 L1112.94 1576.53 L1083.26 1576.53 L1083.26 1572.65 M1083.26 1582.09 L1112.94 1582.09 L1112.94 1586.02 L1083.26 1586.02 L1083.26 1582.09 Z" fill="#000000" fill-rule="evenodd" fill-opacity="1" /><path clip-path="url(#clip920)" d="M1142.13 1590.24 L1158.45 1590.24 L1158.45 1594.17 L1136.5 1594.17 L1136.5 1590.24 Q1139.16 1587.48 1143.75 1582.85 Q1148.35 1578.2 1149.53 1576.86 Q1151.78 1574.33 1152.66 1572.6 Q1153.56 1570.84 1153.56 1569.15 Q1153.56 1566.4 1151.62 1564.66 Q1149.7 1562.92 1146.59 1562.92 Q1144.4 1562.92 1141.94 1563.69 Q1139.51 1564.45 1136.73 1566 L1136.73 1561.28 Q1139.56 1560.15 1142.01 1559.57 Q1144.46 1558.99 1146.5 1558.99 Q1151.87 1558.99 1155.07 1561.67 Q1158.26 1564.36 1158.26 1568.85 Q1158.26 1570.98 1157.45 1572.9 Q1156.66 1574.8 1154.56 1577.39 Q1153.98 1578.06 1150.88 1581.28 Q1147.77 1584.47 1142.13 1590.24 Z" fill="#000000" fill-rule="evenodd" fill-opacity="1" /><path clip-path="url(#clip920)" d="M1168.26 1588.29 L1173.14 1588.29 L1173.14 1594.17 L1168.26 1594.17 L1168.26 1588.29 Z" fill="#000000" fill-rule="evenodd" fill-opacity="1" /><path clip-path="url(#clip920)" d="M1193.33 1562.69 Q1189.72 1562.69 1187.89 1566.26 Q1186.08 1569.8 1186.08 1576.93 Q1186.08 1584.03 1187.89 1587.6 Q1189.72 1591.14 1193.33 1591.14 Q1196.96 1591.14 1198.77 1587.6 Q1200.6 1584.03 1200.6 1576.93 Q1200.6 1569.8 1198.77 1566.26 Q1196.96 1562.69 1193.33 1562.69 M1193.33 1558.99 Q1199.14 1558.99 1202.2 1563.59 Q1205.27 1568.18 1205.27 1576.93 Q1205.27 1585.65 1202.2 1590.26 Q1199.14 1594.84 1193.33 1594.84 Q1187.52 1594.84 1184.44 1590.26 Q1181.39 1585.65 1181.39 1576.93 Q1181.39 1568.18 1184.44 1563.59 Q1187.52 1558.99 1193.33 1558.99 Z" fill="#000000" fill-rule="evenodd" fill-opacity="1" /><path clip-path="url(#clip920)" d="M1212.22 1558.2 L1215.92 1558.2 Q1219.39 1563.66 1221.11 1568.9 Q1222.84 1574.13 1222.84 1579.29 Q1222.84 1584.47 1221.11 1589.73 Q1219.39 1594.98 1215.92 1600.42 L1212.22 1600.42 Q1215.3 1595.12 1216.8 1589.89 Q1218.33 1584.64 1218.33 1579.29 Q1218.33 1573.94 1216.8 1568.73 Q1215.3 1563.52 1212.22 1558.2 Z" fill="#000000" fill-rule="evenodd" fill-opacity="1" /><polyline clip-path="url(#clip920)" style="stroke:#e26f46; stroke-linecap:butt; stroke-linejoin:round; stroke-width:4; stroke-opacity:1; fill:none" stroke-dasharray="16, 8, 2, 8" points="
  291.036,1628.73 454.97,1628.73 
  "/>
<path clip-path="url(#clip920)" d="M506.32 1631.99 L506.32 1634.07 L486.737 1634.07 Q487.014 1638.47 489.376 1640.78 Q491.76 1643.07 495.996 1643.07 Q498.45 1643.07 500.741 1642.47 Q503.056 1641.87 505.324 1640.67 L505.324 1644.69 Q503.033 1645.67 500.625 1646.17 Q498.218 1646.68 495.741 1646.68 Q489.538 1646.68 485.903 1643.07 Q482.292 1639.46 482.292 1633.3 Q482.292 1626.94 485.718 1623.21 Q489.167 1619.46 495 1619.46 Q500.232 1619.46 503.264 1622.84 Q506.32 1626.2 506.32 1631.99 M502.061 1630.74 Q502.014 1627.24 500.093 1625.16 Q498.195 1623.07 495.047 1623.07 Q491.482 1623.07 489.329 1625.09 Q487.2 1627.1 486.876 1630.76 L502.061 1630.74 Z" fill="#000000" fill-rule="evenodd" fill-opacity="1" /><path clip-path="url(#clip920)" d="M534.028 1620.09 L524.653 1632.7 L534.514 1646.01 L529.491 1646.01 L521.945 1635.83 L514.399 1646.01 L509.375 1646.01 L519.445 1632.45 L510.232 1620.09 L515.255 1620.09 L522.13 1629.32 L529.005 1620.09 L534.028 1620.09 Z" fill="#000000" fill-rule="evenodd" fill-opacity="1" /><path clip-path="url(#clip920)" d="M552.315 1632.98 Q547.153 1632.98 545.162 1634.16 Q543.172 1635.34 543.172 1638.19 Q543.172 1640.46 544.653 1641.8 Q546.158 1643.12 548.727 1643.12 Q552.269 1643.12 554.398 1640.62 Q556.551 1638.1 556.551 1633.93 L556.551 1632.98 L552.315 1632.98 M560.81 1631.22 L560.81 1646.01 L556.551 1646.01 L556.551 1642.08 Q555.093 1644.44 552.917 1645.57 Q550.741 1646.68 547.593 1646.68 Q543.611 1646.68 541.25 1644.46 Q538.912 1642.22 538.912 1638.47 Q538.912 1634.09 541.829 1631.87 Q544.769 1629.65 550.579 1629.65 L556.551 1629.65 L556.551 1629.23 Q556.551 1626.29 554.607 1624.69 Q552.685 1623.07 549.19 1623.07 Q546.968 1623.07 544.861 1623.61 Q542.755 1624.14 540.81 1625.2 L540.81 1621.27 Q543.148 1620.36 545.347 1619.93 Q547.546 1619.46 549.63 1619.46 Q555.255 1619.46 558.033 1622.38 Q560.81 1625.3 560.81 1631.22 Z" fill="#000000" fill-rule="evenodd" fill-opacity="1" /><path clip-path="url(#clip920)" d="M588.241 1621.08 L588.241 1625.06 Q586.435 1624.07 584.606 1623.58 Q582.801 1623.07 580.949 1623.07 Q576.806 1623.07 574.514 1625.71 Q572.222 1628.33 572.222 1633.07 Q572.222 1637.82 574.514 1640.46 Q576.806 1643.07 580.949 1643.07 Q582.801 1643.07 584.606 1642.59 Q586.435 1642.08 588.241 1641.08 L588.241 1645.02 Q586.458 1645.85 584.537 1646.27 Q582.639 1646.68 580.486 1646.68 Q574.63 1646.68 571.181 1643 Q567.732 1639.32 567.732 1633.07 Q567.732 1626.73 571.204 1623.1 Q574.699 1619.46 580.764 1619.46 Q582.731 1619.46 584.606 1619.88 Q586.481 1620.27 588.241 1621.08 Z" fill="#000000" fill-rule="evenodd" fill-opacity="1" /><path clip-path="url(#clip920)" d="M599.861 1612.73 L599.861 1620.09 L608.634 1620.09 L608.634 1623.4 L599.861 1623.4 L599.861 1637.47 Q599.861 1640.64 600.718 1641.55 Q601.597 1642.45 604.259 1642.45 L608.634 1642.45 L608.634 1646.01 L604.259 1646.01 Q599.329 1646.01 597.454 1644.18 Q595.579 1642.33 595.579 1637.47 L595.579 1623.4 L592.454 1623.4 L592.454 1620.09 L595.579 1620.09 L595.579 1612.73 L599.861 1612.73 Z" fill="#000000" fill-rule="evenodd" fill-opacity="1" /><path clip-path="url(#clip920)" d="M645.833 1620.85 L645.833 1624.88 Q644.027 1623.95 642.083 1623.49 Q640.139 1623.03 638.055 1623.03 Q634.884 1623.03 633.287 1624 Q631.713 1624.97 631.713 1626.92 Q631.713 1628.4 632.847 1629.25 Q633.981 1630.09 637.407 1630.85 L638.865 1631.17 Q643.402 1632.15 645.301 1633.93 Q647.222 1635.69 647.222 1638.86 Q647.222 1642.47 644.352 1644.58 Q641.504 1646.68 636.504 1646.68 Q634.421 1646.68 632.153 1646.27 Q629.907 1645.87 627.407 1645.06 L627.407 1640.67 Q629.768 1641.89 632.06 1642.52 Q634.352 1643.12 636.597 1643.12 Q639.606 1643.12 641.227 1642.1 Q642.847 1641.06 642.847 1639.18 Q642.847 1637.45 641.666 1636.52 Q640.509 1635.6 636.551 1634.74 L635.069 1634.39 Q631.111 1633.56 629.352 1631.85 Q627.592 1630.11 627.592 1627.1 Q627.592 1623.44 630.185 1621.45 Q632.778 1619.46 637.546 1619.46 Q639.907 1619.46 641.99 1619.81 Q644.074 1620.16 645.833 1620.85 Z" fill="#000000" fill-rule="evenodd" fill-opacity="1" /><path clip-path="url(#clip920)" d="M664.05 1623.07 Q660.625 1623.07 658.634 1625.76 Q656.643 1628.42 656.643 1633.07 Q656.643 1637.73 658.611 1640.41 Q660.601 1643.07 664.05 1643.07 Q667.453 1643.07 669.444 1640.39 Q671.435 1637.7 671.435 1633.07 Q671.435 1628.47 669.444 1625.78 Q667.453 1623.07 664.05 1623.07 M664.05 1619.46 Q669.606 1619.46 672.777 1623.07 Q675.949 1626.68 675.949 1633.07 Q675.949 1639.44 672.777 1643.07 Q669.606 1646.68 664.05 1646.68 Q658.472 1646.68 655.301 1643.07 Q652.152 1639.44 652.152 1633.07 Q652.152 1626.68 655.301 1623.07 Q658.472 1619.46 664.05 1619.46 Z" fill="#000000" fill-rule="evenodd" fill-opacity="1" /><path clip-path="url(#clip920)" d="M683.009 1609.99 L687.268 1609.99 L687.268 1646.01 L683.009 1646.01 L683.009 1609.99 Z" fill="#000000" fill-rule="evenodd" fill-opacity="1" /><path clip-path="url(#clip920)" d="M695.74 1635.78 L695.74 1620.09 L699.999 1620.09 L699.999 1635.62 Q699.999 1639.3 701.435 1641.15 Q702.87 1642.98 705.74 1642.98 Q709.189 1642.98 711.18 1640.78 Q713.194 1638.58 713.194 1634.79 L713.194 1620.09 L717.453 1620.09 L717.453 1646.01 L713.194 1646.01 L713.194 1642.03 Q711.643 1644.39 709.583 1645.55 Q707.546 1646.68 704.837 1646.68 Q700.37 1646.68 698.055 1643.91 Q695.74 1641.13 695.74 1635.78 M706.458 1619.46 L706.458 1619.46 Z" fill="#000000" fill-rule="evenodd" fill-opacity="1" /><path clip-path="url(#clip920)" d="M730.439 1612.73 L730.439 1620.09 L739.212 1620.09 L739.212 1623.4 L730.439 1623.4 L730.439 1637.47 Q730.439 1640.64 731.296 1641.55 Q732.175 1642.45 734.837 1642.45 L739.212 1642.45 L739.212 1646.01 L734.837 1646.01 Q729.907 1646.01 728.032 1644.18 Q726.157 1642.33 726.157 1637.47 L726.157 1623.4 L723.032 1623.4 L723.032 1620.09 L726.157 1620.09 L726.157 1612.73 L730.439 1612.73 Z" fill="#000000" fill-rule="evenodd" fill-opacity="1" /><path clip-path="url(#clip920)" d="M744.814 1620.09 L749.073 1620.09 L749.073 1646.01 L744.814 1646.01 L744.814 1620.09 M744.814 1609.99 L749.073 1609.99 L749.073 1615.39 L744.814 1615.39 L744.814 1609.99 Z" fill="#000000" fill-rule="evenodd" fill-opacity="1" /><path clip-path="url(#clip920)" d="M768.031 1623.07 Q764.606 1623.07 762.615 1625.76 Q760.624 1628.42 760.624 1633.07 Q760.624 1637.73 762.592 1640.41 Q764.582 1643.07 768.031 1643.07 Q771.434 1643.07 773.425 1640.39 Q775.416 1637.7 775.416 1633.07 Q775.416 1628.47 773.425 1625.78 Q771.434 1623.07 768.031 1623.07 M768.031 1619.46 Q773.587 1619.46 776.758 1623.07 Q779.93 1626.68 779.93 1633.07 Q779.93 1639.44 776.758 1643.07 Q773.587 1646.68 768.031 1646.68 Q762.453 1646.68 759.281 1643.07 Q756.133 1639.44 756.133 1633.07 Q756.133 1626.68 759.281 1623.07 Q762.453 1619.46 768.031 1619.46 Z" fill="#000000" fill-rule="evenodd" fill-opacity="1" /><path clip-path="url(#clip920)" d="M808.54 1630.36 L808.54 1646.01 L804.281 1646.01 L804.281 1630.5 Q804.281 1626.82 802.846 1624.99 Q801.411 1623.17 798.541 1623.17 Q795.091 1623.17 793.101 1625.36 Q791.11 1627.56 791.11 1631.36 L791.11 1646.01 L786.828 1646.01 L786.828 1620.09 L791.11 1620.09 L791.11 1624.11 Q792.638 1621.78 794.698 1620.62 Q796.781 1619.46 799.49 1619.46 Q803.957 1619.46 806.249 1622.24 Q808.54 1624.99 808.54 1630.36 Z" fill="#000000" fill-rule="evenodd" fill-opacity="1" /></svg>
