<?xml version="1.0" encoding="utf-8"?>
<svg xmlns="http://www.w3.org/2000/svg" xmlns:xlink="http://www.w3.org/1999/xlink" width="672" height="480" viewBox="0 0 2688 1920">
<defs>
  <clipPath id="clip770">
    <rect x="0" y="0" width="2688" height="1920"/>
  </clipPath>
</defs>
<path clip-path="url(#clip770)" d="
M0 1920 L2688 1920 L2688 0 L0 0  Z
  " fill="#ffffff" fill-rule="evenodd" fill-opacity="1"/>
<defs>
  <clipPath id="clip771">
    <rect x="537" y="0" width="1883" height="1883"/>
  </clipPath>
</defs>
<path clip-path="url(#clip770)" d="
M115.057 1800.78 L2640.76 1800.78 L2640.76 47.2441 L115.057 47.2441  Z
  " fill="#ffffff" fill-rule="evenodd" fill-opacity="1"/>
<defs>
  <clipPath id="clip772">
    <rect x="115" y="47" width="2527" height="1755"/>
  </clipPath>
</defs>
<polyline clip-path="url(#clip772)" style="stroke:#0000ff; stroke-linecap:butt; stroke-linejoin:round; stroke-width:4; stroke-opacity:0.5; fill:none" points="
  -642.652,1800.78 620.197,-1236.43 
  "/>
<polyline clip-path="url(#clip772)" style="stroke:#0000ff; stroke-linecap:butt; stroke-linejoin:round; stroke-width:4; stroke-opacity:0.5; fill:none" points="
  -1905.5,-1236.43 -642.652,1800.78 
  "/>
<polyline clip-path="url(#clip772)" style="stroke:#0000ff; stroke-linecap:butt; stroke-linejoin:round; stroke-width:4; stroke-opacity:0.5; fill:none" points="
  -390.083,1800.78 872.767,-1236.43 
  "/>
<polyline clip-path="url(#clip772)" style="stroke:#0000ff; stroke-linecap:butt; stroke-linejoin:round; stroke-width:4; stroke-opacity:0.5; fill:none" points="
  -1652.93,-1236.43 -390.083,1800.78 
  "/>
<polyline clip-path="url(#clip772)" style="stroke:#0000ff; stroke-linecap:butt; stroke-linejoin:round; stroke-width:4; stroke-opacity:0.5; fill:none" points="
  -137.513,1800.78 1125.34,-1236.43 
  "/>
<polyline clip-path="url(#clip772)" style="stroke:#0000ff; stroke-linecap:butt; stroke-linejoin:round; stroke-width:4; stroke-opacity:0.5; fill:none" points="
  -1400.36,-1236.43 -137.513,1800.78 
  "/>
<polyline clip-path="url(#clip772)" style="stroke:#0000ff; stroke-linecap:butt; stroke-linejoin:round; stroke-width:4; stroke-opacity:0.5; fill:none" points="
  115.057,1800.78 1377.91,-1236.43 
  "/>
<polyline clip-path="url(#clip772)" style="stroke:#0000ff; stroke-linecap:butt; stroke-linejoin:round; stroke-width:4; stroke-opacity:0.5; fill:none" points="
  -1147.79,-1236.43 115.057,1800.78 
  "/>
<polyline clip-path="url(#clip772)" style="stroke:#0000ff; stroke-linecap:butt; stroke-linejoin:round; stroke-width:4; stroke-opacity:0.5; fill:none" points="
  367.627,1800.78 1630.48,-1236.43 
  "/>
<polyline clip-path="url(#clip772)" style="stroke:#0000ff; stroke-linecap:butt; stroke-linejoin:round; stroke-width:4; stroke-opacity:0.5; fill:none" points="
  -895.222,-1236.43 367.627,1800.78 
  "/>
<polyline clip-path="url(#clip772)" style="stroke:#0000ff; stroke-linecap:butt; stroke-linejoin:round; stroke-width:4; stroke-opacity:0.5; fill:none" points="
  620.197,1800.78 1883.05,-1236.43 
  "/>
<polyline clip-path="url(#clip772)" style="stroke:#0000ff; stroke-linecap:butt; stroke-linejoin:round; stroke-width:4; stroke-opacity:0.5; fill:none" points="
  -642.652,-1236.43 620.197,1800.78 
  "/>
<polyline clip-path="url(#clip772)" style="stroke:#0000ff; stroke-linecap:butt; stroke-linejoin:round; stroke-width:4; stroke-opacity:0.5; fill:none" points="
  872.767,1800.78 2135.62,-1236.43 
  "/>
<polyline clip-path="url(#clip772)" style="stroke:#0000ff; stroke-linecap:butt; stroke-linejoin:round; stroke-width:4; stroke-opacity:0.5; fill:none" points="
  -390.083,-1236.43 872.767,1800.78 
  "/>
<polyline clip-path="url(#clip772)" style="stroke:#0000ff; stroke-linecap:butt; stroke-linejoin:round; stroke-width:4; stroke-opacity:0.5; fill:none" points="
  1125.34,1800.78 2388.19,-1236.43 
  "/>
<polyline clip-path="url(#clip772)" style="stroke:#0000ff; stroke-linecap:butt; stroke-linejoin:round; stroke-width:4; stroke-opacity:0.5; fill:none" points="
  -137.513,-1236.43 1125.34,1800.78 
  "/>
<polyline clip-path="url(#clip772)" style="stroke:#0000ff; stroke-linecap:butt; stroke-linejoin:round; stroke-width:4; stroke-opacity:0.5; fill:none" points="
  1377.91,1800.78 2640.76,-1236.43 
  "/>
<polyline clip-path="url(#clip772)" style="stroke:#0000ff; stroke-linecap:butt; stroke-linejoin:round; stroke-width:4; stroke-opacity:0.5; fill:none" points="
  115.057,-1236.43 1377.91,1800.78 
  "/>
<polyline clip-path="url(#clip772)" style="stroke:#0000ff; stroke-linecap:butt; stroke-linejoin:round; stroke-width:4; stroke-opacity:0.5; fill:none" points="
  1630.48,1800.78 2893.33,-1236.43 
  "/>
<polyline clip-path="url(#clip772)" style="stroke:#0000ff; stroke-linecap:butt; stroke-linejoin:round; stroke-width:4; stroke-opacity:0.5; fill:none" points="
  367.627,-1236.43 1630.48,1800.78 
  "/>
<polyline clip-path="url(#clip772)" style="stroke:#0000ff; stroke-linecap:butt; stroke-linejoin:round; stroke-width:4; stroke-opacity:0.5; fill:none" points="
  1883.05,1800.78 3145.9,-1236.43 
  "/>
<polyline clip-path="url(#clip772)" style="stroke:#0000ff; stroke-linecap:butt; stroke-linejoin:round; stroke-width:4; stroke-opacity:0.5; fill:none" points="
  620.197,-1236.43 1883.05,1800.78 
  "/>
<polyline clip-path="url(#clip772)" style="stroke:#0000ff; stroke-linecap:butt; stroke-linejoin:round; stroke-width:4; stroke-opacity:0.5; fill:none" points="
  2135.62,1800.78 3398.47,-1236.43 
  "/>
<polyline clip-path="url(#clip772)" style="stroke:#0000ff; stroke-linecap:butt; stroke-linejoin:round; stroke-width:4; stroke-opacity:0.5; fill:none" points="
  872.767,-1236.43 2135.62,1800.78 
  "/>
<polyline clip-path="url(#clip772)" style="stroke:#0000ff; stroke-linecap:butt; stroke-linejoin:round; stroke-width:4; stroke-opacity:0.5; fill:none" points="
  2388.19,1800.78 3651.04,-1236.43 
  "/>
<polyline clip-path="url(#clip772)" style="stroke:#0000ff; stroke-linecap:butt; stroke-linejoin:round; stroke-width:4; stroke-opacity:0.5; fill:none" points="
  1125.34,-1236.43 2388.19,1800.78 
  "/>
<polyline clip-path="url(#clip772)" style="stroke:#0000ff; stroke-linecap:butt; stroke-linejoin:round; stroke-width:4; stroke-opacity:0.5; fill:none" points="
  2640.76,1800.78 3903.61,-1236.43 
  "/>
<polyline clip-path="url(#clip772)" style="stroke:#0000ff; stroke-linecap:butt; stroke-linejoin:round; stroke-width:4; stroke-opacity:0.5; fill:none" points="
  1377.91,-1236.43 2640.76,1800.78 
  "/>
<polyline clip-path="url(#clip772)" style="stroke:#0000ff; stroke-linecap:butt; stroke-linejoin:round; stroke-width:4; stroke-opacity:0.5; fill:none" points="
  115.057,1497.06 2640.76,1497.06 
  "/>
<polyline clip-path="url(#clip772)" style="stroke:#0000ff; stroke-linecap:butt; stroke-linejoin:round; stroke-width:4; stroke-opacity:0.5; fill:none" points="
  115.057,1193.34 2640.76,1193.34 
  "/>
<polyline clip-path="url(#clip772)" style="stroke:#0000ff; stroke-linecap:butt; stroke-linejoin:round; stroke-width:4; stroke-opacity:0.5; fill:none" points="
  115.057,889.616 2640.76,889.616 
  "/>
<polyline clip-path="url(#clip772)" style="stroke:#0000ff; stroke-linecap:butt; stroke-linejoin:round; stroke-width:4; stroke-opacity:0.5; fill:none" points="
  115.057,585.894 2640.76,585.894 
  "/>
<polyline clip-path="url(#clip772)" style="stroke:#0000ff; stroke-linecap:butt; stroke-linejoin:round; stroke-width:4; stroke-opacity:0.5; fill:none" points="
  115.057,282.173 2640.76,282.173 
  "/>
<polyline clip-path="url(#clip772)" style="stroke:#0000ff; stroke-linecap:butt; stroke-linejoin:round; stroke-width:4; stroke-opacity:0.5; fill:none" points="
  115.057,-21.5479 2640.76,-21.5479 
  "/>
<polyline clip-path="url(#clip772)" style="stroke:#000000; stroke-linecap:butt; stroke-linejoin:round; stroke-width:20; stroke-opacity:1; fill:none" points="
  493.912,889.616 746.482,889.616 
  "/>
<polyline clip-path="url(#clip772)" style="stroke:#000000; stroke-linecap:butt; stroke-linejoin:round; stroke-width:20; stroke-opacity:1; fill:none" points="
  706.162,869.456 746.482,889.616 706.162,909.776 
  "/>
<polyline clip-path="url(#clip772)" style="stroke:#000000; stroke-linecap:butt; stroke-linejoin:round; stroke-width:20; stroke-opacity:1; fill:none" points="
  746.482,889.616 493.912,889.616 
  "/>
<polyline clip-path="url(#clip772)" style="stroke:#000000; stroke-linecap:butt; stroke-linejoin:round; stroke-width:20; stroke-opacity:1; fill:none" points="
  620.197,1193.34 746.482,1497.06 
  "/>
<polyline clip-path="url(#clip772)" style="stroke:#000000; stroke-linecap:butt; stroke-linejoin:round; stroke-width:20; stroke-opacity:1; fill:none" points="
  749.617,1452.09 746.482,1497.06 712.387,1467.57 
  "/>
<polyline clip-path="url(#clip772)" style="stroke:#000000; stroke-linecap:butt; stroke-linejoin:round; stroke-width:20; stroke-opacity:1; fill:none" points="
  746.482,1497.06 620.197,1193.34 
  "/>
<polyline clip-path="url(#clip772)" style="stroke:#000000; stroke-linecap:butt; stroke-linejoin:round; stroke-width:20; stroke-opacity:1; fill:none" points="
  1251.62,889.616 2009.33,889.616 
  "/>
<polyline clip-path="url(#clip772)" style="stroke:#000000; stroke-linecap:butt; stroke-linejoin:round; stroke-width:20; stroke-opacity:1; fill:none" points="
  1969.01,869.456 2009.33,889.616 1969.01,909.776 
  "/>
<polyline clip-path="url(#clip772)" style="stroke:#000000; stroke-linecap:butt; stroke-linejoin:round; stroke-width:20; stroke-opacity:1; fill:none" points="
  2009.33,889.616 1251.62,889.616 
  "/>
<polyline clip-path="url(#clip772)" style="stroke:#000000; stroke-linecap:butt; stroke-linejoin:round; stroke-width:20; stroke-opacity:1; fill:none" points="
  1125.34,1193.34 1504.19,1497.06 
  "/>
<polyline clip-path="url(#clip772)" style="stroke:#000000; stroke-linecap:butt; stroke-linejoin:round; stroke-width:20; stroke-opacity:1; fill:none" points="
  1485.34,1456.11 1504.19,1497.06 1460.12,1487.57 
  "/>
<polyline clip-path="url(#clip772)" style="stroke:#000000; stroke-linecap:butt; stroke-linejoin:round; stroke-width:20; stroke-opacity:1; fill:none" points="
  1504.19,1497.06 1125.34,1193.34 
  "/>
<polyline clip-path="url(#clip772)" style="stroke:#000000; stroke-linecap:butt; stroke-linejoin:round; stroke-width:20; stroke-opacity:1; fill:none" points="
  1756.76,1497.06 1883.05,1193.34 
  "/>
<polyline clip-path="url(#clip772)" style="stroke:#000000; stroke-linecap:butt; stroke-linejoin:round; stroke-width:20; stroke-opacity:1; fill:none" points="
  1848.95,1222.83 1883.05,1193.34 1886.18,1238.31 
  "/>
<polyline clip-path="url(#clip772)" style="stroke:#000000; stroke-linecap:butt; stroke-linejoin:round; stroke-width:20; stroke-opacity:1; fill:none" points="
  1883.05,1193.34 1756.76,1497.06 
  "/>
<path clip-path="url(#clip770)" d="M636.662 983.185 Q635.555 988.473 634.12 991.506 Q631.825 996.138 627.931 996.138 Q624.98 996.138 622.889 994.334 Q620.799 992.531 620.307 989.825 Q614.937 996.138 609.363 996.138 Q604.444 996.138 601.329 992.408 Q598.214 988.637 598.214 982.693 Q598.214 976.709 601.165 970.97 Q604.157 965.232 608.871 961.666 Q613.585 958.1 618.421 958.1 Q623.545 958.1 626.168 963.469 Q626.373 961.994 627.316 960.887 Q628.259 959.78 629.693 959.78 Q630.8 959.78 631.456 960.395 Q632.112 960.969 632.112 962.035 Q632.112 962.567 631.538 964.904 L628.505 976.627 L626.66 984.21 Q625.963 986.997 625.758 988.022 Q625.595 989.047 625.595 990.399 Q625.595 994.252 628.095 994.252 Q629.325 994.252 630.308 993.473 Q631.292 992.695 632.071 991.055 Q632.85 989.415 633.342 987.899 Q633.833 986.341 634.489 983.882 Q634.694 982.898 634.858 982.652 Q635.063 982.365 635.637 982.365 Q636.662 982.365 636.662 983.185 M625.144 967.322 Q625.144 966.953 624.857 965.929 Q624.57 964.904 623.914 963.469 Q623.258 962.035 621.824 961.01 Q620.43 959.944 618.544 959.944 Q616.003 959.944 613.339 962.117 Q610.715 964.289 608.789 967.978 Q607.313 970.929 605.715 977.119 Q604.157 983.308 604.157 986.382 Q604.157 988.268 604.567 989.948 Q605.018 991.588 606.289 992.941 Q607.559 994.252 609.527 994.252 Q614.322 994.252 619.036 988.309 Q619.938 987.284 620.143 986.874 Q620.389 986.423 620.717 985.194 L624.898 968.757 Q625.144 967.527 625.144 967.322 Z" fill="#000000" fill-rule="evenodd" fill-opacity="1" /><path clip-path="url(#clip770)" d="M696.423 1198.02 Q696.423 1203.92 693.431 1209.7 Q690.48 1215.44 685.725 1219.05 Q681.011 1222.66 676.175 1222.66 Q671.461 1222.66 668.469 1219.05 Q665.517 1215.4 665.517 1209.46 Q665.517 1207.37 665.763 1205.89 Q666.009 1204.42 666.87 1200.97 L673.756 1173.59 Q674.945 1168.47 674.945 1168.43 Q674.945 1167.94 674.74 1167.69 Q674.576 1167.4 673.592 1167.2 Q672.608 1166.99 670.723 1166.99 Q669.944 1166.99 669.575 1166.95 Q669.247 1166.91 668.96 1166.71 Q668.715 1166.46 668.715 1165.97 Q668.715 1165.27 669.001 1164.9 Q669.329 1164.49 669.575 1164.41 Q669.821 1164.33 670.313 1164.29 Q671.01 1164.25 673.346 1164.04 Q675.683 1163.8 677.691 1163.63 Q679.7 1163.47 680.56 1163.47 Q681.052 1163.47 681.298 1163.71 Q681.585 1163.92 681.585 1164.16 L681.626 1164.37 L675.437 1189.66 Q680.314 1184.62 685.274 1184.62 Q690.234 1184.62 693.308 1188.43 Q696.423 1192.24 696.423 1198.02 M690.357 1194.33 Q690.357 1190.44 688.881 1188.47 Q687.447 1186.46 685.069 1186.46 Q683.061 1186.46 680.437 1187.98 Q677.814 1189.5 675.027 1193.18 Q674.494 1193.88 674.289 1194.29 Q674.125 1194.7 673.756 1196.09 L671.912 1203.84 Q670.559 1209.13 670.559 1212.33 Q670.559 1216.67 672.158 1218.72 Q673.756 1220.77 676.175 1220.77 Q678.716 1220.77 681.38 1218.52 Q684.044 1216.26 686.094 1212.16 Q687.365 1209.46 688.84 1203.64 Q690.357 1197.78 690.357 1194.33 Z" fill="#000000" fill-rule="evenodd" fill-opacity="1" /><path clip-path="url(#clip770)" d="M1644.83 985.48 Q1645.16 985.849 1645.16 986.218 Q1645.16 986.587 1644.34 987.653 Q1643.56 988.719 1641.88 990.153 Q1640.2 991.588 1638.03 992.941 Q1635.86 994.293 1632.66 995.195 Q1629.46 996.138 1626.1 996.138 Q1619.83 996.138 1616.14 991.998 Q1612.49 987.858 1612.49 981.914 Q1612.49 976.135 1615.73 970.601 Q1618.97 965.027 1624.21 961.584 Q1629.46 958.1 1635 958.1 Q1639.38 958.1 1642.13 960.149 Q1644.87 962.199 1644.87 965.314 Q1644.87 967.732 1643.48 969.208 Q1642.09 970.683 1640.2 970.683 Q1638.89 970.683 1637.99 969.946 Q1637.09 969.167 1637.09 967.732 Q1637.09 965.888 1638.6 964.453 Q1639.18 963.879 1639.83 963.633 Q1640.53 963.346 1640.94 963.346 Q1641.35 963.305 1642.29 963.305 Q1641.43 961.707 1639.38 960.846 Q1637.37 959.944 1635.08 959.944 Q1631.67 959.944 1628.44 962.322 Q1625.2 964.658 1623.23 968.347 Q1621.26 971.954 1619.99 977.078 Q1618.72 982.16 1618.72 985.112 Q1618.72 989.17 1620.61 991.711 Q1622.49 994.252 1626.26 994.252 Q1627 994.252 1627.78 994.211 Q1628.6 994.17 1630.65 993.719 Q1632.74 993.268 1634.59 992.49 Q1636.43 991.711 1638.77 990.03 Q1641.14 988.309 1643.03 985.972 Q1643.68 985.112 1644.14 985.112 Q1644.5 985.112 1644.83 985.48 Z" fill="#000000" fill-rule="evenodd" fill-opacity="1" /><path clip-path="url(#clip770)" d="M1333.13 1403.91 L1321.04 1452.44 Q1320.55 1454.61 1320.55 1456.45 Q1320.55 1460.31 1323.05 1460.31 Q1324.28 1460.31 1325.26 1459.53 Q1326.24 1458.75 1327.02 1457.11 Q1327.8 1455.47 1328.29 1453.95 Q1328.79 1452.4 1329.44 1449.94 Q1329.65 1448.95 1329.81 1448.71 Q1330.02 1448.42 1330.59 1448.42 Q1331.61 1448.42 1331.61 1449.24 Q1330.51 1454.53 1329.07 1457.56 Q1326.78 1462.19 1322.88 1462.19 Q1319.93 1462.19 1317.84 1460.39 Q1315.75 1458.59 1315.26 1455.88 Q1309.89 1462.19 1304.32 1462.19 Q1299.4 1462.19 1296.28 1458.46 Q1293.17 1454.69 1293.17 1448.75 Q1293.17 1442.76 1296.12 1437.03 Q1299.11 1431.29 1303.82 1427.72 Q1308.54 1424.16 1313.37 1424.16 Q1318.5 1424.16 1321.12 1429.52 L1326.16 1409.6 L1326.41 1407.96 Q1326.41 1407.47 1326.2 1407.23 Q1326.04 1406.94 1325.06 1406.73 Q1324.11 1406.53 1322.23 1406.53 Q1321.45 1406.53 1321.08 1406.49 Q1320.75 1406.45 1320.47 1406.24 Q1320.18 1406 1320.18 1405.51 Q1320.18 1404.07 1321.37 1403.91 Q1329.24 1403 1332.02 1403 Q1332.52 1403 1332.8 1403.25 Q1333.09 1403.46 1333.09 1403.7 L1333.13 1403.91 M1320.1 1433.38 Q1320.1 1433.01 1319.81 1431.98 Q1319.52 1430.96 1318.87 1429.52 Q1318.21 1428.09 1316.78 1427.07 Q1315.38 1426 1313.5 1426 Q1310.96 1426 1308.29 1428.17 Q1305.67 1430.34 1303.74 1434.03 Q1302.27 1436.98 1300.67 1443.17 Q1299.11 1449.36 1299.11 1452.44 Q1299.11 1454.32 1299.52 1456 Q1299.97 1457.64 1301.24 1459 Q1302.51 1460.31 1304.48 1460.31 Q1309.28 1460.31 1313.99 1454.36 Q1314.89 1453.34 1315.1 1452.93 Q1315.34 1452.48 1315.67 1451.25 L1319.85 1434.81 Q1320.1 1433.58 1320.1 1433.38 Z" fill="#000000" fill-rule="evenodd" fill-opacity="1" /><path clip-path="url(#clip770)" d="M1895.61 1441.06 Q1895.94 1441.43 1895.94 1441.8 Q1895.94 1442.17 1895.12 1443.23 Q1894.34 1444.3 1892.66 1445.74 Q1890.98 1447.17 1888.81 1448.52 Q1886.64 1449.87 1883.44 1450.78 Q1880.24 1451.72 1876.88 1451.72 Q1870.85 1451.72 1867.25 1447.42 Q1863.68 1443.11 1863.68 1436.51 Q1863.68 1432.29 1865.08 1428.56 Q1866.47 1424.79 1868.72 1422.13 Q1871.02 1419.46 1873.89 1417.53 Q1876.8 1415.57 1879.83 1414.62 Q1882.86 1413.68 1885.69 1413.68 Q1889.83 1413.68 1892.25 1415.77 Q1894.67 1417.86 1894.67 1420.81 Q1894.67 1421.51 1894.46 1422.37 Q1894.3 1423.23 1893.73 1424.58 Q1893.19 1425.94 1891.8 1427.29 Q1890.41 1428.6 1888.36 1429.46 Q1883.81 1431.39 1875.53 1431.39 L1871.06 1431.39 Q1869.75 1436.68 1869.75 1440.12 Q1869.75 1441.47 1869.99 1442.87 Q1870.24 1444.22 1870.9 1445.94 Q1871.59 1447.66 1873.15 1448.77 Q1874.75 1449.83 1877.04 1449.83 Q1877.78 1449.83 1878.56 1449.79 Q1879.38 1449.75 1881.43 1449.3 Q1883.52 1448.85 1885.36 1448.07 Q1887.21 1447.29 1889.55 1445.61 Q1891.92 1443.89 1893.81 1441.55 Q1894.46 1440.69 1894.92 1440.69 Q1895.28 1440.69 1895.61 1441.06 M1891.88 1420.81 Q1891.88 1418.56 1890.2 1417.04 Q1888.56 1415.53 1885.69 1415.53 Q1884.79 1415.53 1883.68 1415.73 Q1882.58 1415.94 1880.73 1416.8 Q1878.93 1417.66 1877.33 1419.09 Q1875.73 1420.49 1874.13 1423.23 Q1872.54 1425.94 1871.59 1429.54 L1875.04 1429.54 Q1876.22 1429.54 1877.09 1429.54 Q1877.95 1429.5 1879.83 1429.34 Q1881.76 1429.18 1883.15 1428.89 Q1884.55 1428.56 1886.31 1427.9 Q1888.07 1427.25 1889.18 1426.39 Q1890.32 1425.49 1891.1 1424.05 Q1891.88 1422.62 1891.88 1420.81 Z" fill="#000000" fill-rule="evenodd" fill-opacity="1" /></svg>
