<?xml version="1.0" encoding="utf-8"?>
<svg xmlns="http://www.w3.org/2000/svg" xmlns:xlink="http://www.w3.org/1999/xlink" width="672" height="480" viewBox="0 0 2688 1920">
<defs>
  <clipPath id="clip540">
    <rect x="0" y="0" width="2688" height="1920"/>
  </clipPath>
</defs>
<path clip-path="url(#clip540)" d="
M0 1920 L2688 1920 L2688 0 L0 0  Z
  " fill="#ffffff" fill-rule="evenodd" fill-opacity="1"/>
<defs>
  <clipPath id="clip541">
    <rect x="537" y="0" width="1883" height="1883"/>
  </clipPath>
</defs>
<path clip-path="url(#clip540)" d="
M150.937 1800.78 L2640.76 1800.78 L2640.76 47.2441 L150.937 47.2441  Z
  " fill="#ffffff" fill-rule="evenodd" fill-opacity="1"/>
<defs>
  <clipPath id="clip542">
    <rect x="150" y="47" width="2491" height="1755"/>
  </clipPath>
</defs>
<polyline clip-path="url(#clip542)" style="stroke:#000000; stroke-linecap:butt; stroke-linejoin:round; stroke-width:2; stroke-opacity:0.1; fill:none" points="
  221.403,1800.78 221.403,47.2441 
  "/>
<polyline clip-path="url(#clip542)" style="stroke:#000000; stroke-linecap:butt; stroke-linejoin:round; stroke-width:2; stroke-opacity:0.1; fill:none" points="
  612.884,1800.78 612.884,47.2441 
  "/>
<polyline clip-path="url(#clip542)" style="stroke:#000000; stroke-linecap:butt; stroke-linejoin:round; stroke-width:2; stroke-opacity:0.1; fill:none" points="
  1004.37,1800.78 1004.37,47.2441 
  "/>
<polyline clip-path="url(#clip542)" style="stroke:#000000; stroke-linecap:butt; stroke-linejoin:round; stroke-width:2; stroke-opacity:0.1; fill:none" points="
  1395.85,1800.78 1395.85,47.2441 
  "/>
<polyline clip-path="url(#clip542)" style="stroke:#000000; stroke-linecap:butt; stroke-linejoin:round; stroke-width:2; stroke-opacity:0.1; fill:none" points="
  1787.33,1800.78 1787.33,47.2441 
  "/>
<polyline clip-path="url(#clip542)" style="stroke:#000000; stroke-linecap:butt; stroke-linejoin:round; stroke-width:2; stroke-opacity:0.1; fill:none" points="
  2178.81,1800.78 2178.81,47.2441 
  "/>
<polyline clip-path="url(#clip542)" style="stroke:#000000; stroke-linecap:butt; stroke-linejoin:round; stroke-width:2; stroke-opacity:0.1; fill:none" points="
  2570.29,1800.78 2570.29,47.2441 
  "/>
<polyline clip-path="url(#clip540)" style="stroke:#000000; stroke-linecap:butt; stroke-linejoin:round; stroke-width:4; stroke-opacity:1; fill:none" points="
  150.937,1800.78 2640.76,1800.78 
  "/>
<polyline clip-path="url(#clip540)" style="stroke:#000000; stroke-linecap:butt; stroke-linejoin:round; stroke-width:4; stroke-opacity:1; fill:none" points="
  221.403,1800.78 221.403,1781.88 
  "/>
<polyline clip-path="url(#clip540)" style="stroke:#000000; stroke-linecap:butt; stroke-linejoin:round; stroke-width:4; stroke-opacity:1; fill:none" points="
  612.884,1800.78 612.884,1781.88 
  "/>
<polyline clip-path="url(#clip540)" style="stroke:#000000; stroke-linecap:butt; stroke-linejoin:round; stroke-width:4; stroke-opacity:1; fill:none" points="
  1004.37,1800.78 1004.37,1781.88 
  "/>
<polyline clip-path="url(#clip540)" style="stroke:#000000; stroke-linecap:butt; stroke-linejoin:round; stroke-width:4; stroke-opacity:1; fill:none" points="
  1395.85,1800.78 1395.85,1781.88 
  "/>
<polyline clip-path="url(#clip540)" style="stroke:#000000; stroke-linecap:butt; stroke-linejoin:round; stroke-width:4; stroke-opacity:1; fill:none" points="
  1787.33,1800.78 1787.33,1781.88 
  "/>
<polyline clip-path="url(#clip540)" style="stroke:#000000; stroke-linecap:butt; stroke-linejoin:round; stroke-width:4; stroke-opacity:1; fill:none" points="
  2178.81,1800.78 2178.81,1781.88 
  "/>
<polyline clip-path="url(#clip540)" style="stroke:#000000; stroke-linecap:butt; stroke-linejoin:round; stroke-width:4; stroke-opacity:1; fill:none" points="
  2570.29,1800.78 2570.29,1781.88 
  "/>
<path clip-path="url(#clip540)" d="M168.429 1848.65 L198.105 1848.65 L198.105 1852.59 L168.429 1852.59 L168.429 1848.65 Z" fill="#000000" fill-rule="evenodd" fill-opacity="1" /><path clip-path="url(#clip540)" d="M209.007 1861.55 L216.646 1861.55 L216.646 1835.18 L208.336 1836.85 L208.336 1832.59 L216.6 1830.92 L221.276 1830.92 L221.276 1861.55 L228.915 1861.55 L228.915 1865.48 L209.007 1865.48 L209.007 1861.55 Z" fill="#000000" fill-rule="evenodd" fill-opacity="1" /><path clip-path="url(#clip540)" d="M238.359 1859.6 L243.243 1859.6 L243.243 1865.48 L238.359 1865.48 L238.359 1859.6 Z" fill="#000000" fill-rule="evenodd" fill-opacity="1" /><path clip-path="url(#clip540)" d="M253.475 1830.92 L271.831 1830.92 L271.831 1834.86 L257.757 1834.86 L257.757 1843.33 Q258.776 1842.98 259.794 1842.82 Q260.813 1842.64 261.831 1842.64 Q267.618 1842.64 270.998 1845.81 Q274.377 1848.98 274.377 1854.4 Q274.377 1859.97 270.905 1863.08 Q267.433 1866.15 261.114 1866.15 Q258.938 1866.15 256.669 1865.78 Q254.424 1865.41 252.016 1864.67 L252.016 1859.97 Q254.1 1861.11 256.322 1861.66 Q258.544 1862.22 261.021 1862.22 Q265.026 1862.22 267.364 1860.11 Q269.702 1858.01 269.702 1854.4 Q269.702 1850.78 267.364 1848.68 Q265.026 1846.57 261.021 1846.57 Q259.146 1846.57 257.271 1846.99 Q255.419 1847.4 253.475 1848.28 L253.475 1830.92 Z" fill="#000000" fill-rule="evenodd" fill-opacity="1" /><path clip-path="url(#clip540)" d="M559.412 1848.65 L589.088 1848.65 L589.088 1852.59 L559.412 1852.59 L559.412 1848.65 Z" fill="#000000" fill-rule="evenodd" fill-opacity="1" /><path clip-path="url(#clip540)" d="M599.991 1861.55 L607.63 1861.55 L607.63 1835.18 L599.319 1836.85 L599.319 1832.59 L607.583 1830.92 L612.259 1830.92 L612.259 1861.55 L619.898 1861.55 L619.898 1865.48 L599.991 1865.48 L599.991 1861.55 Z" fill="#000000" fill-rule="evenodd" fill-opacity="1" /><path clip-path="url(#clip540)" d="M629.342 1859.6 L634.227 1859.6 L634.227 1865.48 L629.342 1865.48 L629.342 1859.6 Z" fill="#000000" fill-rule="evenodd" fill-opacity="1" /><path clip-path="url(#clip540)" d="M654.412 1834 Q650.801 1834 648.972 1837.57 Q647.166 1841.11 647.166 1848.24 Q647.166 1855.34 648.972 1858.91 Q650.801 1862.45 654.412 1862.45 Q658.046 1862.45 659.852 1858.91 Q661.68 1855.34 661.68 1848.24 Q661.68 1841.11 659.852 1837.57 Q658.046 1834 654.412 1834 M654.412 1830.3 Q660.222 1830.3 663.277 1834.9 Q666.356 1839.49 666.356 1848.24 Q666.356 1856.96 663.277 1861.57 Q660.222 1866.15 654.412 1866.15 Q648.602 1866.15 645.523 1861.57 Q642.467 1856.96 642.467 1848.24 Q642.467 1839.49 645.523 1834.9 Q648.602 1830.3 654.412 1830.3 Z" fill="#000000" fill-rule="evenodd" fill-opacity="1" /><path clip-path="url(#clip540)" d="M951.391 1848.65 L981.067 1848.65 L981.067 1852.59 L951.391 1852.59 L951.391 1848.65 Z" fill="#000000" fill-rule="evenodd" fill-opacity="1" /><path clip-path="url(#clip540)" d="M1001.16 1834 Q997.548 1834 995.719 1837.57 Q993.914 1841.11 993.914 1848.24 Q993.914 1855.34 995.719 1858.91 Q997.548 1862.45 1001.16 1862.45 Q1004.79 1862.45 1006.6 1858.91 Q1008.43 1855.34 1008.43 1848.24 Q1008.43 1841.11 1006.6 1837.57 Q1004.79 1834 1001.16 1834 M1001.16 1830.3 Q1006.97 1830.3 1010.02 1834.9 Q1013.1 1839.49 1013.1 1848.24 Q1013.1 1856.96 1010.02 1861.57 Q1006.97 1866.15 1001.16 1866.15 Q995.349 1866.15 992.27 1861.57 Q989.215 1856.96 989.215 1848.24 Q989.215 1839.49 992.27 1834.9 Q995.349 1830.3 1001.16 1830.3 Z" fill="#000000" fill-rule="evenodd" fill-opacity="1" /><path clip-path="url(#clip540)" d="M1021.32 1859.6 L1026.21 1859.6 L1026.21 1865.48 L1021.32 1865.48 L1021.32 1859.6 Z" fill="#000000" fill-rule="evenodd" fill-opacity="1" /><path clip-path="url(#clip540)" d="M1036.44 1830.92 L1054.79 1830.92 L1054.79 1834.86 L1040.72 1834.86 L1040.72 1843.33 Q1041.74 1842.98 1042.76 1842.82 Q1043.77 1842.64 1044.79 1842.64 Q1050.58 1842.64 1053.96 1845.81 Q1057.34 1848.98 1057.34 1854.4 Q1057.34 1859.97 1053.87 1863.08 Q1050.4 1866.15 1044.08 1866.15 Q1041.9 1866.15 1039.63 1865.78 Q1037.39 1865.41 1034.98 1864.67 L1034.98 1859.97 Q1037.06 1861.11 1039.28 1861.66 Q1041.51 1862.22 1043.98 1862.22 Q1047.99 1862.22 1050.33 1860.11 Q1052.66 1858.01 1052.66 1854.4 Q1052.66 1850.78 1050.33 1848.68 Q1047.99 1846.57 1043.98 1846.57 Q1042.11 1846.57 1040.23 1846.99 Q1038.38 1847.4 1036.44 1848.28 L1036.44 1830.92 Z" fill="#000000" fill-rule="evenodd" fill-opacity="1" /><path clip-path="url(#clip540)" d="M1373.23 1834 Q1369.62 1834 1367.79 1837.57 Q1365.99 1841.11 1365.99 1848.24 Q1365.99 1855.34 1367.79 1858.91 Q1369.62 1862.45 1373.23 1862.45 Q1376.86 1862.45 1378.67 1858.91 Q1380.5 1855.34 1380.5 1848.24 Q1380.5 1841.11 1378.67 1837.57 Q1376.86 1834 1373.23 1834 M1373.23 1830.3 Q1379.04 1830.3 1382.1 1834.9 Q1385.18 1839.49 1385.18 1848.24 Q1385.18 1856.96 1382.1 1861.57 Q1379.04 1866.15 1373.23 1866.15 Q1367.42 1866.15 1364.34 1861.57 Q1361.29 1856.96 1361.29 1848.24 Q1361.29 1839.49 1364.34 1834.9 Q1367.42 1830.3 1373.23 1830.3 Z" fill="#000000" fill-rule="evenodd" fill-opacity="1" /><path clip-path="url(#clip540)" d="M1393.39 1859.6 L1398.28 1859.6 L1398.28 1865.48 L1393.39 1865.48 L1393.39 1859.6 Z" fill="#000000" fill-rule="evenodd" fill-opacity="1" /><path clip-path="url(#clip540)" d="M1418.46 1834 Q1414.85 1834 1413.02 1837.57 Q1411.22 1841.11 1411.22 1848.24 Q1411.22 1855.34 1413.02 1858.91 Q1414.85 1862.45 1418.46 1862.45 Q1422.1 1862.45 1423.9 1858.91 Q1425.73 1855.34 1425.73 1848.24 Q1425.73 1841.11 1423.9 1837.57 Q1422.1 1834 1418.46 1834 M1418.46 1830.3 Q1424.27 1830.3 1427.33 1834.9 Q1430.41 1839.49 1430.41 1848.24 Q1430.41 1856.96 1427.33 1861.57 Q1424.27 1866.15 1418.46 1866.15 Q1412.65 1866.15 1409.57 1861.57 Q1406.52 1856.96 1406.52 1848.24 Q1406.52 1839.49 1409.57 1834.9 Q1412.65 1830.3 1418.46 1830.3 Z" fill="#000000" fill-rule="evenodd" fill-opacity="1" /><path clip-path="url(#clip540)" d="M1765.21 1834 Q1761.6 1834 1759.77 1837.57 Q1757.96 1841.11 1757.96 1848.24 Q1757.96 1855.34 1759.77 1858.91 Q1761.6 1862.45 1765.21 1862.45 Q1768.84 1862.45 1770.65 1858.91 Q1772.48 1855.34 1772.48 1848.24 Q1772.48 1841.11 1770.65 1837.57 Q1768.84 1834 1765.21 1834 M1765.21 1830.3 Q1771.02 1830.3 1774.08 1834.9 Q1777.15 1839.49 1777.15 1848.24 Q1777.15 1856.96 1774.08 1861.57 Q1771.02 1866.15 1765.21 1866.15 Q1759.4 1866.15 1756.32 1861.57 Q1753.26 1856.96 1753.26 1848.24 Q1753.26 1839.49 1756.32 1834.9 Q1759.4 1830.3 1765.21 1830.3 Z" fill="#000000" fill-rule="evenodd" fill-opacity="1" /><path clip-path="url(#clip540)" d="M1785.37 1859.6 L1790.26 1859.6 L1790.26 1865.48 L1785.37 1865.48 L1785.37 1859.6 Z" fill="#000000" fill-rule="evenodd" fill-opacity="1" /><path clip-path="url(#clip540)" d="M1800.49 1830.92 L1818.84 1830.92 L1818.84 1834.86 L1804.77 1834.86 L1804.77 1843.33 Q1805.79 1842.98 1806.81 1842.82 Q1807.82 1842.64 1808.84 1842.64 Q1814.63 1842.64 1818.01 1845.81 Q1821.39 1848.98 1821.39 1854.4 Q1821.39 1859.97 1817.92 1863.08 Q1814.45 1866.15 1808.13 1866.15 Q1805.95 1866.15 1803.68 1865.78 Q1801.44 1865.41 1799.03 1864.67 L1799.03 1859.97 Q1801.11 1861.11 1803.33 1861.66 Q1805.56 1862.22 1808.03 1862.22 Q1812.04 1862.22 1814.38 1860.11 Q1816.71 1858.01 1816.71 1854.4 Q1816.71 1850.78 1814.38 1848.68 Q1812.04 1846.57 1808.03 1846.57 Q1806.16 1846.57 1804.28 1846.99 Q1802.43 1847.4 1800.49 1848.28 L1800.49 1830.92 Z" fill="#000000" fill-rule="evenodd" fill-opacity="1" /><path clip-path="url(#clip540)" d="M2145.96 1861.55 L2153.6 1861.55 L2153.6 1835.18 L2145.29 1836.85 L2145.29 1832.59 L2153.55 1830.92 L2158.23 1830.92 L2158.23 1861.55 L2165.87 1861.55 L2165.87 1865.48 L2145.96 1865.48 L2145.96 1861.55 Z" fill="#000000" fill-rule="evenodd" fill-opacity="1" /><path clip-path="url(#clip540)" d="M2175.31 1859.6 L2180.2 1859.6 L2180.2 1865.48 L2175.31 1865.48 L2175.31 1859.6 Z" fill="#000000" fill-rule="evenodd" fill-opacity="1" /><path clip-path="url(#clip540)" d="M2200.38 1834 Q2196.77 1834 2194.94 1837.57 Q2193.14 1841.11 2193.14 1848.24 Q2193.14 1855.34 2194.94 1858.91 Q2196.77 1862.45 2200.38 1862.45 Q2204.02 1862.45 2205.82 1858.91 Q2207.65 1855.34 2207.65 1848.24 Q2207.65 1841.11 2205.82 1837.57 Q2204.02 1834 2200.38 1834 M2200.38 1830.3 Q2206.19 1830.3 2209.25 1834.9 Q2212.33 1839.49 2212.33 1848.24 Q2212.33 1856.96 2209.25 1861.57 Q2206.19 1866.15 2200.38 1866.15 Q2194.57 1866.15 2191.49 1861.57 Q2188.44 1856.96 2188.44 1848.24 Q2188.44 1839.49 2191.49 1834.9 Q2194.57 1830.3 2200.38 1830.3 Z" fill="#000000" fill-rule="evenodd" fill-opacity="1" /><path clip-path="url(#clip540)" d="M2537.94 1861.55 L2545.58 1861.55 L2545.58 1835.18 L2537.27 1836.85 L2537.27 1832.59 L2545.53 1830.92 L2550.21 1830.92 L2550.21 1861.55 L2557.85 1861.55 L2557.85 1865.48 L2537.94 1865.48 L2537.94 1861.55 Z" fill="#000000" fill-rule="evenodd" fill-opacity="1" /><path clip-path="url(#clip540)" d="M2567.29 1859.6 L2572.18 1859.6 L2572.18 1865.48 L2567.29 1865.48 L2567.29 1859.6 Z" fill="#000000" fill-rule="evenodd" fill-opacity="1" /><path clip-path="url(#clip540)" d="M2582.41 1830.92 L2600.76 1830.92 L2600.76 1834.86 L2586.69 1834.86 L2586.69 1843.33 Q2587.71 1842.98 2588.73 1842.82 Q2589.75 1842.64 2590.76 1842.64 Q2596.55 1842.64 2599.93 1845.81 Q2603.31 1848.98 2603.31 1854.4 Q2603.31 1859.97 2599.84 1863.08 Q2596.37 1866.15 2590.05 1866.15 Q2587.87 1866.15 2585.6 1865.78 Q2583.36 1865.41 2580.95 1864.67 L2580.95 1859.97 Q2583.03 1861.11 2585.25 1861.66 Q2587.48 1862.22 2589.95 1862.22 Q2593.96 1862.22 2596.3 1860.11 Q2598.63 1858.01 2598.63 1854.4 Q2598.63 1850.78 2596.3 1848.68 Q2593.96 1846.57 2589.95 1846.57 Q2588.08 1846.57 2586.2 1846.99 Q2584.35 1847.4 2582.41 1848.28 L2582.41 1830.92 Z" fill="#000000" fill-rule="evenodd" fill-opacity="1" /><polyline clip-path="url(#clip542)" style="stroke:#000000; stroke-linecap:butt; stroke-linejoin:round; stroke-width:2; stroke-opacity:0.1; fill:none" points="
  150.937,1751.15 2640.76,1751.15 
  "/>
<polyline clip-path="url(#clip542)" style="stroke:#000000; stroke-linecap:butt; stroke-linejoin:round; stroke-width:2; stroke-opacity:0.1; fill:none" points="
  150.937,1337.58 2640.76,1337.58 
  "/>
<polyline clip-path="url(#clip542)" style="stroke:#000000; stroke-linecap:butt; stroke-linejoin:round; stroke-width:2; stroke-opacity:0.1; fill:none" points="
  150.937,924.012 2640.76,924.012 
  "/>
<polyline clip-path="url(#clip542)" style="stroke:#000000; stroke-linecap:butt; stroke-linejoin:round; stroke-width:2; stroke-opacity:0.1; fill:none" points="
  150.937,510.442 2640.76,510.442 
  "/>
<polyline clip-path="url(#clip542)" style="stroke:#000000; stroke-linecap:butt; stroke-linejoin:round; stroke-width:2; stroke-opacity:0.1; fill:none" points="
  150.937,96.8724 2640.76,96.8724 
  "/>
<polyline clip-path="url(#clip540)" style="stroke:#000000; stroke-linecap:butt; stroke-linejoin:round; stroke-width:4; stroke-opacity:1; fill:none" points="
  150.937,1800.78 150.937,47.2441 
  "/>
<polyline clip-path="url(#clip540)" style="stroke:#000000; stroke-linecap:butt; stroke-linejoin:round; stroke-width:4; stroke-opacity:1; fill:none" points="
  150.937,1751.15 169.834,1751.15 
  "/>
<polyline clip-path="url(#clip540)" style="stroke:#000000; stroke-linecap:butt; stroke-linejoin:round; stroke-width:4; stroke-opacity:1; fill:none" points="
  150.937,1337.58 169.834,1337.58 
  "/>
<polyline clip-path="url(#clip540)" style="stroke:#000000; stroke-linecap:butt; stroke-linejoin:round; stroke-width:4; stroke-opacity:1; fill:none" points="
  150.937,924.012 169.834,924.012 
  "/>
<polyline clip-path="url(#clip540)" style="stroke:#000000; stroke-linecap:butt; stroke-linejoin:round; stroke-width:4; stroke-opacity:1; fill:none" points="
  150.937,510.442 169.834,510.442 
  "/>
<polyline clip-path="url(#clip540)" style="stroke:#000000; stroke-linecap:butt; stroke-linejoin:round; stroke-width:4; stroke-opacity:1; fill:none" points="
  150.937,96.8724 169.834,96.8724 
  "/>
<path clip-path="url(#clip540)" d="M49.5521 1751.6 L79.2279 1751.6 L79.2279 1755.54 L49.5521 1755.54 L49.5521 1751.6 Z" fill="#000000" fill-rule="evenodd" fill-opacity="1" /><path clip-path="url(#clip540)" d="M103.487 1749.8 Q106.843 1750.51 108.718 1752.78 Q110.617 1755.05 110.617 1758.38 Q110.617 1763.5 107.098 1766.3 Q103.58 1769.1 97.0982 1769.1 Q94.9223 1769.1 92.6075 1768.66 Q90.3158 1768.25 87.8621 1767.39 L87.8621 1762.88 Q89.8065 1764.01 92.1213 1764.59 Q94.4361 1765.17 96.9593 1765.17 Q101.357 1765.17 103.649 1763.43 Q105.964 1761.69 105.964 1758.38 Q105.964 1755.33 103.811 1753.62 Q101.681 1751.88 97.8621 1751.88 L93.8343 1751.88 L93.8343 1748.04 L98.0472 1748.04 Q101.496 1748.04 103.325 1746.67 Q105.154 1745.28 105.154 1742.69 Q105.154 1740.03 103.256 1738.62 Q101.381 1737.18 97.8621 1737.18 Q95.9408 1737.18 93.7417 1737.6 Q91.5426 1738.01 88.9038 1738.89 L88.9038 1734.73 Q91.5658 1733.99 93.8806 1733.62 Q96.2185 1733.25 98.2787 1733.25 Q103.603 1733.25 106.705 1735.68 Q109.806 1738.08 109.806 1742.2 Q109.806 1745.07 108.163 1747.07 Q106.519 1749.03 103.487 1749.8 Z" fill="#000000" fill-rule="evenodd" fill-opacity="1" /><path clip-path="url(#clip540)" d="M50.5012 1338.03 L80.177 1338.03 L80.177 1341.97 L50.5012 1341.97 L50.5012 1338.03 Z" fill="#000000" fill-rule="evenodd" fill-opacity="1" /><path clip-path="url(#clip540)" d="M94.2973 1350.93 L110.617 1350.93 L110.617 1354.86 L88.6723 1354.86 L88.6723 1350.93 Q91.3343 1348.17 95.9176 1343.54 Q100.524 1338.89 101.705 1337.55 Q103.95 1335.02 104.83 1333.29 Q105.732 1331.53 105.732 1329.84 Q105.732 1327.08 103.788 1325.35 Q101.867 1323.61 98.7648 1323.61 Q96.5658 1323.61 94.1121 1324.38 Q91.6815 1325.14 88.9038 1326.69 L88.9038 1321.97 Q91.7278 1320.83 94.1815 1320.26 Q96.6352 1319.68 98.6722 1319.68 Q104.043 1319.68 107.237 1322.36 Q110.431 1325.05 110.431 1329.54 Q110.431 1331.67 109.621 1333.59 Q108.834 1335.49 106.728 1338.08 Q106.149 1338.75 103.047 1341.97 Q99.9454 1345.16 94.2973 1350.93 Z" fill="#000000" fill-rule="evenodd" fill-opacity="1" /><path clip-path="url(#clip540)" d="M50.1308 924.463 L79.8066 924.463 L79.8066 928.398 L50.1308 928.398 L50.1308 924.463 Z" fill="#000000" fill-rule="evenodd" fill-opacity="1" /><path clip-path="url(#clip540)" d="M90.7093 937.357 L98.3482 937.357 L98.3482 910.991 L90.038 912.658 L90.038 908.398 L98.3019 906.732 L102.978 906.732 L102.978 937.357 L110.617 937.357 L110.617 941.292 L90.7093 941.292 L90.7093 937.357 Z" fill="#000000" fill-rule="evenodd" fill-opacity="1" /><path clip-path="url(#clip540)" d="M98.6722 496.241 Q95.0611 496.241 93.2324 499.806 Q91.4269 503.347 91.4269 510.477 Q91.4269 517.583 93.2324 521.148 Q95.0611 524.69 98.6722 524.69 Q102.306 524.69 104.112 521.148 Q105.941 517.583 105.941 510.477 Q105.941 503.347 104.112 499.806 Q102.306 496.241 98.6722 496.241 M98.6722 492.537 Q104.482 492.537 107.538 497.144 Q110.617 501.727 110.617 510.477 Q110.617 519.204 107.538 523.81 Q104.482 528.393 98.6722 528.393 Q92.8621 528.393 89.7834 523.81 Q86.7279 519.204 86.7279 510.477 Q86.7279 501.727 89.7834 497.144 Q92.8621 492.537 98.6722 492.537 Z" fill="#000000" fill-rule="evenodd" fill-opacity="1" /><path clip-path="url(#clip540)" d="M90.7093 110.217 L98.3482 110.217 L98.3482 83.8517 L90.038 85.5183 L90.038 81.2591 L98.3019 79.5924 L102.978 79.5924 L102.978 110.217 L110.617 110.217 L110.617 114.152 L90.7093 114.152 L90.7093 110.217 Z" fill="#000000" fill-rule="evenodd" fill-opacity="1" /><polyline clip-path="url(#clip542)" style="stroke:#009af9; stroke-linecap:butt; stroke-linejoin:round; stroke-width:12; stroke-opacity:1; fill:none" points="
  2178.81,510.442 1787.33,868.604 221.403,1584.93 2178.81,510.442 
  "/>
<circle clip-path="url(#clip542)" cx="2178.81" cy="510.442" r="10.8" fill="#e26f46" fill-rule="evenodd" fill-opacity="1" stroke="#000000" stroke-opacity="1" stroke-width="3.84"/>
<circle clip-path="url(#clip542)" cx="1787.33" cy="868.604" r="10.8" fill="#e26f46" fill-rule="evenodd" fill-opacity="1" stroke="#000000" stroke-opacity="1" stroke-width="3.84"/>
<circle clip-path="url(#clip542)" cx="221.403" cy="1584.93" r="10.8" fill="#e26f46" fill-rule="evenodd" fill-opacity="1" stroke="#000000" stroke-opacity="1" stroke-width="3.84"/>
<polyline clip-path="url(#clip542)" style="stroke:#e35832; stroke-linecap:butt; stroke-linejoin:round; stroke-width:4; stroke-opacity:1; fill:none" points="
  221.403,1714.35 233.588,1717.73 245.129,1720.91 268.855,1726.93 292.582,1732.5 301.516,1734.44 316.308,1737.65 340.034,1742.42 363.76,1746.87 387.486,1751.04 
  388.167,1751.15 
  "/>
<polyline clip-path="url(#clip542)" style="stroke:#d04544; stroke-linecap:butt; stroke-linejoin:round; stroke-width:4; stroke-opacity:1; fill:none" points="
  221.403,1657.73 245.129,1664.45 257.749,1667.6 268.855,1670.38 292.582,1675.67 316.308,1680.49 336.778,1684.31 340.034,1684.92 363.76,1688.93 387.486,1692.66 
  411.212,1696.14 434.938,1699.4 447.622,1701.02 458.664,1702.41 482.391,1705.2 506.117,1707.8 529.843,1710.24 553.569,1712.52 577.295,1714.65 601.021,1716.63 
  615.294,1717.73 624.747,1718.45 648.473,1720.09 672.2,1721.6 695.926,1722.98 719.652,1724.23 743.378,1725.34 767.104,1726.33 790.83,1727.18 814.556,1727.91 
  838.282,1728.51 862.009,1728.99 885.735,1729.34 909.461,1729.56 933.187,1729.66 956.913,1729.63 980.639,1729.48 1004.37,1729.2 1028.09,1728.8 1051.82,1728.27 
  1075.54,1727.62 1099.27,1726.85 1123,1725.95 1146.72,1724.92 1170.45,1723.77 1194.17,1722.49 1217.9,1721.09 1241.63,1719.56 1265.35,1717.9 1267.61,1717.73 
  1289.08,1716.09 1312.8,1714.15 1336.53,1712.09 1360.26,1709.89 1383.98,1707.56 1407.71,1705.1 1431.44,1702.51 1444.36,1701.02 1455.16,1699.76 1478.89,1696.87 
  1502.61,1693.84 1526.34,1690.67 1550.07,1687.36 1571.07,1684.31 1573.79,1683.91 1597.52,1680.28 1621.24,1676.51 1644.97,1672.6 1668.7,1668.54 1673.97,1667.6 
  1692.42,1664.29 1716.15,1659.89 1739.88,1655.34 1762.26,1650.89 1763.6,1650.62 1787.33,1645.71 1811.05,1640.64 1834.78,1635.4 1840.14,1634.18 1858.51,1629.96 
  1882.23,1624.34 1905.96,1618.56 1910.27,1617.47 1929.68,1612.55 1953.41,1606.35 1974.22,1600.76 1977.14,1599.97 2000.86,1593.35 2024.59,1586.54 2033.03,1584.05 
  2048.31,1579.5 2072.04,1572.24 2087.6,1567.34 2095.77,1564.75 2119.49,1557 2138.51,1550.63 2143.22,1549.03 2166.95,1540.79 2186.17,1533.92 2190.67,1532.3 
  2214.4,1523.51 2230.96,1517.21 2238.12,1514.46 2261.85,1505.1 2273.2,1500.5 2285.58,1495.43 2309.3,1485.46 2313.17,1483.79 2333.03,1475.12 2350.98,1467.08 
  2356.75,1464.46 2380.48,1453.42 2386.87,1450.37 2404.21,1441.98 2420.96,1433.66 2427.93,1430.15 2451.66,1417.88 2453.42,1416.95 2475.38,1405.13 2484.26,1400.24 
  2499.11,1391.9 2513.68,1383.53 2522.84,1378.16 2541.73,1366.82 2546.56,1363.86 2568.49,1350.11 2570.29,1348.96 
  "/>
<polyline clip-path="url(#clip542)" style="stroke:#ba3655; stroke-linecap:butt; stroke-linejoin:round; stroke-width:4; stroke-opacity:1; fill:none" points="
  2570.29,1254.24 2553.51,1266.56 2546.56,1271.52 2529.71,1283.27 2522.84,1287.94 2504.68,1299.98 2499.11,1303.59 2478.35,1316.69 2475.38,1318.52 2451.66,1332.81 
  2450.64,1333.4 2427.93,1346.46 2421.43,1350.11 2404.21,1359.57 2390.67,1366.82 2380.48,1372.18 2358.29,1383.53 2356.75,1384.31 2333.03,1395.95 2324.04,1400.24 
  2309.3,1407.17 2287.92,1416.95 2285.58,1418.01 2261.85,1428.43 2249.61,1433.66 2238.12,1438.5 2214.4,1448.24 2209.04,1450.37 2190.67,1457.61 2166.95,1466.7 
  2165.93,1467.08 2143.22,1475.45 2119.92,1483.79 2119.49,1483.94 2095.77,1492.12 2072.04,1500.05 2070.66,1500.5 2048.31,1507.69 2024.59,1515.11 2017.66,1517.21 
  2000.86,1522.26 1977.14,1529.18 1960.39,1533.92 1953.41,1535.88 1929.68,1542.33 1905.96,1548.59 1897.99,1550.63 1882.23,1554.62 1858.51,1560.45 1834.78,1566.09 
  1829.35,1567.34 1811.05,1571.51 1787.33,1576.75 1763.6,1581.81 1752.74,1584.05 1739.88,1586.68 1716.15,1591.36 1692.42,1595.87 1668.7,1600.23 1665.67,1600.76 
  1644.97,1604.38 1621.24,1608.38 1597.52,1612.22 1573.79,1615.91 1563.31,1617.47 1550.07,1619.43 1526.34,1622.78 1502.61,1625.98 1478.89,1629.04 1455.16,1631.96 
  1436.21,1634.18 1431.44,1634.73 1407.71,1637.33 1383.98,1639.8 1360.26,1642.12 1336.53,1644.31 1312.8,1646.37 1289.08,1648.29 1265.35,1650.08 1253.78,1650.89 
  1241.63,1651.73 1217.9,1653.23 1194.17,1654.6 1170.45,1655.84 1146.72,1656.95 1123,1657.94 1099.27,1658.8 1075.54,1659.53 1051.82,1660.14 1028.09,1660.63 
  1004.37,1660.98 980.639,1661.22 956.913,1661.33 933.187,1661.32 909.461,1661.18 885.735,1660.93 862.009,1660.55 838.282,1660.05 814.556,1659.44 790.83,1658.7 
  767.104,1657.84 743.378,1656.87 719.652,1655.78 695.926,1654.58 672.2,1653.26 648.473,1651.83 634.065,1650.89 624.747,1650.26 601.021,1648.54 577.295,1646.7 
  553.569,1644.74 529.843,1642.68 506.117,1640.5 482.391,1638.22 458.664,1635.83 443.031,1634.18 434.938,1633.28 411.212,1630.51 387.486,1627.62 363.76,1624.62 
  340.034,1621.5 316.308,1618.26 311.064,1617.47 292.582,1614.54 268.855,1610.5 245.129,1606.05 224.065,1600.76 221.403,1600.09 
  "/>
<polyline clip-path="url(#clip542)" style="stroke:#ba3655; stroke-linecap:butt; stroke-linejoin:round; stroke-width:4; stroke-opacity:1; fill:none" points="
  221.403,893.604 228.405,882.237 239.201,865.527 245.129,856.77 250.551,848.817 262.47,832.107 268.855,823.54 274.967,815.397 288.054,798.688 292.582,793.144 
  301.765,781.978 316.073,765.268 316.308,765.004 331.073,748.558 340.034,738.955 346.715,731.848 363.032,715.138 363.76,714.42 380.097,698.428 387.486,691.454 
  397.885,681.718 411.212,669.681 416.429,665.008 434.938,649.007 435.765,648.299 455.952,631.589 458.664,629.418 477.007,614.879 482.391,610.751 498.967,598.169 
  506.117,592.917 521.879,581.459 529.843,575.853 545.794,564.749 553.569,559.504 570.766,548.039 577.295,543.819 596.858,531.329 601.021,528.751 624.137,514.62 
  624.747,514.257 648.473,500.36 652.716,497.91 672.2,486.981 682.662,481.2 695.926,474.077 714.062,464.49 719.652,461.616 743.378,449.614 747.061,447.78 
  767.104,438.072 781.823,431.07 790.83,426.899 814.556,416.111 818.475,414.36 838.282,405.742 857.269,397.65 862.009,395.681 885.735,386.013 898.456,380.94 
  909.461,376.66 933.187,367.632 942.327,364.231 956.913,358.932 980.639,350.521 989.307,347.521 1004.37,342.428 1028.09,334.611 1039.93,330.811 1051.82,327.082 
  1075.54,319.837 1094.9,314.101 1099.27,312.834 1123,306.14 1146.72,299.665 1155.31,297.391 1170.45,293.468 1194.17,287.521 1217.9,281.789 1222.65,280.681 
  1241.63,276.336 1265.35,271.112 1289.08,266.101 1299.58,263.971 1312.8,261.339 1336.53,256.816 1360.26,252.504 1383.98,248.404 1390.92,247.261 1407.71,244.548 
  1431.44,240.917 1455.16,237.495 1478.89,234.284 1502.61,231.286 1508.84,230.552 1526.34,228.521 1550.07,225.974 1573.79,223.639 1597.52,221.516 1621.24,219.607 
  1644.97,217.913 1668.7,216.436 1692.42,215.177 1716.15,214.138 1724.73,213.842 1739.88,213.325 1763.6,212.736 1787.33,212.371 1811.05,212.234 1834.78,212.326 
  1858.51,212.652 1882.23,213.215 1900.71,213.842 1905.96,214.02 1929.68,215.074 1953.41,216.379 1977.14,217.94 2000.86,219.762 2024.59,221.853 2048.31,224.22 
  2072.04,226.87 2095.77,229.812 2101.18,230.552 2119.49,233.062 2143.22,236.624 2166.95,240.511 2190.67,244.732 2203.83,247.261 2214.4,249.307 2238.12,254.253 
  2261.85,259.578 2280.1,263.971 2285.58,265.303 2309.3,271.463 2333.03,278.058 2341.92,280.681 2356.75,285.134 2380.48,292.709 2394.32,297.391 2404.21,300.814 
  2427.93,309.495 2439.87,314.101 2451.66,318.786 2475.38,328.72 2480.16,330.811 2499.11,339.406 2516.17,347.521 2522.84,350.828 2546.56,363.093 2548.69,364.231 
  2570.29,376.351 
  "/>
<polyline clip-path="url(#clip542)" style="stroke:#d04544; stroke-linecap:butt; stroke-linejoin:round; stroke-width:4; stroke-opacity:1; fill:none" points="
  2570.29,310.729 2546.56,299.676 2541.47,297.391 2522.84,289.299 2502.06,280.681 2499.11,279.491 2475.38,270.291 2458.25,263.971 2451.66,261.595 2427.93,253.419 
  2409.09,247.261 2404.21,245.696 2380.48,238.441 2356.75,231.593 2352.95,230.552 2333.03,225.165 2309.3,219.117 2287.3,213.842 2285.58,213.432 2261.85,208.113 
  2238.12,203.129 2214.4,198.469 2207.11,197.132 2190.67,194.13 2166.95,190.096 2143.22,186.356 2119.49,182.901 2100.99,180.422 2095.77,179.724 2072.04,176.821 
  2048.31,174.181 2024.59,171.796 2000.86,169.662 1977.14,167.773 1953.41,166.123 1929.68,164.709 1909.67,163.712 1905.96,163.527 1882.23,162.575 1858.51,161.848 
  1834.78,161.34 1811.05,161.051 1787.33,160.976 1763.6,161.115 1739.88,161.463 1716.15,162.02 1692.42,162.784 1669.69,163.712 1668.7,163.753 1644.97,164.933 
  1621.24,166.317 1597.52,167.903 1573.79,169.692 1550.07,171.681 1526.34,173.87 1502.61,176.258 1478.89,178.844 1465.41,180.422 1455.16,181.639 1431.44,184.647 
  1407.71,187.854 1383.98,191.26 1360.26,194.864 1346.07,197.132 1336.53,198.681 1312.8,202.721 1289.08,206.961 1265.35,211.401 1252.84,213.842 1241.63,216.065 
  1217.9,220.959 1194.17,226.054 1174.01,230.552 1170.45,231.36 1146.72,236.926 1123,242.696 1104.84,247.261 1099.27,248.689 1075.54,254.949 1051.82,261.415 
  1042.7,263.971 1028.09,268.146 1004.37,275.122 985.988,280.681 980.639,282.332 956.913,289.836 933.681,297.391 933.187,297.555 909.461,305.607 885.735,313.873 
  885.095,314.101 862.009,322.489 839.658,330.811 838.282,331.334 814.556,340.542 796.971,347.521 790.83,350.014 767.104,359.832 756.68,364.231 743.378,369.977 
  719.652,380.427 718.506,380.94 695.926,391.297 682.325,397.65 672.2,402.498 648.473,414.055 647.855,414.36 624.747,426.075 615.054,431.07 601.021,438.488 
  583.711,447.78 577.295,451.315 553.734,464.49 553.569,464.585 529.843,478.391 525.082,481.2 506.117,492.696 497.626,497.91 482.391,507.529 471.299,514.62 
  458.664,522.928 446.038,531.329 434.938,538.932 421.79,548.039 411.212,555.585 398.503,564.749 387.486,572.935 376.132,581.459 363.76,591.034 354.633,598.169 
  340.034,609.94 333.968,614.879 316.308,629.716 314.099,631.589 295.011,648.299 292.582,650.496 276.677,665.008 268.855,672.388 259.049,681.718 245.129,695.421 
  242.099,698.428 225.835,715.138 221.403,719.855 
  "/>
<polyline clip-path="url(#clip542)" style="stroke:#e35832; stroke-linecap:butt; stroke-linejoin:round; stroke-width:4; stroke-opacity:1; fill:none" points="
  221.403,594.347 237.073,581.459 245.129,575.023 258.119,564.749 268.855,556.497 279.974,548.039 292.582,538.714 302.673,531.329 316.308,521.624 326.256,514.62 
  340.034,505.18 350.766,497.91 363.76,489.339 376.248,481.2 387.486,474.064 402.753,464.49 411.212,459.319 430.336,447.78 434.938,445.072 458.664,431.296 
  459.059,431.07 482.391,418.024 489.038,414.36 506.117,405.172 520.308,397.65 529.843,392.715 552.95,380.94 553.569,380.633 577.295,368.989 587.155,364.231 
  601.021,357.689 622.954,347.521 624.747,346.708 648.473,336.119 660.589,330.811 672.2,325.833 695.926,315.851 700.159,314.101 719.652,306.213 741.918,297.391 
  743.378,296.824 767.104,287.781 786.158,280.681 790.83,278.974 814.556,270.479 833.168,263.971 838.282,262.217 862.009,254.251 883.365,247.261 885.735,246.5 
  909.461,239.045 933.187,231.792 937.344,230.552 956.913,224.815 980.639,218.053 995.835,213.842 1004.37,211.518 1028.09,205.231 1051.82,199.139 1059.87,197.132 
  1075.54,193.288 1099.27,187.654 1123,182.213 1131.07,180.422 1146.72,177.002 1170.45,172 1194.17,167.19 1212.02,163.712 1217.9,162.582 1241.63,158.197 
  1265.35,154 1289.08,149.992 1307.63,147.002 1312.8,146.18 1336.53,142.582 1360.26,139.17 1383.98,135.946 1407.71,132.909 1429.5,130.292 1431.44,130.062 
  1455.16,127.421 1478.89,124.966 1502.61,122.698 1526.34,120.618 1550.07,118.726 1573.79,117.023 1597.52,115.509 1621.24,114.185 1633.86,113.582 1644.97,113.056 
  1668.7,112.12 1692.42,111.376 1716.15,110.825 1739.88,110.468 1763.6,110.308 1787.33,110.344 1811.05,110.581 1834.78,111.018 1858.51,111.659 1882.23,112.506 
  1905.96,113.561 1906.36,113.582 1929.68,114.83 1953.41,116.314 1977.14,118.016 2000.86,119.939 2024.59,122.086 2048.31,124.463 2072.04,127.074 2095.77,129.924 
  2098.59,130.292 2119.49,133.022 2143.22,136.37 2166.95,139.974 2190.67,143.839 2208.83,147.002 2214.4,147.976 2238.12,152.395 2261.85,157.099 2285.58,162.096 
  2292.84,163.712 2309.3,167.405 2333.03,173.03 2356.75,178.977 2362.25,180.422 2380.48,185.276 2404.21,191.926 2421.88,197.132 2427.93,198.94 2451.66,206.356 
  2474.45,213.842 2475.38,214.155 2499.11,222.411 2521.42,230.552 2522.84,231.081 2546.56,240.261 2563.89,247.261 2570.29,249.913 
  "/>
<polyline clip-path="url(#clip542)" style="stroke:#f0701e; stroke-linecap:butt; stroke-linejoin:round; stroke-width:4; stroke-opacity:1; fill:none" points="
  2570.29,191.918 2546.56,183.226 2538.62,180.422 2522.84,174.952 2499.11,167.058 2488.64,163.712 2475.38,159.54 2451.66,152.38 2433.01,147.002 2427.93,145.555 
  2404.21,139.072 2380.48,132.897 2370,130.292 2356.75,127.034 2333.03,121.469 2309.3,116.186 2296.99,113.582 2285.58,111.185 2261.85,106.458 2238.12,101.991 
  2214.4,97.7787 2208.98,96.8724 
  "/>
<polyline clip-path="url(#clip542)" style="stroke:#f98c09; stroke-linecap:butt; stroke-linejoin:round; stroke-width:4; stroke-opacity:1; fill:none" points="
  2442.58,96.8724 2451.66,99.3182 2475.38,105.971 2499.11,112.919 2501.3,113.582 2522.84,120.203 2546.56,127.804 2554.06,130.292 2570.29,135.76 
  "/>
<polyline clip-path="url(#clip542)" style="stroke:#a12b61; stroke-linecap:butt; stroke-linejoin:round; stroke-width:4; stroke-opacity:1; fill:none" points="
  2570.29,451.741 2565.16,447.78 2546.56,434.437 2541.73,431.07 2522.84,418.758 2515.85,414.36 2499.11,404.464 2487.1,397.65 2475.38,391.365 2455,380.94 
  2451.66,379.313 2427.93,368.286 2418.71,364.231 2404.21,358.113 2380.48,348.704 2377.32,347.521 2356.75,340.065 2333.03,332.056 2329.09,330.811 2309.3,324.692 
  2285.58,317.887 2271.34,314.101 2261.85,311.616 2238.12,305.853 2214.4,300.552 2199,297.391 2190.67,295.695 2166.95,291.261 2143.22,287.222 2119.49,283.558 
  2098.84,280.681 2095.77,280.254 2072.04,277.302 2048.31,274.679 2024.59,272.375 2000.86,270.376 1977.14,268.674 1953.41,267.259 1929.68,266.125 1905.96,265.262 
  1882.23,264.667 1858.51,264.332 1834.78,264.254 1811.05,264.429 1787.33,264.851 1763.6,265.518 1739.88,266.426 1716.15,267.573 1692.42,268.956 1668.7,270.572 
  1644.97,272.42 1621.24,274.497 1597.52,276.801 1573.79,279.331 1562.12,280.681 1550.07,282.104 1526.34,285.121 1502.61,288.363 1478.89,291.83 1455.16,295.52 
  1443.78,297.391 1431.44,299.463 1407.71,303.658 1383.98,308.078 1360.26,312.722 1353.51,314.101 1336.53,317.645 1312.8,322.816 1289.08,328.213 1278.08,330.811 
  1265.35,333.887 1241.63,339.834 1217.9,346.01 1212.28,347.521 1194.17,352.502 1170.45,359.252 1153.5,364.231 1146.72,366.271 1123,373.619 1100.08,380.94 
  1099.27,381.206 1075.54,389.176 1051.82,397.383 1051.06,397.65 1028.09,405.997 1005.68,414.36 1004.37,414.865 980.639,424.159 963.415,431.07 956.913,433.753 
  933.187,443.749 923.815,447.78 909.461,454.134 886.548,464.49 885.735,464.868 862.009,476.107 851.457,481.2 838.282,487.754 818.227,497.91 814.556,499.827 
  790.83,512.42 786.75,514.62 767.104,525.55 756.874,531.329 743.378,539.205 728.451,548.039 719.652,553.423 701.386,564.749 695.926,568.252 675.591,581.459 
  672.2,583.74 650.991,598.169 648.473,599.943 627.514,614.879 624.747,616.923 605.1,631.589 601.021,634.747 583.69,648.299 577.295,653.489 563.232,665.008 
  553.569,673.231 543.679,681.718 529.843,694.061 524.987,698.428 507.123,715.138 506.117,716.119 490.09,731.848 482.391,739.722 473.81,748.558 458.664,764.818 
  458.248,765.268 443.448,781.978 434.938,792.014 429.315,798.688 415.857,815.397 411.212,821.44 403.062,832.107 390.883,848.817 387.486,853.718 379.347,865.527 
  368.392,882.237 363.76,889.689 358.038,898.947 348.262,915.657 340.034,930.521 339.018,932.367 330.378,949.077 322.244,965.786 316.308,978.798 314.631,982.496 
  307.584,999.206 301.025,1015.92 294.949,1032.63 292.582,1039.72 289.399,1049.34 284.358,1066.05 279.789,1082.76 275.689,1099.47 272.057,1116.18 268.89,1132.89 
  268.855,1133.1 266.239,1149.6 264.049,1166.31 262.319,1183.01 261.051,1199.72 260.244,1216.43 259.901,1233.14 260.023,1249.85 260.615,1266.56 261.681,1283.27 
  263.225,1299.98 265.256,1316.69 267.782,1333.4 268.855,1339.36 270.894,1350.11 274.613,1366.82 278.93,1383.53 283.892,1400.24 289.564,1416.95 292.582,1424.84 
  296.272,1433.66 304.294,1450.37 313.783,1467.08 316.308,1470.9 326.201,1483.79 340.034,1498.03 342.918,1500.5 363.76,1514.43 368.916,1517.21 387.486,1525.11 
  411.212,1533.22 413.564,1533.92 434.938,1539.2 458.664,1544.32 482.391,1548.87 492.43,1550.63 506.117,1552.76 529.843,1556.19 553.569,1559.37 577.295,1562.32 
  601.021,1565.06 622.232,1567.34 624.747,1567.59 648.473,1569.82 672.2,1571.89 695.926,1573.82 719.652,1575.59 743.378,1577.21 767.104,1578.69 790.83,1580.03 
  814.556,1581.22 838.282,1582.26 862.009,1583.17 885.735,1583.93 890.311,1584.05 909.461,1584.54 933.187,1585.01 956.913,1585.34 980.639,1585.54 1004.37,1585.6 
  1028.09,1585.53 1051.82,1585.32 1075.54,1584.98 1099.27,1584.5 1116.61,1584.05 1123,1583.88 1146.72,1583.11 1170.45,1582.2 1194.17,1581.15 1217.9,1579.96 
  1241.63,1578.63 1265.35,1577.16 1289.08,1575.54 1312.8,1573.78 1336.53,1571.88 1360.26,1569.83 1383.98,1567.64 1386.96,1567.34 1407.71,1565.26 1431.44,1562.73 
  1455.16,1560.05 1478.89,1557.22 1502.61,1554.23 1526.34,1551.09 1529.63,1550.63 1550.07,1547.75 1573.79,1544.25 1597.52,1540.58 1621.24,1536.75 1638.03,1533.92 
  1644.97,1532.74 1668.7,1528.53 1692.42,1524.14 1716.15,1519.58 1727.96,1517.21 1739.88,1514.81 1763.6,1509.83 1787.33,1504.67 1805.79,1500.5 1811.05,1499.3 
  1834.78,1493.7 1858.51,1487.9 1874.74,1483.79 1882.23,1481.88 1905.96,1475.61 1929.68,1469.12 1936.89,1467.08 1953.41,1462.37 1977.14,1455.37 1993.55,1450.37 
  2000.86,1448.12 2024.59,1440.58 2045.68,1433.66 2048.31,1432.79 2072.04,1424.67 2093.88,1416.95 2095.77,1416.28 2119.49,1407.54 2138.69,1400.24 2143.22,1398.5 
  2166.95,1389.08 2180.52,1383.53 2190.67,1379.32 2214.4,1369.18 2219.75,1366.82 2238.12,1358.61 2256.58,1350.11 2261.85,1347.64 2285.58,1336.21 2291.23,1333.4 
  2309.3,1324.28 2323.89,1316.69 2333.03,1311.84 2354.76,1299.98 2356.75,1298.87 2380.48,1285.27 2383.88,1283.27 2404.21,1271.02 2411.4,1266.56 2427.93,1256.06 
  2437.44,1249.85 2451.66,1240.32 2462.08,1233.14 2475.38,1223.71 2485.39,1216.43 2499.11,1206.14 2507.45,1199.72 2522.84,1187.47 2528.31,1183.01 2546.56,1167.57 
  2548.03,1166.31 2566.61,1149.6 2570.29,1146.15 
  "/>
<polyline clip-path="url(#clip542)" style="stroke:#88216a; stroke-linecap:butt; stroke-linejoin:round; stroke-width:4; stroke-opacity:1; fill:none" points="
  2570.29,1008.09 2564.81,1015.92 2552.27,1032.63 2546.56,1039.77 2538.75,1049.34 2524.25,1066.05 2522.84,1067.59 2508.64,1082.76 2499.11,1092.41 2491.98,1099.47 
  2475.38,1115.09 2474.21,1116.18 2455.21,1132.89 2451.66,1135.88 2434.97,1149.6 2427.93,1155.16 2413.44,1166.31 2404.21,1173.16 2390.54,1183.01 2380.48,1190.04 
  2366.19,1199.72 2356.75,1205.93 2340.3,1216.43 2333.03,1220.95 2312.78,1233.14 2309.3,1235.18 2285.58,1248.69 2283.46,1249.85 2261.85,1261.51 2252.17,1266.56 
  2238.12,1273.75 2218.87,1283.27 2214.4,1285.44 2190.67,1296.59 2183.22,1299.98 2166.95,1307.26 2145.1,1316.69 2143.22,1317.5 2119.49,1327.26 2104.05,1333.4 
  2095.77,1336.65 2072.04,1345.64 2059.83,1350.11 2048.31,1354.27 2024.59,1362.55 2011.91,1366.82 2000.86,1370.5 1977.14,1378.13 1959.7,1383.53 1953.41,1385.46 
  1929.68,1392.48 1905.96,1399.24 1902.29,1400.24 1882.23,1405.69 1858.51,1411.9 1838.43,1416.95 1834.78,1417.87 1811.05,1423.55 1787.33,1429.01 1766.29,1433.66 
  1763.6,1434.25 1739.88,1439.23 1716.15,1444 1692.42,1448.57 1682.63,1450.37 1668.7,1452.91 1644.97,1457.04 1621.24,1460.97 1597.52,1464.71 1581.66,1467.08 
  1573.79,1468.25 1550.07,1471.58 1526.34,1474.72 1502.61,1477.69 1478.89,1480.48 1455.16,1483.09 1448.28,1483.79 1431.44,1485.5 1407.71,1487.72 1383.98,1489.78 
  1360.26,1491.66 1336.53,1493.38 1312.8,1494.92 1289.08,1496.29 1265.35,1497.5 1241.63,1498.53 1217.9,1499.39 1194.17,1500.08 1174.7,1500.5 1170.45,1500.59 
  1146.72,1500.93 1123,1501.08 1099.27,1501.07 1075.54,1500.88 1051.82,1500.5 1051.82,1500.5 1028.09,1499.93 1004.37,1499.16 980.639,1498.2 956.913,1497.03 
  933.187,1495.64 909.461,1494.04 885.735,1492.21 862.009,1490.14 838.282,1487.82 814.556,1485.23 802.598,1483.79 790.83,1482.28 767.104,1478.93 743.378,1475.21 
  719.652,1471.08 698.857,1467.08 695.926,1466.47 672.2,1461.05 648.473,1454.97 632.335,1450.37 624.747,1447.97 601.021,1439.64 585.939,1433.66 577.295,1429.8 
  553.569,1417.83 551.995,1416.95 529.843,1402.69 526.45,1400.24 506.471,1383.53 506.117,1383.19 490.701,1366.82 482.391,1356.43 477.763,1350.11 467.183,1333.4 
  458.664,1317.45 458.291,1316.69 451.075,1299.98 445.038,1283.27 440.051,1266.56 436.015,1249.85 434.938,1244.25 432.908,1233.14 430.611,1216.43 429.048,1199.72 
  428.183,1183.01 427.986,1166.31 428.434,1149.6 429.507,1132.89 431.189,1116.18 433.468,1099.47 434.938,1090.95 436.36,1082.76 439.864,1066.05 443.946,1049.34 
  448.604,1032.63 453.834,1015.92 458.664,1002.03 459.65,999.206 466.111,982.496 473.148,965.786 480.764,949.077 482.391,945.783 489.043,932.367 497.932,915.657 
  506.117,901.254 507.433,898.947 517.634,882.237 528.449,865.527 529.843,863.503 539.994,848.817 552.192,832.107 553.569,830.324 565.153,815.397 577.295,800.531 
  578.808,798.688 593.267,781.978 601.021,773.446 608.496,765.268 624.521,748.558 624.747,748.333 641.439,731.848 648.473,725.211 659.224,715.138 672.2,703.516 
  677.923,698.428 695.926,683.116 697.582,681.718 718.269,665.008 719.652,663.937 740.034,648.299 743.378,645.836 762.927,631.589 767.104,628.664 787.017,614.879 
  790.83,612.341 812.384,598.169 814.556,596.794 838.282,581.976 839.122,581.459 862.009,567.879 867.361,564.749 885.735,554.395 897.194,548.039 909.461,541.475 
  928.749,531.329 933.187,529.075 956.913,517.231 962.24,514.62 980.639,505.903 997.861,497.91 1004.37,494.988 1028.09,484.549 1035.87,481.2 1051.82,474.548 
  1075.54,464.89 1076.55,464.49 1099.27,455.717 1120.39,447.78 1123,446.831 1146.72,438.387 1167.9,431.07 1170.45,430.216 1194.17,422.46 1217.9,414.954 
  1219.83,414.36 1241.63,407.844 1265.35,400.993 1277.33,397.65 1289.08,394.458 1312.8,388.234 1336.53,382.254 1341.94,380.94 1360.26,376.605 1383.98,371.223 
  1407.71,366.08 1416.63,364.231 1431.44,361.237 1455.16,356.665 1478.89,352.332 1502.61,348.237 1507,347.521 1526.34,344.438 1550.07,340.889 1573.79,337.578 
  1597.52,334.506 1621.24,331.675 1629.13,330.811 1644.97,329.115 1668.7,326.809 1692.42,324.747 1716.15,322.93 1739.88,321.361 1763.6,320.043 1787.33,318.981 
  1811.05,318.178 1834.78,317.638 1858.51,317.367 1882.23,317.371 1905.96,317.655 1929.68,318.227 1953.41,319.095 1977.14,320.268 2000.86,321.758 2024.59,323.576 
  2048.31,325.738 2072.04,328.26 2092.9,330.811 2095.77,331.163 2119.49,334.477 2143.22,338.216 2166.95,342.407 2190.67,347.083 2192.68,347.521 2214.4,352.295 
  2238.12,358.072 2261.04,364.231 2261.85,364.453 2285.58,371.537 2309.3,379.327 2313.86,380.94 2333.03,387.975 2356.75,397.46 2357.2,397.65 2380.48,408.056 
  2393.65,414.36 2404.21,419.743 2425.17,431.07 2427.93,432.675 2451.66,447.114 2452.71,447.78 2475.38,463.324 2477.03,464.49 2498.69,481.2 2499.11,481.555 
  2518.07,497.91 2522.84,502.435 2535.48,514.62 2546.56,526.379 2551.17,531.329 2565.31,548.039 2570.29,554.553 
  "/>
<polyline clip-path="url(#clip542)" style="stroke:#e35832; stroke-linecap:butt; stroke-linejoin:round; stroke-width:4; stroke-opacity:1; fill:none" points="
  2570.29,1435.54 2546.56,1448.86 2543.81,1450.37 2522.84,1461.69 2512.63,1467.08 2499.11,1474.1 2480.02,1483.79 2475.38,1486.11 2451.66,1497.71 2445.81,1500.5 
  2427.93,1508.92 2409.92,1517.21 2404.21,1519.8 2380.48,1530.33 2372.21,1533.92 2356.75,1540.53 2333.03,1550.45 2332.57,1550.63 2309.3,1560.02 2290.71,1567.34 
  2285.58,1569.34 2261.85,1578.36 2246.51,1584.05 2238.12,1587.13 2214.4,1595.63 2199.71,1600.76 2190.67,1603.89 2166.95,1611.89 2149.99,1617.47 2143.22,1619.68 
  2119.49,1627.22 2097,1634.18 2095.77,1634.56 2072.04,1641.66 2048.31,1648.57 2040.13,1650.89 2024.59,1655.26 2000.86,1661.75 1978.92,1667.6 1977.14,1668.07 
  1953.41,1674.17 1929.68,1680.1 1912.35,1684.31 1905.96,1685.85 1882.23,1691.4 1858.51,1696.8 1839.36,1701.02 1834.78,1702.02 1811.05,1707.06 1787.33,1711.94 
  1763.6,1716.67 1758.13,1717.73 1739.88,1721.23 1716.15,1725.62 1692.42,1729.87 1668.7,1733.98 1665.94,1734.44 1644.97,1737.91 1621.24,1741.7 1597.52,1745.35 
  1573.79,1748.86 1557.67,1751.15 
  "/>
<polyline clip-path="url(#clip542)" style="stroke:#f0701e; stroke-linecap:butt; stroke-linejoin:round; stroke-width:4; stroke-opacity:1; fill:none" points="
  1904.48,1751.15 1905.96,1750.82 1929.68,1745.31 1953.41,1739.64 1974.63,1734.44 1977.14,1733.82 2000.86,1727.79 2024.59,1721.6 2039.04,1717.73 2048.31,1715.22 
  2072.04,1708.65 2095.77,1701.9 2098.78,1701.02 2119.49,1694.93 2143.22,1687.77 2154.43,1684.31 2166.95,1680.41 2190.67,1672.83 2206.64,1667.6 2214.4,1665.03 
  2238.12,1657.01 2255.77,1650.89 2261.85,1648.76 2285.58,1640.26 2302.17,1634.18 2309.3,1631.54 2333.03,1622.54 2346.11,1617.47 2356.75,1613.29 2380.48,1603.78 
  2387.84,1600.76 2404.21,1593.97 2427.56,1584.05 2427.93,1583.89 2451.66,1573.48 2465.34,1567.34 2475.38,1562.77 2499.11,1551.74 2501.44,1550.63 2522.84,1540.34 
  2535.88,1533.92 2546.56,1528.59 2568.87,1517.21 2570.29,1516.48 
  "/>
<polyline clip-path="url(#clip542)" style="stroke:#f98c09; stroke-linecap:butt; stroke-linejoin:round; stroke-width:4; stroke-opacity:1; fill:none" points="
  2570.29,1593.09 2554.11,1600.76 2546.56,1604.29 2522.84,1615.17 2517.71,1617.47 2499.11,1625.72 2479.63,1634.18 2475.38,1636 2451.66,1645.98 2439.73,1650.89 
  2427.93,1655.69 2404.21,1665.14 2397.89,1667.6 2380.48,1674.32 2356.75,1683.27 2353.94,1684.31 2333.03,1691.95 2309.3,1700.43 2307.62,1701.02 2285.58,1708.66 
  2261.85,1716.69 2258.7,1717.73 2238.12,1724.48 2214.4,1732.08 2206.85,1734.44 2190.67,1739.46 2166.95,1746.65 2151.74,1751.15 
  "/>
<polyline clip-path="url(#clip542)" style="stroke:#fbaa0e; stroke-linecap:butt; stroke-linejoin:round; stroke-width:4; stroke-opacity:1; fill:none" points="
  2355.89,1751.15 2356.75,1750.85 2380.48,1742.4 2402.34,1734.44 2404.21,1733.76 2427.93,1724.85 2446.52,1717.73 2451.66,1715.74 2475.38,1706.36 2488.64,1701.02 
  2499.11,1696.75 2522.84,1686.87 2528.87,1684.31 2546.56,1676.71 2567.36,1667.6 2570.29,1666.3 
  "/>
<polyline clip-path="url(#clip542)" style="stroke:#f8c931; stroke-linecap:butt; stroke-linejoin:round; stroke-width:4; stroke-opacity:1; fill:none" points="
  2534.9,1751.15 2546.56,1746.43 2570.29,1736.66 
  "/>
<polyline clip-path="url(#clip542)" style="stroke:#f0701e; stroke-linecap:butt; stroke-linejoin:round; stroke-width:4; stroke-opacity:1; fill:none" points="
  1274.75,96.8724 1265.35,98.3166 1241.63,102.133 1217.9,106.129 1194.17,110.304 1176.29,113.582 1170.45,114.668 1146.72,119.24 1123,123.993 1099.27,128.928 
  1092.92,130.292 1075.54,134.08 1051.82,139.428 1028.09,144.96 1019.59,147.002 1004.37,150.713 980.639,156.674 956.913,162.821 953.56,163.712 933.187,169.213 
  909.461,175.805 893.281,180.422 885.735,182.611 862.009,189.662 838.282,196.905 837.555,197.132 814.556,204.427 790.83,212.148 785.735,213.842 767.104,220.143 
  743.378,228.358 737.168,230.552 719.652,236.853 695.926,245.578 691.435,247.261 672.2,254.605 648.473,263.86 648.192,263.971 624.747,273.452 607.226,280.681 
  601.021,283.292 577.295,293.45 568.251,297.391 553.569,303.918 531.073,314.101 529.843,314.67 506.117,325.8 495.612,330.811 482.391,337.252 461.652,347.521 
  458.664,349.032 434.938,361.211 429.141,364.231 411.212,373.777 397.955,380.94 387.486,386.726 367.995,397.65 363.76,400.079 340.034,413.869 339.2,414.36 
  316.308,428.153 311.527,431.07 292.582,442.911 284.887,447.78 268.855,458.175 259.23,464.49 245.129,473.975 234.51,481.2 221.403,490.347 
  "/>
<polyline clip-path="url(#clip542)" style="stroke:#f98c09; stroke-linecap:butt; stroke-linejoin:round; stroke-width:4; stroke-opacity:1; fill:none" points="
  221.403,398.874 223.387,397.65 245.129,384.531 251.156,380.94 268.855,370.626 279.977,364.231 292.582,357.137 309.905,347.521 316.308,344.041 340.034,331.326 
  341.008,330.811 363.76,319.025 373.411,314.101 387.486,307.063 407.134,297.391 411.212,295.423 434.938,284.141 442.328,280.681 458.664,273.181 479.073,263.971 
  482.391,262.502 506.117,252.158 517.549,247.261 529.843,242.092 553.569,232.294 557.86,230.552 577.295,222.801 600.221,213.842 601.021,213.534 624.747,204.577 
  644.894,197.132 648.473,195.831 672.2,187.369 692.117,180.422 695.926,179.115 719.652,171.132 742.236,163.712 743.378,163.343 767.104,155.823 790.83,148.49 
  795.75,147.002 814.556,141.403 838.282,134.515 853.202,130.292 862.009,127.836 885.735,121.38 909.461,115.105 915.369,113.582 933.187,109.054 956.913,103.195 
  980.639,97.5135 983.391,96.8724 
  "/>
<polyline clip-path="url(#clip542)" style="stroke:#fbaa0e; stroke-linecap:butt; stroke-linejoin:round; stroke-width:4; stroke-opacity:1; fill:none" points="
  757.453,96.8724 743.378,101.031 719.652,108.207 702.288,113.582 695.926,115.581 672.2,123.19 650.565,130.292 648.473,130.989 624.747,139.046 601.843,147.002 
  601.021,147.292 577.295,155.812 555.763,163.712 553.569,164.53 529.843,173.529 512.026,180.422 506.117,182.747 482.391,192.24 470.384,197.132 458.664,201.988 
  434.938,211.995 430.627,213.842 411.212,222.306 392.627,230.552 387.486,232.873 363.76,243.754 356.23,247.261 340.034,254.944 321.305,263.971 316.308,266.425 
  292.582,278.246 287.762,280.681 268.855,290.419 255.515,297.391 245.129,302.926 224.454,314.101 221.403,315.783 
  "/>
<polyline clip-path="url(#clip542)" style="stroke:#f8c931; stroke-linecap:butt; stroke-linejoin:round; stroke-width:4; stroke-opacity:1; fill:none" points="
  221.403,238.677 237.753,230.552 245.129,226.95 268.855,215.535 272.424,213.842 292.582,204.444 308.52,197.132 316.308,193.619 340.034,183.081 346.115,180.422 
  363.76,172.832 385.336,163.712 387.486,162.818 411.212,153.099 426.369,147.002 434.938,143.609 458.664,134.373 469.336,130.292 482.391,125.376 506.117,116.607 
  514.451,113.582 529.843,108.078 553.569,99.7608 561.966,96.8724 
  "/>
<polyline clip-path="url(#clip542)" style="stroke:#f1e864; stroke-linecap:butt; stroke-linejoin:round; stroke-width:4; stroke-opacity:1; fill:none" points="
  385.171,96.8724 363.76,105.259 342.899,113.582 340.034,114.743 316.308,124.5 302.461,130.292 292.582,134.489 268.855,144.731 263.671,147.002 245.129,155.255 
  226.435,163.712 221.403,166.025 
  "/>
<polyline clip-path="url(#clip542)" style="stroke:#6e186e; stroke-linecap:butt; stroke-linejoin:round; stroke-width:4; stroke-opacity:1; fill:none" points="
  906.691,648.299 885.735,663.242 883.285,665.008 862.009,681.094 861.19,681.718 840.346,698.428 838.282,700.169 820.679,715.138 814.556,720.622 802.113,731.848 
  790.83,742.583 784.591,748.558 768.065,765.268 767.104,766.298 752.548,781.978 743.378,792.444 737.931,798.688 724.218,815.397 719.652,821.332 711.387,832.107 
  699.38,848.817 695.926,853.982 688.222,865.527 677.852,882.237 672.2,892.09 668.272,898.947 659.49,915.657 651.438,932.367 648.473,939.182 644.173,949.077 
  637.671,965.786 631.902,982.496 626.87,999.206 624.747,1007.55 622.62,1015.92 619.156,1032.63 616.465,1049.34 614.567,1066.05 613.49,1082.76 613.266,1099.47 
  613.934,1116.18 615.543,1132.89 618.15,1149.6 621.825,1166.31 624.747,1176.52 626.7,1183.01 632.945,1199.72 640.62,1216.43 648.473,1230.66 649.929,1233.14 
  661.334,1249.85 672.2,1263.37 674.961,1266.56 691.517,1283.27 695.926,1287.17 711.648,1299.98 719.652,1305.73 736.322,1316.69 743.378,1320.83 766.992,1333.4 
  767.104,1333.46 790.83,1343.95 806.349,1350.11 814.556,1353.09 838.282,1360.93 858.166,1366.82 862.009,1367.87 885.735,1373.83 909.461,1379.16 931.216,1383.53 
  933.187,1383.9 956.913,1387.97 980.639,1391.6 1004.37,1394.81 1028.09,1397.64 1051.82,1400.1 1053.37,1400.24 1075.54,1402.16 1099.27,1403.91 1123,1405.36 
  1146.72,1406.54 1170.45,1407.45 1194.17,1408.09 1217.9,1408.48 1241.63,1408.63 1265.35,1408.54 1289.08,1408.22 1312.8,1407.67 1336.53,1406.89 1360.26,1405.89 
  1383.98,1404.68 1407.71,1403.24 1431.44,1401.59 1448.54,1400.24 1455.16,1399.72 1478.89,1397.6 1502.61,1395.27 1526.34,1392.73 1550.07,1389.96 1573.79,1386.98 
  1597.52,1383.78 1599.24,1383.53 1621.24,1380.32 1644.97,1376.62 1668.7,1372.7 1692.42,1368.55 1701.73,1366.82 1716.15,1364.13 1739.88,1359.45 1763.6,1354.53 
  1783.81,1350.11 1787.33,1349.34 1811.05,1343.85 1834.78,1338.1 1853.24,1333.4 1858.51,1332.06 1882.23,1325.69 1905.96,1319.03 1913.91,1316.69 1929.68,1312.02 
  1953.41,1304.68 1967.97,1299.98 1977.14,1296.99 2000.86,1288.92 2016.77,1283.27 2024.59,1280.46 2048.31,1271.58 2061.19,1266.56 2072.04,1262.27 2095.77,1252.5 
  2101.94,1249.85 2119.49,1242.21 2139.5,1233.14 2143.22,1231.42 2166.95,1220.04 2174.18,1216.43 2190.67,1208.03 2206.37,1199.72 2214.4,1195.37 2236.35,1183.01 
  2238.12,1181.99 2261.85,1167.76 2264.2,1166.31 2285.58,1152.62 2290.14,1149.6 2309.3,1136.45 2314.34,1132.89 2333.03,1119.12 2336.91,1116.18 2356.75,1100.45 
  2357.96,1099.47 2377.53,1082.76 2380.48,1080.11 2395.73,1066.05 2404.21,1057.78 2412.66,1049.34 2427.93,1033.12 2428.39,1032.63 2442.86,1015.92 2451.66,1005.03 
  2456.26,999.206 2468.54,982.496 2475.38,972.409 2479.79,965.786 2489.99,949.077 2499.11,932.638 2499.26,932.367 2507.5,915.657 2514.83,898.947 2521.26,882.237 
  2522.84,877.506 2526.76,865.527 2531.37,848.817 2535.12,832.107 2538.01,815.397 2540.04,798.688 2541.22,781.978 2541.54,765.268 2541.01,748.558 2539.62,731.848 
  2537.36,715.138 2534.22,698.428 2530.19,681.718 2525.24,665.008 2522.84,658.203 2519.31,648.299 2512.37,631.589 2504.41,614.879 2499.11,605.123 2495.31,598.169 
  2484.99,581.459 2475.38,567.633 2473.37,564.749 2460.24,548.039 2451.66,538.306 2445.46,531.329 2428.74,514.62 2427.93,513.9 2409.69,497.91 2404.21,493.636 
  2387.81,481.2 2380.48,476.242 2362.34,464.49 2356.75,461.23 2333.03,448.22 2332.17,447.78 2309.3,437.056 2295.21,431.07 2285.58,427.234 2261.85,418.69 
  2248.31,414.36 2238.12,411.216 2214.4,404.697 2190.67,398.993 2184.29,397.65 2166.95,394.03 2143.22,389.717 2119.49,385.986 2095.77,382.778 2079.78,380.94 
  2072.04,380.053 2048.31,377.786 2024.59,375.93 2000.86,374.457 1977.14,373.344 1953.41,372.574 1929.68,372.131 1905.96,372.001 1882.23,372.175 1858.51,372.642 
  1834.78,373.395 1811.05,374.426 1787.33,375.731 1763.6,377.302 1739.88,379.136 1719.41,380.94 1716.15,381.237 1692.42,383.639 1668.7,386.298 1644.97,389.214 
  1621.24,392.383 1597.52,395.804 1585.55,397.65 1573.79,399.518 1550.07,403.528 1526.34,407.791 1502.61,412.307 1492.36,414.36 1478.89,417.139 1455.16,422.275 
  1431.44,427.667 1417.11,431.07 1407.71,433.37 1383.98,439.417 1360.26,445.724 1352.8,447.78 1336.53,452.406 1312.8,459.406 1296.17,464.49 1289.08,466.729 
  1265.35,474.457 1245.33,481.2 1241.63,482.489 1217.9,490.985 1199.14,497.91 1194.17,499.807 1170.45,509.11 1156.77,514.62 1146.72,518.813 1123,528.965 
  1117.59,531.329 1099.27,539.653 1081.23,548.039 1075.54,550.785 1051.82,562.482 1047.31,564.749 1028.09,574.799 1015.59,581.459 1004.37,587.692 985.818,598.169 
  980.639,601.221 957.828,614.879 956.913,615.451 933.187,630.504 931.501,631.589 909.461,646.413 906.691,648.299 
  "/>
<polyline clip-path="url(#clip542)" style="stroke:#550f6d; stroke-linecap:butt; stroke-linejoin:round; stroke-width:4; stroke-opacity:1; fill:none" points="
  993.532,715.138 980.639,726.109 973.952,731.848 956.913,747.427 955.685,748.558 938.712,765.268 933.187,771.101 922.933,781.978 909.461,797.331 908.275,798.688 
  894.775,815.397 885.735,827.514 882.314,832.107 870.929,848.817 862.009,863.155 860.533,865.527 851.193,882.237 842.811,898.947 838.282,909.199 835.425,915.657 
  829.054,932.367 823.657,949.077 819.251,965.786 815.862,982.496 814.556,991.898 813.537,999.206 812.305,1015.92 812.195,1032.63 813.261,1049.34 814.556,1058.79 
  815.594,1066.05 819.31,1082.76 824.49,1099.47 831.259,1116.18 838.282,1130.05 839.799,1132.89 850.486,1149.6 862.009,1164.58 863.419,1166.31 879.245,1183.01 
  885.735,1188.96 898.397,1199.72 909.461,1208 921.689,1216.43 933.187,1223.51 950.293,1233.14 956.913,1236.51 980.639,1247.54 986.087,1249.85 1004.37,1256.96 
  1028.09,1265.24 1032.26,1266.56 1051.82,1272.33 1075.54,1278.59 1095.47,1283.27 1099.27,1284.11 1123,1288.83 1146.72,1292.98 1170.45,1296.6 1194.17,1299.74 
  1196.3,1299.98 1217.9,1302.34 1241.63,1304.51 1265.35,1306.29 1289.08,1307.69 1312.8,1308.74 1336.53,1309.44 1360.26,1309.8 1383.98,1309.84 1407.71,1309.57 
  1431.44,1309 1455.16,1308.12 1478.89,1306.95 1502.61,1305.5 1526.34,1303.76 1550.07,1301.73 1568,1299.98 1573.79,1299.42 1597.52,1296.79 1621.24,1293.88 
  1644.97,1290.69 1668.7,1287.21 1692.42,1283.44 1693.36,1283.27 1716.15,1279.32 1739.88,1274.91 1763.6,1270.19 1780.67,1266.56 1787.33,1265.14 1811.05,1259.73 
  1834.78,1253.99 1850.92,1249.85 1858.51,1247.9 1882.23,1241.4 1905.96,1234.54 1910.51,1233.14 1929.68,1227.23 1953.41,1219.51 1962.4,1216.43 1977.14,1211.32 
  2000.86,1202.66 2008.52,1199.72 2024.59,1193.47 2048.31,1183.75 2050.02,1183.01 2072.04,1173.38 2087.46,1166.31 2095.77,1162.4 2119.49,1150.73 2121.7,1149.6 
  2143.22,1138.23 2152.9,1132.89 2166.95,1124.88 2181.58,1116.18 2190.67,1110.57 2207.96,1099.47 2214.4,1095.16 2232.23,1082.76 2238.12,1078.46 2254.56,1066.05 
  2261.85,1060.25 2275.11,1049.34 2285.58,1040.22 2294.01,1032.63 2309.3,1017.98 2311.4,1015.92 2327.27,999.206 2333.03,992.685 2341.78,982.496 2355.03,965.786 
  2356.75,963.42 2366.97,949.077 2377.77,932.367 2380.48,927.728 2387.39,915.657 2395.92,898.947 2403.42,882.237 2404.21,880.231 2409.84,865.527 2415.27,848.817 
  2419.73,832.107 2423.26,815.397 2425.85,798.688 2427.52,781.978 2427.93,772.819 2428.27,765.268 2428.12,748.558 2427.93,745.52 2427.07,731.848 2425.12,715.138 
  2422.27,698.428 2418.52,681.718 2413.86,665.008 2408.28,648.299 2404.21,637.897 2401.7,631.589 2394.04,614.879 2385.32,598.169 2380.48,590.026 2375.35,581.459 
  2364,564.749 2356.75,555.406 2351.03,548.039 2336.07,531.329 2333.03,528.431 2318.44,514.62 2309.3,507.354 2297.1,497.91 2285.58,490.511 2269.96,481.2 
  2261.85,477.098 2238.12,466.541 2232.65,464.49 2214.4,458.219 2190.67,451.571 2173.81,447.78 2166.95,446.254 2143.22,441.995 2119.49,438.573 2095.77,435.829 
  2072.04,433.652 2048.31,431.968 2031.07,431.07 2024.59,430.737 2000.86,429.929 1977.14,429.483 1953.41,429.374 1929.68,429.583 1905.96,430.097 1882.23,430.903 
  1878.55,431.07 1858.51,432.025 1834.78,433.438 1811.05,435.128 1787.33,437.091 1763.6,439.322 1739.88,441.819 1716.15,444.581 1692.42,447.605 1691.15,447.78 
  1668.7,450.987 1644.97,454.639 1621.24,458.556 1597.52,462.739 1588.16,464.49 1573.79,467.27 1550.07,472.124 1526.34,477.251 1508.97,481.2 1502.61,482.696 
  1478.89,488.54 1455.16,494.666 1443.12,497.91 1431.44,501.171 1407.71,508.066 1386.06,514.62 1383.98,515.272 1360.26,522.986 1336.53,530.999 1335.58,531.329 
  1312.8,539.576 1290.22,548.039 1289.08,548.485 1265.35,558.006 1249.05,564.749 1241.63,567.951 1217.9,578.464 1211.31,581.459 1194.17,589.596 1176.56,598.169 
  1170.45,601.285 1146.72,613.65 1144.41,614.879 1123,626.828 1114.63,631.589 1099.27,640.774 1086.91,648.299 1075.54,655.586 1061.08,665.008 1051.82,671.379 
  1036.99,681.718 1028.09,688.286 1014.51,698.428 1004.37,706.467 993.532,715.138 
  "/>
<polyline clip-path="url(#clip542)" style="stroke:#3b0964; stroke-linecap:butt; stroke-linejoin:round; stroke-width:4; stroke-opacity:1; fill:none" points="
  1106.84,781.978 1099.27,790.606 1092.22,798.688 1079.05,815.397 1075.54,820.397 1067.34,832.107 1056.99,848.817 1051.82,858.44 1048,865.527 1040.4,882.237 
  1034.12,898.947 1029.2,915.657 1028.09,920.944 1025.69,932.367 1023.62,949.077 1023.03,965.786 1023.99,982.496 1026.59,999.206 1028.09,1005.06 1031.01,1015.92 
  1037.4,1032.63 1045.9,1049.34 1051.82,1058.61 1056.86,1066.05 1070.64,1082.76 1075.54,1087.79 1087.77,1099.47 1099.27,1108.88 1108.92,1116.18 1123,1125.49 
  1135.21,1132.89 1146.72,1139.09 1168.26,1149.6 1170.45,1150.56 1194.17,1160.13 1211.41,1166.31 1217.9,1168.44 1241.63,1175.48 1265.35,1181.64 1271.33,1183.01 
  1289.08,1186.83 1312.8,1191.26 1336.53,1195.04 1360.26,1198.21 1373.97,1199.72 1383.98,1200.77 1407.71,1202.76 1431.44,1204.26 1455.16,1205.28 1478.89,1205.86 
  1502.61,1205.99 1526.34,1205.7 1550.07,1205 1573.79,1203.89 1597.52,1202.39 1621.24,1200.5 1629.22,1199.72 1644.97,1198.19 1668.7,1195.49 1692.42,1192.39 
  1716.15,1188.9 1739.88,1185.01 1750.83,1183.01 1763.6,1180.68 1787.33,1175.92 1811.05,1170.73 1829.68,1166.31 1834.78,1165.09 1858.51,1158.93 1882.23,1152.3 
  1891.23,1149.6 1905.96,1145.12 1929.68,1137.38 1942.56,1132.89 1953.41,1129.04 1977.14,1120.04 1986.71,1116.18 2000.86,1110.33 2024.59,1099.88 2025.48,1099.47 
  2048.31,1088.51 2059.61,1082.76 2072.04,1076.2 2090.22,1066.05 2095.77,1062.81 2117.69,1049.34 2119.49,1048.17 2142.38,1032.63 2143.22,1032.02 2164.59,1015.92 
  2166.95,1014.02 2184.6,999.206 2190.67,993.708 2202.61,982.496 2214.4,970.457 2218.82,965.786 2233.3,949.077 2238.12,942.92 2246.17,932.367 2257.58,915.657 
  2261.85,908.601 2267.56,898.947 2276.2,882.237 2283.61,865.527 2285.58,860.259 2289.76,848.817 2294.74,832.107 2298.63,815.397 2301.44,798.688 2303.21,781.978 
  2303.97,765.268 2303.73,748.558 2302.53,731.848 2300.39,715.138 2297.34,698.428 2293.41,681.718 2288.63,665.008 2285.58,655.867 2282.93,648.299 2276.27,631.589 
  2268.85,614.879 2261.85,600.489 2260.66,598.169 2251.3,581.459 2241.33,564.749 2238.12,559.873 2230.06,548.039 2217.83,531.329 2214.4,527.697 2202.73,514.62 
  2190.67,507.628 2166.95,500.124 2149,497.91 2143.22,497.309 2119.49,495.943 2095.77,494.983 2072.04,494.326 2048.31,493.945 2024.59,493.828 2000.86,493.97 
  1977.14,494.366 1953.41,495.018 1929.68,495.923 1905.96,497.084 1892.13,497.91 1882.23,498.538 1858.51,500.306 1834.78,502.336 1811.05,504.63 1787.33,507.191 
  1763.6,510.024 1739.88,513.131 1729.45,514.62 1716.15,516.597 1692.42,520.41 1668.7,524.511 1644.97,528.904 1632.7,531.329 1621.24,533.682 1597.52,538.858 
  1573.79,544.345 1558.68,548.039 1550.07,550.227 1526.34,556.575 1502.61,563.254 1497.54,564.749 1478.89,570.478 1455.16,578.108 1445.17,581.459 1431.44,586.273 
  1407.71,594.938 1399.19,598.169 1383.98,604.214 1360.26,614.006 1358.21,614.879 1336.53,624.598 1321.45,631.589 1312.8,635.814 1289.08,647.769 1288.05,648.299 
  1265.35,660.737 1257.75,665.008 1241.63,674.643 1230.05,681.718 1217.9,689.64 1204.69,698.428 1194.17,705.924 1181.46,715.138 1170.45,723.735 1160.2,731.848 
  1146.72,743.377 1140.73,748.558 1123,765.229 1122.96,765.268 1106.84,781.978 
  "/>
<polyline clip-path="url(#clip542)" style="stroke:#1f0c47; stroke-linecap:butt; stroke-linejoin:round; stroke-width:4; stroke-opacity:1; fill:none" points="
  1254.66,865.527 1249.91,882.237 1247.23,898.947 1246.7,915.657 1248.44,932.367 1252.62,949.077 1259.45,965.786 1265.35,976.066 1269.29,982.496 1282.64,999.206 
  1289.08,1005.66 1300.18,1015.92 1312.8,1025.57 1322.98,1032.63 1336.53,1040.68 1352.86,1049.34 1360.26,1052.78 1383.98,1062.6 1393.49,1066.05 1407.71,1070.69 
  1431.44,1077.39 1454.05,1082.76 1455.16,1083 1478.89,1087.44 1502.61,1091.02 1526.34,1093.81 1550.07,1095.85 1573.79,1097.19 1597.52,1097.85 1621.24,1097.88 
  1644.97,1097.28 1668.7,1096.08 1692.42,1094.28 1716.15,1091.9 1739.88,1088.92 1763.6,1085.35 1778.23,1082.76 1787.33,1081.14 1811.05,1076.27 1834.78,1070.73 
  1852.62,1066.05 1858.51,1064.48 1882.23,1057.43 1905.96,1049.59 1906.66,1049.34 1929.68,1040.76 1949.49,1032.63 1953.41,1030.96 1977.14,1019.93 1985.08,1015.92 
  2000.86,1007.51 2015.28,999.206 2024.59,993.47 2041.18,982.496 2048.31,977.37 2063.47,965.786 2072.04,958.548 2082.7,949.077 2095.77,936.012 2099.27,932.367 
  2113.38,915.657 2119.49,907.234 2125.34,898.947 2135.3,882.237 2143.22,866.081 2143.49,865.527 2149.84,848.817 2154.6,832.107 2157.84,815.397 2159.59,798.688 
  2159.9,781.978 2158.79,765.268 2156.28,748.558 2152.37,731.848 2147.06,715.138 2143.22,705.444 2140.16,698.428 2131.38,681.718 2120.84,665.008 2119.49,663.134 
  2107.16,648.299 2095.77,636.701 2089.68,631.589 2072.04,619.053 2064.46,614.879 2048.31,607.414 2024.59,599.56 2018.78,598.169 2000.86,594.529 1977.14,591.241 
  1953.41,589.164 1929.68,588.03 1905.96,587.664 1882.23,587.948 1858.51,588.802 1834.78,590.174 1811.05,592.028 1787.33,594.34 1763.6,597.094 1755.67,598.169 
  1739.88,600.382 1716.15,604.16 1692.42,608.376 1668.7,613.032 1660.13,614.879 1644.97,618.27 1621.24,624.052 1597.52,630.302 1592.98,631.589 1573.79,637.271 
  1550.07,644.801 1539.72,648.299 1526.34,653.061 1502.61,662.033 1495.16,665.008 1478.89,671.906 1456.93,681.718 1455.16,682.566 1431.44,694.443 1423.81,698.428 
  1407.71,707.513 1394.7,715.138 1383.98,721.989 1369.05,731.848 1360.26,738.239 1346.43,748.558 1336.53,756.784 1326.53,765.268 1312.8,778.372 1309.09,781.978 
  1293.98,798.688 1289.08,804.996 1281.06,815.397 1270.21,832.107 1265.35,841.334 1261.41,848.817 1254.66,865.527 
  "/>
<polyline clip-path="url(#clip542)" style="stroke:#090621; stroke-linecap:butt; stroke-linejoin:round; stroke-width:4; stroke-opacity:1; fill:none" points="
  1494.1,898.947 1502.61,914.21 1503.49,915.657 1518.91,932.367 1526.34,938.179 1542.28,949.077 1550.07,953.257 1573.79,963.997 1578.57,965.786 1597.52,971.768 
  1621.24,977.586 1644.97,981.8 1650.7,982.496 1668.7,984.473 1692.42,985.876 1716.15,986.105 1739.88,985.194 1763.6,983.15 1768.39,982.496 1787.33,979.918 
  1811.05,975.454 1834.78,969.663 1847.58,965.786 1858.51,962.337 1882.23,953.193 1891.29,949.077 1905.96,941.709 1921.98,932.367 1929.68,927.114 1944.73,915.657 
  1953.41,907.412 1961.72,898.947 1974.14,882.237 1977.14,876.382 1982.59,865.527 1987.53,848.817 1989.2,832.107 1987.63,815.397 1982.73,798.688 1977.14,787.311 
  1974.12,781.978 1960.8,765.268 1953.41,758.151 1941.25,748.558 1929.68,741.071 1911.34,731.848 1905.96,729.512 1882.23,721.631 1858.51,716.203 1851.37,715.138 
  1834.78,712.87 1811.05,711.185 1787.33,710.904 1763.6,711.887 1739.88,714.041 1731.95,715.138 1716.15,717.392 1692.42,721.927 1668.7,727.594 1653.79,731.848 
  1644.97,734.541 1621.24,742.997 1607.57,748.558 1597.52,753.083 1573.79,765.088 1573.47,765.268 1550.07,780.141 1547.39,781.978 1527.01,798.688 1526.34,799.375 
  1511.5,815.397 1502.61,828.332 1500.09,832.107 1492.7,848.817 1489.12,865.527 1489.49,882.237 1494.1,898.947 
  "/>
<polyline clip-path="url(#clip542)" style="stroke:#c271d2; stroke-linecap:butt; stroke-linejoin:round; stroke-width:4; stroke-opacity:1; fill:none" points="
  1771.67,875.767 1374.47,1232.17 
  "/>
<polyline clip-path="url(#clip542)" style="stroke:#c271d2; stroke-linecap:butt; stroke-linejoin:round; stroke-width:4; stroke-opacity:1; fill:none" points="
  1417.95,1220.25 1374.47,1232.17 1391.02,1190.24 
  "/>
<polyline clip-path="url(#clip542)" style="stroke:#c271d2; stroke-linecap:butt; stroke-linejoin:round; stroke-width:4; stroke-opacity:1; fill:none" points="
  1374.47,1232.17 1771.67,875.767 
  "/>
<polyline clip-path="url(#clip542)" style="stroke:#ac8d18; stroke-linecap:butt; stroke-linejoin:round; stroke-width:4; stroke-opacity:1; fill:none" points="
  1791.24,865.022 2382.47,593.892 
  "/>
<polyline clip-path="url(#clip542)" style="stroke:#ac8d18; stroke-linecap:butt; stroke-linejoin:round; stroke-width:4; stroke-opacity:1; fill:none" points="
  2337.42,592.374 2382.47,593.892 2354.23,629.024 
  "/>
<polyline clip-path="url(#clip542)" style="stroke:#ac8d18; stroke-linecap:butt; stroke-linejoin:round; stroke-width:4; stroke-opacity:1; fill:none" points="
  2382.47,593.892 1791.24,865.022 
  "/>
<polyline clip-path="url(#clip542)" style="stroke:#00a9ad; stroke-linecap:butt; stroke-linejoin:round; stroke-width:4; stroke-opacity:1; fill:none" points="
  1388.02,1051.27 909.423,1378.58 
  "/>
<polyline clip-path="url(#clip542)" style="stroke:#00a9ad; stroke-linecap:butt; stroke-linejoin:round; stroke-width:4; stroke-opacity:1; fill:none" points="
  954.085,1372.46 909.423,1378.58 931.324,1339.18 
  "/>
<polyline clip-path="url(#clip542)" style="stroke:#00a9ad; stroke-linecap:butt; stroke-linejoin:round; stroke-width:4; stroke-opacity:1; fill:none" points="
  909.423,1378.58 1388.02,1051.27 
  "/>
<polyline clip-path="url(#clip542)" style="stroke:#ed5d92; stroke-linecap:butt; stroke-linejoin:round; stroke-width:4; stroke-opacity:1; fill:none" points="
  1887.15,777.273 2463.96,497.605 
  "/>
<polyline clip-path="url(#clip542)" style="stroke:#ed5d92; stroke-linecap:butt; stroke-linejoin:round; stroke-width:4; stroke-opacity:1; fill:none" points="
  2418.88,497.056 2463.96,497.605 2436.47,533.336 
  "/>
<polyline clip-path="url(#clip542)" style="stroke:#ed5d92; stroke-linecap:butt; stroke-linejoin:round; stroke-width:4; stroke-opacity:1; fill:none" points="
  2463.96,497.605 1887.15,777.273 
  "/>
<polyline clip-path="url(#clip542)" style="stroke:#c68125; stroke-linecap:butt; stroke-linejoin:round; stroke-width:4; stroke-opacity:1; fill:none" points="
  1004.37,1226.77 491.796,1539.39 
  "/>
<polyline clip-path="url(#clip542)" style="stroke:#c68125; stroke-linecap:butt; stroke-linejoin:round; stroke-width:4; stroke-opacity:1; fill:none" points="
  536.716,1535.61 491.796,1539.39 515.721,1501.19 
  "/>
<polyline clip-path="url(#clip542)" style="stroke:#c68125; stroke-linecap:butt; stroke-linejoin:round; stroke-width:4; stroke-opacity:1; fill:none" points="
  491.796,1539.39 1004.37,1226.77 
  "/>
<polyline clip-path="url(#clip542)" style="stroke:#00a98d; stroke-linecap:butt; stroke-linejoin:round; stroke-width:4; stroke-opacity:1; fill:none" points="
  1983.07,689.523 2547.25,402.764 
  "/>
<polyline clip-path="url(#clip542)" style="stroke:#00a98d; stroke-linecap:butt; stroke-linejoin:round; stroke-width:4; stroke-opacity:1; fill:none" points="
  2502.17,403.061 2547.25,402.764 2520.44,439.005 
  "/>
<polyline clip-path="url(#clip542)" style="stroke:#00a98d; stroke-linecap:butt; stroke-linejoin:round; stroke-width:4; stroke-opacity:1; fill:none" points="
  2547.25,402.764 1983.07,689.523 
  "/>
</svg>
