<?xml version="1.0" encoding="utf-8"?>
<svg xmlns="http://www.w3.org/2000/svg" xmlns:xlink="http://www.w3.org/1999/xlink" width="672" height="480" viewBox="0 0 2688 1920">
<defs>
  <clipPath id="clip390">
    <rect x="0" y="0" width="2688" height="1920"/>
  </clipPath>
</defs>
<path clip-path="url(#clip390)" d="
M0 1920 L2688 1920 L2688 0 L0 0  Z
  " fill="#ffffff" fill-rule="evenodd" fill-opacity="1"/>
<defs>
  <clipPath id="clip391">
    <rect x="537" y="0" width="1883" height="1883"/>
  </clipPath>
</defs>
<path clip-path="url(#clip390)" d="
M196.816 1800.78 L2640.76 1800.78 L2640.76 47.2441 L196.816 47.2441  Z
  " fill="#ffffff" fill-rule="evenodd" fill-opacity="1"/>
<defs>
  <clipPath id="clip392">
    <rect x="196" y="47" width="2445" height="1755"/>
  </clipPath>
</defs>
<polyline clip-path="url(#clip392)" style="stroke:#000000; stroke-linecap:butt; stroke-linejoin:round; stroke-width:2; stroke-opacity:0.1; fill:none" points="
  265.984,1800.78 265.984,47.2441 
  "/>
<polyline clip-path="url(#clip392)" style="stroke:#000000; stroke-linecap:butt; stroke-linejoin:round; stroke-width:2; stroke-opacity:0.1; fill:none" points="
  727.105,1800.78 727.105,47.2441 
  "/>
<polyline clip-path="url(#clip392)" style="stroke:#000000; stroke-linecap:butt; stroke-linejoin:round; stroke-width:2; stroke-opacity:0.1; fill:none" points="
  1188.23,1800.78 1188.23,47.2441 
  "/>
<polyline clip-path="url(#clip392)" style="stroke:#000000; stroke-linecap:butt; stroke-linejoin:round; stroke-width:2; stroke-opacity:0.1; fill:none" points="
  1649.35,1800.78 1649.35,47.2441 
  "/>
<polyline clip-path="url(#clip392)" style="stroke:#000000; stroke-linecap:butt; stroke-linejoin:round; stroke-width:2; stroke-opacity:0.1; fill:none" points="
  2110.47,1800.78 2110.47,47.2441 
  "/>
<polyline clip-path="url(#clip392)" style="stroke:#000000; stroke-linecap:butt; stroke-linejoin:round; stroke-width:2; stroke-opacity:0.1; fill:none" points="
  2571.59,1800.78 2571.59,47.2441 
  "/>
<polyline clip-path="url(#clip390)" style="stroke:#000000; stroke-linecap:butt; stroke-linejoin:round; stroke-width:4; stroke-opacity:1; fill:none" points="
  196.816,1800.78 2640.76,1800.78 
  "/>
<polyline clip-path="url(#clip390)" style="stroke:#000000; stroke-linecap:butt; stroke-linejoin:round; stroke-width:4; stroke-opacity:1; fill:none" points="
  265.984,1800.78 265.984,1781.88 
  "/>
<polyline clip-path="url(#clip390)" style="stroke:#000000; stroke-linecap:butt; stroke-linejoin:round; stroke-width:4; stroke-opacity:1; fill:none" points="
  727.105,1800.78 727.105,1781.88 
  "/>
<polyline clip-path="url(#clip390)" style="stroke:#000000; stroke-linecap:butt; stroke-linejoin:round; stroke-width:4; stroke-opacity:1; fill:none" points="
  1188.23,1800.78 1188.23,1781.88 
  "/>
<polyline clip-path="url(#clip390)" style="stroke:#000000; stroke-linecap:butt; stroke-linejoin:round; stroke-width:4; stroke-opacity:1; fill:none" points="
  1649.35,1800.78 1649.35,1781.88 
  "/>
<polyline clip-path="url(#clip390)" style="stroke:#000000; stroke-linecap:butt; stroke-linejoin:round; stroke-width:4; stroke-opacity:1; fill:none" points="
  2110.47,1800.78 2110.47,1781.88 
  "/>
<polyline clip-path="url(#clip390)" style="stroke:#000000; stroke-linecap:butt; stroke-linejoin:round; stroke-width:4; stroke-opacity:1; fill:none" points="
  2571.59,1800.78 2571.59,1781.88 
  "/>
<path clip-path="url(#clip390)" d="M213.01 1848.65 L242.686 1848.65 L242.686 1852.59 L213.01 1852.59 L213.01 1848.65 Z" fill="#000000" fill-rule="evenodd" fill-opacity="1" /><path clip-path="url(#clip390)" d="M253.588 1861.55 L261.227 1861.55 L261.227 1835.18 L252.917 1836.85 L252.917 1832.59 L261.181 1830.92 L265.857 1830.92 L265.857 1861.55 L273.496 1861.55 L273.496 1865.48 L253.588 1865.48 L253.588 1861.55 Z" fill="#000000" fill-rule="evenodd" fill-opacity="1" /><path clip-path="url(#clip390)" d="M282.94 1859.6 L287.824 1859.6 L287.824 1865.48 L282.94 1865.48 L282.94 1859.6 Z" fill="#000000" fill-rule="evenodd" fill-opacity="1" /><path clip-path="url(#clip390)" d="M298.056 1830.92 L316.412 1830.92 L316.412 1834.86 L302.338 1834.86 L302.338 1843.33 Q303.357 1842.98 304.375 1842.82 Q305.394 1842.64 306.412 1842.64 Q312.199 1842.64 315.579 1845.81 Q318.958 1848.98 318.958 1854.4 Q318.958 1859.97 315.486 1863.08 Q312.014 1866.15 305.695 1866.15 Q303.519 1866.15 301.25 1865.78 Q299.005 1865.41 296.597 1864.67 L296.597 1859.97 Q298.681 1861.11 300.903 1861.66 Q303.125 1862.22 305.602 1862.22 Q309.607 1862.22 311.945 1860.11 Q314.282 1858.01 314.282 1854.4 Q314.282 1850.78 311.945 1848.68 Q309.607 1846.57 305.602 1846.57 Q303.727 1846.57 301.852 1846.99 Q300 1847.4 298.056 1848.28 L298.056 1830.92 Z" fill="#000000" fill-rule="evenodd" fill-opacity="1" /><path clip-path="url(#clip390)" d="M673.633 1848.65 L703.309 1848.65 L703.309 1852.59 L673.633 1852.59 L673.633 1848.65 Z" fill="#000000" fill-rule="evenodd" fill-opacity="1" /><path clip-path="url(#clip390)" d="M714.211 1861.55 L721.85 1861.55 L721.85 1835.18 L713.54 1836.85 L713.54 1832.59 L721.804 1830.92 L726.48 1830.92 L726.48 1861.55 L734.119 1861.55 L734.119 1865.48 L714.211 1865.48 L714.211 1861.55 Z" fill="#000000" fill-rule="evenodd" fill-opacity="1" /><path clip-path="url(#clip390)" d="M743.563 1859.6 L748.447 1859.6 L748.447 1865.48 L743.563 1865.48 L743.563 1859.6 Z" fill="#000000" fill-rule="evenodd" fill-opacity="1" /><path clip-path="url(#clip390)" d="M768.632 1834 Q765.021 1834 763.193 1837.57 Q761.387 1841.11 761.387 1848.24 Q761.387 1855.34 763.193 1858.91 Q765.021 1862.45 768.632 1862.45 Q772.267 1862.45 774.072 1858.91 Q775.901 1855.34 775.901 1848.24 Q775.901 1841.11 774.072 1837.57 Q772.267 1834 768.632 1834 M768.632 1830.3 Q774.443 1830.3 777.498 1834.9 Q780.577 1839.49 780.577 1848.24 Q780.577 1856.96 777.498 1861.57 Q774.443 1866.15 768.632 1866.15 Q762.822 1866.15 759.744 1861.57 Q756.688 1856.96 756.688 1848.24 Q756.688 1839.49 759.744 1834.9 Q762.822 1830.3 768.632 1830.3 Z" fill="#000000" fill-rule="evenodd" fill-opacity="1" /><path clip-path="url(#clip390)" d="M1135.25 1848.65 L1164.93 1848.65 L1164.93 1852.59 L1135.25 1852.59 L1135.25 1848.65 Z" fill="#000000" fill-rule="evenodd" fill-opacity="1" /><path clip-path="url(#clip390)" d="M1185.02 1834 Q1181.41 1834 1179.58 1837.57 Q1177.77 1841.11 1177.77 1848.24 Q1177.77 1855.34 1179.58 1858.91 Q1181.41 1862.45 1185.02 1862.45 Q1188.65 1862.45 1190.46 1858.91 Q1192.29 1855.34 1192.29 1848.24 Q1192.29 1841.11 1190.46 1837.57 Q1188.65 1834 1185.02 1834 M1185.02 1830.3 Q1190.83 1830.3 1193.89 1834.9 Q1196.96 1839.49 1196.96 1848.24 Q1196.96 1856.96 1193.89 1861.57 Q1190.83 1866.15 1185.02 1866.15 Q1179.21 1866.15 1176.13 1861.57 Q1173.08 1856.96 1173.08 1848.24 Q1173.08 1839.49 1176.13 1834.9 Q1179.21 1830.3 1185.02 1830.3 Z" fill="#000000" fill-rule="evenodd" fill-opacity="1" /><path clip-path="url(#clip390)" d="M1205.18 1859.6 L1210.07 1859.6 L1210.07 1865.48 L1205.18 1865.48 L1205.18 1859.6 Z" fill="#000000" fill-rule="evenodd" fill-opacity="1" /><path clip-path="url(#clip390)" d="M1220.3 1830.92 L1238.65 1830.92 L1238.65 1834.86 L1224.58 1834.86 L1224.58 1843.33 Q1225.6 1842.98 1226.62 1842.82 Q1227.64 1842.64 1228.65 1842.64 Q1234.44 1842.64 1237.82 1845.81 Q1241.2 1848.98 1241.2 1854.4 Q1241.2 1859.97 1237.73 1863.08 Q1234.26 1866.15 1227.94 1866.15 Q1225.76 1866.15 1223.49 1865.78 Q1221.25 1865.41 1218.84 1864.67 L1218.84 1859.97 Q1220.92 1861.11 1223.14 1861.66 Q1225.37 1862.22 1227.84 1862.22 Q1231.85 1862.22 1234.19 1860.11 Q1236.52 1858.01 1236.52 1854.4 Q1236.52 1850.78 1234.19 1848.68 Q1231.85 1846.57 1227.84 1846.57 Q1225.97 1846.57 1224.09 1846.99 Q1222.24 1847.4 1220.3 1848.28 L1220.3 1830.92 Z" fill="#000000" fill-rule="evenodd" fill-opacity="1" /><path clip-path="url(#clip390)" d="M1626.73 1834 Q1623.12 1834 1621.29 1837.57 Q1619.49 1841.11 1619.49 1848.24 Q1619.49 1855.34 1621.29 1858.91 Q1623.12 1862.45 1626.73 1862.45 Q1630.36 1862.45 1632.17 1858.91 Q1634 1855.34 1634 1848.24 Q1634 1841.11 1632.17 1837.57 Q1630.36 1834 1626.73 1834 M1626.73 1830.3 Q1632.54 1830.3 1635.6 1834.9 Q1638.68 1839.49 1638.68 1848.24 Q1638.68 1856.96 1635.6 1861.57 Q1632.54 1866.15 1626.73 1866.15 Q1620.92 1866.15 1617.84 1861.57 Q1614.79 1856.96 1614.79 1848.24 Q1614.79 1839.49 1617.84 1834.9 Q1620.92 1830.3 1626.73 1830.3 Z" fill="#000000" fill-rule="evenodd" fill-opacity="1" /><path clip-path="url(#clip390)" d="M1646.89 1859.6 L1651.78 1859.6 L1651.78 1865.48 L1646.89 1865.48 L1646.89 1859.6 Z" fill="#000000" fill-rule="evenodd" fill-opacity="1" /><path clip-path="url(#clip390)" d="M1671.96 1834 Q1668.35 1834 1666.52 1837.57 Q1664.72 1841.11 1664.72 1848.24 Q1664.72 1855.34 1666.52 1858.91 Q1668.35 1862.45 1671.96 1862.45 Q1675.6 1862.45 1677.4 1858.91 Q1679.23 1855.34 1679.23 1848.24 Q1679.23 1841.11 1677.4 1837.57 Q1675.6 1834 1671.96 1834 M1671.96 1830.3 Q1677.77 1830.3 1680.83 1834.9 Q1683.91 1839.49 1683.91 1848.24 Q1683.91 1856.96 1680.83 1861.57 Q1677.77 1866.15 1671.96 1866.15 Q1666.15 1866.15 1663.07 1861.57 Q1660.02 1856.96 1660.02 1848.24 Q1660.02 1839.49 1663.07 1834.9 Q1666.15 1830.3 1671.96 1830.3 Z" fill="#000000" fill-rule="evenodd" fill-opacity="1" /><path clip-path="url(#clip390)" d="M2088.35 1834 Q2084.74 1834 2082.91 1837.57 Q2081.1 1841.11 2081.1 1848.24 Q2081.1 1855.34 2082.91 1858.91 Q2084.74 1862.45 2088.35 1862.45 Q2091.98 1862.45 2093.79 1858.91 Q2095.62 1855.34 2095.62 1848.24 Q2095.62 1841.11 2093.79 1837.57 Q2091.98 1834 2088.35 1834 M2088.35 1830.3 Q2094.16 1830.3 2097.21 1834.9 Q2100.29 1839.49 2100.29 1848.24 Q2100.29 1856.96 2097.21 1861.57 Q2094.16 1866.15 2088.35 1866.15 Q2082.54 1866.15 2079.46 1861.57 Q2076.4 1856.96 2076.4 1848.24 Q2076.4 1839.49 2079.46 1834.9 Q2082.54 1830.3 2088.35 1830.3 Z" fill="#000000" fill-rule="evenodd" fill-opacity="1" /><path clip-path="url(#clip390)" d="M2108.51 1859.6 L2113.4 1859.6 L2113.4 1865.48 L2108.51 1865.48 L2108.51 1859.6 Z" fill="#000000" fill-rule="evenodd" fill-opacity="1" /><path clip-path="url(#clip390)" d="M2123.63 1830.92 L2141.98 1830.92 L2141.98 1834.86 L2127.91 1834.86 L2127.91 1843.33 Q2128.93 1842.98 2129.95 1842.82 Q2130.96 1842.64 2131.98 1842.64 Q2137.77 1842.64 2141.15 1845.81 Q2144.53 1848.98 2144.53 1854.4 Q2144.53 1859.97 2141.06 1863.08 Q2137.58 1866.15 2131.27 1866.15 Q2129.09 1866.15 2126.82 1865.78 Q2124.58 1865.41 2122.17 1864.67 L2122.17 1859.97 Q2124.25 1861.11 2126.47 1861.66 Q2128.7 1862.22 2131.17 1862.22 Q2135.18 1862.22 2137.52 1860.11 Q2139.85 1858.01 2139.85 1854.4 Q2139.85 1850.78 2137.52 1848.68 Q2135.18 1846.57 2131.17 1846.57 Q2129.3 1846.57 2127.42 1846.99 Q2125.57 1847.4 2123.63 1848.28 L2123.63 1830.92 Z" fill="#000000" fill-rule="evenodd" fill-opacity="1" /><path clip-path="url(#clip390)" d="M2538.74 1861.55 L2546.38 1861.55 L2546.38 1835.18 L2538.07 1836.85 L2538.07 1832.59 L2546.33 1830.92 L2551.01 1830.92 L2551.01 1861.55 L2558.65 1861.55 L2558.65 1865.48 L2538.74 1865.48 L2538.74 1861.55 Z" fill="#000000" fill-rule="evenodd" fill-opacity="1" /><path clip-path="url(#clip390)" d="M2568.09 1859.6 L2572.98 1859.6 L2572.98 1865.48 L2568.09 1865.48 L2568.09 1859.6 Z" fill="#000000" fill-rule="evenodd" fill-opacity="1" /><path clip-path="url(#clip390)" d="M2593.16 1834 Q2589.55 1834 2587.72 1837.57 Q2585.92 1841.11 2585.92 1848.24 Q2585.92 1855.34 2587.72 1858.91 Q2589.55 1862.45 2593.16 1862.45 Q2596.8 1862.45 2598.6 1858.91 Q2600.43 1855.34 2600.43 1848.24 Q2600.43 1841.11 2598.6 1837.57 Q2596.8 1834 2593.16 1834 M2593.16 1830.3 Q2598.97 1830.3 2602.03 1834.9 Q2605.11 1839.49 2605.11 1848.24 Q2605.11 1856.96 2602.03 1861.57 Q2598.97 1866.15 2593.16 1866.15 Q2587.35 1866.15 2584.27 1861.57 Q2581.22 1856.96 2581.22 1848.24 Q2581.22 1839.49 2584.27 1834.9 Q2587.35 1830.3 2593.16 1830.3 Z" fill="#000000" fill-rule="evenodd" fill-opacity="1" /><polyline clip-path="url(#clip392)" style="stroke:#000000; stroke-linecap:butt; stroke-linejoin:round; stroke-width:2; stroke-opacity:0.1; fill:none" points="
  196.816,1688.7 2640.76,1688.7 
  "/>
<polyline clip-path="url(#clip392)" style="stroke:#000000; stroke-linecap:butt; stroke-linejoin:round; stroke-width:2; stroke-opacity:0.1; fill:none" points="
  196.816,1370.34 2640.76,1370.34 
  "/>
<polyline clip-path="url(#clip392)" style="stroke:#000000; stroke-linecap:butt; stroke-linejoin:round; stroke-width:2; stroke-opacity:0.1; fill:none" points="
  196.816,1051.97 2640.76,1051.97 
  "/>
<polyline clip-path="url(#clip392)" style="stroke:#000000; stroke-linecap:butt; stroke-linejoin:round; stroke-width:2; stroke-opacity:0.1; fill:none" points="
  196.816,733.605 2640.76,733.605 
  "/>
<polyline clip-path="url(#clip392)" style="stroke:#000000; stroke-linecap:butt; stroke-linejoin:round; stroke-width:2; stroke-opacity:0.1; fill:none" points="
  196.816,415.238 2640.76,415.238 
  "/>
<polyline clip-path="url(#clip392)" style="stroke:#000000; stroke-linecap:butt; stroke-linejoin:round; stroke-width:2; stroke-opacity:0.1; fill:none" points="
  196.816,96.8724 2640.76,96.8724 
  "/>
<polyline clip-path="url(#clip390)" style="stroke:#000000; stroke-linecap:butt; stroke-linejoin:round; stroke-width:4; stroke-opacity:1; fill:none" points="
  196.816,1800.78 196.816,47.2441 
  "/>
<polyline clip-path="url(#clip390)" style="stroke:#000000; stroke-linecap:butt; stroke-linejoin:round; stroke-width:4; stroke-opacity:1; fill:none" points="
  196.816,1688.7 215.714,1688.7 
  "/>
<polyline clip-path="url(#clip390)" style="stroke:#000000; stroke-linecap:butt; stroke-linejoin:round; stroke-width:4; stroke-opacity:1; fill:none" points="
  196.816,1370.34 215.714,1370.34 
  "/>
<polyline clip-path="url(#clip390)" style="stroke:#000000; stroke-linecap:butt; stroke-linejoin:round; stroke-width:4; stroke-opacity:1; fill:none" points="
  196.816,1051.97 215.714,1051.97 
  "/>
<polyline clip-path="url(#clip390)" style="stroke:#000000; stroke-linecap:butt; stroke-linejoin:round; stroke-width:4; stroke-opacity:1; fill:none" points="
  196.816,733.605 215.714,733.605 
  "/>
<polyline clip-path="url(#clip390)" style="stroke:#000000; stroke-linecap:butt; stroke-linejoin:round; stroke-width:4; stroke-opacity:1; fill:none" points="
  196.816,415.238 215.714,415.238 
  "/>
<polyline clip-path="url(#clip390)" style="stroke:#000000; stroke-linecap:butt; stroke-linejoin:round; stroke-width:4; stroke-opacity:1; fill:none" points="
  196.816,96.8724 215.714,96.8724 
  "/>
<path clip-path="url(#clip390)" d="M50.5475 1689.15 L80.2233 1689.15 L80.2233 1693.09 L50.5475 1693.09 L50.5475 1689.15 Z" fill="#000000" fill-rule="evenodd" fill-opacity="1" /><path clip-path="url(#clip390)" d="M94.3436 1702.05 L110.663 1702.05 L110.663 1705.98 L88.7186 1705.98 L88.7186 1702.05 Q91.3806 1699.29 95.9639 1694.66 Q100.57 1690.01 101.751 1688.67 Q103.996 1686.14 104.876 1684.41 Q105.779 1682.65 105.779 1680.96 Q105.779 1678.21 103.834 1676.47 Q101.913 1674.73 98.8111 1674.73 Q96.6121 1674.73 94.1584 1675.5 Q91.7278 1676.26 88.9501 1677.81 L88.9501 1673.09 Q91.7741 1671.96 94.2278 1671.38 Q96.6815 1670.8 98.7185 1670.8 Q104.089 1670.8 107.283 1673.48 Q110.478 1676.17 110.478 1680.66 Q110.478 1682.79 109.668 1684.71 Q108.881 1686.61 106.774 1689.2 Q106.195 1689.87 103.094 1693.09 Q99.9917 1696.28 94.3436 1702.05 Z" fill="#000000" fill-rule="evenodd" fill-opacity="1" /><path clip-path="url(#clip390)" d="M120.478 1700.1 L125.362 1700.1 L125.362 1705.98 L120.478 1705.98 L120.478 1700.1 Z" fill="#000000" fill-rule="evenodd" fill-opacity="1" /><path clip-path="url(#clip390)" d="M135.593 1671.42 L153.95 1671.42 L153.95 1675.36 L139.876 1675.36 L139.876 1683.83 Q140.894 1683.48 141.913 1683.32 Q142.931 1683.14 143.95 1683.14 Q149.737 1683.14 153.116 1686.31 Q156.496 1689.48 156.496 1694.89 Q156.496 1700.47 153.024 1703.58 Q149.552 1706.65 143.232 1706.65 Q141.056 1706.65 138.788 1706.28 Q136.542 1705.91 134.135 1705.17 L134.135 1700.47 Q136.218 1701.61 138.441 1702.16 Q140.663 1702.72 143.14 1702.72 Q147.144 1702.72 149.482 1700.61 Q151.82 1698.51 151.82 1694.89 Q151.82 1691.28 149.482 1689.18 Q147.144 1687.07 143.14 1687.07 Q141.265 1687.07 139.39 1687.49 Q137.538 1687.9 135.593 1688.78 L135.593 1671.42 Z" fill="#000000" fill-rule="evenodd" fill-opacity="1" /><path clip-path="url(#clip390)" d="M49.5521 1370.79 L79.2279 1370.79 L79.2279 1374.72 L49.5521 1374.72 L49.5521 1370.79 Z" fill="#000000" fill-rule="evenodd" fill-opacity="1" /><path clip-path="url(#clip390)" d="M93.3482 1383.68 L109.668 1383.68 L109.668 1387.62 L87.7232 1387.62 L87.7232 1383.68 Q90.3852 1380.93 94.9685 1376.3 Q99.575 1371.64 100.756 1370.3 Q103.001 1367.78 103.881 1366.04 Q104.783 1364.28 104.783 1362.59 Q104.783 1359.84 102.839 1358.1 Q100.918 1356.37 97.8158 1356.37 Q95.6167 1356.37 93.163 1357.13 Q90.7325 1357.89 87.9547 1359.45 L87.9547 1354.72 Q90.7788 1353.59 93.2324 1353.01 Q95.6861 1352.43 97.7232 1352.43 Q103.094 1352.43 106.288 1355.12 Q109.482 1357.8 109.482 1362.29 Q109.482 1364.42 108.672 1366.34 Q107.885 1368.24 105.779 1370.83 Q105.2 1371.51 102.098 1374.72 Q98.9963 1377.92 93.3482 1383.68 Z" fill="#000000" fill-rule="evenodd" fill-opacity="1" /><path clip-path="url(#clip390)" d="M119.482 1381.74 L124.367 1381.74 L124.367 1387.62 L119.482 1387.62 L119.482 1381.74 Z" fill="#000000" fill-rule="evenodd" fill-opacity="1" /><path clip-path="url(#clip390)" d="M144.552 1356.14 Q140.941 1356.14 139.112 1359.7 Q137.306 1363.24 137.306 1370.37 Q137.306 1377.48 139.112 1381.04 Q140.941 1384.58 144.552 1384.58 Q148.186 1384.58 149.991 1381.04 Q151.82 1377.48 151.82 1370.37 Q151.82 1363.24 149.991 1359.7 Q148.186 1356.14 144.552 1356.14 M144.552 1352.43 Q150.362 1352.43 153.417 1357.04 Q156.496 1361.62 156.496 1370.37 Q156.496 1379.1 153.417 1383.7 Q150.362 1388.29 144.552 1388.29 Q138.741 1388.29 135.663 1383.7 Q132.607 1379.1 132.607 1370.37 Q132.607 1361.62 135.663 1357.04 Q138.741 1352.43 144.552 1352.43 Z" fill="#000000" fill-rule="evenodd" fill-opacity="1" /><path clip-path="url(#clip390)" d="M50.5475 1052.42 L80.2233 1052.42 L80.2233 1056.36 L50.5475 1056.36 L50.5475 1052.42 Z" fill="#000000" fill-rule="evenodd" fill-opacity="1" /><path clip-path="url(#clip390)" d="M91.126 1065.32 L98.7648 1065.32 L98.7648 1038.95 L90.4547 1040.62 L90.4547 1036.36 L98.7185 1034.69 L103.394 1034.69 L103.394 1065.32 L111.033 1065.32 L111.033 1069.25 L91.126 1069.25 L91.126 1065.32 Z" fill="#000000" fill-rule="evenodd" fill-opacity="1" /><path clip-path="url(#clip390)" d="M120.478 1063.37 L125.362 1063.37 L125.362 1069.25 L120.478 1069.25 L120.478 1063.37 Z" fill="#000000" fill-rule="evenodd" fill-opacity="1" /><path clip-path="url(#clip390)" d="M135.593 1034.69 L153.95 1034.69 L153.95 1038.63 L139.876 1038.63 L139.876 1047.1 Q140.894 1046.75 141.913 1046.59 Q142.931 1046.4 143.95 1046.4 Q149.737 1046.4 153.116 1049.57 Q156.496 1052.75 156.496 1058.16 Q156.496 1063.74 153.024 1066.84 Q149.552 1069.92 143.232 1069.92 Q141.056 1069.92 138.788 1069.55 Q136.542 1069.18 134.135 1068.44 L134.135 1063.74 Q136.218 1064.88 138.441 1065.43 Q140.663 1065.99 143.14 1065.99 Q147.144 1065.99 149.482 1063.88 Q151.82 1061.77 151.82 1058.16 Q151.82 1054.55 149.482 1052.45 Q147.144 1050.34 143.14 1050.34 Q141.265 1050.34 139.39 1050.76 Q137.538 1051.17 135.593 1052.05 L135.593 1034.69 Z" fill="#000000" fill-rule="evenodd" fill-opacity="1" /><path clip-path="url(#clip390)" d="M49.5521 734.056 L79.2279 734.056 L79.2279 737.991 L49.5521 737.991 L49.5521 734.056 Z" fill="#000000" fill-rule="evenodd" fill-opacity="1" /><path clip-path="url(#clip390)" d="M90.1306 746.949 L97.7695 746.949 L97.7695 720.584 L89.4593 722.25 L89.4593 717.991 L97.7232 716.325 L102.399 716.325 L102.399 746.949 L110.038 746.949 L110.038 750.885 L90.1306 750.885 L90.1306 746.949 Z" fill="#000000" fill-rule="evenodd" fill-opacity="1" /><path clip-path="url(#clip390)" d="M119.482 745.005 L124.367 745.005 L124.367 750.885 L119.482 750.885 L119.482 745.005 Z" fill="#000000" fill-rule="evenodd" fill-opacity="1" /><path clip-path="url(#clip390)" d="M144.552 719.403 Q140.941 719.403 139.112 722.968 Q137.306 726.51 137.306 733.639 Q137.306 740.746 139.112 744.311 Q140.941 747.852 144.552 747.852 Q148.186 747.852 149.991 744.311 Q151.82 740.746 151.82 733.639 Q151.82 726.51 149.991 722.968 Q148.186 719.403 144.552 719.403 M144.552 715.7 Q150.362 715.7 153.417 720.306 Q156.496 724.889 156.496 733.639 Q156.496 742.366 153.417 746.973 Q150.362 751.556 144.552 751.556 Q138.741 751.556 135.663 746.973 Q132.607 742.366 132.607 733.639 Q132.607 724.889 135.663 720.306 Q138.741 715.7 144.552 715.7 Z" fill="#000000" fill-rule="evenodd" fill-opacity="1" /><path clip-path="url(#clip390)" d="M50.5475 415.69 L80.2233 415.69 L80.2233 419.625 L50.5475 419.625 L50.5475 415.69 Z" fill="#000000" fill-rule="evenodd" fill-opacity="1" /><path clip-path="url(#clip390)" d="M100.316 401.037 Q96.7047 401.037 94.876 404.602 Q93.0704 408.144 93.0704 415.273 Q93.0704 422.38 94.876 425.944 Q96.7047 429.486 100.316 429.486 Q103.95 429.486 105.756 425.944 Q107.584 422.38 107.584 415.273 Q107.584 408.144 105.756 404.602 Q103.95 401.037 100.316 401.037 M100.316 397.333 Q106.126 397.333 109.181 401.94 Q112.26 406.523 112.26 415.273 Q112.26 424 109.181 428.606 Q106.126 433.19 100.316 433.19 Q94.5056 433.19 91.4269 428.606 Q88.3714 424 88.3714 415.273 Q88.3714 406.523 91.4269 401.94 Q94.5056 397.333 100.316 397.333 Z" fill="#000000" fill-rule="evenodd" fill-opacity="1" /><path clip-path="url(#clip390)" d="M120.478 426.639 L125.362 426.639 L125.362 432.518 L120.478 432.518 L120.478 426.639 Z" fill="#000000" fill-rule="evenodd" fill-opacity="1" /><path clip-path="url(#clip390)" d="M135.593 397.958 L153.95 397.958 L153.95 401.894 L139.876 401.894 L139.876 410.366 Q140.894 410.019 141.913 409.857 Q142.931 409.671 143.95 409.671 Q149.737 409.671 153.116 412.843 Q156.496 416.014 156.496 421.431 Q156.496 427.009 153.024 430.111 Q149.552 433.19 143.232 433.19 Q141.056 433.19 138.788 432.819 Q136.542 432.449 134.135 431.708 L134.135 427.009 Q136.218 428.144 138.441 428.699 Q140.663 429.255 143.14 429.255 Q147.144 429.255 149.482 427.148 Q151.82 425.042 151.82 421.431 Q151.82 417.819 149.482 415.713 Q147.144 413.607 143.14 413.607 Q141.265 413.607 139.39 414.023 Q137.538 414.44 135.593 415.32 L135.593 397.958 Z" fill="#000000" fill-rule="evenodd" fill-opacity="1" /><path clip-path="url(#clip390)" d="M99.3204 82.6711 Q95.7093 82.6711 93.8806 86.2359 Q92.075 89.7776 92.075 96.9072 Q92.075 104.014 93.8806 107.578 Q95.7093 111.12 99.3204 111.12 Q102.955 111.12 104.76 107.578 Q106.589 104.014 106.589 96.9072 Q106.589 89.7776 104.76 86.2359 Q102.955 82.6711 99.3204 82.6711 M99.3204 78.9675 Q105.131 78.9675 108.186 83.5739 Q111.265 88.1572 111.265 96.9072 Q111.265 105.634 108.186 110.24 Q105.131 114.824 99.3204 114.824 Q93.5102 114.824 90.4315 110.24 Q87.376 105.634 87.376 96.9072 Q87.376 88.1572 90.4315 83.5739 Q93.5102 78.9675 99.3204 78.9675 Z" fill="#000000" fill-rule="evenodd" fill-opacity="1" /><path clip-path="url(#clip390)" d="M119.482 108.273 L124.367 108.273 L124.367 114.152 L119.482 114.152 L119.482 108.273 Z" fill="#000000" fill-rule="evenodd" fill-opacity="1" /><path clip-path="url(#clip390)" d="M144.552 82.6711 Q140.941 82.6711 139.112 86.2359 Q137.306 89.7776 137.306 96.9072 Q137.306 104.014 139.112 107.578 Q140.941 111.12 144.552 111.12 Q148.186 111.12 149.991 107.578 Q151.82 104.014 151.82 96.9072 Q151.82 89.7776 149.991 86.2359 Q148.186 82.6711 144.552 82.6711 M144.552 78.9675 Q150.362 78.9675 153.417 83.5739 Q156.496 88.1572 156.496 96.9072 Q156.496 105.634 153.417 110.24 Q150.362 114.824 144.552 114.824 Q138.741 114.824 135.663 110.24 Q132.607 105.634 132.607 96.9072 Q132.607 88.1572 135.663 83.5739 Q138.741 78.9675 144.552 78.9675 Z" fill="#000000" fill-rule="evenodd" fill-opacity="1" /><circle clip-path="url(#clip392)" cx="1649.35" cy="96.8724" r="7.2" fill="#009af9" fill-rule="evenodd" fill-opacity="1" stroke="#000000" stroke-opacity="1" stroke-width="3.84"/>
<polyline clip-path="url(#clip392)" style="stroke:#e26f46; stroke-linecap:butt; stroke-linejoin:round; stroke-width:4; stroke-opacity:1; fill:none" points="
  2571.59,96.8724 2110.47,648.299 265.984,1751.15 2571.59,96.8724 
  "/>
</svg>
