<?xml version="1.0" encoding="utf-8"?>
<svg xmlns="http://www.w3.org/2000/svg" xmlns:xlink="http://www.w3.org/1999/xlink" width="672" height="480" viewBox="0 0 2688 1920">
<defs>
  <clipPath id="clip060">
    <rect x="0" y="0" width="2688" height="1920"/>
  </clipPath>
</defs>
<path clip-path="url(#clip060)" d="
M0 1920 L2688 1920 L2688 0 L0 0  Z
  " fill="#ffffff" fill-rule="evenodd" fill-opacity="1"/>
<defs>
  <clipPath id="clip061">
    <rect x="537" y="0" width="1883" height="1883"/>
  </clipPath>
</defs>
<path clip-path="url(#clip060)" d="
M150.358 1800.78 L2640.76 1800.78 L2640.76 47.2441 L150.358 47.2441  Z
  " fill="#ffffff" fill-rule="evenodd" fill-opacity="1"/>
<defs>
  <clipPath id="clip062">
    <rect x="150" y="47" width="2491" height="1755"/>
  </clipPath>
</defs>
<polyline clip-path="url(#clip062)" style="stroke:#000000; stroke-linecap:round; stroke-linejoin:round; stroke-width:2; stroke-opacity:0.1; fill:none" points="
  402.99,1800.78 402.99,47.2441 
  "/>
<polyline clip-path="url(#clip062)" style="stroke:#000000; stroke-linecap:round; stroke-linejoin:round; stroke-width:2; stroke-opacity:0.1; fill:none" points="
  733.846,1800.78 733.846,47.2441 
  "/>
<polyline clip-path="url(#clip062)" style="stroke:#000000; stroke-linecap:round; stroke-linejoin:round; stroke-width:2; stroke-opacity:0.1; fill:none" points="
  1064.7,1800.78 1064.7,47.2441 
  "/>
<polyline clip-path="url(#clip062)" style="stroke:#000000; stroke-linecap:round; stroke-linejoin:round; stroke-width:2; stroke-opacity:0.1; fill:none" points="
  1395.56,1800.78 1395.56,47.2441 
  "/>
<polyline clip-path="url(#clip062)" style="stroke:#000000; stroke-linecap:round; stroke-linejoin:round; stroke-width:2; stroke-opacity:0.1; fill:none" points="
  1726.41,1800.78 1726.41,47.2441 
  "/>
<polyline clip-path="url(#clip062)" style="stroke:#000000; stroke-linecap:round; stroke-linejoin:round; stroke-width:2; stroke-opacity:0.1; fill:none" points="
  2057.27,1800.78 2057.27,47.2441 
  "/>
<polyline clip-path="url(#clip062)" style="stroke:#000000; stroke-linecap:round; stroke-linejoin:round; stroke-width:2; stroke-opacity:0.1; fill:none" points="
  2388.12,1800.78 2388.12,47.2441 
  "/>
<polyline clip-path="url(#clip060)" style="stroke:#000000; stroke-linecap:round; stroke-linejoin:round; stroke-width:4; stroke-opacity:1; fill:none" points="
  150.358,1800.78 2640.76,1800.78 
  "/>
<polyline clip-path="url(#clip060)" style="stroke:#000000; stroke-linecap:round; stroke-linejoin:round; stroke-width:4; stroke-opacity:1; fill:none" points="
  402.99,1800.78 402.99,1781.88 
  "/>
<polyline clip-path="url(#clip060)" style="stroke:#000000; stroke-linecap:round; stroke-linejoin:round; stroke-width:4; stroke-opacity:1; fill:none" points="
  733.846,1800.78 733.846,1781.88 
  "/>
<polyline clip-path="url(#clip060)" style="stroke:#000000; stroke-linecap:round; stroke-linejoin:round; stroke-width:4; stroke-opacity:1; fill:none" points="
  1064.7,1800.78 1064.7,1781.88 
  "/>
<polyline clip-path="url(#clip060)" style="stroke:#000000; stroke-linecap:round; stroke-linejoin:round; stroke-width:4; stroke-opacity:1; fill:none" points="
  1395.56,1800.78 1395.56,1781.88 
  "/>
<polyline clip-path="url(#clip060)" style="stroke:#000000; stroke-linecap:round; stroke-linejoin:round; stroke-width:4; stroke-opacity:1; fill:none" points="
  1726.41,1800.78 1726.41,1781.88 
  "/>
<polyline clip-path="url(#clip060)" style="stroke:#000000; stroke-linecap:round; stroke-linejoin:round; stroke-width:4; stroke-opacity:1; fill:none" points="
  2057.27,1800.78 2057.27,1781.88 
  "/>
<polyline clip-path="url(#clip060)" style="stroke:#000000; stroke-linecap:round; stroke-linejoin:round; stroke-width:4; stroke-opacity:1; fill:none" points="
  2388.12,1800.78 2388.12,1781.88 
  "/>
<path clip-path="url(#clip060)" d="M372.458 1848.65 L402.133 1848.65 L402.133 1852.59 L372.458 1852.59 L372.458 1848.65 Z" fill="#000000" fill-rule="evenodd" fill-opacity="1" /><path clip-path="url(#clip060)" d="M426.392 1846.85 Q429.749 1847.57 431.624 1849.84 Q433.522 1852.1 433.522 1855.44 Q433.522 1860.55 430.004 1863.35 Q426.485 1866.15 420.004 1866.15 Q417.828 1866.15 415.513 1865.71 Q413.221 1865.3 410.768 1864.44 L410.768 1859.93 Q412.712 1861.06 415.027 1861.64 Q417.342 1862.22 419.865 1862.22 Q424.263 1862.22 426.554 1860.48 Q428.869 1858.75 428.869 1855.44 Q428.869 1852.38 426.717 1850.67 Q424.587 1848.93 420.767 1848.93 L416.74 1848.93 L416.74 1845.09 L420.953 1845.09 Q424.402 1845.09 426.23 1843.72 Q428.059 1842.34 428.059 1839.74 Q428.059 1837.08 426.161 1835.67 Q424.286 1834.23 420.767 1834.23 Q418.846 1834.23 416.647 1834.65 Q414.448 1835.07 411.809 1835.95 L411.809 1831.78 Q414.471 1831.04 416.786 1830.67 Q419.124 1830.3 421.184 1830.3 Q426.508 1830.3 429.61 1832.73 Q432.712 1835.14 432.712 1839.26 Q432.712 1842.13 431.068 1844.12 Q429.425 1846.09 426.392 1846.85 Z" fill="#000000" fill-rule="evenodd" fill-opacity="1" /><path clip-path="url(#clip060)" d="M703.788 1848.65 L733.464 1848.65 L733.464 1852.59 L703.788 1852.59 L703.788 1848.65 Z" fill="#000000" fill-rule="evenodd" fill-opacity="1" /><path clip-path="url(#clip060)" d="M747.584 1861.55 L763.903 1861.55 L763.903 1865.48 L741.959 1865.48 L741.959 1861.55 Q744.621 1858.79 749.204 1854.16 Q753.811 1849.51 754.991 1848.17 Q757.237 1845.65 758.116 1843.91 Q759.019 1842.15 759.019 1840.46 Q759.019 1837.71 757.075 1835.97 Q755.153 1834.23 752.051 1834.23 Q749.852 1834.23 747.399 1835 Q744.968 1835.76 742.19 1837.31 L742.19 1832.59 Q745.014 1831.46 747.468 1830.88 Q749.922 1830.3 751.959 1830.3 Q757.329 1830.3 760.524 1832.98 Q763.718 1835.67 763.718 1840.16 Q763.718 1842.29 762.908 1844.21 Q762.121 1846.11 760.014 1848.7 Q759.436 1849.37 756.334 1852.59 Q753.232 1855.78 747.584 1861.55 Z" fill="#000000" fill-rule="evenodd" fill-opacity="1" /><path clip-path="url(#clip060)" d="M1034.46 1848.65 L1064.13 1848.65 L1064.13 1852.59 L1034.46 1852.59 L1034.46 1848.65 Z" fill="#000000" fill-rule="evenodd" fill-opacity="1" /><path clip-path="url(#clip060)" d="M1075.04 1861.55 L1082.68 1861.55 L1082.68 1835.18 L1074.37 1836.85 L1074.37 1832.59 L1082.63 1830.92 L1087.31 1830.92 L1087.31 1861.55 L1094.94 1861.55 L1094.94 1865.48 L1075.04 1865.48 L1075.04 1861.55 Z" fill="#000000" fill-rule="evenodd" fill-opacity="1" /><path clip-path="url(#clip060)" d="M1395.56 1834 Q1391.95 1834 1390.12 1837.57 Q1388.31 1841.11 1388.31 1848.24 Q1388.31 1855.34 1390.12 1858.91 Q1391.95 1862.45 1395.56 1862.45 Q1399.19 1862.45 1401 1858.91 Q1402.83 1855.34 1402.83 1848.24 Q1402.83 1841.11 1401 1837.57 Q1399.19 1834 1395.56 1834 M1395.56 1830.3 Q1401.37 1830.3 1404.42 1834.9 Q1407.5 1839.49 1407.5 1848.24 Q1407.5 1856.96 1404.42 1861.57 Q1401.37 1866.15 1395.56 1866.15 Q1389.75 1866.15 1386.67 1861.57 Q1383.61 1856.96 1383.61 1848.24 Q1383.61 1839.49 1386.67 1834.9 Q1389.75 1830.3 1395.56 1830.3 Z" fill="#000000" fill-rule="evenodd" fill-opacity="1" /><path clip-path="url(#clip060)" d="M1716.79 1861.55 L1724.43 1861.55 L1724.43 1835.18 L1716.12 1836.85 L1716.12 1832.59 L1724.39 1830.92 L1729.06 1830.92 L1729.06 1861.55 L1736.7 1861.55 L1736.7 1865.48 L1716.79 1865.48 L1716.79 1861.55 Z" fill="#000000" fill-rule="evenodd" fill-opacity="1" /><path clip-path="url(#clip060)" d="M2051.92 1861.55 L2068.24 1861.55 L2068.24 1865.48 L2046.3 1865.48 L2046.3 1861.55 Q2048.96 1858.79 2053.54 1854.16 Q2058.15 1849.51 2059.33 1848.17 Q2061.57 1845.65 2062.45 1843.91 Q2063.36 1842.15 2063.36 1840.46 Q2063.36 1837.71 2061.41 1835.97 Q2059.49 1834.23 2056.39 1834.23 Q2054.19 1834.23 2051.74 1835 Q2049.31 1835.76 2046.53 1837.31 L2046.53 1832.59 Q2049.35 1831.46 2051.81 1830.88 Q2054.26 1830.3 2056.3 1830.3 Q2061.67 1830.3 2064.86 1832.98 Q2068.06 1835.67 2068.06 1840.16 Q2068.06 1842.29 2067.25 1844.21 Q2066.46 1846.11 2064.35 1848.7 Q2063.77 1849.37 2060.67 1852.59 Q2057.57 1855.78 2051.92 1861.55 Z" fill="#000000" fill-rule="evenodd" fill-opacity="1" /><path clip-path="url(#clip060)" d="M2392.37 1846.85 Q2395.73 1847.57 2397.6 1849.84 Q2399.5 1852.1 2399.5 1855.44 Q2399.5 1860.55 2395.98 1863.35 Q2392.46 1866.15 2385.98 1866.15 Q2383.81 1866.15 2381.49 1865.71 Q2379.2 1865.3 2376.75 1864.44 L2376.75 1859.93 Q2378.69 1861.06 2381.01 1861.64 Q2383.32 1862.22 2385.84 1862.22 Q2390.24 1862.22 2392.53 1860.48 Q2394.85 1858.75 2394.85 1855.44 Q2394.85 1852.38 2392.7 1850.67 Q2390.57 1848.93 2386.75 1848.93 L2382.72 1848.93 L2382.72 1845.09 L2386.93 1845.09 Q2390.38 1845.09 2392.21 1843.72 Q2394.04 1842.34 2394.04 1839.74 Q2394.04 1837.08 2392.14 1835.67 Q2390.27 1834.23 2386.75 1834.23 Q2384.83 1834.23 2382.63 1834.65 Q2380.43 1835.07 2377.79 1835.95 L2377.79 1831.78 Q2380.45 1831.04 2382.77 1830.67 Q2385.1 1830.3 2387.16 1830.3 Q2392.49 1830.3 2395.59 1832.73 Q2398.69 1835.14 2398.69 1839.26 Q2398.69 1842.13 2397.05 1844.12 Q2395.4 1846.09 2392.37 1846.85 Z" fill="#000000" fill-rule="evenodd" fill-opacity="1" /><polyline clip-path="url(#clip062)" style="stroke:#000000; stroke-linecap:round; stroke-linejoin:round; stroke-width:2; stroke-opacity:0.1; fill:none" points="
  150.358,1751.15 2640.76,1751.15 
  "/>
<polyline clip-path="url(#clip062)" style="stroke:#000000; stroke-linecap:round; stroke-linejoin:round; stroke-width:2; stroke-opacity:0.1; fill:none" points="
  150.358,1420.3 2640.76,1420.3 
  "/>
<polyline clip-path="url(#clip062)" style="stroke:#000000; stroke-linecap:round; stroke-linejoin:round; stroke-width:2; stroke-opacity:0.1; fill:none" points="
  150.358,1089.44 2640.76,1089.44 
  "/>
<polyline clip-path="url(#clip062)" style="stroke:#000000; stroke-linecap:round; stroke-linejoin:round; stroke-width:2; stroke-opacity:0.1; fill:none" points="
  150.358,758.584 2640.76,758.584 
  "/>
<polyline clip-path="url(#clip062)" style="stroke:#000000; stroke-linecap:round; stroke-linejoin:round; stroke-width:2; stroke-opacity:0.1; fill:none" points="
  150.358,427.728 2640.76,427.728 
  "/>
<polyline clip-path="url(#clip062)" style="stroke:#000000; stroke-linecap:round; stroke-linejoin:round; stroke-width:2; stroke-opacity:0.1; fill:none" points="
  150.358,96.8724 2640.76,96.8724 
  "/>
<polyline clip-path="url(#clip060)" style="stroke:#000000; stroke-linecap:round; stroke-linejoin:round; stroke-width:4; stroke-opacity:1; fill:none" points="
  150.358,1800.78 150.358,47.2441 
  "/>
<polyline clip-path="url(#clip060)" style="stroke:#000000; stroke-linecap:round; stroke-linejoin:round; stroke-width:4; stroke-opacity:1; fill:none" points="
  150.358,1751.15 169.256,1751.15 
  "/>
<polyline clip-path="url(#clip060)" style="stroke:#000000; stroke-linecap:round; stroke-linejoin:round; stroke-width:4; stroke-opacity:1; fill:none" points="
  150.358,1420.3 169.256,1420.3 
  "/>
<polyline clip-path="url(#clip060)" style="stroke:#000000; stroke-linecap:round; stroke-linejoin:round; stroke-width:4; stroke-opacity:1; fill:none" points="
  150.358,1089.44 169.256,1089.44 
  "/>
<polyline clip-path="url(#clip060)" style="stroke:#000000; stroke-linecap:round; stroke-linejoin:round; stroke-width:4; stroke-opacity:1; fill:none" points="
  150.358,758.584 169.256,758.584 
  "/>
<polyline clip-path="url(#clip060)" style="stroke:#000000; stroke-linecap:round; stroke-linejoin:round; stroke-width:4; stroke-opacity:1; fill:none" points="
  150.358,427.728 169.256,427.728 
  "/>
<polyline clip-path="url(#clip060)" style="stroke:#000000; stroke-linecap:round; stroke-linejoin:round; stroke-width:4; stroke-opacity:1; fill:none" points="
  150.358,96.8724 169.256,96.8724 
  "/>
<path clip-path="url(#clip060)" d="M49.5521 1751.6 L79.2279 1751.6 L79.2279 1755.54 L49.5521 1755.54 L49.5521 1751.6 Z" fill="#000000" fill-rule="evenodd" fill-opacity="1" /><path clip-path="url(#clip060)" d="M90.1306 1764.5 L97.7695 1764.5 L97.7695 1738.13 L89.4593 1739.8 L89.4593 1735.54 L97.7232 1733.87 L102.399 1733.87 L102.399 1764.5 L110.038 1764.5 L110.038 1768.43 L90.1306 1768.43 L90.1306 1764.5 Z" fill="#000000" fill-rule="evenodd" fill-opacity="1" /><path clip-path="url(#clip060)" d="M98.0935 1406.09 Q94.4824 1406.09 92.6537 1409.66 Q90.8482 1413.2 90.8482 1420.33 Q90.8482 1427.44 92.6537 1431 Q94.4824 1434.54 98.0935 1434.54 Q101.728 1434.54 103.533 1431 Q105.362 1427.44 105.362 1420.33 Q105.362 1413.2 103.533 1409.66 Q101.728 1406.09 98.0935 1406.09 M98.0935 1402.39 Q103.904 1402.39 106.959 1407 Q110.038 1411.58 110.038 1420.33 Q110.038 1429.06 106.959 1433.66 Q103.904 1438.25 98.0935 1438.25 Q92.2834 1438.25 89.2047 1433.66 Q86.1492 1429.06 86.1492 1420.33 Q86.1492 1411.58 89.2047 1407 Q92.2834 1402.39 98.0935 1402.39 Z" fill="#000000" fill-rule="evenodd" fill-opacity="1" /><path clip-path="url(#clip060)" d="M90.1306 1102.78 L97.7695 1102.78 L97.7695 1076.42 L89.4593 1078.09 L89.4593 1073.83 L97.7232 1072.16 L102.399 1072.16 L102.399 1102.78 L110.038 1102.78 L110.038 1106.72 L90.1306 1106.72 L90.1306 1102.78 Z" fill="#000000" fill-rule="evenodd" fill-opacity="1" /><path clip-path="url(#clip060)" d="M93.7186 771.929 L110.038 771.929 L110.038 775.864 L88.0936 775.864 L88.0936 771.929 Q90.7556 769.174 95.3389 764.544 Q99.9454 759.892 101.126 758.549 Q103.371 756.026 104.251 754.29 Q105.154 752.531 105.154 750.841 Q105.154 748.086 103.209 746.35 Q101.288 744.614 98.1861 744.614 Q95.9871 744.614 93.5334 745.378 Q91.1028 746.142 88.3251 747.693 L88.3251 742.971 Q91.1491 741.836 93.6028 741.258 Q96.0565 740.679 98.0935 740.679 Q103.464 740.679 106.658 743.364 Q109.853 746.049 109.853 750.54 Q109.853 752.67 109.043 754.591 Q108.256 756.489 106.149 759.082 Q105.57 759.753 102.469 762.97 Q99.3667 766.165 93.7186 771.929 Z" fill="#000000" fill-rule="evenodd" fill-opacity="1" /><path clip-path="url(#clip060)" d="M102.908 426.374 Q106.265 427.092 108.14 429.36 Q110.038 431.629 110.038 434.962 Q110.038 440.078 106.519 442.879 Q103.001 445.679 96.5195 445.679 Q94.3436 445.679 92.0288 445.24 Q89.7371 444.823 87.2834 443.966 L87.2834 439.453 Q89.2278 440.587 91.5426 441.166 Q93.8574 441.744 96.3806 441.744 Q100.779 441.744 103.07 440.008 Q105.385 438.272 105.385 434.962 Q105.385 431.906 103.232 430.193 Q101.103 428.457 97.2834 428.457 L93.2556 428.457 L93.2556 424.615 L97.4685 424.615 Q100.918 424.615 102.746 423.249 Q104.575 421.86 104.575 419.268 Q104.575 416.606 102.677 415.193 Q100.802 413.758 97.2834 413.758 Q95.3621 413.758 93.163 414.175 Q90.9639 414.592 88.3251 415.471 L88.3251 411.305 Q90.9871 410.564 93.3019 410.194 Q95.6398 409.823 97.7 409.823 Q103.024 409.823 106.126 412.254 Q109.228 414.661 109.228 418.781 Q109.228 421.652 107.584 423.643 Q105.941 425.61 102.908 426.374 Z" fill="#000000" fill-rule="evenodd" fill-opacity="1" /><path clip-path="url(#clip060)" d="M100.455 83.6665 L88.6491 102.115 L100.455 102.115 L100.455 83.6665 M99.2278 79.5924 L105.107 79.5924 L105.107 102.115 L110.038 102.115 L110.038 106.004 L105.107 106.004 L105.107 114.152 L100.455 114.152 L100.455 106.004 L84.8529 106.004 L84.8529 101.49 L99.2278 79.5924 Z" fill="#000000" fill-rule="evenodd" fill-opacity="1" /><polyline clip-path="url(#clip062)" style="stroke:#02010e; stroke-linecap:round; stroke-linejoin:round; stroke-width:4; stroke-opacity:1; fill:none" points="
  1077.27,1483.79 1084.75,1500.5 1094.59,1517.21 1104.8,1531.8 1106.4,1533.92 1120.92,1550.63 1124.86,1554.62 1138.4,1567.34 1144.91,1572.8 
  1159.44,1584.05 1164.96,1587.91 1185.01,1600.76 1185.01,1600.76 1205.06,1611.41 1217.75,1617.47 1225.12,1620.71 1245.17,1628.53 1261.72,1634.18 1265.22,1635.29 
  1285.27,1640.71 1305.32,1645.24 1325.38,1648.86 1340.41,1650.89 1345.43,1651.52 1365.48,1653.21 1385.53,1654.05 1405.58,1654.05 1425.63,1653.21 1445.69,1651.52 
  1450.7,1650.89 1465.74,1648.86 1485.79,1645.24 1505.84,1640.71 1525.89,1635.29 1529.4,1634.18 1545.95,1628.53 1566,1620.71 1573.36,1617.47 1586.05,1611.41 
  1606.1,1600.76 1606.1,1600.76 1626.15,1587.91 1631.68,1584.05 1646.21,1572.8 1652.72,1567.34 1666.26,1554.62 1670.2,1550.63 1684.72,1533.92 1686.31,1531.8 
  1696.52,1517.21 1706.36,1500.5 1713.85,1483.79 1719.59,1467.08 1723.59,1450.37 1725.86,1433.66 1726.38,1416.95 1725.16,1400.24 1722.2,1383.53 
  1717.5,1366.82 1711.06,1350.11 1706.36,1340.51 1702.65,1333.4 1692.06,1316.69 1686.31,1308.96 1679.15,1299.98 1666.26,1285.92 1663.64,1283.27 1646.21,1267.64 
  1644.91,1266.56 1626.15,1252.65 1622.05,1249.85 1606.1,1240.02 1593.85,1233.14 1586.05,1229.15 1566,1219.89 1557.57,1216.43 1545.95,1212.04 1525.89,1205.41 
  1505.84,1199.72 1485.79,1195.33 1465.74,1191.82 1445.69,1189.19 1425.63,1187.43 1405.58,1186.55 1385.53,1186.55 1365.48,1187.43 1345.43,1189.19 
  1325.38,1191.82 1305.32,1195.33 1285.27,1199.72 1265.22,1205.41 1245.17,1212.04 1233.54,1216.43 1225.12,1219.89 1205.06,1229.15 1197.27,1233.14 
  1185.01,1240.02 1169.06,1249.85 1164.96,1252.65 1146.21,1266.56 1144.91,1267.64 1127.47,1283.27 1124.86,1285.92 1111.97,1299.98 1104.8,1308.96 1099.05,1316.69 
  1088.47,1333.4 1084.75,1340.51 1080.05,1350.11 1073.61,1366.82 1068.91,1383.53 1065.95,1400.24 1064.74,1416.95 1065.26,1433.66 1067.52,1450.37 1071.52,1467.08 
  1077.27,1483.79 
  "/>
<polyline clip-path="url(#clip062)" style="stroke:#e26f46; stroke-linecap:round; stroke-linejoin:round; stroke-width:4; stroke-opacity:1; fill:none" points="
  1147.42,1265.55 651.132,646.577 
  "/>
<polyline clip-path="url(#clip062)" style="stroke:#e26f46; stroke-linecap:round; stroke-linejoin:round; stroke-width:4; stroke-opacity:1; fill:none" points="
  660.625,690.646 651.132,646.577 692.082,665.424 
  "/>
<polyline clip-path="url(#clip062)" style="stroke:#e26f46; stroke-linecap:round; stroke-linejoin:round; stroke-width:4; stroke-opacity:1; fill:none" points="
  651.132,646.577 1147.42,1265.55 
  "/>
<polyline clip-path="url(#clip062)" style="stroke:#3da44d; stroke-linecap:round; stroke-linejoin:round; stroke-width:4; stroke-opacity:1; fill:none" points="
  1312.84,1193.77 1147.42,287.688 
  "/>
<polyline clip-path="url(#clip062)" style="stroke:#3da44d; stroke-linecap:round; stroke-linejoin:round; stroke-width:4; stroke-opacity:1; fill:none" points="
  1134.82,330.973 1147.42,287.688 1174.49,323.732 
  "/>
<polyline clip-path="url(#clip062)" style="stroke:#3da44d; stroke-linecap:round; stroke-linejoin:round; stroke-width:4; stroke-opacity:1; fill:none" points="
  1147.42,287.688 1312.84,1193.77 
  "/>
<polyline clip-path="url(#clip062)" style="stroke:#c271d2; stroke-linecap:round; stroke-linejoin:round; stroke-width:4; stroke-opacity:1; fill:none" points="
  1478.27,1193.77 1643.7,287.688 
  "/>
<polyline clip-path="url(#clip062)" style="stroke:#c271d2; stroke-linecap:round; stroke-linejoin:round; stroke-width:4; stroke-opacity:1; fill:none" points="
  1616.62,323.732 1643.7,287.688 1656.29,330.973 
  "/>
<polyline clip-path="url(#clip062)" style="stroke:#c271d2; stroke-linecap:round; stroke-linejoin:round; stroke-width:4; stroke-opacity:1; fill:none" points="
  1643.7,287.688 1478.27,1193.77 
  "/>
<polyline clip-path="url(#clip062)" style="stroke:#ac8d18; stroke-linecap:round; stroke-linejoin:round; stroke-width:4; stroke-opacity:1; fill:none" points="
  1643.7,1265.55 2139.98,646.577 
  "/>
<polyline clip-path="url(#clip062)" style="stroke:#ac8d18; stroke-linecap:round; stroke-linejoin:round; stroke-width:4; stroke-opacity:1; fill:none" points="
  2099.03,665.424 2139.98,646.577 2130.49,690.646 
  "/>
<polyline clip-path="url(#clip062)" style="stroke:#ac8d18; stroke-linecap:round; stroke-linejoin:round; stroke-width:4; stroke-opacity:1; fill:none" points="
  2139.98,646.577 1643.7,1265.55 
  "/>
</svg>
