<?xml version="1.0" encoding="utf-8"?>
<svg xmlns="http://www.w3.org/2000/svg" xmlns:xlink="http://www.w3.org/1999/xlink" width="672" height="480" viewBox="0 0 2688 1920">
<defs>
  <clipPath id="clip630">
    <rect x="0" y="0" width="2688" height="1920"/>
  </clipPath>
</defs>
<path clip-path="url(#clip630)" d="
M0 1920 L2688 1920 L2688 0 L0 0  Z
  " fill="#ffffff" fill-rule="evenodd" fill-opacity="1"/>
<defs>
  <clipPath id="clip631">
    <rect x="537" y="0" width="1883" height="1883"/>
  </clipPath>
</defs>
<path clip-path="url(#clip630)" d="
M159.478 1800.78 L2640.76 1800.78 L2640.76 47.2441 L159.478 47.2441  Z
  " fill="#ffffff" fill-rule="evenodd" fill-opacity="1"/>
<defs>
  <clipPath id="clip632">
    <rect x="159" y="47" width="2482" height="1755"/>
  </clipPath>
</defs>
<polyline clip-path="url(#clip632)" style="stroke:#000000; stroke-linecap:butt; stroke-linejoin:round; stroke-width:2; stroke-opacity:0.1; fill:none" points="
  366.193,1800.78 366.193,47.2441 
  "/>
<polyline clip-path="url(#clip632)" style="stroke:#000000; stroke-linecap:butt; stroke-linejoin:round; stroke-width:2; stroke-opacity:0.1; fill:none" points="
  779.763,1800.78 779.763,47.2441 
  "/>
<polyline clip-path="url(#clip632)" style="stroke:#000000; stroke-linecap:butt; stroke-linejoin:round; stroke-width:2; stroke-opacity:0.1; fill:none" points="
  1193.33,1800.78 1193.33,47.2441 
  "/>
<polyline clip-path="url(#clip632)" style="stroke:#000000; stroke-linecap:butt; stroke-linejoin:round; stroke-width:2; stroke-opacity:0.1; fill:none" points="
  1606.9,1800.78 1606.9,47.2441 
  "/>
<polyline clip-path="url(#clip632)" style="stroke:#000000; stroke-linecap:butt; stroke-linejoin:round; stroke-width:2; stroke-opacity:0.1; fill:none" points="
  2020.47,1800.78 2020.47,47.2441 
  "/>
<polyline clip-path="url(#clip632)" style="stroke:#000000; stroke-linecap:butt; stroke-linejoin:round; stroke-width:2; stroke-opacity:0.1; fill:none" points="
  2434.04,1800.78 2434.04,47.2441 
  "/>
<polyline clip-path="url(#clip630)" style="stroke:#000000; stroke-linecap:butt; stroke-linejoin:round; stroke-width:4; stroke-opacity:1; fill:none" points="
  159.478,1800.78 2640.76,1800.78 
  "/>
<polyline clip-path="url(#clip630)" style="stroke:#000000; stroke-linecap:butt; stroke-linejoin:round; stroke-width:4; stroke-opacity:1; fill:none" points="
  366.193,1800.78 366.193,1781.88 
  "/>
<polyline clip-path="url(#clip630)" style="stroke:#000000; stroke-linecap:butt; stroke-linejoin:round; stroke-width:4; stroke-opacity:1; fill:none" points="
  779.763,1800.78 779.763,1781.88 
  "/>
<polyline clip-path="url(#clip630)" style="stroke:#000000; stroke-linecap:butt; stroke-linejoin:round; stroke-width:4; stroke-opacity:1; fill:none" points="
  1193.33,1800.78 1193.33,1781.88 
  "/>
<polyline clip-path="url(#clip630)" style="stroke:#000000; stroke-linecap:butt; stroke-linejoin:round; stroke-width:4; stroke-opacity:1; fill:none" points="
  1606.9,1800.78 1606.9,1781.88 
  "/>
<polyline clip-path="url(#clip630)" style="stroke:#000000; stroke-linecap:butt; stroke-linejoin:round; stroke-width:4; stroke-opacity:1; fill:none" points="
  2020.47,1800.78 2020.47,1781.88 
  "/>
<polyline clip-path="url(#clip630)" style="stroke:#000000; stroke-linecap:butt; stroke-linejoin:round; stroke-width:4; stroke-opacity:1; fill:none" points="
  2434.04,1800.78 2434.04,1781.88 
  "/>
<path clip-path="url(#clip630)" d="M344.075 1834 Q340.464 1834 338.635 1837.57 Q336.83 1841.11 336.83 1848.24 Q336.83 1855.34 338.635 1858.91 Q340.464 1862.45 344.075 1862.45 Q347.709 1862.45 349.515 1858.91 Q351.344 1855.34 351.344 1848.24 Q351.344 1841.11 349.515 1837.57 Q347.709 1834 344.075 1834 M344.075 1830.3 Q349.885 1830.3 352.941 1834.9 Q356.019 1839.49 356.019 1848.24 Q356.019 1856.96 352.941 1861.57 Q349.885 1866.15 344.075 1866.15 Q338.265 1866.15 335.186 1861.57 Q332.131 1856.96 332.131 1848.24 Q332.131 1839.49 335.186 1834.9 Q338.265 1830.3 344.075 1830.3 Z" fill="#000000" fill-rule="evenodd" fill-opacity="1" /><path clip-path="url(#clip630)" d="M364.237 1859.6 L369.121 1859.6 L369.121 1865.48 L364.237 1865.48 L364.237 1859.6 Z" fill="#000000" fill-rule="evenodd" fill-opacity="1" /><path clip-path="url(#clip630)" d="M379.353 1830.92 L397.709 1830.92 L397.709 1834.86 L383.635 1834.86 L383.635 1843.33 Q384.654 1842.98 385.672 1842.82 Q386.691 1842.64 387.709 1842.64 Q393.496 1842.64 396.876 1845.81 Q400.255 1848.98 400.255 1854.4 Q400.255 1859.97 396.783 1863.08 Q393.311 1866.15 386.992 1866.15 Q384.816 1866.15 382.547 1865.78 Q380.302 1865.41 377.894 1864.67 L377.894 1859.97 Q379.978 1861.11 382.2 1861.66 Q384.422 1862.22 386.899 1862.22 Q390.904 1862.22 393.241 1860.11 Q395.579 1858.01 395.579 1854.4 Q395.579 1850.78 393.241 1848.68 Q390.904 1846.57 386.899 1846.57 Q385.024 1846.57 383.149 1846.99 Q381.297 1847.4 379.353 1848.28 L379.353 1830.92 Z" fill="#000000" fill-rule="evenodd" fill-opacity="1" /><path clip-path="url(#clip630)" d="M757.066 1834 Q753.455 1834 751.626 1837.57 Q749.821 1841.11 749.821 1848.24 Q749.821 1855.34 751.626 1858.91 Q753.455 1862.45 757.066 1862.45 Q760.7 1862.45 762.506 1858.91 Q764.334 1855.34 764.334 1848.24 Q764.334 1841.11 762.506 1837.57 Q760.7 1834 757.066 1834 M757.066 1830.3 Q762.876 1830.3 765.932 1834.9 Q769.01 1839.49 769.01 1848.24 Q769.01 1856.96 765.932 1861.57 Q762.876 1866.15 757.066 1866.15 Q751.256 1866.15 748.177 1861.57 Q745.122 1856.96 745.122 1848.24 Q745.122 1839.49 748.177 1834.9 Q751.256 1830.3 757.066 1830.3 Z" fill="#000000" fill-rule="evenodd" fill-opacity="1" /><path clip-path="url(#clip630)" d="M777.228 1859.6 L782.112 1859.6 L782.112 1865.48 L777.228 1865.48 L777.228 1859.6 Z" fill="#000000" fill-rule="evenodd" fill-opacity="1" /><path clip-path="url(#clip630)" d="M802.876 1846.34 Q799.728 1846.34 797.876 1848.49 Q796.047 1850.65 796.047 1854.4 Q796.047 1858.12 797.876 1860.3 Q799.728 1862.45 802.876 1862.45 Q806.024 1862.45 807.853 1860.3 Q809.705 1858.12 809.705 1854.4 Q809.705 1850.65 807.853 1848.49 Q806.024 1846.34 802.876 1846.34 M812.158 1831.69 L812.158 1835.95 Q810.399 1835.11 808.593 1834.67 Q806.811 1834.23 805.052 1834.23 Q800.422 1834.23 797.969 1837.36 Q795.538 1840.48 795.191 1846.8 Q796.557 1844.79 798.617 1843.72 Q800.677 1842.64 803.154 1842.64 Q808.362 1842.64 811.371 1845.81 Q814.404 1848.96 814.404 1854.4 Q814.404 1859.72 811.256 1862.94 Q808.107 1866.15 802.876 1866.15 Q796.881 1866.15 793.709 1861.57 Q790.538 1856.96 790.538 1848.24 Q790.538 1840.04 794.427 1835.18 Q798.316 1830.3 804.867 1830.3 Q806.626 1830.3 808.408 1830.65 Q810.214 1830.99 812.158 1831.69 Z" fill="#000000" fill-rule="evenodd" fill-opacity="1" /><path clip-path="url(#clip630)" d="M1171.17 1834 Q1167.56 1834 1165.73 1837.57 Q1163.92 1841.11 1163.92 1848.24 Q1163.92 1855.34 1165.73 1858.91 Q1167.56 1862.45 1171.17 1862.45 Q1174.8 1862.45 1176.61 1858.91 Q1178.44 1855.34 1178.44 1848.24 Q1178.44 1841.11 1176.61 1837.57 Q1174.8 1834 1171.17 1834 M1171.17 1830.3 Q1176.98 1830.3 1180.03 1834.9 Q1183.11 1839.49 1183.11 1848.24 Q1183.11 1856.96 1180.03 1861.57 Q1176.98 1866.15 1171.17 1866.15 Q1165.36 1866.15 1162.28 1861.57 Q1159.22 1856.96 1159.22 1848.24 Q1159.22 1839.49 1162.28 1834.9 Q1165.36 1830.3 1171.17 1830.3 Z" fill="#000000" fill-rule="evenodd" fill-opacity="1" /><path clip-path="url(#clip630)" d="M1191.33 1859.6 L1196.21 1859.6 L1196.21 1865.48 L1191.33 1865.48 L1191.33 1859.6 Z" fill="#000000" fill-rule="evenodd" fill-opacity="1" /><path clip-path="url(#clip630)" d="M1205.22 1830.92 L1227.44 1830.92 L1227.44 1832.91 L1214.89 1865.48 L1210.01 1865.48 L1221.82 1834.86 L1205.22 1834.86 L1205.22 1830.92 Z" fill="#000000" fill-rule="evenodd" fill-opacity="1" /><path clip-path="url(#clip630)" d="M1584.33 1834 Q1580.72 1834 1578.89 1837.57 Q1577.09 1841.11 1577.09 1848.24 Q1577.09 1855.34 1578.89 1858.91 Q1580.72 1862.45 1584.33 1862.45 Q1587.97 1862.45 1589.77 1858.91 Q1591.6 1855.34 1591.6 1848.24 Q1591.6 1841.11 1589.77 1837.57 Q1587.97 1834 1584.33 1834 M1584.33 1830.3 Q1590.14 1830.3 1593.2 1834.9 Q1596.28 1839.49 1596.28 1848.24 Q1596.28 1856.96 1593.2 1861.57 Q1590.14 1866.15 1584.33 1866.15 Q1578.52 1866.15 1575.44 1861.57 Q1572.39 1856.96 1572.39 1848.24 Q1572.39 1839.49 1575.44 1834.9 Q1578.52 1830.3 1584.33 1830.3 Z" fill="#000000" fill-rule="evenodd" fill-opacity="1" /><path clip-path="url(#clip630)" d="M1604.49 1859.6 L1609.38 1859.6 L1609.38 1865.48 L1604.49 1865.48 L1604.49 1859.6 Z" fill="#000000" fill-rule="evenodd" fill-opacity="1" /><path clip-path="url(#clip630)" d="M1629.56 1849.07 Q1626.23 1849.07 1624.31 1850.85 Q1622.41 1852.64 1622.41 1855.76 Q1622.41 1858.89 1624.31 1860.67 Q1626.23 1862.45 1629.56 1862.45 Q1632.9 1862.45 1634.82 1860.67 Q1636.74 1858.86 1636.74 1855.76 Q1636.74 1852.64 1634.82 1850.85 Q1632.92 1849.07 1629.56 1849.07 M1624.89 1847.08 Q1621.88 1846.34 1620.19 1844.28 Q1618.52 1842.22 1618.52 1839.26 Q1618.52 1835.11 1621.46 1832.71 Q1624.42 1830.3 1629.56 1830.3 Q1634.73 1830.3 1637.67 1832.71 Q1640.61 1835.11 1640.61 1839.26 Q1640.61 1842.22 1638.92 1844.28 Q1637.25 1846.34 1634.26 1847.08 Q1637.64 1847.87 1639.52 1850.16 Q1641.42 1852.45 1641.42 1855.76 Q1641.42 1860.78 1638.34 1863.47 Q1635.28 1866.15 1629.56 1866.15 Q1623.85 1866.15 1620.77 1863.47 Q1617.71 1860.78 1617.71 1855.76 Q1617.71 1852.45 1619.61 1850.16 Q1621.51 1847.87 1624.89 1847.08 M1623.17 1839.7 Q1623.17 1842.38 1624.84 1843.89 Q1626.53 1845.39 1629.56 1845.39 Q1632.57 1845.39 1634.26 1843.89 Q1635.98 1842.38 1635.98 1839.7 Q1635.98 1837.01 1634.26 1835.51 Q1632.57 1834 1629.56 1834 Q1626.53 1834 1624.84 1835.51 Q1623.17 1837.01 1623.17 1839.7 Z" fill="#000000" fill-rule="evenodd" fill-opacity="1" /><path clip-path="url(#clip630)" d="M1997.95 1834 Q1994.34 1834 1992.51 1837.57 Q1990.7 1841.11 1990.7 1848.24 Q1990.7 1855.34 1992.51 1858.91 Q1994.34 1862.45 1997.95 1862.45 Q2001.58 1862.45 2003.39 1858.91 Q2005.22 1855.34 2005.22 1848.24 Q2005.22 1841.11 2003.39 1837.57 Q2001.58 1834 1997.95 1834 M1997.95 1830.3 Q2003.76 1830.3 2006.81 1834.9 Q2009.89 1839.49 2009.89 1848.24 Q2009.89 1856.96 2006.81 1861.57 Q2003.76 1866.15 1997.95 1866.15 Q1992.14 1866.15 1989.06 1861.57 Q1986 1856.96 1986 1848.24 Q1986 1839.49 1989.06 1834.9 Q1992.14 1830.3 1997.95 1830.3 Z" fill="#000000" fill-rule="evenodd" fill-opacity="1" /><path clip-path="url(#clip630)" d="M2018.11 1859.6 L2022.99 1859.6 L2022.99 1865.48 L2018.11 1865.48 L2018.11 1859.6 Z" fill="#000000" fill-rule="evenodd" fill-opacity="1" /><path clip-path="url(#clip630)" d="M2033.32 1864.77 L2033.32 1860.51 Q2035.08 1861.34 2036.88 1861.78 Q2038.69 1862.22 2040.43 1862.22 Q2045.05 1862.22 2047.49 1859.12 Q2049.94 1855.99 2050.29 1849.65 Q2048.94 1851.64 2046.88 1852.71 Q2044.82 1853.77 2042.32 1853.77 Q2037.14 1853.77 2034.11 1850.65 Q2031.1 1847.5 2031.1 1842.06 Q2031.1 1836.73 2034.24 1833.52 Q2037.39 1830.3 2042.62 1830.3 Q2048.62 1830.3 2051.77 1834.9 Q2054.94 1839.49 2054.94 1848.24 Q2054.94 1856.41 2051.05 1861.29 Q2047.18 1866.15 2040.63 1866.15 Q2038.87 1866.15 2037.07 1865.81 Q2035.26 1865.46 2033.32 1864.77 M2042.62 1850.11 Q2045.77 1850.11 2047.6 1847.96 Q2049.45 1845.81 2049.45 1842.06 Q2049.45 1838.33 2047.6 1836.18 Q2045.77 1834 2042.62 1834 Q2039.48 1834 2037.62 1836.18 Q2035.8 1838.33 2035.8 1842.06 Q2035.8 1845.81 2037.62 1847.96 Q2039.48 1850.11 2042.62 1850.11 Z" fill="#000000" fill-rule="evenodd" fill-opacity="1" /><path clip-path="url(#clip630)" d="M2401.19 1861.55 L2408.83 1861.55 L2408.83 1835.18 L2400.52 1836.85 L2400.52 1832.59 L2408.79 1830.92 L2413.46 1830.92 L2413.46 1861.55 L2421.1 1861.55 L2421.1 1865.48 L2401.19 1865.48 L2401.19 1861.55 Z" fill="#000000" fill-rule="evenodd" fill-opacity="1" /><path clip-path="url(#clip630)" d="M2430.55 1859.6 L2435.43 1859.6 L2435.43 1865.48 L2430.55 1865.48 L2430.55 1859.6 Z" fill="#000000" fill-rule="evenodd" fill-opacity="1" /><path clip-path="url(#clip630)" d="M2455.62 1834 Q2452 1834 2450.18 1837.57 Q2448.37 1841.11 2448.37 1848.24 Q2448.37 1855.34 2450.18 1858.91 Q2452 1862.45 2455.62 1862.45 Q2459.25 1862.45 2461.05 1858.91 Q2462.88 1855.34 2462.88 1848.24 Q2462.88 1841.11 2461.05 1837.57 Q2459.25 1834 2455.62 1834 M2455.62 1830.3 Q2461.43 1830.3 2464.48 1834.9 Q2467.56 1839.49 2467.56 1848.24 Q2467.56 1856.96 2464.48 1861.57 Q2461.43 1866.15 2455.62 1866.15 Q2449.8 1866.15 2446.73 1861.57 Q2443.67 1856.96 2443.67 1848.24 Q2443.67 1839.49 2446.73 1834.9 Q2449.8 1830.3 2455.62 1830.3 Z" fill="#000000" fill-rule="evenodd" fill-opacity="1" /><polyline clip-path="url(#clip632)" style="stroke:#000000; stroke-linecap:butt; stroke-linejoin:round; stroke-width:2; stroke-opacity:0.1; fill:none" points="
  159.478,1751.15 2640.76,1751.15 
  "/>
<polyline clip-path="url(#clip632)" style="stroke:#000000; stroke-linecap:butt; stroke-linejoin:round; stroke-width:2; stroke-opacity:0.1; fill:none" points="
  159.478,1337.58 2640.76,1337.58 
  "/>
<polyline clip-path="url(#clip632)" style="stroke:#000000; stroke-linecap:butt; stroke-linejoin:round; stroke-width:2; stroke-opacity:0.1; fill:none" points="
  159.478,924.012 2640.76,924.012 
  "/>
<polyline clip-path="url(#clip632)" style="stroke:#000000; stroke-linecap:butt; stroke-linejoin:round; stroke-width:2; stroke-opacity:0.1; fill:none" points="
  159.478,510.442 2640.76,510.442 
  "/>
<polyline clip-path="url(#clip632)" style="stroke:#000000; stroke-linecap:butt; stroke-linejoin:round; stroke-width:2; stroke-opacity:0.1; fill:none" points="
  159.478,96.8724 2640.76,96.8724 
  "/>
<polyline clip-path="url(#clip630)" style="stroke:#000000; stroke-linecap:butt; stroke-linejoin:round; stroke-width:4; stroke-opacity:1; fill:none" points="
  159.478,1800.78 159.478,47.2441 
  "/>
<polyline clip-path="url(#clip630)" style="stroke:#000000; stroke-linecap:butt; stroke-linejoin:round; stroke-width:4; stroke-opacity:1; fill:none" points="
  159.478,1751.15 178.376,1751.15 
  "/>
<polyline clip-path="url(#clip630)" style="stroke:#000000; stroke-linecap:butt; stroke-linejoin:round; stroke-width:4; stroke-opacity:1; fill:none" points="
  159.478,1337.58 178.376,1337.58 
  "/>
<polyline clip-path="url(#clip630)" style="stroke:#000000; stroke-linecap:butt; stroke-linejoin:round; stroke-width:4; stroke-opacity:1; fill:none" points="
  159.478,924.012 178.376,924.012 
  "/>
<polyline clip-path="url(#clip630)" style="stroke:#000000; stroke-linecap:butt; stroke-linejoin:round; stroke-width:4; stroke-opacity:1; fill:none" points="
  159.478,510.442 178.376,510.442 
  "/>
<polyline clip-path="url(#clip630)" style="stroke:#000000; stroke-linecap:butt; stroke-linejoin:round; stroke-width:4; stroke-opacity:1; fill:none" points="
  159.478,96.8724 178.376,96.8724 
  "/>
<path clip-path="url(#clip630)" d="M63.2095 1736.95 Q59.5984 1736.95 57.7697 1740.51 Q55.9641 1744.06 55.9641 1751.19 Q55.9641 1758.29 57.7697 1761.86 Q59.5984 1765.4 63.2095 1765.4 Q66.8437 1765.4 68.6492 1761.86 Q70.4779 1758.29 70.4779 1751.19 Q70.4779 1744.06 68.6492 1740.51 Q66.8437 1736.95 63.2095 1736.95 M63.2095 1733.25 Q69.0196 1733.25 72.0752 1737.85 Q75.1538 1742.44 75.1538 1751.19 Q75.1538 1759.91 72.0752 1764.52 Q69.0196 1769.1 63.2095 1769.1 Q57.3993 1769.1 54.3206 1764.52 Q51.2651 1759.91 51.2651 1751.19 Q51.2651 1742.44 54.3206 1737.85 Q57.3993 1733.25 63.2095 1733.25 Z" fill="#000000" fill-rule="evenodd" fill-opacity="1" /><path clip-path="url(#clip630)" d="M83.3714 1762.55 L88.2556 1762.55 L88.2556 1768.43 L83.3714 1768.43 L83.3714 1762.55 Z" fill="#000000" fill-rule="evenodd" fill-opacity="1" /><path clip-path="url(#clip630)" d="M99.2509 1764.5 L106.89 1764.5 L106.89 1738.13 L98.5796 1739.8 L98.5796 1735.54 L106.843 1733.87 L111.519 1733.87 L111.519 1764.5 L119.158 1764.5 L119.158 1768.43 L99.2509 1768.43 L99.2509 1764.5 Z" fill="#000000" fill-rule="evenodd" fill-opacity="1" /><path clip-path="url(#clip630)" d="M63.5798 1323.38 Q59.9687 1323.38 58.14 1326.94 Q56.3345 1330.49 56.3345 1337.62 Q56.3345 1344.72 58.14 1348.29 Q59.9687 1351.83 63.5798 1351.83 Q67.2141 1351.83 69.0196 1348.29 Q70.8483 1344.72 70.8483 1337.62 Q70.8483 1330.49 69.0196 1326.94 Q67.2141 1323.38 63.5798 1323.38 M63.5798 1319.68 Q69.39 1319.68 72.4455 1324.28 Q75.5242 1328.87 75.5242 1337.62 Q75.5242 1346.34 72.4455 1350.95 Q69.39 1355.53 63.5798 1355.53 Q57.7697 1355.53 54.691 1350.95 Q51.6354 1346.34 51.6354 1337.62 Q51.6354 1328.87 54.691 1324.28 Q57.7697 1319.68 63.5798 1319.68 Z" fill="#000000" fill-rule="evenodd" fill-opacity="1" /><path clip-path="url(#clip630)" d="M83.7418 1348.98 L88.626 1348.98 L88.626 1354.86 L83.7418 1354.86 L83.7418 1348.98 Z" fill="#000000" fill-rule="evenodd" fill-opacity="1" /><path clip-path="url(#clip630)" d="M102.839 1350.93 L119.158 1350.93 L119.158 1354.86 L97.2139 1354.86 L97.2139 1350.93 Q99.8759 1348.17 104.459 1343.54 Q109.066 1338.89 110.246 1337.55 Q112.492 1335.02 113.371 1333.29 Q114.274 1331.53 114.274 1329.84 Q114.274 1327.08 112.33 1325.35 Q110.408 1323.61 107.306 1323.61 Q105.107 1323.61 102.654 1324.38 Q100.223 1325.14 97.4454 1326.69 L97.4454 1321.97 Q100.269 1320.83 102.723 1320.26 Q105.177 1319.68 107.214 1319.68 Q112.584 1319.68 115.779 1322.36 Q118.973 1325.05 118.973 1329.54 Q118.973 1331.67 118.163 1333.59 Q117.376 1335.49 115.269 1338.08 Q114.691 1338.75 111.589 1341.97 Q108.487 1345.16 102.839 1350.93 Z" fill="#000000" fill-rule="evenodd" fill-opacity="1" /><path clip-path="url(#clip630)" d="M62.6308 909.81 Q59.0197 909.81 57.191 913.375 Q55.3854 916.917 55.3854 924.046 Q55.3854 931.153 57.191 934.718 Q59.0197 938.259 62.6308 938.259 Q66.265 938.259 68.0705 934.718 Q69.8992 931.153 69.8992 924.046 Q69.8992 916.917 68.0705 913.375 Q66.265 909.81 62.6308 909.81 M62.6308 906.107 Q68.4409 906.107 71.4965 910.713 Q74.5751 915.296 74.5751 924.046 Q74.5751 932.773 71.4965 937.38 Q68.4409 941.963 62.6308 941.963 Q56.8206 941.963 53.7419 937.38 Q50.6864 932.773 50.6864 924.046 Q50.6864 915.296 53.7419 910.713 Q56.8206 906.107 62.6308 906.107 Z" fill="#000000" fill-rule="evenodd" fill-opacity="1" /><path clip-path="url(#clip630)" d="M82.7927 935.412 L87.6769 935.412 L87.6769 941.292 L82.7927 941.292 L82.7927 935.412 Z" fill="#000000" fill-rule="evenodd" fill-opacity="1" /><path clip-path="url(#clip630)" d="M112.029 922.658 Q115.385 923.375 117.26 925.644 Q119.158 927.912 119.158 931.245 Q119.158 936.361 115.64 939.162 Q112.121 941.963 105.64 941.963 Q103.464 941.963 101.149 941.523 Q98.8574 941.107 96.4037 940.25 L96.4037 935.736 Q98.3482 936.87 100.663 937.449 Q102.978 938.028 105.501 938.028 Q109.899 938.028 112.191 936.292 Q114.505 934.556 114.505 931.245 Q114.505 928.19 112.353 926.477 Q110.223 924.741 106.404 924.741 L102.376 924.741 L102.376 920.898 L106.589 920.898 Q110.038 920.898 111.867 919.533 Q113.695 918.144 113.695 915.551 Q113.695 912.889 111.797 911.477 Q109.922 910.042 106.404 910.042 Q104.482 910.042 102.283 910.459 Q100.084 910.875 97.4454 911.755 L97.4454 907.588 Q100.107 906.847 102.422 906.477 Q104.76 906.107 106.82 906.107 Q112.144 906.107 115.246 908.537 Q118.348 910.945 118.348 915.065 Q118.348 917.935 116.705 919.926 Q115.061 921.894 112.029 922.658 Z" fill="#000000" fill-rule="evenodd" fill-opacity="1" /><path clip-path="url(#clip630)" d="M61.4965 496.241 Q57.8854 496.241 56.0567 499.806 Q54.2512 503.347 54.2512 510.477 Q54.2512 517.583 56.0567 521.148 Q57.8854 524.69 61.4965 524.69 Q65.1307 524.69 66.9363 521.148 Q68.765 517.583 68.765 510.477 Q68.765 503.347 66.9363 499.806 Q65.1307 496.241 61.4965 496.241 M61.4965 492.537 Q67.3067 492.537 70.3622 497.144 Q73.4409 501.727 73.4409 510.477 Q73.4409 519.204 70.3622 523.81 Q67.3067 528.393 61.4965 528.393 Q55.6864 528.393 52.6077 523.81 Q49.5521 519.204 49.5521 510.477 Q49.5521 501.727 52.6077 497.144 Q55.6864 492.537 61.4965 492.537 Z" fill="#000000" fill-rule="evenodd" fill-opacity="1" /><path clip-path="url(#clip630)" d="M81.6584 521.842 L86.5427 521.842 L86.5427 527.722 L81.6584 527.722 L81.6584 521.842 Z" fill="#000000" fill-rule="evenodd" fill-opacity="1" /><path clip-path="url(#clip630)" d="M109.575 497.236 L97.7695 515.685 L109.575 515.685 L109.575 497.236 M108.348 493.162 L114.228 493.162 L114.228 515.685 L119.158 515.685 L119.158 519.574 L114.228 519.574 L114.228 527.722 L109.575 527.722 L109.575 519.574 L93.9732 519.574 L93.9732 515.06 L108.348 493.162 Z" fill="#000000" fill-rule="evenodd" fill-opacity="1" /><path clip-path="url(#clip630)" d="M62.978 82.6711 Q59.3669 82.6711 57.5382 86.2359 Q55.7326 89.7776 55.7326 96.9072 Q55.7326 104.014 57.5382 107.578 Q59.3669 111.12 62.978 111.12 Q66.6122 111.12 68.4178 107.578 Q70.2465 104.014 70.2465 96.9072 Q70.2465 89.7776 68.4178 86.2359 Q66.6122 82.6711 62.978 82.6711 M62.978 78.9675 Q68.7881 78.9675 71.8437 83.5739 Q74.9224 88.1572 74.9224 96.9072 Q74.9224 105.634 71.8437 110.24 Q68.7881 114.824 62.978 114.824 Q57.1678 114.824 54.0891 110.24 Q51.0336 105.634 51.0336 96.9072 Q51.0336 88.1572 54.0891 83.5739 Q57.1678 78.9675 62.978 78.9675 Z" fill="#000000" fill-rule="evenodd" fill-opacity="1" /><path clip-path="url(#clip630)" d="M83.1399 108.273 L88.0241 108.273 L88.0241 114.152 L83.1399 114.152 L83.1399 108.273 Z" fill="#000000" fill-rule="evenodd" fill-opacity="1" /><path clip-path="url(#clip630)" d="M98.2556 79.5924 L116.612 79.5924 L116.612 83.5276 L102.538 83.5276 L102.538 91.9998 Q103.556 91.6526 104.575 91.4905 Q105.593 91.3053 106.612 91.3053 Q112.399 91.3053 115.779 94.4766 Q119.158 97.6479 119.158 103.065 Q119.158 108.643 115.686 111.745 Q112.214 114.824 105.894 114.824 Q103.719 114.824 101.45 114.453 Q99.2046 114.083 96.7972 113.342 L96.7972 108.643 Q98.8806 109.777 101.103 110.333 Q103.325 110.889 105.802 110.889 Q109.806 110.889 112.144 108.782 Q114.482 106.676 114.482 103.065 Q114.482 99.4535 112.144 97.347 Q109.806 95.2405 105.802 95.2405 Q103.927 95.2405 102.052 95.6572 Q100.2 96.0738 98.2556 96.9535 L98.2556 79.5924 Z" fill="#000000" fill-rule="evenodd" fill-opacity="1" /><polyline clip-path="url(#clip632)" style="stroke:#009af9; stroke-linecap:butt; stroke-linejoin:round; stroke-width:12; stroke-opacity:1; fill:none" points="
  2293.12,1629.52 2287.6,1619.32 2231.58,1525.65 2193.68,1470.04 2159.19,1423.46 2119.19,1373.34 2080.01,1327.61 2035.57,1279.12 1980.98,1223.69 1929.7,1175.12 
  1882.63,1133.11 1829.1,1087.95 1772.95,1043.21 1708.23,994.605 1644.13,949.223 1574.91,902.967 1514.67,864.792 1438.7,819.16 1366.84,778.332 1298.59,741.474 
  1227.64,704.995 1146.03,665.164 1070.2,630.055 981.261,591.035 896.95,556.054 812.044,522.671 727.966,491.331 640.154,460.321 542.132,427.668 396.518,382.752 
  366.193,373.912 
  "/>
<circle clip-path="url(#clip632)" cx="1222.72" cy="702.531" r="14.4" fill="#e26f46" fill-rule="evenodd" fill-opacity="1" stroke="#000000" stroke-opacity="1" stroke-width="3.84"/>
<polyline clip-path="url(#clip632)" style="stroke:#3da44d; stroke-linecap:butt; stroke-linejoin:round; stroke-width:4; stroke-opacity:1; fill:none" points="
  1222.72,702.531 1592.63,887.485 
  "/>
<polyline clip-path="url(#clip632)" style="stroke:#3da44d; stroke-linecap:butt; stroke-linejoin:round; stroke-width:4; stroke-opacity:1; fill:none" points="
  1565.58,851.422 1592.63,887.485 1547.55,887.485 
  "/>
<polyline clip-path="url(#clip632)" style="stroke:#3da44d; stroke-linecap:butt; stroke-linejoin:round; stroke-width:4; stroke-opacity:1; fill:none" points="
  1592.63,887.485 1222.72,702.531 
  "/>
<polyline clip-path="url(#clip632)" style="stroke:#c271d2; stroke-linecap:butt; stroke-linejoin:round; stroke-width:4; stroke-opacity:1; fill:none" points="
  1222.72,702.531 1407.68,332.623 
  "/>
<polyline clip-path="url(#clip632)" style="stroke:#c271d2; stroke-linecap:butt; stroke-linejoin:round; stroke-width:4; stroke-opacity:1; fill:none" points="
  1371.61,359.671 1407.68,332.623 1407.68,377.702 
  "/>
<polyline clip-path="url(#clip632)" style="stroke:#c271d2; stroke-linecap:butt; stroke-linejoin:round; stroke-width:4; stroke-opacity:1; fill:none" points="
  1407.68,332.623 1222.72,702.531 
  "/>
<polyline clip-path="url(#clip632)" style="stroke:#ac8d18; stroke-linecap:butt; stroke-linejoin:round; stroke-width:4; stroke-opacity:1; fill:none" points="
  1222.72,702.531 1807.6,410.093 
  "/>
<polyline clip-path="url(#clip632)" style="stroke:#ac8d18; stroke-linecap:butt; stroke-linejoin:round; stroke-width:4; stroke-opacity:1; fill:none" points="
  1762.52,410.093 1807.6,410.093 1780.55,446.157 
  "/>
<polyline clip-path="url(#clip632)" style="stroke:#ac8d18; stroke-linecap:butt; stroke-linejoin:round; stroke-width:4; stroke-opacity:1; fill:none" points="
  1807.6,410.093 1222.72,702.531 
  "/>
<polyline clip-path="url(#clip632)" style="stroke:#090621; stroke-linecap:butt; stroke-linejoin:round; stroke-width:4; stroke-opacity:1; fill:none" points="
  607.933,1751.15 604.879,1734.44 601.703,1717.73 598.406,1701.02 595.954,1689.03 594.98,1684.31 591.409,1667.6 587.716,1650.89 583.901,1634.18 579.964,1617.47 
  575.905,1600.76 575.067,1597.41 571.693,1584.05 567.35,1567.34 562.883,1550.63 558.294,1533.92 554.179,1519.33 553.576,1517.21 548.695,1500.5 543.69,1483.79 
  538.56,1467.08 533.306,1450.37 533.292,1450.33 527.878,1433.66 522.323,1416.95 516.643,1400.24 512.404,1388.04 510.823,1383.53 504.836,1366.82 498.723,1350.11 
  492.482,1333.4 491.517,1330.87 486.063,1316.69 479.507,1299.98 472.823,1283.27 470.63,1277.89 465.967,1266.56 458.96,1249.85 451.824,1233.14 449.742,1228.36 
  444.508,1216.43 437.042,1199.72 429.445,1183.01 428.855,1181.74 421.647,1166.31 413.712,1149.6 407.968,1137.7 405.622,1132.89 397.342,1116.18 388.929,1099.47 
  387.08,1095.85 380.315,1082.76 371.549,1066.05 366.193,1055.99 
  "/>
<polyline clip-path="url(#clip632)" style="stroke:#1f0c47; stroke-linecap:butt; stroke-linejoin:round; stroke-width:4; stroke-opacity:1; fill:none" points="
  366.193,652.237 375.461,665.008 387.08,681.201 387.448,681.718 399.186,698.428 407.968,711.072 410.764,715.138 422.123,731.848 428.855,741.867 433.307,748.558 
  444.295,765.268 449.742,773.652 455.1,781.978 465.723,798.688 470.63,806.5 476.164,815.397 486.43,832.107 491.517,840.493 496.52,848.817 506.435,865.527 
  512.404,875.718 516.187,882.237 525.758,898.947 533.292,912.275 535.186,915.657 544.419,932.367 553.528,949.077 554.179,950.288 562.435,965.786 571.214,982.496 
  575.067,989.934 579.825,999.206 588.279,1015.92 595.954,1031.31 596.606,1032.63 604.741,1049.34 612.756,1066.05 616.841,1074.69 620.616,1082.76 628.319,1099.47 
  635.902,1116.18 637.729,1120.27 643.315,1132.89 650.593,1149.6 657.752,1166.31 658.616,1168.36 664.738,1183.01 671.599,1199.72 678.342,1216.43 679.503,1219.36 
  684.919,1233.14 691.369,1249.85 697.703,1266.56 700.391,1273.79 703.89,1283.27 709.937,1299.98 715.869,1316.69 721.278,1332.24 721.681,1333.4 727.332,1350.11 
  732.869,1366.82 738.29,1383.53 742.165,1395.73 743.585,1400.24 748.733,1416.95 753.768,1433.66 758.688,1450.37 763.053,1465.55 763.491,1467.08 768.145,1483.79 
  772.685,1500.5 777.113,1517.21 781.428,1533.92 783.94,1543.91 785.616,1550.63 789.671,1567.34 793.614,1584.05 797.446,1600.76 801.165,1617.47 804.773,1634.18 
  804.827,1634.44 808.24,1650.89 811.596,1667.6 814.841,1684.31 817.975,1701.02 820.998,1717.73 823.91,1734.44 825.715,1745.21 826.703,1751.15 
  "/>
<polyline clip-path="url(#clip632)" style="stroke:#3b0964; stroke-linecap:butt; stroke-linejoin:round; stroke-width:4; stroke-opacity:1; fill:none" points="
  1027.97,1751.15 1025.38,1734.44 1022.69,1717.73 1019.9,1701.02 1017,1684.31 1014.01,1667.6 1013.7,1665.94 1010.89,1650.89 1007.66,1634.18 1004.33,1617.47 
  1000.9,1600.76 997.366,1584.05 993.727,1567.34 992.814,1563.26 989.963,1550.63 986.088,1533.92 982.108,1517.21 978.025,1500.5 973.838,1483.79 971.926,1476.35 
  969.528,1467.08 965.098,1450.37 960.564,1433.66 955.924,1416.95 951.18,1400.24 951.039,1399.76 946.294,1383.53 941.301,1366.82 936.202,1350.11 930.997,1333.4 
  930.152,1330.74 925.651,1316.69 920.192,1299.98 914.627,1283.27 909.264,1267.48 908.952,1266.56 903.127,1249.85 897.195,1233.14 891.155,1216.43 888.377,1208.88 
  884.981,1199.72 878.676,1183.01 872.263,1166.31 867.49,1154.08 865.727,1149.6 859.043,1132.89 852.25,1116.18 846.602,1102.5 845.337,1099.47 838.268,1082.76 
  831.089,1066.05 825.715,1053.73 823.784,1049.34 816.324,1032.63 808.752,1015.92 804.827,1007.38 801.038,999.206 793.18,982.496 785.209,965.786 783.94,963.162 
  777.07,949.077 768.806,932.367 763.053,920.889 760.408,915.657 751.847,898.947 743.172,882.237 742.165,880.324 734.316,865.527 725.337,848.817 721.278,841.358 
  716.2,832.107 706.912,815.397 700.391,803.809 697.483,798.688 687.88,781.978 679.503,767.576 678.149,765.268 668.226,748.558 658.616,732.564 658.182,731.848 
  647.933,715.138 637.729,698.691 637.564,698.428 626.984,681.718 616.841,665.88 616.278,665.008 605.36,648.299 595.954,634.061 594.306,631.589 583.044,614.879 
  575.067,603.169 571.629,598.169 560.016,581.459 554.179,573.148 548.226,564.749 536.257,548.039 533.292,543.942 524.078,531.329 512.404,515.512 511.74,514.62 
  499.164,497.91 491.517,487.851 486.412,481.2 473.46,464.49 470.63,460.874 460.281,447.78 449.742,434.575 446.918,431.07 433.322,414.36 428.855,408.922 
  419.504,397.65 407.968,383.874 405.486,380.94 391.221,364.231 387.08,359.426 376.719,347.521 366.193,335.538 
  "/>
<polyline clip-path="url(#clip632)" style="stroke:#6e186e; stroke-linecap:butt; stroke-linejoin:round; stroke-width:4; stroke-opacity:1; fill:none" points="
  635.553,96.8724 637.729,99.3322 650.218,113.582 658.616,123.242 664.691,130.292 678.971,147.002 679.503,147.63 693.015,163.712 700.391,172.564 706.881,180.422 
  720.567,197.132 721.278,198.007 734.027,213.842 742.165,224.036 747.322,230.552 760.434,247.261 763.053,250.628 773.345,263.971 783.94,277.83 786.102,280.681 
  798.659,297.391 804.827,305.674 811.052,314.101 823.283,330.811 825.715,334.164 835.323,347.521 846.602,363.346 847.228,364.231 858.931,380.94 867.49,393.274 
  870.501,397.65 881.894,414.36 888.377,423.96 893.14,431.07 904.226,447.78 909.264,455.448 915.157,464.49 925.942,481.2 930.152,487.787 936.569,497.91 
  947.058,514.62 951.039,521.027 957.39,531.329 967.586,548.039 971.926,555.225 977.633,564.749 987.542,581.459 992.814,590.443 997.312,598.169 1006.94,614.879 
  1013.7,626.747 1016.44,631.589 1025.79,648.299 1034.59,664.208 1035.03,665.008 1044.1,681.718 1053.07,698.428 1055.48,702.956 1061.89,715.138 1070.59,731.848 
  1076.36,743.055 1079.17,748.558 1087.61,765.268 1095.95,781.978 1097.25,784.622 1104.13,798.688 1112.21,815.397 1118.14,827.823 1120.17,832.107 1127.99,848.817 
  1135.71,865.527 1139.03,872.804 1143.3,882.237 1150.76,898.947 1158.13,915.657 1159.91,919.747 1165.36,932.367 1172.49,949.077 1179.51,965.786 1180.8,968.898 
  1186.4,982.496 1193.18,999.206 1199.86,1015.92 1201.69,1020.55 1206.41,1032.63 1212.86,1049.34 1219.21,1066.05 1222.57,1075.05 1225.44,1082.76 1231.55,1099.47 
  1237.57,1116.18 1243.46,1132.8 1243.49,1132.89 1249.28,1149.6 1254.97,1166.31 1260.57,1183.01 1264.35,1194.49 1266.06,1199.72 1271.43,1216.43 1276.71,1233.14 
  1281.89,1249.85 1285.24,1260.84 1286.97,1266.56 1291.93,1283.27 1296.8,1299.98 1301.57,1316.69 1306.12,1332.95 1306.25,1333.4 1310.81,1350.11 1315.27,1366.82 
  1319.64,1383.53 1323.92,1400.24 1327.01,1412.59 1328.1,1416.95 1332.16,1433.66 1336.14,1450.37 1340.02,1467.08 1343.81,1483.79 1347.51,1500.5 1347.9,1502.32 
  1351.09,1517.21 1354.58,1533.92 1357.98,1550.63 1361.29,1567.34 1364.5,1584.05 1367.63,1600.76 1368.79,1607.13 1370.65,1617.47 1373.57,1634.18 1376.41,1650.89 
  1379.15,1667.6 1381.8,1684.31 1384.36,1701.02 1386.83,1717.73 1389.21,1734.44 1389.67,1737.84 1391.48,1751.15 
  "/>
<polyline clip-path="url(#clip632)" style="stroke:#88216a; stroke-linecap:butt; stroke-linejoin:round; stroke-width:4; stroke-opacity:1; fill:none" points="
  1558.07,1751.15 1556.77,1741.08 1555.91,1734.44 1553.65,1717.73 1551.31,1701.02 1548.88,1684.31 1546.37,1667.6 1543.77,1650.89 1541.08,1634.18 1538.31,1617.47 
  1535.88,1603.3 1535.45,1600.76 1532.48,1584.05 1529.43,1567.34 1526.3,1550.63 1523.07,1533.92 1519.76,1517.21 1516.37,1500.5 1515,1493.92 1512.87,1483.79 
  1509.28,1467.08 1505.6,1450.37 1501.83,1433.66 1497.98,1416.95 1494.11,1400.54 1494.04,1400.24 1489.99,1383.53 1485.84,1366.82 1481.61,1350.11 1477.3,1333.4 
  1473.22,1317.95 1472.89,1316.69 1468.37,1299.98 1463.76,1283.27 1459.06,1266.56 1454.27,1249.85 1452.34,1243.22 1449.38,1233.14 1444.38,1216.43 1439.3,1199.72 
  1434.12,1183.01 1431.45,1174.53 1428.84,1166.31 1423.45,1149.6 1417.98,1132.89 1412.41,1116.18 1410.56,1110.71 1406.73,1099.47 1400.95,1082.76 1395.07,1066.05 
  1389.67,1050.92 1389.1,1049.34 1383.01,1032.63 1376.82,1015.92 1370.55,999.206 1368.79,994.582 1364.15,982.496 1357.65,965.786 1351.06,949.077 1347.9,941.184 
  1344.35,932.367 1337.53,915.657 1330.61,898.947 1327.01,890.358 1323.58,882.237 1316.44,865.527 1309.2,848.817 1306.12,841.812 1301.84,832.107 1294.36,815.397 
  1286.79,798.688 1285.24,795.297 1279.09,781.978 1271.28,765.268 1264.35,750.621 1263.37,748.558 1255.31,731.848 1247.16,715.138 1243.46,707.632 1238.89,698.428 
  1230.49,681.718 1222.57,666.137 1222,665.008 1213.35,648.299 1204.6,631.589 1201.69,626.075 1195.72,614.879 1186.72,598.169 1180.8,587.292 1177.6,581.459 
  1168.34,564.749 1159.91,549.699 1158.98,548.039 1149.45,531.329 1139.83,514.62 1139.03,513.235 1130.04,497.91 1120.15,481.2 1118.14,477.826 1110.11,464.49 
  1099.94,447.78 1097.25,443.395 1089.62,431.07 1079.19,414.36 1076.36,409.884 1068.59,397.65 1057.87,380.94 1055.48,377.244 1046.98,364.231 1035.98,347.521 
  1034.59,345.427 1024.8,330.811 1013.7,314.389 1013.5,314.101 1002.02,297.391 992.814,284.114 990.415,280.681 978.633,263.971 971.926,254.542 966.707,247.261 
  954.624,230.552 951.039,225.637 942.367,213.842 930.152,197.367 929.976,197.132 917.38,180.422 909.264,169.746 904.641,163.712 891.729,147.002 888.377,142.699 
  878.632,130.292 867.49,116.222 865.382,113.582 851.933,96.8724 
  "/>
<polyline clip-path="url(#clip632)" style="stroke:#a12b61; stroke-linecap:butt; stroke-linejoin:round; stroke-width:4; stroke-opacity:1; fill:none" points="
  1051.37,96.8724 1055.48,102.351 1063.83,113.582 1076.17,130.292 1076.36,130.56 1088.31,147.002 1097.25,159.409 1100.33,163.712 1112.18,180.422 1118.14,188.892 
  1123.89,197.132 1135.46,213.842 1139.03,219.04 1146.87,230.552 1158.16,247.261 1159.91,249.886 1169.28,263.971 1180.29,280.681 1180.8,281.468 1191.12,297.391 
  1201.69,313.83 1201.86,314.101 1212.43,330.811 1222.57,347.01 1222.89,347.521 1233.19,364.231 1243.4,380.94 1243.46,381.05 1253.43,397.65 1263.38,414.36 
  1264.35,416.009 1273.16,431.07 1282.85,447.78 1285.24,451.938 1292.39,464.49 1301.82,481.2 1306.12,488.894 1311.13,497.91 1320.31,514.62 1327.01,526.94 
  1329.38,531.329 1338.32,548.039 1347.16,564.749 1347.9,566.159 1355.86,581.459 1364.46,598.169 1368.79,606.671 1372.94,614.879 1381.3,631.589 1389.57,648.299 
  1389.67,648.514 1397.69,665.008 1405.73,681.718 1410.56,691.885 1413.65,698.428 1421.45,715.138 1429.16,731.848 1431.45,736.854 1436.75,748.558 1444.24,765.268 
  1451.63,781.978 1452.34,783.591 1458.89,798.688 1466.06,815.397 1473.14,832.107 1473.22,832.3 1480.09,848.817 1486.95,865.527 1493.72,882.237 1494.11,883.211 
  1500.36,898.947 1506.92,915.657 1513.38,932.367 1515,936.595 1519.73,949.077 1525.98,965.786 1532.15,982.496 1535.88,992.77 1538.21,999.206 1544.16,1015.92 
  1550.03,1032.63 1555.81,1049.34 1556.77,1052.15 1561.48,1066.05 1567.05,1082.76 1572.54,1099.47 1577.66,1115.3 1577.94,1116.18 1583.22,1132.89 1588.42,1149.6 
  1593.54,1166.31 1598.55,1182.95 1598.56,1183.01 1603.48,1199.72 1608.31,1216.43 1613.05,1233.14 1617.71,1249.85 1619.43,1256.15 1622.27,1266.56 1626.73,1283.27 
  1631.11,1299.98 1635.41,1316.69 1639.62,1333.4 1640.32,1336.26 1643.72,1350.11 1647.74,1366.82 1651.68,1383.53 1655.53,1400.24 1659.3,1416.95 1661.21,1425.62 
  1662.97,1433.66 1666.55,1450.37 1670.05,1467.08 1673.46,1483.79 1676.8,1500.5 1680.04,1517.21 1682.1,1528.04 1683.2,1533.92 1686.27,1550.63 1689.25,1567.34 
  1692.15,1584.05 1694.97,1600.76 1697.7,1617.47 1700.36,1634.18 1702.93,1650.89 1702.98,1651.27 1705.4,1667.6 1707.79,1684.31 1710.1,1701.02 1712.33,1717.73 
  1714.48,1734.44 1716.54,1751.15 
  "/>
<polyline clip-path="url(#clip632)" style="stroke:#ba3655; stroke-linecap:butt; stroke-linejoin:round; stroke-width:4; stroke-opacity:1; fill:none" points="
  1868,1751.15 1866.02,1734.44 1863.96,1717.73 1861.82,1701.02 1859.61,1684.31 1857.32,1667.6 1854.94,1650.89 1852.49,1634.18 1849.97,1617.47 1849.2,1612.53 
  1847.35,1600.76 1844.65,1584.05 1841.87,1567.34 1839.01,1550.63 1836.07,1533.92 1833.05,1517.21 1829.96,1500.5 1828.31,1491.82 1826.77,1483.79 1823.5,1467.08 
  1820.15,1450.37 1816.72,1433.66 1813.21,1416.95 1809.62,1400.24 1807.42,1390.23 1805.94,1383.53 1802.17,1366.82 1798.32,1350.11 1794.39,1333.4 1790.38,1316.69 
  1786.53,1300.99 1786.29,1299.98 1782.09,1283.27 1777.82,1266.56 1773.46,1249.85 1769.02,1233.14 1765.65,1220.64 1764.5,1216.43 1759.88,1199.72 1755.17,1183.01 
  1750.39,1166.31 1745.52,1149.6 1744.76,1147.02 1740.55,1132.89 1735.49,1116.18 1730.35,1099.47 1725.13,1082.76 1723.87,1078.8 1719.8,1066.05 1714.38,1049.34 
  1708.88,1032.63 1703.3,1015.92 1702.98,1014.97 1697.61,999.206 1691.83,982.496 1685.97,965.786 1682.1,954.898 1680.01,949.077 1673.95,932.367 1667.8,915.657 
  1661.58,898.947 1661.21,897.978 1655.23,882.237 1648.79,865.527 1642.28,848.817 1640.32,843.872 1635.65,832.107 1628.92,815.397 1622.11,798.688 1619.43,792.202 
  1615.19,781.978 1608.17,765.268 1601.06,748.558 1598.55,742.711 1593.84,731.848 1586.52,715.138 1579.12,698.428 1577.66,695.177 1571.59,681.718 1563.96,665.008 
  1556.77,649.418 1556.25,648.299 1548.41,631.589 1540.48,614.879 1535.88,605.306 1532.44,598.169 1524.28,581.459 1516.04,564.749 1515,562.652 1507.67,548.039 
  1499.2,531.329 1494.11,521.393 1490.62,514.62 1481.92,497.91 1473.22,481.374 1473.13,481.2 1464.2,464.49 1455.17,447.78 1452.34,442.573 1446.02,431.07 
  1436.76,414.36 1431.45,404.862 1427.39,397.65 1417.89,380.94 1410.56,368.177 1408.28,364.231 1398.54,347.521 1389.67,332.462 1388.69,330.811 1378.7,314.101 
  1368.79,297.666 1368.62,297.391 1358.38,280.681 1348.04,263.971 1347.9,263.74 1337.55,247.261 1327.01,230.635 1326.96,230.552 1316.2,213.842 1306.12,198.314 
  1305.35,197.132 1294.34,180.422 1285.24,166.736 1283.21,163.712 1271.93,147.002 1264.35,135.863 1260.53,130.292 1248.98,113.582 1243.46,105.662 1237.29,96.8724 
  
  "/>
<polyline clip-path="url(#clip632)" style="stroke:#d04544; stroke-linecap:butt; stroke-linejoin:round; stroke-width:4; stroke-opacity:1; fill:none" points="
  1412.15,96.8724 1423.17,113.582 1431.45,126.234 1434.09,130.292 1444.86,147.002 1452.34,158.704 1455.52,163.712 1466.04,180.422 1473.22,191.929 1476.45,197.132 
  1486.73,213.842 1494.11,225.946 1496.9,230.552 1506.94,247.261 1515,260.798 1516.87,263.971 1526.67,280.681 1535.88,296.53 1536.38,297.391 1545.95,314.101 
  1555.42,330.811 1556.77,333.209 1564.76,347.521 1574.01,364.231 1577.66,370.885 1583.14,380.94 1592.16,397.65 1598.55,409.606 1601.07,414.36 1609.86,431.07 
  1618.57,447.78 1619.43,449.449 1627.15,464.49 1635.63,481.2 1640.32,490.523 1644.01,497.91 1652.28,514.62 1660.46,531.329 1661.21,532.869 1668.52,548.039 
  1676.48,564.749 1682.1,576.645 1684.35,581.459 1692.11,598.169 1699.78,614.879 1702.98,621.936 1707.34,631.589 1714.8,648.299 1722.18,665.008 1723.87,668.881 
  1729.44,681.718 1736.61,698.428 1743.71,715.138 1744.76,717.65 1750.68,731.848 1757.56,748.558 1764.37,765.268 1765.65,768.441 1771.06,781.978 1777.66,798.688 
  1784.19,815.397 1786.53,821.48 1790.61,832.107 1796.93,848.817 1803.18,865.527 1807.42,877.031 1809.33,882.237 1815.38,898.947 1821.35,915.657 1827.24,932.367 
  1828.31,935.438 1833.02,949.077 1838.72,965.786 1844.34,982.496 1849.2,997.138 1849.88,999.206 1855.31,1015.92 1860.66,1032.63 1865.93,1049.34 1870.08,1062.69 
  1871.12,1066.05 1876.2,1082.76 1881.21,1099.47 1886.14,1116.18 1890.97,1132.8 1890.99,1132.89 1895.74,1149.6 1900.41,1166.31 1905,1183.01 1909.52,1199.72 
  1911.86,1208.54 1913.94,1216.43 1918.27,1233.14 1922.53,1249.85 1926.71,1266.56 1930.81,1283.27 1932.74,1291.29 1934.83,1299.98 1938.75,1316.69 1942.6,1333.4 
  1946.38,1350.11 1950.07,1366.82 1953.63,1383.26 1953.69,1383.53 1957.21,1400.24 1960.66,1416.95 1964.03,1433.66 1967.33,1450.37 1970.54,1467.08 1973.69,1483.79 
  1974.52,1488.33 1976.74,1500.5 1979.71,1517.21 1982.61,1533.92 1985.43,1550.63 1988.18,1567.34 1990.85,1584.05 1993.44,1600.76 1995.41,1613.81 1995.96,1617.47 
  1998.38,1634.18 2000.74,1650.89 2003.02,1667.6 2005.22,1684.31 2007.35,1701.02 2009.4,1717.73 2011.38,1734.44 2013.28,1751.15 
  "/>
<polyline clip-path="url(#clip632)" style="stroke:#e35832; stroke-linecap:butt; stroke-linejoin:round; stroke-width:4; stroke-opacity:1; fill:none" points="
  2153.08,1751.15 2151.25,1734.44 2149.35,1717.73 2147.37,1701.02 2145.33,1684.31 2143.21,1667.6 2141.62,1655.49 2141.01,1650.89 2138.74,1634.18 2136.39,1617.47 
  2133.96,1600.76 2131.47,1584.05 2128.9,1567.34 2126.26,1550.63 2123.55,1533.92 2120.76,1517.21 2120.73,1517.04 2117.89,1500.5 2114.94,1483.79 2111.92,1467.08 
  2108.82,1450.37 2105.65,1433.66 2102.41,1416.95 2099.84,1404.01 2099.09,1400.24 2095.69,1383.53 2092.21,1366.82 2088.65,1350.11 2085.03,1333.4 2081.32,1316.69 
  2078.96,1306.21 2077.54,1299.98 2073.67,1283.27 2069.73,1266.56 2065.71,1249.85 2061.62,1233.14 2058.07,1218.91 2057.45,1216.43 2053.19,1199.72 2048.85,1183.01 
  2044.44,1166.31 2039.95,1149.6 2037.18,1139.46 2035.38,1132.89 2030.71,1116.18 2025.98,1099.47 2021.17,1082.76 2016.29,1066.09 2016.28,1066.05 2011.29,1049.34 
  2006.23,1032.63 2001.09,1015.92 1995.87,999.206 1995.41,997.743 1990.55,982.496 1985.16,965.786 1979.68,949.077 1974.52,933.522 1974.13,932.367 1968.48,915.657 
  1962.75,898.947 1956.94,882.237 1953.63,872.849 1951.04,865.527 1945.04,848.817 1938.97,832.107 1932.83,815.397 1932.74,815.18 1926.57,798.688 1920.23,781.978 
  1913.81,765.268 1911.86,760.23 1907.3,748.558 1900.69,731.848 1894.01,715.138 1890.97,707.634 1887.22,698.428 1880.34,681.718 1873.39,665.008 1870.08,657.158 
  1866.33,648.299 1859.18,631.589 1851.94,614.879 1849.2,608.597 1844.61,598.169 1837.17,581.459 1829.66,564.749 1828.31,561.771 1822.03,548.039 1814.32,531.329 
  1807.42,516.544 1806.52,514.62 1798.6,497.91 1790.6,481.2 1786.53,472.799 1782.49,464.49 1774.28,447.78 1765.99,431.07 1765.65,430.38 1757.57,414.36 
  1749.07,397.65 1744.76,389.252 1740.46,380.94 1731.75,364.231 1723.87,349.268 1722.95,347.521 1714.01,330.811 1705,314.101 1702.98,310.398 1695.86,297.391 
  1686.63,280.681 1682.1,272.557 1677.28,263.971 1667.82,247.261 1661.21,235.677 1658.26,230.552 1648.58,213.842 1640.32,199.706 1638.81,197.132 1628.9,180.422 
  1619.43,164.601 1618.9,163.712 1608.76,147.002 1598.55,130.319 1598.53,130.292 1588.15,113.582 1577.69,96.8724 
  "/>
<polyline clip-path="url(#clip632)" style="stroke:#f0701e; stroke-linecap:butt; stroke-linejoin:round; stroke-width:4; stroke-opacity:1; fill:none" points="
  1735.25,96.8724 1744.76,112.733 1745.26,113.582 1755.14,130.292 1764.93,147.002 1765.65,148.229 1774.59,163.712 1784.17,180.422 1786.53,184.588 1793.62,197.132 
  1802.98,213.842 1807.42,221.848 1812.22,230.552 1821.37,247.261 1828.31,260.056 1830.42,263.971 1839.35,280.681 1848.2,297.391 1849.2,299.28 1856.93,314.101 
  1865.58,330.811 1870.08,339.603 1874.12,347.521 1882.56,364.231 1890.92,380.94 1890.97,381.051 1899.15,397.65 1907.31,414.36 1911.86,423.774 1915.36,431.07 
  1923.32,447.78 1931.2,464.49 1932.74,467.803 1938.96,481.2 1946.64,497.91 1953.63,513.27 1954.24,514.62 1961.73,531.329 1969.13,548.039 1974.52,560.314 
  1976.45,564.749 1983.67,581.459 1990.81,598.169 1995.41,609.052 1997.86,614.879 2004.8,631.589 2011.68,648.299 2016.29,659.653 2018.46,665.008 2025.14,681.718 
  2031.75,698.428 2037.18,712.31 2038.28,715.138 2044.7,731.848 2051.05,748.558 2057.33,765.268 2058.07,767.265 2063.5,781.978 2069.59,798.688 2075.61,815.397 
  2078.96,824.816 2081.54,832.107 2087.37,848.817 2093.14,865.527 2098.83,882.237 2099.84,885.267 2104.42,898.947 2109.93,915.657 2115.37,932.367 2120.73,949.073 
  2120.73,949.077 2126,965.786 2131.19,982.496 2136.3,999.206 2141.35,1015.92 2141.62,1016.82 2146.3,1032.63 2151.17,1049.34 2155.97,1066.05 2160.7,1082.76 
  2162.51,1089.25 2165.34,1099.47 2169.89,1116.18 2174.38,1132.89 2178.79,1149.6 2183.14,1166.31 2183.39,1167.31 2187.38,1183.01 2191.56,1199.72 2195.66,1216.43 
  2199.69,1233.14 2203.65,1249.85 2204.28,1252.54 2207.53,1266.56 2211.32,1283.27 2215.05,1299.98 2218.7,1316.69 2222.28,1333.4 2225.17,1347.13 2225.79,1350.11 
  2229.21,1366.82 2232.56,1383.53 2235.84,1400.24 2239.05,1416.95 2242.19,1433.66 2245.26,1450.37 2246.05,1454.82 2248.24,1467.08 2251.15,1483.79 2253.99,1500.5 
  2256.76,1517.21 2259.46,1533.92 2262.09,1550.63 2264.64,1567.34 2266.94,1582.78 2267.13,1584.05 2269.53,1600.76 2271.87,1617.47 2274.13,1634.18 2276.32,1650.89 
  2278.45,1667.6 2280.5,1684.31 2282.48,1701.02 2284.39,1717.73 2286.23,1734.44 2287.83,1749.48 2288.01,1751.15 
  "/>
<polyline clip-path="url(#clip632)" style="stroke:#f98c09; stroke-linecap:butt; stroke-linejoin:round; stroke-width:4; stroke-opacity:1; fill:none" points="
  2418.49,1751.15 2416.78,1734.44 2415.01,1717.73 2413.16,1701.02 2413.15,1700.94 2411.24,1684.31 2409.25,1667.6 2407.19,1650.89 2405.07,1634.18 2402.87,1617.47 
  2400.61,1600.76 2398.28,1584.05 2395.88,1567.34 2393.42,1550.63 2392.27,1543.04 2390.88,1533.92 2388.26,1517.21 2385.58,1500.5 2382.82,1483.79 2380,1467.08 
  2377.11,1450.37 2374.16,1433.66 2371.38,1418.32 2371.13,1416.95 2368.02,1400.24 2364.84,1383.53 2361.59,1366.82 2358.28,1350.11 2354.89,1333.4 2351.44,1316.69 
  2350.49,1312.2 2347.9,1299.98 2344.29,1283.27 2340.62,1266.56 2336.87,1249.85 2333.05,1233.14 2329.6,1218.33 2329.16,1216.43 2325.19,1199.72 2321.14,1183.01 
  2317.03,1166.31 2312.84,1149.6 2308.72,1133.39 2308.59,1132.89 2304.24,1116.18 2299.83,1099.47 2295.34,1082.76 2290.79,1066.05 2287.83,1055.36 2286.15,1049.34 
  2281.44,1032.63 2276.65,1015.92 2271.79,999.206 2266.94,982.784 2266.86,982.496 2261.83,965.786 2256.73,949.077 2251.57,932.367 2246.33,915.657 2246.05,914.795 
  2240.99,898.947 2235.59,882.237 2230.11,865.527 2225.17,850.651 2224.56,848.817 2218.91,832.107 2213.18,815.397 2207.39,798.688 2204.28,789.823 2201.51,781.978 
  2195.55,765.268 2189.51,748.558 2183.4,731.848 2183.39,731.84 2177.18,715.138 2170.89,698.428 2164.53,681.718 2162.51,676.451 2158.08,665.008 2151.54,648.299 
  2144.93,631.589 2141.62,623.317 2138.22,614.879 2131.43,598.169 2124.57,581.459 2120.73,572.226 2117.61,564.749 2110.56,548.039 2103.44,531.329 2099.84,522.989 
  2096.22,514.62 2088.91,497.91 2081.53,481.2 2078.96,475.443 2074.04,464.49 2066.47,447.78 2058.82,431.07 2058.07,429.441 2051.06,414.36 2043.22,397.65 
  2037.18,384.891 2035.3,380.94 2027.27,364.231 2019.16,347.521 2016.29,341.664 2010.95,330.811 2002.65,314.101 1995.41,299.662 1994.26,297.391 1985.76,280.681 
  1977.18,263.971 1974.52,258.828 1968.5,247.261 1959.72,230.552 1953.63,219.069 1950.85,213.842 1941.86,197.132 1932.81,180.422 1932.74,180.311 1923.62,163.712 
  1914.35,147.002 1911.86,142.539 1904.97,130.292 1895.5,113.582 1890.97,105.663 1885.92,96.8724 
  "/>
<polyline clip-path="url(#clip632)" style="stroke:#fbaa0e; stroke-linecap:butt; stroke-linejoin:round; stroke-width:4; stroke-opacity:1; fill:none" points="
  2030.5,96.8724 2037.18,108.973 2039.71,113.582 2048.82,130.292 2057.85,147.002 2058.07,147.415 2066.75,163.712 2075.59,180.422 2078.96,186.852 2084.31,197.132 
  2092.95,213.842 2099.84,227.295 2101.5,230.552 2109.94,247.261 2118.31,263.971 2120.73,268.841 2126.58,280.681 2134.75,297.391 2141.62,311.543 2142.85,314.101 
  2150.84,330.811 2158.76,347.521 2162.51,355.509 2166.58,364.231 2174.31,380.94 2181.96,397.65 2183.39,400.801 2189.51,414.36 2196.99,431.07 2204.28,447.538 
  2204.39,447.78 2211.68,464.49 2218.9,481.2 2225.17,495.863 2226.04,497.91 2233.08,514.62 2240.04,531.329 2246.05,545.892 2246.94,548.039 2253.73,564.749 
  2260.45,581.459 2266.94,597.787 2267.09,598.169 2273.64,614.879 2280.11,631.589 2286.51,648.299 2287.83,651.771 2292.82,665.008 2299.05,681.718 2305.21,698.428 
  2308.72,708.046 2311.29,715.138 2317.28,731.848 2323.2,748.558 2329.05,765.268 2329.6,766.874 2334.8,781.978 2340.49,798.688 2346.1,815.397 2350.49,828.64 
  2351.64,832.107 2357.08,848.817 2362.46,865.527 2367.77,882.237 2371.38,893.743 2373,898.947 2378.15,915.657 2383.23,932.367 2388.23,949.077 2392.27,962.715 
  2393.17,965.786 2398.02,982.496 2402.8,999.206 2407.51,1015.92 2412.15,1032.63 2413.15,1036.29 2416.71,1049.34 2421.19,1066.05 2425.61,1082.76 2429.96,1099.47 
  2434.04,1115.41 
  "/>
<polyline clip-path="url(#clip632)" style="stroke:#f8c931; stroke-linecap:butt; stroke-linejoin:round; stroke-width:4; stroke-opacity:1; fill:none" points="
  2434.04,695.253 2429.2,681.718 2423.16,665.008 2417.05,648.299 2413.15,637.748 2410.87,631.589 2404.59,614.879 2398.25,598.169 2392.27,582.586 2391.83,581.459 
  2385.32,564.749 2378.74,548.039 2372.09,531.329 2371.38,529.567 2365.34,514.62 2358.52,497.91 2351.63,481.2 2350.49,478.473 2344.64,464.49 2337.57,447.78 
  2330.44,431.07 2329.6,429.129 2323.21,414.36 2315.9,397.65 2308.72,381.39 2308.52,380.94 2301.03,364.231 2293.47,347.521 2287.83,335.153 2285.84,330.811 
  2278.1,314.101 2270.29,297.391 2266.94,290.28 2262.39,280.681 2254.4,263.971 2246.35,247.261 2246.05,246.665 2238.17,230.552 2229.93,213.842 2225.17,204.273 
  2221.6,197.132 2213.16,180.422 2204.66,163.712 2204.28,162.967 2196.05,147.002 2187.35,130.292 2183.39,122.738 2178.57,113.582 2169.68,96.8724 
  "/>
<polyline clip-path="url(#clip632)" style="stroke:#f1e864; stroke-linecap:butt; stroke-linejoin:round; stroke-width:4; stroke-opacity:1; fill:none" points="
  2304.04,96.8724 2308.72,105.955 2312.62,113.582 2321.11,130.292 2329.53,147.002 2329.6,147.144 2337.84,163.712 2346.08,180.422 2350.49,189.447 2354.23,197.132 
  2362.29,213.842 2370.28,230.552 2371.38,232.874 2378.16,247.261 2385.98,263.971 2392.27,277.544 2393.71,280.681 2401.35,297.391 2408.92,314.101 2413.15,323.539 
  2416.4,330.811 2423.8,347.521 2431.12,364.231 2434.04,370.948 
  "/>
<polyline clip-path="url(#clip632)" style="stroke:#550f6d; stroke-linecap:butt; stroke-linejoin:round; stroke-width:4; stroke-opacity:1; fill:none" points="
  1215.39,1751.15 1212.97,1734.44 1210.45,1717.73 1207.84,1701.02 1205.13,1684.31 1202.33,1667.6 1201.69,1663.89 1199.42,1650.89 1196.4,1634.18 1193.29,1617.47 
  1190.08,1600.76 1186.77,1584.05 1183.37,1567.34 1180.8,1555.07 1179.86,1550.63 1176.24,1533.92 1172.52,1517.21 1168.71,1500.5 1164.79,1483.79 1160.78,1467.08 
  1159.91,1463.54 1156.65,1450.37 1152.42,1433.66 1148.08,1416.95 1143.65,1400.24 1139.12,1383.53 1139.03,1383.18 1134.46,1366.82 1129.7,1350.11 1124.84,1333.4 
  1119.89,1316.69 1118.14,1310.92 1114.8,1299.98 1109.61,1283.27 1104.32,1266.56 1098.93,1249.85 1097.25,1244.75 1093.41,1233.14 1087.77,1216.43 1082.04,1199.72 
  1076.36,1183.46 1076.21,1183.01 1070.23,1166.31 1064.15,1149.6 1057.97,1132.89 1055.48,1126.24 1051.66,1116.18 1045.23,1099.47 1038.7,1082.76 1034.59,1072.39 
  1032.05,1066.05 1025.26,1049.34 1018.37,1032.63 1013.7,1021.46 1011.36,1015.92 1004.22,999.206 996.965,982.496 992.814,973.066 989.585,965.786 982.068,949.077 
  974.448,932.367 971.926,926.911 966.683,915.657 958.793,898.947 951.039,882.739 950.797,882.237 942.634,865.527 934.365,848.817 930.152,840.411 925.957,832.107 
  917.409,815.397 909.264,799.672 908.75,798.688 899.919,781.978 890.98,765.268 888.377,760.46 881.882,748.558 872.654,731.848 867.49,722.605 863.284,715.138 
  853.763,698.428 846.602,686.004 844.112,681.718 834.292,665.008 825.715,650.574 824.352,648.299 814.229,631.589 804.827,616.239 803.988,614.879 793.556,598.169 
  783.94,582.929 783.005,581.459 772.26,564.749 763.053,550.58 761.388,548.039 750.324,531.329 742.165,519.133 739.12,514.62 727.732,497.91 721.278,488.535 
  716.185,481.2 704.466,464.49 700.391,458.736 692.564,447.78 680.509,431.07 679.503,429.689 668.24,414.36 658.616,401.388 655.819,397.65 643.194,380.94 
  637.729,373.775 630.384,364.231 617.406,347.521 616.841,346.8 604.194,330.811 595.954,320.487 590.81,314.101 577.229,297.391 575.067,294.755 563.419,280.681 
  554.179,269.616 549.422,263.971 535.214,247.261 533.292,245.02 520.766,230.552 512.404,220.976 506.116,213.842 491.517,197.422 491.256,197.132 476.129,180.422 
  470.63,174.398 460.78,163.712 449.742,151.836 445.205,147.002 429.392,130.292 428.855,129.729 413.297,113.582 407.968,108.097 396.956,96.8724 
  "/>
</svg>
