<?xml version="1.0" encoding="utf-8"?>
<svg xmlns="http://www.w3.org/2000/svg" xmlns:xlink="http://www.w3.org/1999/xlink" width="672" height="480" viewBox="0 0 2688 1920">
<defs>
  <clipPath id="clip220">
    <rect x="0" y="0" width="2688" height="1920"/>
  </clipPath>
</defs>
<path clip-path="url(#clip220)" d="
M0 1920 L2688 1920 L2688 0 L0 0  Z
  " fill="#ffffff" fill-rule="evenodd" fill-opacity="1"/>
<defs>
  <clipPath id="clip221">
    <rect x="537" y="0" width="1883" height="1883"/>
  </clipPath>
</defs>
<path clip-path="url(#clip220)" d="
M196.816 1800.78 L2640.76 1800.78 L2640.76 47.2441 L196.816 47.2441  Z
  " fill="#ffffff" fill-rule="evenodd" fill-opacity="1"/>
<defs>
  <clipPath id="clip222">
    <rect x="196" y="47" width="2445" height="1755"/>
  </clipPath>
</defs>
<polyline clip-path="url(#clip222)" style="stroke:#000000; stroke-linecap:round; stroke-linejoin:round; stroke-width:2; stroke-opacity:0.1; fill:none" points="
  261.364,1800.78 261.364,47.2441 
  "/>
<polyline clip-path="url(#clip222)" style="stroke:#000000; stroke-linecap:round; stroke-linejoin:round; stroke-width:2; stroke-opacity:0.1; fill:none" points="
  723.408,1800.78 723.408,47.2441 
  "/>
<polyline clip-path="url(#clip222)" style="stroke:#000000; stroke-linecap:round; stroke-linejoin:round; stroke-width:2; stroke-opacity:0.1; fill:none" points="
  1185.45,1800.78 1185.45,47.2441 
  "/>
<polyline clip-path="url(#clip222)" style="stroke:#000000; stroke-linecap:round; stroke-linejoin:round; stroke-width:2; stroke-opacity:0.1; fill:none" points="
  1647.5,1800.78 1647.5,47.2441 
  "/>
<polyline clip-path="url(#clip222)" style="stroke:#000000; stroke-linecap:round; stroke-linejoin:round; stroke-width:2; stroke-opacity:0.1; fill:none" points="
  2109.54,1800.78 2109.54,47.2441 
  "/>
<polyline clip-path="url(#clip222)" style="stroke:#000000; stroke-linecap:round; stroke-linejoin:round; stroke-width:2; stroke-opacity:0.1; fill:none" points="
  2571.59,1800.78 2571.59,47.2441 
  "/>
<polyline clip-path="url(#clip220)" style="stroke:#000000; stroke-linecap:round; stroke-linejoin:round; stroke-width:4; stroke-opacity:1; fill:none" points="
  196.816,1800.78 2640.76,1800.78 
  "/>
<polyline clip-path="url(#clip220)" style="stroke:#000000; stroke-linecap:round; stroke-linejoin:round; stroke-width:4; stroke-opacity:1; fill:none" points="
  261.364,1800.78 261.364,1781.88 
  "/>
<polyline clip-path="url(#clip220)" style="stroke:#000000; stroke-linecap:round; stroke-linejoin:round; stroke-width:4; stroke-opacity:1; fill:none" points="
  723.408,1800.78 723.408,1781.88 
  "/>
<polyline clip-path="url(#clip220)" style="stroke:#000000; stroke-linecap:round; stroke-linejoin:round; stroke-width:4; stroke-opacity:1; fill:none" points="
  1185.45,1800.78 1185.45,1781.88 
  "/>
<polyline clip-path="url(#clip220)" style="stroke:#000000; stroke-linecap:round; stroke-linejoin:round; stroke-width:4; stroke-opacity:1; fill:none" points="
  1647.5,1800.78 1647.5,1781.88 
  "/>
<polyline clip-path="url(#clip220)" style="stroke:#000000; stroke-linecap:round; stroke-linejoin:round; stroke-width:4; stroke-opacity:1; fill:none" points="
  2109.54,1800.78 2109.54,1781.88 
  "/>
<polyline clip-path="url(#clip220)" style="stroke:#000000; stroke-linecap:round; stroke-linejoin:round; stroke-width:4; stroke-opacity:1; fill:none" points="
  2571.59,1800.78 2571.59,1781.88 
  "/>
<path clip-path="url(#clip220)" d="M261.364 1834 Q257.753 1834 255.924 1837.57 Q254.118 1841.11 254.118 1848.24 Q254.118 1855.34 255.924 1858.91 Q257.753 1862.45 261.364 1862.45 Q264.998 1862.45 266.803 1858.91 Q268.632 1855.34 268.632 1848.24 Q268.632 1841.11 266.803 1837.57 Q264.998 1834 261.364 1834 M261.364 1830.3 Q267.174 1830.3 270.229 1834.9 Q273.308 1839.49 273.308 1848.24 Q273.308 1856.96 270.229 1861.57 Q267.174 1866.15 261.364 1866.15 Q255.554 1866.15 252.475 1861.57 Q249.419 1856.96 249.419 1848.24 Q249.419 1839.49 252.475 1834.9 Q255.554 1830.3 261.364 1830.3 Z" fill="#000000" fill-rule="evenodd" fill-opacity="1" /><path clip-path="url(#clip220)" d="M713.79 1861.55 L721.429 1861.55 L721.429 1835.18 L713.119 1836.85 L713.119 1832.59 L721.383 1830.92 L726.059 1830.92 L726.059 1861.55 L733.698 1861.55 L733.698 1865.48 L713.79 1865.48 L713.79 1861.55 Z" fill="#000000" fill-rule="evenodd" fill-opacity="1" /><path clip-path="url(#clip220)" d="M1180.11 1861.55 L1196.43 1861.55 L1196.43 1865.48 L1174.48 1865.48 L1174.48 1861.55 Q1177.14 1858.79 1181.73 1854.16 Q1186.33 1849.51 1187.51 1848.17 Q1189.76 1845.65 1190.64 1843.91 Q1191.54 1842.15 1191.54 1840.46 Q1191.54 1837.71 1189.6 1835.97 Q1187.68 1834.23 1184.57 1834.23 Q1182.37 1834.23 1179.92 1835 Q1177.49 1835.76 1174.71 1837.31 L1174.71 1832.59 Q1177.54 1831.46 1179.99 1830.88 Q1182.44 1830.3 1184.48 1830.3 Q1189.85 1830.3 1193.05 1832.98 Q1196.24 1835.67 1196.24 1840.16 Q1196.24 1842.29 1195.43 1844.21 Q1194.64 1846.11 1192.54 1848.7 Q1191.96 1849.37 1188.86 1852.59 Q1185.75 1855.78 1180.11 1861.55 Z" fill="#000000" fill-rule="evenodd" fill-opacity="1" /><path clip-path="url(#clip220)" d="M1651.75 1846.85 Q1655.1 1847.57 1656.98 1849.84 Q1658.88 1852.1 1658.88 1855.44 Q1658.88 1860.55 1655.36 1863.35 Q1651.84 1866.15 1645.36 1866.15 Q1643.18 1866.15 1640.87 1865.71 Q1638.57 1865.3 1636.12 1864.44 L1636.12 1859.93 Q1638.07 1861.06 1640.38 1861.64 Q1642.69 1862.22 1645.22 1862.22 Q1649.62 1862.22 1651.91 1860.48 Q1654.22 1858.75 1654.22 1855.44 Q1654.22 1852.38 1652.07 1850.67 Q1649.94 1848.93 1646.12 1848.93 L1642.09 1848.93 L1642.09 1845.09 L1646.31 1845.09 Q1649.76 1845.09 1651.58 1843.72 Q1653.41 1842.34 1653.41 1839.74 Q1653.41 1837.08 1651.51 1835.67 Q1649.64 1834.23 1646.12 1834.23 Q1644.2 1834.23 1642 1834.65 Q1639.8 1835.07 1637.16 1835.95 L1637.16 1831.78 Q1639.82 1831.04 1642.14 1830.67 Q1644.48 1830.3 1646.54 1830.3 Q1651.86 1830.3 1654.96 1832.73 Q1658.07 1835.14 1658.07 1839.26 Q1658.07 1842.13 1656.42 1844.12 Q1654.78 1846.09 1651.75 1846.85 Z" fill="#000000" fill-rule="evenodd" fill-opacity="1" /><path clip-path="url(#clip220)" d="M2112.55 1835 L2100.75 1853.45 L2112.55 1853.45 L2112.55 1835 M2111.33 1830.92 L2117.2 1830.92 L2117.2 1853.45 L2122.14 1853.45 L2122.14 1857.34 L2117.2 1857.34 L2117.2 1865.48 L2112.55 1865.48 L2112.55 1857.34 L2096.95 1857.34 L2096.95 1852.82 L2111.33 1830.92 Z" fill="#000000" fill-rule="evenodd" fill-opacity="1" /><path clip-path="url(#clip220)" d="M2561.87 1830.92 L2580.22 1830.92 L2580.22 1834.86 L2566.15 1834.86 L2566.15 1843.33 Q2567.17 1842.98 2568.19 1842.82 Q2569.2 1842.64 2570.22 1842.64 Q2576.01 1842.64 2579.39 1845.81 Q2582.77 1848.98 2582.77 1854.4 Q2582.77 1859.97 2579.3 1863.08 Q2575.82 1866.15 2569.5 1866.15 Q2567.33 1866.15 2565.06 1865.78 Q2562.81 1865.41 2560.41 1864.67 L2560.41 1859.97 Q2562.49 1861.11 2564.71 1861.66 Q2566.94 1862.22 2569.41 1862.22 Q2573.42 1862.22 2575.75 1860.11 Q2578.09 1858.01 2578.09 1854.4 Q2578.09 1850.78 2575.75 1848.68 Q2573.42 1846.57 2569.41 1846.57 Q2567.54 1846.57 2565.66 1846.99 Q2563.81 1847.4 2561.87 1848.28 L2561.87 1830.92 Z" fill="#000000" fill-rule="evenodd" fill-opacity="1" /><polyline clip-path="url(#clip222)" style="stroke:#000000; stroke-linecap:round; stroke-linejoin:round; stroke-width:2; stroke-opacity:0.1; fill:none" points="
  196.816,1707.07 2640.76,1707.07 
  "/>
<polyline clip-path="url(#clip222)" style="stroke:#000000; stroke-linecap:round; stroke-linejoin:round; stroke-width:2; stroke-opacity:0.1; fill:none" points="
  196.816,1156.48 2640.76,1156.48 
  "/>
<polyline clip-path="url(#clip222)" style="stroke:#000000; stroke-linecap:round; stroke-linejoin:round; stroke-width:2; stroke-opacity:0.1; fill:none" points="
  196.816,605.884 2640.76,605.884 
  "/>
<polyline clip-path="url(#clip222)" style="stroke:#000000; stroke-linecap:round; stroke-linejoin:round; stroke-width:2; stroke-opacity:0.1; fill:none" points="
  196.816,55.2907 2640.76,55.2907 
  "/>
<polyline clip-path="url(#clip220)" style="stroke:#000000; stroke-linecap:round; stroke-linejoin:round; stroke-width:4; stroke-opacity:1; fill:none" points="
  196.816,1800.78 196.816,47.2441 
  "/>
<polyline clip-path="url(#clip220)" style="stroke:#000000; stroke-linecap:round; stroke-linejoin:round; stroke-width:4; stroke-opacity:1; fill:none" points="
  196.816,1707.07 215.714,1707.07 
  "/>
<polyline clip-path="url(#clip220)" style="stroke:#000000; stroke-linecap:round; stroke-linejoin:round; stroke-width:4; stroke-opacity:1; fill:none" points="
  196.816,1156.48 215.714,1156.48 
  "/>
<polyline clip-path="url(#clip220)" style="stroke:#000000; stroke-linecap:round; stroke-linejoin:round; stroke-width:4; stroke-opacity:1; fill:none" points="
  196.816,605.884 215.714,605.884 
  "/>
<polyline clip-path="url(#clip220)" style="stroke:#000000; stroke-linecap:round; stroke-linejoin:round; stroke-width:4; stroke-opacity:1; fill:none" points="
  196.816,55.2907 215.714,55.2907 
  "/>
<path clip-path="url(#clip220)" d="M50.5475 1707.52 L80.2233 1707.52 L80.2233 1711.46 L50.5475 1711.46 L50.5475 1707.52 Z" fill="#000000" fill-rule="evenodd" fill-opacity="1" /><path clip-path="url(#clip220)" d="M91.126 1720.42 L98.7648 1720.42 L98.7648 1694.05 L90.4547 1695.72 L90.4547 1691.46 L98.7185 1689.79 L103.394 1689.79 L103.394 1720.42 L111.033 1720.42 L111.033 1724.35 L91.126 1724.35 L91.126 1720.42 Z" fill="#000000" fill-rule="evenodd" fill-opacity="1" /><path clip-path="url(#clip220)" d="M120.478 1718.47 L125.362 1718.47 L125.362 1724.35 L120.478 1724.35 L120.478 1718.47 Z" fill="#000000" fill-rule="evenodd" fill-opacity="1" /><path clip-path="url(#clip220)" d="M135.593 1689.79 L153.95 1689.79 L153.95 1693.73 L139.876 1693.73 L139.876 1702.2 Q140.894 1701.85 141.913 1701.69 Q142.931 1701.5 143.95 1701.5 Q149.737 1701.5 153.116 1704.68 Q156.496 1707.85 156.496 1713.26 Q156.496 1718.84 153.024 1721.94 Q149.552 1725.02 143.232 1725.02 Q141.056 1725.02 138.788 1724.65 Q136.542 1724.28 134.135 1723.54 L134.135 1718.84 Q136.218 1719.98 138.441 1720.53 Q140.663 1721.09 143.14 1721.09 Q147.144 1721.09 149.482 1718.98 Q151.82 1716.87 151.82 1713.26 Q151.82 1709.65 149.482 1707.55 Q147.144 1705.44 143.14 1705.44 Q141.265 1705.44 139.39 1705.86 Q137.538 1706.27 135.593 1707.15 L135.593 1689.79 Z" fill="#000000" fill-rule="evenodd" fill-opacity="1" /><path clip-path="url(#clip220)" d="M49.5521 1156.93 L79.2279 1156.93 L79.2279 1160.86 L49.5521 1160.86 L49.5521 1156.93 Z" fill="#000000" fill-rule="evenodd" fill-opacity="1" /><path clip-path="url(#clip220)" d="M90.1306 1169.82 L97.7695 1169.82 L97.7695 1143.46 L89.4593 1145.12 L89.4593 1140.86 L97.7232 1139.2 L102.399 1139.2 L102.399 1169.82 L110.038 1169.82 L110.038 1173.76 L90.1306 1173.76 L90.1306 1169.82 Z" fill="#000000" fill-rule="evenodd" fill-opacity="1" /><path clip-path="url(#clip220)" d="M119.482 1167.88 L124.367 1167.88 L124.367 1173.76 L119.482 1173.76 L119.482 1167.88 Z" fill="#000000" fill-rule="evenodd" fill-opacity="1" /><path clip-path="url(#clip220)" d="M144.552 1142.28 Q140.941 1142.28 139.112 1145.84 Q137.306 1149.38 137.306 1156.51 Q137.306 1163.62 139.112 1167.18 Q140.941 1170.73 144.552 1170.73 Q148.186 1170.73 149.991 1167.18 Q151.82 1163.62 151.82 1156.51 Q151.82 1149.38 149.991 1145.84 Q148.186 1142.28 144.552 1142.28 M144.552 1138.57 Q150.362 1138.57 153.417 1143.18 Q156.496 1147.76 156.496 1156.51 Q156.496 1165.24 153.417 1169.85 Q150.362 1174.43 144.552 1174.43 Q138.741 1174.43 135.663 1169.85 Q132.607 1165.24 132.607 1156.51 Q132.607 1147.76 135.663 1143.18 Q138.741 1138.57 144.552 1138.57 Z" fill="#000000" fill-rule="evenodd" fill-opacity="1" /><path clip-path="url(#clip220)" d="M50.5475 606.336 L80.2233 606.336 L80.2233 610.271 L50.5475 610.271 L50.5475 606.336 Z" fill="#000000" fill-rule="evenodd" fill-opacity="1" /><path clip-path="url(#clip220)" d="M100.316 591.683 Q96.7047 591.683 94.876 595.248 Q93.0704 598.789 93.0704 605.919 Q93.0704 613.025 94.876 616.59 Q96.7047 620.132 100.316 620.132 Q103.95 620.132 105.756 616.59 Q107.584 613.025 107.584 605.919 Q107.584 598.789 105.756 595.248 Q103.95 591.683 100.316 591.683 M100.316 587.979 Q106.126 587.979 109.181 592.586 Q112.26 597.169 112.26 605.919 Q112.26 614.646 109.181 619.252 Q106.126 623.835 100.316 623.835 Q94.5056 623.835 91.4269 619.252 Q88.3714 614.646 88.3714 605.919 Q88.3714 597.169 91.4269 592.586 Q94.5056 587.979 100.316 587.979 Z" fill="#000000" fill-rule="evenodd" fill-opacity="1" /><path clip-path="url(#clip220)" d="M120.478 617.285 L125.362 617.285 L125.362 623.164 L120.478 623.164 L120.478 617.285 Z" fill="#000000" fill-rule="evenodd" fill-opacity="1" /><path clip-path="url(#clip220)" d="M135.593 588.604 L153.95 588.604 L153.95 592.539 L139.876 592.539 L139.876 601.012 Q140.894 600.664 141.913 600.502 Q142.931 600.317 143.95 600.317 Q149.737 600.317 153.116 603.488 Q156.496 606.66 156.496 612.076 Q156.496 617.655 153.024 620.757 Q149.552 623.835 143.232 623.835 Q141.056 623.835 138.788 623.465 Q136.542 623.095 134.135 622.354 L134.135 617.655 Q136.218 618.789 138.441 619.345 Q140.663 619.9 143.14 619.9 Q147.144 619.9 149.482 617.794 Q151.82 615.687 151.82 612.076 Q151.82 608.465 149.482 606.359 Q147.144 604.252 143.14 604.252 Q141.265 604.252 139.39 604.669 Q137.538 605.086 135.593 605.965 L135.593 588.604 Z" fill="#000000" fill-rule="evenodd" fill-opacity="1" /><path clip-path="url(#clip220)" d="M99.3204 41.0894 Q95.7093 41.0894 93.8806 44.6541 Q92.075 48.1958 92.075 55.3254 Q92.075 62.4318 93.8806 65.9966 Q95.7093 69.5383 99.3204 69.5383 Q102.955 69.5383 104.76 65.9966 Q106.589 62.4318 106.589 55.3254 Q106.589 48.1958 104.76 44.6541 Q102.955 41.0894 99.3204 41.0894 M99.3204 37.3857 Q105.131 37.3857 108.186 41.9921 Q111.265 46.5754 111.265 55.3254 Q111.265 64.0522 108.186 68.6586 Q105.131 73.242 99.3204 73.242 Q93.5102 73.242 90.4315 68.6586 Q87.376 64.0522 87.376 55.3254 Q87.376 46.5754 90.4315 41.9921 Q93.5102 37.3857 99.3204 37.3857 Z" fill="#000000" fill-rule="evenodd" fill-opacity="1" /><path clip-path="url(#clip220)" d="M119.482 66.6911 L124.367 66.6911 L124.367 72.5707 L119.482 72.5707 L119.482 66.6911 Z" fill="#000000" fill-rule="evenodd" fill-opacity="1" /><path clip-path="url(#clip220)" d="M144.552 41.0894 Q140.941 41.0894 139.112 44.6541 Q137.306 48.1958 137.306 55.3254 Q137.306 62.4318 139.112 65.9966 Q140.941 69.5383 144.552 69.5383 Q148.186 69.5383 149.991 65.9966 Q151.82 62.4318 151.82 55.3254 Q151.82 48.1958 149.991 44.6541 Q148.186 41.0894 144.552 41.0894 M144.552 37.3857 Q150.362 37.3857 153.417 41.9921 Q156.496 46.5754 156.496 55.3254 Q156.496 64.0522 153.417 68.6586 Q150.362 73.242 144.552 73.242 Q138.741 73.242 135.663 68.6586 Q132.607 64.0522 132.607 55.3254 Q132.607 46.5754 135.663 41.9921 Q138.741 37.3857 144.552 37.3857 Z" fill="#000000" fill-rule="evenodd" fill-opacity="1" /><polyline clip-path="url(#clip222)" style="stroke:#009af9; stroke-linecap:round; stroke-linejoin:round; stroke-width:4; stroke-opacity:1; fill:none" points="
  265.984,1751.15 267.86,1737.79 269.737,1724.64 271.613,1711.7 273.489,1698.98 275.366,1686.45 277.242,1674.11 279.119,1661.97 280.995,1650 289.67,1596.96 
  298.344,1547.3 307.019,1500.67 315.694,1456.75 324.369,1415.26 333.043,1375.98 341.718,1338.7 350.393,1303.25 359.068,1269.46 367.742,1237.21 376.417,1206.37 
  385.092,1176.84 402.441,1121.33 419.791,1070.04 430.217,1041.01 440.643,1013.22 451.07,986.57 461.496,960.995 482.349,912.788 503.201,868.121 520.832,832.826 
  538.463,799.583 556.093,768.221 573.724,738.591 592.876,708.214 612.028,679.577 631.179,652.551 650.331,627.018 667.988,604.713 685.644,583.514 703.3,563.356 
  720.956,544.176 758.815,506.088 796.674,471.741 840.537,436.065 884.4,404.27 923.381,378.878 962.361,355.87 996.543,337.45 1030.73,320.51 1067.99,303.562 
  1105.26,288.046 1142.75,273.739 1180.24,260.607 1263.14,235.189 1342.01,214.882 1424.03,197.013 1493.06,184.081 1577.35,170.45 1654.56,159.699 1725.87,151.001 
  1798.11,143.215 1879.07,135.529 1952.43,129.377 2036.42,123.14 2114.19,118.023 2190.86,113.511 2265.3,109.57 2341.61,105.923 2425.22,102.325 2546.67,97.7326 
  2571.59,96.8724 
  "/>
<path clip-path="url(#clip220)" d="
M2235.31 209.375 L2559.29 209.375 L2559.29 105.695 L2235.31 105.695  Z
  " fill="#ffffff" fill-rule="evenodd" fill-opacity="1"/>
<polyline clip-path="url(#clip220)" style="stroke:#000000; stroke-linecap:round; stroke-linejoin:round; stroke-width:4; stroke-opacity:1; fill:none" points="
  2235.31,209.375 2559.29,209.375 2559.29,105.695 2235.31,105.695 2235.31,209.375 
  "/>
<polyline clip-path="url(#clip220)" style="stroke:#009af9; stroke-linecap:round; stroke-linejoin:round; stroke-width:4; stroke-opacity:1; fill:none" points="
  2262.47,157.535 2425.4,157.535 
  "/>
<path clip-path="url(#clip220)" d="M2466.39 177.223 Q2464.59 181.852 2462.88 183.264 Q2461.16 184.676 2458.29 184.676 L2454.89 184.676 L2454.89 181.112 L2457.39 181.112 Q2459.15 181.112 2460.12 180.278 Q2461.09 179.445 2462.27 176.343 L2463.04 174.399 L2452.55 148.889 L2457.07 148.889 L2465.17 169.167 L2473.27 148.889 L2477.78 148.889 L2466.39 177.223 Z" fill="#000000" fill-rule="evenodd" fill-opacity="1" /><path clip-path="url(#clip220)" d="M2485.07 170.88 L2492.71 170.88 L2492.71 144.515 L2484.4 146.181 L2484.4 141.922 L2492.67 140.255 L2497.34 140.255 L2497.34 170.88 L2504.98 170.88 L2504.98 174.815 L2485.07 174.815 L2485.07 170.88 Z" fill="#000000" fill-rule="evenodd" fill-opacity="1" /></svg>
