<?xml version="1.0" encoding="utf-8"?>
<svg xmlns="http://www.w3.org/2000/svg" xmlns:xlink="http://www.w3.org/1999/xlink" width="672" height="480" viewBox="0 0 2688 1920">
<defs>
  <clipPath id="clip340">
    <rect x="0" y="0" width="2688" height="1920"/>
  </clipPath>
</defs>
<path clip-path="url(#clip340)" d="
M0 1920 L2688 1920 L2688 0 L0 0  Z
  " fill="#ffffff" fill-rule="evenodd" fill-opacity="1"/>
<defs>
  <clipPath id="clip341">
    <rect x="537" y="0" width="1883" height="1883"/>
  </clipPath>
</defs>
<path clip-path="url(#clip340)" d="
M150.358 1800.78 L2640.76 1800.78 L2640.76 47.2441 L150.358 47.2441  Z
  " fill="#ffffff" fill-rule="evenodd" fill-opacity="1"/>
<defs>
  <clipPath id="clip342">
    <rect x="150" y="47" width="2491" height="1755"/>
  </clipPath>
</defs>
<polyline clip-path="url(#clip342)" style="stroke:#000000; stroke-linecap:round; stroke-linejoin:round; stroke-width:2; stroke-opacity:0.1; fill:none" points="
  344.949,1800.78 344.949,47.2441 
  "/>
<polyline clip-path="url(#clip342)" style="stroke:#000000; stroke-linecap:round; stroke-linejoin:round; stroke-width:2; stroke-opacity:0.1; fill:none" points="
  726.988,1800.78 726.988,47.2441 
  "/>
<polyline clip-path="url(#clip342)" style="stroke:#000000; stroke-linecap:round; stroke-linejoin:round; stroke-width:2; stroke-opacity:0.1; fill:none" points="
  1109.03,1800.78 1109.03,47.2441 
  "/>
<polyline clip-path="url(#clip342)" style="stroke:#000000; stroke-linecap:round; stroke-linejoin:round; stroke-width:2; stroke-opacity:0.1; fill:none" points="
  1491.07,1800.78 1491.07,47.2441 
  "/>
<polyline clip-path="url(#clip342)" style="stroke:#000000; stroke-linecap:round; stroke-linejoin:round; stroke-width:2; stroke-opacity:0.1; fill:none" points="
  1873.11,1800.78 1873.11,47.2441 
  "/>
<polyline clip-path="url(#clip342)" style="stroke:#000000; stroke-linecap:round; stroke-linejoin:round; stroke-width:2; stroke-opacity:0.1; fill:none" points="
  2255.15,1800.78 2255.15,47.2441 
  "/>
<polyline clip-path="url(#clip342)" style="stroke:#000000; stroke-linecap:round; stroke-linejoin:round; stroke-width:2; stroke-opacity:0.1; fill:none" points="
  2637.18,1800.78 2637.18,47.2441 
  "/>
<polyline clip-path="url(#clip340)" style="stroke:#000000; stroke-linecap:round; stroke-linejoin:round; stroke-width:4; stroke-opacity:1; fill:none" points="
  150.358,1800.78 2640.76,1800.78 
  "/>
<polyline clip-path="url(#clip340)" style="stroke:#000000; stroke-linecap:round; stroke-linejoin:round; stroke-width:4; stroke-opacity:1; fill:none" points="
  344.949,1800.78 344.949,1781.88 
  "/>
<polyline clip-path="url(#clip340)" style="stroke:#000000; stroke-linecap:round; stroke-linejoin:round; stroke-width:4; stroke-opacity:1; fill:none" points="
  726.988,1800.78 726.988,1781.88 
  "/>
<polyline clip-path="url(#clip340)" style="stroke:#000000; stroke-linecap:round; stroke-linejoin:round; stroke-width:4; stroke-opacity:1; fill:none" points="
  1109.03,1800.78 1109.03,1781.88 
  "/>
<polyline clip-path="url(#clip340)" style="stroke:#000000; stroke-linecap:round; stroke-linejoin:round; stroke-width:4; stroke-opacity:1; fill:none" points="
  1491.07,1800.78 1491.07,1781.88 
  "/>
<polyline clip-path="url(#clip340)" style="stroke:#000000; stroke-linecap:round; stroke-linejoin:round; stroke-width:4; stroke-opacity:1; fill:none" points="
  1873.11,1800.78 1873.11,1781.88 
  "/>
<polyline clip-path="url(#clip340)" style="stroke:#000000; stroke-linecap:round; stroke-linejoin:round; stroke-width:4; stroke-opacity:1; fill:none" points="
  2255.15,1800.78 2255.15,1781.88 
  "/>
<polyline clip-path="url(#clip340)" style="stroke:#000000; stroke-linecap:round; stroke-linejoin:round; stroke-width:4; stroke-opacity:1; fill:none" points="
  2637.18,1800.78 2637.18,1781.88 
  "/>
<path clip-path="url(#clip340)" d="M314.417 1848.65 L344.092 1848.65 L344.092 1852.59 L314.417 1852.59 L314.417 1848.65 Z" fill="#000000" fill-rule="evenodd" fill-opacity="1" /><path clip-path="url(#clip340)" d="M368.352 1846.85 Q371.708 1847.57 373.583 1849.84 Q375.481 1852.1 375.481 1855.44 Q375.481 1860.55 371.963 1863.35 Q368.444 1866.15 361.963 1866.15 Q359.787 1866.15 357.472 1865.71 Q355.18 1865.3 352.727 1864.44 L352.727 1859.93 Q354.671 1861.06 356.986 1861.64 Q359.301 1862.22 361.824 1862.22 Q366.222 1862.22 368.514 1860.48 Q370.828 1858.75 370.828 1855.44 Q370.828 1852.38 368.676 1850.67 Q366.546 1848.93 362.727 1848.93 L358.699 1848.93 L358.699 1845.09 L362.912 1845.09 Q366.361 1845.09 368.19 1843.72 Q370.018 1842.34 370.018 1839.74 Q370.018 1837.08 368.12 1835.67 Q366.245 1834.23 362.727 1834.23 Q360.805 1834.23 358.606 1834.65 Q356.407 1835.07 353.768 1835.95 L353.768 1831.78 Q356.43 1831.04 358.745 1830.67 Q361.083 1830.3 363.143 1830.3 Q368.467 1830.3 371.569 1832.73 Q374.671 1835.14 374.671 1839.26 Q374.671 1842.13 373.028 1844.12 Q371.384 1846.09 368.352 1846.85 Z" fill="#000000" fill-rule="evenodd" fill-opacity="1" /><path clip-path="url(#clip340)" d="M696.931 1848.65 L726.606 1848.65 L726.606 1852.59 L696.931 1852.59 L696.931 1848.65 Z" fill="#000000" fill-rule="evenodd" fill-opacity="1" /><path clip-path="url(#clip340)" d="M740.727 1861.55 L757.046 1861.55 L757.046 1865.48 L735.102 1865.48 L735.102 1861.55 Q737.764 1858.79 742.347 1854.16 Q746.953 1849.51 748.134 1848.17 Q750.379 1845.65 751.259 1843.91 Q752.162 1842.15 752.162 1840.46 Q752.162 1837.71 750.217 1835.97 Q748.296 1834.23 745.194 1834.23 Q742.995 1834.23 740.541 1835 Q738.111 1835.76 735.333 1837.31 L735.333 1832.59 Q738.157 1831.46 740.611 1830.88 Q743.065 1830.3 745.102 1830.3 Q750.472 1830.3 753.666 1832.98 Q756.861 1835.67 756.861 1840.16 Q756.861 1842.29 756.051 1844.21 Q755.264 1846.11 753.157 1848.7 Q752.578 1849.37 749.477 1852.59 Q746.375 1855.78 740.727 1861.55 Z" fill="#000000" fill-rule="evenodd" fill-opacity="1" /><path clip-path="url(#clip340)" d="M1078.78 1848.65 L1108.46 1848.65 L1108.46 1852.59 L1078.78 1852.59 L1078.78 1848.65 Z" fill="#000000" fill-rule="evenodd" fill-opacity="1" /><path clip-path="url(#clip340)" d="M1119.36 1861.55 L1127 1861.55 L1127 1835.18 L1118.69 1836.85 L1118.69 1832.59 L1126.96 1830.92 L1131.63 1830.92 L1131.63 1861.55 L1139.27 1861.55 L1139.27 1865.48 L1119.36 1865.48 L1119.36 1861.55 Z" fill="#000000" fill-rule="evenodd" fill-opacity="1" /><path clip-path="url(#clip340)" d="M1491.07 1834 Q1487.46 1834 1485.63 1837.57 Q1483.82 1841.11 1483.82 1848.24 Q1483.82 1855.34 1485.63 1858.91 Q1487.46 1862.45 1491.07 1862.45 Q1494.7 1862.45 1496.51 1858.91 Q1498.34 1855.34 1498.34 1848.24 Q1498.34 1841.11 1496.51 1837.57 Q1494.7 1834 1491.07 1834 M1491.07 1830.3 Q1496.88 1830.3 1499.93 1834.9 Q1503.01 1839.49 1503.01 1848.24 Q1503.01 1856.96 1499.93 1861.57 Q1496.88 1866.15 1491.07 1866.15 Q1485.26 1866.15 1482.18 1861.57 Q1479.12 1856.96 1479.12 1848.24 Q1479.12 1839.49 1482.18 1834.9 Q1485.26 1830.3 1491.07 1830.3 Z" fill="#000000" fill-rule="evenodd" fill-opacity="1" /><path clip-path="url(#clip340)" d="M1863.49 1861.55 L1871.13 1861.55 L1871.13 1835.18 L1862.82 1836.85 L1862.82 1832.59 L1871.08 1830.92 L1875.76 1830.92 L1875.76 1861.55 L1883.4 1861.55 L1883.4 1865.48 L1863.49 1865.48 L1863.49 1861.55 Z" fill="#000000" fill-rule="evenodd" fill-opacity="1" /><path clip-path="url(#clip340)" d="M2249.8 1861.55 L2266.12 1861.55 L2266.12 1865.48 L2244.17 1865.48 L2244.17 1861.55 Q2246.84 1858.79 2251.42 1854.16 Q2256.02 1849.51 2257.21 1848.17 Q2259.45 1845.65 2260.33 1843.91 Q2261.23 1842.15 2261.23 1840.46 Q2261.23 1837.71 2259.29 1835.97 Q2257.37 1834.23 2254.27 1834.23 Q2252.07 1834.23 2249.61 1835 Q2247.18 1835.76 2244.4 1837.31 L2244.4 1832.59 Q2247.23 1831.46 2249.68 1830.88 Q2252.14 1830.3 2254.17 1830.3 Q2259.54 1830.3 2262.74 1832.98 Q2265.93 1835.67 2265.93 1840.16 Q2265.93 1842.29 2265.12 1844.21 Q2264.33 1846.11 2262.23 1848.7 Q2261.65 1849.37 2258.55 1852.59 Q2255.45 1855.78 2249.8 1861.55 Z" fill="#000000" fill-rule="evenodd" fill-opacity="1" /><path clip-path="url(#clip340)" d="M2641.43 1846.85 Q2644.79 1847.57 2646.66 1849.84 Q2648.56 1852.1 2648.56 1855.44 Q2648.56 1860.55 2645.04 1863.35 Q2641.52 1866.15 2635.04 1866.15 Q2632.87 1866.15 2630.55 1865.71 Q2628.26 1865.3 2625.81 1864.44 L2625.81 1859.93 Q2627.75 1861.06 2630.07 1861.64 Q2632.38 1862.22 2634.9 1862.22 Q2639.3 1862.22 2641.59 1860.48 Q2643.91 1858.75 2643.91 1855.44 Q2643.91 1852.38 2641.76 1850.67 Q2639.63 1848.93 2635.81 1848.93 L2631.78 1848.93 L2631.78 1845.09 L2635.99 1845.09 Q2639.44 1845.09 2641.27 1843.72 Q2643.1 1842.34 2643.1 1839.74 Q2643.1 1837.08 2641.2 1835.67 Q2639.33 1834.23 2635.81 1834.23 Q2633.89 1834.23 2631.69 1834.65 Q2629.49 1835.07 2626.85 1835.95 L2626.85 1831.78 Q2629.51 1831.04 2631.83 1830.67 Q2634.16 1830.3 2636.22 1830.3 Q2641.55 1830.3 2644.65 1832.73 Q2647.75 1835.14 2647.75 1839.26 Q2647.75 1842.13 2646.11 1844.12 Q2644.46 1846.09 2641.43 1846.85 Z" fill="#000000" fill-rule="evenodd" fill-opacity="1" /><polyline clip-path="url(#clip342)" style="stroke:#000000; stroke-linecap:round; stroke-linejoin:round; stroke-width:2; stroke-opacity:0.1; fill:none" points="
  150.358,1522.66 2640.76,1522.66 
  "/>
<polyline clip-path="url(#clip342)" style="stroke:#000000; stroke-linecap:round; stroke-linejoin:round; stroke-width:2; stroke-opacity:0.1; fill:none" points="
  150.358,1140.62 2640.76,1140.62 
  "/>
<polyline clip-path="url(#clip342)" style="stroke:#000000; stroke-linecap:round; stroke-linejoin:round; stroke-width:2; stroke-opacity:0.1; fill:none" points="
  150.358,758.584 2640.76,758.584 
  "/>
<polyline clip-path="url(#clip342)" style="stroke:#000000; stroke-linecap:round; stroke-linejoin:round; stroke-width:2; stroke-opacity:0.1; fill:none" points="
  150.358,376.545 2640.76,376.545 
  "/>
<polyline clip-path="url(#clip340)" style="stroke:#000000; stroke-linecap:round; stroke-linejoin:round; stroke-width:4; stroke-opacity:1; fill:none" points="
  150.358,1800.78 150.358,47.2441 
  "/>
<polyline clip-path="url(#clip340)" style="stroke:#000000; stroke-linecap:round; stroke-linejoin:round; stroke-width:4; stroke-opacity:1; fill:none" points="
  150.358,1522.66 169.256,1522.66 
  "/>
<polyline clip-path="url(#clip340)" style="stroke:#000000; stroke-linecap:round; stroke-linejoin:round; stroke-width:4; stroke-opacity:1; fill:none" points="
  150.358,1140.62 169.256,1140.62 
  "/>
<polyline clip-path="url(#clip340)" style="stroke:#000000; stroke-linecap:round; stroke-linejoin:round; stroke-width:4; stroke-opacity:1; fill:none" points="
  150.358,758.584 169.256,758.584 
  "/>
<polyline clip-path="url(#clip340)" style="stroke:#000000; stroke-linecap:round; stroke-linejoin:round; stroke-width:4; stroke-opacity:1; fill:none" points="
  150.358,376.545 169.256,376.545 
  "/>
<path clip-path="url(#clip340)" d="M49.9225 1523.11 L79.5983 1523.11 L79.5983 1527.05 L49.9225 1527.05 L49.9225 1523.11 Z" fill="#000000" fill-rule="evenodd" fill-opacity="1" /><path clip-path="url(#clip340)" d="M93.7186 1536.01 L110.038 1536.01 L110.038 1539.94 L88.0936 1539.94 L88.0936 1536.01 Q90.7556 1533.25 95.3389 1528.62 Q99.9454 1523.97 101.126 1522.63 Q103.371 1520.1 104.251 1518.37 Q105.154 1516.61 105.154 1514.92 Q105.154 1512.16 103.209 1510.43 Q101.288 1508.69 98.1861 1508.69 Q95.9871 1508.69 93.5334 1509.46 Q91.1028 1510.22 88.3251 1511.77 L88.3251 1507.05 Q91.1491 1505.91 93.6028 1505.34 Q96.0565 1504.76 98.0935 1504.76 Q103.464 1504.76 106.658 1507.44 Q109.853 1510.13 109.853 1514.62 Q109.853 1516.75 109.043 1518.67 Q108.256 1520.57 106.149 1523.16 Q105.57 1523.83 102.469 1527.05 Q99.3667 1530.24 93.7186 1536.01 Z" fill="#000000" fill-rule="evenodd" fill-opacity="1" /><path clip-path="url(#clip340)" d="M49.5521 1141.07 L79.2279 1141.07 L79.2279 1145.01 L49.5521 1145.01 L49.5521 1141.07 Z" fill="#000000" fill-rule="evenodd" fill-opacity="1" /><path clip-path="url(#clip340)" d="M90.1306 1153.97 L97.7695 1153.97 L97.7695 1127.6 L89.4593 1129.27 L89.4593 1125.01 L97.7232 1123.34 L102.399 1123.34 L102.399 1153.97 L110.038 1153.97 L110.038 1157.9 L90.1306 1157.9 L90.1306 1153.97 Z" fill="#000000" fill-rule="evenodd" fill-opacity="1" /><path clip-path="url(#clip340)" d="M98.0935 744.383 Q94.4824 744.383 92.6537 747.947 Q90.8482 751.489 90.8482 758.619 Q90.8482 765.725 92.6537 769.29 Q94.4824 772.831 98.0935 772.831 Q101.728 772.831 103.533 769.29 Q105.362 765.725 105.362 758.619 Q105.362 751.489 103.533 747.947 Q101.728 744.383 98.0935 744.383 M98.0935 740.679 Q103.904 740.679 106.959 745.285 Q110.038 749.869 110.038 758.619 Q110.038 767.345 106.959 771.952 Q103.904 776.535 98.0935 776.535 Q92.2834 776.535 89.2047 771.952 Q86.1492 767.345 86.1492 758.619 Q86.1492 749.869 89.2047 745.285 Q92.2834 740.679 98.0935 740.679 Z" fill="#000000" fill-rule="evenodd" fill-opacity="1" /><path clip-path="url(#clip340)" d="M90.1306 389.889 L97.7695 389.889 L97.7695 363.524 L89.4593 365.19 L89.4593 360.931 L97.7232 359.265 L102.399 359.265 L102.399 389.889 L110.038 389.889 L110.038 393.825 L90.1306 393.825 L90.1306 389.889 Z" fill="#000000" fill-rule="evenodd" fill-opacity="1" /><circle clip-path="url(#clip342)" cx="1491.07" cy="758.584" r="7.2" fill="#009af9" fill-rule="evenodd" fill-opacity="1" stroke="#000000" stroke-opacity="1" stroke-width="3.84"/>
<polyline clip-path="url(#clip342)" style="stroke:#e26f46; stroke-linecap:round; stroke-linejoin:round; stroke-width:4; stroke-opacity:1; fill:none" points="
  1873.11,758.584 1109.03,96.8724 918.008,1751.15 1873.11,758.584 
  "/>
<polyline clip-path="url(#clip342)" style="stroke:#3da44d; stroke-linecap:round; stroke-linejoin:round; stroke-width:4; stroke-opacity:0.5; fill:none" points="
  1491.07,758.584 1873.11,758.584 
  "/>
<polyline clip-path="url(#clip342)" style="stroke:#3da44d; stroke-linecap:round; stroke-linejoin:round; stroke-width:4; stroke-opacity:0.5; fill:none" points="
  1832.79,738.424 1873.11,758.584 1832.79,778.744 
  "/>
<polyline clip-path="url(#clip342)" style="stroke:#3da44d; stroke-linecap:round; stroke-linejoin:round; stroke-width:4; stroke-opacity:0.5; fill:none" points="
  1873.11,758.584 1491.07,758.584 
  "/>
<polyline clip-path="url(#clip342)" style="stroke:#c271d2; stroke-linecap:round; stroke-linejoin:round; stroke-width:4; stroke-opacity:0.5; fill:none" points="
  1491.07,758.584 1109.03,96.8724 
  "/>
<polyline clip-path="url(#clip342)" style="stroke:#c271d2; stroke-linecap:round; stroke-linejoin:round; stroke-width:4; stroke-opacity:0.5; fill:none" points="
  1111.73,141.871 1109.03,96.8724 1146.65,121.711 
  "/>
<polyline clip-path="url(#clip342)" style="stroke:#c271d2; stroke-linecap:round; stroke-linejoin:round; stroke-width:4; stroke-opacity:0.5; fill:none" points="
  1109.03,96.8724 1491.07,758.584 
  "/>
<polyline clip-path="url(#clip342)" style="stroke:#ac8d18; stroke-linecap:round; stroke-linejoin:round; stroke-width:4; stroke-opacity:0.5; fill:none" points="
  1491.07,758.584 918.008,1751.15 
  "/>
<polyline clip-path="url(#clip342)" style="stroke:#ac8d18; stroke-linecap:round; stroke-linejoin:round; stroke-width:4; stroke-opacity:0.5; fill:none" points="
  955.627,1726.31 918.008,1751.15 920.709,1706.15 
  "/>
<polyline clip-path="url(#clip342)" style="stroke:#ac8d18; stroke-linecap:round; stroke-linejoin:round; stroke-width:4; stroke-opacity:0.5; fill:none" points="
  918.008,1751.15 1491.07,758.584 
  "/>
</svg>
