<?xml version="1.0" encoding="utf-8"?>
<svg xmlns="http://www.w3.org/2000/svg" xmlns:xlink="http://www.w3.org/1999/xlink" width="672" height="480" viewBox="0 0 2688 1920">
<defs>
  <clipPath id="clip550">
    <rect x="0" y="0" width="2688" height="1920"/>
  </clipPath>
</defs>
<path clip-path="url(#clip550)" d="
M0 1920 L2688 1920 L2688 0 L0 0  Z
  " fill="#ffffff" fill-rule="evenodd" fill-opacity="1"/>
<defs>
  <clipPath id="clip551">
    <rect x="537" y="0" width="1883" height="1883"/>
  </clipPath>
</defs>
<path clip-path="url(#clip550)" d="
M181.747 1800.78 L2640.76 1800.78 L2640.76 47.2441 L181.747 47.2441  Z
  " fill="#ffffff" fill-rule="evenodd" fill-opacity="1"/>
<defs>
  <clipPath id="clip552">
    <rect x="181" y="47" width="2460" height="1755"/>
  </clipPath>
</defs>
<polyline clip-path="url(#clip552)" style="stroke:#000000; stroke-linecap:butt; stroke-linejoin:round; stroke-width:2; stroke-opacity:0.1; fill:none" points="
  181.747,1800.78 181.747,47.2441 
  "/>
<polyline clip-path="url(#clip552)" style="stroke:#000000; stroke-linecap:butt; stroke-linejoin:round; stroke-width:2; stroke-opacity:0.1; fill:none" points="
  591.582,1800.78 591.582,47.2441 
  "/>
<polyline clip-path="url(#clip552)" style="stroke:#000000; stroke-linecap:butt; stroke-linejoin:round; stroke-width:2; stroke-opacity:0.1; fill:none" points="
  1001.42,1800.78 1001.42,47.2441 
  "/>
<polyline clip-path="url(#clip552)" style="stroke:#000000; stroke-linecap:butt; stroke-linejoin:round; stroke-width:2; stroke-opacity:0.1; fill:none" points="
  1411.25,1800.78 1411.25,47.2441 
  "/>
<polyline clip-path="url(#clip552)" style="stroke:#000000; stroke-linecap:butt; stroke-linejoin:round; stroke-width:2; stroke-opacity:0.1; fill:none" points="
  1821.09,1800.78 1821.09,47.2441 
  "/>
<polyline clip-path="url(#clip552)" style="stroke:#000000; stroke-linecap:butt; stroke-linejoin:round; stroke-width:2; stroke-opacity:0.1; fill:none" points="
  2230.92,1800.78 2230.92,47.2441 
  "/>
<polyline clip-path="url(#clip552)" style="stroke:#000000; stroke-linecap:butt; stroke-linejoin:round; stroke-width:2; stroke-opacity:0.1; fill:none" points="
  2640.76,1800.78 2640.76,47.2441 
  "/>
<polyline clip-path="url(#clip550)" style="stroke:#000000; stroke-linecap:butt; stroke-linejoin:round; stroke-width:4; stroke-opacity:1; fill:none" points="
  181.747,1800.78 2640.76,1800.78 
  "/>
<polyline clip-path="url(#clip550)" style="stroke:#000000; stroke-linecap:butt; stroke-linejoin:round; stroke-width:4; stroke-opacity:1; fill:none" points="
  181.747,1800.78 181.747,1781.88 
  "/>
<polyline clip-path="url(#clip550)" style="stroke:#000000; stroke-linecap:butt; stroke-linejoin:round; stroke-width:4; stroke-opacity:1; fill:none" points="
  591.582,1800.78 591.582,1781.88 
  "/>
<polyline clip-path="url(#clip550)" style="stroke:#000000; stroke-linecap:butt; stroke-linejoin:round; stroke-width:4; stroke-opacity:1; fill:none" points="
  1001.42,1800.78 1001.42,1781.88 
  "/>
<polyline clip-path="url(#clip550)" style="stroke:#000000; stroke-linecap:butt; stroke-linejoin:round; stroke-width:4; stroke-opacity:1; fill:none" points="
  1411.25,1800.78 1411.25,1781.88 
  "/>
<polyline clip-path="url(#clip550)" style="stroke:#000000; stroke-linecap:butt; stroke-linejoin:round; stroke-width:4; stroke-opacity:1; fill:none" points="
  1821.09,1800.78 1821.09,1781.88 
  "/>
<polyline clip-path="url(#clip550)" style="stroke:#000000; stroke-linecap:butt; stroke-linejoin:round; stroke-width:4; stroke-opacity:1; fill:none" points="
  2230.92,1800.78 2230.92,1781.88 
  "/>
<polyline clip-path="url(#clip550)" style="stroke:#000000; stroke-linecap:butt; stroke-linejoin:round; stroke-width:4; stroke-opacity:1; fill:none" points="
  2640.76,1800.78 2640.76,1781.88 
  "/>
<path clip-path="url(#clip550)" d="M136.307 1848.65 L165.983 1848.65 L165.983 1852.59 L136.307 1852.59 L136.307 1848.65 Z" fill="#000000" fill-rule="evenodd" fill-opacity="1" /><path clip-path="url(#clip550)" d="M176.886 1861.55 L184.524 1861.55 L184.524 1835.18 L176.214 1836.85 L176.214 1832.59 L184.478 1830.92 L189.154 1830.92 L189.154 1861.55 L196.793 1861.55 L196.793 1865.48 L176.886 1865.48 L176.886 1861.55 Z" fill="#000000" fill-rule="evenodd" fill-opacity="1" /><path clip-path="url(#clip550)" d="M206.284 1830.92 L224.64 1830.92 L224.64 1834.86 L210.566 1834.86 L210.566 1843.33 Q211.584 1842.98 212.603 1842.82 Q213.621 1842.64 214.64 1842.64 Q220.427 1842.64 223.807 1845.81 Q227.186 1848.98 227.186 1854.4 Q227.186 1859.97 223.714 1863.08 Q220.242 1866.15 213.922 1866.15 Q211.746 1866.15 209.478 1865.78 Q207.233 1865.41 204.825 1864.67 L204.825 1859.97 Q206.909 1861.11 209.131 1861.66 Q211.353 1862.22 213.83 1862.22 Q217.834 1862.22 220.172 1860.11 Q222.51 1858.01 222.51 1854.4 Q222.51 1850.78 220.172 1848.68 Q217.834 1846.57 213.83 1846.57 Q211.955 1846.57 210.08 1846.99 Q208.228 1847.4 206.284 1848.28 L206.284 1830.92 Z" fill="#000000" fill-rule="evenodd" fill-opacity="1" /><path clip-path="url(#clip550)" d="M545.644 1848.65 L575.32 1848.65 L575.32 1852.59 L545.644 1852.59 L545.644 1848.65 Z" fill="#000000" fill-rule="evenodd" fill-opacity="1" /><path clip-path="url(#clip550)" d="M586.223 1861.55 L593.862 1861.55 L593.862 1835.18 L585.551 1836.85 L585.551 1832.59 L593.815 1830.92 L598.491 1830.92 L598.491 1861.55 L606.13 1861.55 L606.13 1865.48 L586.223 1865.48 L586.223 1861.55 Z" fill="#000000" fill-rule="evenodd" fill-opacity="1" /><path clip-path="url(#clip550)" d="M625.574 1834 Q621.963 1834 620.135 1837.57 Q618.329 1841.11 618.329 1848.24 Q618.329 1855.34 620.135 1858.91 Q621.963 1862.45 625.574 1862.45 Q629.209 1862.45 631.014 1858.91 Q632.843 1855.34 632.843 1848.24 Q632.843 1841.11 631.014 1837.57 Q629.209 1834 625.574 1834 M625.574 1830.3 Q631.385 1830.3 634.44 1834.9 Q637.519 1839.49 637.519 1848.24 Q637.519 1856.96 634.44 1861.57 Q631.385 1866.15 625.574 1866.15 Q619.764 1866.15 616.686 1861.57 Q613.63 1856.96 613.63 1848.24 Q613.63 1839.49 616.686 1834.9 Q619.764 1830.3 625.574 1830.3 Z" fill="#000000" fill-rule="evenodd" fill-opacity="1" /><path clip-path="url(#clip550)" d="M971.058 1848.65 L1000.73 1848.65 L1000.73 1852.59 L971.058 1852.59 L971.058 1848.65 Z" fill="#000000" fill-rule="evenodd" fill-opacity="1" /><path clip-path="url(#clip550)" d="M1010.87 1830.92 L1029.23 1830.92 L1029.23 1834.86 L1015.15 1834.86 L1015.15 1843.33 Q1016.17 1842.98 1017.19 1842.82 Q1018.21 1842.64 1019.23 1842.64 Q1025.02 1842.64 1028.4 1845.81 Q1031.78 1848.98 1031.78 1854.4 Q1031.78 1859.97 1028.3 1863.08 Q1024.83 1866.15 1018.51 1866.15 Q1016.34 1866.15 1014.07 1865.78 Q1011.82 1865.41 1009.41 1864.67 L1009.41 1859.97 Q1011.5 1861.11 1013.72 1861.66 Q1015.94 1862.22 1018.42 1862.22 Q1022.42 1862.22 1024.76 1860.11 Q1027.1 1858.01 1027.1 1854.4 Q1027.1 1850.78 1024.76 1848.68 Q1022.42 1846.57 1018.42 1846.57 Q1016.54 1846.57 1014.67 1846.99 Q1012.82 1847.4 1010.87 1848.28 L1010.87 1830.92 Z" fill="#000000" fill-rule="evenodd" fill-opacity="1" /><path clip-path="url(#clip550)" d="M1411.25 1834 Q1407.64 1834 1405.81 1837.57 Q1404.01 1841.11 1404.01 1848.24 Q1404.01 1855.34 1405.81 1858.91 Q1407.64 1862.45 1411.25 1862.45 Q1414.89 1862.45 1416.69 1858.91 Q1418.52 1855.34 1418.52 1848.24 Q1418.52 1841.11 1416.69 1837.57 Q1414.89 1834 1411.25 1834 M1411.25 1830.3 Q1417.06 1830.3 1420.12 1834.9 Q1423.2 1839.49 1423.2 1848.24 Q1423.2 1856.96 1420.12 1861.57 Q1417.06 1866.15 1411.25 1866.15 Q1405.44 1866.15 1402.36 1861.57 Q1399.31 1856.96 1399.31 1848.24 Q1399.31 1839.49 1402.36 1834.9 Q1405.44 1830.3 1411.25 1830.3 Z" fill="#000000" fill-rule="evenodd" fill-opacity="1" /><path clip-path="url(#clip550)" d="M1811.36 1830.92 L1829.72 1830.92 L1829.72 1834.86 L1815.65 1834.86 L1815.65 1843.33 Q1816.66 1842.98 1817.68 1842.82 Q1818.7 1842.64 1819.72 1842.64 Q1825.51 1842.64 1828.89 1845.81 Q1832.27 1848.98 1832.27 1854.4 Q1832.27 1859.97 1828.79 1863.08 Q1825.32 1866.15 1819 1866.15 Q1816.83 1866.15 1814.56 1865.78 Q1812.31 1865.41 1809.91 1864.67 L1809.91 1859.97 Q1811.99 1861.11 1814.21 1861.66 Q1816.43 1862.22 1818.91 1862.22 Q1822.91 1862.22 1825.25 1860.11 Q1827.59 1858.01 1827.59 1854.4 Q1827.59 1850.78 1825.25 1848.68 Q1822.91 1846.57 1818.91 1846.57 Q1817.04 1846.57 1815.16 1846.99 Q1813.31 1847.4 1811.36 1848.28 L1811.36 1830.92 Z" fill="#000000" fill-rule="evenodd" fill-opacity="1" /><path clip-path="url(#clip550)" d="M2205.61 1861.55 L2213.25 1861.55 L2213.25 1835.18 L2204.94 1836.85 L2204.94 1832.59 L2213.2 1830.92 L2217.88 1830.92 L2217.88 1861.55 L2225.52 1861.55 L2225.52 1865.48 L2205.61 1865.48 L2205.61 1861.55 Z" fill="#000000" fill-rule="evenodd" fill-opacity="1" /><path clip-path="url(#clip550)" d="M2244.96 1834 Q2241.35 1834 2239.52 1837.57 Q2237.71 1841.11 2237.71 1848.24 Q2237.71 1855.34 2239.52 1858.91 Q2241.35 1862.45 2244.96 1862.45 Q2248.59 1862.45 2250.4 1858.91 Q2252.23 1855.34 2252.23 1848.24 Q2252.23 1841.11 2250.4 1837.57 Q2248.59 1834 2244.96 1834 M2244.96 1830.3 Q2250.77 1830.3 2253.83 1834.9 Q2256.9 1839.49 2256.9 1848.24 Q2256.9 1856.96 2253.83 1861.57 Q2250.77 1866.15 2244.96 1866.15 Q2239.15 1866.15 2236.07 1861.57 Q2233.02 1856.96 2233.02 1848.24 Q2233.02 1839.49 2236.07 1834.9 Q2239.15 1830.3 2244.96 1830.3 Z" fill="#000000" fill-rule="evenodd" fill-opacity="1" /><path clip-path="url(#clip550)" d="M2615.94 1861.55 L2623.58 1861.55 L2623.58 1835.18 L2615.27 1836.85 L2615.27 1832.59 L2623.53 1830.92 L2628.21 1830.92 L2628.21 1861.55 L2635.85 1861.55 L2635.85 1865.48 L2615.94 1865.48 L2615.94 1861.55 Z" fill="#000000" fill-rule="evenodd" fill-opacity="1" /><path clip-path="url(#clip550)" d="M2645.34 1830.92 L2663.7 1830.92 L2663.7 1834.86 L2649.62 1834.86 L2649.62 1843.33 Q2650.64 1842.98 2651.66 1842.82 Q2652.68 1842.64 2653.7 1842.64 Q2659.48 1842.64 2662.86 1845.81 Q2666.24 1848.98 2666.24 1854.4 Q2666.24 1859.97 2662.77 1863.08 Q2659.3 1866.15 2652.98 1866.15 Q2650.8 1866.15 2648.53 1865.78 Q2646.29 1865.41 2643.88 1864.67 L2643.88 1859.97 Q2645.96 1861.11 2648.19 1861.66 Q2650.41 1862.22 2652.89 1862.22 Q2656.89 1862.22 2659.23 1860.11 Q2661.57 1858.01 2661.57 1854.4 Q2661.57 1850.78 2659.23 1848.68 Q2656.89 1846.57 2652.89 1846.57 Q2651.01 1846.57 2649.14 1846.99 Q2647.28 1847.4 2645.34 1848.28 L2645.34 1830.92 Z" fill="#000000" fill-rule="evenodd" fill-opacity="1" /><polyline clip-path="url(#clip552)" style="stroke:#000000; stroke-linecap:butt; stroke-linejoin:round; stroke-width:2; stroke-opacity:0.1; fill:none" points="
  181.747,1486.1 2640.76,1486.1 
  "/>
<polyline clip-path="url(#clip552)" style="stroke:#000000; stroke-linecap:butt; stroke-linejoin:round; stroke-width:2; stroke-opacity:0.1; fill:none" points="
  181.747,1015.28 2640.76,1015.28 
  "/>
<polyline clip-path="url(#clip552)" style="stroke:#000000; stroke-linecap:butt; stroke-linejoin:round; stroke-width:2; stroke-opacity:0.1; fill:none" points="
  181.747,544.464 2640.76,544.464 
  "/>
<polyline clip-path="url(#clip552)" style="stroke:#000000; stroke-linecap:butt; stroke-linejoin:round; stroke-width:2; stroke-opacity:0.1; fill:none" points="
  181.747,73.6454 2640.76,73.6454 
  "/>
<polyline clip-path="url(#clip550)" style="stroke:#000000; stroke-linecap:butt; stroke-linejoin:round; stroke-width:4; stroke-opacity:1; fill:none" points="
  181.747,1800.78 181.747,47.2441 
  "/>
<polyline clip-path="url(#clip550)" style="stroke:#000000; stroke-linecap:butt; stroke-linejoin:round; stroke-width:4; stroke-opacity:1; fill:none" points="
  181.747,1486.1 200.644,1486.1 
  "/>
<polyline clip-path="url(#clip550)" style="stroke:#000000; stroke-linecap:butt; stroke-linejoin:round; stroke-width:4; stroke-opacity:1; fill:none" points="
  181.747,1015.28 200.644,1015.28 
  "/>
<polyline clip-path="url(#clip550)" style="stroke:#000000; stroke-linecap:butt; stroke-linejoin:round; stroke-width:4; stroke-opacity:1; fill:none" points="
  181.747,544.464 200.644,544.464 
  "/>
<polyline clip-path="url(#clip550)" style="stroke:#000000; stroke-linecap:butt; stroke-linejoin:round; stroke-width:4; stroke-opacity:1; fill:none" points="
  181.747,73.6454 200.644,73.6454 
  "/>
<path clip-path="url(#clip550)" d="M49.5521 1486.55 L79.2279 1486.55 L79.2279 1490.49 L49.5521 1490.49 L49.5521 1486.55 Z" fill="#000000" fill-rule="evenodd" fill-opacity="1" /><path clip-path="url(#clip550)" d="M89.3667 1468.82 L107.723 1468.82 L107.723 1472.76 L93.6491 1472.76 L93.6491 1481.23 Q94.6676 1480.88 95.6861 1480.72 Q96.7047 1480.53 97.7232 1480.53 Q103.51 1480.53 106.89 1483.7 Q110.269 1486.88 110.269 1492.29 Q110.269 1497.87 106.797 1500.97 Q103.325 1504.05 97.0056 1504.05 Q94.8297 1504.05 92.5612 1503.68 Q90.3158 1503.31 87.9084 1502.57 L87.9084 1497.87 Q89.9917 1499.01 92.2139 1499.56 Q94.4361 1500.12 96.913 1500.12 Q100.918 1500.12 103.256 1498.01 Q105.593 1495.9 105.593 1492.29 Q105.593 1488.68 103.256 1486.58 Q100.918 1484.47 96.913 1484.47 Q95.038 1484.47 93.163 1484.89 Q91.3112 1485.3 89.3667 1486.18 L89.3667 1468.82 Z" fill="#000000" fill-rule="evenodd" fill-opacity="1" /><path clip-path="url(#clip550)" d="M129.482 1471.9 Q125.871 1471.9 124.042 1475.46 Q122.237 1479.01 122.237 1486.14 Q122.237 1493.24 124.042 1496.81 Q125.871 1500.35 129.482 1500.35 Q133.116 1500.35 134.922 1496.81 Q136.751 1493.24 136.751 1486.14 Q136.751 1479.01 134.922 1475.46 Q133.116 1471.9 129.482 1471.9 M129.482 1468.2 Q135.292 1468.2 138.348 1472.8 Q141.427 1477.39 141.427 1486.14 Q141.427 1494.86 138.348 1499.47 Q135.292 1504.05 129.482 1504.05 Q123.672 1504.05 120.593 1499.47 Q117.538 1494.86 117.538 1486.14 Q117.538 1477.39 120.593 1472.8 Q123.672 1468.2 129.482 1468.2 Z" fill="#000000" fill-rule="evenodd" fill-opacity="1" /><path clip-path="url(#clip550)" d="M129.482 1001.08 Q125.871 1001.08 124.042 1004.65 Q122.237 1008.19 122.237 1015.32 Q122.237 1022.42 124.042 1025.99 Q125.871 1029.53 129.482 1029.53 Q133.116 1029.53 134.922 1025.99 Q136.751 1022.42 136.751 1015.32 Q136.751 1008.19 134.922 1004.65 Q133.116 1001.08 129.482 1001.08 M129.482 997.377 Q135.292 997.377 138.348 1001.98 Q141.427 1006.57 141.427 1015.32 Q141.427 1024.04 138.348 1028.65 Q135.292 1033.23 129.482 1033.23 Q123.672 1033.23 120.593 1028.65 Q117.538 1024.04 117.538 1015.32 Q117.538 1006.57 120.593 1001.98 Q123.672 997.377 129.482 997.377 Z" fill="#000000" fill-rule="evenodd" fill-opacity="1" /><path clip-path="url(#clip550)" d="M89.3667 527.184 L107.723 527.184 L107.723 531.119 L93.6491 531.119 L93.6491 539.591 Q94.6676 539.244 95.6861 539.082 Q96.7047 538.897 97.7232 538.897 Q103.51 538.897 106.89 542.068 Q110.269 545.239 110.269 550.656 Q110.269 556.235 106.797 559.336 Q103.325 562.415 97.0056 562.415 Q94.8297 562.415 92.5612 562.045 Q90.3158 561.674 87.9084 560.934 L87.9084 556.235 Q89.9917 557.369 92.2139 557.924 Q94.4361 558.48 96.913 558.48 Q100.918 558.48 103.256 556.373 Q105.593 554.267 105.593 550.656 Q105.593 547.045 103.256 544.938 Q100.918 542.832 96.913 542.832 Q95.038 542.832 93.163 543.249 Q91.3112 543.665 89.3667 544.545 L89.3667 527.184 Z" fill="#000000" fill-rule="evenodd" fill-opacity="1" /><path clip-path="url(#clip550)" d="M129.482 530.263 Q125.871 530.263 124.042 533.827 Q122.237 537.369 122.237 544.499 Q122.237 551.605 124.042 555.17 Q125.871 558.711 129.482 558.711 Q133.116 558.711 134.922 555.17 Q136.751 551.605 136.751 544.499 Q136.751 537.369 134.922 533.827 Q133.116 530.263 129.482 530.263 M129.482 526.559 Q135.292 526.559 138.348 531.165 Q141.427 535.749 141.427 544.499 Q141.427 553.225 138.348 557.832 Q135.292 562.415 129.482 562.415 Q123.672 562.415 120.593 557.832 Q117.538 553.225 117.538 544.499 Q117.538 535.749 120.593 531.165 Q123.672 526.559 129.482 526.559 Z" fill="#000000" fill-rule="evenodd" fill-opacity="1" /><path clip-path="url(#clip550)" d="M59.9687 86.9902 L67.6076 86.9902 L67.6076 60.6246 L59.2974 62.2913 L59.2974 58.0321 L67.5613 56.3654 L72.2372 56.3654 L72.2372 86.9902 L79.876 86.9902 L79.876 90.9254 L59.9687 90.9254 L59.9687 86.9902 Z" fill="#000000" fill-rule="evenodd" fill-opacity="1" /><path clip-path="url(#clip550)" d="M99.3204 59.4441 Q95.7093 59.4441 93.8806 63.0089 Q92.075 66.5505 92.075 73.6801 Q92.075 80.7866 93.8806 84.3514 Q95.7093 87.893 99.3204 87.893 Q102.955 87.893 104.76 84.3514 Q106.589 80.7866 106.589 73.6801 Q106.589 66.5505 104.76 63.0089 Q102.955 59.4441 99.3204 59.4441 M99.3204 55.7404 Q105.131 55.7404 108.186 60.3469 Q111.265 64.9302 111.265 73.6801 Q111.265 82.4069 108.186 87.0134 Q105.131 91.5967 99.3204 91.5967 Q93.5102 91.5967 90.4315 87.0134 Q87.376 82.4069 87.376 73.6801 Q87.376 64.9302 90.4315 60.3469 Q93.5102 55.7404 99.3204 55.7404 Z" fill="#000000" fill-rule="evenodd" fill-opacity="1" /><path clip-path="url(#clip550)" d="M129.482 59.4441 Q125.871 59.4441 124.042 63.0089 Q122.237 66.5505 122.237 73.6801 Q122.237 80.7866 124.042 84.3514 Q125.871 87.893 129.482 87.893 Q133.116 87.893 134.922 84.3514 Q136.751 80.7866 136.751 73.6801 Q136.751 66.5505 134.922 63.0089 Q133.116 59.4441 129.482 59.4441 M129.482 55.7404 Q135.292 55.7404 138.348 60.3469 Q141.427 64.9302 141.427 73.6801 Q141.427 82.4069 138.348 87.0134 Q135.292 91.5967 129.482 91.5967 Q123.672 91.5967 120.593 87.0134 Q117.538 82.4069 117.538 73.6801 Q117.538 64.9302 120.593 60.3469 Q123.672 55.7404 129.482 55.7404 Z" fill="#000000" fill-rule="evenodd" fill-opacity="1" /><polyline clip-path="url(#clip552)" style="stroke:#0000ff; stroke-linecap:butt; stroke-linejoin:round; stroke-width:4; stroke-opacity:1; fill:none" points="
  -228.088,1283.97 -218.109,1282.88 -125.836,1272.91 -70.3844,1266.96 -23.5005,1261.95 27.4286,1256.54 74.3807,1251.58 124.718,1246.31 183.039,1240.26 234.868,1234.94 
  280.318,1230.32 329.87,1225.36 379.716,1220.44 434.828,1215.1 487.265,1210.15 541.787,1205.15 587.684,1201.09 643.718,1196.36 695.049,1192.29 742.457,1188.81 
  790.48,1185.65 844.301,1182.67 893.07,1180.66 920.989,1179.9 948.909,1179.5 974.759,1179.53 1000.61,1180.04 1026.1,1181.13 1051.58,1182.97 1076.33,1185.68 
  1101.07,1189.61 1113.75,1192.23 1126.44,1195.37 1139.12,1199.13 1151.8,1203.64 1158.75,1206.5 1165.7,1209.66 1172.65,1213.18 1179.59,1217.11 1186.54,1221.49 
  1193.49,1226.42 1200.44,1231.97 1207.39,1238.24 1212.43,1243.33 1217.48,1248.94 1222.53,1255.13 1227.57,1262 1232.62,1269.66 1237.66,1278.23 1242.71,1287.87 
  1247.76,1298.78 1250.28,1304.79 1252.8,1311.22 1255.33,1318.11 1257.85,1325.51 1260.37,1333.48 1262.9,1342.07 1265.42,1351.37 1267.94,1361.46 1270.47,1372.45 
  1272.99,1384.45 1275.51,1397.61 1278.04,1412.1 1279.3,1419.91 1280.56,1428.13 1281.82,1436.79 1283.08,1445.94 1284.34,1455.61 1285.61,1465.85 1286.87,1476.71 
  1288.13,1488.24 1289.16,1498.26 1290.2,1508.81 1291.24,1519.95 1292.27,1531.72 1293.31,1544.17 1294.34,1557.37 1295.38,1571.38 1296.41,1586.29 1297.45,1602.17 
  1298.48,1619.13 1299.52,1637.28 1300.55,1656.75 1301.07,1667.03 1301.59,1677.69 1302.11,1688.76 1302.62,1700.26 1303.14,1712.22 1303.66,1724.67 1304.18,1737.64 
  1304.69,1751.15 
  "/>
<polyline clip-path="url(#clip552)" style="stroke:#0000ff; stroke-linecap:butt; stroke-linejoin:round; stroke-width:4; stroke-opacity:1; fill:none" points="
  1345.68,96.8724 1345.8,103.962 1345.92,110.951 1346.03,117.839 1346.15,124.631 1346.27,131.327 1346.39,137.931 1346.51,144.442 1346.63,150.865 1347.18,179.445 
  1347.73,206.319 1348.27,231.632 1348.82,255.519 1349.37,278.094 1349.92,299.463 1350.47,319.719 1351.02,338.948 1351.57,357.224 1352.12,374.616 1352.67,391.188 
  1353.21,406.994 1353.76,422.087 1354.31,436.513 1354.86,450.316 1355.41,463.534 1356.07,478.699 1356.73,493.129 1357.39,506.875 1358.05,519.985 1359.37,544.464 
  1360.69,566.863 1361.8,584.368 1362.92,600.696 1364.04,615.961 1365.15,630.263 1366.36,644.808 1367.58,658.416 1368.79,671.173 1370,683.156 1372.23,703.438 
  1374.47,721.664 1376.86,739.25 1379.26,755.096 1382.04,771.589 1384.81,786.363 1387.28,798.247 1389.75,809.105 1391.91,817.878 1394.07,826.021 1396.43,834.253 
  1398.79,841.874 1401.16,848.983 1403.53,855.583 1408.78,868.584 1413.77,879.195 1418.96,888.683 1423.33,895.603 1428.66,902.872 1433.55,908.485 1438.06,912.829 
  1442.63,916.416 1447.76,919.432 1452.4,921.162 1457.71,921.754 1462.63,920.599 1465.06,919.231 1467.49,917.172 1469.84,914.333 1472.2,910.414 1473.4,907.87 
  1474.61,904.875 1475.82,901.338 1477.03,897.142 1478.35,891.604 1479.67,884.807 1480.33,880.816 1480.99,876.348 1481.66,871.319 1482.32,865.629 1482.8,861.01 
  1483.28,855.916 1483.76,850.275 1484.24,843.999 1484.72,836.982 1485.2,829.09 1485.68,820.156 1486.16,809.968 1486.64,798.253 1487.12,784.649 1487.36,776.993 
  1487.6,768.672 1487.84,759.595 1488.08,749.658 1488.32,738.732 1488.56,726.667 1488.8,713.275 1489.04,698.328 1489.16,690.185 1489.28,681.541 1489.4,672.349 
  1489.52,662.556 1489.64,652.101 1489.76,640.915 1489.88,628.919 1490,616.023 1490.1,604.694 1490.2,592.622 1490.3,579.732 1490.4,565.938 1490.49,551.142 
  1490.59,535.232 1490.69,518.076 1490.79,499.523 1490.89,479.395 1490.99,457.485 1491.04,445.786 1491.09,433.545 1491.14,420.724 1491.18,407.28 1491.23,393.167 
  1491.28,378.334 1491.33,362.724 1491.38,346.276 1491.43,328.919 1491.48,310.576 1491.53,291.162 1491.58,270.579 
  "/>
<polyline clip-path="url(#clip552)" style="stroke:#0000ff; stroke-linecap:butt; stroke-linejoin:round; stroke-width:4; stroke-opacity:1; fill:none" points="
  1497.32,1262.05 1497.47,1251.63 1497.63,1241.97 1497.79,1232.98 1497.95,1224.59 1498.11,1216.75 1498.26,1209.41 1498.42,1202.52 1498.58,1196.03 1498.74,1189.92 
  1498.9,1184.16 1499.05,1178.71 1499.21,1173.55 1499.53,1164.02 1499.84,1155.41 1500.16,1147.6 1500.48,1140.48 1500.79,1133.96 1501.11,1127.98 1501.42,1122.46 
  1501.74,1117.37 1502.06,1112.65 1502.37,1108.26 1502.69,1104.17 1503,1100.36 1503.32,1096.79 1503.64,1093.45 1504.27,1087.36 1504.9,1081.95 1505.53,1077.12 
  1506.17,1072.79 1506.48,1070.79 1506.8,1068.88 1507.11,1067.07 1507.43,1065.34 1508.16,1061.64 1508.89,1058.32 1509.62,1055.31 1510.35,1052.58 1511.81,1047.82 
  1513.27,1043.82 1514.73,1040.42 1516.2,1037.52 1517.66,1035.01 1519.12,1032.83 1522.04,1029.26 1524.96,1026.48 1527.88,1024.29 1530.81,1022.54 1536.65,1019.99 
  1542.49,1018.3 1548.34,1017.17 1554.18,1016.41 1565.87,1015.57 1577.56,1015.24 1589.25,1015.16 1600.94,1015.2 1629.03,1015.34 1657.13,1015.28 1680.88,1015 
  1704.64,1014.49 1756.25,1012.71 1803.83,1010.38 1854.84,1007.31 1913.94,1003.18 1966.46,999.131 2012.52,995.338 2062.73,990.997 2113.25,986.452 2169.09,981.257 
  2222.23,976.176 2277.48,970.774 2323.99,966.148 2380.78,960.415 2432.8,955.094 2480.84,950.128 2529.5,945.053 2584.04,939.319 2633.46,934.084 2690.05,928.053 
  2742.44,922.435 2794.09,916.869 2844.24,911.441 2895.65,905.854 2951.98,899.711 3033.8,890.748 3050.59,888.905 
  "/>
</svg>
