<?xml version="1.0" encoding="utf-8"?>
<svg xmlns="http://www.w3.org/2000/svg" xmlns:xlink="http://www.w3.org/1999/xlink" width="672" height="480" viewBox="0 0 2688 1920">
<defs>
  <clipPath id="clip120">
    <rect x="0" y="0" width="2688" height="1920"/>
  </clipPath>
</defs>
<path clip-path="url(#clip120)" d="
M0 1920 L2688 1920 L2688 0 L0 0  Z
  " fill="#ffffff" fill-rule="evenodd" fill-opacity="1"/>
<defs>
  <clipPath id="clip121">
    <rect x="537" y="0" width="1883" height="1883"/>
  </clipPath>
</defs>
<path clip-path="url(#clip120)" d="
M115.057 1800.78 L2640.76 1800.78 L2640.76 47.2441 L115.057 47.2441  Z
  " fill="#ffffff" fill-rule="evenodd" fill-opacity="1"/>
<defs>
  <clipPath id="clip122">
    <rect x="115" y="47" width="2527" height="1755"/>
  </clipPath>
</defs>
<polyline clip-path="url(#clip122)" style="stroke:#000000; stroke-linecap:butt; stroke-linejoin:round; stroke-width:2; stroke-opacity:0.1; fill:none" points="
  186.539,1800.78 186.539,47.2441 
  "/>
<polyline clip-path="url(#clip122)" style="stroke:#000000; stroke-linecap:butt; stroke-linejoin:round; stroke-width:2; stroke-opacity:0.1; fill:none" points="
  782.223,1800.78 782.223,47.2441 
  "/>
<polyline clip-path="url(#clip122)" style="stroke:#000000; stroke-linecap:butt; stroke-linejoin:round; stroke-width:2; stroke-opacity:0.1; fill:none" points="
  1377.91,1800.78 1377.91,47.2441 
  "/>
<polyline clip-path="url(#clip122)" style="stroke:#000000; stroke-linecap:butt; stroke-linejoin:round; stroke-width:2; stroke-opacity:0.1; fill:none" points="
  1973.59,1800.78 1973.59,47.2441 
  "/>
<polyline clip-path="url(#clip122)" style="stroke:#000000; stroke-linecap:butt; stroke-linejoin:round; stroke-width:2; stroke-opacity:0.1; fill:none" points="
  2569.27,1800.78 2569.27,47.2441 
  "/>
<polyline clip-path="url(#clip120)" style="stroke:#000000; stroke-linecap:butt; stroke-linejoin:round; stroke-width:4; stroke-opacity:1; fill:none" points="
  115.057,1800.78 2640.76,1800.78 
  "/>
<polyline clip-path="url(#clip120)" style="stroke:#000000; stroke-linecap:butt; stroke-linejoin:round; stroke-width:4; stroke-opacity:1; fill:none" points="
  186.539,1800.78 186.539,1781.88 
  "/>
<polyline clip-path="url(#clip120)" style="stroke:#000000; stroke-linecap:butt; stroke-linejoin:round; stroke-width:4; stroke-opacity:1; fill:none" points="
  782.223,1800.78 782.223,1781.88 
  "/>
<polyline clip-path="url(#clip120)" style="stroke:#000000; stroke-linecap:butt; stroke-linejoin:round; stroke-width:4; stroke-opacity:1; fill:none" points="
  1377.91,1800.78 1377.91,1781.88 
  "/>
<polyline clip-path="url(#clip120)" style="stroke:#000000; stroke-linecap:butt; stroke-linejoin:round; stroke-width:4; stroke-opacity:1; fill:none" points="
  1973.59,1800.78 1973.59,1781.88 
  "/>
<polyline clip-path="url(#clip120)" style="stroke:#000000; stroke-linecap:butt; stroke-linejoin:round; stroke-width:4; stroke-opacity:1; fill:none" points="
  2569.27,1800.78 2569.27,1781.88 
  "/>
<path clip-path="url(#clip120)" d="M163.924 1834 Q160.313 1834 158.484 1837.57 Q156.678 1841.11 156.678 1848.24 Q156.678 1855.34 158.484 1858.91 Q160.313 1862.45 163.924 1862.45 Q167.558 1862.45 169.363 1858.91 Q171.192 1855.34 171.192 1848.24 Q171.192 1841.11 169.363 1837.57 Q167.558 1834 163.924 1834 M163.924 1830.3 Q169.734 1830.3 172.789 1834.9 Q175.868 1839.49 175.868 1848.24 Q175.868 1856.96 172.789 1861.57 Q169.734 1866.15 163.924 1866.15 Q158.113 1866.15 155.035 1861.57 Q151.979 1856.96 151.979 1848.24 Q151.979 1839.49 155.035 1834.9 Q158.113 1830.3 163.924 1830.3 Z" fill="#000000" fill-rule="evenodd" fill-opacity="1" /><path clip-path="url(#clip120)" d="M184.086 1859.6 L188.97 1859.6 L188.97 1865.48 L184.086 1865.48 L184.086 1859.6 Z" fill="#000000" fill-rule="evenodd" fill-opacity="1" /><path clip-path="url(#clip120)" d="M209.155 1834 Q205.544 1834 203.715 1837.57 Q201.91 1841.11 201.91 1848.24 Q201.91 1855.34 203.715 1858.91 Q205.544 1862.45 209.155 1862.45 Q212.789 1862.45 214.595 1858.91 Q216.423 1855.34 216.423 1848.24 Q216.423 1841.11 214.595 1837.57 Q212.789 1834 209.155 1834 M209.155 1830.3 Q214.965 1830.3 218.021 1834.9 Q221.099 1839.49 221.099 1848.24 Q221.099 1856.96 218.021 1861.57 Q214.965 1866.15 209.155 1866.15 Q203.345 1866.15 200.266 1861.57 Q197.21 1856.96 197.21 1848.24 Q197.21 1839.49 200.266 1834.9 Q203.345 1830.3 209.155 1830.3 Z" fill="#000000" fill-rule="evenodd" fill-opacity="1" /><path clip-path="url(#clip120)" d="M760.105 1834 Q756.494 1834 754.665 1837.57 Q752.86 1841.11 752.86 1848.24 Q752.86 1855.34 754.665 1858.91 Q756.494 1862.45 760.105 1862.45 Q763.739 1862.45 765.545 1858.91 Q767.373 1855.34 767.373 1848.24 Q767.373 1841.11 765.545 1837.57 Q763.739 1834 760.105 1834 M760.105 1830.3 Q765.915 1830.3 768.971 1834.9 Q772.049 1839.49 772.049 1848.24 Q772.049 1856.96 768.971 1861.57 Q765.915 1866.15 760.105 1866.15 Q754.295 1866.15 751.216 1861.57 Q748.161 1856.96 748.161 1848.24 Q748.161 1839.49 751.216 1834.9 Q754.295 1830.3 760.105 1830.3 Z" fill="#000000" fill-rule="evenodd" fill-opacity="1" /><path clip-path="url(#clip120)" d="M780.267 1859.6 L785.151 1859.6 L785.151 1865.48 L780.267 1865.48 L780.267 1859.6 Z" fill="#000000" fill-rule="evenodd" fill-opacity="1" /><path clip-path="url(#clip120)" d="M795.383 1830.92 L813.739 1830.92 L813.739 1834.86 L799.665 1834.86 L799.665 1843.33 Q800.683 1842.98 801.702 1842.82 Q802.72 1842.64 803.739 1842.64 Q809.526 1842.64 812.906 1845.81 Q816.285 1848.98 816.285 1854.4 Q816.285 1859.97 812.813 1863.08 Q809.341 1866.15 803.021 1866.15 Q800.845 1866.15 798.577 1865.78 Q796.332 1865.41 793.924 1864.67 L793.924 1859.97 Q796.008 1861.11 798.23 1861.66 Q800.452 1862.22 802.929 1862.22 Q806.933 1862.22 809.271 1860.11 Q811.609 1858.01 811.609 1854.4 Q811.609 1850.78 809.271 1848.68 Q806.933 1846.57 802.929 1846.57 Q801.054 1846.57 799.179 1846.99 Q797.327 1847.4 795.383 1848.28 L795.383 1830.92 Z" fill="#000000" fill-rule="evenodd" fill-opacity="1" /><path clip-path="url(#clip120)" d="M1345.06 1861.55 L1352.7 1861.55 L1352.7 1835.18 L1344.39 1836.85 L1344.39 1832.59 L1352.65 1830.92 L1357.33 1830.92 L1357.33 1861.55 L1364.97 1861.55 L1364.97 1865.48 L1345.06 1865.48 L1345.06 1861.55 Z" fill="#000000" fill-rule="evenodd" fill-opacity="1" /><path clip-path="url(#clip120)" d="M1374.41 1859.6 L1379.3 1859.6 L1379.3 1865.48 L1374.41 1865.48 L1374.41 1859.6 Z" fill="#000000" fill-rule="evenodd" fill-opacity="1" /><path clip-path="url(#clip120)" d="M1399.48 1834 Q1395.87 1834 1394.04 1837.57 Q1392.24 1841.11 1392.24 1848.24 Q1392.24 1855.34 1394.04 1858.91 Q1395.87 1862.45 1399.48 1862.45 Q1403.11 1862.45 1404.92 1858.91 Q1406.75 1855.34 1406.75 1848.24 Q1406.75 1841.11 1404.92 1837.57 Q1403.11 1834 1399.48 1834 M1399.48 1830.3 Q1405.29 1830.3 1408.35 1834.9 Q1411.42 1839.49 1411.42 1848.24 Q1411.42 1856.96 1408.35 1861.57 Q1405.29 1866.15 1399.48 1866.15 Q1393.67 1866.15 1390.59 1861.57 Q1387.54 1856.96 1387.54 1848.24 Q1387.54 1839.49 1390.59 1834.9 Q1393.67 1830.3 1399.48 1830.3 Z" fill="#000000" fill-rule="evenodd" fill-opacity="1" /><path clip-path="url(#clip120)" d="M1941.24 1861.55 L1948.88 1861.55 L1948.88 1835.18 L1940.57 1836.85 L1940.57 1832.59 L1948.83 1830.92 L1953.51 1830.92 L1953.51 1861.55 L1961.15 1861.55 L1961.15 1865.48 L1941.24 1865.48 L1941.24 1861.55 Z" fill="#000000" fill-rule="evenodd" fill-opacity="1" /><path clip-path="url(#clip120)" d="M1970.59 1859.6 L1975.48 1859.6 L1975.48 1865.48 L1970.59 1865.48 L1970.59 1859.6 Z" fill="#000000" fill-rule="evenodd" fill-opacity="1" /><path clip-path="url(#clip120)" d="M1985.71 1830.92 L2004.06 1830.92 L2004.06 1834.86 L1989.99 1834.86 L1989.99 1843.33 Q1991.01 1842.98 1992.03 1842.82 Q1993.05 1842.64 1994.06 1842.64 Q1999.85 1842.64 2003.23 1845.81 Q2006.61 1848.98 2006.61 1854.4 Q2006.61 1859.97 2003.14 1863.08 Q1999.67 1866.15 1993.35 1866.15 Q1991.17 1866.15 1988.9 1865.78 Q1986.66 1865.41 1984.25 1864.67 L1984.25 1859.97 Q1986.33 1861.11 1988.56 1861.66 Q1990.78 1862.22 1993.25 1862.22 Q1997.26 1862.22 1999.6 1860.11 Q2001.93 1858.01 2001.93 1854.4 Q2001.93 1850.78 1999.6 1848.68 Q1997.26 1846.57 1993.25 1846.57 Q1991.38 1846.57 1989.5 1846.99 Q1987.65 1847.4 1985.71 1848.28 L1985.71 1830.92 Z" fill="#000000" fill-rule="evenodd" fill-opacity="1" /><path clip-path="url(#clip120)" d="M2540.51 1861.55 L2556.83 1861.55 L2556.83 1865.48 L2534.89 1865.48 L2534.89 1861.55 Q2537.55 1858.79 2542.13 1854.16 Q2546.74 1849.51 2547.92 1848.17 Q2550.17 1845.65 2551.04 1843.91 Q2551.95 1842.15 2551.95 1840.46 Q2551.95 1837.71 2550 1835.97 Q2548.08 1834.23 2544.98 1834.23 Q2542.78 1834.23 2540.33 1835 Q2537.9 1835.76 2535.12 1837.31 L2535.12 1832.59 Q2537.94 1831.46 2540.4 1830.88 Q2542.85 1830.3 2544.89 1830.3 Q2550.26 1830.3 2553.45 1832.98 Q2556.65 1835.67 2556.65 1840.16 Q2556.65 1842.29 2555.84 1844.21 Q2555.05 1846.11 2552.94 1848.7 Q2552.36 1849.37 2549.26 1852.59 Q2546.16 1855.78 2540.51 1861.55 Z" fill="#000000" fill-rule="evenodd" fill-opacity="1" /><path clip-path="url(#clip120)" d="M2566.65 1859.6 L2571.53 1859.6 L2571.53 1865.48 L2566.65 1865.48 L2566.65 1859.6 Z" fill="#000000" fill-rule="evenodd" fill-opacity="1" /><path clip-path="url(#clip120)" d="M2591.72 1834 Q2588.1 1834 2586.28 1837.57 Q2584.47 1841.11 2584.47 1848.24 Q2584.47 1855.34 2586.28 1858.91 Q2588.1 1862.45 2591.72 1862.45 Q2595.35 1862.45 2597.16 1858.91 Q2598.98 1855.34 2598.98 1848.24 Q2598.98 1841.11 2597.16 1837.57 Q2595.35 1834 2591.72 1834 M2591.72 1830.3 Q2597.53 1830.3 2600.58 1834.9 Q2603.66 1839.49 2603.66 1848.24 Q2603.66 1856.96 2600.58 1861.57 Q2597.53 1866.15 2591.72 1866.15 Q2585.91 1866.15 2582.83 1861.57 Q2579.77 1856.96 2579.77 1848.24 Q2579.77 1839.49 2582.83 1834.9 Q2585.91 1830.3 2591.72 1830.3 Z" fill="#000000" fill-rule="evenodd" fill-opacity="1" /><polyline clip-path="url(#clip122)" style="stroke:#000000; stroke-linecap:butt; stroke-linejoin:round; stroke-width:2; stroke-opacity:0.1; fill:none" points="
  115.057,1771.83 2640.76,1771.83 
  "/>
<polyline clip-path="url(#clip122)" style="stroke:#000000; stroke-linecap:butt; stroke-linejoin:round; stroke-width:2; stroke-opacity:0.1; fill:none" points="
  115.057,1492.67 2640.76,1492.67 
  "/>
<polyline clip-path="url(#clip122)" style="stroke:#000000; stroke-linecap:butt; stroke-linejoin:round; stroke-width:2; stroke-opacity:0.1; fill:none" points="
  115.057,1213.51 2640.76,1213.51 
  "/>
<polyline clip-path="url(#clip122)" style="stroke:#000000; stroke-linecap:butt; stroke-linejoin:round; stroke-width:2; stroke-opacity:0.1; fill:none" points="
  115.057,934.351 2640.76,934.351 
  "/>
<polyline clip-path="url(#clip122)" style="stroke:#000000; stroke-linecap:butt; stroke-linejoin:round; stroke-width:2; stroke-opacity:0.1; fill:none" points="
  115.057,655.191 2640.76,655.191 
  "/>
<polyline clip-path="url(#clip122)" style="stroke:#000000; stroke-linecap:butt; stroke-linejoin:round; stroke-width:2; stroke-opacity:0.1; fill:none" points="
  115.057,376.032 2640.76,376.032 
  "/>
<polyline clip-path="url(#clip122)" style="stroke:#000000; stroke-linecap:butt; stroke-linejoin:round; stroke-width:2; stroke-opacity:0.1; fill:none" points="
  115.057,96.8724 2640.76,96.8724 
  "/>
<polyline clip-path="url(#clip120)" style="stroke:#000000; stroke-linecap:butt; stroke-linejoin:round; stroke-width:4; stroke-opacity:1; fill:none" points="
  115.057,1800.78 115.057,47.2441 
  "/>
<polyline clip-path="url(#clip120)" style="stroke:#000000; stroke-linecap:butt; stroke-linejoin:round; stroke-width:4; stroke-opacity:1; fill:none" points="
  115.057,1771.83 133.955,1771.83 
  "/>
<polyline clip-path="url(#clip120)" style="stroke:#000000; stroke-linecap:butt; stroke-linejoin:round; stroke-width:4; stroke-opacity:1; fill:none" points="
  115.057,1492.67 133.955,1492.67 
  "/>
<polyline clip-path="url(#clip120)" style="stroke:#000000; stroke-linecap:butt; stroke-linejoin:round; stroke-width:4; stroke-opacity:1; fill:none" points="
  115.057,1213.51 133.955,1213.51 
  "/>
<polyline clip-path="url(#clip120)" style="stroke:#000000; stroke-linecap:butt; stroke-linejoin:round; stroke-width:4; stroke-opacity:1; fill:none" points="
  115.057,934.351 133.955,934.351 
  "/>
<polyline clip-path="url(#clip120)" style="stroke:#000000; stroke-linecap:butt; stroke-linejoin:round; stroke-width:4; stroke-opacity:1; fill:none" points="
  115.057,655.191 133.955,655.191 
  "/>
<polyline clip-path="url(#clip120)" style="stroke:#000000; stroke-linecap:butt; stroke-linejoin:round; stroke-width:4; stroke-opacity:1; fill:none" points="
  115.057,376.032 133.955,376.032 
  "/>
<polyline clip-path="url(#clip120)" style="stroke:#000000; stroke-linecap:butt; stroke-linejoin:round; stroke-width:4; stroke-opacity:1; fill:none" points="
  115.057,96.8724 133.955,96.8724 
  "/>
<path clip-path="url(#clip120)" d="M62.7928 1757.63 Q59.1817 1757.63 57.353 1761.19 Q55.5475 1764.73 55.5475 1771.86 Q55.5475 1778.97 57.353 1782.54 Q59.1817 1786.08 62.7928 1786.08 Q66.427 1786.08 68.2326 1782.54 Q70.0613 1778.97 70.0613 1771.86 Q70.0613 1764.73 68.2326 1761.19 Q66.427 1757.63 62.7928 1757.63 M62.7928 1753.92 Q68.6029 1753.92 71.6585 1758.53 Q74.7372 1763.11 74.7372 1771.86 Q74.7372 1780.59 71.6585 1785.2 Q68.6029 1789.78 62.7928 1789.78 Q56.9826 1789.78 53.904 1785.2 Q50.8484 1780.59 50.8484 1771.86 Q50.8484 1763.11 53.904 1758.53 Q56.9826 1753.92 62.7928 1753.92 Z" fill="#000000" fill-rule="evenodd" fill-opacity="1" /><path clip-path="url(#clip120)" d="M54.8299 1506.01 L62.4687 1506.01 L62.4687 1479.65 L54.1586 1481.32 L54.1586 1477.06 L62.4224 1475.39 L67.0983 1475.39 L67.0983 1506.01 L74.7372 1506.01 L74.7372 1509.95 L54.8299 1509.95 L54.8299 1506.01 Z" fill="#000000" fill-rule="evenodd" fill-opacity="1" /><path clip-path="url(#clip120)" d="M58.4178 1226.86 L74.7372 1226.86 L74.7372 1230.79 L52.7928 1230.79 L52.7928 1226.86 Q55.4549 1224.1 60.0382 1219.47 Q64.6446 1214.82 65.8252 1213.48 Q68.0705 1210.95 68.9502 1209.22 Q69.8529 1207.46 69.8529 1205.77 Q69.8529 1203.01 67.9085 1201.28 Q65.9872 1199.54 62.8854 1199.54 Q60.6863 1199.54 58.2326 1200.3 Q55.8021 1201.07 53.0243 1202.62 L53.0243 1197.9 Q55.8484 1196.76 58.3021 1196.18 Q60.7558 1195.61 62.7928 1195.61 Q68.1631 1195.61 71.3576 1198.29 Q74.552 1200.98 74.552 1205.47 Q74.552 1207.6 73.7418 1209.52 Q72.9548 1211.42 70.8483 1214.01 Q70.2696 1214.68 67.1678 1217.9 Q64.0659 1221.09 58.4178 1226.86 Z" fill="#000000" fill-rule="evenodd" fill-opacity="1" /><path clip-path="url(#clip120)" d="M67.6076 932.997 Q70.964 933.714 72.839 935.983 Q74.7372 938.251 74.7372 941.585 Q74.7372 946.7 71.2187 949.501 Q67.7002 952.302 61.2187 952.302 Q59.0428 952.302 56.728 951.862 Q54.4364 951.446 51.9827 950.589 L51.9827 946.075 Q53.9271 947.21 56.2419 947.788 Q58.5567 948.367 61.0798 948.367 Q65.478 948.367 67.7696 946.631 Q70.0844 944.895 70.0844 941.585 Q70.0844 938.529 67.9317 936.816 Q65.802 935.08 61.9826 935.08 L57.9549 935.08 L57.9549 931.238 L62.1678 931.238 Q65.6169 931.238 67.4455 929.872 Q69.2742 928.483 69.2742 925.89 Q69.2742 923.228 67.3761 921.816 Q65.5011 920.381 61.9826 920.381 Q60.0613 920.381 57.8623 920.798 Q55.6632 921.214 53.0243 922.094 L53.0243 917.927 Q55.6864 917.187 58.0012 916.816 Q60.3391 916.446 62.3993 916.446 Q67.7233 916.446 70.8252 918.876 Q73.927 921.284 73.927 925.404 Q73.927 928.275 72.2835 930.265 Q70.64 932.233 67.6076 932.997 Z" fill="#000000" fill-rule="evenodd" fill-opacity="1" /><path clip-path="url(#clip120)" d="M65.1539 641.985 L53.3484 660.434 L65.1539 660.434 L65.1539 641.985 M63.927 637.911 L69.8066 637.911 L69.8066 660.434 L74.7372 660.434 L74.7372 664.323 L69.8066 664.323 L69.8066 672.471 L65.1539 672.471 L65.1539 664.323 L49.5521 664.323 L49.5521 659.809 L63.927 637.911 Z" fill="#000000" fill-rule="evenodd" fill-opacity="1" /><path clip-path="url(#clip120)" d="M53.8345 358.752 L72.1909 358.752 L72.1909 362.687 L58.1169 362.687 L58.1169 371.159 Q59.1354 370.812 60.1539 370.65 Q61.1724 370.465 62.1909 370.465 Q67.978 370.465 71.3576 373.636 Q74.7372 376.807 74.7372 382.224 Q74.7372 387.803 71.265 390.905 Q67.7928 393.983 61.4734 393.983 Q59.2974 393.983 57.0289 393.613 Q54.7836 393.243 52.3762 392.502 L52.3762 387.803 Q54.4595 388.937 56.6817 389.493 Q58.9039 390.048 61.3808 390.048 Q65.3854 390.048 67.7233 387.942 Q70.0613 385.835 70.0613 382.224 Q70.0613 378.613 67.7233 376.506 Q65.3854 374.4 61.3808 374.4 Q59.5058 374.4 57.6308 374.817 Q55.7789 375.233 53.8345 376.113 L53.8345 358.752 Z" fill="#000000" fill-rule="evenodd" fill-opacity="1" /><path clip-path="url(#clip120)" d="M63.2095 95.009 Q60.0613 95.009 58.2095 97.1618 Q56.3808 99.3146 56.3808 103.065 Q56.3808 106.791 58.2095 108.967 Q60.0613 111.12 63.2095 111.12 Q66.3576 111.12 68.1863 108.967 Q70.0381 106.791 70.0381 103.065 Q70.0381 99.3146 68.1863 97.1618 Q66.3576 95.009 63.2095 95.009 M72.4918 80.3563 L72.4918 84.6156 Q70.7326 83.7822 68.927 83.3424 Q67.1446 82.9026 65.3854 82.9026 Q60.7558 82.9026 58.3021 86.0276 Q55.8715 89.1526 55.5243 95.472 Q56.89 93.4581 58.9502 92.3933 Q61.0104 91.3053 63.4872 91.3053 Q68.6955 91.3053 71.7048 94.4766 Q74.7372 97.6248 74.7372 103.065 Q74.7372 108.389 71.589 111.606 Q68.4409 114.824 63.2095 114.824 Q57.2141 114.824 54.0428 110.24 Q50.8716 105.634 50.8716 96.9072 Q50.8716 88.7128 54.7604 83.8517 Q58.6493 78.9675 65.2002 78.9675 Q66.9594 78.9675 68.7418 79.3147 Q70.5474 79.6619 72.4918 80.3563 Z" fill="#000000" fill-rule="evenodd" fill-opacity="1" /><polyline clip-path="url(#clip122)" style="stroke:#009af9; stroke-linecap:butt; stroke-linejoin:round; stroke-width:4; stroke-opacity:1; fill:none" points="
  186.539,96.8724 190.417,118.506 194.296,139.791 198.174,160.735 202.052,181.344 211.017,227.737 219.982,272.451 228.947,315.558 237.912,357.127 246.877,397.223 
  255.842,435.908 264.807,473.243 273.772,509.282 282.737,544.079 291.702,577.686 300.667,610.151 309.632,641.52 327.561,701.145 345.491,756.889 356.266,788.649 
  367.042,819.176 377.817,848.527 388.592,876.757 410.142,930.052 431.692,979.439 449.913,1018.4 468.133,1054.99 486.354,1089.39 504.574,1121.75 524.367,1154.76 
  544.159,1185.7 563.952,1214.72 583.744,1241.97 601.991,1265.63 620.238,1287.99 638.485,1309.12 656.732,1329.12 676.295,1349.37 695.857,1368.47 715.42,1386.51 
  734.983,1403.55 780.313,1439.56 825.644,1471.27 865.928,1496.33 906.213,1518.84 941.538,1536.71 976.864,1553.03 1015.38,1569.25 1053.89,1583.99 1092.64,1597.49 
  1131.38,1609.79 1217.05,1633.38 1298.57,1651.96 1383.32,1668.09 1454.67,1679.61 1541.78,1691.6 1621.57,1700.91 1695.27,1708.34 1769.92,1714.91 1853.58,1721.28 
  1929.4,1726.31 2016.2,1731.32 2096.57,1735.36 2175.81,1738.86 2252.74,1741.86 2331.6,1744.6 2418.01,1747.25 2543.52,1750.54 2569.27,1751.15 
  "/>
<path clip-path="url(#clip120)" d="
M2223.5 209.375 L2556.57 209.375 L2556.57 105.695 L2223.5 105.695  Z
  " fill="#ffffff" fill-rule="evenodd" fill-opacity="1"/>
<polyline clip-path="url(#clip120)" style="stroke:#000000; stroke-linecap:butt; stroke-linejoin:round; stroke-width:4; stroke-opacity:1; fill:none" points="
  2223.5,209.375 2556.57,209.375 2556.57,105.695 2223.5,105.695 2223.5,209.375 
  "/>
<polyline clip-path="url(#clip120)" style="stroke:#009af9; stroke-linecap:butt; stroke-linejoin:round; stroke-width:4; stroke-opacity:1; fill:none" points="
  2251.57,157.535 2419.95,157.535 
  "/>
<path clip-path="url(#clip120)" d="M2461.85 177.223 Q2460.05 181.852 2458.33 183.264 Q2456.62 184.676 2453.75 184.676 L2450.35 184.676 L2450.35 181.112 L2452.85 181.112 Q2454.61 181.112 2455.58 180.278 Q2456.55 179.445 2457.73 176.343 L2458.5 174.399 L2448.01 148.889 L2452.52 148.889 L2460.62 169.167 L2468.73 148.889 L2473.24 148.889 L2461.85 177.223 Z" fill="#000000" fill-rule="evenodd" fill-opacity="1" /><path clip-path="url(#clip120)" d="M2480.53 170.88 L2488.17 170.88 L2488.17 144.515 L2479.86 146.181 L2479.86 141.922 L2488.12 140.255 L2492.8 140.255 L2492.8 170.88 L2500.44 170.88 L2500.44 174.815 L2480.53 174.815 L2480.53 170.88 Z" fill="#000000" fill-rule="evenodd" fill-opacity="1" /></svg>
