<?xml version="1.0" encoding="utf-8"?>
<svg xmlns="http://www.w3.org/2000/svg" xmlns:xlink="http://www.w3.org/1999/xlink" width="672" height="480" viewBox="0 0 2688 1920">
<defs>
  <clipPath id="clip510">
    <rect x="0" y="0" width="2688" height="1920"/>
  </clipPath>
</defs>
<path clip-path="url(#clip510)" d="
M0 1920 L2688 1920 L2688 0 L0 0  Z
  " fill="#ffffff" fill-rule="evenodd" fill-opacity="1"/>
<defs>
  <clipPath id="clip511">
    <rect x="537" y="0" width="1883" height="1883"/>
  </clipPath>
</defs>
<path clip-path="url(#clip510)" d="
M189.154 1800.78 L2640.76 1800.78 L2640.76 47.2441 L189.154 47.2441  Z
  " fill="#ffffff" fill-rule="evenodd" fill-opacity="1"/>
<defs>
  <clipPath id="clip512">
    <rect x="189" y="47" width="2453" height="1755"/>
  </clipPath>
</defs>
<polyline clip-path="url(#clip512)" style="stroke:#000000; stroke-linecap:round; stroke-linejoin:round; stroke-width:2; stroke-opacity:0.1; fill:none" points="
  258.539,1800.78 258.539,47.2441 
  "/>
<polyline clip-path="url(#clip512)" style="stroke:#000000; stroke-linecap:round; stroke-linejoin:round; stroke-width:2; stroke-opacity:0.1; fill:none" points="
  836.747,1800.78 836.747,47.2441 
  "/>
<polyline clip-path="url(#clip512)" style="stroke:#000000; stroke-linecap:round; stroke-linejoin:round; stroke-width:2; stroke-opacity:0.1; fill:none" points="
  1414.95,1800.78 1414.95,47.2441 
  "/>
<polyline clip-path="url(#clip512)" style="stroke:#000000; stroke-linecap:round; stroke-linejoin:round; stroke-width:2; stroke-opacity:0.1; fill:none" points="
  1993.16,1800.78 1993.16,47.2441 
  "/>
<polyline clip-path="url(#clip512)" style="stroke:#000000; stroke-linecap:round; stroke-linejoin:round; stroke-width:2; stroke-opacity:0.1; fill:none" points="
  2571.37,1800.78 2571.37,47.2441 
  "/>
<polyline clip-path="url(#clip510)" style="stroke:#000000; stroke-linecap:round; stroke-linejoin:round; stroke-width:4; stroke-opacity:1; fill:none" points="
  189.154,1800.78 2640.76,1800.78 
  "/>
<polyline clip-path="url(#clip510)" style="stroke:#000000; stroke-linecap:round; stroke-linejoin:round; stroke-width:4; stroke-opacity:1; fill:none" points="
  258.539,1800.78 258.539,1781.88 
  "/>
<polyline clip-path="url(#clip510)" style="stroke:#000000; stroke-linecap:round; stroke-linejoin:round; stroke-width:4; stroke-opacity:1; fill:none" points="
  836.747,1800.78 836.747,1781.88 
  "/>
<polyline clip-path="url(#clip510)" style="stroke:#000000; stroke-linecap:round; stroke-linejoin:round; stroke-width:4; stroke-opacity:1; fill:none" points="
  1414.95,1800.78 1414.95,1781.88 
  "/>
<polyline clip-path="url(#clip510)" style="stroke:#000000; stroke-linecap:round; stroke-linejoin:round; stroke-width:4; stroke-opacity:1; fill:none" points="
  1993.16,1800.78 1993.16,1781.88 
  "/>
<polyline clip-path="url(#clip510)" style="stroke:#000000; stroke-linecap:round; stroke-linejoin:round; stroke-width:4; stroke-opacity:1; fill:none" points="
  2571.37,1800.78 2571.37,1781.88 
  "/>
<path clip-path="url(#clip510)" d="M235.923 1834 Q232.312 1834 230.484 1837.57 Q228.678 1841.11 228.678 1848.24 Q228.678 1855.34 230.484 1858.91 Q232.312 1862.45 235.923 1862.45 Q239.558 1862.45 241.363 1858.91 Q243.192 1855.34 243.192 1848.24 Q243.192 1841.11 241.363 1837.57 Q239.558 1834 235.923 1834 M235.923 1830.3 Q241.733 1830.3 244.789 1834.9 Q247.868 1839.49 247.868 1848.24 Q247.868 1856.96 244.789 1861.57 Q241.733 1866.15 235.923 1866.15 Q230.113 1866.15 227.035 1861.57 Q223.979 1856.96 223.979 1848.24 Q223.979 1839.49 227.035 1834.9 Q230.113 1830.3 235.923 1830.3 Z" fill="#000000" fill-rule="evenodd" fill-opacity="1" /><path clip-path="url(#clip510)" d="M256.085 1859.6 L260.97 1859.6 L260.97 1865.48 L256.085 1865.48 L256.085 1859.6 Z" fill="#000000" fill-rule="evenodd" fill-opacity="1" /><path clip-path="url(#clip510)" d="M281.155 1834 Q277.543 1834 275.715 1837.57 Q273.909 1841.11 273.909 1848.24 Q273.909 1855.34 275.715 1858.91 Q277.543 1862.45 281.155 1862.45 Q284.789 1862.45 286.594 1858.91 Q288.423 1855.34 288.423 1848.24 Q288.423 1841.11 286.594 1837.57 Q284.789 1834 281.155 1834 M281.155 1830.3 Q286.965 1830.3 290.02 1834.9 Q293.099 1839.49 293.099 1848.24 Q293.099 1856.96 290.02 1861.57 Q286.965 1866.15 281.155 1866.15 Q275.344 1866.15 272.266 1861.57 Q269.21 1856.96 269.21 1848.24 Q269.21 1839.49 272.266 1834.9 Q275.344 1830.3 281.155 1830.3 Z" fill="#000000" fill-rule="evenodd" fill-opacity="1" /><path clip-path="url(#clip510)" d="M814.629 1834 Q811.018 1834 809.189 1837.57 Q807.384 1841.11 807.384 1848.24 Q807.384 1855.34 809.189 1858.91 Q811.018 1862.45 814.629 1862.45 Q818.263 1862.45 820.069 1858.91 Q821.897 1855.34 821.897 1848.24 Q821.897 1841.11 820.069 1837.57 Q818.263 1834 814.629 1834 M814.629 1830.3 Q820.439 1830.3 823.495 1834.9 Q826.573 1839.49 826.573 1848.24 Q826.573 1856.96 823.495 1861.57 Q820.439 1866.15 814.629 1866.15 Q808.819 1866.15 805.74 1861.57 Q802.685 1856.96 802.685 1848.24 Q802.685 1839.49 805.74 1834.9 Q808.819 1830.3 814.629 1830.3 Z" fill="#000000" fill-rule="evenodd" fill-opacity="1" /><path clip-path="url(#clip510)" d="M834.791 1859.6 L839.675 1859.6 L839.675 1865.48 L834.791 1865.48 L834.791 1859.6 Z" fill="#000000" fill-rule="evenodd" fill-opacity="1" /><path clip-path="url(#clip510)" d="M849.907 1830.92 L868.263 1830.92 L868.263 1834.86 L854.189 1834.86 L854.189 1843.33 Q855.208 1842.98 856.226 1842.82 Q857.245 1842.64 858.263 1842.64 Q864.05 1842.64 867.43 1845.81 Q870.809 1848.98 870.809 1854.4 Q870.809 1859.97 867.337 1863.08 Q863.865 1866.15 857.545 1866.15 Q855.37 1866.15 853.101 1865.78 Q850.856 1865.41 848.448 1864.67 L848.448 1859.97 Q850.532 1861.11 852.754 1861.66 Q854.976 1862.22 857.453 1862.22 Q861.457 1862.22 863.795 1860.11 Q866.133 1858.01 866.133 1854.4 Q866.133 1850.78 863.795 1848.68 Q861.457 1846.57 857.453 1846.57 Q855.578 1846.57 853.703 1846.99 Q851.851 1847.4 849.907 1848.28 L849.907 1830.92 Z" fill="#000000" fill-rule="evenodd" fill-opacity="1" /><path clip-path="url(#clip510)" d="M1382.11 1861.55 L1389.75 1861.55 L1389.75 1835.18 L1381.44 1836.85 L1381.44 1832.59 L1389.7 1830.92 L1394.38 1830.92 L1394.38 1861.55 L1402.02 1861.55 L1402.02 1865.48 L1382.11 1865.48 L1382.11 1861.55 Z" fill="#000000" fill-rule="evenodd" fill-opacity="1" /><path clip-path="url(#clip510)" d="M1411.46 1859.6 L1416.34 1859.6 L1416.34 1865.48 L1411.46 1865.48 L1411.46 1859.6 Z" fill="#000000" fill-rule="evenodd" fill-opacity="1" /><path clip-path="url(#clip510)" d="M1436.53 1834 Q1432.92 1834 1431.09 1837.57 Q1429.28 1841.11 1429.28 1848.24 Q1429.28 1855.34 1431.09 1858.91 Q1432.92 1862.45 1436.53 1862.45 Q1440.16 1862.45 1441.97 1858.91 Q1443.8 1855.34 1443.8 1848.24 Q1443.8 1841.11 1441.97 1837.57 Q1440.16 1834 1436.53 1834 M1436.53 1830.3 Q1442.34 1830.3 1445.39 1834.9 Q1448.47 1839.49 1448.47 1848.24 Q1448.47 1856.96 1445.39 1861.57 Q1442.34 1866.15 1436.53 1866.15 Q1430.72 1866.15 1427.64 1861.57 Q1424.58 1856.96 1424.58 1848.24 Q1424.58 1839.49 1427.64 1834.9 Q1430.72 1830.3 1436.53 1830.3 Z" fill="#000000" fill-rule="evenodd" fill-opacity="1" /><path clip-path="url(#clip510)" d="M1960.81 1861.55 L1968.45 1861.55 L1968.45 1835.18 L1960.14 1836.85 L1960.14 1832.59 L1968.41 1830.92 L1973.08 1830.92 L1973.08 1861.55 L1980.72 1861.55 L1980.72 1865.48 L1960.81 1865.48 L1960.81 1861.55 Z" fill="#000000" fill-rule="evenodd" fill-opacity="1" /><path clip-path="url(#clip510)" d="M1990.17 1859.6 L1995.05 1859.6 L1995.05 1865.48 L1990.17 1865.48 L1990.17 1859.6 Z" fill="#000000" fill-rule="evenodd" fill-opacity="1" /><path clip-path="url(#clip510)" d="M2005.28 1830.92 L2023.64 1830.92 L2023.64 1834.86 L2009.56 1834.86 L2009.56 1843.33 Q2010.58 1842.98 2011.6 1842.82 Q2012.62 1842.64 2013.64 1842.64 Q2019.42 1842.64 2022.8 1845.81 Q2026.18 1848.98 2026.18 1854.4 Q2026.18 1859.97 2022.71 1863.08 Q2019.24 1866.15 2012.92 1866.15 Q2010.74 1866.15 2008.48 1865.78 Q2006.23 1865.41 2003.82 1864.67 L2003.82 1859.97 Q2005.91 1861.11 2008.13 1861.66 Q2010.35 1862.22 2012.83 1862.22 Q2016.83 1862.22 2019.17 1860.11 Q2021.51 1858.01 2021.51 1854.4 Q2021.51 1850.78 2019.17 1848.68 Q2016.83 1846.57 2012.83 1846.57 Q2010.95 1846.57 2009.08 1846.99 Q2007.23 1847.4 2005.28 1848.28 L2005.28 1830.92 Z" fill="#000000" fill-rule="evenodd" fill-opacity="1" /><path clip-path="url(#clip510)" d="M2542.61 1861.55 L2558.93 1861.55 L2558.93 1865.48 L2536.98 1865.48 L2536.98 1861.55 Q2539.65 1858.79 2544.23 1854.16 Q2548.84 1849.51 2550.02 1848.17 Q2552.26 1845.65 2553.14 1843.91 Q2554.04 1842.15 2554.04 1840.46 Q2554.04 1837.71 2552.1 1835.97 Q2550.18 1834.23 2547.08 1834.23 Q2544.88 1834.23 2542.42 1835 Q2539.99 1835.76 2537.22 1837.31 L2537.22 1832.59 Q2540.04 1831.46 2542.49 1830.88 Q2544.95 1830.3 2546.98 1830.3 Q2552.35 1830.3 2555.55 1832.98 Q2558.74 1835.67 2558.74 1840.16 Q2558.74 1842.29 2557.93 1844.21 Q2557.15 1846.11 2555.04 1848.7 Q2554.46 1849.37 2551.36 1852.59 Q2548.26 1855.78 2542.61 1861.55 Z" fill="#000000" fill-rule="evenodd" fill-opacity="1" /><path clip-path="url(#clip510)" d="M2568.74 1859.6 L2573.63 1859.6 L2573.63 1865.48 L2568.74 1865.48 L2568.74 1859.6 Z" fill="#000000" fill-rule="evenodd" fill-opacity="1" /><path clip-path="url(#clip510)" d="M2593.81 1834 Q2590.2 1834 2588.37 1837.57 Q2586.57 1841.11 2586.57 1848.24 Q2586.57 1855.34 2588.37 1858.91 Q2590.2 1862.45 2593.81 1862.45 Q2597.45 1862.45 2599.25 1858.91 Q2601.08 1855.34 2601.08 1848.24 Q2601.08 1841.11 2599.25 1837.57 Q2597.45 1834 2593.81 1834 M2593.81 1830.3 Q2599.62 1830.3 2602.68 1834.9 Q2605.76 1839.49 2605.76 1848.24 Q2605.76 1856.96 2602.68 1861.57 Q2599.62 1866.15 2593.81 1866.15 Q2588 1866.15 2584.92 1861.57 Q2581.87 1856.96 2581.87 1848.24 Q2581.87 1839.49 2584.92 1834.9 Q2588 1830.3 2593.81 1830.3 Z" fill="#000000" fill-rule="evenodd" fill-opacity="1" /><polyline clip-path="url(#clip512)" style="stroke:#000000; stroke-linecap:round; stroke-linejoin:round; stroke-width:2; stroke-opacity:0.1; fill:none" points="
  189.154,1751.15 2640.76,1751.15 
  "/>
<polyline clip-path="url(#clip512)" style="stroke:#000000; stroke-linecap:round; stroke-linejoin:round; stroke-width:2; stroke-opacity:0.1; fill:none" points="
  189.154,1337.58 2640.76,1337.58 
  "/>
<polyline clip-path="url(#clip512)" style="stroke:#000000; stroke-linecap:round; stroke-linejoin:round; stroke-width:2; stroke-opacity:0.1; fill:none" points="
  189.154,924.012 2640.76,924.012 
  "/>
<polyline clip-path="url(#clip512)" style="stroke:#000000; stroke-linecap:round; stroke-linejoin:round; stroke-width:2; stroke-opacity:0.1; fill:none" points="
  189.154,510.442 2640.76,510.442 
  "/>
<polyline clip-path="url(#clip512)" style="stroke:#000000; stroke-linecap:round; stroke-linejoin:round; stroke-width:2; stroke-opacity:0.1; fill:none" points="
  189.154,96.8724 2640.76,96.8724 
  "/>
<polyline clip-path="url(#clip510)" style="stroke:#000000; stroke-linecap:round; stroke-linejoin:round; stroke-width:4; stroke-opacity:1; fill:none" points="
  189.154,1800.78 189.154,47.2441 
  "/>
<polyline clip-path="url(#clip510)" style="stroke:#000000; stroke-linecap:round; stroke-linejoin:round; stroke-width:4; stroke-opacity:1; fill:none" points="
  189.154,1751.15 208.052,1751.15 
  "/>
<polyline clip-path="url(#clip510)" style="stroke:#000000; stroke-linecap:round; stroke-linejoin:round; stroke-width:4; stroke-opacity:1; fill:none" points="
  189.154,1337.58 208.052,1337.58 
  "/>
<polyline clip-path="url(#clip510)" style="stroke:#000000; stroke-linecap:round; stroke-linejoin:round; stroke-width:4; stroke-opacity:1; fill:none" points="
  189.154,924.012 208.052,924.012 
  "/>
<polyline clip-path="url(#clip510)" style="stroke:#000000; stroke-linecap:round; stroke-linejoin:round; stroke-width:4; stroke-opacity:1; fill:none" points="
  189.154,510.442 208.052,510.442 
  "/>
<polyline clip-path="url(#clip510)" style="stroke:#000000; stroke-linecap:round; stroke-linejoin:round; stroke-width:4; stroke-opacity:1; fill:none" points="
  189.154,96.8724 208.052,96.8724 
  "/>
<path clip-path="url(#clip510)" d="M61.4965 1736.95 Q57.8854 1736.95 56.0567 1740.51 Q54.2512 1744.06 54.2512 1751.19 Q54.2512 1758.29 56.0567 1761.86 Q57.8854 1765.4 61.4965 1765.4 Q65.1307 1765.4 66.9363 1761.86 Q68.765 1758.29 68.765 1751.19 Q68.765 1744.06 66.9363 1740.51 Q65.1307 1736.95 61.4965 1736.95 M61.4965 1733.25 Q67.3067 1733.25 70.3622 1737.85 Q73.4409 1742.44 73.4409 1751.19 Q73.4409 1759.91 70.3622 1764.52 Q67.3067 1769.1 61.4965 1769.1 Q55.6864 1769.1 52.6077 1764.52 Q49.5521 1759.91 49.5521 1751.19 Q49.5521 1742.44 52.6077 1737.85 Q55.6864 1733.25 61.4965 1733.25 Z" fill="#000000" fill-rule="evenodd" fill-opacity="1" /><path clip-path="url(#clip510)" d="M81.6584 1762.55 L86.5427 1762.55 L86.5427 1768.43 L81.6584 1768.43 L81.6584 1762.55 Z" fill="#000000" fill-rule="evenodd" fill-opacity="1" /><path clip-path="url(#clip510)" d="M106.728 1736.95 Q103.117 1736.95 101.288 1740.51 Q99.4824 1744.06 99.4824 1751.19 Q99.4824 1758.29 101.288 1761.86 Q103.117 1765.4 106.728 1765.4 Q110.362 1765.4 112.168 1761.86 Q113.996 1758.29 113.996 1751.19 Q113.996 1744.06 112.168 1740.51 Q110.362 1736.95 106.728 1736.95 M106.728 1733.25 Q112.538 1733.25 115.593 1737.85 Q118.672 1742.44 118.672 1751.19 Q118.672 1759.91 115.593 1764.52 Q112.538 1769.1 106.728 1769.1 Q100.918 1769.1 97.8389 1764.52 Q94.7834 1759.91 94.7834 1751.19 Q94.7834 1742.44 97.8389 1737.85 Q100.918 1733.25 106.728 1733.25 Z" fill="#000000" fill-rule="evenodd" fill-opacity="1" /><path clip-path="url(#clip510)" d="M136.89 1736.95 Q133.279 1736.95 131.45 1740.51 Q129.644 1744.06 129.644 1751.19 Q129.644 1758.29 131.45 1761.86 Q133.279 1765.4 136.89 1765.4 Q140.524 1765.4 142.329 1761.86 Q144.158 1758.29 144.158 1751.19 Q144.158 1744.06 142.329 1740.51 Q140.524 1736.95 136.89 1736.95 M136.89 1733.25 Q142.7 1733.25 145.755 1737.85 Q148.834 1742.44 148.834 1751.19 Q148.834 1759.91 145.755 1764.52 Q142.7 1769.1 136.89 1769.1 Q131.079 1769.1 128.001 1764.52 Q124.945 1759.91 124.945 1751.19 Q124.945 1742.44 128.001 1737.85 Q131.079 1733.25 136.89 1733.25 Z" fill="#000000" fill-rule="evenodd" fill-opacity="1" /><path clip-path="url(#clip510)" d="M62.4919 1323.38 Q58.8808 1323.38 57.0521 1326.94 Q55.2465 1330.49 55.2465 1337.62 Q55.2465 1344.72 57.0521 1348.29 Q58.8808 1351.83 62.4919 1351.83 Q66.1261 1351.83 67.9317 1348.29 Q69.7604 1344.72 69.7604 1337.62 Q69.7604 1330.49 67.9317 1326.94 Q66.1261 1323.38 62.4919 1323.38 M62.4919 1319.68 Q68.302 1319.68 71.3576 1324.28 Q74.4363 1328.87 74.4363 1337.62 Q74.4363 1346.34 71.3576 1350.95 Q68.302 1355.53 62.4919 1355.53 Q56.6817 1355.53 53.603 1350.95 Q50.5475 1346.34 50.5475 1337.62 Q50.5475 1328.87 53.603 1324.28 Q56.6817 1319.68 62.4919 1319.68 Z" fill="#000000" fill-rule="evenodd" fill-opacity="1" /><path clip-path="url(#clip510)" d="M82.6538 1348.98 L87.538 1348.98 L87.538 1354.86 L82.6538 1354.86 L82.6538 1348.98 Z" fill="#000000" fill-rule="evenodd" fill-opacity="1" /><path clip-path="url(#clip510)" d="M101.751 1350.93 L118.07 1350.93 L118.07 1354.86 L96.126 1354.86 L96.126 1350.93 Q98.788 1348.17 103.371 1343.54 Q107.978 1338.89 109.158 1337.55 Q111.404 1335.02 112.283 1333.29 Q113.186 1331.53 113.186 1329.84 Q113.186 1327.08 111.242 1325.35 Q109.32 1323.61 106.218 1323.61 Q104.019 1323.61 101.566 1324.38 Q99.1352 1325.14 96.3574 1326.69 L96.3574 1321.97 Q99.1815 1320.83 101.635 1320.26 Q104.089 1319.68 106.126 1319.68 Q111.496 1319.68 114.691 1322.36 Q117.885 1325.05 117.885 1329.54 Q117.885 1331.67 117.075 1333.59 Q116.288 1335.49 114.181 1338.08 Q113.603 1338.75 110.501 1341.97 Q107.399 1345.16 101.751 1350.93 Z" fill="#000000" fill-rule="evenodd" fill-opacity="1" /><path clip-path="url(#clip510)" d="M127.931 1320.3 L146.288 1320.3 L146.288 1324.24 L132.214 1324.24 L132.214 1332.71 Q133.232 1332.36 134.251 1332.2 Q135.269 1332.01 136.288 1332.01 Q142.075 1332.01 145.454 1335.19 Q148.834 1338.36 148.834 1343.77 Q148.834 1349.35 145.362 1352.45 Q141.89 1355.53 135.57 1355.53 Q133.394 1355.53 131.126 1355.16 Q128.88 1354.79 126.473 1354.05 L126.473 1349.35 Q128.556 1350.49 130.779 1351.04 Q133.001 1351.6 135.478 1351.6 Q139.482 1351.6 141.82 1349.49 Q144.158 1347.38 144.158 1343.77 Q144.158 1340.16 141.82 1338.06 Q139.482 1335.95 135.478 1335.95 Q133.603 1335.95 131.728 1336.37 Q129.876 1336.78 127.931 1337.66 L127.931 1320.3 Z" fill="#000000" fill-rule="evenodd" fill-opacity="1" /><path clip-path="url(#clip510)" d="M61.4965 909.81 Q57.8854 909.81 56.0567 913.375 Q54.2512 916.917 54.2512 924.046 Q54.2512 931.153 56.0567 934.718 Q57.8854 938.259 61.4965 938.259 Q65.1307 938.259 66.9363 934.718 Q68.765 931.153 68.765 924.046 Q68.765 916.917 66.9363 913.375 Q65.1307 909.81 61.4965 909.81 M61.4965 906.107 Q67.3067 906.107 70.3622 910.713 Q73.4409 915.296 73.4409 924.046 Q73.4409 932.773 70.3622 937.38 Q67.3067 941.963 61.4965 941.963 Q55.6864 941.963 52.6077 937.38 Q49.5521 932.773 49.5521 924.046 Q49.5521 915.296 52.6077 910.713 Q55.6864 906.107 61.4965 906.107 Z" fill="#000000" fill-rule="evenodd" fill-opacity="1" /><path clip-path="url(#clip510)" d="M81.6584 935.412 L86.5427 935.412 L86.5427 941.292 L81.6584 941.292 L81.6584 935.412 Z" fill="#000000" fill-rule="evenodd" fill-opacity="1" /><path clip-path="url(#clip510)" d="M96.7741 906.732 L115.13 906.732 L115.13 910.667 L101.056 910.667 L101.056 919.139 Q102.075 918.792 103.094 918.63 Q104.112 918.445 105.131 918.445 Q110.918 918.445 114.297 921.616 Q117.677 924.787 117.677 930.204 Q117.677 935.782 114.205 938.884 Q110.732 941.963 104.413 941.963 Q102.237 941.963 99.9685 941.593 Q97.7232 941.222 95.3158 940.482 L95.3158 935.782 Q97.3991 936.917 99.6213 937.472 Q101.844 938.028 104.32 938.028 Q108.325 938.028 110.663 935.921 Q113.001 933.815 113.001 930.204 Q113.001 926.593 110.663 924.486 Q108.325 922.38 104.32 922.38 Q102.445 922.38 100.57 922.796 Q98.7185 923.213 96.7741 924.093 L96.7741 906.732 Z" fill="#000000" fill-rule="evenodd" fill-opacity="1" /><path clip-path="url(#clip510)" d="M136.89 909.81 Q133.279 909.81 131.45 913.375 Q129.644 916.917 129.644 924.046 Q129.644 931.153 131.45 934.718 Q133.279 938.259 136.89 938.259 Q140.524 938.259 142.329 934.718 Q144.158 931.153 144.158 924.046 Q144.158 916.917 142.329 913.375 Q140.524 909.81 136.89 909.81 M136.89 906.107 Q142.7 906.107 145.755 910.713 Q148.834 915.296 148.834 924.046 Q148.834 932.773 145.755 937.38 Q142.7 941.963 136.89 941.963 Q131.079 941.963 128.001 937.38 Q124.945 932.773 124.945 924.046 Q124.945 915.296 128.001 910.713 Q131.079 906.107 136.89 906.107 Z" fill="#000000" fill-rule="evenodd" fill-opacity="1" /><path clip-path="url(#clip510)" d="M62.4919 496.241 Q58.8808 496.241 57.0521 499.806 Q55.2465 503.347 55.2465 510.477 Q55.2465 517.583 57.0521 521.148 Q58.8808 524.69 62.4919 524.69 Q66.1261 524.69 67.9317 521.148 Q69.7604 517.583 69.7604 510.477 Q69.7604 503.347 67.9317 499.806 Q66.1261 496.241 62.4919 496.241 M62.4919 492.537 Q68.302 492.537 71.3576 497.144 Q74.4363 501.727 74.4363 510.477 Q74.4363 519.204 71.3576 523.81 Q68.302 528.393 62.4919 528.393 Q56.6817 528.393 53.603 523.81 Q50.5475 519.204 50.5475 510.477 Q50.5475 501.727 53.603 497.144 Q56.6817 492.537 62.4919 492.537 Z" fill="#000000" fill-rule="evenodd" fill-opacity="1" /><path clip-path="url(#clip510)" d="M82.6538 521.842 L87.538 521.842 L87.538 527.722 L82.6538 527.722 L82.6538 521.842 Z" fill="#000000" fill-rule="evenodd" fill-opacity="1" /><path clip-path="url(#clip510)" d="M96.5426 493.162 L118.765 493.162 L118.765 495.153 L106.218 527.722 L101.334 527.722 L113.14 497.097 L96.5426 497.097 L96.5426 493.162 Z" fill="#000000" fill-rule="evenodd" fill-opacity="1" /><path clip-path="url(#clip510)" d="M127.931 493.162 L146.288 493.162 L146.288 497.097 L132.214 497.097 L132.214 505.569 Q133.232 505.222 134.251 505.06 Q135.269 504.875 136.288 504.875 Q142.075 504.875 145.454 508.046 Q148.834 511.218 148.834 516.634 Q148.834 522.213 145.362 525.315 Q141.89 528.393 135.57 528.393 Q133.394 528.393 131.126 528.023 Q128.88 527.653 126.473 526.912 L126.473 522.213 Q128.556 523.347 130.779 523.903 Q133.001 524.458 135.478 524.458 Q139.482 524.458 141.82 522.352 Q144.158 520.245 144.158 516.634 Q144.158 513.023 141.82 510.917 Q139.482 508.81 135.478 508.81 Q133.603 508.81 131.728 509.227 Q129.876 509.643 127.931 510.523 L127.931 493.162 Z" fill="#000000" fill-rule="evenodd" fill-opacity="1" /><path clip-path="url(#clip510)" d="M52.3067 110.217 L59.9456 110.217 L59.9456 83.8517 L51.6354 85.5183 L51.6354 81.2591 L59.8993 79.5924 L64.5752 79.5924 L64.5752 110.217 L72.214 110.217 L72.214 114.152 L52.3067 114.152 L52.3067 110.217 Z" fill="#000000" fill-rule="evenodd" fill-opacity="1" /><path clip-path="url(#clip510)" d="M81.6584 108.273 L86.5427 108.273 L86.5427 114.152 L81.6584 114.152 L81.6584 108.273 Z" fill="#000000" fill-rule="evenodd" fill-opacity="1" /><path clip-path="url(#clip510)" d="M106.728 82.6711 Q103.117 82.6711 101.288 86.2359 Q99.4824 89.7776 99.4824 96.9072 Q99.4824 104.014 101.288 107.578 Q103.117 111.12 106.728 111.12 Q110.362 111.12 112.168 107.578 Q113.996 104.014 113.996 96.9072 Q113.996 89.7776 112.168 86.2359 Q110.362 82.6711 106.728 82.6711 M106.728 78.9675 Q112.538 78.9675 115.593 83.5739 Q118.672 88.1572 118.672 96.9072 Q118.672 105.634 115.593 110.24 Q112.538 114.824 106.728 114.824 Q100.918 114.824 97.8389 110.24 Q94.7834 105.634 94.7834 96.9072 Q94.7834 88.1572 97.8389 83.5739 Q100.918 78.9675 106.728 78.9675 Z" fill="#000000" fill-rule="evenodd" fill-opacity="1" /><path clip-path="url(#clip510)" d="M136.89 82.6711 Q133.279 82.6711 131.45 86.2359 Q129.644 89.7776 129.644 96.9072 Q129.644 104.014 131.45 107.578 Q133.279 111.12 136.89 111.12 Q140.524 111.12 142.329 107.578 Q144.158 104.014 144.158 96.9072 Q144.158 89.7776 142.329 86.2359 Q140.524 82.6711 136.89 82.6711 M136.89 78.9675 Q142.7 78.9675 145.755 83.5739 Q148.834 88.1572 148.834 96.9072 Q148.834 105.634 145.755 110.24 Q142.7 114.824 136.89 114.824 Q131.079 114.824 128.001 110.24 Q124.945 105.634 124.945 96.9072 Q124.945 88.1572 128.001 83.5739 Q131.079 78.9675 136.89 78.9675 Z" fill="#000000" fill-rule="evenodd" fill-opacity="1" /><polyline clip-path="url(#clip512)" style="stroke:#009af9; stroke-linecap:round; stroke-linejoin:round; stroke-width:4; stroke-opacity:1; fill:none" points="
  258.539,1751.15 273.597,1740.38 412.828,1640.79 496.5,1580.95 567.244,1530.35 644.091,1475.38 714.938,1424.71 790.893,1370.38 878.894,1307.44 957.099,1251.5 
  1025.68,1202.45 1100.45,1148.97 1175.66,1095.17 1258.82,1035.69 1337.94,979.095 1420.21,920.251 1489.47,870.717 1574.02,810.241 1651.47,754.841 1723.01,703.675 
  1795.47,651.846 1876.68,593.759 1950.27,541.124 2034.52,480.859 2112.53,425.06 2189.45,370.049 2264.12,316.637 2340.67,261.883 2424.54,201.894 2546.38,114.75 
  2571.37,96.8724 
  "/>
<polyline clip-path="url(#clip512)" style="stroke:#e26f46; stroke-linecap:round; stroke-linejoin:round; stroke-width:4; stroke-opacity:1; fill:none" points="
  258.539,1751.15 273.597,1751.15 412.828,1751.15 496.5,1751.15 567.244,1751.15 644.091,1751.15 714.938,1751.15 752.915,1751.15 790.893,1751.15 801.893,1751.15 
  812.893,1751.15 823.893,1751.15 834.893,1751.15 840.393,1745.93 845.893,1738.07 851.394,1730.2 856.894,1722.33 867.894,1706.59 878.894,1690.86 917.997,1634.92 
  957.099,1578.98 991.389,1529.93 1025.68,1480.88 1100.45,1373.92 1175.66,1266.33 1258.82,1147.37 1337.94,1034.18 1420.21,916.49 1489.47,817.422 1574.02,696.47 
  1651.47,585.67 1723.01,483.338 1795.47,379.679 1836.07,321.593 1876.68,263.507 1913.47,210.871 1950.27,158.235 1960.8,143.169 1971.33,128.103 1981.86,113.037 
  1992.39,97.9713 2002.93,96.8724 2013.46,96.8724 2023.99,96.8724 2034.52,96.8724 2073.53,96.8724 2112.53,96.8724 2189.45,96.8724 2264.12,96.8724 2340.67,96.8724 
  2424.54,96.8724 2546.38,96.8724 2571.37,96.8724 
  "/>
<polyline clip-path="url(#clip512)" style="stroke:#3da44d; stroke-linecap:round; stroke-linejoin:round; stroke-width:4; stroke-opacity:1; fill:none" points="
  258.539,1751.15 266.068,1748.17 273.597,1745.15 343.212,1715.85 412.828,1683.86 454.664,1663.29 496.5,1641.68 531.872,1622.58 567.244,1602.72 644.091,1556.9 
  714.938,1511.39 790.893,1459.14 878.894,1394.25 957.099,1332.87 1025.68,1276.4 1100.45,1212.31 1175.66,1145.59 1258.82,1069.76 1337.94,996.232 1420.21,919.074 
  1489.47,854.13 1574.02,775.561 1651.47,704.931 1723.01,641.356 1795.47,579.01 1876.68,512.041 1950.27,454.344 2034.52,392.085 2112.53,338.254 2189.45,288.877 
  2264.12,244.469 2302.4,223.047 2340.67,202.52 2382.61,181.044 2424.54,160.607 2485.46,132.721 2546.38,106.894 2558.87,101.842 2571.37,96.8724 
  "/>
<path clip-path="url(#clip510)" d="
M2244.67 313.055 L2559.04 313.055 L2559.04 105.695 L2244.67 105.695  Z
  " fill="#ffffff" fill-rule="evenodd" fill-opacity="1"/>
<polyline clip-path="url(#clip510)" style="stroke:#000000; stroke-linecap:round; stroke-linejoin:round; stroke-width:4; stroke-opacity:1; fill:none" points="
  2244.67,313.055 2559.04,313.055 2559.04,105.695 2244.67,105.695 2244.67,313.055 
  "/>
<polyline clip-path="url(#clip510)" style="stroke:#009af9; stroke-linecap:round; stroke-linejoin:round; stroke-width:4; stroke-opacity:1; fill:none" points="
  2271.91,157.535 2435.35,157.535 
  "/>
<path clip-path="url(#clip510)" d="M2479.09 138.797 L2479.09 142.339 L2475.02 142.339 Q2472.73 142.339 2471.82 143.265 Q2470.94 144.19 2470.94 146.598 L2470.94 148.889 L2477.96 148.889 L2477.96 152.2 L2470.94 152.2 L2470.94 174.815 L2466.66 174.815 L2466.66 152.2 L2462.59 152.2 L2462.59 148.889 L2466.66 148.889 L2466.66 147.084 Q2466.66 142.755 2468.68 140.788 Q2470.69 138.797 2475.07 138.797 L2479.09 138.797 Z" fill="#000000" fill-rule="evenodd" fill-opacity="1" /><path clip-path="url(#clip510)" d="M2484.07 170.88 L2491.71 170.88 L2491.71 144.515 L2483.4 146.181 L2483.4 141.922 L2491.66 140.255 L2496.34 140.255 L2496.34 170.88 L2503.98 170.88 L2503.98 174.815 L2484.07 174.815 L2484.07 170.88 Z" fill="#000000" fill-rule="evenodd" fill-opacity="1" /><polyline clip-path="url(#clip510)" style="stroke:#e26f46; stroke-linecap:round; stroke-linejoin:round; stroke-width:4; stroke-opacity:1; fill:none" points="
  2271.91,209.375 2435.35,209.375 
  "/>
<path clip-path="url(#clip510)" d="M2479.09 190.637 L2479.09 194.179 L2475.02 194.179 Q2472.73 194.179 2471.82 195.105 Q2470.94 196.03 2470.94 198.438 L2470.94 200.729 L2477.96 200.729 L2477.96 204.04 L2470.94 204.04 L2470.94 226.655 L2466.66 226.655 L2466.66 204.04 L2462.59 204.04 L2462.59 200.729 L2466.66 200.729 L2466.66 198.924 Q2466.66 194.595 2468.68 192.628 Q2470.69 190.637 2475.07 190.637 L2479.09 190.637 Z" fill="#000000" fill-rule="evenodd" fill-opacity="1" /><path clip-path="url(#clip510)" d="M2487.29 222.72 L2503.61 222.72 L2503.61 226.655 L2481.66 226.655 L2481.66 222.72 Q2484.32 219.965 2488.91 215.336 Q2493.51 210.683 2494.69 209.341 Q2496.94 206.817 2497.82 205.081 Q2498.72 203.322 2498.72 201.632 Q2498.72 198.878 2496.78 197.142 Q2494.86 195.405 2491.75 195.405 Q2489.56 195.405 2487.1 196.169 Q2484.67 196.933 2481.89 198.484 L2481.89 193.762 Q2484.72 192.628 2487.17 192.049 Q2489.63 191.47 2491.66 191.47 Q2497.03 191.47 2500.23 194.155 Q2503.42 196.841 2503.42 201.331 Q2503.42 203.461 2502.61 205.382 Q2501.82 207.28 2499.72 209.873 Q2499.14 210.544 2496.04 213.762 Q2492.94 216.956 2487.29 222.72 Z" fill="#000000" fill-rule="evenodd" fill-opacity="1" /><polyline clip-path="url(#clip510)" style="stroke:#3da44d; stroke-linecap:round; stroke-linejoin:round; stroke-width:4; stroke-opacity:1; fill:none" points="
  2271.91,261.215 2435.35,261.215 
  "/>
<path clip-path="url(#clip510)" d="M2479.09 242.477 L2479.09 246.019 L2475.02 246.019 Q2472.73 246.019 2471.82 246.945 Q2470.94 247.87 2470.94 250.278 L2470.94 252.569 L2477.96 252.569 L2477.96 255.88 L2470.94 255.88 L2470.94 278.495 L2466.66 278.495 L2466.66 255.88 L2462.59 255.88 L2462.59 252.569 L2466.66 252.569 L2466.66 250.764 Q2466.66 246.435 2468.68 244.468 Q2470.69 242.477 2475.07 242.477 L2479.09 242.477 Z" fill="#000000" fill-rule="evenodd" fill-opacity="1" /><path clip-path="url(#clip510)" d="M2497.43 259.861 Q2500.78 260.579 2502.66 262.847 Q2504.56 265.116 2504.56 268.449 Q2504.56 273.565 2501.04 276.366 Q2497.52 279.167 2491.04 279.167 Q2488.86 279.167 2486.55 278.727 Q2484.25 278.31 2481.8 277.454 L2481.8 272.94 Q2483.75 274.074 2486.06 274.653 Q2488.38 275.231 2490.9 275.231 Q2495.3 275.231 2497.59 273.495 Q2499.9 271.759 2499.9 268.449 Q2499.9 265.393 2497.75 263.681 Q2495.62 261.944 2491.8 261.944 L2487.77 261.944 L2487.77 258.102 L2491.99 258.102 Q2495.44 258.102 2497.26 256.736 Q2499.09 255.347 2499.09 252.755 Q2499.09 250.093 2497.19 248.681 Q2495.32 247.245 2491.8 247.245 Q2489.88 247.245 2487.68 247.662 Q2485.48 248.079 2482.84 248.958 L2482.84 244.792 Q2485.5 244.051 2487.82 243.681 Q2490.16 243.31 2492.22 243.31 Q2497.54 243.31 2500.64 245.741 Q2503.75 248.148 2503.75 252.269 Q2503.75 255.139 2502.1 257.13 Q2500.46 259.097 2497.43 259.861 Z" fill="#000000" fill-rule="evenodd" fill-opacity="1" /></svg>
