<?xml version="1.0" encoding="utf-8"?>
<svg xmlns="http://www.w3.org/2000/svg" xmlns:xlink="http://www.w3.org/1999/xlink" width="672" height="480" viewBox="0 0 2688 1920">
<defs>
  <clipPath id="clip820">
    <rect x="0" y="0" width="2688" height="1920"/>
  </clipPath>
</defs>
<path clip-path="url(#clip820)" d="
M0 1920 L2688 1920 L2688 0 L0 0  Z
  " fill="#ffffff" fill-rule="evenodd" fill-opacity="1"/>
<defs>
  <clipPath id="clip821">
    <rect x="537" y="0" width="1883" height="1883"/>
  </clipPath>
</defs>
<path clip-path="url(#clip820)" d="
M172.001 1800.78 L2640.76 1800.78 L2640.76 47.2441 L172.001 47.2441  Z
  " fill="#ffffff" fill-rule="evenodd" fill-opacity="1"/>
<defs>
  <clipPath id="clip822">
    <rect x="172" y="47" width="2470" height="1755"/>
  </clipPath>
</defs>
<polyline clip-path="url(#clip822)" style="stroke:#000000; stroke-linecap:butt; stroke-linejoin:round; stroke-width:2; stroke-opacity:0.1; fill:none" points="
  241.872,1800.78 241.872,47.2441 
  "/>
<polyline clip-path="url(#clip822)" style="stroke:#000000; stroke-linecap:butt; stroke-linejoin:round; stroke-width:2; stroke-opacity:0.1; fill:none" points="
  630.041,1800.78 630.041,47.2441 
  "/>
<polyline clip-path="url(#clip822)" style="stroke:#000000; stroke-linecap:butt; stroke-linejoin:round; stroke-width:2; stroke-opacity:0.1; fill:none" points="
  1018.21,1800.78 1018.21,47.2441 
  "/>
<polyline clip-path="url(#clip822)" style="stroke:#000000; stroke-linecap:butt; stroke-linejoin:round; stroke-width:2; stroke-opacity:0.1; fill:none" points="
  1406.38,1800.78 1406.38,47.2441 
  "/>
<polyline clip-path="url(#clip822)" style="stroke:#000000; stroke-linecap:butt; stroke-linejoin:round; stroke-width:2; stroke-opacity:0.1; fill:none" points="
  1794.55,1800.78 1794.55,47.2441 
  "/>
<polyline clip-path="url(#clip822)" style="stroke:#000000; stroke-linecap:butt; stroke-linejoin:round; stroke-width:2; stroke-opacity:0.1; fill:none" points="
  2182.72,1800.78 2182.72,47.2441 
  "/>
<polyline clip-path="url(#clip822)" style="stroke:#000000; stroke-linecap:butt; stroke-linejoin:round; stroke-width:2; stroke-opacity:0.1; fill:none" points="
  2570.89,1800.78 2570.89,47.2441 
  "/>
<polyline clip-path="url(#clip820)" style="stroke:#000000; stroke-linecap:butt; stroke-linejoin:round; stroke-width:4; stroke-opacity:1; fill:none" points="
  172.001,1800.78 2640.76,1800.78 
  "/>
<polyline clip-path="url(#clip820)" style="stroke:#000000; stroke-linecap:butt; stroke-linejoin:round; stroke-width:4; stroke-opacity:1; fill:none" points="
  241.872,1800.78 241.872,1781.88 
  "/>
<polyline clip-path="url(#clip820)" style="stroke:#000000; stroke-linecap:butt; stroke-linejoin:round; stroke-width:4; stroke-opacity:1; fill:none" points="
  630.041,1800.78 630.041,1781.88 
  "/>
<polyline clip-path="url(#clip820)" style="stroke:#000000; stroke-linecap:butt; stroke-linejoin:round; stroke-width:4; stroke-opacity:1; fill:none" points="
  1018.21,1800.78 1018.21,1781.88 
  "/>
<polyline clip-path="url(#clip820)" style="stroke:#000000; stroke-linecap:butt; stroke-linejoin:round; stroke-width:4; stroke-opacity:1; fill:none" points="
  1406.38,1800.78 1406.38,1781.88 
  "/>
<polyline clip-path="url(#clip820)" style="stroke:#000000; stroke-linecap:butt; stroke-linejoin:round; stroke-width:4; stroke-opacity:1; fill:none" points="
  1794.55,1800.78 1794.55,1781.88 
  "/>
<polyline clip-path="url(#clip820)" style="stroke:#000000; stroke-linecap:butt; stroke-linejoin:round; stroke-width:4; stroke-opacity:1; fill:none" points="
  2182.72,1800.78 2182.72,1781.88 
  "/>
<polyline clip-path="url(#clip820)" style="stroke:#000000; stroke-linecap:butt; stroke-linejoin:round; stroke-width:4; stroke-opacity:1; fill:none" points="
  2570.89,1800.78 2570.89,1781.88 
  "/>
<path clip-path="url(#clip820)" d="M211.814 1848.65 L241.49 1848.65 L241.49 1852.59 L211.814 1852.59 L211.814 1848.65 Z" fill="#000000" fill-rule="evenodd" fill-opacity="1" /><path clip-path="url(#clip820)" d="M255.61 1861.55 L271.929 1861.55 L271.929 1865.48 L249.985 1865.48 L249.985 1861.55 Q252.647 1858.79 257.23 1854.16 Q261.837 1849.51 263.017 1848.17 Q265.263 1845.65 266.142 1843.91 Q267.045 1842.15 267.045 1840.46 Q267.045 1837.71 265.101 1835.97 Q263.179 1834.23 260.078 1834.23 Q257.879 1834.23 255.425 1835 Q252.994 1835.76 250.217 1837.31 L250.217 1832.59 Q253.041 1831.46 255.494 1830.88 Q257.948 1830.3 259.985 1830.3 Q265.355 1830.3 268.55 1832.98 Q271.744 1835.67 271.744 1840.16 Q271.744 1842.29 270.934 1844.21 Q270.147 1846.11 268.041 1848.7 Q267.462 1849.37 264.36 1852.59 Q261.258 1855.78 255.61 1861.55 Z" fill="#000000" fill-rule="evenodd" fill-opacity="1" /><path clip-path="url(#clip820)" d="M599.798 1848.65 L629.474 1848.65 L629.474 1852.59 L599.798 1852.59 L599.798 1848.65 Z" fill="#000000" fill-rule="evenodd" fill-opacity="1" /><path clip-path="url(#clip820)" d="M640.376 1861.55 L648.015 1861.55 L648.015 1835.18 L639.705 1836.85 L639.705 1832.59 L647.969 1830.92 L652.645 1830.92 L652.645 1861.55 L660.284 1861.55 L660.284 1865.48 L640.376 1865.48 L640.376 1861.55 Z" fill="#000000" fill-rule="evenodd" fill-opacity="1" /><path clip-path="url(#clip820)" d="M1018.21 1834 Q1014.6 1834 1012.77 1837.57 Q1010.96 1841.11 1010.96 1848.24 Q1010.96 1855.34 1012.77 1858.91 Q1014.6 1862.45 1018.21 1862.45 Q1021.84 1862.45 1023.65 1858.91 Q1025.48 1855.34 1025.48 1848.24 Q1025.48 1841.11 1023.65 1837.57 Q1021.84 1834 1018.21 1834 M1018.21 1830.3 Q1024.02 1830.3 1027.08 1834.9 Q1030.15 1839.49 1030.15 1848.24 Q1030.15 1856.96 1027.08 1861.57 Q1024.02 1866.15 1018.21 1866.15 Q1012.4 1866.15 1009.32 1861.57 Q1006.27 1856.96 1006.27 1848.24 Q1006.27 1839.49 1009.32 1834.9 Q1012.4 1830.3 1018.21 1830.3 Z" fill="#000000" fill-rule="evenodd" fill-opacity="1" /><path clip-path="url(#clip820)" d="M1396.76 1861.55 L1404.4 1861.55 L1404.4 1835.18 L1396.09 1836.85 L1396.09 1832.59 L1404.35 1830.92 L1409.03 1830.92 L1409.03 1861.55 L1416.67 1861.55 L1416.67 1865.48 L1396.76 1865.48 L1396.76 1861.55 Z" fill="#000000" fill-rule="evenodd" fill-opacity="1" /><path clip-path="url(#clip820)" d="M1789.2 1861.55 L1805.52 1861.55 L1805.52 1865.48 L1783.58 1865.48 L1783.58 1861.55 Q1786.24 1858.79 1790.82 1854.16 Q1795.43 1849.51 1796.61 1848.17 Q1798.85 1845.65 1799.73 1843.91 Q1800.64 1842.15 1800.64 1840.46 Q1800.64 1837.71 1798.69 1835.97 Q1796.77 1834.23 1793.67 1834.23 Q1791.47 1834.23 1789.02 1835 Q1786.58 1835.76 1783.81 1837.31 L1783.81 1832.59 Q1786.63 1831.46 1789.08 1830.88 Q1791.54 1830.3 1793.58 1830.3 Q1798.95 1830.3 1802.14 1832.98 Q1805.33 1835.67 1805.33 1840.16 Q1805.33 1842.29 1804.52 1844.21 Q1803.74 1846.11 1801.63 1848.7 Q1801.05 1849.37 1797.95 1852.59 Q1794.85 1855.78 1789.2 1861.55 Z" fill="#000000" fill-rule="evenodd" fill-opacity="1" /><path clip-path="url(#clip820)" d="M2186.96 1846.85 Q2190.32 1847.57 2192.2 1849.84 Q2194.09 1852.1 2194.09 1855.44 Q2194.09 1860.55 2190.58 1863.35 Q2187.06 1866.15 2180.58 1866.15 Q2178.4 1866.15 2176.08 1865.71 Q2173.79 1865.3 2171.34 1864.44 L2171.34 1859.93 Q2173.28 1861.06 2175.6 1861.64 Q2177.91 1862.22 2180.44 1862.22 Q2184.83 1862.22 2187.13 1860.48 Q2189.44 1858.75 2189.44 1855.44 Q2189.44 1852.38 2187.29 1850.67 Q2185.16 1848.93 2181.34 1848.93 L2177.31 1848.93 L2177.31 1845.09 L2181.52 1845.09 Q2184.97 1845.09 2186.8 1843.72 Q2188.63 1842.34 2188.63 1839.74 Q2188.63 1837.08 2186.73 1835.67 Q2184.86 1834.23 2181.34 1834.23 Q2179.42 1834.23 2177.22 1834.65 Q2175.02 1835.07 2172.38 1835.95 L2172.38 1831.78 Q2175.04 1831.04 2177.36 1830.67 Q2179.7 1830.3 2181.76 1830.3 Q2187.08 1830.3 2190.18 1832.73 Q2193.28 1835.14 2193.28 1839.26 Q2193.28 1842.13 2191.64 1844.12 Q2190 1846.09 2186.96 1846.85 Z" fill="#000000" fill-rule="evenodd" fill-opacity="1" /><path clip-path="url(#clip820)" d="M2573.89 1835 L2562.09 1853.45 L2573.89 1853.45 L2573.89 1835 M2572.67 1830.92 L2578.55 1830.92 L2578.55 1853.45 L2583.48 1853.45 L2583.48 1857.34 L2578.55 1857.34 L2578.55 1865.48 L2573.89 1865.48 L2573.89 1857.34 L2558.29 1857.34 L2558.29 1852.82 L2572.67 1830.92 Z" fill="#000000" fill-rule="evenodd" fill-opacity="1" /><polyline clip-path="url(#clip822)" style="stroke:#000000; stroke-linecap:butt; stroke-linejoin:round; stroke-width:2; stroke-opacity:0.1; fill:none" points="
  172.001,1663.43 2640.76,1663.43 
  "/>
<polyline clip-path="url(#clip822)" style="stroke:#000000; stroke-linecap:butt; stroke-linejoin:round; stroke-width:2; stroke-opacity:0.1; fill:none" points="
  172.001,1337.06 2640.76,1337.06 
  "/>
<polyline clip-path="url(#clip822)" style="stroke:#000000; stroke-linecap:butt; stroke-linejoin:round; stroke-width:2; stroke-opacity:0.1; fill:none" points="
  172.001,1010.7 2640.76,1010.7 
  "/>
<polyline clip-path="url(#clip822)" style="stroke:#000000; stroke-linecap:butt; stroke-linejoin:round; stroke-width:2; stroke-opacity:0.1; fill:none" points="
  172.001,684.33 2640.76,684.33 
  "/>
<polyline clip-path="url(#clip822)" style="stroke:#000000; stroke-linecap:butt; stroke-linejoin:round; stroke-width:2; stroke-opacity:0.1; fill:none" points="
  172.001,357.965 2640.76,357.965 
  "/>
<polyline clip-path="url(#clip820)" style="stroke:#000000; stroke-linecap:butt; stroke-linejoin:round; stroke-width:4; stroke-opacity:1; fill:none" points="
  172.001,1800.78 172.001,47.2441 
  "/>
<polyline clip-path="url(#clip820)" style="stroke:#000000; stroke-linecap:butt; stroke-linejoin:round; stroke-width:4; stroke-opacity:1; fill:none" points="
  172.001,1663.43 190.899,1663.43 
  "/>
<polyline clip-path="url(#clip820)" style="stroke:#000000; stroke-linecap:butt; stroke-linejoin:round; stroke-width:4; stroke-opacity:1; fill:none" points="
  172.001,1337.06 190.899,1337.06 
  "/>
<polyline clip-path="url(#clip820)" style="stroke:#000000; stroke-linecap:butt; stroke-linejoin:round; stroke-width:4; stroke-opacity:1; fill:none" points="
  172.001,1010.7 190.899,1010.7 
  "/>
<polyline clip-path="url(#clip820)" style="stroke:#000000; stroke-linecap:butt; stroke-linejoin:round; stroke-width:4; stroke-opacity:1; fill:none" points="
  172.001,684.33 190.899,684.33 
  "/>
<polyline clip-path="url(#clip820)" style="stroke:#000000; stroke-linecap:butt; stroke-linejoin:round; stroke-width:4; stroke-opacity:1; fill:none" points="
  172.001,357.965 190.899,357.965 
  "/>
<path clip-path="url(#clip820)" d="M119.737 1649.23 Q116.126 1649.23 114.297 1652.79 Q112.492 1656.33 112.492 1663.46 Q112.492 1670.57 114.297 1674.13 Q116.126 1677.67 119.737 1677.67 Q123.371 1677.67 125.177 1674.13 Q127.005 1670.57 127.005 1663.46 Q127.005 1656.33 125.177 1652.79 Q123.371 1649.23 119.737 1649.23 M119.737 1645.52 Q125.547 1645.52 128.603 1650.13 Q131.681 1654.71 131.681 1663.46 Q131.681 1672.19 128.603 1676.8 Q125.547 1681.38 119.737 1681.38 Q113.927 1681.38 110.848 1676.8 Q107.793 1672.19 107.793 1663.46 Q107.793 1654.71 110.848 1650.13 Q113.927 1645.52 119.737 1645.52 Z" fill="#000000" fill-rule="evenodd" fill-opacity="1" /><path clip-path="url(#clip820)" d="M84.5982 1350.41 L100.918 1350.41 L100.918 1354.34 L78.9733 1354.34 L78.9733 1350.41 Q81.6353 1347.65 86.2186 1343.02 Q90.8251 1338.37 92.0056 1337.03 Q94.251 1334.5 95.1306 1332.77 Q96.0334 1331.01 96.0334 1329.32 Q96.0334 1326.56 94.0889 1324.83 Q92.1676 1323.09 89.0658 1323.09 Q86.8667 1323.09 84.4131 1323.86 Q81.9825 1324.62 79.2047 1326.17 L79.2047 1321.45 Q82.0288 1320.31 84.4825 1319.74 Q86.9362 1319.16 88.9732 1319.16 Q94.3436 1319.16 97.538 1321.84 Q100.732 1324.53 100.732 1329.02 Q100.732 1331.15 99.9222 1333.07 Q99.1352 1334.97 97.0287 1337.56 Q96.45 1338.23 93.3482 1341.45 Q90.2464 1344.64 84.5982 1350.41 Z" fill="#000000" fill-rule="evenodd" fill-opacity="1" /><path clip-path="url(#clip820)" d="M110.779 1319.78 L129.135 1319.78 L129.135 1323.72 L115.061 1323.72 L115.061 1332.19 Q116.08 1331.84 117.098 1331.68 Q118.117 1331.49 119.135 1331.49 Q124.922 1331.49 128.302 1334.67 Q131.681 1337.84 131.681 1343.25 Q131.681 1348.83 128.209 1351.93 Q124.737 1355.01 118.417 1355.01 Q116.242 1355.01 113.973 1354.64 Q111.728 1354.27 109.32 1353.53 L109.32 1348.83 Q111.404 1349.97 113.626 1350.52 Q115.848 1351.08 118.325 1351.08 Q122.33 1351.08 124.667 1348.97 Q127.005 1346.86 127.005 1343.25 Q127.005 1339.64 124.667 1337.54 Q122.33 1335.43 118.325 1335.43 Q116.45 1335.43 114.575 1335.85 Q112.723 1336.26 110.779 1337.14 L110.779 1319.78 Z" fill="#000000" fill-rule="evenodd" fill-opacity="1" /><path clip-path="url(#clip820)" d="M79.6214 993.416 L97.9778 993.416 L97.9778 997.351 L83.9038 997.351 L83.9038 1005.82 Q84.9223 1005.48 85.9408 1005.31 Q86.9593 1005.13 87.9778 1005.13 Q93.7649 1005.13 97.1445 1008.3 Q100.524 1011.47 100.524 1016.89 Q100.524 1022.47 97.0519 1025.57 Q93.5797 1028.65 87.2603 1028.65 Q85.0843 1028.65 82.8158 1028.28 Q80.5705 1027.91 78.1631 1027.17 L78.1631 1022.47 Q80.2464 1023.6 82.4686 1024.16 Q84.6908 1024.71 87.1677 1024.71 Q91.1723 1024.71 93.5102 1022.61 Q95.8482 1020.5 95.8482 1016.89 Q95.8482 1013.28 93.5102 1011.17 Q91.1723 1009.06 87.1677 1009.06 Q85.2927 1009.06 83.4177 1009.48 Q81.5658 1009.9 79.6214 1010.78 L79.6214 993.416 Z" fill="#000000" fill-rule="evenodd" fill-opacity="1" /><path clip-path="url(#clip820)" d="M119.737 996.495 Q116.126 996.495 114.297 1000.06 Q112.492 1003.6 112.492 1010.73 Q112.492 1017.84 114.297 1021.4 Q116.126 1024.94 119.737 1024.94 Q123.371 1024.94 125.177 1021.4 Q127.005 1017.84 127.005 1010.73 Q127.005 1003.6 125.177 1000.06 Q123.371 996.495 119.737 996.495 M119.737 992.791 Q125.547 992.791 128.603 997.398 Q131.681 1001.98 131.681 1010.73 Q131.681 1019.46 128.603 1024.06 Q125.547 1028.65 119.737 1028.65 Q113.927 1028.65 110.848 1024.06 Q107.793 1019.46 107.793 1010.73 Q107.793 1001.98 110.848 997.398 Q113.927 992.791 119.737 992.791 Z" fill="#000000" fill-rule="evenodd" fill-opacity="1" /><path clip-path="url(#clip820)" d="M79.3899 667.05 L101.612 667.05 L101.612 669.041 L89.0658 701.61 L84.1816 701.61 L95.9871 670.986 L79.3899 670.986 L79.3899 667.05 Z" fill="#000000" fill-rule="evenodd" fill-opacity="1" /><path clip-path="url(#clip820)" d="M110.779 667.05 L129.135 667.05 L129.135 670.986 L115.061 670.986 L115.061 679.458 Q116.08 679.111 117.098 678.949 Q118.117 678.763 119.135 678.763 Q124.922 678.763 128.302 681.935 Q131.681 685.106 131.681 690.523 Q131.681 696.101 128.209 699.203 Q124.737 702.282 118.417 702.282 Q116.242 702.282 113.973 701.911 Q111.728 701.541 109.32 700.8 L109.32 696.101 Q111.404 697.236 113.626 697.791 Q115.848 698.347 118.325 698.347 Q122.33 698.347 124.667 696.24 Q127.005 694.134 127.005 690.523 Q127.005 686.911 124.667 684.805 Q122.33 682.699 118.325 682.699 Q116.45 682.699 114.575 683.115 Q112.723 683.532 110.779 684.412 L110.779 667.05 Z" fill="#000000" fill-rule="evenodd" fill-opacity="1" /><path clip-path="url(#clip820)" d="M50.2234 371.31 L57.8623 371.31 L57.8623 344.944 L49.5521 346.611 L49.5521 342.352 L57.816 340.685 L62.4919 340.685 L62.4919 371.31 L70.1307 371.31 L70.1307 375.245 L50.2234 375.245 L50.2234 371.31 Z" fill="#000000" fill-rule="evenodd" fill-opacity="1" /><path clip-path="url(#clip820)" d="M89.5751 343.764 Q85.964 343.764 84.1353 347.328 Q82.3297 350.87 82.3297 358 Q82.3297 365.106 84.1353 368.671 Q85.964 372.213 89.5751 372.213 Q93.2093 372.213 95.0148 368.671 Q96.8435 365.106 96.8435 358 Q96.8435 350.87 95.0148 347.328 Q93.2093 343.764 89.5751 343.764 M89.5751 340.06 Q95.3852 340.06 98.4408 344.666 Q101.519 349.25 101.519 358 Q101.519 366.726 98.4408 371.333 Q95.3852 375.916 89.5751 375.916 Q83.7649 375.916 80.6862 371.333 Q77.6307 366.726 77.6307 358 Q77.6307 349.25 80.6862 344.666 Q83.7649 340.06 89.5751 340.06 Z" fill="#000000" fill-rule="evenodd" fill-opacity="1" /><path clip-path="url(#clip820)" d="M119.737 343.764 Q116.126 343.764 114.297 347.328 Q112.492 350.87 112.492 358 Q112.492 365.106 114.297 368.671 Q116.126 372.213 119.737 372.213 Q123.371 372.213 125.177 368.671 Q127.005 365.106 127.005 358 Q127.005 350.87 125.177 347.328 Q123.371 343.764 119.737 343.764 M119.737 340.06 Q125.547 340.06 128.603 344.666 Q131.681 349.25 131.681 358 Q131.681 366.726 128.603 371.333 Q125.547 375.916 119.737 375.916 Q113.927 375.916 110.848 371.333 Q107.793 366.726 107.793 358 Q107.793 349.25 110.848 344.666 Q113.927 340.06 119.737 340.06 Z" fill="#000000" fill-rule="evenodd" fill-opacity="1" /><polyline clip-path="url(#clip822)" style="stroke:#009af9; stroke-linecap:butt; stroke-linejoin:round; stroke-width:4; stroke-opacity:1; fill:none" points="
  241.872,566.839 245.663,575.238 249.453,583.608 253.244,591.947 257.035,600.257 292.086,675.677 327.137,748.542 362.189,818.852 397.24,886.607 439.369,964.663 
  481.498,1039.03 517.117,1099.02 552.736,1156.38 591.429,1215.7 630.121,1271.9 665.793,1320.96 701.464,1367.37 739.707,1414.19 777.95,1457.97 822.259,1504.88 
  866.567,1547.72 905.943,1582.36 945.319,1613.78 979.849,1638.68 1014.38,1661.09 1052.02,1682.71 1089.67,1701.38 1127.54,1717.18 1165.41,1730.01 1207.28,1740.72 
  1249.15,1747.78 1288.99,1751.12 1328.83,1751.15 1370.25,1747.69 1411.67,1740.66 1446.54,1731.97 1481.41,1720.76 1523.98,1703.64 1566.55,1682.76 1605.55,1660.32 
  1644.55,1634.72 1680.57,1608.26 1716.58,1579.11 1753.07,1546.83 1789.55,1511.78 1830.44,1469.22 1871.33,1423.17 1908.38,1378.44 1945.44,1330.86 1987.86,1272.88 
  2030.28,1211.16 2069.56,1150.67 2108.84,1086.97 2147.56,1021.03 2186.29,951.978 2223.89,881.947 2261.48,808.977 2300.03,731.121 2338.57,650.177 2380.8,557.947 
  2423.03,462.008 2453.7,390.001 2484.37,316.037 2515.04,240.116 2545.72,162.24 2552.01,146.022 2558.3,129.721 2564.59,113.338 2570.89,96.8724 
  "/>
<path clip-path="url(#clip820)" d="
M2231.73 209.375 L2558.46 209.375 L2558.46 105.695 L2231.73 105.695  Z
  " fill="#ffffff" fill-rule="evenodd" fill-opacity="1"/>
<polyline clip-path="url(#clip820)" style="stroke:#000000; stroke-linecap:butt; stroke-linejoin:round; stroke-width:4; stroke-opacity:1; fill:none" points="
  2231.73,209.375 2558.46,209.375 2558.46,105.695 2231.73,105.695 2231.73,209.375 
  "/>
<polyline clip-path="url(#clip820)" style="stroke:#009af9; stroke-linecap:butt; stroke-linejoin:round; stroke-width:4; stroke-opacity:1; fill:none" points="
  2259.16,157.535 2423.74,157.535 
  "/>
<path clip-path="url(#clip820)" d="M2465.02 177.223 Q2463.21 181.852 2461.5 183.264 Q2459.78 184.676 2456.91 184.676 L2453.51 184.676 L2453.51 181.112 L2456.01 181.112 Q2457.77 181.112 2458.74 180.278 Q2459.71 179.445 2460.89 176.343 L2461.66 174.399 L2451.17 148.889 L2455.69 148.889 L2463.79 169.167 L2471.89 148.889 L2476.4 148.889 L2465.02 177.223 Z" fill="#000000" fill-rule="evenodd" fill-opacity="1" /><path clip-path="url(#clip820)" d="M2483.7 170.88 L2491.33 170.88 L2491.33 144.515 L2483.02 146.181 L2483.02 141.922 L2491.29 140.255 L2495.96 140.255 L2495.96 170.88 L2503.6 170.88 L2503.6 174.815 L2483.7 174.815 L2483.7 170.88 Z" fill="#000000" fill-rule="evenodd" fill-opacity="1" /></svg>
