<?xml version="1.0" encoding="utf-8"?>
<svg xmlns="http://www.w3.org/2000/svg" xmlns:xlink="http://www.w3.org/1999/xlink" width="672" height="480" viewBox="0 0 2688 1920">
<defs>
  <clipPath id="clip190">
    <rect x="0" y="0" width="2688" height="1920"/>
  </clipPath>
</defs>
<path clip-path="url(#clip190)" d="
M0 1920 L2688 1920 L2688 0 L0 0  Z
  " fill="#ffffff" fill-rule="evenodd" fill-opacity="1"/>
<defs>
  <clipPath id="clip191">
    <rect x="537" y="0" width="1883" height="1883"/>
  </clipPath>
</defs>
<path clip-path="url(#clip190)" d="
M226.978 1800.78 L2640.76 1800.78 L2640.76 47.2441 L226.978 47.2441  Z
  " fill="#ffffff" fill-rule="evenodd" fill-opacity="1"/>
<defs>
  <clipPath id="clip192">
    <rect x="226" y="47" width="2415" height="1755"/>
  </clipPath>
</defs>
<polyline clip-path="url(#clip192)" style="stroke:#000000; stroke-linecap:round; stroke-linejoin:round; stroke-width:2; stroke-opacity:0.1; fill:none" points="
  295.292,1800.78 295.292,47.2441 
  "/>
<polyline clip-path="url(#clip192)" style="stroke:#000000; stroke-linecap:round; stroke-linejoin:round; stroke-width:2; stroke-opacity:0.1; fill:none" points="
  864.58,1800.78 864.58,47.2441 
  "/>
<polyline clip-path="url(#clip192)" style="stroke:#000000; stroke-linecap:round; stroke-linejoin:round; stroke-width:2; stroke-opacity:0.1; fill:none" points="
  1433.87,1800.78 1433.87,47.2441 
  "/>
<polyline clip-path="url(#clip192)" style="stroke:#000000; stroke-linecap:round; stroke-linejoin:round; stroke-width:2; stroke-opacity:0.1; fill:none" points="
  2003.15,1800.78 2003.15,47.2441 
  "/>
<polyline clip-path="url(#clip192)" style="stroke:#000000; stroke-linecap:round; stroke-linejoin:round; stroke-width:2; stroke-opacity:0.1; fill:none" points="
  2572.44,1800.78 2572.44,47.2441 
  "/>
<polyline clip-path="url(#clip190)" style="stroke:#000000; stroke-linecap:round; stroke-linejoin:round; stroke-width:4; stroke-opacity:1; fill:none" points="
  226.978,1800.78 2640.76,1800.78 
  "/>
<polyline clip-path="url(#clip190)" style="stroke:#000000; stroke-linecap:round; stroke-linejoin:round; stroke-width:4; stroke-opacity:1; fill:none" points="
  295.292,1800.78 295.292,1781.88 
  "/>
<polyline clip-path="url(#clip190)" style="stroke:#000000; stroke-linecap:round; stroke-linejoin:round; stroke-width:4; stroke-opacity:1; fill:none" points="
  864.58,1800.78 864.58,1781.88 
  "/>
<polyline clip-path="url(#clip190)" style="stroke:#000000; stroke-linecap:round; stroke-linejoin:round; stroke-width:4; stroke-opacity:1; fill:none" points="
  1433.87,1800.78 1433.87,1781.88 
  "/>
<polyline clip-path="url(#clip190)" style="stroke:#000000; stroke-linecap:round; stroke-linejoin:round; stroke-width:4; stroke-opacity:1; fill:none" points="
  2003.15,1800.78 2003.15,1781.88 
  "/>
<polyline clip-path="url(#clip190)" style="stroke:#000000; stroke-linecap:round; stroke-linejoin:round; stroke-width:4; stroke-opacity:1; fill:none" points="
  2572.44,1800.78 2572.44,1781.88 
  "/>
<path clip-path="url(#clip190)" d="M241.82 1848.65 L271.496 1848.65 L271.496 1852.59 L241.82 1852.59 L241.82 1848.65 Z" fill="#000000" fill-rule="evenodd" fill-opacity="1" /><path clip-path="url(#clip190)" d="M281.635 1830.92 L299.991 1830.92 L299.991 1834.86 L285.917 1834.86 L285.917 1843.33 Q286.936 1842.98 287.954 1842.82 Q288.973 1842.64 289.991 1842.64 Q295.778 1842.64 299.158 1845.81 Q302.538 1848.98 302.538 1854.4 Q302.538 1859.97 299.065 1863.08 Q295.593 1866.15 289.274 1866.15 Q287.098 1866.15 284.829 1865.78 Q282.584 1865.41 280.177 1864.67 L280.177 1859.97 Q282.26 1861.11 284.482 1861.66 Q286.704 1862.22 289.181 1862.22 Q293.186 1862.22 295.524 1860.11 Q297.862 1858.01 297.862 1854.4 Q297.862 1850.78 295.524 1848.68 Q293.186 1846.57 289.181 1846.57 Q287.306 1846.57 285.431 1846.99 Q283.579 1847.4 281.635 1848.28 L281.635 1830.92 Z" fill="#000000" fill-rule="evenodd" fill-opacity="1" /><path clip-path="url(#clip190)" d="M311.751 1859.6 L316.635 1859.6 L316.635 1865.48 L311.751 1865.48 L311.751 1859.6 Z" fill="#000000" fill-rule="evenodd" fill-opacity="1" /><path clip-path="url(#clip190)" d="M336.82 1834 Q333.209 1834 331.38 1837.57 Q329.575 1841.11 329.575 1848.24 Q329.575 1855.34 331.38 1858.91 Q333.209 1862.45 336.82 1862.45 Q340.454 1862.45 342.26 1858.91 Q344.088 1855.34 344.088 1848.24 Q344.088 1841.11 342.26 1837.57 Q340.454 1834 336.82 1834 M336.82 1830.3 Q342.63 1830.3 345.686 1834.9 Q348.764 1839.49 348.764 1848.24 Q348.764 1856.96 345.686 1861.57 Q342.63 1866.15 336.82 1866.15 Q331.01 1866.15 327.931 1861.57 Q324.876 1856.96 324.876 1848.24 Q324.876 1839.49 327.931 1834.9 Q331.01 1830.3 336.82 1830.3 Z" fill="#000000" fill-rule="evenodd" fill-opacity="1" /><path clip-path="url(#clip190)" d="M811.605 1848.65 L841.281 1848.65 L841.281 1852.59 L811.605 1852.59 L811.605 1848.65 Z" fill="#000000" fill-rule="evenodd" fill-opacity="1" /><path clip-path="url(#clip190)" d="M864.221 1835 L852.415 1853.45 L864.221 1853.45 L864.221 1835 M862.994 1830.92 L868.874 1830.92 L868.874 1853.45 L873.804 1853.45 L873.804 1857.34 L868.874 1857.34 L868.874 1865.48 L864.221 1865.48 L864.221 1857.34 L848.619 1857.34 L848.619 1852.82 L862.994 1830.92 Z" fill="#000000" fill-rule="evenodd" fill-opacity="1" /><path clip-path="url(#clip190)" d="M881.536 1859.6 L886.42 1859.6 L886.42 1865.48 L881.536 1865.48 L881.536 1859.6 Z" fill="#000000" fill-rule="evenodd" fill-opacity="1" /><path clip-path="url(#clip190)" d="M896.651 1830.92 L915.008 1830.92 L915.008 1834.86 L900.934 1834.86 L900.934 1843.33 Q901.952 1842.98 902.971 1842.82 Q903.989 1842.64 905.008 1842.64 Q910.795 1842.64 914.174 1845.81 Q917.554 1848.98 917.554 1854.4 Q917.554 1859.97 914.082 1863.08 Q910.609 1866.15 904.29 1866.15 Q902.114 1866.15 899.846 1865.78 Q897.6 1865.41 895.193 1864.67 L895.193 1859.97 Q897.276 1861.11 899.498 1861.66 Q901.721 1862.22 904.197 1862.22 Q908.202 1862.22 910.54 1860.11 Q912.878 1858.01 912.878 1854.4 Q912.878 1850.78 910.54 1848.68 Q908.202 1846.57 904.197 1846.57 Q902.322 1846.57 900.447 1846.99 Q898.596 1847.4 896.651 1848.28 L896.651 1830.92 Z" fill="#000000" fill-rule="evenodd" fill-opacity="1" /><path clip-path="url(#clip190)" d="M1380.39 1848.65 L1410.07 1848.65 L1410.07 1852.59 L1380.39 1852.59 L1380.39 1848.65 Z" fill="#000000" fill-rule="evenodd" fill-opacity="1" /><path clip-path="url(#clip190)" d="M1433.01 1835 L1421.2 1853.45 L1433.01 1853.45 L1433.01 1835 M1431.78 1830.92 L1437.66 1830.92 L1437.66 1853.45 L1442.59 1853.45 L1442.59 1857.34 L1437.66 1857.34 L1437.66 1865.48 L1433.01 1865.48 L1433.01 1857.34 L1417.41 1857.34 L1417.41 1852.82 L1431.78 1830.92 Z" fill="#000000" fill-rule="evenodd" fill-opacity="1" /><path clip-path="url(#clip190)" d="M1450.33 1859.6 L1455.21 1859.6 L1455.21 1865.48 L1450.33 1865.48 L1450.33 1859.6 Z" fill="#000000" fill-rule="evenodd" fill-opacity="1" /><path clip-path="url(#clip190)" d="M1475.39 1834 Q1471.78 1834 1469.95 1837.57 Q1468.15 1841.11 1468.15 1848.24 Q1468.15 1855.34 1469.95 1858.91 Q1471.78 1862.45 1475.39 1862.45 Q1479.03 1862.45 1480.83 1858.91 Q1482.66 1855.34 1482.66 1848.24 Q1482.66 1841.11 1480.83 1837.57 Q1479.03 1834 1475.39 1834 M1475.39 1830.3 Q1481.2 1830.3 1484.26 1834.9 Q1487.34 1839.49 1487.34 1848.24 Q1487.34 1856.96 1484.26 1861.57 Q1481.2 1866.15 1475.39 1866.15 Q1469.58 1866.15 1466.51 1861.57 Q1463.45 1856.96 1463.45 1848.24 Q1463.45 1839.49 1466.51 1834.9 Q1469.58 1830.3 1475.39 1830.3 Z" fill="#000000" fill-rule="evenodd" fill-opacity="1" /><path clip-path="url(#clip190)" d="M1950.18 1848.65 L1979.86 1848.65 L1979.86 1852.59 L1950.18 1852.59 L1950.18 1848.65 Z" fill="#000000" fill-rule="evenodd" fill-opacity="1" /><path clip-path="url(#clip190)" d="M2004.11 1846.85 Q2007.47 1847.57 2009.35 1849.84 Q2011.24 1852.1 2011.24 1855.44 Q2011.24 1860.55 2007.73 1863.35 Q2004.21 1866.15 1997.73 1866.15 Q1995.55 1866.15 1993.24 1865.71 Q1990.94 1865.3 1988.49 1864.44 L1988.49 1859.93 Q1990.43 1861.06 1992.75 1861.64 Q1995.06 1862.22 1997.59 1862.22 Q2001.99 1862.22 2004.28 1860.48 Q2006.59 1858.75 2006.59 1855.44 Q2006.59 1852.38 2004.44 1850.67 Q2002.31 1848.93 1998.49 1848.93 L1994.46 1848.93 L1994.46 1845.09 L1998.68 1845.09 Q2002.12 1845.09 2003.95 1843.72 Q2005.78 1842.34 2005.78 1839.74 Q2005.78 1837.08 2003.88 1835.67 Q2002.01 1834.23 1998.49 1834.23 Q1996.57 1834.23 1994.37 1834.65 Q1992.17 1835.07 1989.53 1835.95 L1989.53 1831.78 Q1992.19 1831.04 1994.51 1830.67 Q1996.85 1830.3 1998.91 1830.3 Q2004.23 1830.3 2007.33 1832.73 Q2010.43 1835.14 2010.43 1839.26 Q2010.43 1842.13 2008.79 1844.12 Q2007.15 1846.09 2004.11 1846.85 Z" fill="#000000" fill-rule="evenodd" fill-opacity="1" /><path clip-path="url(#clip190)" d="M2020.11 1859.6 L2024.99 1859.6 L2024.99 1865.48 L2020.11 1865.48 L2020.11 1859.6 Z" fill="#000000" fill-rule="evenodd" fill-opacity="1" /><path clip-path="url(#clip190)" d="M2035.23 1830.92 L2053.58 1830.92 L2053.58 1834.86 L2039.51 1834.86 L2039.51 1843.33 Q2040.53 1842.98 2041.55 1842.82 Q2042.56 1842.64 2043.58 1842.64 Q2049.37 1842.64 2052.75 1845.81 Q2056.13 1848.98 2056.13 1854.4 Q2056.13 1859.97 2052.66 1863.08 Q2049.18 1866.15 2042.86 1866.15 Q2040.69 1866.15 2038.42 1865.78 Q2036.17 1865.41 2033.77 1864.67 L2033.77 1859.97 Q2035.85 1861.11 2038.07 1861.66 Q2040.3 1862.22 2042.77 1862.22 Q2046.78 1862.22 2049.11 1860.11 Q2051.45 1858.01 2051.45 1854.4 Q2051.45 1850.78 2049.11 1848.68 Q2046.78 1846.57 2042.77 1846.57 Q2040.9 1846.57 2039.02 1846.99 Q2037.17 1847.4 2035.23 1848.28 L2035.23 1830.92 Z" fill="#000000" fill-rule="evenodd" fill-opacity="1" /><path clip-path="url(#clip190)" d="M2518.97 1848.65 L2548.65 1848.65 L2548.65 1852.59 L2518.97 1852.59 L2518.97 1848.65 Z" fill="#000000" fill-rule="evenodd" fill-opacity="1" /><path clip-path="url(#clip190)" d="M2572.9 1846.85 Q2576.26 1847.57 2578.14 1849.84 Q2580.03 1852.1 2580.03 1855.44 Q2580.03 1860.55 2576.52 1863.35 Q2573 1866.15 2566.52 1866.15 Q2564.34 1866.15 2562.02 1865.71 Q2559.73 1865.3 2557.28 1864.44 L2557.28 1859.93 Q2559.22 1861.06 2561.54 1861.64 Q2563.85 1862.22 2566.38 1862.22 Q2570.77 1862.22 2573.07 1860.48 Q2575.38 1858.75 2575.38 1855.44 Q2575.38 1852.38 2573.23 1850.67 Q2571.1 1848.93 2567.28 1848.93 L2563.25 1848.93 L2563.25 1845.09 L2567.46 1845.09 Q2570.91 1845.09 2572.74 1843.72 Q2574.57 1842.34 2574.57 1839.74 Q2574.57 1837.08 2572.67 1835.67 Q2570.8 1834.23 2567.28 1834.23 Q2565.36 1834.23 2563.16 1834.65 Q2560.96 1835.07 2558.32 1835.95 L2558.32 1831.78 Q2560.98 1831.04 2563.3 1830.67 Q2565.64 1830.3 2567.7 1830.3 Q2573.02 1830.3 2576.12 1832.73 Q2579.22 1835.14 2579.22 1839.26 Q2579.22 1842.13 2577.58 1844.12 Q2575.94 1846.09 2572.9 1846.85 Z" fill="#000000" fill-rule="evenodd" fill-opacity="1" /><path clip-path="url(#clip190)" d="M2588.9 1859.6 L2593.78 1859.6 L2593.78 1865.48 L2588.9 1865.48 L2588.9 1859.6 Z" fill="#000000" fill-rule="evenodd" fill-opacity="1" /><path clip-path="url(#clip190)" d="M2613.97 1834 Q2610.36 1834 2608.53 1837.57 Q2606.72 1841.11 2606.72 1848.24 Q2606.72 1855.34 2608.53 1858.91 Q2610.36 1862.45 2613.97 1862.45 Q2617.6 1862.45 2619.41 1858.91 Q2621.24 1855.34 2621.24 1848.24 Q2621.24 1841.11 2619.41 1837.57 Q2617.6 1834 2613.97 1834 M2613.97 1830.3 Q2619.78 1830.3 2622.83 1834.9 Q2625.91 1839.49 2625.91 1848.24 Q2625.91 1856.96 2622.83 1861.57 Q2619.78 1866.15 2613.97 1866.15 Q2608.16 1866.15 2605.08 1861.57 Q2602.02 1856.96 2602.02 1848.24 Q2602.02 1839.49 2605.08 1834.9 Q2608.16 1830.3 2613.97 1830.3 Z" fill="#000000" fill-rule="evenodd" fill-opacity="1" /><polyline clip-path="url(#clip192)" style="stroke:#000000; stroke-linecap:round; stroke-linejoin:round; stroke-width:2; stroke-opacity:0.1; fill:none" points="
  226.978,1626.84 2640.76,1626.84 
  "/>
<polyline clip-path="url(#clip192)" style="stroke:#000000; stroke-linecap:round; stroke-linejoin:round; stroke-width:2; stroke-opacity:0.1; fill:none" points="
  226.978,1391.45 2640.76,1391.45 
  "/>
<polyline clip-path="url(#clip192)" style="stroke:#000000; stroke-linecap:round; stroke-linejoin:round; stroke-width:2; stroke-opacity:0.1; fill:none" points="
  226.978,1156.06 2640.76,1156.06 
  "/>
<polyline clip-path="url(#clip192)" style="stroke:#000000; stroke-linecap:round; stroke-linejoin:round; stroke-width:2; stroke-opacity:0.1; fill:none" points="
  226.978,920.664 2640.76,920.664 
  "/>
<polyline clip-path="url(#clip192)" style="stroke:#000000; stroke-linecap:round; stroke-linejoin:round; stroke-width:2; stroke-opacity:0.1; fill:none" points="
  226.978,685.273 2640.76,685.273 
  "/>
<polyline clip-path="url(#clip192)" style="stroke:#000000; stroke-linecap:round; stroke-linejoin:round; stroke-width:2; stroke-opacity:0.1; fill:none" points="
  226.978,449.882 2640.76,449.882 
  "/>
<polyline clip-path="url(#clip192)" style="stroke:#000000; stroke-linecap:round; stroke-linejoin:round; stroke-width:2; stroke-opacity:0.1; fill:none" points="
  226.978,214.49 2640.76,214.49 
  "/>
<polyline clip-path="url(#clip190)" style="stroke:#000000; stroke-linecap:round; stroke-linejoin:round; stroke-width:4; stroke-opacity:1; fill:none" points="
  226.978,1800.78 226.978,47.2441 
  "/>
<polyline clip-path="url(#clip190)" style="stroke:#000000; stroke-linecap:round; stroke-linejoin:round; stroke-width:4; stroke-opacity:1; fill:none" points="
  226.978,1626.84 245.876,1626.84 
  "/>
<polyline clip-path="url(#clip190)" style="stroke:#000000; stroke-linecap:round; stroke-linejoin:round; stroke-width:4; stroke-opacity:1; fill:none" points="
  226.978,1391.45 245.876,1391.45 
  "/>
<polyline clip-path="url(#clip190)" style="stroke:#000000; stroke-linecap:round; stroke-linejoin:round; stroke-width:4; stroke-opacity:1; fill:none" points="
  226.978,1156.06 245.876,1156.06 
  "/>
<polyline clip-path="url(#clip190)" style="stroke:#000000; stroke-linecap:round; stroke-linejoin:round; stroke-width:4; stroke-opacity:1; fill:none" points="
  226.978,920.664 245.876,920.664 
  "/>
<polyline clip-path="url(#clip190)" style="stroke:#000000; stroke-linecap:round; stroke-linejoin:round; stroke-width:4; stroke-opacity:1; fill:none" points="
  226.978,685.273 245.876,685.273 
  "/>
<polyline clip-path="url(#clip190)" style="stroke:#000000; stroke-linecap:round; stroke-linejoin:round; stroke-width:4; stroke-opacity:1; fill:none" points="
  226.978,449.882 245.876,449.882 
  "/>
<polyline clip-path="url(#clip190)" style="stroke:#000000; stroke-linecap:round; stroke-linejoin:round; stroke-width:4; stroke-opacity:1; fill:none" points="
  226.978,214.49 245.876,214.49 
  "/>
<path clip-path="url(#clip190)" d="M50.5475 1627.29 L80.2233 1627.29 L80.2233 1631.22 L50.5475 1631.22 L50.5475 1627.29 Z" fill="#000000" fill-rule="evenodd" fill-opacity="1" /><path clip-path="url(#clip190)" d="M100.316 1612.64 Q96.7047 1612.64 94.876 1616.2 Q93.0704 1619.74 93.0704 1626.87 Q93.0704 1633.98 94.876 1637.54 Q96.7047 1641.09 100.316 1641.09 Q103.95 1641.09 105.756 1637.54 Q107.584 1633.98 107.584 1626.87 Q107.584 1619.74 105.756 1616.2 Q103.95 1612.64 100.316 1612.64 M100.316 1608.93 Q106.126 1608.93 109.181 1613.54 Q112.26 1618.12 112.26 1626.87 Q112.26 1635.6 109.181 1640.21 Q106.126 1644.79 100.316 1644.79 Q94.5056 1644.79 91.4269 1640.21 Q88.3714 1635.6 88.3714 1626.87 Q88.3714 1618.12 91.4269 1613.54 Q94.5056 1608.93 100.316 1608.93 Z" fill="#000000" fill-rule="evenodd" fill-opacity="1" /><path clip-path="url(#clip190)" d="M120.478 1638.24 L125.362 1638.24 L125.362 1644.12 L120.478 1644.12 L120.478 1638.24 Z" fill="#000000" fill-rule="evenodd" fill-opacity="1" /><path clip-path="url(#clip190)" d="M136.357 1640.18 L143.996 1640.18 L143.996 1613.82 L135.686 1615.48 L135.686 1611.22 L143.95 1609.56 L148.626 1609.56 L148.626 1640.18 L156.265 1640.18 L156.265 1644.12 L136.357 1644.12 L136.357 1640.18 Z" fill="#000000" fill-rule="evenodd" fill-opacity="1" /><path clip-path="url(#clip190)" d="M165.755 1609.56 L184.112 1609.56 L184.112 1613.49 L170.038 1613.49 L170.038 1621.97 Q171.056 1621.62 172.075 1621.46 Q173.093 1621.27 174.112 1621.27 Q179.899 1621.27 183.278 1624.44 Q186.658 1627.61 186.658 1633.03 Q186.658 1638.61 183.186 1641.71 Q179.713 1644.79 173.394 1644.79 Q171.218 1644.79 168.95 1644.42 Q166.704 1644.05 164.297 1643.31 L164.297 1638.61 Q166.38 1639.74 168.602 1640.3 Q170.825 1640.85 173.301 1640.85 Q177.306 1640.85 179.644 1638.75 Q181.982 1636.64 181.982 1633.03 Q181.982 1629.42 179.644 1627.31 Q177.306 1625.21 173.301 1625.21 Q171.426 1625.21 169.551 1625.62 Q167.7 1626.04 165.755 1626.92 L165.755 1609.56 Z" fill="#000000" fill-rule="evenodd" fill-opacity="1" /><path clip-path="url(#clip190)" d="M49.5521 1391.9 L79.2279 1391.9 L79.2279 1395.83 L49.5521 1395.83 L49.5521 1391.9 Z" fill="#000000" fill-rule="evenodd" fill-opacity="1" /><path clip-path="url(#clip190)" d="M99.3204 1377.25 Q95.7093 1377.25 93.8806 1380.81 Q92.075 1384.35 92.075 1391.48 Q92.075 1398.59 93.8806 1402.15 Q95.7093 1405.69 99.3204 1405.69 Q102.955 1405.69 104.76 1402.15 Q106.589 1398.59 106.589 1391.48 Q106.589 1384.35 104.76 1380.81 Q102.955 1377.25 99.3204 1377.25 M99.3204 1373.54 Q105.131 1373.54 108.186 1378.15 Q111.265 1382.73 111.265 1391.48 Q111.265 1400.21 108.186 1404.81 Q105.131 1409.4 99.3204 1409.4 Q93.5102 1409.4 90.4315 1404.81 Q87.376 1400.21 87.376 1391.48 Q87.376 1382.73 90.4315 1378.15 Q93.5102 1373.54 99.3204 1373.54 Z" fill="#000000" fill-rule="evenodd" fill-opacity="1" /><path clip-path="url(#clip190)" d="M119.482 1402.85 L124.367 1402.85 L124.367 1408.73 L119.482 1408.73 L119.482 1402.85 Z" fill="#000000" fill-rule="evenodd" fill-opacity="1" /><path clip-path="url(#clip190)" d="M135.362 1404.79 L143.001 1404.79 L143.001 1378.43 L134.691 1380.09 L134.691 1375.83 L142.954 1374.17 L147.63 1374.17 L147.63 1404.79 L155.269 1404.79 L155.269 1408.73 L135.362 1408.73 L135.362 1404.79 Z" fill="#000000" fill-rule="evenodd" fill-opacity="1" /><path clip-path="url(#clip190)" d="M174.713 1377.25 Q171.102 1377.25 169.274 1380.81 Q167.468 1384.35 167.468 1391.48 Q167.468 1398.59 169.274 1402.15 Q171.102 1405.69 174.713 1405.69 Q178.348 1405.69 180.153 1402.15 Q181.982 1398.59 181.982 1391.48 Q181.982 1384.35 180.153 1380.81 Q178.348 1377.25 174.713 1377.25 M174.713 1373.54 Q180.524 1373.54 183.579 1378.15 Q186.658 1382.73 186.658 1391.48 Q186.658 1400.21 183.579 1404.81 Q180.524 1409.4 174.713 1409.4 Q168.903 1409.4 165.825 1404.81 Q162.769 1400.21 162.769 1391.48 Q162.769 1382.73 165.825 1378.15 Q168.903 1373.54 174.713 1373.54 Z" fill="#000000" fill-rule="evenodd" fill-opacity="1" /><path clip-path="url(#clip190)" d="M50.5475 1156.51 L80.2233 1156.51 L80.2233 1160.44 L50.5475 1160.44 L50.5475 1156.51 Z" fill="#000000" fill-rule="evenodd" fill-opacity="1" /><path clip-path="url(#clip190)" d="M100.316 1141.85 Q96.7047 1141.85 94.876 1145.42 Q93.0704 1148.96 93.0704 1156.09 Q93.0704 1163.2 94.876 1166.76 Q96.7047 1170.3 100.316 1170.3 Q103.95 1170.3 105.756 1166.76 Q107.584 1163.2 107.584 1156.09 Q107.584 1148.96 105.756 1145.42 Q103.95 1141.85 100.316 1141.85 M100.316 1138.15 Q106.126 1138.15 109.181 1142.76 Q112.26 1147.34 112.26 1156.09 Q112.26 1164.82 109.181 1169.42 Q106.126 1174.01 100.316 1174.01 Q94.5056 1174.01 91.4269 1169.42 Q88.3714 1164.82 88.3714 1156.09 Q88.3714 1147.34 91.4269 1142.76 Q94.5056 1138.15 100.316 1138.15 Z" fill="#000000" fill-rule="evenodd" fill-opacity="1" /><path clip-path="url(#clip190)" d="M120.478 1167.46 L125.362 1167.46 L125.362 1173.34 L120.478 1173.34 L120.478 1167.46 Z" fill="#000000" fill-rule="evenodd" fill-opacity="1" /><path clip-path="url(#clip190)" d="M145.547 1141.85 Q141.936 1141.85 140.107 1145.42 Q138.302 1148.96 138.302 1156.09 Q138.302 1163.2 140.107 1166.76 Q141.936 1170.3 145.547 1170.3 Q149.181 1170.3 150.987 1166.76 Q152.815 1163.2 152.815 1156.09 Q152.815 1148.96 150.987 1145.42 Q149.181 1141.85 145.547 1141.85 M145.547 1138.15 Q151.357 1138.15 154.413 1142.76 Q157.491 1147.34 157.491 1156.09 Q157.491 1164.82 154.413 1169.42 Q151.357 1174.01 145.547 1174.01 Q139.737 1174.01 136.658 1169.42 Q133.603 1164.82 133.603 1156.09 Q133.603 1147.34 136.658 1142.76 Q139.737 1138.15 145.547 1138.15 Z" fill="#000000" fill-rule="evenodd" fill-opacity="1" /><path clip-path="url(#clip190)" d="M165.755 1138.78 L184.112 1138.78 L184.112 1142.71 L170.038 1142.71 L170.038 1151.18 Q171.056 1150.84 172.075 1150.67 Q173.093 1150.49 174.112 1150.49 Q179.899 1150.49 183.278 1153.66 Q186.658 1156.83 186.658 1162.25 Q186.658 1167.83 183.186 1170.93 Q179.713 1174.01 173.394 1174.01 Q171.218 1174.01 168.95 1173.64 Q166.704 1173.27 164.297 1172.53 L164.297 1167.83 Q166.38 1168.96 168.602 1169.52 Q170.825 1170.07 173.301 1170.07 Q177.306 1170.07 179.644 1167.96 Q181.982 1165.86 181.982 1162.25 Q181.982 1158.64 179.644 1156.53 Q177.306 1154.42 173.301 1154.42 Q171.426 1154.42 169.551 1154.84 Q167.7 1155.26 165.755 1156.14 L165.755 1138.78 Z" fill="#000000" fill-rule="evenodd" fill-opacity="1" /><path clip-path="url(#clip190)" d="M99.3204 906.463 Q95.7093 906.463 93.8806 910.028 Q92.075 913.569 92.075 920.699 Q92.075 927.805 93.8806 931.37 Q95.7093 934.912 99.3204 934.912 Q102.955 934.912 104.76 931.37 Q106.589 927.805 106.589 920.699 Q106.589 913.569 104.76 910.028 Q102.955 906.463 99.3204 906.463 M99.3204 902.759 Q105.131 902.759 108.186 907.365 Q111.265 911.949 111.265 920.699 Q111.265 929.426 108.186 934.032 Q105.131 938.615 99.3204 938.615 Q93.5102 938.615 90.4315 934.032 Q87.376 929.426 87.376 920.699 Q87.376 911.949 90.4315 907.365 Q93.5102 902.759 99.3204 902.759 Z" fill="#000000" fill-rule="evenodd" fill-opacity="1" /><path clip-path="url(#clip190)" d="M119.482 932.064 L124.367 932.064 L124.367 937.944 L119.482 937.944 L119.482 932.064 Z" fill="#000000" fill-rule="evenodd" fill-opacity="1" /><path clip-path="url(#clip190)" d="M144.552 906.463 Q140.941 906.463 139.112 910.028 Q137.306 913.569 137.306 920.699 Q137.306 927.805 139.112 931.37 Q140.941 934.912 144.552 934.912 Q148.186 934.912 149.991 931.37 Q151.82 927.805 151.82 920.699 Q151.82 913.569 149.991 910.028 Q148.186 906.463 144.552 906.463 M144.552 902.759 Q150.362 902.759 153.417 907.365 Q156.496 911.949 156.496 920.699 Q156.496 929.426 153.417 934.032 Q150.362 938.615 144.552 938.615 Q138.741 938.615 135.663 934.032 Q132.607 929.426 132.607 920.699 Q132.607 911.949 135.663 907.365 Q138.741 902.759 144.552 902.759 Z" fill="#000000" fill-rule="evenodd" fill-opacity="1" /><path clip-path="url(#clip190)" d="M174.713 906.463 Q171.102 906.463 169.274 910.028 Q167.468 913.569 167.468 920.699 Q167.468 927.805 169.274 931.37 Q171.102 934.912 174.713 934.912 Q178.348 934.912 180.153 931.37 Q181.982 927.805 181.982 920.699 Q181.982 913.569 180.153 910.028 Q178.348 906.463 174.713 906.463 M174.713 902.759 Q180.524 902.759 183.579 907.365 Q186.658 911.949 186.658 920.699 Q186.658 929.426 183.579 934.032 Q180.524 938.615 174.713 938.615 Q168.903 938.615 165.825 934.032 Q162.769 929.426 162.769 920.699 Q162.769 911.949 165.825 907.365 Q168.903 902.759 174.713 902.759 Z" fill="#000000" fill-rule="evenodd" fill-opacity="1" /><path clip-path="url(#clip190)" d="M100.316 671.071 Q96.7047 671.071 94.876 674.636 Q93.0704 678.178 93.0704 685.308 Q93.0704 692.414 94.876 695.979 Q96.7047 699.52 100.316 699.52 Q103.95 699.52 105.756 695.979 Q107.584 692.414 107.584 685.308 Q107.584 678.178 105.756 674.636 Q103.95 671.071 100.316 671.071 M100.316 667.368 Q106.126 667.368 109.181 671.974 Q112.26 676.558 112.26 685.308 Q112.26 694.034 109.181 698.641 Q106.126 703.224 100.316 703.224 Q94.5056 703.224 91.4269 698.641 Q88.3714 694.034 88.3714 685.308 Q88.3714 676.558 91.4269 671.974 Q94.5056 667.368 100.316 667.368 Z" fill="#000000" fill-rule="evenodd" fill-opacity="1" /><path clip-path="url(#clip190)" d="M120.478 696.673 L125.362 696.673 L125.362 702.553 L120.478 702.553 L120.478 696.673 Z" fill="#000000" fill-rule="evenodd" fill-opacity="1" /><path clip-path="url(#clip190)" d="M145.547 671.071 Q141.936 671.071 140.107 674.636 Q138.302 678.178 138.302 685.308 Q138.302 692.414 140.107 695.979 Q141.936 699.52 145.547 699.52 Q149.181 699.52 150.987 695.979 Q152.815 692.414 152.815 685.308 Q152.815 678.178 150.987 674.636 Q149.181 671.071 145.547 671.071 M145.547 667.368 Q151.357 667.368 154.413 671.974 Q157.491 676.558 157.491 685.308 Q157.491 694.034 154.413 698.641 Q151.357 703.224 145.547 703.224 Q139.737 703.224 136.658 698.641 Q133.603 694.034 133.603 685.308 Q133.603 676.558 136.658 671.974 Q139.737 667.368 145.547 667.368 Z" fill="#000000" fill-rule="evenodd" fill-opacity="1" /><path clip-path="url(#clip190)" d="M165.755 667.993 L184.112 667.993 L184.112 671.928 L170.038 671.928 L170.038 680.4 Q171.056 680.053 172.075 679.891 Q173.093 679.706 174.112 679.706 Q179.899 679.706 183.278 682.877 Q186.658 686.048 186.658 691.465 Q186.658 697.044 183.186 700.145 Q179.713 703.224 173.394 703.224 Q171.218 703.224 168.95 702.854 Q166.704 702.483 164.297 701.743 L164.297 697.044 Q166.38 698.178 168.602 698.733 Q170.825 699.289 173.301 699.289 Q177.306 699.289 179.644 697.182 Q181.982 695.076 181.982 691.465 Q181.982 687.854 179.644 685.747 Q177.306 683.641 173.301 683.641 Q171.426 683.641 169.551 684.058 Q167.7 684.474 165.755 685.354 L165.755 667.993 Z" fill="#000000" fill-rule="evenodd" fill-opacity="1" /><path clip-path="url(#clip190)" d="M99.3204 435.68 Q95.7093 435.68 93.8806 439.245 Q92.075 442.787 92.075 449.916 Q92.075 457.023 93.8806 460.588 Q95.7093 464.129 99.3204 464.129 Q102.955 464.129 104.76 460.588 Q106.589 457.023 106.589 449.916 Q106.589 442.787 104.76 439.245 Q102.955 435.68 99.3204 435.68 M99.3204 431.977 Q105.131 431.977 108.186 436.583 Q111.265 441.166 111.265 449.916 Q111.265 458.643 108.186 463.25 Q105.131 467.833 99.3204 467.833 Q93.5102 467.833 90.4315 463.25 Q87.376 458.643 87.376 449.916 Q87.376 441.166 90.4315 436.583 Q93.5102 431.977 99.3204 431.977 Z" fill="#000000" fill-rule="evenodd" fill-opacity="1" /><path clip-path="url(#clip190)" d="M119.482 461.282 L124.367 461.282 L124.367 467.162 L119.482 467.162 L119.482 461.282 Z" fill="#000000" fill-rule="evenodd" fill-opacity="1" /><path clip-path="url(#clip190)" d="M135.362 463.226 L143.001 463.226 L143.001 436.861 L134.691 438.527 L134.691 434.268 L142.954 432.602 L147.63 432.602 L147.63 463.226 L155.269 463.226 L155.269 467.162 L135.362 467.162 L135.362 463.226 Z" fill="#000000" fill-rule="evenodd" fill-opacity="1" /><path clip-path="url(#clip190)" d="M174.713 435.68 Q171.102 435.68 169.274 439.245 Q167.468 442.787 167.468 449.916 Q167.468 457.023 169.274 460.588 Q171.102 464.129 174.713 464.129 Q178.348 464.129 180.153 460.588 Q181.982 457.023 181.982 449.916 Q181.982 442.787 180.153 439.245 Q178.348 435.68 174.713 435.68 M174.713 431.977 Q180.524 431.977 183.579 436.583 Q186.658 441.166 186.658 449.916 Q186.658 458.643 183.579 463.25 Q180.524 467.833 174.713 467.833 Q168.903 467.833 165.825 463.25 Q162.769 458.643 162.769 449.916 Q162.769 441.166 165.825 436.583 Q168.903 431.977 174.713 431.977 Z" fill="#000000" fill-rule="evenodd" fill-opacity="1" /><path clip-path="url(#clip190)" d="M100.316 200.289 Q96.7047 200.289 94.876 203.854 Q93.0704 207.395 93.0704 214.525 Q93.0704 221.632 94.876 225.196 Q96.7047 228.738 100.316 228.738 Q103.95 228.738 105.756 225.196 Q107.584 221.632 107.584 214.525 Q107.584 207.395 105.756 203.854 Q103.95 200.289 100.316 200.289 M100.316 196.585 Q106.126 196.585 109.181 201.192 Q112.26 205.775 112.26 214.525 Q112.26 223.252 109.181 227.858 Q106.126 232.442 100.316 232.442 Q94.5056 232.442 91.4269 227.858 Q88.3714 223.252 88.3714 214.525 Q88.3714 205.775 91.4269 201.192 Q94.5056 196.585 100.316 196.585 Z" fill="#000000" fill-rule="evenodd" fill-opacity="1" /><path clip-path="url(#clip190)" d="M120.478 225.891 L125.362 225.891 L125.362 231.77 L120.478 231.77 L120.478 225.891 Z" fill="#000000" fill-rule="evenodd" fill-opacity="1" /><path clip-path="url(#clip190)" d="M136.357 227.835 L143.996 227.835 L143.996 201.47 L135.686 203.136 L135.686 198.877 L143.95 197.21 L148.626 197.21 L148.626 227.835 L156.265 227.835 L156.265 231.77 L136.357 231.77 L136.357 227.835 Z" fill="#000000" fill-rule="evenodd" fill-opacity="1" /><path clip-path="url(#clip190)" d="M165.755 197.21 L184.112 197.21 L184.112 201.146 L170.038 201.146 L170.038 209.618 Q171.056 209.27 172.075 209.108 Q173.093 208.923 174.112 208.923 Q179.899 208.923 183.278 212.095 Q186.658 215.266 186.658 220.682 Q186.658 226.261 183.186 229.363 Q179.713 232.442 173.394 232.442 Q171.218 232.442 168.95 232.071 Q166.704 231.701 164.297 230.96 L164.297 226.261 Q166.38 227.395 168.602 227.951 Q170.825 228.506 173.301 228.506 Q177.306 228.506 179.644 226.4 Q181.982 224.294 181.982 220.682 Q181.982 217.071 179.644 214.965 Q177.306 212.858 173.301 212.858 Q171.426 212.858 169.551 213.275 Q167.7 213.692 165.755 214.571 L165.755 197.21 Z" fill="#000000" fill-rule="evenodd" fill-opacity="1" /><polyline clip-path="url(#clip192)" style="stroke:#009af9; stroke-linecap:round; stroke-linejoin:round; stroke-width:4; stroke-opacity:1; fill:none" points="
  295.292,1691.17 298.999,1692.98 302.705,1694.77 306.411,1696.53 310.118,1698.26 344.389,1713 378.659,1725.38 412.93,1735.36 447.201,1742.92 488.391,1748.8 
  529.582,1751.15 564.408,1750.39 599.234,1747.12 637.065,1740.74 674.896,1731.46 709.773,1720.35 744.65,1706.85 782.041,1689.77 819.433,1670.06 862.755,1644.03 
  906.076,1614.7 944.576,1585.98 983.075,1554.88 1016.84,1525.75 1050.6,1494.96 1087.4,1459.63 1124.21,1422.55 1161.24,1383.64 1198.27,1343.24 1239.2,1297 
  1280.14,1249.3 1319.09,1202.73 1358.04,1155.2 1439.04,1054.01 1507.23,967.352 1590.48,861.204 1666.73,765.028 1737.16,678.281 1808.51,593.496 1848.49,547.717 
  1888.47,503.394 1924.69,464.621 1960.92,427.292 2002.4,386.465 2043.88,347.83 2082.28,314.14 2120.68,282.564 2158.55,253.603 2196.41,226.885 2233.17,203.167 
  2269.93,181.707 2307.62,162.116 2345.3,145.018 2386.59,129.203 2427.88,116.49 2457.87,109.223 2487.85,103.625 2517.84,99.7017 2547.83,97.4583 2553.98,97.2058 
  2560.14,97.024 2566.29,96.9129 2572.44,96.8724 
  "/>
<path clip-path="url(#clip190)" d="
M2239.67 209.375 L2560.3 209.375 L2560.3 105.695 L2239.67 105.695  Z
  " fill="#ffffff" fill-rule="evenodd" fill-opacity="1"/>
<polyline clip-path="url(#clip190)" style="stroke:#000000; stroke-linecap:round; stroke-linejoin:round; stroke-width:4; stroke-opacity:1; fill:none" points="
  2239.67,209.375 2560.3,209.375 2560.3,105.695 2239.67,105.695 2239.67,209.375 
  "/>
<polyline clip-path="url(#clip190)" style="stroke:#009af9; stroke-linecap:round; stroke-linejoin:round; stroke-width:4; stroke-opacity:1; fill:none" points="
  2266.49,157.535 2427.41,157.535 
  "/>
<path clip-path="url(#clip190)" d="M2468.07 177.223 Q2466.26 181.852 2464.55 183.264 Q2462.84 184.676 2459.97 184.676 L2456.56 184.676 L2456.56 181.112 L2459.06 181.112 Q2460.82 181.112 2461.8 180.278 Q2462.77 179.445 2463.95 176.343 L2464.71 174.399 L2454.23 148.889 L2458.74 148.889 L2466.84 169.167 L2474.94 148.889 L2479.46 148.889 L2468.07 177.223 Z" fill="#000000" fill-rule="evenodd" fill-opacity="1" /><path clip-path="url(#clip190)" d="M2486.75 170.88 L2494.39 170.88 L2494.39 144.515 L2486.08 146.181 L2486.08 141.922 L2494.34 140.255 L2499.02 140.255 L2499.02 170.88 L2506.66 170.88 L2506.66 174.815 L2486.75 174.815 L2486.75 170.88 Z" fill="#000000" fill-rule="evenodd" fill-opacity="1" /></svg>
