<?xml version="1.0" encoding="utf-8"?>
<svg xmlns="http://www.w3.org/2000/svg" xmlns:xlink="http://www.w3.org/1999/xlink" width="672" height="480" viewBox="0 0 2688 1920">
<defs>
  <clipPath id="clip990">
    <rect x="0" y="0" width="2688" height="1920"/>
  </clipPath>
</defs>
<path clip-path="url(#clip990)" d="
M0 1920 L2688 1920 L2688 0 L0 0  Z
  " fill="#ffffff" fill-rule="evenodd" fill-opacity="1"/>
<defs>
  <clipPath id="clip991">
    <rect x="537" y="0" width="1883" height="1883"/>
  </clipPath>
</defs>
<path clip-path="url(#clip990)" d="
M150.358 1800.78 L2640.76 1800.78 L2640.76 47.2441 L150.358 47.2441  Z
  " fill="#ffffff" fill-rule="evenodd" fill-opacity="1"/>
<defs>
  <clipPath id="clip992">
    <rect x="150" y="47" width="2491" height="1755"/>
  </clipPath>
</defs>
<polyline clip-path="url(#clip992)" style="stroke:#000000; stroke-linecap:round; stroke-linejoin:round; stroke-width:2; stroke-opacity:0.1; fill:none" points="
  220.841,1800.78 220.841,47.2441 
  "/>
<polyline clip-path="url(#clip992)" style="stroke:#000000; stroke-linecap:round; stroke-linejoin:round; stroke-width:2; stroke-opacity:0.1; fill:none" points="
  594.765,1800.78 594.765,47.2441 
  "/>
<polyline clip-path="url(#clip992)" style="stroke:#000000; stroke-linecap:round; stroke-linejoin:round; stroke-width:2; stroke-opacity:0.1; fill:none" points="
  968.688,1800.78 968.688,47.2441 
  "/>
<polyline clip-path="url(#clip992)" style="stroke:#000000; stroke-linecap:round; stroke-linejoin:round; stroke-width:2; stroke-opacity:0.1; fill:none" points="
  1342.61,1800.78 1342.61,47.2441 
  "/>
<polyline clip-path="url(#clip992)" style="stroke:#000000; stroke-linecap:round; stroke-linejoin:round; stroke-width:2; stroke-opacity:0.1; fill:none" points="
  1716.54,1800.78 1716.54,47.2441 
  "/>
<polyline clip-path="url(#clip992)" style="stroke:#000000; stroke-linecap:round; stroke-linejoin:round; stroke-width:2; stroke-opacity:0.1; fill:none" points="
  2090.46,1800.78 2090.46,47.2441 
  "/>
<polyline clip-path="url(#clip992)" style="stroke:#000000; stroke-linecap:round; stroke-linejoin:round; stroke-width:2; stroke-opacity:0.1; fill:none" points="
  2464.38,1800.78 2464.38,47.2441 
  "/>
<polyline clip-path="url(#clip990)" style="stroke:#000000; stroke-linecap:round; stroke-linejoin:round; stroke-width:4; stroke-opacity:1; fill:none" points="
  150.358,1800.78 2640.76,1800.78 
  "/>
<polyline clip-path="url(#clip990)" style="stroke:#000000; stroke-linecap:round; stroke-linejoin:round; stroke-width:4; stroke-opacity:1; fill:none" points="
  220.841,1800.78 220.841,1781.88 
  "/>
<polyline clip-path="url(#clip990)" style="stroke:#000000; stroke-linecap:round; stroke-linejoin:round; stroke-width:4; stroke-opacity:1; fill:none" points="
  594.765,1800.78 594.765,1781.88 
  "/>
<polyline clip-path="url(#clip990)" style="stroke:#000000; stroke-linecap:round; stroke-linejoin:round; stroke-width:4; stroke-opacity:1; fill:none" points="
  968.688,1800.78 968.688,1781.88 
  "/>
<polyline clip-path="url(#clip990)" style="stroke:#000000; stroke-linecap:round; stroke-linejoin:round; stroke-width:4; stroke-opacity:1; fill:none" points="
  1342.61,1800.78 1342.61,1781.88 
  "/>
<polyline clip-path="url(#clip990)" style="stroke:#000000; stroke-linecap:round; stroke-linejoin:round; stroke-width:4; stroke-opacity:1; fill:none" points="
  1716.54,1800.78 1716.54,1781.88 
  "/>
<polyline clip-path="url(#clip990)" style="stroke:#000000; stroke-linecap:round; stroke-linejoin:round; stroke-width:4; stroke-opacity:1; fill:none" points="
  2090.46,1800.78 2090.46,1781.88 
  "/>
<polyline clip-path="url(#clip990)" style="stroke:#000000; stroke-linecap:round; stroke-linejoin:round; stroke-width:4; stroke-opacity:1; fill:none" points="
  2464.38,1800.78 2464.38,1781.88 
  "/>
<path clip-path="url(#clip990)" d="M220.841 1834 Q217.23 1834 215.401 1837.57 Q213.596 1841.11 213.596 1848.24 Q213.596 1855.34 215.401 1858.91 Q217.23 1862.45 220.841 1862.45 Q224.475 1862.45 226.281 1858.91 Q228.109 1855.34 228.109 1848.24 Q228.109 1841.11 226.281 1837.57 Q224.475 1834 220.841 1834 M220.841 1830.3 Q226.651 1830.3 229.707 1834.9 Q232.785 1839.49 232.785 1848.24 Q232.785 1856.96 229.707 1861.57 Q226.651 1866.15 220.841 1866.15 Q215.031 1866.15 211.952 1861.57 Q208.896 1856.96 208.896 1848.24 Q208.896 1839.49 211.952 1834.9 Q215.031 1830.3 220.841 1830.3 Z" fill="#000000" fill-rule="evenodd" fill-opacity="1" /><path clip-path="url(#clip990)" d="M585.147 1861.55 L592.785 1861.55 L592.785 1835.18 L584.475 1836.85 L584.475 1832.59 L592.739 1830.92 L597.415 1830.92 L597.415 1861.55 L605.054 1861.55 L605.054 1865.48 L585.147 1865.48 L585.147 1861.55 Z" fill="#000000" fill-rule="evenodd" fill-opacity="1" /><path clip-path="url(#clip990)" d="M963.341 1861.55 L979.66 1861.55 L979.66 1865.48 L957.716 1865.48 L957.716 1861.55 Q960.378 1858.79 964.961 1854.16 Q969.568 1849.51 970.749 1848.17 Q972.994 1845.65 973.873 1843.91 Q974.776 1842.15 974.776 1840.46 Q974.776 1837.71 972.832 1835.97 Q970.911 1834.23 967.809 1834.23 Q965.61 1834.23 963.156 1835 Q960.725 1835.76 957.948 1837.31 L957.948 1832.59 Q960.772 1831.46 963.225 1830.88 Q965.679 1830.3 967.716 1830.3 Q973.086 1830.3 976.281 1832.98 Q979.475 1835.67 979.475 1840.16 Q979.475 1842.29 978.665 1844.21 Q977.878 1846.11 975.772 1848.7 Q975.193 1849.37 972.091 1852.59 Q968.989 1855.78 963.341 1861.55 Z" fill="#000000" fill-rule="evenodd" fill-opacity="1" /><path clip-path="url(#clip990)" d="M1346.86 1846.85 Q1350.22 1847.57 1352.09 1849.84 Q1353.99 1852.1 1353.99 1855.44 Q1353.99 1860.55 1350.47 1863.35 Q1346.95 1866.15 1340.47 1866.15 Q1338.29 1866.15 1335.98 1865.71 Q1333.69 1865.3 1331.23 1864.44 L1331.23 1859.93 Q1333.18 1861.06 1335.49 1861.64 Q1337.81 1862.22 1340.33 1862.22 Q1344.73 1862.22 1347.02 1860.48 Q1349.34 1858.75 1349.34 1855.44 Q1349.34 1852.38 1347.18 1850.67 Q1345.05 1848.93 1341.23 1848.93 L1337.21 1848.93 L1337.21 1845.09 L1341.42 1845.09 Q1344.87 1845.09 1346.7 1843.72 Q1348.53 1842.34 1348.53 1839.74 Q1348.53 1837.08 1346.63 1835.67 Q1344.75 1834.23 1341.23 1834.23 Q1339.31 1834.23 1337.11 1834.65 Q1334.92 1835.07 1332.28 1835.95 L1332.28 1831.78 Q1334.94 1831.04 1337.25 1830.67 Q1339.59 1830.3 1341.65 1830.3 Q1346.98 1830.3 1350.08 1832.73 Q1353.18 1835.14 1353.18 1839.26 Q1353.18 1842.13 1351.54 1844.12 Q1349.89 1846.09 1346.86 1846.85 Z" fill="#000000" fill-rule="evenodd" fill-opacity="1" /><path clip-path="url(#clip990)" d="M1719.55 1835 L1707.74 1853.45 L1719.55 1853.45 L1719.55 1835 M1718.32 1830.92 L1724.2 1830.92 L1724.2 1853.45 L1729.13 1853.45 L1729.13 1857.34 L1724.2 1857.34 L1724.2 1865.48 L1719.55 1865.48 L1719.55 1857.34 L1703.94 1857.34 L1703.94 1852.82 L1718.32 1830.92 Z" fill="#000000" fill-rule="evenodd" fill-opacity="1" /><path clip-path="url(#clip990)" d="M2080.74 1830.92 L2099.09 1830.92 L2099.09 1834.86 L2085.02 1834.86 L2085.02 1843.33 Q2086.04 1842.98 2087.06 1842.82 Q2088.08 1842.64 2089.09 1842.64 Q2094.88 1842.64 2098.26 1845.81 Q2101.64 1848.98 2101.64 1854.4 Q2101.64 1859.97 2098.17 1863.08 Q2094.7 1866.15 2088.38 1866.15 Q2086.2 1866.15 2083.93 1865.78 Q2081.69 1865.41 2079.28 1864.67 L2079.28 1859.97 Q2081.36 1861.11 2083.58 1861.66 Q2085.81 1862.22 2088.28 1862.22 Q2092.29 1862.22 2094.63 1860.11 Q2096.96 1858.01 2096.96 1854.4 Q2096.96 1850.78 2094.63 1848.68 Q2092.29 1846.57 2088.28 1846.57 Q2086.41 1846.57 2084.53 1846.99 Q2082.68 1847.4 2080.74 1848.28 L2080.74 1830.92 Z" fill="#000000" fill-rule="evenodd" fill-opacity="1" /><path clip-path="url(#clip990)" d="M2464.79 1846.34 Q2461.64 1846.34 2459.79 1848.49 Q2457.96 1850.65 2457.96 1854.4 Q2457.96 1858.12 2459.79 1860.3 Q2461.64 1862.45 2464.79 1862.45 Q2467.94 1862.45 2469.77 1860.3 Q2471.62 1858.12 2471.62 1854.4 Q2471.62 1850.65 2469.77 1848.49 Q2467.94 1846.34 2464.79 1846.34 M2474.07 1831.69 L2474.07 1835.95 Q2472.31 1835.11 2470.51 1834.67 Q2468.72 1834.23 2466.96 1834.23 Q2462.33 1834.23 2459.88 1837.36 Q2457.45 1840.48 2457.1 1846.8 Q2458.47 1844.79 2460.53 1843.72 Q2462.59 1842.64 2465.07 1842.64 Q2470.27 1842.64 2473.28 1845.81 Q2476.32 1848.96 2476.32 1854.4 Q2476.32 1859.72 2473.17 1862.94 Q2470.02 1866.15 2464.79 1866.15 Q2458.79 1866.15 2455.62 1861.57 Q2452.45 1856.96 2452.45 1848.24 Q2452.45 1840.04 2456.34 1835.18 Q2460.23 1830.3 2466.78 1830.3 Q2468.54 1830.3 2470.32 1830.65 Q2472.13 1830.99 2474.07 1831.69 Z" fill="#000000" fill-rule="evenodd" fill-opacity="1" /><polyline clip-path="url(#clip992)" style="stroke:#000000; stroke-linecap:round; stroke-linejoin:round; stroke-width:2; stroke-opacity:0.1; fill:none" points="
  150.358,1585.84 2640.76,1585.84 
  "/>
<polyline clip-path="url(#clip992)" style="stroke:#000000; stroke-linecap:round; stroke-linejoin:round; stroke-width:2; stroke-opacity:0.1; fill:none" points="
  150.358,1254.92 2640.76,1254.92 
  "/>
<polyline clip-path="url(#clip992)" style="stroke:#000000; stroke-linecap:round; stroke-linejoin:round; stroke-width:2; stroke-opacity:0.1; fill:none" points="
  150.358,924.012 2640.76,924.012 
  "/>
<polyline clip-path="url(#clip992)" style="stroke:#000000; stroke-linecap:round; stroke-linejoin:round; stroke-width:2; stroke-opacity:0.1; fill:none" points="
  150.358,593.1 2640.76,593.1 
  "/>
<polyline clip-path="url(#clip992)" style="stroke:#000000; stroke-linecap:round; stroke-linejoin:round; stroke-width:2; stroke-opacity:0.1; fill:none" points="
  150.358,262.188 2640.76,262.188 
  "/>
<polyline clip-path="url(#clip990)" style="stroke:#000000; stroke-linecap:round; stroke-linejoin:round; stroke-width:4; stroke-opacity:1; fill:none" points="
  150.358,1800.78 150.358,47.2441 
  "/>
<polyline clip-path="url(#clip990)" style="stroke:#000000; stroke-linecap:round; stroke-linejoin:round; stroke-width:4; stroke-opacity:1; fill:none" points="
  150.358,1585.84 169.256,1585.84 
  "/>
<polyline clip-path="url(#clip990)" style="stroke:#000000; stroke-linecap:round; stroke-linejoin:round; stroke-width:4; stroke-opacity:1; fill:none" points="
  150.358,1254.92 169.256,1254.92 
  "/>
<polyline clip-path="url(#clip990)" style="stroke:#000000; stroke-linecap:round; stroke-linejoin:round; stroke-width:4; stroke-opacity:1; fill:none" points="
  150.358,924.012 169.256,924.012 
  "/>
<polyline clip-path="url(#clip990)" style="stroke:#000000; stroke-linecap:round; stroke-linejoin:round; stroke-width:4; stroke-opacity:1; fill:none" points="
  150.358,593.1 169.256,593.1 
  "/>
<polyline clip-path="url(#clip990)" style="stroke:#000000; stroke-linecap:round; stroke-linejoin:round; stroke-width:4; stroke-opacity:1; fill:none" points="
  150.358,262.188 169.256,262.188 
  "/>
<path clip-path="url(#clip990)" d="M49.9225 1586.29 L79.5983 1586.29 L79.5983 1590.22 L49.9225 1590.22 L49.9225 1586.29 Z" fill="#000000" fill-rule="evenodd" fill-opacity="1" /><path clip-path="url(#clip990)" d="M93.7186 1599.18 L110.038 1599.18 L110.038 1603.12 L88.0936 1603.12 L88.0936 1599.18 Q90.7556 1596.43 95.3389 1591.8 Q99.9454 1587.14 101.126 1585.8 Q103.371 1583.28 104.251 1581.54 Q105.154 1579.78 105.154 1578.09 Q105.154 1575.34 103.209 1573.6 Q101.288 1571.87 98.1861 1571.87 Q95.9871 1571.87 93.5334 1572.63 Q91.1028 1573.39 88.3251 1574.94 L88.3251 1570.22 Q91.1491 1569.09 93.6028 1568.51 Q96.0565 1567.93 98.0935 1567.93 Q103.464 1567.93 106.658 1570.62 Q109.853 1573.3 109.853 1577.79 Q109.853 1579.92 109.043 1581.84 Q108.256 1583.74 106.149 1586.33 Q105.57 1587 102.469 1590.22 Q99.3667 1593.42 93.7186 1599.18 Z" fill="#000000" fill-rule="evenodd" fill-opacity="1" /><path clip-path="url(#clip990)" d="M49.5521 1255.38 L79.2279 1255.38 L79.2279 1259.31 L49.5521 1259.31 L49.5521 1255.38 Z" fill="#000000" fill-rule="evenodd" fill-opacity="1" /><path clip-path="url(#clip990)" d="M90.1306 1268.27 L97.7695 1268.27 L97.7695 1241.9 L89.4593 1243.57 L89.4593 1239.31 L97.7232 1237.64 L102.399 1237.64 L102.399 1268.27 L110.038 1268.27 L110.038 1272.2 L90.1306 1272.2 L90.1306 1268.27 Z" fill="#000000" fill-rule="evenodd" fill-opacity="1" /><path clip-path="url(#clip990)" d="M98.0935 909.81 Q94.4824 909.81 92.6537 913.375 Q90.8482 916.917 90.8482 924.046 Q90.8482 931.153 92.6537 934.718 Q94.4824 938.259 98.0935 938.259 Q101.728 938.259 103.533 934.718 Q105.362 931.153 105.362 924.046 Q105.362 916.917 103.533 913.375 Q101.728 909.81 98.0935 909.81 M98.0935 906.107 Q103.904 906.107 106.959 910.713 Q110.038 915.296 110.038 924.046 Q110.038 932.773 106.959 937.38 Q103.904 941.963 98.0935 941.963 Q92.2834 941.963 89.2047 937.38 Q86.1492 932.773 86.1492 924.046 Q86.1492 915.296 89.2047 910.713 Q92.2834 906.107 98.0935 906.107 Z" fill="#000000" fill-rule="evenodd" fill-opacity="1" /><path clip-path="url(#clip990)" d="M90.1306 606.445 L97.7695 606.445 L97.7695 580.079 L89.4593 581.746 L89.4593 577.486 L97.7232 575.82 L102.399 575.82 L102.399 606.445 L110.038 606.445 L110.038 610.38 L90.1306 610.38 L90.1306 606.445 Z" fill="#000000" fill-rule="evenodd" fill-opacity="1" /><path clip-path="url(#clip990)" d="M93.7186 275.533 L110.038 275.533 L110.038 279.468 L88.0936 279.468 L88.0936 275.533 Q90.7556 272.778 95.3389 268.148 Q99.9454 263.496 101.126 262.153 Q103.371 259.63 104.251 257.894 Q105.154 256.135 105.154 254.445 Q105.154 251.69 103.209 249.954 Q101.288 248.218 98.1861 248.218 Q95.9871 248.218 93.5334 248.982 Q91.1028 249.746 88.3251 251.297 L88.3251 246.574 Q91.1491 245.44 93.6028 244.861 Q96.0565 244.283 98.0935 244.283 Q103.464 244.283 106.658 246.968 Q109.853 249.653 109.853 254.144 Q109.853 256.273 109.043 258.195 Q108.256 260.093 106.149 262.685 Q105.57 263.357 102.469 266.574 Q99.3667 269.769 93.7186 275.533 Z" fill="#000000" fill-rule="evenodd" fill-opacity="1" /><polyline clip-path="url(#clip992)" style="stroke:#0000ff; stroke-linecap:round; stroke-linejoin:round; stroke-width:12; stroke-opacity:1; fill:none" points="
  220.841,924.012 224.665,903.709 228.489,883.419 232.313,863.154 236.137,842.928 253.816,750.276 271.496,659.945 289.175,573.134 306.854,490.977 315.694,451.979 
  324.533,414.533 333.373,378.758 342.213,344.762 351.052,312.648 359.892,282.511 368.732,254.436 377.571,228.5 388.196,200.255 398.82,175.299 409.445,153.715 
  420.069,135.563 430.694,120.883 441.318,109.696 451.943,102.001 462.568,97.7764 471.55,96.883 480.533,98.4058 489.516,102.299 498.499,108.508 507.482,116.967 
  516.465,127.603 525.448,140.335 534.431,155.071 544.189,173.238 553.947,193.521 563.705,215.776 573.463,239.853 583.22,265.592 592.978,292.829 602.736,321.392 
  612.494,351.108 630.486,408.319 648.478,467.708 666.47,528.14 684.462,588.496 703.751,651.893 723.04,712.712 732.685,741.79 742.33,769.802 751.974,796.624 
  761.619,822.142 772.793,849.941 783.967,875.704 795.142,899.308 806.316,920.645 817.49,939.633 828.664,956.207 839.839,970.325 851.013,981.965 860.943,990.23 
  870.874,996.553 880.804,1000.96 890.734,1003.49 900.665,1004.19 910.595,1003.13 920.525,1000.37 930.456,996.009 939.164,990.934 947.872,984.763 956.58,977.569 
  965.288,969.429 982.704,950.643 1000.12,929.095 1038.1,876.104 1076.07,821.314 1095.17,795.492 1114.27,772.023 1133.38,751.703 1152.48,735.22 1163.04,727.966 
  1173.6,722.138 1184.15,717.8 1194.71,715.004 1205.27,713.786 1215.83,714.171 1226.39,716.166 1236.95,719.766 1247,724.664 1257.04,730.969 1267.09,738.643 
  1277.14,747.633 1287.19,757.881 1297.23,769.315 1307.28,781.856 1317.33,795.417 1338.22,826.455 1359.11,860.522 1380,896.565 1400.9,933.462 1418.49,964.34 
  1436.07,994.328 1453.66,1022.77 1471.25,1049.03 1481.98,1063.74 1492.72,1077.31 1503.46,1089.63 1514.19,1100.6 1524.93,1110.13 1535.66,1118.15 1546.4,1124.6 
  1557.14,1129.43 1566.97,1132.42 1576.81,1134.01 1586.64,1134.2 1596.48,1133.01 1606.31,1130.44 1616.15,1126.54 1625.98,1121.33 1635.82,1114.88 1653.98,1099.88 
  1672.15,1081.31 1690.32,1059.72 1708.48,1035.79 1745.29,983.182 1782.09,930.774 1802.72,904.158 1823.34,881.081 1833.65,871.238 1843.96,862.709 1854.27,855.624 
  1864.59,850.102 1873.93,846.542 1883.28,844.43 1892.62,843.836 1901.96,844.816 1911.31,847.422 1920.65,851.695 1930,857.665 1939.34,865.356 1950.04,876.289 
  1960.74,889.494 1971.44,904.954 1982.13,922.636 1992.83,942.489 2003.53,964.442 2014.23,988.409 2024.93,1014.28 2034.83,1039.84 2044.74,1066.82 2054.65,1095.11 
  2064.55,1124.58 2084.36,1186.48 2104.18,1251.29 2123.71,1316.73 2143.24,1382.33 2162.77,1446.66 2182.3,1508.26 2191.79,1536.75 2201.27,1564.09 2210.75,1590.13 
  2220.23,1614.71 2229.71,1637.67 2239.2,1658.89 2248.68,1678.21 2258.16,1695.51 2267.88,1711.02 2277.6,1724.15 2287.32,1734.8 2297.04,1742.86 2306.76,1748.25 
  2316.48,1750.89 2326.2,1750.72 2335.92,1747.68 2346.57,1741.03 2357.22,1730.88 2367.87,1717.21 2378.52,1700.05 2389.17,1679.42 2399.82,1655.39 2410.47,1628.02 
  2421.12,1597.43 2428.85,1573.24 2436.59,1547.45 2444.32,1520.13 2452.06,1491.32 2459.8,1461.11 2467.53,1429.54 2475.27,1396.71 2483,1362.69 2498.47,1291.41 
  2513.94,1216.39 2529.41,1138.4 2544.88,1058.21 2551.23,1024.86 2557.58,991.343 2563.93,957.707 2570.27,924.012 
  "/>
<polyline clip-path="url(#clip992)" style="stroke:#ff0000; stroke-linecap:round; stroke-linejoin:round; stroke-width:20; stroke-opacity:0.6; fill:none" points="
  283.395,621.54 284.004,618.13 284.612,614.731 285.221,611.343 285.829,607.966 291.457,577.267 297.084,547.519 302.712,518.722 308.339,490.875 315.103,458.664 
  321.867,427.826 327.586,402.824 333.304,378.805 339.516,353.825 345.729,330.004 351.456,309.069 357.183,289.119 363.323,268.824 369.462,249.661 373.019,239.077 
  376.576,228.874 380.133,219.05 383.69,209.606 390.012,193.757 396.334,179.109 401.877,167.251 407.421,156.316 413.465,145.445 419.509,135.67 425.589,126.944 
  431.669,119.328 438.392,112.199 445.114,106.426 451.51,102.193 457.906,99.1885 464.556,97.3666 471.207,96.8724 476.805,97.4857 482.403,99.0399 485.821,100.451 
  489.238,102.213 492.656,104.325 496.073,106.788 502.334,112.21 508.595,118.809 514.378,125.949 520.16,134.093 526.018,143.366 531.876,153.669 538.44,166.44 
  545.005,180.504 550.954,194.367 556.903,209.291 560.308,218.313 563.714,227.683 567.119,237.401 570.524,247.468 576.831,267.028 583.137,287.782 589.354,309.412 
  595.571,332.203 601.608,355.441 607.644,379.772 613.832,405.851 620.021,433.079 623.41,448.483 626.8,464.231 630.19,480.324 633.58,496.762 638.505,521.256 
  643.429,546.477 648.353,572.427 653.278,599.105 654.288,604.668 655.298,610.261 656.308,615.885 657.319,621.54 
  "/>
<polyline clip-path="url(#clip992)" style="stroke:#ff0000; stroke-linecap:round; stroke-linejoin:round; stroke-width:20; stroke-opacity:0.6; fill:none" points="
  712.625,690.027 713.233,692.069 713.842,694.104 714.451,696.133 715.059,698.155 720.687,716.537 726.314,734.35 731.942,751.594 737.569,768.268 744.333,787.556 
  751.097,806.021 756.815,820.992 762.534,835.374 768.746,850.332 774.958,864.596 780.685,877.131 786.412,889.077 792.552,901.229 798.692,912.704 802.249,919.041 
  805.806,925.151 809.363,931.034 812.92,936.689 819.242,946.178 825.563,954.95 831.107,962.05 836.651,968.598 842.695,975.108 848.739,980.96 854.819,986.185 
  860.899,990.746 867.621,995.015 874.344,998.471 880.74,1001.01 887.136,1002.81 893.786,1003.9 900.437,1004.19 906.035,1003.82 911.633,1002.89 915.051,1002.05 
  918.468,1000.99 921.885,999.729 925.303,998.255 931.564,995.008 937.825,991.057 943.608,986.781 949.39,981.905 955.248,976.352 961.106,970.183 967.67,962.536 
  974.235,954.114 980.184,945.814 986.132,936.877 989.538,931.475 992.943,925.864 996.349,920.045 999.754,914.017 1006.06,902.305 1012.37,889.877 1018.58,876.926 
  1024.8,863.279 1030.84,849.364 1036.87,834.795 1043.06,819.179 1049.25,802.875 1052.64,793.652 1056.03,784.222 1059.42,774.586 1062.81,764.743 1067.73,750.076 
  1072.66,734.974 1077.58,719.435 1082.51,703.461 1083.52,700.13 1084.53,696.781 1085.54,693.413 1086.55,690.027 
  "/>
<polyline clip-path="url(#clip992)" style="stroke:#ff0000; stroke-linecap:round; stroke-linejoin:round; stroke-width:20; stroke-opacity:0.6; fill:none" points="
  1021.07,965.58 1021.68,963.943 1022.29,962.312 1022.89,960.685 1023.5,959.065 1029.13,944.329 1034.76,930.05 1040.39,916.227 1046.01,902.86 1052.78,887.399 
  1059.54,872.596 1065.26,860.595 1070.98,849.066 1077.19,837.075 1083.4,825.641 1089.13,815.592 1094.86,806.016 1101,796.275 1107.14,787.076 1110.69,781.996 
  1114.25,777.098 1117.81,772.383 1121.36,767.849 1127.69,760.242 1134.01,753.211 1139.55,747.519 1145.1,742.27 1151.14,737.052 1157.18,732.36 1163.26,728.171 
  1169.34,724.515 1176.07,721.093 1182.79,718.323 1189.18,716.291 1195.58,714.848 1202.23,713.974 1208.88,713.737 1214.48,714.031 1220.08,714.777 1223.49,715.454 
  1226.91,716.3 1230.33,717.314 1233.75,718.496 1240.01,721.099 1246.27,724.267 1252.05,727.694 1257.83,731.603 1263.69,736.054 1269.55,740.999 1276.11,747.129 
  1282.68,753.881 1288.63,760.534 1294.58,767.698 1297.98,772.029 1301.39,776.527 1304.79,781.191 1308.2,786.023 1314.5,795.412 1320.81,805.375 1327.03,815.757 
  1333.25,826.697 1339.28,837.851 1345.32,849.53 1351.51,862.048 1357.69,875.118 1361.08,882.512 1364.47,890.071 1367.86,897.796 1371.25,905.686 1376.18,917.443 
  1381.1,929.55 1386.03,942.006 1390.95,954.811 1391.96,957.481 1392.97,960.166 1393.98,962.866 1394.99,965.58 
  "/>
<polyline clip-path="url(#clip992)" style="stroke:#ff0000; stroke-linecap:round; stroke-linejoin:round; stroke-width:20; stroke-opacity:0.6; fill:none" points="
  1396.12,882.443 1396.73,884.08 1397.34,885.712 1397.95,887.338 1398.56,888.959 1404.18,903.694 1409.81,917.974 1415.44,931.797 1421.07,945.163 1427.83,960.625 
  1434.59,975.427 1440.31,987.428 1446.03,998.958 1452.24,1010.95 1458.45,1022.38 1464.18,1032.43 1469.91,1042.01 1476.05,1051.75 1482.19,1060.95 1485.75,1066.03 
  1489.3,1070.93 1492.86,1075.64 1496.42,1080.17 1502.74,1087.78 1509.06,1094.81 1514.6,1100.5 1520.15,1105.75 1526.19,1110.97 1532.24,1115.66 1538.32,1119.85 
  1544.4,1123.51 1551.12,1126.93 1557.84,1129.7 1564.24,1131.73 1570.63,1133.17 1577.28,1134.05 1583.93,1134.29 1589.53,1133.99 1595.13,1133.25 1598.55,1132.57 
  1601.96,1131.72 1605.38,1130.71 1608.8,1129.53 1615.06,1126.92 1621.32,1123.76 1627.1,1120.33 1632.89,1116.42 1638.74,1111.97 1644.6,1107.02 1651.17,1100.89 
  1657.73,1094.14 1663.68,1087.49 1669.63,1080.33 1673.03,1075.99 1676.44,1071.5 1679.85,1066.83 1683.25,1062 1689.56,1052.61 1695.86,1042.65 1702.08,1032.27 
  1708.3,1021.33 1714.33,1010.17 1720.37,998.493 1726.56,985.975 1732.75,972.905 1736.14,965.512 1739.53,957.952 1742.92,950.228 1746.31,942.337 1751.23,930.58 
  1756.16,918.474 1761.08,906.018 1766,893.212 1767.01,890.542 1768.02,887.857 1769.03,885.157 1770.04,882.443 
  "/>
<polyline clip-path="url(#clip992)" style="stroke:#ff0000; stroke-linecap:round; stroke-linejoin:round; stroke-width:20; stroke-opacity:0.6; fill:none" points="
  1704.57,1158 1705.17,1155.95 1705.78,1153.92 1706.39,1151.89 1707,1149.87 1712.63,1131.49 1718.25,1113.67 1723.88,1096.43 1729.51,1079.76 1736.27,1060.47 
  1743.04,1042 1748.76,1027.03 1754.47,1012.65 1760.69,997.692 1766.9,983.428 1772.63,970.892 1778.35,958.946 1784.49,946.794 1790.63,935.319 1794.19,928.982 
  1797.75,922.872 1801.3,916.99 1804.86,911.335 1811.18,901.845 1817.5,893.074 1823.05,885.973 1828.59,879.425 1834.64,872.916 1840.68,867.063 1846.76,861.838 
  1852.84,857.277 1859.56,853.009 1866.28,849.552 1872.68,847.017 1879.08,845.218 1885.73,844.127 1892.38,843.831 1897.98,844.199 1903.57,845.129 1906.99,845.974 
  1910.41,847.029 1913.83,848.294 1917.24,849.769 1923.5,853.015 1929.77,856.967 1935.55,861.242 1941.33,866.119 1947.19,871.671 1953.05,877.84 1959.61,885.487 
  1966.18,893.909 1972.12,902.21 1978.07,911.146 1981.48,916.549 1984.88,922.159 1988.29,927.978 1991.69,934.006 1998,945.719 2004.31,958.146 2010.52,971.098 
  2016.74,984.744 2022.78,998.659 2028.81,1013.23 2035,1028.84 2041.19,1045.15 2044.58,1054.37 2047.97,1063.8 2051.36,1073.44 2054.75,1083.28 2059.67,1097.95 
  2064.6,1113.05 2069.52,1128.59 2074.45,1144.56 2075.46,1147.89 2076.47,1151.24 2077.48,1154.61 2078.49,1158 
  "/>
<polyline clip-path="url(#clip992)" style="stroke:#ff0000; stroke-linecap:round; stroke-linejoin:round; stroke-width:20; stroke-opacity:0.6; fill:none" points="
  2133.8,1226.48 2134.4,1229.89 2135.01,1233.29 2135.62,1236.68 2136.23,1240.06 2141.86,1270.76 2147.48,1300.5 2153.11,1329.3 2158.74,1357.15 2165.5,1389.36 
  2172.27,1420.2 2177.99,1445.2 2183.7,1469.22 2189.92,1494.2 2196.13,1518.02 2201.86,1538.95 2207.58,1558.9 2213.72,1579.2 2219.86,1598.36 2223.42,1608.95 
  2226.98,1619.15 2230.53,1628.97 2234.09,1638.42 2240.41,1654.27 2246.73,1668.91 2252.28,1680.77 2257.82,1691.71 2263.87,1702.58 2269.91,1712.35 2275.99,1721.08 
  2282.07,1728.7 2288.79,1735.82 2295.51,1741.6 2301.91,1745.83 2308.31,1748.83 2314.96,1750.66 2321.61,1751.15 2327.21,1750.54 2332.8,1748.98 2336.22,1747.57 
  2339.64,1745.81 2343.06,1743.7 2346.47,1741.24 2352.73,1735.81 2359,1729.21 2364.78,1722.07 2370.56,1713.93 2376.42,1704.66 2382.28,1694.35 2388.84,1681.58 
  2395.41,1667.52 2401.35,1653.66 2407.3,1638.73 2410.71,1629.71 2414.11,1620.34 2417.52,1610.62 2420.92,1600.56 2427.23,1581 2433.54,1560.24 2439.75,1538.61 
  2445.97,1515.82 2452.01,1492.58 2458.04,1468.25 2464.23,1442.17 2470.42,1414.94 2473.81,1399.54 2477.2,1383.79 2480.59,1367.7 2483.98,1351.26 2488.9,1326.77 
  2493.83,1301.55 2498.75,1275.6 2503.68,1248.92 2504.69,1243.36 2505.7,1237.76 2506.71,1232.14 2507.72,1226.48 
  "/>
</svg>
