<?xml version="1.0" encoding="utf-8"?>
<svg xmlns="http://www.w3.org/2000/svg" xmlns:xlink="http://www.w3.org/1999/xlink" width="672" height="480" viewBox="0 0 2688 1920">
<defs>
  <clipPath id="clip390">
    <rect x="0" y="0" width="2688" height="1920"/>
  </clipPath>
</defs>
<path clip-path="url(#clip390)" d="
M0 1920 L2688 1920 L2688 0 L0 0  Z
  " fill="#ffffff" fill-rule="evenodd" fill-opacity="1"/>
<defs>
  <clipPath id="clip391">
    <rect x="537" y="0" width="1883" height="1883"/>
  </clipPath>
</defs>
<path clip-path="url(#clip390)" d="
M150.358 1800.78 L2640.76 1800.78 L2640.76 47.2441 L150.358 47.2441  Z
  " fill="#ffffff" fill-rule="evenodd" fill-opacity="1"/>
<defs>
  <clipPath id="clip392">
    <rect x="150" y="47" width="2491" height="1755"/>
  </clipPath>
</defs>
<polyline clip-path="url(#clip392)" style="stroke:#000000; stroke-linecap:round; stroke-linejoin:round; stroke-width:2; stroke-opacity:0.1; fill:none" points="
  434.426,1800.78 434.426,47.2441 
  "/>
<polyline clip-path="url(#clip392)" style="stroke:#000000; stroke-linecap:round; stroke-linejoin:round; stroke-width:2; stroke-opacity:0.1; fill:none" points="
  861.595,1800.78 861.595,47.2441 
  "/>
<polyline clip-path="url(#clip392)" style="stroke:#000000; stroke-linecap:round; stroke-linejoin:round; stroke-width:2; stroke-opacity:0.1; fill:none" points="
  1288.76,1800.78 1288.76,47.2441 
  "/>
<polyline clip-path="url(#clip392)" style="stroke:#000000; stroke-linecap:round; stroke-linejoin:round; stroke-width:2; stroke-opacity:0.1; fill:none" points="
  1715.93,1800.78 1715.93,47.2441 
  "/>
<polyline clip-path="url(#clip392)" style="stroke:#000000; stroke-linecap:round; stroke-linejoin:round; stroke-width:2; stroke-opacity:0.1; fill:none" points="
  2143.1,1800.78 2143.1,47.2441 
  "/>
<polyline clip-path="url(#clip392)" style="stroke:#000000; stroke-linecap:round; stroke-linejoin:round; stroke-width:2; stroke-opacity:0.1; fill:none" points="
  2570.27,1800.78 2570.27,47.2441 
  "/>
<polyline clip-path="url(#clip390)" style="stroke:#000000; stroke-linecap:round; stroke-linejoin:round; stroke-width:4; stroke-opacity:1; fill:none" points="
  150.358,1800.78 2640.76,1800.78 
  "/>
<polyline clip-path="url(#clip390)" style="stroke:#000000; stroke-linecap:round; stroke-linejoin:round; stroke-width:4; stroke-opacity:1; fill:none" points="
  434.426,1800.78 434.426,1781.88 
  "/>
<polyline clip-path="url(#clip390)" style="stroke:#000000; stroke-linecap:round; stroke-linejoin:round; stroke-width:4; stroke-opacity:1; fill:none" points="
  861.595,1800.78 861.595,1781.88 
  "/>
<polyline clip-path="url(#clip390)" style="stroke:#000000; stroke-linecap:round; stroke-linejoin:round; stroke-width:4; stroke-opacity:1; fill:none" points="
  1288.76,1800.78 1288.76,1781.88 
  "/>
<polyline clip-path="url(#clip390)" style="stroke:#000000; stroke-linecap:round; stroke-linejoin:round; stroke-width:4; stroke-opacity:1; fill:none" points="
  1715.93,1800.78 1715.93,1781.88 
  "/>
<polyline clip-path="url(#clip390)" style="stroke:#000000; stroke-linecap:round; stroke-linejoin:round; stroke-width:4; stroke-opacity:1; fill:none" points="
  2143.1,1800.78 2143.1,1781.88 
  "/>
<polyline clip-path="url(#clip390)" style="stroke:#000000; stroke-linecap:round; stroke-linejoin:round; stroke-width:4; stroke-opacity:1; fill:none" points="
  2570.27,1800.78 2570.27,1781.88 
  "/>
<path clip-path="url(#clip390)" d="M401.579 1861.55 L409.217 1861.55 L409.217 1835.18 L400.907 1836.85 L400.907 1832.59 L409.171 1830.92 L413.847 1830.92 L413.847 1861.55 L421.486 1861.55 L421.486 1865.48 L401.579 1865.48 L401.579 1861.55 Z" fill="#000000" fill-rule="evenodd" fill-opacity="1" /><path clip-path="url(#clip390)" d="M430.93 1859.6 L435.814 1859.6 L435.814 1865.48 L430.93 1865.48 L430.93 1859.6 Z" fill="#000000" fill-rule="evenodd" fill-opacity="1" /><path clip-path="url(#clip390)" d="M456 1834 Q452.388 1834 450.56 1837.57 Q448.754 1841.11 448.754 1848.24 Q448.754 1855.34 450.56 1858.91 Q452.388 1862.45 456 1862.45 Q459.634 1862.45 461.439 1858.91 Q463.268 1855.34 463.268 1848.24 Q463.268 1841.11 461.439 1837.57 Q459.634 1834 456 1834 M456 1830.3 Q461.81 1830.3 464.865 1834.9 Q467.944 1839.49 467.944 1848.24 Q467.944 1856.96 464.865 1861.57 Q461.81 1866.15 456 1866.15 Q450.189 1866.15 447.111 1861.57 Q444.055 1856.96 444.055 1848.24 Q444.055 1839.49 447.111 1834.9 Q450.189 1830.3 456 1830.3 Z" fill="#000000" fill-rule="evenodd" fill-opacity="1" /><path clip-path="url(#clip390)" d="M829.246 1861.55 L836.885 1861.55 L836.885 1835.18 L828.574 1836.85 L828.574 1832.59 L836.838 1830.92 L841.514 1830.92 L841.514 1861.55 L849.153 1861.55 L849.153 1865.48 L829.246 1865.48 L829.246 1861.55 Z" fill="#000000" fill-rule="evenodd" fill-opacity="1" /><path clip-path="url(#clip390)" d="M858.597 1859.6 L863.482 1859.6 L863.482 1865.48 L858.597 1865.48 L858.597 1859.6 Z" fill="#000000" fill-rule="evenodd" fill-opacity="1" /><path clip-path="url(#clip390)" d="M873.713 1830.92 L892.069 1830.92 L892.069 1834.86 L877.995 1834.86 L877.995 1843.33 Q879.014 1842.98 880.032 1842.82 Q881.051 1842.64 882.07 1842.64 Q887.857 1842.64 891.236 1845.81 Q894.616 1848.98 894.616 1854.4 Q894.616 1859.97 891.144 1863.08 Q887.671 1866.15 881.352 1866.15 Q879.176 1866.15 876.907 1865.78 Q874.662 1865.41 872.255 1864.67 L872.255 1859.97 Q874.338 1861.11 876.56 1861.66 Q878.782 1862.22 881.259 1862.22 Q885.264 1862.22 887.602 1860.11 Q889.94 1858.01 889.94 1854.4 Q889.94 1850.78 887.602 1848.68 Q885.264 1846.57 881.259 1846.57 Q879.384 1846.57 877.509 1846.99 Q875.658 1847.4 873.713 1848.28 L873.713 1830.92 Z" fill="#000000" fill-rule="evenodd" fill-opacity="1" /><path clip-path="url(#clip390)" d="M1260 1861.55 L1276.32 1861.55 L1276.32 1865.48 L1254.38 1865.48 L1254.38 1861.55 Q1257.04 1858.79 1261.62 1854.16 Q1266.23 1849.51 1267.41 1848.17 Q1269.66 1845.65 1270.54 1843.91 Q1271.44 1842.15 1271.44 1840.46 Q1271.44 1837.71 1269.49 1835.97 Q1267.57 1834.23 1264.47 1834.23 Q1262.27 1834.23 1259.82 1835 Q1257.39 1835.76 1254.61 1837.31 L1254.61 1832.59 Q1257.43 1831.46 1259.89 1830.88 Q1262.34 1830.3 1264.38 1830.3 Q1269.75 1830.3 1272.94 1832.98 Q1276.14 1835.67 1276.14 1840.16 Q1276.14 1842.29 1275.33 1844.21 Q1274.54 1846.11 1272.43 1848.7 Q1271.85 1849.37 1268.75 1852.59 Q1265.65 1855.78 1260 1861.55 Z" fill="#000000" fill-rule="evenodd" fill-opacity="1" /><path clip-path="url(#clip390)" d="M1286.14 1859.6 L1291.02 1859.6 L1291.02 1865.48 L1286.14 1865.48 L1286.14 1859.6 Z" fill="#000000" fill-rule="evenodd" fill-opacity="1" /><path clip-path="url(#clip390)" d="M1311.21 1834 Q1307.6 1834 1305.77 1837.57 Q1303.96 1841.11 1303.96 1848.24 Q1303.96 1855.34 1305.77 1858.91 Q1307.6 1862.45 1311.21 1862.45 Q1314.84 1862.45 1316.65 1858.91 Q1318.48 1855.34 1318.48 1848.24 Q1318.48 1841.11 1316.65 1837.57 Q1314.84 1834 1311.21 1834 M1311.21 1830.3 Q1317.02 1830.3 1320.07 1834.9 Q1323.15 1839.49 1323.15 1848.24 Q1323.15 1856.96 1320.07 1861.57 Q1317.02 1866.15 1311.21 1866.15 Q1305.4 1866.15 1302.32 1861.57 Q1299.26 1856.96 1299.26 1848.24 Q1299.26 1839.49 1302.32 1834.9 Q1305.4 1830.3 1311.21 1830.3 Z" fill="#000000" fill-rule="evenodd" fill-opacity="1" /><path clip-path="url(#clip390)" d="M1687.67 1861.55 L1703.99 1861.55 L1703.99 1865.48 L1682.05 1865.48 L1682.05 1861.55 Q1684.71 1858.79 1689.29 1854.16 Q1693.9 1849.51 1695.08 1848.17 Q1697.32 1845.65 1698.2 1843.91 Q1699.11 1842.15 1699.11 1840.46 Q1699.11 1837.71 1697.16 1835.97 Q1695.24 1834.23 1692.14 1834.23 Q1689.94 1834.23 1687.49 1835 Q1685.05 1835.76 1682.28 1837.31 L1682.28 1832.59 Q1685.1 1831.46 1687.55 1830.88 Q1690.01 1830.3 1692.05 1830.3 Q1697.42 1830.3 1700.61 1832.98 Q1703.8 1835.67 1703.8 1840.16 Q1703.8 1842.29 1702.99 1844.21 Q1702.21 1846.11 1700.1 1848.7 Q1699.52 1849.37 1696.42 1852.59 Q1693.32 1855.78 1687.67 1861.55 Z" fill="#000000" fill-rule="evenodd" fill-opacity="1" /><path clip-path="url(#clip390)" d="M1713.8 1859.6 L1718.69 1859.6 L1718.69 1865.48 L1713.8 1865.48 L1713.8 1859.6 Z" fill="#000000" fill-rule="evenodd" fill-opacity="1" /><path clip-path="url(#clip390)" d="M1728.92 1830.92 L1747.28 1830.92 L1747.28 1834.86 L1733.2 1834.86 L1733.2 1843.33 Q1734.22 1842.98 1735.24 1842.82 Q1736.26 1842.64 1737.28 1842.64 Q1743.06 1842.64 1746.44 1845.81 Q1749.82 1848.98 1749.82 1854.4 Q1749.82 1859.97 1746.35 1863.08 Q1742.88 1866.15 1736.56 1866.15 Q1734.38 1866.15 1732.11 1865.78 Q1729.87 1865.41 1727.46 1864.67 L1727.46 1859.97 Q1729.55 1861.11 1731.77 1861.66 Q1733.99 1862.22 1736.47 1862.22 Q1740.47 1862.22 1742.81 1860.11 Q1745.15 1858.01 1745.15 1854.4 Q1745.15 1850.78 1742.81 1848.68 Q1740.47 1846.57 1736.47 1846.57 Q1734.59 1846.57 1732.72 1846.99 Q1730.86 1847.4 1728.92 1848.28 L1728.92 1830.92 Z" fill="#000000" fill-rule="evenodd" fill-opacity="1" /><path clip-path="url(#clip390)" d="M2124.41 1846.85 Q2127.77 1847.57 2129.64 1849.84 Q2131.54 1852.1 2131.54 1855.44 Q2131.54 1860.55 2128.02 1863.35 Q2124.5 1866.15 2118.02 1866.15 Q2115.85 1866.15 2113.53 1865.71 Q2111.24 1865.3 2108.79 1864.44 L2108.79 1859.93 Q2110.73 1861.06 2113.05 1861.64 Q2115.36 1862.22 2117.88 1862.22 Q2122.28 1862.22 2124.57 1860.48 Q2126.89 1858.75 2126.89 1855.44 Q2126.89 1852.38 2124.74 1850.67 Q2122.61 1848.93 2118.79 1848.93 L2114.76 1848.93 L2114.76 1845.09 L2118.97 1845.09 Q2122.42 1845.09 2124.25 1843.72 Q2126.08 1842.34 2126.08 1839.74 Q2126.08 1837.08 2124.18 1835.67 Q2122.3 1834.23 2118.79 1834.23 Q2116.87 1834.23 2114.67 1834.65 Q2112.47 1835.07 2109.83 1835.95 L2109.83 1831.78 Q2112.49 1831.04 2114.81 1830.67 Q2117.14 1830.3 2119.2 1830.3 Q2124.53 1830.3 2127.63 1832.73 Q2130.73 1835.14 2130.73 1839.26 Q2130.73 1842.13 2129.09 1844.12 Q2127.44 1846.09 2124.41 1846.85 Z" fill="#000000" fill-rule="evenodd" fill-opacity="1" /><path clip-path="url(#clip390)" d="M2140.41 1859.6 L2145.29 1859.6 L2145.29 1865.48 L2140.41 1865.48 L2140.41 1859.6 Z" fill="#000000" fill-rule="evenodd" fill-opacity="1" /><path clip-path="url(#clip390)" d="M2165.48 1834 Q2161.86 1834 2160.04 1837.57 Q2158.23 1841.11 2158.23 1848.24 Q2158.23 1855.34 2160.04 1858.91 Q2161.86 1862.45 2165.48 1862.45 Q2169.11 1862.45 2170.92 1858.91 Q2172.74 1855.34 2172.74 1848.24 Q2172.74 1841.11 2170.92 1837.57 Q2169.11 1834 2165.48 1834 M2165.48 1830.3 Q2171.29 1830.3 2174.34 1834.9 Q2177.42 1839.49 2177.42 1848.24 Q2177.42 1856.96 2174.34 1861.57 Q2171.29 1866.15 2165.48 1866.15 Q2159.67 1866.15 2156.59 1861.57 Q2153.53 1856.96 2153.53 1848.24 Q2153.53 1839.49 2156.59 1834.9 Q2159.67 1830.3 2165.48 1830.3 Z" fill="#000000" fill-rule="evenodd" fill-opacity="1" /><path clip-path="url(#clip390)" d="M2552.08 1846.85 Q2555.44 1847.57 2557.31 1849.84 Q2559.21 1852.1 2559.21 1855.44 Q2559.21 1860.55 2555.69 1863.35 Q2552.17 1866.15 2545.69 1866.15 Q2543.51 1866.15 2541.2 1865.71 Q2538.91 1865.3 2536.45 1864.44 L2536.45 1859.93 Q2538.4 1861.06 2540.71 1861.64 Q2543.03 1862.22 2545.55 1862.22 Q2549.95 1862.22 2552.24 1860.48 Q2554.56 1858.75 2554.56 1855.44 Q2554.56 1852.38 2552.4 1850.67 Q2550.27 1848.93 2546.45 1848.93 L2542.43 1848.93 L2542.43 1845.09 L2546.64 1845.09 Q2550.09 1845.09 2551.92 1843.72 Q2553.75 1842.34 2553.75 1839.74 Q2553.75 1837.08 2551.85 1835.67 Q2549.97 1834.23 2546.45 1834.23 Q2544.53 1834.23 2542.33 1834.65 Q2540.13 1835.07 2537.5 1835.95 L2537.5 1831.78 Q2540.16 1831.04 2542.47 1830.67 Q2544.81 1830.3 2546.87 1830.3 Q2552.19 1830.3 2555.3 1832.73 Q2558.4 1835.14 2558.4 1839.26 Q2558.4 1842.13 2556.75 1844.12 Q2555.11 1846.09 2552.08 1846.85 Z" fill="#000000" fill-rule="evenodd" fill-opacity="1" /><path clip-path="url(#clip390)" d="M2568.07 1859.6 L2572.96 1859.6 L2572.96 1865.48 L2568.07 1865.48 L2568.07 1859.6 Z" fill="#000000" fill-rule="evenodd" fill-opacity="1" /><path clip-path="url(#clip390)" d="M2583.19 1830.92 L2601.55 1830.92 L2601.55 1834.86 L2587.47 1834.86 L2587.47 1843.33 Q2588.49 1842.98 2589.51 1842.82 Q2590.53 1842.64 2591.55 1842.64 Q2597.33 1842.64 2600.71 1845.81 Q2604.09 1848.98 2604.09 1854.4 Q2604.09 1859.97 2600.62 1863.08 Q2597.15 1866.15 2590.83 1866.15 Q2588.65 1866.15 2586.38 1865.78 Q2584.14 1865.41 2581.73 1864.67 L2581.73 1859.97 Q2583.81 1861.11 2586.04 1861.66 Q2588.26 1862.22 2590.74 1862.22 Q2594.74 1862.22 2597.08 1860.11 Q2599.42 1858.01 2599.42 1854.4 Q2599.42 1850.78 2597.08 1848.68 Q2594.74 1846.57 2590.74 1846.57 Q2588.86 1846.57 2586.99 1846.99 Q2585.13 1847.4 2583.19 1848.28 L2583.19 1830.92 Z" fill="#000000" fill-rule="evenodd" fill-opacity="1" /><polyline clip-path="url(#clip392)" style="stroke:#000000; stroke-linecap:round; stroke-linejoin:round; stroke-width:2; stroke-opacity:0.1; fill:none" points="
  150.358,1762.13 2640.76,1762.13 
  "/>
<polyline clip-path="url(#clip392)" style="stroke:#000000; stroke-linecap:round; stroke-linejoin:round; stroke-width:2; stroke-opacity:0.1; fill:none" points="
  150.358,1273.25 2640.76,1273.25 
  "/>
<polyline clip-path="url(#clip392)" style="stroke:#000000; stroke-linecap:round; stroke-linejoin:round; stroke-width:2; stroke-opacity:0.1; fill:none" points="
  150.358,784.365 2640.76,784.365 
  "/>
<polyline clip-path="url(#clip392)" style="stroke:#000000; stroke-linecap:round; stroke-linejoin:round; stroke-width:2; stroke-opacity:0.1; fill:none" points="
  150.358,295.481 2640.76,295.481 
  "/>
<polyline clip-path="url(#clip390)" style="stroke:#000000; stroke-linecap:round; stroke-linejoin:round; stroke-width:4; stroke-opacity:1; fill:none" points="
  150.358,1800.78 150.358,47.2441 
  "/>
<polyline clip-path="url(#clip390)" style="stroke:#000000; stroke-linecap:round; stroke-linejoin:round; stroke-width:4; stroke-opacity:1; fill:none" points="
  150.358,1762.13 169.256,1762.13 
  "/>
<polyline clip-path="url(#clip390)" style="stroke:#000000; stroke-linecap:round; stroke-linejoin:round; stroke-width:4; stroke-opacity:1; fill:none" points="
  150.358,1273.25 169.256,1273.25 
  "/>
<polyline clip-path="url(#clip390)" style="stroke:#000000; stroke-linecap:round; stroke-linejoin:round; stroke-width:4; stroke-opacity:1; fill:none" points="
  150.358,784.365 169.256,784.365 
  "/>
<polyline clip-path="url(#clip390)" style="stroke:#000000; stroke-linecap:round; stroke-linejoin:round; stroke-width:4; stroke-opacity:1; fill:none" points="
  150.358,295.481 169.256,295.481 
  "/>
<path clip-path="url(#clip390)" d="M49.9225 1762.58 L79.5983 1762.58 L79.5983 1766.52 L49.9225 1766.52 L49.9225 1762.58 Z" fill="#000000" fill-rule="evenodd" fill-opacity="1" /><path clip-path="url(#clip390)" d="M93.7186 1775.48 L110.038 1775.48 L110.038 1779.41 L88.0936 1779.41 L88.0936 1775.48 Q90.7556 1772.72 95.3389 1768.09 Q99.9454 1763.44 101.126 1762.1 Q103.371 1759.57 104.251 1757.84 Q105.154 1756.08 105.154 1754.39 Q105.154 1751.63 103.209 1749.9 Q101.288 1748.16 98.1861 1748.16 Q95.9871 1748.16 93.5334 1748.93 Q91.1028 1749.69 88.3251 1751.24 L88.3251 1746.52 Q91.1491 1745.38 93.6028 1744.81 Q96.0565 1744.23 98.0935 1744.23 Q103.464 1744.23 106.658 1746.91 Q109.853 1749.6 109.853 1754.09 Q109.853 1756.22 109.043 1758.14 Q108.256 1760.04 106.149 1762.63 Q105.57 1763.3 102.469 1766.52 Q99.3667 1769.71 93.7186 1775.48 Z" fill="#000000" fill-rule="evenodd" fill-opacity="1" /><path clip-path="url(#clip390)" d="M49.5521 1273.7 L79.2279 1273.7 L79.2279 1277.63 L49.5521 1277.63 L49.5521 1273.7 Z" fill="#000000" fill-rule="evenodd" fill-opacity="1" /><path clip-path="url(#clip390)" d="M90.1306 1286.59 L97.7695 1286.59 L97.7695 1260.23 L89.4593 1261.89 L89.4593 1257.63 L97.7232 1255.97 L102.399 1255.97 L102.399 1286.59 L110.038 1286.59 L110.038 1290.53 L90.1306 1290.53 L90.1306 1286.59 Z" fill="#000000" fill-rule="evenodd" fill-opacity="1" /><path clip-path="url(#clip390)" d="M98.0935 770.163 Q94.4824 770.163 92.6537 773.728 Q90.8482 777.27 90.8482 784.4 Q90.8482 791.506 92.6537 795.071 Q94.4824 798.612 98.0935 798.612 Q101.728 798.612 103.533 795.071 Q105.362 791.506 105.362 784.4 Q105.362 777.27 103.533 773.728 Q101.728 770.163 98.0935 770.163 M98.0935 766.46 Q103.904 766.46 106.959 771.066 Q110.038 775.65 110.038 784.4 Q110.038 793.126 106.959 797.733 Q103.904 802.316 98.0935 802.316 Q92.2834 802.316 89.2047 797.733 Q86.1492 793.126 86.1492 784.4 Q86.1492 775.65 89.2047 771.066 Q92.2834 766.46 98.0935 766.46 Z" fill="#000000" fill-rule="evenodd" fill-opacity="1" /><path clip-path="url(#clip390)" d="M90.1306 308.826 L97.7695 308.826 L97.7695 282.461 L89.4593 284.127 L89.4593 279.868 L97.7232 278.201 L102.399 278.201 L102.399 308.826 L110.038 308.826 L110.038 312.761 L90.1306 312.761 L90.1306 308.826 Z" fill="#000000" fill-rule="evenodd" fill-opacity="1" /><polyline clip-path="url(#clip392)" style="stroke:#009af9; stroke-linecap:round; stroke-linejoin:round; stroke-width:4; stroke-opacity:1; fill:none" points="
  220.841,1751.15 224.665,1723.31 228.489,1695.93 232.313,1669.02 236.137,1642.56 244.977,1583.13 253.816,1526.06 262.656,1471.29 271.496,1418.76 280.335,1368.4 
  289.175,1320.16 298.015,1273.99 306.854,1229.83 315.694,1187.62 324.533,1147.31 333.373,1108.85 342.213,1072.18 351.052,1037.25 359.892,1004.01 368.732,972.416 
  377.571,942.413 388.196,908.392 398.82,876.522 409.445,846.721 420.069,818.912 430.694,793.019 441.318,768.966 451.943,746.681 462.568,726.091 471.55,709.955 
  480.533,694.94 489.516,681.005 498.499,668.112 516.465,645.296 534.431,626.189 553.947,609.303 573.463,596.102 592.978,586.252 612.494,579.432 630.486,575.569 
  648.478,573.799 666.47,573.908 684.462,575.693 703.751,579.25 723.04,584.288 742.33,590.597 761.619,597.979 806.316,618.216 851.013,641.211 930.456,683.777 
  1000.12,718.228 1038.1,734.616 1076.07,748.867 1114.27,760.831 1152.48,770.306 1194.71,777.868 1236.95,782.465 1277.14,784.273 1317.33,783.837 1400.9,777.174 
  1471.25,767.625 1557.14,754.542 1635.82,744.367 1672.15,741.023 1708.48,738.826 1745.29,737.924 1782.09,738.45 1823.34,740.773 1864.59,744.854 1901.96,749.899 
  1939.34,755.959 2024.93,771.435 2104.18,782.558 2123.71,783.889 2143.24,784.365 2162.77,783.816 2182.3,782.061 2201.27,779.019 2220.23,774.464 2239.2,768.195 
  2258.16,759.996 2277.6,749.347 2297.04,736.167 2316.48,720.182 2335.92,701.098 2346.57,689.221 2357.22,676.269 2367.87,662.19 2378.52,646.927 2389.17,630.423 
  2399.82,612.62 2410.47,593.458 2421.12,572.875 2436.59,540.313 2452.06,504.42 2467.53,464.988 2483,421.802 2490.74,398.733 2498.47,374.642 2506.21,349.5 
  2513.94,323.277 2529.41,267.471 2544.88,206.979 2551.23,180.744 2557.58,153.66 2563.93,125.709 2570.27,96.8724 
  "/>
<path clip-path="url(#clip390)" d="
M2228.6 209.375 L2557.74 209.375 L2557.74 105.695 L2228.6 105.695  Z
  " fill="#ffffff" fill-rule="evenodd" fill-opacity="1"/>
<polyline clip-path="url(#clip390)" style="stroke:#000000; stroke-linecap:round; stroke-linejoin:round; stroke-width:4; stroke-opacity:1; fill:none" points="
  2228.6,209.375 2557.74,209.375 2557.74,105.695 2228.6,105.695 2228.6,209.375 
  "/>
<polyline clip-path="url(#clip390)" style="stroke:#009af9; stroke-linecap:round; stroke-linejoin:round; stroke-width:4; stroke-opacity:1; fill:none" points="
  2256.27,157.535 2422.3,157.535 
  "/>
<path clip-path="url(#clip390)" d="M2463.81 177.223 Q2462.01 181.852 2460.29 183.264 Q2458.58 184.676 2455.71 184.676 L2452.31 184.676 L2452.31 181.112 L2454.81 181.112 Q2456.57 181.112 2457.54 180.278 Q2458.51 179.445 2459.69 176.343 L2460.46 174.399 L2449.97 148.889 L2454.48 148.889 L2462.59 169.167 L2470.69 148.889 L2475.2 148.889 L2463.81 177.223 Z" fill="#000000" fill-rule="evenodd" fill-opacity="1" /><path clip-path="url(#clip390)" d="M2482.49 170.88 L2490.13 170.88 L2490.13 144.515 L2481.82 146.181 L2481.82 141.922 L2490.09 140.255 L2494.76 140.255 L2494.76 170.88 L2502.4 170.88 L2502.4 174.815 L2482.49 174.815 L2482.49 170.88 Z" fill="#000000" fill-rule="evenodd" fill-opacity="1" /></svg>
