<?xml version="1.0" encoding="utf-8"?>
<svg xmlns="http://www.w3.org/2000/svg" xmlns:xlink="http://www.w3.org/1999/xlink" width="672" height="480" viewBox="0 0 2688 1920">
<defs>
  <clipPath id="clip340">
    <rect x="0" y="0" width="2688" height="1920"/>
  </clipPath>
</defs>
<path clip-path="url(#clip340)" d="
M0 1920 L2688 1920 L2688 0 L0 0  Z
  " fill="#ffffff" fill-rule="evenodd" fill-opacity="1"/>
<defs>
  <clipPath id="clip341">
    <rect x="537" y="0" width="1883" height="1883"/>
  </clipPath>
</defs>
<path clip-path="url(#clip340)" d="
M196.816 1800.78 L2640.76 1800.78 L2640.76 47.2441 L196.816 47.2441  Z
  " fill="#ffffff" fill-rule="evenodd" fill-opacity="1"/>
<defs>
  <clipPath id="clip342">
    <rect x="196" y="47" width="2445" height="1755"/>
  </clipPath>
</defs>
<polyline clip-path="url(#clip342)" style="stroke:#000000; stroke-linecap:butt; stroke-linejoin:round; stroke-width:2; stroke-opacity:0.1; fill:none" points="
  501.415,1800.78 501.415,47.2441 
  "/>
<polyline clip-path="url(#clip342)" style="stroke:#000000; stroke-linecap:butt; stroke-linejoin:round; stroke-width:2; stroke-opacity:0.1; fill:none" points="
  807.206,1800.78 807.206,47.2441 
  "/>
<polyline clip-path="url(#clip342)" style="stroke:#000000; stroke-linecap:butt; stroke-linejoin:round; stroke-width:2; stroke-opacity:0.1; fill:none" points="
  1113,1800.78 1113,47.2441 
  "/>
<polyline clip-path="url(#clip342)" style="stroke:#000000; stroke-linecap:butt; stroke-linejoin:round; stroke-width:2; stroke-opacity:0.1; fill:none" points="
  1418.79,1800.78 1418.79,47.2441 
  "/>
<polyline clip-path="url(#clip342)" style="stroke:#000000; stroke-linecap:butt; stroke-linejoin:round; stroke-width:2; stroke-opacity:0.1; fill:none" points="
  1724.58,1800.78 1724.58,47.2441 
  "/>
<polyline clip-path="url(#clip342)" style="stroke:#000000; stroke-linecap:butt; stroke-linejoin:round; stroke-width:2; stroke-opacity:0.1; fill:none" points="
  2030.37,1800.78 2030.37,47.2441 
  "/>
<polyline clip-path="url(#clip342)" style="stroke:#000000; stroke-linecap:butt; stroke-linejoin:round; stroke-width:2; stroke-opacity:0.1; fill:none" points="
  2336.16,1800.78 2336.16,47.2441 
  "/>
<polyline clip-path="url(#clip340)" style="stroke:#000000; stroke-linecap:butt; stroke-linejoin:round; stroke-width:4; stroke-opacity:1; fill:none" points="
  196.816,1800.78 2640.76,1800.78 
  "/>
<polyline clip-path="url(#clip340)" style="stroke:#000000; stroke-linecap:butt; stroke-linejoin:round; stroke-width:4; stroke-opacity:1; fill:none" points="
  501.415,1800.78 501.415,1781.88 
  "/>
<polyline clip-path="url(#clip340)" style="stroke:#000000; stroke-linecap:butt; stroke-linejoin:round; stroke-width:4; stroke-opacity:1; fill:none" points="
  807.206,1800.78 807.206,1781.88 
  "/>
<polyline clip-path="url(#clip340)" style="stroke:#000000; stroke-linecap:butt; stroke-linejoin:round; stroke-width:4; stroke-opacity:1; fill:none" points="
  1113,1800.78 1113,1781.88 
  "/>
<polyline clip-path="url(#clip340)" style="stroke:#000000; stroke-linecap:butt; stroke-linejoin:round; stroke-width:4; stroke-opacity:1; fill:none" points="
  1418.79,1800.78 1418.79,1781.88 
  "/>
<polyline clip-path="url(#clip340)" style="stroke:#000000; stroke-linecap:butt; stroke-linejoin:round; stroke-width:4; stroke-opacity:1; fill:none" points="
  1724.58,1800.78 1724.58,1781.88 
  "/>
<polyline clip-path="url(#clip340)" style="stroke:#000000; stroke-linecap:butt; stroke-linejoin:round; stroke-width:4; stroke-opacity:1; fill:none" points="
  2030.37,1800.78 2030.37,1781.88 
  "/>
<polyline clip-path="url(#clip340)" style="stroke:#000000; stroke-linecap:butt; stroke-linejoin:round; stroke-width:4; stroke-opacity:1; fill:none" points="
  2336.16,1800.78 2336.16,1781.88 
  "/>
<path clip-path="url(#clip340)" d="M448.441 1848.65 L478.117 1848.65 L478.117 1852.59 L448.441 1852.59 L448.441 1848.65 Z" fill="#000000" fill-rule="evenodd" fill-opacity="1" /><path clip-path="url(#clip340)" d="M487.029 1830.92 L509.251 1830.92 L509.251 1832.91 L496.705 1865.48 L491.821 1865.48 L503.626 1834.86 L487.029 1834.86 L487.029 1830.92 Z" fill="#000000" fill-rule="evenodd" fill-opacity="1" /><path clip-path="url(#clip340)" d="M518.371 1859.6 L523.256 1859.6 L523.256 1865.48 L518.371 1865.48 L518.371 1859.6 Z" fill="#000000" fill-rule="evenodd" fill-opacity="1" /><path clip-path="url(#clip340)" d="M533.487 1830.92 L551.843 1830.92 L551.843 1834.86 L537.769 1834.86 L537.769 1843.33 Q538.788 1842.98 539.806 1842.82 Q540.825 1842.64 541.843 1842.64 Q547.63 1842.64 551.01 1845.81 Q554.39 1848.98 554.39 1854.4 Q554.39 1859.97 550.917 1863.08 Q547.445 1866.15 541.126 1866.15 Q538.95 1866.15 536.681 1865.78 Q534.436 1865.41 532.029 1864.67 L532.029 1859.97 Q534.112 1861.11 536.334 1861.66 Q538.556 1862.22 541.033 1862.22 Q545.038 1862.22 547.376 1860.11 Q549.714 1858.01 549.714 1854.4 Q549.714 1850.78 547.376 1848.68 Q545.038 1846.57 541.033 1846.57 Q539.158 1846.57 537.283 1846.99 Q535.431 1847.4 533.487 1848.28 L533.487 1830.92 Z" fill="#000000" fill-rule="evenodd" fill-opacity="1" /><path clip-path="url(#clip340)" d="M753.734 1848.65 L783.409 1848.65 L783.409 1852.59 L753.734 1852.59 L753.734 1848.65 Z" fill="#000000" fill-rule="evenodd" fill-opacity="1" /><path clip-path="url(#clip340)" d="M793.548 1830.92 L811.905 1830.92 L811.905 1834.86 L797.831 1834.86 L797.831 1843.33 Q798.849 1842.98 799.868 1842.82 Q800.886 1842.64 801.905 1842.64 Q807.692 1842.64 811.071 1845.81 Q814.451 1848.98 814.451 1854.4 Q814.451 1859.97 810.979 1863.08 Q807.507 1866.15 801.187 1866.15 Q799.011 1866.15 796.743 1865.78 Q794.497 1865.41 792.09 1864.67 L792.09 1859.97 Q794.173 1861.11 796.395 1861.66 Q798.618 1862.22 801.095 1862.22 Q805.099 1862.22 807.437 1860.11 Q809.775 1858.01 809.775 1854.4 Q809.775 1850.78 807.437 1848.68 Q805.099 1846.57 801.095 1846.57 Q799.22 1846.57 797.345 1846.99 Q795.493 1847.4 793.548 1848.28 L793.548 1830.92 Z" fill="#000000" fill-rule="evenodd" fill-opacity="1" /><path clip-path="url(#clip340)" d="M823.664 1859.6 L828.548 1859.6 L828.548 1865.48 L823.664 1865.48 L823.664 1859.6 Z" fill="#000000" fill-rule="evenodd" fill-opacity="1" /><path clip-path="url(#clip340)" d="M848.733 1834 Q845.122 1834 843.293 1837.57 Q841.488 1841.11 841.488 1848.24 Q841.488 1855.34 843.293 1858.91 Q845.122 1862.45 848.733 1862.45 Q852.367 1862.45 854.173 1858.91 Q856.002 1855.34 856.002 1848.24 Q856.002 1841.11 854.173 1837.57 Q852.367 1834 848.733 1834 M848.733 1830.3 Q854.543 1830.3 857.599 1834.9 Q860.678 1839.49 860.678 1848.24 Q860.678 1856.96 857.599 1861.57 Q854.543 1866.15 848.733 1866.15 Q842.923 1866.15 839.844 1861.57 Q836.789 1856.96 836.789 1848.24 Q836.789 1839.49 839.844 1834.9 Q842.923 1830.3 848.733 1830.3 Z" fill="#000000" fill-rule="evenodd" fill-opacity="1" /><path clip-path="url(#clip340)" d="M1060.02 1848.65 L1089.7 1848.65 L1089.7 1852.59 L1060.02 1852.59 L1060.02 1848.65 Z" fill="#000000" fill-rule="evenodd" fill-opacity="1" /><path clip-path="url(#clip340)" d="M1103.82 1861.55 L1120.14 1861.55 L1120.14 1865.48 L1098.19 1865.48 L1098.19 1861.55 Q1100.85 1858.79 1105.44 1854.16 Q1110.04 1849.51 1111.22 1848.17 Q1113.47 1845.65 1114.35 1843.91 Q1115.25 1842.15 1115.25 1840.46 Q1115.25 1837.71 1113.31 1835.97 Q1111.39 1834.23 1108.29 1834.23 Q1106.09 1834.23 1103.63 1835 Q1101.2 1835.76 1098.42 1837.31 L1098.42 1832.59 Q1101.25 1831.46 1103.7 1830.88 Q1106.16 1830.3 1108.19 1830.3 Q1113.56 1830.3 1116.76 1832.98 Q1119.95 1835.67 1119.95 1840.16 Q1119.95 1842.29 1119.14 1844.21 Q1118.35 1846.11 1116.25 1848.7 Q1115.67 1849.37 1112.57 1852.59 Q1109.47 1855.78 1103.82 1861.55 Z" fill="#000000" fill-rule="evenodd" fill-opacity="1" /><path clip-path="url(#clip340)" d="M1129.95 1859.6 L1134.84 1859.6 L1134.84 1865.48 L1129.95 1865.48 L1129.95 1859.6 Z" fill="#000000" fill-rule="evenodd" fill-opacity="1" /><path clip-path="url(#clip340)" d="M1145.07 1830.92 L1163.42 1830.92 L1163.42 1834.86 L1149.35 1834.86 L1149.35 1843.33 Q1150.37 1842.98 1151.39 1842.82 Q1152.41 1842.64 1153.42 1842.64 Q1159.21 1842.64 1162.59 1845.81 Q1165.97 1848.98 1165.97 1854.4 Q1165.97 1859.97 1162.5 1863.08 Q1159.03 1866.15 1152.71 1866.15 Q1150.53 1866.15 1148.26 1865.78 Q1146.02 1865.41 1143.61 1864.67 L1143.61 1859.97 Q1145.69 1861.11 1147.91 1861.66 Q1150.14 1862.22 1152.61 1862.22 Q1156.62 1862.22 1158.96 1860.11 Q1161.29 1858.01 1161.29 1854.4 Q1161.29 1850.78 1158.96 1848.68 Q1156.62 1846.57 1152.61 1846.57 Q1150.74 1846.57 1148.86 1846.99 Q1147.01 1847.4 1145.07 1848.28 L1145.07 1830.92 Z" fill="#000000" fill-rule="evenodd" fill-opacity="1" /><path clip-path="url(#clip340)" d="M1396.17 1834 Q1392.56 1834 1390.73 1837.57 Q1388.93 1841.11 1388.93 1848.24 Q1388.93 1855.34 1390.73 1858.91 Q1392.56 1862.45 1396.17 1862.45 Q1399.8 1862.45 1401.61 1858.91 Q1403.44 1855.34 1403.44 1848.24 Q1403.44 1841.11 1401.61 1837.57 Q1399.8 1834 1396.17 1834 M1396.17 1830.3 Q1401.98 1830.3 1405.04 1834.9 Q1408.11 1839.49 1408.11 1848.24 Q1408.11 1856.96 1405.04 1861.57 Q1401.98 1866.15 1396.17 1866.15 Q1390.36 1866.15 1387.28 1861.57 Q1384.23 1856.96 1384.23 1848.24 Q1384.23 1839.49 1387.28 1834.9 Q1390.36 1830.3 1396.17 1830.3 Z" fill="#000000" fill-rule="evenodd" fill-opacity="1" /><path clip-path="url(#clip340)" d="M1416.33 1859.6 L1421.22 1859.6 L1421.22 1865.48 L1416.33 1865.48 L1416.33 1859.6 Z" fill="#000000" fill-rule="evenodd" fill-opacity="1" /><path clip-path="url(#clip340)" d="M1441.4 1834 Q1437.79 1834 1435.96 1837.57 Q1434.16 1841.11 1434.16 1848.24 Q1434.16 1855.34 1435.96 1858.91 Q1437.79 1862.45 1441.4 1862.45 Q1445.04 1862.45 1446.84 1858.91 Q1448.67 1855.34 1448.67 1848.24 Q1448.67 1841.11 1446.84 1837.57 Q1445.04 1834 1441.4 1834 M1441.4 1830.3 Q1447.21 1830.3 1450.27 1834.9 Q1453.35 1839.49 1453.35 1848.24 Q1453.35 1856.96 1450.27 1861.57 Q1447.21 1866.15 1441.4 1866.15 Q1435.59 1866.15 1432.51 1861.57 Q1429.46 1856.96 1429.46 1848.24 Q1429.46 1839.49 1432.51 1834.9 Q1435.59 1830.3 1441.4 1830.3 Z" fill="#000000" fill-rule="evenodd" fill-opacity="1" /><path clip-path="url(#clip340)" d="M1696.31 1861.55 L1712.63 1861.55 L1712.63 1865.48 L1690.69 1865.48 L1690.69 1861.55 Q1693.35 1858.79 1697.93 1854.16 Q1702.54 1849.51 1703.72 1848.17 Q1705.97 1845.65 1706.84 1843.91 Q1707.75 1842.15 1707.75 1840.46 Q1707.75 1837.71 1705.8 1835.97 Q1703.88 1834.23 1700.78 1834.23 Q1698.58 1834.23 1696.13 1835 Q1693.7 1835.76 1690.92 1837.31 L1690.92 1832.59 Q1693.74 1831.46 1696.2 1830.88 Q1698.65 1830.3 1700.69 1830.3 Q1706.06 1830.3 1709.25 1832.98 Q1712.45 1835.67 1712.45 1840.16 Q1712.45 1842.29 1711.64 1844.21 Q1710.85 1846.11 1708.74 1848.7 Q1708.16 1849.37 1705.06 1852.59 Q1701.96 1855.78 1696.31 1861.55 Z" fill="#000000" fill-rule="evenodd" fill-opacity="1" /><path clip-path="url(#clip340)" d="M1722.45 1859.6 L1727.33 1859.6 L1727.33 1865.48 L1722.45 1865.48 L1722.45 1859.6 Z" fill="#000000" fill-rule="evenodd" fill-opacity="1" /><path clip-path="url(#clip340)" d="M1737.56 1830.92 L1755.92 1830.92 L1755.92 1834.86 L1741.84 1834.86 L1741.84 1843.33 Q1742.86 1842.98 1743.88 1842.82 Q1744.9 1842.64 1745.92 1842.64 Q1751.71 1842.64 1755.09 1845.81 Q1758.46 1848.98 1758.46 1854.4 Q1758.46 1859.97 1754.99 1863.08 Q1751.52 1866.15 1745.2 1866.15 Q1743.03 1866.15 1740.76 1865.78 Q1738.51 1865.41 1736.1 1864.67 L1736.1 1859.97 Q1738.19 1861.11 1740.41 1861.66 Q1742.63 1862.22 1745.11 1862.22 Q1749.11 1862.22 1751.45 1860.11 Q1753.79 1858.01 1753.79 1854.4 Q1753.79 1850.78 1751.45 1848.68 Q1749.11 1846.57 1745.11 1846.57 Q1743.23 1846.57 1741.36 1846.99 Q1739.51 1847.4 1737.56 1848.28 L1737.56 1830.92 Z" fill="#000000" fill-rule="evenodd" fill-opacity="1" /><path clip-path="url(#clip340)" d="M1997.53 1830.92 L2015.89 1830.92 L2015.89 1834.86 L2001.81 1834.86 L2001.81 1843.33 Q2002.83 1842.98 2003.85 1842.82 Q2004.87 1842.64 2005.89 1842.64 Q2011.67 1842.64 2015.05 1845.81 Q2018.43 1848.98 2018.43 1854.4 Q2018.43 1859.97 2014.96 1863.08 Q2011.49 1866.15 2005.17 1866.15 Q2002.99 1866.15 2000.73 1865.78 Q1998.48 1865.41 1996.07 1864.67 L1996.07 1859.97 Q1998.16 1861.11 2000.38 1861.66 Q2002.6 1862.22 2005.08 1862.22 Q2009.08 1862.22 2011.42 1860.11 Q2013.76 1858.01 2013.76 1854.4 Q2013.76 1850.78 2011.42 1848.68 Q2009.08 1846.57 2005.08 1846.57 Q2003.2 1846.57 2001.33 1846.99 Q1999.48 1847.4 1997.53 1848.28 L1997.53 1830.92 Z" fill="#000000" fill-rule="evenodd" fill-opacity="1" /><path clip-path="url(#clip340)" d="M2027.65 1859.6 L2032.53 1859.6 L2032.53 1865.48 L2027.65 1865.48 L2027.65 1859.6 Z" fill="#000000" fill-rule="evenodd" fill-opacity="1" /><path clip-path="url(#clip340)" d="M2052.72 1834 Q2049.1 1834 2047.28 1837.57 Q2045.47 1841.11 2045.47 1848.24 Q2045.47 1855.34 2047.28 1858.91 Q2049.1 1862.45 2052.72 1862.45 Q2056.35 1862.45 2058.16 1858.91 Q2059.98 1855.34 2059.98 1848.24 Q2059.98 1841.11 2058.16 1837.57 Q2056.35 1834 2052.72 1834 M2052.72 1830.3 Q2058.53 1830.3 2061.58 1834.9 Q2064.66 1839.49 2064.66 1848.24 Q2064.66 1856.96 2061.58 1861.57 Q2058.53 1866.15 2052.72 1866.15 Q2046.91 1866.15 2043.83 1861.57 Q2040.77 1856.96 2040.77 1848.24 Q2040.77 1839.49 2043.83 1834.9 Q2046.91 1830.3 2052.72 1830.3 Z" fill="#000000" fill-rule="evenodd" fill-opacity="1" /><path clip-path="url(#clip340)" d="M2302.48 1830.92 L2324.7 1830.92 L2324.7 1832.91 L2312.15 1865.48 L2307.27 1865.48 L2319.07 1834.86 L2302.48 1834.86 L2302.48 1830.92 Z" fill="#000000" fill-rule="evenodd" fill-opacity="1" /><path clip-path="url(#clip340)" d="M2333.82 1859.6 L2338.7 1859.6 L2338.7 1865.48 L2333.82 1865.48 L2333.82 1859.6 Z" fill="#000000" fill-rule="evenodd" fill-opacity="1" /><path clip-path="url(#clip340)" d="M2348.93 1830.92 L2367.29 1830.92 L2367.29 1834.86 L2353.22 1834.86 L2353.22 1843.33 Q2354.24 1842.98 2355.25 1842.82 Q2356.27 1842.64 2357.29 1842.64 Q2363.08 1842.64 2366.46 1845.81 Q2369.84 1848.98 2369.84 1854.4 Q2369.84 1859.97 2366.36 1863.08 Q2362.89 1866.15 2356.57 1866.15 Q2354.4 1866.15 2352.13 1865.78 Q2349.88 1865.41 2347.48 1864.67 L2347.48 1859.97 Q2349.56 1861.11 2351.78 1861.66 Q2354 1862.22 2356.48 1862.22 Q2360.49 1862.22 2362.82 1860.11 Q2365.16 1858.01 2365.16 1854.4 Q2365.16 1850.78 2362.82 1848.68 Q2360.49 1846.57 2356.48 1846.57 Q2354.61 1846.57 2352.73 1846.99 Q2350.88 1847.4 2348.93 1848.28 L2348.93 1830.92 Z" fill="#000000" fill-rule="evenodd" fill-opacity="1" /><polyline clip-path="url(#clip342)" style="stroke:#000000; stroke-linecap:butt; stroke-linejoin:round; stroke-width:2; stroke-opacity:0.1; fill:none" points="
  196.816,1582.23 2640.76,1582.23 
  "/>
<polyline clip-path="url(#clip342)" style="stroke:#000000; stroke-linecap:butt; stroke-linejoin:round; stroke-width:2; stroke-opacity:0.1; fill:none" points="
  196.816,1362.82 2640.76,1362.82 
  "/>
<polyline clip-path="url(#clip342)" style="stroke:#000000; stroke-linecap:butt; stroke-linejoin:round; stroke-width:2; stroke-opacity:0.1; fill:none" points="
  196.816,1143.42 2640.76,1143.42 
  "/>
<polyline clip-path="url(#clip342)" style="stroke:#000000; stroke-linecap:butt; stroke-linejoin:round; stroke-width:2; stroke-opacity:0.1; fill:none" points="
  196.816,924.012 2640.76,924.012 
  "/>
<polyline clip-path="url(#clip342)" style="stroke:#000000; stroke-linecap:butt; stroke-linejoin:round; stroke-width:2; stroke-opacity:0.1; fill:none" points="
  196.816,704.606 2640.76,704.606 
  "/>
<polyline clip-path="url(#clip342)" style="stroke:#000000; stroke-linecap:butt; stroke-linejoin:round; stroke-width:2; stroke-opacity:0.1; fill:none" points="
  196.816,485.201 2640.76,485.201 
  "/>
<polyline clip-path="url(#clip342)" style="stroke:#000000; stroke-linecap:butt; stroke-linejoin:round; stroke-width:2; stroke-opacity:0.1; fill:none" points="
  196.816,265.795 2640.76,265.795 
  "/>
<polyline clip-path="url(#clip340)" style="stroke:#000000; stroke-linecap:butt; stroke-linejoin:round; stroke-width:4; stroke-opacity:1; fill:none" points="
  196.816,1800.78 196.816,47.2441 
  "/>
<polyline clip-path="url(#clip340)" style="stroke:#000000; stroke-linecap:butt; stroke-linejoin:round; stroke-width:4; stroke-opacity:1; fill:none" points="
  196.816,1582.23 215.714,1582.23 
  "/>
<polyline clip-path="url(#clip340)" style="stroke:#000000; stroke-linecap:butt; stroke-linejoin:round; stroke-width:4; stroke-opacity:1; fill:none" points="
  196.816,1362.82 215.714,1362.82 
  "/>
<polyline clip-path="url(#clip340)" style="stroke:#000000; stroke-linecap:butt; stroke-linejoin:round; stroke-width:4; stroke-opacity:1; fill:none" points="
  196.816,1143.42 215.714,1143.42 
  "/>
<polyline clip-path="url(#clip340)" style="stroke:#000000; stroke-linecap:butt; stroke-linejoin:round; stroke-width:4; stroke-opacity:1; fill:none" points="
  196.816,924.012 215.714,924.012 
  "/>
<polyline clip-path="url(#clip340)" style="stroke:#000000; stroke-linecap:butt; stroke-linejoin:round; stroke-width:4; stroke-opacity:1; fill:none" points="
  196.816,704.606 215.714,704.606 
  "/>
<polyline clip-path="url(#clip340)" style="stroke:#000000; stroke-linecap:butt; stroke-linejoin:round; stroke-width:4; stroke-opacity:1; fill:none" points="
  196.816,485.201 215.714,485.201 
  "/>
<polyline clip-path="url(#clip340)" style="stroke:#000000; stroke-linecap:butt; stroke-linejoin:round; stroke-width:4; stroke-opacity:1; fill:none" points="
  196.816,265.795 215.714,265.795 
  "/>
<path clip-path="url(#clip340)" d="M50.5475 1582.68 L80.2233 1582.68 L80.2233 1586.61 L50.5475 1586.61 L50.5475 1582.68 Z" fill="#000000" fill-rule="evenodd" fill-opacity="1" /><path clip-path="url(#clip340)" d="M89.1352 1564.95 L111.357 1564.95 L111.357 1566.94 L98.8111 1599.51 L93.9269 1599.51 L105.732 1568.88 L89.1352 1568.88 L89.1352 1564.95 Z" fill="#000000" fill-rule="evenodd" fill-opacity="1" /><path clip-path="url(#clip340)" d="M120.478 1593.63 L125.362 1593.63 L125.362 1599.51 L120.478 1599.51 L120.478 1593.63 Z" fill="#000000" fill-rule="evenodd" fill-opacity="1" /><path clip-path="url(#clip340)" d="M135.593 1564.95 L153.95 1564.95 L153.95 1568.88 L139.876 1568.88 L139.876 1577.36 Q140.894 1577.01 141.913 1576.85 Q142.931 1576.66 143.95 1576.66 Q149.737 1576.66 153.116 1579.83 Q156.496 1583 156.496 1588.42 Q156.496 1594 153.024 1597.1 Q149.552 1600.18 143.232 1600.18 Q141.056 1600.18 138.788 1599.81 Q136.542 1599.44 134.135 1598.7 L134.135 1594 Q136.218 1595.13 138.441 1595.69 Q140.663 1596.24 143.14 1596.24 Q147.144 1596.24 149.482 1594.14 Q151.82 1592.03 151.82 1588.42 Q151.82 1584.81 149.482 1582.7 Q147.144 1580.6 143.14 1580.6 Q141.265 1580.6 139.39 1581.01 Q137.538 1581.43 135.593 1582.31 L135.593 1564.95 Z" fill="#000000" fill-rule="evenodd" fill-opacity="1" /><path clip-path="url(#clip340)" d="M49.5521 1363.27 L79.2279 1363.27 L79.2279 1367.21 L49.5521 1367.21 L49.5521 1363.27 Z" fill="#000000" fill-rule="evenodd" fill-opacity="1" /><path clip-path="url(#clip340)" d="M89.3667 1345.54 L107.723 1345.54 L107.723 1349.48 L93.6491 1349.48 L93.6491 1357.95 Q94.6676 1357.6 95.6861 1357.44 Q96.7047 1357.26 97.7232 1357.26 Q103.51 1357.26 106.89 1360.43 Q110.269 1363.6 110.269 1369.01 Q110.269 1374.59 106.797 1377.7 Q103.325 1380.77 97.0056 1380.77 Q94.8297 1380.77 92.5612 1380.4 Q90.3158 1380.03 87.9084 1379.29 L87.9084 1374.59 Q89.9917 1375.73 92.2139 1376.28 Q94.4361 1376.84 96.913 1376.84 Q100.918 1376.84 103.256 1374.73 Q105.593 1372.63 105.593 1369.01 Q105.593 1365.4 103.256 1363.3 Q100.918 1361.19 96.913 1361.19 Q95.038 1361.19 93.163 1361.61 Q91.3112 1362.02 89.3667 1362.9 L89.3667 1345.54 Z" fill="#000000" fill-rule="evenodd" fill-opacity="1" /><path clip-path="url(#clip340)" d="M119.482 1374.22 L124.367 1374.22 L124.367 1380.1 L119.482 1380.1 L119.482 1374.22 Z" fill="#000000" fill-rule="evenodd" fill-opacity="1" /><path clip-path="url(#clip340)" d="M144.552 1348.62 Q140.941 1348.62 139.112 1352.19 Q137.306 1355.73 137.306 1362.86 Q137.306 1369.96 139.112 1373.53 Q140.941 1377.07 144.552 1377.07 Q148.186 1377.07 149.991 1373.53 Q151.82 1369.96 151.82 1362.86 Q151.82 1355.73 149.991 1352.19 Q148.186 1348.62 144.552 1348.62 M144.552 1344.92 Q150.362 1344.92 153.417 1349.52 Q156.496 1354.11 156.496 1362.86 Q156.496 1371.58 153.417 1376.19 Q150.362 1380.77 144.552 1380.77 Q138.741 1380.77 135.663 1376.19 Q132.607 1371.58 132.607 1362.86 Q132.607 1354.11 135.663 1349.52 Q138.741 1344.92 144.552 1344.92 Z" fill="#000000" fill-rule="evenodd" fill-opacity="1" /><path clip-path="url(#clip340)" d="M50.5475 1143.87 L80.2233 1143.87 L80.2233 1147.8 L50.5475 1147.8 L50.5475 1143.87 Z" fill="#000000" fill-rule="evenodd" fill-opacity="1" /><path clip-path="url(#clip340)" d="M94.3436 1156.76 L110.663 1156.76 L110.663 1160.7 L88.7186 1160.7 L88.7186 1156.76 Q91.3806 1154.01 95.9639 1149.38 Q100.57 1144.73 101.751 1143.38 Q103.996 1140.86 104.876 1139.12 Q105.779 1137.36 105.779 1135.67 Q105.779 1132.92 103.834 1131.18 Q101.913 1129.45 98.8111 1129.45 Q96.6121 1129.45 94.1584 1130.21 Q91.7278 1130.98 88.9501 1132.53 L88.9501 1127.8 Q91.7741 1126.67 94.2278 1126.09 Q96.6815 1125.51 98.7185 1125.51 Q104.089 1125.51 107.283 1128.2 Q110.478 1130.88 110.478 1135.37 Q110.478 1137.5 109.668 1139.42 Q108.881 1141.32 106.774 1143.91 Q106.195 1144.59 103.094 1147.8 Q99.9917 1151 94.3436 1156.76 Z" fill="#000000" fill-rule="evenodd" fill-opacity="1" /><path clip-path="url(#clip340)" d="M120.478 1154.82 L125.362 1154.82 L125.362 1160.7 L120.478 1160.7 L120.478 1154.82 Z" fill="#000000" fill-rule="evenodd" fill-opacity="1" /><path clip-path="url(#clip340)" d="M135.593 1126.14 L153.95 1126.14 L153.95 1130.07 L139.876 1130.07 L139.876 1138.54 Q140.894 1138.2 141.913 1138.04 Q142.931 1137.85 143.95 1137.85 Q149.737 1137.85 153.116 1141.02 Q156.496 1144.19 156.496 1149.61 Q156.496 1155.19 153.024 1158.29 Q149.552 1161.37 143.232 1161.37 Q141.056 1161.37 138.788 1161 Q136.542 1160.63 134.135 1159.89 L134.135 1155.19 Q136.218 1156.32 138.441 1156.88 Q140.663 1157.43 143.14 1157.43 Q147.144 1157.43 149.482 1155.33 Q151.82 1153.22 151.82 1149.61 Q151.82 1146 149.482 1143.89 Q147.144 1141.79 143.14 1141.79 Q141.265 1141.79 139.39 1142.2 Q137.538 1142.62 135.593 1143.5 L135.593 1126.14 Z" fill="#000000" fill-rule="evenodd" fill-opacity="1" /><path clip-path="url(#clip340)" d="M99.3204 909.81 Q95.7093 909.81 93.8806 913.375 Q92.075 916.917 92.075 924.046 Q92.075 931.153 93.8806 934.718 Q95.7093 938.259 99.3204 938.259 Q102.955 938.259 104.76 934.718 Q106.589 931.153 106.589 924.046 Q106.589 916.917 104.76 913.375 Q102.955 909.81 99.3204 909.81 M99.3204 906.107 Q105.131 906.107 108.186 910.713 Q111.265 915.296 111.265 924.046 Q111.265 932.773 108.186 937.38 Q105.131 941.963 99.3204 941.963 Q93.5102 941.963 90.4315 937.38 Q87.376 932.773 87.376 924.046 Q87.376 915.296 90.4315 910.713 Q93.5102 906.107 99.3204 906.107 Z" fill="#000000" fill-rule="evenodd" fill-opacity="1" /><path clip-path="url(#clip340)" d="M119.482 935.412 L124.367 935.412 L124.367 941.292 L119.482 941.292 L119.482 935.412 Z" fill="#000000" fill-rule="evenodd" fill-opacity="1" /><path clip-path="url(#clip340)" d="M144.552 909.81 Q140.941 909.81 139.112 913.375 Q137.306 916.917 137.306 924.046 Q137.306 931.153 139.112 934.718 Q140.941 938.259 144.552 938.259 Q148.186 938.259 149.991 934.718 Q151.82 931.153 151.82 924.046 Q151.82 916.917 149.991 913.375 Q148.186 909.81 144.552 909.81 M144.552 906.107 Q150.362 906.107 153.417 910.713 Q156.496 915.296 156.496 924.046 Q156.496 932.773 153.417 937.38 Q150.362 941.963 144.552 941.963 Q138.741 941.963 135.663 937.38 Q132.607 932.773 132.607 924.046 Q132.607 915.296 135.663 910.713 Q138.741 906.107 144.552 906.107 Z" fill="#000000" fill-rule="evenodd" fill-opacity="1" /><path clip-path="url(#clip340)" d="M94.3436 717.951 L110.663 717.951 L110.663 721.886 L88.7186 721.886 L88.7186 717.951 Q91.3806 715.196 95.9639 710.567 Q100.57 705.914 101.751 704.571 Q103.996 702.048 104.876 700.312 Q105.779 698.553 105.779 696.863 Q105.779 694.109 103.834 692.372 Q101.913 690.636 98.8111 690.636 Q96.6121 690.636 94.1584 691.4 Q91.7278 692.164 88.9501 693.715 L88.9501 688.993 Q91.7741 687.859 94.2278 687.28 Q96.6815 686.701 98.7185 686.701 Q104.089 686.701 107.283 689.386 Q110.478 692.072 110.478 696.562 Q110.478 698.692 109.668 700.613 Q108.881 702.511 106.774 705.104 Q106.195 705.775 103.094 708.993 Q99.9917 712.187 94.3436 717.951 Z" fill="#000000" fill-rule="evenodd" fill-opacity="1" /><path clip-path="url(#clip340)" d="M120.478 716.007 L125.362 716.007 L125.362 721.886 L120.478 721.886 L120.478 716.007 Z" fill="#000000" fill-rule="evenodd" fill-opacity="1" /><path clip-path="url(#clip340)" d="M135.593 687.326 L153.95 687.326 L153.95 691.261 L139.876 691.261 L139.876 699.734 Q140.894 699.386 141.913 699.224 Q142.931 699.039 143.95 699.039 Q149.737 699.039 153.116 702.21 Q156.496 705.382 156.496 710.798 Q156.496 716.377 153.024 719.479 Q149.552 722.557 143.232 722.557 Q141.056 722.557 138.788 722.187 Q136.542 721.817 134.135 721.076 L134.135 716.377 Q136.218 717.511 138.441 718.067 Q140.663 718.622 143.14 718.622 Q147.144 718.622 149.482 716.516 Q151.82 714.409 151.82 710.798 Q151.82 707.187 149.482 705.081 Q147.144 702.974 143.14 702.974 Q141.265 702.974 139.39 703.391 Q137.538 703.808 135.593 704.687 L135.593 687.326 Z" fill="#000000" fill-rule="evenodd" fill-opacity="1" /><path clip-path="url(#clip340)" d="M89.3667 467.921 L107.723 467.921 L107.723 471.856 L93.6491 471.856 L93.6491 480.328 Q94.6676 479.981 95.6861 479.819 Q96.7047 479.634 97.7232 479.634 Q103.51 479.634 106.89 482.805 Q110.269 485.976 110.269 491.393 Q110.269 496.971 106.797 500.073 Q103.325 503.152 97.0056 503.152 Q94.8297 503.152 92.5612 502.782 Q90.3158 502.411 87.9084 501.671 L87.9084 496.971 Q89.9917 498.106 92.2139 498.661 Q94.4361 499.217 96.913 499.217 Q100.918 499.217 103.256 497.11 Q105.593 495.004 105.593 491.393 Q105.593 487.782 103.256 485.675 Q100.918 483.569 96.913 483.569 Q95.038 483.569 93.163 483.985 Q91.3112 484.402 89.3667 485.282 L89.3667 467.921 Z" fill="#000000" fill-rule="evenodd" fill-opacity="1" /><path clip-path="url(#clip340)" d="M119.482 496.601 L124.367 496.601 L124.367 502.481 L119.482 502.481 L119.482 496.601 Z" fill="#000000" fill-rule="evenodd" fill-opacity="1" /><path clip-path="url(#clip340)" d="M144.552 470.999 Q140.941 470.999 139.112 474.564 Q137.306 478.106 137.306 485.235 Q137.306 492.342 139.112 495.907 Q140.941 499.448 144.552 499.448 Q148.186 499.448 149.991 495.907 Q151.82 492.342 151.82 485.235 Q151.82 478.106 149.991 474.564 Q148.186 470.999 144.552 470.999 M144.552 467.296 Q150.362 467.296 153.417 471.902 Q156.496 476.485 156.496 485.235 Q156.496 493.962 153.417 498.569 Q150.362 503.152 144.552 503.152 Q138.741 503.152 135.663 498.569 Q132.607 493.962 132.607 485.235 Q132.607 476.485 135.663 471.902 Q138.741 467.296 144.552 467.296 Z" fill="#000000" fill-rule="evenodd" fill-opacity="1" /><path clip-path="url(#clip340)" d="M89.1352 248.515 L111.357 248.515 L111.357 250.506 L98.8111 283.075 L93.9269 283.075 L105.732 252.45 L89.1352 252.45 L89.1352 248.515 Z" fill="#000000" fill-rule="evenodd" fill-opacity="1" /><path clip-path="url(#clip340)" d="M120.478 277.196 L125.362 277.196 L125.362 283.075 L120.478 283.075 L120.478 277.196 Z" fill="#000000" fill-rule="evenodd" fill-opacity="1" /><path clip-path="url(#clip340)" d="M135.593 248.515 L153.95 248.515 L153.95 252.45 L139.876 252.45 L139.876 260.923 Q140.894 260.575 141.913 260.413 Q142.931 260.228 143.95 260.228 Q149.737 260.228 153.116 263.399 Q156.496 266.571 156.496 271.987 Q156.496 277.566 153.024 280.668 Q149.552 283.746 143.232 283.746 Q141.056 283.746 138.788 283.376 Q136.542 283.006 134.135 282.265 L134.135 277.566 Q136.218 278.7 138.441 279.256 Q140.663 279.811 143.14 279.811 Q147.144 279.811 149.482 277.705 Q151.82 275.598 151.82 271.987 Q151.82 268.376 149.482 266.27 Q147.144 264.163 143.14 264.163 Q141.265 264.163 139.39 264.58 Q137.538 264.997 135.593 265.876 L135.593 248.515 Z" fill="#000000" fill-rule="evenodd" fill-opacity="1" /><polyline clip-path="url(#clip342)" style="stroke:#009af9; stroke-linecap:butt; stroke-linejoin:round; stroke-width:4; stroke-opacity:1; fill:none" points="
  265.984,96.8724 269.737,102.257 273.489,107.639 277.242,113.016 280.995,118.386 315.694,167.233 350.393,213.306 367.742,234.761 385.092,254.913 402.441,273.607 
  419.791,290.718 440.643,309.059 461.496,324.882 482.349,338.161 503.201,348.945 520.832,356.204 538.463,361.877 556.093,366.108 573.724,369.073 650.331,372.586 
  720.956,375.364 739.886,378.189 758.815,382.417 777.745,388.273 796.674,395.94 818.606,407.271 840.537,421.364 862.469,438.27 884.4,457.953 903.891,477.674 
  923.381,499.343 942.871,522.766 962.361,547.703 996.543,594.239 1030.73,642.856 1067.99,696.037 1105.26,747.032 1124.01,771.137 1142.75,793.868 1161.5,815.007 
  1180.24,834.374 1200.96,853.558 1221.69,870.284 1242.41,884.499 1263.14,896.221 1282.86,905.141 1302.58,912.022 1322.3,917.051 1342.01,920.466 1424.03,924.013 
  1493.06,927.227 1514.14,930.733 1535.21,936.065 1556.28,943.513 1577.35,953.305 1596.65,964.467 1615.96,977.795 1635.26,993.302 1654.56,1010.95 1672.39,1029.06 
  1690.22,1048.81 1708.05,1070.04 1725.87,1092.57 1761.99,1141.35 1798.11,1192.63 1838.59,1250.36 1879.07,1305.36 1897.41,1328.6 1915.75,1350.48 1934.09,1370.78 
  1952.43,1389.35 1973.42,1408.34 1994.42,1424.79 2015.42,1438.66 2036.42,1449.99 2055.86,1458.3 2075.3,1464.66 2094.74,1469.28 2114.19,1472.37 2152.52,1475.1 
  2190.86,1475.44 2228.08,1475.98 2265.3,1479.15 2284.37,1482.52 2303.45,1487.4 2322.53,1494.02 2341.61,1502.55 2362.51,1514.22 2383.41,1528.42 2404.31,1545.18 
  2425.22,1564.44 2455.58,1596.61 2485.94,1633.15 2516.31,1673.16 2546.67,1715.52 2552.9,1724.39 2559.13,1733.29 2565.36,1742.21 2571.59,1751.15 
  "/>
<path clip-path="url(#clip340)" d="
M2235.31 209.375 L2559.29 209.375 L2559.29 105.695 L2235.31 105.695  Z
  " fill="#ffffff" fill-rule="evenodd" fill-opacity="1"/>
<polyline clip-path="url(#clip340)" style="stroke:#000000; stroke-linecap:butt; stroke-linejoin:round; stroke-width:4; stroke-opacity:1; fill:none" points="
  2235.31,209.375 2559.29,209.375 2559.29,105.695 2235.31,105.695 2235.31,209.375 
  "/>
<polyline clip-path="url(#clip340)" style="stroke:#009af9; stroke-linecap:butt; stroke-linejoin:round; stroke-width:4; stroke-opacity:1; fill:none" points="
  2262.47,157.535 2425.4,157.535 
  "/>
<path clip-path="url(#clip340)" d="M2466.39 177.223 Q2464.59 181.852 2462.88 183.264 Q2461.16 184.676 2458.29 184.676 L2454.89 184.676 L2454.89 181.112 L2457.39 181.112 Q2459.15 181.112 2460.12 180.278 Q2461.09 179.445 2462.27 176.343 L2463.04 174.399 L2452.55 148.889 L2457.07 148.889 L2465.17 169.167 L2473.27 148.889 L2477.78 148.889 L2466.39 177.223 Z" fill="#000000" fill-rule="evenodd" fill-opacity="1" /><path clip-path="url(#clip340)" d="M2485.07 170.88 L2492.71 170.88 L2492.71 144.515 L2484.4 146.181 L2484.4 141.922 L2492.67 140.255 L2497.34 140.255 L2497.34 170.88 L2504.98 170.88 L2504.98 174.815 L2485.07 174.815 L2485.07 170.88 Z" fill="#000000" fill-rule="evenodd" fill-opacity="1" /></svg>
