<?xml version="1.0" encoding="utf-8"?>
<svg xmlns="http://www.w3.org/2000/svg" xmlns:xlink="http://www.w3.org/1999/xlink" width="672" height="480" viewBox="0 0 2688 1920">
<defs>
  <clipPath id="clip630">
    <rect x="0" y="0" width="2688" height="1920"/>
  </clipPath>
</defs>
<path clip-path="url(#clip630)" d="
M0 1920 L2688 1920 L2688 0 L0 0  Z
  " fill="#ffffff" fill-rule="evenodd" fill-opacity="1"/>
<defs>
  <clipPath id="clip631">
    <rect x="537" y="0" width="1883" height="1883"/>
  </clipPath>
</defs>
<path clip-path="url(#clip630)" d="
M542.018 1800.78 L2295.55 1800.78 L2295.55 47.2441 L542.018 47.2441  Z
  " fill="#ffffff" fill-rule="evenodd" fill-opacity="1"/>
<defs>
  <clipPath id="clip632">
    <rect x="542" y="47" width="1755" height="1755"/>
  </clipPath>
</defs>
<polyline clip-path="url(#clip632)" style="stroke:#000000; stroke-linecap:butt; stroke-linejoin:round; stroke-width:2; stroke-opacity:0.1; fill:none" points="
  542.018,1800.78 542.018,47.2441 
  "/>
<polyline clip-path="url(#clip632)" style="stroke:#000000; stroke-linecap:butt; stroke-linejoin:round; stroke-width:2; stroke-opacity:0.1; fill:none" points="
  980.402,1800.78 980.402,47.2441 
  "/>
<polyline clip-path="url(#clip632)" style="stroke:#000000; stroke-linecap:butt; stroke-linejoin:round; stroke-width:2; stroke-opacity:0.1; fill:none" points="
  1418.79,1800.78 1418.79,47.2441 
  "/>
<polyline clip-path="url(#clip632)" style="stroke:#000000; stroke-linecap:butt; stroke-linejoin:round; stroke-width:2; stroke-opacity:0.1; fill:none" points="
  1857.17,1800.78 1857.17,47.2441 
  "/>
<polyline clip-path="url(#clip632)" style="stroke:#000000; stroke-linecap:butt; stroke-linejoin:round; stroke-width:2; stroke-opacity:0.1; fill:none" points="
  2295.55,1800.78 2295.55,47.2441 
  "/>
<polyline clip-path="url(#clip630)" style="stroke:#000000; stroke-linecap:butt; stroke-linejoin:round; stroke-width:4; stroke-opacity:1; fill:none" points="
  542.018,1800.78 2295.55,1800.78 
  "/>
<polyline clip-path="url(#clip630)" style="stroke:#000000; stroke-linecap:butt; stroke-linejoin:round; stroke-width:4; stroke-opacity:1; fill:none" points="
  542.018,1800.78 542.018,1781.88 
  "/>
<polyline clip-path="url(#clip630)" style="stroke:#000000; stroke-linecap:butt; stroke-linejoin:round; stroke-width:4; stroke-opacity:1; fill:none" points="
  980.402,1800.78 980.402,1781.88 
  "/>
<polyline clip-path="url(#clip630)" style="stroke:#000000; stroke-linecap:butt; stroke-linejoin:round; stroke-width:4; stroke-opacity:1; fill:none" points="
  1418.79,1800.78 1418.79,1781.88 
  "/>
<polyline clip-path="url(#clip630)" style="stroke:#000000; stroke-linecap:butt; stroke-linejoin:round; stroke-width:4; stroke-opacity:1; fill:none" points="
  1857.17,1800.78 1857.17,1781.88 
  "/>
<polyline clip-path="url(#clip630)" style="stroke:#000000; stroke-linecap:butt; stroke-linejoin:round; stroke-width:4; stroke-opacity:1; fill:none" points="
  2295.55,1800.78 2295.55,1781.88 
  "/>
<path clip-path="url(#clip630)" d="M488.546 1848.65 L518.222 1848.65 L518.222 1852.59 L488.546 1852.59 L488.546 1848.65 Z" fill="#000000" fill-rule="evenodd" fill-opacity="1" /><path clip-path="url(#clip630)" d="M528.361 1830.92 L546.717 1830.92 L546.717 1834.86 L532.643 1834.86 L532.643 1843.33 Q533.662 1842.98 534.68 1842.82 Q535.699 1842.64 536.717 1842.64 Q542.504 1842.64 545.884 1845.81 Q549.264 1848.98 549.264 1854.4 Q549.264 1859.97 545.791 1863.08 Q542.319 1866.15 536 1866.15 Q533.824 1866.15 531.555 1865.78 Q529.31 1865.41 526.903 1864.67 L526.903 1859.97 Q528.986 1861.11 531.208 1861.66 Q533.43 1862.22 535.907 1862.22 Q539.912 1862.22 542.25 1860.11 Q544.588 1858.01 544.588 1854.4 Q544.588 1850.78 542.25 1848.68 Q539.912 1846.57 535.907 1846.57 Q534.032 1846.57 532.157 1846.99 Q530.305 1847.4 528.361 1848.28 L528.361 1830.92 Z" fill="#000000" fill-rule="evenodd" fill-opacity="1" /><path clip-path="url(#clip630)" d="M558.477 1859.6 L563.361 1859.6 L563.361 1865.48 L558.477 1865.48 L558.477 1859.6 Z" fill="#000000" fill-rule="evenodd" fill-opacity="1" /><path clip-path="url(#clip630)" d="M583.546 1834 Q579.935 1834 578.106 1837.57 Q576.301 1841.11 576.301 1848.24 Q576.301 1855.34 578.106 1858.91 Q579.935 1862.45 583.546 1862.45 Q587.18 1862.45 588.986 1858.91 Q590.814 1855.34 590.814 1848.24 Q590.814 1841.11 588.986 1837.57 Q587.18 1834 583.546 1834 M583.546 1830.3 Q589.356 1830.3 592.412 1834.9 Q595.49 1839.49 595.49 1848.24 Q595.49 1856.96 592.412 1861.57 Q589.356 1866.15 583.546 1866.15 Q577.736 1866.15 574.657 1861.57 Q571.602 1856.96 571.602 1848.24 Q571.602 1839.49 574.657 1834.9 Q577.736 1830.3 583.546 1830.3 Z" fill="#000000" fill-rule="evenodd" fill-opacity="1" /><path clip-path="url(#clip630)" d="M927.428 1848.65 L957.104 1848.65 L957.104 1852.59 L927.428 1852.59 L927.428 1848.65 Z" fill="#000000" fill-rule="evenodd" fill-opacity="1" /><path clip-path="url(#clip630)" d="M971.224 1861.55 L987.543 1861.55 L987.543 1865.48 L965.599 1865.48 L965.599 1861.55 Q968.261 1858.79 972.844 1854.16 Q977.451 1849.51 978.631 1848.17 Q980.877 1845.65 981.756 1843.91 Q982.659 1842.15 982.659 1840.46 Q982.659 1837.71 980.715 1835.97 Q978.793 1834.23 975.692 1834.23 Q973.492 1834.23 971.039 1835 Q968.608 1835.76 965.83 1837.31 L965.83 1832.59 Q968.655 1831.46 971.108 1830.88 Q973.562 1830.3 975.599 1830.3 Q980.969 1830.3 984.164 1832.98 Q987.358 1835.67 987.358 1840.16 Q987.358 1842.29 986.548 1844.21 Q985.761 1846.11 983.654 1848.7 Q983.076 1849.37 979.974 1852.59 Q976.872 1855.78 971.224 1861.55 Z" fill="#000000" fill-rule="evenodd" fill-opacity="1" /><path clip-path="url(#clip630)" d="M997.358 1859.6 L1002.24 1859.6 L1002.24 1865.48 L997.358 1865.48 L997.358 1859.6 Z" fill="#000000" fill-rule="evenodd" fill-opacity="1" /><path clip-path="url(#clip630)" d="M1012.47 1830.92 L1030.83 1830.92 L1030.83 1834.86 L1016.76 1834.86 L1016.76 1843.33 Q1017.77 1842.98 1018.79 1842.82 Q1019.81 1842.64 1020.83 1842.64 Q1026.62 1842.64 1030 1845.81 Q1033.38 1848.98 1033.38 1854.4 Q1033.38 1859.97 1029.9 1863.08 Q1026.43 1866.15 1020.11 1866.15 Q1017.94 1866.15 1015.67 1865.78 Q1013.42 1865.41 1011.02 1864.67 L1011.02 1859.97 Q1013.1 1861.11 1015.32 1861.66 Q1017.54 1862.22 1020.02 1862.22 Q1024.02 1862.22 1026.36 1860.11 Q1028.7 1858.01 1028.7 1854.4 Q1028.7 1850.78 1026.36 1848.68 Q1024.02 1846.57 1020.02 1846.57 Q1018.15 1846.57 1016.27 1846.99 Q1014.42 1847.4 1012.47 1848.28 L1012.47 1830.92 Z" fill="#000000" fill-rule="evenodd" fill-opacity="1" /><path clip-path="url(#clip630)" d="M1396.17 1834 Q1392.56 1834 1390.73 1837.57 Q1388.93 1841.11 1388.93 1848.24 Q1388.93 1855.34 1390.73 1858.91 Q1392.56 1862.45 1396.17 1862.45 Q1399.8 1862.45 1401.61 1858.91 Q1403.44 1855.34 1403.44 1848.24 Q1403.44 1841.11 1401.61 1837.57 Q1399.8 1834 1396.17 1834 M1396.17 1830.3 Q1401.98 1830.3 1405.04 1834.9 Q1408.11 1839.49 1408.11 1848.24 Q1408.11 1856.96 1405.04 1861.57 Q1401.98 1866.15 1396.17 1866.15 Q1390.36 1866.15 1387.28 1861.57 Q1384.23 1856.96 1384.23 1848.24 Q1384.23 1839.49 1387.28 1834.9 Q1390.36 1830.3 1396.17 1830.3 Z" fill="#000000" fill-rule="evenodd" fill-opacity="1" /><path clip-path="url(#clip630)" d="M1416.33 1859.6 L1421.22 1859.6 L1421.22 1865.48 L1416.33 1865.48 L1416.33 1859.6 Z" fill="#000000" fill-rule="evenodd" fill-opacity="1" /><path clip-path="url(#clip630)" d="M1441.4 1834 Q1437.79 1834 1435.96 1837.57 Q1434.16 1841.11 1434.16 1848.24 Q1434.16 1855.34 1435.96 1858.91 Q1437.79 1862.45 1441.4 1862.45 Q1445.04 1862.45 1446.84 1858.91 Q1448.67 1855.34 1448.67 1848.24 Q1448.67 1841.11 1446.84 1837.57 Q1445.04 1834 1441.4 1834 M1441.4 1830.3 Q1447.21 1830.3 1450.27 1834.9 Q1453.35 1839.49 1453.35 1848.24 Q1453.35 1856.96 1450.27 1861.57 Q1447.21 1866.15 1441.4 1866.15 Q1435.59 1866.15 1432.51 1861.57 Q1429.46 1856.96 1429.46 1848.24 Q1429.46 1839.49 1432.51 1834.9 Q1435.59 1830.3 1441.4 1830.3 Z" fill="#000000" fill-rule="evenodd" fill-opacity="1" /><path clip-path="url(#clip630)" d="M1828.91 1861.55 L1845.23 1861.55 L1845.23 1865.48 L1823.28 1865.48 L1823.28 1861.55 Q1825.94 1858.79 1830.53 1854.16 Q1835.13 1849.51 1836.31 1848.17 Q1838.56 1845.65 1839.44 1843.91 Q1840.34 1842.15 1840.34 1840.46 Q1840.34 1837.71 1838.4 1835.97 Q1836.48 1834.23 1833.37 1834.23 Q1831.17 1834.23 1828.72 1835 Q1826.29 1835.76 1823.51 1837.31 L1823.51 1832.59 Q1826.34 1831.46 1828.79 1830.88 Q1831.24 1830.3 1833.28 1830.3 Q1838.65 1830.3 1841.85 1832.98 Q1845.04 1835.67 1845.04 1840.16 Q1845.04 1842.29 1844.23 1844.21 Q1843.44 1846.11 1841.34 1848.7 Q1840.76 1849.37 1837.66 1852.59 Q1834.55 1855.78 1828.91 1861.55 Z" fill="#000000" fill-rule="evenodd" fill-opacity="1" /><path clip-path="url(#clip630)" d="M1855.04 1859.6 L1859.92 1859.6 L1859.92 1865.48 L1855.04 1865.48 L1855.04 1859.6 Z" fill="#000000" fill-rule="evenodd" fill-opacity="1" /><path clip-path="url(#clip630)" d="M1870.16 1830.92 L1888.51 1830.92 L1888.51 1834.86 L1874.44 1834.86 L1874.44 1843.33 Q1875.46 1842.98 1876.48 1842.82 Q1877.49 1842.64 1878.51 1842.64 Q1884.3 1842.64 1887.68 1845.81 Q1891.06 1848.98 1891.06 1854.4 Q1891.06 1859.97 1887.59 1863.08 Q1884.11 1866.15 1877.79 1866.15 Q1875.62 1866.15 1873.35 1865.78 Q1871.1 1865.41 1868.7 1864.67 L1868.7 1859.97 Q1870.78 1861.11 1873 1861.66 Q1875.23 1862.22 1877.7 1862.22 Q1881.71 1862.22 1884.04 1860.11 Q1886.38 1858.01 1886.38 1854.4 Q1886.38 1850.78 1884.04 1848.68 Q1881.71 1846.57 1877.7 1846.57 Q1875.83 1846.57 1873.95 1846.99 Q1872.1 1847.4 1870.16 1848.28 L1870.16 1830.92 Z" fill="#000000" fill-rule="evenodd" fill-opacity="1" /><path clip-path="url(#clip630)" d="M2262.72 1830.92 L2281.07 1830.92 L2281.07 1834.86 L2267 1834.86 L2267 1843.33 Q2268.02 1842.98 2269.04 1842.82 Q2270.06 1842.64 2271.07 1842.64 Q2276.86 1842.64 2280.24 1845.81 Q2283.62 1848.98 2283.62 1854.4 Q2283.62 1859.97 2280.15 1863.08 Q2276.68 1866.15 2270.36 1866.15 Q2268.18 1866.15 2265.91 1865.78 Q2263.67 1865.41 2261.26 1864.67 L2261.26 1859.97 Q2263.34 1861.11 2265.57 1861.66 Q2267.79 1862.22 2270.26 1862.22 Q2274.27 1862.22 2276.61 1860.11 Q2278.94 1858.01 2278.94 1854.4 Q2278.94 1850.78 2276.61 1848.68 Q2274.27 1846.57 2270.26 1846.57 Q2268.39 1846.57 2266.51 1846.99 Q2264.66 1847.4 2262.72 1848.28 L2262.72 1830.92 Z" fill="#000000" fill-rule="evenodd" fill-opacity="1" /><path clip-path="url(#clip630)" d="M2292.83 1859.6 L2297.72 1859.6 L2297.72 1865.48 L2292.83 1865.48 L2292.83 1859.6 Z" fill="#000000" fill-rule="evenodd" fill-opacity="1" /><path clip-path="url(#clip630)" d="M2317.9 1834 Q2314.29 1834 2312.46 1837.57 Q2310.66 1841.11 2310.66 1848.24 Q2310.66 1855.34 2312.46 1858.91 Q2314.29 1862.45 2317.9 1862.45 Q2321.54 1862.45 2323.34 1858.91 Q2325.17 1855.34 2325.17 1848.24 Q2325.17 1841.11 2323.34 1837.57 Q2321.54 1834 2317.9 1834 M2317.9 1830.3 Q2323.71 1830.3 2326.77 1834.9 Q2329.85 1839.49 2329.85 1848.24 Q2329.85 1856.96 2326.77 1861.57 Q2323.71 1866.15 2317.9 1866.15 Q2312.09 1866.15 2309.01 1861.57 Q2305.96 1856.96 2305.96 1848.24 Q2305.96 1839.49 2309.01 1834.9 Q2312.09 1830.3 2317.9 1830.3 Z" fill="#000000" fill-rule="evenodd" fill-opacity="1" /><polyline clip-path="url(#clip632)" style="stroke:#000000; stroke-linecap:butt; stroke-linejoin:round; stroke-width:2; stroke-opacity:0.1; fill:none" points="
  542.018,1800.78 2295.55,1800.78 
  "/>
<polyline clip-path="url(#clip632)" style="stroke:#000000; stroke-linecap:butt; stroke-linejoin:round; stroke-width:2; stroke-opacity:0.1; fill:none" points="
  542.018,1362.4 2295.55,1362.4 
  "/>
<polyline clip-path="url(#clip632)" style="stroke:#000000; stroke-linecap:butt; stroke-linejoin:round; stroke-width:2; stroke-opacity:0.1; fill:none" points="
  542.018,924.012 2295.55,924.012 
  "/>
<polyline clip-path="url(#clip632)" style="stroke:#000000; stroke-linecap:butt; stroke-linejoin:round; stroke-width:2; stroke-opacity:0.1; fill:none" points="
  542.018,485.628 2295.55,485.628 
  "/>
<polyline clip-path="url(#clip632)" style="stroke:#000000; stroke-linecap:butt; stroke-linejoin:round; stroke-width:2; stroke-opacity:0.1; fill:none" points="
  542.018,47.2441 2295.55,47.2441 
  "/>
<polyline clip-path="url(#clip630)" style="stroke:#000000; stroke-linecap:butt; stroke-linejoin:round; stroke-width:4; stroke-opacity:1; fill:none" points="
  542.018,1800.78 542.018,47.2441 
  "/>
<polyline clip-path="url(#clip630)" style="stroke:#000000; stroke-linecap:butt; stroke-linejoin:round; stroke-width:4; stroke-opacity:1; fill:none" points="
  542.018,1800.78 555.577,1800.78 
  "/>
<polyline clip-path="url(#clip630)" style="stroke:#000000; stroke-linecap:butt; stroke-linejoin:round; stroke-width:4; stroke-opacity:1; fill:none" points="
  542.018,1362.4 555.577,1362.4 
  "/>
<polyline clip-path="url(#clip630)" style="stroke:#000000; stroke-linecap:butt; stroke-linejoin:round; stroke-width:4; stroke-opacity:1; fill:none" points="
  542.018,924.012 555.577,924.012 
  "/>
<polyline clip-path="url(#clip630)" style="stroke:#000000; stroke-linecap:butt; stroke-linejoin:round; stroke-width:4; stroke-opacity:1; fill:none" points="
  542.018,485.628 555.577,485.628 
  "/>
<polyline clip-path="url(#clip630)" style="stroke:#000000; stroke-linecap:butt; stroke-linejoin:round; stroke-width:4; stroke-opacity:1; fill:none" points="
  542.018,47.2441 555.577,47.2441 
  "/>
<path clip-path="url(#clip630)" d="M394.754 1801.23 L424.43 1801.23 L424.43 1805.17 L394.754 1805.17 L394.754 1801.23 Z" fill="#000000" fill-rule="evenodd" fill-opacity="1" /><path clip-path="url(#clip630)" d="M434.569 1783.5 L452.925 1783.5 L452.925 1787.43 L438.851 1787.43 L438.851 1795.91 Q439.87 1795.56 440.888 1795.4 Q441.907 1795.21 442.926 1795.21 Q448.713 1795.21 452.092 1798.38 Q455.472 1801.55 455.472 1806.97 Q455.472 1812.55 452 1815.65 Q448.527 1818.73 442.208 1818.73 Q440.032 1818.73 437.764 1818.36 Q435.518 1817.99 433.111 1817.25 L433.111 1812.55 Q435.194 1813.68 437.416 1814.24 Q439.638 1814.8 442.115 1814.8 Q446.12 1814.8 448.458 1812.69 Q450.796 1810.58 450.796 1806.97 Q450.796 1803.36 448.458 1801.25 Q446.12 1799.15 442.115 1799.15 Q440.24 1799.15 438.365 1799.56 Q436.514 1799.98 434.569 1800.86 L434.569 1783.5 Z" fill="#000000" fill-rule="evenodd" fill-opacity="1" /><path clip-path="url(#clip630)" d="M464.685 1812.18 L469.569 1812.18 L469.569 1818.06 L464.685 1818.06 L464.685 1812.18 Z" fill="#000000" fill-rule="evenodd" fill-opacity="1" /><path clip-path="url(#clip630)" d="M489.754 1786.58 Q486.143 1786.58 484.314 1790.14 Q482.509 1793.68 482.509 1800.81 Q482.509 1807.92 484.314 1811.49 Q486.143 1815.03 489.754 1815.03 Q493.388 1815.03 495.194 1811.49 Q497.022 1807.92 497.022 1800.81 Q497.022 1793.68 495.194 1790.14 Q493.388 1786.58 489.754 1786.58 M489.754 1782.87 Q495.564 1782.87 498.62 1787.48 Q501.698 1792.06 501.698 1800.81 Q501.698 1809.54 498.62 1814.15 Q495.564 1818.73 489.754 1818.73 Q483.944 1818.73 480.865 1814.15 Q477.81 1809.54 477.81 1800.81 Q477.81 1792.06 480.865 1787.48 Q483.944 1782.87 489.754 1782.87 Z" fill="#000000" fill-rule="evenodd" fill-opacity="1" /><path clip-path="url(#clip630)" d="M395.75 1362.85 L425.426 1362.85 L425.426 1366.78 L395.75 1366.78 L395.75 1362.85 Z" fill="#000000" fill-rule="evenodd" fill-opacity="1" /><path clip-path="url(#clip630)" d="M439.546 1375.74 L455.865 1375.74 L455.865 1379.68 L433.921 1379.68 L433.921 1375.74 Q436.583 1372.99 441.166 1368.36 Q445.773 1363.7 446.953 1362.36 Q449.199 1359.84 450.078 1358.1 Q450.981 1356.34 450.981 1354.65 Q450.981 1351.9 449.037 1350.16 Q447.115 1348.43 444.013 1348.43 Q441.814 1348.43 439.361 1349.19 Q436.93 1349.95 434.152 1351.5 L434.152 1346.78 Q436.976 1345.65 439.43 1345.07 Q441.884 1344.49 443.921 1344.49 Q449.291 1344.49 452.486 1347.18 Q455.68 1349.86 455.68 1354.35 Q455.68 1356.48 454.87 1358.4 Q454.083 1360.3 451.976 1362.89 Q451.398 1363.56 448.296 1366.78 Q445.194 1369.98 439.546 1375.74 Z" fill="#000000" fill-rule="evenodd" fill-opacity="1" /><path clip-path="url(#clip630)" d="M465.68 1373.8 L470.564 1373.8 L470.564 1379.68 L465.68 1379.68 L465.68 1373.8 Z" fill="#000000" fill-rule="evenodd" fill-opacity="1" /><path clip-path="url(#clip630)" d="M480.796 1345.12 L499.152 1345.12 L499.152 1349.05 L485.078 1349.05 L485.078 1357.52 Q486.097 1357.18 487.115 1357.01 Q488.134 1356.83 489.152 1356.83 Q494.939 1356.83 498.319 1360 Q501.698 1363.17 501.698 1368.59 Q501.698 1374.17 498.226 1377.27 Q494.754 1380.35 488.435 1380.35 Q486.259 1380.35 483.99 1379.98 Q481.745 1379.61 479.337 1378.87 L479.337 1374.17 Q481.421 1375.3 483.643 1375.86 Q485.865 1376.41 488.342 1376.41 Q492.347 1376.41 494.684 1374.31 Q497.022 1372.2 497.022 1368.59 Q497.022 1364.98 494.684 1362.87 Q492.347 1360.76 488.342 1360.76 Q486.467 1360.76 484.592 1361.18 Q482.74 1361.6 480.796 1362.48 L480.796 1345.12 Z" fill="#000000" fill-rule="evenodd" fill-opacity="1" /><path clip-path="url(#clip630)" d="M444.523 909.81 Q440.912 909.81 439.083 913.375 Q437.277 916.917 437.277 924.046 Q437.277 931.153 439.083 934.718 Q440.912 938.259 444.523 938.259 Q448.157 938.259 449.963 934.718 Q451.791 931.153 451.791 924.046 Q451.791 916.917 449.963 913.375 Q448.157 909.81 444.523 909.81 M444.523 906.107 Q450.333 906.107 453.388 910.713 Q456.467 915.296 456.467 924.046 Q456.467 932.773 453.388 937.38 Q450.333 941.963 444.523 941.963 Q438.713 941.963 435.634 937.38 Q432.578 932.773 432.578 924.046 Q432.578 915.296 435.634 910.713 Q438.713 906.107 444.523 906.107 Z" fill="#000000" fill-rule="evenodd" fill-opacity="1" /><path clip-path="url(#clip630)" d="M464.685 935.412 L469.569 935.412 L469.569 941.292 L464.685 941.292 L464.685 935.412 Z" fill="#000000" fill-rule="evenodd" fill-opacity="1" /><path clip-path="url(#clip630)" d="M489.754 909.81 Q486.143 909.81 484.314 913.375 Q482.509 916.917 482.509 924.046 Q482.509 931.153 484.314 934.718 Q486.143 938.259 489.754 938.259 Q493.388 938.259 495.194 934.718 Q497.022 931.153 497.022 924.046 Q497.022 916.917 495.194 913.375 Q493.388 909.81 489.754 909.81 M489.754 906.107 Q495.564 906.107 498.62 910.713 Q501.698 915.296 501.698 924.046 Q501.698 932.773 498.62 937.38 Q495.564 941.963 489.754 941.963 Q483.944 941.963 480.865 937.38 Q477.81 932.773 477.81 924.046 Q477.81 915.296 480.865 910.713 Q483.944 906.107 489.754 906.107 Z" fill="#000000" fill-rule="evenodd" fill-opacity="1" /><path clip-path="url(#clip630)" d="M439.546 498.973 L455.865 498.973 L455.865 502.908 L433.921 502.908 L433.921 498.973 Q436.583 496.218 441.166 491.589 Q445.773 486.936 446.953 485.593 Q449.199 483.07 450.078 481.334 Q450.981 479.575 450.981 477.885 Q450.981 475.13 449.037 473.394 Q447.115 471.658 444.013 471.658 Q441.814 471.658 439.361 472.422 Q436.93 473.186 434.152 474.737 L434.152 470.015 Q436.976 468.88 439.43 468.302 Q441.884 467.723 443.921 467.723 Q449.291 467.723 452.486 470.408 Q455.68 473.093 455.68 477.584 Q455.68 479.714 454.87 481.635 Q454.083 483.533 451.976 486.126 Q451.398 486.797 448.296 490.014 Q445.194 493.209 439.546 498.973 Z" fill="#000000" fill-rule="evenodd" fill-opacity="1" /><path clip-path="url(#clip630)" d="M465.68 497.028 L470.564 497.028 L470.564 502.908 L465.68 502.908 L465.68 497.028 Z" fill="#000000" fill-rule="evenodd" fill-opacity="1" /><path clip-path="url(#clip630)" d="M480.796 468.348 L499.152 468.348 L499.152 472.283 L485.078 472.283 L485.078 480.755 Q486.097 480.408 487.115 480.246 Q488.134 480.061 489.152 480.061 Q494.939 480.061 498.319 483.232 Q501.698 486.403 501.698 491.82 Q501.698 497.399 498.226 500.501 Q494.754 503.579 488.435 503.579 Q486.259 503.579 483.99 503.209 Q481.745 502.838 479.337 502.098 L479.337 497.399 Q481.421 498.533 483.643 499.088 Q485.865 499.644 488.342 499.644 Q492.347 499.644 494.684 497.538 Q497.022 495.431 497.022 491.82 Q497.022 488.209 494.684 486.102 Q492.347 483.996 488.342 483.996 Q486.467 483.996 484.592 484.413 Q482.74 484.829 480.796 485.709 L480.796 468.348 Z" fill="#000000" fill-rule="evenodd" fill-opacity="1" /><path clip-path="url(#clip630)" d="M434.569 29.9641 L452.925 29.9641 L452.925 33.8993 L438.851 33.8993 L438.851 42.3714 Q439.87 42.0242 440.888 41.8622 Q441.907 41.677 442.926 41.677 Q448.713 41.677 452.092 44.8483 Q455.472 48.0196 455.472 53.4362 Q455.472 59.0149 452 62.1167 Q448.527 65.1954 442.208 65.1954 Q440.032 65.1954 437.764 64.825 Q435.518 64.4547 433.111 63.7139 L433.111 59.0149 Q435.194 60.1491 437.416 60.7047 Q439.638 61.2602 442.115 61.2602 Q446.12 61.2602 448.458 59.1538 Q450.796 57.0473 450.796 53.4362 Q450.796 49.8251 448.458 47.7186 Q446.12 45.6122 442.115 45.6122 Q440.24 45.6122 438.365 46.0288 Q436.514 46.4455 434.569 47.3251 L434.569 29.9641 Z" fill="#000000" fill-rule="evenodd" fill-opacity="1" /><path clip-path="url(#clip630)" d="M464.685 58.6445 L469.569 58.6445 L469.569 64.5241 L464.685 64.5241 L464.685 58.6445 Z" fill="#000000" fill-rule="evenodd" fill-opacity="1" /><path clip-path="url(#clip630)" d="M489.754 33.0428 Q486.143 33.0428 484.314 36.6076 Q482.509 40.1492 482.509 47.2788 Q482.509 54.3853 484.314 57.9501 Q486.143 61.4917 489.754 61.4917 Q493.388 61.4917 495.194 57.9501 Q497.022 54.3853 497.022 47.2788 Q497.022 40.1492 495.194 36.6076 Q493.388 33.0428 489.754 33.0428 M489.754 29.3391 Q495.564 29.3391 498.62 33.9456 Q501.698 38.5289 501.698 47.2788 Q501.698 56.0056 498.62 60.6121 Q495.564 65.1954 489.754 65.1954 Q483.944 65.1954 480.865 60.6121 Q477.81 56.0056 477.81 47.2788 Q477.81 38.5289 480.865 33.9456 Q483.944 29.3391 489.754 29.3391 Z" fill="#000000" fill-rule="evenodd" fill-opacity="1" /><polyline clip-path="url(#clip632)" style="stroke:#1e90ff; stroke-linecap:butt; stroke-linejoin:round; stroke-width:4; stroke-opacity:1; fill:none" points="
  2122.97,1800.78 2119.76,1797.54 2118.61,1796.38 2115.37,1793.11 2114.24,1791.99 2110.97,1788.69 2109.88,1787.59 2106.58,1784.26 2105.51,1783.2 2102.18,1779.83 
  2101.15,1778.81 2097.79,1775.41 2096.79,1774.41 2093.39,1770.98 2092.43,1770.02 2089,1766.55 2088.07,1765.62 2084.6,1762.12 2083.71,1761.23 2080.21,1757.69 
  2079.35,1756.83 2075.81,1753.26 2074.99,1752.44 2071.42,1748.83 2070.63,1748.04 2067.02,1744.4 2066.27,1743.65 2062.63,1739.97 2061.91,1739.25 2058.23,1735.54 
  2057.55,1734.86 2053.84,1731.1 2053.2,1730.46 2049.44,1726.67 2048.84,1726.07 2045.05,1722.23 2044.49,1721.67 2040.65,1717.8 2040.13,1717.28 2036.26,1713.36 
  2035.78,1712.88 2031.86,1708.93 2031.43,1708.49 2027.47,1704.49 2027.07,1704.09 2023.07,1700.05 2022.72,1699.7 2018.68,1695.61 2018.37,1695.3 2014.28,1691.17 
  2014.02,1690.91 2009.89,1686.73 2009.67,1686.51 2005.5,1682.29 2005.32,1682.12 2001.1,1677.85 2000.98,1677.72 1996.71,1673.4 1996.63,1673.33 1992.31,1668.96 
  1992.29,1668.93 1987.94,1664.54 1987.92,1664.51 1983.6,1660.14 1983.52,1660.07 1979.25,1655.75 1979.13,1655.62 1974.91,1651.36 1974.73,1651.17 1970.57,1646.96 
  1970.34,1646.72 1966.23,1642.57 1965.94,1642.27 1961.89,1638.17 1961.55,1637.82 1957.55,1633.78 1957.15,1633.36 1953.22,1629.38 1952.76,1628.91 1948.88,1624.99 
  1948.36,1624.45 1944.55,1620.59 1943.97,1620 1940.21,1616.2 1939.57,1615.54 1935.88,1611.8 1935.18,1611.08 1931.55,1607.41 1930.78,1606.62 1927.22,1603.01 
  1926.39,1602.16 1922.89,1598.62 1921.99,1597.69 1918.56,1594.22 1917.6,1593.23 1914.24,1589.83 1913.2,1588.76 1909.92,1585.43 1908.81,1584.3 1905.59,1581.04 
  1904.41,1579.83 1901.27,1576.64 1900.02,1575.36 1896.95,1572.25 1895.62,1570.88 1892.64,1567.85 1891.23,1566.41 1888.32,1563.46 1886.83,1561.93 1884,1559.06 
  1882.44,1557.45 1879.69,1554.67 1878.05,1552.97 1875.38,1550.27 1873.65,1548.49 1871.07,1545.88 1869.26,1544.01 1866.77,1541.48 1864.86,1539.52 1862.46,1537.09 
  1860.47,1535.04 1858.16,1532.69 1856.07,1530.55 1853.86,1528.3 1851.68,1526.05 1849.56,1523.91 1847.28,1521.56 1845.26,1519.51 1842.89,1517.06 1840.97,1515.12 
  1838.49,1512.56 1836.67,1510.72 1834.1,1508.06 1832.39,1506.33 1829.7,1503.56 1828.1,1501.93 1825.31,1499.05 1823.81,1497.54 1820.91,1494.54 1819.53,1493.14 
  1816.52,1490.03 1815.25,1488.75 1812.12,1485.51 1810.98,1484.35 1807.73,1481 1806.7,1479.96 1803.33,1476.48 1802.43,1475.56 1798.94,1471.95 1798.17,1471.17 
  1794.54,1467.42 1793.9,1466.77 1790.15,1462.89 1789.64,1462.38 1785.75,1458.36 1785.38,1457.98 1781.36,1453.82 1781.13,1453.59 1776.96,1449.28 1776.88,1449.19 
  1772.63,1444.8 1772.57,1444.73 1768.39,1440.4 1768.17,1440.18 1764.15,1436.01 1763.78,1435.62 1759.91,1431.61 1759.38,1431.06 1755.68,1427.22 1754.99,1426.49 
  1751.45,1422.82 1750.6,1421.92 1747.23,1418.43 1746.2,1417.34 1743.01,1414.03 1741.81,1412.76 1738.8,1409.64 1737.41,1408.17 1734.59,1405.25 1733.02,1403.58 
  1730.38,1400.85 1728.62,1398.98 1726.18,1396.46 1724.23,1394.38 1721.99,1392.06 1719.83,1389.77 1717.8,1387.67 1715.44,1385.15 1713.62,1383.27 1711.04,1380.53 
  1709.45,1378.88 1706.65,1375.9 1705.28,1374.48 1702.25,1371.27 1701.12,1370.09 1697.86,1366.62 1696.96,1365.69 1693.46,1361.97 1692.82,1361.3 1689.07,1357.31 
  1688.68,1356.9 1684.67,1352.64 1684.54,1352.51 1680.42,1348.11 1680.28,1347.96 1676.29,1343.72 1675.88,1343.27 1672.18,1339.32 1671.49,1338.57 1668.08,1334.93 
  1667.09,1333.85 1663.98,1330.53 1662.7,1329.13 1659.9,1326.14 1658.3,1324.39 1655.82,1321.74 1653.91,1319.65 1651.76,1317.35 1649.51,1314.89 1647.7,1312.95 
  1645.12,1310.12 1643.66,1308.56 1640.72,1305.34 1639.63,1304.16 1636.33,1300.54 1635.61,1299.77 1631.93,1295.73 1631.6,1295.37 1627.61,1290.98 1627.54,1290.91 
  1623.62,1286.58 1623.15,1286.05 1619.64,1282.19 1618.75,1281.18 1615.68,1277.8 1614.36,1276.29 1611.74,1273.4 1609.96,1271.39 1607.81,1269.01 1605.57,1266.46 
  1603.89,1264.61 1601.17,1261.52 1600,1260.22 1596.78,1256.55 1596.12,1255.82 1592.38,1251.56 1592.26,1251.43 1588.41,1247.03 1587.99,1246.54 1584.57,1242.64 
  1583.59,1241.48 1580.76,1238.24 1579.2,1236.4 1576.97,1233.85 1574.8,1231.29 1573.2,1229.45 1570.41,1226.15 1569.46,1225.06 1566.01,1220.98 1565.73,1220.66 
  1562.03,1216.27 1561.62,1215.76 1558.34,1211.87 1557.22,1210.5 1554.69,1207.48 1552.83,1205.2 1551.06,1203.08 1548.43,1199.86 1547.45,1198.69 1544.04,1194.48 
  1543.88,1194.29 1540.33,1189.9 1539.64,1189.02 1536.81,1185.5 1535.25,1183.51 1533.32,1181.11 1530.85,1177.95 1529.86,1176.71 1526.46,1172.34 1526.44,1172.32 
  1523.04,1167.92 1522.06,1166.62 1519.68,1163.53 1517.67,1160.84 1516.36,1159.13 1513.27,1155 1513.07,1154.74 1509.82,1150.35 1508.88,1149.03 1506.61,1145.95 
  1504.49,1142.97 1503.44,1141.56 1500.31,1137.16 1500.09,1136.83 1497.22,1132.77 1495.7,1130.52 1494.18,1128.37 1491.3,1124.14 1491.19,1123.98 1488.23,1119.58 
  1486.91,1117.54 1485.32,1115.19 1482.51,1110.85 1482.47,1110.79 1479.66,1106.4 1478.12,1103.9 1476.9,1102 1474.2,1097.61 1473.72,1096.78 1471.55,1093.21 
  1469.33,1089.42 1468.96,1088.82 1466.41,1084.42 1464.93,1081.76 1463.93,1080.03 1461.5,1075.63 1460.54,1073.8 1459.14,1071.24 1456.83,1066.84 1456.14,1065.46 
  1454.58,1062.45 1452.4,1058.05 1451.75,1056.67 1450.27,1053.66 1448.22,1049.26 1447.35,1047.31 1446.22,1044.87 1444.29,1040.47 1442.96,1037.28 1442.43,1036.08 
  1440.63,1031.68 1438.91,1027.29 1438.56,1026.33 1437.25,1022.9 1435.66,1018.5 1434.17,1014.18 1434.14,1014.11 1432.68,1009.71 1431.3,1005.32 1429.99,1000.92 
  1429.77,1000.09 1428.75,996.526 1427.58,992.131 1426.49,987.737 1425.47,983.342 1425.38,982.898 1424.51,978.947 1423.63,974.552 1422.83,970.157 1422.1,965.763 
  1421.44,961.368 1420.98,957.873 1420.85,956.973 1420.34,952.578 1419.9,948.183 1419.53,943.788 1419.24,939.394 1419.02,934.999 1418.87,930.604 1418.8,926.209 
  1416.59,924.003 1412.19,923.929 1407.8,923.782 1403.4,923.562 1399.01,923.269 1394.61,922.901 1390.22,922.461 1385.82,921.947 1384.92,921.814 1381.43,921.361 
  1377.04,920.702 1372.64,919.969 1368.25,919.163 1363.85,918.283 1359.9,917.419 1359.46,917.33 1355.06,916.309 1350.67,915.213 1346.27,914.044 1342.7,913.025 
  1341.88,912.803 1337.48,911.496 1333.09,910.114 1328.69,908.659 1328.61,908.63 1324.3,907.141 1319.9,905.55 1316.47,904.235 1315.51,903.887 1311.11,902.163 
  1306.72,900.364 1305.52,899.84 1302.32,898.504 1297.93,896.575 1295.49,895.445 1293.53,894.581 1289.14,892.524 1286.13,891.051 1284.74,890.399 1280.35,888.217 
  1277.34,886.656 1275.95,885.968 1271.56,883.663 1269,882.261 1267.16,881.294 1262.77,878.868 1261.04,877.866 1258.37,876.385 1253.98,873.84 1253.37,873.471 
  1249.59,871.249 1246.01,869.076 1245.19,868.594 1240.8,865.893 1238.9,864.682 1236.4,863.138 1232.01,860.324 1231.95,860.287 1227.61,857.475 1225.26,855.892 
  1223.22,854.569 1218.82,851.611 1218.66,851.497 1214.43,848.619 1212.27,847.102 1210.03,845.576 1205.97,842.707 1205.64,842.483 1201.24,839.359 1199.82,838.313 
  1196.85,836.191 1193.77,833.918 1192.45,832.977 1188.06,829.723 1187.8,829.523 1183.66,826.442 1181.96,825.128 1179.27,823.12 1176.18,820.733 1174.87,819.758 
  1170.48,816.359 1170.45,816.338 1166.08,812.938 1164.85,811.944 1161.69,809.482 1159.29,807.549 1157.29,805.992 1153.78,803.154 1152.9,802.468 1148.5,798.915 
  1148.32,798.759 1144.11,795.343 1142.94,794.364 1139.71,791.742 1137.6,789.97 1135.32,788.111 1132.3,785.575 1130.92,784.453 1127.03,781.18 1126.53,780.769 
  1122.14,777.064 1121.81,776.785 1117.74,773.342 1116.65,772.39 1113.35,769.595 1111.51,767.995 1108.95,765.826 1106.4,763.601 1104.56,762.035 1101.32,759.206 
  1100.16,758.223 1096.26,754.811 1095.77,754.391 1091.37,750.541 1091.23,750.416 1086.98,746.68 1086.25,746.021 1082.58,742.801 1081.28,741.626 1078.19,738.904 
  1076.34,737.232 1073.79,734.99 1071.41,732.837 1069.4,731.06 1066.51,728.442 1065,727.115 1061.62,724.047 1060.61,723.155 1056.75,719.652 1056.21,719.18 
  1051.89,715.258 1051.82,715.192 1047.42,711.197 1047.07,710.863 1043.03,707.189 1042.26,706.468 1038.63,703.169 1037.46,702.073 1034.24,699.137 1032.68,697.678 
  1029.84,695.094 1027.91,693.283 1025.45,691.039 1023.15,688.889 1021.05,686.974 1018.4,684.494 1016.66,682.899 1013.67,680.099 1012.26,678.814 1008.94,675.704 
  1007.87,674.719 1004.23,671.309 1003.47,670.615 999.529,666.914 999.08,666.503 994.835,662.52 994.685,662.382 990.291,658.255 990.155,658.125 985.896,654.122 
  985.487,653.73 981.501,649.982 980.828,649.335 977.106,645.834 976.176,644.94 972.711,641.679 971.532,640.545 968.316,637.517 966.895,636.151 963.922,633.349 
  962.266,631.756 959.527,629.174 957.643,627.361 955.132,624.993 953.027,622.966 950.737,620.806 948.417,618.571 946.342,616.613 943.813,614.177 941.947,612.414 
  939.215,609.782 937.553,608.211 934.623,605.387 933.158,604.002 930.036,600.992 928.763,599.788 925.455,596.597 924.368,595.569 920.878,592.202 919.973,591.346 
  916.307,587.808 915.578,587.118 911.74,583.413 911.184,582.885 907.178,579.018 906.789,578.649 902.621,574.623 902.394,574.408 898.067,570.228 897.999,570.164 
  893.604,565.916 893.52,565.833 889.21,561.666 888.978,561.439 884.815,557.413 884.44,557.044 880.42,553.156 879.905,552.649 876.025,548.895 875.374,548.254 
  871.63,544.631 870.847,543.859 867.235,540.364 866.322,539.465 862.841,536.094 861.801,535.07 858.446,531.82 857.283,530.675 854.051,527.544 852.768,526.28 
  849.656,523.265 848.255,521.885 845.261,518.984 843.746,517.49 840.866,514.699 839.239,513.096 836.472,510.412 834.735,508.701 832.077,506.123 830.234,504.306 
  827.682,501.831 825.734,499.911 823.287,497.537 821.238,495.516 818.892,493.24 816.744,491.121 814.498,488.941 812.251,486.727 810.103,484.64 807.762,482.332 
  805.708,480.337 803.274,477.937 801.313,476.032 798.788,473.542 796.918,471.725 794.305,469.147 792.523,467.416 789.823,464.752 788.129,463.106 785.343,460.358 
  783.734,458.793 780.865,455.963 779.339,454.479 776.389,451.568 774.944,450.163 771.915,447.173 770.549,445.845 767.442,442.778 766.154,441.526 762.971,438.384 
  761.76,437.205 758.502,433.989 757.365,432.882 754.034,429.594 752.97,428.558 749.568,425.199 748.575,424.233 745.103,420.804 744.18,419.906 740.639,416.409 
  739.785,415.578 736.177,412.015 735.391,411.248 731.717,407.62 730.996,406.917 727.257,403.225 726.601,402.585 722.799,398.83 722.206,398.252 718.343,394.435 
  717.811,393.917 713.887,390.04 713.417,389.582 709.433,385.646 709.022,385.245 704.98,381.251 704.627,380.907 700.528,376.856 700.232,376.568 696.077,372.461 
  695.837,372.228 691.627,368.066 691.442,367.886 687.178,363.672 687.048,363.544 682.73,359.277 682.653,359.201 678.284,354.882 678.258,354.857 673.863,350.512 
  673.838,350.487 669.468,346.167 669.394,346.092 665.073,341.82 664.951,341.697 660.679,337.473 660.508,337.303 656.284,333.125 656.067,332.908 651.889,328.776 
  651.626,328.513 647.494,324.426 647.186,324.118 643.099,320.076 642.747,319.723 638.704,315.724 638.309,315.328 634.31,311.372 633.872,310.934 629.915,307.019 
  629.435,306.539 625.52,302.665 624.999,302.144 621.125,298.311 620.564,297.749 616.73,293.956 616.129,293.354 612.336,289.6 611.695,288.959 607.941,285.244 
  607.262,284.565 603.546,280.887 602.83,280.17 599.151,276.529 598.398,275.775 594.756,272.171 593.967,271.38 590.361,267.812 589.536,266.985 585.967,263.452 
  585.106,262.591 581.572,259.092 580.676,258.196 577.177,254.731 576.247,253.801 572.782,250.37 571.819,249.406 568.387,246.008 567.391,245.011 563.992,241.646 
  562.964,240.616 559.598,237.283 558.537,236.222 555.203,232.92 554.111,231.827 550.808,228.556 549.685,227.432 546.413,224.192 545.26,223.037 542.018,219.827 
  
  "/>
<polyline clip-path="url(#clip632)" style="stroke:#1e90ff; stroke-linecap:butt; stroke-linejoin:round; stroke-width:4; stroke-opacity:1; fill:none" points="
  1686.71,750.416 1684.87,754.811 1684.67,755.263 1682.86,759.206 1680.75,763.601 1680.28,764.533 1678.47,767.995 1676.11,772.39 1675.88,772.787 1673.56,776.785 
  1671.49,780.27 1670.93,781.18 1668.14,785.575 1667.09,787.181 1665.21,789.97 1662.7,793.643 1662.19,794.364 1659,798.759 1658.3,799.703 1655.67,803.154 
  1653.91,805.428 1652.21,807.549 1649.51,810.874 1648.61,811.944 1645.12,816.066 1644.88,816.338 1640.98,820.733 1640.72,821.018 1636.91,825.128 1636.33,825.755 
  1632.69,829.523 1631.93,830.302 1628.3,833.918 1627.54,834.673 1623.74,838.313 1623.15,838.88 1618.99,842.707 1618.75,842.933 1614.36,846.836 1614.04,847.102 
  1609.96,850.595 1608.87,851.497 1605.57,854.226 1603.47,855.892 1601.17,857.735 1597.86,860.287 1596.78,861.128 1592.38,864.405 1591.99,864.682 1587.99,867.561 
  1585.8,869.076 1583.59,870.617 1579.35,873.471 1579.2,873.577 1574.8,876.42 1572.48,877.866 1570.41,879.174 1566.01,881.836 1565.27,882.261 1561.62,884.396 
  1557.61,886.656 1557.22,886.876 1552.83,889.255 1549.38,891.051 1548.43,891.556 1544.04,893.763 1540.55,895.445 1539.64,895.894 1535.25,897.933 1530.98,899.84 
  1530.85,899.899 1526.46,901.774 1522.06,903.576 1520.34,904.235 1517.67,905.295 1513.27,906.935 1508.88,908.503 1508.49,908.63 1504.49,909.986 1500.09,911.395 
  1495.7,912.731 1494.63,913.025 1491.3,913.987 1486.91,915.168 1482.51,916.276 1478.12,917.31 1477.58,917.419 1473.72,918.267 1469.33,919.149 1464.93,919.959 
  1460.54,920.694 1456.14,921.357 1452.64,921.814 1451.75,921.946 1447.35,922.46 1442.96,922.901 1438.56,923.268 1434.17,923.562 1429.77,923.782 1425.38,923.929 
  1420.98,924.002 1418.8,921.814 1418.87,917.419 1419.02,913.025 1419.24,908.63 1419.53,904.235 1419.9,899.84 1420.34,895.445 1420.85,891.051 1420.98,890.158 
  1421.44,886.656 1422.1,882.261 1422.84,877.866 1423.65,873.471 1424.53,869.076 1425.38,865.216 1425.49,864.682 1426.52,860.287 1427.63,855.892 1428.81,851.497 
  1429.77,848.171 1430.07,847.102 1431.4,842.707 1432.81,838.313 1434.17,834.309 1434.29,833.918 1435.86,829.523 1437.5,825.128 1438.56,822.455 1439.22,820.733 
  1441.02,816.338 1442.9,811.944 1442.96,811.815 1444.86,807.549 1446.9,803.154 1447.35,802.247 1449.03,798.759 1451.24,794.364 1451.75,793.415 1453.54,789.97 
  1455.92,785.575 1456.14,785.19 1458.4,781.18 1460.54,777.524 1460.96,776.785 1463.62,772.39 1464.93,770.318 1466.38,767.995 1469.22,763.601 1469.33,763.446 
  1472.18,759.206 1473.72,757.002 1475.24,754.811 1478.12,750.804 1478.39,750.416 1481.67,746.021 1482.51,744.938 1485.06,741.626 1486.91,739.325 1488.57,737.232 
  1491.3,733.932 1492.2,732.837 1495.7,728.755 1495.96,728.442 1499.86,724.047 1500.09,723.803 1503.92,719.652 1504.49,719.06 1508.12,715.258 1508.88,714.498 
  1512.5,710.863 1513.27,710.108 1517.04,706.468 1517.67,705.885 1521.78,702.073 1522.06,701.819 1526.46,697.918 1526.73,697.678 1530.85,694.183 1531.92,693.283 
  1535.25,690.591 1537.37,688.889 1539.64,687.132 1543.09,684.494 1544.04,683.798 1548.43,680.612 1549.15,680.099 1552.83,677.583 1555.62,675.704 1557.22,674.661 
  1561.62,671.871 1562.53,671.309 1566.01,669.237 1570.01,666.914 1570.41,666.692 1574.8,664.327 1578.26,662.52 1579.2,662.05 1583.59,659.942 1587.53,658.125 
  1587.99,657.924 1592.38,656.091 1596.78,654.353 1598.47,653.73 1601.17,652.778 1605.57,651.349 1609.96,650.043 1612.64,649.335 1614.36,648.898 1618.75,647.934 
  1623.15,647.122 1627.54,646.476 1631.93,646.011 1636.33,645.74 1640.72,645.681 1645.12,645.851 1649.51,646.27 1653.91,646.959 1658.3,647.94 1662.7,649.239 
  1662.96,649.335 1667.09,651.005 1671.49,653.19 1672.41,653.73 1675.88,656.011 1678.63,658.125 1680.28,659.559 1683.24,662.52 1684.67,664.167 1686.79,666.914 
  1689.07,670.39 1689.61,671.309 1691.79,675.704 1693.46,679.837 1693.56,680.099 1694.86,684.494 1695.84,688.889 1696.53,693.283 1696.95,697.678 1697.12,702.073 
  1697.06,706.468 1696.79,710.863 1696.32,715.258 1695.68,719.652 1694.86,724.047 1693.9,728.442 1693.46,730.16 1692.75,732.837 1691.45,737.232 1690.02,741.626 
  1689.07,744.323 1688.44,746.021 1686.71,750.416 
  "/>
<path clip-path="url(#clip630)" d="
M1890.11 209.375 L2214.09 209.375 L2214.09 105.695 L1890.11 105.695  Z
  " fill="#ffffff" fill-rule="evenodd" fill-opacity="1"/>
<polyline clip-path="url(#clip630)" style="stroke:#000000; stroke-linecap:butt; stroke-linejoin:round; stroke-width:4; stroke-opacity:1; fill:none" points="
  1890.11,209.375 2214.09,209.375 2214.09,105.695 1890.11,105.695 1890.11,209.375 
  "/>
<polyline clip-path="url(#clip630)" style="stroke:#1e90ff; stroke-linecap:butt; stroke-linejoin:round; stroke-width:4; stroke-opacity:1; fill:none" points="
  1917.26,157.535 2080.19,157.535 
  "/>
<path clip-path="url(#clip630)" d="M2121.19 177.223 Q2119.39 181.852 2117.67 183.264 Q2115.96 184.676 2113.09 184.676 L2109.69 184.676 L2109.69 181.112 L2112.19 181.112 Q2113.95 181.112 2114.92 180.278 Q2115.89 179.445 2117.07 176.343 L2117.83 174.399 L2107.35 148.889 L2111.86 148.889 L2119.96 169.167 L2128.07 148.889 L2132.58 148.889 L2121.19 177.223 Z" fill="#000000" fill-rule="evenodd" fill-opacity="1" /><path clip-path="url(#clip630)" d="M2139.87 170.88 L2147.51 170.88 L2147.51 144.515 L2139.2 146.181 L2139.2 141.922 L2147.46 140.255 L2152.14 140.255 L2152.14 170.88 L2159.78 170.88 L2159.78 174.815 L2139.87 174.815 L2139.87 170.88 Z" fill="#000000" fill-rule="evenodd" fill-opacity="1" /></svg>
