<?xml version="1.0" encoding="utf-8"?>
<svg xmlns="http://www.w3.org/2000/svg" xmlns:xlink="http://www.w3.org/1999/xlink" width="672" height="480" viewBox="0 0 2688 1920">
<defs>
  <clipPath id="clip050">
    <rect x="0" y="0" width="2688" height="1920"/>
  </clipPath>
</defs>
<path clip-path="url(#clip050)" d="
M0 1920 L2688 1920 L2688 0 L0 0  Z
  " fill="#ffffff" fill-rule="evenodd" fill-opacity="1"/>
<defs>
  <clipPath id="clip051">
    <rect x="537" y="0" width="1883" height="1883"/>
  </clipPath>
</defs>
<path clip-path="url(#clip050)" d="
M542.018 1800.78 L2295.55 1800.78 L2295.55 47.2441 L542.018 47.2441  Z
  " fill="#ffffff" fill-rule="evenodd" fill-opacity="1"/>
<defs>
  <clipPath id="clip052">
    <rect x="542" y="47" width="1755" height="1755"/>
  </clipPath>
</defs>
<polyline clip-path="url(#clip052)" style="stroke:#000000; stroke-linecap:butt; stroke-linejoin:round; stroke-width:2; stroke-opacity:0.1; fill:none" points="
  542.018,1800.78 542.018,47.2441 
  "/>
<polyline clip-path="url(#clip052)" style="stroke:#000000; stroke-linecap:butt; stroke-linejoin:round; stroke-width:2; stroke-opacity:0.1; fill:none" points="
  980.402,1800.78 980.402,47.2441 
  "/>
<polyline clip-path="url(#clip052)" style="stroke:#000000; stroke-linecap:butt; stroke-linejoin:round; stroke-width:2; stroke-opacity:0.1; fill:none" points="
  1418.79,1800.78 1418.79,47.2441 
  "/>
<polyline clip-path="url(#clip052)" style="stroke:#000000; stroke-linecap:butt; stroke-linejoin:round; stroke-width:2; stroke-opacity:0.1; fill:none" points="
  1857.17,1800.78 1857.17,47.2441 
  "/>
<polyline clip-path="url(#clip052)" style="stroke:#000000; stroke-linecap:butt; stroke-linejoin:round; stroke-width:2; stroke-opacity:0.1; fill:none" points="
  2295.55,1800.78 2295.55,47.2441 
  "/>
<polyline clip-path="url(#clip050)" style="stroke:#000000; stroke-linecap:butt; stroke-linejoin:round; stroke-width:4; stroke-opacity:1; fill:none" points="
  542.018,1800.78 2295.55,1800.78 
  "/>
<polyline clip-path="url(#clip050)" style="stroke:#000000; stroke-linecap:butt; stroke-linejoin:round; stroke-width:4; stroke-opacity:1; fill:none" points="
  542.018,1800.78 542.018,1781.88 
  "/>
<polyline clip-path="url(#clip050)" style="stroke:#000000; stroke-linecap:butt; stroke-linejoin:round; stroke-width:4; stroke-opacity:1; fill:none" points="
  980.402,1800.78 980.402,1781.88 
  "/>
<polyline clip-path="url(#clip050)" style="stroke:#000000; stroke-linecap:butt; stroke-linejoin:round; stroke-width:4; stroke-opacity:1; fill:none" points="
  1418.79,1800.78 1418.79,1781.88 
  "/>
<polyline clip-path="url(#clip050)" style="stroke:#000000; stroke-linecap:butt; stroke-linejoin:round; stroke-width:4; stroke-opacity:1; fill:none" points="
  1857.17,1800.78 1857.17,1781.88 
  "/>
<polyline clip-path="url(#clip050)" style="stroke:#000000; stroke-linecap:butt; stroke-linejoin:round; stroke-width:4; stroke-opacity:1; fill:none" points="
  2295.55,1800.78 2295.55,1781.88 
  "/>
<path clip-path="url(#clip050)" d="M488.546 1848.65 L518.222 1848.65 L518.222 1852.59 L488.546 1852.59 L488.546 1848.65 Z" fill="#000000" fill-rule="evenodd" fill-opacity="1" /><path clip-path="url(#clip050)" d="M528.361 1830.92 L546.717 1830.92 L546.717 1834.86 L532.643 1834.86 L532.643 1843.33 Q533.662 1842.98 534.68 1842.82 Q535.699 1842.64 536.717 1842.64 Q542.504 1842.64 545.884 1845.81 Q549.264 1848.98 549.264 1854.4 Q549.264 1859.97 545.791 1863.08 Q542.319 1866.15 536 1866.15 Q533.824 1866.15 531.555 1865.78 Q529.31 1865.41 526.903 1864.67 L526.903 1859.97 Q528.986 1861.11 531.208 1861.66 Q533.43 1862.22 535.907 1862.22 Q539.912 1862.22 542.25 1860.11 Q544.588 1858.01 544.588 1854.4 Q544.588 1850.78 542.25 1848.68 Q539.912 1846.57 535.907 1846.57 Q534.032 1846.57 532.157 1846.99 Q530.305 1847.4 528.361 1848.28 L528.361 1830.92 Z" fill="#000000" fill-rule="evenodd" fill-opacity="1" /><path clip-path="url(#clip050)" d="M558.477 1859.6 L563.361 1859.6 L563.361 1865.48 L558.477 1865.48 L558.477 1859.6 Z" fill="#000000" fill-rule="evenodd" fill-opacity="1" /><path clip-path="url(#clip050)" d="M583.546 1834 Q579.935 1834 578.106 1837.57 Q576.301 1841.11 576.301 1848.24 Q576.301 1855.34 578.106 1858.91 Q579.935 1862.45 583.546 1862.45 Q587.18 1862.45 588.986 1858.91 Q590.814 1855.34 590.814 1848.24 Q590.814 1841.11 588.986 1837.57 Q587.18 1834 583.546 1834 M583.546 1830.3 Q589.356 1830.3 592.412 1834.9 Q595.49 1839.49 595.49 1848.24 Q595.49 1856.96 592.412 1861.57 Q589.356 1866.15 583.546 1866.15 Q577.736 1866.15 574.657 1861.57 Q571.602 1856.96 571.602 1848.24 Q571.602 1839.49 574.657 1834.9 Q577.736 1830.3 583.546 1830.3 Z" fill="#000000" fill-rule="evenodd" fill-opacity="1" /><path clip-path="url(#clip050)" d="M927.428 1848.65 L957.104 1848.65 L957.104 1852.59 L927.428 1852.59 L927.428 1848.65 Z" fill="#000000" fill-rule="evenodd" fill-opacity="1" /><path clip-path="url(#clip050)" d="M971.224 1861.55 L987.543 1861.55 L987.543 1865.48 L965.599 1865.48 L965.599 1861.55 Q968.261 1858.79 972.844 1854.16 Q977.451 1849.51 978.631 1848.17 Q980.877 1845.65 981.756 1843.91 Q982.659 1842.15 982.659 1840.46 Q982.659 1837.71 980.715 1835.97 Q978.793 1834.23 975.692 1834.23 Q973.492 1834.23 971.039 1835 Q968.608 1835.76 965.83 1837.31 L965.83 1832.59 Q968.655 1831.46 971.108 1830.88 Q973.562 1830.3 975.599 1830.3 Q980.969 1830.3 984.164 1832.98 Q987.358 1835.67 987.358 1840.16 Q987.358 1842.29 986.548 1844.21 Q985.761 1846.11 983.654 1848.7 Q983.076 1849.37 979.974 1852.59 Q976.872 1855.78 971.224 1861.55 Z" fill="#000000" fill-rule="evenodd" fill-opacity="1" /><path clip-path="url(#clip050)" d="M997.358 1859.6 L1002.24 1859.6 L1002.24 1865.48 L997.358 1865.48 L997.358 1859.6 Z" fill="#000000" fill-rule="evenodd" fill-opacity="1" /><path clip-path="url(#clip050)" d="M1012.47 1830.92 L1030.83 1830.92 L1030.83 1834.86 L1016.76 1834.86 L1016.76 1843.33 Q1017.77 1842.98 1018.79 1842.82 Q1019.81 1842.64 1020.83 1842.64 Q1026.62 1842.64 1030 1845.81 Q1033.38 1848.98 1033.38 1854.4 Q1033.38 1859.97 1029.9 1863.08 Q1026.43 1866.15 1020.11 1866.15 Q1017.94 1866.15 1015.67 1865.78 Q1013.42 1865.41 1011.02 1864.67 L1011.02 1859.97 Q1013.1 1861.11 1015.32 1861.66 Q1017.54 1862.22 1020.02 1862.22 Q1024.02 1862.22 1026.36 1860.11 Q1028.7 1858.01 1028.7 1854.4 Q1028.7 1850.78 1026.36 1848.68 Q1024.02 1846.57 1020.02 1846.57 Q1018.15 1846.57 1016.27 1846.99 Q1014.42 1847.4 1012.47 1848.28 L1012.47 1830.92 Z" fill="#000000" fill-rule="evenodd" fill-opacity="1" /><path clip-path="url(#clip050)" d="M1396.17 1834 Q1392.56 1834 1390.73 1837.57 Q1388.93 1841.11 1388.93 1848.24 Q1388.93 1855.34 1390.73 1858.91 Q1392.56 1862.45 1396.17 1862.45 Q1399.8 1862.45 1401.61 1858.91 Q1403.44 1855.34 1403.44 1848.24 Q1403.44 1841.11 1401.61 1837.57 Q1399.8 1834 1396.17 1834 M1396.17 1830.3 Q1401.98 1830.3 1405.04 1834.9 Q1408.11 1839.49 1408.11 1848.24 Q1408.11 1856.96 1405.04 1861.57 Q1401.98 1866.15 1396.17 1866.15 Q1390.36 1866.15 1387.28 1861.57 Q1384.23 1856.96 1384.23 1848.24 Q1384.23 1839.49 1387.28 1834.9 Q1390.36 1830.3 1396.17 1830.3 Z" fill="#000000" fill-rule="evenodd" fill-opacity="1" /><path clip-path="url(#clip050)" d="M1416.33 1859.6 L1421.22 1859.6 L1421.22 1865.48 L1416.33 1865.48 L1416.33 1859.6 Z" fill="#000000" fill-rule="evenodd" fill-opacity="1" /><path clip-path="url(#clip050)" d="M1441.4 1834 Q1437.79 1834 1435.96 1837.57 Q1434.16 1841.11 1434.16 1848.24 Q1434.16 1855.34 1435.96 1858.91 Q1437.79 1862.45 1441.4 1862.45 Q1445.04 1862.45 1446.84 1858.91 Q1448.67 1855.34 1448.67 1848.24 Q1448.67 1841.11 1446.84 1837.57 Q1445.04 1834 1441.4 1834 M1441.4 1830.3 Q1447.21 1830.3 1450.27 1834.9 Q1453.35 1839.49 1453.35 1848.24 Q1453.35 1856.96 1450.27 1861.57 Q1447.21 1866.15 1441.4 1866.15 Q1435.59 1866.15 1432.51 1861.57 Q1429.46 1856.96 1429.46 1848.24 Q1429.46 1839.49 1432.51 1834.9 Q1435.59 1830.3 1441.4 1830.3 Z" fill="#000000" fill-rule="evenodd" fill-opacity="1" /><path clip-path="url(#clip050)" d="M1828.91 1861.55 L1845.23 1861.55 L1845.23 1865.48 L1823.28 1865.48 L1823.28 1861.55 Q1825.94 1858.79 1830.53 1854.16 Q1835.13 1849.51 1836.31 1848.17 Q1838.56 1845.65 1839.44 1843.91 Q1840.34 1842.15 1840.34 1840.46 Q1840.34 1837.71 1838.4 1835.97 Q1836.48 1834.23 1833.37 1834.23 Q1831.17 1834.23 1828.72 1835 Q1826.29 1835.76 1823.51 1837.31 L1823.51 1832.59 Q1826.34 1831.46 1828.79 1830.88 Q1831.24 1830.3 1833.28 1830.3 Q1838.65 1830.3 1841.85 1832.98 Q1845.04 1835.67 1845.04 1840.16 Q1845.04 1842.29 1844.23 1844.21 Q1843.44 1846.11 1841.34 1848.7 Q1840.76 1849.37 1837.66 1852.59 Q1834.55 1855.78 1828.91 1861.55 Z" fill="#000000" fill-rule="evenodd" fill-opacity="1" /><path clip-path="url(#clip050)" d="M1855.04 1859.6 L1859.92 1859.6 L1859.92 1865.48 L1855.04 1865.48 L1855.04 1859.6 Z" fill="#000000" fill-rule="evenodd" fill-opacity="1" /><path clip-path="url(#clip050)" d="M1870.16 1830.92 L1888.51 1830.92 L1888.51 1834.86 L1874.44 1834.86 L1874.44 1843.33 Q1875.46 1842.98 1876.48 1842.82 Q1877.49 1842.64 1878.51 1842.64 Q1884.3 1842.64 1887.68 1845.81 Q1891.06 1848.98 1891.06 1854.4 Q1891.06 1859.97 1887.59 1863.08 Q1884.11 1866.15 1877.79 1866.15 Q1875.62 1866.15 1873.35 1865.78 Q1871.1 1865.41 1868.7 1864.67 L1868.7 1859.97 Q1870.78 1861.11 1873 1861.66 Q1875.23 1862.22 1877.7 1862.22 Q1881.71 1862.22 1884.04 1860.11 Q1886.38 1858.01 1886.38 1854.4 Q1886.38 1850.78 1884.04 1848.68 Q1881.71 1846.57 1877.7 1846.57 Q1875.83 1846.57 1873.95 1846.99 Q1872.1 1847.4 1870.16 1848.28 L1870.16 1830.92 Z" fill="#000000" fill-rule="evenodd" fill-opacity="1" /><path clip-path="url(#clip050)" d="M2262.72 1830.92 L2281.07 1830.92 L2281.07 1834.86 L2267 1834.86 L2267 1843.33 Q2268.02 1842.98 2269.04 1842.82 Q2270.06 1842.64 2271.07 1842.64 Q2276.86 1842.64 2280.24 1845.81 Q2283.62 1848.98 2283.62 1854.4 Q2283.62 1859.97 2280.15 1863.08 Q2276.68 1866.15 2270.36 1866.15 Q2268.18 1866.15 2265.91 1865.78 Q2263.67 1865.41 2261.26 1864.67 L2261.26 1859.97 Q2263.34 1861.11 2265.57 1861.66 Q2267.79 1862.22 2270.26 1862.22 Q2274.27 1862.22 2276.61 1860.11 Q2278.94 1858.01 2278.94 1854.4 Q2278.94 1850.78 2276.61 1848.68 Q2274.27 1846.57 2270.26 1846.57 Q2268.39 1846.57 2266.51 1846.99 Q2264.66 1847.4 2262.72 1848.28 L2262.72 1830.92 Z" fill="#000000" fill-rule="evenodd" fill-opacity="1" /><path clip-path="url(#clip050)" d="M2292.83 1859.6 L2297.72 1859.6 L2297.72 1865.48 L2292.83 1865.48 L2292.83 1859.6 Z" fill="#000000" fill-rule="evenodd" fill-opacity="1" /><path clip-path="url(#clip050)" d="M2317.9 1834 Q2314.29 1834 2312.46 1837.57 Q2310.66 1841.11 2310.66 1848.24 Q2310.66 1855.34 2312.46 1858.91 Q2314.29 1862.45 2317.9 1862.45 Q2321.54 1862.45 2323.34 1858.91 Q2325.17 1855.34 2325.17 1848.24 Q2325.17 1841.11 2323.34 1837.57 Q2321.54 1834 2317.9 1834 M2317.9 1830.3 Q2323.71 1830.3 2326.77 1834.9 Q2329.85 1839.49 2329.85 1848.24 Q2329.85 1856.96 2326.77 1861.57 Q2323.71 1866.15 2317.9 1866.15 Q2312.09 1866.15 2309.01 1861.57 Q2305.96 1856.96 2305.96 1848.24 Q2305.96 1839.49 2309.01 1834.9 Q2312.09 1830.3 2317.9 1830.3 Z" fill="#000000" fill-rule="evenodd" fill-opacity="1" /><polyline clip-path="url(#clip052)" style="stroke:#000000; stroke-linecap:butt; stroke-linejoin:round; stroke-width:2; stroke-opacity:0.1; fill:none" points="
  542.018,1800.78 2295.55,1800.78 
  "/>
<polyline clip-path="url(#clip052)" style="stroke:#000000; stroke-linecap:butt; stroke-linejoin:round; stroke-width:2; stroke-opacity:0.1; fill:none" points="
  542.018,1362.4 2295.55,1362.4 
  "/>
<polyline clip-path="url(#clip052)" style="stroke:#000000; stroke-linecap:butt; stroke-linejoin:round; stroke-width:2; stroke-opacity:0.1; fill:none" points="
  542.018,924.012 2295.55,924.012 
  "/>
<polyline clip-path="url(#clip052)" style="stroke:#000000; stroke-linecap:butt; stroke-linejoin:round; stroke-width:2; stroke-opacity:0.1; fill:none" points="
  542.018,485.628 2295.55,485.628 
  "/>
<polyline clip-path="url(#clip052)" style="stroke:#000000; stroke-linecap:butt; stroke-linejoin:round; stroke-width:2; stroke-opacity:0.1; fill:none" points="
  542.018,47.2441 2295.55,47.2441 
  "/>
<polyline clip-path="url(#clip050)" style="stroke:#000000; stroke-linecap:butt; stroke-linejoin:round; stroke-width:4; stroke-opacity:1; fill:none" points="
  542.018,1800.78 542.018,47.2441 
  "/>
<polyline clip-path="url(#clip050)" style="stroke:#000000; stroke-linecap:butt; stroke-linejoin:round; stroke-width:4; stroke-opacity:1; fill:none" points="
  542.018,1800.78 555.577,1800.78 
  "/>
<polyline clip-path="url(#clip050)" style="stroke:#000000; stroke-linecap:butt; stroke-linejoin:round; stroke-width:4; stroke-opacity:1; fill:none" points="
  542.018,1362.4 555.577,1362.4 
  "/>
<polyline clip-path="url(#clip050)" style="stroke:#000000; stroke-linecap:butt; stroke-linejoin:round; stroke-width:4; stroke-opacity:1; fill:none" points="
  542.018,924.012 555.577,924.012 
  "/>
<polyline clip-path="url(#clip050)" style="stroke:#000000; stroke-linecap:butt; stroke-linejoin:round; stroke-width:4; stroke-opacity:1; fill:none" points="
  542.018,485.628 555.577,485.628 
  "/>
<polyline clip-path="url(#clip050)" style="stroke:#000000; stroke-linecap:butt; stroke-linejoin:round; stroke-width:4; stroke-opacity:1; fill:none" points="
  542.018,47.2441 555.577,47.2441 
  "/>
<path clip-path="url(#clip050)" d="M394.754 1801.23 L424.43 1801.23 L424.43 1805.17 L394.754 1805.17 L394.754 1801.23 Z" fill="#000000" fill-rule="evenodd" fill-opacity="1" /><path clip-path="url(#clip050)" d="M434.569 1783.5 L452.925 1783.5 L452.925 1787.43 L438.851 1787.43 L438.851 1795.91 Q439.87 1795.56 440.888 1795.4 Q441.907 1795.21 442.926 1795.21 Q448.713 1795.21 452.092 1798.38 Q455.472 1801.55 455.472 1806.97 Q455.472 1812.55 452 1815.65 Q448.527 1818.73 442.208 1818.73 Q440.032 1818.73 437.764 1818.36 Q435.518 1817.99 433.111 1817.25 L433.111 1812.55 Q435.194 1813.68 437.416 1814.24 Q439.638 1814.8 442.115 1814.8 Q446.12 1814.8 448.458 1812.69 Q450.796 1810.58 450.796 1806.97 Q450.796 1803.36 448.458 1801.25 Q446.12 1799.15 442.115 1799.15 Q440.24 1799.15 438.365 1799.56 Q436.514 1799.98 434.569 1800.86 L434.569 1783.5 Z" fill="#000000" fill-rule="evenodd" fill-opacity="1" /><path clip-path="url(#clip050)" d="M464.685 1812.18 L469.569 1812.18 L469.569 1818.06 L464.685 1818.06 L464.685 1812.18 Z" fill="#000000" fill-rule="evenodd" fill-opacity="1" /><path clip-path="url(#clip050)" d="M489.754 1786.58 Q486.143 1786.58 484.314 1790.14 Q482.509 1793.68 482.509 1800.81 Q482.509 1807.92 484.314 1811.49 Q486.143 1815.03 489.754 1815.03 Q493.388 1815.03 495.194 1811.49 Q497.022 1807.92 497.022 1800.81 Q497.022 1793.68 495.194 1790.14 Q493.388 1786.58 489.754 1786.58 M489.754 1782.87 Q495.564 1782.87 498.62 1787.48 Q501.698 1792.06 501.698 1800.81 Q501.698 1809.54 498.62 1814.15 Q495.564 1818.73 489.754 1818.73 Q483.944 1818.73 480.865 1814.15 Q477.81 1809.54 477.81 1800.81 Q477.81 1792.06 480.865 1787.48 Q483.944 1782.87 489.754 1782.87 Z" fill="#000000" fill-rule="evenodd" fill-opacity="1" /><path clip-path="url(#clip050)" d="M395.75 1362.85 L425.426 1362.85 L425.426 1366.78 L395.75 1366.78 L395.75 1362.85 Z" fill="#000000" fill-rule="evenodd" fill-opacity="1" /><path clip-path="url(#clip050)" d="M439.546 1375.74 L455.865 1375.74 L455.865 1379.68 L433.921 1379.68 L433.921 1375.74 Q436.583 1372.99 441.166 1368.36 Q445.773 1363.7 446.953 1362.36 Q449.199 1359.84 450.078 1358.1 Q450.981 1356.34 450.981 1354.65 Q450.981 1351.9 449.037 1350.16 Q447.115 1348.43 444.013 1348.43 Q441.814 1348.43 439.361 1349.19 Q436.93 1349.95 434.152 1351.5 L434.152 1346.78 Q436.976 1345.65 439.43 1345.07 Q441.884 1344.49 443.921 1344.49 Q449.291 1344.49 452.486 1347.18 Q455.68 1349.86 455.68 1354.35 Q455.68 1356.48 454.87 1358.4 Q454.083 1360.3 451.976 1362.89 Q451.398 1363.56 448.296 1366.78 Q445.194 1369.98 439.546 1375.74 Z" fill="#000000" fill-rule="evenodd" fill-opacity="1" /><path clip-path="url(#clip050)" d="M465.68 1373.8 L470.564 1373.8 L470.564 1379.68 L465.68 1379.68 L465.68 1373.8 Z" fill="#000000" fill-rule="evenodd" fill-opacity="1" /><path clip-path="url(#clip050)" d="M480.796 1345.12 L499.152 1345.12 L499.152 1349.05 L485.078 1349.05 L485.078 1357.52 Q486.097 1357.18 487.115 1357.01 Q488.134 1356.83 489.152 1356.83 Q494.939 1356.83 498.319 1360 Q501.698 1363.17 501.698 1368.59 Q501.698 1374.17 498.226 1377.27 Q494.754 1380.35 488.435 1380.35 Q486.259 1380.35 483.99 1379.98 Q481.745 1379.61 479.337 1378.87 L479.337 1374.17 Q481.421 1375.3 483.643 1375.86 Q485.865 1376.41 488.342 1376.41 Q492.347 1376.41 494.684 1374.31 Q497.022 1372.2 497.022 1368.59 Q497.022 1364.98 494.684 1362.87 Q492.347 1360.76 488.342 1360.76 Q486.467 1360.76 484.592 1361.18 Q482.74 1361.6 480.796 1362.48 L480.796 1345.12 Z" fill="#000000" fill-rule="evenodd" fill-opacity="1" /><path clip-path="url(#clip050)" d="M444.523 909.81 Q440.912 909.81 439.083 913.375 Q437.277 916.917 437.277 924.046 Q437.277 931.153 439.083 934.718 Q440.912 938.259 444.523 938.259 Q448.157 938.259 449.963 934.718 Q451.791 931.153 451.791 924.046 Q451.791 916.917 449.963 913.375 Q448.157 909.81 444.523 909.81 M444.523 906.107 Q450.333 906.107 453.388 910.713 Q456.467 915.296 456.467 924.046 Q456.467 932.773 453.388 937.38 Q450.333 941.963 444.523 941.963 Q438.713 941.963 435.634 937.38 Q432.578 932.773 432.578 924.046 Q432.578 915.296 435.634 910.713 Q438.713 906.107 444.523 906.107 Z" fill="#000000" fill-rule="evenodd" fill-opacity="1" /><path clip-path="url(#clip050)" d="M464.685 935.412 L469.569 935.412 L469.569 941.292 L464.685 941.292 L464.685 935.412 Z" fill="#000000" fill-rule="evenodd" fill-opacity="1" /><path clip-path="url(#clip050)" d="M489.754 909.81 Q486.143 909.81 484.314 913.375 Q482.509 916.917 482.509 924.046 Q482.509 931.153 484.314 934.718 Q486.143 938.259 489.754 938.259 Q493.388 938.259 495.194 934.718 Q497.022 931.153 497.022 924.046 Q497.022 916.917 495.194 913.375 Q493.388 909.81 489.754 909.81 M489.754 906.107 Q495.564 906.107 498.62 910.713 Q501.698 915.296 501.698 924.046 Q501.698 932.773 498.62 937.38 Q495.564 941.963 489.754 941.963 Q483.944 941.963 480.865 937.38 Q477.81 932.773 477.81 924.046 Q477.81 915.296 480.865 910.713 Q483.944 906.107 489.754 906.107 Z" fill="#000000" fill-rule="evenodd" fill-opacity="1" /><path clip-path="url(#clip050)" d="M439.546 498.973 L455.865 498.973 L455.865 502.908 L433.921 502.908 L433.921 498.973 Q436.583 496.218 441.166 491.589 Q445.773 486.936 446.953 485.593 Q449.199 483.07 450.078 481.334 Q450.981 479.575 450.981 477.885 Q450.981 475.13 449.037 473.394 Q447.115 471.658 444.013 471.658 Q441.814 471.658 439.361 472.422 Q436.93 473.186 434.152 474.737 L434.152 470.015 Q436.976 468.88 439.43 468.302 Q441.884 467.723 443.921 467.723 Q449.291 467.723 452.486 470.408 Q455.68 473.093 455.68 477.584 Q455.68 479.714 454.87 481.635 Q454.083 483.533 451.976 486.126 Q451.398 486.797 448.296 490.014 Q445.194 493.209 439.546 498.973 Z" fill="#000000" fill-rule="evenodd" fill-opacity="1" /><path clip-path="url(#clip050)" d="M465.68 497.028 L470.564 497.028 L470.564 502.908 L465.68 502.908 L465.68 497.028 Z" fill="#000000" fill-rule="evenodd" fill-opacity="1" /><path clip-path="url(#clip050)" d="M480.796 468.348 L499.152 468.348 L499.152 472.283 L485.078 472.283 L485.078 480.755 Q486.097 480.408 487.115 480.246 Q488.134 480.061 489.152 480.061 Q494.939 480.061 498.319 483.232 Q501.698 486.403 501.698 491.82 Q501.698 497.399 498.226 500.501 Q494.754 503.579 488.435 503.579 Q486.259 503.579 483.99 503.209 Q481.745 502.838 479.337 502.098 L479.337 497.399 Q481.421 498.533 483.643 499.088 Q485.865 499.644 488.342 499.644 Q492.347 499.644 494.684 497.538 Q497.022 495.431 497.022 491.82 Q497.022 488.209 494.684 486.102 Q492.347 483.996 488.342 483.996 Q486.467 483.996 484.592 484.413 Q482.74 484.829 480.796 485.709 L480.796 468.348 Z" fill="#000000" fill-rule="evenodd" fill-opacity="1" /><path clip-path="url(#clip050)" d="M434.569 29.9641 L452.925 29.9641 L452.925 33.8993 L438.851 33.8993 L438.851 42.3714 Q439.87 42.0242 440.888 41.8622 Q441.907 41.677 442.926 41.677 Q448.713 41.677 452.092 44.8483 Q455.472 48.0196 455.472 53.4362 Q455.472 59.0149 452 62.1167 Q448.527 65.1954 442.208 65.1954 Q440.032 65.1954 437.764 64.825 Q435.518 64.4547 433.111 63.7139 L433.111 59.0149 Q435.194 60.1491 437.416 60.7047 Q439.638 61.2602 442.115 61.2602 Q446.12 61.2602 448.458 59.1538 Q450.796 57.0473 450.796 53.4362 Q450.796 49.8251 448.458 47.7186 Q446.12 45.6122 442.115 45.6122 Q440.24 45.6122 438.365 46.0288 Q436.514 46.4455 434.569 47.3251 L434.569 29.9641 Z" fill="#000000" fill-rule="evenodd" fill-opacity="1" /><path clip-path="url(#clip050)" d="M464.685 58.6445 L469.569 58.6445 L469.569 64.5241 L464.685 64.5241 L464.685 58.6445 Z" fill="#000000" fill-rule="evenodd" fill-opacity="1" /><path clip-path="url(#clip050)" d="M489.754 33.0428 Q486.143 33.0428 484.314 36.6076 Q482.509 40.1492 482.509 47.2788 Q482.509 54.3853 484.314 57.9501 Q486.143 61.4917 489.754 61.4917 Q493.388 61.4917 495.194 57.9501 Q497.022 54.3853 497.022 47.2788 Q497.022 40.1492 495.194 36.6076 Q493.388 33.0428 489.754 33.0428 M489.754 29.3391 Q495.564 29.3391 498.62 33.9456 Q501.698 38.5289 501.698 47.2788 Q501.698 56.0056 498.62 60.6121 Q495.564 65.1954 489.754 65.1954 Q483.944 65.1954 480.865 60.6121 Q477.81 56.0056 477.81 47.2788 Q477.81 38.5289 480.865 33.9456 Q483.944 29.3391 489.754 29.3391 Z" fill="#000000" fill-rule="evenodd" fill-opacity="1" /><polyline clip-path="url(#clip052)" style="stroke:#1e90ff; stroke-linecap:butt; stroke-linejoin:round; stroke-width:4; stroke-opacity:1; fill:none" points="
  994.685,673.094 990.291,675.438 989.837,675.704 985.896,678.053 982.752,680.099 981.501,680.928 977.106,684.092 976.589,684.494 972.711,687.569 971.167,688.889 
  968.316,691.369 966.269,693.283 963.922,695.519 961.804,697.678 959.527,700.045 957.7,702.073 955.132,704.979 953.897,706.468 950.737,710.353 950.347,710.863 
  947.051,715.258 946.342,716.222 943.966,719.652 941.947,722.629 941.039,724.047 938.283,728.442 937.553,729.634 935.693,732.837 933.2,737.232 933.158,737.307 
  930.888,741.626 928.763,745.767 928.639,746.021 926.549,750.416 924.511,754.811 924.368,755.128 922.616,759.206 920.776,763.601 919.973,765.573 919.034,767.995 
  917.376,772.39 915.766,776.785 915.578,777.313 914.267,781.18 912.821,785.575 911.421,789.97 911.184,790.74 910.116,794.364 908.865,798.759 907.658,803.154 
  906.789,806.432 906.506,807.549 905.434,811.944 904.403,816.338 903.413,820.733 902.464,825.128 902.394,825.469 901.593,829.523 900.764,833.918 899.975,838.313 
  899.225,842.707 898.514,847.102 897.999,850.478 897.85,851.497 897.245,855.892 896.678,860.287 896.149,864.682 895.657,869.076 895.203,873.471 894.787,877.866 
  894.409,882.261 894.069,886.656 893.766,891.051 893.604,893.741 893.506,895.445 893.288,899.84 893.107,904.235 892.962,908.63 892.853,913.025 892.781,917.419 
  892.744,921.814 892.744,926.209 892.781,930.604 892.853,934.999 892.962,939.394 893.107,943.788 893.288,948.183 893.506,952.578 893.604,954.283 893.766,956.973 
  894.069,961.368 894.409,965.763 894.787,970.157 895.203,974.552 895.657,978.947 896.149,983.342 896.678,987.737 897.245,992.131 897.85,996.526 897.999,997.546 
  898.514,1000.92 899.225,1005.32 899.975,1009.71 900.764,1014.11 901.593,1018.5 902.394,1022.55 902.464,1022.9 903.413,1027.29 904.403,1031.68 905.434,1036.08 
  906.506,1040.47 906.789,1041.59 907.658,1044.87 908.865,1049.26 910.116,1053.66 911.184,1057.28 911.421,1058.05 912.821,1062.45 914.267,1066.84 915.578,1070.71 
  915.766,1071.24 917.376,1075.63 919.034,1080.03 919.973,1082.45 920.776,1084.42 922.616,1088.82 924.368,1092.9 924.511,1093.21 926.549,1097.61 928.639,1102 
  928.763,1102.26 930.888,1106.4 933.158,1110.72 933.2,1110.79 935.693,1115.19 937.553,1118.39 938.283,1119.58 941.039,1123.98 941.947,1125.39 943.966,1128.37 
  946.342,1131.8 947.051,1132.77 950.347,1137.16 950.737,1137.67 953.897,1141.56 955.132,1143.04 957.7,1145.95 959.527,1147.98 961.804,1150.35 963.922,1152.5 
  966.269,1154.74 968.316,1156.65 971.167,1159.13 972.711,1160.45 976.589,1163.53 977.106,1163.93 981.501,1167.1 982.752,1167.92 985.896,1169.97 989.837,1172.32 
  990.291,1172.59 994.685,1174.93 998.386,1176.71 999.08,1177.04 1003.47,1178.91 1007.87,1180.58 1009.47,1181.11 1012.26,1182.02 1016.66,1183.27 1021.05,1184.32 
  1025.45,1185.2 1027.37,1185.5 1029.84,1185.89 1034.24,1186.41 1038.63,1186.77 1043.03,1186.98 1047.42,1187.03 1051.82,1186.94 1056.21,1186.71 1060.61,1186.34 
  1065,1185.84 1067.36,1185.5 1069.4,1185.21 1073.79,1184.45 1078.19,1183.58 1082.58,1182.59 1086.98,1181.49 1088.37,1181.11 1091.37,1180.28 1095.77,1178.95 
  1100.16,1177.54 1102.56,1176.71 1104.56,1176.02 1108.95,1174.4 1113.35,1172.69 1114.26,1172.32 1117.74,1170.88 1122.14,1168.99 1124.52,1167.92 1126.53,1167.01 
  1130.92,1164.94 1133.84,1163.53 1135.32,1162.8 1139.71,1160.57 1142.47,1159.13 1144.11,1158.27 1148.5,1155.88 1150.57,1154.74 1152.9,1153.43 1157.29,1150.91 
  1158.25,1150.35 1161.69,1148.3 1165.59,1145.95 1166.08,1145.65 1170.48,1142.91 1172.63,1141.56 1174.87,1140.11 1179.27,1137.26 1179.42,1137.16 1183.66,1134.33 
  1186,1132.77 1188.06,1131.35 1192.39,1128.37 1192.45,1128.33 1196.85,1125.22 1198.61,1123.98 1201.24,1122.07 1204.68,1119.58 1205.64,1118.87 1210.03,1115.62 
  1210.62,1115.19 1214.43,1112.31 1216.44,1110.79 1218.82,1108.95 1222.15,1106.4 1223.22,1105.56 1227.61,1102.11 1227.76,1102 1232.01,1098.61 1233.28,1097.61 
  1236.4,1095.07 1238.71,1093.21 1240.8,1091.49 1244.07,1088.82 1245.19,1087.87 1249.35,1084.42 1249.59,1084.22 1253.98,1080.52 1254.57,1080.03 1258.37,1076.77 
  1259.73,1075.63 1262.77,1072.99 1264.83,1071.24 1267.16,1069.18 1269.87,1066.84 1271.56,1065.34 1274.87,1062.45 1275.95,1061.47 1279.81,1058.05 1280.35,1057.56 
  1284.71,1053.66 1284.74,1053.63 1289.14,1049.65 1289.58,1049.26 1293.53,1045.65 1294.41,1044.87 1297.93,1041.62 1299.2,1040.47 1302.32,1037.57 1303.96,1036.08 
  1306.72,1033.49 1308.69,1031.68 1311.11,1029.38 1313.39,1027.29 1315.51,1025.26 1318.06,1022.9 1319.9,1021.11 1322.7,1018.5 1324.3,1016.94 1327.32,1014.11 
  1328.69,1012.75 1331.91,1009.71 1333.09,1008.54 1336.49,1005.32 1337.48,1004.32 1341.04,1000.92 1341.88,1000.08 1345.57,996.526 1346.27,995.816 1350.09,992.131 
  1350.67,991.541 1354.59,987.737 1355.06,987.252 1359.08,983.342 1359.46,982.95 1363.56,978.947 1363.85,978.635 1368.02,974.552 1368.25,974.308 1372.47,970.157 
  1372.64,969.971 1376.91,965.763 1377.04,965.624 1381.34,961.368 1381.43,961.268 1385.76,956.973 1385.82,956.904 1390.18,952.578 1390.22,952.532 1394.59,948.183 
  1394.61,948.155 1399,943.788 1399.01,943.773 1403.4,939.394 1403.4,939.386 1407.8,934.999 1407.8,934.996 1412.19,930.604 1412.19,930.603 1416.59,926.209 
  1416.59,921.814 1412.19,917.42 1412.19,917.419 1407.8,913.028 1407.8,913.025 1403.4,908.637 1403.4,908.63 1399.01,904.251 1399,904.235 1394.61,899.868 
  1394.59,899.84 1390.22,895.491 1390.18,895.445 1385.82,891.12 1385.76,891.051 1381.43,886.756 1381.34,886.656 1377.04,882.4 1376.91,882.261 1372.64,878.052 
  1372.47,877.866 1368.25,873.715 1368.02,873.471 1363.85,869.388 1363.56,869.076 1359.46,865.073 1359.08,864.682 1355.06,860.771 1354.59,860.287 1350.67,856.482 
  1350.09,855.892 1346.27,852.208 1345.57,851.497 1341.88,847.948 1341.04,847.102 1337.48,843.705 1336.49,842.707 1333.09,839.48 1331.91,838.313 1328.69,835.272 
  1327.32,833.918 1324.3,831.083 1322.7,829.523 1319.9,826.915 1318.06,825.128 1315.51,822.767 1313.39,820.733 1311.11,818.641 1308.69,816.338 1306.72,814.538 
  1303.96,811.944 1302.32,810.458 1299.2,807.549 1297.93,806.403 1294.41,803.154 1293.53,802.373 1289.58,798.759 1289.14,798.369 1284.74,794.394 1284.71,794.364 
  1280.35,790.461 1279.81,789.97 1275.95,786.558 1274.87,785.575 1271.56,782.684 1269.87,781.18 1267.16,778.841 1264.83,776.785 1262.77,775.03 1259.73,772.39 
  1258.37,771.252 1254.57,767.995 1253.98,767.508 1249.59,763.804 1249.35,763.601 1245.19,760.15 1244.07,759.206 1240.8,756.533 1238.71,754.811 1236.4,752.952 
  1233.28,750.416 1232.01,749.411 1227.76,746.021 1227.61,745.909 1223.22,742.467 1222.15,741.626 1218.82,739.07 1216.44,737.232 1214.43,735.714 1210.62,732.837 
  1210.03,732.402 1205.64,729.15 1204.68,728.442 1201.24,725.952 1198.61,724.047 1196.85,722.801 1192.45,719.698 1192.39,719.652 1188.06,716.67 1186,715.258 
  1183.66,713.691 1179.42,710.863 1179.27,710.761 1174.87,707.911 1172.63,706.468 1170.48,705.115 1166.08,702.377 1165.59,702.073 1161.69,699.721 1158.25,697.678 
  1157.29,697.118 1152.9,694.595 1150.57,693.283 1148.5,692.14 1144.11,689.757 1142.47,688.889 1139.71,687.455 1135.32,685.224 1133.84,684.494 1130.92,683.08 
  1126.53,681.014 1124.52,680.099 1122.14,679.034 1117.74,677.142 1114.26,675.704 1113.35,675.333 1108.95,673.627 1104.56,672.005 1102.56,671.309 1100.16,670.485 
  1095.77,669.069 1091.37,667.748 1088.37,666.914 1086.98,666.534 1082.58,665.437 1078.19,664.448 1073.79,663.573 1069.4,662.815 1067.36,662.52 1065,662.185 
  1060.61,661.686 1056.21,661.317 1051.82,661.084 1047.42,660.991 1043.03,661.044 1038.63,661.249 1034.24,661.609 1029.84,662.131 1027.37,662.52 1025.45,662.825 
  1021.05,663.701 1016.66,664.758 1012.26,666.002 1009.47,666.914 1007.87,667.447 1003.47,669.11 999.08,670.98 998.386,671.309 994.685,673.094 
  "/>
<polyline clip-path="url(#clip052)" style="stroke:#1e90ff; stroke-linecap:butt; stroke-linejoin:round; stroke-width:4; stroke-opacity:1; fill:none" points="
  1828.1,666.914 1825.31,666.002 1820.91,664.758 1816.52,663.701 1812.12,662.825 1810.21,662.52 1807.73,662.131 1803.33,661.609 1798.94,661.249 1794.54,661.044 
  1790.15,660.991 1785.75,661.084 1781.36,661.317 1776.96,661.686 1772.57,662.185 1770.21,662.52 1768.17,662.815 1763.78,663.573 1759.38,664.448 1754.99,665.437 
  1750.6,666.534 1749.2,666.914 1746.2,667.748 1741.81,669.069 1737.41,670.485 1735.01,671.309 1733.02,672.005 1728.62,673.627 1724.23,675.333 1723.31,675.704 
  1719.83,677.142 1715.44,679.034 1713.05,680.099 1711.04,681.014 1706.65,683.08 1703.73,684.494 1702.25,685.224 1697.86,687.455 1695.1,688.889 1693.46,689.757 
  1689.07,692.14 1687,693.283 1684.67,694.595 1680.28,697.118 1679.32,697.678 1675.88,699.721 1671.98,702.073 1671.49,702.377 1667.09,705.115 1664.95,706.468 
  1662.7,707.911 1658.3,710.761 1658.15,710.863 1653.91,713.691 1651.57,715.258 1649.51,716.67 1645.18,719.652 1645.12,719.698 1640.72,722.801 1638.96,724.047 
  1636.33,725.952 1632.89,728.442 1631.93,729.15 1627.54,732.402 1626.95,732.837 1623.15,735.714 1621.13,737.232 1618.75,739.07 1615.42,741.626 1614.36,742.467 
  1609.96,745.909 1609.82,746.021 1605.57,749.411 1604.3,750.416 1601.17,752.952 1598.86,754.811 1596.78,756.533 1593.51,759.206 1592.38,760.15 1588.23,763.601 
  1587.99,763.804 1583.59,767.508 1583.01,767.995 1579.2,771.252 1577.85,772.39 1574.8,775.03 1572.75,776.785 1570.41,778.841 1567.7,781.18 1566.01,782.684 
  1562.71,785.575 1561.62,786.558 1557.76,789.97 1557.22,790.461 1552.86,794.364 1552.83,794.394 1548.43,798.369 1547.99,798.759 1544.04,802.373 1543.16,803.154 
  1539.64,806.403 1538.37,807.549 1535.25,810.458 1533.61,811.944 1530.85,814.538 1528.88,816.338 1526.46,818.641 1524.18,820.733 1522.06,822.767 1519.51,825.128 
  1517.67,826.915 1514.87,829.523 1513.27,831.083 1510.25,833.918 1508.88,835.272 1505.66,838.313 1504.49,839.48 1501.09,842.707 1500.09,843.705 1496.53,847.102 
  1495.7,847.948 1492,851.497 1491.3,852.208 1487.48,855.892 1486.91,856.482 1482.98,860.287 1482.51,860.771 1478.49,864.682 1478.12,865.073 1474.02,869.076 
  1473.72,869.388 1469.55,873.471 1469.33,873.715 1465.1,877.866 1464.93,878.052 1460.66,882.261 1460.54,882.4 1456.23,886.656 1456.14,886.756 1451.81,891.051 
  1451.75,891.12 1447.39,895.445 1447.35,895.491 1442.98,899.84 1442.96,899.868 1438.58,904.235 1438.56,904.251 1434.17,908.63 1434.17,908.637 1429.78,913.025 
  1429.77,913.028 1425.38,917.419 1425.38,917.42 1420.98,921.814 1420.98,926.209 1425.38,930.603 1425.38,930.604 1429.77,934.996 1429.78,934.999 1434.17,939.386 
  1434.17,939.394 1438.56,943.773 1438.58,943.788 1442.96,948.155 1442.98,948.183 1447.35,952.532 1447.39,952.578 1451.75,956.904 1451.81,956.973 1456.14,961.268 
  1456.23,961.368 1460.54,965.624 1460.66,965.763 1464.93,969.971 1465.1,970.157 1469.33,974.308 1469.55,974.552 1473.72,978.635 1474.02,978.947 1478.12,982.95 
  1478.49,983.342 1482.51,987.252 1482.98,987.737 1486.91,991.541 1487.48,992.131 1491.3,995.816 1492,996.526 1495.7,1000.08 1496.53,1000.92 1500.09,1004.32 
  1501.09,1005.32 1504.49,1008.54 1505.66,1009.71 1508.88,1012.75 1510.25,1014.11 1513.27,1016.94 1514.87,1018.5 1517.67,1021.11 1519.51,1022.9 1522.06,1025.26 
  1524.18,1027.29 1526.46,1029.38 1528.88,1031.68 1530.85,1033.49 1533.61,1036.08 1535.25,1037.57 1538.37,1040.47 1539.64,1041.62 1543.16,1044.87 1544.04,1045.65 
  1547.99,1049.26 1548.43,1049.65 1552.83,1053.63 1552.86,1053.66 1557.22,1057.56 1557.76,1058.05 1561.62,1061.47 1562.71,1062.45 1566.01,1065.34 1567.7,1066.84 
  1570.41,1069.18 1572.75,1071.24 1574.8,1072.99 1577.85,1075.63 1579.2,1076.77 1583.01,1080.03 1583.59,1080.52 1587.99,1084.22 1588.23,1084.42 1592.38,1087.87 
  1593.51,1088.82 1596.78,1091.49 1598.86,1093.21 1601.17,1095.07 1604.3,1097.61 1605.57,1098.61 1609.82,1102 1609.96,1102.11 1614.36,1105.56 1615.42,1106.4 
  1618.75,1108.95 1621.13,1110.79 1623.15,1112.31 1626.95,1115.19 1627.54,1115.62 1631.93,1118.87 1632.89,1119.58 1636.33,1122.07 1638.96,1123.98 1640.72,1125.22 
  1645.12,1128.33 1645.18,1128.37 1649.51,1131.35 1651.57,1132.77 1653.91,1134.33 1658.15,1137.16 1658.3,1137.26 1662.7,1140.11 1664.95,1141.56 1667.09,1142.91 
  1671.49,1145.65 1671.98,1145.95 1675.88,1148.3 1679.32,1150.35 1680.28,1150.91 1684.67,1153.43 1687,1154.74 1689.07,1155.88 1693.46,1158.27 1695.1,1159.13 
  1697.86,1160.57 1702.25,1162.8 1703.73,1163.53 1706.65,1164.94 1711.04,1167.01 1713.05,1167.92 1715.44,1168.99 1719.83,1170.88 1723.31,1172.32 1724.23,1172.69 
  1728.62,1174.4 1733.02,1176.02 1735.01,1176.71 1737.41,1177.54 1741.81,1178.95 1746.2,1180.28 1749.2,1181.11 1750.6,1181.49 1754.99,1182.59 1759.38,1183.58 
  1763.78,1184.45 1768.17,1185.21 1770.21,1185.5 1772.57,1185.84 1776.96,1186.34 1781.36,1186.71 1785.75,1186.94 1790.15,1187.03 1794.54,1186.98 1798.94,1186.77 
  1803.33,1186.41 1807.73,1185.89 1810.21,1185.5 1812.12,1185.2 1816.52,1184.32 1820.91,1183.27 1825.31,1182.02 1828.1,1181.11 1829.7,1180.58 1834.1,1178.91 
  1838.49,1177.04 1839.19,1176.71 1842.89,1174.93 1847.28,1172.59 1847.74,1172.32 1851.68,1169.97 1854.82,1167.92 1856.07,1167.1 1860.47,1163.93 1860.98,1163.53 
  1864.86,1160.45 1866.41,1159.13 1869.26,1156.65 1871.3,1154.74 1873.65,1152.5 1875.77,1150.35 1878.05,1147.98 1879.87,1145.95 1882.44,1143.04 1883.68,1141.56 
  1886.83,1137.67 1887.23,1137.16 1890.52,1132.77 1891.23,1131.8 1893.61,1128.37 1895.62,1125.39 1896.53,1123.98 1899.29,1119.58 1900.02,1118.39 1901.88,1115.19 
  1904.37,1110.79 1904.41,1110.72 1906.68,1106.4 1908.81,1102.26 1908.93,1102 1911.02,1097.61 1913.06,1093.21 1913.2,1092.9 1914.96,1088.82 1916.8,1084.42 
  1917.6,1082.45 1918.54,1080.03 1920.2,1075.63 1921.81,1071.24 1921.99,1070.71 1923.31,1066.84 1924.75,1062.45 1926.15,1058.05 1926.39,1057.28 1927.46,1053.66 
  1928.71,1049.26 1929.91,1044.87 1930.78,1041.59 1931.07,1040.47 1932.14,1036.08 1933.17,1031.68 1934.16,1027.29 1935.11,1022.9 1935.18,1022.55 1935.98,1018.5 
  1936.81,1014.11 1937.6,1009.71 1938.35,1005.32 1939.06,1000.92 1939.57,997.546 1939.72,996.526 1940.33,992.131 1940.89,987.737 1941.42,983.342 1941.91,978.947 
  1942.37,974.552 1942.78,970.157 1943.16,965.763 1943.5,961.368 1943.81,956.973 1943.97,954.283 1944.07,952.578 1944.28,948.183 1944.46,943.788 1944.61,939.394 
  1944.72,934.999 1944.79,930.604 1944.83,926.209 1944.83,921.814 1944.79,917.419 1944.72,913.025 1944.61,908.63 1944.46,904.235 1944.28,899.84 1944.07,895.445 
  1943.97,893.741 1943.81,891.051 1943.5,886.656 1943.16,882.261 1942.78,877.866 1942.37,873.471 1941.91,869.076 1941.42,864.682 1940.89,860.287 1940.33,855.892 
  1939.72,851.497 1939.57,850.478 1939.06,847.102 1938.35,842.707 1937.6,838.313 1936.81,833.918 1935.98,829.523 1935.18,825.469 1935.11,825.128 1934.16,820.733 
  1933.17,816.338 1932.14,811.944 1931.07,807.549 1930.78,806.432 1929.91,803.154 1928.71,798.759 1927.46,794.364 1926.39,790.74 1926.15,789.97 1924.75,785.575 
  1923.31,781.18 1921.99,777.313 1921.81,776.785 1920.2,772.39 1918.54,767.995 1917.6,765.573 1916.8,763.601 1914.96,759.206 1913.2,755.128 1913.06,754.811 
  1911.02,750.416 1908.93,746.021 1908.81,745.767 1906.68,741.626 1904.41,737.307 1904.37,737.232 1901.88,732.837 1900.02,729.634 1899.29,728.442 1896.53,724.047 
  1895.62,722.629 1893.61,719.652 1891.23,716.222 1890.52,715.258 1887.23,710.863 1886.83,710.353 1883.68,706.468 1882.44,704.979 1879.87,702.073 1878.05,700.045 
  1875.77,697.678 1873.65,695.519 1871.3,693.283 1869.26,691.369 1866.41,688.889 1864.86,687.569 1860.98,684.494 1860.47,684.092 1856.07,680.928 1854.82,680.099 
  1851.68,678.053 1847.74,675.704 1847.28,675.438 1842.89,673.094 1839.19,671.309 1838.49,670.98 1834.1,669.11 1829.7,667.447 1828.1,666.914 
  "/>
<path clip-path="url(#clip050)" d="
M1890.11 209.375 L2214.09 209.375 L2214.09 105.695 L1890.11 105.695  Z
  " fill="#ffffff" fill-rule="evenodd" fill-opacity="1"/>
<polyline clip-path="url(#clip050)" style="stroke:#000000; stroke-linecap:butt; stroke-linejoin:round; stroke-width:4; stroke-opacity:1; fill:none" points="
  1890.11,209.375 2214.09,209.375 2214.09,105.695 1890.11,105.695 1890.11,209.375 
  "/>
<polyline clip-path="url(#clip050)" style="stroke:#1e90ff; stroke-linecap:butt; stroke-linejoin:round; stroke-width:4; stroke-opacity:1; fill:none" points="
  1917.26,157.535 2080.19,157.535 
  "/>
<path clip-path="url(#clip050)" d="M2121.19 177.223 Q2119.39 181.852 2117.67 183.264 Q2115.96 184.676 2113.09 184.676 L2109.69 184.676 L2109.69 181.112 L2112.19 181.112 Q2113.95 181.112 2114.92 180.278 Q2115.89 179.445 2117.07 176.343 L2117.83 174.399 L2107.35 148.889 L2111.86 148.889 L2119.96 169.167 L2128.07 148.889 L2132.58 148.889 L2121.19 177.223 Z" fill="#000000" fill-rule="evenodd" fill-opacity="1" /><path clip-path="url(#clip050)" d="M2139.87 170.88 L2147.51 170.88 L2147.51 144.515 L2139.2 146.181 L2139.2 141.922 L2147.46 140.255 L2152.14 140.255 L2152.14 170.88 L2159.78 170.88 L2159.78 174.815 L2139.87 174.815 L2139.87 170.88 Z" fill="#000000" fill-rule="evenodd" fill-opacity="1" /></svg>
