<?xml version="1.0" encoding="utf-8"?>
<svg xmlns="http://www.w3.org/2000/svg" xmlns:xlink="http://www.w3.org/1999/xlink" width="672" height="480" viewBox="0 0 2688 1920">
<defs>
  <clipPath id="clip490">
    <rect x="0" y="0" width="2688" height="1920"/>
  </clipPath>
</defs>
<path clip-path="url(#clip490)" d="
M0 1920 L2688 1920 L2688 0 L0 0  Z
  " fill="#ffffff" fill-rule="evenodd" fill-opacity="1"/>
<defs>
  <clipPath id="clip491">
    <rect x="537" y="0" width="1883" height="1883"/>
  </clipPath>
</defs>
<path clip-path="url(#clip490)" d="
M518.789 1800.78 L2272.32 1800.78 L2272.32 47.2441 L518.789 47.2441  Z
  " fill="#ffffff" fill-rule="evenodd" fill-opacity="1"/>
<defs>
  <clipPath id="clip492">
    <rect x="518" y="47" width="1755" height="1755"/>
  </clipPath>
</defs>
<polyline clip-path="url(#clip492)" style="stroke:#000000; stroke-linecap:round; stroke-linejoin:round; stroke-width:2; stroke-opacity:0.1; fill:none" points="
  518.789,1800.78 518.789,47.2441 
  "/>
<polyline clip-path="url(#clip492)" style="stroke:#000000; stroke-linecap:round; stroke-linejoin:round; stroke-width:2; stroke-opacity:0.1; fill:none" points="
  957.173,1800.78 957.173,47.2441 
  "/>
<polyline clip-path="url(#clip492)" style="stroke:#000000; stroke-linecap:round; stroke-linejoin:round; stroke-width:2; stroke-opacity:0.1; fill:none" points="
  1395.56,1800.78 1395.56,47.2441 
  "/>
<polyline clip-path="url(#clip492)" style="stroke:#000000; stroke-linecap:round; stroke-linejoin:round; stroke-width:2; stroke-opacity:0.1; fill:none" points="
  1833.94,1800.78 1833.94,47.2441 
  "/>
<polyline clip-path="url(#clip492)" style="stroke:#000000; stroke-linecap:round; stroke-linejoin:round; stroke-width:2; stroke-opacity:0.1; fill:none" points="
  2272.32,1800.78 2272.32,47.2441 
  "/>
<polyline clip-path="url(#clip490)" style="stroke:#000000; stroke-linecap:round; stroke-linejoin:round; stroke-width:4; stroke-opacity:1; fill:none" points="
  518.789,1800.78 2272.32,1800.78 
  "/>
<polyline clip-path="url(#clip490)" style="stroke:#000000; stroke-linecap:round; stroke-linejoin:round; stroke-width:4; stroke-opacity:1; fill:none" points="
  518.789,1800.78 518.789,1781.88 
  "/>
<polyline clip-path="url(#clip490)" style="stroke:#000000; stroke-linecap:round; stroke-linejoin:round; stroke-width:4; stroke-opacity:1; fill:none" points="
  957.173,1800.78 957.173,1781.88 
  "/>
<polyline clip-path="url(#clip490)" style="stroke:#000000; stroke-linecap:round; stroke-linejoin:round; stroke-width:4; stroke-opacity:1; fill:none" points="
  1395.56,1800.78 1395.56,1781.88 
  "/>
<polyline clip-path="url(#clip490)" style="stroke:#000000; stroke-linecap:round; stroke-linejoin:round; stroke-width:4; stroke-opacity:1; fill:none" points="
  1833.94,1800.78 1833.94,1781.88 
  "/>
<polyline clip-path="url(#clip490)" style="stroke:#000000; stroke-linecap:round; stroke-linejoin:round; stroke-width:4; stroke-opacity:1; fill:none" points="
  2272.32,1800.78 2272.32,1781.88 
  "/>
<path clip-path="url(#clip490)" d="M488.732 1848.65 L518.407 1848.65 L518.407 1852.59 L488.732 1852.59 L488.732 1848.65 Z" fill="#000000" fill-rule="evenodd" fill-opacity="1" /><path clip-path="url(#clip490)" d="M532.528 1861.55 L548.847 1861.55 L548.847 1865.48 L526.903 1865.48 L526.903 1861.55 Q529.565 1858.79 534.148 1854.16 Q538.754 1849.51 539.935 1848.17 Q542.18 1845.65 543.06 1843.91 Q543.963 1842.15 543.963 1840.46 Q543.963 1837.71 542.018 1835.97 Q540.097 1834.23 536.995 1834.23 Q534.796 1834.23 532.342 1835 Q529.912 1835.76 527.134 1837.31 L527.134 1832.59 Q529.958 1831.46 532.412 1830.88 Q534.866 1830.3 536.903 1830.3 Q542.273 1830.3 545.467 1832.98 Q548.662 1835.67 548.662 1840.16 Q548.662 1842.29 547.852 1844.21 Q547.065 1846.11 544.958 1848.7 Q544.379 1849.37 541.278 1852.59 Q538.176 1855.78 532.528 1861.55 Z" fill="#000000" fill-rule="evenodd" fill-opacity="1" /><path clip-path="url(#clip490)" d="M926.93 1848.65 L956.606 1848.65 L956.606 1852.59 L926.93 1852.59 L926.93 1848.65 Z" fill="#000000" fill-rule="evenodd" fill-opacity="1" /><path clip-path="url(#clip490)" d="M967.509 1861.55 L975.148 1861.55 L975.148 1835.18 L966.837 1836.85 L966.837 1832.59 L975.101 1830.92 L979.777 1830.92 L979.777 1861.55 L987.416 1861.55 L987.416 1865.48 L967.509 1865.48 L967.509 1861.55 Z" fill="#000000" fill-rule="evenodd" fill-opacity="1" /><path clip-path="url(#clip490)" d="M1395.56 1834 Q1391.95 1834 1390.12 1837.57 Q1388.31 1841.11 1388.31 1848.24 Q1388.31 1855.34 1390.12 1858.91 Q1391.95 1862.45 1395.56 1862.45 Q1399.19 1862.45 1401 1858.91 Q1402.83 1855.34 1402.83 1848.24 Q1402.83 1841.11 1401 1837.57 Q1399.19 1834 1395.56 1834 M1395.56 1830.3 Q1401.37 1830.3 1404.42 1834.9 Q1407.5 1839.49 1407.5 1848.24 Q1407.5 1856.96 1404.42 1861.57 Q1401.37 1866.15 1395.56 1866.15 Q1389.75 1866.15 1386.67 1861.57 Q1383.61 1856.96 1383.61 1848.24 Q1383.61 1839.49 1386.67 1834.9 Q1389.75 1830.3 1395.56 1830.3 Z" fill="#000000" fill-rule="evenodd" fill-opacity="1" /><path clip-path="url(#clip490)" d="M1824.32 1861.55 L1831.96 1861.55 L1831.96 1835.18 L1823.65 1836.85 L1823.65 1832.59 L1831.92 1830.92 L1836.59 1830.92 L1836.59 1861.55 L1844.23 1861.55 L1844.23 1865.48 L1824.32 1865.48 L1824.32 1861.55 Z" fill="#000000" fill-rule="evenodd" fill-opacity="1" /><path clip-path="url(#clip490)" d="M2266.98 1861.55 L2283.3 1861.55 L2283.3 1865.48 L2261.35 1865.48 L2261.35 1861.55 Q2264.01 1858.79 2268.6 1854.16 Q2273.2 1849.51 2274.38 1848.17 Q2276.63 1845.65 2277.51 1843.91 Q2278.41 1842.15 2278.41 1840.46 Q2278.41 1837.71 2276.47 1835.97 Q2274.55 1834.23 2271.44 1834.23 Q2269.25 1834.23 2266.79 1835 Q2264.36 1835.76 2261.58 1837.31 L2261.58 1832.59 Q2264.41 1831.46 2266.86 1830.88 Q2269.32 1830.3 2271.35 1830.3 Q2276.72 1830.3 2279.92 1832.98 Q2283.11 1835.67 2283.11 1840.16 Q2283.11 1842.29 2282.3 1844.21 Q2281.51 1846.11 2279.41 1848.7 Q2278.83 1849.37 2275.73 1852.59 Q2272.63 1855.78 2266.98 1861.55 Z" fill="#000000" fill-rule="evenodd" fill-opacity="1" /><polyline clip-path="url(#clip492)" style="stroke:#000000; stroke-linecap:round; stroke-linejoin:round; stroke-width:2; stroke-opacity:0.1; fill:none" points="
  518.789,1800.78 2272.32,1800.78 
  "/>
<polyline clip-path="url(#clip492)" style="stroke:#000000; stroke-linecap:round; stroke-linejoin:round; stroke-width:2; stroke-opacity:0.1; fill:none" points="
  518.789,1362.4 2272.32,1362.4 
  "/>
<polyline clip-path="url(#clip492)" style="stroke:#000000; stroke-linecap:round; stroke-linejoin:round; stroke-width:2; stroke-opacity:0.1; fill:none" points="
  518.789,924.012 2272.32,924.012 
  "/>
<polyline clip-path="url(#clip492)" style="stroke:#000000; stroke-linecap:round; stroke-linejoin:round; stroke-width:2; stroke-opacity:0.1; fill:none" points="
  518.789,485.628 2272.32,485.628 
  "/>
<polyline clip-path="url(#clip492)" style="stroke:#000000; stroke-linecap:round; stroke-linejoin:round; stroke-width:2; stroke-opacity:0.1; fill:none" points="
  518.789,47.2441 2272.32,47.2441 
  "/>
<polyline clip-path="url(#clip490)" style="stroke:#000000; stroke-linecap:round; stroke-linejoin:round; stroke-width:4; stroke-opacity:1; fill:none" points="
  518.789,1800.78 518.789,47.2441 
  "/>
<polyline clip-path="url(#clip490)" style="stroke:#000000; stroke-linecap:round; stroke-linejoin:round; stroke-width:4; stroke-opacity:1; fill:none" points="
  518.789,1800.78 532.095,1800.78 
  "/>
<polyline clip-path="url(#clip490)" style="stroke:#000000; stroke-linecap:round; stroke-linejoin:round; stroke-width:4; stroke-opacity:1; fill:none" points="
  518.789,1362.4 532.095,1362.4 
  "/>
<polyline clip-path="url(#clip490)" style="stroke:#000000; stroke-linecap:round; stroke-linejoin:round; stroke-width:4; stroke-opacity:1; fill:none" points="
  518.789,924.012 532.095,924.012 
  "/>
<polyline clip-path="url(#clip490)" style="stroke:#000000; stroke-linecap:round; stroke-linejoin:round; stroke-width:4; stroke-opacity:1; fill:none" points="
  518.789,485.628 532.095,485.628 
  "/>
<polyline clip-path="url(#clip490)" style="stroke:#000000; stroke-linecap:round; stroke-linejoin:round; stroke-width:4; stroke-opacity:1; fill:none" points="
  518.789,47.2441 532.095,47.2441 
  "/>
<path clip-path="url(#clip490)" d="M418.354 1801.23 L448.03 1801.23 L448.03 1805.17 L418.354 1805.17 L418.354 1801.23 Z" fill="#000000" fill-rule="evenodd" fill-opacity="1" /><path clip-path="url(#clip490)" d="M462.15 1814.12 L478.469 1814.12 L478.469 1818.06 L456.525 1818.06 L456.525 1814.12 Q459.187 1811.37 463.77 1806.74 Q468.377 1802.09 469.557 1800.74 Q471.803 1798.22 472.682 1796.49 Q473.585 1794.73 473.585 1793.04 Q473.585 1790.28 471.641 1788.55 Q469.719 1786.81 466.618 1786.81 Q464.418 1786.81 461.965 1787.57 Q459.534 1788.34 456.756 1789.89 L456.756 1785.17 Q459.581 1784.03 462.034 1783.45 Q464.488 1782.87 466.525 1782.87 Q471.895 1782.87 475.09 1785.56 Q478.284 1788.24 478.284 1792.74 Q478.284 1794.86 477.474 1796.79 Q476.687 1798.68 474.58 1801.28 Q474.002 1801.95 470.9 1805.17 Q467.798 1808.36 462.15 1814.12 Z" fill="#000000" fill-rule="evenodd" fill-opacity="1" /><path clip-path="url(#clip490)" d="M417.984 1362.85 L447.659 1362.85 L447.659 1366.78 L417.984 1366.78 L417.984 1362.85 Z" fill="#000000" fill-rule="evenodd" fill-opacity="1" /><path clip-path="url(#clip490)" d="M458.562 1375.74 L466.201 1375.74 L466.201 1349.37 L457.891 1351.04 L457.891 1346.78 L466.155 1345.12 L470.83 1345.12 L470.83 1375.74 L478.469 1375.74 L478.469 1379.68 L458.562 1379.68 L458.562 1375.74 Z" fill="#000000" fill-rule="evenodd" fill-opacity="1" /><path clip-path="url(#clip490)" d="M466.525 909.81 Q462.914 909.81 461.085 913.375 Q459.28 916.917 459.28 924.046 Q459.28 931.153 461.085 934.718 Q462.914 938.259 466.525 938.259 Q470.159 938.259 471.965 934.718 Q473.793 931.153 473.793 924.046 Q473.793 916.917 471.965 913.375 Q470.159 909.81 466.525 909.81 M466.525 906.107 Q472.335 906.107 475.391 910.713 Q478.469 915.296 478.469 924.046 Q478.469 932.773 475.391 937.38 Q472.335 941.963 466.525 941.963 Q460.715 941.963 457.636 937.38 Q454.581 932.773 454.581 924.046 Q454.581 915.296 457.636 910.713 Q460.715 906.107 466.525 906.107 Z" fill="#000000" fill-rule="evenodd" fill-opacity="1" /><path clip-path="url(#clip490)" d="M458.562 498.973 L466.201 498.973 L466.201 472.607 L457.891 474.274 L457.891 470.015 L466.155 468.348 L470.83 468.348 L470.83 498.973 L478.469 498.973 L478.469 502.908 L458.562 502.908 L458.562 498.973 Z" fill="#000000" fill-rule="evenodd" fill-opacity="1" /><path clip-path="url(#clip490)" d="M462.15 60.5889 L478.469 60.5889 L478.469 64.5241 L456.525 64.5241 L456.525 60.5889 Q459.187 57.8343 463.77 53.2047 Q468.377 48.552 469.557 47.2094 Q471.803 44.6862 472.682 42.9501 Q473.585 41.1909 473.585 39.5011 Q473.585 36.7465 471.641 35.0104 Q469.719 33.2743 466.618 33.2743 Q464.418 33.2743 461.965 34.0381 Q459.534 34.802 456.756 36.3529 L456.756 31.6308 Q459.581 30.4965 462.034 29.9178 Q464.488 29.3391 466.525 29.3391 Q471.895 29.3391 475.09 32.0243 Q478.284 34.7094 478.284 39.2002 Q478.284 41.3298 477.474 43.2511 Q476.687 45.1492 474.58 47.7418 Q474.002 48.4131 470.9 51.6306 Q467.798 54.8251 462.15 60.5889 Z" fill="#000000" fill-rule="evenodd" fill-opacity="1" /><polyline clip-path="url(#clip492)" style="stroke:#1e90ff; stroke-linecap:round; stroke-linejoin:round; stroke-width:4; stroke-opacity:1; fill:none" points="
  1014.96,706.468 1012.49,710.863 1011.01,713.538 1010.07,715.258 1007.72,719.652 1006.61,721.775 1005.44,724.047 1003.22,728.442 1002.22,730.461 1001.06,732.837 
  998.959,737.232 997.825,739.661 996.918,741.626 994.938,746.021 993.43,749.451 993.011,750.416 991.148,754.811 989.333,759.206 989.036,759.944 987.581,763.601 
  985.88,767.995 984.641,771.288 984.23,772.39 982.641,776.785 981.098,781.18 980.246,783.682 979.608,785.575 978.174,789.97 976.786,794.364 975.851,797.428 
  975.449,798.759 974.167,803.154 972.931,807.549 971.741,811.944 971.456,813.037 970.605,816.338 969.518,820.733 968.476,825.128 967.479,829.523 967.061,831.452 
  966.533,833.918 965.636,838.313 964.784,842.707 963.977,847.102 963.215,851.497 962.667,854.853 962.499,855.892 961.833,860.287 961.211,864.682 960.634,869.076 
  960.102,873.471 959.613,877.866 959.169,882.261 958.77,886.656 958.415,891.051 958.272,893.071 958.106,895.445 957.842,899.84 957.622,904.235 957.446,908.63 
  957.315,913.025 957.227,917.419 957.183,921.814 957.183,926.209 957.227,930.604 957.315,934.999 957.446,939.394 957.622,943.788 957.842,948.183 958.106,952.578 
  958.272,954.952 958.415,956.973 958.77,961.368 959.169,965.763 959.613,970.157 960.102,974.552 960.634,978.947 961.211,983.342 961.833,987.737 962.499,992.131 
  962.667,993.17 963.215,996.526 963.977,1000.92 964.784,1005.32 965.636,1009.71 966.533,1014.11 967.061,1016.57 967.479,1018.5 968.476,1022.9 969.518,1027.29 
  970.605,1031.68 971.456,1034.99 971.741,1036.08 972.931,1040.47 974.167,1044.87 975.449,1049.26 975.851,1050.59 976.786,1053.66 978.174,1058.05 979.608,1062.45 
  980.246,1064.34 981.098,1066.84 982.641,1071.24 984.23,1075.63 984.641,1076.74 985.88,1080.03 987.581,1084.42 989.036,1088.08 989.333,1088.82 991.148,1093.21 
  993.011,1097.61 993.43,1098.57 994.938,1102 996.918,1106.4 997.825,1108.36 998.959,1110.79 1001.06,1115.19 1002.22,1117.56 1003.22,1119.58 1005.44,1123.98 
  1006.61,1126.25 1007.72,1128.37 1010.07,1132.77 1011.01,1134.49 1012.49,1137.16 1014.96,1141.56 1015.4,1142.33 1017.51,1145.95 1019.8,1149.81 1020.12,1150.35 
  1022.81,1154.74 1024.19,1156.96 1025.57,1159.13 1028.39,1163.53 1028.59,1163.83 1031.3,1167.92 1032.98,1170.42 1034.28,1172.32 1037.34,1176.71 1037.38,1176.77 
  1040.48,1181.11 1041.77,1182.88 1043.71,1185.5 1046.17,1188.78 1047.01,1189.9 1050.41,1194.29 1050.56,1194.49 1053.9,1198.69 1054.96,1200 1057.48,1203.08 
  1059.35,1205.33 1061.16,1207.48 1063.75,1210.51 1064.93,1211.87 1068.14,1215.52 1068.81,1216.27 1072.54,1220.39 1072.79,1220.66 1076.89,1225.06 1076.93,1225.11 
  1081.1,1229.45 1081.33,1229.69 1085.43,1233.85 1085.72,1234.14 1089.88,1238.24 1090.12,1238.47 1094.46,1242.64 1094.51,1242.68 1098.91,1246.78 1099.18,1247.03 
  1103.3,1250.76 1104.05,1251.43 1107.7,1254.64 1109.06,1255.82 1112.09,1258.41 1114.23,1260.22 1116.49,1262.09 1119.57,1264.61 1120.88,1265.67 1125.08,1269.01 
  1125.28,1269.16 1129.67,1272.55 1130.78,1273.4 1134.06,1275.86 1136.69,1277.8 1138.46,1279.09 1142.8,1282.19 1142.85,1282.23 1147.25,1285.29 1149.15,1286.58 
  1151.64,1288.27 1155.74,1290.98 1156.04,1291.18 1160.43,1294 1162.61,1295.37 1164.83,1296.76 1169.22,1299.45 1169.76,1299.77 1173.62,1302.06 1177.24,1304.16 
  1178.01,1304.61 1182.41,1307.08 1185.08,1308.56 1186.8,1309.5 1191.2,1311.84 1193.32,1312.95 1195.59,1314.13 1199.99,1316.35 1202.01,1317.35 1204.38,1318.51 
  1208.78,1320.61 1211.21,1321.74 1213.17,1322.65 1217.57,1324.63 1221,1326.14 1221.96,1326.56 1226.36,1328.42 1230.75,1330.24 1231.49,1330.53 1235.15,1331.99 
  1239.54,1333.69 1242.83,1334.93 1243.94,1335.34 1248.33,1336.93 1252.73,1338.47 1255.23,1339.32 1257.12,1339.96 1261.51,1341.39 1265.91,1342.78 1268.97,1343.72 
  1270.3,1344.12 1274.7,1345.4 1279.09,1346.64 1283.49,1347.83 1284.58,1348.11 1287.88,1348.96 1292.28,1350.05 1296.67,1351.09 1301.07,1352.09 1303,1352.51 
  1305.46,1353.04 1309.86,1353.93 1314.25,1354.78 1318.65,1355.59 1323.04,1356.35 1326.4,1356.9 1327.44,1357.07 1331.83,1357.74 1336.23,1358.36 1340.62,1358.93 
  1345.02,1359.47 1349.41,1359.96 1353.81,1360.4 1358.2,1360.8 1362.6,1361.15 1364.62,1361.3 1366.99,1361.46 1371.39,1361.73 1375.78,1361.95 1380.18,1362.12 
  1384.57,1362.25 1388.96,1362.34 1393.36,1362.39 1397.75,1362.39 1402.15,1362.34 1406.54,1362.25 1410.94,1362.12 1415.33,1361.95 1419.73,1361.73 1424.12,1361.46 
  1426.5,1361.3 1428.52,1361.15 1432.91,1360.8 1437.31,1360.4 1441.7,1359.96 1446.1,1359.47 1450.49,1358.93 1454.89,1358.36 1459.28,1357.74 1463.68,1357.07 
  1464.72,1356.9 1468.07,1356.35 1472.47,1355.59 1476.86,1354.78 1481.26,1353.93 1485.65,1353.04 1488.12,1352.51 1490.05,1352.09 1494.44,1351.09 1498.84,1350.05 
  1503.23,1348.96 1506.53,1348.11 1507.62,1347.83 1512.02,1346.64 1516.41,1345.4 1520.81,1344.12 1522.14,1343.72 1525.2,1342.78 1529.6,1341.39 1533.99,1339.96 
  1535.89,1339.32 1538.39,1338.47 1542.78,1336.93 1547.18,1335.34 1548.28,1334.93 1551.57,1333.69 1555.97,1331.99 1559.62,1330.53 1560.36,1330.24 1564.76,1328.42 
  1569.15,1326.56 1570.12,1326.14 1573.55,1324.63 1577.94,1322.65 1579.91,1321.74 1582.34,1320.61 1586.73,1318.51 1589.11,1317.35 1591.13,1316.35 1595.52,1314.13 
  1597.79,1312.95 1599.92,1311.84 1604.31,1309.5 1606.03,1308.56 1608.71,1307.08 1613.1,1304.61 1613.87,1304.16 1617.5,1302.06 1621.35,1299.77 1621.89,1299.45 
  1626.29,1296.76 1628.51,1295.37 1630.68,1294 1635.07,1291.18 1635.38,1290.98 1639.47,1288.27 1641.96,1286.58 1643.86,1285.29 1648.26,1282.23 1648.32,1282.19 
  1652.65,1279.09 1654.43,1277.8 1657.05,1275.86 1660.33,1273.4 1661.44,1272.55 1665.84,1269.16 1666.04,1269.01 1670.23,1265.67 1671.54,1264.61 1674.63,1262.09 
  1676.88,1260.22 1679.02,1258.41 1682.05,1255.82 1683.42,1254.64 1687.07,1251.43 1687.81,1250.76 1691.93,1247.03 1692.21,1246.78 1696.6,1242.68 1696.65,1242.64 
  1701,1238.47 1701.23,1238.24 1705.39,1234.14 1705.69,1233.85 1709.79,1229.69 1710.02,1229.45 1714.18,1225.11 1714.23,1225.06 1718.32,1220.66 1718.58,1220.39 
  1722.31,1216.27 1722.97,1215.52 1726.18,1211.87 1727.37,1210.51 1729.96,1207.48 1731.76,1205.33 1733.63,1203.08 1736.16,1200 1737.21,1198.69 1740.55,1194.49 
  1740.71,1194.29 1744.1,1189.9 1744.95,1188.78 1747.41,1185.5 1749.34,1182.88 1750.63,1181.11 1753.74,1176.77 1753.78,1176.71 1756.83,1172.32 1758.13,1170.42 
  1759.81,1167.92 1762.52,1163.83 1762.72,1163.53 1765.55,1159.13 1766.92,1156.96 1768.3,1154.74 1770.99,1150.35 1771.31,1149.81 1773.6,1145.95 1775.71,1142.33 
  1776.15,1141.56 1778.63,1137.16 1780.1,1134.49 1781.04,1132.77 1783.39,1128.37 1784.5,1126.25 1785.67,1123.98 1787.9,1119.58 1788.89,1117.56 1790.06,1115.19 
  1792.15,1110.79 1793.29,1108.36 1794.2,1106.4 1796.18,1102 1797.68,1098.57 1798.1,1097.61 1799.97,1093.21 1801.78,1088.82 1802.08,1088.08 1803.53,1084.42 
  1805.23,1080.03 1806.47,1076.74 1806.88,1075.63 1808.47,1071.24 1810.02,1066.84 1810.87,1064.34 1811.51,1062.45 1812.94,1058.05 1814.33,1053.66 1815.26,1050.59 
  1815.66,1049.26 1816.95,1044.87 1818.18,1040.47 1819.37,1036.08 1819.66,1034.99 1820.51,1031.68 1821.6,1027.29 1822.64,1022.9 1823.63,1018.5 1824.05,1016.57 
  1824.58,1014.11 1825.48,1009.71 1826.33,1005.32 1827.14,1000.92 1827.9,996.526 1828.45,993.17 1828.62,992.131 1829.28,987.737 1829.9,983.342 1830.48,978.947 
  1831.01,974.552 1831.5,970.157 1831.94,965.763 1832.34,961.368 1832.7,956.973 1832.84,954.952 1833.01,952.578 1833.27,948.183 1833.49,943.788 1833.67,939.394 
  1833.8,934.999 1833.89,930.604 1833.93,926.209 1833.93,921.814 1833.89,917.419 1833.8,913.025 1833.67,908.63 1833.49,904.235 1833.27,899.84 1833.01,895.445 
  1832.84,893.071 1832.7,891.051 1832.34,886.656 1831.94,882.261 1831.5,877.866 1831.01,873.471 1830.48,869.076 1829.9,864.682 1829.28,860.287 1828.62,855.892 
  1828.45,854.853 1827.9,851.497 1827.14,847.102 1826.33,842.707 1825.48,838.313 1824.58,833.918 1824.05,831.452 1823.63,829.523 1822.64,825.128 1821.6,820.733 
  1820.51,816.338 1819.66,813.037 1819.37,811.944 1818.18,807.549 1816.95,803.154 1815.66,798.759 1815.26,797.428 1814.33,794.364 1812.94,789.97 1811.51,785.575 
  1810.87,783.682 1810.02,781.18 1808.47,776.785 1806.88,772.39 1806.47,771.288 1805.23,767.995 1803.53,763.601 1802.08,759.944 1801.78,759.206 1799.97,754.811 
  1798.1,750.416 1797.68,749.451 1796.18,746.021 1794.2,741.626 1793.29,739.661 1792.15,737.232 1790.06,732.837 1788.89,730.461 1787.9,728.442 1785.67,724.047 
  1784.5,721.775 1783.39,719.652 1781.04,715.258 1780.1,713.538 1778.63,710.863 1776.15,706.468 1775.71,705.696 1773.6,702.073 1771.31,698.214 1770.99,697.678 
  1768.3,693.283 1766.92,691.063 1765.55,688.889 1762.72,684.494 1762.52,684.192 1759.81,680.099 1758.13,677.605 1756.83,675.704 1753.78,671.309 1753.74,671.25 
  1750.63,666.914 1749.34,665.143 1747.41,662.52 1744.95,659.24 1744.1,658.125 1740.71,653.73 1740.55,653.533 1737.21,649.335 1736.16,648.025 1733.63,644.94 
  1731.76,642.689 1729.96,640.545 1727.37,637.518 1726.18,636.151 1722.97,632.503 1722.31,631.756 1718.58,627.638 1718.32,627.361 1714.23,622.966 1714.18,622.916 
  1710.02,618.571 1709.79,618.334 1705.69,614.177 1705.39,613.881 1701.23,609.782 1701,609.551 1696.65,605.387 1696.6,605.34 1692.21,601.246 1691.93,600.992 
  1687.81,597.264 1687.07,596.597 1683.42,593.387 1682.05,592.202 1679.02,589.613 1676.88,587.808 1674.63,585.937 1671.54,583.413 1670.23,582.355 1666.04,579.018 
  1665.84,578.863 1661.44,575.47 1660.33,574.623 1657.05,572.163 1654.43,570.228 1652.65,568.938 1648.32,565.833 1648.26,565.792 1643.86,562.737 1641.96,561.439 
  1639.47,559.756 1635.38,557.044 1635.07,556.846 1630.68,554.021 1628.51,552.649 1626.29,551.264 1621.89,548.576 1621.35,548.254 1617.5,545.966 1613.87,543.859 
  1613.1,543.416 1608.71,540.94 1606.03,539.465 1604.31,538.527 1599.92,536.179 1597.79,535.07 1595.52,533.895 1591.13,531.673 1589.11,530.675 1586.73,529.514 
  1582.34,527.414 1579.91,526.28 1577.94,525.373 1573.55,523.393 1570.12,521.885 1569.15,521.466 1564.76,519.603 1560.36,517.787 1559.62,517.49 1555.97,516.036 
  1551.57,514.335 1548.28,513.096 1547.18,512.685 1542.78,511.095 1538.39,509.553 1535.89,508.701 1533.99,508.063 1529.6,506.629 1525.2,505.241 1522.14,504.306 
  1520.81,503.904 1516.41,502.622 1512.02,501.386 1507.62,500.196 1506.53,499.911 1503.23,499.06 1498.84,497.973 1494.44,496.931 1490.05,495.934 1488.12,495.516 
  1485.65,494.988 1481.26,494.091 1476.86,493.239 1472.47,492.432 1468.07,491.669 1464.72,491.121 1463.68,490.954 1459.28,490.288 1454.89,489.666 1450.49,489.089 
  1446.1,488.556 1441.7,488.068 1437.31,487.624 1432.91,487.225 1428.52,486.869 1426.5,486.727 1424.12,486.56 1419.73,486.297 1415.33,486.077 1410.94,485.901 
  1406.54,485.769 1402.15,485.681 1397.75,485.638 1393.36,485.638 1388.96,485.681 1384.57,485.769 1380.18,485.901 1375.78,486.077 1371.39,486.297 1366.99,486.56 
  1364.62,486.727 1362.6,486.869 1358.2,487.225 1353.81,487.624 1349.41,488.068 1345.02,488.556 1340.62,489.089 1336.23,489.666 1331.83,490.288 1327.44,490.954 
  1326.4,491.121 1323.04,491.669 1318.65,492.432 1314.25,493.239 1309.86,494.091 1305.46,494.988 1303,495.516 1301.07,495.934 1296.67,496.931 1292.28,497.973 
  1287.88,499.06 1284.58,499.911 1283.49,500.196 1279.09,501.386 1274.7,502.622 1270.3,503.904 1268.97,504.306 1265.91,505.241 1261.51,506.629 1257.12,508.063 
  1255.23,508.701 1252.73,509.553 1248.33,511.095 1243.94,512.685 1242.83,513.096 1239.54,514.335 1235.15,516.036 1231.49,517.49 1230.75,517.787 1226.36,519.603 
  1221.96,521.466 1221,521.885 1217.57,523.393 1213.17,525.373 1211.21,526.28 1208.78,527.414 1204.38,529.514 1202.01,530.675 1199.99,531.673 1195.59,533.895 
  1193.32,535.07 1191.2,536.179 1186.8,538.527 1185.08,539.465 1182.41,540.94 1178.01,543.416 1177.24,543.859 1173.62,545.966 1169.76,548.254 1169.22,548.576 
  1164.83,551.264 1162.61,552.649 1160.43,554.021 1156.04,556.846 1155.74,557.044 1151.64,559.756 1149.15,561.439 1147.25,562.737 1142.85,565.792 1142.8,565.833 
  1138.46,568.938 1136.69,570.228 1134.06,572.163 1130.78,574.623 1129.67,575.47 1125.28,578.863 1125.08,579.018 1120.88,582.355 1119.57,583.413 1116.49,585.937 
  1114.23,587.808 1112.09,589.613 1109.06,592.202 1107.7,593.387 1104.05,596.597 1103.3,597.264 1099.18,600.992 1098.91,601.246 1094.51,605.34 1094.46,605.387 
  1090.12,609.551 1089.88,609.782 1085.72,613.881 1085.43,614.177 1081.33,618.334 1081.1,618.571 1076.93,622.916 1076.89,622.966 1072.79,627.361 1072.54,627.638 
  1068.81,631.756 1068.14,632.503 1064.93,636.151 1063.75,637.518 1061.16,640.545 1059.35,642.689 1057.48,644.94 1054.96,648.025 1053.9,649.335 1050.56,653.533 
  1050.41,653.73 1047.01,658.125 1046.17,659.24 1043.71,662.52 1041.77,665.143 1040.48,666.914 1037.38,671.25 1037.34,671.309 1034.28,675.704 1032.98,677.605 
  1031.3,680.099 1028.59,684.192 1028.39,684.494 1025.57,688.889 1024.19,691.063 1022.81,693.283 1020.12,697.678 1019.8,698.214 1017.51,702.073 1015.4,705.696 
  1014.96,706.468 
  "/>
<polyline clip-path="url(#clip492)" style="stroke:#e26f46; stroke-linecap:round; stroke-linejoin:round; stroke-width:4; stroke-opacity:1; fill:none" points="
  518.789,2420.75 530.206,2409.33 635.768,2303.77 699.206,2240.33 752.842,2186.69 811.106,2128.43 864.82,2074.72 922.407,2017.13 989.128,1950.41 1048.42,1891.12 
  1100.42,1839.12 1157.1,1782.43 1214.13,1725.41 1277.18,1662.36 1337.17,1602.37 1399.54,1539.99 1452.05,1487.49 1516.15,1423.38 1574.88,1364.66 1629.11,1310.42 
  1684.05,1255.48 1745.62,1193.91 1801.42,1138.12 1865.3,1074.24 1924.45,1015.09 1982.76,956.779 2039.37,900.163 2097.41,842.124 2161,778.536 2253.37,686.163 
  2272.32,667.212 
  "/>
<path clip-path="url(#clip490)" d="
M1860.17 261.215 L2189.31 261.215 L2189.31 105.695 L1860.17 105.695  Z
  " fill="#ffffff" fill-rule="evenodd" fill-opacity="1"/>
<polyline clip-path="url(#clip490)" style="stroke:#000000; stroke-linecap:round; stroke-linejoin:round; stroke-width:4; stroke-opacity:1; fill:none" points="
  1860.17,261.215 2189.31,261.215 2189.31,105.695 1860.17,105.695 1860.17,261.215 
  "/>
<polyline clip-path="url(#clip490)" style="stroke:#1e90ff; stroke-linecap:round; stroke-linejoin:round; stroke-width:4; stroke-opacity:1; fill:none" points="
  1887.84,157.535 2053.87,157.535 
  "/>
<path clip-path="url(#clip490)" d="M2095.38 177.223 Q2093.58 181.852 2091.86 183.264 Q2090.15 184.676 2087.28 184.676 L2083.88 184.676 L2083.88 181.112 L2086.38 181.112 Q2088.14 181.112 2089.11 180.278 Q2090.08 179.445 2091.26 176.343 L2092.02 174.399 L2081.54 148.889 L2086.05 148.889 L2094.15 169.167 L2102.26 148.889 L2106.77 148.889 L2095.38 177.223 Z" fill="#000000" fill-rule="evenodd" fill-opacity="1" /><path clip-path="url(#clip490)" d="M2114.06 170.88 L2121.7 170.88 L2121.7 144.515 L2113.39 146.181 L2113.39 141.922 L2121.65 140.255 L2126.33 140.255 L2126.33 170.88 L2133.97 170.88 L2133.97 174.815 L2114.06 174.815 L2114.06 170.88 Z" fill="#000000" fill-rule="evenodd" fill-opacity="1" /><polyline clip-path="url(#clip490)" style="stroke:#e26f46; stroke-linecap:round; stroke-linejoin:round; stroke-width:4; stroke-opacity:1; fill:none" points="
  1887.84,209.375 2053.87,209.375 
  "/>
<path clip-path="url(#clip490)" d="M2095.38 229.063 Q2093.58 233.692 2091.86 235.104 Q2090.15 236.516 2087.28 236.516 L2083.88 236.516 L2083.88 232.952 L2086.38 232.952 Q2088.14 232.952 2089.11 232.118 Q2090.08 231.285 2091.26 228.183 L2092.02 226.239 L2081.54 200.729 L2086.05 200.729 L2094.15 221.007 L2102.26 200.729 L2106.77 200.729 L2095.38 229.063 Z" fill="#000000" fill-rule="evenodd" fill-opacity="1" /><path clip-path="url(#clip490)" d="M2117.28 222.72 L2133.6 222.72 L2133.6 226.655 L2111.65 226.655 L2111.65 222.72 Q2114.32 219.965 2118.9 215.336 Q2123.51 210.683 2124.69 209.341 Q2126.93 206.817 2127.81 205.081 Q2128.71 203.322 2128.71 201.632 Q2128.71 198.878 2126.77 197.142 Q2124.85 195.405 2121.75 195.405 Q2119.55 195.405 2117.09 196.169 Q2114.66 196.933 2111.89 198.484 L2111.89 193.762 Q2114.71 192.628 2117.16 192.049 Q2119.62 191.47 2121.65 191.47 Q2127.02 191.47 2130.22 194.155 Q2133.41 196.841 2133.41 201.331 Q2133.41 203.461 2132.6 205.382 Q2131.82 207.28 2129.71 209.873 Q2129.13 210.544 2126.03 213.762 Q2122.93 216.956 2117.28 222.72 Z" fill="#000000" fill-rule="evenodd" fill-opacity="1" /></svg>
