<?xml version="1.0" encoding="utf-8"?>
<svg xmlns="http://www.w3.org/2000/svg" xmlns:xlink="http://www.w3.org/1999/xlink" width="672" height="480" viewBox="0 0 2688 1920">
<defs>
  <clipPath id="clip970">
    <rect x="0" y="0" width="2688" height="1920"/>
  </clipPath>
</defs>
<path clip-path="url(#clip970)" d="
M0 1920 L2688 1920 L2688 0 L0 0  Z
  " fill="#ffffff" fill-rule="evenodd" fill-opacity="1"/>
<defs>
  <clipPath id="clip971">
    <rect x="537" y="0" width="1883" height="1883"/>
  </clipPath>
</defs>
<path clip-path="url(#clip970)" d="
M519.079 1800.78 L2272.61 1800.78 L2272.61 47.2441 L519.079 47.2441  Z
  " fill="#ffffff" fill-rule="evenodd" fill-opacity="1"/>
<defs>
  <clipPath id="clip972">
    <rect x="519" y="47" width="1755" height="1755"/>
  </clipPath>
</defs>
<polyline clip-path="url(#clip972)" style="stroke:#000000; stroke-linecap:butt; stroke-linejoin:round; stroke-width:2; stroke-opacity:0.1; fill:none" points="
  519.079,1800.78 519.079,47.2441 
  "/>
<polyline clip-path="url(#clip972)" style="stroke:#000000; stroke-linecap:butt; stroke-linejoin:round; stroke-width:2; stroke-opacity:0.1; fill:none" points="
  811.335,1800.78 811.335,47.2441 
  "/>
<polyline clip-path="url(#clip972)" style="stroke:#000000; stroke-linecap:butt; stroke-linejoin:round; stroke-width:2; stroke-opacity:0.1; fill:none" points="
  1103.59,1800.78 1103.59,47.2441 
  "/>
<polyline clip-path="url(#clip972)" style="stroke:#000000; stroke-linecap:butt; stroke-linejoin:round; stroke-width:2; stroke-opacity:0.1; fill:none" points="
  1395.85,1800.78 1395.85,47.2441 
  "/>
<polyline clip-path="url(#clip972)" style="stroke:#000000; stroke-linecap:butt; stroke-linejoin:round; stroke-width:2; stroke-opacity:0.1; fill:none" points="
  1688.1,1800.78 1688.1,47.2441 
  "/>
<polyline clip-path="url(#clip972)" style="stroke:#000000; stroke-linecap:butt; stroke-linejoin:round; stroke-width:2; stroke-opacity:0.1; fill:none" points="
  1980.36,1800.78 1980.36,47.2441 
  "/>
<polyline clip-path="url(#clip972)" style="stroke:#000000; stroke-linecap:butt; stroke-linejoin:round; stroke-width:2; stroke-opacity:0.1; fill:none" points="
  2272.61,1800.78 2272.61,47.2441 
  "/>
<polyline clip-path="url(#clip970)" style="stroke:#000000; stroke-linecap:butt; stroke-linejoin:round; stroke-width:4; stroke-opacity:1; fill:none" points="
  519.079,1800.78 2272.61,1800.78 
  "/>
<polyline clip-path="url(#clip970)" style="stroke:#000000; stroke-linecap:butt; stroke-linejoin:round; stroke-width:4; stroke-opacity:1; fill:none" points="
  519.079,1800.78 519.079,1781.88 
  "/>
<polyline clip-path="url(#clip970)" style="stroke:#000000; stroke-linecap:butt; stroke-linejoin:round; stroke-width:4; stroke-opacity:1; fill:none" points="
  811.335,1800.78 811.335,1781.88 
  "/>
<polyline clip-path="url(#clip970)" style="stroke:#000000; stroke-linecap:butt; stroke-linejoin:round; stroke-width:4; stroke-opacity:1; fill:none" points="
  1103.59,1800.78 1103.59,1781.88 
  "/>
<polyline clip-path="url(#clip970)" style="stroke:#000000; stroke-linecap:butt; stroke-linejoin:round; stroke-width:4; stroke-opacity:1; fill:none" points="
  1395.85,1800.78 1395.85,1781.88 
  "/>
<polyline clip-path="url(#clip970)" style="stroke:#000000; stroke-linecap:butt; stroke-linejoin:round; stroke-width:4; stroke-opacity:1; fill:none" points="
  1688.1,1800.78 1688.1,1781.88 
  "/>
<polyline clip-path="url(#clip970)" style="stroke:#000000; stroke-linecap:butt; stroke-linejoin:round; stroke-width:4; stroke-opacity:1; fill:none" points="
  1980.36,1800.78 1980.36,1781.88 
  "/>
<polyline clip-path="url(#clip970)" style="stroke:#000000; stroke-linecap:butt; stroke-linejoin:round; stroke-width:4; stroke-opacity:1; fill:none" points="
  2272.61,1800.78 2272.61,1781.88 
  "/>
<path clip-path="url(#clip970)" d="M488.546 1848.65 L518.222 1848.65 L518.222 1852.59 L488.546 1852.59 L488.546 1848.65 Z" fill="#000000" fill-rule="evenodd" fill-opacity="1" /><path clip-path="url(#clip970)" d="M542.481 1846.85 Q545.838 1847.57 547.713 1849.84 Q549.611 1852.1 549.611 1855.44 Q549.611 1860.55 546.092 1863.35 Q542.574 1866.15 536.092 1866.15 Q533.917 1866.15 531.602 1865.71 Q529.31 1865.3 526.856 1864.44 L526.856 1859.93 Q528.801 1861.06 531.116 1861.64 Q533.43 1862.22 535.954 1862.22 Q540.352 1862.22 542.643 1860.48 Q544.958 1858.75 544.958 1855.44 Q544.958 1852.38 542.805 1850.67 Q540.676 1848.93 536.856 1848.93 L532.829 1848.93 L532.829 1845.09 L537.042 1845.09 Q540.491 1845.09 542.319 1843.72 Q544.148 1842.34 544.148 1839.74 Q544.148 1837.08 542.25 1835.67 Q540.375 1834.23 536.856 1834.23 Q534.935 1834.23 532.736 1834.65 Q530.537 1835.07 527.898 1835.95 L527.898 1831.78 Q530.56 1831.04 532.875 1830.67 Q535.213 1830.3 537.273 1830.3 Q542.597 1830.3 545.699 1832.73 Q548.801 1835.14 548.801 1839.26 Q548.801 1842.13 547.157 1844.12 Q545.514 1846.09 542.481 1846.85 Z" fill="#000000" fill-rule="evenodd" fill-opacity="1" /><path clip-path="url(#clip970)" d="M781.277 1848.65 L810.953 1848.65 L810.953 1852.59 L781.277 1852.59 L781.277 1848.65 Z" fill="#000000" fill-rule="evenodd" fill-opacity="1" /><path clip-path="url(#clip970)" d="M825.073 1861.55 L841.392 1861.55 L841.392 1865.48 L819.448 1865.48 L819.448 1861.55 Q822.11 1858.79 826.693 1854.16 Q831.3 1849.51 832.48 1848.17 Q834.726 1845.65 835.605 1843.91 Q836.508 1842.15 836.508 1840.46 Q836.508 1837.71 834.564 1835.97 Q832.642 1834.23 829.54 1834.23 Q827.341 1834.23 824.888 1835 Q822.457 1835.76 819.679 1837.31 L819.679 1832.59 Q822.503 1831.46 824.957 1830.88 Q827.411 1830.3 829.448 1830.3 Q834.818 1830.3 838.013 1832.98 Q841.207 1835.67 841.207 1840.16 Q841.207 1842.29 840.397 1844.21 Q839.61 1846.11 837.503 1848.7 Q836.925 1849.37 833.823 1852.59 Q830.721 1855.78 825.073 1861.55 Z" fill="#000000" fill-rule="evenodd" fill-opacity="1" /><path clip-path="url(#clip970)" d="M1073.35 1848.65 L1103.02 1848.65 L1103.02 1852.59 L1073.35 1852.59 L1073.35 1848.65 Z" fill="#000000" fill-rule="evenodd" fill-opacity="1" /><path clip-path="url(#clip970)" d="M1113.93 1861.55 L1121.56 1861.55 L1121.56 1835.18 L1113.25 1836.85 L1113.25 1832.59 L1121.52 1830.92 L1126.19 1830.92 L1126.19 1861.55 L1133.83 1861.55 L1133.83 1865.48 L1113.93 1865.48 L1113.93 1861.55 Z" fill="#000000" fill-rule="evenodd" fill-opacity="1" /><path clip-path="url(#clip970)" d="M1395.85 1834 Q1392.24 1834 1390.41 1837.57 Q1388.6 1841.11 1388.6 1848.24 Q1388.6 1855.34 1390.41 1858.91 Q1392.24 1862.45 1395.85 1862.45 Q1399.48 1862.45 1401.29 1858.91 Q1403.11 1855.34 1403.11 1848.24 Q1403.11 1841.11 1401.29 1837.57 Q1399.48 1834 1395.85 1834 M1395.85 1830.3 Q1401.66 1830.3 1404.71 1834.9 Q1407.79 1839.49 1407.79 1848.24 Q1407.79 1856.96 1404.71 1861.57 Q1401.66 1866.15 1395.85 1866.15 Q1390.04 1866.15 1386.96 1861.57 Q1383.9 1856.96 1383.9 1848.24 Q1383.9 1839.49 1386.96 1834.9 Q1390.04 1830.3 1395.85 1830.3 Z" fill="#000000" fill-rule="evenodd" fill-opacity="1" /><path clip-path="url(#clip970)" d="M1678.48 1861.55 L1686.12 1861.55 L1686.12 1835.18 L1677.81 1836.85 L1677.81 1832.59 L1686.08 1830.92 L1690.75 1830.92 L1690.75 1861.55 L1698.39 1861.55 L1698.39 1865.48 L1678.48 1865.48 L1678.48 1861.55 Z" fill="#000000" fill-rule="evenodd" fill-opacity="1" /><path clip-path="url(#clip970)" d="M1975.01 1861.55 L1991.33 1861.55 L1991.33 1865.48 L1969.39 1865.48 L1969.39 1861.55 Q1972.05 1858.79 1976.63 1854.16 Q1981.24 1849.51 1982.42 1848.17 Q1984.66 1845.65 1985.54 1843.91 Q1986.45 1842.15 1986.45 1840.46 Q1986.45 1837.71 1984.5 1835.97 Q1982.58 1834.23 1979.48 1834.23 Q1977.28 1834.23 1974.83 1835 Q1972.4 1835.76 1969.62 1837.31 L1969.62 1832.59 Q1972.44 1831.46 1974.9 1830.88 Q1977.35 1830.3 1979.39 1830.3 Q1984.76 1830.3 1987.95 1832.98 Q1991.14 1835.67 1991.14 1840.16 Q1991.14 1842.29 1990.33 1844.21 Q1989.55 1846.11 1987.44 1848.7 Q1986.86 1849.37 1983.76 1852.59 Q1980.66 1855.78 1975.01 1861.55 Z" fill="#000000" fill-rule="evenodd" fill-opacity="1" /><path clip-path="url(#clip970)" d="M2276.86 1846.85 Q2280.22 1847.57 2282.09 1849.84 Q2283.99 1852.1 2283.99 1855.44 Q2283.99 1860.55 2280.47 1863.35 Q2276.95 1866.15 2270.47 1866.15 Q2268.3 1866.15 2265.98 1865.71 Q2263.69 1865.3 2261.24 1864.44 L2261.24 1859.93 Q2263.18 1861.06 2265.5 1861.64 Q2267.81 1862.22 2270.33 1862.22 Q2274.73 1862.22 2277.02 1860.48 Q2279.34 1858.75 2279.34 1855.44 Q2279.34 1852.38 2277.19 1850.67 Q2275.06 1848.93 2271.24 1848.93 L2267.21 1848.93 L2267.21 1845.09 L2271.42 1845.09 Q2274.87 1845.09 2276.7 1843.72 Q2278.53 1842.34 2278.53 1839.74 Q2278.53 1837.08 2276.63 1835.67 Q2274.76 1834.23 2271.24 1834.23 Q2269.32 1834.23 2267.12 1834.65 Q2264.92 1835.07 2262.28 1835.95 L2262.28 1831.78 Q2264.94 1831.04 2267.26 1830.67 Q2269.59 1830.3 2271.65 1830.3 Q2276.98 1830.3 2280.08 1832.73 Q2283.18 1835.14 2283.18 1839.26 Q2283.18 1842.13 2281.54 1844.12 Q2279.89 1846.09 2276.86 1846.85 Z" fill="#000000" fill-rule="evenodd" fill-opacity="1" /><polyline clip-path="url(#clip972)" style="stroke:#000000; stroke-linecap:butt; stroke-linejoin:round; stroke-width:2; stroke-opacity:0.1; fill:none" points="
  519.079,1800.78 2272.61,1800.78 
  "/>
<polyline clip-path="url(#clip972)" style="stroke:#000000; stroke-linecap:butt; stroke-linejoin:round; stroke-width:2; stroke-opacity:0.1; fill:none" points="
  519.079,1508.52 2272.61,1508.52 
  "/>
<polyline clip-path="url(#clip972)" style="stroke:#000000; stroke-linecap:butt; stroke-linejoin:round; stroke-width:2; stroke-opacity:0.1; fill:none" points="
  519.079,1216.27 2272.61,1216.27 
  "/>
<polyline clip-path="url(#clip972)" style="stroke:#000000; stroke-linecap:butt; stroke-linejoin:round; stroke-width:2; stroke-opacity:0.1; fill:none" points="
  519.079,924.012 2272.61,924.012 
  "/>
<polyline clip-path="url(#clip972)" style="stroke:#000000; stroke-linecap:butt; stroke-linejoin:round; stroke-width:2; stroke-opacity:0.1; fill:none" points="
  519.079,631.756 2272.61,631.756 
  "/>
<polyline clip-path="url(#clip972)" style="stroke:#000000; stroke-linecap:butt; stroke-linejoin:round; stroke-width:2; stroke-opacity:0.1; fill:none" points="
  519.079,339.5 2272.61,339.5 
  "/>
<polyline clip-path="url(#clip972)" style="stroke:#000000; stroke-linecap:butt; stroke-linejoin:round; stroke-width:2; stroke-opacity:0.1; fill:none" points="
  519.079,47.2441 2272.61,47.2441 
  "/>
<polyline clip-path="url(#clip970)" style="stroke:#000000; stroke-linecap:butt; stroke-linejoin:round; stroke-width:4; stroke-opacity:1; fill:none" points="
  519.079,1800.78 519.079,47.2441 
  "/>
<polyline clip-path="url(#clip970)" style="stroke:#000000; stroke-linecap:butt; stroke-linejoin:round; stroke-width:4; stroke-opacity:1; fill:none" points="
  519.079,1800.78 532.388,1800.78 
  "/>
<polyline clip-path="url(#clip970)" style="stroke:#000000; stroke-linecap:butt; stroke-linejoin:round; stroke-width:4; stroke-opacity:1; fill:none" points="
  519.079,1508.52 532.388,1508.52 
  "/>
<polyline clip-path="url(#clip970)" style="stroke:#000000; stroke-linecap:butt; stroke-linejoin:round; stroke-width:4; stroke-opacity:1; fill:none" points="
  519.079,1216.27 532.388,1216.27 
  "/>
<polyline clip-path="url(#clip970)" style="stroke:#000000; stroke-linecap:butt; stroke-linejoin:round; stroke-width:4; stroke-opacity:1; fill:none" points="
  519.079,924.012 532.388,924.012 
  "/>
<polyline clip-path="url(#clip970)" style="stroke:#000000; stroke-linecap:butt; stroke-linejoin:round; stroke-width:4; stroke-opacity:1; fill:none" points="
  519.079,631.756 532.388,631.756 
  "/>
<polyline clip-path="url(#clip970)" style="stroke:#000000; stroke-linecap:butt; stroke-linejoin:round; stroke-width:4; stroke-opacity:1; fill:none" points="
  519.079,339.5 532.388,339.5 
  "/>
<polyline clip-path="url(#clip970)" style="stroke:#000000; stroke-linecap:butt; stroke-linejoin:round; stroke-width:4; stroke-opacity:1; fill:none" points="
  519.079,47.2441 532.388,47.2441 
  "/>
<path clip-path="url(#clip970)" d="M417.694 1801.23 L447.37 1801.23 L447.37 1805.17 L417.694 1805.17 L417.694 1801.23 Z" fill="#000000" fill-rule="evenodd" fill-opacity="1" /><path clip-path="url(#clip970)" d="M471.629 1799.43 Q474.986 1800.14 476.861 1802.41 Q478.759 1804.68 478.759 1808.01 Q478.759 1813.13 475.24 1815.93 Q471.722 1818.73 465.24 1818.73 Q463.064 1818.73 460.749 1818.29 Q458.458 1817.87 456.004 1817.02 L456.004 1812.5 Q457.949 1813.64 460.263 1814.22 Q462.578 1814.8 465.101 1814.8 Q469.499 1814.8 471.791 1813.06 Q474.106 1811.32 474.106 1808.01 Q474.106 1804.96 471.953 1803.24 Q469.824 1801.51 466.004 1801.51 L461.976 1801.51 L461.976 1797.67 L466.189 1797.67 Q469.638 1797.67 471.467 1796.3 Q473.296 1794.91 473.296 1792.32 Q473.296 1789.66 471.398 1788.24 Q469.523 1786.81 466.004 1786.81 Q464.083 1786.81 461.884 1787.23 Q459.685 1787.64 457.046 1788.52 L457.046 1784.36 Q459.708 1783.62 462.023 1783.24 Q464.361 1782.87 466.421 1782.87 Q471.745 1782.87 474.847 1785.3 Q477.948 1787.71 477.948 1791.83 Q477.948 1794.7 476.305 1796.69 Q474.661 1798.66 471.629 1799.43 Z" fill="#000000" fill-rule="evenodd" fill-opacity="1" /><path clip-path="url(#clip970)" d="M418.643 1508.97 L448.319 1508.97 L448.319 1512.91 L418.643 1512.91 L418.643 1508.97 Z" fill="#000000" fill-rule="evenodd" fill-opacity="1" /><path clip-path="url(#clip970)" d="M462.439 1521.87 L478.759 1521.87 L478.759 1525.8 L456.814 1525.8 L456.814 1521.87 Q459.476 1519.11 464.06 1514.48 Q468.666 1509.83 469.847 1508.49 Q472.092 1505.97 472.972 1504.23 Q473.874 1502.47 473.874 1500.78 Q473.874 1498.03 471.93 1496.29 Q470.009 1494.55 466.907 1494.55 Q464.708 1494.55 462.254 1495.32 Q459.824 1496.08 457.046 1497.63 L457.046 1492.91 Q459.87 1491.78 462.324 1491.2 Q464.777 1490.62 466.814 1490.62 Q472.185 1490.62 475.379 1493.3 Q478.573 1495.99 478.573 1500.48 Q478.573 1502.61 477.763 1504.53 Q476.976 1506.43 474.87 1509.02 Q474.291 1509.69 471.189 1512.91 Q468.087 1516.1 462.439 1521.87 Z" fill="#000000" fill-rule="evenodd" fill-opacity="1" /><path clip-path="url(#clip970)" d="M418.273 1216.72 L447.949 1216.72 L447.949 1220.65 L418.273 1220.65 L418.273 1216.72 Z" fill="#000000" fill-rule="evenodd" fill-opacity="1" /><path clip-path="url(#clip970)" d="M458.851 1229.61 L466.49 1229.61 L466.49 1203.25 L458.18 1204.91 L458.18 1200.65 L466.444 1198.99 L471.12 1198.99 L471.12 1229.61 L478.759 1229.61 L478.759 1233.55 L458.851 1233.55 L458.851 1229.61 Z" fill="#000000" fill-rule="evenodd" fill-opacity="1" /><path clip-path="url(#clip970)" d="M466.814 909.81 Q463.203 909.81 461.374 913.375 Q459.569 916.917 459.569 924.046 Q459.569 931.153 461.374 934.718 Q463.203 938.259 466.814 938.259 Q470.449 938.259 472.254 934.718 Q474.083 931.153 474.083 924.046 Q474.083 916.917 472.254 913.375 Q470.449 909.81 466.814 909.81 M466.814 906.107 Q472.624 906.107 475.68 910.713 Q478.759 915.296 478.759 924.046 Q478.759 932.773 475.68 937.38 Q472.624 941.963 466.814 941.963 Q461.004 941.963 457.925 937.38 Q454.87 932.773 454.87 924.046 Q454.87 915.296 457.925 910.713 Q461.004 906.107 466.814 906.107 Z" fill="#000000" fill-rule="evenodd" fill-opacity="1" /><path clip-path="url(#clip970)" d="M458.851 645.101 L466.49 645.101 L466.49 618.735 L458.18 620.402 L458.18 616.142 L466.444 614.476 L471.12 614.476 L471.12 645.101 L478.759 645.101 L478.759 649.036 L458.851 649.036 L458.851 645.101 Z" fill="#000000" fill-rule="evenodd" fill-opacity="1" /><path clip-path="url(#clip970)" d="M462.439 352.845 L478.759 352.845 L478.759 356.78 L456.814 356.78 L456.814 352.845 Q459.476 350.09 464.06 345.461 Q468.666 340.808 469.847 339.465 Q472.092 336.942 472.972 335.206 Q473.874 333.447 473.874 331.757 Q473.874 329.002 471.93 327.266 Q470.009 325.53 466.907 325.53 Q464.708 325.53 462.254 326.294 Q459.824 327.058 457.046 328.609 L457.046 323.887 Q459.87 322.752 462.324 322.174 Q464.777 321.595 466.814 321.595 Q472.185 321.595 475.379 324.28 Q478.573 326.965 478.573 331.456 Q478.573 333.586 477.763 335.507 Q476.976 337.405 474.87 339.998 Q474.291 340.669 471.189 343.887 Q468.087 347.081 462.439 352.845 Z" fill="#000000" fill-rule="evenodd" fill-opacity="1" /><path clip-path="url(#clip970)" d="M471.629 45.8899 Q474.986 46.6075 476.861 48.876 Q478.759 51.1445 478.759 54.4779 Q478.759 59.5936 475.24 62.3945 Q471.722 65.1954 465.24 65.1954 Q463.064 65.1954 460.749 64.7556 Q458.458 64.3389 456.004 63.4824 L456.004 58.9686 Q457.949 60.1028 460.263 60.6815 Q462.578 61.2602 465.101 61.2602 Q469.499 61.2602 471.791 59.5241 Q474.106 57.788 474.106 54.4779 Q474.106 51.4223 471.953 49.7094 Q469.824 47.9733 466.004 47.9733 L461.976 47.9733 L461.976 44.1307 L466.189 44.1307 Q469.638 44.1307 471.467 42.765 Q473.296 41.3761 473.296 38.7835 Q473.296 36.1215 471.398 34.7094 Q469.523 33.2743 466.004 33.2743 Q464.083 33.2743 461.884 33.6909 Q459.685 34.1076 457.046 34.9872 L457.046 30.8206 Q459.708 30.0798 462.023 29.7095 Q464.361 29.3391 466.421 29.3391 Q471.745 29.3391 474.847 31.7696 Q477.948 34.177 477.948 38.2974 Q477.948 41.1677 476.305 43.1585 Q474.661 45.1261 471.629 45.8899 Z" fill="#000000" fill-rule="evenodd" fill-opacity="1" /><polyline clip-path="url(#clip972)" style="stroke:#1e90ff; stroke-linecap:butt; stroke-linejoin:round; stroke-width:4; stroke-opacity:1; fill:none" points="
  519.079,74.3111 522.65,78.0079 523.473,78.8748 526.882,82.4027 527.868,83.4406 531.112,86.7975 532.263,88.0087 535.34,91.1923 536.658,92.579 539.565,95.5872 
  541.053,97.1517 543.789,99.982 545.448,101.727 548.01,104.377 549.842,106.304 552.228,108.772 554.237,110.884 556.445,113.166 558.632,115.467 560.658,117.561 
  563.027,120.052 564.869,121.956 567.422,124.64 569.078,126.351 571.817,129.23 573.284,130.746 576.211,133.823 577.487,135.141 580.606,138.419 581.687,139.535 
  585.001,143.018 585.884,143.93 589.396,147.62 590.079,148.325 593.791,152.225 594.27,152.72 598.186,156.833 598.459,157.115 602.58,161.444 602.644,161.51 
  606.828,165.904 606.975,166.061 611.011,170.299 611.37,170.683 615.19,174.694 615.765,175.308 619.366,179.089 620.16,179.937 623.539,183.484 624.554,184.57 
  627.708,187.878 628.949,189.206 631.873,192.273 633.344,193.846 636.035,196.668 637.739,198.49 640.193,201.063 642.134,203.138 644.346,205.458 646.529,207.79 
  648.496,209.853 650.923,212.447 652.642,214.247 655.318,217.108 656.783,218.642 659.713,221.773 660.92,223.037 664.108,226.443 665.053,227.432 668.503,231.117 
  669.181,231.827 672.898,235.796 673.304,236.222 677.292,240.481 677.422,240.616 681.538,245.011 681.687,245.173 685.652,249.406 686.082,249.874 689.761,253.801 
  690.477,254.581 693.865,258.196 694.872,259.293 697.963,262.591 699.266,264.011 702.055,266.985 703.661,268.735 706.142,271.38 708.056,273.466 710.223,275.775 
  712.451,278.203 714.297,280.17 716.846,282.946 718.365,284.565 721.241,287.696 722.427,288.959 725.635,292.454 726.481,293.354 730.03,297.218 730.529,297.749 
  734.425,301.99 734.57,302.144 738.607,306.539 738.82,306.775 742.641,310.934 743.215,311.572 746.667,315.328 747.61,316.378 750.685,319.723 752.004,321.192 
  754.695,324.118 756.399,326.016 758.697,328.513 760.794,330.848 762.689,332.908 765.189,335.691 766.672,337.303 769.584,340.544 770.646,341.697 773.979,345.407 
  774.61,346.092 778.373,350.281 778.563,350.487 782.513,354.882 782.768,355.173 786.456,359.277 787.163,360.083 790.389,363.672 791.558,365.006 794.31,368.066 
  795.953,369.941 798.219,372.461 800.347,374.89 802.116,376.856 804.742,379.854 806,381.251 809.137,384.831 809.87,385.646 813.532,389.824 813.727,390.04 
  817.578,394.435 817.927,394.845 821.42,398.83 822.322,399.888 825.247,403.225 826.716,404.95 829.058,407.62 831.111,410.03 832.852,412.015 835.506,415.13 
  836.629,416.409 839.901,420.251 840.387,420.804 844.131,425.199 844.296,425.398 847.87,429.594 848.691,430.587 851.589,433.989 853.085,435.8 855.287,438.384 
  857.48,441.039 858.963,442.778 861.875,446.305 862.615,447.173 866.244,451.568 866.27,451.6 869.871,455.963 870.665,456.956 873.473,460.358 875.059,462.345 
  877.047,464.752 879.454,467.768 880.592,469.147 883.849,473.229 884.107,473.542 887.612,477.937 888.244,478.758 891.093,482.332 892.639,484.341 894.54,486.727 
  897.034,489.97 897.951,491.121 901.327,495.516 901.428,495.654 904.696,499.911 905.823,501.436 908.025,504.306 910.218,507.277 911.31,508.701 914.55,513.096 
  914.613,513.184 917.784,517.49 919.008,519.219 920.969,521.885 923.403,525.332 924.099,526.28 927.197,530.675 927.797,531.563 930.265,535.07 932.192,537.929 
  933.271,539.465 936.226,543.859 936.587,544.421 939.157,548.254 940.982,551.101 942.017,552.649 944.824,557.044 945.377,557.951 947.596,561.439 949.772,565.025 
  950.284,565.833 952.937,570.228 954.166,572.369 955.521,574.623 958.029,579.018 958.561,580 960.497,583.413 962.86,587.808 962.956,587.997 965.2,592.202 
  967.351,596.468 967.419,596.597 969.614,600.992 971.682,605.387 971.746,605.53 973.723,609.782 975.642,614.177 976.14,615.395 977.508,618.571 979.276,622.966 
  980.535,626.322 980.946,627.361 982.563,631.756 984.063,636.151 984.93,638.9 985.478,640.545 986.827,644.94 988.065,649.335 989.197,653.73 989.325,654.275 
  990.279,658.125 991.264,662.52 992.149,666.914 992.94,671.309 993.639,675.704 993.72,676.284 994.283,680.099 994.843,684.494 995.32,688.889 995.716,693.283 
  996.037,697.678 996.286,702.073 996.467,706.468 996.584,710.863 996.64,715.258 996.639,719.652 996.584,724.047 996.479,728.442 996.328,732.837 996.133,737.232 
  995.898,741.626 995.626,746.021 995.321,750.416 994.984,754.811 994.619,759.206 994.229,763.601 993.817,767.995 993.72,768.986 993.404,772.39 992.98,776.785 
  992.542,781.18 992.094,785.575 991.636,789.97 991.171,794.364 990.701,798.759 990.229,803.154 989.756,807.549 989.325,811.569 989.287,811.944 988.844,816.338 
  988.405,820.733 987.973,825.128 987.548,829.523 987.132,833.918 986.727,838.313 986.335,842.707 985.955,847.102 985.59,851.497 985.24,855.892 984.93,859.98 
  984.908,860.287 984.609,864.682 984.328,869.076 984.065,873.471 983.822,877.866 983.598,882.261 983.395,886.656 983.213,891.051 983.053,895.445 982.915,899.84 
  982.799,904.235 982.706,908.63 982.636,913.025 982.589,917.419 982.566,921.814 982.566,926.209 982.589,930.604 982.636,934.999 982.706,939.394 982.799,943.788 
  982.915,948.183 983.053,952.578 983.213,956.973 983.395,961.368 983.598,965.763 983.822,970.157 984.065,974.552 984.328,978.947 984.609,983.342 984.908,987.737 
  984.93,988.044 985.24,992.131 985.59,996.526 985.955,1000.92 986.335,1005.32 986.727,1009.71 987.132,1014.11 987.548,1018.5 987.973,1022.9 988.405,1027.29 
  988.844,1031.68 989.287,1036.08 989.325,1036.45 989.756,1040.47 990.229,1044.87 990.701,1049.26 991.171,1053.66 991.636,1058.05 992.094,1062.45 992.542,1066.84 
  992.98,1071.24 993.404,1075.63 993.72,1079.04 993.817,1080.03 994.229,1084.42 994.619,1088.82 994.984,1093.21 995.321,1097.61 995.626,1102 995.898,1106.4 
  996.133,1110.79 996.328,1115.19 996.479,1119.58 996.584,1123.98 996.639,1128.37 996.64,1132.77 996.584,1137.16 996.467,1141.56 996.286,1145.95 996.037,1150.35 
  995.716,1154.74 995.32,1159.13 994.843,1163.53 994.283,1167.92 993.72,1171.74 993.639,1172.32 992.94,1176.71 992.149,1181.11 991.264,1185.5 990.279,1189.9 
  989.325,1193.75 989.197,1194.29 988.065,1198.69 986.827,1203.08 985.478,1207.48 984.93,1209.12 984.063,1211.87 982.563,1216.27 980.946,1220.66 980.535,1221.7 
  979.276,1225.06 977.508,1229.45 976.14,1232.63 975.642,1233.85 973.723,1238.24 971.746,1242.49 971.682,1242.64 969.614,1247.03 967.419,1251.43 967.351,1251.56 
  965.2,1255.82 962.956,1260.03 962.86,1260.22 960.497,1264.61 958.561,1268.02 958.029,1269.01 955.521,1273.4 954.166,1275.65 952.937,1277.8 950.284,1282.19 
  949.772,1283 947.596,1286.58 945.377,1290.07 944.824,1290.98 942.017,1295.37 940.982,1296.92 939.157,1299.77 936.587,1303.6 936.226,1304.16 933.271,1308.56 
  932.192,1310.09 930.265,1312.95 927.797,1316.46 927.197,1317.35 924.099,1321.74 923.403,1322.69 920.969,1326.14 919.008,1328.8 917.784,1330.53 914.613,1334.84 
  914.55,1334.93 911.31,1339.32 910.218,1340.75 908.025,1343.72 905.823,1346.59 904.696,1348.11 901.428,1352.37 901.327,1352.51 897.951,1356.9 897.034,1358.05 
  894.54,1361.3 892.639,1363.68 891.093,1365.69 888.244,1369.27 887.612,1370.09 884.107,1374.48 883.849,1374.79 880.592,1378.88 879.454,1380.25 877.047,1383.27 
  875.059,1385.68 873.473,1387.67 870.665,1391.07 869.871,1392.06 866.27,1396.42 866.244,1396.46 862.615,1400.85 861.875,1401.72 858.963,1405.25 857.48,1406.98 
  855.287,1409.64 853.085,1412.22 851.589,1414.03 848.691,1417.44 847.87,1418.43 844.296,1422.62 844.131,1422.82 840.387,1427.22 839.901,1427.77 836.629,1431.61 
  835.506,1432.89 832.852,1436.01 831.111,1437.99 829.058,1440.4 826.716,1443.07 825.247,1444.8 822.322,1448.14 821.42,1449.19 817.927,1453.18 817.578,1453.59 
  813.727,1457.98 813.532,1458.2 809.87,1462.38 809.137,1463.19 806,1466.77 804.742,1468.17 802.116,1471.17 800.347,1473.13 798.219,1475.56 795.953,1478.08 
  794.31,1479.96 791.558,1483.02 790.389,1484.35 787.163,1487.94 786.456,1488.75 782.768,1492.85 782.513,1493.14 778.563,1497.54 778.373,1497.74 774.61,1501.93 
  773.979,1502.62 770.646,1506.33 769.584,1507.48 766.672,1510.72 765.189,1512.33 762.689,1515.12 760.794,1517.17 758.697,1519.51 756.399,1522.01 754.695,1523.91 
  752.004,1526.83 750.685,1528.3 747.61,1531.65 746.667,1532.69 743.215,1536.45 742.641,1537.09 738.82,1541.25 738.607,1541.48 734.57,1545.88 734.425,1546.03 
  730.529,1550.27 730.03,1550.81 726.481,1554.67 725.635,1555.57 722.427,1559.06 721.241,1560.33 718.365,1563.46 716.846,1565.08 714.297,1567.85 712.451,1569.82 
  710.223,1572.25 708.056,1574.56 706.142,1576.64 703.661,1579.29 702.055,1581.04 699.266,1584.01 697.963,1585.43 694.872,1588.73 693.865,1589.83 690.477,1593.44 
  689.761,1594.22 686.082,1598.15 685.652,1598.62 681.687,1602.85 681.538,1603.01 677.422,1607.41 677.292,1607.54 673.304,1611.8 672.898,1612.23 669.181,1616.2 
  668.503,1616.91 665.053,1620.59 664.108,1621.58 660.92,1624.99 659.713,1626.25 656.783,1629.38 655.318,1630.92 652.642,1633.78 650.923,1635.58 648.496,1638.17 
  646.529,1640.23 644.346,1642.57 642.134,1644.89 640.193,1646.96 637.739,1649.53 636.035,1651.36 633.344,1654.18 631.873,1655.75 628.949,1658.82 627.708,1660.14 
  624.554,1663.45 623.539,1664.54 620.16,1668.09 619.366,1668.93 615.765,1672.72 615.19,1673.33 611.37,1677.34 611.011,1677.72 606.975,1681.96 606.828,1682.12 
  602.644,1686.51 602.58,1686.58 598.459,1690.91 598.186,1691.19 594.27,1695.3 593.791,1695.8 590.079,1699.7 589.396,1700.4 585.884,1704.09 585.001,1705.01 
  581.687,1708.49 580.606,1709.6 577.487,1712.88 576.211,1714.2 573.284,1717.28 571.817,1718.79 569.078,1721.67 567.422,1723.38 564.869,1726.07 563.027,1727.97 
  560.658,1730.46 558.632,1732.56 556.445,1734.86 554.237,1737.14 552.228,1739.25 549.842,1741.72 548.01,1743.65 545.448,1746.3 543.789,1748.04 541.053,1750.87 
  539.565,1752.44 536.658,1755.44 535.34,1756.83 532.263,1760.01 531.112,1761.23 527.868,1764.58 526.882,1765.62 523.473,1769.15 522.65,1770.02 519.079,1773.71 
  
  "/>
<polyline clip-path="url(#clip972)" style="stroke:#1e90ff; stroke-linecap:butt; stroke-linejoin:round; stroke-width:4; stroke-opacity:1; fill:none" points="
  1448.71,1000.92 1446.39,997.278 1445.87,996.526 1442.96,992.131 1441.99,990.591 1440.02,987.737 1437.6,984.017 1437.11,983.342 1434.12,978.947 1433.2,977.495 
  1431.11,974.552 1428.81,971.063 1428.13,970.157 1425.1,965.763 1424.41,964.67 1422.01,961.368 1420.02,958.319 1418.97,956.973 1415.94,952.578 1415.62,952.042 
  1412.77,948.183 1411.23,945.704 1409.65,943.788 1406.83,939.546 1406.68,939.394 1403.4,934.999 1402.44,933.081 1399.97,930.604 1398.04,926.759 1393.65,926.759 
  1391.73,930.604 1389.25,933.081 1388.3,934.999 1385.01,939.394 1384.86,939.546 1382.05,943.788 1380.46,945.704 1378.93,948.183 1376.07,952.042 1375.75,952.578 
  1372.73,956.973 1371.67,958.319 1369.69,961.368 1367.28,964.67 1366.6,965.763 1363.56,970.157 1362.89,971.063 1360.58,974.552 1358.49,977.495 1357.57,978.947 
  1354.58,983.342 1354.1,984.017 1351.67,987.737 1349.7,990.591 1348.73,992.131 1345.82,996.526 1345.31,997.278 1342.99,1000.92 1340.91,1004.06 1340.14,1005.32 
  1337.35,1009.71 1336.52,1010.98 1334.6,1014.11 1332.12,1018.05 1331.86,1018.5 1329.2,1022.9 1327.73,1025.3 1326.57,1027.29 1323.99,1031.68 1323.33,1032.78 
  1321.47,1036.08 1318.98,1040.47 1318.94,1040.54 1316.59,1044.87 1314.54,1048.65 1314.22,1049.26 1311.96,1053.66 1310.15,1057.22 1309.74,1058.05 1307.62,1062.45 
  1305.75,1066.41 1305.55,1066.84 1303.61,1071.24 1301.72,1075.63 1301.36,1076.52 1299.96,1080.03 1298.29,1084.42 1296.96,1088.11 1296.72,1088.82 1295.29,1093.21 
  1293.97,1097.61 1292.77,1102 1292.57,1102.82 1291.73,1106.4 1290.83,1110.79 1290.09,1115.19 1289.52,1119.58 1289.12,1123.98 1288.91,1128.37 1288.91,1132.77 
  1289.12,1137.16 1289.56,1141.56 1290.25,1145.95 1291.2,1150.35 1292.42,1154.74 1292.57,1155.17 1293.97,1159.13 1295.84,1163.53 1296.96,1165.78 1298.07,1167.92 
  1300.7,1172.32 1301.36,1173.28 1303.79,1176.71 1305.75,1179.17 1307.36,1181.11 1310.15,1184.1 1311.51,1185.5 1314.54,1188.31 1316.34,1189.9 1318.94,1191.98 
  1321.97,1194.29 1323.33,1195.24 1327.73,1198.13 1328.63,1198.69 1332.12,1200.67 1336.52,1203.02 1336.64,1203.08 1340.91,1205.04 1345.31,1206.91 1346.75,1207.48 
  1349.7,1208.54 1354.1,1209.99 1358.49,1211.31 1360.62,1211.87 1362.89,1212.43 1367.28,1213.38 1371.67,1214.2 1376.07,1214.88 1380.46,1215.43 1384.86,1215.84 
  1389.25,1216.11 1393.65,1216.25 1398.04,1216.25 1402.44,1216.11 1406.83,1215.84 1411.23,1215.43 1415.62,1214.88 1420.02,1214.2 1424.41,1213.38 1428.81,1212.43 
  1431.08,1211.87 1433.2,1211.31 1437.6,1209.99 1441.99,1208.54 1444.94,1207.48 1446.39,1206.91 1450.78,1205.04 1455.05,1203.08 1455.18,1203.02 1459.57,1200.67 
  1463.07,1198.69 1463.97,1198.13 1468.36,1195.24 1469.72,1194.29 1472.76,1191.98 1475.35,1189.9 1477.15,1188.31 1480.18,1185.5 1481.55,1184.1 1484.33,1181.11 
  1485.94,1179.17 1487.9,1176.71 1490.33,1173.28 1490.99,1172.32 1493.62,1167.92 1494.73,1165.78 1495.85,1163.53 1497.72,1159.13 1499.12,1155.17 1499.27,1154.74 
  1500.49,1150.35 1501.44,1145.95 1502.13,1141.56 1502.57,1137.16 1502.79,1132.77 1502.78,1128.37 1502.57,1123.98 1502.18,1119.58 1501.6,1115.19 1500.86,1110.79 
  1499.97,1106.4 1499.12,1102.82 1498.93,1102 1497.73,1097.61 1496.41,1093.21 1494.98,1088.82 1494.73,1088.11 1493.4,1084.42 1491.73,1080.03 1490.33,1076.52 
  1489.97,1075.63 1488.08,1071.24 1486.14,1066.84 1485.94,1066.41 1484.07,1062.45 1481.95,1058.05 1481.55,1057.22 1479.73,1053.66 1477.47,1049.26 1477.15,1048.65 
  1475.1,1044.87 1472.76,1040.54 1472.72,1040.47 1470.22,1036.08 1468.36,1032.78 1467.71,1031.68 1465.12,1027.29 1463.97,1025.3 1462.49,1022.9 1459.84,1018.5 
  1459.57,1018.05 1457.09,1014.11 1455.18,1010.98 1454.35,1009.71 1451.55,1005.32 1450.78,1004.06 1448.71,1000.92 
  "/>
<polyline clip-path="url(#clip972)" style="stroke:#1e90ff; stroke-linecap:butt; stroke-linejoin:round; stroke-width:4; stroke-opacity:1; fill:none" points="
  2272.61,1773.71 2269.04,1770.02 2268.22,1769.15 2264.81,1765.62 2263.82,1764.58 2260.58,1761.23 2259.43,1760.01 2256.35,1756.83 2255.03,1755.44 2252.13,1752.44 
  2250.64,1750.87 2247.9,1748.04 2246.24,1746.3 2243.68,1743.65 2241.85,1741.72 2239.46,1739.25 2237.46,1737.14 2235.25,1734.86 2233.06,1732.56 2231.03,1730.46 
  2228.67,1727.97 2226.82,1726.07 2224.27,1723.38 2222.61,1721.67 2219.88,1718.79 2218.41,1717.28 2215.48,1714.2 2214.21,1712.88 2211.09,1709.6 2210.01,1708.49 
  2206.69,1705.01 2205.81,1704.09 2202.3,1700.4 2201.61,1699.7 2197.9,1695.8 2197.42,1695.3 2193.51,1691.19 2193.23,1690.91 2189.11,1686.58 2189.05,1686.51 
  2184.86,1682.12 2184.72,1681.96 2180.68,1677.72 2180.32,1677.34 2176.5,1673.33 2175.93,1672.72 2172.33,1668.93 2171.53,1668.09 2168.15,1664.54 2167.14,1663.45 
  2163.98,1660.14 2162.74,1658.82 2159.82,1655.75 2158.35,1654.18 2155.66,1651.36 2153.95,1649.53 2151.5,1646.96 2149.56,1644.89 2147.35,1642.57 2145.16,1640.23 
  2143.2,1638.17 2140.77,1635.58 2139.05,1633.78 2136.37,1630.92 2134.91,1629.38 2131.98,1626.25 2130.77,1624.99 2127.58,1621.58 2126.64,1620.59 2123.19,1616.91 
  2122.51,1616.2 2118.79,1612.23 2118.39,1611.8 2114.4,1607.54 2114.27,1607.41 2110.15,1603.01 2110.01,1602.85 2106.04,1598.62 2105.61,1598.15 2101.93,1594.22 
  2101.22,1593.44 2097.83,1589.83 2096.82,1588.73 2093.73,1585.43 2092.43,1584.01 2089.64,1581.04 2088.03,1579.29 2085.55,1576.64 2083.64,1574.56 2081.47,1572.25 
  2079.24,1569.82 2077.4,1567.85 2074.85,1565.08 2073.33,1563.46 2070.45,1560.33 2069.27,1559.06 2066.06,1555.57 2065.21,1554.67 2061.66,1550.81 2061.16,1550.27 
  2057.27,1546.03 2057.12,1545.88 2053.09,1541.48 2052.87,1541.25 2049.05,1537.09 2048.48,1536.45 2045.03,1532.69 2044.08,1531.65 2041.01,1528.3 2039.69,1526.83 
  2037,1523.91 2035.29,1522.01 2033,1519.51 2030.9,1517.17 2029,1515.12 2026.5,1512.33 2025.02,1510.72 2022.11,1507.48 2021.05,1506.33 2017.71,1502.62 
  2017.08,1501.93 2013.32,1497.74 2013.13,1497.54 2009.18,1493.14 2008.92,1492.85 2005.24,1488.75 2004.53,1487.94 2001.3,1484.35 2000.13,1483.02 1997.38,1479.96 
  1995.74,1478.08 1993.47,1475.56 1991.35,1473.13 1989.58,1471.17 1986.95,1468.17 1985.69,1466.77 1982.56,1463.19 1981.82,1462.38 1978.16,1458.2 1977.97,1457.98 
  1974.11,1453.59 1973.77,1453.18 1970.27,1449.19 1969.37,1448.14 1966.45,1444.8 1964.98,1443.07 1962.63,1440.4 1960.58,1437.99 1958.84,1436.01 1956.19,1432.89 
  1955.06,1431.61 1951.79,1427.77 1951.31,1427.22 1947.56,1422.82 1947.4,1422.62 1943.82,1418.43 1943,1417.44 1940.1,1414.03 1938.61,1412.22 1936.41,1409.64 
  1934.21,1406.98 1932.73,1405.25 1929.82,1401.72 1929.08,1400.85 1925.45,1396.46 1925.42,1396.42 1921.82,1392.06 1921.03,1391.07 1918.22,1387.67 1916.63,1385.68 
  1914.65,1383.27 1912.24,1380.25 1911.1,1378.88 1907.84,1374.79 1907.59,1374.48 1904.08,1370.09 1903.45,1369.27 1900.6,1365.69 1899.05,1363.68 1897.15,1361.3 
  1894.66,1358.05 1893.74,1356.9 1890.37,1352.51 1890.26,1352.37 1887,1348.11 1885.87,1346.59 1883.67,1343.72 1881.47,1340.75 1880.38,1339.32 1877.14,1334.93 
  1877.08,1334.84 1873.91,1330.53 1872.68,1328.8 1870.72,1326.14 1868.29,1322.69 1867.59,1321.74 1864.5,1317.35 1863.9,1316.46 1861.43,1312.95 1859.5,1310.09 
  1858.42,1308.56 1855.47,1304.16 1855.11,1303.6 1852.54,1299.77 1850.71,1296.92 1849.68,1295.37 1846.87,1290.98 1846.32,1290.07 1844.1,1286.58 1841.92,1283 
  1841.41,1282.19 1838.76,1277.8 1837.53,1275.65 1836.17,1273.4 1833.66,1269.01 1833.13,1268.02 1831.2,1264.61 1828.83,1260.22 1828.74,1260.03 1826.49,1255.82 
  1824.34,1251.56 1824.27,1251.43 1822.08,1247.03 1820.01,1242.64 1819.95,1242.49 1817.97,1238.24 1816.05,1233.85 1815.55,1232.63 1814.18,1229.45 1812.42,1225.06 
  1811.16,1221.7 1810.75,1220.66 1809.13,1216.27 1807.63,1211.87 1806.76,1209.12 1806.21,1207.48 1804.87,1203.08 1803.63,1198.69 1802.5,1194.29 1802.37,1193.75 
  1801.41,1189.9 1800.43,1185.5 1799.54,1181.11 1798.75,1176.71 1798.05,1172.32 1797.97,1171.74 1797.41,1167.92 1796.85,1163.53 1796.37,1159.13 1795.98,1154.74 
  1795.66,1150.35 1795.41,1145.95 1795.23,1141.56 1795.11,1137.16 1795.05,1132.77 1795.05,1128.37 1795.11,1123.98 1795.21,1119.58 1795.36,1115.19 1795.56,1110.79 
  1795.79,1106.4 1796.07,1102 1796.37,1097.61 1796.71,1093.21 1797.07,1088.82 1797.46,1084.42 1797.88,1080.03 1797.97,1079.04 1798.29,1075.63 1798.71,1071.24 
  1799.15,1066.84 1799.6,1062.45 1800.06,1058.05 1800.52,1053.66 1800.99,1049.26 1801.46,1044.87 1801.94,1040.47 1802.37,1036.45 1802.41,1036.08 1802.85,1031.68 
  1803.29,1027.29 1803.72,1022.9 1804.14,1018.5 1804.56,1014.11 1804.97,1009.71 1805.36,1005.32 1805.74,1000.92 1806.1,996.526 1806.45,992.131 1806.76,988.044 
  1806.78,987.737 1807.08,983.342 1807.36,978.947 1807.63,974.552 1807.87,970.157 1808.09,965.763 1808.3,961.368 1808.48,956.973 1808.64,952.578 1808.78,948.183 
  1808.89,943.788 1808.99,939.394 1809.06,934.999 1809.1,930.604 1809.13,926.209 1809.13,921.814 1809.1,917.419 1809.06,913.025 1808.99,908.63 1808.89,904.235 
  1808.78,899.84 1808.64,895.445 1808.48,891.051 1808.3,886.656 1808.09,882.261 1807.87,877.866 1807.63,873.471 1807.36,869.076 1807.08,864.682 1806.78,860.287 
  1806.76,859.98 1806.45,855.892 1806.1,851.497 1805.74,847.102 1805.36,842.707 1804.97,838.313 1804.56,833.918 1804.14,829.523 1803.72,825.128 1803.29,820.733 
  1802.85,816.338 1802.41,811.944 1802.37,811.569 1801.94,807.549 1801.46,803.154 1800.99,798.759 1800.52,794.364 1800.06,789.97 1799.6,785.575 1799.15,781.18 
  1798.71,776.785 1798.29,772.39 1797.97,768.986 1797.88,767.995 1797.46,763.601 1797.07,759.206 1796.71,754.811 1796.37,750.416 1796.07,746.021 1795.79,741.626 
  1795.56,737.232 1795.36,732.837 1795.21,728.442 1795.11,724.047 1795.05,719.652 1795.05,715.258 1795.11,710.863 1795.23,706.468 1795.41,702.073 1795.66,697.678 
  1795.98,693.283 1796.37,688.889 1796.85,684.494 1797.41,680.099 1797.97,676.284 1798.05,675.704 1798.75,671.309 1799.54,666.914 1800.43,662.52 1801.41,658.125 
  1802.37,654.275 1802.5,653.73 1803.63,649.335 1804.87,644.94 1806.21,640.545 1806.76,638.9 1807.63,636.151 1809.13,631.756 1810.75,627.361 1811.16,626.322 
  1812.42,622.966 1814.18,618.571 1815.55,615.395 1816.05,614.177 1817.97,609.782 1819.95,605.53 1820.01,605.387 1822.08,600.992 1824.27,596.597 1824.34,596.468 
  1826.49,592.202 1828.74,587.997 1828.83,587.808 1831.2,583.413 1833.13,580 1833.66,579.018 1836.17,574.623 1837.53,572.369 1838.76,570.228 1841.41,565.833 
  1841.92,565.025 1844.1,561.439 1846.32,557.951 1846.87,557.044 1849.68,552.649 1850.71,551.101 1852.54,548.254 1855.11,544.421 1855.47,543.859 1858.42,539.465 
  1859.5,537.929 1861.43,535.07 1863.9,531.563 1864.5,530.675 1867.59,526.28 1868.29,525.332 1870.72,521.885 1872.68,519.219 1873.91,517.49 1877.08,513.184 
  1877.14,513.096 1880.38,508.701 1881.47,507.277 1883.67,504.306 1885.87,501.436 1887,499.911 1890.26,495.654 1890.37,495.516 1893.74,491.121 1894.66,489.97 
  1897.15,486.727 1899.05,484.341 1900.6,482.332 1903.45,478.758 1904.08,477.937 1907.59,473.542 1907.84,473.229 1911.1,469.147 1912.24,467.768 1914.65,464.752 
  1916.63,462.345 1918.22,460.358 1921.03,456.956 1921.82,455.963 1925.42,451.6 1925.45,451.568 1929.08,447.173 1929.82,446.305 1932.73,442.778 1934.21,441.039 
  1936.41,438.384 1938.61,435.8 1940.1,433.989 1943,430.587 1943.82,429.594 1947.4,425.398 1947.56,425.199 1951.31,420.804 1951.79,420.251 1955.06,416.409 
  1956.19,415.13 1958.84,412.015 1960.58,410.03 1962.63,407.62 1964.98,404.95 1966.45,403.225 1969.37,399.888 1970.27,398.83 1973.77,394.845 1974.11,394.435 
  1977.97,390.04 1978.16,389.824 1981.82,385.646 1982.56,384.831 1985.69,381.251 1986.95,379.854 1989.58,376.856 1991.35,374.89 1993.47,372.461 1995.74,369.941 
  1997.38,368.066 2000.13,365.006 2001.3,363.672 2004.53,360.083 2005.24,359.277 2008.92,355.173 2009.18,354.882 2013.13,350.487 2013.32,350.281 2017.08,346.092 
  2017.71,345.407 2021.05,341.697 2022.11,340.544 2025.02,337.303 2026.5,335.691 2029,332.908 2030.9,330.848 2033,328.513 2035.29,326.016 2037,324.118 
  2039.69,321.192 2041.01,319.723 2044.08,316.378 2045.03,315.328 2048.48,311.572 2049.05,310.934 2052.87,306.775 2053.09,306.539 2057.12,302.144 2057.27,301.99 
  2061.16,297.749 2061.66,297.218 2065.21,293.354 2066.06,292.454 2069.27,288.959 2070.45,287.696 2073.33,284.565 2074.85,282.946 2077.4,280.17 2079.24,278.203 
  2081.47,275.775 2083.64,273.466 2085.55,271.38 2088.03,268.735 2089.64,266.985 2092.43,264.011 2093.73,262.591 2096.82,259.293 2097.83,258.196 2101.22,254.581 
  2101.93,253.801 2105.61,249.874 2106.04,249.406 2110.01,245.173 2110.15,245.011 2114.27,240.616 2114.4,240.481 2118.39,236.222 2118.79,235.796 2122.51,231.827 
  2123.19,231.117 2126.64,227.432 2127.58,226.443 2130.77,223.037 2131.98,221.773 2134.91,218.642 2136.37,217.108 2139.05,214.247 2140.77,212.447 2143.2,209.853 
  2145.16,207.79 2147.35,205.458 2149.56,203.138 2151.5,201.063 2153.95,198.49 2155.66,196.668 2158.35,193.846 2159.82,192.273 2162.74,189.206 2163.98,187.878 
  2167.14,184.57 2168.15,183.484 2171.53,179.937 2172.33,179.089 2175.93,175.308 2176.5,174.694 2180.32,170.683 2180.68,170.299 2184.72,166.061 2184.86,165.904 
  2189.05,161.51 2189.11,161.444 2193.23,157.115 2193.51,156.833 2197.42,152.72 2197.9,152.225 2201.61,148.325 2202.3,147.62 2205.81,143.93 2206.69,143.018 
  2210.01,139.535 2211.09,138.419 2214.21,135.141 2215.48,133.823 2218.41,130.746 2219.88,129.23 2222.61,126.351 2224.27,124.64 2226.82,121.956 2228.67,120.052 
  2231.03,117.561 2233.06,115.467 2235.25,113.166 2237.46,110.884 2239.46,108.772 2241.85,106.304 2243.68,104.377 2246.24,101.727 2247.9,99.982 2250.64,97.1517 
  2252.13,95.5872 2255.03,92.579 2256.35,91.1923 2259.43,88.0087 2260.58,86.7975 2263.82,83.4406 2264.81,82.4027 2268.22,78.8748 2269.04,78.0079 2272.61,74.3111 
  
  "/>
<polyline clip-path="url(#clip972)" style="stroke:#1e90ff; stroke-linecap:butt; stroke-linejoin:round; stroke-width:4; stroke-opacity:1; fill:none" points="
  1475.35,658.125 1477.15,659.717 1480.18,662.52 1481.55,663.928 1484.33,666.914 1485.94,668.854 1487.9,671.309 1490.33,674.743 1490.99,675.704 1493.62,680.099 
  1494.73,682.247 1495.85,684.494 1497.72,688.889 1499.12,692.85 1499.27,693.283 1500.49,697.678 1501.44,702.073 1502.13,706.468 1502.57,710.863 1502.79,715.258 
  1502.78,719.652 1502.57,724.047 1502.18,728.442 1501.6,732.837 1500.86,737.232 1499.97,741.626 1499.12,745.201 1498.93,746.021 1497.73,750.416 1496.41,754.811 
  1494.98,759.206 1494.73,759.912 1493.4,763.601 1491.73,767.995 1490.33,771.505 1489.97,772.39 1488.08,776.785 1486.14,781.18 1485.94,781.615 1484.07,785.575 
  1481.95,789.97 1481.55,790.805 1479.73,794.364 1477.47,798.759 1477.15,799.373 1475.1,803.154 1472.76,807.481 1472.72,807.549 1470.22,811.944 1468.36,815.24 
  1467.71,816.338 1465.12,820.733 1463.97,822.723 1462.49,825.128 1459.84,829.523 1459.57,829.971 1457.09,833.918 1455.18,837.047 1454.35,838.313 1451.55,842.707 
  1450.78,843.964 1448.71,847.102 1446.39,850.745 1445.87,851.497 1442.96,855.892 1441.99,857.433 1440.02,860.287 1437.6,864.007 1437.11,864.682 1434.12,869.076 
  1433.2,870.528 1431.11,873.471 1428.81,876.961 1428.13,877.866 1425.1,882.261 1424.41,883.354 1422.01,886.656 1420.02,889.704 1418.97,891.051 1415.94,895.445 
  1415.62,895.981 1412.77,899.84 1411.23,902.319 1409.65,904.235 1406.83,908.478 1406.68,908.63 1403.4,913.025 1402.44,914.943 1399.97,917.419 1398.04,921.265 
  1393.65,921.265 1391.73,917.419 1389.25,914.943 1388.3,913.025 1385.01,908.63 1384.86,908.478 1382.05,904.235 1380.46,902.319 1378.93,899.84 1376.07,895.981 
  1375.75,895.445 1372.73,891.051 1371.67,889.704 1369.69,886.656 1367.28,883.354 1366.6,882.261 1363.56,877.866 1362.89,876.961 1360.58,873.471 1358.49,870.528 
  1357.57,869.076 1354.58,864.682 1354.1,864.007 1351.67,860.287 1349.7,857.433 1348.73,855.892 1345.82,851.497 1345.31,850.745 1342.99,847.102 1340.91,843.964 
  1340.14,842.707 1337.35,838.313 1336.52,837.047 1334.6,833.918 1332.12,829.971 1331.86,829.523 1329.2,825.128 1327.73,822.723 1326.57,820.733 1323.99,816.338 
  1323.33,815.24 1321.47,811.944 1318.98,807.549 1318.94,807.481 1316.59,803.154 1314.54,799.373 1314.22,798.759 1311.96,794.364 1310.15,790.805 1309.74,789.97 
  1307.62,785.575 1305.75,781.615 1305.55,781.18 1303.61,776.785 1301.72,772.39 1301.36,771.505 1299.96,767.995 1298.29,763.601 1296.96,759.912 1296.72,759.206 
  1295.29,754.811 1293.97,750.416 1292.77,746.021 1292.57,745.201 1291.73,741.626 1290.83,737.232 1290.09,732.837 1289.52,728.442 1289.12,724.047 1288.91,719.652 
  1288.91,715.258 1289.12,710.863 1289.56,706.468 1290.25,702.073 1291.2,697.678 1292.42,693.283 1292.57,692.85 1293.97,688.889 1295.84,684.494 1296.96,682.247 
  1298.07,680.099 1300.7,675.704 1301.36,674.743 1303.79,671.309 1305.75,668.854 1307.36,666.914 1310.15,663.928 1311.51,662.52 1314.54,659.717 1316.34,658.125 
  1318.94,656.046 1321.97,653.73 1323.33,652.788 1327.73,649.894 1328.63,649.335 1332.12,647.349 1336.52,645.001 1336.64,644.94 1340.91,642.982 1345.31,641.112 
  1346.75,640.545 1349.7,639.479 1354.1,638.029 1358.49,636.717 1360.62,636.151 1362.89,635.592 1367.28,634.642 1371.67,633.825 1376.07,633.143 1380.46,632.595 
  1384.86,632.185 1389.25,631.91 1393.65,631.773 1398.04,631.773 1402.44,631.91 1406.83,632.185 1411.23,632.595 1415.62,633.143 1420.02,633.825 1424.41,634.642 
  1428.81,635.592 1431.08,636.151 1433.2,636.717 1437.6,638.029 1441.99,639.479 1444.94,640.545 1446.39,641.112 1450.78,642.982 1455.05,644.94 1455.18,645.001 
  1459.57,647.349 1463.07,649.335 1463.97,649.894 1468.36,652.788 1469.72,653.73 1472.76,656.046 1475.35,658.125 
  "/>
</svg>
