<?xml version="1.0" encoding="utf-8"?>
<svg xmlns="http://www.w3.org/2000/svg" xmlns:xlink="http://www.w3.org/1999/xlink" width="672" height="480" viewBox="0 0 2688 1920">
<defs>
  <clipPath id="clip200">
    <rect x="0" y="0" width="2688" height="1920"/>
  </clipPath>
</defs>
<path clip-path="url(#clip200)" d="
M0 1920 L2688 1920 L2688 0 L0 0  Z
  " fill="#ffffff" fill-rule="evenodd" fill-opacity="1"/>
<defs>
  <clipPath id="clip201">
    <rect x="537" y="0" width="1883" height="1883"/>
  </clipPath>
</defs>
<path clip-path="url(#clip200)" d="
M542.018 1800.78 L2295.55 1800.78 L2295.55 47.2441 L542.018 47.2441  Z
  " fill="#ffffff" fill-rule="evenodd" fill-opacity="1"/>
<defs>
  <clipPath id="clip202">
    <rect x="542" y="47" width="1755" height="1755"/>
  </clipPath>
</defs>
<polyline clip-path="url(#clip202)" style="stroke:#000000; stroke-linecap:butt; stroke-linejoin:round; stroke-width:2; stroke-opacity:0.1; fill:none" points="
  542.018,1800.78 542.018,47.2441 
  "/>
<polyline clip-path="url(#clip202)" style="stroke:#000000; stroke-linecap:butt; stroke-linejoin:round; stroke-width:2; stroke-opacity:0.1; fill:none" points="
  907.338,1800.78 907.338,47.2441 
  "/>
<polyline clip-path="url(#clip202)" style="stroke:#000000; stroke-linecap:butt; stroke-linejoin:round; stroke-width:2; stroke-opacity:0.1; fill:none" points="
  1272.66,1800.78 1272.66,47.2441 
  "/>
<polyline clip-path="url(#clip202)" style="stroke:#000000; stroke-linecap:butt; stroke-linejoin:round; stroke-width:2; stroke-opacity:0.1; fill:none" points="
  1637.98,1800.78 1637.98,47.2441 
  "/>
<polyline clip-path="url(#clip202)" style="stroke:#000000; stroke-linecap:butt; stroke-linejoin:round; stroke-width:2; stroke-opacity:0.1; fill:none" points="
  2003.3,1800.78 2003.3,47.2441 
  "/>
<polyline clip-path="url(#clip200)" style="stroke:#000000; stroke-linecap:butt; stroke-linejoin:round; stroke-width:4; stroke-opacity:1; fill:none" points="
  542.018,1800.78 2295.55,1800.78 
  "/>
<polyline clip-path="url(#clip200)" style="stroke:#000000; stroke-linecap:butt; stroke-linejoin:round; stroke-width:4; stroke-opacity:1; fill:none" points="
  542.018,1800.78 542.018,1781.88 
  "/>
<polyline clip-path="url(#clip200)" style="stroke:#000000; stroke-linecap:butt; stroke-linejoin:round; stroke-width:4; stroke-opacity:1; fill:none" points="
  907.338,1800.78 907.338,1781.88 
  "/>
<polyline clip-path="url(#clip200)" style="stroke:#000000; stroke-linecap:butt; stroke-linejoin:round; stroke-width:4; stroke-opacity:1; fill:none" points="
  1272.66,1800.78 1272.66,1781.88 
  "/>
<polyline clip-path="url(#clip200)" style="stroke:#000000; stroke-linecap:butt; stroke-linejoin:round; stroke-width:4; stroke-opacity:1; fill:none" points="
  1637.98,1800.78 1637.98,1781.88 
  "/>
<polyline clip-path="url(#clip200)" style="stroke:#000000; stroke-linecap:butt; stroke-linejoin:round; stroke-width:4; stroke-opacity:1; fill:none" points="
  2003.3,1800.78 2003.3,1781.88 
  "/>
<path clip-path="url(#clip200)" d="M488.546 1848.65 L518.222 1848.65 L518.222 1852.59 L488.546 1852.59 L488.546 1848.65 Z" fill="#000000" fill-rule="evenodd" fill-opacity="1" /><path clip-path="url(#clip200)" d="M528.361 1830.92 L546.717 1830.92 L546.717 1834.86 L532.643 1834.86 L532.643 1843.33 Q533.662 1842.98 534.68 1842.82 Q535.699 1842.64 536.717 1842.64 Q542.504 1842.64 545.884 1845.81 Q549.264 1848.98 549.264 1854.4 Q549.264 1859.97 545.791 1863.08 Q542.319 1866.15 536 1866.15 Q533.824 1866.15 531.555 1865.78 Q529.31 1865.41 526.903 1864.67 L526.903 1859.97 Q528.986 1861.11 531.208 1861.66 Q533.43 1862.22 535.907 1862.22 Q539.912 1862.22 542.25 1860.11 Q544.588 1858.01 544.588 1854.4 Q544.588 1850.78 542.25 1848.68 Q539.912 1846.57 535.907 1846.57 Q534.032 1846.57 532.157 1846.99 Q530.305 1847.4 528.361 1848.28 L528.361 1830.92 Z" fill="#000000" fill-rule="evenodd" fill-opacity="1" /><path clip-path="url(#clip200)" d="M558.477 1859.6 L563.361 1859.6 L563.361 1865.48 L558.477 1865.48 L558.477 1859.6 Z" fill="#000000" fill-rule="evenodd" fill-opacity="1" /><path clip-path="url(#clip200)" d="M583.546 1834 Q579.935 1834 578.106 1837.57 Q576.301 1841.11 576.301 1848.24 Q576.301 1855.34 578.106 1858.91 Q579.935 1862.45 583.546 1862.45 Q587.18 1862.45 588.986 1858.91 Q590.814 1855.34 590.814 1848.24 Q590.814 1841.11 588.986 1837.57 Q587.18 1834 583.546 1834 M583.546 1830.3 Q589.356 1830.3 592.412 1834.9 Q595.49 1839.49 595.49 1848.24 Q595.49 1856.96 592.412 1861.57 Q589.356 1866.15 583.546 1866.15 Q577.736 1866.15 574.657 1861.57 Q571.602 1856.96 571.602 1848.24 Q571.602 1839.49 574.657 1834.9 Q577.736 1830.3 583.546 1830.3 Z" fill="#000000" fill-rule="evenodd" fill-opacity="1" /><path clip-path="url(#clip200)" d="M854.364 1848.65 L884.04 1848.65 L884.04 1852.59 L854.364 1852.59 L854.364 1848.65 Z" fill="#000000" fill-rule="evenodd" fill-opacity="1" /><path clip-path="url(#clip200)" d="M898.16 1861.55 L914.479 1861.55 L914.479 1865.48 L892.535 1865.48 L892.535 1861.55 Q895.197 1858.79 899.78 1854.16 Q904.387 1849.51 905.567 1848.17 Q907.813 1845.65 908.692 1843.91 Q909.595 1842.15 909.595 1840.46 Q909.595 1837.71 907.651 1835.97 Q905.729 1834.23 902.628 1834.23 Q900.428 1834.23 897.975 1835 Q895.544 1835.76 892.767 1837.31 L892.767 1832.59 Q895.591 1831.46 898.044 1830.88 Q900.498 1830.3 902.535 1830.3 Q907.905 1830.3 911.1 1832.98 Q914.294 1835.67 914.294 1840.16 Q914.294 1842.29 913.484 1844.21 Q912.697 1846.11 910.59 1848.7 Q910.012 1849.37 906.91 1852.59 Q903.808 1855.78 898.16 1861.55 Z" fill="#000000" fill-rule="evenodd" fill-opacity="1" /><path clip-path="url(#clip200)" d="M924.294 1859.6 L929.178 1859.6 L929.178 1865.48 L924.294 1865.48 L924.294 1859.6 Z" fill="#000000" fill-rule="evenodd" fill-opacity="1" /><path clip-path="url(#clip200)" d="M939.41 1830.92 L957.766 1830.92 L957.766 1834.86 L943.692 1834.86 L943.692 1843.33 Q944.711 1842.98 945.729 1842.82 Q946.748 1842.64 947.766 1842.64 Q953.553 1842.64 956.933 1845.81 Q960.312 1848.98 960.312 1854.4 Q960.312 1859.97 956.84 1863.08 Q953.368 1866.15 947.049 1866.15 Q944.873 1866.15 942.604 1865.78 Q940.359 1865.41 937.951 1864.67 L937.951 1859.97 Q940.035 1861.11 942.257 1861.66 Q944.479 1862.22 946.956 1862.22 Q950.961 1862.22 953.299 1860.11 Q955.637 1858.01 955.637 1854.4 Q955.637 1850.78 953.299 1848.68 Q950.961 1846.57 946.956 1846.57 Q945.081 1846.57 943.206 1846.99 Q941.354 1847.4 939.41 1848.28 L939.41 1830.92 Z" fill="#000000" fill-rule="evenodd" fill-opacity="1" /><path clip-path="url(#clip200)" d="M1250.04 1834 Q1246.43 1834 1244.6 1837.57 Q1242.8 1841.11 1242.8 1848.24 Q1242.8 1855.34 1244.6 1858.91 Q1246.43 1862.45 1250.04 1862.45 Q1253.68 1862.45 1255.48 1858.91 Q1257.31 1855.34 1257.31 1848.24 Q1257.31 1841.11 1255.48 1837.57 Q1253.68 1834 1250.04 1834 M1250.04 1830.3 Q1255.85 1830.3 1258.91 1834.9 Q1261.99 1839.49 1261.99 1848.24 Q1261.99 1856.96 1258.91 1861.57 Q1255.85 1866.15 1250.04 1866.15 Q1244.23 1866.15 1241.15 1861.57 Q1238.1 1856.96 1238.1 1848.24 Q1238.1 1839.49 1241.15 1834.9 Q1244.23 1830.3 1250.04 1830.3 Z" fill="#000000" fill-rule="evenodd" fill-opacity="1" /><path clip-path="url(#clip200)" d="M1270.2 1859.6 L1275.09 1859.6 L1275.09 1865.48 L1270.2 1865.48 L1270.2 1859.6 Z" fill="#000000" fill-rule="evenodd" fill-opacity="1" /><path clip-path="url(#clip200)" d="M1295.27 1834 Q1291.66 1834 1289.83 1837.57 Q1288.03 1841.11 1288.03 1848.24 Q1288.03 1855.34 1289.83 1858.91 Q1291.66 1862.45 1295.27 1862.45 Q1298.91 1862.45 1300.71 1858.91 Q1302.54 1855.34 1302.54 1848.24 Q1302.54 1841.11 1300.71 1837.57 Q1298.91 1834 1295.27 1834 M1295.27 1830.3 Q1301.08 1830.3 1304.14 1834.9 Q1307.22 1839.49 1307.22 1848.24 Q1307.22 1856.96 1304.14 1861.57 Q1301.08 1866.15 1295.27 1866.15 Q1289.46 1866.15 1286.38 1861.57 Q1283.33 1856.96 1283.33 1848.24 Q1283.33 1839.49 1286.38 1834.9 Q1289.46 1830.3 1295.27 1830.3 Z" fill="#000000" fill-rule="evenodd" fill-opacity="1" /><path clip-path="url(#clip200)" d="M1609.71 1861.55 L1626.03 1861.55 L1626.03 1865.48 L1604.09 1865.48 L1604.09 1861.55 Q1606.75 1858.79 1611.33 1854.16 Q1615.94 1849.51 1617.12 1848.17 Q1619.37 1845.65 1620.25 1843.91 Q1621.15 1842.15 1621.15 1840.46 Q1621.15 1837.71 1619.2 1835.97 Q1617.28 1834.23 1614.18 1834.23 Q1611.98 1834.23 1609.53 1835 Q1607.1 1835.76 1604.32 1837.31 L1604.32 1832.59 Q1607.14 1831.46 1609.6 1830.88 Q1612.05 1830.3 1614.09 1830.3 Q1619.46 1830.3 1622.65 1832.98 Q1625.85 1835.67 1625.85 1840.16 Q1625.85 1842.29 1625.04 1844.21 Q1624.25 1846.11 1622.14 1848.7 Q1621.57 1849.37 1618.46 1852.59 Q1615.36 1855.78 1609.71 1861.55 Z" fill="#000000" fill-rule="evenodd" fill-opacity="1" /><path clip-path="url(#clip200)" d="M1635.85 1859.6 L1640.73 1859.6 L1640.73 1865.48 L1635.85 1865.48 L1635.85 1859.6 Z" fill="#000000" fill-rule="evenodd" fill-opacity="1" /><path clip-path="url(#clip200)" d="M1650.96 1830.92 L1669.32 1830.92 L1669.32 1834.86 L1655.25 1834.86 L1655.25 1843.33 Q1656.26 1842.98 1657.28 1842.82 Q1658.3 1842.64 1659.32 1842.64 Q1665.11 1842.64 1668.49 1845.81 Q1671.87 1848.98 1671.87 1854.4 Q1671.87 1859.97 1668.39 1863.08 Q1664.92 1866.15 1658.6 1866.15 Q1656.43 1866.15 1654.16 1865.78 Q1651.91 1865.41 1649.51 1864.67 L1649.51 1859.97 Q1651.59 1861.11 1653.81 1861.66 Q1656.03 1862.22 1658.51 1862.22 Q1662.51 1862.22 1664.85 1860.11 Q1667.19 1858.01 1667.19 1854.4 Q1667.19 1850.78 1664.85 1848.68 Q1662.51 1846.57 1658.51 1846.57 Q1656.64 1846.57 1654.76 1846.99 Q1652.91 1847.4 1650.96 1848.28 L1650.96 1830.92 Z" fill="#000000" fill-rule="evenodd" fill-opacity="1" /><path clip-path="url(#clip200)" d="M1970.46 1830.92 L1988.82 1830.92 L1988.82 1834.86 L1974.74 1834.86 L1974.74 1843.33 Q1975.76 1842.98 1976.78 1842.82 Q1977.8 1842.64 1978.82 1842.64 Q1984.61 1842.64 1987.99 1845.81 Q1991.36 1848.98 1991.36 1854.4 Q1991.36 1859.97 1987.89 1863.08 Q1984.42 1866.15 1978.1 1866.15 Q1975.93 1866.15 1973.66 1865.78 Q1971.41 1865.41 1969 1864.67 L1969 1859.97 Q1971.09 1861.11 1973.31 1861.66 Q1975.53 1862.22 1978.01 1862.22 Q1982.01 1862.22 1984.35 1860.11 Q1986.69 1858.01 1986.69 1854.4 Q1986.69 1850.78 1984.35 1848.68 Q1982.01 1846.57 1978.01 1846.57 Q1976.13 1846.57 1974.26 1846.99 Q1972.41 1847.4 1970.46 1848.28 L1970.46 1830.92 Z" fill="#000000" fill-rule="evenodd" fill-opacity="1" /><path clip-path="url(#clip200)" d="M2000.58 1859.6 L2005.46 1859.6 L2005.46 1865.48 L2000.58 1865.48 L2000.58 1859.6 Z" fill="#000000" fill-rule="evenodd" fill-opacity="1" /><path clip-path="url(#clip200)" d="M2025.65 1834 Q2022.04 1834 2020.21 1837.57 Q2018.4 1841.11 2018.4 1848.24 Q2018.4 1855.34 2020.21 1858.91 Q2022.04 1862.45 2025.65 1862.45 Q2029.28 1862.45 2031.09 1858.91 Q2032.92 1855.34 2032.92 1848.24 Q2032.92 1841.11 2031.09 1837.57 Q2029.28 1834 2025.65 1834 M2025.65 1830.3 Q2031.46 1830.3 2034.51 1834.9 Q2037.59 1839.49 2037.59 1848.24 Q2037.59 1856.96 2034.51 1861.57 Q2031.46 1866.15 2025.65 1866.15 Q2019.84 1866.15 2016.76 1861.57 Q2013.7 1856.96 2013.7 1848.24 Q2013.7 1839.49 2016.76 1834.9 Q2019.84 1830.3 2025.65 1830.3 Z" fill="#000000" fill-rule="evenodd" fill-opacity="1" /><polyline clip-path="url(#clip202)" style="stroke:#000000; stroke-linecap:butt; stroke-linejoin:round; stroke-width:2; stroke-opacity:0.1; fill:none" points="
  542.018,1800.78 2295.55,1800.78 
  "/>
<polyline clip-path="url(#clip202)" style="stroke:#000000; stroke-linecap:butt; stroke-linejoin:round; stroke-width:2; stroke-opacity:0.1; fill:none" points="
  542.018,1435.46 2295.55,1435.46 
  "/>
<polyline clip-path="url(#clip202)" style="stroke:#000000; stroke-linecap:butt; stroke-linejoin:round; stroke-width:2; stroke-opacity:0.1; fill:none" points="
  542.018,1070.14 2295.55,1070.14 
  "/>
<polyline clip-path="url(#clip202)" style="stroke:#000000; stroke-linecap:butt; stroke-linejoin:round; stroke-width:2; stroke-opacity:0.1; fill:none" points="
  542.018,704.82 2295.55,704.82 
  "/>
<polyline clip-path="url(#clip202)" style="stroke:#000000; stroke-linecap:butt; stroke-linejoin:round; stroke-width:2; stroke-opacity:0.1; fill:none" points="
  542.018,339.5 2295.55,339.5 
  "/>
<polyline clip-path="url(#clip200)" style="stroke:#000000; stroke-linecap:butt; stroke-linejoin:round; stroke-width:4; stroke-opacity:1; fill:none" points="
  542.018,1800.78 542.018,47.2441 
  "/>
<polyline clip-path="url(#clip200)" style="stroke:#000000; stroke-linecap:butt; stroke-linejoin:round; stroke-width:4; stroke-opacity:1; fill:none" points="
  542.018,1800.78 555.577,1800.78 
  "/>
<polyline clip-path="url(#clip200)" style="stroke:#000000; stroke-linecap:butt; stroke-linejoin:round; stroke-width:4; stroke-opacity:1; fill:none" points="
  542.018,1435.46 555.577,1435.46 
  "/>
<polyline clip-path="url(#clip200)" style="stroke:#000000; stroke-linecap:butt; stroke-linejoin:round; stroke-width:4; stroke-opacity:1; fill:none" points="
  542.018,1070.14 555.577,1070.14 
  "/>
<polyline clip-path="url(#clip200)" style="stroke:#000000; stroke-linecap:butt; stroke-linejoin:round; stroke-width:4; stroke-opacity:1; fill:none" points="
  542.018,704.82 555.577,704.82 
  "/>
<polyline clip-path="url(#clip200)" style="stroke:#000000; stroke-linecap:butt; stroke-linejoin:round; stroke-width:4; stroke-opacity:1; fill:none" points="
  542.018,339.5 555.577,339.5 
  "/>
<path clip-path="url(#clip200)" d="M394.754 1801.23 L424.43 1801.23 L424.43 1805.17 L394.754 1805.17 L394.754 1801.23 Z" fill="#000000" fill-rule="evenodd" fill-opacity="1" /><path clip-path="url(#clip200)" d="M434.569 1783.5 L452.925 1783.5 L452.925 1787.43 L438.851 1787.43 L438.851 1795.91 Q439.87 1795.56 440.888 1795.4 Q441.907 1795.21 442.926 1795.21 Q448.713 1795.21 452.092 1798.38 Q455.472 1801.55 455.472 1806.97 Q455.472 1812.55 452 1815.65 Q448.527 1818.73 442.208 1818.73 Q440.032 1818.73 437.764 1818.36 Q435.518 1817.99 433.111 1817.25 L433.111 1812.55 Q435.194 1813.68 437.416 1814.24 Q439.638 1814.8 442.115 1814.8 Q446.12 1814.8 448.458 1812.69 Q450.796 1810.58 450.796 1806.97 Q450.796 1803.36 448.458 1801.25 Q446.12 1799.15 442.115 1799.15 Q440.24 1799.15 438.365 1799.56 Q436.514 1799.98 434.569 1800.86 L434.569 1783.5 Z" fill="#000000" fill-rule="evenodd" fill-opacity="1" /><path clip-path="url(#clip200)" d="M464.685 1812.18 L469.569 1812.18 L469.569 1818.06 L464.685 1818.06 L464.685 1812.18 Z" fill="#000000" fill-rule="evenodd" fill-opacity="1" /><path clip-path="url(#clip200)" d="M489.754 1786.58 Q486.143 1786.58 484.314 1790.14 Q482.509 1793.68 482.509 1800.81 Q482.509 1807.92 484.314 1811.49 Q486.143 1815.03 489.754 1815.03 Q493.388 1815.03 495.194 1811.49 Q497.022 1807.92 497.022 1800.81 Q497.022 1793.68 495.194 1790.14 Q493.388 1786.58 489.754 1786.58 M489.754 1782.87 Q495.564 1782.87 498.62 1787.48 Q501.698 1792.06 501.698 1800.81 Q501.698 1809.54 498.62 1814.15 Q495.564 1818.73 489.754 1818.73 Q483.944 1818.73 480.865 1814.15 Q477.81 1809.54 477.81 1800.81 Q477.81 1792.06 480.865 1787.48 Q483.944 1782.87 489.754 1782.87 Z" fill="#000000" fill-rule="evenodd" fill-opacity="1" /><path clip-path="url(#clip200)" d="M395.75 1435.91 L425.426 1435.91 L425.426 1439.85 L395.75 1439.85 L395.75 1435.91 Z" fill="#000000" fill-rule="evenodd" fill-opacity="1" /><path clip-path="url(#clip200)" d="M439.546 1448.8 L455.865 1448.8 L455.865 1452.74 L433.921 1452.74 L433.921 1448.8 Q436.583 1446.05 441.166 1441.42 Q445.773 1436.77 446.953 1435.42 Q449.199 1432.9 450.078 1431.17 Q450.981 1429.41 450.981 1427.72 Q450.981 1424.96 449.037 1423.23 Q447.115 1421.49 444.013 1421.49 Q441.814 1421.49 439.361 1422.25 Q436.93 1423.02 434.152 1424.57 L434.152 1419.85 Q436.976 1418.71 439.43 1418.13 Q441.884 1417.55 443.921 1417.55 Q449.291 1417.55 452.486 1420.24 Q455.68 1422.92 455.68 1427.42 Q455.68 1429.55 454.87 1431.47 Q454.083 1433.36 451.976 1435.96 Q451.398 1436.63 448.296 1439.85 Q445.194 1443.04 439.546 1448.8 Z" fill="#000000" fill-rule="evenodd" fill-opacity="1" /><path clip-path="url(#clip200)" d="M465.68 1446.86 L470.564 1446.86 L470.564 1452.74 L465.68 1452.74 L465.68 1446.86 Z" fill="#000000" fill-rule="evenodd" fill-opacity="1" /><path clip-path="url(#clip200)" d="M480.796 1418.18 L499.152 1418.18 L499.152 1422.11 L485.078 1422.11 L485.078 1430.59 Q486.097 1430.24 487.115 1430.08 Q488.134 1429.89 489.152 1429.89 Q494.939 1429.89 498.319 1433.06 Q501.698 1436.23 501.698 1441.65 Q501.698 1447.23 498.226 1450.33 Q494.754 1453.41 488.435 1453.41 Q486.259 1453.41 483.99 1453.04 Q481.745 1452.67 479.337 1451.93 L479.337 1447.23 Q481.421 1448.36 483.643 1448.92 Q485.865 1449.48 488.342 1449.48 Q492.347 1449.48 494.684 1447.37 Q497.022 1445.26 497.022 1441.65 Q497.022 1438.04 494.684 1435.93 Q492.347 1433.83 488.342 1433.83 Q486.467 1433.83 484.592 1434.24 Q482.74 1434.66 480.796 1435.54 L480.796 1418.18 Z" fill="#000000" fill-rule="evenodd" fill-opacity="1" /><path clip-path="url(#clip200)" d="M444.523 1055.94 Q440.912 1055.94 439.083 1059.5 Q437.277 1063.04 437.277 1070.17 Q437.277 1077.28 439.083 1080.85 Q440.912 1084.39 444.523 1084.39 Q448.157 1084.39 449.963 1080.85 Q451.791 1077.28 451.791 1070.17 Q451.791 1063.04 449.963 1059.5 Q448.157 1055.94 444.523 1055.94 M444.523 1052.23 Q450.333 1052.23 453.388 1056.84 Q456.467 1061.42 456.467 1070.17 Q456.467 1078.9 453.388 1083.51 Q450.333 1088.09 444.523 1088.09 Q438.713 1088.09 435.634 1083.51 Q432.578 1078.9 432.578 1070.17 Q432.578 1061.42 435.634 1056.84 Q438.713 1052.23 444.523 1052.23 Z" fill="#000000" fill-rule="evenodd" fill-opacity="1" /><path clip-path="url(#clip200)" d="M464.685 1081.54 L469.569 1081.54 L469.569 1087.42 L464.685 1087.42 L464.685 1081.54 Z" fill="#000000" fill-rule="evenodd" fill-opacity="1" /><path clip-path="url(#clip200)" d="M489.754 1055.94 Q486.143 1055.94 484.314 1059.5 Q482.509 1063.04 482.509 1070.17 Q482.509 1077.28 484.314 1080.85 Q486.143 1084.39 489.754 1084.39 Q493.388 1084.39 495.194 1080.85 Q497.022 1077.28 497.022 1070.17 Q497.022 1063.04 495.194 1059.5 Q493.388 1055.94 489.754 1055.94 M489.754 1052.23 Q495.564 1052.23 498.62 1056.84 Q501.698 1061.42 501.698 1070.17 Q501.698 1078.9 498.62 1083.51 Q495.564 1088.09 489.754 1088.09 Q483.944 1088.09 480.865 1083.51 Q477.81 1078.9 477.81 1070.17 Q477.81 1061.42 480.865 1056.84 Q483.944 1052.23 489.754 1052.23 Z" fill="#000000" fill-rule="evenodd" fill-opacity="1" /><path clip-path="url(#clip200)" d="M439.546 718.165 L455.865 718.165 L455.865 722.1 L433.921 722.1 L433.921 718.165 Q436.583 715.41 441.166 710.78 Q445.773 706.128 446.953 704.785 Q449.199 702.262 450.078 700.526 Q450.981 698.767 450.981 697.077 Q450.981 694.322 449.037 692.586 Q447.115 690.85 444.013 690.85 Q441.814 690.85 439.361 691.614 Q436.93 692.378 434.152 693.929 L434.152 689.206 Q436.976 688.072 439.43 687.494 Q441.884 686.915 443.921 686.915 Q449.291 686.915 452.486 689.6 Q455.68 692.285 455.68 696.776 Q455.68 698.905 454.87 700.827 Q454.083 702.725 451.976 705.317 Q451.398 705.989 448.296 709.206 Q445.194 712.401 439.546 718.165 Z" fill="#000000" fill-rule="evenodd" fill-opacity="1" /><path clip-path="url(#clip200)" d="M465.68 716.22 L470.564 716.22 L470.564 722.1 L465.68 722.1 L465.68 716.22 Z" fill="#000000" fill-rule="evenodd" fill-opacity="1" /><path clip-path="url(#clip200)" d="M480.796 687.54 L499.152 687.54 L499.152 691.475 L485.078 691.475 L485.078 699.947 Q486.097 699.6 487.115 699.438 Q488.134 699.253 489.152 699.253 Q494.939 699.253 498.319 702.424 Q501.698 705.595 501.698 711.012 Q501.698 716.591 498.226 719.692 Q494.754 722.771 488.435 722.771 Q486.259 722.771 483.99 722.401 Q481.745 722.03 479.337 721.29 L479.337 716.591 Q481.421 717.725 483.643 718.28 Q485.865 718.836 488.342 718.836 Q492.347 718.836 494.684 716.729 Q497.022 714.623 497.022 711.012 Q497.022 707.401 494.684 705.294 Q492.347 703.188 488.342 703.188 Q486.467 703.188 484.592 703.605 Q482.74 704.021 480.796 704.901 L480.796 687.54 Z" fill="#000000" fill-rule="evenodd" fill-opacity="1" /><path clip-path="url(#clip200)" d="M434.569 322.22 L452.925 322.22 L452.925 326.155 L438.851 326.155 L438.851 334.627 Q439.87 334.28 440.888 334.118 Q441.907 333.933 442.926 333.933 Q448.713 333.933 452.092 337.104 Q455.472 340.275 455.472 345.692 Q455.472 351.271 452 354.373 Q448.527 357.451 442.208 357.451 Q440.032 357.451 437.764 357.081 Q435.518 356.711 433.111 355.97 L433.111 351.271 Q435.194 352.405 437.416 352.961 Q439.638 353.516 442.115 353.516 Q446.12 353.516 448.458 351.41 Q450.796 349.303 450.796 345.692 Q450.796 342.081 448.458 339.974 Q446.12 337.868 442.115 337.868 Q440.24 337.868 438.365 338.285 Q436.514 338.701 434.569 339.581 L434.569 322.22 Z" fill="#000000" fill-rule="evenodd" fill-opacity="1" /><path clip-path="url(#clip200)" d="M464.685 350.9 L469.569 350.9 L469.569 356.78 L464.685 356.78 L464.685 350.9 Z" fill="#000000" fill-rule="evenodd" fill-opacity="1" /><path clip-path="url(#clip200)" d="M489.754 325.299 Q486.143 325.299 484.314 328.863 Q482.509 332.405 482.509 339.535 Q482.509 346.641 484.314 350.206 Q486.143 353.748 489.754 353.748 Q493.388 353.748 495.194 350.206 Q497.022 346.641 497.022 339.535 Q497.022 332.405 495.194 328.863 Q493.388 325.299 489.754 325.299 M489.754 321.595 Q495.564 321.595 498.62 326.201 Q501.698 330.785 501.698 339.535 Q501.698 348.261 498.62 352.868 Q495.564 357.451 489.754 357.451 Q483.944 357.451 480.865 352.868 Q477.81 348.261 477.81 339.535 Q477.81 330.785 480.865 326.201 Q483.944 321.595 489.754 321.595 Z" fill="#000000" fill-rule="evenodd" fill-opacity="1" /><polyline clip-path="url(#clip202)" style="stroke:#1e90ff; stroke-linecap:butt; stroke-linejoin:round; stroke-width:4; stroke-opacity:1; fill:none" points="
  1973.94,1304.16 1970.34,1307.93 1969.73,1308.56 1965.94,1312.46 1965.46,1312.95 1961.55,1316.92 1961.12,1317.35 1957.15,1321.31 1956.71,1321.74 1952.76,1325.63 
  1952.24,1326.14 1948.36,1329.89 1947.69,1330.53 1943.97,1334.08 1943.07,1334.93 1939.57,1338.21 1938.38,1339.32 1935.18,1342.28 1933.61,1343.72 1930.78,1346.29 
  1928.77,1348.11 1926.39,1350.24 1923.84,1352.51 1921.99,1354.14 1918.83,1356.9 1917.6,1357.97 1913.74,1361.3 1913.2,1361.76 1908.81,1365.48 1908.56,1365.69 
  1904.41,1369.15 1903.29,1370.09 1900.02,1372.77 1897.92,1374.48 1895.62,1376.34 1892.46,1378.88 1891.23,1379.86 1886.91,1383.27 1886.83,1383.33 1882.44,1386.75 
  1881.25,1387.67 1878.05,1390.11 1875.48,1392.06 1873.65,1393.44 1869.6,1396.46 1869.26,1396.71 1864.86,1399.94 1863.61,1400.85 1860.47,1403.12 1857.5,1405.25 
  1856.07,1406.26 1851.68,1409.35 1851.27,1409.64 1847.28,1412.4 1844.9,1414.03 1842.89,1415.41 1838.49,1418.37 1838.41,1418.43 1834.1,1421.29 1831.76,1422.82 
  1829.7,1424.17 1825.31,1427.01 1824.98,1427.22 1820.91,1429.81 1818.03,1431.61 1816.52,1432.56 1812.12,1435.28 1810.93,1436.01 1807.73,1437.96 1803.66,1440.4 
  1803.33,1440.6 1798.94,1443.2 1796.19,1444.8 1794.54,1445.76 1790.15,1448.28 1788.54,1449.19 1785.75,1450.77 1781.36,1453.22 1780.69,1453.59 1776.96,1455.63 
  1772.62,1457.98 1772.57,1458.01 1768.17,1460.35 1764.31,1462.38 1763.78,1462.66 1759.38,1464.93 1755.76,1466.77 1754.99,1467.16 1750.6,1469.36 1746.94,1471.17 
  1746.2,1471.53 1741.81,1473.66 1737.82,1475.56 1737.41,1475.76 1733.02,1477.82 1728.62,1479.85 1728.39,1479.96 1724.23,1481.85 1719.83,1483.82 1718.62,1484.35 
  1715.44,1485.75 1711.04,1487.65 1708.46,1488.75 1706.65,1489.51 1702.25,1491.35 1697.89,1493.14 1697.86,1493.15 1693.46,1494.93 1689.07,1496.67 1686.83,1497.54 
  1684.67,1498.38 1680.28,1500.05 1675.88,1501.7 1675.26,1501.93 1671.49,1503.32 1667.09,1504.9 1663.08,1506.33 1662.7,1506.46 1658.3,1507.98 1653.91,1509.48 
  1650.19,1510.72 1649.51,1510.94 1645.12,1512.38 1640.72,1513.79 1636.48,1515.12 1636.33,1515.16 1631.93,1516.51 1627.54,1517.83 1623.15,1519.11 1621.76,1519.51 
  1618.75,1520.37 1614.36,1521.6 1609.96,1522.8 1605.83,1523.91 1605.57,1523.98 1601.17,1525.12 1596.78,1526.23 1592.38,1527.32 1588.31,1528.3 1587.99,1528.38 
  1583.59,1529.41 1579.2,1530.41 1574.8,1531.38 1570.41,1532.33 1568.65,1532.69 1566.01,1533.24 1561.62,1534.13 1557.22,1534.99 1552.83,1535.83 1548.43,1536.63 
  1545.84,1537.09 1544.04,1537.41 1539.64,1538.16 1535.25,1538.88 1530.85,1539.57 1526.46,1540.24 1522.06,1540.88 1517.69,1541.48 1517.67,1541.49 1513.27,1542.07 
  1508.88,1542.62 1504.49,1543.15 1500.09,1543.65 1495.7,1544.13 1491.3,1544.57 1486.91,1544.99 1482.51,1545.38 1478.12,1545.74 1476.29,1545.88 1473.72,1546.07 
  1469.33,1546.38 1464.93,1546.66 1460.54,1546.91 1456.14,1547.14 1451.75,1547.33 1447.35,1547.5 1442.96,1547.64 1438.56,1547.76 1434.17,1547.84 1429.77,1547.9 
  1425.38,1547.93 1420.98,1547.93 1416.59,1547.9 1412.19,1547.85 1407.8,1547.77 1403.4,1547.66 1399.01,1547.52 1394.61,1547.35 1390.22,1547.15 1385.82,1546.93 
  1381.43,1546.68 1377.04,1546.4 1372.64,1546.09 1369.96,1545.88 1368.25,1545.75 1363.85,1545.38 1359.46,1544.98 1355.06,1544.56 1350.67,1544.1 1346.27,1543.62 
  1341.88,1543.1 1337.48,1542.56 1333.09,1541.99 1329.44,1541.48 1328.69,1541.38 1324.3,1540.75 1319.9,1540.08 1315.51,1539.39 1311.11,1538.67 1306.72,1537.91 
  1302.32,1537.13 1302.13,1537.09 1297.93,1536.31 1293.53,1535.46 1289.14,1534.58 1284.74,1533.67 1280.35,1532.73 1280.19,1532.69 1275.95,1531.76 1271.56,1530.75 
  1267.16,1529.71 1262.77,1528.64 1261.41,1528.3 1258.37,1527.54 1253.98,1526.4 1249.59,1525.23 1245.19,1524.03 1244.76,1523.91 1240.8,1522.79 1236.4,1521.52 
  1232.01,1520.21 1229.7,1519.51 1227.61,1518.87 1223.22,1517.5 1218.82,1516.09 1215.86,1515.12 1214.43,1514.64 1210.03,1513.16 1205.64,1511.65 1203.01,1510.72 
  1201.24,1510.09 1196.85,1508.5 1192.45,1506.88 1190.99,1506.33 1188.06,1505.21 1183.66,1503.51 1179.67,1501.93 1179.27,1501.77 1174.87,1499.99 1170.48,1498.17 
  1168.97,1497.54 1166.08,1496.32 1161.69,1494.42 1158.79,1493.14 1157.29,1492.48 1152.9,1490.5 1149.08,1488.75 1148.5,1488.48 1144.11,1486.42 1139.79,1484.35 
  1139.71,1484.32 1135.32,1482.17 1130.92,1479.98 1130.89,1479.96 1126.53,1477.74 1122.33,1475.56 1122.14,1475.46 1117.74,1473.14 1114.08,1471.17 1113.35,1470.77 
  1108.95,1468.35 1106.13,1466.77 1104.56,1465.89 1100.16,1463.37 1098.45,1462.38 1095.77,1460.81 1091.37,1458.2 1091.01,1457.98 1086.98,1455.54 1083.81,1453.59 
  1082.58,1452.83 1078.19,1450.06 1076.82,1449.19 1073.79,1447.25 1070.04,1444.8 1069.4,1444.38 1065,1441.45 1063.45,1440.4 1060.61,1438.47 1057.04,1436.01 
  1056.21,1435.43 1051.82,1432.34 1050.81,1431.61 1047.42,1429.18 1044.74,1427.22 1043.03,1425.96 1038.81,1422.82 1038.63,1422.69 1034.24,1419.35 1033.05,1418.43 
  1029.84,1415.94 1027.42,1414.03 1025.45,1412.47 1021.92,1409.64 1021.05,1408.94 1016.66,1405.33 1016.56,1405.25 1012.26,1401.65 1011.32,1400.85 1007.87,1397.9 
  1006.2,1396.46 1003.47,1394.08 1001.19,1392.06 999.08,1390.18 996.291,1387.67 994.685,1386.2 991.498,1383.27 990.291,1382.15 986.809,1378.88 985.896,1378.01 
  982.219,1374.48 981.501,1373.79 977.724,1370.09 977.106,1369.47 973.323,1365.69 972.711,1365.07 969.012,1361.3 968.316,1360.58 964.788,1356.9 963.922,1355.99 
  960.649,1352.51 959.527,1351.3 956.593,1348.11 955.132,1346.51 952.616,1343.72 950.737,1341.61 948.718,1339.32 946.342,1336.6 944.895,1334.93 941.947,1331.48 
  941.145,1330.53 937.553,1326.24 937.468,1326.14 933.862,1321.74 933.158,1320.87 930.326,1317.35 928.763,1315.38 926.856,1312.95 924.368,1309.75 923.451,1308.56 
  920.109,1304.16 919.973,1303.98 916.833,1299.77 915.578,1298.06 913.618,1295.37 911.184,1291.99 910.462,1290.98 907.365,1286.58 906.789,1285.76 904.328,1282.19 
  902.394,1279.35 901.346,1277.8 898.42,1273.4 897.999,1272.76 895.55,1269.01 893.604,1265.98 892.733,1264.61 889.969,1260.22 889.21,1258.99 887.257,1255.82 
  884.815,1251.79 884.595,1251.43 881.985,1247.03 880.42,1244.35 879.424,1242.64 876.912,1238.24 876.025,1236.67 874.447,1233.85 872.03,1229.45 871.63,1228.71 
  869.66,1225.06 867.334,1220.66 867.235,1220.47 865.056,1216.27 862.841,1211.91 862.82,1211.87 860.63,1207.48 858.483,1203.08 858.446,1203.01 856.379,1198.69 
  854.317,1194.29 854.051,1193.72 852.297,1189.9 850.318,1185.5 849.656,1184.01 848.38,1181.11 846.483,1176.71 845.261,1173.83 844.625,1172.32 842.807,1167.92 
  841.027,1163.53 840.866,1163.12 839.287,1159.13 837.585,1154.74 836.472,1151.8 835.92,1150.35 834.294,1145.95 832.703,1141.56 832.077,1139.78 831.15,1137.16 
  829.634,1132.77 828.153,1128.37 827.682,1126.94 826.708,1123.98 825.298,1119.58 823.924,1115.19 823.287,1113.1 822.584,1110.79 821.279,1106.4 820.008,1102 
  818.892,1098.04 818.77,1097.61 817.567,1093.21 816.398,1088.82 815.261,1084.42 814.498,1081.39 814.157,1080.03 813.086,1075.63 812.048,1071.24 811.042,1066.84 
  810.103,1062.61 810.067,1062.45 809.125,1058.05 808.215,1053.66 807.336,1049.26 806.488,1044.87 805.708,1040.67 805.671,1040.47 804.886,1036.08 804.131,1031.68 
  803.407,1027.29 802.713,1022.9 802.049,1018.5 801.416,1014.11 801.313,1013.36 800.812,1009.71 800.239,1005.32 799.695,1000.92 799.181,996.526 798.696,992.131 
  798.241,987.737 797.815,983.342 797.418,978.947 797.05,974.552 796.918,972.842 796.711,970.157 796.401,965.763 796.12,961.368 795.867,956.973 795.643,952.578 
  795.447,948.183 795.28,943.788 795.141,939.394 795.03,934.999 794.948,930.604 794.893,926.209 794.867,921.814 794.869,917.419 794.898,913.025 794.956,908.63 
  795.041,904.235 795.155,899.84 795.296,895.445 795.464,891.051 795.661,886.656 795.885,882.261 796.137,877.866 796.416,873.471 796.723,869.076 796.918,866.511 
  797.058,864.682 797.42,860.287 797.81,855.892 798.228,851.497 798.673,847.102 799.145,842.707 799.645,838.313 800.173,833.918 800.728,829.523 801.311,825.128 
  801.313,825.113 801.922,820.733 802.56,816.338 803.226,811.944 803.92,807.549 804.641,803.154 805.39,798.759 805.708,796.958 806.167,794.364 806.972,789.97 
  807.805,785.575 808.665,781.18 809.554,776.785 810.103,774.15 810.47,772.39 811.416,767.995 812.389,763.601 813.39,759.206 814.419,754.811 814.498,754.483 
  815.477,750.416 816.564,746.021 817.678,741.626 818.821,737.232 818.892,736.965 819.994,732.837 821.195,728.442 822.425,724.047 823.287,721.034 823.684,719.652 
  824.972,715.258 826.29,710.863 827.635,706.468 827.682,706.319 829.012,702.073 830.418,697.678 831.853,693.283 832.077,692.609 833.319,688.889 834.814,684.494 
  836.338,680.099 836.472,679.721 837.895,675.704 839.481,671.309 840.866,667.538 841.096,666.914 842.745,662.52 844.422,658.125 845.261,655.963 846.132,653.73 
  847.872,649.335 849.643,644.94 849.656,644.909 851.448,640.545 853.283,636.151 854.051,634.339 855.151,631.756 857.05,627.361 858.446,624.182 858.982,622.966 
  860.947,618.571 862.841,614.403 862.944,614.177 864.976,609.782 867.039,605.387 867.235,604.974 869.138,600.992 871.269,596.597 871.63,595.862 873.436,592.202 
  875.635,587.808 876.025,587.039 877.871,583.413 880.14,579.018 880.42,578.483 882.447,574.623 884.787,570.228 884.815,570.176 887.165,565.833 889.21,562.106 
  889.578,561.439 892.029,557.044 893.604,554.253 894.515,552.649 897.04,548.254 897.999,546.603 899.602,543.859 902.201,539.465 902.394,539.142 904.841,535.07 
  906.789,531.867 907.518,530.675 910.235,526.28 911.184,524.763 912.992,521.885 915.578,517.818 915.788,517.49 918.627,513.096 919.973,511.034 921.506,508.701 
  924.368,504.392 924.425,504.306 927.39,499.911 928.763,497.897 930.396,495.516 933.158,491.531 933.443,491.121 936.537,486.727 937.553,485.299 939.675,482.332 
  941.947,479.188 942.857,477.937 946.085,473.542 946.342,473.195 949.361,469.147 950.737,467.32 952.683,464.752 955.132,461.552 956.052,460.358 959.469,455.963 
  959.527,455.889 962.937,451.568 963.922,450.333 966.455,447.173 968.316,444.874 970.024,442.778 972.711,439.51 973.644,438.384 977.106,434.238 977.315,433.989 
  981.042,429.594 981.501,429.058 984.824,425.199 985.896,423.966 988.661,420.804 990.291,418.958 992.555,416.409 994.685,414.032 996.506,412.015 999.08,409.185 
  1000.52,407.62 1003.47,404.417 1004.58,403.225 1007.87,399.725 1008.72,398.83 1012.26,395.106 1012.91,394.435 1016.66,390.56 1017.17,390.04 1021.05,386.084 
  1021.49,385.646 1025.45,381.678 1025.88,381.251 1029.84,377.338 1030.34,376.856 1034.24,373.065 1034.87,372.461 1038.63,368.856 1039.47,368.066 1043.03,364.709 
  1044.14,363.672 1047.42,360.625 1048.89,359.277 1051.82,356.6 1053.71,354.882 1056.21,352.635 1058.62,350.487 1060.61,348.727 1063.61,346.092 1065,344.876 
  1068.68,341.697 1069.4,341.08 1073.79,337.339 1073.84,337.303 1078.19,333.654 1079.09,332.908 1082.58,330.022 1084.43,328.513 1086.98,326.441 1089.86,324.118 
  1091.37,322.91 1095.39,319.723 1095.77,319.429 1100.16,315.999 1101.03,315.328 1104.56,312.618 1106.77,310.934 1108.95,309.285 1112.62,306.539 1113.35,305.997 
  1117.74,302.757 1118.58,302.144 1122.14,299.564 1124.66,297.749 1126.53,296.416 1130.86,293.354 1130.92,293.31 1135.32,290.252 1137.2,288.959 1139.71,287.235 
  1143.66,284.565 1144.11,284.26 1148.5,281.33 1150.26,280.17 1152.9,278.441 1157.01,275.775 1157.29,275.592 1161.69,272.786 1163.91,271.38 1166.08,270.019 
  1170.48,267.291 1170.98,266.985 1174.87,264.605 1178.21,262.591 1179.27,261.955 1183.66,259.346 1185.62,258.196 1188.06,256.775 1192.45,254.24 1193.22,253.801 
  1196.85,251.745 1201.02,249.406 1201.24,249.284 1205.64,246.863 1209.04,245.011 1210.03,244.476 1214.43,242.127 1217.29,240.616 1218.82,239.812 1223.22,237.533 
  1225.78,236.222 1227.61,235.289 1232.01,233.08 1234.53,231.827 1236.4,230.906 1240.8,228.766 1243.57,227.432 1245.19,226.659 1249.59,224.587 1252.92,223.037 
  1253.98,222.547 1258.37,220.542 1262.6,218.642 1262.77,218.567 1267.16,216.628 1271.56,214.72 1272.66,214.247 1275.95,212.845 1280.35,211.001 1283.13,209.853 
  1284.74,209.19 1289.14,207.41 1293.53,205.661 1294.05,205.458 1297.93,203.945 1302.32,202.259 1305.49,201.063 1306.72,200.603 1311.11,198.98 1315.51,197.386 
  1317.52,196.668 1319.9,195.823 1324.3,194.29 1328.69,192.787 1330.22,192.273 1333.09,191.315 1337.48,189.872 1341.88,188.458 1343.71,187.878 1346.27,187.075 
  1350.67,185.721 1355.06,184.397 1358.15,183.484 1359.46,183.101 1363.85,181.835 1368.25,180.598 1372.64,179.389 1373.76,179.089 1377.04,178.21 1381.43,177.06 
  1385.82,175.937 1390.22,174.843 1390.83,174.694 1394.61,173.779 1399.01,172.742 1403.4,171.734 1407.8,170.754 1409.89,170.299 1412.19,169.802 1416.59,168.878 
  1420.98,167.983 1425.38,167.115 1429.77,166.275 1431.78,165.904 1434.17,165.463 1438.56,164.68 1442.96,163.924 1447.35,163.195 1451.75,162.495 1456.14,161.822 
  1458.26,161.51 1460.54,161.176 1464.93,160.559 1469.33,159.969 1473.72,159.407 1478.12,158.873 1482.51,158.365 1486.91,157.886 1491.3,157.434 1494.6,157.115 
  1495.7,157.009 1500.09,156.613 1504.49,156.244 1508.88,155.902 1513.27,155.588 1517.67,155.302 1522.06,155.043 1526.46,154.812 1530.85,154.609 1535.25,154.433 
  1539.64,154.285 1544.04,154.165 1548.43,154.073 1552.83,154.008 1557.22,153.971 1561.62,153.963 1566.01,153.982 1570.41,154.029 1574.8,154.105 1579.2,154.209 
  1583.59,154.34 1587.99,154.501 1592.38,154.689 1596.78,154.906 1601.17,155.152 1605.57,155.426 1609.96,155.729 1614.36,156.061 1618.75,156.421 1623.15,156.811 
  1626.34,157.115 1627.54,157.23 1631.93,157.678 1636.33,158.155 1640.72,158.662 1645.12,159.198 1649.51,159.764 1653.91,160.36 1658.3,160.986 1661.81,161.51 
  1662.7,161.642 1667.09,162.328 1671.49,163.045 1675.88,163.792 1680.28,164.57 1684.67,165.379 1687.42,165.904 1689.07,166.219 1693.46,167.09 1697.86,167.993 
  1702.25,168.927 1706.65,169.893 1708.44,170.299 1711.04,170.891 1715.44,171.921 1719.83,172.984 1724.23,174.08 1726.62,174.694 1728.62,175.208 1733.02,176.37 
  1737.41,177.565 1741.81,178.793 1742.84,179.089 1746.2,180.055 1750.6,181.352 1754.99,182.683 1757.57,183.484 1759.38,184.049 1763.78,185.45 1768.17,186.886 
  1771.14,187.878 1772.57,188.358 1776.96,189.866 1781.36,191.41 1783.76,192.273 1785.75,192.99 1790.15,194.608 1794.54,196.263 1795.6,196.668 1798.94,197.956 
  1803.33,199.687 1806.75,201.063 1807.73,201.456 1812.12,203.265 1816.52,205.112 1817.32,205.458 1820.91,207 1825.31,208.927 1827.38,209.853 1829.7,210.896 
  1834.1,212.906 1836.98,214.247 1838.49,214.957 1842.89,217.051 1846.16,218.642 1847.28,219.187 1851.68,221.367 1854.98,223.037 1856.07,223.59 1860.47,225.859 
  1863.46,227.432 1864.86,228.172 1869.26,230.531 1871.63,231.827 1873.65,232.936 1878.05,235.389 1879.51,236.222 1882.44,237.889 1886.83,240.437 1887.14,240.616 
  1891.23,243.037 1894.51,245.011 1895.62,245.684 1900.02,248.384 1901.66,249.406 1904.41,251.135 1908.6,253.801 1908.81,253.938 1913.2,256.796 1915.32,258.196 
  1917.6,259.708 1921.87,262.591 1921.99,262.674 1926.39,265.699 1928.23,266.985 1930.78,268.781 1934.43,271.38 1935.18,271.92 1939.57,275.121 1940.46,275.775 
  1943.97,278.384 1946.34,280.17 1948.36,281.708 1952.07,284.565 1952.76,285.095 1957.15,288.549 1957.67,288.959 1961.55,292.07 1963.13,293.354 1965.94,295.659 
  1968.46,297.749 1970.34,299.318 1973.67,302.144 1974.73,303.048 1978.77,306.539 1979.13,306.851 1983.52,310.73 1983.75,310.934 1987.92,314.688 1988.62,315.328 
  1992.31,318.725 1993.38,319.723 1996.71,322.844 1998.05,324.118 2001.1,327.047 2002.61,328.513 2005.5,331.336 2007.08,332.908 2009.89,335.715 2011.46,337.303 
  2014.28,340.185 2015.75,341.697 2018.68,344.751 2019.95,346.092 2023.07,349.414 2024.07,350.487 2027.47,354.179 2028.11,354.882 2031.86,359.049 2032.07,359.277 
  2035.95,363.672 2036.26,364.029 2039.75,368.066 2040.65,369.124 2043.48,372.461 2045.05,374.336 2047.14,376.856 2049.44,379.67 2050.73,381.251 2053.84,385.129 
  2054.25,385.646 2057.7,390.04 2058.23,390.724 2061.09,394.435 2062.63,396.46 2064.41,398.83 2067.02,402.339 2067.68,403.225 2070.88,407.62 2071.42,408.371 
  2074.02,412.015 2075.81,414.567 2077.1,416.409 2080.12,420.804 2080.21,420.927 2083.09,425.199 2084.6,427.474 2086,429.594 2088.86,433.989 2089,434.202 
  2091.66,438.384 2093.39,441.139 2094.41,442.778 2097.11,447.173 2097.79,448.286 2099.76,451.568 2102.18,455.659 2102.36,455.963 2104.91,460.358 2106.58,463.284 
  2107.41,464.752 2109.86,469.147 2110.97,471.17 2112.27,473.542 2114.63,477.937 2115.37,479.339 2116.94,482.332 2119.21,486.727 2119.76,487.817 2121.43,491.121 
  2123.61,495.516 2124.16,496.634 2125.75,499.911 2127.84,504.306 2128.55,505.822 2129.89,508.701 2131.9,513.096 2132.95,515.421 2133.87,517.49 2135.8,521.885 
  2137.34,525.473 2137.69,526.28 2139.53,530.675 2141.34,535.07 2141.73,536.044 2143.11,539.465 2144.84,543.859 2146.13,547.2 2146.53,548.254 2148.19,552.649 
  2149.81,557.044 2150.52,559.034 2151.39,561.439 2152.93,565.833 2154.44,570.228 2154.92,571.657 2155.91,574.623 2157.35,579.018 2158.75,583.413 2159.31,585.229 
  2160.11,587.808 2161.45,592.202 2162.74,596.597 2163.71,599.96 2164,600.992 2165.23,605.387 2166.43,609.782 2167.59,614.177 2168.1,616.176 2168.72,618.571 
  2169.81,622.966 2170.88,627.361 2171.91,631.756 2172.5,634.36 2172.9,636.151 2173.87,640.545 2174.81,644.94 2175.71,649.335 2176.58,653.73 2176.89,655.373 
  2177.42,658.125 2178.23,662.52 2179.01,666.914 2179.75,671.309 2180.47,675.704 2181.16,680.099 2181.29,680.984 2181.81,684.494 2182.44,688.889 2183.03,693.283 
  2183.6,697.678 2184.14,702.073 2184.64,706.468 2185.12,710.863 2185.57,715.258 2185.68,716.462 2185.99,719.652 2186.38,724.047 2186.74,728.442 2187.07,732.837 
  2187.37,737.232 2187.65,741.626 2187.89,746.021 2188.11,750.416 2188.3,754.811 2188.46,759.206 2188.59,763.601 2188.69,767.995 2188.77,772.39 2188.82,776.785 
  2188.83,781.18 2188.83,785.575 2188.79,789.97 2188.73,794.364 2188.63,798.759 2188.51,803.154 2188.36,807.549 2188.19,811.944 2187.99,816.338 2187.75,820.733 
  2187.5,825.128 2187.21,829.523 2186.9,833.918 2186.55,838.313 2186.18,842.707 2185.79,847.102 2185.68,848.195 2185.36,851.497 2184.91,855.892 2184.43,860.287 
  2183.93,864.682 2183.39,869.076 2182.83,873.471 2182.24,877.866 2181.62,882.261 2181.29,884.533 2180.98,886.656 2180.3,891.051 2179.6,895.445 2178.87,899.84 
  2178.12,904.235 2177.33,908.63 2176.89,911.021 2176.52,913.025 2175.68,917.419 2174.81,921.814 2173.92,926.209 2173,930.604 2172.5,932.904 2172.04,934.999 
  2171.06,939.394 2170.06,943.788 2169.02,948.183 2168.1,951.963 2167.95,952.578 2166.86,956.973 2165.74,961.368 2164.59,965.763 2163.71,969.041 2163.41,970.157 
  2162.2,974.552 2160.96,978.947 2159.7,983.342 2159.31,984.644 2158.4,987.737 2157.08,992.131 2155.72,996.526 2154.92,999.083 2154.34,1000.92 2152.93,1005.32 
  2151.48,1009.71 2150.52,1012.58 2150.01,1014.11 2148.51,1018.5 2146.97,1022.9 2146.13,1025.28 2145.41,1027.29 2143.82,1031.68 2142.19,1036.08 2141.73,1037.3 
  2140.54,1040.47 2138.85,1044.87 2137.34,1048.75 2137.14,1049.26 2135.39,1053.66 2133.61,1058.05 2132.95,1059.67 2131.8,1062.45 2129.95,1066.84 2128.55,1070.13 
  2128.08,1071.24 2126.17,1075.63 2124.23,1080.03 2124.16,1080.2 2122.26,1084.42 2120.25,1088.82 2119.76,1089.88 2118.21,1093.21 2116.14,1097.61 2115.37,1099.22 
  2114.03,1102 2111.89,1106.4 2110.97,1108.26 2109.72,1110.79 2107.51,1115.19 2106.58,1117.02 2105.26,1119.58 2102.99,1123.98 2102.18,1125.51 2100.67,1128.37 
  2098.32,1132.77 2097.79,1133.76 2095.93,1137.16 2093.51,1141.56 2093.39,1141.77 2091.05,1145.95 2089,1149.58 2088.56,1150.35 2086.02,1154.74 2084.6,1157.17 
  2083.45,1159.13 2080.84,1163.53 2080.21,1164.59 2078.19,1167.92 2075.81,1171.82 2075.51,1172.32 2072.78,1176.71 2071.42,1178.88 2070.01,1181.11 2067.21,1185.5 
  2067.02,1185.79 2064.36,1189.9 2062.63,1192.53 2061.47,1194.29 2058.54,1198.69 2058.23,1199.14 2055.56,1203.08 2053.84,1205.6 2052.55,1207.48 2049.49,1211.87 
  2049.44,1211.94 2046.38,1216.27 2045.05,1218.14 2043.23,1220.66 2040.65,1224.22 2040.04,1225.06 2036.8,1229.45 2036.26,1230.18 2033.51,1233.85 2031.86,1236.03 
  2030.18,1238.24 2027.47,1241.77 2026.8,1242.64 2023.37,1247.03 2023.07,1247.41 2019.89,1251.43 2018.68,1252.94 2016.36,1255.82 2014.28,1258.37 2012.78,1260.22 
  2009.89,1263.71 2009.14,1264.61 2005.5,1268.96 2005.46,1269.01 2001.72,1273.4 2001.1,1274.12 1997.92,1277.8 1996.71,1279.19 1994.07,1282.19 1992.31,1284.18 
  1990.16,1286.58 1987.92,1289.08 1986.2,1290.98 1983.52,1293.91 1982.17,1295.37 1979.13,1298.66 1978.09,1299.77 1974.73,1303.33 1973.94,1304.16 
  "/>
<path clip-path="url(#clip200)" d="
M1890.11 209.375 L2214.09 209.375 L2214.09 105.695 L1890.11 105.695  Z
  " fill="#ffffff" fill-rule="evenodd" fill-opacity="1"/>
<polyline clip-path="url(#clip200)" style="stroke:#000000; stroke-linecap:butt; stroke-linejoin:round; stroke-width:4; stroke-opacity:1; fill:none" points="
  1890.11,209.375 2214.09,209.375 2214.09,105.695 1890.11,105.695 1890.11,209.375 
  "/>
<polyline clip-path="url(#clip200)" style="stroke:#1e90ff; stroke-linecap:butt; stroke-linejoin:round; stroke-width:4; stroke-opacity:1; fill:none" points="
  1917.26,157.535 2080.19,157.535 
  "/>
<path clip-path="url(#clip200)" d="M2121.19 177.223 Q2119.39 181.852 2117.67 183.264 Q2115.96 184.676 2113.09 184.676 L2109.69 184.676 L2109.69 181.112 L2112.19 181.112 Q2113.95 181.112 2114.92 180.278 Q2115.89 179.445 2117.07 176.343 L2117.83 174.399 L2107.35 148.889 L2111.86 148.889 L2119.96 169.167 L2128.07 148.889 L2132.58 148.889 L2121.19 177.223 Z" fill="#000000" fill-rule="evenodd" fill-opacity="1" /><path clip-path="url(#clip200)" d="M2139.87 170.88 L2147.51 170.88 L2147.51 144.515 L2139.2 146.181 L2139.2 141.922 L2147.46 140.255 L2152.14 140.255 L2152.14 170.88 L2159.78 170.88 L2159.78 174.815 L2139.87 174.815 L2139.87 170.88 Z" fill="#000000" fill-rule="evenodd" fill-opacity="1" /></svg>
