<?xml version="1.0" encoding="utf-8"?>
<svg xmlns="http://www.w3.org/2000/svg" xmlns:xlink="http://www.w3.org/1999/xlink" width="672" height="480" viewBox="0 0 2688 1920">
<defs>
  <clipPath id="clip740">
    <rect x="0" y="0" width="2688" height="1920"/>
  </clipPath>
</defs>
<path clip-path="url(#clip740)" d="
M0 1920 L2688 1920 L2688 0 L0 0  Z
  " fill="#ffffff" fill-rule="evenodd" fill-opacity="1"/>
<defs>
  <clipPath id="clip741">
    <rect x="537" y="0" width="1883" height="1883"/>
  </clipPath>
</defs>
<defs>
  <clipPath id="clip742">
    <rect x="47" y="127" width="1251" height="466"/>
  </clipPath>
</defs>
<path clip-path="url(#clip742)" d="
M-242.658 704.49 L-298.021 484.439 L1.36171 407.678 L426.164 447.68 L380.412 654.048 L182.323 790.596 L-242.658 704.49  Z
  " fill="#ffffff" fill-rule="evenodd" fill-opacity="1"/>
<polyline clip-path="url(#clip740)" style="stroke:#000000; stroke-linecap:butt; stroke-linejoin:round; stroke-width:4; stroke-opacity:1; fill:none" points="
  499.609,492.661 724.849,583.934 
  "/>
<polyline clip-path="url(#clip740)" style="stroke:#000000; stroke-linecap:butt; stroke-linejoin:round; stroke-width:4; stroke-opacity:1; fill:none" points="
  724.849,583.934 829.836,439.192 
  "/>
<polyline clip-path="url(#clip740)" style="stroke:#000000; stroke-linecap:butt; stroke-linejoin:round; stroke-width:4; stroke-opacity:1; fill:none" points="
  499.609,492.661 470.267,259.408 
  "/>
<path clip-path="url(#clip740)" d="M634.995 49.9314 Q634.995 41.7081 631.592 37.0496 Q628.23 32.3505 622.316 32.3505 Q616.401 32.3505 612.999 37.0496 Q609.636 41.7081 609.636 49.9314 Q609.636 58.1548 612.999 62.8538 Q616.401 67.5124 622.316 67.5124 Q628.23 67.5124 631.592 62.8538 Q634.995 58.1548 634.995 49.9314 M609.636 34.0924 Q611.986 30.0415 615.551 28.0971 Q619.156 26.1121 624.139 26.1121 Q632.402 26.1121 637.547 32.6746 Q642.732 39.2371 642.732 49.9314 Q642.732 60.6258 637.547 67.1883 Q632.402 73.7508 624.139 73.7508 Q619.156 73.7508 615.551 71.8063 Q611.986 69.8214 609.636 65.7705 L609.636 72.576 L602.142 72.576 L602.142 9.54393 L609.636 9.54393 L609.636 34.0924 Z" fill="#000000" fill-rule="evenodd" fill-opacity="1" /><path clip-path="url(#clip740)" d="M672.668 32.4315 Q666.673 32.4315 663.189 37.1306 Q659.706 41.7891 659.706 49.9314 Q659.706 58.0738 663.149 62.7728 Q666.633 67.4314 672.668 67.4314 Q678.623 67.4314 682.107 62.7323 Q685.591 58.0333 685.591 49.9314 Q685.591 41.8701 682.107 37.1711 Q678.623 32.4315 672.668 32.4315 M672.668 26.1121 Q682.391 26.1121 687.94 32.4315 Q693.49 38.7509 693.49 49.9314 Q693.49 61.0714 687.94 67.4314 Q682.391 73.7508 672.668 73.7508 Q662.906 73.7508 657.356 67.4314 Q651.847 61.0714 651.847 49.9314 Q651.847 38.7509 657.356 32.4315 Q662.906 26.1121 672.668 26.1121 Z" fill="#000000" fill-rule="evenodd" fill-opacity="1" /><path clip-path="url(#clip740)" d="M741.007 27.2059 L724.601 49.2833 L741.858 72.576 L733.067 72.576 L719.861 54.752 L706.655 72.576 L697.865 72.576 L715.486 48.8377 L699.364 27.2059 L708.154 27.2059 L720.186 43.369 L732.217 27.2059 L741.007 27.2059 Z" fill="#000000" fill-rule="evenodd" fill-opacity="1" /><polyline clip-path="url(#clip742)" style="stroke:#e26f46; stroke-linecap:butt; stroke-linejoin:round; stroke-width:4; stroke-opacity:1; fill:none" points="
  509.122,485.356 721.539,569.925 
  "/>
<polyline clip-path="url(#clip742)" style="stroke:#3da44d; stroke-linecap:butt; stroke-linejoin:round; stroke-width:4; stroke-opacity:1; fill:none" points="
  509.122,485.356 635.816,378.366 
  "/>
<polyline clip-path="url(#clip742)" style="stroke:#c271d2; stroke-linecap:butt; stroke-linejoin:round; stroke-width:4; stroke-opacity:1; fill:none" points="
  509.122,485.356 483.172,265.86 
  "/>
<polyline clip-path="url(#clip742)" style="stroke:#ac8d18; stroke-linecap:butt; stroke-linejoin:round; stroke-width:4; stroke-opacity:1; fill:none" points="
  721.539,569.925 730.695,330.927 
  "/>
<polyline clip-path="url(#clip742)" style="stroke:#00a9ad; stroke-linecap:butt; stroke-linejoin:round; stroke-width:4; stroke-opacity:1; fill:none" points="
  721.539,569.925 821.825,435.186 
  "/>
<polyline clip-path="url(#clip742)" style="stroke:#ed5d92; stroke-linecap:butt; stroke-linejoin:round; stroke-width:4; stroke-opacity:1; fill:none" points="
  635.816,378.366 821.825,435.186 
  "/>
<polyline clip-path="url(#clip742)" style="stroke:#c68125; stroke-linecap:butt; stroke-linejoin:round; stroke-width:4; stroke-opacity:1; fill:none" points="
  635.816,378.366 631.163,187.45 
  "/>
<polyline clip-path="url(#clip742)" style="stroke:#00a98d; stroke-linecap:butt; stroke-linejoin:round; stroke-width:4; stroke-opacity:1; fill:none" points="
  483.172,265.86 730.695,330.927 
  "/>
<polyline clip-path="url(#clip742)" style="stroke:#8e971d; stroke-linecap:butt; stroke-linejoin:round; stroke-width:4; stroke-opacity:1; fill:none" points="
  483.172,265.86 631.163,187.45 
  "/>
<polyline clip-path="url(#clip742)" style="stroke:#00a8cb; stroke-linecap:butt; stroke-linejoin:round; stroke-width:4; stroke-opacity:1; fill:none" points="
  821.825,435.186 843.505,228.567 
  "/>
<polyline clip-path="url(#clip742)" style="stroke:#9b7fe8; stroke-linecap:butt; stroke-linejoin:round; stroke-width:4; stroke-opacity:1; fill:none" points="
  843.505,228.567 631.163,187.45 
  "/>
<polyline clip-path="url(#clip742)" style="stroke:#608cf6; stroke-linecap:butt; stroke-linejoin:round; stroke-width:4; stroke-opacity:1; fill:none" points="
  843.505,228.567 730.695,330.927 
  "/>
<defs>
  <clipPath id="clip743">
    <rect x="1391" y="127" width="1251" height="466"/>
  </clipPath>
</defs>
<path clip-path="url(#clip743)" d="
M1101.34 704.49 L1045.98 484.439 L1345.36 407.678 L1770.16 447.68 L1724.41 654.048 L1526.32 790.596 L1101.34 704.49  Z
  " fill="#ffffff" fill-rule="evenodd" fill-opacity="1"/>
<polyline clip-path="url(#clip740)" style="stroke:#000000; stroke-linecap:butt; stroke-linejoin:round; stroke-width:4; stroke-opacity:1; fill:none" points="
  1843.61,492.661 2068.85,583.934 
  "/>
<polyline clip-path="url(#clip740)" style="stroke:#000000; stroke-linecap:butt; stroke-linejoin:round; stroke-width:4; stroke-opacity:1; fill:none" points="
  2068.85,583.934 2173.84,439.192 
  "/>
<polyline clip-path="url(#clip740)" style="stroke:#000000; stroke-linecap:butt; stroke-linejoin:round; stroke-width:4; stroke-opacity:1; fill:none" points="
  1843.61,492.661 1814.27,259.408 
  "/>
<path clip-path="url(#clip740)" d="M1913.86 65.7705 L1913.86 89.8329 L1906.36 89.8329 L1906.36 27.2059 L1913.86 27.2059 L1913.86 34.0924 Q1916.21 30.0415 1919.77 28.0971 Q1923.38 26.1121 1928.36 26.1121 Q1936.62 26.1121 1941.77 32.6746 Q1946.95 39.2371 1946.95 49.9314 Q1946.95 60.6258 1941.77 67.1883 Q1936.62 73.7508 1928.36 73.7508 Q1923.38 73.7508 1919.77 71.8063 Q1916.21 69.8214 1913.86 65.7705 M1939.22 49.9314 Q1939.22 41.7081 1935.81 37.0496 Q1932.45 32.3505 1926.54 32.3505 Q1920.62 32.3505 1917.22 37.0496 Q1913.86 41.7081 1913.86 49.9314 Q1913.86 58.1548 1917.22 62.8538 Q1920.62 67.5124 1926.54 67.5124 Q1932.45 67.5124 1935.81 62.8538 Q1939.22 58.1548 1939.22 49.9314 Z" fill="#000000" fill-rule="evenodd" fill-opacity="1" /><path clip-path="url(#clip740)" d="M1985.6 34.1734 Q1984.34 33.4443 1982.84 33.1202 Q1981.39 32.7556 1979.6 32.7556 Q1973.28 32.7556 1969.88 36.8875 Q1966.52 40.9789 1966.52 48.6757 L1966.52 72.576 L1959.02 72.576 L1959.02 27.2059 L1966.52 27.2059 L1966.52 34.2544 Q1968.87 30.1225 1972.64 28.1376 Q1976.4 26.1121 1981.79 26.1121 Q1982.56 26.1121 1983.49 26.2337 Q1984.42 26.3147 1985.56 26.5172 L1985.6 34.1734 Z" fill="#000000" fill-rule="evenodd" fill-opacity="1" /><path clip-path="url(#clip740)" d="M1993.42 27.2059 L2000.87 27.2059 L2000.87 72.576 L1993.42 72.576 L1993.42 27.2059 M1993.42 9.54393 L2000.87 9.54393 L2000.87 18.9825 L1993.42 18.9825 L1993.42 9.54393 Z" fill="#000000" fill-rule="evenodd" fill-opacity="1" /><path clip-path="url(#clip740)" d="M2045.39 28.5427 L2045.39 35.5912 Q2042.23 33.9709 2038.83 33.1607 Q2035.42 32.3505 2031.78 32.3505 Q2026.23 32.3505 2023.43 34.0519 Q2020.68 35.7533 2020.68 39.156 Q2020.68 41.7486 2022.66 43.2475 Q2024.65 44.7058 2030.64 46.0426 L2033.2 46.6097 Q2041.14 48.3111 2044.46 51.4303 Q2047.82 54.509 2047.82 60.0587 Q2047.82 66.3781 2042.8 70.0644 Q2037.81 73.7508 2029.06 73.7508 Q2025.42 73.7508 2021.45 73.0216 Q2017.52 72.3329 2013.14 70.9151 L2013.14 63.2184 Q2017.28 65.3654 2021.29 66.4591 Q2025.3 67.5124 2029.23 67.5124 Q2034.49 67.5124 2037.33 65.73 Q2040.16 63.9071 2040.16 60.6258 Q2040.16 57.5877 2038.1 55.9673 Q2036.07 54.3469 2029.15 52.8481 L2026.55 52.2405 Q2019.63 50.7821 2016.55 47.7845 Q2013.47 44.7463 2013.47 39.4801 Q2013.47 33.0797 2018.01 29.5959 Q2022.54 26.1121 2030.89 26.1121 Q2035.02 26.1121 2038.66 26.7198 Q2042.31 27.3274 2045.39 28.5427 Z" fill="#000000" fill-rule="evenodd" fill-opacity="1" /><path clip-path="url(#clip740)" d="M2095.01 35.9153 Q2097.81 30.8922 2101.7 28.5022 Q2105.59 26.1121 2110.85 26.1121 Q2117.94 26.1121 2121.79 31.0947 Q2125.64 36.0368 2125.64 45.1919 L2125.64 72.576 L2118.14 72.576 L2118.14 45.4349 Q2118.14 38.913 2115.83 35.7533 Q2113.53 32.5936 2108.79 32.5936 Q2102.99 32.5936 2099.63 36.4419 Q2096.27 40.2903 2096.27 46.9338 L2096.27 72.576 L2088.77 72.576 L2088.77 45.4349 Q2088.77 38.8725 2086.47 35.7533 Q2084.16 32.5936 2079.34 32.5936 Q2073.62 32.5936 2070.26 36.4824 Q2066.9 40.3308 2066.9 46.9338 L2066.9 72.576 L2059.41 72.576 L2059.41 27.2059 L2066.9 27.2059 L2066.9 34.2544 Q2069.45 30.082 2073.02 28.0971 Q2076.58 26.1121 2081.48 26.1121 Q2086.42 26.1121 2089.87 28.6237 Q2093.35 31.1352 2095.01 35.9153 Z" fill="#000000" fill-rule="evenodd" fill-opacity="1" /><polyline clip-path="url(#clip743)" style="stroke:#e26f46; stroke-linecap:butt; stroke-linejoin:round; stroke-width:4; stroke-opacity:1; fill:none" points="
  1853.12,485.356 2065.54,569.925 
  "/>
<polyline clip-path="url(#clip743)" style="stroke:#3da44d; stroke-linecap:butt; stroke-linejoin:round; stroke-width:4; stroke-opacity:1; fill:none" points="
  1853.12,485.356 1979.82,378.366 
  "/>
<polyline clip-path="url(#clip743)" style="stroke:#c271d2; stroke-linecap:butt; stroke-linejoin:round; stroke-width:4; stroke-opacity:1; fill:none" points="
  2065.54,569.925 2165.82,435.186 
  "/>
<polyline clip-path="url(#clip743)" style="stroke:#ac8d18; stroke-linecap:butt; stroke-linejoin:round; stroke-width:4; stroke-opacity:1; fill:none" points="
  1979.82,378.366 2165.82,435.186 
  "/>
<polyline clip-path="url(#clip743)" style="stroke:#00a9ad; stroke-linecap:butt; stroke-linejoin:round; stroke-width:4; stroke-opacity:1; fill:none" points="
  1853.12,485.356 1827.17,265.86 
  "/>
<polyline clip-path="url(#clip743)" style="stroke:#ed5d92; stroke-linecap:butt; stroke-linejoin:round; stroke-width:4; stroke-opacity:1; fill:none" points="
  1979.82,378.366 1975.16,187.45 
  "/>
<polyline clip-path="url(#clip743)" style="stroke:#c68125; stroke-linecap:butt; stroke-linejoin:round; stroke-width:4; stroke-opacity:1; fill:none" points="
  1827.17,265.86 1975.16,187.45 
  "/>
<polyline clip-path="url(#clip743)" style="stroke:#00a98d; stroke-linecap:butt; stroke-linejoin:round; stroke-width:4; stroke-opacity:1; fill:none" points="
  2065.54,569.925 1827.17,265.86 
  "/>
<polyline clip-path="url(#clip743)" style="stroke:#8e971d; stroke-linecap:butt; stroke-linejoin:round; stroke-width:4; stroke-opacity:1; fill:none" points="
  2165.82,435.186 1975.16,187.45 
  "/>
<defs>
  <clipPath id="clip744">
    <rect x="47" y="767" width="1251" height="466"/>
  </clipPath>
</defs>
<path clip-path="url(#clip744)" d="
M-242.658 1344.49 L-298.021 1124.44 L1.36171 1047.68 L426.164 1087.68 L380.412 1294.05 L182.323 1430.6 L-242.658 1344.49  Z
  " fill="#ffffff" fill-rule="evenodd" fill-opacity="1"/>
<polyline clip-path="url(#clip740)" style="stroke:#000000; stroke-linecap:butt; stroke-linejoin:round; stroke-width:4; stroke-opacity:1; fill:none" points="
  499.609,1132.66 724.849,1223.93 
  "/>
<polyline clip-path="url(#clip740)" style="stroke:#000000; stroke-linecap:butt; stroke-linejoin:round; stroke-width:4; stroke-opacity:1; fill:none" points="
  724.849,1223.93 829.836,1079.19 
  "/>
<polyline clip-path="url(#clip740)" style="stroke:#000000; stroke-linecap:butt; stroke-linejoin:round; stroke-width:4; stroke-opacity:1; fill:none" points="
  499.609,1132.66 470.267,899.408 
  "/>
<path clip-path="url(#clip740)" d="M443.124 654.324 L443.124 667.206 L458.477 667.206 L458.477 672.999 L443.124 672.999 L443.124 697.628 Q443.124 703.178 444.623 704.758 Q446.162 706.338 450.821 706.338 L458.477 706.338 L458.477 712.576 L450.821 712.576 Q442.192 712.576 438.911 709.376 Q435.63 706.135 435.63 697.628 L435.63 672.999 L430.161 672.999 L430.161 667.206 L435.63 667.206 L435.63 654.324 L443.124 654.324 Z" fill="#000000" fill-rule="evenodd" fill-opacity="1" /><path clip-path="url(#clip740)" d="M507.088 688.028 L507.088 691.673 L472.817 691.673 Q473.303 699.37 477.435 703.421 Q481.608 707.431 489.021 707.431 Q493.315 707.431 497.325 706.378 Q501.376 705.325 505.346 703.218 L505.346 710.267 Q501.335 711.968 497.122 712.86 Q492.91 713.751 488.575 713.751 Q477.719 713.751 471.359 707.431 Q465.039 701.112 465.039 690.337 Q465.039 679.197 471.035 672.675 Q477.07 666.112 487.279 666.112 Q496.434 666.112 501.74 672.026 Q507.088 677.9 507.088 688.028 M499.634 685.84 Q499.553 679.723 496.191 676.077 Q492.869 672.432 487.36 672.432 Q481.121 672.432 477.354 675.956 Q473.627 679.48 473.06 685.881 L499.634 685.84 Z" fill="#000000" fill-rule="evenodd" fill-opacity="1" /><path clip-path="url(#clip740)" d="M526.694 654.324 L526.694 667.206 L542.047 667.206 L542.047 672.999 L526.694 672.999 L526.694 697.628 Q526.694 703.178 528.193 704.758 Q529.732 706.338 534.391 706.338 L542.047 706.338 L542.047 712.576 L534.391 712.576 Q525.762 712.576 522.481 709.376 Q519.2 706.135 519.2 697.628 L519.2 672.999 L513.731 672.999 L513.731 667.206 L519.2 667.206 L519.2 654.324 L526.694 654.324 Z" fill="#000000" fill-rule="evenodd" fill-opacity="1" /><path clip-path="url(#clip740)" d="M578.141 674.173 Q576.885 673.444 575.386 673.12 Q573.928 672.756 572.145 672.756 Q565.826 672.756 562.423 676.888 Q559.061 680.979 559.061 688.676 L559.061 712.576 L551.567 712.576 L551.567 667.206 L559.061 667.206 L559.061 674.254 Q561.41 670.123 565.178 668.138 Q568.945 666.112 574.333 666.112 Q575.102 666.112 576.034 666.234 Q576.966 666.315 578.1 666.517 L578.141 674.173 Z" fill="#000000" fill-rule="evenodd" fill-opacity="1" /><path clip-path="url(#clip740)" d="M606.578 689.769 Q597.544 689.769 594.061 691.835 Q590.577 693.901 590.577 698.884 Q590.577 702.854 593.169 705.203 Q595.802 707.512 600.299 707.512 Q606.497 707.512 610.224 703.137 Q613.991 698.722 613.991 691.43 L613.991 689.769 L606.578 689.769 M621.445 686.691 L621.445 712.576 L613.991 712.576 L613.991 705.689 Q611.439 709.821 607.631 711.806 Q603.823 713.751 598.314 713.751 Q591.346 713.751 587.215 709.862 Q583.123 705.933 583.123 699.37 Q583.123 691.714 588.227 687.825 Q593.372 683.936 603.54 683.936 L613.991 683.936 L613.991 683.207 Q613.991 678.062 610.588 675.267 Q607.226 672.432 601.109 672.432 Q597.22 672.432 593.534 673.363 Q589.848 674.295 586.445 676.158 L586.445 669.272 Q590.536 667.692 594.385 666.922 Q598.233 666.112 601.879 666.112 Q611.723 666.112 616.584 671.216 Q621.445 676.32 621.445 686.691 Z" fill="#000000" fill-rule="evenodd" fill-opacity="1" /><path clip-path="url(#clip740)" d="M674.512 685.192 L674.512 712.576 L667.058 712.576 L667.058 685.435 Q667.058 678.994 664.546 675.794 Q662.035 672.594 657.012 672.594 Q650.976 672.594 647.492 676.442 Q644.008 680.29 644.008 686.934 L644.008 712.576 L636.514 712.576 L636.514 649.544 L644.008 649.544 L644.008 674.254 Q646.682 670.163 650.287 668.138 Q653.933 666.112 658.673 666.112 Q666.491 666.112 670.501 670.973 Q674.512 675.794 674.512 685.192 Z" fill="#000000" fill-rule="evenodd" fill-opacity="1" /><path clip-path="url(#clip740)" d="M728.186 688.028 L728.186 691.673 L693.915 691.673 Q694.402 699.37 698.533 703.421 Q702.706 707.431 710.119 707.431 Q714.413 707.431 718.423 706.378 Q722.474 705.325 726.444 703.218 L726.444 710.267 Q722.434 711.968 718.221 712.86 Q714.008 713.751 709.673 713.751 Q698.817 713.751 692.457 707.431 Q686.138 701.112 686.138 690.337 Q686.138 679.197 692.133 672.675 Q698.169 666.112 708.377 666.112 Q717.532 666.112 722.839 672.026 Q728.186 677.9 728.186 688.028 M720.732 685.84 Q720.651 679.723 717.289 676.077 Q713.967 672.432 708.458 672.432 Q702.22 672.432 698.452 675.956 Q694.726 679.48 694.158 685.881 L720.732 685.84 Z" fill="#000000" fill-rule="evenodd" fill-opacity="1" /><path clip-path="url(#clip740)" d="M770.275 674.092 L770.275 649.544 L777.729 649.544 L777.729 712.576 L770.275 712.576 L770.275 705.77 Q767.925 709.821 764.32 711.806 Q760.755 713.751 755.732 713.751 Q747.509 713.751 742.324 707.188 Q737.179 700.626 737.179 689.931 Q737.179 679.237 742.324 672.675 Q747.509 666.112 755.732 666.112 Q760.755 666.112 764.32 668.097 Q767.925 670.042 770.275 674.092 M744.876 689.931 Q744.876 698.155 748.238 702.854 Q751.641 707.512 757.555 707.512 Q763.469 707.512 766.872 702.854 Q770.275 698.155 770.275 689.931 Q770.275 681.708 766.872 677.05 Q763.469 672.351 757.555 672.351 Q751.641 672.351 748.238 677.05 Q744.876 681.708 744.876 689.931 Z" fill="#000000" fill-rule="evenodd" fill-opacity="1" /><path clip-path="url(#clip740)" d="M819.372 674.173 Q818.116 673.444 816.617 673.12 Q815.159 672.756 813.377 672.756 Q807.057 672.756 803.654 676.888 Q800.292 680.979 800.292 688.676 L800.292 712.576 L792.798 712.576 L792.798 667.206 L800.292 667.206 L800.292 674.254 Q802.642 670.123 806.409 668.138 Q810.176 666.112 815.564 666.112 Q816.334 666.112 817.265 666.234 Q818.197 666.315 819.331 666.517 L819.372 674.173 Z" fill="#000000" fill-rule="evenodd" fill-opacity="1" /><path clip-path="url(#clip740)" d="M842.948 672.432 Q836.953 672.432 833.469 677.131 Q829.985 681.789 829.985 689.931 Q829.985 698.074 833.429 702.773 Q836.912 707.431 842.948 707.431 Q848.903 707.431 852.387 702.732 Q855.871 698.033 855.871 689.931 Q855.871 681.87 852.387 677.171 Q848.903 672.432 842.948 672.432 M842.948 666.112 Q852.67 666.112 858.22 672.432 Q863.77 678.751 863.77 689.931 Q863.77 701.071 858.22 707.431 Q852.67 713.751 842.948 713.751 Q833.185 713.751 827.636 707.431 Q822.127 701.071 822.127 689.931 Q822.127 678.751 827.636 672.432 Q833.185 666.112 842.948 666.112 Z" fill="#000000" fill-rule="evenodd" fill-opacity="1" /><path clip-path="url(#clip740)" d="M913.839 685.192 L913.839 712.576 L906.385 712.576 L906.385 685.435 Q906.385 678.994 903.874 675.794 Q901.362 672.594 896.339 672.594 Q890.303 672.594 886.819 676.442 Q883.336 680.29 883.336 686.934 L883.336 712.576 L875.842 712.576 L875.842 667.206 L883.336 667.206 L883.336 674.254 Q886.009 670.163 889.615 668.138 Q893.26 666.112 898 666.112 Q905.818 666.112 909.829 670.973 Q913.839 675.794 913.839 685.192 Z" fill="#000000" fill-rule="evenodd" fill-opacity="1" /><polyline clip-path="url(#clip744)" style="stroke:#e26f46; stroke-linecap:butt; stroke-linejoin:round; stroke-width:4; stroke-opacity:1; fill:none" points="
  509.122,1125.36 721.539,1209.93 
  "/>
<polyline clip-path="url(#clip744)" style="stroke:#3da44d; stroke-linecap:butt; stroke-linejoin:round; stroke-width:4; stroke-opacity:1; fill:none" points="
  509.122,1125.36 635.816,1018.37 
  "/>
<polyline clip-path="url(#clip744)" style="stroke:#c271d2; stroke-linecap:butt; stroke-linejoin:round; stroke-width:4; stroke-opacity:1; fill:none" points="
  509.122,1125.36 483.172,905.86 
  "/>
<polyline clip-path="url(#clip744)" style="stroke:#ac8d18; stroke-linecap:butt; stroke-linejoin:round; stroke-width:4; stroke-opacity:1; fill:none" points="
  721.539,1209.93 635.816,1018.37 
  "/>
<polyline clip-path="url(#clip744)" style="stroke:#00a9ad; stroke-linecap:butt; stroke-linejoin:round; stroke-width:4; stroke-opacity:1; fill:none" points="
  721.539,1209.93 483.172,905.86 
  "/>
<polyline clip-path="url(#clip744)" style="stroke:#ed5d92; stroke-linecap:butt; stroke-linejoin:round; stroke-width:4; stroke-opacity:1; fill:none" points="
  635.816,1018.37 483.172,905.86 
  "/>
<defs>
  <clipPath id="clip745">
    <rect x="1391" y="767" width="1251" height="466"/>
  </clipPath>
</defs>
<path clip-path="url(#clip745)" d="
M1150.37 1378.06 L1123.03 948.614 L1556.12 920.974 L1789.09 1011.65 L1750.78 1508.97 L1258.78 1606.57 L1150.37 1378.06  Z
  " fill="#ffffff" fill-rule="evenodd" fill-opacity="1"/>
<polyline clip-path="url(#clip740)" style="stroke:#000000; stroke-linecap:butt; stroke-linejoin:round; stroke-width:4; stroke-opacity:1; fill:none" points="
  1869.6,1084.26 1927.05,1205.37 
  "/>
<polyline clip-path="url(#clip740)" style="stroke:#000000; stroke-linecap:butt; stroke-linejoin:round; stroke-width:4; stroke-opacity:1; fill:none" points="
  1927.05,1205.37 2187.81,1153.64 
  "/>
<polyline clip-path="url(#clip740)" style="stroke:#000000; stroke-linecap:butt; stroke-linejoin:round; stroke-width:4; stroke-opacity:1; fill:none" points="
  1869.6,1084.26 1855.11,856.653 
  "/>
<path clip-path="url(#clip740)" d="M1956.39 668.948 L1956.39 675.915 Q1953.23 674.173 1950.03 673.323 Q1946.87 672.432 1943.63 672.432 Q1936.38 672.432 1932.37 677.05 Q1928.36 681.627 1928.36 689.931 Q1928.36 698.236 1932.37 702.854 Q1936.38 707.431 1943.63 707.431 Q1946.87 707.431 1950.03 706.581 Q1953.23 705.689 1956.39 703.948 L1956.39 710.834 Q1953.27 712.292 1949.91 713.022 Q1946.59 713.751 1942.82 713.751 Q1932.57 713.751 1926.54 707.31 Q1920.5 700.869 1920.5 689.931 Q1920.5 678.832 1926.58 672.472 Q1932.69 666.112 1943.31 666.112 Q1946.75 666.112 1950.03 666.841 Q1953.31 667.53 1956.39 668.948 Z" fill="#000000" fill-rule="evenodd" fill-opacity="1" /><path clip-path="url(#clip740)" d="M1986.93 672.432 Q1980.94 672.432 1977.46 677.131 Q1973.97 681.789 1973.97 689.931 Q1973.97 698.074 1977.42 702.773 Q1980.9 707.431 1986.93 707.431 Q1992.89 707.431 1996.37 702.732 Q1999.86 698.033 1999.86 689.931 Q1999.86 681.87 1996.37 677.171 Q1992.89 672.432 1986.93 672.432 M1986.93 666.112 Q1996.66 666.112 2002.21 672.432 Q2007.76 678.751 2007.76 689.931 Q2007.76 701.071 2002.21 707.431 Q1996.66 713.751 1986.93 713.751 Q1977.17 713.751 1971.62 707.431 Q1966.11 701.071 1966.11 689.931 Q1966.11 678.751 1971.62 672.432 Q1977.17 666.112 1986.93 666.112 Z" fill="#000000" fill-rule="evenodd" fill-opacity="1" /><path clip-path="url(#clip740)" d="M2057.83 685.192 L2057.83 712.576 L2050.37 712.576 L2050.37 685.435 Q2050.37 678.994 2047.86 675.794 Q2045.35 672.594 2040.33 672.594 Q2034.29 672.594 2030.81 676.442 Q2027.32 680.29 2027.32 686.934 L2027.32 712.576 L2019.83 712.576 L2019.83 667.206 L2027.32 667.206 L2027.32 674.254 Q2030 670.163 2033.6 668.138 Q2037.25 666.112 2041.99 666.112 Q2049.8 666.112 2053.82 670.973 Q2057.83 675.794 2057.83 685.192 Z" fill="#000000" fill-rule="evenodd" fill-opacity="1" /><path clip-path="url(#clip740)" d="M2111.5 688.028 L2111.5 691.673 L2077.23 691.673 Q2077.72 699.37 2081.85 703.421 Q2086.02 707.431 2093.43 707.431 Q2097.73 707.431 2101.74 706.378 Q2105.79 705.325 2109.76 703.218 L2109.76 710.267 Q2105.75 711.968 2101.53 712.86 Q2097.32 713.751 2092.99 713.751 Q2082.13 713.751 2075.77 707.431 Q2069.45 701.112 2069.45 690.337 Q2069.45 679.197 2075.45 672.675 Q2081.48 666.112 2091.69 666.112 Q2100.85 666.112 2106.15 672.026 Q2111.5 677.9 2111.5 688.028 M2104.05 685.84 Q2103.97 679.723 2100.6 676.077 Q2097.28 672.432 2091.77 672.432 Q2085.53 672.432 2081.77 675.956 Q2078.04 679.48 2077.47 685.881 L2104.05 685.84 Z" fill="#000000" fill-rule="evenodd" fill-opacity="1" /><polyline clip-path="url(#clip745)" style="stroke:#e26f46; stroke-linecap:butt; stroke-linejoin:round; stroke-width:4; stroke-opacity:1; fill:none" points="
  1876.95,1080.04 1932.78,1192.15 
  "/>
<polyline clip-path="url(#clip745)" style="stroke:#3da44d; stroke-linecap:butt; stroke-linejoin:round; stroke-width:4; stroke-opacity:1; fill:none" points="
  1876.95,1080.04 2076.02,1050.62 
  "/>
<polyline clip-path="url(#clip745)" style="stroke:#c271d2; stroke-linecap:butt; stroke-linejoin:round; stroke-width:4; stroke-opacity:1; fill:none" points="
  1876.95,1080.04 1863.94,864.539 
  "/>
<polyline clip-path="url(#clip745)" style="stroke:#ac8d18; stroke-linecap:butt; stroke-linejoin:round; stroke-width:4; stroke-opacity:1; fill:none" points="
  1932.78,1192.15 1863.94,864.539 
  "/>
<polyline clip-path="url(#clip745)" style="stroke:#00a9ad; stroke-linecap:butt; stroke-linejoin:round; stroke-width:4; stroke-opacity:1; fill:none" points="
  2076.02,1050.62 1863.94,864.539 
  "/>
<polyline clip-path="url(#clip745)" style="stroke:#ed5d92; stroke-linecap:butt; stroke-linejoin:round; stroke-width:4; stroke-opacity:1; fill:none" points="
  1924.84,1154.36 1932.47,1152.93 1939.98,1151.39 1947.36,1149.74 1954.59,1148 1961.67,1146.15 1968.58,1144.21 1975.32,1142.19 1981.87,1140.08 1988.23,1137.89 
  1994.39,1135.63 2000.34,1133.29 2006.08,1130.89 2011.59,1128.43 2016.88,1125.92 2021.94,1123.36 2026.77,1120.75 2031.36,1118.1 2035.7,1115.41 2039.81,1112.7 
  2043.68,1109.95 2047.3,1107.19 2050.68,1104.4 2053.81,1101.61 2056.7,1098.8 2059.34,1095.99 2061.75,1093.17 2063.92,1090.36 2065.84,1087.55 2067.54,1084.75 
  2069,1081.97 2070.23,1079.2 2071.24,1076.44 2072.03,1073.71 2072.59,1071 2072.95,1068.32 2073.09,1065.67 2073.02,1063.04 2072.76,1060.45 2072.29,1057.9 
  2071.64,1055.38 2070.79,1052.9 2069.76,1050.46 2068.55,1048.06 2067.17,1045.71 2065.61,1043.4 2063.89,1041.13 2062.01,1038.91 2059.98,1036.74 2057.79,1034.62 
  
  "/>
<polyline clip-path="url(#clip745)" style="stroke:#c68125; stroke-linecap:butt; stroke-linejoin:round; stroke-width:4; stroke-opacity:1; fill:none" points="
  1909.74,1082.51 1915.52,1081.6 1921.22,1080.62 1926.83,1079.57 1932.35,1078.45 1937.76,1077.26 1943.07,1076.02 1948.25,1074.71 1953.31,1073.35 1958.24,1071.93 
  1963.03,1070.46 1967.68,1068.94 1972.18,1067.38 1976.53,1065.77 1980.72,1064.12 1984.75,1062.43 1988.61,1060.71 1992.31,1058.96 1995.84,1057.18 1999.19,1055.37 
  2002.36,1053.54 2005.36,1051.69 2008.19,1049.83 2010.83,1047.94 2013.29,1046.05 2015.57,1044.14 2017.68,1042.23 2019.6,1040.31 2021.34,1038.4 2022.9,1036.48 
  2024.29,1034.56 2025.5,1032.65 2026.54,1030.75 2027.4,1028.85 2028.09,1026.96 2028.61,1025.09 2028.96,1023.23 2029.15,1021.39 2029.18,1019.57 2029.05,1017.76 
  2028.76,1015.98 2028.31,1014.22 2027.72,1012.48 2026.97,1010.77 2026.08,1009.08 2025.05,1007.42 2023.88,1005.79 2022.57,1004.19 2021.13,1002.62 2019.56,1001.08 
  
  "/>
<polyline clip-path="url(#clip745)" style="stroke:#00a98d; stroke-linecap:butt; stroke-linejoin:round; stroke-width:4; stroke-opacity:1; fill:none" points="
  1895.61,1015.26 1899.63,1014.74 1903.61,1014.17 1907.53,1013.56 1911.39,1012.92 1915.19,1012.23 1918.93,1011.51 1922.59,1010.75 1926.18,1009.95 1929.68,1009.13 
  1933.1,1008.27 1936.44,1007.38 1939.67,1006.46 1942.81,1005.51 1945.86,1004.54 1948.8,1003.54 1951.63,1002.52 1954.35,1001.47 1956.97,1000.41 1959.47,999.33 
  1961.85,998.231 1964.12,997.117 1966.27,995.988 1968.3,994.848 1970.21,993.696 1972,992.535 1973.67,991.367 1975.21,990.192 1976.63,989.011 1977.93,987.828 
  1979.1,986.642 1980.14,985.455 1981.07,984.269 1981.87,983.085 1982.55,981.904 1983.11,980.727 1983.54,979.555 1983.86,978.391 1984.06,977.234 1984.14,976.086 
  1984.1,974.948 1983.95,973.821 1983.68,972.707 1983.31,971.605 1982.82,970.517 1982.23,969.444 1981.53,968.386 1980.72,967.345 1979.81,966.321 1978.8,965.316 
  
  "/>
<polyline clip-path="url(#clip745)" style="stroke:#8e971d; stroke-linecap:butt; stroke-linejoin:round; stroke-width:4; stroke-opacity:1; fill:none" points="
  1882.35,952.172 1884.71,951.925 1887.03,951.658 1889.34,951.371 1891.61,951.065 1893.86,950.74 1896.06,950.397 1898.24,950.036 1900.37,949.658 1902.46,949.263 
  1904.51,948.852 1906.51,948.425 1908.47,947.983 1910.37,947.527 1912.22,947.057 1914.02,946.574 1915.76,946.078 1917.44,945.57 1919.06,945.051 1920.62,944.522 
  1922.12,943.982 1923.56,943.434 1924.93,942.877 1926.23,942.312 1927.46,941.74 1928.63,941.162 1929.73,940.578 1930.76,939.99 1931.71,939.396 1932.6,938.8 
  1933.41,938.2 1934.15,937.598 1934.82,936.994 1935.42,936.389 1935.94,935.785 1936.39,935.18 1936.77,934.576 1937.08,933.974 1937.31,933.375 1937.47,932.778 
  1937.56,932.184 1937.58,931.594 1937.52,931.009 1937.4,930.429 1937.21,929.855 1936.95,929.287 1936.62,928.725 1936.22,928.171 1935.76,927.624 1935.23,927.086 
  
  "/>
<polyline clip-path="url(#clip745)" style="stroke:#00a8cb; stroke-linecap:butt; stroke-linejoin:round; stroke-width:4; stroke-opacity:1; fill:none" points="
  1869.89,892.872 1870.66,892.81 1871.42,892.743 1872.17,892.671 1872.91,892.593 1873.65,892.511 1874.37,892.424 1875.09,892.332 1875.79,892.236 1876.49,892.135 
  1877.17,892.03 1877.84,891.92 1878.49,891.807 1879.13,891.689 1879.76,891.568 1880.36,891.443 1880.96,891.315 1881.53,891.183 1882.09,891.047 1882.63,890.909 
  1883.15,890.768 1883.65,890.623 1884.13,890.477 1884.59,890.327 1885.03,890.176 1885.45,890.022 1885.85,889.866 1886.23,889.709 1886.58,889.55 1886.91,889.389 
  1887.22,889.227 1887.51,889.064 1887.77,888.9 1888.01,888.735 1888.23,888.57 1888.42,888.404 1888.58,888.238 1888.73,888.071 1888.84,887.905 1888.94,887.739 
  1889.01,887.574 1889.05,887.409 1889.08,887.245 1889.07,887.082 1889.05,886.92 1888.99,886.759 1888.92,886.599 1888.82,886.441 1888.7,886.285 1888.55,886.131 
  
  "/>
<defs>
  <clipPath id="clip746">
    <rect x="47" y="1407" width="2595" height="466"/>
  </clipPath>
</defs>
<path clip-path="url(#clip746)" d="
M-155.59 2018.06 L-182.928 1588.61 L250.159 1560.97 L483.128 1651.65 L444.819 2148.97 L-47.1868 2246.57 L-155.59 2018.06  Z
  " fill="#ffffff" fill-rule="evenodd" fill-opacity="1"/>
<polyline clip-path="url(#clip740)" style="stroke:#000000; stroke-linecap:butt; stroke-linejoin:round; stroke-width:4; stroke-opacity:1; fill:none" points="
  1197.6,1724.26 1255.05,1845.37 
  "/>
<polyline clip-path="url(#clip740)" style="stroke:#000000; stroke-linecap:butt; stroke-linejoin:round; stroke-width:4; stroke-opacity:1; fill:none" points="
  1255.05,1845.37 1515.81,1793.64 
  "/>
<polyline clip-path="url(#clip740)" style="stroke:#000000; stroke-linecap:butt; stroke-linejoin:round; stroke-width:4; stroke-opacity:1; fill:none" points="
  1197.6,1724.26 1183.11,1496.65 
  "/>
<path clip-path="url(#clip740)" d="M1239.28 1308.54 L1239.28 1315.59 Q1236.12 1313.97 1232.72 1313.16 Q1229.32 1312.35 1225.67 1312.35 Q1220.12 1312.35 1217.33 1314.05 Q1214.57 1315.75 1214.57 1319.16 Q1214.57 1321.75 1216.56 1323.25 Q1218.54 1324.71 1224.54 1326.04 L1227.09 1326.61 Q1235.03 1328.31 1238.35 1331.43 Q1241.71 1334.51 1241.71 1340.06 Q1241.71 1346.38 1236.69 1350.06 Q1231.71 1353.75 1222.96 1353.75 Q1219.31 1353.75 1215.34 1353.02 Q1211.41 1352.33 1207.04 1350.92 L1207.04 1343.22 Q1211.17 1345.37 1215.18 1346.46 Q1219.19 1347.51 1223.12 1347.51 Q1228.39 1347.51 1231.22 1345.73 Q1234.06 1343.91 1234.06 1340.63 Q1234.06 1337.59 1231.99 1335.97 Q1229.97 1334.35 1223.04 1332.85 L1220.45 1332.24 Q1213.52 1330.78 1210.44 1327.78 Q1207.36 1324.75 1207.36 1319.48 Q1207.36 1313.08 1211.9 1309.6 Q1216.44 1306.11 1224.78 1306.11 Q1228.91 1306.11 1232.56 1306.72 Q1236.21 1307.33 1239.28 1308.54 Z" fill="#000000" fill-rule="evenodd" fill-opacity="1" /><path clip-path="url(#clip740)" d="M1260.79 1345.77 L1260.79 1369.83 L1253.3 1369.83 L1253.3 1307.21 L1260.79 1307.21 L1260.79 1314.09 Q1263.14 1310.04 1266.71 1308.1 Q1270.31 1306.11 1275.3 1306.11 Q1283.56 1306.11 1288.71 1312.67 Q1293.89 1319.24 1293.89 1329.93 Q1293.89 1340.63 1288.71 1347.19 Q1283.56 1353.75 1275.3 1353.75 Q1270.31 1353.75 1266.71 1351.81 Q1263.14 1349.82 1260.79 1345.77 M1286.15 1329.93 Q1286.15 1321.71 1282.75 1317.05 Q1279.39 1312.35 1273.47 1312.35 Q1267.56 1312.35 1264.16 1317.05 Q1260.79 1321.71 1260.79 1329.93 Q1260.79 1338.15 1264.16 1342.85 Q1267.56 1347.51 1273.47 1347.51 Q1279.39 1347.51 1282.75 1342.85 Q1286.15 1338.15 1286.15 1329.93 Z" fill="#000000" fill-rule="evenodd" fill-opacity="1" /><path clip-path="url(#clip740)" d="M1343.96 1325.19 L1343.96 1352.58 L1336.51 1352.58 L1336.51 1325.43 Q1336.51 1318.99 1333.99 1315.79 Q1331.48 1312.59 1326.46 1312.59 Q1320.42 1312.59 1316.94 1316.44 Q1313.46 1320.29 1313.46 1326.93 L1313.46 1352.58 L1305.96 1352.58 L1305.96 1289.54 L1313.46 1289.54 L1313.46 1314.25 Q1316.13 1310.16 1319.74 1308.14 Q1323.38 1306.11 1328.12 1306.11 Q1335.94 1306.11 1339.95 1310.97 Q1343.96 1315.79 1343.96 1325.19 Z" fill="#000000" fill-rule="evenodd" fill-opacity="1" /><path clip-path="url(#clip740)" d="M1397.63 1328.03 L1397.63 1331.67 L1363.36 1331.67 Q1363.85 1339.37 1367.98 1343.42 Q1372.15 1347.43 1379.57 1347.43 Q1383.86 1347.43 1387.87 1346.38 Q1391.92 1345.32 1395.89 1343.22 L1395.89 1350.27 Q1391.88 1351.97 1387.67 1352.86 Q1383.46 1353.75 1379.12 1353.75 Q1368.26 1353.75 1361.9 1347.43 Q1355.59 1341.11 1355.59 1330.34 Q1355.59 1319.2 1361.58 1312.67 Q1367.62 1306.11 1377.83 1306.11 Q1386.98 1306.11 1392.29 1312.03 Q1397.63 1317.9 1397.63 1328.03 M1390.18 1325.84 Q1390.1 1319.72 1386.74 1316.08 Q1383.42 1312.43 1377.91 1312.43 Q1371.67 1312.43 1367.9 1315.96 Q1364.17 1319.48 1363.61 1325.88 L1390.18 1325.84 Z" fill="#000000" fill-rule="evenodd" fill-opacity="1" /><path clip-path="url(#clip740)" d="M1436.16 1314.17 Q1434.9 1313.44 1433.4 1313.12 Q1431.95 1312.76 1430.16 1312.76 Q1423.84 1312.76 1420.44 1316.89 Q1417.08 1320.98 1417.08 1328.68 L1417.08 1352.58 L1409.58 1352.58 L1409.58 1307.21 L1417.08 1307.21 L1417.08 1314.25 Q1419.43 1310.12 1423.2 1308.14 Q1426.96 1306.11 1432.35 1306.11 Q1433.12 1306.11 1434.05 1306.23 Q1434.98 1306.31 1436.12 1306.52 L1436.16 1314.17 Z" fill="#000000" fill-rule="evenodd" fill-opacity="1" /><path clip-path="url(#clip740)" d="M1480.96 1328.03 L1480.96 1331.67 L1446.69 1331.67 Q1447.18 1339.37 1451.31 1343.42 Q1455.48 1347.43 1462.89 1347.43 Q1467.19 1347.43 1471.2 1346.38 Q1475.25 1345.32 1479.22 1343.22 L1479.22 1350.27 Q1475.21 1351.97 1471 1352.86 Q1466.78 1353.75 1462.45 1353.75 Q1451.59 1353.75 1445.23 1347.43 Q1438.91 1341.11 1438.91 1330.34 Q1438.91 1319.2 1444.91 1312.67 Q1450.94 1306.11 1461.15 1306.11 Q1470.31 1306.11 1475.61 1312.03 Q1480.96 1317.9 1480.96 1328.03 M1473.51 1325.84 Q1473.43 1319.72 1470.06 1316.08 Q1466.74 1312.43 1461.23 1312.43 Q1454.99 1312.43 1451.23 1315.96 Q1447.5 1319.48 1446.93 1325.88 L1473.51 1325.84 Z" fill="#000000" fill-rule="evenodd" fill-opacity="1" /><polyline clip-path="url(#clip746)" style="stroke:#e26f46; stroke-linecap:butt; stroke-linejoin:round; stroke-width:4; stroke-opacity:1; fill:none" points="
  1260.78,1832.15 1269.38,1830.41 1277.83,1828.53 1286.12,1826.52 1294.23,1824.4 1302.17,1822.15 1309.9,1819.8 1317.42,1817.34 1324.73,1814.78 1331.8,1812.13 
  1338.64,1809.39 1345.23,1806.57 1351.57,1803.68 1357.65,1800.72 1363.47,1797.69 1369.02,1794.61 1374.3,1791.48 1379.3,1788.31 1384.03,1785.1 1388.48,1781.85 
  1392.64,1778.58 1396.53,1775.29 1400.14,1771.98 1403.47,1768.65 1406.53,1765.33 1409.3,1762 1411.81,1758.67 1414.05,1755.35 1416.02,1752.05 1417.73,1748.75 
  1419.18,1745.48 1420.37,1742.23 1421.31,1739.01 1422.01,1735.81 1422.47,1732.65 1422.69,1729.52 1422.68,1726.43 1422.45,1723.38 1421.99,1720.38 1421.32,1717.41 
  1420.44,1714.5 1419.36,1711.63 1418.08,1708.81 1416.61,1706.05 1414.94,1703.34 1413.1,1700.68 1411.08,1698.08 1408.89,1695.53 1406.53,1693.05 1404.02,1690.62 
  
  "/>
<polyline clip-path="url(#clip746)" style="stroke:#3da44d; stroke-linecap:butt; stroke-linejoin:round; stroke-width:4; stroke-opacity:1; fill:none" points="
  1260.78,1832.15 1260.45,1824.34 1260.04,1816.34 1259.56,1808.16 1259,1799.82 1258.37,1791.34 1257.66,1782.73 1256.88,1774 1256.03,1765.17 1255.11,1756.26 
  1254.12,1747.29 1253.06,1738.28 1251.93,1729.23 1250.75,1720.18 1249.5,1711.14 1248.19,1702.12 1246.83,1693.14 1245.42,1684.23 1243.96,1675.4 1242.45,1666.66 
  1240.9,1658.03 1239.31,1649.53 1237.68,1641.18 1236.02,1632.98 1234.33,1624.95 1232.62,1617.11 1230.88,1609.46 1229.13,1602.03 1227.36,1594.81 1225.57,1587.83 
  1223.78,1581.08 1221.99,1574.58 1220.19,1568.34 1218.39,1562.36 1216.6,1556.64 1214.81,1551.2 1213.04,1546.03 1211.27,1541.15 1209.53,1536.54 1207.8,1532.22 
  1206.09,1528.18 1204.4,1524.43 1202.74,1520.97 1201.1,1517.79 1199.5,1514.89 1197.92,1512.27 1196.37,1509.93 1194.86,1507.86 1193.38,1506.07 1191.94,1504.54 
  
  "/>
<polyline clip-path="url(#clip746)" style="stroke:#c271d2; stroke-linecap:butt; stroke-linejoin:round; stroke-width:4; stroke-opacity:1; fill:none" points="
  1404.02,1690.62 1404.08,1684.69 1403.94,1678.77 1403.62,1672.86 1403.1,1666.96 1402.39,1661.08 1401.49,1655.22 1400.38,1649.39 1399.09,1643.59 1397.59,1637.83 
  1395.89,1632.11 1394,1626.44 1391.91,1620.83 1389.62,1615.27 1387.13,1609.79 1384.44,1604.37 1381.55,1599.03 1378.47,1593.78 1375.18,1588.61 1371.71,1583.54 
  1368.03,1578.57 1364.17,1573.71 1360.11,1568.96 1355.86,1564.33 1351.43,1559.82 1346.81,1555.45 1342.01,1551.21 1337.03,1547.12 1331.87,1543.18 1326.54,1539.39 
  1321.04,1535.77 1315.38,1532.31 1309.56,1529.02 1303.58,1525.92 1297.46,1523 1291.18,1520.26 1284.77,1517.73 1278.23,1515.39 1271.56,1513.26 1264.77,1511.34 
  1257.87,1509.63 1250.86,1508.14 1243.75,1506.87 1236.55,1505.84 1229.27,1505.03 1221.92,1504.45 1214.5,1504.11 1207.02,1504.01 1199.5,1504.15 1191.94,1504.54 
  
  "/>
<polyline clip-path="url(#clip746)" style="stroke:#ac8d18; stroke-linecap:butt; stroke-linejoin:round; stroke-width:4; stroke-opacity:1; fill:none" points="
  1257.45,1780.28 1266.02,1778.72 1274.45,1777.04 1282.72,1775.25 1290.82,1773.34 1298.74,1771.34 1306.46,1769.23 1313.97,1767.03 1321.26,1764.74 1328.33,1762.37 
  1335.16,1759.92 1341.75,1757.4 1348.08,1754.81 1354.16,1752.16 1359.98,1749.46 1365.53,1746.7 1370.81,1743.9 1375.82,1741.06 1380.55,1738.19 1385.01,1735.28 
  1389.19,1732.35 1393.09,1729.41 1396.71,1726.44 1400.05,1723.47 1403.12,1720.49 1405.92,1717.51 1408.44,1714.54 1410.7,1711.56 1412.68,1708.6 1414.41,1705.66 
  1415.88,1702.73 1417.1,1699.81 1418.06,1696.93 1418.78,1694.07 1419.26,1691.23 1419.51,1688.43 1419.52,1685.67 1419.31,1682.93 1418.88,1680.24 1418.24,1677.59 
  1417.39,1674.98 1416.33,1672.41 1415.07,1669.88 1413.63,1667.41 1411.99,1664.98 1410.17,1662.59 1408.18,1660.26 1406.02,1657.98 1403.69,1655.75 1401.2,1653.58 
  
  "/>
<polyline clip-path="url(#clip746)" style="stroke:#00a9ad; stroke-linecap:butt; stroke-linejoin:round; stroke-width:4; stroke-opacity:1; fill:none" points="
  1250.94,1721.66 1259.02,1720.38 1266.96,1719 1274.77,1717.53 1282.41,1715.97 1289.89,1714.33 1297.19,1712.6 1304.3,1710.79 1311.21,1708.91 1317.91,1706.96 
  1324.4,1704.95 1330.67,1702.87 1336.7,1700.74 1342.5,1698.56 1348.06,1696.33 1353.37,1694.05 1358.43,1691.74 1363.24,1689.39 1367.79,1687.01 1372.08,1684.61 
  1376.12,1682.18 1379.9,1679.73 1383.41,1677.28 1386.67,1674.81 1389.67,1672.33 1392.42,1669.85 1394.9,1667.37 1397.14,1664.9 1399.12,1662.43 1400.86,1659.97 
  1402.36,1657.52 1403.61,1655.09 1404.62,1652.67 1405.41,1650.27 1405.96,1647.9 1406.29,1645.55 1406.4,1643.23 1406.3,1640.94 1405.98,1638.67 1405.46,1636.44 
  1404.73,1634.24 1403.82,1632.08 1402.71,1629.95 1401.41,1627.86 1399.93,1625.81 1398.28,1623.8 1396.46,1621.83 1394.46,1619.9 1392.31,1618.02 1390,1616.17 
  
  "/>
<polyline clip-path="url(#clip746)" style="stroke:#ed5d92; stroke-linecap:butt; stroke-linejoin:round; stroke-width:4; stroke-opacity:1; fill:none" points="
  1240.78,1657.4 1247.78,1656.48 1254.68,1655.48 1261.46,1654.41 1268.12,1653.28 1274.64,1652.09 1281.02,1650.83 1287.25,1649.51 1293.31,1648.14 1299.21,1646.72 
  1304.93,1645.24 1310.46,1643.72 1315.81,1642.16 1320.96,1640.55 1325.91,1638.91 1330.65,1637.24 1335.19,1635.53 1339.52,1633.79 1343.63,1632.03 1347.52,1630.25 
  1351.2,1628.45 1354.66,1626.63 1357.89,1624.79 1360.91,1622.95 1363.7,1621.1 1366.28,1619.24 1368.63,1617.38 1370.76,1615.52 1372.68,1613.66 1374.38,1611.8 
  1375.87,1609.95 1377.15,1608.11 1378.22,1606.27 1379.08,1604.45 1379.74,1602.65 1380.2,1600.86 1380.47,1599.08 1380.54,1597.33 1380.42,1595.6 1380.12,1593.88 
  1379.64,1592.19 1378.97,1590.53 1378.14,1588.89 1377.13,1587.28 1375.96,1585.69 1374.63,1584.13 1373.13,1582.61 1371.49,1581.11 1369.69,1579.64 1367.75,1578.21 
  
  "/>
<polyline clip-path="url(#clip746)" style="stroke:#c68125; stroke-linecap:butt; stroke-linejoin:round; stroke-width:4; stroke-opacity:1; fill:none" points="
  1225.7,1588.33 1230.81,1587.8 1235.85,1587.23 1240.83,1586.61 1245.72,1585.96 1250.52,1585.27 1255.24,1584.54 1259.86,1583.77 1264.37,1582.97 1268.77,1582.14 
  1273.06,1581.28 1277.22,1580.39 1281.27,1579.47 1285.18,1578.52 1288.96,1577.55 1292.6,1576.56 1296.1,1575.54 1299.46,1574.51 1302.67,1573.45 1305.74,1572.38 
  1308.65,1571.3 1311.41,1570.2 1314.01,1569.09 1316.46,1567.97 1318.76,1566.84 1320.89,1565.7 1322.87,1564.56 1324.69,1563.42 1326.36,1562.27 1327.86,1561.12 
  1329.21,1559.97 1330.4,1558.82 1331.44,1557.68 1332.32,1556.54 1333.05,1555.4 1333.63,1554.27 1334.06,1553.15 1334.34,1552.03 1334.48,1550.93 1334.47,1549.83 
  1334.32,1548.75 1334.02,1547.68 1333.59,1546.63 1333.03,1545.58 1332.33,1544.55 1331.5,1543.54 1330.55,1542.55 1329.47,1541.57 1328.26,1540.61 1326.94,1539.67 
  
  "/>
</svg>
