<?xml version="1.0" encoding="utf-8"?>
<svg xmlns="http://www.w3.org/2000/svg" xmlns:xlink="http://www.w3.org/1999/xlink" width="672" height="480" viewBox="0 0 2688 1920">
<defs>
  <clipPath id="clip980">
    <rect x="0" y="0" width="2688" height="1920"/>
  </clipPath>
</defs>
<path clip-path="url(#clip980)" d="
M0 1920 L2688 1920 L2688 0 L0 0  Z
  " fill="#ffffff" fill-rule="evenodd" fill-opacity="1"/>
<defs>
  <clipPath id="clip981">
    <rect x="537" y="0" width="1883" height="1883"/>
  </clipPath>
</defs>
<path clip-path="url(#clip980)" d="
M197.302 1800.78 L2640.76 1800.78 L2640.76 47.2441 L197.302 47.2441  Z
  " fill="#ffffff" fill-rule="evenodd" fill-opacity="1"/>
<defs>
  <clipPath id="clip982">
    <rect x="197" y="47" width="2444" height="1755"/>
  </clipPath>
</defs>
<polyline clip-path="url(#clip982)" style="stroke:#000000; stroke-linecap:butt; stroke-linejoin:round; stroke-width:2; stroke-opacity:0.1; fill:none" points="
  591.89,1800.78 591.89,47.2441 
  "/>
<polyline clip-path="url(#clip982)" style="stroke:#000000; stroke-linecap:butt; stroke-linejoin:round; stroke-width:2; stroke-opacity:0.1; fill:none" points="
  1197.4,1800.78 1197.4,47.2441 
  "/>
<polyline clip-path="url(#clip982)" style="stroke:#000000; stroke-linecap:butt; stroke-linejoin:round; stroke-width:2; stroke-opacity:0.1; fill:none" points="
  1802.91,1800.78 1802.91,47.2441 
  "/>
<polyline clip-path="url(#clip982)" style="stroke:#000000; stroke-linecap:butt; stroke-linejoin:round; stroke-width:2; stroke-opacity:0.1; fill:none" points="
  2408.41,1800.78 2408.41,47.2441 
  "/>
<polyline clip-path="url(#clip980)" style="stroke:#000000; stroke-linecap:butt; stroke-linejoin:round; stroke-width:4; stroke-opacity:1; fill:none" points="
  197.302,1800.78 2640.76,1800.78 
  "/>
<polyline clip-path="url(#clip980)" style="stroke:#000000; stroke-linecap:butt; stroke-linejoin:round; stroke-width:4; stroke-opacity:1; fill:none" points="
  591.89,1800.78 591.89,1781.88 
  "/>
<polyline clip-path="url(#clip980)" style="stroke:#000000; stroke-linecap:butt; stroke-linejoin:round; stroke-width:4; stroke-opacity:1; fill:none" points="
  1197.4,1800.78 1197.4,1781.88 
  "/>
<polyline clip-path="url(#clip980)" style="stroke:#000000; stroke-linecap:butt; stroke-linejoin:round; stroke-width:4; stroke-opacity:1; fill:none" points="
  1802.91,1800.78 1802.91,1781.88 
  "/>
<polyline clip-path="url(#clip980)" style="stroke:#000000; stroke-linecap:butt; stroke-linejoin:round; stroke-width:4; stroke-opacity:1; fill:none" points="
  2408.41,1800.78 2408.41,1781.88 
  "/>
<path clip-path="url(#clip980)" d="M569.274 1834 Q565.663 1834 563.834 1837.57 Q562.029 1841.11 562.029 1848.24 Q562.029 1855.34 563.834 1858.91 Q565.663 1862.45 569.274 1862.45 Q572.908 1862.45 574.714 1858.91 Q576.543 1855.34 576.543 1848.24 Q576.543 1841.11 574.714 1837.57 Q572.908 1834 569.274 1834 M569.274 1830.3 Q575.084 1830.3 578.14 1834.9 Q581.219 1839.49 581.219 1848.24 Q581.219 1856.96 578.14 1861.57 Q575.084 1866.15 569.274 1866.15 Q563.464 1866.15 560.385 1861.57 Q557.33 1856.96 557.33 1848.24 Q557.33 1839.49 560.385 1834.9 Q563.464 1830.3 569.274 1830.3 Z" fill="#000000" fill-rule="evenodd" fill-opacity="1" /><path clip-path="url(#clip980)" d="M589.436 1859.6 L594.32 1859.6 L594.32 1865.48 L589.436 1865.48 L589.436 1859.6 Z" fill="#000000" fill-rule="evenodd" fill-opacity="1" /><path clip-path="url(#clip980)" d="M614.505 1834 Q610.894 1834 609.066 1837.57 Q607.26 1841.11 607.26 1848.24 Q607.26 1855.34 609.066 1858.91 Q610.894 1862.45 614.505 1862.45 Q618.14 1862.45 619.945 1858.91 Q621.774 1855.34 621.774 1848.24 Q621.774 1841.11 619.945 1837.57 Q618.14 1834 614.505 1834 M614.505 1830.3 Q620.316 1830.3 623.371 1834.9 Q626.45 1839.49 626.45 1848.24 Q626.45 1856.96 623.371 1861.57 Q620.316 1866.15 614.505 1866.15 Q608.695 1866.15 605.617 1861.57 Q602.561 1856.96 602.561 1848.24 Q602.561 1839.49 605.617 1834.9 Q608.695 1830.3 614.505 1830.3 Z" fill="#000000" fill-rule="evenodd" fill-opacity="1" /><path clip-path="url(#clip980)" d="M1175.28 1834 Q1171.67 1834 1169.84 1837.57 Q1168.03 1841.11 1168.03 1848.24 Q1168.03 1855.34 1169.84 1858.91 Q1171.67 1862.45 1175.28 1862.45 Q1178.91 1862.45 1180.72 1858.91 Q1182.55 1855.34 1182.55 1848.24 Q1182.55 1841.11 1180.72 1837.57 Q1178.91 1834 1175.28 1834 M1175.28 1830.3 Q1181.09 1830.3 1184.15 1834.9 Q1187.22 1839.49 1187.22 1848.24 Q1187.22 1856.96 1184.15 1861.57 Q1181.09 1866.15 1175.28 1866.15 Q1169.47 1866.15 1166.39 1861.57 Q1163.34 1856.96 1163.34 1848.24 Q1163.34 1839.49 1166.39 1834.9 Q1169.47 1830.3 1175.28 1830.3 Z" fill="#000000" fill-rule="evenodd" fill-opacity="1" /><path clip-path="url(#clip980)" d="M1195.44 1859.6 L1200.33 1859.6 L1200.33 1865.48 L1195.44 1865.48 L1195.44 1859.6 Z" fill="#000000" fill-rule="evenodd" fill-opacity="1" /><path clip-path="url(#clip980)" d="M1210.56 1830.92 L1228.91 1830.92 L1228.91 1834.86 L1214.84 1834.86 L1214.84 1843.33 Q1215.86 1842.98 1216.88 1842.82 Q1217.9 1842.64 1218.91 1842.64 Q1224.7 1842.64 1228.08 1845.81 Q1231.46 1848.98 1231.46 1854.4 Q1231.46 1859.97 1227.99 1863.08 Q1224.52 1866.15 1218.2 1866.15 Q1216.02 1866.15 1213.75 1865.78 Q1211.51 1865.41 1209.1 1864.67 L1209.1 1859.97 Q1211.18 1861.11 1213.4 1861.66 Q1215.63 1862.22 1218.1 1862.22 Q1222.11 1862.22 1224.45 1860.11 Q1226.78 1858.01 1226.78 1854.4 Q1226.78 1850.78 1224.45 1848.68 Q1222.11 1846.57 1218.1 1846.57 Q1216.23 1846.57 1214.35 1846.99 Q1212.5 1847.4 1210.56 1848.28 L1210.56 1830.92 Z" fill="#000000" fill-rule="evenodd" fill-opacity="1" /><path clip-path="url(#clip980)" d="M1770.06 1861.55 L1777.7 1861.55 L1777.7 1835.18 L1769.39 1836.85 L1769.39 1832.59 L1777.65 1830.92 L1782.33 1830.92 L1782.33 1861.55 L1789.97 1861.55 L1789.97 1865.48 L1770.06 1865.48 L1770.06 1861.55 Z" fill="#000000" fill-rule="evenodd" fill-opacity="1" /><path clip-path="url(#clip980)" d="M1799.41 1859.6 L1804.29 1859.6 L1804.29 1865.48 L1799.41 1865.48 L1799.41 1859.6 Z" fill="#000000" fill-rule="evenodd" fill-opacity="1" /><path clip-path="url(#clip980)" d="M1824.48 1834 Q1820.87 1834 1819.04 1837.57 Q1817.23 1841.11 1817.23 1848.24 Q1817.23 1855.34 1819.04 1858.91 Q1820.87 1862.45 1824.48 1862.45 Q1828.11 1862.45 1829.92 1858.91 Q1831.75 1855.34 1831.75 1848.24 Q1831.75 1841.11 1829.92 1837.57 Q1828.11 1834 1824.48 1834 M1824.48 1830.3 Q1830.29 1830.3 1833.35 1834.9 Q1836.42 1839.49 1836.42 1848.24 Q1836.42 1856.96 1833.35 1861.57 Q1830.29 1866.15 1824.48 1866.15 Q1818.67 1866.15 1815.59 1861.57 Q1812.54 1856.96 1812.54 1848.24 Q1812.54 1839.49 1815.59 1834.9 Q1818.67 1830.3 1824.48 1830.3 Z" fill="#000000" fill-rule="evenodd" fill-opacity="1" /><path clip-path="url(#clip980)" d="M2376.06 1861.55 L2383.7 1861.55 L2383.7 1835.18 L2375.39 1836.85 L2375.39 1832.59 L2383.66 1830.92 L2388.33 1830.92 L2388.33 1861.55 L2395.97 1861.55 L2395.97 1865.48 L2376.06 1865.48 L2376.06 1861.55 Z" fill="#000000" fill-rule="evenodd" fill-opacity="1" /><path clip-path="url(#clip980)" d="M2405.42 1859.6 L2410.3 1859.6 L2410.3 1865.48 L2405.42 1865.48 L2405.42 1859.6 Z" fill="#000000" fill-rule="evenodd" fill-opacity="1" /><path clip-path="url(#clip980)" d="M2420.53 1830.92 L2438.89 1830.92 L2438.89 1834.86 L2424.81 1834.86 L2424.81 1843.33 Q2425.83 1842.98 2426.85 1842.82 Q2427.87 1842.64 2428.89 1842.64 Q2434.68 1842.64 2438.05 1845.81 Q2441.43 1848.98 2441.43 1854.4 Q2441.43 1859.97 2437.96 1863.08 Q2434.49 1866.15 2428.17 1866.15 Q2425.99 1866.15 2423.73 1865.78 Q2421.48 1865.41 2419.07 1864.67 L2419.07 1859.97 Q2421.16 1861.11 2423.38 1861.66 Q2425.6 1862.22 2428.08 1862.22 Q2432.08 1862.22 2434.42 1860.11 Q2436.76 1858.01 2436.76 1854.4 Q2436.76 1850.78 2434.42 1848.68 Q2432.08 1846.57 2428.08 1846.57 Q2426.2 1846.57 2424.33 1846.99 Q2422.48 1847.4 2420.53 1848.28 L2420.53 1830.92 Z" fill="#000000" fill-rule="evenodd" fill-opacity="1" /><polyline clip-path="url(#clip982)" style="stroke:#000000; stroke-linecap:butt; stroke-linejoin:round; stroke-width:2; stroke-opacity:0.1; fill:none" points="
  197.302,1630.05 2640.76,1630.05 
  "/>
<polyline clip-path="url(#clip982)" style="stroke:#000000; stroke-linecap:butt; stroke-linejoin:round; stroke-width:2; stroke-opacity:0.1; fill:none" points="
  197.302,1387.85 2640.76,1387.85 
  "/>
<polyline clip-path="url(#clip982)" style="stroke:#000000; stroke-linecap:butt; stroke-linejoin:round; stroke-width:2; stroke-opacity:0.1; fill:none" points="
  197.302,1145.64 2640.76,1145.64 
  "/>
<polyline clip-path="url(#clip982)" style="stroke:#000000; stroke-linecap:butt; stroke-linejoin:round; stroke-width:2; stroke-opacity:0.1; fill:none" points="
  197.302,903.44 2640.76,903.44 
  "/>
<polyline clip-path="url(#clip982)" style="stroke:#000000; stroke-linecap:butt; stroke-linejoin:round; stroke-width:2; stroke-opacity:0.1; fill:none" points="
  197.302,661.237 2640.76,661.237 
  "/>
<polyline clip-path="url(#clip982)" style="stroke:#000000; stroke-linecap:butt; stroke-linejoin:round; stroke-width:2; stroke-opacity:0.1; fill:none" points="
  197.302,419.033 2640.76,419.033 
  "/>
<polyline clip-path="url(#clip982)" style="stroke:#000000; stroke-linecap:butt; stroke-linejoin:round; stroke-width:2; stroke-opacity:0.1; fill:none" points="
  197.302,176.83 2640.76,176.83 
  "/>
<polyline clip-path="url(#clip980)" style="stroke:#000000; stroke-linecap:butt; stroke-linejoin:round; stroke-width:4; stroke-opacity:1; fill:none" points="
  197.302,1800.78 197.302,47.2441 
  "/>
<polyline clip-path="url(#clip980)" style="stroke:#000000; stroke-linecap:butt; stroke-linejoin:round; stroke-width:4; stroke-opacity:1; fill:none" points="
  197.302,1630.05 216.2,1630.05 
  "/>
<polyline clip-path="url(#clip980)" style="stroke:#000000; stroke-linecap:butt; stroke-linejoin:round; stroke-width:4; stroke-opacity:1; fill:none" points="
  197.302,1387.85 216.2,1387.85 
  "/>
<polyline clip-path="url(#clip980)" style="stroke:#000000; stroke-linecap:butt; stroke-linejoin:round; stroke-width:4; stroke-opacity:1; fill:none" points="
  197.302,1145.64 216.2,1145.64 
  "/>
<polyline clip-path="url(#clip980)" style="stroke:#000000; stroke-linecap:butt; stroke-linejoin:round; stroke-width:4; stroke-opacity:1; fill:none" points="
  197.302,903.44 216.2,903.44 
  "/>
<polyline clip-path="url(#clip980)" style="stroke:#000000; stroke-linecap:butt; stroke-linejoin:round; stroke-width:4; stroke-opacity:1; fill:none" points="
  197.302,661.237 216.2,661.237 
  "/>
<polyline clip-path="url(#clip980)" style="stroke:#000000; stroke-linecap:butt; stroke-linejoin:round; stroke-width:4; stroke-opacity:1; fill:none" points="
  197.302,419.033 216.2,419.033 
  "/>
<polyline clip-path="url(#clip980)" style="stroke:#000000; stroke-linecap:butt; stroke-linejoin:round; stroke-width:4; stroke-opacity:1; fill:none" points="
  197.302,176.83 216.2,176.83 
  "/>
<path clip-path="url(#clip980)" d="M49.5521 1630.5 L79.2279 1630.5 L79.2279 1634.44 L49.5521 1634.44 L49.5521 1630.5 Z" fill="#000000" fill-rule="evenodd" fill-opacity="1" /><path clip-path="url(#clip980)" d="M99.3204 1615.85 Q95.7093 1615.85 93.8806 1619.41 Q92.075 1622.95 92.075 1630.08 Q92.075 1637.19 93.8806 1640.76 Q95.7093 1644.3 99.3204 1644.3 Q102.955 1644.3 104.76 1640.76 Q106.589 1637.19 106.589 1630.08 Q106.589 1622.95 104.76 1619.41 Q102.955 1615.85 99.3204 1615.85 M99.3204 1612.14 Q105.131 1612.14 108.186 1616.75 Q111.265 1621.33 111.265 1630.08 Q111.265 1638.81 108.186 1643.42 Q105.131 1648 99.3204 1648 Q93.5102 1648 90.4315 1643.42 Q87.376 1638.81 87.376 1630.08 Q87.376 1621.33 90.4315 1616.75 Q93.5102 1612.14 99.3204 1612.14 Z" fill="#000000" fill-rule="evenodd" fill-opacity="1" /><path clip-path="url(#clip980)" d="M119.482 1641.45 L124.367 1641.45 L124.367 1647.33 L119.482 1647.33 L119.482 1641.45 Z" fill="#000000" fill-rule="evenodd" fill-opacity="1" /><path clip-path="url(#clip980)" d="M147.399 1616.84 L135.593 1635.29 L147.399 1635.29 L147.399 1616.84 M146.172 1612.77 L152.052 1612.77 L152.052 1635.29 L156.982 1635.29 L156.982 1639.18 L152.052 1639.18 L152.052 1647.33 L147.399 1647.33 L147.399 1639.18 L131.797 1639.18 L131.797 1634.67 L146.172 1612.77 Z" fill="#000000" fill-rule="evenodd" fill-opacity="1" /><path clip-path="url(#clip980)" d="M51.6354 1388.3 L81.3112 1388.3 L81.3112 1392.23 L51.6354 1392.23 L51.6354 1388.3 Z" fill="#000000" fill-rule="evenodd" fill-opacity="1" /><path clip-path="url(#clip980)" d="M101.404 1373.64 Q97.7926 1373.64 95.9639 1377.21 Q94.1584 1380.75 94.1584 1387.88 Q94.1584 1394.99 95.9639 1398.55 Q97.7926 1402.09 101.404 1402.09 Q105.038 1402.09 106.843 1398.55 Q108.672 1394.99 108.672 1387.88 Q108.672 1380.75 106.843 1377.21 Q105.038 1373.64 101.404 1373.64 M101.404 1369.94 Q107.214 1369.94 110.269 1374.55 Q113.348 1379.13 113.348 1387.88 Q113.348 1396.61 110.269 1401.21 Q107.214 1405.8 101.404 1405.8 Q95.5935 1405.8 92.5149 1401.21 Q89.4593 1396.61 89.4593 1387.88 Q89.4593 1379.13 92.5149 1374.55 Q95.5935 1369.94 101.404 1369.94 Z" fill="#000000" fill-rule="evenodd" fill-opacity="1" /><path clip-path="url(#clip980)" d="M121.566 1399.25 L126.45 1399.25 L126.45 1405.13 L121.566 1405.13 L121.566 1399.25 Z" fill="#000000" fill-rule="evenodd" fill-opacity="1" /><path clip-path="url(#clip980)" d="M140.663 1401.19 L156.982 1401.19 L156.982 1405.13 L135.038 1405.13 L135.038 1401.19 Q137.7 1398.44 142.283 1393.81 Q146.89 1389.15 148.07 1387.81 Q150.315 1385.29 151.195 1383.55 Q152.098 1381.79 152.098 1380.1 Q152.098 1377.35 150.153 1375.61 Q148.232 1373.88 145.13 1373.88 Q142.931 1373.88 140.478 1374.64 Q138.047 1375.4 135.269 1376.96 L135.269 1372.23 Q138.093 1371.1 140.547 1370.52 Q143.001 1369.94 145.038 1369.94 Q150.408 1369.94 153.602 1372.63 Q156.797 1375.31 156.797 1379.8 Q156.797 1381.93 155.987 1383.85 Q155.2 1385.75 153.093 1388.34 Q152.515 1389.02 149.413 1392.23 Q146.311 1395.43 140.663 1401.19 Z" fill="#000000" fill-rule="evenodd" fill-opacity="1" /><path clip-path="url(#clip980)" d="M99.8065 1131.44 Q96.1954 1131.44 94.3667 1135.01 Q92.5612 1138.55 92.5612 1145.68 Q92.5612 1152.78 94.3667 1156.35 Q96.1954 1159.89 99.8065 1159.89 Q103.441 1159.89 105.246 1156.35 Q107.075 1152.78 107.075 1145.68 Q107.075 1138.55 105.246 1135.01 Q103.441 1131.44 99.8065 1131.44 M99.8065 1127.74 Q105.617 1127.74 108.672 1132.34 Q111.751 1136.93 111.751 1145.68 Q111.751 1154.4 108.672 1159.01 Q105.617 1163.59 99.8065 1163.59 Q93.9963 1163.59 90.9176 1159.01 Q87.8621 1154.4 87.8621 1145.68 Q87.8621 1136.93 90.9176 1132.34 Q93.9963 1127.74 99.8065 1127.74 Z" fill="#000000" fill-rule="evenodd" fill-opacity="1" /><path clip-path="url(#clip980)" d="M119.968 1157.04 L124.853 1157.04 L124.853 1162.92 L119.968 1162.92 L119.968 1157.04 Z" fill="#000000" fill-rule="evenodd" fill-opacity="1" /><path clip-path="url(#clip980)" d="M145.038 1131.44 Q141.427 1131.44 139.598 1135.01 Q137.792 1138.55 137.792 1145.68 Q137.792 1152.78 139.598 1156.35 Q141.427 1159.89 145.038 1159.89 Q148.672 1159.89 150.478 1156.35 Q152.306 1152.78 152.306 1145.68 Q152.306 1138.55 150.478 1135.01 Q148.672 1131.44 145.038 1131.44 M145.038 1127.74 Q150.848 1127.74 153.903 1132.34 Q156.982 1136.93 156.982 1145.68 Q156.982 1154.4 153.903 1159.01 Q150.848 1163.59 145.038 1163.59 Q139.228 1163.59 136.149 1159.01 Q133.093 1154.4 133.093 1145.68 Q133.093 1136.93 136.149 1132.34 Q139.228 1127.74 145.038 1127.74 Z" fill="#000000" fill-rule="evenodd" fill-opacity="1" /><path clip-path="url(#clip980)" d="M101.404 889.238 Q97.7926 889.238 95.9639 892.803 Q94.1584 896.345 94.1584 903.475 Q94.1584 910.581 95.9639 914.146 Q97.7926 917.687 101.404 917.687 Q105.038 917.687 106.843 914.146 Q108.672 910.581 108.672 903.475 Q108.672 896.345 106.843 892.803 Q105.038 889.238 101.404 889.238 M101.404 885.535 Q107.214 885.535 110.269 890.141 Q113.348 894.725 113.348 903.475 Q113.348 912.201 110.269 916.808 Q107.214 921.391 101.404 921.391 Q95.5935 921.391 92.5149 916.808 Q89.4593 912.201 89.4593 903.475 Q89.4593 894.725 92.5149 890.141 Q95.5935 885.535 101.404 885.535 Z" fill="#000000" fill-rule="evenodd" fill-opacity="1" /><path clip-path="url(#clip980)" d="M121.566 914.84 L126.45 914.84 L126.45 920.72 L121.566 920.72 L121.566 914.84 Z" fill="#000000" fill-rule="evenodd" fill-opacity="1" /><path clip-path="url(#clip980)" d="M140.663 916.785 L156.982 916.785 L156.982 920.72 L135.038 920.72 L135.038 916.785 Q137.7 914.03 142.283 909.4 Q146.89 904.748 148.07 903.405 Q150.315 900.882 151.195 899.146 Q152.098 897.387 152.098 895.697 Q152.098 892.942 150.153 891.206 Q148.232 889.47 145.13 889.47 Q142.931 889.47 140.478 890.234 Q138.047 890.998 135.269 892.549 L135.269 887.826 Q138.093 886.692 140.547 886.114 Q143.001 885.535 145.038 885.535 Q150.408 885.535 153.602 888.22 Q156.797 890.905 156.797 895.396 Q156.797 897.525 155.987 899.447 Q155.2 901.345 153.093 903.937 Q152.515 904.609 149.413 907.826 Q146.311 911.021 140.663 916.785 Z" fill="#000000" fill-rule="evenodd" fill-opacity="1" /><path clip-path="url(#clip980)" d="M99.3204 647.035 Q95.7093 647.035 93.8806 650.6 Q92.075 654.142 92.075 661.271 Q92.075 668.378 93.8806 671.943 Q95.7093 675.484 99.3204 675.484 Q102.955 675.484 104.76 671.943 Q106.589 668.378 106.589 661.271 Q106.589 654.142 104.76 650.6 Q102.955 647.035 99.3204 647.035 M99.3204 643.332 Q105.131 643.332 108.186 647.938 Q111.265 652.521 111.265 661.271 Q111.265 669.998 108.186 674.605 Q105.131 679.188 99.3204 679.188 Q93.5102 679.188 90.4315 674.605 Q87.376 669.998 87.376 661.271 Q87.376 652.521 90.4315 647.938 Q93.5102 643.332 99.3204 643.332 Z" fill="#000000" fill-rule="evenodd" fill-opacity="1" /><path clip-path="url(#clip980)" d="M119.482 672.637 L124.367 672.637 L124.367 678.517 L119.482 678.517 L119.482 672.637 Z" fill="#000000" fill-rule="evenodd" fill-opacity="1" /><path clip-path="url(#clip980)" d="M147.399 648.031 L135.593 666.48 L147.399 666.48 L147.399 648.031 M146.172 643.957 L152.052 643.957 L152.052 666.48 L156.982 666.48 L156.982 670.369 L152.052 670.369 L152.052 678.517 L147.399 678.517 L147.399 670.369 L131.797 670.369 L131.797 665.855 L146.172 643.957 Z" fill="#000000" fill-rule="evenodd" fill-opacity="1" /><path clip-path="url(#clip980)" d="M99.6445 404.832 Q96.0334 404.832 94.2047 408.397 Q92.3991 411.939 92.3991 419.068 Q92.3991 426.175 94.2047 429.739 Q96.0334 433.281 99.6445 433.281 Q103.279 433.281 105.084 429.739 Q106.913 426.175 106.913 419.068 Q106.913 411.939 105.084 408.397 Q103.279 404.832 99.6445 404.832 M99.6445 401.128 Q105.455 401.128 108.51 405.735 Q111.589 410.318 111.589 419.068 Q111.589 427.795 108.51 432.401 Q105.455 436.985 99.6445 436.985 Q93.8343 436.985 90.7556 432.401 Q87.7001 427.795 87.7001 419.068 Q87.7001 410.318 90.7556 405.735 Q93.8343 401.128 99.6445 401.128 Z" fill="#000000" fill-rule="evenodd" fill-opacity="1" /><path clip-path="url(#clip980)" d="M119.806 430.434 L124.691 430.434 L124.691 436.313 L119.806 436.313 L119.806 430.434 Z" fill="#000000" fill-rule="evenodd" fill-opacity="1" /><path clip-path="url(#clip980)" d="M145.454 417.17 Q142.306 417.17 140.454 419.323 Q138.626 421.476 138.626 425.226 Q138.626 428.952 140.454 431.128 Q142.306 433.281 145.454 433.281 Q148.603 433.281 150.431 431.128 Q152.283 428.952 152.283 425.226 Q152.283 421.476 150.431 419.323 Q148.603 417.17 145.454 417.17 M154.737 402.517 L154.737 406.777 Q152.977 405.943 151.172 405.503 Q149.39 405.064 147.63 405.064 Q143.001 405.064 140.547 408.189 Q138.116 411.314 137.769 417.633 Q139.135 415.619 141.195 414.554 Q143.255 413.466 145.732 413.466 Q150.94 413.466 153.95 416.638 Q156.982 419.786 156.982 425.226 Q156.982 430.55 153.834 433.767 Q150.686 436.985 145.454 436.985 Q139.459 436.985 136.288 432.401 Q133.116 427.795 133.116 419.068 Q133.116 410.874 137.005 406.013 Q140.894 401.128 147.445 401.128 Q149.204 401.128 150.987 401.476 Q152.792 401.823 154.737 402.517 Z" fill="#000000" fill-rule="evenodd" fill-opacity="1" /><path clip-path="url(#clip980)" d="M99.8991 162.629 Q96.288 162.629 94.4593 166.194 Q92.6537 169.735 92.6537 176.865 Q92.6537 183.971 94.4593 187.536 Q96.288 191.078 99.8991 191.078 Q103.533 191.078 105.339 187.536 Q107.168 183.971 107.168 176.865 Q107.168 169.735 105.339 166.194 Q103.533 162.629 99.8991 162.629 M99.8991 158.925 Q105.709 158.925 108.765 163.532 Q111.843 168.115 111.843 176.865 Q111.843 185.592 108.765 190.198 Q105.709 194.782 99.8991 194.782 Q94.0889 194.782 91.0102 190.198 Q87.9547 185.592 87.9547 176.865 Q87.9547 168.115 91.0102 163.532 Q94.0889 158.925 99.8991 158.925 Z" fill="#000000" fill-rule="evenodd" fill-opacity="1" /><path clip-path="url(#clip980)" d="M120.061 188.231 L124.945 188.231 L124.945 194.11 L120.061 194.11 L120.061 188.231 Z" fill="#000000" fill-rule="evenodd" fill-opacity="1" /><path clip-path="url(#clip980)" d="M145.13 177.698 Q141.797 177.698 139.876 179.481 Q137.978 181.263 137.978 184.388 Q137.978 187.513 139.876 189.295 Q141.797 191.078 145.13 191.078 Q148.464 191.078 150.385 189.295 Q152.306 187.49 152.306 184.388 Q152.306 181.263 150.385 179.481 Q148.487 177.698 145.13 177.698 M140.454 175.708 Q137.445 174.967 135.755 172.907 Q134.089 170.846 134.089 167.884 Q134.089 163.74 137.029 161.333 Q139.991 158.925 145.13 158.925 Q150.292 158.925 153.232 161.333 Q156.172 163.74 156.172 167.884 Q156.172 170.846 154.482 172.907 Q152.815 174.967 149.829 175.708 Q153.209 176.495 155.084 178.786 Q156.982 181.078 156.982 184.388 Q156.982 189.411 153.903 192.096 Q150.848 194.782 145.13 194.782 Q139.413 194.782 136.334 192.096 Q133.279 189.411 133.279 184.388 Q133.279 181.078 135.177 178.786 Q137.075 176.495 140.454 175.708 M138.741 168.323 Q138.741 171.009 140.408 172.513 Q142.098 174.018 145.13 174.018 Q148.14 174.018 149.829 172.513 Q151.542 171.009 151.542 168.323 Q151.542 165.638 149.829 164.134 Q148.14 162.629 145.13 162.629 Q142.098 162.629 140.408 164.134 Q138.741 165.638 138.741 168.323 Z" fill="#000000" fill-rule="evenodd" fill-opacity="1" /><polyline clip-path="url(#clip982)" style="stroke:#009af9; stroke-linecap:butt; stroke-linejoin:round; stroke-width:4; stroke-opacity:1; fill:none" points="
  591.89,1145.64 635.14,1070.73 678.391,995.819 721.641,920.906 764.892,845.994 808.143,771.082 851.393,696.17 894.644,621.258 937.894,546.346 981.145,471.433 
  1024.4,396.521 1067.65,321.609 1110.9,246.697 1154.15,171.785 1197.4,96.8724 
  "/>
<polyline clip-path="url(#clip982)" style="stroke:#e26f46; stroke-linecap:butt; stroke-linejoin:round; stroke-width:4; stroke-opacity:1; fill:none" points="
  666.802,1188.89 710.053,1113.98 753.303,1039.07 796.554,964.157 839.804,889.245 883.055,814.333 926.305,739.42 969.556,664.508 1012.81,589.596 1056.06,514.684 
  1099.31,439.772 1142.56,364.86 1185.81,289.947 1229.06,215.035 1272.31,140.123 
  "/>
<polyline clip-path="url(#clip982)" style="stroke:#3da44d; stroke-linecap:butt; stroke-linejoin:round; stroke-width:4; stroke-opacity:1; fill:none" points="
  741.714,1232.14 784.965,1157.23 828.215,1082.32 871.466,1007.41 914.716,932.495 957.967,857.583 1001.22,782.671 1044.47,707.759 1087.72,632.847 1130.97,557.934 
  1174.22,483.022 1217.47,408.11 1260.72,333.198 1303.97,258.286 1347.22,183.374 
  "/>
<polyline clip-path="url(#clip982)" style="stroke:#c271d2; stroke-linecap:butt; stroke-linejoin:round; stroke-width:4; stroke-opacity:1; fill:none" points="
  816.626,1275.39 859.877,1200.48 903.127,1125.57 946.378,1050.66 989.629,975.746 1032.88,900.834 1076.13,825.922 1119.38,751.009 1162.63,676.097 1205.88,601.185 
  1249.13,526.273 1292.38,451.361 1335.63,376.449 1378.88,301.536 1422.13,226.624 
  "/>
<polyline clip-path="url(#clip982)" style="stroke:#ac8d18; stroke-linecap:butt; stroke-linejoin:round; stroke-width:4; stroke-opacity:1; fill:none" points="
  891.538,1318.65 934.789,1243.73 978.04,1168.82 1021.29,1093.91 1064.54,1019 1107.79,944.084 1151.04,869.172 1194.29,794.26 1237.54,719.348 1280.79,644.436 
  1324.04,569.523 1367.29,494.611 1410.55,419.699 1453.8,344.787 1497.05,269.875 
  "/>
<polyline clip-path="url(#clip982)" style="stroke:#00a9ad; stroke-linecap:butt; stroke-linejoin:round; stroke-width:4; stroke-opacity:1; fill:none" points="
  966.451,1361.9 1009.7,1286.98 1052.95,1212.07 1096.2,1137.16 1139.45,1062.25 1182.7,987.335 1225.95,912.423 1269.2,837.511 1312.46,762.598 1355.71,687.686 
  1398.96,612.774 1442.21,537.862 1485.46,462.95 1528.71,388.037 1571.96,313.125 
  "/>
<polyline clip-path="url(#clip982)" style="stroke:#ed5d92; stroke-linecap:butt; stroke-linejoin:round; stroke-width:4; stroke-opacity:1; fill:none" points="
  1041.36,1405.15 1084.61,1330.23 1127.86,1255.32 1171.11,1180.41 1214.37,1105.5 1257.62,1030.59 1300.87,955.673 1344.12,880.761 1387.37,805.849 1430.62,730.937 
  1473.87,656.025 1517.12,581.112 1560.37,506.2 1603.62,431.288 1646.87,356.376 
  "/>
<polyline clip-path="url(#clip982)" style="stroke:#c68125; stroke-linecap:butt; stroke-linejoin:round; stroke-width:4; stroke-opacity:1; fill:none" points="
  1116.28,1448.4 1159.53,1373.48 1202.78,1298.57 1246.03,1223.66 1289.28,1148.75 1332.53,1073.84 1375.78,998.924 1419.03,924.012 1462.28,849.1 1505.53,774.187 
  1548.78,699.275 1592.03,624.363 1635.28,549.451 1678.53,474.539 1721.78,399.626 
  "/>
<polyline clip-path="url(#clip982)" style="stroke:#00a98d; stroke-linecap:butt; stroke-linejoin:round; stroke-width:4; stroke-opacity:1; fill:none" points="
  1191.19,1491.65 1234.44,1416.74 1277.69,1341.82 1320.94,1266.91 1364.19,1192 1407.44,1117.09 1450.69,1042.17 1493.94,967.262 1537.19,892.35 1580.44,817.438 
  1623.69,742.526 1666.94,667.614 1710.19,592.701 1753.44,517.789 1796.7,442.877 
  "/>
<polyline clip-path="url(#clip982)" style="stroke:#8e971d; stroke-linecap:butt; stroke-linejoin:round; stroke-width:4; stroke-opacity:1; fill:none" points="
  1266.1,1534.9 1309.35,1459.99 1352.6,1385.07 1395.85,1310.16 1439.1,1235.25 1482.35,1160.34 1525.6,1085.43 1568.85,1010.51 1612.1,935.601 1655.35,860.688 
  1698.61,785.776 1741.86,710.864 1785.11,635.952 1828.36,561.04 1871.61,486.128 
  "/>
<polyline clip-path="url(#clip982)" style="stroke:#00a8cb; stroke-linecap:butt; stroke-linejoin:round; stroke-width:4; stroke-opacity:1; fill:none" points="
  1341.01,1578.15 1384.26,1503.24 1427.51,1428.32 1470.76,1353.41 1514.01,1278.5 1557.26,1203.59 1600.51,1128.68 1643.77,1053.76 1687.02,978.851 1730.27,903.939 
  1773.52,829.027 1816.77,754.115 1860.02,679.202 1903.27,604.29 1946.52,529.378 
  "/>
<polyline clip-path="url(#clip982)" style="stroke:#9b7fe8; stroke-linecap:butt; stroke-linejoin:round; stroke-width:4; stroke-opacity:1; fill:none" points="
  1415.92,1621.4 1459.17,1546.49 1502.42,1471.57 1545.68,1396.66 1588.93,1321.75 1632.18,1246.84 1675.43,1171.93 1718.68,1097.01 1761.93,1022.1 1805.18,947.19 
  1848.43,872.277 1891.68,797.365 1934.93,722.453 1978.18,647.541 2021.43,572.629 
  "/>
<polyline clip-path="url(#clip982)" style="stroke:#608cf6; stroke-linecap:butt; stroke-linejoin:round; stroke-width:4; stroke-opacity:1; fill:none" points="
  1490.84,1664.65 1534.09,1589.74 1577.34,1514.83 1620.59,1439.91 1663.84,1365 1707.09,1290.09 1750.34,1215.18 1793.59,1140.26 1836.84,1065.35 1880.09,990.44 
  1923.34,915.528 1966.59,840.616 2009.84,765.704 2053.09,690.791 2096.34,615.879 
  "/>
<polyline clip-path="url(#clip982)" style="stroke:#f05f73; stroke-linecap:butt; stroke-linejoin:round; stroke-width:4; stroke-opacity:1; fill:none" points="
  1565.75,1707.9 1609,1632.99 1652.25,1558.08 1695.5,1483.16 1738.75,1408.25 1782,1333.34 1825.25,1258.43 1868.5,1183.52 1911.75,1108.6 1955,1033.69 
  1998.25,958.779 2041.5,883.866 2084.75,808.954 2128.01,734.042 2171.26,659.13 
  "/>
<polyline clip-path="url(#clip982)" style="stroke:#dd64b5; stroke-linecap:butt; stroke-linejoin:round; stroke-width:4; stroke-opacity:1; fill:none" points="
  1640.66,1751.15 1683.91,1676.24 1727.16,1601.33 1770.41,1526.41 1813.66,1451.5 1856.91,1376.59 1900.16,1301.68 1943.41,1226.77 1986.66,1151.85 2029.92,1076.94 
  2073.17,1002.03 2116.42,927.117 2159.67,852.205 2202.92,777.293 2246.17,702.38 
  "/>
<polyline clip-path="url(#clip982)" style="stroke:#6b9e32; stroke-linecap:butt; stroke-linejoin:round; stroke-width:4; stroke-opacity:1; fill:none" points="
  591.89,1145.64 666.802,1188.89 741.714,1232.14 816.626,1275.39 891.538,1318.65 966.451,1361.9 1041.36,1405.15 1116.28,1448.4 1191.19,1491.65 1266.1,1534.9 
  1341.01,1578.15 1415.92,1621.4 1490.84,1664.65 1565.75,1707.9 1640.66,1751.15 
  "/>
<polyline clip-path="url(#clip982)" style="stroke:#009af9; stroke-linecap:butt; stroke-linejoin:round; stroke-width:4; stroke-opacity:1; fill:none" points="
  635.14,1070.73 710.053,1113.98 784.965,1157.23 859.877,1200.48 934.789,1243.73 1009.7,1286.98 1084.61,1330.23 1159.53,1373.48 1234.44,1416.74 1309.35,1459.99 
  1384.26,1503.24 1459.17,1546.49 1534.09,1589.74 1609,1632.99 1683.91,1676.24 
  "/>
<polyline clip-path="url(#clip982)" style="stroke:#e26f46; stroke-linecap:butt; stroke-linejoin:round; stroke-width:4; stroke-opacity:1; fill:none" points="
  678.391,995.819 753.303,1039.07 828.215,1082.32 903.127,1125.57 978.04,1168.82 1052.95,1212.07 1127.86,1255.32 1202.78,1298.57 1277.69,1341.82 1352.6,1385.07 
  1427.51,1428.32 1502.42,1471.57 1577.34,1514.83 1652.25,1558.08 1727.16,1601.33 
  "/>
<polyline clip-path="url(#clip982)" style="stroke:#3da44d; stroke-linecap:butt; stroke-linejoin:round; stroke-width:4; stroke-opacity:1; fill:none" points="
  721.641,920.906 796.554,964.157 871.466,1007.41 946.378,1050.66 1021.29,1093.91 1096.2,1137.16 1171.11,1180.41 1246.03,1223.66 1320.94,1266.91 1395.85,1310.16 
  1470.76,1353.41 1545.68,1396.66 1620.59,1439.91 1695.5,1483.16 1770.41,1526.41 
  "/>
<polyline clip-path="url(#clip982)" style="stroke:#c271d2; stroke-linecap:butt; stroke-linejoin:round; stroke-width:4; stroke-opacity:1; fill:none" points="
  764.892,845.994 839.804,889.245 914.716,932.495 989.629,975.746 1064.54,1019 1139.45,1062.25 1214.37,1105.5 1289.28,1148.75 1364.19,1192 1439.1,1235.25 
  1514.01,1278.5 1588.93,1321.75 1663.84,1365 1738.75,1408.25 1813.66,1451.5 
  "/>
<polyline clip-path="url(#clip982)" style="stroke:#ac8d18; stroke-linecap:butt; stroke-linejoin:round; stroke-width:4; stroke-opacity:1; fill:none" points="
  808.143,771.082 883.055,814.333 957.967,857.583 1032.88,900.834 1107.79,944.084 1182.7,987.335 1257.62,1030.59 1332.53,1073.84 1407.44,1117.09 1482.35,1160.34 
  1557.26,1203.59 1632.18,1246.84 1707.09,1290.09 1782,1333.34 1856.91,1376.59 
  "/>
<polyline clip-path="url(#clip982)" style="stroke:#00a9ad; stroke-linecap:butt; stroke-linejoin:round; stroke-width:4; stroke-opacity:1; fill:none" points="
  851.393,696.17 926.305,739.42 1001.22,782.671 1076.13,825.922 1151.04,869.172 1225.95,912.423 1300.87,955.673 1375.78,998.924 1450.69,1042.17 1525.6,1085.43 
  1600.51,1128.68 1675.43,1171.93 1750.34,1215.18 1825.25,1258.43 1900.16,1301.68 
  "/>
<polyline clip-path="url(#clip982)" style="stroke:#ed5d92; stroke-linecap:butt; stroke-linejoin:round; stroke-width:4; stroke-opacity:1; fill:none" points="
  894.644,621.258 969.556,664.508 1044.47,707.759 1119.38,751.009 1194.29,794.26 1269.2,837.511 1344.12,880.761 1419.03,924.012 1493.94,967.262 1568.85,1010.51 
  1643.77,1053.76 1718.68,1097.01 1793.59,1140.26 1868.5,1183.52 1943.41,1226.77 
  "/>
<polyline clip-path="url(#clip982)" style="stroke:#c68125; stroke-linecap:butt; stroke-linejoin:round; stroke-width:4; stroke-opacity:1; fill:none" points="
  937.894,546.346 1012.81,589.596 1087.72,632.847 1162.63,676.097 1237.54,719.348 1312.46,762.598 1387.37,805.849 1462.28,849.1 1537.19,892.35 1612.1,935.601 
  1687.02,978.851 1761.93,1022.1 1836.84,1065.35 1911.75,1108.6 1986.66,1151.85 
  "/>
<polyline clip-path="url(#clip982)" style="stroke:#00a98d; stroke-linecap:butt; stroke-linejoin:round; stroke-width:4; stroke-opacity:1; fill:none" points="
  981.145,471.433 1056.06,514.684 1130.97,557.934 1205.88,601.185 1280.79,644.436 1355.71,687.686 1430.62,730.937 1505.53,774.187 1580.44,817.438 1655.35,860.688 
  1730.27,903.939 1805.18,947.19 1880.09,990.44 1955,1033.69 2029.92,1076.94 
  "/>
<polyline clip-path="url(#clip982)" style="stroke:#8e971d; stroke-linecap:butt; stroke-linejoin:round; stroke-width:4; stroke-opacity:1; fill:none" points="
  1024.4,396.521 1099.31,439.772 1174.22,483.022 1249.13,526.273 1324.04,569.523 1398.96,612.774 1473.87,656.025 1548.78,699.275 1623.69,742.526 1698.61,785.776 
  1773.52,829.027 1848.43,872.277 1923.34,915.528 1998.25,958.779 2073.17,1002.03 
  "/>
<polyline clip-path="url(#clip982)" style="stroke:#00a8cb; stroke-linecap:butt; stroke-linejoin:round; stroke-width:4; stroke-opacity:1; fill:none" points="
  1067.65,321.609 1142.56,364.86 1217.47,408.11 1292.38,451.361 1367.29,494.611 1442.21,537.862 1517.12,581.112 1592.03,624.363 1666.94,667.614 1741.86,710.864 
  1816.77,754.115 1891.68,797.365 1966.59,840.616 2041.5,883.866 2116.42,927.117 
  "/>
<polyline clip-path="url(#clip982)" style="stroke:#9b7fe8; stroke-linecap:butt; stroke-linejoin:round; stroke-width:4; stroke-opacity:1; fill:none" points="
  1110.9,246.697 1185.81,289.947 1260.72,333.198 1335.63,376.449 1410.55,419.699 1485.46,462.95 1560.37,506.2 1635.28,549.451 1710.19,592.701 1785.11,635.952 
  1860.02,679.202 1934.93,722.453 2009.84,765.704 2084.75,808.954 2159.67,852.205 
  "/>
<polyline clip-path="url(#clip982)" style="stroke:#608cf6; stroke-linecap:butt; stroke-linejoin:round; stroke-width:4; stroke-opacity:1; fill:none" points="
  1154.15,171.785 1229.06,215.035 1303.97,258.286 1378.88,301.536 1453.8,344.787 1528.71,388.037 1603.62,431.288 1678.53,474.539 1753.44,517.789 1828.36,561.04 
  1903.27,604.29 1978.18,647.541 2053.09,690.791 2128.01,734.042 2202.92,777.293 
  "/>
<polyline clip-path="url(#clip982)" style="stroke:#f05f73; stroke-linecap:butt; stroke-linejoin:round; stroke-width:4; stroke-opacity:1; fill:none" points="
  1197.4,96.8724 1272.31,140.123 1347.22,183.374 1422.13,226.624 1497.05,269.875 1571.96,313.125 1646.87,356.376 1721.78,399.626 1796.7,442.877 1871.61,486.128 
  1946.52,529.378 2021.43,572.629 2096.34,615.879 2171.26,659.13 2246.17,702.38 
  "/>
<polyline clip-path="url(#clip982)" style="stroke:#0000ff; stroke-linecap:butt; stroke-linejoin:round; stroke-width:8; stroke-opacity:1; fill:none" points="
  1064.54,1019 1588.93,1321.75 
  "/>
<polyline clip-path="url(#clip982)" style="stroke:#0000ff; stroke-linecap:butt; stroke-linejoin:round; stroke-width:8; stroke-opacity:1; fill:none" points="
  1564.09,1284.13 1588.93,1321.75 1543.93,1319.05 
  "/>
<polyline clip-path="url(#clip982)" style="stroke:#0000ff; stroke-linecap:butt; stroke-linejoin:round; stroke-width:8; stroke-opacity:1; fill:none" points="
  1588.93,1321.75 1064.54,1019 
  "/>
<polyline clip-path="url(#clip982)" style="stroke:#ff0000; stroke-linecap:butt; stroke-linejoin:round; stroke-width:4; stroke-opacity:1; fill:none" points="
  1367.29,494.611 1891.68,797.365 
  "/>
<polyline clip-path="url(#clip982)" style="stroke:#ff0000; stroke-linecap:butt; stroke-linejoin:round; stroke-width:4; stroke-opacity:1; fill:none" points="
  1866.84,759.746 1891.68,797.365 1846.68,794.664 
  "/>
<polyline clip-path="url(#clip982)" style="stroke:#ff0000; stroke-linecap:butt; stroke-linejoin:round; stroke-width:4; stroke-opacity:1; fill:none" points="
  1891.68,797.365 1367.29,494.611 
  "/>
<polyline clip-path="url(#clip982)" style="stroke:#0000ff; stroke-linecap:butt; stroke-linejoin:round; stroke-width:8; stroke-opacity:1; fill:none" points="
  1064.54,1019 1367.29,494.611 
  "/>
<polyline clip-path="url(#clip982)" style="stroke:#0000ff; stroke-linecap:butt; stroke-linejoin:round; stroke-width:8; stroke-opacity:1; fill:none" points="
  1329.68,519.449 1367.29,494.611 1364.59,539.609 
  "/>
<polyline clip-path="url(#clip982)" style="stroke:#0000ff; stroke-linecap:butt; stroke-linejoin:round; stroke-width:8; stroke-opacity:1; fill:none" points="
  1367.29,494.611 1064.54,1019 
  "/>
<polyline clip-path="url(#clip982)" style="stroke:#ff0000; stroke-linecap:butt; stroke-linejoin:round; stroke-width:4; stroke-opacity:1; fill:none" points="
  1588.93,1321.75 1891.68,797.365 
  "/>
<polyline clip-path="url(#clip982)" style="stroke:#ff0000; stroke-linecap:butt; stroke-linejoin:round; stroke-width:4; stroke-opacity:1; fill:none" points="
  1854.06,822.203 1891.68,797.365 1888.98,842.363 
  "/>
<polyline clip-path="url(#clip982)" style="stroke:#ff0000; stroke-linecap:butt; stroke-linejoin:round; stroke-width:4; stroke-opacity:1; fill:none" points="
  1891.68,797.365 1588.93,1321.75 
  "/>
</svg>
