<?xml version="1.0" encoding="utf-8"?>
<svg xmlns="http://www.w3.org/2000/svg" xmlns:xlink="http://www.w3.org/1999/xlink" width="672" height="480" viewBox="0 0 2688 1920">
<defs>
  <clipPath id="clip220">
    <rect x="0" y="0" width="2688" height="1920"/>
  </clipPath>
</defs>
<path clip-path="url(#clip220)" d="
M0 1920 L2688 1920 L2688 0 L0 0  Z
  " fill="#ffffff" fill-rule="evenodd" fill-opacity="1"/>
<defs>
  <clipPath id="clip221">
    <rect x="537" y="0" width="1883" height="1883"/>
  </clipPath>
</defs>
<path clip-path="url(#clip220)" d="
M150.358 1800.78 L2640.76 1800.78 L2640.76 47.2441 L150.358 47.2441  Z
  " fill="#ffffff" fill-rule="evenodd" fill-opacity="1"/>
<defs>
  <clipPath id="clip222">
    <rect x="150" y="47" width="2491" height="1755"/>
  </clipPath>
</defs>
<polyline clip-path="url(#clip222)" style="stroke:#000000; stroke-linecap:round; stroke-linejoin:round; stroke-width:2; stroke-opacity:0.1; fill:none" points="
  220.841,1800.78 220.841,47.2441 
  "/>
<polyline clip-path="url(#clip222)" style="stroke:#000000; stroke-linecap:round; stroke-linejoin:round; stroke-width:2; stroke-opacity:0.1; fill:none" points="
  808.199,1800.78 808.199,47.2441 
  "/>
<polyline clip-path="url(#clip222)" style="stroke:#000000; stroke-linecap:round; stroke-linejoin:round; stroke-width:2; stroke-opacity:0.1; fill:none" points="
  1395.56,1800.78 1395.56,47.2441 
  "/>
<polyline clip-path="url(#clip222)" style="stroke:#000000; stroke-linecap:round; stroke-linejoin:round; stroke-width:2; stroke-opacity:0.1; fill:none" points="
  1982.91,1800.78 1982.91,47.2441 
  "/>
<polyline clip-path="url(#clip222)" style="stroke:#000000; stroke-linecap:round; stroke-linejoin:round; stroke-width:2; stroke-opacity:0.1; fill:none" points="
  2570.27,1800.78 2570.27,47.2441 
  "/>
<polyline clip-path="url(#clip220)" style="stroke:#000000; stroke-linecap:round; stroke-linejoin:round; stroke-width:4; stroke-opacity:1; fill:none" points="
  150.358,1800.78 2640.76,1800.78 
  "/>
<polyline clip-path="url(#clip220)" style="stroke:#000000; stroke-linecap:round; stroke-linejoin:round; stroke-width:4; stroke-opacity:1; fill:none" points="
  220.841,1800.78 220.841,1781.88 
  "/>
<polyline clip-path="url(#clip220)" style="stroke:#000000; stroke-linecap:round; stroke-linejoin:round; stroke-width:4; stroke-opacity:1; fill:none" points="
  808.199,1800.78 808.199,1781.88 
  "/>
<polyline clip-path="url(#clip220)" style="stroke:#000000; stroke-linecap:round; stroke-linejoin:round; stroke-width:4; stroke-opacity:1; fill:none" points="
  1395.56,1800.78 1395.56,1781.88 
  "/>
<polyline clip-path="url(#clip220)" style="stroke:#000000; stroke-linecap:round; stroke-linejoin:round; stroke-width:4; stroke-opacity:1; fill:none" points="
  1982.91,1800.78 1982.91,1781.88 
  "/>
<polyline clip-path="url(#clip220)" style="stroke:#000000; stroke-linecap:round; stroke-linejoin:round; stroke-width:4; stroke-opacity:1; fill:none" points="
  2570.27,1800.78 2570.27,1781.88 
  "/>
<path clip-path="url(#clip220)" d="M172.913 1861.55 L180.552 1861.55 L180.552 1835.18 L172.242 1836.85 L172.242 1832.59 L180.505 1830.92 L185.181 1830.92 L185.181 1861.55 L192.82 1861.55 L192.82 1865.48 L172.913 1865.48 L172.913 1861.55 Z" fill="#000000" fill-rule="evenodd" fill-opacity="1" /><path clip-path="url(#clip220)" d="M202.265 1859.6 L207.149 1859.6 L207.149 1865.48 L202.265 1865.48 L202.265 1859.6 Z" fill="#000000" fill-rule="evenodd" fill-opacity="1" /><path clip-path="url(#clip220)" d="M227.334 1834 Q223.723 1834 221.894 1837.57 Q220.089 1841.11 220.089 1848.24 Q220.089 1855.34 221.894 1858.91 Q223.723 1862.45 227.334 1862.45 Q230.968 1862.45 232.774 1858.91 Q234.602 1855.34 234.602 1848.24 Q234.602 1841.11 232.774 1837.57 Q230.968 1834 227.334 1834 M227.334 1830.3 Q233.144 1830.3 236.2 1834.9 Q239.278 1839.49 239.278 1848.24 Q239.278 1856.96 236.2 1861.57 Q233.144 1866.15 227.334 1866.15 Q221.524 1866.15 218.445 1861.57 Q215.39 1856.96 215.39 1848.24 Q215.39 1839.49 218.445 1834.9 Q221.524 1830.3 227.334 1830.3 Z" fill="#000000" fill-rule="evenodd" fill-opacity="1" /><path clip-path="url(#clip220)" d="M257.496 1834 Q253.885 1834 252.056 1837.57 Q250.25 1841.11 250.25 1848.24 Q250.25 1855.34 252.056 1858.91 Q253.885 1862.45 257.496 1862.45 Q261.13 1862.45 262.936 1858.91 Q264.764 1855.34 264.764 1848.24 Q264.764 1841.11 262.936 1837.57 Q261.13 1834 257.496 1834 M257.496 1830.3 Q263.306 1830.3 266.361 1834.9 Q269.44 1839.49 269.44 1848.24 Q269.44 1856.96 266.361 1861.57 Q263.306 1866.15 257.496 1866.15 Q251.686 1866.15 248.607 1861.57 Q245.551 1856.96 245.551 1848.24 Q245.551 1839.49 248.607 1834.9 Q251.686 1830.3 257.496 1830.3 Z" fill="#000000" fill-rule="evenodd" fill-opacity="1" /><path clip-path="url(#clip220)" d="M760.769 1861.55 L768.407 1861.55 L768.407 1835.18 L760.097 1836.85 L760.097 1832.59 L768.361 1830.92 L773.037 1830.92 L773.037 1861.55 L780.676 1861.55 L780.676 1865.48 L760.769 1865.48 L760.769 1861.55 Z" fill="#000000" fill-rule="evenodd" fill-opacity="1" /><path clip-path="url(#clip220)" d="M790.12 1859.6 L795.005 1859.6 L795.005 1865.48 L790.12 1865.48 L790.12 1859.6 Z" fill="#000000" fill-rule="evenodd" fill-opacity="1" /><path clip-path="url(#clip220)" d="M809.217 1861.55 L825.537 1861.55 L825.537 1865.48 L803.592 1865.48 L803.592 1861.55 Q806.254 1858.79 810.838 1854.16 Q815.444 1849.51 816.625 1848.17 Q818.87 1845.65 819.75 1843.91 Q820.653 1842.15 820.653 1840.46 Q820.653 1837.71 818.708 1835.97 Q816.787 1834.23 813.685 1834.23 Q811.486 1834.23 809.032 1835 Q806.602 1835.76 803.824 1837.31 L803.824 1832.59 Q806.648 1831.46 809.102 1830.88 Q811.555 1830.3 813.592 1830.3 Q818.963 1830.3 822.157 1832.98 Q825.352 1835.67 825.352 1840.16 Q825.352 1842.29 824.541 1844.21 Q823.754 1846.11 821.648 1848.7 Q821.069 1849.37 817.967 1852.59 Q814.866 1855.78 809.217 1861.55 Z" fill="#000000" fill-rule="evenodd" fill-opacity="1" /><path clip-path="url(#clip220)" d="M835.398 1830.92 L853.754 1830.92 L853.754 1834.86 L839.68 1834.86 L839.68 1843.33 Q840.699 1842.98 841.717 1842.82 Q842.736 1842.64 843.754 1842.64 Q849.541 1842.64 852.921 1845.81 Q856.3 1848.98 856.3 1854.4 Q856.3 1859.97 852.828 1863.08 Q849.356 1866.15 843.037 1866.15 Q840.861 1866.15 838.592 1865.78 Q836.347 1865.41 833.939 1864.67 L833.939 1859.97 Q836.023 1861.11 838.245 1861.66 Q840.467 1862.22 842.944 1862.22 Q846.949 1862.22 849.287 1860.11 Q851.625 1858.01 851.625 1854.4 Q851.625 1850.78 849.287 1848.68 Q846.949 1846.57 842.944 1846.57 Q841.069 1846.57 839.194 1846.99 Q837.342 1847.4 835.398 1848.28 L835.398 1830.92 Z" fill="#000000" fill-rule="evenodd" fill-opacity="1" /><path clip-path="url(#clip220)" d="M1347.63 1861.55 L1355.27 1861.55 L1355.27 1835.18 L1346.96 1836.85 L1346.96 1832.59 L1355.22 1830.92 L1359.9 1830.92 L1359.9 1861.55 L1367.54 1861.55 L1367.54 1865.48 L1347.63 1865.48 L1347.63 1861.55 Z" fill="#000000" fill-rule="evenodd" fill-opacity="1" /><path clip-path="url(#clip220)" d="M1376.98 1859.6 L1381.86 1859.6 L1381.86 1865.48 L1376.98 1865.48 L1376.98 1859.6 Z" fill="#000000" fill-rule="evenodd" fill-opacity="1" /><path clip-path="url(#clip220)" d="M1392.1 1830.92 L1410.45 1830.92 L1410.45 1834.86 L1396.38 1834.86 L1396.38 1843.33 Q1397.4 1842.98 1398.42 1842.82 Q1399.43 1842.64 1400.45 1842.64 Q1406.24 1842.64 1409.62 1845.81 Q1413 1848.98 1413 1854.4 Q1413 1859.97 1409.53 1863.08 Q1406.05 1866.15 1399.74 1866.15 Q1397.56 1866.15 1395.29 1865.78 Q1393.05 1865.41 1390.64 1864.67 L1390.64 1859.97 Q1392.72 1861.11 1394.94 1861.66 Q1397.17 1862.22 1399.64 1862.22 Q1403.65 1862.22 1405.99 1860.11 Q1408.32 1858.01 1408.32 1854.4 Q1408.32 1850.78 1405.99 1848.68 Q1403.65 1846.57 1399.64 1846.57 Q1397.77 1846.57 1395.89 1846.99 Q1394.04 1847.4 1392.1 1848.28 L1392.1 1830.92 Z" fill="#000000" fill-rule="evenodd" fill-opacity="1" /><path clip-path="url(#clip220)" d="M1432.21 1834 Q1428.6 1834 1426.77 1837.57 Q1424.97 1841.11 1424.97 1848.24 Q1424.97 1855.34 1426.77 1858.91 Q1428.6 1862.45 1432.21 1862.45 Q1435.85 1862.45 1437.65 1858.91 Q1439.48 1855.34 1439.48 1848.24 Q1439.48 1841.11 1437.65 1837.57 Q1435.85 1834 1432.21 1834 M1432.21 1830.3 Q1438.02 1830.3 1441.08 1834.9 Q1444.16 1839.49 1444.16 1848.24 Q1444.16 1856.96 1441.08 1861.57 Q1438.02 1866.15 1432.21 1866.15 Q1426.4 1866.15 1423.32 1861.57 Q1420.27 1856.96 1420.27 1848.24 Q1420.27 1839.49 1423.32 1834.9 Q1426.4 1830.3 1432.21 1830.3 Z" fill="#000000" fill-rule="evenodd" fill-opacity="1" /><path clip-path="url(#clip220)" d="M1935.48 1861.55 L1943.12 1861.55 L1943.12 1835.18 L1934.81 1836.85 L1934.81 1832.59 L1943.08 1830.92 L1947.75 1830.92 L1947.75 1861.55 L1955.39 1861.55 L1955.39 1865.48 L1935.48 1865.48 L1935.48 1861.55 Z" fill="#000000" fill-rule="evenodd" fill-opacity="1" /><path clip-path="url(#clip220)" d="M1964.84 1859.6 L1969.72 1859.6 L1969.72 1865.48 L1964.84 1865.48 L1964.84 1859.6 Z" fill="#000000" fill-rule="evenodd" fill-opacity="1" /><path clip-path="url(#clip220)" d="M1978.73 1830.92 L2000.95 1830.92 L2000.95 1832.91 L1988.4 1865.48 L1983.52 1865.48 L1995.32 1834.86 L1978.73 1834.86 L1978.73 1830.92 Z" fill="#000000" fill-rule="evenodd" fill-opacity="1" /><path clip-path="url(#clip220)" d="M2010.11 1830.92 L2028.47 1830.92 L2028.47 1834.86 L2014.4 1834.86 L2014.4 1843.33 Q2015.41 1842.98 2016.43 1842.82 Q2017.45 1842.64 2018.47 1842.64 Q2024.26 1842.64 2027.64 1845.81 Q2031.02 1848.98 2031.02 1854.4 Q2031.02 1859.97 2027.54 1863.08 Q2024.07 1866.15 2017.75 1866.15 Q2015.58 1866.15 2013.31 1865.78 Q2011.06 1865.41 2008.66 1864.67 L2008.66 1859.97 Q2010.74 1861.11 2012.96 1861.66 Q2015.18 1862.22 2017.66 1862.22 Q2021.66 1862.22 2024 1860.11 Q2026.34 1858.01 2026.34 1854.4 Q2026.34 1850.78 2024 1848.68 Q2021.66 1846.57 2017.66 1846.57 Q2015.79 1846.57 2013.91 1846.99 Q2012.06 1847.4 2010.11 1848.28 L2010.11 1830.92 Z" fill="#000000" fill-rule="evenodd" fill-opacity="1" /><path clip-path="url(#clip220)" d="M2526.43 1861.55 L2542.75 1861.55 L2542.75 1865.48 L2520.81 1865.48 L2520.81 1861.55 Q2523.47 1858.79 2528.05 1854.16 Q2532.66 1849.51 2533.84 1848.17 Q2536.08 1845.65 2536.96 1843.91 Q2537.87 1842.15 2537.87 1840.46 Q2537.87 1837.71 2535.92 1835.97 Q2534 1834.23 2530.9 1834.23 Q2528.7 1834.23 2526.25 1835 Q2523.81 1835.76 2521.04 1837.31 L2521.04 1832.59 Q2523.86 1831.46 2526.31 1830.88 Q2528.77 1830.3 2530.81 1830.3 Q2536.18 1830.3 2539.37 1832.98 Q2542.56 1835.67 2542.56 1840.16 Q2542.56 1842.29 2541.75 1844.21 Q2540.97 1846.11 2538.86 1848.7 Q2538.28 1849.37 2535.18 1852.59 Q2532.08 1855.78 2526.43 1861.55 Z" fill="#000000" fill-rule="evenodd" fill-opacity="1" /><path clip-path="url(#clip220)" d="M2552.56 1859.6 L2557.45 1859.6 L2557.45 1865.48 L2552.56 1865.48 L2552.56 1859.6 Z" fill="#000000" fill-rule="evenodd" fill-opacity="1" /><path clip-path="url(#clip220)" d="M2577.63 1834 Q2574.02 1834 2572.19 1837.57 Q2570.39 1841.11 2570.39 1848.24 Q2570.39 1855.34 2572.19 1858.91 Q2574.02 1862.45 2577.63 1862.45 Q2581.27 1862.45 2583.07 1858.91 Q2584.9 1855.34 2584.9 1848.24 Q2584.9 1841.11 2583.07 1837.57 Q2581.27 1834 2577.63 1834 M2577.63 1830.3 Q2583.44 1830.3 2586.5 1834.9 Q2589.58 1839.49 2589.58 1848.24 Q2589.58 1856.96 2586.5 1861.57 Q2583.44 1866.15 2577.63 1866.15 Q2571.82 1866.15 2568.75 1861.57 Q2565.69 1856.96 2565.69 1848.24 Q2565.69 1839.49 2568.75 1834.9 Q2571.82 1830.3 2577.63 1830.3 Z" fill="#000000" fill-rule="evenodd" fill-opacity="1" /><path clip-path="url(#clip220)" d="M2607.8 1834 Q2604.18 1834 2602.36 1837.57 Q2600.55 1841.11 2600.55 1848.24 Q2600.55 1855.34 2602.36 1858.91 Q2604.18 1862.45 2607.8 1862.45 Q2611.43 1862.45 2613.24 1858.91 Q2615.06 1855.34 2615.06 1848.24 Q2615.06 1841.11 2613.24 1837.57 Q2611.43 1834 2607.8 1834 M2607.8 1830.3 Q2613.61 1830.3 2616.66 1834.9 Q2619.74 1839.49 2619.74 1848.24 Q2619.74 1856.96 2616.66 1861.57 Q2613.61 1866.15 2607.8 1866.15 Q2601.99 1866.15 2598.91 1861.57 Q2595.85 1856.96 2595.85 1848.24 Q2595.85 1839.49 2598.91 1834.9 Q2601.99 1830.3 2607.8 1830.3 Z" fill="#000000" fill-rule="evenodd" fill-opacity="1" /><polyline clip-path="url(#clip222)" style="stroke:#000000; stroke-linecap:round; stroke-linejoin:round; stroke-width:2; stroke-opacity:0.1; fill:none" points="
  150.358,1751.15 2640.76,1751.15 
  "/>
<polyline clip-path="url(#clip222)" style="stroke:#000000; stroke-linecap:round; stroke-linejoin:round; stroke-width:2; stroke-opacity:0.1; fill:none" points="
  150.358,1199.72 2640.76,1199.72 
  "/>
<polyline clip-path="url(#clip222)" style="stroke:#000000; stroke-linecap:round; stroke-linejoin:round; stroke-width:2; stroke-opacity:0.1; fill:none" points="
  150.358,648.299 2640.76,648.299 
  "/>
<polyline clip-path="url(#clip222)" style="stroke:#000000; stroke-linecap:round; stroke-linejoin:round; stroke-width:2; stroke-opacity:0.1; fill:none" points="
  150.358,96.8724 2640.76,96.8724 
  "/>
<polyline clip-path="url(#clip220)" style="stroke:#000000; stroke-linecap:round; stroke-linejoin:round; stroke-width:4; stroke-opacity:1; fill:none" points="
  150.358,1800.78 150.358,47.2441 
  "/>
<polyline clip-path="url(#clip220)" style="stroke:#000000; stroke-linecap:round; stroke-linejoin:round; stroke-width:4; stroke-opacity:1; fill:none" points="
  150.358,1751.15 169.256,1751.15 
  "/>
<polyline clip-path="url(#clip220)" style="stroke:#000000; stroke-linecap:round; stroke-linejoin:round; stroke-width:4; stroke-opacity:1; fill:none" points="
  150.358,1199.72 169.256,1199.72 
  "/>
<polyline clip-path="url(#clip220)" style="stroke:#000000; stroke-linecap:round; stroke-linejoin:round; stroke-width:4; stroke-opacity:1; fill:none" points="
  150.358,648.299 169.256,648.299 
  "/>
<polyline clip-path="url(#clip220)" style="stroke:#000000; stroke-linecap:round; stroke-linejoin:round; stroke-width:4; stroke-opacity:1; fill:none" points="
  150.358,96.8724 169.256,96.8724 
  "/>
<path clip-path="url(#clip220)" d="M49.5521 1751.6 L79.2279 1751.6 L79.2279 1755.54 L49.5521 1755.54 L49.5521 1751.6 Z" fill="#000000" fill-rule="evenodd" fill-opacity="1" /><path clip-path="url(#clip220)" d="M90.1306 1764.5 L97.7695 1764.5 L97.7695 1738.13 L89.4593 1739.8 L89.4593 1735.54 L97.7232 1733.87 L102.399 1733.87 L102.399 1764.5 L110.038 1764.5 L110.038 1768.43 L90.1306 1768.43 L90.1306 1764.5 Z" fill="#000000" fill-rule="evenodd" fill-opacity="1" /><path clip-path="url(#clip220)" d="M98.0935 1185.52 Q94.4824 1185.52 92.6537 1189.09 Q90.8482 1192.63 90.8482 1199.76 Q90.8482 1206.87 92.6537 1210.43 Q94.4824 1213.97 98.0935 1213.97 Q101.728 1213.97 103.533 1210.43 Q105.362 1206.87 105.362 1199.76 Q105.362 1192.63 103.533 1189.09 Q101.728 1185.52 98.0935 1185.52 M98.0935 1181.82 Q103.904 1181.82 106.959 1186.43 Q110.038 1191.01 110.038 1199.76 Q110.038 1208.49 106.959 1213.09 Q103.904 1217.68 98.0935 1217.68 Q92.2834 1217.68 89.2047 1213.09 Q86.1492 1208.49 86.1492 1199.76 Q86.1492 1191.01 89.2047 1186.43 Q92.2834 1181.82 98.0935 1181.82 Z" fill="#000000" fill-rule="evenodd" fill-opacity="1" /><path clip-path="url(#clip220)" d="M90.1306 661.643 L97.7695 661.643 L97.7695 635.278 L89.4593 636.945 L89.4593 632.685 L97.7232 631.019 L102.399 631.019 L102.399 661.643 L110.038 661.643 L110.038 665.579 L90.1306 665.579 L90.1306 661.643 Z" fill="#000000" fill-rule="evenodd" fill-opacity="1" /><path clip-path="url(#clip220)" d="M93.7186 110.217 L110.038 110.217 L110.038 114.152 L88.0936 114.152 L88.0936 110.217 Q90.7556 107.463 95.3389 102.833 Q99.9454 98.1803 101.126 96.8377 Q103.371 94.3146 104.251 92.5785 Q105.154 90.8192 105.154 89.1294 Q105.154 86.3748 103.209 84.6387 Q101.288 82.9026 98.1861 82.9026 Q95.9871 82.9026 93.5334 83.6665 Q91.1028 84.4304 88.3251 85.9813 L88.3251 81.2591 Q91.1491 80.1249 93.6028 79.5462 Q96.0565 78.9675 98.0935 78.9675 Q103.464 78.9675 106.658 81.6526 Q109.853 84.3378 109.853 88.8285 Q109.853 90.9581 109.043 92.8794 Q108.256 94.7776 106.149 97.3701 Q105.57 98.0414 102.469 101.259 Q99.3667 104.453 93.7186 110.217 Z" fill="#000000" fill-rule="evenodd" fill-opacity="1" /><polyline clip-path="url(#clip222)" style="stroke:#009af9; stroke-linecap:round; stroke-linejoin:round; stroke-width:20; stroke-opacity:1; fill:none" points="
  220.841,1751.15 236.137,1743.95 377.571,1675.13 462.568,1631.84 534.431,1594.12 612.494,1551.98 684.462,1512.05 761.619,1468.09 851.013,1415.67 930.456,1367.74 
  1000.12,1324.68 1076.07,1276.63 1152.48,1227.12 1236.95,1171.03 1317.33,1116.34 1400.9,1058.1 1471.25,1008 1557.14,945.489 1635.82,886.931 1708.48,831.749 
  1782.09,774.776 1864.59,709.639 1939.34,649.44 2024.93,579.145 2104.18,512.753 2182.3,446.071 2258.16,380.16 2335.92,311.4 2421.12,234.679 2544.88,120.645 
  2570.27,96.8724 
  "/>
<polyline clip-path="url(#clip222)" style="stroke:#e26f46; stroke-linecap:round; stroke-linejoin:round; stroke-width:4; stroke-opacity:1; fill:none" points="
  220.841,1199.72 236.137,1199.72 377.571,1199.72 462.568,1199.72 534.431,1199.72 612.494,1199.72 684.462,1199.72 761.619,1199.72 851.013,1199.72 930.456,1199.72 
  1000.12,1199.72 1076.07,1199.72 1152.48,1199.72 1236.95,1199.72 1317.33,1199.72 1400.9,1199.72 1471.25,1199.72 1557.14,1199.72 1635.82,1199.72 1708.48,1199.72 
  1782.09,1199.72 1864.59,1199.72 1939.34,1199.72 2024.93,1199.72 2104.18,1199.72 2182.3,1199.72 2258.16,1199.72 2335.92,1199.72 2421.12,1199.72 2544.88,1199.72 
  2570.27,1199.72 
  "/>
<polyline clip-path="url(#clip222)" style="stroke:#3da44d; stroke-linecap:round; stroke-linejoin:round; stroke-width:4; stroke-opacity:1; fill:none" points="
  220.841,1751.15 2570.27,96.8724 
  "/>
<circle clip-path="url(#clip222)" cx="1003.98" cy="1322.26" r="14.4" fill="#c271d2" fill-rule="evenodd" fill-opacity="1" stroke="#000000" stroke-opacity="1" stroke-width="3.84"/>
</svg>
