<?xml version="1.0" encoding="utf-8"?>
<svg xmlns="http://www.w3.org/2000/svg" xmlns:xlink="http://www.w3.org/1999/xlink" width="672" height="480" viewBox="0 0 2688 1920">
<defs>
  <clipPath id="clip900">
    <rect x="0" y="0" width="2688" height="1920"/>
  </clipPath>
</defs>
<path clip-path="url(#clip900)" d="
M0 1920 L2688 1920 L2688 0 L0 0  Z
  " fill="#ffffff" fill-rule="evenodd" fill-opacity="1"/>
<defs>
  <clipPath id="clip901">
    <rect x="537" y="0" width="1883" height="1883"/>
  </clipPath>
</defs>
<path clip-path="url(#clip900)" d="
M188.807 1800.78 L2640.76 1800.78 L2640.76 47.2441 L188.807 47.2441  Z
  " fill="#ffffff" fill-rule="evenodd" fill-opacity="1"/>
<defs>
  <clipPath id="clip902">
    <rect x="188" y="47" width="2453" height="1755"/>
  </clipPath>
</defs>
<polyline clip-path="url(#clip902)" style="stroke:#000000; stroke-linecap:butt; stroke-linejoin:round; stroke-width:2; stroke-opacity:0.1; fill:none" points="
  258.202,1800.78 258.202,47.2441 
  "/>
<polyline clip-path="url(#clip902)" style="stroke:#000000; stroke-linecap:butt; stroke-linejoin:round; stroke-width:2; stroke-opacity:0.1; fill:none" points="
  836.491,1800.78 836.491,47.2441 
  "/>
<polyline clip-path="url(#clip902)" style="stroke:#000000; stroke-linecap:butt; stroke-linejoin:round; stroke-width:2; stroke-opacity:0.1; fill:none" points="
  1414.78,1800.78 1414.78,47.2441 
  "/>
<polyline clip-path="url(#clip902)" style="stroke:#000000; stroke-linecap:butt; stroke-linejoin:round; stroke-width:2; stroke-opacity:0.1; fill:none" points="
  1993.07,1800.78 1993.07,47.2441 
  "/>
<polyline clip-path="url(#clip902)" style="stroke:#000000; stroke-linecap:butt; stroke-linejoin:round; stroke-width:2; stroke-opacity:0.1; fill:none" points="
  2571.36,1800.78 2571.36,47.2441 
  "/>
<polyline clip-path="url(#clip900)" style="stroke:#000000; stroke-linecap:butt; stroke-linejoin:round; stroke-width:4; stroke-opacity:1; fill:none" points="
  188.807,1800.78 2640.76,1800.78 
  "/>
<polyline clip-path="url(#clip900)" style="stroke:#000000; stroke-linecap:butt; stroke-linejoin:round; stroke-width:4; stroke-opacity:1; fill:none" points="
  258.202,1800.78 258.202,1781.88 
  "/>
<polyline clip-path="url(#clip900)" style="stroke:#000000; stroke-linecap:butt; stroke-linejoin:round; stroke-width:4; stroke-opacity:1; fill:none" points="
  836.491,1800.78 836.491,1781.88 
  "/>
<polyline clip-path="url(#clip900)" style="stroke:#000000; stroke-linecap:butt; stroke-linejoin:round; stroke-width:4; stroke-opacity:1; fill:none" points="
  1414.78,1800.78 1414.78,1781.88 
  "/>
<polyline clip-path="url(#clip900)" style="stroke:#000000; stroke-linecap:butt; stroke-linejoin:round; stroke-width:4; stroke-opacity:1; fill:none" points="
  1993.07,1800.78 1993.07,1781.88 
  "/>
<polyline clip-path="url(#clip900)" style="stroke:#000000; stroke-linecap:butt; stroke-linejoin:round; stroke-width:4; stroke-opacity:1; fill:none" points="
  2571.36,1800.78 2571.36,1781.88 
  "/>
<path clip-path="url(#clip900)" d="M204.73 1848.65 L234.405 1848.65 L234.405 1852.59 L204.73 1852.59 L204.73 1848.65 Z" fill="#000000" fill-rule="evenodd" fill-opacity="1" /><path clip-path="url(#clip900)" d="M245.308 1861.55 L252.947 1861.55 L252.947 1835.18 L244.637 1836.85 L244.637 1832.59 L252.901 1830.92 L257.577 1830.92 L257.577 1861.55 L265.215 1861.55 L265.215 1865.48 L245.308 1865.48 L245.308 1861.55 Z" fill="#000000" fill-rule="evenodd" fill-opacity="1" /><path clip-path="url(#clip900)" d="M274.66 1859.6 L279.544 1859.6 L279.544 1865.48 L274.66 1865.48 L274.66 1859.6 Z" fill="#000000" fill-rule="evenodd" fill-opacity="1" /><path clip-path="url(#clip900)" d="M299.729 1834 Q296.118 1834 294.289 1837.57 Q292.484 1841.11 292.484 1848.24 Q292.484 1855.34 294.289 1858.91 Q296.118 1862.45 299.729 1862.45 Q303.363 1862.45 305.169 1858.91 Q306.998 1855.34 306.998 1848.24 Q306.998 1841.11 305.169 1837.57 Q303.363 1834 299.729 1834 M299.729 1830.3 Q305.539 1830.3 308.595 1834.9 Q311.674 1839.49 311.674 1848.24 Q311.674 1856.96 308.595 1861.57 Q305.539 1866.15 299.729 1866.15 Q293.919 1866.15 290.84 1861.57 Q287.785 1856.96 287.785 1848.24 Q287.785 1839.49 290.84 1834.9 Q293.919 1830.3 299.729 1830.3 Z" fill="#000000" fill-rule="evenodd" fill-opacity="1" /><path clip-path="url(#clip900)" d="M783.517 1848.65 L813.193 1848.65 L813.193 1852.59 L783.517 1852.59 L783.517 1848.65 Z" fill="#000000" fill-rule="evenodd" fill-opacity="1" /><path clip-path="url(#clip900)" d="M833.285 1834 Q829.674 1834 827.846 1837.57 Q826.04 1841.11 826.04 1848.24 Q826.04 1855.34 827.846 1858.91 Q829.674 1862.45 833.285 1862.45 Q836.92 1862.45 838.725 1858.91 Q840.554 1855.34 840.554 1848.24 Q840.554 1841.11 838.725 1837.57 Q836.92 1834 833.285 1834 M833.285 1830.3 Q839.096 1830.3 842.151 1834.9 Q845.23 1839.49 845.23 1848.24 Q845.23 1856.96 842.151 1861.57 Q839.096 1866.15 833.285 1866.15 Q827.475 1866.15 824.397 1861.57 Q821.341 1856.96 821.341 1848.24 Q821.341 1839.49 824.397 1834.9 Q827.475 1830.3 833.285 1830.3 Z" fill="#000000" fill-rule="evenodd" fill-opacity="1" /><path clip-path="url(#clip900)" d="M853.447 1859.6 L858.332 1859.6 L858.332 1865.48 L853.447 1865.48 L853.447 1859.6 Z" fill="#000000" fill-rule="evenodd" fill-opacity="1" /><path clip-path="url(#clip900)" d="M868.563 1830.92 L886.919 1830.92 L886.919 1834.86 L872.845 1834.86 L872.845 1843.33 Q873.864 1842.98 874.882 1842.82 Q875.901 1842.64 876.919 1842.64 Q882.706 1842.64 886.086 1845.81 Q889.466 1848.98 889.466 1854.4 Q889.466 1859.97 885.994 1863.08 Q882.521 1866.15 876.202 1866.15 Q874.026 1866.15 871.757 1865.78 Q869.512 1865.41 867.105 1864.67 L867.105 1859.97 Q869.188 1861.11 871.41 1861.66 Q873.632 1862.22 876.109 1862.22 Q880.114 1862.22 882.452 1860.11 Q884.79 1858.01 884.79 1854.4 Q884.79 1850.78 882.452 1848.68 Q880.114 1846.57 876.109 1846.57 Q874.234 1846.57 872.359 1846.99 Q870.507 1847.4 868.563 1848.28 L868.563 1830.92 Z" fill="#000000" fill-rule="evenodd" fill-opacity="1" /><path clip-path="url(#clip900)" d="M1392.17 1834 Q1388.55 1834 1386.73 1837.57 Q1384.92 1841.11 1384.92 1848.24 Q1384.92 1855.34 1386.73 1858.91 Q1388.55 1862.45 1392.17 1862.45 Q1395.8 1862.45 1397.61 1858.91 Q1399.43 1855.34 1399.43 1848.24 Q1399.43 1841.11 1397.61 1837.57 Q1395.8 1834 1392.17 1834 M1392.17 1830.3 Q1397.98 1830.3 1401.03 1834.9 Q1404.11 1839.49 1404.11 1848.24 Q1404.11 1856.96 1401.03 1861.57 Q1397.98 1866.15 1392.17 1866.15 Q1386.36 1866.15 1383.28 1861.57 Q1380.22 1856.96 1380.22 1848.24 Q1380.22 1839.49 1383.28 1834.9 Q1386.36 1830.3 1392.17 1830.3 Z" fill="#000000" fill-rule="evenodd" fill-opacity="1" /><path clip-path="url(#clip900)" d="M1412.33 1859.6 L1417.21 1859.6 L1417.21 1865.48 L1412.33 1865.48 L1412.33 1859.6 Z" fill="#000000" fill-rule="evenodd" fill-opacity="1" /><path clip-path="url(#clip900)" d="M1437.4 1834 Q1433.79 1834 1431.96 1837.57 Q1430.15 1841.11 1430.15 1848.24 Q1430.15 1855.34 1431.96 1858.91 Q1433.79 1862.45 1437.4 1862.45 Q1441.03 1862.45 1442.84 1858.91 Q1444.67 1855.34 1444.67 1848.24 Q1444.67 1841.11 1442.84 1837.57 Q1441.03 1834 1437.4 1834 M1437.4 1830.3 Q1443.21 1830.3 1446.26 1834.9 Q1449.34 1839.49 1449.34 1848.24 Q1449.34 1856.96 1446.26 1861.57 Q1443.21 1866.15 1437.4 1866.15 Q1431.59 1866.15 1428.51 1861.57 Q1425.45 1856.96 1425.45 1848.24 Q1425.45 1839.49 1428.51 1834.9 Q1431.59 1830.3 1437.4 1830.3 Z" fill="#000000" fill-rule="evenodd" fill-opacity="1" /><path clip-path="url(#clip900)" d="M1970.95 1834 Q1967.34 1834 1965.51 1837.57 Q1963.71 1841.11 1963.71 1848.24 Q1963.71 1855.34 1965.51 1858.91 Q1967.34 1862.45 1970.95 1862.45 Q1974.59 1862.45 1976.39 1858.91 Q1978.22 1855.34 1978.22 1848.24 Q1978.22 1841.11 1976.39 1837.57 Q1974.59 1834 1970.95 1834 M1970.95 1830.3 Q1976.76 1830.3 1979.82 1834.9 Q1982.9 1839.49 1982.9 1848.24 Q1982.9 1856.96 1979.82 1861.57 Q1976.76 1866.15 1970.95 1866.15 Q1965.14 1866.15 1962.06 1861.57 Q1959.01 1856.96 1959.01 1848.24 Q1959.01 1839.49 1962.06 1834.9 Q1965.14 1830.3 1970.95 1830.3 Z" fill="#000000" fill-rule="evenodd" fill-opacity="1" /><path clip-path="url(#clip900)" d="M1991.12 1859.6 L1996 1859.6 L1996 1865.48 L1991.12 1865.48 L1991.12 1859.6 Z" fill="#000000" fill-rule="evenodd" fill-opacity="1" /><path clip-path="url(#clip900)" d="M2006.23 1830.92 L2024.59 1830.92 L2024.59 1834.86 L2010.51 1834.86 L2010.51 1843.33 Q2011.53 1842.98 2012.55 1842.82 Q2013.57 1842.64 2014.59 1842.64 Q2020.37 1842.64 2023.75 1845.81 Q2027.13 1848.98 2027.13 1854.4 Q2027.13 1859.97 2023.66 1863.08 Q2020.19 1866.15 2013.87 1866.15 Q2011.69 1866.15 2009.43 1865.78 Q2007.18 1865.41 2004.77 1864.67 L2004.77 1859.97 Q2006.86 1861.11 2009.08 1861.66 Q2011.3 1862.22 2013.78 1862.22 Q2017.78 1862.22 2020.12 1860.11 Q2022.46 1858.01 2022.46 1854.4 Q2022.46 1850.78 2020.12 1848.68 Q2017.78 1846.57 2013.78 1846.57 Q2011.9 1846.57 2010.03 1846.99 Q2008.18 1847.4 2006.23 1848.28 L2006.23 1830.92 Z" fill="#000000" fill-rule="evenodd" fill-opacity="1" /><path clip-path="url(#clip900)" d="M2538.51 1861.55 L2546.15 1861.55 L2546.15 1835.18 L2537.84 1836.85 L2537.84 1832.59 L2546.11 1830.92 L2550.78 1830.92 L2550.78 1861.55 L2558.42 1861.55 L2558.42 1865.48 L2538.51 1865.48 L2538.51 1861.55 Z" fill="#000000" fill-rule="evenodd" fill-opacity="1" /><path clip-path="url(#clip900)" d="M2567.87 1859.6 L2572.75 1859.6 L2572.75 1865.48 L2567.87 1865.48 L2567.87 1859.6 Z" fill="#000000" fill-rule="evenodd" fill-opacity="1" /><path clip-path="url(#clip900)" d="M2592.94 1834 Q2589.32 1834 2587.5 1837.57 Q2585.69 1841.11 2585.69 1848.24 Q2585.69 1855.34 2587.5 1858.91 Q2589.32 1862.45 2592.94 1862.45 Q2596.57 1862.45 2598.37 1858.91 Q2600.2 1855.34 2600.2 1848.24 Q2600.2 1841.11 2598.37 1837.57 Q2596.57 1834 2592.94 1834 M2592.94 1830.3 Q2598.75 1830.3 2601.8 1834.9 Q2604.88 1839.49 2604.88 1848.24 Q2604.88 1856.96 2601.8 1861.57 Q2598.75 1866.15 2592.94 1866.15 Q2587.12 1866.15 2584.05 1861.57 Q2580.99 1856.96 2580.99 1848.24 Q2580.99 1839.49 2584.05 1834.9 Q2587.12 1830.3 2592.94 1830.3 Z" fill="#000000" fill-rule="evenodd" fill-opacity="1" /><polyline clip-path="url(#clip902)" style="stroke:#000000; stroke-linecap:butt; stroke-linejoin:round; stroke-width:2; stroke-opacity:0.1; fill:none" points="
  188.807,1751.18 2640.76,1751.18 
  "/>
<polyline clip-path="url(#clip902)" style="stroke:#000000; stroke-linecap:butt; stroke-linejoin:round; stroke-width:2; stroke-opacity:0.1; fill:none" points="
  188.807,1427.13 2640.76,1427.13 
  "/>
<polyline clip-path="url(#clip902)" style="stroke:#000000; stroke-linecap:butt; stroke-linejoin:round; stroke-width:2; stroke-opacity:0.1; fill:none" points="
  188.807,1103.07 2640.76,1103.07 
  "/>
<polyline clip-path="url(#clip902)" style="stroke:#000000; stroke-linecap:butt; stroke-linejoin:round; stroke-width:2; stroke-opacity:0.1; fill:none" points="
  188.807,779.02 2640.76,779.02 
  "/>
<polyline clip-path="url(#clip902)" style="stroke:#000000; stroke-linecap:butt; stroke-linejoin:round; stroke-width:2; stroke-opacity:0.1; fill:none" points="
  188.807,454.965 2640.76,454.965 
  "/>
<polyline clip-path="url(#clip902)" style="stroke:#000000; stroke-linecap:butt; stroke-linejoin:round; stroke-width:2; stroke-opacity:0.1; fill:none" points="
  188.807,130.911 2640.76,130.911 
  "/>
<polyline clip-path="url(#clip900)" style="stroke:#000000; stroke-linecap:butt; stroke-linejoin:round; stroke-width:4; stroke-opacity:1; fill:none" points="
  188.807,1800.78 188.807,47.2441 
  "/>
<polyline clip-path="url(#clip900)" style="stroke:#000000; stroke-linecap:butt; stroke-linejoin:round; stroke-width:4; stroke-opacity:1; fill:none" points="
  188.807,1751.18 207.704,1751.18 
  "/>
<polyline clip-path="url(#clip900)" style="stroke:#000000; stroke-linecap:butt; stroke-linejoin:round; stroke-width:4; stroke-opacity:1; fill:none" points="
  188.807,1427.13 207.704,1427.13 
  "/>
<polyline clip-path="url(#clip900)" style="stroke:#000000; stroke-linecap:butt; stroke-linejoin:round; stroke-width:4; stroke-opacity:1; fill:none" points="
  188.807,1103.07 207.704,1103.07 
  "/>
<polyline clip-path="url(#clip900)" style="stroke:#000000; stroke-linecap:butt; stroke-linejoin:round; stroke-width:4; stroke-opacity:1; fill:none" points="
  188.807,779.02 207.704,779.02 
  "/>
<polyline clip-path="url(#clip900)" style="stroke:#000000; stroke-linecap:butt; stroke-linejoin:round; stroke-width:4; stroke-opacity:1; fill:none" points="
  188.807,454.965 207.704,454.965 
  "/>
<polyline clip-path="url(#clip900)" style="stroke:#000000; stroke-linecap:butt; stroke-linejoin:round; stroke-width:4; stroke-opacity:1; fill:none" points="
  188.807,130.911 207.704,130.911 
  "/>
<path clip-path="url(#clip900)" d="M55.1771 1764.53 L71.4965 1764.53 L71.4965 1768.46 L49.5521 1768.46 L49.5521 1764.53 Q52.2141 1761.77 56.7975 1757.15 Q61.4039 1752.49 62.5845 1751.15 Q64.8298 1748.63 65.7094 1746.89 Q66.6122 1745.13 66.6122 1743.44 Q66.6122 1740.69 64.6678 1738.95 Q62.7465 1737.21 59.6447 1737.21 Q57.4456 1737.21 54.9919 1737.98 Q52.5614 1738.74 49.7836 1740.29 L49.7836 1735.57 Q52.6077 1734.44 55.0614 1733.86 Q57.515 1733.28 59.5521 1733.28 Q64.9224 1733.28 68.1168 1735.96 Q71.3113 1738.65 71.3113 1743.14 Q71.3113 1745.27 70.5011 1747.19 Q69.7141 1749.09 67.6076 1751.68 Q67.0289 1752.35 63.927 1755.57 Q60.8252 1758.77 55.1771 1764.53 Z" fill="#000000" fill-rule="evenodd" fill-opacity="1" /><path clip-path="url(#clip900)" d="M81.3112 1762.58 L86.1954 1762.58 L86.1954 1768.46 L81.3112 1768.46 L81.3112 1762.58 Z" fill="#000000" fill-rule="evenodd" fill-opacity="1" /><path clip-path="url(#clip900)" d="M106.381 1736.98 Q102.769 1736.98 100.941 1740.55 Q99.1352 1744.09 99.1352 1751.22 Q99.1352 1758.33 100.941 1761.89 Q102.769 1765.43 106.381 1765.43 Q110.015 1765.43 111.82 1761.89 Q113.649 1758.33 113.649 1751.22 Q113.649 1744.09 111.82 1740.55 Q110.015 1736.98 106.381 1736.98 M106.381 1733.28 Q112.191 1733.28 115.246 1737.89 Q118.325 1742.47 118.325 1751.22 Q118.325 1759.95 115.246 1764.55 Q112.191 1769.14 106.381 1769.14 Q100.57 1769.14 97.4917 1764.55 Q94.4361 1759.95 94.4361 1751.22 Q94.4361 1742.47 97.4917 1737.89 Q100.57 1733.28 106.381 1733.28 Z" fill="#000000" fill-rule="evenodd" fill-opacity="1" /><path clip-path="url(#clip900)" d="M136.542 1736.98 Q132.931 1736.98 131.103 1740.55 Q129.297 1744.09 129.297 1751.22 Q129.297 1758.33 131.103 1761.89 Q132.931 1765.43 136.542 1765.43 Q140.177 1765.43 141.982 1761.89 Q143.811 1758.33 143.811 1751.22 Q143.811 1744.09 141.982 1740.55 Q140.177 1736.98 136.542 1736.98 M136.542 1733.28 Q142.353 1733.28 145.408 1737.89 Q148.487 1742.47 148.487 1751.22 Q148.487 1759.95 145.408 1764.55 Q142.353 1769.14 136.542 1769.14 Q130.732 1769.14 127.654 1764.55 Q124.598 1759.95 124.598 1751.22 Q124.598 1742.47 127.654 1737.89 Q130.732 1733.28 136.542 1733.28 Z" fill="#000000" fill-rule="evenodd" fill-opacity="1" /><path clip-path="url(#clip900)" d="M56.1725 1440.47 L72.4918 1440.47 L72.4918 1444.41 L50.5475 1444.41 L50.5475 1440.47 Q53.2095 1437.72 57.7928 1433.09 Q62.3993 1428.44 63.5798 1427.09 Q65.8252 1424.57 66.7048 1422.84 Q67.6076 1421.08 67.6076 1419.39 Q67.6076 1416.63 65.6632 1414.9 Q63.7419 1413.16 60.64 1413.16 Q58.441 1413.16 55.9873 1413.92 Q53.5567 1414.69 50.779 1416.24 L50.779 1411.52 Q53.603 1410.38 56.0567 1409.8 Q58.5104 1409.22 60.5474 1409.22 Q65.9178 1409.22 69.1122 1411.91 Q72.3066 1414.6 72.3066 1419.09 Q72.3066 1421.22 71.4965 1423.14 Q70.7094 1425.03 68.6029 1427.63 Q68.0242 1428.3 64.9224 1431.52 Q61.8206 1434.71 56.1725 1440.47 Z" fill="#000000" fill-rule="evenodd" fill-opacity="1" /><path clip-path="url(#clip900)" d="M82.3066 1438.53 L87.1908 1438.53 L87.1908 1444.41 L82.3066 1444.41 L82.3066 1438.53 Z" fill="#000000" fill-rule="evenodd" fill-opacity="1" /><path clip-path="url(#clip900)" d="M107.376 1412.93 Q103.765 1412.93 101.936 1416.49 Q100.131 1420.03 100.131 1427.16 Q100.131 1434.27 101.936 1437.84 Q103.765 1441.38 107.376 1441.38 Q111.01 1441.38 112.816 1437.84 Q114.644 1434.27 114.644 1427.16 Q114.644 1420.03 112.816 1416.49 Q111.01 1412.93 107.376 1412.93 M107.376 1409.22 Q113.186 1409.22 116.242 1413.83 Q119.32 1418.41 119.32 1427.16 Q119.32 1435.89 116.242 1440.5 Q113.186 1445.08 107.376 1445.08 Q101.566 1445.08 98.487 1440.5 Q95.4315 1435.89 95.4315 1427.16 Q95.4315 1418.41 98.487 1413.83 Q101.566 1409.22 107.376 1409.22 Z" fill="#000000" fill-rule="evenodd" fill-opacity="1" /><path clip-path="url(#clip900)" d="M127.584 1409.85 L145.94 1409.85 L145.94 1413.78 L131.866 1413.78 L131.866 1422.26 Q132.885 1421.91 133.904 1421.75 Q134.922 1421.56 135.941 1421.56 Q141.728 1421.56 145.107 1424.73 Q148.487 1427.91 148.487 1433.32 Q148.487 1438.9 145.015 1442 Q141.542 1445.08 135.223 1445.08 Q133.047 1445.08 130.779 1444.71 Q128.533 1444.34 126.126 1443.6 L126.126 1438.9 Q128.209 1440.03 130.431 1440.59 Q132.654 1441.15 135.13 1441.15 Q139.135 1441.15 141.473 1439.04 Q143.811 1436.93 143.811 1433.32 Q143.811 1429.71 141.473 1427.6 Q139.135 1425.5 135.13 1425.5 Q133.255 1425.5 131.38 1425.91 Q129.529 1426.33 127.584 1427.21 L127.584 1409.85 Z" fill="#000000" fill-rule="evenodd" fill-opacity="1" /><path clip-path="url(#clip900)" d="M55.1771 1116.42 L71.4965 1116.42 L71.4965 1120.35 L49.5521 1120.35 L49.5521 1116.42 Q52.2141 1113.67 56.7975 1109.04 Q61.4039 1104.38 62.5845 1103.04 Q64.8298 1100.52 65.7094 1098.78 Q66.6122 1097.02 66.6122 1095.33 Q66.6122 1092.58 64.6678 1090.84 Q62.7465 1089.11 59.6447 1089.11 Q57.4456 1089.11 54.9919 1089.87 Q52.5614 1090.63 49.7836 1092.18 L49.7836 1087.46 Q52.6077 1086.33 55.0614 1085.75 Q57.515 1085.17 59.5521 1085.17 Q64.9224 1085.17 68.1168 1087.86 Q71.3113 1090.54 71.3113 1095.03 Q71.3113 1097.16 70.5011 1099.08 Q69.7141 1100.98 67.6076 1103.57 Q67.0289 1104.24 63.927 1107.46 Q60.8252 1110.66 55.1771 1116.42 Z" fill="#000000" fill-rule="evenodd" fill-opacity="1" /><path clip-path="url(#clip900)" d="M81.3112 1114.48 L86.1954 1114.48 L86.1954 1120.35 L81.3112 1120.35 L81.3112 1114.48 Z" fill="#000000" fill-rule="evenodd" fill-opacity="1" /><path clip-path="url(#clip900)" d="M97.1908 1116.42 L104.83 1116.42 L104.83 1090.05 L96.5195 1091.72 L96.5195 1087.46 L104.783 1085.79 L109.459 1085.79 L109.459 1116.42 L117.098 1116.42 L117.098 1120.35 L97.1908 1120.35 L97.1908 1116.42 Z" fill="#000000" fill-rule="evenodd" fill-opacity="1" /><path clip-path="url(#clip900)" d="M136.542 1088.87 Q132.931 1088.87 131.103 1092.44 Q129.297 1095.98 129.297 1103.11 Q129.297 1110.22 131.103 1113.78 Q132.931 1117.32 136.542 1117.32 Q140.177 1117.32 141.982 1113.78 Q143.811 1110.22 143.811 1103.11 Q143.811 1095.98 141.982 1092.44 Q140.177 1088.87 136.542 1088.87 M136.542 1085.17 Q142.353 1085.17 145.408 1089.78 Q148.487 1094.36 148.487 1103.11 Q148.487 1111.84 145.408 1116.44 Q142.353 1121.03 136.542 1121.03 Q130.732 1121.03 127.654 1116.44 Q124.598 1111.84 124.598 1103.11 Q124.598 1094.36 127.654 1089.78 Q130.732 1085.17 136.542 1085.17 Z" fill="#000000" fill-rule="evenodd" fill-opacity="1" /><path clip-path="url(#clip900)" d="M56.1725 792.365 L72.4918 792.365 L72.4918 796.3 L50.5475 796.3 L50.5475 792.365 Q53.2095 789.61 57.7928 784.981 Q62.3993 780.328 63.5798 778.985 Q65.8252 776.462 66.7048 774.726 Q67.6076 772.967 67.6076 771.277 Q67.6076 768.523 65.6632 766.786 Q63.7419 765.05 60.64 765.05 Q58.441 765.05 55.9873 765.814 Q53.5567 766.578 50.779 768.129 L50.779 763.407 Q53.603 762.273 56.0567 761.694 Q58.5104 761.115 60.5474 761.115 Q65.9178 761.115 69.1122 763.8 Q72.3066 766.486 72.3066 770.976 Q72.3066 773.106 71.4965 775.027 Q70.7094 776.925 68.6029 779.518 Q68.0242 780.189 64.9224 783.407 Q61.8206 786.601 56.1725 792.365 Z" fill="#000000" fill-rule="evenodd" fill-opacity="1" /><path clip-path="url(#clip900)" d="M82.3066 790.421 L87.1908 790.421 L87.1908 796.3 L82.3066 796.3 L82.3066 790.421 Z" fill="#000000" fill-rule="evenodd" fill-opacity="1" /><path clip-path="url(#clip900)" d="M98.1861 792.365 L105.825 792.365 L105.825 765.999 L97.5148 767.666 L97.5148 763.407 L105.779 761.74 L110.455 761.74 L110.455 792.365 L118.093 792.365 L118.093 796.3 L98.1861 796.3 L98.1861 792.365 Z" fill="#000000" fill-rule="evenodd" fill-opacity="1" /><path clip-path="url(#clip900)" d="M127.584 761.74 L145.94 761.74 L145.94 765.675 L131.866 765.675 L131.866 774.148 Q132.885 773.8 133.904 773.638 Q134.922 773.453 135.941 773.453 Q141.728 773.453 145.107 776.624 Q148.487 779.796 148.487 785.212 Q148.487 790.791 145.015 793.893 Q141.542 796.971 135.223 796.971 Q133.047 796.971 130.779 796.601 Q128.533 796.231 126.126 795.49 L126.126 790.791 Q128.209 791.925 130.431 792.481 Q132.654 793.036 135.13 793.036 Q139.135 793.036 141.473 790.93 Q143.811 788.823 143.811 785.212 Q143.811 781.601 141.473 779.495 Q139.135 777.388 135.13 777.388 Q133.255 777.388 131.38 777.805 Q129.529 778.222 127.584 779.101 L127.584 761.74 Z" fill="#000000" fill-rule="evenodd" fill-opacity="1" /><path clip-path="url(#clip900)" d="M55.1771 468.31 L71.4965 468.31 L71.4965 472.245 L49.5521 472.245 L49.5521 468.31 Q52.2141 465.556 56.7975 460.926 Q61.4039 456.273 62.5845 454.931 Q64.8298 452.408 65.7094 450.671 Q66.6122 448.912 66.6122 447.222 Q66.6122 444.468 64.6678 442.732 Q62.7465 440.996 59.6447 440.996 Q57.4456 440.996 54.9919 441.76 Q52.5614 442.523 49.7836 444.074 L49.7836 439.352 Q52.6077 438.218 55.0614 437.639 Q57.515 437.06 59.5521 437.06 Q64.9224 437.06 68.1168 439.746 Q71.3113 442.431 71.3113 446.922 Q71.3113 449.051 70.5011 450.972 Q69.7141 452.871 67.6076 455.463 Q67.0289 456.134 63.927 459.352 Q60.8252 462.546 55.1771 468.31 Z" fill="#000000" fill-rule="evenodd" fill-opacity="1" /><path clip-path="url(#clip900)" d="M81.3112 466.366 L86.1954 466.366 L86.1954 472.245 L81.3112 472.245 L81.3112 466.366 Z" fill="#000000" fill-rule="evenodd" fill-opacity="1" /><path clip-path="url(#clip900)" d="M100.408 468.31 L116.728 468.31 L116.728 472.245 L94.7834 472.245 L94.7834 468.31 Q97.4454 465.556 102.029 460.926 Q106.635 456.273 107.816 454.931 Q110.061 452.408 110.941 450.671 Q111.843 448.912 111.843 447.222 Q111.843 444.468 109.899 442.732 Q107.978 440.996 104.876 440.996 Q102.677 440.996 100.223 441.76 Q97.7926 442.523 95.0148 444.074 L95.0148 439.352 Q97.8389 438.218 100.293 437.639 Q102.746 437.06 104.783 437.06 Q110.154 437.06 113.348 439.746 Q116.543 442.431 116.543 446.922 Q116.543 449.051 115.732 450.972 Q114.945 452.871 112.839 455.463 Q112.26 456.134 109.158 459.352 Q106.056 462.546 100.408 468.31 Z" fill="#000000" fill-rule="evenodd" fill-opacity="1" /><path clip-path="url(#clip900)" d="M136.542 440.764 Q132.931 440.764 131.103 444.329 Q129.297 447.871 129.297 455 Q129.297 462.107 131.103 465.671 Q132.931 469.213 136.542 469.213 Q140.177 469.213 141.982 465.671 Q143.811 462.107 143.811 455 Q143.811 447.871 141.982 444.329 Q140.177 440.764 136.542 440.764 M136.542 437.06 Q142.353 437.06 145.408 441.667 Q148.487 446.25 148.487 455 Q148.487 463.727 145.408 468.333 Q142.353 472.917 136.542 472.917 Q130.732 472.917 127.654 468.333 Q124.598 463.727 124.598 455 Q124.598 446.25 127.654 441.667 Q130.732 437.06 136.542 437.06 Z" fill="#000000" fill-rule="evenodd" fill-opacity="1" /><path clip-path="url(#clip900)" d="M56.1725 144.256 L72.4918 144.256 L72.4918 148.191 L50.5475 148.191 L50.5475 144.256 Q53.2095 141.501 57.7928 136.871 Q62.3993 132.219 63.5798 130.876 Q65.8252 128.353 66.7048 126.617 Q67.6076 124.858 67.6076 123.168 Q67.6076 120.413 65.6632 118.677 Q63.7419 116.941 60.64 116.941 Q58.441 116.941 55.9873 117.705 Q53.5567 118.469 50.779 120.02 L50.779 115.297 Q53.603 114.163 56.0567 113.584 Q58.5104 113.006 60.5474 113.006 Q65.9178 113.006 69.1122 115.691 Q72.3066 118.376 72.3066 122.867 Q72.3066 124.996 71.4965 126.918 Q70.7094 128.816 68.6029 131.408 Q68.0242 132.08 64.9224 135.297 Q61.8206 138.492 56.1725 144.256 Z" fill="#000000" fill-rule="evenodd" fill-opacity="1" /><path clip-path="url(#clip900)" d="M82.3066 142.311 L87.1908 142.311 L87.1908 148.191 L82.3066 148.191 L82.3066 142.311 Z" fill="#000000" fill-rule="evenodd" fill-opacity="1" /><path clip-path="url(#clip900)" d="M101.404 144.256 L117.723 144.256 L117.723 148.191 L95.7787 148.191 L95.7787 144.256 Q98.4408 141.501 103.024 136.871 Q107.631 132.219 108.811 130.876 Q111.056 128.353 111.936 126.617 Q112.839 124.858 112.839 123.168 Q112.839 120.413 110.894 118.677 Q108.973 116.941 105.871 116.941 Q103.672 116.941 101.219 117.705 Q98.788 118.469 96.0102 120.02 L96.0102 115.297 Q98.8343 114.163 101.288 113.584 Q103.742 113.006 105.779 113.006 Q111.149 113.006 114.343 115.691 Q117.538 118.376 117.538 122.867 Q117.538 124.996 116.728 126.918 Q115.941 128.816 113.834 131.408 Q113.255 132.08 110.154 135.297 Q107.052 138.492 101.404 144.256 Z" fill="#000000" fill-rule="evenodd" fill-opacity="1" /><path clip-path="url(#clip900)" d="M127.584 113.631 L145.94 113.631 L145.94 117.566 L131.866 117.566 L131.866 126.038 Q132.885 125.691 133.904 125.529 Q134.922 125.344 135.941 125.344 Q141.728 125.344 145.107 128.515 Q148.487 131.686 148.487 137.103 Q148.487 142.681 145.015 145.783 Q141.542 148.862 135.223 148.862 Q133.047 148.862 130.779 148.492 Q128.533 148.121 126.126 147.381 L126.126 142.681 Q128.209 143.816 130.431 144.371 Q132.654 144.927 135.13 144.927 Q139.135 144.927 141.473 142.82 Q143.811 140.714 143.811 137.103 Q143.811 133.492 141.473 131.385 Q139.135 129.279 135.13 129.279 Q133.255 129.279 131.38 129.695 Q129.529 130.112 127.584 130.992 L127.584 113.631 Z" fill="#000000" fill-rule="evenodd" fill-opacity="1" /><polyline clip-path="url(#clip902)" style="stroke:#009af9; stroke-linecap:butt; stroke-linejoin:round; stroke-width:4; stroke-opacity:1; fill:none" points="
  258.202,96.8724 261.967,107.847 265.732,118.783 269.497,129.68 273.261,140.539 308.074,239.117 342.887,334.417 377.7,426.459 412.512,515.266 433.433,567.087 
  454.354,617.751 475.275,667.261 496.196,715.623 531.573,794.798 566.95,870.718 605.379,949.52 643.808,1024.52 679.237,1090.32 714.665,1152.92 752.648,1216.51 
  790.631,1276.45 812.634,1309.52 834.638,1341.37 856.641,1372.02 878.644,1401.46 917.753,1450.8 956.861,1496.36 991.155,1533.2 1025.45,1567.15 1062.84,1600.86 
  1100.23,1631.15 1137.84,1658.18 1175.45,1681.74 1217.04,1703.79 1258.62,1721.64 1298.19,1734.72 1337.76,1744 1378.9,1749.62 1420.04,1751.15 1454.67,1749.26 
  1489.3,1744.46 1531.58,1734.66 1573.87,1720.52 1612.6,1703.76 1651.33,1683.35 1687.1,1661.25 1722.88,1636.04 1759.11,1607.31 1795.35,1575.36 1835.96,1535.72 
  1876.57,1492.03 1913.37,1448.91 1950.17,1402.44 1971.24,1374.32 1992.3,1345.09 2013.37,1314.75 2034.44,1283.31 2073.45,1222.13 2112.46,1157.11 2150.92,1089.24 
  2189.38,1017.6 2226.72,944.428 2264.07,867.662 2302.35,785.222 2340.63,698.967 2361.6,650.09 2382.57,600.057 2403.54,548.864 2424.51,496.507 2454.97,418.368 
  2485.44,337.749 2515.9,254.637 2546.36,169.017 2552.61,151.14 2558.86,133.157 2565.11,115.068 2571.36,96.8724 
  "/>
<path clip-path="url(#clip900)" d="
M2234.16 209.375 L2559.02 209.375 L2559.02 105.695 L2234.16 105.695  Z
  " fill="#ffffff" fill-rule="evenodd" fill-opacity="1"/>
<polyline clip-path="url(#clip900)" style="stroke:#000000; stroke-linecap:butt; stroke-linejoin:round; stroke-width:4; stroke-opacity:1; fill:none" points="
  2234.16,209.375 2559.02,209.375 2559.02,105.695 2234.16,105.695 2234.16,209.375 
  "/>
<polyline clip-path="url(#clip900)" style="stroke:#009af9; stroke-linecap:butt; stroke-linejoin:round; stroke-width:4; stroke-opacity:1; fill:none" points="
  2261.4,157.535 2424.86,157.535 
  "/>
<path clip-path="url(#clip900)" d="M2465.95 177.223 Q2464.14 181.852 2462.43 183.264 Q2460.72 184.676 2457.85 184.676 L2454.44 184.676 L2454.44 181.112 L2456.94 181.112 Q2458.7 181.112 2459.68 180.278 Q2460.65 179.445 2461.83 176.343 L2462.59 174.399 L2452.11 148.889 L2456.62 148.889 L2464.72 169.167 L2472.82 148.889 L2477.34 148.889 L2465.95 177.223 Z" fill="#000000" fill-rule="evenodd" fill-opacity="1" /><path clip-path="url(#clip900)" d="M2484.63 170.88 L2492.27 170.88 L2492.27 144.515 L2483.96 146.181 L2483.96 141.922 L2492.22 140.255 L2496.9 140.255 L2496.9 170.88 L2504.54 170.88 L2504.54 174.815 L2484.63 174.815 L2484.63 170.88 Z" fill="#000000" fill-rule="evenodd" fill-opacity="1" /></svg>
