<?xml version="1.0" encoding="utf-8"?>
<svg xmlns="http://www.w3.org/2000/svg" xmlns:xlink="http://www.w3.org/1999/xlink" width="672" height="480" viewBox="0 0 2688 1920">
<defs>
  <clipPath id="clip130">
    <rect x="0" y="0" width="2688" height="1920"/>
  </clipPath>
</defs>
<path clip-path="url(#clip130)" d="
M0 1920 L2688 1920 L2688 0 L0 0  Z
  " fill="#ffffff" fill-rule="evenodd" fill-opacity="1"/>
<defs>
  <clipPath id="clip131">
    <rect x="537" y="0" width="1883" height="1883"/>
  </clipPath>
</defs>
<path clip-path="url(#clip130)" d="
M150.358 1800.78 L2640.76 1800.78 L2640.76 47.2441 L150.358 47.2441  Z
  " fill="#ffffff" fill-rule="evenodd" fill-opacity="1"/>
<defs>
  <clipPath id="clip132">
    <rect x="150" y="47" width="2491" height="1755"/>
  </clipPath>
</defs>
<polyline clip-path="url(#clip132)" style="stroke:#000000; stroke-linecap:round; stroke-linejoin:round; stroke-width:2; stroke-opacity:0.1; fill:none" points="
  220.767,1800.78 220.767,47.2441 
  "/>
<polyline clip-path="url(#clip132)" style="stroke:#000000; stroke-linecap:round; stroke-linejoin:round; stroke-width:2; stroke-opacity:0.1; fill:none" points="
  808.143,1800.78 808.143,47.2441 
  "/>
<polyline clip-path="url(#clip132)" style="stroke:#000000; stroke-linecap:round; stroke-linejoin:round; stroke-width:2; stroke-opacity:0.1; fill:none" points="
  1395.52,1800.78 1395.52,47.2441 
  "/>
<polyline clip-path="url(#clip132)" style="stroke:#000000; stroke-linecap:round; stroke-linejoin:round; stroke-width:2; stroke-opacity:0.1; fill:none" points="
  1982.9,1800.78 1982.9,47.2441 
  "/>
<polyline clip-path="url(#clip132)" style="stroke:#000000; stroke-linecap:round; stroke-linejoin:round; stroke-width:2; stroke-opacity:0.1; fill:none" points="
  2570.27,1800.78 2570.27,47.2441 
  "/>
<polyline clip-path="url(#clip130)" style="stroke:#000000; stroke-linecap:round; stroke-linejoin:round; stroke-width:4; stroke-opacity:1; fill:none" points="
  150.358,1800.78 2640.76,1800.78 
  "/>
<polyline clip-path="url(#clip130)" style="stroke:#000000; stroke-linecap:round; stroke-linejoin:round; stroke-width:4; stroke-opacity:1; fill:none" points="
  220.767,1800.78 220.767,1781.88 
  "/>
<polyline clip-path="url(#clip130)" style="stroke:#000000; stroke-linecap:round; stroke-linejoin:round; stroke-width:4; stroke-opacity:1; fill:none" points="
  808.143,1800.78 808.143,1781.88 
  "/>
<polyline clip-path="url(#clip130)" style="stroke:#000000; stroke-linecap:round; stroke-linejoin:round; stroke-width:4; stroke-opacity:1; fill:none" points="
  1395.52,1800.78 1395.52,1781.88 
  "/>
<polyline clip-path="url(#clip130)" style="stroke:#000000; stroke-linecap:round; stroke-linejoin:round; stroke-width:4; stroke-opacity:1; fill:none" points="
  1982.9,1800.78 1982.9,1781.88 
  "/>
<polyline clip-path="url(#clip130)" style="stroke:#000000; stroke-linecap:round; stroke-linejoin:round; stroke-width:4; stroke-opacity:1; fill:none" points="
  2570.27,1800.78 2570.27,1781.88 
  "/>
<path clip-path="url(#clip130)" d="M167.295 1848.65 L196.97 1848.65 L196.97 1852.59 L167.295 1852.59 L167.295 1848.65 Z" fill="#000000" fill-rule="evenodd" fill-opacity="1" /><path clip-path="url(#clip130)" d="M207.873 1861.55 L215.512 1861.55 L215.512 1835.18 L207.202 1836.85 L207.202 1832.59 L215.466 1830.92 L220.142 1830.92 L220.142 1861.55 L227.781 1861.55 L227.781 1865.48 L207.873 1865.48 L207.873 1861.55 Z" fill="#000000" fill-rule="evenodd" fill-opacity="1" /><path clip-path="url(#clip130)" d="M237.225 1859.6 L242.109 1859.6 L242.109 1865.48 L237.225 1865.48 L237.225 1859.6 Z" fill="#000000" fill-rule="evenodd" fill-opacity="1" /><path clip-path="url(#clip130)" d="M262.294 1834 Q258.683 1834 256.854 1837.57 Q255.049 1841.11 255.049 1848.24 Q255.049 1855.34 256.854 1858.91 Q258.683 1862.45 262.294 1862.45 Q265.928 1862.45 267.734 1858.91 Q269.563 1855.34 269.563 1848.24 Q269.563 1841.11 267.734 1837.57 Q265.928 1834 262.294 1834 M262.294 1830.3 Q268.104 1830.3 271.16 1834.9 Q274.239 1839.49 274.239 1848.24 Q274.239 1856.96 271.16 1861.57 Q268.104 1866.15 262.294 1866.15 Q256.484 1866.15 253.405 1861.57 Q250.35 1856.96 250.35 1848.24 Q250.35 1839.49 253.405 1834.9 Q256.484 1830.3 262.294 1830.3 Z" fill="#000000" fill-rule="evenodd" fill-opacity="1" /><path clip-path="url(#clip130)" d="M755.169 1848.65 L784.845 1848.65 L784.845 1852.59 L755.169 1852.59 L755.169 1848.65 Z" fill="#000000" fill-rule="evenodd" fill-opacity="1" /><path clip-path="url(#clip130)" d="M804.937 1834 Q801.326 1834 799.497 1837.57 Q797.692 1841.11 797.692 1848.24 Q797.692 1855.34 799.497 1858.91 Q801.326 1862.45 804.937 1862.45 Q808.571 1862.45 810.377 1858.91 Q812.206 1855.34 812.206 1848.24 Q812.206 1841.11 810.377 1837.57 Q808.571 1834 804.937 1834 M804.937 1830.3 Q810.747 1830.3 813.803 1834.9 Q816.882 1839.49 816.882 1848.24 Q816.882 1856.96 813.803 1861.57 Q810.747 1866.15 804.937 1866.15 Q799.127 1866.15 796.048 1861.57 Q792.993 1856.96 792.993 1848.24 Q792.993 1839.49 796.048 1834.9 Q799.127 1830.3 804.937 1830.3 Z" fill="#000000" fill-rule="evenodd" fill-opacity="1" /><path clip-path="url(#clip130)" d="M825.099 1859.6 L829.983 1859.6 L829.983 1865.48 L825.099 1865.48 L825.099 1859.6 Z" fill="#000000" fill-rule="evenodd" fill-opacity="1" /><path clip-path="url(#clip130)" d="M840.215 1830.92 L858.571 1830.92 L858.571 1834.86 L844.497 1834.86 L844.497 1843.33 Q845.516 1842.98 846.534 1842.82 Q847.553 1842.64 848.571 1842.64 Q854.358 1842.64 857.738 1845.81 Q861.117 1848.98 861.117 1854.4 Q861.117 1859.97 857.645 1863.08 Q854.173 1866.15 847.854 1866.15 Q845.678 1866.15 843.409 1865.78 Q841.164 1865.41 838.756 1864.67 L838.756 1859.97 Q840.84 1861.11 843.062 1861.66 Q845.284 1862.22 847.761 1862.22 Q851.766 1862.22 854.104 1860.11 Q856.442 1858.01 856.442 1854.4 Q856.442 1850.78 854.104 1848.68 Q851.766 1846.57 847.761 1846.57 Q845.886 1846.57 844.011 1846.99 Q842.159 1847.4 840.215 1848.28 L840.215 1830.92 Z" fill="#000000" fill-rule="evenodd" fill-opacity="1" /><path clip-path="url(#clip130)" d="M1372.9 1834 Q1369.29 1834 1367.46 1837.57 Q1365.66 1841.11 1365.66 1848.24 Q1365.66 1855.34 1367.46 1858.91 Q1369.29 1862.45 1372.9 1862.45 Q1376.54 1862.45 1378.34 1858.91 Q1380.17 1855.34 1380.17 1848.24 Q1380.17 1841.11 1378.34 1837.57 Q1376.54 1834 1372.9 1834 M1372.9 1830.3 Q1378.71 1830.3 1381.77 1834.9 Q1384.85 1839.49 1384.85 1848.24 Q1384.85 1856.96 1381.77 1861.57 Q1378.71 1866.15 1372.9 1866.15 Q1367.09 1866.15 1364.02 1861.57 Q1360.96 1856.96 1360.96 1848.24 Q1360.96 1839.49 1364.02 1834.9 Q1367.09 1830.3 1372.9 1830.3 Z" fill="#000000" fill-rule="evenodd" fill-opacity="1" /><path clip-path="url(#clip130)" d="M1393.07 1859.6 L1397.95 1859.6 L1397.95 1865.48 L1393.07 1865.48 L1393.07 1859.6 Z" fill="#000000" fill-rule="evenodd" fill-opacity="1" /><path clip-path="url(#clip130)" d="M1418.14 1834 Q1414.52 1834 1412.7 1837.57 Q1410.89 1841.11 1410.89 1848.24 Q1410.89 1855.34 1412.7 1858.91 Q1414.52 1862.45 1418.14 1862.45 Q1421.77 1862.45 1423.58 1858.91 Q1425.4 1855.34 1425.4 1848.24 Q1425.4 1841.11 1423.58 1837.57 Q1421.77 1834 1418.14 1834 M1418.14 1830.3 Q1423.95 1830.3 1427 1834.9 Q1430.08 1839.49 1430.08 1848.24 Q1430.08 1856.96 1427 1861.57 Q1423.95 1866.15 1418.14 1866.15 Q1412.33 1866.15 1409.25 1861.57 Q1406.19 1856.96 1406.19 1848.24 Q1406.19 1839.49 1409.25 1834.9 Q1412.33 1830.3 1418.14 1830.3 Z" fill="#000000" fill-rule="evenodd" fill-opacity="1" /><path clip-path="url(#clip130)" d="M1960.78 1834 Q1957.17 1834 1955.34 1837.57 Q1953.53 1841.11 1953.53 1848.24 Q1953.53 1855.34 1955.34 1858.91 Q1957.17 1862.45 1960.78 1862.45 Q1964.41 1862.45 1966.22 1858.91 Q1968.05 1855.34 1968.05 1848.24 Q1968.05 1841.11 1966.22 1837.57 Q1964.41 1834 1960.78 1834 M1960.78 1830.3 Q1966.59 1830.3 1969.64 1834.9 Q1972.72 1839.49 1972.72 1848.24 Q1972.72 1856.96 1969.64 1861.57 Q1966.59 1866.15 1960.78 1866.15 Q1954.97 1866.15 1951.89 1861.57 Q1948.83 1856.96 1948.83 1848.24 Q1948.83 1839.49 1951.89 1834.9 Q1954.97 1830.3 1960.78 1830.3 Z" fill="#000000" fill-rule="evenodd" fill-opacity="1" /><path clip-path="url(#clip130)" d="M1980.94 1859.6 L1985.82 1859.6 L1985.82 1865.48 L1980.94 1865.48 L1980.94 1859.6 Z" fill="#000000" fill-rule="evenodd" fill-opacity="1" /><path clip-path="url(#clip130)" d="M1996.06 1830.92 L2014.41 1830.92 L2014.41 1834.86 L2000.34 1834.86 L2000.34 1843.33 Q2001.36 1842.98 2002.38 1842.82 Q2003.39 1842.64 2004.41 1842.64 Q2010.2 1842.64 2013.58 1845.81 Q2016.96 1848.98 2016.96 1854.4 Q2016.96 1859.97 2013.49 1863.08 Q2010.01 1866.15 2003.69 1866.15 Q2001.52 1866.15 1999.25 1865.78 Q1997.01 1865.41 1994.6 1864.67 L1994.6 1859.97 Q1996.68 1861.11 1998.9 1861.66 Q2001.13 1862.22 2003.6 1862.22 Q2007.61 1862.22 2009.94 1860.11 Q2012.28 1858.01 2012.28 1854.4 Q2012.28 1850.78 2009.94 1848.68 Q2007.61 1846.57 2003.6 1846.57 Q2001.73 1846.57 1999.85 1846.99 Q1998 1847.4 1996.06 1848.28 L1996.06 1830.92 Z" fill="#000000" fill-rule="evenodd" fill-opacity="1" /><path clip-path="url(#clip130)" d="M2537.43 1861.55 L2545.06 1861.55 L2545.06 1835.18 L2536.75 1836.85 L2536.75 1832.59 L2545.02 1830.92 L2549.69 1830.92 L2549.69 1861.55 L2557.33 1861.55 L2557.33 1865.48 L2537.43 1865.48 L2537.43 1861.55 Z" fill="#000000" fill-rule="evenodd" fill-opacity="1" /><path clip-path="url(#clip130)" d="M2566.78 1859.6 L2571.66 1859.6 L2571.66 1865.48 L2566.78 1865.48 L2566.78 1859.6 Z" fill="#000000" fill-rule="evenodd" fill-opacity="1" /><path clip-path="url(#clip130)" d="M2591.85 1834 Q2588.24 1834 2586.41 1837.57 Q2584.6 1841.11 2584.6 1848.24 Q2584.6 1855.34 2586.41 1858.91 Q2588.24 1862.45 2591.85 1862.45 Q2595.48 1862.45 2597.29 1858.91 Q2599.12 1855.34 2599.12 1848.24 Q2599.12 1841.11 2597.29 1837.57 Q2595.48 1834 2591.85 1834 M2591.85 1830.3 Q2597.66 1830.3 2600.71 1834.9 Q2603.79 1839.49 2603.79 1848.24 Q2603.79 1856.96 2600.71 1861.57 Q2597.66 1866.15 2591.85 1866.15 Q2586.04 1866.15 2582.96 1861.57 Q2579.9 1856.96 2579.9 1848.24 Q2579.9 1839.49 2582.96 1834.9 Q2586.04 1830.3 2591.85 1830.3 Z" fill="#000000" fill-rule="evenodd" fill-opacity="1" /><polyline clip-path="url(#clip132)" style="stroke:#000000; stroke-linecap:round; stroke-linejoin:round; stroke-width:2; stroke-opacity:0.1; fill:none" points="
  150.358,1751.21 2640.76,1751.21 
  "/>
<polyline clip-path="url(#clip132)" style="stroke:#000000; stroke-linecap:round; stroke-linejoin:round; stroke-width:2; stroke-opacity:0.1; fill:none" points="
  150.358,1337.61 2640.76,1337.61 
  "/>
<polyline clip-path="url(#clip132)" style="stroke:#000000; stroke-linecap:round; stroke-linejoin:round; stroke-width:2; stroke-opacity:0.1; fill:none" points="
  150.358,924.02 2640.76,924.02 
  "/>
<polyline clip-path="url(#clip132)" style="stroke:#000000; stroke-linecap:round; stroke-linejoin:round; stroke-width:2; stroke-opacity:0.1; fill:none" points="
  150.358,510.427 2640.76,510.427 
  "/>
<polyline clip-path="url(#clip132)" style="stroke:#000000; stroke-linecap:round; stroke-linejoin:round; stroke-width:2; stroke-opacity:0.1; fill:none" points="
  150.358,96.8333 2640.76,96.8333 
  "/>
<polyline clip-path="url(#clip130)" style="stroke:#000000; stroke-linecap:round; stroke-linejoin:round; stroke-width:4; stroke-opacity:1; fill:none" points="
  150.358,1800.78 150.358,47.2441 
  "/>
<polyline clip-path="url(#clip130)" style="stroke:#000000; stroke-linecap:round; stroke-linejoin:round; stroke-width:4; stroke-opacity:1; fill:none" points="
  150.358,1751.21 169.256,1751.21 
  "/>
<polyline clip-path="url(#clip130)" style="stroke:#000000; stroke-linecap:round; stroke-linejoin:round; stroke-width:4; stroke-opacity:1; fill:none" points="
  150.358,1337.61 169.256,1337.61 
  "/>
<polyline clip-path="url(#clip130)" style="stroke:#000000; stroke-linecap:round; stroke-linejoin:round; stroke-width:4; stroke-opacity:1; fill:none" points="
  150.358,924.02 169.256,924.02 
  "/>
<polyline clip-path="url(#clip130)" style="stroke:#000000; stroke-linecap:round; stroke-linejoin:round; stroke-width:4; stroke-opacity:1; fill:none" points="
  150.358,510.427 169.256,510.427 
  "/>
<polyline clip-path="url(#clip130)" style="stroke:#000000; stroke-linecap:round; stroke-linejoin:round; stroke-width:4; stroke-opacity:1; fill:none" points="
  150.358,96.8333 169.256,96.8333 
  "/>
<path clip-path="url(#clip130)" d="M49.9225 1751.66 L79.5983 1751.66 L79.5983 1755.59 L49.9225 1755.59 L49.9225 1751.66 Z" fill="#000000" fill-rule="evenodd" fill-opacity="1" /><path clip-path="url(#clip130)" d="M93.7186 1764.55 L110.038 1764.55 L110.038 1768.49 L88.0936 1768.49 L88.0936 1764.55 Q90.7556 1761.8 95.3389 1757.17 Q99.9454 1752.51 101.126 1751.17 Q103.371 1748.65 104.251 1746.91 Q105.154 1745.15 105.154 1743.46 Q105.154 1740.71 103.209 1738.97 Q101.288 1737.24 98.1861 1737.24 Q95.9871 1737.24 93.5334 1738 Q91.1028 1738.77 88.3251 1740.32 L88.3251 1735.59 Q91.1491 1734.46 93.6028 1733.88 Q96.0565 1733.3 98.0935 1733.3 Q103.464 1733.3 106.658 1735.99 Q109.853 1738.67 109.853 1743.16 Q109.853 1745.29 109.043 1747.21 Q108.256 1749.11 106.149 1751.7 Q105.57 1752.38 102.469 1755.59 Q99.3667 1758.79 93.7186 1764.55 Z" fill="#000000" fill-rule="evenodd" fill-opacity="1" /><path clip-path="url(#clip130)" d="M49.5521 1338.07 L79.2279 1338.07 L79.2279 1342 L49.5521 1342 L49.5521 1338.07 Z" fill="#000000" fill-rule="evenodd" fill-opacity="1" /><path clip-path="url(#clip130)" d="M90.1306 1350.96 L97.7695 1350.96 L97.7695 1324.59 L89.4593 1326.26 L89.4593 1322 L97.7232 1320.33 L102.399 1320.33 L102.399 1350.96 L110.038 1350.96 L110.038 1354.89 L90.1306 1354.89 L90.1306 1350.96 Z" fill="#000000" fill-rule="evenodd" fill-opacity="1" /><path clip-path="url(#clip130)" d="M98.0935 909.819 Q94.4824 909.819 92.6537 913.384 Q90.8482 916.925 90.8482 924.055 Q90.8482 931.161 92.6537 934.726 Q94.4824 938.268 98.0935 938.268 Q101.728 938.268 103.533 934.726 Q105.362 931.161 105.362 924.055 Q105.362 916.925 103.533 913.384 Q101.728 909.819 98.0935 909.819 M98.0935 906.115 Q103.904 906.115 106.959 910.722 Q110.038 915.305 110.038 924.055 Q110.038 932.782 106.959 937.388 Q103.904 941.971 98.0935 941.971 Q92.2834 941.971 89.2047 937.388 Q86.1492 932.782 86.1492 924.055 Q86.1492 915.305 89.2047 910.722 Q92.2834 906.115 98.0935 906.115 Z" fill="#000000" fill-rule="evenodd" fill-opacity="1" /><path clip-path="url(#clip130)" d="M90.1306 523.772 L97.7695 523.772 L97.7695 497.406 L89.4593 499.073 L89.4593 494.813 L97.7232 493.147 L102.399 493.147 L102.399 523.772 L110.038 523.772 L110.038 527.707 L90.1306 527.707 L90.1306 523.772 Z" fill="#000000" fill-rule="evenodd" fill-opacity="1" /><path clip-path="url(#clip130)" d="M93.7186 110.178 L110.038 110.178 L110.038 114.113 L88.0936 114.113 L88.0936 110.178 Q90.7556 107.424 95.3389 102.794 Q99.9454 98.1411 101.126 96.7986 Q103.371 94.2754 104.251 92.5393 Q105.154 90.7801 105.154 89.0903 Q105.154 86.3357 103.209 84.5996 Q101.288 82.8635 98.1861 82.8635 Q95.9871 82.8635 93.5334 83.6273 Q91.1028 84.3912 88.3251 85.9421 L88.3251 81.2199 Q91.1491 80.0857 93.6028 79.507 Q96.0565 78.9283 98.0935 78.9283 Q103.464 78.9283 106.658 81.6135 Q109.853 84.2986 109.853 88.7893 Q109.853 90.919 109.043 92.8403 Q108.256 94.7384 106.149 97.331 Q105.57 98.0023 102.469 101.22 Q99.3667 104.414 93.7186 110.178 Z" fill="#000000" fill-rule="evenodd" fill-opacity="1" /><polyline clip-path="url(#clip132)" style="stroke:#009af9; stroke-linecap:round; stroke-linejoin:round; stroke-width:4; stroke-opacity:1; fill:none" points="
  2570.27,924.02 2569.36,891.475 2566.64,858.99 2562.1,826.624 2555.77,794.436 2547.66,762.486 2537.78,730.83 2526.18,699.525 2512.88,668.626 2497.91,638.187 
  2481.31,608.259 2463.14,578.893 2443.42,550.135 2422.23,522.032 2399.6,494.627 2375.6,467.961 2350.28,442.071 2323.72,416.994 2295.96,392.76 2267.09,369.401 
  2237.17,346.942 2206.27,325.408 2174.45,304.818 2141.8,285.191 2108.39,266.541 2074.27,248.879 2039.54,232.215 2004.26,216.554 1968.5,201.898 1932.33,188.248 
  1895.83,175.6 1859.06,163.951 1822.08,153.291 1784.97,143.611 1747.78,134.898 1710.58,127.137 1673.43,120.313 1636.38,114.406 1599.48,109.396 1562.79,105.262 
  1526.36,101.98 1490.24,99.5264 1454.46,97.8749 1419.06,96.9994 1384.09,96.8724 1349.57,97.4662 1315.55,98.7522 1282.04,100.702 1249.08,103.285 1216.68,106.475 
  1184.87,110.241 1153.66,114.554 1123.07,119.387 1093.11,124.711 1063.78,130.499 1035.11,136.725 1007.08,143.362 979.7,150.386 952.973,157.773 926.895,165.499 
  901.461,173.544 876.665,181.887 852.498,190.51 828.952,199.393 806.015,208.523 783.674,217.883 761.916,227.462 740.726,237.247 720.089,247.229 699.987,257.4 
  680.404,267.753 661.323,278.284 642.725,288.99 624.592,299.869 606.908,310.921 589.653,322.149 572.811,333.554 556.366,345.142 540.301,356.919 524.603,368.89 
  509.257,381.066 494.251,393.455 479.575,406.066 465.219,418.911 451.175,432.001 437.44,445.348 424.008,458.964 410.88,472.862 398.054,487.054 385.535,501.553 
  373.327,516.37 361.438,531.518 349.879,547.008 338.66,562.851 327.796,579.057 317.304,595.636 307.202,612.596 297.512,629.944 288.255,647.688 279.458,665.831 
  271.145,684.379 263.346,703.334 256.091,722.696 249.411,742.467 243.34,762.643 237.91,783.221 233.157,804.197 229.118,825.562 225.829,847.309 223.328,869.427 
  221.653,891.903 220.841,914.722 220.931,937.869 221.962,961.325 223.97,985.069 226.994,1009.08 231.069,1033.33 236.232,1057.8 242.516,1082.45 249.954,1107.26 
  258.579,1132.2 268.419,1157.22 279.502,1182.3 291.854,1207.4 305.498,1232.47 320.453,1257.48 336.739,1282.39 354.368,1307.14 373.353,1331.7 393.701,1356.02 
  415.418,1380.05 438.504,1403.75 462.955,1427.06 488.767,1449.93 515.927,1472.33 544.421,1494.19 574.23,1515.47 605.331,1536.11 637.697,1556.08 671.296,1575.32 
  706.093,1593.78 742.048,1611.42 779.116,1628.19 817.251,1644.05 856.399,1658.96 896.507,1672.87 937.514,1685.75 979.357,1697.56 1021.97,1708.27 1065.29,1717.85 
  1109.24,1726.27 1153.74,1733.5 1198.72,1739.52 1244.1,1744.31 1289.8,1747.85 1335.74,1750.14 1381.83,1751.15 1428,1750.89 1474.14,1749.35 1520.19,1746.54 
  1566.06,1742.44 1611.65,1737.09 1656.89,1730.47 1701.7,1722.62 1745.99,1713.54 1789.69,1703.25 1832.71,1691.79 1874.99,1679.17 1916.45,1665.43 1957.01,1650.6 
  1996.62,1634.72 2035.21,1617.82 2072.72,1599.94 2109.09,1581.12 2144.27,1561.42 2178.22,1540.86 2210.89,1519.52 2242.23,1497.42 2272.22,1474.62 2300.82,1451.17 
  2328,1427.13 2353.75,1402.54 2378.04,1377.46 2400.86,1351.94 2422.2,1326.03 2442.06,1299.79 2460.44,1273.26 2477.33,1246.5 2492.74,1219.55 2506.69,1192.47 
  2519.19,1165.3 2530.25,1138.09 2539.9,1110.89 2548.17,1083.73 2555.07,1056.66 2560.64,1029.73 2564.91,1002.96 2567.92,976.397 2569.69,950.073 2570.27,924.02 
  
  "/>
<path clip-path="url(#clip130)" d="
M2228.6 209.375 L2557.74 209.375 L2557.74 105.695 L2228.6 105.695  Z
  " fill="#ffffff" fill-rule="evenodd" fill-opacity="1"/>
<polyline clip-path="url(#clip130)" style="stroke:#000000; stroke-linecap:round; stroke-linejoin:round; stroke-width:4; stroke-opacity:1; fill:none" points="
  2228.6,209.375 2557.74,209.375 2557.74,105.695 2228.6,105.695 2228.6,209.375 
  "/>
<polyline clip-path="url(#clip130)" style="stroke:#009af9; stroke-linecap:round; stroke-linejoin:round; stroke-width:4; stroke-opacity:1; fill:none" points="
  2256.27,157.535 2422.3,157.535 
  "/>
<path clip-path="url(#clip130)" d="M2463.81 177.223 Q2462.01 181.852 2460.29 183.264 Q2458.58 184.676 2455.71 184.676 L2452.31 184.676 L2452.31 181.112 L2454.81 181.112 Q2456.57 181.112 2457.54 180.278 Q2458.51 179.445 2459.69 176.343 L2460.46 174.399 L2449.97 148.889 L2454.48 148.889 L2462.59 169.167 L2470.69 148.889 L2475.2 148.889 L2463.81 177.223 Z" fill="#000000" fill-rule="evenodd" fill-opacity="1" /><path clip-path="url(#clip130)" d="M2482.49 170.88 L2490.13 170.88 L2490.13 144.515 L2481.82 146.181 L2481.82 141.922 L2490.09 140.255 L2494.76 140.255 L2494.76 170.88 L2502.4 170.88 L2502.4 174.815 L2482.49 174.815 L2482.49 170.88 Z" fill="#000000" fill-rule="evenodd" fill-opacity="1" /></svg>
