<?xml version="1.0" encoding="utf-8"?>
<svg xmlns="http://www.w3.org/2000/svg" xmlns:xlink="http://www.w3.org/1999/xlink" width="672" height="480" viewBox="0 0 2688 1920">
<defs>
  <clipPath id="clip990">
    <rect x="0" y="0" width="2688" height="1920"/>
  </clipPath>
</defs>
<path clip-path="url(#clip990)" d="
M0 1920 L2688 1920 L2688 0 L0 0  Z
  " fill="#ffffff" fill-rule="evenodd" fill-opacity="1"/>
<defs>
  <clipPath id="clip991">
    <rect x="537" y="0" width="1883" height="1883"/>
  </clipPath>
</defs>
<path clip-path="url(#clip990)" d="
M150.358 1800.78 L2640.76 1800.78 L2640.76 47.2441 L150.358 47.2441  Z
  " fill="#ffffff" fill-rule="evenodd" fill-opacity="1"/>
<defs>
  <clipPath id="clip992">
    <rect x="150" y="47" width="2491" height="1755"/>
  </clipPath>
</defs>
<polyline clip-path="url(#clip992)" style="stroke:#000000; stroke-linecap:butt; stroke-linejoin:round; stroke-width:2; stroke-opacity:0.1; fill:none" points="
  220.839,1800.78 220.839,47.2441 
  "/>
<polyline clip-path="url(#clip992)" style="stroke:#000000; stroke-linecap:butt; stroke-linejoin:round; stroke-width:2; stroke-opacity:0.1; fill:none" points="
  808.197,1800.78 808.197,47.2441 
  "/>
<polyline clip-path="url(#clip992)" style="stroke:#000000; stroke-linecap:butt; stroke-linejoin:round; stroke-width:2; stroke-opacity:0.1; fill:none" points="
  1395.56,1800.78 1395.56,47.2441 
  "/>
<polyline clip-path="url(#clip992)" style="stroke:#000000; stroke-linecap:butt; stroke-linejoin:round; stroke-width:2; stroke-opacity:0.1; fill:none" points="
  1982.91,1800.78 1982.91,47.2441 
  "/>
<polyline clip-path="url(#clip992)" style="stroke:#000000; stroke-linecap:butt; stroke-linejoin:round; stroke-width:2; stroke-opacity:0.1; fill:none" points="
  2570.27,1800.78 2570.27,47.2441 
  "/>
<polyline clip-path="url(#clip990)" style="stroke:#000000; stroke-linecap:butt; stroke-linejoin:round; stroke-width:4; stroke-opacity:1; fill:none" points="
  150.358,1800.78 2640.76,1800.78 
  "/>
<polyline clip-path="url(#clip990)" style="stroke:#000000; stroke-linecap:butt; stroke-linejoin:round; stroke-width:4; stroke-opacity:1; fill:none" points="
  220.839,1800.78 220.839,1781.88 
  "/>
<polyline clip-path="url(#clip990)" style="stroke:#000000; stroke-linecap:butt; stroke-linejoin:round; stroke-width:4; stroke-opacity:1; fill:none" points="
  808.197,1800.78 808.197,1781.88 
  "/>
<polyline clip-path="url(#clip990)" style="stroke:#000000; stroke-linecap:butt; stroke-linejoin:round; stroke-width:4; stroke-opacity:1; fill:none" points="
  1395.56,1800.78 1395.56,1781.88 
  "/>
<polyline clip-path="url(#clip990)" style="stroke:#000000; stroke-linecap:butt; stroke-linejoin:round; stroke-width:4; stroke-opacity:1; fill:none" points="
  1982.91,1800.78 1982.91,1781.88 
  "/>
<polyline clip-path="url(#clip990)" style="stroke:#000000; stroke-linecap:butt; stroke-linejoin:round; stroke-width:4; stroke-opacity:1; fill:none" points="
  2570.27,1800.78 2570.27,1781.88 
  "/>
<path clip-path="url(#clip990)" d="M167.367 1848.65 L197.042 1848.65 L197.042 1852.59 L167.367 1852.59 L167.367 1848.65 Z" fill="#000000" fill-rule="evenodd" fill-opacity="1" /><path clip-path="url(#clip990)" d="M207.945 1861.55 L215.584 1861.55 L215.584 1835.18 L207.274 1836.85 L207.274 1832.59 L215.538 1830.92 L220.214 1830.92 L220.214 1861.55 L227.853 1861.55 L227.853 1865.48 L207.945 1865.48 L207.945 1861.55 Z" fill="#000000" fill-rule="evenodd" fill-opacity="1" /><path clip-path="url(#clip990)" d="M237.297 1859.6 L242.181 1859.6 L242.181 1865.48 L237.297 1865.48 L237.297 1859.6 Z" fill="#000000" fill-rule="evenodd" fill-opacity="1" /><path clip-path="url(#clip990)" d="M262.366 1834 Q258.755 1834 256.926 1837.57 Q255.121 1841.11 255.121 1848.24 Q255.121 1855.34 256.926 1858.91 Q258.755 1862.45 262.366 1862.45 Q266 1862.45 267.806 1858.91 Q269.635 1855.34 269.635 1848.24 Q269.635 1841.11 267.806 1837.57 Q266 1834 262.366 1834 M262.366 1830.3 Q268.176 1830.3 271.232 1834.9 Q274.311 1839.49 274.311 1848.24 Q274.311 1856.96 271.232 1861.57 Q268.176 1866.15 262.366 1866.15 Q256.556 1866.15 253.477 1861.57 Q250.422 1856.96 250.422 1848.24 Q250.422 1839.49 253.477 1834.9 Q256.556 1830.3 262.366 1830.3 Z" fill="#000000" fill-rule="evenodd" fill-opacity="1" /><path clip-path="url(#clip990)" d="M755.223 1848.65 L784.899 1848.65 L784.899 1852.59 L755.223 1852.59 L755.223 1848.65 Z" fill="#000000" fill-rule="evenodd" fill-opacity="1" /><path clip-path="url(#clip990)" d="M804.991 1834 Q801.38 1834 799.551 1837.57 Q797.746 1841.11 797.746 1848.24 Q797.746 1855.34 799.551 1858.91 Q801.38 1862.45 804.991 1862.45 Q808.625 1862.45 810.431 1858.91 Q812.26 1855.34 812.26 1848.24 Q812.26 1841.11 810.431 1837.57 Q808.625 1834 804.991 1834 M804.991 1830.3 Q810.801 1830.3 813.857 1834.9 Q816.936 1839.49 816.936 1848.24 Q816.936 1856.96 813.857 1861.57 Q810.801 1866.15 804.991 1866.15 Q799.181 1866.15 796.102 1861.57 Q793.047 1856.96 793.047 1848.24 Q793.047 1839.49 796.102 1834.9 Q799.181 1830.3 804.991 1830.3 Z" fill="#000000" fill-rule="evenodd" fill-opacity="1" /><path clip-path="url(#clip990)" d="M825.153 1859.6 L830.037 1859.6 L830.037 1865.48 L825.153 1865.48 L825.153 1859.6 Z" fill="#000000" fill-rule="evenodd" fill-opacity="1" /><path clip-path="url(#clip990)" d="M840.269 1830.92 L858.625 1830.92 L858.625 1834.86 L844.551 1834.86 L844.551 1843.33 Q845.57 1842.98 846.588 1842.82 Q847.607 1842.64 848.625 1842.64 Q854.412 1842.64 857.792 1845.81 Q861.171 1848.98 861.171 1854.4 Q861.171 1859.97 857.699 1863.08 Q854.227 1866.15 847.908 1866.15 Q845.732 1866.15 843.463 1865.78 Q841.218 1865.41 838.81 1864.67 L838.81 1859.97 Q840.894 1861.11 843.116 1861.66 Q845.338 1862.22 847.815 1862.22 Q851.82 1862.22 854.158 1860.11 Q856.496 1858.01 856.496 1854.4 Q856.496 1850.78 854.158 1848.68 Q851.82 1846.57 847.815 1846.57 Q845.94 1846.57 844.065 1846.99 Q842.213 1847.4 840.269 1848.28 L840.269 1830.92 Z" fill="#000000" fill-rule="evenodd" fill-opacity="1" /><path clip-path="url(#clip990)" d="M1372.94 1834 Q1369.33 1834 1367.5 1837.57 Q1365.69 1841.11 1365.69 1848.24 Q1365.69 1855.34 1367.5 1858.91 Q1369.33 1862.45 1372.94 1862.45 Q1376.57 1862.45 1378.38 1858.91 Q1380.21 1855.34 1380.21 1848.24 Q1380.21 1841.11 1378.38 1837.57 Q1376.57 1834 1372.94 1834 M1372.94 1830.3 Q1378.75 1830.3 1381.81 1834.9 Q1384.88 1839.49 1384.88 1848.24 Q1384.88 1856.96 1381.81 1861.57 Q1378.75 1866.15 1372.94 1866.15 Q1367.13 1866.15 1364.05 1861.57 Q1361 1856.96 1361 1848.24 Q1361 1839.49 1364.05 1834.9 Q1367.13 1830.3 1372.94 1830.3 Z" fill="#000000" fill-rule="evenodd" fill-opacity="1" /><path clip-path="url(#clip990)" d="M1393.1 1859.6 L1397.99 1859.6 L1397.99 1865.48 L1393.1 1865.48 L1393.1 1859.6 Z" fill="#000000" fill-rule="evenodd" fill-opacity="1" /><path clip-path="url(#clip990)" d="M1418.17 1834 Q1414.56 1834 1412.73 1837.57 Q1410.93 1841.11 1410.93 1848.24 Q1410.93 1855.34 1412.73 1858.91 Q1414.56 1862.45 1418.17 1862.45 Q1421.81 1862.45 1423.61 1858.91 Q1425.44 1855.34 1425.44 1848.24 Q1425.44 1841.11 1423.61 1837.57 Q1421.81 1834 1418.17 1834 M1418.17 1830.3 Q1423.98 1830.3 1427.04 1834.9 Q1430.12 1839.49 1430.12 1848.24 Q1430.12 1856.96 1427.04 1861.57 Q1423.98 1866.15 1418.17 1866.15 Q1412.36 1866.15 1409.28 1861.57 Q1406.23 1856.96 1406.23 1848.24 Q1406.23 1839.49 1409.28 1834.9 Q1412.36 1830.3 1418.17 1830.3 Z" fill="#000000" fill-rule="evenodd" fill-opacity="1" /><path clip-path="url(#clip990)" d="M1960.8 1834 Q1957.19 1834 1955.36 1837.57 Q1953.55 1841.11 1953.55 1848.24 Q1953.55 1855.34 1955.36 1858.91 Q1957.19 1862.45 1960.8 1862.45 Q1964.43 1862.45 1966.24 1858.91 Q1968.06 1855.34 1968.06 1848.24 Q1968.06 1841.11 1966.24 1837.57 Q1964.43 1834 1960.8 1834 M1960.8 1830.3 Q1966.61 1830.3 1969.66 1834.9 Q1972.74 1839.49 1972.74 1848.24 Q1972.74 1856.96 1969.66 1861.57 Q1966.61 1866.15 1960.8 1866.15 Q1954.99 1866.15 1951.91 1861.57 Q1948.85 1856.96 1948.85 1848.24 Q1948.85 1839.49 1951.91 1834.9 Q1954.99 1830.3 1960.8 1830.3 Z" fill="#000000" fill-rule="evenodd" fill-opacity="1" /><path clip-path="url(#clip990)" d="M1980.96 1859.6 L1985.84 1859.6 L1985.84 1865.48 L1980.96 1865.48 L1980.96 1859.6 Z" fill="#000000" fill-rule="evenodd" fill-opacity="1" /><path clip-path="url(#clip990)" d="M1996.07 1830.92 L2014.43 1830.92 L2014.43 1834.86 L2000.36 1834.86 L2000.36 1843.33 Q2001.37 1842.98 2002.39 1842.82 Q2003.41 1842.64 2004.43 1842.64 Q2010.22 1842.64 2013.6 1845.81 Q2016.98 1848.98 2016.98 1854.4 Q2016.98 1859.97 2013.5 1863.08 Q2010.03 1866.15 2003.71 1866.15 Q2001.54 1866.15 1999.27 1865.78 Q1997.02 1865.41 1994.62 1864.67 L1994.62 1859.97 Q1996.7 1861.11 1998.92 1861.66 Q2001.14 1862.22 2003.62 1862.22 Q2007.62 1862.22 2009.96 1860.11 Q2012.3 1858.01 2012.3 1854.4 Q2012.3 1850.78 2009.96 1848.68 Q2007.62 1846.57 2003.62 1846.57 Q2001.75 1846.57 1999.87 1846.99 Q1998.02 1847.4 1996.07 1848.28 L1996.07 1830.92 Z" fill="#000000" fill-rule="evenodd" fill-opacity="1" /><path clip-path="url(#clip990)" d="M2537.43 1861.55 L2545.06 1861.55 L2545.06 1835.18 L2536.75 1836.85 L2536.75 1832.59 L2545.02 1830.92 L2549.69 1830.92 L2549.69 1861.55 L2557.33 1861.55 L2557.33 1865.48 L2537.43 1865.48 L2537.43 1861.55 Z" fill="#000000" fill-rule="evenodd" fill-opacity="1" /><path clip-path="url(#clip990)" d="M2566.78 1859.6 L2571.66 1859.6 L2571.66 1865.48 L2566.78 1865.48 L2566.78 1859.6 Z" fill="#000000" fill-rule="evenodd" fill-opacity="1" /><path clip-path="url(#clip990)" d="M2591.85 1834 Q2588.24 1834 2586.41 1837.57 Q2584.6 1841.11 2584.6 1848.24 Q2584.6 1855.34 2586.41 1858.91 Q2588.24 1862.45 2591.85 1862.45 Q2595.48 1862.45 2597.29 1858.91 Q2599.12 1855.34 2599.12 1848.24 Q2599.12 1841.11 2597.29 1837.57 Q2595.48 1834 2591.85 1834 M2591.85 1830.3 Q2597.66 1830.3 2600.71 1834.9 Q2603.79 1839.49 2603.79 1848.24 Q2603.79 1856.96 2600.71 1861.57 Q2597.66 1866.15 2591.85 1866.15 Q2586.04 1866.15 2582.96 1861.57 Q2579.9 1856.96 2579.9 1848.24 Q2579.9 1839.49 2582.96 1834.9 Q2586.04 1830.3 2591.85 1830.3 Z" fill="#000000" fill-rule="evenodd" fill-opacity="1" /><polyline clip-path="url(#clip992)" style="stroke:#000000; stroke-linecap:butt; stroke-linejoin:round; stroke-width:2; stroke-opacity:0.1; fill:none" points="
  150.358,1751.27 2640.76,1751.27 
  "/>
<polyline clip-path="url(#clip992)" style="stroke:#000000; stroke-linecap:butt; stroke-linejoin:round; stroke-width:2; stroke-opacity:0.1; fill:none" points="
  150.358,1337.6 2640.76,1337.6 
  "/>
<polyline clip-path="url(#clip992)" style="stroke:#000000; stroke-linecap:butt; stroke-linejoin:round; stroke-width:2; stroke-opacity:0.1; fill:none" points="
  150.358,923.936 2640.76,923.936 
  "/>
<polyline clip-path="url(#clip992)" style="stroke:#000000; stroke-linecap:butt; stroke-linejoin:round; stroke-width:2; stroke-opacity:0.1; fill:none" points="
  150.358,510.27 2640.76,510.27 
  "/>
<polyline clip-path="url(#clip992)" style="stroke:#000000; stroke-linecap:butt; stroke-linejoin:round; stroke-width:2; stroke-opacity:0.1; fill:none" points="
  150.358,96.6043 2640.76,96.6043 
  "/>
<polyline clip-path="url(#clip990)" style="stroke:#000000; stroke-linecap:butt; stroke-linejoin:round; stroke-width:4; stroke-opacity:1; fill:none" points="
  150.358,1800.78 150.358,47.2441 
  "/>
<polyline clip-path="url(#clip990)" style="stroke:#000000; stroke-linecap:butt; stroke-linejoin:round; stroke-width:4; stroke-opacity:1; fill:none" points="
  150.358,1751.27 169.256,1751.27 
  "/>
<polyline clip-path="url(#clip990)" style="stroke:#000000; stroke-linecap:butt; stroke-linejoin:round; stroke-width:4; stroke-opacity:1; fill:none" points="
  150.358,1337.6 169.256,1337.6 
  "/>
<polyline clip-path="url(#clip990)" style="stroke:#000000; stroke-linecap:butt; stroke-linejoin:round; stroke-width:4; stroke-opacity:1; fill:none" points="
  150.358,923.936 169.256,923.936 
  "/>
<polyline clip-path="url(#clip990)" style="stroke:#000000; stroke-linecap:butt; stroke-linejoin:round; stroke-width:4; stroke-opacity:1; fill:none" points="
  150.358,510.27 169.256,510.27 
  "/>
<polyline clip-path="url(#clip990)" style="stroke:#000000; stroke-linecap:butt; stroke-linejoin:round; stroke-width:4; stroke-opacity:1; fill:none" points="
  150.358,96.6043 169.256,96.6043 
  "/>
<path clip-path="url(#clip990)" d="M49.9225 1751.72 L79.5983 1751.72 L79.5983 1755.65 L49.9225 1755.65 L49.9225 1751.72 Z" fill="#000000" fill-rule="evenodd" fill-opacity="1" /><path clip-path="url(#clip990)" d="M93.7186 1764.61 L110.038 1764.61 L110.038 1768.55 L88.0936 1768.55 L88.0936 1764.61 Q90.7556 1761.86 95.3389 1757.23 Q99.9454 1752.58 101.126 1751.23 Q103.371 1748.71 104.251 1746.97 Q105.154 1745.22 105.154 1743.53 Q105.154 1740.77 103.209 1739.03 Q101.288 1737.3 98.1861 1737.3 Q95.9871 1737.3 93.5334 1738.06 Q91.1028 1738.83 88.3251 1740.38 L88.3251 1735.66 Q91.1491 1734.52 93.6028 1733.94 Q96.0565 1733.36 98.0935 1733.36 Q103.464 1733.36 106.658 1736.05 Q109.853 1738.73 109.853 1743.22 Q109.853 1745.35 109.043 1747.28 Q108.256 1749.17 106.149 1751.77 Q105.57 1752.44 102.469 1755.65 Q99.3667 1758.85 93.7186 1764.61 Z" fill="#000000" fill-rule="evenodd" fill-opacity="1" /><path clip-path="url(#clip990)" d="M49.5521 1338.05 L79.2279 1338.05 L79.2279 1341.99 L49.5521 1341.99 L49.5521 1338.05 Z" fill="#000000" fill-rule="evenodd" fill-opacity="1" /><path clip-path="url(#clip990)" d="M90.1306 1350.95 L97.7695 1350.95 L97.7695 1324.58 L89.4593 1326.25 L89.4593 1321.99 L97.7232 1320.32 L102.399 1320.32 L102.399 1350.95 L110.038 1350.95 L110.038 1354.88 L90.1306 1354.88 L90.1306 1350.95 Z" fill="#000000" fill-rule="evenodd" fill-opacity="1" /><path clip-path="url(#clip990)" d="M98.0935 909.735 Q94.4824 909.735 92.6537 913.3 Q90.8482 916.842 90.8482 923.971 Q90.8482 931.078 92.6537 934.642 Q94.4824 938.184 98.0935 938.184 Q101.728 938.184 103.533 934.642 Q105.362 931.078 105.362 923.971 Q105.362 916.842 103.533 913.3 Q101.728 909.735 98.0935 909.735 M98.0935 906.031 Q103.904 906.031 106.959 910.638 Q110.038 915.221 110.038 923.971 Q110.038 932.698 106.959 937.304 Q103.904 941.888 98.0935 941.888 Q92.2834 941.888 89.2047 937.304 Q86.1492 932.698 86.1492 923.971 Q86.1492 915.221 89.2047 910.638 Q92.2834 906.031 98.0935 906.031 Z" fill="#000000" fill-rule="evenodd" fill-opacity="1" /><path clip-path="url(#clip990)" d="M90.1306 523.615 L97.7695 523.615 L97.7695 497.25 L89.4593 498.916 L89.4593 494.657 L97.7232 492.99 L102.399 492.99 L102.399 523.615 L110.038 523.615 L110.038 527.55 L90.1306 527.55 L90.1306 523.615 Z" fill="#000000" fill-rule="evenodd" fill-opacity="1" /><path clip-path="url(#clip990)" d="M93.7186 109.949 L110.038 109.949 L110.038 113.884 L88.0936 113.884 L88.0936 109.949 Q90.7556 107.195 95.3389 102.565 Q99.9454 97.9122 101.126 96.5696 Q103.371 94.0465 104.251 92.3104 Q105.154 90.5511 105.154 88.8613 Q105.154 86.1067 103.209 84.3706 Q101.288 82.6345 98.1861 82.6345 Q95.9871 82.6345 93.5334 83.3984 Q91.1028 84.1622 88.3251 85.7132 L88.3251 80.991 Q91.1491 79.8567 93.6028 79.278 Q96.0565 78.6993 98.0935 78.6993 Q103.464 78.6993 106.658 81.3845 Q109.853 84.0697 109.853 88.5604 Q109.853 90.69 109.043 92.6113 Q108.256 94.5094 106.149 97.102 Q105.57 97.7733 102.469 100.991 Q99.3667 104.185 93.7186 109.949 Z" fill="#000000" fill-rule="evenodd" fill-opacity="1" /><polyline clip-path="url(#clip992)" style="stroke:#009af9; stroke-linecap:butt; stroke-linejoin:round; stroke-width:4; stroke-opacity:1; fill:none" points="
  2570.27,923.936 2564.71,843.529 2548.12,764.023 2520.77,686.3 2483.11,611.197 2435.74,539.495 2379.42,471.894 2315.01,409.005 2243.47,351.338 2165.84,299.293 
  2083.19,253.159 1996.63,213.11 1907.23,179.211 1816.06,151.426 1724.1,129.62 1632.29,113.578 1541.47,103.011 1452.37,97.5726 1365.65,96.8724 1281.83,100.491 
  1201.32,107.992 1124.45,118.938 1051.42,132.901 982.348,149.476 917.253,168.288 856.083,189.006 798.714,211.343 744.967,235.073 694.619,260.023 647.416,286.086 
  603.09,313.215 561.374,341.422 522.019,370.775 484.813,401.386 449.59,433.406 416.251,467.008 384.772,502.38 355.208,539.708 327.701,579.165 302.476,620.901 
  279.84,665.033 260.174,711.636 243.922,760.733 231.584,812.29 223.701,866.212 220.841,922.333 223.579,980.416 232.486,1040.15 248.104,1101.15 270.931,1162.96 
  301.399,1225.04 339.855,1286.8 386.544,1347.59 441.591,1406.72 504.986,1463.46 576.575,1517.05 656.049,1566.76 742.945,1611.85 836.641,1651.63 936.371,1685.44 
  1041.22,1712.74 1150.17,1733.02 1262.09,1745.91 1375.76,1751.15 1489.92,1748.59 1603.3,1738.23 1714.62,1720.17 1822.64,1694.65 1926.2,1662.05 2024.22,1622.82 
  2115.74,1577.55 2199.94,1526.88 2276.15,1471.52 2343.85,1412.24 2402.68,1349.81 2452.48,1285.04 2493.19,1218.69 2524.95,1151.52 2548.01,1084.25 2562.73,1017.51 
  2569.6,951.906 2569.16,887.94 2562.02,826.054 2548.84,766.603 2530.27,709.866 2506.98,656.041 2479.63,605.257 2448.82,557.572 2415.1,512.982 2378.99,471.432 
  2340.91,432.819 2301.19,397.002 2260.11,363.816 2217.81,333.074 2174.4,304.582 2129.84,278.15 2084.06,253.601 2036.89,230.784 1988.13,209.581 1937.53,189.92 
  1884.83,171.779 1829.75,155.192 1772.06,140.249 1711.55,127.099 1648.07,115.945 1581.52,107.037 1511.89,100.671 1439.23,97.1764 1363.72,96.9083 1285.59,100.237 
  1205.2,107.538 1123.02,119.177 1039.61,135.499 955.616,156.814 871.808,183.385 789.023,215.414 708.176,253.029 630.24,296.274 556.228,345.1 487.168,399.356 
  424.087,458.785 367.979,523.024 319.781,591.601 280.35,663.947 250.434,739.398 230.654,817.207 221.482,896.565 223.222,976.61 236.005,1056.45 259.78,1135.19 
  294.311,1211.94 339.186,1285.83 393.824,1356.08 457.492,1421.94 529.325,1482.77 608.346,1538.02 693.496,1587.26 783.656,1630.17 877.681,1666.53 974.422,1696.28 
  1072.76,1719.42 1171.61,1736.1 1269.97,1746.53 1366.92,1751.02 1461.65,1749.96 1553.43,1743.76 1641.67,1732.91 1725.89,1717.88 1805.73,1699.2 1880.94,1677.34 
  1951.38,1652.8 2016.98,1626.03 2077.8,1597.44 2133.95,1567.4 2185.58,1536.22 2232.93,1504.17 2276.26,1471.43 2315.84,1438.13 2351.95,1404.33 2384.88,1370.03 
  2414.87,1335.18 2442.15,1299.66 2466.88,1263.32 2489.17,1226.01 2509.06,1187.52 2526.5,1147.67 2541.38,1106.3 2553.5,1063.25 2562.59,1018.43 2568.31,971.773 
  2570.27,923.273 2568.04,872.987 2561.15,821.036 2549.11,767.607 2531.44,712.959 2507.65,657.425 2477.33,601.403 2440.08,545.364 2395.58,489.839 2343.62,435.416 
  2284.06,382.73 2216.91,332.451 2142.3,285.275 2060.49,241.902 1971.91,203.027 1877.12,169.315 1776.82,141.392 1671.88,119.818 1563.26,105.078 1452.04,97.5612 
  1339.39,97.5504 1226.55,105.212 1114.77,120.586 1005.33,143.586 899.466,173.998 798.377,211.484 703.168,255.588 614.841,305.753 534.265,361.33 462.166,421.598 
  
  "/>
<path clip-path="url(#clip990)" d="
M2228.6 209.375 L2557.74 209.375 L2557.74 105.695 L2228.6 105.695  Z
  " fill="#ffffff" fill-rule="evenodd" fill-opacity="1"/>
<polyline clip-path="url(#clip990)" style="stroke:#000000; stroke-linecap:butt; stroke-linejoin:round; stroke-width:4; stroke-opacity:1; fill:none" points="
  2228.6,209.375 2557.74,209.375 2557.74,105.695 2228.6,105.695 2228.6,209.375 
  "/>
<polyline clip-path="url(#clip990)" style="stroke:#009af9; stroke-linecap:butt; stroke-linejoin:round; stroke-width:4; stroke-opacity:1; fill:none" points="
  2256.27,157.535 2422.3,157.535 
  "/>
<path clip-path="url(#clip990)" d="M2463.81 177.223 Q2462.01 181.852 2460.29 183.264 Q2458.58 184.676 2455.71 184.676 L2452.31 184.676 L2452.31 181.112 L2454.81 181.112 Q2456.57 181.112 2457.54 180.278 Q2458.51 179.445 2459.69 176.343 L2460.46 174.399 L2449.97 148.889 L2454.48 148.889 L2462.59 169.167 L2470.69 148.889 L2475.2 148.889 L2463.81 177.223 Z" fill="#000000" fill-rule="evenodd" fill-opacity="1" /><path clip-path="url(#clip990)" d="M2482.49 170.88 L2490.13 170.88 L2490.13 144.515 L2481.82 146.181 L2481.82 141.922 L2490.09 140.255 L2494.76 140.255 L2494.76 170.88 L2502.4 170.88 L2502.4 174.815 L2482.49 174.815 L2482.49 170.88 Z" fill="#000000" fill-rule="evenodd" fill-opacity="1" /></svg>
