<?xml version="1.0" encoding="utf-8"?>
<svg xmlns="http://www.w3.org/2000/svg" xmlns:xlink="http://www.w3.org/1999/xlink" width="672" height="480" viewBox="0 0 2688 1920">
<defs>
  <clipPath id="clip480">
    <rect x="0" y="0" width="2688" height="1920"/>
  </clipPath>
</defs>
<path clip-path="url(#clip480)" d="
M0 1920 L2688 1920 L2688 0 L0 0  Z
  " fill="#ffffff" fill-rule="evenodd" fill-opacity="1"/>
<defs>
  <clipPath id="clip481">
    <rect x="537" y="0" width="1883" height="1883"/>
  </clipPath>
</defs>
<path clip-path="url(#clip480)" d="
M150.358 1800.78 L2640.76 1800.78 L2640.76 47.2441 L150.358 47.2441  Z
  " fill="#ffffff" fill-rule="evenodd" fill-opacity="1"/>
<defs>
  <clipPath id="clip482">
    <rect x="150" y="47" width="2491" height="1755"/>
  </clipPath>
</defs>
<polyline clip-path="url(#clip482)" style="stroke:#000000; stroke-linecap:round; stroke-linejoin:round; stroke-width:2; stroke-opacity:0.1; fill:none" points="
  220.841,1800.78 220.841,47.2441 
  "/>
<polyline clip-path="url(#clip482)" style="stroke:#000000; stroke-linecap:round; stroke-linejoin:round; stroke-width:2; stroke-opacity:0.1; fill:none" points="
  808.199,1800.78 808.199,47.2441 
  "/>
<polyline clip-path="url(#clip482)" style="stroke:#000000; stroke-linecap:round; stroke-linejoin:round; stroke-width:2; stroke-opacity:0.1; fill:none" points="
  1395.56,1800.78 1395.56,47.2441 
  "/>
<polyline clip-path="url(#clip482)" style="stroke:#000000; stroke-linecap:round; stroke-linejoin:round; stroke-width:2; stroke-opacity:0.1; fill:none" points="
  1982.91,1800.78 1982.91,47.2441 
  "/>
<polyline clip-path="url(#clip482)" style="stroke:#000000; stroke-linecap:round; stroke-linejoin:round; stroke-width:2; stroke-opacity:0.1; fill:none" points="
  2570.27,1800.78 2570.27,47.2441 
  "/>
<polyline clip-path="url(#clip480)" style="stroke:#000000; stroke-linecap:round; stroke-linejoin:round; stroke-width:4; stroke-opacity:1; fill:none" points="
  150.358,1800.78 2640.76,1800.78 
  "/>
<polyline clip-path="url(#clip480)" style="stroke:#000000; stroke-linecap:round; stroke-linejoin:round; stroke-width:4; stroke-opacity:1; fill:none" points="
  220.841,1800.78 220.841,1781.88 
  "/>
<polyline clip-path="url(#clip480)" style="stroke:#000000; stroke-linecap:round; stroke-linejoin:round; stroke-width:4; stroke-opacity:1; fill:none" points="
  808.199,1800.78 808.199,1781.88 
  "/>
<polyline clip-path="url(#clip480)" style="stroke:#000000; stroke-linecap:round; stroke-linejoin:round; stroke-width:4; stroke-opacity:1; fill:none" points="
  1395.56,1800.78 1395.56,1781.88 
  "/>
<polyline clip-path="url(#clip480)" style="stroke:#000000; stroke-linecap:round; stroke-linejoin:round; stroke-width:4; stroke-opacity:1; fill:none" points="
  1982.91,1800.78 1982.91,1781.88 
  "/>
<polyline clip-path="url(#clip480)" style="stroke:#000000; stroke-linecap:round; stroke-linejoin:round; stroke-width:4; stroke-opacity:1; fill:none" points="
  2570.27,1800.78 2570.27,1781.88 
  "/>
<path clip-path="url(#clip480)" d="M167.369 1848.65 L197.045 1848.65 L197.045 1852.59 L167.369 1852.59 L167.369 1848.65 Z" fill="#000000" fill-rule="evenodd" fill-opacity="1" /><path clip-path="url(#clip480)" d="M207.947 1861.55 L215.586 1861.55 L215.586 1835.18 L207.276 1836.85 L207.276 1832.59 L215.54 1830.92 L220.216 1830.92 L220.216 1861.55 L227.855 1861.55 L227.855 1865.48 L207.947 1865.48 L207.947 1861.55 Z" fill="#000000" fill-rule="evenodd" fill-opacity="1" /><path clip-path="url(#clip480)" d="M237.299 1859.6 L242.183 1859.6 L242.183 1865.48 L237.299 1865.48 L237.299 1859.6 Z" fill="#000000" fill-rule="evenodd" fill-opacity="1" /><path clip-path="url(#clip480)" d="M262.368 1834 Q258.757 1834 256.929 1837.57 Q255.123 1841.11 255.123 1848.24 Q255.123 1855.34 256.929 1858.91 Q258.757 1862.45 262.368 1862.45 Q266.003 1862.45 267.808 1858.91 Q269.637 1855.34 269.637 1848.24 Q269.637 1841.11 267.808 1837.57 Q266.003 1834 262.368 1834 M262.368 1830.3 Q268.179 1830.3 271.234 1834.9 Q274.313 1839.49 274.313 1848.24 Q274.313 1856.96 271.234 1861.57 Q268.179 1866.15 262.368 1866.15 Q256.558 1866.15 253.48 1861.57 Q250.424 1856.96 250.424 1848.24 Q250.424 1839.49 253.48 1834.9 Q256.558 1830.3 262.368 1830.3 Z" fill="#000000" fill-rule="evenodd" fill-opacity="1" /><path clip-path="url(#clip480)" d="M755.225 1848.65 L784.9 1848.65 L784.9 1852.59 L755.225 1852.59 L755.225 1848.65 Z" fill="#000000" fill-rule="evenodd" fill-opacity="1" /><path clip-path="url(#clip480)" d="M804.993 1834 Q801.382 1834 799.553 1837.57 Q797.748 1841.11 797.748 1848.24 Q797.748 1855.34 799.553 1858.91 Q801.382 1862.45 804.993 1862.45 Q808.627 1862.45 810.433 1858.91 Q812.261 1855.34 812.261 1848.24 Q812.261 1841.11 810.433 1837.57 Q808.627 1834 804.993 1834 M804.993 1830.3 Q810.803 1830.3 813.859 1834.9 Q816.937 1839.49 816.937 1848.24 Q816.937 1856.96 813.859 1861.57 Q810.803 1866.15 804.993 1866.15 Q799.183 1866.15 796.104 1861.57 Q793.049 1856.96 793.049 1848.24 Q793.049 1839.49 796.104 1834.9 Q799.183 1830.3 804.993 1830.3 Z" fill="#000000" fill-rule="evenodd" fill-opacity="1" /><path clip-path="url(#clip480)" d="M825.155 1859.6 L830.039 1859.6 L830.039 1865.48 L825.155 1865.48 L825.155 1859.6 Z" fill="#000000" fill-rule="evenodd" fill-opacity="1" /><path clip-path="url(#clip480)" d="M840.27 1830.92 L858.627 1830.92 L858.627 1834.86 L844.553 1834.86 L844.553 1843.33 Q845.571 1842.98 846.59 1842.82 Q847.608 1842.64 848.627 1842.64 Q854.414 1842.64 857.794 1845.81 Q861.173 1848.98 861.173 1854.4 Q861.173 1859.97 857.701 1863.08 Q854.229 1866.15 847.909 1866.15 Q845.733 1866.15 843.465 1865.78 Q841.22 1865.41 838.812 1864.67 L838.812 1859.97 Q840.895 1861.11 843.118 1861.66 Q845.34 1862.22 847.817 1862.22 Q851.821 1862.22 854.159 1860.11 Q856.497 1858.01 856.497 1854.4 Q856.497 1850.78 854.159 1848.68 Q851.821 1846.57 847.817 1846.57 Q845.942 1846.57 844.067 1846.99 Q842.215 1847.4 840.27 1848.28 L840.27 1830.92 Z" fill="#000000" fill-rule="evenodd" fill-opacity="1" /><path clip-path="url(#clip480)" d="M1372.94 1834 Q1369.33 1834 1367.5 1837.57 Q1365.7 1841.11 1365.7 1848.24 Q1365.7 1855.34 1367.5 1858.91 Q1369.33 1862.45 1372.94 1862.45 Q1376.58 1862.45 1378.38 1858.91 Q1380.21 1855.34 1380.21 1848.24 Q1380.21 1841.11 1378.38 1837.57 Q1376.58 1834 1372.94 1834 M1372.94 1830.3 Q1378.75 1830.3 1381.81 1834.9 Q1384.89 1839.49 1384.89 1848.24 Q1384.89 1856.96 1381.81 1861.57 Q1378.75 1866.15 1372.94 1866.15 Q1367.13 1866.15 1364.05 1861.57 Q1361 1856.96 1361 1848.24 Q1361 1839.49 1364.05 1834.9 Q1367.13 1830.3 1372.94 1830.3 Z" fill="#000000" fill-rule="evenodd" fill-opacity="1" /><path clip-path="url(#clip480)" d="M1393.1 1859.6 L1397.99 1859.6 L1397.99 1865.48 L1393.1 1865.48 L1393.1 1859.6 Z" fill="#000000" fill-rule="evenodd" fill-opacity="1" /><path clip-path="url(#clip480)" d="M1418.17 1834 Q1414.56 1834 1412.73 1837.57 Q1410.93 1841.11 1410.93 1848.24 Q1410.93 1855.34 1412.73 1858.91 Q1414.56 1862.45 1418.17 1862.45 Q1421.81 1862.45 1423.61 1858.91 Q1425.44 1855.34 1425.44 1848.24 Q1425.44 1841.11 1423.61 1837.57 Q1421.81 1834 1418.17 1834 M1418.17 1830.3 Q1423.98 1830.3 1427.04 1834.9 Q1430.12 1839.49 1430.12 1848.24 Q1430.12 1856.96 1427.04 1861.57 Q1423.98 1866.15 1418.17 1866.15 Q1412.36 1866.15 1409.28 1861.57 Q1406.23 1856.96 1406.23 1848.24 Q1406.23 1839.49 1409.28 1834.9 Q1412.36 1830.3 1418.17 1830.3 Z" fill="#000000" fill-rule="evenodd" fill-opacity="1" /><path clip-path="url(#clip480)" d="M1960.8 1834 Q1957.19 1834 1955.36 1837.57 Q1953.55 1841.11 1953.55 1848.24 Q1953.55 1855.34 1955.36 1858.91 Q1957.19 1862.45 1960.8 1862.45 Q1964.43 1862.45 1966.24 1858.91 Q1968.07 1855.34 1968.07 1848.24 Q1968.07 1841.11 1966.24 1837.57 Q1964.43 1834 1960.8 1834 M1960.8 1830.3 Q1966.61 1830.3 1969.66 1834.9 Q1972.74 1839.49 1972.74 1848.24 Q1972.74 1856.96 1969.66 1861.57 Q1966.61 1866.15 1960.8 1866.15 Q1954.99 1866.15 1951.91 1861.57 Q1948.85 1856.96 1948.85 1848.24 Q1948.85 1839.49 1951.91 1834.9 Q1954.99 1830.3 1960.8 1830.3 Z" fill="#000000" fill-rule="evenodd" fill-opacity="1" /><path clip-path="url(#clip480)" d="M1980.96 1859.6 L1985.84 1859.6 L1985.84 1865.48 L1980.96 1865.48 L1980.96 1859.6 Z" fill="#000000" fill-rule="evenodd" fill-opacity="1" /><path clip-path="url(#clip480)" d="M1996.07 1830.92 L2014.43 1830.92 L2014.43 1834.86 L2000.36 1834.86 L2000.36 1843.33 Q2001.38 1842.98 2002.39 1842.82 Q2003.41 1842.64 2004.43 1842.64 Q2010.22 1842.64 2013.6 1845.81 Q2016.98 1848.98 2016.98 1854.4 Q2016.98 1859.97 2013.51 1863.08 Q2010.03 1866.15 2003.71 1866.15 Q2001.54 1866.15 1999.27 1865.78 Q1997.02 1865.41 1994.62 1864.67 L1994.62 1859.97 Q1996.7 1861.11 1998.92 1861.66 Q2001.14 1862.22 2003.62 1862.22 Q2007.63 1862.22 2009.96 1860.11 Q2012.3 1858.01 2012.3 1854.4 Q2012.3 1850.78 2009.96 1848.68 Q2007.63 1846.57 2003.62 1846.57 Q2001.75 1846.57 1999.87 1846.99 Q1998.02 1847.4 1996.07 1848.28 L1996.07 1830.92 Z" fill="#000000" fill-rule="evenodd" fill-opacity="1" /><path clip-path="url(#clip480)" d="M2537.43 1861.55 L2545.06 1861.55 L2545.06 1835.18 L2536.75 1836.85 L2536.75 1832.59 L2545.02 1830.92 L2549.69 1830.92 L2549.69 1861.55 L2557.33 1861.55 L2557.33 1865.48 L2537.43 1865.48 L2537.43 1861.55 Z" fill="#000000" fill-rule="evenodd" fill-opacity="1" /><path clip-path="url(#clip480)" d="M2566.78 1859.6 L2571.66 1859.6 L2571.66 1865.48 L2566.78 1865.48 L2566.78 1859.6 Z" fill="#000000" fill-rule="evenodd" fill-opacity="1" /><path clip-path="url(#clip480)" d="M2591.85 1834 Q2588.24 1834 2586.41 1837.57 Q2584.6 1841.11 2584.6 1848.24 Q2584.6 1855.34 2586.41 1858.91 Q2588.24 1862.45 2591.85 1862.45 Q2595.48 1862.45 2597.29 1858.91 Q2599.12 1855.34 2599.12 1848.24 Q2599.12 1841.11 2597.29 1837.57 Q2595.48 1834 2591.85 1834 M2591.85 1830.3 Q2597.66 1830.3 2600.71 1834.9 Q2603.79 1839.49 2603.79 1848.24 Q2603.79 1856.96 2600.71 1861.57 Q2597.66 1866.15 2591.85 1866.15 Q2586.04 1866.15 2582.96 1861.57 Q2579.9 1856.96 2579.9 1848.24 Q2579.9 1839.49 2582.96 1834.9 Q2586.04 1830.3 2591.85 1830.3 Z" fill="#000000" fill-rule="evenodd" fill-opacity="1" /><polyline clip-path="url(#clip482)" style="stroke:#000000; stroke-linecap:round; stroke-linejoin:round; stroke-width:2; stroke-opacity:0.1; fill:none" points="
  150.358,1794.01 2640.76,1794.01 
  "/>
<polyline clip-path="url(#clip482)" style="stroke:#000000; stroke-linecap:round; stroke-linejoin:round; stroke-width:2; stroke-opacity:0.1; fill:none" points="
  150.358,1359.01 2640.76,1359.01 
  "/>
<polyline clip-path="url(#clip482)" style="stroke:#000000; stroke-linecap:round; stroke-linejoin:round; stroke-width:2; stroke-opacity:0.1; fill:none" points="
  150.358,924.012 2640.76,924.012 
  "/>
<polyline clip-path="url(#clip482)" style="stroke:#000000; stroke-linecap:round; stroke-linejoin:round; stroke-width:2; stroke-opacity:0.1; fill:none" points="
  150.358,489.012 2640.76,489.012 
  "/>
<polyline clip-path="url(#clip482)" style="stroke:#000000; stroke-linecap:round; stroke-linejoin:round; stroke-width:2; stroke-opacity:0.1; fill:none" points="
  150.358,54.0121 2640.76,54.0121 
  "/>
<polyline clip-path="url(#clip480)" style="stroke:#000000; stroke-linecap:round; stroke-linejoin:round; stroke-width:4; stroke-opacity:1; fill:none" points="
  150.358,1800.78 150.358,47.2441 
  "/>
<polyline clip-path="url(#clip480)" style="stroke:#000000; stroke-linecap:round; stroke-linejoin:round; stroke-width:4; stroke-opacity:1; fill:none" points="
  150.358,1794.01 169.256,1794.01 
  "/>
<polyline clip-path="url(#clip480)" style="stroke:#000000; stroke-linecap:round; stroke-linejoin:round; stroke-width:4; stroke-opacity:1; fill:none" points="
  150.358,1359.01 169.256,1359.01 
  "/>
<polyline clip-path="url(#clip480)" style="stroke:#000000; stroke-linecap:round; stroke-linejoin:round; stroke-width:4; stroke-opacity:1; fill:none" points="
  150.358,924.012 169.256,924.012 
  "/>
<polyline clip-path="url(#clip480)" style="stroke:#000000; stroke-linecap:round; stroke-linejoin:round; stroke-width:4; stroke-opacity:1; fill:none" points="
  150.358,489.012 169.256,489.012 
  "/>
<polyline clip-path="url(#clip480)" style="stroke:#000000; stroke-linecap:round; stroke-linejoin:round; stroke-width:4; stroke-opacity:1; fill:none" points="
  150.358,54.0121 169.256,54.0121 
  "/>
<path clip-path="url(#clip480)" d="M49.9225 1794.46 L79.5983 1794.46 L79.5983 1798.4 L49.9225 1798.4 L49.9225 1794.46 Z" fill="#000000" fill-rule="evenodd" fill-opacity="1" /><path clip-path="url(#clip480)" d="M93.7186 1807.36 L110.038 1807.36 L110.038 1811.29 L88.0936 1811.29 L88.0936 1807.36 Q90.7556 1804.6 95.3389 1799.97 Q99.9454 1795.32 101.126 1793.98 Q103.371 1791.45 104.251 1789.72 Q105.154 1787.96 105.154 1786.27 Q105.154 1783.51 103.209 1781.78 Q101.288 1780.04 98.1861 1780.04 Q95.9871 1780.04 93.5334 1780.81 Q91.1028 1781.57 88.3251 1783.12 L88.3251 1778.4 Q91.1491 1777.26 93.6028 1776.69 Q96.0565 1776.11 98.0935 1776.11 Q103.464 1776.11 106.658 1778.79 Q109.853 1781.48 109.853 1785.97 Q109.853 1788.1 109.043 1790.02 Q108.256 1791.92 106.149 1794.51 Q105.57 1795.18 102.469 1798.4 Q99.3667 1801.59 93.7186 1807.36 Z" fill="#000000" fill-rule="evenodd" fill-opacity="1" /><path clip-path="url(#clip480)" d="M49.5521 1359.46 L79.2279 1359.46 L79.2279 1363.4 L49.5521 1363.4 L49.5521 1359.46 Z" fill="#000000" fill-rule="evenodd" fill-opacity="1" /><path clip-path="url(#clip480)" d="M90.1306 1372.36 L97.7695 1372.36 L97.7695 1345.99 L89.4593 1347.66 L89.4593 1343.4 L97.7232 1341.73 L102.399 1341.73 L102.399 1372.36 L110.038 1372.36 L110.038 1376.29 L90.1306 1376.29 L90.1306 1372.36 Z" fill="#000000" fill-rule="evenodd" fill-opacity="1" /><path clip-path="url(#clip480)" d="M98.0935 909.81 Q94.4824 909.81 92.6537 913.375 Q90.8482 916.917 90.8482 924.046 Q90.8482 931.153 92.6537 934.718 Q94.4824 938.259 98.0935 938.259 Q101.728 938.259 103.533 934.718 Q105.362 931.153 105.362 924.046 Q105.362 916.917 103.533 913.375 Q101.728 909.81 98.0935 909.81 M98.0935 906.107 Q103.904 906.107 106.959 910.713 Q110.038 915.296 110.038 924.046 Q110.038 932.773 106.959 937.38 Q103.904 941.963 98.0935 941.963 Q92.2834 941.963 89.2047 937.38 Q86.1492 932.773 86.1492 924.046 Q86.1492 915.296 89.2047 910.713 Q92.2834 906.107 98.0935 906.107 Z" fill="#000000" fill-rule="evenodd" fill-opacity="1" /><path clip-path="url(#clip480)" d="M90.1306 502.357 L97.7695 502.357 L97.7695 475.991 L89.4593 477.658 L89.4593 473.399 L97.7232 471.732 L102.399 471.732 L102.399 502.357 L110.038 502.357 L110.038 506.292 L90.1306 506.292 L90.1306 502.357 Z" fill="#000000" fill-rule="evenodd" fill-opacity="1" /><path clip-path="url(#clip480)" d="M93.7186 67.3569 L110.038 67.3569 L110.038 71.2921 L88.0936 71.2921 L88.0936 67.3569 Q90.7556 64.6023 95.3389 59.9727 Q99.9454 55.32 101.126 53.9774 Q103.371 51.4542 104.251 49.7181 Q105.154 47.9589 105.154 46.2691 Q105.154 43.5145 103.209 41.7784 Q101.288 40.0423 98.1861 40.0423 Q95.9871 40.0423 93.5334 40.8062 Q91.1028 41.57 88.3251 43.121 L88.3251 38.3988 Q91.1491 37.2645 93.6028 36.6858 Q96.0565 36.1071 98.0935 36.1071 Q103.464 36.1071 106.658 38.7923 Q109.853 41.4774 109.853 45.9682 Q109.853 48.0978 109.043 50.0191 Q108.256 51.9172 106.149 54.5098 Q105.57 55.1811 102.469 58.3986 Q99.3667 61.5931 93.7186 67.3569 Z" fill="#000000" fill-rule="evenodd" fill-opacity="1" /><polyline clip-path="url(#clip482)" style="stroke:#009af9; stroke-linecap:round; stroke-linejoin:round; stroke-width:12; stroke-opacity:1; fill:none" points="
  220.841,1607.31 220.987,1600.44 221.426,1593.57 222.158,1586.71 223.182,1579.84 224.499,1572.97 226.107,1566.1 228.006,1559.24 230.197,1552.37 232.678,1545.5 
  235.449,1538.63 238.509,1531.77 241.857,1524.9 245.493,1518.03 249.416,1511.17 253.624,1504.3 258.117,1497.43 262.893,1490.56 267.951,1483.7 273.291,1476.83 
  278.91,1469.96 284.808,1463.09 290.982,1456.23 297.431,1449.36 304.155,1442.49 311.15,1435.63 318.416,1428.76 325.95,1421.89 333.75,1415.02 341.815,1408.16 
  350.143,1401.29 358.731,1394.42 367.578,1387.55 376.681,1380.69 386.038,1373.82 395.646,1366.95 405.504,1360.09 415.608,1353.22 425.957,1346.35 436.547,1339.48 
  447.377,1332.62 458.442,1325.75 469.741,1318.88 481.271,1312.01 493.029,1305.15 505.011,1298.28 517.216,1291.41 529.639,1284.54 542.279,1277.68 555.131,1270.81 
  568.192,1263.94 581.46,1257.08 594.93,1250.21 608.6,1243.34 622.466,1236.47 636.525,1229.61 650.773,1222.74 665.207,1215.87 679.822,1209 694.616,1202.14 
  709.585,1195.27 724.725,1188.4 740.031,1181.54 755.502,1174.67 771.131,1167.8 786.917,1160.93 802.854,1154.07 818.938,1147.2 835.167,1140.33 851.535,1133.46 
  868.038,1126.6 884.674,1119.73 901.436,1112.86 918.322,1106 935.326,1099.13 952.445,1092.26 969.675,1085.39 987.011,1078.53 1004.45,1071.66 1021.98,1064.79 
  1039.61,1057.92 1057.33,1051.06 1075.13,1044.19 1093.01,1037.32 1110.97,1030.45 1128.99,1023.59 1147.09,1016.72 1165.24,1009.85 1183.46,1002.99 1201.72,996.118 
  1220.04,989.251 1238.4,982.384 1256.79,975.516 1275.23,968.649 1293.69,961.782 1312.17,954.915 1330.68,948.047 1349.21,941.18 1367.74,934.313 1386.28,927.445 
  1404.83,920.578 1423.37,913.711 1441.91,906.843 1460.43,899.976 1478.94,893.109 1497.43,886.242 1515.89,879.374 1534.32,872.507 1552.72,865.64 1571.08,858.772 
  1589.39,851.905 1607.66,845.038 1625.87,838.17 1644.03,831.303 1662.12,824.436 1680.15,817.569 1698.1,810.701 1715.98,803.834 1733.79,796.967 1751.5,790.099 
  1769.13,783.232 1786.67,776.365 1804.1,769.498 1821.44,762.63 1838.67,755.763 1855.79,748.896 1872.79,742.028 1889.68,735.161 1906.44,728.294 1923.08,721.426 
  1939.58,714.559 1955.95,707.692 1972.18,700.825 1988.26,693.957 2004.2,687.09 2019.98,680.223 2035.61,673.355 2051.08,666.488 2066.39,659.621 2081.53,652.753 
  2096.5,645.886 2111.29,639.019 2125.91,632.152 2140.34,625.284 2154.59,618.417 2168.65,611.55 2182.51,604.682 2196.18,597.815 2209.65,590.948 2222.92,584.08 
  2235.98,577.213 2248.84,570.346 2261.47,563.479 2273.9,556.611 2286.1,549.744 2298.09,542.877 2309.84,536.009 2321.37,529.142 2332.67,522.275 2343.74,515.408 
  2354.57,508.54 2365.16,501.673 2375.51,494.806 2385.61,487.938 2395.47,481.071 2405.08,474.204 2414.43,467.336 2423.54,460.469 2432.38,453.602 2440.97,446.735 
  2449.3,439.867 2457.36,433 2465.16,426.133 2472.7,419.265 2479.96,412.398 2486.96,405.531 2493.68,398.663 2500.13,391.796 2506.31,384.929 2512.2,378.062 
  2517.82,371.194 2523.16,364.327 2528.22,357.46 2533,350.592 2537.49,343.725 2541.7,336.858 2545.62,329.99 2549.26,323.123 2552.6,316.256 2555.66,309.389 
  2558.44,302.521 2560.92,295.654 2563.11,288.787 2565.01,281.919 2566.62,275.052 2567.93,268.185 2568.96,261.318 2569.69,254.45 2570.13,247.583 2570.27,240.716 
  
  "/>
<polyline clip-path="url(#clip482)" style="stroke:#ff0000; stroke-linecap:round; stroke-linejoin:round; stroke-width:12; stroke-opacity:1; fill:none" points="
  220.841,1607.31 236.137,1598.41 377.571,1516.14 462.568,1466.7 534.431,1424.9 612.494,1379.5 684.462,1337.63 761.619,1292.75 851.013,1240.76 930.456,1194.55 
  1000.12,1154.03 1076.07,1109.85 1152.48,1065.4 1236.95,1016.27 1317.33,969.516 1400.9,920.905 1471.25,879.985 1557.14,830.026 1635.82,784.261 1708.48,741.993 
  1782.09,699.176 1864.59,651.192 1939.34,607.71 2024.93,557.926 2104.18,511.83 2182.3,466.385 2258.16,422.262 2335.92,377.03 2421.12,327.474 2544.88,255.484 
  2570.27,240.716 
  "/>
<circle clip-path="url(#clip482)" cx="1395.56" cy="924.012" r="14.4" fill="#3da44d" fill-rule="evenodd" fill-opacity="1" stroke="#000000" stroke-opacity="1" stroke-width="3.84"/>
<circle clip-path="url(#clip482)" cx="2570.27" cy="240.716" r="14.4" fill="#3da44d" fill-rule="evenodd" fill-opacity="1" stroke="#000000" stroke-opacity="1" stroke-width="3.84"/>
<polyline clip-path="url(#clip482)" style="stroke:#ffa500; stroke-linecap:round; stroke-linejoin:round; stroke-width:4; stroke-opacity:1; fill:none" points="
  220.841,1463.46 236.137,1454.57 377.571,1372.3 462.568,1322.86 534.431,1281.06 612.494,1235.65 684.462,1193.79 761.619,1148.91 851.013,1096.91 930.456,1050.7 
  1000.12,1010.18 1076.07,966.003 1152.48,921.561 1236.95,872.425 1317.33,825.673 1400.9,777.062 1471.25,736.142 1557.14,686.183 1635.82,640.417 1708.48,598.149 
  1782.09,555.333 1864.59,507.348 1939.34,463.866 2024.93,414.082 2104.18,367.987 2182.3,322.542 2258.16,278.419 2335.92,233.187 2421.12,183.63 2544.88,111.641 
  2570.27,96.8724 
  "/>
<polyline clip-path="url(#clip482)" style="stroke:#ffa500; stroke-linecap:round; stroke-linejoin:round; stroke-width:4; stroke-opacity:1; fill:none" points="
  220.841,1751.15 236.137,1742.25 377.571,1659.99 462.568,1610.55 534.431,1568.75 612.494,1523.34 684.462,1481.48 761.619,1436.6 851.013,1384.6 930.456,1338.39 
  1000.12,1297.87 1076.07,1253.69 1152.48,1209.25 1236.95,1160.11 1317.33,1113.36 1400.9,1064.75 1471.25,1023.83 1557.14,973.869 1635.82,928.104 1708.48,885.836 
  1782.09,843.02 1864.59,795.035 1939.34,751.553 2024.93,701.769 2104.18,655.673 2182.3,610.228 2258.16,566.105 2335.92,520.874 2421.12,471.317 2544.88,399.328 
  2570.27,384.559 
  "/>
</svg>
