<?xml version="1.0" encoding="utf-8"?>
<svg xmlns="http://www.w3.org/2000/svg" xmlns:xlink="http://www.w3.org/1999/xlink" width="672" height="480" viewBox="0 0 2688 1920">
<defs>
  <clipPath id="clip490">
    <rect x="0" y="0" width="2688" height="1920"/>
  </clipPath>
</defs>
<path clip-path="url(#clip490)" d="
M0 1920 L2688 1920 L2688 0 L0 0  Z
  " fill="#ffffff" fill-rule="evenodd" fill-opacity="1"/>
<defs>
  <clipPath id="clip491">
    <rect x="537" y="0" width="1883" height="1883"/>
  </clipPath>
</defs>
<path clip-path="url(#clip490)" d="
M189.154 1800.78 L2640.76 1800.78 L2640.76 47.2441 L189.154 47.2441  Z
  " fill="#ffffff" fill-rule="evenodd" fill-opacity="1"/>
<defs>
  <clipPath id="clip492">
    <rect x="189" y="47" width="2453" height="1755"/>
  </clipPath>
</defs>
<polyline clip-path="url(#clip492)" style="stroke:#000000; stroke-linecap:butt; stroke-linejoin:round; stroke-width:2; stroke-opacity:0.1; fill:none" points="
  258.539,1800.78 258.539,47.2441 
  "/>
<polyline clip-path="url(#clip492)" style="stroke:#000000; stroke-linecap:butt; stroke-linejoin:round; stroke-width:2; stroke-opacity:0.1; fill:none" points="
  836.747,1800.78 836.747,47.2441 
  "/>
<polyline clip-path="url(#clip492)" style="stroke:#000000; stroke-linecap:butt; stroke-linejoin:round; stroke-width:2; stroke-opacity:0.1; fill:none" points="
  1414.95,1800.78 1414.95,47.2441 
  "/>
<polyline clip-path="url(#clip492)" style="stroke:#000000; stroke-linecap:butt; stroke-linejoin:round; stroke-width:2; stroke-opacity:0.1; fill:none" points="
  1993.16,1800.78 1993.16,47.2441 
  "/>
<polyline clip-path="url(#clip492)" style="stroke:#000000; stroke-linecap:butt; stroke-linejoin:round; stroke-width:2; stroke-opacity:0.1; fill:none" points="
  2571.37,1800.78 2571.37,47.2441 
  "/>
<polyline clip-path="url(#clip490)" style="stroke:#000000; stroke-linecap:butt; stroke-linejoin:round; stroke-width:4; stroke-opacity:1; fill:none" points="
  189.154,1800.78 2640.76,1800.78 
  "/>
<polyline clip-path="url(#clip490)" style="stroke:#000000; stroke-linecap:butt; stroke-linejoin:round; stroke-width:4; stroke-opacity:1; fill:none" points="
  258.539,1800.78 258.539,1781.88 
  "/>
<polyline clip-path="url(#clip490)" style="stroke:#000000; stroke-linecap:butt; stroke-linejoin:round; stroke-width:4; stroke-opacity:1; fill:none" points="
  836.747,1800.78 836.747,1781.88 
  "/>
<polyline clip-path="url(#clip490)" style="stroke:#000000; stroke-linecap:butt; stroke-linejoin:round; stroke-width:4; stroke-opacity:1; fill:none" points="
  1414.95,1800.78 1414.95,1781.88 
  "/>
<polyline clip-path="url(#clip490)" style="stroke:#000000; stroke-linecap:butt; stroke-linejoin:round; stroke-width:4; stroke-opacity:1; fill:none" points="
  1993.16,1800.78 1993.16,1781.88 
  "/>
<polyline clip-path="url(#clip490)" style="stroke:#000000; stroke-linecap:butt; stroke-linejoin:round; stroke-width:4; stroke-opacity:1; fill:none" points="
  2571.37,1800.78 2571.37,1781.88 
  "/>
<path clip-path="url(#clip490)" d="M205.067 1848.65 L234.743 1848.65 L234.743 1852.59 L205.067 1852.59 L205.067 1848.65 Z" fill="#000000" fill-rule="evenodd" fill-opacity="1" /><path clip-path="url(#clip490)" d="M245.646 1861.55 L253.284 1861.55 L253.284 1835.18 L244.974 1836.85 L244.974 1832.59 L253.238 1830.92 L257.914 1830.92 L257.914 1861.55 L265.553 1861.55 L265.553 1865.48 L245.646 1865.48 L245.646 1861.55 Z" fill="#000000" fill-rule="evenodd" fill-opacity="1" /><path clip-path="url(#clip490)" d="M274.997 1859.6 L279.881 1859.6 L279.881 1865.48 L274.997 1865.48 L274.997 1859.6 Z" fill="#000000" fill-rule="evenodd" fill-opacity="1" /><path clip-path="url(#clip490)" d="M300.067 1834 Q296.455 1834 294.627 1837.57 Q292.821 1841.11 292.821 1848.24 Q292.821 1855.34 294.627 1858.91 Q296.455 1862.45 300.067 1862.45 Q303.701 1862.45 305.506 1858.91 Q307.335 1855.34 307.335 1848.24 Q307.335 1841.11 305.506 1837.57 Q303.701 1834 300.067 1834 M300.067 1830.3 Q305.877 1830.3 308.932 1834.9 Q312.011 1839.49 312.011 1848.24 Q312.011 1856.96 308.932 1861.57 Q305.877 1866.15 300.067 1866.15 Q294.256 1866.15 291.178 1861.57 Q288.122 1856.96 288.122 1848.24 Q288.122 1839.49 291.178 1834.9 Q294.256 1830.3 300.067 1830.3 Z" fill="#000000" fill-rule="evenodd" fill-opacity="1" /><path clip-path="url(#clip490)" d="M783.773 1848.65 L813.448 1848.65 L813.448 1852.59 L783.773 1852.59 L783.773 1848.65 Z" fill="#000000" fill-rule="evenodd" fill-opacity="1" /><path clip-path="url(#clip490)" d="M833.541 1834 Q829.93 1834 828.101 1837.57 Q826.296 1841.11 826.296 1848.24 Q826.296 1855.34 828.101 1858.91 Q829.93 1862.45 833.541 1862.45 Q837.175 1862.45 838.981 1858.91 Q840.809 1855.34 840.809 1848.24 Q840.809 1841.11 838.981 1837.57 Q837.175 1834 833.541 1834 M833.541 1830.3 Q839.351 1830.3 842.407 1834.9 Q845.485 1839.49 845.485 1848.24 Q845.485 1856.96 842.407 1861.57 Q839.351 1866.15 833.541 1866.15 Q827.731 1866.15 824.652 1861.57 Q821.597 1856.96 821.597 1848.24 Q821.597 1839.49 824.652 1834.9 Q827.731 1830.3 833.541 1830.3 Z" fill="#000000" fill-rule="evenodd" fill-opacity="1" /><path clip-path="url(#clip490)" d="M853.703 1859.6 L858.587 1859.6 L858.587 1865.48 L853.703 1865.48 L853.703 1859.6 Z" fill="#000000" fill-rule="evenodd" fill-opacity="1" /><path clip-path="url(#clip490)" d="M868.819 1830.92 L887.175 1830.92 L887.175 1834.86 L873.101 1834.86 L873.101 1843.33 Q874.119 1842.98 875.138 1842.82 Q876.156 1842.64 877.175 1842.64 Q882.962 1842.64 886.342 1845.81 Q889.721 1848.98 889.721 1854.4 Q889.721 1859.97 886.249 1863.08 Q882.777 1866.15 876.457 1866.15 Q874.281 1866.15 872.013 1865.78 Q869.768 1865.41 867.36 1864.67 L867.36 1859.97 Q869.444 1861.11 871.666 1861.66 Q873.888 1862.22 876.365 1862.22 Q880.369 1862.22 882.707 1860.11 Q885.045 1858.01 885.045 1854.4 Q885.045 1850.78 882.707 1848.68 Q880.369 1846.57 876.365 1846.57 Q874.49 1846.57 872.615 1846.99 Q870.763 1847.4 868.819 1848.28 L868.819 1830.92 Z" fill="#000000" fill-rule="evenodd" fill-opacity="1" /><path clip-path="url(#clip490)" d="M1392.34 1834 Q1388.73 1834 1386.9 1837.57 Q1385.09 1841.11 1385.09 1848.24 Q1385.09 1855.34 1386.9 1858.91 Q1388.73 1862.45 1392.34 1862.45 Q1395.97 1862.45 1397.78 1858.91 Q1399.61 1855.34 1399.61 1848.24 Q1399.61 1841.11 1397.78 1837.57 Q1395.97 1834 1392.34 1834 M1392.34 1830.3 Q1398.15 1830.3 1401.21 1834.9 Q1404.28 1839.49 1404.28 1848.24 Q1404.28 1856.96 1401.21 1861.57 Q1398.15 1866.15 1392.34 1866.15 Q1386.53 1866.15 1383.45 1861.57 Q1380.39 1856.96 1380.39 1848.24 Q1380.39 1839.49 1383.45 1834.9 Q1386.53 1830.3 1392.34 1830.3 Z" fill="#000000" fill-rule="evenodd" fill-opacity="1" /><path clip-path="url(#clip490)" d="M1412.5 1859.6 L1417.39 1859.6 L1417.39 1865.48 L1412.5 1865.48 L1412.5 1859.6 Z" fill="#000000" fill-rule="evenodd" fill-opacity="1" /><path clip-path="url(#clip490)" d="M1437.57 1834 Q1433.96 1834 1432.13 1837.57 Q1430.33 1841.11 1430.33 1848.24 Q1430.33 1855.34 1432.13 1858.91 Q1433.96 1862.45 1437.57 1862.45 Q1441.2 1862.45 1443.01 1858.91 Q1444.84 1855.34 1444.84 1848.24 Q1444.84 1841.11 1443.01 1837.57 Q1441.2 1834 1437.57 1834 M1437.57 1830.3 Q1443.38 1830.3 1446.44 1834.9 Q1449.51 1839.49 1449.51 1848.24 Q1449.51 1856.96 1446.44 1861.57 Q1443.38 1866.15 1437.57 1866.15 Q1431.76 1866.15 1428.68 1861.57 Q1425.63 1856.96 1425.63 1848.24 Q1425.63 1839.49 1428.68 1834.9 Q1431.76 1830.3 1437.57 1830.3 Z" fill="#000000" fill-rule="evenodd" fill-opacity="1" /><path clip-path="url(#clip490)" d="M1971.05 1834 Q1967.43 1834 1965.61 1837.57 Q1963.8 1841.11 1963.8 1848.24 Q1963.8 1855.34 1965.61 1858.91 Q1967.43 1862.45 1971.05 1862.45 Q1974.68 1862.45 1976.48 1858.91 Q1978.31 1855.34 1978.31 1848.24 Q1978.31 1841.11 1976.48 1837.57 Q1974.68 1834 1971.05 1834 M1971.05 1830.3 Q1976.86 1830.3 1979.91 1834.9 Q1982.99 1839.49 1982.99 1848.24 Q1982.99 1856.96 1979.91 1861.57 Q1976.86 1866.15 1971.05 1866.15 Q1965.23 1866.15 1962.16 1861.57 Q1959.1 1856.96 1959.1 1848.24 Q1959.1 1839.49 1962.16 1834.9 Q1965.23 1830.3 1971.05 1830.3 Z" fill="#000000" fill-rule="evenodd" fill-opacity="1" /><path clip-path="url(#clip490)" d="M1991.21 1859.6 L1996.09 1859.6 L1996.09 1865.48 L1991.21 1865.48 L1991.21 1859.6 Z" fill="#000000" fill-rule="evenodd" fill-opacity="1" /><path clip-path="url(#clip490)" d="M2006.32 1830.92 L2024.68 1830.92 L2024.68 1834.86 L2010.6 1834.86 L2010.6 1843.33 Q2011.62 1842.98 2012.64 1842.82 Q2013.66 1842.64 2014.68 1842.64 Q2020.47 1842.64 2023.85 1845.81 Q2027.23 1848.98 2027.23 1854.4 Q2027.23 1859.97 2023.75 1863.08 Q2020.28 1866.15 2013.96 1866.15 Q2011.79 1866.15 2009.52 1865.78 Q2007.27 1865.41 2004.86 1864.67 L2004.86 1859.97 Q2006.95 1861.11 2009.17 1861.66 Q2011.39 1862.22 2013.87 1862.22 Q2017.87 1862.22 2020.21 1860.11 Q2022.55 1858.01 2022.55 1854.4 Q2022.55 1850.78 2020.21 1848.68 Q2017.87 1846.57 2013.87 1846.57 Q2011.99 1846.57 2010.12 1846.99 Q2008.27 1847.4 2006.32 1848.28 L2006.32 1830.92 Z" fill="#000000" fill-rule="evenodd" fill-opacity="1" /><path clip-path="url(#clip490)" d="M2538.52 1861.55 L2546.16 1861.55 L2546.16 1835.18 L2537.85 1836.85 L2537.85 1832.59 L2546.12 1830.92 L2550.79 1830.92 L2550.79 1861.55 L2558.43 1861.55 L2558.43 1865.48 L2538.52 1865.48 L2538.52 1861.55 Z" fill="#000000" fill-rule="evenodd" fill-opacity="1" /><path clip-path="url(#clip490)" d="M2567.88 1859.6 L2572.76 1859.6 L2572.76 1865.48 L2567.88 1865.48 L2567.88 1859.6 Z" fill="#000000" fill-rule="evenodd" fill-opacity="1" /><path clip-path="url(#clip490)" d="M2592.94 1834 Q2589.33 1834 2587.51 1837.57 Q2585.7 1841.11 2585.7 1848.24 Q2585.7 1855.34 2587.51 1858.91 Q2589.33 1862.45 2592.94 1862.45 Q2596.58 1862.45 2598.38 1858.91 Q2600.21 1855.34 2600.21 1848.24 Q2600.21 1841.11 2598.38 1837.57 Q2596.58 1834 2592.94 1834 M2592.94 1830.3 Q2598.76 1830.3 2601.81 1834.9 Q2604.89 1839.49 2604.89 1848.24 Q2604.89 1856.96 2601.81 1861.57 Q2598.76 1866.15 2592.94 1866.15 Q2587.13 1866.15 2584.06 1861.57 Q2581 1856.96 2581 1848.24 Q2581 1839.49 2584.06 1834.9 Q2587.13 1830.3 2592.94 1830.3 Z" fill="#000000" fill-rule="evenodd" fill-opacity="1" /><polyline clip-path="url(#clip492)" style="stroke:#000000; stroke-linecap:butt; stroke-linejoin:round; stroke-width:2; stroke-opacity:0.1; fill:none" points="
  189.154,1751.32 2640.76,1751.32 
  "/>
<polyline clip-path="url(#clip492)" style="stroke:#000000; stroke-linecap:butt; stroke-linejoin:round; stroke-width:2; stroke-opacity:0.1; fill:none" points="
  189.154,1337.71 2640.76,1337.71 
  "/>
<polyline clip-path="url(#clip492)" style="stroke:#000000; stroke-linecap:butt; stroke-linejoin:round; stroke-width:2; stroke-opacity:0.1; fill:none" points="
  189.154,924.095 2640.76,924.095 
  "/>
<polyline clip-path="url(#clip492)" style="stroke:#000000; stroke-linecap:butt; stroke-linejoin:round; stroke-width:2; stroke-opacity:0.1; fill:none" points="
  189.154,510.484 2640.76,510.484 
  "/>
<polyline clip-path="url(#clip492)" style="stroke:#000000; stroke-linecap:butt; stroke-linejoin:round; stroke-width:2; stroke-opacity:0.1; fill:none" points="
  189.154,96.8724 2640.76,96.8724 
  "/>
<polyline clip-path="url(#clip490)" style="stroke:#000000; stroke-linecap:butt; stroke-linejoin:round; stroke-width:4; stroke-opacity:1; fill:none" points="
  189.154,1800.78 189.154,47.2441 
  "/>
<polyline clip-path="url(#clip490)" style="stroke:#000000; stroke-linecap:butt; stroke-linejoin:round; stroke-width:4; stroke-opacity:1; fill:none" points="
  189.154,1751.32 208.052,1751.32 
  "/>
<polyline clip-path="url(#clip490)" style="stroke:#000000; stroke-linecap:butt; stroke-linejoin:round; stroke-width:4; stroke-opacity:1; fill:none" points="
  189.154,1337.71 208.052,1337.71 
  "/>
<polyline clip-path="url(#clip490)" style="stroke:#000000; stroke-linecap:butt; stroke-linejoin:round; stroke-width:4; stroke-opacity:1; fill:none" points="
  189.154,924.095 208.052,924.095 
  "/>
<polyline clip-path="url(#clip490)" style="stroke:#000000; stroke-linecap:butt; stroke-linejoin:round; stroke-width:4; stroke-opacity:1; fill:none" points="
  189.154,510.484 208.052,510.484 
  "/>
<polyline clip-path="url(#clip490)" style="stroke:#000000; stroke-linecap:butt; stroke-linejoin:round; stroke-width:4; stroke-opacity:1; fill:none" points="
  189.154,96.8724 208.052,96.8724 
  "/>
<path clip-path="url(#clip490)" d="M61.4965 1737.12 Q57.8854 1737.12 56.0567 1740.68 Q54.2512 1744.22 54.2512 1751.35 Q54.2512 1758.46 56.0567 1762.02 Q57.8854 1765.56 61.4965 1765.56 Q65.1307 1765.56 66.9363 1762.02 Q68.765 1758.46 68.765 1751.35 Q68.765 1744.22 66.9363 1740.68 Q65.1307 1737.12 61.4965 1737.12 M61.4965 1733.41 Q67.3067 1733.41 70.3622 1738.02 Q73.4409 1742.6 73.4409 1751.35 Q73.4409 1760.08 70.3622 1764.68 Q67.3067 1769.27 61.4965 1769.27 Q55.6864 1769.27 52.6077 1764.68 Q49.5521 1760.08 49.5521 1751.35 Q49.5521 1742.6 52.6077 1738.02 Q55.6864 1733.41 61.4965 1733.41 Z" fill="#000000" fill-rule="evenodd" fill-opacity="1" /><path clip-path="url(#clip490)" d="M81.6584 1762.72 L86.5427 1762.72 L86.5427 1768.6 L81.6584 1768.6 L81.6584 1762.72 Z" fill="#000000" fill-rule="evenodd" fill-opacity="1" /><path clip-path="url(#clip490)" d="M106.728 1737.12 Q103.117 1737.12 101.288 1740.68 Q99.4824 1744.22 99.4824 1751.35 Q99.4824 1758.46 101.288 1762.02 Q103.117 1765.56 106.728 1765.56 Q110.362 1765.56 112.168 1762.02 Q113.996 1758.46 113.996 1751.35 Q113.996 1744.22 112.168 1740.68 Q110.362 1737.12 106.728 1737.12 M106.728 1733.41 Q112.538 1733.41 115.593 1738.02 Q118.672 1742.6 118.672 1751.35 Q118.672 1760.08 115.593 1764.68 Q112.538 1769.27 106.728 1769.27 Q100.918 1769.27 97.8389 1764.68 Q94.7834 1760.08 94.7834 1751.35 Q94.7834 1742.6 97.8389 1738.02 Q100.918 1733.41 106.728 1733.41 Z" fill="#000000" fill-rule="evenodd" fill-opacity="1" /><path clip-path="url(#clip490)" d="M136.89 1737.12 Q133.279 1737.12 131.45 1740.68 Q129.644 1744.22 129.644 1751.35 Q129.644 1758.46 131.45 1762.02 Q133.279 1765.56 136.89 1765.56 Q140.524 1765.56 142.329 1762.02 Q144.158 1758.46 144.158 1751.35 Q144.158 1744.22 142.329 1740.68 Q140.524 1737.12 136.89 1737.12 M136.89 1733.41 Q142.7 1733.41 145.755 1738.02 Q148.834 1742.6 148.834 1751.35 Q148.834 1760.08 145.755 1764.68 Q142.7 1769.27 136.89 1769.27 Q131.079 1769.27 128.001 1764.68 Q124.945 1760.08 124.945 1751.35 Q124.945 1742.6 128.001 1738.02 Q131.079 1733.41 136.89 1733.41 Z" fill="#000000" fill-rule="evenodd" fill-opacity="1" /><path clip-path="url(#clip490)" d="M62.4919 1323.5 Q58.8808 1323.5 57.0521 1327.07 Q55.2465 1330.61 55.2465 1337.74 Q55.2465 1344.85 57.0521 1348.41 Q58.8808 1351.95 62.4919 1351.95 Q66.1261 1351.95 67.9317 1348.41 Q69.7604 1344.85 69.7604 1337.74 Q69.7604 1330.61 67.9317 1327.07 Q66.1261 1323.5 62.4919 1323.5 M62.4919 1319.8 Q68.302 1319.8 71.3576 1324.41 Q74.4363 1328.99 74.4363 1337.74 Q74.4363 1346.47 71.3576 1351.07 Q68.302 1355.66 62.4919 1355.66 Q56.6817 1355.66 53.603 1351.07 Q50.5475 1346.47 50.5475 1337.74 Q50.5475 1328.99 53.603 1324.41 Q56.6817 1319.8 62.4919 1319.8 Z" fill="#000000" fill-rule="evenodd" fill-opacity="1" /><path clip-path="url(#clip490)" d="M82.6538 1349.11 L87.538 1349.11 L87.538 1354.99 L82.6538 1354.99 L82.6538 1349.11 Z" fill="#000000" fill-rule="evenodd" fill-opacity="1" /><path clip-path="url(#clip490)" d="M101.751 1351.05 L118.07 1351.05 L118.07 1354.99 L96.126 1354.99 L96.126 1351.05 Q98.788 1348.3 103.371 1343.67 Q107.978 1339.01 109.158 1337.67 Q111.404 1335.15 112.283 1333.41 Q113.186 1331.65 113.186 1329.96 Q113.186 1327.21 111.242 1325.47 Q109.32 1323.74 106.218 1323.74 Q104.019 1323.74 101.566 1324.5 Q99.1352 1325.26 96.3574 1326.81 L96.3574 1322.09 Q99.1815 1320.96 101.635 1320.38 Q104.089 1319.8 106.126 1319.8 Q111.496 1319.8 114.691 1322.49 Q117.885 1325.17 117.885 1329.66 Q117.885 1331.79 117.075 1333.71 Q116.288 1335.61 114.181 1338.2 Q113.603 1338.87 110.501 1342.09 Q107.399 1345.29 101.751 1351.05 Z" fill="#000000" fill-rule="evenodd" fill-opacity="1" /><path clip-path="url(#clip490)" d="M127.931 1320.43 L146.288 1320.43 L146.288 1324.36 L132.214 1324.36 L132.214 1332.83 Q133.232 1332.49 134.251 1332.32 Q135.269 1332.14 136.288 1332.14 Q142.075 1332.14 145.454 1335.31 Q148.834 1338.48 148.834 1343.9 Q148.834 1349.48 145.362 1352.58 Q141.89 1355.66 135.57 1355.66 Q133.394 1355.66 131.126 1355.29 Q128.88 1354.92 126.473 1354.18 L126.473 1349.48 Q128.556 1350.61 130.779 1351.17 Q133.001 1351.72 135.478 1351.72 Q139.482 1351.72 141.82 1349.62 Q144.158 1347.51 144.158 1343.9 Q144.158 1340.29 141.82 1338.18 Q139.482 1336.07 135.478 1336.07 Q133.603 1336.07 131.728 1336.49 Q129.876 1336.91 127.931 1337.79 L127.931 1320.43 Z" fill="#000000" fill-rule="evenodd" fill-opacity="1" /><path clip-path="url(#clip490)" d="M61.4965 909.893 Q57.8854 909.893 56.0567 913.458 Q54.2512 917 54.2512 924.129 Q54.2512 931.236 56.0567 934.801 Q57.8854 938.342 61.4965 938.342 Q65.1307 938.342 66.9363 934.801 Q68.765 931.236 68.765 924.129 Q68.765 917 66.9363 913.458 Q65.1307 909.893 61.4965 909.893 M61.4965 906.19 Q67.3067 906.19 70.3622 910.796 Q73.4409 915.379 73.4409 924.129 Q73.4409 932.856 70.3622 937.463 Q67.3067 942.046 61.4965 942.046 Q55.6864 942.046 52.6077 937.463 Q49.5521 932.856 49.5521 924.129 Q49.5521 915.379 52.6077 910.796 Q55.6864 906.19 61.4965 906.19 Z" fill="#000000" fill-rule="evenodd" fill-opacity="1" /><path clip-path="url(#clip490)" d="M81.6584 935.495 L86.5427 935.495 L86.5427 941.375 L81.6584 941.375 L81.6584 935.495 Z" fill="#000000" fill-rule="evenodd" fill-opacity="1" /><path clip-path="url(#clip490)" d="M96.7741 906.815 L115.13 906.815 L115.13 910.75 L101.056 910.75 L101.056 919.222 Q102.075 918.875 103.094 918.713 Q104.112 918.527 105.131 918.527 Q110.918 918.527 114.297 921.699 Q117.677 924.87 117.677 930.287 Q117.677 935.865 114.205 938.967 Q110.732 942.046 104.413 942.046 Q102.237 942.046 99.9685 941.676 Q97.7232 941.305 95.3158 940.564 L95.3158 935.865 Q97.3991 937 99.6213 937.555 Q101.844 938.111 104.32 938.111 Q108.325 938.111 110.663 936.004 Q113.001 933.898 113.001 930.287 Q113.001 926.676 110.663 924.569 Q108.325 922.463 104.32 922.463 Q102.445 922.463 100.57 922.879 Q98.7185 923.296 96.7741 924.176 L96.7741 906.815 Z" fill="#000000" fill-rule="evenodd" fill-opacity="1" /><path clip-path="url(#clip490)" d="M136.89 909.893 Q133.279 909.893 131.45 913.458 Q129.644 917 129.644 924.129 Q129.644 931.236 131.45 934.801 Q133.279 938.342 136.89 938.342 Q140.524 938.342 142.329 934.801 Q144.158 931.236 144.158 924.129 Q144.158 917 142.329 913.458 Q140.524 909.893 136.89 909.893 M136.89 906.19 Q142.7 906.19 145.755 910.796 Q148.834 915.379 148.834 924.129 Q148.834 932.856 145.755 937.463 Q142.7 942.046 136.89 942.046 Q131.079 942.046 128.001 937.463 Q124.945 932.856 124.945 924.129 Q124.945 915.379 128.001 910.796 Q131.079 906.19 136.89 906.19 Z" fill="#000000" fill-rule="evenodd" fill-opacity="1" /><path clip-path="url(#clip490)" d="M62.4919 496.282 Q58.8808 496.282 57.0521 499.847 Q55.2465 503.389 55.2465 510.518 Q55.2465 517.625 57.0521 521.189 Q58.8808 524.731 62.4919 524.731 Q66.1261 524.731 67.9317 521.189 Q69.7604 517.625 69.7604 510.518 Q69.7604 503.389 67.9317 499.847 Q66.1261 496.282 62.4919 496.282 M62.4919 492.579 Q68.302 492.579 71.3576 497.185 Q74.4363 501.768 74.4363 510.518 Q74.4363 519.245 71.3576 523.852 Q68.302 528.435 62.4919 528.435 Q56.6817 528.435 53.603 523.852 Q50.5475 519.245 50.5475 510.518 Q50.5475 501.768 53.603 497.185 Q56.6817 492.579 62.4919 492.579 Z" fill="#000000" fill-rule="evenodd" fill-opacity="1" /><path clip-path="url(#clip490)" d="M82.6538 521.884 L87.538 521.884 L87.538 527.764 L82.6538 527.764 L82.6538 521.884 Z" fill="#000000" fill-rule="evenodd" fill-opacity="1" /><path clip-path="url(#clip490)" d="M96.5426 493.204 L118.765 493.204 L118.765 495.194 L106.218 527.764 L101.334 527.764 L113.14 497.139 L96.5426 497.139 L96.5426 493.204 Z" fill="#000000" fill-rule="evenodd" fill-opacity="1" /><path clip-path="url(#clip490)" d="M127.931 493.204 L146.288 493.204 L146.288 497.139 L132.214 497.139 L132.214 505.611 Q133.232 505.264 134.251 505.102 Q135.269 504.916 136.288 504.916 Q142.075 504.916 145.454 508.088 Q148.834 511.259 148.834 516.676 Q148.834 522.254 145.362 525.356 Q141.89 528.435 135.57 528.435 Q133.394 528.435 131.126 528.064 Q128.88 527.694 126.473 526.953 L126.473 522.254 Q128.556 523.389 130.779 523.944 Q133.001 524.5 135.478 524.5 Q139.482 524.5 141.82 522.393 Q144.158 520.287 144.158 516.676 Q144.158 513.065 141.82 510.958 Q139.482 508.852 135.478 508.852 Q133.603 508.852 131.728 509.268 Q129.876 509.685 127.931 510.565 L127.931 493.204 Z" fill="#000000" fill-rule="evenodd" fill-opacity="1" /><path clip-path="url(#clip490)" d="M52.3067 110.217 L59.9456 110.217 L59.9456 83.8517 L51.6354 85.5183 L51.6354 81.2591 L59.8993 79.5924 L64.5752 79.5924 L64.5752 110.217 L72.214 110.217 L72.214 114.152 L52.3067 114.152 L52.3067 110.217 Z" fill="#000000" fill-rule="evenodd" fill-opacity="1" /><path clip-path="url(#clip490)" d="M81.6584 108.273 L86.5427 108.273 L86.5427 114.152 L81.6584 114.152 L81.6584 108.273 Z" fill="#000000" fill-rule="evenodd" fill-opacity="1" /><path clip-path="url(#clip490)" d="M106.728 82.6711 Q103.117 82.6711 101.288 86.2359 Q99.4824 89.7776 99.4824 96.9072 Q99.4824 104.014 101.288 107.578 Q103.117 111.12 106.728 111.12 Q110.362 111.12 112.168 107.578 Q113.996 104.014 113.996 96.9072 Q113.996 89.7776 112.168 86.2359 Q110.362 82.6711 106.728 82.6711 M106.728 78.9675 Q112.538 78.9675 115.593 83.5739 Q118.672 88.1572 118.672 96.9072 Q118.672 105.634 115.593 110.24 Q112.538 114.824 106.728 114.824 Q100.918 114.824 97.8389 110.24 Q94.7834 105.634 94.7834 96.9072 Q94.7834 88.1572 97.8389 83.5739 Q100.918 78.9675 106.728 78.9675 Z" fill="#000000" fill-rule="evenodd" fill-opacity="1" /><path clip-path="url(#clip490)" d="M136.89 82.6711 Q133.279 82.6711 131.45 86.2359 Q129.644 89.7776 129.644 96.9072 Q129.644 104.014 131.45 107.578 Q133.279 111.12 136.89 111.12 Q140.524 111.12 142.329 107.578 Q144.158 104.014 144.158 96.9072 Q144.158 89.7776 142.329 86.2359 Q140.524 82.6711 136.89 82.6711 M136.89 78.9675 Q142.7 78.9675 145.755 83.5739 Q148.834 88.1572 148.834 96.9072 Q148.834 105.634 145.755 110.24 Q142.7 114.824 136.89 114.824 Q131.079 114.824 128.001 110.24 Q124.945 105.634 124.945 96.9072 Q124.945 88.1572 128.001 83.5739 Q131.079 78.9675 136.89 78.9675 Z" fill="#000000" fill-rule="evenodd" fill-opacity="1" /><polyline clip-path="url(#clip492)" style="stroke:#009af9; stroke-linecap:butt; stroke-linejoin:round; stroke-width:4; stroke-opacity:1; fill:none" points="
  258.539,96.8724 273.597,118.415 412.828,317.608 496.5,437.315 567.244,538.526 644.091,648.469 714.938,749.826 790.893,858.492 878.894,984.393 957.099,1096.28 
  1025.68,1194.39 1100.45,1301.36 1175.66,1408.97 1258.82,1527.94 1337.94,1641.14 1358.51,1670.56 1379.08,1699.99 1389.36,1714.7 1399.65,1729.41 1404.79,1736.77 
  1409.93,1744.13 1412.5,1747.8 1415.07,1751.15 1417.64,1747.47 1420.21,1743.79 1428.87,1731.41 1437.53,1719.02 1446.18,1706.64 1454.84,1694.26 1472.15,1669.49 
  1489.47,1644.72 1574.02,1523.75 1651.47,1412.94 1723.01,1310.6 1795.47,1206.93 1876.68,1090.75 1950.27,985.464 2034.52,864.923 2112.53,753.314 2189.45,643.28 
  2264.12,536.446 2340.67,426.927 2424.54,306.937 2546.38,132.632 2571.37,96.8724 
  "/>
<path clip-path="url(#clip490)" d="
M2234.21 209.375 L2559.04 209.375 L2559.04 105.695 L2234.21 105.695  Z
  " fill="#ffffff" fill-rule="evenodd" fill-opacity="1"/>
<polyline clip-path="url(#clip490)" style="stroke:#000000; stroke-linecap:butt; stroke-linejoin:round; stroke-width:4; stroke-opacity:1; fill:none" points="
  2234.21,209.375 2559.04,209.375 2559.04,105.695 2234.21,105.695 2234.21,209.375 
  "/>
<polyline clip-path="url(#clip490)" style="stroke:#009af9; stroke-linecap:butt; stroke-linejoin:round; stroke-width:4; stroke-opacity:1; fill:none" points="
  2261.45,157.535 2424.89,157.535 
  "/>
<path clip-path="url(#clip490)" d="M2465.97 177.223 Q2464.16 181.852 2462.45 183.264 Q2460.74 184.676 2457.87 184.676 L2454.46 184.676 L2454.46 181.112 L2456.96 181.112 Q2458.72 181.112 2459.69 180.278 Q2460.67 179.445 2461.85 176.343 L2462.61 174.399 L2452.13 148.889 L2456.64 148.889 L2464.74 169.167 L2472.84 148.889 L2477.36 148.889 L2465.97 177.223 Z" fill="#000000" fill-rule="evenodd" fill-opacity="1" /><path clip-path="url(#clip490)" d="M2484.65 170.88 L2492.29 170.88 L2492.29 144.515 L2483.98 146.181 L2483.98 141.922 L2492.24 140.255 L2496.92 140.255 L2496.92 170.88 L2504.56 170.88 L2504.56 174.815 L2484.65 174.815 L2484.65 170.88 Z" fill="#000000" fill-rule="evenodd" fill-opacity="1" /></svg>
