<?xml version="1.0" encoding="utf-8"?>
<svg xmlns="http://www.w3.org/2000/svg" xmlns:xlink="http://www.w3.org/1999/xlink" width="672" height="480" viewBox="0 0 2688 1920">
<defs>
  <clipPath id="clip260">
    <rect x="0" y="0" width="2688" height="1920"/>
  </clipPath>
</defs>
<path clip-path="url(#clip260)" d="
M0 1920 L2688 1920 L2688 0 L0 0  Z
  " fill="#ffffff" fill-rule="evenodd" fill-opacity="1"/>
<defs>
  <clipPath id="clip261">
    <rect x="537" y="0" width="1883" height="1883"/>
  </clipPath>
</defs>
<path clip-path="url(#clip260)" d="
M115.057 1800.78 L2640.76 1800.78 L2640.76 47.2441 L115.057 47.2441  Z
  " fill="#ffffff" fill-rule="evenodd" fill-opacity="1"/>
<defs>
  <clipPath id="clip262">
    <rect x="115" y="47" width="2527" height="1755"/>
  </clipPath>
</defs>
<polyline clip-path="url(#clip262)" style="stroke:#000000; stroke-linecap:butt; stroke-linejoin:round; stroke-width:2; stroke-opacity:0.1; fill:none" points="
  186.539,1800.78 186.539,47.2441 
  "/>
<polyline clip-path="url(#clip262)" style="stroke:#000000; stroke-linecap:butt; stroke-linejoin:round; stroke-width:2; stroke-opacity:0.1; fill:none" points="
  884.083,1800.78 884.083,47.2441 
  "/>
<polyline clip-path="url(#clip262)" style="stroke:#000000; stroke-linecap:butt; stroke-linejoin:round; stroke-width:2; stroke-opacity:0.1; fill:none" points="
  1581.63,1800.78 1581.63,47.2441 
  "/>
<polyline clip-path="url(#clip262)" style="stroke:#000000; stroke-linecap:butt; stroke-linejoin:round; stroke-width:2; stroke-opacity:0.1; fill:none" points="
  2279.17,1800.78 2279.17,47.2441 
  "/>
<polyline clip-path="url(#clip260)" style="stroke:#000000; stroke-linecap:butt; stroke-linejoin:round; stroke-width:4; stroke-opacity:1; fill:none" points="
  115.057,1800.78 2640.76,1800.78 
  "/>
<polyline clip-path="url(#clip260)" style="stroke:#000000; stroke-linecap:butt; stroke-linejoin:round; stroke-width:4; stroke-opacity:1; fill:none" points="
  186.539,1800.78 186.539,1781.88 
  "/>
<polyline clip-path="url(#clip260)" style="stroke:#000000; stroke-linecap:butt; stroke-linejoin:round; stroke-width:4; stroke-opacity:1; fill:none" points="
  884.083,1800.78 884.083,1781.88 
  "/>
<polyline clip-path="url(#clip260)" style="stroke:#000000; stroke-linecap:butt; stroke-linejoin:round; stroke-width:4; stroke-opacity:1; fill:none" points="
  1581.63,1800.78 1581.63,1781.88 
  "/>
<polyline clip-path="url(#clip260)" style="stroke:#000000; stroke-linecap:butt; stroke-linejoin:round; stroke-width:4; stroke-opacity:1; fill:none" points="
  2279.17,1800.78 2279.17,1781.88 
  "/>
<path clip-path="url(#clip260)" d="M186.539 1834 Q182.928 1834 181.099 1837.57 Q179.294 1841.11 179.294 1848.24 Q179.294 1855.34 181.099 1858.91 Q182.928 1862.45 186.539 1862.45 Q190.173 1862.45 191.979 1858.91 Q193.808 1855.34 193.808 1848.24 Q193.808 1841.11 191.979 1837.57 Q190.173 1834 186.539 1834 M186.539 1830.3 Q192.349 1830.3 195.405 1834.9 Q198.484 1839.49 198.484 1848.24 Q198.484 1856.96 195.405 1861.57 Q192.349 1866.15 186.539 1866.15 Q180.729 1866.15 177.65 1861.57 Q174.595 1856.96 174.595 1848.24 Q174.595 1839.49 177.65 1834.9 Q180.729 1830.3 186.539 1830.3 Z" fill="#000000" fill-rule="evenodd" fill-opacity="1" /><path clip-path="url(#clip260)" d="M874.361 1830.92 L892.717 1830.92 L892.717 1834.86 L878.643 1834.86 L878.643 1843.33 Q879.662 1842.98 880.68 1842.82 Q881.699 1842.64 882.717 1842.64 Q888.504 1842.64 891.884 1845.81 Q895.263 1848.98 895.263 1854.4 Q895.263 1859.97 891.791 1863.08 Q888.319 1866.15 881.999 1866.15 Q879.824 1866.15 877.555 1865.78 Q875.31 1865.41 872.902 1864.67 L872.902 1859.97 Q874.986 1861.11 877.208 1861.66 Q879.43 1862.22 881.907 1862.22 Q885.911 1862.22 888.249 1860.11 Q890.587 1858.01 890.587 1854.4 Q890.587 1850.78 888.249 1848.68 Q885.911 1846.57 881.907 1846.57 Q880.032 1846.57 878.157 1846.99 Q876.305 1847.4 874.361 1848.28 L874.361 1830.92 Z" fill="#000000" fill-rule="evenodd" fill-opacity="1" /><path clip-path="url(#clip260)" d="M1556.31 1861.55 L1563.95 1861.55 L1563.95 1835.18 L1555.64 1836.85 L1555.64 1832.59 L1563.91 1830.92 L1568.58 1830.92 L1568.58 1861.55 L1576.22 1861.55 L1576.22 1865.48 L1556.31 1865.48 L1556.31 1861.55 Z" fill="#000000" fill-rule="evenodd" fill-opacity="1" /><path clip-path="url(#clip260)" d="M1595.67 1834 Q1592.05 1834 1590.23 1837.57 Q1588.42 1841.11 1588.42 1848.24 Q1588.42 1855.34 1590.23 1858.91 Q1592.05 1862.45 1595.67 1862.45 Q1599.3 1862.45 1601.11 1858.91 Q1602.93 1855.34 1602.93 1848.24 Q1602.93 1841.11 1601.11 1837.57 Q1599.3 1834 1595.67 1834 M1595.67 1830.3 Q1601.48 1830.3 1604.53 1834.9 Q1607.61 1839.49 1607.61 1848.24 Q1607.61 1856.96 1604.53 1861.57 Q1601.48 1866.15 1595.67 1866.15 Q1589.86 1866.15 1586.78 1861.57 Q1583.72 1856.96 1583.72 1848.24 Q1583.72 1839.49 1586.78 1834.9 Q1589.86 1830.3 1595.67 1830.3 Z" fill="#000000" fill-rule="evenodd" fill-opacity="1" /><path clip-path="url(#clip260)" d="M2254.36 1861.55 L2261.99 1861.55 L2261.99 1835.18 L2253.68 1836.85 L2253.68 1832.59 L2261.95 1830.92 L2266.62 1830.92 L2266.62 1861.55 L2274.26 1861.55 L2274.26 1865.48 L2254.36 1865.48 L2254.36 1861.55 Z" fill="#000000" fill-rule="evenodd" fill-opacity="1" /><path clip-path="url(#clip260)" d="M2283.75 1830.92 L2302.11 1830.92 L2302.11 1834.86 L2288.04 1834.86 L2288.04 1843.33 Q2289.05 1842.98 2290.07 1842.82 Q2291.09 1842.64 2292.11 1842.64 Q2297.9 1842.64 2301.28 1845.81 Q2304.66 1848.98 2304.66 1854.4 Q2304.66 1859.97 2301.18 1863.08 Q2297.71 1866.15 2291.39 1866.15 Q2289.22 1866.15 2286.95 1865.78 Q2284.7 1865.41 2282.29 1864.67 L2282.29 1859.97 Q2284.38 1861.11 2286.6 1861.66 Q2288.82 1862.22 2291.3 1862.22 Q2295.3 1862.22 2297.64 1860.11 Q2299.98 1858.01 2299.98 1854.4 Q2299.98 1850.78 2297.64 1848.68 Q2295.3 1846.57 2291.3 1846.57 Q2289.42 1846.57 2287.55 1846.99 Q2285.7 1847.4 2283.75 1848.28 L2283.75 1830.92 Z" fill="#000000" fill-rule="evenodd" fill-opacity="1" /><polyline clip-path="url(#clip262)" style="stroke:#000000; stroke-linecap:butt; stroke-linejoin:round; stroke-width:2; stroke-opacity:0.1; fill:none" points="
  115.057,1711.06 2640.76,1711.06 
  "/>
<polyline clip-path="url(#clip262)" style="stroke:#000000; stroke-linecap:butt; stroke-linejoin:round; stroke-width:2; stroke-opacity:0.1; fill:none" points="
  115.057,1362.29 2640.76,1362.29 
  "/>
<polyline clip-path="url(#clip262)" style="stroke:#000000; stroke-linecap:butt; stroke-linejoin:round; stroke-width:2; stroke-opacity:0.1; fill:none" points="
  115.057,1013.52 2640.76,1013.52 
  "/>
<polyline clip-path="url(#clip262)" style="stroke:#000000; stroke-linecap:butt; stroke-linejoin:round; stroke-width:2; stroke-opacity:0.1; fill:none" points="
  115.057,664.748 2640.76,664.748 
  "/>
<polyline clip-path="url(#clip262)" style="stroke:#000000; stroke-linecap:butt; stroke-linejoin:round; stroke-width:2; stroke-opacity:0.1; fill:none" points="
  115.057,315.976 2640.76,315.976 
  "/>
<polyline clip-path="url(#clip260)" style="stroke:#000000; stroke-linecap:butt; stroke-linejoin:round; stroke-width:4; stroke-opacity:1; fill:none" points="
  115.057,1800.78 115.057,47.2441 
  "/>
<polyline clip-path="url(#clip260)" style="stroke:#000000; stroke-linecap:butt; stroke-linejoin:round; stroke-width:4; stroke-opacity:1; fill:none" points="
  115.057,1711.06 133.955,1711.06 
  "/>
<polyline clip-path="url(#clip260)" style="stroke:#000000; stroke-linecap:butt; stroke-linejoin:round; stroke-width:4; stroke-opacity:1; fill:none" points="
  115.057,1362.29 133.955,1362.29 
  "/>
<polyline clip-path="url(#clip260)" style="stroke:#000000; stroke-linecap:butt; stroke-linejoin:round; stroke-width:4; stroke-opacity:1; fill:none" points="
  115.057,1013.52 133.955,1013.52 
  "/>
<polyline clip-path="url(#clip260)" style="stroke:#000000; stroke-linecap:butt; stroke-linejoin:round; stroke-width:4; stroke-opacity:1; fill:none" points="
  115.057,664.748 133.955,664.748 
  "/>
<polyline clip-path="url(#clip260)" style="stroke:#000000; stroke-linecap:butt; stroke-linejoin:round; stroke-width:4; stroke-opacity:1; fill:none" points="
  115.057,315.976 133.955,315.976 
  "/>
<path clip-path="url(#clip260)" d="M-31.2113 1711.51 L-1.53556 1711.51 L-1.53556 1715.45 L-31.2113 1715.45 L-31.2113 1711.51 Z" fill="#000000" fill-rule="evenodd" fill-opacity="1" /><path clip-path="url(#clip260)" d="M12.5847 1724.41 L28.9041 1724.41 L28.9041 1728.34 L6.95976 1728.34 L6.95976 1724.41 Q9.62178 1721.65 14.2051 1717.02 Q18.8115 1712.37 19.9921 1711.03 Q22.2375 1708.51 23.1171 1706.77 Q24.0199 1705.01 24.0199 1703.32 Q24.0199 1700.57 22.0754 1698.83 Q20.1541 1697.09 17.0523 1697.09 Q14.8532 1697.09 12.3995 1697.86 Q9.969 1698.62 7.19124 1700.17 L7.19124 1695.45 Q10.0153 1694.32 12.469 1693.74 Q14.9227 1693.16 16.9597 1693.16 Q22.33 1693.16 25.5245 1695.84 Q28.7189 1698.53 28.7189 1703.02 Q28.7189 1705.15 27.9087 1707.07 Q27.1217 1708.97 25.0152 1711.56 Q24.4365 1712.23 21.3347 1715.45 Q18.2328 1718.64 12.5847 1724.41 Z" fill="#000000" fill-rule="evenodd" fill-opacity="1" /><path clip-path="url(#clip260)" d="M38.7189 1722.46 L43.6031 1722.46 L43.6031 1728.34 L38.7189 1728.34 L38.7189 1722.46 Z" fill="#000000" fill-rule="evenodd" fill-opacity="1" /><path clip-path="url(#clip260)" d="M53.8345 1693.78 L72.1909 1693.78 L72.1909 1697.72 L58.1169 1697.72 L58.1169 1706.19 Q59.1354 1705.84 60.1539 1705.68 Q61.1724 1705.5 62.1909 1705.5 Q67.978 1705.5 71.3576 1708.67 Q74.7372 1711.84 74.7372 1717.26 Q74.7372 1722.83 71.265 1725.94 Q67.7928 1729.01 61.4734 1729.01 Q59.2974 1729.01 57.0289 1728.64 Q54.7836 1728.27 52.3762 1727.53 L52.3762 1722.83 Q54.4595 1723.97 56.6817 1724.52 Q58.9039 1725.08 61.3808 1725.08 Q65.3854 1725.08 67.7233 1722.97 Q70.0613 1720.87 70.0613 1717.26 Q70.0613 1713.64 67.7233 1711.54 Q65.3854 1709.43 61.3808 1709.43 Q59.5058 1709.43 57.6308 1709.85 Q55.7789 1710.26 53.8345 1711.14 L53.8345 1693.78 Z" fill="#000000" fill-rule="evenodd" fill-opacity="1" /><path clip-path="url(#clip260)" d="M17.5616 1348.09 Q13.9505 1348.09 12.1218 1351.65 Q10.3162 1355.2 10.3162 1362.33 Q10.3162 1369.43 12.1218 1373 Q13.9505 1376.54 17.5616 1376.54 Q21.1958 1376.54 23.0013 1373 Q24.83 1369.43 24.83 1362.33 Q24.83 1355.2 23.0013 1351.65 Q21.1958 1348.09 17.5616 1348.09 M17.5616 1344.39 Q23.3717 1344.39 26.4272 1348.99 Q29.5059 1353.58 29.5059 1362.33 Q29.5059 1371.05 26.4272 1375.66 Q23.3717 1380.24 17.5616 1380.24 Q11.7514 1380.24 8.67272 1375.66 Q5.61718 1371.05 5.61718 1362.33 Q5.61718 1353.58 8.67272 1348.99 Q11.7514 1344.39 17.5616 1344.39 Z" fill="#000000" fill-rule="evenodd" fill-opacity="1" /><path clip-path="url(#clip260)" d="M37.7235 1373.69 L42.6077 1373.69 L42.6077 1379.57 L37.7235 1379.57 L37.7235 1373.69 Z" fill="#000000" fill-rule="evenodd" fill-opacity="1" /><path clip-path="url(#clip260)" d="M62.7928 1348.09 Q59.1817 1348.09 57.353 1351.65 Q55.5475 1355.2 55.5475 1362.33 Q55.5475 1369.43 57.353 1373 Q59.1817 1376.54 62.7928 1376.54 Q66.427 1376.54 68.2326 1373 Q70.0613 1369.43 70.0613 1362.33 Q70.0613 1355.2 68.2326 1351.65 Q66.427 1348.09 62.7928 1348.09 M62.7928 1344.39 Q68.6029 1344.39 71.6585 1348.99 Q74.7372 1353.58 74.7372 1362.33 Q74.7372 1371.05 71.6585 1375.66 Q68.6029 1380.24 62.7928 1380.24 Q56.9826 1380.24 53.904 1375.66 Q50.8484 1371.05 50.8484 1362.33 Q50.8484 1353.58 53.904 1348.99 Q56.9826 1344.39 62.7928 1344.39 Z" fill="#000000" fill-rule="evenodd" fill-opacity="1" /><path clip-path="url(#clip260)" d="M12.5847 1026.86 L28.9041 1026.86 L28.9041 1030.8 L6.95976 1030.8 L6.95976 1026.86 Q9.62178 1024.11 14.2051 1019.48 Q18.8115 1014.83 19.9921 1013.48 Q22.2375 1010.96 23.1171 1009.23 Q24.0199 1007.47 24.0199 1005.78 Q24.0199 1003.02 22.0754 1001.29 Q20.1541 999.55 17.0523 999.55 Q14.8532 999.55 12.3995 1000.31 Q9.969 1001.08 7.19124 1002.63 L7.19124 997.906 Q10.0153 996.772 12.469 996.193 Q14.9227 995.614 16.9597 995.614 Q22.33 995.614 25.5245 998.3 Q28.7189 1000.98 28.7189 1005.48 Q28.7189 1007.61 27.9087 1009.53 Q27.1217 1011.42 25.0152 1014.02 Q24.4365 1014.69 21.3347 1017.91 Q18.2328 1021.1 12.5847 1026.86 Z" fill="#000000" fill-rule="evenodd" fill-opacity="1" /><path clip-path="url(#clip260)" d="M38.7189 1024.92 L43.6031 1024.92 L43.6031 1030.8 L38.7189 1030.8 L38.7189 1024.92 Z" fill="#000000" fill-rule="evenodd" fill-opacity="1" /><path clip-path="url(#clip260)" d="M53.8345 996.239 L72.1909 996.239 L72.1909 1000.17 L58.1169 1000.17 L58.1169 1008.65 Q59.1354 1008.3 60.1539 1008.14 Q61.1724 1007.95 62.1909 1007.95 Q67.978 1007.95 71.3576 1011.12 Q74.7372 1014.29 74.7372 1019.71 Q74.7372 1025.29 71.265 1028.39 Q67.7928 1031.47 61.4734 1031.47 Q59.2974 1031.47 57.0289 1031.1 Q54.7836 1030.73 52.3762 1029.99 L52.3762 1025.29 Q54.4595 1026.42 56.6817 1026.98 Q58.9039 1027.54 61.3808 1027.54 Q65.3854 1027.54 67.7233 1025.43 Q70.0613 1023.32 70.0613 1019.71 Q70.0613 1016.1 67.7233 1013.99 Q65.3854 1011.89 61.3808 1011.89 Q59.5058 1011.89 57.6308 1012.3 Q55.7789 1012.72 53.8345 1013.6 L53.8345 996.239 Z" fill="#000000" fill-rule="evenodd" fill-opacity="1" /><path clip-path="url(#clip260)" d="M7.60791 647.468 L25.9643 647.468 L25.9643 651.403 L11.8903 651.403 L11.8903 659.875 Q12.9088 659.528 13.9273 659.366 Q14.9458 659.181 15.9643 659.181 Q21.7513 659.181 25.131 662.352 Q28.5106 665.523 28.5106 670.94 Q28.5106 676.518 25.0384 679.62 Q21.5662 682.699 15.2468 682.699 Q13.0708 682.699 10.8023 682.329 Q8.55698 681.958 6.14958 681.218 L6.14958 676.518 Q8.2329 677.653 10.4551 678.208 Q12.6773 678.764 15.1542 678.764 Q19.1588 678.764 21.4967 676.657 Q23.8347 674.551 23.8347 670.94 Q23.8347 667.329 21.4967 665.222 Q19.1588 663.116 15.1542 663.116 Q13.2792 663.116 11.4042 663.532 Q9.55234 663.949 7.60791 664.829 L7.60791 647.468 Z" fill="#000000" fill-rule="evenodd" fill-opacity="1" /><path clip-path="url(#clip260)" d="M37.7235 676.148 L42.6077 676.148 L42.6077 682.028 L37.7235 682.028 L37.7235 676.148 Z" fill="#000000" fill-rule="evenodd" fill-opacity="1" /><path clip-path="url(#clip260)" d="M62.7928 650.546 Q59.1817 650.546 57.353 654.111 Q55.5475 657.653 55.5475 664.782 Q55.5475 671.889 57.353 675.454 Q59.1817 678.995 62.7928 678.995 Q66.427 678.995 68.2326 675.454 Q70.0613 671.889 70.0613 664.782 Q70.0613 657.653 68.2326 654.111 Q66.427 650.546 62.7928 650.546 M62.7928 646.843 Q68.6029 646.843 71.6585 651.449 Q74.7372 656.032 74.7372 664.782 Q74.7372 673.509 71.6585 678.116 Q68.6029 682.699 62.7928 682.699 Q56.9826 682.699 53.904 678.116 Q50.8484 673.509 50.8484 664.782 Q50.8484 656.032 53.904 651.449 Q56.9826 646.843 62.7928 646.843 Z" fill="#000000" fill-rule="evenodd" fill-opacity="1" /><path clip-path="url(#clip260)" d="M7.37643 298.696 L29.5985 298.696 L29.5985 300.687 L17.0523 333.256 L12.1681 333.256 L23.9736 302.631 L7.37643 302.631 L7.37643 298.696 Z" fill="#000000" fill-rule="evenodd" fill-opacity="1" /><path clip-path="url(#clip260)" d="M38.7189 327.376 L43.6031 327.376 L43.6031 333.256 L38.7189 333.256 L38.7189 327.376 Z" fill="#000000" fill-rule="evenodd" fill-opacity="1" /><path clip-path="url(#clip260)" d="M53.8345 298.696 L72.1909 298.696 L72.1909 302.631 L58.1169 302.631 L58.1169 311.103 Q59.1354 310.756 60.1539 310.594 Q61.1724 310.409 62.1909 310.409 Q67.978 310.409 71.3576 313.58 Q74.7372 316.751 74.7372 322.168 Q74.7372 327.747 71.265 330.849 Q67.7928 333.927 61.4734 333.927 Q59.2974 333.927 57.0289 333.557 Q54.7836 333.186 52.3762 332.446 L52.3762 327.747 Q54.4595 328.881 56.6817 329.436 Q58.9039 329.992 61.3808 329.992 Q65.3854 329.992 67.7233 327.886 Q70.0613 325.779 70.0613 322.168 Q70.0613 318.557 67.7233 316.45 Q65.3854 314.344 61.3808 314.344 Q59.5058 314.344 57.6308 314.761 Q55.7789 315.177 53.8345 316.057 L53.8345 298.696 Z" fill="#000000" fill-rule="evenodd" fill-opacity="1" /><polyline clip-path="url(#clip262)" style="stroke:#009af9; stroke-linecap:butt; stroke-linejoin:round; stroke-width:4; stroke-opacity:1; fill:none" points="
  186.539,1362.29 216.765,1332.07 246.992,1301.84 277.218,1271.61 307.444,1241.39 337.67,1211.16 367.896,1180.93 398.122,1150.71 428.349,1120.48 458.575,1090.26 
  488.801,1060.03 519.027,1029.8 549.253,999.577 579.479,969.351 609.706,939.125 639.932,908.899 670.158,878.672 700.384,848.446 730.61,818.22 760.837,787.994 
  791.063,757.768 821.289,727.542 851.515,697.315 881.741,667.089 911.967,636.863 942.194,606.637 972.42,576.411 1002.65,546.185 1032.87,515.958 1063.1,485.732 
  
  "/>
<polyline clip-path="url(#clip262)" style="stroke:#e26f46; stroke-linecap:butt; stroke-linejoin:round; stroke-width:4; stroke-opacity:1; fill:none" points="
  186.539,1362.29 219.003,1334.15 251.468,1306.01 283.932,1277.86 316.396,1249.72 348.86,1221.58 381.324,1193.44 413.788,1165.29 446.253,1137.15 478.717,1109.01 
  511.181,1080.87 543.645,1052.72 576.109,1024.58 608.573,996.439 641.038,968.297 673.502,940.154 705.966,912.012 738.43,883.869 770.894,855.727 803.358,827.584 
  835.823,799.442 868.287,771.299 900.751,743.157 933.215,715.015 965.679,686.872 998.143,658.73 1030.61,630.587 1063.07,602.445 1095.54,574.302 1128,546.16 
  
  "/>
<polyline clip-path="url(#clip262)" style="stroke:#3da44d; stroke-linecap:butt; stroke-linejoin:round; stroke-width:4; stroke-opacity:1; fill:none" points="
  186.539,1362.29 221.407,1336.09 256.275,1309.89 291.143,1283.68 326.011,1257.48 360.879,1231.28 395.746,1205.08 430.614,1178.87 465.482,1152.67 500.35,1126.47 
  535.218,1100.27 570.086,1074.06 604.954,1047.86 639.821,1021.66 674.689,995.458 709.557,969.255 744.425,943.053 779.293,916.85 814.161,890.648 849.029,864.446 
  883.896,838.243 918.764,812.041 953.632,785.838 988.5,759.636 1023.37,733.434 1058.24,707.231 1093.1,681.029 1127.97,654.826 1162.84,628.624 1197.71,602.422 
  
  "/>
<polyline clip-path="url(#clip262)" style="stroke:#c271d2; stroke-linecap:butt; stroke-linejoin:round; stroke-width:4; stroke-opacity:1; fill:none" points="
  186.539,1362.29 223.989,1337.9 261.438,1313.5 298.888,1289.1 336.337,1264.71 373.787,1240.31 411.236,1215.91 448.686,1191.52 486.135,1167.12 523.585,1142.73 
  561.034,1118.33 598.484,1093.93 635.934,1069.54 673.383,1045.14 710.833,1020.75 748.282,996.35 785.732,971.954 823.181,947.558 860.631,923.162 898.08,898.766 
  935.53,874.37 972.979,849.974 1010.43,825.577 1047.88,801.181 1085.33,776.785 1122.78,752.389 1160.23,727.993 1197.68,703.597 1235.13,679.201 1272.58,654.805 
  
  "/>
<polyline clip-path="url(#clip262)" style="stroke:#ac8d18; stroke-linecap:butt; stroke-linejoin:round; stroke-width:4; stroke-opacity:1; fill:none" points="
  186.539,1362.29 226.762,1339.58 266.984,1316.86 307.206,1294.15 347.429,1271.43 387.651,1248.72 427.873,1226.01 468.096,1203.29 508.318,1180.58 548.54,1157.86 
  588.763,1135.15 628.985,1112.43 669.207,1089.72 709.43,1067.01 749.652,1044.29 789.874,1021.58 830.097,998.863 870.319,976.148 910.541,953.434 950.764,930.72 
  990.986,908.006 1031.21,885.291 1071.43,862.577 1111.65,839.863 1151.88,817.148 1192.1,794.434 1232.32,771.72 1272.54,749.006 1312.76,726.291 1352.99,703.577 
  
  "/>
<polyline clip-path="url(#clip262)" style="stroke:#00a9ad; stroke-linecap:butt; stroke-linejoin:round; stroke-width:4; stroke-opacity:1; fill:none" points="
  186.539,1362.29 229.74,1341.14 272.94,1319.99 316.141,1298.85 359.341,1277.7 402.542,1256.55 445.742,1235.4 488.942,1214.25 532.143,1193.1 575.343,1171.96 
  618.544,1150.81 661.744,1129.66 704.945,1108.51 748.145,1087.36 791.346,1066.21 834.546,1045.06 877.747,1023.92 920.947,1002.77 964.147,981.62 1007.35,960.471 
  1050.55,939.323 1093.75,918.174 1136.95,897.026 1180.15,875.877 1223.35,854.729 1266.55,833.581 1309.75,812.432 1352.95,791.284 1396.15,770.135 1439.35,748.987 
  
  "/>
<polyline clip-path="url(#clip262)" style="stroke:#ed5d92; stroke-linecap:butt; stroke-linejoin:round; stroke-width:4; stroke-opacity:1; fill:none" points="
  186.539,1362.29 232.938,1342.6 279.337,1322.91 325.736,1303.22 372.136,1283.53 418.535,1263.84 464.934,1244.15 511.333,1224.46 557.732,1204.77 604.131,1185.08 
  650.53,1165.39 696.929,1145.7 743.328,1126.01 789.727,1106.31 836.126,1086.62 882.525,1066.93 928.925,1047.24 975.324,1027.55 1021.72,1007.86 1068.12,988.172 
  1114.52,968.481 1160.92,948.791 1207.32,929.1 1253.72,909.409 1300.12,889.719 1346.52,870.028 1392.92,850.338 1439.31,830.647 1485.71,810.957 1532.11,791.266 
  
  "/>
<polyline clip-path="url(#clip262)" style="stroke:#c68125; stroke-linecap:butt; stroke-linejoin:round; stroke-width:4; stroke-opacity:1; fill:none" points="
  186.539,1362.29 236.374,1343.96 286.208,1325.63 336.043,1307.29 385.877,1288.96 435.712,1270.63 485.546,1252.29 535.381,1233.96 585.216,1215.63 635.05,1197.29 
  684.885,1178.96 734.719,1160.63 784.554,1142.29 834.388,1123.96 884.223,1105.63 934.057,1087.29 983.892,1068.96 1033.73,1050.63 1083.56,1032.3 1133.4,1013.96 
  1183.23,995.629 1233.06,977.296 1282.9,958.963 1332.73,940.63 1382.57,922.297 1432.4,903.964 1482.24,885.631 1532.07,867.297 1581.91,848.964 1631.74,830.631 
  
  "/>
<polyline clip-path="url(#clip262)" style="stroke:#00a98d; stroke-linecap:butt; stroke-linejoin:round; stroke-width:4; stroke-opacity:1; fill:none" points="
  186.539,1362.29 240.064,1345.22 293.588,1328.15 347.112,1311.08 400.637,1294.01 454.161,1276.94 507.685,1259.88 561.21,1242.81 614.734,1225.74 668.258,1208.67 
  721.783,1191.6 775.307,1174.53 828.832,1157.46 882.356,1140.39 935.88,1123.32 989.405,1106.25 1042.93,1089.18 1096.45,1072.11 1149.98,1055.04 1203.5,1037.98 
  1257.03,1020.91 1310.55,1003.84 1364.08,986.767 1417.6,969.698 1471.12,952.629 1524.65,935.56 1578.17,918.49 1631.7,901.421 1685.22,884.352 1738.75,867.282 
  
  "/>
<polyline clip-path="url(#clip262)" style="stroke:#8e971d; stroke-linecap:butt; stroke-linejoin:round; stroke-width:4; stroke-opacity:1; fill:none" points="
  186.539,1362.29 244.027,1346.4 301.514,1330.51 359.001,1314.61 416.489,1298.72 473.976,1282.83 531.463,1266.94 588.951,1251.04 646.438,1235.15 703.926,1219.26 
  761.413,1203.37 818.9,1187.47 876.388,1171.58 933.875,1155.69 991.363,1139.8 1048.85,1123.9 1106.34,1108.01 1163.82,1092.12 1221.31,1076.23 1278.8,1060.33 
  1336.29,1044.44 1393.77,1028.55 1451.26,1012.65 1508.75,996.762 1566.24,980.87 1623.72,964.977 1681.21,949.085 1738.7,933.192 1796.19,917.3 1853.67,901.407 
  
  "/>
<polyline clip-path="url(#clip262)" style="stroke:#00a8cb; stroke-linecap:butt; stroke-linejoin:round; stroke-width:4; stroke-opacity:1; fill:none" points="
  186.539,1362.29 248.283,1347.49 310.027,1332.7 371.771,1317.9 433.515,1303.1 495.258,1288.31 557.002,1273.51 618.746,1258.71 680.49,1243.92 742.234,1229.12 
  803.977,1214.32 865.721,1199.52 927.465,1184.73 989.209,1169.93 1050.95,1155.13 1112.7,1140.34 1174.44,1125.54 1236.18,1110.74 1297.93,1095.95 1359.67,1081.15 
  1421.42,1066.35 1483.16,1051.55 1544.9,1036.76 1606.65,1021.96 1668.39,1007.16 1730.13,992.367 1791.88,977.57 1853.62,962.773 1915.37,947.976 1977.11,933.179 
  
  "/>
<polyline clip-path="url(#clip262)" style="stroke:#9b7fe8; stroke-linecap:butt; stroke-linejoin:round; stroke-width:4; stroke-opacity:1; fill:none" points="
  186.539,1362.29 252.855,1348.51 319.17,1334.74 385.486,1320.96 451.801,1307.18 518.116,1293.41 584.432,1279.63 650.747,1265.85 717.063,1252.08 783.378,1238.3 
  849.693,1224.52 916.009,1210.75 982.324,1196.97 1048.64,1183.19 1114.96,1169.41 1181.27,1155.64 1247.59,1141.86 1313.9,1128.08 1380.22,1114.31 1446.53,1100.53 
  1512.85,1086.75 1579.16,1072.98 1645.48,1059.2 1711.79,1045.42 1778.11,1031.65 1844.42,1017.87 1910.74,1004.09 1977.06,990.315 2043.37,976.538 2109.69,962.761 
  
  "/>
<polyline clip-path="url(#clip262)" style="stroke:#608cf6; stroke-linecap:butt; stroke-linejoin:round; stroke-width:4; stroke-opacity:1; fill:none" points="
  186.539,1362.29 257.765,1349.46 328.99,1336.64 400.216,1323.81 471.441,1310.98 542.667,1298.16 613.892,1285.33 685.118,1272.5 756.343,1259.67 827.569,1246.85 
  898.794,1234.02 970.02,1221.19 1041.25,1208.37 1112.47,1195.54 1183.7,1182.71 1254.92,1169.88 1326.15,1157.06 1397.37,1144.23 1468.6,1131.4 1539.82,1118.58 
  1611.05,1105.75 1682.28,1092.92 1753.5,1080.09 1824.73,1067.27 1895.95,1054.44 1967.18,1041.61 2038.4,1028.78 2109.63,1015.96 2180.85,1003.13 2252.08,990.303 
  
  "/>
<polyline clip-path="url(#clip262)" style="stroke:#f05f73; stroke-linecap:butt; stroke-linejoin:round; stroke-width:4; stroke-opacity:1; fill:none" points="
  186.539,1362.29 263.038,1350.35 339.538,1338.41 416.037,1326.46 492.536,1314.52 569.035,1302.58 645.534,1290.63 722.033,1278.69 798.532,1266.75 875.032,1254.81 
  951.531,1242.86 1028.03,1230.92 1104.53,1218.98 1181.03,1207.03 1257.53,1195.09 1334.03,1183.15 1410.53,1171.2 1487.02,1159.26 1563.52,1147.32 1640.02,1135.38 
  1716.52,1123.43 1793.02,1111.49 1869.52,1099.55 1946.02,1087.6 2022.52,1075.66 2099.02,1063.72 2175.52,1051.78 2252.02,1039.83 2328.52,1027.89 2405.01,1015.95 
  
  "/>
<polyline clip-path="url(#clip262)" style="stroke:#dd64b5; stroke-linecap:butt; stroke-linejoin:round; stroke-width:4; stroke-opacity:1; fill:none" points="
  186.539,1362.29 268.702,1351.17 350.866,1340.05 433.029,1328.93 515.192,1317.81 597.356,1306.69 679.519,1295.57 761.682,1284.45 843.845,1273.33 926.009,1262.21 
  1008.17,1251.1 1090.34,1239.98 1172.5,1228.86 1254.66,1217.74 1336.82,1206.62 1418.99,1195.5 1501.15,1184.38 1583.31,1173.26 1665.48,1162.14 1747.64,1151.02 
  1829.8,1139.9 1911.97,1128.78 1994.13,1117.66 2076.29,1106.54 2158.46,1095.42 2240.62,1084.3 2322.78,1073.18 2404.95,1062.06 2487.11,1050.94 2569.27,1039.82 
  
  "/>
<polyline clip-path="url(#clip262)" style="stroke:#6b9e32; stroke-linecap:butt; stroke-linejoin:round; stroke-width:4; stroke-opacity:1; fill:none" points="
  186.539,1362.29 186.539,1362.29 
  
  "/>
<polyline clip-path="url(#clip262)" style="stroke:#009af9; stroke-linecap:butt; stroke-linejoin:round; stroke-width:4; stroke-opacity:1; fill:none" points="
  216.765,1332.07 219.003,1334.15 221.407,1336.09 223.989,1337.9 226.762,1339.58 229.74,1341.14 232.938,1342.6 236.374,1343.96 240.064,1345.22 244.027,1346.4 
  248.283,1347.49 252.855,1348.51 257.765,1349.46 263.038,1350.35 268.702,1351.17 
  "/>
<polyline clip-path="url(#clip262)" style="stroke:#e26f46; stroke-linecap:butt; stroke-linejoin:round; stroke-width:4; stroke-opacity:1; fill:none" points="
  246.992,1301.84 251.468,1306.01 256.275,1309.89 261.438,1313.5 266.984,1316.86 272.94,1319.99 279.337,1322.91 286.208,1325.63 293.588,1328.15 301.514,1330.51 
  310.027,1332.7 319.17,1334.74 328.99,1336.64 339.538,1338.41 350.866,1340.05 
  "/>
<polyline clip-path="url(#clip262)" style="stroke:#3da44d; stroke-linecap:butt; stroke-linejoin:round; stroke-width:4; stroke-opacity:1; fill:none" points="
  277.218,1271.61 283.932,1277.86 291.143,1283.68 298.888,1289.1 307.206,1294.15 316.141,1298.85 325.736,1303.22 336.043,1307.29 347.112,1311.08 359.001,1314.61 
  371.771,1317.9 385.486,1320.96 400.216,1323.81 416.037,1326.46 433.029,1328.93 
  "/>
<polyline clip-path="url(#clip262)" style="stroke:#c271d2; stroke-linecap:butt; stroke-linejoin:round; stroke-width:4; stroke-opacity:1; fill:none" points="
  307.444,1241.39 316.396,1249.72 326.011,1257.48 336.337,1264.71 347.429,1271.43 359.341,1277.7 372.136,1283.53 385.877,1288.96 400.637,1294.01 416.489,1298.72 
  433.515,1303.1 451.801,1307.18 471.441,1310.98 492.536,1314.52 515.192,1317.81 
  "/>
<polyline clip-path="url(#clip262)" style="stroke:#ac8d18; stroke-linecap:butt; stroke-linejoin:round; stroke-width:4; stroke-opacity:1; fill:none" points="
  337.67,1211.16 348.86,1221.58 360.879,1231.28 373.787,1240.31 387.651,1248.72 402.542,1256.55 418.535,1263.84 435.712,1270.63 454.161,1276.94 473.976,1282.83 
  495.258,1288.31 518.116,1293.41 542.667,1298.16 569.035,1302.58 597.356,1306.69 
  "/>
<polyline clip-path="url(#clip262)" style="stroke:#00a9ad; stroke-linecap:butt; stroke-linejoin:round; stroke-width:4; stroke-opacity:1; fill:none" points="
  367.896,1180.93 381.324,1193.44 395.746,1205.08 411.236,1215.91 427.873,1226.01 445.742,1235.4 464.934,1244.15 485.546,1252.29 507.685,1259.88 531.463,1266.94 
  557.002,1273.51 584.432,1279.63 613.892,1285.33 645.534,1290.63 679.519,1295.57 
  "/>
<polyline clip-path="url(#clip262)" style="stroke:#ed5d92; stroke-linecap:butt; stroke-linejoin:round; stroke-width:4; stroke-opacity:1; fill:none" points="
  398.122,1150.71 413.788,1165.29 430.614,1178.87 448.686,1191.52 468.096,1203.29 488.942,1214.25 511.333,1224.46 535.381,1233.96 561.21,1242.81 588.951,1251.04 
  618.746,1258.71 650.747,1265.85 685.118,1272.5 722.033,1278.69 761.682,1284.45 
  "/>
<polyline clip-path="url(#clip262)" style="stroke:#c68125; stroke-linecap:butt; stroke-linejoin:round; stroke-width:4; stroke-opacity:1; fill:none" points="
  428.349,1120.48 446.253,1137.15 465.482,1152.67 486.135,1167.12 508.318,1180.58 532.143,1193.1 557.732,1204.77 585.216,1215.63 614.734,1225.74 646.438,1235.15 
  680.49,1243.92 717.063,1252.08 756.343,1259.67 798.532,1266.75 843.845,1273.33 
  "/>
<polyline clip-path="url(#clip262)" style="stroke:#00a98d; stroke-linecap:butt; stroke-linejoin:round; stroke-width:4; stroke-opacity:1; fill:none" points="
  458.575,1090.26 478.717,1109.01 500.35,1126.47 523.585,1142.73 548.54,1157.86 575.343,1171.96 604.131,1185.08 635.05,1197.29 668.258,1208.67 703.926,1219.26 
  742.234,1229.12 783.378,1238.3 827.569,1246.85 875.032,1254.81 926.009,1262.21 
  "/>
<polyline clip-path="url(#clip262)" style="stroke:#8e971d; stroke-linecap:butt; stroke-linejoin:round; stroke-width:4; stroke-opacity:1; fill:none" points="
  488.801,1060.03 511.181,1080.87 535.218,1100.27 561.034,1118.33 588.763,1135.15 618.544,1150.81 650.53,1165.39 684.885,1178.96 721.783,1191.6 761.413,1203.37 
  803.977,1214.32 849.693,1224.52 898.794,1234.02 951.531,1242.86 1008.17,1251.1 
  "/>
<polyline clip-path="url(#clip262)" style="stroke:#00a8cb; stroke-linecap:butt; stroke-linejoin:round; stroke-width:4; stroke-opacity:1; fill:none" points="
  519.027,1029.8 543.645,1052.72 570.086,1074.06 598.484,1093.93 628.985,1112.43 661.744,1129.66 696.929,1145.7 734.719,1160.63 775.307,1174.53 818.9,1187.47 
  865.721,1199.52 916.009,1210.75 970.02,1221.19 1028.03,1230.92 1090.34,1239.98 
  "/>
<polyline clip-path="url(#clip262)" style="stroke:#9b7fe8; stroke-linecap:butt; stroke-linejoin:round; stroke-width:4; stroke-opacity:1; fill:none" points="
  549.253,999.577 576.109,1024.58 604.954,1047.86 635.934,1069.54 669.207,1089.72 704.945,1108.51 743.328,1126.01 784.554,1142.29 828.832,1157.46 876.388,1171.58 
  927.465,1184.73 982.324,1196.97 1041.25,1208.37 1104.53,1218.98 1172.5,1228.86 
  "/>
<polyline clip-path="url(#clip262)" style="stroke:#608cf6; stroke-linecap:butt; stroke-linejoin:round; stroke-width:4; stroke-opacity:1; fill:none" points="
  579.479,969.351 608.573,996.439 639.821,1021.66 673.383,1045.14 709.43,1067.01 748.145,1087.36 789.727,1106.31 834.388,1123.96 882.356,1140.39 933.875,1155.69 
  989.209,1169.93 1048.64,1183.19 1112.47,1195.54 1181.03,1207.03 1254.66,1217.74 
  "/>
<polyline clip-path="url(#clip262)" style="stroke:#f05f73; stroke-linecap:butt; stroke-linejoin:round; stroke-width:4; stroke-opacity:1; fill:none" points="
  609.706,939.125 641.038,968.297 674.689,995.458 710.833,1020.75 749.652,1044.29 791.346,1066.21 836.126,1086.62 884.223,1105.63 935.88,1123.32 991.363,1139.8 
  1050.95,1155.13 1114.96,1169.41 1183.7,1182.71 1257.53,1195.09 1336.82,1206.62 
  "/>
<polyline clip-path="url(#clip262)" style="stroke:#dd64b5; stroke-linecap:butt; stroke-linejoin:round; stroke-width:4; stroke-opacity:1; fill:none" points="
  639.932,908.899 673.502,940.154 709.557,969.255 748.282,996.35 789.874,1021.58 834.546,1045.06 882.525,1066.93 934.057,1087.29 989.405,1106.25 1048.85,1123.9 
  1112.7,1140.34 1181.27,1155.64 1254.92,1169.88 1334.03,1183.15 1418.99,1195.5 
  "/>
<polyline clip-path="url(#clip262)" style="stroke:#6b9e32; stroke-linecap:butt; stroke-linejoin:round; stroke-width:4; stroke-opacity:1; fill:none" points="
  670.158,878.672 705.966,912.012 744.425,943.053 785.732,971.954 830.097,998.863 877.747,1023.92 928.925,1047.24 983.892,1068.96 1042.93,1089.18 1106.34,1108.01 
  1174.44,1125.54 1247.59,1141.86 1326.15,1157.06 1410.53,1171.2 1501.15,1184.38 
  "/>
<polyline clip-path="url(#clip262)" style="stroke:#009af9; stroke-linecap:butt; stroke-linejoin:round; stroke-width:4; stroke-opacity:1; fill:none" points="
  700.384,848.446 738.43,883.869 779.293,916.85 823.181,947.558 870.319,976.148 920.947,1002.77 975.324,1027.55 1033.73,1050.63 1096.45,1072.11 1163.82,1092.12 
  1236.18,1110.74 1313.9,1128.08 1397.37,1144.23 1487.02,1159.26 1583.31,1173.26 
  "/>
<polyline clip-path="url(#clip262)" style="stroke:#e26f46; stroke-linecap:butt; stroke-linejoin:round; stroke-width:4; stroke-opacity:1; fill:none" points="
  730.61,818.22 770.894,855.727 814.161,890.648 860.631,923.162 910.541,953.434 964.147,981.62 1021.72,1007.86 1083.56,1032.3 1149.98,1055.04 1221.31,1076.23 
  1297.93,1095.95 1380.22,1114.31 1468.6,1131.4 1563.52,1147.32 1665.48,1162.14 
  "/>
<polyline clip-path="url(#clip262)" style="stroke:#3da44d; stroke-linecap:butt; stroke-linejoin:round; stroke-width:4; stroke-opacity:1; fill:none" points="
  760.837,787.994 803.358,827.584 849.029,864.446 898.08,898.766 950.764,930.72 1007.35,960.471 1068.12,988.172 1133.4,1013.96 1203.5,1037.98 1278.8,1060.33 
  1359.67,1081.15 1446.53,1100.53 1539.82,1118.58 1640.02,1135.38 1747.64,1151.02 
  "/>
<polyline clip-path="url(#clip262)" style="stroke:#c271d2; stroke-linecap:butt; stroke-linejoin:round; stroke-width:4; stroke-opacity:1; fill:none" points="
  791.063,757.768 835.823,799.442 883.896,838.243 935.53,874.37 990.986,908.006 1050.55,939.323 1114.52,968.481 1183.23,995.629 1257.03,1020.91 1336.29,1044.44 
  1421.42,1066.35 1512.85,1086.75 1611.05,1105.75 1716.52,1123.43 1829.8,1139.9 
  "/>
<polyline clip-path="url(#clip262)" style="stroke:#ac8d18; stroke-linecap:butt; stroke-linejoin:round; stroke-width:4; stroke-opacity:1; fill:none" points="
  821.289,727.542 868.287,771.299 918.764,812.041 972.979,849.974 1031.21,885.291 1093.75,918.174 1160.92,948.791 1233.06,977.296 1310.55,1003.84 1393.77,1028.55 
  1483.16,1051.55 1579.16,1072.98 1682.28,1092.92 1793.02,1111.49 1911.97,1128.78 
  "/>
<polyline clip-path="url(#clip262)" style="stroke:#00a9ad; stroke-linecap:butt; stroke-linejoin:round; stroke-width:4; stroke-opacity:1; fill:none" points="
  851.515,697.315 900.751,743.157 953.632,785.838 1010.43,825.577 1071.43,862.577 1136.95,897.026 1207.32,929.1 1282.9,958.963 1364.08,986.767 1451.26,1012.65 
  1544.9,1036.76 1645.48,1059.2 1753.5,1080.09 1869.52,1099.55 1994.13,1117.66 
  "/>
<polyline clip-path="url(#clip262)" style="stroke:#ed5d92; stroke-linecap:butt; stroke-linejoin:round; stroke-width:4; stroke-opacity:1; fill:none" points="
  881.741,667.089 933.215,715.015 988.5,759.636 1047.88,801.181 1111.65,839.863 1180.15,875.877 1253.72,909.409 1332.73,940.63 1417.6,969.698 1508.75,996.762 
  1606.65,1021.96 1711.79,1045.42 1824.73,1067.27 1946.02,1087.6 2076.29,1106.54 
  "/>
<polyline clip-path="url(#clip262)" style="stroke:#c68125; stroke-linecap:butt; stroke-linejoin:round; stroke-width:4; stroke-opacity:1; fill:none" points="
  911.967,636.863 965.679,686.872 1023.37,733.434 1085.33,776.785 1151.88,817.148 1223.35,854.729 1300.12,889.719 1382.57,922.297 1471.12,952.629 1566.24,980.87 
  1668.39,1007.16 1778.11,1031.65 1895.95,1054.44 2022.52,1075.66 2158.46,1095.42 
  "/>
<polyline clip-path="url(#clip262)" style="stroke:#00a98d; stroke-linecap:butt; stroke-linejoin:round; stroke-width:4; stroke-opacity:1; fill:none" points="
  942.194,606.637 998.143,658.73 1058.24,707.231 1122.78,752.389 1192.1,794.434 1266.55,833.581 1346.52,870.028 1432.4,903.964 1524.65,935.56 1623.72,964.977 
  1730.13,992.367 1844.42,1017.87 1967.18,1041.61 2099.02,1063.72 2240.62,1084.3 
  "/>
<polyline clip-path="url(#clip262)" style="stroke:#8e971d; stroke-linecap:butt; stroke-linejoin:round; stroke-width:4; stroke-opacity:1; fill:none" points="
  972.42,576.411 1030.61,630.587 1093.1,681.029 1160.23,727.993 1232.32,771.72 1309.75,812.432 1392.92,850.338 1482.24,885.631 1578.17,918.49 1681.21,949.085 
  1791.88,977.57 1910.74,1004.09 2038.4,1028.78 2175.52,1051.78 2322.78,1073.18 
  "/>
<polyline clip-path="url(#clip262)" style="stroke:#00a8cb; stroke-linecap:butt; stroke-linejoin:round; stroke-width:4; stroke-opacity:1; fill:none" points="
  1002.65,546.185 1063.07,602.445 1127.97,654.826 1197.68,703.597 1272.54,749.006 1352.95,791.284 1439.31,830.647 1532.07,867.297 1631.7,901.421 1738.7,933.192 
  1853.62,962.773 1977.06,990.315 2109.63,1015.96 2252.02,1039.83 2404.95,1062.06 
  "/>
<polyline clip-path="url(#clip262)" style="stroke:#9b7fe8; stroke-linecap:butt; stroke-linejoin:round; stroke-width:4; stroke-opacity:1; fill:none" points="
  1032.87,515.958 1095.54,574.302 1162.84,628.624 1235.13,679.201 1312.76,726.291 1396.15,770.135 1485.71,810.957 1581.91,848.964 1685.22,884.352 1796.19,917.3 
  1915.37,947.976 2043.37,976.538 2180.85,1003.13 2328.52,1027.89 2487.11,1050.94 
  "/>
<polyline clip-path="url(#clip262)" style="stroke:#608cf6; stroke-linecap:butt; stroke-linejoin:round; stroke-width:4; stroke-opacity:1; fill:none" points="
  1063.1,485.732 1128,546.16 1197.71,602.422 1272.58,654.805 1352.99,703.577 1439.35,748.987 1532.11,791.266 1631.74,830.631 1738.75,867.282 1853.67,901.407 
  1977.11,933.179 2109.69,962.761 2252.08,990.303 2405.01,1015.95 2569.27,1039.82 
  "/>
<polyline clip-path="url(#clip262)" style="stroke:#0000ff; stroke-linecap:butt; stroke-linejoin:round; stroke-width:8; stroke-opacity:1; fill:none" points="
  950.764,930.72 1332.88,1146.51 
  "/>
<polyline clip-path="url(#clip262)" style="stroke:#0000ff; stroke-linecap:butt; stroke-linejoin:round; stroke-width:8; stroke-opacity:1; fill:none" points="
  1307.68,1109.12 1332.88,1146.51 1287.85,1144.23 
  "/>
<polyline clip-path="url(#clip262)" style="stroke:#0000ff; stroke-linecap:butt; stroke-linejoin:round; stroke-width:8; stroke-opacity:1; fill:none" points="
  1332.88,1146.51 950.764,930.72 
  "/>
<polyline clip-path="url(#clip262)" style="stroke:#ff0000; stroke-linecap:butt; stroke-linejoin:round; stroke-width:4; stroke-opacity:1; fill:none" points="
  1043.59,878.301 1425.7,1094.09 
  "/>
<polyline clip-path="url(#clip262)" style="stroke:#ff0000; stroke-linecap:butt; stroke-linejoin:round; stroke-width:4; stroke-opacity:1; fill:none" points="
  1400.5,1056.71 1425.7,1094.09 1380.68,1091.81 
  "/>
<polyline clip-path="url(#clip262)" style="stroke:#ff0000; stroke-linecap:butt; stroke-linejoin:round; stroke-width:4; stroke-opacity:1; fill:none" points="
  1425.7,1094.09 1043.59,878.301 
  "/>
<polyline clip-path="url(#clip262)" style="stroke:#0000ff; stroke-linecap:butt; stroke-linejoin:round; stroke-width:8; stroke-opacity:1; fill:none" points="
  950.764,930.72 1043.59,878.301 
  "/>
<polyline clip-path="url(#clip262)" style="stroke:#0000ff; stroke-linecap:butt; stroke-linejoin:round; stroke-width:8; stroke-opacity:1; fill:none" points="
  998.565,880.573 1043.59,878.301 1018.39,915.682 
  "/>
<polyline clip-path="url(#clip262)" style="stroke:#0000ff; stroke-linecap:butt; stroke-linejoin:round; stroke-width:8; stroke-opacity:1; fill:none" points="
  1043.59,878.301 950.764,930.72 
  "/>
<polyline clip-path="url(#clip262)" style="stroke:#ff0000; stroke-linecap:butt; stroke-linejoin:round; stroke-width:4; stroke-opacity:1; fill:none" points="
  1332.88,1146.51 1425.7,1094.09 
  "/>
<polyline clip-path="url(#clip262)" style="stroke:#ff0000; stroke-linecap:butt; stroke-linejoin:round; stroke-width:4; stroke-opacity:1; fill:none" points="
  1380.68,1096.36 1425.7,1094.09 1400.5,1131.47 
  "/>
<polyline clip-path="url(#clip262)" style="stroke:#ff0000; stroke-linecap:butt; stroke-linejoin:round; stroke-width:4; stroke-opacity:1; fill:none" points="
  1425.7,1094.09 1332.88,1146.51 
  "/>
</svg>
