<?xml version="1.0" encoding="utf-8"?>
<svg xmlns="http://www.w3.org/2000/svg" xmlns:xlink="http://www.w3.org/1999/xlink" width="672" height="480" viewBox="0 0 2688 1920">
<defs>
  <clipPath id="clip170">
    <rect x="0" y="0" width="2688" height="1920"/>
  </clipPath>
</defs>
<path clip-path="url(#clip170)" d="
M0 1920 L2688 1920 L2688 0 L0 0  Z
  " fill="#ffffff" fill-rule="evenodd" fill-opacity="1"/>
<defs>
  <clipPath id="clip171">
    <rect x="537" y="0" width="1883" height="1883"/>
  </clipPath>
</defs>
<path clip-path="url(#clip170)" d="
M220.612 1800.78 L2371.96 1800.78 L2371.96 47.2441 L220.612 47.2441  Z
  " fill="#ffffff" fill-rule="evenodd" fill-opacity="1"/>
<defs>
  <clipPath id="clip172">
    <rect x="220" y="47" width="2152" height="1755"/>
  </clipPath>
</defs>
<polyline clip-path="url(#clip172)" style="stroke:#000000; stroke-linecap:round; stroke-linejoin:round; stroke-width:2; stroke-opacity:0.1; fill:none" points="
  377.997,1800.78 377.997,47.2441 
  "/>
<polyline clip-path="url(#clip172)" style="stroke:#000000; stroke-linecap:round; stroke-linejoin:round; stroke-width:2; stroke-opacity:0.1; fill:none" points="
  905.681,1800.78 905.681,47.2441 
  "/>
<polyline clip-path="url(#clip172)" style="stroke:#000000; stroke-linecap:round; stroke-linejoin:round; stroke-width:2; stroke-opacity:0.1; fill:none" points="
  1433.36,1800.78 1433.36,47.2441 
  "/>
<polyline clip-path="url(#clip172)" style="stroke:#000000; stroke-linecap:round; stroke-linejoin:round; stroke-width:2; stroke-opacity:0.1; fill:none" points="
  1961.05,1800.78 1961.05,47.2441 
  "/>
<polyline clip-path="url(#clip170)" style="stroke:#000000; stroke-linecap:round; stroke-linejoin:round; stroke-width:4; stroke-opacity:1; fill:none" points="
  220.612,1800.78 2371.96,1800.78 
  "/>
<polyline clip-path="url(#clip170)" style="stroke:#000000; stroke-linecap:round; stroke-linejoin:round; stroke-width:4; stroke-opacity:1; fill:none" points="
  377.997,1800.78 377.997,1781.88 
  "/>
<polyline clip-path="url(#clip170)" style="stroke:#000000; stroke-linecap:round; stroke-linejoin:round; stroke-width:4; stroke-opacity:1; fill:none" points="
  905.681,1800.78 905.681,1781.88 
  "/>
<polyline clip-path="url(#clip170)" style="stroke:#000000; stroke-linecap:round; stroke-linejoin:round; stroke-width:4; stroke-opacity:1; fill:none" points="
  1433.36,1800.78 1433.36,1781.88 
  "/>
<polyline clip-path="url(#clip170)" style="stroke:#000000; stroke-linecap:round; stroke-linejoin:round; stroke-width:4; stroke-opacity:1; fill:none" points="
  1961.05,1800.78 1961.05,1781.88 
  "/>
<path clip-path="url(#clip170)" d="M294.977 1848.65 L324.652 1848.65 L324.652 1852.59 L294.977 1852.59 L294.977 1848.65 Z" fill="#000000" fill-rule="evenodd" fill-opacity="1" /><path clip-path="url(#clip170)" d="M333.564 1830.92 L355.786 1830.92 L355.786 1832.91 L343.24 1865.48 L338.356 1865.48 L350.161 1834.86 L333.564 1834.86 L333.564 1830.92 Z" fill="#000000" fill-rule="evenodd" fill-opacity="1" /><path clip-path="url(#clip170)" d="M377.754 1835 L365.948 1853.45 L377.754 1853.45 L377.754 1835 M376.527 1830.92 L382.407 1830.92 L382.407 1853.45 L387.337 1853.45 L387.337 1857.34 L382.407 1857.34 L382.407 1865.48 L377.754 1865.48 L377.754 1857.34 L362.152 1857.34 L362.152 1852.82 L376.527 1830.92 Z" fill="#000000" fill-rule="evenodd" fill-opacity="1" /><path clip-path="url(#clip170)" d="M395.069 1859.6 L399.953 1859.6 L399.953 1865.48 L395.069 1865.48 L395.069 1859.6 Z" fill="#000000" fill-rule="evenodd" fill-opacity="1" /><path clip-path="url(#clip170)" d="M424.305 1846.85 Q427.661 1847.57 429.536 1849.84 Q431.434 1852.1 431.434 1855.44 Q431.434 1860.55 427.916 1863.35 Q424.397 1866.15 417.916 1866.15 Q415.74 1866.15 413.425 1865.71 Q411.133 1865.3 408.68 1864.44 L408.68 1859.93 Q410.624 1861.06 412.939 1861.64 Q415.254 1862.22 417.777 1862.22 Q422.175 1862.22 424.467 1860.48 Q426.781 1858.75 426.781 1855.44 Q426.781 1852.38 424.629 1850.67 Q422.499 1848.93 418.68 1848.93 L414.652 1848.93 L414.652 1845.09 L418.865 1845.09 Q422.314 1845.09 424.143 1843.72 Q425.971 1842.34 425.971 1839.74 Q425.971 1837.08 424.073 1835.67 Q422.198 1834.23 418.68 1834.23 Q416.758 1834.23 414.559 1834.65 Q412.36 1835.07 409.721 1835.95 L409.721 1831.78 Q412.383 1831.04 414.698 1830.67 Q417.036 1830.3 419.096 1830.3 Q424.42 1830.3 427.522 1832.73 Q430.624 1835.14 430.624 1839.26 Q430.624 1842.13 428.98 1844.12 Q427.337 1846.09 424.305 1846.85 Z" fill="#000000" fill-rule="evenodd" fill-opacity="1" /><path clip-path="url(#clip170)" d="M441.11 1861.55 L448.749 1861.55 L448.749 1835.18 L440.439 1836.85 L440.439 1832.59 L448.703 1830.92 L453.378 1830.92 L453.378 1861.55 L461.017 1861.55 L461.017 1865.48 L441.11 1865.48 L441.11 1861.55 Z" fill="#000000" fill-rule="evenodd" fill-opacity="1" /><path clip-path="url(#clip170)" d="M822.047 1848.65 L851.722 1848.65 L851.722 1852.59 L822.047 1852.59 L822.047 1848.65 Z" fill="#000000" fill-rule="evenodd" fill-opacity="1" /><path clip-path="url(#clip170)" d="M860.634 1830.92 L882.857 1830.92 L882.857 1832.91 L870.31 1865.48 L865.426 1865.48 L877.232 1834.86 L860.634 1834.86 L860.634 1830.92 Z" fill="#000000" fill-rule="evenodd" fill-opacity="1" /><path clip-path="url(#clip170)" d="M904.824 1835 L893.019 1853.45 L904.824 1853.45 L904.824 1835 M903.597 1830.92 L909.477 1830.92 L909.477 1853.45 L914.407 1853.45 L914.407 1857.34 L909.477 1857.34 L909.477 1865.48 L904.824 1865.48 L904.824 1857.34 L889.222 1857.34 L889.222 1852.82 L903.597 1830.92 Z" fill="#000000" fill-rule="evenodd" fill-opacity="1" /><path clip-path="url(#clip170)" d="M922.139 1859.6 L927.023 1859.6 L927.023 1865.48 L922.139 1865.48 L922.139 1859.6 Z" fill="#000000" fill-rule="evenodd" fill-opacity="1" /><path clip-path="url(#clip170)" d="M951.375 1846.85 Q954.731 1847.57 956.606 1849.84 Q958.504 1852.1 958.504 1855.44 Q958.504 1860.55 954.986 1863.35 Q951.467 1866.15 944.986 1866.15 Q942.81 1866.15 940.495 1865.71 Q938.204 1865.3 935.75 1864.44 L935.75 1859.93 Q937.694 1861.06 940.009 1861.64 Q942.324 1862.22 944.847 1862.22 Q949.245 1862.22 951.537 1860.48 Q953.852 1858.75 953.852 1855.44 Q953.852 1852.38 951.699 1850.67 Q949.569 1848.93 945.75 1848.93 L941.722 1848.93 L941.722 1845.09 L945.935 1845.09 Q949.384 1845.09 951.213 1843.72 Q953.041 1842.34 953.041 1839.74 Q953.041 1837.08 951.143 1835.67 Q949.268 1834.23 945.75 1834.23 Q943.828 1834.23 941.629 1834.65 Q939.43 1835.07 936.791 1835.95 L936.791 1831.78 Q939.453 1831.04 941.768 1830.67 Q944.106 1830.3 946.166 1830.3 Q951.49 1830.3 954.592 1832.73 Q957.694 1835.14 957.694 1839.26 Q957.694 1842.13 956.051 1844.12 Q954.407 1846.09 951.375 1846.85 Z" fill="#000000" fill-rule="evenodd" fill-opacity="1" /><path clip-path="url(#clip170)" d="M977.37 1834 Q973.759 1834 971.93 1837.57 Q970.125 1841.11 970.125 1848.24 Q970.125 1855.34 971.93 1858.91 Q973.759 1862.45 977.37 1862.45 Q981.004 1862.45 982.81 1858.91 Q984.638 1855.34 984.638 1848.24 Q984.638 1841.11 982.81 1837.57 Q981.004 1834 977.37 1834 M977.37 1830.3 Q983.18 1830.3 986.236 1834.9 Q989.314 1839.49 989.314 1848.24 Q989.314 1856.96 986.236 1861.57 Q983.18 1866.15 977.37 1866.15 Q971.56 1866.15 968.481 1861.57 Q965.426 1856.96 965.426 1848.24 Q965.426 1839.49 968.481 1834.9 Q971.56 1830.3 977.37 1830.3 Z" fill="#000000" fill-rule="evenodd" fill-opacity="1" /><path clip-path="url(#clip170)" d="M1349.82 1848.65 L1379.5 1848.65 L1379.5 1852.59 L1349.82 1852.59 L1349.82 1848.65 Z" fill="#000000" fill-rule="evenodd" fill-opacity="1" /><path clip-path="url(#clip170)" d="M1388.41 1830.92 L1410.63 1830.92 L1410.63 1832.91 L1398.09 1865.48 L1393.2 1865.48 L1405.01 1834.86 L1388.41 1834.86 L1388.41 1830.92 Z" fill="#000000" fill-rule="evenodd" fill-opacity="1" /><path clip-path="url(#clip170)" d="M1432.6 1835 L1420.79 1853.45 L1432.6 1853.45 L1432.6 1835 M1431.37 1830.92 L1437.25 1830.92 L1437.25 1853.45 L1442.18 1853.45 L1442.18 1857.34 L1437.25 1857.34 L1437.25 1865.48 L1432.6 1865.48 L1432.6 1857.34 L1417 1857.34 L1417 1852.82 L1431.37 1830.92 Z" fill="#000000" fill-rule="evenodd" fill-opacity="1" /><path clip-path="url(#clip170)" d="M1449.91 1859.6 L1454.8 1859.6 L1454.8 1865.48 L1449.91 1865.48 L1449.91 1859.6 Z" fill="#000000" fill-rule="evenodd" fill-opacity="1" /><path clip-path="url(#clip170)" d="M1469.01 1861.55 L1485.33 1861.55 L1485.33 1865.48 L1463.39 1865.48 L1463.39 1861.55 Q1466.05 1858.79 1470.63 1854.16 Q1475.24 1849.51 1476.42 1848.17 Q1478.66 1845.65 1479.54 1843.91 Q1480.45 1842.15 1480.45 1840.46 Q1480.45 1837.71 1478.5 1835.97 Q1476.58 1834.23 1473.48 1834.23 Q1471.28 1834.23 1468.83 1835 Q1466.4 1835.76 1463.62 1837.31 L1463.62 1832.59 Q1466.44 1831.46 1468.9 1830.88 Q1471.35 1830.3 1473.39 1830.3 Q1478.76 1830.3 1481.95 1832.98 Q1485.15 1835.67 1485.15 1840.16 Q1485.15 1842.29 1484.34 1844.21 Q1483.55 1846.11 1481.44 1848.7 Q1480.86 1849.37 1477.76 1852.59 Q1474.66 1855.78 1469.01 1861.55 Z" fill="#000000" fill-rule="evenodd" fill-opacity="1" /><path clip-path="url(#clip170)" d="M1495.29 1864.77 L1495.29 1860.51 Q1497.04 1861.34 1498.85 1861.78 Q1500.66 1862.22 1502.39 1862.22 Q1507.02 1862.22 1509.45 1859.12 Q1511.91 1855.99 1512.25 1849.65 Q1510.91 1851.64 1508.85 1852.71 Q1506.79 1853.77 1504.29 1853.77 Q1499.1 1853.77 1496.07 1850.65 Q1493.06 1847.5 1493.06 1842.06 Q1493.06 1836.73 1496.21 1833.52 Q1499.36 1830.3 1504.59 1830.3 Q1510.59 1830.3 1513.73 1834.9 Q1516.91 1839.49 1516.91 1848.24 Q1516.91 1856.41 1513.02 1861.29 Q1509.15 1866.15 1502.6 1866.15 Q1500.84 1866.15 1499.04 1865.81 Q1497.23 1865.46 1495.29 1864.77 M1504.59 1850.11 Q1507.74 1850.11 1509.57 1847.96 Q1511.42 1845.81 1511.42 1842.06 Q1511.42 1838.33 1509.57 1836.18 Q1507.74 1834 1504.59 1834 Q1501.44 1834 1499.59 1836.18 Q1497.76 1838.33 1497.76 1842.06 Q1497.76 1845.81 1499.59 1847.96 Q1501.44 1850.11 1504.59 1850.11 Z" fill="#000000" fill-rule="evenodd" fill-opacity="1" /><path clip-path="url(#clip170)" d="M1877.46 1848.65 L1907.14 1848.65 L1907.14 1852.59 L1877.46 1852.59 L1877.46 1848.65 Z" fill="#000000" fill-rule="evenodd" fill-opacity="1" /><path clip-path="url(#clip170)" d="M1916.05 1830.92 L1938.27 1830.92 L1938.27 1832.91 L1925.72 1865.48 L1920.84 1865.48 L1932.65 1834.86 L1916.05 1834.86 L1916.05 1830.92 Z" fill="#000000" fill-rule="evenodd" fill-opacity="1" /><path clip-path="url(#clip170)" d="M1960.24 1835 L1948.43 1853.45 L1960.24 1853.45 L1960.24 1835 M1959.01 1830.92 L1964.89 1830.92 L1964.89 1853.45 L1969.82 1853.45 L1969.82 1857.34 L1964.89 1857.34 L1964.89 1865.48 L1960.24 1865.48 L1960.24 1857.34 L1944.64 1857.34 L1944.64 1852.82 L1959.01 1830.92 Z" fill="#000000" fill-rule="evenodd" fill-opacity="1" /><path clip-path="url(#clip170)" d="M1977.55 1859.6 L1982.44 1859.6 L1982.44 1865.48 L1977.55 1865.48 L1977.55 1859.6 Z" fill="#000000" fill-rule="evenodd" fill-opacity="1" /><path clip-path="url(#clip170)" d="M1996.65 1861.55 L2012.97 1861.55 L2012.97 1865.48 L1991.02 1865.48 L1991.02 1861.55 Q1993.69 1858.79 1998.27 1854.16 Q2002.88 1849.51 2004.06 1848.17 Q2006.3 1845.65 2007.18 1843.91 Q2008.08 1842.15 2008.08 1840.46 Q2008.08 1837.71 2006.14 1835.97 Q2004.22 1834.23 2001.12 1834.23 Q1998.92 1834.23 1996.46 1835 Q1994.03 1835.76 1991.26 1837.31 L1991.26 1832.59 Q1994.08 1831.46 1996.53 1830.88 Q1998.99 1830.3 2001.02 1830.3 Q2006.39 1830.3 2009.59 1832.98 Q2012.78 1835.67 2012.78 1840.16 Q2012.78 1842.29 2011.97 1844.21 Q2011.19 1846.11 2009.08 1848.7 Q2008.5 1849.37 2005.4 1852.59 Q2002.3 1855.78 1996.65 1861.55 Z" fill="#000000" fill-rule="evenodd" fill-opacity="1" /><path clip-path="url(#clip170)" d="M2032.78 1849.07 Q2029.45 1849.07 2027.53 1850.85 Q2025.63 1852.64 2025.63 1855.76 Q2025.63 1858.89 2027.53 1860.67 Q2029.45 1862.45 2032.78 1862.45 Q2036.12 1862.45 2038.04 1860.67 Q2039.96 1858.86 2039.96 1855.76 Q2039.96 1852.64 2038.04 1850.85 Q2036.14 1849.07 2032.78 1849.07 M2028.11 1847.08 Q2025.1 1846.34 2023.41 1844.28 Q2021.74 1842.22 2021.74 1839.26 Q2021.74 1835.11 2024.68 1832.71 Q2027.64 1830.3 2032.78 1830.3 Q2037.95 1830.3 2040.89 1832.71 Q2043.83 1835.11 2043.83 1839.26 Q2043.83 1842.22 2042.14 1844.28 Q2040.47 1846.34 2037.48 1847.08 Q2040.86 1847.87 2042.74 1850.16 Q2044.64 1852.45 2044.64 1855.76 Q2044.64 1860.78 2041.56 1863.47 Q2038.5 1866.15 2032.78 1866.15 Q2027.07 1866.15 2023.99 1863.47 Q2020.93 1860.78 2020.93 1855.76 Q2020.93 1852.45 2022.83 1850.16 Q2024.73 1847.87 2028.11 1847.08 M2026.39 1839.7 Q2026.39 1842.38 2028.06 1843.89 Q2029.75 1845.39 2032.78 1845.39 Q2035.79 1845.39 2037.48 1843.89 Q2039.2 1842.38 2039.2 1839.7 Q2039.2 1837.01 2037.48 1835.51 Q2035.79 1834 2032.78 1834 Q2029.75 1834 2028.06 1835.51 Q2026.39 1837.01 2026.39 1839.7 Z" fill="#000000" fill-rule="evenodd" fill-opacity="1" /><polyline clip-path="url(#clip172)" style="stroke:#000000; stroke-linecap:round; stroke-linejoin:round; stroke-width:2; stroke-opacity:0.1; fill:none" points="
  220.612,1690.76 2371.96,1690.76 
  "/>
<polyline clip-path="url(#clip172)" style="stroke:#000000; stroke-linecap:round; stroke-linejoin:round; stroke-width:2; stroke-opacity:0.1; fill:none" points="
  220.612,1402.34 2371.96,1402.34 
  "/>
<polyline clip-path="url(#clip172)" style="stroke:#000000; stroke-linecap:round; stroke-linejoin:round; stroke-width:2; stroke-opacity:0.1; fill:none" points="
  220.612,1113.92 2371.96,1113.92 
  "/>
<polyline clip-path="url(#clip172)" style="stroke:#000000; stroke-linecap:round; stroke-linejoin:round; stroke-width:2; stroke-opacity:0.1; fill:none" points="
  220.612,825.502 2371.96,825.502 
  "/>
<polyline clip-path="url(#clip172)" style="stroke:#000000; stroke-linecap:round; stroke-linejoin:round; stroke-width:2; stroke-opacity:0.1; fill:none" points="
  220.612,537.082 2371.96,537.082 
  "/>
<polyline clip-path="url(#clip172)" style="stroke:#000000; stroke-linecap:round; stroke-linejoin:round; stroke-width:2; stroke-opacity:0.1; fill:none" points="
  220.612,248.662 2371.96,248.662 
  "/>
<polyline clip-path="url(#clip170)" style="stroke:#000000; stroke-linecap:round; stroke-linejoin:round; stroke-width:4; stroke-opacity:1; fill:none" points="
  220.612,1800.78 220.612,47.2441 
  "/>
<polyline clip-path="url(#clip170)" style="stroke:#000000; stroke-linecap:round; stroke-linejoin:round; stroke-width:4; stroke-opacity:1; fill:none" points="
  220.612,1690.76 237.411,1690.76 
  "/>
<polyline clip-path="url(#clip170)" style="stroke:#000000; stroke-linecap:round; stroke-linejoin:round; stroke-width:4; stroke-opacity:1; fill:none" points="
  220.612,1402.34 237.411,1402.34 
  "/>
<polyline clip-path="url(#clip170)" style="stroke:#000000; stroke-linecap:round; stroke-linejoin:round; stroke-width:4; stroke-opacity:1; fill:none" points="
  220.612,1113.92 237.411,1113.92 
  "/>
<polyline clip-path="url(#clip170)" style="stroke:#000000; stroke-linecap:round; stroke-linejoin:round; stroke-width:4; stroke-opacity:1; fill:none" points="
  220.612,825.502 237.411,825.502 
  "/>
<polyline clip-path="url(#clip170)" style="stroke:#000000; stroke-linecap:round; stroke-linejoin:round; stroke-width:4; stroke-opacity:1; fill:none" points="
  220.612,537.082 237.411,537.082 
  "/>
<polyline clip-path="url(#clip170)" style="stroke:#000000; stroke-linecap:round; stroke-linejoin:round; stroke-width:4; stroke-opacity:1; fill:none" points="
  220.612,248.662 237.411,248.662 
  "/>
<path clip-path="url(#clip170)" d="M66.2881 1677.56 L54.4827 1696.01 L66.2881 1696.01 L66.2881 1677.56 M65.0613 1673.48 L70.9409 1673.48 L70.9409 1696.01 L75.8714 1696.01 L75.8714 1699.89 L70.9409 1699.89 L70.9409 1708.04 L66.2881 1708.04 L66.2881 1699.89 L50.6864 1699.89 L50.6864 1695.38 L65.0613 1673.48 Z" fill="#000000" fill-rule="evenodd" fill-opacity="1" /><path clip-path="url(#clip170)" d="M93.6028 1676.56 Q89.9917 1676.56 88.163 1680.13 Q86.3575 1683.67 86.3575 1690.8 Q86.3575 1697.9 88.163 1701.47 Q89.9917 1705.01 93.6028 1705.01 Q97.2371 1705.01 99.0426 1701.47 Q100.871 1697.9 100.871 1690.8 Q100.871 1683.67 99.0426 1680.13 Q97.2371 1676.56 93.6028 1676.56 M93.6028 1672.86 Q99.413 1672.86 102.469 1677.46 Q105.547 1682.05 105.547 1690.8 Q105.547 1699.52 102.469 1704.13 Q99.413 1708.71 93.6028 1708.71 Q87.7927 1708.71 84.714 1704.13 Q81.6584 1699.52 81.6584 1690.8 Q81.6584 1682.05 84.714 1677.46 Q87.7927 1672.86 93.6028 1672.86 Z" fill="#000000" fill-rule="evenodd" fill-opacity="1" /><path clip-path="url(#clip170)" d="M113.765 1702.16 L118.649 1702.16 L118.649 1708.04 L113.765 1708.04 L113.765 1702.16 Z" fill="#000000" fill-rule="evenodd" fill-opacity="1" /><path clip-path="url(#clip170)" d="M127.654 1673.48 L149.876 1673.48 L149.876 1675.47 L137.329 1708.04 L132.445 1708.04 L144.251 1677.42 L127.654 1677.42 L127.654 1673.48 Z" fill="#000000" fill-rule="evenodd" fill-opacity="1" /><path clip-path="url(#clip170)" d="M173.163 1689.41 Q176.519 1690.13 178.394 1692.39 Q180.292 1694.66 180.292 1698 Q180.292 1703.11 176.774 1705.91 Q173.255 1708.71 166.774 1708.71 Q164.598 1708.71 162.283 1708.27 Q159.991 1707.86 157.538 1707 L157.538 1702.49 Q159.482 1703.62 161.797 1704.2 Q164.112 1704.78 166.635 1704.78 Q171.033 1704.78 173.325 1703.04 Q175.639 1701.31 175.639 1698 Q175.639 1694.94 173.487 1693.23 Q171.357 1691.49 167.538 1691.49 L163.51 1691.49 L163.51 1687.65 L167.723 1687.65 Q171.172 1687.65 173.001 1686.28 Q174.829 1684.89 174.829 1682.3 Q174.829 1679.64 172.931 1678.23 Q171.056 1676.79 167.538 1676.79 Q165.616 1676.79 163.417 1677.21 Q161.218 1677.63 158.579 1678.51 L158.579 1674.34 Q161.241 1673.6 163.556 1673.23 Q165.894 1672.86 167.954 1672.86 Q173.278 1672.86 176.38 1675.29 Q179.482 1677.7 179.482 1681.82 Q179.482 1684.69 177.838 1686.68 Q176.195 1688.64 173.163 1689.41 Z" fill="#000000" fill-rule="evenodd" fill-opacity="1" /><path clip-path="url(#clip170)" d="M65.1539 1389.14 L53.3484 1407.59 L65.1539 1407.59 L65.1539 1389.14 M63.927 1385.06 L69.8066 1385.06 L69.8066 1407.59 L74.7372 1407.59 L74.7372 1411.47 L69.8066 1411.47 L69.8066 1419.62 L65.1539 1419.62 L65.1539 1411.47 L49.5521 1411.47 L49.5521 1406.96 L63.927 1385.06 Z" fill="#000000" fill-rule="evenodd" fill-opacity="1" /><path clip-path="url(#clip170)" d="M92.4686 1388.14 Q88.8575 1388.14 87.0288 1391.71 Q85.2232 1395.25 85.2232 1402.38 Q85.2232 1409.48 87.0288 1413.05 Q88.8575 1416.59 92.4686 1416.59 Q96.1028 1416.59 97.9083 1413.05 Q99.737 1409.48 99.737 1402.38 Q99.737 1395.25 97.9083 1391.71 Q96.1028 1388.14 92.4686 1388.14 M92.4686 1384.44 Q98.2787 1384.44 101.334 1389.04 Q104.413 1393.63 104.413 1402.38 Q104.413 1411.1 101.334 1415.71 Q98.2787 1420.29 92.4686 1420.29 Q86.6584 1420.29 83.5797 1415.71 Q80.5242 1411.1 80.5242 1402.38 Q80.5242 1393.63 83.5797 1389.04 Q86.6584 1384.44 92.4686 1384.44 Z" fill="#000000" fill-rule="evenodd" fill-opacity="1" /><path clip-path="url(#clip170)" d="M112.63 1413.74 L117.515 1413.74 L117.515 1419.62 L112.63 1419.62 L112.63 1413.74 Z" fill="#000000" fill-rule="evenodd" fill-opacity="1" /><path clip-path="url(#clip170)" d="M126.519 1385.06 L148.741 1385.06 L148.741 1387.05 L136.195 1419.62 L131.311 1419.62 L143.116 1389 L126.519 1389 L126.519 1385.06 Z" fill="#000000" fill-rule="evenodd" fill-opacity="1" /><path clip-path="url(#clip170)" d="M170.709 1389.14 L158.903 1407.59 L170.709 1407.59 L170.709 1389.14 M169.482 1385.06 L175.362 1385.06 L175.362 1407.59 L180.292 1407.59 L180.292 1411.47 L175.362 1411.47 L175.362 1419.62 L170.709 1419.62 L170.709 1411.47 L155.107 1411.47 L155.107 1406.96 L169.482 1385.06 Z" fill="#000000" fill-rule="evenodd" fill-opacity="1" /><path clip-path="url(#clip170)" d="M66.6354 1100.72 L54.8299 1119.17 L66.6354 1119.17 L66.6354 1100.72 M65.4085 1096.64 L71.2881 1096.64 L71.2881 1119.17 L76.2186 1119.17 L76.2186 1123.05 L71.2881 1123.05 L71.2881 1131.2 L66.6354 1131.2 L66.6354 1123.05 L51.0336 1123.05 L51.0336 1118.54 L65.4085 1096.64 Z" fill="#000000" fill-rule="evenodd" fill-opacity="1" /><path clip-path="url(#clip170)" d="M93.95 1099.72 Q90.3389 1099.72 88.5103 1103.29 Q86.7047 1106.83 86.7047 1113.96 Q86.7047 1121.06 88.5103 1124.63 Q90.3389 1128.17 93.95 1128.17 Q97.5843 1128.17 99.3898 1124.63 Q101.219 1121.06 101.219 1113.96 Q101.219 1106.83 99.3898 1103.29 Q97.5843 1099.72 93.95 1099.72 M93.95 1096.02 Q99.7602 1096.02 102.816 1100.62 Q105.894 1105.21 105.894 1113.96 Q105.894 1122.68 102.816 1127.29 Q99.7602 1131.87 93.95 1131.87 Q88.1399 1131.87 85.0612 1127.29 Q82.0057 1122.68 82.0057 1113.96 Q82.0057 1105.21 85.0612 1100.62 Q88.1399 1096.02 93.95 1096.02 Z" fill="#000000" fill-rule="evenodd" fill-opacity="1" /><path clip-path="url(#clip170)" d="M114.112 1125.32 L118.996 1125.32 L118.996 1131.2 L114.112 1131.2 L114.112 1125.32 Z" fill="#000000" fill-rule="evenodd" fill-opacity="1" /><path clip-path="url(#clip170)" d="M128.001 1096.64 L150.223 1096.64 L150.223 1098.63 L137.677 1131.2 L132.792 1131.2 L144.598 1100.58 L128.001 1100.58 L128.001 1096.64 Z" fill="#000000" fill-rule="evenodd" fill-opacity="1" /><path clip-path="url(#clip170)" d="M159.39 1096.64 L177.746 1096.64 L177.746 1100.58 L163.672 1100.58 L163.672 1109.05 Q164.69 1108.7 165.709 1108.54 Q166.727 1108.36 167.746 1108.36 Q173.533 1108.36 176.913 1111.53 Q180.292 1114.7 180.292 1120.11 Q180.292 1125.69 176.82 1128.79 Q173.348 1131.87 167.028 1131.87 Q164.852 1131.87 162.584 1131.5 Q160.339 1131.13 157.931 1130.39 L157.931 1125.69 Q160.014 1126.83 162.237 1127.38 Q164.459 1127.94 166.936 1127.94 Q170.94 1127.94 173.278 1125.83 Q175.616 1123.73 175.616 1120.11 Q175.616 1116.5 173.278 1114.4 Q170.94 1112.29 166.936 1112.29 Q165.061 1112.29 163.186 1112.71 Q161.334 1113.12 159.39 1114 L159.39 1096.64 Z" fill="#000000" fill-rule="evenodd" fill-opacity="1" /><path clip-path="url(#clip170)" d="M65.478 812.296 L53.6725 830.745 L65.478 830.745 L65.478 812.296 M64.2511 808.222 L70.1307 808.222 L70.1307 830.745 L75.0612 830.745 L75.0612 834.634 L70.1307 834.634 L70.1307 842.782 L65.478 842.782 L65.478 834.634 L49.8762 834.634 L49.8762 830.12 L64.2511 808.222 Z" fill="#000000" fill-rule="evenodd" fill-opacity="1" /><path clip-path="url(#clip170)" d="M92.7926 811.301 Q89.1815 811.301 87.3528 814.866 Q85.5473 818.407 85.5473 825.537 Q85.5473 832.643 87.3528 836.208 Q89.1815 839.75 92.7926 839.75 Q96.4269 839.75 98.2324 836.208 Q100.061 832.643 100.061 825.537 Q100.061 818.407 98.2324 814.866 Q96.4269 811.301 92.7926 811.301 M92.7926 807.597 Q98.6028 807.597 101.658 812.204 Q104.737 816.787 104.737 825.537 Q104.737 834.264 101.658 838.87 Q98.6028 843.453 92.7926 843.453 Q86.9825 843.453 83.9038 838.87 Q80.8483 834.264 80.8483 825.537 Q80.8483 816.787 83.9038 812.204 Q86.9825 807.597 92.7926 807.597 Z" fill="#000000" fill-rule="evenodd" fill-opacity="1" /><path clip-path="url(#clip170)" d="M112.955 836.903 L117.839 836.903 L117.839 842.782 L112.955 842.782 L112.955 836.903 Z" fill="#000000" fill-rule="evenodd" fill-opacity="1" /><path clip-path="url(#clip170)" d="M126.843 808.222 L149.065 808.222 L149.065 810.213 L136.519 842.782 L131.635 842.782 L143.441 812.157 L126.843 812.157 L126.843 808.222 Z" fill="#000000" fill-rule="evenodd" fill-opacity="1" /><path clip-path="url(#clip170)" d="M168.764 823.639 Q165.616 823.639 163.764 825.791 Q161.936 827.944 161.936 831.694 Q161.936 835.421 163.764 837.597 Q165.616 839.75 168.764 839.75 Q171.913 839.75 173.741 837.597 Q175.593 835.421 175.593 831.694 Q175.593 827.944 173.741 825.791 Q171.913 823.639 168.764 823.639 M178.047 808.986 L178.047 813.245 Q176.288 812.412 174.482 811.972 Q172.7 811.532 170.94 811.532 Q166.311 811.532 163.857 814.657 Q161.427 817.782 161.079 824.102 Q162.445 822.088 164.505 821.023 Q166.565 819.935 169.042 819.935 Q174.251 819.935 177.26 823.106 Q180.292 826.254 180.292 831.694 Q180.292 837.018 177.144 840.236 Q173.996 843.453 168.764 843.453 Q162.769 843.453 159.598 838.87 Q156.427 834.264 156.427 825.537 Q156.427 817.342 160.315 812.481 Q164.204 807.597 170.755 807.597 Q172.514 807.597 174.297 807.944 Q176.102 808.292 178.047 808.986 Z" fill="#000000" fill-rule="evenodd" fill-opacity="1" /><path clip-path="url(#clip170)" d="M66.5428 523.876 L54.7373 542.325 L66.5428 542.325 L66.5428 523.876 M65.3159 519.802 L71.1955 519.802 L71.1955 542.325 L76.1261 542.325 L76.1261 546.214 L71.1955 546.214 L71.1955 554.362 L66.5428 554.362 L66.5428 546.214 L50.941 546.214 L50.941 541.7 L65.3159 519.802 Z" fill="#000000" fill-rule="evenodd" fill-opacity="1" /><path clip-path="url(#clip170)" d="M93.8574 522.881 Q90.2464 522.881 88.4177 526.446 Q86.6121 529.987 86.6121 537.117 Q86.6121 544.223 88.4177 547.788 Q90.2464 551.33 93.8574 551.33 Q97.4917 551.33 99.2972 547.788 Q101.126 544.223 101.126 537.117 Q101.126 529.987 99.2972 526.446 Q97.4917 522.881 93.8574 522.881 M93.8574 519.177 Q99.6676 519.177 102.723 523.784 Q105.802 528.367 105.802 537.117 Q105.802 545.844 102.723 550.45 Q99.6676 555.033 93.8574 555.033 Q88.0473 555.033 84.9686 550.45 Q81.9131 545.844 81.9131 537.117 Q81.9131 528.367 84.9686 523.784 Q88.0473 519.177 93.8574 519.177 Z" fill="#000000" fill-rule="evenodd" fill-opacity="1" /><path clip-path="url(#clip170)" d="M114.019 548.483 L118.904 548.483 L118.904 554.362 L114.019 554.362 L114.019 548.483 Z" fill="#000000" fill-rule="evenodd" fill-opacity="1" /><path clip-path="url(#clip170)" d="M127.908 519.802 L150.13 519.802 L150.13 521.793 L137.584 554.362 L132.7 554.362 L144.505 523.737 L127.908 523.737 L127.908 519.802 Z" fill="#000000" fill-rule="evenodd" fill-opacity="1" /><path clip-path="url(#clip170)" d="M158.07 519.802 L180.292 519.802 L180.292 521.793 L167.746 554.362 L162.862 554.362 L174.667 523.737 L158.07 523.737 L158.07 519.802 Z" fill="#000000" fill-rule="evenodd" fill-opacity="1" /><path clip-path="url(#clip170)" d="M65.7326 235.456 L53.9271 253.905 L65.7326 253.905 L65.7326 235.456 M64.5057 231.382 L70.3853 231.382 L70.3853 253.905 L75.3159 253.905 L75.3159 257.794 L70.3853 257.794 L70.3853 265.942 L65.7326 265.942 L65.7326 257.794 L50.1308 257.794 L50.1308 253.28 L64.5057 231.382 Z" fill="#000000" fill-rule="evenodd" fill-opacity="1" /><path clip-path="url(#clip170)" d="M93.0473 234.461 Q89.4362 234.461 87.6075 238.026 Q85.8019 241.567 85.8019 248.697 Q85.8019 255.803 87.6075 259.368 Q89.4362 262.91 93.0473 262.91 Q96.6815 262.91 98.487 259.368 Q100.316 255.803 100.316 248.697 Q100.316 241.567 98.487 238.026 Q96.6815 234.461 93.0473 234.461 M93.0473 230.757 Q98.8574 230.757 101.913 235.364 Q104.992 239.947 104.992 248.697 Q104.992 257.424 101.913 262.03 Q98.8574 266.613 93.0473 266.613 Q87.2371 266.613 84.1584 262.03 Q81.1029 257.424 81.1029 248.697 Q81.1029 239.947 84.1584 235.364 Q87.2371 230.757 93.0473 230.757 Z" fill="#000000" fill-rule="evenodd" fill-opacity="1" /><path clip-path="url(#clip170)" d="M113.209 260.062 L118.093 260.062 L118.093 265.942 L113.209 265.942 L113.209 260.062 Z" fill="#000000" fill-rule="evenodd" fill-opacity="1" /><path clip-path="url(#clip170)" d="M127.098 231.382 L149.32 231.382 L149.32 233.373 L136.774 265.942 L131.89 265.942 L143.695 235.317 L127.098 235.317 L127.098 231.382 Z" fill="#000000" fill-rule="evenodd" fill-opacity="1" /><path clip-path="url(#clip170)" d="M168.44 249.53 Q165.107 249.53 163.186 251.313 Q161.288 253.095 161.288 256.22 Q161.288 259.345 163.186 261.127 Q165.107 262.91 168.44 262.91 Q171.774 262.91 173.695 261.127 Q175.616 259.322 175.616 256.22 Q175.616 253.095 173.695 251.313 Q171.797 249.53 168.44 249.53 M163.764 247.539 Q160.755 246.799 159.065 244.739 Q157.399 242.678 157.399 239.715 Q157.399 235.572 160.339 233.164 Q163.302 230.757 168.44 230.757 Q173.602 230.757 176.542 233.164 Q179.482 235.572 179.482 239.715 Q179.482 242.678 177.792 244.739 Q176.126 246.799 173.139 247.539 Q176.519 248.326 178.394 250.618 Q180.292 252.91 180.292 256.22 Q180.292 261.243 177.213 263.928 Q174.158 266.613 168.44 266.613 Q162.723 266.613 159.644 263.928 Q156.589 261.243 156.589 256.22 Q156.589 252.91 158.487 250.618 Q160.385 248.326 163.764 247.539 M162.052 240.155 Q162.052 242.84 163.718 244.345 Q165.408 245.85 168.44 245.85 Q171.45 245.85 173.139 244.345 Q174.852 242.84 174.852 240.155 Q174.852 237.47 173.139 235.965 Q171.45 234.461 168.44 234.461 Q165.408 234.461 163.718 235.965 Q162.052 237.47 162.052 240.155 Z" fill="#000000" fill-rule="evenodd" fill-opacity="1" /><polyline clip-path="url(#clip172)" style="stroke:#3b0964; stroke-linecap:round; stroke-linejoin:round; stroke-width:4; stroke-opacity:1; fill:none" points="
  220.612,1789.01 310.251,1773.88 325.062,1764.99 396.377,1729.21 399.891,1726.63 440.383,1693.42 489.53,1672.39 554.142,1693.42 562.138,1729.21 579.169,1736.67 
  668.809,1742.38 706.557,1764.99 758.448,1783.21 816.07,1800.78 
  "/>
<polyline clip-path="url(#clip172)" style="stroke:#550f6d; stroke-linecap:round; stroke-linejoin:round; stroke-width:4; stroke-opacity:1; fill:none" points="
  893.404,1800.78 848.087,1793.56 768.491,1764.99 758.448,1761.64 685.71,1729.21 668.809,1720.33 600.948,1693.42 597.679,1657.63 595.998,1621.85 588.423,1586.06 
  619.333,1550.27 647.181,1514.49 668.809,1505.81 706.492,1478.7 758.448,1457.96 801.536,1442.91 765.9,1407.13 761.208,1371.34 758.448,1370.64 757.706,1371.34 
  756.737,1407.13 695.546,1442.91 668.809,1453.59 590.388,1478.7 579.169,1483.15 550.217,1514.49 489.53,1546.2 477.902,1550.27 450.676,1586.06 438.469,1621.85 
  441.567,1657.63 399.891,1676.5 375.588,1693.42 327.473,1729.21 310.251,1738.01 220.612,1745.5 
  "/>
<polyline clip-path="url(#clip172)" style="stroke:#1f0c47; stroke-linecap:round; stroke-linejoin:round; stroke-width:4; stroke-opacity:1; fill:none" points="
  439.01,1800.78 399.891,1778.05 388.306,1764.99 399.891,1759.2 474.604,1729.21 489.53,1711.9 501.102,1729.21 579.169,1763.41 588.628,1764.99 668.667,1800.78 
  
  "/>
<polyline clip-path="url(#clip172)" style="stroke:#550f6d; stroke-linecap:round; stroke-linejoin:round; stroke-width:4; stroke-opacity:1; fill:none" points="
  1012.11,1800.78 1027.37,1798.84 1117.01,1790.54 1206.64,1783.69 1295.08,1764.99 1296.28,1764.65 1385.92,1729.88 1387.48,1729.21 1464.46,1693.42 1475.56,1688.21 
  1565.2,1660.16 1573.63,1657.63 1654.84,1627.26 1684.03,1621.85 1744.48,1611.47 1834.12,1588.49 1848.37,1586.06 1923.76,1569.65 1955.85,1550.27 2013.4,1524.57 
  2027.05,1514.49 2064.36,1478.7 2092.68,1442.91 2103.04,1436.34 2149.05,1407.13 2192.68,1382.26 2218.64,1371.34 2282.32,1338.05 2288.08,1335.56 2371.96,1299.77 
  
  "/>
<polyline clip-path="url(#clip172)" style="stroke:#6e186e; stroke-linecap:round; stroke-linejoin:round; stroke-width:4; stroke-opacity:1; fill:none" points="
  2371.96,1271.28 2303,1299.77 2282.32,1308.42 2207.53,1335.56 2192.68,1343.31 2140.67,1371.34 2103.04,1396.11 2088.43,1407.13 2033.91,1442.91 2013.4,1471.57 
  2003.94,1478.7 1938.67,1514.49 1923.76,1521.12 1834.12,1540.48 1800.84,1550.27 1744.48,1569.54 1695.15,1586.06 1654.84,1594.21 1574.77,1621.85 1565.2,1625.46 
  1475.56,1656.74 1473.42,1657.63 1397.37,1693.42 1385.92,1698.73 1296.94,1729.21 1296.28,1729.46 1206.64,1755.02 1142.43,1764.99 1117.01,1767.67 1027.37,1783.56 
  937.727,1795.91 848.087,1782.16 800.257,1764.99 758.448,1751.03 709.505,1729.21 668.809,1707.83 632.463,1693.42 614.923,1657.63 619.833,1621.85 612.225,1586.06 
  664.045,1550.27 668.809,1545.82 696.525,1514.49 754.559,1478.7 758.448,1477.15 848.087,1445.07 853.197,1442.91 854.902,1407.13 859.622,1371.34 937.727,1341.08 
  952.026,1335.56 958.572,1299.77 998.059,1263.98 937.727,1252.16 857.046,1263.98 848.087,1266.9 813.66,1299.77 767.1,1335.56 758.448,1339.56 724.639,1371.34 
  733.183,1407.13 668.809,1435.9 646.163,1442.91 579.169,1467.59 489.53,1474.54 480.147,1478.7 489.53,1488.93 513.536,1514.49 489.53,1527.03 423.192,1550.27 
  403.739,1586.06 399.891,1600.22 310.251,1587.82 247.204,1621.85 224.779,1657.63 220.612,1664.48 
  "/>
<polyline clip-path="url(#clip172)" style="stroke:#88216a; stroke-linecap:round; stroke-linejoin:round; stroke-width:4; stroke-opacity:1; fill:none" points="
  220.612,1558.03 267.949,1550.27 310.251,1530.68 353.513,1514.49 399.891,1509.38 444.328,1478.7 489.53,1458.64 579.169,1455.08 612.199,1442.91 668.809,1425.37 
  709.628,1407.13 691.572,1371.34 715.749,1335.56 758.448,1314.83 779.847,1299.77 807.978,1263.98 848.087,1239.89 937.727,1237.67 964.663,1228.2 981.836,1192.41 
  1027.37,1178.53 1060.11,1156.62 1076.19,1120.84 1117.01,1111.27 1206.64,1103.32 1235.36,1120.84 1220.76,1156.62 1206.64,1162.3 1155.05,1192.41 1124.25,1228.2 
  1117.01,1235.71 1062.01,1263.98 1027.37,1277.8 993.658,1299.77 991.372,1335.56 937.727,1356.28 898.858,1371.34 889.157,1407.13 886.593,1442.91 848.087,1459.14 
  794.126,1478.7 758.448,1499.35 733.529,1514.49 697.827,1550.27 668.809,1564.35 636.027,1586.06 643.669,1621.85 632.167,1657.63 663.978,1693.42 668.809,1695.34 
  733.3,1729.21 758.448,1740.42 832.022,1764.99 848.087,1770.76 937.727,1783.1 1027.37,1768.28 1044.94,1764.99 1117.01,1747.54 1188.63,1729.21 1206.64,1724.67 
  1296.28,1702.87 1323.22,1693.42 1385.92,1664.26 1399.8,1657.63 1475.56,1626.09 1487.54,1621.85 1565.2,1592.1 1582.81,1586.06 1654.84,1559.05 1679.54,1550.27 
  1744.48,1524.9 1778.36,1514.49 1834.12,1488.3 1867.59,1478.7 1923.76,1461.99 1952.15,1442.91 2013.4,1412.49 2021.13,1407.13 2069.54,1371.34 2103.04,1346.65 
  2122.81,1335.56 2186.82,1299.77 2192.68,1296.76 2282.32,1265.72 2286.43,1263.98 2371.96,1241.98 
  "/>
<polyline clip-path="url(#clip172)" style="stroke:#a12b61; stroke-linecap:round; stroke-linejoin:round; stroke-width:4; stroke-opacity:1; fill:none" points="
  2371.96,1209.11 2282.32,1224.33 2269.12,1228.2 2192.68,1255.48 2180.02,1263.98 2104.38,1299.77 2103.04,1300.51 2058.42,1335.56 2013.4,1365.82 2002.32,1371.34 
  1936.18,1407.13 1923.76,1413.19 1846.35,1442.91 1834.12,1447.06 1765.41,1478.7 1744.48,1487.93 1697.86,1514.49 1654.84,1531.43 1607.85,1550.27 1565.2,1566.63 
  1522.49,1586.06 1475.56,1604.33 1431.89,1621.85 1385.92,1640.74 1343.06,1657.63 1296.28,1678.36 1250.14,1693.42 1206.64,1705.22 1117.01,1728.3 1114.03,1729.21 
  1027.37,1755.29 968.717,1764.99 937.727,1770.3 896.831,1764.99 848.087,1761.8 758.448,1729.81 757.095,1729.21 686.695,1693.42 668.809,1678.05 649.41,1657.63 
  667.504,1621.85 659.828,1586.06 668.809,1580.11 730.306,1550.27 758.448,1524.28 771.562,1514.49 832.944,1478.7 848.087,1473.21 919.99,1442.91 923.412,1407.13 
  937.727,1372.12 938.824,1371.34 1027.37,1339.19 1029.93,1335.56 1030.48,1299.77 1117.01,1265.29 1118.03,1263.98 1152.7,1228.2 1184.49,1192.41 1206.64,1179.49 
  1263.47,1156.62 1292.37,1120.84 1296.28,1119.47 1320.38,1120.84 1385.92,1124.24 1406.98,1120.84 1475.56,1101.73 1491.41,1085.05 1475.56,1071.68 1402.69,1049.26 
  1385.92,1033.16 1373.3,1013.48 1385.92,1004.2 1445.07,977.691 1450.16,941.905 1475.56,935.443 1537.96,906.118 1565.2,892.014 1587.49,870.332 1565.2,851.564 
  1475.56,858.566 1442.48,870.332 1385.92,887.054 1356.48,906.118 1296.28,933.019 1276.96,941.905 1241.84,977.691 1223.43,1013.48 1207.92,1049.26 1206.64,1050.82 
  1174.21,1085.05 1117.01,1097 1027.37,1111.93 1007.45,1120.84 937.727,1151.86 932.594,1156.62 848.087,1191.23 846.569,1192.41 811.306,1228.2 763.877,1263.98 
  758.448,1272.97 740.312,1299.77 668.809,1334.54 667.116,1335.56 651.292,1371.34 668.809,1382.02 686.074,1407.13 668.809,1414.84 579.169,1441.99 489.53,1442.7 
  487.439,1442.91 408.509,1478.7 399.891,1484.65 310.251,1497.7 250.982,1514.49 220.612,1527.33 
  "/>
<polyline clip-path="url(#clip172)" style="stroke:#ba3655; stroke-linecap:round; stroke-linejoin:round; stroke-width:4; stroke-opacity:1; fill:none" points="
  220.612,1471.94 310.251,1476.18 370.254,1442.91 399.891,1429.94 489.53,1422.18 579.169,1408.21 588.774,1407.13 595.08,1371.34 627.247,1335.56 668.809,1310.52 
  690.915,1299.77 725.711,1263.98 751.376,1228.2 758.448,1225.53 821.076,1192.41 848.087,1171.5 884.417,1156.62 927.258,1120.84 937.727,1107.26 987.432,1085.05 
  1017.98,1049.26 1027.37,1042.34 1108.95,1013.48 1117.01,1010.4 1174.63,977.691 1206.64,963.806 1235.54,941.905 1296.28,913.972 1313.86,906.118 1365.43,870.332 
  1385.92,850.913 1434.83,834.546 1471.59,798.759 1475.56,790.219 1508.79,762.973 1475.56,746.606 1467.71,727.186 1475.56,709.97 1535.61,691.4 1565.2,677.136 
  1597.4,655.613 1648.74,619.827 1654.84,609.069 1677.91,584.041 1731.05,548.254 1744.48,542.832 1797.82,512.468 1824.28,476.681 1834.12,462.63 1884.54,440.895 
  1923.76,415.262 2001.31,440.895 1964.02,476.681 1935.51,512.468 1923.76,536.499 1908.71,548.254 1884.14,584.041 1856.17,619.827 1834.12,654.576 1832.95,655.613 
  1812.91,691.4 1778.1,727.186 1753.03,762.973 1745.05,798.759 1744.48,799.271 1677.08,834.546 1654.84,849.045 1626.79,870.332 1585.35,906.118 1565.2,935.493 
  1552.22,941.905 1510.37,977.691 1520.73,1013.48 1480.99,1049.26 1521.28,1085.05 1489.68,1120.84 1475.56,1127.6 1385.92,1142.48 1316.91,1156.62 1296.28,1160.09 
  1215.86,1192.41 1206.64,1200.16 1181.15,1228.2 1142.73,1263.98 1117.01,1296.9 1109.8,1299.77 1060.06,1335.56 1037.46,1371.34 1027.37,1380.53 978.068,1407.13 
  955.557,1442.91 937.727,1452.33 876.523,1478.7 848.087,1493.1 811.717,1514.49 763.576,1550.27 758.448,1554.84 705.151,1586.06 693.423,1621.85 668.809,1653.45 
  666.654,1657.63 668.809,1659.9 707.819,1693.42 758.448,1719.1 775.412,1729.21 848.087,1755.33 937.727,1759.82 1027.37,1742.93 1072.95,1729.21 1117.01,1715.84 
  1190.58,1693.42 1206.64,1687.75 1291.63,1657.63 1296.28,1655.6 1381.74,1621.85 1385.92,1619.96 1470.43,1586.06 1475.56,1583.67 1549.01,1550.27 1565.2,1543.9 
  1638.61,1514.49 1654.84,1506.07 1707.01,1478.7 1744.48,1461.66 1787.42,1442.91 1834.12,1418.22 1862.6,1407.13 1923.76,1371.56 1924.18,1371.34 1999.46,1335.56 
  2013.4,1324 2042.29,1299.77 2103.04,1273.74 2123.77,1263.98 2179.34,1228.2 2192.68,1221.31 2282.32,1193.3 2286.92,1192.41 2371.96,1169.4 
  "/>
<polyline clip-path="url(#clip172)" style="stroke:#d04544; stroke-linecap:round; stroke-linejoin:round; stroke-width:4; stroke-opacity:1; fill:none" points="
  2371.96,1128.64 2319.57,1156.62 2282.32,1168.8 2205.71,1192.41 2192.68,1196.51 2131.3,1228.2 2103.04,1245.46 2063.37,1263.98 2013.4,1285.42 1989.62,1299.77 
  1937.02,1335.56 1923.76,1341.85 1876.22,1371.34 1834.12,1392.62 1809.55,1407.13 1744.48,1439.24 1735.19,1442.91 1656.6,1478.7 1654.84,1479.63 1587.63,1514.49 
  1565.2,1523.47 1497.11,1550.27 1475.56,1560.07 1419.88,1586.06 1385.92,1599.68 1336.66,1621.85 1296.28,1637.8 1250.95,1657.63 1206.64,1673.34 1149.7,1693.42 
  1117.01,1703.38 1031.87,1729.21 1027.37,1730.56 937.727,1750.97 848.087,1748.87 793.398,1729.21 758.448,1708.39 728.942,1693.42 694.281,1657.63 719.462,1621.85 
  758.448,1588.02 761.798,1586.06 801.986,1550.27 848.087,1517.09 851.726,1514.49 923.148,1478.7 937.727,1472.42 993.584,1442.91 1027.37,1415.9 1043.91,1407.13 
  1078.56,1371.34 1090.18,1335.56 1117.01,1317.85 1144.3,1299.77 1167.44,1263.98 1206.64,1230.39 1210.5,1228.2 1253.04,1192.41 1296.28,1175.03 1385.92,1159.98 
  1408.12,1156.62 1475.56,1144.85 1525.68,1120.84 1551.14,1085.05 1530.33,1049.26 1565.2,1018.15 1568.64,1013.48 1565.48,977.691 1591.04,941.905 1617.26,906.118 
  1654.84,877.334 1666.31,870.332 1722.84,834.546 1744.48,823.22 1771.67,798.759 1787.66,762.973 1834.12,731.635 1844.85,727.186 1882.35,691.4 1923.76,660.782 
  1929.2,655.613 1942.36,619.827 1967.16,584.041 2013.4,552.245 2020.53,548.254 2048.59,512.468 2056.17,476.681 2103.04,447.405 2112.05,440.895 2113.86,405.108 
  2144.48,369.322 2192.68,337.545 2196.38,333.536 2247.7,297.749 2282.32,267.801 2287,261.963 2304.77,226.176 2365.05,190.39 2371.96,182.636 
  "/>
<polyline clip-path="url(#clip172)" style="stroke:#e35832; stroke-linecap:round; stroke-linejoin:round; stroke-width:4; stroke-opacity:1; fill:none" points="
  2371.96,236.835 2346.86,261.963 2309.94,297.749 2282.32,319.34 2258.05,333.536 2219.2,369.322 2210.41,405.108 2192.68,421.111 2169.77,440.895 2115.91,476.681 
  2153.08,512.468 2103.04,535.654 2086.51,548.254 2021.68,584.041 2013.4,595.181 1996.75,619.827 1973.37,655.613 1933.42,691.4 1923.76,705.846 1901.21,727.186 
  1834.12,754.999 1822.3,762.973 1798.28,798.759 1761.81,834.546 1744.48,847.297 1706.35,870.332 1654.84,901.772 1649.17,906.118 1621,941.905 1615.92,977.691 
  1601.04,1013.48 1609.14,1049.26 1586.59,1085.05 1565.2,1115.26 1561.68,1120.84 1492.02,1156.62 1475.56,1163.98 1385.92,1174.95 1296.28,1189.98 1290.23,1192.41 
  1247.66,1228.2 1206.64,1251.56 1192.14,1263.98 1174.31,1299.77 1120.31,1335.56 1119.63,1371.34 1117.01,1378.15 1101.24,1407.13 1032.35,1442.91 1027.37,1447.95 
  982.756,1478.7 937.727,1491.55 890.33,1514.49 848.087,1544.74 840.395,1550.27 800.402,1586.06 758.448,1610.61 745.501,1621.85 723.391,1657.63 750.066,1693.42 
  758.448,1697.67 811.384,1729.21 848.087,1742.4 937.727,1742.13 993.436,1729.21 1027.37,1721.54 1111.82,1693.42 1117.01,1691.66 1206.64,1658.92 1210.27,1657.63 
  1293.61,1621.85 1296.28,1620.71 1377.5,1586.06 1385.92,1581.77 1458.07,1550.27 1475.56,1543.58 1549.02,1514.49 1565.2,1505.45 1621.87,1478.7 1654.84,1456.25 
  1684.11,1442.91 1744.48,1419.05 1768.63,1407.13 1831.18,1371.34 1834.12,1369.23 1897.43,1335.56 1923.76,1313.21 1944.93,1299.77 1999.2,1263.98 2013.4,1260.27 
  2086.1,1228.2 2103.04,1216.89 2149.33,1192.41 2192.68,1176.47 2253.24,1156.62 2282.32,1142.58 2326.26,1120.84 2371.12,1085.05 2371.96,1084.46 
  "/>
<polyline clip-path="url(#clip172)" style="stroke:#f0701e; stroke-linecap:round; stroke-linejoin:round; stroke-width:4; stroke-opacity:1; fill:none" points="
  2371.96,1050.85 2323.49,1085.05 2282.32,1113.39 2274.76,1120.84 2194.99,1156.62 2192.68,1157.38 2103.04,1191.34 2100.02,1192.41 2044.96,1228.2 2013.4,1242.12 
  1929.78,1263.98 1923.76,1269.05 1909.49,1299.77 1864.01,1335.56 1834.12,1351.45 1806.46,1371.34 1744.48,1402.1 1732.49,1407.13 1654.84,1437.96 1642.58,1442.91 
  1587.69,1478.7 1565.2,1489.32 1520.14,1514.49 1475.56,1532.15 1428.16,1550.27 1385.92,1568.71 1351.85,1586.06 1296.28,1609.77 1267.97,1621.85 1206.64,1647.76 
  1185.09,1657.63 1117.01,1682.88 1085.94,1693.42 1027.37,1712.92 955.323,1729.21 937.727,1733.29 848.087,1735.93 829.371,1729.21 788.403,1693.42 758.448,1666.69 
  752.502,1657.63 758.448,1647.29 801.029,1621.85 839.006,1586.06 848.087,1577.93 878.416,1550.27 928.934,1514.49 937.727,1510.23 1027.37,1484.11 1038.68,1478.7 
  1077.04,1442.91 1117.01,1423.15 1149.75,1407.13 1160.21,1371.34 1150.48,1335.56 1204.33,1299.77 1206.64,1294.14 1228.54,1263.98 1284.81,1228.2 1296.28,1218.55 
  1371.02,1192.41 1385.92,1189.91 1475.56,1187.14 1543.83,1156.62 1565.2,1145.39 1599.91,1120.84 1626.99,1085.05 1654.84,1067.23 1682.06,1049.26 1654.84,1030.91 
  1633.44,1013.48 1654.84,986.885 1662.73,977.691 1654.84,954.857 1650.96,941.905 1654.84,937.035 1683.89,906.118 1744.48,871.303 1747.54,870.332 1794.68,834.546 
  1824.9,798.759 1834.12,786.428 1865.16,762.973 1923.76,738.833 1944.2,727.186 1969.12,691.4 2013.4,658.128 2017.58,655.613 2047.24,619.827 2081.54,584.041 
  2103.04,572.448 2144.21,548.254 2192.68,527.446 2239.4,512.468 2192.68,496.331 2159.2,476.681 2192.68,456.574 2215.49,440.895 2265.66,405.108 2269.81,369.322 
  2282.32,358.965 2306.51,333.536 2356.08,297.749 2371.96,284.433 
  "/>
<polyline clip-path="url(#clip172)" style="stroke:#f98c09; stroke-linecap:round; stroke-linejoin:round; stroke-width:4; stroke-opacity:1; fill:none" points="
  2371.96,315.849 2346.39,333.536 2318.72,369.322 2311.92,405.108 2282.32,422.167 2253.31,440.895 2207.42,476.681 2282.32,502.954 2311.77,512.468 2282.32,520.028 
  2198.97,548.254 2192.68,551.573 2135.13,584.041 2103.04,613.254 2096.01,619.827 2062.15,655.613 2013.4,684.953 2004.82,691.4 1978.26,727.186 1923.76,758.245 
  1912.28,762.973 1859.06,798.759 1834.12,826.17 1827.55,834.546 1811.45,870.332 1744.48,891.609 1719.23,906.118 1703.55,941.905 1697.28,977.691 1727.19,1013.48 
  1721.22,1049.26 1675.03,1085.05 1654.84,1100.1 1638.37,1120.84 1654.84,1137.39 1713.43,1156.62 1654.84,1168.2 1565.2,1170.12 1515.3,1192.41 1475.56,1209 
  1385.92,1205.21 1324.6,1228.2 1296.28,1253.72 1281.56,1263.98 1242.27,1299.77 1206.64,1318.27 1180.64,1335.56 1200.79,1371.34 1194.92,1407.13 1122.58,1442.91 
  1117.01,1445.79 1074.12,1478.7 1027.37,1501.06 981.965,1514.49 937.727,1535.17 916.34,1550.27 884.658,1586.06 919.799,1621.85 848.638,1657.63 848.087,1658.38 
  838.063,1693.42 847.357,1729.21 848.087,1729.47 854.372,1729.21 937.727,1718.92 1027.37,1704.31 1060.07,1693.42 1117.01,1674.11 1161.42,1657.63 1206.64,1636.93 
  1242.33,1621.85 1296.28,1598.82 1326.2,1586.06 1385.92,1555.66 1398.25,1550.27 1475.56,1520.71 1491.26,1514.49 1554.96,1478.7 1565.2,1472.7 1613.87,1442.91 
  1654.84,1426.34 1703.24,1407.13 1744.48,1389.83 1781.74,1371.34 1830.72,1335.56 1834.12,1333.55 1882.39,1299.77 1889.67,1263.98 1923.76,1245.48 1994.18,1228.2 
  2013.4,1224.66 2072.3,1192.41 2103.04,1181.46 2167.9,1156.62 2192.68,1142.47 2241.49,1120.84 2278.62,1085.05 2282.32,1083.57 2351.08,1049.26 2367.29,1013.48 
  2371.96,1010.15 
  "/>
<polyline clip-path="url(#clip172)" style="stroke:#fbaa0e; stroke-linecap:round; stroke-linejoin:round; stroke-width:4; stroke-opacity:1; fill:none" points="
  2371.96,991.037 2340.48,1013.48 2329.18,1049.26 2282.32,1072.64 2251.33,1085.05 2208.23,1120.84 2192.68,1127.73 2142.09,1156.62 2103.04,1171.57 2044.57,1192.41 
  2013.4,1209.48 1923.76,1219.47 1896.78,1228.2 1852.33,1263.98 1855.28,1299.77 1834.12,1314.58 1798.58,1335.56 1757.02,1371.34 1744.48,1377.56 1673.99,1407.13 
  1654.84,1414.73 1585.16,1442.91 1565.2,1455.13 1525,1478.7 1475.56,1506.73 1456.28,1514.49 1385.92,1540.94 1360.85,1550.27 1300.55,1586.06 1296.28,1587.88 
  1216.69,1621.85 1206.64,1626.09 1137.75,1657.63 1117.01,1665.33 1034.19,1693.42 1027.37,1695.69 937.727,1699.82 911.219,1693.42 937.727,1674.8 974.041,1657.63 
  1012.85,1621.85 1027.37,1595.58 1034.11,1586.06 1027.37,1583.82 994.934,1586.06 937.727,1589.99 932.479,1586.06 937.727,1578.86 966.294,1550.27 1027.37,1521 
  1039.5,1514.49 1109.56,1478.7 1117.01,1472.99 1175.26,1442.91 1206.64,1426.96 1240.77,1407.13 1278.54,1371.34 1218.84,1335.56 1280.87,1299.77 1296.28,1287.03 
  1326.47,1263.98 1365.58,1228.2 1385.92,1220.57 1459.79,1228.2 1475.56,1232.52 1483.52,1228.2 1565.2,1193.38 1603,1192.41 1654.84,1191.45 1668.46,1192.41 
  1744.48,1204.79 1789.25,1192.41 1816.24,1156.62 1834.12,1145.45 1865.6,1120.84 1834.12,1102.22 1744.48,1095.93 1739.99,1085.05 1744.48,1079.84 1770.72,1049.26 
  1805.58,1013.48 1744.48,987.887 1731.83,977.691 1744.48,957.042 1759.43,941.905 1762.52,906.118 1834.12,883.319 1860.91,870.332 1870.8,834.546 1897.2,798.759 
  1923.76,781.609 1988.87,762.973 2012.32,727.186 2013.4,725.75 2053.72,691.4 2103.04,658.533 2108.39,655.613 2148.52,619.827 2185.2,584.041 2192.68,579.824 
  2252.57,548.254 2282.32,538.178 2315.03,548.254 2371.96,576.866 
  "/>
<polyline clip-path="url(#clip172)" style="stroke:#f8c931; stroke-linecap:round; stroke-linejoin:round; stroke-width:4; stroke-opacity:1; fill:none" points="
  2371.96,611.579 2348.15,619.827 2306.02,655.613 2282.32,671.661 2240.66,655.613 2192.68,632.748 2173.25,655.613 2112.78,691.4 2103.04,693.851 2058.27,727.186 
  2045.93,762.973 2013.4,792.699 1984.34,798.759 1923.76,822.436 1916.64,834.546 1902.41,870.332 1834.12,903.443 1825.72,906.118 1815.12,941.905 1834.12,956.36 
  1877.38,977.691 1880.01,1013.48 1923.76,1041.02 1981.14,1013.48 2013.4,979.862 2049.27,1013.48 2030.72,1049.26 2013.4,1064.64 1986.87,1085.05 1944.59,1120.84 
  1923.76,1147.31 1914.93,1156.62 1923.76,1161.65 1996.74,1192.41 2013.4,1194.3 2016.85,1192.41 2103.04,1161.69 2116.28,1156.62 2166.74,1120.84 2192.68,1109.51 
  2224.05,1085.05 2282.32,1061.71 2307.27,1049.26 2313.68,1013.48 2282.32,985.555 2211.77,977.691 2234.21,941.905 2282.32,926.066 2371.7,941.905 2371.96,942.219 
  
  "/>
<polyline clip-path="url(#clip172)" style="stroke:#f1e864; stroke-linecap:round; stroke-linejoin:round; stroke-width:4; stroke-opacity:1; fill:none" points="
  2371.96,916.181 2282.32,909.339 2247.57,906.118 2203.69,870.332 2192.68,863.119 2116.27,870.332 2124.97,906.118 2103.04,910.03 2028.54,906.118 2094.18,870.332 
  2037.28,834.546 2084.31,798.759 2091.41,762.973 2103.04,731.379 2114.38,727.186 2192.68,714.324 2257.33,727.186 2282.32,738.096 2333.3,727.186 2371.96,712.059 
  
  "/>
<polyline clip-path="url(#clip172)" style="stroke:#fbaa0e; stroke-linecap:round; stroke-linejoin:round; stroke-width:4; stroke-opacity:1; fill:none" points="
  2371.96,508.054 2282.32,480.115 2272.53,476.681 2282.32,462.651 2303.89,440.895 2354.31,405.108 2367.06,369.322 2371.96,361.455 
  "/>
<polyline clip-path="url(#clip172)" style="stroke:#f8c931; stroke-linecap:round; stroke-linejoin:round; stroke-width:4; stroke-opacity:1; fill:none" points="
  2371.96,470.321 2366.31,476.681 2371.96,478.377 
  "/>
<polyline clip-path="url(#clip172)" style="stroke:#f8c931; stroke-linecap:round; stroke-linejoin:round; stroke-width:4; stroke-opacity:1; fill:none" points="
  1565.2,501.502 1612.97,476.681 1654.84,452.843 1668.9,440.895 1665.09,405.108 1654.84,385.662 1625.95,369.322 1565.2,350.93 1475.56,360.68 1451.95,369.322 
  1411.43,405.108 1385.92,421.818 1315.47,440.895 1296.28,449.487 1258.93,476.681 1244.49,512.468 1273.41,548.254 1296.28,557.128 1385.92,557.116 1420.26,548.254 
  1475.56,538.138 1529.17,512.468 1565.2,501.502 
  "/>
<polyline clip-path="url(#clip172)" style="stroke:#f1e864; stroke-linecap:round; stroke-linejoin:round; stroke-width:4; stroke-opacity:1; fill:none" points="
  1565.2,487.153 1585.36,476.681 1632.97,440.895 1613.21,405.108 1565.2,375.245 1475.56,388.528 1453.73,405.108 1414.26,440.895 
  "/>
<polyline clip-path="url(#clip172)" style="stroke:#d04544; stroke-linecap:round; stroke-linejoin:round; stroke-width:4; stroke-opacity:1; fill:none" points="
  2351.09,47.2441 2282.32,72.4275 2273.98,83.0305 2257.4,118.817 2210.9,154.603 2192.68,178.9 2186.26,190.39 2114.97,226.176 2103.04,230.726 2051.35,261.963 
  2013.4,283.223 2000.57,297.749 1966.2,333.536 1923.76,359.6 1910.36,369.322 1861.39,405.108 1834.12,417.327 1792.6,440.895 1752.3,476.681 1744.48,483.877 
  1714.63,512.468 1654.84,536.476 1632.37,548.254 1584.31,584.041 1565.2,600.375 1543.84,619.827 1475.56,647.892 1468.91,655.613 1455.46,691.4 1444.59,727.186 
  1450.8,762.973 1427.28,798.759 1385.92,819.619 1353.43,834.546 1313.43,870.332 1296.28,883.195 1271.5,906.118 1206.64,936.022 1191.09,941.905 1117.01,973.247 
  1103.56,977.691 1027.37,1007.27 1006.71,1013.48 966.267,1049.26 937.727,1068.04 928.029,1085.05 892.989,1120.84 848.087,1150.97 839.459,1156.62 795.582,1192.41 
  758.448,1212.05 715.588,1228.2 688.378,1263.98 668.809,1281.41 648.392,1299.77 587.378,1335.56 579.169,1343.54 542.944,1371.34 489.53,1399.93 399.891,1406.91 
  310.251,1399.57 281.299,1407.13 310.251,1432.54 317.703,1442.91 310.251,1447.05 220.612,1444.3 
  "/>
<polyline clip-path="url(#clip172)" style="stroke:#e35832; stroke-linecap:round; stroke-linejoin:round; stroke-width:4; stroke-opacity:1; fill:none" points="
  220.612,1375.17 310.251,1377.79 399.891,1381.71 489.53,1372.89 492.417,1371.34 538.972,1335.56 579.169,1318.51 611.437,1299.77 653.847,1263.98 668.809,1242.23 
  679.799,1228.2 758.448,1198.57 770.089,1192.41 804.373,1156.62 848.087,1127.97 858.72,1120.84 908.637,1085.05 918.687,1049.26 922.279,1013.48 937.727,1010.97 
  1027.37,981.718 1037.74,977.691 1117.01,951.491 1139.66,941.905 1206.64,916.576 1229.32,906.118 1283.47,870.332 1296.28,841.943 1304.78,834.546 1383.56,798.759 
  1385.92,796.209 1416.11,762.973 1421.47,727.186 1423.73,691.4 1442.21,655.613 1472.6,619.827 1475.56,618.696 1546.53,584.041 1565.2,557.581 1579.43,548.254 
  1651.25,512.468 1654.84,510.621 1720.81,476.681 1742.89,440.895 1744.48,425.571 1759.06,405.108 1834.12,392.844 1874.63,369.322 1923.76,333.688 1924.01,333.536 
  1964.52,297.749 1994.43,261.963 2013.4,247.004 2051.64,226.176 2095.77,190.39 2103.04,184.973 2143.07,154.603 2192.68,131.462 2213.32,118.817 2241.87,83.0305 
  2248.49,47.2441 
  "/>
<polyline clip-path="url(#clip172)" style="stroke:#f0701e; stroke-linecap:round; stroke-linejoin:round; stroke-width:4; stroke-opacity:1; fill:none" points="
  2178.83,47.2441 2192.68,61.8792 2209.76,83.0305 2192.68,100.933 2161.74,118.817 2103.04,146.223 2080.97,154.603 2036.83,190.39 2013.4,209.866 1991.6,226.176 
  1954.82,261.963 1928.47,297.749 1923.76,301.904 1898.55,333.536 1838.9,369.322 1834.12,372.097 1744.48,396.569 1726.39,405.108 1724.39,440.895 1694.25,476.681 
  1654.84,496.957 1624.66,512.468 1565.2,539.433 1545.23,548.254 1522.02,584.041 1475.56,606.73 1441.21,619.827 1415.51,655.613 1392,691.4 1398.35,727.186 
  1385.92,756.002 1383.19,762.973 1348.12,798.759 1296.28,821.635 1278.1,834.546 1264.34,870.332 1206.64,901.364 1194.64,906.118 1117.01,936.263 1099.85,941.905 
  1027.37,968.286 995.388,977.691 937.727,997.761 848.087,1012.41 839.918,1013.48 848.087,1017.74 876.193,1049.26 889.246,1085.05 848.087,1112.06 831.401,1120.84 
  769.288,1156.62 758.448,1169.59 714.514,1192.41 668.809,1208.49 641.222,1228.2 622.402,1263.98 579.169,1296.75 573.196,1299.77 489.53,1335.09 487.46,1335.56 
  399.891,1357.94 338.651,1335.56 360.692,1299.77 310.251,1269 261.822,1299.77 220.612,1330.02 
  "/>
<polyline clip-path="url(#clip172)" style="stroke:#f98c09; stroke-linecap:round; stroke-linejoin:round; stroke-width:4; stroke-opacity:1; fill:none" points="
  220.612,1232.59 310.251,1246.92 399.891,1251.98 489.53,1249.01 507.335,1263.98 489.53,1267.81 442.982,1299.77 489.53,1315.21 526.1,1299.77 579.169,1272.92 
  590.958,1263.98 601.409,1228.2 643.134,1192.41 668.809,1183.64 727.924,1156.62 758.448,1147.49 807.208,1120.84 848.087,1099.34 869.855,1085.05 848.087,1057.56 
  758.448,1060.18 668.809,1053.5 579.169,1054.59 489.53,1056.65 399.891,1065.38 355.848,1085.05 327.94,1120.84 344.293,1156.62 319.433,1192.41 310.251,1197.49 
  220.612,1226.28 
  "/>
<polyline clip-path="url(#clip172)" style="stroke:#f0701e; stroke-linecap:round; stroke-linejoin:round; stroke-width:4; stroke-opacity:1; fill:none" points="
  220.612,1093.98 251.442,1085.05 310.251,1073.83 361.607,1049.26 399.891,1036.94 489.53,1032.68 559.794,1013.48 565.991,977.691 575.927,941.905 579.169,938.098 
  607.673,906.118 636.04,870.332 668.809,855.062 698.917,834.546 758.448,808.501 801.841,798.759 848.087,771.263 854.238,762.973 848.087,756.213 758.448,735.083 
  739.692,727.186 668.809,715.364 579.169,704.158 560.981,691.4 545.948,655.613 489.53,649.436 442.816,619.827 481.935,584.041 489.53,579.408 579.169,568.856 
  668.809,577.124 758.448,565.965 848.087,576.388 937.727,569.204 1012.79,584.041 1027.37,586.422 1055.42,584.041 1050.39,548.254 1027.37,523.46 996.57,512.468 
  937.727,493.152 854.213,476.681 848.087,474.953 810.77,440.895 848.087,424.772 870.869,405.108 897.432,369.322 937.727,349.904 1027.37,338.254 1117.01,342.796 
  1206.64,341.177 1296.28,347.211 1347.37,333.536 1296.28,306.532 1234.79,297.749 1207.05,261.963 1233.41,226.176 1243.61,190.39 1296.28,168.304 1380.59,154.603 
  1385.92,142.904 1475.56,125.409 1495.53,118.817 1475.56,113.169 1385.92,117.7 1296.28,111.111 1206.64,94.9751 1117.01,102.899 1027.37,86.8664 1009.84,83.0305 
  1027.37,80.1287 1089.84,47.2441 
  "/>
<polyline clip-path="url(#clip172)" style="stroke:#e35832; stroke-linecap:round; stroke-linejoin:round; stroke-width:4; stroke-opacity:1; fill:none" points="
  1028.58,47.2441 1027.37,47.8813 997.215,47.2441 
  "/>
<polyline clip-path="url(#clip172)" style="stroke:#e35832; stroke-linecap:round; stroke-linejoin:round; stroke-width:4; stroke-opacity:1; fill:none" points="
  934.071,47.2441 888.934,83.0305 912.713,118.817 937.727,130.249 1027.37,139.087 1050.52,154.603 1117.01,168.697 1162.58,154.603 1206.64,122.285 1247.3,154.603 
  1206.64,171.513 1169.69,190.39 1168.69,226.176 1145.38,261.963 1139.59,297.749 1117.01,312.029 1027.37,318.632 937.727,327.627 922.653,333.536 850.23,369.322 
  848.087,372.34 820.673,405.108 758.448,431.177 710.033,440.895 700.423,476.681 758.448,479.025 834.896,512.468 758.448,536.985 701.993,548.254 668.809,554.891 
  579.169,549.309 489.53,556.845 444.948,584.041 408.866,619.827 399.891,626.437 336.341,655.613 310.251,669.957 280.468,691.4 286.379,727.186 260.317,762.973 
  220.612,775.774 
  "/>
<polyline clip-path="url(#clip172)" style="stroke:#d04544; stroke-linecap:round; stroke-linejoin:round; stroke-width:4; stroke-opacity:1; fill:none" points="
  220.612,716.644 238.88,691.4 280.428,655.613 310.251,640.708 354.891,619.827 399.891,592.226 407.96,584.041 463.803,548.254 489.53,539.642 579.169,531.753 
  668.809,528.252 758.448,514.796 765.709,512.468 758.448,509.292 668.809,499.361 579.169,487.435 553.646,476.681 576.626,440.895 579.169,439.323 668.809,423.541 
  758.448,407.877 765.057,405.108 803.104,369.322 848.087,343.857 868.889,333.536 937.727,306.555 1027.37,298.424 1031.49,297.749 1080.91,261.963 1027.37,241.405 
  937.727,247.035 909.057,226.176 911.161,190.39 884.711,154.603 851.004,118.817 848.087,115.565 821.308,83.0305 844.103,47.2441 
  "/>
<polyline clip-path="url(#clip172)" style="stroke:#ba3655; stroke-linecap:round; stroke-linejoin:round; stroke-width:4; stroke-opacity:1; fill:none" points="
  796.118,47.2441 764.678,83.0305 778.739,118.817 790.891,154.603 835.591,190.39 843.685,226.176 834.694,261.963 848.087,271.345 885.7,297.749 848.087,312.315 
  809.661,333.536 758.448,367.168 754.229,369.322 668.809,396.906 602.368,405.108 579.169,408.499 526.76,440.895 499.917,476.681 579.169,510.074 596.334,512.468 
  579.169,514.312 489.53,525.734 422.256,548.254 399.891,562.847 356.379,584.041 310.251,611.028 289.559,619.827 223.18,655.613 220.612,658.264 
  "/>
<polyline clip-path="url(#clip172)" style="stroke:#a12b61; stroke-linecap:round; stroke-linejoin:round; stroke-width:4; stroke-opacity:1; fill:none" points="
  220.612,614.181 288.421,584.041 310.251,574.746 356.306,548.254 399.891,533.044 483.357,512.468 423.674,476.681 472.379,440.895 489.53,430.335 525.818,405.108 
  579.169,379.881 668.809,370.872 673.609,369.322 728.466,333.536 668.809,305.821 609.89,297.749 668.809,287.424 725.942,261.963 758.448,232.821 761.244,226.176 
  758.448,223.926 687.031,190.39 710.097,154.603 680.547,118.817 668.809,109.645 615.982,83.0305 668.809,61.8138 713.795,47.2441 
  "/>
<polyline clip-path="url(#clip172)" style="stroke:#88216a; stroke-linecap:round; stroke-linejoin:round; stroke-width:4; stroke-opacity:1; fill:none" points="
  220.612,76.0509 234.307,83.0305 310.251,102.804 354.182,118.817 370.329,154.603 363.672,190.39 399.891,208.649 481.605,190.39 489.53,189.142 579.169,181.838 
  585.265,190.39 579.169,195.153 516.583,226.176 489.53,244.734 463.907,261.963 456.292,297.749 399.891,331.294 396.73,333.536 399.891,354.474 432.871,369.322 
  441.177,405.108 404.698,440.895 399.891,444.155 333.733,476.681 318.474,512.468 310.251,514.935 246.385,548.254 220.612,559.211 
  "/>
<polyline clip-path="url(#clip172)" style="stroke:#6e186e; stroke-linecap:round; stroke-linejoin:round; stroke-width:4; stroke-opacity:1; fill:none" points="
  220.612,446.025 226.623,440.895 220.612,410.67 
  "/>
<polyline clip-path="url(#clip172)" style="stroke:#6e186e; stroke-linecap:round; stroke-linejoin:round; stroke-width:4; stroke-opacity:1; fill:none" points="
  220.612,401.298 233.408,369.322 220.612,359.398 
  "/>
<polyline clip-path="url(#clip172)" style="stroke:#f98c09; stroke-linecap:round; stroke-linejoin:round; stroke-width:4; stroke-opacity:1; fill:none" points="
  1212.21,47.2441 1296.28,66.774 1348.58,83.0305 1385.92,93.8022 1475.56,85.593 1486.41,83.0305 1543.69,47.2441 
  "/>
<polyline clip-path="url(#clip172)" style="stroke:#f98c09; stroke-linecap:round; stroke-linejoin:round; stroke-width:4; stroke-opacity:1; fill:none" points="
  1614.69,47.2441 1592.1,83.0305 1592.37,118.817 1565.2,134.081 1493.05,154.603 1475.56,157.68 1396.74,190.39 1385.92,195.768 1299.07,226.176 1296.28,227.593 
  1262.96,261.963 1296.28,277.091 1349.69,297.749 1385.92,315.386 1424.95,333.536 1385.92,347.617 1303.33,369.322 1296.28,371.745 1288.59,369.322 1206.64,356.841 
  1117.01,360.075 1027.37,356.228 952.721,369.322 937.727,377.576 915.797,405.108 885.149,440.895 937.727,460.14 1027.37,464.63 1117.01,476.558 1117.25,476.681 
  1135.31,512.468 1117.01,537.279 1108.23,548.254 1117.01,554.035 1206.64,581.633 1213.05,584.041 1206.64,586.904 1117.01,611.891 1027.37,610.985 937.727,597.021 
  848.087,614.537 758.448,604.603 687.355,619.827 674.266,655.613 758.448,685.573 801.854,691.4 848.087,702.591 937.727,707.338 1027.37,725.749 1028.89,727.186 
  1027.37,727.724 937.727,758.68 930.257,762.973 929.308,798.759 848.087,825.347 808.963,834.546 758.448,851.087 728.2,870.332 684.563,906.118 668.809,920.831 
  644.807,941.905 641.432,977.691 668.809,999.512 758.448,1011.44 848.087,1000.5 937.727,984.549 957.43,977.691 1027.37,957.121 1069.17,941.905 1117.01,926.177 
  1168.66,906.118 1206.64,891.077 1245.21,870.332 1256.07,834.546 1296.28,805.993 1312.68,798.759 1362.13,762.973 1376.56,727.186 1369.4,691.4 1385.92,659.826 
  1388.8,655.613 1409.82,619.827 1475.56,594.764 1497.52,584.041 1517.93,548.254 1565.2,527.372 1598.06,512.468 1654.84,483.293 1667.69,476.681 1705.89,440.895 
  1705.96,405.108 1744.48,386.922 1805.26,369.322 1834.12,356.446 1873.2,333.536 1889.52,297.749 1916.62,261.963 1923.76,231.332 1926.14,226.176 1975.92,190.39 
  2011.49,154.603 2013.4,152.106 2103.04,119.049 2103.54,118.817 2131.81,83.0305 2141.23,47.2441 
  "/>
<polyline clip-path="url(#clip172)" style="stroke:#fbaa0e; stroke-linecap:round; stroke-linejoin:round; stroke-width:4; stroke-opacity:1; fill:none" points="
  2103.63,47.2441 2103.04,47.9536 2055.7,83.0305 2013.4,109.091 1999.23,118.817 1977.11,154.603 1923.76,187.015 1908.58,190.39 1881.26,226.176 1883.56,261.963 
  1850.14,297.749 1847.84,333.536 1834.12,341.581 1771.94,369.322 1744.48,377.274 1685.52,405.108 1687.4,440.895 1654.84,468.566 1640.59,476.681 1571.47,512.468 
  1565.2,515.311 1490.63,548.254 1475.56,578.372 1439.54,584.041 1385.92,598.117 1353.89,584.041 1296.28,578.187 1219.13,548.254 1206.64,533.72 1188.7,512.468 
  1193.68,476.681 1124.99,440.895 1117.01,436.274 1027.37,427.666 977.321,405.108 1027.37,379.902 1117.01,386.457 1206.64,374.507 1296.28,404.148 1385.92,377.847 
  1393.22,369.322 1475.56,339.188 1531.02,333.536 1475.56,328.287 1406.22,297.749 1385.92,272.743 1356.94,261.963 1385.92,245.751 1420.98,226.176 1475.56,191.537 
  1476.69,190.39 1565.2,168.772 1654.84,159.757 1744.48,157.332 1752.59,154.603 1744.48,151.39 1675.94,118.817 1654.84,105.407 1631.95,83.0305 1654.84,67.5858 
  1689.61,47.2441 
  "/>
<polyline clip-path="url(#clip172)" style="stroke:#f8c931; stroke-linecap:round; stroke-linejoin:round; stroke-width:4; stroke-opacity:1; fill:none" points="
  1735.57,47.2441 1678.74,83.0305 1737.25,118.817 1744.48,122.256 1766.84,118.817 1834.12,108.577 1877.19,118.817 1834.12,146.234 1826.15,154.603 1834.12,166.875 
  1923.76,166.127 1942.73,154.603 1944.7,118.817 1989.18,83.0305 2013.4,76.1045 2063.83,47.2441 
  "/>
<polyline clip-path="url(#clip172)" style="stroke:#f1e864; stroke-linecap:round; stroke-linejoin:round; stroke-width:4; stroke-opacity:1; fill:none" points="
  2024,47.2441 2013.4,53.312 1923.76,75.7891 1834.12,51.7174 1832.34,47.2441 
  "/>
<polyline clip-path="url(#clip172)" style="stroke:#e35832; stroke-linecap:round; stroke-linejoin:round; stroke-width:4; stroke-opacity:1; fill:none" points="
  220.612,879.57 238.4,870.332 308.068,834.546 310.251,822.822 399.891,815.985 489.53,811.687 534.183,834.546 514.051,870.332 512.544,906.118 498.577,941.905 
  489.53,958.795 462.215,977.691 399.891,997.939 313.668,1013.48 310.251,1014.18 308.931,1013.48 220.612,1001.21 
  "/>
<polyline clip-path="url(#clip172)" style="stroke:#d04544; stroke-linecap:round; stroke-linejoin:round; stroke-width:4; stroke-opacity:1; fill:none" points="
  220.612,981.019 241.373,977.691 310.251,943.902 316.632,941.905 310.251,940.393 220.612,924.149 
  "/>
<polyline clip-path="url(#clip172)" style="stroke:#090621; stroke-linecap:round; stroke-linejoin:round; stroke-width:4; stroke-opacity:1; fill:none" points="
  2371.96,1734.36 2315.19,1764.99 2282.32,1785.8 2260.54,1800.78 
  "/>
<polyline clip-path="url(#clip172)" style="stroke:#090621; stroke-linecap:round; stroke-linejoin:round; stroke-width:4; stroke-opacity:1; fill:none" points="
  2371.96,1603.43 2322.07,1621.85 2282.32,1636.36 2223.49,1657.63 2192.68,1671.92 2103.04,1669.77 2041.74,1693.42 2090.59,1729.21 2028.03,1764.99 2013.4,1770.65 
  1941.95,1764.99 1923.76,1752.57 1889.6,1764.99 1834.12,1770.48 1756.82,1800.78 
  "/>
<polyline clip-path="url(#clip172)" style="stroke:#1f0c47; stroke-linecap:round; stroke-linejoin:round; stroke-width:4; stroke-opacity:1; fill:none" points="
  1405.82,1800.78 1475.56,1765.94 1478.49,1764.99 1565.14,1729.21 1565.2,1729.19 1565.38,1729.21 1654.84,1757.41 1744.48,1733.82 1758.67,1729.21 1834.12,1704.38 
  1865.83,1693.42 1923.76,1672.09 1949.44,1657.63 2007.34,1621.85 2013.4,1616.86 2058.36,1586.06 2103.04,1554.95 2149.82,1550.27 2192.68,1535.72 2203.9,1550.27 
  2192.68,1562.17 2173.26,1586.06 2192.68,1596.22 2230.22,1586.06 2282.32,1575.86 2364.5,1550.27 2371.96,1548.72 
  "/>
<polyline clip-path="url(#clip172)" style="stroke:#3b0964; stroke-linecap:round; stroke-linejoin:round; stroke-width:4; stroke-opacity:1; fill:none" points="
  2371.96,1507.8 2362.45,1478.7 2371.96,1470.74 
  "/>
<polyline clip-path="url(#clip172)" style="stroke:#3b0964; stroke-linecap:round; stroke-linejoin:round; stroke-width:4; stroke-opacity:1; fill:none" points="
  2371.96,1345.72 2316.48,1371.34 2282.32,1381.13 2221.86,1407.13 2192.68,1426.19 2173.37,1442.91 2131.46,1478.7 2103.04,1498.28 2087.65,1514.49 2041.66,1550.27 
  2013.4,1566.92 1977.41,1586.06 1934.1,1621.85 1923.76,1627.56 1834.12,1640.5 1744.48,1653.47 1718.98,1657.63 1654.84,1669.31 1565.2,1692.07 1560.86,1693.42 
  1475.56,1722.04 1460.33,1729.21 1385.92,1761.31 1376.44,1764.99 1300.24,1800.78 
  "/>
<polyline clip-path="url(#clip172)" style="stroke:#f8c931; stroke-linecap:round; stroke-linejoin:round; stroke-width:4; stroke-opacity:1; fill:none" points="
  1117.01,1636.11 1108.96,1621.85 1117.01,1612.63 1127.62,1621.85 1117.01,1636.11 
  "/>
<polyline clip-path="url(#clip172)" style="stroke:#f8c931; stroke-linecap:round; stroke-linejoin:round; stroke-width:4; stroke-opacity:1; fill:none" points="
  1206.64,1594.42 1167.17,1586.06 1145.01,1550.27 1117.01,1537.87 1097.98,1514.49 1117.01,1504.05 1196.11,1478.7 1206.64,1471.31 1294.94,1478.7 1296.28,1478.9 
  1296.68,1478.7 1303.29,1442.91 1296.28,1439.92 1286.86,1407.13 1296.28,1399.76 1349.5,1371.34 1336.26,1335.56 1333.22,1299.77 1368.27,1263.98 1385.92,1247.66 
  1444.04,1263.98 1475.56,1273.34 1499.07,1263.98 1558.59,1228.2 1565.2,1225.38 1580.84,1228.2 1636.29,1263.98 1654.84,1275.53 1685.2,1263.98 1744.48,1250.8 
  1779.5,1263.98 1813.79,1299.77 1766.44,1335.56 1744.48,1356.34 1703.56,1371.34 1654.84,1393.87 1614.23,1407.13 1565.2,1427.8 1535.95,1442.91 1495.04,1478.7 
  1475.56,1489.74 1414.02,1514.49 1385.92,1525.05 1318.18,1550.27 1296.28,1563.91 1222.95,1586.06 1206.64,1594.42 
  "/>
<polyline clip-path="url(#clip172)" style="stroke:#f8c931; stroke-linecap:round; stroke-linejoin:round; stroke-width:4; stroke-opacity:1; fill:none" points="
  1206.64,1517.74 1197.29,1514.49 1206.64,1505.01 1217.08,1514.49 1206.64,1517.74 
  "/>
<polyline clip-path="url(#clip172)" style="stroke:#550f6d; stroke-linecap:round; stroke-linejoin:round; stroke-width:4; stroke-opacity:1; fill:none" points="
  848.087,1343.68 834.187,1335.56 847.473,1299.77 848.087,1299.18 851.926,1299.77 870.1,1335.56 848.087,1343.68 
  "/>
<polyline clip-path="url(#clip172)" style="stroke:#6e186e; stroke-linecap:round; stroke-linejoin:round; stroke-width:4; stroke-opacity:1; fill:none" points="
  1027.37,1248.52 1005.9,1228.2 1027.37,1212.83 1064.22,1228.2 1027.37,1248.52 
  "/>
<polyline clip-path="url(#clip172)" style="stroke:#6e186e; stroke-linecap:round; stroke-linejoin:round; stroke-width:4; stroke-opacity:1; fill:none" points="
  1117.01,1202.48 1090.41,1192.41 1117.01,1169.02 1125.6,1192.41 1117.01,1202.48 
  "/>
<polyline clip-path="url(#clip172)" style="stroke:#88216a; stroke-linecap:round; stroke-linejoin:round; stroke-width:4; stroke-opacity:1; fill:none" points="
  1385.92,1093.96 1296.28,1099.6 1244.08,1085.05 1266.77,1049.26 1271.17,1013.48 1296.28,985.096 1322.83,1013.48 1330.95,1049.26 1385.92,1075.99 1418.63,1085.05 
  1385.92,1093.96 
  "/>
<polyline clip-path="url(#clip172)" style="stroke:#fbaa0e; stroke-linecap:round; stroke-linejoin:round; stroke-width:4; stroke-opacity:1; fill:none" points="
  1027.37,945.956 937.727,968.828 906.847,977.691 848.087,988.591 758.448,992.554 708.53,977.691 723.061,941.905 748.972,906.118 758.448,899.253 813.664,870.332 
  848.087,858.131 937.727,852.975 1027.37,835.915 1033.73,834.546 1027.37,832.811 976.333,798.759 979.561,762.973 1027.37,745.084 1078.2,727.186 1040.84,691.4 
  1027.37,677.904 937.727,679.341 850.037,655.613 937.727,624.351 1027.37,641.251 1117.01,638.014 1206.64,627.849 1296.28,634.115 1339.39,655.613 1348.97,691.4 
  1356.33,727.186 1341.08,762.973 1296.28,791.541 1263.11,798.759 1234.03,834.546 1226.09,870.332 1206.64,880.789 1142.69,906.118 1117.01,916.091 1038.5,941.905 
  1027.37,945.956 
  "/>
<polyline clip-path="url(#clip172)" style="stroke:#f8c931; stroke-linecap:round; stroke-linejoin:round; stroke-width:4; stroke-opacity:1; fill:none" points="
  1027.37,926.414 975.353,941.905 937.727,950.399 848.087,972.423 806.809,941.905 831.936,906.118 848.087,897.744 937.727,881.127 971.075,870.332 1027.37,857.929 
  1117.01,839.529 1155.79,834.546 1206.64,808.026 1212,834.546 1206.96,870.332 1206.64,870.502 1117.01,905.772 1115.82,906.118 1027.37,926.414 
  "/>
<polyline clip-path="url(#clip172)" style="stroke:#f1e864; stroke-linecap:round; stroke-linejoin:round; stroke-width:4; stroke-opacity:1; fill:none" points="
  1117.01,874.834 1094.6,870.332 1117.01,866.419 1128.56,870.332 1117.01,874.834 
  "/>
<polyline clip-path="url(#clip172)" style="stroke:#f8c931; stroke-linecap:round; stroke-linejoin:round; stroke-width:4; stroke-opacity:1; fill:none" points="
  1117.01,804.695 1027.37,804.937 1018.11,798.759 1025.95,762.973 1027.37,762.444 1117.01,733.126 1128.25,727.186 1117.01,715.996 1092.71,691.4 1117.01,668.048 
  1161.73,655.613 1206.64,650.052 1259.59,655.613 1296.28,659.159 1328.53,691.4 1336.09,727.186 1320.02,762.973 1296.28,778.112 1206.64,796.664 1144.13,798.759 
  1117.01,804.695 
  "/>
<polyline clip-path="url(#clip172)" style="stroke:#f1e864; stroke-linecap:round; stroke-linejoin:round; stroke-width:4; stroke-opacity:1; fill:none" points="
  1206.64,771.992 1117.01,765.422 1110.91,762.973 1117.01,761 1181.04,727.186 1176.66,691.4 1206.64,681.993 1296.28,679.589 1308.1,691.4 1315.85,727.186 
  1298.97,762.973 1296.28,764.683 1206.64,771.992 
  "/>
<polyline clip-path="url(#clip172)" style="stroke:#fbaa0e; stroke-linecap:round; stroke-linejoin:round; stroke-width:4; stroke-opacity:1; fill:none" points="
  844.432,655.613 758.448,664.672 732.996,655.613 758.448,641.049 844.432,655.613 
  "/>
<polyline clip-path="url(#clip172)" style="stroke:#f98c09; stroke-linecap:round; stroke-linejoin:round; stroke-width:4; stroke-opacity:1; fill:none" points="
  559.961,619.827 489.53,627.917 476.766,619.827 489.53,608.334 559.961,619.827 
  "/>
<polyline clip-path="url(#clip172)" style="stroke:#f0701e; stroke-linecap:round; stroke-linejoin:round; stroke-width:4; stroke-opacity:1; fill:none" points="
  432.846,655.613 399.891,666.285 390.802,655.613 399.891,651.441 432.846,655.613 
  "/>
<polyline clip-path="url(#clip172)" style="stroke:#f8c931; stroke-linecap:round; stroke-linejoin:round; stroke-width:4; stroke-opacity:1; fill:none" points="
  1180.89,405.108 1206.64,421.629 1221.91,405.108 1206.64,400.025 1180.89,405.108 
  "/>
<polyline clip-path="url(#clip172)" style="stroke:#f1e864; stroke-linecap:round; stroke-linejoin:round; stroke-width:4; stroke-opacity:1; fill:none" points="
  1324.56,476.681 1304.5,512.468 1385.92,532.407 1475.56,515.56 1482.02,512.468 1565.2,487.153 
  "/>
<polyline clip-path="url(#clip172)" style="stroke:#f1e864; stroke-linecap:round; stroke-linejoin:round; stroke-width:4; stroke-opacity:1; fill:none" points="
  1385.92,450.234 1324.56,476.681 
  "/>
<polyline clip-path="url(#clip172)" style="stroke:#f8c931; stroke-linecap:round; stroke-linejoin:round; stroke-width:4; stroke-opacity:1; fill:none" points="
  1659.64,333.536 1744.48,363.662 1804.62,333.536 1796.79,297.749 1834.12,278.24 1850.49,261.963 1837.16,226.176 1834.12,217.264 1799.87,190.39 1744.48,182.078 
  1654.84,176.913 1571.49,190.39 1565.2,192.187 1508.05,226.176 1475.56,246.201 1441.21,261.963 1451.53,297.749 1475.56,308.332 1565.2,317.223 1654.84,331.509 
  1659.64,333.536 
  "/>
<polyline clip-path="url(#clip172)" style="stroke:#f1e864; stroke-linecap:round; stroke-linejoin:round; stroke-width:4; stroke-opacity:1; fill:none" points="
  1744.48,269.381 1654.84,293.306 1565.4,297.749 1565.2,297.754 1565.15,297.749 1508.69,261.963 1559.03,226.176 1565.2,222.509 1654.84,196.933 1744.48,211.621 
  1773.92,226.176 1751.67,261.963 1744.48,269.381 
  "/>
<polyline clip-path="url(#clip172)" style="stroke:#ba3655; stroke-linecap:round; stroke-linejoin:round; stroke-width:4; stroke-opacity:1; fill:none" points="
  2008.4,333.536 2000.99,369.322 2003.01,405.108 2013.4,414.055 2014.24,405.108 2026.42,369.322 2049.32,333.536 2013.4,327.972 2008.4,333.536 
  "/>
<polyline clip-path="url(#clip172)" style="stroke:#ba3655; stroke-linecap:round; stroke-linejoin:round; stroke-width:4; stroke-opacity:1; fill:none" points="
  2095.3,297.749 2103.04,306.896 2115.94,297.749 2103.04,291.549 2095.3,297.749 
  "/>
<polyline clip-path="url(#clip172)" style="stroke:#f1e864; stroke-linecap:round; stroke-linejoin:round; stroke-width:4; stroke-opacity:1; fill:none" points="
  1744.48,88.8467 1734.87,83.0305 1744.48,76.763 1798.28,83.0305 1744.48,88.8467 
  "/>
<polyline clip-path="url(#clip172)" style="stroke:#e35832; stroke-linecap:round; stroke-linejoin:round; stroke-width:4; stroke-opacity:1; fill:none" points="
  1043.45,190.39 1027.37,201.597 1006.55,190.39 1027.37,172.801 1043.45,190.39 
  "/>
<polyline clip-path="url(#clip172)" style="stroke:#f1e864; stroke-linecap:round; stroke-linejoin:round; stroke-width:4; stroke-opacity:1; fill:none" points="
  2012.76,941.905 2013.4,942.108 2014.02,941.905 2013.4,934.077 2012.76,941.905 
  "/>
<polyline clip-path="url(#clip172)" style="stroke:#f1e864; stroke-linecap:round; stroke-linejoin:round; stroke-width:4; stroke-opacity:1; fill:none" points="
  2174.35,1013.48 2114.91,1049.26 2103.04,1061.97 2093.12,1085.05 2044.31,1120.84 2103.04,1134.7 2118.03,1120.84 2192.68,1088.24 2196.76,1085.05 2282.32,1050.78 
  2285.36,1049.26 2286.88,1013.48 2282.32,1009.42 2192.68,1008.74 2174.35,1013.48 
  "/>
<polyline clip-path="url(#clip172)" style="stroke:#fbaa0e; stroke-linecap:round; stroke-linejoin:round; stroke-width:4; stroke-opacity:1; fill:none" points="
  850.464,1085.05 848.087,1086.61 783.016,1120.84 758.448,1134.26 683.753,1156.62 668.809,1163.45 584.074,1192.41 579.169,1198.08 489.53,1212.63 432.348,1228.2 
  399.891,1236.06 310.251,1228.79 307.294,1228.2 310.251,1227.22 373.163,1192.41 399.891,1174.49 440.972,1156.62 399.891,1126.36 393.918,1120.84 399.891,1111.94 
  423.426,1085.05 489.53,1072.71 579.169,1072.38 668.809,1080.83 758.448,1080.29 848.087,1082.05 850.464,1085.05 
  "/>
<polyline clip-path="url(#clip172)" style="stroke:#f8c931; stroke-linecap:round; stroke-linejoin:round; stroke-width:4; stroke-opacity:1; fill:none" points="
  758.823,1120.84 758.448,1121.04 668.809,1136.41 624.631,1156.62 579.169,1171.87 523.418,1156.62 515.91,1120.84 579.169,1096.23 668.809,1107.37 758.448,1120.13 
  758.823,1120.84 
  "/>
<polyline clip-path="url(#clip172)" style="stroke:#f8c931; stroke-linecap:round; stroke-linejoin:round; stroke-width:4; stroke-opacity:1; fill:none" points="
  500.724,1192.41 489.53,1194.75 471.013,1192.41 489.53,1183.81 500.724,1192.41 
  "/>
<polyline clip-path="url(#clip172)" style="stroke:#3b0964; stroke-linecap:round; stroke-linejoin:round; stroke-width:4; stroke-opacity:1; fill:none" points="
  482.57,1621.85 489.53,1629.72 520.84,1621.85 489.53,1604.74 482.57,1621.85 
  "/>
<polyline clip-path="url(#clip172)" style="stroke:#550f6d; stroke-linecap:round; stroke-linejoin:round; stroke-width:4; stroke-opacity:1; fill:none" points="
  348.709,1657.63 310.251,1666.14 291.175,1657.63 310.251,1646.94 348.709,1657.63 
  "/>
<polyline clip-path="url(#clip172)" style="stroke:#3b0964; stroke-linecap:round; stroke-linejoin:round; stroke-width:4; stroke-opacity:1; fill:none" points="
  568.777,1657.63 579.169,1664.51 580.436,1657.63 579.169,1650.48 568.777,1657.63 
  "/>
<defs>
  <clipPath id="clip173">
    <rect x="2425" y="47" width="82" height="1755"/>
  </clipPath>
</defs>
<polyline clip-path="url(#clip173)" style="stroke:#0a0723; stroke-linecap:round; stroke-linejoin:round; stroke-width:4; stroke-opacity:1; fill:none" points="
  2425.72,1691.18 2506.36,1691.18 
  "/>
<polyline clip-path="url(#clip173)" style="stroke:#200c4a; stroke-linecap:round; stroke-linejoin:round; stroke-width:4; stroke-opacity:1; fill:none" points="
  2425.72,1581.59 2506.36,1581.59 
  "/>
<polyline clip-path="url(#clip173)" style="stroke:#3c0965; stroke-linecap:round; stroke-linejoin:round; stroke-width:4; stroke-opacity:1; fill:none" points="
  2425.72,1471.99 2506.36,1471.99 
  "/>
<polyline clip-path="url(#clip173)" style="stroke:#570f6d; stroke-linecap:round; stroke-linejoin:round; stroke-width:4; stroke-opacity:1; fill:none" points="
  2425.72,1362.4 2506.36,1362.4 
  "/>
<polyline clip-path="url(#clip173)" style="stroke:#70196e; stroke-linecap:round; stroke-linejoin:round; stroke-width:4; stroke-opacity:1; fill:none" points="
  2425.72,1252.8 2506.36,1252.8 
  "/>
<polyline clip-path="url(#clip173)" style="stroke:#892269; stroke-linecap:round; stroke-linejoin:round; stroke-width:4; stroke-opacity:1; fill:none" points="
  2425.72,1143.2 2506.36,1143.2 
  "/>
<polyline clip-path="url(#clip173)" style="stroke:#a32b61; stroke-linecap:round; stroke-linejoin:round; stroke-width:4; stroke-opacity:1; fill:none" points="
  2425.72,1033.61 2506.36,1033.61 
  "/>
<polyline clip-path="url(#clip173)" style="stroke:#bb3754; stroke-linecap:round; stroke-linejoin:round; stroke-width:4; stroke-opacity:1; fill:none" points="
  2425.72,924.012 2506.36,924.012 
  "/>
<polyline clip-path="url(#clip173)" style="stroke:#d04544; stroke-linecap:round; stroke-linejoin:round; stroke-width:4; stroke-opacity:1; fill:none" points="
  2425.72,814.416 2506.36,814.416 
  "/>
<polyline clip-path="url(#clip173)" style="stroke:#e35832; stroke-linecap:round; stroke-linejoin:round; stroke-width:4; stroke-opacity:1; fill:none" points="
  2425.72,704.82 2506.36,704.82 
  "/>
<polyline clip-path="url(#clip173)" style="stroke:#f0701e; stroke-linecap:round; stroke-linejoin:round; stroke-width:4; stroke-opacity:1; fill:none" points="
  2425.72,595.224 2506.36,595.224 
  "/>
<polyline clip-path="url(#clip173)" style="stroke:#f98c09; stroke-linecap:round; stroke-linejoin:round; stroke-width:4; stroke-opacity:1; fill:none" points="
  2425.72,485.628 2506.36,485.628 
  "/>
<polyline clip-path="url(#clip173)" style="stroke:#fbaa0e; stroke-linecap:round; stroke-linejoin:round; stroke-width:4; stroke-opacity:1; fill:none" points="
  2425.72,376.032 2506.36,376.032 
  "/>
<polyline clip-path="url(#clip173)" style="stroke:#f8c931; stroke-linecap:round; stroke-linejoin:round; stroke-width:4; stroke-opacity:1; fill:none" points="
  2425.72,266.436 2506.36,266.436 
  "/>
<polyline clip-path="url(#clip173)" style="stroke:#f1e864; stroke-linecap:round; stroke-linejoin:round; stroke-width:4; stroke-opacity:1; fill:none" points="
  2425.72,156.84 2506.36,156.84 
  "/>
<path clip-path="url(#clip170)" d="M2548.13 1546.1 L2566.49 1546.1 L2566.49 1550.04 L2552.42 1550.04 L2552.42 1558.51 Q2553.44 1558.16 2554.45 1558 Q2555.47 1557.82 2556.49 1557.82 Q2562.28 1557.82 2565.66 1560.99 Q2569.04 1564.16 2569.04 1569.58 Q2569.04 1575.16 2565.56 1578.26 Q2562.09 1581.34 2555.77 1581.34 Q2553.6 1581.34 2551.33 1580.97 Q2549.08 1580.6 2546.68 1579.85 L2546.68 1575.16 Q2548.76 1576.29 2550.98 1576.85 Q2553.2 1577.4 2555.68 1577.4 Q2559.69 1577.4 2562.02 1575.29 Q2564.36 1573.19 2564.36 1569.58 Q2564.36 1565.97 2562.02 1563.86 Q2559.69 1561.75 2555.68 1561.75 Q2553.81 1561.75 2551.93 1562.17 Q2550.08 1562.59 2548.13 1563.47 L2548.13 1546.1 Z" fill="#000000" fill-rule="evenodd" fill-opacity="1" /><path clip-path="url(#clip170)" d="M2588.25 1549.18 Q2584.64 1549.18 2582.81 1552.75 Q2581 1556.29 2581 1563.42 Q2581 1570.53 2582.81 1574.09 Q2584.64 1577.63 2588.25 1577.63 Q2591.88 1577.63 2593.69 1574.09 Q2595.52 1570.53 2595.52 1563.42 Q2595.52 1556.29 2593.69 1552.75 Q2591.88 1549.18 2588.25 1549.18 M2588.25 1545.48 Q2594.06 1545.48 2597.12 1550.09 Q2600.19 1554.67 2600.19 1563.42 Q2600.19 1572.15 2597.12 1576.75 Q2594.06 1581.34 2588.25 1581.34 Q2582.44 1581.34 2579.36 1576.75 Q2576.31 1572.15 2576.31 1563.42 Q2576.31 1554.67 2579.36 1550.09 Q2582.44 1545.48 2588.25 1545.48 Z" fill="#000000" fill-rule="evenodd" fill-opacity="1" /><path clip-path="url(#clip170)" d="M2546.68 1253.46 L2568.9 1253.46 L2568.9 1255.45 L2556.35 1288.02 L2551.47 1288.02 L2563.27 1257.39 L2546.68 1257.39 L2546.68 1253.46 Z" fill="#000000" fill-rule="evenodd" fill-opacity="1" /><path clip-path="url(#clip170)" d="M2578.06 1253.46 L2596.42 1253.46 L2596.42 1257.39 L2582.35 1257.39 L2582.35 1265.87 Q2583.37 1265.52 2584.38 1265.36 Q2585.4 1265.17 2586.42 1265.17 Q2592.21 1265.17 2595.59 1268.34 Q2598.97 1271.51 2598.97 1276.93 Q2598.97 1282.51 2595.5 1285.61 Q2592.02 1288.69 2585.7 1288.69 Q2583.53 1288.69 2581.26 1288.32 Q2579.01 1287.95 2576.61 1287.21 L2576.61 1282.51 Q2578.69 1283.64 2580.91 1284.2 Q2583.13 1284.75 2585.61 1284.75 Q2589.62 1284.75 2591.95 1282.65 Q2594.29 1280.54 2594.29 1276.93 Q2594.29 1273.32 2591.95 1271.21 Q2589.62 1269.11 2585.61 1269.11 Q2583.74 1269.11 2581.86 1269.52 Q2580.01 1269.94 2578.06 1270.82 L2578.06 1253.46 Z" fill="#000000" fill-rule="evenodd" fill-opacity="1" /><path clip-path="url(#clip170)" d="M2547.35 991.438 L2554.99 991.438 L2554.99 965.072 L2546.68 966.739 L2546.68 962.479 L2554.94 960.813 L2559.62 960.813 L2559.62 991.438 L2567.25 991.438 L2567.25 995.373 L2547.35 995.373 L2547.35 991.438 Z" fill="#000000" fill-rule="evenodd" fill-opacity="1" /><path clip-path="url(#clip170)" d="M2586.7 963.891 Q2583.09 963.891 2581.26 967.456 Q2579.45 970.998 2579.45 978.127 Q2579.45 985.234 2581.26 988.799 Q2583.09 992.34 2586.7 992.34 Q2590.33 992.34 2592.14 988.799 Q2593.97 985.234 2593.97 978.127 Q2593.97 970.998 2592.14 967.456 Q2590.33 963.891 2586.7 963.891 M2586.7 960.188 Q2592.51 960.188 2595.56 964.794 Q2598.64 969.377 2598.64 978.127 Q2598.64 986.854 2595.56 991.461 Q2592.51 996.044 2586.7 996.044 Q2580.89 996.044 2577.81 991.461 Q2574.75 986.854 2574.75 978.127 Q2574.75 969.377 2577.81 964.794 Q2580.89 960.188 2586.7 960.188 Z" fill="#000000" fill-rule="evenodd" fill-opacity="1" /><path clip-path="url(#clip170)" d="M2616.86 963.891 Q2613.25 963.891 2611.42 967.456 Q2609.62 970.998 2609.62 978.127 Q2609.62 985.234 2611.42 988.799 Q2613.25 992.34 2616.86 992.34 Q2620.49 992.34 2622.3 988.799 Q2624.13 985.234 2624.13 978.127 Q2624.13 970.998 2622.3 967.456 Q2620.49 963.891 2616.86 963.891 M2616.86 960.188 Q2622.67 960.188 2625.73 964.794 Q2628.81 969.377 2628.81 978.127 Q2628.81 986.854 2625.73 991.461 Q2622.67 996.044 2616.86 996.044 Q2611.05 996.044 2607.97 991.461 Q2604.92 986.854 2604.92 978.127 Q2604.92 969.377 2607.97 964.794 Q2611.05 960.188 2616.86 960.188 Z" fill="#000000" fill-rule="evenodd" fill-opacity="1" /><path clip-path="url(#clip170)" d="M2547.35 698.791 L2554.99 698.791 L2554.99 672.426 L2546.68 674.093 L2546.68 669.833 L2554.94 668.167 L2559.62 668.167 L2559.62 698.791 L2567.25 698.791 L2567.25 702.727 L2547.35 702.727 L2547.35 698.791 Z" fill="#000000" fill-rule="evenodd" fill-opacity="1" /><path clip-path="url(#clip170)" d="M2580.73 698.791 L2597.05 698.791 L2597.05 702.727 L2575.1 702.727 L2575.1 698.791 Q2577.76 696.037 2582.35 691.407 Q2586.95 686.755 2588.13 685.412 Q2590.38 682.889 2591.26 681.153 Q2592.16 679.393 2592.16 677.704 Q2592.16 674.949 2590.22 673.213 Q2588.3 671.477 2585.19 671.477 Q2583 671.477 2580.54 672.241 Q2578.11 673.005 2575.33 674.555 L2575.33 669.833 Q2578.16 668.699 2580.61 668.12 Q2583.06 667.542 2585.1 667.542 Q2590.47 667.542 2593.67 670.227 Q2596.86 672.912 2596.86 677.403 Q2596.86 679.532 2596.05 681.454 Q2595.26 683.352 2593.16 685.944 Q2592.58 686.616 2589.48 689.833 Q2586.37 693.028 2580.73 698.791 Z" fill="#000000" fill-rule="evenodd" fill-opacity="1" /><path clip-path="url(#clip170)" d="M2606.91 668.167 L2625.26 668.167 L2625.26 672.102 L2611.19 672.102 L2611.19 680.574 Q2612.21 680.227 2613.23 680.065 Q2614.24 679.88 2615.26 679.88 Q2621.05 679.88 2624.43 683.051 Q2627.81 686.222 2627.81 691.639 Q2627.81 697.217 2624.34 700.319 Q2620.87 703.398 2614.55 703.398 Q2612.37 703.398 2610.1 703.028 Q2607.86 702.657 2605.45 701.916 L2605.45 697.217 Q2607.53 698.352 2609.75 698.907 Q2611.98 699.463 2614.45 699.463 Q2618.46 699.463 2620.8 697.356 Q2623.13 695.25 2623.13 691.639 Q2623.13 688.028 2620.8 685.921 Q2618.46 683.815 2614.45 683.815 Q2612.58 683.815 2610.7 684.231 Q2608.85 684.648 2606.91 685.528 L2606.91 668.167 Z" fill="#000000" fill-rule="evenodd" fill-opacity="1" /><path clip-path="url(#clip170)" d="M2547.35 406.145 L2554.99 406.145 L2554.99 379.78 L2546.68 381.446 L2546.68 377.187 L2554.94 375.521 L2559.62 375.521 L2559.62 406.145 L2567.25 406.145 L2567.25 410.081 L2547.35 410.081 L2547.35 406.145 Z" fill="#000000" fill-rule="evenodd" fill-opacity="1" /><path clip-path="url(#clip170)" d="M2576.75 375.521 L2595.1 375.521 L2595.1 379.456 L2581.03 379.456 L2581.03 387.928 Q2582.05 387.581 2583.06 387.419 Q2584.08 387.233 2585.1 387.233 Q2590.89 387.233 2594.27 390.405 Q2597.65 393.576 2597.65 398.993 Q2597.65 404.571 2594.18 407.673 Q2590.7 410.752 2584.38 410.752 Q2582.21 410.752 2579.94 410.382 Q2577.69 410.011 2575.29 409.27 L2575.29 404.571 Q2577.37 405.706 2579.59 406.261 Q2581.81 406.817 2584.29 406.817 Q2588.3 406.817 2590.63 404.71 Q2592.97 402.604 2592.97 398.993 Q2592.97 395.382 2590.63 393.275 Q2588.3 391.169 2584.29 391.169 Q2582.42 391.169 2580.54 391.585 Q2578.69 392.002 2576.75 392.882 L2576.75 375.521 Z" fill="#000000" fill-rule="evenodd" fill-opacity="1" /><path clip-path="url(#clip170)" d="M2616.86 378.599 Q2613.25 378.599 2611.42 382.164 Q2609.62 385.706 2609.62 392.835 Q2609.62 399.942 2611.42 403.507 Q2613.25 407.048 2616.86 407.048 Q2620.49 407.048 2622.3 403.507 Q2624.13 399.942 2624.13 392.835 Q2624.13 385.706 2622.3 382.164 Q2620.49 378.599 2616.86 378.599 M2616.86 374.896 Q2622.67 374.896 2625.73 379.502 Q2628.81 384.085 2628.81 392.835 Q2628.81 401.562 2625.73 406.169 Q2622.67 410.752 2616.86 410.752 Q2611.05 410.752 2607.97 406.169 Q2604.92 401.562 2604.92 392.835 Q2604.92 384.085 2607.97 379.502 Q2611.05 374.896 2616.86 374.896 Z" fill="#000000" fill-rule="evenodd" fill-opacity="1" /><path clip-path="url(#clip170)" d="M2547.35 113.499 L2554.99 113.499 L2554.99 87.1338 L2546.68 88.8004 L2546.68 84.5412 L2554.94 82.8745 L2559.62 82.8745 L2559.62 113.499 L2567.25 113.499 L2567.25 117.435 L2547.35 117.435 L2547.35 113.499 Z" fill="#000000" fill-rule="evenodd" fill-opacity="1" /><path clip-path="url(#clip170)" d="M2575.52 82.8745 L2597.74 82.8745 L2597.74 84.8652 L2585.19 117.435 L2580.31 117.435 L2592.12 86.8097 L2575.52 86.8097 L2575.52 82.8745 Z" fill="#000000" fill-rule="evenodd" fill-opacity="1" /><path clip-path="url(#clip170)" d="M2606.91 82.8745 L2625.26 82.8745 L2625.26 86.8097 L2611.19 86.8097 L2611.19 95.2819 Q2612.21 94.9346 2613.23 94.7726 Q2614.24 94.5874 2615.26 94.5874 Q2621.05 94.5874 2624.43 97.7587 Q2627.81 100.93 2627.81 106.347 Q2627.81 111.925 2624.34 115.027 Q2620.87 118.106 2614.55 118.106 Q2612.37 118.106 2610.1 117.735 Q2607.86 117.365 2605.45 116.624 L2605.45 111.925 Q2607.53 113.06 2609.75 113.615 Q2611.98 114.171 2614.45 114.171 Q2618.46 114.171 2620.8 112.064 Q2623.13 109.958 2623.13 106.347 Q2623.13 102.736 2620.8 100.629 Q2618.46 98.5226 2614.45 98.5226 Q2612.58 98.5226 2610.7 98.9392 Q2608.85 99.3559 2606.91 100.236 L2606.91 82.8745 Z" fill="#000000" fill-rule="evenodd" fill-opacity="1" /><polyline clip-path="url(#clip170)" style="stroke:#000000; stroke-linecap:round; stroke-linejoin:round; stroke-width:4; stroke-opacity:1; fill:none" points="
  2506.36,1800.78 2506.36,1567.01 2533.24,1567.01 2506.36,1567.01 2506.36,1274.37 2533.24,1274.37 2506.36,1274.37 2506.36,981.722 2533.24,981.722 2506.36,981.722 
  2506.36,689.075 2533.24,689.075 2506.36,689.075 2506.36,396.429 2533.24,396.429 2506.36,396.429 2506.36,103.783 2533.24,103.783 2506.36,103.783 2506.36,47.2441 
  
  "/>
</svg>
