<?xml version="1.0" encoding="utf-8"?>
<svg xmlns="http://www.w3.org/2000/svg" xmlns:xlink="http://www.w3.org/1999/xlink" width="672" height="480" viewBox="0 0 2688 1920">
<defs>
  <clipPath id="clip970">
    <rect x="0" y="0" width="2688" height="1920"/>
  </clipPath>
</defs>
<path clip-path="url(#clip970)" d="
M0 1920 L2688 1920 L2688 0 L0 0  Z
  " fill="#ffffff" fill-rule="evenodd" fill-opacity="1"/>
<defs>
  <clipPath id="clip971">
    <rect x="537" y="0" width="1883" height="1883"/>
  </clipPath>
</defs>
<path clip-path="url(#clip970)" d="
M150.358 1800.78 L2371.96 1800.78 L2371.96 47.2441 L150.358 47.2441  Z
  " fill="#ffffff" fill-rule="evenodd" fill-opacity="1"/>
<defs>
  <clipPath id="clip972">
    <rect x="150" y="47" width="2223" height="1755"/>
  </clipPath>
</defs>
<polyline clip-path="url(#clip972)" style="stroke:#000000; stroke-linecap:butt; stroke-linejoin:round; stroke-width:2; stroke-opacity:0.1; fill:none" points="
  150.358,1800.78 150.358,47.2441 
  "/>
<polyline clip-path="url(#clip972)" style="stroke:#000000; stroke-linecap:butt; stroke-linejoin:round; stroke-width:2; stroke-opacity:0.1; fill:none" points="
  705.757,1800.78 705.757,47.2441 
  "/>
<polyline clip-path="url(#clip972)" style="stroke:#000000; stroke-linecap:butt; stroke-linejoin:round; stroke-width:2; stroke-opacity:0.1; fill:none" points="
  1261.16,1800.78 1261.16,47.2441 
  "/>
<polyline clip-path="url(#clip972)" style="stroke:#000000; stroke-linecap:butt; stroke-linejoin:round; stroke-width:2; stroke-opacity:0.1; fill:none" points="
  1816.56,1800.78 1816.56,47.2441 
  "/>
<polyline clip-path="url(#clip972)" style="stroke:#000000; stroke-linecap:butt; stroke-linejoin:round; stroke-width:2; stroke-opacity:0.1; fill:none" points="
  2371.96,1800.78 2371.96,47.2441 
  "/>
<polyline clip-path="url(#clip970)" style="stroke:#000000; stroke-linecap:butt; stroke-linejoin:round; stroke-width:4; stroke-opacity:1; fill:none" points="
  150.358,1800.78 2371.96,1800.78 
  "/>
<polyline clip-path="url(#clip970)" style="stroke:#000000; stroke-linecap:butt; stroke-linejoin:round; stroke-width:4; stroke-opacity:1; fill:none" points="
  150.358,1800.78 150.358,1781.88 
  "/>
<polyline clip-path="url(#clip970)" style="stroke:#000000; stroke-linecap:butt; stroke-linejoin:round; stroke-width:4; stroke-opacity:1; fill:none" points="
  705.757,1800.78 705.757,1781.88 
  "/>
<polyline clip-path="url(#clip970)" style="stroke:#000000; stroke-linecap:butt; stroke-linejoin:round; stroke-width:4; stroke-opacity:1; fill:none" points="
  1261.16,1800.78 1261.16,1781.88 
  "/>
<polyline clip-path="url(#clip970)" style="stroke:#000000; stroke-linecap:butt; stroke-linejoin:round; stroke-width:4; stroke-opacity:1; fill:none" points="
  1816.56,1800.78 1816.56,1781.88 
  "/>
<polyline clip-path="url(#clip970)" style="stroke:#000000; stroke-linecap:butt; stroke-linejoin:round; stroke-width:4; stroke-opacity:1; fill:none" points="
  2371.96,1800.78 2371.96,1781.88 
  "/>
<path clip-path="url(#clip970)" d="M120.3 1848.65 L149.976 1848.65 L149.976 1852.59 L120.3 1852.59 L120.3 1848.65 Z" fill="#000000" fill-rule="evenodd" fill-opacity="1" /><path clip-path="url(#clip970)" d="M164.096 1861.55 L180.416 1861.55 L180.416 1865.48 L158.471 1865.48 L158.471 1861.55 Q161.133 1858.79 165.717 1854.16 Q170.323 1849.51 171.504 1848.17 Q173.749 1845.65 174.629 1843.91 Q175.531 1842.15 175.531 1840.46 Q175.531 1837.71 173.587 1835.97 Q171.666 1834.23 168.564 1834.23 Q166.365 1834.23 163.911 1835 Q161.481 1835.76 158.703 1837.31 L158.703 1832.59 Q161.527 1831.46 163.981 1830.88 Q166.434 1830.3 168.471 1830.3 Q173.842 1830.3 177.036 1832.98 Q180.23 1835.67 180.23 1840.16 Q180.23 1842.29 179.42 1844.21 Q178.633 1846.11 176.527 1848.7 Q175.948 1849.37 172.846 1852.59 Q169.744 1855.78 164.096 1861.55 Z" fill="#000000" fill-rule="evenodd" fill-opacity="1" /><path clip-path="url(#clip970)" d="M675.515 1848.65 L705.19 1848.65 L705.19 1852.59 L675.515 1852.59 L675.515 1848.65 Z" fill="#000000" fill-rule="evenodd" fill-opacity="1" /><path clip-path="url(#clip970)" d="M716.093 1861.55 L723.732 1861.55 L723.732 1835.18 L715.422 1836.85 L715.422 1832.59 L723.686 1830.92 L728.361 1830.92 L728.361 1861.55 L736 1861.55 L736 1865.48 L716.093 1865.48 L716.093 1861.55 Z" fill="#000000" fill-rule="evenodd" fill-opacity="1" /><path clip-path="url(#clip970)" d="M1261.16 1834 Q1257.55 1834 1255.72 1837.57 Q1253.91 1841.11 1253.91 1848.24 Q1253.91 1855.34 1255.72 1858.91 Q1257.55 1862.45 1261.16 1862.45 Q1264.79 1862.45 1266.6 1858.91 Q1268.43 1855.34 1268.43 1848.24 Q1268.43 1841.11 1266.6 1837.57 Q1264.79 1834 1261.16 1834 M1261.16 1830.3 Q1266.97 1830.3 1270.02 1834.9 Q1273.1 1839.49 1273.1 1848.24 Q1273.1 1856.96 1270.02 1861.57 Q1266.97 1866.15 1261.16 1866.15 Q1255.35 1866.15 1252.27 1861.57 Q1249.21 1856.96 1249.21 1848.24 Q1249.21 1839.49 1252.27 1834.9 Q1255.35 1830.3 1261.16 1830.3 Z" fill="#000000" fill-rule="evenodd" fill-opacity="1" /><path clip-path="url(#clip970)" d="M1806.94 1861.55 L1814.58 1861.55 L1814.58 1835.18 L1806.27 1836.85 L1806.27 1832.59 L1814.53 1830.92 L1819.21 1830.92 L1819.21 1861.55 L1826.85 1861.55 L1826.85 1865.48 L1806.94 1865.48 L1806.94 1861.55 Z" fill="#000000" fill-rule="evenodd" fill-opacity="1" /><path clip-path="url(#clip970)" d="M2366.61 1861.55 L2382.93 1861.55 L2382.93 1865.48 L2360.98 1865.48 L2360.98 1861.55 Q2363.65 1858.79 2368.23 1854.16 Q2372.84 1849.51 2374.02 1848.17 Q2376.26 1845.65 2377.14 1843.91 Q2378.04 1842.15 2378.04 1840.46 Q2378.04 1837.71 2376.1 1835.97 Q2374.18 1834.23 2371.08 1834.23 Q2368.88 1834.23 2366.42 1835 Q2363.99 1835.76 2361.22 1837.31 L2361.22 1832.59 Q2364.04 1831.46 2366.49 1830.88 Q2368.95 1830.3 2370.98 1830.3 Q2376.35 1830.3 2379.55 1832.98 Q2382.74 1835.67 2382.74 1840.16 Q2382.74 1842.29 2381.93 1844.21 Q2381.15 1846.11 2379.04 1848.7 Q2378.46 1849.37 2375.36 1852.59 Q2372.26 1855.78 2366.61 1861.55 Z" fill="#000000" fill-rule="evenodd" fill-opacity="1" /><polyline clip-path="url(#clip972)" style="stroke:#000000; stroke-linecap:butt; stroke-linejoin:round; stroke-width:2; stroke-opacity:0.1; fill:none" points="
  150.358,1800.78 2371.96,1800.78 
  "/>
<polyline clip-path="url(#clip972)" style="stroke:#000000; stroke-linecap:butt; stroke-linejoin:round; stroke-width:2; stroke-opacity:0.1; fill:none" points="
  150.358,1362.4 2371.96,1362.4 
  "/>
<polyline clip-path="url(#clip972)" style="stroke:#000000; stroke-linecap:butt; stroke-linejoin:round; stroke-width:2; stroke-opacity:0.1; fill:none" points="
  150.358,924.012 2371.96,924.012 
  "/>
<polyline clip-path="url(#clip972)" style="stroke:#000000; stroke-linecap:butt; stroke-linejoin:round; stroke-width:2; stroke-opacity:0.1; fill:none" points="
  150.358,485.628 2371.96,485.628 
  "/>
<polyline clip-path="url(#clip972)" style="stroke:#000000; stroke-linecap:butt; stroke-linejoin:round; stroke-width:2; stroke-opacity:0.1; fill:none" points="
  150.358,47.2441 2371.96,47.2441 
  "/>
<polyline clip-path="url(#clip970)" style="stroke:#000000; stroke-linecap:butt; stroke-linejoin:round; stroke-width:4; stroke-opacity:1; fill:none" points="
  150.358,1800.78 150.358,47.2441 
  "/>
<polyline clip-path="url(#clip970)" style="stroke:#000000; stroke-linecap:butt; stroke-linejoin:round; stroke-width:4; stroke-opacity:1; fill:none" points="
  150.358,1800.78 167.216,1800.78 
  "/>
<polyline clip-path="url(#clip970)" style="stroke:#000000; stroke-linecap:butt; stroke-linejoin:round; stroke-width:4; stroke-opacity:1; fill:none" points="
  150.358,1362.4 167.216,1362.4 
  "/>
<polyline clip-path="url(#clip970)" style="stroke:#000000; stroke-linecap:butt; stroke-linejoin:round; stroke-width:4; stroke-opacity:1; fill:none" points="
  150.358,924.012 167.216,924.012 
  "/>
<polyline clip-path="url(#clip970)" style="stroke:#000000; stroke-linecap:butt; stroke-linejoin:round; stroke-width:4; stroke-opacity:1; fill:none" points="
  150.358,485.628 167.216,485.628 
  "/>
<polyline clip-path="url(#clip970)" style="stroke:#000000; stroke-linecap:butt; stroke-linejoin:round; stroke-width:4; stroke-opacity:1; fill:none" points="
  150.358,47.2441 167.216,47.2441 
  "/>
<path clip-path="url(#clip970)" d="M49.9225 1801.23 L79.5983 1801.23 L79.5983 1805.17 L49.9225 1805.17 L49.9225 1801.23 Z" fill="#000000" fill-rule="evenodd" fill-opacity="1" /><path clip-path="url(#clip970)" d="M93.7186 1814.12 L110.038 1814.12 L110.038 1818.06 L88.0936 1818.06 L88.0936 1814.12 Q90.7556 1811.37 95.3389 1806.74 Q99.9454 1802.09 101.126 1800.74 Q103.371 1798.22 104.251 1796.49 Q105.154 1794.73 105.154 1793.04 Q105.154 1790.28 103.209 1788.55 Q101.288 1786.81 98.1861 1786.81 Q95.9871 1786.81 93.5334 1787.57 Q91.1028 1788.34 88.3251 1789.89 L88.3251 1785.17 Q91.1491 1784.03 93.6028 1783.45 Q96.0565 1782.87 98.0935 1782.87 Q103.464 1782.87 106.658 1785.56 Q109.853 1788.24 109.853 1792.74 Q109.853 1794.86 109.043 1796.79 Q108.256 1798.68 106.149 1801.28 Q105.57 1801.95 102.469 1805.17 Q99.3667 1808.36 93.7186 1814.12 Z" fill="#000000" fill-rule="evenodd" fill-opacity="1" /><path clip-path="url(#clip970)" d="M49.5521 1362.85 L79.2279 1362.85 L79.2279 1366.78 L49.5521 1366.78 L49.5521 1362.85 Z" fill="#000000" fill-rule="evenodd" fill-opacity="1" /><path clip-path="url(#clip970)" d="M90.1306 1375.74 L97.7695 1375.74 L97.7695 1349.37 L89.4593 1351.04 L89.4593 1346.78 L97.7232 1345.12 L102.399 1345.12 L102.399 1375.74 L110.038 1375.74 L110.038 1379.68 L90.1306 1379.68 L90.1306 1375.74 Z" fill="#000000" fill-rule="evenodd" fill-opacity="1" /><path clip-path="url(#clip970)" d="M98.0935 909.81 Q94.4824 909.81 92.6537 913.375 Q90.8482 916.917 90.8482 924.046 Q90.8482 931.153 92.6537 934.718 Q94.4824 938.259 98.0935 938.259 Q101.728 938.259 103.533 934.718 Q105.362 931.153 105.362 924.046 Q105.362 916.917 103.533 913.375 Q101.728 909.81 98.0935 909.81 M98.0935 906.107 Q103.904 906.107 106.959 910.713 Q110.038 915.296 110.038 924.046 Q110.038 932.773 106.959 937.38 Q103.904 941.963 98.0935 941.963 Q92.2834 941.963 89.2047 937.38 Q86.1492 932.773 86.1492 924.046 Q86.1492 915.296 89.2047 910.713 Q92.2834 906.107 98.0935 906.107 Z" fill="#000000" fill-rule="evenodd" fill-opacity="1" /><path clip-path="url(#clip970)" d="M90.1306 498.973 L97.7695 498.973 L97.7695 472.607 L89.4593 474.274 L89.4593 470.015 L97.7232 468.348 L102.399 468.348 L102.399 498.973 L110.038 498.973 L110.038 502.908 L90.1306 502.908 L90.1306 498.973 Z" fill="#000000" fill-rule="evenodd" fill-opacity="1" /><path clip-path="url(#clip970)" d="M93.7186 60.5889 L110.038 60.5889 L110.038 64.5241 L88.0936 64.5241 L88.0936 60.5889 Q90.7556 57.8343 95.3389 53.2047 Q99.9454 48.552 101.126 47.2094 Q103.371 44.6862 104.251 42.9501 Q105.154 41.1909 105.154 39.5011 Q105.154 36.7465 103.209 35.0104 Q101.288 33.2743 98.1861 33.2743 Q95.9871 33.2743 93.5334 34.0381 Q91.1028 34.802 88.3251 36.3529 L88.3251 31.6308 Q91.1491 30.4965 93.6028 29.9178 Q96.0565 29.3391 98.0935 29.3391 Q103.464 29.3391 106.658 32.0243 Q109.853 34.7094 109.853 39.2002 Q109.853 41.3298 109.043 43.2511 Q108.256 45.1492 106.149 47.7418 Q105.57 48.4131 102.469 51.6306 Q99.3667 54.8251 93.7186 60.5889 Z" fill="#000000" fill-rule="evenodd" fill-opacity="1" /><polyline clip-path="url(#clip972)" style="stroke:#ba3655; stroke-linecap:butt; stroke-linejoin:round; stroke-width:4; stroke-opacity:1; fill:none" points="
  1261.16,1800.78 1261.16,1764.99 1261.16,1729.21 1261.16,1693.42 1261.16,1657.63 1261.16,1621.85 1261.16,1586.06 1261.16,1550.27 1261.16,1514.49 1261.16,1478.7 
  1261.16,1442.91 1261.16,1407.13 1261.16,1371.34 1261.16,1335.56 1261.16,1299.77 1261.16,1263.98 1261.16,1228.2 1261.16,1192.41 1261.16,1156.62 1261.16,1120.84 
  1261.16,1085.05 1261.16,1049.26 1261.16,1013.48 1261.16,977.691 1261.16,941.905 1261.16,906.118 1261.16,870.332 1261.16,834.546 1261.16,798.759 1261.16,762.973 
  1261.16,727.186 1261.16,691.4 1261.16,655.613 1261.16,619.827 1261.16,584.041 1261.16,548.254 1261.16,512.468 1261.16,476.681 1261.16,440.895 1261.16,405.108 
  1261.16,369.322 1261.16,333.536 1261.16,297.749 1261.16,261.963 1261.16,226.176 1261.16,190.39 1261.16,154.603 1261.16,118.817 1261.16,83.0305 1261.16,47.2441 
  
  "/>
<polyline clip-path="url(#clip972)" style="stroke:#a12b61; stroke-linecap:butt; stroke-linejoin:round; stroke-width:4; stroke-opacity:1; fill:none" points="
  941.194,297.749 966.455,301.753 1011.79,314.923 1049.91,333.536 1057.13,336.977 1100.94,369.322 1102.47,370.517 1133.42,405.108 1147.81,424.216 1157.18,440.895 
  1174.48,476.681 1188,512.468 1193.15,528.493 1198.3,548.254 1206.2,584.041 1212.47,619.827 1217.44,655.613 1221.37,691.4 1224.47,727.186 1226.86,762.973 
  1228.67,798.759 1229.96,834.546 1230.79,870.332 1231.2,906.118 1231.2,941.905 1230.79,977.691 1229.96,1013.48 1228.67,1049.26 1226.86,1085.05 1224.47,1120.84 
  1221.37,1156.62 1217.44,1192.41 1212.47,1228.2 1206.2,1263.98 1198.3,1299.77 1193.15,1319.53 1188,1335.56 1174.48,1371.34 1157.18,1407.13 1147.81,1423.81 
  1133.42,1442.91 1102.47,1477.51 1100.94,1478.7 1057.13,1511.05 1049.91,1514.49 1011.79,1533.1 966.455,1546.27 941.194,1550.27 921.116,1553.88 875.778,1556.9 
  830.439,1555.49 787.288,1550.27 785.1,1550.05 739.761,1541.98 694.423,1530.12 650.675,1514.49 649.084,1513.95 603.745,1495.52 570.944,1478.7 558.407,1472.33 
  513.068,1444.99 509.989,1442.91 467.729,1413.22 459.927,1407.13 422.39,1375.43 417.86,1371.34 381.659,1335.56 377.052,1330.44 349.837,1299.77 331.713,1275.51 
  322.922,1263.98 299.188,1228.2 286.374,1204.69 279.201,1192.41 261.437,1156.62 247.475,1120.84 241.035,1100.1 235.721,1085.05 225.821,1049.26 218.734,1013.48 
  214.165,977.691 211.926,941.905 211.926,906.118 214.165,870.332 218.734,834.546 225.821,798.759 235.721,762.973 241.035,747.923 247.475,727.186 261.437,691.4 
  279.201,655.613 286.374,643.329 299.188,619.827 322.922,584.041 331.713,572.515 349.837,548.254 377.052,517.584 381.659,512.468 417.86,476.681 422.39,472.596 
  459.927,440.895 467.729,434.804 509.989,405.108 513.068,403.038 558.407,375.695 570.944,369.322 603.745,352.506 649.084,334.07 650.675,333.536 694.423,317.899 
  739.761,306.043 785.1,297.978 787.288,297.749 830.439,292.536 875.778,291.123 921.116,294.139 941.194,297.749 
  "/>
<polyline clip-path="url(#clip972)" style="stroke:#88216a; stroke-linecap:butt; stroke-linejoin:round; stroke-width:4; stroke-opacity:1; fill:none" points="
  739.761,425.525 694.786,440.895 694.423,441.016 649.084,460.151 618.448,476.681 603.745,484.846 562.279,512.468 558.407,515.226 517.625,548.254 513.068,552.358 
  480.633,584.041 467.729,598.636 449.702,619.827 424.286,655.613 422.39,658.711 402.093,691.4 384.481,727.186 377.052,746.089 369.969,762.973 358.248,798.759 
  349.858,834.546 344.448,870.332 341.797,906.118 341.797,941.905 344.448,977.691 349.858,1013.48 358.248,1049.26 369.969,1085.05 377.052,1101.93 384.481,1120.84 
  402.093,1156.62 422.39,1189.31 424.286,1192.41 449.702,1228.2 467.729,1249.39 480.633,1263.98 513.068,1295.67 517.625,1299.77 558.407,1332.8 562.279,1335.56 
  603.745,1363.18 618.448,1371.34 649.084,1387.87 694.423,1407.01 694.786,1407.13 739.761,1422.5 785.1,1433.04 830.439,1439.06 875.778,1440.61 921.116,1437.3 
  966.455,1428.11 1011.79,1410.89 1018.25,1407.13 1057.13,1383.86 1071.18,1371.34 1102.47,1340.16 1105.83,1335.56 1129.47,1299.77 1147.81,1264.72 1148.12,1263.98 
  1161.43,1228.2 1172,1192.41 1180.37,1156.62 1186.95,1120.84 1192.04,1085.05 1193.15,1075.1 1195.71,1049.26 1198.3,1013.48 1199.96,977.691 1200.78,941.905 
  1200.78,906.118 1199.96,870.332 1198.3,834.546 1195.71,798.759 1193.15,772.924 1192.04,762.973 1186.95,727.186 1180.37,691.4 1172,655.613 1161.43,619.827 
  1148.12,584.041 1147.81,583.3 1129.47,548.254 1105.83,512.468 1102.47,507.865 1071.18,476.681 1057.13,464.162 1018.25,440.895 1011.79,437.138 966.455,419.916 
  921.116,410.721 875.778,407.413 830.439,408.962 785.1,414.98 739.761,425.525 
  "/>
<polyline clip-path="url(#clip972)" style="stroke:#6e186e; stroke-linecap:butt; stroke-linejoin:round; stroke-width:4; stroke-opacity:1; fill:none" points="
  737.524,512.468 694.423,529.609 659.337,548.254 649.084,553.992 605.404,584.041 603.745,585.294 564.098,619.827 558.407,625.517 530.845,655.613 513.068,678.957 
  503.974,691.4 482.108,727.186 467.729,757.265 464.96,762.973 451.121,798.759 441.216,834.546 434.829,870.332 431.699,906.118 431.699,941.905 434.829,977.691 
  441.216,1013.48 451.121,1049.26 464.96,1085.05 467.729,1090.76 482.108,1120.84 503.974,1156.62 513.068,1169.07 530.845,1192.41 558.407,1222.51 564.098,1228.2 
  603.745,1262.73 605.404,1263.98 649.084,1294.03 659.337,1299.77 694.423,1318.41 737.524,1335.56 739.761,1336.44 785.1,1349.49 830.439,1356.94 875.778,1358.86 
  921.116,1354.76 966.455,1343.38 984.022,1335.56 1011.79,1322.92 1043.68,1299.77 1057.13,1289.09 1079.23,1263.98 1102.47,1232.46 1104.85,1228.2 1122.48,1192.41 
  1136.44,1156.62 1147.41,1120.84 1147.81,1119.25 1155.09,1085.05 1160.84,1049.26 1164.96,1013.48 1167.62,977.691 1168.92,941.905 1168.92,906.118 1167.62,870.332 
  1164.96,834.546 1160.84,798.759 1155.09,762.973 1147.81,728.771 1147.41,727.186 1136.44,691.4 1122.48,655.613 1104.85,619.827 1102.47,615.563 1079.23,584.041 
  1057.13,558.934 1043.68,548.254 1011.79,525.1 984.022,512.468 966.455,504.643 921.116,493.259 875.778,489.164 830.439,491.082 785.1,498.532 739.761,511.587 
  737.524,512.468 
  "/>
<polyline clip-path="url(#clip972)" style="stroke:#550f6d; stroke-linecap:butt; stroke-linejoin:round; stroke-width:4; stroke-opacity:1; fill:none" points="
  743.061,584.041 739.761,585.21 694.423,607.644 675.418,619.827 649.084,638.503 628.924,655.613 603.745,680.412 593.804,691.4 566.633,727.186 558.407,740.615 
  545.355,762.973 529.21,798.759 517.654,834.546 513.068,856.343 510.049,870.332 506.202,906.118 506.202,941.905 510.049,977.691 513.068,991.681 517.654,1013.48 
  529.21,1049.26 545.355,1085.05 558.407,1107.41 566.633,1120.84 593.804,1156.62 603.745,1167.61 628.924,1192.41 649.084,1209.52 675.418,1228.2 694.423,1240.38 
  739.761,1262.81 743.061,1263.98 785.1,1278.37 830.439,1287.27 875.778,1289.56 921.116,1284.67 966.455,1271.08 979.903,1263.98 1011.79,1246.01 1032.13,1228.2 
  1057.13,1203.04 1064.72,1192.41 1086.52,1156.62 1102.47,1123.51 1103.49,1120.84 1114.81,1085.05 1123.35,1049.26 1129.45,1013.48 1133.39,977.691 1135.32,941.905 
  1135.32,906.118 1133.39,870.332 1129.45,834.546 1123.35,798.759 1114.81,762.973 1103.49,727.186 1102.47,724.512 1086.52,691.4 1064.72,655.613 1057.13,644.983 
  1032.13,619.827 1011.79,602.013 979.903,584.041 966.455,576.946 921.116,563.356 875.778,558.467 830.439,560.756 785.1,569.65 743.061,584.041 
  "/>
<polyline clip-path="url(#clip972)" style="stroke:#3b0964; stroke-linecap:butt; stroke-linejoin:round; stroke-width:4; stroke-opacity:1; fill:none" points="
  740.338,655.613 739.761,655.88 694.423,685.017 686.576,691.4 649.226,727.186 649.084,727.351 622.331,762.973 603.745,795.662 602.112,798.759 587.93,834.546 
  578.785,870.332 574.303,906.118 574.303,941.905 578.785,977.691 587.93,1013.48 602.112,1049.26 603.745,1052.36 622.331,1085.05 649.084,1120.67 649.226,1120.84 
  686.576,1156.62 694.423,1163.01 739.761,1192.14 740.338,1192.41 785.1,1211.31 830.439,1222.25 875.778,1225.07 921.116,1219.05 966.455,1202.34 981.718,1192.41 
  1011.79,1170.32 1024.12,1156.62 1050.95,1120.84 1057.13,1110.67 1068.78,1085.05 1081.28,1049.26 1090.23,1013.48 1096,977.691 1098.82,941.905 1098.82,906.118 
  1096,870.332 1090.23,834.546 1081.28,798.759 1068.78,762.973 1057.13,737.349 1050.95,727.186 1024.12,691.4 1011.79,677.704 981.718,655.613 966.455,645.679 
  921.116,628.969 875.778,622.958 830.439,625.773 785.1,636.708 740.338,655.613 
  "/>
<polyline clip-path="url(#clip972)" style="stroke:#1f0c47; stroke-linecap:butt; stroke-linejoin:round; stroke-width:4; stroke-opacity:1; fill:none" points="
  835.231,691.4 830.439,691.798 785.1,706.32 747.556,727.186 739.761,732.294 705.761,762.973 694.423,775.975 678.1,798.759 659.384,834.546 649.084,864.969 
  647.44,870.332 641.943,906.118 641.943,941.905 647.44,977.691 649.084,983.055 659.384,1013.48 678.1,1049.26 694.423,1072.05 705.761,1085.05 739.761,1115.73 
  747.556,1120.84 785.1,1141.7 830.439,1156.23 835.231,1156.62 875.778,1159.74 894.951,1156.62 921.116,1151.98 966.455,1129.79 976.909,1120.84 1011.28,1085.05 
  1011.79,1084.38 1030.2,1049.26 1043.65,1013.48 1052.32,977.691 1056.57,941.905 1056.57,906.118 1052.32,870.332 1043.65,834.546 1030.2,798.759 1011.79,763.647 
  1011.28,762.973 976.909,727.186 966.455,718.232 921.116,696.042 894.951,691.4 875.778,688.279 835.231,691.4 
  "/>
<polyline clip-path="url(#clip972)" style="stroke:#090621; stroke-linecap:butt; stroke-linejoin:round; stroke-width:4; stroke-opacity:1; fill:none" points="
  874.454,762.973 830.439,768.532 785.1,790.778 775.399,798.759 742.941,834.546 739.761,839.861 725.983,870.332 718.02,906.118 718.02,941.905 725.983,977.691 
  739.761,1008.16 742.941,1013.48 775.399,1049.26 785.1,1057.25 830.439,1079.49 874.454,1085.05 875.778,1085.19 876.403,1085.05 921.116,1072.99 953.233,1049.26 
  966.455,1036.2 979.983,1013.48 993.926,977.691 1000.76,941.905 1000.76,906.118 993.926,870.332 979.983,834.546 966.455,811.824 953.233,798.759 921.116,775.034 
  876.403,762.973 875.778,762.832 874.454,762.973 
  "/>
<polyline clip-path="url(#clip972)" style="stroke:#d04544; stroke-linecap:butt; stroke-linejoin:round; stroke-width:4; stroke-opacity:1; fill:none" points="
  1295.45,1085.05 1297.85,1120.84 1300.94,1156.62 1304.88,1192.41 1309.85,1228.2 1316.11,1263.98 1324.01,1299.77 1329.17,1319.53 1334.31,1335.56 1347.83,1371.34 
  1365.13,1407.13 1374.5,1423.81 1388.89,1442.91 1419.84,1477.51 1421.37,1478.7 1465.18,1511.05 1472.41,1514.49 1510.52,1533.1 1555.86,1546.27 1581.12,1550.27 
  1601.2,1553.88 1646.54,1556.9 1691.87,1555.49 1735.03,1550.27 1737.21,1550.05 1782.55,1541.98 1827.89,1530.12 1871.64,1514.49 1873.23,1513.95 1918.57,1495.52 
  1951.37,1478.7 1963.91,1472.33 2009.25,1444.99 2012.32,1442.91 2054.58,1413.22 2062.39,1407.13 2099.92,1375.43 2104.45,1371.34 2140.65,1335.56 2145.26,1330.44 
  2172.48,1299.77 2190.6,1275.51 2199.39,1263.98 2223.13,1228.2 2235.94,1204.69 2243.11,1192.41 2260.88,1156.62 2274.84,1120.84 2281.28,1100.1 2286.59,1085.05 
  2296.49,1049.26 2303.58,1013.48 2308.15,977.691 2310.39,941.905 2310.39,906.118 2308.15,870.332 2303.58,834.546 2296.49,798.759 2286.59,762.973 2281.28,747.923 
  2274.84,727.186 2260.88,691.4 2243.11,655.613 2235.94,643.329 2223.13,619.827 2199.39,584.041 2190.6,572.515 2172.48,548.254 2145.26,517.584 2140.65,512.468 
  2104.45,476.681 2099.92,472.596 2062.39,440.895 2054.58,434.804 2012.32,405.108 2009.25,403.038 1963.91,375.695 1951.37,369.322 1918.57,352.506 1873.23,334.07 
  1871.64,333.536 1827.89,317.899 1782.55,306.043 1737.21,297.978 1735.03,297.749 1691.87,292.536 1646.54,291.123 1601.2,294.139 1581.12,297.749 1555.86,301.753 
  1510.52,314.923 1472.41,333.536 1465.18,336.977 1421.37,369.322 1419.84,370.517 1388.89,405.108 1374.5,424.216 1365.13,440.895 1347.83,476.681 1334.31,512.468 
  1329.17,528.493 1324.01,548.254 1316.11,584.041 1309.85,619.827 1304.88,655.613 1300.94,691.4 1297.85,727.186 1295.45,762.973 1293.65,798.759 1292.36,834.546 
  1291.52,870.332 1291.12,906.118 1291.12,941.905 1291.52,977.691 1292.36,1013.48 1293.65,1049.26 1295.45,1085.05 
  "/>
<polyline clip-path="url(#clip972)" style="stroke:#e35832; stroke-linecap:butt; stroke-linejoin:round; stroke-width:4; stroke-opacity:1; fill:none" points="
  1330.27,1085.05 1335.37,1120.84 1341.94,1156.62 1350.31,1192.41 1360.88,1228.2 1374.2,1263.98 1374.5,1264.72 1392.84,1299.77 1416.48,1335.56 1419.84,1340.16 
  1451.13,1371.34 1465.18,1383.86 1504.06,1407.13 1510.52,1410.89 1555.86,1428.11 1601.2,1437.3 1646.54,1440.61 1691.87,1439.06 1737.21,1433.04 1782.55,1422.5 
  1827.53,1407.13 1827.89,1407.01 1873.23,1387.87 1903.87,1371.34 1918.57,1363.18 1960.03,1335.56 1963.91,1332.8 2004.69,1299.77 2009.25,1295.67 2041.68,1263.98 
  2054.58,1249.39 2072.61,1228.2 2098.03,1192.41 2099.92,1189.31 2120.22,1156.62 2137.83,1120.84 2145.26,1101.93 2152.34,1085.05 2164.07,1049.26 2172.46,1013.48 
  2177.87,977.691 2180.52,941.905 2180.52,906.118 2177.87,870.332 2172.46,834.546 2164.07,798.759 2152.34,762.973 2145.26,746.089 2137.83,727.186 2120.22,691.4 
  2099.92,658.711 2098.03,655.613 2072.61,619.827 2054.58,598.636 2041.68,584.041 2009.25,552.358 2004.69,548.254 1963.91,515.226 1960.03,512.468 1918.57,484.846 
  1903.87,476.681 1873.23,460.151 1827.89,441.016 1827.53,440.895 1782.55,425.525 1737.21,414.98 1691.87,408.962 1646.54,407.413 1601.2,410.721 1555.86,419.916 
  1510.52,437.138 1504.06,440.895 1465.18,464.162 1451.13,476.681 1419.84,507.865 1416.48,512.468 1392.84,548.254 1374.5,583.3 1374.2,584.041 1360.88,619.827 
  1350.31,655.613 1341.94,691.4 1335.37,727.186 1330.27,762.973 1329.17,772.924 1326.6,798.759 1324.02,834.546 1322.35,870.332 1321.53,906.118 1321.53,941.905 
  1322.35,977.691 1324.02,1013.48 1326.6,1049.26 1329.17,1075.1 1330.27,1085.05 
  "/>
<polyline clip-path="url(#clip972)" style="stroke:#f0701e; stroke-linecap:butt; stroke-linejoin:round; stroke-width:4; stroke-opacity:1; fill:none" points="
  1367.23,1085.05 1374.5,1119.25 1374.9,1120.84 1385.87,1156.62 1399.83,1192.41 1417.46,1228.2 1419.84,1232.46 1443.09,1263.98 1465.18,1289.09 1478.63,1299.77 
  1510.52,1322.92 1538.29,1335.56 1555.86,1343.38 1601.2,1354.76 1646.54,1358.86 1691.87,1356.94 1737.21,1349.49 1782.55,1336.44 1784.79,1335.56 1827.89,1318.41 
  1862.98,1299.77 1873.23,1294.03 1916.91,1263.98 1918.57,1262.73 1958.22,1228.2 1963.91,1222.51 1991.47,1192.41 2009.25,1169.07 2018.34,1156.62 2040.21,1120.84 
  2054.58,1090.76 2057.35,1085.05 2071.19,1049.26 2081.1,1013.48 2087.48,977.691 2090.62,941.905 2090.62,906.118 2087.48,870.332 2081.1,834.546 2071.19,798.759 
  2057.35,762.973 2054.58,757.265 2040.21,727.186 2018.34,691.4 2009.25,678.957 1991.47,655.613 1963.91,625.517 1958.22,619.827 1918.57,585.294 1916.91,584.041 
  1873.23,553.992 1862.98,548.254 1827.89,529.609 1784.79,512.468 1782.55,511.587 1737.21,498.532 1691.87,491.082 1646.54,489.164 1601.2,493.259 1555.86,504.643 
  1538.29,512.468 1510.52,525.1 1478.63,548.254 1465.18,558.934 1443.09,584.041 1419.84,615.563 1417.46,619.827 1399.83,655.613 1385.87,691.4 1374.9,727.186 
  1374.5,728.771 1367.23,762.973 1361.47,798.759 1357.35,834.546 1354.69,870.332 1353.39,906.118 1353.39,941.905 1354.69,977.691 1357.35,1013.48 1361.47,1049.26 
  1367.23,1085.05 
  "/>
<polyline clip-path="url(#clip972)" style="stroke:#f98c09; stroke-linecap:butt; stroke-linejoin:round; stroke-width:4; stroke-opacity:1; fill:none" points="
  1407.5,1085.05 1418.83,1120.84 1419.84,1123.51 1435.79,1156.62 1457.6,1192.41 1465.18,1203.04 1490.18,1228.2 1510.52,1246.01 1542.41,1263.98 1555.86,1271.08 
  1601.2,1284.67 1646.54,1289.56 1691.87,1287.27 1737.21,1278.37 1779.25,1263.98 1782.55,1262.81 1827.89,1240.38 1846.9,1228.2 1873.23,1209.52 1893.39,1192.41 
  1918.57,1167.61 1928.51,1156.62 1955.68,1120.84 1963.91,1107.41 1976.96,1085.05 1993.1,1049.26 2004.66,1013.48 2009.25,991.681 2012.27,977.691 2016.11,941.905 
  2016.11,906.118 2012.27,870.332 2009.25,856.343 2004.66,834.546 1993.1,798.759 1976.96,762.973 1963.91,740.615 1955.68,727.186 1928.51,691.4 1918.57,680.412 
  1893.39,655.613 1873.23,638.503 1846.9,619.827 1827.89,607.644 1782.55,585.21 1779.25,584.041 1737.21,569.65 1691.87,560.756 1646.54,558.467 1601.2,563.356 
  1555.86,576.946 1542.41,584.041 1510.52,602.013 1490.18,619.827 1465.18,644.983 1457.6,655.613 1435.79,691.4 1419.84,724.512 1418.83,727.186 1407.5,762.973 
  1398.97,798.759 1392.86,834.546 1388.92,870.332 1386.99,906.118 1386.99,941.905 1388.92,977.691 1392.86,1013.48 1398.97,1049.26 1407.5,1085.05 
  "/>
<polyline clip-path="url(#clip972)" style="stroke:#fbaa0e; stroke-linecap:butt; stroke-linejoin:round; stroke-width:4; stroke-opacity:1; fill:none" points="
  1453.53,1085.05 1465.18,1110.67 1471.37,1120.84 1498.2,1156.62 1510.52,1170.32 1540.6,1192.41 1555.86,1202.34 1601.2,1219.05 1646.54,1225.07 1691.87,1222.25 
  1737.21,1211.31 1781.98,1192.41 1782.55,1192.14 1827.89,1163.01 1835.74,1156.62 1873.09,1120.84 1873.23,1120.67 1899.98,1085.05 1918.57,1052.36 1920.2,1049.26 
  1934.38,1013.48 1943.53,977.691 1948.01,941.905 1948.01,906.118 1943.53,870.332 1934.38,834.546 1920.2,798.759 1918.57,795.662 1899.98,762.973 1873.23,727.351 
  1873.09,727.186 1835.74,691.4 1827.89,685.017 1782.55,655.88 1781.98,655.613 1737.21,636.708 1691.87,625.773 1646.54,622.958 1601.2,628.969 1555.86,645.679 
  1540.6,655.613 1510.52,677.704 1498.2,691.4 1471.37,727.186 1465.18,737.349 1453.53,762.973 1441.03,798.759 1432.09,834.546 1426.32,870.332 1423.49,906.118 
  1423.49,941.905 1426.32,977.691 1432.09,1013.48 1441.03,1049.26 1453.53,1085.05 
  "/>
<polyline clip-path="url(#clip972)" style="stroke:#f8c931; stroke-linecap:butt; stroke-linejoin:round; stroke-width:4; stroke-opacity:1; fill:none" points="
  1492.11,1049.26 1510.52,1084.38 1511.03,1085.05 1545.4,1120.84 1555.86,1129.79 1601.2,1151.98 1627.36,1156.62 1646.54,1159.74 1687.08,1156.62 1691.87,1156.23 
  1737.21,1141.7 1774.76,1120.84 1782.55,1115.73 1816.55,1085.05 1827.89,1072.05 1844.21,1049.26 1862.93,1013.48 1873.23,983.055 1874.87,977.691 1880.37,941.905 
  1880.37,906.118 1874.87,870.332 1873.23,864.969 1862.93,834.546 1844.21,798.759 1827.89,775.975 1816.55,762.973 1782.55,732.294 1774.76,727.186 1737.21,706.32 
  1691.87,691.798 1687.08,691.4 1646.54,688.279 1627.36,691.4 1601.2,696.042 1555.86,718.232 1545.4,727.186 1511.03,762.973 1510.52,763.647 1492.11,798.759 
  1478.66,834.546 1469.99,870.332 1465.75,906.118 1465.75,941.905 1469.99,977.691 1478.66,1013.48 1492.11,1049.26 
  "/>
<polyline clip-path="url(#clip972)" style="stroke:#f1e864; stroke-linecap:butt; stroke-linejoin:round; stroke-width:4; stroke-opacity:1; fill:none" points="
  1542.33,1013.48 1555.86,1036.2 1569.08,1049.26 1601.2,1072.99 1645.91,1085.05 1646.54,1085.19 1647.86,1085.05 1691.87,1079.49 1737.21,1057.25 1746.91,1049.26 
  1779.37,1013.48 1782.55,1008.16 1796.33,977.691 1804.29,941.905 1804.29,906.118 1796.33,870.332 1782.55,839.861 1779.37,834.546 1746.91,798.759 1737.21,790.778 
  1691.87,768.532 1647.86,762.973 1646.54,762.832 1645.91,762.973 1601.2,775.034 1569.08,798.759 1555.86,811.824 1542.33,834.546 1528.39,870.332 1521.55,906.118 
  1521.55,941.905 1528.39,977.691 1542.33,1013.48 
  "/>
<defs>
  <clipPath id="clip973">
    <rect x="2425" y="47" width="82" height="1755"/>
  </clipPath>
</defs>
<polyline clip-path="url(#clip973)" style="stroke:#0a0723; stroke-linecap:butt; stroke-linejoin:round; stroke-width:4; stroke-opacity:1; fill:none" points="
  2425.72,1691.18 2506.36,1691.18 
  "/>
<polyline clip-path="url(#clip973)" style="stroke:#200c4a; stroke-linecap:butt; stroke-linejoin:round; stroke-width:4; stroke-opacity:1; fill:none" points="
  2425.72,1581.59 2506.36,1581.59 
  "/>
<polyline clip-path="url(#clip973)" style="stroke:#3c0965; stroke-linecap:butt; stroke-linejoin:round; stroke-width:4; stroke-opacity:1; fill:none" points="
  2425.72,1471.99 2506.36,1471.99 
  "/>
<polyline clip-path="url(#clip973)" style="stroke:#570f6d; stroke-linecap:butt; stroke-linejoin:round; stroke-width:4; stroke-opacity:1; fill:none" points="
  2425.72,1362.4 2506.36,1362.4 
  "/>
<polyline clip-path="url(#clip973)" style="stroke:#70196e; stroke-linecap:butt; stroke-linejoin:round; stroke-width:4; stroke-opacity:1; fill:none" points="
  2425.72,1252.8 2506.36,1252.8 
  "/>
<polyline clip-path="url(#clip973)" style="stroke:#892269; stroke-linecap:butt; stroke-linejoin:round; stroke-width:4; stroke-opacity:1; fill:none" points="
  2425.72,1143.2 2506.36,1143.2 
  "/>
<polyline clip-path="url(#clip973)" style="stroke:#a32b61; stroke-linecap:butt; stroke-linejoin:round; stroke-width:4; stroke-opacity:1; fill:none" points="
  2425.72,1033.61 2506.36,1033.61 
  "/>
<polyline clip-path="url(#clip973)" style="stroke:#bb3754; stroke-linecap:butt; stroke-linejoin:round; stroke-width:4; stroke-opacity:1; fill:none" points="
  2425.72,924.012 2506.36,924.012 
  "/>
<polyline clip-path="url(#clip973)" style="stroke:#d04544; stroke-linecap:butt; stroke-linejoin:round; stroke-width:4; stroke-opacity:1; fill:none" points="
  2425.72,814.416 2506.36,814.416 
  "/>
<polyline clip-path="url(#clip973)" style="stroke:#e35832; stroke-linecap:butt; stroke-linejoin:round; stroke-width:4; stroke-opacity:1; fill:none" points="
  2425.72,704.82 2506.36,704.82 
  "/>
<polyline clip-path="url(#clip973)" style="stroke:#f0701e; stroke-linecap:butt; stroke-linejoin:round; stroke-width:4; stroke-opacity:1; fill:none" points="
  2425.72,595.224 2506.36,595.224 
  "/>
<polyline clip-path="url(#clip973)" style="stroke:#f98c09; stroke-linecap:butt; stroke-linejoin:round; stroke-width:4; stroke-opacity:1; fill:none" points="
  2425.72,485.628 2506.36,485.628 
  "/>
<polyline clip-path="url(#clip973)" style="stroke:#fbaa0e; stroke-linecap:butt; stroke-linejoin:round; stroke-width:4; stroke-opacity:1; fill:none" points="
  2425.72,376.032 2506.36,376.032 
  "/>
<polyline clip-path="url(#clip973)" style="stroke:#f8c931; stroke-linecap:butt; stroke-linejoin:round; stroke-width:4; stroke-opacity:1; fill:none" points="
  2425.72,266.436 2506.36,266.436 
  "/>
<polyline clip-path="url(#clip973)" style="stroke:#f1e864; stroke-linecap:butt; stroke-linejoin:round; stroke-width:4; stroke-opacity:1; fill:none" points="
  2425.72,156.84 2506.36,156.84 
  "/>
<path clip-path="url(#clip970)" d="M2546.68 1740.21 L2576.35 1740.21 L2576.35 1744.15 L2546.68 1744.15 L2546.68 1740.21 Z" fill="#000000" fill-rule="evenodd" fill-opacity="1" /><path clip-path="url(#clip970)" d="M2596.44 1725.56 Q2592.83 1725.56 2591 1729.12 Q2589.2 1732.66 2589.2 1739.79 Q2589.2 1746.9 2591 1750.46 Q2592.83 1754.01 2596.44 1754.01 Q2600.08 1754.01 2601.88 1750.46 Q2603.71 1746.9 2603.71 1739.79 Q2603.71 1732.66 2601.88 1729.12 Q2600.08 1725.56 2596.44 1725.56 M2596.44 1721.85 Q2602.25 1721.85 2605.31 1726.46 Q2608.39 1731.04 2608.39 1739.79 Q2608.39 1748.52 2605.31 1753.13 Q2602.25 1757.71 2596.44 1757.71 Q2590.63 1757.71 2587.56 1753.13 Q2584.5 1748.52 2584.5 1739.79 Q2584.5 1731.04 2587.56 1726.46 Q2590.63 1721.85 2596.44 1721.85 Z" fill="#000000" fill-rule="evenodd" fill-opacity="1" /><path clip-path="url(#clip970)" d="M2616.61 1751.16 L2621.49 1751.16 L2621.49 1757.04 L2616.61 1757.04 L2616.61 1751.16 Z" fill="#000000" fill-rule="evenodd" fill-opacity="1" /><path clip-path="url(#clip970)" d="M2644.52 1726.55 L2632.72 1745 L2644.52 1745 L2644.52 1726.55 M2643.3 1722.48 L2649.18 1722.48 L2649.18 1745 L2654.11 1745 L2654.11 1748.89 L2649.18 1748.89 L2649.18 1757.04 L2644.52 1757.04 L2644.52 1748.89 L2628.92 1748.89 L2628.92 1744.38 L2643.3 1722.48 Z" fill="#000000" fill-rule="evenodd" fill-opacity="1" /><path clip-path="url(#clip970)" d="M2546.68 1535.37 L2576.35 1535.37 L2576.35 1539.3 L2546.68 1539.3 L2546.68 1535.37 Z" fill="#000000" fill-rule="evenodd" fill-opacity="1" /><path clip-path="url(#clip970)" d="M2596.44 1520.71 Q2592.83 1520.71 2591 1524.28 Q2589.2 1527.82 2589.2 1534.95 Q2589.2 1542.06 2591 1545.62 Q2592.83 1549.16 2596.44 1549.16 Q2600.08 1549.16 2601.88 1545.62 Q2603.71 1542.06 2603.71 1534.95 Q2603.71 1527.82 2601.88 1524.28 Q2600.08 1520.71 2596.44 1520.71 M2596.44 1517.01 Q2602.25 1517.01 2605.31 1521.62 Q2608.39 1526.2 2608.39 1534.95 Q2608.39 1543.68 2605.31 1548.28 Q2602.25 1552.87 2596.44 1552.87 Q2590.63 1552.87 2587.56 1548.28 Q2584.5 1543.68 2584.5 1534.95 Q2584.5 1526.2 2587.56 1521.62 Q2590.63 1517.01 2596.44 1517.01 Z" fill="#000000" fill-rule="evenodd" fill-opacity="1" /><path clip-path="url(#clip970)" d="M2616.61 1546.32 L2621.49 1546.32 L2621.49 1552.19 L2616.61 1552.19 L2616.61 1546.32 Z" fill="#000000" fill-rule="evenodd" fill-opacity="1" /><path clip-path="url(#clip970)" d="M2645.84 1533.56 Q2649.2 1534.28 2651.07 1536.55 Q2652.97 1538.82 2652.97 1542.15 Q2652.97 1547.26 2649.45 1550.07 Q2645.93 1552.87 2639.45 1552.87 Q2637.28 1552.87 2634.96 1552.43 Q2632.67 1552.01 2630.22 1551.15 L2630.22 1546.64 Q2632.16 1547.77 2634.48 1548.35 Q2636.79 1548.93 2639.31 1548.93 Q2643.71 1548.93 2646 1547.19 Q2648.32 1545.46 2648.32 1542.15 Q2648.32 1539.09 2646.17 1537.38 Q2644.04 1535.64 2640.22 1535.64 L2636.19 1535.64 L2636.19 1531.8 L2640.4 1531.8 Q2643.85 1531.8 2645.68 1530.44 Q2647.51 1529.05 2647.51 1526.45 Q2647.51 1523.79 2645.61 1522.38 Q2643.74 1520.95 2640.22 1520.95 Q2638.3 1520.95 2636.1 1521.36 Q2633.9 1521.78 2631.26 1522.66 L2631.26 1518.49 Q2633.92 1517.75 2636.24 1517.38 Q2638.57 1517.01 2640.63 1517.01 Q2645.96 1517.01 2649.06 1519.44 Q2652.16 1521.85 2652.16 1525.97 Q2652.16 1528.84 2650.52 1530.83 Q2648.87 1532.8 2645.84 1533.56 Z" fill="#000000" fill-rule="evenodd" fill-opacity="1" /><path clip-path="url(#clip970)" d="M2546.68 1330.52 L2576.35 1330.52 L2576.35 1334.46 L2546.68 1334.46 L2546.68 1330.52 Z" fill="#000000" fill-rule="evenodd" fill-opacity="1" /><path clip-path="url(#clip970)" d="M2596.44 1315.87 Q2592.83 1315.87 2591 1319.43 Q2589.2 1322.98 2589.2 1330.11 Q2589.2 1337.21 2591 1340.78 Q2592.83 1344.32 2596.44 1344.32 Q2600.08 1344.32 2601.88 1340.78 Q2603.71 1337.21 2603.71 1330.11 Q2603.71 1322.98 2601.88 1319.43 Q2600.08 1315.87 2596.44 1315.87 M2596.44 1312.17 Q2602.25 1312.17 2605.31 1316.77 Q2608.39 1321.36 2608.39 1330.11 Q2608.39 1338.83 2605.31 1343.44 Q2602.25 1348.02 2596.44 1348.02 Q2590.63 1348.02 2587.56 1343.44 Q2584.5 1338.83 2584.5 1330.11 Q2584.5 1321.36 2587.56 1316.77 Q2590.63 1312.17 2596.44 1312.17 Z" fill="#000000" fill-rule="evenodd" fill-opacity="1" /><path clip-path="url(#clip970)" d="M2616.61 1341.47 L2621.49 1341.47 L2621.49 1347.35 L2616.61 1347.35 L2616.61 1341.47 Z" fill="#000000" fill-rule="evenodd" fill-opacity="1" /><path clip-path="url(#clip970)" d="M2635.7 1343.42 L2652.02 1343.42 L2652.02 1347.35 L2630.08 1347.35 L2630.08 1343.42 Q2632.74 1340.66 2637.32 1336.03 Q2641.93 1331.38 2643.11 1330.04 Q2645.36 1327.51 2646.24 1325.78 Q2647.14 1324.02 2647.14 1322.33 Q2647.14 1319.57 2645.19 1317.84 Q2643.27 1316.1 2640.17 1316.1 Q2637.97 1316.1 2635.52 1316.86 Q2633.09 1317.63 2630.31 1319.18 L2630.31 1314.46 Q2633.13 1313.32 2635.59 1312.74 Q2638.04 1312.17 2640.08 1312.17 Q2645.45 1312.17 2648.64 1314.85 Q2651.84 1317.54 2651.84 1322.03 Q2651.84 1324.16 2651.03 1326.08 Q2650.24 1327.98 2648.13 1330.57 Q2647.55 1331.24 2644.45 1334.46 Q2641.35 1337.65 2635.7 1343.42 Z" fill="#000000" fill-rule="evenodd" fill-opacity="1" /><path clip-path="url(#clip970)" d="M2546.68 1125.68 L2576.35 1125.68 L2576.35 1129.61 L2546.68 1129.61 L2546.68 1125.68 Z" fill="#000000" fill-rule="evenodd" fill-opacity="1" /><path clip-path="url(#clip970)" d="M2596.44 1111.03 Q2592.83 1111.03 2591 1114.59 Q2589.2 1118.13 2589.2 1125.26 Q2589.2 1132.37 2591 1135.93 Q2592.83 1139.47 2596.44 1139.47 Q2600.08 1139.47 2601.88 1135.93 Q2603.71 1132.37 2603.71 1125.26 Q2603.71 1118.13 2601.88 1114.59 Q2600.08 1111.03 2596.44 1111.03 M2596.44 1107.32 Q2602.25 1107.32 2605.31 1111.93 Q2608.39 1116.51 2608.39 1125.26 Q2608.39 1133.99 2605.31 1138.59 Q2602.25 1143.18 2596.44 1143.18 Q2590.63 1143.18 2587.56 1138.59 Q2584.5 1133.99 2584.5 1125.26 Q2584.5 1116.51 2587.56 1111.93 Q2590.63 1107.32 2596.44 1107.32 Z" fill="#000000" fill-rule="evenodd" fill-opacity="1" /><path clip-path="url(#clip970)" d="M2616.61 1136.63 L2621.49 1136.63 L2621.49 1142.51 L2616.61 1142.51 L2616.61 1136.63 Z" fill="#000000" fill-rule="evenodd" fill-opacity="1" /><path clip-path="url(#clip970)" d="M2632.49 1138.57 L2640.12 1138.57 L2640.12 1112.21 L2631.81 1113.87 L2631.81 1109.61 L2640.08 1107.95 L2644.75 1107.95 L2644.75 1138.57 L2652.39 1138.57 L2652.39 1142.51 L2632.49 1142.51 L2632.49 1138.57 Z" fill="#000000" fill-rule="evenodd" fill-opacity="1" /><path clip-path="url(#clip970)" d="M2558.62 906.182 Q2555.01 906.182 2553.18 909.746 Q2551.37 913.288 2551.37 920.418 Q2551.37 927.524 2553.18 931.089 Q2555.01 934.631 2558.62 934.631 Q2562.25 934.631 2564.06 931.089 Q2565.89 927.524 2565.89 920.418 Q2565.89 913.288 2564.06 909.746 Q2562.25 906.182 2558.62 906.182 M2558.62 902.478 Q2564.43 902.478 2567.49 907.084 Q2570.56 911.668 2570.56 920.418 Q2570.56 929.144 2567.49 933.751 Q2564.43 938.334 2558.62 938.334 Q2552.81 938.334 2549.73 933.751 Q2546.68 929.144 2546.68 920.418 Q2546.68 911.668 2549.73 907.084 Q2552.81 902.478 2558.62 902.478 Z" fill="#000000" fill-rule="evenodd" fill-opacity="1" /><path clip-path="url(#clip970)" d="M2558.62 701.338 Q2555.01 701.338 2553.18 704.902 Q2551.37 708.444 2551.37 715.574 Q2551.37 722.68 2553.18 726.245 Q2555.01 729.787 2558.62 729.787 Q2562.25 729.787 2564.06 726.245 Q2565.89 722.68 2565.89 715.574 Q2565.89 708.444 2564.06 704.902 Q2562.25 701.338 2558.62 701.338 M2558.62 697.634 Q2564.43 697.634 2567.49 702.24 Q2570.56 706.824 2570.56 715.574 Q2570.56 724.3 2567.49 728.907 Q2564.43 733.49 2558.62 733.49 Q2552.81 733.49 2549.73 728.907 Q2546.68 724.3 2546.68 715.574 Q2546.68 706.824 2549.73 702.24 Q2552.81 697.634 2558.62 697.634 Z" fill="#000000" fill-rule="evenodd" fill-opacity="1" /><path clip-path="url(#clip970)" d="M2578.78 726.939 L2583.67 726.939 L2583.67 732.819 L2578.78 732.819 L2578.78 726.939 Z" fill="#000000" fill-rule="evenodd" fill-opacity="1" /><path clip-path="url(#clip970)" d="M2594.66 728.884 L2602.3 728.884 L2602.3 702.518 L2593.99 704.185 L2593.99 699.926 L2602.25 698.259 L2606.93 698.259 L2606.93 728.884 L2614.57 728.884 L2614.57 732.819 L2594.66 732.819 L2594.66 728.884 Z" fill="#000000" fill-rule="evenodd" fill-opacity="1" /><path clip-path="url(#clip970)" d="M2558.62 496.494 Q2555.01 496.494 2553.18 500.058 Q2551.37 503.6 2551.37 510.73 Q2551.37 517.836 2553.18 521.401 Q2555.01 524.943 2558.62 524.943 Q2562.25 524.943 2564.06 521.401 Q2565.89 517.836 2565.89 510.73 Q2565.89 503.6 2564.06 500.058 Q2562.25 496.494 2558.62 496.494 M2558.62 492.79 Q2564.43 492.79 2567.49 497.396 Q2570.56 501.98 2570.56 510.73 Q2570.56 519.456 2567.49 524.063 Q2564.43 528.646 2558.62 528.646 Q2552.81 528.646 2549.73 524.063 Q2546.68 519.456 2546.68 510.73 Q2546.68 501.98 2549.73 497.396 Q2552.81 492.79 2558.62 492.79 Z" fill="#000000" fill-rule="evenodd" fill-opacity="1" /><path clip-path="url(#clip970)" d="M2578.78 522.095 L2583.67 522.095 L2583.67 527.975 L2578.78 527.975 L2578.78 522.095 Z" fill="#000000" fill-rule="evenodd" fill-opacity="1" /><path clip-path="url(#clip970)" d="M2597.88 524.04 L2614.2 524.04 L2614.2 527.975 L2592.25 527.975 L2592.25 524.04 Q2594.92 521.285 2599.5 516.656 Q2604.11 512.003 2605.29 510.66 Q2607.53 508.137 2608.41 506.401 Q2609.31 504.642 2609.31 502.952 Q2609.31 500.197 2607.37 498.461 Q2605.45 496.725 2602.35 496.725 Q2600.15 496.725 2597.69 497.489 Q2595.26 498.253 2592.49 499.804 L2592.49 495.082 Q2595.31 493.947 2597.76 493.369 Q2600.22 492.79 2602.25 492.79 Q2607.62 492.79 2610.82 495.475 Q2614.01 498.16 2614.01 502.651 Q2614.01 504.781 2613.2 506.702 Q2612.42 508.6 2610.31 511.193 Q2609.73 511.864 2606.63 515.081 Q2603.53 518.276 2597.88 524.04 Z" fill="#000000" fill-rule="evenodd" fill-opacity="1" /><path clip-path="url(#clip970)" d="M2558.62 291.65 Q2555.01 291.65 2553.18 295.214 Q2551.37 298.756 2551.37 305.886 Q2551.37 312.992 2553.18 316.557 Q2555.01 320.099 2558.62 320.099 Q2562.25 320.099 2564.06 316.557 Q2565.89 312.992 2565.89 305.886 Q2565.89 298.756 2564.06 295.214 Q2562.25 291.65 2558.62 291.65 M2558.62 287.946 Q2564.43 287.946 2567.49 292.552 Q2570.56 297.136 2570.56 305.886 Q2570.56 314.612 2567.49 319.219 Q2564.43 323.802 2558.62 323.802 Q2552.81 323.802 2549.73 319.219 Q2546.68 314.612 2546.68 305.886 Q2546.68 297.136 2549.73 292.552 Q2552.81 287.946 2558.62 287.946 Z" fill="#000000" fill-rule="evenodd" fill-opacity="1" /><path clip-path="url(#clip970)" d="M2578.78 317.251 L2583.67 317.251 L2583.67 323.131 L2578.78 323.131 L2578.78 317.251 Z" fill="#000000" fill-rule="evenodd" fill-opacity="1" /><path clip-path="url(#clip970)" d="M2608.02 304.497 Q2611.37 305.214 2613.25 307.483 Q2615.15 309.751 2615.15 313.085 Q2615.15 318.2 2611.63 321.001 Q2608.11 323.802 2601.63 323.802 Q2599.45 323.802 2597.14 323.362 Q2594.85 322.946 2592.39 322.089 L2592.39 317.575 Q2594.34 318.71 2596.65 319.288 Q2598.97 319.867 2601.49 319.867 Q2605.89 319.867 2608.18 318.131 Q2610.5 316.395 2610.5 313.085 Q2610.5 310.029 2608.34 308.316 Q2606.21 306.58 2602.39 306.58 L2598.37 306.58 L2598.37 302.738 L2602.58 302.738 Q2606.03 302.738 2607.86 301.372 Q2609.68 299.983 2609.68 297.39 Q2609.68 294.728 2607.79 293.316 Q2605.91 291.881 2602.39 291.881 Q2600.47 291.881 2598.27 292.298 Q2596.07 292.714 2593.43 293.594 L2593.43 289.427 Q2596.1 288.687 2598.41 288.316 Q2600.75 287.946 2602.81 287.946 Q2608.13 287.946 2611.24 290.376 Q2614.34 292.784 2614.34 296.904 Q2614.34 299.775 2612.69 301.765 Q2611.05 303.733 2608.02 304.497 Z" fill="#000000" fill-rule="evenodd" fill-opacity="1" /><path clip-path="url(#clip970)" d="M2558.62 86.8056 Q2555.01 86.8056 2553.18 90.3704 Q2551.37 93.9121 2551.37 101.042 Q2551.37 108.148 2553.18 111.713 Q2555.01 115.255 2558.62 115.255 Q2562.25 115.255 2564.06 111.713 Q2565.89 108.148 2565.89 101.042 Q2565.89 93.9121 2564.06 90.3704 Q2562.25 86.8056 2558.62 86.8056 M2558.62 83.1019 Q2564.43 83.1019 2567.49 87.7084 Q2570.56 92.2917 2570.56 101.042 Q2570.56 109.768 2567.49 114.375 Q2564.43 118.958 2558.62 118.958 Q2552.81 118.958 2549.73 114.375 Q2546.68 109.768 2546.68 101.042 Q2546.68 92.2917 2549.73 87.7084 Q2552.81 83.1019 2558.62 83.1019 Z" fill="#000000" fill-rule="evenodd" fill-opacity="1" /><path clip-path="url(#clip970)" d="M2578.78 112.407 L2583.67 112.407 L2583.67 118.287 L2578.78 118.287 L2578.78 112.407 Z" fill="#000000" fill-rule="evenodd" fill-opacity="1" /><path clip-path="url(#clip970)" d="M2606.7 87.801 L2594.89 106.25 L2606.7 106.25 L2606.7 87.801 M2605.47 83.7269 L2611.35 83.7269 L2611.35 106.25 L2616.28 106.25 L2616.28 110.139 L2611.35 110.139 L2611.35 118.287 L2606.7 118.287 L2606.7 110.139 L2591.1 110.139 L2591.1 105.625 L2605.47 83.7269 Z" fill="#000000" fill-rule="evenodd" fill-opacity="1" /><polyline clip-path="url(#clip970)" style="stroke:#000000; stroke-linecap:butt; stroke-linejoin:round; stroke-width:4; stroke-opacity:1; fill:none" points="
  2506.36,1800.78 2506.36,1743.39 2533.24,1743.39 2506.36,1743.39 2506.36,1538.54 2533.24,1538.54 2506.36,1538.54 2506.36,1333.7 2533.24,1333.7 2506.36,1333.7 
  2506.36,1128.86 2533.24,1128.86 2506.36,1128.86 2506.36,924.012 2533.24,924.012 2506.36,924.012 2506.36,719.168 2533.24,719.168 2506.36,719.168 2506.36,514.324 
  2533.24,514.324 2506.36,514.324 2506.36,309.48 2533.24,309.48 2506.36,309.48 2506.36,104.636 2533.24,104.636 2506.36,104.636 2506.36,47.2441 
  "/>
</svg>
