<?xml version="1.0" encoding="utf-8"?>
<svg xmlns="http://www.w3.org/2000/svg" xmlns:xlink="http://www.w3.org/1999/xlink" width="672" height="480" viewBox="0 0 2688 1920">
<defs>
  <clipPath id="clip010">
    <rect x="0" y="0" width="2688" height="1920"/>
  </clipPath>
</defs>
<path clip-path="url(#clip010)" d="
M0 1920 L2688 1920 L2688 0 L0 0  Z
  " fill="#ffffff" fill-rule="evenodd" fill-opacity="1"/>
<defs>
  <clipPath id="clip011">
    <rect x="537" y="0" width="1883" height="1883"/>
  </clipPath>
</defs>
<defs>
  <clipPath id="clip012">
    <rect x="115" y="47" width="2527" height="1755"/>
  </clipPath>
</defs>
<path clip-path="url(#clip012)" d="
M1032.16 1189.52 L1032.16 751.14 L1285.27 531.949 L1723.65 658.499 L1723.65 1096.88 L1470.55 1316.07 L1032.16 1189.52  Z
  " fill="#ffffff" fill-rule="evenodd" fill-opacity="1"/>
<polyline clip-path="url(#clip012)" style="stroke:#000000; stroke-linecap:butt; stroke-linejoin:round; stroke-width:2; stroke-opacity:0.1; fill:none" points="
  686.422,1455.04 1192.62,1016.65 
  "/>
<polyline clip-path="url(#clip012)" style="stroke:#000000; stroke-linecap:butt; stroke-linejoin:round; stroke-width:2; stroke-opacity:0.1; fill:none" points="
  1192.62,1016.65 1192.62,139.885 
  "/>
<polyline clip-path="url(#clip012)" style="stroke:#000000; stroke-linecap:butt; stroke-linejoin:round; stroke-width:2; stroke-opacity:0.1; fill:none" points="
  905.614,1518.31 1411.82,1079.93 
  "/>
<polyline clip-path="url(#clip012)" style="stroke:#000000; stroke-linecap:butt; stroke-linejoin:round; stroke-width:2; stroke-opacity:0.1; fill:none" points="
  1411.82,1079.93 1411.82,203.161 
  "/>
<polyline clip-path="url(#clip012)" style="stroke:#000000; stroke-linecap:butt; stroke-linejoin:round; stroke-width:2; stroke-opacity:0.1; fill:none" points="
  1124.81,1581.59 1631.01,1143.2 
  "/>
<polyline clip-path="url(#clip012)" style="stroke:#000000; stroke-linecap:butt; stroke-linejoin:round; stroke-width:2; stroke-opacity:0.1; fill:none" points="
  1631.01,1143.2 1631.01,266.436 
  "/>
<polyline clip-path="url(#clip012)" style="stroke:#000000; stroke-linecap:butt; stroke-linejoin:round; stroke-width:2; stroke-opacity:0.1; fill:none" points="
  1344,1644.86 1850.2,1206.48 
  "/>
<polyline clip-path="url(#clip012)" style="stroke:#000000; stroke-linecap:butt; stroke-linejoin:round; stroke-width:2; stroke-opacity:0.1; fill:none" points="
  1850.2,1206.48 1850.2,329.711 
  "/>
<polyline clip-path="url(#clip012)" style="stroke:#000000; stroke-linecap:butt; stroke-linejoin:round; stroke-width:2; stroke-opacity:0.1; fill:none" points="
  1563.19,1708.14 2069.39,1269.75 
  "/>
<polyline clip-path="url(#clip012)" style="stroke:#000000; stroke-linecap:butt; stroke-linejoin:round; stroke-width:2; stroke-opacity:0.1; fill:none" points="
  2069.39,1269.75 2069.39,392.986 
  "/>
<polyline clip-path="url(#clip010)" style="stroke:#000000; stroke-linecap:butt; stroke-linejoin:round; stroke-width:4; stroke-opacity:1; fill:none" points="
  686.422,1455.04 1563.19,1708.14 
  "/>
<polyline clip-path="url(#clip010)" style="stroke:#000000; stroke-linecap:butt; stroke-linejoin:round; stroke-width:4; stroke-opacity:1; fill:none" points="
  686.422,1455.04 692.496,1449.78 
  "/>
<polyline clip-path="url(#clip010)" style="stroke:#000000; stroke-linecap:butt; stroke-linejoin:round; stroke-width:4; stroke-opacity:1; fill:none" points="
  905.614,1518.31 911.688,1513.05 
  "/>
<polyline clip-path="url(#clip010)" style="stroke:#000000; stroke-linecap:butt; stroke-linejoin:round; stroke-width:4; stroke-opacity:1; fill:none" points="
  1124.81,1581.59 1130.88,1576.33 
  "/>
<polyline clip-path="url(#clip010)" style="stroke:#000000; stroke-linecap:butt; stroke-linejoin:round; stroke-width:4; stroke-opacity:1; fill:none" points="
  1344,1644.86 1350.07,1639.6 
  "/>
<polyline clip-path="url(#clip010)" style="stroke:#000000; stroke-linecap:butt; stroke-linejoin:round; stroke-width:4; stroke-opacity:1; fill:none" points="
  1563.19,1708.14 1569.26,1702.88 
  "/>
<path clip-path="url(#clip010)" d="M617.36 1486.48 L647.036 1486.48 L647.036 1490.41 L617.36 1490.41 L617.36 1486.48 Z" fill="#000000" fill-rule="evenodd" fill-opacity="1" /><path clip-path="url(#clip010)" d="M661.156 1499.37 L677.476 1499.37 L677.476 1503.31 L655.531 1503.31 L655.531 1499.37 Q658.193 1496.62 662.777 1491.99 Q667.383 1487.34 668.564 1485.99 Q670.809 1483.47 671.689 1481.73 Q672.591 1479.97 672.591 1478.28 Q672.591 1475.53 670.647 1473.79 Q668.726 1472.06 665.624 1472.06 Q663.425 1472.06 660.971 1472.82 Q658.54 1473.59 655.763 1475.14 L655.763 1470.41 Q658.587 1469.28 661.04 1468.7 Q663.494 1468.12 665.531 1468.12 Q670.901 1468.12 674.096 1470.81 Q677.29 1473.49 677.29 1477.98 Q677.29 1480.11 676.48 1482.03 Q675.693 1483.93 673.587 1486.53 Q673.008 1487.2 669.906 1490.41 Q666.804 1493.61 661.156 1499.37 Z" fill="#000000" fill-rule="evenodd" fill-opacity="1" /><path clip-path="url(#clip010)" d="M836.182 1549.75 L865.857 1549.75 L865.857 1553.69 L836.182 1553.69 L836.182 1549.75 Z" fill="#000000" fill-rule="evenodd" fill-opacity="1" /><path clip-path="url(#clip010)" d="M876.76 1562.65 L884.399 1562.65 L884.399 1536.28 L876.089 1537.95 L876.089 1533.69 L884.353 1532.02 L889.029 1532.02 L889.029 1562.65 L896.667 1562.65 L896.667 1566.58 L876.76 1566.58 L876.76 1562.65 Z" fill="#000000" fill-rule="evenodd" fill-opacity="1" /><path clip-path="url(#clip010)" d="M1103.91 1598.38 Q1100.3 1598.38 1098.48 1601.94 Q1096.67 1605.48 1096.67 1612.61 Q1096.67 1619.72 1098.48 1623.28 Q1100.3 1626.83 1103.91 1626.83 Q1107.55 1626.83 1109.35 1623.28 Q1111.18 1619.72 1111.18 1612.61 Q1111.18 1605.48 1109.35 1601.94 Q1107.55 1598.38 1103.91 1598.38 M1103.91 1594.67 Q1109.73 1594.67 1112.78 1599.28 Q1115.86 1603.86 1115.86 1612.61 Q1115.86 1621.34 1112.78 1625.95 Q1109.73 1630.53 1103.91 1630.53 Q1098.1 1630.53 1095.03 1625.95 Q1091.97 1621.34 1091.97 1612.61 Q1091.97 1603.86 1095.03 1599.28 Q1098.1 1594.67 1103.91 1594.67 Z" fill="#000000" fill-rule="evenodd" fill-opacity="1" /><path clip-path="url(#clip010)" d="M1315.14 1689.2 L1322.78 1689.2 L1322.78 1662.83 L1314.47 1664.5 L1314.47 1660.24 L1322.74 1658.57 L1327.41 1658.57 L1327.41 1689.2 L1335.05 1689.2 L1335.05 1693.13 L1315.14 1693.13 L1315.14 1689.2 Z" fill="#000000" fill-rule="evenodd" fill-opacity="1" /><path clip-path="url(#clip010)" d="M1537.92 1752.47 L1554.24 1752.47 L1554.24 1756.41 L1532.3 1756.41 L1532.3 1752.47 Q1534.96 1749.72 1539.54 1745.09 Q1544.15 1740.44 1545.33 1739.09 Q1547.58 1736.57 1548.46 1734.83 Q1549.36 1733.08 1549.36 1731.39 Q1549.36 1728.63 1547.41 1726.89 Q1545.49 1725.16 1542.39 1725.16 Q1540.19 1725.16 1537.74 1725.92 Q1535.31 1726.69 1532.53 1728.24 L1532.53 1723.52 Q1535.35 1722.38 1537.81 1721.8 Q1540.26 1721.22 1542.3 1721.22 Q1547.67 1721.22 1550.86 1723.91 Q1554.06 1726.59 1554.06 1731.08 Q1554.06 1733.21 1553.25 1735.14 Q1552.46 1737.03 1550.35 1739.63 Q1549.78 1740.3 1546.67 1743.52 Q1543.57 1746.71 1537.92 1752.47 Z" fill="#000000" fill-rule="evenodd" fill-opacity="1" /><polyline clip-path="url(#clip012)" style="stroke:#000000; stroke-linecap:butt; stroke-linejoin:round; stroke-width:2; stroke-opacity:0.1; fill:none" points="
  1563.19,1708.14 686.422,1455.04 
  "/>
<polyline clip-path="url(#clip012)" style="stroke:#000000; stroke-linecap:butt; stroke-linejoin:round; stroke-width:2; stroke-opacity:0.1; fill:none" points="
  686.422,1455.04 686.422,578.269 
  "/>
<polyline clip-path="url(#clip012)" style="stroke:#000000; stroke-linecap:butt; stroke-linejoin:round; stroke-width:2; stroke-opacity:0.1; fill:none" points="
  1689.74,1598.54 812.972,1345.44 
  "/>
<polyline clip-path="url(#clip012)" style="stroke:#000000; stroke-linecap:butt; stroke-linejoin:round; stroke-width:2; stroke-opacity:0.1; fill:none" points="
  812.972,1345.44 812.972,468.673 
  "/>
<polyline clip-path="url(#clip012)" style="stroke:#000000; stroke-linecap:butt; stroke-linejoin:round; stroke-width:2; stroke-opacity:0.1; fill:none" points="
  1816.29,1488.95 939.523,1235.84 
  "/>
<polyline clip-path="url(#clip012)" style="stroke:#000000; stroke-linecap:butt; stroke-linejoin:round; stroke-width:2; stroke-opacity:0.1; fill:none" points="
  939.523,1235.84 939.523,359.077 
  "/>
<polyline clip-path="url(#clip012)" style="stroke:#000000; stroke-linecap:butt; stroke-linejoin:round; stroke-width:2; stroke-opacity:0.1; fill:none" points="
  1942.84,1379.35 1066.07,1126.25 
  "/>
<polyline clip-path="url(#clip012)" style="stroke:#000000; stroke-linecap:butt; stroke-linejoin:round; stroke-width:2; stroke-opacity:0.1; fill:none" points="
  1066.07,1126.25 1066.07,249.481 
  "/>
<polyline clip-path="url(#clip012)" style="stroke:#000000; stroke-linecap:butt; stroke-linejoin:round; stroke-width:2; stroke-opacity:0.1; fill:none" points="
  2069.39,1269.75 1192.62,1016.65 
  "/>
<polyline clip-path="url(#clip012)" style="stroke:#000000; stroke-linecap:butt; stroke-linejoin:round; stroke-width:2; stroke-opacity:0.1; fill:none" points="
  1192.62,1016.65 1192.62,139.885 
  "/>
<polyline clip-path="url(#clip010)" style="stroke:#000000; stroke-linecap:butt; stroke-linejoin:round; stroke-width:4; stroke-opacity:1; fill:none" points="
  1563.19,1708.14 2069.39,1269.75 
  "/>
<polyline clip-path="url(#clip010)" style="stroke:#000000; stroke-linecap:butt; stroke-linejoin:round; stroke-width:4; stroke-opacity:1; fill:none" points="
  1563.19,1708.14 1552.67,1705.1 
  "/>
<polyline clip-path="url(#clip010)" style="stroke:#000000; stroke-linecap:butt; stroke-linejoin:round; stroke-width:4; stroke-opacity:1; fill:none" points="
  1689.74,1598.54 1679.22,1595.5 
  "/>
<polyline clip-path="url(#clip010)" style="stroke:#000000; stroke-linecap:butt; stroke-linejoin:round; stroke-width:4; stroke-opacity:1; fill:none" points="
  1816.29,1488.95 1805.77,1485.91 
  "/>
<polyline clip-path="url(#clip010)" style="stroke:#000000; stroke-linecap:butt; stroke-linejoin:round; stroke-width:4; stroke-opacity:1; fill:none" points="
  1942.84,1379.35 1932.32,1376.31 
  "/>
<polyline clip-path="url(#clip010)" style="stroke:#000000; stroke-linecap:butt; stroke-linejoin:round; stroke-width:4; stroke-opacity:1; fill:none" points="
  2069.39,1269.75 2058.87,1266.72 
  "/>
<path clip-path="url(#clip010)" d="M1584.31 1732.97 L1613.98 1732.97 L1613.98 1736.91 L1584.31 1736.91 L1584.31 1732.97 Z" fill="#000000" fill-rule="evenodd" fill-opacity="1" /><path clip-path="url(#clip010)" d="M1628.1 1745.87 L1644.42 1745.87 L1644.42 1749.8 L1622.48 1749.8 L1622.48 1745.87 Q1625.14 1743.11 1629.72 1738.48 Q1634.33 1733.83 1635.51 1732.49 Q1637.75 1729.96 1638.63 1728.23 Q1639.54 1726.47 1639.54 1724.78 Q1639.54 1722.02 1637.59 1720.29 Q1635.67 1718.55 1632.57 1718.55 Q1630.37 1718.55 1627.92 1719.32 Q1625.49 1720.08 1622.71 1721.63 L1622.71 1716.91 Q1625.53 1715.77 1627.99 1715.19 Q1630.44 1714.62 1632.48 1714.62 Q1637.85 1714.62 1641.04 1717.3 Q1644.24 1719.99 1644.24 1724.48 Q1644.24 1726.61 1643.43 1728.53 Q1642.64 1730.43 1640.53 1733.02 Q1639.95 1733.69 1636.85 1736.91 Q1633.75 1740.1 1628.1 1745.87 Z" fill="#000000" fill-rule="evenodd" fill-opacity="1" /><path clip-path="url(#clip010)" d="M1710.86 1623.38 L1740.53 1623.38 L1740.53 1627.31 L1710.86 1627.31 L1710.86 1623.38 Z" fill="#000000" fill-rule="evenodd" fill-opacity="1" /><path clip-path="url(#clip010)" d="M1751.43 1636.27 L1759.07 1636.27 L1759.07 1609.9 L1750.76 1611.57 L1750.76 1607.31 L1759.03 1605.65 L1763.7 1605.65 L1763.7 1636.27 L1771.34 1636.27 L1771.34 1640.21 L1751.43 1640.21 L1751.43 1636.27 Z" fill="#000000" fill-rule="evenodd" fill-opacity="1" /><path clip-path="url(#clip010)" d="M1849.35 1499.13 Q1845.74 1499.13 1843.91 1502.69 Q1842.11 1506.23 1842.11 1513.36 Q1842.11 1520.47 1843.91 1524.04 Q1845.74 1527.58 1849.35 1527.58 Q1852.99 1527.58 1854.79 1524.04 Q1856.62 1520.47 1856.62 1513.36 Q1856.62 1506.23 1854.79 1502.69 Q1852.99 1499.13 1849.35 1499.13 M1849.35 1495.42 Q1855.16 1495.42 1858.22 1500.03 Q1861.3 1504.61 1861.3 1513.36 Q1861.3 1522.09 1858.22 1526.7 Q1855.16 1531.28 1849.35 1531.28 Q1843.54 1531.28 1840.46 1526.7 Q1837.41 1522.09 1837.41 1513.36 Q1837.41 1504.61 1840.46 1500.03 Q1843.54 1495.42 1849.35 1495.42 Z" fill="#000000" fill-rule="evenodd" fill-opacity="1" /><path clip-path="url(#clip010)" d="M1964.63 1417.08 L1972.27 1417.08 L1972.27 1390.71 L1963.96 1392.38 L1963.96 1388.12 L1972.22 1386.45 L1976.9 1386.45 L1976.9 1417.08 L1984.54 1417.08 L1984.54 1421.01 L1964.63 1421.01 L1964.63 1417.08 Z" fill="#000000" fill-rule="evenodd" fill-opacity="1" /><path clip-path="url(#clip010)" d="M2096.13 1307.48 L2112.45 1307.48 L2112.45 1311.42 L2090.51 1311.42 L2090.51 1307.48 Q2093.17 1304.73 2097.75 1300.1 Q2102.36 1295.45 2103.54 1294.1 Q2105.79 1291.58 2106.67 1289.84 Q2107.57 1288.08 2107.57 1286.39 Q2107.57 1283.64 2105.62 1281.9 Q2103.7 1280.17 2100.6 1280.17 Q2098.4 1280.17 2095.95 1280.93 Q2093.52 1281.7 2090.74 1283.25 L2090.74 1278.52 Q2093.56 1277.39 2096.02 1276.81 Q2098.47 1276.23 2100.51 1276.23 Q2105.88 1276.23 2109.07 1278.92 Q2112.27 1281.6 2112.27 1286.09 Q2112.27 1288.22 2111.46 1290.14 Q2110.67 1292.04 2108.56 1294.64 Q2107.98 1295.31 2104.88 1298.52 Q2101.78 1301.72 2096.13 1307.48 Z" fill="#000000" fill-rule="evenodd" fill-opacity="1" /><polyline clip-path="url(#clip012)" style="stroke:#000000; stroke-linecap:butt; stroke-linejoin:round; stroke-width:2; stroke-opacity:0.1; fill:none" points="
  686.422,1244.06 1192.62,805.681 
  "/>
<polyline clip-path="url(#clip012)" style="stroke:#000000; stroke-linecap:butt; stroke-linejoin:round; stroke-width:2; stroke-opacity:0.1; fill:none" points="
  1192.62,805.681 2069.39,1058.78 
  "/>
<polyline clip-path="url(#clip012)" style="stroke:#000000; stroke-linecap:butt; stroke-linejoin:round; stroke-width:2; stroke-opacity:0.1; fill:none" points="
  686.422,1022.13 1192.62,583.749 
  "/>
<polyline clip-path="url(#clip012)" style="stroke:#000000; stroke-linecap:butt; stroke-linejoin:round; stroke-width:2; stroke-opacity:0.1; fill:none" points="
  1192.62,583.749 2069.39,836.85 
  "/>
<polyline clip-path="url(#clip012)" style="stroke:#000000; stroke-linecap:butt; stroke-linejoin:round; stroke-width:2; stroke-opacity:0.1; fill:none" points="
  686.422,800.201 1192.62,361.817 
  "/>
<polyline clip-path="url(#clip012)" style="stroke:#000000; stroke-linecap:butt; stroke-linejoin:round; stroke-width:2; stroke-opacity:0.1; fill:none" points="
  1192.62,361.817 2069.39,614.918 
  "/>
<polyline clip-path="url(#clip012)" style="stroke:#000000; stroke-linecap:butt; stroke-linejoin:round; stroke-width:2; stroke-opacity:0.1; fill:none" points="
  686.422,578.269 1192.62,139.885 
  "/>
<polyline clip-path="url(#clip012)" style="stroke:#000000; stroke-linecap:butt; stroke-linejoin:round; stroke-width:2; stroke-opacity:0.1; fill:none" points="
  1192.62,139.885 2069.39,392.986 
  "/>
<polyline clip-path="url(#clip010)" style="stroke:#000000; stroke-linecap:butt; stroke-linejoin:round; stroke-width:4; stroke-opacity:1; fill:none" points="
  686.422,1455.04 686.422,578.269 
  "/>
<polyline clip-path="url(#clip010)" style="stroke:#000000; stroke-linecap:butt; stroke-linejoin:round; stroke-width:4; stroke-opacity:1; fill:none" points="
  686.422,1244.06 692.496,1238.8 
  "/>
<polyline clip-path="url(#clip010)" style="stroke:#000000; stroke-linecap:butt; stroke-linejoin:round; stroke-width:4; stroke-opacity:1; fill:none" points="
  686.422,1022.13 692.496,1016.87 
  "/>
<polyline clip-path="url(#clip010)" style="stroke:#000000; stroke-linecap:butt; stroke-linejoin:round; stroke-width:4; stroke-opacity:1; fill:none" points="
  686.422,800.201 692.496,794.94 
  "/>
<polyline clip-path="url(#clip010)" style="stroke:#000000; stroke-linecap:butt; stroke-linejoin:round; stroke-width:4; stroke-opacity:1; fill:none" points="
  686.422,578.269 692.496,573.009 
  "/>
<path clip-path="url(#clip010)" d="M637.846 1257.41 L654.166 1257.41 L654.166 1261.34 L632.221 1261.34 L632.221 1257.41 Q634.883 1254.65 639.467 1250.03 Q644.073 1245.37 645.254 1244.03 Q647.499 1241.51 648.379 1239.77 Q649.281 1238.01 649.281 1236.32 Q649.281 1233.57 647.337 1231.83 Q645.416 1230.09 642.314 1230.09 Q640.115 1230.09 637.661 1230.86 Q635.231 1231.62 632.453 1233.17 L632.453 1228.45 Q635.277 1227.32 637.731 1226.74 Q640.184 1226.16 642.221 1226.16 Q647.592 1226.16 650.786 1228.84 Q653.981 1231.53 653.981 1236.02 Q653.981 1238.15 653.17 1240.07 Q652.383 1241.97 650.277 1244.56 Q649.698 1245.23 646.596 1248.45 Q643.494 1251.65 637.846 1257.41 Z" fill="#000000" fill-rule="evenodd" fill-opacity="1" /><path clip-path="url(#clip010)" d="M644.582 1008.93 L632.777 1027.38 L644.582 1027.38 L644.582 1008.93 M643.356 1004.85 L649.235 1004.85 L649.235 1027.38 L654.166 1027.38 L654.166 1031.26 L649.235 1031.26 L649.235 1039.41 L644.582 1039.41 L644.582 1031.26 L628.981 1031.26 L628.981 1026.75 L643.356 1004.85 Z" fill="#000000" fill-rule="evenodd" fill-opacity="1" /><path clip-path="url(#clip010)" d="M642.638 798.338 Q639.49 798.338 637.638 800.49 Q635.809 802.643 635.809 806.393 Q635.809 810.12 637.638 812.296 Q639.49 814.449 642.638 814.449 Q645.786 814.449 647.615 812.296 Q649.467 810.12 649.467 806.393 Q649.467 802.643 647.615 800.49 Q645.786 798.338 642.638 798.338 M651.92 783.685 L651.92 787.944 Q650.161 787.111 648.356 786.671 Q646.573 786.231 644.814 786.231 Q640.184 786.231 637.731 789.356 Q635.3 792.481 634.953 798.801 Q636.319 796.787 638.379 795.722 Q640.439 794.634 642.916 794.634 Q648.124 794.634 651.133 797.805 Q654.166 800.953 654.166 806.393 Q654.166 811.717 651.018 814.935 Q647.869 818.152 642.638 818.152 Q636.643 818.152 633.471 813.569 Q630.3 808.963 630.3 800.236 Q630.3 792.041 634.189 787.18 Q638.078 782.296 644.629 782.296 Q646.388 782.296 648.17 782.643 Q649.976 782.991 651.92 783.685 Z" fill="#000000" fill-rule="evenodd" fill-opacity="1" /><path clip-path="url(#clip010)" d="M642.314 579.137 Q638.981 579.137 637.059 580.92 Q635.161 582.702 635.161 585.827 Q635.161 588.952 637.059 590.735 Q638.981 592.517 642.314 592.517 Q645.647 592.517 647.569 590.735 Q649.49 588.929 649.49 585.827 Q649.49 582.702 647.569 580.92 Q645.67 579.137 642.314 579.137 M637.638 577.147 Q634.629 576.406 632.939 574.346 Q631.272 572.286 631.272 569.323 Q631.272 565.179 634.212 562.772 Q637.175 560.364 642.314 560.364 Q647.476 560.364 650.416 562.772 Q653.356 565.179 653.356 569.323 Q653.356 572.286 651.666 574.346 Q649.999 576.406 647.013 577.147 Q650.393 577.934 652.268 580.225 Q654.166 582.517 654.166 585.827 Q654.166 590.85 651.087 593.535 Q648.032 596.221 642.314 596.221 Q636.596 596.221 633.518 593.535 Q630.462 590.85 630.462 585.827 Q630.462 582.517 632.36 580.225 Q634.258 577.934 637.638 577.147 M635.925 569.762 Q635.925 572.448 637.592 573.952 Q639.282 575.457 642.314 575.457 Q645.323 575.457 647.013 573.952 Q648.726 572.448 648.726 569.762 Q648.726 567.077 647.013 565.573 Q645.323 564.068 642.314 564.068 Q639.282 564.068 637.592 565.573 Q635.925 567.077 635.925 569.762 Z" fill="#000000" fill-rule="evenodd" fill-opacity="1" /><path clip-path="url(#clip012)" d="
M1192.62 139.885 L1136.38 363.948 L1233.8 567.424 L1290.04 343.361  Z
  " fill="#ffffff" fill-rule="evenodd" fill-opacity="1"/>
<polyline clip-path="url(#clip012)" style="stroke:#000000; stroke-linecap:butt; stroke-linejoin:round; stroke-width:4; stroke-opacity:1; fill:none" points="
  1192.62,139.885 1136.38,363.948 1233.8,567.424 1290.04,343.361 1192.62,139.885 
  "/>
<path clip-path="url(#clip012)" d="
M1290.04 343.361 L1233.8 567.424 L1331.22 727.062 L1387.46 502.999  Z
  " fill="#ffffff" fill-rule="evenodd" fill-opacity="1"/>
<polyline clip-path="url(#clip012)" style="stroke:#000000; stroke-linecap:butt; stroke-linejoin:round; stroke-width:4; stroke-opacity:1; fill:none" points="
  1290.04,343.361 1233.8,567.424 1331.22,727.062 1387.46,502.999 1290.04,343.361 
  "/>
<path clip-path="url(#clip012)" d="
M1387.46 502.999 L1331.22 727.062 L1428.63 842.861 L1484.88 618.798  Z
  " fill="#ffffff" fill-rule="evenodd" fill-opacity="1"/>
<polyline clip-path="url(#clip012)" style="stroke:#000000; stroke-linecap:butt; stroke-linejoin:round; stroke-width:4; stroke-opacity:1; fill:none" points="
  1387.46,502.999 1331.22,727.062 1428.63,842.861 1484.88,618.798 1387.46,502.999 
  "/>
<path clip-path="url(#clip012)" d="
M1484.88 618.798 L1428.63 842.861 L1526.05 914.821 L1582.3 690.759  Z
  " fill="#ffffff" fill-rule="evenodd" fill-opacity="1"/>
<polyline clip-path="url(#clip012)" style="stroke:#000000; stroke-linecap:butt; stroke-linejoin:round; stroke-width:4; stroke-opacity:1; fill:none" points="
  1484.88,618.798 1428.63,842.861 1526.05,914.821 1582.3,690.759 1484.88,618.798 
  "/>
<path clip-path="url(#clip012)" d="
M1582.3 690.759 L1526.05 914.821 L1623.47 942.944 L1679.72 718.881  Z
  " fill="#ffffff" fill-rule="evenodd" fill-opacity="1"/>
<polyline clip-path="url(#clip012)" style="stroke:#000000; stroke-linecap:butt; stroke-linejoin:round; stroke-width:4; stroke-opacity:1; fill:none" points="
  1582.3,690.759 1526.05,914.821 1623.47,942.944 1679.72,718.881 1582.3,690.759 
  "/>
<path clip-path="url(#clip012)" d="
M1679.72 718.881 L1623.47 942.944 L1720.89 927.228 L1777.14 703.165  Z
  " fill="#ffffff" fill-rule="evenodd" fill-opacity="1"/>
<polyline clip-path="url(#clip012)" style="stroke:#000000; stroke-linecap:butt; stroke-linejoin:round; stroke-width:4; stroke-opacity:1; fill:none" points="
  1679.72,718.881 1623.47,942.944 1720.89,927.228 1777.14,703.165 1679.72,718.881 
  "/>
<path clip-path="url(#clip012)" d="
M1777.14 703.165 L1720.89 927.228 L1818.31 867.673 L1874.55 643.61  Z
  " fill="#ffffff" fill-rule="evenodd" fill-opacity="1"/>
<polyline clip-path="url(#clip012)" style="stroke:#000000; stroke-linecap:butt; stroke-linejoin:round; stroke-width:4; stroke-opacity:1; fill:none" points="
  1777.14,703.165 1720.89,927.228 1818.31,867.673 1874.55,643.61 1777.14,703.165 
  "/>
<path clip-path="url(#clip012)" d="
M1874.55 643.61 L1818.31 867.673 L1915.73 764.281 L1971.97 540.218  Z
  " fill="#ffffff" fill-rule="evenodd" fill-opacity="1"/>
<polyline clip-path="url(#clip012)" style="stroke:#000000; stroke-linecap:butt; stroke-linejoin:round; stroke-width:4; stroke-opacity:1; fill:none" points="
  1874.55,643.61 1818.31,867.673 1915.73,764.281 1971.97,540.218 1874.55,643.61 
  "/>
<path clip-path="url(#clip012)" d="
M1971.97 540.218 L1915.73 764.281 L2013.15 617.049 L2069.39 392.986  Z
  " fill="#ffffff" fill-rule="evenodd" fill-opacity="1"/>
<polyline clip-path="url(#clip012)" style="stroke:#000000; stroke-linecap:butt; stroke-linejoin:round; stroke-width:4; stroke-opacity:1; fill:none" points="
  1971.97,540.218 1915.73,764.281 2013.15,617.049 2069.39,392.986 1971.97,540.218 
  "/>
<path clip-path="url(#clip012)" d="
M1136.38 363.948 L1080.13 544.173 L1177.55 747.649 L1233.8 567.424  Z
  " fill="#ffffff" fill-rule="evenodd" fill-opacity="1"/>
<polyline clip-path="url(#clip012)" style="stroke:#000000; stroke-linecap:butt; stroke-linejoin:round; stroke-width:4; stroke-opacity:1; fill:none" points="
  1136.38,363.948 1080.13,544.173 1177.55,747.649 1233.8,567.424 1136.38,363.948 
  "/>
<path clip-path="url(#clip012)" d="
M1233.8 567.424 L1177.55 747.649 L1274.97 907.286 L1331.22 727.062  Z
  " fill="#ffffff" fill-rule="evenodd" fill-opacity="1"/>
<polyline clip-path="url(#clip012)" style="stroke:#000000; stroke-linecap:butt; stroke-linejoin:round; stroke-width:4; stroke-opacity:1; fill:none" points="
  1233.8,567.424 1177.55,747.649 1274.97,907.286 1331.22,727.062 1233.8,567.424 
  "/>
<path clip-path="url(#clip012)" d="
M1331.22 727.062 L1274.97 907.286 L1372.39 1023.09 L1428.63 842.861  Z
  " fill="#ffffff" fill-rule="evenodd" fill-opacity="1"/>
<polyline clip-path="url(#clip012)" style="stroke:#000000; stroke-linecap:butt; stroke-linejoin:round; stroke-width:4; stroke-opacity:1; fill:none" points="
  1331.22,727.062 1274.97,907.286 1372.39,1023.09 1428.63,842.861 1331.22,727.062 
  "/>
<path clip-path="url(#clip012)" d="
M1428.63 842.861 L1372.39 1023.09 L1469.81 1095.05 L1526.05 914.821  Z
  " fill="#ffffff" fill-rule="evenodd" fill-opacity="1"/>
<polyline clip-path="url(#clip012)" style="stroke:#000000; stroke-linecap:butt; stroke-linejoin:round; stroke-width:4; stroke-opacity:1; fill:none" points="
  1428.63,842.861 1372.39,1023.09 1469.81,1095.05 1526.05,914.821 1428.63,842.861 
  "/>
<path clip-path="url(#clip012)" d="
M1526.05 914.821 L1469.81 1095.05 L1567.23 1123.17 L1623.47 942.944  Z
  " fill="#ffffff" fill-rule="evenodd" fill-opacity="1"/>
<polyline clip-path="url(#clip012)" style="stroke:#000000; stroke-linecap:butt; stroke-linejoin:round; stroke-width:4; stroke-opacity:1; fill:none" points="
  1526.05,914.821 1469.81,1095.05 1567.23,1123.17 1623.47,942.944 1526.05,914.821 
  "/>
<path clip-path="url(#clip012)" d="
M1623.47 942.944 L1567.23 1123.17 L1664.65 1107.45 L1720.89 927.228  Z
  " fill="#ffffff" fill-rule="evenodd" fill-opacity="1"/>
<polyline clip-path="url(#clip012)" style="stroke:#000000; stroke-linecap:butt; stroke-linejoin:round; stroke-width:4; stroke-opacity:1; fill:none" points="
  1623.47,942.944 1567.23,1123.17 1664.65,1107.45 1720.89,927.228 1623.47,942.944 
  "/>
<path clip-path="url(#clip012)" d="
M1720.89 927.228 L1664.65 1107.45 L1762.06 1047.9 L1818.31 867.673  Z
  " fill="#ffffff" fill-rule="evenodd" fill-opacity="1"/>
<polyline clip-path="url(#clip012)" style="stroke:#000000; stroke-linecap:butt; stroke-linejoin:round; stroke-width:4; stroke-opacity:1; fill:none" points="
  1720.89,927.228 1664.65,1107.45 1762.06,1047.9 1818.31,867.673 1720.89,927.228 
  "/>
<path clip-path="url(#clip012)" d="
M1818.31 867.673 L1762.06 1047.9 L1859.48 944.505 L1915.73 764.281  Z
  " fill="#ffffff" fill-rule="evenodd" fill-opacity="1"/>
<polyline clip-path="url(#clip012)" style="stroke:#000000; stroke-linecap:butt; stroke-linejoin:round; stroke-width:4; stroke-opacity:1; fill:none" points="
  1818.31,867.673 1762.06,1047.9 1859.48,944.505 1915.73,764.281 1818.31,867.673 
  "/>
<path clip-path="url(#clip012)" d="
M1915.73 764.281 L1859.48 944.505 L1956.9 797.274 L2013.15 617.049  Z
  " fill="#ffffff" fill-rule="evenodd" fill-opacity="1"/>
<polyline clip-path="url(#clip012)" style="stroke:#000000; stroke-linecap:butt; stroke-linejoin:round; stroke-width:4; stroke-opacity:1; fill:none" points="
  1915.73,764.281 1859.48,944.505 1956.9,797.274 2013.15,617.049 1915.73,764.281 
  "/>
<path clip-path="url(#clip012)" d="
M1080.13 544.173 L1023.89 680.559 L1121.31 884.035 L1177.55 747.649  Z
  " fill="#ffffff" fill-rule="evenodd" fill-opacity="1"/>
<polyline clip-path="url(#clip012)" style="stroke:#000000; stroke-linecap:butt; stroke-linejoin:round; stroke-width:4; stroke-opacity:1; fill:none" points="
  1080.13,544.173 1023.89,680.559 1121.31,884.035 1177.55,747.649 1080.13,544.173 
  "/>
<path clip-path="url(#clip012)" d="
M1177.55 747.649 L1121.31 884.035 L1218.73 1043.67 L1274.97 907.286  Z
  " fill="#ffffff" fill-rule="evenodd" fill-opacity="1"/>
<polyline clip-path="url(#clip012)" style="stroke:#000000; stroke-linecap:butt; stroke-linejoin:round; stroke-width:4; stroke-opacity:1; fill:none" points="
  1177.55,747.649 1121.31,884.035 1218.73,1043.67 1274.97,907.286 1177.55,747.649 
  "/>
<path clip-path="url(#clip012)" d="
M1274.97 907.286 L1218.73 1043.67 L1316.15 1159.47 L1372.39 1023.09  Z
  " fill="#ffffff" fill-rule="evenodd" fill-opacity="1"/>
<polyline clip-path="url(#clip012)" style="stroke:#000000; stroke-linecap:butt; stroke-linejoin:round; stroke-width:4; stroke-opacity:1; fill:none" points="
  1274.97,907.286 1218.73,1043.67 1316.15,1159.47 1372.39,1023.09 1274.97,907.286 
  "/>
<path clip-path="url(#clip012)" d="
M1372.39 1023.09 L1316.15 1159.47 L1413.56 1231.43 L1469.81 1095.05  Z
  " fill="#ffffff" fill-rule="evenodd" fill-opacity="1"/>
<polyline clip-path="url(#clip012)" style="stroke:#000000; stroke-linecap:butt; stroke-linejoin:round; stroke-width:4; stroke-opacity:1; fill:none" points="
  1372.39,1023.09 1316.15,1159.47 1413.56,1231.43 1469.81,1095.05 1372.39,1023.09 
  "/>
<path clip-path="url(#clip012)" d="
M1469.81 1095.05 L1413.56 1231.43 L1510.98 1259.55 L1567.23 1123.17  Z
  " fill="#ffffff" fill-rule="evenodd" fill-opacity="1"/>
<polyline clip-path="url(#clip012)" style="stroke:#000000; stroke-linecap:butt; stroke-linejoin:round; stroke-width:4; stroke-opacity:1; fill:none" points="
  1469.81,1095.05 1413.56,1231.43 1510.98,1259.55 1567.23,1123.17 1469.81,1095.05 
  "/>
<path clip-path="url(#clip012)" d="
M1567.23 1123.17 L1510.98 1259.55 L1608.4 1243.84 L1664.65 1107.45  Z
  " fill="#ffffff" fill-rule="evenodd" fill-opacity="1"/>
<polyline clip-path="url(#clip012)" style="stroke:#000000; stroke-linecap:butt; stroke-linejoin:round; stroke-width:4; stroke-opacity:1; fill:none" points="
  1567.23,1123.17 1510.98,1259.55 1608.4,1243.84 1664.65,1107.45 1567.23,1123.17 
  "/>
<path clip-path="url(#clip012)" d="
M1664.65 1107.45 L1608.4 1243.84 L1705.82 1184.28 L1762.06 1047.9  Z
  " fill="#ffffff" fill-rule="evenodd" fill-opacity="1"/>
<polyline clip-path="url(#clip012)" style="stroke:#000000; stroke-linecap:butt; stroke-linejoin:round; stroke-width:4; stroke-opacity:1; fill:none" points="
  1664.65,1107.45 1608.4,1243.84 1705.82,1184.28 1762.06,1047.9 1664.65,1107.45 
  "/>
<path clip-path="url(#clip012)" d="
M1762.06 1047.9 L1705.82 1184.28 L1803.24 1080.89 L1859.48 944.505  Z
  " fill="#ffffff" fill-rule="evenodd" fill-opacity="1"/>
<polyline clip-path="url(#clip012)" style="stroke:#000000; stroke-linecap:butt; stroke-linejoin:round; stroke-width:4; stroke-opacity:1; fill:none" points="
  1762.06,1047.9 1705.82,1184.28 1803.24,1080.89 1859.48,944.505 1762.06,1047.9 
  "/>
<path clip-path="url(#clip012)" d="
M1859.48 944.505 L1803.24 1080.89 L1900.66 933.66 L1956.9 797.274  Z
  " fill="#ffffff" fill-rule="evenodd" fill-opacity="1"/>
<polyline clip-path="url(#clip012)" style="stroke:#000000; stroke-linecap:butt; stroke-linejoin:round; stroke-width:4; stroke-opacity:1; fill:none" points="
  1859.48,944.505 1803.24,1080.89 1900.66,933.66 1956.9,797.274 1859.48,944.505 
  "/>
<path clip-path="url(#clip012)" d="
M1023.89 680.559 L967.645 773.107 L1065.06 976.582 L1121.31 884.035  Z
  " fill="#ffffff" fill-rule="evenodd" fill-opacity="1"/>
<polyline clip-path="url(#clip012)" style="stroke:#000000; stroke-linecap:butt; stroke-linejoin:round; stroke-width:4; stroke-opacity:1; fill:none" points="
  1023.89,680.559 967.645,773.107 1065.06,976.582 1121.31,884.035 1023.89,680.559 
  "/>
<path clip-path="url(#clip012)" d="
M1121.31 884.035 L1065.06 976.582 L1162.48 1136.22 L1218.73 1043.67  Z
  " fill="#ffffff" fill-rule="evenodd" fill-opacity="1"/>
<polyline clip-path="url(#clip012)" style="stroke:#000000; stroke-linecap:butt; stroke-linejoin:round; stroke-width:4; stroke-opacity:1; fill:none" points="
  1121.31,884.035 1065.06,976.582 1162.48,1136.22 1218.73,1043.67 1121.31,884.035 
  "/>
<path clip-path="url(#clip012)" d="
M1218.73 1043.67 L1162.48 1136.22 L1259.9 1252.02 L1316.15 1159.47  Z
  " fill="#ffffff" fill-rule="evenodd" fill-opacity="1"/>
<polyline clip-path="url(#clip012)" style="stroke:#000000; stroke-linecap:butt; stroke-linejoin:round; stroke-width:4; stroke-opacity:1; fill:none" points="
  1218.73,1043.67 1162.48,1136.22 1259.9,1252.02 1316.15,1159.47 1218.73,1043.67 
  "/>
<path clip-path="url(#clip012)" d="
M1316.15 1159.47 L1259.9 1252.02 L1357.32 1323.98 L1413.56 1231.43  Z
  " fill="#ffffff" fill-rule="evenodd" fill-opacity="1"/>
<polyline clip-path="url(#clip012)" style="stroke:#000000; stroke-linecap:butt; stroke-linejoin:round; stroke-width:4; stroke-opacity:1; fill:none" points="
  1316.15,1159.47 1259.9,1252.02 1357.32,1323.98 1413.56,1231.43 1316.15,1159.47 
  "/>
<path clip-path="url(#clip012)" d="
M1413.56 1231.43 L1357.32 1323.98 L1454.74 1352.1 L1510.98 1259.55  Z
  " fill="#ffffff" fill-rule="evenodd" fill-opacity="1"/>
<polyline clip-path="url(#clip012)" style="stroke:#000000; stroke-linecap:butt; stroke-linejoin:round; stroke-width:4; stroke-opacity:1; fill:none" points="
  1413.56,1231.43 1357.32,1323.98 1454.74,1352.1 1510.98,1259.55 1413.56,1231.43 
  "/>
<path clip-path="url(#clip012)" d="
M1510.98 1259.55 L1454.74 1352.1 L1552.16 1336.39 L1608.4 1243.84  Z
  " fill="#ffffff" fill-rule="evenodd" fill-opacity="1"/>
<polyline clip-path="url(#clip012)" style="stroke:#000000; stroke-linecap:butt; stroke-linejoin:round; stroke-width:4; stroke-opacity:1; fill:none" points="
  1510.98,1259.55 1454.74,1352.1 1552.16,1336.39 1608.4,1243.84 1510.98,1259.55 
  "/>
<path clip-path="url(#clip012)" d="
M1608.4 1243.84 L1552.16 1336.39 L1649.58 1276.83 L1705.82 1184.28  Z
  " fill="#ffffff" fill-rule="evenodd" fill-opacity="1"/>
<polyline clip-path="url(#clip012)" style="stroke:#000000; stroke-linecap:butt; stroke-linejoin:round; stroke-width:4; stroke-opacity:1; fill:none" points="
  1608.4,1243.84 1552.16,1336.39 1649.58,1276.83 1705.82,1184.28 1608.4,1243.84 
  "/>
<path clip-path="url(#clip012)" d="
M1705.82 1184.28 L1649.58 1276.83 L1746.99 1173.44 L1803.24 1080.89  Z
  " fill="#ffffff" fill-rule="evenodd" fill-opacity="1"/>
<polyline clip-path="url(#clip012)" style="stroke:#000000; stroke-linecap:butt; stroke-linejoin:round; stroke-width:4; stroke-opacity:1; fill:none" points="
  1705.82,1184.28 1649.58,1276.83 1746.99,1173.44 1803.24,1080.89 1705.82,1184.28 
  "/>
<path clip-path="url(#clip012)" d="
M1803.24 1080.89 L1746.99 1173.44 L1844.41 1026.21 L1900.66 933.66  Z
  " fill="#ffffff" fill-rule="evenodd" fill-opacity="1"/>
<polyline clip-path="url(#clip012)" style="stroke:#000000; stroke-linecap:butt; stroke-linejoin:round; stroke-width:4; stroke-opacity:1; fill:none" points="
  1803.24,1080.89 1746.99,1173.44 1844.41,1026.21 1900.66,933.66 1803.24,1080.89 
  "/>
<path clip-path="url(#clip012)" d="
M967.645 773.107 L911.4 821.816 L1008.82 1025.29 L1065.06 976.582  Z
  " fill="#ffffff" fill-rule="evenodd" fill-opacity="1"/>
<polyline clip-path="url(#clip012)" style="stroke:#000000; stroke-linecap:butt; stroke-linejoin:round; stroke-width:4; stroke-opacity:1; fill:none" points="
  967.645,773.107 911.4,821.816 1008.82,1025.29 1065.06,976.582 967.645,773.107 
  "/>
<path clip-path="url(#clip012)" d="
M1065.06 976.582 L1008.82 1025.29 L1106.24 1184.93 L1162.48 1136.22  Z
  " fill="#ffffff" fill-rule="evenodd" fill-opacity="1"/>
<polyline clip-path="url(#clip012)" style="stroke:#000000; stroke-linecap:butt; stroke-linejoin:round; stroke-width:4; stroke-opacity:1; fill:none" points="
  1065.06,976.582 1008.82,1025.29 1106.24,1184.93 1162.48,1136.22 1065.06,976.582 
  "/>
<path clip-path="url(#clip012)" d="
M1162.48 1136.22 L1106.24 1184.93 L1203.66 1300.73 L1259.9 1252.02  Z
  " fill="#ffffff" fill-rule="evenodd" fill-opacity="1"/>
<polyline clip-path="url(#clip012)" style="stroke:#000000; stroke-linecap:butt; stroke-linejoin:round; stroke-width:4; stroke-opacity:1; fill:none" points="
  1162.48,1136.22 1106.24,1184.93 1203.66,1300.73 1259.9,1252.02 1162.48,1136.22 
  "/>
<path clip-path="url(#clip012)" d="
M1259.9 1252.02 L1203.66 1300.73 L1301.07 1372.69 L1357.32 1323.98  Z
  " fill="#ffffff" fill-rule="evenodd" fill-opacity="1"/>
<polyline clip-path="url(#clip012)" style="stroke:#000000; stroke-linecap:butt; stroke-linejoin:round; stroke-width:4; stroke-opacity:1; fill:none" points="
  1259.9,1252.02 1203.66,1300.73 1301.07,1372.69 1357.32,1323.98 1259.9,1252.02 
  "/>
<path clip-path="url(#clip012)" d="
M1357.32 1323.98 L1301.07 1372.69 L1398.49 1400.81 L1454.74 1352.1  Z
  " fill="#ffffff" fill-rule="evenodd" fill-opacity="1"/>
<polyline clip-path="url(#clip012)" style="stroke:#000000; stroke-linecap:butt; stroke-linejoin:round; stroke-width:4; stroke-opacity:1; fill:none" points="
  1357.32,1323.98 1301.07,1372.69 1398.49,1400.81 1454.74,1352.1 1357.32,1323.98 
  "/>
<path clip-path="url(#clip012)" d="
M1454.74 1352.1 L1398.49 1400.81 L1495.91 1385.1 L1552.16 1336.39  Z
  " fill="#ffffff" fill-rule="evenodd" fill-opacity="1"/>
<polyline clip-path="url(#clip012)" style="stroke:#000000; stroke-linecap:butt; stroke-linejoin:round; stroke-width:4; stroke-opacity:1; fill:none" points="
  1454.74,1352.1 1398.49,1400.81 1495.91,1385.1 1552.16,1336.39 1454.74,1352.1 
  "/>
<path clip-path="url(#clip012)" d="
M1552.16 1336.39 L1495.91 1385.1 L1593.33 1325.54 L1649.58 1276.83  Z
  " fill="#ffffff" fill-rule="evenodd" fill-opacity="1"/>
<polyline clip-path="url(#clip012)" style="stroke:#000000; stroke-linecap:butt; stroke-linejoin:round; stroke-width:4; stroke-opacity:1; fill:none" points="
  1552.16,1336.39 1495.91,1385.1 1593.33,1325.54 1649.58,1276.83 1552.16,1336.39 
  "/>
<path clip-path="url(#clip012)" d="
M1649.58 1276.83 L1593.33 1325.54 L1690.75 1222.15 L1746.99 1173.44  Z
  " fill="#ffffff" fill-rule="evenodd" fill-opacity="1"/>
<polyline clip-path="url(#clip012)" style="stroke:#000000; stroke-linecap:butt; stroke-linejoin:round; stroke-width:4; stroke-opacity:1; fill:none" points="
  1649.58,1276.83 1593.33,1325.54 1690.75,1222.15 1746.99,1173.44 1649.58,1276.83 
  "/>
<path clip-path="url(#clip012)" d="
M1746.99 1173.44 L1690.75 1222.15 L1788.17 1074.92 L1844.41 1026.21  Z
  " fill="#ffffff" fill-rule="evenodd" fill-opacity="1"/>
<polyline clip-path="url(#clip012)" style="stroke:#000000; stroke-linecap:butt; stroke-linejoin:round; stroke-width:4; stroke-opacity:1; fill:none" points="
  1746.99,1173.44 1690.75,1222.15 1788.17,1074.92 1844.41,1026.21 1746.99,1173.44 
  "/>
<path clip-path="url(#clip012)" d="
M911.4 821.816 L855.156 826.687 L952.574 1030.16 L1008.82 1025.29  Z
  " fill="#ffffff" fill-rule="evenodd" fill-opacity="1"/>
<polyline clip-path="url(#clip012)" style="stroke:#000000; stroke-linecap:butt; stroke-linejoin:round; stroke-width:4; stroke-opacity:1; fill:none" points="
  911.4,821.816 855.156,826.687 952.574,1030.16 1008.82,1025.29 911.4,821.816 
  "/>
<path clip-path="url(#clip012)" d="
M1008.82 1025.29 L952.574 1030.16 L1049.99 1189.8 L1106.24 1184.93  Z
  " fill="#ffffff" fill-rule="evenodd" fill-opacity="1"/>
<polyline clip-path="url(#clip012)" style="stroke:#000000; stroke-linecap:butt; stroke-linejoin:round; stroke-width:4; stroke-opacity:1; fill:none" points="
  1008.82,1025.29 952.574,1030.16 1049.99,1189.8 1106.24,1184.93 1008.82,1025.29 
  "/>
<path clip-path="url(#clip012)" d="
M1106.24 1184.93 L1049.99 1189.8 L1147.41 1305.6 L1203.66 1300.73  Z
  " fill="#ffffff" fill-rule="evenodd" fill-opacity="1"/>
<polyline clip-path="url(#clip012)" style="stroke:#000000; stroke-linecap:butt; stroke-linejoin:round; stroke-width:4; stroke-opacity:1; fill:none" points="
  1106.24,1184.93 1049.99,1189.8 1147.41,1305.6 1203.66,1300.73 1106.24,1184.93 
  "/>
<path clip-path="url(#clip012)" d="
M1203.66 1300.73 L1147.41 1305.6 L1244.83 1377.56 L1301.07 1372.69  Z
  " fill="#ffffff" fill-rule="evenodd" fill-opacity="1"/>
<polyline clip-path="url(#clip012)" style="stroke:#000000; stroke-linecap:butt; stroke-linejoin:round; stroke-width:4; stroke-opacity:1; fill:none" points="
  1203.66,1300.73 1147.41,1305.6 1244.83,1377.56 1301.07,1372.69 1203.66,1300.73 
  "/>
<path clip-path="url(#clip012)" d="
M1301.07 1372.69 L1244.83 1377.56 L1342.25 1405.68 L1398.49 1400.81  Z
  " fill="#ffffff" fill-rule="evenodd" fill-opacity="1"/>
<polyline clip-path="url(#clip012)" style="stroke:#000000; stroke-linecap:butt; stroke-linejoin:round; stroke-width:4; stroke-opacity:1; fill:none" points="
  1301.07,1372.69 1244.83,1377.56 1342.25,1405.68 1398.49,1400.81 1301.07,1372.69 
  "/>
<path clip-path="url(#clip012)" d="
M1398.49 1400.81 L1342.25 1405.68 L1439.67 1389.97 L1495.91 1385.1  Z
  " fill="#ffffff" fill-rule="evenodd" fill-opacity="1"/>
<polyline clip-path="url(#clip012)" style="stroke:#000000; stroke-linecap:butt; stroke-linejoin:round; stroke-width:4; stroke-opacity:1; fill:none" points="
  1398.49,1400.81 1342.25,1405.68 1439.67,1389.97 1495.91,1385.1 1398.49,1400.81 
  "/>
<path clip-path="url(#clip012)" d="
M1495.91 1385.1 L1439.67 1389.97 L1537.09 1330.41 L1593.33 1325.54  Z
  " fill="#ffffff" fill-rule="evenodd" fill-opacity="1"/>
<polyline clip-path="url(#clip012)" style="stroke:#000000; stroke-linecap:butt; stroke-linejoin:round; stroke-width:4; stroke-opacity:1; fill:none" points="
  1495.91,1385.1 1439.67,1389.97 1537.09,1330.41 1593.33,1325.54 1495.91,1385.1 
  "/>
<path clip-path="url(#clip012)" d="
M1593.33 1325.54 L1537.09 1330.41 L1634.5 1227.02 L1690.75 1222.15  Z
  " fill="#ffffff" fill-rule="evenodd" fill-opacity="1"/>
<polyline clip-path="url(#clip012)" style="stroke:#000000; stroke-linecap:butt; stroke-linejoin:round; stroke-width:4; stroke-opacity:1; fill:none" points="
  1593.33,1325.54 1537.09,1330.41 1634.5,1227.02 1690.75,1222.15 1593.33,1325.54 
  "/>
<path clip-path="url(#clip012)" d="
M1690.75 1222.15 L1634.5 1227.02 L1731.92 1079.79 L1788.17 1074.92  Z
  " fill="#ffffff" fill-rule="evenodd" fill-opacity="1"/>
<polyline clip-path="url(#clip012)" style="stroke:#000000; stroke-linecap:butt; stroke-linejoin:round; stroke-width:4; stroke-opacity:1; fill:none" points="
  1690.75,1222.15 1634.5,1227.02 1731.92,1079.79 1788.17,1074.92 1690.75,1222.15 
  "/>
<path clip-path="url(#clip012)" d="
M855.156 826.687 L798.911 787.719 L896.33 991.195 L952.574 1030.16  Z
  " fill="#ffffff" fill-rule="evenodd" fill-opacity="1"/>
<polyline clip-path="url(#clip012)" style="stroke:#000000; stroke-linecap:butt; stroke-linejoin:round; stroke-width:4; stroke-opacity:1; fill:none" points="
  855.156,826.687 798.911,787.719 896.33,991.195 952.574,1030.16 855.156,826.687 
  "/>
<path clip-path="url(#clip012)" d="
M952.574 1030.16 L896.33 991.195 L993.748 1150.83 L1049.99 1189.8  Z
  " fill="#ffffff" fill-rule="evenodd" fill-opacity="1"/>
<polyline clip-path="url(#clip012)" style="stroke:#000000; stroke-linecap:butt; stroke-linejoin:round; stroke-width:4; stroke-opacity:1; fill:none" points="
  952.574,1030.16 896.33,991.195 993.748,1150.83 1049.99,1189.8 952.574,1030.16 
  "/>
<path clip-path="url(#clip012)" d="
M1049.99 1189.8 L993.748 1150.83 L1091.17 1266.63 L1147.41 1305.6  Z
  " fill="#ffffff" fill-rule="evenodd" fill-opacity="1"/>
<polyline clip-path="url(#clip012)" style="stroke:#000000; stroke-linecap:butt; stroke-linejoin:round; stroke-width:4; stroke-opacity:1; fill:none" points="
  1049.99,1189.8 993.748,1150.83 1091.17,1266.63 1147.41,1305.6 1049.99,1189.8 
  "/>
<path clip-path="url(#clip012)" d="
M1147.41 1305.6 L1091.17 1266.63 L1188.59 1338.59 L1244.83 1377.56  Z
  " fill="#ffffff" fill-rule="evenodd" fill-opacity="1"/>
<polyline clip-path="url(#clip012)" style="stroke:#000000; stroke-linecap:butt; stroke-linejoin:round; stroke-width:4; stroke-opacity:1; fill:none" points="
  1147.41,1305.6 1091.17,1266.63 1188.59,1338.59 1244.83,1377.56 1147.41,1305.6 
  "/>
<path clip-path="url(#clip012)" d="
M1244.83 1377.56 L1188.59 1338.59 L1286 1366.71 L1342.25 1405.68  Z
  " fill="#ffffff" fill-rule="evenodd" fill-opacity="1"/>
<polyline clip-path="url(#clip012)" style="stroke:#000000; stroke-linecap:butt; stroke-linejoin:round; stroke-width:4; stroke-opacity:1; fill:none" points="
  1244.83,1377.56 1188.59,1338.59 1286,1366.71 1342.25,1405.68 1244.83,1377.56 
  "/>
<path clip-path="url(#clip012)" d="
M1342.25 1405.68 L1286 1366.71 L1383.42 1351 L1439.67 1389.97  Z
  " fill="#ffffff" fill-rule="evenodd" fill-opacity="1"/>
<polyline clip-path="url(#clip012)" style="stroke:#000000; stroke-linecap:butt; stroke-linejoin:round; stroke-width:4; stroke-opacity:1; fill:none" points="
  1342.25,1405.68 1286,1366.71 1383.42,1351 1439.67,1389.97 1342.25,1405.68 
  "/>
<path clip-path="url(#clip012)" d="
M1439.67 1389.97 L1383.42 1351 L1480.84 1291.44 L1537.09 1330.41  Z
  " fill="#ffffff" fill-rule="evenodd" fill-opacity="1"/>
<polyline clip-path="url(#clip012)" style="stroke:#000000; stroke-linecap:butt; stroke-linejoin:round; stroke-width:4; stroke-opacity:1; fill:none" points="
  1439.67,1389.97 1383.42,1351 1480.84,1291.44 1537.09,1330.41 1439.67,1389.97 
  "/>
<path clip-path="url(#clip012)" d="
M1537.09 1330.41 L1480.84 1291.44 L1578.26 1188.05 L1634.5 1227.02  Z
  " fill="#ffffff" fill-rule="evenodd" fill-opacity="1"/>
<polyline clip-path="url(#clip012)" style="stroke:#000000; stroke-linecap:butt; stroke-linejoin:round; stroke-width:4; stroke-opacity:1; fill:none" points="
  1537.09,1330.41 1480.84,1291.44 1578.26,1188.05 1634.5,1227.02 1537.09,1330.41 
  "/>
<path clip-path="url(#clip012)" d="
M1634.5 1227.02 L1578.26 1188.05 L1675.68 1040.82 L1731.92 1079.79  Z
  " fill="#ffffff" fill-rule="evenodd" fill-opacity="1"/>
<polyline clip-path="url(#clip012)" style="stroke:#000000; stroke-linecap:butt; stroke-linejoin:round; stroke-width:4; stroke-opacity:1; fill:none" points="
  1634.5,1227.02 1578.26,1188.05 1675.68,1040.82 1731.92,1079.79 1634.5,1227.02 
  "/>
<path clip-path="url(#clip012)" d="
M798.911 787.719 L742.666 704.914 L840.085 908.389 L896.33 991.195  Z
  " fill="#ffffff" fill-rule="evenodd" fill-opacity="1"/>
<polyline clip-path="url(#clip012)" style="stroke:#000000; stroke-linecap:butt; stroke-linejoin:round; stroke-width:4; stroke-opacity:1; fill:none" points="
  798.911,787.719 742.666,704.914 840.085,908.389 896.33,991.195 798.911,787.719 
  "/>
<path clip-path="url(#clip012)" d="
M896.33 991.195 L840.085 908.389 L937.504 1068.03 L993.748 1150.83  Z
  " fill="#ffffff" fill-rule="evenodd" fill-opacity="1"/>
<polyline clip-path="url(#clip012)" style="stroke:#000000; stroke-linecap:butt; stroke-linejoin:round; stroke-width:4; stroke-opacity:1; fill:none" points="
  896.33,991.195 840.085,908.389 937.504,1068.03 993.748,1150.83 896.33,991.195 
  "/>
<path clip-path="url(#clip012)" d="
M993.748 1150.83 L937.504 1068.03 L1034.92 1183.83 L1091.17 1266.63  Z
  " fill="#ffffff" fill-rule="evenodd" fill-opacity="1"/>
<polyline clip-path="url(#clip012)" style="stroke:#000000; stroke-linecap:butt; stroke-linejoin:round; stroke-width:4; stroke-opacity:1; fill:none" points="
  993.748,1150.83 937.504,1068.03 1034.92,1183.83 1091.17,1266.63 993.748,1150.83 
  "/>
<path clip-path="url(#clip012)" d="
M1091.17 1266.63 L1034.92 1183.83 L1132.34 1255.79 L1188.59 1338.59  Z
  " fill="#ffffff" fill-rule="evenodd" fill-opacity="1"/>
<polyline clip-path="url(#clip012)" style="stroke:#000000; stroke-linecap:butt; stroke-linejoin:round; stroke-width:4; stroke-opacity:1; fill:none" points="
  1091.17,1266.63 1034.92,1183.83 1132.34,1255.79 1188.59,1338.59 1091.17,1266.63 
  "/>
<path clip-path="url(#clip012)" d="
M1188.59 1338.59 L1132.34 1255.79 L1229.76 1283.91 L1286 1366.71  Z
  " fill="#ffffff" fill-rule="evenodd" fill-opacity="1"/>
<polyline clip-path="url(#clip012)" style="stroke:#000000; stroke-linecap:butt; stroke-linejoin:round; stroke-width:4; stroke-opacity:1; fill:none" points="
  1188.59,1338.59 1132.34,1255.79 1229.76,1283.91 1286,1366.71 1188.59,1338.59 
  "/>
<path clip-path="url(#clip012)" d="
M1286 1366.71 L1229.76 1283.91 L1327.18 1268.19 L1383.42 1351  Z
  " fill="#ffffff" fill-rule="evenodd" fill-opacity="1"/>
<polyline clip-path="url(#clip012)" style="stroke:#000000; stroke-linecap:butt; stroke-linejoin:round; stroke-width:4; stroke-opacity:1; fill:none" points="
  1286,1366.71 1229.76,1283.91 1327.18,1268.19 1383.42,1351 1286,1366.71 
  "/>
<path clip-path="url(#clip012)" d="
M1383.42 1351 L1327.18 1268.19 L1424.6 1208.64 L1480.84 1291.44  Z
  " fill="#ffffff" fill-rule="evenodd" fill-opacity="1"/>
<polyline clip-path="url(#clip012)" style="stroke:#000000; stroke-linecap:butt; stroke-linejoin:round; stroke-width:4; stroke-opacity:1; fill:none" points="
  1383.42,1351 1327.18,1268.19 1424.6,1208.64 1480.84,1291.44 1383.42,1351 
  "/>
<path clip-path="url(#clip012)" d="
M1480.84 1291.44 L1424.6 1208.64 L1522.02 1105.25 L1578.26 1188.05  Z
  " fill="#ffffff" fill-rule="evenodd" fill-opacity="1"/>
<polyline clip-path="url(#clip012)" style="stroke:#000000; stroke-linecap:butt; stroke-linejoin:round; stroke-width:4; stroke-opacity:1; fill:none" points="
  1480.84,1291.44 1424.6,1208.64 1522.02,1105.25 1578.26,1188.05 1480.84,1291.44 
  "/>
<path clip-path="url(#clip012)" d="
M1578.26 1188.05 L1522.02 1105.25 L1619.43 958.015 L1675.68 1040.82  Z
  " fill="#ffffff" fill-rule="evenodd" fill-opacity="1"/>
<polyline clip-path="url(#clip012)" style="stroke:#000000; stroke-linecap:butt; stroke-linejoin:round; stroke-width:4; stroke-opacity:1; fill:none" points="
  1578.26,1188.05 1522.02,1105.25 1619.43,958.015 1675.68,1040.82 1578.26,1188.05 
  "/>
<path clip-path="url(#clip012)" d="
M742.666 704.914 L686.422 578.269 L783.84 781.745 L840.085 908.389  Z
  " fill="#ffffff" fill-rule="evenodd" fill-opacity="1"/>
<polyline clip-path="url(#clip012)" style="stroke:#000000; stroke-linecap:butt; stroke-linejoin:round; stroke-width:4; stroke-opacity:1; fill:none" points="
  742.666,704.914 686.422,578.269 783.84,781.745 840.085,908.389 742.666,704.914 
  "/>
<path clip-path="url(#clip012)" d="
M840.085 908.389 L783.84 781.745 L881.259 941.383 L937.504 1068.03  Z
  " fill="#ffffff" fill-rule="evenodd" fill-opacity="1"/>
<polyline clip-path="url(#clip012)" style="stroke:#000000; stroke-linecap:butt; stroke-linejoin:round; stroke-width:4; stroke-opacity:1; fill:none" points="
  840.085,908.389 783.84,781.745 881.259,941.383 937.504,1068.03 840.085,908.389 
  "/>
<path clip-path="url(#clip012)" d="
M937.504 1068.03 L881.259 941.383 L978.678 1057.18 L1034.92 1183.83  Z
  " fill="#ffffff" fill-rule="evenodd" fill-opacity="1"/>
<polyline clip-path="url(#clip012)" style="stroke:#000000; stroke-linecap:butt; stroke-linejoin:round; stroke-width:4; stroke-opacity:1; fill:none" points="
  937.504,1068.03 881.259,941.383 978.678,1057.18 1034.92,1183.83 937.504,1068.03 
  "/>
<path clip-path="url(#clip012)" d="
M1034.92 1183.83 L978.678 1057.18 L1076.1 1129.14 L1132.34 1255.79  Z
  " fill="#ffffff" fill-rule="evenodd" fill-opacity="1"/>
<polyline clip-path="url(#clip012)" style="stroke:#000000; stroke-linecap:butt; stroke-linejoin:round; stroke-width:4; stroke-opacity:1; fill:none" points="
  1034.92,1183.83 978.678,1057.18 1076.1,1129.14 1132.34,1255.79 1034.92,1183.83 
  "/>
<path clip-path="url(#clip012)" d="
M1132.34 1255.79 L1076.1 1129.14 L1173.51 1157.26 L1229.76 1283.91  Z
  " fill="#ffffff" fill-rule="evenodd" fill-opacity="1"/>
<polyline clip-path="url(#clip012)" style="stroke:#000000; stroke-linecap:butt; stroke-linejoin:round; stroke-width:4; stroke-opacity:1; fill:none" points="
  1132.34,1255.79 1076.1,1129.14 1173.51,1157.26 1229.76,1283.91 1132.34,1255.79 
  "/>
<path clip-path="url(#clip012)" d="
M1229.76 1283.91 L1173.51 1157.26 L1270.93 1141.55 L1327.18 1268.19  Z
  " fill="#ffffff" fill-rule="evenodd" fill-opacity="1"/>
<polyline clip-path="url(#clip012)" style="stroke:#000000; stroke-linecap:butt; stroke-linejoin:round; stroke-width:4; stroke-opacity:1; fill:none" points="
  1229.76,1283.91 1173.51,1157.26 1270.93,1141.55 1327.18,1268.19 1229.76,1283.91 
  "/>
<path clip-path="url(#clip012)" d="
M1327.18 1268.19 L1270.93 1141.55 L1368.35 1081.99 L1424.6 1208.64  Z
  " fill="#ffffff" fill-rule="evenodd" fill-opacity="1"/>
<polyline clip-path="url(#clip012)" style="stroke:#000000; stroke-linecap:butt; stroke-linejoin:round; stroke-width:4; stroke-opacity:1; fill:none" points="
  1327.18,1268.19 1270.93,1141.55 1368.35,1081.99 1424.6,1208.64 1327.18,1268.19 
  "/>
<path clip-path="url(#clip012)" d="
M1424.6 1208.64 L1368.35 1081.99 L1465.77 978.601 L1522.02 1105.25  Z
  " fill="#ffffff" fill-rule="evenodd" fill-opacity="1"/>
<polyline clip-path="url(#clip012)" style="stroke:#000000; stroke-linecap:butt; stroke-linejoin:round; stroke-width:4; stroke-opacity:1; fill:none" points="
  1424.6,1208.64 1368.35,1081.99 1465.77,978.601 1522.02,1105.25 1424.6,1208.64 
  "/>
<path clip-path="url(#clip012)" d="
M1522.02 1105.25 L1465.77 978.601 L1563.19 831.37 L1619.43 958.015  Z
  " fill="#ffffff" fill-rule="evenodd" fill-opacity="1"/>
<polyline clip-path="url(#clip012)" style="stroke:#000000; stroke-linecap:butt; stroke-linejoin:round; stroke-width:4; stroke-opacity:1; fill:none" points="
  1522.02,1105.25 1465.77,978.601 1563.19,831.37 1619.43,958.015 1522.02,1105.25 
  "/>
</svg>
