<?xml version="1.0" encoding="utf-8"?>
<svg xmlns="http://www.w3.org/2000/svg" xmlns:xlink="http://www.w3.org/1999/xlink" width="672" height="480" viewBox="0 0 2688 1920">
<defs>
  <clipPath id="clip040">
    <rect x="0" y="0" width="2688" height="1920"/>
  </clipPath>
</defs>
<path clip-path="url(#clip040)" d="
M0 1920 L2688 1920 L2688 0 L0 0  Z
  " fill="#ffffff" fill-rule="evenodd" fill-opacity="1"/>
<defs>
  <clipPath id="clip041">
    <rect x="537" y="0" width="1883" height="1883"/>
  </clipPath>
</defs>
<defs>
  <clipPath id="clip042">
    <rect x="189" y="47" width="2453" height="1755"/>
  </clipPath>
</defs>
<path clip-path="url(#clip042)" d="
M-393.805 3210.35 L-393.805 1142.51 L83.7439 108.582 L910.883 705.518 L910.883 2773.37 L433.334 3807.29 L-393.805 3210.35  Z
  " fill="#ffffff" fill-rule="evenodd" fill-opacity="1"/>
<polyline clip-path="url(#clip042)" style="stroke:#000000; stroke-linecap:butt; stroke-linejoin:round; stroke-width:2; stroke-opacity:0.1; fill:none" points="
  748.284,1462.2 1254.49,1023.82 
  "/>
<polyline clip-path="url(#clip042)" style="stroke:#000000; stroke-linecap:butt; stroke-linejoin:round; stroke-width:2; stroke-opacity:0.1; fill:none" points="
  1254.49,1023.82 1254.49,147.049 
  "/>
<polyline clip-path="url(#clip042)" style="stroke:#000000; stroke-linecap:butt; stroke-linejoin:round; stroke-width:2; stroke-opacity:0.1; fill:none" points="
  955.069,1521.89 1461.27,1083.51 
  "/>
<polyline clip-path="url(#clip042)" style="stroke:#000000; stroke-linecap:butt; stroke-linejoin:round; stroke-width:2; stroke-opacity:0.1; fill:none" points="
  1461.27,1083.51 1461.27,206.742 
  "/>
<polyline clip-path="url(#clip042)" style="stroke:#000000; stroke-linecap:butt; stroke-linejoin:round; stroke-width:2; stroke-opacity:0.1; fill:none" points="
  1161.85,1581.59 1668.06,1143.2 
  "/>
<polyline clip-path="url(#clip042)" style="stroke:#000000; stroke-linecap:butt; stroke-linejoin:round; stroke-width:2; stroke-opacity:0.1; fill:none" points="
  1668.06,1143.2 1668.06,266.436 
  "/>
<polyline clip-path="url(#clip042)" style="stroke:#000000; stroke-linecap:butt; stroke-linejoin:round; stroke-width:2; stroke-opacity:0.1; fill:none" points="
  1368.64,1641.28 1874.84,1202.9 
  "/>
<polyline clip-path="url(#clip042)" style="stroke:#000000; stroke-linecap:butt; stroke-linejoin:round; stroke-width:2; stroke-opacity:0.1; fill:none" points="
  1874.84,1202.9 1874.84,326.13 
  "/>
<polyline clip-path="url(#clip042)" style="stroke:#000000; stroke-linecap:butt; stroke-linejoin:round; stroke-width:2; stroke-opacity:0.1; fill:none" points="
  1575.42,1700.97 2081.63,1262.59 
  "/>
<polyline clip-path="url(#clip042)" style="stroke:#000000; stroke-linecap:butt; stroke-linejoin:round; stroke-width:2; stroke-opacity:0.1; fill:none" points="
  2081.63,1262.59 2081.63,385.823 
  "/>
<polyline clip-path="url(#clip040)" style="stroke:#000000; stroke-linecap:butt; stroke-linejoin:round; stroke-width:4; stroke-opacity:1; fill:none" points="
  723.47,1455.04 1600.24,1708.14 
  "/>
<polyline clip-path="url(#clip040)" style="stroke:#000000; stroke-linecap:butt; stroke-linejoin:round; stroke-width:4; stroke-opacity:1; fill:none" points="
  748.284,1462.2 754.359,1456.94 
  "/>
<polyline clip-path="url(#clip040)" style="stroke:#000000; stroke-linecap:butt; stroke-linejoin:round; stroke-width:4; stroke-opacity:1; fill:none" points="
  955.069,1521.89 961.144,1516.63 
  "/>
<polyline clip-path="url(#clip040)" style="stroke:#000000; stroke-linecap:butt; stroke-linejoin:round; stroke-width:4; stroke-opacity:1; fill:none" points="
  1161.85,1581.59 1167.93,1576.33 
  "/>
<polyline clip-path="url(#clip040)" style="stroke:#000000; stroke-linecap:butt; stroke-linejoin:round; stroke-width:4; stroke-opacity:1; fill:none" points="
  1368.64,1641.28 1374.71,1636.02 
  "/>
<polyline clip-path="url(#clip040)" style="stroke:#000000; stroke-linecap:butt; stroke-linejoin:round; stroke-width:4; stroke-opacity:1; fill:none" points="
  1575.42,1700.97 1581.5,1695.71 
  "/>
<path clip-path="url(#clip040)" d="M672.232 1474.15 Q668.621 1474.15 666.793 1477.72 Q664.987 1481.26 664.987 1488.39 Q664.987 1495.5 666.793 1499.06 Q668.621 1502.6 672.232 1502.6 Q675.867 1502.6 677.672 1499.06 Q679.501 1495.5 679.501 1488.39 Q679.501 1481.26 677.672 1477.72 Q675.867 1474.15 672.232 1474.15 M672.232 1470.45 Q678.042 1470.45 681.098 1475.06 Q684.177 1479.64 684.177 1488.39 Q684.177 1497.12 681.098 1501.72 Q678.042 1506.31 672.232 1506.31 Q666.422 1506.31 663.343 1501.72 Q660.288 1497.12 660.288 1488.39 Q660.288 1479.64 663.343 1475.06 Q666.422 1470.45 672.232 1470.45 Z" fill="#000000" fill-rule="evenodd" fill-opacity="1" /><path clip-path="url(#clip040)" d="M692.394 1499.76 L697.278 1499.76 L697.278 1505.64 L692.394 1505.64 L692.394 1499.76 Z" fill="#000000" fill-rule="evenodd" fill-opacity="1" /><path clip-path="url(#clip040)" d="M717.464 1474.15 Q713.852 1474.15 712.024 1477.72 Q710.218 1481.26 710.218 1488.39 Q710.218 1495.5 712.024 1499.06 Q713.852 1502.6 717.464 1502.6 Q721.098 1502.6 722.903 1499.06 Q724.732 1495.5 724.732 1488.39 Q724.732 1481.26 722.903 1477.72 Q721.098 1474.15 717.464 1474.15 M717.464 1470.45 Q723.274 1470.45 726.329 1475.06 Q729.408 1479.64 729.408 1488.39 Q729.408 1497.12 726.329 1501.72 Q723.274 1506.31 717.464 1506.31 Q711.653 1506.31 708.575 1501.72 Q705.519 1497.12 705.519 1488.39 Q705.519 1479.64 708.575 1475.06 Q711.653 1470.45 717.464 1470.45 Z" fill="#000000" fill-rule="evenodd" fill-opacity="1" /><path clip-path="url(#clip040)" d="M880.012 1533.85 Q876.401 1533.85 874.573 1537.41 Q872.767 1540.95 872.767 1548.08 Q872.767 1555.19 874.573 1558.76 Q876.401 1562.3 880.012 1562.3 Q883.647 1562.3 885.452 1558.76 Q887.281 1555.19 887.281 1548.08 Q887.281 1540.95 885.452 1537.41 Q883.647 1533.85 880.012 1533.85 M880.012 1530.14 Q885.823 1530.14 888.878 1534.75 Q891.957 1539.33 891.957 1548.08 Q891.957 1556.81 888.878 1561.42 Q885.823 1566 880.012 1566 Q874.202 1566 871.124 1561.42 Q868.068 1556.81 868.068 1548.08 Q868.068 1539.33 871.124 1534.75 Q874.202 1530.14 880.012 1530.14 Z" fill="#000000" fill-rule="evenodd" fill-opacity="1" /><path clip-path="url(#clip040)" d="M900.174 1559.45 L905.059 1559.45 L905.059 1565.33 L900.174 1565.33 L900.174 1559.45 Z" fill="#000000" fill-rule="evenodd" fill-opacity="1" /><path clip-path="url(#clip040)" d="M915.29 1530.77 L933.646 1530.77 L933.646 1534.7 L919.572 1534.7 L919.572 1543.18 Q920.591 1542.83 921.609 1542.67 Q922.628 1542.48 923.647 1542.48 Q929.434 1542.48 932.813 1545.65 Q936.193 1548.83 936.193 1554.24 Q936.193 1559.82 932.721 1562.92 Q929.248 1566 922.929 1566 Q920.753 1566 918.485 1565.63 Q916.239 1565.26 913.832 1564.52 L913.832 1559.82 Q915.915 1560.95 918.137 1561.51 Q920.359 1562.07 922.836 1562.07 Q926.841 1562.07 929.179 1559.96 Q931.517 1557.85 931.517 1554.24 Q931.517 1550.63 929.179 1548.52 Q926.841 1546.42 922.836 1546.42 Q920.961 1546.42 919.086 1546.83 Q917.235 1547.25 915.29 1548.13 L915.29 1530.77 Z" fill="#000000" fill-rule="evenodd" fill-opacity="1" /><path clip-path="url(#clip040)" d="M1076.61 1621.09 L1084.25 1621.09 L1084.25 1594.72 L1075.94 1596.39 L1075.94 1592.13 L1084.2 1590.46 L1088.88 1590.46 L1088.88 1621.09 L1096.52 1621.09 L1096.52 1625.02 L1076.61 1625.02 L1076.61 1621.09 Z" fill="#000000" fill-rule="evenodd" fill-opacity="1" /><path clip-path="url(#clip040)" d="M1105.96 1619.14 L1110.85 1619.14 L1110.85 1625.02 L1105.96 1625.02 L1105.96 1619.14 Z" fill="#000000" fill-rule="evenodd" fill-opacity="1" /><path clip-path="url(#clip040)" d="M1131.03 1593.54 Q1127.42 1593.54 1125.59 1597.11 Q1123.79 1600.65 1123.79 1607.78 Q1123.79 1614.88 1125.59 1618.45 Q1127.42 1621.99 1131.03 1621.99 Q1134.67 1621.99 1136.47 1618.45 Q1138.3 1614.88 1138.3 1607.78 Q1138.3 1600.65 1136.47 1597.11 Q1134.67 1593.54 1131.03 1593.54 M1131.03 1589.84 Q1136.84 1589.84 1139.9 1594.44 Q1142.98 1599.03 1142.98 1607.78 Q1142.98 1616.5 1139.9 1621.11 Q1136.84 1625.69 1131.03 1625.69 Q1125.22 1625.69 1122.14 1621.11 Q1119.09 1616.5 1119.09 1607.78 Q1119.09 1599.03 1122.14 1594.44 Q1125.22 1589.84 1131.03 1589.84 Z" fill="#000000" fill-rule="evenodd" fill-opacity="1" /><path clip-path="url(#clip040)" d="M1284.39 1680.78 L1292.03 1680.78 L1292.03 1654.42 L1283.72 1656.08 L1283.72 1651.82 L1291.98 1650.16 L1296.66 1650.16 L1296.66 1680.78 L1304.3 1680.78 L1304.3 1684.72 L1284.39 1684.72 L1284.39 1680.78 Z" fill="#000000" fill-rule="evenodd" fill-opacity="1" /><path clip-path="url(#clip040)" d="M1313.74 1678.84 L1318.63 1678.84 L1318.63 1684.72 L1313.74 1684.72 L1313.74 1678.84 Z" fill="#000000" fill-rule="evenodd" fill-opacity="1" /><path clip-path="url(#clip040)" d="M1328.86 1650.16 L1347.22 1650.16 L1347.22 1654.09 L1333.14 1654.09 L1333.14 1662.56 Q1334.16 1662.22 1335.18 1662.06 Q1336.2 1661.87 1337.22 1661.87 Q1343 1661.87 1346.38 1665.04 Q1349.76 1668.21 1349.76 1673.63 Q1349.76 1679.21 1346.29 1682.31 Q1342.82 1685.39 1336.5 1685.39 Q1334.32 1685.39 1332.05 1685.02 Q1329.81 1684.65 1327.4 1683.91 L1327.4 1679.21 Q1329.48 1680.34 1331.71 1680.9 Q1333.93 1681.45 1336.41 1681.45 Q1340.41 1681.45 1342.75 1679.35 Q1345.09 1677.24 1345.09 1673.63 Q1345.09 1670.02 1342.75 1667.91 Q1340.41 1665.81 1336.41 1665.81 Q1334.53 1665.81 1332.66 1666.22 Q1330.8 1666.64 1328.86 1667.52 L1328.86 1650.16 Z" fill="#000000" fill-rule="evenodd" fill-opacity="1" /><path clip-path="url(#clip040)" d="M1493.4 1740.48 L1509.72 1740.48 L1509.72 1744.41 L1487.77 1744.41 L1487.77 1740.48 Q1490.44 1737.72 1495.02 1733.09 Q1499.63 1728.44 1500.81 1727.1 Q1503.05 1724.57 1503.93 1722.84 Q1504.83 1721.08 1504.83 1719.39 Q1504.83 1716.63 1502.89 1714.9 Q1500.97 1713.16 1497.87 1713.16 Q1495.67 1713.16 1493.21 1713.92 Q1490.78 1714.69 1488.01 1716.24 L1488.01 1711.52 Q1490.83 1710.38 1493.28 1709.8 Q1495.74 1709.23 1497.77 1709.23 Q1503.14 1709.23 1506.34 1711.91 Q1509.53 1714.6 1509.53 1719.09 Q1509.53 1721.22 1508.72 1723.14 Q1507.94 1725.04 1505.83 1727.63 Q1505.25 1728.3 1502.15 1731.52 Q1499.05 1734.71 1493.4 1740.48 Z" fill="#000000" fill-rule="evenodd" fill-opacity="1" /><path clip-path="url(#clip040)" d="M1519.53 1738.53 L1524.42 1738.53 L1524.42 1744.41 L1519.53 1744.41 L1519.53 1738.53 Z" fill="#000000" fill-rule="evenodd" fill-opacity="1" /><path clip-path="url(#clip040)" d="M1544.6 1712.93 Q1540.99 1712.93 1539.16 1716.49 Q1537.36 1720.04 1537.36 1727.17 Q1537.36 1734.27 1539.16 1737.84 Q1540.99 1741.38 1544.6 1741.38 Q1548.24 1741.38 1550.04 1737.84 Q1551.87 1734.27 1551.87 1727.17 Q1551.87 1720.04 1550.04 1716.49 Q1548.24 1712.93 1544.6 1712.93 M1544.6 1709.23 Q1550.41 1709.23 1553.47 1713.83 Q1556.55 1718.42 1556.55 1727.17 Q1556.55 1735.89 1553.47 1740.5 Q1550.41 1745.08 1544.6 1745.08 Q1538.79 1745.08 1535.71 1740.5 Q1532.66 1735.89 1532.66 1727.17 Q1532.66 1718.42 1535.71 1713.83 Q1538.79 1709.23 1544.6 1709.23 Z" fill="#000000" fill-rule="evenodd" fill-opacity="1" /><polyline clip-path="url(#clip042)" style="stroke:#000000; stroke-linecap:butt; stroke-linejoin:round; stroke-width:2; stroke-opacity:0.1; fill:none" points="
  1674.26,1644.03 797.49,1390.93 
  "/>
<polyline clip-path="url(#clip042)" style="stroke:#000000; stroke-linecap:butt; stroke-linejoin:round; stroke-width:2; stroke-opacity:0.1; fill:none" points="
  797.49,1390.93 797.49,514.166 
  "/>
<polyline clip-path="url(#clip042)" style="stroke:#000000; stroke-linecap:butt; stroke-linejoin:round; stroke-width:2; stroke-opacity:0.1; fill:none" points="
  1793.65,1540.64 916.878,1287.54 
  "/>
<polyline clip-path="url(#clip042)" style="stroke:#000000; stroke-linecap:butt; stroke-linejoin:round; stroke-width:2; stroke-opacity:0.1; fill:none" points="
  916.878,1287.54 916.878,410.774 
  "/>
<polyline clip-path="url(#clip042)" style="stroke:#000000; stroke-linecap:butt; stroke-linejoin:round; stroke-width:2; stroke-opacity:0.1; fill:none" points="
  1913.03,1437.25 1036.26,1184.15 
  "/>
<polyline clip-path="url(#clip042)" style="stroke:#000000; stroke-linecap:butt; stroke-linejoin:round; stroke-width:2; stroke-opacity:0.1; fill:none" points="
  1036.26,1184.15 1036.26,307.381 
  "/>
<polyline clip-path="url(#clip042)" style="stroke:#000000; stroke-linecap:butt; stroke-linejoin:round; stroke-width:2; stroke-opacity:0.1; fill:none" points="
  2032.42,1333.86 1155.65,1080.76 
  "/>
<polyline clip-path="url(#clip042)" style="stroke:#000000; stroke-linecap:butt; stroke-linejoin:round; stroke-width:2; stroke-opacity:0.1; fill:none" points="
  1155.65,1080.76 1155.65,203.989 
  "/>
<polyline clip-path="url(#clip040)" style="stroke:#000000; stroke-linecap:butt; stroke-linejoin:round; stroke-width:4; stroke-opacity:1; fill:none" points="
  1600.24,1708.14 2106.44,1269.75 
  "/>
<polyline clip-path="url(#clip040)" style="stroke:#000000; stroke-linecap:butt; stroke-linejoin:round; stroke-width:4; stroke-opacity:1; fill:none" points="
  1674.26,1644.03 1663.74,1641 
  "/>
<polyline clip-path="url(#clip040)" style="stroke:#000000; stroke-linecap:butt; stroke-linejoin:round; stroke-width:4; stroke-opacity:1; fill:none" points="
  1793.65,1540.64 1783.12,1537.6 
  "/>
<polyline clip-path="url(#clip040)" style="stroke:#000000; stroke-linecap:butt; stroke-linejoin:round; stroke-width:4; stroke-opacity:1; fill:none" points="
  1913.03,1437.25 1902.51,1434.21 
  "/>
<polyline clip-path="url(#clip040)" style="stroke:#000000; stroke-linecap:butt; stroke-linejoin:round; stroke-width:4; stroke-opacity:1; fill:none" points="
  2032.42,1333.86 2021.9,1330.82 
  "/>
<path clip-path="url(#clip040)" d="M1715.49 1643.36 Q1711.87 1643.36 1710.05 1646.92 Q1708.24 1650.47 1708.24 1657.59 Q1708.24 1664.7 1710.05 1668.27 Q1711.87 1671.81 1715.49 1671.81 Q1719.12 1671.81 1720.93 1668.27 Q1722.75 1664.7 1722.75 1657.59 Q1722.75 1650.47 1720.93 1646.92 Q1719.12 1643.36 1715.49 1643.36 M1715.49 1639.66 Q1721.3 1639.66 1724.35 1644.26 Q1727.43 1648.84 1727.43 1657.59 Q1727.43 1666.32 1724.35 1670.93 Q1721.3 1675.51 1715.49 1675.51 Q1709.68 1675.51 1706.6 1670.93 Q1703.54 1666.32 1703.54 1657.59 Q1703.54 1648.84 1706.6 1644.26 Q1709.68 1639.66 1715.49 1639.66 Z" fill="#000000" fill-rule="evenodd" fill-opacity="1" /><path clip-path="url(#clip040)" d="M1735.65 1668.96 L1740.53 1668.96 L1740.53 1674.84 L1735.65 1674.84 L1735.65 1668.96 Z" fill="#000000" fill-rule="evenodd" fill-opacity="1" /><path clip-path="url(#clip040)" d="M1754.74 1670.9 L1771.06 1670.9 L1771.06 1674.84 L1749.12 1674.84 L1749.12 1670.9 Q1751.78 1668.15 1756.36 1663.52 Q1760.97 1658.87 1762.15 1657.53 Q1764.4 1655 1765.28 1653.27 Q1766.18 1651.51 1766.18 1649.82 Q1766.18 1647.06 1764.24 1645.33 Q1762.31 1643.59 1759.21 1643.59 Q1757.01 1643.59 1754.56 1644.35 Q1752.13 1645.12 1749.35 1646.67 L1749.35 1641.95 Q1752.18 1640.81 1754.63 1640.23 Q1757.08 1639.66 1759.12 1639.66 Q1764.49 1639.66 1767.68 1642.34 Q1770.88 1645.03 1770.88 1649.52 Q1770.88 1651.65 1770.07 1653.57 Q1769.28 1655.47 1767.18 1658.06 Q1766.6 1658.73 1763.49 1661.95 Q1760.39 1665.14 1754.74 1670.9 Z" fill="#000000" fill-rule="evenodd" fill-opacity="1" /><path clip-path="url(#clip040)" d="M1834.87 1539.97 Q1831.26 1539.97 1829.43 1543.53 Q1827.63 1547.07 1827.63 1554.2 Q1827.63 1561.31 1829.43 1564.87 Q1831.26 1568.42 1834.87 1568.42 Q1838.51 1568.42 1840.31 1564.87 Q1842.14 1561.31 1842.14 1554.2 Q1842.14 1547.07 1840.31 1543.53 Q1838.51 1539.97 1834.87 1539.97 M1834.87 1536.26 Q1840.68 1536.26 1843.74 1540.87 Q1846.82 1545.45 1846.82 1554.2 Q1846.82 1562.93 1843.74 1567.54 Q1840.68 1572.12 1834.87 1572.12 Q1829.06 1572.12 1825.98 1567.54 Q1822.93 1562.93 1822.93 1554.2 Q1822.93 1545.45 1825.98 1540.87 Q1829.06 1536.26 1834.87 1536.26 Z" fill="#000000" fill-rule="evenodd" fill-opacity="1" /><path clip-path="url(#clip040)" d="M1855.03 1565.57 L1859.92 1565.57 L1859.92 1571.45 L1855.03 1571.45 L1855.03 1565.57 Z" fill="#000000" fill-rule="evenodd" fill-opacity="1" /><path clip-path="url(#clip040)" d="M1882.95 1540.96 L1871.15 1559.41 L1882.95 1559.41 L1882.95 1540.96 M1881.72 1536.89 L1887.6 1536.89 L1887.6 1559.41 L1892.53 1559.41 L1892.53 1563.3 L1887.6 1563.3 L1887.6 1571.45 L1882.95 1571.45 L1882.95 1563.3 L1867.35 1563.3 L1867.35 1558.79 L1881.72 1536.89 Z" fill="#000000" fill-rule="evenodd" fill-opacity="1" /><path clip-path="url(#clip040)" d="M1954.26 1436.57 Q1950.65 1436.57 1948.82 1440.14 Q1947.01 1443.68 1947.01 1450.81 Q1947.01 1457.92 1948.82 1461.48 Q1950.65 1465.02 1954.26 1465.02 Q1957.89 1465.02 1959.7 1461.48 Q1961.53 1457.92 1961.53 1450.81 Q1961.53 1443.68 1959.7 1440.14 Q1957.89 1436.57 1954.26 1436.57 M1954.26 1432.87 Q1960.07 1432.87 1963.13 1437.48 Q1966.2 1442.06 1966.2 1450.81 Q1966.2 1459.54 1963.13 1464.14 Q1960.07 1468.73 1954.26 1468.73 Q1948.45 1468.73 1945.37 1464.14 Q1942.32 1459.54 1942.32 1450.81 Q1942.32 1442.06 1945.37 1437.48 Q1948.45 1432.87 1954.26 1432.87 Z" fill="#000000" fill-rule="evenodd" fill-opacity="1" /><path clip-path="url(#clip040)" d="M1974.42 1462.18 L1979.31 1462.18 L1979.31 1468.06 L1974.42 1468.06 L1974.42 1462.18 Z" fill="#000000" fill-rule="evenodd" fill-opacity="1" /><path clip-path="url(#clip040)" d="M2000.07 1448.91 Q1996.92 1448.91 1995.07 1451.06 Q1993.24 1453.22 1993.24 1456.97 Q1993.24 1460.69 1995.07 1462.87 Q1996.92 1465.02 2000.07 1465.02 Q2003.22 1465.02 2005.05 1462.87 Q2006.9 1460.69 2006.9 1456.97 Q2006.9 1453.22 2005.05 1451.06 Q2003.22 1448.91 2000.07 1448.91 M2009.35 1434.26 L2009.35 1438.52 Q2007.59 1437.68 2005.79 1437.25 Q2004.01 1436.81 2002.25 1436.81 Q1997.62 1436.81 1995.16 1439.93 Q1992.73 1443.06 1992.38 1449.37 Q1993.75 1447.36 1995.81 1446.3 Q1997.87 1445.21 2000.35 1445.21 Q2005.56 1445.21 2008.57 1448.38 Q2011.6 1451.53 2011.6 1456.97 Q2011.6 1462.29 2008.45 1465.51 Q2005.3 1468.73 2000.07 1468.73 Q1994.07 1468.73 1990.9 1464.14 Q1987.73 1459.54 1987.73 1450.81 Q1987.73 1442.62 1991.62 1437.75 Q1995.51 1432.87 2002.06 1432.87 Q2003.82 1432.87 2005.6 1433.22 Q2007.41 1433.56 2009.35 1434.26 Z" fill="#000000" fill-rule="evenodd" fill-opacity="1" /><path clip-path="url(#clip040)" d="M2073.65 1333.18 Q2070.04 1333.18 2068.21 1336.75 Q2066.4 1340.29 2066.4 1347.42 Q2066.4 1354.52 2068.21 1358.09 Q2070.04 1361.63 2073.65 1361.63 Q2077.28 1361.63 2079.09 1358.09 Q2080.92 1354.52 2080.92 1347.42 Q2080.92 1340.29 2079.09 1336.75 Q2077.28 1333.18 2073.65 1333.18 M2073.65 1329.48 Q2079.46 1329.48 2082.51 1334.08 Q2085.59 1338.67 2085.59 1347.42 Q2085.59 1356.14 2082.51 1360.75 Q2079.46 1365.33 2073.65 1365.33 Q2067.84 1365.33 2064.76 1360.75 Q2061.7 1356.14 2061.7 1347.42 Q2061.7 1338.67 2064.76 1334.08 Q2067.84 1329.48 2073.65 1329.48 Z" fill="#000000" fill-rule="evenodd" fill-opacity="1" /><path clip-path="url(#clip040)" d="M2093.81 1358.78 L2098.69 1358.78 L2098.69 1364.66 L2093.81 1364.66 L2093.81 1358.78 Z" fill="#000000" fill-rule="evenodd" fill-opacity="1" /><path clip-path="url(#clip040)" d="M2118.88 1348.25 Q2115.55 1348.25 2113.62 1350.03 Q2111.73 1351.82 2111.73 1354.94 Q2111.73 1358.07 2113.62 1359.85 Q2115.55 1361.63 2118.88 1361.63 Q2122.21 1361.63 2124.13 1359.85 Q2126.05 1358.04 2126.05 1354.94 Q2126.05 1351.82 2124.13 1350.03 Q2122.24 1348.25 2118.88 1348.25 M2114.2 1346.26 Q2111.19 1345.52 2109.5 1343.46 Q2107.84 1341.4 2107.84 1338.44 Q2107.84 1334.29 2110.78 1331.89 Q2113.74 1329.48 2118.88 1329.48 Q2124.04 1329.48 2126.98 1331.89 Q2129.92 1334.29 2129.92 1338.44 Q2129.92 1341.4 2128.23 1343.46 Q2126.56 1345.52 2123.58 1346.26 Q2126.96 1347.05 2128.83 1349.34 Q2130.73 1351.63 2130.73 1354.94 Q2130.73 1359.96 2127.65 1362.65 Q2124.6 1365.33 2118.88 1365.33 Q2113.16 1365.33 2110.08 1362.65 Q2107.03 1359.96 2107.03 1354.94 Q2107.03 1351.63 2108.92 1349.34 Q2110.82 1347.05 2114.2 1346.26 M2112.49 1338.88 Q2112.49 1341.56 2114.16 1343.07 Q2115.85 1344.57 2118.88 1344.57 Q2121.89 1344.57 2123.58 1343.07 Q2125.29 1341.56 2125.29 1338.88 Q2125.29 1336.19 2123.58 1334.69 Q2121.89 1333.18 2118.88 1333.18 Q2115.85 1333.18 2114.16 1334.69 Q2112.49 1336.19 2112.49 1338.88 Z" fill="#000000" fill-rule="evenodd" fill-opacity="1" /><polyline clip-path="url(#clip042)" style="stroke:#000000; stroke-linecap:butt; stroke-linejoin:round; stroke-width:2; stroke-opacity:0.1; fill:none" points="
  723.47,1430.22 1229.67,991.84 
  "/>
<polyline clip-path="url(#clip042)" style="stroke:#000000; stroke-linecap:butt; stroke-linejoin:round; stroke-width:2; stroke-opacity:0.1; fill:none" points="
  1229.67,991.84 2106.44,1244.94 
  "/>
<polyline clip-path="url(#clip042)" style="stroke:#000000; stroke-linecap:butt; stroke-linejoin:round; stroke-width:2; stroke-opacity:0.1; fill:none" points="
  723.47,1223.44 1229.67,785.054 
  "/>
<polyline clip-path="url(#clip042)" style="stroke:#000000; stroke-linecap:butt; stroke-linejoin:round; stroke-width:2; stroke-opacity:0.1; fill:none" points="
  1229.67,785.054 2106.44,1038.16 
  "/>
<polyline clip-path="url(#clip042)" style="stroke:#000000; stroke-linecap:butt; stroke-linejoin:round; stroke-width:2; stroke-opacity:0.1; fill:none" points="
  723.47,1016.65 1229.67,578.269 
  "/>
<polyline clip-path="url(#clip042)" style="stroke:#000000; stroke-linecap:butt; stroke-linejoin:round; stroke-width:2; stroke-opacity:0.1; fill:none" points="
  1229.67,578.269 2106.44,831.37 
  "/>
<polyline clip-path="url(#clip042)" style="stroke:#000000; stroke-linecap:butt; stroke-linejoin:round; stroke-width:2; stroke-opacity:0.1; fill:none" points="
  723.47,809.868 1229.67,371.484 
  "/>
<polyline clip-path="url(#clip042)" style="stroke:#000000; stroke-linecap:butt; stroke-linejoin:round; stroke-width:2; stroke-opacity:0.1; fill:none" points="
  1229.67,371.484 2106.44,624.585 
  "/>
<polyline clip-path="url(#clip042)" style="stroke:#000000; stroke-linecap:butt; stroke-linejoin:round; stroke-width:2; stroke-opacity:0.1; fill:none" points="
  723.47,603.083 1229.67,164.699 
  "/>
<polyline clip-path="url(#clip042)" style="stroke:#000000; stroke-linecap:butt; stroke-linejoin:round; stroke-width:2; stroke-opacity:0.1; fill:none" points="
  1229.67,164.699 2106.44,417.8 
  "/>
<polyline clip-path="url(#clip040)" style="stroke:#000000; stroke-linecap:butt; stroke-linejoin:round; stroke-width:4; stroke-opacity:1; fill:none" points="
  723.47,1455.04 723.47,578.269 
  "/>
<polyline clip-path="url(#clip040)" style="stroke:#000000; stroke-linecap:butt; stroke-linejoin:round; stroke-width:4; stroke-opacity:1; fill:none" points="
  723.47,1430.22 729.545,1424.96 
  "/>
<polyline clip-path="url(#clip040)" style="stroke:#000000; stroke-linecap:butt; stroke-linejoin:round; stroke-width:4; stroke-opacity:1; fill:none" points="
  723.47,1223.44 729.545,1218.18 
  "/>
<polyline clip-path="url(#clip040)" style="stroke:#000000; stroke-linecap:butt; stroke-linejoin:round; stroke-width:4; stroke-opacity:1; fill:none" points="
  723.47,1016.65 729.545,1011.39 
  "/>
<polyline clip-path="url(#clip040)" style="stroke:#000000; stroke-linecap:butt; stroke-linejoin:round; stroke-width:4; stroke-opacity:1; fill:none" points="
  723.47,809.868 729.545,804.607 
  "/>
<polyline clip-path="url(#clip040)" style="stroke:#000000; stroke-linecap:butt; stroke-linejoin:round; stroke-width:4; stroke-opacity:1; fill:none" points="
  723.47,603.083 729.545,597.822 
  "/>
<path clip-path="url(#clip040)" d="M603.877 1416.02 Q600.266 1416.02 598.437 1419.59 Q596.631 1423.13 596.631 1430.26 Q596.631 1437.36 598.437 1440.93 Q600.266 1444.47 603.877 1444.47 Q607.511 1444.47 609.316 1440.93 Q611.145 1437.36 611.145 1430.26 Q611.145 1423.13 609.316 1419.59 Q607.511 1416.02 603.877 1416.02 M603.877 1412.32 Q609.687 1412.32 612.742 1416.92 Q615.821 1421.51 615.821 1430.26 Q615.821 1438.98 612.742 1443.59 Q609.687 1448.17 603.877 1448.17 Q598.066 1448.17 594.988 1443.59 Q591.932 1438.98 591.932 1430.26 Q591.932 1421.51 594.988 1416.92 Q598.066 1412.32 603.877 1412.32 Z" fill="#000000" fill-rule="evenodd" fill-opacity="1" /><path clip-path="url(#clip040)" d="M624.039 1441.62 L628.923 1441.62 L628.923 1447.5 L624.039 1447.5 L624.039 1441.62 Z" fill="#000000" fill-rule="evenodd" fill-opacity="1" /><path clip-path="url(#clip040)" d="M649.108 1416.02 Q645.497 1416.02 643.668 1419.59 Q641.863 1423.13 641.863 1430.26 Q641.863 1437.36 643.668 1440.93 Q645.497 1444.47 649.108 1444.47 Q652.742 1444.47 654.548 1440.93 Q656.376 1437.36 656.376 1430.26 Q656.376 1423.13 654.548 1419.59 Q652.742 1416.02 649.108 1416.02 M649.108 1412.32 Q654.918 1412.32 657.974 1416.92 Q661.052 1421.51 661.052 1430.26 Q661.052 1438.98 657.974 1443.59 Q654.918 1448.17 649.108 1448.17 Q643.298 1448.17 640.219 1443.59 Q637.164 1438.98 637.164 1430.26 Q637.164 1421.51 640.219 1416.92 Q643.298 1412.32 649.108 1412.32 Z" fill="#000000" fill-rule="evenodd" fill-opacity="1" /><path clip-path="url(#clip040)" d="M679.27 1416.02 Q675.659 1416.02 673.83 1419.59 Q672.024 1423.13 672.024 1430.26 Q672.024 1437.36 673.83 1440.93 Q675.659 1444.47 679.27 1444.47 Q682.904 1444.47 684.71 1440.93 Q686.538 1437.36 686.538 1430.26 Q686.538 1423.13 684.71 1419.59 Q682.904 1416.02 679.27 1416.02 M679.27 1412.32 Q685.08 1412.32 688.135 1416.92 Q691.214 1421.51 691.214 1430.26 Q691.214 1438.98 688.135 1443.59 Q685.08 1448.17 679.27 1448.17 Q673.46 1448.17 670.381 1443.59 Q667.325 1438.98 667.325 1430.26 Q667.325 1421.51 670.381 1416.92 Q673.46 1412.32 679.27 1412.32 Z" fill="#000000" fill-rule="evenodd" fill-opacity="1" /><path clip-path="url(#clip040)" d="M604.872 1209.24 Q601.261 1209.24 599.432 1212.8 Q597.627 1216.34 597.627 1223.47 Q597.627 1230.58 599.432 1234.14 Q601.261 1237.69 604.872 1237.69 Q608.506 1237.69 610.312 1234.14 Q612.14 1230.58 612.14 1223.47 Q612.14 1216.34 610.312 1212.8 Q608.506 1209.24 604.872 1209.24 M604.872 1205.53 Q610.682 1205.53 613.738 1210.14 Q616.816 1214.72 616.816 1223.47 Q616.816 1232.2 613.738 1236.81 Q610.682 1241.39 604.872 1241.39 Q599.062 1241.39 595.983 1236.81 Q592.928 1232.2 592.928 1223.47 Q592.928 1214.72 595.983 1210.14 Q599.062 1205.53 604.872 1205.53 Z" fill="#000000" fill-rule="evenodd" fill-opacity="1" /><path clip-path="url(#clip040)" d="M625.034 1234.84 L629.918 1234.84 L629.918 1240.72 L625.034 1240.72 L625.034 1234.84 Z" fill="#000000" fill-rule="evenodd" fill-opacity="1" /><path clip-path="url(#clip040)" d="M644.131 1236.78 L660.45 1236.78 L660.45 1240.72 L638.506 1240.72 L638.506 1236.78 Q641.168 1234.03 645.751 1229.4 Q650.358 1224.75 651.538 1223.4 Q653.784 1220.88 654.663 1219.14 Q655.566 1217.39 655.566 1215.7 Q655.566 1212.94 653.622 1211.2 Q651.7 1209.47 648.599 1209.47 Q646.4 1209.47 643.946 1210.23 Q641.515 1211 638.738 1212.55 L638.738 1207.82 Q641.562 1206.69 644.015 1206.11 Q646.469 1205.53 648.506 1205.53 Q653.876 1205.53 657.071 1208.22 Q660.265 1210.9 660.265 1215.39 Q660.265 1217.52 659.455 1219.45 Q658.668 1221.34 656.562 1223.94 Q655.983 1224.61 652.881 1227.82 Q649.779 1231.02 644.131 1236.78 Z" fill="#000000" fill-rule="evenodd" fill-opacity="1" /><path clip-path="url(#clip040)" d="M670.311 1206.16 L688.668 1206.16 L688.668 1210.09 L674.594 1210.09 L674.594 1218.57 Q675.612 1218.22 676.631 1218.06 Q677.649 1217.87 678.668 1217.87 Q684.455 1217.87 687.835 1221.04 Q691.214 1224.21 691.214 1229.63 Q691.214 1235.21 687.742 1238.31 Q684.27 1241.39 677.95 1241.39 Q675.774 1241.39 673.506 1241.02 Q671.261 1240.65 668.853 1239.91 L668.853 1235.21 Q670.936 1236.34 673.159 1236.9 Q675.381 1237.45 677.858 1237.45 Q681.862 1237.45 684.2 1235.35 Q686.538 1233.24 686.538 1229.63 Q686.538 1226.02 684.2 1223.91 Q681.862 1221.81 677.858 1221.81 Q675.983 1221.81 674.108 1222.22 Q672.256 1222.64 670.311 1223.52 L670.311 1206.16 Z" fill="#000000" fill-rule="evenodd" fill-opacity="1" /><path clip-path="url(#clip040)" d="M603.877 1002.45 Q600.266 1002.45 598.437 1006.02 Q596.631 1009.56 596.631 1016.69 Q596.631 1023.79 598.437 1027.36 Q600.266 1030.9 603.877 1030.9 Q607.511 1030.9 609.316 1027.36 Q611.145 1023.79 611.145 1016.69 Q611.145 1009.56 609.316 1006.02 Q607.511 1002.45 603.877 1002.45 M603.877 998.748 Q609.687 998.748 612.742 1003.35 Q615.821 1007.94 615.821 1016.69 Q615.821 1025.41 612.742 1030.02 Q609.687 1034.6 603.877 1034.6 Q598.066 1034.6 594.988 1030.02 Q591.932 1025.41 591.932 1016.69 Q591.932 1007.94 594.988 1003.35 Q598.066 998.748 603.877 998.748 Z" fill="#000000" fill-rule="evenodd" fill-opacity="1" /><path clip-path="url(#clip040)" d="M624.039 1028.05 L628.923 1028.05 L628.923 1033.93 L624.039 1033.93 L624.039 1028.05 Z" fill="#000000" fill-rule="evenodd" fill-opacity="1" /><path clip-path="url(#clip040)" d="M639.154 999.373 L657.511 999.373 L657.511 1003.31 L643.437 1003.31 L643.437 1011.78 Q644.455 1011.43 645.474 1011.27 Q646.492 1011.09 647.511 1011.09 Q653.298 1011.09 656.677 1014.26 Q660.057 1017.43 660.057 1022.85 Q660.057 1028.42 656.585 1031.53 Q653.112 1034.6 646.793 1034.6 Q644.617 1034.6 642.349 1034.23 Q640.103 1033.86 637.696 1033.12 L637.696 1028.42 Q639.779 1029.56 642.001 1030.11 Q644.224 1030.67 646.7 1030.67 Q650.705 1030.67 653.043 1028.56 Q655.381 1026.46 655.381 1022.85 Q655.381 1019.23 653.043 1017.13 Q650.705 1015.02 646.7 1015.02 Q644.826 1015.02 642.951 1015.44 Q641.099 1015.85 639.154 1016.73 L639.154 999.373 Z" fill="#000000" fill-rule="evenodd" fill-opacity="1" /><path clip-path="url(#clip040)" d="M679.27 1002.45 Q675.659 1002.45 673.83 1006.02 Q672.024 1009.56 672.024 1016.69 Q672.024 1023.79 673.83 1027.36 Q675.659 1030.9 679.27 1030.9 Q682.904 1030.9 684.71 1027.36 Q686.538 1023.79 686.538 1016.69 Q686.538 1009.56 684.71 1006.02 Q682.904 1002.45 679.27 1002.45 M679.27 998.748 Q685.08 998.748 688.135 1003.35 Q691.214 1007.94 691.214 1016.69 Q691.214 1025.41 688.135 1030.02 Q685.08 1034.6 679.27 1034.6 Q673.46 1034.6 670.381 1030.02 Q667.325 1025.41 667.325 1016.69 Q667.325 1007.94 670.381 1003.35 Q673.46 998.748 679.27 998.748 Z" fill="#000000" fill-rule="evenodd" fill-opacity="1" /><path clip-path="url(#clip040)" d="M604.872 795.667 Q601.261 795.667 599.432 799.232 Q597.627 802.773 597.627 809.903 Q597.627 817.009 599.432 820.574 Q601.261 824.116 604.872 824.116 Q608.506 824.116 610.312 820.574 Q612.14 817.009 612.14 809.903 Q612.14 802.773 610.312 799.232 Q608.506 795.667 604.872 795.667 M604.872 791.963 Q610.682 791.963 613.738 796.57 Q616.816 801.153 616.816 809.903 Q616.816 818.63 613.738 823.236 Q610.682 827.819 604.872 827.819 Q599.062 827.819 595.983 823.236 Q592.928 818.63 592.928 809.903 Q592.928 801.153 595.983 796.57 Q599.062 791.963 604.872 791.963 Z" fill="#000000" fill-rule="evenodd" fill-opacity="1" /><path clip-path="url(#clip040)" d="M625.034 821.268 L629.918 821.268 L629.918 827.148 L625.034 827.148 L625.034 821.268 Z" fill="#000000" fill-rule="evenodd" fill-opacity="1" /><path clip-path="url(#clip040)" d="M638.923 792.588 L661.145 792.588 L661.145 794.579 L648.599 827.148 L643.714 827.148 L655.52 796.523 L638.923 796.523 L638.923 792.588 Z" fill="#000000" fill-rule="evenodd" fill-opacity="1" /><path clip-path="url(#clip040)" d="M670.311 792.588 L688.668 792.588 L688.668 796.523 L674.594 796.523 L674.594 804.995 Q675.612 804.648 676.631 804.486 Q677.649 804.301 678.668 804.301 Q684.455 804.301 687.835 807.472 Q691.214 810.644 691.214 816.06 Q691.214 821.639 687.742 824.741 Q684.27 827.819 677.95 827.819 Q675.774 827.819 673.506 827.449 Q671.261 827.079 668.853 826.338 L668.853 821.639 Q670.936 822.773 673.159 823.329 Q675.381 823.884 677.858 823.884 Q681.862 823.884 684.2 821.778 Q686.538 819.671 686.538 816.06 Q686.538 812.449 684.2 810.343 Q681.862 808.236 677.858 808.236 Q675.983 808.236 674.108 808.653 Q672.256 809.069 670.311 809.949 L670.311 792.588 Z" fill="#000000" fill-rule="evenodd" fill-opacity="1" /><path clip-path="url(#clip040)" d="M594.687 616.428 L602.326 616.428 L602.326 590.062 L594.016 591.729 L594.016 587.47 L602.279 585.803 L606.955 585.803 L606.955 616.428 L614.594 616.428 L614.594 620.363 L594.687 620.363 L594.687 616.428 Z" fill="#000000" fill-rule="evenodd" fill-opacity="1" /><path clip-path="url(#clip040)" d="M624.039 614.483 L628.923 614.483 L628.923 620.363 L624.039 620.363 L624.039 614.483 Z" fill="#000000" fill-rule="evenodd" fill-opacity="1" /><path clip-path="url(#clip040)" d="M649.108 588.882 Q645.497 588.882 643.668 592.446 Q641.863 595.988 641.863 603.118 Q641.863 610.224 643.668 613.789 Q645.497 617.331 649.108 617.331 Q652.742 617.331 654.548 613.789 Q656.376 610.224 656.376 603.118 Q656.376 595.988 654.548 592.446 Q652.742 588.882 649.108 588.882 M649.108 585.178 Q654.918 585.178 657.974 589.784 Q661.052 594.368 661.052 603.118 Q661.052 611.844 657.974 616.451 Q654.918 621.034 649.108 621.034 Q643.298 621.034 640.219 616.451 Q637.164 611.844 637.164 603.118 Q637.164 594.368 640.219 589.784 Q643.298 585.178 649.108 585.178 Z" fill="#000000" fill-rule="evenodd" fill-opacity="1" /><path clip-path="url(#clip040)" d="M679.27 588.882 Q675.659 588.882 673.83 592.446 Q672.024 595.988 672.024 603.118 Q672.024 610.224 673.83 613.789 Q675.659 617.331 679.27 617.331 Q682.904 617.331 684.71 613.789 Q686.538 610.224 686.538 603.118 Q686.538 595.988 684.71 592.446 Q682.904 588.882 679.27 588.882 M679.27 585.178 Q685.08 585.178 688.135 589.784 Q691.214 594.368 691.214 603.118 Q691.214 611.844 688.135 616.451 Q685.08 621.034 679.27 621.034 Q673.46 621.034 670.381 616.451 Q667.325 611.844 667.325 603.118 Q667.325 594.368 670.381 589.784 Q673.46 585.178 679.27 585.178 Z" fill="#000000" fill-rule="evenodd" fill-opacity="1" /><polyline clip-path="url(#clip042)" style="stroke:#009af9; stroke-linecap:butt; stroke-linejoin:round; stroke-width:4; stroke-opacity:1; fill:none" points="
  762.611,1424.98 770.966,1427.39 779.321,1429.8 787.676,1432.21 796.031,1434.62 804.386,1437.02 812.74,1439.34 821.095,1440.61 829.45,1427.51 837.805,1278.37 
  846.16,957.908 854.515,799.015 862.87,739.216 871.225,710.624 879.58,693.667 887.935,682.428 896.29,674.655 904.645,669.248 913,665.564 921.355,663.21 
  929.71,661.816 938.065,661.193 946.42,661.175 954.774,661.635 963.129,662.47 971.484,663.616 979.839,665.004 988.194,666.585 996.549,668.324 1004.9,670.189 
  1013.26,672.156 1021.61,674.206 1029.97,676.323 1038.32,678.495 1046.68,680.711 1055.03,682.964 1063.39,685.246 1071.74,687.551 1080.1,689.877 1088.45,692.218 
  1096.81,694.572 1105.16,696.937 1113.52,699.31 1121.87,701.691 1130.23,704.077 1138.58,706.468 1146.94,708.862 1155.29,711.26 1163.65,713.661 1172,716.063 
  1180.36,718.467 1188.71,720.873 1197.07,723.28 1205.42,725.687 1213.78,728.096 1222.13,730.505 1230.49,732.915 1238.84,735.325 1247.2,737.735 1255.55,740.145 
  1263.91,742.556 1272.26,744.967 1280.62,747.379 1288.97,749.79 1297.33,752.201 1305.68,754.613 1314.04,757.024 1322.39,759.436 1330.75,761.847 1339.1,764.259 
  1347.46,766.671 1355.81,769.083 1364.17,771.494 1372.52,773.906 1380.88,776.318 1389.23,778.73 1397.59,781.142 1405.94,783.553 1414.3,785.965 1422.65,788.377 
  1431.01,790.789 1439.36,793.201 1447.72,795.613 1456.07,798.024 1464.43,800.436 1472.78,802.848 1481.14,805.26 1489.49,807.672 1497.85,810.084 1506.2,812.496 
  1514.56,814.907 1522.91,817.319 1531.27,819.731 1539.62,822.143 1547.98,824.555 1556.33,826.967 1564.69,829.379 1573.04,831.79 1581.4,834.202 1589.75,836.614 
  
  "/>
<polyline clip-path="url(#clip042)" style="stroke:#e26f46; stroke-linecap:butt; stroke-linejoin:round; stroke-width:4; stroke-opacity:1; fill:none" points="
  822.304,1373.28 830.659,1375.69 839.014,1378.11 847.369,1380.52 855.724,1382.93 864.079,1385.34 872.434,1387.75 880.789,1390.16 889.144,1392.57 897.499,1394.98 
  905.854,1397.37 914.209,1399.56 922.564,1399.4 930.919,1369.19 939.274,1173.09 947.629,965.367 955.983,882.22 964.338,837.911 972.693,805.589 981.048,779.522 
  989.403,757.928 997.758,739.887 1006.11,724.764 1014.47,712.07 1022.82,701.416 1031.18,692.485 1039.53,685.019 1047.89,678.801 1056.24,673.656 1064.6,669.438 
  1072.95,666.013 1081.31,663.275 1089.66,661.137 1098.02,659.521 1106.37,658.361 1114.73,657.601 1123.08,657.193 1131.44,657.095 1139.79,657.269 1148.15,657.685 
  1156.5,658.313 1164.86,659.131 1173.21,660.117 1181.57,661.252 1189.92,662.52 1198.28,663.906 1206.63,665.397 1214.99,666.983 1223.34,668.653 1231.7,670.398 
  1240.05,672.211 1248.41,674.084 1256.76,676.011 1265.12,677.986 1273.47,680.005 1281.83,682.063 1290.18,684.156 1298.54,686.28 1306.89,688.433 1315.25,690.611 
  1323.6,692.812 1331.96,695.034 1340.31,697.274 1348.67,699.531 1357.02,701.803 1365.38,704.089 1373.73,706.387 1382.09,708.697 1390.44,711.016 1398.8,713.344 
  1407.15,715.68 1415.51,718.024 1423.86,720.374 1432.22,722.73 1440.57,725.092 1448.93,727.458 1457.28,729.829 1465.63,732.204 1473.99,734.583 1482.34,736.964 
  1490.7,739.349 1499.05,741.736 1507.41,744.125 1515.76,746.517 1524.12,748.911 1532.47,751.306 1540.83,753.703 1549.18,756.102 1557.54,758.501 1565.89,760.902 
  1574.25,763.304 1582.6,765.707 1590.96,768.111 1599.31,770.515 1607.67,772.92 1616.02,775.326 1624.38,777.733 1632.73,780.14 1641.09,782.547 1649.44,784.955 
  
  "/>
<polyline clip-path="url(#clip042)" style="stroke:#3da44d; stroke-linecap:butt; stroke-linejoin:round; stroke-width:4; stroke-opacity:1; fill:none" points="
  881.998,1321.59 890.353,1324 898.708,1326.41 907.063,1328.82 915.418,1331.23 923.773,1333.65 932.128,1336.06 940.483,1338.47 948.838,1340.88 957.193,1343.29 
  965.547,1345.7 973.902,1348.11 982.257,1350.52 990.612,1352.93 998.967,1355.34 1007.32,1357.71 1015.68,1359.75 1024.03,1357.84 1032.39,1311.31 1040.74,1127.35 
  1049.1,1000.03 1057.45,942.721 1065.81,902.968 1074.16,869.892 1082.52,841.279 1090.87,816.3 1099.23,794.416 1107.58,775.201 1115.94,758.302 1124.29,743.423 
  1132.65,730.313 1141,718.757 1149.36,708.571 1157.71,699.597 1166.07,691.698 1174.42,684.757 1182.78,678.67 1191.13,673.348 1199.49,668.711 1207.84,664.69 
  1216.2,661.223 1224.55,658.256 1232.91,655.741 1241.26,653.635 1249.62,651.899 1257.97,650.5 1266.33,649.407 1274.68,648.594 1283.04,648.034 1291.39,647.707 
  1299.75,647.592 1308.1,647.671 1316.46,647.928 1324.81,648.348 1333.16,648.918 1341.52,649.625 1349.87,650.458 1358.23,651.407 1366.58,652.463 1374.94,653.617 
  1383.29,654.862 1391.65,656.191 1400,657.598 1408.36,659.075 1416.71,660.619 1425.07,662.225 1433.42,663.887 1441.78,665.603 1450.13,667.367 1458.49,669.176 
  1466.84,671.027 1475.2,672.916 1483.55,674.842 1491.91,676.801 1500.26,678.792 1508.62,680.811 1516.97,682.858 1525.33,684.929 1533.68,687.023 1542.04,689.138 
  1550.39,691.274 1558.75,693.428 1567.1,695.6 1575.46,697.787 1583.81,699.991 1592.17,702.208 1600.52,704.437 1608.88,706.679 1617.23,708.933 1625.59,711.197 
  1633.94,713.47 1642.3,715.754 1650.65,718.045 1659.01,720.345 1667.36,722.652 1675.72,724.966 1684.07,727.286 1692.43,729.613 1700.78,731.945 1709.14,734.282 
  
  "/>
<polyline clip-path="url(#clip042)" style="stroke:#c271d2; stroke-linecap:butt; stroke-linejoin:round; stroke-width:4; stroke-opacity:1; fill:none" points="
  941.692,1269.89 950.047,1272.3 958.402,1274.71 966.757,1277.13 975.111,1279.54 983.466,1281.95 991.821,1284.36 1000.18,1286.77 1008.53,1289.18 1016.89,1291.6 
  1025.24,1294.01 1033.6,1296.42 1041.95,1298.83 1050.31,1301.24 1058.66,1303.65 1067.02,1306.06 1075.37,1308.48 1083.73,1310.89 1092.08,1313.29 1100.44,1315.69 
  1108.79,1318.04 1117.15,1319.91 1125.5,1315.9 1133.86,1256.13 1142.21,1103.03 1150.57,1018.57 1158.92,973.035 1167.28,937.013 1175.63,905.442 1183.99,877.264 
  1192.34,851.986 1200.69,829.27 1209.05,808.823 1217.4,790.394 1225.76,773.765 1234.11,758.749 1242.47,745.179 1250.82,732.911 1259.18,721.814 1267.53,711.774 
  1275.89,702.697 1284.24,694.494 1292.6,687.088 1300.95,680.407 1309.31,674.388 1317.66,668.975 1326.02,664.117 1334.37,659.768 1342.73,655.888 1351.08,652.438 
  1359.44,649.383 1367.79,646.694 1376.15,644.343 1384.5,642.302 1392.86,640.549 1401.21,639.063 1409.57,637.824 1417.92,636.813 1426.28,636.015 1434.63,635.416 
  1442.99,635.001 1451.34,634.757 1459.7,634.673 1468.05,634.739 1476.41,634.944 1484.76,635.28 1493.12,635.737 1501.47,636.308 1509.83,636.986 1518.18,637.764 
  1526.54,638.636 1534.89,639.595 1543.25,640.637 1551.6,641.757 1559.96,642.949 1568.31,644.209 1576.67,645.533 1585.02,646.918 1593.38,648.359 1601.73,649.854 
  1610.09,651.398 1618.44,652.991 1626.8,654.628 1635.15,656.306 1643.51,658.024 1651.86,659.78 1660.22,661.57 1668.57,663.394 1676.93,665.249 1685.28,667.134 
  1693.64,669.047 1701.99,670.986 1710.35,672.95 1718.7,674.938 1727.06,676.947 1735.41,678.978 1743.77,681.029 1752.12,683.098 1760.48,685.186 1768.83,687.29 
  
  "/>
<polyline clip-path="url(#clip042)" style="stroke:#ac8d18; stroke-linecap:butt; stroke-linejoin:round; stroke-width:4; stroke-opacity:1; fill:none" points="
  1001.39,1218.19 1009.74,1220.61 1018.1,1223.02 1026.45,1225.43 1034.81,1227.84 1043.16,1230.25 1051.51,1232.66 1059.87,1235.08 1068.22,1237.49 1076.58,1239.9 
  1084.93,1242.31 1093.29,1244.72 1101.64,1247.14 1110,1249.55 1118.35,1251.96 1126.71,1254.37 1135.06,1256.78 1143.42,1259.19 1151.77,1261.6 1160.13,1264.02 
  1168.48,1266.43 1176.84,1268.84 1185.19,1271.25 1193.55,1273.65 1201.9,1276.05 1210.26,1278.37 1218.61,1280.02 1226.97,1273.6 1235.32,1204.99 1243.68,1083.42 
  1252.03,1022.33 1260.39,983.848 1268.74,951.209 1277.1,921.791 1285.45,895.025 1293.81,870.609 1302.16,848.303 1310.52,827.908 1318.87,809.222 1327.23,792.099 
  1335.58,776.394 1343.94,761.981 1352.29,748.747 1360.65,736.587 1369,725.412 1377.36,715.144 1385.71,705.712 1394.07,697.05 1402.42,689.096 1410.78,681.798 
  1419.13,675.104 1427.49,668.971 1435.84,663.356 1444.2,658.221 1452.55,653.532 1460.91,649.259 1469.26,645.371 1477.62,641.843 1485.97,638.651 1494.33,635.771 
  1502.68,633.186 1511.04,630.874 1519.39,628.818 1527.75,627.004 1536.1,625.415 1544.46,624.038 1552.81,622.86 1561.17,621.869 1569.52,621.054 1577.88,620.404 
  1586.23,619.91 1594.59,619.564 1602.94,619.356 1611.3,619.278 1619.65,619.324 1628.01,619.486 1636.36,619.759 1644.72,620.136 1653.07,620.611 1661.43,621.18 
  1669.78,621.836 1678.14,622.577 1686.49,623.396 1694.85,624.29 1703.2,625.256 1711.56,626.289 1719.91,627.386 1728.27,628.543 1736.62,629.759 1744.98,631.029 
  1753.33,632.352 1761.69,633.723 1770.04,635.142 1778.39,636.606 1786.75,638.112 1795.1,639.66 1803.46,641.245 1811.81,642.867 1820.17,644.524 1828.52,646.215 
  
  "/>
<polyline clip-path="url(#clip042)" style="stroke:#00a9ad; stroke-linecap:butt; stroke-linejoin:round; stroke-width:4; stroke-opacity:1; fill:none" points="
  1061.08,1166.5 1069.43,1168.91 1077.79,1171.32 1086.14,1173.73 1094.5,1176.14 1102.85,1178.56 1111.21,1180.97 1119.56,1183.38 1127.92,1185.79 1136.27,1188.2 
  1144.63,1190.62 1152.98,1193.03 1161.34,1195.44 1169.69,1197.85 1178.05,1200.26 1186.4,1202.67 1194.76,1205.09 1203.11,1207.5 1211.47,1209.91 1219.82,1212.32 
  1228.18,1214.73 1236.53,1217.14 1244.89,1219.56 1253.24,1221.97 1261.6,1224.38 1269.95,1226.79 1278.31,1229.2 1286.66,1231.61 1295.02,1234.01 1303.37,1236.4 
  1311.73,1238.7 1320.08,1240.08 1328.44,1230.95 1336.79,1158.1 1345.15,1062.94 1353.5,1015.52 1361.86,981.96 1370.21,952.34 1378.57,925.184 1386.92,900.141 
  1395.28,877.003 1403.63,855.614 1411.99,835.822 1420.34,817.493 1428.7,800.507 1437.05,784.756 1445.41,770.15 1453.76,756.585 1462.12,743.992 1470.47,732.301 
  1478.83,721.443 1487.18,711.358 1495.54,701.99 1503.89,693.287 1512.25,685.207 1520.6,677.702 1528.96,670.739 1537.31,664.277 1545.67,658.287 1554.02,652.736 
  1562.38,647.6 1570.73,642.85 1579.09,638.464 1587.44,634.419 1595.8,630.695 1604.15,627.274 1612.51,624.138 1620.86,621.269 1629.22,618.654 1637.57,616.278 
  1645.92,614.126 1654.28,612.188 1662.63,610.452 1670.99,608.906 1679.34,607.541 1687.7,606.347 1696.05,605.315 1704.41,604.436 1712.76,603.703 1721.12,603.108 
  1729.47,602.645 1737.83,602.307 1746.18,602.087 1754.54,601.98 1762.89,601.98 1771.25,602.083 1779.6,602.283 1787.96,602.575 1796.31,602.956 1804.67,603.421 
  1813.02,603.966 1821.38,604.587 1829.73,605.282 1838.09,606.046 1846.44,606.877 1854.8,607.772 1863.15,608.727 1871.51,609.74 1879.86,610.808 1888.22,611.93 
  
  "/>
<polyline clip-path="url(#clip042)" style="stroke:#ed5d92; stroke-linecap:butt; stroke-linejoin:round; stroke-width:4; stroke-opacity:1; fill:none" points="
  1120.77,1114.8 1129.13,1117.21 1137.48,1119.62 1145.84,1122.04 1154.19,1124.45 1162.55,1126.86 1170.9,1129.27 1179.26,1131.68 1187.61,1134.1 1195.97,1136.51 
  1204.32,1138.92 1212.68,1141.33 1221.03,1143.74 1229.39,1146.15 1237.74,1148.57 1246.1,1150.98 1254.45,1153.39 1262.81,1155.8 1271.16,1158.21 1279.52,1160.63 
  1287.87,1163.04 1296.23,1165.45 1304.58,1167.86 1312.94,1170.27 1321.29,1172.68 1329.65,1175.1 1338,1177.51 1346.36,1179.92 1354.71,1182.33 1363.07,1184.74 
  1371.42,1187.15 1379.78,1189.56 1388.13,1191.97 1396.49,1194.37 1404.84,1196.76 1413.2,1199.02 1421.55,1200.09 1429.91,1188.02 1438.26,1114.84 1446.62,1040.14 
  1454.97,1001.37 1463.33,971.538 1471.68,944.547 1480.04,919.509 1488.39,896.193 1496.74,874.459 1505.1,854.182 1513.45,835.248 1521.81,817.565 1530.16,801.04 
  1538.52,785.588 1546.87,771.135 1555.23,757.611 1563.58,744.959 1571.94,733.122 1580.29,722.036 1588.65,711.665 1597,701.94 1605.36,692.832 1613.71,684.302 
  1622.07,676.314 1630.42,668.834 1638.78,661.834 1647.13,655.284 1655.49,649.158 1663.84,643.432 1672.2,638.083 1680.55,633.09 1688.91,628.434 1697.26,624.096 
  1705.62,620.057 1713.97,616.304 1722.33,612.821 1730.68,609.594 1739.04,606.609 1747.39,603.854 1755.75,601.317 1764.1,598.988 1772.46,596.856 1780.81,594.912 
  1789.17,593.146 1797.52,591.551 1805.88,590.116 1814.23,588.836 1822.59,587.704 1830.94,586.711 1839.3,585.852 1847.65,585.12 1856.01,584.511 1864.36,584.018 
  1872.72,583.636 1881.07,583.36 1889.43,583.187 1897.78,583.11 1906.14,583.127 1914.49,583.232 1922.85,583.423 1931.2,583.697 1939.56,584.047 1947.91,584.473 
  
  "/>
<polyline clip-path="url(#clip042)" style="stroke:#c68125; stroke-linecap:butt; stroke-linejoin:round; stroke-width:4; stroke-opacity:1; fill:none" points="
  1180.47,1063.11 1188.82,1065.52 1197.18,1067.93 1205.53,1070.34 1213.89,1072.75 1222.24,1075.16 1230.6,1077.58 1238.95,1079.99 1247.31,1082.4 1255.66,1084.81 
  1264.02,1087.22 1272.37,1089.64 1280.73,1092.05 1289.08,1094.46 1297.44,1096.87 1305.79,1099.28 1314.15,1101.69 1322.5,1104.11 1330.86,1106.52 1339.21,1108.93 
  1347.57,1111.34 1355.92,1113.75 1364.27,1116.16 1372.63,1118.58 1380.98,1120.99 1389.34,1123.4 1397.69,1125.81 1406.05,1128.22 1414.4,1130.63 1422.76,1133.05 
  1431.11,1135.46 1439.47,1137.87 1447.82,1140.28 1456.18,1142.69 1464.53,1145.1 1472.89,1147.51 1481.24,1149.92 1489.6,1152.33 1497.95,1154.73 1506.31,1157.11 
  1514.66,1159.34 1523.02,1160.03 1531.37,1144.91 1539.73,1074.31 1548.08,1014.92 1556.44,982.012 1564.79,955.151 1573.15,930.439 1581.5,907.316 1589.86,885.624 
  1598.21,865.258 1606.57,846.126 1614.92,828.143 1623.28,811.234 1631.63,795.326 1639.99,780.349 1648.34,766.253 1656.7,752.98 1665.05,740.486 1673.41,728.721 
  1681.76,717.635 1690.12,707.186 1698.47,697.341 1706.83,688.059 1715.18,679.312 1723.54,671.067 1731.89,663.3 1740.25,655.98 1748.6,649.086 1756.96,642.593 
  1765.31,636.482 1773.67,630.744 1782.02,625.334 1790.38,620.251 1798.73,615.474 1807.09,610.992 1815.44,606.788 1823.8,602.849 1832.15,599.163 1840.51,595.717 
  1848.86,592.499 1857.22,589.5 1865.57,586.709 1873.93,584.116 1882.28,581.713 1890.64,579.491 1898.99,577.441 1907.35,575.557 1915.7,573.83 1924.06,572.255 
  1932.41,570.824 1940.77,569.531 1949.12,568.371 1957.48,567.339 1965.83,566.427 1974.19,565.633 1982.54,564.95 1990.9,564.375 1999.25,563.903 2007.61,563.53 
  
  "/>
<polyline clip-path="url(#clip042)" style="stroke:#00a98d; stroke-linecap:butt; stroke-linejoin:round; stroke-width:4; stroke-opacity:1; fill:none" points="
  1240.16,1011.41 1248.51,1013.82 1256.87,1016.23 1265.22,1018.64 1273.58,1021.06 1281.93,1023.47 1290.29,1025.88 1298.64,1028.29 1307,1030.7 1315.35,1033.12 
  1323.71,1035.53 1332.06,1037.94 1340.42,1040.35 1348.77,1042.76 1357.13,1045.17 1365.48,1047.59 1373.84,1050 1382.19,1052.41 1390.55,1054.82 1398.9,1057.23 
  1407.26,1059.65 1415.61,1062.06 1423.97,1064.47 1432.32,1066.88 1440.68,1069.29 1449.03,1071.7 1457.39,1074.12 1465.74,1076.53 1474.1,1078.94 1482.45,1081.35 
  1490.81,1083.76 1499.16,1086.17 1507.52,1088.59 1515.87,1091 1524.23,1093.41 1532.58,1095.82 1540.94,1098.23 1549.29,1100.64 1557.65,1103.05 1566,1105.46 
  1574.36,1107.87 1582.71,1110.28 1591.07,1112.69 1599.42,1115.09 1607.78,1117.46 1616.13,1119.64 1624.49,1119.9 1632.84,1101.74 1641.2,1035.62 1649.55,987.535 
  1657.91,958.866 1666.26,934.444 1674.62,911.712 1682.97,890.3 1691.33,870.094 1699.68,851.016 1708.04,832.993 1716.39,815.961 1724.75,799.858 1733.1,784.628 
  1741.46,770.221 1749.81,756.589 1758.17,743.68 1766.52,731.469 1774.88,719.911 1783.23,708.966 1791.59,698.6 1799.94,688.782 1808.3,679.481 1816.65,670.672 
  1825.01,662.327 1833.36,654.424 1841.72,646.941 1850.07,639.854 1858.43,633.147 1866.78,626.798 1875.14,620.792 1883.49,615.111 1891.85,609.74 1900.2,604.666 
  1908.56,599.873 1916.91,595.349 1925.27,591.082 1933.62,587.06 1941.97,583.272 1950.33,579.708 1958.68,576.359 1967.04,573.214 1975.39,570.266 1983.75,567.505 
  1992.1,564.941 2000.46,562.531 2008.81,560.286 2017.17,558.2 2025.52,556.266 2033.88,554.477 2042.23,552.829 2050.59,551.315 2058.94,549.93 2067.3,548.67 
  
  "/>
</svg>
