<?xml version="1.0" encoding="utf-8"?>
<svg xmlns="http://www.w3.org/2000/svg" xmlns:xlink="http://www.w3.org/1999/xlink" width="672" height="480" viewBox="0 0 2688 1920">
<defs>
  <clipPath id="clip710">
    <rect x="0" y="0" width="2688" height="1920"/>
  </clipPath>
</defs>
<path clip-path="url(#clip710)" d="
M0 1920 L2688 1920 L2688 0 L0 0  Z
  " fill="#ffffff" fill-rule="evenodd" fill-opacity="1"/>
<defs>
  <clipPath id="clip711">
    <rect x="537" y="0" width="1883" height="1883"/>
  </clipPath>
</defs>
<path clip-path="url(#clip710)" d="
M173.737 1800.78 L2640.76 1800.78 L2640.76 47.2441 L173.737 47.2441  Z
  " fill="#ffffff" fill-rule="evenodd" fill-opacity="1"/>
<defs>
  <clipPath id="clip712">
    <rect x="173" y="47" width="2468" height="1755"/>
  </clipPath>
</defs>
<polyline clip-path="url(#clip712)" style="stroke:#000000; stroke-linecap:butt; stroke-linejoin:round; stroke-width:2; stroke-opacity:0.1; fill:none" points="
  243.559,1800.78 243.559,47.2441 
  "/>
<polyline clip-path="url(#clip712)" style="stroke:#000000; stroke-linecap:butt; stroke-linejoin:round; stroke-width:2; stroke-opacity:0.1; fill:none" points="
  659.337,1800.78 659.337,47.2441 
  "/>
<polyline clip-path="url(#clip712)" style="stroke:#000000; stroke-linecap:butt; stroke-linejoin:round; stroke-width:2; stroke-opacity:0.1; fill:none" points="
  1075.12,1800.78 1075.12,47.2441 
  "/>
<polyline clip-path="url(#clip712)" style="stroke:#000000; stroke-linecap:butt; stroke-linejoin:round; stroke-width:2; stroke-opacity:0.1; fill:none" points="
  1490.89,1800.78 1490.89,47.2441 
  "/>
<polyline clip-path="url(#clip712)" style="stroke:#000000; stroke-linecap:butt; stroke-linejoin:round; stroke-width:2; stroke-opacity:0.1; fill:none" points="
  1906.67,1800.78 1906.67,47.2441 
  "/>
<polyline clip-path="url(#clip712)" style="stroke:#000000; stroke-linecap:butt; stroke-linejoin:round; stroke-width:2; stroke-opacity:0.1; fill:none" points="
  2322.45,1800.78 2322.45,47.2441 
  "/>
<polyline clip-path="url(#clip710)" style="stroke:#000000; stroke-linecap:butt; stroke-linejoin:round; stroke-width:4; stroke-opacity:1; fill:none" points="
  173.737,1800.78 2640.76,1800.78 
  "/>
<polyline clip-path="url(#clip710)" style="stroke:#000000; stroke-linecap:butt; stroke-linejoin:round; stroke-width:4; stroke-opacity:1; fill:none" points="
  243.559,1800.78 243.559,1781.88 
  "/>
<polyline clip-path="url(#clip710)" style="stroke:#000000; stroke-linecap:butt; stroke-linejoin:round; stroke-width:4; stroke-opacity:1; fill:none" points="
  659.337,1800.78 659.337,1781.88 
  "/>
<polyline clip-path="url(#clip710)" style="stroke:#000000; stroke-linecap:butt; stroke-linejoin:round; stroke-width:4; stroke-opacity:1; fill:none" points="
  1075.12,1800.78 1075.12,1781.88 
  "/>
<polyline clip-path="url(#clip710)" style="stroke:#000000; stroke-linecap:butt; stroke-linejoin:round; stroke-width:4; stroke-opacity:1; fill:none" points="
  1490.89,1800.78 1490.89,1781.88 
  "/>
<polyline clip-path="url(#clip710)" style="stroke:#000000; stroke-linecap:butt; stroke-linejoin:round; stroke-width:4; stroke-opacity:1; fill:none" points="
  1906.67,1800.78 1906.67,1781.88 
  "/>
<polyline clip-path="url(#clip710)" style="stroke:#000000; stroke-linecap:butt; stroke-linejoin:round; stroke-width:4; stroke-opacity:1; fill:none" points="
  2322.45,1800.78 2322.45,1781.88 
  "/>
<path clip-path="url(#clip710)" d="M243.559 1834 Q239.948 1834 238.119 1837.57 Q236.313 1841.11 236.313 1848.24 Q236.313 1855.34 238.119 1858.91 Q239.948 1862.45 243.559 1862.45 Q247.193 1862.45 248.998 1858.91 Q250.827 1855.34 250.827 1848.24 Q250.827 1841.11 248.998 1837.57 Q247.193 1834 243.559 1834 M243.559 1830.3 Q249.369 1830.3 252.424 1834.9 Q255.503 1839.49 255.503 1848.24 Q255.503 1856.96 252.424 1861.57 Q249.369 1866.15 243.559 1866.15 Q237.749 1866.15 234.67 1861.57 Q231.614 1856.96 231.614 1848.24 Q231.614 1839.49 234.67 1834.9 Q237.749 1830.3 243.559 1830.3 Z" fill="#000000" fill-rule="evenodd" fill-opacity="1" /><path clip-path="url(#clip710)" d="M618.944 1861.55 L626.583 1861.55 L626.583 1835.18 L618.273 1836.85 L618.273 1832.59 L626.536 1830.92 L631.212 1830.92 L631.212 1861.55 L638.851 1861.55 L638.851 1865.48 L618.944 1865.48 L618.944 1861.55 Z" fill="#000000" fill-rule="evenodd" fill-opacity="1" /><path clip-path="url(#clip710)" d="M658.296 1834 Q654.684 1834 652.856 1837.57 Q651.05 1841.11 651.05 1848.24 Q651.05 1855.34 652.856 1858.91 Q654.684 1862.45 658.296 1862.45 Q661.93 1862.45 663.735 1858.91 Q665.564 1855.34 665.564 1848.24 Q665.564 1841.11 663.735 1837.57 Q661.93 1834 658.296 1834 M658.296 1830.3 Q664.106 1830.3 667.161 1834.9 Q670.24 1839.49 670.24 1848.24 Q670.24 1856.96 667.161 1861.57 Q664.106 1866.15 658.296 1866.15 Q652.485 1866.15 649.407 1861.57 Q646.351 1856.96 646.351 1848.24 Q646.351 1839.49 649.407 1834.9 Q652.485 1830.3 658.296 1830.3 Z" fill="#000000" fill-rule="evenodd" fill-opacity="1" /><path clip-path="url(#clip710)" d="M688.457 1834 Q684.846 1834 683.018 1837.57 Q681.212 1841.11 681.212 1848.24 Q681.212 1855.34 683.018 1858.91 Q684.846 1862.45 688.457 1862.45 Q692.092 1862.45 693.897 1858.91 Q695.726 1855.34 695.726 1848.24 Q695.726 1841.11 693.897 1837.57 Q692.092 1834 688.457 1834 M688.457 1830.3 Q694.268 1830.3 697.323 1834.9 Q700.402 1839.49 700.402 1848.24 Q700.402 1856.96 697.323 1861.57 Q694.268 1866.15 688.457 1866.15 Q682.647 1866.15 679.569 1861.57 Q676.513 1856.96 676.513 1848.24 Q676.513 1839.49 679.569 1834.9 Q682.647 1830.3 688.457 1830.3 Z" fill="#000000" fill-rule="evenodd" fill-opacity="1" /><path clip-path="url(#clip710)" d="M1038.81 1861.55 L1055.13 1861.55 L1055.13 1865.48 L1033.18 1865.48 L1033.18 1861.55 Q1035.85 1858.79 1040.43 1854.16 Q1045.03 1849.51 1046.22 1848.17 Q1048.46 1845.65 1049.34 1843.91 Q1050.24 1842.15 1050.24 1840.46 Q1050.24 1837.71 1048.3 1835.97 Q1046.38 1834.23 1043.28 1834.23 Q1041.08 1834.23 1038.62 1835 Q1036.19 1835.76 1033.41 1837.31 L1033.41 1832.59 Q1036.24 1831.46 1038.69 1830.88 Q1041.15 1830.3 1043.18 1830.3 Q1048.55 1830.3 1051.75 1832.98 Q1054.94 1835.67 1054.94 1840.16 Q1054.94 1842.29 1054.13 1844.21 Q1053.34 1846.11 1051.24 1848.7 Q1050.66 1849.37 1047.56 1852.59 Q1044.46 1855.78 1038.81 1861.55 Z" fill="#000000" fill-rule="evenodd" fill-opacity="1" /><path clip-path="url(#clip710)" d="M1074.94 1834 Q1071.33 1834 1069.5 1837.57 Q1067.7 1841.11 1067.7 1848.24 Q1067.7 1855.34 1069.5 1858.91 Q1071.33 1862.45 1074.94 1862.45 Q1078.58 1862.45 1080.38 1858.91 Q1082.21 1855.34 1082.21 1848.24 Q1082.21 1841.11 1080.38 1837.57 Q1078.58 1834 1074.94 1834 M1074.94 1830.3 Q1080.75 1830.3 1083.81 1834.9 Q1086.89 1839.49 1086.89 1848.24 Q1086.89 1856.96 1083.81 1861.57 Q1080.75 1866.15 1074.94 1866.15 Q1069.13 1866.15 1066.05 1861.57 Q1063 1856.96 1063 1848.24 Q1063 1839.49 1066.05 1834.9 Q1069.13 1830.3 1074.94 1830.3 Z" fill="#000000" fill-rule="evenodd" fill-opacity="1" /><path clip-path="url(#clip710)" d="M1105.1 1834 Q1101.49 1834 1099.66 1837.57 Q1097.86 1841.11 1097.86 1848.24 Q1097.86 1855.34 1099.66 1858.91 Q1101.49 1862.45 1105.1 1862.45 Q1108.74 1862.45 1110.54 1858.91 Q1112.37 1855.34 1112.37 1848.24 Q1112.37 1841.11 1110.54 1837.57 Q1108.74 1834 1105.1 1834 M1105.1 1830.3 Q1110.91 1830.3 1113.97 1834.9 Q1117.05 1839.49 1117.05 1848.24 Q1117.05 1856.96 1113.97 1861.57 Q1110.91 1866.15 1105.1 1866.15 Q1099.29 1866.15 1096.22 1861.57 Q1093.16 1856.96 1093.16 1848.24 Q1093.16 1839.49 1096.22 1834.9 Q1099.29 1830.3 1105.1 1830.3 Z" fill="#000000" fill-rule="evenodd" fill-opacity="1" /><path clip-path="url(#clip710)" d="M1464.66 1846.85 Q1468.01 1847.57 1469.89 1849.84 Q1471.79 1852.1 1471.79 1855.44 Q1471.79 1860.55 1468.27 1863.35 Q1464.75 1866.15 1458.27 1866.15 Q1456.09 1866.15 1453.78 1865.71 Q1451.48 1865.3 1449.03 1864.44 L1449.03 1859.93 Q1450.98 1861.06 1453.29 1861.64 Q1455.6 1862.22 1458.13 1862.22 Q1462.53 1862.22 1464.82 1860.48 Q1467.13 1858.75 1467.13 1855.44 Q1467.13 1852.38 1464.98 1850.67 Q1462.85 1848.93 1459.03 1848.93 L1455 1848.93 L1455 1845.09 L1459.22 1845.09 Q1462.67 1845.09 1464.49 1843.72 Q1466.32 1842.34 1466.32 1839.74 Q1466.32 1837.08 1464.42 1835.67 Q1462.55 1834.23 1459.03 1834.23 Q1457.11 1834.23 1454.91 1834.65 Q1452.71 1835.07 1450.07 1835.95 L1450.07 1831.78 Q1452.73 1831.04 1455.05 1830.67 Q1457.39 1830.3 1459.45 1830.3 Q1464.77 1830.3 1467.87 1832.73 Q1470.98 1835.14 1470.98 1839.26 Q1470.98 1842.13 1469.33 1844.12 Q1467.69 1846.09 1464.66 1846.85 Z" fill="#000000" fill-rule="evenodd" fill-opacity="1" /><path clip-path="url(#clip710)" d="M1490.65 1834 Q1487.04 1834 1485.21 1837.57 Q1483.41 1841.11 1483.41 1848.24 Q1483.41 1855.34 1485.21 1858.91 Q1487.04 1862.45 1490.65 1862.45 Q1494.29 1862.45 1496.09 1858.91 Q1497.92 1855.34 1497.92 1848.24 Q1497.92 1841.11 1496.09 1837.57 Q1494.29 1834 1490.65 1834 M1490.65 1830.3 Q1496.46 1830.3 1499.52 1834.9 Q1502.6 1839.49 1502.6 1848.24 Q1502.6 1856.96 1499.52 1861.57 Q1496.46 1866.15 1490.65 1866.15 Q1484.84 1866.15 1481.76 1861.57 Q1478.71 1856.96 1478.71 1848.24 Q1478.71 1839.49 1481.76 1834.9 Q1484.84 1830.3 1490.65 1830.3 Z" fill="#000000" fill-rule="evenodd" fill-opacity="1" /><path clip-path="url(#clip710)" d="M1520.81 1834 Q1517.2 1834 1515.37 1837.57 Q1513.57 1841.11 1513.57 1848.24 Q1513.57 1855.34 1515.37 1858.91 Q1517.2 1862.45 1520.81 1862.45 Q1524.45 1862.45 1526.25 1858.91 Q1528.08 1855.34 1528.08 1848.24 Q1528.08 1841.11 1526.25 1837.57 Q1524.45 1834 1520.81 1834 M1520.81 1830.3 Q1526.62 1830.3 1529.68 1834.9 Q1532.76 1839.49 1532.76 1848.24 Q1532.76 1856.96 1529.68 1861.57 Q1526.62 1866.15 1520.81 1866.15 Q1515 1866.15 1511.92 1861.57 Q1508.87 1856.96 1508.87 1848.24 Q1508.87 1839.49 1511.92 1834.9 Q1515 1830.3 1520.81 1830.3 Z" fill="#000000" fill-rule="evenodd" fill-opacity="1" /><path clip-path="url(#clip710)" d="M1879.76 1835 L1867.96 1853.45 L1879.76 1853.45 L1879.76 1835 M1878.54 1830.92 L1884.42 1830.92 L1884.42 1853.45 L1889.35 1853.45 L1889.35 1857.34 L1884.42 1857.34 L1884.42 1865.48 L1879.76 1865.48 L1879.76 1857.34 L1864.16 1857.34 L1864.16 1852.82 L1878.54 1830.92 Z" fill="#000000" fill-rule="evenodd" fill-opacity="1" /><path clip-path="url(#clip710)" d="M1907.08 1834 Q1903.47 1834 1901.64 1837.57 Q1899.83 1841.11 1899.83 1848.24 Q1899.83 1855.34 1901.64 1858.91 Q1903.47 1862.45 1907.08 1862.45 Q1910.71 1862.45 1912.52 1858.91 Q1914.35 1855.34 1914.35 1848.24 Q1914.35 1841.11 1912.52 1837.57 Q1910.71 1834 1907.08 1834 M1907.08 1830.3 Q1912.89 1830.3 1915.94 1834.9 Q1919.02 1839.49 1919.02 1848.24 Q1919.02 1856.96 1915.94 1861.57 Q1912.89 1866.15 1907.08 1866.15 Q1901.27 1866.15 1898.19 1861.57 Q1895.13 1856.96 1895.13 1848.24 Q1895.13 1839.49 1898.19 1834.9 Q1901.27 1830.3 1907.08 1830.3 Z" fill="#000000" fill-rule="evenodd" fill-opacity="1" /><path clip-path="url(#clip710)" d="M1937.24 1834 Q1933.63 1834 1931.8 1837.57 Q1929.99 1841.11 1929.99 1848.24 Q1929.99 1855.34 1931.8 1858.91 Q1933.63 1862.45 1937.24 1862.45 Q1940.87 1862.45 1942.68 1858.91 Q1944.51 1855.34 1944.51 1848.24 Q1944.51 1841.11 1942.68 1837.57 Q1940.87 1834 1937.24 1834 M1937.24 1830.3 Q1943.05 1830.3 1946.11 1834.9 Q1949.18 1839.49 1949.18 1848.24 Q1949.18 1856.96 1946.11 1861.57 Q1943.05 1866.15 1937.24 1866.15 Q1931.43 1866.15 1928.35 1861.57 Q1925.3 1856.96 1925.3 1848.24 Q1925.3 1839.49 1928.35 1834.9 Q1931.43 1830.3 1937.24 1830.3 Z" fill="#000000" fill-rule="evenodd" fill-opacity="1" /><path clip-path="url(#clip710)" d="M2282.07 1830.92 L2300.43 1830.92 L2300.43 1834.86 L2286.35 1834.86 L2286.35 1843.33 Q2287.37 1842.98 2288.39 1842.82 Q2289.41 1842.64 2290.43 1842.64 Q2296.21 1842.64 2299.59 1845.81 Q2302.97 1848.98 2302.97 1854.4 Q2302.97 1859.97 2299.5 1863.08 Q2296.03 1866.15 2289.71 1866.15 Q2287.53 1866.15 2285.26 1865.78 Q2283.02 1865.41 2280.61 1864.67 L2280.61 1859.97 Q2282.69 1861.11 2284.92 1861.66 Q2287.14 1862.22 2289.62 1862.22 Q2293.62 1862.22 2295.96 1860.11 Q2298.3 1858.01 2298.3 1854.4 Q2298.3 1850.78 2295.96 1848.68 Q2293.62 1846.57 2289.62 1846.57 Q2287.74 1846.57 2285.87 1846.99 Q2284.01 1847.4 2282.07 1848.28 L2282.07 1830.92 Z" fill="#000000" fill-rule="evenodd" fill-opacity="1" /><path clip-path="url(#clip710)" d="M2322.18 1834 Q2318.57 1834 2316.75 1837.57 Q2314.94 1841.11 2314.94 1848.24 Q2314.94 1855.34 2316.75 1858.91 Q2318.57 1862.45 2322.18 1862.45 Q2325.82 1862.45 2327.62 1858.91 Q2329.45 1855.34 2329.45 1848.24 Q2329.45 1841.11 2327.62 1837.57 Q2325.82 1834 2322.18 1834 M2322.18 1830.3 Q2328 1830.3 2331.05 1834.9 Q2334.13 1839.49 2334.13 1848.24 Q2334.13 1856.96 2331.05 1861.57 Q2328 1866.15 2322.18 1866.15 Q2316.37 1866.15 2313.3 1861.57 Q2310.24 1856.96 2310.24 1848.24 Q2310.24 1839.49 2313.3 1834.9 Q2316.37 1830.3 2322.18 1830.3 Z" fill="#000000" fill-rule="evenodd" fill-opacity="1" /><path clip-path="url(#clip710)" d="M2352.35 1834 Q2348.74 1834 2346.91 1837.57 Q2345.1 1841.11 2345.1 1848.24 Q2345.1 1855.34 2346.91 1858.91 Q2348.74 1862.45 2352.35 1862.45 Q2355.98 1862.45 2357.79 1858.91 Q2359.62 1855.34 2359.62 1848.24 Q2359.62 1841.11 2357.79 1837.57 Q2355.98 1834 2352.35 1834 M2352.35 1830.3 Q2358.16 1830.3 2361.21 1834.9 Q2364.29 1839.49 2364.29 1848.24 Q2364.29 1856.96 2361.21 1861.57 Q2358.16 1866.15 2352.35 1866.15 Q2346.54 1866.15 2343.46 1861.57 Q2340.4 1856.96 2340.4 1848.24 Q2340.4 1839.49 2343.46 1834.9 Q2346.54 1830.3 2352.35 1830.3 Z" fill="#000000" fill-rule="evenodd" fill-opacity="1" /><polyline clip-path="url(#clip712)" style="stroke:#000000; stroke-linecap:butt; stroke-linejoin:round; stroke-width:2; stroke-opacity:0.1; fill:none" points="
  173.737,1751.15 2640.76,1751.15 
  "/>
<polyline clip-path="url(#clip712)" style="stroke:#000000; stroke-linecap:butt; stroke-linejoin:round; stroke-width:2; stroke-opacity:0.1; fill:none" points="
  173.737,1243.92 2640.76,1243.92 
  "/>
<polyline clip-path="url(#clip712)" style="stroke:#000000; stroke-linecap:butt; stroke-linejoin:round; stroke-width:2; stroke-opacity:0.1; fill:none" points="
  173.737,736.68 2640.76,736.68 
  "/>
<polyline clip-path="url(#clip712)" style="stroke:#000000; stroke-linecap:butt; stroke-linejoin:round; stroke-width:2; stroke-opacity:0.1; fill:none" points="
  173.737,229.445 2640.76,229.445 
  "/>
<polyline clip-path="url(#clip710)" style="stroke:#000000; stroke-linecap:butt; stroke-linejoin:round; stroke-width:4; stroke-opacity:1; fill:none" points="
  173.737,1800.78 173.737,47.2441 
  "/>
<polyline clip-path="url(#clip710)" style="stroke:#000000; stroke-linecap:butt; stroke-linejoin:round; stroke-width:4; stroke-opacity:1; fill:none" points="
  173.737,1751.15 192.635,1751.15 
  "/>
<polyline clip-path="url(#clip710)" style="stroke:#000000; stroke-linecap:butt; stroke-linejoin:round; stroke-width:4; stroke-opacity:1; fill:none" points="
  173.737,1243.92 192.635,1243.92 
  "/>
<polyline clip-path="url(#clip710)" style="stroke:#000000; stroke-linecap:butt; stroke-linejoin:round; stroke-width:4; stroke-opacity:1; fill:none" points="
  173.737,736.68 192.635,736.68 
  "/>
<polyline clip-path="url(#clip710)" style="stroke:#000000; stroke-linecap:butt; stroke-linejoin:round; stroke-width:4; stroke-opacity:1; fill:none" points="
  173.737,229.445 192.635,229.445 
  "/>
<path clip-path="url(#clip710)" d="M121.473 1736.95 Q117.862 1736.95 116.033 1740.51 Q114.228 1744.06 114.228 1751.19 Q114.228 1758.29 116.033 1761.86 Q117.862 1765.4 121.473 1765.4 Q125.107 1765.4 126.913 1761.86 Q128.742 1758.29 128.742 1751.19 Q128.742 1744.06 126.913 1740.51 Q125.107 1736.95 121.473 1736.95 M121.473 1733.25 Q127.283 1733.25 130.339 1737.85 Q133.417 1742.44 133.417 1751.19 Q133.417 1759.91 130.339 1764.52 Q127.283 1769.1 121.473 1769.1 Q115.663 1769.1 112.584 1764.52 Q109.529 1759.91 109.529 1751.19 Q109.529 1742.44 112.584 1737.85 Q115.663 1733.25 121.473 1733.25 Z" fill="#000000" fill-rule="evenodd" fill-opacity="1" /><path clip-path="url(#clip710)" d="M51.9595 1257.26 L59.5984 1257.26 L59.5984 1230.89 L51.2882 1232.56 L51.2882 1228.3 L59.5521 1226.64 L64.228 1226.64 L64.228 1257.26 L71.8668 1257.26 L71.8668 1261.2 L51.9595 1261.2 L51.9595 1257.26 Z" fill="#000000" fill-rule="evenodd" fill-opacity="1" /><path clip-path="url(#clip710)" d="M91.3112 1229.71 Q87.7001 1229.71 85.8714 1233.28 Q84.0658 1236.82 84.0658 1243.95 Q84.0658 1251.06 85.8714 1254.62 Q87.7001 1258.16 91.3112 1258.16 Q94.9454 1258.16 96.7509 1254.62 Q98.5796 1251.06 98.5796 1243.95 Q98.5796 1236.82 96.7509 1233.28 Q94.9454 1229.71 91.3112 1229.71 M91.3112 1226.01 Q97.1213 1226.01 100.177 1230.62 Q103.256 1235.2 103.256 1243.95 Q103.256 1252.68 100.177 1257.28 Q97.1213 1261.87 91.3112 1261.87 Q85.501 1261.87 82.4223 1257.28 Q79.3668 1252.68 79.3668 1243.95 Q79.3668 1235.2 82.4223 1230.62 Q85.501 1226.01 91.3112 1226.01 Z" fill="#000000" fill-rule="evenodd" fill-opacity="1" /><path clip-path="url(#clip710)" d="M121.473 1229.71 Q117.862 1229.71 116.033 1233.28 Q114.228 1236.82 114.228 1243.95 Q114.228 1251.06 116.033 1254.62 Q117.862 1258.16 121.473 1258.16 Q125.107 1258.16 126.913 1254.62 Q128.742 1251.06 128.742 1243.95 Q128.742 1236.82 126.913 1233.28 Q125.107 1229.71 121.473 1229.71 M121.473 1226.01 Q127.283 1226.01 130.339 1230.62 Q133.417 1235.2 133.417 1243.95 Q133.417 1252.68 130.339 1257.28 Q127.283 1261.87 121.473 1261.87 Q115.663 1261.87 112.584 1257.28 Q109.529 1252.68 109.529 1243.95 Q109.529 1235.2 112.584 1230.62 Q115.663 1226.01 121.473 1226.01 Z" fill="#000000" fill-rule="evenodd" fill-opacity="1" /><path clip-path="url(#clip710)" d="M55.1771 750.025 L71.4965 750.025 L71.4965 753.96 L49.5521 753.96 L49.5521 750.025 Q52.2141 747.27 56.7975 742.641 Q61.4039 737.988 62.5845 736.645 Q64.8298 734.122 65.7094 732.386 Q66.6122 730.627 66.6122 728.937 Q66.6122 726.182 64.6678 724.446 Q62.7465 722.71 59.6447 722.71 Q57.4456 722.71 54.9919 723.474 Q52.5614 724.238 49.7836 725.789 L49.7836 721.067 Q52.6077 719.932 55.0614 719.354 Q57.515 718.775 59.5521 718.775 Q64.9224 718.775 68.1168 721.46 Q71.3113 724.145 71.3113 728.636 Q71.3113 730.766 70.5011 732.687 Q69.7141 734.585 67.6076 737.178 Q67.0289 737.849 63.927 741.067 Q60.8252 744.261 55.1771 750.025 Z" fill="#000000" fill-rule="evenodd" fill-opacity="1" /><path clip-path="url(#clip710)" d="M91.3112 722.479 Q87.7001 722.479 85.8714 726.043 Q84.0658 729.585 84.0658 736.715 Q84.0658 743.821 85.8714 747.386 Q87.7001 750.928 91.3112 750.928 Q94.9454 750.928 96.7509 747.386 Q98.5796 743.821 98.5796 736.715 Q98.5796 729.585 96.7509 726.043 Q94.9454 722.479 91.3112 722.479 M91.3112 718.775 Q97.1213 718.775 100.177 723.381 Q103.256 727.965 103.256 736.715 Q103.256 745.442 100.177 750.048 Q97.1213 754.631 91.3112 754.631 Q85.501 754.631 82.4223 750.048 Q79.3668 745.442 79.3668 736.715 Q79.3668 727.965 82.4223 723.381 Q85.501 718.775 91.3112 718.775 Z" fill="#000000" fill-rule="evenodd" fill-opacity="1" /><path clip-path="url(#clip710)" d="M121.473 722.479 Q117.862 722.479 116.033 726.043 Q114.228 729.585 114.228 736.715 Q114.228 743.821 116.033 747.386 Q117.862 750.928 121.473 750.928 Q125.107 750.928 126.913 747.386 Q128.742 743.821 128.742 736.715 Q128.742 729.585 126.913 726.043 Q125.107 722.479 121.473 722.479 M121.473 718.775 Q127.283 718.775 130.339 723.381 Q133.417 727.965 133.417 736.715 Q133.417 745.442 130.339 750.048 Q127.283 754.631 121.473 754.631 Q115.663 754.631 112.584 750.048 Q109.529 745.442 109.529 736.715 Q109.529 727.965 112.584 723.381 Q115.663 718.775 121.473 718.775 Z" fill="#000000" fill-rule="evenodd" fill-opacity="1" /><path clip-path="url(#clip710)" d="M65.3159 228.09 Q68.6724 228.808 70.5474 231.076 Q72.4455 233.345 72.4455 236.678 Q72.4455 241.794 68.927 244.595 Q65.4085 247.396 58.9271 247.396 Q56.7512 247.396 54.4364 246.956 Q52.1447 246.539 49.691 245.683 L49.691 241.169 Q51.6354 242.303 53.9503 242.882 Q56.2651 243.461 58.7882 243.461 Q63.1863 243.461 65.478 241.725 Q67.7928 239.988 67.7928 236.678 Q67.7928 233.623 65.64 231.91 Q63.5104 230.174 59.691 230.174 L55.6632 230.174 L55.6632 226.331 L59.8761 226.331 Q63.3252 226.331 65.1539 224.965 Q66.9826 223.577 66.9826 220.984 Q66.9826 218.322 65.0845 216.91 Q63.2095 215.475 59.691 215.475 Q57.7697 215.475 55.5706 215.891 Q53.3715 216.308 50.7327 217.188 L50.7327 213.021 Q53.3947 212.28 55.7095 211.91 Q58.0475 211.54 60.1076 211.54 Q65.4317 211.54 68.5335 213.97 Q71.6353 216.377 71.6353 220.498 Q71.6353 223.368 69.9918 225.359 Q68.3483 227.326 65.3159 228.09 Z" fill="#000000" fill-rule="evenodd" fill-opacity="1" /><path clip-path="url(#clip710)" d="M91.3112 215.243 Q87.7001 215.243 85.8714 218.808 Q84.0658 222.35 84.0658 229.479 Q84.0658 236.586 85.8714 240.15 Q87.7001 243.692 91.3112 243.692 Q94.9454 243.692 96.7509 240.15 Q98.5796 236.586 98.5796 229.479 Q98.5796 222.35 96.7509 218.808 Q94.9454 215.243 91.3112 215.243 M91.3112 211.54 Q97.1213 211.54 100.177 216.146 Q103.256 220.729 103.256 229.479 Q103.256 238.206 100.177 242.813 Q97.1213 247.396 91.3112 247.396 Q85.501 247.396 82.4223 242.813 Q79.3668 238.206 79.3668 229.479 Q79.3668 220.729 82.4223 216.146 Q85.501 211.54 91.3112 211.54 Z" fill="#000000" fill-rule="evenodd" fill-opacity="1" /><path clip-path="url(#clip710)" d="M121.473 215.243 Q117.862 215.243 116.033 218.808 Q114.228 222.35 114.228 229.479 Q114.228 236.586 116.033 240.15 Q117.862 243.692 121.473 243.692 Q125.107 243.692 126.913 240.15 Q128.742 236.586 128.742 229.479 Q128.742 222.35 126.913 218.808 Q125.107 215.243 121.473 215.243 M121.473 211.54 Q127.283 211.54 130.339 216.146 Q133.417 220.729 133.417 229.479 Q133.417 238.206 130.339 242.813 Q127.283 247.396 121.473 247.396 Q115.663 247.396 112.584 242.813 Q109.529 238.206 109.529 229.479 Q109.529 220.729 112.584 216.146 Q115.663 211.54 121.473 211.54 Z" fill="#000000" fill-rule="evenodd" fill-opacity="1" /><polyline clip-path="url(#clip712)" style="stroke:#009af9; stroke-linecap:butt; stroke-linejoin:round; stroke-width:4; stroke-opacity:1; fill:none" points="
  243.559,1751.15 327.31,1649.49 408.08,1552.48 485.973,1459.95 561.093,1371.75 633.537,1287.71 703.402,1207.68 770.779,1131.54 835.757,1059.13 898.422,990.334 
  958.855,925.01 1017.14,863.039 1073.34,804.301 1127.54,748.683 1179.82,696.071 1230.23,646.36 1278.85,599.445 1325.74,555.227 1370.95,513.612 1414.56,474.506 
  1456.61,437.819 1497.17,403.465 1536.28,371.362 1574,341.428 1610.38,313.586 1645.46,287.762 1679.29,263.885 1711.92,241.885 1743.38,221.697 1773.73,203.254 
  1802.99,186.495 1831.21,171.36 1858.43,157.791 1884.68,145.731 1909.99,135.127 1934.41,125.926 1957.95,118.08 1980.65,111.54 2002.55,106.261 2023.67,102.197 
  2044.03,99.3056 2063.67,97.5442 2082.61,96.8724 2100.87,97.2514 2118.49,98.6434 2135.47,101.012 2151.86,104.323 2167.66,108.542 2182.9,113.637 2197.59,119.578 
  2211.76,126.335 2225.43,133.879 2238.61,142.182 2251.32,151.216 2263.58,160.955 2275.4,171.375 2286.8,182.45 2297.79,194.157 2308.39,206.474 2318.62,219.378 
  2328.48,232.849 2337.99,246.867 2347.17,261.413 2356.01,276.468 2364.54,292.015 2372.77,308.035 2380.7,324.513 2388.35,341.431 2395.73,358.773 2402.84,376.526 
  2409.7,394.672 2416.32,413.2 2422.7,432.094 2428.86,451.341 2434.8,470.929 2440.52,490.846 2446.04,511.08 2451.37,531.621 2456.5,552.457 2461.46,573.579 
  2466.23,594.976 2470.84,616.638 2475.28,638.557 2479.56,660.722 2483.69,683.125 2487.67,705.757 2491.51,728.611 2495.22,751.677 2498.79,774.949 2502.23,798.418 
  2505.56,822.078 2508.76,845.922 2511.85,869.943 2514.84,894.135 2517.71,918.492 2520.48,943.01 2523.16,967.681 2525.74,992.501 2528.22,1017.47 2530.62,1042.57 
  2532.93,1067.8 2535.16,1093.17 2537.31,1118.65 2539.38,1144.26 2541.38,1169.98 2543.31,1195.82 2545.17,1221.76 2546.97,1247.8 2548.7,1273.94 2550.36,1300.18 
  2551.97,1326.51 2553.53,1352.93 2555.02,1379.43 2556.47,1406.02 2557.86,1432.69 2559.2,1459.44 2560.5,1486.26 2561.75,1513.15 2562.95,1540.11 2564.11,1567.14 
  2565.23,1594.23 2566.31,1621.39 2567.35,1648.61 2568.35,1675.88 2569.32,1703.21 2570.26,1730.59 2570.93,1751.15 
  
  
  
  
  
  
  
  
  "/>
</svg>
