<?xml version="1.0" encoding="utf-8"?>
<svg xmlns="http://www.w3.org/2000/svg" xmlns:xlink="http://www.w3.org/1999/xlink" width="672" height="480" viewBox="0 0 2688 1920">
<defs>
  <clipPath id="clip570">
    <rect x="0" y="0" width="2688" height="1920"/>
  </clipPath>
</defs>
<path clip-path="url(#clip570)" d="
M0 1920 L2688 1920 L2688 0 L0 0  Z
  " fill="#ffffff" fill-rule="evenodd" fill-opacity="1"/>
<defs>
  <clipPath id="clip571">
    <rect x="537" y="0" width="1883" height="1883"/>
  </clipPath>
</defs>
<path clip-path="url(#clip570)" d="
M189.154 1800.78 L2640.76 1800.78 L2640.76 47.2441 L189.154 47.2441  Z
  " fill="#ffffff" fill-rule="evenodd" fill-opacity="1"/>
<defs>
  <clipPath id="clip572">
    <rect x="189" y="47" width="2453" height="1755"/>
  </clipPath>
</defs>
<polyline clip-path="url(#clip572)" style="stroke:#000000; stroke-linecap:butt; stroke-linejoin:round; stroke-width:2; stroke-opacity:0.1; fill:none" points="
  258.539,1800.78 258.539,47.2441 
  "/>
<polyline clip-path="url(#clip572)" style="stroke:#000000; stroke-linecap:butt; stroke-linejoin:round; stroke-width:2; stroke-opacity:0.1; fill:none" points="
  836.747,1800.78 836.747,47.2441 
  "/>
<polyline clip-path="url(#clip572)" style="stroke:#000000; stroke-linecap:butt; stroke-linejoin:round; stroke-width:2; stroke-opacity:0.1; fill:none" points="
  1414.95,1800.78 1414.95,47.2441 
  "/>
<polyline clip-path="url(#clip572)" style="stroke:#000000; stroke-linecap:butt; stroke-linejoin:round; stroke-width:2; stroke-opacity:0.1; fill:none" points="
  1993.16,1800.78 1993.16,47.2441 
  "/>
<polyline clip-path="url(#clip572)" style="stroke:#000000; stroke-linecap:butt; stroke-linejoin:round; stroke-width:2; stroke-opacity:0.1; fill:none" points="
  2571.37,1800.78 2571.37,47.2441 
  "/>
<polyline clip-path="url(#clip570)" style="stroke:#000000; stroke-linecap:butt; stroke-linejoin:round; stroke-width:4; stroke-opacity:1; fill:none" points="
  189.154,1800.78 2640.76,1800.78 
  "/>
<polyline clip-path="url(#clip570)" style="stroke:#000000; stroke-linecap:butt; stroke-linejoin:round; stroke-width:4; stroke-opacity:1; fill:none" points="
  258.539,1800.78 258.539,1781.88 
  "/>
<polyline clip-path="url(#clip570)" style="stroke:#000000; stroke-linecap:butt; stroke-linejoin:round; stroke-width:4; stroke-opacity:1; fill:none" points="
  836.747,1800.78 836.747,1781.88 
  "/>
<polyline clip-path="url(#clip570)" style="stroke:#000000; stroke-linecap:butt; stroke-linejoin:round; stroke-width:4; stroke-opacity:1; fill:none" points="
  1414.95,1800.78 1414.95,1781.88 
  "/>
<polyline clip-path="url(#clip570)" style="stroke:#000000; stroke-linecap:butt; stroke-linejoin:round; stroke-width:4; stroke-opacity:1; fill:none" points="
  1993.16,1800.78 1993.16,1781.88 
  "/>
<polyline clip-path="url(#clip570)" style="stroke:#000000; stroke-linecap:butt; stroke-linejoin:round; stroke-width:4; stroke-opacity:1; fill:none" points="
  2571.37,1800.78 2571.37,1781.88 
  "/>
<path clip-path="url(#clip570)" d="M235.923 1834 Q232.312 1834 230.484 1837.57 Q228.678 1841.11 228.678 1848.24 Q228.678 1855.34 230.484 1858.91 Q232.312 1862.45 235.923 1862.45 Q239.558 1862.45 241.363 1858.91 Q243.192 1855.34 243.192 1848.24 Q243.192 1841.11 241.363 1837.57 Q239.558 1834 235.923 1834 M235.923 1830.3 Q241.733 1830.3 244.789 1834.9 Q247.868 1839.49 247.868 1848.24 Q247.868 1856.96 244.789 1861.57 Q241.733 1866.15 235.923 1866.15 Q230.113 1866.15 227.035 1861.57 Q223.979 1856.96 223.979 1848.24 Q223.979 1839.49 227.035 1834.9 Q230.113 1830.3 235.923 1830.3 Z" fill="#000000" fill-rule="evenodd" fill-opacity="1" /><path clip-path="url(#clip570)" d="M256.085 1859.6 L260.97 1859.6 L260.97 1865.48 L256.085 1865.48 L256.085 1859.6 Z" fill="#000000" fill-rule="evenodd" fill-opacity="1" /><path clip-path="url(#clip570)" d="M281.155 1834 Q277.543 1834 275.715 1837.57 Q273.909 1841.11 273.909 1848.24 Q273.909 1855.34 275.715 1858.91 Q277.543 1862.45 281.155 1862.45 Q284.789 1862.45 286.594 1858.91 Q288.423 1855.34 288.423 1848.24 Q288.423 1841.11 286.594 1837.57 Q284.789 1834 281.155 1834 M281.155 1830.3 Q286.965 1830.3 290.02 1834.9 Q293.099 1839.49 293.099 1848.24 Q293.099 1856.96 290.02 1861.57 Q286.965 1866.15 281.155 1866.15 Q275.344 1866.15 272.266 1861.57 Q269.21 1856.96 269.21 1848.24 Q269.21 1839.49 272.266 1834.9 Q275.344 1830.3 281.155 1830.3 Z" fill="#000000" fill-rule="evenodd" fill-opacity="1" /><path clip-path="url(#clip570)" d="M814.629 1834 Q811.018 1834 809.189 1837.57 Q807.384 1841.11 807.384 1848.24 Q807.384 1855.34 809.189 1858.91 Q811.018 1862.45 814.629 1862.45 Q818.263 1862.45 820.069 1858.91 Q821.897 1855.34 821.897 1848.24 Q821.897 1841.11 820.069 1837.57 Q818.263 1834 814.629 1834 M814.629 1830.3 Q820.439 1830.3 823.495 1834.9 Q826.573 1839.49 826.573 1848.24 Q826.573 1856.96 823.495 1861.57 Q820.439 1866.15 814.629 1866.15 Q808.819 1866.15 805.74 1861.57 Q802.685 1856.96 802.685 1848.24 Q802.685 1839.49 805.74 1834.9 Q808.819 1830.3 814.629 1830.3 Z" fill="#000000" fill-rule="evenodd" fill-opacity="1" /><path clip-path="url(#clip570)" d="M834.791 1859.6 L839.675 1859.6 L839.675 1865.48 L834.791 1865.48 L834.791 1859.6 Z" fill="#000000" fill-rule="evenodd" fill-opacity="1" /><path clip-path="url(#clip570)" d="M849.907 1830.92 L868.263 1830.92 L868.263 1834.86 L854.189 1834.86 L854.189 1843.33 Q855.208 1842.98 856.226 1842.82 Q857.245 1842.64 858.263 1842.64 Q864.05 1842.64 867.43 1845.81 Q870.809 1848.98 870.809 1854.4 Q870.809 1859.97 867.337 1863.08 Q863.865 1866.15 857.545 1866.15 Q855.37 1866.15 853.101 1865.78 Q850.856 1865.41 848.448 1864.67 L848.448 1859.97 Q850.532 1861.11 852.754 1861.66 Q854.976 1862.22 857.453 1862.22 Q861.457 1862.22 863.795 1860.11 Q866.133 1858.01 866.133 1854.4 Q866.133 1850.78 863.795 1848.68 Q861.457 1846.57 857.453 1846.57 Q855.578 1846.57 853.703 1846.99 Q851.851 1847.4 849.907 1848.28 L849.907 1830.92 Z" fill="#000000" fill-rule="evenodd" fill-opacity="1" /><path clip-path="url(#clip570)" d="M1382.11 1861.55 L1389.75 1861.55 L1389.75 1835.18 L1381.44 1836.85 L1381.44 1832.59 L1389.7 1830.92 L1394.38 1830.92 L1394.38 1861.55 L1402.02 1861.55 L1402.02 1865.48 L1382.11 1865.48 L1382.11 1861.55 Z" fill="#000000" fill-rule="evenodd" fill-opacity="1" /><path clip-path="url(#clip570)" d="M1411.46 1859.6 L1416.34 1859.6 L1416.34 1865.48 L1411.46 1865.48 L1411.46 1859.6 Z" fill="#000000" fill-rule="evenodd" fill-opacity="1" /><path clip-path="url(#clip570)" d="M1436.53 1834 Q1432.92 1834 1431.09 1837.57 Q1429.28 1841.11 1429.28 1848.24 Q1429.28 1855.34 1431.09 1858.91 Q1432.92 1862.45 1436.53 1862.45 Q1440.16 1862.45 1441.97 1858.91 Q1443.8 1855.34 1443.8 1848.24 Q1443.8 1841.11 1441.97 1837.57 Q1440.16 1834 1436.53 1834 M1436.53 1830.3 Q1442.34 1830.3 1445.39 1834.9 Q1448.47 1839.49 1448.47 1848.24 Q1448.47 1856.96 1445.39 1861.57 Q1442.34 1866.15 1436.53 1866.15 Q1430.72 1866.15 1427.64 1861.57 Q1424.58 1856.96 1424.58 1848.24 Q1424.58 1839.49 1427.64 1834.9 Q1430.72 1830.3 1436.53 1830.3 Z" fill="#000000" fill-rule="evenodd" fill-opacity="1" /><path clip-path="url(#clip570)" d="M1960.81 1861.55 L1968.45 1861.55 L1968.45 1835.18 L1960.14 1836.85 L1960.14 1832.59 L1968.41 1830.92 L1973.08 1830.92 L1973.08 1861.55 L1980.72 1861.55 L1980.72 1865.48 L1960.81 1865.48 L1960.81 1861.55 Z" fill="#000000" fill-rule="evenodd" fill-opacity="1" /><path clip-path="url(#clip570)" d="M1990.17 1859.6 L1995.05 1859.6 L1995.05 1865.48 L1990.17 1865.48 L1990.17 1859.6 Z" fill="#000000" fill-rule="evenodd" fill-opacity="1" /><path clip-path="url(#clip570)" d="M2005.28 1830.92 L2023.64 1830.92 L2023.64 1834.86 L2009.56 1834.86 L2009.56 1843.33 Q2010.58 1842.98 2011.6 1842.82 Q2012.62 1842.64 2013.64 1842.64 Q2019.42 1842.64 2022.8 1845.81 Q2026.18 1848.98 2026.18 1854.4 Q2026.18 1859.97 2022.71 1863.08 Q2019.24 1866.15 2012.92 1866.15 Q2010.74 1866.15 2008.48 1865.78 Q2006.23 1865.41 2003.82 1864.67 L2003.82 1859.97 Q2005.91 1861.11 2008.13 1861.66 Q2010.35 1862.22 2012.83 1862.22 Q2016.83 1862.22 2019.17 1860.11 Q2021.51 1858.01 2021.51 1854.4 Q2021.51 1850.78 2019.17 1848.68 Q2016.83 1846.57 2012.83 1846.57 Q2010.95 1846.57 2009.08 1846.99 Q2007.23 1847.4 2005.28 1848.28 L2005.28 1830.92 Z" fill="#000000" fill-rule="evenodd" fill-opacity="1" /><path clip-path="url(#clip570)" d="M2542.61 1861.55 L2558.93 1861.55 L2558.93 1865.48 L2536.98 1865.48 L2536.98 1861.55 Q2539.65 1858.79 2544.23 1854.16 Q2548.84 1849.51 2550.02 1848.17 Q2552.26 1845.65 2553.14 1843.91 Q2554.04 1842.15 2554.04 1840.46 Q2554.04 1837.71 2552.1 1835.97 Q2550.18 1834.23 2547.08 1834.23 Q2544.88 1834.23 2542.42 1835 Q2539.99 1835.76 2537.22 1837.31 L2537.22 1832.59 Q2540.04 1831.46 2542.49 1830.88 Q2544.95 1830.3 2546.98 1830.3 Q2552.35 1830.3 2555.55 1832.98 Q2558.74 1835.67 2558.74 1840.16 Q2558.74 1842.29 2557.93 1844.21 Q2557.15 1846.11 2555.04 1848.7 Q2554.46 1849.37 2551.36 1852.59 Q2548.26 1855.78 2542.61 1861.55 Z" fill="#000000" fill-rule="evenodd" fill-opacity="1" /><path clip-path="url(#clip570)" d="M2568.74 1859.6 L2573.63 1859.6 L2573.63 1865.48 L2568.74 1865.48 L2568.74 1859.6 Z" fill="#000000" fill-rule="evenodd" fill-opacity="1" /><path clip-path="url(#clip570)" d="M2593.81 1834 Q2590.2 1834 2588.37 1837.57 Q2586.57 1841.11 2586.57 1848.24 Q2586.57 1855.34 2588.37 1858.91 Q2590.2 1862.45 2593.81 1862.45 Q2597.45 1862.45 2599.25 1858.91 Q2601.08 1855.34 2601.08 1848.24 Q2601.08 1841.11 2599.25 1837.57 Q2597.45 1834 2593.81 1834 M2593.81 1830.3 Q2599.62 1830.3 2602.68 1834.9 Q2605.76 1839.49 2605.76 1848.24 Q2605.76 1856.96 2602.68 1861.57 Q2599.62 1866.15 2593.81 1866.15 Q2588 1866.15 2584.92 1861.57 Q2581.87 1856.96 2581.87 1848.24 Q2581.87 1839.49 2584.92 1834.9 Q2588 1830.3 2593.81 1830.3 Z" fill="#000000" fill-rule="evenodd" fill-opacity="1" /><polyline clip-path="url(#clip572)" style="stroke:#000000; stroke-linecap:butt; stroke-linejoin:round; stroke-width:2; stroke-opacity:0.1; fill:none" points="
  189.154,1751.15 2640.76,1751.15 
  "/>
<polyline clip-path="url(#clip572)" style="stroke:#000000; stroke-linecap:butt; stroke-linejoin:round; stroke-width:2; stroke-opacity:0.1; fill:none" points="
  189.154,1336.54 2640.76,1336.54 
  "/>
<polyline clip-path="url(#clip572)" style="stroke:#000000; stroke-linecap:butt; stroke-linejoin:round; stroke-width:2; stroke-opacity:0.1; fill:none" points="
  189.154,921.927 2640.76,921.927 
  "/>
<polyline clip-path="url(#clip572)" style="stroke:#000000; stroke-linecap:butt; stroke-linejoin:round; stroke-width:2; stroke-opacity:0.1; fill:none" points="
  189.154,507.315 2640.76,507.315 
  "/>
<polyline clip-path="url(#clip572)" style="stroke:#000000; stroke-linecap:butt; stroke-linejoin:round; stroke-width:2; stroke-opacity:0.1; fill:none" points="
  189.154,92.7022 2640.76,92.7022 
  "/>
<polyline clip-path="url(#clip570)" style="stroke:#000000; stroke-linecap:butt; stroke-linejoin:round; stroke-width:4; stroke-opacity:1; fill:none" points="
  189.154,1800.78 189.154,47.2441 
  "/>
<polyline clip-path="url(#clip570)" style="stroke:#000000; stroke-linecap:butt; stroke-linejoin:round; stroke-width:4; stroke-opacity:1; fill:none" points="
  189.154,1751.15 208.052,1751.15 
  "/>
<polyline clip-path="url(#clip570)" style="stroke:#000000; stroke-linecap:butt; stroke-linejoin:round; stroke-width:4; stroke-opacity:1; fill:none" points="
  189.154,1336.54 208.052,1336.54 
  "/>
<polyline clip-path="url(#clip570)" style="stroke:#000000; stroke-linecap:butt; stroke-linejoin:round; stroke-width:4; stroke-opacity:1; fill:none" points="
  189.154,921.927 208.052,921.927 
  "/>
<polyline clip-path="url(#clip570)" style="stroke:#000000; stroke-linecap:butt; stroke-linejoin:round; stroke-width:4; stroke-opacity:1; fill:none" points="
  189.154,507.315 208.052,507.315 
  "/>
<polyline clip-path="url(#clip570)" style="stroke:#000000; stroke-linecap:butt; stroke-linejoin:round; stroke-width:4; stroke-opacity:1; fill:none" points="
  189.154,92.7022 208.052,92.7022 
  "/>
<path clip-path="url(#clip570)" d="M61.4965 1736.95 Q57.8854 1736.95 56.0567 1740.52 Q54.2512 1744.06 54.2512 1751.19 Q54.2512 1758.29 56.0567 1761.86 Q57.8854 1765.4 61.4965 1765.4 Q65.1307 1765.4 66.9363 1761.86 Q68.765 1758.29 68.765 1751.19 Q68.765 1744.06 66.9363 1740.52 Q65.1307 1736.95 61.4965 1736.95 M61.4965 1733.25 Q67.3067 1733.25 70.3622 1737.85 Q73.4409 1742.44 73.4409 1751.19 Q73.4409 1759.91 70.3622 1764.52 Q67.3067 1769.1 61.4965 1769.1 Q55.6864 1769.1 52.6077 1764.52 Q49.5521 1759.91 49.5521 1751.19 Q49.5521 1742.44 52.6077 1737.85 Q55.6864 1733.25 61.4965 1733.25 Z" fill="#000000" fill-rule="evenodd" fill-opacity="1" /><path clip-path="url(#clip570)" d="M81.6584 1762.55 L86.5427 1762.55 L86.5427 1768.43 L81.6584 1768.43 L81.6584 1762.55 Z" fill="#000000" fill-rule="evenodd" fill-opacity="1" /><path clip-path="url(#clip570)" d="M106.728 1736.95 Q103.117 1736.95 101.288 1740.52 Q99.4824 1744.06 99.4824 1751.19 Q99.4824 1758.29 101.288 1761.86 Q103.117 1765.4 106.728 1765.4 Q110.362 1765.4 112.168 1761.86 Q113.996 1758.29 113.996 1751.19 Q113.996 1744.06 112.168 1740.52 Q110.362 1736.95 106.728 1736.95 M106.728 1733.25 Q112.538 1733.25 115.593 1737.85 Q118.672 1742.44 118.672 1751.19 Q118.672 1759.91 115.593 1764.52 Q112.538 1769.1 106.728 1769.1 Q100.918 1769.1 97.8389 1764.52 Q94.7834 1759.91 94.7834 1751.19 Q94.7834 1742.44 97.8389 1737.85 Q100.918 1733.25 106.728 1733.25 Z" fill="#000000" fill-rule="evenodd" fill-opacity="1" /><path clip-path="url(#clip570)" d="M136.89 1736.95 Q133.279 1736.95 131.45 1740.52 Q129.644 1744.06 129.644 1751.19 Q129.644 1758.29 131.45 1761.86 Q133.279 1765.4 136.89 1765.4 Q140.524 1765.4 142.329 1761.86 Q144.158 1758.29 144.158 1751.19 Q144.158 1744.06 142.329 1740.52 Q140.524 1736.95 136.89 1736.95 M136.89 1733.25 Q142.7 1733.25 145.755 1737.85 Q148.834 1742.44 148.834 1751.19 Q148.834 1759.91 145.755 1764.52 Q142.7 1769.1 136.89 1769.1 Q131.079 1769.1 128.001 1764.52 Q124.945 1759.91 124.945 1751.19 Q124.945 1742.44 128.001 1737.85 Q131.079 1733.25 136.89 1733.25 Z" fill="#000000" fill-rule="evenodd" fill-opacity="1" /><path clip-path="url(#clip570)" d="M62.4919 1322.34 Q58.8808 1322.34 57.0521 1325.9 Q55.2465 1329.45 55.2465 1336.57 Q55.2465 1343.68 57.0521 1347.25 Q58.8808 1350.79 62.4919 1350.79 Q66.1261 1350.79 67.9317 1347.25 Q69.7604 1343.68 69.7604 1336.57 Q69.7604 1329.45 67.9317 1325.9 Q66.1261 1322.34 62.4919 1322.34 M62.4919 1318.64 Q68.302 1318.64 71.3576 1323.24 Q74.4363 1327.82 74.4363 1336.57 Q74.4363 1345.3 71.3576 1349.91 Q68.302 1354.49 62.4919 1354.49 Q56.6817 1354.49 53.603 1349.91 Q50.5475 1345.3 50.5475 1336.57 Q50.5475 1327.82 53.603 1323.24 Q56.6817 1318.64 62.4919 1318.64 Z" fill="#000000" fill-rule="evenodd" fill-opacity="1" /><path clip-path="url(#clip570)" d="M82.6538 1347.94 L87.538 1347.94 L87.538 1353.82 L82.6538 1353.82 L82.6538 1347.94 Z" fill="#000000" fill-rule="evenodd" fill-opacity="1" /><path clip-path="url(#clip570)" d="M101.751 1349.88 L118.07 1349.88 L118.07 1353.82 L96.126 1353.82 L96.126 1349.88 Q98.788 1347.13 103.371 1342.5 Q107.978 1337.85 109.158 1336.51 Q111.404 1333.98 112.283 1332.25 Q113.186 1330.49 113.186 1328.8 Q113.186 1326.04 111.242 1324.31 Q109.32 1322.57 106.218 1322.57 Q104.019 1322.57 101.566 1323.33 Q99.1352 1324.1 96.3574 1325.65 L96.3574 1320.93 Q99.1815 1319.79 101.635 1319.21 Q104.089 1318.64 106.126 1318.64 Q111.496 1318.64 114.691 1321.32 Q117.885 1324.01 117.885 1328.5 Q117.885 1330.63 117.075 1332.55 Q116.288 1334.45 114.181 1337.04 Q113.603 1337.71 110.501 1340.93 Q107.399 1344.12 101.751 1349.88 Z" fill="#000000" fill-rule="evenodd" fill-opacity="1" /><path clip-path="url(#clip570)" d="M127.931 1319.26 L146.288 1319.26 L146.288 1323.2 L132.214 1323.2 L132.214 1331.67 Q133.232 1331.32 134.251 1331.16 Q135.269 1330.97 136.288 1330.97 Q142.075 1330.97 145.454 1334.14 Q148.834 1337.32 148.834 1342.73 Q148.834 1348.31 145.362 1351.41 Q141.89 1354.49 135.57 1354.49 Q133.394 1354.49 131.126 1354.12 Q128.88 1353.75 126.473 1353.01 L126.473 1348.31 Q128.556 1349.45 130.779 1350 Q133.001 1350.56 135.478 1350.56 Q139.482 1350.56 141.82 1348.45 Q144.158 1346.34 144.158 1342.73 Q144.158 1339.12 141.82 1337.01 Q139.482 1334.91 135.478 1334.91 Q133.603 1334.91 131.728 1335.32 Q129.876 1335.74 127.931 1336.62 L127.931 1319.26 Z" fill="#000000" fill-rule="evenodd" fill-opacity="1" /><path clip-path="url(#clip570)" d="M61.4965 907.726 Q57.8854 907.726 56.0567 911.291 Q54.2512 914.833 54.2512 921.962 Q54.2512 929.069 56.0567 932.633 Q57.8854 936.175 61.4965 936.175 Q65.1307 936.175 66.9363 932.633 Q68.765 929.069 68.765 921.962 Q68.765 914.833 66.9363 911.291 Q65.1307 907.726 61.4965 907.726 M61.4965 904.022 Q67.3067 904.022 70.3622 908.629 Q73.4409 913.212 73.4409 921.962 Q73.4409 930.689 70.3622 935.295 Q67.3067 939.879 61.4965 939.879 Q55.6864 939.879 52.6077 935.295 Q49.5521 930.689 49.5521 921.962 Q49.5521 913.212 52.6077 908.629 Q55.6864 904.022 61.4965 904.022 Z" fill="#000000" fill-rule="evenodd" fill-opacity="1" /><path clip-path="url(#clip570)" d="M81.6584 933.328 L86.5427 933.328 L86.5427 939.207 L81.6584 939.207 L81.6584 933.328 Z" fill="#000000" fill-rule="evenodd" fill-opacity="1" /><path clip-path="url(#clip570)" d="M96.7741 904.647 L115.13 904.647 L115.13 908.583 L101.056 908.583 L101.056 917.055 Q102.075 916.708 103.094 916.546 Q104.112 916.36 105.131 916.36 Q110.918 916.36 114.297 919.532 Q117.677 922.703 117.677 928.12 Q117.677 933.698 114.205 936.8 Q110.732 939.879 104.413 939.879 Q102.237 939.879 99.9685 939.508 Q97.7232 939.138 95.3158 938.397 L95.3158 933.698 Q97.3991 934.832 99.6213 935.388 Q101.844 935.944 104.32 935.944 Q108.325 935.944 110.663 933.837 Q113.001 931.731 113.001 928.12 Q113.001 924.508 110.663 922.402 Q108.325 920.296 104.32 920.296 Q102.445 920.296 100.57 920.712 Q98.7185 921.129 96.7741 922.008 L96.7741 904.647 Z" fill="#000000" fill-rule="evenodd" fill-opacity="1" /><path clip-path="url(#clip570)" d="M136.89 907.726 Q133.279 907.726 131.45 911.291 Q129.644 914.833 129.644 921.962 Q129.644 929.069 131.45 932.633 Q133.279 936.175 136.89 936.175 Q140.524 936.175 142.329 932.633 Q144.158 929.069 144.158 921.962 Q144.158 914.833 142.329 911.291 Q140.524 907.726 136.89 907.726 M136.89 904.022 Q142.7 904.022 145.755 908.629 Q148.834 913.212 148.834 921.962 Q148.834 930.689 145.755 935.295 Q142.7 939.879 136.89 939.879 Q131.079 939.879 128.001 935.295 Q124.945 930.689 124.945 921.962 Q124.945 913.212 128.001 908.629 Q131.079 904.022 136.89 904.022 Z" fill="#000000" fill-rule="evenodd" fill-opacity="1" /><path clip-path="url(#clip570)" d="M62.4919 493.114 Q58.8808 493.114 57.0521 496.678 Q55.2465 500.22 55.2465 507.35 Q55.2465 514.456 57.0521 518.021 Q58.8808 521.562 62.4919 521.562 Q66.1261 521.562 67.9317 518.021 Q69.7604 514.456 69.7604 507.35 Q69.7604 500.22 67.9317 496.678 Q66.1261 493.114 62.4919 493.114 M62.4919 489.41 Q68.302 489.41 71.3576 494.016 Q74.4363 498.6 74.4363 507.35 Q74.4363 516.076 71.3576 520.683 Q68.302 525.266 62.4919 525.266 Q56.6817 525.266 53.603 520.683 Q50.5475 516.076 50.5475 507.35 Q50.5475 498.6 53.603 494.016 Q56.6817 489.41 62.4919 489.41 Z" fill="#000000" fill-rule="evenodd" fill-opacity="1" /><path clip-path="url(#clip570)" d="M82.6538 518.715 L87.538 518.715 L87.538 524.595 L82.6538 524.595 L82.6538 518.715 Z" fill="#000000" fill-rule="evenodd" fill-opacity="1" /><path clip-path="url(#clip570)" d="M96.5426 490.035 L118.765 490.035 L118.765 492.026 L106.218 524.595 L101.334 524.595 L113.14 493.97 L96.5426 493.97 L96.5426 490.035 Z" fill="#000000" fill-rule="evenodd" fill-opacity="1" /><path clip-path="url(#clip570)" d="M127.931 490.035 L146.288 490.035 L146.288 493.97 L132.214 493.97 L132.214 502.442 Q133.232 502.095 134.251 501.933 Q135.269 501.748 136.288 501.748 Q142.075 501.748 145.454 504.919 Q148.834 508.09 148.834 513.507 Q148.834 519.086 145.362 522.187 Q141.89 525.266 135.57 525.266 Q133.394 525.266 131.126 524.896 Q128.88 524.525 126.473 523.785 L126.473 519.086 Q128.556 520.22 130.779 520.775 Q133.001 521.331 135.478 521.331 Q139.482 521.331 141.82 519.224 Q144.158 517.118 144.158 513.507 Q144.158 509.896 141.82 507.789 Q139.482 505.683 135.478 505.683 Q133.603 505.683 131.728 506.1 Q129.876 506.516 127.931 507.396 L127.931 490.035 Z" fill="#000000" fill-rule="evenodd" fill-opacity="1" /><path clip-path="url(#clip570)" d="M52.3067 106.047 L59.9456 106.047 L59.9456 79.6814 L51.6354 81.3481 L51.6354 77.0889 L59.8993 75.4222 L64.5752 75.4222 L64.5752 106.047 L72.214 106.047 L72.214 109.982 L52.3067 109.982 L52.3067 106.047 Z" fill="#000000" fill-rule="evenodd" fill-opacity="1" /><path clip-path="url(#clip570)" d="M81.6584 104.103 L86.5427 104.103 L86.5427 109.982 L81.6584 109.982 L81.6584 104.103 Z" fill="#000000" fill-rule="evenodd" fill-opacity="1" /><path clip-path="url(#clip570)" d="M106.728 78.5009 Q103.117 78.5009 101.288 82.0657 Q99.4824 85.6073 99.4824 92.7369 Q99.4824 99.8434 101.288 103.408 Q103.117 106.95 106.728 106.95 Q110.362 106.95 112.168 103.408 Q113.996 99.8434 113.996 92.7369 Q113.996 85.6073 112.168 82.0657 Q110.362 78.5009 106.728 78.5009 M106.728 74.7972 Q112.538 74.7972 115.593 79.4037 Q118.672 83.987 118.672 92.7369 Q118.672 101.464 115.593 106.07 Q112.538 110.654 106.728 110.654 Q100.918 110.654 97.8389 106.07 Q94.7834 101.464 94.7834 92.7369 Q94.7834 83.987 97.8389 79.4037 Q100.918 74.7972 106.728 74.7972 Z" fill="#000000" fill-rule="evenodd" fill-opacity="1" /><path clip-path="url(#clip570)" d="M136.89 78.5009 Q133.279 78.5009 131.45 82.0657 Q129.644 85.6073 129.644 92.7369 Q129.644 99.8434 131.45 103.408 Q133.279 106.95 136.89 106.95 Q140.524 106.95 142.329 103.408 Q144.158 99.8434 144.158 92.7369 Q144.158 85.6073 142.329 82.0657 Q140.524 78.5009 136.89 78.5009 M136.89 74.7972 Q142.7 74.7972 145.755 79.4037 Q148.834 83.987 148.834 92.7369 Q148.834 101.464 145.755 106.07 Q142.7 110.654 136.89 110.654 Q131.079 110.654 128.001 106.07 Q124.945 101.464 124.945 92.7369 Q124.945 83.987 128.001 79.4037 Q131.079 74.7972 136.89 74.7972 Z" fill="#000000" fill-rule="evenodd" fill-opacity="1" /><polyline clip-path="url(#clip572)" style="stroke:#009af9; stroke-linecap:butt; stroke-linejoin:round; stroke-width:4; stroke-opacity:1; fill:none" points="
  258.539,1751.15 273.597,1751.15 412.828,1751.15 496.5,1751.15 567.244,1751.14 605.667,1751.13 644.091,1751.05 661.803,1750.74 679.514,1748.91 683.942,1747.62 
  688.37,1745.52 692.798,1742.13 697.226,1736.66 699.44,1732.79 701.654,1727.9 703.868,1721.75 706.082,1714.07 708.296,1704.54 710.51,1692.8 712.724,1678.5 
  714.938,1661.31 717.311,1639.33 719.685,1613.49 722.058,1583.79 724.432,1550.49 726.806,1514.15 729.179,1475.56 731.553,1435.68 733.926,1395.54 736.3,1356.06 
  738.674,1317.96 741.047,1282.06 743.421,1248.64 745.794,1217.87 748.168,1189.76 750.542,1164.19 752.915,1140.97 755.289,1119.87 757.662,1100.65 760.036,1083.08 
  762.41,1066.91 767.157,1038.06 771.904,1012.76 776.651,990.054 781.398,969.219 786.145,949.795 790.893,931.452 801.893,891.983 812.893,855.619 823.893,821.603 
  834.893,789.586 845.893,759.349 856.894,730.742 867.894,703.642 878.894,677.947 898.445,635.463 917.997,596.676 937.548,561.194 957.099,528.676 974.244,502.363 
  991.389,477.92 1008.53,455.188 1025.68,434.022 1044.37,412.581 1063.06,392.698 1081.76,374.234 1100.45,357.075 1119.25,341.021 1138.05,326.079 1156.86,312.157 
  1175.66,299.176 1217.24,273.45 1258.82,251.282 1298.38,232.98 1337.94,216.998 1379.08,202.484 1420.21,189.81 1454.84,180.377 1489.47,171.93 1574.02,154.775 
  1651.47,142.512 1723.01,133.451 1795.47,126.021 1876.68,119.349 1950.27,114.502 2034.52,110.055 2112.53,106.771 2189.45,104.155 2264.12,102.089 2340.67,100.364 
  2424.54,98.8401 2546.38,97.1552 2571.37,96.8724 
  "/>
<path clip-path="url(#clip570)" d="
M2234.21 209.375 L2559.04 209.375 L2559.04 105.695 L2234.21 105.695  Z
  " fill="#ffffff" fill-rule="evenodd" fill-opacity="1"/>
<polyline clip-path="url(#clip570)" style="stroke:#000000; stroke-linecap:butt; stroke-linejoin:round; stroke-width:4; stroke-opacity:1; fill:none" points="
  2234.21,209.375 2559.04,209.375 2559.04,105.695 2234.21,105.695 2234.21,209.375 
  "/>
<polyline clip-path="url(#clip570)" style="stroke:#009af9; stroke-linecap:butt; stroke-linejoin:round; stroke-width:4; stroke-opacity:1; fill:none" points="
  2261.45,157.535 2424.89,157.535 
  "/>
<path clip-path="url(#clip570)" d="M2465.97 177.223 Q2464.16 181.852 2462.45 183.264 Q2460.74 184.676 2457.87 184.676 L2454.46 184.676 L2454.46 181.112 L2456.96 181.112 Q2458.72 181.112 2459.69 180.278 Q2460.67 179.445 2461.85 176.343 L2462.61 174.399 L2452.13 148.889 L2456.64 148.889 L2464.74 169.167 L2472.84 148.889 L2477.36 148.889 L2465.97 177.223 Z" fill="#000000" fill-rule="evenodd" fill-opacity="1" /><path clip-path="url(#clip570)" d="M2484.65 170.88 L2492.29 170.88 L2492.29 144.515 L2483.98 146.181 L2483.98 141.922 L2492.24 140.255 L2496.92 140.255 L2496.92 170.88 L2504.56 170.88 L2504.56 174.815 L2484.65 174.815 L2484.65 170.88 Z" fill="#000000" fill-rule="evenodd" fill-opacity="1" /></svg>
