<?xml version="1.0" encoding="utf-8"?>
<svg xmlns="http://www.w3.org/2000/svg" xmlns:xlink="http://www.w3.org/1999/xlink" width="672" height="480" viewBox="0 0 2688 1920">
<defs>
  <clipPath id="clip640">
    <rect x="0" y="0" width="2688" height="1920"/>
  </clipPath>
</defs>
<path clip-path="url(#clip640)" d="
M0 1920 L2688 1920 L2688 0 L0 0  Z
  " fill="#ffffff" fill-rule="evenodd" fill-opacity="1"/>
<defs>
  <clipPath id="clip641">
    <rect x="537" y="0" width="1883" height="1883"/>
  </clipPath>
</defs>
<path clip-path="url(#clip640)" d="
M202.163 1800.78 L2640.76 1800.78 L2640.76 47.2441 L202.163 47.2441  Z
  " fill="#ffffff" fill-rule="evenodd" fill-opacity="1"/>
<defs>
  <clipPath id="clip642">
    <rect x="202" y="47" width="2440" height="1755"/>
  </clipPath>
</defs>
<polyline clip-path="url(#clip642)" style="stroke:#000000; stroke-linecap:butt; stroke-linejoin:round; stroke-width:2; stroke-opacity:0.1; fill:none" points="
  271.18,1800.78 271.18,47.2441 
  "/>
<polyline clip-path="url(#clip642)" style="stroke:#000000; stroke-linecap:butt; stroke-linejoin:round; stroke-width:2; stroke-opacity:0.1; fill:none" points="
  834.817,1800.78 834.817,47.2441 
  "/>
<polyline clip-path="url(#clip642)" style="stroke:#000000; stroke-linecap:butt; stroke-linejoin:round; stroke-width:2; stroke-opacity:0.1; fill:none" points="
  1398.45,1800.78 1398.45,47.2441 
  "/>
<polyline clip-path="url(#clip642)" style="stroke:#000000; stroke-linecap:butt; stroke-linejoin:round; stroke-width:2; stroke-opacity:0.1; fill:none" points="
  1962.09,1800.78 1962.09,47.2441 
  "/>
<polyline clip-path="url(#clip642)" style="stroke:#000000; stroke-linecap:butt; stroke-linejoin:round; stroke-width:2; stroke-opacity:0.1; fill:none" points="
  2525.73,1800.78 2525.73,47.2441 
  "/>
<polyline clip-path="url(#clip640)" style="stroke:#000000; stroke-linecap:butt; stroke-linejoin:round; stroke-width:4; stroke-opacity:1; fill:none" points="
  202.163,1800.78 2640.76,1800.78 
  "/>
<polyline clip-path="url(#clip640)" style="stroke:#000000; stroke-linecap:butt; stroke-linejoin:round; stroke-width:4; stroke-opacity:1; fill:none" points="
  271.18,1800.78 271.18,1781.88 
  "/>
<polyline clip-path="url(#clip640)" style="stroke:#000000; stroke-linecap:butt; stroke-linejoin:round; stroke-width:4; stroke-opacity:1; fill:none" points="
  834.817,1800.78 834.817,1781.88 
  "/>
<polyline clip-path="url(#clip640)" style="stroke:#000000; stroke-linecap:butt; stroke-linejoin:round; stroke-width:4; stroke-opacity:1; fill:none" points="
  1398.45,1800.78 1398.45,1781.88 
  "/>
<polyline clip-path="url(#clip640)" style="stroke:#000000; stroke-linecap:butt; stroke-linejoin:round; stroke-width:4; stroke-opacity:1; fill:none" points="
  1962.09,1800.78 1962.09,1781.88 
  "/>
<polyline clip-path="url(#clip640)" style="stroke:#000000; stroke-linecap:butt; stroke-linejoin:round; stroke-width:4; stroke-opacity:1; fill:none" points="
  2525.73,1800.78 2525.73,1781.88 
  "/>
<path clip-path="url(#clip640)" d="M271.18 1834 Q267.569 1834 265.74 1837.57 Q263.935 1841.11 263.935 1848.24 Q263.935 1855.34 265.74 1858.91 Q267.569 1862.45 271.18 1862.45 Q274.814 1862.45 276.62 1858.91 Q278.448 1855.34 278.448 1848.24 Q278.448 1841.11 276.62 1837.57 Q274.814 1834 271.18 1834 M271.18 1830.3 Q276.99 1830.3 280.046 1834.9 Q283.124 1839.49 283.124 1848.24 Q283.124 1856.96 280.046 1861.57 Q276.99 1866.15 271.18 1866.15 Q265.37 1866.15 262.291 1861.57 Q259.236 1856.96 259.236 1848.24 Q259.236 1839.49 262.291 1834.9 Q265.37 1830.3 271.18 1830.3 Z" fill="#000000" fill-rule="evenodd" fill-opacity="1" /><path clip-path="url(#clip640)" d="M779.343 1861.55 L786.982 1861.55 L786.982 1835.18 L778.671 1836.85 L778.671 1832.59 L786.935 1830.92 L791.611 1830.92 L791.611 1861.55 L799.25 1861.55 L799.25 1865.48 L779.343 1865.48 L779.343 1861.55 Z" fill="#000000" fill-rule="evenodd" fill-opacity="1" /><path clip-path="url(#clip640)" d="M818.694 1834 Q815.083 1834 813.255 1837.57 Q811.449 1841.11 811.449 1848.24 Q811.449 1855.34 813.255 1858.91 Q815.083 1862.45 818.694 1862.45 Q822.329 1862.45 824.134 1858.91 Q825.963 1855.34 825.963 1848.24 Q825.963 1841.11 824.134 1837.57 Q822.329 1834 818.694 1834 M818.694 1830.3 Q824.505 1830.3 827.56 1834.9 Q830.639 1839.49 830.639 1848.24 Q830.639 1856.96 827.56 1861.57 Q824.505 1866.15 818.694 1866.15 Q812.884 1866.15 809.806 1861.57 Q806.75 1856.96 806.75 1848.24 Q806.75 1839.49 809.806 1834.9 Q812.884 1830.3 818.694 1830.3 Z" fill="#000000" fill-rule="evenodd" fill-opacity="1" /><path clip-path="url(#clip640)" d="M848.856 1834 Q845.245 1834 843.416 1837.57 Q841.611 1841.11 841.611 1848.24 Q841.611 1855.34 843.416 1858.91 Q845.245 1862.45 848.856 1862.45 Q852.49 1862.45 854.296 1858.91 Q856.125 1855.34 856.125 1848.24 Q856.125 1841.11 854.296 1837.57 Q852.49 1834 848.856 1834 M848.856 1830.3 Q854.666 1830.3 857.722 1834.9 Q860.801 1839.49 860.801 1848.24 Q860.801 1856.96 857.722 1861.57 Q854.666 1866.15 848.856 1866.15 Q843.046 1866.15 839.967 1861.57 Q836.912 1856.96 836.912 1848.24 Q836.912 1839.49 839.967 1834.9 Q843.046 1830.3 848.856 1830.3 Z" fill="#000000" fill-rule="evenodd" fill-opacity="1" /><path clip-path="url(#clip640)" d="M879.018 1834 Q875.407 1834 873.578 1837.57 Q871.773 1841.11 871.773 1848.24 Q871.773 1855.34 873.578 1858.91 Q875.407 1862.45 879.018 1862.45 Q882.652 1862.45 884.458 1858.91 Q886.287 1855.34 886.287 1848.24 Q886.287 1841.11 884.458 1837.57 Q882.652 1834 879.018 1834 M879.018 1830.3 Q884.828 1830.3 887.884 1834.9 Q890.962 1839.49 890.962 1848.24 Q890.962 1856.96 887.884 1861.57 Q884.828 1866.15 879.018 1866.15 Q873.208 1866.15 870.129 1861.57 Q867.074 1856.96 867.074 1848.24 Q867.074 1839.49 870.129 1834.9 Q873.208 1830.3 879.018 1830.3 Z" fill="#000000" fill-rule="evenodd" fill-opacity="1" /><path clip-path="url(#clip640)" d="M1347.07 1861.55 L1363.38 1861.55 L1363.38 1865.48 L1341.44 1865.48 L1341.44 1861.55 Q1344.1 1858.79 1348.69 1854.16 Q1353.29 1849.51 1354.47 1848.17 Q1356.72 1845.65 1357.6 1843.91 Q1358.5 1842.15 1358.5 1840.46 Q1358.5 1837.71 1356.56 1835.97 Q1354.63 1834.23 1351.53 1834.23 Q1349.33 1834.23 1346.88 1835 Q1344.45 1835.76 1341.67 1837.31 L1341.67 1832.59 Q1344.5 1831.46 1346.95 1830.88 Q1349.4 1830.3 1351.44 1830.3 Q1356.81 1830.3 1360.01 1832.98 Q1363.2 1835.67 1363.2 1840.16 Q1363.2 1842.29 1362.39 1844.21 Q1361.6 1846.11 1359.5 1848.7 Q1358.92 1849.37 1355.82 1852.59 Q1352.71 1855.78 1347.07 1861.55 Z" fill="#000000" fill-rule="evenodd" fill-opacity="1" /><path clip-path="url(#clip640)" d="M1383.2 1834 Q1379.59 1834 1377.76 1837.57 Q1375.95 1841.11 1375.95 1848.24 Q1375.95 1855.34 1377.76 1858.91 Q1379.59 1862.45 1383.2 1862.45 Q1386.83 1862.45 1388.64 1858.91 Q1390.47 1855.34 1390.47 1848.24 Q1390.47 1841.11 1388.64 1837.57 Q1386.83 1834 1383.2 1834 M1383.2 1830.3 Q1389.01 1830.3 1392.07 1834.9 Q1395.14 1839.49 1395.14 1848.24 Q1395.14 1856.96 1392.07 1861.57 Q1389.01 1866.15 1383.2 1866.15 Q1377.39 1866.15 1374.31 1861.57 Q1371.26 1856.96 1371.26 1848.24 Q1371.26 1839.49 1374.31 1834.9 Q1377.39 1830.3 1383.2 1830.3 Z" fill="#000000" fill-rule="evenodd" fill-opacity="1" /><path clip-path="url(#clip640)" d="M1413.36 1834 Q1409.75 1834 1407.92 1837.57 Q1406.12 1841.11 1406.12 1848.24 Q1406.12 1855.34 1407.92 1858.91 Q1409.75 1862.45 1413.36 1862.45 Q1417 1862.45 1418.8 1858.91 Q1420.63 1855.34 1420.63 1848.24 Q1420.63 1841.11 1418.8 1837.57 Q1417 1834 1413.36 1834 M1413.36 1830.3 Q1419.17 1830.3 1422.23 1834.9 Q1425.31 1839.49 1425.31 1848.24 Q1425.31 1856.96 1422.23 1861.57 Q1419.17 1866.15 1413.36 1866.15 Q1407.55 1866.15 1404.47 1861.57 Q1401.42 1856.96 1401.42 1848.24 Q1401.42 1839.49 1404.47 1834.9 Q1407.55 1830.3 1413.36 1830.3 Z" fill="#000000" fill-rule="evenodd" fill-opacity="1" /><path clip-path="url(#clip640)" d="M1443.52 1834 Q1439.91 1834 1438.08 1837.57 Q1436.28 1841.11 1436.28 1848.24 Q1436.28 1855.34 1438.08 1858.91 Q1439.91 1862.45 1443.52 1862.45 Q1447.16 1862.45 1448.96 1858.91 Q1450.79 1855.34 1450.79 1848.24 Q1450.79 1841.11 1448.96 1837.57 Q1447.16 1834 1443.52 1834 M1443.52 1830.3 Q1449.33 1830.3 1452.39 1834.9 Q1455.47 1839.49 1455.47 1848.24 Q1455.47 1856.96 1452.39 1861.57 Q1449.33 1866.15 1443.52 1866.15 Q1437.71 1866.15 1434.63 1861.57 Q1431.58 1856.96 1431.58 1848.24 Q1431.58 1839.49 1434.63 1834.9 Q1437.71 1830.3 1443.52 1830.3 Z" fill="#000000" fill-rule="evenodd" fill-opacity="1" /><path clip-path="url(#clip640)" d="M1920.77 1846.85 Q1924.13 1847.57 1926 1849.84 Q1927.9 1852.1 1927.9 1855.44 Q1927.9 1860.55 1924.38 1863.35 Q1920.86 1866.15 1914.38 1866.15 Q1912.21 1866.15 1909.89 1865.71 Q1907.6 1865.3 1905.15 1864.44 L1905.15 1859.93 Q1907.09 1861.06 1909.41 1861.64 Q1911.72 1862.22 1914.24 1862.22 Q1918.64 1862.22 1920.93 1860.48 Q1923.25 1858.75 1923.25 1855.44 Q1923.25 1852.38 1921.1 1850.67 Q1918.97 1848.93 1915.15 1848.93 L1911.12 1848.93 L1911.12 1845.09 L1915.33 1845.09 Q1918.78 1845.09 1920.61 1843.72 Q1922.44 1842.34 1922.44 1839.74 Q1922.44 1837.08 1920.54 1835.67 Q1918.67 1834.23 1915.15 1834.23 Q1913.23 1834.23 1911.03 1834.65 Q1908.83 1835.07 1906.19 1835.95 L1906.19 1831.78 Q1908.85 1831.04 1911.17 1830.67 Q1913.5 1830.3 1915.56 1830.3 Q1920.89 1830.3 1923.99 1832.73 Q1927.09 1835.14 1927.09 1839.26 Q1927.09 1842.13 1925.45 1844.12 Q1923.8 1846.09 1920.77 1846.85 Z" fill="#000000" fill-rule="evenodd" fill-opacity="1" /><path clip-path="url(#clip640)" d="M1946.77 1834 Q1943.16 1834 1941.33 1837.57 Q1939.52 1841.11 1939.52 1848.24 Q1939.52 1855.34 1941.33 1858.91 Q1943.16 1862.45 1946.77 1862.45 Q1950.4 1862.45 1952.21 1858.91 Q1954.04 1855.34 1954.04 1848.24 Q1954.04 1841.11 1952.21 1837.57 Q1950.4 1834 1946.77 1834 M1946.77 1830.3 Q1952.58 1830.3 1955.63 1834.9 Q1958.71 1839.49 1958.71 1848.24 Q1958.71 1856.96 1955.63 1861.57 Q1952.58 1866.15 1946.77 1866.15 Q1940.96 1866.15 1937.88 1861.57 Q1934.82 1856.96 1934.82 1848.24 Q1934.82 1839.49 1937.88 1834.9 Q1940.96 1830.3 1946.77 1830.3 Z" fill="#000000" fill-rule="evenodd" fill-opacity="1" /><path clip-path="url(#clip640)" d="M1976.93 1834 Q1973.32 1834 1971.49 1837.57 Q1969.68 1841.11 1969.68 1848.24 Q1969.68 1855.34 1971.49 1858.91 Q1973.32 1862.45 1976.93 1862.45 Q1980.56 1862.45 1982.37 1858.91 Q1984.2 1855.34 1984.2 1848.24 Q1984.2 1841.11 1982.37 1837.57 Q1980.56 1834 1976.93 1834 M1976.93 1830.3 Q1982.74 1830.3 1985.79 1834.9 Q1988.87 1839.49 1988.87 1848.24 Q1988.87 1856.96 1985.79 1861.57 Q1982.74 1866.15 1976.93 1866.15 Q1971.12 1866.15 1968.04 1861.57 Q1964.98 1856.96 1964.98 1848.24 Q1964.98 1839.49 1968.04 1834.9 Q1971.12 1830.3 1976.93 1830.3 Z" fill="#000000" fill-rule="evenodd" fill-opacity="1" /><path clip-path="url(#clip640)" d="M2007.09 1834 Q2003.48 1834 2001.65 1837.57 Q1999.85 1841.11 1999.85 1848.24 Q1999.85 1855.34 2001.65 1858.91 Q2003.48 1862.45 2007.09 1862.45 Q2010.72 1862.45 2012.53 1858.91 Q2014.36 1855.34 2014.36 1848.24 Q2014.36 1841.11 2012.53 1837.57 Q2010.72 1834 2007.09 1834 M2007.09 1830.3 Q2012.9 1830.3 2015.96 1834.9 Q2019.04 1839.49 2019.04 1848.24 Q2019.04 1856.96 2015.96 1861.57 Q2012.9 1866.15 2007.09 1866.15 Q2001.28 1866.15 1998.2 1861.57 Q1995.15 1856.96 1995.15 1848.24 Q1995.15 1839.49 1998.2 1834.9 Q2001.28 1830.3 2007.09 1830.3 Z" fill="#000000" fill-rule="evenodd" fill-opacity="1" /><path clip-path="url(#clip640)" d="M2483.74 1835 L2471.93 1853.45 L2483.74 1853.45 L2483.74 1835 M2482.51 1830.92 L2488.39 1830.92 L2488.39 1853.45 L2493.32 1853.45 L2493.32 1857.34 L2488.39 1857.34 L2488.39 1865.48 L2483.74 1865.48 L2483.74 1857.34 L2468.14 1857.34 L2468.14 1852.82 L2482.51 1830.92 Z" fill="#000000" fill-rule="evenodd" fill-opacity="1" /><path clip-path="url(#clip640)" d="M2511.05 1834 Q2507.44 1834 2505.61 1837.57 Q2503.81 1841.11 2503.81 1848.24 Q2503.81 1855.34 2505.61 1858.91 Q2507.44 1862.45 2511.05 1862.45 Q2514.69 1862.45 2516.49 1858.91 Q2518.32 1855.34 2518.32 1848.24 Q2518.32 1841.11 2516.49 1837.57 Q2514.69 1834 2511.05 1834 M2511.05 1830.3 Q2516.86 1830.3 2519.92 1834.9 Q2523 1839.49 2523 1848.24 Q2523 1856.96 2519.92 1861.57 Q2516.86 1866.15 2511.05 1866.15 Q2505.24 1866.15 2502.16 1861.57 Q2499.11 1856.96 2499.11 1848.24 Q2499.11 1839.49 2502.16 1834.9 Q2505.24 1830.3 2511.05 1830.3 Z" fill="#000000" fill-rule="evenodd" fill-opacity="1" /><path clip-path="url(#clip640)" d="M2541.21 1834 Q2537.6 1834 2535.77 1837.57 Q2533.97 1841.11 2533.97 1848.24 Q2533.97 1855.34 2535.77 1858.91 Q2537.6 1862.45 2541.21 1862.45 Q2544.85 1862.45 2546.65 1858.91 Q2548.48 1855.34 2548.48 1848.24 Q2548.48 1841.11 2546.65 1837.57 Q2544.85 1834 2541.21 1834 M2541.21 1830.3 Q2547.02 1830.3 2550.08 1834.9 Q2553.16 1839.49 2553.16 1848.24 Q2553.16 1856.96 2550.08 1861.57 Q2547.02 1866.15 2541.21 1866.15 Q2535.4 1866.15 2532.33 1861.57 Q2529.27 1856.96 2529.27 1848.24 Q2529.27 1839.49 2532.33 1834.9 Q2535.4 1830.3 2541.21 1830.3 Z" fill="#000000" fill-rule="evenodd" fill-opacity="1" /><path clip-path="url(#clip640)" d="M2571.38 1834 Q2567.76 1834 2565.94 1837.57 Q2564.13 1841.11 2564.13 1848.24 Q2564.13 1855.34 2565.94 1858.91 Q2567.76 1862.45 2571.38 1862.45 Q2575.01 1862.45 2576.82 1858.91 Q2578.64 1855.34 2578.64 1848.24 Q2578.64 1841.11 2576.82 1837.57 Q2575.01 1834 2571.38 1834 M2571.38 1830.3 Q2577.19 1830.3 2580.24 1834.9 Q2583.32 1839.49 2583.32 1848.24 Q2583.32 1856.96 2580.24 1861.57 Q2577.19 1866.15 2571.38 1866.15 Q2565.57 1866.15 2562.49 1861.57 Q2559.43 1856.96 2559.43 1848.24 Q2559.43 1839.49 2562.49 1834.9 Q2565.57 1830.3 2571.38 1830.3 Z" fill="#000000" fill-rule="evenodd" fill-opacity="1" /><polyline clip-path="url(#clip642)" style="stroke:#000000; stroke-linecap:butt; stroke-linejoin:round; stroke-width:2; stroke-opacity:0.1; fill:none" points="
  202.163,1751.15 2640.76,1751.15 
  "/>
<polyline clip-path="url(#clip642)" style="stroke:#000000; stroke-linecap:butt; stroke-linejoin:round; stroke-width:2; stroke-opacity:0.1; fill:none" points="
  202.163,1345.84 2640.76,1345.84 
  "/>
<polyline clip-path="url(#clip642)" style="stroke:#000000; stroke-linecap:butt; stroke-linejoin:round; stroke-width:2; stroke-opacity:0.1; fill:none" points="
  202.163,940.534 2640.76,940.534 
  "/>
<polyline clip-path="url(#clip642)" style="stroke:#000000; stroke-linecap:butt; stroke-linejoin:round; stroke-width:2; stroke-opacity:0.1; fill:none" points="
  202.163,535.226 2640.76,535.226 
  "/>
<polyline clip-path="url(#clip642)" style="stroke:#000000; stroke-linecap:butt; stroke-linejoin:round; stroke-width:2; stroke-opacity:0.1; fill:none" points="
  202.163,129.917 2640.76,129.917 
  "/>
<polyline clip-path="url(#clip640)" style="stroke:#000000; stroke-linecap:butt; stroke-linejoin:round; stroke-width:4; stroke-opacity:1; fill:none" points="
  202.163,1800.78 202.163,47.2441 
  "/>
<polyline clip-path="url(#clip640)" style="stroke:#000000; stroke-linecap:butt; stroke-linejoin:round; stroke-width:4; stroke-opacity:1; fill:none" points="
  202.163,1751.15 221.061,1751.15 
  "/>
<polyline clip-path="url(#clip640)" style="stroke:#000000; stroke-linecap:butt; stroke-linejoin:round; stroke-width:4; stroke-opacity:1; fill:none" points="
  202.163,1345.84 221.061,1345.84 
  "/>
<polyline clip-path="url(#clip640)" style="stroke:#000000; stroke-linecap:butt; stroke-linejoin:round; stroke-width:4; stroke-opacity:1; fill:none" points="
  202.163,940.534 221.061,940.534 
  "/>
<polyline clip-path="url(#clip640)" style="stroke:#000000; stroke-linecap:butt; stroke-linejoin:round; stroke-width:4; stroke-opacity:1; fill:none" points="
  202.163,535.226 221.061,535.226 
  "/>
<polyline clip-path="url(#clip640)" style="stroke:#000000; stroke-linecap:butt; stroke-linejoin:round; stroke-width:4; stroke-opacity:1; fill:none" points="
  202.163,129.917 221.061,129.917 
  "/>
<path clip-path="url(#clip640)" d="M149.899 1736.95 Q146.288 1736.95 144.459 1740.51 Q142.653 1744.06 142.653 1751.19 Q142.653 1758.29 144.459 1761.86 Q146.288 1765.4 149.899 1765.4 Q153.533 1765.4 155.339 1761.86 Q157.167 1758.29 157.167 1751.19 Q157.167 1744.06 155.339 1740.51 Q153.533 1736.95 149.899 1736.95 M149.899 1733.25 Q155.709 1733.25 158.765 1737.85 Q161.843 1742.44 161.843 1751.19 Q161.843 1759.91 158.765 1764.52 Q155.709 1769.1 149.899 1769.1 Q144.089 1769.1 141.01 1764.52 Q137.954 1759.91 137.954 1751.19 Q137.954 1742.44 141.01 1737.85 Q144.089 1733.25 149.899 1733.25 Z" fill="#000000" fill-rule="evenodd" fill-opacity="1" /><path clip-path="url(#clip640)" d="M83.6029 1359.19 L99.9222 1359.19 L99.9222 1363.12 L77.9779 1363.12 L77.9779 1359.19 Q80.6399 1356.43 85.2232 1351.8 Q89.8297 1347.15 91.0102 1345.81 Q93.2556 1343.28 94.1352 1341.55 Q95.038 1339.79 95.038 1338.1 Q95.038 1335.34 93.0936 1333.61 Q91.1723 1331.87 88.0704 1331.87 Q85.8714 1331.87 83.4177 1332.64 Q80.9871 1333.4 78.2094 1334.95 L78.2094 1330.23 Q81.0334 1329.09 83.4871 1328.52 Q85.9408 1327.94 87.9778 1327.94 Q93.3482 1327.94 96.5426 1330.62 Q99.737 1333.31 99.737 1337.8 Q99.737 1339.93 98.9269 1341.85 Q98.1398 1343.75 96.0334 1346.34 Q95.4547 1347.01 92.3528 1350.23 Q89.251 1353.42 83.6029 1359.19 Z" fill="#000000" fill-rule="evenodd" fill-opacity="1" /><path clip-path="url(#clip640)" d="M109.783 1328.56 L128.14 1328.56 L128.14 1332.5 L114.066 1332.5 L114.066 1340.97 Q115.084 1340.62 116.103 1340.46 Q117.121 1340.28 118.14 1340.28 Q123.927 1340.28 127.306 1343.45 Q130.686 1346.62 130.686 1352.03 Q130.686 1357.61 127.214 1360.72 Q123.742 1363.79 117.422 1363.79 Q115.246 1363.79 112.978 1363.42 Q110.732 1363.05 108.325 1362.31 L108.325 1357.61 Q110.408 1358.75 112.63 1359.3 Q114.853 1359.86 117.33 1359.86 Q121.334 1359.86 123.672 1357.75 Q126.01 1355.65 126.01 1352.03 Q126.01 1348.42 123.672 1346.32 Q121.334 1344.21 117.33 1344.21 Q115.455 1344.21 113.58 1344.63 Q111.728 1345.04 109.783 1345.92 L109.783 1328.56 Z" fill="#000000" fill-rule="evenodd" fill-opacity="1" /><path clip-path="url(#clip640)" d="M149.899 1331.64 Q146.288 1331.64 144.459 1335.21 Q142.653 1338.75 142.653 1345.88 Q142.653 1352.98 144.459 1356.55 Q146.288 1360.09 149.899 1360.09 Q153.533 1360.09 155.339 1356.55 Q157.167 1352.98 157.167 1345.88 Q157.167 1338.75 155.339 1335.21 Q153.533 1331.64 149.899 1331.64 M149.899 1327.94 Q155.709 1327.94 158.765 1332.54 Q161.843 1337.13 161.843 1345.88 Q161.843 1354.6 158.765 1359.21 Q155.709 1363.79 149.899 1363.79 Q144.089 1363.79 141.01 1359.21 Q137.954 1354.6 137.954 1345.88 Q137.954 1337.13 141.01 1332.54 Q144.089 1327.94 149.899 1327.94 Z" fill="#000000" fill-rule="evenodd" fill-opacity="1" /><path clip-path="url(#clip640)" d="M79.6214 923.254 L97.9778 923.254 L97.9778 927.189 L83.9038 927.189 L83.9038 935.661 Q84.9223 935.314 85.9408 935.152 Q86.9593 934.967 87.9778 934.967 Q93.7649 934.967 97.1445 938.138 Q100.524 941.309 100.524 946.726 Q100.524 952.305 97.0519 955.407 Q93.5797 958.485 87.2603 958.485 Q85.0843 958.485 82.8158 958.115 Q80.5705 957.745 78.1631 957.004 L78.1631 952.305 Q80.2464 953.439 82.4686 953.995 Q84.6908 954.55 87.1677 954.55 Q91.1723 954.55 93.5102 952.444 Q95.8482 950.337 95.8482 946.726 Q95.8482 943.115 93.5102 941.009 Q91.1723 938.902 87.1677 938.902 Q85.2927 938.902 83.4177 939.319 Q81.5658 939.735 79.6214 940.615 L79.6214 923.254 Z" fill="#000000" fill-rule="evenodd" fill-opacity="1" /><path clip-path="url(#clip640)" d="M119.737 926.333 Q116.126 926.333 114.297 929.897 Q112.492 933.439 112.492 940.569 Q112.492 947.675 114.297 951.24 Q116.126 954.782 119.737 954.782 Q123.371 954.782 125.177 951.24 Q127.005 947.675 127.005 940.569 Q127.005 933.439 125.177 929.897 Q123.371 926.333 119.737 926.333 M119.737 922.629 Q125.547 922.629 128.603 927.235 Q131.681 931.819 131.681 940.569 Q131.681 949.296 128.603 953.902 Q125.547 958.485 119.737 958.485 Q113.927 958.485 110.848 953.902 Q107.793 949.296 107.793 940.569 Q107.793 931.819 110.848 927.235 Q113.927 922.629 119.737 922.629 Z" fill="#000000" fill-rule="evenodd" fill-opacity="1" /><path clip-path="url(#clip640)" d="M149.899 926.333 Q146.288 926.333 144.459 929.897 Q142.653 933.439 142.653 940.569 Q142.653 947.675 144.459 951.24 Q146.288 954.782 149.899 954.782 Q153.533 954.782 155.339 951.24 Q157.167 947.675 157.167 940.569 Q157.167 933.439 155.339 929.897 Q153.533 926.333 149.899 926.333 M149.899 922.629 Q155.709 922.629 158.765 927.235 Q161.843 931.819 161.843 940.569 Q161.843 949.296 158.765 953.902 Q155.709 958.485 149.899 958.485 Q144.089 958.485 141.01 953.902 Q137.954 949.296 137.954 940.569 Q137.954 931.819 141.01 927.235 Q144.089 922.629 149.899 922.629 Z" fill="#000000" fill-rule="evenodd" fill-opacity="1" /><path clip-path="url(#clip640)" d="M78.3946 517.946 L100.617 517.946 L100.617 519.936 L88.0704 552.506 L83.1862 552.506 L94.9917 521.881 L78.3946 521.881 L78.3946 517.946 Z" fill="#000000" fill-rule="evenodd" fill-opacity="1" /><path clip-path="url(#clip640)" d="M109.783 517.946 L128.14 517.946 L128.14 521.881 L114.066 521.881 L114.066 530.353 Q115.084 530.006 116.103 529.844 Q117.121 529.658 118.14 529.658 Q123.927 529.658 127.306 532.83 Q130.686 536.001 130.686 541.418 Q130.686 546.996 127.214 550.098 Q123.742 553.177 117.422 553.177 Q115.246 553.177 112.978 552.806 Q110.732 552.436 108.325 551.695 L108.325 546.996 Q110.408 548.131 112.63 548.686 Q114.853 549.242 117.33 549.242 Q121.334 549.242 123.672 547.135 Q126.01 545.029 126.01 541.418 Q126.01 537.807 123.672 535.7 Q121.334 533.594 117.33 533.594 Q115.455 533.594 113.58 534.01 Q111.728 534.427 109.783 535.307 L109.783 517.946 Z" fill="#000000" fill-rule="evenodd" fill-opacity="1" /><path clip-path="url(#clip640)" d="M149.899 521.024 Q146.288 521.024 144.459 524.589 Q142.653 528.131 142.653 535.26 Q142.653 542.367 144.459 545.932 Q146.288 549.473 149.899 549.473 Q153.533 549.473 155.339 545.932 Q157.167 542.367 157.167 535.26 Q157.167 528.131 155.339 524.589 Q153.533 521.024 149.899 521.024 M149.899 517.321 Q155.709 517.321 158.765 521.927 Q161.843 526.51 161.843 535.26 Q161.843 543.987 158.765 548.594 Q155.709 553.177 149.899 553.177 Q144.089 553.177 141.01 548.594 Q137.954 543.987 137.954 535.26 Q137.954 526.51 141.01 521.927 Q144.089 517.321 149.899 517.321 Z" fill="#000000" fill-rule="evenodd" fill-opacity="1" /><path clip-path="url(#clip640)" d="M50.2234 143.262 L57.8623 143.262 L57.8623 116.896 L49.5521 118.563 L49.5521 114.304 L57.816 112.637 L62.4919 112.637 L62.4919 143.262 L70.1307 143.262 L70.1307 147.197 L50.2234 147.197 L50.2234 143.262 Z" fill="#000000" fill-rule="evenodd" fill-opacity="1" /><path clip-path="url(#clip640)" d="M89.5751 115.716 Q85.964 115.716 84.1353 119.281 Q82.3297 122.822 82.3297 129.952 Q82.3297 137.058 84.1353 140.623 Q85.964 144.165 89.5751 144.165 Q93.2093 144.165 95.0148 140.623 Q96.8435 137.058 96.8435 129.952 Q96.8435 122.822 95.0148 119.281 Q93.2093 115.716 89.5751 115.716 M89.5751 112.012 Q95.3852 112.012 98.4408 116.619 Q101.519 121.202 101.519 129.952 Q101.519 138.679 98.4408 143.285 Q95.3852 147.868 89.5751 147.868 Q83.7649 147.868 80.6862 143.285 Q77.6307 138.679 77.6307 129.952 Q77.6307 121.202 80.6862 116.619 Q83.7649 112.012 89.5751 112.012 Z" fill="#000000" fill-rule="evenodd" fill-opacity="1" /><path clip-path="url(#clip640)" d="M119.737 115.716 Q116.126 115.716 114.297 119.281 Q112.492 122.822 112.492 129.952 Q112.492 137.058 114.297 140.623 Q116.126 144.165 119.737 144.165 Q123.371 144.165 125.177 140.623 Q127.005 137.058 127.005 129.952 Q127.005 122.822 125.177 119.281 Q123.371 115.716 119.737 115.716 M119.737 112.012 Q125.547 112.012 128.603 116.619 Q131.681 121.202 131.681 129.952 Q131.681 138.679 128.603 143.285 Q125.547 147.868 119.737 147.868 Q113.927 147.868 110.848 143.285 Q107.793 138.679 107.793 129.952 Q107.793 121.202 110.848 116.619 Q113.927 112.012 119.737 112.012 Z" fill="#000000" fill-rule="evenodd" fill-opacity="1" /><path clip-path="url(#clip640)" d="M149.899 115.716 Q146.288 115.716 144.459 119.281 Q142.653 122.822 142.653 129.952 Q142.653 137.058 144.459 140.623 Q146.288 144.165 149.899 144.165 Q153.533 144.165 155.339 140.623 Q157.167 137.058 157.167 129.952 Q157.167 122.822 155.339 119.281 Q153.533 115.716 149.899 115.716 M149.899 112.012 Q155.709 112.012 158.765 116.619 Q161.843 121.202 161.843 129.952 Q161.843 138.679 158.765 143.285 Q155.709 147.868 149.899 147.868 Q144.089 147.868 141.01 143.285 Q137.954 138.679 137.954 129.952 Q137.954 121.202 141.01 116.619 Q144.089 112.012 149.899 112.012 Z" fill="#000000" fill-rule="evenodd" fill-opacity="1" /><polyline clip-path="url(#clip642)" style="stroke:#009af9; stroke-linecap:butt; stroke-linejoin:round; stroke-width:4; stroke-opacity:1; fill:none" points="
  271.18,1751.15 282.741,1718.07 294.301,1685.31 305.862,1652.9 317.422,1620.81 328.983,1589.07 340.544,1557.65 352.104,1526.57 363.665,1495.82 375.225,1465.41 
  386.786,1435.33 398.347,1405.59 409.907,1376.18 421.468,1347.11 433.028,1318.36 444.589,1289.96 456.15,1261.89 467.71,1234.15 479.271,1206.74 490.831,1179.67 
  502.392,1152.94 513.953,1126.54 525.513,1100.47 537.074,1074.73 548.634,1049.34 560.195,1024.27 571.756,999.54 583.316,975.144 594.877,951.082 606.437,927.354 
  617.998,903.96 629.559,880.9 641.119,858.175 652.68,835.784 664.24,813.726 675.801,792.004 687.362,770.615 698.922,749.561 710.483,728.84 722.043,708.454 
  733.604,688.402 745.165,668.685 756.725,649.301 768.286,630.252 779.846,611.537 791.407,593.156 802.968,575.109 814.528,557.397 826.089,540.019 837.649,522.974 
  849.21,506.265 860.771,489.889 872.331,473.847 883.892,458.14 895.452,442.767 907.013,427.728 918.573,413.023 930.134,398.653 941.695,384.617 953.255,370.915 
  964.816,357.547 976.376,344.513 987.937,331.813 999.498,319.448 1011.06,307.417 1022.62,295.72 1034.18,284.357 1045.74,273.329 1057.3,262.634 1068.86,252.274 
  1080.42,242.248 1091.98,232.557 1103.54,223.199 1115.1,214.176 1126.66,205.487 1138.22,197.132 1149.79,189.111 1161.35,181.424 1172.91,174.072 1184.47,167.054 
  1196.03,160.37 1207.59,154.02 1219.15,148.005 1230.71,142.323 1242.27,136.976 1253.83,131.963 1265.39,127.284 1276.95,122.94 1288.51,118.929 1300.07,115.253 
  1311.63,111.911 1323.19,108.904 1334.76,106.23 1346.32,103.891 1357.88,101.885 1369.44,100.214 1381,98.8776 1392.56,97.875 1404.12,97.2066 1415.68,96.8724 
  1427.24,96.8724 1438.8,97.2066 1450.36,97.875 1461.92,98.8776 1473.48,100.214 1485.04,101.885 1496.6,103.891 1508.16,106.23 1519.72,108.904 1531.29,111.911 
  1542.85,115.253 1554.41,118.929 1565.97,122.94 1577.53,127.284 1589.09,131.963 1600.65,136.976 1612.21,142.323 1623.77,148.005 1635.33,154.02 1646.89,160.37 
  1658.45,167.054 1670.01,174.072 1681.57,181.424 1693.13,189.111 1704.69,197.132 1716.25,205.487 1727.82,214.176 1739.38,223.199 1750.94,232.557 1762.5,242.248 
  1774.06,252.274 1785.62,262.634 1797.18,273.329 1808.74,284.357 1820.3,295.72 1831.86,307.417 1843.42,319.448 1854.98,331.813 1866.54,344.513 1878.1,357.547 
  1889.66,370.915 1901.22,384.617 1912.78,398.653 1924.35,413.023 1935.91,427.728 1947.47,442.767 1959.03,458.14 1970.59,473.847 1982.15,489.889 1993.71,506.265 
  2005.27,522.974 2016.83,540.019 2028.39,557.397 2039.95,575.109 2051.51,593.156 2063.07,611.537 2074.63,630.252 2086.19,649.301 2097.75,668.685 2109.32,688.402 
  2120.88,708.454 2132.44,728.84 2144,749.561 2155.56,770.615 2167.12,792.004 2178.68,813.726 2190.24,835.784 2201.8,858.175 2213.36,880.9 2224.92,903.96 
  2236.48,927.354 2248.04,951.082 2259.6,975.144 2271.16,999.54 2282.72,1024.27 2294.28,1049.34 2305.85,1074.73 2317.41,1100.47 2328.97,1126.54 2340.53,1152.94 
  2352.09,1179.67 2363.65,1206.74 2375.21,1234.15 2386.77,1261.89 2398.33,1289.96 2409.89,1318.36 2421.45,1347.11 2433.01,1376.18 2444.57,1405.59 2456.13,1435.33 
  2467.69,1465.41 2479.25,1495.82 2490.81,1526.57 2502.38,1557.65 2513.94,1589.07 2525.5,1620.81 2537.06,1652.9 2548.62,1685.31 2560.18,1718.07 2571.74,1751.15 
  
  "/>
</svg>
