<?xml version="1.0" encoding="utf-8"?>
<svg xmlns="http://www.w3.org/2000/svg" xmlns:xlink="http://www.w3.org/1999/xlink" width="672" height="480" viewBox="0 0 2688 1920">
<defs>
  <clipPath id="clip690">
    <rect x="0" y="0" width="2688" height="1920"/>
  </clipPath>
</defs>
<path clip-path="url(#clip690)" d="
M0 1920 L2688 1920 L2688 0 L0 0  Z
  " fill="#ffffff" fill-rule="evenodd" fill-opacity="1"/>
<defs>
  <clipPath id="clip691">
    <rect x="537" y="0" width="1883" height="1883"/>
  </clipPath>
</defs>
<path clip-path="url(#clip690)" d="
M211.909 1800.78 L2640.76 1800.78 L2640.76 47.2441 L211.909 47.2441  Z
  " fill="#ffffff" fill-rule="evenodd" fill-opacity="1"/>
<defs>
  <clipPath id="clip692">
    <rect x="211" y="47" width="2430" height="1755"/>
  </clipPath>
</defs>
<polyline clip-path="url(#clip692)" style="stroke:#000000; stroke-linecap:butt; stroke-linejoin:round; stroke-width:2; stroke-opacity:0.1; fill:none" points="
  280.649,1800.78 280.649,47.2441 
  "/>
<polyline clip-path="url(#clip692)" style="stroke:#000000; stroke-linecap:butt; stroke-linejoin:round; stroke-width:2; stroke-opacity:0.1; fill:none" points="
  686.008,1800.78 686.008,47.2441 
  "/>
<polyline clip-path="url(#clip692)" style="stroke:#000000; stroke-linecap:butt; stroke-linejoin:round; stroke-width:2; stroke-opacity:0.1; fill:none" points="
  1091.37,1800.78 1091.37,47.2441 
  "/>
<polyline clip-path="url(#clip692)" style="stroke:#000000; stroke-linecap:butt; stroke-linejoin:round; stroke-width:2; stroke-opacity:0.1; fill:none" points="
  1496.72,1800.78 1496.72,47.2441 
  "/>
<polyline clip-path="url(#clip692)" style="stroke:#000000; stroke-linecap:butt; stroke-linejoin:round; stroke-width:2; stroke-opacity:0.1; fill:none" points="
  1902.08,1800.78 1902.08,47.2441 
  "/>
<polyline clip-path="url(#clip692)" style="stroke:#000000; stroke-linecap:butt; stroke-linejoin:round; stroke-width:2; stroke-opacity:0.1; fill:none" points="
  2307.44,1800.78 2307.44,47.2441 
  "/>
<polyline clip-path="url(#clip690)" style="stroke:#000000; stroke-linecap:butt; stroke-linejoin:round; stroke-width:4; stroke-opacity:1; fill:none" points="
  211.909,1800.78 2640.76,1800.78 
  "/>
<polyline clip-path="url(#clip690)" style="stroke:#000000; stroke-linecap:butt; stroke-linejoin:round; stroke-width:4; stroke-opacity:1; fill:none" points="
  280.649,1800.78 280.649,1781.88 
  "/>
<polyline clip-path="url(#clip690)" style="stroke:#000000; stroke-linecap:butt; stroke-linejoin:round; stroke-width:4; stroke-opacity:1; fill:none" points="
  686.008,1800.78 686.008,1781.88 
  "/>
<polyline clip-path="url(#clip690)" style="stroke:#000000; stroke-linecap:butt; stroke-linejoin:round; stroke-width:4; stroke-opacity:1; fill:none" points="
  1091.37,1800.78 1091.37,1781.88 
  "/>
<polyline clip-path="url(#clip690)" style="stroke:#000000; stroke-linecap:butt; stroke-linejoin:round; stroke-width:4; stroke-opacity:1; fill:none" points="
  1496.72,1800.78 1496.72,1781.88 
  "/>
<polyline clip-path="url(#clip690)" style="stroke:#000000; stroke-linecap:butt; stroke-linejoin:round; stroke-width:4; stroke-opacity:1; fill:none" points="
  1902.08,1800.78 1902.08,1781.88 
  "/>
<polyline clip-path="url(#clip690)" style="stroke:#000000; stroke-linecap:butt; stroke-linejoin:round; stroke-width:4; stroke-opacity:1; fill:none" points="
  2307.44,1800.78 2307.44,1781.88 
  "/>
<path clip-path="url(#clip690)" d="M280.649 1834 Q277.038 1834 275.21 1837.57 Q273.404 1841.11 273.404 1848.24 Q273.404 1855.34 275.21 1858.91 Q277.038 1862.45 280.649 1862.45 Q284.284 1862.45 286.089 1858.91 Q287.918 1855.34 287.918 1848.24 Q287.918 1841.11 286.089 1837.57 Q284.284 1834 280.649 1834 M280.649 1830.3 Q286.46 1830.3 289.515 1834.9 Q292.594 1839.49 292.594 1848.24 Q292.594 1856.96 289.515 1861.57 Q286.46 1866.15 280.649 1866.15 Q274.839 1866.15 271.761 1861.57 Q268.705 1856.96 268.705 1848.24 Q268.705 1839.49 271.761 1834.9 Q274.839 1830.3 280.649 1830.3 Z" fill="#000000" fill-rule="evenodd" fill-opacity="1" /><path clip-path="url(#clip690)" d="M645.614 1861.55 L653.253 1861.55 L653.253 1835.18 L644.943 1836.85 L644.943 1832.59 L653.207 1830.92 L657.883 1830.92 L657.883 1861.55 L665.522 1861.55 L665.522 1865.48 L645.614 1865.48 L645.614 1861.55 Z" fill="#000000" fill-rule="evenodd" fill-opacity="1" /><path clip-path="url(#clip690)" d="M684.966 1834 Q681.355 1834 679.526 1837.57 Q677.721 1841.11 677.721 1848.24 Q677.721 1855.34 679.526 1858.91 Q681.355 1862.45 684.966 1862.45 Q688.6 1862.45 690.406 1858.91 Q692.234 1855.34 692.234 1848.24 Q692.234 1841.11 690.406 1837.57 Q688.6 1834 684.966 1834 M684.966 1830.3 Q690.776 1830.3 693.832 1834.9 Q696.91 1839.49 696.91 1848.24 Q696.91 1856.96 693.832 1861.57 Q690.776 1866.15 684.966 1866.15 Q679.156 1866.15 676.077 1861.57 Q673.022 1856.96 673.022 1848.24 Q673.022 1839.49 676.077 1834.9 Q679.156 1830.3 684.966 1830.3 Z" fill="#000000" fill-rule="evenodd" fill-opacity="1" /><path clip-path="url(#clip690)" d="M715.128 1834 Q711.517 1834 709.688 1837.57 Q707.882 1841.11 707.882 1848.24 Q707.882 1855.34 709.688 1858.91 Q711.517 1862.45 715.128 1862.45 Q718.762 1862.45 720.568 1858.91 Q722.396 1855.34 722.396 1848.24 Q722.396 1841.11 720.568 1837.57 Q718.762 1834 715.128 1834 M715.128 1830.3 Q720.938 1830.3 723.994 1834.9 Q727.072 1839.49 727.072 1848.24 Q727.072 1856.96 723.994 1861.57 Q720.938 1866.15 715.128 1866.15 Q709.318 1866.15 706.239 1861.57 Q703.183 1856.96 703.183 1848.24 Q703.183 1839.49 706.239 1834.9 Q709.318 1830.3 715.128 1830.3 Z" fill="#000000" fill-rule="evenodd" fill-opacity="1" /><path clip-path="url(#clip690)" d="M1055.06 1861.55 L1071.38 1861.55 L1071.38 1865.48 L1049.43 1865.48 L1049.43 1861.55 Q1052.1 1858.79 1056.68 1854.16 Q1061.28 1849.51 1062.47 1848.17 Q1064.71 1845.65 1065.59 1843.91 Q1066.49 1842.15 1066.49 1840.46 Q1066.49 1837.71 1064.55 1835.97 Q1062.63 1834.23 1059.53 1834.23 Q1057.33 1834.23 1054.87 1835 Q1052.44 1835.76 1049.66 1837.31 L1049.66 1832.59 Q1052.49 1831.46 1054.94 1830.88 Q1057.4 1830.3 1059.43 1830.3 Q1064.8 1830.3 1068 1832.98 Q1071.19 1835.67 1071.19 1840.16 Q1071.19 1842.29 1070.38 1844.21 Q1069.6 1846.11 1067.49 1848.7 Q1066.91 1849.37 1063.81 1852.59 Q1060.71 1855.78 1055.06 1861.55 Z" fill="#000000" fill-rule="evenodd" fill-opacity="1" /><path clip-path="url(#clip690)" d="M1091.19 1834 Q1087.58 1834 1085.75 1837.57 Q1083.95 1841.11 1083.95 1848.24 Q1083.95 1855.34 1085.75 1858.91 Q1087.58 1862.45 1091.19 1862.45 Q1094.83 1862.45 1096.63 1858.91 Q1098.46 1855.34 1098.46 1848.24 Q1098.46 1841.11 1096.63 1837.57 Q1094.83 1834 1091.19 1834 M1091.19 1830.3 Q1097 1830.3 1100.06 1834.9 Q1103.14 1839.49 1103.14 1848.24 Q1103.14 1856.96 1100.06 1861.57 Q1097 1866.15 1091.19 1866.15 Q1085.38 1866.15 1082.3 1861.57 Q1079.25 1856.96 1079.25 1848.24 Q1079.25 1839.49 1082.3 1834.9 Q1085.38 1830.3 1091.19 1830.3 Z" fill="#000000" fill-rule="evenodd" fill-opacity="1" /><path clip-path="url(#clip690)" d="M1121.35 1834 Q1117.74 1834 1115.91 1837.57 Q1114.11 1841.11 1114.11 1848.24 Q1114.11 1855.34 1115.91 1858.91 Q1117.74 1862.45 1121.35 1862.45 Q1124.99 1862.45 1126.79 1858.91 Q1128.62 1855.34 1128.62 1848.24 Q1128.62 1841.11 1126.79 1837.57 Q1124.99 1834 1121.35 1834 M1121.35 1830.3 Q1127.16 1830.3 1130.22 1834.9 Q1133.3 1839.49 1133.3 1848.24 Q1133.3 1856.96 1130.22 1861.57 Q1127.16 1866.15 1121.35 1866.15 Q1115.54 1866.15 1112.47 1861.57 Q1109.41 1856.96 1109.41 1848.24 Q1109.41 1839.49 1112.47 1834.9 Q1115.54 1830.3 1121.35 1830.3 Z" fill="#000000" fill-rule="evenodd" fill-opacity="1" /><path clip-path="url(#clip690)" d="M1470.49 1846.85 Q1473.84 1847.57 1475.72 1849.84 Q1477.62 1852.1 1477.62 1855.44 Q1477.62 1860.55 1474.1 1863.35 Q1470.58 1866.15 1464.1 1866.15 Q1461.92 1866.15 1459.61 1865.71 Q1457.31 1865.3 1454.86 1864.44 L1454.86 1859.93 Q1456.81 1861.06 1459.12 1861.64 Q1461.43 1862.22 1463.96 1862.22 Q1468.36 1862.22 1470.65 1860.48 Q1472.96 1858.75 1472.96 1855.44 Q1472.96 1852.38 1470.81 1850.67 Q1468.68 1848.93 1464.86 1848.93 L1460.83 1848.93 L1460.83 1845.09 L1465.05 1845.09 Q1468.49 1845.09 1470.32 1843.72 Q1472.15 1842.34 1472.15 1839.74 Q1472.15 1837.08 1470.25 1835.67 Q1468.38 1834.23 1464.86 1834.23 Q1462.94 1834.23 1460.74 1834.65 Q1458.54 1835.07 1455.9 1835.95 L1455.9 1831.78 Q1458.56 1831.04 1460.88 1830.67 Q1463.22 1830.3 1465.28 1830.3 Q1470.6 1830.3 1473.7 1832.73 Q1476.81 1835.14 1476.81 1839.26 Q1476.81 1842.13 1475.16 1844.12 Q1473.52 1846.09 1470.49 1846.85 Z" fill="#000000" fill-rule="evenodd" fill-opacity="1" /><path clip-path="url(#clip690)" d="M1496.48 1834 Q1492.87 1834 1491.04 1837.57 Q1489.24 1841.11 1489.24 1848.24 Q1489.24 1855.34 1491.04 1858.91 Q1492.87 1862.45 1496.48 1862.45 Q1500.12 1862.45 1501.92 1858.91 Q1503.75 1855.34 1503.75 1848.24 Q1503.75 1841.11 1501.92 1837.57 Q1500.12 1834 1496.48 1834 M1496.48 1830.3 Q1502.29 1830.3 1505.35 1834.9 Q1508.43 1839.49 1508.43 1848.24 Q1508.43 1856.96 1505.35 1861.57 Q1502.29 1866.15 1496.48 1866.15 Q1490.67 1866.15 1487.59 1861.57 Q1484.54 1856.96 1484.54 1848.24 Q1484.54 1839.49 1487.59 1834.9 Q1490.67 1830.3 1496.48 1830.3 Z" fill="#000000" fill-rule="evenodd" fill-opacity="1" /><path clip-path="url(#clip690)" d="M1526.64 1834 Q1523.03 1834 1521.2 1837.57 Q1519.4 1841.11 1519.4 1848.24 Q1519.4 1855.34 1521.2 1858.91 Q1523.03 1862.45 1526.64 1862.45 Q1530.28 1862.45 1532.08 1858.91 Q1533.91 1855.34 1533.91 1848.24 Q1533.91 1841.11 1532.08 1837.57 Q1530.28 1834 1526.64 1834 M1526.64 1830.3 Q1532.45 1830.3 1535.51 1834.9 Q1538.59 1839.49 1538.59 1848.24 Q1538.59 1856.96 1535.51 1861.57 Q1532.45 1866.15 1526.64 1866.15 Q1520.83 1866.15 1517.75 1861.57 Q1514.7 1856.96 1514.7 1848.24 Q1514.7 1839.49 1517.75 1834.9 Q1520.83 1830.3 1526.64 1830.3 Z" fill="#000000" fill-rule="evenodd" fill-opacity="1" /><path clip-path="url(#clip690)" d="M1875.17 1835 L1863.37 1853.45 L1875.17 1853.45 L1875.17 1835 M1873.95 1830.92 L1879.83 1830.92 L1879.83 1853.45 L1884.76 1853.45 L1884.76 1857.34 L1879.83 1857.34 L1879.83 1865.48 L1875.17 1865.48 L1875.17 1857.34 L1859.57 1857.34 L1859.57 1852.82 L1873.95 1830.92 Z" fill="#000000" fill-rule="evenodd" fill-opacity="1" /><path clip-path="url(#clip690)" d="M1902.49 1834 Q1898.88 1834 1897.05 1837.57 Q1895.24 1841.11 1895.24 1848.24 Q1895.24 1855.34 1897.05 1858.91 Q1898.88 1862.45 1902.49 1862.45 Q1906.12 1862.45 1907.93 1858.91 Q1909.76 1855.34 1909.76 1848.24 Q1909.76 1841.11 1907.93 1837.57 Q1906.12 1834 1902.49 1834 M1902.49 1830.3 Q1908.3 1830.3 1911.35 1834.9 Q1914.43 1839.49 1914.43 1848.24 Q1914.43 1856.96 1911.35 1861.57 Q1908.3 1866.15 1902.49 1866.15 Q1896.68 1866.15 1893.6 1861.57 Q1890.54 1856.96 1890.54 1848.24 Q1890.54 1839.49 1893.6 1834.9 Q1896.68 1830.3 1902.49 1830.3 Z" fill="#000000" fill-rule="evenodd" fill-opacity="1" /><path clip-path="url(#clip690)" d="M1932.65 1834 Q1929.04 1834 1927.21 1837.57 Q1925.4 1841.11 1925.4 1848.24 Q1925.4 1855.34 1927.21 1858.91 Q1929.04 1862.45 1932.65 1862.45 Q1936.28 1862.45 1938.09 1858.91 Q1939.92 1855.34 1939.92 1848.24 Q1939.92 1841.11 1938.09 1837.57 Q1936.28 1834 1932.65 1834 M1932.65 1830.3 Q1938.46 1830.3 1941.51 1834.9 Q1944.59 1839.49 1944.59 1848.24 Q1944.59 1856.96 1941.51 1861.57 Q1938.46 1866.15 1932.65 1866.15 Q1926.84 1866.15 1923.76 1861.57 Q1920.7 1856.96 1920.7 1848.24 Q1920.7 1839.49 1923.76 1834.9 Q1926.84 1830.3 1932.65 1830.3 Z" fill="#000000" fill-rule="evenodd" fill-opacity="1" /><path clip-path="url(#clip690)" d="M2267.06 1830.92 L2285.41 1830.92 L2285.41 1834.86 L2271.34 1834.86 L2271.34 1843.33 Q2272.36 1842.98 2273.38 1842.82 Q2274.4 1842.64 2275.41 1842.64 Q2281.2 1842.64 2284.58 1845.81 Q2287.96 1848.98 2287.96 1854.4 Q2287.96 1859.97 2284.49 1863.08 Q2281.02 1866.15 2274.7 1866.15 Q2272.52 1866.15 2270.25 1865.78 Q2268.01 1865.41 2265.6 1864.67 L2265.6 1859.97 Q2267.68 1861.11 2269.91 1861.66 Q2272.13 1862.22 2274.6 1862.22 Q2278.61 1862.22 2280.95 1860.11 Q2283.29 1858.01 2283.29 1854.4 Q2283.29 1850.78 2280.95 1848.68 Q2278.61 1846.57 2274.6 1846.57 Q2272.73 1846.57 2270.85 1846.99 Q2269 1847.4 2267.06 1848.28 L2267.06 1830.92 Z" fill="#000000" fill-rule="evenodd" fill-opacity="1" /><path clip-path="url(#clip690)" d="M2307.17 1834 Q2303.56 1834 2301.73 1837.57 Q2299.93 1841.11 2299.93 1848.24 Q2299.93 1855.34 2301.73 1858.91 Q2303.56 1862.45 2307.17 1862.45 Q2310.81 1862.45 2312.61 1858.91 Q2314.44 1855.34 2314.44 1848.24 Q2314.44 1841.11 2312.61 1837.57 Q2310.81 1834 2307.17 1834 M2307.17 1830.3 Q2312.98 1830.3 2316.04 1834.9 Q2319.12 1839.49 2319.12 1848.24 Q2319.12 1856.96 2316.04 1861.57 Q2312.98 1866.15 2307.17 1866.15 Q2301.36 1866.15 2298.29 1861.57 Q2295.23 1856.96 2295.23 1848.24 Q2295.23 1839.49 2298.29 1834.9 Q2301.36 1830.3 2307.17 1830.3 Z" fill="#000000" fill-rule="evenodd" fill-opacity="1" /><path clip-path="url(#clip690)" d="M2337.34 1834 Q2333.72 1834 2331.9 1837.57 Q2330.09 1841.11 2330.09 1848.24 Q2330.09 1855.34 2331.9 1858.91 Q2333.72 1862.45 2337.34 1862.45 Q2340.97 1862.45 2342.78 1858.91 Q2344.6 1855.34 2344.6 1848.24 Q2344.6 1841.11 2342.78 1837.57 Q2340.97 1834 2337.34 1834 M2337.34 1830.3 Q2343.15 1830.3 2346.2 1834.9 Q2349.28 1839.49 2349.28 1848.24 Q2349.28 1856.96 2346.2 1861.57 Q2343.15 1866.15 2337.34 1866.15 Q2331.53 1866.15 2328.45 1861.57 Q2325.39 1856.96 2325.39 1848.24 Q2325.39 1839.49 2328.45 1834.9 Q2331.53 1830.3 2337.34 1830.3 Z" fill="#000000" fill-rule="evenodd" fill-opacity="1" /><polyline clip-path="url(#clip692)" style="stroke:#000000; stroke-linecap:butt; stroke-linejoin:round; stroke-width:2; stroke-opacity:0.1; fill:none" points="
  211.909,1729.97 2640.76,1729.97 
  "/>
<polyline clip-path="url(#clip692)" style="stroke:#000000; stroke-linecap:butt; stroke-linejoin:round; stroke-width:2; stroke-opacity:0.1; fill:none" points="
  211.909,1280.17 2640.76,1280.17 
  "/>
<polyline clip-path="url(#clip692)" style="stroke:#000000; stroke-linecap:butt; stroke-linejoin:round; stroke-width:2; stroke-opacity:0.1; fill:none" points="
  211.909,830.362 2640.76,830.362 
  "/>
<polyline clip-path="url(#clip692)" style="stroke:#000000; stroke-linecap:butt; stroke-linejoin:round; stroke-width:2; stroke-opacity:0.1; fill:none" points="
  211.909,380.556 2640.76,380.556 
  "/>
<polyline clip-path="url(#clip690)" style="stroke:#000000; stroke-linecap:butt; stroke-linejoin:round; stroke-width:4; stroke-opacity:1; fill:none" points="
  211.909,1800.78 211.909,47.2441 
  "/>
<polyline clip-path="url(#clip690)" style="stroke:#000000; stroke-linecap:butt; stroke-linejoin:round; stroke-width:4; stroke-opacity:1; fill:none" points="
  211.909,1729.97 230.806,1729.97 
  "/>
<polyline clip-path="url(#clip690)" style="stroke:#000000; stroke-linecap:butt; stroke-linejoin:round; stroke-width:4; stroke-opacity:1; fill:none" points="
  211.909,1280.17 230.806,1280.17 
  "/>
<polyline clip-path="url(#clip690)" style="stroke:#000000; stroke-linecap:butt; stroke-linejoin:round; stroke-width:4; stroke-opacity:1; fill:none" points="
  211.909,830.362 230.806,830.362 
  "/>
<polyline clip-path="url(#clip690)" style="stroke:#000000; stroke-linecap:butt; stroke-linejoin:round; stroke-width:4; stroke-opacity:1; fill:none" points="
  211.909,380.556 230.806,380.556 
  "/>
<path clip-path="url(#clip690)" d="M49.5521 1730.42 L79.2279 1730.42 L79.2279 1734.36 L49.5521 1734.36 L49.5521 1730.42 Z" fill="#000000" fill-rule="evenodd" fill-opacity="1" /><path clip-path="url(#clip690)" d="M102.168 1716.77 L90.3621 1735.22 L102.168 1735.22 L102.168 1716.77 M100.941 1712.69 L106.82 1712.69 L106.82 1735.22 L111.751 1735.22 L111.751 1739.1 L106.82 1739.1 L106.82 1747.25 L102.168 1747.25 L102.168 1739.1 L86.5658 1739.1 L86.5658 1734.59 L100.941 1712.69 Z" fill="#000000" fill-rule="evenodd" fill-opacity="1" /><path clip-path="url(#clip690)" d="M129.482 1715.77 Q125.871 1715.77 124.042 1719.34 Q122.237 1722.88 122.237 1730.01 Q122.237 1737.11 124.042 1740.68 Q125.871 1744.22 129.482 1744.22 Q133.116 1744.22 134.922 1740.68 Q136.751 1737.11 136.751 1730.01 Q136.751 1722.88 134.922 1719.34 Q133.116 1715.77 129.482 1715.77 M129.482 1712.07 Q135.292 1712.07 138.348 1716.67 Q141.427 1721.26 141.427 1730.01 Q141.427 1738.73 138.348 1743.34 Q135.292 1747.92 129.482 1747.92 Q123.672 1747.92 120.593 1743.34 Q117.538 1738.73 117.538 1730.01 Q117.538 1721.26 120.593 1716.67 Q123.672 1712.07 129.482 1712.07 Z" fill="#000000" fill-rule="evenodd" fill-opacity="1" /><path clip-path="url(#clip690)" d="M159.644 1715.77 Q156.033 1715.77 154.204 1719.34 Q152.399 1722.88 152.399 1730.01 Q152.399 1737.11 154.204 1740.68 Q156.033 1744.22 159.644 1744.22 Q163.278 1744.22 165.084 1740.68 Q166.913 1737.11 166.913 1730.01 Q166.913 1722.88 165.084 1719.34 Q163.278 1715.77 159.644 1715.77 M159.644 1712.07 Q165.454 1712.07 168.51 1716.67 Q171.589 1721.26 171.589 1730.01 Q171.589 1738.73 168.51 1743.34 Q165.454 1747.92 159.644 1747.92 Q153.834 1747.92 150.755 1743.34 Q147.7 1738.73 147.7 1730.01 Q147.7 1721.26 150.755 1716.67 Q153.834 1712.07 159.644 1712.07 Z" fill="#000000" fill-rule="evenodd" fill-opacity="1" /><path clip-path="url(#clip690)" d="M49.5521 1280.62 L79.2279 1280.62 L79.2279 1284.55 L49.5521 1284.55 L49.5521 1280.62 Z" fill="#000000" fill-rule="evenodd" fill-opacity="1" /><path clip-path="url(#clip690)" d="M93.3482 1293.51 L109.668 1293.51 L109.668 1297.45 L87.7232 1297.45 L87.7232 1293.51 Q90.3852 1290.76 94.9685 1286.13 Q99.575 1281.47 100.756 1280.13 Q103.001 1277.61 103.881 1275.87 Q104.783 1274.11 104.783 1272.42 Q104.783 1269.67 102.839 1267.93 Q100.918 1266.2 97.8158 1266.2 Q95.6167 1266.2 93.163 1266.96 Q90.7325 1267.72 87.9547 1269.28 L87.9547 1264.55 Q90.7788 1263.42 93.2324 1262.84 Q95.6861 1262.26 97.7232 1262.26 Q103.094 1262.26 106.288 1264.95 Q109.482 1267.63 109.482 1272.12 Q109.482 1274.25 108.672 1276.17 Q107.885 1278.07 105.779 1280.66 Q105.2 1281.34 102.098 1284.55 Q98.9963 1287.75 93.3482 1293.51 Z" fill="#000000" fill-rule="evenodd" fill-opacity="1" /><path clip-path="url(#clip690)" d="M129.482 1265.97 Q125.871 1265.97 124.042 1269.53 Q122.237 1273.07 122.237 1280.2 Q122.237 1287.31 124.042 1290.87 Q125.871 1294.41 129.482 1294.41 Q133.116 1294.41 134.922 1290.87 Q136.751 1287.31 136.751 1280.2 Q136.751 1273.07 134.922 1269.53 Q133.116 1265.97 129.482 1265.97 M129.482 1262.26 Q135.292 1262.26 138.348 1266.87 Q141.427 1271.45 141.427 1280.2 Q141.427 1288.93 138.348 1293.53 Q135.292 1298.12 129.482 1298.12 Q123.672 1298.12 120.593 1293.53 Q117.538 1288.93 117.538 1280.2 Q117.538 1271.45 120.593 1266.87 Q123.672 1262.26 129.482 1262.26 Z" fill="#000000" fill-rule="evenodd" fill-opacity="1" /><path clip-path="url(#clip690)" d="M159.644 1265.97 Q156.033 1265.97 154.204 1269.53 Q152.399 1273.07 152.399 1280.2 Q152.399 1287.31 154.204 1290.87 Q156.033 1294.41 159.644 1294.41 Q163.278 1294.41 165.084 1290.87 Q166.913 1287.31 166.913 1280.2 Q166.913 1273.07 165.084 1269.53 Q163.278 1265.97 159.644 1265.97 M159.644 1262.26 Q165.454 1262.26 168.51 1266.87 Q171.589 1271.45 171.589 1280.2 Q171.589 1288.93 168.51 1293.53 Q165.454 1298.12 159.644 1298.12 Q153.834 1298.12 150.755 1293.53 Q147.7 1288.93 147.7 1280.2 Q147.7 1271.45 150.755 1266.87 Q153.834 1262.26 159.644 1262.26 Z" fill="#000000" fill-rule="evenodd" fill-opacity="1" /><path clip-path="url(#clip690)" d="M159.644 816.16 Q156.033 816.16 154.204 819.725 Q152.399 823.267 152.399 830.396 Q152.399 837.503 154.204 841.068 Q156.033 844.609 159.644 844.609 Q163.278 844.609 165.084 841.068 Q166.913 837.503 166.913 830.396 Q166.913 823.267 165.084 819.725 Q163.278 816.16 159.644 816.16 M159.644 812.457 Q165.454 812.457 168.51 817.063 Q171.589 821.646 171.589 830.396 Q171.589 839.123 168.51 843.73 Q165.454 848.313 159.644 848.313 Q153.834 848.313 150.755 843.73 Q147.7 839.123 147.7 830.396 Q147.7 821.646 150.755 817.063 Q153.834 812.457 159.644 812.457 Z" fill="#000000" fill-rule="evenodd" fill-opacity="1" /><path clip-path="url(#clip690)" d="M93.3482 393.901 L109.668 393.901 L109.668 397.836 L87.7232 397.836 L87.7232 393.901 Q90.3852 391.146 94.9685 386.517 Q99.575 381.864 100.756 380.521 Q103.001 377.998 103.881 376.262 Q104.783 374.503 104.783 372.813 Q104.783 370.059 102.839 368.322 Q100.918 366.586 97.8158 366.586 Q95.6167 366.586 93.163 367.35 Q90.7325 368.114 87.9547 369.665 L87.9547 364.943 Q90.7788 363.809 93.2324 363.23 Q95.6861 362.651 97.7232 362.651 Q103.094 362.651 106.288 365.336 Q109.482 368.022 109.482 372.512 Q109.482 374.642 108.672 376.563 Q107.885 378.461 105.779 381.054 Q105.2 381.725 102.098 384.943 Q98.9963 388.137 93.3482 393.901 Z" fill="#000000" fill-rule="evenodd" fill-opacity="1" /><path clip-path="url(#clip690)" d="M129.482 366.355 Q125.871 366.355 124.042 369.92 Q122.237 373.461 122.237 380.591 Q122.237 387.697 124.042 391.262 Q125.871 394.804 129.482 394.804 Q133.116 394.804 134.922 391.262 Q136.751 387.697 136.751 380.591 Q136.751 373.461 134.922 369.92 Q133.116 366.355 129.482 366.355 M129.482 362.651 Q135.292 362.651 138.348 367.258 Q141.427 371.841 141.427 380.591 Q141.427 389.318 138.348 393.924 Q135.292 398.507 129.482 398.507 Q123.672 398.507 120.593 393.924 Q117.538 389.318 117.538 380.591 Q117.538 371.841 120.593 367.258 Q123.672 362.651 129.482 362.651 Z" fill="#000000" fill-rule="evenodd" fill-opacity="1" /><path clip-path="url(#clip690)" d="M159.644 366.355 Q156.033 366.355 154.204 369.92 Q152.399 373.461 152.399 380.591 Q152.399 387.697 154.204 391.262 Q156.033 394.804 159.644 394.804 Q163.278 394.804 165.084 391.262 Q166.913 387.697 166.913 380.591 Q166.913 373.461 165.084 369.92 Q163.278 366.355 159.644 366.355 M159.644 362.651 Q165.454 362.651 168.51 367.258 Q171.589 371.841 171.589 380.591 Q171.589 389.318 168.51 393.924 Q165.454 398.507 159.644 398.507 Q153.834 398.507 150.755 393.924 Q147.7 389.318 147.7 380.591 Q147.7 371.841 150.755 367.258 Q153.834 362.651 159.644 362.651 Z" fill="#000000" fill-rule="evenodd" fill-opacity="1" /><polyline clip-path="url(#clip692)" style="stroke:#009af9; stroke-linecap:butt; stroke-linejoin:round; stroke-width:4; stroke-opacity:1; fill:none" points="
  280.649,830.362 362.302,785.288 441.047,742.274 516.988,701.248 590.225,662.137 660.854,624.875 728.968,589.395 794.657,555.633 858.006,523.529 919.1,493.023 
  978.018,464.059 1034.84,436.582 1089.64,410.539 1142.48,385.878 1193.44,362.551 1242.59,340.509 1289.99,319.708 1335.71,300.102 1379.79,281.65 1422.3,264.311 
  1463.3,248.044 1502.84,232.812 1540.97,218.578 1577.75,205.306 1613.21,192.961 1647.41,181.511 1680.4,170.924 1712.21,161.17 1742.89,152.218 1772.47,144.041 
  1801,136.61 1828.51,129.9 1855.05,123.883 1880.64,118.536 1905.32,113.834 1929.12,109.754 1952.07,106.276 1974.21,103.376 1995.56,101.035 2016.14,99.2334 
  2036,97.9513 2055.14,97.1703 2073.61,96.8724 2091.41,97.0405 2108.59,97.6577 2125.15,98.708 2141.12,100.176 2156.53,102.047 2171.38,104.306 2185.71,106.94 
  2199.53,109.936 2212.85,113.281 2225.7,116.962 2238.09,120.968 2250.04,125.286 2261.56,129.906 2272.68,134.817 2283.4,140.007 2293.74,145.469 2303.71,151.19 
  2313.32,157.163 2322.59,163.378 2331.54,169.828 2340.16,176.503 2348.48,183.396 2356.5,190.5 2364.23,197.806 2371.69,205.307 2378.88,212.997 2385.82,220.868 
  2392.51,228.914 2398.96,237.129 2405.18,245.506 2411.18,254.04 2416.97,262.725 2422.55,271.556 2427.93,280.528 2433.13,289.635 2438.13,298.874 2442.96,308.239 
  2447.62,317.726 2452.11,327.331 2456.44,337.049 2460.61,346.877 2464.64,356.81 2468.52,366.845 2472.26,376.978 2475.88,387.206 2479.36,397.524 2482.72,407.93 
  2485.96,418.421 2489.08,428.993 2492.1,439.643 2495,450.37 2497.81,461.17 2500.51,472.041 2503.12,482.98 2505.63,493.985 2508.05,505.053 2510.39,516.183 
  2512.65,527.372 2514.82,538.618 2516.92,549.92 2518.94,561.274 2520.89,572.679 2522.77,584.133 2524.58,595.634 2526.33,607.181 2528.01,618.772 2529.64,630.406 
  2531.21,642.08 2532.72,653.794 2534.18,665.546 2535.59,677.335 2536.95,689.159 2538.26,701.018 2539.52,712.91 2540.74,724.833 2541.91,736.788 2543.04,748.772 
  2544.14,760.785 2545.19,772.826 2546.2,784.893 2547.18,796.986 2548.12,809.104 2549.03,821.245 2549.91,833.409 2550.76,845.595 2551.58,857.803 2552.36,870.031 
  2553.12,882.279 2553.86,894.545 2554.57,906.831 2555.25,919.134 2555.9,931.454 2556.54,943.792 2557.15,956.145 2557.74,968.513 2558.31,980.897 2558.86,993.295 
  2559.38,1005.71 2559.89,1018.13 2560.38,1030.57 2560.86,1043.02 2561.32,1055.48 2561.76,1067.96 2562.18,1080.44 2562.59,1092.94 2562.99,1105.44 2563.37,1117.96 
  2563.74,1130.49 2564.09,1143.02 2564.43,1155.56 2564.76,1168.12 2565.08,1180.68 2565.39,1193.25 2565.69,1205.82 2565.97,1218.41 2566.25,1231 2566.51,1243.6 
  2566.77,1256.2 2567.01,1268.81 2567.25,1281.43 2567.48,1294.05 2567.7,1306.68 2567.92,1319.32 2568.12,1331.96 2568.32,1344.61 2568.51,1357.26 2568.7,1369.91 
  2568.88,1382.57 2569.05,1395.24 2569.21,1407.9 2569.37,1420.58 2569.53,1433.25 2569.68,1445.94 2569.82,1458.62 2569.96,1471.31 2570.09,1484 2570.22,1496.7 
  2570.34,1509.39 2570.46,1522.1 2570.58,1534.8 2570.69,1547.51 2570.8,1560.22 2570.9,1572.93 2571,1585.65 2571.1,1598.37 2571.19,1611.09 2571.28,1623.81 
  2571.36,1636.53 2571.45,1649.26 2571.53,1661.99 2571.61,1674.72 2571.68,1687.46 2571.75,1700.19 2571.82,1712.93 2571.89,1725.67 2571.95,1738.41 2572.01,1751.15 
  
  "/>
</svg>
