<?xml version="1.0" encoding="utf-8"?>
<svg xmlns="http://www.w3.org/2000/svg" xmlns:xlink="http://www.w3.org/1999/xlink" width="672" height="480" viewBox="0 0 2688 1920">
<defs>
  <clipPath id="clip130">
    <rect x="0" y="0" width="2688" height="1920"/>
  </clipPath>
</defs>
<path clip-path="url(#clip130)" d="
M0 1920 L2688 1920 L2688 0 L0 0  Z
  " fill="#ffffff" fill-rule="evenodd" fill-opacity="1"/>
<defs>
  <clipPath id="clip131">
    <rect x="537" y="0" width="1883" height="1883"/>
  </clipPath>
</defs>
<path clip-path="url(#clip130)" d="
M143.576 1800.78 L2640.76 1800.78 L2640.76 47.2441 L143.576 47.2441  Z
  " fill="#ffffff" fill-rule="evenodd" fill-opacity="1"/>
<defs>
  <clipPath id="clip132">
    <rect x="143" y="47" width="2498" height="1755"/>
  </clipPath>
</defs>
<polyline clip-path="url(#clip132)" style="stroke:#000000; stroke-linecap:butt; stroke-linejoin:round; stroke-width:2; stroke-opacity:0.1; fill:none" points="
  214.25,1800.78 214.25,47.2441 
  "/>
<polyline clip-path="url(#clip132)" style="stroke:#000000; stroke-linecap:butt; stroke-linejoin:round; stroke-width:2; stroke-opacity:0.1; fill:none" points="
  999.527,1800.78 999.527,47.2441 
  "/>
<polyline clip-path="url(#clip132)" style="stroke:#000000; stroke-linecap:butt; stroke-linejoin:round; stroke-width:2; stroke-opacity:0.1; fill:none" points="
  1784.8,1800.78 1784.8,47.2441 
  "/>
<polyline clip-path="url(#clip132)" style="stroke:#000000; stroke-linecap:butt; stroke-linejoin:round; stroke-width:2; stroke-opacity:0.1; fill:none" points="
  2570.08,1800.78 2570.08,47.2441 
  "/>
<polyline clip-path="url(#clip130)" style="stroke:#000000; stroke-linecap:butt; stroke-linejoin:round; stroke-width:4; stroke-opacity:1; fill:none" points="
  143.576,1800.78 2640.76,1800.78 
  "/>
<polyline clip-path="url(#clip130)" style="stroke:#000000; stroke-linecap:butt; stroke-linejoin:round; stroke-width:4; stroke-opacity:1; fill:none" points="
  214.25,1800.78 214.25,1781.88 
  "/>
<polyline clip-path="url(#clip130)" style="stroke:#000000; stroke-linecap:butt; stroke-linejoin:round; stroke-width:4; stroke-opacity:1; fill:none" points="
  999.527,1800.78 999.527,1781.88 
  "/>
<polyline clip-path="url(#clip130)" style="stroke:#000000; stroke-linecap:butt; stroke-linejoin:round; stroke-width:4; stroke-opacity:1; fill:none" points="
  1784.8,1800.78 1784.8,1781.88 
  "/>
<polyline clip-path="url(#clip130)" style="stroke:#000000; stroke-linecap:butt; stroke-linejoin:round; stroke-width:4; stroke-opacity:1; fill:none" points="
  2570.08,1800.78 2570.08,1781.88 
  "/>
<path clip-path="url(#clip130)" d="M184.008 1848.65 L213.683 1848.65 L213.683 1852.59 L184.008 1852.59 L184.008 1848.65 Z" fill="#000000" fill-rule="evenodd" fill-opacity="1" /><path clip-path="url(#clip130)" d="M224.586 1861.55 L232.225 1861.55 L232.225 1835.18 L223.915 1836.85 L223.915 1832.59 L232.179 1830.92 L236.855 1830.92 L236.855 1861.55 L244.493 1861.55 L244.493 1865.48 L224.586 1865.48 L224.586 1861.55 Z" fill="#000000" fill-rule="evenodd" fill-opacity="1" /><path clip-path="url(#clip130)" d="M999.527 1834 Q995.916 1834 994.088 1837.57 Q992.282 1841.11 992.282 1848.24 Q992.282 1855.34 994.088 1858.91 Q995.916 1862.45 999.527 1862.45 Q1003.16 1862.45 1004.97 1858.91 Q1006.8 1855.34 1006.8 1848.24 Q1006.8 1841.11 1004.97 1837.57 Q1003.16 1834 999.527 1834 M999.527 1830.3 Q1005.34 1830.3 1008.39 1834.9 Q1011.47 1839.49 1011.47 1848.24 Q1011.47 1856.96 1008.39 1861.57 Q1005.34 1866.15 999.527 1866.15 Q993.717 1866.15 990.638 1861.57 Q987.583 1856.96 987.583 1848.24 Q987.583 1839.49 990.638 1834.9 Q993.717 1830.3 999.527 1830.3 Z" fill="#000000" fill-rule="evenodd" fill-opacity="1" /><path clip-path="url(#clip130)" d="M1775.19 1861.55 L1782.82 1861.55 L1782.82 1835.18 L1774.51 1836.85 L1774.51 1832.59 L1782.78 1830.92 L1787.45 1830.92 L1787.45 1861.55 L1795.09 1861.55 L1795.09 1865.48 L1775.19 1865.48 L1775.19 1861.55 Z" fill="#000000" fill-rule="evenodd" fill-opacity="1" /><path clip-path="url(#clip130)" d="M2564.73 1861.55 L2581.05 1861.55 L2581.05 1865.48 L2559.11 1865.48 L2559.11 1861.55 Q2561.77 1858.79 2566.35 1854.16 Q2570.96 1849.51 2572.14 1848.17 Q2574.39 1845.65 2575.27 1843.91 Q2576.17 1842.15 2576.17 1840.46 Q2576.17 1837.71 2574.22 1835.97 Q2572.3 1834.23 2569.2 1834.23 Q2567 1834.23 2564.55 1835 Q2562.12 1835.76 2559.34 1837.31 L2559.34 1832.59 Q2562.16 1831.46 2564.62 1830.88 Q2567.07 1830.3 2569.11 1830.3 Q2574.48 1830.3 2577.67 1832.98 Q2580.87 1835.67 2580.87 1840.16 Q2580.87 1842.29 2580.06 1844.21 Q2579.27 1846.11 2577.16 1848.7 Q2576.59 1849.37 2573.48 1852.59 Q2570.38 1855.78 2564.73 1861.55 Z" fill="#000000" fill-rule="evenodd" fill-opacity="1" /><polyline clip-path="url(#clip132)" style="stroke:#000000; stroke-linecap:butt; stroke-linejoin:round; stroke-width:2; stroke-opacity:0.1; fill:none" points="
  143.576,1668.22 2640.76,1668.22 
  "/>
<polyline clip-path="url(#clip132)" style="stroke:#000000; stroke-linecap:butt; stroke-linejoin:round; stroke-width:2; stroke-opacity:0.1; fill:none" points="
  143.576,1397.3 2640.76,1397.3 
  "/>
<polyline clip-path="url(#clip132)" style="stroke:#000000; stroke-linecap:butt; stroke-linejoin:round; stroke-width:2; stroke-opacity:0.1; fill:none" points="
  143.576,1126.38 2640.76,1126.38 
  "/>
<polyline clip-path="url(#clip132)" style="stroke:#000000; stroke-linecap:butt; stroke-linejoin:round; stroke-width:2; stroke-opacity:0.1; fill:none" points="
  143.576,855.454 2640.76,855.454 
  "/>
<polyline clip-path="url(#clip132)" style="stroke:#000000; stroke-linecap:butt; stroke-linejoin:round; stroke-width:2; stroke-opacity:0.1; fill:none" points="
  143.576,584.532 2640.76,584.532 
  "/>
<polyline clip-path="url(#clip132)" style="stroke:#000000; stroke-linecap:butt; stroke-linejoin:round; stroke-width:2; stroke-opacity:0.1; fill:none" points="
  143.576,313.61 2640.76,313.61 
  "/>
<polyline clip-path="url(#clip130)" style="stroke:#000000; stroke-linecap:butt; stroke-linejoin:round; stroke-width:4; stroke-opacity:1; fill:none" points="
  143.576,1800.78 143.576,47.2441 
  "/>
<polyline clip-path="url(#clip130)" style="stroke:#000000; stroke-linecap:butt; stroke-linejoin:round; stroke-width:4; stroke-opacity:1; fill:none" points="
  143.576,1668.22 162.473,1668.22 
  "/>
<polyline clip-path="url(#clip130)" style="stroke:#000000; stroke-linecap:butt; stroke-linejoin:round; stroke-width:4; stroke-opacity:1; fill:none" points="
  143.576,1397.3 162.473,1397.3 
  "/>
<polyline clip-path="url(#clip130)" style="stroke:#000000; stroke-linecap:butt; stroke-linejoin:round; stroke-width:4; stroke-opacity:1; fill:none" points="
  143.576,1126.38 162.473,1126.38 
  "/>
<polyline clip-path="url(#clip130)" style="stroke:#000000; stroke-linecap:butt; stroke-linejoin:round; stroke-width:4; stroke-opacity:1; fill:none" points="
  143.576,855.454 162.473,855.454 
  "/>
<polyline clip-path="url(#clip130)" style="stroke:#000000; stroke-linecap:butt; stroke-linejoin:round; stroke-width:4; stroke-opacity:1; fill:none" points="
  143.576,584.532 162.473,584.532 
  "/>
<polyline clip-path="url(#clip130)" style="stroke:#000000; stroke-linecap:butt; stroke-linejoin:round; stroke-width:4; stroke-opacity:1; fill:none" points="
  143.576,313.61 162.473,313.61 
  "/>
<path clip-path="url(#clip130)" d="M91.3112 1654.02 Q87.7001 1654.02 85.8714 1657.58 Q84.0658 1661.13 84.0658 1668.26 Q84.0658 1675.36 85.8714 1678.93 Q87.7001 1682.47 91.3112 1682.47 Q94.9454 1682.47 96.7509 1678.93 Q98.5796 1675.36 98.5796 1668.26 Q98.5796 1661.13 96.7509 1657.58 Q94.9454 1654.02 91.3112 1654.02 M91.3112 1650.32 Q97.1213 1650.32 100.177 1654.92 Q103.256 1659.51 103.256 1668.26 Q103.256 1676.98 100.177 1681.59 Q97.1213 1686.17 91.3112 1686.17 Q85.501 1686.17 82.4223 1681.59 Q79.3668 1676.98 79.3668 1668.26 Q79.3668 1659.51 82.4223 1654.92 Q85.501 1650.32 91.3112 1650.32 Z" fill="#000000" fill-rule="evenodd" fill-opacity="1" /><path clip-path="url(#clip130)" d="M82.3529 1380.02 L100.709 1380.02 L100.709 1383.95 L86.6353 1383.95 L86.6353 1392.43 Q87.6538 1392.08 88.6723 1391.92 Q89.6908 1391.73 90.7093 1391.73 Q96.4963 1391.73 99.8759 1394.9 Q103.256 1398.07 103.256 1403.49 Q103.256 1409.07 99.7833 1412.17 Q96.3111 1415.25 89.9917 1415.25 Q87.8158 1415.25 85.5473 1414.88 Q83.3019 1414.51 80.8946 1413.77 L80.8946 1409.07 Q82.9779 1410.2 85.2001 1410.76 Q87.4223 1411.31 89.8991 1411.31 Q93.9037 1411.31 96.2417 1409.21 Q98.5796 1407.1 98.5796 1403.49 Q98.5796 1399.88 96.2417 1397.77 Q93.9037 1395.67 89.8991 1395.67 Q88.0241 1395.67 86.1492 1396.08 Q84.2973 1396.5 82.3529 1397.38 L82.3529 1380.02 Z" fill="#000000" fill-rule="evenodd" fill-opacity="1" /><path clip-path="url(#clip130)" d="M51.9595 1139.72 L59.5984 1139.72 L59.5984 1113.36 L51.2882 1115.02 L51.2882 1110.76 L59.5521 1109.1 L64.228 1109.1 L64.228 1139.72 L71.8668 1139.72 L71.8668 1143.66 L51.9595 1143.66 L51.9595 1139.72 Z" fill="#000000" fill-rule="evenodd" fill-opacity="1" /><path clip-path="url(#clip130)" d="M91.3112 1112.17 Q87.7001 1112.17 85.8714 1115.74 Q84.0658 1119.28 84.0658 1126.41 Q84.0658 1133.52 85.8714 1137.08 Q87.7001 1140.62 91.3112 1140.62 Q94.9454 1140.62 96.7509 1137.08 Q98.5796 1133.52 98.5796 1126.41 Q98.5796 1119.28 96.7509 1115.74 Q94.9454 1112.17 91.3112 1112.17 M91.3112 1108.47 Q97.1213 1108.47 100.177 1113.08 Q103.256 1117.66 103.256 1126.41 Q103.256 1135.14 100.177 1139.74 Q97.1213 1144.33 91.3112 1144.33 Q85.501 1144.33 82.4223 1139.74 Q79.3668 1135.14 79.3668 1126.41 Q79.3668 1117.66 82.4223 1113.08 Q85.501 1108.47 91.3112 1108.47 Z" fill="#000000" fill-rule="evenodd" fill-opacity="1" /><path clip-path="url(#clip130)" d="M52.9549 868.799 L60.5937 868.799 L60.5937 842.433 L52.2836 844.1 L52.2836 839.841 L60.5474 838.174 L65.2233 838.174 L65.2233 868.799 L72.8622 868.799 L72.8622 872.734 L52.9549 872.734 L52.9549 868.799 Z" fill="#000000" fill-rule="evenodd" fill-opacity="1" /><path clip-path="url(#clip130)" d="M82.3529 838.174 L100.709 838.174 L100.709 842.109 L86.6353 842.109 L86.6353 850.582 Q87.6538 850.234 88.6723 850.072 Q89.6908 849.887 90.7093 849.887 Q96.4963 849.887 99.8759 853.058 Q103.256 856.23 103.256 861.646 Q103.256 867.225 99.7833 870.327 Q96.3111 873.406 89.9917 873.406 Q87.8158 873.406 85.5473 873.035 Q83.3019 872.665 80.8946 871.924 L80.8946 867.225 Q82.9779 868.359 85.2001 868.915 Q87.4223 869.47 89.8991 869.47 Q93.9037 869.47 96.2417 867.364 Q98.5796 865.257 98.5796 861.646 Q98.5796 858.035 96.2417 855.929 Q93.9037 853.822 89.8991 853.822 Q88.0241 853.822 86.1492 854.239 Q84.2973 854.656 82.3529 855.535 L82.3529 838.174 Z" fill="#000000" fill-rule="evenodd" fill-opacity="1" /><path clip-path="url(#clip130)" d="M55.1771 597.877 L71.4965 597.877 L71.4965 601.812 L49.5521 601.812 L49.5521 597.877 Q52.2141 595.122 56.7975 590.493 Q61.4039 585.84 62.5845 584.497 Q64.8298 581.974 65.7094 580.238 Q66.6122 578.479 66.6122 576.789 Q66.6122 574.035 64.6678 572.298 Q62.7465 570.562 59.6447 570.562 Q57.4456 570.562 54.9919 571.326 Q52.5614 572.09 49.7836 573.641 L49.7836 568.919 Q52.6077 567.785 55.0614 567.206 Q57.515 566.627 59.5521 566.627 Q64.9224 566.627 68.1168 569.312 Q71.3113 571.998 71.3113 576.488 Q71.3113 578.618 70.5011 580.539 Q69.7141 582.437 67.6076 585.03 Q67.0289 585.701 63.927 588.919 Q60.8252 592.113 55.1771 597.877 Z" fill="#000000" fill-rule="evenodd" fill-opacity="1" /><path clip-path="url(#clip130)" d="M91.3112 570.331 Q87.7001 570.331 85.8714 573.896 Q84.0658 577.437 84.0658 584.567 Q84.0658 591.673 85.8714 595.238 Q87.7001 598.78 91.3112 598.78 Q94.9454 598.78 96.7509 595.238 Q98.5796 591.673 98.5796 584.567 Q98.5796 577.437 96.7509 573.896 Q94.9454 570.331 91.3112 570.331 M91.3112 566.627 Q97.1213 566.627 100.177 571.234 Q103.256 575.817 103.256 584.567 Q103.256 593.294 100.177 597.9 Q97.1213 602.483 91.3112 602.483 Q85.501 602.483 82.4223 597.9 Q79.3668 593.294 79.3668 584.567 Q79.3668 575.817 82.4223 571.234 Q85.501 566.627 91.3112 566.627 Z" fill="#000000" fill-rule="evenodd" fill-opacity="1" /><path clip-path="url(#clip130)" d="M56.1725 326.955 L72.4918 326.955 L72.4918 330.89 L50.5475 330.89 L50.5475 326.955 Q53.2095 324.2 57.7928 319.571 Q62.3993 314.918 63.5798 313.575 Q65.8252 311.052 66.7048 309.316 Q67.6076 307.557 67.6076 305.867 Q67.6076 303.112 65.6632 301.376 Q63.7419 299.64 60.64 299.64 Q58.441 299.64 55.9873 300.404 Q53.5567 301.168 50.779 302.719 L50.779 297.997 Q53.603 296.863 56.0567 296.284 Q58.5104 295.705 60.5474 295.705 Q65.9178 295.705 69.1122 298.39 Q72.3066 301.075 72.3066 305.566 Q72.3066 307.696 71.4965 309.617 Q70.7094 311.515 68.6029 314.108 Q68.0242 314.779 64.9224 317.997 Q61.8206 321.191 56.1725 326.955 Z" fill="#000000" fill-rule="evenodd" fill-opacity="1" /><path clip-path="url(#clip130)" d="M82.3529 296.33 L100.709 296.33 L100.709 300.265 L86.6353 300.265 L86.6353 308.737 Q87.6538 308.39 88.6723 308.228 Q89.6908 308.043 90.7093 308.043 Q96.4963 308.043 99.8759 311.214 Q103.256 314.386 103.256 319.802 Q103.256 325.381 99.7833 328.483 Q96.3111 331.561 89.9917 331.561 Q87.8158 331.561 85.5473 331.191 Q83.3019 330.821 80.8946 330.08 L80.8946 325.381 Q82.9779 326.515 85.2001 327.071 Q87.4223 327.626 89.8991 327.626 Q93.9037 327.626 96.2417 325.52 Q98.5796 323.413 98.5796 319.802 Q98.5796 316.191 96.2417 314.085 Q93.9037 311.978 89.8991 311.978 Q88.0241 311.978 86.1492 312.395 Q84.2973 312.811 82.3529 313.691 L82.3529 296.33 Z" fill="#000000" fill-rule="evenodd" fill-opacity="1" /><polyline clip-path="url(#clip132)" style="stroke:#009af9; stroke-linecap:butt; stroke-linejoin:round; stroke-width:4; stroke-opacity:1; fill:none" points="
  214.25,1722.4 229.588,1718.37 371.408,1696.81 414.022,1694.49 456.635,1693.5 492.665,1693.5 528.694,1694.12 606.971,1697.01 679.134,1700.91 756.501,1705.79 
  846.139,1711.84 925.798,1717.32 995.652,1722.14 1071.81,1727.39 1148.42,1732.67 1233.13,1738.4 1313.72,1743.53 1397.52,1748.05 1468.06,1750.64 1554.19,1751.15 
  1633.08,1747.6 1669.51,1744.14 1705.94,1739.23 1742.85,1732.52 1779.75,1723.78 1821.11,1711.17 1862.47,1695.12 1899.95,1677.14 1937.43,1655.43 1958.89,1641.14 
  1980.34,1625.38 2001.8,1608.04 2023.25,1589.02 2043.12,1569.81 2062.98,1548.98 2082.85,1526.42 2102.71,1502.04 2122.3,1476.12 2141.88,1448.23 2161.47,1418.27 
  2181.06,1386.12 2200.07,1352.71 2219.09,1317.03 2238.1,1278.97 2257.12,1238.41 2276.61,1194.13 2296.1,1146.97 2315.6,1096.81 2335.09,1043.51 2356.45,981.325 
  2377.81,915.008 2388.49,880.237 2399.16,844.357 2409.84,807.342 2420.52,769.167 2436.03,711.587 2451.55,651.42 2467.06,588.578 2482.57,522.976 2498.08,454.526 
  2513.6,383.136 2529.11,308.716 2544.62,231.17 2550.99,198.426 2557.35,165.133 2563.72,131.284 2570.08,96.8724 
  "/>
<path clip-path="url(#clip130)" d="
M2227.62 209.375 L2557.52 209.375 L2557.52 105.695 L2227.62 105.695  Z
  " fill="#ffffff" fill-rule="evenodd" fill-opacity="1"/>
<polyline clip-path="url(#clip130)" style="stroke:#000000; stroke-linecap:butt; stroke-linejoin:round; stroke-width:4; stroke-opacity:1; fill:none" points="
  2227.62,209.375 2557.52,209.375 2557.52,105.695 2227.62,105.695 2227.62,209.375 
  "/>
<polyline clip-path="url(#clip130)" style="stroke:#009af9; stroke-linecap:butt; stroke-linejoin:round; stroke-width:4; stroke-opacity:1; fill:none" points="
  2255.37,157.535 2421.85,157.535 
  "/>
<path clip-path="url(#clip130)" d="M2463.44 177.223 Q2461.63 181.852 2459.92 183.264 Q2458.2 184.676 2455.33 184.676 L2451.93 184.676 L2451.93 181.112 L2454.43 181.112 Q2456.19 181.112 2457.16 180.278 Q2458.14 179.445 2459.32 176.343 L2460.08 174.399 L2449.59 148.889 L2454.11 148.889 L2462.21 169.167 L2470.31 148.889 L2474.82 148.889 L2463.44 177.223 Z" fill="#000000" fill-rule="evenodd" fill-opacity="1" /><path clip-path="url(#clip130)" d="M2482.12 170.88 L2489.76 170.88 L2489.76 144.515 L2481.45 146.181 L2481.45 141.922 L2489.71 140.255 L2494.38 140.255 L2494.38 170.88 L2502.02 170.88 L2502.02 174.815 L2482.12 174.815 L2482.12 170.88 Z" fill="#000000" fill-rule="evenodd" fill-opacity="1" /></svg>
