<?xml version="1.0" encoding="utf-8"?>
<svg xmlns="http://www.w3.org/2000/svg" xmlns:xlink="http://www.w3.org/1999/xlink" width="672" height="480" viewBox="0 0 2688 1920">
<defs>
  <clipPath id="clip500">
    <rect x="0" y="0" width="2688" height="1920"/>
  </clipPath>
</defs>
<path clip-path="url(#clip500)" d="
M0 1920 L2688 1920 L2688 0 L0 0  Z
  " fill="#ffffff" fill-rule="evenodd" fill-opacity="1"/>
<defs>
  <clipPath id="clip501">
    <rect x="537" y="0" width="1883" height="1883"/>
  </clipPath>
</defs>
<path clip-path="url(#clip500)" d="
M189.154 1800.78 L2640.76 1800.78 L2640.76 47.2441 L189.154 47.2441  Z
  " fill="#ffffff" fill-rule="evenodd" fill-opacity="1"/>
<defs>
  <clipPath id="clip502">
    <rect x="189" y="47" width="2453" height="1755"/>
  </clipPath>
</defs>
<polyline clip-path="url(#clip502)" style="stroke:#000000; stroke-linecap:butt; stroke-linejoin:round; stroke-width:2; stroke-opacity:0.1; fill:none" points="
  258.539,1800.78 258.539,47.2441 
  "/>
<polyline clip-path="url(#clip502)" style="stroke:#000000; stroke-linecap:butt; stroke-linejoin:round; stroke-width:2; stroke-opacity:0.1; fill:none" points="
  911.881,1800.78 911.881,47.2441 
  "/>
<polyline clip-path="url(#clip502)" style="stroke:#000000; stroke-linecap:butt; stroke-linejoin:round; stroke-width:2; stroke-opacity:0.1; fill:none" points="
  1565.22,1800.78 1565.22,47.2441 
  "/>
<polyline clip-path="url(#clip502)" style="stroke:#000000; stroke-linecap:butt; stroke-linejoin:round; stroke-width:2; stroke-opacity:0.1; fill:none" points="
  2218.57,1800.78 2218.57,47.2441 
  "/>
<polyline clip-path="url(#clip500)" style="stroke:#000000; stroke-linecap:butt; stroke-linejoin:round; stroke-width:4; stroke-opacity:1; fill:none" points="
  189.154,1800.78 2640.76,1800.78 
  "/>
<polyline clip-path="url(#clip500)" style="stroke:#000000; stroke-linecap:butt; stroke-linejoin:round; stroke-width:4; stroke-opacity:1; fill:none" points="
  258.539,1800.78 258.539,1781.88 
  "/>
<polyline clip-path="url(#clip500)" style="stroke:#000000; stroke-linecap:butt; stroke-linejoin:round; stroke-width:4; stroke-opacity:1; fill:none" points="
  911.881,1800.78 911.881,1781.88 
  "/>
<polyline clip-path="url(#clip500)" style="stroke:#000000; stroke-linecap:butt; stroke-linejoin:round; stroke-width:4; stroke-opacity:1; fill:none" points="
  1565.22,1800.78 1565.22,1781.88 
  "/>
<polyline clip-path="url(#clip500)" style="stroke:#000000; stroke-linecap:butt; stroke-linejoin:round; stroke-width:4; stroke-opacity:1; fill:none" points="
  2218.57,1800.78 2218.57,1781.88 
  "/>
<path clip-path="url(#clip500)" d="M235.923 1834 Q232.312 1834 230.484 1837.57 Q228.678 1841.11 228.678 1848.24 Q228.678 1855.34 230.484 1858.91 Q232.312 1862.45 235.923 1862.45 Q239.558 1862.45 241.363 1858.91 Q243.192 1855.34 243.192 1848.24 Q243.192 1841.11 241.363 1837.57 Q239.558 1834 235.923 1834 M235.923 1830.3 Q241.733 1830.3 244.789 1834.9 Q247.868 1839.49 247.868 1848.24 Q247.868 1856.96 244.789 1861.57 Q241.733 1866.15 235.923 1866.15 Q230.113 1866.15 227.035 1861.57 Q223.979 1856.96 223.979 1848.24 Q223.979 1839.49 227.035 1834.9 Q230.113 1830.3 235.923 1830.3 Z" fill="#000000" fill-rule="evenodd" fill-opacity="1" /><path clip-path="url(#clip500)" d="M256.085 1859.6 L260.97 1859.6 L260.97 1865.48 L256.085 1865.48 L256.085 1859.6 Z" fill="#000000" fill-rule="evenodd" fill-opacity="1" /><path clip-path="url(#clip500)" d="M281.155 1834 Q277.543 1834 275.715 1837.57 Q273.909 1841.11 273.909 1848.24 Q273.909 1855.34 275.715 1858.91 Q277.543 1862.45 281.155 1862.45 Q284.789 1862.45 286.594 1858.91 Q288.423 1855.34 288.423 1848.24 Q288.423 1841.11 286.594 1837.57 Q284.789 1834 281.155 1834 M281.155 1830.3 Q286.965 1830.3 290.02 1834.9 Q293.099 1839.49 293.099 1848.24 Q293.099 1856.96 290.02 1861.57 Q286.965 1866.15 281.155 1866.15 Q275.344 1866.15 272.266 1861.57 Q269.21 1856.96 269.21 1848.24 Q269.21 1839.49 272.266 1834.9 Q275.344 1830.3 281.155 1830.3 Z" fill="#000000" fill-rule="evenodd" fill-opacity="1" /><path clip-path="url(#clip500)" d="M889.763 1834 Q886.152 1834 884.324 1837.57 Q882.518 1841.11 882.518 1848.24 Q882.518 1855.34 884.324 1858.91 Q886.152 1862.45 889.763 1862.45 Q893.398 1862.45 895.203 1858.91 Q897.032 1855.34 897.032 1848.24 Q897.032 1841.11 895.203 1837.57 Q893.398 1834 889.763 1834 M889.763 1830.3 Q895.574 1830.3 898.629 1834.9 Q901.708 1839.49 901.708 1848.24 Q901.708 1856.96 898.629 1861.57 Q895.574 1866.15 889.763 1866.15 Q883.953 1866.15 880.875 1861.57 Q877.819 1856.96 877.819 1848.24 Q877.819 1839.49 880.875 1834.9 Q883.953 1830.3 889.763 1830.3 Z" fill="#000000" fill-rule="evenodd" fill-opacity="1" /><path clip-path="url(#clip500)" d="M909.925 1859.6 L914.81 1859.6 L914.81 1865.48 L909.925 1865.48 L909.925 1859.6 Z" fill="#000000" fill-rule="evenodd" fill-opacity="1" /><path clip-path="url(#clip500)" d="M925.041 1830.92 L943.397 1830.92 L943.397 1834.86 L929.323 1834.86 L929.323 1843.33 Q930.342 1842.98 931.36 1842.82 Q932.379 1842.64 933.397 1842.64 Q939.184 1842.64 942.564 1845.81 Q945.944 1848.98 945.944 1854.4 Q945.944 1859.97 942.471 1863.08 Q938.999 1866.15 932.68 1866.15 Q930.504 1866.15 928.235 1865.78 Q925.99 1865.41 923.583 1864.67 L923.583 1859.97 Q925.666 1861.11 927.888 1861.66 Q930.11 1862.22 932.587 1862.22 Q936.592 1862.22 938.93 1860.11 Q941.268 1858.01 941.268 1854.4 Q941.268 1850.78 938.93 1848.68 Q936.592 1846.57 932.587 1846.57 Q930.712 1846.57 928.837 1846.99 Q926.985 1847.4 925.041 1848.28 L925.041 1830.92 Z" fill="#000000" fill-rule="evenodd" fill-opacity="1" /><path clip-path="url(#clip500)" d="M1532.38 1861.55 L1540.02 1861.55 L1540.02 1835.18 L1531.71 1836.85 L1531.71 1832.59 L1539.97 1830.92 L1544.65 1830.92 L1544.65 1861.55 L1552.28 1861.55 L1552.28 1865.48 L1532.38 1865.48 L1532.38 1861.55 Z" fill="#000000" fill-rule="evenodd" fill-opacity="1" /><path clip-path="url(#clip500)" d="M1561.73 1859.6 L1566.61 1859.6 L1566.61 1865.48 L1561.73 1865.48 L1561.73 1859.6 Z" fill="#000000" fill-rule="evenodd" fill-opacity="1" /><path clip-path="url(#clip500)" d="M1586.8 1834 Q1583.19 1834 1581.36 1837.57 Q1579.55 1841.11 1579.55 1848.24 Q1579.55 1855.34 1581.36 1858.91 Q1583.19 1862.45 1586.8 1862.45 Q1590.43 1862.45 1592.24 1858.91 Q1594.07 1855.34 1594.07 1848.24 Q1594.07 1841.11 1592.24 1837.57 Q1590.43 1834 1586.8 1834 M1586.8 1830.3 Q1592.61 1830.3 1595.66 1834.9 Q1598.74 1839.49 1598.74 1848.24 Q1598.74 1856.96 1595.66 1861.57 Q1592.61 1866.15 1586.8 1866.15 Q1580.99 1866.15 1577.91 1861.57 Q1574.85 1856.96 1574.85 1848.24 Q1574.85 1839.49 1577.91 1834.9 Q1580.99 1830.3 1586.8 1830.3 Z" fill="#000000" fill-rule="evenodd" fill-opacity="1" /><path clip-path="url(#clip500)" d="M2186.22 1861.55 L2193.86 1861.55 L2193.86 1835.18 L2185.55 1836.85 L2185.55 1832.59 L2193.81 1830.92 L2198.49 1830.92 L2198.49 1861.55 L2206.12 1861.55 L2206.12 1865.48 L2186.22 1865.48 L2186.22 1861.55 Z" fill="#000000" fill-rule="evenodd" fill-opacity="1" /><path clip-path="url(#clip500)" d="M2215.57 1859.6 L2220.45 1859.6 L2220.45 1865.48 L2215.57 1865.48 L2215.57 1859.6 Z" fill="#000000" fill-rule="evenodd" fill-opacity="1" /><path clip-path="url(#clip500)" d="M2230.68 1830.92 L2249.04 1830.92 L2249.04 1834.86 L2234.97 1834.86 L2234.97 1843.33 Q2235.98 1842.98 2237 1842.82 Q2238.02 1842.64 2239.04 1842.64 Q2244.83 1842.64 2248.21 1845.81 Q2251.59 1848.98 2251.59 1854.4 Q2251.59 1859.97 2248.11 1863.08 Q2244.64 1866.15 2238.32 1866.15 Q2236.15 1866.15 2233.88 1865.78 Q2231.63 1865.41 2229.23 1864.67 L2229.23 1859.97 Q2231.31 1861.11 2233.53 1861.66 Q2235.75 1862.22 2238.23 1862.22 Q2242.23 1862.22 2244.57 1860.11 Q2246.91 1858.01 2246.91 1854.4 Q2246.91 1850.78 2244.57 1848.68 Q2242.23 1846.57 2238.23 1846.57 Q2236.36 1846.57 2234.48 1846.99 Q2232.63 1847.4 2230.68 1848.28 L2230.68 1830.92 Z" fill="#000000" fill-rule="evenodd" fill-opacity="1" /><polyline clip-path="url(#clip502)" style="stroke:#000000; stroke-linecap:butt; stroke-linejoin:round; stroke-width:2; stroke-opacity:0.1; fill:none" points="
  189.154,1751.15 2640.76,1751.15 
  "/>
<polyline clip-path="url(#clip502)" style="stroke:#000000; stroke-linecap:butt; stroke-linejoin:round; stroke-width:2; stroke-opacity:0.1; fill:none" points="
  189.154,1337.58 2640.76,1337.58 
  "/>
<polyline clip-path="url(#clip502)" style="stroke:#000000; stroke-linecap:butt; stroke-linejoin:round; stroke-width:2; stroke-opacity:0.1; fill:none" points="
  189.154,924.01 2640.76,924.01 
  "/>
<polyline clip-path="url(#clip502)" style="stroke:#000000; stroke-linecap:butt; stroke-linejoin:round; stroke-width:2; stroke-opacity:0.1; fill:none" points="
  189.154,510.439 2640.76,510.439 
  "/>
<polyline clip-path="url(#clip502)" style="stroke:#000000; stroke-linecap:butt; stroke-linejoin:round; stroke-width:2; stroke-opacity:0.1; fill:none" points="
  189.154,96.8684 2640.76,96.8684 
  "/>
<polyline clip-path="url(#clip500)" style="stroke:#000000; stroke-linecap:butt; stroke-linejoin:round; stroke-width:4; stroke-opacity:1; fill:none" points="
  189.154,1800.78 189.154,47.2441 
  "/>
<polyline clip-path="url(#clip500)" style="stroke:#000000; stroke-linecap:butt; stroke-linejoin:round; stroke-width:4; stroke-opacity:1; fill:none" points="
  189.154,1751.15 208.052,1751.15 
  "/>
<polyline clip-path="url(#clip500)" style="stroke:#000000; stroke-linecap:butt; stroke-linejoin:round; stroke-width:4; stroke-opacity:1; fill:none" points="
  189.154,1337.58 208.052,1337.58 
  "/>
<polyline clip-path="url(#clip500)" style="stroke:#000000; stroke-linecap:butt; stroke-linejoin:round; stroke-width:4; stroke-opacity:1; fill:none" points="
  189.154,924.01 208.052,924.01 
  "/>
<polyline clip-path="url(#clip500)" style="stroke:#000000; stroke-linecap:butt; stroke-linejoin:round; stroke-width:4; stroke-opacity:1; fill:none" points="
  189.154,510.439 208.052,510.439 
  "/>
<polyline clip-path="url(#clip500)" style="stroke:#000000; stroke-linecap:butt; stroke-linejoin:round; stroke-width:4; stroke-opacity:1; fill:none" points="
  189.154,96.8684 208.052,96.8684 
  "/>
<path clip-path="url(#clip500)" d="M61.4965 1736.95 Q57.8854 1736.95 56.0567 1740.51 Q54.2512 1744.06 54.2512 1751.19 Q54.2512 1758.29 56.0567 1761.86 Q57.8854 1765.4 61.4965 1765.4 Q65.1307 1765.4 66.9363 1761.86 Q68.765 1758.29 68.765 1751.19 Q68.765 1744.06 66.9363 1740.51 Q65.1307 1736.95 61.4965 1736.95 M61.4965 1733.25 Q67.3067 1733.25 70.3622 1737.85 Q73.4409 1742.44 73.4409 1751.19 Q73.4409 1759.91 70.3622 1764.52 Q67.3067 1769.1 61.4965 1769.1 Q55.6864 1769.1 52.6077 1764.52 Q49.5521 1759.91 49.5521 1751.19 Q49.5521 1742.44 52.6077 1737.85 Q55.6864 1733.25 61.4965 1733.25 Z" fill="#000000" fill-rule="evenodd" fill-opacity="1" /><path clip-path="url(#clip500)" d="M81.6584 1762.55 L86.5427 1762.55 L86.5427 1768.43 L81.6584 1768.43 L81.6584 1762.55 Z" fill="#000000" fill-rule="evenodd" fill-opacity="1" /><path clip-path="url(#clip500)" d="M106.728 1736.95 Q103.117 1736.95 101.288 1740.51 Q99.4824 1744.06 99.4824 1751.19 Q99.4824 1758.29 101.288 1761.86 Q103.117 1765.4 106.728 1765.4 Q110.362 1765.4 112.168 1761.86 Q113.996 1758.29 113.996 1751.19 Q113.996 1744.06 112.168 1740.51 Q110.362 1736.95 106.728 1736.95 M106.728 1733.25 Q112.538 1733.25 115.593 1737.85 Q118.672 1742.44 118.672 1751.19 Q118.672 1759.91 115.593 1764.52 Q112.538 1769.1 106.728 1769.1 Q100.918 1769.1 97.8389 1764.52 Q94.7834 1759.91 94.7834 1751.19 Q94.7834 1742.44 97.8389 1737.85 Q100.918 1733.25 106.728 1733.25 Z" fill="#000000" fill-rule="evenodd" fill-opacity="1" /><path clip-path="url(#clip500)" d="M136.89 1736.95 Q133.279 1736.95 131.45 1740.51 Q129.644 1744.06 129.644 1751.19 Q129.644 1758.29 131.45 1761.86 Q133.279 1765.4 136.89 1765.4 Q140.524 1765.4 142.329 1761.86 Q144.158 1758.29 144.158 1751.19 Q144.158 1744.06 142.329 1740.51 Q140.524 1736.95 136.89 1736.95 M136.89 1733.25 Q142.7 1733.25 145.755 1737.85 Q148.834 1742.44 148.834 1751.19 Q148.834 1759.91 145.755 1764.52 Q142.7 1769.1 136.89 1769.1 Q131.079 1769.1 128.001 1764.52 Q124.945 1759.91 124.945 1751.19 Q124.945 1742.44 128.001 1737.85 Q131.079 1733.25 136.89 1733.25 Z" fill="#000000" fill-rule="evenodd" fill-opacity="1" /><path clip-path="url(#clip500)" d="M62.4919 1323.38 Q58.8808 1323.38 57.0521 1326.94 Q55.2465 1330.49 55.2465 1337.62 Q55.2465 1344.72 57.0521 1348.29 Q58.8808 1351.83 62.4919 1351.83 Q66.1261 1351.83 67.9317 1348.29 Q69.7604 1344.72 69.7604 1337.62 Q69.7604 1330.49 67.9317 1326.94 Q66.1261 1323.38 62.4919 1323.38 M62.4919 1319.68 Q68.302 1319.68 71.3576 1324.28 Q74.4363 1328.87 74.4363 1337.62 Q74.4363 1346.34 71.3576 1350.95 Q68.302 1355.53 62.4919 1355.53 Q56.6817 1355.53 53.603 1350.95 Q50.5475 1346.34 50.5475 1337.62 Q50.5475 1328.87 53.603 1324.28 Q56.6817 1319.68 62.4919 1319.68 Z" fill="#000000" fill-rule="evenodd" fill-opacity="1" /><path clip-path="url(#clip500)" d="M82.6538 1348.98 L87.538 1348.98 L87.538 1354.86 L82.6538 1354.86 L82.6538 1348.98 Z" fill="#000000" fill-rule="evenodd" fill-opacity="1" /><path clip-path="url(#clip500)" d="M101.751 1350.93 L118.07 1350.93 L118.07 1354.86 L96.126 1354.86 L96.126 1350.93 Q98.788 1348.17 103.371 1343.54 Q107.978 1338.89 109.158 1337.55 Q111.404 1335.02 112.283 1333.29 Q113.186 1331.53 113.186 1329.84 Q113.186 1327.08 111.242 1325.35 Q109.32 1323.61 106.218 1323.61 Q104.019 1323.61 101.566 1324.37 Q99.1352 1325.14 96.3574 1326.69 L96.3574 1321.97 Q99.1815 1320.83 101.635 1320.25 Q104.089 1319.68 106.126 1319.68 Q111.496 1319.68 114.691 1322.36 Q117.885 1325.05 117.885 1329.54 Q117.885 1331.67 117.075 1333.59 Q116.288 1335.49 114.181 1338.08 Q113.603 1338.75 110.501 1341.97 Q107.399 1345.16 101.751 1350.93 Z" fill="#000000" fill-rule="evenodd" fill-opacity="1" /><path clip-path="url(#clip500)" d="M127.931 1320.3 L146.288 1320.3 L146.288 1324.24 L132.214 1324.24 L132.214 1332.71 Q133.232 1332.36 134.251 1332.2 Q135.269 1332.01 136.288 1332.01 Q142.075 1332.01 145.454 1335.18 Q148.834 1338.36 148.834 1343.77 Q148.834 1349.35 145.362 1352.45 Q141.89 1355.53 135.57 1355.53 Q133.394 1355.53 131.126 1355.16 Q128.88 1354.79 126.473 1354.05 L126.473 1349.35 Q128.556 1350.49 130.779 1351.04 Q133.001 1351.6 135.478 1351.6 Q139.482 1351.6 141.82 1349.49 Q144.158 1347.38 144.158 1343.77 Q144.158 1340.16 141.82 1338.05 Q139.482 1335.95 135.478 1335.95 Q133.603 1335.95 131.728 1336.37 Q129.876 1336.78 127.931 1337.66 L127.931 1320.3 Z" fill="#000000" fill-rule="evenodd" fill-opacity="1" /><path clip-path="url(#clip500)" d="M61.4965 909.808 Q57.8854 909.808 56.0567 913.373 Q54.2512 916.915 54.2512 924.044 Q54.2512 931.151 56.0567 934.716 Q57.8854 938.257 61.4965 938.257 Q65.1307 938.257 66.9363 934.716 Q68.765 931.151 68.765 924.044 Q68.765 916.915 66.9363 913.373 Q65.1307 909.808 61.4965 909.808 M61.4965 906.105 Q67.3067 906.105 70.3622 910.711 Q73.4409 915.294 73.4409 924.044 Q73.4409 932.771 70.3622 937.378 Q67.3067 941.961 61.4965 941.961 Q55.6864 941.961 52.6077 937.378 Q49.5521 932.771 49.5521 924.044 Q49.5521 915.294 52.6077 910.711 Q55.6864 906.105 61.4965 906.105 Z" fill="#000000" fill-rule="evenodd" fill-opacity="1" /><path clip-path="url(#clip500)" d="M81.6584 935.41 L86.5427 935.41 L86.5427 941.29 L81.6584 941.29 L81.6584 935.41 Z" fill="#000000" fill-rule="evenodd" fill-opacity="1" /><path clip-path="url(#clip500)" d="M96.7741 906.73 L115.13 906.73 L115.13 910.665 L101.056 910.665 L101.056 919.137 Q102.075 918.79 103.094 918.628 Q104.112 918.443 105.131 918.443 Q110.918 918.443 114.297 921.614 Q117.677 924.785 117.677 930.202 Q117.677 935.78 114.205 938.882 Q110.732 941.961 104.413 941.961 Q102.237 941.961 99.9685 941.591 Q97.7232 941.22 95.3158 940.48 L95.3158 935.78 Q97.3991 936.915 99.6213 937.47 Q101.844 938.026 104.32 938.026 Q108.325 938.026 110.663 935.919 Q113.001 933.813 113.001 930.202 Q113.001 926.591 110.663 924.484 Q108.325 922.378 104.32 922.378 Q102.445 922.378 100.57 922.794 Q98.7185 923.211 96.7741 924.091 L96.7741 906.73 Z" fill="#000000" fill-rule="evenodd" fill-opacity="1" /><path clip-path="url(#clip500)" d="M136.89 909.808 Q133.279 909.808 131.45 913.373 Q129.644 916.915 129.644 924.044 Q129.644 931.151 131.45 934.716 Q133.279 938.257 136.89 938.257 Q140.524 938.257 142.329 934.716 Q144.158 931.151 144.158 924.044 Q144.158 916.915 142.329 913.373 Q140.524 909.808 136.89 909.808 M136.89 906.105 Q142.7 906.105 145.755 910.711 Q148.834 915.294 148.834 924.044 Q148.834 932.771 145.755 937.378 Q142.7 941.961 136.89 941.961 Q131.079 941.961 128.001 937.378 Q124.945 932.771 124.945 924.044 Q124.945 915.294 128.001 910.711 Q131.079 906.105 136.89 906.105 Z" fill="#000000" fill-rule="evenodd" fill-opacity="1" /><path clip-path="url(#clip500)" d="M62.4919 496.238 Q58.8808 496.238 57.0521 499.803 Q55.2465 503.344 55.2465 510.474 Q55.2465 517.58 57.0521 521.145 Q58.8808 524.687 62.4919 524.687 Q66.1261 524.687 67.9317 521.145 Q69.7604 517.58 69.7604 510.474 Q69.7604 503.344 67.9317 499.803 Q66.1261 496.238 62.4919 496.238 M62.4919 492.534 Q68.302 492.534 71.3576 497.141 Q74.4363 501.724 74.4363 510.474 Q74.4363 519.201 71.3576 523.807 Q68.302 528.39 62.4919 528.39 Q56.6817 528.39 53.603 523.807 Q50.5475 519.201 50.5475 510.474 Q50.5475 501.724 53.603 497.141 Q56.6817 492.534 62.4919 492.534 Z" fill="#000000" fill-rule="evenodd" fill-opacity="1" /><path clip-path="url(#clip500)" d="M82.6538 521.839 L87.538 521.839 L87.538 527.719 L82.6538 527.719 L82.6538 521.839 Z" fill="#000000" fill-rule="evenodd" fill-opacity="1" /><path clip-path="url(#clip500)" d="M96.5426 493.159 L118.765 493.159 L118.765 495.15 L106.218 527.719 L101.334 527.719 L113.14 497.094 L96.5426 497.094 L96.5426 493.159 Z" fill="#000000" fill-rule="evenodd" fill-opacity="1" /><path clip-path="url(#clip500)" d="M127.931 493.159 L146.288 493.159 L146.288 497.094 L132.214 497.094 L132.214 505.566 Q133.232 505.219 134.251 505.057 Q135.269 504.872 136.288 504.872 Q142.075 504.872 145.454 508.043 Q148.834 511.215 148.834 516.631 Q148.834 522.21 145.362 525.312 Q141.89 528.39 135.57 528.39 Q133.394 528.39 131.126 528.02 Q128.88 527.65 126.473 526.909 L126.473 522.21 Q128.556 523.344 130.779 523.9 Q133.001 524.455 135.478 524.455 Q139.482 524.455 141.82 522.349 Q144.158 520.242 144.158 516.631 Q144.158 513.02 141.82 510.914 Q139.482 508.807 135.478 508.807 Q133.603 508.807 131.728 509.224 Q129.876 509.64 127.931 510.52 L127.931 493.159 Z" fill="#000000" fill-rule="evenodd" fill-opacity="1" /><path clip-path="url(#clip500)" d="M52.3067 110.213 L59.9456 110.213 L59.9456 83.8477 L51.6354 85.5143 L51.6354 81.2551 L59.8993 79.5884 L64.5752 79.5884 L64.5752 110.213 L72.214 110.213 L72.214 114.148 L52.3067 114.148 L52.3067 110.213 Z" fill="#000000" fill-rule="evenodd" fill-opacity="1" /><path clip-path="url(#clip500)" d="M81.6584 108.269 L86.5427 108.269 L86.5427 114.148 L81.6584 114.148 L81.6584 108.269 Z" fill="#000000" fill-rule="evenodd" fill-opacity="1" /><path clip-path="url(#clip500)" d="M106.728 82.6671 Q103.117 82.6671 101.288 86.2319 Q99.4824 89.7736 99.4824 96.9031 Q99.4824 104.01 101.288 107.574 Q103.117 111.116 106.728 111.116 Q110.362 111.116 112.168 107.574 Q113.996 104.01 113.996 96.9031 Q113.996 89.7736 112.168 86.2319 Q110.362 82.6671 106.728 82.6671 M106.728 78.9634 Q112.538 78.9634 115.593 83.5699 Q118.672 88.1532 118.672 96.9031 Q118.672 105.63 115.593 110.236 Q112.538 114.82 106.728 114.82 Q100.918 114.82 97.8389 110.236 Q94.7834 105.63 94.7834 96.9031 Q94.7834 88.1532 97.8389 83.5699 Q100.918 78.9634 106.728 78.9634 Z" fill="#000000" fill-rule="evenodd" fill-opacity="1" /><path clip-path="url(#clip500)" d="M136.89 82.6671 Q133.279 82.6671 131.45 86.2319 Q129.644 89.7736 129.644 96.9031 Q129.644 104.01 131.45 107.574 Q133.279 111.116 136.89 111.116 Q140.524 111.116 142.329 107.574 Q144.158 104.01 144.158 96.9031 Q144.158 89.7736 142.329 86.2319 Q140.524 82.6671 136.89 82.6671 M136.89 78.9634 Q142.7 78.9634 145.755 83.5699 Q148.834 88.1532 148.834 96.9031 Q148.834 105.63 145.755 110.236 Q142.7 114.82 136.89 114.82 Q131.079 114.82 128.001 110.236 Q124.945 105.63 124.945 96.9031 Q124.945 88.1532 128.001 83.5699 Q131.079 78.9634 136.89 78.9634 Z" fill="#000000" fill-rule="evenodd" fill-opacity="1" /><polyline clip-path="url(#clip502)" style="stroke:#009af9; stroke-linecap:butt; stroke-linejoin:round; stroke-width:4; stroke-opacity:1; fill:none" points="
  258.539,1751.15 262.303,1751.14 266.068,1751.1 269.832,1751.03 273.597,1750.93 308.405,1748.74 343.212,1744.2 378.02,1737.32 412.828,1728.09 433.746,1721.41 
  454.664,1713.89 475.582,1705.52 496.5,1696.3 531.872,1678.79 567.244,1658.87 605.667,1634.5 644.091,1607.31 679.514,1579.75 714.938,1549.83 752.915,1515.16 
  790.893,1477.83 834.893,1431.33 878.894,1381.44 917.997,1334.34 957.099,1284.76 991.389,1239.34 1025.68,1192.19 1063.06,1138.95 1100.45,1083.96 1138.05,1027.06 
  1175.66,968.78 1258.82,836.27 1337.94,707.891 1420.21,575.603 1489.47,468.358 1531.74,406.101 1574.02,347.177 1612.74,296.803 1651.47,250.535 1669.35,230.737 
  1687.24,212.024 1705.12,194.462 1723.01,178.12 1741.12,162.88 1759.24,149.034 1777.35,136.654 1795.47,125.813 1815.77,115.58 1836.07,107.47 1856.38,101.583 
  1876.68,98.0175 1895.08,96.8724 1913.47,97.7833 1931.87,100.819 1950.27,106.045 1971.33,114.802 1992.39,126.607 2013.46,141.547 2034.52,159.702 2054.03,179.445 
  2073.53,202.06 2093.03,227.598 2112.53,256.097 2131.76,287.129 2150.99,321.098 2170.22,358.026 2189.45,397.921 2208.11,439.499 2226.78,483.872 2245.45,531.025 
  2264.12,580.938 2283.26,634.935 2302.4,691.754 2321.53,751.342 2340.67,813.632 2361.64,884.89 2382.61,959.184 2403.57,1036.38 2424.54,1116.33 2439.77,1176.02 
  2455,1237.01 2470.23,1299.21 2485.46,1362.55 2515.92,1492.29 2546.38,1625.48 2552.62,1653.15 2558.87,1680.93 2565.12,1708.81 2571.37,1736.77 
  "/>
<path clip-path="url(#clip500)" d="
M2234.21 209.375 L2559.04 209.375 L2559.04 105.695 L2234.21 105.695  Z
  " fill="#ffffff" fill-rule="evenodd" fill-opacity="1"/>
<polyline clip-path="url(#clip500)" style="stroke:#000000; stroke-linecap:butt; stroke-linejoin:round; stroke-width:4; stroke-opacity:1; fill:none" points="
  2234.21,209.375 2559.04,209.375 2559.04,105.695 2234.21,105.695 2234.21,209.375 
  "/>
<polyline clip-path="url(#clip500)" style="stroke:#009af9; stroke-linecap:butt; stroke-linejoin:round; stroke-width:4; stroke-opacity:1; fill:none" points="
  2261.45,157.535 2424.89,157.535 
  "/>
<path clip-path="url(#clip500)" d="M2465.97 177.223 Q2464.16 181.852 2462.45 183.264 Q2460.74 184.676 2457.87 184.676 L2454.46 184.676 L2454.46 181.112 L2456.96 181.112 Q2458.72 181.112 2459.69 180.278 Q2460.67 179.445 2461.85 176.343 L2462.61 174.399 L2452.13 148.889 L2456.64 148.889 L2464.74 169.167 L2472.84 148.889 L2477.36 148.889 L2465.97 177.223 Z" fill="#000000" fill-rule="evenodd" fill-opacity="1" /><path clip-path="url(#clip500)" d="M2484.65 170.88 L2492.29 170.88 L2492.29 144.515 L2483.98 146.181 L2483.98 141.922 L2492.24 140.255 L2496.92 140.255 L2496.92 170.88 L2504.56 170.88 L2504.56 174.815 L2484.65 174.815 L2484.65 170.88 Z" fill="#000000" fill-rule="evenodd" fill-opacity="1" /></svg>
