<?xml version="1.0" encoding="utf-8"?>
<svg xmlns="http://www.w3.org/2000/svg" xmlns:xlink="http://www.w3.org/1999/xlink" width="672" height="480" viewBox="0 0 2688 1920">
<defs>
  <clipPath id="clip750">
    <rect x="0" y="0" width="2688" height="1920"/>
  </clipPath>
</defs>
<path clip-path="url(#clip750)" d="
M0 1920 L2688 1920 L2688 0 L0 0  Z
  " fill="#ffffff" fill-rule="evenodd" fill-opacity="1"/>
<defs>
  <clipPath id="clip751">
    <rect x="537" y="0" width="1883" height="1883"/>
  </clipPath>
</defs>
<path clip-path="url(#clip750)" d="
M115.057 1800.78 L2640.76 1800.78 L2640.76 47.2441 L115.057 47.2441  Z
  " fill="#ffffff" fill-rule="evenodd" fill-opacity="1"/>
<defs>
  <clipPath id="clip752">
    <rect x="115" y="47" width="2527" height="1755"/>
  </clipPath>
</defs>
<polyline clip-path="url(#clip752)" style="stroke:#000000; stroke-linecap:butt; stroke-linejoin:round; stroke-width:2; stroke-opacity:0.1; fill:none" points="
  186.539,1800.78 186.539,47.2441 
  "/>
<polyline clip-path="url(#clip752)" style="stroke:#000000; stroke-linecap:butt; stroke-linejoin:round; stroke-width:2; stroke-opacity:0.1; fill:none" points="
  782.223,1800.78 782.223,47.2441 
  "/>
<polyline clip-path="url(#clip752)" style="stroke:#000000; stroke-linecap:butt; stroke-linejoin:round; stroke-width:2; stroke-opacity:0.1; fill:none" points="
  1377.91,1800.78 1377.91,47.2441 
  "/>
<polyline clip-path="url(#clip752)" style="stroke:#000000; stroke-linecap:butt; stroke-linejoin:round; stroke-width:2; stroke-opacity:0.1; fill:none" points="
  1973.59,1800.78 1973.59,47.2441 
  "/>
<polyline clip-path="url(#clip752)" style="stroke:#000000; stroke-linecap:butt; stroke-linejoin:round; stroke-width:2; stroke-opacity:0.1; fill:none" points="
  2569.27,1800.78 2569.27,47.2441 
  "/>
<polyline clip-path="url(#clip750)" style="stroke:#000000; stroke-linecap:butt; stroke-linejoin:round; stroke-width:4; stroke-opacity:1; fill:none" points="
  115.057,1800.78 2640.76,1800.78 
  "/>
<polyline clip-path="url(#clip750)" style="stroke:#000000; stroke-linecap:butt; stroke-linejoin:round; stroke-width:4; stroke-opacity:1; fill:none" points="
  186.539,1800.78 186.539,1781.88 
  "/>
<polyline clip-path="url(#clip750)" style="stroke:#000000; stroke-linecap:butt; stroke-linejoin:round; stroke-width:4; stroke-opacity:1; fill:none" points="
  782.223,1800.78 782.223,1781.88 
  "/>
<polyline clip-path="url(#clip750)" style="stroke:#000000; stroke-linecap:butt; stroke-linejoin:round; stroke-width:4; stroke-opacity:1; fill:none" points="
  1377.91,1800.78 1377.91,1781.88 
  "/>
<polyline clip-path="url(#clip750)" style="stroke:#000000; stroke-linecap:butt; stroke-linejoin:round; stroke-width:4; stroke-opacity:1; fill:none" points="
  1973.59,1800.78 1973.59,1781.88 
  "/>
<polyline clip-path="url(#clip750)" style="stroke:#000000; stroke-linecap:butt; stroke-linejoin:round; stroke-width:4; stroke-opacity:1; fill:none" points="
  2569.27,1800.78 2569.27,1781.88 
  "/>
<path clip-path="url(#clip750)" d="M186.539 1834 Q182.928 1834 181.099 1837.57 Q179.294 1841.11 179.294 1848.24 Q179.294 1855.34 181.099 1858.91 Q182.928 1862.45 186.539 1862.45 Q190.173 1862.45 191.979 1858.91 Q193.808 1855.34 193.808 1848.24 Q193.808 1841.11 191.979 1837.57 Q190.173 1834 186.539 1834 M186.539 1830.3 Q192.349 1830.3 195.405 1834.9 Q198.484 1839.49 198.484 1848.24 Q198.484 1856.96 195.405 1861.57 Q192.349 1866.15 186.539 1866.15 Q180.729 1866.15 177.65 1861.57 Q174.595 1856.96 174.595 1848.24 Q174.595 1839.49 177.65 1834.9 Q180.729 1830.3 186.539 1830.3 Z" fill="#000000" fill-rule="evenodd" fill-opacity="1" /><path clip-path="url(#clip750)" d="M776.876 1861.55 L793.195 1861.55 L793.195 1865.48 L771.251 1865.48 L771.251 1861.55 Q773.913 1858.79 778.496 1854.16 Q783.103 1849.51 784.283 1848.17 Q786.528 1845.65 787.408 1843.91 Q788.311 1842.15 788.311 1840.46 Q788.311 1837.71 786.366 1835.97 Q784.445 1834.23 781.343 1834.23 Q779.144 1834.23 776.691 1835 Q774.26 1835.76 771.482 1837.31 L771.482 1832.59 Q774.306 1831.46 776.76 1830.88 Q779.214 1830.3 781.251 1830.3 Q786.621 1830.3 789.815 1832.98 Q793.01 1835.67 793.01 1840.16 Q793.01 1842.29 792.2 1844.21 Q791.413 1846.11 789.306 1848.7 Q788.727 1849.37 785.626 1852.59 Q782.524 1855.78 776.876 1861.55 Z" fill="#000000" fill-rule="evenodd" fill-opacity="1" /><path clip-path="url(#clip750)" d="M1380.92 1835 L1369.11 1853.45 L1380.92 1853.45 L1380.92 1835 M1379.69 1830.92 L1385.57 1830.92 L1385.57 1853.45 L1390.5 1853.45 L1390.5 1857.34 L1385.57 1857.34 L1385.57 1865.48 L1380.92 1865.48 L1380.92 1857.34 L1365.31 1857.34 L1365.31 1852.82 L1379.69 1830.92 Z" fill="#000000" fill-rule="evenodd" fill-opacity="1" /><path clip-path="url(#clip750)" d="M1974 1846.34 Q1970.85 1846.34 1969 1848.49 Q1967.17 1850.65 1967.17 1854.4 Q1967.17 1858.12 1969 1860.3 Q1970.85 1862.45 1974 1862.45 Q1977.14 1862.45 1978.97 1860.3 Q1980.82 1858.12 1980.82 1854.4 Q1980.82 1850.65 1978.97 1848.49 Q1977.14 1846.34 1974 1846.34 M1983.28 1831.69 L1983.28 1835.95 Q1981.52 1835.11 1979.71 1834.67 Q1977.93 1834.23 1976.17 1834.23 Q1971.54 1834.23 1969.09 1837.36 Q1966.66 1840.48 1966.31 1846.8 Q1967.68 1844.79 1969.74 1843.72 Q1971.8 1842.64 1974.27 1842.64 Q1979.48 1842.64 1982.49 1845.81 Q1985.52 1848.96 1985.52 1854.4 Q1985.52 1859.72 1982.37 1862.94 Q1979.23 1866.15 1974 1866.15 Q1968 1866.15 1964.83 1861.57 Q1961.66 1856.96 1961.66 1848.24 Q1961.66 1840.04 1965.55 1835.18 Q1969.44 1830.3 1975.99 1830.3 Q1977.75 1830.3 1979.53 1830.65 Q1981.33 1830.99 1983.28 1831.69 Z" fill="#000000" fill-rule="evenodd" fill-opacity="1" /><path clip-path="url(#clip750)" d="M2569.27 1849.07 Q2565.94 1849.07 2564.02 1850.85 Q2562.12 1852.64 2562.12 1855.76 Q2562.12 1858.89 2564.02 1860.67 Q2565.94 1862.45 2569.27 1862.45 Q2572.61 1862.45 2574.53 1860.67 Q2576.45 1858.86 2576.45 1855.76 Q2576.45 1852.64 2574.53 1850.85 Q2572.63 1849.07 2569.27 1849.07 M2564.6 1847.08 Q2561.59 1846.34 2559.9 1844.28 Q2558.23 1842.22 2558.23 1839.26 Q2558.23 1835.11 2561.17 1832.71 Q2564.14 1830.3 2569.27 1830.3 Q2574.44 1830.3 2577.38 1832.71 Q2580.32 1835.11 2580.32 1839.26 Q2580.32 1842.22 2578.63 1844.28 Q2576.96 1846.34 2573.97 1847.08 Q2577.35 1847.87 2579.23 1850.16 Q2581.13 1852.45 2581.13 1855.76 Q2581.13 1860.78 2578.05 1863.47 Q2574.99 1866.15 2569.27 1866.15 Q2563.56 1866.15 2560.48 1863.47 Q2557.42 1860.78 2557.42 1855.76 Q2557.42 1852.45 2559.32 1850.16 Q2561.22 1847.87 2564.6 1847.08 M2562.89 1839.7 Q2562.89 1842.38 2564.55 1843.89 Q2566.24 1845.39 2569.27 1845.39 Q2572.28 1845.39 2573.97 1843.89 Q2575.69 1842.38 2575.69 1839.7 Q2575.69 1837.01 2573.97 1835.51 Q2572.28 1834 2569.27 1834 Q2566.24 1834 2564.55 1835.51 Q2562.89 1837.01 2562.89 1839.7 Z" fill="#000000" fill-rule="evenodd" fill-opacity="1" /><polyline clip-path="url(#clip752)" style="stroke:#000000; stroke-linecap:butt; stroke-linejoin:round; stroke-width:2; stroke-opacity:0.1; fill:none" points="
  115.057,1751.15 2640.76,1751.15 
  "/>
<polyline clip-path="url(#clip752)" style="stroke:#000000; stroke-linecap:butt; stroke-linejoin:round; stroke-width:2; stroke-opacity:0.1; fill:none" points="
  115.057,1337.58 2640.76,1337.58 
  "/>
<polyline clip-path="url(#clip752)" style="stroke:#000000; stroke-linecap:butt; stroke-linejoin:round; stroke-width:2; stroke-opacity:0.1; fill:none" points="
  115.057,924.012 2640.76,924.012 
  "/>
<polyline clip-path="url(#clip752)" style="stroke:#000000; stroke-linecap:butt; stroke-linejoin:round; stroke-width:2; stroke-opacity:0.1; fill:none" points="
  115.057,510.442 2640.76,510.442 
  "/>
<polyline clip-path="url(#clip752)" style="stroke:#000000; stroke-linecap:butt; stroke-linejoin:round; stroke-width:2; stroke-opacity:0.1; fill:none" points="
  115.057,96.8724 2640.76,96.8724 
  "/>
<polyline clip-path="url(#clip750)" style="stroke:#000000; stroke-linecap:butt; stroke-linejoin:round; stroke-width:4; stroke-opacity:1; fill:none" points="
  115.057,1800.78 115.057,47.2441 
  "/>
<polyline clip-path="url(#clip750)" style="stroke:#000000; stroke-linecap:butt; stroke-linejoin:round; stroke-width:4; stroke-opacity:1; fill:none" points="
  115.057,1751.15 133.955,1751.15 
  "/>
<polyline clip-path="url(#clip750)" style="stroke:#000000; stroke-linecap:butt; stroke-linejoin:round; stroke-width:4; stroke-opacity:1; fill:none" points="
  115.057,1337.58 133.955,1337.58 
  "/>
<polyline clip-path="url(#clip750)" style="stroke:#000000; stroke-linecap:butt; stroke-linejoin:round; stroke-width:4; stroke-opacity:1; fill:none" points="
  115.057,924.012 133.955,924.012 
  "/>
<polyline clip-path="url(#clip750)" style="stroke:#000000; stroke-linecap:butt; stroke-linejoin:round; stroke-width:4; stroke-opacity:1; fill:none" points="
  115.057,510.442 133.955,510.442 
  "/>
<polyline clip-path="url(#clip750)" style="stroke:#000000; stroke-linecap:butt; stroke-linejoin:round; stroke-width:4; stroke-opacity:1; fill:none" points="
  115.057,96.8724 133.955,96.8724 
  "/>
<path clip-path="url(#clip750)" d="M62.7928 1736.95 Q59.1817 1736.95 57.353 1740.51 Q55.5475 1744.06 55.5475 1751.19 Q55.5475 1758.29 57.353 1761.86 Q59.1817 1765.4 62.7928 1765.4 Q66.427 1765.4 68.2326 1761.86 Q70.0613 1758.29 70.0613 1751.19 Q70.0613 1744.06 68.2326 1740.51 Q66.427 1736.95 62.7928 1736.95 M62.7928 1733.25 Q68.6029 1733.25 71.6585 1737.85 Q74.7372 1742.44 74.7372 1751.19 Q74.7372 1759.91 71.6585 1764.52 Q68.6029 1769.1 62.7928 1769.1 Q56.9826 1769.1 53.904 1764.52 Q50.8484 1759.91 50.8484 1751.19 Q50.8484 1742.44 53.904 1737.85 Q56.9826 1733.25 62.7928 1733.25 Z" fill="#000000" fill-rule="evenodd" fill-opacity="1" /><path clip-path="url(#clip750)" d="M58.4178 1350.93 L74.7372 1350.93 L74.7372 1354.86 L52.7928 1354.86 L52.7928 1350.93 Q55.4549 1348.17 60.0382 1343.54 Q64.6446 1338.89 65.8252 1337.55 Q68.0705 1335.02 68.9502 1333.29 Q69.8529 1331.53 69.8529 1329.84 Q69.8529 1327.08 67.9085 1325.35 Q65.9872 1323.61 62.8854 1323.61 Q60.6863 1323.61 58.2326 1324.38 Q55.8021 1325.14 53.0243 1326.69 L53.0243 1321.97 Q55.8484 1320.83 58.3021 1320.26 Q60.7558 1319.68 62.7928 1319.68 Q68.1631 1319.68 71.3576 1322.36 Q74.552 1325.05 74.552 1329.54 Q74.552 1331.67 73.7418 1333.59 Q72.9548 1335.49 70.8483 1338.08 Q70.2696 1338.75 67.1678 1341.97 Q64.0659 1345.16 58.4178 1350.93 Z" fill="#000000" fill-rule="evenodd" fill-opacity="1" /><path clip-path="url(#clip750)" d="M65.1539 910.806 L53.3484 929.255 L65.1539 929.255 L65.1539 910.806 M63.927 906.732 L69.8066 906.732 L69.8066 929.255 L74.7372 929.255 L74.7372 933.144 L69.8066 933.144 L69.8066 941.292 L65.1539 941.292 L65.1539 933.144 L49.5521 933.144 L49.5521 928.63 L63.927 906.732 Z" fill="#000000" fill-rule="evenodd" fill-opacity="1" /><path clip-path="url(#clip750)" d="M63.2095 508.579 Q60.0613 508.579 58.2095 510.731 Q56.3808 512.884 56.3808 516.634 Q56.3808 520.361 58.2095 522.537 Q60.0613 524.69 63.2095 524.69 Q66.3576 524.69 68.1863 522.537 Q70.0381 520.361 70.0381 516.634 Q70.0381 512.884 68.1863 510.731 Q66.3576 508.579 63.2095 508.579 M72.4918 493.926 L72.4918 498.185 Q70.7326 497.352 68.927 496.912 Q67.1446 496.472 65.3854 496.472 Q60.7558 496.472 58.3021 499.597 Q55.8715 502.722 55.5243 509.042 Q56.89 507.028 58.9502 505.963 Q61.0104 504.875 63.4872 504.875 Q68.6955 504.875 71.7048 508.046 Q74.7372 511.194 74.7372 516.634 Q74.7372 521.958 71.589 525.176 Q68.4409 528.393 63.2095 528.393 Q57.2141 528.393 54.0428 523.81 Q50.8716 519.204 50.8716 510.477 Q50.8716 502.282 54.7604 497.421 Q58.6493 492.537 65.2002 492.537 Q66.9594 492.537 68.7418 492.884 Q70.5474 493.232 72.4918 493.926 Z" fill="#000000" fill-rule="evenodd" fill-opacity="1" /><path clip-path="url(#clip750)" d="M62.8854 97.7405 Q59.5521 97.7405 57.6308 99.5229 Q55.7326 101.305 55.7326 104.43 Q55.7326 107.555 57.6308 109.338 Q59.5521 111.12 62.8854 111.12 Q66.2187 111.12 68.14 109.338 Q70.0613 107.532 70.0613 104.43 Q70.0613 101.305 68.14 99.5229 Q66.2419 97.7405 62.8854 97.7405 M58.2095 95.7498 Q55.2002 95.009 53.5104 92.9489 Q51.8438 90.8887 51.8438 87.9257 Q51.8438 83.7822 54.7836 81.3748 Q57.7465 78.9675 62.8854 78.9675 Q68.0474 78.9675 70.9872 81.3748 Q73.927 83.7822 73.927 87.9257 Q73.927 90.8887 72.2372 92.9489 Q70.5705 95.009 67.5844 95.7498 Q70.964 96.5368 72.839 98.8285 Q74.7372 101.12 74.7372 104.43 Q74.7372 109.453 71.6585 112.139 Q68.6029 114.824 62.8854 114.824 Q57.1678 114.824 54.0891 112.139 Q51.0336 109.453 51.0336 104.43 Q51.0336 101.12 52.9317 98.8285 Q54.8299 96.5368 58.2095 95.7498 M56.4965 88.3656 Q56.4965 91.0507 58.1632 92.5553 Q59.853 94.06 62.8854 94.06 Q65.8946 94.06 67.5844 92.5553 Q69.2974 91.0507 69.2974 88.3656 Q69.2974 85.6804 67.5844 84.1758 Q65.8946 82.6711 62.8854 82.6711 Q59.853 82.6711 58.1632 84.1758 Q56.4965 85.6804 56.4965 88.3656 Z" fill="#000000" fill-rule="evenodd" fill-opacity="1" /><polyline clip-path="url(#clip752)" style="stroke:#0000ff; stroke-linecap:butt; stroke-linejoin:round; stroke-width:4; stroke-opacity:1; fill:none" points="
  186.539,1751.15 192.556,1751.15 198.573,1751.14 204.59,1751.1 210.607,1751.04 216.624,1750.94 222.641,1750.78 228.658,1750.57 234.675,1750.28 240.692,1749.91 
  246.709,1749.45 252.726,1748.88 258.743,1748.2 264.76,1747.41 270.777,1746.47 276.794,1745.4 282.811,1744.17 288.828,1742.77 294.845,1741.21 300.862,1739.46 
  306.879,1737.51 312.896,1735.36 318.913,1733 324.93,1730.41 330.947,1727.58 336.964,1724.51 342.981,1721.19 348.998,1717.59 355.015,1713.72 361.032,1709.57 
  367.049,1705.12 373.066,1700.36 379.083,1695.28 385.1,1689.88 391.117,1684.14 397.134,1678.05 403.151,1671.61 409.168,1664.79 415.185,1657.6 421.202,1650.02 
  427.219,1642.04 433.236,1633.65 439.253,1624.84 445.271,1615.6 451.288,1605.92 457.305,1595.79 463.322,1585.2 469.339,1574.14 475.356,1562.6 481.373,1550.57 
  487.39,1538.04 493.407,1524.99 499.424,1511.43 505.441,1497.33 511.458,1482.69 517.475,1467.5 523.492,1451.74 529.509,1435.41 535.526,1418.5 541.543,1401 
  547.56,1382.89 553.577,1364.17 559.594,1344.82 565.611,1324.84 571.628,1304.22 577.645,1282.94 583.662,1260.99 589.679,1238.38 595.696,1215.07 601.713,1191.07 
  607.73,1166.36 613.747,1140.94 619.764,1114.79 625.781,1087.91 631.798,1060.28 637.815,1031.89 643.832,1002.73 649.849,972.8 655.866,942.08 661.883,910.561 
  667.9,878.234 673.917,845.089 679.934,811.115 685.951,776.302 691.968,740.64 697.985,704.119 704.002,666.729 710.019,628.459 716.036,589.298 722.053,549.238 
  728.07,508.267 734.087,466.376 740.104,423.553 746.121,379.79 752.138,335.075 758.155,289.398 764.172,242.75 770.189,195.12 776.206,146.497 782.223,96.8724 
  
  "/>
<polyline clip-path="url(#clip752)" style="stroke:#ff0000; stroke-linecap:butt; stroke-linejoin:round; stroke-width:4; stroke-opacity:1; fill:none" points="
  186.539,1751.15 186.542,1746.97 186.559,1742.8 186.606,1738.62 186.696,1734.44 186.846,1730.26 187.07,1726.09 187.382,1721.91 187.797,1717.73 188.329,1713.55 
  188.995,1709.38 189.808,1705.2 190.783,1701.02 191.934,1696.84 193.278,1692.67 194.827,1688.49 196.598,1684.31 198.604,1680.13 200.861,1675.96 203.383,1671.78 
  206.185,1667.6 209.281,1663.42 212.687,1659.25 216.417,1655.07 220.486,1650.89 224.909,1646.71 229.7,1642.54 234.874,1638.36 240.446,1634.18 246.431,1630 
  252.842,1625.83 259.696,1621.65 267.007,1617.47 274.789,1613.29 283.057,1609.12 291.826,1604.94 301.111,1600.76 310.926,1596.58 321.287,1592.41 332.207,1588.23 
  343.702,1584.05 355.786,1579.87 368.475,1575.7 381.782,1571.52 395.723,1567.34 410.312,1563.16 425.564,1558.99 441.494,1554.81 458.117,1550.63 475.446,1546.45 
  493.498,1542.28 512.286,1538.1 531.826,1533.92 552.132,1529.74 573.219,1525.57 595.101,1521.39 617.794,1517.21 641.312,1513.04 665.67,1508.86 690.882,1504.68 
  716.964,1500.5 743.93,1496.33 771.794,1492.15 800.572,1487.97 830.279,1483.79 860.928,1479.62 892.535,1475.44 925.114,1471.26 958.681,1467.08 993.249,1462.91 
  1028.83,1458.73 1065.45,1454.55 1103.11,1450.37 1141.84,1446.2 1181.64,1442.02 1222.53,1437.84 1264.52,1433.66 1307.63,1429.49 1351.88,1425.31 1397.28,1421.13 
  1443.84,1416.95 1491.58,1412.78 1540.52,1408.6 1590.66,1404.42 1642.02,1400.24 1694.63,1396.07 1748.48,1391.89 1803.61,1387.71 1860.01,1383.53 1917.71,1379.36 
  1976.72,1375.18 2037.06,1371 2098.74,1366.82 2161.77,1362.65 2226.18,1358.47 2291.97,1354.29 2359.16,1350.11 2427.76,1345.94 2497.8,1341.76 2569.27,1337.58 
  
  "/>
<polyline clip-path="url(#clip752)" style="stroke:#3da44d; stroke-linecap:butt; stroke-linejoin:round; stroke-width:4; stroke-opacity:1; fill:none" stroke-dasharray="16, 10" points="
  186.539,1751.15 202.052,1740.38 345.491,1640.79 431.692,1580.95 504.574,1530.35 583.744,1475.38 656.732,1424.71 734.983,1370.38 825.644,1307.44 906.213,1251.5 
  976.864,1202.45 1053.89,1148.97 1131.38,1095.17 1217.05,1035.69 1298.57,979.095 1383.32,920.251 1454.67,870.717 1541.78,810.241 1621.57,754.841 1695.27,703.675 
  1769.92,651.846 1853.58,593.759 1929.4,541.124 2016.2,480.859 2096.57,425.06 2175.81,370.049 2252.74,316.637 2331.6,261.883 2418.01,201.894 2543.52,114.75 
  2569.27,96.8724 
  "/>
</svg>
