<?xml version="1.0" encoding="utf-8"?>
<svg xmlns="http://www.w3.org/2000/svg" xmlns:xlink="http://www.w3.org/1999/xlink" width="672" height="480" viewBox="0 0 2688 1920">
<defs>
  <clipPath id="clip760">
    <rect x="0" y="0" width="2688" height="1920"/>
  </clipPath>
</defs>
<path clip-path="url(#clip760)" d="
M0 1920 L2688 1920 L2688 0 L0 0  Z
  " fill="#ffffff" fill-rule="evenodd" fill-opacity="1"/>
<defs>
  <clipPath id="clip761">
    <rect x="537" y="0" width="1883" height="1883"/>
  </clipPath>
</defs>
<path clip-path="url(#clip760)" d="
M195.821 1800.78 L2640.76 1800.78 L2640.76 47.2441 L195.821 47.2441  Z
  " fill="#ffffff" fill-rule="evenodd" fill-opacity="1"/>
<defs>
  <clipPath id="clip762">
    <rect x="195" y="47" width="2446" height="1755"/>
  </clipPath>
</defs>
<polyline clip-path="url(#clip762)" style="stroke:#000000; stroke-linecap:butt; stroke-linejoin:round; stroke-width:2; stroke-opacity:0.1; fill:none" points="
  572.556,1800.78 572.556,47.2441 
  "/>
<polyline clip-path="url(#clip762)" style="stroke:#000000; stroke-linecap:butt; stroke-linejoin:round; stroke-width:2; stroke-opacity:0.1; fill:none" points="
  1033.86,1800.78 1033.86,47.2441 
  "/>
<polyline clip-path="url(#clip762)" style="stroke:#000000; stroke-linecap:butt; stroke-linejoin:round; stroke-width:2; stroke-opacity:0.1; fill:none" points="
  1495.17,1800.78 1495.17,47.2441 
  "/>
<polyline clip-path="url(#clip762)" style="stroke:#000000; stroke-linecap:butt; stroke-linejoin:round; stroke-width:2; stroke-opacity:0.1; fill:none" points="
  1956.48,1800.78 1956.48,47.2441 
  "/>
<polyline clip-path="url(#clip762)" style="stroke:#000000; stroke-linecap:butt; stroke-linejoin:round; stroke-width:2; stroke-opacity:0.1; fill:none" points="
  2417.79,1800.78 2417.79,47.2441 
  "/>
<polyline clip-path="url(#clip760)" style="stroke:#000000; stroke-linecap:butt; stroke-linejoin:round; stroke-width:4; stroke-opacity:1; fill:none" points="
  195.821,1800.78 2640.76,1800.78 
  "/>
<polyline clip-path="url(#clip760)" style="stroke:#000000; stroke-linecap:butt; stroke-linejoin:round; stroke-width:4; stroke-opacity:1; fill:none" points="
  572.556,1800.78 572.556,1781.88 
  "/>
<polyline clip-path="url(#clip760)" style="stroke:#000000; stroke-linecap:butt; stroke-linejoin:round; stroke-width:4; stroke-opacity:1; fill:none" points="
  1033.86,1800.78 1033.86,1781.88 
  "/>
<polyline clip-path="url(#clip760)" style="stroke:#000000; stroke-linecap:butt; stroke-linejoin:round; stroke-width:4; stroke-opacity:1; fill:none" points="
  1495.17,1800.78 1495.17,1781.88 
  "/>
<polyline clip-path="url(#clip760)" style="stroke:#000000; stroke-linecap:butt; stroke-linejoin:round; stroke-width:4; stroke-opacity:1; fill:none" points="
  1956.48,1800.78 1956.48,1781.88 
  "/>
<polyline clip-path="url(#clip760)" style="stroke:#000000; stroke-linecap:butt; stroke-linejoin:round; stroke-width:4; stroke-opacity:1; fill:none" points="
  2417.79,1800.78 2417.79,1781.88 
  "/>
<path clip-path="url(#clip760)" d="M519.408 1848.65 L549.084 1848.65 L549.084 1852.59 L519.408 1852.59 L519.408 1848.65 Z" fill="#000000" fill-rule="evenodd" fill-opacity="1" /><path clip-path="url(#clip760)" d="M569.176 1834 Q565.565 1834 563.737 1837.57 Q561.931 1841.11 561.931 1848.24 Q561.931 1855.34 563.737 1858.91 Q565.565 1862.45 569.176 1862.45 Q572.811 1862.45 574.616 1858.91 Q576.445 1855.34 576.445 1848.24 Q576.445 1841.11 574.616 1837.57 Q572.811 1834 569.176 1834 M569.176 1830.3 Q574.986 1830.3 578.042 1834.9 Q581.121 1839.49 581.121 1848.24 Q581.121 1856.96 578.042 1861.57 Q574.986 1866.15 569.176 1866.15 Q563.366 1866.15 560.287 1861.57 Q557.232 1856.96 557.232 1848.24 Q557.232 1839.49 560.287 1834.9 Q563.366 1830.3 569.176 1830.3 Z" fill="#000000" fill-rule="evenodd" fill-opacity="1" /><path clip-path="url(#clip760)" d="M589.338 1859.6 L594.222 1859.6 L594.222 1865.48 L589.338 1865.48 L589.338 1859.6 Z" fill="#000000" fill-rule="evenodd" fill-opacity="1" /><path clip-path="url(#clip760)" d="M618.574 1846.85 Q621.931 1847.57 623.806 1849.84 Q625.704 1852.1 625.704 1855.44 Q625.704 1860.55 622.185 1863.35 Q618.667 1866.15 612.185 1866.15 Q610.009 1866.15 607.695 1865.71 Q605.403 1865.3 602.949 1864.44 L602.949 1859.93 Q604.894 1861.06 607.209 1861.64 Q609.523 1862.22 612.046 1862.22 Q616.445 1862.22 618.736 1860.48 Q621.051 1858.75 621.051 1855.44 Q621.051 1852.38 618.898 1850.67 Q616.769 1848.93 612.949 1848.93 L608.921 1848.93 L608.921 1845.09 L613.134 1845.09 Q616.583 1845.09 618.412 1843.72 Q620.241 1842.34 620.241 1839.74 Q620.241 1837.08 618.343 1835.67 Q616.468 1834.23 612.949 1834.23 Q611.028 1834.23 608.829 1834.65 Q606.63 1835.07 603.991 1835.95 L603.991 1831.78 Q606.653 1831.04 608.968 1830.67 Q611.306 1830.3 613.366 1830.3 Q618.69 1830.3 621.792 1832.73 Q624.894 1835.14 624.894 1839.26 Q624.894 1842.13 623.25 1844.12 Q621.607 1846.09 618.574 1846.85 Z" fill="#000000" fill-rule="evenodd" fill-opacity="1" /><path clip-path="url(#clip760)" d="M1011.25 1834 Q1007.64 1834 1005.81 1837.57 Q1004 1841.11 1004 1848.24 Q1004 1855.34 1005.81 1858.91 Q1007.64 1862.45 1011.25 1862.45 Q1014.88 1862.45 1016.69 1858.91 Q1018.52 1855.34 1018.52 1848.24 Q1018.52 1841.11 1016.69 1837.57 Q1014.88 1834 1011.25 1834 M1011.25 1830.3 Q1017.06 1830.3 1020.11 1834.9 Q1023.19 1839.49 1023.19 1848.24 Q1023.19 1856.96 1020.11 1861.57 Q1017.06 1866.15 1011.25 1866.15 Q1005.44 1866.15 1002.36 1861.57 Q999.304 1856.96 999.304 1848.24 Q999.304 1839.49 1002.36 1834.9 Q1005.44 1830.3 1011.25 1830.3 Z" fill="#000000" fill-rule="evenodd" fill-opacity="1" /><path clip-path="url(#clip760)" d="M1031.41 1859.6 L1036.3 1859.6 L1036.3 1865.48 L1031.41 1865.48 L1031.41 1859.6 Z" fill="#000000" fill-rule="evenodd" fill-opacity="1" /><path clip-path="url(#clip760)" d="M1056.48 1834 Q1052.87 1834 1051.04 1837.57 Q1049.23 1841.11 1049.23 1848.24 Q1049.23 1855.34 1051.04 1858.91 Q1052.87 1862.45 1056.48 1862.45 Q1060.11 1862.45 1061.92 1858.91 Q1063.75 1855.34 1063.75 1848.24 Q1063.75 1841.11 1061.92 1837.57 Q1060.11 1834 1056.48 1834 M1056.48 1830.3 Q1062.29 1830.3 1065.35 1834.9 Q1068.42 1839.49 1068.42 1848.24 Q1068.42 1856.96 1065.35 1861.57 Q1062.29 1866.15 1056.48 1866.15 Q1050.67 1866.15 1047.59 1861.57 Q1044.54 1856.96 1044.54 1848.24 Q1044.54 1839.49 1047.59 1834.9 Q1050.67 1830.3 1056.48 1830.3 Z" fill="#000000" fill-rule="evenodd" fill-opacity="1" /><path clip-path="url(#clip760)" d="M1472.88 1834 Q1469.27 1834 1467.44 1837.57 Q1465.64 1841.11 1465.64 1848.24 Q1465.64 1855.34 1467.44 1858.91 Q1469.27 1862.45 1472.88 1862.45 Q1476.52 1862.45 1478.32 1858.91 Q1480.15 1855.34 1480.15 1848.24 Q1480.15 1841.11 1478.32 1837.57 Q1476.52 1834 1472.88 1834 M1472.88 1830.3 Q1478.69 1830.3 1481.75 1834.9 Q1484.83 1839.49 1484.83 1848.24 Q1484.83 1856.96 1481.75 1861.57 Q1478.69 1866.15 1472.88 1866.15 Q1467.07 1866.15 1463.99 1861.57 Q1460.94 1856.96 1460.94 1848.24 Q1460.94 1839.49 1463.99 1834.9 Q1467.07 1830.3 1472.88 1830.3 Z" fill="#000000" fill-rule="evenodd" fill-opacity="1" /><path clip-path="url(#clip760)" d="M1493.04 1859.6 L1497.93 1859.6 L1497.93 1865.48 L1493.04 1865.48 L1493.04 1859.6 Z" fill="#000000" fill-rule="evenodd" fill-opacity="1" /><path clip-path="url(#clip760)" d="M1522.28 1846.85 Q1525.64 1847.57 1527.51 1849.84 Q1529.41 1852.1 1529.41 1855.44 Q1529.41 1860.55 1525.89 1863.35 Q1522.37 1866.15 1515.89 1866.15 Q1513.71 1866.15 1511.4 1865.71 Q1509.11 1865.3 1506.65 1864.44 L1506.65 1859.93 Q1508.6 1861.06 1510.91 1861.64 Q1513.23 1862.22 1515.75 1862.22 Q1520.15 1862.22 1522.44 1860.48 Q1524.76 1858.75 1524.76 1855.44 Q1524.76 1852.38 1522.6 1850.67 Q1520.47 1848.93 1516.65 1848.93 L1512.63 1848.93 L1512.63 1845.09 L1516.84 1845.09 Q1520.29 1845.09 1522.12 1843.72 Q1523.95 1842.34 1523.95 1839.74 Q1523.95 1837.08 1522.05 1835.67 Q1520.17 1834.23 1516.65 1834.23 Q1514.73 1834.23 1512.53 1834.65 Q1510.33 1835.07 1507.7 1835.95 L1507.7 1831.78 Q1510.36 1831.04 1512.67 1830.67 Q1515.01 1830.3 1517.07 1830.3 Q1522.4 1830.3 1525.5 1832.73 Q1528.6 1835.14 1528.6 1839.26 Q1528.6 1842.13 1526.96 1844.12 Q1525.31 1846.09 1522.28 1846.85 Z" fill="#000000" fill-rule="evenodd" fill-opacity="1" /><path clip-path="url(#clip760)" d="M1933.78 1834 Q1930.17 1834 1928.35 1837.57 Q1926.54 1841.11 1926.54 1848.24 Q1926.54 1855.34 1928.35 1858.91 Q1930.17 1862.45 1933.78 1862.45 Q1937.42 1862.45 1939.22 1858.91 Q1941.05 1855.34 1941.05 1848.24 Q1941.05 1841.11 1939.22 1837.57 Q1937.42 1834 1933.78 1834 M1933.78 1830.3 Q1939.6 1830.3 1942.65 1834.9 Q1945.73 1839.49 1945.73 1848.24 Q1945.73 1856.96 1942.65 1861.57 Q1939.6 1866.15 1933.78 1866.15 Q1927.97 1866.15 1924.9 1861.57 Q1921.84 1856.96 1921.84 1848.24 Q1921.84 1839.49 1924.9 1834.9 Q1927.97 1830.3 1933.78 1830.3 Z" fill="#000000" fill-rule="evenodd" fill-opacity="1" /><path clip-path="url(#clip760)" d="M1953.95 1859.6 L1958.83 1859.6 L1958.83 1865.48 L1953.95 1865.48 L1953.95 1859.6 Z" fill="#000000" fill-rule="evenodd" fill-opacity="1" /><path clip-path="url(#clip760)" d="M1979.59 1846.34 Q1976.45 1846.34 1974.59 1848.49 Q1972.77 1850.65 1972.77 1854.4 Q1972.77 1858.12 1974.59 1860.3 Q1976.45 1862.45 1979.59 1862.45 Q1982.74 1862.45 1984.57 1860.3 Q1986.42 1858.12 1986.42 1854.4 Q1986.42 1850.65 1984.57 1848.49 Q1982.74 1846.34 1979.59 1846.34 M1988.88 1831.69 L1988.88 1835.95 Q1987.12 1835.11 1985.31 1834.67 Q1983.53 1834.23 1981.77 1834.23 Q1977.14 1834.23 1974.69 1837.36 Q1972.26 1840.48 1971.91 1846.8 Q1973.28 1844.79 1975.34 1843.72 Q1977.4 1842.64 1979.87 1842.64 Q1985.08 1842.64 1988.09 1845.81 Q1991.12 1848.96 1991.12 1854.4 Q1991.12 1859.72 1987.97 1862.94 Q1984.83 1866.15 1979.59 1866.15 Q1973.6 1866.15 1970.43 1861.57 Q1967.26 1856.96 1967.26 1848.24 Q1967.26 1840.04 1971.15 1835.18 Q1975.03 1830.3 1981.59 1830.3 Q1983.34 1830.3 1985.13 1830.65 Q1986.93 1830.99 1988.88 1831.69 Z" fill="#000000" fill-rule="evenodd" fill-opacity="1" /><path clip-path="url(#clip760)" d="M2395.27 1834 Q2391.66 1834 2389.83 1837.57 Q2388.02 1841.11 2388.02 1848.24 Q2388.02 1855.34 2389.83 1858.91 Q2391.66 1862.45 2395.27 1862.45 Q2398.9 1862.45 2400.71 1858.91 Q2402.54 1855.34 2402.54 1848.24 Q2402.54 1841.11 2400.71 1837.57 Q2398.9 1834 2395.27 1834 M2395.27 1830.3 Q2401.08 1830.3 2404.13 1834.9 Q2407.21 1839.49 2407.21 1848.24 Q2407.21 1856.96 2404.13 1861.57 Q2401.08 1866.15 2395.27 1866.15 Q2389.46 1866.15 2386.38 1861.57 Q2383.32 1856.96 2383.32 1848.24 Q2383.32 1839.49 2386.38 1834.9 Q2389.46 1830.3 2395.27 1830.3 Z" fill="#000000" fill-rule="evenodd" fill-opacity="1" /><path clip-path="url(#clip760)" d="M2415.43 1859.6 L2420.31 1859.6 L2420.31 1865.48 L2415.43 1865.48 L2415.43 1859.6 Z" fill="#000000" fill-rule="evenodd" fill-opacity="1" /><path clip-path="url(#clip760)" d="M2430.64 1864.77 L2430.64 1860.51 Q2432.4 1861.34 2434.2 1861.78 Q2436.01 1862.22 2437.74 1862.22 Q2442.37 1862.22 2444.8 1859.12 Q2447.26 1855.99 2447.6 1849.65 Q2446.26 1851.64 2444.2 1852.71 Q2442.14 1853.77 2439.64 1853.77 Q2434.46 1853.77 2431.42 1850.65 Q2428.42 1847.5 2428.42 1842.06 Q2428.42 1836.73 2431.56 1833.52 Q2434.71 1830.3 2439.94 1830.3 Q2445.94 1830.3 2449.09 1834.9 Q2452.26 1839.49 2452.26 1848.24 Q2452.26 1856.41 2448.37 1861.29 Q2444.5 1866.15 2437.95 1866.15 Q2436.19 1866.15 2434.39 1865.81 Q2432.58 1865.46 2430.64 1864.77 M2439.94 1850.11 Q2443.09 1850.11 2444.92 1847.96 Q2446.77 1845.81 2446.77 1842.06 Q2446.77 1838.33 2444.92 1836.18 Q2443.09 1834 2439.94 1834 Q2436.79 1834 2434.94 1836.18 Q2433.11 1838.33 2433.11 1842.06 Q2433.11 1845.81 2434.94 1847.96 Q2436.79 1850.11 2439.94 1850.11 Z" fill="#000000" fill-rule="evenodd" fill-opacity="1" /><polyline clip-path="url(#clip762)" style="stroke:#000000; stroke-linecap:butt; stroke-linejoin:round; stroke-width:2; stroke-opacity:0.1; fill:none" points="
  195.821,1562.44 2640.76,1562.44 
  "/>
<polyline clip-path="url(#clip762)" style="stroke:#000000; stroke-linecap:butt; stroke-linejoin:round; stroke-width:2; stroke-opacity:0.1; fill:none" points="
  195.821,1073.92 2640.76,1073.92 
  "/>
<polyline clip-path="url(#clip762)" style="stroke:#000000; stroke-linecap:butt; stroke-linejoin:round; stroke-width:2; stroke-opacity:0.1; fill:none" points="
  195.821,585.394 2640.76,585.394 
  "/>
<polyline clip-path="url(#clip762)" style="stroke:#000000; stroke-linecap:butt; stroke-linejoin:round; stroke-width:2; stroke-opacity:0.1; fill:none" points="
  195.821,96.8724 2640.76,96.8724 
  "/>
<polyline clip-path="url(#clip760)" style="stroke:#000000; stroke-linecap:butt; stroke-linejoin:round; stroke-width:4; stroke-opacity:1; fill:none" points="
  195.821,1800.78 195.821,47.2441 
  "/>
<polyline clip-path="url(#clip760)" style="stroke:#000000; stroke-linecap:butt; stroke-linejoin:round; stroke-width:4; stroke-opacity:1; fill:none" points="
  195.821,1562.44 214.718,1562.44 
  "/>
<polyline clip-path="url(#clip760)" style="stroke:#000000; stroke-linecap:butt; stroke-linejoin:round; stroke-width:4; stroke-opacity:1; fill:none" points="
  195.821,1073.92 214.718,1073.92 
  "/>
<polyline clip-path="url(#clip760)" style="stroke:#000000; stroke-linecap:butt; stroke-linejoin:round; stroke-width:4; stroke-opacity:1; fill:none" points="
  195.821,585.394 214.718,585.394 
  "/>
<polyline clip-path="url(#clip760)" style="stroke:#000000; stroke-linecap:butt; stroke-linejoin:round; stroke-width:4; stroke-opacity:1; fill:none" points="
  195.821,96.8724 214.718,96.8724 
  "/>
<path clip-path="url(#clip760)" d="M49.5521 1562.89 L79.2279 1562.89 L79.2279 1566.82 L49.5521 1566.82 L49.5521 1562.89 Z" fill="#000000" fill-rule="evenodd" fill-opacity="1" /><path clip-path="url(#clip760)" d="M99.3204 1548.24 Q95.7093 1548.24 93.8806 1551.8 Q92.075 1555.34 92.075 1562.47 Q92.075 1569.58 93.8806 1573.14 Q95.7093 1576.69 99.3204 1576.69 Q102.955 1576.69 104.76 1573.14 Q106.589 1569.58 106.589 1562.47 Q106.589 1555.34 104.76 1551.8 Q102.955 1548.24 99.3204 1548.24 M99.3204 1544.53 Q105.131 1544.53 108.186 1549.14 Q111.265 1553.72 111.265 1562.47 Q111.265 1571.2 108.186 1575.81 Q105.131 1580.39 99.3204 1580.39 Q93.5102 1580.39 90.4315 1575.81 Q87.376 1571.2 87.376 1562.47 Q87.376 1553.72 90.4315 1549.14 Q93.5102 1544.53 99.3204 1544.53 Z" fill="#000000" fill-rule="evenodd" fill-opacity="1" /><path clip-path="url(#clip760)" d="M119.482 1573.84 L124.367 1573.84 L124.367 1579.72 L119.482 1579.72 L119.482 1573.84 Z" fill="#000000" fill-rule="evenodd" fill-opacity="1" /><path clip-path="url(#clip760)" d="M134.598 1545.16 L152.954 1545.16 L152.954 1549.09 L138.88 1549.09 L138.88 1557.57 Q139.899 1557.22 140.917 1557.06 Q141.936 1556.87 142.954 1556.87 Q148.741 1556.87 152.121 1560.04 Q155.501 1563.21 155.501 1568.63 Q155.501 1574.21 152.028 1577.31 Q148.556 1580.39 142.237 1580.39 Q140.061 1580.39 137.792 1580.02 Q135.547 1579.65 133.14 1578.91 L133.14 1574.21 Q135.223 1575.34 137.445 1575.9 Q139.667 1576.45 142.144 1576.45 Q146.149 1576.45 148.487 1574.35 Q150.825 1572.24 150.825 1568.63 Q150.825 1565.02 148.487 1562.91 Q146.149 1560.81 142.144 1560.81 Q140.269 1560.81 138.394 1561.22 Q136.542 1561.64 134.598 1562.52 L134.598 1545.16 Z" fill="#000000" fill-rule="evenodd" fill-opacity="1" /><path clip-path="url(#clip760)" d="M98.325 1059.71 Q94.7139 1059.71 92.8852 1063.28 Q91.0797 1066.82 91.0797 1073.95 Q91.0797 1081.06 92.8852 1084.62 Q94.7139 1088.16 98.325 1088.16 Q101.959 1088.16 103.765 1084.62 Q105.593 1081.06 105.593 1073.95 Q105.593 1066.82 103.765 1063.28 Q101.959 1059.71 98.325 1059.71 M98.325 1056.01 Q104.135 1056.01 107.191 1060.62 Q110.269 1065.2 110.269 1073.95 Q110.269 1082.68 107.191 1087.28 Q104.135 1091.87 98.325 1091.87 Q92.5149 1091.87 89.4362 1087.28 Q86.3806 1082.68 86.3806 1073.95 Q86.3806 1065.2 89.4362 1060.62 Q92.5149 1056.01 98.325 1056.01 Z" fill="#000000" fill-rule="evenodd" fill-opacity="1" /><path clip-path="url(#clip760)" d="M118.487 1085.32 L123.371 1085.32 L123.371 1091.2 L118.487 1091.2 L118.487 1085.32 Z" fill="#000000" fill-rule="evenodd" fill-opacity="1" /><path clip-path="url(#clip760)" d="M143.556 1059.71 Q139.945 1059.71 138.116 1063.28 Q136.311 1066.82 136.311 1073.95 Q136.311 1081.06 138.116 1084.62 Q139.945 1088.16 143.556 1088.16 Q147.19 1088.16 148.996 1084.62 Q150.825 1081.06 150.825 1073.95 Q150.825 1066.82 148.996 1063.28 Q147.19 1059.71 143.556 1059.71 M143.556 1056.01 Q149.366 1056.01 152.422 1060.62 Q155.501 1065.2 155.501 1073.95 Q155.501 1082.68 152.422 1087.28 Q149.366 1091.87 143.556 1091.87 Q137.746 1091.87 134.667 1087.28 Q131.612 1082.68 131.612 1073.95 Q131.612 1065.2 134.667 1060.62 Q137.746 1056.01 143.556 1056.01 Z" fill="#000000" fill-rule="evenodd" fill-opacity="1" /><path clip-path="url(#clip760)" d="M99.3204 571.193 Q95.7093 571.193 93.8806 574.758 Q92.075 578.299 92.075 585.429 Q92.075 592.535 93.8806 596.1 Q95.7093 599.642 99.3204 599.642 Q102.955 599.642 104.76 596.1 Q106.589 592.535 106.589 585.429 Q106.589 578.299 104.76 574.758 Q102.955 571.193 99.3204 571.193 M99.3204 567.489 Q105.131 567.489 108.186 572.096 Q111.265 576.679 111.265 585.429 Q111.265 594.156 108.186 598.762 Q105.131 603.346 99.3204 603.346 Q93.5102 603.346 90.4315 598.762 Q87.376 594.156 87.376 585.429 Q87.376 576.679 90.4315 572.096 Q93.5102 567.489 99.3204 567.489 Z" fill="#000000" fill-rule="evenodd" fill-opacity="1" /><path clip-path="url(#clip760)" d="M119.482 596.795 L124.367 596.795 L124.367 602.674 L119.482 602.674 L119.482 596.795 Z" fill="#000000" fill-rule="evenodd" fill-opacity="1" /><path clip-path="url(#clip760)" d="M134.598 568.114 L152.954 568.114 L152.954 572.049 L138.88 572.049 L138.88 580.522 Q139.899 580.174 140.917 580.012 Q141.936 579.827 142.954 579.827 Q148.741 579.827 152.121 582.998 Q155.501 586.17 155.501 591.586 Q155.501 597.165 152.028 600.267 Q148.556 603.346 142.237 603.346 Q140.061 603.346 137.792 602.975 Q135.547 602.605 133.14 601.864 L133.14 597.165 Q135.223 598.299 137.445 598.855 Q139.667 599.41 142.144 599.41 Q146.149 599.41 148.487 597.304 Q150.825 595.197 150.825 591.586 Q150.825 587.975 148.487 585.869 Q146.149 583.762 142.144 583.762 Q140.269 583.762 138.394 584.179 Q136.542 584.596 134.598 585.475 L134.598 568.114 Z" fill="#000000" fill-rule="evenodd" fill-opacity="1" /><path clip-path="url(#clip760)" d="M89.1352 110.217 L96.7741 110.217 L96.7741 83.8517 L88.464 85.5183 L88.464 81.2591 L96.7278 79.5924 L101.404 79.5924 L101.404 110.217 L109.043 110.217 L109.043 114.152 L89.1352 114.152 L89.1352 110.217 Z" fill="#000000" fill-rule="evenodd" fill-opacity="1" /><path clip-path="url(#clip760)" d="M118.487 108.273 L123.371 108.273 L123.371 114.152 L118.487 114.152 L118.487 108.273 Z" fill="#000000" fill-rule="evenodd" fill-opacity="1" /><path clip-path="url(#clip760)" d="M143.556 82.6711 Q139.945 82.6711 138.116 86.2359 Q136.311 89.7776 136.311 96.9072 Q136.311 104.014 138.116 107.578 Q139.945 111.12 143.556 111.12 Q147.19 111.12 148.996 107.578 Q150.825 104.014 150.825 96.9072 Q150.825 89.7776 148.996 86.2359 Q147.19 82.6711 143.556 82.6711 M143.556 78.9675 Q149.366 78.9675 152.422 83.5739 Q155.501 88.1572 155.501 96.9072 Q155.501 105.634 152.422 110.24 Q149.366 114.824 143.556 114.824 Q137.746 114.824 134.667 110.24 Q131.612 105.634 131.612 96.9072 Q131.612 88.1572 134.667 83.5739 Q137.746 78.9675 143.556 78.9675 Z" fill="#000000" fill-rule="evenodd" fill-opacity="1" /><polyline clip-path="url(#clip762)" style="stroke:#009af9; stroke-linecap:butt; stroke-linejoin:round; stroke-width:20; stroke-opacity:1; fill:none" points="
  265.017,1751.15 268.771,1746.39 272.525,1741.66 276.28,1736.94 280.034,1732.25 314.747,1689.91 349.46,1649.34 384.173,1610.38 418.886,1572.91 460.609,1529.7 
  502.331,1488.32 537.606,1454.65 572.882,1422.11 611.201,1387.94 649.521,1354.93 684.848,1325.45 720.175,1296.83 758.049,1267.06 795.923,1238.17 839.804,1205.73 
  883.685,1174.33 961.678,1120.89 1030.07,1076.33 1104.64,1029.95 1179.65,985.419 1262.58,938.436 1341.49,895.736 1423.53,853.233 1492.6,818.835 1576.92,778.416 
  1654.16,742.802 1725.5,711.025 1797.77,679.856 1878.76,646.067 1952.15,616.426 2036.17,583.557 2113.97,554.08 2190.67,525.864 2265.14,499.226 2341.49,472.653 
  2425.13,444.346 2546.63,404.632 2571.56,396.681 
  "/>
<polyline clip-path="url(#clip762)" style="stroke:#e26f46; stroke-linecap:butt; stroke-linejoin:round; stroke-width:4; stroke-opacity:1; fill:none" points="
  265.017,1562.44 280.034,1552.9 418.886,1464.67 502.331,1411.65 572.882,1366.82 649.521,1318.13 720.175,1273.23 795.923,1225.1 883.685,1169.34 961.678,1119.78 
  1030.07,1076.33 1104.64,1028.95 1179.65,981.288 1262.58,928.593 1341.49,878.455 1423.53,826.323 1492.6,782.44 1576.92,728.863 1654.16,679.783 1725.5,634.454 
  1797.77,588.537 1878.76,537.076 1952.15,490.445 2036.17,437.056 2113.97,387.622 2190.67,338.886 2265.14,291.567 2341.49,243.06 2425.13,189.914 2546.63,112.711 
  2571.56,96.8724 
  "/>
<polyline clip-path="url(#clip762)" style="stroke:#3da44d; stroke-linecap:butt; stroke-linejoin:round; stroke-width:4; stroke-opacity:1; fill:none" points="
  265.017,1684.57 272.525,1677.42 280.034,1670.3 349.46,1605.56 418.886,1542.81 460.609,1506.06 502.331,1470.02 537.606,1440.12 572.882,1410.73 649.521,1348.65 
  720.175,1293.56 795.923,1236.8 883.685,1174 961.678,1120.86 1030.07,1076.33 1104.64,1029.98 1179.65,985.678 1262.58,939.4 1341.49,898.006 1423.53,857.695 
  1492.6,825.917 1576.92,789.792 1654.16,759.278 1725.5,733.286 1797.77,709.101 1878.76,684.56 1952.15,664.664 2036.17,644.616 2113.97,628.655 2190.67,615.368 
  2265.14,604.793 2303.32,600.261 2341.49,596.331 2383.31,592.716 2425.13,589.824 2485.88,586.911 2546.63,585.523 2559.1,585.426 2571.56,585.394 
  "/>
</svg>
