<?xml version="1.0" encoding="utf-8"?>
<svg xmlns="http://www.w3.org/2000/svg" xmlns:xlink="http://www.w3.org/1999/xlink" width="672" height="480" viewBox="0 0 2688 1920">
<defs>
  <clipPath id="clip630">
    <rect x="0" y="0" width="2688" height="1920"/>
  </clipPath>
</defs>
<path clip-path="url(#clip630)" d="
M0 1920 L2688 1920 L2688 0 L0 0  Z
  " fill="#ffffff" fill-rule="evenodd" fill-opacity="1"/>
<defs>
  <clipPath id="clip631">
    <rect x="537" y="0" width="1883" height="1883"/>
  </clipPath>
</defs>
<path clip-path="url(#clip630)" d="
M189.154 1800.78 L2640.76 1800.78 L2640.76 47.2441 L189.154 47.2441  Z
  " fill="#ffffff" fill-rule="evenodd" fill-opacity="1"/>
<defs>
  <clipPath id="clip632">
    <rect x="189" y="47" width="2453" height="1755"/>
  </clipPath>
</defs>
<polyline clip-path="url(#clip632)" style="stroke:#000000; stroke-linecap:butt; stroke-linejoin:round; stroke-width:2; stroke-opacity:0.1; fill:none" points="
  258.539,1800.78 258.539,47.2441 
  "/>
<polyline clip-path="url(#clip632)" style="stroke:#000000; stroke-linecap:butt; stroke-linejoin:round; stroke-width:2; stroke-opacity:0.1; fill:none" points="
  1029.48,1800.78 1029.48,47.2441 
  "/>
<polyline clip-path="url(#clip632)" style="stroke:#000000; stroke-linecap:butt; stroke-linejoin:round; stroke-width:2; stroke-opacity:0.1; fill:none" points="
  1800.43,1800.78 1800.43,47.2441 
  "/>
<polyline clip-path="url(#clip632)" style="stroke:#000000; stroke-linecap:butt; stroke-linejoin:round; stroke-width:2; stroke-opacity:0.1; fill:none" points="
  2571.37,1800.78 2571.37,47.2441 
  "/>
<polyline clip-path="url(#clip630)" style="stroke:#000000; stroke-linecap:butt; stroke-linejoin:round; stroke-width:4; stroke-opacity:1; fill:none" points="
  189.154,1800.78 2640.76,1800.78 
  "/>
<polyline clip-path="url(#clip630)" style="stroke:#000000; stroke-linecap:butt; stroke-linejoin:round; stroke-width:4; stroke-opacity:1; fill:none" points="
  258.539,1800.78 258.539,1781.88 
  "/>
<polyline clip-path="url(#clip630)" style="stroke:#000000; stroke-linecap:butt; stroke-linejoin:round; stroke-width:4; stroke-opacity:1; fill:none" points="
  1029.48,1800.78 1029.48,1781.88 
  "/>
<polyline clip-path="url(#clip630)" style="stroke:#000000; stroke-linecap:butt; stroke-linejoin:round; stroke-width:4; stroke-opacity:1; fill:none" points="
  1800.43,1800.78 1800.43,1781.88 
  "/>
<polyline clip-path="url(#clip630)" style="stroke:#000000; stroke-linecap:butt; stroke-linejoin:round; stroke-width:4; stroke-opacity:1; fill:none" points="
  2571.37,1800.78 2571.37,1781.88 
  "/>
<path clip-path="url(#clip630)" d="M258.539 1834 Q254.928 1834 253.099 1837.57 Q251.294 1841.11 251.294 1848.24 Q251.294 1855.34 253.099 1858.91 Q254.928 1862.45 258.539 1862.45 Q262.173 1862.45 263.979 1858.91 Q265.807 1855.34 265.807 1848.24 Q265.807 1841.11 263.979 1837.57 Q262.173 1834 258.539 1834 M258.539 1830.3 Q264.349 1830.3 267.405 1834.9 Q270.483 1839.49 270.483 1848.24 Q270.483 1856.96 267.405 1861.57 Q264.349 1866.15 258.539 1866.15 Q252.729 1866.15 249.65 1861.57 Q246.595 1856.96 246.595 1848.24 Q246.595 1839.49 249.65 1834.9 Q252.729 1830.3 258.539 1830.3 Z" fill="#000000" fill-rule="evenodd" fill-opacity="1" /><path clip-path="url(#clip630)" d="M1019.86 1861.55 L1027.5 1861.55 L1027.5 1835.18 L1019.19 1836.85 L1019.19 1832.59 L1027.46 1830.92 L1032.13 1830.92 L1032.13 1861.55 L1039.77 1861.55 L1039.77 1865.48 L1019.86 1865.48 L1019.86 1861.55 Z" fill="#000000" fill-rule="evenodd" fill-opacity="1" /><path clip-path="url(#clip630)" d="M1795.08 1861.55 L1811.4 1861.55 L1811.4 1865.48 L1789.45 1865.48 L1789.45 1861.55 Q1792.12 1858.79 1796.7 1854.16 Q1801.31 1849.51 1802.49 1848.17 Q1804.73 1845.65 1805.61 1843.91 Q1806.51 1842.15 1806.51 1840.46 Q1806.51 1837.71 1804.57 1835.97 Q1802.65 1834.23 1799.55 1834.23 Q1797.35 1834.23 1794.89 1835 Q1792.46 1835.76 1789.69 1837.31 L1789.69 1832.59 Q1792.51 1831.46 1794.96 1830.88 Q1797.42 1830.3 1799.45 1830.3 Q1804.83 1830.3 1808.02 1832.98 Q1811.21 1835.67 1811.21 1840.16 Q1811.21 1842.29 1810.4 1844.21 Q1809.62 1846.11 1807.51 1848.7 Q1806.93 1849.37 1803.83 1852.59 Q1800.73 1855.78 1795.08 1861.55 Z" fill="#000000" fill-rule="evenodd" fill-opacity="1" /><path clip-path="url(#clip630)" d="M2575.62 1846.85 Q2578.98 1847.57 2580.85 1849.84 Q2582.75 1852.1 2582.75 1855.44 Q2582.75 1860.55 2579.23 1863.35 Q2575.71 1866.15 2569.23 1866.15 Q2567.05 1866.15 2564.74 1865.71 Q2562.45 1865.3 2559.99 1864.44 L2559.99 1859.93 Q2561.94 1861.06 2564.25 1861.64 Q2566.57 1862.22 2569.09 1862.22 Q2573.49 1862.22 2575.78 1860.48 Q2578.1 1858.75 2578.1 1855.44 Q2578.1 1852.38 2575.94 1850.67 Q2573.81 1848.93 2569.99 1848.93 L2565.97 1848.93 L2565.97 1845.09 L2570.18 1845.09 Q2573.63 1845.09 2575.46 1843.72 Q2577.29 1842.34 2577.29 1839.74 Q2577.29 1837.08 2575.39 1835.67 Q2573.51 1834.23 2569.99 1834.23 Q2568.07 1834.23 2565.87 1834.65 Q2563.67 1835.07 2561.04 1835.95 L2561.04 1831.78 Q2563.7 1831.04 2566.01 1830.67 Q2568.35 1830.3 2570.41 1830.3 Q2575.73 1830.3 2578.84 1832.73 Q2581.94 1835.14 2581.94 1839.26 Q2581.94 1842.13 2580.29 1844.12 Q2578.65 1846.09 2575.62 1846.85 Z" fill="#000000" fill-rule="evenodd" fill-opacity="1" /><polyline clip-path="url(#clip632)" style="stroke:#000000; stroke-linecap:butt; stroke-linejoin:round; stroke-width:2; stroke-opacity:0.1; fill:none" points="
  189.154,1694.96 2640.76,1694.96 
  "/>
<polyline clip-path="url(#clip632)" style="stroke:#000000; stroke-linecap:butt; stroke-linejoin:round; stroke-width:2; stroke-opacity:0.1; fill:none" points="
  189.154,1309.48 2640.76,1309.48 
  "/>
<polyline clip-path="url(#clip632)" style="stroke:#000000; stroke-linecap:butt; stroke-linejoin:round; stroke-width:2; stroke-opacity:0.1; fill:none" points="
  189.154,924.012 2640.76,924.012 
  "/>
<polyline clip-path="url(#clip632)" style="stroke:#000000; stroke-linecap:butt; stroke-linejoin:round; stroke-width:2; stroke-opacity:0.1; fill:none" points="
  189.154,538.54 2640.76,538.54 
  "/>
<polyline clip-path="url(#clip632)" style="stroke:#000000; stroke-linecap:butt; stroke-linejoin:round; stroke-width:2; stroke-opacity:0.1; fill:none" points="
  189.154,153.068 2640.76,153.068 
  "/>
<polyline clip-path="url(#clip630)" style="stroke:#000000; stroke-linecap:butt; stroke-linejoin:round; stroke-width:4; stroke-opacity:1; fill:none" points="
  189.154,1800.78 189.154,47.2441 
  "/>
<polyline clip-path="url(#clip630)" style="stroke:#000000; stroke-linecap:butt; stroke-linejoin:round; stroke-width:4; stroke-opacity:1; fill:none" points="
  189.154,1694.96 208.052,1694.96 
  "/>
<polyline clip-path="url(#clip630)" style="stroke:#000000; stroke-linecap:butt; stroke-linejoin:round; stroke-width:4; stroke-opacity:1; fill:none" points="
  189.154,1309.48 208.052,1309.48 
  "/>
<polyline clip-path="url(#clip630)" style="stroke:#000000; stroke-linecap:butt; stroke-linejoin:round; stroke-width:4; stroke-opacity:1; fill:none" points="
  189.154,924.012 208.052,924.012 
  "/>
<polyline clip-path="url(#clip630)" style="stroke:#000000; stroke-linecap:butt; stroke-linejoin:round; stroke-width:4; stroke-opacity:1; fill:none" points="
  189.154,538.54 208.052,538.54 
  "/>
<polyline clip-path="url(#clip630)" style="stroke:#000000; stroke-linecap:butt; stroke-linejoin:round; stroke-width:4; stroke-opacity:1; fill:none" points="
  189.154,153.068 208.052,153.068 
  "/>
<path clip-path="url(#clip630)" d="M42.8855 1695.41 L72.5613 1695.41 L72.5613 1699.34 L42.8855 1699.34 L42.8855 1695.41 Z" fill="#000000" fill-rule="evenodd" fill-opacity="1" /><path clip-path="url(#clip630)" d="M92.6537 1680.75 Q89.0427 1680.75 87.214 1684.32 Q85.4084 1687.86 85.4084 1694.99 Q85.4084 1702.1 87.214 1705.66 Q89.0427 1709.2 92.6537 1709.2 Q96.288 1709.2 98.0935 1705.66 Q99.9222 1702.1 99.9222 1694.99 Q99.9222 1687.86 98.0935 1684.32 Q96.288 1680.75 92.6537 1680.75 M92.6537 1677.05 Q98.4639 1677.05 101.519 1681.66 Q104.598 1686.24 104.598 1694.99 Q104.598 1703.72 101.519 1708.32 Q98.4639 1712.91 92.6537 1712.91 Q86.8436 1712.91 83.7649 1708.32 Q80.7094 1703.72 80.7094 1694.99 Q80.7094 1686.24 83.7649 1681.66 Q86.8436 1677.05 92.6537 1677.05 Z" fill="#000000" fill-rule="evenodd" fill-opacity="1" /><path clip-path="url(#clip630)" d="M112.816 1706.36 L117.7 1706.36 L117.7 1712.24 L112.816 1712.24 L112.816 1706.36 Z" fill="#000000" fill-rule="evenodd" fill-opacity="1" /><path clip-path="url(#clip630)" d="M127.931 1677.68 L146.288 1677.68 L146.288 1681.61 L132.214 1681.61 L132.214 1690.08 Q133.232 1689.74 134.251 1689.57 Q135.269 1689.39 136.288 1689.39 Q142.075 1689.39 145.454 1692.56 Q148.834 1695.73 148.834 1701.15 Q148.834 1706.73 145.362 1709.83 Q141.89 1712.91 135.57 1712.91 Q133.394 1712.91 131.126 1712.54 Q128.88 1712.17 126.473 1711.43 L126.473 1706.73 Q128.556 1707.86 130.779 1708.42 Q133.001 1708.97 135.478 1708.97 Q139.482 1708.97 141.82 1706.87 Q144.158 1704.76 144.158 1701.15 Q144.158 1697.54 141.82 1695.43 Q139.482 1693.32 135.478 1693.32 Q133.603 1693.32 131.728 1693.74 Q129.876 1694.16 127.931 1695.04 L127.931 1677.68 Z" fill="#000000" fill-rule="evenodd" fill-opacity="1" /><path clip-path="url(#clip630)" d="M91.6584 1295.28 Q88.0473 1295.28 86.2186 1298.85 Q84.4131 1302.39 84.4131 1309.52 Q84.4131 1316.62 86.2186 1320.19 Q88.0473 1323.73 91.6584 1323.73 Q95.2926 1323.73 97.0982 1320.19 Q98.9269 1316.62 98.9269 1309.52 Q98.9269 1302.39 97.0982 1298.85 Q95.2926 1295.28 91.6584 1295.28 M91.6584 1291.58 Q97.4685 1291.58 100.524 1296.19 Q103.603 1300.77 103.603 1309.52 Q103.603 1318.25 100.524 1322.85 Q97.4685 1327.43 91.6584 1327.43 Q85.8482 1327.43 82.7695 1322.85 Q79.714 1318.25 79.714 1309.52 Q79.714 1300.77 82.7695 1296.19 Q85.8482 1291.58 91.6584 1291.58 Z" fill="#000000" fill-rule="evenodd" fill-opacity="1" /><path clip-path="url(#clip630)" d="M111.82 1320.88 L116.705 1320.88 L116.705 1326.76 L111.82 1326.76 L111.82 1320.88 Z" fill="#000000" fill-rule="evenodd" fill-opacity="1" /><path clip-path="url(#clip630)" d="M136.89 1295.28 Q133.279 1295.28 131.45 1298.85 Q129.644 1302.39 129.644 1309.52 Q129.644 1316.62 131.45 1320.19 Q133.279 1323.73 136.89 1323.73 Q140.524 1323.73 142.329 1320.19 Q144.158 1316.62 144.158 1309.52 Q144.158 1302.39 142.329 1298.85 Q140.524 1295.28 136.89 1295.28 M136.89 1291.58 Q142.7 1291.58 145.755 1296.19 Q148.834 1300.77 148.834 1309.52 Q148.834 1318.25 145.755 1322.85 Q142.7 1327.43 136.89 1327.43 Q131.079 1327.43 128.001 1322.85 Q124.945 1318.25 124.945 1309.52 Q124.945 1300.77 128.001 1296.19 Q131.079 1291.58 136.89 1291.58 Z" fill="#000000" fill-rule="evenodd" fill-opacity="1" /><path clip-path="url(#clip630)" d="M92.6537 909.81 Q89.0427 909.81 87.214 913.375 Q85.4084 916.917 85.4084 924.046 Q85.4084 931.153 87.214 934.718 Q89.0427 938.259 92.6537 938.259 Q96.288 938.259 98.0935 934.718 Q99.9222 931.153 99.9222 924.046 Q99.9222 916.917 98.0935 913.375 Q96.288 909.81 92.6537 909.81 M92.6537 906.107 Q98.4639 906.107 101.519 910.713 Q104.598 915.296 104.598 924.046 Q104.598 932.773 101.519 937.38 Q98.4639 941.963 92.6537 941.963 Q86.8436 941.963 83.7649 937.38 Q80.7094 932.773 80.7094 924.046 Q80.7094 915.296 83.7649 910.713 Q86.8436 906.107 92.6537 906.107 Z" fill="#000000" fill-rule="evenodd" fill-opacity="1" /><path clip-path="url(#clip630)" d="M112.816 935.412 L117.7 935.412 L117.7 941.292 L112.816 941.292 L112.816 935.412 Z" fill="#000000" fill-rule="evenodd" fill-opacity="1" /><path clip-path="url(#clip630)" d="M127.931 906.732 L146.288 906.732 L146.288 910.667 L132.214 910.667 L132.214 919.139 Q133.232 918.792 134.251 918.63 Q135.269 918.445 136.288 918.445 Q142.075 918.445 145.454 921.616 Q148.834 924.787 148.834 930.204 Q148.834 935.782 145.362 938.884 Q141.89 941.963 135.57 941.963 Q133.394 941.963 131.126 941.593 Q128.88 941.222 126.473 940.482 L126.473 935.782 Q128.556 936.917 130.779 937.472 Q133.001 938.028 135.478 938.028 Q139.482 938.028 141.82 935.921 Q144.158 933.815 144.158 930.204 Q144.158 926.593 141.82 924.486 Q139.482 922.38 135.478 922.38 Q133.603 922.38 131.728 922.796 Q129.876 923.213 127.931 924.093 L127.931 906.732 Z" fill="#000000" fill-rule="evenodd" fill-opacity="1" /><path clip-path="url(#clip630)" d="M82.4686 551.885 L90.1075 551.885 L90.1075 525.519 L81.7973 527.186 L81.7973 522.926 L90.0612 521.26 L94.7371 521.26 L94.7371 551.885 L102.376 551.885 L102.376 555.82 L82.4686 555.82 L82.4686 551.885 Z" fill="#000000" fill-rule="evenodd" fill-opacity="1" /><path clip-path="url(#clip630)" d="M111.82 549.94 L116.705 549.94 L116.705 555.82 L111.82 555.82 L111.82 549.94 Z" fill="#000000" fill-rule="evenodd" fill-opacity="1" /><path clip-path="url(#clip630)" d="M136.89 524.338 Q133.279 524.338 131.45 527.903 Q129.644 531.445 129.644 538.574 Q129.644 545.681 131.45 549.246 Q133.279 552.787 136.89 552.787 Q140.524 552.787 142.329 549.246 Q144.158 545.681 144.158 538.574 Q144.158 531.445 142.329 527.903 Q140.524 524.338 136.89 524.338 M136.89 520.635 Q142.7 520.635 145.755 525.241 Q148.834 529.824 148.834 538.574 Q148.834 547.301 145.755 551.908 Q142.7 556.491 136.89 556.491 Q131.079 556.491 128.001 551.908 Q124.945 547.301 124.945 538.574 Q124.945 529.824 128.001 525.241 Q131.079 520.635 136.89 520.635 Z" fill="#000000" fill-rule="evenodd" fill-opacity="1" /><path clip-path="url(#clip630)" d="M83.464 166.413 L91.1028 166.413 L91.1028 140.047 L82.7927 141.714 L82.7927 137.454 L91.0565 135.788 L95.7324 135.788 L95.7324 166.413 L103.371 166.413 L103.371 170.348 L83.464 170.348 L83.464 166.413 Z" fill="#000000" fill-rule="evenodd" fill-opacity="1" /><path clip-path="url(#clip630)" d="M112.816 164.468 L117.7 164.468 L117.7 170.348 L112.816 170.348 L112.816 164.468 Z" fill="#000000" fill-rule="evenodd" fill-opacity="1" /><path clip-path="url(#clip630)" d="M127.931 135.788 L146.288 135.788 L146.288 139.723 L132.214 139.723 L132.214 148.195 Q133.232 147.848 134.251 147.686 Q135.269 147.501 136.288 147.501 Q142.075 147.501 145.454 150.672 Q148.834 153.843 148.834 159.26 Q148.834 164.838 145.362 167.94 Q141.89 171.019 135.57 171.019 Q133.394 171.019 131.126 170.649 Q128.88 170.278 126.473 169.538 L126.473 164.838 Q128.556 165.973 130.779 166.528 Q133.001 167.084 135.478 167.084 Q139.482 167.084 141.82 164.977 Q144.158 162.871 144.158 159.26 Q144.158 155.649 141.82 153.542 Q139.482 151.436 135.478 151.436 Q133.603 151.436 131.728 151.852 Q129.876 152.269 127.931 153.149 L127.931 135.788 Z" fill="#000000" fill-rule="evenodd" fill-opacity="1" /><polyline clip-path="url(#clip632)" style="stroke:#009af9; stroke-linecap:butt; stroke-linejoin:round; stroke-width:4; stroke-opacity:1; fill:none" points="
  258.539,1309.48 2571.37,1309.48 
  "/>
<polyline clip-path="url(#clip632)" style="stroke:#009af9; stroke-linecap:butt; stroke-linejoin:round; stroke-width:4; stroke-opacity:1; fill:none" points="
  2531.05,1289.32 2571.37,1309.48 2531.05,1329.64 
  "/>
<polyline clip-path="url(#clip632)" style="stroke:#009af9; stroke-linecap:butt; stroke-linejoin:round; stroke-width:4; stroke-opacity:1; fill:none" points="
  2571.37,1309.48 258.539,1309.48 
  "/>
<polyline clip-path="url(#clip632)" style="stroke:#e26f46; stroke-linecap:butt; stroke-linejoin:round; stroke-width:4; stroke-opacity:1; fill:none" points="
  258.539,1254.42 2571.37,1254.42 
  "/>
<polyline clip-path="url(#clip632)" style="stroke:#e26f46; stroke-linecap:butt; stroke-linejoin:round; stroke-width:4; stroke-opacity:1; fill:none" points="
  2531.05,1234.26 2571.37,1254.42 2531.05,1274.58 
  "/>
<polyline clip-path="url(#clip632)" style="stroke:#e26f46; stroke-linecap:butt; stroke-linejoin:round; stroke-width:4; stroke-opacity:1; fill:none" points="
  2571.37,1254.42 258.539,1254.42 
  "/>
<polyline clip-path="url(#clip632)" style="stroke:#3da44d; stroke-linecap:butt; stroke-linejoin:round; stroke-width:4; stroke-opacity:1; fill:none" points="
  258.539,1199.35 2571.37,1199.35 
  "/>
<polyline clip-path="url(#clip632)" style="stroke:#3da44d; stroke-linecap:butt; stroke-linejoin:round; stroke-width:4; stroke-opacity:1; fill:none" points="
  2531.05,1179.19 2571.37,1199.35 2531.05,1219.51 
  "/>
<polyline clip-path="url(#clip632)" style="stroke:#3da44d; stroke-linecap:butt; stroke-linejoin:round; stroke-width:4; stroke-opacity:1; fill:none" points="
  2571.37,1199.35 258.539,1199.35 
  "/>
<polyline clip-path="url(#clip632)" style="stroke:#c271d2; stroke-linecap:butt; stroke-linejoin:round; stroke-width:4; stroke-opacity:1; fill:none" points="
  258.539,1144.28 2571.37,1144.28 
  "/>
<polyline clip-path="url(#clip632)" style="stroke:#c271d2; stroke-linecap:butt; stroke-linejoin:round; stroke-width:4; stroke-opacity:1; fill:none" points="
  2531.05,1124.12 2571.37,1144.28 2531.05,1164.44 
  "/>
<polyline clip-path="url(#clip632)" style="stroke:#c271d2; stroke-linecap:butt; stroke-linejoin:round; stroke-width:4; stroke-opacity:1; fill:none" points="
  2571.37,1144.28 258.539,1144.28 
  "/>
<polyline clip-path="url(#clip632)" style="stroke:#ac8d18; stroke-linecap:butt; stroke-linejoin:round; stroke-width:4; stroke-opacity:1; fill:none" points="
  258.539,1089.21 2571.37,1089.21 
  "/>
<polyline clip-path="url(#clip632)" style="stroke:#ac8d18; stroke-linecap:butt; stroke-linejoin:round; stroke-width:4; stroke-opacity:1; fill:none" points="
  2531.05,1069.05 2571.37,1089.21 2531.05,1109.37 
  "/>
<polyline clip-path="url(#clip632)" style="stroke:#ac8d18; stroke-linecap:butt; stroke-linejoin:round; stroke-width:4; stroke-opacity:1; fill:none" points="
  2571.37,1089.21 258.539,1089.21 
  "/>
<polyline clip-path="url(#clip632)" style="stroke:#00a9ad; stroke-linecap:butt; stroke-linejoin:round; stroke-width:4; stroke-opacity:1; fill:none" points="
  258.539,1034.15 2571.37,1034.15 
  "/>
<polyline clip-path="url(#clip632)" style="stroke:#00a9ad; stroke-linecap:butt; stroke-linejoin:round; stroke-width:4; stroke-opacity:1; fill:none" points="
  2531.05,1013.99 2571.37,1034.15 2531.05,1054.31 
  "/>
<polyline clip-path="url(#clip632)" style="stroke:#00a9ad; stroke-linecap:butt; stroke-linejoin:round; stroke-width:4; stroke-opacity:1; fill:none" points="
  2571.37,1034.15 258.539,1034.15 
  "/>
<polyline clip-path="url(#clip632)" style="stroke:#ed5d92; stroke-linecap:butt; stroke-linejoin:round; stroke-width:4; stroke-opacity:1; fill:none" points="
  258.539,979.079 2571.37,979.079 
  "/>
<polyline clip-path="url(#clip632)" style="stroke:#ed5d92; stroke-linecap:butt; stroke-linejoin:round; stroke-width:4; stroke-opacity:1; fill:none" points="
  2531.05,958.919 2571.37,979.079 2531.05,999.239 
  "/>
<polyline clip-path="url(#clip632)" style="stroke:#ed5d92; stroke-linecap:butt; stroke-linejoin:round; stroke-width:4; stroke-opacity:1; fill:none" points="
  2571.37,979.079 258.539,979.079 
  "/>
<polyline clip-path="url(#clip632)" style="stroke:#c68125; stroke-linecap:butt; stroke-linejoin:round; stroke-width:4; stroke-opacity:1; fill:none" points="
  258.539,924.012 2571.37,924.012 
  "/>
<polyline clip-path="url(#clip632)" style="stroke:#c68125; stroke-linecap:butt; stroke-linejoin:round; stroke-width:4; stroke-opacity:1; fill:none" points="
  2531.05,903.852 2571.37,924.012 2531.05,944.172 
  "/>
<polyline clip-path="url(#clip632)" style="stroke:#c68125; stroke-linecap:butt; stroke-linejoin:round; stroke-width:4; stroke-opacity:1; fill:none" points="
  2571.37,924.012 258.539,924.012 
  "/>
<polyline clip-path="url(#clip632)" style="stroke:#00a98d; stroke-linecap:butt; stroke-linejoin:round; stroke-width:4; stroke-opacity:1; fill:none" points="
  258.539,868.944 2571.37,868.944 
  "/>
<polyline clip-path="url(#clip632)" style="stroke:#00a98d; stroke-linecap:butt; stroke-linejoin:round; stroke-width:4; stroke-opacity:1; fill:none" points="
  2531.05,848.784 2571.37,868.944 2531.05,889.104 
  "/>
<polyline clip-path="url(#clip632)" style="stroke:#00a98d; stroke-linecap:butt; stroke-linejoin:round; stroke-width:4; stroke-opacity:1; fill:none" points="
  2571.37,868.944 258.539,868.944 
  "/>
<polyline clip-path="url(#clip632)" style="stroke:#8e971d; stroke-linecap:butt; stroke-linejoin:round; stroke-width:4; stroke-opacity:1; fill:none" points="
  258.539,813.877 2571.37,813.877 
  "/>
<polyline clip-path="url(#clip632)" style="stroke:#8e971d; stroke-linecap:butt; stroke-linejoin:round; stroke-width:4; stroke-opacity:1; fill:none" points="
  2531.05,793.717 2571.37,813.877 2531.05,834.037 
  "/>
<polyline clip-path="url(#clip632)" style="stroke:#8e971d; stroke-linecap:butt; stroke-linejoin:round; stroke-width:4; stroke-opacity:1; fill:none" points="
  2571.37,813.877 258.539,813.877 
  "/>
<polyline clip-path="url(#clip632)" style="stroke:#00a8cb; stroke-linecap:butt; stroke-linejoin:round; stroke-width:4; stroke-opacity:1; fill:none" points="
  258.539,758.809 2571.37,758.809 
  "/>
<polyline clip-path="url(#clip632)" style="stroke:#00a8cb; stroke-linecap:butt; stroke-linejoin:round; stroke-width:4; stroke-opacity:1; fill:none" points="
  2531.05,738.649 2571.37,758.809 2531.05,778.969 
  "/>
<polyline clip-path="url(#clip632)" style="stroke:#00a8cb; stroke-linecap:butt; stroke-linejoin:round; stroke-width:4; stroke-opacity:1; fill:none" points="
  2571.37,758.809 258.539,758.809 
  "/>
<polyline clip-path="url(#clip632)" style="stroke:#9b7fe8; stroke-linecap:butt; stroke-linejoin:round; stroke-width:4; stroke-opacity:1; fill:none" points="
  258.539,703.742 2571.37,703.742 
  "/>
<polyline clip-path="url(#clip632)" style="stroke:#9b7fe8; stroke-linecap:butt; stroke-linejoin:round; stroke-width:4; stroke-opacity:1; fill:none" points="
  2531.05,683.582 2571.37,703.742 2531.05,723.902 
  "/>
<polyline clip-path="url(#clip632)" style="stroke:#9b7fe8; stroke-linecap:butt; stroke-linejoin:round; stroke-width:4; stroke-opacity:1; fill:none" points="
  2571.37,703.742 258.539,703.742 
  "/>
<polyline clip-path="url(#clip632)" style="stroke:#608cf6; stroke-linecap:butt; stroke-linejoin:round; stroke-width:4; stroke-opacity:1; fill:none" points="
  258.539,648.675 2571.37,648.675 
  "/>
<polyline clip-path="url(#clip632)" style="stroke:#608cf6; stroke-linecap:butt; stroke-linejoin:round; stroke-width:4; stroke-opacity:1; fill:none" points="
  2531.05,628.515 2571.37,648.675 2531.05,668.835 
  "/>
<polyline clip-path="url(#clip632)" style="stroke:#608cf6; stroke-linecap:butt; stroke-linejoin:round; stroke-width:4; stroke-opacity:1; fill:none" points="
  2571.37,648.675 258.539,648.675 
  "/>
<polyline clip-path="url(#clip632)" style="stroke:#f05f73; stroke-linecap:butt; stroke-linejoin:round; stroke-width:4; stroke-opacity:1; fill:none" points="
  258.539,593.607 2571.37,593.607 
  "/>
<polyline clip-path="url(#clip632)" style="stroke:#f05f73; stroke-linecap:butt; stroke-linejoin:round; stroke-width:4; stroke-opacity:1; fill:none" points="
  2531.05,573.447 2571.37,593.607 2531.05,613.767 
  "/>
<polyline clip-path="url(#clip632)" style="stroke:#f05f73; stroke-linecap:butt; stroke-linejoin:round; stroke-width:4; stroke-opacity:1; fill:none" points="
  2571.37,593.607 258.539,593.607 
  "/>
<polyline clip-path="url(#clip632)" style="stroke:#dd64b5; stroke-linecap:butt; stroke-linejoin:round; stroke-width:4; stroke-opacity:1; fill:none" points="
  258.539,538.54 2571.37,538.54 
  "/>
<polyline clip-path="url(#clip632)" style="stroke:#dd64b5; stroke-linecap:butt; stroke-linejoin:round; stroke-width:4; stroke-opacity:1; fill:none" points="
  2531.05,518.38 2571.37,538.54 2531.05,558.7 
  "/>
<polyline clip-path="url(#clip632)" style="stroke:#dd64b5; stroke-linecap:butt; stroke-linejoin:round; stroke-width:4; stroke-opacity:1; fill:none" points="
  2571.37,538.54 258.539,538.54 
  "/>
<polyline clip-path="url(#clip632)" style="stroke:#6b9e32; stroke-linecap:butt; stroke-linejoin:round; stroke-width:12; stroke-opacity:1; fill:none" points="
  1800.43,846.917 1800.43,615.634 
  "/>
<polyline clip-path="url(#clip632)" style="stroke:#009af9; stroke-linecap:butt; stroke-linejoin:round; stroke-width:12; stroke-opacity:1; fill:none" points="
  1800.43,731.276 2185.9,731.276 
  "/>
<polyline clip-path="url(#clip632)" style="stroke:#009af9; stroke-linecap:butt; stroke-linejoin:round; stroke-width:12; stroke-opacity:1; fill:none" points="
  2145.58,711.116 2185.9,731.276 2145.58,751.436 
  "/>
<polyline clip-path="url(#clip632)" style="stroke:#009af9; stroke-linecap:butt; stroke-linejoin:round; stroke-width:12; stroke-opacity:1; fill:none" points="
  2185.9,731.276 1800.43,731.276 
  "/>
<polyline clip-path="url(#clip632)" style="stroke:#e26f46; stroke-linecap:butt; stroke-linejoin:round; stroke-width:12; stroke-opacity:1; fill:none" points="
  1742.61,1216.9 1858.25,1016.6 
  "/>
<polyline clip-path="url(#clip632)" style="stroke:#3da44d; stroke-linecap:butt; stroke-linejoin:round; stroke-width:12; stroke-opacity:1; fill:none" points="
  1800.43,1116.75 2134.26,1309.48 
  "/>
<polyline clip-path="url(#clip632)" style="stroke:#3da44d; stroke-linecap:butt; stroke-linejoin:round; stroke-width:12; stroke-opacity:1; fill:none" points="
  2109.42,1271.86 2134.26,1309.48 2089.26,1306.78 
  "/>
<polyline clip-path="url(#clip632)" style="stroke:#3da44d; stroke-linecap:butt; stroke-linejoin:round; stroke-width:12; stroke-opacity:1; fill:none" points="
  2134.26,1309.48 1800.43,1116.75 
  "/>
</svg>
