<?xml version="1.0" encoding="utf-8"?>
<svg xmlns="http://www.w3.org/2000/svg" xmlns:xlink="http://www.w3.org/1999/xlink" width="672" height="480" viewBox="0 0 2688 1920">
<defs>
  <clipPath id="clip450">
    <rect x="0" y="0" width="2688" height="1920"/>
  </clipPath>
</defs>
<path clip-path="url(#clip450)" d="
M0 1920 L2688 1920 L2688 0 L0 0  Z
  " fill="#ffffff" fill-rule="evenodd" fill-opacity="1"/>
<defs>
  <clipPath id="clip451">
    <rect x="537" y="0" width="1883" height="1883"/>
  </clipPath>
</defs>
<path clip-path="url(#clip450)" d="
M150.937 1800.78 L2640.76 1800.78 L2640.76 47.2441 L150.937 47.2441  Z
  " fill="#ffffff" fill-rule="evenodd" fill-opacity="1"/>
<defs>
  <clipPath id="clip452">
    <rect x="150" y="47" width="2491" height="1755"/>
  </clipPath>
</defs>
<polyline clip-path="url(#clip452)" style="stroke:#000000; stroke-linecap:round; stroke-linejoin:round; stroke-width:2; stroke-opacity:0.1; fill:none" points="
  221.255,1800.78 221.255,47.2441 
  "/>
<polyline clip-path="url(#clip452)" style="stroke:#000000; stroke-linecap:round; stroke-linejoin:round; stroke-width:2; stroke-opacity:0.1; fill:none" points="
  808.551,1800.78 808.551,47.2441 
  "/>
<polyline clip-path="url(#clip452)" style="stroke:#000000; stroke-linecap:round; stroke-linejoin:round; stroke-width:2; stroke-opacity:0.1; fill:none" points="
  1395.85,1800.78 1395.85,47.2441 
  "/>
<polyline clip-path="url(#clip452)" style="stroke:#000000; stroke-linecap:round; stroke-linejoin:round; stroke-width:2; stroke-opacity:0.1; fill:none" points="
  1983.14,1800.78 1983.14,47.2441 
  "/>
<polyline clip-path="url(#clip452)" style="stroke:#000000; stroke-linecap:round; stroke-linejoin:round; stroke-width:2; stroke-opacity:0.1; fill:none" points="
  2570.44,1800.78 2570.44,47.2441 
  "/>
<polyline clip-path="url(#clip450)" style="stroke:#000000; stroke-linecap:round; stroke-linejoin:round; stroke-width:4; stroke-opacity:1; fill:none" points="
  150.937,1800.78 2640.76,1800.78 
  "/>
<polyline clip-path="url(#clip450)" style="stroke:#000000; stroke-linecap:round; stroke-linejoin:round; stroke-width:4; stroke-opacity:1; fill:none" points="
  221.255,1800.78 221.255,1781.88 
  "/>
<polyline clip-path="url(#clip450)" style="stroke:#000000; stroke-linecap:round; stroke-linejoin:round; stroke-width:4; stroke-opacity:1; fill:none" points="
  808.551,1800.78 808.551,1781.88 
  "/>
<polyline clip-path="url(#clip450)" style="stroke:#000000; stroke-linecap:round; stroke-linejoin:round; stroke-width:4; stroke-opacity:1; fill:none" points="
  1395.85,1800.78 1395.85,1781.88 
  "/>
<polyline clip-path="url(#clip450)" style="stroke:#000000; stroke-linecap:round; stroke-linejoin:round; stroke-width:4; stroke-opacity:1; fill:none" points="
  1983.14,1800.78 1983.14,1781.88 
  "/>
<polyline clip-path="url(#clip450)" style="stroke:#000000; stroke-linecap:round; stroke-linejoin:round; stroke-width:4; stroke-opacity:1; fill:none" points="
  2570.44,1800.78 2570.44,1781.88 
  "/>
<path clip-path="url(#clip450)" d="M167.783 1848.65 L197.459 1848.65 L197.459 1852.59 L167.783 1852.59 L167.783 1848.65 Z" fill="#000000" fill-rule="evenodd" fill-opacity="1" /><path clip-path="url(#clip450)" d="M208.362 1861.55 L216.001 1861.55 L216.001 1835.18 L207.691 1836.85 L207.691 1832.59 L215.954 1830.92 L220.63 1830.92 L220.63 1861.55 L228.269 1861.55 L228.269 1865.48 L208.362 1865.48 L208.362 1861.55 Z" fill="#000000" fill-rule="evenodd" fill-opacity="1" /><path clip-path="url(#clip450)" d="M237.714 1859.6 L242.598 1859.6 L242.598 1865.48 L237.714 1865.48 L237.714 1859.6 Z" fill="#000000" fill-rule="evenodd" fill-opacity="1" /><path clip-path="url(#clip450)" d="M262.783 1834 Q259.172 1834 257.343 1837.57 Q255.538 1841.11 255.538 1848.24 Q255.538 1855.34 257.343 1858.91 Q259.172 1862.45 262.783 1862.45 Q266.417 1862.45 268.223 1858.91 Q270.051 1855.34 270.051 1848.24 Q270.051 1841.11 268.223 1837.57 Q266.417 1834 262.783 1834 M262.783 1830.3 Q268.593 1830.3 271.649 1834.9 Q274.727 1839.49 274.727 1848.24 Q274.727 1856.96 271.649 1861.57 Q268.593 1866.15 262.783 1866.15 Q256.973 1866.15 253.894 1861.57 Q250.839 1856.96 250.839 1848.24 Q250.839 1839.49 253.894 1834.9 Q256.973 1830.3 262.783 1830.3 Z" fill="#000000" fill-rule="evenodd" fill-opacity="1" /><path clip-path="url(#clip450)" d="M755.577 1848.65 L785.252 1848.65 L785.252 1852.59 L755.577 1852.59 L755.577 1848.65 Z" fill="#000000" fill-rule="evenodd" fill-opacity="1" /><path clip-path="url(#clip450)" d="M805.345 1834 Q801.734 1834 799.905 1837.57 Q798.099 1841.11 798.099 1848.24 Q798.099 1855.34 799.905 1858.91 Q801.734 1862.45 805.345 1862.45 Q808.979 1862.45 810.785 1858.91 Q812.613 1855.34 812.613 1848.24 Q812.613 1841.11 810.785 1837.57 Q808.979 1834 805.345 1834 M805.345 1830.3 Q811.155 1830.3 814.21 1834.9 Q817.289 1839.49 817.289 1848.24 Q817.289 1856.96 814.21 1861.57 Q811.155 1866.15 805.345 1866.15 Q799.535 1866.15 796.456 1861.57 Q793.4 1856.96 793.4 1848.24 Q793.4 1839.49 796.456 1834.9 Q799.535 1830.3 805.345 1830.3 Z" fill="#000000" fill-rule="evenodd" fill-opacity="1" /><path clip-path="url(#clip450)" d="M825.507 1859.6 L830.391 1859.6 L830.391 1865.48 L825.507 1865.48 L825.507 1859.6 Z" fill="#000000" fill-rule="evenodd" fill-opacity="1" /><path clip-path="url(#clip450)" d="M840.622 1830.92 L858.979 1830.92 L858.979 1834.86 L844.905 1834.86 L844.905 1843.33 Q845.923 1842.98 846.942 1842.82 Q847.96 1842.64 848.979 1842.64 Q854.766 1842.64 858.145 1845.81 Q861.525 1848.98 861.525 1854.4 Q861.525 1859.97 858.053 1863.08 Q854.581 1866.15 848.261 1866.15 Q846.085 1866.15 843.817 1865.78 Q841.571 1865.41 839.164 1864.67 L839.164 1859.97 Q841.247 1861.11 843.47 1861.66 Q845.692 1862.22 848.169 1862.22 Q852.173 1862.22 854.511 1860.11 Q856.849 1858.01 856.849 1854.4 Q856.849 1850.78 854.511 1848.68 Q852.173 1846.57 848.169 1846.57 Q846.294 1846.57 844.419 1846.99 Q842.567 1847.4 840.622 1848.28 L840.622 1830.92 Z" fill="#000000" fill-rule="evenodd" fill-opacity="1" /><path clip-path="url(#clip450)" d="M1373.23 1834 Q1369.62 1834 1367.79 1837.57 Q1365.99 1841.11 1365.99 1848.24 Q1365.99 1855.34 1367.79 1858.91 Q1369.62 1862.45 1373.23 1862.45 Q1376.86 1862.45 1378.67 1858.91 Q1380.5 1855.34 1380.5 1848.24 Q1380.5 1841.11 1378.67 1837.57 Q1376.86 1834 1373.23 1834 M1373.23 1830.3 Q1379.04 1830.3 1382.1 1834.9 Q1385.18 1839.49 1385.18 1848.24 Q1385.18 1856.96 1382.1 1861.57 Q1379.04 1866.15 1373.23 1866.15 Q1367.42 1866.15 1364.34 1861.57 Q1361.29 1856.96 1361.29 1848.24 Q1361.29 1839.49 1364.34 1834.9 Q1367.42 1830.3 1373.23 1830.3 Z" fill="#000000" fill-rule="evenodd" fill-opacity="1" /><path clip-path="url(#clip450)" d="M1393.39 1859.6 L1398.28 1859.6 L1398.28 1865.48 L1393.39 1865.48 L1393.39 1859.6 Z" fill="#000000" fill-rule="evenodd" fill-opacity="1" /><path clip-path="url(#clip450)" d="M1418.46 1834 Q1414.85 1834 1413.02 1837.57 Q1411.22 1841.11 1411.22 1848.24 Q1411.22 1855.34 1413.02 1858.91 Q1414.85 1862.45 1418.46 1862.45 Q1422.1 1862.45 1423.9 1858.91 Q1425.73 1855.34 1425.73 1848.24 Q1425.73 1841.11 1423.9 1837.57 Q1422.1 1834 1418.46 1834 M1418.46 1830.3 Q1424.27 1830.3 1427.33 1834.9 Q1430.41 1839.49 1430.41 1848.24 Q1430.41 1856.96 1427.33 1861.57 Q1424.27 1866.15 1418.46 1866.15 Q1412.65 1866.15 1409.57 1861.57 Q1406.52 1856.96 1406.52 1848.24 Q1406.52 1839.49 1409.57 1834.9 Q1412.65 1830.3 1418.46 1830.3 Z" fill="#000000" fill-rule="evenodd" fill-opacity="1" /><path clip-path="url(#clip450)" d="M1961.02 1834 Q1957.41 1834 1955.58 1837.57 Q1953.78 1841.11 1953.78 1848.24 Q1953.78 1855.34 1955.58 1858.91 Q1957.41 1862.45 1961.02 1862.45 Q1964.66 1862.45 1966.46 1858.91 Q1968.29 1855.34 1968.29 1848.24 Q1968.29 1841.11 1966.46 1837.57 Q1964.66 1834 1961.02 1834 M1961.02 1830.3 Q1966.83 1830.3 1969.89 1834.9 Q1972.97 1839.49 1972.97 1848.24 Q1972.97 1856.96 1969.89 1861.57 Q1966.83 1866.15 1961.02 1866.15 Q1955.21 1866.15 1952.13 1861.57 Q1949.08 1856.96 1949.08 1848.24 Q1949.08 1839.49 1952.13 1834.9 Q1955.21 1830.3 1961.02 1830.3 Z" fill="#000000" fill-rule="evenodd" fill-opacity="1" /><path clip-path="url(#clip450)" d="M1981.19 1859.6 L1986.07 1859.6 L1986.07 1865.48 L1981.19 1865.48 L1981.19 1859.6 Z" fill="#000000" fill-rule="evenodd" fill-opacity="1" /><path clip-path="url(#clip450)" d="M1996.3 1830.92 L2014.66 1830.92 L2014.66 1834.86 L2000.58 1834.86 L2000.58 1843.33 Q2001.6 1842.98 2002.62 1842.82 Q2003.64 1842.64 2004.66 1842.64 Q2010.44 1842.64 2013.82 1845.81 Q2017.2 1848.98 2017.2 1854.4 Q2017.2 1859.97 2013.73 1863.08 Q2010.26 1866.15 2003.94 1866.15 Q2001.76 1866.15 1999.5 1865.78 Q1997.25 1865.41 1994.84 1864.67 L1994.84 1859.97 Q1996.93 1861.11 1999.15 1861.66 Q2001.37 1862.22 2003.85 1862.22 Q2007.85 1862.22 2010.19 1860.11 Q2012.53 1858.01 2012.53 1854.4 Q2012.53 1850.78 2010.19 1848.68 Q2007.85 1846.57 2003.85 1846.57 Q2001.97 1846.57 2000.1 1846.99 Q1998.25 1847.4 1996.3 1848.28 L1996.3 1830.92 Z" fill="#000000" fill-rule="evenodd" fill-opacity="1" /><path clip-path="url(#clip450)" d="M2537.59 1861.55 L2545.23 1861.55 L2545.23 1835.18 L2536.92 1836.85 L2536.92 1832.59 L2545.18 1830.92 L2549.86 1830.92 L2549.86 1861.55 L2557.5 1861.55 L2557.5 1865.48 L2537.59 1865.48 L2537.59 1861.55 Z" fill="#000000" fill-rule="evenodd" fill-opacity="1" /><path clip-path="url(#clip450)" d="M2566.94 1859.6 L2571.83 1859.6 L2571.83 1865.48 L2566.94 1865.48 L2566.94 1859.6 Z" fill="#000000" fill-rule="evenodd" fill-opacity="1" /><path clip-path="url(#clip450)" d="M2592.01 1834 Q2588.4 1834 2586.57 1837.57 Q2584.77 1841.11 2584.77 1848.24 Q2584.77 1855.34 2586.57 1858.91 Q2588.4 1862.45 2592.01 1862.45 Q2595.65 1862.45 2597.45 1858.91 Q2599.28 1855.34 2599.28 1848.24 Q2599.28 1841.11 2597.45 1837.57 Q2595.65 1834 2592.01 1834 M2592.01 1830.3 Q2597.82 1830.3 2600.88 1834.9 Q2603.96 1839.49 2603.96 1848.24 Q2603.96 1856.96 2600.88 1861.57 Q2597.82 1866.15 2592.01 1866.15 Q2586.2 1866.15 2583.12 1861.57 Q2580.07 1856.96 2580.07 1848.24 Q2580.07 1839.49 2583.12 1834.9 Q2586.2 1830.3 2592.01 1830.3 Z" fill="#000000" fill-rule="evenodd" fill-opacity="1" /><polyline clip-path="url(#clip452)" style="stroke:#000000; stroke-linecap:round; stroke-linejoin:round; stroke-width:2; stroke-opacity:0.1; fill:none" points="
  150.937,1713.87 2640.76,1713.87 
  "/>
<polyline clip-path="url(#clip452)" style="stroke:#000000; stroke-linecap:round; stroke-linejoin:round; stroke-width:2; stroke-opacity:0.1; fill:none" points="
  150.937,1450.58 2640.76,1450.58 
  "/>
<polyline clip-path="url(#clip452)" style="stroke:#000000; stroke-linecap:round; stroke-linejoin:round; stroke-width:2; stroke-opacity:0.1; fill:none" points="
  150.937,1187.3 2640.76,1187.3 
  "/>
<polyline clip-path="url(#clip452)" style="stroke:#000000; stroke-linecap:round; stroke-linejoin:round; stroke-width:2; stroke-opacity:0.1; fill:none" points="
  150.937,924.012 2640.76,924.012 
  "/>
<polyline clip-path="url(#clip452)" style="stroke:#000000; stroke-linecap:round; stroke-linejoin:round; stroke-width:2; stroke-opacity:0.1; fill:none" points="
  150.937,660.725 2640.76,660.725 
  "/>
<polyline clip-path="url(#clip452)" style="stroke:#000000; stroke-linecap:round; stroke-linejoin:round; stroke-width:2; stroke-opacity:0.1; fill:none" points="
  150.937,397.438 2640.76,397.438 
  "/>
<polyline clip-path="url(#clip452)" style="stroke:#000000; stroke-linecap:round; stroke-linejoin:round; stroke-width:2; stroke-opacity:0.1; fill:none" points="
  150.937,134.152 2640.76,134.152 
  "/>
<polyline clip-path="url(#clip450)" style="stroke:#000000; stroke-linecap:round; stroke-linejoin:round; stroke-width:4; stroke-opacity:1; fill:none" points="
  150.937,1800.78 150.937,47.2441 
  "/>
<polyline clip-path="url(#clip450)" style="stroke:#000000; stroke-linecap:round; stroke-linejoin:round; stroke-width:4; stroke-opacity:1; fill:none" points="
  150.937,1713.87 169.834,1713.87 
  "/>
<polyline clip-path="url(#clip450)" style="stroke:#000000; stroke-linecap:round; stroke-linejoin:round; stroke-width:4; stroke-opacity:1; fill:none" points="
  150.937,1450.58 169.834,1450.58 
  "/>
<polyline clip-path="url(#clip450)" style="stroke:#000000; stroke-linecap:round; stroke-linejoin:round; stroke-width:4; stroke-opacity:1; fill:none" points="
  150.937,1187.3 169.834,1187.3 
  "/>
<polyline clip-path="url(#clip450)" style="stroke:#000000; stroke-linecap:round; stroke-linejoin:round; stroke-width:4; stroke-opacity:1; fill:none" points="
  150.937,924.012 169.834,924.012 
  "/>
<polyline clip-path="url(#clip450)" style="stroke:#000000; stroke-linecap:round; stroke-linejoin:round; stroke-width:4; stroke-opacity:1; fill:none" points="
  150.937,660.725 169.834,660.725 
  "/>
<polyline clip-path="url(#clip450)" style="stroke:#000000; stroke-linecap:round; stroke-linejoin:round; stroke-width:4; stroke-opacity:1; fill:none" points="
  150.937,397.438 169.834,397.438 
  "/>
<polyline clip-path="url(#clip450)" style="stroke:#000000; stroke-linecap:round; stroke-linejoin:round; stroke-width:4; stroke-opacity:1; fill:none" points="
  150.937,134.152 169.834,134.152 
  "/>
<path clip-path="url(#clip450)" d="M49.5521 1714.32 L79.2279 1714.32 L79.2279 1718.26 L49.5521 1718.26 L49.5521 1714.32 Z" fill="#000000" fill-rule="evenodd" fill-opacity="1" /><path clip-path="url(#clip450)" d="M103.487 1712.52 Q106.843 1713.23 108.718 1715.5 Q110.617 1717.77 110.617 1721.11 Q110.617 1726.22 107.098 1729.02 Q103.58 1731.82 97.0982 1731.82 Q94.9223 1731.82 92.6075 1731.38 Q90.3158 1730.97 87.8621 1730.11 L87.8621 1725.6 Q89.8065 1726.73 92.1213 1727.31 Q94.4361 1727.89 96.9593 1727.89 Q101.357 1727.89 103.649 1726.15 Q105.964 1724.42 105.964 1721.11 Q105.964 1718.05 103.811 1716.34 Q101.681 1714.6 97.8621 1714.6 L93.8343 1714.6 L93.8343 1710.76 L98.0472 1710.76 Q101.496 1710.76 103.325 1709.39 Q105.154 1708 105.154 1705.41 Q105.154 1702.75 103.256 1701.34 Q101.381 1699.9 97.8621 1699.9 Q95.9408 1699.9 93.7417 1700.32 Q91.5426 1700.73 88.9038 1701.61 L88.9038 1697.45 Q91.5658 1696.71 93.8806 1696.34 Q96.2185 1695.97 98.2787 1695.97 Q103.603 1695.97 106.705 1698.4 Q109.806 1700.8 109.806 1704.92 Q109.806 1707.8 108.163 1709.79 Q106.519 1711.75 103.487 1712.52 Z" fill="#000000" fill-rule="evenodd" fill-opacity="1" /><path clip-path="url(#clip450)" d="M50.5012 1451.04 L80.177 1451.04 L80.177 1454.97 L50.5012 1454.97 L50.5012 1451.04 Z" fill="#000000" fill-rule="evenodd" fill-opacity="1" /><path clip-path="url(#clip450)" d="M94.2973 1463.93 L110.617 1463.93 L110.617 1467.86 L88.6723 1467.86 L88.6723 1463.93 Q91.3343 1461.18 95.9176 1456.55 Q100.524 1451.89 101.705 1450.55 Q103.95 1448.03 104.83 1446.29 Q105.732 1444.53 105.732 1442.84 Q105.732 1440.09 103.788 1438.35 Q101.867 1436.62 98.7648 1436.62 Q96.5658 1436.62 94.1121 1437.38 Q91.6815 1438.14 88.9038 1439.69 L88.9038 1434.97 Q91.7278 1433.84 94.1815 1433.26 Q96.6352 1432.68 98.6722 1432.68 Q104.043 1432.68 107.237 1435.37 Q110.431 1438.05 110.431 1442.54 Q110.431 1444.67 109.621 1446.59 Q108.834 1448.49 106.728 1451.08 Q106.149 1451.75 103.047 1454.97 Q99.9454 1458.17 94.2973 1463.93 Z" fill="#000000" fill-rule="evenodd" fill-opacity="1" /><path clip-path="url(#clip450)" d="M50.1308 1187.75 L79.8066 1187.75 L79.8066 1191.68 L50.1308 1191.68 L50.1308 1187.75 Z" fill="#000000" fill-rule="evenodd" fill-opacity="1" /><path clip-path="url(#clip450)" d="M90.7093 1200.64 L98.3482 1200.64 L98.3482 1174.28 L90.038 1175.94 L90.038 1171.68 L98.3019 1170.02 L102.978 1170.02 L102.978 1200.64 L110.617 1200.64 L110.617 1204.58 L90.7093 1204.58 L90.7093 1200.64 Z" fill="#000000" fill-rule="evenodd" fill-opacity="1" /><path clip-path="url(#clip450)" d="M98.6722 909.81 Q95.0611 909.81 93.2324 913.375 Q91.4269 916.917 91.4269 924.046 Q91.4269 931.153 93.2324 934.718 Q95.0611 938.259 98.6722 938.259 Q102.306 938.259 104.112 934.718 Q105.941 931.153 105.941 924.046 Q105.941 916.917 104.112 913.375 Q102.306 909.81 98.6722 909.81 M98.6722 906.107 Q104.482 906.107 107.538 910.713 Q110.617 915.296 110.617 924.046 Q110.617 932.773 107.538 937.38 Q104.482 941.963 98.6722 941.963 Q92.8621 941.963 89.7834 937.38 Q86.7279 932.773 86.7279 924.046 Q86.7279 915.296 89.7834 910.713 Q92.8621 906.107 98.6722 906.107 Z" fill="#000000" fill-rule="evenodd" fill-opacity="1" /><path clip-path="url(#clip450)" d="M90.7093 674.07 L98.3482 674.07 L98.3482 647.704 L90.038 649.371 L90.038 645.112 L98.3019 643.445 L102.978 643.445 L102.978 674.07 L110.617 674.07 L110.617 678.005 L90.7093 678.005 L90.7093 674.07 Z" fill="#000000" fill-rule="evenodd" fill-opacity="1" /><path clip-path="url(#clip450)" d="M94.2973 410.783 L110.617 410.783 L110.617 414.718 L88.6723 414.718 L88.6723 410.783 Q91.3343 408.029 95.9176 403.399 Q100.524 398.746 101.705 397.404 Q103.95 394.881 104.83 393.145 Q105.732 391.385 105.732 389.695 Q105.732 386.941 103.788 385.205 Q101.867 383.469 98.7648 383.469 Q96.5658 383.469 94.1121 384.233 Q91.6815 384.996 88.9038 386.547 L88.9038 381.825 Q91.7278 380.691 94.1815 380.112 Q96.6352 379.534 98.6722 379.534 Q104.043 379.534 107.237 382.219 Q110.431 384.904 110.431 389.395 Q110.431 391.524 109.621 393.445 Q108.834 395.344 106.728 397.936 Q106.149 398.607 103.047 401.825 Q99.9454 405.019 94.2973 410.783 Z" fill="#000000" fill-rule="evenodd" fill-opacity="1" /><path clip-path="url(#clip450)" d="M103.487 132.798 Q106.843 133.515 108.718 135.784 Q110.617 138.052 110.617 141.386 Q110.617 146.501 107.098 149.302 Q103.58 152.103 97.0982 152.103 Q94.9223 152.103 92.6075 151.663 Q90.3158 151.247 87.8621 150.39 L87.8621 145.876 Q89.8065 147.011 92.1213 147.589 Q94.4361 148.168 96.9593 148.168 Q101.357 148.168 103.649 146.432 Q105.964 144.696 105.964 141.386 Q105.964 138.33 103.811 136.617 Q101.681 134.881 97.8621 134.881 L93.8343 134.881 L93.8343 131.038 L98.0472 131.038 Q101.496 131.038 103.325 129.673 Q105.154 128.284 105.154 125.691 Q105.154 123.029 103.256 121.617 Q101.381 120.182 97.8621 120.182 Q95.9408 120.182 93.7417 120.599 Q91.5426 121.015 88.9038 121.895 L88.9038 117.728 Q91.5658 116.988 93.8806 116.617 Q96.2185 116.247 98.2787 116.247 Q103.603 116.247 106.705 118.677 Q109.806 121.085 109.806 125.205 Q109.806 128.076 108.163 130.066 Q106.519 132.034 103.487 132.798 Z" fill="#000000" fill-rule="evenodd" fill-opacity="1" /><polyline clip-path="url(#clip452)" style="stroke:#009af9; stroke-linecap:round; stroke-linejoin:round; stroke-width:4; stroke-opacity:1; fill:none" points="
  1395.85,1751.15 1321.35,1734.44 1247.15,1717.73 1173.55,1701.02 1100.85,1684.31 1029.33,1667.6 959.295,1650.89 891.013,1634.18 824.764,1617.47 760.814,1600.76 
  699.422,1584.05 640.834,1567.34 585.286,1550.63 533.002,1533.92 484.192,1517.21 439.053,1500.5 397.766,1483.79 360.499,1467.08 327.401,1450.37 298.605,1433.66 
  274.227,1416.95 254.365,1400.24 239.1,1383.53 228.493,1366.82 222.586,1350.11 221.403,1333.4 224.95,1316.69 233.211,1299.98 246.154,1283.27 263.726,1266.56 
  285.857,1249.85 312.457,1233.14 343.42,1216.43 378.621,1199.72 417.917,1183.01 461.152,1166.31 508.15,1149.6 558.722,1132.89 612.665,1116.18 669.762,1099.47 
  729.783,1082.76 792.485,1066.05 857.618,1049.34 924.917,1032.63 994.113,1015.92 1064.93,999.206 1137.07,982.496 1210.26,965.786 1284.19,949.077 1358.58,932.367 
  1433.11,915.657 1507.5,898.947 1581.43,882.237 1654.62,865.527 1726.77,848.817 1797.58,832.107 1866.78,815.397 1934.07,798.688 1999.21,781.978 2061.91,765.268 
  2121.93,748.558 2179.03,731.848 2232.97,715.138 2283.54,698.428 2330.54,681.718 2373.78,665.008 2413.07,648.299 2448.27,631.589 2479.24,614.879 2505.84,598.169 
  2527.97,581.459 2545.54,564.749 2558.48,548.039 2566.74,531.329 2570.29,514.62 2569.11,497.91 2563.2,481.2 2552.59,464.49 2537.33,447.78 2517.47,431.07 
  2493.09,414.36 2464.29,397.65 2431.19,380.94 2393.93,364.231 2352.64,347.521 2307.5,330.811 2258.69,314.101 2206.41,297.391 2150.86,280.681 2092.27,263.971 
  2030.88,247.261 1966.93,230.552 1900.68,213.842 1832.4,197.132 1762.36,180.422 1690.84,163.712 1618.14,147.002 1544.54,130.292 1470.34,113.582 1395.85,96.8724 
  
  "/>
<path clip-path="url(#clip450)" d="
M2228.69 209.375 L2557.76 209.375 L2557.76 105.695 L2228.69 105.695  Z
  " fill="#ffffff" fill-rule="evenodd" fill-opacity="1"/>
<polyline clip-path="url(#clip450)" style="stroke:#000000; stroke-linecap:round; stroke-linejoin:round; stroke-width:4; stroke-opacity:1; fill:none" points="
  2228.69,209.375 2557.76,209.375 2557.76,105.695 2228.69,105.695 2228.69,209.375 
  "/>
<polyline clip-path="url(#clip450)" style="stroke:#009af9; stroke-linecap:round; stroke-linejoin:round; stroke-width:4; stroke-opacity:1; fill:none" points="
  2256.35,157.535 2422.34,157.535 
  "/>
<path clip-path="url(#clip450)" d="M2463.84 177.223 Q2462.04 181.852 2460.33 183.264 Q2458.61 184.676 2455.74 184.676 L2452.34 184.676 L2452.34 181.112 L2454.84 181.112 Q2456.6 181.112 2457.57 180.278 Q2458.54 179.445 2459.72 176.343 L2460.49 174.399 L2450 148.889 L2454.52 148.889 L2462.62 169.167 L2470.72 148.889 L2475.23 148.889 L2463.84 177.223 Z" fill="#000000" fill-rule="evenodd" fill-opacity="1" /><path clip-path="url(#clip450)" d="M2482.53 170.88 L2490.16 170.88 L2490.16 144.515 L2481.85 146.181 L2481.85 141.922 L2490.12 140.255 L2494.79 140.255 L2494.79 170.88 L2502.43 170.88 L2502.43 174.815 L2482.53 174.815 L2482.53 170.88 Z" fill="#000000" fill-rule="evenodd" fill-opacity="1" /></svg>
