<?xml version="1.0" encoding="utf-8"?>
<svg xmlns="http://www.w3.org/2000/svg" xmlns:xlink="http://www.w3.org/1999/xlink" width="672" height="480" viewBox="0 0 2688 1920">
<defs>
  <clipPath id="clip140">
    <rect x="0" y="0" width="2688" height="1920"/>
  </clipPath>
</defs>
<path clip-path="url(#clip140)" d="
M0 1920 L2688 1920 L2688 0 L0 0  Z
  " fill="#ffffff" fill-rule="evenodd" fill-opacity="1"/>
<defs>
  <clipPath id="clip141">
    <rect x="537" y="0" width="1883" height="1883"/>
  </clipPath>
</defs>
<path clip-path="url(#clip140)" d="
M196.816 1800.78 L2640.76 1800.78 L2640.76 47.2441 L196.816 47.2441  Z
  " fill="#ffffff" fill-rule="evenodd" fill-opacity="1"/>
<defs>
  <clipPath id="clip142">
    <rect x="196" y="47" width="2445" height="1755"/>
  </clipPath>
</defs>
<polyline clip-path="url(#clip142)" style="stroke:#000000; stroke-linecap:butt; stroke-linejoin:round; stroke-width:2; stroke-opacity:0.1; fill:none" points="
  317.941,1800.78 317.941,47.2441 
  "/>
<polyline clip-path="url(#clip142)" style="stroke:#000000; stroke-linecap:butt; stroke-linejoin:round; stroke-width:2; stroke-opacity:0.1; fill:none" points="
  684.89,1800.78 684.89,47.2441 
  "/>
<polyline clip-path="url(#clip142)" style="stroke:#000000; stroke-linecap:butt; stroke-linejoin:round; stroke-width:2; stroke-opacity:0.1; fill:none" points="
  1051.84,1800.78 1051.84,47.2441 
  "/>
<polyline clip-path="url(#clip142)" style="stroke:#000000; stroke-linecap:butt; stroke-linejoin:round; stroke-width:2; stroke-opacity:0.1; fill:none" points="
  1418.79,1800.78 1418.79,47.2441 
  "/>
<polyline clip-path="url(#clip142)" style="stroke:#000000; stroke-linecap:butt; stroke-linejoin:round; stroke-width:2; stroke-opacity:0.1; fill:none" points="
  1785.73,1800.78 1785.73,47.2441 
  "/>
<polyline clip-path="url(#clip142)" style="stroke:#000000; stroke-linecap:butt; stroke-linejoin:round; stroke-width:2; stroke-opacity:0.1; fill:none" points="
  2152.68,1800.78 2152.68,47.2441 
  "/>
<polyline clip-path="url(#clip142)" style="stroke:#000000; stroke-linecap:butt; stroke-linejoin:round; stroke-width:2; stroke-opacity:0.1; fill:none" points="
  2519.63,1800.78 2519.63,47.2441 
  "/>
<polyline clip-path="url(#clip140)" style="stroke:#000000; stroke-linecap:butt; stroke-linejoin:round; stroke-width:4; stroke-opacity:1; fill:none" points="
  196.816,1800.78 2640.76,1800.78 
  "/>
<polyline clip-path="url(#clip140)" style="stroke:#000000; stroke-linecap:butt; stroke-linejoin:round; stroke-width:4; stroke-opacity:1; fill:none" points="
  317.941,1800.78 317.941,1781.88 
  "/>
<polyline clip-path="url(#clip140)" style="stroke:#000000; stroke-linecap:butt; stroke-linejoin:round; stroke-width:4; stroke-opacity:1; fill:none" points="
  684.89,1800.78 684.89,1781.88 
  "/>
<polyline clip-path="url(#clip140)" style="stroke:#000000; stroke-linecap:butt; stroke-linejoin:round; stroke-width:4; stroke-opacity:1; fill:none" points="
  1051.84,1800.78 1051.84,1781.88 
  "/>
<polyline clip-path="url(#clip140)" style="stroke:#000000; stroke-linecap:butt; stroke-linejoin:round; stroke-width:4; stroke-opacity:1; fill:none" points="
  1418.79,1800.78 1418.79,1781.88 
  "/>
<polyline clip-path="url(#clip140)" style="stroke:#000000; stroke-linecap:butt; stroke-linejoin:round; stroke-width:4; stroke-opacity:1; fill:none" points="
  1785.73,1800.78 1785.73,1781.88 
  "/>
<polyline clip-path="url(#clip140)" style="stroke:#000000; stroke-linecap:butt; stroke-linejoin:round; stroke-width:4; stroke-opacity:1; fill:none" points="
  2152.68,1800.78 2152.68,1781.88 
  "/>
<polyline clip-path="url(#clip140)" style="stroke:#000000; stroke-linecap:butt; stroke-linejoin:round; stroke-width:4; stroke-opacity:1; fill:none" points="
  2519.63,1800.78 2519.63,1781.88 
  "/>
<path clip-path="url(#clip140)" d="M287.409 1848.65 L317.085 1848.65 L317.085 1852.59 L287.409 1852.59 L287.409 1848.65 Z" fill="#000000" fill-rule="evenodd" fill-opacity="1" /><path clip-path="url(#clip140)" d="M341.344 1846.85 Q344.7 1847.57 346.575 1849.84 Q348.474 1852.1 348.474 1855.44 Q348.474 1860.55 344.955 1863.35 Q341.437 1866.15 334.955 1866.15 Q332.779 1866.15 330.464 1865.71 Q328.173 1865.3 325.719 1864.44 L325.719 1859.93 Q327.663 1861.06 329.978 1861.64 Q332.293 1862.22 334.816 1862.22 Q339.214 1862.22 341.506 1860.48 Q343.821 1858.75 343.821 1855.44 Q343.821 1852.38 341.668 1850.67 Q339.538 1848.93 335.719 1848.93 L331.691 1848.93 L331.691 1845.09 L335.904 1845.09 Q339.353 1845.09 341.182 1843.72 Q343.011 1842.34 343.011 1839.74 Q343.011 1837.08 341.112 1835.67 Q339.237 1834.23 335.719 1834.23 Q333.798 1834.23 331.599 1834.65 Q329.4 1835.07 326.761 1835.95 L326.761 1831.78 Q329.423 1831.04 331.738 1830.67 Q334.075 1830.3 336.136 1830.3 Q341.46 1830.3 344.562 1832.73 Q347.663 1835.14 347.663 1839.26 Q347.663 1842.13 346.02 1844.12 Q344.376 1846.09 341.344 1846.85 Z" fill="#000000" fill-rule="evenodd" fill-opacity="1" /><path clip-path="url(#clip140)" d="M654.832 1848.65 L684.508 1848.65 L684.508 1852.59 L654.832 1852.59 L654.832 1848.65 Z" fill="#000000" fill-rule="evenodd" fill-opacity="1" /><path clip-path="url(#clip140)" d="M698.628 1861.55 L714.947 1861.55 L714.947 1865.48 L693.003 1865.48 L693.003 1861.55 Q695.665 1858.79 700.248 1854.16 Q704.855 1849.51 706.035 1848.17 Q708.281 1845.65 709.16 1843.91 Q710.063 1842.15 710.063 1840.46 Q710.063 1837.71 708.119 1835.97 Q706.197 1834.23 703.095 1834.23 Q700.896 1834.23 698.443 1835 Q696.012 1835.76 693.234 1837.31 L693.234 1832.59 Q696.058 1831.46 698.512 1830.88 Q700.966 1830.3 703.003 1830.3 Q708.373 1830.3 711.568 1832.98 Q714.762 1835.67 714.762 1840.16 Q714.762 1842.29 713.952 1844.21 Q713.165 1846.11 711.058 1848.7 Q710.48 1849.37 707.378 1852.59 Q704.276 1855.78 698.628 1861.55 Z" fill="#000000" fill-rule="evenodd" fill-opacity="1" /><path clip-path="url(#clip140)" d="M1021.59 1848.65 L1051.27 1848.65 L1051.27 1852.59 L1021.59 1852.59 L1021.59 1848.65 Z" fill="#000000" fill-rule="evenodd" fill-opacity="1" /><path clip-path="url(#clip140)" d="M1062.17 1861.55 L1069.81 1861.55 L1069.81 1835.18 L1061.5 1836.85 L1061.5 1832.59 L1069.77 1830.92 L1074.44 1830.92 L1074.44 1861.55 L1082.08 1861.55 L1082.08 1865.48 L1062.17 1865.48 L1062.17 1861.55 Z" fill="#000000" fill-rule="evenodd" fill-opacity="1" /><path clip-path="url(#clip140)" d="M1418.79 1834 Q1415.17 1834 1413.35 1837.57 Q1411.54 1841.11 1411.54 1848.24 Q1411.54 1855.34 1413.35 1858.91 Q1415.17 1862.45 1418.79 1862.45 Q1422.42 1862.45 1424.23 1858.91 Q1426.05 1855.34 1426.05 1848.24 Q1426.05 1841.11 1424.23 1837.57 Q1422.42 1834 1418.79 1834 M1418.79 1830.3 Q1424.6 1830.3 1427.65 1834.9 Q1430.73 1839.49 1430.73 1848.24 Q1430.73 1856.96 1427.65 1861.57 Q1424.6 1866.15 1418.79 1866.15 Q1412.98 1866.15 1409.9 1861.57 Q1406.84 1856.96 1406.84 1848.24 Q1406.84 1839.49 1409.9 1834.9 Q1412.98 1830.3 1418.79 1830.3 Z" fill="#000000" fill-rule="evenodd" fill-opacity="1" /><path clip-path="url(#clip140)" d="M1776.12 1861.55 L1783.76 1861.55 L1783.76 1835.18 L1775.44 1836.85 L1775.44 1832.59 L1783.71 1830.92 L1788.38 1830.92 L1788.38 1861.55 L1796.02 1861.55 L1796.02 1865.48 L1776.12 1865.48 L1776.12 1861.55 Z" fill="#000000" fill-rule="evenodd" fill-opacity="1" /><path clip-path="url(#clip140)" d="M2147.34 1861.55 L2163.65 1861.55 L2163.65 1865.48 L2141.71 1865.48 L2141.71 1861.55 Q2144.37 1858.79 2148.96 1854.16 Q2153.56 1849.51 2154.74 1848.17 Q2156.99 1845.65 2157.87 1843.91 Q2158.77 1842.15 2158.77 1840.46 Q2158.77 1837.71 2156.83 1835.97 Q2154.9 1834.23 2151.8 1834.23 Q2149.6 1834.23 2147.15 1835 Q2144.72 1835.76 2141.94 1837.31 L2141.94 1832.59 Q2144.77 1831.46 2147.22 1830.88 Q2149.67 1830.3 2151.71 1830.3 Q2157.08 1830.3 2160.27 1832.98 Q2163.47 1835.67 2163.47 1840.16 Q2163.47 1842.29 2162.66 1844.21 Q2161.87 1846.11 2159.77 1848.7 Q2159.19 1849.37 2156.09 1852.59 Q2152.98 1855.78 2147.34 1861.55 Z" fill="#000000" fill-rule="evenodd" fill-opacity="1" /><path clip-path="url(#clip140)" d="M2523.88 1846.85 Q2527.23 1847.57 2529.11 1849.84 Q2531.01 1852.1 2531.01 1855.44 Q2531.01 1860.55 2527.49 1863.35 Q2523.97 1866.15 2517.49 1866.15 Q2515.31 1866.15 2513 1865.71 Q2510.71 1865.3 2508.25 1864.44 L2508.25 1859.93 Q2510.2 1861.06 2512.51 1861.64 Q2514.83 1862.22 2517.35 1862.22 Q2521.75 1862.22 2524.04 1860.48 Q2526.36 1858.75 2526.36 1855.44 Q2526.36 1852.38 2524.2 1850.67 Q2522.07 1848.93 2518.25 1848.93 L2514.23 1848.93 L2514.23 1845.09 L2518.44 1845.09 Q2521.89 1845.09 2523.72 1843.72 Q2525.54 1842.34 2525.54 1839.74 Q2525.54 1837.08 2523.65 1835.67 Q2521.77 1834.23 2518.25 1834.23 Q2516.33 1834.23 2514.13 1834.65 Q2511.93 1835.07 2509.3 1835.95 L2509.3 1831.78 Q2511.96 1831.04 2514.27 1830.67 Q2516.61 1830.3 2518.67 1830.3 Q2523.99 1830.3 2527.1 1832.73 Q2530.2 1835.14 2530.2 1839.26 Q2530.2 1842.13 2528.55 1844.12 Q2526.91 1846.09 2523.88 1846.85 Z" fill="#000000" fill-rule="evenodd" fill-opacity="1" /><polyline clip-path="url(#clip142)" style="stroke:#000000; stroke-linecap:butt; stroke-linejoin:round; stroke-width:2; stroke-opacity:0.1; fill:none" points="
  196.816,1751.26 2640.76,1751.26 
  "/>
<polyline clip-path="url(#clip142)" style="stroke:#000000; stroke-linecap:butt; stroke-linejoin:round; stroke-width:2; stroke-opacity:0.1; fill:none" points="
  196.816,1337.63 2640.76,1337.63 
  "/>
<polyline clip-path="url(#clip142)" style="stroke:#000000; stroke-linecap:butt; stroke-linejoin:round; stroke-width:2; stroke-opacity:0.1; fill:none" points="
  196.816,924.012 2640.76,924.012 
  "/>
<polyline clip-path="url(#clip142)" style="stroke:#000000; stroke-linecap:butt; stroke-linejoin:round; stroke-width:2; stroke-opacity:0.1; fill:none" points="
  196.816,510.39 2640.76,510.39 
  "/>
<polyline clip-path="url(#clip142)" style="stroke:#000000; stroke-linecap:butt; stroke-linejoin:round; stroke-width:2; stroke-opacity:0.1; fill:none" points="
  196.816,96.7683 2640.76,96.7683 
  "/>
<polyline clip-path="url(#clip140)" style="stroke:#000000; stroke-linecap:butt; stroke-linejoin:round; stroke-width:4; stroke-opacity:1; fill:none" points="
  196.816,1800.78 196.816,47.2441 
  "/>
<polyline clip-path="url(#clip140)" style="stroke:#000000; stroke-linecap:butt; stroke-linejoin:round; stroke-width:4; stroke-opacity:1; fill:none" points="
  196.816,1751.26 215.714,1751.26 
  "/>
<polyline clip-path="url(#clip140)" style="stroke:#000000; stroke-linecap:butt; stroke-linejoin:round; stroke-width:4; stroke-opacity:1; fill:none" points="
  196.816,1337.63 215.714,1337.63 
  "/>
<polyline clip-path="url(#clip140)" style="stroke:#000000; stroke-linecap:butt; stroke-linejoin:round; stroke-width:4; stroke-opacity:1; fill:none" points="
  196.816,924.012 215.714,924.012 
  "/>
<polyline clip-path="url(#clip140)" style="stroke:#000000; stroke-linecap:butt; stroke-linejoin:round; stroke-width:4; stroke-opacity:1; fill:none" points="
  196.816,510.39 215.714,510.39 
  "/>
<polyline clip-path="url(#clip140)" style="stroke:#000000; stroke-linecap:butt; stroke-linejoin:round; stroke-width:4; stroke-opacity:1; fill:none" points="
  196.816,96.7683 215.714,96.7683 
  "/>
<path clip-path="url(#clip140)" d="M49.5521 1751.71 L79.2279 1751.71 L79.2279 1755.64 L49.5521 1755.64 L49.5521 1751.71 Z" fill="#000000" fill-rule="evenodd" fill-opacity="1" /><path clip-path="url(#clip140)" d="M90.1306 1764.6 L97.7695 1764.6 L97.7695 1738.23 L89.4593 1739.9 L89.4593 1735.64 L97.7232 1733.98 L102.399 1733.98 L102.399 1764.6 L110.038 1764.6 L110.038 1768.54 L90.1306 1768.54 L90.1306 1764.6 Z" fill="#000000" fill-rule="evenodd" fill-opacity="1" /><path clip-path="url(#clip140)" d="M119.482 1762.66 L124.367 1762.66 L124.367 1768.54 L119.482 1768.54 L119.482 1762.66 Z" fill="#000000" fill-rule="evenodd" fill-opacity="1" /><path clip-path="url(#clip140)" d="M144.552 1737.05 Q140.941 1737.05 139.112 1740.62 Q137.306 1744.16 137.306 1751.29 Q137.306 1758.4 139.112 1761.96 Q140.941 1765.5 144.552 1765.5 Q148.186 1765.5 149.991 1761.96 Q151.82 1758.4 151.82 1751.29 Q151.82 1744.16 149.991 1740.62 Q148.186 1737.05 144.552 1737.05 M144.552 1733.35 Q150.362 1733.35 153.417 1737.96 Q156.496 1742.54 156.496 1751.29 Q156.496 1760.02 153.417 1764.62 Q150.362 1769.21 144.552 1769.21 Q138.741 1769.21 135.663 1764.62 Q132.607 1760.02 132.607 1751.29 Q132.607 1742.54 135.663 1737.96 Q138.741 1733.35 144.552 1733.35 Z" fill="#000000" fill-rule="evenodd" fill-opacity="1" /><path clip-path="url(#clip140)" d="M50.5475 1338.08 L80.2233 1338.08 L80.2233 1342.02 L50.5475 1342.02 L50.5475 1338.08 Z" fill="#000000" fill-rule="evenodd" fill-opacity="1" /><path clip-path="url(#clip140)" d="M100.316 1323.43 Q96.7047 1323.43 94.876 1327 Q93.0704 1330.54 93.0704 1337.67 Q93.0704 1344.77 94.876 1348.34 Q96.7047 1351.88 100.316 1351.88 Q103.95 1351.88 105.756 1348.34 Q107.584 1344.77 107.584 1337.67 Q107.584 1330.54 105.756 1327 Q103.95 1323.43 100.316 1323.43 M100.316 1319.73 Q106.126 1319.73 109.181 1324.33 Q112.26 1328.92 112.26 1337.67 Q112.26 1346.39 109.181 1351 Q106.126 1355.58 100.316 1355.58 Q94.5056 1355.58 91.4269 1351 Q88.3714 1346.39 88.3714 1337.67 Q88.3714 1328.92 91.4269 1324.33 Q94.5056 1319.73 100.316 1319.73 Z" fill="#000000" fill-rule="evenodd" fill-opacity="1" /><path clip-path="url(#clip140)" d="M120.478 1349.03 L125.362 1349.03 L125.362 1354.91 L120.478 1354.91 L120.478 1349.03 Z" fill="#000000" fill-rule="evenodd" fill-opacity="1" /><path clip-path="url(#clip140)" d="M135.593 1320.35 L153.95 1320.35 L153.95 1324.29 L139.876 1324.29 L139.876 1332.76 Q140.894 1332.41 141.913 1332.25 Q142.931 1332.07 143.95 1332.07 Q149.737 1332.07 153.116 1335.24 Q156.496 1338.41 156.496 1343.83 Q156.496 1349.4 153.024 1352.51 Q149.552 1355.58 143.232 1355.58 Q141.056 1355.58 138.788 1355.21 Q136.542 1354.84 134.135 1354.1 L134.135 1349.4 Q136.218 1350.54 138.441 1351.09 Q140.663 1351.65 143.14 1351.65 Q147.144 1351.65 149.482 1349.54 Q151.82 1347.44 151.82 1343.83 Q151.82 1340.21 149.482 1338.11 Q147.144 1336 143.14 1336 Q141.265 1336 139.39 1336.42 Q137.538 1336.83 135.593 1337.71 L135.593 1320.35 Z" fill="#000000" fill-rule="evenodd" fill-opacity="1" /><path clip-path="url(#clip140)" d="M99.3204 909.81 Q95.7093 909.81 93.8806 913.375 Q92.075 916.917 92.075 924.046 Q92.075 931.153 93.8806 934.718 Q95.7093 938.259 99.3204 938.259 Q102.955 938.259 104.76 934.718 Q106.589 931.153 106.589 924.046 Q106.589 916.917 104.76 913.375 Q102.955 909.81 99.3204 909.81 M99.3204 906.107 Q105.131 906.107 108.186 910.713 Q111.265 915.296 111.265 924.046 Q111.265 932.773 108.186 937.38 Q105.131 941.963 99.3204 941.963 Q93.5102 941.963 90.4315 937.38 Q87.376 932.773 87.376 924.046 Q87.376 915.296 90.4315 910.713 Q93.5102 906.107 99.3204 906.107 Z" fill="#000000" fill-rule="evenodd" fill-opacity="1" /><path clip-path="url(#clip140)" d="M119.482 935.412 L124.367 935.412 L124.367 941.292 L119.482 941.292 L119.482 935.412 Z" fill="#000000" fill-rule="evenodd" fill-opacity="1" /><path clip-path="url(#clip140)" d="M144.552 909.81 Q140.941 909.81 139.112 913.375 Q137.306 916.917 137.306 924.046 Q137.306 931.153 139.112 934.718 Q140.941 938.259 144.552 938.259 Q148.186 938.259 149.991 934.718 Q151.82 931.153 151.82 924.046 Q151.82 916.917 149.991 913.375 Q148.186 909.81 144.552 909.81 M144.552 906.107 Q150.362 906.107 153.417 910.713 Q156.496 915.296 156.496 924.046 Q156.496 932.773 153.417 937.38 Q150.362 941.963 144.552 941.963 Q138.741 941.963 135.663 937.38 Q132.607 932.773 132.607 924.046 Q132.607 915.296 135.663 910.713 Q138.741 906.107 144.552 906.107 Z" fill="#000000" fill-rule="evenodd" fill-opacity="1" /><path clip-path="url(#clip140)" d="M100.316 496.189 Q96.7047 496.189 94.876 499.753 Q93.0704 503.295 93.0704 510.425 Q93.0704 517.531 94.876 521.096 Q96.7047 524.638 100.316 524.638 Q103.95 524.638 105.756 521.096 Q107.584 517.531 107.584 510.425 Q107.584 503.295 105.756 499.753 Q103.95 496.189 100.316 496.189 M100.316 492.485 Q106.126 492.485 109.181 497.091 Q112.26 501.675 112.26 510.425 Q112.26 519.152 109.181 523.758 Q106.126 528.341 100.316 528.341 Q94.5056 528.341 91.4269 523.758 Q88.3714 519.152 88.3714 510.425 Q88.3714 501.675 91.4269 497.091 Q94.5056 492.485 100.316 492.485 Z" fill="#000000" fill-rule="evenodd" fill-opacity="1" /><path clip-path="url(#clip140)" d="M120.478 521.79 L125.362 521.79 L125.362 527.67 L120.478 527.67 L120.478 521.79 Z" fill="#000000" fill-rule="evenodd" fill-opacity="1" /><path clip-path="url(#clip140)" d="M135.593 493.11 L153.95 493.11 L153.95 497.045 L139.876 497.045 L139.876 505.517 Q140.894 505.17 141.913 505.008 Q142.931 504.823 143.95 504.823 Q149.737 504.823 153.116 507.994 Q156.496 511.165 156.496 516.582 Q156.496 522.161 153.024 525.263 Q149.552 528.341 143.232 528.341 Q141.056 528.341 138.788 527.971 Q136.542 527.601 134.135 526.86 L134.135 522.161 Q136.218 523.295 138.441 523.851 Q140.663 524.406 143.14 524.406 Q147.144 524.406 149.482 522.3 Q151.82 520.193 151.82 516.582 Q151.82 512.971 149.482 510.865 Q147.144 508.758 143.14 508.758 Q141.265 508.758 139.39 509.175 Q137.538 509.591 135.593 510.471 L135.593 493.11 Z" fill="#000000" fill-rule="evenodd" fill-opacity="1" /><path clip-path="url(#clip140)" d="M90.1306 110.113 L97.7695 110.113 L97.7695 83.7476 L89.4593 85.4142 L89.4593 81.155 L97.7232 79.4883 L102.399 79.4883 L102.399 110.113 L110.038 110.113 L110.038 114.048 L90.1306 114.048 L90.1306 110.113 Z" fill="#000000" fill-rule="evenodd" fill-opacity="1" /><path clip-path="url(#clip140)" d="M119.482 108.169 L124.367 108.169 L124.367 114.048 L119.482 114.048 L119.482 108.169 Z" fill="#000000" fill-rule="evenodd" fill-opacity="1" /><path clip-path="url(#clip140)" d="M144.552 82.567 Q140.941 82.567 139.112 86.1318 Q137.306 89.6735 137.306 96.803 Q137.306 103.909 139.112 107.474 Q140.941 111.016 144.552 111.016 Q148.186 111.016 149.991 107.474 Q151.82 103.909 151.82 96.803 Q151.82 89.6735 149.991 86.1318 Q148.186 82.567 144.552 82.567 M144.552 78.8633 Q150.362 78.8633 153.417 83.4698 Q156.496 88.0531 156.496 96.803 Q156.496 105.53 153.417 110.136 Q150.362 114.72 144.552 114.72 Q138.741 114.72 135.663 110.136 Q132.607 105.53 132.607 96.803 Q132.607 88.0531 135.663 83.4698 Q138.741 78.8633 144.552 78.8633 Z" fill="#000000" fill-rule="evenodd" fill-opacity="1" /><polyline clip-path="url(#clip142)" style="stroke:#009af9; stroke-linecap:butt; stroke-linejoin:round; stroke-width:4; stroke-opacity:1; fill:none" points="
  265.984,924.012 289.273,976.479 312.562,1028.73 335.851,1080.57 359.14,1131.77 382.429,1182.14 405.718,1231.47 429.007,1279.56 452.296,1326.21 475.584,1371.25 
  498.873,1414.49 522.162,1455.75 545.451,1494.87 568.74,1531.7 592.029,1566.07 615.318,1597.86 638.607,1626.94 661.896,1653.19 685.185,1676.5 708.474,1696.78 
  731.763,1713.95 755.052,1727.94 778.34,1738.69 801.629,1746.16 824.918,1750.32 848.207,1751.15 871.496,1748.65 894.785,1742.83 918.074,1733.72 941.363,1721.34 
  964.652,1705.76 987.941,1687.02 1011.23,1665.22 1034.52,1640.43 1057.81,1612.75 1081.1,1582.3 1104.39,1549.2 1127.67,1513.58 1150.96,1475.59 1174.25,1435.38 
  1197.54,1393.11 1220.83,1348.95 1244.12,1303.08 1267.41,1255.68 1290.7,1206.95 1313.99,1157.07 1337.27,1106.26 1360.56,1054.72 1383.85,1002.65 1407.14,950.258 
  1430.43,897.765 1453.72,845.377 1477.01,793.306 1500.3,741.761 1523.59,690.95 1546.88,641.078 1570.16,592.345 1593.45,544.947 1616.74,499.075 1640.03,454.915 
  1663.32,412.644 1686.61,372.431 1709.9,334.44 1733.19,298.823 1756.48,265.723 1779.76,235.274 1803.05,207.598 1826.34,182.807 1849.63,161 1872.92,142.266 
  1896.21,126.68 1919.5,114.304 1942.79,105.188 1966.08,99.3702 1989.36,96.8724 2012.65,97.7053 2035.94,101.865 2059.23,109.336 2082.52,120.087 2105.81,134.075 
  2129.1,151.244 2152.39,171.525 2175.68,194.835 2198.96,221.082 2222.25,250.159 2245.54,281.95 2268.83,316.326 2292.12,353.148 2315.41,392.27 2338.7,433.533 
  2361.99,476.77 2385.28,521.809 2408.57,568.467 2431.85,616.556 2455.14,665.884 2478.43,716.251 2501.72,767.455 2525.01,819.289 2548.3,871.545 2571.59,924.012 
  
  "/>
<path clip-path="url(#clip140)" d="
M2235.31 209.375 L2559.29 209.375 L2559.29 105.695 L2235.31 105.695  Z
  " fill="#ffffff" fill-rule="evenodd" fill-opacity="1"/>
<polyline clip-path="url(#clip140)" style="stroke:#000000; stroke-linecap:butt; stroke-linejoin:round; stroke-width:4; stroke-opacity:1; fill:none" points="
  2235.31,209.375 2559.29,209.375 2559.29,105.695 2235.31,105.695 2235.31,209.375 
  "/>
<polyline clip-path="url(#clip140)" style="stroke:#009af9; stroke-linecap:butt; stroke-linejoin:round; stroke-width:4; stroke-opacity:1; fill:none" points="
  2262.47,157.535 2425.4,157.535 
  "/>
<path clip-path="url(#clip140)" d="M2466.39 177.223 Q2464.59 181.852 2462.88 183.264 Q2461.16 184.676 2458.29 184.676 L2454.89 184.676 L2454.89 181.112 L2457.39 181.112 Q2459.15 181.112 2460.12 180.278 Q2461.09 179.445 2462.27 176.343 L2463.04 174.399 L2452.55 148.889 L2457.07 148.889 L2465.17 169.167 L2473.27 148.889 L2477.78 148.889 L2466.39 177.223 Z" fill="#000000" fill-rule="evenodd" fill-opacity="1" /><path clip-path="url(#clip140)" d="M2485.07 170.88 L2492.71 170.88 L2492.71 144.515 L2484.4 146.181 L2484.4 141.922 L2492.67 140.255 L2497.34 140.255 L2497.34 170.88 L2504.98 170.88 L2504.98 174.815 L2485.07 174.815 L2485.07 170.88 Z" fill="#000000" fill-rule="evenodd" fill-opacity="1" /></svg>
