<?xml version="1.0" encoding="utf-8"?>
<svg xmlns="http://www.w3.org/2000/svg" xmlns:xlink="http://www.w3.org/1999/xlink" width="672" height="480" viewBox="0 0 2688 1920">
<defs>
  <clipPath id="clip780">
    <rect x="0" y="0" width="2688" height="1920"/>
  </clipPath>
</defs>
<path clip-path="url(#clip780)" d="
M0 1920 L2688 1920 L2688 0 L0 0  Z
  " fill="#ffffff" fill-rule="evenodd" fill-opacity="1"/>
<defs>
  <clipPath id="clip781">
    <rect x="537" y="0" width="1883" height="1883"/>
  </clipPath>
</defs>
<path clip-path="url(#clip780)" d="
M196.816 1800.78 L2640.76 1800.78 L2640.76 47.2441 L196.816 47.2441  Z
  " fill="#ffffff" fill-rule="evenodd" fill-opacity="1"/>
<defs>
  <clipPath id="clip782">
    <rect x="196" y="47" width="2445" height="1755"/>
  </clipPath>
</defs>
<polyline clip-path="url(#clip782)" style="stroke:#000000; stroke-linecap:butt; stroke-linejoin:round; stroke-width:2; stroke-opacity:0.1; fill:none" points="
  591.569,1800.78 591.569,47.2441 
  "/>
<polyline clip-path="url(#clip782)" style="stroke:#000000; stroke-linecap:butt; stroke-linejoin:round; stroke-width:2; stroke-opacity:0.1; fill:none" points="
  1005.15,1800.78 1005.15,47.2441 
  "/>
<polyline clip-path="url(#clip782)" style="stroke:#000000; stroke-linecap:butt; stroke-linejoin:round; stroke-width:2; stroke-opacity:0.1; fill:none" points="
  1418.73,1800.78 1418.73,47.2441 
  "/>
<polyline clip-path="url(#clip782)" style="stroke:#000000; stroke-linecap:butt; stroke-linejoin:round; stroke-width:2; stroke-opacity:0.1; fill:none" points="
  1832.32,1800.78 1832.32,47.2441 
  "/>
<polyline clip-path="url(#clip782)" style="stroke:#000000; stroke-linecap:butt; stroke-linejoin:round; stroke-width:2; stroke-opacity:0.1; fill:none" points="
  2245.9,1800.78 2245.9,47.2441 
  "/>
<polyline clip-path="url(#clip780)" style="stroke:#000000; stroke-linecap:butt; stroke-linejoin:round; stroke-width:4; stroke-opacity:1; fill:none" points="
  196.816,1800.78 2640.76,1800.78 
  "/>
<polyline clip-path="url(#clip780)" style="stroke:#000000; stroke-linecap:butt; stroke-linejoin:round; stroke-width:4; stroke-opacity:1; fill:none" points="
  591.569,1800.78 591.569,1781.88 
  "/>
<polyline clip-path="url(#clip780)" style="stroke:#000000; stroke-linecap:butt; stroke-linejoin:round; stroke-width:4; stroke-opacity:1; fill:none" points="
  1005.15,1800.78 1005.15,1781.88 
  "/>
<polyline clip-path="url(#clip780)" style="stroke:#000000; stroke-linecap:butt; stroke-linejoin:round; stroke-width:4; stroke-opacity:1; fill:none" points="
  1418.73,1800.78 1418.73,1781.88 
  "/>
<polyline clip-path="url(#clip780)" style="stroke:#000000; stroke-linecap:butt; stroke-linejoin:round; stroke-width:4; stroke-opacity:1; fill:none" points="
  1832.32,1800.78 1832.32,1781.88 
  "/>
<polyline clip-path="url(#clip780)" style="stroke:#000000; stroke-linecap:butt; stroke-linejoin:round; stroke-width:4; stroke-opacity:1; fill:none" points="
  2245.9,1800.78 2245.9,1781.88 
  "/>
<path clip-path="url(#clip780)" d="M538.097 1848.65 L567.773 1848.65 L567.773 1852.59 L538.097 1852.59 L538.097 1848.65 Z" fill="#000000" fill-rule="evenodd" fill-opacity="1" /><path clip-path="url(#clip780)" d="M578.676 1861.55 L586.315 1861.55 L586.315 1835.18 L578.005 1836.85 L578.005 1832.59 L586.268 1830.92 L590.944 1830.92 L590.944 1861.55 L598.583 1861.55 L598.583 1865.48 L578.676 1865.48 L578.676 1861.55 Z" fill="#000000" fill-rule="evenodd" fill-opacity="1" /><path clip-path="url(#clip780)" d="M608.028 1859.6 L612.912 1859.6 L612.912 1865.48 L608.028 1865.48 L608.028 1859.6 Z" fill="#000000" fill-rule="evenodd" fill-opacity="1" /><path clip-path="url(#clip780)" d="M633.097 1834 Q629.486 1834 627.657 1837.57 Q625.852 1841.11 625.852 1848.24 Q625.852 1855.34 627.657 1858.91 Q629.486 1862.45 633.097 1862.45 Q636.731 1862.45 638.537 1858.91 Q640.365 1855.34 640.365 1848.24 Q640.365 1841.11 638.537 1837.57 Q636.731 1834 633.097 1834 M633.097 1830.3 Q638.907 1830.3 641.963 1834.9 Q645.041 1839.49 645.041 1848.24 Q645.041 1856.96 641.963 1861.57 Q638.907 1866.15 633.097 1866.15 Q627.287 1866.15 624.208 1861.57 Q621.153 1856.96 621.153 1848.24 Q621.153 1839.49 624.208 1834.9 Q627.287 1830.3 633.097 1830.3 Z" fill="#000000" fill-rule="evenodd" fill-opacity="1" /><path clip-path="url(#clip780)" d="M952.178 1848.65 L981.853 1848.65 L981.853 1852.59 L952.178 1852.59 L952.178 1848.65 Z" fill="#000000" fill-rule="evenodd" fill-opacity="1" /><path clip-path="url(#clip780)" d="M1001.95 1834 Q998.335 1834 996.506 1837.57 Q994.701 1841.11 994.701 1848.24 Q994.701 1855.34 996.506 1858.91 Q998.335 1862.45 1001.95 1862.45 Q1005.58 1862.45 1007.39 1858.91 Q1009.21 1855.34 1009.21 1848.24 Q1009.21 1841.11 1007.39 1837.57 Q1005.58 1834 1001.95 1834 M1001.95 1830.3 Q1007.76 1830.3 1010.81 1834.9 Q1013.89 1839.49 1013.89 1848.24 Q1013.89 1856.96 1010.81 1861.57 Q1007.76 1866.15 1001.95 1866.15 Q996.136 1866.15 993.057 1861.57 Q990.002 1856.96 990.002 1848.24 Q990.002 1839.49 993.057 1834.9 Q996.136 1830.3 1001.95 1830.3 Z" fill="#000000" fill-rule="evenodd" fill-opacity="1" /><path clip-path="url(#clip780)" d="M1022.11 1859.6 L1026.99 1859.6 L1026.99 1865.48 L1022.11 1865.48 L1022.11 1859.6 Z" fill="#000000" fill-rule="evenodd" fill-opacity="1" /><path clip-path="url(#clip780)" d="M1037.22 1830.92 L1055.58 1830.92 L1055.58 1834.86 L1041.51 1834.86 L1041.51 1843.33 Q1042.52 1842.98 1043.54 1842.82 Q1044.56 1842.64 1045.58 1842.64 Q1051.37 1842.64 1054.75 1845.81 Q1058.13 1848.98 1058.13 1854.4 Q1058.13 1859.97 1054.65 1863.08 Q1051.18 1866.15 1044.86 1866.15 Q1042.69 1866.15 1040.42 1865.78 Q1038.17 1865.41 1035.77 1864.67 L1035.77 1859.97 Q1037.85 1861.11 1040.07 1861.66 Q1042.29 1862.22 1044.77 1862.22 Q1048.77 1862.22 1051.11 1860.11 Q1053.45 1858.01 1053.45 1854.4 Q1053.45 1850.78 1051.11 1848.68 Q1048.77 1846.57 1044.77 1846.57 Q1042.89 1846.57 1041.02 1846.99 Q1039.17 1847.4 1037.22 1848.28 L1037.22 1830.92 Z" fill="#000000" fill-rule="evenodd" fill-opacity="1" /><path clip-path="url(#clip780)" d="M1396.12 1834 Q1392.51 1834 1390.68 1837.57 Q1388.87 1841.11 1388.87 1848.24 Q1388.87 1855.34 1390.68 1858.91 Q1392.51 1862.45 1396.12 1862.45 Q1399.75 1862.45 1401.56 1858.91 Q1403.39 1855.34 1403.39 1848.24 Q1403.39 1841.11 1401.56 1837.57 Q1399.75 1834 1396.12 1834 M1396.12 1830.3 Q1401.93 1830.3 1404.98 1834.9 Q1408.06 1839.49 1408.06 1848.24 Q1408.06 1856.96 1404.98 1861.57 Q1401.93 1866.15 1396.12 1866.15 Q1390.31 1866.15 1387.23 1861.57 Q1384.17 1856.96 1384.17 1848.24 Q1384.17 1839.49 1387.23 1834.9 Q1390.31 1830.3 1396.12 1830.3 Z" fill="#000000" fill-rule="evenodd" fill-opacity="1" /><path clip-path="url(#clip780)" d="M1416.28 1859.6 L1421.16 1859.6 L1421.16 1865.48 L1416.28 1865.48 L1416.28 1859.6 Z" fill="#000000" fill-rule="evenodd" fill-opacity="1" /><path clip-path="url(#clip780)" d="M1441.35 1834 Q1437.74 1834 1435.91 1837.57 Q1434.1 1841.11 1434.1 1848.24 Q1434.1 1855.34 1435.91 1858.91 Q1437.74 1862.45 1441.35 1862.45 Q1444.98 1862.45 1446.79 1858.91 Q1448.62 1855.34 1448.62 1848.24 Q1448.62 1841.11 1446.79 1837.57 Q1444.98 1834 1441.35 1834 M1441.35 1830.3 Q1447.16 1830.3 1450.22 1834.9 Q1453.29 1839.49 1453.29 1848.24 Q1453.29 1856.96 1450.22 1861.57 Q1447.16 1866.15 1441.35 1866.15 Q1435.54 1866.15 1432.46 1861.57 Q1429.41 1856.96 1429.41 1848.24 Q1429.41 1839.49 1432.46 1834.9 Q1435.54 1830.3 1441.35 1830.3 Z" fill="#000000" fill-rule="evenodd" fill-opacity="1" /><path clip-path="url(#clip780)" d="M1810.2 1834 Q1806.59 1834 1804.76 1837.57 Q1802.95 1841.11 1802.95 1848.24 Q1802.95 1855.34 1804.76 1858.91 Q1806.59 1862.45 1810.2 1862.45 Q1813.83 1862.45 1815.64 1858.91 Q1817.47 1855.34 1817.47 1848.24 Q1817.47 1841.11 1815.64 1837.57 Q1813.83 1834 1810.2 1834 M1810.2 1830.3 Q1816.01 1830.3 1819.06 1834.9 Q1822.14 1839.49 1822.14 1848.24 Q1822.14 1856.96 1819.06 1861.57 Q1816.01 1866.15 1810.2 1866.15 Q1804.39 1866.15 1801.31 1861.57 Q1798.25 1856.96 1798.25 1848.24 Q1798.25 1839.49 1801.31 1834.9 Q1804.39 1830.3 1810.2 1830.3 Z" fill="#000000" fill-rule="evenodd" fill-opacity="1" /><path clip-path="url(#clip780)" d="M1830.36 1859.6 L1835.25 1859.6 L1835.25 1865.48 L1830.36 1865.48 L1830.36 1859.6 Z" fill="#000000" fill-rule="evenodd" fill-opacity="1" /><path clip-path="url(#clip780)" d="M1845.48 1830.92 L1863.83 1830.92 L1863.83 1834.86 L1849.76 1834.86 L1849.76 1843.33 Q1850.78 1842.98 1851.8 1842.82 Q1852.81 1842.64 1853.83 1842.64 Q1859.62 1842.64 1863 1845.81 Q1866.38 1848.98 1866.38 1854.4 Q1866.38 1859.97 1862.91 1863.08 Q1859.43 1866.15 1853.12 1866.15 Q1850.94 1866.15 1848.67 1865.78 Q1846.43 1865.41 1844.02 1864.67 L1844.02 1859.97 Q1846.1 1861.11 1848.32 1861.66 Q1850.55 1862.22 1853.02 1862.22 Q1857.03 1862.22 1859.37 1860.11 Q1861.7 1858.01 1861.7 1854.4 Q1861.7 1850.78 1859.37 1848.68 Q1857.03 1846.57 1853.02 1846.57 Q1851.15 1846.57 1849.27 1846.99 Q1847.42 1847.4 1845.48 1848.28 L1845.48 1830.92 Z" fill="#000000" fill-rule="evenodd" fill-opacity="1" /><path clip-path="url(#clip780)" d="M2213.05 1861.55 L2220.69 1861.55 L2220.69 1835.18 L2212.38 1836.85 L2212.38 1832.59 L2220.64 1830.92 L2225.32 1830.92 L2225.32 1861.55 L2232.96 1861.55 L2232.96 1865.48 L2213.05 1865.48 L2213.05 1861.55 Z" fill="#000000" fill-rule="evenodd" fill-opacity="1" /><path clip-path="url(#clip780)" d="M2242.4 1859.6 L2247.29 1859.6 L2247.29 1865.48 L2242.4 1865.48 L2242.4 1859.6 Z" fill="#000000" fill-rule="evenodd" fill-opacity="1" /><path clip-path="url(#clip780)" d="M2267.47 1834 Q2263.86 1834 2262.03 1837.57 Q2260.23 1841.11 2260.23 1848.24 Q2260.23 1855.34 2262.03 1858.91 Q2263.86 1862.45 2267.47 1862.45 Q2271.11 1862.45 2272.91 1858.91 Q2274.74 1855.34 2274.74 1848.24 Q2274.74 1841.11 2272.91 1837.57 Q2271.11 1834 2267.47 1834 M2267.47 1830.3 Q2273.28 1830.3 2276.34 1834.9 Q2279.42 1839.49 2279.42 1848.24 Q2279.42 1856.96 2276.34 1861.57 Q2273.28 1866.15 2267.47 1866.15 Q2261.66 1866.15 2258.58 1861.57 Q2255.53 1856.96 2255.53 1848.24 Q2255.53 1839.49 2258.58 1834.9 Q2261.66 1830.3 2267.47 1830.3 Z" fill="#000000" fill-rule="evenodd" fill-opacity="1" /><polyline clip-path="url(#clip782)" style="stroke:#000000; stroke-linecap:butt; stroke-linejoin:round; stroke-width:2; stroke-opacity:0.1; fill:none" points="
  196.816,1751.18 2640.76,1751.18 
  "/>
<polyline clip-path="url(#clip782)" style="stroke:#000000; stroke-linecap:butt; stroke-linejoin:round; stroke-width:2; stroke-opacity:0.1; fill:none" points="
  196.816,1337.59 2640.76,1337.59 
  "/>
<polyline clip-path="url(#clip782)" style="stroke:#000000; stroke-linecap:butt; stroke-linejoin:round; stroke-width:2; stroke-opacity:0.1; fill:none" points="
  196.816,924.012 2640.76,924.012 
  "/>
<polyline clip-path="url(#clip782)" style="stroke:#000000; stroke-linecap:butt; stroke-linejoin:round; stroke-width:2; stroke-opacity:0.1; fill:none" points="
  196.816,510.429 2640.76,510.429 
  "/>
<polyline clip-path="url(#clip782)" style="stroke:#000000; stroke-linecap:butt; stroke-linejoin:round; stroke-width:2; stroke-opacity:0.1; fill:none" points="
  196.816,96.8467 2640.76,96.8467 
  "/>
<polyline clip-path="url(#clip780)" style="stroke:#000000; stroke-linecap:butt; stroke-linejoin:round; stroke-width:4; stroke-opacity:1; fill:none" points="
  196.816,1800.78 196.816,47.2441 
  "/>
<polyline clip-path="url(#clip780)" style="stroke:#000000; stroke-linecap:butt; stroke-linejoin:round; stroke-width:4; stroke-opacity:1; fill:none" points="
  196.816,1751.18 215.714,1751.18 
  "/>
<polyline clip-path="url(#clip780)" style="stroke:#000000; stroke-linecap:butt; stroke-linejoin:round; stroke-width:4; stroke-opacity:1; fill:none" points="
  196.816,1337.59 215.714,1337.59 
  "/>
<polyline clip-path="url(#clip780)" style="stroke:#000000; stroke-linecap:butt; stroke-linejoin:round; stroke-width:4; stroke-opacity:1; fill:none" points="
  196.816,924.012 215.714,924.012 
  "/>
<polyline clip-path="url(#clip780)" style="stroke:#000000; stroke-linecap:butt; stroke-linejoin:round; stroke-width:4; stroke-opacity:1; fill:none" points="
  196.816,510.429 215.714,510.429 
  "/>
<polyline clip-path="url(#clip780)" style="stroke:#000000; stroke-linecap:butt; stroke-linejoin:round; stroke-width:4; stroke-opacity:1; fill:none" points="
  196.816,96.8467 215.714,96.8467 
  "/>
<path clip-path="url(#clip780)" d="M49.5521 1751.63 L79.2279 1751.63 L79.2279 1755.56 L49.5521 1755.56 L49.5521 1751.63 Z" fill="#000000" fill-rule="evenodd" fill-opacity="1" /><path clip-path="url(#clip780)" d="M90.1306 1764.52 L97.7695 1764.52 L97.7695 1738.16 L89.4593 1739.82 L89.4593 1735.56 L97.7232 1733.9 L102.399 1733.9 L102.399 1764.52 L110.038 1764.52 L110.038 1768.46 L90.1306 1768.46 L90.1306 1764.52 Z" fill="#000000" fill-rule="evenodd" fill-opacity="1" /><path clip-path="url(#clip780)" d="M119.482 1762.58 L124.367 1762.58 L124.367 1768.46 L119.482 1768.46 L119.482 1762.58 Z" fill="#000000" fill-rule="evenodd" fill-opacity="1" /><path clip-path="url(#clip780)" d="M144.552 1736.98 Q140.941 1736.98 139.112 1740.54 Q137.306 1744.08 137.306 1751.21 Q137.306 1758.32 139.112 1761.88 Q140.941 1765.42 144.552 1765.42 Q148.186 1765.42 149.991 1761.88 Q151.82 1758.32 151.82 1751.21 Q151.82 1744.08 149.991 1740.54 Q148.186 1736.98 144.552 1736.98 M144.552 1733.27 Q150.362 1733.27 153.417 1737.88 Q156.496 1742.46 156.496 1751.21 Q156.496 1759.94 153.417 1764.54 Q150.362 1769.13 144.552 1769.13 Q138.741 1769.13 135.663 1764.54 Q132.607 1759.94 132.607 1751.21 Q132.607 1742.46 135.663 1737.88 Q138.741 1733.27 144.552 1733.27 Z" fill="#000000" fill-rule="evenodd" fill-opacity="1" /><path clip-path="url(#clip780)" d="M50.5475 1338.05 L80.2233 1338.05 L80.2233 1341.98 L50.5475 1341.98 L50.5475 1338.05 Z" fill="#000000" fill-rule="evenodd" fill-opacity="1" /><path clip-path="url(#clip780)" d="M100.316 1323.39 Q96.7047 1323.39 94.876 1326.96 Q93.0704 1330.5 93.0704 1337.63 Q93.0704 1344.74 94.876 1348.3 Q96.7047 1351.84 100.316 1351.84 Q103.95 1351.84 105.756 1348.3 Q107.584 1344.74 107.584 1337.63 Q107.584 1330.5 105.756 1326.96 Q103.95 1323.39 100.316 1323.39 M100.316 1319.69 Q106.126 1319.69 109.181 1324.3 Q112.26 1328.88 112.26 1337.63 Q112.26 1346.36 109.181 1350.96 Q106.126 1355.55 100.316 1355.55 Q94.5056 1355.55 91.4269 1350.96 Q88.3714 1346.36 88.3714 1337.63 Q88.3714 1328.88 91.4269 1324.3 Q94.5056 1319.69 100.316 1319.69 Z" fill="#000000" fill-rule="evenodd" fill-opacity="1" /><path clip-path="url(#clip780)" d="M120.478 1348.99 L125.362 1348.99 L125.362 1354.87 L120.478 1354.87 L120.478 1348.99 Z" fill="#000000" fill-rule="evenodd" fill-opacity="1" /><path clip-path="url(#clip780)" d="M135.593 1320.31 L153.95 1320.31 L153.95 1324.25 L139.876 1324.25 L139.876 1332.72 Q140.894 1332.37 141.913 1332.21 Q142.931 1332.03 143.95 1332.03 Q149.737 1332.03 153.116 1335.2 Q156.496 1338.37 156.496 1343.79 Q156.496 1349.36 153.024 1352.47 Q149.552 1355.55 143.232 1355.55 Q141.056 1355.55 138.788 1355.18 Q136.542 1354.8 134.135 1354.06 L134.135 1349.36 Q136.218 1350.5 138.441 1351.05 Q140.663 1351.61 143.14 1351.61 Q147.144 1351.61 149.482 1349.5 Q151.82 1347.4 151.82 1343.79 Q151.82 1340.18 149.482 1338.07 Q147.144 1335.96 143.14 1335.96 Q141.265 1335.96 139.39 1336.38 Q137.538 1336.8 135.593 1337.68 L135.593 1320.31 Z" fill="#000000" fill-rule="evenodd" fill-opacity="1" /><path clip-path="url(#clip780)" d="M99.3204 909.81 Q95.7093 909.81 93.8806 913.375 Q92.075 916.917 92.075 924.046 Q92.075 931.153 93.8806 934.718 Q95.7093 938.259 99.3204 938.259 Q102.955 938.259 104.76 934.718 Q106.589 931.153 106.589 924.046 Q106.589 916.917 104.76 913.375 Q102.955 909.81 99.3204 909.81 M99.3204 906.107 Q105.131 906.107 108.186 910.713 Q111.265 915.296 111.265 924.046 Q111.265 932.773 108.186 937.38 Q105.131 941.963 99.3204 941.963 Q93.5102 941.963 90.4315 937.38 Q87.376 932.773 87.376 924.046 Q87.376 915.296 90.4315 910.713 Q93.5102 906.107 99.3204 906.107 Z" fill="#000000" fill-rule="evenodd" fill-opacity="1" /><path clip-path="url(#clip780)" d="M119.482 935.412 L124.367 935.412 L124.367 941.292 L119.482 941.292 L119.482 935.412 Z" fill="#000000" fill-rule="evenodd" fill-opacity="1" /><path clip-path="url(#clip780)" d="M144.552 909.81 Q140.941 909.81 139.112 913.375 Q137.306 916.917 137.306 924.046 Q137.306 931.153 139.112 934.718 Q140.941 938.259 144.552 938.259 Q148.186 938.259 149.991 934.718 Q151.82 931.153 151.82 924.046 Q151.82 916.917 149.991 913.375 Q148.186 909.81 144.552 909.81 M144.552 906.107 Q150.362 906.107 153.417 910.713 Q156.496 915.296 156.496 924.046 Q156.496 932.773 153.417 937.38 Q150.362 941.963 144.552 941.963 Q138.741 941.963 135.663 937.38 Q132.607 932.773 132.607 924.046 Q132.607 915.296 135.663 910.713 Q138.741 906.107 144.552 906.107 Z" fill="#000000" fill-rule="evenodd" fill-opacity="1" /><path clip-path="url(#clip780)" d="M100.316 496.228 Q96.7047 496.228 94.876 499.793 Q93.0704 503.334 93.0704 510.464 Q93.0704 517.57 94.876 521.135 Q96.7047 524.677 100.316 524.677 Q103.95 524.677 105.756 521.135 Q107.584 517.57 107.584 510.464 Q107.584 503.334 105.756 499.793 Q103.95 496.228 100.316 496.228 M100.316 492.524 Q106.126 492.524 109.181 497.131 Q112.26 501.714 112.26 510.464 Q112.26 519.191 109.181 523.797 Q106.126 528.38 100.316 528.38 Q94.5056 528.38 91.4269 523.797 Q88.3714 519.191 88.3714 510.464 Q88.3714 501.714 91.4269 497.131 Q94.5056 492.524 100.316 492.524 Z" fill="#000000" fill-rule="evenodd" fill-opacity="1" /><path clip-path="url(#clip780)" d="M120.478 521.83 L125.362 521.83 L125.362 527.709 L120.478 527.709 L120.478 521.83 Z" fill="#000000" fill-rule="evenodd" fill-opacity="1" /><path clip-path="url(#clip780)" d="M135.593 493.149 L153.95 493.149 L153.95 497.084 L139.876 497.084 L139.876 505.557 Q140.894 505.209 141.913 505.047 Q142.931 504.862 143.95 504.862 Q149.737 504.862 153.116 508.033 Q156.496 511.205 156.496 516.621 Q156.496 522.2 153.024 525.302 Q149.552 528.38 143.232 528.38 Q141.056 528.38 138.788 528.01 Q136.542 527.64 134.135 526.899 L134.135 522.2 Q136.218 523.334 138.441 523.89 Q140.663 524.445 143.14 524.445 Q147.144 524.445 149.482 522.339 Q151.82 520.232 151.82 516.621 Q151.82 513.01 149.482 510.904 Q147.144 508.797 143.14 508.797 Q141.265 508.797 139.39 509.214 Q137.538 509.631 135.593 510.51 L135.593 493.149 Z" fill="#000000" fill-rule="evenodd" fill-opacity="1" /><path clip-path="url(#clip780)" d="M90.1306 110.192 L97.7695 110.192 L97.7695 83.8259 L89.4593 85.4926 L89.4593 81.2333 L97.7232 79.5667 L102.399 79.5667 L102.399 110.192 L110.038 110.192 L110.038 114.127 L90.1306 114.127 L90.1306 110.192 Z" fill="#000000" fill-rule="evenodd" fill-opacity="1" /><path clip-path="url(#clip780)" d="M119.482 108.247 L124.367 108.247 L124.367 114.127 L119.482 114.127 L119.482 108.247 Z" fill="#000000" fill-rule="evenodd" fill-opacity="1" /><path clip-path="url(#clip780)" d="M144.552 82.6454 Q140.941 82.6454 139.112 86.2102 Q137.306 89.7518 137.306 96.8814 Q137.306 103.988 139.112 107.553 Q140.941 111.094 144.552 111.094 Q148.186 111.094 149.991 107.553 Q151.82 103.988 151.82 96.8814 Q151.82 89.7518 149.991 86.2102 Q148.186 82.6454 144.552 82.6454 M144.552 78.9417 Q150.362 78.9417 153.417 83.5481 Q156.496 88.1314 156.496 96.8814 Q156.496 105.608 153.417 110.215 Q150.362 114.798 144.552 114.798 Q138.741 114.798 135.663 110.215 Q132.607 105.608 132.607 96.8814 Q132.607 88.1314 135.663 83.5481 Q138.741 78.9417 144.552 78.9417 Z" fill="#000000" fill-rule="evenodd" fill-opacity="1" /><polyline clip-path="url(#clip782)" style="stroke:#009af9; stroke-linecap:butt; stroke-linejoin:round; stroke-width:4; stroke-opacity:1; fill:none" points="
  2245.9,924.012 2245.49,897.899 2244.25,871.813 2242.19,845.779 2239.31,819.822 2235.61,793.97 2231.1,768.247 2225.78,742.679 2219.65,717.292 2212.73,692.112 
  2205.01,667.162 2196.51,642.468 2187.23,618.056 2177.19,593.948 2166.4,570.169 2154.85,546.742 2142.58,523.692 2129.58,501.041 2115.87,478.812 2101.47,457.026 
  2086.39,435.706 2070.64,414.872 2054.24,394.546 2037.21,374.748 2019.56,355.498 2001.32,336.814 1982.49,318.715 1963.1,301.22 1943.17,284.346 1922.71,268.109 
  1901.76,252.526 1880.32,237.612 1858.42,223.383 1836.08,209.852 1813.33,197.033 1790.18,184.939 1766.66,173.581 1742.8,162.971 1718.61,153.12 1694.13,144.038 
  1669.37,135.733 1644.36,128.213 1619.13,121.487 1593.69,115.561 1568.08,110.441 1542.32,106.132 1516.44,102.638 1490.47,99.9628 1464.42,98.109 1438.32,97.0786 
  1412.21,96.8724 1386.1,97.4908 1360.02,98.9331 1334,101.198 1308.07,104.283 1282.25,108.185 1256.56,112.9 1231.04,118.424 1205.7,124.751 1180.57,131.874 
  1155.69,139.787 1131.06,148.482 1106.72,157.95 1082.69,168.182 1059,179.167 1035.67,190.894 1012.71,203.353 990.166,216.529 968.046,230.411 946.374,244.985 
  925.174,260.235 904.465,276.147 884.269,292.704 864.606,309.891 845.496,327.69 826.956,346.084 809.007,365.053 791.665,384.58 774.949,404.645 758.874,425.227 
  743.457,446.306 728.713,467.862 714.657,489.872 701.303,512.315 688.664,535.169 676.752,558.41 665.581,582.015 655.16,605.962 645.5,630.225 636.611,654.782 
  628.502,679.606 621.18,704.675 614.653,729.962 608.928,755.442 604.01,781.09 599.904,806.881 596.615,832.789 594.145,858.788 592.497,884.851 591.672,910.954 
  591.672,937.07 592.497,963.172 594.145,989.236 596.615,1015.23 599.904,1041.14 604.01,1066.93 608.928,1092.58 614.653,1118.06 621.18,1143.35 628.502,1168.42 
  636.611,1193.24 645.5,1217.8 655.16,1242.06 665.581,1266.01 676.752,1289.61 688.664,1312.85 701.303,1335.71 714.657,1358.15 728.713,1380.16 743.457,1401.72 
  758.874,1422.8 774.949,1443.38 791.665,1463.44 809.007,1482.97 826.956,1501.94 845.496,1520.33 864.606,1538.13 884.269,1555.32 904.465,1571.88 925.174,1587.79 
  946.374,1603.04 968.046,1617.61 990.166,1631.49 1012.71,1644.67 1035.67,1657.13 1059,1668.86 1082.69,1679.84 1106.72,1690.07 1131.06,1699.54 1155.69,1708.24 
  1180.57,1716.15 1205.7,1723.27 1231.04,1729.6 1256.56,1735.12 1282.25,1739.84 1308.07,1743.74 1334,1746.83 1360.02,1749.09 1386.1,1750.53 1412.21,1751.15 
  1438.32,1750.94 1464.42,1749.91 1490.47,1748.06 1516.44,1745.39 1542.32,1741.89 1568.08,1737.58 1593.69,1732.46 1619.13,1726.54 1644.36,1719.81 1669.37,1712.29 
  1694.13,1703.99 1718.61,1694.9 1742.8,1685.05 1766.66,1674.44 1790.18,1663.08 1813.33,1650.99 1836.08,1638.17 1858.42,1624.64 1880.32,1610.41 1901.76,1595.5 
  1922.71,1579.91 1943.17,1563.68 1963.1,1546.8 1982.49,1529.31 2001.32,1511.21 2019.56,1492.53 2037.21,1473.28 2054.24,1453.48 2070.64,1433.15 2086.39,1412.32 
  2101.47,1391 2115.87,1369.21 2129.58,1346.98 2142.58,1324.33 2154.85,1301.28 2166.4,1277.85 2177.19,1254.08 2187.23,1229.97 2196.51,1205.55 2205.01,1180.86 
  2212.73,1155.91 2219.65,1130.73 2225.78,1105.34 2231.1,1079.78 2235.61,1054.05 2239.31,1028.2 2242.19,1002.24 2244.25,976.21 2245.49,950.124 2245.9,924.012 
  
  "/>
<path clip-path="url(#clip780)" d="
M2235.31 209.375 L2559.29 209.375 L2559.29 105.695 L2235.31 105.695  Z
  " fill="#ffffff" fill-rule="evenodd" fill-opacity="1"/>
<polyline clip-path="url(#clip780)" style="stroke:#000000; stroke-linecap:butt; stroke-linejoin:round; stroke-width:4; stroke-opacity:1; fill:none" points="
  2235.31,209.375 2559.29,209.375 2559.29,105.695 2235.31,105.695 2235.31,209.375 
  "/>
<polyline clip-path="url(#clip780)" style="stroke:#009af9; stroke-linecap:butt; stroke-linejoin:round; stroke-width:4; stroke-opacity:1; fill:none" points="
  2262.47,157.535 2425.4,157.535 
  "/>
<path clip-path="url(#clip780)" d="M2466.39 177.223 Q2464.59 181.852 2462.88 183.264 Q2461.16 184.676 2458.29 184.676 L2454.89 184.676 L2454.89 181.112 L2457.39 181.112 Q2459.15 181.112 2460.12 180.278 Q2461.09 179.445 2462.27 176.343 L2463.04 174.399 L2452.55 148.889 L2457.07 148.889 L2465.17 169.167 L2473.27 148.889 L2477.78 148.889 L2466.39 177.223 Z" fill="#000000" fill-rule="evenodd" fill-opacity="1" /><path clip-path="url(#clip780)" d="M2485.07 170.88 L2492.71 170.88 L2492.71 144.515 L2484.4 146.181 L2484.4 141.922 L2492.67 140.255 L2497.34 140.255 L2497.34 170.88 L2504.98 170.88 L2504.98 174.815 L2485.07 174.815 L2485.07 170.88 Z" fill="#000000" fill-rule="evenodd" fill-opacity="1" /></svg>
