<?xml version="1.0" encoding="utf-8"?>
<svg xmlns="http://www.w3.org/2000/svg" xmlns:xlink="http://www.w3.org/1999/xlink" width="672" height="480" viewBox="0 0 2688 1920">
<defs>
  <clipPath id="clip310">
    <rect x="0" y="0" width="2688" height="1920"/>
  </clipPath>
</defs>
<path clip-path="url(#clip310)" d="
M0 1920 L2688 1920 L2688 0 L0 0  Z
  " fill="#ffffff" fill-rule="evenodd" fill-opacity="1"/>
<defs>
  <clipPath id="clip311">
    <rect x="537" y="0" width="1883" height="1883"/>
  </clipPath>
</defs>
<path clip-path="url(#clip310)" d="
M196.816 1800.78 L2640.76 1800.78 L2640.76 47.2441 L196.816 47.2441  Z
  " fill="#ffffff" fill-rule="evenodd" fill-opacity="1"/>
<defs>
  <clipPath id="clip312">
    <rect x="196" y="47" width="2445" height="1755"/>
  </clipPath>
</defs>
<polyline clip-path="url(#clip312)" style="stroke:#000000; stroke-linecap:butt; stroke-linejoin:round; stroke-width:2; stroke-opacity:0.1; fill:none" points="
  265.984,1800.78 265.984,47.2441 
  "/>
<polyline clip-path="url(#clip312)" style="stroke:#000000; stroke-linecap:butt; stroke-linejoin:round; stroke-width:2; stroke-opacity:0.1; fill:none" points="
  842.385,1800.78 842.385,47.2441 
  "/>
<polyline clip-path="url(#clip312)" style="stroke:#000000; stroke-linecap:butt; stroke-linejoin:round; stroke-width:2; stroke-opacity:0.1; fill:none" points="
  1418.79,1800.78 1418.79,47.2441 
  "/>
<polyline clip-path="url(#clip312)" style="stroke:#000000; stroke-linecap:butt; stroke-linejoin:round; stroke-width:2; stroke-opacity:0.1; fill:none" points="
  1995.19,1800.78 1995.19,47.2441 
  "/>
<polyline clip-path="url(#clip312)" style="stroke:#000000; stroke-linecap:butt; stroke-linejoin:round; stroke-width:2; stroke-opacity:0.1; fill:none" points="
  2571.59,1800.78 2571.59,47.2441 
  "/>
<polyline clip-path="url(#clip310)" style="stroke:#000000; stroke-linecap:butt; stroke-linejoin:round; stroke-width:4; stroke-opacity:1; fill:none" points="
  196.816,1800.78 2640.76,1800.78 
  "/>
<polyline clip-path="url(#clip310)" style="stroke:#000000; stroke-linecap:butt; stroke-linejoin:round; stroke-width:4; stroke-opacity:1; fill:none" points="
  265.984,1800.78 265.984,1781.88 
  "/>
<polyline clip-path="url(#clip310)" style="stroke:#000000; stroke-linecap:butt; stroke-linejoin:round; stroke-width:4; stroke-opacity:1; fill:none" points="
  842.385,1800.78 842.385,1781.88 
  "/>
<polyline clip-path="url(#clip310)" style="stroke:#000000; stroke-linecap:butt; stroke-linejoin:round; stroke-width:4; stroke-opacity:1; fill:none" points="
  1418.79,1800.78 1418.79,1781.88 
  "/>
<polyline clip-path="url(#clip310)" style="stroke:#000000; stroke-linecap:butt; stroke-linejoin:round; stroke-width:4; stroke-opacity:1; fill:none" points="
  1995.19,1800.78 1995.19,1781.88 
  "/>
<polyline clip-path="url(#clip310)" style="stroke:#000000; stroke-linecap:butt; stroke-linejoin:round; stroke-width:4; stroke-opacity:1; fill:none" points="
  2571.59,1800.78 2571.59,1781.88 
  "/>
<path clip-path="url(#clip310)" d="M212.512 1848.65 L242.188 1848.65 L242.188 1852.59 L212.512 1852.59 L212.512 1848.65 Z" fill="#000000" fill-rule="evenodd" fill-opacity="1" /><path clip-path="url(#clip310)" d="M253.091 1861.55 L260.73 1861.55 L260.73 1835.18 L252.419 1836.85 L252.419 1832.59 L260.683 1830.92 L265.359 1830.92 L265.359 1861.55 L272.998 1861.55 L272.998 1865.48 L253.091 1865.48 L253.091 1861.55 Z" fill="#000000" fill-rule="evenodd" fill-opacity="1" /><path clip-path="url(#clip310)" d="M282.442 1859.6 L287.327 1859.6 L287.327 1865.48 L282.442 1865.48 L282.442 1859.6 Z" fill="#000000" fill-rule="evenodd" fill-opacity="1" /><path clip-path="url(#clip310)" d="M307.512 1834 Q303.901 1834 302.072 1837.57 Q300.266 1841.11 300.266 1848.24 Q300.266 1855.34 302.072 1858.91 Q303.901 1862.45 307.512 1862.45 Q311.146 1862.45 312.951 1858.91 Q314.78 1855.34 314.78 1848.24 Q314.78 1841.11 312.951 1837.57 Q311.146 1834 307.512 1834 M307.512 1830.3 Q313.322 1830.3 316.377 1834.9 Q319.456 1839.49 319.456 1848.24 Q319.456 1856.96 316.377 1861.57 Q313.322 1866.15 307.512 1866.15 Q301.702 1866.15 298.623 1861.57 Q295.567 1856.96 295.567 1848.24 Q295.567 1839.49 298.623 1834.9 Q301.702 1830.3 307.512 1830.3 Z" fill="#000000" fill-rule="evenodd" fill-opacity="1" /><path clip-path="url(#clip310)" d="M789.411 1848.65 L819.087 1848.65 L819.087 1852.59 L789.411 1852.59 L789.411 1848.65 Z" fill="#000000" fill-rule="evenodd" fill-opacity="1" /><path clip-path="url(#clip310)" d="M839.179 1834 Q835.568 1834 833.739 1837.57 Q831.934 1841.11 831.934 1848.24 Q831.934 1855.34 833.739 1858.91 Q835.568 1862.45 839.179 1862.45 Q842.813 1862.45 844.619 1858.91 Q846.448 1855.34 846.448 1848.24 Q846.448 1841.11 844.619 1837.57 Q842.813 1834 839.179 1834 M839.179 1830.3 Q844.989 1830.3 848.045 1834.9 Q851.123 1839.49 851.123 1848.24 Q851.123 1856.96 848.045 1861.57 Q844.989 1866.15 839.179 1866.15 Q833.369 1866.15 830.29 1861.57 Q827.235 1856.96 827.235 1848.24 Q827.235 1839.49 830.29 1834.9 Q833.369 1830.3 839.179 1830.3 Z" fill="#000000" fill-rule="evenodd" fill-opacity="1" /><path clip-path="url(#clip310)" d="M859.341 1859.6 L864.225 1859.6 L864.225 1865.48 L859.341 1865.48 L859.341 1859.6 Z" fill="#000000" fill-rule="evenodd" fill-opacity="1" /><path clip-path="url(#clip310)" d="M874.457 1830.92 L892.813 1830.92 L892.813 1834.86 L878.739 1834.86 L878.739 1843.33 Q879.758 1842.98 880.776 1842.82 Q881.795 1842.64 882.813 1842.64 Q888.6 1842.64 891.98 1845.81 Q895.359 1848.98 895.359 1854.4 Q895.359 1859.97 891.887 1863.08 Q888.415 1866.15 882.095 1866.15 Q879.92 1866.15 877.651 1865.78 Q875.406 1865.41 872.998 1864.67 L872.998 1859.97 Q875.082 1861.11 877.304 1861.66 Q879.526 1862.22 882.003 1862.22 Q886.007 1862.22 888.345 1860.11 Q890.683 1858.01 890.683 1854.4 Q890.683 1850.78 888.345 1848.68 Q886.007 1846.57 882.003 1846.57 Q880.128 1846.57 878.253 1846.99 Q876.401 1847.4 874.457 1848.28 L874.457 1830.92 Z" fill="#000000" fill-rule="evenodd" fill-opacity="1" /><path clip-path="url(#clip310)" d="M1396.17 1834 Q1392.56 1834 1390.73 1837.57 Q1388.93 1841.11 1388.93 1848.24 Q1388.93 1855.34 1390.73 1858.91 Q1392.56 1862.45 1396.17 1862.45 Q1399.8 1862.45 1401.61 1858.91 Q1403.44 1855.34 1403.44 1848.24 Q1403.44 1841.11 1401.61 1837.57 Q1399.8 1834 1396.17 1834 M1396.17 1830.3 Q1401.98 1830.3 1405.04 1834.9 Q1408.11 1839.49 1408.11 1848.24 Q1408.11 1856.96 1405.04 1861.57 Q1401.98 1866.15 1396.17 1866.15 Q1390.36 1866.15 1387.28 1861.57 Q1384.23 1856.96 1384.23 1848.24 Q1384.23 1839.49 1387.28 1834.9 Q1390.36 1830.3 1396.17 1830.3 Z" fill="#000000" fill-rule="evenodd" fill-opacity="1" /><path clip-path="url(#clip310)" d="M1416.33 1859.6 L1421.22 1859.6 L1421.22 1865.48 L1416.33 1865.48 L1416.33 1859.6 Z" fill="#000000" fill-rule="evenodd" fill-opacity="1" /><path clip-path="url(#clip310)" d="M1441.4 1834 Q1437.79 1834 1435.96 1837.57 Q1434.16 1841.11 1434.16 1848.24 Q1434.16 1855.34 1435.96 1858.91 Q1437.79 1862.45 1441.4 1862.45 Q1445.04 1862.45 1446.84 1858.91 Q1448.67 1855.34 1448.67 1848.24 Q1448.67 1841.11 1446.84 1837.57 Q1445.04 1834 1441.4 1834 M1441.4 1830.3 Q1447.21 1830.3 1450.27 1834.9 Q1453.35 1839.49 1453.35 1848.24 Q1453.35 1856.96 1450.27 1861.57 Q1447.21 1866.15 1441.4 1866.15 Q1435.59 1866.15 1432.51 1861.57 Q1429.46 1856.96 1429.46 1848.24 Q1429.46 1839.49 1432.51 1834.9 Q1435.59 1830.3 1441.4 1830.3 Z" fill="#000000" fill-rule="evenodd" fill-opacity="1" /><path clip-path="url(#clip310)" d="M1973.07 1834 Q1969.46 1834 1967.63 1837.57 Q1965.82 1841.11 1965.82 1848.24 Q1965.82 1855.34 1967.63 1858.91 Q1969.46 1862.45 1973.07 1862.45 Q1976.7 1862.45 1978.51 1858.91 Q1980.34 1855.34 1980.34 1848.24 Q1980.34 1841.11 1978.51 1837.57 Q1976.7 1834 1973.07 1834 M1973.07 1830.3 Q1978.88 1830.3 1981.93 1834.9 Q1985.01 1839.49 1985.01 1848.24 Q1985.01 1856.96 1981.93 1861.57 Q1978.88 1866.15 1973.07 1866.15 Q1967.26 1866.15 1964.18 1861.57 Q1961.12 1856.96 1961.12 1848.24 Q1961.12 1839.49 1964.18 1834.9 Q1967.26 1830.3 1973.07 1830.3 Z" fill="#000000" fill-rule="evenodd" fill-opacity="1" /><path clip-path="url(#clip310)" d="M1993.23 1859.6 L1998.12 1859.6 L1998.12 1865.48 L1993.23 1865.48 L1993.23 1859.6 Z" fill="#000000" fill-rule="evenodd" fill-opacity="1" /><path clip-path="url(#clip310)" d="M2008.35 1830.92 L2026.7 1830.92 L2026.7 1834.86 L2012.63 1834.86 L2012.63 1843.33 Q2013.65 1842.98 2014.67 1842.82 Q2015.68 1842.64 2016.7 1842.64 Q2022.49 1842.64 2025.87 1845.81 Q2029.25 1848.98 2029.25 1854.4 Q2029.25 1859.97 2025.78 1863.08 Q2022.3 1866.15 2015.99 1866.15 Q2013.81 1866.15 2011.54 1865.78 Q2009.3 1865.41 2006.89 1864.67 L2006.89 1859.97 Q2008.97 1861.11 2011.19 1861.66 Q2013.42 1862.22 2015.89 1862.22 Q2019.9 1862.22 2022.24 1860.11 Q2024.57 1858.01 2024.57 1854.4 Q2024.57 1850.78 2022.24 1848.68 Q2019.9 1846.57 2015.89 1846.57 Q2014.02 1846.57 2012.14 1846.99 Q2010.29 1847.4 2008.35 1848.28 L2008.35 1830.92 Z" fill="#000000" fill-rule="evenodd" fill-opacity="1" /><path clip-path="url(#clip310)" d="M2538.74 1861.55 L2546.38 1861.55 L2546.38 1835.18 L2538.07 1836.85 L2538.07 1832.59 L2546.33 1830.92 L2551.01 1830.92 L2551.01 1861.55 L2558.65 1861.55 L2558.65 1865.48 L2538.74 1865.48 L2538.74 1861.55 Z" fill="#000000" fill-rule="evenodd" fill-opacity="1" /><path clip-path="url(#clip310)" d="M2568.09 1859.6 L2572.98 1859.6 L2572.98 1865.48 L2568.09 1865.48 L2568.09 1859.6 Z" fill="#000000" fill-rule="evenodd" fill-opacity="1" /><path clip-path="url(#clip310)" d="M2593.16 1834 Q2589.55 1834 2587.72 1837.57 Q2585.92 1841.11 2585.92 1848.24 Q2585.92 1855.34 2587.72 1858.91 Q2589.55 1862.45 2593.16 1862.45 Q2596.8 1862.45 2598.6 1858.91 Q2600.43 1855.34 2600.43 1848.24 Q2600.43 1841.11 2598.6 1837.57 Q2596.8 1834 2593.16 1834 M2593.16 1830.3 Q2598.97 1830.3 2602.03 1834.9 Q2605.11 1839.49 2605.11 1848.24 Q2605.11 1856.96 2602.03 1861.57 Q2598.97 1866.15 2593.16 1866.15 Q2587.35 1866.15 2584.27 1861.57 Q2581.22 1856.96 2581.22 1848.24 Q2581.22 1839.49 2584.27 1834.9 Q2587.35 1830.3 2593.16 1830.3 Z" fill="#000000" fill-rule="evenodd" fill-opacity="1" /><polyline clip-path="url(#clip312)" style="stroke:#000000; stroke-linecap:butt; stroke-linejoin:round; stroke-width:2; stroke-opacity:0.1; fill:none" points="
  196.816,1713.87 2640.76,1713.87 
  "/>
<polyline clip-path="url(#clip312)" style="stroke:#000000; stroke-linecap:butt; stroke-linejoin:round; stroke-width:2; stroke-opacity:0.1; fill:none" points="
  196.816,1450.58 2640.76,1450.58 
  "/>
<polyline clip-path="url(#clip312)" style="stroke:#000000; stroke-linecap:butt; stroke-linejoin:round; stroke-width:2; stroke-opacity:0.1; fill:none" points="
  196.816,1187.3 2640.76,1187.3 
  "/>
<polyline clip-path="url(#clip312)" style="stroke:#000000; stroke-linecap:butt; stroke-linejoin:round; stroke-width:2; stroke-opacity:0.1; fill:none" points="
  196.816,924.012 2640.76,924.012 
  "/>
<polyline clip-path="url(#clip312)" style="stroke:#000000; stroke-linecap:butt; stroke-linejoin:round; stroke-width:2; stroke-opacity:0.1; fill:none" points="
  196.816,660.725 2640.76,660.725 
  "/>
<polyline clip-path="url(#clip312)" style="stroke:#000000; stroke-linecap:butt; stroke-linejoin:round; stroke-width:2; stroke-opacity:0.1; fill:none" points="
  196.816,397.438 2640.76,397.438 
  "/>
<polyline clip-path="url(#clip312)" style="stroke:#000000; stroke-linecap:butt; stroke-linejoin:round; stroke-width:2; stroke-opacity:0.1; fill:none" points="
  196.816,134.152 2640.76,134.152 
  "/>
<polyline clip-path="url(#clip310)" style="stroke:#000000; stroke-linecap:butt; stroke-linejoin:round; stroke-width:4; stroke-opacity:1; fill:none" points="
  196.816,1800.78 196.816,47.2441 
  "/>
<polyline clip-path="url(#clip310)" style="stroke:#000000; stroke-linecap:butt; stroke-linejoin:round; stroke-width:4; stroke-opacity:1; fill:none" points="
  196.816,1713.87 215.714,1713.87 
  "/>
<polyline clip-path="url(#clip310)" style="stroke:#000000; stroke-linecap:butt; stroke-linejoin:round; stroke-width:4; stroke-opacity:1; fill:none" points="
  196.816,1450.58 215.714,1450.58 
  "/>
<polyline clip-path="url(#clip310)" style="stroke:#000000; stroke-linecap:butt; stroke-linejoin:round; stroke-width:4; stroke-opacity:1; fill:none" points="
  196.816,1187.3 215.714,1187.3 
  "/>
<polyline clip-path="url(#clip310)" style="stroke:#000000; stroke-linecap:butt; stroke-linejoin:round; stroke-width:4; stroke-opacity:1; fill:none" points="
  196.816,924.012 215.714,924.012 
  "/>
<polyline clip-path="url(#clip310)" style="stroke:#000000; stroke-linecap:butt; stroke-linejoin:round; stroke-width:4; stroke-opacity:1; fill:none" points="
  196.816,660.725 215.714,660.725 
  "/>
<polyline clip-path="url(#clip310)" style="stroke:#000000; stroke-linecap:butt; stroke-linejoin:round; stroke-width:4; stroke-opacity:1; fill:none" points="
  196.816,397.438 215.714,397.438 
  "/>
<polyline clip-path="url(#clip310)" style="stroke:#000000; stroke-linecap:butt; stroke-linejoin:round; stroke-width:4; stroke-opacity:1; fill:none" points="
  196.816,134.152 215.714,134.152 
  "/>
<path clip-path="url(#clip310)" d="M50.5475 1714.32 L80.2233 1714.32 L80.2233 1718.26 L50.5475 1718.26 L50.5475 1714.32 Z" fill="#000000" fill-rule="evenodd" fill-opacity="1" /><path clip-path="url(#clip310)" d="M91.126 1727.22 L98.7648 1727.22 L98.7648 1700.85 L90.4547 1702.52 L90.4547 1698.26 L98.7185 1696.59 L103.394 1696.59 L103.394 1727.22 L111.033 1727.22 L111.033 1731.15 L91.126 1731.15 L91.126 1727.22 Z" fill="#000000" fill-rule="evenodd" fill-opacity="1" /><path clip-path="url(#clip310)" d="M120.478 1725.27 L125.362 1725.27 L125.362 1731.15 L120.478 1731.15 L120.478 1725.27 Z" fill="#000000" fill-rule="evenodd" fill-opacity="1" /><path clip-path="url(#clip310)" d="M135.593 1696.59 L153.95 1696.59 L153.95 1700.53 L139.876 1700.53 L139.876 1709 Q140.894 1708.65 141.913 1708.49 Q142.931 1708.3 143.95 1708.3 Q149.737 1708.3 153.116 1711.48 Q156.496 1714.65 156.496 1720.06 Q156.496 1725.64 153.024 1728.74 Q149.552 1731.82 143.232 1731.82 Q141.056 1731.82 138.788 1731.45 Q136.542 1731.08 134.135 1730.34 L134.135 1725.64 Q136.218 1726.78 138.441 1727.33 Q140.663 1727.89 143.14 1727.89 Q147.144 1727.89 149.482 1725.78 Q151.82 1723.67 151.82 1720.06 Q151.82 1716.45 149.482 1714.35 Q147.144 1712.24 143.14 1712.24 Q141.265 1712.24 139.39 1712.66 Q137.538 1713.07 135.593 1713.95 L135.593 1696.59 Z" fill="#000000" fill-rule="evenodd" fill-opacity="1" /><path clip-path="url(#clip310)" d="M49.5521 1451.04 L79.2279 1451.04 L79.2279 1454.97 L49.5521 1454.97 L49.5521 1451.04 Z" fill="#000000" fill-rule="evenodd" fill-opacity="1" /><path clip-path="url(#clip310)" d="M90.1306 1463.93 L97.7695 1463.93 L97.7695 1437.56 L89.4593 1439.23 L89.4593 1434.97 L97.7232 1433.3 L102.399 1433.3 L102.399 1463.93 L110.038 1463.93 L110.038 1467.86 L90.1306 1467.86 L90.1306 1463.93 Z" fill="#000000" fill-rule="evenodd" fill-opacity="1" /><path clip-path="url(#clip310)" d="M119.482 1461.99 L124.367 1461.99 L124.367 1467.86 L119.482 1467.86 L119.482 1461.99 Z" fill="#000000" fill-rule="evenodd" fill-opacity="1" /><path clip-path="url(#clip310)" d="M144.552 1436.38 Q140.941 1436.38 139.112 1439.95 Q137.306 1443.49 137.306 1450.62 Q137.306 1457.73 139.112 1461.29 Q140.941 1464.83 144.552 1464.83 Q148.186 1464.83 149.991 1461.29 Q151.82 1457.73 151.82 1450.62 Q151.82 1443.49 149.991 1439.95 Q148.186 1436.38 144.552 1436.38 M144.552 1432.68 Q150.362 1432.68 153.417 1437.29 Q156.496 1441.87 156.496 1450.62 Q156.496 1459.35 153.417 1463.95 Q150.362 1468.54 144.552 1468.54 Q138.741 1468.54 135.663 1463.95 Q132.607 1459.35 132.607 1450.62 Q132.607 1441.87 135.663 1437.29 Q138.741 1432.68 144.552 1432.68 Z" fill="#000000" fill-rule="evenodd" fill-opacity="1" /><path clip-path="url(#clip310)" d="M50.5475 1187.75 L80.2233 1187.75 L80.2233 1191.68 L50.5475 1191.68 L50.5475 1187.75 Z" fill="#000000" fill-rule="evenodd" fill-opacity="1" /><path clip-path="url(#clip310)" d="M100.316 1173.1 Q96.7047 1173.1 94.876 1176.66 Q93.0704 1180.2 93.0704 1187.33 Q93.0704 1194.44 94.876 1198 Q96.7047 1201.55 100.316 1201.55 Q103.95 1201.55 105.756 1198 Q107.584 1194.44 107.584 1187.33 Q107.584 1180.2 105.756 1176.66 Q103.95 1173.1 100.316 1173.1 M100.316 1169.39 Q106.126 1169.39 109.181 1174 Q112.26 1178.58 112.26 1187.33 Q112.26 1196.06 109.181 1200.67 Q106.126 1205.25 100.316 1205.25 Q94.5056 1205.25 91.4269 1200.67 Q88.3714 1196.06 88.3714 1187.33 Q88.3714 1178.58 91.4269 1174 Q94.5056 1169.39 100.316 1169.39 Z" fill="#000000" fill-rule="evenodd" fill-opacity="1" /><path clip-path="url(#clip310)" d="M120.478 1198.7 L125.362 1198.7 L125.362 1204.58 L120.478 1204.58 L120.478 1198.7 Z" fill="#000000" fill-rule="evenodd" fill-opacity="1" /><path clip-path="url(#clip310)" d="M135.593 1170.02 L153.95 1170.02 L153.95 1173.95 L139.876 1173.95 L139.876 1182.43 Q140.894 1182.08 141.913 1181.92 Q142.931 1181.73 143.95 1181.73 Q149.737 1181.73 153.116 1184.9 Q156.496 1188.07 156.496 1193.49 Q156.496 1199.07 153.024 1202.17 Q149.552 1205.25 143.232 1205.25 Q141.056 1205.25 138.788 1204.88 Q136.542 1204.51 134.135 1203.77 L134.135 1199.07 Q136.218 1200.2 138.441 1200.76 Q140.663 1201.31 143.14 1201.31 Q147.144 1201.31 149.482 1199.21 Q151.82 1197.1 151.82 1193.49 Q151.82 1189.88 149.482 1187.77 Q147.144 1185.67 143.14 1185.67 Q141.265 1185.67 139.39 1186.08 Q137.538 1186.5 135.593 1187.38 L135.593 1170.02 Z" fill="#000000" fill-rule="evenodd" fill-opacity="1" /><path clip-path="url(#clip310)" d="M99.3204 909.81 Q95.7093 909.81 93.8806 913.375 Q92.075 916.917 92.075 924.046 Q92.075 931.153 93.8806 934.718 Q95.7093 938.259 99.3204 938.259 Q102.955 938.259 104.76 934.718 Q106.589 931.153 106.589 924.046 Q106.589 916.917 104.76 913.375 Q102.955 909.81 99.3204 909.81 M99.3204 906.107 Q105.131 906.107 108.186 910.713 Q111.265 915.296 111.265 924.046 Q111.265 932.773 108.186 937.38 Q105.131 941.963 99.3204 941.963 Q93.5102 941.963 90.4315 937.38 Q87.376 932.773 87.376 924.046 Q87.376 915.296 90.4315 910.713 Q93.5102 906.107 99.3204 906.107 Z" fill="#000000" fill-rule="evenodd" fill-opacity="1" /><path clip-path="url(#clip310)" d="M119.482 935.412 L124.367 935.412 L124.367 941.292 L119.482 941.292 L119.482 935.412 Z" fill="#000000" fill-rule="evenodd" fill-opacity="1" /><path clip-path="url(#clip310)" d="M144.552 909.81 Q140.941 909.81 139.112 913.375 Q137.306 916.917 137.306 924.046 Q137.306 931.153 139.112 934.718 Q140.941 938.259 144.552 938.259 Q148.186 938.259 149.991 934.718 Q151.82 931.153 151.82 924.046 Q151.82 916.917 149.991 913.375 Q148.186 909.81 144.552 909.81 M144.552 906.107 Q150.362 906.107 153.417 910.713 Q156.496 915.296 156.496 924.046 Q156.496 932.773 153.417 937.38 Q150.362 941.963 144.552 941.963 Q138.741 941.963 135.663 937.38 Q132.607 932.773 132.607 924.046 Q132.607 915.296 135.663 910.713 Q138.741 906.107 144.552 906.107 Z" fill="#000000" fill-rule="evenodd" fill-opacity="1" /><path clip-path="url(#clip310)" d="M100.316 646.524 Q96.7047 646.524 94.876 650.089 Q93.0704 653.63 93.0704 660.76 Q93.0704 667.866 94.876 671.431 Q96.7047 674.973 100.316 674.973 Q103.95 674.973 105.756 671.431 Q107.584 667.866 107.584 660.76 Q107.584 653.63 105.756 650.089 Q103.95 646.524 100.316 646.524 M100.316 642.82 Q106.126 642.82 109.181 647.427 Q112.26 652.01 112.26 660.76 Q112.26 669.487 109.181 674.093 Q106.126 678.676 100.316 678.676 Q94.5056 678.676 91.4269 674.093 Q88.3714 669.487 88.3714 660.76 Q88.3714 652.01 91.4269 647.427 Q94.5056 642.82 100.316 642.82 Z" fill="#000000" fill-rule="evenodd" fill-opacity="1" /><path clip-path="url(#clip310)" d="M120.478 672.126 L125.362 672.126 L125.362 678.005 L120.478 678.005 L120.478 672.126 Z" fill="#000000" fill-rule="evenodd" fill-opacity="1" /><path clip-path="url(#clip310)" d="M135.593 643.445 L153.95 643.445 L153.95 647.38 L139.876 647.38 L139.876 655.852 Q140.894 655.505 141.913 655.343 Q142.931 655.158 143.95 655.158 Q149.737 655.158 153.116 658.329 Q156.496 661.501 156.496 666.917 Q156.496 672.496 153.024 675.598 Q149.552 678.676 143.232 678.676 Q141.056 678.676 138.788 678.306 Q136.542 677.936 134.135 677.195 L134.135 672.496 Q136.218 673.63 138.441 674.186 Q140.663 674.741 143.14 674.741 Q147.144 674.741 149.482 672.635 Q151.82 670.528 151.82 666.917 Q151.82 663.306 149.482 661.2 Q147.144 659.093 143.14 659.093 Q141.265 659.093 139.39 659.51 Q137.538 659.926 135.593 660.806 L135.593 643.445 Z" fill="#000000" fill-rule="evenodd" fill-opacity="1" /><path clip-path="url(#clip310)" d="M90.1306 410.783 L97.7695 410.783 L97.7695 384.418 L89.4593 386.084 L89.4593 381.825 L97.7232 380.158 L102.399 380.158 L102.399 410.783 L110.038 410.783 L110.038 414.718 L90.1306 414.718 L90.1306 410.783 Z" fill="#000000" fill-rule="evenodd" fill-opacity="1" /><path clip-path="url(#clip310)" d="M119.482 408.839 L124.367 408.839 L124.367 414.718 L119.482 414.718 L119.482 408.839 Z" fill="#000000" fill-rule="evenodd" fill-opacity="1" /><path clip-path="url(#clip310)" d="M144.552 383.237 Q140.941 383.237 139.112 386.802 Q137.306 390.344 137.306 397.473 Q137.306 404.58 139.112 408.144 Q140.941 411.686 144.552 411.686 Q148.186 411.686 149.991 408.144 Q151.82 404.58 151.82 397.473 Q151.82 390.344 149.991 386.802 Q148.186 383.237 144.552 383.237 M144.552 379.534 Q150.362 379.534 153.417 384.14 Q156.496 388.723 156.496 397.473 Q156.496 406.2 153.417 410.806 Q150.362 415.39 144.552 415.39 Q138.741 415.39 135.663 410.806 Q132.607 406.2 132.607 397.473 Q132.607 388.723 135.663 384.14 Q138.741 379.534 144.552 379.534 Z" fill="#000000" fill-rule="evenodd" fill-opacity="1" /><path clip-path="url(#clip310)" d="M91.126 147.497 L98.7648 147.497 L98.7648 121.131 L90.4547 122.798 L90.4547 118.539 L98.7185 116.872 L103.394 116.872 L103.394 147.497 L111.033 147.497 L111.033 151.432 L91.126 151.432 L91.126 147.497 Z" fill="#000000" fill-rule="evenodd" fill-opacity="1" /><path clip-path="url(#clip310)" d="M120.478 145.552 L125.362 145.552 L125.362 151.432 L120.478 151.432 L120.478 145.552 Z" fill="#000000" fill-rule="evenodd" fill-opacity="1" /><path clip-path="url(#clip310)" d="M135.593 116.872 L153.95 116.872 L153.95 120.807 L139.876 120.807 L139.876 129.279 Q140.894 128.932 141.913 128.77 Q142.931 128.585 143.95 128.585 Q149.737 128.585 153.116 131.756 Q156.496 134.927 156.496 140.344 Q156.496 145.923 153.024 149.025 Q149.552 152.103 143.232 152.103 Q141.056 152.103 138.788 151.733 Q136.542 151.362 134.135 150.622 L134.135 145.923 Q136.218 147.057 138.441 147.612 Q140.663 148.168 143.14 148.168 Q147.144 148.168 149.482 146.062 Q151.82 143.955 151.82 140.344 Q151.82 136.733 149.482 134.626 Q147.144 132.52 143.14 132.52 Q141.265 132.52 139.39 132.937 Q137.538 133.353 135.593 134.233 L135.593 116.872 Z" fill="#000000" fill-rule="evenodd" fill-opacity="1" /><polyline clip-path="url(#clip312)" style="stroke:#009af9; stroke-linecap:butt; stroke-linejoin:round; stroke-width:4; stroke-opacity:1; fill:none" points="
  265.984,1751.15 266.564,1734.44 268.305,1717.73 271.204,1701.02 275.259,1684.31 280.465,1667.6 286.817,1650.89 294.309,1634.18 302.933,1617.47 312.681,1600.76 
  323.542,1584.05 335.507,1567.34 348.562,1550.63 362.694,1533.92 377.891,1517.21 394.135,1500.5 411.411,1483.79 429.701,1467.08 448.987,1450.37 469.25,1433.66 
  490.469,1416.95 512.622,1400.24 535.689,1383.53 559.644,1366.82 584.464,1350.11 610.124,1333.4 636.599,1316.69 663.861,1299.98 691.884,1283.27 720.638,1266.56 
  750.095,1249.85 780.226,1233.14 810.999,1216.43 842.385,1199.72 874.351,1183.01 906.865,1166.31 939.895,1149.6 973.407,1132.89 1007.37,1116.18 1041.74,1099.47 
  1076.5,1082.76 1111.59,1066.05 1147,1049.34 1182.68,1032.63 1218.6,1015.92 1254.73,999.206 1291.01,982.496 1327.43,965.786 1363.93,949.077 1400.5,932.367 
  1437.08,915.657 1473.64,898.947 1510.15,882.237 1546.56,865.527 1582.85,848.817 1618.97,832.107 1654.89,815.397 1690.57,798.688 1725.98,781.978 1761.08,765.268 
  1795.83,748.558 1830.21,731.848 1864.17,715.138 1897.68,698.428 1930.71,681.718 1963.22,665.008 1995.19,648.299 2026.57,631.589 2057.35,614.879 2087.48,598.169 
  2116.93,581.459 2145.69,564.749 2173.71,548.039 2200.97,531.329 2227.45,514.62 2253.11,497.91 2277.93,481.2 2301.88,464.49 2324.95,447.78 2347.1,431.07 
  2368.32,414.36 2388.58,397.65 2407.87,380.94 2426.16,364.231 2443.44,347.521 2459.68,330.811 2474.88,314.101 2489.01,297.391 2502.07,280.681 2514.03,263.971 
  2524.89,247.261 2534.64,230.552 2543.26,213.842 2550.76,197.132 2557.11,180.422 2562.31,163.712 2566.37,147.002 2569.27,130.292 2571.01,113.582 2571.59,96.8724 
  
  "/>
<path clip-path="url(#clip310)" d="
M2235.31 209.375 L2559.29 209.375 L2559.29 105.695 L2235.31 105.695  Z
  " fill="#ffffff" fill-rule="evenodd" fill-opacity="1"/>
<polyline clip-path="url(#clip310)" style="stroke:#000000; stroke-linecap:butt; stroke-linejoin:round; stroke-width:4; stroke-opacity:1; fill:none" points="
  2235.31,209.375 2559.29,209.375 2559.29,105.695 2235.31,105.695 2235.31,209.375 
  "/>
<polyline clip-path="url(#clip310)" style="stroke:#009af9; stroke-linecap:butt; stroke-linejoin:round; stroke-width:4; stroke-opacity:1; fill:none" points="
  2262.47,157.535 2425.4,157.535 
  "/>
<path clip-path="url(#clip310)" d="M2466.39 177.223 Q2464.59 181.852 2462.88 183.264 Q2461.16 184.676 2458.29 184.676 L2454.89 184.676 L2454.89 181.112 L2457.39 181.112 Q2459.15 181.112 2460.12 180.278 Q2461.09 179.445 2462.27 176.343 L2463.04 174.399 L2452.55 148.889 L2457.07 148.889 L2465.17 169.167 L2473.27 148.889 L2477.78 148.889 L2466.39 177.223 Z" fill="#000000" fill-rule="evenodd" fill-opacity="1" /><path clip-path="url(#clip310)" d="M2485.07 170.88 L2492.71 170.88 L2492.71 144.515 L2484.4 146.181 L2484.4 141.922 L2492.67 140.255 L2497.34 140.255 L2497.34 170.88 L2504.98 170.88 L2504.98 174.815 L2485.07 174.815 L2485.07 170.88 Z" fill="#000000" fill-rule="evenodd" fill-opacity="1" /></svg>
