<?xml version="1.0" encoding="utf-8"?>
<svg xmlns="http://www.w3.org/2000/svg" xmlns:xlink="http://www.w3.org/1999/xlink" width="672" height="480" viewBox="0 0 2688 1920">
<defs>
  <clipPath id="clip010">
    <rect x="0" y="0" width="2688" height="1920"/>
  </clipPath>
</defs>
<path clip-path="url(#clip010)" d="
M0 1920 L2688 1920 L2688 0 L0 0  Z
  " fill="#ffffff" fill-rule="evenodd" fill-opacity="1"/>
<defs>
  <clipPath id="clip011">
    <rect x="537" y="0" width="1883" height="1883"/>
  </clipPath>
</defs>
<path clip-path="url(#clip010)" d="
M159.478 1800.78 L2640.76 1800.78 L2640.76 47.2441 L159.478 47.2441  Z
  " fill="#ffffff" fill-rule="evenodd" fill-opacity="1"/>
<defs>
  <clipPath id="clip012">
    <rect x="159" y="47" width="2482" height="1755"/>
  </clipPath>
</defs>
<polyline clip-path="url(#clip012)" style="stroke:#000000; stroke-linecap:round; stroke-linejoin:round; stroke-width:2; stroke-opacity:0.1; fill:none" points="
  229.703,1800.78 229.703,47.2441 
  "/>
<polyline clip-path="url(#clip012)" style="stroke:#000000; stroke-linecap:round; stroke-linejoin:round; stroke-width:2; stroke-opacity:0.1; fill:none" points="
  814.91,1800.78 814.91,47.2441 
  "/>
<polyline clip-path="url(#clip012)" style="stroke:#000000; stroke-linecap:round; stroke-linejoin:round; stroke-width:2; stroke-opacity:0.1; fill:none" points="
  1400.12,1800.78 1400.12,47.2441 
  "/>
<polyline clip-path="url(#clip012)" style="stroke:#000000; stroke-linecap:round; stroke-linejoin:round; stroke-width:2; stroke-opacity:0.1; fill:none" points="
  1985.32,1800.78 1985.32,47.2441 
  "/>
<polyline clip-path="url(#clip012)" style="stroke:#000000; stroke-linecap:round; stroke-linejoin:round; stroke-width:2; stroke-opacity:0.1; fill:none" points="
  2570.53,1800.78 2570.53,47.2441 
  "/>
<polyline clip-path="url(#clip010)" style="stroke:#000000; stroke-linecap:round; stroke-linejoin:round; stroke-width:4; stroke-opacity:1; fill:none" points="
  159.478,1800.78 2640.76,1800.78 
  "/>
<polyline clip-path="url(#clip010)" style="stroke:#000000; stroke-linecap:round; stroke-linejoin:round; stroke-width:4; stroke-opacity:1; fill:none" points="
  229.703,1800.78 229.703,1781.88 
  "/>
<polyline clip-path="url(#clip010)" style="stroke:#000000; stroke-linecap:round; stroke-linejoin:round; stroke-width:4; stroke-opacity:1; fill:none" points="
  814.91,1800.78 814.91,1781.88 
  "/>
<polyline clip-path="url(#clip010)" style="stroke:#000000; stroke-linecap:round; stroke-linejoin:round; stroke-width:4; stroke-opacity:1; fill:none" points="
  1400.12,1800.78 1400.12,1781.88 
  "/>
<polyline clip-path="url(#clip010)" style="stroke:#000000; stroke-linecap:round; stroke-linejoin:round; stroke-width:4; stroke-opacity:1; fill:none" points="
  1985.32,1800.78 1985.32,1781.88 
  "/>
<polyline clip-path="url(#clip010)" style="stroke:#000000; stroke-linecap:round; stroke-linejoin:round; stroke-width:4; stroke-opacity:1; fill:none" points="
  2570.53,1800.78 2570.53,1781.88 
  "/>
<path clip-path="url(#clip010)" d="M199.645 1848.65 L229.321 1848.65 L229.321 1852.59 L199.645 1852.59 L199.645 1848.65 Z" fill="#000000" fill-rule="evenodd" fill-opacity="1" /><path clip-path="url(#clip010)" d="M243.441 1861.55 L259.761 1861.55 L259.761 1865.48 L237.816 1865.48 L237.816 1861.55 Q240.478 1858.79 245.062 1854.16 Q249.668 1849.51 250.849 1848.17 Q253.094 1845.65 253.974 1843.91 Q254.877 1842.15 254.877 1840.46 Q254.877 1837.71 252.932 1835.97 Q251.011 1834.23 247.909 1834.23 Q245.71 1834.23 243.256 1835 Q240.826 1835.76 238.048 1837.31 L238.048 1832.59 Q240.872 1831.46 243.326 1830.88 Q245.779 1830.3 247.816 1830.3 Q253.187 1830.3 256.381 1832.98 Q259.576 1835.67 259.576 1840.16 Q259.576 1842.29 258.765 1844.21 Q257.978 1846.11 255.872 1848.7 Q255.293 1849.37 252.191 1852.59 Q249.09 1855.78 243.441 1861.55 Z" fill="#000000" fill-rule="evenodd" fill-opacity="1" /><path clip-path="url(#clip010)" d="M784.667 1848.65 L814.343 1848.65 L814.343 1852.59 L784.667 1852.59 L784.667 1848.65 Z" fill="#000000" fill-rule="evenodd" fill-opacity="1" /><path clip-path="url(#clip010)" d="M825.246 1861.55 L832.885 1861.55 L832.885 1835.18 L824.574 1836.85 L824.574 1832.59 L832.838 1830.92 L837.514 1830.92 L837.514 1861.55 L845.153 1861.55 L845.153 1865.48 L825.246 1865.48 L825.246 1861.55 Z" fill="#000000" fill-rule="evenodd" fill-opacity="1" /><path clip-path="url(#clip010)" d="M1400.12 1834 Q1396.51 1834 1394.68 1837.57 Q1392.87 1841.11 1392.87 1848.24 Q1392.87 1855.34 1394.68 1858.91 Q1396.51 1862.45 1400.12 1862.45 Q1403.75 1862.45 1405.56 1858.91 Q1407.39 1855.34 1407.39 1848.24 Q1407.39 1841.11 1405.56 1837.57 Q1403.75 1834 1400.12 1834 M1400.12 1830.3 Q1405.93 1830.3 1408.98 1834.9 Q1412.06 1839.49 1412.06 1848.24 Q1412.06 1856.96 1408.98 1861.57 Q1405.93 1866.15 1400.12 1866.15 Q1394.31 1866.15 1391.23 1861.57 Q1388.17 1856.96 1388.17 1848.24 Q1388.17 1839.49 1391.23 1834.9 Q1394.31 1830.3 1400.12 1830.3 Z" fill="#000000" fill-rule="evenodd" fill-opacity="1" /><path clip-path="url(#clip010)" d="M1975.71 1861.55 L1983.34 1861.55 L1983.34 1835.18 L1975.03 1836.85 L1975.03 1832.59 L1983.3 1830.92 L1987.97 1830.92 L1987.97 1861.55 L1995.61 1861.55 L1995.61 1865.48 L1975.71 1865.48 L1975.71 1861.55 Z" fill="#000000" fill-rule="evenodd" fill-opacity="1" /><path clip-path="url(#clip010)" d="M2565.18 1861.55 L2581.5 1861.55 L2581.5 1865.48 L2559.56 1865.48 L2559.56 1861.55 Q2562.22 1858.79 2566.8 1854.16 Q2571.41 1849.51 2572.59 1848.17 Q2574.84 1845.65 2575.72 1843.91 Q2576.62 1842.15 2576.62 1840.46 Q2576.62 1837.71 2574.67 1835.97 Q2572.75 1834.23 2569.65 1834.23 Q2567.45 1834.23 2565 1835 Q2562.57 1835.76 2559.79 1837.31 L2559.79 1832.59 Q2562.61 1831.46 2565.07 1830.88 Q2567.52 1830.3 2569.56 1830.3 Q2574.93 1830.3 2578.12 1832.98 Q2581.32 1835.67 2581.32 1840.16 Q2581.32 1842.29 2580.51 1844.21 Q2579.72 1846.11 2577.61 1848.7 Q2577.04 1849.37 2573.93 1852.59 Q2570.83 1855.78 2565.18 1861.55 Z" fill="#000000" fill-rule="evenodd" fill-opacity="1" /><polyline clip-path="url(#clip012)" style="stroke:#000000; stroke-linecap:round; stroke-linejoin:round; stroke-width:2; stroke-opacity:0.1; fill:none" points="
  159.478,1627.43 2640.76,1627.43 
  "/>
<polyline clip-path="url(#clip012)" style="stroke:#000000; stroke-linecap:round; stroke-linejoin:round; stroke-width:2; stroke-opacity:0.1; fill:none" points="
  159.478,1244.77 2640.76,1244.77 
  "/>
<polyline clip-path="url(#clip012)" style="stroke:#000000; stroke-linecap:round; stroke-linejoin:round; stroke-width:2; stroke-opacity:0.1; fill:none" points="
  159.478,862.111 2640.76,862.111 
  "/>
<polyline clip-path="url(#clip012)" style="stroke:#000000; stroke-linecap:round; stroke-linejoin:round; stroke-width:2; stroke-opacity:0.1; fill:none" points="
  159.478,479.452 2640.76,479.452 
  "/>
<polyline clip-path="url(#clip012)" style="stroke:#000000; stroke-linecap:round; stroke-linejoin:round; stroke-width:2; stroke-opacity:0.1; fill:none" points="
  159.478,96.7933 2640.76,96.7933 
  "/>
<polyline clip-path="url(#clip010)" style="stroke:#000000; stroke-linecap:round; stroke-linejoin:round; stroke-width:4; stroke-opacity:1; fill:none" points="
  159.478,1800.78 159.478,47.2441 
  "/>
<polyline clip-path="url(#clip010)" style="stroke:#000000; stroke-linecap:round; stroke-linejoin:round; stroke-width:4; stroke-opacity:1; fill:none" points="
  159.478,1627.43 178.376,1627.43 
  "/>
<polyline clip-path="url(#clip010)" style="stroke:#000000; stroke-linecap:round; stroke-linejoin:round; stroke-width:4; stroke-opacity:1; fill:none" points="
  159.478,1244.77 178.376,1244.77 
  "/>
<polyline clip-path="url(#clip010)" style="stroke:#000000; stroke-linecap:round; stroke-linejoin:round; stroke-width:4; stroke-opacity:1; fill:none" points="
  159.478,862.111 178.376,862.111 
  "/>
<polyline clip-path="url(#clip010)" style="stroke:#000000; stroke-linecap:round; stroke-linejoin:round; stroke-width:4; stroke-opacity:1; fill:none" points="
  159.478,479.452 178.376,479.452 
  "/>
<polyline clip-path="url(#clip010)" style="stroke:#000000; stroke-linecap:round; stroke-linejoin:round; stroke-width:4; stroke-opacity:1; fill:none" points="
  159.478,96.7933 178.376,96.7933 
  "/>
<path clip-path="url(#clip010)" d="M63.5798 1613.23 Q59.9687 1613.23 58.14 1616.79 Q56.3345 1620.33 56.3345 1627.46 Q56.3345 1634.57 58.14 1638.13 Q59.9687 1641.68 63.5798 1641.68 Q67.2141 1641.68 69.0196 1638.13 Q70.8483 1634.57 70.8483 1627.46 Q70.8483 1620.33 69.0196 1616.79 Q67.2141 1613.23 63.5798 1613.23 M63.5798 1609.52 Q69.39 1609.52 72.4455 1614.13 Q75.5242 1618.71 75.5242 1627.46 Q75.5242 1636.19 72.4455 1640.8 Q69.39 1645.38 63.5798 1645.38 Q57.7697 1645.38 54.691 1640.8 Q51.6354 1636.19 51.6354 1627.46 Q51.6354 1618.71 54.691 1614.13 Q57.7697 1609.52 63.5798 1609.52 Z" fill="#000000" fill-rule="evenodd" fill-opacity="1" /><path clip-path="url(#clip010)" d="M83.7418 1638.83 L88.626 1638.83 L88.626 1644.71 L83.7418 1644.71 L83.7418 1638.83 Z" fill="#000000" fill-rule="evenodd" fill-opacity="1" /><path clip-path="url(#clip010)" d="M102.839 1640.77 L119.158 1640.77 L119.158 1644.71 L97.2139 1644.71 L97.2139 1640.77 Q99.8759 1638.02 104.459 1633.39 Q109.066 1628.74 110.246 1627.39 Q112.492 1624.87 113.371 1623.13 Q114.274 1621.38 114.274 1619.69 Q114.274 1616.93 112.33 1615.19 Q110.408 1613.46 107.306 1613.46 Q105.107 1613.46 102.654 1614.22 Q100.223 1614.99 97.4454 1616.54 L97.4454 1611.82 Q100.269 1610.68 102.723 1610.1 Q105.177 1609.52 107.214 1609.52 Q112.584 1609.52 115.779 1612.21 Q118.973 1614.89 118.973 1619.38 Q118.973 1621.51 118.163 1623.44 Q117.376 1625.33 115.269 1627.93 Q114.691 1628.6 111.589 1631.81 Q108.487 1635.01 102.839 1640.77 Z" fill="#000000" fill-rule="evenodd" fill-opacity="1" /><path clip-path="url(#clip010)" d="M61.4965 1230.57 Q57.8854 1230.57 56.0567 1234.13 Q54.2512 1237.67 54.2512 1244.8 Q54.2512 1251.91 56.0567 1255.48 Q57.8854 1259.02 61.4965 1259.02 Q65.1307 1259.02 66.9363 1255.48 Q68.765 1251.91 68.765 1244.8 Q68.765 1237.67 66.9363 1234.13 Q65.1307 1230.57 61.4965 1230.57 M61.4965 1226.86 Q67.3067 1226.86 70.3622 1231.47 Q73.4409 1236.05 73.4409 1244.8 Q73.4409 1253.53 70.3622 1258.14 Q67.3067 1262.72 61.4965 1262.72 Q55.6864 1262.72 52.6077 1258.14 Q49.5521 1253.53 49.5521 1244.8 Q49.5521 1236.05 52.6077 1231.47 Q55.6864 1226.86 61.4965 1226.86 Z" fill="#000000" fill-rule="evenodd" fill-opacity="1" /><path clip-path="url(#clip010)" d="M81.6584 1256.17 L86.5427 1256.17 L86.5427 1262.05 L81.6584 1262.05 L81.6584 1256.17 Z" fill="#000000" fill-rule="evenodd" fill-opacity="1" /><path clip-path="url(#clip010)" d="M109.575 1231.56 L97.7695 1250.01 L109.575 1250.01 L109.575 1231.56 M108.348 1227.49 L114.228 1227.49 L114.228 1250.01 L119.158 1250.01 L119.158 1253.9 L114.228 1253.9 L114.228 1262.05 L109.575 1262.05 L109.575 1253.9 L93.9732 1253.9 L93.9732 1249.39 L108.348 1227.49 Z" fill="#000000" fill-rule="evenodd" fill-opacity="1" /><path clip-path="url(#clip010)" d="M61.8206 847.91 Q58.2095 847.91 56.3808 851.474 Q54.5752 855.016 54.5752 862.146 Q54.5752 869.252 56.3808 872.817 Q58.2095 876.358 61.8206 876.358 Q65.4548 876.358 67.2604 872.817 Q69.0891 869.252 69.0891 862.146 Q69.0891 855.016 67.2604 851.474 Q65.4548 847.91 61.8206 847.91 M61.8206 844.206 Q67.6307 844.206 70.6863 848.812 Q73.765 853.396 73.765 862.146 Q73.765 870.872 70.6863 875.479 Q67.6307 880.062 61.8206 880.062 Q56.0104 880.062 52.9317 875.479 Q49.8762 870.872 49.8762 862.146 Q49.8762 853.396 52.9317 848.812 Q56.0104 844.206 61.8206 844.206 Z" fill="#000000" fill-rule="evenodd" fill-opacity="1" /><path clip-path="url(#clip010)" d="M81.9825 873.511 L86.8667 873.511 L86.8667 879.391 L81.9825 879.391 L81.9825 873.511 Z" fill="#000000" fill-rule="evenodd" fill-opacity="1" /><path clip-path="url(#clip010)" d="M107.631 860.247 Q104.482 860.247 102.631 862.4 Q100.802 864.553 100.802 868.303 Q100.802 872.03 102.631 874.206 Q104.482 876.358 107.631 876.358 Q110.779 876.358 112.607 874.206 Q114.459 872.03 114.459 868.303 Q114.459 864.553 112.607 862.4 Q110.779 860.247 107.631 860.247 M116.913 845.595 L116.913 849.854 Q115.154 849.021 113.348 848.581 Q111.566 848.141 109.806 848.141 Q105.177 848.141 102.723 851.266 Q100.293 854.391 99.9454 860.71 Q101.311 858.697 103.371 857.632 Q105.431 856.544 107.908 856.544 Q113.117 856.544 116.126 859.715 Q119.158 862.863 119.158 868.303 Q119.158 873.627 116.01 876.845 Q112.862 880.062 107.631 880.062 Q101.635 880.062 98.4639 875.479 Q95.2926 870.872 95.2926 862.146 Q95.2926 853.951 99.1815 849.09 Q103.07 844.206 109.621 844.206 Q111.38 844.206 113.163 844.553 Q114.968 844.9 116.913 845.595 Z" fill="#000000" fill-rule="evenodd" fill-opacity="1" /><path clip-path="url(#clip010)" d="M62.0752 465.251 Q58.4641 465.251 56.6354 468.816 Q54.8299 472.357 54.8299 479.487 Q54.8299 486.593 56.6354 490.158 Q58.4641 493.7 62.0752 493.7 Q65.7094 493.7 67.515 490.158 Q69.3437 486.593 69.3437 479.487 Q69.3437 472.357 67.515 468.816 Q65.7094 465.251 62.0752 465.251 M62.0752 461.547 Q67.8854 461.547 70.9409 466.154 Q74.0196 470.737 74.0196 479.487 Q74.0196 488.214 70.9409 492.82 Q67.8854 497.403 62.0752 497.403 Q56.2651 497.403 53.1864 492.82 Q50.1308 488.214 50.1308 479.487 Q50.1308 470.737 53.1864 466.154 Q56.2651 461.547 62.0752 461.547 Z" fill="#000000" fill-rule="evenodd" fill-opacity="1" /><path clip-path="url(#clip010)" d="M82.2371 490.853 L87.1214 490.853 L87.1214 496.732 L82.2371 496.732 L82.2371 490.853 Z" fill="#000000" fill-rule="evenodd" fill-opacity="1" /><path clip-path="url(#clip010)" d="M107.306 480.32 Q103.973 480.32 102.052 482.103 Q100.154 483.885 100.154 487.01 Q100.154 490.135 102.052 491.917 Q103.973 493.7 107.306 493.7 Q110.64 493.7 112.561 491.917 Q114.482 490.112 114.482 487.01 Q114.482 483.885 112.561 482.103 Q110.663 480.32 107.306 480.32 M102.631 478.329 Q99.6213 477.589 97.9315 475.529 Q96.2648 473.468 96.2648 470.505 Q96.2648 466.362 99.2046 463.954 Q102.168 461.547 107.306 461.547 Q112.468 461.547 115.408 463.954 Q118.348 466.362 118.348 470.505 Q118.348 473.468 116.658 475.529 Q114.992 477.589 112.005 478.329 Q115.385 479.116 117.26 481.408 Q119.158 483.7 119.158 487.01 Q119.158 492.033 116.08 494.718 Q113.024 497.403 107.306 497.403 Q101.589 497.403 98.5102 494.718 Q95.4547 492.033 95.4547 487.01 Q95.4547 483.7 97.3528 481.408 Q99.2509 479.116 102.631 478.329 M100.918 470.945 Q100.918 473.63 102.584 475.135 Q104.274 476.64 107.306 476.64 Q110.316 476.64 112.005 475.135 Q113.718 473.63 113.718 470.945 Q113.718 468.26 112.005 466.755 Q110.316 465.251 107.306 465.251 Q104.274 465.251 102.584 466.755 Q100.918 468.26 100.918 470.945 Z" fill="#000000" fill-rule="evenodd" fill-opacity="1" /><path clip-path="url(#clip010)" d="M52.7928 110.138 L60.4317 110.138 L60.4317 83.7726 L52.1216 85.4392 L52.1216 81.18 L60.3854 79.5133 L65.0613 79.5133 L65.0613 110.138 L72.7002 110.138 L72.7002 114.073 L52.7928 114.073 L52.7928 110.138 Z" fill="#000000" fill-rule="evenodd" fill-opacity="1" /><path clip-path="url(#clip010)" d="M82.1445 108.194 L87.0288 108.194 L87.0288 114.073 L82.1445 114.073 L82.1445 108.194 Z" fill="#000000" fill-rule="evenodd" fill-opacity="1" /><path clip-path="url(#clip010)" d="M107.214 82.592 Q103.603 82.592 101.774 86.1568 Q99.9685 89.6985 99.9685 96.8281 Q99.9685 103.935 101.774 107.499 Q103.603 111.041 107.214 111.041 Q110.848 111.041 112.654 107.499 Q114.482 103.935 114.482 96.8281 Q114.482 89.6985 112.654 86.1568 Q110.848 82.592 107.214 82.592 M107.214 78.8884 Q113.024 78.8884 116.08 83.4948 Q119.158 88.0781 119.158 96.8281 Q119.158 105.555 116.08 110.161 Q113.024 114.745 107.214 114.745 Q101.404 114.745 98.325 110.161 Q95.2695 105.555 95.2695 96.8281 Q95.2695 88.0781 98.325 83.4948 Q101.404 78.8884 107.214 78.8884 Z" fill="#000000" fill-rule="evenodd" fill-opacity="1" /><polyline clip-path="url(#clip012)" style="stroke:#009af9; stroke-linecap:round; stroke-linejoin:round; stroke-width:4; stroke-opacity:1; fill:none" points="
  229.703,1751.15 233.513,1747.76 237.323,1744.34 241.133,1740.89 244.943,1737.4 280.172,1703.55 315.401,1666.74 350.63,1626.9 385.86,1583.99 428.202,1528.33 
  470.544,1468.23 506.344,1414.05 542.144,1356.91 581.033,1291.65 619.922,1223.36 655.774,1158.01 691.626,1090.68 768.501,941.457 857.567,765.179 897.143,687.654 
  936.719,611.712 971.424,547.054 1006.13,484.781 1025.05,452.033 1043.97,420.245 1062.88,389.503 1081.8,359.892 1100.83,331.33 1119.86,304.079 1138.9,278.218 
  1157.93,253.823 1178.97,228.646 1200.01,205.443 1221.05,184.299 1242.09,165.294 1262.11,149.262 1282.13,135.286 1302.15,123.415 1322.17,113.689 1342.99,105.888 
  1363.81,100.473 1384.62,97.4639 1405.44,96.8724 1422.96,98.2506 1440.48,101.34 1458.01,106.132 1475.53,112.614 1496.92,122.794 1518.32,135.425 1539.71,150.46 
  1561.1,167.837 1580.7,185.754 1600.3,205.522 1619.9,227.077 1639.5,250.349 1657.6,273.303 1675.7,297.597 1693.8,323.166 1711.9,349.941 1730.23,378.224 
  1748.57,407.598 1766.9,437.987 1785.24,469.313 1826.33,542.523 1867.43,619.13 1904.67,690.721 1941.91,763.685 2027.18,932.485 2106.14,1085.99 2145.06,1159.12 
  2183.98,1229.93 2221.77,1296.06 2259.56,1359.31 2298.3,1420.89 2337.04,1478.98 2358.26,1509.26 2379.48,1538.44 2400.7,1566.51 2421.92,1593.45 2452.75,1630.59 
  2483.58,1665.37 2514.41,1697.84 2545.23,1728.03 2551.56,1733.95 2557.88,1739.78 2564.21,1745.51 2570.53,1751.15 
  "/>
<path clip-path="url(#clip010)" d="
M2229.92 209.375 L2558.05 209.375 L2558.05 105.695 L2229.92 105.695  Z
  " fill="#ffffff" fill-rule="evenodd" fill-opacity="1"/>
<polyline clip-path="url(#clip010)" style="stroke:#000000; stroke-linecap:round; stroke-linejoin:round; stroke-width:4; stroke-opacity:1; fill:none" points="
  2229.92,209.375 2558.05,209.375 2558.05,105.695 2229.92,105.695 2229.92,209.375 
  "/>
<polyline clip-path="url(#clip010)" style="stroke:#009af9; stroke-linecap:round; stroke-linejoin:round; stroke-width:4; stroke-opacity:1; fill:none" points="
  2257.49,157.535 2422.91,157.535 
  "/>
<path clip-path="url(#clip010)" d="M2464.32 177.223 Q2462.51 181.852 2460.8 183.264 Q2459.09 184.676 2456.22 184.676 L2452.81 184.676 L2452.81 181.112 L2455.31 181.112 Q2457.07 181.112 2458.05 180.278 Q2459.02 179.445 2460.2 176.343 L2460.96 174.399 L2450.48 148.889 L2454.99 148.889 L2463.09 169.167 L2471.19 148.889 L2475.71 148.889 L2464.32 177.223 Z" fill="#000000" fill-rule="evenodd" fill-opacity="1" /><path clip-path="url(#clip010)" d="M2483 170.88 L2490.64 170.88 L2490.64 144.515 L2482.33 146.181 L2482.33 141.922 L2490.59 140.255 L2495.27 140.255 L2495.27 170.88 L2502.91 170.88 L2502.91 174.815 L2483 174.815 L2483 170.88 Z" fill="#000000" fill-rule="evenodd" fill-opacity="1" /></svg>
