<?xml version="1.0" encoding="utf-8"?>
<svg xmlns="http://www.w3.org/2000/svg" xmlns:xlink="http://www.w3.org/1999/xlink" width="672" height="480" viewBox="0 0 2688 1920">
<defs>
  <clipPath id="clip910">
    <rect x="0" y="0" width="2688" height="1920"/>
  </clipPath>
</defs>
<path clip-path="url(#clip910)" d="
M0 1920 L2688 1920 L2688 0 L0 0  Z
  " fill="#ffffff" fill-rule="evenodd" fill-opacity="1"/>
<defs>
  <clipPath id="clip911">
    <rect x="537" y="0" width="1883" height="1883"/>
  </clipPath>
</defs>
<path clip-path="url(#clip910)" d="
M196.816 1800.78 L2640.76 1800.78 L2640.76 47.2441 L196.816 47.2441  Z
  " fill="#ffffff" fill-rule="evenodd" fill-opacity="1"/>
<defs>
  <clipPath id="clip912">
    <rect x="196" y="47" width="2445" height="1755"/>
  </clipPath>
</defs>
<polyline clip-path="url(#clip912)" style="stroke:#000000; stroke-linecap:butt; stroke-linejoin:round; stroke-width:2; stroke-opacity:0.1; fill:none" points="
  265.553,1800.78 265.553,47.2441 
  "/>
<polyline clip-path="url(#clip912)" style="stroke:#000000; stroke-linecap:butt; stroke-linejoin:round; stroke-width:2; stroke-opacity:0.1; fill:none" points="
  842.062,1800.78 842.062,47.2441 
  "/>
<polyline clip-path="url(#clip912)" style="stroke:#000000; stroke-linecap:butt; stroke-linejoin:round; stroke-width:2; stroke-opacity:0.1; fill:none" points="
  1418.57,1800.78 1418.57,47.2441 
  "/>
<polyline clip-path="url(#clip912)" style="stroke:#000000; stroke-linecap:butt; stroke-linejoin:round; stroke-width:2; stroke-opacity:0.1; fill:none" points="
  1995.08,1800.78 1995.08,47.2441 
  "/>
<polyline clip-path="url(#clip912)" style="stroke:#000000; stroke-linecap:butt; stroke-linejoin:round; stroke-width:2; stroke-opacity:0.1; fill:none" points="
  2571.59,1800.78 2571.59,47.2441 
  "/>
<polyline clip-path="url(#clip910)" style="stroke:#000000; stroke-linecap:butt; stroke-linejoin:round; stroke-width:4; stroke-opacity:1; fill:none" points="
  196.816,1800.78 2640.76,1800.78 
  "/>
<polyline clip-path="url(#clip910)" style="stroke:#000000; stroke-linecap:butt; stroke-linejoin:round; stroke-width:4; stroke-opacity:1; fill:none" points="
  265.553,1800.78 265.553,1781.88 
  "/>
<polyline clip-path="url(#clip910)" style="stroke:#000000; stroke-linecap:butt; stroke-linejoin:round; stroke-width:4; stroke-opacity:1; fill:none" points="
  842.062,1800.78 842.062,1781.88 
  "/>
<polyline clip-path="url(#clip910)" style="stroke:#000000; stroke-linecap:butt; stroke-linejoin:round; stroke-width:4; stroke-opacity:1; fill:none" points="
  1418.57,1800.78 1418.57,1781.88 
  "/>
<polyline clip-path="url(#clip910)" style="stroke:#000000; stroke-linecap:butt; stroke-linejoin:round; stroke-width:4; stroke-opacity:1; fill:none" points="
  1995.08,1800.78 1995.08,1781.88 
  "/>
<polyline clip-path="url(#clip910)" style="stroke:#000000; stroke-linecap:butt; stroke-linejoin:round; stroke-width:4; stroke-opacity:1; fill:none" points="
  2571.59,1800.78 2571.59,1781.88 
  "/>
<path clip-path="url(#clip910)" d="M212.081 1848.65 L241.757 1848.65 L241.757 1852.59 L212.081 1852.59 L212.081 1848.65 Z" fill="#000000" fill-rule="evenodd" fill-opacity="1" /><path clip-path="url(#clip910)" d="M252.66 1861.55 L260.299 1861.55 L260.299 1835.18 L251.988 1836.85 L251.988 1832.59 L260.252 1830.92 L264.928 1830.92 L264.928 1861.55 L272.567 1861.55 L272.567 1865.48 L252.66 1865.48 L252.66 1861.55 Z" fill="#000000" fill-rule="evenodd" fill-opacity="1" /><path clip-path="url(#clip910)" d="M282.011 1859.6 L286.896 1859.6 L286.896 1865.48 L282.011 1865.48 L282.011 1859.6 Z" fill="#000000" fill-rule="evenodd" fill-opacity="1" /><path clip-path="url(#clip910)" d="M307.081 1834 Q303.47 1834 301.641 1837.57 Q299.835 1841.11 299.835 1848.24 Q299.835 1855.34 301.641 1858.91 Q303.47 1862.45 307.081 1862.45 Q310.715 1862.45 312.52 1858.91 Q314.349 1855.34 314.349 1848.24 Q314.349 1841.11 312.52 1837.57 Q310.715 1834 307.081 1834 M307.081 1830.3 Q312.891 1830.3 315.946 1834.9 Q319.025 1839.49 319.025 1848.24 Q319.025 1856.96 315.946 1861.57 Q312.891 1866.15 307.081 1866.15 Q301.271 1866.15 298.192 1861.57 Q295.136 1856.96 295.136 1848.24 Q295.136 1839.49 298.192 1834.9 Q301.271 1830.3 307.081 1830.3 Z" fill="#000000" fill-rule="evenodd" fill-opacity="1" /><path clip-path="url(#clip910)" d="M789.088 1848.65 L818.763 1848.65 L818.763 1852.59 L789.088 1852.59 L789.088 1848.65 Z" fill="#000000" fill-rule="evenodd" fill-opacity="1" /><path clip-path="url(#clip910)" d="M838.856 1834 Q835.245 1834 833.416 1837.57 Q831.61 1841.11 831.61 1848.24 Q831.61 1855.34 833.416 1858.91 Q835.245 1862.45 838.856 1862.45 Q842.49 1862.45 844.296 1858.91 Q846.124 1855.34 846.124 1848.24 Q846.124 1841.11 844.296 1837.57 Q842.49 1834 838.856 1834 M838.856 1830.3 Q844.666 1830.3 847.721 1834.9 Q850.8 1839.49 850.8 1848.24 Q850.8 1856.96 847.721 1861.57 Q844.666 1866.15 838.856 1866.15 Q833.046 1866.15 829.967 1861.57 Q826.911 1856.96 826.911 1848.24 Q826.911 1839.49 829.967 1834.9 Q833.046 1830.3 838.856 1830.3 Z" fill="#000000" fill-rule="evenodd" fill-opacity="1" /><path clip-path="url(#clip910)" d="M859.018 1859.6 L863.902 1859.6 L863.902 1865.48 L859.018 1865.48 L859.018 1859.6 Z" fill="#000000" fill-rule="evenodd" fill-opacity="1" /><path clip-path="url(#clip910)" d="M874.133 1830.92 L892.49 1830.92 L892.49 1834.86 L878.416 1834.86 L878.416 1843.33 Q879.434 1842.98 880.453 1842.82 Q881.471 1842.64 882.49 1842.64 Q888.277 1842.64 891.656 1845.81 Q895.036 1848.98 895.036 1854.4 Q895.036 1859.97 891.564 1863.08 Q888.092 1866.15 881.772 1866.15 Q879.596 1866.15 877.328 1865.78 Q875.082 1865.41 872.675 1864.67 L872.675 1859.97 Q874.758 1861.11 876.981 1861.66 Q879.203 1862.22 881.68 1862.22 Q885.684 1862.22 888.022 1860.11 Q890.36 1858.01 890.36 1854.4 Q890.36 1850.78 888.022 1848.68 Q885.684 1846.57 881.68 1846.57 Q879.805 1846.57 877.93 1846.99 Q876.078 1847.4 874.133 1848.28 L874.133 1830.92 Z" fill="#000000" fill-rule="evenodd" fill-opacity="1" /><path clip-path="url(#clip910)" d="M1395.95 1834 Q1392.34 1834 1390.52 1837.57 Q1388.71 1841.11 1388.71 1848.24 Q1388.71 1855.34 1390.52 1858.91 Q1392.34 1862.45 1395.95 1862.45 Q1399.59 1862.45 1401.39 1858.91 Q1403.22 1855.34 1403.22 1848.24 Q1403.22 1841.11 1401.39 1837.57 Q1399.59 1834 1395.95 1834 M1395.95 1830.3 Q1401.76 1830.3 1404.82 1834.9 Q1407.9 1839.49 1407.9 1848.24 Q1407.9 1856.96 1404.82 1861.57 Q1401.76 1866.15 1395.95 1866.15 Q1390.14 1866.15 1387.07 1861.57 Q1384.01 1856.96 1384.01 1848.24 Q1384.01 1839.49 1387.07 1834.9 Q1390.14 1830.3 1395.95 1830.3 Z" fill="#000000" fill-rule="evenodd" fill-opacity="1" /><path clip-path="url(#clip910)" d="M1416.12 1859.6 L1421 1859.6 L1421 1865.48 L1416.12 1865.48 L1416.12 1859.6 Z" fill="#000000" fill-rule="evenodd" fill-opacity="1" /><path clip-path="url(#clip910)" d="M1441.19 1834 Q1437.57 1834 1435.75 1837.57 Q1433.94 1841.11 1433.94 1848.24 Q1433.94 1855.34 1435.75 1858.91 Q1437.57 1862.45 1441.19 1862.45 Q1444.82 1862.45 1446.63 1858.91 Q1448.45 1855.34 1448.45 1848.24 Q1448.45 1841.11 1446.63 1837.57 Q1444.82 1834 1441.19 1834 M1441.19 1830.3 Q1447 1830.3 1450.05 1834.9 Q1453.13 1839.49 1453.13 1848.24 Q1453.13 1856.96 1450.05 1861.57 Q1447 1866.15 1441.19 1866.15 Q1435.38 1866.15 1432.3 1861.57 Q1429.24 1856.96 1429.24 1848.24 Q1429.24 1839.49 1432.3 1834.9 Q1435.38 1830.3 1441.19 1830.3 Z" fill="#000000" fill-rule="evenodd" fill-opacity="1" /><path clip-path="url(#clip910)" d="M1972.96 1834 Q1969.35 1834 1967.52 1837.57 Q1965.72 1841.11 1965.72 1848.24 Q1965.72 1855.34 1967.52 1858.91 Q1969.35 1862.45 1972.96 1862.45 Q1976.6 1862.45 1978.4 1858.91 Q1980.23 1855.34 1980.23 1848.24 Q1980.23 1841.11 1978.4 1837.57 Q1976.6 1834 1972.96 1834 M1972.96 1830.3 Q1978.77 1830.3 1981.83 1834.9 Q1984.91 1839.49 1984.91 1848.24 Q1984.91 1856.96 1981.83 1861.57 Q1978.77 1866.15 1972.96 1866.15 Q1967.15 1866.15 1964.07 1861.57 Q1961.02 1856.96 1961.02 1848.24 Q1961.02 1839.49 1964.07 1834.9 Q1967.15 1830.3 1972.96 1830.3 Z" fill="#000000" fill-rule="evenodd" fill-opacity="1" /><path clip-path="url(#clip910)" d="M1993.12 1859.6 L1998.01 1859.6 L1998.01 1865.48 L1993.12 1865.48 L1993.12 1859.6 Z" fill="#000000" fill-rule="evenodd" fill-opacity="1" /><path clip-path="url(#clip910)" d="M2008.24 1830.92 L2026.6 1830.92 L2026.6 1834.86 L2012.52 1834.86 L2012.52 1843.33 Q2013.54 1842.98 2014.56 1842.82 Q2015.58 1842.64 2016.6 1842.64 Q2022.38 1842.64 2025.76 1845.81 Q2029.14 1848.98 2029.14 1854.4 Q2029.14 1859.97 2025.67 1863.08 Q2022.2 1866.15 2015.88 1866.15 Q2013.7 1866.15 2011.43 1865.78 Q2009.19 1865.41 2006.78 1864.67 L2006.78 1859.97 Q2008.86 1861.11 2011.09 1861.66 Q2013.31 1862.22 2015.79 1862.22 Q2019.79 1862.22 2022.13 1860.11 Q2024.47 1858.01 2024.47 1854.4 Q2024.47 1850.78 2022.13 1848.68 Q2019.79 1846.57 2015.79 1846.57 Q2013.91 1846.57 2012.04 1846.99 Q2010.18 1847.4 2008.24 1848.28 L2008.24 1830.92 Z" fill="#000000" fill-rule="evenodd" fill-opacity="1" /><path clip-path="url(#clip910)" d="M2538.74 1861.55 L2546.38 1861.55 L2546.38 1835.18 L2538.07 1836.85 L2538.07 1832.59 L2546.33 1830.92 L2551.01 1830.92 L2551.01 1861.55 L2558.65 1861.55 L2558.65 1865.48 L2538.74 1865.48 L2538.74 1861.55 Z" fill="#000000" fill-rule="evenodd" fill-opacity="1" /><path clip-path="url(#clip910)" d="M2568.09 1859.6 L2572.98 1859.6 L2572.98 1865.48 L2568.09 1865.48 L2568.09 1859.6 Z" fill="#000000" fill-rule="evenodd" fill-opacity="1" /><path clip-path="url(#clip910)" d="M2593.16 1834 Q2589.55 1834 2587.72 1837.57 Q2585.92 1841.11 2585.92 1848.24 Q2585.92 1855.34 2587.72 1858.91 Q2589.55 1862.45 2593.16 1862.45 Q2596.8 1862.45 2598.6 1858.91 Q2600.43 1855.34 2600.43 1848.24 Q2600.43 1841.11 2598.6 1837.57 Q2596.8 1834 2593.16 1834 M2593.16 1830.3 Q2598.97 1830.3 2602.03 1834.9 Q2605.11 1839.49 2605.11 1848.24 Q2605.11 1856.96 2602.03 1861.57 Q2598.97 1866.15 2593.16 1866.15 Q2587.35 1866.15 2584.27 1861.57 Q2581.22 1856.96 2581.22 1848.24 Q2581.22 1839.49 2584.27 1834.9 Q2587.35 1830.3 2593.16 1830.3 Z" fill="#000000" fill-rule="evenodd" fill-opacity="1" /><polyline clip-path="url(#clip912)" style="stroke:#000000; stroke-linecap:butt; stroke-linejoin:round; stroke-width:2; stroke-opacity:0.1; fill:none" points="
  196.816,1751.23 2640.76,1751.23 
  "/>
<polyline clip-path="url(#clip912)" style="stroke:#000000; stroke-linecap:butt; stroke-linejoin:round; stroke-width:2; stroke-opacity:0.1; fill:none" points="
  196.816,1337.62 2640.76,1337.62 
  "/>
<polyline clip-path="url(#clip912)" style="stroke:#000000; stroke-linecap:butt; stroke-linejoin:round; stroke-width:2; stroke-opacity:0.1; fill:none" points="
  196.816,924.012 2640.76,924.012 
  "/>
<polyline clip-path="url(#clip912)" style="stroke:#000000; stroke-linecap:butt; stroke-linejoin:round; stroke-width:2; stroke-opacity:0.1; fill:none" points="
  196.816,510.403 2640.76,510.403 
  "/>
<polyline clip-path="url(#clip912)" style="stroke:#000000; stroke-linecap:butt; stroke-linejoin:round; stroke-width:2; stroke-opacity:0.1; fill:none" points="
  196.816,96.7951 2640.76,96.7951 
  "/>
<polyline clip-path="url(#clip910)" style="stroke:#000000; stroke-linecap:butt; stroke-linejoin:round; stroke-width:4; stroke-opacity:1; fill:none" points="
  196.816,1800.78 196.816,47.2441 
  "/>
<polyline clip-path="url(#clip910)" style="stroke:#000000; stroke-linecap:butt; stroke-linejoin:round; stroke-width:4; stroke-opacity:1; fill:none" points="
  196.816,1751.23 215.714,1751.23 
  "/>
<polyline clip-path="url(#clip910)" style="stroke:#000000; stroke-linecap:butt; stroke-linejoin:round; stroke-width:4; stroke-opacity:1; fill:none" points="
  196.816,1337.62 215.714,1337.62 
  "/>
<polyline clip-path="url(#clip910)" style="stroke:#000000; stroke-linecap:butt; stroke-linejoin:round; stroke-width:4; stroke-opacity:1; fill:none" points="
  196.816,924.012 215.714,924.012 
  "/>
<polyline clip-path="url(#clip910)" style="stroke:#000000; stroke-linecap:butt; stroke-linejoin:round; stroke-width:4; stroke-opacity:1; fill:none" points="
  196.816,510.403 215.714,510.403 
  "/>
<polyline clip-path="url(#clip910)" style="stroke:#000000; stroke-linecap:butt; stroke-linejoin:round; stroke-width:4; stroke-opacity:1; fill:none" points="
  196.816,96.7951 215.714,96.7951 
  "/>
<path clip-path="url(#clip910)" d="M49.5521 1751.68 L79.2279 1751.68 L79.2279 1755.61 L49.5521 1755.61 L49.5521 1751.68 Z" fill="#000000" fill-rule="evenodd" fill-opacity="1" /><path clip-path="url(#clip910)" d="M90.1306 1764.57 L97.7695 1764.57 L97.7695 1738.21 L89.4593 1739.87 L89.4593 1735.61 L97.7232 1733.95 L102.399 1733.95 L102.399 1764.57 L110.038 1764.57 L110.038 1768.51 L90.1306 1768.51 L90.1306 1764.57 Z" fill="#000000" fill-rule="evenodd" fill-opacity="1" /><path clip-path="url(#clip910)" d="M119.482 1762.63 L124.367 1762.63 L124.367 1768.51 L119.482 1768.51 L119.482 1762.63 Z" fill="#000000" fill-rule="evenodd" fill-opacity="1" /><path clip-path="url(#clip910)" d="M144.552 1737.03 Q140.941 1737.03 139.112 1740.59 Q137.306 1744.13 137.306 1751.26 Q137.306 1758.37 139.112 1761.93 Q140.941 1765.48 144.552 1765.48 Q148.186 1765.48 149.991 1761.93 Q151.82 1758.37 151.82 1751.26 Q151.82 1744.13 149.991 1740.59 Q148.186 1737.03 144.552 1737.03 M144.552 1733.32 Q150.362 1733.32 153.417 1737.93 Q156.496 1742.51 156.496 1751.26 Q156.496 1759.99 153.417 1764.6 Q150.362 1769.18 144.552 1769.18 Q138.741 1769.18 135.663 1764.6 Q132.607 1759.99 132.607 1751.26 Q132.607 1742.51 135.663 1737.93 Q138.741 1733.32 144.552 1733.32 Z" fill="#000000" fill-rule="evenodd" fill-opacity="1" /><path clip-path="url(#clip910)" d="M50.5475 1338.07 L80.2233 1338.07 L80.2233 1342.01 L50.5475 1342.01 L50.5475 1338.07 Z" fill="#000000" fill-rule="evenodd" fill-opacity="1" /><path clip-path="url(#clip910)" d="M100.316 1323.42 Q96.7047 1323.42 94.876 1326.98 Q93.0704 1330.53 93.0704 1337.65 Q93.0704 1344.76 94.876 1348.33 Q96.7047 1351.87 100.316 1351.87 Q103.95 1351.87 105.756 1348.33 Q107.584 1344.76 107.584 1337.65 Q107.584 1330.53 105.756 1326.98 Q103.95 1323.42 100.316 1323.42 M100.316 1319.71 Q106.126 1319.71 109.181 1324.32 Q112.26 1328.9 112.26 1337.65 Q112.26 1346.38 109.181 1350.99 Q106.126 1355.57 100.316 1355.57 Q94.5056 1355.57 91.4269 1350.99 Q88.3714 1346.38 88.3714 1337.65 Q88.3714 1328.9 91.4269 1324.32 Q94.5056 1319.71 100.316 1319.71 Z" fill="#000000" fill-rule="evenodd" fill-opacity="1" /><path clip-path="url(#clip910)" d="M120.478 1349.02 L125.362 1349.02 L125.362 1354.9 L120.478 1354.9 L120.478 1349.02 Z" fill="#000000" fill-rule="evenodd" fill-opacity="1" /><path clip-path="url(#clip910)" d="M135.593 1320.34 L153.95 1320.34 L153.95 1324.28 L139.876 1324.28 L139.876 1332.75 Q140.894 1332.4 141.913 1332.24 Q142.931 1332.05 143.95 1332.05 Q149.737 1332.05 153.116 1335.22 Q156.496 1338.4 156.496 1343.81 Q156.496 1349.39 153.024 1352.49 Q149.552 1355.57 143.232 1355.57 Q141.056 1355.57 138.788 1355.2 Q136.542 1354.83 134.135 1354.09 L134.135 1349.39 Q136.218 1350.53 138.441 1351.08 Q140.663 1351.64 143.14 1351.64 Q147.144 1351.64 149.482 1349.53 Q151.82 1347.42 151.82 1343.81 Q151.82 1340.2 149.482 1338.09 Q147.144 1335.99 143.14 1335.99 Q141.265 1335.99 139.39 1336.4 Q137.538 1336.82 135.593 1337.7 L135.593 1320.34 Z" fill="#000000" fill-rule="evenodd" fill-opacity="1" /><path clip-path="url(#clip910)" d="M99.3204 909.81 Q95.7093 909.81 93.8806 913.375 Q92.075 916.917 92.075 924.046 Q92.075 931.153 93.8806 934.718 Q95.7093 938.259 99.3204 938.259 Q102.955 938.259 104.76 934.718 Q106.589 931.153 106.589 924.046 Q106.589 916.917 104.76 913.375 Q102.955 909.81 99.3204 909.81 M99.3204 906.107 Q105.131 906.107 108.186 910.713 Q111.265 915.296 111.265 924.046 Q111.265 932.773 108.186 937.38 Q105.131 941.963 99.3204 941.963 Q93.5102 941.963 90.4315 937.38 Q87.376 932.773 87.376 924.046 Q87.376 915.296 90.4315 910.713 Q93.5102 906.107 99.3204 906.107 Z" fill="#000000" fill-rule="evenodd" fill-opacity="1" /><path clip-path="url(#clip910)" d="M119.482 935.412 L124.367 935.412 L124.367 941.292 L119.482 941.292 L119.482 935.412 Z" fill="#000000" fill-rule="evenodd" fill-opacity="1" /><path clip-path="url(#clip910)" d="M144.552 909.81 Q140.941 909.81 139.112 913.375 Q137.306 916.917 137.306 924.046 Q137.306 931.153 139.112 934.718 Q140.941 938.259 144.552 938.259 Q148.186 938.259 149.991 934.718 Q151.82 931.153 151.82 924.046 Q151.82 916.917 149.991 913.375 Q148.186 909.81 144.552 909.81 M144.552 906.107 Q150.362 906.107 153.417 910.713 Q156.496 915.296 156.496 924.046 Q156.496 932.773 153.417 937.38 Q150.362 941.963 144.552 941.963 Q138.741 941.963 135.663 937.38 Q132.607 932.773 132.607 924.046 Q132.607 915.296 135.663 910.713 Q138.741 906.107 144.552 906.107 Z" fill="#000000" fill-rule="evenodd" fill-opacity="1" /><path clip-path="url(#clip910)" d="M100.316 496.202 Q96.7047 496.202 94.876 499.767 Q93.0704 503.309 93.0704 510.438 Q93.0704 517.545 94.876 521.109 Q96.7047 524.651 100.316 524.651 Q103.95 524.651 105.756 521.109 Q107.584 517.545 107.584 510.438 Q107.584 503.309 105.756 499.767 Q103.95 496.202 100.316 496.202 M100.316 492.498 Q106.126 492.498 109.181 497.105 Q112.26 501.688 112.26 510.438 Q112.26 519.165 109.181 523.771 Q106.126 528.355 100.316 528.355 Q94.5056 528.355 91.4269 523.771 Q88.3714 519.165 88.3714 510.438 Q88.3714 501.688 91.4269 497.105 Q94.5056 492.498 100.316 492.498 Z" fill="#000000" fill-rule="evenodd" fill-opacity="1" /><path clip-path="url(#clip910)" d="M120.478 521.804 L125.362 521.804 L125.362 527.683 L120.478 527.683 L120.478 521.804 Z" fill="#000000" fill-rule="evenodd" fill-opacity="1" /><path clip-path="url(#clip910)" d="M135.593 493.123 L153.95 493.123 L153.95 497.059 L139.876 497.059 L139.876 505.531 Q140.894 505.184 141.913 505.022 Q142.931 504.836 143.95 504.836 Q149.737 504.836 153.116 508.008 Q156.496 511.179 156.496 516.596 Q156.496 522.174 153.024 525.276 Q149.552 528.355 143.232 528.355 Q141.056 528.355 138.788 527.984 Q136.542 527.614 134.135 526.873 L134.135 522.174 Q136.218 523.308 138.441 523.864 Q140.663 524.42 143.14 524.42 Q147.144 524.42 149.482 522.313 Q151.82 520.207 151.82 516.596 Q151.82 512.984 149.482 510.878 Q147.144 508.771 143.14 508.771 Q141.265 508.771 139.39 509.188 Q137.538 509.605 135.593 510.484 L135.593 493.123 Z" fill="#000000" fill-rule="evenodd" fill-opacity="1" /><path clip-path="url(#clip910)" d="M90.1306 110.14 L97.7695 110.14 L97.7695 83.7744 L89.4593 85.441 L89.4593 81.1818 L97.7232 79.5151 L102.399 79.5151 L102.399 110.14 L110.038 110.14 L110.038 114.075 L90.1306 114.075 L90.1306 110.14 Z" fill="#000000" fill-rule="evenodd" fill-opacity="1" /><path clip-path="url(#clip910)" d="M119.482 108.196 L124.367 108.196 L124.367 114.075 L119.482 114.075 L119.482 108.196 Z" fill="#000000" fill-rule="evenodd" fill-opacity="1" /><path clip-path="url(#clip910)" d="M144.552 82.5938 Q140.941 82.5938 139.112 86.1586 Q137.306 89.7003 137.306 96.8299 Q137.306 103.936 139.112 107.501 Q140.941 111.043 144.552 111.043 Q148.186 111.043 149.991 107.501 Q151.82 103.936 151.82 96.8299 Q151.82 89.7003 149.991 86.1586 Q148.186 82.5938 144.552 82.5938 M144.552 78.8901 Q150.362 78.8901 153.417 83.4966 Q156.496 88.0799 156.496 96.8299 Q156.496 105.557 153.417 110.163 Q150.362 114.746 144.552 114.746 Q138.741 114.746 135.663 110.163 Q132.607 105.557 132.607 96.8299 Q132.607 88.0799 135.663 83.4966 Q138.741 78.8901 144.552 78.8901 Z" fill="#000000" fill-rule="evenodd" fill-opacity="1" /><polyline clip-path="url(#clip912)" style="stroke:#009af9; stroke-linecap:butt; stroke-linejoin:round; stroke-width:4; stroke-opacity:1; fill:none" points="
  2571.59,924.012 2556.15,923.312 2510.8,918.488 2438.36,905.783 2343.25,882.15 2231.22,845.525 2108.83,795.036 1983,731.103 1860.46,655.436 1747.22,570.933 
  1648.16,481.471 1566.67,391.623 1504.38,306.316 1461.12,230.453 1434.96,168.541 1422.42,124.341 1418.76,100.577 1418.5,98.7262 1415.81,118.905 1405.1,159.857 
  1381.49,219.053 1341.26,292.888 1282.21,376.955 1203.85,466.393 1107.53,556.251 996.353,641.872 874.966,719.242 749.23,785.283 625.788,838.078 511.557,876.987 
  413.203,902.673 336.631,917.01 286.524,922.902 265.984,924.008 276.29,924.417 316.8,928.279 384.999,939.435 476.696,961.074 586.348,995.44 707.487,1043.61 
  833.221,1105.39 956.757,1179.27 1071.92,1262.55 1173.62,1351.49 1258.2,1441.61 1323.73,1528.02 1370.07,1605.78 1398.87,1670.3 1413.39,1717.68 1418.16,1744.98 
  1418.59,1750.53 1420.47,1733.97 1429.48,1696.34 1450.65,1639.96 1487.91,1568.28 1543.74,1485.59 1618.93,1396.7 1712.42,1306.57 1821.41,1219.95 1941.47,1140.96 
  2066.93,1072.86 2191.23,1017.78 2307.48,976.57 2408.91,948.779 2489.48,932.727 2544.26,925.665 2569.86,924.038 2564.71,923.804 2529.11,920.797 2465.27,911.1 
  2377.14,891.392 2270.05,859.256 2150.35,813.407 2024.9,753.828 1900.55,681.806 1783.6,599.861 1679.36,511.571 1591.74,421.315 1522.98,333.94 1473.51,254.401 
  1441.97,187.377 1425.36,136.914 1419.32,106.109 1418.57,96.8724 1417.33,109.781 1409.88,144.03 1391.05,197.497 1356.69,266.909 1304.05,348.091 1232.07,436.292 
  1141.47,526.549 1034.8,614.067 916.221,694.581 791.226,764.672 666.253,822.018 548.188,865.545 443.838,895.488 359.417,913.331 300.059,921.663 269.427,923.924 
  269.427,924.099 300.059,926.361 359.417,934.692 443.838,952.536 548.188,982.478 666.253,1026.01 791.226,1083.35 916.221,1153.44 1034.8,1233.96 1141.47,1321.47 
  1232.07,1411.73 1304.05,1499.93 1356.69,1581.11 1391.05,1650.53 1409.88,1703.99 1417.33,1738.24 1418.57,1751.15 1419.32,1741.91 1425.36,1711.11 1441.97,1660.65 
  1473.51,1593.62 1522.98,1514.08 1591.74,1426.71 1679.36,1336.45 1783.6,1248.16 1900.55,1166.22 2024.9,1094.2 2150.35,1034.62 2270.05,988.767 2377.14,956.631 
  2465.27,936.923 2529.11,927.226 2564.71,924.22 2569.86,923.986 2544.26,922.359 2489.48,915.297 2408.91,899.244 2307.48,871.454 2191.23,830.242 2066.93,775.16 
  1941.47,707.064 1821.41,628.077 1712.42,541.449 1618.93,451.325 1543.74,362.437 1487.91,279.745 1450.65,208.062 1429.48,151.681 1420.47,114.049 1418.59,97.4907 
  1418.16,103.039 1413.39,130.347 1398.87,177.72 1370.07,242.242 1323.73,320.007 1258.2,406.417 1173.62,496.538 1071.92,585.477 956.757,668.753 833.221,742.635 
  707.487,804.412 586.348,852.584 476.696,886.949 384.999,908.588 316.8,919.745 276.29,923.606 265.984,924.015 286.524,925.121 336.631,931.013 413.203,945.351 
  511.557,971.037 625.788,1009.95 749.23,1062.74 874.966,1128.78 996.353,1206.15 1107.53,1291.77 1203.85,1381.63 1282.21,1471.07 1341.26,1555.14 1381.49,1628.97 
  1405.1,1688.17 1415.81,1729.12 1418.5,1749.3 1418.76,1747.45 1422.42,1723.68 1434.96,1679.48 1461.12,1617.57 1504.38,1541.71 1566.67,1456.4 1648.16,1366.55 
  1747.22,1277.09 1860.46,1192.59 1983,1116.92 2108.83,1052.99 2231.22,1002.5 2343.25,965.874 2438.36,942.24 2510.8,929.536 2556.15,924.712 2571.59,924.012 
  
  "/>
<path clip-path="url(#clip910)" d="
M2235.31 209.375 L2559.29 209.375 L2559.29 105.695 L2235.31 105.695  Z
  " fill="#ffffff" fill-rule="evenodd" fill-opacity="1"/>
<polyline clip-path="url(#clip910)" style="stroke:#000000; stroke-linecap:butt; stroke-linejoin:round; stroke-width:4; stroke-opacity:1; fill:none" points="
  2235.31,209.375 2559.29,209.375 2559.29,105.695 2235.31,105.695 2235.31,209.375 
  "/>
<polyline clip-path="url(#clip910)" style="stroke:#009af9; stroke-linecap:butt; stroke-linejoin:round; stroke-width:4; stroke-opacity:1; fill:none" points="
  2262.47,157.535 2425.4,157.535 
  "/>
<path clip-path="url(#clip910)" d="M2466.39 177.223 Q2464.59 181.852 2462.88 183.264 Q2461.16 184.676 2458.29 184.676 L2454.89 184.676 L2454.89 181.112 L2457.39 181.112 Q2459.15 181.112 2460.12 180.278 Q2461.09 179.445 2462.27 176.343 L2463.04 174.399 L2452.55 148.889 L2457.07 148.889 L2465.17 169.167 L2473.27 148.889 L2477.78 148.889 L2466.39 177.223 Z" fill="#000000" fill-rule="evenodd" fill-opacity="1" /><path clip-path="url(#clip910)" d="M2485.07 170.88 L2492.71 170.88 L2492.71 144.515 L2484.4 146.181 L2484.4 141.922 L2492.67 140.255 L2497.34 140.255 L2497.34 170.88 L2504.98 170.88 L2504.98 174.815 L2485.07 174.815 L2485.07 170.88 Z" fill="#000000" fill-rule="evenodd" fill-opacity="1" /></svg>
