<?xml version="1.0" encoding="utf-8"?>
<svg xmlns="http://www.w3.org/2000/svg" xmlns:xlink="http://www.w3.org/1999/xlink" width="672" height="480" viewBox="0 0 2688 1920">
<defs>
  <clipPath id="clip850">
    <rect x="0" y="0" width="2688" height="1920"/>
  </clipPath>
</defs>
<path clip-path="url(#clip850)" d="
M0 1920 L2688 1920 L2688 0 L0 0  Z
  " fill="#ffffff" fill-rule="evenodd" fill-opacity="1"/>
<defs>
  <clipPath id="clip851">
    <rect x="537" y="0" width="1883" height="1883"/>
  </clipPath>
</defs>
<path clip-path="url(#clip850)" d="
M152.071 1800.78 L2640.76 1800.78 L2640.76 47.2441 L152.071 47.2441  Z
  " fill="#ffffff" fill-rule="evenodd" fill-opacity="1"/>
<defs>
  <clipPath id="clip852">
    <rect x="152" y="47" width="2490" height="1755"/>
  </clipPath>
</defs>
<polyline clip-path="url(#clip852)" style="stroke:#000000; stroke-linecap:round; stroke-linejoin:round; stroke-width:2; stroke-opacity:0.1; fill:none" points="
  222.505,1800.78 222.505,47.2441 
  "/>
<polyline clip-path="url(#clip852)" style="stroke:#000000; stroke-linecap:round; stroke-linejoin:round; stroke-width:2; stroke-opacity:0.1; fill:none" points="
  390.206,1800.78 390.206,47.2441 
  "/>
<polyline clip-path="url(#clip852)" style="stroke:#000000; stroke-linecap:round; stroke-linejoin:round; stroke-width:2; stroke-opacity:0.1; fill:none" points="
  557.908,1800.78 557.908,47.2441 
  "/>
<polyline clip-path="url(#clip852)" style="stroke:#000000; stroke-linecap:round; stroke-linejoin:round; stroke-width:2; stroke-opacity:0.1; fill:none" points="
  725.609,1800.78 725.609,47.2441 
  "/>
<polyline clip-path="url(#clip852)" style="stroke:#000000; stroke-linecap:round; stroke-linejoin:round; stroke-width:2; stroke-opacity:0.1; fill:none" points="
  893.31,1800.78 893.31,47.2441 
  "/>
<polyline clip-path="url(#clip852)" style="stroke:#000000; stroke-linecap:round; stroke-linejoin:round; stroke-width:2; stroke-opacity:0.1; fill:none" points="
  1061.01,1800.78 1061.01,47.2441 
  "/>
<polyline clip-path="url(#clip852)" style="stroke:#000000; stroke-linecap:round; stroke-linejoin:round; stroke-width:2; stroke-opacity:0.1; fill:none" points="
  1228.71,1800.78 1228.71,47.2441 
  "/>
<polyline clip-path="url(#clip852)" style="stroke:#000000; stroke-linecap:round; stroke-linejoin:round; stroke-width:2; stroke-opacity:0.1; fill:none" points="
  1396.41,1800.78 1396.41,47.2441 
  "/>
<polyline clip-path="url(#clip852)" style="stroke:#000000; stroke-linecap:round; stroke-linejoin:round; stroke-width:2; stroke-opacity:0.1; fill:none" points="
  1564.11,1800.78 1564.11,47.2441 
  "/>
<polyline clip-path="url(#clip852)" style="stroke:#000000; stroke-linecap:round; stroke-linejoin:round; stroke-width:2; stroke-opacity:0.1; fill:none" points="
  1731.82,1800.78 1731.82,47.2441 
  "/>
<polyline clip-path="url(#clip852)" style="stroke:#000000; stroke-linecap:round; stroke-linejoin:round; stroke-width:2; stroke-opacity:0.1; fill:none" points="
  1899.52,1800.78 1899.52,47.2441 
  "/>
<polyline clip-path="url(#clip852)" style="stroke:#000000; stroke-linecap:round; stroke-linejoin:round; stroke-width:2; stroke-opacity:0.1; fill:none" points="
  2067.22,1800.78 2067.22,47.2441 
  "/>
<polyline clip-path="url(#clip852)" style="stroke:#000000; stroke-linecap:round; stroke-linejoin:round; stroke-width:2; stroke-opacity:0.1; fill:none" points="
  2234.92,1800.78 2234.92,47.2441 
  "/>
<polyline clip-path="url(#clip852)" style="stroke:#000000; stroke-linecap:round; stroke-linejoin:round; stroke-width:2; stroke-opacity:0.1; fill:none" points="
  2402.62,1800.78 2402.62,47.2441 
  "/>
<polyline clip-path="url(#clip852)" style="stroke:#000000; stroke-linecap:round; stroke-linejoin:round; stroke-width:2; stroke-opacity:0.1; fill:none" points="
  2570.32,1800.78 2570.32,47.2441 
  "/>
<polyline clip-path="url(#clip850)" style="stroke:#000000; stroke-linecap:round; stroke-linejoin:round; stroke-width:4; stroke-opacity:1; fill:none" points="
  152.071,1800.78 2640.76,1800.78 
  "/>
<polyline clip-path="url(#clip850)" style="stroke:#000000; stroke-linecap:round; stroke-linejoin:round; stroke-width:4; stroke-opacity:1; fill:none" points="
  222.505,1800.78 222.505,1781.88 
  "/>
<polyline clip-path="url(#clip850)" style="stroke:#000000; stroke-linecap:round; stroke-linejoin:round; stroke-width:4; stroke-opacity:1; fill:none" points="
  390.206,1800.78 390.206,1781.88 
  "/>
<polyline clip-path="url(#clip850)" style="stroke:#000000; stroke-linecap:round; stroke-linejoin:round; stroke-width:4; stroke-opacity:1; fill:none" points="
  557.908,1800.78 557.908,1781.88 
  "/>
<polyline clip-path="url(#clip850)" style="stroke:#000000; stroke-linecap:round; stroke-linejoin:round; stroke-width:4; stroke-opacity:1; fill:none" points="
  725.609,1800.78 725.609,1781.88 
  "/>
<polyline clip-path="url(#clip850)" style="stroke:#000000; stroke-linecap:round; stroke-linejoin:round; stroke-width:4; stroke-opacity:1; fill:none" points="
  893.31,1800.78 893.31,1781.88 
  "/>
<polyline clip-path="url(#clip850)" style="stroke:#000000; stroke-linecap:round; stroke-linejoin:round; stroke-width:4; stroke-opacity:1; fill:none" points="
  1061.01,1800.78 1061.01,1781.88 
  "/>
<polyline clip-path="url(#clip850)" style="stroke:#000000; stroke-linecap:round; stroke-linejoin:round; stroke-width:4; stroke-opacity:1; fill:none" points="
  1228.71,1800.78 1228.71,1781.88 
  "/>
<polyline clip-path="url(#clip850)" style="stroke:#000000; stroke-linecap:round; stroke-linejoin:round; stroke-width:4; stroke-opacity:1; fill:none" points="
  1396.41,1800.78 1396.41,1781.88 
  "/>
<polyline clip-path="url(#clip850)" style="stroke:#000000; stroke-linecap:round; stroke-linejoin:round; stroke-width:4; stroke-opacity:1; fill:none" points="
  1564.11,1800.78 1564.11,1781.88 
  "/>
<polyline clip-path="url(#clip850)" style="stroke:#000000; stroke-linecap:round; stroke-linejoin:round; stroke-width:4; stroke-opacity:1; fill:none" points="
  1731.82,1800.78 1731.82,1781.88 
  "/>
<polyline clip-path="url(#clip850)" style="stroke:#000000; stroke-linecap:round; stroke-linejoin:round; stroke-width:4; stroke-opacity:1; fill:none" points="
  1899.52,1800.78 1899.52,1781.88 
  "/>
<polyline clip-path="url(#clip850)" style="stroke:#000000; stroke-linecap:round; stroke-linejoin:round; stroke-width:4; stroke-opacity:1; fill:none" points="
  2067.22,1800.78 2067.22,1781.88 
  "/>
<polyline clip-path="url(#clip850)" style="stroke:#000000; stroke-linecap:round; stroke-linejoin:round; stroke-width:4; stroke-opacity:1; fill:none" points="
  2234.92,1800.78 2234.92,1781.88 
  "/>
<polyline clip-path="url(#clip850)" style="stroke:#000000; stroke-linecap:round; stroke-linejoin:round; stroke-width:4; stroke-opacity:1; fill:none" points="
  2402.62,1800.78 2402.62,1781.88 
  "/>
<polyline clip-path="url(#clip850)" style="stroke:#000000; stroke-linecap:round; stroke-linejoin:round; stroke-width:4; stroke-opacity:1; fill:none" points="
  2570.32,1800.78 2570.32,1781.88 
  "/>
<path clip-path="url(#clip850)" d="M222.505 1834 Q218.894 1834 217.066 1837.57 Q215.26 1841.11 215.26 1848.24 Q215.26 1855.34 217.066 1858.91 Q218.894 1862.45 222.505 1862.45 Q226.14 1862.45 227.945 1858.91 Q229.774 1855.34 229.774 1848.24 Q229.774 1841.11 227.945 1837.57 Q226.14 1834 222.505 1834 M222.505 1830.3 Q228.316 1830.3 231.371 1834.9 Q234.45 1839.49 234.45 1848.24 Q234.45 1856.96 231.371 1861.57 Q228.316 1866.15 222.505 1866.15 Q216.695 1866.15 213.617 1861.57 Q210.561 1856.96 210.561 1848.24 Q210.561 1839.49 213.617 1834.9 Q216.695 1830.3 222.505 1830.3 Z" fill="#000000" fill-rule="evenodd" fill-opacity="1" /><path clip-path="url(#clip850)" d="M380.588 1861.55 L388.227 1861.55 L388.227 1835.18 L379.917 1836.85 L379.917 1832.59 L388.181 1830.92 L392.857 1830.92 L392.857 1861.55 L400.496 1861.55 L400.496 1865.48 L380.588 1865.48 L380.588 1861.55 Z" fill="#000000" fill-rule="evenodd" fill-opacity="1" /><path clip-path="url(#clip850)" d="M552.56 1861.55 L568.88 1861.55 L568.88 1865.48 L546.935 1865.48 L546.935 1861.55 Q549.598 1858.79 554.181 1854.16 Q558.787 1849.51 559.968 1848.17 Q562.213 1845.65 563.093 1843.91 Q563.996 1842.15 563.996 1840.46 Q563.996 1837.71 562.051 1835.97 Q560.13 1834.23 557.028 1834.23 Q554.829 1834.23 552.375 1835 Q549.945 1835.76 547.167 1837.31 L547.167 1832.59 Q549.991 1831.46 552.445 1830.88 Q554.898 1830.3 556.935 1830.3 Q562.306 1830.3 565.5 1832.98 Q568.695 1835.67 568.695 1840.16 Q568.695 1842.29 567.884 1844.21 Q567.097 1846.11 564.991 1848.7 Q564.412 1849.37 561.31 1852.59 Q558.209 1855.78 552.56 1861.55 Z" fill="#000000" fill-rule="evenodd" fill-opacity="1" /><path clip-path="url(#clip850)" d="M729.856 1846.85 Q733.213 1847.57 735.088 1849.84 Q736.986 1852.1 736.986 1855.44 Q736.986 1860.55 733.468 1863.35 Q729.949 1866.15 723.468 1866.15 Q721.292 1866.15 718.977 1865.71 Q716.685 1865.3 714.232 1864.44 L714.232 1859.93 Q716.176 1861.06 718.491 1861.64 Q720.806 1862.22 723.329 1862.22 Q727.727 1862.22 730.018 1860.48 Q732.333 1858.75 732.333 1855.44 Q732.333 1852.38 730.181 1850.67 Q728.051 1848.93 724.231 1848.93 L720.204 1848.93 L720.204 1845.09 L724.417 1845.09 Q727.866 1845.09 729.694 1843.72 Q731.523 1842.34 731.523 1839.74 Q731.523 1837.08 729.625 1835.67 Q727.75 1834.23 724.231 1834.23 Q722.31 1834.23 720.111 1834.65 Q717.912 1835.07 715.273 1835.95 L715.273 1831.78 Q717.935 1831.04 720.25 1830.67 Q722.588 1830.3 724.648 1830.3 Q729.972 1830.3 733.074 1832.73 Q736.176 1835.14 736.176 1839.26 Q736.176 1842.13 734.532 1844.12 Q732.889 1846.09 729.856 1846.85 Z" fill="#000000" fill-rule="evenodd" fill-opacity="1" /><path clip-path="url(#clip850)" d="M896.319 1835 L884.514 1853.45 L896.319 1853.45 L896.319 1835 M895.092 1830.92 L900.972 1830.92 L900.972 1853.45 L905.902 1853.45 L905.902 1857.34 L900.972 1857.34 L900.972 1865.48 L896.319 1865.48 L896.319 1857.34 L880.717 1857.34 L880.717 1852.82 L895.092 1830.92 Z" fill="#000000" fill-rule="evenodd" fill-opacity="1" /><path clip-path="url(#clip850)" d="M1051.29 1830.92 L1069.65 1830.92 L1069.65 1834.86 L1055.57 1834.86 L1055.57 1843.33 Q1056.59 1842.98 1057.61 1842.82 Q1058.63 1842.64 1059.65 1842.64 Q1065.43 1842.64 1068.81 1845.81 Q1072.19 1848.98 1072.19 1854.4 Q1072.19 1859.97 1068.72 1863.08 Q1065.25 1866.15 1058.93 1866.15 Q1056.75 1866.15 1054.48 1865.78 Q1052.24 1865.41 1049.83 1864.67 L1049.83 1859.97 Q1051.91 1861.11 1054.14 1861.66 Q1056.36 1862.22 1058.84 1862.22 Q1062.84 1862.22 1065.18 1860.11 Q1067.52 1858.01 1067.52 1854.4 Q1067.52 1850.78 1065.18 1848.68 Q1062.84 1846.57 1058.84 1846.57 Q1056.96 1846.57 1055.09 1846.99 Q1053.23 1847.4 1051.29 1848.28 L1051.29 1830.92 Z" fill="#000000" fill-rule="evenodd" fill-opacity="1" /><path clip-path="url(#clip850)" d="M1229.12 1846.34 Q1225.97 1846.34 1224.12 1848.49 Q1222.29 1850.65 1222.29 1854.4 Q1222.29 1858.12 1224.12 1860.3 Q1225.97 1862.45 1229.12 1862.45 Q1232.27 1862.45 1234.09 1860.3 Q1235.95 1858.12 1235.95 1854.4 Q1235.95 1850.65 1234.09 1848.49 Q1232.27 1846.34 1229.12 1846.34 M1238.4 1831.69 L1238.4 1835.95 Q1236.64 1835.11 1234.83 1834.67 Q1233.05 1834.23 1231.29 1834.23 Q1226.66 1834.23 1224.21 1837.36 Q1221.78 1840.48 1221.43 1846.8 Q1222.8 1844.79 1224.86 1843.72 Q1226.92 1842.64 1229.4 1842.64 Q1234.6 1842.64 1237.61 1845.81 Q1240.65 1848.96 1240.65 1854.4 Q1240.65 1859.72 1237.5 1862.94 Q1234.35 1866.15 1229.12 1866.15 Q1223.12 1866.15 1219.95 1861.57 Q1216.78 1856.96 1216.78 1848.24 Q1216.78 1840.04 1220.67 1835.18 Q1224.56 1830.3 1231.11 1830.3 Q1232.87 1830.3 1234.65 1830.65 Q1236.46 1830.99 1238.4 1831.69 Z" fill="#000000" fill-rule="evenodd" fill-opacity="1" /><path clip-path="url(#clip850)" d="M1385.3 1830.92 L1407.52 1830.92 L1407.52 1832.91 L1394.98 1865.48 L1390.09 1865.48 L1401.9 1834.86 L1385.3 1834.86 L1385.3 1830.92 Z" fill="#000000" fill-rule="evenodd" fill-opacity="1" /><path clip-path="url(#clip850)" d="M1564.11 1849.07 Q1560.78 1849.07 1558.86 1850.85 Q1556.96 1852.64 1556.96 1855.76 Q1556.96 1858.89 1558.86 1860.67 Q1560.78 1862.45 1564.11 1862.45 Q1567.45 1862.45 1569.37 1860.67 Q1571.29 1858.86 1571.29 1855.76 Q1571.29 1852.64 1569.37 1850.85 Q1567.47 1849.07 1564.11 1849.07 M1559.44 1847.08 Q1556.43 1846.34 1554.74 1844.28 Q1553.07 1842.22 1553.07 1839.26 Q1553.07 1835.11 1556.01 1832.71 Q1558.98 1830.3 1564.11 1830.3 Q1569.28 1830.3 1572.22 1832.71 Q1575.16 1835.11 1575.16 1839.26 Q1575.16 1842.22 1573.47 1844.28 Q1571.8 1846.34 1568.81 1847.08 Q1572.19 1847.87 1574.07 1850.16 Q1575.97 1852.45 1575.97 1855.76 Q1575.97 1860.78 1572.89 1863.47 Q1569.83 1866.15 1564.11 1866.15 Q1558.4 1866.15 1555.32 1863.47 Q1552.26 1860.78 1552.26 1855.76 Q1552.26 1852.45 1554.16 1850.16 Q1556.06 1847.87 1559.44 1847.08 M1557.73 1839.7 Q1557.73 1842.38 1559.39 1843.89 Q1561.08 1845.39 1564.11 1845.39 Q1567.12 1845.39 1568.81 1843.89 Q1570.53 1842.38 1570.53 1839.7 Q1570.53 1837.01 1568.81 1835.51 Q1567.12 1834 1564.11 1834 Q1561.08 1834 1559.39 1835.51 Q1557.73 1837.01 1557.73 1839.7 Z" fill="#000000" fill-rule="evenodd" fill-opacity="1" /><path clip-path="url(#clip850)" d="M1722.12 1864.77 L1722.12 1860.51 Q1723.88 1861.34 1725.68 1861.78 Q1727.49 1862.22 1729.22 1862.22 Q1733.85 1862.22 1736.28 1859.12 Q1738.74 1855.99 1739.08 1849.65 Q1737.74 1851.64 1735.68 1852.71 Q1733.62 1853.77 1731.12 1853.77 Q1725.94 1853.77 1722.9 1850.65 Q1719.89 1847.5 1719.89 1842.06 Q1719.89 1836.73 1723.04 1833.52 Q1726.19 1830.3 1731.42 1830.3 Q1737.42 1830.3 1740.57 1834.9 Q1743.74 1839.49 1743.74 1848.24 Q1743.74 1856.41 1739.85 1861.29 Q1735.98 1866.15 1729.43 1866.15 Q1727.67 1866.15 1725.87 1865.81 Q1724.06 1865.46 1722.12 1864.77 M1731.42 1850.11 Q1734.57 1850.11 1736.4 1847.96 Q1738.25 1845.81 1738.25 1842.06 Q1738.25 1838.33 1736.4 1836.18 Q1734.57 1834 1731.42 1834 Q1728.27 1834 1726.42 1836.18 Q1724.59 1838.33 1724.59 1842.06 Q1724.59 1845.81 1726.42 1847.96 Q1728.27 1850.11 1731.42 1850.11 Z" fill="#000000" fill-rule="evenodd" fill-opacity="1" /><path clip-path="url(#clip850)" d="M1874.2 1861.55 L1881.84 1861.55 L1881.84 1835.18 L1873.53 1836.85 L1873.53 1832.59 L1881.8 1830.92 L1886.47 1830.92 L1886.47 1861.55 L1894.11 1861.55 L1894.11 1865.48 L1874.2 1865.48 L1874.2 1861.55 Z" fill="#000000" fill-rule="evenodd" fill-opacity="1" /><path clip-path="url(#clip850)" d="M1913.56 1834 Q1909.95 1834 1908.12 1837.57 Q1906.31 1841.11 1906.31 1848.24 Q1906.31 1855.34 1908.12 1858.91 Q1909.95 1862.45 1913.56 1862.45 Q1917.19 1862.45 1919 1858.91 Q1920.82 1855.34 1920.82 1848.24 Q1920.82 1841.11 1919 1837.57 Q1917.19 1834 1913.56 1834 M1913.56 1830.3 Q1919.37 1830.3 1922.42 1834.9 Q1925.5 1839.49 1925.5 1848.24 Q1925.5 1856.96 1922.42 1861.57 Q1919.37 1866.15 1913.56 1866.15 Q1907.75 1866.15 1904.67 1861.57 Q1901.61 1856.96 1901.61 1848.24 Q1901.61 1839.49 1904.67 1834.9 Q1907.75 1830.3 1913.56 1830.3 Z" fill="#000000" fill-rule="evenodd" fill-opacity="1" /><path clip-path="url(#clip850)" d="M2042.52 1861.55 L2050.16 1861.55 L2050.16 1835.18 L2041.85 1836.85 L2041.85 1832.59 L2050.11 1830.92 L2054.79 1830.92 L2054.79 1861.55 L2062.43 1861.55 L2062.43 1865.48 L2042.52 1865.48 L2042.52 1861.55 Z" fill="#000000" fill-rule="evenodd" fill-opacity="1" /><path clip-path="url(#clip850)" d="M2072.68 1861.55 L2080.32 1861.55 L2080.32 1835.18 L2072.01 1836.85 L2072.01 1832.59 L2080.27 1830.92 L2084.95 1830.92 L2084.95 1861.55 L2092.59 1861.55 L2092.59 1865.48 L2072.68 1865.48 L2072.68 1861.55 Z" fill="#000000" fill-rule="evenodd" fill-opacity="1" /><path clip-path="url(#clip850)" d="M2210.41 1861.55 L2218.04 1861.55 L2218.04 1835.18 L2209.73 1836.85 L2209.73 1832.59 L2218 1830.92 L2222.67 1830.92 L2222.67 1861.55 L2230.31 1861.55 L2230.31 1865.48 L2210.41 1865.48 L2210.41 1861.55 Z" fill="#000000" fill-rule="evenodd" fill-opacity="1" /><path clip-path="url(#clip850)" d="M2243.78 1861.55 L2260.1 1861.55 L2260.1 1865.48 L2238.16 1865.48 L2238.16 1861.55 Q2240.82 1858.79 2245.41 1854.16 Q2250.01 1849.51 2251.19 1848.17 Q2253.44 1845.65 2254.32 1843.91 Q2255.22 1842.15 2255.22 1840.46 Q2255.22 1837.71 2253.28 1835.97 Q2251.35 1834.23 2248.25 1834.23 Q2246.05 1834.23 2243.6 1835 Q2241.17 1835.76 2238.39 1837.31 L2238.39 1832.59 Q2241.22 1831.46 2243.67 1830.88 Q2246.12 1830.3 2248.16 1830.3 Q2253.53 1830.3 2256.72 1832.98 Q2259.92 1835.67 2259.92 1840.16 Q2259.92 1842.29 2259.11 1844.21 Q2258.32 1846.11 2256.22 1848.7 Q2255.64 1849.37 2252.53 1852.59 Q2249.43 1855.78 2243.78 1861.55 Z" fill="#000000" fill-rule="evenodd" fill-opacity="1" /><path clip-path="url(#clip850)" d="M2377.63 1861.55 L2385.27 1861.55 L2385.27 1835.18 L2376.96 1836.85 L2376.96 1832.59 L2385.22 1830.92 L2389.9 1830.92 L2389.9 1861.55 L2397.54 1861.55 L2397.54 1865.48 L2377.63 1865.48 L2377.63 1861.55 Z" fill="#000000" fill-rule="evenodd" fill-opacity="1" /><path clip-path="url(#clip850)" d="M2421.15 1846.85 Q2424.51 1847.57 2426.38 1849.84 Q2428.28 1852.1 2428.28 1855.44 Q2428.28 1860.55 2424.76 1863.35 Q2421.24 1866.15 2414.76 1866.15 Q2412.59 1866.15 2410.27 1865.71 Q2407.98 1865.3 2405.53 1864.44 L2405.53 1859.93 Q2407.47 1861.06 2409.78 1861.64 Q2412.1 1862.22 2414.62 1862.22 Q2419.02 1862.22 2421.31 1860.48 Q2423.63 1858.75 2423.63 1855.44 Q2423.63 1852.38 2421.47 1850.67 Q2419.34 1848.93 2415.53 1848.93 L2411.5 1848.93 L2411.5 1845.09 L2415.71 1845.09 Q2419.16 1845.09 2420.99 1843.72 Q2422.82 1842.34 2422.82 1839.74 Q2422.82 1837.08 2420.92 1835.67 Q2419.04 1834.23 2415.53 1834.23 Q2413.6 1834.23 2411.4 1834.65 Q2409.21 1835.07 2406.57 1835.95 L2406.57 1831.78 Q2409.23 1831.04 2411.54 1830.67 Q2413.88 1830.3 2415.94 1830.3 Q2421.27 1830.3 2424.37 1832.73 Q2427.47 1835.14 2427.47 1839.26 Q2427.47 1842.13 2425.83 1844.12 Q2424.18 1846.09 2421.15 1846.85 Z" fill="#000000" fill-rule="evenodd" fill-opacity="1" /><path clip-path="url(#clip850)" d="M2544.77 1861.55 L2552.4 1861.55 L2552.4 1835.18 L2544.09 1836.85 L2544.09 1832.59 L2552.36 1830.92 L2557.03 1830.92 L2557.03 1861.55 L2564.67 1861.55 L2564.67 1865.48 L2544.77 1865.48 L2544.77 1861.55 Z" fill="#000000" fill-rule="evenodd" fill-opacity="1" /><path clip-path="url(#clip850)" d="M2586.96 1835 L2575.16 1853.45 L2586.96 1853.45 L2586.96 1835 M2585.74 1830.92 L2591.62 1830.92 L2591.62 1853.45 L2596.55 1853.45 L2596.55 1857.34 L2591.62 1857.34 L2591.62 1865.48 L2586.96 1865.48 L2586.96 1857.34 L2571.36 1857.34 L2571.36 1852.82 L2585.74 1830.92 Z" fill="#000000" fill-rule="evenodd" fill-opacity="1" /><polyline clip-path="url(#clip852)" style="stroke:#000000; stroke-linecap:round; stroke-linejoin:round; stroke-width:2; stroke-opacity:0.1; fill:none" points="
  152.071,1510.97 2640.76,1510.97 
  "/>
<polyline clip-path="url(#clip852)" style="stroke:#000000; stroke-linecap:round; stroke-linejoin:round; stroke-width:2; stroke-opacity:0.1; fill:none" points="
  152.071,1343.26 2640.76,1343.26 
  "/>
<polyline clip-path="url(#clip852)" style="stroke:#000000; stroke-linecap:round; stroke-linejoin:round; stroke-width:2; stroke-opacity:0.1; fill:none" points="
  152.071,1175.56 2640.76,1175.56 
  "/>
<polyline clip-path="url(#clip852)" style="stroke:#000000; stroke-linecap:round; stroke-linejoin:round; stroke-width:2; stroke-opacity:0.1; fill:none" points="
  152.071,1007.86 2640.76,1007.86 
  "/>
<polyline clip-path="url(#clip852)" style="stroke:#000000; stroke-linecap:round; stroke-linejoin:round; stroke-width:2; stroke-opacity:0.1; fill:none" points="
  152.071,840.161 2640.76,840.161 
  "/>
<polyline clip-path="url(#clip852)" style="stroke:#000000; stroke-linecap:round; stroke-linejoin:round; stroke-width:2; stroke-opacity:0.1; fill:none" points="
  152.071,672.46 2640.76,672.46 
  "/>
<polyline clip-path="url(#clip852)" style="stroke:#000000; stroke-linecap:round; stroke-linejoin:round; stroke-width:2; stroke-opacity:0.1; fill:none" points="
  152.071,504.759 2640.76,504.759 
  "/>
<polyline clip-path="url(#clip852)" style="stroke:#000000; stroke-linecap:round; stroke-linejoin:round; stroke-width:2; stroke-opacity:0.1; fill:none" points="
  152.071,337.058 2640.76,337.058 
  "/>
<polyline clip-path="url(#clip850)" style="stroke:#000000; stroke-linecap:round; stroke-linejoin:round; stroke-width:4; stroke-opacity:1; fill:none" points="
  152.071,1800.78 152.071,47.2441 
  "/>
<polyline clip-path="url(#clip850)" style="stroke:#000000; stroke-linecap:round; stroke-linejoin:round; stroke-width:4; stroke-opacity:1; fill:none" points="
  152.071,1510.97 170.969,1510.97 
  "/>
<polyline clip-path="url(#clip850)" style="stroke:#000000; stroke-linecap:round; stroke-linejoin:round; stroke-width:4; stroke-opacity:1; fill:none" points="
  152.071,1343.26 170.969,1343.26 
  "/>
<polyline clip-path="url(#clip850)" style="stroke:#000000; stroke-linecap:round; stroke-linejoin:round; stroke-width:4; stroke-opacity:1; fill:none" points="
  152.071,1175.56 170.969,1175.56 
  "/>
<polyline clip-path="url(#clip850)" style="stroke:#000000; stroke-linecap:round; stroke-linejoin:round; stroke-width:4; stroke-opacity:1; fill:none" points="
  152.071,1007.86 170.969,1007.86 
  "/>
<polyline clip-path="url(#clip850)" style="stroke:#000000; stroke-linecap:round; stroke-linejoin:round; stroke-width:4; stroke-opacity:1; fill:none" points="
  152.071,840.161 170.969,840.161 
  "/>
<polyline clip-path="url(#clip850)" style="stroke:#000000; stroke-linecap:round; stroke-linejoin:round; stroke-width:4; stroke-opacity:1; fill:none" points="
  152.071,672.46 170.969,672.46 
  "/>
<polyline clip-path="url(#clip850)" style="stroke:#000000; stroke-linecap:round; stroke-linejoin:round; stroke-width:4; stroke-opacity:1; fill:none" points="
  152.071,504.759 170.969,504.759 
  "/>
<polyline clip-path="url(#clip850)" style="stroke:#000000; stroke-linecap:round; stroke-linejoin:round; stroke-width:4; stroke-opacity:1; fill:none" points="
  152.071,337.058 170.969,337.058 
  "/>
<path clip-path="url(#clip850)" d="M51.0336 1511.42 L80.7094 1511.42 L80.7094 1515.35 L51.0336 1515.35 L51.0336 1511.42 Z" fill="#000000" fill-rule="evenodd" fill-opacity="1" /><path clip-path="url(#clip850)" d="M90.8482 1493.69 L109.205 1493.69 L109.205 1497.62 L95.1306 1497.62 L95.1306 1506.09 Q96.1491 1505.75 97.1676 1505.58 Q98.1861 1505.4 99.2046 1505.4 Q104.992 1505.4 108.371 1508.57 Q111.751 1511.74 111.751 1517.16 Q111.751 1522.74 108.279 1525.84 Q104.806 1528.92 98.487 1528.92 Q96.3111 1528.92 94.0426 1528.55 Q91.7973 1528.18 89.3899 1527.44 L89.3899 1522.74 Q91.4732 1523.87 93.6954 1524.43 Q95.9176 1524.98 98.3945 1524.98 Q102.399 1524.98 104.737 1522.88 Q107.075 1520.77 107.075 1517.16 Q107.075 1513.55 104.737 1511.44 Q102.399 1509.33 98.3945 1509.33 Q96.5195 1509.33 94.6445 1509.75 Q92.7926 1510.17 90.8482 1511.05 L90.8482 1493.69 Z" fill="#000000" fill-rule="evenodd" fill-opacity="1" /><path clip-path="url(#clip850)" d="M49.5521 1343.72 L79.2279 1343.72 L79.2279 1347.65 L49.5521 1347.65 L49.5521 1343.72 Z" fill="#000000" fill-rule="evenodd" fill-opacity="1" /><path clip-path="url(#clip850)" d="M102.168 1330.06 L90.3621 1348.51 L102.168 1348.51 L102.168 1330.06 M100.941 1325.98 L106.82 1325.98 L106.82 1348.51 L111.751 1348.51 L111.751 1352.4 L106.82 1352.4 L106.82 1360.54 L102.168 1360.54 L102.168 1352.4 L86.5658 1352.4 L86.5658 1347.88 L100.941 1325.98 Z" fill="#000000" fill-rule="evenodd" fill-opacity="1" /><path clip-path="url(#clip850)" d="M50.6864 1176.01 L80.3621 1176.01 L80.3621 1179.95 L50.6864 1179.95 L50.6864 1176.01 Z" fill="#000000" fill-rule="evenodd" fill-opacity="1" /><path clip-path="url(#clip850)" d="M104.621 1174.21 Q107.978 1174.93 109.853 1177.2 Q111.751 1179.46 111.751 1182.8 Q111.751 1187.91 108.232 1190.71 Q104.714 1193.51 98.2324 1193.51 Q96.0565 1193.51 93.7417 1193.07 Q91.45 1192.66 88.9964 1191.8 L88.9964 1187.29 Q90.9408 1188.42 93.2556 1189 Q95.5704 1189.58 98.0935 1189.58 Q102.492 1189.58 104.783 1187.84 Q107.098 1186.11 107.098 1182.8 Q107.098 1179.74 104.945 1178.03 Q102.816 1176.29 98.9963 1176.29 L94.9685 1176.29 L94.9685 1172.45 L99.1815 1172.45 Q102.631 1172.45 104.459 1171.08 Q106.288 1169.7 106.288 1167.1 Q106.288 1164.44 104.39 1163.03 Q102.515 1161.59 98.9963 1161.59 Q97.075 1161.59 94.876 1162.01 Q92.6769 1162.43 90.038 1163.31 L90.038 1159.14 Q92.7 1158.4 95.0148 1158.03 Q97.3528 1157.66 99.413 1157.66 Q104.737 1157.66 107.839 1160.09 Q110.941 1162.5 110.941 1166.62 Q110.941 1169.49 109.297 1171.48 Q107.654 1173.45 104.621 1174.21 Z" fill="#000000" fill-rule="evenodd" fill-opacity="1" /><path clip-path="url(#clip850)" d="M51.6354 1008.31 L81.3112 1008.31 L81.3112 1012.25 L51.6354 1012.25 L51.6354 1008.31 Z" fill="#000000" fill-rule="evenodd" fill-opacity="1" /><path clip-path="url(#clip850)" d="M95.4315 1021.21 L111.751 1021.21 L111.751 1025.14 L89.8065 1025.14 L89.8065 1021.21 Q92.4686 1018.45 97.0519 1013.82 Q101.658 1009.17 102.839 1007.83 Q105.084 1005.3 105.964 1003.57 Q106.867 1001.81 106.867 1000.12 Q106.867 997.365 104.922 995.629 Q103.001 993.892 99.8991 993.892 Q97.7 993.892 95.2463 994.656 Q92.8158 995.42 90.038 996.971 L90.038 992.249 Q92.8621 991.115 95.3158 990.536 Q97.7695 989.957 99.8065 989.957 Q105.177 989.957 108.371 992.642 Q111.566 995.328 111.566 999.818 Q111.566 1001.95 110.756 1003.87 Q109.968 1005.77 107.862 1008.36 Q107.283 1009.03 104.181 1012.25 Q101.08 1015.44 95.4315 1021.21 Z" fill="#000000" fill-rule="evenodd" fill-opacity="1" /><path clip-path="url(#clip850)" d="M51.2651 840.613 L80.9408 840.613 L80.9408 844.548 L51.2651 844.548 L51.2651 840.613 Z" fill="#000000" fill-rule="evenodd" fill-opacity="1" /><path clip-path="url(#clip850)" d="M91.8436 853.506 L99.4824 853.506 L99.4824 827.14 L91.1723 828.807 L91.1723 824.548 L99.4361 822.881 L104.112 822.881 L104.112 853.506 L111.751 853.506 L111.751 857.441 L91.8436 857.441 L91.8436 853.506 Z" fill="#000000" fill-rule="evenodd" fill-opacity="1" /><path clip-path="url(#clip850)" d="M99.8065 658.259 Q96.1954 658.259 94.3667 661.823 Q92.5612 665.365 92.5612 672.495 Q92.5612 679.601 94.3667 683.166 Q96.1954 686.708 99.8065 686.708 Q103.441 686.708 105.246 683.166 Q107.075 679.601 107.075 672.495 Q107.075 665.365 105.246 661.823 Q103.441 658.259 99.8065 658.259 M99.8065 654.555 Q105.617 654.555 108.672 659.161 Q111.751 663.745 111.751 672.495 Q111.751 681.222 108.672 685.828 Q105.617 690.411 99.8065 690.411 Q93.9963 690.411 90.9176 685.828 Q87.8621 681.222 87.8621 672.495 Q87.8621 663.745 90.9176 659.161 Q93.9963 654.555 99.8065 654.555 Z" fill="#000000" fill-rule="evenodd" fill-opacity="1" /><path clip-path="url(#clip850)" d="M91.8436 518.104 L99.4824 518.104 L99.4824 491.738 L91.1723 493.405 L91.1723 489.145 L99.4361 487.479 L104.112 487.479 L104.112 518.104 L111.751 518.104 L111.751 522.039 L91.8436 522.039 L91.8436 518.104 Z" fill="#000000" fill-rule="evenodd" fill-opacity="1" /><path clip-path="url(#clip850)" d="M95.4315 350.403 L111.751 350.403 L111.751 354.338 L89.8065 354.338 L89.8065 350.403 Q92.4686 347.648 97.0519 343.018 Q101.658 338.366 102.839 337.023 Q105.084 334.5 105.964 332.764 Q106.867 331.004 106.867 329.315 Q106.867 326.56 104.922 324.824 Q103.001 323.088 99.8991 323.088 Q97.7 323.088 95.2463 323.852 Q92.8158 324.616 90.038 326.167 L90.038 321.444 Q92.8621 320.31 95.3158 319.731 Q97.7695 319.153 99.8065 319.153 Q105.177 319.153 108.371 321.838 Q111.566 324.523 111.566 329.014 Q111.566 331.143 110.756 333.065 Q109.968 334.963 107.862 337.555 Q107.283 338.227 104.181 341.444 Q101.08 344.639 95.4315 350.403 Z" fill="#000000" fill-rule="evenodd" fill-opacity="1" /><polyline clip-path="url(#clip852)" style="stroke:#009af9; stroke-linecap:round; stroke-linejoin:round; stroke-width:4; stroke-opacity:1; fill:none" points="
  222.505,504.759 237.791,509.854 379.128,556.966 464.066,585.279 535.88,609.217 613.889,635.22 685.808,659.193 762.911,684.894 852.244,714.672 931.632,741.134 
  1001.25,764.34 1077.15,789.64 1153.5,815.09 1237.92,843.229 1318.24,870.003 1401.75,897.841 1472.05,921.274 1557.88,949.884 1636.51,976.093 1709.12,1000.3 
  1782.68,1024.82 1865.12,1052.3 1939.82,1077.2 2025.35,1105.71 2104.54,1132.11 2182.62,1158.13 2258.42,1183.4 2336.13,1209.3 2421.27,1237.68 2544.95,1278.91 
  2570.32,1287.36 
  "/>
<circle clip-path="url(#clip852)" cx="222.505" cy="504.759" r="18" fill="#e26f46" fill-rule="evenodd" fill-opacity="1" stroke="#000000" stroke-opacity="1" stroke-width="3.84"/>
<path clip-path="url(#clip852)" d="M390.206 568.609 L386.726 581.409 L374.566 576.149 L382.406 586.829 L370.706 593.069 L383.946 593.589 L381.526 606.629 L390.206 596.609 L398.886 606.629 L396.466 593.589 L409.706 593.069 L398.006 586.829 L405.846 576.149 L393.686 581.409 L390.206 568.609 Z" fill="#3da44d" fill-rule="evenodd" fill-opacity="1" stroke="#000000" stroke-opacity="1" stroke-width="3.84"/>
<path clip-path="url(#clip852)" d="
M222.505 504.759 L390.206 504.759 L390.206 672.46 L222.505 672.46 L222.505 504.759  Z
  " fill="#a3a3a3" fill-rule="evenodd" fill-opacity="0.25"/>
<polyline clip-path="url(#clip852)" style="stroke:#000000; stroke-linecap:round; stroke-linejoin:round; stroke-width:4; stroke-opacity:1; fill:none" points="
  222.505,504.759 390.206,504.759 390.206,672.46 222.505,672.46 222.505,504.759 
  "/>
<circle clip-path="url(#clip852)" cx="390.206" cy="504.759" r="18" fill="#ac8d18" fill-rule="evenodd" fill-opacity="1" stroke="#000000" stroke-opacity="1" stroke-width="3.84"/>
<path clip-path="url(#clip852)" d="M557.908 568.609 L554.428 581.409 L542.268 576.149 L550.108 586.829 L538.408 593.069 L551.648 593.589 L549.228 606.629 L557.908 596.609 L566.588 606.629 L564.168 593.589 L577.408 593.069 L565.708 586.829 L573.548 576.149 L561.388 581.409 L557.908 568.609 Z" fill="#00a9ad" fill-rule="evenodd" fill-opacity="1" stroke="#000000" stroke-opacity="1" stroke-width="3.84"/>
<path clip-path="url(#clip852)" d="
M390.206 504.759 L557.908 504.759 L557.908 672.46 L390.206 672.46 L390.206 504.759  Z
  " fill="#a3a3a3" fill-rule="evenodd" fill-opacity="0.25"/>
<polyline clip-path="url(#clip852)" style="stroke:#000000; stroke-linecap:round; stroke-linejoin:round; stroke-width:4; stroke-opacity:1; fill:none" points="
  390.206,504.759 557.908,504.759 557.908,672.46 390.206,672.46 390.206,504.759 
  "/>
<circle clip-path="url(#clip852)" cx="557.908" cy="672.46" r="18" fill="#c68125" fill-rule="evenodd" fill-opacity="1" stroke="#000000" stroke-opacity="1" stroke-width="3.84"/>
<path clip-path="url(#clip852)" d="M725.609 736.311 L722.129 749.111 L709.969 743.851 L717.809 754.531 L706.109 760.771 L719.349 761.291 L716.929 774.331 L725.609 764.311 L734.289 774.331 L731.869 761.291 L745.109 760.771 L733.409 754.531 L741.249 743.851 L729.089 749.111 L725.609 736.311 Z" fill="#00a98d" fill-rule="evenodd" fill-opacity="1" stroke="#000000" stroke-opacity="1" stroke-width="3.84"/>
<path clip-path="url(#clip852)" d="
M557.908 672.46 L725.609 672.46 L725.609 840.161 L557.908 840.161 L557.908 672.46  Z
  " fill="#a3a3a3" fill-rule="evenodd" fill-opacity="0.25"/>
<polyline clip-path="url(#clip852)" style="stroke:#000000; stroke-linecap:round; stroke-linejoin:round; stroke-width:4; stroke-opacity:1; fill:none" points="
  557.908,672.46 725.609,672.46 725.609,840.161 557.908,840.161 557.908,672.46 
  "/>
<circle clip-path="url(#clip852)" cx="725.609" cy="672.46" r="18" fill="#00a8cb" fill-rule="evenodd" fill-opacity="1" stroke="#000000" stroke-opacity="1" stroke-width="3.84"/>
<path clip-path="url(#clip852)" d="M893.31 736.311 L889.83 749.111 L877.67 743.851 L885.51 754.531 L873.81 760.771 L887.05 761.291 L884.63 774.331 L893.31 764.311 L901.99 774.331 L899.57 761.291 L912.81 760.771 L901.11 754.531 L908.95 743.851 L896.79 749.111 L893.31 736.311 Z" fill="#9b7fe8" fill-rule="evenodd" fill-opacity="1" stroke="#000000" stroke-opacity="1" stroke-width="3.84"/>
<path clip-path="url(#clip852)" d="
M725.609 672.46 L893.31 672.46 L893.31 840.161 L725.609 840.161 L725.609 672.46  Z
  " fill="#a3a3a3" fill-rule="evenodd" fill-opacity="0.25"/>
<polyline clip-path="url(#clip852)" style="stroke:#000000; stroke-linecap:round; stroke-linejoin:round; stroke-width:4; stroke-opacity:1; fill:none" points="
  725.609,672.46 893.31,672.46 893.31,840.161 725.609,840.161 725.609,672.46 
  "/>
<circle clip-path="url(#clip852)" cx="893.31" cy="672.46" r="18" fill="#f05f73" fill-rule="evenodd" fill-opacity="1" stroke="#000000" stroke-opacity="1" stroke-width="3.84"/>
<path clip-path="url(#clip852)" d="M1061.01 736.311 L1057.53 749.111 L1045.37 743.851 L1053.21 754.531 L1041.51 760.771 L1054.75 761.291 L1052.33 774.331 L1061.01 764.311 L1069.69 774.331 L1067.27 761.291 L1080.51 760.771 L1068.81 754.531 L1076.65 743.851 L1064.49 749.111 L1061.01 736.311 Z" fill="#dd64b5" fill-rule="evenodd" fill-opacity="1" stroke="#000000" stroke-opacity="1" stroke-width="3.84"/>
<path clip-path="url(#clip852)" d="
M893.31 672.46 L1061.01 672.46 L1061.01 840.161 L893.31 840.161 L893.31 672.46  Z
  " fill="#a3a3a3" fill-rule="evenodd" fill-opacity="0.25"/>
<polyline clip-path="url(#clip852)" style="stroke:#000000; stroke-linecap:round; stroke-linejoin:round; stroke-width:4; stroke-opacity:1; fill:none" points="
  893.31,672.46 1061.01,672.46 1061.01,840.161 893.31,840.161 893.31,672.46 
  "/>
<circle clip-path="url(#clip852)" cx="1061.01" cy="840.161" r="18" fill="#009af9" fill-rule="evenodd" fill-opacity="1" stroke="#000000" stroke-opacity="1" stroke-width="3.84"/>
<path clip-path="url(#clip852)" d="M1228.71 904.012 L1225.23 916.812 L1213.07 911.552 L1220.91 922.232 L1209.21 928.472 L1222.45 928.992 L1220.03 942.032 L1228.71 932.012 L1237.39 942.032 L1234.97 928.992 L1248.21 928.472 L1236.51 922.232 L1244.35 911.552 L1232.19 916.812 L1228.71 904.012 Z" fill="#e26f46" fill-rule="evenodd" fill-opacity="1" stroke="#000000" stroke-opacity="1" stroke-width="3.84"/>
<path clip-path="url(#clip852)" d="
M1061.01 840.161 L1228.71 840.161 L1228.71 1007.86 L1061.01 1007.86 L1061.01 840.161  Z
  " fill="#a3a3a3" fill-rule="evenodd" fill-opacity="0.25"/>
<polyline clip-path="url(#clip852)" style="stroke:#000000; stroke-linecap:round; stroke-linejoin:round; stroke-width:4; stroke-opacity:1; fill:none" points="
  1061.01,840.161 1228.71,840.161 1228.71,1007.86 1061.01,1007.86 1061.01,840.161 
  "/>
<circle clip-path="url(#clip852)" cx="1228.71" cy="840.161" r="18" fill="#c271d2" fill-rule="evenodd" fill-opacity="1" stroke="#000000" stroke-opacity="1" stroke-width="3.84"/>
<path clip-path="url(#clip852)" d="M1396.41 904.012 L1392.93 916.812 L1380.77 911.552 L1388.61 922.232 L1376.91 928.472 L1390.15 928.992 L1387.73 942.032 L1396.41 932.012 L1405.09 942.032 L1402.67 928.992 L1415.91 928.472 L1404.21 922.232 L1412.05 911.552 L1399.89 916.812 L1396.41 904.012 Z" fill="#ac8d18" fill-rule="evenodd" fill-opacity="1" stroke="#000000" stroke-opacity="1" stroke-width="3.84"/>
<path clip-path="url(#clip852)" d="
M1228.71 840.161 L1396.41 840.161 L1396.41 1007.86 L1228.71 1007.86 L1228.71 840.161  Z
  " fill="#a3a3a3" fill-rule="evenodd" fill-opacity="0.25"/>
<polyline clip-path="url(#clip852)" style="stroke:#000000; stroke-linecap:round; stroke-linejoin:round; stroke-width:4; stroke-opacity:1; fill:none" points="
  1228.71,840.161 1396.41,840.161 1396.41,1007.86 1228.71,1007.86 1228.71,840.161 
  "/>
<circle clip-path="url(#clip852)" cx="1396.41" cy="840.161" r="18" fill="#ed5d92" fill-rule="evenodd" fill-opacity="1" stroke="#000000" stroke-opacity="1" stroke-width="3.84"/>
<path clip-path="url(#clip852)" d="M1564.11 904.012 L1560.63 916.812 L1548.47 911.552 L1556.31 922.232 L1544.61 928.472 L1557.85 928.992 L1555.43 942.032 L1564.11 932.012 L1572.79 942.032 L1570.37 928.992 L1583.61 928.472 L1571.91 922.232 L1579.75 911.552 L1567.59 916.812 L1564.11 904.012 Z" fill="#c68125" fill-rule="evenodd" fill-opacity="1" stroke="#000000" stroke-opacity="1" stroke-width="3.84"/>
<path clip-path="url(#clip852)" d="
M1396.41 840.161 L1564.11 840.161 L1564.11 1007.86 L1396.41 1007.86 L1396.41 840.161  Z
  " fill="#a3a3a3" fill-rule="evenodd" fill-opacity="0.25"/>
<polyline clip-path="url(#clip852)" style="stroke:#000000; stroke-linecap:round; stroke-linejoin:round; stroke-width:4; stroke-opacity:1; fill:none" points="
  1396.41,840.161 1564.11,840.161 1564.11,1007.86 1396.41,1007.86 1396.41,840.161 
  "/>
<circle clip-path="url(#clip852)" cx="1564.11" cy="1007.86" r="18" fill="#8e971d" fill-rule="evenodd" fill-opacity="1" stroke="#000000" stroke-opacity="1" stroke-width="3.84"/>
<path clip-path="url(#clip852)" d="M1731.82 1071.71 L1728.34 1084.51 L1716.18 1079.25 L1724.02 1089.93 L1712.32 1096.17 L1725.56 1096.69 L1723.14 1109.73 L1731.82 1099.71 L1740.5 1109.73 L1738.08 1096.69 L1751.32 1096.17 L1739.62 1089.93 L1747.46 1079.25 L1735.3 1084.51 L1731.82 1071.71 Z" fill="#00a8cb" fill-rule="evenodd" fill-opacity="1" stroke="#000000" stroke-opacity="1" stroke-width="3.84"/>
<path clip-path="url(#clip852)" d="
M1564.11 1007.86 L1731.82 1007.86 L1731.82 1175.56 L1564.11 1175.56 L1564.11 1007.86  Z
  " fill="#a3a3a3" fill-rule="evenodd" fill-opacity="0.25"/>
<polyline clip-path="url(#clip852)" style="stroke:#000000; stroke-linecap:round; stroke-linejoin:round; stroke-width:4; stroke-opacity:1; fill:none" points="
  1564.11,1007.86 1731.82,1007.86 1731.82,1175.56 1564.11,1175.56 1564.11,1007.86 
  "/>
<circle clip-path="url(#clip852)" cx="1731.82" cy="1007.86" r="18" fill="#608cf6" fill-rule="evenodd" fill-opacity="1" stroke="#000000" stroke-opacity="1" stroke-width="3.84"/>
<path clip-path="url(#clip852)" d="M1899.52 1071.71 L1896.04 1084.51 L1883.88 1079.25 L1891.72 1089.93 L1880.02 1096.17 L1893.26 1096.69 L1890.84 1109.73 L1899.52 1099.71 L1908.2 1109.73 L1905.78 1096.69 L1919.02 1096.17 L1907.32 1089.93 L1915.16 1079.25 L1903 1084.51 L1899.52 1071.71 Z" fill="#f05f73" fill-rule="evenodd" fill-opacity="1" stroke="#000000" stroke-opacity="1" stroke-width="3.84"/>
<path clip-path="url(#clip852)" d="
M1731.82 1007.86 L1899.52 1007.86 L1899.52 1175.56 L1731.82 1175.56 L1731.82 1007.86  Z
  " fill="#a3a3a3" fill-rule="evenodd" fill-opacity="0.25"/>
<polyline clip-path="url(#clip852)" style="stroke:#000000; stroke-linecap:round; stroke-linejoin:round; stroke-width:4; stroke-opacity:1; fill:none" points="
  1731.82,1007.86 1899.52,1007.86 1899.52,1175.56 1731.82,1175.56 1731.82,1007.86 
  "/>
<circle clip-path="url(#clip852)" cx="1899.52" cy="1007.86" r="18" fill="#6b9e32" fill-rule="evenodd" fill-opacity="1" stroke="#000000" stroke-opacity="1" stroke-width="3.84"/>
<path clip-path="url(#clip852)" d="M2067.22 1071.71 L2063.74 1084.51 L2051.58 1079.25 L2059.42 1089.93 L2047.72 1096.17 L2060.96 1096.69 L2058.54 1109.73 L2067.22 1099.71 L2075.9 1109.73 L2073.48 1096.69 L2086.72 1096.17 L2075.02 1089.93 L2082.86 1079.25 L2070.7 1084.51 L2067.22 1071.71 Z" fill="#009af9" fill-rule="evenodd" fill-opacity="1" stroke="#000000" stroke-opacity="1" stroke-width="3.84"/>
<path clip-path="url(#clip852)" d="
M1899.52 1007.86 L2067.22 1007.86 L2067.22 1175.56 L1899.52 1175.56 L1899.52 1007.86  Z
  " fill="#a3a3a3" fill-rule="evenodd" fill-opacity="0.25"/>
<polyline clip-path="url(#clip852)" style="stroke:#000000; stroke-linecap:round; stroke-linejoin:round; stroke-width:4; stroke-opacity:1; fill:none" points="
  1899.52,1007.86 2067.22,1007.86 2067.22,1175.56 1899.52,1175.56 1899.52,1007.86 
  "/>
<circle clip-path="url(#clip852)" cx="2067.22" cy="1175.56" r="18" fill="#3da44d" fill-rule="evenodd" fill-opacity="1" stroke="#000000" stroke-opacity="1" stroke-width="3.84"/>
<path clip-path="url(#clip852)" d="M2234.92 1239.41 L2231.44 1252.21 L2219.28 1246.95 L2227.12 1257.63 L2215.42 1263.87 L2228.66 1264.39 L2226.24 1277.43 L2234.92 1267.41 L2243.6 1277.43 L2241.18 1264.39 L2254.42 1263.87 L2242.72 1257.63 L2250.56 1246.95 L2238.4 1252.21 L2234.92 1239.41 Z" fill="#c271d2" fill-rule="evenodd" fill-opacity="1" stroke="#000000" stroke-opacity="1" stroke-width="3.84"/>
<path clip-path="url(#clip852)" d="
M2067.22 1175.56 L2234.92 1175.56 L2234.92 1343.26 L2067.22 1343.26 L2067.22 1175.56  Z
  " fill="#a3a3a3" fill-rule="evenodd" fill-opacity="0.25"/>
<polyline clip-path="url(#clip852)" style="stroke:#000000; stroke-linecap:round; stroke-linejoin:round; stroke-width:4; stroke-opacity:1; fill:none" points="
  2067.22,1175.56 2234.92,1175.56 2234.92,1343.26 2067.22,1343.26 2067.22,1175.56 
  "/>
<circle clip-path="url(#clip852)" cx="2234.92" cy="1175.56" r="18" fill="#00a9ad" fill-rule="evenodd" fill-opacity="1" stroke="#000000" stroke-opacity="1" stroke-width="3.84"/>
<path clip-path="url(#clip852)" d="M2402.62 1239.41 L2399.14 1252.21 L2386.98 1246.95 L2394.82 1257.63 L2383.12 1263.87 L2396.36 1264.39 L2393.94 1277.43 L2402.62 1267.41 L2411.3 1277.43 L2408.88 1264.39 L2422.12 1263.87 L2410.42 1257.63 L2418.26 1246.95 L2406.1 1252.21 L2402.62 1239.41 Z" fill="#ed5d92" fill-rule="evenodd" fill-opacity="1" stroke="#000000" stroke-opacity="1" stroke-width="3.84"/>
<path clip-path="url(#clip852)" d="
M2234.92 1175.56 L2402.62 1175.56 L2402.62 1343.26 L2234.92 1343.26 L2234.92 1175.56  Z
  " fill="#a3a3a3" fill-rule="evenodd" fill-opacity="0.25"/>
<polyline clip-path="url(#clip852)" style="stroke:#000000; stroke-linecap:round; stroke-linejoin:round; stroke-width:4; stroke-opacity:1; fill:none" points="
  2234.92,1175.56 2402.62,1175.56 2402.62,1343.26 2234.92,1343.26 2234.92,1175.56 
  "/>
<circle clip-path="url(#clip852)" cx="2402.62" cy="1175.56" r="18" fill="#00a98d" fill-rule="evenodd" fill-opacity="1" stroke="#000000" stroke-opacity="1" stroke-width="3.84"/>
<path clip-path="url(#clip852)" d="M2570.32 1239.41 L2566.84 1252.21 L2554.68 1246.95 L2562.52 1257.63 L2550.82 1263.87 L2564.06 1264.39 L2561.64 1277.43 L2570.32 1267.41 L2579 1277.43 L2576.58 1264.39 L2589.82 1263.87 L2578.12 1257.63 L2585.96 1246.95 L2573.8 1252.21 L2570.32 1239.41 Z" fill="#8e971d" fill-rule="evenodd" fill-opacity="1" stroke="#000000" stroke-opacity="1" stroke-width="3.84"/>
<path clip-path="url(#clip852)" d="
M2402.62 1175.56 L2570.32 1175.56 L2570.32 1343.26 L2402.62 1343.26 L2402.62 1175.56  Z
  " fill="#a3a3a3" fill-rule="evenodd" fill-opacity="0.25"/>
<polyline clip-path="url(#clip852)" style="stroke:#000000; stroke-linecap:round; stroke-linejoin:round; stroke-width:4; stroke-opacity:1; fill:none" points="
  2402.62,1175.56 2570.32,1175.56 2570.32,1343.26 2402.62,1343.26 2402.62,1175.56 
  "/>
</svg>
