<?xml version="1.0" encoding="utf-8"?>
<svg xmlns="http://www.w3.org/2000/svg" xmlns:xlink="http://www.w3.org/1999/xlink" width="672" height="480" viewBox="0 0 2688 1920">
<defs>
  <clipPath id="clip730">
    <rect x="0" y="0" width="2688" height="1920"/>
  </clipPath>
</defs>
<path clip-path="url(#clip730)" d="
M0 1920 L2688 1920 L2688 0 L0 0  Z
  " fill="#ffffff" fill-rule="evenodd" fill-opacity="1"/>
<defs>
  <clipPath id="clip731">
    <rect x="537" y="0" width="1883" height="1883"/>
  </clipPath>
</defs>
<path clip-path="url(#clip730)" d="
M159.154 1800.78 L2640.76 1800.78 L2640.76 47.2441 L159.154 47.2441  Z
  " fill="#ffffff" fill-rule="evenodd" fill-opacity="1"/>
<defs>
  <clipPath id="clip732">
    <rect x="159" y="47" width="2483" height="1755"/>
  </clipPath>
</defs>
<polyline clip-path="url(#clip732)" style="stroke:#000000; stroke-linecap:round; stroke-linejoin:round; stroke-width:2; stroke-opacity:0.1; fill:none" points="
  282.146,1800.78 282.146,47.2441 
  "/>
<polyline clip-path="url(#clip732)" style="stroke:#000000; stroke-linecap:round; stroke-linejoin:round; stroke-width:2; stroke-opacity:0.1; fill:none" points="
  654.749,1800.78 654.749,47.2441 
  "/>
<polyline clip-path="url(#clip732)" style="stroke:#000000; stroke-linecap:round; stroke-linejoin:round; stroke-width:2; stroke-opacity:0.1; fill:none" points="
  1027.35,1800.78 1027.35,47.2441 
  "/>
<polyline clip-path="url(#clip732)" style="stroke:#000000; stroke-linecap:round; stroke-linejoin:round; stroke-width:2; stroke-opacity:0.1; fill:none" points="
  1399.96,1800.78 1399.96,47.2441 
  "/>
<polyline clip-path="url(#clip732)" style="stroke:#000000; stroke-linecap:round; stroke-linejoin:round; stroke-width:2; stroke-opacity:0.1; fill:none" points="
  1772.56,1800.78 1772.56,47.2441 
  "/>
<polyline clip-path="url(#clip732)" style="stroke:#000000; stroke-linecap:round; stroke-linejoin:round; stroke-width:2; stroke-opacity:0.1; fill:none" points="
  2145.16,1800.78 2145.16,47.2441 
  "/>
<polyline clip-path="url(#clip732)" style="stroke:#000000; stroke-linecap:round; stroke-linejoin:round; stroke-width:2; stroke-opacity:0.1; fill:none" points="
  2517.76,1800.78 2517.76,47.2441 
  "/>
<polyline clip-path="url(#clip730)" style="stroke:#000000; stroke-linecap:round; stroke-linejoin:round; stroke-width:4; stroke-opacity:1; fill:none" points="
  159.154,1800.78 2640.76,1800.78 
  "/>
<polyline clip-path="url(#clip730)" style="stroke:#000000; stroke-linecap:round; stroke-linejoin:round; stroke-width:4; stroke-opacity:1; fill:none" points="
  282.146,1800.78 282.146,1781.88 
  "/>
<polyline clip-path="url(#clip730)" style="stroke:#000000; stroke-linecap:round; stroke-linejoin:round; stroke-width:4; stroke-opacity:1; fill:none" points="
  654.749,1800.78 654.749,1781.88 
  "/>
<polyline clip-path="url(#clip730)" style="stroke:#000000; stroke-linecap:round; stroke-linejoin:round; stroke-width:4; stroke-opacity:1; fill:none" points="
  1027.35,1800.78 1027.35,1781.88 
  "/>
<polyline clip-path="url(#clip730)" style="stroke:#000000; stroke-linecap:round; stroke-linejoin:round; stroke-width:4; stroke-opacity:1; fill:none" points="
  1399.96,1800.78 1399.96,1781.88 
  "/>
<polyline clip-path="url(#clip730)" style="stroke:#000000; stroke-linecap:round; stroke-linejoin:round; stroke-width:4; stroke-opacity:1; fill:none" points="
  1772.56,1800.78 1772.56,1781.88 
  "/>
<polyline clip-path="url(#clip730)" style="stroke:#000000; stroke-linecap:round; stroke-linejoin:round; stroke-width:4; stroke-opacity:1; fill:none" points="
  2145.16,1800.78 2145.16,1781.88 
  "/>
<polyline clip-path="url(#clip730)" style="stroke:#000000; stroke-linecap:round; stroke-linejoin:round; stroke-width:4; stroke-opacity:1; fill:none" points="
  2517.76,1800.78 2517.76,1781.88 
  "/>
<path clip-path="url(#clip730)" d="M229.172 1848.65 L258.848 1848.65 L258.848 1852.59 L229.172 1852.59 L229.172 1848.65 Z" fill="#000000" fill-rule="evenodd" fill-opacity="1" /><path clip-path="url(#clip730)" d="M269.75 1861.55 L277.389 1861.55 L277.389 1835.18 L269.079 1836.85 L269.079 1832.59 L277.343 1830.92 L282.019 1830.92 L282.019 1861.55 L289.658 1861.55 L289.658 1865.48 L269.75 1865.48 L269.75 1861.55 Z" fill="#000000" fill-rule="evenodd" fill-opacity="1" /><path clip-path="url(#clip730)" d="M299.102 1859.6 L303.986 1859.6 L303.986 1865.48 L299.102 1865.48 L299.102 1859.6 Z" fill="#000000" fill-rule="evenodd" fill-opacity="1" /><path clip-path="url(#clip730)" d="M314.218 1830.92 L332.574 1830.92 L332.574 1834.86 L318.5 1834.86 L318.5 1843.33 Q319.519 1842.98 320.537 1842.82 Q321.556 1842.64 322.574 1842.64 Q328.361 1842.64 331.741 1845.81 Q335.12 1848.98 335.12 1854.4 Q335.12 1859.97 331.648 1863.08 Q328.176 1866.15 321.856 1866.15 Q319.681 1866.15 317.412 1865.78 Q315.167 1865.41 312.759 1864.67 L312.759 1859.97 Q314.843 1861.11 317.065 1861.66 Q319.287 1862.22 321.764 1862.22 Q325.768 1862.22 328.106 1860.11 Q330.444 1858.01 330.444 1854.4 Q330.444 1850.78 328.106 1848.68 Q325.768 1846.57 321.764 1846.57 Q319.889 1846.57 318.014 1846.99 Q316.162 1847.4 314.218 1848.28 L314.218 1830.92 Z" fill="#000000" fill-rule="evenodd" fill-opacity="1" /><path clip-path="url(#clip730)" d="M601.277 1848.65 L630.953 1848.65 L630.953 1852.59 L601.277 1852.59 L601.277 1848.65 Z" fill="#000000" fill-rule="evenodd" fill-opacity="1" /><path clip-path="url(#clip730)" d="M641.856 1861.55 L649.494 1861.55 L649.494 1835.18 L641.184 1836.85 L641.184 1832.59 L649.448 1830.92 L654.124 1830.92 L654.124 1861.55 L661.763 1861.55 L661.763 1865.48 L641.856 1865.48 L641.856 1861.55 Z" fill="#000000" fill-rule="evenodd" fill-opacity="1" /><path clip-path="url(#clip730)" d="M671.207 1859.6 L676.092 1859.6 L676.092 1865.48 L671.207 1865.48 L671.207 1859.6 Z" fill="#000000" fill-rule="evenodd" fill-opacity="1" /><path clip-path="url(#clip730)" d="M696.277 1834 Q692.665 1834 690.837 1837.57 Q689.031 1841.11 689.031 1848.24 Q689.031 1855.34 690.837 1858.91 Q692.665 1862.45 696.277 1862.45 Q699.911 1862.45 701.716 1858.91 Q703.545 1855.34 703.545 1848.24 Q703.545 1841.11 701.716 1837.57 Q699.911 1834 696.277 1834 M696.277 1830.3 Q702.087 1830.3 705.142 1834.9 Q708.221 1839.49 708.221 1848.24 Q708.221 1856.96 705.142 1861.57 Q702.087 1866.15 696.277 1866.15 Q690.466 1866.15 687.388 1861.57 Q684.332 1856.96 684.332 1848.24 Q684.332 1839.49 687.388 1834.9 Q690.466 1830.3 696.277 1830.3 Z" fill="#000000" fill-rule="evenodd" fill-opacity="1" /><path clip-path="url(#clip730)" d="M974.378 1848.65 L1004.05 1848.65 L1004.05 1852.59 L974.378 1852.59 L974.378 1848.65 Z" fill="#000000" fill-rule="evenodd" fill-opacity="1" /><path clip-path="url(#clip730)" d="M1024.15 1834 Q1020.53 1834 1018.71 1837.57 Q1016.9 1841.11 1016.9 1848.24 Q1016.9 1855.34 1018.71 1858.91 Q1020.53 1862.45 1024.15 1862.45 Q1027.78 1862.45 1029.59 1858.91 Q1031.41 1855.34 1031.41 1848.24 Q1031.41 1841.11 1029.59 1837.57 Q1027.78 1834 1024.15 1834 M1024.15 1830.3 Q1029.96 1830.3 1033.01 1834.9 Q1036.09 1839.49 1036.09 1848.24 Q1036.09 1856.96 1033.01 1861.57 Q1029.96 1866.15 1024.15 1866.15 Q1018.34 1866.15 1015.26 1861.57 Q1012.2 1856.96 1012.2 1848.24 Q1012.2 1839.49 1015.26 1834.9 Q1018.34 1830.3 1024.15 1830.3 Z" fill="#000000" fill-rule="evenodd" fill-opacity="1" /><path clip-path="url(#clip730)" d="M1044.31 1859.6 L1049.19 1859.6 L1049.19 1865.48 L1044.31 1865.48 L1044.31 1859.6 Z" fill="#000000" fill-rule="evenodd" fill-opacity="1" /><path clip-path="url(#clip730)" d="M1059.42 1830.92 L1077.78 1830.92 L1077.78 1834.86 L1063.71 1834.86 L1063.71 1843.33 Q1064.72 1842.98 1065.74 1842.82 Q1066.76 1842.64 1067.78 1842.64 Q1073.57 1842.64 1076.95 1845.81 Q1080.33 1848.98 1080.33 1854.4 Q1080.33 1859.97 1076.85 1863.08 Q1073.38 1866.15 1067.06 1866.15 Q1064.89 1866.15 1062.62 1865.78 Q1060.37 1865.41 1057.97 1864.67 L1057.97 1859.97 Q1060.05 1861.11 1062.27 1861.66 Q1064.49 1862.22 1066.97 1862.22 Q1070.97 1862.22 1073.31 1860.11 Q1075.65 1858.01 1075.65 1854.4 Q1075.65 1850.78 1073.31 1848.68 Q1070.97 1846.57 1066.97 1846.57 Q1065.09 1846.57 1063.22 1846.99 Q1061.37 1847.4 1059.42 1848.28 L1059.42 1830.92 Z" fill="#000000" fill-rule="evenodd" fill-opacity="1" /><path clip-path="url(#clip730)" d="M1377.34 1834 Q1373.73 1834 1371.9 1837.57 Q1370.09 1841.11 1370.09 1848.24 Q1370.09 1855.34 1371.9 1858.91 Q1373.73 1862.45 1377.34 1862.45 Q1380.97 1862.45 1382.78 1858.91 Q1384.61 1855.34 1384.61 1848.24 Q1384.61 1841.11 1382.78 1837.57 Q1380.97 1834 1377.34 1834 M1377.34 1830.3 Q1383.15 1830.3 1386.21 1834.9 Q1389.28 1839.49 1389.28 1848.24 Q1389.28 1856.96 1386.21 1861.57 Q1383.15 1866.15 1377.34 1866.15 Q1371.53 1866.15 1368.45 1861.57 Q1365.4 1856.96 1365.4 1848.24 Q1365.4 1839.49 1368.45 1834.9 Q1371.53 1830.3 1377.34 1830.3 Z" fill="#000000" fill-rule="evenodd" fill-opacity="1" /><path clip-path="url(#clip730)" d="M1397.5 1859.6 L1402.39 1859.6 L1402.39 1865.48 L1397.5 1865.48 L1397.5 1859.6 Z" fill="#000000" fill-rule="evenodd" fill-opacity="1" /><path clip-path="url(#clip730)" d="M1422.57 1834 Q1418.96 1834 1417.13 1837.57 Q1415.33 1841.11 1415.33 1848.24 Q1415.33 1855.34 1417.13 1858.91 Q1418.96 1862.45 1422.57 1862.45 Q1426.2 1862.45 1428.01 1858.91 Q1429.84 1855.34 1429.84 1848.24 Q1429.84 1841.11 1428.01 1837.57 Q1426.2 1834 1422.57 1834 M1422.57 1830.3 Q1428.38 1830.3 1431.44 1834.9 Q1434.52 1839.49 1434.52 1848.24 Q1434.52 1856.96 1431.44 1861.57 Q1428.38 1866.15 1422.57 1866.15 Q1416.76 1866.15 1413.68 1861.57 Q1410.63 1856.96 1410.63 1848.24 Q1410.63 1839.49 1413.68 1834.9 Q1416.76 1830.3 1422.57 1830.3 Z" fill="#000000" fill-rule="evenodd" fill-opacity="1" /><path clip-path="url(#clip730)" d="M1750.44 1834 Q1746.83 1834 1745 1837.57 Q1743.19 1841.11 1743.19 1848.24 Q1743.19 1855.34 1745 1858.91 Q1746.83 1862.45 1750.44 1862.45 Q1754.07 1862.45 1755.88 1858.91 Q1757.71 1855.34 1757.71 1848.24 Q1757.71 1841.11 1755.88 1837.57 Q1754.07 1834 1750.44 1834 M1750.44 1830.3 Q1756.25 1830.3 1759.31 1834.9 Q1762.38 1839.49 1762.38 1848.24 Q1762.38 1856.96 1759.31 1861.57 Q1756.25 1866.15 1750.44 1866.15 Q1744.63 1866.15 1741.55 1861.57 Q1738.5 1856.96 1738.5 1848.24 Q1738.5 1839.49 1741.55 1834.9 Q1744.63 1830.3 1750.44 1830.3 Z" fill="#000000" fill-rule="evenodd" fill-opacity="1" /><path clip-path="url(#clip730)" d="M1770.6 1859.6 L1775.49 1859.6 L1775.49 1865.48 L1770.6 1865.48 L1770.6 1859.6 Z" fill="#000000" fill-rule="evenodd" fill-opacity="1" /><path clip-path="url(#clip730)" d="M1785.72 1830.92 L1804.07 1830.92 L1804.07 1834.86 L1790 1834.86 L1790 1843.33 Q1791.02 1842.98 1792.04 1842.82 Q1793.06 1842.64 1794.07 1842.64 Q1799.86 1842.64 1803.24 1845.81 Q1806.62 1848.98 1806.62 1854.4 Q1806.62 1859.97 1803.15 1863.08 Q1799.68 1866.15 1793.36 1866.15 Q1791.18 1866.15 1788.91 1865.78 Q1786.67 1865.41 1784.26 1864.67 L1784.26 1859.97 Q1786.34 1861.11 1788.56 1861.66 Q1790.79 1862.22 1793.26 1862.22 Q1797.27 1862.22 1799.61 1860.11 Q1801.94 1858.01 1801.94 1854.4 Q1801.94 1850.78 1799.61 1848.68 Q1797.27 1846.57 1793.26 1846.57 Q1791.39 1846.57 1789.51 1846.99 Q1787.66 1847.4 1785.72 1848.28 L1785.72 1830.92 Z" fill="#000000" fill-rule="evenodd" fill-opacity="1" /><path clip-path="url(#clip730)" d="M2112.31 1861.55 L2119.95 1861.55 L2119.95 1835.18 L2111.64 1836.85 L2111.64 1832.59 L2119.91 1830.92 L2124.58 1830.92 L2124.58 1861.55 L2132.22 1861.55 L2132.22 1865.48 L2112.31 1865.48 L2112.31 1861.55 Z" fill="#000000" fill-rule="evenodd" fill-opacity="1" /><path clip-path="url(#clip730)" d="M2141.67 1859.6 L2146.55 1859.6 L2146.55 1865.48 L2141.67 1865.48 L2141.67 1859.6 Z" fill="#000000" fill-rule="evenodd" fill-opacity="1" /><path clip-path="url(#clip730)" d="M2166.74 1834 Q2163.12 1834 2161.3 1837.57 Q2159.49 1841.11 2159.49 1848.24 Q2159.49 1855.34 2161.3 1858.91 Q2163.12 1862.45 2166.74 1862.45 Q2170.37 1862.45 2172.17 1858.91 Q2174 1855.34 2174 1848.24 Q2174 1841.11 2172.17 1837.57 Q2170.37 1834 2166.74 1834 M2166.74 1830.3 Q2172.55 1830.3 2175.6 1834.9 Q2178.68 1839.49 2178.68 1848.24 Q2178.68 1856.96 2175.6 1861.57 Q2172.55 1866.15 2166.74 1866.15 Q2160.92 1866.15 2157.85 1861.57 Q2154.79 1856.96 2154.79 1848.24 Q2154.79 1839.49 2157.85 1834.9 Q2160.92 1830.3 2166.74 1830.3 Z" fill="#000000" fill-rule="evenodd" fill-opacity="1" /><path clip-path="url(#clip730)" d="M2485.41 1861.55 L2493.05 1861.55 L2493.05 1835.18 L2484.74 1836.85 L2484.74 1832.59 L2493.01 1830.92 L2497.68 1830.92 L2497.68 1861.55 L2505.32 1861.55 L2505.32 1865.48 L2485.41 1865.48 L2485.41 1861.55 Z" fill="#000000" fill-rule="evenodd" fill-opacity="1" /><path clip-path="url(#clip730)" d="M2514.77 1859.6 L2519.65 1859.6 L2519.65 1865.48 L2514.77 1865.48 L2514.77 1859.6 Z" fill="#000000" fill-rule="evenodd" fill-opacity="1" /><path clip-path="url(#clip730)" d="M2529.88 1830.92 L2548.24 1830.92 L2548.24 1834.86 L2534.16 1834.86 L2534.16 1843.33 Q2535.18 1842.98 2536.2 1842.82 Q2537.22 1842.64 2538.24 1842.64 Q2544.03 1842.64 2547.41 1845.81 Q2550.78 1848.98 2550.78 1854.4 Q2550.78 1859.97 2547.31 1863.08 Q2543.84 1866.15 2537.52 1866.15 Q2535.34 1866.15 2533.08 1865.78 Q2530.83 1865.41 2528.42 1864.67 L2528.42 1859.97 Q2530.51 1861.11 2532.73 1861.66 Q2534.95 1862.22 2537.43 1862.22 Q2541.43 1862.22 2543.77 1860.11 Q2546.11 1858.01 2546.11 1854.4 Q2546.11 1850.78 2543.77 1848.68 Q2541.43 1846.57 2537.43 1846.57 Q2535.55 1846.57 2533.68 1846.99 Q2531.83 1847.4 2529.88 1848.28 L2529.88 1830.92 Z" fill="#000000" fill-rule="evenodd" fill-opacity="1" /><polyline clip-path="url(#clip732)" style="stroke:#000000; stroke-linecap:round; stroke-linejoin:round; stroke-width:2; stroke-opacity:0.1; fill:none" points="
  159.154,1437.77 2640.76,1437.77 
  "/>
<polyline clip-path="url(#clip732)" style="stroke:#000000; stroke-linecap:round; stroke-linejoin:round; stroke-width:2; stroke-opacity:0.1; fill:none" points="
  159.154,1035.49 2640.76,1035.49 
  "/>
<polyline clip-path="url(#clip732)" style="stroke:#000000; stroke-linecap:round; stroke-linejoin:round; stroke-width:2; stroke-opacity:0.1; fill:none" points="
  159.154,633.212 2640.76,633.212 
  "/>
<polyline clip-path="url(#clip732)" style="stroke:#000000; stroke-linecap:round; stroke-linejoin:round; stroke-width:2; stroke-opacity:0.1; fill:none" points="
  159.154,230.932 2640.76,230.932 
  "/>
<polyline clip-path="url(#clip730)" style="stroke:#000000; stroke-linecap:round; stroke-linejoin:round; stroke-width:4; stroke-opacity:1; fill:none" points="
  159.154,1800.78 159.154,47.2441 
  "/>
<polyline clip-path="url(#clip730)" style="stroke:#000000; stroke-linecap:round; stroke-linejoin:round; stroke-width:4; stroke-opacity:1; fill:none" points="
  159.154,1437.77 178.052,1437.77 
  "/>
<polyline clip-path="url(#clip730)" style="stroke:#000000; stroke-linecap:round; stroke-linejoin:round; stroke-width:4; stroke-opacity:1; fill:none" points="
  159.154,1035.49 178.052,1035.49 
  "/>
<polyline clip-path="url(#clip730)" style="stroke:#000000; stroke-linecap:round; stroke-linejoin:round; stroke-width:4; stroke-opacity:1; fill:none" points="
  159.154,633.212 178.052,633.212 
  "/>
<polyline clip-path="url(#clip730)" style="stroke:#000000; stroke-linecap:round; stroke-linejoin:round; stroke-width:4; stroke-opacity:1; fill:none" points="
  159.154,230.932 178.052,230.932 
  "/>
<path clip-path="url(#clip730)" d="M61.6585 1423.57 Q58.0475 1423.57 56.2188 1427.14 Q54.4132 1430.68 54.4132 1437.81 Q54.4132 1444.91 56.2188 1448.48 Q58.0475 1452.02 61.6585 1452.02 Q65.2928 1452.02 67.0983 1448.48 Q68.927 1444.91 68.927 1437.81 Q68.927 1430.68 67.0983 1427.14 Q65.2928 1423.57 61.6585 1423.57 M61.6585 1419.87 Q67.4687 1419.87 70.5242 1424.48 Q73.6029 1429.06 73.6029 1437.81 Q73.6029 1446.54 70.5242 1451.14 Q67.4687 1455.72 61.6585 1455.72 Q55.8484 1455.72 52.7697 1451.14 Q49.7142 1446.54 49.7142 1437.81 Q49.7142 1429.06 52.7697 1424.48 Q55.8484 1419.87 61.6585 1419.87 Z" fill="#000000" fill-rule="evenodd" fill-opacity="1" /><path clip-path="url(#clip730)" d="M81.8205 1449.17 L86.7047 1449.17 L86.7047 1455.05 L81.8205 1455.05 L81.8205 1449.17 Z" fill="#000000" fill-rule="evenodd" fill-opacity="1" /><path clip-path="url(#clip730)" d="M106.89 1423.57 Q103.279 1423.57 101.45 1427.14 Q99.6445 1430.68 99.6445 1437.81 Q99.6445 1444.91 101.45 1448.48 Q103.279 1452.02 106.89 1452.02 Q110.524 1452.02 112.33 1448.48 Q114.158 1444.91 114.158 1437.81 Q114.158 1430.68 112.33 1427.14 Q110.524 1423.57 106.89 1423.57 M106.89 1419.87 Q112.7 1419.87 115.755 1424.48 Q118.834 1429.06 118.834 1437.81 Q118.834 1446.54 115.755 1451.14 Q112.7 1455.72 106.89 1455.72 Q101.08 1455.72 98.0009 1451.14 Q94.9454 1446.54 94.9454 1437.81 Q94.9454 1429.06 98.0009 1424.48 Q101.08 1419.87 106.89 1419.87 Z" fill="#000000" fill-rule="evenodd" fill-opacity="1" /><path clip-path="url(#clip730)" d="M62.3067 1021.29 Q58.6956 1021.29 56.8669 1024.86 Q55.0614 1028.4 55.0614 1035.53 Q55.0614 1042.63 56.8669 1046.2 Q58.6956 1049.74 62.3067 1049.74 Q65.9409 1049.74 67.7465 1046.2 Q69.5752 1042.63 69.5752 1035.53 Q69.5752 1028.4 67.7465 1024.86 Q65.9409 1021.29 62.3067 1021.29 M62.3067 1017.59 Q68.1168 1017.59 71.1724 1022.19 Q74.2511 1026.78 74.2511 1035.53 Q74.2511 1044.25 71.1724 1048.86 Q68.1168 1053.44 62.3067 1053.44 Q56.4965 1053.44 53.4178 1048.86 Q50.3623 1044.25 50.3623 1035.53 Q50.3623 1026.78 53.4178 1022.19 Q56.4965 1017.59 62.3067 1017.59 Z" fill="#000000" fill-rule="evenodd" fill-opacity="1" /><path clip-path="url(#clip730)" d="M82.4686 1046.89 L87.3528 1046.89 L87.3528 1052.77 L82.4686 1052.77 L82.4686 1046.89 Z" fill="#000000" fill-rule="evenodd" fill-opacity="1" /><path clip-path="url(#clip730)" d="M111.705 1034.14 Q115.061 1034.86 116.936 1037.12 Q118.834 1039.39 118.834 1042.73 Q118.834 1047.84 115.316 1050.64 Q111.797 1053.44 105.316 1053.44 Q103.14 1053.44 100.825 1053 Q98.5333 1052.59 96.0797 1051.73 L96.0797 1047.22 Q98.0241 1048.35 100.339 1048.93 Q102.654 1049.51 105.177 1049.51 Q109.575 1049.51 111.867 1047.77 Q114.181 1046.04 114.181 1042.73 Q114.181 1039.67 112.029 1037.96 Q109.899 1036.22 106.08 1036.22 L102.052 1036.22 L102.052 1032.38 L106.265 1032.38 Q109.714 1032.38 111.543 1031.01 Q113.371 1029.62 113.371 1027.03 Q113.371 1024.37 111.473 1022.96 Q109.598 1021.52 106.08 1021.52 Q104.158 1021.52 101.959 1021.94 Q99.7602 1022.36 97.1213 1023.24 L97.1213 1019.07 Q99.7833 1018.33 102.098 1017.96 Q104.436 1017.59 106.496 1017.59 Q111.82 1017.59 114.922 1020.02 Q118.024 1022.43 118.024 1026.55 Q118.024 1029.42 116.38 1031.41 Q114.737 1033.37 111.705 1034.14 Z" fill="#000000" fill-rule="evenodd" fill-opacity="1" /><path clip-path="url(#clip730)" d="M61.4965 619.011 Q57.8854 619.011 56.0567 622.576 Q54.2512 626.118 54.2512 633.247 Q54.2512 640.354 56.0567 643.918 Q57.8854 647.46 61.4965 647.46 Q65.1307 647.46 66.9363 643.918 Q68.765 640.354 68.765 633.247 Q68.765 626.118 66.9363 622.576 Q65.1307 619.011 61.4965 619.011 M61.4965 615.307 Q67.3067 615.307 70.3622 619.914 Q73.4409 624.497 73.4409 633.247 Q73.4409 641.974 70.3622 646.58 Q67.3067 651.164 61.4965 651.164 Q55.6864 651.164 52.6077 646.58 Q49.5521 641.974 49.5521 633.247 Q49.5521 624.497 52.6077 619.914 Q55.6864 615.307 61.4965 615.307 Z" fill="#000000" fill-rule="evenodd" fill-opacity="1" /><path clip-path="url(#clip730)" d="M81.6584 644.613 L86.5427 644.613 L86.5427 650.492 L81.6584 650.492 L81.6584 644.613 Z" fill="#000000" fill-rule="evenodd" fill-opacity="1" /><path clip-path="url(#clip730)" d="M107.306 631.349 Q104.158 631.349 102.306 633.502 Q100.478 635.655 100.478 639.404 Q100.478 643.131 102.306 645.307 Q104.158 647.46 107.306 647.46 Q110.455 647.46 112.283 645.307 Q114.135 643.131 114.135 639.404 Q114.135 635.655 112.283 633.502 Q110.455 631.349 107.306 631.349 M116.589 616.696 L116.589 620.956 Q114.83 620.122 113.024 619.682 Q111.242 619.243 109.482 619.243 Q104.853 619.243 102.399 622.368 Q99.9685 625.493 99.6213 631.812 Q100.987 629.798 103.047 628.733 Q105.107 627.645 107.584 627.645 Q112.793 627.645 115.802 630.817 Q118.834 633.965 118.834 639.404 Q118.834 644.729 115.686 647.946 Q112.538 651.164 107.306 651.164 Q101.311 651.164 98.1398 646.58 Q94.9685 641.974 94.9685 633.247 Q94.9685 625.053 98.8574 620.192 Q102.746 615.307 109.297 615.307 Q111.056 615.307 112.839 615.655 Q114.644 616.002 116.589 616.696 Z" fill="#000000" fill-rule="evenodd" fill-opacity="1" /><path clip-path="url(#clip730)" d="M61.8437 216.73 Q58.2326 216.73 56.4039 220.295 Q54.5984 223.837 54.5984 230.967 Q54.5984 238.073 56.4039 241.638 Q58.2326 245.179 61.8437 245.179 Q65.478 245.179 67.2835 241.638 Q69.1122 238.073 69.1122 230.967 Q69.1122 223.837 67.2835 220.295 Q65.478 216.73 61.8437 216.73 M61.8437 213.027 Q67.6539 213.027 70.7094 217.633 Q73.7881 222.217 73.7881 230.967 Q73.7881 239.693 70.7094 244.3 Q67.6539 248.883 61.8437 248.883 Q56.0336 248.883 52.9549 244.3 Q49.8993 239.693 49.8993 230.967 Q49.8993 222.217 52.9549 217.633 Q56.0336 213.027 61.8437 213.027 Z" fill="#000000" fill-rule="evenodd" fill-opacity="1" /><path clip-path="url(#clip730)" d="M82.0057 242.332 L86.8899 242.332 L86.8899 248.212 L82.0057 248.212 L82.0057 242.332 Z" fill="#000000" fill-rule="evenodd" fill-opacity="1" /><path clip-path="url(#clip730)" d="M97.2139 247.494 L97.2139 243.235 Q98.9732 244.068 100.779 244.508 Q102.584 244.948 104.32 244.948 Q108.95 244.948 111.38 241.846 Q113.834 238.721 114.181 232.379 Q112.839 234.369 110.779 235.434 Q108.718 236.499 106.218 236.499 Q101.033 236.499 98.0009 233.374 Q94.9917 230.226 94.9917 224.786 Q94.9917 219.462 98.1398 216.244 Q101.288 213.027 106.519 213.027 Q112.515 213.027 115.663 217.633 Q118.834 222.217 118.834 230.967 Q118.834 239.138 114.945 244.022 Q111.08 248.883 104.529 248.883 Q102.769 248.883 100.964 248.536 Q99.1583 248.189 97.2139 247.494 M106.519 232.842 Q109.668 232.842 111.496 230.689 Q113.348 228.536 113.348 224.786 Q113.348 221.059 111.496 218.906 Q109.668 216.73 106.519 216.73 Q103.371 216.73 101.519 218.906 Q99.6907 221.059 99.6907 224.786 Q99.6907 228.536 101.519 230.689 Q103.371 232.842 106.519 232.842 Z" fill="#000000" fill-rule="evenodd" fill-opacity="1" /><polyline clip-path="url(#clip732)" style="stroke:#009af9; stroke-linecap:round; stroke-linejoin:round; stroke-width:4; stroke-opacity:1; fill:none" points="
  229.388,1437.77 237.009,1424.06 244.63,1410.35 315.098,1283.89 385.565,1158.8 427.913,1084.76 470.261,1011.85 506.066,951.275 541.87,891.822 580.764,828.671 
  619.658,767.18 655.515,712.104 691.372,658.708 729.814,603.468 768.256,550.448 812.795,491.98 857.334,436.889 877.125,413.546 896.915,390.925 916.706,369.042 
  936.497,347.913 971.206,312.722 1005.91,279.97 1043.76,247.126 1081.6,217.352 1119.67,190.575 1157.73,167.052 1178.78,155.468 1199.82,144.906 1220.87,135.375 
  1241.91,126.883 1261.93,119.773 1281.95,113.614 1301.98,108.411 1322,104.168 1342.82,100.778 1363.64,98.4302 1384.46,97.1282 1405.28,96.8724 1440.33,98.8057 
  1475.38,103.7 1496.77,108.14 1518.17,113.675 1539.57,120.302 1560.96,128.015 1600.16,144.942 1639.37,165.446 1675.57,187.511 1711.78,212.526 1748.45,240.814 
  1785.12,272 1826.23,310.301 1867.33,352.032 1904.57,392.702 1941.82,435.982 1984.46,488.6 2027.1,544.326 2066.59,598.534 2106.07,655.098 2145,713.015 
  2183.92,772.908 2221.72,832.797 2259.51,894.241 2298.25,958.679 2337,1024.41 2379.45,1097.71 2421.9,1172.1 2483.56,1281.64 2545.22,1392.26 2557.87,1415.01 
  2570.52,1437.77 
  "/>
<polyline clip-path="url(#clip732)" style="stroke:#e26f46; stroke-linecap:round; stroke-linejoin:round; stroke-width:4; stroke-opacity:1; fill:none" points="
  229.388,1751.15 233.199,1740.4 237.009,1729.68 240.82,1719 244.63,1708.35 279.864,1611.56 315.098,1517.76 350.331,1426.96 385.565,1339.16 427.913,1237.6 
  470.261,1140.37 506.066,1061.54 541.87,985.805 580.764,907.044 619.658,831.936 655.515,765.928 691.372,703.026 729.814,639.036 768.256,578.614 790.526,545.245 
  812.795,513.072 835.065,482.098 857.334,452.32 896.915,402.351 936.497,356.165 971.206,318.777 1005.91,284.297 1043.76,250.021 1081.6,219.202 1119.67,191.688 
  1157.73,167.674 1199.82,145.196 1241.91,126.995 1281.95,113.649 1322,104.175 1363.64,98.4306 1405.28,96.8724 1440.33,98.8061 1475.38,103.706 1496.77,108.156 
  1518.17,113.711 1539.57,120.371 1560.96,128.137 1600.16,145.233 1639.37,166.039 1675.57,188.551 1711.78,214.229 1748.45,243.467 1785.12,275.952 1826.23,316.218 
  1867.33,360.564 1904.57,404.271 1941.82,451.328 1963.14,479.774 1984.46,509.318 2005.78,539.96 2027.1,571.699 2066.59,633.373 2106.07,698.811 2145,767.011 
  2183.92,838.869 2221.72,912.138 2259.51,988.856 2298.25,1071.08 2337,1156.93 2358.22,1205.5 2379.45,1255.15 2400.67,1305.9 2421.9,1357.72 2452.73,1434.95 
  2483.56,1514.48 2514.39,1596.3 2545.22,1680.41 2551.55,1697.95 2557.87,1715.59 2564.2,1733.32 2570.52,1751.15 
  "/>
<path clip-path="url(#clip730)" d="
M2207.46 261.215 L2558.04 261.215 L2558.04 105.695 L2207.46 105.695  Z
  " fill="#ffffff" fill-rule="evenodd" fill-opacity="1"/>
<polyline clip-path="url(#clip730)" style="stroke:#000000; stroke-linecap:round; stroke-linejoin:round; stroke-width:4; stroke-opacity:1; fill:none" points="
  2207.46,261.215 2558.04,261.215 2558.04,105.695 2207.46,105.695 2207.46,261.215 
  "/>
<polyline clip-path="url(#clip730)" style="stroke:#009af9; stroke-linecap:round; stroke-linejoin:round; stroke-width:4; stroke-opacity:1; fill:none" points="
  2235.04,157.535 2400.48,157.535 
  "/>
<path clip-path="url(#clip730)" d="M2448.56 149.885 L2448.56 153.866 Q2446.76 152.871 2444.93 152.385 Q2443.12 151.876 2441.27 151.876 Q2437.13 151.876 2434.83 154.514 Q2432.54 157.13 2432.54 161.876 Q2432.54 166.621 2434.83 169.26 Q2437.13 171.875 2441.27 171.875 Q2443.12 171.875 2444.93 171.389 Q2446.76 170.88 2448.56 169.885 L2448.56 173.82 Q2446.78 174.653 2444.86 175.07 Q2442.96 175.487 2440.81 175.487 Q2434.95 175.487 2431.5 171.806 Q2428.05 168.125 2428.05 161.876 Q2428.05 155.533 2431.52 151.899 Q2435.02 148.264 2441.08 148.264 Q2443.05 148.264 2444.93 148.681 Q2446.8 149.075 2448.56 149.885 Z" fill="#000000" fill-rule="evenodd" fill-opacity="1" /><path clip-path="url(#clip730)" d="M2466.01 151.876 Q2462.59 151.876 2460.6 154.561 Q2458.61 157.223 2458.61 161.876 Q2458.61 166.528 2460.57 169.213 Q2462.57 171.875 2466.01 171.875 Q2469.42 171.875 2471.41 169.19 Q2473.4 166.505 2473.4 161.876 Q2473.4 157.269 2471.41 154.584 Q2469.42 151.876 2466.01 151.876 M2466.01 148.264 Q2471.57 148.264 2474.74 151.876 Q2477.91 155.487 2477.91 161.876 Q2477.91 168.241 2474.74 171.875 Q2471.57 175.487 2466.01 175.487 Q2460.44 175.487 2457.26 171.875 Q2454.12 168.241 2454.12 161.876 Q2454.12 155.487 2457.26 151.876 Q2460.44 148.264 2466.01 148.264 Z" fill="#000000" fill-rule="evenodd" fill-opacity="1" /><path clip-path="url(#clip730)" d="M2501.5 149.653 L2501.5 153.681 Q2499.69 152.755 2497.75 152.292 Q2495.81 151.829 2493.72 151.829 Q2490.55 151.829 2488.95 152.801 Q2487.38 153.774 2487.38 155.718 Q2487.38 157.2 2488.51 158.056 Q2489.65 158.889 2493.07 159.653 L2494.53 159.977 Q2499.07 160.95 2500.97 162.732 Q2502.89 164.491 2502.89 167.663 Q2502.89 171.274 2500.02 173.38 Q2497.17 175.487 2492.17 175.487 Q2490.09 175.487 2487.82 175.07 Q2485.57 174.676 2483.07 173.866 L2483.07 169.468 Q2485.44 170.695 2487.73 171.32 Q2490.02 171.922 2492.26 171.922 Q2495.27 171.922 2496.89 170.903 Q2498.51 169.862 2498.51 167.987 Q2498.51 166.25 2497.33 165.325 Q2496.18 164.399 2492.22 163.542 L2490.74 163.195 Q2486.78 162.362 2485.02 160.649 Q2483.26 158.913 2483.26 155.903 Q2483.26 152.246 2485.85 150.255 Q2488.44 148.264 2493.21 148.264 Q2495.57 148.264 2497.66 148.612 Q2499.74 148.959 2501.5 149.653 Z" fill="#000000" fill-rule="evenodd" fill-opacity="1" /><polyline clip-path="url(#clip730)" style="stroke:#e26f46; stroke-linecap:round; stroke-linejoin:round; stroke-width:4; stroke-opacity:1; fill:none" points="
  2235.04,209.375 2400.48,209.375 
  "/>
<path clip-path="url(#clip730)" d="M2444.56 190.637 L2444.56 194.179 L2440.48 194.179 Q2438.19 194.179 2437.29 195.105 Q2436.41 196.03 2436.41 198.438 L2436.41 200.729 L2443.42 200.729 L2443.42 204.04 L2436.41 204.04 L2436.41 226.655 L2432.13 226.655 L2432.13 204.04 L2428.05 204.04 L2428.05 200.729 L2432.13 200.729 L2432.13 198.924 Q2432.13 194.595 2434.14 192.628 Q2436.15 190.637 2440.53 190.637 L2444.56 190.637 Z" fill="#000000" fill-rule="evenodd" fill-opacity="1" /></svg>
