<?xml version="1.0" encoding="utf-8"?>
<svg xmlns="http://www.w3.org/2000/svg" xmlns:xlink="http://www.w3.org/1999/xlink" width="672" height="480" viewBox="0 0 2688 1920">
<defs>
  <clipPath id="clip170">
    <rect x="0" y="0" width="2688" height="1920"/>
  </clipPath>
</defs>
<path clip-path="url(#clip170)" d="
M0 1920 L2688 1920 L2688 0 L0 0  Z
  " fill="#ffffff" fill-rule="evenodd" fill-opacity="1"/>
<defs>
  <clipPath id="clip171">
    <rect x="537" y="0" width="1883" height="1883"/>
  </clipPath>
</defs>
<path clip-path="url(#clip170)" d="
M196.816 1800.78 L2640.76 1800.78 L2640.76 47.2441 L196.816 47.2441  Z
  " fill="#ffffff" fill-rule="evenodd" fill-opacity="1"/>
<defs>
  <clipPath id="clip172">
    <rect x="196" y="47" width="2445" height="1755"/>
  </clipPath>
</defs>
<polyline clip-path="url(#clip172)" style="stroke:#000000; stroke-linecap:round; stroke-linejoin:round; stroke-width:2; stroke-opacity:0.1; fill:none" points="
  265.984,1800.78 265.984,47.2441 
  "/>
<polyline clip-path="url(#clip172)" style="stroke:#000000; stroke-linecap:round; stroke-linejoin:round; stroke-width:2; stroke-opacity:0.1; fill:none" points="
  999.881,1800.78 999.881,47.2441 
  "/>
<polyline clip-path="url(#clip172)" style="stroke:#000000; stroke-linecap:round; stroke-linejoin:round; stroke-width:2; stroke-opacity:0.1; fill:none" points="
  1733.78,1800.78 1733.78,47.2441 
  "/>
<polyline clip-path="url(#clip172)" style="stroke:#000000; stroke-linecap:round; stroke-linejoin:round; stroke-width:2; stroke-opacity:0.1; fill:none" points="
  2467.67,1800.78 2467.67,47.2441 
  "/>
<polyline clip-path="url(#clip170)" style="stroke:#000000; stroke-linecap:round; stroke-linejoin:round; stroke-width:4; stroke-opacity:1; fill:none" points="
  196.816,1800.78 2640.76,1800.78 
  "/>
<polyline clip-path="url(#clip170)" style="stroke:#000000; stroke-linecap:round; stroke-linejoin:round; stroke-width:4; stroke-opacity:1; fill:none" points="
  265.984,1800.78 265.984,1781.88 
  "/>
<polyline clip-path="url(#clip170)" style="stroke:#000000; stroke-linecap:round; stroke-linejoin:round; stroke-width:4; stroke-opacity:1; fill:none" points="
  999.881,1800.78 999.881,1781.88 
  "/>
<polyline clip-path="url(#clip170)" style="stroke:#000000; stroke-linecap:round; stroke-linejoin:round; stroke-width:4; stroke-opacity:1; fill:none" points="
  1733.78,1800.78 1733.78,1781.88 
  "/>
<polyline clip-path="url(#clip170)" style="stroke:#000000; stroke-linecap:round; stroke-linejoin:round; stroke-width:4; stroke-opacity:1; fill:none" points="
  2467.67,1800.78 2467.67,1781.88 
  "/>
<path clip-path="url(#clip170)" d="M243.368 1834 Q239.757 1834 237.929 1837.57 Q236.123 1841.11 236.123 1848.24 Q236.123 1855.34 237.929 1858.91 Q239.757 1862.45 243.368 1862.45 Q247.003 1862.45 248.808 1858.91 Q250.637 1855.34 250.637 1848.24 Q250.637 1841.11 248.808 1837.57 Q247.003 1834 243.368 1834 M243.368 1830.3 Q249.179 1830.3 252.234 1834.9 Q255.313 1839.49 255.313 1848.24 Q255.313 1856.96 252.234 1861.57 Q249.179 1866.15 243.368 1866.15 Q237.558 1866.15 234.48 1861.57 Q231.424 1856.96 231.424 1848.24 Q231.424 1839.49 234.48 1834.9 Q237.558 1830.3 243.368 1830.3 Z" fill="#000000" fill-rule="evenodd" fill-opacity="1" /><path clip-path="url(#clip170)" d="M263.53 1859.6 L268.415 1859.6 L268.415 1865.48 L263.53 1865.48 L263.53 1859.6 Z" fill="#000000" fill-rule="evenodd" fill-opacity="1" /><path clip-path="url(#clip170)" d="M288.6 1834 Q284.989 1834 283.16 1837.57 Q281.354 1841.11 281.354 1848.24 Q281.354 1855.34 283.16 1858.91 Q284.989 1862.45 288.6 1862.45 Q292.234 1862.45 294.04 1858.91 Q295.868 1855.34 295.868 1848.24 Q295.868 1841.11 294.04 1837.57 Q292.234 1834 288.6 1834 M288.6 1830.3 Q294.41 1830.3 297.465 1834.9 Q300.544 1839.49 300.544 1848.24 Q300.544 1856.96 297.465 1861.57 Q294.41 1866.15 288.6 1866.15 Q282.79 1866.15 279.711 1861.57 Q276.655 1856.96 276.655 1848.24 Q276.655 1839.49 279.711 1834.9 Q282.79 1830.3 288.6 1830.3 Z" fill="#000000" fill-rule="evenodd" fill-opacity="1" /><path clip-path="url(#clip170)" d="M977.763 1834 Q974.152 1834 972.323 1837.57 Q970.517 1841.11 970.517 1848.24 Q970.517 1855.34 972.323 1858.91 Q974.152 1862.45 977.763 1862.45 Q981.397 1862.45 983.202 1858.91 Q985.031 1855.34 985.031 1848.24 Q985.031 1841.11 983.202 1837.57 Q981.397 1834 977.763 1834 M977.763 1830.3 Q983.573 1830.3 986.628 1834.9 Q989.707 1839.49 989.707 1848.24 Q989.707 1856.96 986.628 1861.57 Q983.573 1866.15 977.763 1866.15 Q971.952 1866.15 968.874 1861.57 Q965.818 1856.96 965.818 1848.24 Q965.818 1839.49 968.874 1834.9 Q971.952 1830.3 977.763 1830.3 Z" fill="#000000" fill-rule="evenodd" fill-opacity="1" /><path clip-path="url(#clip170)" d="M997.925 1859.6 L1002.81 1859.6 L1002.81 1865.48 L997.925 1865.48 L997.925 1859.6 Z" fill="#000000" fill-rule="evenodd" fill-opacity="1" /><path clip-path="url(#clip170)" d="M1013.04 1830.92 L1031.4 1830.92 L1031.4 1834.86 L1017.32 1834.86 L1017.32 1843.33 Q1018.34 1842.98 1019.36 1842.82 Q1020.38 1842.64 1021.4 1842.64 Q1027.18 1842.64 1030.56 1845.81 Q1033.94 1848.98 1033.94 1854.4 Q1033.94 1859.97 1030.47 1863.08 Q1027 1866.15 1020.68 1866.15 Q1018.5 1866.15 1016.23 1865.78 Q1013.99 1865.41 1011.58 1864.67 L1011.58 1859.97 Q1013.67 1861.11 1015.89 1861.66 Q1018.11 1862.22 1020.59 1862.22 Q1024.59 1862.22 1026.93 1860.11 Q1029.27 1858.01 1029.27 1854.4 Q1029.27 1850.78 1026.93 1848.68 Q1024.59 1846.57 1020.59 1846.57 Q1018.71 1846.57 1016.84 1846.99 Q1014.98 1847.4 1013.04 1848.28 L1013.04 1830.92 Z" fill="#000000" fill-rule="evenodd" fill-opacity="1" /><path clip-path="url(#clip170)" d="M1700.93 1861.55 L1708.57 1861.55 L1708.57 1835.18 L1700.26 1836.85 L1700.26 1832.59 L1708.52 1830.92 L1713.2 1830.92 L1713.2 1861.55 L1720.84 1861.55 L1720.84 1865.48 L1700.93 1865.48 L1700.93 1861.55 Z" fill="#000000" fill-rule="evenodd" fill-opacity="1" /><path clip-path="url(#clip170)" d="M1730.28 1859.6 L1735.17 1859.6 L1735.17 1865.48 L1730.28 1865.48 L1730.28 1859.6 Z" fill="#000000" fill-rule="evenodd" fill-opacity="1" /><path clip-path="url(#clip170)" d="M1755.35 1834 Q1751.74 1834 1749.91 1837.57 Q1748.11 1841.11 1748.11 1848.24 Q1748.11 1855.34 1749.91 1858.91 Q1751.74 1862.45 1755.35 1862.45 Q1758.99 1862.45 1760.79 1858.91 Q1762.62 1855.34 1762.62 1848.24 Q1762.62 1841.11 1760.79 1837.57 Q1758.99 1834 1755.35 1834 M1755.35 1830.3 Q1761.16 1830.3 1764.22 1834.9 Q1767.3 1839.49 1767.3 1848.24 Q1767.3 1856.96 1764.22 1861.57 Q1761.16 1866.15 1755.35 1866.15 Q1749.54 1866.15 1746.46 1861.57 Q1743.41 1856.96 1743.41 1848.24 Q1743.41 1839.49 1746.46 1834.9 Q1749.54 1830.3 1755.35 1830.3 Z" fill="#000000" fill-rule="evenodd" fill-opacity="1" /><path clip-path="url(#clip170)" d="M2435.32 1861.55 L2442.96 1861.55 L2442.96 1835.18 L2434.65 1836.85 L2434.65 1832.59 L2442.92 1830.92 L2447.59 1830.92 L2447.59 1861.55 L2455.23 1861.55 L2455.23 1865.48 L2435.32 1865.48 L2435.32 1861.55 Z" fill="#000000" fill-rule="evenodd" fill-opacity="1" /><path clip-path="url(#clip170)" d="M2464.68 1859.6 L2469.56 1859.6 L2469.56 1865.48 L2464.68 1865.48 L2464.68 1859.6 Z" fill="#000000" fill-rule="evenodd" fill-opacity="1" /><path clip-path="url(#clip170)" d="M2479.79 1830.92 L2498.15 1830.92 L2498.15 1834.86 L2484.07 1834.86 L2484.07 1843.33 Q2485.09 1842.98 2486.11 1842.82 Q2487.13 1842.64 2488.15 1842.64 Q2493.93 1842.64 2497.31 1845.81 Q2500.69 1848.98 2500.69 1854.4 Q2500.69 1859.97 2497.22 1863.08 Q2493.75 1866.15 2487.43 1866.15 Q2485.25 1866.15 2482.99 1865.78 Q2480.74 1865.41 2478.33 1864.67 L2478.33 1859.97 Q2480.42 1861.11 2482.64 1861.66 Q2484.86 1862.22 2487.34 1862.22 Q2491.34 1862.22 2493.68 1860.11 Q2496.02 1858.01 2496.02 1854.4 Q2496.02 1850.78 2493.68 1848.68 Q2491.34 1846.57 2487.34 1846.57 Q2485.46 1846.57 2483.59 1846.99 Q2481.74 1847.4 2479.79 1848.28 L2479.79 1830.92 Z" fill="#000000" fill-rule="evenodd" fill-opacity="1" /><polyline clip-path="url(#clip172)" style="stroke:#000000; stroke-linecap:round; stroke-linejoin:round; stroke-width:2; stroke-opacity:0.1; fill:none" points="
  196.816,1705.59 2640.76,1705.59 
  "/>
<polyline clip-path="url(#clip172)" style="stroke:#000000; stroke-linecap:round; stroke-linejoin:round; stroke-width:2; stroke-opacity:0.1; fill:none" points="
  196.816,1383.85 2640.76,1383.85 
  "/>
<polyline clip-path="url(#clip172)" style="stroke:#000000; stroke-linecap:round; stroke-linejoin:round; stroke-width:2; stroke-opacity:0.1; fill:none" points="
  196.816,1062.11 2640.76,1062.11 
  "/>
<polyline clip-path="url(#clip172)" style="stroke:#000000; stroke-linecap:round; stroke-linejoin:round; stroke-width:2; stroke-opacity:0.1; fill:none" points="
  196.816,740.361 2640.76,740.361 
  "/>
<polyline clip-path="url(#clip172)" style="stroke:#000000; stroke-linecap:round; stroke-linejoin:round; stroke-width:2; stroke-opacity:0.1; fill:none" points="
  196.816,418.617 2640.76,418.617 
  "/>
<polyline clip-path="url(#clip172)" style="stroke:#000000; stroke-linecap:round; stroke-linejoin:round; stroke-width:2; stroke-opacity:0.1; fill:none" points="
  196.816,96.8724 2640.76,96.8724 
  "/>
<polyline clip-path="url(#clip170)" style="stroke:#000000; stroke-linecap:round; stroke-linejoin:round; stroke-width:4; stroke-opacity:1; fill:none" points="
  196.816,1800.78 196.816,47.2441 
  "/>
<polyline clip-path="url(#clip170)" style="stroke:#000000; stroke-linecap:round; stroke-linejoin:round; stroke-width:4; stroke-opacity:1; fill:none" points="
  196.816,1705.59 215.714,1705.59 
  "/>
<polyline clip-path="url(#clip170)" style="stroke:#000000; stroke-linecap:round; stroke-linejoin:round; stroke-width:4; stroke-opacity:1; fill:none" points="
  196.816,1383.85 215.714,1383.85 
  "/>
<polyline clip-path="url(#clip170)" style="stroke:#000000; stroke-linecap:round; stroke-linejoin:round; stroke-width:4; stroke-opacity:1; fill:none" points="
  196.816,1062.11 215.714,1062.11 
  "/>
<polyline clip-path="url(#clip170)" style="stroke:#000000; stroke-linecap:round; stroke-linejoin:round; stroke-width:4; stroke-opacity:1; fill:none" points="
  196.816,740.361 215.714,740.361 
  "/>
<polyline clip-path="url(#clip170)" style="stroke:#000000; stroke-linecap:round; stroke-linejoin:round; stroke-width:4; stroke-opacity:1; fill:none" points="
  196.816,418.617 215.714,418.617 
  "/>
<polyline clip-path="url(#clip170)" style="stroke:#000000; stroke-linecap:round; stroke-linejoin:round; stroke-width:4; stroke-opacity:1; fill:none" points="
  196.816,96.8724 215.714,96.8724 
  "/>
<path clip-path="url(#clip170)" d="M50.5475 1706.05 L80.2233 1706.05 L80.2233 1709.98 L50.5475 1709.98 L50.5475 1706.05 Z" fill="#000000" fill-rule="evenodd" fill-opacity="1" /><path clip-path="url(#clip170)" d="M91.126 1718.94 L98.7648 1718.94 L98.7648 1692.57 L90.4547 1694.24 L90.4547 1689.98 L98.7185 1688.31 L103.394 1688.31 L103.394 1718.94 L111.033 1718.94 L111.033 1722.87 L91.126 1722.87 L91.126 1718.94 Z" fill="#000000" fill-rule="evenodd" fill-opacity="1" /><path clip-path="url(#clip170)" d="M120.478 1716.99 L125.362 1716.99 L125.362 1722.87 L120.478 1722.87 L120.478 1716.99 Z" fill="#000000" fill-rule="evenodd" fill-opacity="1" /><path clip-path="url(#clip170)" d="M135.593 1688.31 L153.95 1688.31 L153.95 1692.25 L139.876 1692.25 L139.876 1700.72 Q140.894 1700.37 141.913 1700.21 Q142.931 1700.03 143.95 1700.03 Q149.737 1700.03 153.116 1703.2 Q156.496 1706.37 156.496 1711.79 Q156.496 1717.37 153.024 1720.47 Q149.552 1723.55 143.232 1723.55 Q141.056 1723.55 138.788 1723.18 Q136.542 1722.8 134.135 1722.06 L134.135 1717.37 Q136.218 1718.5 138.441 1719.05 Q140.663 1719.61 143.14 1719.61 Q147.144 1719.61 149.482 1717.5 Q151.82 1715.4 151.82 1711.79 Q151.82 1708.18 149.482 1706.07 Q147.144 1703.96 143.14 1703.96 Q141.265 1703.96 139.39 1704.38 Q137.538 1704.8 135.593 1705.68 L135.593 1688.31 Z" fill="#000000" fill-rule="evenodd" fill-opacity="1" /><path clip-path="url(#clip170)" d="M49.5521 1384.3 L79.2279 1384.3 L79.2279 1388.24 L49.5521 1388.24 L49.5521 1384.3 Z" fill="#000000" fill-rule="evenodd" fill-opacity="1" /><path clip-path="url(#clip170)" d="M90.1306 1397.19 L97.7695 1397.19 L97.7695 1370.83 L89.4593 1372.5 L89.4593 1368.24 L97.7232 1366.57 L102.399 1366.57 L102.399 1397.19 L110.038 1397.19 L110.038 1401.13 L90.1306 1401.13 L90.1306 1397.19 Z" fill="#000000" fill-rule="evenodd" fill-opacity="1" /><path clip-path="url(#clip170)" d="M119.482 1395.25 L124.367 1395.25 L124.367 1401.13 L119.482 1401.13 L119.482 1395.25 Z" fill="#000000" fill-rule="evenodd" fill-opacity="1" /><path clip-path="url(#clip170)" d="M144.552 1369.65 Q140.941 1369.65 139.112 1373.21 Q137.306 1376.76 137.306 1383.88 Q137.306 1390.99 139.112 1394.56 Q140.941 1398.1 144.552 1398.1 Q148.186 1398.1 149.991 1394.56 Q151.82 1390.99 151.82 1383.88 Q151.82 1376.76 149.991 1373.21 Q148.186 1369.65 144.552 1369.65 M144.552 1365.94 Q150.362 1365.94 153.417 1370.55 Q156.496 1375.13 156.496 1383.88 Q156.496 1392.61 153.417 1397.22 Q150.362 1401.8 144.552 1401.8 Q138.741 1401.8 135.663 1397.22 Q132.607 1392.61 132.607 1383.88 Q132.607 1375.13 135.663 1370.55 Q138.741 1365.94 144.552 1365.94 Z" fill="#000000" fill-rule="evenodd" fill-opacity="1" /><path clip-path="url(#clip170)" d="M50.5475 1062.56 L80.2233 1062.56 L80.2233 1066.49 L50.5475 1066.49 L50.5475 1062.56 Z" fill="#000000" fill-rule="evenodd" fill-opacity="1" /><path clip-path="url(#clip170)" d="M100.316 1047.9 Q96.7047 1047.9 94.876 1051.47 Q93.0704 1055.01 93.0704 1062.14 Q93.0704 1069.25 94.876 1072.81 Q96.7047 1076.35 100.316 1076.35 Q103.95 1076.35 105.756 1072.81 Q107.584 1069.25 107.584 1062.14 Q107.584 1055.01 105.756 1051.47 Q103.95 1047.9 100.316 1047.9 M100.316 1044.2 Q106.126 1044.2 109.181 1048.81 Q112.26 1053.39 112.26 1062.14 Q112.26 1070.87 109.181 1075.47 Q106.126 1080.06 100.316 1080.06 Q94.5056 1080.06 91.4269 1075.47 Q88.3714 1070.87 88.3714 1062.14 Q88.3714 1053.39 91.4269 1048.81 Q94.5056 1044.2 100.316 1044.2 Z" fill="#000000" fill-rule="evenodd" fill-opacity="1" /><path clip-path="url(#clip170)" d="M120.478 1073.51 L125.362 1073.51 L125.362 1079.39 L120.478 1079.39 L120.478 1073.51 Z" fill="#000000" fill-rule="evenodd" fill-opacity="1" /><path clip-path="url(#clip170)" d="M135.593 1044.83 L153.95 1044.83 L153.95 1048.76 L139.876 1048.76 L139.876 1057.23 Q140.894 1056.89 141.913 1056.72 Q142.931 1056.54 143.95 1056.54 Q149.737 1056.54 153.116 1059.71 Q156.496 1062.88 156.496 1068.3 Q156.496 1073.88 153.024 1076.98 Q149.552 1080.06 143.232 1080.06 Q141.056 1080.06 138.788 1079.69 Q136.542 1079.32 134.135 1078.58 L134.135 1073.88 Q136.218 1075.01 138.441 1075.57 Q140.663 1076.12 143.14 1076.12 Q147.144 1076.12 149.482 1074.02 Q151.82 1071.91 151.82 1068.3 Q151.82 1064.69 149.482 1062.58 Q147.144 1060.47 143.14 1060.47 Q141.265 1060.47 139.39 1060.89 Q137.538 1061.31 135.593 1062.19 L135.593 1044.83 Z" fill="#000000" fill-rule="evenodd" fill-opacity="1" /><path clip-path="url(#clip170)" d="M99.3204 726.16 Q95.7093 726.16 93.8806 729.725 Q92.075 733.266 92.075 740.396 Q92.075 747.502 93.8806 751.067 Q95.7093 754.609 99.3204 754.609 Q102.955 754.609 104.76 751.067 Q106.589 747.502 106.589 740.396 Q106.589 733.266 104.76 729.725 Q102.955 726.16 99.3204 726.16 M99.3204 722.456 Q105.131 722.456 108.186 727.063 Q111.265 731.646 111.265 740.396 Q111.265 749.123 108.186 753.729 Q105.131 758.312 99.3204 758.312 Q93.5102 758.312 90.4315 753.729 Q87.376 749.123 87.376 740.396 Q87.376 731.646 90.4315 727.063 Q93.5102 722.456 99.3204 722.456 Z" fill="#000000" fill-rule="evenodd" fill-opacity="1" /><path clip-path="url(#clip170)" d="M119.482 751.762 L124.367 751.762 L124.367 757.641 L119.482 757.641 L119.482 751.762 Z" fill="#000000" fill-rule="evenodd" fill-opacity="1" /><path clip-path="url(#clip170)" d="M144.552 726.16 Q140.941 726.16 139.112 729.725 Q137.306 733.266 137.306 740.396 Q137.306 747.502 139.112 751.067 Q140.941 754.609 144.552 754.609 Q148.186 754.609 149.991 751.067 Q151.82 747.502 151.82 740.396 Q151.82 733.266 149.991 729.725 Q148.186 726.16 144.552 726.16 M144.552 722.456 Q150.362 722.456 153.417 727.063 Q156.496 731.646 156.496 740.396 Q156.496 749.123 153.417 753.729 Q150.362 758.312 144.552 758.312 Q138.741 758.312 135.663 753.729 Q132.607 749.123 132.607 740.396 Q132.607 731.646 135.663 727.063 Q138.741 722.456 144.552 722.456 Z" fill="#000000" fill-rule="evenodd" fill-opacity="1" /><path clip-path="url(#clip170)" d="M100.316 404.416 Q96.7047 404.416 94.876 407.98 Q93.0704 411.522 93.0704 418.652 Q93.0704 425.758 94.876 429.323 Q96.7047 432.864 100.316 432.864 Q103.95 432.864 105.756 429.323 Q107.584 425.758 107.584 418.652 Q107.584 411.522 105.756 407.98 Q103.95 404.416 100.316 404.416 M100.316 400.712 Q106.126 400.712 109.181 405.318 Q112.26 409.902 112.26 418.652 Q112.26 427.378 109.181 431.985 Q106.126 436.568 100.316 436.568 Q94.5056 436.568 91.4269 431.985 Q88.3714 427.378 88.3714 418.652 Q88.3714 409.902 91.4269 405.318 Q94.5056 400.712 100.316 400.712 Z" fill="#000000" fill-rule="evenodd" fill-opacity="1" /><path clip-path="url(#clip170)" d="M120.478 430.017 L125.362 430.017 L125.362 435.897 L120.478 435.897 L120.478 430.017 Z" fill="#000000" fill-rule="evenodd" fill-opacity="1" /><path clip-path="url(#clip170)" d="M135.593 401.337 L153.95 401.337 L153.95 405.272 L139.876 405.272 L139.876 413.744 Q140.894 413.397 141.913 413.235 Q142.931 413.05 143.95 413.05 Q149.737 413.05 153.116 416.221 Q156.496 419.392 156.496 424.809 Q156.496 430.388 153.024 433.489 Q149.552 436.568 143.232 436.568 Q141.056 436.568 138.788 436.198 Q136.542 435.827 134.135 435.087 L134.135 430.388 Q136.218 431.522 138.441 432.077 Q140.663 432.633 143.14 432.633 Q147.144 432.633 149.482 430.526 Q151.82 428.42 151.82 424.809 Q151.82 421.198 149.482 419.091 Q147.144 416.985 143.14 416.985 Q141.265 416.985 139.39 417.402 Q137.538 417.818 135.593 418.698 L135.593 401.337 Z" fill="#000000" fill-rule="evenodd" fill-opacity="1" /><path clip-path="url(#clip170)" d="M90.1306 110.217 L97.7695 110.217 L97.7695 83.8517 L89.4593 85.5183 L89.4593 81.2591 L97.7232 79.5924 L102.399 79.5924 L102.399 110.217 L110.038 110.217 L110.038 114.152 L90.1306 114.152 L90.1306 110.217 Z" fill="#000000" fill-rule="evenodd" fill-opacity="1" /><path clip-path="url(#clip170)" d="M119.482 108.273 L124.367 108.273 L124.367 114.152 L119.482 114.152 L119.482 108.273 Z" fill="#000000" fill-rule="evenodd" fill-opacity="1" /><path clip-path="url(#clip170)" d="M144.552 82.6711 Q140.941 82.6711 139.112 86.2359 Q137.306 89.7776 137.306 96.9072 Q137.306 104.014 139.112 107.578 Q140.941 111.12 144.552 111.12 Q148.186 111.12 149.991 107.578 Q151.82 104.014 151.82 96.9072 Q151.82 89.7776 149.991 86.2359 Q148.186 82.6711 144.552 82.6711 M144.552 78.9675 Q150.362 78.9675 153.417 83.5739 Q156.496 88.1572 156.496 96.9072 Q156.496 105.634 153.417 110.24 Q150.362 114.824 144.552 114.824 Q138.741 114.824 135.663 110.24 Q132.607 105.634 132.607 96.9072 Q132.607 88.1572 135.663 83.5739 Q138.741 78.9675 144.552 78.9675 Z" fill="#000000" fill-rule="evenodd" fill-opacity="1" /><polyline clip-path="url(#clip172)" style="stroke:#009af9; stroke-linecap:round; stroke-linejoin:round; stroke-width:4; stroke-opacity:1; fill:none" points="
  265.984,96.8724 280.995,103.487 419.791,167.832 503.201,209.255 573.724,245.879 650.331,287.308 720.956,327.002 796.674,371.133 884.4,424.264 962.361,473.242 
  1030.73,517.521 1105.26,567.176 1180.24,618.533 1263.14,676.9 1342.01,733.918 1424.03,794.666 1493.06,846.904 1577.35,911.969 1654.56,972.741 1725.87,1029.8 
  1798.11,1088.43 1879.07,1155.08 1952.43,1216.24 2036.42,1287.07 2114.19,1353.33 2190.86,1419.19 2265.3,1483.56 2341.61,1549.91 2425.22,1622.92 2546.67,1729.3 
  2571.59,1751.15 
  "/>
<path clip-path="url(#clip170)" d="
M2235.31 209.375 L2559.29 209.375 L2559.29 105.695 L2235.31 105.695  Z
  " fill="#ffffff" fill-rule="evenodd" fill-opacity="1"/>
<polyline clip-path="url(#clip170)" style="stroke:#000000; stroke-linecap:round; stroke-linejoin:round; stroke-width:4; stroke-opacity:1; fill:none" points="
  2235.31,209.375 2559.29,209.375 2559.29,105.695 2235.31,105.695 2235.31,209.375 
  "/>
<polyline clip-path="url(#clip170)" style="stroke:#009af9; stroke-linecap:round; stroke-linejoin:round; stroke-width:4; stroke-opacity:1; fill:none" points="
  2262.47,157.535 2425.4,157.535 
  "/>
<path clip-path="url(#clip170)" d="M2466.39 177.223 Q2464.59 181.852 2462.88 183.264 Q2461.16 184.676 2458.29 184.676 L2454.89 184.676 L2454.89 181.112 L2457.39 181.112 Q2459.15 181.112 2460.12 180.278 Q2461.09 179.445 2462.27 176.343 L2463.04 174.399 L2452.55 148.889 L2457.07 148.889 L2465.17 169.167 L2473.27 148.889 L2477.78 148.889 L2466.39 177.223 Z" fill="#000000" fill-rule="evenodd" fill-opacity="1" /><path clip-path="url(#clip170)" d="M2485.07 170.88 L2492.71 170.88 L2492.71 144.515 L2484.4 146.181 L2484.4 141.922 L2492.67 140.255 L2497.34 140.255 L2497.34 170.88 L2504.98 170.88 L2504.98 174.815 L2485.07 174.815 L2485.07 170.88 Z" fill="#000000" fill-rule="evenodd" fill-opacity="1" /></svg>
