<?xml version="1.0" encoding="utf-8"?>
<svg xmlns="http://www.w3.org/2000/svg" xmlns:xlink="http://www.w3.org/1999/xlink" width="672" height="480" viewBox="0 0 2688 1920">
<defs>
  <clipPath id="clip950">
    <rect x="0" y="0" width="2688" height="1920"/>
  </clipPath>
</defs>
<path clip-path="url(#clip950)" d="
M0 1920 L2688 1920 L2688 0 L0 0  Z
  " fill="#ffffff" fill-rule="evenodd" fill-opacity="1"/>
<defs>
  <clipPath id="clip951">
    <rect x="537" y="0" width="1883" height="1883"/>
  </clipPath>
</defs>
<path clip-path="url(#clip950)" d="
M159.154 1800.78 L2640.76 1800.78 L2640.76 47.2441 L159.154 47.2441  Z
  " fill="#ffffff" fill-rule="evenodd" fill-opacity="1"/>
<defs>
  <clipPath id="clip952">
    <rect x="159" y="47" width="2483" height="1755"/>
  </clipPath>
</defs>
<polyline clip-path="url(#clip952)" style="stroke:#000000; stroke-linecap:round; stroke-linejoin:round; stroke-width:2; stroke-opacity:0.1; fill:none" points="
  282.146,1800.78 282.146,47.2441 
  "/>
<polyline clip-path="url(#clip952)" style="stroke:#000000; stroke-linecap:round; stroke-linejoin:round; stroke-width:2; stroke-opacity:0.1; fill:none" points="
  654.749,1800.78 654.749,47.2441 
  "/>
<polyline clip-path="url(#clip952)" style="stroke:#000000; stroke-linecap:round; stroke-linejoin:round; stroke-width:2; stroke-opacity:0.1; fill:none" points="
  1027.35,1800.78 1027.35,47.2441 
  "/>
<polyline clip-path="url(#clip952)" style="stroke:#000000; stroke-linecap:round; stroke-linejoin:round; stroke-width:2; stroke-opacity:0.1; fill:none" points="
  1399.96,1800.78 1399.96,47.2441 
  "/>
<polyline clip-path="url(#clip952)" style="stroke:#000000; stroke-linecap:round; stroke-linejoin:round; stroke-width:2; stroke-opacity:0.1; fill:none" points="
  1772.56,1800.78 1772.56,47.2441 
  "/>
<polyline clip-path="url(#clip952)" style="stroke:#000000; stroke-linecap:round; stroke-linejoin:round; stroke-width:2; stroke-opacity:0.1; fill:none" points="
  2145.16,1800.78 2145.16,47.2441 
  "/>
<polyline clip-path="url(#clip952)" style="stroke:#000000; stroke-linecap:round; stroke-linejoin:round; stroke-width:2; stroke-opacity:0.1; fill:none" points="
  2517.76,1800.78 2517.76,47.2441 
  "/>
<polyline clip-path="url(#clip950)" style="stroke:#000000; stroke-linecap:round; stroke-linejoin:round; stroke-width:4; stroke-opacity:1; fill:none" points="
  159.154,1800.78 2640.76,1800.78 
  "/>
<polyline clip-path="url(#clip950)" style="stroke:#000000; stroke-linecap:round; stroke-linejoin:round; stroke-width:4; stroke-opacity:1; fill:none" points="
  282.146,1800.78 282.146,1781.88 
  "/>
<polyline clip-path="url(#clip950)" style="stroke:#000000; stroke-linecap:round; stroke-linejoin:round; stroke-width:4; stroke-opacity:1; fill:none" points="
  654.749,1800.78 654.749,1781.88 
  "/>
<polyline clip-path="url(#clip950)" style="stroke:#000000; stroke-linecap:round; stroke-linejoin:round; stroke-width:4; stroke-opacity:1; fill:none" points="
  1027.35,1800.78 1027.35,1781.88 
  "/>
<polyline clip-path="url(#clip950)" style="stroke:#000000; stroke-linecap:round; stroke-linejoin:round; stroke-width:4; stroke-opacity:1; fill:none" points="
  1399.96,1800.78 1399.96,1781.88 
  "/>
<polyline clip-path="url(#clip950)" style="stroke:#000000; stroke-linecap:round; stroke-linejoin:round; stroke-width:4; stroke-opacity:1; fill:none" points="
  1772.56,1800.78 1772.56,1781.88 
  "/>
<polyline clip-path="url(#clip950)" style="stroke:#000000; stroke-linecap:round; stroke-linejoin:round; stroke-width:4; stroke-opacity:1; fill:none" points="
  2145.16,1800.78 2145.16,1781.88 
  "/>
<polyline clip-path="url(#clip950)" style="stroke:#000000; stroke-linecap:round; stroke-linejoin:round; stroke-width:4; stroke-opacity:1; fill:none" points="
  2517.76,1800.78 2517.76,1781.88 
  "/>
<path clip-path="url(#clip950)" d="M229.172 1848.65 L258.848 1848.65 L258.848 1852.59 L229.172 1852.59 L229.172 1848.65 Z" fill="#000000" fill-rule="evenodd" fill-opacity="1" /><path clip-path="url(#clip950)" d="M269.75 1861.55 L277.389 1861.55 L277.389 1835.18 L269.079 1836.85 L269.079 1832.59 L277.343 1830.92 L282.019 1830.92 L282.019 1861.55 L289.658 1861.55 L289.658 1865.48 L269.75 1865.48 L269.75 1861.55 Z" fill="#000000" fill-rule="evenodd" fill-opacity="1" /><path clip-path="url(#clip950)" d="M299.102 1859.6 L303.986 1859.6 L303.986 1865.48 L299.102 1865.48 L299.102 1859.6 Z" fill="#000000" fill-rule="evenodd" fill-opacity="1" /><path clip-path="url(#clip950)" d="M314.218 1830.92 L332.574 1830.92 L332.574 1834.86 L318.5 1834.86 L318.5 1843.33 Q319.519 1842.98 320.537 1842.82 Q321.556 1842.64 322.574 1842.64 Q328.361 1842.64 331.741 1845.81 Q335.12 1848.98 335.12 1854.4 Q335.12 1859.97 331.648 1863.08 Q328.176 1866.15 321.856 1866.15 Q319.681 1866.15 317.412 1865.78 Q315.167 1865.41 312.759 1864.67 L312.759 1859.97 Q314.843 1861.11 317.065 1861.66 Q319.287 1862.22 321.764 1862.22 Q325.768 1862.22 328.106 1860.11 Q330.444 1858.01 330.444 1854.4 Q330.444 1850.78 328.106 1848.68 Q325.768 1846.57 321.764 1846.57 Q319.889 1846.57 318.014 1846.99 Q316.162 1847.4 314.218 1848.28 L314.218 1830.92 Z" fill="#000000" fill-rule="evenodd" fill-opacity="1" /><path clip-path="url(#clip950)" d="M601.277 1848.65 L630.953 1848.65 L630.953 1852.59 L601.277 1852.59 L601.277 1848.65 Z" fill="#000000" fill-rule="evenodd" fill-opacity="1" /><path clip-path="url(#clip950)" d="M641.856 1861.55 L649.494 1861.55 L649.494 1835.18 L641.184 1836.85 L641.184 1832.59 L649.448 1830.92 L654.124 1830.92 L654.124 1861.55 L661.763 1861.55 L661.763 1865.48 L641.856 1865.48 L641.856 1861.55 Z" fill="#000000" fill-rule="evenodd" fill-opacity="1" /><path clip-path="url(#clip950)" d="M671.207 1859.6 L676.092 1859.6 L676.092 1865.48 L671.207 1865.48 L671.207 1859.6 Z" fill="#000000" fill-rule="evenodd" fill-opacity="1" /><path clip-path="url(#clip950)" d="M696.277 1834 Q692.665 1834 690.837 1837.57 Q689.031 1841.11 689.031 1848.24 Q689.031 1855.34 690.837 1858.91 Q692.665 1862.45 696.277 1862.45 Q699.911 1862.45 701.716 1858.91 Q703.545 1855.34 703.545 1848.24 Q703.545 1841.11 701.716 1837.57 Q699.911 1834 696.277 1834 M696.277 1830.3 Q702.087 1830.3 705.142 1834.9 Q708.221 1839.49 708.221 1848.24 Q708.221 1856.96 705.142 1861.57 Q702.087 1866.15 696.277 1866.15 Q690.466 1866.15 687.388 1861.57 Q684.332 1856.96 684.332 1848.24 Q684.332 1839.49 687.388 1834.9 Q690.466 1830.3 696.277 1830.3 Z" fill="#000000" fill-rule="evenodd" fill-opacity="1" /><path clip-path="url(#clip950)" d="M974.378 1848.65 L1004.05 1848.65 L1004.05 1852.59 L974.378 1852.59 L974.378 1848.65 Z" fill="#000000" fill-rule="evenodd" fill-opacity="1" /><path clip-path="url(#clip950)" d="M1024.15 1834 Q1020.53 1834 1018.71 1837.57 Q1016.9 1841.11 1016.9 1848.24 Q1016.9 1855.34 1018.71 1858.91 Q1020.53 1862.45 1024.15 1862.45 Q1027.78 1862.45 1029.59 1858.91 Q1031.41 1855.34 1031.41 1848.24 Q1031.41 1841.11 1029.59 1837.57 Q1027.78 1834 1024.15 1834 M1024.15 1830.3 Q1029.96 1830.3 1033.01 1834.9 Q1036.09 1839.49 1036.09 1848.24 Q1036.09 1856.96 1033.01 1861.57 Q1029.96 1866.15 1024.15 1866.15 Q1018.34 1866.15 1015.26 1861.57 Q1012.2 1856.96 1012.2 1848.24 Q1012.2 1839.49 1015.26 1834.9 Q1018.34 1830.3 1024.15 1830.3 Z" fill="#000000" fill-rule="evenodd" fill-opacity="1" /><path clip-path="url(#clip950)" d="M1044.31 1859.6 L1049.19 1859.6 L1049.19 1865.48 L1044.31 1865.48 L1044.31 1859.6 Z" fill="#000000" fill-rule="evenodd" fill-opacity="1" /><path clip-path="url(#clip950)" d="M1059.42 1830.92 L1077.78 1830.92 L1077.78 1834.86 L1063.71 1834.86 L1063.71 1843.33 Q1064.72 1842.98 1065.74 1842.82 Q1066.76 1842.64 1067.78 1842.64 Q1073.57 1842.64 1076.95 1845.81 Q1080.33 1848.98 1080.33 1854.4 Q1080.33 1859.97 1076.85 1863.08 Q1073.38 1866.15 1067.06 1866.15 Q1064.89 1866.15 1062.62 1865.78 Q1060.37 1865.41 1057.97 1864.67 L1057.97 1859.97 Q1060.05 1861.11 1062.27 1861.66 Q1064.49 1862.22 1066.97 1862.22 Q1070.97 1862.22 1073.31 1860.11 Q1075.65 1858.01 1075.65 1854.4 Q1075.65 1850.78 1073.31 1848.68 Q1070.97 1846.57 1066.97 1846.57 Q1065.09 1846.57 1063.22 1846.99 Q1061.37 1847.4 1059.42 1848.28 L1059.42 1830.92 Z" fill="#000000" fill-rule="evenodd" fill-opacity="1" /><path clip-path="url(#clip950)" d="M1377.34 1834 Q1373.73 1834 1371.9 1837.57 Q1370.09 1841.11 1370.09 1848.24 Q1370.09 1855.34 1371.9 1858.91 Q1373.73 1862.45 1377.34 1862.45 Q1380.97 1862.45 1382.78 1858.91 Q1384.61 1855.34 1384.61 1848.24 Q1384.61 1841.11 1382.78 1837.57 Q1380.97 1834 1377.34 1834 M1377.34 1830.3 Q1383.15 1830.3 1386.21 1834.9 Q1389.28 1839.49 1389.28 1848.24 Q1389.28 1856.96 1386.21 1861.57 Q1383.15 1866.15 1377.34 1866.15 Q1371.53 1866.15 1368.45 1861.57 Q1365.4 1856.96 1365.4 1848.24 Q1365.4 1839.49 1368.45 1834.9 Q1371.53 1830.3 1377.34 1830.3 Z" fill="#000000" fill-rule="evenodd" fill-opacity="1" /><path clip-path="url(#clip950)" d="M1397.5 1859.6 L1402.39 1859.6 L1402.39 1865.48 L1397.5 1865.48 L1397.5 1859.6 Z" fill="#000000" fill-rule="evenodd" fill-opacity="1" /><path clip-path="url(#clip950)" d="M1422.57 1834 Q1418.96 1834 1417.13 1837.57 Q1415.33 1841.11 1415.33 1848.24 Q1415.33 1855.34 1417.13 1858.91 Q1418.96 1862.45 1422.57 1862.45 Q1426.2 1862.45 1428.01 1858.91 Q1429.84 1855.34 1429.84 1848.24 Q1429.84 1841.11 1428.01 1837.57 Q1426.2 1834 1422.57 1834 M1422.57 1830.3 Q1428.38 1830.3 1431.44 1834.9 Q1434.52 1839.49 1434.52 1848.24 Q1434.52 1856.96 1431.44 1861.57 Q1428.38 1866.15 1422.57 1866.15 Q1416.76 1866.15 1413.68 1861.57 Q1410.63 1856.96 1410.63 1848.24 Q1410.63 1839.49 1413.68 1834.9 Q1416.76 1830.3 1422.57 1830.3 Z" fill="#000000" fill-rule="evenodd" fill-opacity="1" /><path clip-path="url(#clip950)" d="M1750.44 1834 Q1746.83 1834 1745 1837.57 Q1743.19 1841.11 1743.19 1848.24 Q1743.19 1855.34 1745 1858.91 Q1746.83 1862.45 1750.44 1862.45 Q1754.07 1862.45 1755.88 1858.91 Q1757.71 1855.34 1757.71 1848.24 Q1757.71 1841.11 1755.88 1837.57 Q1754.07 1834 1750.44 1834 M1750.44 1830.3 Q1756.25 1830.3 1759.31 1834.9 Q1762.38 1839.49 1762.38 1848.24 Q1762.38 1856.96 1759.31 1861.57 Q1756.25 1866.15 1750.44 1866.15 Q1744.63 1866.15 1741.55 1861.57 Q1738.5 1856.96 1738.5 1848.24 Q1738.5 1839.49 1741.55 1834.9 Q1744.63 1830.3 1750.44 1830.3 Z" fill="#000000" fill-rule="evenodd" fill-opacity="1" /><path clip-path="url(#clip950)" d="M1770.6 1859.6 L1775.49 1859.6 L1775.49 1865.48 L1770.6 1865.48 L1770.6 1859.6 Z" fill="#000000" fill-rule="evenodd" fill-opacity="1" /><path clip-path="url(#clip950)" d="M1785.72 1830.92 L1804.07 1830.92 L1804.07 1834.86 L1790 1834.86 L1790 1843.33 Q1791.02 1842.98 1792.04 1842.82 Q1793.06 1842.64 1794.07 1842.64 Q1799.86 1842.64 1803.24 1845.81 Q1806.62 1848.98 1806.62 1854.4 Q1806.62 1859.97 1803.15 1863.08 Q1799.68 1866.15 1793.36 1866.15 Q1791.18 1866.15 1788.91 1865.78 Q1786.67 1865.41 1784.26 1864.67 L1784.26 1859.97 Q1786.34 1861.11 1788.56 1861.66 Q1790.79 1862.22 1793.26 1862.22 Q1797.27 1862.22 1799.61 1860.11 Q1801.94 1858.01 1801.94 1854.4 Q1801.94 1850.78 1799.61 1848.68 Q1797.27 1846.57 1793.26 1846.57 Q1791.39 1846.57 1789.51 1846.99 Q1787.66 1847.4 1785.72 1848.28 L1785.72 1830.92 Z" fill="#000000" fill-rule="evenodd" fill-opacity="1" /><path clip-path="url(#clip950)" d="M2112.31 1861.55 L2119.95 1861.55 L2119.95 1835.18 L2111.64 1836.85 L2111.64 1832.59 L2119.91 1830.92 L2124.58 1830.92 L2124.58 1861.55 L2132.22 1861.55 L2132.22 1865.48 L2112.31 1865.48 L2112.31 1861.55 Z" fill="#000000" fill-rule="evenodd" fill-opacity="1" /><path clip-path="url(#clip950)" d="M2141.67 1859.6 L2146.55 1859.6 L2146.55 1865.48 L2141.67 1865.48 L2141.67 1859.6 Z" fill="#000000" fill-rule="evenodd" fill-opacity="1" /><path clip-path="url(#clip950)" d="M2166.74 1834 Q2163.12 1834 2161.3 1837.57 Q2159.49 1841.11 2159.49 1848.24 Q2159.49 1855.34 2161.3 1858.91 Q2163.12 1862.45 2166.74 1862.45 Q2170.37 1862.45 2172.17 1858.91 Q2174 1855.34 2174 1848.24 Q2174 1841.11 2172.17 1837.57 Q2170.37 1834 2166.74 1834 M2166.74 1830.3 Q2172.55 1830.3 2175.6 1834.9 Q2178.68 1839.49 2178.68 1848.24 Q2178.68 1856.96 2175.6 1861.57 Q2172.55 1866.15 2166.74 1866.15 Q2160.92 1866.15 2157.85 1861.57 Q2154.79 1856.96 2154.79 1848.24 Q2154.79 1839.49 2157.85 1834.9 Q2160.92 1830.3 2166.74 1830.3 Z" fill="#000000" fill-rule="evenodd" fill-opacity="1" /><path clip-path="url(#clip950)" d="M2485.41 1861.55 L2493.05 1861.55 L2493.05 1835.18 L2484.74 1836.85 L2484.74 1832.59 L2493.01 1830.92 L2497.68 1830.92 L2497.68 1861.55 L2505.32 1861.55 L2505.32 1865.48 L2485.41 1865.48 L2485.41 1861.55 Z" fill="#000000" fill-rule="evenodd" fill-opacity="1" /><path clip-path="url(#clip950)" d="M2514.77 1859.6 L2519.65 1859.6 L2519.65 1865.48 L2514.77 1865.48 L2514.77 1859.6 Z" fill="#000000" fill-rule="evenodd" fill-opacity="1" /><path clip-path="url(#clip950)" d="M2529.88 1830.92 L2548.24 1830.92 L2548.24 1834.86 L2534.16 1834.86 L2534.16 1843.33 Q2535.18 1842.98 2536.2 1842.82 Q2537.22 1842.64 2538.24 1842.64 Q2544.03 1842.64 2547.41 1845.81 Q2550.78 1848.98 2550.78 1854.4 Q2550.78 1859.97 2547.31 1863.08 Q2543.84 1866.15 2537.52 1866.15 Q2535.34 1866.15 2533.08 1865.78 Q2530.83 1865.41 2528.42 1864.67 L2528.42 1859.97 Q2530.51 1861.11 2532.73 1861.66 Q2534.95 1862.22 2537.43 1862.22 Q2541.43 1862.22 2543.77 1860.11 Q2546.11 1858.01 2546.11 1854.4 Q2546.11 1850.78 2543.77 1848.68 Q2541.43 1846.57 2537.43 1846.57 Q2535.55 1846.57 2533.68 1846.99 Q2531.83 1847.4 2529.88 1848.28 L2529.88 1830.92 Z" fill="#000000" fill-rule="evenodd" fill-opacity="1" /><polyline clip-path="url(#clip952)" style="stroke:#000000; stroke-linecap:round; stroke-linejoin:round; stroke-width:2; stroke-opacity:0.1; fill:none" points="
  159.154,1486.85 2640.76,1486.85 
  "/>
<polyline clip-path="url(#clip952)" style="stroke:#000000; stroke-linecap:round; stroke-linejoin:round; stroke-width:2; stroke-opacity:0.1; fill:none" points="
  159.154,1138 2640.76,1138 
  "/>
<polyline clip-path="url(#clip952)" style="stroke:#000000; stroke-linecap:round; stroke-linejoin:round; stroke-width:2; stroke-opacity:0.1; fill:none" points="
  159.154,789.146 2640.76,789.146 
  "/>
<polyline clip-path="url(#clip952)" style="stroke:#000000; stroke-linecap:round; stroke-linejoin:round; stroke-width:2; stroke-opacity:0.1; fill:none" points="
  159.154,440.293 2640.76,440.293 
  "/>
<polyline clip-path="url(#clip952)" style="stroke:#000000; stroke-linecap:round; stroke-linejoin:round; stroke-width:2; stroke-opacity:0.1; fill:none" points="
  159.154,91.4408 2640.76,91.4408 
  "/>
<polyline clip-path="url(#clip950)" style="stroke:#000000; stroke-linecap:round; stroke-linejoin:round; stroke-width:4; stroke-opacity:1; fill:none" points="
  159.154,1800.78 159.154,47.2441 
  "/>
<polyline clip-path="url(#clip950)" style="stroke:#000000; stroke-linecap:round; stroke-linejoin:round; stroke-width:4; stroke-opacity:1; fill:none" points="
  159.154,1486.85 178.052,1486.85 
  "/>
<polyline clip-path="url(#clip950)" style="stroke:#000000; stroke-linecap:round; stroke-linejoin:round; stroke-width:4; stroke-opacity:1; fill:none" points="
  159.154,1138 178.052,1138 
  "/>
<polyline clip-path="url(#clip950)" style="stroke:#000000; stroke-linecap:round; stroke-linejoin:round; stroke-width:4; stroke-opacity:1; fill:none" points="
  159.154,789.146 178.052,789.146 
  "/>
<polyline clip-path="url(#clip950)" style="stroke:#000000; stroke-linecap:round; stroke-linejoin:round; stroke-width:4; stroke-opacity:1; fill:none" points="
  159.154,440.293 178.052,440.293 
  "/>
<polyline clip-path="url(#clip950)" style="stroke:#000000; stroke-linecap:round; stroke-linejoin:round; stroke-width:4; stroke-opacity:1; fill:none" points="
  159.154,91.4408 178.052,91.4408 
  "/>
<path clip-path="url(#clip950)" d="M61.6585 1472.65 Q58.0475 1472.65 56.2188 1476.21 Q54.4132 1479.76 54.4132 1486.89 Q54.4132 1493.99 56.2188 1497.56 Q58.0475 1501.1 61.6585 1501.1 Q65.2928 1501.1 67.0983 1497.56 Q68.927 1493.99 68.927 1486.89 Q68.927 1479.76 67.0983 1476.21 Q65.2928 1472.65 61.6585 1472.65 M61.6585 1468.95 Q67.4687 1468.95 70.5242 1473.55 Q73.6029 1478.14 73.6029 1486.89 Q73.6029 1495.61 70.5242 1500.22 Q67.4687 1504.8 61.6585 1504.8 Q55.8484 1504.8 52.7697 1500.22 Q49.7142 1495.61 49.7142 1486.89 Q49.7142 1478.14 52.7697 1473.55 Q55.8484 1468.95 61.6585 1468.95 Z" fill="#000000" fill-rule="evenodd" fill-opacity="1" /><path clip-path="url(#clip950)" d="M81.8205 1498.25 L86.7047 1498.25 L86.7047 1504.13 L81.8205 1504.13 L81.8205 1498.25 Z" fill="#000000" fill-rule="evenodd" fill-opacity="1" /><path clip-path="url(#clip950)" d="M106.89 1472.65 Q103.279 1472.65 101.45 1476.21 Q99.6445 1479.76 99.6445 1486.89 Q99.6445 1493.99 101.45 1497.56 Q103.279 1501.1 106.89 1501.1 Q110.524 1501.1 112.33 1497.56 Q114.158 1493.99 114.158 1486.89 Q114.158 1479.76 112.33 1476.21 Q110.524 1472.65 106.89 1472.65 M106.89 1468.95 Q112.7 1468.95 115.755 1473.55 Q118.834 1478.14 118.834 1486.89 Q118.834 1495.61 115.755 1500.22 Q112.7 1504.8 106.89 1504.8 Q101.08 1504.8 98.0009 1500.22 Q94.9454 1495.61 94.9454 1486.89 Q94.9454 1478.14 98.0009 1473.55 Q101.08 1468.95 106.89 1468.95 Z" fill="#000000" fill-rule="evenodd" fill-opacity="1" /><path clip-path="url(#clip950)" d="M62.3067 1123.8 Q58.6956 1123.8 56.8669 1127.36 Q55.0614 1130.9 55.0614 1138.03 Q55.0614 1145.14 56.8669 1148.7 Q58.6956 1152.25 62.3067 1152.25 Q65.9409 1152.25 67.7465 1148.7 Q69.5752 1145.14 69.5752 1138.03 Q69.5752 1130.9 67.7465 1127.36 Q65.9409 1123.8 62.3067 1123.8 M62.3067 1120.09 Q68.1168 1120.09 71.1724 1124.7 Q74.2511 1129.28 74.2511 1138.03 Q74.2511 1146.76 71.1724 1151.37 Q68.1168 1155.95 62.3067 1155.95 Q56.4965 1155.95 53.4178 1151.37 Q50.3623 1146.76 50.3623 1138.03 Q50.3623 1129.28 53.4178 1124.7 Q56.4965 1120.09 62.3067 1120.09 Z" fill="#000000" fill-rule="evenodd" fill-opacity="1" /><path clip-path="url(#clip950)" d="M82.4686 1149.4 L87.3528 1149.4 L87.3528 1155.28 L82.4686 1155.28 L82.4686 1149.4 Z" fill="#000000" fill-rule="evenodd" fill-opacity="1" /><path clip-path="url(#clip950)" d="M111.705 1136.64 Q115.061 1137.36 116.936 1139.63 Q118.834 1141.9 118.834 1145.23 Q118.834 1150.35 115.316 1153.15 Q111.797 1155.95 105.316 1155.95 Q103.14 1155.95 100.825 1155.51 Q98.5333 1155.09 96.0797 1154.24 L96.0797 1149.72 Q98.0241 1150.86 100.339 1151.44 Q102.654 1152.01 105.177 1152.01 Q109.575 1152.01 111.867 1150.28 Q114.181 1148.54 114.181 1145.23 Q114.181 1142.18 112.029 1140.46 Q109.899 1138.73 106.08 1138.73 L102.052 1138.73 L102.052 1134.88 L106.265 1134.88 Q109.714 1134.88 111.543 1133.52 Q113.371 1132.13 113.371 1129.54 Q113.371 1126.88 111.473 1125.46 Q109.598 1124.03 106.08 1124.03 Q104.158 1124.03 101.959 1124.44 Q99.7602 1124.86 97.1213 1125.74 L97.1213 1121.57 Q99.7833 1120.83 102.098 1120.46 Q104.436 1120.09 106.496 1120.09 Q111.82 1120.09 114.922 1122.52 Q118.024 1124.93 118.024 1129.05 Q118.024 1131.92 116.38 1133.91 Q114.737 1135.88 111.705 1136.64 Z" fill="#000000" fill-rule="evenodd" fill-opacity="1" /><path clip-path="url(#clip950)" d="M61.4965 774.944 Q57.8854 774.944 56.0567 778.509 Q54.2512 782.051 54.2512 789.18 Q54.2512 796.287 56.0567 799.852 Q57.8854 803.393 61.4965 803.393 Q65.1307 803.393 66.9363 799.852 Q68.765 796.287 68.765 789.18 Q68.765 782.051 66.9363 778.509 Q65.1307 774.944 61.4965 774.944 M61.4965 771.241 Q67.3067 771.241 70.3622 775.847 Q73.4409 780.43 73.4409 789.18 Q73.4409 797.907 70.3622 802.514 Q67.3067 807.097 61.4965 807.097 Q55.6864 807.097 52.6077 802.514 Q49.5521 797.907 49.5521 789.18 Q49.5521 780.43 52.6077 775.847 Q55.6864 771.241 61.4965 771.241 Z" fill="#000000" fill-rule="evenodd" fill-opacity="1" /><path clip-path="url(#clip950)" d="M81.6584 800.546 L86.5427 800.546 L86.5427 806.426 L81.6584 806.426 L81.6584 800.546 Z" fill="#000000" fill-rule="evenodd" fill-opacity="1" /><path clip-path="url(#clip950)" d="M107.306 787.282 Q104.158 787.282 102.306 789.435 Q100.478 791.588 100.478 795.338 Q100.478 799.065 102.306 801.241 Q104.158 803.393 107.306 803.393 Q110.455 803.393 112.283 801.241 Q114.135 799.065 114.135 795.338 Q114.135 791.588 112.283 789.435 Q110.455 787.282 107.306 787.282 M116.589 772.63 L116.589 776.889 Q114.83 776.055 113.024 775.616 Q111.242 775.176 109.482 775.176 Q104.853 775.176 102.399 778.301 Q99.9685 781.426 99.6213 787.745 Q100.987 785.731 103.047 784.667 Q105.107 783.579 107.584 783.579 Q112.793 783.579 115.802 786.75 Q118.834 789.898 118.834 795.338 Q118.834 800.662 115.686 803.879 Q112.538 807.097 107.306 807.097 Q101.311 807.097 98.1398 802.514 Q94.9685 797.907 94.9685 789.18 Q94.9685 780.986 98.8574 776.125 Q102.746 771.241 109.297 771.241 Q111.056 771.241 112.839 771.588 Q114.644 771.935 116.589 772.63 Z" fill="#000000" fill-rule="evenodd" fill-opacity="1" /><path clip-path="url(#clip950)" d="M61.8437 426.092 Q58.2326 426.092 56.4039 429.657 Q54.5984 433.198 54.5984 440.328 Q54.5984 447.434 56.4039 450.999 Q58.2326 454.541 61.8437 454.541 Q65.478 454.541 67.2835 450.999 Q69.1122 447.434 69.1122 440.328 Q69.1122 433.198 67.2835 429.657 Q65.478 426.092 61.8437 426.092 M61.8437 422.388 Q67.6539 422.388 70.7094 426.995 Q73.7881 431.578 73.7881 440.328 Q73.7881 449.055 70.7094 453.661 Q67.6539 458.245 61.8437 458.245 Q56.0336 458.245 52.9549 453.661 Q49.8993 449.055 49.8993 440.328 Q49.8993 431.578 52.9549 426.995 Q56.0336 422.388 61.8437 422.388 Z" fill="#000000" fill-rule="evenodd" fill-opacity="1" /><path clip-path="url(#clip950)" d="M82.0057 451.694 L86.8899 451.694 L86.8899 457.573 L82.0057 457.573 L82.0057 451.694 Z" fill="#000000" fill-rule="evenodd" fill-opacity="1" /><path clip-path="url(#clip950)" d="M97.2139 456.856 L97.2139 452.596 Q98.9732 453.43 100.779 453.87 Q102.584 454.309 104.32 454.309 Q108.95 454.309 111.38 451.208 Q113.834 448.083 114.181 441.74 Q112.839 443.731 110.779 444.796 Q108.718 445.86 106.218 445.86 Q101.033 445.86 98.0009 442.735 Q94.9917 439.587 94.9917 434.147 Q94.9917 428.823 98.1398 425.606 Q101.288 422.388 106.519 422.388 Q112.515 422.388 115.663 426.995 Q118.834 431.578 118.834 440.328 Q118.834 448.499 114.945 453.383 Q111.08 458.245 104.529 458.245 Q102.769 458.245 100.964 457.897 Q99.1583 457.55 97.2139 456.856 M106.519 442.203 Q109.668 442.203 111.496 440.05 Q113.348 437.897 113.348 434.147 Q113.348 430.421 111.496 428.268 Q109.668 426.092 106.519 426.092 Q103.371 426.092 101.519 428.268 Q99.6907 430.421 99.6907 434.147 Q99.6907 437.897 101.519 440.05 Q103.371 442.203 106.519 442.203 Z" fill="#000000" fill-rule="evenodd" fill-opacity="1" /><path clip-path="url(#clip950)" d="M54.066 104.786 L61.7048 104.786 L61.7048 78.4201 L53.3947 80.0867 L53.3947 75.8275 L61.6585 74.1608 L66.3344 74.1608 L66.3344 104.786 L73.9733 104.786 L73.9733 108.721 L54.066 108.721 L54.066 104.786 Z" fill="#000000" fill-rule="evenodd" fill-opacity="1" /><path clip-path="url(#clip950)" d="M83.4177 102.841 L88.3019 102.841 L88.3019 108.721 L83.4177 108.721 L83.4177 102.841 Z" fill="#000000" fill-rule="evenodd" fill-opacity="1" /><path clip-path="url(#clip950)" d="M102.515 104.786 L118.834 104.786 L118.834 108.721 L96.8898 108.721 L96.8898 104.786 Q99.5519 102.031 104.135 97.4015 Q108.742 92.7487 109.922 91.4061 Q112.168 88.883 113.047 87.1469 Q113.95 85.3876 113.95 83.6978 Q113.95 80.9432 112.005 79.2071 Q110.084 77.471 106.982 77.471 Q104.783 77.471 102.33 78.2349 Q99.8991 78.9988 97.1213 80.5497 L97.1213 75.8275 Q99.9454 74.6932 102.399 74.1145 Q104.853 73.5358 106.89 73.5358 Q112.26 73.5358 115.455 76.221 Q118.649 78.9062 118.649 83.3969 Q118.649 85.5265 117.839 87.4478 Q117.052 89.3459 114.945 91.9385 Q114.367 92.6098 111.265 95.8274 Q108.163 99.0218 102.515 104.786 Z" fill="#000000" fill-rule="evenodd" fill-opacity="1" /><polyline clip-path="url(#clip952)" style="stroke:#0000ff; stroke-linecap:round; stroke-linejoin:round; stroke-width:20; stroke-opacity:1; fill:none" points="
  229.388,1486.85 237.009,1474.96 244.63,1463.07 315.098,1353.4 385.565,1244.93 427.913,1180.72 470.261,1117.5 506.066,1064.97 541.87,1013.41 580.764,958.645 
  619.658,905.32 655.515,857.559 691.372,811.255 729.814,763.352 768.256,717.373 812.795,666.67 857.334,618.897 877.125,598.654 896.915,579.037 916.706,560.061 
  936.497,541.738 971.206,511.22 1005.91,482.819 1043.76,454.337 1081.6,428.517 1119.67,405.297 1157.73,384.898 1178.78,374.852 1199.82,365.693 1220.87,357.428 
  1241.91,350.063 1261.93,343.897 1281.95,338.557 1301.98,334.045 1322,330.366 1342.82,327.425 1363.64,325.39 1384.46,324.261 1405.28,324.039 1440.33,325.715 
  1475.38,329.96 1496.77,333.81 1518.17,338.61 1539.57,344.357 1560.96,351.045 1600.16,365.724 1639.37,383.505 1675.57,402.639 1711.78,424.332 1748.45,448.863 
  1785.12,475.907 1826.23,509.121 1867.33,545.31 1904.57,580.578 1941.82,618.11 1984.46,663.74 2027.1,712.064 2066.59,759.073 2106.07,808.125 2145,858.349 
  2183.92,910.288 2221.72,962.223 2259.51,1015.51 2298.25,1071.39 2337,1128.39 2379.45,1191.95 2421.9,1256.46 2483.56,1351.46 2545.22,1447.38 2557.87,1467.11 
  2570.52,1486.85 
  "/>
<polyline clip-path="url(#clip952)" style="stroke:#008000; stroke-linecap:round; stroke-linejoin:round; stroke-width:20; stroke-opacity:0.25; fill:none" points="
  229.388,551.146 244.63,548.188 385.565,520.841 470.261,504.407 541.87,490.512 619.658,475.418 691.372,461.503 768.256,446.584 857.334,429.299 936.497,413.939 
  1005.91,400.469 1081.6,385.783 1157.73,371.01 1241.91,354.676 1322,339.135 1405.28,322.976 1475.38,309.374 1560.96,292.767 1639.37,277.554 1711.78,263.504 
  1785.12,249.271 1867.33,233.32 1941.82,218.866 2027.1,202.317 2106.07,186.994 2183.92,171.888 2259.51,157.221 2337,142.185 2421.9,125.712 2545.22,101.782 
  2570.52,96.8724 
  "/>
<polyline clip-path="url(#clip952)" style="stroke:#008000; stroke-linecap:round; stroke-linejoin:round; stroke-width:20; stroke-opacity:0.25; fill:none" points="
  229.388,1751.15 233.199,1741.87 237.009,1732.63 240.82,1723.41 244.63,1714.23 279.864,1630.73 315.098,1549.81 350.331,1471.48 385.565,1395.74 427.913,1308.12 
  470.261,1224.24 506.066,1156.24 541.87,1090.9 580.764,1022.96 619.658,958.163 655.515,901.22 691.372,846.955 729.814,791.752 768.256,739.628 790.526,710.84 
  812.795,683.086 835.065,656.365 857.334,630.676 896.915,587.569 936.497,547.725 971.206,515.471 1005.91,485.726 1043.76,456.156 1081.6,429.569 1119.67,405.834 
  1157.73,385.118 1199.82,365.726 1241.91,350.025 1281.95,338.512 1322,330.338 1363.64,325.383 1405.28,324.039 1440.33,325.707 1475.38,329.934 1496.77,333.773 
  1518.17,338.565 1539.57,344.31 1560.96,351.01 1600.16,365.758 1639.37,383.707 1675.57,403.128 1711.78,425.28 1748.45,450.502 1785.12,478.527 1826.23,513.264 
  1867.33,551.52 1904.57,589.225 1941.82,629.82 1963.14,654.36 1984.46,679.847 2005.78,706.281 2027.1,733.662 2066.59,786.867 2106.07,843.319 2145,902.153 
  2183.92,964.144 2221.72,1027.35 2259.51,1093.53 2298.25,1164.47 2337,1238.53 2358.22,1280.43 2379.45,1323.26 2400.67,1367.04 2421.9,1411.75 2452.73,1478.37 
  2483.56,1546.98 2514.39,1617.56 2545.22,1690.13 2551.55,1705.26 2557.87,1720.47 2564.2,1735.77 2570.52,1751.15 
  "/>
</svg>
