<?xml version="1.0" encoding="utf-8"?>
<svg xmlns="http://www.w3.org/2000/svg" xmlns:xlink="http://www.w3.org/1999/xlink" width="672" height="480" viewBox="0 0 2688 1920">
<defs>
  <clipPath id="clip920">
    <rect x="0" y="0" width="2688" height="1920"/>
  </clipPath>
</defs>
<path clip-path="url(#clip920)" d="
M0 1920 L2688 1920 L2688 0 L0 0  Z
  " fill="#ffffff" fill-rule="evenodd" fill-opacity="1"/>
<defs>
  <clipPath id="clip921">
    <rect x="537" y="0" width="1883" height="1883"/>
  </clipPath>
</defs>
<path clip-path="url(#clip920)" d="
M115.057 1800.78 L2640.76 1800.78 L2640.76 47.2441 L115.057 47.2441  Z
  " fill="#ffffff" fill-rule="evenodd" fill-opacity="1"/>
<defs>
  <clipPath id="clip922">
    <rect x="115" y="47" width="2527" height="1755"/>
  </clipPath>
</defs>
<polyline clip-path="url(#clip922)" style="stroke:#000000; stroke-linecap:butt; stroke-linejoin:round; stroke-width:2; stroke-opacity:0.1; fill:none" points="
  186.539,1800.78 186.539,47.2441 
  "/>
<polyline clip-path="url(#clip922)" style="stroke:#000000; stroke-linecap:butt; stroke-linejoin:round; stroke-width:2; stroke-opacity:0.1; fill:none" points="
  782.223,1800.78 782.223,47.2441 
  "/>
<polyline clip-path="url(#clip922)" style="stroke:#000000; stroke-linecap:butt; stroke-linejoin:round; stroke-width:2; stroke-opacity:0.1; fill:none" points="
  1377.91,1800.78 1377.91,47.2441 
  "/>
<polyline clip-path="url(#clip922)" style="stroke:#000000; stroke-linecap:butt; stroke-linejoin:round; stroke-width:2; stroke-opacity:0.1; fill:none" points="
  1973.59,1800.78 1973.59,47.2441 
  "/>
<polyline clip-path="url(#clip922)" style="stroke:#000000; stroke-linecap:butt; stroke-linejoin:round; stroke-width:2; stroke-opacity:0.1; fill:none" points="
  2569.27,1800.78 2569.27,47.2441 
  "/>
<polyline clip-path="url(#clip920)" style="stroke:#000000; stroke-linecap:butt; stroke-linejoin:round; stroke-width:4; stroke-opacity:1; fill:none" points="
  115.057,1800.78 2640.76,1800.78 
  "/>
<polyline clip-path="url(#clip920)" style="stroke:#000000; stroke-linecap:butt; stroke-linejoin:round; stroke-width:4; stroke-opacity:1; fill:none" points="
  186.539,1800.78 186.539,1781.88 
  "/>
<polyline clip-path="url(#clip920)" style="stroke:#000000; stroke-linecap:butt; stroke-linejoin:round; stroke-width:4; stroke-opacity:1; fill:none" points="
  782.223,1800.78 782.223,1781.88 
  "/>
<polyline clip-path="url(#clip920)" style="stroke:#000000; stroke-linecap:butt; stroke-linejoin:round; stroke-width:4; stroke-opacity:1; fill:none" points="
  1377.91,1800.78 1377.91,1781.88 
  "/>
<polyline clip-path="url(#clip920)" style="stroke:#000000; stroke-linecap:butt; stroke-linejoin:round; stroke-width:4; stroke-opacity:1; fill:none" points="
  1973.59,1800.78 1973.59,1781.88 
  "/>
<polyline clip-path="url(#clip920)" style="stroke:#000000; stroke-linecap:butt; stroke-linejoin:round; stroke-width:4; stroke-opacity:1; fill:none" points="
  2569.27,1800.78 2569.27,1781.88 
  "/>
<path clip-path="url(#clip920)" d="M156.296 1848.65 L185.972 1848.65 L185.972 1852.59 L156.296 1852.59 L156.296 1848.65 Z" fill="#000000" fill-rule="evenodd" fill-opacity="1" /><path clip-path="url(#clip920)" d="M196.875 1861.55 L204.514 1861.55 L204.514 1835.18 L196.204 1836.85 L196.204 1832.59 L204.467 1830.92 L209.143 1830.92 L209.143 1861.55 L216.782 1861.55 L216.782 1865.48 L196.875 1865.48 L196.875 1861.55 Z" fill="#000000" fill-rule="evenodd" fill-opacity="1" /><path clip-path="url(#clip920)" d="M782.223 1834 Q778.612 1834 776.783 1837.57 Q774.978 1841.11 774.978 1848.24 Q774.978 1855.34 776.783 1858.91 Q778.612 1862.45 782.223 1862.45 Q785.857 1862.45 787.663 1858.91 Q789.491 1855.34 789.491 1848.24 Q789.491 1841.11 787.663 1837.57 Q785.857 1834 782.223 1834 M782.223 1830.3 Q788.033 1830.3 791.089 1834.9 Q794.167 1839.49 794.167 1848.24 Q794.167 1856.96 791.089 1861.57 Q788.033 1866.15 782.223 1866.15 Q776.413 1866.15 773.334 1861.57 Q770.278 1856.96 770.278 1848.24 Q770.278 1839.49 773.334 1834.9 Q776.413 1830.3 782.223 1830.3 Z" fill="#000000" fill-rule="evenodd" fill-opacity="1" /><path clip-path="url(#clip920)" d="M1368.29 1861.55 L1375.93 1861.55 L1375.93 1835.18 L1367.62 1836.85 L1367.62 1832.59 L1375.88 1830.92 L1380.56 1830.92 L1380.56 1861.55 L1388.2 1861.55 L1388.2 1865.48 L1368.29 1865.48 L1368.29 1861.55 Z" fill="#000000" fill-rule="evenodd" fill-opacity="1" /><path clip-path="url(#clip920)" d="M1968.24 1861.55 L1984.56 1861.55 L1984.56 1865.48 L1962.62 1865.48 L1962.62 1861.55 Q1965.28 1858.79 1969.86 1854.16 Q1974.47 1849.51 1975.65 1848.17 Q1977.9 1845.65 1978.78 1843.91 Q1979.68 1842.15 1979.68 1840.46 Q1979.68 1837.71 1977.73 1835.97 Q1975.81 1834.23 1972.71 1834.23 Q1970.51 1834.23 1968.06 1835 Q1965.63 1835.76 1962.85 1837.31 L1962.85 1832.59 Q1965.67 1831.46 1968.13 1830.88 Q1970.58 1830.3 1972.62 1830.3 Q1977.99 1830.3 1981.18 1832.98 Q1984.38 1835.67 1984.38 1840.16 Q1984.38 1842.29 1983.57 1844.21 Q1982.78 1846.11 1980.67 1848.7 Q1980.09 1849.37 1976.99 1852.59 Q1973.89 1855.78 1968.24 1861.55 Z" fill="#000000" fill-rule="evenodd" fill-opacity="1" /><path clip-path="url(#clip920)" d="M2573.52 1846.85 Q2576.88 1847.57 2578.75 1849.84 Q2580.65 1852.1 2580.65 1855.44 Q2580.65 1860.55 2577.13 1863.35 Q2573.61 1866.15 2567.13 1866.15 Q2564.96 1866.15 2562.64 1865.71 Q2560.35 1865.3 2557.9 1864.44 L2557.9 1859.93 Q2559.84 1861.06 2562.16 1861.64 Q2564.47 1862.22 2566.99 1862.22 Q2571.39 1862.22 2573.68 1860.48 Q2576 1858.75 2576 1855.44 Q2576 1852.38 2573.85 1850.67 Q2571.72 1848.93 2567.9 1848.93 L2563.87 1848.93 L2563.87 1845.09 L2568.08 1845.09 Q2571.53 1845.09 2573.36 1843.72 Q2575.19 1842.34 2575.19 1839.74 Q2575.19 1837.08 2573.29 1835.67 Q2571.42 1834.23 2567.9 1834.23 Q2565.98 1834.23 2563.78 1834.65 Q2561.58 1835.07 2558.94 1835.95 L2558.94 1831.78 Q2561.6 1831.04 2563.92 1830.67 Q2566.25 1830.3 2568.31 1830.3 Q2573.64 1830.3 2576.74 1832.73 Q2579.84 1835.14 2579.84 1839.26 Q2579.84 1842.13 2578.2 1844.12 Q2576.55 1846.09 2573.52 1846.85 Z" fill="#000000" fill-rule="evenodd" fill-opacity="1" /><polyline clip-path="url(#clip922)" style="stroke:#000000; stroke-linecap:butt; stroke-linejoin:round; stroke-width:2; stroke-opacity:0.1; fill:none" points="
  115.057,1745.52 2640.76,1745.52 
  "/>
<polyline clip-path="url(#clip922)" style="stroke:#000000; stroke-linecap:butt; stroke-linejoin:round; stroke-width:2; stroke-opacity:0.1; fill:none" points="
  115.057,1333.36 2640.76,1333.36 
  "/>
<polyline clip-path="url(#clip922)" style="stroke:#000000; stroke-linecap:butt; stroke-linejoin:round; stroke-width:2; stroke-opacity:0.1; fill:none" points="
  115.057,921.194 2640.76,921.194 
  "/>
<polyline clip-path="url(#clip922)" style="stroke:#000000; stroke-linecap:butt; stroke-linejoin:round; stroke-width:2; stroke-opacity:0.1; fill:none" points="
  115.057,509.033 2640.76,509.033 
  "/>
<polyline clip-path="url(#clip922)" style="stroke:#000000; stroke-linecap:butt; stroke-linejoin:round; stroke-width:2; stroke-opacity:0.1; fill:none" points="
  115.057,96.8724 2640.76,96.8724 
  "/>
<polyline clip-path="url(#clip920)" style="stroke:#000000; stroke-linecap:butt; stroke-linejoin:round; stroke-width:4; stroke-opacity:1; fill:none" points="
  115.057,1800.78 115.057,47.2441 
  "/>
<polyline clip-path="url(#clip920)" style="stroke:#000000; stroke-linecap:butt; stroke-linejoin:round; stroke-width:4; stroke-opacity:1; fill:none" points="
  115.057,1745.52 133.955,1745.52 
  "/>
<polyline clip-path="url(#clip920)" style="stroke:#000000; stroke-linecap:butt; stroke-linejoin:round; stroke-width:4; stroke-opacity:1; fill:none" points="
  115.057,1333.36 133.955,1333.36 
  "/>
<polyline clip-path="url(#clip920)" style="stroke:#000000; stroke-linecap:butt; stroke-linejoin:round; stroke-width:4; stroke-opacity:1; fill:none" points="
  115.057,921.194 133.955,921.194 
  "/>
<polyline clip-path="url(#clip920)" style="stroke:#000000; stroke-linecap:butt; stroke-linejoin:round; stroke-width:4; stroke-opacity:1; fill:none" points="
  115.057,509.033 133.955,509.033 
  "/>
<polyline clip-path="url(#clip920)" style="stroke:#000000; stroke-linecap:butt; stroke-linejoin:round; stroke-width:4; stroke-opacity:1; fill:none" points="
  115.057,96.8724 133.955,96.8724 
  "/>
<path clip-path="url(#clip920)" d="M62.7928 1731.31 Q59.1817 1731.31 57.353 1734.88 Q55.5475 1738.42 55.5475 1745.55 Q55.5475 1752.66 57.353 1756.22 Q59.1817 1759.76 62.7928 1759.76 Q66.427 1759.76 68.2326 1756.22 Q70.0613 1752.66 70.0613 1745.55 Q70.0613 1738.42 68.2326 1734.88 Q66.427 1731.31 62.7928 1731.31 M62.7928 1727.61 Q68.6029 1727.61 71.6585 1732.22 Q74.7372 1736.8 74.7372 1745.55 Q74.7372 1754.28 71.6585 1758.88 Q68.6029 1763.47 62.7928 1763.47 Q56.9826 1763.47 53.904 1758.88 Q50.8484 1754.28 50.8484 1745.55 Q50.8484 1736.8 53.904 1732.22 Q56.9826 1727.61 62.7928 1727.61 Z" fill="#000000" fill-rule="evenodd" fill-opacity="1" /><path clip-path="url(#clip920)" d="M58.4178 1346.7 L74.7372 1346.7 L74.7372 1350.64 L52.7928 1350.64 L52.7928 1346.7 Q55.4549 1343.95 60.0382 1339.32 Q64.6446 1334.66 65.8252 1333.32 Q68.0705 1330.8 68.9502 1329.06 Q69.8529 1327.3 69.8529 1325.61 Q69.8529 1322.86 67.9085 1321.12 Q65.9872 1319.39 62.8854 1319.39 Q60.6863 1319.39 58.2326 1320.15 Q55.8021 1320.91 53.0243 1322.46 L53.0243 1317.74 Q55.8484 1316.61 58.3021 1316.03 Q60.7558 1315.45 62.7928 1315.45 Q68.1631 1315.45 71.3576 1318.14 Q74.552 1320.82 74.552 1325.31 Q74.552 1327.44 73.7418 1329.36 Q72.9548 1331.26 70.8483 1333.85 Q70.2696 1334.52 67.1678 1337.74 Q64.0659 1340.94 58.4178 1346.7 Z" fill="#000000" fill-rule="evenodd" fill-opacity="1" /><path clip-path="url(#clip920)" d="M65.1539 907.988 L53.3484 926.437 L65.1539 926.437 L65.1539 907.988 M63.927 903.914 L69.8066 903.914 L69.8066 926.437 L74.7372 926.437 L74.7372 930.326 L69.8066 930.326 L69.8066 938.474 L65.1539 938.474 L65.1539 930.326 L49.5521 930.326 L49.5521 925.812 L63.927 903.914 Z" fill="#000000" fill-rule="evenodd" fill-opacity="1" /><path clip-path="url(#clip920)" d="M63.2095 507.17 Q60.0613 507.17 58.2095 509.323 Q56.3808 511.475 56.3808 515.225 Q56.3808 518.952 58.2095 521.128 Q60.0613 523.281 63.2095 523.281 Q66.3576 523.281 68.1863 521.128 Q70.0381 518.952 70.0381 515.225 Q70.0381 511.475 68.1863 509.323 Q66.3576 507.17 63.2095 507.17 M72.4918 492.517 L72.4918 496.776 Q70.7326 495.943 68.927 495.503 Q67.1446 495.063 65.3854 495.063 Q60.7558 495.063 58.3021 498.188 Q55.8715 501.313 55.5243 507.633 Q56.89 505.619 58.9502 504.554 Q61.0104 503.466 63.4872 503.466 Q68.6955 503.466 71.7048 506.638 Q74.7372 509.786 74.7372 515.225 Q74.7372 520.549 71.589 523.767 Q68.4409 526.985 63.2095 526.985 Q57.2141 526.985 54.0428 522.401 Q50.8716 517.795 50.8716 509.068 Q50.8716 500.874 54.7604 496.013 Q58.6493 491.128 65.2002 491.128 Q66.9594 491.128 68.7418 491.476 Q70.5474 491.823 72.4918 492.517 Z" fill="#000000" fill-rule="evenodd" fill-opacity="1" /><path clip-path="url(#clip920)" d="M62.8854 97.7405 Q59.5521 97.7405 57.6308 99.5229 Q55.7326 101.305 55.7326 104.43 Q55.7326 107.555 57.6308 109.338 Q59.5521 111.12 62.8854 111.12 Q66.2187 111.12 68.14 109.338 Q70.0613 107.532 70.0613 104.43 Q70.0613 101.305 68.14 99.5229 Q66.2419 97.7405 62.8854 97.7405 M58.2095 95.7498 Q55.2002 95.009 53.5104 92.9489 Q51.8438 90.8887 51.8438 87.9257 Q51.8438 83.7822 54.7836 81.3748 Q57.7465 78.9675 62.8854 78.9675 Q68.0474 78.9675 70.9872 81.3748 Q73.927 83.7822 73.927 87.9257 Q73.927 90.8887 72.2372 92.9489 Q70.5705 95.009 67.5844 95.7498 Q70.964 96.5368 72.839 98.8285 Q74.7372 101.12 74.7372 104.43 Q74.7372 109.453 71.6585 112.139 Q68.6029 114.824 62.8854 114.824 Q57.1678 114.824 54.0891 112.139 Q51.0336 109.453 51.0336 104.43 Q51.0336 101.12 52.9317 98.8285 Q54.8299 96.5368 58.2095 95.7498 M56.4965 88.3656 Q56.4965 91.0507 58.1632 92.5553 Q59.853 94.06 62.8854 94.06 Q65.8946 94.06 67.5844 92.5553 Q69.2974 91.0507 69.2974 88.3656 Q69.2974 85.6804 67.5844 84.1758 Q65.8946 82.6711 62.8854 82.6711 Q59.853 82.6711 58.1632 84.1758 Q56.4965 85.6804 56.4965 88.3656 Z" fill="#000000" fill-rule="evenodd" fill-opacity="1" /><polyline clip-path="url(#clip922)" style="stroke:#009af9; stroke-linecap:butt; stroke-linejoin:round; stroke-width:16; stroke-opacity:1; fill:none" points="
  186.539,1745.52 190.417,1745.41 194.296,1745.21 198.174,1744.95 202.052,1744.65 237.912,1740.3 273.772,1733.97 309.632,1726.16 345.491,1717.11 388.592,1704.81 
  431.692,1691.11 468.133,1678.54 504.574,1665.12 583.744,1633.3 656.732,1601 734.983,1563.46 825.644,1516.5 906.213,1471.85 976.864,1430.58 1053.89,1383.43 
  1131.38,1333.84 1217.05,1276.6 1298.57,1219.88 1383.32,1158.65 1454.67,1105.4 1541.78,1038.33 1621.57,974.958 1695.27,914.843 1769.92,852.434 1853.58,780.722 
  1929.4,714.165 2016.2,636.165 2096.57,562.274 2175.81,487.887 2252.74,414.231 2331.6,337.288 2418.01,251.35 2543.52,123.525 2569.27,96.8724 
  "/>
<polyline clip-path="url(#clip922)" style="stroke:#e26f46; stroke-linecap:butt; stroke-linejoin:round; stroke-width:4; stroke-opacity:1; fill:none" points="
  186.539,1751.15 194.296,1750.02 202.052,1748.84 273.772,1735.32 345.491,1717.55 388.592,1705.02 431.692,1691.2 468.133,1678.58 504.574,1665.14 583.744,1633.31 
  656.732,1601 734.983,1563.46 825.644,1516.5 906.213,1471.85 976.864,1430.58 1053.89,1383.44 1131.38,1333.89 1217.05,1276.75 1298.57,1220.27 1383.32,1159.57 
  1454.67,1107.11 1541.78,1041.7 1621.57,980.842 1695.27,924.219 1769.92,866.895 1853.58,803.33 1929.4,747.043 1972.8,715.679 2016.2,685.132 2056.38,657.728 
  2096.57,631.317 2136.19,606.404 2175.81,582.771 2214.27,561.209 2252.74,541.18 2292.17,522.423 2331.6,505.664 2353.2,497.406 2374.8,489.848 2396.4,483.027 
  2418.01,476.983 2449.39,469.668 2480.76,464.204 2512.14,460.722 2543.52,459.361 2549.96,459.356 2556.4,459.449 2562.84,459.639 2569.27,459.928 
  "/>
</svg>
