<?xml version="1.0" encoding="utf-8"?>
<svg xmlns="http://www.w3.org/2000/svg" xmlns:xlink="http://www.w3.org/1999/xlink" width="672" height="480" viewBox="0 0 2688 1920">
<defs>
  <clipPath id="clip910">
    <rect x="0" y="0" width="2688" height="1920"/>
  </clipPath>
</defs>
<path clip-path="url(#clip910)" d="
M0 1920 L2688 1920 L2688 0 L0 0  Z
  " fill="#ffffff" fill-rule="evenodd" fill-opacity="1"/>
<defs>
  <clipPath id="clip911">
    <rect x="537" y="0" width="1883" height="1883"/>
  </clipPath>
</defs>
<path clip-path="url(#clip910)" d="
M159.154 1800.78 L2640.76 1800.78 L2640.76 47.2441 L159.154 47.2441  Z
  " fill="#ffffff" fill-rule="evenodd" fill-opacity="1"/>
<defs>
  <clipPath id="clip912">
    <rect x="159" y="47" width="2483" height="1755"/>
  </clipPath>
</defs>
<polyline clip-path="url(#clip912)" style="stroke:#000000; stroke-linecap:round; stroke-linejoin:round; stroke-width:2; stroke-opacity:0.1; fill:none" points="
  282.146,1800.78 282.146,47.2441 
  "/>
<polyline clip-path="url(#clip912)" style="stroke:#000000; stroke-linecap:round; stroke-linejoin:round; stroke-width:2; stroke-opacity:0.1; fill:none" points="
  654.749,1800.78 654.749,47.2441 
  "/>
<polyline clip-path="url(#clip912)" style="stroke:#000000; stroke-linecap:round; stroke-linejoin:round; stroke-width:2; stroke-opacity:0.1; fill:none" points="
  1027.35,1800.78 1027.35,47.2441 
  "/>
<polyline clip-path="url(#clip912)" style="stroke:#000000; stroke-linecap:round; stroke-linejoin:round; stroke-width:2; stroke-opacity:0.1; fill:none" points="
  1399.96,1800.78 1399.96,47.2441 
  "/>
<polyline clip-path="url(#clip912)" style="stroke:#000000; stroke-linecap:round; stroke-linejoin:round; stroke-width:2; stroke-opacity:0.1; fill:none" points="
  1772.56,1800.78 1772.56,47.2441 
  "/>
<polyline clip-path="url(#clip912)" style="stroke:#000000; stroke-linecap:round; stroke-linejoin:round; stroke-width:2; stroke-opacity:0.1; fill:none" points="
  2145.16,1800.78 2145.16,47.2441 
  "/>
<polyline clip-path="url(#clip912)" style="stroke:#000000; stroke-linecap:round; stroke-linejoin:round; stroke-width:2; stroke-opacity:0.1; fill:none" points="
  2517.76,1800.78 2517.76,47.2441 
  "/>
<polyline clip-path="url(#clip910)" style="stroke:#000000; stroke-linecap:round; stroke-linejoin:round; stroke-width:4; stroke-opacity:1; fill:none" points="
  159.154,1800.78 2640.76,1800.78 
  "/>
<polyline clip-path="url(#clip910)" style="stroke:#000000; stroke-linecap:round; stroke-linejoin:round; stroke-width:4; stroke-opacity:1; fill:none" points="
  282.146,1800.78 282.146,1781.88 
  "/>
<polyline clip-path="url(#clip910)" style="stroke:#000000; stroke-linecap:round; stroke-linejoin:round; stroke-width:4; stroke-opacity:1; fill:none" points="
  654.749,1800.78 654.749,1781.88 
  "/>
<polyline clip-path="url(#clip910)" style="stroke:#000000; stroke-linecap:round; stroke-linejoin:round; stroke-width:4; stroke-opacity:1; fill:none" points="
  1027.35,1800.78 1027.35,1781.88 
  "/>
<polyline clip-path="url(#clip910)" style="stroke:#000000; stroke-linecap:round; stroke-linejoin:round; stroke-width:4; stroke-opacity:1; fill:none" points="
  1399.96,1800.78 1399.96,1781.88 
  "/>
<polyline clip-path="url(#clip910)" style="stroke:#000000; stroke-linecap:round; stroke-linejoin:round; stroke-width:4; stroke-opacity:1; fill:none" points="
  1772.56,1800.78 1772.56,1781.88 
  "/>
<polyline clip-path="url(#clip910)" style="stroke:#000000; stroke-linecap:round; stroke-linejoin:round; stroke-width:4; stroke-opacity:1; fill:none" points="
  2145.16,1800.78 2145.16,1781.88 
  "/>
<polyline clip-path="url(#clip910)" style="stroke:#000000; stroke-linecap:round; stroke-linejoin:round; stroke-width:4; stroke-opacity:1; fill:none" points="
  2517.76,1800.78 2517.76,1781.88 
  "/>
<path clip-path="url(#clip910)" d="M229.172 1848.65 L258.848 1848.65 L258.848 1852.59 L229.172 1852.59 L229.172 1848.65 Z" fill="#000000" fill-rule="evenodd" fill-opacity="1" /><path clip-path="url(#clip910)" d="M269.75 1861.55 L277.389 1861.55 L277.389 1835.18 L269.079 1836.85 L269.079 1832.59 L277.343 1830.92 L282.019 1830.92 L282.019 1861.55 L289.658 1861.55 L289.658 1865.48 L269.75 1865.48 L269.75 1861.55 Z" fill="#000000" fill-rule="evenodd" fill-opacity="1" /><path clip-path="url(#clip910)" d="M299.102 1859.6 L303.986 1859.6 L303.986 1865.48 L299.102 1865.48 L299.102 1859.6 Z" fill="#000000" fill-rule="evenodd" fill-opacity="1" /><path clip-path="url(#clip910)" d="M314.218 1830.92 L332.574 1830.92 L332.574 1834.86 L318.5 1834.86 L318.5 1843.33 Q319.519 1842.98 320.537 1842.82 Q321.556 1842.64 322.574 1842.64 Q328.361 1842.64 331.741 1845.81 Q335.12 1848.98 335.12 1854.4 Q335.12 1859.97 331.648 1863.08 Q328.176 1866.15 321.856 1866.15 Q319.681 1866.15 317.412 1865.78 Q315.167 1865.41 312.759 1864.67 L312.759 1859.97 Q314.843 1861.11 317.065 1861.66 Q319.287 1862.22 321.764 1862.22 Q325.768 1862.22 328.106 1860.11 Q330.444 1858.01 330.444 1854.4 Q330.444 1850.78 328.106 1848.68 Q325.768 1846.57 321.764 1846.57 Q319.889 1846.57 318.014 1846.99 Q316.162 1847.4 314.218 1848.28 L314.218 1830.92 Z" fill="#000000" fill-rule="evenodd" fill-opacity="1" /><path clip-path="url(#clip910)" d="M601.277 1848.65 L630.953 1848.65 L630.953 1852.59 L601.277 1852.59 L601.277 1848.65 Z" fill="#000000" fill-rule="evenodd" fill-opacity="1" /><path clip-path="url(#clip910)" d="M641.856 1861.55 L649.494 1861.55 L649.494 1835.18 L641.184 1836.85 L641.184 1832.59 L649.448 1830.92 L654.124 1830.92 L654.124 1861.55 L661.763 1861.55 L661.763 1865.48 L641.856 1865.48 L641.856 1861.55 Z" fill="#000000" fill-rule="evenodd" fill-opacity="1" /><path clip-path="url(#clip910)" d="M671.207 1859.6 L676.092 1859.6 L676.092 1865.48 L671.207 1865.48 L671.207 1859.6 Z" fill="#000000" fill-rule="evenodd" fill-opacity="1" /><path clip-path="url(#clip910)" d="M696.277 1834 Q692.665 1834 690.837 1837.57 Q689.031 1841.11 689.031 1848.24 Q689.031 1855.34 690.837 1858.91 Q692.665 1862.45 696.277 1862.45 Q699.911 1862.45 701.716 1858.91 Q703.545 1855.34 703.545 1848.24 Q703.545 1841.11 701.716 1837.57 Q699.911 1834 696.277 1834 M696.277 1830.3 Q702.087 1830.3 705.142 1834.9 Q708.221 1839.49 708.221 1848.24 Q708.221 1856.96 705.142 1861.57 Q702.087 1866.15 696.277 1866.15 Q690.466 1866.15 687.388 1861.57 Q684.332 1856.96 684.332 1848.24 Q684.332 1839.49 687.388 1834.9 Q690.466 1830.3 696.277 1830.3 Z" fill="#000000" fill-rule="evenodd" fill-opacity="1" /><path clip-path="url(#clip910)" d="M974.378 1848.65 L1004.05 1848.65 L1004.05 1852.59 L974.378 1852.59 L974.378 1848.65 Z" fill="#000000" fill-rule="evenodd" fill-opacity="1" /><path clip-path="url(#clip910)" d="M1024.15 1834 Q1020.53 1834 1018.71 1837.57 Q1016.9 1841.11 1016.9 1848.24 Q1016.9 1855.34 1018.71 1858.91 Q1020.53 1862.45 1024.15 1862.45 Q1027.78 1862.45 1029.59 1858.91 Q1031.41 1855.34 1031.41 1848.24 Q1031.41 1841.11 1029.59 1837.57 Q1027.78 1834 1024.15 1834 M1024.15 1830.3 Q1029.96 1830.3 1033.01 1834.9 Q1036.09 1839.49 1036.09 1848.24 Q1036.09 1856.96 1033.01 1861.57 Q1029.96 1866.15 1024.15 1866.15 Q1018.34 1866.15 1015.26 1861.57 Q1012.2 1856.96 1012.2 1848.24 Q1012.2 1839.49 1015.26 1834.9 Q1018.34 1830.3 1024.15 1830.3 Z" fill="#000000" fill-rule="evenodd" fill-opacity="1" /><path clip-path="url(#clip910)" d="M1044.31 1859.6 L1049.19 1859.6 L1049.19 1865.48 L1044.31 1865.48 L1044.31 1859.6 Z" fill="#000000" fill-rule="evenodd" fill-opacity="1" /><path clip-path="url(#clip910)" d="M1059.42 1830.92 L1077.78 1830.92 L1077.78 1834.86 L1063.71 1834.86 L1063.71 1843.33 Q1064.72 1842.98 1065.74 1842.82 Q1066.76 1842.64 1067.78 1842.64 Q1073.57 1842.64 1076.95 1845.81 Q1080.33 1848.98 1080.33 1854.4 Q1080.33 1859.97 1076.85 1863.08 Q1073.38 1866.15 1067.06 1866.15 Q1064.89 1866.15 1062.62 1865.78 Q1060.37 1865.41 1057.97 1864.67 L1057.97 1859.97 Q1060.05 1861.11 1062.27 1861.66 Q1064.49 1862.22 1066.97 1862.22 Q1070.97 1862.22 1073.31 1860.11 Q1075.65 1858.01 1075.65 1854.4 Q1075.65 1850.78 1073.31 1848.68 Q1070.97 1846.57 1066.97 1846.57 Q1065.09 1846.57 1063.22 1846.99 Q1061.37 1847.4 1059.42 1848.28 L1059.42 1830.92 Z" fill="#000000" fill-rule="evenodd" fill-opacity="1" /><path clip-path="url(#clip910)" d="M1377.34 1834 Q1373.73 1834 1371.9 1837.57 Q1370.09 1841.11 1370.09 1848.24 Q1370.09 1855.34 1371.9 1858.91 Q1373.73 1862.45 1377.34 1862.45 Q1380.97 1862.45 1382.78 1858.91 Q1384.61 1855.34 1384.61 1848.24 Q1384.61 1841.11 1382.78 1837.57 Q1380.97 1834 1377.34 1834 M1377.34 1830.3 Q1383.15 1830.3 1386.21 1834.9 Q1389.28 1839.49 1389.28 1848.24 Q1389.28 1856.96 1386.21 1861.57 Q1383.15 1866.15 1377.34 1866.15 Q1371.53 1866.15 1368.45 1861.57 Q1365.4 1856.96 1365.4 1848.24 Q1365.4 1839.49 1368.45 1834.9 Q1371.53 1830.3 1377.34 1830.3 Z" fill="#000000" fill-rule="evenodd" fill-opacity="1" /><path clip-path="url(#clip910)" d="M1397.5 1859.6 L1402.39 1859.6 L1402.39 1865.48 L1397.5 1865.48 L1397.5 1859.6 Z" fill="#000000" fill-rule="evenodd" fill-opacity="1" /><path clip-path="url(#clip910)" d="M1422.57 1834 Q1418.96 1834 1417.13 1837.57 Q1415.33 1841.11 1415.33 1848.24 Q1415.33 1855.34 1417.13 1858.91 Q1418.96 1862.45 1422.57 1862.45 Q1426.2 1862.45 1428.01 1858.91 Q1429.84 1855.34 1429.84 1848.24 Q1429.84 1841.11 1428.01 1837.57 Q1426.2 1834 1422.57 1834 M1422.57 1830.3 Q1428.38 1830.3 1431.44 1834.9 Q1434.52 1839.49 1434.52 1848.24 Q1434.52 1856.96 1431.44 1861.57 Q1428.38 1866.15 1422.57 1866.15 Q1416.76 1866.15 1413.68 1861.57 Q1410.63 1856.96 1410.63 1848.24 Q1410.63 1839.49 1413.68 1834.9 Q1416.76 1830.3 1422.57 1830.3 Z" fill="#000000" fill-rule="evenodd" fill-opacity="1" /><path clip-path="url(#clip910)" d="M1750.44 1834 Q1746.83 1834 1745 1837.57 Q1743.19 1841.11 1743.19 1848.24 Q1743.19 1855.34 1745 1858.91 Q1746.83 1862.45 1750.44 1862.45 Q1754.07 1862.45 1755.88 1858.91 Q1757.71 1855.34 1757.71 1848.24 Q1757.71 1841.11 1755.88 1837.57 Q1754.07 1834 1750.44 1834 M1750.44 1830.3 Q1756.25 1830.3 1759.31 1834.9 Q1762.38 1839.49 1762.38 1848.24 Q1762.38 1856.96 1759.31 1861.57 Q1756.25 1866.15 1750.44 1866.15 Q1744.63 1866.15 1741.55 1861.57 Q1738.5 1856.96 1738.5 1848.24 Q1738.5 1839.49 1741.55 1834.9 Q1744.63 1830.3 1750.44 1830.3 Z" fill="#000000" fill-rule="evenodd" fill-opacity="1" /><path clip-path="url(#clip910)" d="M1770.6 1859.6 L1775.49 1859.6 L1775.49 1865.48 L1770.6 1865.48 L1770.6 1859.6 Z" fill="#000000" fill-rule="evenodd" fill-opacity="1" /><path clip-path="url(#clip910)" d="M1785.72 1830.92 L1804.07 1830.92 L1804.07 1834.86 L1790 1834.86 L1790 1843.33 Q1791.02 1842.98 1792.04 1842.82 Q1793.06 1842.64 1794.07 1842.64 Q1799.86 1842.64 1803.24 1845.81 Q1806.62 1848.98 1806.62 1854.4 Q1806.62 1859.97 1803.15 1863.08 Q1799.68 1866.15 1793.36 1866.15 Q1791.18 1866.15 1788.91 1865.78 Q1786.67 1865.41 1784.26 1864.67 L1784.26 1859.97 Q1786.34 1861.11 1788.56 1861.66 Q1790.79 1862.22 1793.26 1862.22 Q1797.27 1862.22 1799.61 1860.11 Q1801.94 1858.01 1801.94 1854.4 Q1801.94 1850.78 1799.61 1848.68 Q1797.27 1846.57 1793.26 1846.57 Q1791.39 1846.57 1789.51 1846.99 Q1787.66 1847.4 1785.72 1848.28 L1785.72 1830.92 Z" fill="#000000" fill-rule="evenodd" fill-opacity="1" /><path clip-path="url(#clip910)" d="M2112.31 1861.55 L2119.95 1861.55 L2119.95 1835.18 L2111.64 1836.85 L2111.64 1832.59 L2119.91 1830.92 L2124.58 1830.92 L2124.58 1861.55 L2132.22 1861.55 L2132.22 1865.48 L2112.31 1865.48 L2112.31 1861.55 Z" fill="#000000" fill-rule="evenodd" fill-opacity="1" /><path clip-path="url(#clip910)" d="M2141.67 1859.6 L2146.55 1859.6 L2146.55 1865.48 L2141.67 1865.48 L2141.67 1859.6 Z" fill="#000000" fill-rule="evenodd" fill-opacity="1" /><path clip-path="url(#clip910)" d="M2166.74 1834 Q2163.12 1834 2161.3 1837.57 Q2159.49 1841.11 2159.49 1848.24 Q2159.49 1855.34 2161.3 1858.91 Q2163.12 1862.45 2166.74 1862.45 Q2170.37 1862.45 2172.17 1858.91 Q2174 1855.34 2174 1848.24 Q2174 1841.11 2172.17 1837.57 Q2170.37 1834 2166.74 1834 M2166.74 1830.3 Q2172.55 1830.3 2175.6 1834.9 Q2178.68 1839.49 2178.68 1848.24 Q2178.68 1856.96 2175.6 1861.57 Q2172.55 1866.15 2166.74 1866.15 Q2160.92 1866.15 2157.85 1861.57 Q2154.79 1856.96 2154.79 1848.24 Q2154.79 1839.49 2157.85 1834.9 Q2160.92 1830.3 2166.74 1830.3 Z" fill="#000000" fill-rule="evenodd" fill-opacity="1" /><path clip-path="url(#clip910)" d="M2485.41 1861.55 L2493.05 1861.55 L2493.05 1835.18 L2484.74 1836.85 L2484.74 1832.59 L2493.01 1830.92 L2497.68 1830.92 L2497.68 1861.55 L2505.32 1861.55 L2505.32 1865.48 L2485.41 1865.48 L2485.41 1861.55 Z" fill="#000000" fill-rule="evenodd" fill-opacity="1" /><path clip-path="url(#clip910)" d="M2514.77 1859.6 L2519.65 1859.6 L2519.65 1865.48 L2514.77 1865.48 L2514.77 1859.6 Z" fill="#000000" fill-rule="evenodd" fill-opacity="1" /><path clip-path="url(#clip910)" d="M2529.88 1830.92 L2548.24 1830.92 L2548.24 1834.86 L2534.16 1834.86 L2534.16 1843.33 Q2535.18 1842.98 2536.2 1842.82 Q2537.22 1842.64 2538.24 1842.64 Q2544.03 1842.64 2547.41 1845.81 Q2550.78 1848.98 2550.78 1854.4 Q2550.78 1859.97 2547.31 1863.08 Q2543.84 1866.15 2537.52 1866.15 Q2535.34 1866.15 2533.08 1865.78 Q2530.83 1865.41 2528.42 1864.67 L2528.42 1859.97 Q2530.51 1861.11 2532.73 1861.66 Q2534.95 1862.22 2537.43 1862.22 Q2541.43 1862.22 2543.77 1860.11 Q2546.11 1858.01 2546.11 1854.4 Q2546.11 1850.78 2543.77 1848.68 Q2541.43 1846.57 2537.43 1846.57 Q2535.55 1846.57 2533.68 1846.99 Q2531.83 1847.4 2529.88 1848.28 L2529.88 1830.92 Z" fill="#000000" fill-rule="evenodd" fill-opacity="1" /><polyline clip-path="url(#clip912)" style="stroke:#000000; stroke-linecap:round; stroke-linejoin:round; stroke-width:2; stroke-opacity:0.1; fill:none" points="
  159.154,1437.78 2640.76,1437.78 
  "/>
<polyline clip-path="url(#clip912)" style="stroke:#000000; stroke-linecap:round; stroke-linejoin:round; stroke-width:2; stroke-opacity:0.1; fill:none" points="
  159.154,1035.51 2640.76,1035.51 
  "/>
<polyline clip-path="url(#clip912)" style="stroke:#000000; stroke-linecap:round; stroke-linejoin:round; stroke-width:2; stroke-opacity:0.1; fill:none" points="
  159.154,633.236 2640.76,633.236 
  "/>
<polyline clip-path="url(#clip912)" style="stroke:#000000; stroke-linecap:round; stroke-linejoin:round; stroke-width:2; stroke-opacity:0.1; fill:none" points="
  159.154,230.963 2640.76,230.963 
  "/>
<polyline clip-path="url(#clip910)" style="stroke:#000000; stroke-linecap:round; stroke-linejoin:round; stroke-width:4; stroke-opacity:1; fill:none" points="
  159.154,1800.78 159.154,47.2441 
  "/>
<polyline clip-path="url(#clip910)" style="stroke:#000000; stroke-linecap:round; stroke-linejoin:round; stroke-width:4; stroke-opacity:1; fill:none" points="
  159.154,1437.78 178.052,1437.78 
  "/>
<polyline clip-path="url(#clip910)" style="stroke:#000000; stroke-linecap:round; stroke-linejoin:round; stroke-width:4; stroke-opacity:1; fill:none" points="
  159.154,1035.51 178.052,1035.51 
  "/>
<polyline clip-path="url(#clip910)" style="stroke:#000000; stroke-linecap:round; stroke-linejoin:round; stroke-width:4; stroke-opacity:1; fill:none" points="
  159.154,633.236 178.052,633.236 
  "/>
<polyline clip-path="url(#clip910)" style="stroke:#000000; stroke-linecap:round; stroke-linejoin:round; stroke-width:4; stroke-opacity:1; fill:none" points="
  159.154,230.963 178.052,230.963 
  "/>
<path clip-path="url(#clip910)" d="M61.6585 1423.58 Q58.0475 1423.58 56.2188 1427.14 Q54.4132 1430.69 54.4132 1437.81 Q54.4132 1444.92 56.2188 1448.49 Q58.0475 1452.03 61.6585 1452.03 Q65.2928 1452.03 67.0983 1448.49 Q68.927 1444.92 68.927 1437.81 Q68.927 1430.69 67.0983 1427.14 Q65.2928 1423.58 61.6585 1423.58 M61.6585 1419.88 Q67.4687 1419.88 70.5242 1424.48 Q73.6029 1429.06 73.6029 1437.81 Q73.6029 1446.54 70.5242 1451.15 Q67.4687 1455.73 61.6585 1455.73 Q55.8484 1455.73 52.7697 1451.15 Q49.7142 1446.54 49.7142 1437.81 Q49.7142 1429.06 52.7697 1424.48 Q55.8484 1419.88 61.6585 1419.88 Z" fill="#000000" fill-rule="evenodd" fill-opacity="1" /><path clip-path="url(#clip910)" d="M81.8205 1449.18 L86.7047 1449.18 L86.7047 1455.06 L81.8205 1455.06 L81.8205 1449.18 Z" fill="#000000" fill-rule="evenodd" fill-opacity="1" /><path clip-path="url(#clip910)" d="M106.89 1423.58 Q103.279 1423.58 101.45 1427.14 Q99.6445 1430.69 99.6445 1437.81 Q99.6445 1444.92 101.45 1448.49 Q103.279 1452.03 106.89 1452.03 Q110.524 1452.03 112.33 1448.49 Q114.158 1444.92 114.158 1437.81 Q114.158 1430.69 112.33 1427.14 Q110.524 1423.58 106.89 1423.58 M106.89 1419.88 Q112.7 1419.88 115.755 1424.48 Q118.834 1429.06 118.834 1437.81 Q118.834 1446.54 115.755 1451.15 Q112.7 1455.73 106.89 1455.73 Q101.08 1455.73 98.0009 1451.15 Q94.9454 1446.54 94.9454 1437.81 Q94.9454 1429.06 98.0009 1424.48 Q101.08 1419.88 106.89 1419.88 Z" fill="#000000" fill-rule="evenodd" fill-opacity="1" /><path clip-path="url(#clip910)" d="M62.3067 1021.31 Q58.6956 1021.31 56.8669 1024.87 Q55.0614 1028.41 55.0614 1035.54 Q55.0614 1042.65 56.8669 1046.21 Q58.6956 1049.76 62.3067 1049.76 Q65.9409 1049.76 67.7465 1046.21 Q69.5752 1042.65 69.5752 1035.54 Q69.5752 1028.41 67.7465 1024.87 Q65.9409 1021.31 62.3067 1021.31 M62.3067 1017.6 Q68.1168 1017.6 71.1724 1022.21 Q74.2511 1026.79 74.2511 1035.54 Q74.2511 1044.27 71.1724 1048.88 Q68.1168 1053.46 62.3067 1053.46 Q56.4965 1053.46 53.4178 1048.88 Q50.3623 1044.27 50.3623 1035.54 Q50.3623 1026.79 53.4178 1022.21 Q56.4965 1017.6 62.3067 1017.6 Z" fill="#000000" fill-rule="evenodd" fill-opacity="1" /><path clip-path="url(#clip910)" d="M82.4686 1046.91 L87.3528 1046.91 L87.3528 1052.79 L82.4686 1052.79 L82.4686 1046.91 Z" fill="#000000" fill-rule="evenodd" fill-opacity="1" /><path clip-path="url(#clip910)" d="M111.705 1034.15 Q115.061 1034.87 116.936 1037.14 Q118.834 1039.41 118.834 1042.74 Q118.834 1047.86 115.316 1050.66 Q111.797 1053.46 105.316 1053.46 Q103.14 1053.46 100.825 1053.02 Q98.5333 1052.6 96.0797 1051.75 L96.0797 1047.23 Q98.0241 1048.37 100.339 1048.95 Q102.654 1049.52 105.177 1049.52 Q109.575 1049.52 111.867 1047.79 Q114.181 1046.05 114.181 1042.74 Q114.181 1039.69 112.029 1037.97 Q109.899 1036.24 106.08 1036.24 L102.052 1036.24 L102.052 1032.39 L106.265 1032.39 Q109.714 1032.39 111.543 1031.03 Q113.371 1029.64 113.371 1027.05 Q113.371 1024.39 111.473 1022.97 Q109.598 1021.54 106.08 1021.54 Q104.158 1021.54 101.959 1021.95 Q99.7602 1022.37 97.1213 1023.25 L97.1213 1019.08 Q99.7833 1018.34 102.098 1017.97 Q104.436 1017.6 106.496 1017.6 Q111.82 1017.6 114.922 1020.03 Q118.024 1022.44 118.024 1026.56 Q118.024 1029.43 116.38 1031.42 Q114.737 1033.39 111.705 1034.15 Z" fill="#000000" fill-rule="evenodd" fill-opacity="1" /><path clip-path="url(#clip910)" d="M61.4965 619.034 Q57.8854 619.034 56.0567 622.599 Q54.2512 626.141 54.2512 633.27 Q54.2512 640.377 56.0567 643.941 Q57.8854 647.483 61.4965 647.483 Q65.1307 647.483 66.9363 643.941 Q68.765 640.377 68.765 633.27 Q68.765 626.141 66.9363 622.599 Q65.1307 619.034 61.4965 619.034 M61.4965 615.331 Q67.3067 615.331 70.3622 619.937 Q73.4409 624.52 73.4409 633.27 Q73.4409 641.997 70.3622 646.603 Q67.3067 651.187 61.4965 651.187 Q55.6864 651.187 52.6077 646.603 Q49.5521 641.997 49.5521 633.27 Q49.5521 624.52 52.6077 619.937 Q55.6864 615.331 61.4965 615.331 Z" fill="#000000" fill-rule="evenodd" fill-opacity="1" /><path clip-path="url(#clip910)" d="M81.6584 644.636 L86.5427 644.636 L86.5427 650.516 L81.6584 650.516 L81.6584 644.636 Z" fill="#000000" fill-rule="evenodd" fill-opacity="1" /><path clip-path="url(#clip910)" d="M107.306 631.372 Q104.158 631.372 102.306 633.525 Q100.478 635.678 100.478 639.428 Q100.478 643.154 102.306 645.33 Q104.158 647.483 107.306 647.483 Q110.455 647.483 112.283 645.33 Q114.135 643.154 114.135 639.428 Q114.135 635.678 112.283 633.525 Q110.455 631.372 107.306 631.372 M116.589 616.719 L116.589 620.979 Q114.83 620.145 113.024 619.705 Q111.242 619.266 109.482 619.266 Q104.853 619.266 102.399 622.391 Q99.9685 625.516 99.6213 631.835 Q100.987 629.821 103.047 628.756 Q105.107 627.668 107.584 627.668 Q112.793 627.668 115.802 630.84 Q118.834 633.988 118.834 639.428 Q118.834 644.752 115.686 647.969 Q112.538 651.187 107.306 651.187 Q101.311 651.187 98.1398 646.603 Q94.9685 641.997 94.9685 633.27 Q94.9685 625.076 98.8574 620.215 Q102.746 615.331 109.297 615.331 Q111.056 615.331 112.839 615.678 Q114.644 616.025 116.589 616.719 Z" fill="#000000" fill-rule="evenodd" fill-opacity="1" /><path clip-path="url(#clip910)" d="M61.8437 216.762 Q58.2326 216.762 56.4039 220.327 Q54.5984 223.868 54.5984 230.998 Q54.5984 238.104 56.4039 241.669 Q58.2326 245.211 61.8437 245.211 Q65.478 245.211 67.2835 241.669 Q69.1122 238.104 69.1122 230.998 Q69.1122 223.868 67.2835 220.327 Q65.478 216.762 61.8437 216.762 M61.8437 213.058 Q67.6539 213.058 70.7094 217.665 Q73.7881 222.248 73.7881 230.998 Q73.7881 239.725 70.7094 244.331 Q67.6539 248.915 61.8437 248.915 Q56.0336 248.915 52.9549 244.331 Q49.8993 239.725 49.8993 230.998 Q49.8993 222.248 52.9549 217.665 Q56.0336 213.058 61.8437 213.058 Z" fill="#000000" fill-rule="evenodd" fill-opacity="1" /><path clip-path="url(#clip910)" d="M82.0057 242.364 L86.8899 242.364 L86.8899 248.243 L82.0057 248.243 L82.0057 242.364 Z" fill="#000000" fill-rule="evenodd" fill-opacity="1" /><path clip-path="url(#clip910)" d="M97.2139 247.526 L97.2139 243.266 Q98.9732 244.1 100.779 244.54 Q102.584 244.979 104.32 244.979 Q108.95 244.979 111.38 241.878 Q113.834 238.753 114.181 232.41 Q112.839 234.401 110.779 235.466 Q108.718 236.53 106.218 236.53 Q101.033 236.53 98.0009 233.405 Q94.9917 230.257 94.9917 224.817 Q94.9917 219.493 98.1398 216.276 Q101.288 213.058 106.519 213.058 Q112.515 213.058 115.663 217.665 Q118.834 222.248 118.834 230.998 Q118.834 239.169 114.945 244.053 Q111.08 248.915 104.529 248.915 Q102.769 248.915 100.964 248.567 Q99.1583 248.22 97.2139 247.526 M106.519 232.873 Q109.668 232.873 111.496 230.72 Q113.348 228.567 113.348 224.817 Q113.348 221.091 111.496 218.938 Q109.668 216.762 106.519 216.762 Q103.371 216.762 101.519 218.938 Q99.6907 221.091 99.6907 224.817 Q99.6907 228.567 101.519 230.72 Q103.371 232.873 106.519 232.873 Z" fill="#000000" fill-rule="evenodd" fill-opacity="1" /><polyline clip-path="url(#clip912)" style="stroke:#0000ff; stroke-linecap:round; stroke-linejoin:round; stroke-width:20; stroke-opacity:1; fill:none" points="
  229.388,1437.78 237.009,1424.07 244.63,1410.36 315.098,1283.9 385.565,1158.81 427.913,1084.77 470.261,1011.87 506.066,951.292 541.87,891.84 580.764,828.69 
  619.658,767.2 655.515,712.125 691.372,658.73 729.814,603.491 768.256,550.472 812.795,492.006 857.334,436.916 877.125,413.573 896.915,390.953 916.706,369.071 
  936.497,347.942 971.206,312.751 1005.91,280.001 1043.76,247.157 1081.6,217.384 1119.67,190.608 1157.73,167.085 1178.78,155.501 1199.82,144.939 1220.87,135.408 
  1241.91,126.916 1261.93,119.806 1281.95,113.648 1301.98,108.445 1322,104.202 1342.82,100.812 1363.64,98.4644 1384.46,97.1624 1405.28,96.9066 1440.33,98.8398 
  1475.38,103.735 1496.77,108.174 1518.17,113.709 1539.57,120.336 1560.96,128.049 1600.16,144.975 1639.37,165.479 1675.57,187.543 1711.78,212.558 1748.45,240.845 
  1785.12,272.03 1826.23,310.331 1867.33,352.061 1904.57,392.73 1941.82,436.009 1984.46,488.626 2027.1,544.351 2066.59,598.558 2106.07,655.121 2145,713.036 
  2183.92,772.929 2221.72,832.816 2259.51,894.259 2298.25,958.696 2337,1024.43 2379.45,1097.72 2421.9,1172.11 2483.56,1281.65 2545.22,1392.26 2557.87,1415.02 
  2570.52,1437.78 
  "/>
<polyline clip-path="url(#clip912)" style="stroke:#008000; stroke-linecap:round; stroke-linejoin:round; stroke-width:20; stroke-opacity:0.25; fill:none" points="
  229.388,96.8724 244.63,96.8724 385.565,96.8724 470.261,96.8724 541.87,96.8724 619.658,96.8724 691.372,96.8724 768.256,96.8724 857.334,96.8724 936.497,96.8724 
  1005.91,96.8724 1081.6,96.8724 1157.73,96.8724 1241.91,96.8724 1322,96.8724 1405.28,96.8724 1475.38,96.8724 1560.96,96.8724 1639.37,96.8724 1711.78,96.8724 
  1785.12,96.8724 1867.33,96.8724 1941.82,96.8724 2027.1,96.8724 2106.07,96.8724 2183.92,96.8724 2259.51,96.8724 2337,96.8724 2421.9,96.8724 2545.22,96.8724 
  2570.52,96.8724 
  "/>
<polyline clip-path="url(#clip912)" style="stroke:#008000; stroke-linecap:round; stroke-linejoin:round; stroke-width:20; stroke-opacity:0.25; fill:none" points="
  229.388,1751.15 233.199,1740.4 237.009,1729.68 240.82,1719 244.63,1708.35 279.864,1611.56 315.098,1517.77 350.331,1426.97 385.565,1339.17 427.913,1237.61 
  470.261,1140.38 506.066,1061.55 541.87,985.821 580.764,907.061 619.658,831.955 655.515,765.949 691.372,703.047 729.814,639.059 768.256,578.639 790.526,545.27 
  812.795,513.098 835.065,482.124 857.334,452.347 896.915,402.379 936.497,356.194 971.206,318.806 1005.91,284.328 1043.76,250.052 1081.6,219.233 1119.67,191.72 
  1157.73,167.707 1199.82,145.229 1241.91,127.029 1281.95,113.683 1322,104.209 1363.64,98.4647 1405.28,96.9066 1440.33,98.8403 1475.38,103.74 1496.77,108.19 
  1518.17,113.744 1539.57,120.405 1560.96,128.17 1600.16,145.266 1639.37,166.072 1675.57,188.584 1711.78,214.261 1748.45,243.498 1785.12,275.982 1826.23,316.248 
  1867.33,360.593 1904.57,404.299 1941.82,451.355 1963.14,479.801 1984.46,509.344 2005.78,539.985 2027.1,571.723 2066.59,633.396 2106.07,698.833 2145,767.031 
  2183.92,838.888 2221.72,912.155 2259.51,988.872 2298.25,1071.1 2337,1156.95 2358.22,1205.51 2379.45,1255.16 2400.67,1305.9 2421.9,1357.73 2452.73,1434.96 
  2483.56,1514.48 2514.39,1596.3 2545.22,1680.41 2551.55,1697.95 2557.87,1715.59 2564.2,1733.32 2570.52,1751.15 
  "/>
</svg>
