<?xml version="1.0" encoding="utf-8"?>
<svg xmlns="http://www.w3.org/2000/svg" xmlns:xlink="http://www.w3.org/1999/xlink" width="672" height="480" viewBox="0 0 2688 1920">
<defs>
  <clipPath id="clip440">
    <rect x="0" y="0" width="2688" height="1920"/>
  </clipPath>
</defs>
<path clip-path="url(#clip440)" d="
M0 1920 L2688 1920 L2688 0 L0 0  Z
  " fill="#ffffff" fill-rule="evenodd" fill-opacity="1"/>
<defs>
  <clipPath id="clip441">
    <rect x="537" y="0" width="1883" height="1883"/>
  </clipPath>
</defs>
<path clip-path="url(#clip440)" d="
M173.737 1800.78 L2640.76 1800.78 L2640.76 47.2441 L173.737 47.2441  Z
  " fill="#ffffff" fill-rule="evenodd" fill-opacity="1"/>
<defs>
  <clipPath id="clip442">
    <rect x="173" y="47" width="2468" height="1755"/>
  </clipPath>
</defs>
<polyline clip-path="url(#clip442)" style="stroke:#000000; stroke-linecap:round; stroke-linejoin:round; stroke-width:2; stroke-opacity:0.1; fill:none" points="
  243.559,1800.78 243.559,47.2441 
  "/>
<polyline clip-path="url(#clip442)" style="stroke:#000000; stroke-linecap:round; stroke-linejoin:round; stroke-width:2; stroke-opacity:0.1; fill:none" points="
  631.455,1800.78 631.455,47.2441 
  "/>
<polyline clip-path="url(#clip442)" style="stroke:#000000; stroke-linecap:round; stroke-linejoin:round; stroke-width:2; stroke-opacity:0.1; fill:none" points="
  1019.35,1800.78 1019.35,47.2441 
  "/>
<polyline clip-path="url(#clip442)" style="stroke:#000000; stroke-linecap:round; stroke-linejoin:round; stroke-width:2; stroke-opacity:0.1; fill:none" points="
  1407.25,1800.78 1407.25,47.2441 
  "/>
<polyline clip-path="url(#clip442)" style="stroke:#000000; stroke-linecap:round; stroke-linejoin:round; stroke-width:2; stroke-opacity:0.1; fill:none" points="
  1795.14,1800.78 1795.14,47.2441 
  "/>
<polyline clip-path="url(#clip442)" style="stroke:#000000; stroke-linecap:round; stroke-linejoin:round; stroke-width:2; stroke-opacity:0.1; fill:none" points="
  2183.04,1800.78 2183.04,47.2441 
  "/>
<polyline clip-path="url(#clip442)" style="stroke:#000000; stroke-linecap:round; stroke-linejoin:round; stroke-width:2; stroke-opacity:0.1; fill:none" points="
  2570.93,1800.78 2570.93,47.2441 
  "/>
<polyline clip-path="url(#clip440)" style="stroke:#000000; stroke-linecap:round; stroke-linejoin:round; stroke-width:4; stroke-opacity:1; fill:none" points="
  173.737,1800.78 2640.76,1800.78 
  "/>
<polyline clip-path="url(#clip440)" style="stroke:#000000; stroke-linecap:round; stroke-linejoin:round; stroke-width:4; stroke-opacity:1; fill:none" points="
  243.559,1800.78 243.559,1781.88 
  "/>
<polyline clip-path="url(#clip440)" style="stroke:#000000; stroke-linecap:round; stroke-linejoin:round; stroke-width:4; stroke-opacity:1; fill:none" points="
  631.455,1800.78 631.455,1781.88 
  "/>
<polyline clip-path="url(#clip440)" style="stroke:#000000; stroke-linecap:round; stroke-linejoin:round; stroke-width:4; stroke-opacity:1; fill:none" points="
  1019.35,1800.78 1019.35,1781.88 
  "/>
<polyline clip-path="url(#clip440)" style="stroke:#000000; stroke-linecap:round; stroke-linejoin:round; stroke-width:4; stroke-opacity:1; fill:none" points="
  1407.25,1800.78 1407.25,1781.88 
  "/>
<polyline clip-path="url(#clip440)" style="stroke:#000000; stroke-linecap:round; stroke-linejoin:round; stroke-width:4; stroke-opacity:1; fill:none" points="
  1795.14,1800.78 1795.14,1781.88 
  "/>
<polyline clip-path="url(#clip440)" style="stroke:#000000; stroke-linecap:round; stroke-linejoin:round; stroke-width:4; stroke-opacity:1; fill:none" points="
  2183.04,1800.78 2183.04,1781.88 
  "/>
<polyline clip-path="url(#clip440)" style="stroke:#000000; stroke-linecap:round; stroke-linejoin:round; stroke-width:4; stroke-opacity:1; fill:none" points="
  2570.93,1800.78 2570.93,1781.88 
  "/>
<path clip-path="url(#clip440)" d="M243.559 1834 Q239.948 1834 238.119 1837.57 Q236.313 1841.11 236.313 1848.24 Q236.313 1855.34 238.119 1858.91 Q239.948 1862.45 243.559 1862.45 Q247.193 1862.45 248.998 1858.91 Q250.827 1855.34 250.827 1848.24 Q250.827 1841.11 248.998 1837.57 Q247.193 1834 243.559 1834 M243.559 1830.3 Q249.369 1830.3 252.424 1834.9 Q255.503 1839.49 255.503 1848.24 Q255.503 1856.96 252.424 1861.57 Q249.369 1866.15 243.559 1866.15 Q237.749 1866.15 234.67 1861.57 Q231.614 1856.96 231.614 1848.24 Q231.614 1839.49 234.67 1834.9 Q237.749 1830.3 243.559 1830.3 Z" fill="#000000" fill-rule="evenodd" fill-opacity="1" /><path clip-path="url(#clip440)" d="M621.837 1861.55 L629.476 1861.55 L629.476 1835.18 L621.165 1836.85 L621.165 1832.59 L629.429 1830.92 L634.105 1830.92 L634.105 1861.55 L641.744 1861.55 L641.744 1865.48 L621.837 1865.48 L621.837 1861.55 Z" fill="#000000" fill-rule="evenodd" fill-opacity="1" /><path clip-path="url(#clip440)" d="M1014 1861.55 L1030.32 1861.55 L1030.32 1865.48 L1008.38 1865.48 L1008.38 1861.55 Q1011.04 1858.79 1015.62 1854.16 Q1020.23 1849.51 1021.41 1848.17 Q1023.66 1845.65 1024.54 1843.91 Q1025.44 1842.15 1025.44 1840.46 Q1025.44 1837.71 1023.49 1835.97 Q1021.57 1834.23 1018.47 1834.23 Q1016.27 1834.23 1013.82 1835 Q1011.39 1835.76 1008.61 1837.31 L1008.61 1832.59 Q1011.43 1831.46 1013.89 1830.88 Q1016.34 1830.3 1018.38 1830.3 Q1023.75 1830.3 1026.94 1832.98 Q1030.14 1835.67 1030.14 1840.16 Q1030.14 1842.29 1029.33 1844.21 Q1028.54 1846.11 1026.43 1848.7 Q1025.86 1849.37 1022.75 1852.59 Q1019.65 1855.78 1014 1861.55 Z" fill="#000000" fill-rule="evenodd" fill-opacity="1" /><path clip-path="url(#clip440)" d="M1411.49 1846.85 Q1414.85 1847.57 1416.73 1849.84 Q1418.62 1852.1 1418.62 1855.44 Q1418.62 1860.55 1415.11 1863.35 Q1411.59 1866.15 1405.11 1866.15 Q1402.93 1866.15 1400.61 1865.71 Q1398.32 1865.3 1395.87 1864.44 L1395.87 1859.93 Q1397.81 1861.06 1400.13 1861.64 Q1402.44 1862.22 1404.97 1862.22 Q1409.36 1862.22 1411.66 1860.48 Q1413.97 1858.75 1413.97 1855.44 Q1413.97 1852.38 1411.82 1850.67 Q1409.69 1848.93 1405.87 1848.93 L1401.84 1848.93 L1401.84 1845.09 L1406.05 1845.09 Q1409.5 1845.09 1411.33 1843.72 Q1413.16 1842.34 1413.16 1839.74 Q1413.16 1837.08 1411.26 1835.67 Q1409.39 1834.23 1405.87 1834.23 Q1403.95 1834.23 1401.75 1834.65 Q1399.55 1835.07 1396.91 1835.95 L1396.91 1831.78 Q1399.57 1831.04 1401.89 1830.67 Q1404.23 1830.3 1406.29 1830.3 Q1411.61 1830.3 1414.71 1832.73 Q1417.81 1835.14 1417.81 1839.26 Q1417.81 1842.13 1416.17 1844.12 Q1414.53 1846.09 1411.49 1846.85 Z" fill="#000000" fill-rule="evenodd" fill-opacity="1" /><path clip-path="url(#clip440)" d="M1798.15 1835 L1786.35 1853.45 L1798.15 1853.45 L1798.15 1835 M1796.93 1830.92 L1802.8 1830.92 L1802.8 1853.45 L1807.74 1853.45 L1807.74 1857.34 L1802.8 1857.34 L1802.8 1865.48 L1798.15 1865.48 L1798.15 1857.34 L1782.55 1857.34 L1782.55 1852.82 L1796.93 1830.92 Z" fill="#000000" fill-rule="evenodd" fill-opacity="1" /><path clip-path="url(#clip440)" d="M2173.32 1830.92 L2191.67 1830.92 L2191.67 1834.86 L2177.6 1834.86 L2177.6 1843.33 Q2178.62 1842.98 2179.64 1842.82 Q2180.65 1842.64 2181.67 1842.64 Q2187.46 1842.64 2190.84 1845.81 Q2194.22 1848.98 2194.22 1854.4 Q2194.22 1859.97 2190.75 1863.08 Q2187.27 1866.15 2180.96 1866.15 Q2178.78 1866.15 2176.51 1865.78 Q2174.27 1865.41 2171.86 1864.67 L2171.86 1859.97 Q2173.94 1861.11 2176.16 1861.66 Q2178.39 1862.22 2180.86 1862.22 Q2184.87 1862.22 2187.21 1860.11 Q2189.54 1858.01 2189.54 1854.4 Q2189.54 1850.78 2187.21 1848.68 Q2184.87 1846.57 2180.86 1846.57 Q2178.99 1846.57 2177.11 1846.99 Q2175.26 1847.4 2173.32 1848.28 L2173.32 1830.92 Z" fill="#000000" fill-rule="evenodd" fill-opacity="1" /><path clip-path="url(#clip440)" d="M2571.34 1846.34 Q2568.19 1846.34 2566.34 1848.49 Q2564.51 1850.65 2564.51 1854.4 Q2564.51 1858.12 2566.34 1860.3 Q2568.19 1862.45 2571.34 1862.45 Q2574.49 1862.45 2576.32 1860.3 Q2578.17 1858.12 2578.17 1854.4 Q2578.17 1850.65 2576.32 1848.49 Q2574.49 1846.34 2571.34 1846.34 M2580.62 1831.69 L2580.62 1835.95 Q2578.86 1835.11 2577.06 1834.67 Q2575.27 1834.23 2573.52 1834.23 Q2568.89 1834.23 2566.43 1837.36 Q2564 1840.48 2563.65 1846.8 Q2565.02 1844.79 2567.08 1843.72 Q2569.14 1842.64 2571.62 1842.64 Q2576.83 1842.64 2579.84 1845.81 Q2582.87 1848.96 2582.87 1854.4 Q2582.87 1859.72 2579.72 1862.94 Q2576.57 1866.15 2571.34 1866.15 Q2565.34 1866.15 2562.17 1861.57 Q2559 1856.96 2559 1848.24 Q2559 1840.04 2562.89 1835.18 Q2566.78 1830.3 2573.33 1830.3 Q2575.09 1830.3 2576.87 1830.65 Q2578.68 1830.99 2580.62 1831.69 Z" fill="#000000" fill-rule="evenodd" fill-opacity="1" /><polyline clip-path="url(#clip442)" style="stroke:#000000; stroke-linecap:round; stroke-linejoin:round; stroke-width:2; stroke-opacity:0.1; fill:none" points="
  173.737,1751.15 2640.76,1751.15 
  "/>
<polyline clip-path="url(#clip442)" style="stroke:#000000; stroke-linecap:round; stroke-linejoin:round; stroke-width:2; stroke-opacity:0.1; fill:none" points="
  173.737,1238.2 2640.76,1238.2 
  "/>
<polyline clip-path="url(#clip442)" style="stroke:#000000; stroke-linecap:round; stroke-linejoin:round; stroke-width:2; stroke-opacity:0.1; fill:none" points="
  173.737,725.242 2640.76,725.242 
  "/>
<polyline clip-path="url(#clip442)" style="stroke:#000000; stroke-linecap:round; stroke-linejoin:round; stroke-width:2; stroke-opacity:0.1; fill:none" points="
  173.737,212.287 2640.76,212.287 
  "/>
<polyline clip-path="url(#clip440)" style="stroke:#000000; stroke-linecap:round; stroke-linejoin:round; stroke-width:4; stroke-opacity:1; fill:none" points="
  173.737,1800.78 173.737,47.2441 
  "/>
<polyline clip-path="url(#clip440)" style="stroke:#000000; stroke-linecap:round; stroke-linejoin:round; stroke-width:4; stroke-opacity:1; fill:none" points="
  173.737,1751.15 192.635,1751.15 
  "/>
<polyline clip-path="url(#clip440)" style="stroke:#000000; stroke-linecap:round; stroke-linejoin:round; stroke-width:4; stroke-opacity:1; fill:none" points="
  173.737,1238.2 192.635,1238.2 
  "/>
<polyline clip-path="url(#clip440)" style="stroke:#000000; stroke-linecap:round; stroke-linejoin:round; stroke-width:4; stroke-opacity:1; fill:none" points="
  173.737,725.242 192.635,725.242 
  "/>
<polyline clip-path="url(#clip440)" style="stroke:#000000; stroke-linecap:round; stroke-linejoin:round; stroke-width:4; stroke-opacity:1; fill:none" points="
  173.737,212.287 192.635,212.287 
  "/>
<path clip-path="url(#clip440)" d="M121.473 1736.95 Q117.862 1736.95 116.033 1740.51 Q114.228 1744.06 114.228 1751.19 Q114.228 1758.29 116.033 1761.86 Q117.862 1765.4 121.473 1765.4 Q125.107 1765.4 126.913 1761.86 Q128.742 1758.29 128.742 1751.19 Q128.742 1744.06 126.913 1740.51 Q125.107 1736.95 121.473 1736.95 M121.473 1733.25 Q127.283 1733.25 130.339 1737.85 Q133.417 1742.44 133.417 1751.19 Q133.417 1759.91 130.339 1764.52 Q127.283 1769.1 121.473 1769.1 Q115.663 1769.1 112.584 1764.52 Q109.529 1759.91 109.529 1751.19 Q109.529 1742.44 112.584 1737.85 Q115.663 1733.25 121.473 1733.25 Z" fill="#000000" fill-rule="evenodd" fill-opacity="1" /><path clip-path="url(#clip440)" d="M51.9595 1251.54 L59.5984 1251.54 L59.5984 1225.18 L51.2882 1226.84 L51.2882 1222.58 L59.5521 1220.92 L64.228 1220.92 L64.228 1251.54 L71.8668 1251.54 L71.8668 1255.48 L51.9595 1255.48 L51.9595 1251.54 Z" fill="#000000" fill-rule="evenodd" fill-opacity="1" /><path clip-path="url(#clip440)" d="M91.3112 1224 Q87.7001 1224 85.8714 1227.56 Q84.0658 1231.1 84.0658 1238.23 Q84.0658 1245.34 85.8714 1248.9 Q87.7001 1252.44 91.3112 1252.44 Q94.9454 1252.44 96.7509 1248.9 Q98.5796 1245.34 98.5796 1238.23 Q98.5796 1231.1 96.7509 1227.56 Q94.9454 1224 91.3112 1224 M91.3112 1220.29 Q97.1213 1220.29 100.177 1224.9 Q103.256 1229.48 103.256 1238.23 Q103.256 1246.96 100.177 1251.56 Q97.1213 1256.15 91.3112 1256.15 Q85.501 1256.15 82.4223 1251.56 Q79.3668 1246.96 79.3668 1238.23 Q79.3668 1229.48 82.4223 1224.9 Q85.501 1220.29 91.3112 1220.29 Z" fill="#000000" fill-rule="evenodd" fill-opacity="1" /><path clip-path="url(#clip440)" d="M121.473 1224 Q117.862 1224 116.033 1227.56 Q114.228 1231.1 114.228 1238.23 Q114.228 1245.34 116.033 1248.9 Q117.862 1252.44 121.473 1252.44 Q125.107 1252.44 126.913 1248.9 Q128.742 1245.34 128.742 1238.23 Q128.742 1231.1 126.913 1227.56 Q125.107 1224 121.473 1224 M121.473 1220.29 Q127.283 1220.29 130.339 1224.9 Q133.417 1229.48 133.417 1238.23 Q133.417 1246.96 130.339 1251.56 Q127.283 1256.15 121.473 1256.15 Q115.663 1256.15 112.584 1251.56 Q109.529 1246.96 109.529 1238.23 Q109.529 1229.48 112.584 1224.9 Q115.663 1220.29 121.473 1220.29 Z" fill="#000000" fill-rule="evenodd" fill-opacity="1" /><path clip-path="url(#clip440)" d="M55.1771 738.587 L71.4965 738.587 L71.4965 742.522 L49.5521 742.522 L49.5521 738.587 Q52.2141 735.832 56.7975 731.202 Q61.4039 726.55 62.5845 725.207 Q64.8298 722.684 65.7094 720.948 Q66.6122 719.189 66.6122 717.499 Q66.6122 714.744 64.6678 713.008 Q62.7465 711.272 59.6447 711.272 Q57.4456 711.272 54.9919 712.036 Q52.5614 712.8 49.7836 714.351 L49.7836 709.628 Q52.6077 708.494 55.0614 707.916 Q57.515 707.337 59.5521 707.337 Q64.9224 707.337 68.1168 710.022 Q71.3113 712.707 71.3113 717.198 Q71.3113 719.327 70.5011 721.249 Q69.7141 723.147 67.6076 725.739 Q67.0289 726.411 63.927 729.628 Q60.8252 732.823 55.1771 738.587 Z" fill="#000000" fill-rule="evenodd" fill-opacity="1" /><path clip-path="url(#clip440)" d="M91.3112 711.04 Q87.7001 711.04 85.8714 714.605 Q84.0658 718.147 84.0658 725.277 Q84.0658 732.383 85.8714 735.948 Q87.7001 739.489 91.3112 739.489 Q94.9454 739.489 96.7509 735.948 Q98.5796 732.383 98.5796 725.277 Q98.5796 718.147 96.7509 714.605 Q94.9454 711.04 91.3112 711.04 M91.3112 707.337 Q97.1213 707.337 100.177 711.943 Q103.256 716.527 103.256 725.277 Q103.256 734.003 100.177 738.61 Q97.1213 743.193 91.3112 743.193 Q85.501 743.193 82.4223 738.61 Q79.3668 734.003 79.3668 725.277 Q79.3668 716.527 82.4223 711.943 Q85.501 707.337 91.3112 707.337 Z" fill="#000000" fill-rule="evenodd" fill-opacity="1" /><path clip-path="url(#clip440)" d="M121.473 711.04 Q117.862 711.04 116.033 714.605 Q114.228 718.147 114.228 725.277 Q114.228 732.383 116.033 735.948 Q117.862 739.489 121.473 739.489 Q125.107 739.489 126.913 735.948 Q128.742 732.383 128.742 725.277 Q128.742 718.147 126.913 714.605 Q125.107 711.04 121.473 711.04 M121.473 707.337 Q127.283 707.337 130.339 711.943 Q133.417 716.527 133.417 725.277 Q133.417 734.003 130.339 738.61 Q127.283 743.193 121.473 743.193 Q115.663 743.193 112.584 738.61 Q109.529 734.003 109.529 725.277 Q109.529 716.527 112.584 711.943 Q115.663 707.337 121.473 707.337 Z" fill="#000000" fill-rule="evenodd" fill-opacity="1" /><path clip-path="url(#clip440)" d="M65.3159 210.933 Q68.6724 211.651 70.5474 213.919 Q72.4455 216.188 72.4455 219.521 Q72.4455 224.637 68.927 227.438 Q65.4085 230.239 58.9271 230.239 Q56.7512 230.239 54.4364 229.799 Q52.1447 229.382 49.691 228.526 L49.691 224.012 Q51.6354 225.146 53.9503 225.725 Q56.2651 226.303 58.7882 226.303 Q63.1863 226.303 65.478 224.567 Q67.7928 222.831 67.7928 219.521 Q67.7928 216.465 65.64 214.752 Q63.5104 213.016 59.691 213.016 L55.6632 213.016 L55.6632 209.174 L59.8761 209.174 Q63.3252 209.174 65.1539 207.808 Q66.9826 206.419 66.9826 203.827 Q66.9826 201.165 65.0845 199.753 Q63.2095 198.317 59.691 198.317 Q57.7697 198.317 55.5706 198.734 Q53.3715 199.151 50.7327 200.03 L50.7327 195.864 Q53.3947 195.123 55.7095 194.753 Q58.0475 194.382 60.1076 194.382 Q65.4317 194.382 68.5335 196.813 Q71.6353 199.22 71.6353 203.341 Q71.6353 206.211 69.9918 208.202 Q68.3483 210.169 65.3159 210.933 Z" fill="#000000" fill-rule="evenodd" fill-opacity="1" /><path clip-path="url(#clip440)" d="M91.3112 198.086 Q87.7001 198.086 85.8714 201.651 Q84.0658 205.192 84.0658 212.322 Q84.0658 219.428 85.8714 222.993 Q87.7001 226.535 91.3112 226.535 Q94.9454 226.535 96.7509 222.993 Q98.5796 219.428 98.5796 212.322 Q98.5796 205.192 96.7509 201.651 Q94.9454 198.086 91.3112 198.086 M91.3112 194.382 Q97.1213 194.382 100.177 198.989 Q103.256 203.572 103.256 212.322 Q103.256 221.049 100.177 225.655 Q97.1213 230.239 91.3112 230.239 Q85.501 230.239 82.4223 225.655 Q79.3668 221.049 79.3668 212.322 Q79.3668 203.572 82.4223 198.989 Q85.501 194.382 91.3112 194.382 Z" fill="#000000" fill-rule="evenodd" fill-opacity="1" /><path clip-path="url(#clip440)" d="M121.473 198.086 Q117.862 198.086 116.033 201.651 Q114.228 205.192 114.228 212.322 Q114.228 219.428 116.033 222.993 Q117.862 226.535 121.473 226.535 Q125.107 226.535 126.913 222.993 Q128.742 219.428 128.742 212.322 Q128.742 205.192 126.913 201.651 Q125.107 198.086 121.473 198.086 M121.473 194.382 Q127.283 194.382 130.339 198.989 Q133.417 203.572 133.417 212.322 Q133.417 221.049 130.339 225.655 Q127.283 230.239 121.473 230.239 Q115.663 230.239 112.584 225.655 Q109.529 221.049 109.529 212.322 Q109.529 203.572 112.584 198.989 Q115.663 194.382 121.473 194.382 Z" fill="#000000" fill-rule="evenodd" fill-opacity="1" /><polyline clip-path="url(#clip442)" style="stroke:#009af9; stroke-linecap:round; stroke-linejoin:round; stroke-width:4; stroke-opacity:1; fill:none" points="
  243.559,1751.15 258.711,1739.13 398.818,1627.96 483.016,1561.16 554.205,1504.67 631.535,1443.31 702.827,1386.75 779.26,1326.1 867.815,1255.84 946.512,1193.4 
  1015.52,1138.64 1090.76,1078.95 1166.45,1018.89 1250.13,952.496 1329.75,889.321 1350.45,872.9 1371.14,856.478 1391.84,840.056 1412.54,825.734 1447.38,811.91 
  1482.23,798.087 1524.77,781.21 1567.31,764.333 1586.79,756.602 1606.28,745.846 1625.76,726.521 1645.25,707.195 1681.24,671.498 1717.23,635.801 1735.46,617.721 
  1753.69,599.641 1771.92,581.561 1790.15,563.481 1795.26,558.532 1800.37,558.532 1805.48,558.532 1810.58,558.532 1820.8,558.532 1831.01,558.532 1851.44,558.532 
  1871.87,558.532 1908.9,558.532 1945.93,558.532 1967.12,558.532 1988.32,558.532 1998.92,550.736 2009.51,542.327 2020.11,533.918 2030.71,525.509 2069.96,494.365 
  2109.21,463.222 2186.61,401.813 2261.75,342.191 2338.78,281.071 2423.18,214.106 2545.78,116.829 2570.93,96.8724 
  "/>
<path clip-path="url(#clip440)" d="
M2231.98 209.375 L2558.52 209.375 L2558.52 105.695 L2231.98 105.695  Z
  " fill="#ffffff" fill-rule="evenodd" fill-opacity="1"/>
<polyline clip-path="url(#clip440)" style="stroke:#000000; stroke-linecap:round; stroke-linejoin:round; stroke-width:4; stroke-opacity:1; fill:none" points="
  2231.98,209.375 2558.52,209.375 2558.52,105.695 2231.98,105.695 2231.98,209.375 
  "/>
<polyline clip-path="url(#clip440)" style="stroke:#009af9; stroke-linecap:round; stroke-linejoin:round; stroke-width:4; stroke-opacity:1; fill:none" points="
  2259.39,157.535 2423.86,157.535 
  "/>
<path clip-path="url(#clip440)" d="M2465.11 177.223 Q2463.31 181.852 2461.59 183.264 Q2459.88 184.676 2457.01 184.676 L2453.61 184.676 L2453.61 181.112 L2456.11 181.112 Q2457.87 181.112 2458.84 180.278 Q2459.81 179.445 2460.99 176.343 L2461.76 174.399 L2451.27 148.889 L2455.78 148.889 L2463.88 169.167 L2471.99 148.889 L2476.5 148.889 L2465.11 177.223 Z" fill="#000000" fill-rule="evenodd" fill-opacity="1" /><path clip-path="url(#clip440)" d="M2483.79 170.88 L2491.43 170.88 L2491.43 144.515 L2483.12 146.181 L2483.12 141.922 L2491.38 140.255 L2496.06 140.255 L2496.06 170.88 L2503.7 170.88 L2503.7 174.815 L2483.79 174.815 L2483.79 170.88 Z" fill="#000000" fill-rule="evenodd" fill-opacity="1" /></svg>
