<?xml version="1.0" encoding="utf-8"?>
<svg xmlns="http://www.w3.org/2000/svg" xmlns:xlink="http://www.w3.org/1999/xlink" width="672" height="480" viewBox="0 0 2688 1920">
<defs>
  <clipPath id="clip800">
    <rect x="0" y="0" width="2688" height="1920"/>
  </clipPath>
</defs>
<path clip-path="url(#clip800)" d="
M0 1920 L2688 1920 L2688 0 L0 0  Z
  " fill="#ffffff" fill-rule="evenodd" fill-opacity="1"/>
<defs>
  <clipPath id="clip801">
    <rect x="537" y="0" width="1883" height="1883"/>
  </clipPath>
</defs>
<path clip-path="url(#clip800)" d="
M197.302 1800.78 L2640.76 1800.78 L2640.76 47.2441 L197.302 47.2441  Z
  " fill="#ffffff" fill-rule="evenodd" fill-opacity="1"/>
<defs>
  <clipPath id="clip802">
    <rect x="197" y="47" width="2444" height="1755"/>
  </clipPath>
</defs>
<polyline clip-path="url(#clip802)" style="stroke:#000000; stroke-linecap:round; stroke-linejoin:round; stroke-width:2; stroke-opacity:0.1; fill:none" points="
  496.971,1800.78 496.971,47.2441 
  "/>
<polyline clip-path="url(#clip802)" style="stroke:#000000; stroke-linecap:round; stroke-linejoin:round; stroke-width:2; stroke-opacity:0.1; fill:none" points="
  958,1800.78 958,47.2441 
  "/>
<polyline clip-path="url(#clip802)" style="stroke:#000000; stroke-linecap:round; stroke-linejoin:round; stroke-width:2; stroke-opacity:0.1; fill:none" points="
  1419.03,1800.78 1419.03,47.2441 
  "/>
<polyline clip-path="url(#clip802)" style="stroke:#000000; stroke-linecap:round; stroke-linejoin:round; stroke-width:2; stroke-opacity:0.1; fill:none" points="
  1880.06,1800.78 1880.06,47.2441 
  "/>
<polyline clip-path="url(#clip802)" style="stroke:#000000; stroke-linecap:round; stroke-linejoin:round; stroke-width:2; stroke-opacity:0.1; fill:none" points="
  2341.09,1800.78 2341.09,47.2441 
  "/>
<polyline clip-path="url(#clip800)" style="stroke:#000000; stroke-linecap:round; stroke-linejoin:round; stroke-width:4; stroke-opacity:1; fill:none" points="
  197.302,1800.78 2640.76,1800.78 
  "/>
<polyline clip-path="url(#clip800)" style="stroke:#000000; stroke-linecap:round; stroke-linejoin:round; stroke-width:4; stroke-opacity:1; fill:none" points="
  496.971,1800.78 496.971,1781.88 
  "/>
<polyline clip-path="url(#clip800)" style="stroke:#000000; stroke-linecap:round; stroke-linejoin:round; stroke-width:4; stroke-opacity:1; fill:none" points="
  958,1800.78 958,1781.88 
  "/>
<polyline clip-path="url(#clip800)" style="stroke:#000000; stroke-linecap:round; stroke-linejoin:round; stroke-width:4; stroke-opacity:1; fill:none" points="
  1419.03,1800.78 1419.03,1781.88 
  "/>
<polyline clip-path="url(#clip800)" style="stroke:#000000; stroke-linecap:round; stroke-linejoin:round; stroke-width:4; stroke-opacity:1; fill:none" points="
  1880.06,1800.78 1880.06,1781.88 
  "/>
<polyline clip-path="url(#clip800)" style="stroke:#000000; stroke-linecap:round; stroke-linejoin:round; stroke-width:4; stroke-opacity:1; fill:none" points="
  2341.09,1800.78 2341.09,1781.88 
  "/>
<path clip-path="url(#clip800)" d="M465.872 1848.65 L495.547 1848.65 L495.547 1852.59 L465.872 1852.59 L465.872 1848.65 Z" fill="#000000" fill-rule="evenodd" fill-opacity="1" /><path clip-path="url(#clip800)" d="M518.487 1835 L506.682 1853.45 L518.487 1853.45 L518.487 1835 M517.26 1830.92 L523.14 1830.92 L523.14 1853.45 L528.07 1853.45 L528.07 1857.34 L523.14 1857.34 L523.14 1865.48 L518.487 1865.48 L518.487 1857.34 L502.885 1857.34 L502.885 1852.82 L517.26 1830.92 Z" fill="#000000" fill-rule="evenodd" fill-opacity="1" /><path clip-path="url(#clip800)" d="M927.942 1848.65 L957.618 1848.65 L957.618 1852.59 L927.942 1852.59 L927.942 1848.65 Z" fill="#000000" fill-rule="evenodd" fill-opacity="1" /><path clip-path="url(#clip800)" d="M971.738 1861.55 L988.058 1861.55 L988.058 1865.48 L966.113 1865.48 L966.113 1861.55 Q968.775 1858.79 973.359 1854.16 Q977.965 1849.51 979.146 1848.17 Q981.391 1845.65 982.271 1843.91 Q983.173 1842.15 983.173 1840.46 Q983.173 1837.71 981.229 1835.97 Q979.308 1834.23 976.206 1834.23 Q974.007 1834.23 971.553 1835 Q969.123 1835.76 966.345 1837.31 L966.345 1832.59 Q969.169 1831.46 971.623 1830.88 Q974.076 1830.3 976.113 1830.3 Q981.484 1830.3 984.678 1832.98 Q987.873 1835.67 987.873 1840.16 Q987.873 1842.29 987.062 1844.21 Q986.275 1846.11 984.169 1848.7 Q983.59 1849.37 980.488 1852.59 Q977.386 1855.78 971.738 1861.55 Z" fill="#000000" fill-rule="evenodd" fill-opacity="1" /><path clip-path="url(#clip800)" d="M1419.03 1834 Q1415.42 1834 1413.59 1837.57 Q1411.78 1841.11 1411.78 1848.24 Q1411.78 1855.34 1413.59 1858.91 Q1415.42 1862.45 1419.03 1862.45 Q1422.66 1862.45 1424.47 1858.91 Q1426.3 1855.34 1426.3 1848.24 Q1426.3 1841.11 1424.47 1837.57 Q1422.66 1834 1419.03 1834 M1419.03 1830.3 Q1424.84 1830.3 1427.89 1834.9 Q1430.97 1839.49 1430.97 1848.24 Q1430.97 1856.96 1427.89 1861.57 Q1424.84 1866.15 1419.03 1866.15 Q1413.22 1866.15 1410.14 1861.57 Q1407.08 1856.96 1407.08 1848.24 Q1407.08 1839.49 1410.14 1834.9 Q1413.22 1830.3 1419.03 1830.3 Z" fill="#000000" fill-rule="evenodd" fill-opacity="1" /><path clip-path="url(#clip800)" d="M1874.71 1861.55 L1891.03 1861.55 L1891.03 1865.48 L1869.09 1865.48 L1869.09 1861.55 Q1871.75 1858.79 1876.33 1854.16 Q1880.94 1849.51 1882.12 1848.17 Q1884.36 1845.65 1885.24 1843.91 Q1886.15 1842.15 1886.15 1840.46 Q1886.15 1837.71 1884.2 1835.97 Q1882.28 1834.23 1879.18 1834.23 Q1876.98 1834.23 1874.53 1835 Q1872.1 1835.76 1869.32 1837.31 L1869.32 1832.59 Q1872.14 1831.46 1874.6 1830.88 Q1877.05 1830.3 1879.09 1830.3 Q1884.46 1830.3 1887.65 1832.98 Q1890.85 1835.67 1890.85 1840.16 Q1890.85 1842.29 1890.03 1844.21 Q1889.25 1846.11 1887.14 1848.7 Q1886.56 1849.37 1883.46 1852.59 Q1880.36 1855.78 1874.71 1861.55 Z" fill="#000000" fill-rule="evenodd" fill-opacity="1" /><path clip-path="url(#clip800)" d="M2344.1 1835 L2332.29 1853.45 L2344.1 1853.45 L2344.1 1835 M2342.87 1830.92 L2348.75 1830.92 L2348.75 1853.45 L2353.68 1853.45 L2353.68 1857.34 L2348.75 1857.34 L2348.75 1865.48 L2344.1 1865.48 L2344.1 1857.34 L2328.49 1857.34 L2328.49 1852.82 L2342.87 1830.92 Z" fill="#000000" fill-rule="evenodd" fill-opacity="1" /><polyline clip-path="url(#clip802)" style="stroke:#000000; stroke-linecap:round; stroke-linejoin:round; stroke-width:2; stroke-opacity:0.1; fill:none" points="
  197.302,1718.28 2640.76,1718.28 
  "/>
<polyline clip-path="url(#clip802)" style="stroke:#000000; stroke-linecap:round; stroke-linejoin:round; stroke-width:2; stroke-opacity:0.1; fill:none" points="
  197.302,1371.67 2640.76,1371.67 
  "/>
<polyline clip-path="url(#clip802)" style="stroke:#000000; stroke-linecap:round; stroke-linejoin:round; stroke-width:2; stroke-opacity:0.1; fill:none" points="
  197.302,1025.06 2640.76,1025.06 
  "/>
<polyline clip-path="url(#clip802)" style="stroke:#000000; stroke-linecap:round; stroke-linejoin:round; stroke-width:2; stroke-opacity:0.1; fill:none" points="
  197.302,678.457 2640.76,678.457 
  "/>
<polyline clip-path="url(#clip802)" style="stroke:#000000; stroke-linecap:round; stroke-linejoin:round; stroke-width:2; stroke-opacity:0.1; fill:none" points="
  197.302,331.85 2640.76,331.85 
  "/>
<polyline clip-path="url(#clip800)" style="stroke:#000000; stroke-linecap:round; stroke-linejoin:round; stroke-width:4; stroke-opacity:1; fill:none" points="
  197.302,1800.78 197.302,47.2441 
  "/>
<polyline clip-path="url(#clip800)" style="stroke:#000000; stroke-linecap:round; stroke-linejoin:round; stroke-width:4; stroke-opacity:1; fill:none" points="
  197.302,1718.28 216.2,1718.28 
  "/>
<polyline clip-path="url(#clip800)" style="stroke:#000000; stroke-linecap:round; stroke-linejoin:round; stroke-width:4; stroke-opacity:1; fill:none" points="
  197.302,1371.67 216.2,1371.67 
  "/>
<polyline clip-path="url(#clip800)" style="stroke:#000000; stroke-linecap:round; stroke-linejoin:round; stroke-width:4; stroke-opacity:1; fill:none" points="
  197.302,1025.06 216.2,1025.06 
  "/>
<polyline clip-path="url(#clip800)" style="stroke:#000000; stroke-linecap:round; stroke-linejoin:round; stroke-width:4; stroke-opacity:1; fill:none" points="
  197.302,678.457 216.2,678.457 
  "/>
<polyline clip-path="url(#clip800)" style="stroke:#000000; stroke-linecap:round; stroke-linejoin:round; stroke-width:4; stroke-opacity:1; fill:none" points="
  197.302,331.85 216.2,331.85 
  "/>
<path clip-path="url(#clip800)" d="M49.5521 1718.73 L79.2279 1718.73 L79.2279 1722.66 L49.5521 1722.66 L49.5521 1718.73 Z" fill="#000000" fill-rule="evenodd" fill-opacity="1" /><path clip-path="url(#clip800)" d="M99.3204 1704.07 Q95.7093 1704.07 93.8806 1707.64 Q92.075 1711.18 92.075 1718.31 Q92.075 1725.42 93.8806 1728.98 Q95.7093 1732.52 99.3204 1732.52 Q102.955 1732.52 104.76 1728.98 Q106.589 1725.42 106.589 1718.31 Q106.589 1711.18 104.76 1707.64 Q102.955 1704.07 99.3204 1704.07 M99.3204 1700.37 Q105.131 1700.37 108.186 1704.98 Q111.265 1709.56 111.265 1718.31 Q111.265 1727.04 108.186 1731.64 Q105.131 1736.23 99.3204 1736.23 Q93.5102 1736.23 90.4315 1731.64 Q87.376 1727.04 87.376 1718.31 Q87.376 1709.56 90.4315 1704.98 Q93.5102 1700.37 99.3204 1700.37 Z" fill="#000000" fill-rule="evenodd" fill-opacity="1" /><path clip-path="url(#clip800)" d="M119.482 1729.68 L124.367 1729.68 L124.367 1735.56 L119.482 1735.56 L119.482 1729.68 Z" fill="#000000" fill-rule="evenodd" fill-opacity="1" /><path clip-path="url(#clip800)" d="M147.399 1705.07 L135.593 1723.52 L147.399 1723.52 L147.399 1705.07 M146.172 1701 L152.052 1701 L152.052 1723.52 L156.982 1723.52 L156.982 1727.41 L152.052 1727.41 L152.052 1735.56 L147.399 1735.56 L147.399 1727.41 L131.797 1727.41 L131.797 1722.89 L146.172 1701 Z" fill="#000000" fill-rule="evenodd" fill-opacity="1" /><path clip-path="url(#clip800)" d="M51.6354 1372.12 L81.3112 1372.12 L81.3112 1376.06 L51.6354 1376.06 L51.6354 1372.12 Z" fill="#000000" fill-rule="evenodd" fill-opacity="1" /><path clip-path="url(#clip800)" d="M101.404 1357.47 Q97.7926 1357.47 95.9639 1361.03 Q94.1584 1364.57 94.1584 1371.7 Q94.1584 1378.81 95.9639 1382.38 Q97.7926 1385.92 101.404 1385.92 Q105.038 1385.92 106.843 1382.38 Q108.672 1378.81 108.672 1371.7 Q108.672 1364.57 106.843 1361.03 Q105.038 1357.47 101.404 1357.47 M101.404 1353.76 Q107.214 1353.76 110.269 1358.37 Q113.348 1362.95 113.348 1371.7 Q113.348 1380.43 110.269 1385.04 Q107.214 1389.62 101.404 1389.62 Q95.5935 1389.62 92.5149 1385.04 Q89.4593 1380.43 89.4593 1371.7 Q89.4593 1362.95 92.5149 1358.37 Q95.5935 1353.76 101.404 1353.76 Z" fill="#000000" fill-rule="evenodd" fill-opacity="1" /><path clip-path="url(#clip800)" d="M121.566 1383.07 L126.45 1383.07 L126.45 1388.95 L121.566 1388.95 L121.566 1383.07 Z" fill="#000000" fill-rule="evenodd" fill-opacity="1" /><path clip-path="url(#clip800)" d="M140.663 1385.01 L156.982 1385.01 L156.982 1388.95 L135.038 1388.95 L135.038 1385.01 Q137.7 1382.26 142.283 1377.63 Q146.89 1372.98 148.07 1371.63 Q150.315 1369.11 151.195 1367.38 Q152.098 1365.62 152.098 1363.93 Q152.098 1361.17 150.153 1359.44 Q148.232 1357.7 145.13 1357.7 Q142.931 1357.7 140.478 1358.46 Q138.047 1359.23 135.269 1360.78 L135.269 1356.06 Q138.093 1354.92 140.547 1354.34 Q143.001 1353.76 145.038 1353.76 Q150.408 1353.76 153.602 1356.45 Q156.797 1359.14 156.797 1363.63 Q156.797 1365.76 155.987 1367.68 Q155.2 1369.57 153.093 1372.17 Q152.515 1372.84 149.413 1376.06 Q146.311 1379.25 140.663 1385.01 Z" fill="#000000" fill-rule="evenodd" fill-opacity="1" /><path clip-path="url(#clip800)" d="M99.8065 1010.86 Q96.1954 1010.86 94.3667 1014.43 Q92.5612 1017.97 92.5612 1025.1 Q92.5612 1032.2 94.3667 1035.77 Q96.1954 1039.31 99.8065 1039.31 Q103.441 1039.31 105.246 1035.77 Q107.075 1032.2 107.075 1025.1 Q107.075 1017.97 105.246 1014.43 Q103.441 1010.86 99.8065 1010.86 M99.8065 1007.16 Q105.617 1007.16 108.672 1011.76 Q111.751 1016.35 111.751 1025.1 Q111.751 1033.82 108.672 1038.43 Q105.617 1043.01 99.8065 1043.01 Q93.9963 1043.01 90.9176 1038.43 Q87.8621 1033.82 87.8621 1025.1 Q87.8621 1016.35 90.9176 1011.76 Q93.9963 1007.16 99.8065 1007.16 Z" fill="#000000" fill-rule="evenodd" fill-opacity="1" /><path clip-path="url(#clip800)" d="M119.968 1036.46 L124.853 1036.46 L124.853 1042.34 L119.968 1042.34 L119.968 1036.46 Z" fill="#000000" fill-rule="evenodd" fill-opacity="1" /><path clip-path="url(#clip800)" d="M145.038 1010.86 Q141.427 1010.86 139.598 1014.43 Q137.792 1017.97 137.792 1025.1 Q137.792 1032.2 139.598 1035.77 Q141.427 1039.31 145.038 1039.31 Q148.672 1039.31 150.478 1035.77 Q152.306 1032.2 152.306 1025.1 Q152.306 1017.97 150.478 1014.43 Q148.672 1010.86 145.038 1010.86 M145.038 1007.16 Q150.848 1007.16 153.903 1011.76 Q156.982 1016.35 156.982 1025.1 Q156.982 1033.82 153.903 1038.43 Q150.848 1043.01 145.038 1043.01 Q139.228 1043.01 136.149 1038.43 Q133.093 1033.82 133.093 1025.1 Q133.093 1016.35 136.149 1011.76 Q139.228 1007.16 145.038 1007.16 Z" fill="#000000" fill-rule="evenodd" fill-opacity="1" /><path clip-path="url(#clip800)" d="M101.404 664.256 Q97.7926 664.256 95.9639 667.82 Q94.1584 671.362 94.1584 678.492 Q94.1584 685.598 95.9639 689.163 Q97.7926 692.704 101.404 692.704 Q105.038 692.704 106.843 689.163 Q108.672 685.598 108.672 678.492 Q108.672 671.362 106.843 667.82 Q105.038 664.256 101.404 664.256 M101.404 660.552 Q107.214 660.552 110.269 665.158 Q113.348 669.742 113.348 678.492 Q113.348 687.218 110.269 691.825 Q107.214 696.408 101.404 696.408 Q95.5935 696.408 92.5149 691.825 Q89.4593 687.218 89.4593 678.492 Q89.4593 669.742 92.5149 665.158 Q95.5935 660.552 101.404 660.552 Z" fill="#000000" fill-rule="evenodd" fill-opacity="1" /><path clip-path="url(#clip800)" d="M121.566 689.857 L126.45 689.857 L126.45 695.737 L121.566 695.737 L121.566 689.857 Z" fill="#000000" fill-rule="evenodd" fill-opacity="1" /><path clip-path="url(#clip800)" d="M140.663 691.802 L156.982 691.802 L156.982 695.737 L135.038 695.737 L135.038 691.802 Q137.7 689.047 142.283 684.417 Q146.89 679.765 148.07 678.422 Q150.315 675.899 151.195 674.163 Q152.098 672.404 152.098 670.714 Q152.098 667.959 150.153 666.223 Q148.232 664.487 145.13 664.487 Q142.931 664.487 140.478 665.251 Q138.047 666.015 135.269 667.566 L135.269 662.844 Q138.093 661.709 140.547 661.131 Q143.001 660.552 145.038 660.552 Q150.408 660.552 153.602 663.237 Q156.797 665.922 156.797 670.413 Q156.797 672.543 155.987 674.464 Q155.2 676.362 153.093 678.955 Q152.515 679.626 149.413 682.843 Q146.311 686.038 140.663 691.802 Z" fill="#000000" fill-rule="evenodd" fill-opacity="1" /><path clip-path="url(#clip800)" d="M99.3204 317.649 Q95.7093 317.649 93.8806 321.214 Q92.075 324.756 92.075 331.885 Q92.075 338.992 93.8806 342.556 Q95.7093 346.098 99.3204 346.098 Q102.955 346.098 104.76 342.556 Q106.589 338.992 106.589 331.885 Q106.589 324.756 104.76 321.214 Q102.955 317.649 99.3204 317.649 M99.3204 313.945 Q105.131 313.945 108.186 318.552 Q111.265 323.135 111.265 331.885 Q111.265 340.612 108.186 345.218 Q105.131 349.802 99.3204 349.802 Q93.5102 349.802 90.4315 345.218 Q87.376 340.612 87.376 331.885 Q87.376 323.135 90.4315 318.552 Q93.5102 313.945 99.3204 313.945 Z" fill="#000000" fill-rule="evenodd" fill-opacity="1" /><path clip-path="url(#clip800)" d="M119.482 343.251 L124.367 343.251 L124.367 349.13 L119.482 349.13 L119.482 343.251 Z" fill="#000000" fill-rule="evenodd" fill-opacity="1" /><path clip-path="url(#clip800)" d="M147.399 318.645 L135.593 337.094 L147.399 337.094 L147.399 318.645 M146.172 314.57 L152.052 314.57 L152.052 337.094 L156.982 337.094 L156.982 340.982 L152.052 340.982 L152.052 349.13 L147.399 349.13 L147.399 340.982 L131.797 340.982 L131.797 336.469 L146.172 314.57 Z" fill="#000000" fill-rule="evenodd" fill-opacity="1" /><polyline clip-path="url(#clip802)" style="stroke:#009af9; stroke-linecap:round; stroke-linejoin:round; stroke-width:4; stroke-opacity:1; fill:none" points="
  266.456,417.183 270.208,408.358 273.96,400.347 277.712,393.158 281.464,386.798 290.137,375.296 298.81,368.297 303.147,366.491 307.483,365.813 311.82,366.259 
  316.156,367.826 320.493,370.505 324.829,374.288 329.166,379.164 333.502,385.121 342.175,400.218 350.848,419.445 359.521,442.642 368.194,469.627 376.867,500.195 
  385.54,534.121 394.213,571.161 402.887,611.056 411.56,653.535 420.233,698.311 430.657,754.752 441.081,813.563 451.505,874.208 461.93,936.148 482.778,1061.76 
  503.627,1186.17 512.44,1237.42 521.254,1287.45 530.067,1335.99 538.881,1382.78 547.694,1427.57 556.508,1470.13 565.322,1510.27 574.135,1547.78 583.709,1585.35 
  593.283,1619.42 602.857,1649.81 612.431,1676.4 622.005,1699.05 631.579,1717.69 641.153,1732.25 650.727,1742.69 659.554,1748.67 668.38,1751.15 677.206,1750.17 
  686.033,1745.76 694.859,1738 703.686,1726.96 712.512,1712.72 721.338,1695.39 730.801,1673.52 740.264,1648.38 749.727,1620.15 759.19,1589.01 768.652,1555.15 
  778.115,1518.77 787.578,1480.08 797.041,1439.29 808.004,1389.69 818.968,1337.9 829.932,1284.27 840.895,1229.14 862.822,1115.74 884.75,1000.35 904.236,898.153 
  923.722,797.967 933.465,749.092 943.209,701.254 952.952,654.609 962.695,609.302 971.239,570.776 979.783,533.463 988.327,497.435 996.87,462.761 1005.41,429.502 
  1013.96,397.709 1022.5,367.431 1031.05,338.706 1040.36,309.197 1049.68,281.607 1058.99,255.962 1068.31,232.278 1077.62,210.563 1086.94,190.818 1096.25,173.034 
  1105.57,157.198 1114.94,143.211 1124.31,131.147 1133.68,120.971 1143.05,112.643 1152.42,106.12 1161.79,101.354 1171.16,98.2898 1180.53,96.8724 1190.89,97.1498 
  1201.25,99.2819 1211.61,103.181 1221.97,108.755 1232.33,115.911 1242.69,124.554 1253.05,134.589 1263.41,145.919 1283.13,170.711 1302.84,199.189 1312.7,214.61 
  1322.56,230.715 1332.42,247.427 1342.27,264.674 1383.27,340.614 1424.27,419.984 1458.78,486.646 1493.29,551.263 1514.36,589.112 1535.43,625.458 1556.5,660.124 
  1577.56,692.975 1596.86,721.398 1616.16,748.182 1635.46,773.307 1654.76,796.777 1672.58,817.001 1690.41,835.857 1708.23,853.381 1726.06,869.619 1744.11,884.805 
  1762.17,898.778 1780.22,911.599 1798.28,923.328 1818.51,935.256 1838.75,945.985 1858.98,955.605 1879.22,964.202 1915.89,977.454 1952.56,988.104 1994.55,997.658 
  2036.54,1004.93 2075.41,1010.06 2114.29,1013.97 2190.95,1019.08 2265.37,1021.86 2341.67,1023.42 2425.26,1024.3 2546.69,1024.82 2571.6,1024.88 
  "/>
<path clip-path="url(#clip800)" d="
M2235.38 209.375 L2559.31 209.375 L2559.31 105.695 L2235.38 105.695  Z
  " fill="#ffffff" fill-rule="evenodd" fill-opacity="1"/>
<polyline clip-path="url(#clip800)" style="stroke:#000000; stroke-linecap:round; stroke-linejoin:round; stroke-width:4; stroke-opacity:1; fill:none" points="
  2235.38,209.375 2559.31,209.375 2559.31,105.695 2235.38,105.695 2235.38,209.375 
  "/>
<polyline clip-path="url(#clip800)" style="stroke:#009af9; stroke-linecap:round; stroke-linejoin:round; stroke-width:4; stroke-opacity:1; fill:none" points="
  2262.53,157.535 2425.43,157.535 
  "/>
<path clip-path="url(#clip800)" d="M2466.42 177.223 Q2464.62 181.852 2462.9 183.264 Q2461.19 184.676 2458.32 184.676 L2454.92 184.676 L2454.92 181.112 L2457.42 181.112 Q2459.18 181.112 2460.15 180.278 Q2461.12 179.445 2462.3 176.343 L2463.06 174.399 L2452.58 148.889 L2457.09 148.889 L2465.19 169.167 L2473.3 148.889 L2477.81 148.889 L2466.42 177.223 Z" fill="#000000" fill-rule="evenodd" fill-opacity="1" /><path clip-path="url(#clip800)" d="M2485.1 170.88 L2492.74 170.88 L2492.74 144.515 L2484.43 146.181 L2484.43 141.922 L2492.69 140.255 L2497.37 140.255 L2497.37 170.88 L2505.01 170.88 L2505.01 174.815 L2485.1 174.815 L2485.1 170.88 Z" fill="#000000" fill-rule="evenodd" fill-opacity="1" /></svg>
