<?xml version="1.0" encoding="utf-8"?>
<svg xmlns="http://www.w3.org/2000/svg" xmlns:xlink="http://www.w3.org/1999/xlink" width="672" height="480" viewBox="0 0 2688 1920">
<defs>
  <clipPath id="clip910">
    <rect x="0" y="0" width="2688" height="1920"/>
  </clipPath>
</defs>
<path clip-path="url(#clip910)" d="
M0 1920 L2688 1920 L2688 0 L0 0  Z
  " fill="#ffffff" fill-rule="evenodd" fill-opacity="1"/>
<defs>
  <clipPath id="clip911">
    <rect x="537" y="0" width="1883" height="1883"/>
  </clipPath>
</defs>
<path clip-path="url(#clip910)" d="
M196.816 1800.78 L2640.76 1800.78 L2640.76 47.2441 L196.816 47.2441  Z
  " fill="#ffffff" fill-rule="evenodd" fill-opacity="1"/>
<defs>
  <clipPath id="clip912">
    <rect x="196" y="47" width="2445" height="1755"/>
  </clipPath>
</defs>
<polyline clip-path="url(#clip912)" style="stroke:#000000; stroke-linecap:butt; stroke-linejoin:round; stroke-width:2; stroke-opacity:0.1; fill:none" points="
  265.984,1800.78 265.984,47.2441 
  "/>
<polyline clip-path="url(#clip912)" style="stroke:#000000; stroke-linecap:butt; stroke-linejoin:round; stroke-width:2; stroke-opacity:0.1; fill:none" points="
  650.251,1800.78 650.251,47.2441 
  "/>
<polyline clip-path="url(#clip912)" style="stroke:#000000; stroke-linecap:butt; stroke-linejoin:round; stroke-width:2; stroke-opacity:0.1; fill:none" points="
  1034.52,1800.78 1034.52,47.2441 
  "/>
<polyline clip-path="url(#clip912)" style="stroke:#000000; stroke-linecap:butt; stroke-linejoin:round; stroke-width:2; stroke-opacity:0.1; fill:none" points="
  1418.79,1800.78 1418.79,47.2441 
  "/>
<polyline clip-path="url(#clip912)" style="stroke:#000000; stroke-linecap:butt; stroke-linejoin:round; stroke-width:2; stroke-opacity:0.1; fill:none" points="
  1803.05,1800.78 1803.05,47.2441 
  "/>
<polyline clip-path="url(#clip912)" style="stroke:#000000; stroke-linecap:butt; stroke-linejoin:round; stroke-width:2; stroke-opacity:0.1; fill:none" points="
  2187.32,1800.78 2187.32,47.2441 
  "/>
<polyline clip-path="url(#clip912)" style="stroke:#000000; stroke-linecap:butt; stroke-linejoin:round; stroke-width:2; stroke-opacity:0.1; fill:none" points="
  2571.59,1800.78 2571.59,47.2441 
  "/>
<polyline clip-path="url(#clip910)" style="stroke:#000000; stroke-linecap:butt; stroke-linejoin:round; stroke-width:4; stroke-opacity:1; fill:none" points="
  196.816,1800.78 2640.76,1800.78 
  "/>
<polyline clip-path="url(#clip910)" style="stroke:#000000; stroke-linecap:butt; stroke-linejoin:round; stroke-width:4; stroke-opacity:1; fill:none" points="
  265.984,1800.78 265.984,1781.88 
  "/>
<polyline clip-path="url(#clip910)" style="stroke:#000000; stroke-linecap:butt; stroke-linejoin:round; stroke-width:4; stroke-opacity:1; fill:none" points="
  650.251,1800.78 650.251,1781.88 
  "/>
<polyline clip-path="url(#clip910)" style="stroke:#000000; stroke-linecap:butt; stroke-linejoin:round; stroke-width:4; stroke-opacity:1; fill:none" points="
  1034.52,1800.78 1034.52,1781.88 
  "/>
<polyline clip-path="url(#clip910)" style="stroke:#000000; stroke-linecap:butt; stroke-linejoin:round; stroke-width:4; stroke-opacity:1; fill:none" points="
  1418.79,1800.78 1418.79,1781.88 
  "/>
<polyline clip-path="url(#clip910)" style="stroke:#000000; stroke-linecap:butt; stroke-linejoin:round; stroke-width:4; stroke-opacity:1; fill:none" points="
  1803.05,1800.78 1803.05,1781.88 
  "/>
<polyline clip-path="url(#clip910)" style="stroke:#000000; stroke-linecap:butt; stroke-linejoin:round; stroke-width:4; stroke-opacity:1; fill:none" points="
  2187.32,1800.78 2187.32,1781.88 
  "/>
<polyline clip-path="url(#clip910)" style="stroke:#000000; stroke-linecap:butt; stroke-linejoin:round; stroke-width:4; stroke-opacity:1; fill:none" points="
  2571.59,1800.78 2571.59,1781.88 
  "/>
<path clip-path="url(#clip910)" d="M235.452 1848.65 L265.128 1848.65 L265.128 1852.59 L235.452 1852.59 L235.452 1848.65 Z" fill="#000000" fill-rule="evenodd" fill-opacity="1" /><path clip-path="url(#clip910)" d="M289.387 1846.85 Q292.743 1847.57 294.618 1849.84 Q296.516 1852.1 296.516 1855.44 Q296.516 1860.55 292.998 1863.35 Q289.479 1866.15 282.998 1866.15 Q280.822 1866.15 278.507 1865.71 Q276.216 1865.3 273.762 1864.44 L273.762 1859.93 Q275.706 1861.06 278.021 1861.64 Q280.336 1862.22 282.859 1862.22 Q287.257 1862.22 289.549 1860.48 Q291.864 1858.75 291.864 1855.44 Q291.864 1852.38 289.711 1850.67 Q287.581 1848.93 283.762 1848.93 L279.734 1848.93 L279.734 1845.09 L283.947 1845.09 Q287.396 1845.09 289.225 1843.72 Q291.053 1842.34 291.053 1839.74 Q291.053 1837.08 289.155 1835.67 Q287.28 1834.23 283.762 1834.23 Q281.841 1834.23 279.641 1834.65 Q277.442 1835.07 274.804 1835.95 L274.804 1831.78 Q277.466 1831.04 279.78 1830.67 Q282.118 1830.3 284.178 1830.3 Q289.503 1830.3 292.604 1832.73 Q295.706 1835.14 295.706 1839.26 Q295.706 1842.13 294.063 1844.12 Q292.419 1846.09 289.387 1846.85 Z" fill="#000000" fill-rule="evenodd" fill-opacity="1" /><path clip-path="url(#clip910)" d="M620.194 1848.65 L649.869 1848.65 L649.869 1852.59 L620.194 1852.59 L620.194 1848.65 Z" fill="#000000" fill-rule="evenodd" fill-opacity="1" /><path clip-path="url(#clip910)" d="M663.99 1861.55 L680.309 1861.55 L680.309 1865.48 L658.365 1865.48 L658.365 1861.55 Q661.027 1858.79 665.61 1854.16 Q670.217 1849.51 671.397 1848.17 Q673.642 1845.65 674.522 1843.91 Q675.425 1842.15 675.425 1840.46 Q675.425 1837.71 673.48 1835.97 Q671.559 1834.23 668.457 1834.23 Q666.258 1834.23 663.805 1835 Q661.374 1835.76 658.596 1837.31 L658.596 1832.59 Q661.42 1831.46 663.874 1830.88 Q666.328 1830.3 668.365 1830.3 Q673.735 1830.3 676.929 1832.98 Q680.124 1835.67 680.124 1840.16 Q680.124 1842.29 679.314 1844.21 Q678.527 1846.11 676.42 1848.7 Q675.842 1849.37 672.74 1852.59 Q669.638 1855.78 663.99 1861.55 Z" fill="#000000" fill-rule="evenodd" fill-opacity="1" /><path clip-path="url(#clip910)" d="M1004.28 1848.65 L1033.95 1848.65 L1033.95 1852.59 L1004.28 1852.59 L1004.28 1848.65 Z" fill="#000000" fill-rule="evenodd" fill-opacity="1" /><path clip-path="url(#clip910)" d="M1044.85 1861.55 L1052.49 1861.55 L1052.49 1835.18 L1044.18 1836.85 L1044.18 1832.59 L1052.45 1830.92 L1057.12 1830.92 L1057.12 1861.55 L1064.76 1861.55 L1064.76 1865.48 L1044.85 1865.48 L1044.85 1861.55 Z" fill="#000000" fill-rule="evenodd" fill-opacity="1" /><path clip-path="url(#clip910)" d="M1418.79 1834 Q1415.17 1834 1413.35 1837.57 Q1411.54 1841.11 1411.54 1848.24 Q1411.54 1855.34 1413.35 1858.91 Q1415.17 1862.45 1418.79 1862.45 Q1422.42 1862.45 1424.23 1858.91 Q1426.05 1855.34 1426.05 1848.24 Q1426.05 1841.11 1424.23 1837.57 Q1422.42 1834 1418.79 1834 M1418.79 1830.3 Q1424.6 1830.3 1427.65 1834.9 Q1430.73 1839.49 1430.73 1848.24 Q1430.73 1856.96 1427.65 1861.57 Q1424.6 1866.15 1418.79 1866.15 Q1412.98 1866.15 1409.9 1861.57 Q1406.84 1856.96 1406.84 1848.24 Q1406.84 1839.49 1409.9 1834.9 Q1412.98 1830.3 1418.79 1830.3 Z" fill="#000000" fill-rule="evenodd" fill-opacity="1" /><path clip-path="url(#clip910)" d="M1793.44 1861.55 L1801.07 1861.55 L1801.07 1835.18 L1792.76 1836.85 L1792.76 1832.59 L1801.03 1830.92 L1805.7 1830.92 L1805.7 1861.55 L1813.34 1861.55 L1813.34 1865.48 L1793.44 1865.48 L1793.44 1861.55 Z" fill="#000000" fill-rule="evenodd" fill-opacity="1" /><path clip-path="url(#clip910)" d="M2181.97 1861.55 L2198.29 1861.55 L2198.29 1865.48 L2176.35 1865.48 L2176.35 1861.55 Q2179.01 1858.79 2183.59 1854.16 Q2188.2 1849.51 2189.38 1848.17 Q2191.63 1845.65 2192.51 1843.91 Q2193.41 1842.15 2193.41 1840.46 Q2193.41 1837.71 2191.46 1835.97 Q2189.54 1834.23 2186.44 1834.23 Q2184.24 1834.23 2181.79 1835 Q2179.36 1835.76 2176.58 1837.31 L2176.58 1832.59 Q2179.4 1831.46 2181.86 1830.88 Q2184.31 1830.3 2186.35 1830.3 Q2191.72 1830.3 2194.91 1832.98 Q2198.11 1835.67 2198.11 1840.16 Q2198.11 1842.29 2197.3 1844.21 Q2196.51 1846.11 2194.4 1848.7 Q2193.83 1849.37 2190.72 1852.59 Q2187.62 1855.78 2181.97 1861.55 Z" fill="#000000" fill-rule="evenodd" fill-opacity="1" /><path clip-path="url(#clip910)" d="M2575.84 1846.85 Q2579.19 1847.57 2581.07 1849.84 Q2582.97 1852.1 2582.97 1855.44 Q2582.97 1860.55 2579.45 1863.35 Q2575.93 1866.15 2569.45 1866.15 Q2567.27 1866.15 2564.96 1865.71 Q2562.66 1865.3 2560.21 1864.44 L2560.21 1859.93 Q2562.15 1861.06 2564.47 1861.64 Q2566.78 1862.22 2569.31 1862.22 Q2573.71 1862.22 2576 1860.48 Q2578.31 1858.75 2578.31 1855.44 Q2578.31 1852.38 2576.16 1850.67 Q2574.03 1848.93 2570.21 1848.93 L2566.18 1848.93 L2566.18 1845.09 L2570.4 1845.09 Q2573.84 1845.09 2575.67 1843.72 Q2577.5 1842.34 2577.5 1839.74 Q2577.5 1837.08 2575.6 1835.67 Q2573.73 1834.23 2570.21 1834.23 Q2568.29 1834.23 2566.09 1834.65 Q2563.89 1835.07 2561.25 1835.95 L2561.25 1831.78 Q2563.91 1831.04 2566.23 1830.67 Q2568.57 1830.3 2570.63 1830.3 Q2575.95 1830.3 2579.05 1832.73 Q2582.15 1835.14 2582.15 1839.26 Q2582.15 1842.13 2580.51 1844.12 Q2578.87 1846.09 2575.84 1846.85 Z" fill="#000000" fill-rule="evenodd" fill-opacity="1" /><polyline clip-path="url(#clip912)" style="stroke:#000000; stroke-linecap:butt; stroke-linejoin:round; stroke-width:2; stroke-opacity:0.1; fill:none" points="
  196.816,1751.4 2640.76,1751.4 
  "/>
<polyline clip-path="url(#clip912)" style="stroke:#000000; stroke-linecap:butt; stroke-linejoin:round; stroke-width:2; stroke-opacity:0.1; fill:none" points="
  196.816,1337.77 2640.76,1337.77 
  "/>
<polyline clip-path="url(#clip912)" style="stroke:#000000; stroke-linecap:butt; stroke-linejoin:round; stroke-width:2; stroke-opacity:0.1; fill:none" points="
  196.816,924.136 2640.76,924.136 
  "/>
<polyline clip-path="url(#clip912)" style="stroke:#000000; stroke-linecap:butt; stroke-linejoin:round; stroke-width:2; stroke-opacity:0.1; fill:none" points="
  196.816,510.504 2640.76,510.504 
  "/>
<polyline clip-path="url(#clip912)" style="stroke:#000000; stroke-linecap:butt; stroke-linejoin:round; stroke-width:2; stroke-opacity:0.1; fill:none" points="
  196.816,96.8724 2640.76,96.8724 
  "/>
<polyline clip-path="url(#clip910)" style="stroke:#000000; stroke-linecap:butt; stroke-linejoin:round; stroke-width:4; stroke-opacity:1; fill:none" points="
  196.816,1800.78 196.816,47.2441 
  "/>
<polyline clip-path="url(#clip910)" style="stroke:#000000; stroke-linecap:butt; stroke-linejoin:round; stroke-width:4; stroke-opacity:1; fill:none" points="
  196.816,1751.4 215.714,1751.4 
  "/>
<polyline clip-path="url(#clip910)" style="stroke:#000000; stroke-linecap:butt; stroke-linejoin:round; stroke-width:4; stroke-opacity:1; fill:none" points="
  196.816,1337.77 215.714,1337.77 
  "/>
<polyline clip-path="url(#clip910)" style="stroke:#000000; stroke-linecap:butt; stroke-linejoin:round; stroke-width:4; stroke-opacity:1; fill:none" points="
  196.816,924.136 215.714,924.136 
  "/>
<polyline clip-path="url(#clip910)" style="stroke:#000000; stroke-linecap:butt; stroke-linejoin:round; stroke-width:4; stroke-opacity:1; fill:none" points="
  196.816,510.504 215.714,510.504 
  "/>
<polyline clip-path="url(#clip910)" style="stroke:#000000; stroke-linecap:butt; stroke-linejoin:round; stroke-width:4; stroke-opacity:1; fill:none" points="
  196.816,96.8724 215.714,96.8724 
  "/>
<path clip-path="url(#clip910)" d="M49.5521 1751.85 L79.2279 1751.85 L79.2279 1755.79 L49.5521 1755.79 L49.5521 1751.85 Z" fill="#000000" fill-rule="evenodd" fill-opacity="1" /><path clip-path="url(#clip910)" d="M90.1306 1764.74 L97.7695 1764.74 L97.7695 1738.38 L89.4593 1740.05 L89.4593 1735.79 L97.7232 1734.12 L102.399 1734.12 L102.399 1764.74 L110.038 1764.74 L110.038 1768.68 L90.1306 1768.68 L90.1306 1764.74 Z" fill="#000000" fill-rule="evenodd" fill-opacity="1" /><path clip-path="url(#clip910)" d="M119.482 1762.8 L124.367 1762.8 L124.367 1768.68 L119.482 1768.68 L119.482 1762.8 Z" fill="#000000" fill-rule="evenodd" fill-opacity="1" /><path clip-path="url(#clip910)" d="M144.552 1737.2 Q140.941 1737.2 139.112 1740.76 Q137.306 1744.3 137.306 1751.43 Q137.306 1758.54 139.112 1762.11 Q140.941 1765.65 144.552 1765.65 Q148.186 1765.65 149.991 1762.11 Q151.82 1758.54 151.82 1751.43 Q151.82 1744.3 149.991 1740.76 Q148.186 1737.2 144.552 1737.2 M144.552 1733.49 Q150.362 1733.49 153.417 1738.1 Q156.496 1742.68 156.496 1751.43 Q156.496 1760.16 153.417 1764.77 Q150.362 1769.35 144.552 1769.35 Q138.741 1769.35 135.663 1764.77 Q132.607 1760.16 132.607 1751.43 Q132.607 1742.68 135.663 1738.1 Q138.741 1733.49 144.552 1733.49 Z" fill="#000000" fill-rule="evenodd" fill-opacity="1" /><path clip-path="url(#clip910)" d="M50.5475 1338.22 L80.2233 1338.22 L80.2233 1342.15 L50.5475 1342.15 L50.5475 1338.22 Z" fill="#000000" fill-rule="evenodd" fill-opacity="1" /><path clip-path="url(#clip910)" d="M100.316 1323.57 Q96.7047 1323.57 94.876 1327.13 Q93.0704 1330.67 93.0704 1337.8 Q93.0704 1344.91 94.876 1348.47 Q96.7047 1352.02 100.316 1352.02 Q103.95 1352.02 105.756 1348.47 Q107.584 1344.91 107.584 1337.8 Q107.584 1330.67 105.756 1327.13 Q103.95 1323.57 100.316 1323.57 M100.316 1319.86 Q106.126 1319.86 109.181 1324.47 Q112.26 1329.05 112.26 1337.8 Q112.26 1346.53 109.181 1351.14 Q106.126 1355.72 100.316 1355.72 Q94.5056 1355.72 91.4269 1351.14 Q88.3714 1346.53 88.3714 1337.8 Q88.3714 1329.05 91.4269 1324.47 Q94.5056 1319.86 100.316 1319.86 Z" fill="#000000" fill-rule="evenodd" fill-opacity="1" /><path clip-path="url(#clip910)" d="M120.478 1349.17 L125.362 1349.17 L125.362 1355.05 L120.478 1355.05 L120.478 1349.17 Z" fill="#000000" fill-rule="evenodd" fill-opacity="1" /><path clip-path="url(#clip910)" d="M135.593 1320.49 L153.95 1320.49 L153.95 1324.42 L139.876 1324.42 L139.876 1332.9 Q140.894 1332.55 141.913 1332.39 Q142.931 1332.2 143.95 1332.2 Q149.737 1332.2 153.116 1335.37 Q156.496 1338.54 156.496 1343.96 Q156.496 1349.54 153.024 1352.64 Q149.552 1355.72 143.232 1355.72 Q141.056 1355.72 138.788 1355.35 Q136.542 1354.98 134.135 1354.24 L134.135 1349.54 Q136.218 1350.67 138.441 1351.23 Q140.663 1351.78 143.14 1351.78 Q147.144 1351.78 149.482 1349.68 Q151.82 1347.57 151.82 1343.96 Q151.82 1340.35 149.482 1338.24 Q147.144 1336.14 143.14 1336.14 Q141.265 1336.14 139.39 1336.55 Q137.538 1336.97 135.593 1337.85 L135.593 1320.49 Z" fill="#000000" fill-rule="evenodd" fill-opacity="1" /><path clip-path="url(#clip910)" d="M99.3204 909.935 Q95.7093 909.935 93.8806 913.5 Q92.075 917.041 92.075 924.171 Q92.075 931.277 93.8806 934.842 Q95.7093 938.384 99.3204 938.384 Q102.955 938.384 104.76 934.842 Q106.589 931.277 106.589 924.171 Q106.589 917.041 104.76 913.5 Q102.955 909.935 99.3204 909.935 M99.3204 906.231 Q105.131 906.231 108.186 910.838 Q111.265 915.421 111.265 924.171 Q111.265 932.898 108.186 937.504 Q105.131 942.087 99.3204 942.087 Q93.5102 942.087 90.4315 937.504 Q87.376 932.898 87.376 924.171 Q87.376 915.421 90.4315 910.838 Q93.5102 906.231 99.3204 906.231 Z" fill="#000000" fill-rule="evenodd" fill-opacity="1" /><path clip-path="url(#clip910)" d="M119.482 935.536 L124.367 935.536 L124.367 941.416 L119.482 941.416 L119.482 935.536 Z" fill="#000000" fill-rule="evenodd" fill-opacity="1" /><path clip-path="url(#clip910)" d="M144.552 909.935 Q140.941 909.935 139.112 913.5 Q137.306 917.041 137.306 924.171 Q137.306 931.277 139.112 934.842 Q140.941 938.384 144.552 938.384 Q148.186 938.384 149.991 934.842 Q151.82 931.277 151.82 924.171 Q151.82 917.041 149.991 913.5 Q148.186 909.935 144.552 909.935 M144.552 906.231 Q150.362 906.231 153.417 910.838 Q156.496 915.421 156.496 924.171 Q156.496 932.898 153.417 937.504 Q150.362 942.087 144.552 942.087 Q138.741 942.087 135.663 937.504 Q132.607 932.898 132.607 924.171 Q132.607 915.421 135.663 910.838 Q138.741 906.231 144.552 906.231 Z" fill="#000000" fill-rule="evenodd" fill-opacity="1" /><path clip-path="url(#clip910)" d="M100.316 496.303 Q96.7047 496.303 94.876 499.868 Q93.0704 503.409 93.0704 510.539 Q93.0704 517.645 94.876 521.21 Q96.7047 524.752 100.316 524.752 Q103.95 524.752 105.756 521.21 Q107.584 517.645 107.584 510.539 Q107.584 503.409 105.756 499.868 Q103.95 496.303 100.316 496.303 M100.316 492.599 Q106.126 492.599 109.181 497.206 Q112.26 501.789 112.26 510.539 Q112.26 519.266 109.181 523.872 Q106.126 528.456 100.316 528.456 Q94.5056 528.456 91.4269 523.872 Q88.3714 519.266 88.3714 510.539 Q88.3714 501.789 91.4269 497.206 Q94.5056 492.599 100.316 492.599 Z" fill="#000000" fill-rule="evenodd" fill-opacity="1" /><path clip-path="url(#clip910)" d="M120.478 521.905 L125.362 521.905 L125.362 527.784 L120.478 527.784 L120.478 521.905 Z" fill="#000000" fill-rule="evenodd" fill-opacity="1" /><path clip-path="url(#clip910)" d="M135.593 493.224 L153.95 493.224 L153.95 497.159 L139.876 497.159 L139.876 505.632 Q140.894 505.284 141.913 505.122 Q142.931 504.937 143.95 504.937 Q149.737 504.937 153.116 508.108 Q156.496 511.28 156.496 516.696 Q156.496 522.275 153.024 525.377 Q149.552 528.456 143.232 528.456 Q141.056 528.456 138.788 528.085 Q136.542 527.715 134.135 526.974 L134.135 522.275 Q136.218 523.409 138.441 523.965 Q140.663 524.52 143.14 524.52 Q147.144 524.52 149.482 522.414 Q151.82 520.307 151.82 516.696 Q151.82 513.085 149.482 510.979 Q147.144 508.872 143.14 508.872 Q141.265 508.872 139.39 509.289 Q137.538 509.706 135.593 510.585 L135.593 493.224 Z" fill="#000000" fill-rule="evenodd" fill-opacity="1" /><path clip-path="url(#clip910)" d="M90.1306 110.217 L97.7695 110.217 L97.7695 83.8517 L89.4593 85.5183 L89.4593 81.2591 L97.7232 79.5924 L102.399 79.5924 L102.399 110.217 L110.038 110.217 L110.038 114.152 L90.1306 114.152 L90.1306 110.217 Z" fill="#000000" fill-rule="evenodd" fill-opacity="1" /><path clip-path="url(#clip910)" d="M119.482 108.273 L124.367 108.273 L124.367 114.152 L119.482 114.152 L119.482 108.273 Z" fill="#000000" fill-rule="evenodd" fill-opacity="1" /><path clip-path="url(#clip910)" d="M144.552 82.6711 Q140.941 82.6711 139.112 86.2359 Q137.306 89.7776 137.306 96.9072 Q137.306 104.014 139.112 107.578 Q140.941 111.12 144.552 111.12 Q148.186 111.12 149.991 107.578 Q151.82 104.014 151.82 96.9072 Q151.82 89.7776 149.991 86.2359 Q148.186 82.6711 144.552 82.6711 M144.552 78.9675 Q150.362 78.9675 153.417 83.5739 Q156.496 88.1572 156.496 96.9072 Q156.496 105.634 153.417 110.24 Q150.362 114.824 144.552 114.824 Q138.741 114.824 135.663 110.24 Q132.607 105.634 132.607 96.9072 Q132.607 88.1572 135.663 83.5739 Q138.741 78.9675 144.552 78.9675 Z" fill="#000000" fill-rule="evenodd" fill-opacity="1" /><polyline clip-path="url(#clip912)" style="stroke:#009af9; stroke-linecap:butt; stroke-linejoin:round; stroke-width:4; stroke-opacity:1; fill:none" points="
  265.984,96.8724 280.995,96.8724 419.791,96.8724 503.201,96.8724 573.724,96.8724 592.876,96.8724 612.028,96.8724 621.604,96.8724 631.179,96.8724 635.967,96.8724 
  640.755,96.8724 645.543,96.8724 650.331,97.0444 654.745,106.547 659.159,116.05 663.573,125.553 667.988,135.055 676.816,154.061 685.644,173.067 703.3,211.078 
  720.956,249.089 796.674,412.096 884.4,600.956 962.361,768.793 1030.73,915.97 1105.26,1076.43 1180.24,1237.85 1221.69,1327.08 1263.14,1416.32 1302.58,1501.22 
  1342.01,1586.12 1362.52,1630.26 1383.02,1674.4 1393.27,1696.47 1403.52,1718.54 1408.65,1729.58 1413.78,1740.61 1416.34,1746.13 1418.9,1751.15 1421.46,1745.63 
  1424.03,1740.12 1428.34,1730.83 1432.66,1721.54 1436.97,1712.25 1441.29,1702.96 1449.92,1684.38 1458.55,1665.8 1475.81,1628.65 1493.06,1591.49 1577.35,1410.04 
  1654.56,1243.81 1725.87,1090.29 1798.11,934.778 1879.07,760.493 1952.43,602.563 2036.42,421.743 2114.19,254.32 2133.35,213.055 2152.52,171.79 2162.1,151.158 
  2171.69,130.526 2176.48,120.209 2181.27,109.893 2183.67,104.735 2186.06,99.577 2188.46,96.8724 2190.86,96.8724 2200.16,96.8724 2209.47,96.8724 2218.77,96.8724 
  2228.08,96.8724 2246.69,96.8724 2265.3,96.8724 2341.61,96.8724 2425.22,96.8724 2546.67,96.8724 2571.59,96.8724 
  "/>
<polyline clip-path="url(#clip912)" style="stroke:#e26f46; stroke-linecap:butt; stroke-linejoin:round; stroke-width:4; stroke-opacity:1; fill:none" points="
  265.984,924.136 280.995,924.136 419.791,924.136 503.201,924.136 573.724,924.136 650.331,924.136 720.956,924.136 796.674,924.136 884.4,924.136 962.361,924.136 
  1030.73,924.136 1105.26,924.136 1180.24,924.136 1263.14,924.136 1342.01,924.136 1424.03,924.136 1493.06,924.136 1577.35,924.136 1654.56,924.136 1725.87,924.136 
  1798.11,924.136 1879.07,924.136 1952.43,924.136 2036.42,924.136 2114.19,924.136 2190.86,924.136 2265.3,924.136 2341.61,924.136 2425.22,924.136 2546.67,924.136 
  2571.59,924.136 
  "/>
<path clip-path="url(#clip910)" d="
M2235.31 261.215 L2559.29 261.215 L2559.29 105.695 L2235.31 105.695  Z
  " fill="#ffffff" fill-rule="evenodd" fill-opacity="1"/>
<polyline clip-path="url(#clip910)" style="stroke:#000000; stroke-linecap:butt; stroke-linejoin:round; stroke-width:4; stroke-opacity:1; fill:none" points="
  2235.31,261.215 2559.29,261.215 2559.29,105.695 2235.31,105.695 2235.31,261.215 
  "/>
<polyline clip-path="url(#clip910)" style="stroke:#009af9; stroke-linecap:butt; stroke-linejoin:round; stroke-width:4; stroke-opacity:1; fill:none" points="
  2262.47,157.535 2425.4,157.535 
  "/>
<path clip-path="url(#clip910)" d="M2466.39 177.223 Q2464.59 181.852 2462.88 183.264 Q2461.16 184.676 2458.29 184.676 L2454.89 184.676 L2454.89 181.112 L2457.39 181.112 Q2459.15 181.112 2460.12 180.278 Q2461.09 179.445 2462.27 176.343 L2463.04 174.399 L2452.55 148.889 L2457.07 148.889 L2465.17 169.167 L2473.27 148.889 L2477.78 148.889 L2466.39 177.223 Z" fill="#000000" fill-rule="evenodd" fill-opacity="1" /><path clip-path="url(#clip910)" d="M2485.07 170.88 L2492.71 170.88 L2492.71 144.515 L2484.4 146.181 L2484.4 141.922 L2492.67 140.255 L2497.34 140.255 L2497.34 170.88 L2504.98 170.88 L2504.98 174.815 L2485.07 174.815 L2485.07 170.88 Z" fill="#000000" fill-rule="evenodd" fill-opacity="1" /><polyline clip-path="url(#clip910)" style="stroke:#e26f46; stroke-linecap:butt; stroke-linejoin:round; stroke-width:4; stroke-opacity:1; fill:none" points="
  2262.47,209.375 2425.4,209.375 
  "/>
<path clip-path="url(#clip910)" d="M2466.39 229.063 Q2464.59 233.692 2462.88 235.104 Q2461.16 236.516 2458.29 236.516 L2454.89 236.516 L2454.89 232.952 L2457.39 232.952 Q2459.15 232.952 2460.12 232.118 Q2461.09 231.285 2462.27 228.183 L2463.04 226.239 L2452.55 200.729 L2457.07 200.729 L2465.17 221.007 L2473.27 200.729 L2477.78 200.729 L2466.39 229.063 Z" fill="#000000" fill-rule="evenodd" fill-opacity="1" /><path clip-path="url(#clip910)" d="M2488.29 222.72 L2504.61 222.72 L2504.61 226.655 L2482.67 226.655 L2482.67 222.72 Q2485.33 219.965 2489.91 215.336 Q2494.52 210.683 2495.7 209.341 Q2497.94 206.817 2498.82 205.081 Q2499.73 203.322 2499.73 201.632 Q2499.73 198.878 2497.78 197.142 Q2495.86 195.405 2492.76 195.405 Q2490.56 195.405 2488.11 196.169 Q2485.68 196.933 2482.9 198.484 L2482.9 193.762 Q2485.72 192.628 2488.18 192.049 Q2490.63 191.47 2492.67 191.47 Q2498.04 191.47 2501.23 194.155 Q2504.43 196.841 2504.43 201.331 Q2504.43 203.461 2503.62 205.382 Q2502.83 207.28 2500.72 209.873 Q2500.14 210.544 2497.04 213.762 Q2493.94 216.956 2488.29 222.72 Z" fill="#000000" fill-rule="evenodd" fill-opacity="1" /></svg>
