<?xml version="1.0" encoding="utf-8"?>
<svg xmlns="http://www.w3.org/2000/svg" xmlns:xlink="http://www.w3.org/1999/xlink" width="672" height="480" viewBox="0 0 2688 1920">
<defs>
  <clipPath id="clip140">
    <rect x="0" y="0" width="2688" height="1920"/>
  </clipPath>
</defs>
<path clip-path="url(#clip140)" d="
M0 1920 L2688 1920 L2688 0 L0 0  Z
  " fill="#ffffff" fill-rule="evenodd" fill-opacity="1"/>
<defs>
  <clipPath id="clip141">
    <rect x="537" y="0" width="1883" height="1883"/>
  </clipPath>
</defs>
<path clip-path="url(#clip140)" d="
M150.358 1800.78 L2640.76 1800.78 L2640.76 47.2441 L150.358 47.2441  Z
  " fill="#ffffff" fill-rule="evenodd" fill-opacity="1"/>
<defs>
  <clipPath id="clip142">
    <rect x="150" y="47" width="2491" height="1755"/>
  </clipPath>
</defs>
<polyline clip-path="url(#clip142)" style="stroke:#000000; stroke-linecap:butt; stroke-linejoin:round; stroke-width:2; stroke-opacity:0.1; fill:none" points="
  220.841,1800.78 220.841,47.2441 
  "/>
<polyline clip-path="url(#clip142)" style="stroke:#000000; stroke-linecap:butt; stroke-linejoin:round; stroke-width:2; stroke-opacity:0.1; fill:none" points="
  690.727,1800.78 690.727,47.2441 
  "/>
<polyline clip-path="url(#clip142)" style="stroke:#000000; stroke-linecap:butt; stroke-linejoin:round; stroke-width:2; stroke-opacity:0.1; fill:none" points="
  1160.61,1800.78 1160.61,47.2441 
  "/>
<polyline clip-path="url(#clip142)" style="stroke:#000000; stroke-linecap:butt; stroke-linejoin:round; stroke-width:2; stroke-opacity:0.1; fill:none" points="
  1630.5,1800.78 1630.5,47.2441 
  "/>
<polyline clip-path="url(#clip142)" style="stroke:#000000; stroke-linecap:butt; stroke-linejoin:round; stroke-width:2; stroke-opacity:0.1; fill:none" points="
  2100.39,1800.78 2100.39,47.2441 
  "/>
<polyline clip-path="url(#clip142)" style="stroke:#000000; stroke-linecap:butt; stroke-linejoin:round; stroke-width:2; stroke-opacity:0.1; fill:none" points="
  2570.27,1800.78 2570.27,47.2441 
  "/>
<polyline clip-path="url(#clip140)" style="stroke:#000000; stroke-linecap:butt; stroke-linejoin:round; stroke-width:4; stroke-opacity:1; fill:none" points="
  150.358,1800.78 2640.76,1800.78 
  "/>
<polyline clip-path="url(#clip140)" style="stroke:#000000; stroke-linecap:butt; stroke-linejoin:round; stroke-width:4; stroke-opacity:1; fill:none" points="
  220.841,1800.78 220.841,1781.88 
  "/>
<polyline clip-path="url(#clip140)" style="stroke:#000000; stroke-linecap:butt; stroke-linejoin:round; stroke-width:4; stroke-opacity:1; fill:none" points="
  690.727,1800.78 690.727,1781.88 
  "/>
<polyline clip-path="url(#clip140)" style="stroke:#000000; stroke-linecap:butt; stroke-linejoin:round; stroke-width:4; stroke-opacity:1; fill:none" points="
  1160.61,1800.78 1160.61,1781.88 
  "/>
<polyline clip-path="url(#clip140)" style="stroke:#000000; stroke-linecap:butt; stroke-linejoin:round; stroke-width:4; stroke-opacity:1; fill:none" points="
  1630.5,1800.78 1630.5,1781.88 
  "/>
<polyline clip-path="url(#clip140)" style="stroke:#000000; stroke-linecap:butt; stroke-linejoin:round; stroke-width:4; stroke-opacity:1; fill:none" points="
  2100.39,1800.78 2100.39,1781.88 
  "/>
<polyline clip-path="url(#clip140)" style="stroke:#000000; stroke-linecap:butt; stroke-linejoin:round; stroke-width:4; stroke-opacity:1; fill:none" points="
  2570.27,1800.78 2570.27,1781.88 
  "/>
<path clip-path="url(#clip140)" d="M220.841 1834 Q217.23 1834 215.401 1837.57 Q213.596 1841.11 213.596 1848.24 Q213.596 1855.34 215.401 1858.91 Q217.23 1862.45 220.841 1862.45 Q224.475 1862.45 226.281 1858.91 Q228.109 1855.34 228.109 1848.24 Q228.109 1841.11 226.281 1837.57 Q224.475 1834 220.841 1834 M220.841 1830.3 Q226.651 1830.3 229.707 1834.9 Q232.785 1839.49 232.785 1848.24 Q232.785 1856.96 229.707 1861.57 Q226.651 1866.15 220.841 1866.15 Q215.031 1866.15 211.952 1861.57 Q208.896 1856.96 208.896 1848.24 Q208.896 1839.49 211.952 1834.9 Q215.031 1830.3 220.841 1830.3 Z" fill="#000000" fill-rule="evenodd" fill-opacity="1" /><path clip-path="url(#clip140)" d="M681.109 1861.55 L688.748 1861.55 L688.748 1835.18 L680.438 1836.85 L680.438 1832.59 L688.702 1830.92 L693.378 1830.92 L693.378 1861.55 L701.017 1861.55 L701.017 1865.48 L681.109 1865.48 L681.109 1861.55 Z" fill="#000000" fill-rule="evenodd" fill-opacity="1" /><path clip-path="url(#clip140)" d="M1155.27 1861.55 L1171.59 1861.55 L1171.59 1865.48 L1149.64 1865.48 L1149.64 1861.55 Q1152.3 1858.79 1156.89 1854.16 Q1161.49 1849.51 1162.67 1848.17 Q1164.92 1845.65 1165.8 1843.91 Q1166.7 1842.15 1166.7 1840.46 Q1166.7 1837.71 1164.76 1835.97 Q1162.84 1834.23 1159.73 1834.23 Q1157.54 1834.23 1155.08 1835 Q1152.65 1835.76 1149.87 1837.31 L1149.87 1832.59 Q1152.7 1831.46 1155.15 1830.88 Q1157.6 1830.3 1159.64 1830.3 Q1165.01 1830.3 1168.21 1832.98 Q1171.4 1835.67 1171.4 1840.16 Q1171.4 1842.29 1170.59 1844.21 Q1169.8 1846.11 1167.7 1848.7 Q1167.12 1849.37 1164.02 1852.59 Q1160.91 1855.78 1155.27 1861.55 Z" fill="#000000" fill-rule="evenodd" fill-opacity="1" /><path clip-path="url(#clip140)" d="M1634.75 1846.85 Q1638.1 1847.57 1639.98 1849.84 Q1641.88 1852.1 1641.88 1855.44 Q1641.88 1860.55 1638.36 1863.35 Q1634.84 1866.15 1628.36 1866.15 Q1626.18 1866.15 1623.87 1865.71 Q1621.58 1865.3 1619.12 1864.44 L1619.12 1859.93 Q1621.07 1861.06 1623.38 1861.64 Q1625.7 1862.22 1628.22 1862.22 Q1632.62 1862.22 1634.91 1860.48 Q1637.22 1858.75 1637.22 1855.44 Q1637.22 1852.38 1635.07 1850.67 Q1632.94 1848.93 1629.12 1848.93 L1625.1 1848.93 L1625.1 1845.09 L1629.31 1845.09 Q1632.76 1845.09 1634.59 1843.72 Q1636.41 1842.34 1636.41 1839.74 Q1636.41 1837.08 1634.52 1835.67 Q1632.64 1834.23 1629.12 1834.23 Q1627.2 1834.23 1625 1834.65 Q1622.8 1835.07 1620.16 1835.95 L1620.16 1831.78 Q1622.83 1831.04 1625.14 1830.67 Q1627.48 1830.3 1629.54 1830.3 Q1634.86 1830.3 1637.97 1832.73 Q1641.07 1835.14 1641.07 1839.26 Q1641.07 1842.13 1639.42 1844.12 Q1637.78 1846.09 1634.75 1846.85 Z" fill="#000000" fill-rule="evenodd" fill-opacity="1" /><path clip-path="url(#clip140)" d="M2103.4 1835 L2091.59 1853.45 L2103.4 1853.45 L2103.4 1835 M2102.17 1830.92 L2108.05 1830.92 L2108.05 1853.45 L2112.98 1853.45 L2112.98 1857.34 L2108.05 1857.34 L2108.05 1865.48 L2103.4 1865.48 L2103.4 1857.34 L2087.79 1857.34 L2087.79 1852.82 L2102.17 1830.92 Z" fill="#000000" fill-rule="evenodd" fill-opacity="1" /><path clip-path="url(#clip140)" d="M2560.55 1830.92 L2578.91 1830.92 L2578.91 1834.86 L2564.83 1834.86 L2564.83 1843.33 Q2565.85 1842.98 2566.87 1842.82 Q2567.89 1842.64 2568.91 1842.64 Q2574.69 1842.64 2578.07 1845.81 Q2581.45 1848.98 2581.45 1854.4 Q2581.45 1859.97 2577.98 1863.08 Q2574.51 1866.15 2568.19 1866.15 Q2566.01 1866.15 2563.75 1865.78 Q2561.5 1865.41 2559.09 1864.67 L2559.09 1859.97 Q2561.18 1861.11 2563.4 1861.66 Q2565.62 1862.22 2568.1 1862.22 Q2572.1 1862.22 2574.44 1860.11 Q2576.78 1858.01 2576.78 1854.4 Q2576.78 1850.78 2574.44 1848.68 Q2572.1 1846.57 2568.1 1846.57 Q2566.22 1846.57 2564.35 1846.99 Q2562.5 1847.4 2560.55 1848.28 L2560.55 1830.92 Z" fill="#000000" fill-rule="evenodd" fill-opacity="1" /><polyline clip-path="url(#clip142)" style="stroke:#000000; stroke-linecap:butt; stroke-linejoin:round; stroke-width:2; stroke-opacity:0.1; fill:none" points="
  150.358,1751.15 2640.76,1751.15 
  "/>
<polyline clip-path="url(#clip142)" style="stroke:#000000; stroke-linecap:butt; stroke-linejoin:round; stroke-width:2; stroke-opacity:0.1; fill:none" points="
  150.358,1199.72 2640.76,1199.72 
  "/>
<polyline clip-path="url(#clip142)" style="stroke:#000000; stroke-linecap:butt; stroke-linejoin:round; stroke-width:2; stroke-opacity:0.1; fill:none" points="
  150.358,648.299 2640.76,648.299 
  "/>
<polyline clip-path="url(#clip142)" style="stroke:#000000; stroke-linecap:butt; stroke-linejoin:round; stroke-width:2; stroke-opacity:0.1; fill:none" points="
  150.358,96.8724 2640.76,96.8724 
  "/>
<polyline clip-path="url(#clip140)" style="stroke:#000000; stroke-linecap:butt; stroke-linejoin:round; stroke-width:4; stroke-opacity:1; fill:none" points="
  150.358,1800.78 150.358,47.2441 
  "/>
<polyline clip-path="url(#clip140)" style="stroke:#000000; stroke-linecap:butt; stroke-linejoin:round; stroke-width:4; stroke-opacity:1; fill:none" points="
  150.358,1751.15 169.256,1751.15 
  "/>
<polyline clip-path="url(#clip140)" style="stroke:#000000; stroke-linecap:butt; stroke-linejoin:round; stroke-width:4; stroke-opacity:1; fill:none" points="
  150.358,1199.72 169.256,1199.72 
  "/>
<polyline clip-path="url(#clip140)" style="stroke:#000000; stroke-linecap:butt; stroke-linejoin:round; stroke-width:4; stroke-opacity:1; fill:none" points="
  150.358,648.299 169.256,648.299 
  "/>
<polyline clip-path="url(#clip140)" style="stroke:#000000; stroke-linecap:butt; stroke-linejoin:round; stroke-width:4; stroke-opacity:1; fill:none" points="
  150.358,96.8724 169.256,96.8724 
  "/>
<path clip-path="url(#clip140)" d="M49.5521 1751.6 L79.2279 1751.6 L79.2279 1755.54 L49.5521 1755.54 L49.5521 1751.6 Z" fill="#000000" fill-rule="evenodd" fill-opacity="1" /><path clip-path="url(#clip140)" d="M90.1306 1764.5 L97.7695 1764.5 L97.7695 1738.13 L89.4593 1739.8 L89.4593 1735.54 L97.7232 1733.87 L102.399 1733.87 L102.399 1764.5 L110.038 1764.5 L110.038 1768.43 L90.1306 1768.43 L90.1306 1764.5 Z" fill="#000000" fill-rule="evenodd" fill-opacity="1" /><path clip-path="url(#clip140)" d="M98.0935 1185.52 Q94.4824 1185.52 92.6537 1189.09 Q90.8482 1192.63 90.8482 1199.76 Q90.8482 1206.87 92.6537 1210.43 Q94.4824 1213.97 98.0935 1213.97 Q101.728 1213.97 103.533 1210.43 Q105.362 1206.87 105.362 1199.76 Q105.362 1192.63 103.533 1189.09 Q101.728 1185.52 98.0935 1185.52 M98.0935 1181.82 Q103.904 1181.82 106.959 1186.43 Q110.038 1191.01 110.038 1199.76 Q110.038 1208.49 106.959 1213.09 Q103.904 1217.68 98.0935 1217.68 Q92.2834 1217.68 89.2047 1213.09 Q86.1492 1208.49 86.1492 1199.76 Q86.1492 1191.01 89.2047 1186.43 Q92.2834 1181.82 98.0935 1181.82 Z" fill="#000000" fill-rule="evenodd" fill-opacity="1" /><path clip-path="url(#clip140)" d="M90.1306 661.643 L97.7695 661.643 L97.7695 635.278 L89.4593 636.945 L89.4593 632.685 L97.7232 631.019 L102.399 631.019 L102.399 661.643 L110.038 661.643 L110.038 665.579 L90.1306 665.579 L90.1306 661.643 Z" fill="#000000" fill-rule="evenodd" fill-opacity="1" /><path clip-path="url(#clip140)" d="M93.7186 110.217 L110.038 110.217 L110.038 114.152 L88.0936 114.152 L88.0936 110.217 Q90.7556 107.463 95.3389 102.833 Q99.9454 98.1803 101.126 96.8377 Q103.371 94.3146 104.251 92.5785 Q105.154 90.8192 105.154 89.1294 Q105.154 86.3748 103.209 84.6387 Q101.288 82.9026 98.1861 82.9026 Q95.9871 82.9026 93.5334 83.6665 Q91.1028 84.4304 88.3251 85.9813 L88.3251 81.2591 Q91.1491 80.1249 93.6028 79.5462 Q96.0565 78.9675 98.0935 78.9675 Q103.464 78.9675 106.658 81.6526 Q109.853 84.3378 109.853 88.8285 Q109.853 90.9581 109.043 92.8794 Q108.256 94.7776 106.149 97.3701 Q105.57 98.0414 102.469 101.259 Q99.3667 104.453 93.7186 110.217 Z" fill="#000000" fill-rule="evenodd" fill-opacity="1" /><polyline clip-path="url(#clip142)" style="stroke:#009af9; stroke-linecap:butt; stroke-linejoin:round; stroke-width:4; stroke-opacity:1; fill:none" points="
  220.841,1751.15 236.137,1733.2 377.571,1567.22 462.568,1467.48 534.431,1383.14 612.494,1291.53 684.462,1207.08 761.619,1116.53 851.013,1011.62 930.456,918.396 
  1000.12,836.643 1038.1,792.077 1076.07,747.51 1095.17,725.095 1114.27,702.679 1133.38,680.264 1152.48,657.848 1157.76,651.652 1163.04,648.299 1168.32,648.299 
  1173.6,648.299 1184.15,648.299 1194.71,648.299 1215.83,648.299 1236.95,648.299 1277.14,648.299 1317.33,648.299 1400.9,648.299 1471.25,648.299 1514.19,648.299 
  1557.14,648.299 1576.81,648.299 1596.48,648.299 1616.15,648.299 1635.82,645.18 1653.98,634.52 1672.15,623.86 1690.32,613.201 1708.48,602.541 1745.29,580.946 
  1782.09,559.35 1864.59,510.945 1939.34,467.082 2024.93,416.862 2104.18,370.362 2182.3,324.519 2258.16,280.01 2335.92,234.382 2421.12,184.391 2544.88,111.771 
  2570.27,96.8724 
  "/>
<path clip-path="url(#clip140)" d="
M2228.6 209.375 L2557.74 209.375 L2557.74 105.695 L2228.6 105.695  Z
  " fill="#ffffff" fill-rule="evenodd" fill-opacity="1"/>
<polyline clip-path="url(#clip140)" style="stroke:#000000; stroke-linecap:butt; stroke-linejoin:round; stroke-width:4; stroke-opacity:1; fill:none" points="
  2228.6,209.375 2557.74,209.375 2557.74,105.695 2228.6,105.695 2228.6,209.375 
  "/>
<polyline clip-path="url(#clip140)" style="stroke:#009af9; stroke-linecap:butt; stroke-linejoin:round; stroke-width:4; stroke-opacity:1; fill:none" points="
  2256.27,157.535 2422.3,157.535 
  "/>
<path clip-path="url(#clip140)" d="M2463.81 177.223 Q2462.01 181.852 2460.29 183.264 Q2458.58 184.676 2455.71 184.676 L2452.31 184.676 L2452.31 181.112 L2454.81 181.112 Q2456.57 181.112 2457.54 180.278 Q2458.51 179.445 2459.69 176.343 L2460.46 174.399 L2449.97 148.889 L2454.48 148.889 L2462.59 169.167 L2470.69 148.889 L2475.2 148.889 L2463.81 177.223 Z" fill="#000000" fill-rule="evenodd" fill-opacity="1" /><path clip-path="url(#clip140)" d="M2482.49 170.88 L2490.13 170.88 L2490.13 144.515 L2481.82 146.181 L2481.82 141.922 L2490.09 140.255 L2494.76 140.255 L2494.76 170.88 L2502.4 170.88 L2502.4 174.815 L2482.49 174.815 L2482.49 170.88 Z" fill="#000000" fill-rule="evenodd" fill-opacity="1" /></svg>
