<?xml version="1.0" encoding="utf-8"?>
<svg xmlns="http://www.w3.org/2000/svg" xmlns:xlink="http://www.w3.org/1999/xlink" width="672" height="480" viewBox="0 0 2688 1920">
<defs>
  <clipPath id="clip590">
    <rect x="0" y="0" width="2688" height="1920"/>
  </clipPath>
</defs>
<path clip-path="url(#clip590)" d="
M0 1920 L2688 1920 L2688 0 L0 0  Z
  " fill="#ffffff" fill-rule="evenodd" fill-opacity="1"/>
<defs>
  <clipPath id="clip591">
    <rect x="537" y="0" width="1883" height="1883"/>
  </clipPath>
</defs>
<path clip-path="url(#clip590)" d="
M257.626 1800.78 L2640.76 1800.78 L2640.76 47.2441 L257.626 47.2441  Z
  " fill="#ffffff" fill-rule="evenodd" fill-opacity="1"/>
<defs>
  <clipPath id="clip592">
    <rect x="257" y="47" width="2384" height="1755"/>
  </clipPath>
</defs>
<polyline clip-path="url(#clip592)" style="stroke:#000000; stroke-linecap:butt; stroke-linejoin:round; stroke-width:2; stroke-opacity:0.1; fill:none" points="
  522.287,1800.78 522.287,47.2441 
  "/>
<polyline clip-path="url(#clip592)" style="stroke:#000000; stroke-linecap:butt; stroke-linejoin:round; stroke-width:2; stroke-opacity:0.1; fill:none" points="
  837.828,1800.78 837.828,47.2441 
  "/>
<polyline clip-path="url(#clip592)" style="stroke:#000000; stroke-linecap:butt; stroke-linejoin:round; stroke-width:2; stroke-opacity:0.1; fill:none" points="
  1153.37,1800.78 1153.37,47.2441 
  "/>
<polyline clip-path="url(#clip592)" style="stroke:#000000; stroke-linecap:butt; stroke-linejoin:round; stroke-width:2; stroke-opacity:0.1; fill:none" points="
  1468.91,1800.78 1468.91,47.2441 
  "/>
<polyline clip-path="url(#clip592)" style="stroke:#000000; stroke-linecap:butt; stroke-linejoin:round; stroke-width:2; stroke-opacity:0.1; fill:none" points="
  1784.45,1800.78 1784.45,47.2441 
  "/>
<polyline clip-path="url(#clip592)" style="stroke:#000000; stroke-linecap:butt; stroke-linejoin:round; stroke-width:2; stroke-opacity:0.1; fill:none" points="
  2100,1800.78 2100,47.2441 
  "/>
<polyline clip-path="url(#clip592)" style="stroke:#000000; stroke-linecap:butt; stroke-linejoin:round; stroke-width:2; stroke-opacity:0.1; fill:none" points="
  2415.54,1800.78 2415.54,47.2441 
  "/>
<polyline clip-path="url(#clip590)" style="stroke:#000000; stroke-linecap:butt; stroke-linejoin:round; stroke-width:4; stroke-opacity:1; fill:none" points="
  257.626,1800.78 2640.76,1800.78 
  "/>
<polyline clip-path="url(#clip590)" style="stroke:#000000; stroke-linecap:butt; stroke-linejoin:round; stroke-width:4; stroke-opacity:1; fill:none" points="
  522.287,1800.78 522.287,1781.88 
  "/>
<polyline clip-path="url(#clip590)" style="stroke:#000000; stroke-linecap:butt; stroke-linejoin:round; stroke-width:4; stroke-opacity:1; fill:none" points="
  837.828,1800.78 837.828,1781.88 
  "/>
<polyline clip-path="url(#clip590)" style="stroke:#000000; stroke-linecap:butt; stroke-linejoin:round; stroke-width:4; stroke-opacity:1; fill:none" points="
  1153.37,1800.78 1153.37,1781.88 
  "/>
<polyline clip-path="url(#clip590)" style="stroke:#000000; stroke-linecap:butt; stroke-linejoin:round; stroke-width:4; stroke-opacity:1; fill:none" points="
  1468.91,1800.78 1468.91,1781.88 
  "/>
<polyline clip-path="url(#clip590)" style="stroke:#000000; stroke-linecap:butt; stroke-linejoin:round; stroke-width:4; stroke-opacity:1; fill:none" points="
  1784.45,1800.78 1784.45,1781.88 
  "/>
<polyline clip-path="url(#clip590)" style="stroke:#000000; stroke-linecap:butt; stroke-linejoin:round; stroke-width:4; stroke-opacity:1; fill:none" points="
  2100,1800.78 2100,1781.88 
  "/>
<polyline clip-path="url(#clip590)" style="stroke:#000000; stroke-linecap:butt; stroke-linejoin:round; stroke-width:4; stroke-opacity:1; fill:none" points="
  2415.54,1800.78 2415.54,1781.88 
  "/>
<path clip-path="url(#clip590)" d="M485.979 1861.55 L502.298 1861.55 L502.298 1865.48 L480.354 1865.48 L480.354 1861.55 Q483.016 1858.79 487.599 1854.16 Q492.206 1849.51 493.386 1848.17 Q495.632 1845.65 496.511 1843.91 Q497.414 1842.15 497.414 1840.46 Q497.414 1837.71 495.47 1835.97 Q493.548 1834.23 490.447 1834.23 Q488.247 1834.23 485.794 1835 Q483.363 1835.76 480.585 1837.31 L480.585 1832.59 Q483.41 1831.46 485.863 1830.88 Q488.317 1830.3 490.354 1830.3 Q495.724 1830.3 498.919 1832.98 Q502.113 1835.67 502.113 1840.16 Q502.113 1842.29 501.303 1844.21 Q500.516 1846.11 498.409 1848.7 Q497.831 1849.37 494.729 1852.59 Q491.627 1855.78 485.979 1861.55 Z" fill="#000000" fill-rule="evenodd" fill-opacity="1" /><path clip-path="url(#clip590)" d="M522.113 1834 Q518.502 1834 516.673 1837.57 Q514.868 1841.11 514.868 1848.24 Q514.868 1855.34 516.673 1858.91 Q518.502 1862.45 522.113 1862.45 Q525.747 1862.45 527.553 1858.91 Q529.381 1855.34 529.381 1848.24 Q529.381 1841.11 527.553 1837.57 Q525.747 1834 522.113 1834 M522.113 1830.3 Q527.923 1830.3 530.979 1834.9 Q534.057 1839.49 534.057 1848.24 Q534.057 1856.96 530.979 1861.57 Q527.923 1866.15 522.113 1866.15 Q516.303 1866.15 513.224 1861.57 Q510.169 1856.96 510.169 1848.24 Q510.169 1839.49 513.224 1834.9 Q516.303 1830.3 522.113 1830.3 Z" fill="#000000" fill-rule="evenodd" fill-opacity="1" /><path clip-path="url(#clip590)" d="M552.275 1834 Q548.664 1834 546.835 1837.57 Q545.03 1841.11 545.03 1848.24 Q545.03 1855.34 546.835 1858.91 Q548.664 1862.45 552.275 1862.45 Q555.909 1862.45 557.715 1858.91 Q559.543 1855.34 559.543 1848.24 Q559.543 1841.11 557.715 1837.57 Q555.909 1834 552.275 1834 M552.275 1830.3 Q558.085 1830.3 561.141 1834.9 Q564.219 1839.49 564.219 1848.24 Q564.219 1856.96 561.141 1861.57 Q558.085 1866.15 552.275 1866.15 Q546.465 1866.15 543.386 1861.57 Q540.33 1856.96 540.33 1848.24 Q540.33 1839.49 543.386 1834.9 Q546.465 1830.3 552.275 1830.3 Z" fill="#000000" fill-rule="evenodd" fill-opacity="1" /><path clip-path="url(#clip590)" d="M810.919 1835 L799.113 1853.45 L810.919 1853.45 L810.919 1835 M809.692 1830.92 L815.572 1830.92 L815.572 1853.45 L820.502 1853.45 L820.502 1857.34 L815.572 1857.34 L815.572 1865.48 L810.919 1865.48 L810.919 1857.34 L795.317 1857.34 L795.317 1852.82 L809.692 1830.92 Z" fill="#000000" fill-rule="evenodd" fill-opacity="1" /><path clip-path="url(#clip590)" d="M838.234 1834 Q834.622 1834 832.794 1837.57 Q830.988 1841.11 830.988 1848.24 Q830.988 1855.34 832.794 1858.91 Q834.622 1862.45 838.234 1862.45 Q841.868 1862.45 843.673 1858.91 Q845.502 1855.34 845.502 1848.24 Q845.502 1841.11 843.673 1837.57 Q841.868 1834 838.234 1834 M838.234 1830.3 Q844.044 1830.3 847.099 1834.9 Q850.178 1839.49 850.178 1848.24 Q850.178 1856.96 847.099 1861.57 Q844.044 1866.15 838.234 1866.15 Q832.423 1866.15 829.345 1861.57 Q826.289 1856.96 826.289 1848.24 Q826.289 1839.49 829.345 1834.9 Q832.423 1830.3 838.234 1830.3 Z" fill="#000000" fill-rule="evenodd" fill-opacity="1" /><path clip-path="url(#clip590)" d="M868.395 1834 Q864.784 1834 862.956 1837.57 Q861.15 1841.11 861.15 1848.24 Q861.15 1855.34 862.956 1858.91 Q864.784 1862.45 868.395 1862.45 Q872.03 1862.45 873.835 1858.91 Q875.664 1855.34 875.664 1848.24 Q875.664 1841.11 873.835 1837.57 Q872.03 1834 868.395 1834 M868.395 1830.3 Q874.206 1830.3 877.261 1834.9 Q880.34 1839.49 880.34 1848.24 Q880.34 1856.96 877.261 1861.57 Q874.206 1866.15 868.395 1866.15 Q862.585 1866.15 859.507 1861.57 Q856.451 1856.96 856.451 1848.24 Q856.451 1839.49 859.507 1834.9 Q862.585 1830.3 868.395 1830.3 Z" fill="#000000" fill-rule="evenodd" fill-opacity="1" /><path clip-path="url(#clip590)" d="M1123.69 1846.34 Q1120.55 1846.34 1118.69 1848.49 Q1116.87 1850.65 1116.87 1854.4 Q1116.87 1858.12 1118.69 1860.3 Q1120.55 1862.45 1123.69 1862.45 Q1126.84 1862.45 1128.67 1860.3 Q1130.52 1858.12 1130.52 1854.4 Q1130.52 1850.65 1128.67 1848.49 Q1126.84 1846.34 1123.69 1846.34 M1132.98 1831.69 L1132.98 1835.95 Q1131.22 1835.11 1129.41 1834.67 Q1127.63 1834.23 1125.87 1834.23 Q1121.24 1834.23 1118.79 1837.36 Q1116.36 1840.48 1116.01 1846.8 Q1117.38 1844.79 1119.44 1843.72 Q1121.5 1842.64 1123.97 1842.64 Q1129.18 1842.64 1132.19 1845.81 Q1135.22 1848.96 1135.22 1854.4 Q1135.22 1859.72 1132.07 1862.94 Q1128.93 1866.15 1123.69 1866.15 Q1117.7 1866.15 1114.53 1861.57 Q1111.36 1856.96 1111.36 1848.24 Q1111.36 1840.04 1115.25 1835.18 Q1119.13 1830.3 1125.69 1830.3 Q1127.44 1830.3 1129.23 1830.65 Q1131.03 1830.99 1132.98 1831.69 Z" fill="#000000" fill-rule="evenodd" fill-opacity="1" /><path clip-path="url(#clip590)" d="M1153.28 1834 Q1149.67 1834 1147.84 1837.57 Q1146.03 1841.11 1146.03 1848.24 Q1146.03 1855.34 1147.84 1858.91 Q1149.67 1862.45 1153.28 1862.45 Q1156.91 1862.45 1158.72 1858.91 Q1160.55 1855.34 1160.55 1848.24 Q1160.55 1841.11 1158.72 1837.57 Q1156.91 1834 1153.28 1834 M1153.28 1830.3 Q1159.09 1830.3 1162.14 1834.9 Q1165.22 1839.49 1165.22 1848.24 Q1165.22 1856.96 1162.14 1861.57 Q1159.09 1866.15 1153.28 1866.15 Q1147.47 1866.15 1144.39 1861.57 Q1141.33 1856.96 1141.33 1848.24 Q1141.33 1839.49 1144.39 1834.9 Q1147.47 1830.3 1153.28 1830.3 Z" fill="#000000" fill-rule="evenodd" fill-opacity="1" /><path clip-path="url(#clip590)" d="M1183.44 1834 Q1179.83 1834 1178 1837.57 Q1176.19 1841.11 1176.19 1848.24 Q1176.19 1855.34 1178 1858.91 Q1179.83 1862.45 1183.44 1862.45 Q1187.07 1862.45 1188.88 1858.91 Q1190.71 1855.34 1190.71 1848.24 Q1190.71 1841.11 1188.88 1837.57 Q1187.07 1834 1183.44 1834 M1183.44 1830.3 Q1189.25 1830.3 1192.31 1834.9 Q1195.38 1839.49 1195.38 1848.24 Q1195.38 1856.96 1192.31 1861.57 Q1189.25 1866.15 1183.44 1866.15 Q1177.63 1866.15 1174.55 1861.57 Q1171.5 1856.96 1171.5 1848.24 Q1171.5 1839.49 1174.55 1834.9 Q1177.63 1830.3 1183.44 1830.3 Z" fill="#000000" fill-rule="evenodd" fill-opacity="1" /><path clip-path="url(#clip590)" d="M1438.7 1849.07 Q1435.37 1849.07 1433.45 1850.85 Q1431.55 1852.64 1431.55 1855.76 Q1431.55 1858.89 1433.45 1860.67 Q1435.37 1862.45 1438.7 1862.45 Q1442.04 1862.45 1443.96 1860.67 Q1445.88 1858.86 1445.88 1855.76 Q1445.88 1852.64 1443.96 1850.85 Q1442.06 1849.07 1438.7 1849.07 M1434.03 1847.08 Q1431.02 1846.34 1429.33 1844.28 Q1427.66 1842.22 1427.66 1839.26 Q1427.66 1835.11 1430.6 1832.71 Q1433.57 1830.3 1438.7 1830.3 Q1443.87 1830.3 1446.81 1832.71 Q1449.75 1835.11 1449.75 1839.26 Q1449.75 1842.22 1448.06 1844.28 Q1446.39 1846.34 1443.4 1847.08 Q1446.78 1847.87 1448.66 1850.16 Q1450.56 1852.45 1450.56 1855.76 Q1450.56 1860.78 1447.48 1863.47 Q1444.42 1866.15 1438.7 1866.15 Q1432.99 1866.15 1429.91 1863.47 Q1426.85 1860.78 1426.85 1855.76 Q1426.85 1852.45 1428.75 1850.16 Q1430.65 1847.87 1434.03 1847.08 M1432.32 1839.7 Q1432.32 1842.38 1433.98 1843.89 Q1435.67 1845.39 1438.7 1845.39 Q1441.71 1845.39 1443.4 1843.89 Q1445.12 1842.38 1445.12 1839.7 Q1445.12 1837.01 1443.4 1835.51 Q1441.71 1834 1438.7 1834 Q1435.67 1834 1433.98 1835.51 Q1432.32 1837.01 1432.32 1839.7 Z" fill="#000000" fill-rule="evenodd" fill-opacity="1" /><path clip-path="url(#clip590)" d="M1468.87 1834 Q1465.25 1834 1463.43 1837.57 Q1461.62 1841.11 1461.62 1848.24 Q1461.62 1855.34 1463.43 1858.91 Q1465.25 1862.45 1468.87 1862.45 Q1472.5 1862.45 1474.31 1858.91 Q1476.13 1855.34 1476.13 1848.24 Q1476.13 1841.11 1474.31 1837.57 Q1472.5 1834 1468.87 1834 M1468.87 1830.3 Q1474.68 1830.3 1477.73 1834.9 Q1480.81 1839.49 1480.81 1848.24 Q1480.81 1856.96 1477.73 1861.57 Q1474.68 1866.15 1468.87 1866.15 Q1463.06 1866.15 1459.98 1861.57 Q1456.92 1856.96 1456.92 1848.24 Q1456.92 1839.49 1459.98 1834.9 Q1463.06 1830.3 1468.87 1830.3 Z" fill="#000000" fill-rule="evenodd" fill-opacity="1" /><path clip-path="url(#clip590)" d="M1499.03 1834 Q1495.42 1834 1493.59 1837.57 Q1491.78 1841.11 1491.78 1848.24 Q1491.78 1855.34 1493.59 1858.91 Q1495.42 1862.45 1499.03 1862.45 Q1502.66 1862.45 1504.47 1858.91 Q1506.3 1855.34 1506.3 1848.24 Q1506.3 1841.11 1504.47 1837.57 Q1502.66 1834 1499.03 1834 M1499.03 1830.3 Q1504.84 1830.3 1507.89 1834.9 Q1510.97 1839.49 1510.97 1848.24 Q1510.97 1856.96 1507.89 1861.57 Q1504.84 1866.15 1499.03 1866.15 Q1493.22 1866.15 1490.14 1861.57 Q1487.08 1856.96 1487.08 1848.24 Q1487.08 1839.49 1490.14 1834.9 Q1493.22 1830.3 1499.03 1830.3 Z" fill="#000000" fill-rule="evenodd" fill-opacity="1" /><path clip-path="url(#clip590)" d="M1728.98 1861.55 L1736.62 1861.55 L1736.62 1835.18 L1728.31 1836.85 L1728.31 1832.59 L1736.57 1830.92 L1741.25 1830.92 L1741.25 1861.55 L1748.89 1861.55 L1748.89 1865.48 L1728.98 1865.48 L1728.98 1861.55 Z" fill="#000000" fill-rule="evenodd" fill-opacity="1" /><path clip-path="url(#clip590)" d="M1768.33 1834 Q1764.72 1834 1762.89 1837.57 Q1761.09 1841.11 1761.09 1848.24 Q1761.09 1855.34 1762.89 1858.91 Q1764.72 1862.45 1768.33 1862.45 Q1771.97 1862.45 1773.77 1858.91 Q1775.6 1855.34 1775.6 1848.24 Q1775.6 1841.11 1773.77 1837.57 Q1771.97 1834 1768.33 1834 M1768.33 1830.3 Q1774.14 1830.3 1777.2 1834.9 Q1780.28 1839.49 1780.28 1848.24 Q1780.28 1856.96 1777.2 1861.57 Q1774.14 1866.15 1768.33 1866.15 Q1762.52 1866.15 1759.44 1861.57 Q1756.39 1856.96 1756.39 1848.24 Q1756.39 1839.49 1759.44 1834.9 Q1762.52 1830.3 1768.33 1830.3 Z" fill="#000000" fill-rule="evenodd" fill-opacity="1" /><path clip-path="url(#clip590)" d="M1798.49 1834 Q1794.88 1834 1793.05 1837.57 Q1791.25 1841.11 1791.25 1848.24 Q1791.25 1855.34 1793.05 1858.91 Q1794.88 1862.45 1798.49 1862.45 Q1802.13 1862.45 1803.93 1858.91 Q1805.76 1855.34 1805.76 1848.24 Q1805.76 1841.11 1803.93 1837.57 Q1802.13 1834 1798.49 1834 M1798.49 1830.3 Q1804.3 1830.3 1807.36 1834.9 Q1810.44 1839.49 1810.44 1848.24 Q1810.44 1856.96 1807.36 1861.57 Q1804.3 1866.15 1798.49 1866.15 Q1792.68 1866.15 1789.6 1861.57 Q1786.55 1856.96 1786.55 1848.24 Q1786.55 1839.49 1789.6 1834.9 Q1792.68 1830.3 1798.49 1830.3 Z" fill="#000000" fill-rule="evenodd" fill-opacity="1" /><path clip-path="url(#clip590)" d="M1828.66 1834 Q1825.04 1834 1823.22 1837.57 Q1821.41 1841.11 1821.41 1848.24 Q1821.41 1855.34 1823.22 1858.91 Q1825.04 1862.45 1828.66 1862.45 Q1832.29 1862.45 1834.1 1858.91 Q1835.92 1855.34 1835.92 1848.24 Q1835.92 1841.11 1834.1 1837.57 Q1832.29 1834 1828.66 1834 M1828.66 1830.3 Q1834.47 1830.3 1837.52 1834.9 Q1840.6 1839.49 1840.6 1848.24 Q1840.6 1856.96 1837.52 1861.57 Q1834.47 1866.15 1828.66 1866.15 Q1822.85 1866.15 1819.77 1861.57 Q1816.71 1856.96 1816.71 1848.24 Q1816.71 1839.49 1819.77 1834.9 Q1822.85 1830.3 1828.66 1830.3 Z" fill="#000000" fill-rule="evenodd" fill-opacity="1" /><path clip-path="url(#clip590)" d="M2044.52 1861.55 L2052.16 1861.55 L2052.16 1835.18 L2043.85 1836.85 L2043.85 1832.59 L2052.11 1830.92 L2056.79 1830.92 L2056.79 1861.55 L2064.43 1861.55 L2064.43 1865.48 L2044.52 1865.48 L2044.52 1861.55 Z" fill="#000000" fill-rule="evenodd" fill-opacity="1" /><path clip-path="url(#clip590)" d="M2077.9 1861.55 L2094.22 1861.55 L2094.22 1865.48 L2072.28 1865.48 L2072.28 1861.55 Q2074.94 1858.79 2079.52 1854.16 Q2084.13 1849.51 2085.31 1848.17 Q2087.55 1845.65 2088.43 1843.91 Q2089.34 1842.15 2089.34 1840.46 Q2089.34 1837.71 2087.39 1835.97 Q2085.47 1834.23 2082.37 1834.23 Q2080.17 1834.23 2077.72 1835 Q2075.29 1835.76 2072.51 1837.31 L2072.51 1832.59 Q2075.33 1831.46 2077.79 1830.88 Q2080.24 1830.3 2082.28 1830.3 Q2087.65 1830.3 2090.84 1832.98 Q2094.04 1835.67 2094.04 1840.16 Q2094.04 1842.29 2093.23 1844.21 Q2092.44 1846.11 2090.33 1848.7 Q2089.75 1849.37 2086.65 1852.59 Q2083.55 1855.78 2077.9 1861.55 Z" fill="#000000" fill-rule="evenodd" fill-opacity="1" /><path clip-path="url(#clip590)" d="M2114.04 1834 Q2110.42 1834 2108.6 1837.57 Q2106.79 1841.11 2106.79 1848.24 Q2106.79 1855.34 2108.6 1858.91 Q2110.42 1862.45 2114.04 1862.45 Q2117.67 1862.45 2119.48 1858.91 Q2121.3 1855.34 2121.3 1848.24 Q2121.3 1841.11 2119.48 1837.57 Q2117.67 1834 2114.04 1834 M2114.04 1830.3 Q2119.85 1830.3 2122.9 1834.9 Q2125.98 1839.49 2125.98 1848.24 Q2125.98 1856.96 2122.9 1861.57 Q2119.85 1866.15 2114.04 1866.15 Q2108.23 1866.15 2105.15 1861.57 Q2102.09 1856.96 2102.09 1848.24 Q2102.09 1839.49 2105.15 1834.9 Q2108.23 1830.3 2114.04 1830.3 Z" fill="#000000" fill-rule="evenodd" fill-opacity="1" /><path clip-path="url(#clip590)" d="M2144.2 1834 Q2140.59 1834 2138.76 1837.57 Q2136.95 1841.11 2136.95 1848.24 Q2136.95 1855.34 2138.76 1858.91 Q2140.59 1862.45 2144.2 1862.45 Q2147.83 1862.45 2149.64 1858.91 Q2151.47 1855.34 2151.47 1848.24 Q2151.47 1841.11 2149.64 1837.57 Q2147.83 1834 2144.2 1834 M2144.2 1830.3 Q2150.01 1830.3 2153.06 1834.9 Q2156.14 1839.49 2156.14 1848.24 Q2156.14 1856.96 2153.06 1861.57 Q2150.01 1866.15 2144.2 1866.15 Q2138.39 1866.15 2135.31 1861.57 Q2132.25 1856.96 2132.25 1848.24 Q2132.25 1839.49 2135.31 1834.9 Q2138.39 1830.3 2144.2 1830.3 Z" fill="#000000" fill-rule="evenodd" fill-opacity="1" /><path clip-path="url(#clip590)" d="M2360.06 1861.55 L2367.7 1861.55 L2367.7 1835.18 L2359.39 1836.85 L2359.39 1832.59 L2367.66 1830.92 L2372.33 1830.92 L2372.33 1861.55 L2379.97 1861.55 L2379.97 1865.48 L2360.06 1865.48 L2360.06 1861.55 Z" fill="#000000" fill-rule="evenodd" fill-opacity="1" /><path clip-path="url(#clip590)" d="M2402.26 1835 L2390.46 1853.45 L2402.26 1853.45 L2402.26 1835 M2401.04 1830.92 L2406.92 1830.92 L2406.92 1853.45 L2411.85 1853.45 L2411.85 1857.34 L2406.92 1857.34 L2406.92 1865.48 L2402.26 1865.48 L2402.26 1857.34 L2386.66 1857.34 L2386.66 1852.82 L2401.04 1830.92 Z" fill="#000000" fill-rule="evenodd" fill-opacity="1" /><path clip-path="url(#clip590)" d="M2429.58 1834 Q2425.97 1834 2424.14 1837.57 Q2422.33 1841.11 2422.33 1848.24 Q2422.33 1855.34 2424.14 1858.91 Q2425.97 1862.45 2429.58 1862.45 Q2433.21 1862.45 2435.02 1858.91 Q2436.85 1855.34 2436.85 1848.24 Q2436.85 1841.11 2435.02 1837.57 Q2433.21 1834 2429.58 1834 M2429.58 1830.3 Q2435.39 1830.3 2438.44 1834.9 Q2441.52 1839.49 2441.52 1848.24 Q2441.52 1856.96 2438.44 1861.57 Q2435.39 1866.15 2429.58 1866.15 Q2423.77 1866.15 2420.69 1861.57 Q2417.63 1856.96 2417.63 1848.24 Q2417.63 1839.49 2420.69 1834.9 Q2423.77 1830.3 2429.58 1830.3 Z" fill="#000000" fill-rule="evenodd" fill-opacity="1" /><path clip-path="url(#clip590)" d="M2459.74 1834 Q2456.13 1834 2454.3 1837.57 Q2452.49 1841.11 2452.49 1848.24 Q2452.49 1855.34 2454.3 1858.91 Q2456.13 1862.45 2459.74 1862.45 Q2463.37 1862.45 2465.18 1858.91 Q2467.01 1855.34 2467.01 1848.24 Q2467.01 1841.11 2465.18 1837.57 Q2463.37 1834 2459.74 1834 M2459.74 1830.3 Q2465.55 1830.3 2468.6 1834.9 Q2471.68 1839.49 2471.68 1848.24 Q2471.68 1856.96 2468.6 1861.57 Q2465.55 1866.15 2459.74 1866.15 Q2453.93 1866.15 2450.85 1861.57 Q2447.79 1856.96 2447.79 1848.24 Q2447.79 1839.49 2450.85 1834.9 Q2453.93 1830.3 2459.74 1830.3 Z" fill="#000000" fill-rule="evenodd" fill-opacity="1" /><polyline clip-path="url(#clip592)" style="stroke:#000000; stroke-linecap:butt; stroke-linejoin:round; stroke-width:2; stroke-opacity:0.1; fill:none" points="
  257.626,1787.31 2640.76,1787.31 
  "/>
<polyline clip-path="url(#clip592)" style="stroke:#000000; stroke-linecap:butt; stroke-linejoin:round; stroke-width:2; stroke-opacity:0.1; fill:none" points="
  257.626,1346.99 2640.76,1346.99 
  "/>
<polyline clip-path="url(#clip592)" style="stroke:#000000; stroke-linecap:butt; stroke-linejoin:round; stroke-width:2; stroke-opacity:0.1; fill:none" points="
  257.626,906.661 2640.76,906.661 
  "/>
<polyline clip-path="url(#clip592)" style="stroke:#000000; stroke-linecap:butt; stroke-linejoin:round; stroke-width:2; stroke-opacity:0.1; fill:none" points="
  257.626,466.336 2640.76,466.336 
  "/>
<polyline clip-path="url(#clip590)" style="stroke:#000000; stroke-linecap:butt; stroke-linejoin:round; stroke-width:4; stroke-opacity:1; fill:none" points="
  257.626,1800.78 257.626,47.2441 
  "/>
<polyline clip-path="url(#clip590)" style="stroke:#000000; stroke-linecap:butt; stroke-linejoin:round; stroke-width:4; stroke-opacity:1; fill:none" points="
  257.626,1787.31 276.523,1787.31 
  "/>
<polyline clip-path="url(#clip590)" style="stroke:#000000; stroke-linecap:butt; stroke-linejoin:round; stroke-width:4; stroke-opacity:1; fill:none" points="
  257.626,1346.99 276.523,1346.99 
  "/>
<polyline clip-path="url(#clip590)" style="stroke:#000000; stroke-linecap:butt; stroke-linejoin:round; stroke-width:4; stroke-opacity:1; fill:none" points="
  257.626,906.661 276.523,906.661 
  "/>
<polyline clip-path="url(#clip590)" style="stroke:#000000; stroke-linecap:butt; stroke-linejoin:round; stroke-width:4; stroke-opacity:1; fill:none" points="
  257.626,466.336 276.523,466.336 
  "/>
<path clip-path="url(#clip590)" d="M49.5521 1787.76 L79.2279 1787.76 L79.2279 1791.7 L49.5521 1791.7 L49.5521 1787.76 Z" fill="#000000" fill-rule="evenodd" fill-opacity="1" /><path clip-path="url(#clip590)" d="M99.3204 1773.11 Q95.7093 1773.11 93.8806 1776.67 Q92.075 1780.22 92.075 1787.34 Q92.075 1794.45 93.8806 1798.02 Q95.7093 1801.56 99.3204 1801.56 Q102.955 1801.56 104.76 1798.02 Q106.589 1794.45 106.589 1787.34 Q106.589 1780.22 104.76 1776.67 Q102.955 1773.11 99.3204 1773.11 M99.3204 1769.41 Q105.131 1769.41 108.186 1774.01 Q111.265 1778.59 111.265 1787.34 Q111.265 1796.07 108.186 1800.68 Q105.131 1805.26 99.3204 1805.26 Q93.5102 1805.26 90.4315 1800.68 Q87.376 1796.07 87.376 1787.34 Q87.376 1778.59 90.4315 1774.01 Q93.5102 1769.41 99.3204 1769.41 Z" fill="#000000" fill-rule="evenodd" fill-opacity="1" /><path clip-path="url(#clip590)" d="M119.482 1798.71 L124.367 1798.71 L124.367 1804.59 L119.482 1804.59 L119.482 1798.71 Z" fill="#000000" fill-rule="evenodd" fill-opacity="1" /><path clip-path="url(#clip590)" d="M144.552 1773.11 Q140.941 1773.11 139.112 1776.67 Q137.306 1780.22 137.306 1787.34 Q137.306 1794.45 139.112 1798.02 Q140.941 1801.56 144.552 1801.56 Q148.186 1801.56 149.991 1798.02 Q151.82 1794.45 151.82 1787.34 Q151.82 1780.22 149.991 1776.67 Q148.186 1773.11 144.552 1773.11 M144.552 1769.41 Q150.362 1769.41 153.417 1774.01 Q156.496 1778.59 156.496 1787.34 Q156.496 1796.07 153.417 1800.68 Q150.362 1805.26 144.552 1805.26 Q138.741 1805.26 135.663 1800.68 Q132.607 1796.07 132.607 1787.34 Q132.607 1778.59 135.663 1774.01 Q138.741 1769.41 144.552 1769.41 Z" fill="#000000" fill-rule="evenodd" fill-opacity="1" /><path clip-path="url(#clip590)" d="M174.713 1773.11 Q171.102 1773.11 169.274 1776.67 Q167.468 1780.22 167.468 1787.34 Q167.468 1794.45 169.274 1798.02 Q171.102 1801.56 174.713 1801.56 Q178.348 1801.56 180.153 1798.02 Q181.982 1794.45 181.982 1787.34 Q181.982 1780.22 180.153 1776.67 Q178.348 1773.11 174.713 1773.11 M174.713 1769.41 Q180.524 1769.41 183.579 1774.01 Q186.658 1778.59 186.658 1787.34 Q186.658 1796.07 183.579 1800.68 Q180.524 1805.26 174.713 1805.26 Q168.903 1805.26 165.825 1800.68 Q162.769 1796.07 162.769 1787.34 Q162.769 1778.59 165.825 1774.01 Q168.903 1769.41 174.713 1769.41 Z" fill="#000000" fill-rule="evenodd" fill-opacity="1" /><path clip-path="url(#clip590)" d="M207.723 1774.1 L195.917 1792.55 L207.723 1792.55 L207.723 1774.1 M206.496 1770.03 L212.375 1770.03 L212.375 1792.55 L217.306 1792.55 L217.306 1796.44 L212.375 1796.44 L212.375 1804.59 L207.723 1804.59 L207.723 1796.44 L192.121 1796.44 L192.121 1791.93 L206.496 1770.03 Z" fill="#000000" fill-rule="evenodd" fill-opacity="1" /><path clip-path="url(#clip590)" d="M51.6354 1347.44 L81.3112 1347.44 L81.3112 1351.37 L51.6354 1351.37 L51.6354 1347.44 Z" fill="#000000" fill-rule="evenodd" fill-opacity="1" /><path clip-path="url(#clip590)" d="M101.404 1332.78 Q97.7926 1332.78 95.9639 1336.35 Q94.1584 1339.89 94.1584 1347.02 Q94.1584 1354.13 95.9639 1357.69 Q97.7926 1361.23 101.404 1361.23 Q105.038 1361.23 106.843 1357.69 Q108.672 1354.13 108.672 1347.02 Q108.672 1339.89 106.843 1336.35 Q105.038 1332.78 101.404 1332.78 M101.404 1329.08 Q107.214 1329.08 110.269 1333.69 Q113.348 1338.27 113.348 1347.02 Q113.348 1355.75 110.269 1360.35 Q107.214 1364.94 101.404 1364.94 Q95.5935 1364.94 92.5149 1360.35 Q89.4593 1355.75 89.4593 1347.02 Q89.4593 1338.27 92.5149 1333.69 Q95.5935 1329.08 101.404 1329.08 Z" fill="#000000" fill-rule="evenodd" fill-opacity="1" /><path clip-path="url(#clip590)" d="M121.566 1358.39 L126.45 1358.39 L126.45 1364.27 L121.566 1364.27 L121.566 1358.39 Z" fill="#000000" fill-rule="evenodd" fill-opacity="1" /><path clip-path="url(#clip590)" d="M146.635 1332.78 Q143.024 1332.78 141.195 1336.35 Q139.39 1339.89 139.39 1347.02 Q139.39 1354.13 141.195 1357.69 Q143.024 1361.23 146.635 1361.23 Q150.269 1361.23 152.075 1357.69 Q153.903 1354.13 153.903 1347.02 Q153.903 1339.89 152.075 1336.35 Q150.269 1332.78 146.635 1332.78 M146.635 1329.08 Q152.445 1329.08 155.501 1333.69 Q158.579 1338.27 158.579 1347.02 Q158.579 1355.75 155.501 1360.35 Q152.445 1364.94 146.635 1364.94 Q140.825 1364.94 137.746 1360.35 Q134.691 1355.75 134.691 1347.02 Q134.691 1338.27 137.746 1333.69 Q140.825 1329.08 146.635 1329.08 Z" fill="#000000" fill-rule="evenodd" fill-opacity="1" /><path clip-path="url(#clip590)" d="M176.797 1332.78 Q173.186 1332.78 171.357 1336.35 Q169.551 1339.89 169.551 1347.02 Q169.551 1354.13 171.357 1357.69 Q173.186 1361.23 176.797 1361.23 Q180.431 1361.23 182.237 1357.69 Q184.065 1354.13 184.065 1347.02 Q184.065 1339.89 182.237 1336.35 Q180.431 1332.78 176.797 1332.78 M176.797 1329.08 Q182.607 1329.08 185.663 1333.69 Q188.741 1338.27 188.741 1347.02 Q188.741 1355.75 185.663 1360.35 Q182.607 1364.94 176.797 1364.94 Q170.987 1364.94 167.908 1360.35 Q164.852 1355.75 164.852 1347.02 Q164.852 1338.27 167.908 1333.69 Q170.987 1329.08 176.797 1329.08 Z" fill="#000000" fill-rule="evenodd" fill-opacity="1" /><path clip-path="url(#clip590)" d="M200.986 1360.33 L217.306 1360.33 L217.306 1364.27 L195.362 1364.27 L195.362 1360.33 Q198.024 1357.58 202.607 1352.95 Q207.213 1348.29 208.394 1346.95 Q210.639 1344.43 211.519 1342.69 Q212.422 1340.93 212.422 1339.24 Q212.422 1336.49 210.477 1334.75 Q208.556 1333.02 205.454 1333.02 Q203.255 1333.02 200.801 1333.78 Q198.371 1334.54 195.593 1336.09 L195.593 1331.37 Q198.417 1330.24 200.871 1329.66 Q203.324 1329.08 205.361 1329.08 Q210.732 1329.08 213.926 1331.77 Q217.121 1334.45 217.121 1338.94 Q217.121 1341.07 216.31 1342.99 Q215.523 1344.89 213.417 1347.48 Q212.838 1348.15 209.736 1351.37 Q206.635 1354.57 200.986 1360.33 Z" fill="#000000" fill-rule="evenodd" fill-opacity="1" /><path clip-path="url(#clip590)" d="M99.8065 892.459 Q96.1954 892.459 94.3667 896.024 Q92.5612 899.566 92.5612 906.695 Q92.5612 913.802 94.3667 917.367 Q96.1954 920.908 99.8065 920.908 Q103.441 920.908 105.246 917.367 Q107.075 913.802 107.075 906.695 Q107.075 899.566 105.246 896.024 Q103.441 892.459 99.8065 892.459 M99.8065 888.756 Q105.617 888.756 108.672 893.362 Q111.751 897.945 111.751 906.695 Q111.751 915.422 108.672 920.029 Q105.617 924.612 99.8065 924.612 Q93.9963 924.612 90.9176 920.029 Q87.8621 915.422 87.8621 906.695 Q87.8621 897.945 90.9176 893.362 Q93.9963 888.756 99.8065 888.756 Z" fill="#000000" fill-rule="evenodd" fill-opacity="1" /><path clip-path="url(#clip590)" d="M119.968 918.061 L124.853 918.061 L124.853 923.941 L119.968 923.941 L119.968 918.061 Z" fill="#000000" fill-rule="evenodd" fill-opacity="1" /><path clip-path="url(#clip590)" d="M145.038 892.459 Q141.427 892.459 139.598 896.024 Q137.792 899.566 137.792 906.695 Q137.792 913.802 139.598 917.367 Q141.427 920.908 145.038 920.908 Q148.672 920.908 150.478 917.367 Q152.306 913.802 152.306 906.695 Q152.306 899.566 150.478 896.024 Q148.672 892.459 145.038 892.459 M145.038 888.756 Q150.848 888.756 153.903 893.362 Q156.982 897.945 156.982 906.695 Q156.982 915.422 153.903 920.029 Q150.848 924.612 145.038 924.612 Q139.228 924.612 136.149 920.029 Q133.093 915.422 133.093 906.695 Q133.093 897.945 136.149 893.362 Q139.228 888.756 145.038 888.756 Z" fill="#000000" fill-rule="evenodd" fill-opacity="1" /><path clip-path="url(#clip590)" d="M175.2 892.459 Q171.589 892.459 169.76 896.024 Q167.954 899.566 167.954 906.695 Q167.954 913.802 169.76 917.367 Q171.589 920.908 175.2 920.908 Q178.834 920.908 180.639 917.367 Q182.468 913.802 182.468 906.695 Q182.468 899.566 180.639 896.024 Q178.834 892.459 175.2 892.459 M175.2 888.756 Q181.01 888.756 184.065 893.362 Q187.144 897.945 187.144 906.695 Q187.144 915.422 184.065 920.029 Q181.01 924.612 175.2 924.612 Q169.389 924.612 166.311 920.029 Q163.255 915.422 163.255 906.695 Q163.255 897.945 166.311 893.362 Q169.389 888.756 175.2 888.756 Z" fill="#000000" fill-rule="evenodd" fill-opacity="1" /><path clip-path="url(#clip590)" d="M205.361 892.459 Q201.75 892.459 199.922 896.024 Q198.116 899.566 198.116 906.695 Q198.116 913.802 199.922 917.367 Q201.75 920.908 205.361 920.908 Q208.996 920.908 210.801 917.367 Q212.63 913.802 212.63 906.695 Q212.63 899.566 210.801 896.024 Q208.996 892.459 205.361 892.459 M205.361 888.756 Q211.172 888.756 214.227 893.362 Q217.306 897.945 217.306 906.695 Q217.306 915.422 214.227 920.029 Q211.172 924.612 205.361 924.612 Q199.551 924.612 196.473 920.029 Q193.417 915.422 193.417 906.695 Q193.417 897.945 196.473 893.362 Q199.551 888.756 205.361 888.756 Z" fill="#000000" fill-rule="evenodd" fill-opacity="1" /><path clip-path="url(#clip590)" d="M101.404 452.134 Q97.7926 452.134 95.9639 455.699 Q94.1584 459.241 94.1584 466.37 Q94.1584 473.477 95.9639 477.042 Q97.7926 480.583 101.404 480.583 Q105.038 480.583 106.843 477.042 Q108.672 473.477 108.672 466.37 Q108.672 459.241 106.843 455.699 Q105.038 452.134 101.404 452.134 M101.404 448.431 Q107.214 448.431 110.269 453.037 Q113.348 457.621 113.348 466.37 Q113.348 475.097 110.269 479.704 Q107.214 484.287 101.404 484.287 Q95.5935 484.287 92.5149 479.704 Q89.4593 475.097 89.4593 466.37 Q89.4593 457.621 92.5149 453.037 Q95.5935 448.431 101.404 448.431 Z" fill="#000000" fill-rule="evenodd" fill-opacity="1" /><path clip-path="url(#clip590)" d="M121.566 477.736 L126.45 477.736 L126.45 483.616 L121.566 483.616 L121.566 477.736 Z" fill="#000000" fill-rule="evenodd" fill-opacity="1" /><path clip-path="url(#clip590)" d="M146.635 452.134 Q143.024 452.134 141.195 455.699 Q139.39 459.241 139.39 466.37 Q139.39 473.477 141.195 477.042 Q143.024 480.583 146.635 480.583 Q150.269 480.583 152.075 477.042 Q153.903 473.477 153.903 466.37 Q153.903 459.241 152.075 455.699 Q150.269 452.134 146.635 452.134 M146.635 448.431 Q152.445 448.431 155.501 453.037 Q158.579 457.621 158.579 466.37 Q158.579 475.097 155.501 479.704 Q152.445 484.287 146.635 484.287 Q140.825 484.287 137.746 479.704 Q134.691 475.097 134.691 466.37 Q134.691 457.621 137.746 453.037 Q140.825 448.431 146.635 448.431 Z" fill="#000000" fill-rule="evenodd" fill-opacity="1" /><path clip-path="url(#clip590)" d="M176.797 452.134 Q173.186 452.134 171.357 455.699 Q169.551 459.241 169.551 466.37 Q169.551 473.477 171.357 477.042 Q173.186 480.583 176.797 480.583 Q180.431 480.583 182.237 477.042 Q184.065 473.477 184.065 466.37 Q184.065 459.241 182.237 455.699 Q180.431 452.134 176.797 452.134 M176.797 448.431 Q182.607 448.431 185.663 453.037 Q188.741 457.621 188.741 466.37 Q188.741 475.097 185.663 479.704 Q182.607 484.287 176.797 484.287 Q170.987 484.287 167.908 479.704 Q164.852 475.097 164.852 466.37 Q164.852 457.621 167.908 453.037 Q170.987 448.431 176.797 448.431 Z" fill="#000000" fill-rule="evenodd" fill-opacity="1" /><path clip-path="url(#clip590)" d="M200.986 479.681 L217.306 479.681 L217.306 483.616 L195.362 483.616 L195.362 479.681 Q198.024 476.926 202.607 472.296 Q207.213 467.644 208.394 466.301 Q210.639 463.778 211.519 462.042 Q212.422 460.283 212.422 458.593 Q212.422 455.838 210.477 454.102 Q208.556 452.366 205.454 452.366 Q203.255 452.366 200.801 453.13 Q198.371 453.894 195.593 455.445 L195.593 450.722 Q198.417 449.588 200.871 449.009 Q203.324 448.431 205.361 448.431 Q210.732 448.431 213.926 451.116 Q217.121 453.801 217.121 458.292 Q217.121 460.421 216.31 462.343 Q215.523 464.241 213.417 466.833 Q212.838 467.505 209.736 470.722 Q206.635 473.917 200.986 479.681 Z" fill="#000000" fill-rule="evenodd" fill-opacity="1" /><polyline clip-path="url(#clip592)" style="stroke:#009af9; stroke-linecap:butt; stroke-linejoin:round; stroke-width:4; stroke-opacity:1; fill:none" points="
  325.073,1751.15 326.903,1693.93 328.732,1639.1 330.562,1586.51 332.392,1536.06 334.221,1487.63 336.051,1441.13 336.966,1418.57 337.881,1396.45 338.795,1374.77 
  339.71,1353.52 341.825,1305.94 343.94,1260.46 346.054,1216.95 348.169,1175.31 350.284,1135.43 352.399,1097.23 354.513,1060.62 356.628,1025.52 358.743,991.848 
  360.857,959.537 362.972,928.519 365.087,898.733 367.202,870.117 369.316,842.617 371.431,816.18 373.546,790.757 377.775,742.768 382.005,698.308 386.234,657.071 
  390.464,618.782 394.693,583.196 398.922,550.092 403.152,519.271 407.381,490.552 411.611,463.773 415.84,438.785 420.07,415.454 424.299,393.658 428.529,373.285 
  432.758,354.234 436.988,336.411 441.217,319.731 449.676,289.494 458.135,262.967 466.594,239.682 475.053,219.238 485.22,197.944 495.386,179.755 505.553,164.247 
  515.72,151.061 525.887,139.895 536.054,130.49 546.221,122.623 556.388,116.106 573.58,107.705 590.772,102.046 607.964,98.6085 625.156,96.9791 643.831,96.8724 
  662.506,98.1672 681.182,100.59 699.857,103.922 734.291,111.875 768.725,121.492 842.558,145.233 928.102,174.746 1004.12,200.879 1070.79,223.054 1143.47,246.146 
  1216.58,268.117 1297.42,290.918 1374.33,311.207 1454.3,330.932 1521.62,346.524 1603.81,364.402 1679.1,379.748 1748.64,393.115 1819.08,405.927 1898.02,419.482 
  1969.55,431.089 2051.45,443.652 2127.29,454.648 2202.05,464.936 2274.64,474.44 2349.05,483.721 2430.58,493.392 2549.01,506.594 2573.31,509.187 
  "/>
<path clip-path="url(#clip590)" d="
M2244.1 209.375 L2561.32 209.375 L2561.32 105.695 L2244.1 105.695  Z
  " fill="#ffffff" fill-rule="evenodd" fill-opacity="1"/>
<polyline clip-path="url(#clip590)" style="stroke:#000000; stroke-linecap:butt; stroke-linejoin:round; stroke-width:4; stroke-opacity:1; fill:none" points="
  2244.1,209.375 2561.32,209.375 2561.32,105.695 2244.1,105.695 2244.1,209.375 
  "/>
<polyline clip-path="url(#clip590)" style="stroke:#009af9; stroke-linecap:butt; stroke-linejoin:round; stroke-width:4; stroke-opacity:1; fill:none" points="
  2270.57,157.535 2429.45,157.535 
  "/>
<path clip-path="url(#clip590)" d="M2469.77 177.223 Q2467.97 181.852 2466.25 183.264 Q2464.54 184.676 2461.67 184.676 L2458.27 184.676 L2458.27 181.112 L2460.77 181.112 Q2462.53 181.112 2463.5 180.278 Q2464.47 179.445 2465.65 176.343 L2466.42 174.399 L2455.93 148.889 L2460.44 148.889 L2468.55 169.167 L2476.65 148.889 L2481.16 148.889 L2469.77 177.223 Z" fill="#000000" fill-rule="evenodd" fill-opacity="1" /><path clip-path="url(#clip590)" d="M2488.45 170.88 L2496.09 170.88 L2496.09 144.515 L2487.78 146.181 L2487.78 141.922 L2496.05 140.255 L2500.72 140.255 L2500.72 170.88 L2508.36 170.88 L2508.36 174.815 L2488.45 174.815 L2488.45 170.88 Z" fill="#000000" fill-rule="evenodd" fill-opacity="1" /></svg>
