<?xml version="1.0" encoding="utf-8"?>
<svg xmlns="http://www.w3.org/2000/svg" xmlns:xlink="http://www.w3.org/1999/xlink" width="672" height="480" viewBox="0 0 2688 1920">
<defs>
  <clipPath id="clip740">
    <rect x="0" y="0" width="2688" height="1920"/>
  </clipPath>
</defs>
<path clip-path="url(#clip740)" d="
M0 1920 L2688 1920 L2688 0 L0 0  Z
  " fill="#ffffff" fill-rule="evenodd" fill-opacity="1"/>
<defs>
  <clipPath id="clip741">
    <rect x="537" y="0" width="1883" height="1883"/>
  </clipPath>
</defs>
<path clip-path="url(#clip740)" d="
M196.816 1800.78 L2640.76 1800.78 L2640.76 47.2441 L196.816 47.2441  Z
  " fill="#ffffff" fill-rule="evenodd" fill-opacity="1"/>
<defs>
  <clipPath id="clip742">
    <rect x="196" y="47" width="2445" height="1755"/>
  </clipPath>
</defs>
<polyline clip-path="url(#clip742)" style="stroke:#000000; stroke-linecap:round; stroke-linejoin:round; stroke-width:2; stroke-opacity:0.1; fill:none" points="
  335.894,1800.78 335.894,47.2441 
  "/>
<polyline clip-path="url(#clip742)" style="stroke:#000000; stroke-linecap:round; stroke-linejoin:round; stroke-width:2; stroke-opacity:0.1; fill:none" points="
  696.858,1800.78 696.858,47.2441 
  "/>
<polyline clip-path="url(#clip742)" style="stroke:#000000; stroke-linecap:round; stroke-linejoin:round; stroke-width:2; stroke-opacity:0.1; fill:none" points="
  1057.82,1800.78 1057.82,47.2441 
  "/>
<polyline clip-path="url(#clip742)" style="stroke:#000000; stroke-linecap:round; stroke-linejoin:round; stroke-width:2; stroke-opacity:0.1; fill:none" points="
  1418.79,1800.78 1418.79,47.2441 
  "/>
<polyline clip-path="url(#clip742)" style="stroke:#000000; stroke-linecap:round; stroke-linejoin:round; stroke-width:2; stroke-opacity:0.1; fill:none" points="
  1779.75,1800.78 1779.75,47.2441 
  "/>
<polyline clip-path="url(#clip742)" style="stroke:#000000; stroke-linecap:round; stroke-linejoin:round; stroke-width:2; stroke-opacity:0.1; fill:none" points="
  2140.71,1800.78 2140.71,47.2441 
  "/>
<polyline clip-path="url(#clip742)" style="stroke:#000000; stroke-linecap:round; stroke-linejoin:round; stroke-width:2; stroke-opacity:0.1; fill:none" points="
  2501.68,1800.78 2501.68,47.2441 
  "/>
<polyline clip-path="url(#clip740)" style="stroke:#000000; stroke-linecap:round; stroke-linejoin:round; stroke-width:4; stroke-opacity:1; fill:none" points="
  196.816,1800.78 2640.76,1800.78 
  "/>
<polyline clip-path="url(#clip740)" style="stroke:#000000; stroke-linecap:round; stroke-linejoin:round; stroke-width:4; stroke-opacity:1; fill:none" points="
  335.894,1800.78 335.894,1781.88 
  "/>
<polyline clip-path="url(#clip740)" style="stroke:#000000; stroke-linecap:round; stroke-linejoin:round; stroke-width:4; stroke-opacity:1; fill:none" points="
  696.858,1800.78 696.858,1781.88 
  "/>
<polyline clip-path="url(#clip740)" style="stroke:#000000; stroke-linecap:round; stroke-linejoin:round; stroke-width:4; stroke-opacity:1; fill:none" points="
  1057.82,1800.78 1057.82,1781.88 
  "/>
<polyline clip-path="url(#clip740)" style="stroke:#000000; stroke-linecap:round; stroke-linejoin:round; stroke-width:4; stroke-opacity:1; fill:none" points="
  1418.79,1800.78 1418.79,1781.88 
  "/>
<polyline clip-path="url(#clip740)" style="stroke:#000000; stroke-linecap:round; stroke-linejoin:round; stroke-width:4; stroke-opacity:1; fill:none" points="
  1779.75,1800.78 1779.75,1781.88 
  "/>
<polyline clip-path="url(#clip740)" style="stroke:#000000; stroke-linecap:round; stroke-linejoin:round; stroke-width:4; stroke-opacity:1; fill:none" points="
  2140.71,1800.78 2140.71,1781.88 
  "/>
<polyline clip-path="url(#clip740)" style="stroke:#000000; stroke-linecap:round; stroke-linejoin:round; stroke-width:4; stroke-opacity:1; fill:none" points="
  2501.68,1800.78 2501.68,1781.88 
  "/>
<path clip-path="url(#clip740)" d="M282.92 1848.65 L312.595 1848.65 L312.595 1852.59 L282.92 1852.59 L282.92 1848.65 Z" fill="#000000" fill-rule="evenodd" fill-opacity="1" /><path clip-path="url(#clip740)" d="M323.498 1861.55 L331.137 1861.55 L331.137 1835.18 L322.827 1836.85 L322.827 1832.59 L331.091 1830.92 L335.767 1830.92 L335.767 1861.55 L343.405 1861.55 L343.405 1865.48 L323.498 1865.48 L323.498 1861.55 Z" fill="#000000" fill-rule="evenodd" fill-opacity="1" /><path clip-path="url(#clip740)" d="M352.85 1859.6 L357.734 1859.6 L357.734 1865.48 L352.85 1865.48 L352.85 1859.6 Z" fill="#000000" fill-rule="evenodd" fill-opacity="1" /><path clip-path="url(#clip740)" d="M367.966 1830.92 L386.322 1830.92 L386.322 1834.86 L372.248 1834.86 L372.248 1843.33 Q373.266 1842.98 374.285 1842.82 Q375.303 1842.64 376.322 1842.64 Q382.109 1842.64 385.489 1845.81 Q388.868 1848.98 388.868 1854.4 Q388.868 1859.97 385.396 1863.08 Q381.924 1866.15 375.604 1866.15 Q373.428 1866.15 371.16 1865.78 Q368.915 1865.41 366.507 1864.67 L366.507 1859.97 Q368.59 1861.11 370.813 1861.66 Q373.035 1862.22 375.512 1862.22 Q379.516 1862.22 381.854 1860.11 Q384.192 1858.01 384.192 1854.4 Q384.192 1850.78 381.854 1848.68 Q379.516 1846.57 375.512 1846.57 Q373.637 1846.57 371.762 1846.99 Q369.91 1847.4 367.966 1848.28 L367.966 1830.92 Z" fill="#000000" fill-rule="evenodd" fill-opacity="1" /><path clip-path="url(#clip740)" d="M643.386 1848.65 L673.062 1848.65 L673.062 1852.59 L643.386 1852.59 L643.386 1848.65 Z" fill="#000000" fill-rule="evenodd" fill-opacity="1" /><path clip-path="url(#clip740)" d="M683.964 1861.55 L691.603 1861.55 L691.603 1835.18 L683.293 1836.85 L683.293 1832.59 L691.557 1830.92 L696.233 1830.92 L696.233 1861.55 L703.872 1861.55 L703.872 1865.48 L683.964 1865.48 L683.964 1861.55 Z" fill="#000000" fill-rule="evenodd" fill-opacity="1" /><path clip-path="url(#clip740)" d="M713.316 1859.6 L718.2 1859.6 L718.2 1865.48 L713.316 1865.48 L713.316 1859.6 Z" fill="#000000" fill-rule="evenodd" fill-opacity="1" /><path clip-path="url(#clip740)" d="M738.385 1834 Q734.774 1834 732.946 1837.57 Q731.14 1841.11 731.14 1848.24 Q731.14 1855.34 732.946 1858.91 Q734.774 1862.45 738.385 1862.45 Q742.02 1862.45 743.825 1858.91 Q745.654 1855.34 745.654 1848.24 Q745.654 1841.11 743.825 1837.57 Q742.02 1834 738.385 1834 M738.385 1830.3 Q744.196 1830.3 747.251 1834.9 Q750.33 1839.49 750.33 1848.24 Q750.33 1856.96 747.251 1861.57 Q744.196 1866.15 738.385 1866.15 Q732.575 1866.15 729.497 1861.57 Q726.441 1856.96 726.441 1848.24 Q726.441 1839.49 729.497 1834.9 Q732.575 1830.3 738.385 1830.3 Z" fill="#000000" fill-rule="evenodd" fill-opacity="1" /><path clip-path="url(#clip740)" d="M1004.85 1848.65 L1034.52 1848.65 L1034.52 1852.59 L1004.85 1852.59 L1004.85 1848.65 Z" fill="#000000" fill-rule="evenodd" fill-opacity="1" /><path clip-path="url(#clip740)" d="M1054.62 1834 Q1051 1834 1049.18 1837.57 Q1047.37 1841.11 1047.37 1848.24 Q1047.37 1855.34 1049.18 1858.91 Q1051 1862.45 1054.62 1862.45 Q1058.25 1862.45 1060.06 1858.91 Q1061.88 1855.34 1061.88 1848.24 Q1061.88 1841.11 1060.06 1837.57 Q1058.25 1834 1054.62 1834 M1054.62 1830.3 Q1060.43 1830.3 1063.48 1834.9 Q1066.56 1839.49 1066.56 1848.24 Q1066.56 1856.96 1063.48 1861.57 Q1060.43 1866.15 1054.62 1866.15 Q1048.81 1866.15 1045.73 1861.57 Q1042.67 1856.96 1042.67 1848.24 Q1042.67 1839.49 1045.73 1834.9 Q1048.81 1830.3 1054.62 1830.3 Z" fill="#000000" fill-rule="evenodd" fill-opacity="1" /><path clip-path="url(#clip740)" d="M1074.78 1859.6 L1079.66 1859.6 L1079.66 1865.48 L1074.78 1865.48 L1074.78 1859.6 Z" fill="#000000" fill-rule="evenodd" fill-opacity="1" /><path clip-path="url(#clip740)" d="M1089.89 1830.92 L1108.25 1830.92 L1108.25 1834.86 L1094.18 1834.86 L1094.18 1843.33 Q1095.19 1842.98 1096.21 1842.82 Q1097.23 1842.64 1098.25 1842.64 Q1104.04 1842.64 1107.42 1845.81 Q1110.8 1848.98 1110.8 1854.4 Q1110.8 1859.97 1107.32 1863.08 Q1103.85 1866.15 1097.53 1866.15 Q1095.36 1866.15 1093.09 1865.78 Q1090.84 1865.41 1088.44 1864.67 L1088.44 1859.97 Q1090.52 1861.11 1092.74 1861.66 Q1094.96 1862.22 1097.44 1862.22 Q1101.44 1862.22 1103.78 1860.11 Q1106.12 1858.01 1106.12 1854.4 Q1106.12 1850.78 1103.78 1848.68 Q1101.44 1846.57 1097.44 1846.57 Q1095.56 1846.57 1093.69 1846.99 Q1091.84 1847.4 1089.89 1848.28 L1089.89 1830.92 Z" fill="#000000" fill-rule="evenodd" fill-opacity="1" /><path clip-path="url(#clip740)" d="M1396.17 1834 Q1392.56 1834 1390.73 1837.57 Q1388.93 1841.11 1388.93 1848.24 Q1388.93 1855.34 1390.73 1858.91 Q1392.56 1862.45 1396.17 1862.45 Q1399.8 1862.45 1401.61 1858.91 Q1403.44 1855.34 1403.44 1848.24 Q1403.44 1841.11 1401.61 1837.57 Q1399.8 1834 1396.17 1834 M1396.17 1830.3 Q1401.98 1830.3 1405.04 1834.9 Q1408.11 1839.49 1408.11 1848.24 Q1408.11 1856.96 1405.04 1861.57 Q1401.98 1866.15 1396.17 1866.15 Q1390.36 1866.15 1387.28 1861.57 Q1384.23 1856.96 1384.23 1848.24 Q1384.23 1839.49 1387.28 1834.9 Q1390.36 1830.3 1396.17 1830.3 Z" fill="#000000" fill-rule="evenodd" fill-opacity="1" /><path clip-path="url(#clip740)" d="M1416.33 1859.6 L1421.22 1859.6 L1421.22 1865.48 L1416.33 1865.48 L1416.33 1859.6 Z" fill="#000000" fill-rule="evenodd" fill-opacity="1" /><path clip-path="url(#clip740)" d="M1441.4 1834 Q1437.79 1834 1435.96 1837.57 Q1434.16 1841.11 1434.16 1848.24 Q1434.16 1855.34 1435.96 1858.91 Q1437.79 1862.45 1441.4 1862.45 Q1445.04 1862.45 1446.84 1858.91 Q1448.67 1855.34 1448.67 1848.24 Q1448.67 1841.11 1446.84 1837.57 Q1445.04 1834 1441.4 1834 M1441.4 1830.3 Q1447.21 1830.3 1450.27 1834.9 Q1453.35 1839.49 1453.35 1848.24 Q1453.35 1856.96 1450.27 1861.57 Q1447.21 1866.15 1441.4 1866.15 Q1435.59 1866.15 1432.51 1861.57 Q1429.46 1856.96 1429.46 1848.24 Q1429.46 1839.49 1432.51 1834.9 Q1435.59 1830.3 1441.4 1830.3 Z" fill="#000000" fill-rule="evenodd" fill-opacity="1" /><path clip-path="url(#clip740)" d="M1757.63 1834 Q1754.02 1834 1752.19 1837.57 Q1750.39 1841.11 1750.39 1848.24 Q1750.39 1855.34 1752.19 1858.91 Q1754.02 1862.45 1757.63 1862.45 Q1761.27 1862.45 1763.07 1858.91 Q1764.9 1855.34 1764.9 1848.24 Q1764.9 1841.11 1763.07 1837.57 Q1761.27 1834 1757.63 1834 M1757.63 1830.3 Q1763.44 1830.3 1766.5 1834.9 Q1769.58 1839.49 1769.58 1848.24 Q1769.58 1856.96 1766.5 1861.57 Q1763.44 1866.15 1757.63 1866.15 Q1751.82 1866.15 1748.74 1861.57 Q1745.69 1856.96 1745.69 1848.24 Q1745.69 1839.49 1748.74 1834.9 Q1751.82 1830.3 1757.63 1830.3 Z" fill="#000000" fill-rule="evenodd" fill-opacity="1" /><path clip-path="url(#clip740)" d="M1777.79 1859.6 L1782.68 1859.6 L1782.68 1865.48 L1777.79 1865.48 L1777.79 1859.6 Z" fill="#000000" fill-rule="evenodd" fill-opacity="1" /><path clip-path="url(#clip740)" d="M1792.91 1830.92 L1811.27 1830.92 L1811.27 1834.86 L1797.19 1834.86 L1797.19 1843.33 Q1798.21 1842.98 1799.23 1842.82 Q1800.25 1842.64 1801.27 1842.64 Q1807.05 1842.64 1810.43 1845.81 Q1813.81 1848.98 1813.81 1854.4 Q1813.81 1859.97 1810.34 1863.08 Q1806.87 1866.15 1800.55 1866.15 Q1798.37 1866.15 1796.1 1865.78 Q1793.86 1865.41 1791.45 1864.67 L1791.45 1859.97 Q1793.53 1861.11 1795.76 1861.66 Q1797.98 1862.22 1800.46 1862.22 Q1804.46 1862.22 1806.8 1860.11 Q1809.14 1858.01 1809.14 1854.4 Q1809.14 1850.78 1806.8 1848.68 Q1804.46 1846.57 1800.46 1846.57 Q1798.58 1846.57 1796.71 1846.99 Q1794.85 1847.4 1792.91 1848.28 L1792.91 1830.92 Z" fill="#000000" fill-rule="evenodd" fill-opacity="1" /><path clip-path="url(#clip740)" d="M2107.87 1861.55 L2115.51 1861.55 L2115.51 1835.18 L2107.2 1836.85 L2107.2 1832.59 L2115.46 1830.92 L2120.14 1830.92 L2120.14 1861.55 L2127.77 1861.55 L2127.77 1865.48 L2107.87 1865.48 L2107.87 1861.55 Z" fill="#000000" fill-rule="evenodd" fill-opacity="1" /><path clip-path="url(#clip740)" d="M2137.22 1859.6 L2142.1 1859.6 L2142.1 1865.48 L2137.22 1865.48 L2137.22 1859.6 Z" fill="#000000" fill-rule="evenodd" fill-opacity="1" /><path clip-path="url(#clip740)" d="M2162.29 1834 Q2158.68 1834 2156.85 1837.57 Q2155.04 1841.11 2155.04 1848.24 Q2155.04 1855.34 2156.85 1858.91 Q2158.68 1862.45 2162.29 1862.45 Q2165.92 1862.45 2167.73 1858.91 Q2169.56 1855.34 2169.56 1848.24 Q2169.56 1841.11 2167.73 1837.57 Q2165.92 1834 2162.29 1834 M2162.29 1830.3 Q2168.1 1830.3 2171.15 1834.9 Q2174.23 1839.49 2174.23 1848.24 Q2174.23 1856.96 2171.15 1861.57 Q2168.1 1866.15 2162.29 1866.15 Q2156.48 1866.15 2153.4 1861.57 Q2150.34 1856.96 2150.34 1848.24 Q2150.34 1839.49 2153.4 1834.9 Q2156.48 1830.3 2162.29 1830.3 Z" fill="#000000" fill-rule="evenodd" fill-opacity="1" /><path clip-path="url(#clip740)" d="M2469.33 1861.55 L2476.97 1861.55 L2476.97 1835.18 L2468.66 1836.85 L2468.66 1832.59 L2476.92 1830.92 L2481.6 1830.92 L2481.6 1861.55 L2489.24 1861.55 L2489.24 1865.48 L2469.33 1865.48 L2469.33 1861.55 Z" fill="#000000" fill-rule="evenodd" fill-opacity="1" /><path clip-path="url(#clip740)" d="M2498.68 1859.6 L2503.56 1859.6 L2503.56 1865.48 L2498.68 1865.48 L2498.68 1859.6 Z" fill="#000000" fill-rule="evenodd" fill-opacity="1" /><path clip-path="url(#clip740)" d="M2513.8 1830.92 L2532.15 1830.92 L2532.15 1834.86 L2518.08 1834.86 L2518.08 1843.33 Q2519.1 1842.98 2520.12 1842.82 Q2521.13 1842.64 2522.15 1842.64 Q2527.94 1842.64 2531.32 1845.81 Q2534.7 1848.98 2534.7 1854.4 Q2534.7 1859.97 2531.23 1863.08 Q2527.75 1866.15 2521.43 1866.15 Q2519.26 1866.15 2516.99 1865.78 Q2514.75 1865.41 2512.34 1864.67 L2512.34 1859.97 Q2514.42 1861.11 2516.64 1861.66 Q2518.87 1862.22 2521.34 1862.22 Q2525.35 1862.22 2527.68 1860.11 Q2530.02 1858.01 2530.02 1854.4 Q2530.02 1850.78 2527.68 1848.68 Q2525.35 1846.57 2521.34 1846.57 Q2519.47 1846.57 2517.59 1846.99 Q2515.74 1847.4 2513.8 1848.28 L2513.8 1830.92 Z" fill="#000000" fill-rule="evenodd" fill-opacity="1" /><polyline clip-path="url(#clip742)" style="stroke:#000000; stroke-linecap:round; stroke-linejoin:round; stroke-width:2; stroke-opacity:0.1; fill:none" points="
  196.816,1645.94 2640.76,1645.94 
  "/>
<polyline clip-path="url(#clip742)" style="stroke:#000000; stroke-linecap:round; stroke-linejoin:round; stroke-width:2; stroke-opacity:0.1; fill:none" points="
  196.816,1284.98 2640.76,1284.98 
  "/>
<polyline clip-path="url(#clip742)" style="stroke:#000000; stroke-linecap:round; stroke-linejoin:round; stroke-width:2; stroke-opacity:0.1; fill:none" points="
  196.816,924.012 2640.76,924.012 
  "/>
<polyline clip-path="url(#clip742)" style="stroke:#000000; stroke-linecap:round; stroke-linejoin:round; stroke-width:2; stroke-opacity:0.1; fill:none" points="
  196.816,563.048 2640.76,563.048 
  "/>
<polyline clip-path="url(#clip742)" style="stroke:#000000; stroke-linecap:round; stroke-linejoin:round; stroke-width:2; stroke-opacity:0.1; fill:none" points="
  196.816,202.084 2640.76,202.084 
  "/>
<polyline clip-path="url(#clip740)" style="stroke:#000000; stroke-linecap:round; stroke-linejoin:round; stroke-width:4; stroke-opacity:1; fill:none" points="
  196.816,1800.78 196.816,47.2441 
  "/>
<polyline clip-path="url(#clip740)" style="stroke:#000000; stroke-linecap:round; stroke-linejoin:round; stroke-width:4; stroke-opacity:1; fill:none" points="
  196.816,1645.94 215.714,1645.94 
  "/>
<polyline clip-path="url(#clip740)" style="stroke:#000000; stroke-linecap:round; stroke-linejoin:round; stroke-width:4; stroke-opacity:1; fill:none" points="
  196.816,1284.98 215.714,1284.98 
  "/>
<polyline clip-path="url(#clip740)" style="stroke:#000000; stroke-linecap:round; stroke-linejoin:round; stroke-width:4; stroke-opacity:1; fill:none" points="
  196.816,924.012 215.714,924.012 
  "/>
<polyline clip-path="url(#clip740)" style="stroke:#000000; stroke-linecap:round; stroke-linejoin:round; stroke-width:4; stroke-opacity:1; fill:none" points="
  196.816,563.048 215.714,563.048 
  "/>
<polyline clip-path="url(#clip740)" style="stroke:#000000; stroke-linecap:round; stroke-linejoin:round; stroke-width:4; stroke-opacity:1; fill:none" points="
  196.816,202.084 215.714,202.084 
  "/>
<path clip-path="url(#clip740)" d="M49.5521 1646.39 L79.2279 1646.39 L79.2279 1650.33 L49.5521 1650.33 L49.5521 1646.39 Z" fill="#000000" fill-rule="evenodd" fill-opacity="1" /><path clip-path="url(#clip740)" d="M90.1306 1659.28 L97.7695 1659.28 L97.7695 1632.92 L89.4593 1634.59 L89.4593 1630.33 L97.7232 1628.66 L102.399 1628.66 L102.399 1659.28 L110.038 1659.28 L110.038 1663.22 L90.1306 1663.22 L90.1306 1659.28 Z" fill="#000000" fill-rule="evenodd" fill-opacity="1" /><path clip-path="url(#clip740)" d="M119.482 1657.34 L124.367 1657.34 L124.367 1663.22 L119.482 1663.22 L119.482 1657.34 Z" fill="#000000" fill-rule="evenodd" fill-opacity="1" /><path clip-path="url(#clip740)" d="M144.552 1631.74 Q140.941 1631.74 139.112 1635.3 Q137.306 1638.84 137.306 1645.97 Q137.306 1653.08 139.112 1656.65 Q140.941 1660.19 144.552 1660.19 Q148.186 1660.19 149.991 1656.65 Q151.82 1653.08 151.82 1645.97 Q151.82 1638.84 149.991 1635.3 Q148.186 1631.74 144.552 1631.74 M144.552 1628.03 Q150.362 1628.03 153.417 1632.64 Q156.496 1637.22 156.496 1645.97 Q156.496 1654.7 153.417 1659.31 Q150.362 1663.89 144.552 1663.89 Q138.741 1663.89 135.663 1659.31 Q132.607 1654.7 132.607 1645.97 Q132.607 1637.22 135.663 1632.64 Q138.741 1628.03 144.552 1628.03 Z" fill="#000000" fill-rule="evenodd" fill-opacity="1" /><path clip-path="url(#clip740)" d="M50.5475 1285.43 L80.2233 1285.43 L80.2233 1289.36 L50.5475 1289.36 L50.5475 1285.43 Z" fill="#000000" fill-rule="evenodd" fill-opacity="1" /><path clip-path="url(#clip740)" d="M100.316 1270.77 Q96.7047 1270.77 94.876 1274.34 Q93.0704 1277.88 93.0704 1285.01 Q93.0704 1292.12 94.876 1295.68 Q96.7047 1299.22 100.316 1299.22 Q103.95 1299.22 105.756 1295.68 Q107.584 1292.12 107.584 1285.01 Q107.584 1277.88 105.756 1274.34 Q103.95 1270.77 100.316 1270.77 M100.316 1267.07 Q106.126 1267.07 109.181 1271.68 Q112.26 1276.26 112.26 1285.01 Q112.26 1293.74 109.181 1298.34 Q106.126 1302.93 100.316 1302.93 Q94.5056 1302.93 91.4269 1298.34 Q88.3714 1293.74 88.3714 1285.01 Q88.3714 1276.26 91.4269 1271.68 Q94.5056 1267.07 100.316 1267.07 Z" fill="#000000" fill-rule="evenodd" fill-opacity="1" /><path clip-path="url(#clip740)" d="M120.478 1296.38 L125.362 1296.38 L125.362 1302.26 L120.478 1302.26 L120.478 1296.38 Z" fill="#000000" fill-rule="evenodd" fill-opacity="1" /><path clip-path="url(#clip740)" d="M135.593 1267.7 L153.95 1267.7 L153.95 1271.63 L139.876 1271.63 L139.876 1280.1 Q140.894 1279.76 141.913 1279.59 Q142.931 1279.41 143.95 1279.41 Q149.737 1279.41 153.116 1282.58 Q156.496 1285.75 156.496 1291.17 Q156.496 1296.75 153.024 1299.85 Q149.552 1302.93 143.232 1302.93 Q141.056 1302.93 138.788 1302.56 Q136.542 1302.19 134.135 1301.45 L134.135 1296.75 Q136.218 1297.88 138.441 1298.44 Q140.663 1298.99 143.14 1298.99 Q147.144 1298.99 149.482 1296.89 Q151.82 1294.78 151.82 1291.17 Q151.82 1287.56 149.482 1285.45 Q147.144 1283.34 143.14 1283.34 Q141.265 1283.34 139.39 1283.76 Q137.538 1284.18 135.593 1285.06 L135.593 1267.7 Z" fill="#000000" fill-rule="evenodd" fill-opacity="1" /><path clip-path="url(#clip740)" d="M99.3204 909.81 Q95.7093 909.81 93.8806 913.375 Q92.075 916.917 92.075 924.046 Q92.075 931.153 93.8806 934.718 Q95.7093 938.259 99.3204 938.259 Q102.955 938.259 104.76 934.718 Q106.589 931.153 106.589 924.046 Q106.589 916.917 104.76 913.375 Q102.955 909.81 99.3204 909.81 M99.3204 906.107 Q105.131 906.107 108.186 910.713 Q111.265 915.296 111.265 924.046 Q111.265 932.773 108.186 937.38 Q105.131 941.963 99.3204 941.963 Q93.5102 941.963 90.4315 937.38 Q87.376 932.773 87.376 924.046 Q87.376 915.296 90.4315 910.713 Q93.5102 906.107 99.3204 906.107 Z" fill="#000000" fill-rule="evenodd" fill-opacity="1" /><path clip-path="url(#clip740)" d="M119.482 935.412 L124.367 935.412 L124.367 941.292 L119.482 941.292 L119.482 935.412 Z" fill="#000000" fill-rule="evenodd" fill-opacity="1" /><path clip-path="url(#clip740)" d="M144.552 909.81 Q140.941 909.81 139.112 913.375 Q137.306 916.917 137.306 924.046 Q137.306 931.153 139.112 934.718 Q140.941 938.259 144.552 938.259 Q148.186 938.259 149.991 934.718 Q151.82 931.153 151.82 924.046 Q151.82 916.917 149.991 913.375 Q148.186 909.81 144.552 909.81 M144.552 906.107 Q150.362 906.107 153.417 910.713 Q156.496 915.296 156.496 924.046 Q156.496 932.773 153.417 937.38 Q150.362 941.963 144.552 941.963 Q138.741 941.963 135.663 937.38 Q132.607 932.773 132.607 924.046 Q132.607 915.296 135.663 910.713 Q138.741 906.107 144.552 906.107 Z" fill="#000000" fill-rule="evenodd" fill-opacity="1" /><path clip-path="url(#clip740)" d="M100.316 548.846 Q96.7047 548.846 94.876 552.411 Q93.0704 555.953 93.0704 563.082 Q93.0704 570.189 94.876 573.754 Q96.7047 577.295 100.316 577.295 Q103.95 577.295 105.756 573.754 Q107.584 570.189 107.584 563.082 Q107.584 555.953 105.756 552.411 Q103.95 548.846 100.316 548.846 M100.316 545.143 Q106.126 545.143 109.181 549.749 Q112.26 554.332 112.26 563.082 Q112.26 571.809 109.181 576.416 Q106.126 580.999 100.316 580.999 Q94.5056 580.999 91.4269 576.416 Q88.3714 571.809 88.3714 563.082 Q88.3714 554.332 91.4269 549.749 Q94.5056 545.143 100.316 545.143 Z" fill="#000000" fill-rule="evenodd" fill-opacity="1" /><path clip-path="url(#clip740)" d="M120.478 574.448 L125.362 574.448 L125.362 580.328 L120.478 580.328 L120.478 574.448 Z" fill="#000000" fill-rule="evenodd" fill-opacity="1" /><path clip-path="url(#clip740)" d="M135.593 545.768 L153.95 545.768 L153.95 549.703 L139.876 549.703 L139.876 558.175 Q140.894 557.828 141.913 557.666 Q142.931 557.481 143.95 557.481 Q149.737 557.481 153.116 560.652 Q156.496 563.823 156.496 569.24 Q156.496 574.818 153.024 577.92 Q149.552 580.999 143.232 580.999 Q141.056 580.999 138.788 580.629 Q136.542 580.258 134.135 579.518 L134.135 574.818 Q136.218 575.953 138.441 576.508 Q140.663 577.064 143.14 577.064 Q147.144 577.064 149.482 574.957 Q151.82 572.851 151.82 569.24 Q151.82 565.629 149.482 563.522 Q147.144 561.416 143.14 561.416 Q141.265 561.416 139.39 561.832 Q137.538 562.249 135.593 563.129 L135.593 545.768 Z" fill="#000000" fill-rule="evenodd" fill-opacity="1" /><path clip-path="url(#clip740)" d="M90.1306 215.429 L97.7695 215.429 L97.7695 189.063 L89.4593 190.73 L89.4593 186.47 L97.7232 184.804 L102.399 184.804 L102.399 215.429 L110.038 215.429 L110.038 219.364 L90.1306 219.364 L90.1306 215.429 Z" fill="#000000" fill-rule="evenodd" fill-opacity="1" /><path clip-path="url(#clip740)" d="M119.482 213.484 L124.367 213.484 L124.367 219.364 L119.482 219.364 L119.482 213.484 Z" fill="#000000" fill-rule="evenodd" fill-opacity="1" /><path clip-path="url(#clip740)" d="M144.552 187.882 Q140.941 187.882 139.112 191.447 Q137.306 194.989 137.306 202.118 Q137.306 209.225 139.112 212.79 Q140.941 216.331 144.552 216.331 Q148.186 216.331 149.991 212.79 Q151.82 209.225 151.82 202.118 Q151.82 194.989 149.991 191.447 Q148.186 187.882 144.552 187.882 M144.552 184.179 Q150.362 184.179 153.417 188.785 Q156.496 193.368 156.496 202.118 Q156.496 210.845 153.417 215.452 Q150.362 220.035 144.552 220.035 Q138.741 220.035 135.663 215.452 Q132.607 210.845 132.607 202.118 Q132.607 193.368 135.663 188.785 Q138.741 184.179 144.552 184.179 Z" fill="#000000" fill-rule="evenodd" fill-opacity="1" /><polyline clip-path="url(#clip742)" style="stroke:#009af9; stroke-linecap:round; stroke-linejoin:round; stroke-width:4; stroke-opacity:1; fill:none" points="
  2140.71,924.012 2069.22,924.012 1868.9,924.012 1579.43,924.012 1258.14,924.012 968.671,924.012 768.351,924.012 696.858,924.012 768.351,924.012 968.671,924.012 
  1258.14,924.012 1579.43,924.012 1868.9,924.012 2069.22,924.012 2140.71,924.012 
  "/>
<polyline clip-path="url(#clip742)" style="stroke:#e26f46; stroke-linecap:round; stroke-linejoin:round; stroke-width:4; stroke-opacity:1; fill:none" points="
  2142.56,924.012 2070.88,901.619 1870.05,883.661 1579.84,873.696 1257.73,873.696 967.522,883.661 766.691,901.619 695.015,924.012 766.691,946.405 967.522,964.362 
  1257.73,974.328 1579.84,974.328 1870.05,964.362 2070.88,946.405 2142.56,924.012 
  "/>
<polyline clip-path="url(#clip742)" style="stroke:#3da44d; stroke-linecap:round; stroke-linejoin:round; stroke-width:4; stroke-opacity:1; fill:none" points="
  2148.09,924.012 2075.87,879.112 1873.5,843.105 1581.07,823.123 1256.5,823.123 964.07,843.105 761.703,879.112 689.479,924.012 761.703,968.912 964.07,1004.92 
  1256.5,1024.9 1581.07,1024.9 1873.5,1004.92 2075.87,968.912 2148.09,924.012 
  "/>
<polyline clip-path="url(#clip742)" style="stroke:#c271d2; stroke-linecap:round; stroke-linejoin:round; stroke-width:4; stroke-opacity:1; fill:none" points="
  2157.35,924.012 2084.21,856.376 1879.27,802.136 1583.13,772.035 1254.44,772.035 958.297,802.136 753.361,856.376 680.22,924.012 753.361,991.648 958.297,1045.89 
  1254.44,1075.99 1583.13,1075.99 1879.27,1045.89 2084.21,991.648 2157.35,924.012 
  "/>
<polyline clip-path="url(#clip742)" style="stroke:#ac8d18; stroke-linecap:round; stroke-linejoin:round; stroke-width:4; stroke-opacity:1; fill:none" points="
  2170.38,924.012 2095.95,833.294 1887.4,760.544 1586.03,720.171 1251.54,720.171 950.174,760.544 741.622,833.294 667.19,924.012 741.622,1014.73 950.174,1087.48 
  1251.54,1127.85 1586.03,1127.85 1887.4,1087.48 2095.95,1014.73 2170.38,924.012 
  "/>
<polyline clip-path="url(#clip742)" style="stroke:#00a9ad; stroke-linecap:round; stroke-linejoin:round; stroke-width:4; stroke-opacity:1; fill:none" points="
  2187.25,924.012 2111.15,809.749 1897.91,718.118 1589.78,667.267 1247.79,667.267 939.658,718.118 726.427,809.749 650.325,924.012 726.427,1038.27 939.658,1129.91 
  1247.79,1180.76 1589.78,1180.76 1897.91,1129.91 2111.15,1038.27 2187.25,924.012 
  "/>
<polyline clip-path="url(#clip742)" style="stroke:#ed5d92; stroke-linecap:round; stroke-linejoin:round; stroke-width:4; stroke-opacity:1; fill:none" points="
  2208.03,924.012 2129.87,785.622 1910.87,674.642 1594.41,613.052 1243.16,613.052 926.698,674.642 707.698,785.622 629.537,924.012 707.698,1062.4 926.698,1173.38 
  1243.16,1234.97 1594.41,1234.97 1910.87,1173.38 2129.87,1062.4 2208.03,924.012 
  "/>
<polyline clip-path="url(#clip742)" style="stroke:#c68125; stroke-linecap:round; stroke-linejoin:round; stroke-width:4; stroke-opacity:1; fill:none" points="
  2232.85,924.012 2152.23,760.788 1926.35,629.892 1599.93,557.25 1237.64,557.25 911.225,629.892 685.339,760.788 604.721,924.012 685.339,1087.24 911.225,1218.13 
  1237.64,1290.77 1599.93,1290.77 1926.35,1218.13 2152.23,1087.24 2232.85,924.012 
  "/>
<polyline clip-path="url(#clip742)" style="stroke:#00a98d; stroke-linecap:round; stroke-linejoin:round; stroke-width:4; stroke-opacity:1; fill:none" points="
  2261.82,924.012 2178.34,735.12 1944.41,583.641 1606.38,499.577 1231.19,499.577 893.161,583.641 659.237,735.12 575.75,924.012 659.237,1112.9 893.161,1264.38 
  1231.19,1348.45 1606.38,1348.45 1944.41,1264.38 2178.34,1112.9 2261.82,924.012 
  "/>
<polyline clip-path="url(#clip742)" style="stroke:#8e971d; stroke-linecap:round; stroke-linejoin:round; stroke-width:4; stroke-opacity:1; fill:none" points="
  2295.1,924.012 2208.31,708.489 1965.16,535.653 1613.78,439.736 1223.79,439.736 872.415,535.653 629.257,708.489 542.475,924.012 629.257,1139.53 872.415,1312.37 
  1223.79,1408.29 1613.78,1408.29 1965.16,1312.37 2208.31,1139.53 2295.1,924.012 
  "/>
<polyline clip-path="url(#clip742)" style="stroke:#00a8cb; stroke-linecap:round; stroke-linejoin:round; stroke-width:4; stroke-opacity:1; fill:none" points="
  2332.84,924.012 2242.32,680.757 1988.69,485.683 1622.18,377.424 1215.39,377.424 848.88,485.683 595.248,680.757 504.728,924.012 595.248,1167.27 848.88,1362.34 
  1215.39,1470.6 1622.18,1470.6 1988.69,1362.34 2242.32,1167.27 2332.84,924.012 
  "/>
<polyline clip-path="url(#clip742)" style="stroke:#9b7fe8; stroke-linecap:round; stroke-linejoin:round; stroke-width:4; stroke-opacity:1; fill:none" points="
  2375.26,924.012 2280.54,651.784 2015.14,433.475 1631.62,312.322 1205.95,312.322 822.436,433.475 557.036,651.784 462.315,924.012 557.036,1196.24 822.436,1414.55 
  1205.95,1535.7 1631.62,1535.7 2015.14,1414.55 2280.54,1196.24 2375.26,924.012 
  "/>
<polyline clip-path="url(#clip742)" style="stroke:#608cf6; stroke-linecap:round; stroke-linejoin:round; stroke-width:4; stroke-opacity:1; fill:none" points="
  2422.55,924.012 2323.15,621.422 2044.62,378.763 1642.14,244.098 1195.43,244.098 792.948,378.763 514.424,621.422 415.02,924.012 514.424,1226.6 792.948,1469.26 
  1195.43,1603.93 1642.14,1603.93 2044.62,1469.26 2323.15,1226.6 2422.55,924.012 
  "/>
<polyline clip-path="url(#clip742)" style="stroke:#f05f73; stroke-linecap:round; stroke-linejoin:round; stroke-width:4; stroke-opacity:1; fill:none" points="
  2474.97,924.012 2370.37,589.515 2077.31,321.269 1653.81,172.403 1183.76,172.403 760.266,321.269 467.197,589.515 362.602,924.012 467.197,1258.51 760.266,1526.75 
  1183.76,1675.62 1653.81,1675.62 2077.31,1526.75 2370.37,1258.51 2474.97,924.012 
  "/>
<polyline clip-path="url(#clip742)" style="stroke:#dd64b5; stroke-linecap:round; stroke-linejoin:round; stroke-width:4; stroke-opacity:1; fill:none" points="
  2532.78,924.012 2422.46,555.9 2113.35,260.698 1666.67,96.8724 1170.9,96.8724 724.223,260.698 415.113,555.9 304.793,924.012 415.113,1292.12 724.223,1587.33 
  1170.9,1751.15 1666.67,1751.15 2113.35,1587.33 2422.46,1292.12 2532.78,924.012 
  "/>
<polyline clip-path="url(#clip742)" style="stroke:#6b9e32; stroke-linecap:round; stroke-linejoin:round; stroke-width:4; stroke-opacity:1; fill:none" points="
  2140.71,924.012 2142.56,924.012 2148.09,924.012 2157.35,924.012 2170.38,924.012 2187.25,924.012 2208.03,924.012 2232.85,924.012 2261.82,924.012 2295.1,924.012 
  2332.84,924.012 2375.26,924.012 2422.55,924.012 2474.97,924.012 2532.78,924.012 
  "/>
<polyline clip-path="url(#clip742)" style="stroke:#009af9; stroke-linecap:round; stroke-linejoin:round; stroke-width:4; stroke-opacity:1; fill:none" points="
  2069.22,924.012 2070.88,901.619 2075.87,879.112 2084.21,856.376 2095.95,833.294 2111.15,809.749 2129.87,785.622 2152.23,760.788 2178.34,735.12 2208.31,708.489 
  2242.32,680.757 2280.54,651.784 2323.15,621.422 2370.37,589.515 2422.46,555.9 
  "/>
<polyline clip-path="url(#clip742)" style="stroke:#e26f46; stroke-linecap:round; stroke-linejoin:round; stroke-width:4; stroke-opacity:1; fill:none" points="
  1868.9,924.012 1870.05,883.661 1873.5,843.105 1879.27,802.136 1887.4,760.544 1897.91,718.118 1910.87,674.642 1926.35,629.892 1944.41,583.641 1965.16,535.653 
  1988.69,485.683 2015.14,433.475 2044.62,378.763 2077.31,321.269 2113.35,260.698 
  "/>
<polyline clip-path="url(#clip742)" style="stroke:#3da44d; stroke-linecap:round; stroke-linejoin:round; stroke-width:4; stroke-opacity:1; fill:none" points="
  1579.43,924.012 1579.84,873.696 1581.07,823.123 1583.13,772.035 1586.03,720.171 1589.78,667.267 1594.41,613.052 1599.93,557.25 1606.38,499.577 1613.78,439.736 
  1622.18,377.424 1631.62,312.322 1642.14,244.098 1653.81,172.403 1666.67,96.8724 
  "/>
<polyline clip-path="url(#clip742)" style="stroke:#c271d2; stroke-linecap:round; stroke-linejoin:round; stroke-width:4; stroke-opacity:1; fill:none" points="
  1258.14,924.012 1257.73,873.696 1256.5,823.123 1254.44,772.035 1251.54,720.171 1247.79,667.267 1243.16,613.052 1237.64,557.25 1231.19,499.577 1223.79,439.736 
  1215.39,377.424 1205.95,312.322 1195.43,244.098 1183.76,172.403 1170.9,96.8724 
  "/>
<polyline clip-path="url(#clip742)" style="stroke:#ac8d18; stroke-linecap:round; stroke-linejoin:round; stroke-width:4; stroke-opacity:1; fill:none" points="
  968.671,924.012 967.522,883.661 964.07,843.105 958.297,802.136 950.174,760.544 939.658,718.118 926.698,674.642 911.225,629.892 893.161,583.641 872.415,535.653 
  848.88,485.683 822.436,433.475 792.948,378.763 760.266,321.269 724.223,260.698 
  "/>
<polyline clip-path="url(#clip742)" style="stroke:#00a9ad; stroke-linecap:round; stroke-linejoin:round; stroke-width:4; stroke-opacity:1; fill:none" points="
  768.351,924.012 766.691,901.619 761.703,879.112 753.361,856.376 741.622,833.294 726.427,809.749 707.698,785.622 685.339,760.788 659.237,735.12 629.257,708.489 
  595.248,680.757 557.036,651.784 514.424,621.422 467.197,589.515 415.113,555.9 
  "/>
<polyline clip-path="url(#clip742)" style="stroke:#ed5d92; stroke-linecap:round; stroke-linejoin:round; stroke-width:4; stroke-opacity:1; fill:none" points="
  696.858,924.012 695.015,924.012 689.479,924.012 680.22,924.012 667.19,924.012 650.325,924.012 629.537,924.012 604.721,924.012 575.75,924.012 542.475,924.012 
  504.728,924.012 462.315,924.012 415.02,924.012 362.602,924.012 304.793,924.012 
  "/>
<polyline clip-path="url(#clip742)" style="stroke:#c68125; stroke-linecap:round; stroke-linejoin:round; stroke-width:4; stroke-opacity:1; fill:none" points="
  768.351,924.012 766.691,946.405 761.703,968.912 753.361,991.648 741.622,1014.73 726.427,1038.27 707.698,1062.4 685.339,1087.24 659.237,1112.9 629.257,1139.53 
  595.248,1167.27 557.036,1196.24 514.424,1226.6 467.197,1258.51 415.113,1292.12 
  "/>
<polyline clip-path="url(#clip742)" style="stroke:#00a98d; stroke-linecap:round; stroke-linejoin:round; stroke-width:4; stroke-opacity:1; fill:none" points="
  968.671,924.012 967.522,964.362 964.07,1004.92 958.297,1045.89 950.174,1087.48 939.658,1129.91 926.698,1173.38 911.225,1218.13 893.161,1264.38 872.415,1312.37 
  848.88,1362.34 822.436,1414.55 792.948,1469.26 760.266,1526.75 724.223,1587.33 
  "/>
<polyline clip-path="url(#clip742)" style="stroke:#8e971d; stroke-linecap:round; stroke-linejoin:round; stroke-width:4; stroke-opacity:1; fill:none" points="
  1258.14,924.012 1257.73,974.328 1256.5,1024.9 1254.44,1075.99 1251.54,1127.85 1247.79,1180.76 1243.16,1234.97 1237.64,1290.77 1231.19,1348.45 1223.79,1408.29 
  1215.39,1470.6 1205.95,1535.7 1195.43,1603.93 1183.76,1675.62 1170.9,1751.15 
  "/>
<polyline clip-path="url(#clip742)" style="stroke:#00a8cb; stroke-linecap:round; stroke-linejoin:round; stroke-width:4; stroke-opacity:1; fill:none" points="
  1579.43,924.012 1579.84,974.328 1581.07,1024.9 1583.13,1075.99 1586.03,1127.85 1589.78,1180.76 1594.41,1234.97 1599.93,1290.77 1606.38,1348.45 1613.78,1408.29 
  1622.18,1470.6 1631.62,1535.7 1642.14,1603.93 1653.81,1675.62 1666.67,1751.15 
  "/>
<polyline clip-path="url(#clip742)" style="stroke:#9b7fe8; stroke-linecap:round; stroke-linejoin:round; stroke-width:4; stroke-opacity:1; fill:none" points="
  1868.9,924.012 1870.05,964.362 1873.5,1004.92 1879.27,1045.89 1887.4,1087.48 1897.91,1129.91 1910.87,1173.38 1926.35,1218.13 1944.41,1264.38 1965.16,1312.37 
  1988.69,1362.34 2015.14,1414.55 2044.62,1469.26 2077.31,1526.75 2113.35,1587.33 
  "/>
<polyline clip-path="url(#clip742)" style="stroke:#608cf6; stroke-linecap:round; stroke-linejoin:round; stroke-width:4; stroke-opacity:1; fill:none" points="
  2069.22,924.012 2070.88,946.405 2075.87,968.912 2084.21,991.648 2095.95,1014.73 2111.15,1038.27 2129.87,1062.4 2152.23,1087.24 2178.34,1112.9 2208.31,1139.53 
  2242.32,1167.27 2280.54,1196.24 2323.15,1226.6 2370.37,1258.51 2422.46,1292.12 
  "/>
<polyline clip-path="url(#clip742)" style="stroke:#f05f73; stroke-linecap:round; stroke-linejoin:round; stroke-width:4; stroke-opacity:1; fill:none" points="
  2140.71,924.012 2142.56,924.012 2148.09,924.012 2157.35,924.012 2170.38,924.012 2187.25,924.012 2208.03,924.012 2232.85,924.012 2261.82,924.012 2295.1,924.012 
  2332.84,924.012 2375.26,924.012 2422.55,924.012 2474.97,924.012 2532.78,924.012 
  "/>
<polyline clip-path="url(#clip742)" style="stroke:#0000ff; stroke-linecap:round; stroke-linejoin:round; stroke-width:8; stroke-opacity:1; fill:none" points="
  1251.54,720.171 1228.28,353.795 
  "/>
<polyline clip-path="url(#clip742)" style="stroke:#0000ff; stroke-linecap:round; stroke-linejoin:round; stroke-width:8; stroke-opacity:1; fill:none" points="
  1210.71,395.312 1228.28,353.795 1250.95,392.757 
  "/>
<polyline clip-path="url(#clip742)" style="stroke:#0000ff; stroke-linecap:round; stroke-linejoin:round; stroke-width:8; stroke-opacity:1; fill:none" points="
  1228.28,353.795 1251.54,720.171 
  "/>
<polyline clip-path="url(#clip742)" style="stroke:#ff0000; stroke-linecap:round; stroke-linejoin:round; stroke-width:4; stroke-opacity:1; fill:none" points="
  885.165,743.434 861.902,377.058 
  "/>
<polyline clip-path="url(#clip742)" style="stroke:#ff0000; stroke-linecap:round; stroke-linejoin:round; stroke-width:4; stroke-opacity:1; fill:none" points="
  844.337,418.574 861.902,377.058 884.576,416.019 
  "/>
<polyline clip-path="url(#clip742)" style="stroke:#ff0000; stroke-linecap:round; stroke-linejoin:round; stroke-width:4; stroke-opacity:1; fill:none" points="
  861.902,377.058 885.165,743.434 
  "/>
<polyline clip-path="url(#clip742)" style="stroke:#0000ff; stroke-linecap:round; stroke-linejoin:round; stroke-width:8; stroke-opacity:1; fill:none" points="
  1251.54,720.171 885.165,743.434 
  "/>
<polyline clip-path="url(#clip742)" style="stroke:#0000ff; stroke-linecap:round; stroke-linejoin:round; stroke-width:8; stroke-opacity:1; fill:none" points="
  926.681,760.998 885.165,743.434 924.126,720.759 
  "/>
<polyline clip-path="url(#clip742)" style="stroke:#0000ff; stroke-linecap:round; stroke-linejoin:round; stroke-width:8; stroke-opacity:1; fill:none" points="
  885.165,743.434 1251.54,720.171 
  "/>
<polyline clip-path="url(#clip742)" style="stroke:#ff0000; stroke-linecap:round; stroke-linejoin:round; stroke-width:4; stroke-opacity:1; fill:none" points="
  1228.28,353.795 861.902,377.058 
  "/>
<polyline clip-path="url(#clip742)" style="stroke:#ff0000; stroke-linecap:round; stroke-linejoin:round; stroke-width:4; stroke-opacity:1; fill:none" points="
  903.418,394.622 861.902,377.058 900.863,354.383 
  "/>
<polyline clip-path="url(#clip742)" style="stroke:#ff0000; stroke-linecap:round; stroke-linejoin:round; stroke-width:4; stroke-opacity:1; fill:none" points="
  861.902,377.058 1228.28,353.795 
  "/>
</svg>
