<?xml version="1.0" encoding="utf-8"?>
<svg xmlns="http://www.w3.org/2000/svg" xmlns:xlink="http://www.w3.org/1999/xlink" width="672" height="480" viewBox="0 0 2688 1920">
<defs>
  <clipPath id="clip340">
    <rect x="0" y="0" width="2688" height="1920"/>
  </clipPath>
</defs>
<path clip-path="url(#clip340)" d="
M0 1920 L2688 1920 L2688 0 L0 0  Z
  " fill="#ffffff" fill-rule="evenodd" fill-opacity="1"/>
<defs>
  <clipPath id="clip341">
    <rect x="537" y="0" width="1883" height="1883"/>
  </clipPath>
</defs>
<path clip-path="url(#clip340)" d="
M189.154 1800.78 L2640.76 1800.78 L2640.76 47.2441 L189.154 47.2441  Z
  " fill="#ffffff" fill-rule="evenodd" fill-opacity="1"/>
<defs>
  <clipPath id="clip342">
    <rect x="189" y="47" width="2453" height="1755"/>
  </clipPath>
</defs>
<polyline clip-path="url(#clip342)" style="stroke:#000000; stroke-linecap:butt; stroke-linejoin:round; stroke-width:2; stroke-opacity:0.1; fill:none" points="
  258.539,1800.78 258.539,47.2441 
  "/>
<polyline clip-path="url(#clip342)" style="stroke:#000000; stroke-linecap:butt; stroke-linejoin:round; stroke-width:2; stroke-opacity:0.1; fill:none" points="
  836.747,1800.78 836.747,47.2441 
  "/>
<polyline clip-path="url(#clip342)" style="stroke:#000000; stroke-linecap:butt; stroke-linejoin:round; stroke-width:2; stroke-opacity:0.1; fill:none" points="
  1414.95,1800.78 1414.95,47.2441 
  "/>
<polyline clip-path="url(#clip342)" style="stroke:#000000; stroke-linecap:butt; stroke-linejoin:round; stroke-width:2; stroke-opacity:0.1; fill:none" points="
  1993.16,1800.78 1993.16,47.2441 
  "/>
<polyline clip-path="url(#clip342)" style="stroke:#000000; stroke-linecap:butt; stroke-linejoin:round; stroke-width:2; stroke-opacity:0.1; fill:none" points="
  2571.37,1800.78 2571.37,47.2441 
  "/>
<polyline clip-path="url(#clip340)" style="stroke:#000000; stroke-linecap:butt; stroke-linejoin:round; stroke-width:4; stroke-opacity:1; fill:none" points="
  189.154,1800.78 2640.76,1800.78 
  "/>
<polyline clip-path="url(#clip340)" style="stroke:#000000; stroke-linecap:butt; stroke-linejoin:round; stroke-width:4; stroke-opacity:1; fill:none" points="
  258.539,1800.78 258.539,1781.88 
  "/>
<polyline clip-path="url(#clip340)" style="stroke:#000000; stroke-linecap:butt; stroke-linejoin:round; stroke-width:4; stroke-opacity:1; fill:none" points="
  836.747,1800.78 836.747,1781.88 
  "/>
<polyline clip-path="url(#clip340)" style="stroke:#000000; stroke-linecap:butt; stroke-linejoin:round; stroke-width:4; stroke-opacity:1; fill:none" points="
  1414.95,1800.78 1414.95,1781.88 
  "/>
<polyline clip-path="url(#clip340)" style="stroke:#000000; stroke-linecap:butt; stroke-linejoin:round; stroke-width:4; stroke-opacity:1; fill:none" points="
  1993.16,1800.78 1993.16,1781.88 
  "/>
<polyline clip-path="url(#clip340)" style="stroke:#000000; stroke-linecap:butt; stroke-linejoin:round; stroke-width:4; stroke-opacity:1; fill:none" points="
  2571.37,1800.78 2571.37,1781.88 
  "/>
<path clip-path="url(#clip340)" d="M235.923 1834 Q232.312 1834 230.484 1837.57 Q228.678 1841.11 228.678 1848.24 Q228.678 1855.34 230.484 1858.91 Q232.312 1862.45 235.923 1862.45 Q239.558 1862.45 241.363 1858.91 Q243.192 1855.34 243.192 1848.24 Q243.192 1841.11 241.363 1837.57 Q239.558 1834 235.923 1834 M235.923 1830.3 Q241.733 1830.3 244.789 1834.9 Q247.868 1839.49 247.868 1848.24 Q247.868 1856.96 244.789 1861.57 Q241.733 1866.15 235.923 1866.15 Q230.113 1866.15 227.035 1861.57 Q223.979 1856.96 223.979 1848.24 Q223.979 1839.49 227.035 1834.9 Q230.113 1830.3 235.923 1830.3 Z" fill="#000000" fill-rule="evenodd" fill-opacity="1" /><path clip-path="url(#clip340)" d="M256.085 1859.6 L260.97 1859.6 L260.97 1865.48 L256.085 1865.48 L256.085 1859.6 Z" fill="#000000" fill-rule="evenodd" fill-opacity="1" /><path clip-path="url(#clip340)" d="M281.155 1834 Q277.543 1834 275.715 1837.57 Q273.909 1841.11 273.909 1848.24 Q273.909 1855.34 275.715 1858.91 Q277.543 1862.45 281.155 1862.45 Q284.789 1862.45 286.594 1858.91 Q288.423 1855.34 288.423 1848.24 Q288.423 1841.11 286.594 1837.57 Q284.789 1834 281.155 1834 M281.155 1830.3 Q286.965 1830.3 290.02 1834.9 Q293.099 1839.49 293.099 1848.24 Q293.099 1856.96 290.02 1861.57 Q286.965 1866.15 281.155 1866.15 Q275.344 1866.15 272.266 1861.57 Q269.21 1856.96 269.21 1848.24 Q269.21 1839.49 272.266 1834.9 Q275.344 1830.3 281.155 1830.3 Z" fill="#000000" fill-rule="evenodd" fill-opacity="1" /><path clip-path="url(#clip340)" d="M814.629 1834 Q811.018 1834 809.189 1837.57 Q807.384 1841.11 807.384 1848.24 Q807.384 1855.34 809.189 1858.91 Q811.018 1862.45 814.629 1862.45 Q818.263 1862.45 820.069 1858.91 Q821.897 1855.34 821.897 1848.24 Q821.897 1841.11 820.069 1837.57 Q818.263 1834 814.629 1834 M814.629 1830.3 Q820.439 1830.3 823.495 1834.9 Q826.573 1839.49 826.573 1848.24 Q826.573 1856.96 823.495 1861.57 Q820.439 1866.15 814.629 1866.15 Q808.819 1866.15 805.74 1861.57 Q802.685 1856.96 802.685 1848.24 Q802.685 1839.49 805.74 1834.9 Q808.819 1830.3 814.629 1830.3 Z" fill="#000000" fill-rule="evenodd" fill-opacity="1" /><path clip-path="url(#clip340)" d="M834.791 1859.6 L839.675 1859.6 L839.675 1865.48 L834.791 1865.48 L834.791 1859.6 Z" fill="#000000" fill-rule="evenodd" fill-opacity="1" /><path clip-path="url(#clip340)" d="M849.907 1830.92 L868.263 1830.92 L868.263 1834.86 L854.189 1834.86 L854.189 1843.33 Q855.208 1842.98 856.226 1842.82 Q857.245 1842.64 858.263 1842.64 Q864.05 1842.64 867.43 1845.81 Q870.809 1848.98 870.809 1854.4 Q870.809 1859.97 867.337 1863.08 Q863.865 1866.15 857.545 1866.15 Q855.37 1866.15 853.101 1865.78 Q850.856 1865.41 848.448 1864.67 L848.448 1859.97 Q850.532 1861.11 852.754 1861.66 Q854.976 1862.22 857.453 1862.22 Q861.457 1862.22 863.795 1860.11 Q866.133 1858.01 866.133 1854.4 Q866.133 1850.78 863.795 1848.68 Q861.457 1846.57 857.453 1846.57 Q855.578 1846.57 853.703 1846.99 Q851.851 1847.4 849.907 1848.28 L849.907 1830.92 Z" fill="#000000" fill-rule="evenodd" fill-opacity="1" /><path clip-path="url(#clip340)" d="M1382.11 1861.55 L1389.75 1861.55 L1389.75 1835.18 L1381.44 1836.85 L1381.44 1832.59 L1389.7 1830.92 L1394.38 1830.92 L1394.38 1861.55 L1402.02 1861.55 L1402.02 1865.48 L1382.11 1865.48 L1382.11 1861.55 Z" fill="#000000" fill-rule="evenodd" fill-opacity="1" /><path clip-path="url(#clip340)" d="M1411.46 1859.6 L1416.34 1859.6 L1416.34 1865.48 L1411.46 1865.48 L1411.46 1859.6 Z" fill="#000000" fill-rule="evenodd" fill-opacity="1" /><path clip-path="url(#clip340)" d="M1436.53 1834 Q1432.92 1834 1431.09 1837.57 Q1429.28 1841.11 1429.28 1848.24 Q1429.28 1855.34 1431.09 1858.91 Q1432.92 1862.45 1436.53 1862.45 Q1440.16 1862.45 1441.97 1858.91 Q1443.8 1855.34 1443.8 1848.24 Q1443.8 1841.11 1441.97 1837.57 Q1440.16 1834 1436.53 1834 M1436.53 1830.3 Q1442.34 1830.3 1445.39 1834.9 Q1448.47 1839.49 1448.47 1848.24 Q1448.47 1856.96 1445.39 1861.57 Q1442.34 1866.15 1436.53 1866.15 Q1430.72 1866.15 1427.64 1861.57 Q1424.58 1856.96 1424.58 1848.24 Q1424.58 1839.49 1427.64 1834.9 Q1430.72 1830.3 1436.53 1830.3 Z" fill="#000000" fill-rule="evenodd" fill-opacity="1" /><path clip-path="url(#clip340)" d="M1960.81 1861.55 L1968.45 1861.55 L1968.45 1835.18 L1960.14 1836.85 L1960.14 1832.59 L1968.41 1830.92 L1973.08 1830.92 L1973.08 1861.55 L1980.72 1861.55 L1980.72 1865.48 L1960.81 1865.48 L1960.81 1861.55 Z" fill="#000000" fill-rule="evenodd" fill-opacity="1" /><path clip-path="url(#clip340)" d="M1990.17 1859.6 L1995.05 1859.6 L1995.05 1865.48 L1990.17 1865.48 L1990.17 1859.6 Z" fill="#000000" fill-rule="evenodd" fill-opacity="1" /><path clip-path="url(#clip340)" d="M2005.28 1830.92 L2023.64 1830.92 L2023.64 1834.86 L2009.56 1834.86 L2009.56 1843.33 Q2010.58 1842.98 2011.6 1842.82 Q2012.62 1842.64 2013.64 1842.64 Q2019.42 1842.64 2022.8 1845.81 Q2026.18 1848.98 2026.18 1854.4 Q2026.18 1859.97 2022.71 1863.08 Q2019.24 1866.15 2012.92 1866.15 Q2010.74 1866.15 2008.48 1865.78 Q2006.23 1865.41 2003.82 1864.67 L2003.82 1859.97 Q2005.91 1861.11 2008.13 1861.66 Q2010.35 1862.22 2012.83 1862.22 Q2016.83 1862.22 2019.17 1860.11 Q2021.51 1858.01 2021.51 1854.4 Q2021.51 1850.78 2019.17 1848.68 Q2016.83 1846.57 2012.83 1846.57 Q2010.95 1846.57 2009.08 1846.99 Q2007.23 1847.4 2005.28 1848.28 L2005.28 1830.92 Z" fill="#000000" fill-rule="evenodd" fill-opacity="1" /><path clip-path="url(#clip340)" d="M2542.61 1861.55 L2558.93 1861.55 L2558.93 1865.48 L2536.98 1865.48 L2536.98 1861.55 Q2539.65 1858.79 2544.23 1854.16 Q2548.84 1849.51 2550.02 1848.17 Q2552.26 1845.65 2553.14 1843.91 Q2554.04 1842.15 2554.04 1840.46 Q2554.04 1837.71 2552.1 1835.97 Q2550.18 1834.23 2547.08 1834.23 Q2544.88 1834.23 2542.42 1835 Q2539.99 1835.76 2537.22 1837.31 L2537.22 1832.59 Q2540.04 1831.46 2542.49 1830.88 Q2544.95 1830.3 2546.98 1830.3 Q2552.35 1830.3 2555.55 1832.98 Q2558.74 1835.67 2558.74 1840.16 Q2558.74 1842.29 2557.93 1844.21 Q2557.15 1846.11 2555.04 1848.7 Q2554.46 1849.37 2551.36 1852.59 Q2548.26 1855.78 2542.61 1861.55 Z" fill="#000000" fill-rule="evenodd" fill-opacity="1" /><path clip-path="url(#clip340)" d="M2568.74 1859.6 L2573.63 1859.6 L2573.63 1865.48 L2568.74 1865.48 L2568.74 1859.6 Z" fill="#000000" fill-rule="evenodd" fill-opacity="1" /><path clip-path="url(#clip340)" d="M2593.81 1834 Q2590.2 1834 2588.37 1837.57 Q2586.57 1841.11 2586.57 1848.24 Q2586.57 1855.34 2588.37 1858.91 Q2590.2 1862.45 2593.81 1862.45 Q2597.45 1862.45 2599.25 1858.91 Q2601.08 1855.34 2601.08 1848.24 Q2601.08 1841.11 2599.25 1837.57 Q2597.45 1834 2593.81 1834 M2593.81 1830.3 Q2599.62 1830.3 2602.68 1834.9 Q2605.76 1839.49 2605.76 1848.24 Q2605.76 1856.96 2602.68 1861.57 Q2599.62 1866.15 2593.81 1866.15 Q2588 1866.15 2584.92 1861.57 Q2581.87 1856.96 2581.87 1848.24 Q2581.87 1839.49 2584.92 1834.9 Q2588 1830.3 2593.81 1830.3 Z" fill="#000000" fill-rule="evenodd" fill-opacity="1" /><polyline clip-path="url(#clip342)" style="stroke:#000000; stroke-linecap:butt; stroke-linejoin:round; stroke-width:2; stroke-opacity:0.1; fill:none" points="
  189.154,1502.22 2640.76,1502.22 
  "/>
<polyline clip-path="url(#clip342)" style="stroke:#000000; stroke-linecap:butt; stroke-linejoin:round; stroke-width:2; stroke-opacity:0.1; fill:none" points="
  189.154,1155.29 2640.76,1155.29 
  "/>
<polyline clip-path="url(#clip342)" style="stroke:#000000; stroke-linecap:butt; stroke-linejoin:round; stroke-width:2; stroke-opacity:0.1; fill:none" points="
  189.154,808.37 2640.76,808.37 
  "/>
<polyline clip-path="url(#clip342)" style="stroke:#000000; stroke-linecap:butt; stroke-linejoin:round; stroke-width:2; stroke-opacity:0.1; fill:none" points="
  189.154,461.445 2640.76,461.445 
  "/>
<polyline clip-path="url(#clip342)" style="stroke:#000000; stroke-linecap:butt; stroke-linejoin:round; stroke-width:2; stroke-opacity:0.1; fill:none" points="
  189.154,114.521 2640.76,114.521 
  "/>
<polyline clip-path="url(#clip340)" style="stroke:#000000; stroke-linecap:butt; stroke-linejoin:round; stroke-width:4; stroke-opacity:1; fill:none" points="
  189.154,1800.78 189.154,47.2441 
  "/>
<polyline clip-path="url(#clip340)" style="stroke:#000000; stroke-linecap:butt; stroke-linejoin:round; stroke-width:4; stroke-opacity:1; fill:none" points="
  189.154,1502.22 208.052,1502.22 
  "/>
<polyline clip-path="url(#clip340)" style="stroke:#000000; stroke-linecap:butt; stroke-linejoin:round; stroke-width:4; stroke-opacity:1; fill:none" points="
  189.154,1155.29 208.052,1155.29 
  "/>
<polyline clip-path="url(#clip340)" style="stroke:#000000; stroke-linecap:butt; stroke-linejoin:round; stroke-width:4; stroke-opacity:1; fill:none" points="
  189.154,808.37 208.052,808.37 
  "/>
<polyline clip-path="url(#clip340)" style="stroke:#000000; stroke-linecap:butt; stroke-linejoin:round; stroke-width:4; stroke-opacity:1; fill:none" points="
  189.154,461.445 208.052,461.445 
  "/>
<polyline clip-path="url(#clip340)" style="stroke:#000000; stroke-linecap:butt; stroke-linejoin:round; stroke-width:4; stroke-opacity:1; fill:none" points="
  189.154,114.521 208.052,114.521 
  "/>
<path clip-path="url(#clip340)" d="M91.6584 1488.02 Q88.0473 1488.02 86.2186 1491.58 Q84.4131 1495.12 84.4131 1502.25 Q84.4131 1509.36 86.2186 1512.93 Q88.0473 1516.47 91.6584 1516.47 Q95.2926 1516.47 97.0982 1512.93 Q98.9269 1509.36 98.9269 1502.25 Q98.9269 1495.12 97.0982 1491.58 Q95.2926 1488.02 91.6584 1488.02 M91.6584 1484.31 Q97.4685 1484.31 100.524 1488.92 Q103.603 1493.5 103.603 1502.25 Q103.603 1510.98 100.524 1515.59 Q97.4685 1520.17 91.6584 1520.17 Q85.8482 1520.17 82.7695 1515.59 Q79.714 1510.98 79.714 1502.25 Q79.714 1493.5 82.7695 1488.92 Q85.8482 1484.31 91.6584 1484.31 Z" fill="#000000" fill-rule="evenodd" fill-opacity="1" /><path clip-path="url(#clip340)" d="M111.82 1513.62 L116.705 1513.62 L116.705 1519.5 L111.82 1519.5 L111.82 1513.62 Z" fill="#000000" fill-rule="evenodd" fill-opacity="1" /><path clip-path="url(#clip340)" d="M136.89 1488.02 Q133.279 1488.02 131.45 1491.58 Q129.644 1495.12 129.644 1502.25 Q129.644 1509.36 131.45 1512.93 Q133.279 1516.47 136.89 1516.47 Q140.524 1516.47 142.329 1512.93 Q144.158 1509.36 144.158 1502.25 Q144.158 1495.12 142.329 1491.58 Q140.524 1488.02 136.89 1488.02 M136.89 1484.31 Q142.7 1484.31 145.755 1488.92 Q148.834 1493.5 148.834 1502.25 Q148.834 1510.98 145.755 1515.59 Q142.7 1520.17 136.89 1520.17 Q131.079 1520.17 128.001 1515.59 Q124.945 1510.98 124.945 1502.25 Q124.945 1493.5 128.001 1488.92 Q131.079 1484.31 136.89 1484.31 Z" fill="#000000" fill-rule="evenodd" fill-opacity="1" /><path clip-path="url(#clip340)" d="M92.3065 1141.09 Q88.6954 1141.09 86.8667 1144.66 Q85.0612 1148.2 85.0612 1155.33 Q85.0612 1162.44 86.8667 1166 Q88.6954 1169.54 92.3065 1169.54 Q95.9408 1169.54 97.7463 1166 Q99.575 1162.44 99.575 1155.33 Q99.575 1148.2 97.7463 1144.66 Q95.9408 1141.09 92.3065 1141.09 M92.3065 1137.39 Q98.1167 1137.39 101.172 1142 Q104.251 1146.58 104.251 1155.33 Q104.251 1164.06 101.172 1168.66 Q98.1167 1173.25 92.3065 1173.25 Q86.4964 1173.25 83.4177 1168.66 Q80.3621 1164.06 80.3621 1155.33 Q80.3621 1146.58 83.4177 1142 Q86.4964 1137.39 92.3065 1137.39 Z" fill="#000000" fill-rule="evenodd" fill-opacity="1" /><path clip-path="url(#clip340)" d="M112.468 1166.7 L117.353 1166.7 L117.353 1172.57 L112.468 1172.57 L112.468 1166.7 Z" fill="#000000" fill-rule="evenodd" fill-opacity="1" /><path clip-path="url(#clip340)" d="M141.704 1153.94 Q145.061 1154.66 146.936 1156.93 Q148.834 1159.2 148.834 1162.53 Q148.834 1167.64 145.316 1170.45 Q141.797 1173.25 135.316 1173.25 Q133.14 1173.25 130.825 1172.81 Q128.533 1172.39 126.079 1171.53 L126.079 1167.02 Q128.024 1168.15 130.339 1168.73 Q132.654 1169.31 135.177 1169.31 Q139.575 1169.31 141.866 1167.57 Q144.181 1165.84 144.181 1162.53 Q144.181 1159.47 142.028 1157.76 Q139.899 1156.02 136.079 1156.02 L132.052 1156.02 L132.052 1152.18 L136.265 1152.18 Q139.714 1152.18 141.542 1150.82 Q143.371 1149.43 143.371 1146.83 Q143.371 1144.17 141.473 1142.76 Q139.598 1141.33 136.079 1141.33 Q134.158 1141.33 131.959 1141.74 Q129.76 1142.16 127.121 1143.04 L127.121 1138.87 Q129.783 1138.13 132.098 1137.76 Q134.436 1137.39 136.496 1137.39 Q141.82 1137.39 144.922 1139.82 Q148.024 1142.23 148.024 1146.35 Q148.024 1149.22 146.38 1151.21 Q144.737 1153.18 141.704 1153.94 Z" fill="#000000" fill-rule="evenodd" fill-opacity="1" /><path clip-path="url(#clip340)" d="M91.4963 794.169 Q87.8853 794.169 86.0566 797.734 Q84.251 801.275 84.251 808.405 Q84.251 815.511 86.0566 819.076 Q87.8853 822.618 91.4963 822.618 Q95.1306 822.618 96.9361 819.076 Q98.7648 815.511 98.7648 808.405 Q98.7648 801.275 96.9361 797.734 Q95.1306 794.169 91.4963 794.169 M91.4963 790.465 Q97.3065 790.465 100.362 795.072 Q103.441 799.655 103.441 808.405 Q103.441 817.132 100.362 821.738 Q97.3065 826.321 91.4963 826.321 Q85.6862 826.321 82.6075 821.738 Q79.552 817.132 79.552 808.405 Q79.552 799.655 82.6075 795.072 Q85.6862 790.465 91.4963 790.465 Z" fill="#000000" fill-rule="evenodd" fill-opacity="1" /><path clip-path="url(#clip340)" d="M111.658 819.771 L116.543 819.771 L116.543 825.65 L111.658 825.65 L111.658 819.771 Z" fill="#000000" fill-rule="evenodd" fill-opacity="1" /><path clip-path="url(#clip340)" d="M137.306 806.507 Q134.158 806.507 132.306 808.659 Q130.478 810.812 130.478 814.562 Q130.478 818.289 132.306 820.465 Q134.158 822.618 137.306 822.618 Q140.454 822.618 142.283 820.465 Q144.135 818.289 144.135 814.562 Q144.135 810.812 142.283 808.659 Q140.454 806.507 137.306 806.507 M146.589 791.854 L146.589 796.113 Q144.829 795.28 143.024 794.84 Q141.241 794.4 139.482 794.4 Q134.853 794.4 132.399 797.525 Q129.968 800.65 129.621 806.97 Q130.987 804.956 133.047 803.891 Q135.107 802.803 137.584 802.803 Q142.792 802.803 145.802 805.974 Q148.834 809.122 148.834 814.562 Q148.834 819.886 145.686 823.104 Q142.538 826.321 137.306 826.321 Q131.311 826.321 128.14 821.738 Q124.968 817.132 124.968 808.405 Q124.968 800.21 128.857 795.349 Q132.746 790.465 139.297 790.465 Q141.056 790.465 142.839 790.812 Q144.644 791.16 146.589 791.854 Z" fill="#000000" fill-rule="evenodd" fill-opacity="1" /><path clip-path="url(#clip340)" d="M91.8436 447.244 Q88.2325 447.244 86.4038 450.809 Q84.5982 454.35 84.5982 461.48 Q84.5982 468.586 86.4038 472.151 Q88.2325 475.693 91.8436 475.693 Q95.4778 475.693 97.2834 472.151 Q99.112 468.586 99.112 461.48 Q99.112 454.35 97.2834 450.809 Q95.4778 447.244 91.8436 447.244 M91.8436 443.54 Q97.6537 443.54 100.709 448.147 Q103.788 452.73 103.788 461.48 Q103.788 470.207 100.709 474.813 Q97.6537 479.397 91.8436 479.397 Q86.0334 479.397 82.9547 474.813 Q79.8992 470.207 79.8992 461.48 Q79.8992 452.73 82.9547 448.147 Q86.0334 443.54 91.8436 443.54 Z" fill="#000000" fill-rule="evenodd" fill-opacity="1" /><path clip-path="url(#clip340)" d="M112.005 472.846 L116.89 472.846 L116.89 478.725 L112.005 478.725 L112.005 472.846 Z" fill="#000000" fill-rule="evenodd" fill-opacity="1" /><path clip-path="url(#clip340)" d="M127.214 478.008 L127.214 473.748 Q128.973 474.582 130.779 475.022 Q132.584 475.461 134.32 475.461 Q138.95 475.461 141.38 472.36 Q143.834 469.235 144.181 462.892 Q142.839 464.883 140.778 465.948 Q138.718 467.012 136.218 467.012 Q131.033 467.012 128.001 463.887 Q124.992 460.739 124.992 455.3 Q124.992 449.975 128.14 446.758 Q131.288 443.54 136.519 443.54 Q142.515 443.54 145.663 448.147 Q148.834 452.73 148.834 461.48 Q148.834 469.651 144.945 474.536 Q141.079 479.397 134.529 479.397 Q132.769 479.397 130.964 479.049 Q129.158 478.702 127.214 478.008 M136.519 463.355 Q139.667 463.355 141.496 461.202 Q143.348 459.049 143.348 455.3 Q143.348 451.573 141.496 449.42 Q139.667 447.244 136.519 447.244 Q133.371 447.244 131.519 449.42 Q129.691 451.573 129.691 455.3 Q129.691 459.049 131.519 461.202 Q133.371 463.355 136.519 463.355 Z" fill="#000000" fill-rule="evenodd" fill-opacity="1" /><path clip-path="url(#clip340)" d="M84.0658 127.865 L91.7047 127.865 L91.7047 101.5 L83.3945 103.166 L83.3945 98.9072 L91.6584 97.2405 L96.3343 97.2405 L96.3343 127.865 L103.973 127.865 L103.973 131.801 L84.0658 131.801 L84.0658 127.865 Z" fill="#000000" fill-rule="evenodd" fill-opacity="1" /><path clip-path="url(#clip340)" d="M113.418 125.921 L118.302 125.921 L118.302 131.801 L113.418 131.801 L113.418 125.921 Z" fill="#000000" fill-rule="evenodd" fill-opacity="1" /><path clip-path="url(#clip340)" d="M132.515 127.865 L148.834 127.865 L148.834 131.801 L126.89 131.801 L126.89 127.865 Q129.552 125.111 134.135 120.481 Q138.741 115.828 139.922 114.486 Q142.167 111.963 143.047 110.227 Q143.95 108.467 143.95 106.777 Q143.95 104.023 142.005 102.287 Q140.084 100.551 136.982 100.551 Q134.783 100.551 132.329 101.315 Q129.899 102.078 127.121 103.629 L127.121 98.9072 Q129.945 97.7729 132.399 97.1942 Q134.853 96.6155 136.89 96.6155 Q142.26 96.6155 145.454 99.3007 Q148.649 101.986 148.649 106.477 Q148.649 108.606 147.839 110.527 Q147.052 112.426 144.945 115.018 Q144.366 115.689 141.265 118.907 Q138.163 122.101 132.515 127.865 Z" fill="#000000" fill-rule="evenodd" fill-opacity="1" /><polyline clip-path="url(#clip342)" style="stroke:#009af9; stroke-linecap:butt; stroke-linejoin:round; stroke-width:4; stroke-opacity:1; fill:none" points="
  258.539,1502.22 258.539,1419.62 258.539,1337.02 258.539,1254.42 258.539,1171.82 258.539,1089.21 258.539,1006.61 258.539,924.012 258.539,841.411 258.539,758.809 
  258.539,676.208 258.539,593.607 258.539,511.006 258.539,428.405 258.539,345.804 
  "/>
<polyline clip-path="url(#clip342)" style="stroke:#e26f46; stroke-linecap:butt; stroke-linejoin:round; stroke-width:4; stroke-opacity:1; fill:none" points="
  423.741,1502.22 423.741,1419.62 423.741,1337.02 423.741,1254.42 423.741,1171.82 423.741,1089.21 423.741,1006.61 423.741,924.012 423.741,841.411 423.741,758.809 
  423.741,676.208 423.741,593.607 423.741,511.006 423.741,428.405 423.741,345.804 
  "/>
<polyline clip-path="url(#clip342)" style="stroke:#3da44d; stroke-linecap:butt; stroke-linejoin:round; stroke-width:4; stroke-opacity:1; fill:none" points="
  588.944,1502.22 588.944,1419.62 588.944,1337.02 588.944,1254.42 588.944,1171.82 588.944,1089.21 588.944,1006.61 588.944,924.012 588.944,841.411 588.944,758.809 
  588.944,676.208 588.944,593.607 588.944,511.006 588.944,428.405 588.944,345.804 
  "/>
<polyline clip-path="url(#clip342)" style="stroke:#c271d2; stroke-linecap:butt; stroke-linejoin:round; stroke-width:4; stroke-opacity:1; fill:none" points="
  754.146,1502.22 754.146,1419.62 754.146,1337.02 754.146,1254.42 754.146,1171.82 754.146,1089.21 754.146,1006.61 754.146,924.012 754.146,841.411 754.146,758.809 
  754.146,676.208 754.146,593.607 754.146,511.006 754.146,428.405 754.146,345.804 
  "/>
<polyline clip-path="url(#clip342)" style="stroke:#ac8d18; stroke-linecap:butt; stroke-linejoin:round; stroke-width:4; stroke-opacity:1; fill:none" points="
  919.348,1502.22 919.348,1419.62 919.348,1337.02 919.348,1254.42 919.348,1171.82 919.348,1089.21 919.348,1006.61 919.348,924.012 919.348,841.411 919.348,758.809 
  919.348,676.208 919.348,593.607 919.348,511.006 919.348,428.405 919.348,345.804 
  "/>
<polyline clip-path="url(#clip342)" style="stroke:#00a9ad; stroke-linecap:butt; stroke-linejoin:round; stroke-width:4; stroke-opacity:1; fill:none" points="
  1084.55,1502.22 1084.55,1419.62 1084.55,1337.02 1084.55,1254.42 1084.55,1171.82 1084.55,1089.21 1084.55,1006.61 1084.55,924.012 1084.55,841.411 1084.55,758.809 
  1084.55,676.208 1084.55,593.607 1084.55,511.006 1084.55,428.405 1084.55,345.804 
  "/>
<polyline clip-path="url(#clip342)" style="stroke:#ed5d92; stroke-linecap:butt; stroke-linejoin:round; stroke-width:4; stroke-opacity:1; fill:none" points="
  1249.75,1502.22 1249.75,1419.62 1249.75,1337.02 1249.75,1254.42 1249.75,1171.82 1249.75,1089.21 1249.75,1006.61 1249.75,924.012 1249.75,841.411 1249.75,758.809 
  1249.75,676.208 1249.75,593.607 1249.75,511.006 1249.75,428.405 1249.75,345.804 
  "/>
<polyline clip-path="url(#clip342)" style="stroke:#c68125; stroke-linecap:butt; stroke-linejoin:round; stroke-width:4; stroke-opacity:1; fill:none" points="
  1414.95,1502.22 1414.95,1419.62 1414.95,1337.02 1414.95,1254.42 1414.95,1171.82 1414.95,1089.21 1414.95,1006.61 1414.95,924.012 1414.95,841.411 1414.95,758.809 
  1414.95,676.208 1414.95,593.607 1414.95,511.006 1414.95,428.405 1414.95,345.804 
  "/>
<polyline clip-path="url(#clip342)" style="stroke:#00a98d; stroke-linecap:butt; stroke-linejoin:round; stroke-width:4; stroke-opacity:1; fill:none" points="
  1580.16,1502.22 1580.16,1419.62 1580.16,1337.02 1580.16,1254.42 1580.16,1171.82 1580.16,1089.21 1580.16,1006.61 1580.16,924.012 1580.16,841.411 1580.16,758.809 
  1580.16,676.208 1580.16,593.607 1580.16,511.006 1580.16,428.405 1580.16,345.804 
  "/>
<polyline clip-path="url(#clip342)" style="stroke:#8e971d; stroke-linecap:butt; stroke-linejoin:round; stroke-width:4; stroke-opacity:1; fill:none" points="
  1745.36,1502.22 1745.36,1419.62 1745.36,1337.02 1745.36,1254.42 1745.36,1171.82 1745.36,1089.21 1745.36,1006.61 1745.36,924.012 1745.36,841.411 1745.36,758.809 
  1745.36,676.208 1745.36,593.607 1745.36,511.006 1745.36,428.405 1745.36,345.804 
  "/>
<polyline clip-path="url(#clip342)" style="stroke:#00a8cb; stroke-linecap:butt; stroke-linejoin:round; stroke-width:4; stroke-opacity:1; fill:none" points="
  1910.56,1502.22 1910.56,1419.62 1910.56,1337.02 1910.56,1254.42 1910.56,1171.82 1910.56,1089.21 1910.56,1006.61 1910.56,924.012 1910.56,841.411 1910.56,758.809 
  1910.56,676.208 1910.56,593.607 1910.56,511.006 1910.56,428.405 1910.56,345.804 
  "/>
<polyline clip-path="url(#clip342)" style="stroke:#9b7fe8; stroke-linecap:butt; stroke-linejoin:round; stroke-width:4; stroke-opacity:1; fill:none" points="
  2075.76,1502.22 2075.76,1419.62 2075.76,1337.02 2075.76,1254.42 2075.76,1171.82 2075.76,1089.21 2075.76,1006.61 2075.76,924.012 2075.76,841.411 2075.76,758.809 
  2075.76,676.208 2075.76,593.607 2075.76,511.006 2075.76,428.405 2075.76,345.804 
  "/>
<polyline clip-path="url(#clip342)" style="stroke:#608cf6; stroke-linecap:butt; stroke-linejoin:round; stroke-width:4; stroke-opacity:1; fill:none" points="
  2240.97,1502.22 2240.97,1419.62 2240.97,1337.02 2240.97,1254.42 2240.97,1171.82 2240.97,1089.21 2240.97,1006.61 2240.97,924.012 2240.97,841.411 2240.97,758.809 
  2240.97,676.208 2240.97,593.607 2240.97,511.006 2240.97,428.405 2240.97,345.804 
  "/>
<polyline clip-path="url(#clip342)" style="stroke:#f05f73; stroke-linecap:butt; stroke-linejoin:round; stroke-width:4; stroke-opacity:1; fill:none" points="
  2406.17,1502.22 2406.17,1419.62 2406.17,1337.02 2406.17,1254.42 2406.17,1171.82 2406.17,1089.21 2406.17,1006.61 2406.17,924.012 2406.17,841.411 2406.17,758.809 
  2406.17,676.208 2406.17,593.607 2406.17,511.006 2406.17,428.405 2406.17,345.804 
  "/>
<polyline clip-path="url(#clip342)" style="stroke:#dd64b5; stroke-linecap:butt; stroke-linejoin:round; stroke-width:4; stroke-opacity:1; fill:none" points="
  2571.37,1502.22 2571.37,1419.62 2571.37,1337.02 2571.37,1254.42 2571.37,1171.82 2571.37,1089.21 2571.37,1006.61 2571.37,924.012 2571.37,841.411 2571.37,758.809 
  2571.37,676.208 2571.37,593.607 2571.37,511.006 2571.37,428.405 2571.37,345.804 
  "/>
<polyline clip-path="url(#clip342)" style="stroke:#6b9e32; stroke-linecap:butt; stroke-linejoin:round; stroke-width:4; stroke-opacity:1; fill:none" points="
  258.539,1502.22 423.741,1502.22 588.944,1502.22 754.146,1502.22 919.348,1502.22 1084.55,1502.22 1249.75,1502.22 1414.95,1502.22 1580.16,1502.22 1745.36,1502.22 
  1910.56,1502.22 2075.76,1502.22 2240.97,1502.22 2406.17,1502.22 2571.37,1502.22 
  "/>
<polyline clip-path="url(#clip342)" style="stroke:#009af9; stroke-linecap:butt; stroke-linejoin:round; stroke-width:4; stroke-opacity:1; fill:none" points="
  258.539,1419.62 423.741,1419.62 588.944,1419.62 754.146,1419.62 919.348,1419.62 1084.55,1419.62 1249.75,1419.62 1414.95,1419.62 1580.16,1419.62 1745.36,1419.62 
  1910.56,1419.62 2075.76,1419.62 2240.97,1419.62 2406.17,1419.62 2571.37,1419.62 
  "/>
<polyline clip-path="url(#clip342)" style="stroke:#e26f46; stroke-linecap:butt; stroke-linejoin:round; stroke-width:4; stroke-opacity:1; fill:none" points="
  258.539,1337.02 423.741,1337.02 588.944,1337.02 754.146,1337.02 919.348,1337.02 1084.55,1337.02 1249.75,1337.02 1414.95,1337.02 1580.16,1337.02 1745.36,1337.02 
  1910.56,1337.02 2075.76,1337.02 2240.97,1337.02 2406.17,1337.02 2571.37,1337.02 
  "/>
<polyline clip-path="url(#clip342)" style="stroke:#3da44d; stroke-linecap:butt; stroke-linejoin:round; stroke-width:4; stroke-opacity:1; fill:none" points="
  258.539,1254.42 423.741,1254.42 588.944,1254.42 754.146,1254.42 919.348,1254.42 1084.55,1254.42 1249.75,1254.42 1414.95,1254.42 1580.16,1254.42 1745.36,1254.42 
  1910.56,1254.42 2075.76,1254.42 2240.97,1254.42 2406.17,1254.42 2571.37,1254.42 
  "/>
<polyline clip-path="url(#clip342)" style="stroke:#c271d2; stroke-linecap:butt; stroke-linejoin:round; stroke-width:4; stroke-opacity:1; fill:none" points="
  258.539,1171.82 423.741,1171.82 588.944,1171.82 754.146,1171.82 919.348,1171.82 1084.55,1171.82 1249.75,1171.82 1414.95,1171.82 1580.16,1171.82 1745.36,1171.82 
  1910.56,1171.82 2075.76,1171.82 2240.97,1171.82 2406.17,1171.82 2571.37,1171.82 
  "/>
<polyline clip-path="url(#clip342)" style="stroke:#ac8d18; stroke-linecap:butt; stroke-linejoin:round; stroke-width:4; stroke-opacity:1; fill:none" points="
  258.539,1089.21 423.741,1089.21 588.944,1089.21 754.146,1089.21 919.348,1089.21 1084.55,1089.21 1249.75,1089.21 1414.95,1089.21 1580.16,1089.21 1745.36,1089.21 
  1910.56,1089.21 2075.76,1089.21 2240.97,1089.21 2406.17,1089.21 2571.37,1089.21 
  "/>
<polyline clip-path="url(#clip342)" style="stroke:#00a9ad; stroke-linecap:butt; stroke-linejoin:round; stroke-width:4; stroke-opacity:1; fill:none" points="
  258.539,1006.61 423.741,1006.61 588.944,1006.61 754.146,1006.61 919.348,1006.61 1084.55,1006.61 1249.75,1006.61 1414.95,1006.61 1580.16,1006.61 1745.36,1006.61 
  1910.56,1006.61 2075.76,1006.61 2240.97,1006.61 2406.17,1006.61 2571.37,1006.61 
  "/>
<polyline clip-path="url(#clip342)" style="stroke:#ed5d92; stroke-linecap:butt; stroke-linejoin:round; stroke-width:4; stroke-opacity:1; fill:none" points="
  258.539,924.012 423.741,924.012 588.944,924.012 754.146,924.012 919.348,924.012 1084.55,924.012 1249.75,924.012 1414.95,924.012 1580.16,924.012 1745.36,924.012 
  1910.56,924.012 2075.76,924.012 2240.97,924.012 2406.17,924.012 2571.37,924.012 
  "/>
<polyline clip-path="url(#clip342)" style="stroke:#c68125; stroke-linecap:butt; stroke-linejoin:round; stroke-width:4; stroke-opacity:1; fill:none" points="
  258.539,841.411 423.741,841.411 588.944,841.411 754.146,841.411 919.348,841.411 1084.55,841.411 1249.75,841.411 1414.95,841.411 1580.16,841.411 1745.36,841.411 
  1910.56,841.411 2075.76,841.411 2240.97,841.411 2406.17,841.411 2571.37,841.411 
  "/>
<polyline clip-path="url(#clip342)" style="stroke:#00a98d; stroke-linecap:butt; stroke-linejoin:round; stroke-width:4; stroke-opacity:1; fill:none" points="
  258.539,758.809 423.741,758.809 588.944,758.809 754.146,758.809 919.348,758.809 1084.55,758.809 1249.75,758.809 1414.95,758.809 1580.16,758.809 1745.36,758.809 
  1910.56,758.809 2075.76,758.809 2240.97,758.809 2406.17,758.809 2571.37,758.809 
  "/>
<polyline clip-path="url(#clip342)" style="stroke:#8e971d; stroke-linecap:butt; stroke-linejoin:round; stroke-width:4; stroke-opacity:1; fill:none" points="
  258.539,676.208 423.741,676.208 588.944,676.208 754.146,676.208 919.348,676.208 1084.55,676.208 1249.75,676.208 1414.95,676.208 1580.16,676.208 1745.36,676.208 
  1910.56,676.208 2075.76,676.208 2240.97,676.208 2406.17,676.208 2571.37,676.208 
  "/>
<polyline clip-path="url(#clip342)" style="stroke:#00a8cb; stroke-linecap:butt; stroke-linejoin:round; stroke-width:4; stroke-opacity:1; fill:none" points="
  258.539,593.607 423.741,593.607 588.944,593.607 754.146,593.607 919.348,593.607 1084.55,593.607 1249.75,593.607 1414.95,593.607 1580.16,593.607 1745.36,593.607 
  1910.56,593.607 2075.76,593.607 2240.97,593.607 2406.17,593.607 2571.37,593.607 
  "/>
<polyline clip-path="url(#clip342)" style="stroke:#9b7fe8; stroke-linecap:butt; stroke-linejoin:round; stroke-width:4; stroke-opacity:1; fill:none" points="
  258.539,511.006 423.741,511.006 588.944,511.006 754.146,511.006 919.348,511.006 1084.55,511.006 1249.75,511.006 1414.95,511.006 1580.16,511.006 1745.36,511.006 
  1910.56,511.006 2075.76,511.006 2240.97,511.006 2406.17,511.006 2571.37,511.006 
  "/>
<polyline clip-path="url(#clip342)" style="stroke:#608cf6; stroke-linecap:butt; stroke-linejoin:round; stroke-width:4; stroke-opacity:1; fill:none" points="
  258.539,428.405 423.741,428.405 588.944,428.405 754.146,428.405 919.348,428.405 1084.55,428.405 1249.75,428.405 1414.95,428.405 1580.16,428.405 1745.36,428.405 
  1910.56,428.405 2075.76,428.405 2240.97,428.405 2406.17,428.405 2571.37,428.405 
  "/>
<polyline clip-path="url(#clip342)" style="stroke:#f05f73; stroke-linecap:butt; stroke-linejoin:round; stroke-width:4; stroke-opacity:1; fill:none" points="
  258.539,345.804 423.741,345.804 588.944,345.804 754.146,345.804 919.348,345.804 1084.55,345.804 1249.75,345.804 1414.95,345.804 1580.16,345.804 1745.36,345.804 
  1910.56,345.804 2075.76,345.804 2240.97,345.804 2406.17,345.804 2571.37,345.804 
  "/>
<polyline clip-path="url(#clip342)" style="stroke:#0000ff; stroke-linecap:butt; stroke-linejoin:round; stroke-width:8; stroke-opacity:1; fill:none" points="
  919.348,1171.82 2075.76,1171.82 
  "/>
<polyline clip-path="url(#clip342)" style="stroke:#0000ff; stroke-linecap:butt; stroke-linejoin:round; stroke-width:8; stroke-opacity:1; fill:none" points="
  2035.44,1151.66 2075.76,1171.82 2035.44,1191.98 
  "/>
<polyline clip-path="url(#clip342)" style="stroke:#0000ff; stroke-linecap:butt; stroke-linejoin:round; stroke-width:8; stroke-opacity:1; fill:none" points="
  2075.76,1171.82 919.348,1171.82 
  "/>
<polyline clip-path="url(#clip342)" style="stroke:#ff0000; stroke-linecap:butt; stroke-linejoin:round; stroke-width:4; stroke-opacity:1; fill:none" points="
  919.348,593.607 2075.76,593.607 
  "/>
<polyline clip-path="url(#clip342)" style="stroke:#ff0000; stroke-linecap:butt; stroke-linejoin:round; stroke-width:4; stroke-opacity:1; fill:none" points="
  2035.44,573.447 2075.76,593.607 2035.44,613.767 
  "/>
<polyline clip-path="url(#clip342)" style="stroke:#ff0000; stroke-linecap:butt; stroke-linejoin:round; stroke-width:4; stroke-opacity:1; fill:none" points="
  2075.76,593.607 919.348,593.607 
  "/>
<polyline clip-path="url(#clip342)" style="stroke:#0000ff; stroke-linecap:butt; stroke-linejoin:round; stroke-width:8; stroke-opacity:1; fill:none" points="
  919.348,1171.82 919.348,593.607 
  "/>
<polyline clip-path="url(#clip342)" style="stroke:#0000ff; stroke-linecap:butt; stroke-linejoin:round; stroke-width:8; stroke-opacity:1; fill:none" points="
  899.188,633.927 919.348,593.607 939.508,633.927 
  "/>
<polyline clip-path="url(#clip342)" style="stroke:#0000ff; stroke-linecap:butt; stroke-linejoin:round; stroke-width:8; stroke-opacity:1; fill:none" points="
  919.348,593.607 919.348,1171.82 
  "/>
<polyline clip-path="url(#clip342)" style="stroke:#ff0000; stroke-linecap:butt; stroke-linejoin:round; stroke-width:4; stroke-opacity:1; fill:none" points="
  2075.76,1171.82 2075.76,593.607 
  "/>
<polyline clip-path="url(#clip342)" style="stroke:#ff0000; stroke-linecap:butt; stroke-linejoin:round; stroke-width:4; stroke-opacity:1; fill:none" points="
  2055.6,633.927 2075.76,593.607 2095.92,633.927 
  "/>
<polyline clip-path="url(#clip342)" style="stroke:#ff0000; stroke-linecap:butt; stroke-linejoin:round; stroke-width:4; stroke-opacity:1; fill:none" points="
  2075.76,593.607 2075.76,1171.82 
  "/>
</svg>
