<?xml version="1.0" encoding="utf-8"?>
<svg xmlns="http://www.w3.org/2000/svg" xmlns:xlink="http://www.w3.org/1999/xlink" width="672" height="480" viewBox="0 0 2688 1920">
<defs>
  <clipPath id="clip280">
    <rect x="0" y="0" width="2688" height="1920"/>
  </clipPath>
</defs>
<path clip-path="url(#clip280)" d="
M0 1920 L2688 1920 L2688 0 L0 0  Z
  " fill="#ffffff" fill-rule="evenodd" fill-opacity="1"/>
<defs>
  <clipPath id="clip281">
    <rect x="537" y="0" width="1883" height="1883"/>
  </clipPath>
</defs>
<path clip-path="url(#clip280)" d="
M196.816 1800.78 L2640.76 1800.78 L2640.76 47.2441 L196.816 47.2441  Z
  " fill="#ffffff" fill-rule="evenodd" fill-opacity="1"/>
<defs>
  <clipPath id="clip282">
    <rect x="196" y="47" width="2445" height="1755"/>
  </clipPath>
</defs>
<polyline clip-path="url(#clip282)" style="stroke:#000000; stroke-linecap:butt; stroke-linejoin:round; stroke-width:2; stroke-opacity:0.1; fill:none" points="
  304.946,1800.78 304.946,47.2441 
  "/>
<polyline clip-path="url(#clip282)" style="stroke:#000000; stroke-linecap:butt; stroke-linejoin:round; stroke-width:2; stroke-opacity:0.1; fill:none" points="
  674.131,1800.78 674.131,47.2441 
  "/>
<polyline clip-path="url(#clip282)" style="stroke:#000000; stroke-linecap:butt; stroke-linejoin:round; stroke-width:2; stroke-opacity:0.1; fill:none" points="
  1043.32,1800.78 1043.32,47.2441 
  "/>
<polyline clip-path="url(#clip282)" style="stroke:#000000; stroke-linecap:butt; stroke-linejoin:round; stroke-width:2; stroke-opacity:0.1; fill:none" points="
  1412.5,1800.78 1412.5,47.2441 
  "/>
<polyline clip-path="url(#clip282)" style="stroke:#000000; stroke-linecap:butt; stroke-linejoin:round; stroke-width:2; stroke-opacity:0.1; fill:none" points="
  1781.68,1800.78 1781.68,47.2441 
  "/>
<polyline clip-path="url(#clip282)" style="stroke:#000000; stroke-linecap:butt; stroke-linejoin:round; stroke-width:2; stroke-opacity:0.1; fill:none" points="
  2150.87,1800.78 2150.87,47.2441 
  "/>
<polyline clip-path="url(#clip282)" style="stroke:#000000; stroke-linecap:butt; stroke-linejoin:round; stroke-width:2; stroke-opacity:0.1; fill:none" points="
  2520.05,1800.78 2520.05,47.2441 
  "/>
<polyline clip-path="url(#clip280)" style="stroke:#000000; stroke-linecap:butt; stroke-linejoin:round; stroke-width:4; stroke-opacity:1; fill:none" points="
  196.816,1800.78 2640.76,1800.78 
  "/>
<polyline clip-path="url(#clip280)" style="stroke:#000000; stroke-linecap:butt; stroke-linejoin:round; stroke-width:4; stroke-opacity:1; fill:none" points="
  304.946,1800.78 304.946,1781.88 
  "/>
<polyline clip-path="url(#clip280)" style="stroke:#000000; stroke-linecap:butt; stroke-linejoin:round; stroke-width:4; stroke-opacity:1; fill:none" points="
  674.131,1800.78 674.131,1781.88 
  "/>
<polyline clip-path="url(#clip280)" style="stroke:#000000; stroke-linecap:butt; stroke-linejoin:round; stroke-width:4; stroke-opacity:1; fill:none" points="
  1043.32,1800.78 1043.32,1781.88 
  "/>
<polyline clip-path="url(#clip280)" style="stroke:#000000; stroke-linecap:butt; stroke-linejoin:round; stroke-width:4; stroke-opacity:1; fill:none" points="
  1412.5,1800.78 1412.5,1781.88 
  "/>
<polyline clip-path="url(#clip280)" style="stroke:#000000; stroke-linecap:butt; stroke-linejoin:round; stroke-width:4; stroke-opacity:1; fill:none" points="
  1781.68,1800.78 1781.68,1781.88 
  "/>
<polyline clip-path="url(#clip280)" style="stroke:#000000; stroke-linecap:butt; stroke-linejoin:round; stroke-width:4; stroke-opacity:1; fill:none" points="
  2150.87,1800.78 2150.87,1781.88 
  "/>
<polyline clip-path="url(#clip280)" style="stroke:#000000; stroke-linecap:butt; stroke-linejoin:round; stroke-width:4; stroke-opacity:1; fill:none" points="
  2520.05,1800.78 2520.05,1781.88 
  "/>
<path clip-path="url(#clip280)" d="M251.972 1848.65 L281.648 1848.65 L281.648 1852.59 L251.972 1852.59 L251.972 1848.65 Z" fill="#000000" fill-rule="evenodd" fill-opacity="1" /><path clip-path="url(#clip280)" d="M292.551 1861.55 L300.19 1861.55 L300.19 1835.18 L291.879 1836.85 L291.879 1832.59 L300.143 1830.92 L304.819 1830.92 L304.819 1861.55 L312.458 1861.55 L312.458 1865.48 L292.551 1865.48 L292.551 1861.55 Z" fill="#000000" fill-rule="evenodd" fill-opacity="1" /><path clip-path="url(#clip280)" d="M321.902 1859.6 L326.787 1859.6 L326.787 1865.48 L321.902 1865.48 L321.902 1859.6 Z" fill="#000000" fill-rule="evenodd" fill-opacity="1" /><path clip-path="url(#clip280)" d="M337.018 1830.92 L355.374 1830.92 L355.374 1834.86 L341.3 1834.86 L341.3 1843.33 Q342.319 1842.98 343.337 1842.82 Q344.356 1842.64 345.374 1842.64 Q351.161 1842.64 354.541 1845.81 Q357.921 1848.98 357.921 1854.4 Q357.921 1859.97 354.449 1863.08 Q350.976 1866.15 344.657 1866.15 Q342.481 1866.15 340.212 1865.78 Q337.967 1865.41 335.56 1864.67 L335.56 1859.97 Q337.643 1861.11 339.865 1861.66 Q342.087 1862.22 344.564 1862.22 Q348.569 1862.22 350.907 1860.11 Q353.245 1858.01 353.245 1854.4 Q353.245 1850.78 350.907 1848.68 Q348.569 1846.57 344.564 1846.57 Q342.689 1846.57 340.814 1846.99 Q338.962 1847.4 337.018 1848.28 L337.018 1830.92 Z" fill="#000000" fill-rule="evenodd" fill-opacity="1" /><path clip-path="url(#clip280)" d="M620.659 1848.65 L650.335 1848.65 L650.335 1852.59 L620.659 1852.59 L620.659 1848.65 Z" fill="#000000" fill-rule="evenodd" fill-opacity="1" /><path clip-path="url(#clip280)" d="M661.237 1861.55 L668.876 1861.55 L668.876 1835.18 L660.566 1836.85 L660.566 1832.59 L668.83 1830.92 L673.506 1830.92 L673.506 1861.55 L681.145 1861.55 L681.145 1865.48 L661.237 1865.48 L661.237 1861.55 Z" fill="#000000" fill-rule="evenodd" fill-opacity="1" /><path clip-path="url(#clip280)" d="M690.589 1859.6 L695.473 1859.6 L695.473 1865.48 L690.589 1865.48 L690.589 1859.6 Z" fill="#000000" fill-rule="evenodd" fill-opacity="1" /><path clip-path="url(#clip280)" d="M715.658 1834 Q712.047 1834 710.219 1837.57 Q708.413 1841.11 708.413 1848.24 Q708.413 1855.34 710.219 1858.91 Q712.047 1862.45 715.658 1862.45 Q719.293 1862.45 721.098 1858.91 Q722.927 1855.34 722.927 1848.24 Q722.927 1841.11 721.098 1837.57 Q719.293 1834 715.658 1834 M715.658 1830.3 Q721.469 1830.3 724.524 1834.9 Q727.603 1839.49 727.603 1848.24 Q727.603 1856.96 724.524 1861.57 Q721.469 1866.15 715.658 1866.15 Q709.848 1866.15 706.77 1861.57 Q703.714 1856.96 703.714 1848.24 Q703.714 1839.49 706.77 1834.9 Q709.848 1830.3 715.658 1830.3 Z" fill="#000000" fill-rule="evenodd" fill-opacity="1" /><path clip-path="url(#clip280)" d="M990.341 1848.65 L1020.02 1848.65 L1020.02 1852.59 L990.341 1852.59 L990.341 1848.65 Z" fill="#000000" fill-rule="evenodd" fill-opacity="1" /><path clip-path="url(#clip280)" d="M1040.11 1834 Q1036.5 1834 1034.67 1837.57 Q1032.86 1841.11 1032.86 1848.24 Q1032.86 1855.34 1034.67 1858.91 Q1036.5 1862.45 1040.11 1862.45 Q1043.74 1862.45 1045.55 1858.91 Q1047.38 1855.34 1047.38 1848.24 Q1047.38 1841.11 1045.55 1837.57 Q1043.74 1834 1040.11 1834 M1040.11 1830.3 Q1045.92 1830.3 1048.98 1834.9 Q1052.05 1839.49 1052.05 1848.24 Q1052.05 1856.96 1048.98 1861.57 Q1045.92 1866.15 1040.11 1866.15 Q1034.3 1866.15 1031.22 1861.57 Q1028.17 1856.96 1028.17 1848.24 Q1028.17 1839.49 1031.22 1834.9 Q1034.3 1830.3 1040.11 1830.3 Z" fill="#000000" fill-rule="evenodd" fill-opacity="1" /><path clip-path="url(#clip280)" d="M1060.27 1859.6 L1065.16 1859.6 L1065.16 1865.48 L1060.27 1865.48 L1060.27 1859.6 Z" fill="#000000" fill-rule="evenodd" fill-opacity="1" /><path clip-path="url(#clip280)" d="M1075.39 1830.92 L1093.74 1830.92 L1093.74 1834.86 L1079.67 1834.86 L1079.67 1843.33 Q1080.69 1842.98 1081.71 1842.82 Q1082.72 1842.64 1083.74 1842.64 Q1089.53 1842.64 1092.91 1845.81 Q1096.29 1848.98 1096.29 1854.4 Q1096.29 1859.97 1092.82 1863.08 Q1089.35 1866.15 1083.03 1866.15 Q1080.85 1866.15 1078.58 1865.78 Q1076.34 1865.41 1073.93 1864.67 L1073.93 1859.97 Q1076.01 1861.11 1078.23 1861.66 Q1080.46 1862.22 1082.93 1862.22 Q1086.94 1862.22 1089.28 1860.11 Q1091.61 1858.01 1091.61 1854.4 Q1091.61 1850.78 1089.28 1848.68 Q1086.94 1846.57 1082.93 1846.57 Q1081.06 1846.57 1079.18 1846.99 Q1077.33 1847.4 1075.39 1848.28 L1075.39 1830.92 Z" fill="#000000" fill-rule="evenodd" fill-opacity="1" /><path clip-path="url(#clip280)" d="M1389.88 1834 Q1386.27 1834 1384.44 1837.57 Q1382.64 1841.11 1382.64 1848.24 Q1382.64 1855.34 1384.44 1858.91 Q1386.27 1862.45 1389.88 1862.45 Q1393.52 1862.45 1395.32 1858.91 Q1397.15 1855.34 1397.15 1848.24 Q1397.15 1841.11 1395.32 1837.57 Q1393.52 1834 1389.88 1834 M1389.88 1830.3 Q1395.69 1830.3 1398.75 1834.9 Q1401.83 1839.49 1401.83 1848.24 Q1401.83 1856.96 1398.75 1861.57 Q1395.69 1866.15 1389.88 1866.15 Q1384.07 1866.15 1381 1861.57 Q1377.94 1856.96 1377.94 1848.24 Q1377.94 1839.49 1381 1834.9 Q1384.07 1830.3 1389.88 1830.3 Z" fill="#000000" fill-rule="evenodd" fill-opacity="1" /><path clip-path="url(#clip280)" d="M1410.05 1859.6 L1414.93 1859.6 L1414.93 1865.48 L1410.05 1865.48 L1410.05 1859.6 Z" fill="#000000" fill-rule="evenodd" fill-opacity="1" /><path clip-path="url(#clip280)" d="M1435.12 1834 Q1431.5 1834 1429.68 1837.57 Q1427.87 1841.11 1427.87 1848.24 Q1427.87 1855.34 1429.68 1858.91 Q1431.5 1862.45 1435.12 1862.45 Q1438.75 1862.45 1440.56 1858.91 Q1442.38 1855.34 1442.38 1848.24 Q1442.38 1841.11 1440.56 1837.57 Q1438.75 1834 1435.12 1834 M1435.12 1830.3 Q1440.93 1830.3 1443.98 1834.9 Q1447.06 1839.49 1447.06 1848.24 Q1447.06 1856.96 1443.98 1861.57 Q1440.93 1866.15 1435.12 1866.15 Q1429.31 1866.15 1426.23 1861.57 Q1423.17 1856.96 1423.17 1848.24 Q1423.17 1839.49 1426.23 1834.9 Q1429.31 1830.3 1435.12 1830.3 Z" fill="#000000" fill-rule="evenodd" fill-opacity="1" /><path clip-path="url(#clip280)" d="M1759.57 1834 Q1755.96 1834 1754.13 1837.57 Q1752.32 1841.11 1752.32 1848.24 Q1752.32 1855.34 1754.13 1858.91 Q1755.96 1862.45 1759.57 1862.45 Q1763.2 1862.45 1765.01 1858.91 Q1766.83 1855.34 1766.83 1848.24 Q1766.83 1841.11 1765.01 1837.57 Q1763.2 1834 1759.57 1834 M1759.57 1830.3 Q1765.38 1830.3 1768.43 1834.9 Q1771.51 1839.49 1771.51 1848.24 Q1771.51 1856.96 1768.43 1861.57 Q1765.38 1866.15 1759.57 1866.15 Q1753.76 1866.15 1750.68 1861.57 Q1747.62 1856.96 1747.62 1848.24 Q1747.62 1839.49 1750.68 1834.9 Q1753.76 1830.3 1759.57 1830.3 Z" fill="#000000" fill-rule="evenodd" fill-opacity="1" /><path clip-path="url(#clip280)" d="M1779.73 1859.6 L1784.61 1859.6 L1784.61 1865.48 L1779.73 1865.48 L1779.73 1859.6 Z" fill="#000000" fill-rule="evenodd" fill-opacity="1" /><path clip-path="url(#clip280)" d="M1794.84 1830.92 L1813.2 1830.92 L1813.2 1834.86 L1799.13 1834.86 L1799.13 1843.33 Q1800.14 1842.98 1801.16 1842.82 Q1802.18 1842.64 1803.2 1842.64 Q1808.99 1842.64 1812.37 1845.81 Q1815.75 1848.98 1815.75 1854.4 Q1815.75 1859.97 1812.27 1863.08 Q1808.8 1866.15 1802.48 1866.15 Q1800.31 1866.15 1798.04 1865.78 Q1795.79 1865.41 1793.39 1864.67 L1793.39 1859.97 Q1795.47 1861.11 1797.69 1861.66 Q1799.91 1862.22 1802.39 1862.22 Q1806.39 1862.22 1808.73 1860.11 Q1811.07 1858.01 1811.07 1854.4 Q1811.07 1850.78 1808.73 1848.68 Q1806.39 1846.57 1802.39 1846.57 Q1800.52 1846.57 1798.64 1846.99 Q1796.79 1847.4 1794.84 1848.28 L1794.84 1830.92 Z" fill="#000000" fill-rule="evenodd" fill-opacity="1" /><path clip-path="url(#clip280)" d="M2118.02 1861.55 L2125.66 1861.55 L2125.66 1835.18 L2117.35 1836.85 L2117.35 1832.59 L2125.61 1830.92 L2130.29 1830.92 L2130.29 1861.55 L2137.93 1861.55 L2137.93 1865.48 L2118.02 1865.48 L2118.02 1861.55 Z" fill="#000000" fill-rule="evenodd" fill-opacity="1" /><path clip-path="url(#clip280)" d="M2147.37 1859.6 L2152.26 1859.6 L2152.26 1865.48 L2147.37 1865.48 L2147.37 1859.6 Z" fill="#000000" fill-rule="evenodd" fill-opacity="1" /><path clip-path="url(#clip280)" d="M2172.44 1834 Q2168.83 1834 2167 1837.57 Q2165.2 1841.11 2165.2 1848.24 Q2165.2 1855.34 2167 1858.91 Q2168.83 1862.45 2172.44 1862.45 Q2176.08 1862.45 2177.88 1858.91 Q2179.71 1855.34 2179.71 1848.24 Q2179.71 1841.11 2177.88 1837.57 Q2176.08 1834 2172.44 1834 M2172.44 1830.3 Q2178.25 1830.3 2181.31 1834.9 Q2184.39 1839.49 2184.39 1848.24 Q2184.39 1856.96 2181.31 1861.57 Q2178.25 1866.15 2172.44 1866.15 Q2166.63 1866.15 2163.55 1861.57 Q2160.5 1856.96 2160.5 1848.24 Q2160.5 1839.49 2163.55 1834.9 Q2166.63 1830.3 2172.44 1830.3 Z" fill="#000000" fill-rule="evenodd" fill-opacity="1" /><path clip-path="url(#clip280)" d="M2487.7 1861.55 L2495.34 1861.55 L2495.34 1835.18 L2487.03 1836.85 L2487.03 1832.59 L2495.3 1830.92 L2499.97 1830.92 L2499.97 1861.55 L2507.61 1861.55 L2507.61 1865.48 L2487.7 1865.48 L2487.7 1861.55 Z" fill="#000000" fill-rule="evenodd" fill-opacity="1" /><path clip-path="url(#clip280)" d="M2517.06 1859.6 L2521.94 1859.6 L2521.94 1865.48 L2517.06 1865.48 L2517.06 1859.6 Z" fill="#000000" fill-rule="evenodd" fill-opacity="1" /><path clip-path="url(#clip280)" d="M2532.17 1830.92 L2550.53 1830.92 L2550.53 1834.86 L2536.45 1834.86 L2536.45 1843.33 Q2537.47 1842.98 2538.49 1842.82 Q2539.51 1842.64 2540.53 1842.64 Q2546.31 1842.64 2549.69 1845.81 Q2553.07 1848.98 2553.07 1854.4 Q2553.07 1859.97 2549.6 1863.08 Q2546.13 1866.15 2539.81 1866.15 Q2537.63 1866.15 2535.37 1865.78 Q2533.12 1865.41 2530.71 1864.67 L2530.71 1859.97 Q2532.8 1861.11 2535.02 1861.66 Q2537.24 1862.22 2539.72 1862.22 Q2543.72 1862.22 2546.06 1860.11 Q2548.4 1858.01 2548.4 1854.4 Q2548.4 1850.78 2546.06 1848.68 Q2543.72 1846.57 2539.72 1846.57 Q2537.84 1846.57 2535.97 1846.99 Q2534.12 1847.4 2532.17 1848.28 L2532.17 1830.92 Z" fill="#000000" fill-rule="evenodd" fill-opacity="1" /><polyline clip-path="url(#clip282)" style="stroke:#000000; stroke-linecap:butt; stroke-linejoin:round; stroke-width:2; stroke-opacity:0.1; fill:none" points="
  196.816,1754.3 2640.76,1754.3 
  "/>
<polyline clip-path="url(#clip282)" style="stroke:#000000; stroke-linecap:butt; stroke-linejoin:round; stroke-width:2; stroke-opacity:0.1; fill:none" points="
  196.816,1385.12 2640.76,1385.12 
  "/>
<polyline clip-path="url(#clip282)" style="stroke:#000000; stroke-linecap:butt; stroke-linejoin:round; stroke-width:2; stroke-opacity:0.1; fill:none" points="
  196.816,1015.93 2640.76,1015.93 
  "/>
<polyline clip-path="url(#clip282)" style="stroke:#000000; stroke-linecap:butt; stroke-linejoin:round; stroke-width:2; stroke-opacity:0.1; fill:none" points="
  196.816,646.747 2640.76,646.747 
  "/>
<polyline clip-path="url(#clip282)" style="stroke:#000000; stroke-linecap:butt; stroke-linejoin:round; stroke-width:2; stroke-opacity:0.1; fill:none" points="
  196.816,277.563 2640.76,277.563 
  "/>
<polyline clip-path="url(#clip280)" style="stroke:#000000; stroke-linecap:butt; stroke-linejoin:round; stroke-width:4; stroke-opacity:1; fill:none" points="
  196.816,1800.78 196.816,47.2441 
  "/>
<polyline clip-path="url(#clip280)" style="stroke:#000000; stroke-linecap:butt; stroke-linejoin:round; stroke-width:4; stroke-opacity:1; fill:none" points="
  196.816,1754.3 215.714,1754.3 
  "/>
<polyline clip-path="url(#clip280)" style="stroke:#000000; stroke-linecap:butt; stroke-linejoin:round; stroke-width:4; stroke-opacity:1; fill:none" points="
  196.816,1385.12 215.714,1385.12 
  "/>
<polyline clip-path="url(#clip280)" style="stroke:#000000; stroke-linecap:butt; stroke-linejoin:round; stroke-width:4; stroke-opacity:1; fill:none" points="
  196.816,1015.93 215.714,1015.93 
  "/>
<polyline clip-path="url(#clip280)" style="stroke:#000000; stroke-linecap:butt; stroke-linejoin:round; stroke-width:4; stroke-opacity:1; fill:none" points="
  196.816,646.747 215.714,646.747 
  "/>
<polyline clip-path="url(#clip280)" style="stroke:#000000; stroke-linecap:butt; stroke-linejoin:round; stroke-width:4; stroke-opacity:1; fill:none" points="
  196.816,277.563 215.714,277.563 
  "/>
<path clip-path="url(#clip280)" d="M49.5521 1754.75 L79.2279 1754.75 L79.2279 1758.69 L49.5521 1758.69 L49.5521 1754.75 Z" fill="#000000" fill-rule="evenodd" fill-opacity="1" /><path clip-path="url(#clip280)" d="M90.1306 1767.65 L97.7695 1767.65 L97.7695 1741.28 L89.4593 1742.95 L89.4593 1738.69 L97.7232 1737.02 L102.399 1737.02 L102.399 1767.65 L110.038 1767.65 L110.038 1771.58 L90.1306 1771.58 L90.1306 1767.65 Z" fill="#000000" fill-rule="evenodd" fill-opacity="1" /><path clip-path="url(#clip280)" d="M119.482 1765.7 L124.367 1765.7 L124.367 1771.58 L119.482 1771.58 L119.482 1765.7 Z" fill="#000000" fill-rule="evenodd" fill-opacity="1" /><path clip-path="url(#clip280)" d="M144.552 1740.1 Q140.941 1740.1 139.112 1743.66 Q137.306 1747.21 137.306 1754.34 Q137.306 1761.44 139.112 1765.01 Q140.941 1768.55 144.552 1768.55 Q148.186 1768.55 149.991 1765.01 Q151.82 1761.44 151.82 1754.34 Q151.82 1747.21 149.991 1743.66 Q148.186 1740.1 144.552 1740.1 M144.552 1736.4 Q150.362 1736.4 153.417 1741 Q156.496 1745.59 156.496 1754.34 Q156.496 1763.06 153.417 1767.67 Q150.362 1772.25 144.552 1772.25 Q138.741 1772.25 135.663 1767.67 Q132.607 1763.06 132.607 1754.34 Q132.607 1745.59 135.663 1741 Q138.741 1736.4 144.552 1736.4 Z" fill="#000000" fill-rule="evenodd" fill-opacity="1" /><path clip-path="url(#clip280)" d="M50.5475 1385.57 L80.2233 1385.57 L80.2233 1389.5 L50.5475 1389.5 L50.5475 1385.57 Z" fill="#000000" fill-rule="evenodd" fill-opacity="1" /><path clip-path="url(#clip280)" d="M100.316 1370.91 Q96.7047 1370.91 94.876 1374.48 Q93.0704 1378.02 93.0704 1385.15 Q93.0704 1392.26 94.876 1395.82 Q96.7047 1399.36 100.316 1399.36 Q103.95 1399.36 105.756 1395.82 Q107.584 1392.26 107.584 1385.15 Q107.584 1378.02 105.756 1374.48 Q103.95 1370.91 100.316 1370.91 M100.316 1367.21 Q106.126 1367.21 109.181 1371.82 Q112.26 1376.4 112.26 1385.15 Q112.26 1393.88 109.181 1398.48 Q106.126 1403.07 100.316 1403.07 Q94.5056 1403.07 91.4269 1398.48 Q88.3714 1393.88 88.3714 1385.15 Q88.3714 1376.4 91.4269 1371.82 Q94.5056 1367.21 100.316 1367.21 Z" fill="#000000" fill-rule="evenodd" fill-opacity="1" /><path clip-path="url(#clip280)" d="M120.478 1396.52 L125.362 1396.52 L125.362 1402.4 L120.478 1402.4 L120.478 1396.52 Z" fill="#000000" fill-rule="evenodd" fill-opacity="1" /><path clip-path="url(#clip280)" d="M135.593 1367.84 L153.95 1367.84 L153.95 1371.77 L139.876 1371.77 L139.876 1380.24 Q140.894 1379.9 141.913 1379.73 Q142.931 1379.55 143.95 1379.55 Q149.737 1379.55 153.116 1382.72 Q156.496 1385.89 156.496 1391.31 Q156.496 1396.89 153.024 1399.99 Q149.552 1403.07 143.232 1403.07 Q141.056 1403.07 138.788 1402.7 Q136.542 1402.33 134.135 1401.59 L134.135 1396.89 Q136.218 1398.02 138.441 1398.58 Q140.663 1399.13 143.14 1399.13 Q147.144 1399.13 149.482 1397.03 Q151.82 1394.92 151.82 1391.31 Q151.82 1387.7 149.482 1385.59 Q147.144 1383.48 143.14 1383.48 Q141.265 1383.48 139.39 1383.9 Q137.538 1384.32 135.593 1385.2 L135.593 1367.84 Z" fill="#000000" fill-rule="evenodd" fill-opacity="1" /><path clip-path="url(#clip280)" d="M99.3204 1001.73 Q95.7093 1001.73 93.8806 1005.3 Q92.075 1008.84 92.075 1015.97 Q92.075 1023.07 93.8806 1026.64 Q95.7093 1030.18 99.3204 1030.18 Q102.955 1030.18 104.76 1026.64 Q106.589 1023.07 106.589 1015.97 Q106.589 1008.84 104.76 1005.3 Q102.955 1001.73 99.3204 1001.73 M99.3204 998.027 Q105.131 998.027 108.186 1002.63 Q111.265 1007.22 111.265 1015.97 Q111.265 1024.69 108.186 1029.3 Q105.131 1033.88 99.3204 1033.88 Q93.5102 1033.88 90.4315 1029.3 Q87.376 1024.69 87.376 1015.97 Q87.376 1007.22 90.4315 1002.63 Q93.5102 998.027 99.3204 998.027 Z" fill="#000000" fill-rule="evenodd" fill-opacity="1" /><path clip-path="url(#clip280)" d="M119.482 1027.33 L124.367 1027.33 L124.367 1033.21 L119.482 1033.21 L119.482 1027.33 Z" fill="#000000" fill-rule="evenodd" fill-opacity="1" /><path clip-path="url(#clip280)" d="M144.552 1001.73 Q140.941 1001.73 139.112 1005.3 Q137.306 1008.84 137.306 1015.97 Q137.306 1023.07 139.112 1026.64 Q140.941 1030.18 144.552 1030.18 Q148.186 1030.18 149.991 1026.64 Q151.82 1023.07 151.82 1015.97 Q151.82 1008.84 149.991 1005.3 Q148.186 1001.73 144.552 1001.73 M144.552 998.027 Q150.362 998.027 153.417 1002.63 Q156.496 1007.22 156.496 1015.97 Q156.496 1024.69 153.417 1029.3 Q150.362 1033.88 144.552 1033.88 Q138.741 1033.88 135.663 1029.3 Q132.607 1024.69 132.607 1015.97 Q132.607 1007.22 135.663 1002.63 Q138.741 998.027 144.552 998.027 Z" fill="#000000" fill-rule="evenodd" fill-opacity="1" /><path clip-path="url(#clip280)" d="M100.316 632.546 Q96.7047 632.546 94.876 636.111 Q93.0704 639.652 93.0704 646.782 Q93.0704 653.888 94.876 657.453 Q96.7047 660.995 100.316 660.995 Q103.95 660.995 105.756 657.453 Q107.584 653.888 107.584 646.782 Q107.584 639.652 105.756 636.111 Q103.95 632.546 100.316 632.546 M100.316 628.842 Q106.126 628.842 109.181 633.449 Q112.26 638.032 112.26 646.782 Q112.26 655.509 109.181 660.115 Q106.126 664.699 100.316 664.699 Q94.5056 664.699 91.4269 660.115 Q88.3714 655.509 88.3714 646.782 Q88.3714 638.032 91.4269 633.449 Q94.5056 628.842 100.316 628.842 Z" fill="#000000" fill-rule="evenodd" fill-opacity="1" /><path clip-path="url(#clip280)" d="M120.478 658.148 L125.362 658.148 L125.362 664.027 L120.478 664.027 L120.478 658.148 Z" fill="#000000" fill-rule="evenodd" fill-opacity="1" /><path clip-path="url(#clip280)" d="M135.593 629.467 L153.95 629.467 L153.95 633.402 L139.876 633.402 L139.876 641.875 Q140.894 641.527 141.913 641.365 Q142.931 641.18 143.95 641.18 Q149.737 641.18 153.116 644.351 Q156.496 647.523 156.496 652.939 Q156.496 658.518 153.024 661.62 Q149.552 664.699 143.232 664.699 Q141.056 664.699 138.788 664.328 Q136.542 663.958 134.135 663.217 L134.135 658.518 Q136.218 659.652 138.441 660.208 Q140.663 660.763 143.14 660.763 Q147.144 660.763 149.482 658.657 Q151.82 656.55 151.82 652.939 Q151.82 649.328 149.482 647.222 Q147.144 645.115 143.14 645.115 Q141.265 645.115 139.39 645.532 Q137.538 645.949 135.593 646.828 L135.593 629.467 Z" fill="#000000" fill-rule="evenodd" fill-opacity="1" /><path clip-path="url(#clip280)" d="M90.1306 290.908 L97.7695 290.908 L97.7695 264.542 L89.4593 266.209 L89.4593 261.949 L97.7232 260.283 L102.399 260.283 L102.399 290.908 L110.038 290.908 L110.038 294.843 L90.1306 294.843 L90.1306 290.908 Z" fill="#000000" fill-rule="evenodd" fill-opacity="1" /><path clip-path="url(#clip280)" d="M119.482 288.963 L124.367 288.963 L124.367 294.843 L119.482 294.843 L119.482 288.963 Z" fill="#000000" fill-rule="evenodd" fill-opacity="1" /><path clip-path="url(#clip280)" d="M144.552 263.361 Q140.941 263.361 139.112 266.926 Q137.306 270.468 137.306 277.598 Q137.306 284.704 139.112 288.269 Q140.941 291.81 144.552 291.81 Q148.186 291.81 149.991 288.269 Q151.82 284.704 151.82 277.598 Q151.82 270.468 149.991 266.926 Q148.186 263.361 144.552 263.361 M144.552 259.658 Q150.362 259.658 153.417 264.264 Q156.496 268.848 156.496 277.598 Q156.496 286.324 153.417 290.931 Q150.362 295.514 144.552 295.514 Q138.741 295.514 135.663 290.931 Q132.607 286.324 132.607 277.598 Q132.607 268.848 135.663 264.264 Q138.741 259.658 144.552 259.658 Z" fill="#000000" fill-rule="evenodd" fill-opacity="1" /><polyline clip-path="url(#clip282)" style="stroke:#009af9; stroke-linecap:butt; stroke-linejoin:round; stroke-width:4; stroke-opacity:1; fill:none" points="
  1412.5,1015.93 1412.5,1015.93 
  
  "/>
<polyline clip-path="url(#clip282)" style="stroke:#e26f46; stroke-linecap:butt; stroke-linejoin:round; stroke-width:4; stroke-opacity:1; fill:none" points="
  1455.93,1015.93 1453,1000.24 1444.6,986.671 1431.86,977.052 1416.51,972.684 1400.61,974.156 1386.33,981.271 1375.57,993.067 1369.81,1007.95 1369.81,1023.91 
  1375.57,1038.8 1386.33,1050.59 1400.61,1057.71 1416.51,1059.18 1431.86,1054.81 1444.6,1045.19 1453,1031.62 1455.93,1015.93 
  "/>
<polyline clip-path="url(#clip282)" style="stroke:#3da44d; stroke-linecap:butt; stroke-linejoin:round; stroke-width:4; stroke-opacity:1; fill:none" points="
  1499.37,1015.93 1493.5,984.552 1476.7,957.41 1451.22,938.172 1420.51,929.435 1388.73,932.381 1360.15,946.61 1338.64,970.202 1327.11,999.97 1327.11,1031.89 
  1338.64,1061.66 1360.15,1085.25 1388.73,1099.48 1420.51,1102.43 1451.22,1093.69 1476.7,1074.45 1493.5,1047.31 1499.37,1015.93 
  "/>
<polyline clip-path="url(#clip282)" style="stroke:#c271d2; stroke-linecap:butt; stroke-linejoin:round; stroke-width:4; stroke-opacity:1; fill:none" points="
  1542.8,1015.93 1534,968.862 1508.79,928.149 1470.58,899.292 1424.52,886.187 1376.84,890.605 1333.98,911.95 1301.72,947.337 1284.42,991.989 1284.42,1039.87 
  1301.72,1084.53 1333.98,1119.91 1376.84,1141.26 1424.52,1145.68 1470.58,1132.57 1508.79,1103.71 1534,1063 1542.8,1015.93 
  "/>
<polyline clip-path="url(#clip282)" style="stroke:#ac8d18; stroke-linecap:butt; stroke-linejoin:round; stroke-width:4; stroke-opacity:1; fill:none" points="
  1586.23,1015.93 1574.5,953.172 1540.89,898.888 1489.94,860.412 1428.53,842.939 1364.96,848.83 1307.8,877.289 1264.79,924.473 1241.72,984.008 1241.72,1047.86 
  1264.79,1107.39 1307.8,1154.57 1364.96,1183.03 1428.53,1188.92 1489.94,1171.45 1540.89,1132.98 1574.5,1078.69 1586.23,1015.93 
  "/>
<polyline clip-path="url(#clip282)" style="stroke:#00a9ad; stroke-linecap:butt; stroke-linejoin:round; stroke-width:4; stroke-opacity:1; fill:none" points="
  1629.67,1015.93 1615,937.482 1572.99,869.627 1509.3,821.532 1432.54,799.691 1353.07,807.055 1281.63,842.628 1227.86,901.608 1199.03,976.027 1199.03,1055.84 
  1227.86,1130.26 1281.63,1189.24 1353.07,1224.81 1432.54,1232.17 1509.3,1210.33 1572.99,1162.24 1615,1094.38 1629.67,1015.93 
  "/>
<polyline clip-path="url(#clip282)" style="stroke:#ed5d92; stroke-linecap:butt; stroke-linejoin:round; stroke-width:4; stroke-opacity:1; fill:none" points="
  1673.1,1015.93 1655.5,921.792 1605.09,840.366 1528.66,782.651 1436.55,756.443 1341.18,765.279 1255.45,807.968 1190.93,878.743 1156.34,968.046 1156.34,1063.82 
  1190.93,1153.12 1255.45,1223.9 1341.18,1266.58 1436.55,1275.42 1528.66,1249.21 1605.09,1191.5 1655.5,1110.07 1673.1,1015.93 
  "/>
<polyline clip-path="url(#clip282)" style="stroke:#c68125; stroke-linecap:butt; stroke-linejoin:round; stroke-width:4; stroke-opacity:1; fill:none" points="
  1716.53,1015.93 1696,906.102 1637.18,811.105 1548.02,743.771 1440.55,713.194 1329.3,723.504 1229.28,773.307 1154,855.878 1113.64,960.066 1113.64,1071.8 
  1154,1175.99 1229.28,1258.56 1329.3,1308.36 1440.55,1318.67 1548.02,1288.09 1637.18,1220.76 1696,1125.76 1716.53,1015.93 
  "/>
<polyline clip-path="url(#clip282)" style="stroke:#00a98d; stroke-linecap:butt; stroke-linejoin:round; stroke-width:4; stroke-opacity:1; fill:none" points="
  1759.97,1015.93 1736.5,890.412 1669.28,781.844 1567.38,704.891 1444.56,669.946 1317.41,681.728 1203.1,738.647 1117.08,833.014 1070.95,952.085 1070.95,1079.78 
  1117.08,1198.85 1203.1,1293.22 1317.41,1350.14 1444.56,1361.92 1567.38,1326.97 1669.28,1250.02 1736.5,1141.45 1759.97,1015.93 
  "/>
<polyline clip-path="url(#clip282)" style="stroke:#8e971d; stroke-linecap:butt; stroke-linejoin:round; stroke-width:4; stroke-opacity:1; fill:none" points="
  1803.4,1015.93 1777,874.722 1701.38,752.583 1586.74,666.011 1448.57,626.698 1305.52,639.953 1176.93,703.986 1080.15,810.149 1028.25,944.104 1028.25,1087.76 
  1080.15,1221.71 1176.93,1327.88 1305.52,1391.91 1448.57,1405.17 1586.74,1365.85 1701.38,1279.28 1777,1157.14 1803.4,1015.93 
  "/>
<polyline clip-path="url(#clip282)" style="stroke:#00a8cb; stroke-linecap:butt; stroke-linejoin:round; stroke-width:4; stroke-opacity:1; fill:none" points="
  1846.83,1015.93 1817.5,859.032 1733.48,723.322 1606.1,627.131 1452.58,583.45 1293.64,598.178 1150.75,669.325 1043.22,787.284 985.561,936.123 985.561,1095.74 
  1043.22,1244.58 1150.75,1362.54 1293.64,1433.69 1452.58,1448.41 1606.1,1404.73 1733.48,1308.54 1817.5,1172.83 1846.83,1015.93 
  "/>
<polyline clip-path="url(#clip282)" style="stroke:#9b7fe8; stroke-linecap:butt; stroke-linejoin:round; stroke-width:4; stroke-opacity:1; fill:none" points="
  1890.27,1015.93 1858.01,843.342 1765.57,694.061 1625.46,588.251 1456.58,540.202 1281.75,556.402 1124.58,634.665 1006.29,764.419 942.867,928.142 942.867,1103.72 
  1006.29,1267.44 1124.58,1397.2 1281.75,1475.46 1456.58,1491.66 1625.46,1443.61 1765.57,1337.8 1858.01,1188.52 1890.27,1015.93 
  "/>
<polyline clip-path="url(#clip282)" style="stroke:#608cf6; stroke-linecap:butt; stroke-linejoin:round; stroke-width:4; stroke-opacity:1; fill:none" points="
  1933.7,1015.93 1898.51,827.652 1797.67,664.8 1644.82,549.371 1460.59,496.953 1269.87,514.627 1098.41,600.004 969.365,741.554 900.173,920.161 900.173,1111.7 
  969.365,1290.31 1098.41,1431.86 1269.87,1517.24 1460.59,1534.91 1644.82,1482.49 1797.67,1367.06 1898.51,1204.21 1933.7,1015.93 
  "/>
<polyline clip-path="url(#clip282)" style="stroke:#f05f73; stroke-linecap:butt; stroke-linejoin:round; stroke-width:4; stroke-opacity:1; fill:none" points="
  1977.13,1015.93 1939.01,811.962 1829.77,635.54 1664.18,510.491 1464.6,453.705 1257.98,472.851 1072.23,565.343 932.437,718.69 857.479,912.18 857.479,1119.68 
  932.437,1313.17 1072.23,1466.52 1257.98,1559.01 1464.6,1578.16 1664.18,1521.37 1829.77,1396.32 1939.01,1219.9 1977.13,1015.93 
  "/>
<polyline clip-path="url(#clip282)" style="stroke:#dd64b5; stroke-linecap:butt; stroke-linejoin:round; stroke-width:4; stroke-opacity:1; fill:none" points="
  2020.57,1015.93 1979.51,796.272 1861.87,606.279 1683.54,471.611 1468.61,410.457 1246.09,431.076 1046.06,530.683 895.51,695.825 814.785,904.199 814.785,1127.66 
  895.51,1336.04 1046.06,1501.18 1246.09,1600.79 1468.61,1621.41 1683.54,1560.25 1861.87,1425.58 1979.51,1235.59 2020.57,1015.93 
  "/>
<polyline clip-path="url(#clip282)" style="stroke:#6b9e32; stroke-linecap:butt; stroke-linejoin:round; stroke-width:4; stroke-opacity:1; fill:none" points="
  2064,1015.93 2020.01,780.582 1893.97,577.018 1702.9,432.731 1472.61,367.209 1234.21,389.3 1019.88,496.022 858.582,672.96 772.091,896.219 772.091,1135.64 
  858.582,1358.9 1019.88,1535.84 1234.21,1642.56 1472.61,1664.65 1702.9,1599.13 1893.97,1454.85 2020.01,1251.28 2064,1015.93 
  "/>
<polyline clip-path="url(#clip282)" style="stroke:#009af9; stroke-linecap:butt; stroke-linejoin:round; stroke-width:4; stroke-opacity:1; fill:none" points="
  2107.44,1015.93 2060.51,764.892 1926.06,547.757 1722.26,393.851 1476.62,323.961 1222.32,347.525 993.708,461.361 821.654,650.095 729.397,888.238 729.397,1143.63 
  821.654,1381.77 993.708,1570.5 1222.32,1684.34 1476.62,1707.9 1722.26,1638.01 1926.06,1484.11 2060.51,1266.97 2107.44,1015.93 
  "/>
<polyline clip-path="url(#clip282)" style="stroke:#e26f46; stroke-linecap:butt; stroke-linejoin:round; stroke-width:4; stroke-opacity:1; fill:none" points="
  2150.87,1015.93 2101.01,749.202 1958.16,518.496 1741.62,354.971 1480.63,280.713 1210.44,305.75 967.533,426.701 784.726,627.231 686.703,880.257 686.703,1151.61 
  784.726,1404.63 967.533,1605.16 1210.44,1726.11 1480.63,1751.15 1741.62,1676.89 1958.16,1513.37 2101.01,1282.66 2150.87,1015.93 
  "/>
<polyline clip-path="url(#clip282)" style="stroke:#3da44d; stroke-linecap:butt; stroke-linejoin:round; stroke-width:4; stroke-opacity:1; fill:none" points="
  1412.5,1015.93 1455.93,1015.93 1499.37,1015.93 1542.8,1015.93 1586.23,1015.93 1629.67,1015.93 1673.1,1015.93 1716.53,1015.93 1759.97,1015.93 1803.4,1015.93 
  1846.83,1015.93 1890.27,1015.93 1933.7,1015.93 1977.13,1015.93 2020.57,1015.93 2064,1015.93 2107.44,1015.93 2150.87,1015.93 
  "/>
<polyline clip-path="url(#clip282)" style="stroke:#c271d2; stroke-linecap:butt; stroke-linejoin:round; stroke-width:4; stroke-opacity:1; fill:none" points="
  1412.5,1015.93 1453,1000.24 1493.5,984.552 1534,968.862 1574.5,953.172 1615,937.482 1655.5,921.792 1696,906.102 1736.5,890.412 1777,874.722 
  1817.5,859.032 1858.01,843.342 1898.51,827.652 1939.01,811.962 1979.51,796.272 2020.01,780.582 2060.51,764.892 2101.01,749.202 
  "/>
<polyline clip-path="url(#clip282)" style="stroke:#ac8d18; stroke-linecap:butt; stroke-linejoin:round; stroke-width:4; stroke-opacity:1; fill:none" points="
  1412.5,1015.93 1444.6,986.671 1476.7,957.41 1508.79,928.149 1540.89,898.888 1572.99,869.627 1605.09,840.366 1637.18,811.105 1669.28,781.844 1701.38,752.583 
  1733.48,723.322 1765.57,694.061 1797.67,664.8 1829.77,635.54 1861.87,606.279 1893.97,577.018 1926.06,547.757 1958.16,518.496 
  "/>
<polyline clip-path="url(#clip282)" style="stroke:#00a9ad; stroke-linecap:butt; stroke-linejoin:round; stroke-width:4; stroke-opacity:1; fill:none" points="
  1412.5,1015.93 1431.86,977.052 1451.22,938.172 1470.58,899.292 1489.94,860.412 1509.3,821.532 1528.66,782.651 1548.02,743.771 1567.38,704.891 1586.74,666.011 
  1606.1,627.131 1625.46,588.251 1644.82,549.371 1664.18,510.491 1683.54,471.611 1702.9,432.731 1722.26,393.851 1741.62,354.971 
  "/>
<polyline clip-path="url(#clip282)" style="stroke:#ed5d92; stroke-linecap:butt; stroke-linejoin:round; stroke-width:4; stroke-opacity:1; fill:none" points="
  1412.5,1015.93 1416.51,972.684 1420.51,929.435 1424.52,886.187 1428.53,842.939 1432.54,799.691 1436.55,756.443 1440.55,713.194 1444.56,669.946 1448.57,626.698 
  1452.58,583.45 1456.58,540.202 1460.59,496.953 1464.6,453.705 1468.61,410.457 1472.61,367.209 1476.62,323.961 1480.63,280.713 
  "/>
<polyline clip-path="url(#clip282)" style="stroke:#c68125; stroke-linecap:butt; stroke-linejoin:round; stroke-width:4; stroke-opacity:1; fill:none" points="
  1412.5,1015.93 1400.61,974.156 1388.73,932.381 1376.84,890.605 1364.96,848.83 1353.07,807.055 1341.18,765.279 1329.3,723.504 1317.41,681.728 1305.52,639.953 
  1293.64,598.178 1281.75,556.402 1269.87,514.627 1257.98,472.851 1246.09,431.076 1234.21,389.3 1222.32,347.525 1210.44,305.75 
  "/>
<polyline clip-path="url(#clip282)" style="stroke:#00a98d; stroke-linecap:butt; stroke-linejoin:round; stroke-width:4; stroke-opacity:1; fill:none" points="
  1412.5,1015.93 1386.33,981.271 1360.15,946.61 1333.98,911.95 1307.8,877.289 1281.63,842.628 1255.45,807.968 1229.28,773.307 1203.1,738.647 1176.93,703.986 
  1150.75,669.325 1124.58,634.665 1098.41,600.004 1072.23,565.343 1046.06,530.683 1019.88,496.022 993.708,461.361 967.533,426.701 
  "/>
<polyline clip-path="url(#clip282)" style="stroke:#8e971d; stroke-linecap:butt; stroke-linejoin:round; stroke-width:4; stroke-opacity:1; fill:none" points="
  1412.5,1015.93 1375.57,993.067 1338.64,970.202 1301.72,947.337 1264.79,924.473 1227.86,901.608 1190.93,878.743 1154,855.878 1117.08,833.014 1080.15,810.149 
  1043.22,787.284 1006.29,764.419 969.365,741.554 932.437,718.69 895.51,695.825 858.582,672.96 821.654,650.095 784.726,627.231 
  "/>
<polyline clip-path="url(#clip282)" style="stroke:#00a8cb; stroke-linecap:butt; stroke-linejoin:round; stroke-width:4; stroke-opacity:1; fill:none" points="
  1412.5,1015.93 1369.81,1007.95 1327.11,999.97 1284.42,991.989 1241.72,984.008 1199.03,976.027 1156.34,968.046 1113.64,960.066 1070.95,952.085 1028.25,944.104 
  985.561,936.123 942.867,928.142 900.173,920.161 857.479,912.18 814.785,904.199 772.091,896.219 729.397,888.238 686.703,880.257 
  "/>
<polyline clip-path="url(#clip282)" style="stroke:#9b7fe8; stroke-linecap:butt; stroke-linejoin:round; stroke-width:4; stroke-opacity:1; fill:none" points="
  1412.5,1015.93 1369.81,1023.91 1327.11,1031.89 1284.42,1039.87 1241.72,1047.86 1199.03,1055.84 1156.34,1063.82 1113.64,1071.8 1070.95,1079.78 1028.25,1087.76 
  985.561,1095.74 942.867,1103.72 900.173,1111.7 857.479,1119.68 814.785,1127.66 772.091,1135.64 729.397,1143.63 686.703,1151.61 
  "/>
<polyline clip-path="url(#clip282)" style="stroke:#608cf6; stroke-linecap:butt; stroke-linejoin:round; stroke-width:4; stroke-opacity:1; fill:none" points="
  1412.5,1015.93 1375.57,1038.8 1338.64,1061.66 1301.72,1084.53 1264.79,1107.39 1227.86,1130.26 1190.93,1153.12 1154,1175.99 1117.08,1198.85 1080.15,1221.71 
  1043.22,1244.58 1006.29,1267.44 969.365,1290.31 932.437,1313.17 895.51,1336.04 858.582,1358.9 821.654,1381.77 784.726,1404.63 
  "/>
<polyline clip-path="url(#clip282)" style="stroke:#f05f73; stroke-linecap:butt; stroke-linejoin:round; stroke-width:4; stroke-opacity:1; fill:none" points="
  1412.5,1015.93 1386.33,1050.59 1360.15,1085.25 1333.98,1119.91 1307.8,1154.57 1281.63,1189.24 1255.45,1223.9 1229.28,1258.56 1203.1,1293.22 1176.93,1327.88 
  1150.75,1362.54 1124.58,1397.2 1098.41,1431.86 1072.23,1466.52 1046.06,1501.18 1019.88,1535.84 993.708,1570.5 967.533,1605.16 
  "/>
<polyline clip-path="url(#clip282)" style="stroke:#dd64b5; stroke-linecap:butt; stroke-linejoin:round; stroke-width:4; stroke-opacity:1; fill:none" points="
  1412.5,1015.93 1400.61,1057.71 1388.73,1099.48 1376.84,1141.26 1364.96,1183.03 1353.07,1224.81 1341.18,1266.58 1329.3,1308.36 1317.41,1350.14 1305.52,1391.91 
  1293.64,1433.69 1281.75,1475.46 1269.87,1517.24 1257.98,1559.01 1246.09,1600.79 1234.21,1642.56 1222.32,1684.34 1210.44,1726.11 
  "/>
<polyline clip-path="url(#clip282)" style="stroke:#6b9e32; stroke-linecap:butt; stroke-linejoin:round; stroke-width:4; stroke-opacity:1; fill:none" points="
  1412.5,1015.93 1416.51,1059.18 1420.51,1102.43 1424.52,1145.68 1428.53,1188.92 1432.54,1232.17 1436.55,1275.42 1440.55,1318.67 1444.56,1361.92 1448.57,1405.17 
  1452.58,1448.41 1456.58,1491.66 1460.59,1534.91 1464.6,1578.16 1468.61,1621.41 1472.61,1664.65 1476.62,1707.9 1480.63,1751.15 
  "/>
<polyline clip-path="url(#clip282)" style="stroke:#009af9; stroke-linecap:butt; stroke-linejoin:round; stroke-width:4; stroke-opacity:1; fill:none" points="
  1412.5,1015.93 1431.86,1054.81 1451.22,1093.69 1470.58,1132.57 1489.94,1171.45 1509.3,1210.33 1528.66,1249.21 1548.02,1288.09 1567.38,1326.97 1586.74,1365.85 
  1606.1,1404.73 1625.46,1443.61 1644.82,1482.49 1664.18,1521.37 1683.54,1560.25 1702.9,1599.13 1722.26,1638.01 1741.62,1676.89 
  "/>
<polyline clip-path="url(#clip282)" style="stroke:#e26f46; stroke-linecap:butt; stroke-linejoin:round; stroke-width:4; stroke-opacity:1; fill:none" points="
  1412.5,1015.93 1444.6,1045.19 1476.7,1074.45 1508.79,1103.71 1540.89,1132.98 1572.99,1162.24 1605.09,1191.5 1637.18,1220.76 1669.28,1250.02 1701.38,1279.28 
  1733.48,1308.54 1765.57,1337.8 1797.67,1367.06 1829.77,1396.32 1861.87,1425.58 1893.97,1454.85 1926.06,1484.11 1958.16,1513.37 
  "/>
<polyline clip-path="url(#clip282)" style="stroke:#3da44d; stroke-linecap:butt; stroke-linejoin:round; stroke-width:4; stroke-opacity:1; fill:none" points="
  1412.5,1015.93 1453,1031.62 1493.5,1047.31 1534,1063 1574.5,1078.69 1615,1094.38 1655.5,1110.07 1696,1125.76 1736.5,1141.45 1777,1157.14 
  1817.5,1172.83 1858.01,1188.52 1898.51,1204.21 1939.01,1219.9 1979.51,1235.59 2020.01,1251.28 2060.51,1266.97 2101.01,1282.66 
  "/>
<polyline clip-path="url(#clip282)" style="stroke:#c271d2; stroke-linecap:butt; stroke-linejoin:round; stroke-width:4; stroke-opacity:1; fill:none" points="
  1412.5,1015.93 1455.93,1015.93 1499.37,1015.93 1542.8,1015.93 1586.23,1015.93 1629.67,1015.93 1673.1,1015.93 1716.53,1015.93 1759.97,1015.93 1803.4,1015.93 
  1846.83,1015.93 1890.27,1015.93 1933.7,1015.93 1977.13,1015.93 2020.57,1015.93 2064,1015.93 2107.44,1015.93 2150.87,1015.93 
  "/>
<polyline clip-path="url(#clip282)" style="stroke:#0000ff; stroke-linecap:butt; stroke-linejoin:round; stroke-width:4; stroke-opacity:1; fill:none" points="
  1353.07,807.055 1151,96.8724 
  "/>
<polyline clip-path="url(#clip282)" style="stroke:#0000ff; stroke-linecap:butt; stroke-linejoin:round; stroke-width:4; stroke-opacity:1; fill:none" points="
  1142.65,141.17 1151,96.8724 1181.43,130.136 
  "/>
<polyline clip-path="url(#clip282)" style="stroke:#0000ff; stroke-linecap:butt; stroke-linejoin:round; stroke-width:4; stroke-opacity:1; fill:none" points="
  1151,96.8724 1353.07,807.055 
  "/>
<polyline clip-path="url(#clip282)" style="stroke:#0000ff; stroke-linecap:butt; stroke-linejoin:round; stroke-width:4; stroke-opacity:1; fill:none" points="
  1353.07,807.055 1144.19,866.485 
  "/>
<polyline clip-path="url(#clip282)" style="stroke:#0000ff; stroke-linecap:butt; stroke-linejoin:round; stroke-width:4; stroke-opacity:1; fill:none" points="
  1188.49,874.842 1144.19,866.485 1177.46,836.061 
  "/>
<polyline clip-path="url(#clip282)" style="stroke:#0000ff; stroke-linecap:butt; stroke-linejoin:round; stroke-width:4; stroke-opacity:1; fill:none" points="
  1144.19,866.485 1353.07,807.055 
  "/>
</svg>
