<?xml version="1.0" encoding="utf-8"?>
<svg xmlns="http://www.w3.org/2000/svg" xmlns:xlink="http://www.w3.org/1999/xlink" width="672" height="480" viewBox="0 0 2688 1920">
<defs>
  <clipPath id="clip620">
    <rect x="0" y="0" width="2688" height="1920"/>
  </clipPath>
</defs>
<path clip-path="url(#clip620)" d="
M0 1920 L2688 1920 L2688 0 L0 0  Z
  " fill="#ffffff" fill-rule="evenodd" fill-opacity="1"/>
<defs>
  <clipPath id="clip621">
    <rect x="537" y="0" width="1883" height="1883"/>
  </clipPath>
</defs>
<path clip-path="url(#clip620)" d="
M159.478 1800.78 L2640.76 1800.78 L2640.76 47.2441 L159.478 47.2441  Z
  " fill="#ffffff" fill-rule="evenodd" fill-opacity="1"/>
<defs>
  <clipPath id="clip622">
    <rect x="159" y="47" width="2482" height="1755"/>
  </clipPath>
</defs>
<polyline clip-path="url(#clip622)" style="stroke:#000000; stroke-linecap:round; stroke-linejoin:round; stroke-width:2; stroke-opacity:0.1; fill:none" points="
  229.703,1800.78 229.703,47.2441 
  "/>
<polyline clip-path="url(#clip622)" style="stroke:#000000; stroke-linecap:round; stroke-linejoin:round; stroke-width:2; stroke-opacity:0.1; fill:none" points="
  814.91,1800.78 814.91,47.2441 
  "/>
<polyline clip-path="url(#clip622)" style="stroke:#000000; stroke-linecap:round; stroke-linejoin:round; stroke-width:2; stroke-opacity:0.1; fill:none" points="
  1400.12,1800.78 1400.12,47.2441 
  "/>
<polyline clip-path="url(#clip622)" style="stroke:#000000; stroke-linecap:round; stroke-linejoin:round; stroke-width:2; stroke-opacity:0.1; fill:none" points="
  1985.32,1800.78 1985.32,47.2441 
  "/>
<polyline clip-path="url(#clip622)" style="stroke:#000000; stroke-linecap:round; stroke-linejoin:round; stroke-width:2; stroke-opacity:0.1; fill:none" points="
  2570.53,1800.78 2570.53,47.2441 
  "/>
<polyline clip-path="url(#clip620)" style="stroke:#000000; stroke-linecap:round; stroke-linejoin:round; stroke-width:4; stroke-opacity:1; fill:none" points="
  159.478,1800.78 2640.76,1800.78 
  "/>
<polyline clip-path="url(#clip620)" style="stroke:#000000; stroke-linecap:round; stroke-linejoin:round; stroke-width:4; stroke-opacity:1; fill:none" points="
  229.703,1800.78 229.703,1781.88 
  "/>
<polyline clip-path="url(#clip620)" style="stroke:#000000; stroke-linecap:round; stroke-linejoin:round; stroke-width:4; stroke-opacity:1; fill:none" points="
  814.91,1800.78 814.91,1781.88 
  "/>
<polyline clip-path="url(#clip620)" style="stroke:#000000; stroke-linecap:round; stroke-linejoin:round; stroke-width:4; stroke-opacity:1; fill:none" points="
  1400.12,1800.78 1400.12,1781.88 
  "/>
<polyline clip-path="url(#clip620)" style="stroke:#000000; stroke-linecap:round; stroke-linejoin:round; stroke-width:4; stroke-opacity:1; fill:none" points="
  1985.32,1800.78 1985.32,1781.88 
  "/>
<polyline clip-path="url(#clip620)" style="stroke:#000000; stroke-linecap:round; stroke-linejoin:round; stroke-width:4; stroke-opacity:1; fill:none" points="
  2570.53,1800.78 2570.53,1781.88 
  "/>
<path clip-path="url(#clip620)" d="M192.007 1834 Q188.395 1834 186.567 1837.57 Q184.761 1841.11 184.761 1848.24 Q184.761 1855.34 186.567 1858.91 Q188.395 1862.45 192.007 1862.45 Q195.641 1862.45 197.446 1858.91 Q199.275 1855.34 199.275 1848.24 Q199.275 1841.11 197.446 1837.57 Q195.641 1834 192.007 1834 M192.007 1830.3 Q197.817 1830.3 200.872 1834.9 Q203.951 1839.49 203.951 1848.24 Q203.951 1856.96 200.872 1861.57 Q197.817 1866.15 192.007 1866.15 Q186.196 1866.15 183.118 1861.57 Q180.062 1856.96 180.062 1848.24 Q180.062 1839.49 183.118 1834.9 Q186.196 1830.3 192.007 1830.3 Z" fill="#000000" fill-rule="evenodd" fill-opacity="1" /><path clip-path="url(#clip620)" d="M212.168 1859.6 L217.053 1859.6 L217.053 1865.48 L212.168 1865.48 L212.168 1859.6 Z" fill="#000000" fill-rule="evenodd" fill-opacity="1" /><path clip-path="url(#clip620)" d="M237.238 1834 Q233.627 1834 231.798 1837.57 Q229.992 1841.11 229.992 1848.24 Q229.992 1855.34 231.798 1858.91 Q233.627 1862.45 237.238 1862.45 Q240.872 1862.45 242.678 1858.91 Q244.506 1855.34 244.506 1848.24 Q244.506 1841.11 242.678 1837.57 Q240.872 1834 237.238 1834 M237.238 1830.3 Q243.048 1830.3 246.103 1834.9 Q249.182 1839.49 249.182 1848.24 Q249.182 1856.96 246.103 1861.57 Q243.048 1866.15 237.238 1866.15 Q231.428 1866.15 228.349 1861.57 Q225.293 1856.96 225.293 1848.24 Q225.293 1839.49 228.349 1834.9 Q231.428 1830.3 237.238 1830.3 Z" fill="#000000" fill-rule="evenodd" fill-opacity="1" /><path clip-path="url(#clip620)" d="M267.4 1834 Q263.789 1834 261.96 1837.57 Q260.154 1841.11 260.154 1848.24 Q260.154 1855.34 261.96 1858.91 Q263.789 1862.45 267.4 1862.45 Q271.034 1862.45 272.839 1858.91 Q274.668 1855.34 274.668 1848.24 Q274.668 1841.11 272.839 1837.57 Q271.034 1834 267.4 1834 M267.4 1830.3 Q273.21 1830.3 276.265 1834.9 Q279.344 1839.49 279.344 1848.24 Q279.344 1856.96 276.265 1861.57 Q273.21 1866.15 267.4 1866.15 Q261.589 1866.15 258.511 1861.57 Q255.455 1856.96 255.455 1848.24 Q255.455 1839.49 258.511 1834.9 Q261.589 1830.3 267.4 1830.3 Z" fill="#000000" fill-rule="evenodd" fill-opacity="1" /><path clip-path="url(#clip620)" d="M777.711 1834 Q774.1 1834 772.271 1837.57 Q770.466 1841.11 770.466 1848.24 Q770.466 1855.34 772.271 1858.91 Q774.1 1862.45 777.711 1862.45 Q781.345 1862.45 783.151 1858.91 Q784.98 1855.34 784.98 1848.24 Q784.98 1841.11 783.151 1837.57 Q781.345 1834 777.711 1834 M777.711 1830.3 Q783.521 1830.3 786.577 1834.9 Q789.656 1839.49 789.656 1848.24 Q789.656 1856.96 786.577 1861.57 Q783.521 1866.15 777.711 1866.15 Q771.901 1866.15 768.822 1861.57 Q765.767 1856.96 765.767 1848.24 Q765.767 1839.49 768.822 1834.9 Q771.901 1830.3 777.711 1830.3 Z" fill="#000000" fill-rule="evenodd" fill-opacity="1" /><path clip-path="url(#clip620)" d="M797.873 1859.6 L802.757 1859.6 L802.757 1865.48 L797.873 1865.48 L797.873 1859.6 Z" fill="#000000" fill-rule="evenodd" fill-opacity="1" /><path clip-path="url(#clip620)" d="M816.97 1861.55 L833.29 1861.55 L833.29 1865.48 L811.345 1865.48 L811.345 1861.55 Q814.007 1858.79 818.591 1854.16 Q823.197 1849.51 824.378 1848.17 Q826.623 1845.65 827.503 1843.91 Q828.405 1842.15 828.405 1840.46 Q828.405 1837.71 826.461 1835.97 Q824.54 1834.23 821.438 1834.23 Q819.239 1834.23 816.785 1835 Q814.355 1835.76 811.577 1837.31 L811.577 1832.59 Q814.401 1831.46 816.855 1830.88 Q819.308 1830.3 821.345 1830.3 Q826.716 1830.3 829.91 1832.98 Q833.104 1835.67 833.104 1840.16 Q833.104 1842.29 832.294 1844.21 Q831.507 1846.11 829.401 1848.7 Q828.822 1849.37 825.72 1852.59 Q822.618 1855.78 816.97 1861.55 Z" fill="#000000" fill-rule="evenodd" fill-opacity="1" /><path clip-path="url(#clip620)" d="M843.151 1830.92 L861.507 1830.92 L861.507 1834.86 L847.433 1834.86 L847.433 1843.33 Q848.452 1842.98 849.47 1842.82 Q850.489 1842.64 851.507 1842.64 Q857.294 1842.64 860.674 1845.81 Q864.053 1848.98 864.053 1854.4 Q864.053 1859.97 860.581 1863.08 Q857.109 1866.15 850.79 1866.15 Q848.614 1866.15 846.345 1865.78 Q844.1 1865.41 841.692 1864.67 L841.692 1859.97 Q843.776 1861.11 845.998 1861.66 Q848.22 1862.22 850.697 1862.22 Q854.702 1862.22 857.039 1860.11 Q859.377 1858.01 859.377 1854.4 Q859.377 1850.78 857.039 1848.68 Q854.702 1846.57 850.697 1846.57 Q848.822 1846.57 846.947 1846.99 Q845.095 1847.4 843.151 1848.28 L843.151 1830.92 Z" fill="#000000" fill-rule="evenodd" fill-opacity="1" /><path clip-path="url(#clip620)" d="M1362.42 1834 Q1358.81 1834 1356.98 1837.57 Q1355.18 1841.11 1355.18 1848.24 Q1355.18 1855.34 1356.98 1858.91 Q1358.81 1862.45 1362.42 1862.45 Q1366.05 1862.45 1367.86 1858.91 Q1369.69 1855.34 1369.69 1848.24 Q1369.69 1841.11 1367.86 1837.57 Q1366.05 1834 1362.42 1834 M1362.42 1830.3 Q1368.23 1830.3 1371.29 1834.9 Q1374.36 1839.49 1374.36 1848.24 Q1374.36 1856.96 1371.29 1861.57 Q1368.23 1866.15 1362.42 1866.15 Q1356.61 1866.15 1353.53 1861.57 Q1350.48 1856.96 1350.48 1848.24 Q1350.48 1839.49 1353.53 1834.9 Q1356.61 1830.3 1362.42 1830.3 Z" fill="#000000" fill-rule="evenodd" fill-opacity="1" /><path clip-path="url(#clip620)" d="M1382.58 1859.6 L1387.47 1859.6 L1387.47 1865.48 L1382.58 1865.48 L1382.58 1859.6 Z" fill="#000000" fill-rule="evenodd" fill-opacity="1" /><path clip-path="url(#clip620)" d="M1397.7 1830.92 L1416.05 1830.92 L1416.05 1834.86 L1401.98 1834.86 L1401.98 1843.33 Q1403 1842.98 1404.02 1842.82 Q1405.04 1842.64 1406.05 1842.64 Q1411.84 1842.64 1415.22 1845.81 Q1418.6 1848.98 1418.6 1854.4 Q1418.6 1859.97 1415.13 1863.08 Q1411.66 1866.15 1405.34 1866.15 Q1403.16 1866.15 1400.89 1865.78 Q1398.65 1865.41 1396.24 1864.67 L1396.24 1859.97 Q1398.32 1861.11 1400.55 1861.66 Q1402.77 1862.22 1405.24 1862.22 Q1409.25 1862.22 1411.59 1860.11 Q1413.92 1858.01 1413.92 1854.4 Q1413.92 1850.78 1411.59 1848.68 Q1409.25 1846.57 1405.24 1846.57 Q1403.37 1846.57 1401.49 1846.99 Q1399.64 1847.4 1397.7 1848.28 L1397.7 1830.92 Z" fill="#000000" fill-rule="evenodd" fill-opacity="1" /><path clip-path="url(#clip620)" d="M1437.81 1834 Q1434.2 1834 1432.37 1837.57 Q1430.57 1841.11 1430.57 1848.24 Q1430.57 1855.34 1432.37 1858.91 Q1434.2 1862.45 1437.81 1862.45 Q1441.45 1862.45 1443.25 1858.91 Q1445.08 1855.34 1445.08 1848.24 Q1445.08 1841.11 1443.25 1837.57 Q1441.45 1834 1437.81 1834 M1437.81 1830.3 Q1443.62 1830.3 1446.68 1834.9 Q1449.76 1839.49 1449.76 1848.24 Q1449.76 1856.96 1446.68 1861.57 Q1443.62 1866.15 1437.81 1866.15 Q1432 1866.15 1428.92 1861.57 Q1425.87 1856.96 1425.87 1848.24 Q1425.87 1839.49 1428.92 1834.9 Q1432 1830.3 1437.81 1830.3 Z" fill="#000000" fill-rule="evenodd" fill-opacity="1" /><path clip-path="url(#clip620)" d="M1948.13 1834 Q1944.51 1834 1942.69 1837.57 Q1940.88 1841.11 1940.88 1848.24 Q1940.88 1855.34 1942.69 1858.91 Q1944.51 1862.45 1948.13 1862.45 Q1951.76 1862.45 1953.56 1858.91 Q1955.39 1855.34 1955.39 1848.24 Q1955.39 1841.11 1953.56 1837.57 Q1951.76 1834 1948.13 1834 M1948.13 1830.3 Q1953.94 1830.3 1956.99 1834.9 Q1960.07 1839.49 1960.07 1848.24 Q1960.07 1856.96 1956.99 1861.57 Q1953.94 1866.15 1948.13 1866.15 Q1942.32 1866.15 1939.24 1861.57 Q1936.18 1856.96 1936.18 1848.24 Q1936.18 1839.49 1939.24 1834.9 Q1942.32 1830.3 1948.13 1830.3 Z" fill="#000000" fill-rule="evenodd" fill-opacity="1" /><path clip-path="url(#clip620)" d="M1968.29 1859.6 L1973.17 1859.6 L1973.17 1865.48 L1968.29 1865.48 L1968.29 1859.6 Z" fill="#000000" fill-rule="evenodd" fill-opacity="1" /><path clip-path="url(#clip620)" d="M1982.18 1830.92 L2004.4 1830.92 L2004.4 1832.91 L1991.85 1865.48 L1986.97 1865.48 L1998.77 1834.86 L1982.18 1834.86 L1982.18 1830.92 Z" fill="#000000" fill-rule="evenodd" fill-opacity="1" /><path clip-path="url(#clip620)" d="M2013.56 1830.92 L2031.92 1830.92 L2031.92 1834.86 L2017.85 1834.86 L2017.85 1843.33 Q2018.87 1842.98 2019.88 1842.82 Q2020.9 1842.64 2021.92 1842.64 Q2027.71 1842.64 2031.09 1845.81 Q2034.47 1848.98 2034.47 1854.4 Q2034.47 1859.97 2031 1863.08 Q2027.52 1866.15 2021.2 1866.15 Q2019.03 1866.15 2016.76 1865.78 Q2014.51 1865.41 2012.11 1864.67 L2012.11 1859.97 Q2014.19 1861.11 2016.41 1861.66 Q2018.63 1862.22 2021.11 1862.22 Q2025.12 1862.22 2027.45 1860.11 Q2029.79 1858.01 2029.79 1854.4 Q2029.79 1850.78 2027.45 1848.68 Q2025.12 1846.57 2021.11 1846.57 Q2019.24 1846.57 2017.36 1846.99 Q2015.51 1847.4 2013.56 1848.28 L2013.56 1830.92 Z" fill="#000000" fill-rule="evenodd" fill-opacity="1" /><path clip-path="url(#clip620)" d="M2522.6 1861.55 L2530.24 1861.55 L2530.24 1835.18 L2521.93 1836.85 L2521.93 1832.59 L2530.2 1830.92 L2534.87 1830.92 L2534.87 1861.55 L2542.51 1861.55 L2542.51 1865.48 L2522.6 1865.48 L2522.6 1861.55 Z" fill="#000000" fill-rule="evenodd" fill-opacity="1" /><path clip-path="url(#clip620)" d="M2551.95 1859.6 L2556.84 1859.6 L2556.84 1865.48 L2551.95 1865.48 L2551.95 1859.6 Z" fill="#000000" fill-rule="evenodd" fill-opacity="1" /><path clip-path="url(#clip620)" d="M2577.02 1834 Q2573.41 1834 2571.58 1837.57 Q2569.78 1841.11 2569.78 1848.24 Q2569.78 1855.34 2571.58 1858.91 Q2573.41 1862.45 2577.02 1862.45 Q2580.66 1862.45 2582.46 1858.91 Q2584.29 1855.34 2584.29 1848.24 Q2584.29 1841.11 2582.46 1837.57 Q2580.66 1834 2577.02 1834 M2577.02 1830.3 Q2582.83 1830.3 2585.89 1834.9 Q2588.97 1839.49 2588.97 1848.24 Q2588.97 1856.96 2585.89 1861.57 Q2582.83 1866.15 2577.02 1866.15 Q2571.21 1866.15 2568.14 1861.57 Q2565.08 1856.96 2565.08 1848.24 Q2565.08 1839.49 2568.14 1834.9 Q2571.21 1830.3 2577.02 1830.3 Z" fill="#000000" fill-rule="evenodd" fill-opacity="1" /><path clip-path="url(#clip620)" d="M2607.19 1834 Q2603.57 1834 2601.75 1837.57 Q2599.94 1841.11 2599.94 1848.24 Q2599.94 1855.34 2601.75 1858.91 Q2603.57 1862.45 2607.19 1862.45 Q2610.82 1862.45 2612.63 1858.91 Q2614.45 1855.34 2614.45 1848.24 Q2614.45 1841.11 2612.63 1837.57 Q2610.82 1834 2607.19 1834 M2607.19 1830.3 Q2613 1830.3 2616.05 1834.9 Q2619.13 1839.49 2619.13 1848.24 Q2619.13 1856.96 2616.05 1861.57 Q2613 1866.15 2607.19 1866.15 Q2601.38 1866.15 2598.3 1861.57 Q2595.24 1856.96 2595.24 1848.24 Q2595.24 1839.49 2598.3 1834.9 Q2601.38 1830.3 2607.19 1830.3 Z" fill="#000000" fill-rule="evenodd" fill-opacity="1" /><polyline clip-path="url(#clip622)" style="stroke:#000000; stroke-linecap:round; stroke-linejoin:round; stroke-width:2; stroke-opacity:0.1; fill:none" points="
  159.478,1751.15 2640.76,1751.15 
  "/>
<polyline clip-path="url(#clip622)" style="stroke:#000000; stroke-linecap:round; stroke-linejoin:round; stroke-width:2; stroke-opacity:0.1; fill:none" points="
  159.478,1283.25 2640.76,1283.25 
  "/>
<polyline clip-path="url(#clip622)" style="stroke:#000000; stroke-linecap:round; stroke-linejoin:round; stroke-width:2; stroke-opacity:0.1; fill:none" points="
  159.478,815.35 2640.76,815.35 
  "/>
<polyline clip-path="url(#clip622)" style="stroke:#000000; stroke-linecap:round; stroke-linejoin:round; stroke-width:2; stroke-opacity:0.1; fill:none" points="
  159.478,347.449 2640.76,347.449 
  "/>
<polyline clip-path="url(#clip620)" style="stroke:#000000; stroke-linecap:round; stroke-linejoin:round; stroke-width:4; stroke-opacity:1; fill:none" points="
  159.478,1800.78 159.478,47.2441 
  "/>
<polyline clip-path="url(#clip620)" style="stroke:#000000; stroke-linecap:round; stroke-linejoin:round; stroke-width:4; stroke-opacity:1; fill:none" points="
  159.478,1751.15 178.376,1751.15 
  "/>
<polyline clip-path="url(#clip620)" style="stroke:#000000; stroke-linecap:round; stroke-linejoin:round; stroke-width:4; stroke-opacity:1; fill:none" points="
  159.478,1283.25 178.376,1283.25 
  "/>
<polyline clip-path="url(#clip620)" style="stroke:#000000; stroke-linecap:round; stroke-linejoin:round; stroke-width:4; stroke-opacity:1; fill:none" points="
  159.478,815.35 178.376,815.35 
  "/>
<polyline clip-path="url(#clip620)" style="stroke:#000000; stroke-linecap:round; stroke-linejoin:round; stroke-width:4; stroke-opacity:1; fill:none" points="
  159.478,347.449 178.376,347.449 
  "/>
<path clip-path="url(#clip620)" d="M61.9826 1736.95 Q58.3715 1736.95 56.5428 1740.51 Q54.7373 1744.06 54.7373 1751.19 Q54.7373 1758.29 56.5428 1761.86 Q58.3715 1765.4 61.9826 1765.4 Q65.6169 1765.4 67.4224 1761.86 Q69.2511 1758.29 69.2511 1751.19 Q69.2511 1744.06 67.4224 1740.51 Q65.6169 1736.95 61.9826 1736.95 M61.9826 1733.25 Q67.7928 1733.25 70.8483 1737.85 Q73.927 1742.44 73.927 1751.19 Q73.927 1759.91 70.8483 1764.52 Q67.7928 1769.1 61.9826 1769.1 Q56.1725 1769.1 53.0938 1764.52 Q50.0382 1759.91 50.0382 1751.19 Q50.0382 1742.44 53.0938 1737.85 Q56.1725 1733.25 61.9826 1733.25 Z" fill="#000000" fill-rule="evenodd" fill-opacity="1" /><path clip-path="url(#clip620)" d="M82.1445 1762.55 L87.0288 1762.55 L87.0288 1768.43 L82.1445 1768.43 L82.1445 1762.55 Z" fill="#000000" fill-rule="evenodd" fill-opacity="1" /><path clip-path="url(#clip620)" d="M107.214 1736.95 Q103.603 1736.95 101.774 1740.51 Q99.9685 1744.06 99.9685 1751.19 Q99.9685 1758.29 101.774 1761.86 Q103.603 1765.4 107.214 1765.4 Q110.848 1765.4 112.654 1761.86 Q114.482 1758.29 114.482 1751.19 Q114.482 1744.06 112.654 1740.51 Q110.848 1736.95 107.214 1736.95 M107.214 1733.25 Q113.024 1733.25 116.08 1737.85 Q119.158 1742.44 119.158 1751.19 Q119.158 1759.91 116.08 1764.52 Q113.024 1769.1 107.214 1769.1 Q101.404 1769.1 98.325 1764.52 Q95.2695 1759.91 95.2695 1751.19 Q95.2695 1742.44 98.325 1737.85 Q101.404 1733.25 107.214 1733.25 Z" fill="#000000" fill-rule="evenodd" fill-opacity="1" /><path clip-path="url(#clip620)" d="M63.5798 1269.05 Q59.9687 1269.05 58.14 1272.61 Q56.3345 1276.16 56.3345 1283.29 Q56.3345 1290.39 58.14 1293.96 Q59.9687 1297.5 63.5798 1297.5 Q67.2141 1297.5 69.0196 1293.96 Q70.8483 1290.39 70.8483 1283.29 Q70.8483 1276.16 69.0196 1272.61 Q67.2141 1269.05 63.5798 1269.05 M63.5798 1265.35 Q69.39 1265.35 72.4455 1269.95 Q75.5242 1274.54 75.5242 1283.29 Q75.5242 1292.01 72.4455 1296.62 Q69.39 1301.2 63.5798 1301.2 Q57.7697 1301.2 54.691 1296.62 Q51.6354 1292.01 51.6354 1283.29 Q51.6354 1274.54 54.691 1269.95 Q57.7697 1265.35 63.5798 1265.35 Z" fill="#000000" fill-rule="evenodd" fill-opacity="1" /><path clip-path="url(#clip620)" d="M83.7418 1294.65 L88.626 1294.65 L88.626 1300.53 L83.7418 1300.53 L83.7418 1294.65 Z" fill="#000000" fill-rule="evenodd" fill-opacity="1" /><path clip-path="url(#clip620)" d="M102.839 1296.6 L119.158 1296.6 L119.158 1300.53 L97.2139 1300.53 L97.2139 1296.6 Q99.8759 1293.84 104.459 1289.21 Q109.066 1284.56 110.246 1283.22 Q112.492 1280.69 113.371 1278.96 Q114.274 1277.2 114.274 1275.51 Q114.274 1272.75 112.33 1271.02 Q110.408 1269.28 107.306 1269.28 Q105.107 1269.28 102.654 1270.04 Q100.223 1270.81 97.4454 1272.36 L97.4454 1267.64 Q100.269 1266.5 102.723 1265.92 Q105.177 1265.35 107.214 1265.35 Q112.584 1265.35 115.779 1268.03 Q118.973 1270.72 118.973 1275.21 Q118.973 1277.34 118.163 1279.26 Q117.376 1281.16 115.269 1283.75 Q114.691 1284.42 111.589 1287.64 Q108.487 1290.83 102.839 1296.6 Z" fill="#000000" fill-rule="evenodd" fill-opacity="1" /><path clip-path="url(#clip620)" d="M61.4965 801.148 Q57.8854 801.148 56.0567 804.713 Q54.2512 808.255 54.2512 815.384 Q54.2512 822.491 56.0567 826.056 Q57.8854 829.597 61.4965 829.597 Q65.1307 829.597 66.9363 826.056 Q68.765 822.491 68.765 815.384 Q68.765 808.255 66.9363 804.713 Q65.1307 801.148 61.4965 801.148 M61.4965 797.445 Q67.3067 797.445 70.3622 802.051 Q73.4409 806.634 73.4409 815.384 Q73.4409 824.111 70.3622 828.718 Q67.3067 833.301 61.4965 833.301 Q55.6864 833.301 52.6077 828.718 Q49.5521 824.111 49.5521 815.384 Q49.5521 806.634 52.6077 802.051 Q55.6864 797.445 61.4965 797.445 Z" fill="#000000" fill-rule="evenodd" fill-opacity="1" /><path clip-path="url(#clip620)" d="M81.6584 826.75 L86.5427 826.75 L86.5427 832.63 L81.6584 832.63 L81.6584 826.75 Z" fill="#000000" fill-rule="evenodd" fill-opacity="1" /><path clip-path="url(#clip620)" d="M109.575 802.144 L97.7695 820.593 L109.575 820.593 L109.575 802.144 M108.348 798.07 L114.228 798.07 L114.228 820.593 L119.158 820.593 L119.158 824.482 L114.228 824.482 L114.228 832.63 L109.575 832.63 L109.575 824.482 L93.9732 824.482 L93.9732 819.968 L108.348 798.07 Z" fill="#000000" fill-rule="evenodd" fill-opacity="1" /><path clip-path="url(#clip620)" d="M61.8206 333.248 Q58.2095 333.248 56.3808 336.813 Q54.5752 340.354 54.5752 347.484 Q54.5752 354.59 56.3808 358.155 Q58.2095 361.697 61.8206 361.697 Q65.4548 361.697 67.2604 358.155 Q69.0891 354.59 69.0891 347.484 Q69.0891 340.354 67.2604 336.813 Q65.4548 333.248 61.8206 333.248 M61.8206 329.544 Q67.6307 329.544 70.6863 334.151 Q73.765 338.734 73.765 347.484 Q73.765 356.211 70.6863 360.817 Q67.6307 365.4 61.8206 365.4 Q56.0104 365.4 52.9317 360.817 Q49.8762 356.211 49.8762 347.484 Q49.8762 338.734 52.9317 334.151 Q56.0104 329.544 61.8206 329.544 Z" fill="#000000" fill-rule="evenodd" fill-opacity="1" /><path clip-path="url(#clip620)" d="M81.9825 358.849 L86.8667 358.849 L86.8667 364.729 L81.9825 364.729 L81.9825 358.849 Z" fill="#000000" fill-rule="evenodd" fill-opacity="1" /><path clip-path="url(#clip620)" d="M107.631 345.586 Q104.482 345.586 102.631 347.738 Q100.802 349.891 100.802 353.641 Q100.802 357.368 102.631 359.544 Q104.482 361.697 107.631 361.697 Q110.779 361.697 112.607 359.544 Q114.459 357.368 114.459 353.641 Q114.459 349.891 112.607 347.738 Q110.779 345.586 107.631 345.586 M116.913 330.933 L116.913 335.192 Q115.154 334.359 113.348 333.919 Q111.566 333.479 109.806 333.479 Q105.177 333.479 102.723 336.604 Q100.293 339.729 99.9454 346.049 Q101.311 344.035 103.371 342.97 Q105.431 341.882 107.908 341.882 Q113.117 341.882 116.126 345.053 Q119.158 348.201 119.158 353.641 Q119.158 358.965 116.01 362.183 Q112.862 365.4 107.631 365.4 Q101.635 365.4 98.4639 360.817 Q95.2926 356.211 95.2926 347.484 Q95.2926 339.289 99.1815 334.428 Q103.07 329.544 109.621 329.544 Q111.38 329.544 113.163 329.891 Q114.968 330.239 116.913 330.933 Z" fill="#000000" fill-rule="evenodd" fill-opacity="1" /><polyline clip-path="url(#clip622)" style="stroke:#009af9; stroke-linecap:round; stroke-linejoin:round; stroke-width:12; stroke-opacity:1; fill:none" points="
  2570.53,1751.15 2570.51,1741.92 2570.46,1732.68 2570.37,1723.45 2570.24,1714.22 2570.08,1704.99 2569.87,1695.76 2569.64,1686.53 2569.36,1677.3 2569.05,1668.07 
  2568.71,1658.84 2568.33,1649.62 2567.91,1640.39 2567.45,1631.17 2566.96,1621.95 2566.43,1612.73 2565.87,1603.52 2565.26,1594.3 2564.63,1585.09 2563.95,1575.88 
  2563.24,1566.68 2562.5,1557.47 2561.71,1548.27 2560.89,1539.07 2560.04,1529.88 2559.15,1520.69 2558.22,1511.5 2557.25,1502.32 2556.25,1493.14 2555.22,1483.97 
  2554.14,1474.8 2553.03,1465.63 2551.89,1456.47 2550.71,1447.31 2549.49,1438.16 2548.23,1429.01 2546.94,1419.87 2545.62,1410.73 2544.25,1401.6 2542.86,1392.47 
  2541.42,1383.35 2539.95,1374.23 2538.44,1365.12 2536.9,1356.02 2535.32,1346.92 2533.71,1337.83 2532.06,1328.75 2530.37,1319.67 2528.65,1310.6 2526.89,1301.53 
  2525.1,1292.47 2523.27,1283.42 2521.41,1274.38 2519.51,1265.34 2517.57,1256.31 2515.6,1247.29 2513.59,1238.28 2511.55,1229.28 2509.47,1220.28 2507.35,1211.29 
  2505.21,1202.31 2503.02,1193.34 2500.8,1184.38 2498.54,1175.42 2496.25,1166.48 2493.93,1157.54 2491.56,1148.62 2489.17,1139.7 2486.74,1130.79 2484.27,1121.89 
  2481.77,1113.01 2479.23,1104.13 2476.66,1095.26 2474.05,1086.4 2471.41,1077.55 2468.73,1068.72 2466.02,1059.89 2463.27,1051.07 2460.49,1042.27 2457.67,1033.48 
  2454.82,1024.69 2451.93,1015.92 2449.01,1007.16 2446.06,998.414 2443.07,989.677 2440.04,980.953 2436.98,972.24 2433.89,963.539 2430.76,954.851 2427.6,946.175 
  2424.41,937.512 2421.18,928.861 2417.91,920.224 2414.61,911.599 2411.28,902.987 2407.91,894.388 2404.51,885.803 2401.08,877.231 2397.61,868.673 2394.11,860.129 
  2390.57,851.598 2387.01,843.082 2383.4,834.579 2379.77,826.091 2376.1,817.618 2372.39,809.159 2368.66,800.714 2364.89,792.284 2361.08,783.87 2357.25,775.47 
  2353.38,767.086 2349.48,758.717 2345.54,750.363 2341.57,742.025 2337.57,733.702 2333.54,725.396 2329.47,717.105 2325.37,708.831 2321.24,700.573 2317.07,692.331 
  2312.87,684.106 2308.64,675.897 2304.38,667.705 2300.09,659.53 2295.76,651.372 2291.4,643.231 2287.01,635.107 2282.59,627.001 2278.13,618.912 2273.64,610.841 
  2269.13,602.787 2264.57,594.752 2259.99,586.734 2255.38,578.735 2250.73,570.754 2246.06,562.791 2241.35,554.847 2236.61,546.921 2231.84,539.015 2227.03,531.127 
  2222.2,523.258 2217.34,515.408 2212.44,507.577 2207.51,499.766 2202.56,491.974 2197.57,484.202 2192.55,476.45 2187.5,468.718 2182.42,461.005 2177.31,453.313 
  2172.17,445.64 2167,437.989 2161.8,430.357 2156.57,422.746 2151.31,415.156 2146.02,407.587 2140.7,400.038 2135.35,392.511 2129.97,385.005 2124.56,377.52 
  2119.12,370.056 2113.65,362.614 2108.15,355.194 2102.63,347.795 2097.07,340.419 2091.48,333.064 2085.87,325.731 2080.23,318.421 2074.55,311.132 2068.85,303.867 
  2063.12,296.623 2057.36,289.403 2051.58,282.205 2045.76,275.03 2039.92,267.878 2034.05,260.749 2028.15,253.644 2022.22,246.562 2016.27,239.503 2010.28,232.467 
  2004.27,225.456 1998.23,218.468 1992.17,211.504 1986.07,204.564 1979.95,197.648 1973.8,190.756 1967.63,183.889 1961.43,177.046 1955.2,170.227 1948.94,163.434 
  1942.66,156.664 1936.35,149.92 1930.01,143.201 1923.65,136.506 1917.26,129.837 1910.84,123.193 1904.4,116.575 1897.93,109.982 1891.44,103.414 1884.92,96.8724 
  
  "/>
<polyline clip-path="url(#clip622)" style="stroke:#e26f46; stroke-linecap:round; stroke-linejoin:round; stroke-width:12; stroke-opacity:1; fill:none" points="
  229.703,1751.15 1884.92,96.8724 
  "/>
<polyline clip-path="url(#clip622)" style="stroke:#3da44d; stroke-linecap:round; stroke-linejoin:round; stroke-width:12; stroke-opacity:1; fill:none" points="
  229.703,1751.15 2570.53,1751.15 
  "/>
<polyline clip-path="url(#clip622)" style="stroke:#c271d2; stroke-linecap:round; stroke-linejoin:round; stroke-width:12; stroke-opacity:1; fill:none" points="
  1884.92,1751.15 1884.92,96.8724 
  "/>
</svg>
