<?xml version="1.0" encoding="utf-8"?>
<svg xmlns="http://www.w3.org/2000/svg" xmlns:xlink="http://www.w3.org/1999/xlink" width="672" height="480" viewBox="0 0 2688 1920">
<defs>
  <clipPath id="clip970">
    <rect x="0" y="0" width="2688" height="1920"/>
  </clipPath>
</defs>
<path clip-path="url(#clip970)" d="
M0 1920 L2688 1920 L2688 0 L0 0  Z
  " fill="#ffffff" fill-rule="evenodd" fill-opacity="1"/>
<defs>
  <clipPath id="clip971">
    <rect x="537" y="0" width="1883" height="1883"/>
  </clipPath>
</defs>
<path clip-path="url(#clip970)" d="
M196.816 1800.78 L2640.76 1800.78 L2640.76 47.2441 L196.816 47.2441  Z
  " fill="#ffffff" fill-rule="evenodd" fill-opacity="1"/>
<defs>
  <clipPath id="clip972">
    <rect x="196" y="47" width="2445" height="1755"/>
  </clipPath>
</defs>
<polyline clip-path="url(#clip972)" style="stroke:#000000; stroke-linecap:butt; stroke-linejoin:round; stroke-width:2; stroke-opacity:0.1; fill:none" points="
  265.984,1800.78 265.984,47.2441 
  "/>
<polyline clip-path="url(#clip972)" style="stroke:#000000; stroke-linecap:butt; stroke-linejoin:round; stroke-width:2; stroke-opacity:0.1; fill:none" points="
  842.385,1800.78 842.385,47.2441 
  "/>
<polyline clip-path="url(#clip972)" style="stroke:#000000; stroke-linecap:butt; stroke-linejoin:round; stroke-width:2; stroke-opacity:0.1; fill:none" points="
  1418.79,1800.78 1418.79,47.2441 
  "/>
<polyline clip-path="url(#clip972)" style="stroke:#000000; stroke-linecap:butt; stroke-linejoin:round; stroke-width:2; stroke-opacity:0.1; fill:none" points="
  1995.19,1800.78 1995.19,47.2441 
  "/>
<polyline clip-path="url(#clip972)" style="stroke:#000000; stroke-linecap:butt; stroke-linejoin:round; stroke-width:2; stroke-opacity:0.1; fill:none" points="
  2571.59,1800.78 2571.59,47.2441 
  "/>
<polyline clip-path="url(#clip970)" style="stroke:#000000; stroke-linecap:butt; stroke-linejoin:round; stroke-width:4; stroke-opacity:1; fill:none" points="
  196.816,1800.78 2640.76,1800.78 
  "/>
<polyline clip-path="url(#clip970)" style="stroke:#000000; stroke-linecap:butt; stroke-linejoin:round; stroke-width:4; stroke-opacity:1; fill:none" points="
  265.984,1800.78 265.984,1781.88 
  "/>
<polyline clip-path="url(#clip970)" style="stroke:#000000; stroke-linecap:butt; stroke-linejoin:round; stroke-width:4; stroke-opacity:1; fill:none" points="
  842.385,1800.78 842.385,1781.88 
  "/>
<polyline clip-path="url(#clip970)" style="stroke:#000000; stroke-linecap:butt; stroke-linejoin:round; stroke-width:4; stroke-opacity:1; fill:none" points="
  1418.79,1800.78 1418.79,1781.88 
  "/>
<polyline clip-path="url(#clip970)" style="stroke:#000000; stroke-linecap:butt; stroke-linejoin:round; stroke-width:4; stroke-opacity:1; fill:none" points="
  1995.19,1800.78 1995.19,1781.88 
  "/>
<polyline clip-path="url(#clip970)" style="stroke:#000000; stroke-linecap:butt; stroke-linejoin:round; stroke-width:4; stroke-opacity:1; fill:none" points="
  2571.59,1800.78 2571.59,1781.88 
  "/>
<path clip-path="url(#clip970)" d="M265.984 1834 Q262.373 1834 260.544 1837.57 Q258.739 1841.11 258.739 1848.24 Q258.739 1855.34 260.544 1858.91 Q262.373 1862.45 265.984 1862.45 Q269.618 1862.45 271.424 1858.91 Q273.253 1855.34 273.253 1848.24 Q273.253 1841.11 271.424 1837.57 Q269.618 1834 265.984 1834 M265.984 1830.3 Q271.794 1830.3 274.85 1834.9 Q277.928 1839.49 277.928 1848.24 Q277.928 1856.96 274.85 1861.57 Q271.794 1866.15 265.984 1866.15 Q260.174 1866.15 257.095 1861.57 Q254.04 1856.96 254.04 1848.24 Q254.04 1839.49 257.095 1834.9 Q260.174 1830.3 265.984 1830.3 Z" fill="#000000" fill-rule="evenodd" fill-opacity="1" /><path clip-path="url(#clip970)" d="M832.663 1830.92 L851.019 1830.92 L851.019 1834.86 L836.945 1834.86 L836.945 1843.33 Q837.964 1842.98 838.982 1842.82 Q840.001 1842.64 841.019 1842.64 Q846.806 1842.64 850.186 1845.81 Q853.566 1848.98 853.566 1854.4 Q853.566 1859.97 850.093 1863.08 Q846.621 1866.15 840.302 1866.15 Q838.126 1866.15 835.857 1865.78 Q833.612 1865.41 831.205 1864.67 L831.205 1859.97 Q833.288 1861.11 835.51 1861.66 Q837.732 1862.22 840.209 1862.22 Q844.214 1862.22 846.552 1860.11 Q848.89 1858.01 848.89 1854.4 Q848.89 1850.78 846.552 1848.68 Q844.214 1846.57 840.209 1846.57 Q838.334 1846.57 836.459 1846.99 Q834.607 1847.4 832.663 1848.28 L832.663 1830.92 Z" fill="#000000" fill-rule="evenodd" fill-opacity="1" /><path clip-path="url(#clip970)" d="M1393.47 1861.55 L1401.11 1861.55 L1401.11 1835.18 L1392.8 1836.85 L1392.8 1832.59 L1401.07 1830.92 L1405.74 1830.92 L1405.74 1861.55 L1413.38 1861.55 L1413.38 1865.48 L1393.47 1865.48 L1393.47 1861.55 Z" fill="#000000" fill-rule="evenodd" fill-opacity="1" /><path clip-path="url(#clip970)" d="M1432.83 1834 Q1429.21 1834 1427.39 1837.57 Q1425.58 1841.11 1425.58 1848.24 Q1425.58 1855.34 1427.39 1858.91 Q1429.21 1862.45 1432.83 1862.45 Q1436.46 1862.45 1438.27 1858.91 Q1440.09 1855.34 1440.09 1848.24 Q1440.09 1841.11 1438.27 1837.57 Q1436.46 1834 1432.83 1834 M1432.83 1830.3 Q1438.64 1830.3 1441.69 1834.9 Q1444.77 1839.49 1444.77 1848.24 Q1444.77 1856.96 1441.69 1861.57 Q1438.64 1866.15 1432.83 1866.15 Q1427.02 1866.15 1423.94 1861.57 Q1420.88 1856.96 1420.88 1848.24 Q1420.88 1839.49 1423.94 1834.9 Q1427.02 1830.3 1432.83 1830.3 Z" fill="#000000" fill-rule="evenodd" fill-opacity="1" /><path clip-path="url(#clip970)" d="M1970.37 1861.55 L1978.01 1861.55 L1978.01 1835.18 L1969.7 1836.85 L1969.7 1832.59 L1977.96 1830.92 L1982.64 1830.92 L1982.64 1861.55 L1990.28 1861.55 L1990.28 1865.48 L1970.37 1865.48 L1970.37 1861.55 Z" fill="#000000" fill-rule="evenodd" fill-opacity="1" /><path clip-path="url(#clip970)" d="M1999.77 1830.92 L2018.13 1830.92 L2018.13 1834.86 L2004.05 1834.86 L2004.05 1843.33 Q2005.07 1842.98 2006.09 1842.82 Q2007.11 1842.64 2008.13 1842.64 Q2013.91 1842.64 2017.29 1845.81 Q2020.67 1848.98 2020.67 1854.4 Q2020.67 1859.97 2017.2 1863.08 Q2013.73 1866.15 2007.41 1866.15 Q2005.23 1866.15 2002.96 1865.78 Q2000.72 1865.41 1998.31 1864.67 L1998.31 1859.97 Q2000.4 1861.11 2002.62 1861.66 Q2004.84 1862.22 2007.32 1862.22 Q2011.32 1862.22 2013.66 1860.11 Q2016 1858.01 2016 1854.4 Q2016 1850.78 2013.66 1848.68 Q2011.32 1846.57 2007.32 1846.57 Q2005.44 1846.57 2003.57 1846.99 Q2001.71 1847.4 1999.77 1848.28 L1999.77 1830.92 Z" fill="#000000" fill-rule="evenodd" fill-opacity="1" /><path clip-path="url(#clip970)" d="M2550.36 1861.55 L2566.68 1861.55 L2566.68 1865.48 L2544.74 1865.48 L2544.74 1861.55 Q2547.4 1858.79 2551.98 1854.16 Q2556.59 1849.51 2557.77 1848.17 Q2560.01 1845.65 2560.89 1843.91 Q2561.8 1842.15 2561.8 1840.46 Q2561.8 1837.71 2559.85 1835.97 Q2557.93 1834.23 2554.83 1834.23 Q2552.63 1834.23 2550.18 1835 Q2547.75 1835.76 2544.97 1837.31 L2544.97 1832.59 Q2547.79 1831.46 2550.25 1830.88 Q2552.7 1830.3 2554.74 1830.3 Q2560.11 1830.3 2563.3 1832.98 Q2566.5 1835.67 2566.5 1840.16 Q2566.5 1842.29 2565.69 1844.21 Q2564.9 1846.11 2562.79 1848.7 Q2562.21 1849.37 2559.11 1852.59 Q2556.01 1855.78 2550.36 1861.55 Z" fill="#000000" fill-rule="evenodd" fill-opacity="1" /><path clip-path="url(#clip970)" d="M2586.5 1834 Q2582.88 1834 2581.06 1837.57 Q2579.25 1841.11 2579.25 1848.24 Q2579.25 1855.34 2581.06 1858.91 Q2582.88 1862.45 2586.5 1862.45 Q2590.13 1862.45 2591.93 1858.91 Q2593.76 1855.34 2593.76 1848.24 Q2593.76 1841.11 2591.93 1837.57 Q2590.13 1834 2586.5 1834 M2586.5 1830.3 Q2592.31 1830.3 2595.36 1834.9 Q2598.44 1839.49 2598.44 1848.24 Q2598.44 1856.96 2595.36 1861.57 Q2592.31 1866.15 2586.5 1866.15 Q2580.68 1866.15 2577.61 1861.57 Q2574.55 1856.96 2574.55 1848.24 Q2574.55 1839.49 2577.61 1834.9 Q2580.68 1830.3 2586.5 1830.3 Z" fill="#000000" fill-rule="evenodd" fill-opacity="1" /><polyline clip-path="url(#clip972)" style="stroke:#000000; stroke-linecap:butt; stroke-linejoin:round; stroke-width:2; stroke-opacity:0.1; fill:none" points="
  196.816,1544.37 2640.76,1544.37 
  "/>
<polyline clip-path="url(#clip972)" style="stroke:#000000; stroke-linecap:butt; stroke-linejoin:round; stroke-width:2; stroke-opacity:0.1; fill:none" points="
  196.816,1234.19 2640.76,1234.19 
  "/>
<polyline clip-path="url(#clip972)" style="stroke:#000000; stroke-linecap:butt; stroke-linejoin:round; stroke-width:2; stroke-opacity:0.1; fill:none" points="
  196.816,924.012 2640.76,924.012 
  "/>
<polyline clip-path="url(#clip972)" style="stroke:#000000; stroke-linecap:butt; stroke-linejoin:round; stroke-width:2; stroke-opacity:0.1; fill:none" points="
  196.816,613.834 2640.76,613.834 
  "/>
<polyline clip-path="url(#clip972)" style="stroke:#000000; stroke-linecap:butt; stroke-linejoin:round; stroke-width:2; stroke-opacity:0.1; fill:none" points="
  196.816,303.657 2640.76,303.657 
  "/>
<polyline clip-path="url(#clip970)" style="stroke:#000000; stroke-linecap:butt; stroke-linejoin:round; stroke-width:4; stroke-opacity:1; fill:none" points="
  196.816,1800.78 196.816,47.2441 
  "/>
<polyline clip-path="url(#clip970)" style="stroke:#000000; stroke-linecap:butt; stroke-linejoin:round; stroke-width:4; stroke-opacity:1; fill:none" points="
  196.816,1544.37 215.714,1544.37 
  "/>
<polyline clip-path="url(#clip970)" style="stroke:#000000; stroke-linecap:butt; stroke-linejoin:round; stroke-width:4; stroke-opacity:1; fill:none" points="
  196.816,1234.19 215.714,1234.19 
  "/>
<polyline clip-path="url(#clip970)" style="stroke:#000000; stroke-linecap:butt; stroke-linejoin:round; stroke-width:4; stroke-opacity:1; fill:none" points="
  196.816,924.012 215.714,924.012 
  "/>
<polyline clip-path="url(#clip970)" style="stroke:#000000; stroke-linecap:butt; stroke-linejoin:round; stroke-width:4; stroke-opacity:1; fill:none" points="
  196.816,613.834 215.714,613.834 
  "/>
<polyline clip-path="url(#clip970)" style="stroke:#000000; stroke-linecap:butt; stroke-linejoin:round; stroke-width:4; stroke-opacity:1; fill:none" points="
  196.816,303.657 215.714,303.657 
  "/>
<path clip-path="url(#clip970)" d="M49.5521 1544.82 L79.2279 1544.82 L79.2279 1548.75 L49.5521 1548.75 L49.5521 1544.82 Z" fill="#000000" fill-rule="evenodd" fill-opacity="1" /><path clip-path="url(#clip970)" d="M89.3667 1527.09 L107.723 1527.09 L107.723 1531.02 L93.6491 1531.02 L93.6491 1539.49 Q94.6676 1539.15 95.6861 1538.98 Q96.7047 1538.8 97.7232 1538.8 Q103.51 1538.8 106.89 1541.97 Q110.269 1545.14 110.269 1550.56 Q110.269 1556.14 106.797 1559.24 Q103.325 1562.32 97.0056 1562.32 Q94.8297 1562.32 92.5612 1561.95 Q90.3158 1561.58 87.9084 1560.84 L87.9084 1556.14 Q89.9917 1557.27 92.2139 1557.83 Q94.4361 1558.38 96.913 1558.38 Q100.918 1558.38 103.256 1556.28 Q105.593 1554.17 105.593 1550.56 Q105.593 1546.95 103.256 1544.84 Q100.918 1542.73 96.913 1542.73 Q95.038 1542.73 93.163 1543.15 Q91.3112 1543.57 89.3667 1544.45 L89.3667 1527.09 Z" fill="#000000" fill-rule="evenodd" fill-opacity="1" /><path clip-path="url(#clip970)" d="M119.482 1555.77 L124.367 1555.77 L124.367 1561.65 L119.482 1561.65 L119.482 1555.77 Z" fill="#000000" fill-rule="evenodd" fill-opacity="1" /><path clip-path="url(#clip970)" d="M144.552 1530.16 Q140.941 1530.16 139.112 1533.73 Q137.306 1537.27 137.306 1544.4 Q137.306 1551.51 139.112 1555.07 Q140.941 1558.61 144.552 1558.61 Q148.186 1558.61 149.991 1555.07 Q151.82 1551.51 151.82 1544.4 Q151.82 1537.27 149.991 1533.73 Q148.186 1530.16 144.552 1530.16 M144.552 1526.46 Q150.362 1526.46 153.417 1531.07 Q156.496 1535.65 156.496 1544.4 Q156.496 1553.13 153.417 1557.73 Q150.362 1562.32 144.552 1562.32 Q138.741 1562.32 135.663 1557.73 Q132.607 1553.13 132.607 1544.4 Q132.607 1535.65 135.663 1531.07 Q138.741 1526.46 144.552 1526.46 Z" fill="#000000" fill-rule="evenodd" fill-opacity="1" /><path clip-path="url(#clip970)" d="M50.5475 1234.64 L80.2233 1234.64 L80.2233 1238.58 L50.5475 1238.58 L50.5475 1234.64 Z" fill="#000000" fill-rule="evenodd" fill-opacity="1" /><path clip-path="url(#clip970)" d="M94.3436 1247.53 L110.663 1247.53 L110.663 1251.47 L88.7186 1251.47 L88.7186 1247.53 Q91.3806 1244.78 95.9639 1240.15 Q100.57 1235.5 101.751 1234.15 Q103.996 1231.63 104.876 1229.89 Q105.779 1228.14 105.779 1226.45 Q105.779 1223.69 103.834 1221.96 Q101.913 1220.22 98.8111 1220.22 Q96.6121 1220.22 94.1584 1220.98 Q91.7278 1221.75 88.9501 1223.3 L88.9501 1218.58 Q91.7741 1217.44 94.2278 1216.86 Q96.6815 1216.28 98.7185 1216.28 Q104.089 1216.28 107.283 1218.97 Q110.478 1221.65 110.478 1226.14 Q110.478 1228.27 109.668 1230.2 Q108.881 1232.09 106.774 1234.69 Q106.195 1235.36 103.094 1238.58 Q99.9917 1241.77 94.3436 1247.53 Z" fill="#000000" fill-rule="evenodd" fill-opacity="1" /><path clip-path="url(#clip970)" d="M120.478 1245.59 L125.362 1245.59 L125.362 1251.47 L120.478 1251.47 L120.478 1245.59 Z" fill="#000000" fill-rule="evenodd" fill-opacity="1" /><path clip-path="url(#clip970)" d="M135.593 1216.91 L153.95 1216.91 L153.95 1220.84 L139.876 1220.84 L139.876 1229.32 Q140.894 1228.97 141.913 1228.81 Q142.931 1228.62 143.95 1228.62 Q149.737 1228.62 153.116 1231.79 Q156.496 1234.96 156.496 1240.38 Q156.496 1245.96 153.024 1249.06 Q149.552 1252.14 143.232 1252.14 Q141.056 1252.14 138.788 1251.77 Q136.542 1251.4 134.135 1250.66 L134.135 1245.96 Q136.218 1247.09 138.441 1247.65 Q140.663 1248.21 143.14 1248.21 Q147.144 1248.21 149.482 1246.1 Q151.82 1243.99 151.82 1240.38 Q151.82 1236.77 149.482 1234.66 Q147.144 1232.56 143.14 1232.56 Q141.265 1232.56 139.39 1232.97 Q137.538 1233.39 135.593 1234.27 L135.593 1216.91 Z" fill="#000000" fill-rule="evenodd" fill-opacity="1" /><path clip-path="url(#clip970)" d="M99.3204 909.81 Q95.7093 909.81 93.8806 913.375 Q92.075 916.917 92.075 924.046 Q92.075 931.153 93.8806 934.718 Q95.7093 938.259 99.3204 938.259 Q102.955 938.259 104.76 934.718 Q106.589 931.153 106.589 924.046 Q106.589 916.917 104.76 913.375 Q102.955 909.81 99.3204 909.81 M99.3204 906.107 Q105.131 906.107 108.186 910.713 Q111.265 915.296 111.265 924.046 Q111.265 932.773 108.186 937.38 Q105.131 941.963 99.3204 941.963 Q93.5102 941.963 90.4315 937.38 Q87.376 932.773 87.376 924.046 Q87.376 915.296 90.4315 910.713 Q93.5102 906.107 99.3204 906.107 Z" fill="#000000" fill-rule="evenodd" fill-opacity="1" /><path clip-path="url(#clip970)" d="M119.482 935.412 L124.367 935.412 L124.367 941.292 L119.482 941.292 L119.482 935.412 Z" fill="#000000" fill-rule="evenodd" fill-opacity="1" /><path clip-path="url(#clip970)" d="M144.552 909.81 Q140.941 909.81 139.112 913.375 Q137.306 916.917 137.306 924.046 Q137.306 931.153 139.112 934.718 Q140.941 938.259 144.552 938.259 Q148.186 938.259 149.991 934.718 Q151.82 931.153 151.82 924.046 Q151.82 916.917 149.991 913.375 Q148.186 909.81 144.552 909.81 M144.552 906.107 Q150.362 906.107 153.417 910.713 Q156.496 915.296 156.496 924.046 Q156.496 932.773 153.417 937.38 Q150.362 941.963 144.552 941.963 Q138.741 941.963 135.663 937.38 Q132.607 932.773 132.607 924.046 Q132.607 915.296 135.663 910.713 Q138.741 906.107 144.552 906.107 Z" fill="#000000" fill-rule="evenodd" fill-opacity="1" /><path clip-path="url(#clip970)" d="M94.3436 627.179 L110.663 627.179 L110.663 631.114 L88.7186 631.114 L88.7186 627.179 Q91.3806 624.425 95.9639 619.795 Q100.57 615.142 101.751 613.8 Q103.996 611.277 104.876 609.541 Q105.779 607.781 105.779 606.091 Q105.779 603.337 103.834 601.601 Q101.913 599.865 98.8111 599.865 Q96.6121 599.865 94.1584 600.629 Q91.7278 601.392 88.9501 602.943 L88.9501 598.221 Q91.7741 597.087 94.2278 596.508 Q96.6815 595.929 98.7185 595.929 Q104.089 595.929 107.283 598.615 Q110.478 601.3 110.478 605.791 Q110.478 607.92 109.668 609.841 Q108.881 611.74 106.774 614.332 Q106.195 615.003 103.094 618.221 Q99.9917 621.415 94.3436 627.179 Z" fill="#000000" fill-rule="evenodd" fill-opacity="1" /><path clip-path="url(#clip970)" d="M120.478 625.235 L125.362 625.235 L125.362 631.114 L120.478 631.114 L120.478 625.235 Z" fill="#000000" fill-rule="evenodd" fill-opacity="1" /><path clip-path="url(#clip970)" d="M135.593 596.554 L153.95 596.554 L153.95 600.49 L139.876 600.49 L139.876 608.962 Q140.894 608.615 141.913 608.453 Q142.931 608.267 143.95 608.267 Q149.737 608.267 153.116 611.439 Q156.496 614.61 156.496 620.027 Q156.496 625.605 153.024 628.707 Q149.552 631.786 143.232 631.786 Q141.056 631.786 138.788 631.415 Q136.542 631.045 134.135 630.304 L134.135 625.605 Q136.218 626.74 138.441 627.295 Q140.663 627.851 143.14 627.851 Q147.144 627.851 149.482 625.744 Q151.82 623.638 151.82 620.027 Q151.82 616.415 149.482 614.309 Q147.144 612.203 143.14 612.203 Q141.265 612.203 139.39 612.619 Q137.538 613.036 135.593 613.915 L135.593 596.554 Z" fill="#000000" fill-rule="evenodd" fill-opacity="1" /><path clip-path="url(#clip970)" d="M89.3667 286.377 L107.723 286.377 L107.723 290.312 L93.6491 290.312 L93.6491 298.785 Q94.6676 298.437 95.6861 298.275 Q96.7047 298.09 97.7232 298.09 Q103.51 298.09 106.89 301.261 Q110.269 304.433 110.269 309.849 Q110.269 315.428 106.797 318.53 Q103.325 321.609 97.0056 321.609 Q94.8297 321.609 92.5612 321.238 Q90.3158 320.868 87.9084 320.127 L87.9084 315.428 Q89.9917 316.562 92.2139 317.118 Q94.4361 317.673 96.913 317.673 Q100.918 317.673 103.256 315.567 Q105.593 313.46 105.593 309.849 Q105.593 306.238 103.256 304.132 Q100.918 302.025 96.913 302.025 Q95.038 302.025 93.163 302.442 Q91.3112 302.859 89.3667 303.738 L89.3667 286.377 Z" fill="#000000" fill-rule="evenodd" fill-opacity="1" /><path clip-path="url(#clip970)" d="M119.482 315.058 L124.367 315.058 L124.367 320.937 L119.482 320.937 L119.482 315.058 Z" fill="#000000" fill-rule="evenodd" fill-opacity="1" /><path clip-path="url(#clip970)" d="M144.552 289.456 Q140.941 289.456 139.112 293.021 Q137.306 296.562 137.306 303.692 Q137.306 310.798 139.112 314.363 Q140.941 317.905 144.552 317.905 Q148.186 317.905 149.991 314.363 Q151.82 310.798 151.82 303.692 Q151.82 296.562 149.991 293.021 Q148.186 289.456 144.552 289.456 M144.552 285.752 Q150.362 285.752 153.417 290.359 Q156.496 294.942 156.496 303.692 Q156.496 312.419 153.417 317.025 Q150.362 321.609 144.552 321.609 Q138.741 321.609 135.663 317.025 Q132.607 312.419 132.607 303.692 Q132.607 294.942 135.663 290.359 Q138.741 285.752 144.552 285.752 Z" fill="#000000" fill-rule="evenodd" fill-opacity="1" /><polyline clip-path="url(#clip972)" style="stroke:#009af9; stroke-linecap:butt; stroke-linejoin:round; stroke-width:4; stroke-opacity:1; fill:none" points="
  265.984,96.8724 280.995,107.643 419.791,207.229 503.201,267.077 573.724,317.677 650.331,372.643 720.956,423.317 796.674,477.644 884.4,540.588 962.361,596.525 
  1030.73,645.577 1105.26,699.057 1180.24,752.854 1263.14,812.334 1342.01,868.928 1424.03,927.772 1493.06,977.307 1577.35,1037.78 1654.56,1093.18 1725.87,1144.35 
  1798.11,1196.18 1879.07,1254.26 1952.43,1306.9 2036.42,1367.16 2114.19,1422.96 2190.86,1477.97 2265.3,1531.39 2341.61,1586.14 2425.22,1646.13 2546.67,1733.27 
  2571.59,1751.15 
  "/>
<polyline clip-path="url(#clip972)" style="stroke:#e26f46; stroke-linecap:butt; stroke-linejoin:round; stroke-width:4; stroke-opacity:1; fill:none" points="
  265.984,510.442 280.995,515.827 419.791,565.62 503.201,595.544 573.724,620.844 650.331,648.327 720.956,673.664 796.674,700.828 884.4,732.3 962.361,760.269 
  1030.73,784.794 1105.26,811.534 1180.24,838.433 1263.14,868.173 1342.01,896.47 1424.03,925.892 1493.06,950.659 1577.35,980.897 1654.56,1008.6 1725.87,1034.18 
  1798.11,1060.09 1879.07,1089.14 1952.43,1115.46 2036.42,1145.59 2114.19,1173.49 2190.86,1200.99 2265.3,1227.7 2341.61,1255.08 2425.22,1285.07 2546.67,1328.64 
  2571.59,1337.58 
  "/>
<path clip-path="url(#clip970)" d="
M2235.31 261.215 L2559.29 261.215 L2559.29 105.695 L2235.31 105.695  Z
  " fill="#ffffff" fill-rule="evenodd" fill-opacity="1"/>
<polyline clip-path="url(#clip970)" style="stroke:#000000; stroke-linecap:butt; stroke-linejoin:round; stroke-width:4; stroke-opacity:1; fill:none" points="
  2235.31,261.215 2559.29,261.215 2559.29,105.695 2235.31,105.695 2235.31,261.215 
  "/>
<polyline clip-path="url(#clip970)" style="stroke:#009af9; stroke-linecap:butt; stroke-linejoin:round; stroke-width:4; stroke-opacity:1; fill:none" points="
  2262.47,157.535 2425.4,157.535 
  "/>
<path clip-path="url(#clip970)" d="M2466.39 177.223 Q2464.59 181.852 2462.88 183.264 Q2461.16 184.676 2458.29 184.676 L2454.89 184.676 L2454.89 181.112 L2457.39 181.112 Q2459.15 181.112 2460.12 180.278 Q2461.09 179.445 2462.27 176.343 L2463.04 174.399 L2452.55 148.889 L2457.07 148.889 L2465.17 169.167 L2473.27 148.889 L2477.78 148.889 L2466.39 177.223 Z" fill="#000000" fill-rule="evenodd" fill-opacity="1" /><path clip-path="url(#clip970)" d="M2485.07 170.88 L2492.71 170.88 L2492.71 144.515 L2484.4 146.181 L2484.4 141.922 L2492.67 140.255 L2497.34 140.255 L2497.34 170.88 L2504.98 170.88 L2504.98 174.815 L2485.07 174.815 L2485.07 170.88 Z" fill="#000000" fill-rule="evenodd" fill-opacity="1" /><polyline clip-path="url(#clip970)" style="stroke:#e26f46; stroke-linecap:butt; stroke-linejoin:round; stroke-width:4; stroke-opacity:1; fill:none" points="
  2262.47,209.375 2425.4,209.375 
  "/>
<path clip-path="url(#clip970)" d="M2466.39 229.063 Q2464.59 233.692 2462.88 235.104 Q2461.16 236.516 2458.29 236.516 L2454.89 236.516 L2454.89 232.952 L2457.39 232.952 Q2459.15 232.952 2460.12 232.118 Q2461.09 231.285 2462.27 228.183 L2463.04 226.239 L2452.55 200.729 L2457.07 200.729 L2465.17 221.007 L2473.27 200.729 L2477.78 200.729 L2466.39 229.063 Z" fill="#000000" fill-rule="evenodd" fill-opacity="1" /><path clip-path="url(#clip970)" d="M2488.29 222.72 L2504.61 222.72 L2504.61 226.655 L2482.67 226.655 L2482.67 222.72 Q2485.33 219.965 2489.91 215.336 Q2494.52 210.683 2495.7 209.341 Q2497.94 206.817 2498.82 205.081 Q2499.73 203.322 2499.73 201.632 Q2499.73 198.878 2497.78 197.142 Q2495.86 195.405 2492.76 195.405 Q2490.56 195.405 2488.11 196.169 Q2485.68 196.933 2482.9 198.484 L2482.9 193.762 Q2485.72 192.628 2488.18 192.049 Q2490.63 191.47 2492.67 191.47 Q2498.04 191.47 2501.23 194.155 Q2504.43 196.841 2504.43 201.331 Q2504.43 203.461 2503.62 205.382 Q2502.83 207.28 2500.72 209.873 Q2500.14 210.544 2497.04 213.762 Q2493.94 216.956 2488.29 222.72 Z" fill="#000000" fill-rule="evenodd" fill-opacity="1" /></svg>
