<?xml version="1.0" encoding="utf-8"?>
<svg xmlns="http://www.w3.org/2000/svg" xmlns:xlink="http://www.w3.org/1999/xlink" width="672" height="480" viewBox="0 0 2688 1920">
<defs>
  <clipPath id="clip310">
    <rect x="0" y="0" width="2688" height="1920"/>
  </clipPath>
</defs>
<path clip-path="url(#clip310)" d="
M0 1920 L2688 1920 L2688 0 L0 0  Z
  " fill="#ffffff" fill-rule="evenodd" fill-opacity="1"/>
<defs>
  <clipPath id="clip311">
    <rect x="537" y="0" width="1883" height="1883"/>
  </clipPath>
</defs>
<path clip-path="url(#clip310)" d="
M181.747 1800.78 L2640.76 1800.78 L2640.76 47.2441 L181.747 47.2441  Z
  " fill="#ffffff" fill-rule="evenodd" fill-opacity="1"/>
<defs>
  <clipPath id="clip312">
    <rect x="181" y="47" width="2460" height="1755"/>
  </clipPath>
</defs>
<polyline clip-path="url(#clip312)" style="stroke:#000000; stroke-linecap:butt; stroke-linejoin:round; stroke-width:2; stroke-opacity:0.1; fill:none" points="
  251.341,1800.78 251.341,47.2441 
  "/>
<polyline clip-path="url(#clip312)" style="stroke:#000000; stroke-linecap:butt; stroke-linejoin:round; stroke-width:2; stroke-opacity:0.1; fill:none" points="
  637.978,1800.78 637.978,47.2441 
  "/>
<polyline clip-path="url(#clip312)" style="stroke:#000000; stroke-linecap:butt; stroke-linejoin:round; stroke-width:2; stroke-opacity:0.1; fill:none" points="
  1024.61,1800.78 1024.61,47.2441 
  "/>
<polyline clip-path="url(#clip312)" style="stroke:#000000; stroke-linecap:butt; stroke-linejoin:round; stroke-width:2; stroke-opacity:0.1; fill:none" points="
  1411.25,1800.78 1411.25,47.2441 
  "/>
<polyline clip-path="url(#clip312)" style="stroke:#000000; stroke-linecap:butt; stroke-linejoin:round; stroke-width:2; stroke-opacity:0.1; fill:none" points="
  1797.89,1800.78 1797.89,47.2441 
  "/>
<polyline clip-path="url(#clip312)" style="stroke:#000000; stroke-linecap:butt; stroke-linejoin:round; stroke-width:2; stroke-opacity:0.1; fill:none" points="
  2184.52,1800.78 2184.52,47.2441 
  "/>
<polyline clip-path="url(#clip312)" style="stroke:#000000; stroke-linecap:butt; stroke-linejoin:round; stroke-width:2; stroke-opacity:0.1; fill:none" points="
  2571.16,1800.78 2571.16,47.2441 
  "/>
<polyline clip-path="url(#clip310)" style="stroke:#000000; stroke-linecap:butt; stroke-linejoin:round; stroke-width:4; stroke-opacity:1; fill:none" points="
  181.747,1800.78 2640.76,1800.78 
  "/>
<polyline clip-path="url(#clip310)" style="stroke:#000000; stroke-linecap:butt; stroke-linejoin:round; stroke-width:4; stroke-opacity:1; fill:none" points="
  251.341,1800.78 251.341,1781.88 
  "/>
<polyline clip-path="url(#clip310)" style="stroke:#000000; stroke-linecap:butt; stroke-linejoin:round; stroke-width:4; stroke-opacity:1; fill:none" points="
  637.978,1800.78 637.978,1781.88 
  "/>
<polyline clip-path="url(#clip310)" style="stroke:#000000; stroke-linecap:butt; stroke-linejoin:round; stroke-width:4; stroke-opacity:1; fill:none" points="
  1024.61,1800.78 1024.61,1781.88 
  "/>
<polyline clip-path="url(#clip310)" style="stroke:#000000; stroke-linecap:butt; stroke-linejoin:round; stroke-width:4; stroke-opacity:1; fill:none" points="
  1411.25,1800.78 1411.25,1781.88 
  "/>
<polyline clip-path="url(#clip310)" style="stroke:#000000; stroke-linecap:butt; stroke-linejoin:round; stroke-width:4; stroke-opacity:1; fill:none" points="
  1797.89,1800.78 1797.89,1781.88 
  "/>
<polyline clip-path="url(#clip310)" style="stroke:#000000; stroke-linecap:butt; stroke-linejoin:round; stroke-width:4; stroke-opacity:1; fill:none" points="
  2184.52,1800.78 2184.52,1781.88 
  "/>
<polyline clip-path="url(#clip310)" style="stroke:#000000; stroke-linecap:butt; stroke-linejoin:round; stroke-width:4; stroke-opacity:1; fill:none" points="
  2571.16,1800.78 2571.16,1781.88 
  "/>
<path clip-path="url(#clip310)" d="M251.341 1834 Q247.73 1834 245.901 1837.57 Q244.096 1841.11 244.096 1848.24 Q244.096 1855.34 245.901 1858.91 Q247.73 1862.45 251.341 1862.45 Q254.975 1862.45 256.781 1858.91 Q258.61 1855.34 258.61 1848.24 Q258.61 1841.11 256.781 1837.57 Q254.975 1834 251.341 1834 M251.341 1830.3 Q257.151 1830.3 260.207 1834.9 Q263.286 1839.49 263.286 1848.24 Q263.286 1856.96 260.207 1861.57 Q257.151 1866.15 251.341 1866.15 Q245.531 1866.15 242.452 1861.57 Q239.397 1856.96 239.397 1848.24 Q239.397 1839.49 242.452 1834.9 Q245.531 1830.3 251.341 1830.3 Z" fill="#000000" fill-rule="evenodd" fill-opacity="1" /><path clip-path="url(#clip310)" d="M628.36 1861.55 L635.999 1861.55 L635.999 1835.18 L627.689 1836.85 L627.689 1832.59 L635.952 1830.92 L640.628 1830.92 L640.628 1861.55 L648.267 1861.55 L648.267 1865.48 L628.36 1865.48 L628.36 1861.55 Z" fill="#000000" fill-rule="evenodd" fill-opacity="1" /><path clip-path="url(#clip310)" d="M1019.27 1861.55 L1035.59 1861.55 L1035.59 1865.48 L1013.64 1865.48 L1013.64 1861.55 Q1016.3 1858.79 1020.89 1854.16 Q1025.49 1849.51 1026.67 1848.17 Q1028.92 1845.65 1029.8 1843.91 Q1030.7 1842.15 1030.7 1840.46 Q1030.7 1837.71 1028.76 1835.97 Q1026.84 1834.23 1023.73 1834.23 Q1021.54 1834.23 1019.08 1835 Q1016.65 1835.76 1013.87 1837.31 L1013.87 1832.59 Q1016.7 1831.46 1019.15 1830.88 Q1021.61 1830.3 1023.64 1830.3 Q1029.01 1830.3 1032.21 1832.98 Q1035.4 1835.67 1035.4 1840.16 Q1035.4 1842.29 1034.59 1844.21 Q1033.8 1846.11 1031.7 1848.7 Q1031.12 1849.37 1028.02 1852.59 Q1024.92 1855.78 1019.27 1861.55 Z" fill="#000000" fill-rule="evenodd" fill-opacity="1" /><path clip-path="url(#clip310)" d="M1415.5 1846.85 Q1418.86 1847.57 1420.73 1849.84 Q1422.63 1852.1 1422.63 1855.44 Q1422.63 1860.55 1419.11 1863.35 Q1415.59 1866.15 1409.11 1866.15 Q1406.93 1866.15 1404.62 1865.71 Q1402.33 1865.3 1399.87 1864.44 L1399.87 1859.93 Q1401.82 1861.06 1404.13 1861.64 Q1406.45 1862.22 1408.97 1862.22 Q1413.37 1862.22 1415.66 1860.48 Q1417.98 1858.75 1417.98 1855.44 Q1417.98 1852.38 1415.82 1850.67 Q1413.69 1848.93 1409.87 1848.93 L1405.85 1848.93 L1405.85 1845.09 L1410.06 1845.09 Q1413.51 1845.09 1415.34 1843.72 Q1417.17 1842.34 1417.17 1839.74 Q1417.17 1837.08 1415.27 1835.67 Q1413.39 1834.23 1409.87 1834.23 Q1407.95 1834.23 1405.75 1834.65 Q1403.55 1835.07 1400.92 1835.95 L1400.92 1831.78 Q1403.58 1831.04 1405.89 1830.67 Q1408.23 1830.3 1410.29 1830.3 Q1415.61 1830.3 1418.72 1832.73 Q1421.82 1835.14 1421.82 1839.26 Q1421.82 1842.13 1420.17 1844.12 Q1418.53 1846.09 1415.5 1846.85 Z" fill="#000000" fill-rule="evenodd" fill-opacity="1" /><path clip-path="url(#clip310)" d="M1800.9 1835 L1789.09 1853.45 L1800.9 1853.45 L1800.9 1835 M1799.67 1830.92 L1805.55 1830.92 L1805.55 1853.45 L1810.48 1853.45 L1810.48 1857.34 L1805.55 1857.34 L1805.55 1865.48 L1800.9 1865.48 L1800.9 1857.34 L1785.3 1857.34 L1785.3 1852.82 L1799.67 1830.92 Z" fill="#000000" fill-rule="evenodd" fill-opacity="1" /><path clip-path="url(#clip310)" d="M2174.8 1830.92 L2193.16 1830.92 L2193.16 1834.86 L2179.08 1834.86 L2179.08 1843.33 Q2180.1 1842.98 2181.12 1842.82 Q2182.14 1842.64 2183.16 1842.64 Q2188.95 1842.64 2192.33 1845.81 Q2195.71 1848.98 2195.71 1854.4 Q2195.71 1859.97 2192.23 1863.08 Q2188.76 1866.15 2182.44 1866.15 Q2180.27 1866.15 2178 1865.78 Q2175.75 1865.41 2173.34 1864.67 L2173.34 1859.97 Q2175.43 1861.11 2177.65 1861.66 Q2179.87 1862.22 2182.35 1862.22 Q2186.35 1862.22 2188.69 1860.11 Q2191.03 1858.01 2191.03 1854.4 Q2191.03 1850.78 2188.69 1848.68 Q2186.35 1846.57 2182.35 1846.57 Q2180.47 1846.57 2178.6 1846.99 Q2176.75 1847.4 2174.8 1848.28 L2174.8 1830.92 Z" fill="#000000" fill-rule="evenodd" fill-opacity="1" /><path clip-path="url(#clip310)" d="M2571.57 1846.34 Q2568.42 1846.34 2566.57 1848.49 Q2564.74 1850.65 2564.74 1854.4 Q2564.74 1858.12 2566.57 1860.3 Q2568.42 1862.45 2571.57 1862.45 Q2574.71 1862.45 2576.54 1860.3 Q2578.4 1858.12 2578.4 1854.4 Q2578.4 1850.65 2576.54 1848.49 Q2574.71 1846.34 2571.57 1846.34 M2580.85 1831.69 L2580.85 1835.95 Q2579.09 1835.11 2577.28 1834.67 Q2575.5 1834.23 2573.74 1834.23 Q2569.11 1834.23 2566.66 1837.36 Q2564.23 1840.48 2563.88 1846.8 Q2565.25 1844.79 2567.31 1843.72 Q2569.37 1842.64 2571.84 1842.64 Q2577.05 1842.64 2580.06 1845.81 Q2583.09 1848.96 2583.09 1854.4 Q2583.09 1859.72 2579.95 1862.94 Q2576.8 1866.15 2571.57 1866.15 Q2565.57 1866.15 2562.4 1861.57 Q2559.23 1856.96 2559.23 1848.24 Q2559.23 1840.04 2563.12 1835.18 Q2567.01 1830.3 2573.56 1830.3 Q2575.32 1830.3 2577.1 1830.65 Q2578.9 1830.99 2580.85 1831.69 Z" fill="#000000" fill-rule="evenodd" fill-opacity="1" /><polyline clip-path="url(#clip312)" style="stroke:#000000; stroke-linecap:butt; stroke-linejoin:round; stroke-width:2; stroke-opacity:0.1; fill:none" points="
  181.747,1788.68 2640.76,1788.68 
  "/>
<polyline clip-path="url(#clip312)" style="stroke:#000000; stroke-linecap:butt; stroke-linejoin:round; stroke-width:2; stroke-opacity:0.1; fill:none" points="
  181.747,1450.32 2640.76,1450.32 
  "/>
<polyline clip-path="url(#clip312)" style="stroke:#000000; stroke-linecap:butt; stroke-linejoin:round; stroke-width:2; stroke-opacity:0.1; fill:none" points="
  181.747,1111.96 2640.76,1111.96 
  "/>
<polyline clip-path="url(#clip312)" style="stroke:#000000; stroke-linecap:butt; stroke-linejoin:round; stroke-width:2; stroke-opacity:0.1; fill:none" points="
  181.747,773.597 2640.76,773.597 
  "/>
<polyline clip-path="url(#clip312)" style="stroke:#000000; stroke-linecap:butt; stroke-linejoin:round; stroke-width:2; stroke-opacity:0.1; fill:none" points="
  181.747,435.235 2640.76,435.235 
  "/>
<polyline clip-path="url(#clip312)" style="stroke:#000000; stroke-linecap:butt; stroke-linejoin:round; stroke-width:2; stroke-opacity:0.1; fill:none" points="
  181.747,96.8724 2640.76,96.8724 
  "/>
<polyline clip-path="url(#clip310)" style="stroke:#000000; stroke-linecap:butt; stroke-linejoin:round; stroke-width:4; stroke-opacity:1; fill:none" points="
  181.747,1800.78 181.747,47.2441 
  "/>
<polyline clip-path="url(#clip310)" style="stroke:#000000; stroke-linecap:butt; stroke-linejoin:round; stroke-width:4; stroke-opacity:1; fill:none" points="
  181.747,1788.68 200.644,1788.68 
  "/>
<polyline clip-path="url(#clip310)" style="stroke:#000000; stroke-linecap:butt; stroke-linejoin:round; stroke-width:4; stroke-opacity:1; fill:none" points="
  181.747,1450.32 200.644,1450.32 
  "/>
<polyline clip-path="url(#clip310)" style="stroke:#000000; stroke-linecap:butt; stroke-linejoin:round; stroke-width:4; stroke-opacity:1; fill:none" points="
  181.747,1111.96 200.644,1111.96 
  "/>
<polyline clip-path="url(#clip310)" style="stroke:#000000; stroke-linecap:butt; stroke-linejoin:round; stroke-width:4; stroke-opacity:1; fill:none" points="
  181.747,773.597 200.644,773.597 
  "/>
<polyline clip-path="url(#clip310)" style="stroke:#000000; stroke-linecap:butt; stroke-linejoin:round; stroke-width:4; stroke-opacity:1; fill:none" points="
  181.747,435.235 200.644,435.235 
  "/>
<polyline clip-path="url(#clip310)" style="stroke:#000000; stroke-linecap:butt; stroke-linejoin:round; stroke-width:4; stroke-opacity:1; fill:none" points="
  181.747,96.8724 200.644,96.8724 
  "/>
<path clip-path="url(#clip310)" d="M49.5521 1789.13 L79.2279 1789.13 L79.2279 1793.07 L49.5521 1793.07 L49.5521 1789.13 Z" fill="#000000" fill-rule="evenodd" fill-opacity="1" /><path clip-path="url(#clip310)" d="M89.3667 1771.4 L107.723 1771.4 L107.723 1775.34 L93.6491 1775.34 L93.6491 1783.81 Q94.6676 1783.46 95.6861 1783.3 Q96.7047 1783.12 97.7232 1783.12 Q103.51 1783.12 106.89 1786.29 Q110.269 1789.46 110.269 1794.87 Q110.269 1800.45 106.797 1803.56 Q103.325 1806.63 97.0056 1806.63 Q94.8297 1806.63 92.5612 1806.26 Q90.3158 1805.89 87.9084 1805.15 L87.9084 1800.45 Q89.9917 1801.59 92.2139 1802.14 Q94.4361 1802.7 96.913 1802.7 Q100.918 1802.7 103.256 1800.59 Q105.593 1798.49 105.593 1794.87 Q105.593 1791.26 103.256 1789.16 Q100.918 1787.05 96.913 1787.05 Q95.038 1787.05 93.163 1787.47 Q91.3112 1787.88 89.3667 1788.76 L89.3667 1771.4 Z" fill="#000000" fill-rule="evenodd" fill-opacity="1" /><path clip-path="url(#clip310)" d="M129.482 1774.48 Q125.871 1774.48 124.042 1778.05 Q122.237 1781.59 122.237 1788.72 Q122.237 1795.82 124.042 1799.39 Q125.871 1802.93 129.482 1802.93 Q133.116 1802.93 134.922 1799.39 Q136.751 1795.82 136.751 1788.72 Q136.751 1781.59 134.922 1778.05 Q133.116 1774.48 129.482 1774.48 M129.482 1770.78 Q135.292 1770.78 138.348 1775.38 Q141.427 1779.97 141.427 1788.72 Q141.427 1797.44 138.348 1802.05 Q135.292 1806.63 129.482 1806.63 Q123.672 1806.63 120.593 1802.05 Q117.538 1797.44 117.538 1788.72 Q117.538 1779.97 120.593 1775.38 Q123.672 1770.78 129.482 1770.78 Z" fill="#000000" fill-rule="evenodd" fill-opacity="1" /><path clip-path="url(#clip310)" d="M129.482 1436.12 Q125.871 1436.12 124.042 1439.68 Q122.237 1443.23 122.237 1450.36 Q122.237 1457.46 124.042 1461.03 Q125.871 1464.57 129.482 1464.57 Q133.116 1464.57 134.922 1461.03 Q136.751 1457.46 136.751 1450.36 Q136.751 1443.23 134.922 1439.68 Q133.116 1436.12 129.482 1436.12 M129.482 1432.42 Q135.292 1432.42 138.348 1437.02 Q141.427 1441.61 141.427 1450.36 Q141.427 1459.08 138.348 1463.69 Q135.292 1468.27 129.482 1468.27 Q123.672 1468.27 120.593 1463.69 Q117.538 1459.08 117.538 1450.36 Q117.538 1441.61 120.593 1437.02 Q123.672 1432.42 129.482 1432.42 Z" fill="#000000" fill-rule="evenodd" fill-opacity="1" /><path clip-path="url(#clip310)" d="M89.3667 1094.68 L107.723 1094.68 L107.723 1098.61 L93.6491 1098.61 L93.6491 1107.09 Q94.6676 1106.74 95.6861 1106.58 Q96.7047 1106.39 97.7232 1106.39 Q103.51 1106.39 106.89 1109.56 Q110.269 1112.73 110.269 1118.15 Q110.269 1123.73 106.797 1126.83 Q103.325 1129.91 97.0056 1129.91 Q94.8297 1129.91 92.5612 1129.54 Q90.3158 1129.17 87.9084 1128.43 L87.9084 1123.73 Q89.9917 1124.86 92.2139 1125.42 Q94.4361 1125.97 96.913 1125.97 Q100.918 1125.97 103.256 1123.87 Q105.593 1121.76 105.593 1118.15 Q105.593 1114.54 103.256 1112.43 Q100.918 1110.33 96.913 1110.33 Q95.038 1110.33 93.163 1110.74 Q91.3112 1111.16 89.3667 1112.04 L89.3667 1094.68 Z" fill="#000000" fill-rule="evenodd" fill-opacity="1" /><path clip-path="url(#clip310)" d="M129.482 1097.76 Q125.871 1097.76 124.042 1101.32 Q122.237 1104.86 122.237 1111.99 Q122.237 1119.1 124.042 1122.66 Q125.871 1126.21 129.482 1126.21 Q133.116 1126.21 134.922 1122.66 Q136.751 1119.1 136.751 1111.99 Q136.751 1104.86 134.922 1101.32 Q133.116 1097.76 129.482 1097.76 M129.482 1094.05 Q135.292 1094.05 138.348 1098.66 Q141.427 1103.24 141.427 1111.99 Q141.427 1120.72 138.348 1125.33 Q135.292 1129.91 129.482 1129.91 Q123.672 1129.91 120.593 1125.33 Q117.538 1120.72 117.538 1111.99 Q117.538 1103.24 120.593 1098.66 Q123.672 1094.05 129.482 1094.05 Z" fill="#000000" fill-rule="evenodd" fill-opacity="1" /><path clip-path="url(#clip310)" d="M59.9687 786.941 L67.6076 786.941 L67.6076 760.576 L59.2974 762.242 L59.2974 757.983 L67.5613 756.317 L72.2372 756.317 L72.2372 786.941 L79.876 786.941 L79.876 790.877 L59.9687 790.877 L59.9687 786.941 Z" fill="#000000" fill-rule="evenodd" fill-opacity="1" /><path clip-path="url(#clip310)" d="M99.3204 759.395 Q95.7093 759.395 93.8806 762.96 Q92.075 766.502 92.075 773.631 Q92.075 780.738 93.8806 784.303 Q95.7093 787.844 99.3204 787.844 Q102.955 787.844 104.76 784.303 Q106.589 780.738 106.589 773.631 Q106.589 766.502 104.76 762.96 Q102.955 759.395 99.3204 759.395 M99.3204 755.692 Q105.131 755.692 108.186 760.298 Q111.265 764.881 111.265 773.631 Q111.265 782.358 108.186 786.965 Q105.131 791.548 99.3204 791.548 Q93.5102 791.548 90.4315 786.965 Q87.376 782.358 87.376 773.631 Q87.376 764.881 90.4315 760.298 Q93.5102 755.692 99.3204 755.692 Z" fill="#000000" fill-rule="evenodd" fill-opacity="1" /><path clip-path="url(#clip310)" d="M129.482 759.395 Q125.871 759.395 124.042 762.96 Q122.237 766.502 122.237 773.631 Q122.237 780.738 124.042 784.303 Q125.871 787.844 129.482 787.844 Q133.116 787.844 134.922 784.303 Q136.751 780.738 136.751 773.631 Q136.751 766.502 134.922 762.96 Q133.116 759.395 129.482 759.395 M129.482 755.692 Q135.292 755.692 138.348 760.298 Q141.427 764.881 141.427 773.631 Q141.427 782.358 138.348 786.965 Q135.292 791.548 129.482 791.548 Q123.672 791.548 120.593 786.965 Q117.538 782.358 117.538 773.631 Q117.538 764.881 120.593 760.298 Q123.672 755.692 129.482 755.692 Z" fill="#000000" fill-rule="evenodd" fill-opacity="1" /><path clip-path="url(#clip310)" d="M59.9687 448.579 L67.6076 448.579 L67.6076 422.214 L59.2974 423.88 L59.2974 419.621 L67.5613 417.955 L72.2372 417.955 L72.2372 448.579 L79.876 448.579 L79.876 452.515 L59.9687 452.515 L59.9687 448.579 Z" fill="#000000" fill-rule="evenodd" fill-opacity="1" /><path clip-path="url(#clip310)" d="M89.3667 417.955 L107.723 417.955 L107.723 421.89 L93.6491 421.89 L93.6491 430.362 Q94.6676 430.015 95.6861 429.853 Q96.7047 429.667 97.7232 429.667 Q103.51 429.667 106.89 432.839 Q110.269 436.01 110.269 441.427 Q110.269 447.005 106.797 450.107 Q103.325 453.186 97.0056 453.186 Q94.8297 453.186 92.5612 452.815 Q90.3158 452.445 87.9084 451.704 L87.9084 447.005 Q89.9917 448.14 92.2139 448.695 Q94.4361 449.251 96.913 449.251 Q100.918 449.251 103.256 447.144 Q105.593 445.038 105.593 441.427 Q105.593 437.816 103.256 435.709 Q100.918 433.603 96.913 433.603 Q95.038 433.603 93.163 434.019 Q91.3112 434.436 89.3667 435.316 L89.3667 417.955 Z" fill="#000000" fill-rule="evenodd" fill-opacity="1" /><path clip-path="url(#clip310)" d="M129.482 421.033 Q125.871 421.033 124.042 424.598 Q122.237 428.14 122.237 435.269 Q122.237 442.376 124.042 445.94 Q125.871 449.482 129.482 449.482 Q133.116 449.482 134.922 445.94 Q136.751 442.376 136.751 435.269 Q136.751 428.14 134.922 424.598 Q133.116 421.033 129.482 421.033 M129.482 417.33 Q135.292 417.33 138.348 421.936 Q141.427 426.519 141.427 435.269 Q141.427 443.996 138.348 448.603 Q135.292 453.186 129.482 453.186 Q123.672 453.186 120.593 448.603 Q117.538 443.996 117.538 435.269 Q117.538 426.519 120.593 421.936 Q123.672 417.33 129.482 417.33 Z" fill="#000000" fill-rule="evenodd" fill-opacity="1" /><path clip-path="url(#clip310)" d="M63.1863 110.217 L79.5057 110.217 L79.5057 114.152 L57.5613 114.152 L57.5613 110.217 Q60.2234 107.463 64.8067 102.833 Q69.4131 98.1803 70.5937 96.8377 Q72.839 94.3146 73.7187 92.5785 Q74.6214 90.8192 74.6214 89.1294 Q74.6214 86.3748 72.677 84.6387 Q70.7557 82.9026 67.6539 82.9026 Q65.4548 82.9026 63.0011 83.6665 Q60.5706 84.4304 57.7928 85.9813 L57.7928 81.2591 Q60.6169 80.1249 63.0706 79.5462 Q65.5243 78.9675 67.5613 78.9675 Q72.9316 78.9675 76.1261 81.6526 Q79.3205 84.3378 79.3205 88.8285 Q79.3205 90.9581 78.5103 92.8794 Q77.7233 94.7776 75.6168 97.3701 Q75.0381 98.0414 71.9363 101.259 Q68.8344 104.453 63.1863 110.217 Z" fill="#000000" fill-rule="evenodd" fill-opacity="1" /><path clip-path="url(#clip310)" d="M99.3204 82.6711 Q95.7093 82.6711 93.8806 86.2359 Q92.075 89.7776 92.075 96.9072 Q92.075 104.014 93.8806 107.578 Q95.7093 111.12 99.3204 111.12 Q102.955 111.12 104.76 107.578 Q106.589 104.014 106.589 96.9072 Q106.589 89.7776 104.76 86.2359 Q102.955 82.6711 99.3204 82.6711 M99.3204 78.9675 Q105.131 78.9675 108.186 83.5739 Q111.265 88.1572 111.265 96.9072 Q111.265 105.634 108.186 110.24 Q105.131 114.824 99.3204 114.824 Q93.5102 114.824 90.4315 110.24 Q87.376 105.634 87.376 96.9072 Q87.376 88.1572 90.4315 83.5739 Q93.5102 78.9675 99.3204 78.9675 Z" fill="#000000" fill-rule="evenodd" fill-opacity="1" /><path clip-path="url(#clip310)" d="M129.482 82.6711 Q125.871 82.6711 124.042 86.2359 Q122.237 89.7776 122.237 96.9072 Q122.237 104.014 124.042 107.578 Q125.871 111.12 129.482 111.12 Q133.116 111.12 134.922 107.578 Q136.751 104.014 136.751 96.9072 Q136.751 89.7776 134.922 86.2359 Q133.116 82.6711 129.482 82.6711 M129.482 78.9675 Q135.292 78.9675 138.348 83.5739 Q141.427 88.1572 141.427 96.9072 Q141.427 105.634 138.348 110.24 Q135.292 114.824 129.482 114.824 Q123.672 114.824 120.593 110.24 Q117.538 105.634 117.538 96.9072 Q117.538 88.1572 120.593 83.5739 Q123.672 78.9675 129.482 78.9675 Z" fill="#000000" fill-rule="evenodd" fill-opacity="1" /><polyline clip-path="url(#clip312)" style="stroke:#009af9; stroke-linecap:butt; stroke-linejoin:round; stroke-width:16; stroke-opacity:1; fill:none" points="
  251.341,96.8724 255.117,101.092 258.893,105.29 262.669,109.469 266.445,113.627 301.357,151.126 336.27,186.97 371.183,221.232 406.096,253.981 427.078,272.962 
  448.059,291.436 469.04,309.414 490.021,326.912 525.5,355.44 560.979,382.69 599.518,410.907 638.058,437.753 673.589,461.344 709.119,483.877 747.211,506.911 
  785.303,528.837 829.437,552.927 873.571,575.681 912.791,594.84 952.012,613.051 986.405,628.278 1020.8,642.843 1058.3,658.002 1095.79,672.442 1133.51,686.28 
  1171.23,699.458 1212.94,713.299 1254.64,726.414 1294.33,738.252 1334.01,749.498 1416.52,771.116 1485.99,787.608 1570.79,805.835 1648.48,820.865 1720.23,833.467 
  1792.91,845.095 1874.37,856.891 1948.18,866.558 2032.69,876.551 2110.94,884.878 2188.08,892.303 2262.98,898.837 2339.76,904.909 2423.89,910.906 2546.09,918.532 
  2571.16,919.953 
  "/>
<polyline clip-path="url(#clip312)" style="stroke:#e26f46; stroke-linecap:butt; stroke-linejoin:round; stroke-width:4; stroke-opacity:1; fill:none" points="
  251.341,175.008 266.445,185.269 406.096,280.152 490.021,337.173 560.979,385.383 638.058,437.753 709.119,486.033 785.303,537.795 873.571,597.766 952.012,651.061 
  1020.8,697.796 1095.79,748.75 1171.23,800.006 1254.64,856.677 1334.01,910.597 1416.52,966.662 1485.99,1013.86 1570.79,1071.48 1648.48,1124.26 1720.23,1173.01 
  1792.91,1222.39 1874.37,1277.73 1948.18,1327.88 2032.69,1385.3 2110.94,1438.46 2188.08,1490.88 2262.98,1541.77 2339.76,1593.93 2423.89,1651.09 2546.09,1734.12 
  2571.16,1751.15 
  "/>
<polyline clip-path="url(#clip312)" style="stroke:#3da44d; stroke-linecap:butt; stroke-linejoin:round; stroke-width:4; stroke-opacity:1; fill:none" points="
  251.341,479.887 266.445,483.662 406.096,518.568 490.021,539.544 560.979,557.28 638.058,576.546 709.119,594.307 785.303,613.349 873.571,635.411 952.012,655.017 
  1020.8,672.21 1095.79,690.955 1171.23,709.811 1254.64,730.659 1334.01,750.495 1416.52,771.121 1485.99,788.483 1570.79,809.68 1648.48,829.097 1720.23,847.031 
  1792.91,865.198 1874.37,885.557 1948.18,904.006 2032.69,925.129 2110.94,944.687 2188.08,963.969 2262.98,982.69 2339.76,1001.88 2423.89,1022.91 2546.09,1053.45 
  2571.16,1059.72 
  "/>
<polyline clip-path="url(#clip312)" style="stroke:#c271d2; stroke-linecap:butt; stroke-linejoin:round; stroke-width:4; stroke-opacity:1; fill:none" points="
  251.341,714.22 266.445,715.609 406.096,728.45 490.021,736.167 560.979,742.691 638.058,749.779 709.119,756.313 785.303,763.318 873.571,771.434 952.012,778.647 
  1020.8,784.972 1095.79,791.868 1171.23,798.805 1254.64,806.474 1334.01,813.772 1416.52,821.359 1485.99,827.746 1570.79,835.544 1648.48,842.688 1720.23,849.285 
  1792.91,855.968 1874.37,863.458 1948.18,870.245 2032.69,878.016 2110.94,885.211 2188.08,892.304 2262.98,899.191 2339.76,906.251 2423.89,913.986 2546.09,925.223 
  2571.16,927.528 
  "/>
</svg>
