<?xml version="1.0" encoding="utf-8"?>
<svg xmlns="http://www.w3.org/2000/svg" xmlns:xlink="http://www.w3.org/1999/xlink" width="672" height="480" viewBox="0 0 2688 1920">
<defs>
  <clipPath id="clip870">
    <rect x="0" y="0" width="2688" height="1920"/>
  </clipPath>
</defs>
<path clip-path="url(#clip870)" d="
M0 1920 L2688 1920 L2688 0 L0 0  Z
  " fill="#ffffff" fill-rule="evenodd" fill-opacity="1"/>
<defs>
  <clipPath id="clip871">
    <rect x="537" y="0" width="1883" height="1883"/>
  </clipPath>
</defs>
<path clip-path="url(#clip870)" d="
M173.737 1800.78 L2640.76 1800.78 L2640.76 47.2441 L173.737 47.2441  Z
  " fill="#ffffff" fill-rule="evenodd" fill-opacity="1"/>
<defs>
  <clipPath id="clip872">
    <rect x="173" y="47" width="2468" height="1755"/>
  </clipPath>
</defs>
<polyline clip-path="url(#clip872)" style="stroke:#000000; stroke-linecap:butt; stroke-linejoin:round; stroke-width:2; stroke-opacity:0.1; fill:none" points="
  243.559,1800.78 243.559,47.2441 
  "/>
<polyline clip-path="url(#clip872)" style="stroke:#000000; stroke-linecap:butt; stroke-linejoin:round; stroke-width:2; stroke-opacity:0.1; fill:none" points="
  655.13,1800.78 655.13,47.2441 
  "/>
<polyline clip-path="url(#clip872)" style="stroke:#000000; stroke-linecap:butt; stroke-linejoin:round; stroke-width:2; stroke-opacity:0.1; fill:none" points="
  1066.7,1800.78 1066.7,47.2441 
  "/>
<polyline clip-path="url(#clip872)" style="stroke:#000000; stroke-linecap:butt; stroke-linejoin:round; stroke-width:2; stroke-opacity:0.1; fill:none" points="
  1478.27,1800.78 1478.27,47.2441 
  "/>
<polyline clip-path="url(#clip872)" style="stroke:#000000; stroke-linecap:butt; stroke-linejoin:round; stroke-width:2; stroke-opacity:0.1; fill:none" points="
  1889.84,1800.78 1889.84,47.2441 
  "/>
<polyline clip-path="url(#clip872)" style="stroke:#000000; stroke-linecap:butt; stroke-linejoin:round; stroke-width:2; stroke-opacity:0.1; fill:none" points="
  2301.42,1800.78 2301.42,47.2441 
  "/>
<polyline clip-path="url(#clip870)" style="stroke:#000000; stroke-linecap:butt; stroke-linejoin:round; stroke-width:4; stroke-opacity:1; fill:none" points="
  173.737,1800.78 2640.76,1800.78 
  "/>
<polyline clip-path="url(#clip870)" style="stroke:#000000; stroke-linecap:butt; stroke-linejoin:round; stroke-width:4; stroke-opacity:1; fill:none" points="
  243.559,1800.78 243.559,1781.88 
  "/>
<polyline clip-path="url(#clip870)" style="stroke:#000000; stroke-linecap:butt; stroke-linejoin:round; stroke-width:4; stroke-opacity:1; fill:none" points="
  655.13,1800.78 655.13,1781.88 
  "/>
<polyline clip-path="url(#clip870)" style="stroke:#000000; stroke-linecap:butt; stroke-linejoin:round; stroke-width:4; stroke-opacity:1; fill:none" points="
  1066.7,1800.78 1066.7,1781.88 
  "/>
<polyline clip-path="url(#clip870)" style="stroke:#000000; stroke-linecap:butt; stroke-linejoin:round; stroke-width:4; stroke-opacity:1; fill:none" points="
  1478.27,1800.78 1478.27,1781.88 
  "/>
<polyline clip-path="url(#clip870)" style="stroke:#000000; stroke-linecap:butt; stroke-linejoin:round; stroke-width:4; stroke-opacity:1; fill:none" points="
  1889.84,1800.78 1889.84,1781.88 
  "/>
<polyline clip-path="url(#clip870)" style="stroke:#000000; stroke-linecap:butt; stroke-linejoin:round; stroke-width:4; stroke-opacity:1; fill:none" points="
  2301.42,1800.78 2301.42,1781.88 
  "/>
<path clip-path="url(#clip870)" d="M243.559 1834 Q239.948 1834 238.119 1837.57 Q236.313 1841.11 236.313 1848.24 Q236.313 1855.34 238.119 1858.91 Q239.948 1862.45 243.559 1862.45 Q247.193 1862.45 248.998 1858.91 Q250.827 1855.34 250.827 1848.24 Q250.827 1841.11 248.998 1837.57 Q247.193 1834 243.559 1834 M243.559 1830.3 Q249.369 1830.3 252.424 1834.9 Q255.503 1839.49 255.503 1848.24 Q255.503 1856.96 252.424 1861.57 Q249.369 1866.15 243.559 1866.15 Q237.749 1866.15 234.67 1861.57 Q231.614 1856.96 231.614 1848.24 Q231.614 1839.49 234.67 1834.9 Q237.749 1830.3 243.559 1830.3 Z" fill="#000000" fill-rule="evenodd" fill-opacity="1" /><path clip-path="url(#clip870)" d="M629.829 1830.92 L648.186 1830.92 L648.186 1834.86 L634.112 1834.86 L634.112 1843.33 Q635.13 1842.98 636.149 1842.82 Q637.167 1842.64 638.186 1842.64 Q643.973 1842.64 647.352 1845.81 Q650.732 1848.98 650.732 1854.4 Q650.732 1859.97 647.26 1863.08 Q643.788 1866.15 637.468 1866.15 Q635.292 1866.15 633.024 1865.78 Q630.778 1865.41 628.371 1864.67 L628.371 1859.97 Q630.454 1861.11 632.676 1861.66 Q634.899 1862.22 637.375 1862.22 Q641.38 1862.22 643.718 1860.11 Q646.056 1858.01 646.056 1854.4 Q646.056 1850.78 643.718 1848.68 Q641.38 1846.57 637.375 1846.57 Q635.501 1846.57 633.626 1846.99 Q631.774 1847.4 629.829 1848.28 L629.829 1830.92 Z" fill="#000000" fill-rule="evenodd" fill-opacity="1" /><path clip-path="url(#clip870)" d="M669.945 1834 Q666.334 1834 664.505 1837.57 Q662.699 1841.11 662.699 1848.24 Q662.699 1855.34 664.505 1858.91 Q666.334 1862.45 669.945 1862.45 Q673.579 1862.45 675.385 1858.91 Q677.213 1855.34 677.213 1848.24 Q677.213 1841.11 675.385 1837.57 Q673.579 1834 669.945 1834 M669.945 1830.3 Q675.755 1830.3 678.81 1834.9 Q681.889 1839.49 681.889 1848.24 Q681.889 1856.96 678.81 1861.57 Q675.755 1866.15 669.945 1866.15 Q664.135 1866.15 661.056 1861.57 Q658 1856.96 658 1848.24 Q658 1839.49 661.056 1834.9 Q664.135 1830.3 669.945 1830.3 Z" fill="#000000" fill-rule="evenodd" fill-opacity="1" /><path clip-path="url(#clip870)" d="M1026.31 1861.55 L1033.95 1861.55 L1033.95 1835.18 L1025.64 1836.85 L1025.64 1832.59 L1033.9 1830.92 L1038.58 1830.92 L1038.58 1861.55 L1046.22 1861.55 L1046.22 1865.48 L1026.31 1865.48 L1026.31 1861.55 Z" fill="#000000" fill-rule="evenodd" fill-opacity="1" /><path clip-path="url(#clip870)" d="M1065.66 1834 Q1062.05 1834 1060.22 1837.57 Q1058.41 1841.11 1058.41 1848.24 Q1058.41 1855.34 1060.22 1858.91 Q1062.05 1862.45 1065.66 1862.45 Q1069.29 1862.45 1071.1 1858.91 Q1072.93 1855.34 1072.93 1848.24 Q1072.93 1841.11 1071.1 1837.57 Q1069.29 1834 1065.66 1834 M1065.66 1830.3 Q1071.47 1830.3 1074.53 1834.9 Q1077.6 1839.49 1077.6 1848.24 Q1077.6 1856.96 1074.53 1861.57 Q1071.47 1866.15 1065.66 1866.15 Q1059.85 1866.15 1056.77 1861.57 Q1053.72 1856.96 1053.72 1848.24 Q1053.72 1839.49 1056.77 1834.9 Q1059.85 1830.3 1065.66 1830.3 Z" fill="#000000" fill-rule="evenodd" fill-opacity="1" /><path clip-path="url(#clip870)" d="M1095.82 1834 Q1092.21 1834 1090.38 1837.57 Q1088.58 1841.11 1088.58 1848.24 Q1088.58 1855.34 1090.38 1858.91 Q1092.21 1862.45 1095.82 1862.45 Q1099.46 1862.45 1101.26 1858.91 Q1103.09 1855.34 1103.09 1848.24 Q1103.09 1841.11 1101.26 1837.57 Q1099.46 1834 1095.82 1834 M1095.82 1830.3 Q1101.63 1830.3 1104.69 1834.9 Q1107.77 1839.49 1107.77 1848.24 Q1107.77 1856.96 1104.69 1861.57 Q1101.63 1866.15 1095.82 1866.15 Q1090.01 1866.15 1086.93 1861.57 Q1083.88 1856.96 1083.88 1848.24 Q1083.88 1839.49 1086.93 1834.9 Q1090.01 1830.3 1095.82 1830.3 Z" fill="#000000" fill-rule="evenodd" fill-opacity="1" /><path clip-path="url(#clip870)" d="M1437.88 1861.55 L1445.52 1861.55 L1445.52 1835.18 L1437.21 1836.85 L1437.21 1832.59 L1445.47 1830.92 L1450.15 1830.92 L1450.15 1861.55 L1457.79 1861.55 L1457.79 1865.48 L1437.88 1865.48 L1437.88 1861.55 Z" fill="#000000" fill-rule="evenodd" fill-opacity="1" /><path clip-path="url(#clip870)" d="M1467.28 1830.92 L1485.63 1830.92 L1485.63 1834.86 L1471.56 1834.86 L1471.56 1843.33 Q1472.58 1842.98 1473.6 1842.82 Q1474.62 1842.64 1475.63 1842.64 Q1481.42 1842.64 1484.8 1845.81 Q1488.18 1848.98 1488.18 1854.4 Q1488.18 1859.97 1484.71 1863.08 Q1481.24 1866.15 1474.92 1866.15 Q1472.74 1866.15 1470.47 1865.78 Q1468.23 1865.41 1465.82 1864.67 L1465.82 1859.97 Q1467.9 1861.11 1470.12 1861.66 Q1472.35 1862.22 1474.82 1862.22 Q1478.83 1862.22 1481.17 1860.11 Q1483.5 1858.01 1483.5 1854.4 Q1483.5 1850.78 1481.17 1848.68 Q1478.83 1846.57 1474.82 1846.57 Q1472.95 1846.57 1471.07 1846.99 Q1469.22 1847.4 1467.28 1848.28 L1467.28 1830.92 Z" fill="#000000" fill-rule="evenodd" fill-opacity="1" /><path clip-path="url(#clip870)" d="M1507.39 1834 Q1503.78 1834 1501.95 1837.57 Q1500.15 1841.11 1500.15 1848.24 Q1500.15 1855.34 1501.95 1858.91 Q1503.78 1862.45 1507.39 1862.45 Q1511.03 1862.45 1512.83 1858.91 Q1514.66 1855.34 1514.66 1848.24 Q1514.66 1841.11 1512.83 1837.57 Q1511.03 1834 1507.39 1834 M1507.39 1830.3 Q1513.2 1830.3 1516.26 1834.9 Q1519.34 1839.49 1519.34 1848.24 Q1519.34 1856.96 1516.26 1861.57 Q1513.2 1866.15 1507.39 1866.15 Q1501.58 1866.15 1498.5 1861.57 Q1495.45 1856.96 1495.45 1848.24 Q1495.45 1839.49 1498.5 1834.9 Q1501.58 1830.3 1507.39 1830.3 Z" fill="#000000" fill-rule="evenodd" fill-opacity="1" /><path clip-path="url(#clip870)" d="M1853.54 1861.55 L1869.86 1861.55 L1869.86 1865.48 L1847.91 1865.48 L1847.91 1861.55 Q1850.57 1858.79 1855.16 1854.16 Q1859.76 1849.51 1860.94 1848.17 Q1863.19 1845.65 1864.07 1843.91 Q1864.97 1842.15 1864.97 1840.46 Q1864.97 1837.71 1863.03 1835.97 Q1861.11 1834.23 1858 1834.23 Q1855.8 1834.23 1853.35 1835 Q1850.92 1835.76 1848.14 1837.31 L1848.14 1832.59 Q1850.97 1831.46 1853.42 1830.88 Q1855.87 1830.3 1857.91 1830.3 Q1863.28 1830.3 1866.48 1832.98 Q1869.67 1835.67 1869.67 1840.16 Q1869.67 1842.29 1868.86 1844.21 Q1868.07 1846.11 1865.97 1848.7 Q1865.39 1849.37 1862.29 1852.59 Q1859.18 1855.78 1853.54 1861.55 Z" fill="#000000" fill-rule="evenodd" fill-opacity="1" /><path clip-path="url(#clip870)" d="M1889.67 1834 Q1886.06 1834 1884.23 1837.57 Q1882.43 1841.11 1882.43 1848.24 Q1882.43 1855.34 1884.23 1858.91 Q1886.06 1862.45 1889.67 1862.45 Q1893.3 1862.45 1895.11 1858.91 Q1896.94 1855.34 1896.94 1848.24 Q1896.94 1841.11 1895.11 1837.57 Q1893.3 1834 1889.67 1834 M1889.67 1830.3 Q1895.48 1830.3 1898.54 1834.9 Q1901.61 1839.49 1901.61 1848.24 Q1901.61 1856.96 1898.54 1861.57 Q1895.48 1866.15 1889.67 1866.15 Q1883.86 1866.15 1880.78 1861.57 Q1877.73 1856.96 1877.73 1848.24 Q1877.73 1839.49 1880.78 1834.9 Q1883.86 1830.3 1889.67 1830.3 Z" fill="#000000" fill-rule="evenodd" fill-opacity="1" /><path clip-path="url(#clip870)" d="M1919.83 1834 Q1916.22 1834 1914.39 1837.57 Q1912.59 1841.11 1912.59 1848.24 Q1912.59 1855.34 1914.39 1858.91 Q1916.22 1862.45 1919.83 1862.45 Q1923.47 1862.45 1925.27 1858.91 Q1927.1 1855.34 1927.1 1848.24 Q1927.1 1841.11 1925.27 1837.57 Q1923.47 1834 1919.83 1834 M1919.83 1830.3 Q1925.64 1830.3 1928.7 1834.9 Q1931.78 1839.49 1931.78 1848.24 Q1931.78 1856.96 1928.7 1861.57 Q1925.64 1866.15 1919.83 1866.15 Q1914.02 1866.15 1910.94 1861.57 Q1907.89 1856.96 1907.89 1848.24 Q1907.89 1839.49 1910.94 1834.9 Q1914.02 1830.3 1919.83 1830.3 Z" fill="#000000" fill-rule="evenodd" fill-opacity="1" /><path clip-path="url(#clip870)" d="M2265.11 1861.55 L2281.43 1861.55 L2281.43 1865.48 L2259.48 1865.48 L2259.48 1861.55 Q2262.14 1858.79 2266.73 1854.16 Q2271.33 1849.51 2272.52 1848.17 Q2274.76 1845.65 2275.64 1843.91 Q2276.54 1842.15 2276.54 1840.46 Q2276.54 1837.71 2274.6 1835.97 Q2272.68 1834.23 2269.58 1834.23 Q2267.38 1834.23 2264.92 1835 Q2262.49 1835.76 2259.71 1837.31 L2259.71 1832.59 Q2262.54 1831.46 2264.99 1830.88 Q2267.45 1830.3 2269.48 1830.3 Q2274.85 1830.3 2278.05 1832.98 Q2281.24 1835.67 2281.24 1840.16 Q2281.24 1842.29 2280.43 1844.21 Q2279.64 1846.11 2277.54 1848.7 Q2276.96 1849.37 2273.86 1852.59 Q2270.76 1855.78 2265.11 1861.55 Z" fill="#000000" fill-rule="evenodd" fill-opacity="1" /><path clip-path="url(#clip870)" d="M2291.29 1830.92 L2309.64 1830.92 L2309.64 1834.86 L2295.57 1834.86 L2295.57 1843.33 Q2296.59 1842.98 2297.61 1842.82 Q2298.63 1842.64 2299.64 1842.64 Q2305.43 1842.64 2308.81 1845.81 Q2312.19 1848.98 2312.19 1854.4 Q2312.19 1859.97 2308.72 1863.08 Q2305.25 1866.15 2298.93 1866.15 Q2296.75 1866.15 2294.48 1865.78 Q2292.24 1865.41 2289.83 1864.67 L2289.83 1859.97 Q2291.91 1861.11 2294.14 1861.66 Q2296.36 1862.22 2298.83 1862.22 Q2302.84 1862.22 2305.18 1860.11 Q2307.51 1858.01 2307.51 1854.4 Q2307.51 1850.78 2305.18 1848.68 Q2302.84 1846.57 2298.83 1846.57 Q2296.96 1846.57 2295.08 1846.99 Q2293.23 1847.4 2291.29 1848.28 L2291.29 1830.92 Z" fill="#000000" fill-rule="evenodd" fill-opacity="1" /><path clip-path="url(#clip870)" d="M2331.4 1834 Q2327.79 1834 2325.96 1837.57 Q2324.16 1841.11 2324.16 1848.24 Q2324.16 1855.34 2325.96 1858.91 Q2327.79 1862.45 2331.4 1862.45 Q2335.04 1862.45 2336.84 1858.91 Q2338.67 1855.34 2338.67 1848.24 Q2338.67 1841.11 2336.84 1837.57 Q2335.04 1834 2331.4 1834 M2331.4 1830.3 Q2337.21 1830.3 2340.27 1834.9 Q2343.35 1839.49 2343.35 1848.24 Q2343.35 1856.96 2340.27 1861.57 Q2337.21 1866.15 2331.4 1866.15 Q2325.59 1866.15 2322.51 1861.57 Q2319.46 1856.96 2319.46 1848.24 Q2319.46 1839.49 2322.51 1834.9 Q2325.59 1830.3 2331.4 1830.3 Z" fill="#000000" fill-rule="evenodd" fill-opacity="1" /><polyline clip-path="url(#clip872)" style="stroke:#000000; stroke-linecap:butt; stroke-linejoin:round; stroke-width:2; stroke-opacity:0.1; fill:none" points="
  173.737,1751.15 2640.76,1751.15 
  "/>
<polyline clip-path="url(#clip872)" style="stroke:#000000; stroke-linecap:butt; stroke-linejoin:round; stroke-width:2; stroke-opacity:0.1; fill:none" points="
  173.737,1338.15 2640.76,1338.15 
  "/>
<polyline clip-path="url(#clip872)" style="stroke:#000000; stroke-linecap:butt; stroke-linejoin:round; stroke-width:2; stroke-opacity:0.1; fill:none" points="
  173.737,925.144 2640.76,925.144 
  "/>
<polyline clip-path="url(#clip872)" style="stroke:#000000; stroke-linecap:butt; stroke-linejoin:round; stroke-width:2; stroke-opacity:0.1; fill:none" points="
  173.737,512.141 2640.76,512.141 
  "/>
<polyline clip-path="url(#clip872)" style="stroke:#000000; stroke-linecap:butt; stroke-linejoin:round; stroke-width:2; stroke-opacity:0.1; fill:none" points="
  173.737,99.1378 2640.76,99.1378 
  "/>
<polyline clip-path="url(#clip870)" style="stroke:#000000; stroke-linecap:butt; stroke-linejoin:round; stroke-width:4; stroke-opacity:1; fill:none" points="
  173.737,1800.78 173.737,47.2441 
  "/>
<polyline clip-path="url(#clip870)" style="stroke:#000000; stroke-linecap:butt; stroke-linejoin:round; stroke-width:4; stroke-opacity:1; fill:none" points="
  173.737,1751.15 192.635,1751.15 
  "/>
<polyline clip-path="url(#clip870)" style="stroke:#000000; stroke-linecap:butt; stroke-linejoin:round; stroke-width:4; stroke-opacity:1; fill:none" points="
  173.737,1338.15 192.635,1338.15 
  "/>
<polyline clip-path="url(#clip870)" style="stroke:#000000; stroke-linecap:butt; stroke-linejoin:round; stroke-width:4; stroke-opacity:1; fill:none" points="
  173.737,925.144 192.635,925.144 
  "/>
<polyline clip-path="url(#clip870)" style="stroke:#000000; stroke-linecap:butt; stroke-linejoin:round; stroke-width:4; stroke-opacity:1; fill:none" points="
  173.737,512.141 192.635,512.141 
  "/>
<polyline clip-path="url(#clip870)" style="stroke:#000000; stroke-linecap:butt; stroke-linejoin:round; stroke-width:4; stroke-opacity:1; fill:none" points="
  173.737,99.1378 192.635,99.1378 
  "/>
<path clip-path="url(#clip870)" d="M121.473 1736.95 Q117.862 1736.95 116.033 1740.51 Q114.228 1744.06 114.228 1751.19 Q114.228 1758.29 116.033 1761.86 Q117.862 1765.4 121.473 1765.4 Q125.107 1765.4 126.913 1761.86 Q128.742 1758.29 128.742 1751.19 Q128.742 1744.06 126.913 1740.51 Q125.107 1736.95 121.473 1736.95 M121.473 1733.25 Q127.283 1733.25 130.339 1737.85 Q133.417 1742.44 133.417 1751.19 Q133.417 1759.91 130.339 1764.52 Q127.283 1769.1 121.473 1769.1 Q115.663 1769.1 112.584 1764.52 Q109.529 1759.91 109.529 1751.19 Q109.529 1742.44 112.584 1737.85 Q115.663 1733.25 121.473 1733.25 Z" fill="#000000" fill-rule="evenodd" fill-opacity="1" /><path clip-path="url(#clip870)" d="M81.3575 1320.87 L99.7139 1320.87 L99.7139 1324.8 L85.6399 1324.8 L85.6399 1333.27 Q86.6584 1332.93 87.6769 1332.77 Q88.6954 1332.58 89.7139 1332.58 Q95.501 1332.58 98.8806 1335.75 Q102.26 1338.92 102.26 1344.34 Q102.26 1349.92 98.788 1353.02 Q95.3158 1356.1 88.9964 1356.1 Q86.8204 1356.1 84.5519 1355.73 Q82.3066 1355.36 79.8992 1354.62 L79.8992 1349.92 Q81.9825 1351.05 84.2047 1351.61 Q86.4269 1352.16 88.9038 1352.16 Q92.9084 1352.16 95.2463 1350.06 Q97.5843 1347.95 97.5843 1344.34 Q97.5843 1340.73 95.2463 1338.62 Q92.9084 1336.52 88.9038 1336.52 Q87.0288 1336.52 85.1538 1336.93 Q83.3019 1337.35 81.3575 1338.23 L81.3575 1320.87 Z" fill="#000000" fill-rule="evenodd" fill-opacity="1" /><path clip-path="url(#clip870)" d="M121.473 1323.95 Q117.862 1323.95 116.033 1327.51 Q114.228 1331.05 114.228 1338.18 Q114.228 1345.29 116.033 1348.85 Q117.862 1352.4 121.473 1352.4 Q125.107 1352.4 126.913 1348.85 Q128.742 1345.29 128.742 1338.18 Q128.742 1331.05 126.913 1327.51 Q125.107 1323.95 121.473 1323.95 M121.473 1320.24 Q127.283 1320.24 130.339 1324.85 Q133.417 1329.43 133.417 1338.18 Q133.417 1346.91 130.339 1351.52 Q127.283 1356.1 121.473 1356.1 Q115.663 1356.1 112.584 1351.52 Q109.529 1346.91 109.529 1338.18 Q109.529 1329.43 112.584 1324.85 Q115.663 1320.24 121.473 1320.24 Z" fill="#000000" fill-rule="evenodd" fill-opacity="1" /><path clip-path="url(#clip870)" d="M51.9595 938.489 L59.5984 938.489 L59.5984 912.124 L51.2882 913.79 L51.2882 909.531 L59.5521 907.864 L64.228 907.864 L64.228 938.489 L71.8668 938.489 L71.8668 942.424 L51.9595 942.424 L51.9595 938.489 Z" fill="#000000" fill-rule="evenodd" fill-opacity="1" /><path clip-path="url(#clip870)" d="M91.3112 910.943 Q87.7001 910.943 85.8714 914.508 Q84.0658 918.049 84.0658 925.179 Q84.0658 932.286 85.8714 935.85 Q87.7001 939.392 91.3112 939.392 Q94.9454 939.392 96.7509 935.85 Q98.5796 932.286 98.5796 925.179 Q98.5796 918.049 96.7509 914.508 Q94.9454 910.943 91.3112 910.943 M91.3112 907.239 Q97.1213 907.239 100.177 911.846 Q103.256 916.429 103.256 925.179 Q103.256 933.906 100.177 938.512 Q97.1213 943.096 91.3112 943.096 Q85.501 943.096 82.4223 938.512 Q79.3668 933.906 79.3668 925.179 Q79.3668 916.429 82.4223 911.846 Q85.501 907.239 91.3112 907.239 Z" fill="#000000" fill-rule="evenodd" fill-opacity="1" /><path clip-path="url(#clip870)" d="M121.473 910.943 Q117.862 910.943 116.033 914.508 Q114.228 918.049 114.228 925.179 Q114.228 932.286 116.033 935.85 Q117.862 939.392 121.473 939.392 Q125.107 939.392 126.913 935.85 Q128.742 932.286 128.742 925.179 Q128.742 918.049 126.913 914.508 Q125.107 910.943 121.473 910.943 M121.473 907.239 Q127.283 907.239 130.339 911.846 Q133.417 916.429 133.417 925.179 Q133.417 933.906 130.339 938.512 Q127.283 943.096 121.473 943.096 Q115.663 943.096 112.584 938.512 Q109.529 933.906 109.529 925.179 Q109.529 916.429 112.584 911.846 Q115.663 907.239 121.473 907.239 Z" fill="#000000" fill-rule="evenodd" fill-opacity="1" /><path clip-path="url(#clip870)" d="M51.9595 525.486 L59.5984 525.486 L59.5984 499.12 L51.2882 500.787 L51.2882 496.528 L59.5521 494.861 L64.228 494.861 L64.228 525.486 L71.8668 525.486 L71.8668 529.421 L51.9595 529.421 L51.9595 525.486 Z" fill="#000000" fill-rule="evenodd" fill-opacity="1" /><path clip-path="url(#clip870)" d="M81.3575 494.861 L99.7139 494.861 L99.7139 498.796 L85.6399 498.796 L85.6399 507.268 Q86.6584 506.921 87.6769 506.759 Q88.6954 506.574 89.7139 506.574 Q95.501 506.574 98.8806 509.745 Q102.26 512.917 102.26 518.333 Q102.26 523.912 98.788 527.014 Q95.3158 530.092 88.9964 530.092 Q86.8204 530.092 84.5519 529.722 Q82.3066 529.352 79.8992 528.611 L79.8992 523.912 Q81.9825 525.046 84.2047 525.602 Q86.4269 526.157 88.9038 526.157 Q92.9084 526.157 95.2463 524.051 Q97.5843 521.944 97.5843 518.333 Q97.5843 514.722 95.2463 512.616 Q92.9084 510.509 88.9038 510.509 Q87.0288 510.509 85.1538 510.926 Q83.3019 511.342 81.3575 512.222 L81.3575 494.861 Z" fill="#000000" fill-rule="evenodd" fill-opacity="1" /><path clip-path="url(#clip870)" d="M121.473 497.94 Q117.862 497.94 116.033 501.505 Q114.228 505.046 114.228 512.176 Q114.228 519.282 116.033 522.847 Q117.862 526.389 121.473 526.389 Q125.107 526.389 126.913 522.847 Q128.742 519.282 128.742 512.176 Q128.742 505.046 126.913 501.505 Q125.107 497.94 121.473 497.94 M121.473 494.236 Q127.283 494.236 130.339 498.843 Q133.417 503.426 133.417 512.176 Q133.417 520.903 130.339 525.509 Q127.283 530.092 121.473 530.092 Q115.663 530.092 112.584 525.509 Q109.529 520.903 109.529 512.176 Q109.529 503.426 112.584 498.843 Q115.663 494.236 121.473 494.236 Z" fill="#000000" fill-rule="evenodd" fill-opacity="1" /><path clip-path="url(#clip870)" d="M55.1771 112.483 L71.4965 112.483 L71.4965 116.418 L49.5521 116.418 L49.5521 112.483 Q52.2141 109.728 56.7975 105.098 Q61.4039 100.446 62.5845 99.1031 Q64.8298 96.5799 65.7094 94.8438 Q66.6122 93.0846 66.6122 91.3948 Q66.6122 88.6401 64.6678 86.904 Q62.7465 85.1679 59.6447 85.1679 Q57.4456 85.1679 54.9919 85.9318 Q52.5614 86.6957 49.7836 88.2466 L49.7836 83.5244 Q52.6077 82.3902 55.0614 81.8115 Q57.515 81.2328 59.5521 81.2328 Q64.9224 81.2328 68.1168 83.918 Q71.3113 86.6031 71.3113 91.0938 Q71.3113 93.2235 70.5011 95.1447 Q69.7141 97.0429 67.6076 99.6355 Q67.0289 100.307 63.927 103.524 Q60.8252 106.719 55.1771 112.483 Z" fill="#000000" fill-rule="evenodd" fill-opacity="1" /><path clip-path="url(#clip870)" d="M91.3112 84.9365 Q87.7001 84.9365 85.8714 88.5013 Q84.0658 92.0429 84.0658 99.1725 Q84.0658 106.279 85.8714 109.844 Q87.7001 113.385 91.3112 113.385 Q94.9454 113.385 96.7509 109.844 Q98.5796 106.279 98.5796 99.1725 Q98.5796 92.0429 96.7509 88.5013 Q94.9454 84.9365 91.3112 84.9365 M91.3112 81.2328 Q97.1213 81.2328 100.177 85.8392 Q103.256 90.4225 103.256 99.1725 Q103.256 107.899 100.177 112.506 Q97.1213 117.089 91.3112 117.089 Q85.501 117.089 82.4223 112.506 Q79.3668 107.899 79.3668 99.1725 Q79.3668 90.4225 82.4223 85.8392 Q85.501 81.2328 91.3112 81.2328 Z" fill="#000000" fill-rule="evenodd" fill-opacity="1" /><path clip-path="url(#clip870)" d="M121.473 84.9365 Q117.862 84.9365 116.033 88.5013 Q114.228 92.0429 114.228 99.1725 Q114.228 106.279 116.033 109.844 Q117.862 113.385 121.473 113.385 Q125.107 113.385 126.913 109.844 Q128.742 106.279 128.742 99.1725 Q128.742 92.0429 126.913 88.5013 Q125.107 84.9365 121.473 84.9365 M121.473 81.2328 Q127.283 81.2328 130.339 85.8392 Q133.417 90.4225 133.417 99.1725 Q133.417 107.899 130.339 112.506 Q127.283 117.089 121.473 117.089 Q115.663 117.089 112.584 112.506 Q109.529 107.899 109.529 99.1725 Q109.529 90.4225 112.584 85.8392 Q115.663 81.2328 121.473 81.2328 Z" fill="#000000" fill-rule="evenodd" fill-opacity="1" /><polyline clip-path="url(#clip872)" style="stroke:#009af9; stroke-linecap:butt; stroke-linejoin:round; stroke-width:4; stroke-opacity:1; fill:none" points="
  243.559,1751.15 258.711,1735.95 398.818,1596.11 483.016,1512.7 554.205,1442.59 631.535,1366.89 702.827,1297.56 779.26,1223.75 867.815,1138.98 946.512,1064.37 
  1015.52,999.574 1090.76,929.654 1166.45,860.163 1250.13,784.431 1329.75,713.579 1412.54,641.326 1482.23,581.778 1567.31,510.894 1645.25,447.996 1717.23,391.938 
  1790.15,337.505 1831.01,308.206 1871.87,279.893 1908.9,255.188 1945.93,231.495 1988.32,205.771 2030.71,181.761 2069.96,161.3 2109.21,142.826 2147.91,126.902 
  2186.61,113.689 2224.18,103.996 2261.75,98.1093 2281.01,96.8724 2300.27,97.0593 2319.53,98.8795 2338.78,102.593 2359.88,109.224 2380.98,119.082 2391.53,125.449 
  2402.08,132.926 2412.63,141.658 2423.18,151.816 2430.84,160.206 2438.51,169.555 2446.17,179.977 2453.83,191.606 2461.49,204.605 2469.16,219.172 2476.82,235.549 
  2484.48,254.043 2492.14,275.043 2499.81,299.056 2503.64,312.396 2507.47,326.763 2511.3,342.281 2515.13,359.102 2518.96,377.409 2522.79,397.426 2526.63,419.431 
  2530.46,443.778 2534.29,470.924 2538.12,501.473 2540.04,518.27 2541.95,536.25 2543.87,555.57 2545.78,576.422 2547.35,594.839 2548.93,614.604 2550.5,635.907 
  2552.07,658.985 2553.64,684.134 2555.21,711.731 2556.79,742.265 2558.36,776.388 2559.14,795.064 2559.93,815 2560.72,836.369 2561.5,859.383 2562.29,884.304 
  2563.07,911.465 2563.86,941.289 2564.65,974.337 2565.04,992.296 2565.43,1011.37 2565.83,1031.69 2566.22,1053.43 2566.61,1076.81 2567,1102.09 2567.4,1129.58 
  2567.79,1159.72 2568.18,1193.05 2568.58,1230.31 2568.77,1250.74 2568.97,1272.56 2569.17,1296 2569.36,1321.31 2569.56,1348.8 2569.76,1378.89 2569.95,1412.12 
  2570.15,1449.2 2570.35,1491.14 2570.54,1539.42 2570.74,1596.25 2570.93,1665.35 
  "/>
</svg>
