<?xml version="1.0" encoding="utf-8"?>
<svg xmlns="http://www.w3.org/2000/svg" xmlns:xlink="http://www.w3.org/1999/xlink" width="672" height="480" viewBox="0 0 2688 1920">
<defs>
  <clipPath id="clip200">
    <rect x="0" y="0" width="2688" height="1920"/>
  </clipPath>
</defs>
<path clip-path="url(#clip200)" d="
M0 1920 L2688 1920 L2688 0 L0 0  Z
  " fill="#ffffff" fill-rule="evenodd" fill-opacity="1"/>
<defs>
  <clipPath id="clip201">
    <rect x="537" y="0" width="1883" height="1883"/>
  </clipPath>
</defs>
<path clip-path="url(#clip200)" d="
M197.302 1800.78 L2640.76 1800.78 L2640.76 47.2441 L197.302 47.2441  Z
  " fill="#ffffff" fill-rule="evenodd" fill-opacity="1"/>
<defs>
  <clipPath id="clip202">
    <rect x="197" y="47" width="2444" height="1755"/>
  </clipPath>
</defs>
<polyline clip-path="url(#clip202)" style="stroke:#000000; stroke-linecap:butt; stroke-linejoin:round; stroke-width:2; stroke-opacity:0.1; fill:none" points="
  266.456,1800.78 266.456,47.2441 
  "/>
<polyline clip-path="url(#clip202)" style="stroke:#000000; stroke-linecap:butt; stroke-linejoin:round; stroke-width:2; stroke-opacity:0.1; fill:none" points="
  842.743,1800.78 842.743,47.2441 
  "/>
<polyline clip-path="url(#clip202)" style="stroke:#000000; stroke-linecap:butt; stroke-linejoin:round; stroke-width:2; stroke-opacity:0.1; fill:none" points="
  1419.03,1800.78 1419.03,47.2441 
  "/>
<polyline clip-path="url(#clip202)" style="stroke:#000000; stroke-linecap:butt; stroke-linejoin:round; stroke-width:2; stroke-opacity:0.1; fill:none" points="
  1995.32,1800.78 1995.32,47.2441 
  "/>
<polyline clip-path="url(#clip202)" style="stroke:#000000; stroke-linecap:butt; stroke-linejoin:round; stroke-width:2; stroke-opacity:0.1; fill:none" points="
  2571.6,1800.78 2571.6,47.2441 
  "/>
<polyline clip-path="url(#clip200)" style="stroke:#000000; stroke-linecap:butt; stroke-linejoin:round; stroke-width:4; stroke-opacity:1; fill:none" points="
  197.302,1800.78 2640.76,1800.78 
  "/>
<polyline clip-path="url(#clip200)" style="stroke:#000000; stroke-linecap:butt; stroke-linejoin:round; stroke-width:4; stroke-opacity:1; fill:none" points="
  266.456,1800.78 266.456,1781.88 
  "/>
<polyline clip-path="url(#clip200)" style="stroke:#000000; stroke-linecap:butt; stroke-linejoin:round; stroke-width:4; stroke-opacity:1; fill:none" points="
  842.743,1800.78 842.743,1781.88 
  "/>
<polyline clip-path="url(#clip200)" style="stroke:#000000; stroke-linecap:butt; stroke-linejoin:round; stroke-width:4; stroke-opacity:1; fill:none" points="
  1419.03,1800.78 1419.03,1781.88 
  "/>
<polyline clip-path="url(#clip200)" style="stroke:#000000; stroke-linecap:butt; stroke-linejoin:round; stroke-width:4; stroke-opacity:1; fill:none" points="
  1995.32,1800.78 1995.32,1781.88 
  "/>
<polyline clip-path="url(#clip200)" style="stroke:#000000; stroke-linecap:butt; stroke-linejoin:round; stroke-width:4; stroke-opacity:1; fill:none" points="
  2571.6,1800.78 2571.6,1781.88 
  "/>
<path clip-path="url(#clip200)" d="M228.76 1834 Q225.149 1834 223.32 1837.57 Q221.515 1841.11 221.515 1848.24 Q221.515 1855.34 223.32 1858.91 Q225.149 1862.45 228.76 1862.45 Q232.394 1862.45 234.2 1858.91 Q236.028 1855.34 236.028 1848.24 Q236.028 1841.11 234.2 1837.57 Q232.394 1834 228.76 1834 M228.76 1830.3 Q234.57 1830.3 237.626 1834.9 Q240.704 1839.49 240.704 1848.24 Q240.704 1856.96 237.626 1861.57 Q234.57 1866.15 228.76 1866.15 Q222.95 1866.15 219.871 1861.57 Q216.816 1856.96 216.816 1848.24 Q216.816 1839.49 219.871 1834.9 Q222.95 1830.3 228.76 1830.3 Z" fill="#000000" fill-rule="evenodd" fill-opacity="1" /><path clip-path="url(#clip200)" d="M248.922 1859.6 L253.806 1859.6 L253.806 1865.48 L248.922 1865.48 L248.922 1859.6 Z" fill="#000000" fill-rule="evenodd" fill-opacity="1" /><path clip-path="url(#clip200)" d="M276.838 1835 L265.033 1853.45 L276.838 1853.45 L276.838 1835 M275.612 1830.92 L281.491 1830.92 L281.491 1853.45 L286.422 1853.45 L286.422 1857.34 L281.491 1857.34 L281.491 1865.48 L276.838 1865.48 L276.838 1857.34 L261.237 1857.34 L261.237 1852.82 L275.612 1830.92 Z" fill="#000000" fill-rule="evenodd" fill-opacity="1" /><path clip-path="url(#clip200)" d="M304.153 1834 Q300.542 1834 298.713 1837.57 Q296.908 1841.11 296.908 1848.24 Q296.908 1855.34 298.713 1858.91 Q300.542 1862.45 304.153 1862.45 Q307.787 1862.45 309.593 1858.91 Q311.421 1855.34 311.421 1848.24 Q311.421 1841.11 309.593 1837.57 Q307.787 1834 304.153 1834 M304.153 1830.3 Q309.963 1830.3 313.019 1834.9 Q316.097 1839.49 316.097 1848.24 Q316.097 1856.96 313.019 1861.57 Q309.963 1866.15 304.153 1866.15 Q298.343 1866.15 295.264 1861.57 Q292.209 1856.96 292.209 1848.24 Q292.209 1839.49 295.264 1834.9 Q298.343 1830.3 304.153 1830.3 Z" fill="#000000" fill-rule="evenodd" fill-opacity="1" /><path clip-path="url(#clip200)" d="M805.544 1834 Q801.933 1834 800.104 1837.57 Q798.299 1841.11 798.299 1848.24 Q798.299 1855.34 800.104 1858.91 Q801.933 1862.45 805.544 1862.45 Q809.178 1862.45 810.984 1858.91 Q812.812 1855.34 812.812 1848.24 Q812.812 1841.11 810.984 1837.57 Q809.178 1834 805.544 1834 M805.544 1830.3 Q811.354 1830.3 814.41 1834.9 Q817.488 1839.49 817.488 1848.24 Q817.488 1856.96 814.41 1861.57 Q811.354 1866.15 805.544 1866.15 Q799.734 1866.15 796.655 1861.57 Q793.599 1856.96 793.599 1848.24 Q793.599 1839.49 796.655 1834.9 Q799.734 1830.3 805.544 1830.3 Z" fill="#000000" fill-rule="evenodd" fill-opacity="1" /><path clip-path="url(#clip200)" d="M825.706 1859.6 L830.59 1859.6 L830.59 1865.48 L825.706 1865.48 L825.706 1859.6 Z" fill="#000000" fill-rule="evenodd" fill-opacity="1" /><path clip-path="url(#clip200)" d="M853.622 1835 L841.817 1853.45 L853.622 1853.45 L853.622 1835 M852.395 1830.92 L858.275 1830.92 L858.275 1853.45 L863.206 1853.45 L863.206 1857.34 L858.275 1857.34 L858.275 1865.48 L853.622 1865.48 L853.622 1857.34 L838.021 1857.34 L838.021 1852.82 L852.395 1830.92 Z" fill="#000000" fill-rule="evenodd" fill-opacity="1" /><path clip-path="url(#clip200)" d="M870.983 1830.92 L889.34 1830.92 L889.34 1834.86 L875.266 1834.86 L875.266 1843.33 Q876.284 1842.98 877.303 1842.82 Q878.321 1842.64 879.34 1842.64 Q885.127 1842.64 888.506 1845.81 Q891.886 1848.98 891.886 1854.4 Q891.886 1859.97 888.414 1863.08 Q884.942 1866.15 878.622 1866.15 Q876.446 1866.15 874.178 1865.78 Q871.932 1865.41 869.525 1864.67 L869.525 1859.97 Q871.608 1861.11 873.831 1861.66 Q876.053 1862.22 878.53 1862.22 Q882.534 1862.22 884.872 1860.11 Q887.21 1858.01 887.21 1854.4 Q887.21 1850.78 884.872 1848.68 Q882.534 1846.57 878.53 1846.57 Q876.655 1846.57 874.78 1846.99 Q872.928 1847.4 870.983 1848.28 L870.983 1830.92 Z" fill="#000000" fill-rule="evenodd" fill-opacity="1" /><path clip-path="url(#clip200)" d="M1381.33 1834 Q1377.72 1834 1375.89 1837.57 Q1374.09 1841.11 1374.09 1848.24 Q1374.09 1855.34 1375.89 1858.91 Q1377.72 1862.45 1381.33 1862.45 Q1384.97 1862.45 1386.77 1858.91 Q1388.6 1855.34 1388.6 1848.24 Q1388.6 1841.11 1386.77 1837.57 Q1384.97 1834 1381.33 1834 M1381.33 1830.3 Q1387.14 1830.3 1390.2 1834.9 Q1393.28 1839.49 1393.28 1848.24 Q1393.28 1856.96 1390.2 1861.57 Q1387.14 1866.15 1381.33 1866.15 Q1375.52 1866.15 1372.44 1861.57 Q1369.39 1856.96 1369.39 1848.24 Q1369.39 1839.49 1372.44 1834.9 Q1375.52 1830.3 1381.33 1830.3 Z" fill="#000000" fill-rule="evenodd" fill-opacity="1" /><path clip-path="url(#clip200)" d="M1401.49 1859.6 L1406.38 1859.6 L1406.38 1865.48 L1401.49 1865.48 L1401.49 1859.6 Z" fill="#000000" fill-rule="evenodd" fill-opacity="1" /><path clip-path="url(#clip200)" d="M1416.61 1830.92 L1434.97 1830.92 L1434.97 1834.86 L1420.89 1834.86 L1420.89 1843.33 Q1421.91 1842.98 1422.93 1842.82 Q1423.95 1842.64 1424.97 1842.64 Q1430.75 1842.64 1434.13 1845.81 Q1437.51 1848.98 1437.51 1854.4 Q1437.51 1859.97 1434.04 1863.08 Q1430.57 1866.15 1424.25 1866.15 Q1422.07 1866.15 1419.8 1865.78 Q1417.56 1865.41 1415.15 1864.67 L1415.15 1859.97 Q1417.24 1861.11 1419.46 1861.66 Q1421.68 1862.22 1424.16 1862.22 Q1428.16 1862.22 1430.5 1860.11 Q1432.84 1858.01 1432.84 1854.4 Q1432.84 1850.78 1430.5 1848.68 Q1428.16 1846.57 1424.16 1846.57 Q1422.28 1846.57 1420.41 1846.99 Q1418.55 1847.4 1416.61 1848.28 L1416.61 1830.92 Z" fill="#000000" fill-rule="evenodd" fill-opacity="1" /><path clip-path="url(#clip200)" d="M1456.73 1834 Q1453.11 1834 1451.29 1837.57 Q1449.48 1841.11 1449.48 1848.24 Q1449.48 1855.34 1451.29 1858.91 Q1453.11 1862.45 1456.73 1862.45 Q1460.36 1862.45 1462.17 1858.91 Q1463.99 1855.34 1463.99 1848.24 Q1463.99 1841.11 1462.17 1837.57 Q1460.36 1834 1456.73 1834 M1456.73 1830.3 Q1462.54 1830.3 1465.59 1834.9 Q1468.67 1839.49 1468.67 1848.24 Q1468.67 1856.96 1465.59 1861.57 Q1462.54 1866.15 1456.73 1866.15 Q1450.92 1866.15 1447.84 1861.57 Q1444.78 1856.96 1444.78 1848.24 Q1444.78 1839.49 1447.84 1834.9 Q1450.92 1830.3 1456.73 1830.3 Z" fill="#000000" fill-rule="evenodd" fill-opacity="1" /><path clip-path="url(#clip200)" d="M1958.12 1834 Q1954.51 1834 1952.68 1837.57 Q1950.87 1841.11 1950.87 1848.24 Q1950.87 1855.34 1952.68 1858.91 Q1954.51 1862.45 1958.12 1862.45 Q1961.75 1862.45 1963.56 1858.91 Q1965.38 1855.34 1965.38 1848.24 Q1965.38 1841.11 1963.56 1837.57 Q1961.75 1834 1958.12 1834 M1958.12 1830.3 Q1963.93 1830.3 1966.98 1834.9 Q1970.06 1839.49 1970.06 1848.24 Q1970.06 1856.96 1966.98 1861.57 Q1963.93 1866.15 1958.12 1866.15 Q1952.31 1866.15 1949.23 1861.57 Q1946.17 1856.96 1946.17 1848.24 Q1946.17 1839.49 1949.23 1834.9 Q1952.31 1830.3 1958.12 1830.3 Z" fill="#000000" fill-rule="evenodd" fill-opacity="1" /><path clip-path="url(#clip200)" d="M1978.28 1859.6 L1983.16 1859.6 L1983.16 1865.48 L1978.28 1865.48 L1978.28 1859.6 Z" fill="#000000" fill-rule="evenodd" fill-opacity="1" /><path clip-path="url(#clip200)" d="M1993.39 1830.92 L2011.75 1830.92 L2011.75 1834.86 L1997.68 1834.86 L1997.68 1843.33 Q1998.69 1842.98 1999.71 1842.82 Q2000.73 1842.64 2001.75 1842.64 Q2007.54 1842.64 2010.92 1845.81 Q2014.3 1848.98 2014.3 1854.4 Q2014.3 1859.97 2010.82 1863.08 Q2007.35 1866.15 2001.03 1866.15 Q1998.86 1866.15 1996.59 1865.78 Q1994.34 1865.41 1991.94 1864.67 L1991.94 1859.97 Q1994.02 1861.11 1996.24 1861.66 Q1998.46 1862.22 2000.94 1862.22 Q2004.94 1862.22 2007.28 1860.11 Q2009.62 1858.01 2009.62 1854.4 Q2009.62 1850.78 2007.28 1848.68 Q2004.94 1846.57 2000.94 1846.57 Q1999.07 1846.57 1997.19 1846.99 Q1995.34 1847.4 1993.39 1848.28 L1993.39 1830.92 Z" fill="#000000" fill-rule="evenodd" fill-opacity="1" /><path clip-path="url(#clip200)" d="M2023.56 1830.92 L2041.91 1830.92 L2041.91 1834.86 L2027.84 1834.86 L2027.84 1843.33 Q2028.86 1842.98 2029.88 1842.82 Q2030.89 1842.64 2031.91 1842.64 Q2037.7 1842.64 2041.08 1845.81 Q2044.46 1848.98 2044.46 1854.4 Q2044.46 1859.97 2040.99 1863.08 Q2037.51 1866.15 2031.19 1866.15 Q2029.02 1866.15 2026.75 1865.78 Q2024.5 1865.41 2022.1 1864.67 L2022.1 1859.97 Q2024.18 1861.11 2026.4 1861.66 Q2028.63 1862.22 2031.1 1862.22 Q2035.11 1862.22 2037.44 1860.11 Q2039.78 1858.01 2039.78 1854.4 Q2039.78 1850.78 2037.44 1848.68 Q2035.11 1846.57 2031.1 1846.57 Q2029.23 1846.57 2027.35 1846.99 Q2025.5 1847.4 2023.56 1848.28 L2023.56 1830.92 Z" fill="#000000" fill-rule="evenodd" fill-opacity="1" /><path clip-path="url(#clip200)" d="M2533.9 1834 Q2530.29 1834 2528.47 1837.57 Q2526.66 1841.11 2526.66 1848.24 Q2526.66 1855.34 2528.47 1858.91 Q2530.29 1862.45 2533.9 1862.45 Q2537.54 1862.45 2539.34 1858.91 Q2541.17 1855.34 2541.17 1848.24 Q2541.17 1841.11 2539.34 1837.57 Q2537.54 1834 2533.9 1834 M2533.9 1830.3 Q2539.72 1830.3 2542.77 1834.9 Q2545.85 1839.49 2545.85 1848.24 Q2545.85 1856.96 2542.77 1861.57 Q2539.72 1866.15 2533.9 1866.15 Q2528.09 1866.15 2525.02 1861.57 Q2521.96 1856.96 2521.96 1848.24 Q2521.96 1839.49 2525.02 1834.9 Q2528.09 1830.3 2533.9 1830.3 Z" fill="#000000" fill-rule="evenodd" fill-opacity="1" /><path clip-path="url(#clip200)" d="M2554.07 1859.6 L2558.95 1859.6 L2558.95 1865.48 L2554.07 1865.48 L2554.07 1859.6 Z" fill="#000000" fill-rule="evenodd" fill-opacity="1" /><path clip-path="url(#clip200)" d="M2579.71 1846.34 Q2576.57 1846.34 2574.71 1848.49 Q2572.89 1850.65 2572.89 1854.4 Q2572.89 1858.12 2574.71 1860.3 Q2576.57 1862.45 2579.71 1862.45 Q2582.86 1862.45 2584.69 1860.3 Q2586.54 1858.12 2586.54 1854.4 Q2586.54 1850.65 2584.69 1848.49 Q2582.86 1846.34 2579.71 1846.34 M2589 1831.69 L2589 1835.95 Q2587.24 1835.11 2585.43 1834.67 Q2583.65 1834.23 2581.89 1834.23 Q2577.26 1834.23 2574.81 1837.36 Q2572.38 1840.48 2572.03 1846.8 Q2573.4 1844.79 2575.46 1843.72 Q2577.52 1842.64 2579.99 1842.64 Q2585.2 1842.64 2588.21 1845.81 Q2591.24 1848.96 2591.24 1854.4 Q2591.24 1859.72 2588.09 1862.94 Q2584.95 1866.15 2579.71 1866.15 Q2573.72 1866.15 2570.55 1861.57 Q2567.38 1856.96 2567.38 1848.24 Q2567.38 1840.04 2571.27 1835.18 Q2575.15 1830.3 2581.71 1830.3 Q2583.46 1830.3 2585.25 1830.65 Q2587.05 1830.99 2589 1831.69 Z" fill="#000000" fill-rule="evenodd" fill-opacity="1" /><path clip-path="url(#clip200)" d="M2609.3 1834 Q2605.69 1834 2603.86 1837.57 Q2602.05 1841.11 2602.05 1848.24 Q2602.05 1855.34 2603.86 1858.91 Q2605.69 1862.45 2609.3 1862.45 Q2612.93 1862.45 2614.74 1858.91 Q2616.57 1855.34 2616.57 1848.24 Q2616.57 1841.11 2614.74 1837.57 Q2612.93 1834 2609.3 1834 M2609.3 1830.3 Q2615.11 1830.3 2618.16 1834.9 Q2621.24 1839.49 2621.24 1848.24 Q2621.24 1856.96 2618.16 1861.57 Q2615.11 1866.15 2609.3 1866.15 Q2603.49 1866.15 2600.41 1861.57 Q2597.35 1856.96 2597.35 1848.24 Q2597.35 1839.49 2600.41 1834.9 Q2603.49 1830.3 2609.3 1830.3 Z" fill="#000000" fill-rule="evenodd" fill-opacity="1" /><polyline clip-path="url(#clip202)" style="stroke:#000000; stroke-linecap:butt; stroke-linejoin:round; stroke-width:2; stroke-opacity:0.1; fill:none" points="
  197.302,1668.44 2640.76,1668.44 
  "/>
<polyline clip-path="url(#clip202)" style="stroke:#000000; stroke-linecap:butt; stroke-linejoin:round; stroke-width:2; stroke-opacity:0.1; fill:none" points="
  197.302,1254.87 2640.76,1254.87 
  "/>
<polyline clip-path="url(#clip202)" style="stroke:#000000; stroke-linecap:butt; stroke-linejoin:round; stroke-width:2; stroke-opacity:0.1; fill:none" points="
  197.302,841.298 2640.76,841.298 
  "/>
<polyline clip-path="url(#clip202)" style="stroke:#000000; stroke-linecap:butt; stroke-linejoin:round; stroke-width:2; stroke-opacity:0.1; fill:none" points="
  197.302,427.728 2640.76,427.728 
  "/>
<polyline clip-path="url(#clip200)" style="stroke:#000000; stroke-linecap:butt; stroke-linejoin:round; stroke-width:4; stroke-opacity:1; fill:none" points="
  197.302,1800.78 197.302,47.2441 
  "/>
<polyline clip-path="url(#clip200)" style="stroke:#000000; stroke-linecap:butt; stroke-linejoin:round; stroke-width:4; stroke-opacity:1; fill:none" points="
  197.302,1668.44 216.2,1668.44 
  "/>
<polyline clip-path="url(#clip200)" style="stroke:#000000; stroke-linecap:butt; stroke-linejoin:round; stroke-width:4; stroke-opacity:1; fill:none" points="
  197.302,1254.87 216.2,1254.87 
  "/>
<polyline clip-path="url(#clip200)" style="stroke:#000000; stroke-linecap:butt; stroke-linejoin:round; stroke-width:4; stroke-opacity:1; fill:none" points="
  197.302,841.298 216.2,841.298 
  "/>
<polyline clip-path="url(#clip200)" style="stroke:#000000; stroke-linecap:butt; stroke-linejoin:round; stroke-width:4; stroke-opacity:1; fill:none" points="
  197.302,427.728 216.2,427.728 
  "/>
<path clip-path="url(#clip200)" d="M49.5521 1668.89 L79.2279 1668.89 L79.2279 1672.82 L49.5521 1672.82 L49.5521 1668.89 Z" fill="#000000" fill-rule="evenodd" fill-opacity="1" /><path clip-path="url(#clip200)" d="M99.3204 1654.24 Q95.7093 1654.24 93.8806 1657.8 Q92.075 1661.34 92.075 1668.47 Q92.075 1675.58 93.8806 1679.14 Q95.7093 1682.68 99.3204 1682.68 Q102.955 1682.68 104.76 1679.14 Q106.589 1675.58 106.589 1668.47 Q106.589 1661.34 104.76 1657.8 Q102.955 1654.24 99.3204 1654.24 M99.3204 1650.53 Q105.131 1650.53 108.186 1655.14 Q111.265 1659.72 111.265 1668.47 Q111.265 1677.2 108.186 1681.81 Q105.131 1686.39 99.3204 1686.39 Q93.5102 1686.39 90.4315 1681.81 Q87.376 1677.2 87.376 1668.47 Q87.376 1659.72 90.4315 1655.14 Q93.5102 1650.53 99.3204 1650.53 Z" fill="#000000" fill-rule="evenodd" fill-opacity="1" /><path clip-path="url(#clip200)" d="M119.482 1679.84 L124.367 1679.84 L124.367 1685.72 L119.482 1685.72 L119.482 1679.84 Z" fill="#000000" fill-rule="evenodd" fill-opacity="1" /><path clip-path="url(#clip200)" d="M147.399 1655.23 L135.593 1673.68 L147.399 1673.68 L147.399 1655.23 M146.172 1651.16 L152.052 1651.16 L152.052 1673.68 L156.982 1673.68 L156.982 1677.57 L152.052 1677.57 L152.052 1685.72 L147.399 1685.72 L147.399 1677.57 L131.797 1677.57 L131.797 1673.06 L146.172 1651.16 Z" fill="#000000" fill-rule="evenodd" fill-opacity="1" /><path clip-path="url(#clip200)" d="M51.6354 1255.32 L81.3112 1255.32 L81.3112 1259.25 L51.6354 1259.25 L51.6354 1255.32 Z" fill="#000000" fill-rule="evenodd" fill-opacity="1" /><path clip-path="url(#clip200)" d="M101.404 1240.67 Q97.7926 1240.67 95.9639 1244.23 Q94.1584 1247.77 94.1584 1254.9 Q94.1584 1262.01 95.9639 1265.57 Q97.7926 1269.12 101.404 1269.12 Q105.038 1269.12 106.843 1265.57 Q108.672 1262.01 108.672 1254.9 Q108.672 1247.77 106.843 1244.23 Q105.038 1240.67 101.404 1240.67 M101.404 1236.96 Q107.214 1236.96 110.269 1241.57 Q113.348 1246.15 113.348 1254.9 Q113.348 1263.63 110.269 1268.24 Q107.214 1272.82 101.404 1272.82 Q95.5935 1272.82 92.5149 1268.24 Q89.4593 1263.63 89.4593 1254.9 Q89.4593 1246.15 92.5149 1241.57 Q95.5935 1236.96 101.404 1236.96 Z" fill="#000000" fill-rule="evenodd" fill-opacity="1" /><path clip-path="url(#clip200)" d="M121.566 1266.27 L126.45 1266.27 L126.45 1272.15 L121.566 1272.15 L121.566 1266.27 Z" fill="#000000" fill-rule="evenodd" fill-opacity="1" /><path clip-path="url(#clip200)" d="M140.663 1268.21 L156.982 1268.21 L156.982 1272.15 L135.038 1272.15 L135.038 1268.21 Q137.7 1265.46 142.283 1260.83 Q146.89 1256.18 148.07 1254.83 Q150.315 1252.31 151.195 1250.57 Q152.098 1248.81 152.098 1247.12 Q152.098 1244.37 150.153 1242.63 Q148.232 1240.9 145.13 1240.9 Q142.931 1240.9 140.478 1241.66 Q138.047 1242.43 135.269 1243.98 L135.269 1239.25 Q138.093 1238.12 140.547 1237.54 Q143.001 1236.96 145.038 1236.96 Q150.408 1236.96 153.602 1239.65 Q156.797 1242.33 156.797 1246.82 Q156.797 1248.95 155.987 1250.87 Q155.2 1252.77 153.093 1255.37 Q152.515 1256.04 149.413 1259.25 Q146.311 1262.45 140.663 1268.21 Z" fill="#000000" fill-rule="evenodd" fill-opacity="1" /><path clip-path="url(#clip200)" d="M99.8065 827.096 Q96.1954 827.096 94.3667 830.661 Q92.5612 834.203 92.5612 841.332 Q92.5612 848.439 94.3667 852.004 Q96.1954 855.545 99.8065 855.545 Q103.441 855.545 105.246 852.004 Q107.075 848.439 107.075 841.332 Q107.075 834.203 105.246 830.661 Q103.441 827.096 99.8065 827.096 M99.8065 823.393 Q105.617 823.393 108.672 827.999 Q111.751 832.583 111.751 841.332 Q111.751 850.059 108.672 854.666 Q105.617 859.249 99.8065 859.249 Q93.9963 859.249 90.9176 854.666 Q87.8621 850.059 87.8621 841.332 Q87.8621 832.583 90.9176 827.999 Q93.9963 823.393 99.8065 823.393 Z" fill="#000000" fill-rule="evenodd" fill-opacity="1" /><path clip-path="url(#clip200)" d="M119.968 852.698 L124.853 852.698 L124.853 858.578 L119.968 858.578 L119.968 852.698 Z" fill="#000000" fill-rule="evenodd" fill-opacity="1" /><path clip-path="url(#clip200)" d="M145.038 827.096 Q141.427 827.096 139.598 830.661 Q137.792 834.203 137.792 841.332 Q137.792 848.439 139.598 852.004 Q141.427 855.545 145.038 855.545 Q148.672 855.545 150.478 852.004 Q152.306 848.439 152.306 841.332 Q152.306 834.203 150.478 830.661 Q148.672 827.096 145.038 827.096 M145.038 823.393 Q150.848 823.393 153.903 827.999 Q156.982 832.583 156.982 841.332 Q156.982 850.059 153.903 854.666 Q150.848 859.249 145.038 859.249 Q139.228 859.249 136.149 854.666 Q133.093 850.059 133.093 841.332 Q133.093 832.583 136.149 827.999 Q139.228 823.393 145.038 823.393 Z" fill="#000000" fill-rule="evenodd" fill-opacity="1" /><path clip-path="url(#clip200)" d="M101.404 413.527 Q97.7926 413.527 95.9639 417.092 Q94.1584 420.633 94.1584 427.763 Q94.1584 434.869 95.9639 438.434 Q97.7926 441.976 101.404 441.976 Q105.038 441.976 106.843 438.434 Q108.672 434.869 108.672 427.763 Q108.672 420.633 106.843 417.092 Q105.038 413.527 101.404 413.527 M101.404 409.823 Q107.214 409.823 110.269 414.43 Q113.348 419.013 113.348 427.763 Q113.348 436.49 110.269 441.096 Q107.214 445.679 101.404 445.679 Q95.5935 445.679 92.5149 441.096 Q89.4593 436.49 89.4593 427.763 Q89.4593 419.013 92.5149 414.43 Q95.5935 409.823 101.404 409.823 Z" fill="#000000" fill-rule="evenodd" fill-opacity="1" /><path clip-path="url(#clip200)" d="M121.566 439.129 L126.45 439.129 L126.45 445.008 L121.566 445.008 L121.566 439.129 Z" fill="#000000" fill-rule="evenodd" fill-opacity="1" /><path clip-path="url(#clip200)" d="M140.663 441.073 L156.982 441.073 L156.982 445.008 L135.038 445.008 L135.038 441.073 Q137.7 438.318 142.283 433.689 Q146.89 429.036 148.07 427.693 Q150.315 425.17 151.195 423.434 Q152.098 421.675 152.098 419.985 Q152.098 417.231 150.153 415.494 Q148.232 413.758 145.13 413.758 Q142.931 413.758 140.478 414.522 Q138.047 415.286 135.269 416.837 L135.269 412.115 Q138.093 410.981 140.547 410.402 Q143.001 409.823 145.038 409.823 Q150.408 409.823 153.602 412.508 Q156.797 415.193 156.797 419.684 Q156.797 421.814 155.987 423.735 Q155.2 425.633 153.093 428.226 Q152.515 428.897 149.413 432.115 Q146.311 435.309 140.663 441.073 Z" fill="#000000" fill-rule="evenodd" fill-opacity="1" /><polyline clip-path="url(#clip202)" style="stroke:#009af9; stroke-linecap:butt; stroke-linejoin:round; stroke-width:4; stroke-opacity:1; fill:none" points="
  266.456,202.298 281.464,210.348 420.233,285.267 503.627,330.679 574.135,369.282 650.727,411.412 721.338,450.419 797.041,492.399 884.75,541.221 962.695,584.753 
  1031.05,623.023 1105.57,664.833 1180.53,706.966 1263.41,753.613 1342.27,798.038 1424.27,844.251 1493.29,883.153 1577.56,930.625 1654.76,974.073 1726.06,1014.15 
  1798.28,1054.68 1879.22,1100 1952.56,1140.96 2036.54,1187.71 2114.29,1230.83 2190.95,1273.18 2265.37,1314.11 2341.67,1355.87 2425.26,1401.36 2546.69,1466.93 
  2571.6,1480.3 
  "/>
<polyline clip-path="url(#clip202)" style="stroke:#e26f46; stroke-linecap:butt; stroke-linejoin:round; stroke-width:4; stroke-opacity:1; fill:none" points="
  266.456,96.8724 281.464,105.503 420.233,186.63 503.627,236.538 574.135,279.41 650.727,326.683 721.338,370.911 797.041,419.019 884.75,475.648 962.695,526.777 
  1031.05,572.236 1105.57,622.461 1180.53,673.682 1263.41,731.128 1342.27,786.581 1424.27,845.06 1493.29,894.936 1577.56,956.634 1654.76,1013.93 1726.06,1067.5 
  1798.28,1122.42 1879.22,1184.74 1952.56,1241.91 2036.54,1308.19 2114.29,1370.35 2190.95,1432.36 2265.37,1493.27 2341.67,1556.43 2425.26,1626.46 2546.69,1729.74 
  2571.6,1751.15 
  "/>
<path clip-path="url(#clip200)" d="
M2235.38 261.215 L2559.31 261.215 L2559.31 105.695 L2235.38 105.695  Z
  " fill="#ffffff" fill-rule="evenodd" fill-opacity="1"/>
<polyline clip-path="url(#clip200)" style="stroke:#000000; stroke-linecap:butt; stroke-linejoin:round; stroke-width:4; stroke-opacity:1; fill:none" points="
  2235.38,261.215 2559.31,261.215 2559.31,105.695 2235.38,105.695 2235.38,261.215 
  "/>
<polyline clip-path="url(#clip200)" style="stroke:#009af9; stroke-linecap:butt; stroke-linejoin:round; stroke-width:4; stroke-opacity:1; fill:none" points="
  2262.53,157.535 2425.43,157.535 
  "/>
<path clip-path="url(#clip200)" d="M2466.42 177.223 Q2464.62 181.852 2462.9 183.264 Q2461.19 184.676 2458.32 184.676 L2454.92 184.676 L2454.92 181.112 L2457.42 181.112 Q2459.18 181.112 2460.15 180.278 Q2461.12 179.445 2462.3 176.343 L2463.06 174.399 L2452.58 148.889 L2457.09 148.889 L2465.19 169.167 L2473.3 148.889 L2477.81 148.889 L2466.42 177.223 Z" fill="#000000" fill-rule="evenodd" fill-opacity="1" /><path clip-path="url(#clip200)" d="M2485.1 170.88 L2492.74 170.88 L2492.74 144.515 L2484.43 146.181 L2484.43 141.922 L2492.69 140.255 L2497.37 140.255 L2497.37 170.88 L2505.01 170.88 L2505.01 174.815 L2485.1 174.815 L2485.1 170.88 Z" fill="#000000" fill-rule="evenodd" fill-opacity="1" /><polyline clip-path="url(#clip200)" style="stroke:#e26f46; stroke-linecap:butt; stroke-linejoin:round; stroke-width:4; stroke-opacity:1; fill:none" points="
  2262.53,209.375 2425.43,209.375 
  "/>
<path clip-path="url(#clip200)" d="M2466.42 229.063 Q2464.62 233.692 2462.9 235.104 Q2461.19 236.516 2458.32 236.516 L2454.92 236.516 L2454.92 232.952 L2457.42 232.952 Q2459.18 232.952 2460.15 232.118 Q2461.12 231.285 2462.3 228.183 L2463.06 226.239 L2452.58 200.729 L2457.09 200.729 L2465.19 221.007 L2473.3 200.729 L2477.81 200.729 L2466.42 229.063 Z" fill="#000000" fill-rule="evenodd" fill-opacity="1" /><path clip-path="url(#clip200)" d="M2488.32 222.72 L2504.64 222.72 L2504.64 226.655 L2482.69 226.655 L2482.69 222.72 Q2485.36 219.965 2489.94 215.336 Q2494.55 210.683 2495.73 209.341 Q2497.97 206.817 2498.85 205.081 Q2499.75 203.322 2499.75 201.632 Q2499.75 198.878 2497.81 197.142 Q2495.89 195.405 2492.79 195.405 Q2490.59 195.405 2488.13 196.169 Q2485.7 196.933 2482.93 198.484 L2482.93 193.762 Q2485.75 192.628 2488.2 192.049 Q2490.66 191.47 2492.69 191.47 Q2498.06 191.47 2501.26 194.155 Q2504.45 196.841 2504.45 201.331 Q2504.45 203.461 2503.64 205.382 Q2502.86 207.28 2500.75 209.873 Q2500.17 210.544 2497.07 213.762 Q2493.97 216.956 2488.32 222.72 Z" fill="#000000" fill-rule="evenodd" fill-opacity="1" /></svg>
