<?xml version="1.0" encoding="utf-8"?>
<svg xmlns="http://www.w3.org/2000/svg" xmlns:xlink="http://www.w3.org/1999/xlink" width="672" height="480" viewBox="0 0 2688 1920">
<defs>
  <clipPath id="clip530">
    <rect x="0" y="0" width="2688" height="1920"/>
  </clipPath>
</defs>
<path clip-path="url(#clip530)" d="
M0 1920 L2688 1920 L2688 0 L0 0  Z
  " fill="#ffffff" fill-rule="evenodd" fill-opacity="1"/>
<defs>
  <clipPath id="clip531">
    <rect x="537" y="0" width="1883" height="1883"/>
  </clipPath>
</defs>
<path clip-path="url(#clip530)" d="
M157.395 1800.78 L2640.76 1800.78 L2640.76 47.2441 L157.395 47.2441  Z
  " fill="#ffffff" fill-rule="evenodd" fill-opacity="1"/>
<defs>
  <clipPath id="clip532">
    <rect x="157" y="47" width="2484" height="1755"/>
  </clipPath>
</defs>
<polyline clip-path="url(#clip532)" style="stroke:#000000; stroke-linecap:butt; stroke-linejoin:round; stroke-width:2; stroke-opacity:0.1; fill:none" points="
  227.679,1800.78 227.679,47.2441 
  "/>
<polyline clip-path="url(#clip532)" style="stroke:#000000; stroke-linecap:butt; stroke-linejoin:round; stroke-width:2; stroke-opacity:0.1; fill:none" points="
  897.048,1800.78 897.048,47.2441 
  "/>
<polyline clip-path="url(#clip532)" style="stroke:#000000; stroke-linecap:butt; stroke-linejoin:round; stroke-width:2; stroke-opacity:0.1; fill:none" points="
  1566.42,1800.78 1566.42,47.2441 
  "/>
<polyline clip-path="url(#clip532)" style="stroke:#000000; stroke-linecap:butt; stroke-linejoin:round; stroke-width:2; stroke-opacity:0.1; fill:none" points="
  2235.79,1800.78 2235.79,47.2441 
  "/>
<polyline clip-path="url(#clip530)" style="stroke:#000000; stroke-linecap:butt; stroke-linejoin:round; stroke-width:4; stroke-opacity:1; fill:none" points="
  157.395,1800.78 2640.76,1800.78 
  "/>
<polyline clip-path="url(#clip530)" style="stroke:#000000; stroke-linecap:butt; stroke-linejoin:round; stroke-width:4; stroke-opacity:1; fill:none" points="
  227.679,1800.78 227.679,1781.88 
  "/>
<polyline clip-path="url(#clip530)" style="stroke:#000000; stroke-linecap:butt; stroke-linejoin:round; stroke-width:4; stroke-opacity:1; fill:none" points="
  897.048,1800.78 897.048,1781.88 
  "/>
<polyline clip-path="url(#clip530)" style="stroke:#000000; stroke-linecap:butt; stroke-linejoin:round; stroke-width:4; stroke-opacity:1; fill:none" points="
  1566.42,1800.78 1566.42,1781.88 
  "/>
<polyline clip-path="url(#clip530)" style="stroke:#000000; stroke-linecap:butt; stroke-linejoin:round; stroke-width:4; stroke-opacity:1; fill:none" points="
  2235.79,1800.78 2235.79,1781.88 
  "/>
<path clip-path="url(#clip530)" d="M174.207 1848.65 L203.883 1848.65 L203.883 1852.59 L174.207 1852.59 L174.207 1848.65 Z" fill="#000000" fill-rule="evenodd" fill-opacity="1" /><path clip-path="url(#clip530)" d="M228.142 1846.85 Q231.498 1847.57 233.373 1849.84 Q235.271 1852.1 235.271 1855.44 Q235.271 1860.55 231.753 1863.35 Q228.234 1866.15 221.753 1866.15 Q219.577 1866.15 217.262 1865.71 Q214.97 1865.3 212.517 1864.44 L212.517 1859.93 Q214.461 1861.06 216.776 1861.64 Q219.091 1862.22 221.614 1862.22 Q226.012 1862.22 228.304 1860.48 Q230.619 1858.75 230.619 1855.44 Q230.619 1852.38 228.466 1850.67 Q226.336 1848.93 222.517 1848.93 L218.489 1848.93 L218.489 1845.09 L222.702 1845.09 Q226.151 1845.09 227.98 1843.72 Q229.808 1842.34 229.808 1839.74 Q229.808 1837.08 227.91 1835.67 Q226.035 1834.23 222.517 1834.23 Q220.595 1834.23 218.396 1834.65 Q216.197 1835.07 213.558 1835.95 L213.558 1831.78 Q216.22 1831.04 218.535 1830.67 Q220.873 1830.3 222.933 1830.3 Q228.257 1830.3 231.359 1832.73 Q234.461 1835.14 234.461 1839.26 Q234.461 1842.13 232.818 1844.12 Q231.174 1846.09 228.142 1846.85 Z" fill="#000000" fill-rule="evenodd" fill-opacity="1" /><path clip-path="url(#clip530)" d="M244.137 1859.6 L249.021 1859.6 L249.021 1865.48 L244.137 1865.48 L244.137 1859.6 Z" fill="#000000" fill-rule="evenodd" fill-opacity="1" /><path clip-path="url(#clip530)" d="M269.206 1834 Q265.595 1834 263.766 1837.57 Q261.961 1841.11 261.961 1848.24 Q261.961 1855.34 263.766 1858.91 Q265.595 1862.45 269.206 1862.45 Q272.841 1862.45 274.646 1858.91 Q276.475 1855.34 276.475 1848.24 Q276.475 1841.11 274.646 1837.57 Q272.841 1834 269.206 1834 M269.206 1830.3 Q275.016 1830.3 278.072 1834.9 Q281.151 1839.49 281.151 1848.24 Q281.151 1856.96 278.072 1861.57 Q275.016 1866.15 269.206 1866.15 Q263.396 1866.15 260.317 1861.57 Q257.262 1856.96 257.262 1848.24 Q257.262 1839.49 260.317 1834.9 Q263.396 1830.3 269.206 1830.3 Z" fill="#000000" fill-rule="evenodd" fill-opacity="1" /><path clip-path="url(#clip530)" d="M844.074 1848.65 L873.75 1848.65 L873.75 1852.59 L844.074 1852.59 L844.074 1848.65 Z" fill="#000000" fill-rule="evenodd" fill-opacity="1" /><path clip-path="url(#clip530)" d="M887.87 1861.55 L904.189 1861.55 L904.189 1865.48 L882.245 1865.48 L882.245 1861.55 Q884.907 1858.79 889.49 1854.16 Q894.097 1849.51 895.277 1848.17 Q897.523 1845.65 898.402 1843.91 Q899.305 1842.15 899.305 1840.46 Q899.305 1837.71 897.361 1835.97 Q895.439 1834.23 892.338 1834.23 Q890.139 1834.23 887.685 1835 Q885.254 1835.76 882.477 1837.31 L882.477 1832.59 Q885.301 1831.46 887.754 1830.88 Q890.208 1830.3 892.245 1830.3 Q897.615 1830.3 900.81 1832.98 Q904.004 1835.67 904.004 1840.16 Q904.004 1842.29 903.194 1844.21 Q902.407 1846.11 900.301 1848.7 Q899.722 1849.37 896.62 1852.59 Q893.518 1855.78 887.87 1861.55 Z" fill="#000000" fill-rule="evenodd" fill-opacity="1" /><path clip-path="url(#clip530)" d="M914.004 1859.6 L918.888 1859.6 L918.888 1865.48 L914.004 1865.48 L914.004 1859.6 Z" fill="#000000" fill-rule="evenodd" fill-opacity="1" /><path clip-path="url(#clip530)" d="M929.12 1830.92 L947.476 1830.92 L947.476 1834.86 L933.402 1834.86 L933.402 1843.33 Q934.421 1842.98 935.439 1842.82 Q936.458 1842.64 937.476 1842.64 Q943.263 1842.64 946.643 1845.81 Q950.023 1848.98 950.023 1854.4 Q950.023 1859.97 946.55 1863.08 Q943.078 1866.15 936.759 1866.15 Q934.583 1866.15 932.314 1865.78 Q930.069 1865.41 927.662 1864.67 L927.662 1859.97 Q929.745 1861.11 931.967 1861.66 Q934.189 1862.22 936.666 1862.22 Q940.671 1862.22 943.009 1860.11 Q945.347 1858.01 945.347 1854.4 Q945.347 1850.78 943.009 1848.68 Q940.671 1846.57 936.666 1846.57 Q934.791 1846.57 932.916 1846.99 Q931.064 1847.4 929.12 1848.28 L929.12 1830.92 Z" fill="#000000" fill-rule="evenodd" fill-opacity="1" /><path clip-path="url(#clip530)" d="M1512.95 1848.65 L1542.62 1848.65 L1542.62 1852.59 L1512.95 1852.59 L1512.95 1848.65 Z" fill="#000000" fill-rule="evenodd" fill-opacity="1" /><path clip-path="url(#clip530)" d="M1556.74 1861.55 L1573.06 1861.55 L1573.06 1865.48 L1551.12 1865.48 L1551.12 1861.55 Q1553.78 1858.79 1558.36 1854.16 Q1562.97 1849.51 1564.15 1848.17 Q1566.39 1845.65 1567.27 1843.91 Q1568.18 1842.15 1568.18 1840.46 Q1568.18 1837.71 1566.23 1835.97 Q1564.31 1834.23 1561.21 1834.23 Q1559.01 1834.23 1556.56 1835 Q1554.13 1835.76 1551.35 1837.31 L1551.35 1832.59 Q1554.17 1831.46 1556.63 1830.88 Q1559.08 1830.3 1561.12 1830.3 Q1566.49 1830.3 1569.68 1832.98 Q1572.88 1835.67 1572.88 1840.16 Q1572.88 1842.29 1572.07 1844.21 Q1571.28 1846.11 1569.17 1848.7 Q1568.59 1849.37 1565.49 1852.59 Q1562.39 1855.78 1556.74 1861.55 Z" fill="#000000" fill-rule="evenodd" fill-opacity="1" /><path clip-path="url(#clip530)" d="M1582.88 1859.6 L1587.76 1859.6 L1587.76 1865.48 L1582.88 1865.48 L1582.88 1859.6 Z" fill="#000000" fill-rule="evenodd" fill-opacity="1" /><path clip-path="url(#clip530)" d="M1607.95 1834 Q1604.33 1834 1602.51 1837.57 Q1600.7 1841.11 1600.7 1848.24 Q1600.7 1855.34 1602.51 1858.91 Q1604.33 1862.45 1607.95 1862.45 Q1611.58 1862.45 1613.39 1858.91 Q1615.21 1855.34 1615.21 1848.24 Q1615.21 1841.11 1613.39 1837.57 Q1611.58 1834 1607.95 1834 M1607.95 1830.3 Q1613.76 1830.3 1616.81 1834.9 Q1619.89 1839.49 1619.89 1848.24 Q1619.89 1856.96 1616.81 1861.57 Q1613.76 1866.15 1607.95 1866.15 Q1602.14 1866.15 1599.06 1861.57 Q1596 1856.96 1596 1848.24 Q1596 1839.49 1599.06 1834.9 Q1602.14 1830.3 1607.95 1830.3 Z" fill="#000000" fill-rule="evenodd" fill-opacity="1" /><path clip-path="url(#clip530)" d="M2182.81 1848.65 L2212.49 1848.65 L2212.49 1852.59 L2182.81 1852.59 L2182.81 1848.65 Z" fill="#000000" fill-rule="evenodd" fill-opacity="1" /><path clip-path="url(#clip530)" d="M2223.39 1861.55 L2231.03 1861.55 L2231.03 1835.18 L2222.72 1836.85 L2222.72 1832.59 L2230.98 1830.92 L2235.66 1830.92 L2235.66 1861.55 L2243.3 1861.55 L2243.3 1865.48 L2223.39 1865.48 L2223.39 1861.55 Z" fill="#000000" fill-rule="evenodd" fill-opacity="1" /><path clip-path="url(#clip530)" d="M2252.74 1859.6 L2257.63 1859.6 L2257.63 1865.48 L2252.74 1865.48 L2252.74 1859.6 Z" fill="#000000" fill-rule="evenodd" fill-opacity="1" /><path clip-path="url(#clip530)" d="M2267.86 1830.92 L2286.22 1830.92 L2286.22 1834.86 L2272.14 1834.86 L2272.14 1843.33 Q2273.16 1842.98 2274.18 1842.82 Q2275.2 1842.64 2276.22 1842.64 Q2282 1842.64 2285.38 1845.81 Q2288.76 1848.98 2288.76 1854.4 Q2288.76 1859.97 2285.29 1863.08 Q2281.82 1866.15 2275.5 1866.15 Q2273.32 1866.15 2271.05 1865.78 Q2268.81 1865.41 2266.4 1864.67 L2266.4 1859.97 Q2268.48 1861.11 2270.71 1861.66 Q2272.93 1862.22 2275.41 1862.22 Q2279.41 1862.22 2281.75 1860.11 Q2284.09 1858.01 2284.09 1854.4 Q2284.09 1850.78 2281.75 1848.68 Q2279.41 1846.57 2275.41 1846.57 Q2273.53 1846.57 2271.66 1846.99 Q2269.8 1847.4 2267.86 1848.28 L2267.86 1830.92 Z" fill="#000000" fill-rule="evenodd" fill-opacity="1" /><polyline clip-path="url(#clip532)" style="stroke:#000000; stroke-linecap:butt; stroke-linejoin:round; stroke-width:2; stroke-opacity:0.1; fill:none" points="
  157.395,1751.16 2640.76,1751.16 
  "/>
<polyline clip-path="url(#clip532)" style="stroke:#000000; stroke-linecap:butt; stroke-linejoin:round; stroke-width:2; stroke-opacity:0.1; fill:none" points="
  157.395,1342.18 2640.76,1342.18 
  "/>
<polyline clip-path="url(#clip532)" style="stroke:#000000; stroke-linecap:butt; stroke-linejoin:round; stroke-width:2; stroke-opacity:0.1; fill:none" points="
  157.395,933.208 2640.76,933.208 
  "/>
<polyline clip-path="url(#clip532)" style="stroke:#000000; stroke-linecap:butt; stroke-linejoin:round; stroke-width:2; stroke-opacity:0.1; fill:none" points="
  157.395,524.231 2640.76,524.231 
  "/>
<polyline clip-path="url(#clip532)" style="stroke:#000000; stroke-linecap:butt; stroke-linejoin:round; stroke-width:2; stroke-opacity:0.1; fill:none" points="
  157.395,115.253 2640.76,115.253 
  "/>
<polyline clip-path="url(#clip530)" style="stroke:#000000; stroke-linecap:butt; stroke-linejoin:round; stroke-width:4; stroke-opacity:1; fill:none" points="
  157.395,1800.78 157.395,47.2441 
  "/>
<polyline clip-path="url(#clip530)" style="stroke:#000000; stroke-linecap:butt; stroke-linejoin:round; stroke-width:4; stroke-opacity:1; fill:none" points="
  157.395,1751.16 176.293,1751.16 
  "/>
<polyline clip-path="url(#clip530)" style="stroke:#000000; stroke-linecap:butt; stroke-linejoin:round; stroke-width:4; stroke-opacity:1; fill:none" points="
  157.395,1342.18 176.293,1342.18 
  "/>
<polyline clip-path="url(#clip530)" style="stroke:#000000; stroke-linecap:butt; stroke-linejoin:round; stroke-width:4; stroke-opacity:1; fill:none" points="
  157.395,933.208 176.293,933.208 
  "/>
<polyline clip-path="url(#clip530)" style="stroke:#000000; stroke-linecap:butt; stroke-linejoin:round; stroke-width:4; stroke-opacity:1; fill:none" points="
  157.395,524.231 176.293,524.231 
  "/>
<polyline clip-path="url(#clip530)" style="stroke:#000000; stroke-linecap:butt; stroke-linejoin:round; stroke-width:4; stroke-opacity:1; fill:none" points="
  157.395,115.253 176.293,115.253 
  "/>
<path clip-path="url(#clip530)" d="M50.7095 1764.51 L58.3484 1764.51 L58.3484 1738.14 L50.0382 1739.81 L50.0382 1735.55 L58.3021 1733.88 L62.978 1733.88 L62.978 1764.51 L70.6168 1764.51 L70.6168 1768.44 L50.7095 1768.44 L50.7095 1764.51 Z" fill="#000000" fill-rule="evenodd" fill-opacity="1" /><path clip-path="url(#clip530)" d="M80.0612 1762.56 L84.9455 1762.56 L84.9455 1768.44 L80.0612 1768.44 L80.0612 1762.56 Z" fill="#000000" fill-rule="evenodd" fill-opacity="1" /><path clip-path="url(#clip530)" d="M105.131 1736.96 Q101.519 1736.96 99.6907 1740.53 Q97.8852 1744.07 97.8852 1751.2 Q97.8852 1758.3 99.6907 1761.87 Q101.519 1765.41 105.131 1765.41 Q108.765 1765.41 110.57 1761.87 Q112.399 1758.3 112.399 1751.2 Q112.399 1744.07 110.57 1740.53 Q108.765 1736.96 105.131 1736.96 M105.131 1733.26 Q110.941 1733.26 113.996 1737.86 Q117.075 1742.45 117.075 1751.2 Q117.075 1759.92 113.996 1764.53 Q110.941 1769.11 105.131 1769.11 Q99.3204 1769.11 96.2417 1764.53 Q93.1862 1759.92 93.1862 1751.2 Q93.1862 1742.45 96.2417 1737.86 Q99.3204 1733.26 105.131 1733.26 Z" fill="#000000" fill-rule="evenodd" fill-opacity="1" /><path clip-path="url(#clip530)" d="M51.9364 1355.53 L59.5752 1355.53 L59.5752 1329.16 L51.2651 1330.83 L51.2651 1326.57 L59.5289 1324.9 L64.2048 1324.9 L64.2048 1355.53 L71.8437 1355.53 L71.8437 1359.46 L51.9364 1359.46 L51.9364 1355.53 Z" fill="#000000" fill-rule="evenodd" fill-opacity="1" /><path clip-path="url(#clip530)" d="M81.2881 1353.59 L86.1723 1353.59 L86.1723 1359.46 L81.2881 1359.46 L81.2881 1353.59 Z" fill="#000000" fill-rule="evenodd" fill-opacity="1" /><path clip-path="url(#clip530)" d="M97.1676 1355.53 L104.806 1355.53 L104.806 1329.16 L96.4963 1330.83 L96.4963 1326.57 L104.76 1324.9 L109.436 1324.9 L109.436 1355.53 L117.075 1355.53 L117.075 1359.46 L97.1676 1359.46 L97.1676 1355.53 Z" fill="#000000" fill-rule="evenodd" fill-opacity="1" /><path clip-path="url(#clip530)" d="M52.3067 946.553 L59.9456 946.553 L59.9456 920.187 L51.6354 921.854 L51.6354 917.594 L59.8993 915.928 L64.5752 915.928 L64.5752 946.553 L72.214 946.553 L72.214 950.488 L52.3067 950.488 L52.3067 946.553 Z" fill="#000000" fill-rule="evenodd" fill-opacity="1" /><path clip-path="url(#clip530)" d="M81.6584 944.608 L86.5427 944.608 L86.5427 950.488 L81.6584 950.488 L81.6584 944.608 Z" fill="#000000" fill-rule="evenodd" fill-opacity="1" /><path clip-path="url(#clip530)" d="M100.756 946.553 L117.075 946.553 L117.075 950.488 L95.1306 950.488 L95.1306 946.553 Q97.7926 943.798 102.376 939.168 Q106.982 934.516 108.163 933.173 Q110.408 930.65 111.288 928.914 Q112.191 927.154 112.191 925.465 Q112.191 922.71 110.246 920.974 Q108.325 919.238 105.223 919.238 Q103.024 919.238 100.57 920.002 Q98.1398 920.766 95.3621 922.317 L95.3621 917.594 Q98.1861 916.46 100.64 915.881 Q103.094 915.303 105.131 915.303 Q110.501 915.303 113.695 917.988 Q116.89 920.673 116.89 925.164 Q116.89 927.293 116.08 929.215 Q115.293 931.113 113.186 933.705 Q112.607 934.377 109.506 937.594 Q106.404 940.789 100.756 946.553 Z" fill="#000000" fill-rule="evenodd" fill-opacity="1" /><path clip-path="url(#clip530)" d="M51.3577 537.575 L58.9965 537.575 L58.9965 511.21 L50.6864 512.876 L50.6864 508.617 L58.9502 506.951 L63.6261 506.951 L63.6261 537.575 L71.265 537.575 L71.265 541.511 L51.3577 541.511 L51.3577 537.575 Z" fill="#000000" fill-rule="evenodd" fill-opacity="1" /><path clip-path="url(#clip530)" d="M80.7094 535.631 L85.5936 535.631 L85.5936 541.511 L80.7094 541.511 L80.7094 535.631 Z" fill="#000000" fill-rule="evenodd" fill-opacity="1" /><path clip-path="url(#clip530)" d="M109.945 522.876 Q113.302 523.594 115.177 525.862 Q117.075 528.131 117.075 531.464 Q117.075 536.58 113.556 539.381 Q110.038 542.182 103.556 542.182 Q101.381 542.182 99.0657 541.742 Q96.7741 541.325 94.3204 540.469 L94.3204 535.955 Q96.2648 537.089 98.5796 537.668 Q100.894 538.247 103.418 538.247 Q107.816 538.247 110.107 536.511 Q112.422 534.774 112.422 531.464 Q112.422 528.409 110.269 526.696 Q108.14 524.96 104.32 524.96 L100.293 524.96 L100.293 521.117 L104.506 521.117 Q107.955 521.117 109.783 519.751 Q111.612 518.363 111.612 515.77 Q111.612 513.108 109.714 511.696 Q107.839 510.261 104.32 510.261 Q102.399 510.261 100.2 510.677 Q98.0009 511.094 95.3621 511.974 L95.3621 507.807 Q98.0241 507.066 100.339 506.696 Q102.677 506.326 104.737 506.326 Q110.061 506.326 113.163 508.756 Q116.265 511.163 116.265 515.284 Q116.265 518.154 114.621 520.145 Q112.978 522.113 109.945 522.876 Z" fill="#000000" fill-rule="evenodd" fill-opacity="1" /><path clip-path="url(#clip530)" d="M50.2234 128.598 L57.8623 128.598 L57.8623 102.233 L49.5521 103.899 L49.5521 99.6401 L57.816 97.9734 L62.4919 97.9734 L62.4919 128.598 L70.1307 128.598 L70.1307 132.533 L50.2234 132.533 L50.2234 128.598 Z" fill="#000000" fill-rule="evenodd" fill-opacity="1" /><path clip-path="url(#clip530)" d="M79.5751 126.654 L84.4593 126.654 L84.4593 132.533 L79.5751 132.533 L79.5751 126.654 Z" fill="#000000" fill-rule="evenodd" fill-opacity="1" /><path clip-path="url(#clip530)" d="M107.492 102.047 L95.6861 120.496 L107.492 120.496 L107.492 102.047 M106.265 97.9734 L112.144 97.9734 L112.144 120.496 L117.075 120.496 L117.075 124.385 L112.144 124.385 L112.144 132.533 L107.492 132.533 L107.492 124.385 L91.8899 124.385 L91.8899 119.871 L106.265 97.9734 Z" fill="#000000" fill-rule="evenodd" fill-opacity="1" /><polyline clip-path="url(#clip532)" style="stroke:#009af9; stroke-linecap:butt; stroke-linejoin:round; stroke-width:4; stroke-opacity:1; fill:none" points="
  227.679,1593.86 242.932,1595.73 383.966,1613.57 468.722,1624.76 540.382,1634.45 618.225,1645.2 689.99,1655.27 766.929,1666.18 856.07,1678.85 935.288,1690.05 
  1004.76,1699.7 1080.49,1709.91 1156.68,1719.68 1240.92,1729.63 1321.07,1737.92 1404.4,1744.87 1474.55,1748.99 1560.2,1751.15 1638.66,1749.55 1674.89,1747.36 
  1711.12,1744.09 1747.82,1739.54 1784.52,1733.58 1825.65,1724.98 1866.78,1714.05 1904.05,1701.85 1941.32,1687.14 1962.66,1677.45 1984,1666.74 2005.33,1654.92 
  2026.67,1641.92 2046.42,1628.72 2066.18,1614.32 2085.94,1598.63 2105.69,1581.53 2125.17,1563.18 2144.65,1543.22 2164.12,1521.52 2183.6,1497.93 2202.51,1473.04 
  2221.42,1446.04 2240.33,1416.71 2259.24,1384.86 2278.63,1349.33 2298.01,1310.59 2317.4,1268.31 2336.78,1222.12 2347.4,1195 2358.02,1166.5 2368.64,1136.54 
  2379.26,1105.01 2389.88,1071.83 2400.5,1036.89 2411.12,1000.06 2421.74,961.225 2429.45,931.681 2437.17,900.948 2444.88,868.965 2452.59,835.667 2460.31,800.985 
  2468.02,764.843 2475.73,727.162 2483.45,687.856 2491.16,646.834 2498.87,603.995 2506.59,559.234 2514.3,512.435 2522.01,463.473 2529.73,412.215 2537.44,358.513 
  2545.15,302.211 2548.32,278.317 2551.48,253.944 2554.65,229.079 2557.81,203.708 2560.98,177.816 2564.14,151.39 2567.31,124.414 2570.47,96.8724 
  "/>
<path clip-path="url(#clip530)" d="
M2229.62 209.375 L2557.98 209.375 L2557.98 105.695 L2229.62 105.695  Z
  " fill="#ffffff" fill-rule="evenodd" fill-opacity="1"/>
<polyline clip-path="url(#clip530)" style="stroke:#000000; stroke-linecap:butt; stroke-linejoin:round; stroke-width:4; stroke-opacity:1; fill:none" points="
  2229.62,209.375 2557.98,209.375 2557.98,105.695 2229.62,105.695 2229.62,209.375 
  "/>
<polyline clip-path="url(#clip530)" style="stroke:#009af9; stroke-linecap:butt; stroke-linejoin:round; stroke-width:4; stroke-opacity:1; fill:none" points="
  2257.21,157.535 2422.77,157.535 
  "/>
<path clip-path="url(#clip530)" d="M2464.2 177.223 Q2462.4 181.852 2460.69 183.264 Q2458.97 184.676 2456.1 184.676 L2452.7 184.676 L2452.7 181.112 L2455.2 181.112 Q2456.96 181.112 2457.93 180.278 Q2458.9 179.445 2460.08 176.343 L2460.85 174.399 L2450.36 148.889 L2454.87 148.889 L2462.98 169.167 L2471.08 148.889 L2475.59 148.889 L2464.2 177.223 Z" fill="#000000" fill-rule="evenodd" fill-opacity="1" /><path clip-path="url(#clip530)" d="M2482.88 170.88 L2490.52 170.88 L2490.52 144.515 L2482.21 146.181 L2482.21 141.922 L2490.48 140.255 L2495.15 140.255 L2495.15 170.88 L2502.79 170.88 L2502.79 174.815 L2482.88 174.815 L2482.88 170.88 Z" fill="#000000" fill-rule="evenodd" fill-opacity="1" /></svg>
