<?xml version="1.0" encoding="utf-8"?>
<svg xmlns="http://www.w3.org/2000/svg" xmlns:xlink="http://www.w3.org/1999/xlink" width="672" height="480" viewBox="0 0 2688 1920">
<defs>
  <clipPath id="clip490">
    <rect x="0" y="0" width="2688" height="1920"/>
  </clipPath>
</defs>
<path clip-path="url(#clip490)" d="
M0 1920 L2688 1920 L2688 0 L0 0  Z
  " fill="#ffffff" fill-rule="evenodd" fill-opacity="1"/>
<defs>
  <clipPath id="clip491">
    <rect x="537" y="0" width="1883" height="1883"/>
  </clipPath>
</defs>
<path clip-path="url(#clip490)" d="
M115.057 1800.78 L2640.76 1800.78 L2640.76 47.2441 L115.057 47.2441  Z
  " fill="#ffffff" fill-rule="evenodd" fill-opacity="1"/>
<defs>
  <clipPath id="clip492">
    <rect x="115" y="47" width="2527" height="1755"/>
  </clipPath>
</defs>
<polyline clip-path="url(#clip492)" style="stroke:#000000; stroke-linecap:butt; stroke-linejoin:round; stroke-width:2; stroke-opacity:0.1; fill:none" points="
  186.539,1800.78 186.539,47.2441 
  "/>
<polyline clip-path="url(#clip492)" style="stroke:#000000; stroke-linecap:butt; stroke-linejoin:round; stroke-width:2; stroke-opacity:0.1; fill:none" points="
  721.35,1800.78 721.35,47.2441 
  "/>
<polyline clip-path="url(#clip492)" style="stroke:#000000; stroke-linecap:butt; stroke-linejoin:round; stroke-width:2; stroke-opacity:0.1; fill:none" points="
  1256.16,1800.78 1256.16,47.2441 
  "/>
<polyline clip-path="url(#clip492)" style="stroke:#000000; stroke-linecap:butt; stroke-linejoin:round; stroke-width:2; stroke-opacity:0.1; fill:none" points="
  1790.97,1800.78 1790.97,47.2441 
  "/>
<polyline clip-path="url(#clip492)" style="stroke:#000000; stroke-linecap:butt; stroke-linejoin:round; stroke-width:2; stroke-opacity:0.1; fill:none" points="
  2325.78,1800.78 2325.78,47.2441 
  "/>
<polyline clip-path="url(#clip490)" style="stroke:#000000; stroke-linecap:butt; stroke-linejoin:round; stroke-width:4; stroke-opacity:1; fill:none" points="
  115.057,1800.78 2640.76,1800.78 
  "/>
<polyline clip-path="url(#clip490)" style="stroke:#000000; stroke-linecap:butt; stroke-linejoin:round; stroke-width:4; stroke-opacity:1; fill:none" points="
  186.539,1800.78 186.539,1781.88 
  "/>
<polyline clip-path="url(#clip490)" style="stroke:#000000; stroke-linecap:butt; stroke-linejoin:round; stroke-width:4; stroke-opacity:1; fill:none" points="
  721.35,1800.78 721.35,1781.88 
  "/>
<polyline clip-path="url(#clip490)" style="stroke:#000000; stroke-linecap:butt; stroke-linejoin:round; stroke-width:4; stroke-opacity:1; fill:none" points="
  1256.16,1800.78 1256.16,1781.88 
  "/>
<polyline clip-path="url(#clip490)" style="stroke:#000000; stroke-linecap:butt; stroke-linejoin:round; stroke-width:4; stroke-opacity:1; fill:none" points="
  1790.97,1800.78 1790.97,1781.88 
  "/>
<polyline clip-path="url(#clip490)" style="stroke:#000000; stroke-linecap:butt; stroke-linejoin:round; stroke-width:4; stroke-opacity:1; fill:none" points="
  2325.78,1800.78 2325.78,1781.88 
  "/>
<path clip-path="url(#clip490)" d="M186.539 1834 Q182.928 1834 181.099 1837.57 Q179.294 1841.11 179.294 1848.24 Q179.294 1855.34 181.099 1858.91 Q182.928 1862.45 186.539 1862.45 Q190.173 1862.45 191.979 1858.91 Q193.808 1855.34 193.808 1848.24 Q193.808 1841.11 191.979 1837.57 Q190.173 1834 186.539 1834 M186.539 1830.3 Q192.349 1830.3 195.405 1834.9 Q198.484 1839.49 198.484 1848.24 Q198.484 1856.96 195.405 1861.57 Q192.349 1866.15 186.539 1866.15 Q180.729 1866.15 177.65 1861.57 Q174.595 1856.96 174.595 1848.24 Q174.595 1839.49 177.65 1834.9 Q180.729 1830.3 186.539 1830.3 Z" fill="#000000" fill-rule="evenodd" fill-opacity="1" /><path clip-path="url(#clip490)" d="M716.003 1861.55 L732.323 1861.55 L732.323 1865.48 L710.378 1865.48 L710.378 1861.55 Q713.04 1858.79 717.624 1854.16 Q722.23 1849.51 723.411 1848.17 Q725.656 1845.65 726.536 1843.91 Q727.438 1842.15 727.438 1840.46 Q727.438 1837.71 725.494 1835.97 Q723.573 1834.23 720.471 1834.23 Q718.272 1834.23 715.818 1835 Q713.387 1835.76 710.61 1837.31 L710.61 1832.59 Q713.434 1831.46 715.887 1830.88 Q718.341 1830.3 720.378 1830.3 Q725.749 1830.3 728.943 1832.98 Q732.137 1835.67 732.137 1840.16 Q732.137 1842.29 731.327 1844.21 Q730.54 1846.11 728.434 1848.7 Q727.855 1849.37 724.753 1852.59 Q721.651 1855.78 716.003 1861.55 Z" fill="#000000" fill-rule="evenodd" fill-opacity="1" /><path clip-path="url(#clip490)" d="M1259.17 1835 L1247.37 1853.45 L1259.17 1853.45 L1259.17 1835 M1257.94 1830.92 L1263.82 1830.92 L1263.82 1853.45 L1268.75 1853.45 L1268.75 1857.34 L1263.82 1857.34 L1263.82 1865.48 L1259.17 1865.48 L1259.17 1857.34 L1243.57 1857.34 L1243.57 1852.82 L1257.94 1830.92 Z" fill="#000000" fill-rule="evenodd" fill-opacity="1" /><path clip-path="url(#clip490)" d="M1791.38 1846.34 Q1788.23 1846.34 1786.38 1848.49 Q1784.55 1850.65 1784.55 1854.4 Q1784.55 1858.12 1786.38 1860.3 Q1788.23 1862.45 1791.38 1862.45 Q1794.53 1862.45 1796.35 1860.3 Q1798.21 1858.12 1798.21 1854.4 Q1798.21 1850.65 1796.35 1848.49 Q1794.53 1846.34 1791.38 1846.34 M1800.66 1831.69 L1800.66 1835.95 Q1798.9 1835.11 1797.1 1834.67 Q1795.31 1834.23 1793.55 1834.23 Q1788.92 1834.23 1786.47 1837.36 Q1784.04 1840.48 1783.69 1846.8 Q1785.06 1844.79 1787.12 1843.72 Q1789.18 1842.64 1791.66 1842.64 Q1796.86 1842.64 1799.87 1845.81 Q1802.91 1848.96 1802.91 1854.4 Q1802.91 1859.72 1799.76 1862.94 Q1796.61 1866.15 1791.38 1866.15 Q1785.38 1866.15 1782.21 1861.57 Q1779.04 1856.96 1779.04 1848.24 Q1779.04 1840.04 1782.93 1835.18 Q1786.82 1830.3 1793.37 1830.3 Q1795.13 1830.3 1796.91 1830.65 Q1798.72 1830.99 1800.66 1831.69 Z" fill="#000000" fill-rule="evenodd" fill-opacity="1" /><path clip-path="url(#clip490)" d="M2325.78 1849.07 Q2322.45 1849.07 2320.53 1850.85 Q2318.63 1852.64 2318.63 1855.76 Q2318.63 1858.89 2320.53 1860.67 Q2322.45 1862.45 2325.78 1862.45 Q2329.12 1862.45 2331.04 1860.67 Q2332.96 1858.86 2332.96 1855.76 Q2332.96 1852.64 2331.04 1850.85 Q2329.14 1849.07 2325.78 1849.07 M2321.11 1847.08 Q2318.1 1846.34 2316.41 1844.28 Q2314.74 1842.22 2314.74 1839.26 Q2314.74 1835.11 2317.68 1832.71 Q2320.65 1830.3 2325.78 1830.3 Q2330.95 1830.3 2333.89 1832.71 Q2336.83 1835.11 2336.83 1839.26 Q2336.83 1842.22 2335.14 1844.28 Q2333.47 1846.34 2330.48 1847.08 Q2333.86 1847.87 2335.74 1850.16 Q2337.64 1852.45 2337.64 1855.76 Q2337.64 1860.78 2334.56 1863.47 Q2331.5 1866.15 2325.78 1866.15 Q2320.07 1866.15 2316.99 1863.47 Q2313.93 1860.78 2313.93 1855.76 Q2313.93 1852.45 2315.83 1850.16 Q2317.73 1847.87 2321.11 1847.08 M2319.4 1839.7 Q2319.4 1842.38 2321.06 1843.89 Q2322.75 1845.39 2325.78 1845.39 Q2328.79 1845.39 2330.48 1843.89 Q2332.2 1842.38 2332.2 1839.7 Q2332.2 1837.01 2330.48 1835.51 Q2328.79 1834 2325.78 1834 Q2322.75 1834 2321.06 1835.51 Q2319.4 1837.01 2319.4 1839.7 Z" fill="#000000" fill-rule="evenodd" fill-opacity="1" /><polyline clip-path="url(#clip492)" style="stroke:#000000; stroke-linecap:butt; stroke-linejoin:round; stroke-width:2; stroke-opacity:0.1; fill:none" points="
  115.057,1751.15 2640.76,1751.15 
  "/>
<polyline clip-path="url(#clip492)" style="stroke:#000000; stroke-linecap:butt; stroke-linejoin:round; stroke-width:2; stroke-opacity:0.1; fill:none" points="
  115.057,1278.48 2640.76,1278.48 
  "/>
<polyline clip-path="url(#clip492)" style="stroke:#000000; stroke-linecap:butt; stroke-linejoin:round; stroke-width:2; stroke-opacity:0.1; fill:none" points="
  115.057,805.805 2640.76,805.805 
  "/>
<polyline clip-path="url(#clip492)" style="stroke:#000000; stroke-linecap:butt; stroke-linejoin:round; stroke-width:2; stroke-opacity:0.1; fill:none" points="
  115.057,333.132 2640.76,333.132 
  "/>
<polyline clip-path="url(#clip490)" style="stroke:#000000; stroke-linecap:butt; stroke-linejoin:round; stroke-width:4; stroke-opacity:1; fill:none" points="
  115.057,1800.78 115.057,47.2441 
  "/>
<polyline clip-path="url(#clip490)" style="stroke:#000000; stroke-linecap:butt; stroke-linejoin:round; stroke-width:4; stroke-opacity:1; fill:none" points="
  115.057,1751.15 133.955,1751.15 
  "/>
<polyline clip-path="url(#clip490)" style="stroke:#000000; stroke-linecap:butt; stroke-linejoin:round; stroke-width:4; stroke-opacity:1; fill:none" points="
  115.057,1278.48 133.955,1278.48 
  "/>
<polyline clip-path="url(#clip490)" style="stroke:#000000; stroke-linecap:butt; stroke-linejoin:round; stroke-width:4; stroke-opacity:1; fill:none" points="
  115.057,805.805 133.955,805.805 
  "/>
<polyline clip-path="url(#clip490)" style="stroke:#000000; stroke-linecap:butt; stroke-linejoin:round; stroke-width:4; stroke-opacity:1; fill:none" points="
  115.057,333.132 133.955,333.132 
  "/>
<path clip-path="url(#clip490)" d="M62.7928 1736.95 Q59.1817 1736.95 57.353 1740.51 Q55.5475 1744.06 55.5475 1751.19 Q55.5475 1758.29 57.353 1761.86 Q59.1817 1765.4 62.7928 1765.4 Q66.427 1765.4 68.2326 1761.86 Q70.0613 1758.29 70.0613 1751.19 Q70.0613 1744.06 68.2326 1740.51 Q66.427 1736.95 62.7928 1736.95 M62.7928 1733.25 Q68.6029 1733.25 71.6585 1737.85 Q74.7372 1742.44 74.7372 1751.19 Q74.7372 1759.91 71.6585 1764.52 Q68.6029 1769.1 62.7928 1769.1 Q56.9826 1769.1 53.904 1764.52 Q50.8484 1759.91 50.8484 1751.19 Q50.8484 1742.44 53.904 1737.85 Q56.9826 1733.25 62.7928 1733.25 Z" fill="#000000" fill-rule="evenodd" fill-opacity="1" /><path clip-path="url(#clip490)" d="M58.4178 1291.82 L74.7372 1291.82 L74.7372 1295.76 L52.7928 1295.76 L52.7928 1291.82 Q55.4549 1289.07 60.0382 1284.44 Q64.6446 1279.79 65.8252 1278.44 Q68.0705 1275.92 68.9502 1274.18 Q69.8529 1272.42 69.8529 1270.74 Q69.8529 1267.98 67.9085 1266.24 Q65.9872 1264.51 62.8854 1264.51 Q60.6863 1264.51 58.2326 1265.27 Q55.8021 1266.04 53.0243 1267.59 L53.0243 1262.86 Q55.8484 1261.73 58.3021 1261.15 Q60.7558 1260.57 62.7928 1260.57 Q68.1631 1260.57 71.3576 1263.26 Q74.552 1265.94 74.552 1270.43 Q74.552 1272.56 73.7418 1274.49 Q72.9548 1276.38 70.8483 1278.98 Q70.2696 1279.65 67.1678 1282.86 Q64.0659 1286.06 58.4178 1291.82 Z" fill="#000000" fill-rule="evenodd" fill-opacity="1" /><path clip-path="url(#clip490)" d="M65.1539 792.599 L53.3484 811.048 L65.1539 811.048 L65.1539 792.599 M63.927 788.525 L69.8066 788.525 L69.8066 811.048 L74.7372 811.048 L74.7372 814.937 L69.8066 814.937 L69.8066 823.085 L65.1539 823.085 L65.1539 814.937 L49.5521 814.937 L49.5521 810.423 L63.927 788.525 Z" fill="#000000" fill-rule="evenodd" fill-opacity="1" /><path clip-path="url(#clip490)" d="M63.2095 331.269 Q60.0613 331.269 58.2095 333.422 Q56.3808 335.574 56.3808 339.324 Q56.3808 343.051 58.2095 345.227 Q60.0613 347.38 63.2095 347.38 Q66.3576 347.38 68.1863 345.227 Q70.0381 343.051 70.0381 339.324 Q70.0381 335.574 68.1863 333.422 Q66.3576 331.269 63.2095 331.269 M72.4918 316.616 L72.4918 320.875 Q70.7326 320.042 68.927 319.602 Q67.1446 319.162 65.3854 319.162 Q60.7558 319.162 58.3021 322.287 Q55.8715 325.412 55.5243 331.732 Q56.89 329.718 58.9502 328.653 Q61.0104 327.565 63.4872 327.565 Q68.6955 327.565 71.7048 330.737 Q74.7372 333.885 74.7372 339.324 Q74.7372 344.648 71.589 347.866 Q68.4409 351.084 63.2095 351.084 Q57.2141 351.084 54.0428 346.5 Q50.8716 341.894 50.8716 333.167 Q50.8716 324.973 54.7604 320.112 Q58.6493 315.227 65.2002 315.227 Q66.9594 315.227 68.7418 315.575 Q70.5474 315.922 72.4918 316.616 Z" fill="#000000" fill-rule="evenodd" fill-opacity="1" /><polyline clip-path="url(#clip492)" style="stroke:#009af9; stroke-linecap:butt; stroke-linejoin:round; stroke-width:4; stroke-opacity:1; fill:none" points="
  186.539,1751.15 206.423,1750.01 226.282,1748.78 246.116,1747.47 265.922,1746.09 357.114,1738.62 447.603,1729.44 537.286,1718.57 626.059,1706.05 713.82,1691.9 
  800.469,1676.16 885.909,1658.86 970.042,1640.05 1069.3,1615.49 1166.39,1588.87 1261.13,1560.3 1353.4,1529.85 1429.37,1502.71 1503.39,1474.35 1575.37,1444.85 
  1645.24,1414.26 1718.67,1379.88 1789.43,1344.38 1857.46,1307.86 1922.66,1270.4 1980.21,1235.13 2035.26,1199.21 2087.75,1162.74 2137.65,1125.78 2188.22,1085.72 
  2235.72,1045.28 2280.11,1004.58 2321.37,963.7 2365.21,916.259 2404.79,868.874 2440.08,821.7 2471.07,774.889 2495.01,733.715 2515.57,693.051 2532.77,653.001 
  2546.63,613.666 2556.05,579.84 2562.95,546.707 2567.34,514.33 2569.27,482.773 2568.6,449.374 2565.09,417.099 2558.78,386.022 2549.73,356.216 2537.93,327.584 
  2523.49,300.374 2506.48,274.649 2486.98,250.468 2462.6,225.599 2435.38,202.758 2405.44,182.01 2372.89,163.413 2339.61,147.764 2304.2,134.151 2266.77,122.609 
  2227.43,113.167 2184.64,105.604 2140.05,100.358 2093.8,97.4449 2046.03,96.8724 2004.75,98.2064 1962.57,101.198 1919.59,105.84 1875.89,112.125 1821.67,122.006 
  1766.66,134.287 1711,148.932 1654.85,165.899 1603.1,183.436 1551.18,202.837 1499.2,224.052 1447.26,247.031 1399.42,269.77 1351.79,293.917 1304.46,319.421 
  1257.5,346.229 1210.39,374.654 1163.81,404.298 1117.84,435.095 1072.56,466.979 973.86,542.036 879.62,621.385 798.594,696.274 722.136,773.304 680.553,818.1 
  640.63,863.238 602.413,908.587 565.94,954.01 533.751,996.018 503.103,1037.87 474.009,1079.45 446.476,1120.66 420.865,1160.83 396.771,1200.43 374.188,1239.37 
  353.102,1277.54 316.365,1349.14 285.024,1416.81 270.973,1449.77 258.237,1481.45 246.77,1511.76 236.526,1540.62 226.642,1570.5 218.09,1598.47 210.789,1624.42 
  204.656,1648.29 200.884,1664.28 197.647,1679.09 194.908,1692.7 192.63,1705.1 189.303,1726.13 187.349,1742.03 187.088,1744.65 186.868,1747.04 186.686,1749.21 
  186.539,1751.15 
  "/>
<path clip-path="url(#clip490)" d="
M2223.5 209.375 L2556.57 209.375 L2556.57 105.695 L2223.5 105.695  Z
  " fill="#ffffff" fill-rule="evenodd" fill-opacity="1"/>
<polyline clip-path="url(#clip490)" style="stroke:#000000; stroke-linecap:butt; stroke-linejoin:round; stroke-width:4; stroke-opacity:1; fill:none" points="
  2223.5,209.375 2556.57,209.375 2556.57,105.695 2223.5,105.695 2223.5,209.375 
  "/>
<polyline clip-path="url(#clip490)" style="stroke:#009af9; stroke-linecap:butt; stroke-linejoin:round; stroke-width:4; stroke-opacity:1; fill:none" points="
  2251.57,157.535 2419.95,157.535 
  "/>
<path clip-path="url(#clip490)" d="M2461.85 177.223 Q2460.05 181.852 2458.33 183.264 Q2456.62 184.676 2453.75 184.676 L2450.35 184.676 L2450.35 181.112 L2452.85 181.112 Q2454.61 181.112 2455.58 180.278 Q2456.55 179.445 2457.73 176.343 L2458.5 174.399 L2448.01 148.889 L2452.52 148.889 L2460.62 169.167 L2468.73 148.889 L2473.24 148.889 L2461.85 177.223 Z" fill="#000000" fill-rule="evenodd" fill-opacity="1" /><path clip-path="url(#clip490)" d="M2480.53 170.88 L2488.17 170.88 L2488.17 144.515 L2479.86 146.181 L2479.86 141.922 L2488.12 140.255 L2492.8 140.255 L2492.8 170.88 L2500.44 170.88 L2500.44 174.815 L2480.53 174.815 L2480.53 170.88 Z" fill="#000000" fill-rule="evenodd" fill-opacity="1" /></svg>
