<?xml version="1.0" encoding="utf-8"?>
<svg xmlns="http://www.w3.org/2000/svg" xmlns:xlink="http://www.w3.org/1999/xlink" width="672" height="480" viewBox="0 0 2688 1920">
<defs>
  <clipPath id="clip450">
    <rect x="0" y="0" width="2688" height="1920"/>
  </clipPath>
</defs>
<path clip-path="url(#clip450)" d="
M0 1920 L2688 1920 L2688 0 L0 0  Z
  " fill="#ffffff" fill-rule="evenodd" fill-opacity="1"/>
<defs>
  <clipPath id="clip451">
    <rect x="537" y="0" width="1883" height="1883"/>
  </clipPath>
</defs>
<path clip-path="url(#clip450)" d="
M115.057 1800.78 L2640.76 1800.78 L2640.76 47.2441 L115.057 47.2441  Z
  " fill="#ffffff" fill-rule="evenodd" fill-opacity="1"/>
<defs>
  <clipPath id="clip452">
    <rect x="115" y="47" width="2527" height="1755"/>
  </clipPath>
</defs>
<polyline clip-path="url(#clip452)" style="stroke:#000000; stroke-linecap:butt; stroke-linejoin:round; stroke-width:2; stroke-opacity:0.1; fill:none" points="
  404.988,1800.78 404.988,47.2441 
  "/>
<polyline clip-path="url(#clip452)" style="stroke:#000000; stroke-linecap:butt; stroke-linejoin:round; stroke-width:2; stroke-opacity:0.1; fill:none" points="
  977.223,1800.78 977.223,47.2441 
  "/>
<polyline clip-path="url(#clip452)" style="stroke:#000000; stroke-linecap:butt; stroke-linejoin:round; stroke-width:2; stroke-opacity:0.1; fill:none" points="
  1549.46,1800.78 1549.46,47.2441 
  "/>
<polyline clip-path="url(#clip452)" style="stroke:#000000; stroke-linecap:butt; stroke-linejoin:round; stroke-width:2; stroke-opacity:0.1; fill:none" points="
  2121.69,1800.78 2121.69,47.2441 
  "/>
<polyline clip-path="url(#clip450)" style="stroke:#000000; stroke-linecap:butt; stroke-linejoin:round; stroke-width:4; stroke-opacity:1; fill:none" points="
  115.057,1800.78 2640.76,1800.78 
  "/>
<polyline clip-path="url(#clip450)" style="stroke:#000000; stroke-linecap:butt; stroke-linejoin:round; stroke-width:4; stroke-opacity:1; fill:none" points="
  404.988,1800.78 404.988,1781.88 
  "/>
<polyline clip-path="url(#clip450)" style="stroke:#000000; stroke-linecap:butt; stroke-linejoin:round; stroke-width:4; stroke-opacity:1; fill:none" points="
  977.223,1800.78 977.223,1781.88 
  "/>
<polyline clip-path="url(#clip450)" style="stroke:#000000; stroke-linecap:butt; stroke-linejoin:round; stroke-width:4; stroke-opacity:1; fill:none" points="
  1549.46,1800.78 1549.46,1781.88 
  "/>
<polyline clip-path="url(#clip450)" style="stroke:#000000; stroke-linecap:butt; stroke-linejoin:round; stroke-width:4; stroke-opacity:1; fill:none" points="
  2121.69,1800.78 2121.69,1781.88 
  "/>
<path clip-path="url(#clip450)" d="M359.051 1848.65 L388.727 1848.65 L388.727 1852.59 L359.051 1852.59 L359.051 1848.65 Z" fill="#000000" fill-rule="evenodd" fill-opacity="1" /><path clip-path="url(#clip450)" d="M399.63 1861.55 L407.268 1861.55 L407.268 1835.18 L398.958 1836.85 L398.958 1832.59 L407.222 1830.92 L411.898 1830.92 L411.898 1861.55 L419.537 1861.55 L419.537 1865.48 L399.63 1865.48 L399.63 1861.55 Z" fill="#000000" fill-rule="evenodd" fill-opacity="1" /><path clip-path="url(#clip450)" d="M438.981 1834 Q435.37 1834 433.541 1837.57 Q431.736 1841.11 431.736 1848.24 Q431.736 1855.34 433.541 1858.91 Q435.37 1862.45 438.981 1862.45 Q442.615 1862.45 444.421 1858.91 Q446.25 1855.34 446.25 1848.24 Q446.25 1841.11 444.421 1837.57 Q442.615 1834 438.981 1834 M438.981 1830.3 Q444.791 1830.3 447.847 1834.9 Q450.926 1839.49 450.926 1848.24 Q450.926 1856.96 447.847 1861.57 Q444.791 1866.15 438.981 1866.15 Q433.171 1866.15 430.092 1861.57 Q427.037 1856.96 427.037 1848.24 Q427.037 1839.49 430.092 1834.9 Q433.171 1830.3 438.981 1830.3 Z" fill="#000000" fill-rule="evenodd" fill-opacity="1" /><path clip-path="url(#clip450)" d="M946.864 1848.65 L976.54 1848.65 L976.54 1852.59 L946.864 1852.59 L946.864 1848.65 Z" fill="#000000" fill-rule="evenodd" fill-opacity="1" /><path clip-path="url(#clip450)" d="M986.679 1830.92 L1005.04 1830.92 L1005.04 1834.86 L990.961 1834.86 L990.961 1843.33 Q991.98 1842.98 992.998 1842.82 Q994.017 1842.64 995.035 1842.64 Q1000.82 1842.64 1004.2 1845.81 Q1007.58 1848.98 1007.58 1854.4 Q1007.58 1859.97 1004.11 1863.08 Q1000.64 1866.15 994.318 1866.15 Q992.142 1866.15 989.873 1865.78 Q987.628 1865.41 985.221 1864.67 L985.221 1859.97 Q987.304 1861.11 989.526 1861.66 Q991.748 1862.22 994.225 1862.22 Q998.23 1862.22 1000.57 1860.11 Q1002.91 1858.01 1002.91 1854.4 Q1002.91 1850.78 1000.57 1848.68 Q998.23 1846.57 994.225 1846.57 Q992.35 1846.57 990.475 1846.99 Q988.623 1847.4 986.679 1848.28 L986.679 1830.92 Z" fill="#000000" fill-rule="evenodd" fill-opacity="1" /><path clip-path="url(#clip450)" d="M1549.46 1834 Q1545.85 1834 1544.02 1837.57 Q1542.21 1841.11 1542.21 1848.24 Q1542.21 1855.34 1544.02 1858.91 Q1545.85 1862.45 1549.46 1862.45 Q1553.09 1862.45 1554.9 1858.91 Q1556.73 1855.34 1556.73 1848.24 Q1556.73 1841.11 1554.9 1837.57 Q1553.09 1834 1549.46 1834 M1549.46 1830.3 Q1555.27 1830.3 1558.32 1834.9 Q1561.4 1839.49 1561.4 1848.24 Q1561.4 1856.96 1558.32 1861.57 Q1555.27 1866.15 1549.46 1866.15 Q1543.65 1866.15 1540.57 1861.57 Q1537.51 1856.96 1537.51 1848.24 Q1537.51 1839.49 1540.57 1834.9 Q1543.65 1830.3 1549.46 1830.3 Z" fill="#000000" fill-rule="evenodd" fill-opacity="1" /><path clip-path="url(#clip450)" d="M2111.97 1830.92 L2130.33 1830.92 L2130.33 1834.86 L2116.25 1834.86 L2116.25 1843.33 Q2117.27 1842.98 2118.29 1842.82 Q2119.31 1842.64 2120.33 1842.64 Q2126.11 1842.64 2129.49 1845.81 Q2132.87 1848.98 2132.87 1854.4 Q2132.87 1859.97 2129.4 1863.08 Q2125.93 1866.15 2119.61 1866.15 Q2117.43 1866.15 2115.16 1865.78 Q2112.92 1865.41 2110.51 1864.67 L2110.51 1859.97 Q2112.6 1861.11 2114.82 1861.66 Q2117.04 1862.22 2119.52 1862.22 Q2123.52 1862.22 2125.86 1860.11 Q2128.2 1858.01 2128.2 1854.4 Q2128.2 1850.78 2125.86 1848.68 Q2123.52 1846.57 2119.52 1846.57 Q2117.64 1846.57 2115.77 1846.99 Q2113.91 1847.4 2111.97 1848.28 L2111.97 1830.92 Z" fill="#000000" fill-rule="evenodd" fill-opacity="1" /><polyline clip-path="url(#clip452)" style="stroke:#000000; stroke-linecap:butt; stroke-linejoin:round; stroke-width:2; stroke-opacity:0.1; fill:none" points="
  115.057,1745.43 2640.76,1745.43 
  "/>
<polyline clip-path="url(#clip452)" style="stroke:#000000; stroke-linecap:butt; stroke-linejoin:round; stroke-width:2; stroke-opacity:0.1; fill:none" points="
  115.057,1379.07 2640.76,1379.07 
  "/>
<polyline clip-path="url(#clip452)" style="stroke:#000000; stroke-linecap:butt; stroke-linejoin:round; stroke-width:2; stroke-opacity:0.1; fill:none" points="
  115.057,1012.72 2640.76,1012.72 
  "/>
<polyline clip-path="url(#clip452)" style="stroke:#000000; stroke-linecap:butt; stroke-linejoin:round; stroke-width:2; stroke-opacity:0.1; fill:none" points="
  115.057,646.361 2640.76,646.361 
  "/>
<polyline clip-path="url(#clip452)" style="stroke:#000000; stroke-linecap:butt; stroke-linejoin:round; stroke-width:2; stroke-opacity:0.1; fill:none" points="
  115.057,280.005 2640.76,280.005 
  "/>
<polyline clip-path="url(#clip450)" style="stroke:#000000; stroke-linecap:butt; stroke-linejoin:round; stroke-width:4; stroke-opacity:1; fill:none" points="
  115.057,1800.78 115.057,47.2441 
  "/>
<polyline clip-path="url(#clip450)" style="stroke:#000000; stroke-linecap:butt; stroke-linejoin:round; stroke-width:4; stroke-opacity:1; fill:none" points="
  115.057,1745.43 133.955,1745.43 
  "/>
<polyline clip-path="url(#clip450)" style="stroke:#000000; stroke-linecap:butt; stroke-linejoin:round; stroke-width:4; stroke-opacity:1; fill:none" points="
  115.057,1379.07 133.955,1379.07 
  "/>
<polyline clip-path="url(#clip450)" style="stroke:#000000; stroke-linecap:butt; stroke-linejoin:round; stroke-width:4; stroke-opacity:1; fill:none" points="
  115.057,1012.72 133.955,1012.72 
  "/>
<polyline clip-path="url(#clip450)" style="stroke:#000000; stroke-linecap:butt; stroke-linejoin:round; stroke-width:4; stroke-opacity:1; fill:none" points="
  115.057,646.361 133.955,646.361 
  "/>
<polyline clip-path="url(#clip450)" style="stroke:#000000; stroke-linecap:butt; stroke-linejoin:round; stroke-width:4; stroke-opacity:1; fill:none" points="
  115.057,280.005 133.955,280.005 
  "/>
<path clip-path="url(#clip450)" d="M62.7928 1731.23 Q59.1817 1731.23 57.353 1734.79 Q55.5475 1738.33 55.5475 1745.46 Q55.5475 1752.57 57.353 1756.13 Q59.1817 1759.68 62.7928 1759.68 Q66.427 1759.68 68.2326 1756.13 Q70.0613 1752.57 70.0613 1745.46 Q70.0613 1738.33 68.2326 1734.79 Q66.427 1731.23 62.7928 1731.23 M62.7928 1727.52 Q68.6029 1727.52 71.6585 1732.13 Q74.7372 1736.71 74.7372 1745.46 Q74.7372 1754.19 71.6585 1758.8 Q68.6029 1763.38 62.7928 1763.38 Q56.9826 1763.38 53.904 1758.8 Q50.8484 1754.19 50.8484 1745.46 Q50.8484 1736.71 53.904 1732.13 Q56.9826 1727.52 62.7928 1727.52 Z" fill="#000000" fill-rule="evenodd" fill-opacity="1" /><path clip-path="url(#clip450)" d="M58.4178 1392.42 L74.7372 1392.42 L74.7372 1396.35 L52.7928 1396.35 L52.7928 1392.42 Q55.4549 1389.66 60.0382 1385.03 Q64.6446 1380.38 65.8252 1379.04 Q68.0705 1376.51 68.9502 1374.78 Q69.8529 1373.02 69.8529 1371.33 Q69.8529 1368.58 67.9085 1366.84 Q65.9872 1365.1 62.8854 1365.1 Q60.6863 1365.1 58.2326 1365.87 Q55.8021 1366.63 53.0243 1368.18 L53.0243 1363.46 Q55.8484 1362.33 58.3021 1361.75 Q60.7558 1361.17 62.7928 1361.17 Q68.1631 1361.17 71.3576 1363.85 Q74.552 1366.54 74.552 1371.03 Q74.552 1373.16 73.7418 1375.08 Q72.9548 1376.98 70.8483 1379.57 Q70.2696 1380.24 67.1678 1383.46 Q64.0659 1386.65 58.4178 1392.42 Z" fill="#000000" fill-rule="evenodd" fill-opacity="1" /><path clip-path="url(#clip450)" d="M65.1539 999.511 L53.3484 1017.96 L65.1539 1017.96 L65.1539 999.511 M63.927 995.437 L69.8066 995.437 L69.8066 1017.96 L74.7372 1017.96 L74.7372 1021.85 L69.8066 1021.85 L69.8066 1030 L65.1539 1030 L65.1539 1021.85 L49.5521 1021.85 L49.5521 1017.33 L63.927 995.437 Z" fill="#000000" fill-rule="evenodd" fill-opacity="1" /><path clip-path="url(#clip450)" d="M63.2095 644.498 Q60.0613 644.498 58.2095 646.65 Q56.3808 648.803 56.3808 652.553 Q56.3808 656.28 58.2095 658.456 Q60.0613 660.609 63.2095 660.609 Q66.3576 660.609 68.1863 658.456 Q70.0381 656.28 70.0381 652.553 Q70.0381 648.803 68.1863 646.65 Q66.3576 644.498 63.2095 644.498 M72.4918 629.845 L72.4918 634.104 Q70.7326 633.271 68.927 632.831 Q67.1446 632.391 65.3854 632.391 Q60.7558 632.391 58.3021 635.516 Q55.8715 638.641 55.5243 644.961 Q56.89 642.947 58.9502 641.882 Q61.0104 640.794 63.4872 640.794 Q68.6955 640.794 71.7048 643.965 Q74.7372 647.113 74.7372 652.553 Q74.7372 657.877 71.589 661.095 Q68.4409 664.312 63.2095 664.312 Q57.2141 664.312 54.0428 659.729 Q50.8716 655.123 50.8716 646.396 Q50.8716 638.201 54.7604 633.34 Q58.6493 628.456 65.2002 628.456 Q66.9594 628.456 68.7418 628.803 Q70.5474 629.151 72.4918 629.845 Z" fill="#000000" fill-rule="evenodd" fill-opacity="1" /><path clip-path="url(#clip450)" d="M62.8854 280.873 Q59.5521 280.873 57.6308 282.656 Q55.7326 284.438 55.7326 287.563 Q55.7326 290.688 57.6308 292.47 Q59.5521 294.253 62.8854 294.253 Q66.2187 294.253 68.14 292.47 Q70.0613 290.665 70.0613 287.563 Q70.0613 284.438 68.14 282.656 Q66.2419 280.873 62.8854 280.873 M58.2095 278.883 Q55.2002 278.142 53.5104 276.082 Q51.8438 274.021 51.8438 271.059 Q51.8438 266.915 54.7836 264.508 Q57.7465 262.1 62.8854 262.1 Q68.0474 262.1 70.9872 264.508 Q73.927 266.915 73.927 271.059 Q73.927 274.021 72.2372 276.082 Q70.5705 278.142 67.5844 278.883 Q70.964 279.67 72.839 281.961 Q74.7372 284.253 74.7372 287.563 Q74.7372 292.586 71.6585 295.271 Q68.6029 297.957 62.8854 297.957 Q57.1678 297.957 54.0891 295.271 Q51.0336 292.586 51.0336 287.563 Q51.0336 284.253 52.9317 281.961 Q54.8299 279.67 58.2095 278.883 M56.4965 271.498 Q56.4965 274.184 58.1632 275.688 Q59.853 277.193 62.8854 277.193 Q65.8946 277.193 67.5844 275.688 Q69.2974 274.184 69.2974 271.498 Q69.2974 268.813 67.5844 267.309 Q65.8946 265.804 62.8854 265.804 Q59.853 265.804 58.1632 267.309 Q56.4965 268.813 56.4965 271.498 Z" fill="#000000" fill-rule="evenodd" fill-opacity="1" /><polyline clip-path="url(#clip452)" style="stroke:#009af9; stroke-linecap:butt; stroke-linejoin:round; stroke-width:4; stroke-opacity:1; fill:none" points="
  1320.56,1745.43 1358.03,1748.56 1395.51,1750.47 1432.96,1751.15 1470.34,1750.61 1513.41,1748.47 1556.27,1744.72 1598.87,1739.38 1641.14,1732.45 1683.04,1723.97 
  1724.5,1713.97 1765.46,1702.46 1805.88,1689.49 1845.69,1675.08 1884.85,1659.29 1923.29,1642.15 1960.99,1623.7 1997.87,1604 2033.9,1583.09 2069.04,1561.03 
  2103.23,1537.87 2168.62,1488.51 2229.76,1435.49 2286.39,1379.34 2338.24,1320.61 2385.13,1259.87 2426.87,1197.71 2463.34,1134.73 2494.44,1071.53 2510.53,1033.7 
  2524.66,996.134 2536.82,958.971 2547.03,922.336 2555.29,886.353 2561.62,851.147 2566.05,816.838 2568.59,783.543 2569.27,751.376 2568.14,720.447 2565.23,690.861 
  2560.58,662.719 2554.23,636.117 2546.25,611.145 2536.68,587.889 2525.59,566.427 2515.07,549.736 2503.53,534.42 2491.03,520.516 2477.6,508.059 2463.29,497.079 
  2448.14,487.601 2432.2,479.65 2415.5,473.245 2398.11,468.401 2380.06,465.129 2361.41,463.438 2342.2,463.332 2322.49,464.811 2302.31,467.871 2281.73,472.506 
  2260.79,478.703 2237.7,487.188 2214.3,497.475 2190.67,509.535 2166.86,523.333 2142.93,538.83 2118.94,555.981 2094.97,574.737 2071.05,595.045 2047.25,616.846 
  2023.62,640.077 2000.22,664.672 1977.1,690.561 1954.3,717.669 1931.88,745.918 1909.88,775.226 1888.33,805.511 1849.96,863.612 1813.51,924.161 1779.19,986.565 
  1747.17,1050.21 1717.57,1114.46 1690.49,1178.69 1665.99,1242.26 1644.09,1304.53 1623.5,1369.15 1605.84,1430.81 1598.08,1460.31 1591,1488.8 1584.6,1516.2 
  1578.85,1542.43 1573.73,1567.42 1569.2,1591.08 1565.25,1613.34 1561.83,1634.14 1558.93,1653.42 1556.49,1671.11 1554.49,1687.15 1552.89,1701.5 1551.49,1715.94 
  1550.49,1727.98 1549.85,1737.56 1549.49,1744.62 1549.34,1749.14 1549.33,1751.08 1549.4,1750.41 1549.45,1747.12 1549.43,1741.22 1549.26,1732.71 1548.87,1721.61 
  1548.17,1707.93 1547.12,1691.71 1545.62,1673.01 1543.62,1651.86 1541.04,1628.33 1538.22,1605.48 1534.86,1580.87 1530.9,1554.54 1526.32,1526.56 1521.07,1497.01 
  1515.12,1465.96 1508.44,1433.48 1500.98,1399.65 1492.74,1364.58 1483.67,1328.33 1473.76,1291.01 1462.98,1252.71 1438.78,1173.58 1410.96,1091.76 1383.54,1018.47 
  1353.3,944.368 1320.27,870.047 1284.51,796.114 1246.12,723.172 1205.22,651.817 1161.98,582.635 1116.57,516.193 1090.98,481.324 1064.85,447.517 1038.23,414.855 
  1011.14,383.418 983.644,353.284 955.781,324.526 927.603,297.215 899.16,271.419 870.504,247.199 841.689,224.617 812.771,203.727 783.807,184.58 754.855,167.225 
  725.973,151.704 697.222,138.054 668.663,126.31 640.189,116.448 612.033,108.568 584.26,102.69 556.931,98.8287 530.112,96.9931 503.864,97.1881 478.251,99.4133 
  453.334,103.663 429.177,109.927 405.84,118.189 383.382,128.429 361.862,140.621 341.339,154.735 321.868,170.736 303.504,188.583 286.3,208.233 268.69,231.997 
  252.626,257.833 238.172,285.66 225.386,315.396 214.324,346.949 205.039,380.224 197.579,415.12 191.987,451.53 188.304,489.344 186.564,528.449 186.798,568.725 
  189.033,610.051 193.289,652.302 199.583,695.35 207.925,739.066 218.323,783.317 230.125,825.798 243.785,868.527 259.297,911.39 276.648,954.27 295.822,997.051 
  316.8,1039.62 339.557,1081.86 364.065,1123.65 390.292,1164.89 418.202,1205.46 447.754,1245.26 478.904,1284.18 545.807,1358.98 618.486,1429.05 658.396,1463.38 
  699.666,1496.13 742.222,1527.22 785.982,1556.57 830.866,1584.08 876.789,1609.7 923.662,1633.35 971.396,1654.96 1019.9,1674.49 1069.08,1691.88 1118.84,1707.1 
  1169.08,1720.09 1219.7,1730.85 1270.62,1739.33 1321.72,1745.54 1372.9,1749.47 1415.99,1750.99 1459,1750.9 1501.89,1749.21 1544.59,1745.91 1587.04,1741.02 
  1629.19,1734.58 1670.98,1726.58 1712.36,1717.07 1753.26,1706.06 1793.64,1693.59 1833.43,1679.69 1872.59,1664.41 1911.07,1647.78 1948.82,1629.84 1985.78,1610.64 
  2021.91,1590.23 2064.83,1563.76 2106.38,1535.65 2146.46,1506.03 2185.02,1474.99 2221.98,1442.65 2257.29,1409.13 2290.88,1374.55 2322.71,1339.04 2352.73,1302.72 
  2380.89,1265.72 2407.16,1228.17 2431.51,1190.22 2453.9,1151.99 2474.33,1113.62 2492.77,1075.24 2509.2,1036.99 2522.51,1002.18 2534.13,967.694 2544.07,933.636 
  2552.34,900.104 2558.96,867.196 2563.92,835.011 2567.27,803.641 2569.01,773.179 2569.16,743.714 2567.77,715.332 2564.86,688.116 2560.46,662.145 2554.61,637.496 
  2547.36,614.24 2538.74,592.444 2528.81,572.173 2518.5,554.857 2507.15,538.934 2494.8,524.445 2481.48,511.425 2467.25,499.906 2452.15,489.917 2436.23,481.483 
  2419.53,474.625 2402.1,469.359 2384,465.699 2365.26,463.654 2345.94,463.229 2326.1,464.425 2305.78,467.239 2285.03,471.663 2263.91,477.688 2242.19,485.407 
  2220.18,494.733 2197.95,505.642 2175.55,518.106 2153.02,532.094 2130.42,547.57 2107.8,564.495 2085.21,582.825 2062.7,602.514 2040.3,623.512 2018.07,645.765 
  1996.06,669.216 1952.83,719.47 1910.95,773.762 1865.96,838.718 1823.38,907.211 1783.53,978.358 1746.67,1051.24 1713,1124.91 1682.65,1198.41 1655.7,1270.79 
  1632.18,1341.09 1613.79,1402.22 1598.1,1460.22 1591.23,1487.84 1585,1514.45 1579.38,1539.96 1574.35,1564.3 1569.88,1587.41 1565.96,1609.23 1562.54,1629.68 
  1559.61,1648.71 1557.14,1666.26 1555.08,1682.29 1553.4,1696.74 1552.08,1709.57 1550.95,1722.21 1550.16,1732.63 1549.67,1740.76 1549.41,1746.58 1549.33,1750.05 
  1549.35,1751.15 1549.41,1749.86 1549.46,1746.17 1549.42,1740.08 1549.23,1731.6 1548.83,1720.74 1548.15,1707.52 1547.14,1691.99 1545.72,1674.16 1543.84,1654.1 
  1541.45,1631.85 1538.72,1609.35 1535.46,1585.08 1531.61,1559.09 1527.15,1531.46 1522.03,1502.25 1516.22,1471.53 1509.68,1439.37 1502.39,1405.87 1494.31,1371.1 
  1485.42,1335.15 1475.69,1298.11 1465.11,1260.09 1441.31,1181.45 1413.91,1100.06 1383.33,1017.95 1349.21,934.809 1311.58,851.496 1270.54,768.861 1226.26,687.752 
  1178.91,609.004 1128.75,533.43 1076.07,461.811 1049.68,428.692 1022.82,396.761 995.533,366.097 967.857,336.774 939.845,308.864 911.547,282.436 883.013,257.554 
  854.297,234.28 825.454,212.67 796.54,192.778 767.612,174.652 738.729,158.337 709.949,143.873 681.334,131.295 652.943,120.634 624.838,111.917 596.389,105.021 
  568.373,100.207 540.855,97.4888 513.904,96.8724 487.585,98.3599 461.965,101.947 437.108,107.625 413.079,115.379 389.942,125.189 367.76,137.03 346.593,150.87 
  326.501,166.675 307.542,184.403 289.772,204.01 273.246,225.443 258.015,248.648 242.874,276.036 229.411,305.394 217.683,336.631 207.745,369.651 199.649,404.353 
  193.441,440.629 189.162,478.367 186.851,517.45 186.539,557.76 188.256,599.17 192.023,641.555 197.859,684.784 205.777,728.725 215.784,773.242 227.884,818.2 
  242.072,863.461 266.386,929.468 295.046,995.398 327.983,1060.83 365.105,1125.35 406.298,1188.54 451.425,1250 500.329,1309.35 552.829,1366.22 608.727,1420.24 
  667.806,1471.08 729.83,1518.44 794.547,1562.01 827.834,1582.3 861.693,1601.56 896.089,1619.74 930.986,1636.82 966.348,1652.79 1002.14,1667.62 1038.31,1681.28 
  1074.84,1693.77 1135.45,1711.65 1196.73,1726.25 1258.49,1737.52 1320.56,1745.43 
  "/>
<path clip-path="url(#clip450)" d="
M2223.5 209.375 L2556.57 209.375 L2556.57 105.695 L2223.5 105.695  Z
  " fill="#ffffff" fill-rule="evenodd" fill-opacity="1"/>
<polyline clip-path="url(#clip450)" style="stroke:#000000; stroke-linecap:butt; stroke-linejoin:round; stroke-width:4; stroke-opacity:1; fill:none" points="
  2223.5,209.375 2556.57,209.375 2556.57,105.695 2223.5,105.695 2223.5,209.375 
  "/>
<polyline clip-path="url(#clip450)" style="stroke:#009af9; stroke-linecap:butt; stroke-linejoin:round; stroke-width:4; stroke-opacity:1; fill:none" points="
  2251.57,157.535 2419.95,157.535 
  "/>
<path clip-path="url(#clip450)" d="M2461.85 177.223 Q2460.05 181.852 2458.33 183.264 Q2456.62 184.676 2453.75 184.676 L2450.35 184.676 L2450.35 181.112 L2452.85 181.112 Q2454.61 181.112 2455.58 180.278 Q2456.55 179.445 2457.73 176.343 L2458.5 174.399 L2448.01 148.889 L2452.52 148.889 L2460.62 169.167 L2468.73 148.889 L2473.24 148.889 L2461.85 177.223 Z" fill="#000000" fill-rule="evenodd" fill-opacity="1" /><path clip-path="url(#clip450)" d="M2480.53 170.88 L2488.17 170.88 L2488.17 144.515 L2479.86 146.181 L2479.86 141.922 L2488.12 140.255 L2492.8 140.255 L2492.8 170.88 L2500.44 170.88 L2500.44 174.815 L2480.53 174.815 L2480.53 170.88 Z" fill="#000000" fill-rule="evenodd" fill-opacity="1" /></svg>
