<?xml version="1.0" encoding="utf-8"?>
<svg xmlns="http://www.w3.org/2000/svg" xmlns:xlink="http://www.w3.org/1999/xlink" width="672" height="480" viewBox="0 0 2688 1920">
<defs>
  <clipPath id="clip320">
    <rect x="0" y="0" width="2688" height="1920"/>
  </clipPath>
</defs>
<path clip-path="url(#clip320)" d="
M0 1920 L2688 1920 L2688 0 L0 0  Z
  " fill="#ffffff" fill-rule="evenodd" fill-opacity="1"/>
<defs>
  <clipPath id="clip321">
    <rect x="537" y="0" width="1883" height="1883"/>
  </clipPath>
</defs>
<path clip-path="url(#clip320)" d="
M150.358 1800.78 L2640.76 1800.78 L2640.76 47.2441 L150.358 47.2441  Z
  " fill="#ffffff" fill-rule="evenodd" fill-opacity="1"/>
<defs>
  <clipPath id="clip322">
    <rect x="150" y="47" width="2491" height="1755"/>
  </clipPath>
</defs>
<polyline clip-path="url(#clip322)" style="stroke:#000000; stroke-linecap:butt; stroke-linejoin:round; stroke-width:2; stroke-opacity:0.1; fill:none" points="
  220.841,1800.78 220.841,47.2441 
  "/>
<polyline clip-path="url(#clip322)" style="stroke:#000000; stroke-linecap:butt; stroke-linejoin:round; stroke-width:2; stroke-opacity:0.1; fill:none" points="
  594.765,1800.78 594.765,47.2441 
  "/>
<polyline clip-path="url(#clip322)" style="stroke:#000000; stroke-linecap:butt; stroke-linejoin:round; stroke-width:2; stroke-opacity:0.1; fill:none" points="
  968.688,1800.78 968.688,47.2441 
  "/>
<polyline clip-path="url(#clip322)" style="stroke:#000000; stroke-linecap:butt; stroke-linejoin:round; stroke-width:2; stroke-opacity:0.1; fill:none" points="
  1342.61,1800.78 1342.61,47.2441 
  "/>
<polyline clip-path="url(#clip322)" style="stroke:#000000; stroke-linecap:butt; stroke-linejoin:round; stroke-width:2; stroke-opacity:0.1; fill:none" points="
  1716.54,1800.78 1716.54,47.2441 
  "/>
<polyline clip-path="url(#clip322)" style="stroke:#000000; stroke-linecap:butt; stroke-linejoin:round; stroke-width:2; stroke-opacity:0.1; fill:none" points="
  2090.46,1800.78 2090.46,47.2441 
  "/>
<polyline clip-path="url(#clip322)" style="stroke:#000000; stroke-linecap:butt; stroke-linejoin:round; stroke-width:2; stroke-opacity:0.1; fill:none" points="
  2464.38,1800.78 2464.38,47.2441 
  "/>
<polyline clip-path="url(#clip320)" style="stroke:#000000; stroke-linecap:butt; stroke-linejoin:round; stroke-width:4; stroke-opacity:1; fill:none" points="
  150.358,1800.78 2640.76,1800.78 
  "/>
<polyline clip-path="url(#clip320)" style="stroke:#000000; stroke-linecap:butt; stroke-linejoin:round; stroke-width:4; stroke-opacity:1; fill:none" points="
  220.841,1800.78 220.841,1781.88 
  "/>
<polyline clip-path="url(#clip320)" style="stroke:#000000; stroke-linecap:butt; stroke-linejoin:round; stroke-width:4; stroke-opacity:1; fill:none" points="
  594.765,1800.78 594.765,1781.88 
  "/>
<polyline clip-path="url(#clip320)" style="stroke:#000000; stroke-linecap:butt; stroke-linejoin:round; stroke-width:4; stroke-opacity:1; fill:none" points="
  968.688,1800.78 968.688,1781.88 
  "/>
<polyline clip-path="url(#clip320)" style="stroke:#000000; stroke-linecap:butt; stroke-linejoin:round; stroke-width:4; stroke-opacity:1; fill:none" points="
  1342.61,1800.78 1342.61,1781.88 
  "/>
<polyline clip-path="url(#clip320)" style="stroke:#000000; stroke-linecap:butt; stroke-linejoin:round; stroke-width:4; stroke-opacity:1; fill:none" points="
  1716.54,1800.78 1716.54,1781.88 
  "/>
<polyline clip-path="url(#clip320)" style="stroke:#000000; stroke-linecap:butt; stroke-linejoin:round; stroke-width:4; stroke-opacity:1; fill:none" points="
  2090.46,1800.78 2090.46,1781.88 
  "/>
<polyline clip-path="url(#clip320)" style="stroke:#000000; stroke-linecap:butt; stroke-linejoin:round; stroke-width:4; stroke-opacity:1; fill:none" points="
  2464.38,1800.78 2464.38,1781.88 
  "/>
<path clip-path="url(#clip320)" d="M220.841 1834 Q217.23 1834 215.401 1837.57 Q213.596 1841.11 213.596 1848.24 Q213.596 1855.34 215.401 1858.91 Q217.23 1862.45 220.841 1862.45 Q224.475 1862.45 226.281 1858.91 Q228.109 1855.34 228.109 1848.24 Q228.109 1841.11 226.281 1837.57 Q224.475 1834 220.841 1834 M220.841 1830.3 Q226.651 1830.3 229.707 1834.9 Q232.785 1839.49 232.785 1848.24 Q232.785 1856.96 229.707 1861.57 Q226.651 1866.15 220.841 1866.15 Q215.031 1866.15 211.952 1861.57 Q208.896 1856.96 208.896 1848.24 Q208.896 1839.49 211.952 1834.9 Q215.031 1830.3 220.841 1830.3 Z" fill="#000000" fill-rule="evenodd" fill-opacity="1" /><path clip-path="url(#clip320)" d="M585.147 1861.55 L592.785 1861.55 L592.785 1835.18 L584.475 1836.85 L584.475 1832.59 L592.739 1830.92 L597.415 1830.92 L597.415 1861.55 L605.054 1861.55 L605.054 1865.48 L585.147 1865.48 L585.147 1861.55 Z" fill="#000000" fill-rule="evenodd" fill-opacity="1" /><path clip-path="url(#clip320)" d="M963.341 1861.55 L979.66 1861.55 L979.66 1865.48 L957.716 1865.48 L957.716 1861.55 Q960.378 1858.79 964.961 1854.16 Q969.568 1849.51 970.749 1848.17 Q972.994 1845.65 973.873 1843.91 Q974.776 1842.15 974.776 1840.46 Q974.776 1837.71 972.832 1835.97 Q970.911 1834.23 967.809 1834.23 Q965.61 1834.23 963.156 1835 Q960.725 1835.76 957.948 1837.31 L957.948 1832.59 Q960.772 1831.46 963.225 1830.88 Q965.679 1830.3 967.716 1830.3 Q973.086 1830.3 976.281 1832.98 Q979.475 1835.67 979.475 1840.16 Q979.475 1842.29 978.665 1844.21 Q977.878 1846.11 975.772 1848.7 Q975.193 1849.37 972.091 1852.59 Q968.989 1855.78 963.341 1861.55 Z" fill="#000000" fill-rule="evenodd" fill-opacity="1" /><path clip-path="url(#clip320)" d="M1346.86 1846.85 Q1350.22 1847.57 1352.09 1849.84 Q1353.99 1852.1 1353.99 1855.44 Q1353.99 1860.55 1350.47 1863.35 Q1346.95 1866.15 1340.47 1866.15 Q1338.29 1866.15 1335.98 1865.71 Q1333.69 1865.3 1331.23 1864.44 L1331.23 1859.93 Q1333.18 1861.06 1335.49 1861.64 Q1337.81 1862.22 1340.33 1862.22 Q1344.73 1862.22 1347.02 1860.48 Q1349.34 1858.75 1349.34 1855.44 Q1349.34 1852.38 1347.18 1850.67 Q1345.05 1848.93 1341.23 1848.93 L1337.21 1848.93 L1337.21 1845.09 L1341.42 1845.09 Q1344.87 1845.09 1346.7 1843.72 Q1348.53 1842.34 1348.53 1839.74 Q1348.53 1837.08 1346.63 1835.67 Q1344.75 1834.23 1341.23 1834.23 Q1339.31 1834.23 1337.11 1834.65 Q1334.92 1835.07 1332.28 1835.95 L1332.28 1831.78 Q1334.94 1831.04 1337.25 1830.67 Q1339.59 1830.3 1341.65 1830.3 Q1346.98 1830.3 1350.08 1832.73 Q1353.18 1835.14 1353.18 1839.26 Q1353.18 1842.13 1351.54 1844.12 Q1349.89 1846.09 1346.86 1846.85 Z" fill="#000000" fill-rule="evenodd" fill-opacity="1" /><path clip-path="url(#clip320)" d="M1719.55 1835 L1707.74 1853.45 L1719.55 1853.45 L1719.55 1835 M1718.32 1830.92 L1724.2 1830.92 L1724.2 1853.45 L1729.13 1853.45 L1729.13 1857.34 L1724.2 1857.34 L1724.2 1865.48 L1719.55 1865.48 L1719.55 1857.34 L1703.94 1857.34 L1703.94 1852.82 L1718.32 1830.92 Z" fill="#000000" fill-rule="evenodd" fill-opacity="1" /><path clip-path="url(#clip320)" d="M2080.74 1830.92 L2099.09 1830.92 L2099.09 1834.86 L2085.02 1834.86 L2085.02 1843.33 Q2086.04 1842.98 2087.06 1842.82 Q2088.08 1842.64 2089.09 1842.64 Q2094.88 1842.64 2098.26 1845.81 Q2101.64 1848.98 2101.64 1854.4 Q2101.64 1859.97 2098.17 1863.08 Q2094.7 1866.15 2088.38 1866.15 Q2086.2 1866.15 2083.93 1865.78 Q2081.69 1865.41 2079.28 1864.67 L2079.28 1859.97 Q2081.36 1861.11 2083.58 1861.66 Q2085.81 1862.22 2088.28 1862.22 Q2092.29 1862.22 2094.63 1860.11 Q2096.96 1858.01 2096.96 1854.4 Q2096.96 1850.78 2094.63 1848.68 Q2092.29 1846.57 2088.28 1846.57 Q2086.41 1846.57 2084.53 1846.99 Q2082.68 1847.4 2080.74 1848.28 L2080.74 1830.92 Z" fill="#000000" fill-rule="evenodd" fill-opacity="1" /><path clip-path="url(#clip320)" d="M2464.79 1846.34 Q2461.64 1846.34 2459.79 1848.49 Q2457.96 1850.65 2457.96 1854.4 Q2457.96 1858.12 2459.79 1860.3 Q2461.64 1862.45 2464.79 1862.45 Q2467.94 1862.45 2469.77 1860.3 Q2471.62 1858.12 2471.62 1854.4 Q2471.62 1850.65 2469.77 1848.49 Q2467.94 1846.34 2464.79 1846.34 M2474.07 1831.69 L2474.07 1835.95 Q2472.31 1835.11 2470.51 1834.67 Q2468.72 1834.23 2466.96 1834.23 Q2462.33 1834.23 2459.88 1837.36 Q2457.45 1840.48 2457.1 1846.8 Q2458.47 1844.79 2460.53 1843.72 Q2462.59 1842.64 2465.07 1842.64 Q2470.27 1842.64 2473.28 1845.81 Q2476.32 1848.96 2476.32 1854.4 Q2476.32 1859.72 2473.17 1862.94 Q2470.02 1866.15 2464.79 1866.15 Q2458.79 1866.15 2455.62 1861.57 Q2452.45 1856.96 2452.45 1848.24 Q2452.45 1840.04 2456.34 1835.18 Q2460.23 1830.3 2466.78 1830.3 Q2468.54 1830.3 2470.32 1830.65 Q2472.13 1830.99 2474.07 1831.69 Z" fill="#000000" fill-rule="evenodd" fill-opacity="1" /><polyline clip-path="url(#clip322)" style="stroke:#000000; stroke-linecap:butt; stroke-linejoin:round; stroke-width:2; stroke-opacity:0.1; fill:none" points="
  150.358,1525.61 2640.76,1525.61 
  "/>
<polyline clip-path="url(#clip322)" style="stroke:#000000; stroke-linecap:butt; stroke-linejoin:round; stroke-width:2; stroke-opacity:0.1; fill:none" points="
  150.358,1224.81 2640.76,1224.81 
  "/>
<polyline clip-path="url(#clip322)" style="stroke:#000000; stroke-linecap:butt; stroke-linejoin:round; stroke-width:2; stroke-opacity:0.1; fill:none" points="
  150.358,924.012 2640.76,924.012 
  "/>
<polyline clip-path="url(#clip322)" style="stroke:#000000; stroke-linecap:butt; stroke-linejoin:round; stroke-width:2; stroke-opacity:0.1; fill:none" points="
  150.358,623.211 2640.76,623.211 
  "/>
<polyline clip-path="url(#clip322)" style="stroke:#000000; stroke-linecap:butt; stroke-linejoin:round; stroke-width:2; stroke-opacity:0.1; fill:none" points="
  150.358,322.41 2640.76,322.41 
  "/>
<polyline clip-path="url(#clip320)" style="stroke:#000000; stroke-linecap:butt; stroke-linejoin:round; stroke-width:4; stroke-opacity:1; fill:none" points="
  150.358,1800.78 150.358,47.2441 
  "/>
<polyline clip-path="url(#clip320)" style="stroke:#000000; stroke-linecap:butt; stroke-linejoin:round; stroke-width:4; stroke-opacity:1; fill:none" points="
  150.358,1525.61 169.256,1525.61 
  "/>
<polyline clip-path="url(#clip320)" style="stroke:#000000; stroke-linecap:butt; stroke-linejoin:round; stroke-width:4; stroke-opacity:1; fill:none" points="
  150.358,1224.81 169.256,1224.81 
  "/>
<polyline clip-path="url(#clip320)" style="stroke:#000000; stroke-linecap:butt; stroke-linejoin:round; stroke-width:4; stroke-opacity:1; fill:none" points="
  150.358,924.012 169.256,924.012 
  "/>
<polyline clip-path="url(#clip320)" style="stroke:#000000; stroke-linecap:butt; stroke-linejoin:round; stroke-width:4; stroke-opacity:1; fill:none" points="
  150.358,623.211 169.256,623.211 
  "/>
<polyline clip-path="url(#clip320)" style="stroke:#000000; stroke-linecap:butt; stroke-linejoin:round; stroke-width:4; stroke-opacity:1; fill:none" points="
  150.358,322.41 169.256,322.41 
  "/>
<path clip-path="url(#clip320)" d="M49.9225 1526.06 L79.5983 1526.06 L79.5983 1530 L49.9225 1530 L49.9225 1526.06 Z" fill="#000000" fill-rule="evenodd" fill-opacity="1" /><path clip-path="url(#clip320)" d="M93.7186 1538.96 L110.038 1538.96 L110.038 1542.89 L88.0936 1542.89 L88.0936 1538.96 Q90.7556 1536.2 95.3389 1531.57 Q99.9454 1526.92 101.126 1525.58 Q103.371 1523.06 104.251 1521.32 Q105.154 1519.56 105.154 1517.87 Q105.154 1515.12 103.209 1513.38 Q101.288 1511.64 98.1861 1511.64 Q95.9871 1511.64 93.5334 1512.41 Q91.1028 1513.17 88.3251 1514.72 L88.3251 1510 Q91.1491 1508.87 93.6028 1508.29 Q96.0565 1507.71 98.0935 1507.71 Q103.464 1507.71 106.658 1510.39 Q109.853 1513.08 109.853 1517.57 Q109.853 1519.7 109.043 1521.62 Q108.256 1523.52 106.149 1526.11 Q105.57 1526.78 102.469 1530 Q99.3667 1533.19 93.7186 1538.96 Z" fill="#000000" fill-rule="evenodd" fill-opacity="1" /><path clip-path="url(#clip320)" d="M49.5521 1225.26 L79.2279 1225.26 L79.2279 1229.2 L49.5521 1229.2 L49.5521 1225.26 Z" fill="#000000" fill-rule="evenodd" fill-opacity="1" /><path clip-path="url(#clip320)" d="M90.1306 1238.16 L97.7695 1238.16 L97.7695 1211.79 L89.4593 1213.46 L89.4593 1209.2 L97.7232 1207.53 L102.399 1207.53 L102.399 1238.16 L110.038 1238.16 L110.038 1242.09 L90.1306 1242.09 L90.1306 1238.16 Z" fill="#000000" fill-rule="evenodd" fill-opacity="1" /><path clip-path="url(#clip320)" d="M98.0935 909.81 Q94.4824 909.81 92.6537 913.375 Q90.8482 916.917 90.8482 924.046 Q90.8482 931.153 92.6537 934.718 Q94.4824 938.259 98.0935 938.259 Q101.728 938.259 103.533 934.718 Q105.362 931.153 105.362 924.046 Q105.362 916.917 103.533 913.375 Q101.728 909.81 98.0935 909.81 M98.0935 906.107 Q103.904 906.107 106.959 910.713 Q110.038 915.296 110.038 924.046 Q110.038 932.773 106.959 937.38 Q103.904 941.963 98.0935 941.963 Q92.2834 941.963 89.2047 937.38 Q86.1492 932.773 86.1492 924.046 Q86.1492 915.296 89.2047 910.713 Q92.2834 906.107 98.0935 906.107 Z" fill="#000000" fill-rule="evenodd" fill-opacity="1" /><path clip-path="url(#clip320)" d="M90.1306 636.556 L97.7695 636.556 L97.7695 610.19 L89.4593 611.857 L89.4593 607.598 L97.7232 605.931 L102.399 605.931 L102.399 636.556 L110.038 636.556 L110.038 640.491 L90.1306 640.491 L90.1306 636.556 Z" fill="#000000" fill-rule="evenodd" fill-opacity="1" /><path clip-path="url(#clip320)" d="M93.7186 335.755 L110.038 335.755 L110.038 339.69 L88.0936 339.69 L88.0936 335.755 Q90.7556 333 95.3389 328.371 Q99.9454 323.718 101.126 322.375 Q103.371 319.852 104.251 318.116 Q105.154 316.357 105.154 314.667 Q105.154 311.913 103.209 310.176 Q101.288 308.44 98.1861 308.44 Q95.9871 308.44 93.5334 309.204 Q91.1028 309.968 88.3251 311.519 L88.3251 306.797 Q91.1491 305.663 93.6028 305.084 Q96.0565 304.505 98.0935 304.505 Q103.464 304.505 106.658 307.19 Q109.853 309.876 109.853 314.366 Q109.853 316.496 109.043 318.417 Q108.256 320.315 106.149 322.908 Q105.57 323.579 102.469 326.797 Q99.3667 329.991 93.7186 335.755 Z" fill="#000000" fill-rule="evenodd" fill-opacity="1" /><polyline clip-path="url(#clip322)" style="stroke:#009af9; stroke-linecap:butt; stroke-linejoin:round; stroke-width:4; stroke-opacity:1; fill:none" points="
  220.841,924.012 230.239,856.051 239.636,788.562 249.034,722.013 258.432,656.863 267.83,593.562 277.227,532.542 286.625,474.218 296.023,418.982 305.42,367.201 
  314.818,319.213 324.216,275.326 333.614,235.814 343.011,200.914 352.409,170.829 361.807,145.72 371.205,125.708 380.602,110.877 390,101.265 399.398,96.8724 
  408.795,97.6574 418.193,103.538 427.591,114.394 436.989,130.066 446.386,150.36 455.784,175.048 465.182,203.87 474.58,236.536 483.977,272.731 493.375,312.116 
  502.773,354.333 512.17,399.006 521.568,445.746 530.966,494.155 540.364,543.828 549.761,594.359 559.159,645.342 568.557,696.375 577.955,747.065 587.352,797.033 
  596.75,845.91 606.148,893.348 615.545,939.02 624.943,982.621 634.341,1023.87 643.739,1062.52 653.136,1098.35 662.534,1131.16 671.932,1160.8 681.33,1187.14 
  690.727,1210.09 700.125,1229.6 709.523,1245.63 718.92,1258.2 728.318,1267.36 737.716,1273.17 747.114,1275.73 756.511,1275.19 765.909,1271.69 775.307,1265.42 
  784.705,1256.59 794.102,1245.42 803.5,1232.15 812.898,1217.04 822.295,1200.36 831.693,1182.38 841.091,1163.38 850.489,1143.64 859.886,1123.45 869.284,1103.08 
  878.682,1082.81 888.08,1062.89 897.477,1043.58 906.875,1025.11 916.273,1007.7 925.67,991.546 935.068,976.832 944.466,963.712 953.864,952.318 963.261,942.759 
  972.659,935.116 982.057,929.447 991.455,925.781 1000.85,924.122 1010.25,924.448 1019.65,926.713 1029.05,930.845 1038.44,936.75 1047.84,944.311 1057.24,953.393 
  1066.64,963.84 1076.03,975.483 1085.43,988.136 1094.83,1001.6 1104.23,1015.68 1113.63,1030.15 1123.02,1044.8 1132.42,1059.4 1141.82,1073.75 1151.22,1087.63 
  1160.61,1100.82 1170.01,1113.13 1179.41,1124.37 1188.81,1134.35 1198.2,1142.93 1207.6,1149.95 1217,1155.29 1226.4,1158.83 1235.8,1160.5 1245.19,1160.22 
  1254.59,1157.96 1263.99,1153.69 1273.39,1147.42 1282.78,1139.18 1292.18,1129.01 1301.58,1116.99 1310.98,1103.2 1320.38,1087.77 1329.77,1070.83 1339.17,1052.51 
  1348.57,1033 1357.97,1012.46 1367.36,991.089 1376.76,969.086 1386.16,946.656 1395.56,924.012 1404.95,901.368 1414.35,878.938 1423.75,856.934 1433.15,835.564 
  1442.55,815.026 1451.94,795.511 1461.34,777.198 1470.74,760.252 1480.14,744.821 1489.53,731.038 1498.93,719.015 1508.33,708.846 1517.73,700.602 1527.13,694.333 
  1536.52,690.065 1545.92,687.802 1555.32,687.525 1564.72,689.191 1574.11,692.736 1583.51,698.072 1592.91,705.092 1602.31,713.669 1611.7,723.658 1621.1,734.896 
  1630.5,747.205 1639.9,760.398 1649.3,774.272 1658.69,788.62 1668.09,803.227 1677.49,817.875 1686.89,832.345 1696.28,846.42 1705.68,859.887 1715.08,872.54 
  1724.48,884.183 1733.88,894.631 1743.27,903.712 1752.67,911.274 1762.07,917.178 1771.47,921.31 1780.86,923.575 1790.26,923.902 1799.66,922.243 1809.06,918.577 
  1818.45,912.907 1827.85,905.265 1837.25,895.706 1846.65,884.312 1856.05,871.192 1865.44,856.478 1874.84,840.326 1884.24,822.916 1893.64,804.446 1903.03,785.135 
  1912.43,765.217 1921.83,744.944 1931.23,724.575 1940.63,704.383 1950.02,684.646 1959.42,665.645 1968.82,647.662 1978.22,630.979 1987.61,615.87 1997.01,602.603 
  2006.41,591.433 2015.81,582.602 2025.2,576.336 2034.6,572.838 2044,572.292 2053.4,574.857 2062.8,580.665 2072.19,589.819 2081.59,602.392 2090.99,618.427 
  2100.39,637.933 2109.78,660.886 2119.18,687.228 2128.58,716.867 2137.98,749.678 2147.38,785.504 2156.77,824.153 2166.17,865.403 2175.57,909.003 2184.97,954.675 
  2194.36,1002.11 2203.76,1050.99 2213.16,1100.96 2222.56,1151.65 2231.95,1202.68 2241.35,1253.66 2250.75,1304.19 2260.15,1353.87 2269.55,1402.28 2278.94,1449.02 
  2288.34,1493.69 2297.74,1535.91 2307.14,1575.29 2316.53,1611.49 2325.93,1644.15 2335.33,1672.97 2344.73,1697.66 2354.13,1717.96 2363.52,1733.63 2372.92,1744.49 
  2382.32,1750.37 2391.72,1751.15 2401.11,1746.76 2410.51,1737.15 2419.91,1722.32 2429.31,1702.3 2438.7,1677.19 2448.1,1647.11 2457.5,1612.21 2466.9,1572.7 
  2476.3,1528.81 2485.69,1480.82 2495.09,1429.04 2504.49,1373.81 2513.89,1315.48 2523.28,1254.46 2532.68,1191.16 2542.08,1126.01 2551.48,1059.46 2560.88,991.972 
  2570.27,924.012 
  "/>
<path clip-path="url(#clip320)" d="
M2228.6 209.375 L2557.74 209.375 L2557.74 105.695 L2228.6 105.695  Z
  " fill="#ffffff" fill-rule="evenodd" fill-opacity="1"/>
<polyline clip-path="url(#clip320)" style="stroke:#000000; stroke-linecap:butt; stroke-linejoin:round; stroke-width:4; stroke-opacity:1; fill:none" points="
  2228.6,209.375 2557.74,209.375 2557.74,105.695 2228.6,105.695 2228.6,209.375 
  "/>
<polyline clip-path="url(#clip320)" style="stroke:#009af9; stroke-linecap:butt; stroke-linejoin:round; stroke-width:4; stroke-opacity:1; fill:none" points="
  2256.27,157.535 2422.3,157.535 
  "/>
<path clip-path="url(#clip320)" d="M2463.81 177.223 Q2462.01 181.852 2460.29 183.264 Q2458.58 184.676 2455.71 184.676 L2452.31 184.676 L2452.31 181.112 L2454.81 181.112 Q2456.57 181.112 2457.54 180.278 Q2458.51 179.445 2459.69 176.343 L2460.46 174.399 L2449.97 148.889 L2454.48 148.889 L2462.59 169.167 L2470.69 148.889 L2475.2 148.889 L2463.81 177.223 Z" fill="#000000" fill-rule="evenodd" fill-opacity="1" /><path clip-path="url(#clip320)" d="M2482.49 170.88 L2490.13 170.88 L2490.13 144.515 L2481.82 146.181 L2481.82 141.922 L2490.09 140.255 L2494.76 140.255 L2494.76 170.88 L2502.4 170.88 L2502.4 174.815 L2482.49 174.815 L2482.49 170.88 Z" fill="#000000" fill-rule="evenodd" fill-opacity="1" /></svg>
