<?xml version="1.0" encoding="utf-8"?>
<svg xmlns="http://www.w3.org/2000/svg" xmlns:xlink="http://www.w3.org/1999/xlink" width="672" height="480" viewBox="0 0 2688 1920">
<defs>
  <clipPath id="clip520">
    <rect x="0" y="0" width="2688" height="1920"/>
  </clipPath>
</defs>
<path clip-path="url(#clip520)" d="
M0 1920 L2688 1920 L2688 0 L0 0  Z
  " fill="#ffffff" fill-rule="evenodd" fill-opacity="1"/>
<defs>
  <clipPath id="clip521">
    <rect x="537" y="0" width="1883" height="1883"/>
  </clipPath>
</defs>
<path clip-path="url(#clip520)" d="
M150.358 1800.78 L2640.76 1800.78 L2640.76 47.2441 L150.358 47.2441  Z
  " fill="#ffffff" fill-rule="evenodd" fill-opacity="1"/>
<defs>
  <clipPath id="clip522">
    <rect x="150" y="47" width="2491" height="1755"/>
  </clipPath>
</defs>
<polyline clip-path="url(#clip522)" style="stroke:#000000; stroke-linecap:round; stroke-linejoin:round; stroke-width:2; stroke-opacity:0.1; fill:none" points="
  220.841,1800.78 220.841,47.2441 
  "/>
<polyline clip-path="url(#clip522)" style="stroke:#000000; stroke-linecap:round; stroke-linejoin:round; stroke-width:2; stroke-opacity:0.1; fill:none" points="
  1003.98,1800.78 1003.98,47.2441 
  "/>
<polyline clip-path="url(#clip522)" style="stroke:#000000; stroke-linecap:round; stroke-linejoin:round; stroke-width:2; stroke-opacity:0.1; fill:none" points="
  1787.13,1800.78 1787.13,47.2441 
  "/>
<polyline clip-path="url(#clip522)" style="stroke:#000000; stroke-linecap:round; stroke-linejoin:round; stroke-width:2; stroke-opacity:0.1; fill:none" points="
  2570.27,1800.78 2570.27,47.2441 
  "/>
<polyline clip-path="url(#clip520)" style="stroke:#000000; stroke-linecap:round; stroke-linejoin:round; stroke-width:4; stroke-opacity:1; fill:none" points="
  150.358,1800.78 2640.76,1800.78 
  "/>
<polyline clip-path="url(#clip520)" style="stroke:#000000; stroke-linecap:round; stroke-linejoin:round; stroke-width:4; stroke-opacity:1; fill:none" points="
  220.841,1800.78 220.841,1781.88 
  "/>
<polyline clip-path="url(#clip520)" style="stroke:#000000; stroke-linecap:round; stroke-linejoin:round; stroke-width:4; stroke-opacity:1; fill:none" points="
  1003.98,1800.78 1003.98,1781.88 
  "/>
<polyline clip-path="url(#clip520)" style="stroke:#000000; stroke-linecap:round; stroke-linejoin:round; stroke-width:4; stroke-opacity:1; fill:none" points="
  1787.13,1800.78 1787.13,1781.88 
  "/>
<polyline clip-path="url(#clip520)" style="stroke:#000000; stroke-linecap:round; stroke-linejoin:round; stroke-width:4; stroke-opacity:1; fill:none" points="
  2570.27,1800.78 2570.27,1781.88 
  "/>
<path clip-path="url(#clip520)" d="M220.841 1834 Q217.23 1834 215.401 1837.57 Q213.596 1841.11 213.596 1848.24 Q213.596 1855.34 215.401 1858.91 Q217.23 1862.45 220.841 1862.45 Q224.475 1862.45 226.281 1858.91 Q228.109 1855.34 228.109 1848.24 Q228.109 1841.11 226.281 1837.57 Q224.475 1834 220.841 1834 M220.841 1830.3 Q226.651 1830.3 229.707 1834.9 Q232.785 1839.49 232.785 1848.24 Q232.785 1856.96 229.707 1861.57 Q226.651 1866.15 220.841 1866.15 Q215.031 1866.15 211.952 1861.57 Q208.896 1856.96 208.896 1848.24 Q208.896 1839.49 211.952 1834.9 Q215.031 1830.3 220.841 1830.3 Z" fill="#000000" fill-rule="evenodd" fill-opacity="1" /><path clip-path="url(#clip520)" d="M994.367 1861.55 L1002.01 1861.55 L1002.01 1835.18 L993.696 1836.85 L993.696 1832.59 L1001.96 1830.92 L1006.64 1830.92 L1006.64 1861.55 L1014.27 1861.55 L1014.27 1865.48 L994.367 1865.48 L994.367 1861.55 Z" fill="#000000" fill-rule="evenodd" fill-opacity="1" /><path clip-path="url(#clip520)" d="M1781.78 1861.55 L1798.1 1861.55 L1798.1 1865.48 L1776.16 1865.48 L1776.16 1861.55 Q1778.82 1858.79 1783.4 1854.16 Q1788.01 1849.51 1789.19 1848.17 Q1791.43 1845.65 1792.31 1843.91 Q1793.22 1842.15 1793.22 1840.46 Q1793.22 1837.71 1791.27 1835.97 Q1789.35 1834.23 1786.25 1834.23 Q1784.05 1834.23 1781.6 1835 Q1779.17 1835.76 1776.39 1837.31 L1776.39 1832.59 Q1779.21 1831.46 1781.67 1830.88 Q1784.12 1830.3 1786.16 1830.3 Q1791.53 1830.3 1794.72 1832.98 Q1797.92 1835.67 1797.92 1840.16 Q1797.92 1842.29 1797.11 1844.21 Q1796.32 1846.11 1794.21 1848.7 Q1793.63 1849.37 1790.53 1852.59 Q1787.43 1855.78 1781.78 1861.55 Z" fill="#000000" fill-rule="evenodd" fill-opacity="1" /><path clip-path="url(#clip520)" d="M2574.52 1846.85 Q2577.88 1847.57 2579.75 1849.84 Q2581.65 1852.1 2581.65 1855.44 Q2581.65 1860.55 2578.13 1863.35 Q2574.61 1866.15 2568.13 1866.15 Q2565.96 1866.15 2563.64 1865.71 Q2561.35 1865.3 2558.9 1864.44 L2558.9 1859.93 Q2560.84 1861.06 2563.15 1861.64 Q2565.47 1862.22 2567.99 1862.22 Q2572.39 1862.22 2574.68 1860.48 Q2577 1858.75 2577 1855.44 Q2577 1852.38 2574.84 1850.67 Q2572.72 1848.93 2568.9 1848.93 L2564.87 1848.93 L2564.87 1845.09 L2569.08 1845.09 Q2572.53 1845.09 2574.36 1843.72 Q2576.19 1842.34 2576.19 1839.74 Q2576.19 1837.08 2574.29 1835.67 Q2572.41 1834.23 2568.9 1834.23 Q2566.97 1834.23 2564.78 1834.65 Q2562.58 1835.07 2559.94 1835.95 L2559.94 1831.78 Q2562.6 1831.04 2564.91 1830.67 Q2567.25 1830.3 2569.31 1830.3 Q2574.64 1830.3 2577.74 1832.73 Q2580.84 1835.14 2580.84 1839.26 Q2580.84 1842.13 2579.2 1844.12 Q2577.55 1846.09 2574.52 1846.85 Z" fill="#000000" fill-rule="evenodd" fill-opacity="1" /><polyline clip-path="url(#clip522)" style="stroke:#000000; stroke-linecap:round; stroke-linejoin:round; stroke-width:2; stroke-opacity:0.1; fill:none" points="
  150.358,1751.15 2640.76,1751.15 
  "/>
<polyline clip-path="url(#clip522)" style="stroke:#000000; stroke-linecap:round; stroke-linejoin:round; stroke-width:2; stroke-opacity:0.1; fill:none" points="
  150.358,1199.72 2640.76,1199.72 
  "/>
<polyline clip-path="url(#clip522)" style="stroke:#000000; stroke-linecap:round; stroke-linejoin:round; stroke-width:2; stroke-opacity:0.1; fill:none" points="
  150.358,648.299 2640.76,648.299 
  "/>
<polyline clip-path="url(#clip522)" style="stroke:#000000; stroke-linecap:round; stroke-linejoin:round; stroke-width:2; stroke-opacity:0.1; fill:none" points="
  150.358,96.8724 2640.76,96.8724 
  "/>
<polyline clip-path="url(#clip520)" style="stroke:#000000; stroke-linecap:round; stroke-linejoin:round; stroke-width:4; stroke-opacity:1; fill:none" points="
  150.358,1800.78 150.358,47.2441 
  "/>
<polyline clip-path="url(#clip520)" style="stroke:#000000; stroke-linecap:round; stroke-linejoin:round; stroke-width:4; stroke-opacity:1; fill:none" points="
  150.358,1751.15 169.256,1751.15 
  "/>
<polyline clip-path="url(#clip520)" style="stroke:#000000; stroke-linecap:round; stroke-linejoin:round; stroke-width:4; stroke-opacity:1; fill:none" points="
  150.358,1199.72 169.256,1199.72 
  "/>
<polyline clip-path="url(#clip520)" style="stroke:#000000; stroke-linecap:round; stroke-linejoin:round; stroke-width:4; stroke-opacity:1; fill:none" points="
  150.358,648.299 169.256,648.299 
  "/>
<polyline clip-path="url(#clip520)" style="stroke:#000000; stroke-linecap:round; stroke-linejoin:round; stroke-width:4; stroke-opacity:1; fill:none" points="
  150.358,96.8724 169.256,96.8724 
  "/>
<path clip-path="url(#clip520)" d="M49.5521 1751.6 L79.2279 1751.6 L79.2279 1755.54 L49.5521 1755.54 L49.5521 1751.6 Z" fill="#000000" fill-rule="evenodd" fill-opacity="1" /><path clip-path="url(#clip520)" d="M90.1306 1764.5 L97.7695 1764.5 L97.7695 1738.13 L89.4593 1739.8 L89.4593 1735.54 L97.7232 1733.87 L102.399 1733.87 L102.399 1764.5 L110.038 1764.5 L110.038 1768.43 L90.1306 1768.43 L90.1306 1764.5 Z" fill="#000000" fill-rule="evenodd" fill-opacity="1" /><path clip-path="url(#clip520)" d="M98.0935 1185.52 Q94.4824 1185.52 92.6537 1189.09 Q90.8482 1192.63 90.8482 1199.76 Q90.8482 1206.87 92.6537 1210.43 Q94.4824 1213.97 98.0935 1213.97 Q101.728 1213.97 103.533 1210.43 Q105.362 1206.87 105.362 1199.76 Q105.362 1192.63 103.533 1189.09 Q101.728 1185.52 98.0935 1185.52 M98.0935 1181.82 Q103.904 1181.82 106.959 1186.43 Q110.038 1191.01 110.038 1199.76 Q110.038 1208.49 106.959 1213.09 Q103.904 1217.68 98.0935 1217.68 Q92.2834 1217.68 89.2047 1213.09 Q86.1492 1208.49 86.1492 1199.76 Q86.1492 1191.01 89.2047 1186.43 Q92.2834 1181.82 98.0935 1181.82 Z" fill="#000000" fill-rule="evenodd" fill-opacity="1" /><path clip-path="url(#clip520)" d="M90.1306 661.643 L97.7695 661.643 L97.7695 635.278 L89.4593 636.945 L89.4593 632.685 L97.7232 631.019 L102.399 631.019 L102.399 661.643 L110.038 661.643 L110.038 665.579 L90.1306 665.579 L90.1306 661.643 Z" fill="#000000" fill-rule="evenodd" fill-opacity="1" /><path clip-path="url(#clip520)" d="M93.7186 110.217 L110.038 110.217 L110.038 114.152 L88.0936 114.152 L88.0936 110.217 Q90.7556 107.463 95.3389 102.833 Q99.9454 98.1803 101.126 96.8377 Q103.371 94.3146 104.251 92.5785 Q105.154 90.8192 105.154 89.1294 Q105.154 86.3748 103.209 84.6387 Q101.288 82.9026 98.1861 82.9026 Q95.9871 82.9026 93.5334 83.6665 Q91.1028 84.4304 88.3251 85.9813 L88.3251 81.2591 Q91.1491 80.1249 93.6028 79.5462 Q96.0565 78.9675 98.0935 78.9675 Q103.464 78.9675 106.658 81.6526 Q109.853 84.3378 109.853 88.8285 Q109.853 90.9581 109.043 92.8794 Q108.256 94.7776 106.149 97.3701 Q105.57 98.0414 102.469 101.259 Q99.3667 104.453 93.7186 110.217 Z" fill="#000000" fill-rule="evenodd" fill-opacity="1" /><polyline clip-path="url(#clip522)" style="stroke:#009af9; stroke-linecap:round; stroke-linejoin:round; stroke-width:4; stroke-opacity:1; fill:none" points="
  220.841,1199.72 224.665,1197.04 228.489,1194.37 232.313,1191.71 236.137,1189.06 271.496,1165.16 306.854,1142.26 342.213,1120.27 377.571,1099.13 420.069,1074.74 
  462.568,1051.39 498.499,1032.39 534.431,1014.02 573.463,994.734 612.494,976.103 648.478,959.466 684.462,943.317 723.04,926.513 761.619,910.205 806.316,891.896 
  851.013,874.175 930.456,844.019 1000.12,818.868 1076.07,792.693 1152.48,767.559 1236.95,741.043 1317.33,716.944 1400.9,692.956 1471.25,673.542 1557.14,650.73 
  1635.82,630.631 1708.48,612.696 1782.09,595.105 1864.59,576.035 1939.34,559.306 2024.93,540.756 2104.18,524.119 2182.3,508.194 2258.16,493.161 2335.92,478.163 
  2421.12,462.187 2544.88,439.773 2570.27,435.286 
  "/>
<polyline clip-path="url(#clip522)" style="stroke:#e26f46; stroke-linecap:round; stroke-linejoin:round; stroke-width:4; stroke-opacity:1; fill:none" points="
  220.841,1751.15 236.137,1740.38 377.571,1640.79 462.568,1580.95 534.431,1530.35 612.494,1475.38 684.462,1424.71 761.619,1370.38 851.013,1307.44 930.456,1251.5 
  1000.12,1202.45 1076.07,1148.97 1152.48,1095.17 1236.95,1035.69 1317.33,979.095 1400.9,920.251 1471.25,870.717 1557.14,810.241 1635.82,754.841 1708.48,703.675 
  1782.09,651.846 1864.59,593.759 1939.34,541.124 2024.93,480.859 2104.18,425.06 2182.3,370.049 2258.16,316.637 2335.92,261.883 2421.12,201.894 2544.88,114.75 
  2570.27,96.8724 
  "/>
<polyline clip-path="url(#clip522)" style="stroke:#3da44d; stroke-linecap:round; stroke-linejoin:round; stroke-width:4; stroke-opacity:1; fill:none" points="
  220.841,1199.72 236.137,1199.72 377.571,1199.72 462.568,1199.72 534.431,1199.72 612.494,1199.72 684.462,1199.72 761.619,1199.72 851.013,1199.72 930.456,1199.72 
  1000.12,1199.72 1076.07,1199.72 1152.48,1199.72 1236.95,1199.72 1317.33,1199.72 1400.9,1199.72 1471.25,1199.72 1557.14,1199.72 1635.82,1199.72 1708.48,1199.72 
  1782.09,1199.72 1864.59,1199.72 1939.34,1199.72 2024.93,1199.72 2104.18,1199.72 2182.3,1199.72 2258.16,1199.72 2335.92,1199.72 2421.12,1199.72 2544.88,1199.72 
  2570.27,1199.72 
  "/>
<path clip-path="url(#clip520)" d="
M2228.02 313.055 L2557.74 313.055 L2557.74 105.695 L2228.02 105.695  Z
  " fill="#ffffff" fill-rule="evenodd" fill-opacity="1"/>
<polyline clip-path="url(#clip520)" style="stroke:#000000; stroke-linecap:round; stroke-linejoin:round; stroke-width:4; stroke-opacity:1; fill:none" points="
  2228.02,313.055 2557.74,313.055 2557.74,105.695 2228.02,105.695 2228.02,313.055 
  "/>
<polyline clip-path="url(#clip520)" style="stroke:#009af9; stroke-linecap:round; stroke-linejoin:round; stroke-width:4; stroke-opacity:1; fill:none" points="
  2255.69,157.535 2421.72,157.535 
  "/>
<path clip-path="url(#clip520)" d="M2463.23 177.223 Q2461.43 181.852 2459.72 183.264 Q2458 184.676 2455.13 184.676 L2451.73 184.676 L2451.73 181.112 L2454.23 181.112 Q2455.99 181.112 2456.96 180.278 Q2457.93 179.445 2459.11 176.343 L2459.88 174.399 L2449.39 148.889 L2453.91 148.889 L2462.01 169.167 L2470.11 148.889 L2474.62 148.889 L2463.23 177.223 Z" fill="#000000" fill-rule="evenodd" fill-opacity="1" /><path clip-path="url(#clip520)" d="M2481.91 170.88 L2489.55 170.88 L2489.55 144.515 L2481.24 146.181 L2481.24 141.922 L2489.51 140.255 L2494.18 140.255 L2494.18 170.88 L2501.82 170.88 L2501.82 174.815 L2481.91 174.815 L2481.91 170.88 Z" fill="#000000" fill-rule="evenodd" fill-opacity="1" /><polyline clip-path="url(#clip520)" style="stroke:#e26f46; stroke-linecap:round; stroke-linejoin:round; stroke-width:4; stroke-opacity:1; fill:none" points="
  2255.69,209.375 2421.72,209.375 
  "/>
<path clip-path="url(#clip520)" d="M2463.23 229.063 Q2461.43 233.692 2459.72 235.104 Q2458 236.516 2455.13 236.516 L2451.73 236.516 L2451.73 232.952 L2454.23 232.952 Q2455.99 232.952 2456.96 232.118 Q2457.93 231.285 2459.11 228.183 L2459.88 226.239 L2449.39 200.729 L2453.91 200.729 L2462.01 221.007 L2470.11 200.729 L2474.62 200.729 L2463.23 229.063 Z" fill="#000000" fill-rule="evenodd" fill-opacity="1" /><path clip-path="url(#clip520)" d="M2485.13 222.72 L2501.45 222.72 L2501.45 226.655 L2479.51 226.655 L2479.51 222.72 Q2482.17 219.965 2486.75 215.336 Q2491.36 210.683 2492.54 209.341 Q2494.78 206.817 2495.66 205.081 Q2496.57 203.322 2496.57 201.632 Q2496.57 198.878 2494.62 197.142 Q2492.7 195.405 2489.6 195.405 Q2487.4 195.405 2484.95 196.169 Q2482.52 196.933 2479.74 198.484 L2479.74 193.762 Q2482.56 192.628 2485.02 192.049 Q2487.47 191.47 2489.51 191.47 Q2494.88 191.47 2498.07 194.155 Q2501.27 196.841 2501.27 201.331 Q2501.27 203.461 2500.46 205.382 Q2499.67 207.28 2497.56 209.873 Q2496.98 210.544 2493.88 213.762 Q2490.78 216.956 2485.13 222.72 Z" fill="#000000" fill-rule="evenodd" fill-opacity="1" /><polyline clip-path="url(#clip520)" style="stroke:#3da44d; stroke-linecap:round; stroke-linejoin:round; stroke-width:4; stroke-opacity:1; fill:none" points="
  2255.69,261.215 2421.72,261.215 
  "/>
<path clip-path="url(#clip520)" d="M2463.23 280.903 Q2461.43 285.532 2459.72 286.944 Q2458 288.356 2455.13 288.356 L2451.73 288.356 L2451.73 284.792 L2454.23 284.792 Q2455.99 284.792 2456.96 283.958 Q2457.93 283.125 2459.11 280.023 L2459.88 278.079 L2449.39 252.569 L2453.91 252.569 L2462.01 272.847 L2470.11 252.569 L2474.62 252.569 L2463.23 280.903 Z" fill="#000000" fill-rule="evenodd" fill-opacity="1" /><path clip-path="url(#clip520)" d="M2495.27 259.861 Q2498.63 260.579 2500.5 262.847 Q2502.4 265.116 2502.4 268.449 Q2502.4 273.565 2498.88 276.366 Q2495.36 279.167 2488.88 279.167 Q2486.71 279.167 2484.39 278.727 Q2482.1 278.31 2479.65 277.454 L2479.65 272.94 Q2481.59 274.074 2483.91 274.653 Q2486.22 275.231 2488.74 275.231 Q2493.14 275.231 2495.43 273.495 Q2497.75 271.759 2497.75 268.449 Q2497.75 265.393 2495.59 263.681 Q2493.47 261.944 2489.65 261.944 L2485.62 261.944 L2485.62 258.102 L2489.83 258.102 Q2493.28 258.102 2495.11 256.736 Q2496.94 255.347 2496.94 252.755 Q2496.94 250.093 2495.04 248.681 Q2493.16 247.245 2489.65 247.245 Q2487.72 247.245 2485.53 247.662 Q2483.33 248.079 2480.69 248.958 L2480.69 244.792 Q2483.35 244.051 2485.66 243.681 Q2488 243.31 2490.06 243.31 Q2495.39 243.31 2498.49 245.741 Q2501.59 248.148 2501.59 252.269 Q2501.59 255.139 2499.95 257.13 Q2498.3 259.097 2495.27 259.861 Z" fill="#000000" fill-rule="evenodd" fill-opacity="1" /></svg>
