<?xml version="1.0" encoding="utf-8"?>
<svg xmlns="http://www.w3.org/2000/svg" xmlns:xlink="http://www.w3.org/1999/xlink" width="672" height="480" viewBox="0 0 2688 1920">
<defs>
  <clipPath id="clip070">
    <rect x="0" y="0" width="2688" height="1920"/>
  </clipPath>
</defs>
<path clip-path="url(#clip070)" d="
M0 1920 L2688 1920 L2688 0 L0 0  Z
  " fill="#ffffff" fill-rule="evenodd" fill-opacity="1"/>
<defs>
  <clipPath id="clip071">
    <rect x="537" y="0" width="1883" height="1883"/>
  </clipPath>
</defs>
<path clip-path="url(#clip070)" d="
M189.154 1800.78 L2640.76 1800.78 L2640.76 47.2441 L189.154 47.2441  Z
  " fill="#ffffff" fill-rule="evenodd" fill-opacity="1"/>
<defs>
  <clipPath id="clip072">
    <rect x="189" y="47" width="2453" height="1755"/>
  </clipPath>
</defs>
<polyline clip-path="url(#clip072)" style="stroke:#000000; stroke-linecap:butt; stroke-linejoin:round; stroke-width:2; stroke-opacity:0.1; fill:none" points="
  587.816,1800.78 587.816,47.2441 
  "/>
<polyline clip-path="url(#clip072)" style="stroke:#000000; stroke-linecap:butt; stroke-linejoin:round; stroke-width:2; stroke-opacity:0.1; fill:none" points="
  1001.39,1800.78 1001.39,47.2441 
  "/>
<polyline clip-path="url(#clip072)" style="stroke:#000000; stroke-linecap:butt; stroke-linejoin:round; stroke-width:2; stroke-opacity:0.1; fill:none" points="
  1414.95,1800.78 1414.95,47.2441 
  "/>
<polyline clip-path="url(#clip072)" style="stroke:#000000; stroke-linecap:butt; stroke-linejoin:round; stroke-width:2; stroke-opacity:0.1; fill:none" points="
  1828.52,1800.78 1828.52,47.2441 
  "/>
<polyline clip-path="url(#clip072)" style="stroke:#000000; stroke-linecap:butt; stroke-linejoin:round; stroke-width:2; stroke-opacity:0.1; fill:none" points="
  2242.09,1800.78 2242.09,47.2441 
  "/>
<polyline clip-path="url(#clip070)" style="stroke:#000000; stroke-linecap:butt; stroke-linejoin:round; stroke-width:4; stroke-opacity:1; fill:none" points="
  189.154,1800.78 2640.76,1800.78 
  "/>
<polyline clip-path="url(#clip070)" style="stroke:#000000; stroke-linecap:butt; stroke-linejoin:round; stroke-width:4; stroke-opacity:1; fill:none" points="
  587.816,1800.78 587.816,1781.88 
  "/>
<polyline clip-path="url(#clip070)" style="stroke:#000000; stroke-linecap:butt; stroke-linejoin:round; stroke-width:4; stroke-opacity:1; fill:none" points="
  1001.39,1800.78 1001.39,1781.88 
  "/>
<polyline clip-path="url(#clip070)" style="stroke:#000000; stroke-linecap:butt; stroke-linejoin:round; stroke-width:4; stroke-opacity:1; fill:none" points="
  1414.95,1800.78 1414.95,1781.88 
  "/>
<polyline clip-path="url(#clip070)" style="stroke:#000000; stroke-linecap:butt; stroke-linejoin:round; stroke-width:4; stroke-opacity:1; fill:none" points="
  1828.52,1800.78 1828.52,1781.88 
  "/>
<polyline clip-path="url(#clip070)" style="stroke:#000000; stroke-linecap:butt; stroke-linejoin:round; stroke-width:4; stroke-opacity:1; fill:none" points="
  2242.09,1800.78 2242.09,1781.88 
  "/>
<path clip-path="url(#clip070)" d="M550.119 1834 Q546.508 1834 544.679 1837.57 Q542.874 1841.11 542.874 1848.24 Q542.874 1855.34 544.679 1858.91 Q546.508 1862.45 550.119 1862.45 Q553.753 1862.45 555.559 1858.91 Q557.388 1855.34 557.388 1848.24 Q557.388 1841.11 555.559 1837.57 Q553.753 1834 550.119 1834 M550.119 1830.3 Q555.929 1830.3 558.985 1834.9 Q562.064 1839.49 562.064 1848.24 Q562.064 1856.96 558.985 1861.57 Q555.929 1866.15 550.119 1866.15 Q544.309 1866.15 541.23 1861.57 Q538.175 1856.96 538.175 1848.24 Q538.175 1839.49 541.23 1834.9 Q544.309 1830.3 550.119 1830.3 Z" fill="#000000" fill-rule="evenodd" fill-opacity="1" /><path clip-path="url(#clip070)" d="M570.281 1859.6 L575.165 1859.6 L575.165 1865.48 L570.281 1865.48 L570.281 1859.6 Z" fill="#000000" fill-rule="evenodd" fill-opacity="1" /><path clip-path="url(#clip070)" d="M595.35 1834 Q591.739 1834 589.911 1837.57 Q588.105 1841.11 588.105 1848.24 Q588.105 1855.34 589.911 1858.91 Q591.739 1862.45 595.35 1862.45 Q598.985 1862.45 600.79 1858.91 Q602.619 1855.34 602.619 1848.24 Q602.619 1841.11 600.79 1837.57 Q598.985 1834 595.35 1834 M595.35 1830.3 Q601.161 1830.3 604.216 1834.9 Q607.295 1839.49 607.295 1848.24 Q607.295 1856.96 604.216 1861.57 Q601.161 1866.15 595.35 1866.15 Q589.54 1866.15 586.462 1861.57 Q583.406 1856.96 583.406 1848.24 Q583.406 1839.49 586.462 1834.9 Q589.54 1830.3 595.35 1830.3 Z" fill="#000000" fill-rule="evenodd" fill-opacity="1" /><path clip-path="url(#clip070)" d="M625.512 1834 Q621.901 1834 620.072 1837.57 Q618.267 1841.11 618.267 1848.24 Q618.267 1855.34 620.072 1858.91 Q621.901 1862.45 625.512 1862.45 Q629.147 1862.45 630.952 1858.91 Q632.781 1855.34 632.781 1848.24 Q632.781 1841.11 630.952 1837.57 Q629.147 1834 625.512 1834 M625.512 1830.3 Q631.322 1830.3 634.378 1834.9 Q637.457 1839.49 637.457 1848.24 Q637.457 1856.96 634.378 1861.57 Q631.322 1866.15 625.512 1866.15 Q619.702 1866.15 616.623 1861.57 Q613.568 1856.96 613.568 1848.24 Q613.568 1839.49 616.623 1834.9 Q619.702 1830.3 625.512 1830.3 Z" fill="#000000" fill-rule="evenodd" fill-opacity="1" /><path clip-path="url(#clip070)" d="M964.186 1834 Q960.575 1834 958.747 1837.57 Q956.941 1841.11 956.941 1848.24 Q956.941 1855.34 958.747 1858.91 Q960.575 1862.45 964.186 1862.45 Q967.821 1862.45 969.626 1858.91 Q971.455 1855.34 971.455 1848.24 Q971.455 1841.11 969.626 1837.57 Q967.821 1834 964.186 1834 M964.186 1830.3 Q969.997 1830.3 973.052 1834.9 Q976.131 1839.49 976.131 1848.24 Q976.131 1856.96 973.052 1861.57 Q969.997 1866.15 964.186 1866.15 Q958.376 1866.15 955.298 1861.57 Q952.242 1856.96 952.242 1848.24 Q952.242 1839.49 955.298 1834.9 Q958.376 1830.3 964.186 1830.3 Z" fill="#000000" fill-rule="evenodd" fill-opacity="1" /><path clip-path="url(#clip070)" d="M984.348 1859.6 L989.233 1859.6 L989.233 1865.48 L984.348 1865.48 L984.348 1859.6 Z" fill="#000000" fill-rule="evenodd" fill-opacity="1" /><path clip-path="url(#clip070)" d="M1003.45 1861.55 L1019.76 1861.55 L1019.76 1865.48 L997.821 1865.48 L997.821 1861.55 Q1000.48 1858.79 1005.07 1854.16 Q1009.67 1849.51 1010.85 1848.17 Q1013.1 1845.65 1013.98 1843.91 Q1014.88 1842.15 1014.88 1840.46 Q1014.88 1837.71 1012.94 1835.97 Q1011.01 1834.23 1007.91 1834.23 Q1005.71 1834.23 1003.26 1835 Q1000.83 1835.76 998.052 1837.31 L998.052 1832.59 Q1000.88 1831.46 1003.33 1830.88 Q1005.78 1830.3 1007.82 1830.3 Q1013.19 1830.3 1016.39 1832.98 Q1019.58 1835.67 1019.58 1840.16 Q1019.58 1842.29 1018.77 1844.21 Q1017.98 1846.11 1015.88 1848.7 Q1015.3 1849.37 1012.2 1852.59 Q1009.09 1855.78 1003.45 1861.55 Z" fill="#000000" fill-rule="evenodd" fill-opacity="1" /><path clip-path="url(#clip070)" d="M1029.63 1830.92 L1047.98 1830.92 L1047.98 1834.86 L1033.91 1834.86 L1033.91 1843.33 Q1034.93 1842.98 1035.95 1842.82 Q1036.96 1842.64 1037.98 1842.64 Q1043.77 1842.64 1047.15 1845.81 Q1050.53 1848.98 1050.53 1854.4 Q1050.53 1859.97 1047.06 1863.08 Q1043.58 1866.15 1037.26 1866.15 Q1035.09 1866.15 1032.82 1865.78 Q1030.57 1865.41 1028.17 1864.67 L1028.17 1859.97 Q1030.25 1861.11 1032.47 1861.66 Q1034.7 1862.22 1037.17 1862.22 Q1041.18 1862.22 1043.51 1860.11 Q1045.85 1858.01 1045.85 1854.4 Q1045.85 1850.78 1043.51 1848.68 Q1041.18 1846.57 1037.17 1846.57 Q1035.3 1846.57 1033.42 1846.99 Q1031.57 1847.4 1029.63 1848.28 L1029.63 1830.92 Z" fill="#000000" fill-rule="evenodd" fill-opacity="1" /><path clip-path="url(#clip070)" d="M1377.26 1834 Q1373.65 1834 1371.82 1837.57 Q1370.01 1841.11 1370.01 1848.24 Q1370.01 1855.34 1371.82 1858.91 Q1373.65 1862.45 1377.26 1862.45 Q1380.89 1862.45 1382.7 1858.91 Q1384.53 1855.34 1384.53 1848.24 Q1384.53 1841.11 1382.7 1837.57 Q1380.89 1834 1377.26 1834 M1377.26 1830.3 Q1383.07 1830.3 1386.12 1834.9 Q1389.2 1839.49 1389.2 1848.24 Q1389.2 1856.96 1386.12 1861.57 Q1383.07 1866.15 1377.26 1866.15 Q1371.45 1866.15 1368.37 1861.57 Q1365.31 1856.96 1365.31 1848.24 Q1365.31 1839.49 1368.37 1834.9 Q1371.45 1830.3 1377.26 1830.3 Z" fill="#000000" fill-rule="evenodd" fill-opacity="1" /><path clip-path="url(#clip070)" d="M1397.42 1859.6 L1402.3 1859.6 L1402.3 1865.48 L1397.42 1865.48 L1397.42 1859.6 Z" fill="#000000" fill-rule="evenodd" fill-opacity="1" /><path clip-path="url(#clip070)" d="M1412.54 1830.92 L1430.89 1830.92 L1430.89 1834.86 L1416.82 1834.86 L1416.82 1843.33 Q1417.84 1842.98 1418.86 1842.82 Q1419.87 1842.64 1420.89 1842.64 Q1426.68 1842.64 1430.06 1845.81 Q1433.44 1848.98 1433.44 1854.4 Q1433.44 1859.97 1429.97 1863.08 Q1426.49 1866.15 1420.17 1866.15 Q1418 1866.15 1415.73 1865.78 Q1413.49 1865.41 1411.08 1864.67 L1411.08 1859.97 Q1413.16 1861.11 1415.38 1861.66 Q1417.61 1862.22 1420.08 1862.22 Q1424.09 1862.22 1426.42 1860.11 Q1428.76 1858.01 1428.76 1854.4 Q1428.76 1850.78 1426.42 1848.68 Q1424.09 1846.57 1420.08 1846.57 Q1418.21 1846.57 1416.33 1846.99 Q1414.48 1847.4 1412.54 1848.28 L1412.54 1830.92 Z" fill="#000000" fill-rule="evenodd" fill-opacity="1" /><path clip-path="url(#clip070)" d="M1452.65 1834 Q1449.04 1834 1447.21 1837.57 Q1445.41 1841.11 1445.41 1848.24 Q1445.41 1855.34 1447.21 1858.91 Q1449.04 1862.45 1452.65 1862.45 Q1456.29 1862.45 1458.09 1858.91 Q1459.92 1855.34 1459.92 1848.24 Q1459.92 1841.11 1458.09 1837.57 Q1456.29 1834 1452.65 1834 M1452.65 1830.3 Q1458.46 1830.3 1461.52 1834.9 Q1464.6 1839.49 1464.6 1848.24 Q1464.6 1856.96 1461.52 1861.57 Q1458.46 1866.15 1452.65 1866.15 Q1446.84 1866.15 1443.76 1861.57 Q1440.71 1856.96 1440.71 1848.24 Q1440.71 1839.49 1443.76 1834.9 Q1446.84 1830.3 1452.65 1830.3 Z" fill="#000000" fill-rule="evenodd" fill-opacity="1" /><path clip-path="url(#clip070)" d="M1791.33 1834 Q1787.71 1834 1785.89 1837.57 Q1784.08 1841.11 1784.08 1848.24 Q1784.08 1855.34 1785.89 1858.91 Q1787.71 1862.45 1791.33 1862.45 Q1794.96 1862.45 1796.77 1858.91 Q1798.59 1855.34 1798.59 1848.24 Q1798.59 1841.11 1796.77 1837.57 Q1794.96 1834 1791.33 1834 M1791.33 1830.3 Q1797.14 1830.3 1800.19 1834.9 Q1803.27 1839.49 1803.27 1848.24 Q1803.27 1856.96 1800.19 1861.57 Q1797.14 1866.15 1791.33 1866.15 Q1785.52 1866.15 1782.44 1861.57 Q1779.38 1856.96 1779.38 1848.24 Q1779.38 1839.49 1782.44 1834.9 Q1785.52 1830.3 1791.33 1830.3 Z" fill="#000000" fill-rule="evenodd" fill-opacity="1" /><path clip-path="url(#clip070)" d="M1811.49 1859.6 L1816.37 1859.6 L1816.37 1865.48 L1811.49 1865.48 L1811.49 1859.6 Z" fill="#000000" fill-rule="evenodd" fill-opacity="1" /><path clip-path="url(#clip070)" d="M1825.38 1830.92 L1847.6 1830.92 L1847.6 1832.91 L1835.05 1865.48 L1830.17 1865.48 L1841.97 1834.86 L1825.38 1834.86 L1825.38 1830.92 Z" fill="#000000" fill-rule="evenodd" fill-opacity="1" /><path clip-path="url(#clip070)" d="M1856.77 1830.92 L1875.12 1830.92 L1875.12 1834.86 L1861.05 1834.86 L1861.05 1843.33 Q1862.07 1842.98 1863.08 1842.82 Q1864.1 1842.64 1865.12 1842.64 Q1870.91 1842.64 1874.29 1845.81 Q1877.67 1848.98 1877.67 1854.4 Q1877.67 1859.97 1874.2 1863.08 Q1870.72 1866.15 1864.4 1866.15 Q1862.23 1866.15 1859.96 1865.78 Q1857.71 1865.41 1855.31 1864.67 L1855.31 1859.97 Q1857.39 1861.11 1859.61 1861.66 Q1861.83 1862.22 1864.31 1862.22 Q1868.32 1862.22 1870.65 1860.11 Q1872.99 1858.01 1872.99 1854.4 Q1872.99 1850.78 1870.65 1848.68 Q1868.32 1846.57 1864.31 1846.57 Q1862.44 1846.57 1860.56 1846.99 Q1858.71 1847.4 1856.77 1848.28 L1856.77 1830.92 Z" fill="#000000" fill-rule="evenodd" fill-opacity="1" /><path clip-path="url(#clip070)" d="M2194.17 1861.55 L2201.81 1861.55 L2201.81 1835.18 L2193.49 1836.85 L2193.49 1832.59 L2201.76 1830.92 L2206.43 1830.92 L2206.43 1861.55 L2214.07 1861.55 L2214.07 1865.48 L2194.17 1865.48 L2194.17 1861.55 Z" fill="#000000" fill-rule="evenodd" fill-opacity="1" /><path clip-path="url(#clip070)" d="M2223.52 1859.6 L2228.4 1859.6 L2228.4 1865.48 L2223.52 1865.48 L2223.52 1859.6 Z" fill="#000000" fill-rule="evenodd" fill-opacity="1" /><path clip-path="url(#clip070)" d="M2248.59 1834 Q2244.98 1834 2243.15 1837.57 Q2241.34 1841.11 2241.34 1848.24 Q2241.34 1855.34 2243.15 1858.91 Q2244.98 1862.45 2248.59 1862.45 Q2252.22 1862.45 2254.03 1858.91 Q2255.86 1855.34 2255.86 1848.24 Q2255.86 1841.11 2254.03 1837.57 Q2252.22 1834 2248.59 1834 M2248.59 1830.3 Q2254.4 1830.3 2257.45 1834.9 Q2260.53 1839.49 2260.53 1848.24 Q2260.53 1856.96 2257.45 1861.57 Q2254.4 1866.15 2248.59 1866.15 Q2242.78 1866.15 2239.7 1861.57 Q2236.64 1856.96 2236.64 1848.24 Q2236.64 1839.49 2239.7 1834.9 Q2242.78 1830.3 2248.59 1830.3 Z" fill="#000000" fill-rule="evenodd" fill-opacity="1" /><path clip-path="url(#clip070)" d="M2278.75 1834 Q2275.14 1834 2273.31 1837.57 Q2271.5 1841.11 2271.5 1848.24 Q2271.5 1855.34 2273.31 1858.91 Q2275.14 1862.45 2278.75 1862.45 Q2282.38 1862.45 2284.19 1858.91 Q2286.02 1855.34 2286.02 1848.24 Q2286.02 1841.11 2284.19 1837.57 Q2282.38 1834 2278.75 1834 M2278.75 1830.3 Q2284.56 1830.3 2287.61 1834.9 Q2290.69 1839.49 2290.69 1848.24 Q2290.69 1856.96 2287.61 1861.57 Q2284.56 1866.15 2278.75 1866.15 Q2272.94 1866.15 2269.86 1861.57 Q2266.8 1856.96 2266.8 1848.24 Q2266.8 1839.49 2269.86 1834.9 Q2272.94 1830.3 2278.75 1830.3 Z" fill="#000000" fill-rule="evenodd" fill-opacity="1" /><polyline clip-path="url(#clip072)" style="stroke:#000000; stroke-linecap:butt; stroke-linejoin:round; stroke-width:2; stroke-opacity:0.1; fill:none" points="
  189.154,1751.15 2640.76,1751.15 
  "/>
<polyline clip-path="url(#clip072)" style="stroke:#000000; stroke-linecap:butt; stroke-linejoin:round; stroke-width:2; stroke-opacity:0.1; fill:none" points="
  189.154,1337.58 2640.76,1337.58 
  "/>
<polyline clip-path="url(#clip072)" style="stroke:#000000; stroke-linecap:butt; stroke-linejoin:round; stroke-width:2; stroke-opacity:0.1; fill:none" points="
  189.154,924.012 2640.76,924.012 
  "/>
<polyline clip-path="url(#clip072)" style="stroke:#000000; stroke-linecap:butt; stroke-linejoin:round; stroke-width:2; stroke-opacity:0.1; fill:none" points="
  189.154,510.442 2640.76,510.442 
  "/>
<polyline clip-path="url(#clip072)" style="stroke:#000000; stroke-linecap:butt; stroke-linejoin:round; stroke-width:2; stroke-opacity:0.1; fill:none" points="
  189.154,96.8724 2640.76,96.8724 
  "/>
<polyline clip-path="url(#clip070)" style="stroke:#000000; stroke-linecap:butt; stroke-linejoin:round; stroke-width:4; stroke-opacity:1; fill:none" points="
  189.154,1800.78 189.154,47.2441 
  "/>
<polyline clip-path="url(#clip070)" style="stroke:#000000; stroke-linecap:butt; stroke-linejoin:round; stroke-width:4; stroke-opacity:1; fill:none" points="
  189.154,1751.15 208.052,1751.15 
  "/>
<polyline clip-path="url(#clip070)" style="stroke:#000000; stroke-linecap:butt; stroke-linejoin:round; stroke-width:4; stroke-opacity:1; fill:none" points="
  189.154,1337.58 208.052,1337.58 
  "/>
<polyline clip-path="url(#clip070)" style="stroke:#000000; stroke-linecap:butt; stroke-linejoin:round; stroke-width:4; stroke-opacity:1; fill:none" points="
  189.154,924.012 208.052,924.012 
  "/>
<polyline clip-path="url(#clip070)" style="stroke:#000000; stroke-linecap:butt; stroke-linejoin:round; stroke-width:4; stroke-opacity:1; fill:none" points="
  189.154,510.442 208.052,510.442 
  "/>
<polyline clip-path="url(#clip070)" style="stroke:#000000; stroke-linecap:butt; stroke-linejoin:round; stroke-width:4; stroke-opacity:1; fill:none" points="
  189.154,96.8724 208.052,96.8724 
  "/>
<path clip-path="url(#clip070)" d="M61.4965 1736.95 Q57.8854 1736.95 56.0567 1740.51 Q54.2512 1744.06 54.2512 1751.19 Q54.2512 1758.29 56.0567 1761.86 Q57.8854 1765.4 61.4965 1765.4 Q65.1307 1765.4 66.9363 1761.86 Q68.765 1758.29 68.765 1751.19 Q68.765 1744.06 66.9363 1740.51 Q65.1307 1736.95 61.4965 1736.95 M61.4965 1733.25 Q67.3067 1733.25 70.3622 1737.85 Q73.4409 1742.44 73.4409 1751.19 Q73.4409 1759.91 70.3622 1764.52 Q67.3067 1769.1 61.4965 1769.1 Q55.6864 1769.1 52.6077 1764.52 Q49.5521 1759.91 49.5521 1751.19 Q49.5521 1742.44 52.6077 1737.85 Q55.6864 1733.25 61.4965 1733.25 Z" fill="#000000" fill-rule="evenodd" fill-opacity="1" /><path clip-path="url(#clip070)" d="M81.6584 1762.55 L86.5427 1762.55 L86.5427 1768.43 L81.6584 1768.43 L81.6584 1762.55 Z" fill="#000000" fill-rule="evenodd" fill-opacity="1" /><path clip-path="url(#clip070)" d="M106.728 1736.95 Q103.117 1736.95 101.288 1740.51 Q99.4824 1744.06 99.4824 1751.19 Q99.4824 1758.29 101.288 1761.86 Q103.117 1765.4 106.728 1765.4 Q110.362 1765.4 112.168 1761.86 Q113.996 1758.29 113.996 1751.19 Q113.996 1744.06 112.168 1740.51 Q110.362 1736.95 106.728 1736.95 M106.728 1733.25 Q112.538 1733.25 115.593 1737.85 Q118.672 1742.44 118.672 1751.19 Q118.672 1759.91 115.593 1764.52 Q112.538 1769.1 106.728 1769.1 Q100.918 1769.1 97.8389 1764.52 Q94.7834 1759.91 94.7834 1751.19 Q94.7834 1742.44 97.8389 1737.85 Q100.918 1733.25 106.728 1733.25 Z" fill="#000000" fill-rule="evenodd" fill-opacity="1" /><path clip-path="url(#clip070)" d="M136.89 1736.95 Q133.279 1736.95 131.45 1740.51 Q129.644 1744.06 129.644 1751.19 Q129.644 1758.29 131.45 1761.86 Q133.279 1765.4 136.89 1765.4 Q140.524 1765.4 142.329 1761.86 Q144.158 1758.29 144.158 1751.19 Q144.158 1744.06 142.329 1740.51 Q140.524 1736.95 136.89 1736.95 M136.89 1733.25 Q142.7 1733.25 145.755 1737.85 Q148.834 1742.44 148.834 1751.19 Q148.834 1759.91 145.755 1764.52 Q142.7 1769.1 136.89 1769.1 Q131.079 1769.1 128.001 1764.52 Q124.945 1759.91 124.945 1751.19 Q124.945 1742.44 128.001 1737.85 Q131.079 1733.25 136.89 1733.25 Z" fill="#000000" fill-rule="evenodd" fill-opacity="1" /><path clip-path="url(#clip070)" d="M62.4919 1323.38 Q58.8808 1323.38 57.0521 1326.94 Q55.2465 1330.49 55.2465 1337.62 Q55.2465 1344.72 57.0521 1348.29 Q58.8808 1351.83 62.4919 1351.83 Q66.1261 1351.83 67.9317 1348.29 Q69.7604 1344.72 69.7604 1337.62 Q69.7604 1330.49 67.9317 1326.94 Q66.1261 1323.38 62.4919 1323.38 M62.4919 1319.68 Q68.302 1319.68 71.3576 1324.28 Q74.4363 1328.87 74.4363 1337.62 Q74.4363 1346.34 71.3576 1350.95 Q68.302 1355.53 62.4919 1355.53 Q56.6817 1355.53 53.603 1350.95 Q50.5475 1346.34 50.5475 1337.62 Q50.5475 1328.87 53.603 1324.28 Q56.6817 1319.68 62.4919 1319.68 Z" fill="#000000" fill-rule="evenodd" fill-opacity="1" /><path clip-path="url(#clip070)" d="M82.6538 1348.98 L87.538 1348.98 L87.538 1354.86 L82.6538 1354.86 L82.6538 1348.98 Z" fill="#000000" fill-rule="evenodd" fill-opacity="1" /><path clip-path="url(#clip070)" d="M101.751 1350.93 L118.07 1350.93 L118.07 1354.86 L96.126 1354.86 L96.126 1350.93 Q98.788 1348.17 103.371 1343.54 Q107.978 1338.89 109.158 1337.55 Q111.404 1335.02 112.283 1333.29 Q113.186 1331.53 113.186 1329.84 Q113.186 1327.08 111.242 1325.35 Q109.32 1323.61 106.218 1323.61 Q104.019 1323.61 101.566 1324.38 Q99.1352 1325.14 96.3574 1326.69 L96.3574 1321.97 Q99.1815 1320.83 101.635 1320.26 Q104.089 1319.68 106.126 1319.68 Q111.496 1319.68 114.691 1322.36 Q117.885 1325.05 117.885 1329.54 Q117.885 1331.67 117.075 1333.59 Q116.288 1335.49 114.181 1338.08 Q113.603 1338.75 110.501 1341.97 Q107.399 1345.16 101.751 1350.93 Z" fill="#000000" fill-rule="evenodd" fill-opacity="1" /><path clip-path="url(#clip070)" d="M127.931 1320.3 L146.288 1320.3 L146.288 1324.24 L132.214 1324.24 L132.214 1332.71 Q133.232 1332.36 134.251 1332.2 Q135.269 1332.01 136.288 1332.01 Q142.075 1332.01 145.454 1335.19 Q148.834 1338.36 148.834 1343.77 Q148.834 1349.35 145.362 1352.45 Q141.89 1355.53 135.57 1355.53 Q133.394 1355.53 131.126 1355.16 Q128.88 1354.79 126.473 1354.05 L126.473 1349.35 Q128.556 1350.49 130.779 1351.04 Q133.001 1351.6 135.478 1351.6 Q139.482 1351.6 141.82 1349.49 Q144.158 1347.38 144.158 1343.77 Q144.158 1340.16 141.82 1338.06 Q139.482 1335.95 135.478 1335.95 Q133.603 1335.95 131.728 1336.37 Q129.876 1336.78 127.931 1337.66 L127.931 1320.3 Z" fill="#000000" fill-rule="evenodd" fill-opacity="1" /><path clip-path="url(#clip070)" d="M61.4965 909.81 Q57.8854 909.81 56.0567 913.375 Q54.2512 916.917 54.2512 924.046 Q54.2512 931.153 56.0567 934.718 Q57.8854 938.259 61.4965 938.259 Q65.1307 938.259 66.9363 934.718 Q68.765 931.153 68.765 924.046 Q68.765 916.917 66.9363 913.375 Q65.1307 909.81 61.4965 909.81 M61.4965 906.107 Q67.3067 906.107 70.3622 910.713 Q73.4409 915.296 73.4409 924.046 Q73.4409 932.773 70.3622 937.38 Q67.3067 941.963 61.4965 941.963 Q55.6864 941.963 52.6077 937.38 Q49.5521 932.773 49.5521 924.046 Q49.5521 915.296 52.6077 910.713 Q55.6864 906.107 61.4965 906.107 Z" fill="#000000" fill-rule="evenodd" fill-opacity="1" /><path clip-path="url(#clip070)" d="M81.6584 935.412 L86.5427 935.412 L86.5427 941.292 L81.6584 941.292 L81.6584 935.412 Z" fill="#000000" fill-rule="evenodd" fill-opacity="1" /><path clip-path="url(#clip070)" d="M96.7741 906.732 L115.13 906.732 L115.13 910.667 L101.056 910.667 L101.056 919.139 Q102.075 918.792 103.094 918.63 Q104.112 918.445 105.131 918.445 Q110.918 918.445 114.297 921.616 Q117.677 924.787 117.677 930.204 Q117.677 935.782 114.205 938.884 Q110.732 941.963 104.413 941.963 Q102.237 941.963 99.9685 941.593 Q97.7232 941.222 95.3158 940.482 L95.3158 935.782 Q97.3991 936.917 99.6213 937.472 Q101.844 938.028 104.32 938.028 Q108.325 938.028 110.663 935.921 Q113.001 933.815 113.001 930.204 Q113.001 926.593 110.663 924.486 Q108.325 922.38 104.32 922.38 Q102.445 922.38 100.57 922.796 Q98.7185 923.213 96.7741 924.093 L96.7741 906.732 Z" fill="#000000" fill-rule="evenodd" fill-opacity="1" /><path clip-path="url(#clip070)" d="M136.89 909.81 Q133.279 909.81 131.45 913.375 Q129.644 916.917 129.644 924.046 Q129.644 931.153 131.45 934.718 Q133.279 938.259 136.89 938.259 Q140.524 938.259 142.329 934.718 Q144.158 931.153 144.158 924.046 Q144.158 916.917 142.329 913.375 Q140.524 909.81 136.89 909.81 M136.89 906.107 Q142.7 906.107 145.755 910.713 Q148.834 915.296 148.834 924.046 Q148.834 932.773 145.755 937.38 Q142.7 941.963 136.89 941.963 Q131.079 941.963 128.001 937.38 Q124.945 932.773 124.945 924.046 Q124.945 915.296 128.001 910.713 Q131.079 906.107 136.89 906.107 Z" fill="#000000" fill-rule="evenodd" fill-opacity="1" /><path clip-path="url(#clip070)" d="M62.4919 496.241 Q58.8808 496.241 57.0521 499.806 Q55.2465 503.347 55.2465 510.477 Q55.2465 517.583 57.0521 521.148 Q58.8808 524.69 62.4919 524.69 Q66.1261 524.69 67.9317 521.148 Q69.7604 517.583 69.7604 510.477 Q69.7604 503.347 67.9317 499.806 Q66.1261 496.241 62.4919 496.241 M62.4919 492.537 Q68.302 492.537 71.3576 497.144 Q74.4363 501.727 74.4363 510.477 Q74.4363 519.204 71.3576 523.81 Q68.302 528.393 62.4919 528.393 Q56.6817 528.393 53.603 523.81 Q50.5475 519.204 50.5475 510.477 Q50.5475 501.727 53.603 497.144 Q56.6817 492.537 62.4919 492.537 Z" fill="#000000" fill-rule="evenodd" fill-opacity="1" /><path clip-path="url(#clip070)" d="M82.6538 521.842 L87.538 521.842 L87.538 527.722 L82.6538 527.722 L82.6538 521.842 Z" fill="#000000" fill-rule="evenodd" fill-opacity="1" /><path clip-path="url(#clip070)" d="M96.5426 493.162 L118.765 493.162 L118.765 495.153 L106.218 527.722 L101.334 527.722 L113.14 497.097 L96.5426 497.097 L96.5426 493.162 Z" fill="#000000" fill-rule="evenodd" fill-opacity="1" /><path clip-path="url(#clip070)" d="M127.931 493.162 L146.288 493.162 L146.288 497.097 L132.214 497.097 L132.214 505.569 Q133.232 505.222 134.251 505.06 Q135.269 504.875 136.288 504.875 Q142.075 504.875 145.454 508.046 Q148.834 511.218 148.834 516.634 Q148.834 522.213 145.362 525.315 Q141.89 528.393 135.57 528.393 Q133.394 528.393 131.126 528.023 Q128.88 527.653 126.473 526.912 L126.473 522.213 Q128.556 523.347 130.779 523.903 Q133.001 524.458 135.478 524.458 Q139.482 524.458 141.82 522.352 Q144.158 520.245 144.158 516.634 Q144.158 513.023 141.82 510.917 Q139.482 508.81 135.478 508.81 Q133.603 508.81 131.728 509.227 Q129.876 509.643 127.931 510.523 L127.931 493.162 Z" fill="#000000" fill-rule="evenodd" fill-opacity="1" /><path clip-path="url(#clip070)" d="M52.3067 110.217 L59.9456 110.217 L59.9456 83.8517 L51.6354 85.5183 L51.6354 81.2591 L59.8993 79.5924 L64.5752 79.5924 L64.5752 110.217 L72.214 110.217 L72.214 114.152 L52.3067 114.152 L52.3067 110.217 Z" fill="#000000" fill-rule="evenodd" fill-opacity="1" /><path clip-path="url(#clip070)" d="M81.6584 108.273 L86.5427 108.273 L86.5427 114.152 L81.6584 114.152 L81.6584 108.273 Z" fill="#000000" fill-rule="evenodd" fill-opacity="1" /><path clip-path="url(#clip070)" d="M106.728 82.6711 Q103.117 82.6711 101.288 86.2359 Q99.4824 89.7776 99.4824 96.9072 Q99.4824 104.014 101.288 107.578 Q103.117 111.12 106.728 111.12 Q110.362 111.12 112.168 107.578 Q113.996 104.014 113.996 96.9072 Q113.996 89.7776 112.168 86.2359 Q110.362 82.6711 106.728 82.6711 M106.728 78.9675 Q112.538 78.9675 115.593 83.5739 Q118.672 88.1572 118.672 96.9072 Q118.672 105.634 115.593 110.24 Q112.538 114.824 106.728 114.824 Q100.918 114.824 97.8389 110.24 Q94.7834 105.634 94.7834 96.9072 Q94.7834 88.1572 97.8389 83.5739 Q100.918 78.9675 106.728 78.9675 Z" fill="#000000" fill-rule="evenodd" fill-opacity="1" /><path clip-path="url(#clip070)" d="M136.89 82.6711 Q133.279 82.6711 131.45 86.2359 Q129.644 89.7776 129.644 96.9072 Q129.644 104.014 131.45 107.578 Q133.279 111.12 136.89 111.12 Q140.524 111.12 142.329 107.578 Q144.158 104.014 144.158 96.9072 Q144.158 89.7776 142.329 86.2359 Q140.524 82.6711 136.89 82.6711 M136.89 78.9675 Q142.7 78.9675 145.755 83.5739 Q148.834 88.1572 148.834 96.9072 Q148.834 105.634 145.755 110.24 Q142.7 114.824 136.89 114.824 Q131.079 114.824 128.001 110.24 Q124.945 105.634 124.945 96.9072 Q124.945 88.1572 128.001 83.5739 Q131.079 78.9675 136.89 78.9675 Z" fill="#000000" fill-rule="evenodd" fill-opacity="1" /><polyline clip-path="url(#clip072)" style="stroke:#0000ff; stroke-linecap:butt; stroke-linejoin:round; stroke-width:20; stroke-opacity:1; fill:none" points="
  587.816,1751.15 587.984,1673.93 588.152,1653.85 588.321,1639.77 588.489,1628.56 588.657,1619.1 588.825,1610.82 588.994,1603.43 589.162,1596.7 589.499,1584.78 
  589.835,1574.35 590.172,1565.03 590.508,1556.56 591.181,1541.53 591.855,1528.4 592.528,1516.65 593.201,1505.98 594.547,1487.05 595.893,1470.5 596.567,1462.91 
  597.24,1455.7 597.913,1448.83 598.586,1442.25 601.698,1414.98 604.81,1391.53 607.922,1370.8 611.034,1352.11 614.146,1335.02 617.258,1319.24 620.371,1304.52 
  623.483,1290.72 629.707,1265.36 635.931,1242.41 642.155,1221.35 648.379,1201.85 660.828,1166.54 673.276,1135.04 685.724,1106.47 698.173,1080.23 713.134,1051.18 
  728.096,1024.37 743.058,999.397 758.02,975.983 783.32,939.334 808.62,905.726 836.103,872.012 863.586,840.703 888.923,813.633 914.26,788.042 941.424,762.037 
  968.588,737.331 1000.06,710.136 1031.53,684.291 1087.47,641.222 1136.52,606.028 1190,569.972 1243.8,535.796 1303.28,500.12 1359.87,467.968 1418.72,436.162 
  1468.25,410.534 1528.73,380.516 1584.13,354.127 1635.29,330.61 1687.12,307.556 1745.21,282.566 1797.84,260.632 1858.11,236.287 1913.91,214.424 1968.92,193.461 
  2022.33,173.634 2077.08,153.814 2137.07,132.648 2224.22,102.853 2242.09,96.8724 
  "/>
<polyline clip-path="url(#clip072)" style="stroke:#e26f46; stroke-linecap:butt; stroke-linejoin:round; stroke-width:4; stroke-opacity:1; fill:none" stroke-dasharray="16, 10" points="
  587.816,1751.15 2242.09,1751.15 2242.09,96.8724 
  "/>
<polyline clip-path="url(#clip072)" style="stroke:#000000; stroke-linecap:butt; stroke-linejoin:round; stroke-width:4; stroke-opacity:1; fill:none" points="
  1690.67,1751.15 1794.06,1751.15 1794.06,306.006 1690.67,306.006 1690.67,1751.15 
  "/>
<path clip-path="url(#clip072)" d="
M1690.67 1751.15 L1794.06 1751.15 L1794.06 306.006 L1690.67 306.006  Z
  " fill="#0000ff" fill-rule="evenodd" fill-opacity="0.25"/>
<polyline clip-path="url(#clip072)" style="stroke:#0000ff; stroke-linecap:butt; stroke-linejoin:round; stroke-width:4; stroke-opacity:0.25; fill:none" points="
  1690.67,1751.15 1794.06,1751.15 
  "/>
<polyline clip-path="url(#clip072)" style="stroke:#000000; stroke-linecap:butt; stroke-linejoin:round; stroke-width:4; stroke-opacity:1; fill:none" points="
  1794.06,1751.15 1897.45,1751.15 1897.45,262.187 1794.06,262.187 1794.06,1751.15 
  "/>
<path clip-path="url(#clip072)" d="
M1794.06 1751.15 L1897.45 1751.15 L1897.45 262.187 L1794.06 262.187  Z
  " fill="#0000ff" fill-rule="evenodd" fill-opacity="0.25"/>
<polyline clip-path="url(#clip072)" style="stroke:#0000ff; stroke-linecap:butt; stroke-linejoin:round; stroke-width:4; stroke-opacity:0.25; fill:none" points="
  1794.06,1751.15 1897.45,1751.15 
  "/>
<polyline clip-path="url(#clip072)" style="stroke:#000000; stroke-linecap:butt; stroke-linejoin:round; stroke-width:4; stroke-opacity:1; fill:none" points="
  1897.45,1751.15 2000.85,1751.15 2000.85,220.806 1897.45,220.806 1897.45,1751.15 
  "/>
<path clip-path="url(#clip072)" d="
M1897.45 1751.15 L2000.85 1751.15 L2000.85 220.806 L1897.45 220.806  Z
  " fill="#0000ff" fill-rule="evenodd" fill-opacity="0.25"/>
<polyline clip-path="url(#clip072)" style="stroke:#0000ff; stroke-linecap:butt; stroke-linejoin:round; stroke-width:4; stroke-opacity:0.25; fill:none" points="
  1897.45,1751.15 2000.85,1751.15 
  "/>
<polyline clip-path="url(#clip072)" style="stroke:#000000; stroke-linecap:butt; stroke-linejoin:round; stroke-width:4; stroke-opacity:1; fill:none" points="
  1077.97,751.691 2242.09,751.691 2242.09,648.299 1077.97,648.299 1077.97,751.691 
  "/>
<path clip-path="url(#clip072)" d="
M1077.97 751.691 L2242.09 751.691 L2242.09 648.299 L1077.97 648.299  Z
  " fill="#0000ff" fill-rule="evenodd" fill-opacity="0.25"/>
<polyline clip-path="url(#clip072)" style="stroke:#0000ff; stroke-linecap:butt; stroke-linejoin:round; stroke-width:4; stroke-opacity:0.25; fill:none" points="
  1077.97,751.691 2242.09,751.691 
  "/>
<polyline clip-path="url(#clip072)" style="stroke:#000000; stroke-linecap:butt; stroke-linejoin:round; stroke-width:4; stroke-opacity:1; fill:none" points="
  952.636,855.083 2242.09,855.083 2242.09,751.691 952.636,751.691 952.636,855.083 
  "/>
<path clip-path="url(#clip072)" d="
M952.636 855.083 L2242.09 855.083 L2242.09 751.691 L952.636 751.691  Z
  " fill="#0000ff" fill-rule="evenodd" fill-opacity="0.25"/>
<polyline clip-path="url(#clip072)" style="stroke:#0000ff; stroke-linecap:butt; stroke-linejoin:round; stroke-width:4; stroke-opacity:0.25; fill:none" points="
  952.636,855.083 2242.09,855.083 
  "/>
<polyline clip-path="url(#clip072)" style="stroke:#000000; stroke-linecap:butt; stroke-linejoin:round; stroke-width:4; stroke-opacity:1; fill:none" points="
  850.724,958.476 2242.09,958.476 2242.09,855.083 850.724,855.083 850.724,958.476 
  "/>
<path clip-path="url(#clip072)" d="
M850.724 958.476 L2242.09 958.476 L2242.09 855.083 L850.724 855.083  Z
  " fill="#0000ff" fill-rule="evenodd" fill-opacity="0.25"/>
<polyline clip-path="url(#clip072)" style="stroke:#0000ff; stroke-linecap:butt; stroke-linejoin:round; stroke-width:4; stroke-opacity:0.25; fill:none" points="
  850.724,958.476 2242.09,958.476 
  "/>
<path clip-path="url(#clip070)" d="
M2270.13 209.375 L2559.04 209.375 L2559.04 105.695 L2270.13 105.695  Z
  " fill="#ffffff" fill-rule="evenodd" fill-opacity="1"/>
<polyline clip-path="url(#clip070)" style="stroke:#000000; stroke-linecap:butt; stroke-linejoin:round; stroke-width:4; stroke-opacity:1; fill:none" points="
  2270.13,209.375 2559.04,209.375 2559.04,105.695 2270.13,105.695 2270.13,209.375 
  "/>
<polyline clip-path="url(#clip070)" style="stroke:#0000ff; stroke-linecap:butt; stroke-linejoin:round; stroke-width:4; stroke-opacity:1; fill:none" points="
  2297.37,157.535 2460.81,157.535 
  "/>
<path clip-path="url(#clip070)" d="M2504.56 138.797 L2504.56 142.339 L2500.48 142.339 Q2498.19 142.339 2497.29 143.265 Q2496.41 144.19 2496.41 146.598 L2496.41 148.889 L2503.42 148.889 L2503.42 152.2 L2496.41 152.2 L2496.41 174.815 L2492.13 174.815 L2492.13 152.2 L2488.05 152.2 L2488.05 148.889 L2492.13 148.889 L2492.13 147.084 Q2492.13 142.755 2494.14 140.788 Q2496.15 138.797 2500.53 138.797 L2504.56 138.797 Z" fill="#000000" fill-rule="evenodd" fill-opacity="1" /></svg>
