<?xml version="1.0" encoding="utf-8"?>
<svg xmlns="http://www.w3.org/2000/svg" xmlns:xlink="http://www.w3.org/1999/xlink" width="672" height="480" viewBox="0 0 2688 1920">
<defs>
  <clipPath id="clip660">
    <rect x="0" y="0" width="2688" height="1920"/>
  </clipPath>
</defs>
<path clip-path="url(#clip660)" d="
M0 1920 L2688 1920 L2688 0 L0 0  Z
  " fill="#ffffff" fill-rule="evenodd" fill-opacity="1"/>
<defs>
  <clipPath id="clip661">
    <rect x="537" y="0" width="1883" height="1883"/>
  </clipPath>
</defs>
<path clip-path="url(#clip660)" d="
M309.315 1800.78 L2640.76 1800.78 L2640.76 47.2441 L309.315 47.2441  Z
  " fill="#ffffff" fill-rule="evenodd" fill-opacity="1"/>
<defs>
  <clipPath id="clip662">
    <rect x="309" y="47" width="2332" height="1755"/>
  </clipPath>
</defs>
<polyline clip-path="url(#clip662)" style="stroke:#000000; stroke-linecap:round; stroke-linejoin:round; stroke-width:2; stroke-opacity:0.1; fill:none" points="
  375.3,1800.78 375.3,47.2441 
  "/>
<polyline clip-path="url(#clip662)" style="stroke:#000000; stroke-linecap:round; stroke-linejoin:round; stroke-width:2; stroke-opacity:0.1; fill:none" points="
  925.168,1800.78 925.168,47.2441 
  "/>
<polyline clip-path="url(#clip662)" style="stroke:#000000; stroke-linecap:round; stroke-linejoin:round; stroke-width:2; stroke-opacity:0.1; fill:none" points="
  1475.04,1800.78 1475.04,47.2441 
  "/>
<polyline clip-path="url(#clip662)" style="stroke:#000000; stroke-linecap:round; stroke-linejoin:round; stroke-width:2; stroke-opacity:0.1; fill:none" points="
  2024.9,1800.78 2024.9,47.2441 
  "/>
<polyline clip-path="url(#clip662)" style="stroke:#000000; stroke-linecap:round; stroke-linejoin:round; stroke-width:2; stroke-opacity:0.1; fill:none" points="
  2574.77,1800.78 2574.77,47.2441 
  "/>
<polyline clip-path="url(#clip660)" style="stroke:#000000; stroke-linecap:round; stroke-linejoin:round; stroke-width:4; stroke-opacity:1; fill:none" points="
  309.315,1800.78 2640.76,1800.78 
  "/>
<polyline clip-path="url(#clip660)" style="stroke:#000000; stroke-linecap:round; stroke-linejoin:round; stroke-width:4; stroke-opacity:1; fill:none" points="
  375.3,1800.78 375.3,1781.88 
  "/>
<polyline clip-path="url(#clip660)" style="stroke:#000000; stroke-linecap:round; stroke-linejoin:round; stroke-width:4; stroke-opacity:1; fill:none" points="
  925.168,1800.78 925.168,1781.88 
  "/>
<polyline clip-path="url(#clip660)" style="stroke:#000000; stroke-linecap:round; stroke-linejoin:round; stroke-width:4; stroke-opacity:1; fill:none" points="
  1475.04,1800.78 1475.04,1781.88 
  "/>
<polyline clip-path="url(#clip660)" style="stroke:#000000; stroke-linecap:round; stroke-linejoin:round; stroke-width:4; stroke-opacity:1; fill:none" points="
  2024.9,1800.78 2024.9,1781.88 
  "/>
<polyline clip-path="url(#clip660)" style="stroke:#000000; stroke-linecap:round; stroke-linejoin:round; stroke-width:4; stroke-opacity:1; fill:none" points="
  2574.77,1800.78 2574.77,1781.88 
  "/>
<path clip-path="url(#clip660)" d="M352.684 1834 Q349.073 1834 347.244 1837.57 Q345.439 1841.11 345.439 1848.24 Q345.439 1855.34 347.244 1858.91 Q349.073 1862.45 352.684 1862.45 Q356.318 1862.45 358.124 1858.91 Q359.952 1855.34 359.952 1848.24 Q359.952 1841.11 358.124 1837.57 Q356.318 1834 352.684 1834 M352.684 1830.3 Q358.494 1830.3 361.55 1834.9 Q364.628 1839.49 364.628 1848.24 Q364.628 1856.96 361.55 1861.57 Q358.494 1866.15 352.684 1866.15 Q346.874 1866.15 343.795 1861.57 Q340.74 1856.96 340.74 1848.24 Q340.74 1839.49 343.795 1834.9 Q346.874 1830.3 352.684 1830.3 Z" fill="#000000" fill-rule="evenodd" fill-opacity="1" /><path clip-path="url(#clip660)" d="M372.846 1859.6 L377.73 1859.6 L377.73 1865.48 L372.846 1865.48 L372.846 1859.6 Z" fill="#000000" fill-rule="evenodd" fill-opacity="1" /><path clip-path="url(#clip660)" d="M397.915 1834 Q394.304 1834 392.475 1837.57 Q390.67 1841.11 390.67 1848.24 Q390.67 1855.34 392.475 1858.91 Q394.304 1862.45 397.915 1862.45 Q401.549 1862.45 403.355 1858.91 Q405.184 1855.34 405.184 1848.24 Q405.184 1841.11 403.355 1837.57 Q401.549 1834 397.915 1834 M397.915 1830.3 Q403.725 1830.3 406.781 1834.9 Q409.86 1839.49 409.86 1848.24 Q409.86 1856.96 406.781 1861.57 Q403.725 1866.15 397.915 1866.15 Q392.105 1866.15 389.026 1861.57 Q385.971 1856.96 385.971 1848.24 Q385.971 1839.49 389.026 1834.9 Q392.105 1830.3 397.915 1830.3 Z" fill="#000000" fill-rule="evenodd" fill-opacity="1" /><path clip-path="url(#clip660)" d="M896.904 1861.55 L913.223 1861.55 L913.223 1865.48 L891.279 1865.48 L891.279 1861.55 Q893.941 1858.79 898.524 1854.16 Q903.131 1849.51 904.311 1848.17 Q906.557 1845.65 907.436 1843.91 Q908.339 1842.15 908.339 1840.46 Q908.339 1837.71 906.395 1835.97 Q904.473 1834.23 901.371 1834.23 Q899.172 1834.23 896.719 1835 Q894.288 1835.76 891.51 1837.31 L891.51 1832.59 Q894.334 1831.46 896.788 1830.88 Q899.242 1830.3 901.279 1830.3 Q906.649 1830.3 909.844 1832.98 Q913.038 1835.67 913.038 1840.16 Q913.038 1842.29 912.228 1844.21 Q911.441 1846.11 909.334 1848.7 Q908.756 1849.37 905.654 1852.59 Q902.552 1855.78 896.904 1861.55 Z" fill="#000000" fill-rule="evenodd" fill-opacity="1" /><path clip-path="url(#clip660)" d="M923.038 1859.6 L927.922 1859.6 L927.922 1865.48 L923.038 1865.48 L923.038 1859.6 Z" fill="#000000" fill-rule="evenodd" fill-opacity="1" /><path clip-path="url(#clip660)" d="M938.154 1830.92 L956.51 1830.92 L956.51 1834.86 L942.436 1834.86 L942.436 1843.33 Q943.455 1842.98 944.473 1842.82 Q945.492 1842.64 946.51 1842.64 Q952.297 1842.64 955.677 1845.81 Q959.056 1848.98 959.056 1854.4 Q959.056 1859.97 955.584 1863.08 Q952.112 1866.15 945.792 1866.15 Q943.617 1866.15 941.348 1865.78 Q939.103 1865.41 936.695 1864.67 L936.695 1859.97 Q938.779 1861.11 941.001 1861.66 Q943.223 1862.22 945.7 1862.22 Q949.705 1862.22 952.042 1860.11 Q954.38 1858.01 954.38 1854.4 Q954.38 1850.78 952.042 1848.68 Q949.705 1846.57 945.7 1846.57 Q943.825 1846.57 941.95 1846.99 Q940.098 1847.4 938.154 1848.28 L938.154 1830.92 Z" fill="#000000" fill-rule="evenodd" fill-opacity="1" /><path clip-path="url(#clip660)" d="M1442.2 1830.92 L1460.56 1830.92 L1460.56 1834.86 L1446.48 1834.86 L1446.48 1843.33 Q1447.5 1842.98 1448.52 1842.82 Q1449.54 1842.64 1450.56 1842.64 Q1456.34 1842.64 1459.72 1845.81 Q1463.1 1848.98 1463.1 1854.4 Q1463.1 1859.97 1459.63 1863.08 Q1456.16 1866.15 1449.84 1866.15 Q1447.66 1866.15 1445.39 1865.78 Q1443.15 1865.41 1440.74 1864.67 L1440.74 1859.97 Q1442.83 1861.11 1445.05 1861.66 Q1447.27 1862.22 1449.75 1862.22 Q1453.75 1862.22 1456.09 1860.11 Q1458.43 1858.01 1458.43 1854.4 Q1458.43 1850.78 1456.09 1848.68 Q1453.75 1846.57 1449.75 1846.57 Q1447.87 1846.57 1446 1846.99 Q1444.14 1847.4 1442.2 1848.28 L1442.2 1830.92 Z" fill="#000000" fill-rule="evenodd" fill-opacity="1" /><path clip-path="url(#clip660)" d="M1472.32 1859.6 L1477.2 1859.6 L1477.2 1865.48 L1472.32 1865.48 L1472.32 1859.6 Z" fill="#000000" fill-rule="evenodd" fill-opacity="1" /><path clip-path="url(#clip660)" d="M1497.39 1834 Q1493.77 1834 1491.95 1837.57 Q1490.14 1841.11 1490.14 1848.24 Q1490.14 1855.34 1491.95 1858.91 Q1493.77 1862.45 1497.39 1862.45 Q1501.02 1862.45 1502.82 1858.91 Q1504.65 1855.34 1504.65 1848.24 Q1504.65 1841.11 1502.82 1837.57 Q1501.02 1834 1497.39 1834 M1497.39 1830.3 Q1503.2 1830.3 1506.25 1834.9 Q1509.33 1839.49 1509.33 1848.24 Q1509.33 1856.96 1506.25 1861.57 Q1503.2 1866.15 1497.39 1866.15 Q1491.57 1866.15 1488.5 1861.57 Q1485.44 1856.96 1485.44 1848.24 Q1485.44 1839.49 1488.5 1834.9 Q1491.57 1830.3 1497.39 1830.3 Z" fill="#000000" fill-rule="evenodd" fill-opacity="1" /><path clip-path="url(#clip660)" d="M1991.22 1830.92 L2013.45 1830.92 L2013.45 1832.91 L2000.9 1865.48 L1996.01 1865.48 L2007.82 1834.86 L1991.22 1834.86 L1991.22 1830.92 Z" fill="#000000" fill-rule="evenodd" fill-opacity="1" /><path clip-path="url(#clip660)" d="M2022.57 1859.6 L2027.45 1859.6 L2027.45 1865.48 L2022.57 1865.48 L2022.57 1859.6 Z" fill="#000000" fill-rule="evenodd" fill-opacity="1" /><path clip-path="url(#clip660)" d="M2037.68 1830.92 L2056.04 1830.92 L2056.04 1834.86 L2041.96 1834.86 L2041.96 1843.33 Q2042.98 1842.98 2044 1842.82 Q2045.02 1842.64 2046.04 1842.64 Q2051.82 1842.64 2055.2 1845.81 Q2058.58 1848.98 2058.58 1854.4 Q2058.58 1859.97 2055.11 1863.08 Q2051.64 1866.15 2045.32 1866.15 Q2043.14 1866.15 2040.88 1865.78 Q2038.63 1865.41 2036.22 1864.67 L2036.22 1859.97 Q2038.31 1861.11 2040.53 1861.66 Q2042.75 1862.22 2045.23 1862.22 Q2049.23 1862.22 2051.57 1860.11 Q2053.91 1858.01 2053.91 1854.4 Q2053.91 1850.78 2051.57 1848.68 Q2049.23 1846.57 2045.23 1846.57 Q2043.35 1846.57 2041.48 1846.99 Q2039.63 1847.4 2037.68 1848.28 L2037.68 1830.92 Z" fill="#000000" fill-rule="evenodd" fill-opacity="1" /><path clip-path="url(#clip660)" d="M2526.84 1861.55 L2534.48 1861.55 L2534.48 1835.18 L2526.17 1836.85 L2526.17 1832.59 L2534.44 1830.92 L2539.11 1830.92 L2539.11 1861.55 L2546.75 1861.55 L2546.75 1865.48 L2526.84 1865.48 L2526.84 1861.55 Z" fill="#000000" fill-rule="evenodd" fill-opacity="1" /><path clip-path="url(#clip660)" d="M2566.2 1834 Q2562.58 1834 2560.76 1837.57 Q2558.95 1841.11 2558.95 1848.24 Q2558.95 1855.34 2560.76 1858.91 Q2562.58 1862.45 2566.2 1862.45 Q2569.83 1862.45 2571.64 1858.91 Q2573.46 1855.34 2573.46 1848.24 Q2573.46 1841.11 2571.64 1837.57 Q2569.83 1834 2566.2 1834 M2566.2 1830.3 Q2572.01 1830.3 2575.06 1834.9 Q2578.14 1839.49 2578.14 1848.24 Q2578.14 1856.96 2575.06 1861.57 Q2572.01 1866.15 2566.2 1866.15 Q2560.39 1866.15 2557.31 1861.57 Q2554.25 1856.96 2554.25 1848.24 Q2554.25 1839.49 2557.31 1834.9 Q2560.39 1830.3 2566.2 1830.3 Z" fill="#000000" fill-rule="evenodd" fill-opacity="1" /><path clip-path="url(#clip660)" d="M2586.36 1859.6 L2591.24 1859.6 L2591.24 1865.48 L2586.36 1865.48 L2586.36 1859.6 Z" fill="#000000" fill-rule="evenodd" fill-opacity="1" /><path clip-path="url(#clip660)" d="M2611.43 1834 Q2607.82 1834 2605.99 1837.57 Q2604.18 1841.11 2604.18 1848.24 Q2604.18 1855.34 2605.99 1858.91 Q2607.82 1862.45 2611.43 1862.45 Q2615.06 1862.45 2616.87 1858.91 Q2618.7 1855.34 2618.7 1848.24 Q2618.7 1841.11 2616.87 1837.57 Q2615.06 1834 2611.43 1834 M2611.43 1830.3 Q2617.24 1830.3 2620.29 1834.9 Q2623.37 1839.49 2623.37 1848.24 Q2623.37 1856.96 2620.29 1861.57 Q2617.24 1866.15 2611.43 1866.15 Q2605.62 1866.15 2602.54 1861.57 Q2599.48 1856.96 2599.48 1848.24 Q2599.48 1839.49 2602.54 1834.9 Q2605.62 1830.3 2611.43 1830.3 Z" fill="#000000" fill-rule="evenodd" fill-opacity="1" /><polyline clip-path="url(#clip662)" style="stroke:#000000; stroke-linecap:round; stroke-linejoin:round; stroke-width:2; stroke-opacity:0.1; fill:none" points="
  309.315,1751.15 2640.76,1751.15 
  "/>
<polyline clip-path="url(#clip662)" style="stroke:#000000; stroke-linecap:round; stroke-linejoin:round; stroke-width:2; stroke-opacity:0.1; fill:none" points="
  309.315,1375.63 2640.76,1375.63 
  "/>
<polyline clip-path="url(#clip662)" style="stroke:#000000; stroke-linecap:round; stroke-linejoin:round; stroke-width:2; stroke-opacity:0.1; fill:none" points="
  309.315,1000.11 2640.76,1000.11 
  "/>
<polyline clip-path="url(#clip662)" style="stroke:#000000; stroke-linecap:round; stroke-linejoin:round; stroke-width:2; stroke-opacity:0.1; fill:none" points="
  309.315,624.589 2640.76,624.589 
  "/>
<polyline clip-path="url(#clip662)" style="stroke:#000000; stroke-linecap:round; stroke-linejoin:round; stroke-width:2; stroke-opacity:0.1; fill:none" points="
  309.315,249.068 2640.76,249.068 
  "/>
<polyline clip-path="url(#clip660)" style="stroke:#000000; stroke-linecap:round; stroke-linejoin:round; stroke-width:4; stroke-opacity:1; fill:none" points="
  309.315,1800.78 309.315,47.2441 
  "/>
<polyline clip-path="url(#clip660)" style="stroke:#000000; stroke-linecap:round; stroke-linejoin:round; stroke-width:4; stroke-opacity:1; fill:none" points="
  309.315,1751.15 328.213,1751.15 
  "/>
<polyline clip-path="url(#clip660)" style="stroke:#000000; stroke-linecap:round; stroke-linejoin:round; stroke-width:4; stroke-opacity:1; fill:none" points="
  309.315,1375.63 328.213,1375.63 
  "/>
<polyline clip-path="url(#clip660)" style="stroke:#000000; stroke-linecap:round; stroke-linejoin:round; stroke-width:4; stroke-opacity:1; fill:none" points="
  309.315,1000.11 328.213,1000.11 
  "/>
<polyline clip-path="url(#clip660)" style="stroke:#000000; stroke-linecap:round; stroke-linejoin:round; stroke-width:4; stroke-opacity:1; fill:none" points="
  309.315,624.589 328.213,624.589 
  "/>
<polyline clip-path="url(#clip660)" style="stroke:#000000; stroke-linecap:round; stroke-linejoin:round; stroke-width:4; stroke-opacity:1; fill:none" points="
  309.315,249.068 328.213,249.068 
  "/>
<path clip-path="url(#clip660)" d="M257.051 1736.95 Q253.44 1736.95 251.611 1740.51 Q249.806 1744.06 249.806 1751.19 Q249.806 1758.29 251.611 1761.86 Q253.44 1765.4 257.051 1765.4 Q260.685 1765.4 262.491 1761.86 Q264.319 1758.29 264.319 1751.19 Q264.319 1744.06 262.491 1740.51 Q260.685 1736.95 257.051 1736.95 M257.051 1733.25 Q262.861 1733.25 265.917 1737.85 Q268.995 1742.44 268.995 1751.19 Q268.995 1759.91 265.917 1764.52 Q262.861 1769.1 257.051 1769.1 Q251.241 1769.1 248.162 1764.52 Q245.107 1759.91 245.107 1751.19 Q245.107 1742.44 248.162 1737.85 Q251.241 1733.25 257.051 1733.25 Z" fill="#000000" fill-rule="evenodd" fill-opacity="1" /><path clip-path="url(#clip660)" d="M53.1705 1364.8 L71.5268 1364.8 L71.5268 1368.73 L57.4528 1368.73 L57.4528 1377.21 Q58.4713 1376.86 59.4899 1376.7 Q60.5084 1376.51 61.5269 1376.51 Q67.3139 1376.51 70.6935 1379.68 Q74.0731 1382.85 74.0731 1388.27 Q74.0731 1393.85 70.6009 1396.95 Q67.1287 1400.03 60.8093 1400.03 Q58.6334 1400.03 56.3649 1399.66 Q54.1195 1399.29 51.7121 1398.55 L51.7121 1393.85 Q53.7954 1394.98 56.0177 1395.54 Q58.2399 1396.09 60.7167 1396.09 Q64.7213 1396.09 67.0593 1393.99 Q69.3972 1391.88 69.3972 1388.27 Q69.3972 1384.66 67.0593 1382.55 Q64.7213 1380.45 60.7167 1380.45 Q58.8417 1380.45 56.9667 1380.86 Q55.1149 1381.28 53.1705 1382.16 L53.1705 1364.8 Z" fill="#000000" fill-rule="evenodd" fill-opacity="1" /><path clip-path="url(#clip660)" d="M83.286 1393.48 L88.1703 1393.48 L88.1703 1399.36 L83.286 1399.36 L83.286 1393.48 Z" fill="#000000" fill-rule="evenodd" fill-opacity="1" /><path clip-path="url(#clip660)" d="M108.355 1367.88 Q104.744 1367.88 102.916 1371.44 Q101.11 1374.98 101.11 1382.11 Q101.11 1389.22 102.916 1392.78 Q104.744 1396.33 108.355 1396.33 Q111.99 1396.33 113.795 1392.78 Q115.624 1389.22 115.624 1382.11 Q115.624 1374.98 113.795 1371.44 Q111.99 1367.88 108.355 1367.88 M108.355 1364.17 Q114.165 1364.17 117.221 1368.78 Q120.3 1373.36 120.3 1382.11 Q120.3 1390.84 117.221 1395.45 Q114.165 1400.03 108.355 1400.03 Q102.545 1400.03 99.4665 1395.45 Q96.411 1390.84 96.411 1382.11 Q96.411 1373.36 99.4665 1368.78 Q102.545 1364.17 108.355 1364.17 Z" fill="#000000" fill-rule="evenodd" fill-opacity="1" /><path clip-path="url(#clip660)" d="M138.517 1367.88 Q134.906 1367.88 133.077 1371.44 Q131.272 1374.98 131.272 1382.11 Q131.272 1389.22 133.077 1392.78 Q134.906 1396.33 138.517 1396.33 Q142.151 1396.33 143.957 1392.78 Q145.786 1389.22 145.786 1382.11 Q145.786 1374.98 143.957 1371.44 Q142.151 1367.88 138.517 1367.88 M138.517 1364.17 Q144.327 1364.17 147.383 1368.78 Q150.462 1373.36 150.462 1382.11 Q150.462 1390.84 147.383 1395.45 Q144.327 1400.03 138.517 1400.03 Q132.707 1400.03 129.628 1395.45 Q126.573 1390.84 126.573 1382.11 Q126.573 1373.36 129.628 1368.78 Q132.707 1364.17 138.517 1364.17 Z" fill="#000000" fill-rule="evenodd" fill-opacity="1" /><path clip-path="url(#clip660)" d="M186.85 1373.9 L176.272 1384.52 L186.85 1395.1 L184.096 1397.9 L173.471 1387.27 L162.846 1397.9 L160.114 1395.1 L170.67 1384.52 L160.114 1373.9 L162.846 1371.09 L173.471 1381.72 L184.096 1371.09 L186.85 1373.9 Z" fill="#000000" fill-rule="evenodd" fill-opacity="1" /><path clip-path="url(#clip660)" d="M199.211 1395.42 L206.85 1395.42 L206.85 1369.06 L198.54 1370.72 L198.54 1366.46 L206.804 1364.8 L211.48 1364.8 L211.48 1395.42 L219.119 1395.42 L219.119 1399.36 L199.211 1399.36 L199.211 1395.42 Z" fill="#000000" fill-rule="evenodd" fill-opacity="1" /><path clip-path="url(#clip660)" d="M238.563 1367.88 Q234.952 1367.88 233.123 1371.44 Q231.318 1374.98 231.318 1382.11 Q231.318 1389.22 233.123 1392.78 Q234.952 1396.33 238.563 1396.33 Q242.197 1396.33 244.003 1392.78 Q245.831 1389.22 245.831 1382.11 Q245.831 1374.98 244.003 1371.44 Q242.197 1367.88 238.563 1367.88 M238.563 1364.17 Q244.373 1364.17 247.429 1368.78 Q250.507 1373.36 250.507 1382.11 Q250.507 1390.84 247.429 1395.45 Q244.373 1400.03 238.563 1400.03 Q232.753 1400.03 229.674 1395.45 Q226.619 1390.84 226.619 1382.11 Q226.619 1373.36 229.674 1368.78 Q232.753 1364.17 238.563 1364.17 Z" fill="#000000" fill-rule="evenodd" fill-opacity="1" /><path clip-path="url(#clip660)" d="M263.203 1356.81 Q265.93 1357.39 267.453 1359.23 Q268.995 1361.08 268.995 1363.78 Q268.995 1367.94 266.137 1370.22 Q263.278 1372.49 258.012 1372.49 Q256.244 1372.49 254.363 1372.14 Q252.501 1371.8 250.507 1371.1 L250.507 1367.43 Q252.087 1368.36 253.968 1368.83 Q255.849 1369.3 257.899 1369.3 Q261.472 1369.3 263.334 1367.89 Q265.215 1366.47 265.215 1363.78 Q265.215 1361.3 263.466 1359.91 Q261.736 1358.5 258.632 1358.5 L255.36 1358.5 L255.36 1355.38 L258.783 1355.38 Q261.585 1355.38 263.071 1354.27 Q264.557 1353.14 264.557 1351.03 Q264.557 1348.87 263.015 1347.72 Q261.491 1346.56 258.632 1346.56 Q257.071 1346.56 255.285 1346.9 Q253.498 1347.23 251.354 1347.95 L251.354 1344.56 Q253.517 1343.96 255.397 1343.66 Q257.297 1343.36 258.971 1343.36 Q263.297 1343.36 265.817 1345.33 Q268.337 1347.29 268.337 1350.64 Q268.337 1352.97 267.002 1354.59 Q265.666 1356.19 263.203 1356.81 Z" fill="#000000" fill-rule="evenodd" fill-opacity="1" /><path clip-path="url(#clip660)" d="M51.9595 1019.9 L59.5984 1019.9 L59.5984 993.537 L51.2882 995.203 L51.2882 990.944 L59.5521 989.277 L64.228 989.277 L64.228 1019.9 L71.8668 1019.9 L71.8668 1023.84 L51.9595 1023.84 L51.9595 1019.9 Z" fill="#000000" fill-rule="evenodd" fill-opacity="1" /><path clip-path="url(#clip660)" d="M81.3112 1017.96 L86.1954 1017.96 L86.1954 1023.84 L81.3112 1023.84 L81.3112 1017.96 Z" fill="#000000" fill-rule="evenodd" fill-opacity="1" /><path clip-path="url(#clip660)" d="M106.381 992.356 Q102.769 992.356 100.941 995.921 Q99.1352 999.462 99.1352 1006.59 Q99.1352 1013.7 100.941 1017.26 Q102.769 1020.8 106.381 1020.8 Q110.015 1020.8 111.82 1017.26 Q113.649 1013.7 113.649 1006.59 Q113.649 999.462 111.82 995.921 Q110.015 992.356 106.381 992.356 M106.381 988.652 Q112.191 988.652 115.246 993.259 Q118.325 997.842 118.325 1006.59 Q118.325 1015.32 115.246 1019.93 Q112.191 1024.51 106.381 1024.51 Q100.57 1024.51 97.4917 1019.93 Q94.4361 1015.32 94.4361 1006.59 Q94.4361 997.842 97.4917 993.259 Q100.57 988.652 106.381 988.652 Z" fill="#000000" fill-rule="evenodd" fill-opacity="1" /><path clip-path="url(#clip660)" d="M136.542 992.356 Q132.931 992.356 131.103 995.921 Q129.297 999.462 129.297 1006.59 Q129.297 1013.7 131.103 1017.26 Q132.931 1020.8 136.542 1020.8 Q140.177 1020.8 141.982 1017.26 Q143.811 1013.7 143.811 1006.59 Q143.811 999.462 141.982 995.921 Q140.177 992.356 136.542 992.356 M136.542 988.652 Q142.353 988.652 145.408 993.259 Q148.487 997.842 148.487 1006.59 Q148.487 1015.32 145.408 1019.93 Q142.353 1024.51 136.542 1024.51 Q130.732 1024.51 127.654 1019.93 Q124.598 1015.32 124.598 1006.59 Q124.598 997.842 127.654 993.259 Q130.732 988.652 136.542 988.652 Z" fill="#000000" fill-rule="evenodd" fill-opacity="1" /><path clip-path="url(#clip660)" d="M184.875 998.374 L174.297 1009 L184.875 1019.58 L182.121 1022.38 L171.496 1011.75 L160.871 1022.38 L158.14 1019.58 L168.695 1009 L158.14 998.374 L160.871 995.574 L171.496 1006.2 L182.121 995.574 L184.875 998.374 Z" fill="#000000" fill-rule="evenodd" fill-opacity="1" /><path clip-path="url(#clip660)" d="M197.237 1019.9 L204.875 1019.9 L204.875 993.537 L196.565 995.203 L196.565 990.944 L204.829 989.277 L209.505 989.277 L209.505 1019.9 L217.144 1019.9 L217.144 1023.84 L197.237 1023.84 L197.237 1019.9 Z" fill="#000000" fill-rule="evenodd" fill-opacity="1" /><path clip-path="url(#clip660)" d="M236.588 992.356 Q232.977 992.356 231.148 995.921 Q229.343 999.462 229.343 1006.59 Q229.343 1013.7 231.148 1017.26 Q232.977 1020.8 236.588 1020.8 Q240.222 1020.8 242.028 1017.26 Q243.857 1013.7 243.857 1006.59 Q243.857 999.462 242.028 995.921 Q240.222 992.356 236.588 992.356 M236.588 988.652 Q242.398 988.652 245.454 993.259 Q248.533 997.842 248.533 1006.59 Q248.533 1015.32 245.454 1019.93 Q242.398 1024.51 236.588 1024.51 Q230.778 1024.51 227.699 1019.93 Q224.644 1015.32 224.644 1006.59 Q224.644 997.842 227.699 993.259 Q230.778 988.652 236.588 988.652 Z" fill="#000000" fill-rule="evenodd" fill-opacity="1" /><path clip-path="url(#clip660)" d="M261.209 971.657 L251.617 986.647 L261.209 986.647 L261.209 971.657 M260.212 968.347 L264.989 968.347 L264.989 986.647 L268.995 986.647 L268.995 989.807 L264.989 989.807 L264.989 996.427 L261.209 996.427 L261.209 989.807 L248.533 989.807 L248.533 986.139 L260.212 968.347 Z" fill="#000000" fill-rule="evenodd" fill-opacity="1" /><path clip-path="url(#clip660)" d="M51.9595 644.381 L59.5984 644.381 L59.5984 618.016 L51.2882 619.683 L51.2882 615.423 L59.5521 613.757 L64.228 613.757 L64.228 644.381 L71.8668 644.381 L71.8668 648.317 L51.9595 648.317 L51.9595 644.381 Z" fill="#000000" fill-rule="evenodd" fill-opacity="1" /><path clip-path="url(#clip660)" d="M81.3112 642.437 L86.1954 642.437 L86.1954 648.317 L81.3112 648.317 L81.3112 642.437 Z" fill="#000000" fill-rule="evenodd" fill-opacity="1" /><path clip-path="url(#clip660)" d="M96.4269 613.757 L114.783 613.757 L114.783 617.692 L100.709 617.692 L100.709 626.164 Q101.728 625.817 102.746 625.655 Q103.765 625.47 104.783 625.47 Q110.57 625.47 113.95 628.641 Q117.33 631.812 117.33 637.229 Q117.33 642.807 113.857 645.909 Q110.385 648.988 104.066 648.988 Q101.89 648.988 99.6213 648.618 Q97.3759 648.247 94.9685 647.506 L94.9685 642.807 Q97.0519 643.942 99.2741 644.497 Q101.496 645.053 103.973 645.053 Q107.978 645.053 110.316 642.946 Q112.654 640.84 112.654 637.229 Q112.654 633.618 110.316 631.511 Q107.978 629.405 103.973 629.405 Q102.098 629.405 100.223 629.821 Q98.3713 630.238 96.4269 631.118 L96.4269 613.757 Z" fill="#000000" fill-rule="evenodd" fill-opacity="1" /><path clip-path="url(#clip660)" d="M136.542 616.835 Q132.931 616.835 131.103 620.4 Q129.297 623.942 129.297 631.071 Q129.297 638.178 131.103 641.743 Q132.931 645.284 136.542 645.284 Q140.177 645.284 141.982 641.743 Q143.811 638.178 143.811 631.071 Q143.811 623.942 141.982 620.4 Q140.177 616.835 136.542 616.835 M136.542 613.132 Q142.353 613.132 145.408 617.738 Q148.487 622.321 148.487 631.071 Q148.487 639.798 145.408 644.405 Q142.353 648.988 136.542 648.988 Q130.732 648.988 127.654 644.405 Q124.598 639.798 124.598 631.071 Q124.598 622.321 127.654 617.738 Q130.732 613.132 136.542 613.132 Z" fill="#000000" fill-rule="evenodd" fill-opacity="1" /><path clip-path="url(#clip660)" d="M184.875 622.854 L174.297 633.479 L184.875 644.057 L182.121 646.858 L171.496 636.233 L160.871 646.858 L158.14 644.057 L168.695 633.479 L158.14 622.854 L160.871 620.053 L171.496 630.678 L182.121 620.053 L184.875 622.854 Z" fill="#000000" fill-rule="evenodd" fill-opacity="1" /><path clip-path="url(#clip660)" d="M197.237 644.381 L204.875 644.381 L204.875 618.016 L196.565 619.683 L196.565 615.423 L204.829 613.757 L209.505 613.757 L209.505 644.381 L217.144 644.381 L217.144 648.317 L197.237 648.317 L197.237 644.381 Z" fill="#000000" fill-rule="evenodd" fill-opacity="1" /><path clip-path="url(#clip660)" d="M236.588 616.835 Q232.977 616.835 231.148 620.4 Q229.343 623.942 229.343 631.071 Q229.343 638.178 231.148 641.743 Q232.977 645.284 236.588 645.284 Q240.222 645.284 242.028 641.743 Q243.857 638.178 243.857 631.071 Q243.857 623.942 242.028 620.4 Q240.222 616.835 236.588 616.835 M236.588 613.132 Q242.398 613.132 245.454 617.738 Q248.533 622.321 248.533 631.071 Q248.533 639.798 245.454 644.405 Q242.398 648.988 236.588 648.988 Q230.778 648.988 227.699 644.405 Q224.644 639.798 224.644 631.071 Q224.644 622.321 227.699 617.738 Q230.778 613.132 236.588 613.132 Z" fill="#000000" fill-rule="evenodd" fill-opacity="1" /><path clip-path="url(#clip660)" d="M261.209 596.136 L251.617 611.126 L261.209 611.126 L261.209 596.136 M260.212 592.826 L264.989 592.826 L264.989 611.126 L268.995 611.126 L268.995 614.286 L264.989 614.286 L264.989 620.906 L261.209 620.906 L261.209 614.286 L248.533 614.286 L248.533 610.618 L260.212 592.826 Z" fill="#000000" fill-rule="evenodd" fill-opacity="1" /><path clip-path="url(#clip660)" d="M55.1771 268.861 L71.4965 268.861 L71.4965 272.796 L49.5521 272.796 L49.5521 268.861 Q52.2141 266.106 56.7975 261.477 Q61.4039 256.824 62.5845 255.481 Q64.8298 252.958 65.7094 251.222 Q66.6122 249.463 66.6122 247.773 Q66.6122 245.018 64.6678 243.282 Q62.7465 241.546 59.6447 241.546 Q57.4456 241.546 54.9919 242.31 Q52.5614 243.074 49.7836 244.625 L49.7836 239.903 Q52.6077 238.768 55.0614 238.19 Q57.515 237.611 59.5521 237.611 Q64.9224 237.611 68.1168 240.296 Q71.3113 242.981 71.3113 247.472 Q71.3113 249.602 70.5011 251.523 Q69.7141 253.421 67.6076 256.014 Q67.0289 256.685 63.927 259.903 Q60.8252 263.097 55.1771 268.861 Z" fill="#000000" fill-rule="evenodd" fill-opacity="1" /><path clip-path="url(#clip660)" d="M81.3112 266.916 L86.1954 266.916 L86.1954 272.796 L81.3112 272.796 L81.3112 266.916 Z" fill="#000000" fill-rule="evenodd" fill-opacity="1" /><path clip-path="url(#clip660)" d="M106.381 241.315 Q102.769 241.315 100.941 244.879 Q99.1352 248.421 99.1352 255.551 Q99.1352 262.657 100.941 266.222 Q102.769 269.764 106.381 269.764 Q110.015 269.764 111.82 266.222 Q113.649 262.657 113.649 255.551 Q113.649 248.421 111.82 244.879 Q110.015 241.315 106.381 241.315 M106.381 237.611 Q112.191 237.611 115.246 242.217 Q118.325 246.801 118.325 255.551 Q118.325 264.278 115.246 268.884 Q112.191 273.467 106.381 273.467 Q100.57 273.467 97.4917 268.884 Q94.4361 264.278 94.4361 255.551 Q94.4361 246.801 97.4917 242.217 Q100.57 237.611 106.381 237.611 Z" fill="#000000" fill-rule="evenodd" fill-opacity="1" /><path clip-path="url(#clip660)" d="M136.542 241.315 Q132.931 241.315 131.103 244.879 Q129.297 248.421 129.297 255.551 Q129.297 262.657 131.103 266.222 Q132.931 269.764 136.542 269.764 Q140.177 269.764 141.982 266.222 Q143.811 262.657 143.811 255.551 Q143.811 248.421 141.982 244.879 Q140.177 241.315 136.542 241.315 M136.542 237.611 Q142.353 237.611 145.408 242.217 Q148.487 246.801 148.487 255.551 Q148.487 264.278 145.408 268.884 Q142.353 273.467 136.542 273.467 Q130.732 273.467 127.654 268.884 Q124.598 264.278 124.598 255.551 Q124.598 246.801 127.654 242.217 Q130.732 237.611 136.542 237.611 Z" fill="#000000" fill-rule="evenodd" fill-opacity="1" /><path clip-path="url(#clip660)" d="M184.875 247.333 L174.297 257.958 L184.875 268.537 L182.121 271.338 L171.496 260.713 L160.871 271.338 L158.14 268.537 L168.695 257.958 L158.14 247.333 L160.871 244.532 L171.496 255.157 L182.121 244.532 L184.875 247.333 Z" fill="#000000" fill-rule="evenodd" fill-opacity="1" /><path clip-path="url(#clip660)" d="M197.237 268.861 L204.875 268.861 L204.875 242.495 L196.565 244.162 L196.565 239.903 L204.829 238.236 L209.505 238.236 L209.505 268.861 L217.144 268.861 L217.144 272.796 L197.237 272.796 L197.237 268.861 Z" fill="#000000" fill-rule="evenodd" fill-opacity="1" /><path clip-path="url(#clip660)" d="M236.588 241.315 Q232.977 241.315 231.148 244.879 Q229.343 248.421 229.343 255.551 Q229.343 262.657 231.148 266.222 Q232.977 269.764 236.588 269.764 Q240.222 269.764 242.028 266.222 Q243.857 262.657 243.857 255.551 Q243.857 248.421 242.028 244.879 Q240.222 241.315 236.588 241.315 M236.588 237.611 Q242.398 237.611 245.454 242.217 Q248.533 246.801 248.533 255.551 Q248.533 264.278 245.454 268.884 Q242.398 273.467 236.588 273.467 Q230.778 273.467 227.699 268.884 Q224.644 264.278 224.644 255.551 Q224.644 246.801 227.699 242.217 Q230.778 237.611 236.588 237.611 Z" fill="#000000" fill-rule="evenodd" fill-opacity="1" /><path clip-path="url(#clip660)" d="M261.209 220.616 L251.617 235.606 L261.209 235.606 L261.209 220.616 M260.212 217.306 L264.989 217.306 L264.989 235.606 L268.995 235.606 L268.995 238.765 L264.989 238.765 L264.989 245.386 L261.209 245.386 L261.209 238.765 L248.533 238.765 L248.533 235.098 L260.212 217.306 Z" fill="#000000" fill-rule="evenodd" fill-opacity="1" /><polyline clip-path="url(#clip662)" style="stroke:#009af9; stroke-linecap:round; stroke-linejoin:round; stroke-width:4; stroke-opacity:1; fill:none" points="
  375.3,1751.15 389.619,1751.15 522.026,1751.14 601.597,1751.07 668.874,1750.91 741.954,1750.57 809.329,1750.01 881.561,1749.04 965.249,1747.26 1039.62,1744.9 
  1104.84,1742.06 1175.94,1737.96 1247.47,1732.58 1287.01,1728.98 1326.55,1724.87 1364.18,1720.46 1401.8,1715.52 1440.92,1709.77 1480.04,1703.35 1512.97,1697.39 
  1545.89,1690.89 1586.1,1682.18 1626.3,1672.55 1663.13,1662.88 1699.96,1652.34 1733.97,1641.79 1767.99,1630.42 1802.44,1618.03 1836.9,1604.7 1875.51,1588.6 
  1914.13,1571.2 1949.12,1554.27 1984.11,1536.17 2024.17,1513.94 2064.24,1490.03 2101.33,1466.32 2138.42,1441.04 2175,1414.5 2211.57,1386.29 2247.07,1357.24 
  2282.58,1326.48 2300.78,1310.04 2318.98,1293.13 2337.18,1275.73 2355.38,1257.84 2375.32,1237.67 2395.26,1216.88 2415.2,1195.47 2435.14,1173.42 2464.1,1140.24 
  2493.07,1105.64 2522.04,1069.59 2551,1032.05 2556.94,1024.16 2562.89,1016.21 2568.83,1008.19 2574.77,1000.11 
  "/>
<polyline clip-path="url(#clip662)" style="stroke:#e26f46; stroke-linecap:round; stroke-linejoin:round; stroke-width:4; stroke-opacity:1; fill:none" points="
  375.3,1751.08 389.619,1751.07 522.026,1751 601.597,1750.94 668.874,1750.87 741.954,1750.75 809.329,1750.61 881.561,1750.4 965.249,1750.05 1039.62,1749.61 
  1104.84,1749.08 1175.94,1748.29 1247.47,1747.19 1326.55,1745.48 1401.8,1743.16 1480.04,1739.75 1545.89,1735.77 1626.3,1728.98 1699.96,1720.16 1733.97,1714.98 
  1767.99,1708.92 1802.44,1701.76 1836.9,1693.39 1875.51,1682.3 1914.13,1669.09 1949.12,1654.94 1984.11,1638.35 2004.14,1627.59 2024.17,1615.81 2044.2,1602.91 
  2064.24,1588.77 2082.78,1574.48 2101.33,1558.94 2119.88,1542.03 2138.42,1523.63 2156.71,1503.91 2175,1482.47 2193.28,1459.18 2211.57,1433.87 2229.32,1407.2 
  2247.07,1378.28 2264.83,1346.94 2282.58,1312.96 2300.78,1275.16 2318.98,1234.1 2337.18,1189.49 2355.38,1141.04 2365.35,1112.75 2375.32,1083.14 2385.29,1052.17 
  2395.26,1019.75 2405.23,985.838 2415.2,950.349 2425.17,913.215 2435.14,874.358 2449.62,814.68 2464.1,750.941 2471.35,717.462 2478.59,682.863 2485.83,647.105 
  2493.07,610.151 2500.31,571.96 2507.55,532.49 2514.79,491.7 2522.04,449.544 2529.28,405.977 2536.52,360.951 2543.76,314.419 2551,266.329 2556.94,225.666 
  2562.89,183.889 2568.83,140.969 2574.77,96.8724 
  "/>
<path clip-path="url(#clip660)" d="
M2251.56 261.215 L2563.04 261.215 L2563.04 105.695 L2251.56 105.695  Z
  " fill="#ffffff" fill-rule="evenodd" fill-opacity="1"/>
<polyline clip-path="url(#clip660)" style="stroke:#000000; stroke-linecap:round; stroke-linejoin:round; stroke-width:4; stroke-opacity:1; fill:none" points="
  2251.56,261.215 2563.04,261.215 2563.04,105.695 2251.56,105.695 2251.56,261.215 
  "/>
<polyline clip-path="url(#clip660)" style="stroke:#009af9; stroke-linecap:round; stroke-linejoin:round; stroke-width:4; stroke-opacity:1; fill:none" points="
  2277.47,157.535 2432.9,157.535 
  "/>
<path clip-path="url(#clip660)" d="M2472.64 177.223 Q2470.84 181.852 2469.13 183.264 Q2467.41 184.676 2464.54 184.676 L2461.14 184.676 L2461.14 181.112 L2463.64 181.112 Q2465.4 181.112 2466.37 180.278 Q2467.34 179.445 2468.52 176.343 L2469.29 174.399 L2458.8 148.889 L2463.32 148.889 L2471.42 169.167 L2479.52 148.889 L2484.03 148.889 L2472.64 177.223 Z" fill="#000000" fill-rule="evenodd" fill-opacity="1" /><path clip-path="url(#clip660)" d="M2491.32 170.88 L2498.96 170.88 L2498.96 144.515 L2490.65 146.181 L2490.65 141.922 L2498.92 140.255 L2503.59 140.255 L2503.59 170.88 L2511.23 170.88 L2511.23 174.815 L2491.32 174.815 L2491.32 170.88 Z" fill="#000000" fill-rule="evenodd" fill-opacity="1" /><polyline clip-path="url(#clip660)" style="stroke:#e26f46; stroke-linecap:round; stroke-linejoin:round; stroke-width:4; stroke-opacity:1; fill:none" points="
  2277.47,209.375 2432.9,209.375 
  "/>
<path clip-path="url(#clip660)" d="M2472.64 229.063 Q2470.84 233.692 2469.13 235.104 Q2467.41 236.516 2464.54 236.516 L2461.14 236.516 L2461.14 232.952 L2463.64 232.952 Q2465.4 232.952 2466.37 232.118 Q2467.34 231.285 2468.52 228.183 L2469.29 226.239 L2458.8 200.729 L2463.32 200.729 L2471.42 221.007 L2479.52 200.729 L2484.03 200.729 L2472.64 229.063 Z" fill="#000000" fill-rule="evenodd" fill-opacity="1" /><path clip-path="url(#clip660)" d="M2494.54 222.72 L2510.86 222.72 L2510.86 226.655 L2488.92 226.655 L2488.92 222.72 Q2491.58 219.965 2496.16 215.336 Q2500.77 210.683 2501.95 209.341 Q2504.19 206.817 2505.07 205.081 Q2505.98 203.322 2505.98 201.632 Q2505.98 198.878 2504.03 197.142 Q2502.11 195.405 2499.01 195.405 Q2496.81 195.405 2494.36 196.169 Q2491.93 196.933 2489.15 198.484 L2489.15 193.762 Q2491.97 192.628 2494.43 192.049 Q2496.88 191.47 2498.92 191.47 Q2504.29 191.47 2507.48 194.155 Q2510.68 196.841 2510.68 201.331 Q2510.68 203.461 2509.87 205.382 Q2509.08 207.28 2506.97 209.873 Q2506.39 210.544 2503.29 213.762 Q2500.19 216.956 2494.54 222.72 Z" fill="#000000" fill-rule="evenodd" fill-opacity="1" /></svg>
