<?xml version="1.0" encoding="utf-8"?>
<svg xmlns="http://www.w3.org/2000/svg" xmlns:xlink="http://www.w3.org/1999/xlink" width="672" height="480" viewBox="0 0 2688 1920">
<defs>
  <clipPath id="clip710">
    <rect x="0" y="0" width="2688" height="1920"/>
  </clipPath>
</defs>
<path clip-path="url(#clip710)" d="
M0 1920 L2688 1920 L2688 0 L0 0  Z
  " fill="#ffffff" fill-rule="evenodd" fill-opacity="1"/>
<defs>
  <clipPath id="clip711">
    <rect x="537" y="0" width="1883" height="1883"/>
  </clipPath>
</defs>
<path clip-path="url(#clip710)" d="
M196.816 1800.78 L2640.76 1800.78 L2640.76 47.2441 L196.816 47.2441  Z
  " fill="#ffffff" fill-rule="evenodd" fill-opacity="1"/>
<defs>
  <clipPath id="clip712">
    <rect x="196" y="47" width="2445" height="1755"/>
  </clipPath>
</defs>
<polyline clip-path="url(#clip712)" style="stroke:#000000; stroke-linecap:butt; stroke-linejoin:round; stroke-width:2; stroke-opacity:0.1; fill:none" points="
  265.984,1800.78 265.984,47.2441 
  "/>
<polyline clip-path="url(#clip712)" style="stroke:#000000; stroke-linecap:butt; stroke-linejoin:round; stroke-width:2; stroke-opacity:0.1; fill:none" points="
  632.932,1800.78 632.932,47.2441 
  "/>
<polyline clip-path="url(#clip712)" style="stroke:#000000; stroke-linecap:butt; stroke-linejoin:round; stroke-width:2; stroke-opacity:0.1; fill:none" points="
  999.881,1800.78 999.881,47.2441 
  "/>
<polyline clip-path="url(#clip712)" style="stroke:#000000; stroke-linecap:butt; stroke-linejoin:round; stroke-width:2; stroke-opacity:0.1; fill:none" points="
  1366.83,1800.78 1366.83,47.2441 
  "/>
<polyline clip-path="url(#clip712)" style="stroke:#000000; stroke-linecap:butt; stroke-linejoin:round; stroke-width:2; stroke-opacity:0.1; fill:none" points="
  1733.78,1800.78 1733.78,47.2441 
  "/>
<polyline clip-path="url(#clip712)" style="stroke:#000000; stroke-linecap:butt; stroke-linejoin:round; stroke-width:2; stroke-opacity:0.1; fill:none" points="
  2100.73,1800.78 2100.73,47.2441 
  "/>
<polyline clip-path="url(#clip712)" style="stroke:#000000; stroke-linecap:butt; stroke-linejoin:round; stroke-width:2; stroke-opacity:0.1; fill:none" points="
  2467.67,1800.78 2467.67,47.2441 
  "/>
<polyline clip-path="url(#clip710)" style="stroke:#000000; stroke-linecap:butt; stroke-linejoin:round; stroke-width:4; stroke-opacity:1; fill:none" points="
  196.816,1800.78 2640.76,1800.78 
  "/>
<polyline clip-path="url(#clip710)" style="stroke:#000000; stroke-linecap:butt; stroke-linejoin:round; stroke-width:4; stroke-opacity:1; fill:none" points="
  265.984,1800.78 265.984,1781.88 
  "/>
<polyline clip-path="url(#clip710)" style="stroke:#000000; stroke-linecap:butt; stroke-linejoin:round; stroke-width:4; stroke-opacity:1; fill:none" points="
  632.932,1800.78 632.932,1781.88 
  "/>
<polyline clip-path="url(#clip710)" style="stroke:#000000; stroke-linecap:butt; stroke-linejoin:round; stroke-width:4; stroke-opacity:1; fill:none" points="
  999.881,1800.78 999.881,1781.88 
  "/>
<polyline clip-path="url(#clip710)" style="stroke:#000000; stroke-linecap:butt; stroke-linejoin:round; stroke-width:4; stroke-opacity:1; fill:none" points="
  1366.83,1800.78 1366.83,1781.88 
  "/>
<polyline clip-path="url(#clip710)" style="stroke:#000000; stroke-linecap:butt; stroke-linejoin:round; stroke-width:4; stroke-opacity:1; fill:none" points="
  1733.78,1800.78 1733.78,1781.88 
  "/>
<polyline clip-path="url(#clip710)" style="stroke:#000000; stroke-linecap:butt; stroke-linejoin:round; stroke-width:4; stroke-opacity:1; fill:none" points="
  2100.73,1800.78 2100.73,1781.88 
  "/>
<polyline clip-path="url(#clip710)" style="stroke:#000000; stroke-linecap:butt; stroke-linejoin:round; stroke-width:4; stroke-opacity:1; fill:none" points="
  2467.67,1800.78 2467.67,1781.88 
  "/>
<path clip-path="url(#clip710)" d="M265.984 1834 Q262.373 1834 260.544 1837.57 Q258.739 1841.11 258.739 1848.24 Q258.739 1855.34 260.544 1858.91 Q262.373 1862.45 265.984 1862.45 Q269.618 1862.45 271.424 1858.91 Q273.253 1855.34 273.253 1848.24 Q273.253 1841.11 271.424 1837.57 Q269.618 1834 265.984 1834 M265.984 1830.3 Q271.794 1830.3 274.85 1834.9 Q277.928 1839.49 277.928 1848.24 Q277.928 1856.96 274.85 1861.57 Q271.794 1866.15 265.984 1866.15 Q260.174 1866.15 257.095 1861.57 Q254.04 1856.96 254.04 1848.24 Q254.04 1839.49 257.095 1834.9 Q260.174 1830.3 265.984 1830.3 Z" fill="#000000" fill-rule="evenodd" fill-opacity="1" /><path clip-path="url(#clip710)" d="M623.314 1861.55 L630.953 1861.55 L630.953 1835.18 L622.643 1836.85 L622.643 1832.59 L630.907 1830.92 L635.583 1830.92 L635.583 1861.55 L643.222 1861.55 L643.222 1865.48 L623.314 1865.48 L623.314 1861.55 Z" fill="#000000" fill-rule="evenodd" fill-opacity="1" /><path clip-path="url(#clip710)" d="M994.533 1861.55 L1010.85 1861.55 L1010.85 1865.48 L988.908 1865.48 L988.908 1861.55 Q991.57 1858.79 996.154 1854.16 Q1000.76 1849.51 1001.94 1848.17 Q1004.19 1845.65 1005.07 1843.91 Q1005.97 1842.15 1005.97 1840.46 Q1005.97 1837.71 1004.02 1835.97 Q1002.1 1834.23 999.001 1834.23 Q996.802 1834.23 994.348 1835 Q991.918 1835.76 989.14 1837.31 L989.14 1832.59 Q991.964 1831.46 994.418 1830.88 Q996.871 1830.3 998.908 1830.3 Q1004.28 1830.3 1007.47 1832.98 Q1010.67 1835.67 1010.67 1840.16 Q1010.67 1842.29 1009.86 1844.21 Q1009.07 1846.11 1006.96 1848.7 Q1006.39 1849.37 1003.28 1852.59 Q1000.18 1855.78 994.533 1861.55 Z" fill="#000000" fill-rule="evenodd" fill-opacity="1" /><path clip-path="url(#clip710)" d="M1371.08 1846.85 Q1374.43 1847.57 1376.31 1849.84 Q1378.21 1852.1 1378.21 1855.44 Q1378.21 1860.55 1374.69 1863.35 Q1371.17 1866.15 1364.69 1866.15 Q1362.51 1866.15 1360.2 1865.71 Q1357.91 1865.3 1355.45 1864.44 L1355.45 1859.93 Q1357.4 1861.06 1359.71 1861.64 Q1362.03 1862.22 1364.55 1862.22 Q1368.95 1862.22 1371.24 1860.48 Q1373.55 1858.75 1373.55 1855.44 Q1373.55 1852.38 1371.4 1850.67 Q1369.27 1848.93 1365.45 1848.93 L1361.42 1848.93 L1361.42 1845.09 L1365.64 1845.09 Q1369.09 1845.09 1370.91 1843.72 Q1372.74 1842.34 1372.74 1839.74 Q1372.74 1837.08 1370.84 1835.67 Q1368.97 1834.23 1365.45 1834.23 Q1363.53 1834.23 1361.33 1834.65 Q1359.13 1835.07 1356.49 1835.95 L1356.49 1831.78 Q1359.16 1831.04 1361.47 1830.67 Q1363.81 1830.3 1365.87 1830.3 Q1371.19 1830.3 1374.29 1832.73 Q1377.4 1835.14 1377.4 1839.26 Q1377.4 1842.13 1375.75 1844.12 Q1374.11 1846.09 1371.08 1846.85 Z" fill="#000000" fill-rule="evenodd" fill-opacity="1" /><path clip-path="url(#clip710)" d="M1736.79 1835 L1724.98 1853.45 L1736.79 1853.45 L1736.79 1835 M1735.56 1830.92 L1741.44 1830.92 L1741.44 1853.45 L1746.37 1853.45 L1746.37 1857.34 L1741.44 1857.34 L1741.44 1865.48 L1736.79 1865.48 L1736.79 1857.34 L1721.18 1857.34 L1721.18 1852.82 L1735.56 1830.92 Z" fill="#000000" fill-rule="evenodd" fill-opacity="1" /><path clip-path="url(#clip710)" d="M2091 1830.92 L2109.36 1830.92 L2109.36 1834.86 L2095.29 1834.86 L2095.29 1843.33 Q2096.3 1842.98 2097.32 1842.82 Q2098.34 1842.64 2099.36 1842.64 Q2105.15 1842.64 2108.53 1845.81 Q2111.91 1848.98 2111.91 1854.4 Q2111.91 1859.97 2108.43 1863.08 Q2104.96 1866.15 2098.64 1866.15 Q2096.47 1866.15 2094.2 1865.78 Q2091.95 1865.41 2089.54 1864.67 L2089.54 1859.97 Q2091.63 1861.11 2093.85 1861.66 Q2096.07 1862.22 2098.55 1862.22 Q2102.55 1862.22 2104.89 1860.11 Q2107.23 1858.01 2107.23 1854.4 Q2107.23 1850.78 2104.89 1848.68 Q2102.55 1846.57 2098.55 1846.57 Q2096.67 1846.57 2094.8 1846.99 Q2092.95 1847.4 2091 1848.28 L2091 1830.92 Z" fill="#000000" fill-rule="evenodd" fill-opacity="1" /><path clip-path="url(#clip710)" d="M2468.08 1846.34 Q2464.93 1846.34 2463.08 1848.49 Q2461.25 1850.65 2461.25 1854.4 Q2461.25 1858.12 2463.08 1860.3 Q2464.93 1862.45 2468.08 1862.45 Q2471.23 1862.45 2473.06 1860.3 Q2474.91 1858.12 2474.91 1854.4 Q2474.91 1850.65 2473.06 1848.49 Q2471.23 1846.34 2468.08 1846.34 M2477.36 1831.69 L2477.36 1835.95 Q2475.6 1835.11 2473.8 1834.67 Q2472.01 1834.23 2470.25 1834.23 Q2465.62 1834.23 2463.17 1837.36 Q2460.74 1840.48 2460.39 1846.8 Q2461.76 1844.79 2463.82 1843.72 Q2465.88 1842.64 2468.36 1842.64 Q2473.56 1842.64 2476.57 1845.81 Q2479.61 1848.96 2479.61 1854.4 Q2479.61 1859.72 2476.46 1862.94 Q2473.31 1866.15 2468.08 1866.15 Q2462.08 1866.15 2458.91 1861.57 Q2455.74 1856.96 2455.74 1848.24 Q2455.74 1840.04 2459.63 1835.18 Q2463.52 1830.3 2470.07 1830.3 Q2471.83 1830.3 2473.61 1830.65 Q2475.42 1830.99 2477.36 1831.69 Z" fill="#000000" fill-rule="evenodd" fill-opacity="1" /><polyline clip-path="url(#clip712)" style="stroke:#000000; stroke-linecap:butt; stroke-linejoin:round; stroke-width:2; stroke-opacity:0.1; fill:none" points="
  196.816,1751.15 2640.76,1751.15 
  "/>
<polyline clip-path="url(#clip712)" style="stroke:#000000; stroke-linecap:butt; stroke-linejoin:round; stroke-width:2; stroke-opacity:0.1; fill:none" points="
  196.816,1337.58 2640.76,1337.58 
  "/>
<polyline clip-path="url(#clip712)" style="stroke:#000000; stroke-linecap:butt; stroke-linejoin:round; stroke-width:2; stroke-opacity:0.1; fill:none" points="
  196.816,924.013 2640.76,924.013 
  "/>
<polyline clip-path="url(#clip712)" style="stroke:#000000; stroke-linecap:butt; stroke-linejoin:round; stroke-width:2; stroke-opacity:0.1; fill:none" points="
  196.816,510.443 2640.76,510.443 
  "/>
<polyline clip-path="url(#clip712)" style="stroke:#000000; stroke-linecap:butt; stroke-linejoin:round; stroke-width:2; stroke-opacity:0.1; fill:none" points="
  196.816,96.8724 2640.76,96.8724 
  "/>
<polyline clip-path="url(#clip710)" style="stroke:#000000; stroke-linecap:butt; stroke-linejoin:round; stroke-width:4; stroke-opacity:1; fill:none" points="
  196.816,1800.78 196.816,47.2441 
  "/>
<polyline clip-path="url(#clip710)" style="stroke:#000000; stroke-linecap:butt; stroke-linejoin:round; stroke-width:4; stroke-opacity:1; fill:none" points="
  196.816,1751.15 215.714,1751.15 
  "/>
<polyline clip-path="url(#clip710)" style="stroke:#000000; stroke-linecap:butt; stroke-linejoin:round; stroke-width:4; stroke-opacity:1; fill:none" points="
  196.816,1337.58 215.714,1337.58 
  "/>
<polyline clip-path="url(#clip710)" style="stroke:#000000; stroke-linecap:butt; stroke-linejoin:round; stroke-width:4; stroke-opacity:1; fill:none" points="
  196.816,924.013 215.714,924.013 
  "/>
<polyline clip-path="url(#clip710)" style="stroke:#000000; stroke-linecap:butt; stroke-linejoin:round; stroke-width:4; stroke-opacity:1; fill:none" points="
  196.816,510.443 215.714,510.443 
  "/>
<polyline clip-path="url(#clip710)" style="stroke:#000000; stroke-linecap:butt; stroke-linejoin:round; stroke-width:4; stroke-opacity:1; fill:none" points="
  196.816,96.8724 215.714,96.8724 
  "/>
<path clip-path="url(#clip710)" d="M49.5521 1751.6 L79.2279 1751.6 L79.2279 1755.54 L49.5521 1755.54 L49.5521 1751.6 Z" fill="#000000" fill-rule="evenodd" fill-opacity="1" /><path clip-path="url(#clip710)" d="M90.1306 1764.5 L97.7695 1764.5 L97.7695 1738.13 L89.4593 1739.8 L89.4593 1735.54 L97.7232 1733.87 L102.399 1733.87 L102.399 1764.5 L110.038 1764.5 L110.038 1768.43 L90.1306 1768.43 L90.1306 1764.5 Z" fill="#000000" fill-rule="evenodd" fill-opacity="1" /><path clip-path="url(#clip710)" d="M119.482 1762.55 L124.367 1762.55 L124.367 1768.43 L119.482 1768.43 L119.482 1762.55 Z" fill="#000000" fill-rule="evenodd" fill-opacity="1" /><path clip-path="url(#clip710)" d="M144.552 1736.95 Q140.941 1736.95 139.112 1740.52 Q137.306 1744.06 137.306 1751.19 Q137.306 1758.29 139.112 1761.86 Q140.941 1765.4 144.552 1765.4 Q148.186 1765.4 149.991 1761.86 Q151.82 1758.29 151.82 1751.19 Q151.82 1744.06 149.991 1740.52 Q148.186 1736.95 144.552 1736.95 M144.552 1733.25 Q150.362 1733.25 153.417 1737.85 Q156.496 1742.44 156.496 1751.19 Q156.496 1759.91 153.417 1764.52 Q150.362 1769.1 144.552 1769.1 Q138.741 1769.1 135.663 1764.52 Q132.607 1759.91 132.607 1751.19 Q132.607 1742.44 135.663 1737.85 Q138.741 1733.25 144.552 1733.25 Z" fill="#000000" fill-rule="evenodd" fill-opacity="1" /><path clip-path="url(#clip710)" d="M50.5475 1338.03 L80.2233 1338.03 L80.2233 1341.97 L50.5475 1341.97 L50.5475 1338.03 Z" fill="#000000" fill-rule="evenodd" fill-opacity="1" /><path clip-path="url(#clip710)" d="M100.316 1323.38 Q96.7047 1323.38 94.876 1326.95 Q93.0704 1330.49 93.0704 1337.62 Q93.0704 1344.72 94.876 1348.29 Q96.7047 1351.83 100.316 1351.83 Q103.95 1351.83 105.756 1348.29 Q107.584 1344.72 107.584 1337.62 Q107.584 1330.49 105.756 1326.95 Q103.95 1323.38 100.316 1323.38 M100.316 1319.68 Q106.126 1319.68 109.181 1324.28 Q112.26 1328.87 112.26 1337.62 Q112.26 1346.34 109.181 1350.95 Q106.126 1355.53 100.316 1355.53 Q94.5056 1355.53 91.4269 1350.95 Q88.3714 1346.34 88.3714 1337.62 Q88.3714 1328.87 91.4269 1324.28 Q94.5056 1319.68 100.316 1319.68 Z" fill="#000000" fill-rule="evenodd" fill-opacity="1" /><path clip-path="url(#clip710)" d="M120.478 1348.98 L125.362 1348.98 L125.362 1354.86 L120.478 1354.86 L120.478 1348.98 Z" fill="#000000" fill-rule="evenodd" fill-opacity="1" /><path clip-path="url(#clip710)" d="M135.593 1320.3 L153.95 1320.3 L153.95 1324.24 L139.876 1324.24 L139.876 1332.71 Q140.894 1332.36 141.913 1332.2 Q142.931 1332.02 143.95 1332.02 Q149.737 1332.02 153.116 1335.19 Q156.496 1338.36 156.496 1343.77 Q156.496 1349.35 153.024 1352.46 Q149.552 1355.53 143.232 1355.53 Q141.056 1355.53 138.788 1355.16 Q136.542 1354.79 134.135 1354.05 L134.135 1349.35 Q136.218 1350.49 138.441 1351.04 Q140.663 1351.6 143.14 1351.6 Q147.144 1351.6 149.482 1349.49 Q151.82 1347.39 151.82 1343.77 Q151.82 1340.16 149.482 1338.06 Q147.144 1335.95 143.14 1335.95 Q141.265 1335.95 139.39 1336.37 Q137.538 1336.78 135.593 1337.66 L135.593 1320.3 Z" fill="#000000" fill-rule="evenodd" fill-opacity="1" /><path clip-path="url(#clip710)" d="M99.3204 909.811 Q95.7093 909.811 93.8806 913.376 Q92.075 916.918 92.075 924.047 Q92.075 931.154 93.8806 934.719 Q95.7093 938.26 99.3204 938.26 Q102.955 938.26 104.76 934.719 Q106.589 931.154 106.589 924.047 Q106.589 916.918 104.76 913.376 Q102.955 909.811 99.3204 909.811 M99.3204 906.108 Q105.131 906.108 108.186 910.714 Q111.265 915.297 111.265 924.047 Q111.265 932.774 108.186 937.381 Q105.131 941.964 99.3204 941.964 Q93.5102 941.964 90.4315 937.381 Q87.376 932.774 87.376 924.047 Q87.376 915.297 90.4315 910.714 Q93.5102 906.108 99.3204 906.108 Z" fill="#000000" fill-rule="evenodd" fill-opacity="1" /><path clip-path="url(#clip710)" d="M119.482 935.413 L124.367 935.413 L124.367 941.293 L119.482 941.293 L119.482 935.413 Z" fill="#000000" fill-rule="evenodd" fill-opacity="1" /><path clip-path="url(#clip710)" d="M144.552 909.811 Q140.941 909.811 139.112 913.376 Q137.306 916.918 137.306 924.047 Q137.306 931.154 139.112 934.719 Q140.941 938.26 144.552 938.26 Q148.186 938.26 149.991 934.719 Q151.82 931.154 151.82 924.047 Q151.82 916.918 149.991 913.376 Q148.186 909.811 144.552 909.811 M144.552 906.108 Q150.362 906.108 153.417 910.714 Q156.496 915.297 156.496 924.047 Q156.496 932.774 153.417 937.381 Q150.362 941.964 144.552 941.964 Q138.741 941.964 135.663 937.381 Q132.607 932.774 132.607 924.047 Q132.607 915.297 135.663 910.714 Q138.741 906.108 144.552 906.108 Z" fill="#000000" fill-rule="evenodd" fill-opacity="1" /><path clip-path="url(#clip710)" d="M100.316 496.241 Q96.7047 496.241 94.876 499.806 Q93.0704 503.348 93.0704 510.477 Q93.0704 517.584 94.876 521.148 Q96.7047 524.69 100.316 524.69 Q103.95 524.69 105.756 521.148 Q107.584 517.584 107.584 510.477 Q107.584 503.348 105.756 499.806 Q103.95 496.241 100.316 496.241 M100.316 492.538 Q106.126 492.538 109.181 497.144 Q112.26 501.727 112.26 510.477 Q112.26 519.204 109.181 523.811 Q106.126 528.394 100.316 528.394 Q94.5056 528.394 91.4269 523.811 Q88.3714 519.204 88.3714 510.477 Q88.3714 501.727 91.4269 497.144 Q94.5056 492.538 100.316 492.538 Z" fill="#000000" fill-rule="evenodd" fill-opacity="1" /><path clip-path="url(#clip710)" d="M120.478 521.843 L125.362 521.843 L125.362 527.723 L120.478 527.723 L120.478 521.843 Z" fill="#000000" fill-rule="evenodd" fill-opacity="1" /><path clip-path="url(#clip710)" d="M135.593 493.163 L153.95 493.163 L153.95 497.098 L139.876 497.098 L139.876 505.57 Q140.894 505.223 141.913 505.061 Q142.931 504.875 143.95 504.875 Q149.737 504.875 153.116 508.047 Q156.496 511.218 156.496 516.635 Q156.496 522.213 153.024 525.315 Q149.552 528.394 143.232 528.394 Q141.056 528.394 138.788 528.023 Q136.542 527.653 134.135 526.912 L134.135 522.213 Q136.218 523.348 138.441 523.903 Q140.663 524.459 143.14 524.459 Q147.144 524.459 149.482 522.352 Q151.82 520.246 151.82 516.635 Q151.82 513.024 149.482 510.917 Q147.144 508.811 143.14 508.811 Q141.265 508.811 139.39 509.227 Q137.538 509.644 135.593 510.524 L135.593 493.163 Z" fill="#000000" fill-rule="evenodd" fill-opacity="1" /><path clip-path="url(#clip710)" d="M90.1306 110.217 L97.7695 110.217 L97.7695 83.8517 L89.4593 85.5183 L89.4593 81.2591 L97.7232 79.5924 L102.399 79.5924 L102.399 110.217 L110.038 110.217 L110.038 114.152 L90.1306 114.152 L90.1306 110.217 Z" fill="#000000" fill-rule="evenodd" fill-opacity="1" /><path clip-path="url(#clip710)" d="M119.482 108.273 L124.367 108.273 L124.367 114.152 L119.482 114.152 L119.482 108.273 Z" fill="#000000" fill-rule="evenodd" fill-opacity="1" /><path clip-path="url(#clip710)" d="M144.552 82.6711 Q140.941 82.6711 139.112 86.2359 Q137.306 89.7776 137.306 96.9072 Q137.306 104.014 139.112 107.578 Q140.941 111.12 144.552 111.12 Q148.186 111.12 149.991 107.578 Q151.82 104.014 151.82 96.9072 Q151.82 89.7776 149.991 86.2359 Q148.186 82.6711 144.552 82.6711 M144.552 78.9675 Q150.362 78.9675 153.417 83.5739 Q156.496 88.1572 156.496 96.9072 Q156.496 105.634 153.417 110.24 Q150.362 114.824 144.552 114.824 Q138.741 114.824 135.663 110.24 Q132.607 105.634 132.607 96.9072 Q132.607 88.1572 135.663 83.5739 Q138.741 78.9675 144.552 78.9675 Z" fill="#000000" fill-rule="evenodd" fill-opacity="1" /><polyline clip-path="url(#clip712)" style="stroke:#009af9; stroke-linecap:butt; stroke-linejoin:round; stroke-width:4; stroke-opacity:1; fill:none" points="
  265.984,924.013 273.489,907.096 280.995,890.186 315.694,812.304 350.393,735.42 385.092,660.221 419.791,587.379 440.643,545.01 461.496,503.865 482.349,464.077 
  503.201,425.773 520.832,394.638 538.463,364.724 556.093,336.102 573.724,308.836 592.876,280.829 612.028,254.573 631.179,230.141 650.331,207.598 667.988,188.543 
  685.644,171.19 703.3,155.58 720.956,141.749 739.886,128.932 758.815,118.23 777.745,109.673 796.674,103.282 818.606,98.6086 840.537,96.8829 862.469,98.111 
  884.4,102.288 903.891,108.464 923.381,116.94 942.871,127.693 962.361,140.691 979.452,153.909 996.543,168.797 1013.63,185.323 1030.73,203.452 1049.36,224.996 
  1067.99,248.342 1086.63,273.431 1105.26,300.197 1124.01,328.744 1142.75,358.844 1161.5,390.419 1180.24,423.386 1200.96,461.351 1221.69,500.793 1242.41,541.583 
  1263.14,583.594 1302.58,666.421 1342.01,752.222 1424.03,935.827 1493.06,1090.3 1535.21,1182.06 1577.35,1270.42 1596.65,1309.43 1615.96,1347.38 1635.26,1384.15 
  1654.56,1419.66 1672.39,1451.23 1690.22,1481.56 1708.05,1510.58 1725.87,1538.21 1743.93,1564.72 1761.99,1589.68 1780.05,1613.02 1798.11,1634.7 1818.35,1656.95 
  1838.59,1676.97 1858.83,1694.7 1879.07,1710.08 1897.41,1721.96 1915.75,1731.84 1934.09,1739.71 1952.43,1745.54 1973.42,1749.7 1994.42,1751.15 2015.42,1749.9 
  2036.42,1745.94 2055.86,1739.87 2075.3,1731.52 2094.74,1720.9 2114.19,1708.04 2133.35,1693.21 2152.52,1676.28 2171.69,1657.3 2190.86,1636.32 2209.47,1614.09 
  2228.08,1590.08 2246.69,1564.37 2265.3,1537 2284.37,1507.31 2303.45,1476.05 2322.53,1443.29 2341.61,1409.13 2362.51,1370.21 2383.41,1329.83 2404.31,1288.14 
  2425.22,1245.27 2485.94,1115.32 2546.67,980.134 2559.13,952.09 2571.59,924.013 
  "/>
<polyline clip-path="url(#clip712)" style="stroke:#e26f46; stroke-linecap:butt; stroke-linejoin:round; stroke-width:4; stroke-opacity:1; fill:none" points="
  265.984,96.8724 269.737,96.9157 273.489,97.0455 277.242,97.2617 280.995,97.5644 298.344,100.087 315.694,104.451 333.043,110.646 350.393,118.659 367.742,128.473 
  385.092,140.064 402.441,153.408 419.791,168.474 440.643,188.813 461.496,211.526 482.349,236.539 503.201,263.772 520.832,288.463 538.463,314.622 556.093,342.186 
  573.724,371.094 592.876,403.94 612.028,438.202 631.179,473.787 650.331,510.598 685.644,581.348 720.956,655.268 796.674,821.241 884.4,1018.51 923.381,1105.11 
  962.361,1189.66 996.543,1261.37 1030.73,1330.16 1049.36,1366.21 1067.99,1401.12 1086.63,1434.8 1105.26,1467.16 1124.01,1498.31 1142.75,1527.95 1161.5,1556.02 
  1180.24,1582.45 1200.96,1609.66 1221.69,1634.68 1242.41,1657.44 1263.14,1677.85 1282.86,1695.05 1302.58,1710.02 1322.3,1722.72 1342.01,1733.12 1362.52,1741.45 
  1383.02,1747.23 1403.52,1750.44 1424.03,1751.07 1441.29,1749.6 1458.55,1746.3 1475.81,1741.19 1493.06,1734.26 1514.14,1723.39 1535.21,1709.87 1556.28,1693.77 
  1577.35,1675.12 1596.65,1655.87 1615.96,1634.59 1635.26,1611.35 1654.56,1586.2 1672.39,1561.35 1690.22,1535 1708.05,1507.2 1725.87,1478.02 1743.93,1447.14 
  1761.99,1414.99 1780.05,1381.64 1798.11,1347.2 1838.59,1266.39 1879.07,1181.41 1915.75,1101.69 1952.43,1020.18 2036.42,831.271 2114.19,660.454 2152.52,580.132 
  2190.86,503.56 2209.47,467.99 2228.08,433.594 2246.69,400.458 2265.3,368.669 2284.37,337.564 2303.45,308.044 2322.53,280.189 2341.61,254.073 2362.51,227.541 
  2383.41,203.269 2404.31,181.334 2425.22,161.808 2440.4,149.173 2455.58,137.864 2470.76,127.9 2485.94,119.299 2516.31,106.241 2546.67,98.7786 2552.9,97.9448 
  2559.13,97.3491 2565.36,96.9916 2571.59,96.8724 
  "/>
<path clip-path="url(#clip710)" d="
M2235.31 261.215 L2559.29 261.215 L2559.29 105.695 L2235.31 105.695  Z
  " fill="#ffffff" fill-rule="evenodd" fill-opacity="1"/>
<polyline clip-path="url(#clip710)" style="stroke:#000000; stroke-linecap:butt; stroke-linejoin:round; stroke-width:4; stroke-opacity:1; fill:none" points="
  2235.31,261.215 2559.29,261.215 2559.29,105.695 2235.31,105.695 2235.31,261.215 
  "/>
<polyline clip-path="url(#clip710)" style="stroke:#009af9; stroke-linecap:butt; stroke-linejoin:round; stroke-width:4; stroke-opacity:1; fill:none" points="
  2262.47,157.535 2425.4,157.535 
  "/>
<path clip-path="url(#clip710)" d="M2466.39 177.223 Q2464.59 181.852 2462.88 183.264 Q2461.16 184.676 2458.29 184.676 L2454.89 184.676 L2454.89 181.112 L2457.39 181.112 Q2459.15 181.112 2460.12 180.278 Q2461.09 179.445 2462.27 176.343 L2463.04 174.399 L2452.55 148.889 L2457.07 148.889 L2465.17 169.167 L2473.27 148.889 L2477.78 148.889 L2466.39 177.223 Z" fill="#000000" fill-rule="evenodd" fill-opacity="1" /><path clip-path="url(#clip710)" d="M2485.07 170.88 L2492.71 170.88 L2492.71 144.515 L2484.4 146.181 L2484.4 141.922 L2492.67 140.255 L2497.34 140.255 L2497.34 170.88 L2504.98 170.88 L2504.98 174.815 L2485.07 174.815 L2485.07 170.88 Z" fill="#000000" fill-rule="evenodd" fill-opacity="1" /><polyline clip-path="url(#clip710)" style="stroke:#e26f46; stroke-linecap:butt; stroke-linejoin:round; stroke-width:4; stroke-opacity:1; fill:none" points="
  2262.47,209.375 2425.4,209.375 
  "/>
<path clip-path="url(#clip710)" d="M2466.39 229.063 Q2464.59 233.692 2462.88 235.104 Q2461.16 236.516 2458.29 236.516 L2454.89 236.516 L2454.89 232.952 L2457.39 232.952 Q2459.15 232.952 2460.12 232.118 Q2461.09 231.285 2462.27 228.183 L2463.04 226.239 L2452.55 200.729 L2457.07 200.729 L2465.17 221.007 L2473.27 200.729 L2477.78 200.729 L2466.39 229.063 Z" fill="#000000" fill-rule="evenodd" fill-opacity="1" /><path clip-path="url(#clip710)" d="M2488.29 222.72 L2504.61 222.72 L2504.61 226.655 L2482.67 226.655 L2482.67 222.72 Q2485.33 219.965 2489.91 215.336 Q2494.52 210.683 2495.7 209.341 Q2497.94 206.817 2498.82 205.081 Q2499.73 203.322 2499.73 201.632 Q2499.73 198.878 2497.78 197.142 Q2495.86 195.405 2492.76 195.405 Q2490.56 195.405 2488.11 196.169 Q2485.68 196.933 2482.9 198.484 L2482.9 193.762 Q2485.72 192.628 2488.18 192.049 Q2490.63 191.47 2492.67 191.47 Q2498.04 191.47 2501.23 194.155 Q2504.43 196.841 2504.43 201.331 Q2504.43 203.461 2503.62 205.382 Q2502.83 207.28 2500.72 209.873 Q2500.14 210.544 2497.04 213.762 Q2493.94 216.956 2488.29 222.72 Z" fill="#000000" fill-rule="evenodd" fill-opacity="1" /></svg>
