<?xml version="1.0" encoding="utf-8"?>
<svg xmlns="http://www.w3.org/2000/svg" xmlns:xlink="http://www.w3.org/1999/xlink" width="672" height="480" viewBox="0 0 2688 1920">
<defs>
  <clipPath id="clip460">
    <rect x="0" y="0" width="2688" height="1920"/>
  </clipPath>
</defs>
<path clip-path="url(#clip460)" d="
M0 1920 L2688 1920 L2688 0 L0 0  Z
  " fill="#ffffff" fill-rule="evenodd" fill-opacity="1"/>
<defs>
  <clipPath id="clip461">
    <rect x="537" y="0" width="1883" height="1883"/>
  </clipPath>
</defs>
<path clip-path="url(#clip460)" d="
M196.816 1800.78 L2640.76 1800.78 L2640.76 47.2441 L196.816 47.2441  Z
  " fill="#ffffff" fill-rule="evenodd" fill-opacity="1"/>
<defs>
  <clipPath id="clip462">
    <rect x="196" y="47" width="2445" height="1755"/>
  </clipPath>
</defs>
<polyline clip-path="url(#clip462)" style="stroke:#000000; stroke-linecap:butt; stroke-linejoin:round; stroke-width:2; stroke-opacity:0.1; fill:none" points="
  265.984,1800.78 265.984,47.2441 
  "/>
<polyline clip-path="url(#clip462)" style="stroke:#000000; stroke-linecap:butt; stroke-linejoin:round; stroke-width:2; stroke-opacity:0.1; fill:none" points="
  842.385,1800.78 842.385,47.2441 
  "/>
<polyline clip-path="url(#clip462)" style="stroke:#000000; stroke-linecap:butt; stroke-linejoin:round; stroke-width:2; stroke-opacity:0.1; fill:none" points="
  1418.79,1800.78 1418.79,47.2441 
  "/>
<polyline clip-path="url(#clip462)" style="stroke:#000000; stroke-linecap:butt; stroke-linejoin:round; stroke-width:2; stroke-opacity:0.1; fill:none" points="
  1995.19,1800.78 1995.19,47.2441 
  "/>
<polyline clip-path="url(#clip462)" style="stroke:#000000; stroke-linecap:butt; stroke-linejoin:round; stroke-width:2; stroke-opacity:0.1; fill:none" points="
  2571.59,1800.78 2571.59,47.2441 
  "/>
<polyline clip-path="url(#clip460)" style="stroke:#000000; stroke-linecap:butt; stroke-linejoin:round; stroke-width:4; stroke-opacity:1; fill:none" points="
  196.816,1800.78 2640.76,1800.78 
  "/>
<polyline clip-path="url(#clip460)" style="stroke:#000000; stroke-linecap:butt; stroke-linejoin:round; stroke-width:4; stroke-opacity:1; fill:none" points="
  265.984,1800.78 265.984,1781.88 
  "/>
<polyline clip-path="url(#clip460)" style="stroke:#000000; stroke-linecap:butt; stroke-linejoin:round; stroke-width:4; stroke-opacity:1; fill:none" points="
  842.385,1800.78 842.385,1781.88 
  "/>
<polyline clip-path="url(#clip460)" style="stroke:#000000; stroke-linecap:butt; stroke-linejoin:round; stroke-width:4; stroke-opacity:1; fill:none" points="
  1418.79,1800.78 1418.79,1781.88 
  "/>
<polyline clip-path="url(#clip460)" style="stroke:#000000; stroke-linecap:butt; stroke-linejoin:round; stroke-width:4; stroke-opacity:1; fill:none" points="
  1995.19,1800.78 1995.19,1781.88 
  "/>
<polyline clip-path="url(#clip460)" style="stroke:#000000; stroke-linecap:butt; stroke-linejoin:round; stroke-width:4; stroke-opacity:1; fill:none" points="
  2571.59,1800.78 2571.59,1781.88 
  "/>
<path clip-path="url(#clip460)" d="M243.368 1834 Q239.757 1834 237.929 1837.57 Q236.123 1841.11 236.123 1848.24 Q236.123 1855.34 237.929 1858.91 Q239.757 1862.45 243.368 1862.45 Q247.003 1862.45 248.808 1858.91 Q250.637 1855.34 250.637 1848.24 Q250.637 1841.11 248.808 1837.57 Q247.003 1834 243.368 1834 M243.368 1830.3 Q249.179 1830.3 252.234 1834.9 Q255.313 1839.49 255.313 1848.24 Q255.313 1856.96 252.234 1861.57 Q249.179 1866.15 243.368 1866.15 Q237.558 1866.15 234.48 1861.57 Q231.424 1856.96 231.424 1848.24 Q231.424 1839.49 234.48 1834.9 Q237.558 1830.3 243.368 1830.3 Z" fill="#000000" fill-rule="evenodd" fill-opacity="1" /><path clip-path="url(#clip460)" d="M263.53 1859.6 L268.415 1859.6 L268.415 1865.48 L263.53 1865.48 L263.53 1859.6 Z" fill="#000000" fill-rule="evenodd" fill-opacity="1" /><path clip-path="url(#clip460)" d="M288.6 1834 Q284.989 1834 283.16 1837.57 Q281.354 1841.11 281.354 1848.24 Q281.354 1855.34 283.16 1858.91 Q284.989 1862.45 288.6 1862.45 Q292.234 1862.45 294.04 1858.91 Q295.868 1855.34 295.868 1848.24 Q295.868 1841.11 294.04 1837.57 Q292.234 1834 288.6 1834 M288.6 1830.3 Q294.41 1830.3 297.465 1834.9 Q300.544 1839.49 300.544 1848.24 Q300.544 1856.96 297.465 1861.57 Q294.41 1866.15 288.6 1866.15 Q282.79 1866.15 279.711 1861.57 Q276.655 1856.96 276.655 1848.24 Q276.655 1839.49 279.711 1834.9 Q282.79 1830.3 288.6 1830.3 Z" fill="#000000" fill-rule="evenodd" fill-opacity="1" /><path clip-path="url(#clip460)" d="M820.267 1834 Q816.656 1834 814.827 1837.57 Q813.022 1841.11 813.022 1848.24 Q813.022 1855.34 814.827 1858.91 Q816.656 1862.45 820.267 1862.45 Q823.901 1862.45 825.707 1858.91 Q827.536 1855.34 827.536 1848.24 Q827.536 1841.11 825.707 1837.57 Q823.901 1834 820.267 1834 M820.267 1830.3 Q826.077 1830.3 829.133 1834.9 Q832.211 1839.49 832.211 1848.24 Q832.211 1856.96 829.133 1861.57 Q826.077 1866.15 820.267 1866.15 Q814.457 1866.15 811.378 1861.57 Q808.323 1856.96 808.323 1848.24 Q808.323 1839.49 811.378 1834.9 Q814.457 1830.3 820.267 1830.3 Z" fill="#000000" fill-rule="evenodd" fill-opacity="1" /><path clip-path="url(#clip460)" d="M840.429 1859.6 L845.313 1859.6 L845.313 1865.48 L840.429 1865.48 L840.429 1859.6 Z" fill="#000000" fill-rule="evenodd" fill-opacity="1" /><path clip-path="url(#clip460)" d="M855.545 1830.92 L873.901 1830.92 L873.901 1834.86 L859.827 1834.86 L859.827 1843.33 Q860.846 1842.98 861.864 1842.82 Q862.883 1842.64 863.901 1842.64 Q869.688 1842.64 873.068 1845.81 Q876.447 1848.98 876.447 1854.4 Q876.447 1859.97 872.975 1863.08 Q869.503 1866.15 863.184 1866.15 Q861.008 1866.15 858.739 1865.78 Q856.494 1865.41 854.086 1864.67 L854.086 1859.97 Q856.17 1861.11 858.392 1861.66 Q860.614 1862.22 863.091 1862.22 Q867.096 1862.22 869.433 1860.11 Q871.771 1858.01 871.771 1854.4 Q871.771 1850.78 869.433 1848.68 Q867.096 1846.57 863.091 1846.57 Q861.216 1846.57 859.341 1846.99 Q857.489 1847.4 855.545 1848.28 L855.545 1830.92 Z" fill="#000000" fill-rule="evenodd" fill-opacity="1" /><path clip-path="url(#clip460)" d="M1385.94 1861.55 L1393.58 1861.55 L1393.58 1835.18 L1385.27 1836.85 L1385.27 1832.59 L1393.53 1830.92 L1398.21 1830.92 L1398.21 1861.55 L1405.85 1861.55 L1405.85 1865.48 L1385.94 1865.48 L1385.94 1861.55 Z" fill="#000000" fill-rule="evenodd" fill-opacity="1" /><path clip-path="url(#clip460)" d="M1415.29 1859.6 L1420.17 1859.6 L1420.17 1865.48 L1415.29 1865.48 L1415.29 1859.6 Z" fill="#000000" fill-rule="evenodd" fill-opacity="1" /><path clip-path="url(#clip460)" d="M1440.36 1834 Q1436.75 1834 1434.92 1837.57 Q1433.11 1841.11 1433.11 1848.24 Q1433.11 1855.34 1434.92 1858.91 Q1436.75 1862.45 1440.36 1862.45 Q1443.99 1862.45 1445.8 1858.91 Q1447.63 1855.34 1447.63 1848.24 Q1447.63 1841.11 1445.8 1837.57 Q1443.99 1834 1440.36 1834 M1440.36 1830.3 Q1446.17 1830.3 1449.23 1834.9 Q1452.3 1839.49 1452.3 1848.24 Q1452.3 1856.96 1449.23 1861.57 Q1446.17 1866.15 1440.36 1866.15 Q1434.55 1866.15 1431.47 1861.57 Q1428.42 1856.96 1428.42 1848.24 Q1428.42 1839.49 1431.47 1834.9 Q1434.55 1830.3 1440.36 1830.3 Z" fill="#000000" fill-rule="evenodd" fill-opacity="1" /><path clip-path="url(#clip460)" d="M1962.84 1861.55 L1970.48 1861.55 L1970.48 1835.18 L1962.17 1836.85 L1962.17 1832.59 L1970.43 1830.92 L1975.11 1830.92 L1975.11 1861.55 L1982.74 1861.55 L1982.74 1865.48 L1962.84 1865.48 L1962.84 1861.55 Z" fill="#000000" fill-rule="evenodd" fill-opacity="1" /><path clip-path="url(#clip460)" d="M1992.19 1859.6 L1997.07 1859.6 L1997.07 1865.48 L1992.19 1865.48 L1992.19 1859.6 Z" fill="#000000" fill-rule="evenodd" fill-opacity="1" /><path clip-path="url(#clip460)" d="M2007.3 1830.92 L2025.66 1830.92 L2025.66 1834.86 L2011.59 1834.86 L2011.59 1843.33 Q2012.61 1842.98 2013.62 1842.82 Q2014.64 1842.64 2015.66 1842.64 Q2021.45 1842.64 2024.83 1845.81 Q2028.21 1848.98 2028.21 1854.4 Q2028.21 1859.97 2024.74 1863.08 Q2021.26 1866.15 2014.94 1866.15 Q2012.77 1866.15 2010.5 1865.78 Q2008.25 1865.41 2005.85 1864.67 L2005.85 1859.97 Q2007.93 1861.11 2010.15 1861.66 Q2012.37 1862.22 2014.85 1862.22 Q2018.86 1862.22 2021.19 1860.11 Q2023.53 1858.01 2023.53 1854.4 Q2023.53 1850.78 2021.19 1848.68 Q2018.86 1846.57 2014.85 1846.57 Q2012.98 1846.57 2011.1 1846.99 Q2009.25 1847.4 2007.3 1848.28 L2007.3 1830.92 Z" fill="#000000" fill-rule="evenodd" fill-opacity="1" /><path clip-path="url(#clip460)" d="M2542.83 1861.55 L2559.15 1861.55 L2559.15 1865.48 L2537.2 1865.48 L2537.2 1861.55 Q2539.86 1858.79 2544.45 1854.16 Q2549.05 1849.51 2550.23 1848.17 Q2552.48 1845.65 2553.36 1843.91 Q2554.26 1842.15 2554.26 1840.46 Q2554.26 1837.71 2552.32 1835.97 Q2550.4 1834.23 2547.29 1834.23 Q2545.09 1834.23 2542.64 1835 Q2540.21 1835.76 2537.43 1837.31 L2537.43 1832.59 Q2540.26 1831.46 2542.71 1830.88 Q2545.16 1830.3 2547.2 1830.3 Q2552.57 1830.3 2555.77 1832.98 Q2558.96 1835.67 2558.96 1840.16 Q2558.96 1842.29 2558.15 1844.21 Q2557.36 1846.11 2555.26 1848.7 Q2554.68 1849.37 2551.58 1852.59 Q2548.47 1855.78 2542.83 1861.55 Z" fill="#000000" fill-rule="evenodd" fill-opacity="1" /><path clip-path="url(#clip460)" d="M2568.96 1859.6 L2573.84 1859.6 L2573.84 1865.48 L2568.96 1865.48 L2568.96 1859.6 Z" fill="#000000" fill-rule="evenodd" fill-opacity="1" /><path clip-path="url(#clip460)" d="M2594.03 1834 Q2590.42 1834 2588.59 1837.57 Q2586.78 1841.11 2586.78 1848.24 Q2586.78 1855.34 2588.59 1858.91 Q2590.42 1862.45 2594.03 1862.45 Q2597.66 1862.45 2599.47 1858.91 Q2601.3 1855.34 2601.3 1848.24 Q2601.3 1841.11 2599.47 1837.57 Q2597.66 1834 2594.03 1834 M2594.03 1830.3 Q2599.84 1830.3 2602.9 1834.9 Q2605.97 1839.49 2605.97 1848.24 Q2605.97 1856.96 2602.9 1861.57 Q2599.84 1866.15 2594.03 1866.15 Q2588.22 1866.15 2585.14 1861.57 Q2582.09 1856.96 2582.09 1848.24 Q2582.09 1839.49 2585.14 1834.9 Q2588.22 1830.3 2594.03 1830.3 Z" fill="#000000" fill-rule="evenodd" fill-opacity="1" /><polyline clip-path="url(#clip462)" style="stroke:#000000; stroke-linecap:butt; stroke-linejoin:round; stroke-width:2; stroke-opacity:0.1; fill:none" points="
  196.816,1800.78 2640.76,1800.78 
  "/>
<polyline clip-path="url(#clip462)" style="stroke:#000000; stroke-linecap:butt; stroke-linejoin:round; stroke-width:2; stroke-opacity:0.1; fill:none" points="
  196.816,1411.1 2640.76,1411.1 
  "/>
<polyline clip-path="url(#clip462)" style="stroke:#000000; stroke-linecap:butt; stroke-linejoin:round; stroke-width:2; stroke-opacity:0.1; fill:none" points="
  196.816,1021.43 2640.76,1021.43 
  "/>
<polyline clip-path="url(#clip462)" style="stroke:#000000; stroke-linecap:butt; stroke-linejoin:round; stroke-width:2; stroke-opacity:0.1; fill:none" points="
  196.816,631.756 2640.76,631.756 
  "/>
<polyline clip-path="url(#clip462)" style="stroke:#000000; stroke-linecap:butt; stroke-linejoin:round; stroke-width:2; stroke-opacity:0.1; fill:none" points="
  196.816,242.081 2640.76,242.081 
  "/>
<polyline clip-path="url(#clip460)" style="stroke:#000000; stroke-linecap:butt; stroke-linejoin:round; stroke-width:4; stroke-opacity:1; fill:none" points="
  196.816,1800.78 196.816,47.2441 
  "/>
<polyline clip-path="url(#clip460)" style="stroke:#000000; stroke-linecap:butt; stroke-linejoin:round; stroke-width:4; stroke-opacity:1; fill:none" points="
  196.816,1800.78 215.714,1800.78 
  "/>
<polyline clip-path="url(#clip460)" style="stroke:#000000; stroke-linecap:butt; stroke-linejoin:round; stroke-width:4; stroke-opacity:1; fill:none" points="
  196.816,1411.1 215.714,1411.1 
  "/>
<polyline clip-path="url(#clip460)" style="stroke:#000000; stroke-linecap:butt; stroke-linejoin:round; stroke-width:4; stroke-opacity:1; fill:none" points="
  196.816,1021.43 215.714,1021.43 
  "/>
<polyline clip-path="url(#clip460)" style="stroke:#000000; stroke-linecap:butt; stroke-linejoin:round; stroke-width:4; stroke-opacity:1; fill:none" points="
  196.816,631.756 215.714,631.756 
  "/>
<polyline clip-path="url(#clip460)" style="stroke:#000000; stroke-linecap:butt; stroke-linejoin:round; stroke-width:4; stroke-opacity:1; fill:none" points="
  196.816,242.081 215.714,242.081 
  "/>
<path clip-path="url(#clip460)" d="M49.5521 1801.23 L79.2279 1801.23 L79.2279 1805.17 L49.5521 1805.17 L49.5521 1801.23 Z" fill="#000000" fill-rule="evenodd" fill-opacity="1" /><path clip-path="url(#clip460)" d="M93.3482 1814.12 L109.668 1814.12 L109.668 1818.06 L87.7232 1818.06 L87.7232 1814.12 Q90.3852 1811.37 94.9685 1806.74 Q99.575 1802.09 100.756 1800.74 Q103.001 1798.22 103.881 1796.49 Q104.783 1794.73 104.783 1793.04 Q104.783 1790.28 102.839 1788.55 Q100.918 1786.81 97.8158 1786.81 Q95.6167 1786.81 93.163 1787.57 Q90.7325 1788.34 87.9547 1789.89 L87.9547 1785.17 Q90.7788 1784.03 93.2324 1783.45 Q95.6861 1782.87 97.7232 1782.87 Q103.094 1782.87 106.288 1785.56 Q109.482 1788.24 109.482 1792.74 Q109.482 1794.86 108.672 1796.79 Q107.885 1798.68 105.779 1801.28 Q105.2 1801.95 102.098 1805.17 Q98.9963 1808.36 93.3482 1814.12 Z" fill="#000000" fill-rule="evenodd" fill-opacity="1" /><path clip-path="url(#clip460)" d="M119.482 1812.18 L124.367 1812.18 L124.367 1818.06 L119.482 1818.06 L119.482 1812.18 Z" fill="#000000" fill-rule="evenodd" fill-opacity="1" /><path clip-path="url(#clip460)" d="M144.552 1786.58 Q140.941 1786.58 139.112 1790.14 Q137.306 1793.68 137.306 1800.81 Q137.306 1807.92 139.112 1811.49 Q140.941 1815.03 144.552 1815.03 Q148.186 1815.03 149.991 1811.49 Q151.82 1807.92 151.82 1800.81 Q151.82 1793.68 149.991 1790.14 Q148.186 1786.58 144.552 1786.58 M144.552 1782.87 Q150.362 1782.87 153.417 1787.48 Q156.496 1792.06 156.496 1800.81 Q156.496 1809.54 153.417 1814.15 Q150.362 1818.73 144.552 1818.73 Q138.741 1818.73 135.663 1814.15 Q132.607 1809.54 132.607 1800.81 Q132.607 1792.06 135.663 1787.48 Q138.741 1782.87 144.552 1782.87 Z" fill="#000000" fill-rule="evenodd" fill-opacity="1" /><path clip-path="url(#clip460)" d="M50.5475 1411.56 L80.2233 1411.56 L80.2233 1415.49 L50.5475 1415.49 L50.5475 1411.56 Z" fill="#000000" fill-rule="evenodd" fill-opacity="1" /><path clip-path="url(#clip460)" d="M91.126 1424.45 L98.7648 1424.45 L98.7648 1398.08 L90.4547 1399.75 L90.4547 1395.49 L98.7185 1393.82 L103.394 1393.82 L103.394 1424.45 L111.033 1424.45 L111.033 1428.38 L91.126 1428.38 L91.126 1424.45 Z" fill="#000000" fill-rule="evenodd" fill-opacity="1" /><path clip-path="url(#clip460)" d="M120.478 1422.51 L125.362 1422.51 L125.362 1428.38 L120.478 1428.38 L120.478 1422.51 Z" fill="#000000" fill-rule="evenodd" fill-opacity="1" /><path clip-path="url(#clip460)" d="M135.593 1393.82 L153.95 1393.82 L153.95 1397.76 L139.876 1397.76 L139.876 1406.23 Q140.894 1405.88 141.913 1405.72 Q142.931 1405.54 143.95 1405.54 Q149.737 1405.54 153.116 1408.71 Q156.496 1411.88 156.496 1417.3 Q156.496 1422.88 153.024 1425.98 Q149.552 1429.06 143.232 1429.06 Q141.056 1429.06 138.788 1428.69 Q136.542 1428.32 134.135 1427.57 L134.135 1422.88 Q136.218 1424.01 138.441 1424.57 Q140.663 1425.12 143.14 1425.12 Q147.144 1425.12 149.482 1423.01 Q151.82 1420.91 151.82 1417.3 Q151.82 1413.69 149.482 1411.58 Q147.144 1409.47 143.14 1409.47 Q141.265 1409.47 139.39 1409.89 Q137.538 1410.31 135.593 1411.19 L135.593 1393.82 Z" fill="#000000" fill-rule="evenodd" fill-opacity="1" /><path clip-path="url(#clip460)" d="M49.5521 1021.88 L79.2279 1021.88 L79.2279 1025.82 L49.5521 1025.82 L49.5521 1021.88 Z" fill="#000000" fill-rule="evenodd" fill-opacity="1" /><path clip-path="url(#clip460)" d="M90.1306 1034.78 L97.7695 1034.78 L97.7695 1008.41 L89.4593 1010.08 L89.4593 1005.82 L97.7232 1004.15 L102.399 1004.15 L102.399 1034.78 L110.038 1034.78 L110.038 1038.71 L90.1306 1038.71 L90.1306 1034.78 Z" fill="#000000" fill-rule="evenodd" fill-opacity="1" /><path clip-path="url(#clip460)" d="M119.482 1032.83 L124.367 1032.83 L124.367 1038.71 L119.482 1038.71 L119.482 1032.83 Z" fill="#000000" fill-rule="evenodd" fill-opacity="1" /><path clip-path="url(#clip460)" d="M144.552 1007.23 Q140.941 1007.23 139.112 1010.79 Q137.306 1014.34 137.306 1021.47 Q137.306 1028.57 139.112 1032.14 Q140.941 1035.68 144.552 1035.68 Q148.186 1035.68 149.991 1032.14 Q151.82 1028.57 151.82 1021.47 Q151.82 1014.34 149.991 1010.79 Q148.186 1007.23 144.552 1007.23 M144.552 1003.53 Q150.362 1003.53 153.417 1008.13 Q156.496 1012.72 156.496 1021.47 Q156.496 1030.19 153.417 1034.8 Q150.362 1039.38 144.552 1039.38 Q138.741 1039.38 135.663 1034.8 Q132.607 1030.19 132.607 1021.47 Q132.607 1012.72 135.663 1008.13 Q138.741 1003.53 144.552 1003.53 Z" fill="#000000" fill-rule="evenodd" fill-opacity="1" /><path clip-path="url(#clip460)" d="M50.5475 632.207 L80.2233 632.207 L80.2233 636.142 L50.5475 636.142 L50.5475 632.207 Z" fill="#000000" fill-rule="evenodd" fill-opacity="1" /><path clip-path="url(#clip460)" d="M100.316 617.555 Q96.7047 617.555 94.876 621.119 Q93.0704 624.661 93.0704 631.791 Q93.0704 638.897 94.876 642.462 Q96.7047 646.003 100.316 646.003 Q103.95 646.003 105.756 642.462 Q107.584 638.897 107.584 631.791 Q107.584 624.661 105.756 621.119 Q103.95 617.555 100.316 617.555 M100.316 613.851 Q106.126 613.851 109.181 618.457 Q112.26 623.041 112.26 631.791 Q112.26 640.517 109.181 645.124 Q106.126 649.707 100.316 649.707 Q94.5056 649.707 91.4269 645.124 Q88.3714 640.517 88.3714 631.791 Q88.3714 623.041 91.4269 618.457 Q94.5056 613.851 100.316 613.851 Z" fill="#000000" fill-rule="evenodd" fill-opacity="1" /><path clip-path="url(#clip460)" d="M120.478 643.156 L125.362 643.156 L125.362 649.036 L120.478 649.036 L120.478 643.156 Z" fill="#000000" fill-rule="evenodd" fill-opacity="1" /><path clip-path="url(#clip460)" d="M135.593 614.476 L153.95 614.476 L153.95 618.411 L139.876 618.411 L139.876 626.883 Q140.894 626.536 141.913 626.374 Q142.931 626.189 143.95 626.189 Q149.737 626.189 153.116 629.36 Q156.496 632.531 156.496 637.948 Q156.496 643.527 153.024 646.628 Q149.552 649.707 143.232 649.707 Q141.056 649.707 138.788 649.337 Q136.542 648.966 134.135 648.226 L134.135 643.527 Q136.218 644.661 138.441 645.216 Q140.663 645.772 143.14 645.772 Q147.144 645.772 149.482 643.665 Q151.82 641.559 151.82 637.948 Q151.82 634.337 149.482 632.23 Q147.144 630.124 143.14 630.124 Q141.265 630.124 139.39 630.541 Q137.538 630.957 135.593 631.837 L135.593 614.476 Z" fill="#000000" fill-rule="evenodd" fill-opacity="1" /><path clip-path="url(#clip460)" d="M99.3204 227.88 Q95.7093 227.88 93.8806 231.445 Q92.075 234.986 92.075 242.116 Q92.075 249.223 93.8806 252.787 Q95.7093 256.329 99.3204 256.329 Q102.955 256.329 104.76 252.787 Q106.589 249.223 106.589 242.116 Q106.589 234.986 104.76 231.445 Q102.955 227.88 99.3204 227.88 M99.3204 224.176 Q105.131 224.176 108.186 228.783 Q111.265 233.366 111.265 242.116 Q111.265 250.843 108.186 255.449 Q105.131 260.033 99.3204 260.033 Q93.5102 260.033 90.4315 255.449 Q87.376 250.843 87.376 242.116 Q87.376 233.366 90.4315 228.783 Q93.5102 224.176 99.3204 224.176 Z" fill="#000000" fill-rule="evenodd" fill-opacity="1" /><path clip-path="url(#clip460)" d="M119.482 253.482 L124.367 253.482 L124.367 259.361 L119.482 259.361 L119.482 253.482 Z" fill="#000000" fill-rule="evenodd" fill-opacity="1" /><path clip-path="url(#clip460)" d="M144.552 227.88 Q140.941 227.88 139.112 231.445 Q137.306 234.986 137.306 242.116 Q137.306 249.223 139.112 252.787 Q140.941 256.329 144.552 256.329 Q148.186 256.329 149.991 252.787 Q151.82 249.223 151.82 242.116 Q151.82 234.986 149.991 231.445 Q148.186 227.88 144.552 227.88 M144.552 224.176 Q150.362 224.176 153.417 228.783 Q156.496 233.366 156.496 242.116 Q156.496 250.843 153.417 255.449 Q150.362 260.033 144.552 260.033 Q138.741 260.033 135.663 255.449 Q132.607 250.843 132.607 242.116 Q132.607 233.366 135.663 228.783 Q138.741 224.176 144.552 224.176 Z" fill="#000000" fill-rule="evenodd" fill-opacity="1" /><polyline clip-path="url(#clip462)" style="stroke:#009af9; stroke-linecap:butt; stroke-linejoin:round; stroke-width:12; stroke-opacity:1; fill:none" points="
  496.544,1652.26 499.922,1643.21 503.299,1634.33 506.677,1625.6 510.054,1617.02 517.861,1597.76 525.669,1579.25 533.476,1561.44 541.283,1544.3 549.091,1527.78 
  556.898,1511.86 564.705,1496.5 572.512,1481.67 580.32,1467.34 588.127,1453.5 595.934,1440.12 603.741,1427.17 619.356,1402.5 634.971,1379.36 644.354,1366.13 
  653.738,1353.38 663.122,1341.09 672.505,1329.24 691.273,1306.75 710.04,1285.78 725.908,1269.15 741.775,1253.44 757.643,1238.6 773.51,1224.57 790.747,1210.2 
  807.984,1196.66 825.22,1183.92 842.457,1171.91 858.348,1161.46 874.238,1151.57 890.129,1142.22 906.02,1133.37 923.056,1124.41 940.092,1115.98 957.129,1108.04 
  974.165,1100.58 993.904,1092.5 1013.64,1085 1033.38,1078.03 1053.12,1071.58 1088.2,1061.32 1123.28,1052.47 1154.05,1045.79 1184.81,1040.05 1218.35,1034.78 
  1251.89,1030.48 1285.63,1027.07 1319.37,1024.51 1356.68,1022.6 1393.98,1021.61 1429.48,1021.46 1464.97,1022.04 1501.88,1023.36 1538.78,1025.38 1569.85,1027.59 
  1600.92,1030.24 1638.85,1034.05 1676.77,1038.45 1711.52,1042.98 1746.27,1047.96 1810.45,1058.27 1875.46,1070.08 1948.32,1084.84 2014.34,1099.47 2089.93,1117.59 
  2159.93,1135.56 2228.93,1154.32 2295.93,1173.45 2364.61,1193.95 2439.85,1217.37 2549.16,1253.03 2571.59,1260.58 
  "/>
<polyline clip-path="url(#clip462)" style="stroke:#0000ff; stroke-linecap:butt; stroke-linejoin:round; stroke-width:4; stroke-opacity:1; fill:none" points="
  265.984,1800.78 265.984,47.2441 
  "/>
<polyline clip-path="url(#clip462)" style="stroke:#0000ff; stroke-linecap:butt; stroke-linejoin:round; stroke-width:4; stroke-opacity:1; fill:none" points="
  265.984,242.081 2571.59,242.081 
  "/>
<circle clip-path="url(#clip462)" cx="265.984" cy="242.081" r="14.4" fill="#ffa500" fill-rule="evenodd" fill-opacity="1" stroke="#000000" stroke-opacity="1" stroke-width="3.84"/>
<circle clip-path="url(#clip462)" cx="1418.79" cy="1021.43" r="14.4" fill="#ffa500" fill-rule="evenodd" fill-opacity="1" stroke="#000000" stroke-opacity="1" stroke-width="3.84"/>
<polyline clip-path="url(#clip462)" style="stroke:#ffa500; stroke-linecap:butt; stroke-linejoin:round; stroke-width:12; stroke-opacity:1; fill:none" points="
  265.984,242.081 1418.79,1021.43 
  "/>
<path clip-path="url(#clip460)" d="M989.067 698.777 L989.067 674.228 L996.521 674.228 L996.521 737.26 L989.067 737.26 L989.067 730.455 Q986.718 734.506 983.112 736.491 Q979.548 738.435 974.524 738.435 Q966.301 738.435 961.116 731.873 Q955.971 725.31 955.971 714.616 Q955.971 703.921 961.116 697.359 Q966.301 690.796 974.524 690.796 Q979.548 690.796 983.112 692.781 Q986.718 694.726 989.067 698.777 M963.668 714.616 Q963.668 722.839 967.03 727.538 Q970.433 732.197 976.347 732.197 Q982.262 732.197 985.664 727.538 Q989.067 722.839 989.067 714.616 Q989.067 706.392 985.664 701.734 Q982.262 697.035 976.347 697.035 Q970.433 697.035 967.03 701.734 Q963.668 706.392 963.668 714.616 Z" fill="#000000" fill-rule="evenodd" fill-opacity="1" /><path clip-path="url(#clip460)" d="M1039.22 699.587 L1091.15 699.587 L1091.15 706.392 L1039.22 706.392 L1039.22 699.587 M1039.22 716.115 L1091.15 716.115 L1091.15 723.001 L1039.22 723.001 L1039.22 716.115 Z" fill="#000000" fill-rule="evenodd" fill-opacity="1" /><path clip-path="url(#clip460)" d="M1136.6 730.374 L1149.97 730.374 L1149.97 684.234 L1135.43 687.151 L1135.43 679.697 L1149.89 676.78 L1158.07 676.78 L1158.07 730.374 L1171.44 730.374 L1171.44 737.26 L1136.6 737.26 L1136.6 730.374 Z" fill="#000000" fill-rule="evenodd" fill-opacity="1" /><path clip-path="url(#clip460)" d="M1187.97 726.971 L1196.51 726.971 L1196.51 737.26 L1187.97 737.26 L1187.97 726.971 Z" fill="#000000" fill-rule="evenodd" fill-opacity="1" /><path clip-path="url(#clip460)" d="M1221.39 730.374 L1249.95 730.374 L1249.95 737.26 L1211.54 737.26 L1211.54 730.374 Q1216.2 725.553 1224.22 717.451 Q1232.28 709.309 1234.35 706.96 Q1238.28 702.544 1239.82 699.506 Q1241.4 696.427 1241.4 693.47 Q1241.4 688.65 1238 685.611 Q1234.63 682.573 1229.2 682.573 Q1225.36 682.573 1221.06 683.91 Q1216.81 685.247 1211.95 687.961 L1211.95 679.697 Q1216.89 677.712 1221.18 676.699 Q1225.48 675.687 1229.04 675.687 Q1238.44 675.687 1244.03 680.386 Q1249.62 685.085 1249.62 692.943 Q1249.62 696.67 1248.2 700.033 Q1246.83 703.354 1243.14 707.891 Q1242.13 709.066 1236.7 714.697 Q1231.27 720.287 1221.39 730.374 Z" fill="#000000" fill-rule="evenodd" fill-opacity="1" /><path clip-path="url(#clip460)" d="M1267.36 736.005 L1267.36 728.551 Q1270.44 730.009 1273.6 730.779 Q1276.76 731.549 1279.8 731.549 Q1287.9 731.549 1292.16 726.12 Q1296.45 720.652 1297.06 709.552 Q1294.71 713.036 1291.1 714.899 Q1287.5 716.763 1283.12 716.763 Q1274.05 716.763 1268.74 711.294 Q1263.48 705.785 1263.48 696.265 Q1263.48 686.948 1268.98 681.317 Q1274.49 675.687 1283.65 675.687 Q1294.14 675.687 1299.65 683.748 Q1305.2 691.769 1305.2 707.081 Q1305.2 721.381 1298.39 729.928 Q1291.63 738.435 1280.17 738.435 Q1277.09 738.435 1273.93 737.827 Q1270.77 737.22 1267.36 736.005 M1283.65 710.362 Q1289.16 710.362 1292.36 706.595 Q1295.6 702.828 1295.6 696.265 Q1295.6 689.743 1292.36 685.976 Q1289.16 682.168 1283.65 682.168 Q1278.14 682.168 1274.9 685.976 Q1271.7 689.743 1271.7 696.265 Q1271.7 702.828 1274.9 706.595 Q1278.14 710.362 1283.65 710.362 Z" fill="#000000" fill-rule="evenodd" fill-opacity="1" /></svg>
