<?xml version="1.0" encoding="utf-8"?>
<svg xmlns="http://www.w3.org/2000/svg" xmlns:xlink="http://www.w3.org/1999/xlink" width="672" height="480" viewBox="0 0 2688 1920">
<defs>
  <clipPath id="clip150">
    <rect x="0" y="0" width="2688" height="1920"/>
  </clipPath>
</defs>
<path clip-path="url(#clip150)" d="
M0 1920 L2688 1920 L2688 0 L0 0  Z
  " fill="#ffffff" fill-rule="evenodd" fill-opacity="1"/>
<defs>
  <clipPath id="clip151">
    <rect x="537" y="0" width="1883" height="1883"/>
  </clipPath>
</defs>
<path clip-path="url(#clip150)" d="
M150.358 1800.78 L2640.76 1800.78 L2640.76 47.2441 L150.358 47.2441  Z
  " fill="#ffffff" fill-rule="evenodd" fill-opacity="1"/>
<defs>
  <clipPath id="clip152">
    <rect x="150" y="47" width="2491" height="1755"/>
  </clipPath>
</defs>
<polyline clip-path="url(#clip152)" style="stroke:#000000; stroke-linecap:butt; stroke-linejoin:round; stroke-width:2; stroke-opacity:0.1; fill:none" points="
  220.841,1800.78 220.841,47.2441 
  "/>
<polyline clip-path="url(#clip152)" style="stroke:#000000; stroke-linecap:butt; stroke-linejoin:round; stroke-width:2; stroke-opacity:0.1; fill:none" points="
  808.199,1800.78 808.199,47.2441 
  "/>
<polyline clip-path="url(#clip152)" style="stroke:#000000; stroke-linecap:butt; stroke-linejoin:round; stroke-width:2; stroke-opacity:0.1; fill:none" points="
  1395.56,1800.78 1395.56,47.2441 
  "/>
<polyline clip-path="url(#clip152)" style="stroke:#000000; stroke-linecap:butt; stroke-linejoin:round; stroke-width:2; stroke-opacity:0.1; fill:none" points="
  1982.91,1800.78 1982.91,47.2441 
  "/>
<polyline clip-path="url(#clip152)" style="stroke:#000000; stroke-linecap:butt; stroke-linejoin:round; stroke-width:2; stroke-opacity:0.1; fill:none" points="
  2570.27,1800.78 2570.27,47.2441 
  "/>
<polyline clip-path="url(#clip150)" style="stroke:#000000; stroke-linecap:butt; stroke-linejoin:round; stroke-width:4; stroke-opacity:1; fill:none" points="
  150.358,1800.78 2640.76,1800.78 
  "/>
<polyline clip-path="url(#clip150)" style="stroke:#000000; stroke-linecap:butt; stroke-linejoin:round; stroke-width:4; stroke-opacity:1; fill:none" points="
  220.841,1800.78 220.841,1781.88 
  "/>
<polyline clip-path="url(#clip150)" style="stroke:#000000; stroke-linecap:butt; stroke-linejoin:round; stroke-width:4; stroke-opacity:1; fill:none" points="
  808.199,1800.78 808.199,1781.88 
  "/>
<polyline clip-path="url(#clip150)" style="stroke:#000000; stroke-linecap:butt; stroke-linejoin:round; stroke-width:4; stroke-opacity:1; fill:none" points="
  1395.56,1800.78 1395.56,1781.88 
  "/>
<polyline clip-path="url(#clip150)" style="stroke:#000000; stroke-linecap:butt; stroke-linejoin:round; stroke-width:4; stroke-opacity:1; fill:none" points="
  1982.91,1800.78 1982.91,1781.88 
  "/>
<polyline clip-path="url(#clip150)" style="stroke:#000000; stroke-linecap:butt; stroke-linejoin:round; stroke-width:4; stroke-opacity:1; fill:none" points="
  2570.27,1800.78 2570.27,1781.88 
  "/>
<path clip-path="url(#clip150)" d="M167.369 1848.65 L197.045 1848.65 L197.045 1852.59 L167.369 1852.59 L167.369 1848.65 Z" fill="#000000" fill-rule="evenodd" fill-opacity="1" /><path clip-path="url(#clip150)" d="M207.947 1861.55 L215.586 1861.55 L215.586 1835.18 L207.276 1836.85 L207.276 1832.59 L215.54 1830.92 L220.216 1830.92 L220.216 1861.55 L227.855 1861.55 L227.855 1865.48 L207.947 1865.48 L207.947 1861.55 Z" fill="#000000" fill-rule="evenodd" fill-opacity="1" /><path clip-path="url(#clip150)" d="M237.299 1859.6 L242.183 1859.6 L242.183 1865.48 L237.299 1865.48 L237.299 1859.6 Z" fill="#000000" fill-rule="evenodd" fill-opacity="1" /><path clip-path="url(#clip150)" d="M262.368 1834 Q258.757 1834 256.929 1837.57 Q255.123 1841.11 255.123 1848.24 Q255.123 1855.34 256.929 1858.91 Q258.757 1862.45 262.368 1862.45 Q266.003 1862.45 267.808 1858.91 Q269.637 1855.34 269.637 1848.24 Q269.637 1841.11 267.808 1837.57 Q266.003 1834 262.368 1834 M262.368 1830.3 Q268.179 1830.3 271.234 1834.9 Q274.313 1839.49 274.313 1848.24 Q274.313 1856.96 271.234 1861.57 Q268.179 1866.15 262.368 1866.15 Q256.558 1866.15 253.48 1861.57 Q250.424 1856.96 250.424 1848.24 Q250.424 1839.49 253.48 1834.9 Q256.558 1830.3 262.368 1830.3 Z" fill="#000000" fill-rule="evenodd" fill-opacity="1" /><path clip-path="url(#clip150)" d="M755.225 1848.65 L784.9 1848.65 L784.9 1852.59 L755.225 1852.59 L755.225 1848.65 Z" fill="#000000" fill-rule="evenodd" fill-opacity="1" /><path clip-path="url(#clip150)" d="M804.993 1834 Q801.382 1834 799.553 1837.57 Q797.748 1841.11 797.748 1848.24 Q797.748 1855.34 799.553 1858.91 Q801.382 1862.45 804.993 1862.45 Q808.627 1862.45 810.433 1858.91 Q812.261 1855.34 812.261 1848.24 Q812.261 1841.11 810.433 1837.57 Q808.627 1834 804.993 1834 M804.993 1830.3 Q810.803 1830.3 813.859 1834.9 Q816.937 1839.49 816.937 1848.24 Q816.937 1856.96 813.859 1861.57 Q810.803 1866.15 804.993 1866.15 Q799.183 1866.15 796.104 1861.57 Q793.049 1856.96 793.049 1848.24 Q793.049 1839.49 796.104 1834.9 Q799.183 1830.3 804.993 1830.3 Z" fill="#000000" fill-rule="evenodd" fill-opacity="1" /><path clip-path="url(#clip150)" d="M825.155 1859.6 L830.039 1859.6 L830.039 1865.48 L825.155 1865.48 L825.155 1859.6 Z" fill="#000000" fill-rule="evenodd" fill-opacity="1" /><path clip-path="url(#clip150)" d="M840.27 1830.92 L858.627 1830.92 L858.627 1834.86 L844.553 1834.86 L844.553 1843.33 Q845.571 1842.98 846.59 1842.82 Q847.608 1842.64 848.627 1842.64 Q854.414 1842.64 857.794 1845.81 Q861.173 1848.98 861.173 1854.4 Q861.173 1859.97 857.701 1863.08 Q854.229 1866.15 847.909 1866.15 Q845.733 1866.15 843.465 1865.78 Q841.22 1865.41 838.812 1864.67 L838.812 1859.97 Q840.895 1861.11 843.118 1861.66 Q845.34 1862.22 847.817 1862.22 Q851.821 1862.22 854.159 1860.11 Q856.497 1858.01 856.497 1854.4 Q856.497 1850.78 854.159 1848.68 Q851.821 1846.57 847.817 1846.57 Q845.942 1846.57 844.067 1846.99 Q842.215 1847.4 840.27 1848.28 L840.27 1830.92 Z" fill="#000000" fill-rule="evenodd" fill-opacity="1" /><path clip-path="url(#clip150)" d="M1372.94 1834 Q1369.33 1834 1367.5 1837.57 Q1365.7 1841.11 1365.7 1848.24 Q1365.7 1855.34 1367.5 1858.91 Q1369.33 1862.45 1372.94 1862.45 Q1376.58 1862.45 1378.38 1858.91 Q1380.21 1855.34 1380.21 1848.24 Q1380.21 1841.11 1378.38 1837.57 Q1376.58 1834 1372.94 1834 M1372.94 1830.3 Q1378.75 1830.3 1381.81 1834.9 Q1384.89 1839.49 1384.89 1848.24 Q1384.89 1856.96 1381.81 1861.57 Q1378.75 1866.15 1372.94 1866.15 Q1367.13 1866.15 1364.05 1861.57 Q1361 1856.96 1361 1848.24 Q1361 1839.49 1364.05 1834.9 Q1367.13 1830.3 1372.94 1830.3 Z" fill="#000000" fill-rule="evenodd" fill-opacity="1" /><path clip-path="url(#clip150)" d="M1393.1 1859.6 L1397.99 1859.6 L1397.99 1865.48 L1393.1 1865.48 L1393.1 1859.6 Z" fill="#000000" fill-rule="evenodd" fill-opacity="1" /><path clip-path="url(#clip150)" d="M1418.17 1834 Q1414.56 1834 1412.73 1837.57 Q1410.93 1841.11 1410.93 1848.24 Q1410.93 1855.34 1412.73 1858.91 Q1414.56 1862.45 1418.17 1862.45 Q1421.81 1862.45 1423.61 1858.91 Q1425.44 1855.34 1425.44 1848.24 Q1425.44 1841.11 1423.61 1837.57 Q1421.81 1834 1418.17 1834 M1418.17 1830.3 Q1423.98 1830.3 1427.04 1834.9 Q1430.12 1839.49 1430.12 1848.24 Q1430.12 1856.96 1427.04 1861.57 Q1423.98 1866.15 1418.17 1866.15 Q1412.36 1866.15 1409.28 1861.57 Q1406.23 1856.96 1406.23 1848.24 Q1406.23 1839.49 1409.28 1834.9 Q1412.36 1830.3 1418.17 1830.3 Z" fill="#000000" fill-rule="evenodd" fill-opacity="1" /><path clip-path="url(#clip150)" d="M1960.8 1834 Q1957.19 1834 1955.36 1837.57 Q1953.55 1841.11 1953.55 1848.24 Q1953.55 1855.34 1955.36 1858.91 Q1957.19 1862.45 1960.8 1862.45 Q1964.43 1862.45 1966.24 1858.91 Q1968.07 1855.34 1968.07 1848.24 Q1968.07 1841.11 1966.24 1837.57 Q1964.43 1834 1960.8 1834 M1960.8 1830.3 Q1966.61 1830.3 1969.66 1834.9 Q1972.74 1839.49 1972.74 1848.24 Q1972.74 1856.96 1969.66 1861.57 Q1966.61 1866.15 1960.8 1866.15 Q1954.99 1866.15 1951.91 1861.57 Q1948.85 1856.96 1948.85 1848.24 Q1948.85 1839.49 1951.91 1834.9 Q1954.99 1830.3 1960.8 1830.3 Z" fill="#000000" fill-rule="evenodd" fill-opacity="1" /><path clip-path="url(#clip150)" d="M1980.96 1859.6 L1985.84 1859.6 L1985.84 1865.48 L1980.96 1865.48 L1980.96 1859.6 Z" fill="#000000" fill-rule="evenodd" fill-opacity="1" /><path clip-path="url(#clip150)" d="M1996.07 1830.92 L2014.43 1830.92 L2014.43 1834.86 L2000.36 1834.86 L2000.36 1843.33 Q2001.38 1842.98 2002.39 1842.82 Q2003.41 1842.64 2004.43 1842.64 Q2010.22 1842.64 2013.6 1845.81 Q2016.98 1848.98 2016.98 1854.4 Q2016.98 1859.97 2013.51 1863.08 Q2010.03 1866.15 2003.71 1866.15 Q2001.54 1866.15 1999.27 1865.78 Q1997.02 1865.41 1994.62 1864.67 L1994.62 1859.97 Q1996.7 1861.11 1998.92 1861.66 Q2001.14 1862.22 2003.62 1862.22 Q2007.63 1862.22 2009.96 1860.11 Q2012.3 1858.01 2012.3 1854.4 Q2012.3 1850.78 2009.96 1848.68 Q2007.63 1846.57 2003.62 1846.57 Q2001.75 1846.57 1999.87 1846.99 Q1998.02 1847.4 1996.07 1848.28 L1996.07 1830.92 Z" fill="#000000" fill-rule="evenodd" fill-opacity="1" /><path clip-path="url(#clip150)" d="M2537.43 1861.55 L2545.06 1861.55 L2545.06 1835.18 L2536.75 1836.85 L2536.75 1832.59 L2545.02 1830.92 L2549.69 1830.92 L2549.69 1861.55 L2557.33 1861.55 L2557.33 1865.48 L2537.43 1865.48 L2537.43 1861.55 Z" fill="#000000" fill-rule="evenodd" fill-opacity="1" /><path clip-path="url(#clip150)" d="M2566.78 1859.6 L2571.66 1859.6 L2571.66 1865.48 L2566.78 1865.48 L2566.78 1859.6 Z" fill="#000000" fill-rule="evenodd" fill-opacity="1" /><path clip-path="url(#clip150)" d="M2591.85 1834 Q2588.24 1834 2586.41 1837.57 Q2584.6 1841.11 2584.6 1848.24 Q2584.6 1855.34 2586.41 1858.91 Q2588.24 1862.45 2591.85 1862.45 Q2595.48 1862.45 2597.29 1858.91 Q2599.12 1855.34 2599.12 1848.24 Q2599.12 1841.11 2597.29 1837.57 Q2595.48 1834 2591.85 1834 M2591.85 1830.3 Q2597.66 1830.3 2600.71 1834.9 Q2603.79 1839.49 2603.79 1848.24 Q2603.79 1856.96 2600.71 1861.57 Q2597.66 1866.15 2591.85 1866.15 Q2586.04 1866.15 2582.96 1861.57 Q2579.9 1856.96 2579.9 1848.24 Q2579.9 1839.49 2582.96 1834.9 Q2586.04 1830.3 2591.85 1830.3 Z" fill="#000000" fill-rule="evenodd" fill-opacity="1" /><polyline clip-path="url(#clip152)" style="stroke:#000000; stroke-linecap:butt; stroke-linejoin:round; stroke-width:2; stroke-opacity:0.1; fill:none" points="
  150.358,1751.15 2640.76,1751.15 
  "/>
<polyline clip-path="url(#clip152)" style="stroke:#000000; stroke-linecap:butt; stroke-linejoin:round; stroke-width:2; stroke-opacity:0.1; fill:none" points="
  150.358,1337.58 2640.76,1337.58 
  "/>
<polyline clip-path="url(#clip152)" style="stroke:#000000; stroke-linecap:butt; stroke-linejoin:round; stroke-width:2; stroke-opacity:0.1; fill:none" points="
  150.358,924.012 2640.76,924.012 
  "/>
<polyline clip-path="url(#clip152)" style="stroke:#000000; stroke-linecap:butt; stroke-linejoin:round; stroke-width:2; stroke-opacity:0.1; fill:none" points="
  150.358,510.442 2640.76,510.442 
  "/>
<polyline clip-path="url(#clip152)" style="stroke:#000000; stroke-linecap:butt; stroke-linejoin:round; stroke-width:2; stroke-opacity:0.1; fill:none" points="
  150.358,96.8724 2640.76,96.8724 
  "/>
<polyline clip-path="url(#clip150)" style="stroke:#000000; stroke-linecap:butt; stroke-linejoin:round; stroke-width:4; stroke-opacity:1; fill:none" points="
  150.358,1800.78 150.358,47.2441 
  "/>
<polyline clip-path="url(#clip150)" style="stroke:#000000; stroke-linecap:butt; stroke-linejoin:round; stroke-width:4; stroke-opacity:1; fill:none" points="
  150.358,1751.15 169.256,1751.15 
  "/>
<polyline clip-path="url(#clip150)" style="stroke:#000000; stroke-linecap:butt; stroke-linejoin:round; stroke-width:4; stroke-opacity:1; fill:none" points="
  150.358,1337.58 169.256,1337.58 
  "/>
<polyline clip-path="url(#clip150)" style="stroke:#000000; stroke-linecap:butt; stroke-linejoin:round; stroke-width:4; stroke-opacity:1; fill:none" points="
  150.358,924.012 169.256,924.012 
  "/>
<polyline clip-path="url(#clip150)" style="stroke:#000000; stroke-linecap:butt; stroke-linejoin:round; stroke-width:4; stroke-opacity:1; fill:none" points="
  150.358,510.442 169.256,510.442 
  "/>
<polyline clip-path="url(#clip150)" style="stroke:#000000; stroke-linecap:butt; stroke-linejoin:round; stroke-width:4; stroke-opacity:1; fill:none" points="
  150.358,96.8724 169.256,96.8724 
  "/>
<path clip-path="url(#clip150)" d="M49.9225 1751.6 L79.5983 1751.6 L79.5983 1755.54 L49.9225 1755.54 L49.9225 1751.6 Z" fill="#000000" fill-rule="evenodd" fill-opacity="1" /><path clip-path="url(#clip150)" d="M93.7186 1764.5 L110.038 1764.5 L110.038 1768.43 L88.0936 1768.43 L88.0936 1764.5 Q90.7556 1761.74 95.3389 1757.11 Q99.9454 1752.46 101.126 1751.12 Q103.371 1748.59 104.251 1746.86 Q105.154 1745.1 105.154 1743.41 Q105.154 1740.65 103.209 1738.92 Q101.288 1737.18 98.1861 1737.18 Q95.9871 1737.18 93.5334 1737.94 Q91.1028 1738.71 88.3251 1740.26 L88.3251 1735.54 Q91.1491 1734.4 93.6028 1733.82 Q96.0565 1733.25 98.0935 1733.25 Q103.464 1733.25 106.658 1735.93 Q109.853 1738.62 109.853 1743.11 Q109.853 1745.24 109.043 1747.16 Q108.256 1749.06 106.149 1751.65 Q105.57 1752.32 102.469 1755.54 Q99.3667 1758.73 93.7186 1764.5 Z" fill="#000000" fill-rule="evenodd" fill-opacity="1" /><path clip-path="url(#clip150)" d="M49.5521 1338.03 L79.2279 1338.03 L79.2279 1341.97 L49.5521 1341.97 L49.5521 1338.03 Z" fill="#000000" fill-rule="evenodd" fill-opacity="1" /><path clip-path="url(#clip150)" d="M90.1306 1350.93 L97.7695 1350.93 L97.7695 1324.56 L89.4593 1326.23 L89.4593 1321.97 L97.7232 1320.3 L102.399 1320.3 L102.399 1350.93 L110.038 1350.93 L110.038 1354.86 L90.1306 1354.86 L90.1306 1350.93 Z" fill="#000000" fill-rule="evenodd" fill-opacity="1" /><path clip-path="url(#clip150)" d="M98.0935 909.81 Q94.4824 909.81 92.6537 913.375 Q90.8482 916.917 90.8482 924.046 Q90.8482 931.153 92.6537 934.718 Q94.4824 938.259 98.0935 938.259 Q101.728 938.259 103.533 934.718 Q105.362 931.153 105.362 924.046 Q105.362 916.917 103.533 913.375 Q101.728 909.81 98.0935 909.81 M98.0935 906.107 Q103.904 906.107 106.959 910.713 Q110.038 915.296 110.038 924.046 Q110.038 932.773 106.959 937.38 Q103.904 941.963 98.0935 941.963 Q92.2834 941.963 89.2047 937.38 Q86.1492 932.773 86.1492 924.046 Q86.1492 915.296 89.2047 910.713 Q92.2834 906.107 98.0935 906.107 Z" fill="#000000" fill-rule="evenodd" fill-opacity="1" /><path clip-path="url(#clip150)" d="M90.1306 523.787 L97.7695 523.787 L97.7695 497.421 L89.4593 499.088 L89.4593 494.829 L97.7232 493.162 L102.399 493.162 L102.399 523.787 L110.038 523.787 L110.038 527.722 L90.1306 527.722 L90.1306 523.787 Z" fill="#000000" fill-rule="evenodd" fill-opacity="1" /><path clip-path="url(#clip150)" d="M93.7186 110.217 L110.038 110.217 L110.038 114.152 L88.0936 114.152 L88.0936 110.217 Q90.7556 107.463 95.3389 102.833 Q99.9454 98.1803 101.126 96.8377 Q103.371 94.3146 104.251 92.5785 Q105.154 90.8192 105.154 89.1294 Q105.154 86.3748 103.209 84.6387 Q101.288 82.9026 98.1861 82.9026 Q95.9871 82.9026 93.5334 83.6665 Q91.1028 84.4304 88.3251 85.9813 L88.3251 81.2591 Q91.1491 80.1249 93.6028 79.5462 Q96.0565 78.9675 98.0935 78.9675 Q103.464 78.9675 106.658 81.6526 Q109.853 84.3378 109.853 88.8285 Q109.853 90.9581 109.043 92.8794 Q108.256 94.7776 106.149 97.3701 Q105.57 98.0414 102.469 101.259 Q99.3667 104.453 93.7186 110.217 Z" fill="#000000" fill-rule="evenodd" fill-opacity="1" /><polyline clip-path="url(#clip152)" style="stroke:#009af9; stroke-linecap:butt; stroke-linejoin:round; stroke-width:4; stroke-opacity:1; fill:none" points="
  1395.56,96.8724 2570.27,924.012 1395.56,1751.15 220.841,924.012 1395.56,96.8724 
  "/>
<path clip-path="url(#clip150)" d="
M2228.6 209.375 L2557.74 209.375 L2557.74 105.695 L2228.6 105.695  Z
  " fill="#ffffff" fill-rule="evenodd" fill-opacity="1"/>
<polyline clip-path="url(#clip150)" style="stroke:#000000; stroke-linecap:butt; stroke-linejoin:round; stroke-width:4; stroke-opacity:1; fill:none" points="
  2228.6,209.375 2557.74,209.375 2557.74,105.695 2228.6,105.695 2228.6,209.375 
  "/>
<polyline clip-path="url(#clip150)" style="stroke:#009af9; stroke-linecap:butt; stroke-linejoin:round; stroke-width:4; stroke-opacity:1; fill:none" points="
  2256.27,157.535 2422.3,157.535 
  "/>
<path clip-path="url(#clip150)" d="M2463.81 177.223 Q2462.01 181.852 2460.29 183.264 Q2458.58 184.676 2455.71 184.676 L2452.31 184.676 L2452.31 181.112 L2454.81 181.112 Q2456.57 181.112 2457.54 180.278 Q2458.51 179.445 2459.69 176.343 L2460.46 174.399 L2449.97 148.889 L2454.48 148.889 L2462.59 169.167 L2470.69 148.889 L2475.2 148.889 L2463.81 177.223 Z" fill="#000000" fill-rule="evenodd" fill-opacity="1" /><path clip-path="url(#clip150)" d="M2482.49 170.88 L2490.13 170.88 L2490.13 144.515 L2481.82 146.181 L2481.82 141.922 L2490.09 140.255 L2494.76 140.255 L2494.76 170.88 L2502.4 170.88 L2502.4 174.815 L2482.49 174.815 L2482.49 170.88 Z" fill="#000000" fill-rule="evenodd" fill-opacity="1" /></svg>
