<?xml version="1.0" encoding="utf-8"?>
<svg xmlns="http://www.w3.org/2000/svg" xmlns:xlink="http://www.w3.org/1999/xlink" width="672" height="480" viewBox="0 0 2688 1920">
<defs>
  <clipPath id="clip670">
    <rect x="0" y="0" width="2688" height="1920"/>
  </clipPath>
</defs>
<path clip-path="url(#clip670)" d="
M0 1920 L2688 1920 L2688 0 L0 0  Z
  " fill="#ffffff" fill-rule="evenodd" fill-opacity="1"/>
<defs>
  <clipPath id="clip671">
    <rect x="537" y="0" width="1883" height="1883"/>
  </clipPath>
</defs>
<path clip-path="url(#clip670)" d="
M196.816 1800.78 L2371.96 1800.78 L2371.96 47.2441 L196.816 47.2441  Z
  " fill="#ffffff" fill-rule="evenodd" fill-opacity="1"/>
<defs>
  <clipPath id="clip672">
    <rect x="196" y="47" width="2176" height="1755"/>
  </clipPath>
</defs>
<polyline clip-path="url(#clip672)" style="stroke:#000000; stroke-linecap:butt; stroke-linejoin:round; stroke-width:2; stroke-opacity:0.1; fill:none" points="
  245.833,1800.78 245.833,47.2441 
  "/>
<polyline clip-path="url(#clip672)" style="stroke:#000000; stroke-linecap:butt; stroke-linejoin:round; stroke-width:2; stroke-opacity:0.1; fill:none" points="
  592.017,1800.78 592.017,47.2441 
  "/>
<polyline clip-path="url(#clip672)" style="stroke:#000000; stroke-linecap:butt; stroke-linejoin:round; stroke-width:2; stroke-opacity:0.1; fill:none" points="
  938.202,1800.78 938.202,47.2441 
  "/>
<polyline clip-path="url(#clip672)" style="stroke:#000000; stroke-linecap:butt; stroke-linejoin:round; stroke-width:2; stroke-opacity:0.1; fill:none" points="
  1284.39,1800.78 1284.39,47.2441 
  "/>
<polyline clip-path="url(#clip672)" style="stroke:#000000; stroke-linecap:butt; stroke-linejoin:round; stroke-width:2; stroke-opacity:0.1; fill:none" points="
  1630.57,1800.78 1630.57,47.2441 
  "/>
<polyline clip-path="url(#clip672)" style="stroke:#000000; stroke-linecap:butt; stroke-linejoin:round; stroke-width:2; stroke-opacity:0.1; fill:none" points="
  1976.75,1800.78 1976.75,47.2441 
  "/>
<polyline clip-path="url(#clip672)" style="stroke:#000000; stroke-linecap:butt; stroke-linejoin:round; stroke-width:2; stroke-opacity:0.1; fill:none" points="
  2322.94,1800.78 2322.94,47.2441 
  "/>
<polyline clip-path="url(#clip670)" style="stroke:#000000; stroke-linecap:butt; stroke-linejoin:round; stroke-width:4; stroke-opacity:1; fill:none" points="
  196.816,1800.78 2371.96,1800.78 
  "/>
<polyline clip-path="url(#clip670)" style="stroke:#000000; stroke-linecap:butt; stroke-linejoin:round; stroke-width:4; stroke-opacity:1; fill:none" points="
  245.833,1800.78 245.833,1781.88 
  "/>
<polyline clip-path="url(#clip670)" style="stroke:#000000; stroke-linecap:butt; stroke-linejoin:round; stroke-width:4; stroke-opacity:1; fill:none" points="
  592.017,1800.78 592.017,1781.88 
  "/>
<polyline clip-path="url(#clip670)" style="stroke:#000000; stroke-linecap:butt; stroke-linejoin:round; stroke-width:4; stroke-opacity:1; fill:none" points="
  938.202,1800.78 938.202,1781.88 
  "/>
<polyline clip-path="url(#clip670)" style="stroke:#000000; stroke-linecap:butt; stroke-linejoin:round; stroke-width:4; stroke-opacity:1; fill:none" points="
  1284.39,1800.78 1284.39,1781.88 
  "/>
<polyline clip-path="url(#clip670)" style="stroke:#000000; stroke-linecap:butt; stroke-linejoin:round; stroke-width:4; stroke-opacity:1; fill:none" points="
  1630.57,1800.78 1630.57,1781.88 
  "/>
<polyline clip-path="url(#clip670)" style="stroke:#000000; stroke-linecap:butt; stroke-linejoin:round; stroke-width:4; stroke-opacity:1; fill:none" points="
  1976.75,1800.78 1976.75,1781.88 
  "/>
<polyline clip-path="url(#clip670)" style="stroke:#000000; stroke-linecap:butt; stroke-linejoin:round; stroke-width:4; stroke-opacity:1; fill:none" points="
  2322.94,1800.78 2322.94,1781.88 
  "/>
<path clip-path="url(#clip670)" d="M192.859 1848.65 L222.535 1848.65 L222.535 1852.59 L192.859 1852.59 L192.859 1848.65 Z" fill="#000000" fill-rule="evenodd" fill-opacity="1" /><path clip-path="url(#clip670)" d="M233.437 1861.55 L241.076 1861.55 L241.076 1835.18 L232.766 1836.85 L232.766 1832.59 L241.03 1830.92 L245.706 1830.92 L245.706 1861.55 L253.345 1861.55 L253.345 1865.48 L233.437 1865.48 L233.437 1861.55 Z" fill="#000000" fill-rule="evenodd" fill-opacity="1" /><path clip-path="url(#clip670)" d="M262.789 1859.6 L267.673 1859.6 L267.673 1865.48 L262.789 1865.48 L262.789 1859.6 Z" fill="#000000" fill-rule="evenodd" fill-opacity="1" /><path clip-path="url(#clip670)" d="M277.905 1830.92 L296.261 1830.92 L296.261 1834.86 L282.187 1834.86 L282.187 1843.33 Q283.206 1842.98 284.224 1842.82 Q285.243 1842.64 286.261 1842.64 Q292.048 1842.64 295.428 1845.81 Q298.807 1848.98 298.807 1854.4 Q298.807 1859.97 295.335 1863.08 Q291.863 1866.15 285.544 1866.15 Q283.368 1866.15 281.099 1865.78 Q278.854 1865.41 276.446 1864.67 L276.446 1859.97 Q278.53 1861.11 280.752 1861.66 Q282.974 1862.22 285.451 1862.22 Q289.456 1862.22 291.794 1860.11 Q294.131 1858.01 294.131 1854.4 Q294.131 1850.78 291.794 1848.68 Q289.456 1846.57 285.451 1846.57 Q283.576 1846.57 281.701 1846.99 Q279.849 1847.4 277.905 1848.28 L277.905 1830.92 Z" fill="#000000" fill-rule="evenodd" fill-opacity="1" /><path clip-path="url(#clip670)" d="M538.545 1848.65 L568.221 1848.65 L568.221 1852.59 L538.545 1852.59 L538.545 1848.65 Z" fill="#000000" fill-rule="evenodd" fill-opacity="1" /><path clip-path="url(#clip670)" d="M579.124 1861.55 L586.763 1861.55 L586.763 1835.18 L578.453 1836.85 L578.453 1832.59 L586.717 1830.92 L591.392 1830.92 L591.392 1861.55 L599.031 1861.55 L599.031 1865.48 L579.124 1865.48 L579.124 1861.55 Z" fill="#000000" fill-rule="evenodd" fill-opacity="1" /><path clip-path="url(#clip670)" d="M608.476 1859.6 L613.36 1859.6 L613.36 1865.48 L608.476 1865.48 L608.476 1859.6 Z" fill="#000000" fill-rule="evenodd" fill-opacity="1" /><path clip-path="url(#clip670)" d="M633.545 1834 Q629.934 1834 628.105 1837.57 Q626.3 1841.11 626.3 1848.24 Q626.3 1855.34 628.105 1858.91 Q629.934 1862.45 633.545 1862.45 Q637.179 1862.45 638.985 1858.91 Q640.813 1855.34 640.813 1848.24 Q640.813 1841.11 638.985 1837.57 Q637.179 1834 633.545 1834 M633.545 1830.3 Q639.355 1830.3 642.411 1834.9 Q645.489 1839.49 645.489 1848.24 Q645.489 1856.96 642.411 1861.57 Q639.355 1866.15 633.545 1866.15 Q627.735 1866.15 624.656 1861.57 Q621.601 1856.96 621.601 1848.24 Q621.601 1839.49 624.656 1834.9 Q627.735 1830.3 633.545 1830.3 Z" fill="#000000" fill-rule="evenodd" fill-opacity="1" /><path clip-path="url(#clip670)" d="M885.227 1848.65 L914.903 1848.65 L914.903 1852.59 L885.227 1852.59 L885.227 1848.65 Z" fill="#000000" fill-rule="evenodd" fill-opacity="1" /><path clip-path="url(#clip670)" d="M934.996 1834 Q931.385 1834 929.556 1837.57 Q927.75 1841.11 927.75 1848.24 Q927.75 1855.34 929.556 1858.91 Q931.385 1862.45 934.996 1862.45 Q938.63 1862.45 940.435 1858.91 Q942.264 1855.34 942.264 1848.24 Q942.264 1841.11 940.435 1837.57 Q938.63 1834 934.996 1834 M934.996 1830.3 Q940.806 1830.3 943.861 1834.9 Q946.94 1839.49 946.94 1848.24 Q946.94 1856.96 943.861 1861.57 Q940.806 1866.15 934.996 1866.15 Q929.186 1866.15 926.107 1861.57 Q923.051 1856.96 923.051 1848.24 Q923.051 1839.49 926.107 1834.9 Q929.186 1830.3 934.996 1830.3 Z" fill="#000000" fill-rule="evenodd" fill-opacity="1" /><path clip-path="url(#clip670)" d="M955.158 1859.6 L960.042 1859.6 L960.042 1865.48 L955.158 1865.48 L955.158 1859.6 Z" fill="#000000" fill-rule="evenodd" fill-opacity="1" /><path clip-path="url(#clip670)" d="M970.273 1830.92 L988.63 1830.92 L988.63 1834.86 L974.556 1834.86 L974.556 1843.33 Q975.574 1842.98 976.593 1842.82 Q977.611 1842.64 978.63 1842.64 Q984.417 1842.64 987.796 1845.81 Q991.176 1848.98 991.176 1854.4 Q991.176 1859.97 987.704 1863.08 Q984.232 1866.15 977.912 1866.15 Q975.736 1866.15 973.468 1865.78 Q971.222 1865.41 968.815 1864.67 L968.815 1859.97 Q970.898 1861.11 973.12 1861.66 Q975.343 1862.22 977.82 1862.22 Q981.824 1862.22 984.162 1860.11 Q986.5 1858.01 986.5 1854.4 Q986.5 1850.78 984.162 1848.68 Q981.824 1846.57 977.82 1846.57 Q975.945 1846.57 974.07 1846.99 Q972.218 1847.4 970.273 1848.28 L970.273 1830.92 Z" fill="#000000" fill-rule="evenodd" fill-opacity="1" /><path clip-path="url(#clip670)" d="M1261.77 1834 Q1258.16 1834 1256.33 1837.57 Q1254.53 1841.11 1254.53 1848.24 Q1254.53 1855.34 1256.33 1858.91 Q1258.16 1862.45 1261.77 1862.45 Q1265.4 1862.45 1267.21 1858.91 Q1269.04 1855.34 1269.04 1848.24 Q1269.04 1841.11 1267.21 1837.57 Q1265.4 1834 1261.77 1834 M1261.77 1830.3 Q1267.58 1830.3 1270.64 1834.9 Q1273.71 1839.49 1273.71 1848.24 Q1273.71 1856.96 1270.64 1861.57 Q1267.58 1866.15 1261.77 1866.15 Q1255.96 1866.15 1252.88 1861.57 Q1249.83 1856.96 1249.83 1848.24 Q1249.83 1839.49 1252.88 1834.9 Q1255.96 1830.3 1261.77 1830.3 Z" fill="#000000" fill-rule="evenodd" fill-opacity="1" /><path clip-path="url(#clip670)" d="M1281.93 1859.6 L1286.82 1859.6 L1286.82 1865.48 L1281.93 1865.48 L1281.93 1859.6 Z" fill="#000000" fill-rule="evenodd" fill-opacity="1" /><path clip-path="url(#clip670)" d="M1307 1834 Q1303.39 1834 1301.56 1837.57 Q1299.76 1841.11 1299.76 1848.24 Q1299.76 1855.34 1301.56 1858.91 Q1303.39 1862.45 1307 1862.45 Q1310.64 1862.45 1312.44 1858.91 Q1314.27 1855.34 1314.27 1848.24 Q1314.27 1841.11 1312.44 1837.57 Q1310.64 1834 1307 1834 M1307 1830.3 Q1312.81 1830.3 1315.87 1834.9 Q1318.95 1839.49 1318.95 1848.24 Q1318.95 1856.96 1315.87 1861.57 Q1312.81 1866.15 1307 1866.15 Q1301.19 1866.15 1298.11 1861.57 Q1295.06 1856.96 1295.06 1848.24 Q1295.06 1839.49 1298.11 1834.9 Q1301.19 1830.3 1307 1830.3 Z" fill="#000000" fill-rule="evenodd" fill-opacity="1" /><path clip-path="url(#clip670)" d="M1608.45 1834 Q1604.84 1834 1603.01 1837.57 Q1601.21 1841.11 1601.21 1848.24 Q1601.21 1855.34 1603.01 1858.91 Q1604.84 1862.45 1608.45 1862.45 Q1612.09 1862.45 1613.89 1858.91 Q1615.72 1855.34 1615.72 1848.24 Q1615.72 1841.11 1613.89 1837.57 Q1612.09 1834 1608.45 1834 M1608.45 1830.3 Q1614.26 1830.3 1617.32 1834.9 Q1620.4 1839.49 1620.4 1848.24 Q1620.4 1856.96 1617.32 1861.57 Q1614.26 1866.15 1608.45 1866.15 Q1602.64 1866.15 1599.56 1861.57 Q1596.51 1856.96 1596.51 1848.24 Q1596.51 1839.49 1599.56 1834.9 Q1602.64 1830.3 1608.45 1830.3 Z" fill="#000000" fill-rule="evenodd" fill-opacity="1" /><path clip-path="url(#clip670)" d="M1628.61 1859.6 L1633.5 1859.6 L1633.5 1865.48 L1628.61 1865.48 L1628.61 1859.6 Z" fill="#000000" fill-rule="evenodd" fill-opacity="1" /><path clip-path="url(#clip670)" d="M1643.73 1830.92 L1662.09 1830.92 L1662.09 1834.86 L1648.01 1834.86 L1648.01 1843.33 Q1649.03 1842.98 1650.05 1842.82 Q1651.07 1842.64 1652.09 1842.64 Q1657.87 1842.64 1661.25 1845.81 Q1664.63 1848.98 1664.63 1854.4 Q1664.63 1859.97 1661.16 1863.08 Q1657.69 1866.15 1651.37 1866.15 Q1649.19 1866.15 1646.92 1865.78 Q1644.68 1865.41 1642.27 1864.67 L1642.27 1859.97 Q1644.35 1861.11 1646.58 1861.66 Q1648.8 1862.22 1651.28 1862.22 Q1655.28 1862.22 1657.62 1860.11 Q1659.96 1858.01 1659.96 1854.4 Q1659.96 1850.78 1657.62 1848.68 Q1655.28 1846.57 1651.28 1846.57 Q1649.4 1846.57 1647.53 1846.99 Q1645.67 1847.4 1643.73 1848.28 L1643.73 1830.92 Z" fill="#000000" fill-rule="evenodd" fill-opacity="1" /><path clip-path="url(#clip670)" d="M1943.91 1861.55 L1951.55 1861.55 L1951.55 1835.18 L1943.24 1836.85 L1943.24 1832.59 L1951.5 1830.92 L1956.18 1830.92 L1956.18 1861.55 L1963.81 1861.55 L1963.81 1865.48 L1943.91 1865.48 L1943.91 1861.55 Z" fill="#000000" fill-rule="evenodd" fill-opacity="1" /><path clip-path="url(#clip670)" d="M1973.26 1859.6 L1978.14 1859.6 L1978.14 1865.48 L1973.26 1865.48 L1973.26 1859.6 Z" fill="#000000" fill-rule="evenodd" fill-opacity="1" /><path clip-path="url(#clip670)" d="M1998.33 1834 Q1994.72 1834 1992.89 1837.57 Q1991.08 1841.11 1991.08 1848.24 Q1991.08 1855.34 1992.89 1858.91 Q1994.72 1862.45 1998.33 1862.45 Q2001.96 1862.45 2003.77 1858.91 Q2005.6 1855.34 2005.6 1848.24 Q2005.6 1841.11 2003.77 1837.57 Q2001.96 1834 1998.33 1834 M1998.33 1830.3 Q2004.14 1830.3 2007.19 1834.9 Q2010.27 1839.49 2010.27 1848.24 Q2010.27 1856.96 2007.19 1861.57 Q2004.14 1866.15 1998.33 1866.15 Q1992.52 1866.15 1989.44 1861.57 Q1986.38 1856.96 1986.38 1848.24 Q1986.38 1839.49 1989.44 1834.9 Q1992.52 1830.3 1998.33 1830.3 Z" fill="#000000" fill-rule="evenodd" fill-opacity="1" /><path clip-path="url(#clip670)" d="M2290.59 1861.55 L2298.23 1861.55 L2298.23 1835.18 L2289.92 1836.85 L2289.92 1832.59 L2298.18 1830.92 L2302.86 1830.92 L2302.86 1861.55 L2310.5 1861.55 L2310.5 1865.48 L2290.59 1865.48 L2290.59 1861.55 Z" fill="#000000" fill-rule="evenodd" fill-opacity="1" /><path clip-path="url(#clip670)" d="M2319.94 1859.6 L2324.83 1859.6 L2324.83 1865.48 L2319.94 1865.48 L2319.94 1859.6 Z" fill="#000000" fill-rule="evenodd" fill-opacity="1" /><path clip-path="url(#clip670)" d="M2335.06 1830.92 L2353.41 1830.92 L2353.41 1834.86 L2339.34 1834.86 L2339.34 1843.33 Q2340.36 1842.98 2341.38 1842.82 Q2342.39 1842.64 2343.41 1842.64 Q2349.2 1842.64 2352.58 1845.81 Q2355.96 1848.98 2355.96 1854.4 Q2355.96 1859.97 2352.49 1863.08 Q2349.02 1866.15 2342.7 1866.15 Q2340.52 1866.15 2338.25 1865.78 Q2336.01 1865.41 2333.6 1864.67 L2333.6 1859.97 Q2335.68 1861.11 2337.9 1861.66 Q2340.13 1862.22 2342.6 1862.22 Q2346.61 1862.22 2348.95 1860.11 Q2351.28 1858.01 2351.28 1854.4 Q2351.28 1850.78 2348.95 1848.68 Q2346.61 1846.57 2342.6 1846.57 Q2340.73 1846.57 2338.85 1846.99 Q2337 1847.4 2335.06 1848.28 L2335.06 1830.92 Z" fill="#000000" fill-rule="evenodd" fill-opacity="1" /><polyline clip-path="url(#clip672)" style="stroke:#000000; stroke-linecap:butt; stroke-linejoin:round; stroke-width:2; stroke-opacity:0.1; fill:none" points="
  196.816,1761.26 2371.96,1761.26 
  "/>
<polyline clip-path="url(#clip672)" style="stroke:#000000; stroke-linecap:butt; stroke-linejoin:round; stroke-width:2; stroke-opacity:0.1; fill:none" points="
  196.816,1482.18 2371.96,1482.18 
  "/>
<polyline clip-path="url(#clip672)" style="stroke:#000000; stroke-linecap:butt; stroke-linejoin:round; stroke-width:2; stroke-opacity:0.1; fill:none" points="
  196.816,1203.1 2371.96,1203.1 
  "/>
<polyline clip-path="url(#clip672)" style="stroke:#000000; stroke-linecap:butt; stroke-linejoin:round; stroke-width:2; stroke-opacity:0.1; fill:none" points="
  196.816,924.012 2371.96,924.012 
  "/>
<polyline clip-path="url(#clip672)" style="stroke:#000000; stroke-linecap:butt; stroke-linejoin:round; stroke-width:2; stroke-opacity:0.1; fill:none" points="
  196.816,644.928 2371.96,644.928 
  "/>
<polyline clip-path="url(#clip672)" style="stroke:#000000; stroke-linecap:butt; stroke-linejoin:round; stroke-width:2; stroke-opacity:0.1; fill:none" points="
  196.816,365.844 2371.96,365.844 
  "/>
<polyline clip-path="url(#clip672)" style="stroke:#000000; stroke-linecap:butt; stroke-linejoin:round; stroke-width:2; stroke-opacity:0.1; fill:none" points="
  196.816,86.7603 2371.96,86.7603 
  "/>
<polyline clip-path="url(#clip670)" style="stroke:#000000; stroke-linecap:butt; stroke-linejoin:round; stroke-width:4; stroke-opacity:1; fill:none" points="
  196.816,1800.78 196.816,47.2441 
  "/>
<polyline clip-path="url(#clip670)" style="stroke:#000000; stroke-linecap:butt; stroke-linejoin:round; stroke-width:4; stroke-opacity:1; fill:none" points="
  196.816,1761.26 213.635,1761.26 
  "/>
<polyline clip-path="url(#clip670)" style="stroke:#000000; stroke-linecap:butt; stroke-linejoin:round; stroke-width:4; stroke-opacity:1; fill:none" points="
  196.816,1482.18 213.635,1482.18 
  "/>
<polyline clip-path="url(#clip670)" style="stroke:#000000; stroke-linecap:butt; stroke-linejoin:round; stroke-width:4; stroke-opacity:1; fill:none" points="
  196.816,1203.1 213.635,1203.1 
  "/>
<polyline clip-path="url(#clip670)" style="stroke:#000000; stroke-linecap:butt; stroke-linejoin:round; stroke-width:4; stroke-opacity:1; fill:none" points="
  196.816,924.012 213.635,924.012 
  "/>
<polyline clip-path="url(#clip670)" style="stroke:#000000; stroke-linecap:butt; stroke-linejoin:round; stroke-width:4; stroke-opacity:1; fill:none" points="
  196.816,644.928 213.635,644.928 
  "/>
<polyline clip-path="url(#clip670)" style="stroke:#000000; stroke-linecap:butt; stroke-linejoin:round; stroke-width:4; stroke-opacity:1; fill:none" points="
  196.816,365.844 213.635,365.844 
  "/>
<polyline clip-path="url(#clip670)" style="stroke:#000000; stroke-linecap:butt; stroke-linejoin:round; stroke-width:4; stroke-opacity:1; fill:none" points="
  196.816,86.7603 213.635,86.7603 
  "/>
<path clip-path="url(#clip670)" d="M50.5475 1761.71 L80.2233 1761.71 L80.2233 1765.65 L50.5475 1765.65 L50.5475 1761.71 Z" fill="#000000" fill-rule="evenodd" fill-opacity="1" /><path clip-path="url(#clip670)" d="M91.126 1774.61 L98.7648 1774.61 L98.7648 1748.24 L90.4547 1749.91 L90.4547 1745.65 L98.7185 1743.98 L103.394 1743.98 L103.394 1774.61 L111.033 1774.61 L111.033 1778.54 L91.126 1778.54 L91.126 1774.61 Z" fill="#000000" fill-rule="evenodd" fill-opacity="1" /><path clip-path="url(#clip670)" d="M120.478 1772.66 L125.362 1772.66 L125.362 1778.54 L120.478 1778.54 L120.478 1772.66 Z" fill="#000000" fill-rule="evenodd" fill-opacity="1" /><path clip-path="url(#clip670)" d="M135.593 1743.98 L153.95 1743.98 L153.95 1747.92 L139.876 1747.92 L139.876 1756.39 Q140.894 1756.04 141.913 1755.88 Q142.931 1755.7 143.95 1755.7 Q149.737 1755.7 153.116 1758.87 Q156.496 1762.04 156.496 1767.46 Q156.496 1773.03 153.024 1776.14 Q149.552 1779.21 143.232 1779.21 Q141.056 1779.21 138.788 1778.84 Q136.542 1778.47 134.135 1777.73 L134.135 1773.03 Q136.218 1774.17 138.441 1774.72 Q140.663 1775.28 143.14 1775.28 Q147.144 1775.28 149.482 1773.17 Q151.82 1771.07 151.82 1767.46 Q151.82 1763.84 149.482 1761.74 Q147.144 1759.63 143.14 1759.63 Q141.265 1759.63 139.39 1760.05 Q137.538 1760.46 135.593 1761.34 L135.593 1743.98 Z" fill="#000000" fill-rule="evenodd" fill-opacity="1" /><path clip-path="url(#clip670)" d="M49.5521 1482.63 L79.2279 1482.63 L79.2279 1486.57 L49.5521 1486.57 L49.5521 1482.63 Z" fill="#000000" fill-rule="evenodd" fill-opacity="1" /><path clip-path="url(#clip670)" d="M90.1306 1495.52 L97.7695 1495.52 L97.7695 1469.16 L89.4593 1470.83 L89.4593 1466.57 L97.7232 1464.9 L102.399 1464.9 L102.399 1495.52 L110.038 1495.52 L110.038 1499.46 L90.1306 1499.46 L90.1306 1495.52 Z" fill="#000000" fill-rule="evenodd" fill-opacity="1" /><path clip-path="url(#clip670)" d="M119.482 1493.58 L124.367 1493.58 L124.367 1499.46 L119.482 1499.46 L119.482 1493.58 Z" fill="#000000" fill-rule="evenodd" fill-opacity="1" /><path clip-path="url(#clip670)" d="M144.552 1467.98 Q140.941 1467.98 139.112 1471.54 Q137.306 1475.08 137.306 1482.21 Q137.306 1489.32 139.112 1492.89 Q140.941 1496.43 144.552 1496.43 Q148.186 1496.43 149.991 1492.89 Q151.82 1489.32 151.82 1482.21 Q151.82 1475.08 149.991 1471.54 Q148.186 1467.98 144.552 1467.98 M144.552 1464.27 Q150.362 1464.27 153.417 1468.88 Q156.496 1473.46 156.496 1482.21 Q156.496 1490.94 153.417 1495.55 Q150.362 1500.13 144.552 1500.13 Q138.741 1500.13 135.663 1495.55 Q132.607 1490.94 132.607 1482.21 Q132.607 1473.46 135.663 1468.88 Q138.741 1464.27 144.552 1464.27 Z" fill="#000000" fill-rule="evenodd" fill-opacity="1" /><path clip-path="url(#clip670)" d="M50.5475 1203.55 L80.2233 1203.55 L80.2233 1207.48 L50.5475 1207.48 L50.5475 1203.55 Z" fill="#000000" fill-rule="evenodd" fill-opacity="1" /><path clip-path="url(#clip670)" d="M100.316 1188.89 Q96.7047 1188.89 94.876 1192.46 Q93.0704 1196 93.0704 1203.13 Q93.0704 1210.24 94.876 1213.8 Q96.7047 1217.34 100.316 1217.34 Q103.95 1217.34 105.756 1213.8 Q107.584 1210.24 107.584 1203.13 Q107.584 1196 105.756 1192.46 Q103.95 1188.89 100.316 1188.89 M100.316 1185.19 Q106.126 1185.19 109.181 1189.8 Q112.26 1194.38 112.26 1203.13 Q112.26 1211.86 109.181 1216.46 Q106.126 1221.05 100.316 1221.05 Q94.5056 1221.05 91.4269 1216.46 Q88.3714 1211.86 88.3714 1203.13 Q88.3714 1194.38 91.4269 1189.8 Q94.5056 1185.19 100.316 1185.19 Z" fill="#000000" fill-rule="evenodd" fill-opacity="1" /><path clip-path="url(#clip670)" d="M120.478 1214.5 L125.362 1214.5 L125.362 1220.38 L120.478 1220.38 L120.478 1214.5 Z" fill="#000000" fill-rule="evenodd" fill-opacity="1" /><path clip-path="url(#clip670)" d="M135.593 1185.82 L153.95 1185.82 L153.95 1189.75 L139.876 1189.75 L139.876 1198.22 Q140.894 1197.88 141.913 1197.71 Q142.931 1197.53 143.95 1197.53 Q149.737 1197.53 153.116 1200.7 Q156.496 1203.87 156.496 1209.29 Q156.496 1214.87 153.024 1217.97 Q149.552 1221.05 143.232 1221.05 Q141.056 1221.05 138.788 1220.68 Q136.542 1220.31 134.135 1219.57 L134.135 1214.87 Q136.218 1216 138.441 1216.56 Q140.663 1217.11 143.14 1217.11 Q147.144 1217.11 149.482 1215.01 Q151.82 1212.9 151.82 1209.29 Q151.82 1205.68 149.482 1203.57 Q147.144 1201.46 143.14 1201.46 Q141.265 1201.46 139.39 1201.88 Q137.538 1202.3 135.593 1203.18 L135.593 1185.82 Z" fill="#000000" fill-rule="evenodd" fill-opacity="1" /><path clip-path="url(#clip670)" d="M99.3204 909.81 Q95.7093 909.81 93.8806 913.375 Q92.075 916.917 92.075 924.046 Q92.075 931.153 93.8806 934.718 Q95.7093 938.259 99.3204 938.259 Q102.955 938.259 104.76 934.718 Q106.589 931.153 106.589 924.046 Q106.589 916.917 104.76 913.375 Q102.955 909.81 99.3204 909.81 M99.3204 906.107 Q105.131 906.107 108.186 910.713 Q111.265 915.296 111.265 924.046 Q111.265 932.773 108.186 937.38 Q105.131 941.963 99.3204 941.963 Q93.5102 941.963 90.4315 937.38 Q87.376 932.773 87.376 924.046 Q87.376 915.296 90.4315 910.713 Q93.5102 906.107 99.3204 906.107 Z" fill="#000000" fill-rule="evenodd" fill-opacity="1" /><path clip-path="url(#clip670)" d="M119.482 935.412 L124.367 935.412 L124.367 941.292 L119.482 941.292 L119.482 935.412 Z" fill="#000000" fill-rule="evenodd" fill-opacity="1" /><path clip-path="url(#clip670)" d="M144.552 909.81 Q140.941 909.81 139.112 913.375 Q137.306 916.917 137.306 924.046 Q137.306 931.153 139.112 934.718 Q140.941 938.259 144.552 938.259 Q148.186 938.259 149.991 934.718 Q151.82 931.153 151.82 924.046 Q151.82 916.917 149.991 913.375 Q148.186 909.81 144.552 909.81 M144.552 906.107 Q150.362 906.107 153.417 910.713 Q156.496 915.296 156.496 924.046 Q156.496 932.773 153.417 937.38 Q150.362 941.963 144.552 941.963 Q138.741 941.963 135.663 937.38 Q132.607 932.773 132.607 924.046 Q132.607 915.296 135.663 910.713 Q138.741 906.107 144.552 906.107 Z" fill="#000000" fill-rule="evenodd" fill-opacity="1" /><path clip-path="url(#clip670)" d="M100.316 630.727 Q96.7047 630.727 94.876 634.291 Q93.0704 637.833 93.0704 644.963 Q93.0704 652.069 94.876 655.634 Q96.7047 659.176 100.316 659.176 Q103.95 659.176 105.756 655.634 Q107.584 652.069 107.584 644.963 Q107.584 637.833 105.756 634.291 Q103.95 630.727 100.316 630.727 M100.316 627.023 Q106.126 627.023 109.181 631.629 Q112.26 636.213 112.26 644.963 Q112.26 653.689 109.181 658.296 Q106.126 662.879 100.316 662.879 Q94.5056 662.879 91.4269 658.296 Q88.3714 653.689 88.3714 644.963 Q88.3714 636.213 91.4269 631.629 Q94.5056 627.023 100.316 627.023 Z" fill="#000000" fill-rule="evenodd" fill-opacity="1" /><path clip-path="url(#clip670)" d="M120.478 656.328 L125.362 656.328 L125.362 662.208 L120.478 662.208 L120.478 656.328 Z" fill="#000000" fill-rule="evenodd" fill-opacity="1" /><path clip-path="url(#clip670)" d="M135.593 627.648 L153.95 627.648 L153.95 631.583 L139.876 631.583 L139.876 640.055 Q140.894 639.708 141.913 639.546 Q142.931 639.361 143.95 639.361 Q149.737 639.361 153.116 642.532 Q156.496 645.703 156.496 651.12 Q156.496 656.699 153.024 659.801 Q149.552 662.879 143.232 662.879 Q141.056 662.879 138.788 662.509 Q136.542 662.138 134.135 661.398 L134.135 656.699 Q136.218 657.833 138.441 658.388 Q140.663 658.944 143.14 658.944 Q147.144 658.944 149.482 656.838 Q151.82 654.731 151.82 651.12 Q151.82 647.509 149.482 645.402 Q147.144 643.296 143.14 643.296 Q141.265 643.296 139.39 643.713 Q137.538 644.129 135.593 645.009 L135.593 627.648 Z" fill="#000000" fill-rule="evenodd" fill-opacity="1" /><path clip-path="url(#clip670)" d="M90.1306 379.189 L97.7695 379.189 L97.7695 352.823 L89.4593 354.49 L89.4593 350.231 L97.7232 348.564 L102.399 348.564 L102.399 379.189 L110.038 379.189 L110.038 383.124 L90.1306 383.124 L90.1306 379.189 Z" fill="#000000" fill-rule="evenodd" fill-opacity="1" /><path clip-path="url(#clip670)" d="M119.482 377.245 L124.367 377.245 L124.367 383.124 L119.482 383.124 L119.482 377.245 Z" fill="#000000" fill-rule="evenodd" fill-opacity="1" /><path clip-path="url(#clip670)" d="M144.552 351.643 Q140.941 351.643 139.112 355.208 Q137.306 358.749 137.306 365.879 Q137.306 372.985 139.112 376.55 Q140.941 380.092 144.552 380.092 Q148.186 380.092 149.991 376.55 Q151.82 372.985 151.82 365.879 Q151.82 358.749 149.991 355.208 Q148.186 351.643 144.552 351.643 M144.552 347.939 Q150.362 347.939 153.417 352.546 Q156.496 357.129 156.496 365.879 Q156.496 374.606 153.417 379.212 Q150.362 383.795 144.552 383.795 Q138.741 383.795 135.663 379.212 Q132.607 374.606 132.607 365.879 Q132.607 357.129 135.663 352.546 Q138.741 347.939 144.552 347.939 Z" fill="#000000" fill-rule="evenodd" fill-opacity="1" /><path clip-path="url(#clip670)" d="M91.126 100.105 L98.7648 100.105 L98.7648 73.7395 L90.4547 75.4062 L90.4547 71.147 L98.7185 69.4803 L103.394 69.4803 L103.394 100.105 L111.033 100.105 L111.033 104.04 L91.126 104.04 L91.126 100.105 Z" fill="#000000" fill-rule="evenodd" fill-opacity="1" /><path clip-path="url(#clip670)" d="M120.478 98.1607 L125.362 98.1607 L125.362 104.04 L120.478 104.04 L120.478 98.1607 Z" fill="#000000" fill-rule="evenodd" fill-opacity="1" /><path clip-path="url(#clip670)" d="M135.593 69.4803 L153.95 69.4803 L153.95 73.4155 L139.876 73.4155 L139.876 81.8877 Q140.894 81.5404 141.913 81.3784 Q142.931 81.1932 143.95 81.1932 Q149.737 81.1932 153.116 84.3645 Q156.496 87.5358 156.496 92.9524 Q156.496 98.5311 153.024 101.633 Q149.552 104.712 143.232 104.712 Q141.056 104.712 138.788 104.341 Q136.542 103.971 134.135 103.23 L134.135 98.5311 Q136.218 99.6653 138.441 100.221 Q140.663 100.776 143.14 100.776 Q147.144 100.776 149.482 98.67 Q151.82 96.5635 151.82 92.9524 Q151.82 89.3413 149.482 87.2348 Q147.144 85.1284 143.14 85.1284 Q141.265 85.1284 139.39 85.545 Q137.538 85.9617 135.593 86.8413 L135.593 69.4803 Z" fill="#000000" fill-rule="evenodd" fill-opacity="1" /><polyline clip-path="url(#clip672)" style="stroke:#550f6d; stroke-linecap:butt; stroke-linejoin:round; stroke-width:4; stroke-opacity:1; fill:none" points="
  212.225,1800.78 196.816,1788.36 
  "/>
<polyline clip-path="url(#clip672)" style="stroke:#3b0964; stroke-linecap:butt; stroke-linejoin:round; stroke-width:4; stroke-opacity:1; fill:none" points="
  402.891,1800.78 394.556,1795.31 376.46,1783.07 372.585,1780.41 351.3,1765.35 350.614,1764.86 328.643,1748.67 327.287,1747.64 306.672,1731.76 304.353,1729.93 
  284.7,1714.09 282.431,1712.22 262.729,1695.6 261.459,1694.5 241.37,1676.79 240.758,1676.24 222.088,1659.08 218.787,1655.96 203.595,1641.37 196.816,1634.65 
  
  "/>
<polyline clip-path="url(#clip672)" style="stroke:#1f0c47; stroke-linecap:butt; stroke-linejoin:round; stroke-width:4; stroke-opacity:1; fill:none" points="
  196.816,1495.02 200.577,1499.67 215.371,1517.38 218.787,1521.34 230.852,1535.09 240.758,1546.03 247.011,1552.8 262.729,1569.33 263.88,1570.52 281.542,1588.23 
  284.7,1591.31 300.017,1605.94 306.672,1612.13 319.339,1623.65 328.643,1631.9 339.562,1641.37 350.614,1650.71 360.748,1659.08 372.585,1668.62 382.967,1676.79 
  394.556,1685.7 406.297,1694.5 416.527,1702.01 430.825,1712.22 438.498,1717.58 456.65,1729.93 460.469,1732.48 482.44,1746.71 483.911,1747.64 504.412,1760.31 
  512.816,1765.35 526.383,1773.34 543.439,1783.07 548.354,1785.82 570.325,1797.75 576.091,1800.78 
  "/>
<polyline clip-path="url(#clip672)" style="stroke:#090621; stroke-linecap:butt; stroke-linejoin:round; stroke-width:4; stroke-opacity:1; fill:none" points="
  794.179,1800.78 790.036,1799.26 768.065,1790.9 748.051,1783.07 746.094,1782.27 724.123,1772.98 706.513,1765.35 702.152,1763.39 680.18,1753.18 668.562,1747.64 
  658.209,1742.52 636.238,1731.4 633.423,1729.93 614.267,1719.58 600.948,1712.22 592.296,1707.28 570.408,1694.5 570.325,1694.45 548.354,1680.81 542.026,1676.79 
  526.383,1666.55 515.232,1659.08 504.412,1651.61 489.906,1641.37 482.44,1635.94 465.945,1623.65 460.469,1619.46 443.249,1605.94 438.498,1602.11 421.726,1588.23 
  416.527,1583.82 401.287,1570.52 394.556,1564.5 381.844,1552.8 372.585,1544.08 363.316,1535.09 350.614,1522.48 345.626,1517.38 328.704,1499.67 328.643,1499.6 
  312.801,1481.95 306.672,1474.98 297.544,1464.24 284.7,1448.8 282.874,1446.53 269.078,1428.82 262.729,1420.47 255.855,1411.1 243.193,1393.39 240.758,1389.88 
  231.298,1375.68 219.776,1357.97 218.787,1356.39 209.077,1340.25 198.698,1322.54 196.816,1319.2 
  "/>
<polyline clip-path="url(#clip672)" style="stroke:#090621; stroke-linecap:butt; stroke-linejoin:round; stroke-width:4; stroke-opacity:1; fill:none" points="
  196.816,528.821 198.698,525.481 209.077,507.768 218.787,491.634 219.776,490.056 231.298,472.344 240.758,458.147 243.193,454.631 255.855,436.919 262.729,427.553 
  269.078,419.206 282.874,401.494 284.7,399.224 297.544,383.781 306.672,373.044 312.801,366.069 328.643,348.423 328.704,348.356 345.626,330.644 350.614,325.542 
  363.316,312.931 372.585,303.942 381.844,295.219 394.556,283.525 401.287,277.506 416.527,264.208 421.726,259.794 438.498,245.911 443.249,242.081 460.469,228.56 
  465.945,224.369 482.44,212.082 489.906,206.656 504.412,196.408 515.232,188.944 526.383,181.472 542.026,171.231 548.354,167.21 570.325,153.569 570.408,153.519 
  592.296,140.748 600.948,135.806 614.267,128.448 633.423,118.094 636.238,116.622 658.209,105.5 668.562,100.382 680.18,94.8398 702.152,84.632 706.513,82.669 
  724.123,75.0428 746.094,65.7537 748.051,64.9566 768.065,57.1284 790.036,48.7613 794.179,47.2441 
  "/>
<polyline clip-path="url(#clip672)" style="stroke:#1f0c47; stroke-linecap:butt; stroke-linejoin:round; stroke-width:4; stroke-opacity:1; fill:none" points="
  576.091,47.2441 570.325,50.2759 548.354,62.2023 543.439,64.9566 526.383,74.6828 512.816,82.669 504.412,87.7096 483.911,100.382 482.44,101.309 460.469,115.548 
  456.65,118.094 438.498,130.442 430.825,135.806 416.527,146.018 406.297,153.519 394.556,162.322 382.967,171.231 372.585,179.402 360.748,188.944 350.614,197.314 
  339.562,206.656 328.643,216.122 319.339,224.369 306.672,235.896 300.017,242.081 284.7,256.715 281.542,259.794 263.88,277.506 262.729,278.692 247.011,295.219 
  240.758,301.994 230.852,312.931 218.787,326.682 215.371,330.644 200.577,348.356 196.816,353.005 
  "/>
<polyline clip-path="url(#clip672)" style="stroke:#3b0964; stroke-linecap:butt; stroke-linejoin:round; stroke-width:4; stroke-opacity:1; fill:none" points="
  196.816,213.376 203.595,206.656 218.787,192.068 222.088,188.944 240.758,171.785 241.37,171.231 261.459,153.519 262.729,152.426 282.431,135.806 284.7,133.937 
  304.353,118.094 306.672,116.265 327.287,100.382 328.643,99.3572 350.614,83.1625 351.3,82.669 372.585,67.6177 376.46,64.9566 394.556,52.7093 402.891,47.2441 
  
  "/>
<polyline clip-path="url(#clip672)" style="stroke:#550f6d; stroke-linecap:butt; stroke-linejoin:round; stroke-width:4; stroke-opacity:1; fill:none" points="
  212.225,47.2441 196.816,59.6664 
  "/>
<polyline clip-path="url(#clip672)" style="stroke:#090621; stroke-linecap:butt; stroke-linejoin:round; stroke-width:4; stroke-opacity:1; fill:none" points="
  1774.59,47.2441 1778.74,48.7613 1800.71,57.1284 1820.72,64.9566 1822.68,65.7537 1844.65,75.0428 1862.26,82.669 1866.62,84.632 1888.59,94.8398 1900.21,100.382 
  1910.56,105.5 1932.53,116.622 1935.35,118.094 1954.5,128.448 1967.82,135.806 1976.48,140.748 1998.36,153.519 1998.45,153.569 2020.42,167.21 2026.75,171.231 
  2042.39,181.472 2053.54,188.944 2064.36,196.408 2078.87,206.656 2086.33,212.082 2102.83,224.369 2108.3,228.56 2125.52,242.081 2130.27,245.911 2147.05,259.794 
  2152.24,264.208 2167.49,277.506 2174.22,283.525 2186.93,295.219 2196.19,303.942 2205.46,312.931 2218.16,325.542 2223.15,330.644 2240.07,348.356 2240.13,348.423 
  2255.97,366.069 2262.1,373.044 2271.23,383.781 2284.07,399.224 2285.9,401.494 2299.69,419.206 2306.04,427.553 2312.92,436.919 2325.58,454.631 2328.01,458.147 
  2337.47,472.344 2349,490.056 2349.98,491.634 2359.7,507.768 2370.07,525.481 2371.96,528.821 
  "/>
<polyline clip-path="url(#clip672)" style="stroke:#1f0c47; stroke-linecap:butt; stroke-linejoin:round; stroke-width:4; stroke-opacity:1; fill:none" points="
  2371.96,353.005 2368.2,348.356 2353.4,330.644 2349.98,326.682 2337.92,312.931 2328.01,301.994 2321.76,295.219 2306.04,278.692 2304.89,277.506 2287.23,259.794 
  2284.07,256.715 2268.76,242.081 2262.1,235.896 2249.43,224.369 2240.13,216.122 2229.21,206.656 2218.16,197.314 2208.02,188.944 2196.19,179.402 2185.8,171.231 
  2174.22,162.322 2162.47,153.519 2152.24,146.018 2137.95,135.806 2130.27,130.442 2112.12,118.094 2108.3,115.548 2086.33,101.309 2084.86,100.382 2064.36,87.7096 
  2055.96,82.669 2042.39,74.6828 2025.33,64.9566 2020.42,62.2023 1998.45,50.2759 1992.68,47.2441 
  "/>
<polyline clip-path="url(#clip672)" style="stroke:#3b0964; stroke-linecap:butt; stroke-linejoin:round; stroke-width:4; stroke-opacity:1; fill:none" points="
  2165.88,47.2441 2174.22,52.7093 2192.31,64.9566 2196.19,67.6177 2217.47,82.669 2218.16,83.1625 2240.13,99.3572 2241.48,100.382 2262.1,116.265 2264.42,118.094 
  2284.07,133.937 2286.34,135.806 2306.04,152.426 2307.31,153.519 2327.4,171.231 2328.01,171.785 2346.68,188.944 2349.98,192.068 2365.18,206.656 2371.96,213.376 
  
  "/>
<polyline clip-path="url(#clip672)" style="stroke:#550f6d; stroke-linecap:butt; stroke-linejoin:round; stroke-width:4; stroke-opacity:1; fill:none" points="
  2371.96,59.6664 2356.55,47.2441 
  "/>
<polyline clip-path="url(#clip672)" style="stroke:#090621; stroke-linecap:butt; stroke-linejoin:round; stroke-width:4; stroke-opacity:1; fill:none" points="
  2371.96,1319.2 2370.07,1322.54 2359.7,1340.25 2349.98,1356.39 2349,1357.97 2337.47,1375.68 2328.01,1389.88 2325.58,1393.39 2312.92,1411.1 2306.04,1420.47 
  2299.69,1428.82 2285.9,1446.53 2284.07,1448.8 2271.23,1464.24 2262.1,1474.98 2255.97,1481.95 2240.13,1499.6 2240.07,1499.67 2223.15,1517.38 2218.16,1522.48 
  2205.46,1535.09 2196.19,1544.08 2186.93,1552.8 2174.22,1564.5 2167.49,1570.52 2152.24,1583.82 2147.05,1588.23 2130.27,1602.11 2125.52,1605.94 2108.3,1619.46 
  2102.83,1623.65 2086.33,1635.94 2078.87,1641.37 2064.36,1651.61 2053.54,1659.08 2042.39,1666.55 2026.75,1676.79 2020.42,1680.81 1998.45,1694.45 1998.36,1694.5 
  1976.48,1707.28 1967.82,1712.22 1954.5,1719.58 1935.35,1729.93 1932.53,1731.4 1910.56,1742.52 1900.21,1747.64 1888.59,1753.18 1866.62,1763.39 1862.26,1765.35 
  1844.65,1772.98 1822.68,1782.27 1820.72,1783.07 1800.71,1790.9 1778.74,1799.26 1774.59,1800.78 
  "/>
<polyline clip-path="url(#clip672)" style="stroke:#1f0c47; stroke-linecap:butt; stroke-linejoin:round; stroke-width:4; stroke-opacity:1; fill:none" points="
  1992.68,1800.78 1998.45,1797.75 2020.42,1785.82 2025.33,1783.07 2042.39,1773.34 2055.96,1765.35 2064.36,1760.31 2084.86,1747.64 2086.33,1746.71 2108.3,1732.48 
  2112.12,1729.93 2130.27,1717.58 2137.95,1712.22 2152.24,1702.01 2162.47,1694.5 2174.22,1685.7 2185.8,1676.79 2196.19,1668.62 2208.02,1659.08 2218.16,1650.71 
  2229.21,1641.37 2240.13,1631.9 2249.43,1623.65 2262.1,1612.13 2268.76,1605.94 2284.07,1591.31 2287.23,1588.23 2304.89,1570.52 2306.04,1569.33 2321.76,1552.8 
  2328.01,1546.03 2337.92,1535.09 2349.98,1521.34 2353.4,1517.38 2368.2,1499.67 2371.96,1495.02 
  "/>
<polyline clip-path="url(#clip672)" style="stroke:#3b0964; stroke-linecap:butt; stroke-linejoin:round; stroke-width:4; stroke-opacity:1; fill:none" points="
  2371.96,1634.65 2365.18,1641.37 2349.98,1655.96 2346.68,1659.08 2328.01,1676.24 2327.4,1676.79 2307.31,1694.5 2306.04,1695.6 2286.34,1712.22 2284.07,1714.09 
  2264.42,1729.93 2262.1,1731.76 2241.48,1747.64 2240.13,1748.67 2218.16,1764.86 2217.47,1765.35 2196.19,1780.41 2192.31,1783.07 2174.22,1795.31 2165.88,1800.78 
  
  "/>
<polyline clip-path="url(#clip672)" style="stroke:#550f6d; stroke-linecap:butt; stroke-linejoin:round; stroke-width:4; stroke-opacity:1; fill:none" points="
  2356.55,1800.78 2371.96,1788.36 
  "/>
<polyline clip-path="url(#clip672)" style="stroke:#090621; stroke-linecap:butt; stroke-linejoin:round; stroke-width:4; stroke-opacity:1; fill:none" points="
  1866.62,1381.76 1852.19,1393.39 1844.65,1399.26 1828.72,1411.1 1822.68,1415.48 1803.21,1428.82 1800.71,1430.5 1778.74,1444.57 1775.48,1446.53 1756.76,1457.78 
  1745.09,1464.24 1734.79,1469.98 1712.82,1481.21 1711.27,1481.95 1690.85,1491.99 1673.42,1499.67 1668.88,1501.73 1646.91,1511.01 1630.03,1517.38 1624.94,1519.38 
  1602.97,1527.38 1581,1534.42 1578.71,1535.09 1559.02,1541.26 1537.05,1547.32 1515.08,1552.62 1514.25,1552.8 1493.11,1557.8 1471.14,1562.29 1449.17,1566.15 
  1427.2,1569.42 1418.52,1570.52 1405.23,1572.37 1383.26,1574.89 1361.28,1576.87 1339.31,1578.33 1317.34,1579.29 1295.37,1579.77 1273.4,1579.77 1251.43,1579.29 
  1229.46,1578.33 1207.49,1576.87 1185.52,1574.89 1163.54,1572.37 1150.25,1570.52 1141.57,1569.42 1119.6,1566.15 1097.63,1562.29 1075.66,1557.8 1054.53,1552.8 
  1053.69,1552.62 1031.72,1547.32 1009.75,1541.26 990.066,1535.09 987.776,1534.42 965.805,1527.38 943.834,1519.38 938.745,1517.38 921.863,1511.01 899.892,1501.73 
  895.349,1499.67 877.92,1491.99 857.497,1481.95 855.949,1481.21 833.978,1469.98 823.683,1464.24 812.007,1457.78 793.291,1446.53 790.036,1444.57 768.065,1430.5 
  765.564,1428.82 746.094,1415.48 740.057,1411.1 724.123,1399.26 716.579,1393.39 702.152,1381.76 694.872,1375.68 680.18,1362.83 674.756,1357.97 658.209,1342.27 
  656.118,1340.25 638.673,1322.54 636.238,1319.92 622.288,1304.83 614.267,1295.42 607.146,1287.12 593.222,1269.4 592.296,1268.16 579.844,1251.69 570.325,1237.64 
  567.767,1233.98 556.252,1216.27 548.354,1202.66 545.866,1198.56 535.944,1180.84 527.221,1163.13 526.383,1161.28 518.733,1145.42 511.215,1127.71 504.638,1109.99 
  504.412,1109.32 498.215,1092.28 492.643,1074.57 487.861,1056.86 483.8,1039.14 482.44,1032.15 480.14,1021.43 477.016,1003.72 474.565,986.005 472.754,968.293 
  471.56,950.58 470.966,932.868 470.966,915.155 471.56,897.443 472.754,879.731 474.565,862.018 477.016,844.306 480.14,826.593 482.44,815.878 483.8,808.881 
  487.861,791.168 492.643,773.456 498.215,755.743 504.412,738.705 504.638,738.031 511.215,720.318 518.733,702.606 526.383,686.74 527.221,684.893 535.944,667.181 
  545.866,649.468 548.354,645.366 556.252,631.756 567.767,614.043 570.325,610.381 579.844,596.331 592.296,579.866 593.222,578.618 607.146,560.906 614.267,552.606 
  622.288,543.193 636.238,528.105 638.673,525.481 656.118,507.768 658.209,505.753 674.756,490.056 680.18,485.189 694.872,472.344 702.152,466.262 716.579,454.631 
  724.123,448.762 740.057,436.919 746.094,432.546 765.564,419.206 768.065,417.52 790.036,403.456 793.291,401.494 812.007,390.247 823.683,383.781 833.978,378.041 
  855.949,366.815 857.497,366.069 877.92,356.03 895.349,348.356 899.892,346.295 921.863,337.011 938.745,330.644 943.834,328.638 965.805,320.639 987.776,313.607 
  990.066,312.931 1009.75,306.764 1031.72,300.704 1053.69,295.402 1054.53,295.219 1075.66,290.224 1097.63,285.731 1119.6,281.876 1141.57,278.603 1150.25,277.506 
  1163.54,275.652 1185.52,273.133 1207.49,271.157 1229.46,269.697 1251.43,268.734 1273.4,268.256 1295.37,268.256 1317.34,268.734 1339.31,269.697 1361.28,271.157 
  1383.26,273.133 1405.23,275.652 1418.52,277.506 1427.2,278.603 1449.17,281.876 1471.14,285.731 1493.11,290.224 1514.25,295.219 1515.08,295.402 1537.05,300.704 
  1559.02,306.764 1578.71,312.931 1581,313.607 1602.97,320.639 1624.94,328.638 1630.03,330.644 1646.91,337.011 1668.88,346.295 1673.42,348.356 1690.85,356.03 
  1711.27,366.069 1712.82,366.815 1734.79,378.041 1745.09,383.781 1756.76,390.247 1775.48,401.494 1778.74,403.456 1800.71,417.52 1803.21,419.206 1822.68,432.546 
  1828.72,436.919 1844.65,448.762 1852.19,454.631 1866.62,466.262 1873.9,472.344 1888.59,485.189 1894.02,490.056 1910.56,505.753 1912.65,507.768 1930.1,525.481 
  1932.53,528.105 1946.48,543.193 1954.5,552.606 1961.63,560.906 1975.55,578.618 1976.48,579.866 1988.93,596.331 1998.45,610.381 2001,614.043 2012.52,631.756 
  2020.42,645.366 2022.91,649.468 2032.83,667.181 2041.55,684.893 2042.39,686.74 2050.04,702.606 2057.56,720.318 2064.13,738.031 2064.36,738.705 2070.56,755.743 
  2076.13,773.456 2080.91,791.168 2084.97,808.881 2086.33,815.878 2088.63,826.593 2091.76,844.306 2094.21,862.018 2096.02,879.731 2097.21,897.443 2097.81,915.155 
  2097.81,932.868 2097.21,950.58 2096.02,968.293 2094.21,986.005 2091.76,1003.72 2088.63,1021.43 2086.33,1032.15 2084.97,1039.14 2080.91,1056.86 2076.13,1074.57 
  2070.56,1092.28 2064.36,1109.32 2064.13,1109.99 2057.56,1127.71 2050.04,1145.42 2042.39,1161.28 2041.55,1163.13 2032.83,1180.84 2022.91,1198.56 2020.42,1202.66 
  2012.52,1216.27 2001,1233.98 1998.45,1237.64 1988.93,1251.69 1976.48,1268.16 1975.55,1269.4 1961.63,1287.12 1954.5,1295.42 1946.48,1304.83 1932.53,1319.92 
  1930.1,1322.54 1912.65,1340.25 1910.56,1342.27 1894.02,1357.97 1888.59,1362.83 1873.9,1375.68 1866.62,1381.76 
  "/>
<polyline clip-path="url(#clip672)" style="stroke:#1f0c47; stroke-linecap:butt; stroke-linejoin:round; stroke-width:4; stroke-opacity:1; fill:none" points="
  1822.68,1334.69 1816.07,1340.25 1800.71,1352.64 1793.8,1357.97 1778.74,1369.18 1769.53,1375.68 1756.76,1384.44 1742.9,1393.39 1734.79,1398.53 1713.48,1411.1 
  1712.82,1411.49 1690.85,1423.66 1680.74,1428.82 1668.88,1434.86 1646.91,1445.12 1643.66,1446.53 1624.94,1454.77 1602.97,1463.44 1600.78,1464.24 1581,1471.65 
  1559.02,1478.99 1549.21,1481.95 1537.05,1485.75 1515.08,1491.92 1493.11,1497.33 1482.4,1499.67 1471.14,1502.25 1449.17,1506.65 1427.2,1510.41 1405.23,1513.56 
  1383.26,1516.15 1370,1517.38 1361.28,1518.25 1339.31,1519.89 1317.34,1520.97 1295.37,1521.51 1273.4,1521.51 1251.43,1520.97 1229.46,1519.89 1207.49,1518.25 
  1198.77,1517.38 1185.52,1516.15 1163.54,1513.56 1141.57,1510.41 1119.6,1506.65 1097.63,1502.25 1086.37,1499.67 1075.66,1497.33 1053.69,1491.92 1031.72,1485.75 
  1019.56,1481.95 1009.75,1478.99 987.776,1471.65 967.987,1464.24 965.805,1463.44 943.834,1454.77 925.112,1446.53 921.863,1445.12 899.892,1434.86 888.034,1428.82 
  877.92,1423.66 855.949,1411.49 855.291,1411.1 833.978,1398.53 825.869,1393.39 812.007,1384.44 799.246,1375.68 790.036,1369.18 774.97,1357.97 768.065,1352.64 
  752.7,1340.25 746.094,1334.69 732.187,1322.54 724.123,1315.12 713.253,1304.83 702.152,1293.66 695.78,1287.12 680.18,1269.94 679.704,1269.4 664.603,1251.69 
  658.209,1243.54 650.713,1233.98 637.992,1216.27 636.238,1213.65 626.019,1198.56 615.259,1180.84 614.267,1179.08 605.075,1163.13 595.977,1145.42 592.296,1137.51 
  587.582,1127.71 579.935,1109.99 573.223,1092.28 570.325,1083.65 567.127,1074.57 561.661,1056.86 556.998,1039.14 553.087,1021.43 549.885,1003.72 548.354,993.029 
  547.276,986.005 545.245,968.293 543.902,950.58 543.235,932.868 543.235,915.155 543.902,897.443 545.245,879.731 547.276,862.018 548.354,854.995 549.885,844.306 
  553.087,826.593 556.998,808.881 561.661,791.168 567.127,773.456 570.325,764.376 573.223,755.743 579.935,738.031 587.582,720.318 592.296,710.518 595.977,702.606 
  605.075,684.893 614.267,668.94 615.259,667.181 626.019,649.468 636.238,634.375 637.992,631.756 650.713,614.043 658.209,604.484 664.603,596.331 679.704,578.618 
  680.18,578.088 695.78,560.906 702.152,554.368 713.253,543.193 724.123,532.906 732.187,525.481 746.094,513.335 752.7,507.768 768.065,495.382 774.97,490.056 
  790.036,478.845 799.246,472.344 812.007,463.581 825.869,454.631 833.978,449.495 855.291,436.919 855.949,436.535 877.92,424.36 888.034,419.206 899.892,413.163 
  921.863,402.908 925.112,401.494 943.834,393.255 965.805,384.581 967.987,383.781 987.776,376.37 1009.75,369.036 1019.56,366.069 1031.72,362.269 1053.69,356.104 
  1075.66,350.693 1086.37,348.356 1097.63,345.778 1119.6,341.371 1141.57,337.612 1163.54,334.459 1185.52,331.878 1198.77,330.644 1207.49,329.775 1229.46,328.137 
  1251.43,327.055 1273.4,326.517 1295.37,326.517 1317.34,327.055 1339.31,328.137 1361.28,329.775 1370,330.644 1383.26,331.878 1405.23,334.459 1427.2,337.612 
  1449.17,341.371 1471.14,345.778 1482.4,348.356 1493.11,350.693 1515.08,356.104 1537.05,362.269 1549.21,366.069 1559.02,369.036 1581,376.37 1600.78,383.781 
  1602.97,384.581 1624.94,393.255 1643.66,401.494 1646.91,402.908 1668.88,413.163 1680.74,419.206 1690.85,424.36 1712.82,436.535 1713.48,436.919 1734.79,449.495 
  1742.9,454.631 1756.76,463.581 1769.53,472.344 1778.74,478.845 1793.8,490.056 1800.71,495.382 1816.07,507.768 1822.68,513.335 1836.58,525.481 1844.65,532.906 
  1855.52,543.193 1866.62,554.368 1872.99,560.906 1888.59,578.088 1889.07,578.618 1904.17,596.331 1910.56,604.484 1918.06,614.043 1930.78,631.756 1932.53,634.375 
  1942.75,649.468 1953.51,667.181 1954.5,668.94 1963.7,684.893 1972.8,702.606 1976.48,710.518 1981.19,720.318 1988.84,738.031 1995.55,755.743 1998.45,764.376 
  2001.65,773.456 2007.11,791.168 2011.77,808.881 2015.69,826.593 2018.89,844.306 2020.42,854.995 2021.5,862.018 2023.53,879.731 2024.87,897.443 2025.54,915.155 
  2025.54,932.868 2024.87,950.58 2023.53,968.293 2021.5,986.005 2020.42,993.029 2018.89,1003.72 2015.69,1021.43 2011.77,1039.14 2007.11,1056.86 2001.65,1074.57 
  1998.45,1083.65 1995.55,1092.28 1988.84,1109.99 1981.19,1127.71 1976.48,1137.51 1972.8,1145.42 1963.7,1163.13 1954.5,1179.08 1953.51,1180.84 1942.75,1198.56 
  1932.53,1213.65 1930.78,1216.27 1918.06,1233.98 1910.56,1243.54 1904.17,1251.69 1889.07,1269.4 1888.59,1269.94 1872.99,1287.12 1866.62,1293.66 1855.52,1304.83 
  1844.65,1315.12 1836.58,1322.54 1822.68,1334.69 
  "/>
<polyline clip-path="url(#clip672)" style="stroke:#3b0964; stroke-linecap:butt; stroke-linejoin:round; stroke-width:4; stroke-opacity:1; fill:none" points="
  1780.39,1304.83 1778.74,1306.22 1758.49,1322.54 1756.76,1323.88 1734.79,1340.01 1734.45,1340.25 1712.82,1354.87 1707.93,1357.97 1690.85,1368.53 1678.4,1375.68 
  1668.88,1381.05 1646.91,1392.52 1645.13,1393.39 1624.94,1403.2 1606.96,1411.1 1602.97,1412.86 1581,1421.83 1561.91,1428.82 1559.02,1429.88 1537.05,1437.36 
  1515.08,1443.98 1505.67,1446.53 1493.11,1450.01 1471.14,1455.39 1449.17,1460.06 1427.2,1464.06 1426.03,1464.24 1405.23,1467.61 1383.26,1470.53 1361.28,1472.83 
  1339.31,1474.54 1317.34,1475.67 1295.37,1476.24 1273.4,1476.24 1251.43,1475.67 1229.46,1474.54 1207.49,1472.83 1185.52,1470.53 1163.54,1467.61 1142.75,1464.24 
  1141.57,1464.06 1119.6,1460.06 1097.63,1455.39 1075.66,1450.01 1063.11,1446.53 1053.69,1443.98 1031.72,1437.36 1009.75,1429.88 1006.86,1428.82 987.776,1421.83 
  965.805,1412.86 961.811,1411.1 943.834,1403.2 923.64,1393.39 921.863,1392.52 899.892,1381.05 890.376,1375.68 877.92,1368.53 860.84,1357.97 855.949,1354.87 
  834.323,1340.25 833.978,1340.01 812.007,1323.88 810.281,1322.54 790.036,1306.22 788.382,1304.83 768.363,1287.12 768.065,1286.84 749.937,1269.4 746.094,1265.46 
  732.997,1251.69 724.123,1241.65 717.456,1233.98 703.229,1216.27 702.152,1214.83 689.989,1198.56 680.18,1184.06 677.999,1180.84 666.874,1163.13 658.209,1147.74 
  656.886,1145.42 647.61,1127.71 639.395,1109.99 636.238,1102.4 631.927,1092.28 625.244,1074.57 619.451,1056.86 614.493,1039.14 614.267,1038.2 610.089,1021.43 
  606.469,1003.72 603.611,986.005 601.491,968.293 600.088,950.58 599.389,932.868 599.389,915.155 600.088,897.443 601.491,879.731 603.611,862.018 606.469,844.306 
  610.089,826.593 614.267,809.826 614.493,808.881 619.451,791.168 625.244,773.456 631.927,755.743 636.238,745.623 639.395,738.031 647.61,720.318 656.886,702.606 
  658.209,700.282 666.874,684.893 677.999,667.181 680.18,663.961 689.989,649.468 702.152,633.189 703.229,631.756 717.456,614.043 724.123,606.372 732.997,596.331 
  746.094,582.561 749.937,578.618 768.065,561.184 768.363,560.906 788.382,543.193 790.036,541.802 810.281,525.481 812.007,524.148 833.978,508.009 834.323,507.768 
  855.949,493.154 860.84,490.056 877.92,479.498 890.376,472.344 899.892,466.969 921.863,455.5 923.64,454.631 943.834,444.826 961.811,436.919 965.805,435.16 
  987.776,426.192 1006.86,419.206 1009.75,418.139 1031.72,410.661 1053.69,404.039 1063.11,401.494 1075.66,398.018 1097.63,392.63 1119.6,387.961 1141.57,383.964 
  1142.75,383.781 1163.54,380.413 1185.52,377.494 1207.49,375.191 1229.46,373.481 1251.43,372.35 1273.4,371.787 1295.37,371.787 1317.34,372.35 1339.31,373.481 
  1361.28,375.191 1383.26,377.494 1405.23,380.413 1426.03,383.781 1427.2,383.964 1449.17,387.961 1471.14,392.63 1493.11,398.018 1505.67,401.494 1515.08,404.039 
  1537.05,410.661 1559.02,418.139 1561.91,419.206 1581,426.192 1602.97,435.16 1606.96,436.919 1624.94,444.826 1645.13,454.631 1646.91,455.5 1668.88,466.969 
  1678.4,472.344 1690.85,479.498 1707.93,490.056 1712.82,493.154 1734.45,507.768 1734.79,508.009 1756.76,524.148 1758.49,525.481 1778.74,541.802 1780.39,543.193 
  1800.41,560.906 1800.71,561.184 1818.84,578.618 1822.68,582.561 1835.77,596.331 1844.65,606.372 1851.32,614.043 1865.54,631.756 1866.62,633.189 1878.78,649.468 
  1888.59,663.961 1890.77,667.181 1901.9,684.893 1910.56,700.282 1911.89,702.606 1921.16,720.318 1929.38,738.031 1932.53,745.623 1936.84,755.743 1943.53,773.456 
  1949.32,791.168 1954.28,808.881 1954.5,809.826 1958.68,826.593 1962.3,844.306 1965.16,862.018 1967.28,879.731 1968.68,897.443 1969.38,915.155 1969.38,932.868 
  1968.68,950.58 1967.28,968.293 1965.16,986.005 1962.3,1003.72 1958.68,1021.43 1954.5,1038.2 1954.28,1039.14 1949.32,1056.86 1943.53,1074.57 1936.84,1092.28 
  1932.53,1102.4 1929.38,1109.99 1921.16,1127.71 1911.89,1145.42 1910.56,1147.74 1901.9,1163.13 1890.77,1180.84 1888.59,1184.06 1878.78,1198.56 1866.62,1214.83 
  1865.54,1216.27 1851.32,1233.98 1844.65,1241.65 1835.77,1251.69 1822.68,1265.46 1818.84,1269.4 1800.71,1286.84 1800.41,1287.12 1780.39,1304.83 
  "/>
<polyline clip-path="url(#clip672)" style="stroke:#550f6d; stroke-linecap:butt; stroke-linejoin:round; stroke-width:4; stroke-opacity:1; fill:none" points="
  1756.76,1267.9 1755.09,1269.4 1734.79,1286.56 1734.1,1287.12 1712.82,1303.48 1710.96,1304.83 1690.85,1318.89 1685.28,1322.54 1668.88,1332.96 1656.54,1340.25 
  1646.91,1345.81 1624.94,1357.5 1624.01,1357.97 1602.97,1368.28 1586.33,1375.68 1581,1378.04 1559.02,1386.97 1541.42,1393.39 1537.05,1394.99 1515.08,1402.32 
  1493.11,1408.79 1484.27,1411.1 1471.14,1414.6 1449.17,1419.72 1427.2,1424.11 1405.23,1427.81 1398.02,1428.82 1383.26,1430.94 1361.28,1433.44 1339.31,1435.3 
  1317.34,1436.54 1295.37,1437.15 1273.4,1437.15 1251.43,1436.54 1229.46,1435.3 1207.49,1433.44 1185.52,1430.94 1170.75,1428.82 1163.54,1427.81 1141.57,1424.11 
  1119.6,1419.72 1097.63,1414.6 1084.5,1411.1 1075.66,1408.79 1053.69,1402.32 1031.72,1394.99 1027.35,1393.39 1009.75,1386.97 987.776,1378.04 982.438,1375.68 
  965.805,1368.28 944.765,1357.97 943.834,1357.5 921.863,1345.81 912.235,1340.25 899.892,1332.96 883.491,1322.54 877.92,1318.89 857.81,1304.83 855.949,1303.48 
  834.672,1287.12 833.978,1286.56 813.686,1269.4 812.007,1267.9 794.568,1251.69 790.036,1247.2 777.113,1233.98 768.065,1224.03 761.179,1216.27 746.669,1198.56 
  746.094,1197.8 733.296,1180.84 724.123,1167.43 721.201,1163.13 710.122,1145.42 702.152,1131.22 700.172,1127.71 691.082,1109.99 683.055,1092.28 680.18,1085.15 
  675.848,1074.57 669.492,1056.86 664.044,1039.14 659.457,1021.43 658.209,1015.62 655.579,1003.72 652.471,986.005 650.164,968.293 648.636,950.58 647.875,932.868 
  647.875,915.155 648.636,897.443 650.164,879.731 652.471,862.018 655.579,844.306 658.209,832.405 659.457,826.593 664.044,808.881 669.492,791.168 675.848,773.456 
  680.18,762.87 683.055,755.743 691.082,738.031 700.172,720.318 702.152,716.801 710.122,702.606 721.201,684.893 724.123,680.59 733.296,667.181 746.094,650.219 
  746.669,649.468 761.179,631.756 768.065,623.994 777.113,614.043 790.036,600.821 794.568,596.331 812.007,580.119 813.686,578.618 833.978,561.465 834.672,560.906 
  855.949,544.547 857.81,543.193 877.92,529.135 883.491,525.481 899.892,515.062 912.235,507.768 921.863,502.217 943.834,490.519 944.765,490.056 965.805,479.739 
  982.438,472.344 987.776,469.988 1009.75,461.057 1027.35,454.631 1031.72,453.035 1053.69,445.707 1075.66,439.236 1084.5,436.919 1097.63,433.426 1119.6,428.302 
  1141.57,423.91 1163.54,420.212 1170.75,419.206 1185.52,417.085 1207.49,414.58 1229.46,412.72 1251.43,411.488 1273.4,410.875 1295.37,410.875 1317.34,411.488 
  1339.31,412.72 1361.28,414.58 1383.26,417.085 1398.02,419.206 1405.23,420.212 1427.2,423.91 1449.17,428.302 1471.14,433.426 1484.27,436.919 1493.11,439.236 
  1515.08,445.707 1537.05,453.035 1541.42,454.631 1559.02,461.057 1581,469.988 1586.33,472.344 1602.97,479.739 1624.01,490.056 1624.94,490.519 1646.91,502.217 
  1656.54,507.768 1668.88,515.062 1685.28,525.481 1690.85,529.135 1710.96,543.193 1712.82,544.547 1734.1,560.906 1734.79,561.465 1755.09,578.618 1756.76,580.119 
  1774.2,596.331 1778.74,600.821 1791.66,614.043 1800.71,623.994 1807.59,631.756 1822.1,649.468 1822.68,650.219 1835.48,667.181 1844.65,680.59 1847.57,684.893 
  1858.65,702.606 1866.62,716.801 1868.6,720.318 1877.69,738.031 1885.72,755.743 1888.59,762.87 1892.92,773.456 1899.28,791.168 1904.73,808.881 1909.32,826.593 
  1910.56,832.405 1913.19,844.306 1916.3,862.018 1918.61,879.731 1920.14,897.443 1920.9,915.155 1920.9,932.868 1920.14,950.58 1918.61,968.293 1916.3,986.005 
  1913.19,1003.72 1910.56,1015.62 1909.32,1021.43 1904.73,1039.14 1899.28,1056.86 1892.92,1074.57 1888.59,1085.15 1885.72,1092.28 1877.69,1109.99 1868.6,1127.71 
  1866.62,1131.22 1858.65,1145.42 1847.57,1163.13 1844.65,1167.43 1835.48,1180.84 1822.68,1197.8 1822.1,1198.56 1807.59,1216.27 1800.71,1224.03 1791.66,1233.98 
  1778.74,1247.2 1774.2,1251.69 1756.76,1267.9 
  "/>
<polyline clip-path="url(#clip672)" style="stroke:#6e186e; stroke-linecap:butt; stroke-linejoin:round; stroke-width:4; stroke-opacity:1; fill:none" points="
  1734.79,1234.31 1715.44,1251.69 1712.82,1253.91 1693.61,1269.4 1690.85,1271.52 1669.3,1287.12 1668.88,1287.41 1646.91,1301.81 1641.95,1304.83 1624.94,1314.88 
  1610.88,1322.54 1602.97,1326.74 1581,1337.5 1574.87,1340.25 1559.02,1347.27 1537.05,1356.05 1531.78,1357.97 1515.08,1364 1493.11,1371.07 1476.88,1375.68 
  1471.14,1377.32 1449.17,1382.86 1427.2,1387.62 1405.23,1391.63 1393.54,1393.39 1383.26,1394.97 1361.28,1397.66 1339.31,1399.66 1317.34,1400.98 1295.37,1401.64 
  1273.4,1401.64 1251.43,1400.98 1229.46,1399.66 1207.49,1397.66 1185.52,1394.97 1175.23,1393.39 1163.54,1391.63 1141.57,1387.62 1119.6,1382.86 1097.63,1377.32 
  1091.89,1375.68 1075.66,1371.07 1053.69,1364 1036.99,1357.97 1031.72,1356.05 1009.75,1347.27 993.9,1340.25 987.776,1337.5 965.805,1326.74 957.896,1322.54 
  943.834,1314.88 926.819,1304.83 921.863,1301.81 899.892,1287.41 899.477,1287.12 877.92,1271.52 875.164,1269.4 855.949,1253.91 853.328,1251.69 833.978,1234.31 
  833.621,1233.98 815.759,1216.27 812.007,1212.27 799.537,1198.56 790.036,1187.22 784.824,1180.84 771.482,1163.13 768.065,1158.19 759.358,1145.42 748.469,1127.71 
  746.094,1123.46 738.611,1109.99 729.844,1092.28 724.123,1079.2 722.09,1074.57 715.213,1056.86 709.312,1039.14 704.339,1021.43 702.152,1012.01 700.192,1003.72 
  696.859,986.005 694.382,968.293 692.742,950.58 691.925,932.868 691.925,915.155 692.742,897.443 694.382,879.731 696.859,862.018 700.192,844.306 702.152,836.015 
  704.339,826.593 709.312,808.881 715.213,791.168 722.09,773.456 724.123,768.826 729.844,755.743 738.611,738.031 746.094,724.568 748.469,720.318 759.358,702.606 
  768.065,689.83 771.482,684.893 784.824,667.181 790.036,660.805 799.537,649.468 812.007,635.752 815.759,631.756 833.621,614.043 833.978,613.709 853.328,596.331 
  855.949,594.109 875.164,578.618 877.92,576.505 899.477,560.906 899.892,560.618 921.863,546.218 926.819,543.193 943.834,533.14 957.896,525.481 965.805,521.279 
  987.776,510.523 993.9,507.768 1009.75,500.749 1031.72,491.971 1036.99,490.056 1053.69,484.024 1075.66,476.956 1091.89,472.344 1097.63,470.705 1119.6,465.161 
  1141.57,460.404 1163.54,456.394 1175.23,454.631 1185.52,453.051 1207.49,450.364 1229.46,448.367 1251.43,447.045 1273.4,446.386 1295.37,446.386 1317.34,447.045 
  1339.31,448.367 1361.28,450.364 1383.26,453.051 1393.54,454.631 1405.23,456.394 1427.2,460.404 1449.17,465.161 1471.14,470.705 1476.88,472.344 1493.11,476.956 
  1515.08,484.024 1531.78,490.056 1537.05,491.971 1559.02,500.749 1574.87,507.768 1581,510.523 1602.97,521.279 1610.88,525.481 1624.94,533.14 1641.95,543.193 
  1646.91,546.218 1668.88,560.618 1669.3,560.906 1690.85,576.505 1693.61,578.618 1712.82,594.109 1715.44,596.331 1734.79,613.709 1735.15,614.043 1753.01,631.756 
  1756.76,635.752 1769.24,649.468 1778.74,660.805 1783.95,667.181 1797.29,684.893 1800.71,689.83 1809.41,702.606 1820.3,720.318 1822.68,724.568 1830.16,738.031 
  1838.93,755.743 1844.65,768.826 1846.68,773.456 1853.56,791.168 1859.46,808.881 1864.43,826.593 1866.62,836.015 1868.58,844.306 1871.91,862.018 1874.39,879.731 
  1876.03,897.443 1876.85,915.155 1876.85,932.868 1876.03,950.58 1874.39,968.293 1871.91,986.005 1868.58,1003.72 1866.62,1012.01 1864.43,1021.43 1859.46,1039.14 
  1853.56,1056.86 1846.68,1074.57 1844.65,1079.2 1838.93,1092.28 1830.16,1109.99 1822.68,1123.46 1820.3,1127.71 1809.41,1145.42 1800.71,1158.19 1797.29,1163.13 
  1783.95,1180.84 1778.74,1187.22 1769.24,1198.56 1756.76,1212.27 1753.01,1216.27 1735.15,1233.98 1734.79,1234.31 
  "/>
<polyline clip-path="url(#clip672)" style="stroke:#88216a; stroke-linecap:butt; stroke-linejoin:round; stroke-width:4; stroke-opacity:1; fill:none" points="
  1712.82,1203.57 1699.6,1216.27 1690.85,1224.13 1679.33,1233.98 1668.88,1242.41 1656.67,1251.69 1646.91,1258.75 1631.15,1269.4 1624.94,1273.43 1602.97,1286.65 
  1602.14,1287.12 1581,1298.58 1568.34,1304.83 1559.02,1309.32 1537.05,1318.97 1528.06,1322.54 1515.08,1327.62 1493.11,1335.32 1477.2,1340.25 1471.14,1342.12 
  1449.17,1348.11 1427.2,1353.25 1405.23,1357.58 1402.87,1357.97 1383.26,1361.21 1361.28,1364.09 1339.31,1366.22 1317.34,1367.64 1295.37,1368.35 1273.4,1368.35 
  1251.43,1367.64 1229.46,1366.22 1207.49,1364.09 1185.52,1361.21 1165.9,1357.97 1163.54,1357.58 1141.57,1353.25 1119.6,1348.11 1097.63,1342.12 1091.57,1340.25 
  1075.66,1335.32 1053.69,1327.62 1040.71,1322.54 1031.72,1318.97 1009.75,1309.32 1000.43,1304.83 987.776,1298.58 966.636,1287.12 965.805,1286.65 943.834,1273.43 
  937.619,1269.4 921.863,1258.75 912.105,1251.69 899.892,1242.41 889.441,1233.98 877.92,1224.13 869.168,1216.27 855.949,1203.57 850.952,1198.56 834.555,1180.84 
  833.978,1180.17 819.763,1163.13 812.007,1152.93 806.44,1145.42 794.471,1127.71 790.036,1120.46 783.736,1109.99 774.184,1092.28 768.065,1079.45 765.75,1074.57 
  758.326,1056.86 751.95,1039.14 746.572,1021.43 746.094,1019.53 742.071,1003.72 738.504,986.005 735.851,968.293 734.094,950.58 733.218,932.868 733.218,915.155 
  734.094,897.443 735.851,879.731 738.504,862.018 742.071,844.306 746.094,828.489 746.572,826.593 751.95,808.881 758.326,791.168 765.75,773.456 768.065,768.571 
  774.184,755.743 783.736,738.031 790.036,727.567 794.471,720.318 806.44,702.606 812.007,695.094 819.763,684.893 833.978,667.851 834.555,667.181 850.952,649.468 
  855.949,644.458 869.168,631.756 877.92,623.889 889.441,614.043 899.892,605.618 912.105,596.331 921.863,589.275 937.619,578.618 943.834,574.59 965.805,561.371 
  966.636,560.906 987.776,549.446 1000.43,543.193 1009.75,538.705 1031.72,529.056 1040.71,525.481 1053.69,520.402 1075.66,512.701 1091.57,507.768 1097.63,505.902 
  1119.6,499.917 1141.57,494.778 1163.54,490.442 1165.9,490.056 1185.52,486.813 1207.49,483.937 1229.46,481.799 1251.43,480.382 1273.4,479.676 1295.37,479.676 
  1317.34,480.382 1339.31,481.799 1361.28,483.937 1383.26,486.813 1402.87,490.056 1405.23,490.442 1427.2,494.778 1449.17,499.917 1471.14,505.902 1477.2,507.768 
  1493.11,512.701 1515.08,520.402 1528.06,525.481 1537.05,529.056 1559.02,538.705 1568.34,543.193 1581,549.446 1602.14,560.906 1602.97,561.371 1624.94,574.59 
  1631.15,578.618 1646.91,589.275 1656.67,596.331 1668.88,605.618 1679.33,614.043 1690.85,623.889 1699.6,631.756 1712.82,644.458 1717.82,649.468 1734.22,667.181 
  1734.79,667.851 1749.01,684.893 1756.76,695.094 1762.33,702.606 1774.3,720.318 1778.74,727.567 1785.04,738.031 1794.59,755.743 1800.71,768.571 1803.02,773.456 
  1810.45,791.168 1816.82,808.881 1822.2,826.593 1822.68,828.489 1826.7,844.306 1830.27,862.018 1832.92,879.731 1834.68,897.443 1835.55,915.155 1835.55,932.868 
  1834.68,950.58 1832.92,968.293 1830.27,986.005 1826.7,1003.72 1822.68,1019.53 1822.2,1021.43 1816.82,1039.14 1810.45,1056.86 1803.02,1074.57 1800.71,1079.45 
  1794.59,1092.28 1785.04,1109.99 1778.74,1120.46 1774.3,1127.71 1762.33,1145.42 1756.76,1152.93 1749.01,1163.13 1734.79,1180.17 1734.22,1180.84 1717.82,1198.56 
  1712.82,1203.57 
  "/>
<polyline clip-path="url(#clip672)" style="stroke:#a12b61; stroke-linecap:butt; stroke-linejoin:round; stroke-width:4; stroke-opacity:1; fill:none" points="
  1690.85,1174.45 1684.72,1180.84 1668.88,1196.11 1666.21,1198.56 1646.91,1215.07 1645.42,1216.27 1624.94,1231.83 1621.9,1233.98 1602.97,1246.75 1595.04,1251.69 
  1581,1260.09 1563.98,1269.4 1559.02,1272.02 1537.05,1282.68 1526.93,1287.12 1515.08,1292.18 1493.11,1300.61 1480.71,1304.83 1471.14,1308.04 1449.17,1314.52 
  1427.2,1320.1 1415.87,1322.54 1405.23,1324.83 1383.26,1328.73 1361.28,1331.83 1339.31,1334.12 1317.34,1335.65 1295.37,1336.41 1273.4,1336.41 1251.43,1335.65 
  1229.46,1334.12 1207.49,1331.83 1185.52,1328.73 1163.54,1324.83 1152.9,1322.54 1141.57,1320.1 1119.6,1314.52 1097.63,1308.04 1088.06,1304.83 1075.66,1300.61 
  1053.69,1292.18 1041.84,1287.12 1031.72,1282.68 1009.75,1272.02 1004.79,1269.4 987.776,1260.09 973.73,1251.69 965.805,1246.75 946.869,1233.98 943.834,1231.83 
  923.352,1216.27 921.863,1215.07 902.563,1198.56 899.892,1196.11 884.055,1180.84 877.92,1174.45 867.509,1163.13 855.949,1149.41 852.702,1145.42 839.486,1127.71 
  833.978,1119.54 827.698,1109.99 817.247,1092.28 812.007,1082.28 808.031,1074.57 799.983,1056.86 793.067,1039.14 790.036,1030.01 787.202,1021.43 782.356,1003.72 
  778.521,986.005 775.669,968.293 773.779,950.58 772.837,932.868 772.837,915.155 773.779,897.443 775.669,879.731 778.521,862.018 782.356,844.306 787.202,826.593 
  790.036,818.013 793.067,808.881 799.983,791.168 808.031,773.456 812.007,765.742 817.247,755.743 827.698,738.031 833.978,728.479 839.486,720.318 852.702,702.606 
  855.949,698.612 867.509,684.893 877.92,673.57 884.055,667.181 899.892,651.915 902.563,649.468 921.863,632.957 923.352,631.756 943.834,616.197 946.869,614.043 
  965.805,601.276 973.73,596.331 987.776,587.938 1004.79,578.618 1009.75,576.001 1031.72,565.346 1041.84,560.906 1053.69,555.843 1075.66,547.417 1088.06,543.193 
  1097.63,539.988 1119.6,533.5 1141.57,527.924 1152.9,525.481 1163.54,523.197 1185.52,519.29 1207.49,516.198 1229.46,513.899 1251.43,512.375 1273.4,511.616 
  1295.37,511.616 1317.34,512.375 1339.31,513.899 1361.28,516.198 1383.26,519.29 1405.23,523.197 1415.87,525.481 1427.2,527.924 1449.17,533.5 1471.14,539.988 
  1480.71,543.193 1493.11,547.417 1515.08,555.843 1526.93,560.906 1537.05,565.346 1559.02,576.001 1563.98,578.618 1581,587.938 1595.04,596.331 1602.97,601.276 
  1621.9,614.043 1624.94,616.197 1645.42,631.756 1646.91,632.957 1666.21,649.468 1668.88,651.915 1684.72,667.181 1690.85,673.57 1701.26,684.893 1712.82,698.612 
  1716.07,702.606 1729.29,720.318 1734.79,728.479 1741.07,738.031 1751.53,755.743 1756.76,765.742 1760.74,773.456 1768.79,791.168 1775.71,808.881 1778.74,818.013 
  1781.57,826.593 1786.42,844.306 1790.25,862.018 1793.1,879.731 1794.99,897.443 1795.93,915.155 1795.93,932.868 1794.99,950.58 1793.1,968.293 1790.25,986.005 
  1786.42,1003.72 1781.57,1021.43 1778.74,1030.01 1775.71,1039.14 1768.79,1056.86 1760.74,1074.57 1756.76,1082.28 1751.53,1092.28 1741.07,1109.99 1734.79,1119.54 
  1729.29,1127.71 1716.07,1145.42 1712.82,1149.41 1701.26,1163.13 1690.85,1174.45 
  "/>
<polyline clip-path="url(#clip672)" style="stroke:#ba3655; stroke-linecap:butt; stroke-linejoin:round; stroke-width:4; stroke-opacity:1; fill:none" points="
  1668.88,1146.04 1652.74,1163.13 1646.91,1168.82 1633.89,1180.84 1624.94,1188.53 1612.51,1198.56 1602.97,1205.77 1588.06,1216.27 1581,1220.97 1559.8,1233.98 
  1559.02,1234.43 1537.05,1246.31 1526.04,1251.69 1515.08,1256.85 1493.11,1266.15 1484.5,1269.4 1471.14,1274.31 1449.17,1281.41 1428.62,1287.12 1427.2,1287.51 
  1405.23,1292.65 1383.26,1296.88 1361.28,1300.23 1339.31,1302.72 1317.34,1304.38 1305.27,1304.83 1295.37,1305.2 1273.4,1305.2 1263.5,1304.83 1251.43,1304.38 
  1229.46,1302.72 1207.49,1300.23 1185.52,1296.88 1163.54,1292.65 1141.57,1287.51 1140.15,1287.12 1119.6,1281.41 1097.63,1274.31 1084.27,1269.4 1075.66,1266.15 
  1053.69,1256.85 1042.73,1251.69 1031.72,1246.31 1009.75,1234.43 1008.97,1233.98 987.776,1220.97 980.714,1216.27 965.805,1205.77 956.263,1198.56 943.834,1188.53 
  934.878,1180.84 921.863,1168.82 916.027,1163.13 899.892,1146.04 899.331,1145.42 884.597,1127.71 877.92,1118.83 871.518,1109.99 859.981,1092.28 855.949,1085.34 
  849.86,1074.57 841.062,1056.86 833.978,1040.29 833.496,1039.14 827.115,1021.43 821.866,1003.72 817.71,986.005 814.618,968.293 812.569,950.58 812.007,940.848 
  811.546,932.868 811.546,915.155 812.007,907.175 812.569,897.443 814.618,879.731 817.71,862.018 821.866,844.306 827.115,826.593 833.496,808.881 833.978,807.733 
  841.062,791.168 849.86,773.456 855.949,762.685 859.981,755.743 871.518,738.031 877.92,729.198 884.597,720.318 899.331,702.606 899.892,701.983 916.027,684.893 
  921.863,679.2 934.878,667.181 943.834,659.489 956.263,649.468 965.805,642.249 980.714,631.756 987.776,627.051 1008.97,614.043 1009.75,613.591 1031.72,601.714 
  1042.73,596.331 1053.69,591.17 1075.66,581.869 1084.27,578.618 1097.63,573.71 1119.6,566.617 1140.15,560.906 1141.57,560.517 1163.54,555.373 1185.52,551.141 
  1207.49,547.791 1229.46,545.299 1251.43,543.646 1263.5,543.193 1273.4,542.822 1295.37,542.822 1305.27,543.193 1317.34,543.646 1339.31,545.299 1361.28,547.791 
  1383.26,551.141 1405.23,555.373 1427.2,560.517 1428.62,560.906 1449.17,566.617 1471.14,573.71 1484.5,578.618 1493.11,581.869 1515.08,591.17 1526.04,596.331 
  1537.05,601.714 1559.02,613.591 1559.8,614.043 1581,627.051 1588.06,631.756 1602.97,642.249 1612.51,649.468 1624.94,659.489 1633.89,667.181 1646.91,679.2 
  1652.74,684.893 1668.88,701.983 1669.44,702.606 1684.17,720.318 1690.85,729.198 1697.25,738.031 1708.79,755.743 1712.82,762.685 1718.91,773.456 1727.71,791.168 
  1734.79,807.733 1735.28,808.881 1741.66,826.593 1746.91,844.306 1751.06,862.018 1754.15,879.731 1756.2,897.443 1756.76,907.175 1757.23,915.155 1757.23,932.868 
  1756.76,940.848 1756.2,950.58 1754.15,968.293 1751.06,986.005 1746.91,1003.72 1741.66,1021.43 1735.28,1039.14 1734.79,1040.29 1727.71,1056.86 1718.91,1074.57 
  1712.82,1085.34 1708.79,1092.28 1697.25,1109.99 1690.85,1118.83 1684.17,1127.71 1669.44,1145.42 1668.88,1146.04 
  "/>
<polyline clip-path="url(#clip672)" style="stroke:#d04544; stroke-linecap:butt; stroke-linejoin:round; stroke-width:4; stroke-opacity:1; fill:none" points="
  1646.91,1116.99 1637.82,1127.71 1624.94,1141.49 1621.06,1145.42 1602.97,1162.21 1601.91,1163.13 1581,1179.99 1579.85,1180.84 1559.02,1195.43 1554.16,1198.56 
  1537.05,1208.94 1523.76,1216.27 1515.08,1220.83 1493.11,1231.23 1486.6,1233.98 1471.14,1240.28 1449.17,1248.12 1437.64,1251.69 1427.2,1254.84 1405.23,1260.47 
  1383.26,1265.11 1361.28,1268.78 1356.27,1269.4 1339.31,1271.5 1317.34,1273.29 1295.37,1274.19 1273.4,1274.19 1251.43,1273.29 1229.46,1271.5 1212.5,1269.4 
  1207.49,1268.78 1185.52,1265.11 1163.54,1260.47 1141.57,1254.84 1131.13,1251.69 1119.6,1248.12 1097.63,1240.28 1082.17,1233.98 1075.66,1231.23 1053.69,1220.83 
  1045.01,1216.27 1031.72,1208.94 1014.61,1198.56 1009.75,1195.43 988.919,1180.84 987.776,1179.99 966.865,1163.13 965.805,1162.21 947.714,1145.42 943.834,1141.49 
  930.948,1127.71 921.863,1116.99 916.207,1109.99 903.307,1092.28 899.892,1087.03 892.083,1074.57 882.347,1056.86 877.92,1047.56 874.02,1039.14 867.032,1021.43 
  861.281,1003.72 856.726,986.005 855.949,981.966 853.356,968.293 851.126,950.58 850.014,932.868 850.014,915.155 851.126,897.443 853.356,879.731 855.949,866.058 
  856.726,862.018 861.281,844.306 867.032,826.593 874.02,808.881 877.92,800.46 882.347,791.168 892.083,773.456 899.892,760.992 903.307,755.743 916.207,738.031 
  921.863,731.032 930.948,720.318 943.834,706.529 947.714,702.606 965.805,685.815 966.865,684.893 987.776,668.036 988.919,667.181 1009.75,652.596 1014.61,649.468 
  1031.72,639.08 1045.01,631.756 1053.69,627.196 1075.66,616.797 1082.17,614.043 1097.63,607.748 1119.6,599.9 1131.13,596.331 1141.57,593.186 1163.54,587.553 
  1185.52,582.917 1207.49,579.245 1212.5,578.618 1229.46,576.528 1251.43,574.73 1273.4,573.834 1295.37,573.834 1317.34,574.73 1339.31,576.528 1356.27,578.618 
  1361.28,579.245 1383.26,582.917 1405.23,587.553 1427.2,593.186 1437.64,596.331 1449.17,599.9 1471.14,607.748 1486.6,614.043 1493.11,616.797 1515.08,627.196 
  1523.76,631.756 1537.05,639.08 1554.16,649.468 1559.02,652.596 1579.85,667.181 1581,668.036 1601.91,684.893 1602.97,685.815 1621.06,702.606 1624.94,706.529 
  1637.82,720.318 1646.91,731.032 1652.56,738.031 1665.46,755.743 1668.88,760.992 1676.69,773.456 1686.42,791.168 1690.85,800.46 1694.75,808.881 1701.74,826.593 
  1707.49,844.306 1712.05,862.018 1712.82,866.058 1715.42,879.731 1717.65,897.443 1718.76,915.155 1718.76,932.868 1717.65,950.58 1715.42,968.293 1712.82,981.966 
  1712.05,986.005 1707.49,1003.72 1701.74,1021.43 1694.75,1039.14 1690.85,1047.56 1686.42,1056.86 1676.69,1074.57 1668.88,1087.03 1665.46,1092.28 1652.56,1109.99 
  1646.91,1116.99 
  "/>
<polyline clip-path="url(#clip672)" style="stroke:#e35832; stroke-linecap:butt; stroke-linejoin:round; stroke-width:4; stroke-opacity:1; fill:none" points="
  1624.94,1086.23 1620.46,1092.28 1605.8,1109.99 1602.97,1113.09 1588.77,1127.71 1581,1135 1569.08,1145.42 1559.02,1153.52 1546.1,1163.13 1537.05,1169.4 
  1518.92,1180.84 1515.08,1183.12 1493.11,1194.95 1485.6,1198.56 1471.14,1205.16 1449.17,1213.98 1442.63,1216.27 1427.2,1221.45 1405.23,1227.7 1383.26,1232.86 
  1377.26,1233.98 1361.28,1236.89 1339.31,1239.87 1317.34,1241.84 1295.37,1242.83 1273.4,1242.83 1251.43,1241.84 1229.46,1239.87 1207.49,1236.89 1191.52,1233.98 
  1185.52,1232.86 1163.54,1227.7 1141.57,1221.45 1126.15,1216.27 1119.6,1213.98 1097.63,1205.16 1083.17,1198.56 1075.66,1194.95 1053.69,1183.12 1049.85,1180.84 
  1031.72,1169.4 1022.67,1163.13 1009.75,1153.52 999.691,1145.42 987.776,1135 980.002,1127.71 965.805,1113.09 962.975,1109.99 948.309,1092.28 943.834,1086.23 
  935.636,1074.57 924.697,1056.86 921.863,1051.58 915.44,1039.14 907.676,1021.43 901.283,1003.72 899.892,998.88 896.287,986.005 892.589,968.293 890.136,950.58 
  888.914,932.868 888.914,915.155 890.136,897.443 892.589,879.731 896.287,862.018 899.892,849.143 901.283,844.306 907.676,826.593 915.44,808.881 921.863,796.443 
  924.697,791.168 935.636,773.456 943.834,761.797 948.309,755.743 962.975,738.031 965.805,734.934 980.002,720.318 987.776,713.023 999.691,702.606 1009.75,694.499 
  1022.67,684.893 1031.72,678.626 1049.85,667.181 1053.69,664.9 1075.66,653.076 1083.17,649.468 1097.63,642.86 1119.6,634.041 1126.15,631.756 1141.57,626.578 
  1163.54,620.319 1185.52,615.165 1191.52,614.043 1207.49,611.138 1229.46,608.156 1251.43,606.179 1273.4,605.194 1295.37,605.194 1317.34,606.179 1339.31,608.156 
  1361.28,611.138 1377.26,614.043 1383.26,615.165 1405.23,620.319 1427.2,626.578 1442.63,631.756 1449.17,634.041 1471.14,642.86 1485.6,649.468 1493.11,653.076 
  1515.08,664.9 1518.92,667.181 1537.05,678.626 1546.1,684.893 1559.02,694.499 1569.08,702.606 1581,713.023 1588.77,720.318 1602.97,734.934 1605.8,738.031 
  1620.46,755.743 1624.94,761.797 1633.14,773.456 1644.07,791.168 1646.91,796.443 1653.33,808.881 1661.1,826.593 1667.49,844.306 1668.88,849.143 1672.48,862.018 
  1676.18,879.731 1678.64,897.443 1679.86,915.155 1679.86,932.868 1678.64,950.58 1676.18,968.293 1672.48,986.005 1668.88,998.88 1667.49,1003.72 1661.1,1021.43 
  1653.33,1039.14 1646.91,1051.58 1644.07,1056.86 1633.14,1074.57 1624.94,1086.23 
  "/>
<polyline clip-path="url(#clip672)" style="stroke:#f0701e; stroke-linecap:butt; stroke-linejoin:round; stroke-width:4; stroke-opacity:1; fill:none" points="
  1602.97,1051.28 1599.54,1056.86 1587,1074.57 1581,1082.06 1572.26,1092.28 1559.02,1106.1 1555.01,1109.99 1537.05,1125.77 1534.65,1127.71 1515.08,1142.18 
  1510.26,1145.42 1493.11,1156.08 1480.43,1163.13 1471.14,1167.97 1449.17,1178.08 1442.25,1180.84 1427.2,1186.56 1405.23,1193.64 1386.72,1198.56 1383.26,1199.44 
  1361.28,1203.92 1339.31,1207.25 1317.34,1209.46 1295.37,1210.56 1273.4,1210.56 1251.43,1209.46 1229.46,1207.25 1207.49,1203.92 1185.52,1199.44 1182.05,1198.56 
  1163.54,1193.64 1141.57,1186.56 1126.52,1180.84 1119.6,1178.08 1097.63,1167.97 1088.34,1163.13 1075.66,1156.08 1058.51,1145.42 1053.69,1142.18 1034.12,1127.71 
  1031.72,1125.77 1013.76,1109.99 1009.75,1106.1 996.515,1092.28 987.776,1082.06 981.77,1074.57 969.236,1056.86 965.805,1051.28 958.718,1039.14 949.935,1021.43 
  943.834,1006.51 942.737,1003.72 937.183,986.005 933.048,968.293 930.307,950.58 928.94,932.868 928.94,915.155 930.307,897.443 933.048,879.731 937.183,862.018 
  942.737,844.306 943.834,841.51 949.935,826.593 958.718,808.881 965.805,796.743 969.236,791.168 981.77,773.456 987.776,765.964 996.515,755.743 1009.75,741.92 
  1013.76,738.031 1031.72,722.253 1034.12,720.318 1053.69,705.84 1058.51,702.606 1075.66,691.939 1088.34,684.893 1097.63,680.051 1119.6,669.947 1126.52,667.181 
  1141.57,661.468 1163.54,654.387 1182.05,649.468 1185.52,648.584 1207.49,644.106 1229.46,640.773 1251.43,638.563 1273.4,637.462 1295.37,637.462 1317.34,638.563 
  1339.31,640.773 1361.28,644.106 1383.26,648.584 1386.72,649.468 1405.23,654.387 1427.2,661.468 1442.25,667.181 1449.17,669.947 1471.14,680.051 1480.43,684.893 
  1493.11,691.939 1510.26,702.606 1515.08,705.84 1534.65,720.318 1537.05,722.253 1555.01,738.031 1559.02,741.92 1572.26,755.743 1581,765.964 1587,773.456 
  1599.54,791.168 1602.97,796.743 1610.05,808.881 1618.84,826.593 1624.94,841.51 1626.03,844.306 1631.59,862.018 1635.72,879.731 1638.47,897.443 1639.83,915.155 
  1639.83,932.868 1638.47,950.58 1635.72,968.293 1631.59,986.005 1626.03,1003.72 1624.94,1006.51 1618.84,1021.43 1610.05,1039.14 1602.97,1051.28 
  "/>
<polyline clip-path="url(#clip672)" style="stroke:#f98c09; stroke-linecap:butt; stroke-linejoin:round; stroke-width:4; stroke-opacity:1; fill:none" points="
  1581,1005.94 1573.67,1021.43 1563.51,1039.14 1559.02,1045.81 1551.08,1056.86 1537.05,1073.74 1536.31,1074.57 1518.36,1092.28 1515.08,1095.18 1496.71,1109.99 
  1493.11,1112.63 1471.14,1127.11 1470.12,1127.71 1449.17,1139.01 1435.47,1145.42 1427.2,1149.03 1405.23,1157.22 1386.01,1163.13 1383.26,1163.93 1361.28,1169.04 
  1339.31,1172.84 1317.34,1175.36 1295.37,1176.62 1273.4,1176.62 1251.43,1175.36 1229.46,1172.84 1207.49,1169.04 1185.52,1163.93 1182.76,1163.13 1163.54,1157.22 
  1141.57,1149.03 1133.3,1145.42 1119.6,1139.01 1098.66,1127.71 1097.63,1127.11 1075.66,1112.63 1072.06,1109.99 1053.69,1095.18 1050.41,1092.28 1032.46,1074.57 
  1031.72,1073.74 1017.69,1056.86 1009.75,1045.81 1005.26,1039.14 995.104,1021.43 987.776,1005.94 986.782,1003.72 980.447,986.005 975.73,968.293 972.602,950.58 
  971.043,932.868 971.043,915.155 972.602,897.443 975.73,879.731 980.447,862.018 986.782,844.306 987.776,842.084 995.104,826.593 1005.26,808.881 1009.75,802.21 
  1017.69,791.168 1031.72,774.281 1032.46,773.456 1050.41,755.743 1053.69,752.841 1072.06,738.031 1075.66,735.389 1097.63,720.917 1098.66,720.318 1119.6,709.013 
  1133.3,702.606 1141.57,698.991 1163.54,690.801 1182.76,684.893 1185.52,684.092 1207.49,678.985 1229.46,675.182 1251.43,672.661 1273.4,671.404 1295.37,671.404 
  1317.34,672.661 1339.31,675.182 1361.28,678.985 1383.26,684.092 1386.01,684.893 1405.23,690.801 1427.2,698.991 1435.47,702.606 1449.17,709.013 1470.12,720.318 
  1471.14,720.917 1493.11,735.389 1496.71,738.031 1515.08,752.841 1518.36,755.743 1536.31,773.456 1537.05,774.281 1551.08,791.168 1559.02,802.21 1563.51,808.881 
  1573.67,826.593 1581,842.084 1581.99,844.306 1588.33,862.018 1593.04,879.731 1596.17,897.443 1597.73,915.155 1597.73,932.868 1596.17,950.58 1593.04,968.293 
  1588.33,986.005 1581.99,1003.72 1581,1005.94 
  "/>
<polyline clip-path="url(#clip672)" style="stroke:#fbaa0e; stroke-linecap:butt; stroke-linejoin:round; stroke-width:4; stroke-opacity:1; fill:none" points="
  1541.04,986.005 1537.05,995.577 1533.41,1003.72 1523.45,1021.43 1515.08,1033.73 1511.07,1039.14 1495.68,1056.86 1493.11,1059.44 1476.44,1074.57 1471.14,1078.84 
  1452.37,1092.28 1449.17,1094.35 1427.2,1106.76 1420.48,1109.99 1405.23,1116.73 1383.26,1124.77 1373.16,1127.71 1361.28,1130.92 1339.31,1135.37 1317.34,1138.32 
  1295.37,1139.79 1273.4,1139.79 1251.43,1138.32 1229.46,1135.37 1207.49,1130.92 1195.61,1127.71 1185.52,1124.77 1163.54,1116.73 1148.29,1109.99 1141.57,1106.76 
  1119.6,1094.35 1116.4,1092.28 1097.63,1078.84 1092.33,1074.57 1075.66,1059.44 1073.09,1056.86 1057.7,1039.14 1053.69,1033.73 1045.33,1021.43 1035.36,1003.72 
  1031.72,995.577 1027.73,986.005 1022.21,968.293 1018.55,950.58 1016.72,932.868 1016.72,915.155 1018.55,897.443 1022.21,879.731 1027.73,862.018 1031.72,852.446 
  1035.36,844.306 1045.33,826.593 1053.69,814.296 1057.7,808.881 1073.09,791.168 1075.66,788.587 1092.33,773.456 1097.63,769.179 1116.4,755.743 1119.6,753.674 
  1141.57,741.267 1148.29,738.031 1163.54,731.289 1185.52,723.257 1195.61,720.318 1207.49,717.101 1229.46,712.651 1251.43,709.7 1273.4,708.23 1295.37,708.23 
  1317.34,709.7 1339.31,712.651 1361.28,717.101 1373.16,720.318 1383.26,723.257 1405.23,731.289 1420.48,738.031 1427.2,741.267 1449.17,753.674 1452.37,755.743 
  1471.14,769.179 1476.44,773.456 1493.11,788.587 1495.68,791.168 1511.07,808.881 1515.08,814.296 1523.45,826.593 1533.41,844.306 1537.05,852.446 1541.04,862.018 
  1546.56,879.731 1550.22,897.443 1552.05,915.155 1552.05,932.868 1550.22,950.58 1546.56,968.293 1541.04,986.005 
  "/>
<polyline clip-path="url(#clip672)" style="stroke:#f8c931; stroke-linecap:butt; stroke-linejoin:round; stroke-width:4; stroke-opacity:1; fill:none" points="
  1497.93,950.58 1493.5,968.293 1493.11,969.325 1486.26,986.005 1476.49,1003.72 1471.14,1011.44 1463.42,1021.43 1449.17,1036.72 1446.59,1039.14 1427.2,1054.78 
  1424.19,1056.86 1405.23,1068.34 1392.84,1074.57 1383.26,1078.88 1361.28,1086.75 1340.59,1092.28 1339.31,1092.59 1317.34,1096.16 1295.37,1097.94 1273.4,1097.94 
  1251.43,1096.16 1229.46,1092.59 1228.18,1092.28 1207.49,1086.75 1185.52,1078.88 1175.93,1074.57 1163.54,1068.34 1144.58,1056.86 1141.57,1054.78 1122.18,1039.14 
  1119.6,1036.72 1105.35,1021.43 1097.63,1011.44 1092.29,1003.72 1082.52,986.005 1075.66,969.325 1075.27,968.293 1070.84,950.58 1068.64,932.868 1068.64,915.155 
  1070.84,897.443 1075.27,879.731 1075.66,878.698 1082.52,862.018 1092.29,844.306 1097.63,836.581 1105.35,826.593 1119.6,811.305 1122.18,808.881 1141.57,793.244 
  1144.58,791.168 1163.54,779.679 1175.93,773.456 1185.52,769.146 1207.49,761.269 1228.18,755.743 1229.46,755.431 1251.43,751.861 1273.4,750.081 1295.37,750.081 
  1317.34,751.861 1339.31,755.431 1340.59,755.743 1361.28,761.269 1383.26,769.146 1392.84,773.456 1405.23,779.679 1424.19,791.168 1427.2,793.244 1446.59,808.881 
  1449.17,811.305 1463.42,826.593 1471.14,836.581 1476.49,844.306 1486.26,862.018 1493.11,878.698 1493.5,879.731 1497.93,897.443 1500.13,915.155 1500.13,932.868 
  1497.93,950.58 
  "/>
<polyline clip-path="url(#clip672)" style="stroke:#f1e864; stroke-linecap:butt; stroke-linejoin:round; stroke-width:4; stroke-opacity:1; fill:none" points="
  1431.94,897.443 1435.09,915.155 1435.09,932.868 1431.94,950.58 1427.2,963.895 1425.39,968.293 1414.42,986.005 1405.23,997.104 1398.67,1003.72 1383.26,1016.14 
  1375.05,1021.43 1361.28,1028.84 1339.31,1037.68 1333.86,1039.14 1317.34,1042.97 1295.37,1045.5 1273.4,1045.5 1251.43,1042.97 1234.91,1039.14 1229.46,1037.68 
  1207.49,1028.84 1193.72,1021.43 1185.52,1016.14 1170.1,1003.72 1163.54,997.104 1154.35,986.005 1143.38,968.293 1141.57,963.895 1136.83,950.58 1133.68,932.868 
  1133.68,915.155 1136.83,897.443 1141.57,884.128 1143.38,879.731 1154.35,862.018 1163.54,850.919 1170.1,844.306 1185.52,831.879 1193.72,826.593 1207.49,819.179 
  1229.46,810.341 1234.91,808.881 1251.43,805.057 1273.4,802.519 1295.37,802.519 1317.34,805.057 1333.86,808.881 1339.31,810.341 1361.28,819.179 1375.05,826.593 
  1383.26,831.879 1398.67,844.306 1405.23,850.919 1414.42,862.018 1425.39,879.731 1427.2,884.128 1431.94,897.443 
  "/>
<defs>
  <clipPath id="clip673">
    <rect x="2425" y="47" width="82" height="1755"/>
  </clipPath>
</defs>
<polyline clip-path="url(#clip673)" style="stroke:#0a0723; stroke-linecap:butt; stroke-linejoin:round; stroke-width:4; stroke-opacity:1; fill:none" points="
  2425.72,1691.18 2506.36,1691.18 
  "/>
<polyline clip-path="url(#clip673)" style="stroke:#200c4a; stroke-linecap:butt; stroke-linejoin:round; stroke-width:4; stroke-opacity:1; fill:none" points="
  2425.72,1581.59 2506.36,1581.59 
  "/>
<polyline clip-path="url(#clip673)" style="stroke:#3c0965; stroke-linecap:butt; stroke-linejoin:round; stroke-width:4; stroke-opacity:1; fill:none" points="
  2425.72,1471.99 2506.36,1471.99 
  "/>
<polyline clip-path="url(#clip673)" style="stroke:#570f6d; stroke-linecap:butt; stroke-linejoin:round; stroke-width:4; stroke-opacity:1; fill:none" points="
  2425.72,1362.4 2506.36,1362.4 
  "/>
<polyline clip-path="url(#clip673)" style="stroke:#70196e; stroke-linecap:butt; stroke-linejoin:round; stroke-width:4; stroke-opacity:1; fill:none" points="
  2425.72,1252.8 2506.36,1252.8 
  "/>
<polyline clip-path="url(#clip673)" style="stroke:#892269; stroke-linecap:butt; stroke-linejoin:round; stroke-width:4; stroke-opacity:1; fill:none" points="
  2425.72,1143.2 2506.36,1143.2 
  "/>
<polyline clip-path="url(#clip673)" style="stroke:#a32b61; stroke-linecap:butt; stroke-linejoin:round; stroke-width:4; stroke-opacity:1; fill:none" points="
  2425.72,1033.61 2506.36,1033.61 
  "/>
<polyline clip-path="url(#clip673)" style="stroke:#bb3754; stroke-linecap:butt; stroke-linejoin:round; stroke-width:4; stroke-opacity:1; fill:none" points="
  2425.72,924.012 2506.36,924.012 
  "/>
<polyline clip-path="url(#clip673)" style="stroke:#d04544; stroke-linecap:butt; stroke-linejoin:round; stroke-width:4; stroke-opacity:1; fill:none" points="
  2425.72,814.416 2506.36,814.416 
  "/>
<polyline clip-path="url(#clip673)" style="stroke:#e35832; stroke-linecap:butt; stroke-linejoin:round; stroke-width:4; stroke-opacity:1; fill:none" points="
  2425.72,704.82 2506.36,704.82 
  "/>
<polyline clip-path="url(#clip673)" style="stroke:#f0701e; stroke-linecap:butt; stroke-linejoin:round; stroke-width:4; stroke-opacity:1; fill:none" points="
  2425.72,595.224 2506.36,595.224 
  "/>
<polyline clip-path="url(#clip673)" style="stroke:#f98c09; stroke-linecap:butt; stroke-linejoin:round; stroke-width:4; stroke-opacity:1; fill:none" points="
  2425.72,485.628 2506.36,485.628 
  "/>
<polyline clip-path="url(#clip673)" style="stroke:#fbaa0e; stroke-linecap:butt; stroke-linejoin:round; stroke-width:4; stroke-opacity:1; fill:none" points="
  2425.72,376.032 2506.36,376.032 
  "/>
<polyline clip-path="url(#clip673)" style="stroke:#f8c931; stroke-linecap:butt; stroke-linejoin:round; stroke-width:4; stroke-opacity:1; fill:none" points="
  2425.72,266.436 2506.36,266.436 
  "/>
<polyline clip-path="url(#clip673)" style="stroke:#f1e864; stroke-linecap:butt; stroke-linejoin:round; stroke-width:4; stroke-opacity:1; fill:none" points="
  2425.72,156.84 2506.36,156.84 
  "/>
<path clip-path="url(#clip670)" d="M2558.62 1469.79 Q2555.01 1469.79 2553.18 1473.36 Q2551.37 1476.9 2551.37 1484.03 Q2551.37 1491.14 2553.18 1494.7 Q2555.01 1498.24 2558.62 1498.24 Q2562.25 1498.24 2564.06 1494.7 Q2565.89 1491.14 2565.89 1484.03 Q2565.89 1476.9 2564.06 1473.36 Q2562.25 1469.79 2558.62 1469.79 M2558.62 1466.09 Q2564.43 1466.09 2567.49 1470.7 Q2570.56 1475.28 2570.56 1484.03 Q2570.56 1492.76 2567.49 1497.36 Q2564.43 1501.95 2558.62 1501.95 Q2552.81 1501.95 2549.73 1497.36 Q2546.68 1492.76 2546.68 1484.03 Q2546.68 1475.28 2549.73 1470.7 Q2552.81 1466.09 2558.62 1466.09 Z" fill="#000000" fill-rule="evenodd" fill-opacity="1" /><path clip-path="url(#clip670)" d="M2558.62 1109.4 Q2555.01 1109.4 2553.18 1112.96 Q2551.37 1116.51 2551.37 1123.64 Q2551.37 1130.74 2553.18 1134.31 Q2555.01 1137.85 2558.62 1137.85 Q2562.25 1137.85 2564.06 1134.31 Q2565.89 1130.74 2565.89 1123.64 Q2565.89 1116.51 2564.06 1112.96 Q2562.25 1109.4 2558.62 1109.4 M2558.62 1105.7 Q2564.43 1105.7 2567.49 1110.3 Q2570.56 1114.89 2570.56 1123.64 Q2570.56 1132.36 2567.49 1136.97 Q2564.43 1141.55 2558.62 1141.55 Q2552.81 1141.55 2549.73 1136.97 Q2546.68 1132.36 2546.68 1123.64 Q2546.68 1114.89 2549.73 1110.3 Q2552.81 1105.7 2558.62 1105.7 Z" fill="#000000" fill-rule="evenodd" fill-opacity="1" /><path clip-path="url(#clip670)" d="M2578.78 1135 L2583.67 1135 L2583.67 1140.88 L2578.78 1140.88 L2578.78 1135 Z" fill="#000000" fill-rule="evenodd" fill-opacity="1" /><path clip-path="url(#clip670)" d="M2597.88 1136.95 L2614.2 1136.95 L2614.2 1140.88 L2592.25 1140.88 L2592.25 1136.95 Q2594.92 1134.19 2599.5 1129.56 Q2604.11 1124.91 2605.29 1123.57 Q2607.53 1121.04 2608.41 1119.31 Q2609.31 1117.55 2609.31 1115.86 Q2609.31 1113.1 2607.37 1111.37 Q2605.45 1109.63 2602.35 1109.63 Q2600.15 1109.63 2597.69 1110.4 Q2595.26 1111.16 2592.49 1112.71 L2592.49 1107.99 Q2595.31 1106.85 2597.76 1106.27 Q2600.22 1105.7 2602.25 1105.7 Q2607.62 1105.7 2610.82 1108.38 Q2614.01 1111.07 2614.01 1115.56 Q2614.01 1117.69 2613.2 1119.61 Q2612.42 1121.51 2610.31 1124.1 Q2609.73 1124.77 2606.63 1127.99 Q2603.53 1131.18 2597.88 1136.95 Z" fill="#000000" fill-rule="evenodd" fill-opacity="1" /><path clip-path="url(#clip670)" d="M2624.06 1106.32 L2642.42 1106.32 L2642.42 1110.26 L2628.34 1110.26 L2628.34 1118.73 Q2629.36 1118.38 2630.38 1118.22 Q2631.4 1118.03 2632.42 1118.03 Q2638.2 1118.03 2641.58 1121.21 Q2644.96 1124.38 2644.96 1129.79 Q2644.96 1135.37 2641.49 1138.47 Q2638.02 1141.55 2631.7 1141.55 Q2629.52 1141.55 2627.25 1141.18 Q2625.01 1140.81 2622.6 1140.07 L2622.6 1135.37 Q2624.68 1136.51 2626.91 1137.06 Q2629.13 1137.62 2631.61 1137.62 Q2635.61 1137.62 2637.95 1135.51 Q2640.29 1133.4 2640.29 1129.79 Q2640.29 1126.18 2637.95 1124.08 Q2635.61 1121.97 2631.61 1121.97 Q2629.73 1121.97 2627.86 1122.39 Q2626 1122.8 2624.06 1123.68 L2624.06 1106.32 Z" fill="#000000" fill-rule="evenodd" fill-opacity="1" /><path clip-path="url(#clip670)" d="M2558.62 749.007 Q2555.01 749.007 2553.18 752.571 Q2551.37 756.113 2551.37 763.243 Q2551.37 770.349 2553.18 773.914 Q2555.01 777.456 2558.62 777.456 Q2562.25 777.456 2564.06 773.914 Q2565.89 770.349 2565.89 763.243 Q2565.89 756.113 2564.06 752.571 Q2562.25 749.007 2558.62 749.007 M2558.62 745.303 Q2564.43 745.303 2567.49 749.909 Q2570.56 754.493 2570.56 763.243 Q2570.56 771.969 2567.49 776.576 Q2564.43 781.159 2558.62 781.159 Q2552.81 781.159 2549.73 776.576 Q2546.68 771.969 2546.68 763.243 Q2546.68 754.493 2549.73 749.909 Q2552.81 745.303 2558.62 745.303 Z" fill="#000000" fill-rule="evenodd" fill-opacity="1" /><path clip-path="url(#clip670)" d="M2578.78 774.608 L2583.67 774.608 L2583.67 780.488 L2578.78 780.488 L2578.78 774.608 Z" fill="#000000" fill-rule="evenodd" fill-opacity="1" /><path clip-path="url(#clip670)" d="M2593.9 745.928 L2612.25 745.928 L2612.25 749.863 L2598.18 749.863 L2598.18 758.335 Q2599.2 757.988 2600.22 757.826 Q2601.24 757.641 2602.25 757.641 Q2608.04 757.641 2611.42 760.812 Q2614.8 763.983 2614.8 769.4 Q2614.8 774.979 2611.33 778.081 Q2607.86 781.159 2601.54 781.159 Q2599.36 781.159 2597.09 780.789 Q2594.85 780.418 2592.44 779.678 L2592.44 774.979 Q2594.52 776.113 2596.75 776.668 Q2598.97 777.224 2601.44 777.224 Q2605.45 777.224 2607.79 775.118 Q2610.12 773.011 2610.12 769.4 Q2610.12 765.789 2607.79 763.682 Q2605.45 761.576 2601.44 761.576 Q2599.57 761.576 2597.69 761.993 Q2595.84 762.409 2593.9 763.289 L2593.9 745.928 Z" fill="#000000" fill-rule="evenodd" fill-opacity="1" /><path clip-path="url(#clip670)" d="M2634.01 749.007 Q2630.4 749.007 2628.57 752.571 Q2626.77 756.113 2626.77 763.243 Q2626.77 770.349 2628.57 773.914 Q2630.4 777.456 2634.01 777.456 Q2637.65 777.456 2639.45 773.914 Q2641.28 770.349 2641.28 763.243 Q2641.28 756.113 2639.45 752.571 Q2637.65 749.007 2634.01 749.007 M2634.01 745.303 Q2639.82 745.303 2642.88 749.909 Q2645.96 754.493 2645.96 763.243 Q2645.96 771.969 2642.88 776.576 Q2639.82 781.159 2634.01 781.159 Q2628.2 781.159 2625.12 776.576 Q2622.07 771.969 2622.07 763.243 Q2622.07 754.493 2625.12 749.909 Q2628.2 745.303 2634.01 745.303 Z" fill="#000000" fill-rule="evenodd" fill-opacity="1" /><path clip-path="url(#clip670)" d="M2558.62 388.613 Q2555.01 388.613 2553.18 392.178 Q2551.37 395.72 2551.37 402.849 Q2551.37 409.956 2553.18 413.521 Q2555.01 417.062 2558.62 417.062 Q2562.25 417.062 2564.06 413.521 Q2565.89 409.956 2565.89 402.849 Q2565.89 395.72 2564.06 392.178 Q2562.25 388.613 2558.62 388.613 M2558.62 384.91 Q2564.43 384.91 2567.49 389.516 Q2570.56 394.1 2570.56 402.849 Q2570.56 411.576 2567.49 416.183 Q2564.43 420.766 2558.62 420.766 Q2552.81 420.766 2549.73 416.183 Q2546.68 411.576 2546.68 402.849 Q2546.68 394.1 2549.73 389.516 Q2552.81 384.91 2558.62 384.91 Z" fill="#000000" fill-rule="evenodd" fill-opacity="1" /><path clip-path="url(#clip670)" d="M2578.78 414.215 L2583.67 414.215 L2583.67 420.095 L2578.78 420.095 L2578.78 414.215 Z" fill="#000000" fill-rule="evenodd" fill-opacity="1" /><path clip-path="url(#clip670)" d="M2592.67 385.535 L2614.89 385.535 L2614.89 387.526 L2602.35 420.095 L2597.46 420.095 L2609.27 389.47 L2592.67 389.47 L2592.67 385.535 Z" fill="#000000" fill-rule="evenodd" fill-opacity="1" /><path clip-path="url(#clip670)" d="M2624.06 385.535 L2642.42 385.535 L2642.42 389.47 L2628.34 389.47 L2628.34 397.942 Q2629.36 397.595 2630.38 397.433 Q2631.4 397.248 2632.42 397.248 Q2638.2 397.248 2641.58 400.419 Q2644.96 403.59 2644.96 409.007 Q2644.96 414.586 2641.49 417.687 Q2638.02 420.766 2631.7 420.766 Q2629.52 420.766 2627.25 420.396 Q2625.01 420.025 2622.6 419.285 L2622.6 414.586 Q2624.68 415.72 2626.91 416.275 Q2629.13 416.831 2631.61 416.831 Q2635.61 416.831 2637.95 414.724 Q2640.29 412.618 2640.29 409.007 Q2640.29 405.396 2637.95 403.289 Q2635.61 401.183 2631.61 401.183 Q2629.73 401.183 2627.86 401.6 Q2626 402.016 2624.06 402.896 L2624.06 385.535 Z" fill="#000000" fill-rule="evenodd" fill-opacity="1" /><polyline clip-path="url(#clip670)" style="stroke:#000000; stroke-linecap:butt; stroke-linejoin:round; stroke-width:4; stroke-opacity:1; fill:none" points="
  2506.36,1800.78 2506.36,1487.62 2533.24,1487.62 2506.36,1487.62 2506.36,1127.23 2533.24,1127.23 2506.36,1127.23 2506.36,766.837 2533.24,766.837 2506.36,766.837 
  2506.36,406.444 2533.24,406.444 2506.36,406.444 2506.36,47.2441 
  "/>
</svg>
