<?xml version="1.0" encoding="utf-8"?>
<svg xmlns="http://www.w3.org/2000/svg" xmlns:xlink="http://www.w3.org/1999/xlink" width="672" height="480" viewBox="0 0 2688 1920">
<defs>
  <clipPath id="clip330">
    <rect x="0" y="0" width="2688" height="1920"/>
  </clipPath>
</defs>
<path clip-path="url(#clip330)" d="
M0 1920 L2688 1920 L2688 0 L0 0  Z
  " fill="#ffffff" fill-rule="evenodd" fill-opacity="1"/>
<defs>
  <clipPath id="clip331">
    <rect x="537" y="0" width="1883" height="1883"/>
  </clipPath>
</defs>
<path clip-path="url(#clip330)" d="
M196.816 1872.76 L2640.76 1872.76 L2640.76 47.2441 L196.816 47.2441  Z
  " fill="#ffffff" fill-rule="evenodd" fill-opacity="1"/>
<defs>
  <clipPath id="clip332">
    <rect x="196" y="47" width="2445" height="1827"/>
  </clipPath>
</defs>
<polyline clip-path="url(#clip332)" style="stroke:#008000; stroke-linecap:butt; stroke-linejoin:round; stroke-width:4; stroke-opacity:1; fill:none" points="
  265.984,98.9095 269.737,98.9208 273.489,98.9546 277.242,99.0108 280.995,99.0896 315.694,100.884 350.393,104.599 385.092,110.225 419.791,117.751 461.496,129.285 
  503.201,143.502 538.463,157.58 573.724,173.51 612.028,192.871 650.331,214.321 685.644,235.896 720.956,259.147 758.815,285.876 796.674,314.398 840.537,349.586 
  884.4,386.954 923.381,421.884 962.361,458.332 996.543,491.461 1030.73,525.606 1105.26,603.225 1180.24,685.014 1263.14,778.743 1342.01,870.087 1424.03,966.15 
  1493.06,1047 1577.35,1144.6 1654.56,1231.91 1725.87,1309.89 1798.11,1385.51 1838.59,1426.13 1879.07,1465.34 1915.75,1499.54 1952.43,1532.39 1994.42,1568.25 
  2036.42,1602.11 2075.3,1631.59 2114.19,1659.19 2152.52,1684.48 2190.86,1707.79 2228.08,1728.47 2265.3,1747.18 2303.45,1764.25 2341.61,1779.16 2383.41,1792.94 
  2425.22,1804.02 2455.58,1810.36 2485.94,1815.23 2516.31,1818.65 2546.67,1820.59 2552.9,1820.81 2559.13,1820.97 2565.36,1821.06 2571.59,1821.09 
  "/>
<polyline clip-path="url(#clip332)" style="stroke:#008000; stroke-linecap:butt; stroke-linejoin:round; stroke-width:4; stroke-opacity:1; fill:none" points="
  842.385,351.117 849.724,357.206 
  "/>
<polyline clip-path="url(#clip332)" style="stroke:#008000; stroke-linecap:butt; stroke-linejoin:round; stroke-width:4; stroke-opacity:1; fill:none" points="
  831.566,315.946 849.724,357.206 805.821,346.976 
  "/>
<polyline clip-path="url(#clip332)" style="stroke:#008000; stroke-linecap:butt; stroke-linejoin:round; stroke-width:4; stroke-opacity:1; fill:none" points="
  849.724,357.206 842.385,351.117 
  "/>
<polyline clip-path="url(#clip332)" style="stroke:#008000; stroke-linecap:butt; stroke-linejoin:round; stroke-width:4; stroke-opacity:1; fill:none" points="
  1995.19,1568.88 2002.53,1574.97 
  "/>
<polyline clip-path="url(#clip332)" style="stroke:#008000; stroke-linecap:butt; stroke-linejoin:round; stroke-width:4; stroke-opacity:1; fill:none" points="
  1984.37,1533.71 2002.53,1574.97 1958.62,1564.74 
  "/>
<polyline clip-path="url(#clip332)" style="stroke:#008000; stroke-linecap:butt; stroke-linejoin:round; stroke-width:4; stroke-opacity:1; fill:none" points="
  2002.53,1574.97 1995.19,1568.88 
  "/>
<polyline clip-path="url(#clip332)" style="stroke:#ff0000; stroke-linecap:butt; stroke-linejoin:round; stroke-width:4; stroke-opacity:1; fill:none" points="
  265.984,960 265.984,98.9095 
  "/>
<polyline clip-path="url(#clip332)" style="stroke:#ff0000; stroke-linecap:butt; stroke-linejoin:round; stroke-width:4; stroke-opacity:1; fill:none" points="
  245.824,139.23 265.984,98.9095 286.144,139.23 
  "/>
<polyline clip-path="url(#clip332)" style="stroke:#ff0000; stroke-linecap:butt; stroke-linejoin:round; stroke-width:4; stroke-opacity:1; fill:none" points="
  265.984,98.9095 265.984,960 
  "/>
<polyline clip-path="url(#clip332)" style="stroke:#0000ff; stroke-linecap:butt; stroke-linejoin:round; stroke-width:4; stroke-opacity:1; fill:none" points="
  2571.59,1821.09 2571.59,960 
  "/>
<polyline clip-path="url(#clip332)" style="stroke:#0000ff; stroke-linecap:butt; stroke-linejoin:round; stroke-width:4; stroke-opacity:1; fill:none" points="
  2551.43,1000.32 2571.59,960 2591.75,1000.32 
  "/>
<polyline clip-path="url(#clip332)" style="stroke:#0000ff; stroke-linecap:butt; stroke-linejoin:round; stroke-width:4; stroke-opacity:1; fill:none" points="
  2571.59,960 2571.59,1821.09 
  "/>
<polyline clip-path="url(#clip332)" style="stroke:#000000; stroke-linecap:butt; stroke-linejoin:round; stroke-width:4; stroke-opacity:1; fill:none" points="
  2571.59,960 265.984,960 
  "/>
<polyline clip-path="url(#clip332)" style="stroke:#000000; stroke-linecap:butt; stroke-linejoin:round; stroke-width:4; stroke-opacity:1; fill:none" points="
  306.304,980.16 265.984,960 306.304,939.84 
  "/>
<polyline clip-path="url(#clip332)" style="stroke:#000000; stroke-linecap:butt; stroke-linejoin:round; stroke-width:4; stroke-opacity:1; fill:none" points="
  265.984,960 2571.59,960 
  "/>
<path clip-path="url(#clip330)" d="M270.278 1053.54 Q261.245 1053.54 257.761 1055.61 Q254.277 1057.67 254.277 1062.66 Q254.277 1066.63 256.87 1068.98 Q259.503 1071.29 263.999 1071.29 Q270.197 1071.29 273.924 1066.91 Q277.691 1062.49 277.691 1055.2 L277.691 1053.54 L270.278 1053.54 M285.145 1050.46 L285.145 1076.35 L277.691 1076.35 L277.691 1069.46 Q275.139 1073.59 271.331 1075.58 Q267.523 1077.52 262.014 1077.52 Q255.047 1077.52 250.915 1073.63 Q246.823 1069.71 246.823 1063.14 Q246.823 1055.49 251.927 1051.6 Q257.072 1047.71 267.24 1047.71 L277.691 1047.71 L277.691 1046.98 Q277.691 1041.84 274.288 1039.04 Q270.926 1036.2 264.809 1036.2 Q260.92 1036.2 257.234 1037.14 Q253.548 1038.07 250.145 1039.93 L250.145 1033.04 Q254.236 1031.47 258.085 1030.7 Q261.933 1029.89 265.579 1029.89 Q275.423 1029.89 280.284 1034.99 Q285.145 1040.09 285.145 1050.46 Z" fill="#000000" fill-rule="evenodd" fill-opacity="1" /><path clip-path="url(#clip330)" d="M2584.15 881.486 Q2584.15 873.263 2580.74 868.605 Q2577.38 863.905 2571.47 863.905 Q2565.55 863.905 2562.15 868.605 Q2558.79 873.263 2558.79 881.486 Q2558.79 889.71 2562.15 894.409 Q2565.55 899.067 2571.47 899.067 Q2577.38 899.067 2580.74 894.409 Q2584.15 889.71 2584.15 881.486 M2558.79 865.647 Q2561.14 861.596 2564.7 859.652 Q2568.31 857.667 2573.29 857.667 Q2581.55 857.667 2586.7 864.23 Q2591.88 870.792 2591.88 881.486 Q2591.88 892.181 2586.7 898.743 Q2581.55 905.306 2573.29 905.306 Q2568.31 905.306 2564.7 903.361 Q2561.14 901.376 2558.79 897.325 L2558.79 904.131 L2551.29 904.131 L2551.29 841.099 L2558.79 841.099 L2558.79 865.647 Z" fill="#000000" fill-rule="evenodd" fill-opacity="1" /></svg>
