<?xml version="1.0" encoding="utf-8"?>
<svg xmlns="http://www.w3.org/2000/svg" xmlns:xlink="http://www.w3.org/1999/xlink" width="672" height="480" viewBox="0 0 2688 1920">
<defs>
  <clipPath id="clip210">
    <rect x="0" y="0" width="2688" height="1920"/>
  </clipPath>
</defs>
<path clip-path="url(#clip210)" d="
M0 1920 L2688 1920 L2688 0 L0 0  Z
  " fill="#ffffff" fill-rule="evenodd" fill-opacity="1"/>
<defs>
  <clipPath id="clip211">
    <rect x="537" y="0" width="1883" height="1883"/>
  </clipPath>
</defs>
<path clip-path="url(#clip210)" d="
M189.154 1800.78 L2640.76 1800.78 L2640.76 47.2441 L189.154 47.2441  Z
  " fill="#ffffff" fill-rule="evenodd" fill-opacity="1"/>
<defs>
  <clipPath id="clip212">
    <rect x="189" y="47" width="2453" height="1755"/>
  </clipPath>
</defs>
<polyline clip-path="url(#clip212)" style="stroke:#000000; stroke-linecap:butt; stroke-linejoin:round; stroke-width:2; stroke-opacity:0.1; fill:none" points="
  258.539,1800.78 258.539,47.2441 
  "/>
<polyline clip-path="url(#clip212)" style="stroke:#000000; stroke-linecap:butt; stroke-linejoin:round; stroke-width:2; stroke-opacity:0.1; fill:none" points="
  836.747,1800.78 836.747,47.2441 
  "/>
<polyline clip-path="url(#clip212)" style="stroke:#000000; stroke-linecap:butt; stroke-linejoin:round; stroke-width:2; stroke-opacity:0.1; fill:none" points="
  1414.95,1800.78 1414.95,47.2441 
  "/>
<polyline clip-path="url(#clip212)" style="stroke:#000000; stroke-linecap:butt; stroke-linejoin:round; stroke-width:2; stroke-opacity:0.1; fill:none" points="
  1993.16,1800.78 1993.16,47.2441 
  "/>
<polyline clip-path="url(#clip212)" style="stroke:#000000; stroke-linecap:butt; stroke-linejoin:round; stroke-width:2; stroke-opacity:0.1; fill:none" points="
  2571.37,1800.78 2571.37,47.2441 
  "/>
<polyline clip-path="url(#clip210)" style="stroke:#000000; stroke-linecap:butt; stroke-linejoin:round; stroke-width:4; stroke-opacity:1; fill:none" points="
  189.154,1800.78 2640.76,1800.78 
  "/>
<polyline clip-path="url(#clip210)" style="stroke:#000000; stroke-linecap:butt; stroke-linejoin:round; stroke-width:4; stroke-opacity:1; fill:none" points="
  258.539,1800.78 258.539,1781.88 
  "/>
<polyline clip-path="url(#clip210)" style="stroke:#000000; stroke-linecap:butt; stroke-linejoin:round; stroke-width:4; stroke-opacity:1; fill:none" points="
  836.747,1800.78 836.747,1781.88 
  "/>
<polyline clip-path="url(#clip210)" style="stroke:#000000; stroke-linecap:butt; stroke-linejoin:round; stroke-width:4; stroke-opacity:1; fill:none" points="
  1414.95,1800.78 1414.95,1781.88 
  "/>
<polyline clip-path="url(#clip210)" style="stroke:#000000; stroke-linecap:butt; stroke-linejoin:round; stroke-width:4; stroke-opacity:1; fill:none" points="
  1993.16,1800.78 1993.16,1781.88 
  "/>
<polyline clip-path="url(#clip210)" style="stroke:#000000; stroke-linecap:butt; stroke-linejoin:round; stroke-width:4; stroke-opacity:1; fill:none" points="
  2571.37,1800.78 2571.37,1781.88 
  "/>
<path clip-path="url(#clip210)" d="M205.067 1848.65 L234.743 1848.65 L234.743 1852.59 L205.067 1852.59 L205.067 1848.65 Z" fill="#000000" fill-rule="evenodd" fill-opacity="1" /><path clip-path="url(#clip210)" d="M245.646 1861.55 L253.284 1861.55 L253.284 1835.18 L244.974 1836.85 L244.974 1832.59 L253.238 1830.92 L257.914 1830.92 L257.914 1861.55 L265.553 1861.55 L265.553 1865.48 L245.646 1865.48 L245.646 1861.55 Z" fill="#000000" fill-rule="evenodd" fill-opacity="1" /><path clip-path="url(#clip210)" d="M274.997 1859.6 L279.881 1859.6 L279.881 1865.48 L274.997 1865.48 L274.997 1859.6 Z" fill="#000000" fill-rule="evenodd" fill-opacity="1" /><path clip-path="url(#clip210)" d="M300.067 1834 Q296.455 1834 294.627 1837.57 Q292.821 1841.11 292.821 1848.24 Q292.821 1855.34 294.627 1858.91 Q296.455 1862.45 300.067 1862.45 Q303.701 1862.45 305.506 1858.91 Q307.335 1855.34 307.335 1848.24 Q307.335 1841.11 305.506 1837.57 Q303.701 1834 300.067 1834 M300.067 1830.3 Q305.877 1830.3 308.932 1834.9 Q312.011 1839.49 312.011 1848.24 Q312.011 1856.96 308.932 1861.57 Q305.877 1866.15 300.067 1866.15 Q294.256 1866.15 291.178 1861.57 Q288.122 1856.96 288.122 1848.24 Q288.122 1839.49 291.178 1834.9 Q294.256 1830.3 300.067 1830.3 Z" fill="#000000" fill-rule="evenodd" fill-opacity="1" /><path clip-path="url(#clip210)" d="M783.773 1848.65 L813.448 1848.65 L813.448 1852.59 L783.773 1852.59 L783.773 1848.65 Z" fill="#000000" fill-rule="evenodd" fill-opacity="1" /><path clip-path="url(#clip210)" d="M833.541 1834 Q829.93 1834 828.101 1837.57 Q826.296 1841.11 826.296 1848.24 Q826.296 1855.34 828.101 1858.91 Q829.93 1862.45 833.541 1862.45 Q837.175 1862.45 838.981 1858.91 Q840.809 1855.34 840.809 1848.24 Q840.809 1841.11 838.981 1837.57 Q837.175 1834 833.541 1834 M833.541 1830.3 Q839.351 1830.3 842.407 1834.9 Q845.485 1839.49 845.485 1848.24 Q845.485 1856.96 842.407 1861.57 Q839.351 1866.15 833.541 1866.15 Q827.731 1866.15 824.652 1861.57 Q821.597 1856.96 821.597 1848.24 Q821.597 1839.49 824.652 1834.9 Q827.731 1830.3 833.541 1830.3 Z" fill="#000000" fill-rule="evenodd" fill-opacity="1" /><path clip-path="url(#clip210)" d="M853.703 1859.6 L858.587 1859.6 L858.587 1865.48 L853.703 1865.48 L853.703 1859.6 Z" fill="#000000" fill-rule="evenodd" fill-opacity="1" /><path clip-path="url(#clip210)" d="M868.819 1830.92 L887.175 1830.92 L887.175 1834.86 L873.101 1834.86 L873.101 1843.33 Q874.119 1842.98 875.138 1842.82 Q876.156 1842.64 877.175 1842.64 Q882.962 1842.64 886.342 1845.81 Q889.721 1848.98 889.721 1854.4 Q889.721 1859.97 886.249 1863.08 Q882.777 1866.15 876.457 1866.15 Q874.281 1866.15 872.013 1865.78 Q869.768 1865.41 867.36 1864.67 L867.36 1859.97 Q869.444 1861.11 871.666 1861.66 Q873.888 1862.22 876.365 1862.22 Q880.369 1862.22 882.707 1860.11 Q885.045 1858.01 885.045 1854.4 Q885.045 1850.78 882.707 1848.68 Q880.369 1846.57 876.365 1846.57 Q874.49 1846.57 872.615 1846.99 Q870.763 1847.4 868.819 1848.28 L868.819 1830.92 Z" fill="#000000" fill-rule="evenodd" fill-opacity="1" /><path clip-path="url(#clip210)" d="M1392.34 1834 Q1388.73 1834 1386.9 1837.57 Q1385.09 1841.11 1385.09 1848.24 Q1385.09 1855.34 1386.9 1858.91 Q1388.73 1862.45 1392.34 1862.45 Q1395.97 1862.45 1397.78 1858.91 Q1399.61 1855.34 1399.61 1848.24 Q1399.61 1841.11 1397.78 1837.57 Q1395.97 1834 1392.34 1834 M1392.34 1830.3 Q1398.15 1830.3 1401.21 1834.9 Q1404.28 1839.49 1404.28 1848.24 Q1404.28 1856.96 1401.21 1861.57 Q1398.15 1866.15 1392.34 1866.15 Q1386.53 1866.15 1383.45 1861.57 Q1380.39 1856.96 1380.39 1848.24 Q1380.39 1839.49 1383.45 1834.9 Q1386.53 1830.3 1392.34 1830.3 Z" fill="#000000" fill-rule="evenodd" fill-opacity="1" /><path clip-path="url(#clip210)" d="M1412.5 1859.6 L1417.39 1859.6 L1417.39 1865.48 L1412.5 1865.48 L1412.5 1859.6 Z" fill="#000000" fill-rule="evenodd" fill-opacity="1" /><path clip-path="url(#clip210)" d="M1437.57 1834 Q1433.96 1834 1432.13 1837.57 Q1430.33 1841.11 1430.33 1848.24 Q1430.33 1855.34 1432.13 1858.91 Q1433.96 1862.45 1437.57 1862.45 Q1441.2 1862.45 1443.01 1858.91 Q1444.84 1855.34 1444.84 1848.24 Q1444.84 1841.11 1443.01 1837.57 Q1441.2 1834 1437.57 1834 M1437.57 1830.3 Q1443.38 1830.3 1446.44 1834.9 Q1449.51 1839.49 1449.51 1848.24 Q1449.51 1856.96 1446.44 1861.57 Q1443.38 1866.15 1437.57 1866.15 Q1431.76 1866.15 1428.68 1861.57 Q1425.63 1856.96 1425.63 1848.24 Q1425.63 1839.49 1428.68 1834.9 Q1431.76 1830.3 1437.57 1830.3 Z" fill="#000000" fill-rule="evenodd" fill-opacity="1" /><path clip-path="url(#clip210)" d="M1971.05 1834 Q1967.43 1834 1965.61 1837.57 Q1963.8 1841.11 1963.8 1848.24 Q1963.8 1855.34 1965.61 1858.91 Q1967.43 1862.45 1971.05 1862.45 Q1974.68 1862.45 1976.48 1858.91 Q1978.31 1855.34 1978.31 1848.24 Q1978.31 1841.11 1976.48 1837.57 Q1974.68 1834 1971.05 1834 M1971.05 1830.3 Q1976.86 1830.3 1979.91 1834.9 Q1982.99 1839.49 1982.99 1848.24 Q1982.99 1856.96 1979.91 1861.57 Q1976.86 1866.15 1971.05 1866.15 Q1965.23 1866.15 1962.16 1861.57 Q1959.1 1856.96 1959.1 1848.24 Q1959.1 1839.49 1962.16 1834.9 Q1965.23 1830.3 1971.05 1830.3 Z" fill="#000000" fill-rule="evenodd" fill-opacity="1" /><path clip-path="url(#clip210)" d="M1991.21 1859.6 L1996.09 1859.6 L1996.09 1865.48 L1991.21 1865.48 L1991.21 1859.6 Z" fill="#000000" fill-rule="evenodd" fill-opacity="1" /><path clip-path="url(#clip210)" d="M2006.32 1830.92 L2024.68 1830.92 L2024.68 1834.86 L2010.6 1834.86 L2010.6 1843.33 Q2011.62 1842.98 2012.64 1842.82 Q2013.66 1842.64 2014.68 1842.64 Q2020.47 1842.64 2023.85 1845.81 Q2027.23 1848.98 2027.23 1854.4 Q2027.23 1859.97 2023.75 1863.08 Q2020.28 1866.15 2013.96 1866.15 Q2011.79 1866.15 2009.52 1865.78 Q2007.27 1865.41 2004.86 1864.67 L2004.86 1859.97 Q2006.95 1861.11 2009.17 1861.66 Q2011.39 1862.22 2013.87 1862.22 Q2017.87 1862.22 2020.21 1860.11 Q2022.55 1858.01 2022.55 1854.4 Q2022.55 1850.78 2020.21 1848.68 Q2017.87 1846.57 2013.87 1846.57 Q2011.99 1846.57 2010.12 1846.99 Q2008.27 1847.4 2006.32 1848.28 L2006.32 1830.92 Z" fill="#000000" fill-rule="evenodd" fill-opacity="1" /><path clip-path="url(#clip210)" d="M2538.52 1861.55 L2546.16 1861.55 L2546.16 1835.18 L2537.85 1836.85 L2537.85 1832.59 L2546.12 1830.92 L2550.79 1830.92 L2550.79 1861.55 L2558.43 1861.55 L2558.43 1865.48 L2538.52 1865.48 L2538.52 1861.55 Z" fill="#000000" fill-rule="evenodd" fill-opacity="1" /><path clip-path="url(#clip210)" d="M2567.88 1859.6 L2572.76 1859.6 L2572.76 1865.48 L2567.88 1865.48 L2567.88 1859.6 Z" fill="#000000" fill-rule="evenodd" fill-opacity="1" /><path clip-path="url(#clip210)" d="M2592.94 1834 Q2589.33 1834 2587.51 1837.57 Q2585.7 1841.11 2585.7 1848.24 Q2585.7 1855.34 2587.51 1858.91 Q2589.33 1862.45 2592.94 1862.45 Q2596.58 1862.45 2598.38 1858.91 Q2600.21 1855.34 2600.21 1848.24 Q2600.21 1841.11 2598.38 1837.57 Q2596.58 1834 2592.94 1834 M2592.94 1830.3 Q2598.76 1830.3 2601.81 1834.9 Q2604.89 1839.49 2604.89 1848.24 Q2604.89 1856.96 2601.81 1861.57 Q2598.76 1866.15 2592.94 1866.15 Q2587.13 1866.15 2584.06 1861.57 Q2581 1856.96 2581 1848.24 Q2581 1839.49 2584.06 1834.9 Q2587.13 1830.3 2592.94 1830.3 Z" fill="#000000" fill-rule="evenodd" fill-opacity="1" /><polyline clip-path="url(#clip212)" style="stroke:#000000; stroke-linecap:butt; stroke-linejoin:round; stroke-width:2; stroke-opacity:0.1; fill:none" points="
  189.154,1502.22 2640.76,1502.22 
  "/>
<polyline clip-path="url(#clip212)" style="stroke:#000000; stroke-linecap:butt; stroke-linejoin:round; stroke-width:2; stroke-opacity:0.1; fill:none" points="
  189.154,1155.29 2640.76,1155.29 
  "/>
<polyline clip-path="url(#clip212)" style="stroke:#000000; stroke-linecap:butt; stroke-linejoin:round; stroke-width:2; stroke-opacity:0.1; fill:none" points="
  189.154,808.37 2640.76,808.37 
  "/>
<polyline clip-path="url(#clip212)" style="stroke:#000000; stroke-linecap:butt; stroke-linejoin:round; stroke-width:2; stroke-opacity:0.1; fill:none" points="
  189.154,461.445 2640.76,461.445 
  "/>
<polyline clip-path="url(#clip212)" style="stroke:#000000; stroke-linecap:butt; stroke-linejoin:round; stroke-width:2; stroke-opacity:0.1; fill:none" points="
  189.154,114.521 2640.76,114.521 
  "/>
<polyline clip-path="url(#clip210)" style="stroke:#000000; stroke-linecap:butt; stroke-linejoin:round; stroke-width:4; stroke-opacity:1; fill:none" points="
  189.154,1800.78 189.154,47.2441 
  "/>
<polyline clip-path="url(#clip210)" style="stroke:#000000; stroke-linecap:butt; stroke-linejoin:round; stroke-width:4; stroke-opacity:1; fill:none" points="
  189.154,1502.22 208.052,1502.22 
  "/>
<polyline clip-path="url(#clip210)" style="stroke:#000000; stroke-linecap:butt; stroke-linejoin:round; stroke-width:4; stroke-opacity:1; fill:none" points="
  189.154,1155.29 208.052,1155.29 
  "/>
<polyline clip-path="url(#clip210)" style="stroke:#000000; stroke-linecap:butt; stroke-linejoin:round; stroke-width:4; stroke-opacity:1; fill:none" points="
  189.154,808.37 208.052,808.37 
  "/>
<polyline clip-path="url(#clip210)" style="stroke:#000000; stroke-linecap:butt; stroke-linejoin:round; stroke-width:4; stroke-opacity:1; fill:none" points="
  189.154,461.445 208.052,461.445 
  "/>
<polyline clip-path="url(#clip210)" style="stroke:#000000; stroke-linecap:butt; stroke-linejoin:round; stroke-width:4; stroke-opacity:1; fill:none" points="
  189.154,114.521 208.052,114.521 
  "/>
<path clip-path="url(#clip210)" d="M91.6584 1488.02 Q88.0473 1488.02 86.2186 1491.58 Q84.4131 1495.12 84.4131 1502.25 Q84.4131 1509.36 86.2186 1512.93 Q88.0473 1516.47 91.6584 1516.47 Q95.2926 1516.47 97.0982 1512.93 Q98.9269 1509.36 98.9269 1502.25 Q98.9269 1495.12 97.0982 1491.58 Q95.2926 1488.02 91.6584 1488.02 M91.6584 1484.31 Q97.4685 1484.31 100.524 1488.92 Q103.603 1493.5 103.603 1502.25 Q103.603 1510.98 100.524 1515.59 Q97.4685 1520.17 91.6584 1520.17 Q85.8482 1520.17 82.7695 1515.59 Q79.714 1510.98 79.714 1502.25 Q79.714 1493.5 82.7695 1488.92 Q85.8482 1484.31 91.6584 1484.31 Z" fill="#000000" fill-rule="evenodd" fill-opacity="1" /><path clip-path="url(#clip210)" d="M111.82 1513.62 L116.705 1513.62 L116.705 1519.5 L111.82 1519.5 L111.82 1513.62 Z" fill="#000000" fill-rule="evenodd" fill-opacity="1" /><path clip-path="url(#clip210)" d="M136.89 1488.02 Q133.279 1488.02 131.45 1491.58 Q129.644 1495.12 129.644 1502.25 Q129.644 1509.36 131.45 1512.93 Q133.279 1516.47 136.89 1516.47 Q140.524 1516.47 142.329 1512.93 Q144.158 1509.36 144.158 1502.25 Q144.158 1495.12 142.329 1491.58 Q140.524 1488.02 136.89 1488.02 M136.89 1484.31 Q142.7 1484.31 145.755 1488.92 Q148.834 1493.5 148.834 1502.25 Q148.834 1510.98 145.755 1515.59 Q142.7 1520.17 136.89 1520.17 Q131.079 1520.17 128.001 1515.59 Q124.945 1510.98 124.945 1502.25 Q124.945 1493.5 128.001 1488.92 Q131.079 1484.31 136.89 1484.31 Z" fill="#000000" fill-rule="evenodd" fill-opacity="1" /><path clip-path="url(#clip210)" d="M92.3065 1141.09 Q88.6954 1141.09 86.8667 1144.66 Q85.0612 1148.2 85.0612 1155.33 Q85.0612 1162.44 86.8667 1166 Q88.6954 1169.54 92.3065 1169.54 Q95.9408 1169.54 97.7463 1166 Q99.575 1162.44 99.575 1155.33 Q99.575 1148.2 97.7463 1144.66 Q95.9408 1141.09 92.3065 1141.09 M92.3065 1137.39 Q98.1167 1137.39 101.172 1142 Q104.251 1146.58 104.251 1155.33 Q104.251 1164.06 101.172 1168.66 Q98.1167 1173.25 92.3065 1173.25 Q86.4964 1173.25 83.4177 1168.66 Q80.3621 1164.06 80.3621 1155.33 Q80.3621 1146.58 83.4177 1142 Q86.4964 1137.39 92.3065 1137.39 Z" fill="#000000" fill-rule="evenodd" fill-opacity="1" /><path clip-path="url(#clip210)" d="M112.468 1166.7 L117.353 1166.7 L117.353 1172.57 L112.468 1172.57 L112.468 1166.7 Z" fill="#000000" fill-rule="evenodd" fill-opacity="1" /><path clip-path="url(#clip210)" d="M141.704 1153.94 Q145.061 1154.66 146.936 1156.93 Q148.834 1159.2 148.834 1162.53 Q148.834 1167.64 145.316 1170.45 Q141.797 1173.25 135.316 1173.25 Q133.14 1173.25 130.825 1172.81 Q128.533 1172.39 126.079 1171.53 L126.079 1167.02 Q128.024 1168.15 130.339 1168.73 Q132.654 1169.31 135.177 1169.31 Q139.575 1169.31 141.866 1167.57 Q144.181 1165.84 144.181 1162.53 Q144.181 1159.47 142.028 1157.76 Q139.899 1156.02 136.079 1156.02 L132.052 1156.02 L132.052 1152.18 L136.265 1152.18 Q139.714 1152.18 141.542 1150.82 Q143.371 1149.43 143.371 1146.83 Q143.371 1144.17 141.473 1142.76 Q139.598 1141.33 136.079 1141.33 Q134.158 1141.33 131.959 1141.74 Q129.76 1142.16 127.121 1143.04 L127.121 1138.87 Q129.783 1138.13 132.098 1137.76 Q134.436 1137.39 136.496 1137.39 Q141.82 1137.39 144.922 1139.82 Q148.024 1142.23 148.024 1146.35 Q148.024 1149.22 146.38 1151.21 Q144.737 1153.18 141.704 1153.94 Z" fill="#000000" fill-rule="evenodd" fill-opacity="1" /><path clip-path="url(#clip210)" d="M91.4963 794.169 Q87.8853 794.169 86.0566 797.734 Q84.251 801.275 84.251 808.405 Q84.251 815.511 86.0566 819.076 Q87.8853 822.618 91.4963 822.618 Q95.1306 822.618 96.9361 819.076 Q98.7648 815.511 98.7648 808.405 Q98.7648 801.275 96.9361 797.734 Q95.1306 794.169 91.4963 794.169 M91.4963 790.465 Q97.3065 790.465 100.362 795.072 Q103.441 799.655 103.441 808.405 Q103.441 817.132 100.362 821.738 Q97.3065 826.321 91.4963 826.321 Q85.6862 826.321 82.6075 821.738 Q79.552 817.132 79.552 808.405 Q79.552 799.655 82.6075 795.072 Q85.6862 790.465 91.4963 790.465 Z" fill="#000000" fill-rule="evenodd" fill-opacity="1" /><path clip-path="url(#clip210)" d="M111.658 819.771 L116.543 819.771 L116.543 825.65 L111.658 825.65 L111.658 819.771 Z" fill="#000000" fill-rule="evenodd" fill-opacity="1" /><path clip-path="url(#clip210)" d="M137.306 806.507 Q134.158 806.507 132.306 808.659 Q130.478 810.812 130.478 814.562 Q130.478 818.289 132.306 820.465 Q134.158 822.618 137.306 822.618 Q140.454 822.618 142.283 820.465 Q144.135 818.289 144.135 814.562 Q144.135 810.812 142.283 808.659 Q140.454 806.507 137.306 806.507 M146.589 791.854 L146.589 796.113 Q144.829 795.28 143.024 794.84 Q141.241 794.4 139.482 794.4 Q134.853 794.4 132.399 797.525 Q129.968 800.65 129.621 806.97 Q130.987 804.956 133.047 803.891 Q135.107 802.803 137.584 802.803 Q142.792 802.803 145.802 805.974 Q148.834 809.122 148.834 814.562 Q148.834 819.886 145.686 823.104 Q142.538 826.321 137.306 826.321 Q131.311 826.321 128.14 821.738 Q124.968 817.132 124.968 808.405 Q124.968 800.21 128.857 795.349 Q132.746 790.465 139.297 790.465 Q141.056 790.465 142.839 790.812 Q144.644 791.16 146.589 791.854 Z" fill="#000000" fill-rule="evenodd" fill-opacity="1" /><path clip-path="url(#clip210)" d="M91.8436 447.244 Q88.2325 447.244 86.4038 450.809 Q84.5982 454.35 84.5982 461.48 Q84.5982 468.586 86.4038 472.151 Q88.2325 475.693 91.8436 475.693 Q95.4778 475.693 97.2834 472.151 Q99.112 468.586 99.112 461.48 Q99.112 454.35 97.2834 450.809 Q95.4778 447.244 91.8436 447.244 M91.8436 443.54 Q97.6537 443.54 100.709 448.147 Q103.788 452.73 103.788 461.48 Q103.788 470.207 100.709 474.813 Q97.6537 479.397 91.8436 479.397 Q86.0334 479.397 82.9547 474.813 Q79.8992 470.207 79.8992 461.48 Q79.8992 452.73 82.9547 448.147 Q86.0334 443.54 91.8436 443.54 Z" fill="#000000" fill-rule="evenodd" fill-opacity="1" /><path clip-path="url(#clip210)" d="M112.005 472.846 L116.89 472.846 L116.89 478.725 L112.005 478.725 L112.005 472.846 Z" fill="#000000" fill-rule="evenodd" fill-opacity="1" /><path clip-path="url(#clip210)" d="M127.214 478.008 L127.214 473.748 Q128.973 474.582 130.779 475.022 Q132.584 475.461 134.32 475.461 Q138.95 475.461 141.38 472.36 Q143.834 469.235 144.181 462.892 Q142.839 464.883 140.778 465.948 Q138.718 467.012 136.218 467.012 Q131.033 467.012 128.001 463.887 Q124.992 460.739 124.992 455.3 Q124.992 449.975 128.14 446.758 Q131.288 443.54 136.519 443.54 Q142.515 443.54 145.663 448.147 Q148.834 452.73 148.834 461.48 Q148.834 469.651 144.945 474.536 Q141.079 479.397 134.529 479.397 Q132.769 479.397 130.964 479.049 Q129.158 478.702 127.214 478.008 M136.519 463.355 Q139.667 463.355 141.496 461.202 Q143.348 459.049 143.348 455.3 Q143.348 451.573 141.496 449.42 Q139.667 447.244 136.519 447.244 Q133.371 447.244 131.519 449.42 Q129.691 451.573 129.691 455.3 Q129.691 459.049 131.519 461.202 Q133.371 463.355 136.519 463.355 Z" fill="#000000" fill-rule="evenodd" fill-opacity="1" /><path clip-path="url(#clip210)" d="M84.0658 127.865 L91.7047 127.865 L91.7047 101.5 L83.3945 103.166 L83.3945 98.9072 L91.6584 97.2405 L96.3343 97.2405 L96.3343 127.865 L103.973 127.865 L103.973 131.801 L84.0658 131.801 L84.0658 127.865 Z" fill="#000000" fill-rule="evenodd" fill-opacity="1" /><path clip-path="url(#clip210)" d="M113.418 125.921 L118.302 125.921 L118.302 131.801 L113.418 131.801 L113.418 125.921 Z" fill="#000000" fill-rule="evenodd" fill-opacity="1" /><path clip-path="url(#clip210)" d="M132.515 127.865 L148.834 127.865 L148.834 131.801 L126.89 131.801 L126.89 127.865 Q129.552 125.111 134.135 120.481 Q138.741 115.828 139.922 114.486 Q142.167 111.963 143.047 110.227 Q143.95 108.467 143.95 106.777 Q143.95 104.023 142.005 102.287 Q140.084 100.551 136.982 100.551 Q134.783 100.551 132.329 101.315 Q129.899 102.078 127.121 103.629 L127.121 98.9072 Q129.945 97.7729 132.399 97.1942 Q134.853 96.6155 136.89 96.6155 Q142.26 96.6155 145.454 99.3007 Q148.649 101.986 148.649 106.477 Q148.649 108.606 147.839 110.527 Q147.052 112.426 144.945 115.018 Q144.366 115.689 141.265 118.907 Q138.163 122.101 132.515 127.865 Z" fill="#000000" fill-rule="evenodd" fill-opacity="1" /><polyline clip-path="url(#clip212)" style="stroke:#009af9; stroke-linecap:butt; stroke-linejoin:round; stroke-width:4; stroke-opacity:1; fill:none" points="
  1414.95,1502.22 1409.05,1502.22 1391.35,1502.22 1361.85,1502.22 1320.55,1502.22 1267.45,1502.22 1202.55,1502.22 1125.85,1502.22 1037.35,1502.22 937.048,1502.22 
  824.947,1502.22 701.045,1502.22 565.343,1502.22 417.841,1502.22 258.539,1502.22 
  "/>
<polyline clip-path="url(#clip212)" style="stroke:#e26f46; stroke-linecap:butt; stroke-linejoin:round; stroke-width:4; stroke-opacity:1; fill:none" points="
  1420.86,1502.22 1414.95,1496.32 1397.25,1490.42 1367.75,1484.52 1326.45,1478.62 1273.35,1472.72 1208.45,1466.82 1131.75,1460.92 1043.25,1455.02 942.948,1449.12 
  830.847,1443.22 706.945,1437.32 571.243,1431.42 423.741,1425.52 264.439,1419.62 
  "/>
<polyline clip-path="url(#clip212)" style="stroke:#3da44d; stroke-linecap:butt; stroke-linejoin:round; stroke-width:4; stroke-opacity:1; fill:none" points="
  1438.56,1502.22 1432.66,1490.42 1414.95,1478.62 1385.45,1466.82 1344.15,1455.02 1291.05,1443.22 1226.15,1431.42 1149.45,1419.62 1060.95,1407.82 960.649,1396.02 
  848.547,1384.22 724.645,1372.42 588.944,1360.62 441.441,1348.82 282.139,1337.02 
  "/>
<polyline clip-path="url(#clip212)" style="stroke:#c271d2; stroke-linecap:butt; stroke-linejoin:round; stroke-width:4; stroke-opacity:1; fill:none" points="
  1468.06,1502.22 1462.16,1484.52 1444.46,1466.82 1414.95,1449.12 1373.65,1431.42 1320.55,1413.72 1255.65,1396.02 1178.95,1378.32 1090.45,1360.62 990.149,1342.92 
  878.048,1325.22 754.146,1307.52 618.444,1289.82 470.942,1272.12 311.64,1254.42 
  "/>
<polyline clip-path="url(#clip212)" style="stroke:#ac8d18; stroke-linecap:butt; stroke-linejoin:round; stroke-width:4; stroke-opacity:1; fill:none" points="
  1509.36,1502.22 1503.46,1478.62 1485.76,1455.02 1456.26,1431.42 1414.95,1407.82 1361.85,1384.22 1296.95,1360.62 1220.25,1337.02 1131.75,1313.42 1031.45,1289.82 
  919.348,1266.22 795.446,1242.62 659.745,1219.02 512.242,1195.42 352.94,1171.82 
  "/>
<polyline clip-path="url(#clip212)" style="stroke:#00a9ad; stroke-linecap:butt; stroke-linejoin:round; stroke-width:4; stroke-opacity:1; fill:none" points="
  1562.46,1502.22 1556.56,1472.72 1538.86,1443.22 1509.36,1413.72 1468.06,1384.22 1414.95,1354.72 1350.05,1325.22 1273.35,1295.72 1184.85,1266.22 1084.55,1236.72 
  972.449,1207.22 848.547,1177.72 712.845,1148.21 565.343,1118.71 406.041,1089.21 
  "/>
<polyline clip-path="url(#clip212)" style="stroke:#ed5d92; stroke-linecap:butt; stroke-linejoin:round; stroke-width:4; stroke-opacity:1; fill:none" points="
  1627.36,1502.22 1621.46,1466.82 1603.76,1431.42 1574.26,1396.02 1532.96,1360.62 1479.86,1325.22 1414.95,1289.82 1338.25,1254.42 1249.75,1219.02 1149.45,1183.62 
  1037.35,1148.21 913.448,1112.81 777.746,1077.41 630.244,1042.01 470.942,1006.61 
  "/>
<polyline clip-path="url(#clip212)" style="stroke:#c68125; stroke-linecap:butt; stroke-linejoin:round; stroke-width:4; stroke-opacity:1; fill:none" points="
  1704.06,1502.22 1698.16,1460.92 1680.46,1419.62 1650.96,1378.32 1609.66,1337.02 1556.56,1295.72 1491.66,1254.42 1414.95,1213.12 1326.45,1171.82 1226.15,1130.51 
  1114.05,1089.21 990.149,1047.91 854.447,1006.61 706.945,965.312 547.643,924.012 
  "/>
<polyline clip-path="url(#clip212)" style="stroke:#00a98d; stroke-linecap:butt; stroke-linejoin:round; stroke-width:4; stroke-opacity:1; fill:none" points="
  1792.56,1502.22 1786.66,1455.02 1768.96,1407.82 1739.46,1360.62 1698.16,1313.42 1645.06,1266.22 1580.16,1219.02 1503.46,1171.82 1414.95,1124.61 1314.65,1077.41 
  1202.55,1030.21 1078.65,983.013 942.948,935.812 795.446,888.611 636.144,841.411 
  "/>
<polyline clip-path="url(#clip212)" style="stroke:#8e971d; stroke-linecap:butt; stroke-linejoin:round; stroke-width:4; stroke-opacity:1; fill:none" points="
  1892.86,1502.22 1886.96,1449.12 1869.26,1396.02 1839.76,1342.92 1798.46,1289.82 1745.36,1236.72 1680.46,1183.62 1603.76,1130.51 1515.26,1077.41 1414.95,1024.31 
  1302.85,971.212 1178.95,918.112 1043.25,865.011 895.748,811.91 736.446,758.809 
  "/>
<polyline clip-path="url(#clip212)" style="stroke:#00a8cb; stroke-linecap:butt; stroke-linejoin:round; stroke-width:4; stroke-opacity:1; fill:none" points="
  2004.96,1502.22 1999.06,1443.22 1981.36,1384.22 1951.86,1325.22 1910.56,1266.22 1857.46,1207.22 1792.56,1148.21 1715.86,1089.21 1627.36,1030.21 1527.06,971.212 
  1414.95,912.212 1291.05,853.211 1155.35,794.21 1007.85,735.209 848.547,676.208 
  "/>
<polyline clip-path="url(#clip212)" style="stroke:#9b7fe8; stroke-linecap:butt; stroke-linejoin:round; stroke-width:4; stroke-opacity:1; fill:none" points="
  2128.86,1502.22 2122.96,1437.32 2105.26,1372.42 2075.76,1307.52 2034.46,1242.62 1981.36,1177.72 1916.46,1112.81 1839.76,1047.91 1751.26,983.013 1650.96,918.112 
  1538.86,853.211 1414.95,788.31 1279.25,723.409 1131.75,658.508 972.449,593.607 
  "/>
<polyline clip-path="url(#clip212)" style="stroke:#608cf6; stroke-linecap:butt; stroke-linejoin:round; stroke-width:4; stroke-opacity:1; fill:none" points="
  2264.57,1502.22 2258.67,1431.42 2240.97,1360.62 2211.47,1289.82 2170.17,1219.02 2117.06,1148.21 2052.16,1077.41 1975.46,1006.61 1886.96,935.812 1786.66,865.011 
  1674.56,794.21 1550.66,723.409 1414.95,652.608 1267.45,581.807 1108.15,511.006 
  "/>
<polyline clip-path="url(#clip212)" style="stroke:#f05f73; stroke-linecap:butt; stroke-linejoin:round; stroke-width:4; stroke-opacity:1; fill:none" points="
  2412.07,1502.22 2406.17,1425.52 2388.47,1348.82 2358.97,1272.12 2317.67,1195.42 2264.57,1118.71 2199.67,1042.01 2122.96,965.312 2034.46,888.611 1934.16,811.91 
  1822.06,735.209 1698.16,658.508 1562.46,581.807 1414.95,505.106 1255.65,428.405 
  "/>
<polyline clip-path="url(#clip212)" style="stroke:#dd64b5; stroke-linecap:butt; stroke-linejoin:round; stroke-width:4; stroke-opacity:1; fill:none" points="
  2571.37,1502.22 2565.47,1419.62 2547.77,1337.02 2518.27,1254.42 2476.97,1171.82 2423.87,1089.21 2358.97,1006.61 2282.27,924.012 2193.77,841.411 2093.46,758.809 
  1981.36,676.208 1857.46,593.607 1721.76,511.006 1574.26,428.405 1414.95,345.804 
  "/>
<polyline clip-path="url(#clip212)" style="stroke:#6b9e32; stroke-linecap:butt; stroke-linejoin:round; stroke-width:4; stroke-opacity:1; fill:none" points="
  1414.95,1502.22 1420.86,1502.22 1438.56,1502.22 1468.06,1502.22 1509.36,1502.22 1562.46,1502.22 1627.36,1502.22 1704.06,1502.22 1792.56,1502.22 1892.86,1502.22 
  2004.96,1502.22 2128.86,1502.22 2264.57,1502.22 2412.07,1502.22 2571.37,1502.22 
  "/>
<polyline clip-path="url(#clip212)" style="stroke:#009af9; stroke-linecap:butt; stroke-linejoin:round; stroke-width:4; stroke-opacity:1; fill:none" points="
  1409.05,1502.22 1414.95,1496.32 1432.66,1490.42 1462.16,1484.52 1503.46,1478.62 1556.56,1472.72 1621.46,1466.82 1698.16,1460.92 1786.66,1455.02 1886.96,1449.12 
  1999.06,1443.22 2122.96,1437.32 2258.67,1431.42 2406.17,1425.52 2565.47,1419.62 
  "/>
<polyline clip-path="url(#clip212)" style="stroke:#e26f46; stroke-linecap:butt; stroke-linejoin:round; stroke-width:4; stroke-opacity:1; fill:none" points="
  1391.35,1502.22 1397.25,1490.42 1414.95,1478.62 1444.46,1466.82 1485.76,1455.02 1538.86,1443.22 1603.76,1431.42 1680.46,1419.62 1768.96,1407.82 1869.26,1396.02 
  1981.36,1384.22 2105.26,1372.42 2240.97,1360.62 2388.47,1348.82 2547.77,1337.02 
  "/>
<polyline clip-path="url(#clip212)" style="stroke:#3da44d; stroke-linecap:butt; stroke-linejoin:round; stroke-width:4; stroke-opacity:1; fill:none" points="
  1361.85,1502.22 1367.75,1484.52 1385.45,1466.82 1414.95,1449.12 1456.26,1431.42 1509.36,1413.72 1574.26,1396.02 1650.96,1378.32 1739.46,1360.62 1839.76,1342.92 
  1951.86,1325.22 2075.76,1307.52 2211.47,1289.82 2358.97,1272.12 2518.27,1254.42 
  "/>
<polyline clip-path="url(#clip212)" style="stroke:#c271d2; stroke-linecap:butt; stroke-linejoin:round; stroke-width:4; stroke-opacity:1; fill:none" points="
  1320.55,1502.22 1326.45,1478.62 1344.15,1455.02 1373.65,1431.42 1414.95,1407.82 1468.06,1384.22 1532.96,1360.62 1609.66,1337.02 1698.16,1313.42 1798.46,1289.82 
  1910.56,1266.22 2034.46,1242.62 2170.17,1219.02 2317.67,1195.42 2476.97,1171.82 
  "/>
<polyline clip-path="url(#clip212)" style="stroke:#ac8d18; stroke-linecap:butt; stroke-linejoin:round; stroke-width:4; stroke-opacity:1; fill:none" points="
  1267.45,1502.22 1273.35,1472.72 1291.05,1443.22 1320.55,1413.72 1361.85,1384.22 1414.95,1354.72 1479.86,1325.22 1556.56,1295.72 1645.06,1266.22 1745.36,1236.72 
  1857.46,1207.22 1981.36,1177.72 2117.06,1148.21 2264.57,1118.71 2423.87,1089.21 
  "/>
<polyline clip-path="url(#clip212)" style="stroke:#00a9ad; stroke-linecap:butt; stroke-linejoin:round; stroke-width:4; stroke-opacity:1; fill:none" points="
  1202.55,1502.22 1208.45,1466.82 1226.15,1431.42 1255.65,1396.02 1296.95,1360.62 1350.05,1325.22 1414.95,1289.82 1491.66,1254.42 1580.16,1219.02 1680.46,1183.62 
  1792.56,1148.21 1916.46,1112.81 2052.16,1077.41 2199.67,1042.01 2358.97,1006.61 
  "/>
<polyline clip-path="url(#clip212)" style="stroke:#ed5d92; stroke-linecap:butt; stroke-linejoin:round; stroke-width:4; stroke-opacity:1; fill:none" points="
  1125.85,1502.22 1131.75,1460.92 1149.45,1419.62 1178.95,1378.32 1220.25,1337.02 1273.35,1295.72 1338.25,1254.42 1414.95,1213.12 1503.46,1171.82 1603.76,1130.51 
  1715.86,1089.21 1839.76,1047.91 1975.46,1006.61 2122.96,965.312 2282.27,924.012 
  "/>
<polyline clip-path="url(#clip212)" style="stroke:#c68125; stroke-linecap:butt; stroke-linejoin:round; stroke-width:4; stroke-opacity:1; fill:none" points="
  1037.35,1502.22 1043.25,1455.02 1060.95,1407.82 1090.45,1360.62 1131.75,1313.42 1184.85,1266.22 1249.75,1219.02 1326.45,1171.82 1414.95,1124.61 1515.26,1077.41 
  1627.36,1030.21 1751.26,983.013 1886.96,935.812 2034.46,888.611 2193.77,841.411 
  "/>
<polyline clip-path="url(#clip212)" style="stroke:#00a98d; stroke-linecap:butt; stroke-linejoin:round; stroke-width:4; stroke-opacity:1; fill:none" points="
  937.048,1502.22 942.948,1449.12 960.649,1396.02 990.149,1342.92 1031.45,1289.82 1084.55,1236.72 1149.45,1183.62 1226.15,1130.51 1314.65,1077.41 1414.95,1024.31 
  1527.06,971.212 1650.96,918.112 1786.66,865.011 1934.16,811.91 2093.46,758.809 
  "/>
<polyline clip-path="url(#clip212)" style="stroke:#8e971d; stroke-linecap:butt; stroke-linejoin:round; stroke-width:4; stroke-opacity:1; fill:none" points="
  824.947,1502.22 830.847,1443.22 848.547,1384.22 878.048,1325.22 919.348,1266.22 972.449,1207.22 1037.35,1148.21 1114.05,1089.21 1202.55,1030.21 1302.85,971.212 
  1414.95,912.212 1538.86,853.211 1674.56,794.21 1822.06,735.209 1981.36,676.208 
  "/>
<polyline clip-path="url(#clip212)" style="stroke:#00a8cb; stroke-linecap:butt; stroke-linejoin:round; stroke-width:4; stroke-opacity:1; fill:none" points="
  701.045,1502.22 706.945,1437.32 724.645,1372.42 754.146,1307.52 795.446,1242.62 848.547,1177.72 913.448,1112.81 990.149,1047.91 1078.65,983.013 1178.95,918.112 
  1291.05,853.211 1414.95,788.31 1550.66,723.409 1698.16,658.508 1857.46,593.607 
  "/>
<polyline clip-path="url(#clip212)" style="stroke:#9b7fe8; stroke-linecap:butt; stroke-linejoin:round; stroke-width:4; stroke-opacity:1; fill:none" points="
  565.343,1502.22 571.243,1431.42 588.944,1360.62 618.444,1289.82 659.745,1219.02 712.845,1148.21 777.746,1077.41 854.447,1006.61 942.948,935.812 1043.25,865.011 
  1155.35,794.21 1279.25,723.409 1414.95,652.608 1562.46,581.807 1721.76,511.006 
  "/>
<polyline clip-path="url(#clip212)" style="stroke:#608cf6; stroke-linecap:butt; stroke-linejoin:round; stroke-width:4; stroke-opacity:1; fill:none" points="
  417.841,1502.22 423.741,1425.52 441.441,1348.82 470.942,1272.12 512.242,1195.42 565.343,1118.71 630.244,1042.01 706.945,965.312 795.446,888.611 895.748,811.91 
  1007.85,735.209 1131.75,658.508 1267.45,581.807 1414.95,505.106 1574.26,428.405 
  "/>
<polyline clip-path="url(#clip212)" style="stroke:#f05f73; stroke-linecap:butt; stroke-linejoin:round; stroke-width:4; stroke-opacity:1; fill:none" points="
  258.539,1502.22 264.439,1419.62 282.139,1337.02 311.64,1254.42 352.94,1171.82 406.041,1089.21 470.942,1006.61 547.643,924.012 636.144,841.411 736.446,758.809 
  848.547,676.208 972.449,593.607 1108.15,511.006 1255.65,428.405 1414.95,345.804 
  "/>
<polyline clip-path="url(#clip212)" style="stroke:#0000ff; stroke-linecap:butt; stroke-linejoin:round; stroke-width:8; stroke-opacity:1; fill:none" points="
  1414.95,1407.82 1745.36,1242.62 
  "/>
<polyline clip-path="url(#clip212)" style="stroke:#0000ff; stroke-linecap:butt; stroke-linejoin:round; stroke-width:8; stroke-opacity:1; fill:none" points="
  1700.28,1242.62 1745.36,1242.62 1718.31,1278.68 
  "/>
<polyline clip-path="url(#clip212)" style="stroke:#0000ff; stroke-linecap:butt; stroke-linejoin:round; stroke-width:8; stroke-opacity:1; fill:none" points="
  1745.36,1242.62 1414.95,1407.82 
  "/>
<polyline clip-path="url(#clip212)" style="stroke:#ff0000; stroke-linecap:butt; stroke-linejoin:round; stroke-width:4; stroke-opacity:1; fill:none" points="
  1084.55,1242.62 1414.95,1077.41 
  "/>
<polyline clip-path="url(#clip212)" style="stroke:#ff0000; stroke-linecap:butt; stroke-linejoin:round; stroke-width:4; stroke-opacity:1; fill:none" points="
  1369.88,1077.41 1414.95,1077.41 1387.91,1113.48 
  "/>
<polyline clip-path="url(#clip212)" style="stroke:#ff0000; stroke-linecap:butt; stroke-linejoin:round; stroke-width:4; stroke-opacity:1; fill:none" points="
  1414.95,1077.41 1084.55,1242.62 
  "/>
<polyline clip-path="url(#clip212)" style="stroke:#0000ff; stroke-linecap:butt; stroke-linejoin:round; stroke-width:8; stroke-opacity:1; fill:none" points="
  1414.95,1407.82 1084.55,1242.62 
  "/>
<polyline clip-path="url(#clip212)" style="stroke:#0000ff; stroke-linecap:butt; stroke-linejoin:round; stroke-width:8; stroke-opacity:1; fill:none" points="
  1111.6,1278.68 1084.55,1242.62 1129.63,1242.62 
  "/>
<polyline clip-path="url(#clip212)" style="stroke:#0000ff; stroke-linecap:butt; stroke-linejoin:round; stroke-width:8; stroke-opacity:1; fill:none" points="
  1084.55,1242.62 1414.95,1407.82 
  "/>
<polyline clip-path="url(#clip212)" style="stroke:#ff0000; stroke-linecap:butt; stroke-linejoin:round; stroke-width:4; stroke-opacity:1; fill:none" points="
  1745.36,1242.62 1414.95,1077.41 
  "/>
<polyline clip-path="url(#clip212)" style="stroke:#ff0000; stroke-linecap:butt; stroke-linejoin:round; stroke-width:4; stroke-opacity:1; fill:none" points="
  1442,1113.48 1414.95,1077.41 1460.03,1077.41 
  "/>
<polyline clip-path="url(#clip212)" style="stroke:#ff0000; stroke-linecap:butt; stroke-linejoin:round; stroke-width:4; stroke-opacity:1; fill:none" points="
  1414.95,1077.41 1745.36,1242.62 
  "/>
</svg>
