<?xml version="1.0" encoding="utf-8"?>
<svg xmlns="http://www.w3.org/2000/svg" xmlns:xlink="http://www.w3.org/1999/xlink" width="672" height="480" viewBox="0 0 2688 1920">
<defs>
  <clipPath id="clip630">
    <rect x="0" y="0" width="2688" height="1920"/>
  </clipPath>
</defs>
<path clip-path="url(#clip630)" d="
M0 1920 L2688 1920 L2688 0 L0 0  Z
  " fill="#ffffff" fill-rule="evenodd" fill-opacity="1"/>
<defs>
  <clipPath id="clip631">
    <rect x="537" y="0" width="1883" height="1883"/>
  </clipPath>
</defs>
<path clip-path="url(#clip630)" d="
M227.14 1800.78 L2640.76 1800.78 L2640.76 47.2441 L227.14 47.2441  Z
  " fill="#ffffff" fill-rule="evenodd" fill-opacity="1"/>
<defs>
  <clipPath id="clip632">
    <rect x="227" y="47" width="2415" height="1755"/>
  </clipPath>
</defs>
<polyline clip-path="url(#clip632)" style="stroke:#000000; stroke-linecap:butt; stroke-linejoin:round; stroke-width:2; stroke-opacity:0.1; fill:none" points="
  295.45,1800.78 295.45,47.2441 
  "/>
<polyline clip-path="url(#clip632)" style="stroke:#000000; stroke-linecap:butt; stroke-linejoin:round; stroke-width:2; stroke-opacity:0.1; fill:none" points="
  864.699,1800.78 864.699,47.2441 
  "/>
<polyline clip-path="url(#clip632)" style="stroke:#000000; stroke-linecap:butt; stroke-linejoin:round; stroke-width:2; stroke-opacity:0.1; fill:none" points="
  1433.95,1800.78 1433.95,47.2441 
  "/>
<polyline clip-path="url(#clip632)" style="stroke:#000000; stroke-linecap:butt; stroke-linejoin:round; stroke-width:2; stroke-opacity:0.1; fill:none" points="
  2003.2,1800.78 2003.2,47.2441 
  "/>
<polyline clip-path="url(#clip632)" style="stroke:#000000; stroke-linecap:butt; stroke-linejoin:round; stroke-width:2; stroke-opacity:0.1; fill:none" points="
  2572.45,1800.78 2572.45,47.2441 
  "/>
<polyline clip-path="url(#clip630)" style="stroke:#000000; stroke-linecap:butt; stroke-linejoin:round; stroke-width:4; stroke-opacity:1; fill:none" points="
  227.14,1800.78 2640.76,1800.78 
  "/>
<polyline clip-path="url(#clip630)" style="stroke:#000000; stroke-linecap:butt; stroke-linejoin:round; stroke-width:4; stroke-opacity:1; fill:none" points="
  295.45,1800.78 295.45,1781.88 
  "/>
<polyline clip-path="url(#clip630)" style="stroke:#000000; stroke-linecap:butt; stroke-linejoin:round; stroke-width:4; stroke-opacity:1; fill:none" points="
  864.699,1800.78 864.699,1781.88 
  "/>
<polyline clip-path="url(#clip630)" style="stroke:#000000; stroke-linecap:butt; stroke-linejoin:round; stroke-width:4; stroke-opacity:1; fill:none" points="
  1433.95,1800.78 1433.95,1781.88 
  "/>
<polyline clip-path="url(#clip630)" style="stroke:#000000; stroke-linecap:butt; stroke-linejoin:round; stroke-width:4; stroke-opacity:1; fill:none" points="
  2003.2,1800.78 2003.2,1781.88 
  "/>
<polyline clip-path="url(#clip630)" style="stroke:#000000; stroke-linecap:butt; stroke-linejoin:round; stroke-width:4; stroke-opacity:1; fill:none" points="
  2572.45,1800.78 2572.45,1781.88 
  "/>
<path clip-path="url(#clip630)" d="M257.753 1834 Q254.142 1834 252.313 1837.57 Q250.508 1841.11 250.508 1848.24 Q250.508 1855.34 252.313 1858.91 Q254.142 1862.45 257.753 1862.45 Q261.387 1862.45 263.193 1858.91 Q265.022 1855.34 265.022 1848.24 Q265.022 1841.11 263.193 1837.57 Q261.387 1834 257.753 1834 M257.753 1830.3 Q263.563 1830.3 266.619 1834.9 Q269.698 1839.49 269.698 1848.24 Q269.698 1856.96 266.619 1861.57 Q263.563 1866.15 257.753 1866.15 Q251.943 1866.15 248.864 1861.57 Q245.809 1856.96 245.809 1848.24 Q245.809 1839.49 248.864 1834.9 Q251.943 1830.3 257.753 1830.3 Z" fill="#000000" fill-rule="evenodd" fill-opacity="1" /><path clip-path="url(#clip630)" d="M277.915 1859.6 L282.799 1859.6 L282.799 1865.48 L277.915 1865.48 L277.915 1859.6 Z" fill="#000000" fill-rule="evenodd" fill-opacity="1" /><path clip-path="url(#clip630)" d="M302.984 1834 Q299.373 1834 297.545 1837.57 Q295.739 1841.11 295.739 1848.24 Q295.739 1855.34 297.545 1858.91 Q299.373 1862.45 302.984 1862.45 Q306.619 1862.45 308.424 1858.91 Q310.253 1855.34 310.253 1848.24 Q310.253 1841.11 308.424 1837.57 Q306.619 1834 302.984 1834 M302.984 1830.3 Q308.795 1830.3 311.85 1834.9 Q314.929 1839.49 314.929 1848.24 Q314.929 1856.96 311.85 1861.57 Q308.795 1866.15 302.984 1866.15 Q297.174 1866.15 294.096 1861.57 Q291.04 1856.96 291.04 1848.24 Q291.04 1839.49 294.096 1834.9 Q297.174 1830.3 302.984 1830.3 Z" fill="#000000" fill-rule="evenodd" fill-opacity="1" /><path clip-path="url(#clip630)" d="M333.146 1834 Q329.535 1834 327.707 1837.57 Q325.901 1841.11 325.901 1848.24 Q325.901 1855.34 327.707 1858.91 Q329.535 1862.45 333.146 1862.45 Q336.781 1862.45 338.586 1858.91 Q340.415 1855.34 340.415 1848.24 Q340.415 1841.11 338.586 1837.57 Q336.781 1834 333.146 1834 M333.146 1830.3 Q338.957 1830.3 342.012 1834.9 Q345.091 1839.49 345.091 1848.24 Q345.091 1856.96 342.012 1861.57 Q338.957 1866.15 333.146 1866.15 Q327.336 1866.15 324.258 1861.57 Q321.202 1856.96 321.202 1848.24 Q321.202 1839.49 324.258 1834.9 Q327.336 1830.3 333.146 1830.3 Z" fill="#000000" fill-rule="evenodd" fill-opacity="1" /><path clip-path="url(#clip630)" d="M827.5 1834 Q823.889 1834 822.06 1837.57 Q820.255 1841.11 820.255 1848.24 Q820.255 1855.34 822.06 1858.91 Q823.889 1862.45 827.5 1862.45 Q831.134 1862.45 832.94 1858.91 Q834.768 1855.34 834.768 1848.24 Q834.768 1841.11 832.94 1837.57 Q831.134 1834 827.5 1834 M827.5 1830.3 Q833.31 1830.3 836.366 1834.9 Q839.444 1839.49 839.444 1848.24 Q839.444 1856.96 836.366 1861.57 Q833.31 1866.15 827.5 1866.15 Q821.69 1866.15 818.611 1861.57 Q815.556 1856.96 815.556 1848.24 Q815.556 1839.49 818.611 1834.9 Q821.69 1830.3 827.5 1830.3 Z" fill="#000000" fill-rule="evenodd" fill-opacity="1" /><path clip-path="url(#clip630)" d="M847.662 1859.6 L852.546 1859.6 L852.546 1865.48 L847.662 1865.48 L847.662 1859.6 Z" fill="#000000" fill-rule="evenodd" fill-opacity="1" /><path clip-path="url(#clip630)" d="M866.759 1861.55 L883.078 1861.55 L883.078 1865.48 L861.134 1865.48 L861.134 1861.55 Q863.796 1858.79 868.379 1854.16 Q872.986 1849.51 874.166 1848.17 Q876.412 1845.65 877.291 1843.91 Q878.194 1842.15 878.194 1840.46 Q878.194 1837.71 876.25 1835.97 Q874.328 1834.23 871.227 1834.23 Q869.028 1834.23 866.574 1835 Q864.143 1835.76 861.366 1837.31 L861.366 1832.59 Q864.19 1831.46 866.643 1830.88 Q869.097 1830.3 871.134 1830.3 Q876.504 1830.3 879.699 1832.98 Q882.893 1835.67 882.893 1840.16 Q882.893 1842.29 882.083 1844.21 Q881.296 1846.11 879.19 1848.7 Q878.611 1849.37 875.509 1852.59 Q872.407 1855.78 866.759 1861.55 Z" fill="#000000" fill-rule="evenodd" fill-opacity="1" /><path clip-path="url(#clip630)" d="M892.939 1830.92 L911.296 1830.92 L911.296 1834.86 L897.222 1834.86 L897.222 1843.33 Q898.24 1842.98 899.259 1842.82 Q900.277 1842.64 901.296 1842.64 Q907.083 1842.64 910.462 1845.81 Q913.842 1848.98 913.842 1854.4 Q913.842 1859.97 910.37 1863.08 Q906.898 1866.15 900.578 1866.15 Q898.402 1866.15 896.134 1865.78 Q893.889 1865.41 891.481 1864.67 L891.481 1859.97 Q893.564 1861.11 895.787 1861.66 Q898.009 1862.22 900.486 1862.22 Q904.49 1862.22 906.828 1860.11 Q909.166 1858.01 909.166 1854.4 Q909.166 1850.78 906.828 1848.68 Q904.49 1846.57 900.486 1846.57 Q898.611 1846.57 896.736 1846.99 Q894.884 1847.4 892.939 1848.28 L892.939 1830.92 Z" fill="#000000" fill-rule="evenodd" fill-opacity="1" /><path clip-path="url(#clip630)" d="M1396.25 1834 Q1392.64 1834 1390.81 1837.57 Q1389.01 1841.11 1389.01 1848.24 Q1389.01 1855.34 1390.81 1858.91 Q1392.64 1862.45 1396.25 1862.45 Q1399.89 1862.45 1401.69 1858.91 Q1403.52 1855.34 1403.52 1848.24 Q1403.52 1841.11 1401.69 1837.57 Q1399.89 1834 1396.25 1834 M1396.25 1830.3 Q1402.06 1830.3 1405.12 1834.9 Q1408.2 1839.49 1408.2 1848.24 Q1408.2 1856.96 1405.12 1861.57 Q1402.06 1866.15 1396.25 1866.15 Q1390.44 1866.15 1387.36 1861.57 Q1384.31 1856.96 1384.31 1848.24 Q1384.31 1839.49 1387.36 1834.9 Q1390.44 1830.3 1396.25 1830.3 Z" fill="#000000" fill-rule="evenodd" fill-opacity="1" /><path clip-path="url(#clip630)" d="M1416.41 1859.6 L1421.3 1859.6 L1421.3 1865.48 L1416.41 1865.48 L1416.41 1859.6 Z" fill="#000000" fill-rule="evenodd" fill-opacity="1" /><path clip-path="url(#clip630)" d="M1431.53 1830.92 L1449.89 1830.92 L1449.89 1834.86 L1435.81 1834.86 L1435.81 1843.33 Q1436.83 1842.98 1437.85 1842.82 Q1438.87 1842.64 1439.89 1842.64 Q1445.67 1842.64 1449.05 1845.81 Q1452.43 1848.98 1452.43 1854.4 Q1452.43 1859.97 1448.96 1863.08 Q1445.49 1866.15 1439.17 1866.15 Q1436.99 1866.15 1434.72 1865.78 Q1432.48 1865.41 1430.07 1864.67 L1430.07 1859.97 Q1432.15 1861.11 1434.38 1861.66 Q1436.6 1862.22 1439.08 1862.22 Q1443.08 1862.22 1445.42 1860.11 Q1447.76 1858.01 1447.76 1854.4 Q1447.76 1850.78 1445.42 1848.68 Q1443.08 1846.57 1439.08 1846.57 Q1437.2 1846.57 1435.33 1846.99 Q1433.47 1847.4 1431.53 1848.28 L1431.53 1830.92 Z" fill="#000000" fill-rule="evenodd" fill-opacity="1" /><path clip-path="url(#clip630)" d="M1471.64 1834 Q1468.03 1834 1466.2 1837.57 Q1464.4 1841.11 1464.4 1848.24 Q1464.4 1855.34 1466.2 1858.91 Q1468.03 1862.45 1471.64 1862.45 Q1475.28 1862.45 1477.08 1858.91 Q1478.91 1855.34 1478.91 1848.24 Q1478.91 1841.11 1477.08 1837.57 Q1475.28 1834 1471.64 1834 M1471.64 1830.3 Q1477.45 1830.3 1480.51 1834.9 Q1483.59 1839.49 1483.59 1848.24 Q1483.59 1856.96 1480.51 1861.57 Q1477.45 1866.15 1471.64 1866.15 Q1465.83 1866.15 1462.76 1861.57 Q1459.7 1856.96 1459.7 1848.24 Q1459.7 1839.49 1462.76 1834.9 Q1465.83 1830.3 1471.64 1830.3 Z" fill="#000000" fill-rule="evenodd" fill-opacity="1" /><path clip-path="url(#clip630)" d="M1966 1834 Q1962.39 1834 1960.56 1837.57 Q1958.75 1841.11 1958.75 1848.24 Q1958.75 1855.34 1960.56 1858.91 Q1962.39 1862.45 1966 1862.45 Q1969.63 1862.45 1971.44 1858.91 Q1973.27 1855.34 1973.27 1848.24 Q1973.27 1841.11 1971.44 1837.57 Q1969.63 1834 1966 1834 M1966 1830.3 Q1971.81 1830.3 1974.86 1834.9 Q1977.94 1839.49 1977.94 1848.24 Q1977.94 1856.96 1974.86 1861.57 Q1971.81 1866.15 1966 1866.15 Q1960.19 1866.15 1957.11 1861.57 Q1954.05 1856.96 1954.05 1848.24 Q1954.05 1839.49 1957.11 1834.9 Q1960.19 1830.3 1966 1830.3 Z" fill="#000000" fill-rule="evenodd" fill-opacity="1" /><path clip-path="url(#clip630)" d="M1986.16 1859.6 L1991.04 1859.6 L1991.04 1865.48 L1986.16 1865.48 L1986.16 1859.6 Z" fill="#000000" fill-rule="evenodd" fill-opacity="1" /><path clip-path="url(#clip630)" d="M2000.05 1830.92 L2022.27 1830.92 L2022.27 1832.91 L2009.72 1865.48 L2004.84 1865.48 L2016.65 1834.86 L2000.05 1834.86 L2000.05 1830.92 Z" fill="#000000" fill-rule="evenodd" fill-opacity="1" /><path clip-path="url(#clip630)" d="M2031.44 1830.92 L2049.79 1830.92 L2049.79 1834.86 L2035.72 1834.86 L2035.72 1843.33 Q2036.74 1842.98 2037.76 1842.82 Q2038.78 1842.64 2039.79 1842.64 Q2045.58 1842.64 2048.96 1845.81 Q2052.34 1848.98 2052.34 1854.4 Q2052.34 1859.97 2048.87 1863.08 Q2045.4 1866.15 2039.08 1866.15 Q2036.9 1866.15 2034.63 1865.78 Q2032.39 1865.41 2029.98 1864.67 L2029.98 1859.97 Q2032.06 1861.11 2034.28 1861.66 Q2036.51 1862.22 2038.98 1862.22 Q2042.99 1862.22 2045.33 1860.11 Q2047.66 1858.01 2047.66 1854.4 Q2047.66 1850.78 2045.33 1848.68 Q2042.99 1846.57 2038.98 1846.57 Q2037.11 1846.57 2035.23 1846.99 Q2033.38 1847.4 2031.44 1848.28 L2031.44 1830.92 Z" fill="#000000" fill-rule="evenodd" fill-opacity="1" /><path clip-path="url(#clip630)" d="M2524.52 1861.55 L2532.16 1861.55 L2532.16 1835.18 L2523.85 1836.85 L2523.85 1832.59 L2532.11 1830.92 L2536.79 1830.92 L2536.79 1861.55 L2544.43 1861.55 L2544.43 1865.48 L2524.52 1865.48 L2524.52 1861.55 Z" fill="#000000" fill-rule="evenodd" fill-opacity="1" /><path clip-path="url(#clip630)" d="M2553.87 1859.6 L2558.75 1859.6 L2558.75 1865.48 L2553.87 1865.48 L2553.87 1859.6 Z" fill="#000000" fill-rule="evenodd" fill-opacity="1" /><path clip-path="url(#clip630)" d="M2578.94 1834 Q2575.33 1834 2573.5 1837.57 Q2571.69 1841.11 2571.69 1848.24 Q2571.69 1855.34 2573.5 1858.91 Q2575.33 1862.45 2578.94 1862.45 Q2582.57 1862.45 2584.38 1858.91 Q2586.21 1855.34 2586.21 1848.24 Q2586.21 1841.11 2584.38 1837.57 Q2582.57 1834 2578.94 1834 M2578.94 1830.3 Q2584.75 1830.3 2587.8 1834.9 Q2590.88 1839.49 2590.88 1848.24 Q2590.88 1856.96 2587.8 1861.57 Q2584.75 1866.15 2578.94 1866.15 Q2573.13 1866.15 2570.05 1861.57 Q2566.99 1856.96 2566.99 1848.24 Q2566.99 1839.49 2570.05 1834.9 Q2573.13 1830.3 2578.94 1830.3 Z" fill="#000000" fill-rule="evenodd" fill-opacity="1" /><path clip-path="url(#clip630)" d="M2609.1 1834 Q2605.49 1834 2603.66 1837.57 Q2601.86 1841.11 2601.86 1848.24 Q2601.86 1855.34 2603.66 1858.91 Q2605.49 1862.45 2609.1 1862.45 Q2612.74 1862.45 2614.54 1858.91 Q2616.37 1855.34 2616.37 1848.24 Q2616.37 1841.11 2614.54 1837.57 Q2612.74 1834 2609.1 1834 M2609.1 1830.3 Q2614.91 1830.3 2617.97 1834.9 Q2621.05 1839.49 2621.05 1848.24 Q2621.05 1856.96 2617.97 1861.57 Q2614.91 1866.15 2609.1 1866.15 Q2603.29 1866.15 2600.21 1861.57 Q2597.16 1856.96 2597.16 1848.24 Q2597.16 1839.49 2600.21 1834.9 Q2603.29 1830.3 2609.1 1830.3 Z" fill="#000000" fill-rule="evenodd" fill-opacity="1" /><polyline clip-path="url(#clip632)" style="stroke:#000000; stroke-linecap:butt; stroke-linejoin:round; stroke-width:2; stroke-opacity:0.1; fill:none" points="
  227.14,1640.87 2640.76,1640.87 
  "/>
<polyline clip-path="url(#clip632)" style="stroke:#000000; stroke-linecap:butt; stroke-linejoin:round; stroke-width:2; stroke-opacity:0.1; fill:none" points="
  227.14,1310.01 2640.76,1310.01 
  "/>
<polyline clip-path="url(#clip632)" style="stroke:#000000; stroke-linecap:butt; stroke-linejoin:round; stroke-width:2; stroke-opacity:0.1; fill:none" points="
  227.14,979.154 2640.76,979.154 
  "/>
<polyline clip-path="url(#clip632)" style="stroke:#000000; stroke-linecap:butt; stroke-linejoin:round; stroke-width:2; stroke-opacity:0.1; fill:none" points="
  227.14,648.299 2640.76,648.299 
  "/>
<polyline clip-path="url(#clip632)" style="stroke:#000000; stroke-linecap:butt; stroke-linejoin:round; stroke-width:2; stroke-opacity:0.1; fill:none" points="
  227.14,317.443 2640.76,317.443 
  "/>
<polyline clip-path="url(#clip630)" style="stroke:#000000; stroke-linecap:butt; stroke-linejoin:round; stroke-width:4; stroke-opacity:1; fill:none" points="
  227.14,1800.78 227.14,47.2441 
  "/>
<polyline clip-path="url(#clip630)" style="stroke:#000000; stroke-linecap:butt; stroke-linejoin:round; stroke-width:4; stroke-opacity:1; fill:none" points="
  227.14,1640.87 246.038,1640.87 
  "/>
<polyline clip-path="url(#clip630)" style="stroke:#000000; stroke-linecap:butt; stroke-linejoin:round; stroke-width:4; stroke-opacity:1; fill:none" points="
  227.14,1310.01 246.038,1310.01 
  "/>
<polyline clip-path="url(#clip630)" style="stroke:#000000; stroke-linecap:butt; stroke-linejoin:round; stroke-width:4; stroke-opacity:1; fill:none" points="
  227.14,979.154 246.038,979.154 
  "/>
<polyline clip-path="url(#clip630)" style="stroke:#000000; stroke-linecap:butt; stroke-linejoin:round; stroke-width:4; stroke-opacity:1; fill:none" points="
  227.14,648.299 246.038,648.299 
  "/>
<polyline clip-path="url(#clip630)" style="stroke:#000000; stroke-linecap:butt; stroke-linejoin:round; stroke-width:4; stroke-opacity:1; fill:none" points="
  227.14,317.443 246.038,317.443 
  "/>
<path clip-path="url(#clip630)" d="M49.8993 1641.32 L79.5751 1641.32 L79.5751 1645.25 L49.8993 1645.25 L49.8993 1641.32 Z" fill="#000000" fill-rule="evenodd" fill-opacity="1" /><path clip-path="url(#clip630)" d="M99.6676 1626.66 Q96.0565 1626.66 94.2278 1630.23 Q92.4223 1633.77 92.4223 1640.9 Q92.4223 1648.01 94.2278 1651.57 Q96.0565 1655.11 99.6676 1655.11 Q103.302 1655.11 105.107 1651.57 Q106.936 1648.01 106.936 1640.9 Q106.936 1633.77 105.107 1630.23 Q103.302 1626.66 99.6676 1626.66 M99.6676 1622.96 Q105.478 1622.96 108.533 1627.57 Q111.612 1632.15 111.612 1640.9 Q111.612 1649.63 108.533 1654.23 Q105.478 1658.82 99.6676 1658.82 Q93.8574 1658.82 90.7788 1654.23 Q87.7232 1649.63 87.7232 1640.9 Q87.7232 1632.15 90.7788 1627.57 Q93.8574 1622.96 99.6676 1622.96 Z" fill="#000000" fill-rule="evenodd" fill-opacity="1" /><path clip-path="url(#clip630)" d="M119.83 1652.27 L124.714 1652.27 L124.714 1658.15 L119.83 1658.15 L119.83 1652.27 Z" fill="#000000" fill-rule="evenodd" fill-opacity="1" /><path clip-path="url(#clip630)" d="M144.899 1626.66 Q141.288 1626.66 139.459 1630.23 Q137.654 1633.77 137.654 1640.9 Q137.654 1648.01 139.459 1651.57 Q141.288 1655.11 144.899 1655.11 Q148.533 1655.11 150.339 1651.57 Q152.167 1648.01 152.167 1640.9 Q152.167 1633.77 150.339 1630.23 Q148.533 1626.66 144.899 1626.66 M144.899 1622.96 Q150.709 1622.96 153.765 1627.57 Q156.843 1632.15 156.843 1640.9 Q156.843 1649.63 153.765 1654.23 Q150.709 1658.82 144.899 1658.82 Q139.089 1658.82 136.01 1654.23 Q132.954 1649.63 132.954 1640.9 Q132.954 1632.15 136.01 1627.57 Q139.089 1622.96 144.899 1622.96 Z" fill="#000000" fill-rule="evenodd" fill-opacity="1" /><path clip-path="url(#clip630)" d="M165.2 1657.43 L165.2 1653.17 Q166.959 1654 168.764 1654.44 Q170.57 1654.88 172.306 1654.88 Q176.936 1654.88 179.366 1651.78 Q181.82 1648.66 182.167 1642.31 Q180.825 1644.3 178.764 1645.37 Q176.704 1646.43 174.204 1646.43 Q169.019 1646.43 165.987 1643.31 Q162.977 1640.16 162.977 1634.72 Q162.977 1629.4 166.126 1626.18 Q169.274 1622.96 174.505 1622.96 Q180.5 1622.96 183.649 1627.57 Q186.82 1632.15 186.82 1640.9 Q186.82 1649.07 182.931 1653.96 Q179.065 1658.82 172.514 1658.82 Q170.755 1658.82 168.95 1658.47 Q167.144 1658.12 165.2 1657.43 M174.505 1642.78 Q177.653 1642.78 179.482 1640.62 Q181.334 1638.47 181.334 1634.72 Q181.334 1630.99 179.482 1628.84 Q177.653 1626.66 174.505 1626.66 Q171.357 1626.66 169.505 1628.84 Q167.676 1630.99 167.676 1634.72 Q167.676 1638.47 169.505 1640.62 Q171.357 1642.78 174.505 1642.78 Z" fill="#000000" fill-rule="evenodd" fill-opacity="1" /><path clip-path="url(#clip630)" d="M49.5521 1310.46 L79.2279 1310.46 L79.2279 1314.4 L49.5521 1314.4 L49.5521 1310.46 Z" fill="#000000" fill-rule="evenodd" fill-opacity="1" /><path clip-path="url(#clip630)" d="M99.3204 1295.81 Q95.7093 1295.81 93.8806 1299.37 Q92.075 1302.92 92.075 1310.04 Q92.075 1317.15 93.8806 1320.72 Q95.7093 1324.26 99.3204 1324.26 Q102.955 1324.26 104.76 1320.72 Q106.589 1317.15 106.589 1310.04 Q106.589 1302.92 104.76 1299.37 Q102.955 1295.81 99.3204 1295.81 M99.3204 1292.11 Q105.131 1292.11 108.186 1296.71 Q111.265 1301.29 111.265 1310.04 Q111.265 1318.77 108.186 1323.38 Q105.131 1327.96 99.3204 1327.96 Q93.5102 1327.96 90.4315 1323.38 Q87.376 1318.77 87.376 1310.04 Q87.376 1301.29 90.4315 1296.71 Q93.5102 1292.11 99.3204 1292.11 Z" fill="#000000" fill-rule="evenodd" fill-opacity="1" /><path clip-path="url(#clip630)" d="M119.482 1321.41 L124.367 1321.41 L124.367 1327.29 L119.482 1327.29 L119.482 1321.41 Z" fill="#000000" fill-rule="evenodd" fill-opacity="1" /><path clip-path="url(#clip630)" d="M144.552 1295.81 Q140.941 1295.81 139.112 1299.37 Q137.306 1302.92 137.306 1310.04 Q137.306 1317.15 139.112 1320.72 Q140.941 1324.26 144.552 1324.26 Q148.186 1324.26 149.991 1320.72 Q151.82 1317.15 151.82 1310.04 Q151.82 1302.92 149.991 1299.37 Q148.186 1295.81 144.552 1295.81 M144.552 1292.11 Q150.362 1292.11 153.417 1296.71 Q156.496 1301.29 156.496 1310.04 Q156.496 1318.77 153.417 1323.38 Q150.362 1327.96 144.552 1327.96 Q138.741 1327.96 135.663 1323.38 Q132.607 1318.77 132.607 1310.04 Q132.607 1301.29 135.663 1296.71 Q138.741 1292.11 144.552 1292.11 Z" fill="#000000" fill-rule="evenodd" fill-opacity="1" /><path clip-path="url(#clip630)" d="M175.292 1308.15 Q172.144 1308.15 170.292 1310.3 Q168.464 1312.45 168.464 1316.2 Q168.464 1319.93 170.292 1322.1 Q172.144 1324.26 175.292 1324.26 Q178.44 1324.26 180.269 1322.1 Q182.121 1319.93 182.121 1316.2 Q182.121 1312.45 180.269 1310.3 Q178.44 1308.15 175.292 1308.15 M184.575 1293.49 L184.575 1297.75 Q182.815 1296.92 181.01 1296.48 Q179.227 1296.04 177.468 1296.04 Q172.839 1296.04 170.385 1299.17 Q167.954 1302.29 167.607 1308.61 Q168.973 1306.6 171.033 1305.53 Q173.093 1304.44 175.57 1304.44 Q180.778 1304.44 183.788 1307.61 Q186.82 1310.76 186.82 1316.2 Q186.82 1321.53 183.672 1324.74 Q180.524 1327.96 175.292 1327.96 Q169.297 1327.96 166.126 1323.38 Q162.954 1318.77 162.954 1310.04 Q162.954 1301.85 166.843 1296.99 Q170.732 1292.11 177.283 1292.11 Q179.042 1292.11 180.825 1292.45 Q182.63 1292.8 184.575 1293.49 Z" fill="#000000" fill-rule="evenodd" fill-opacity="1" /><path clip-path="url(#clip630)" d="M50.3623 979.606 L80.0381 979.606 L80.0381 983.541 L50.3623 983.541 L50.3623 979.606 Z" fill="#000000" fill-rule="evenodd" fill-opacity="1" /><path clip-path="url(#clip630)" d="M100.131 964.953 Q96.5195 964.953 94.6908 968.518 Q92.8852 972.059 92.8852 979.189 Q92.8852 986.295 94.6908 989.86 Q96.5195 993.402 100.131 993.402 Q103.765 993.402 105.57 989.86 Q107.399 986.295 107.399 979.189 Q107.399 972.059 105.57 968.518 Q103.765 964.953 100.131 964.953 M100.131 961.249 Q105.941 961.249 108.996 965.856 Q112.075 970.439 112.075 979.189 Q112.075 987.916 108.996 992.522 Q105.941 997.106 100.131 997.106 Q94.3204 997.106 91.2417 992.522 Q88.1862 987.916 88.1862 979.189 Q88.1862 970.439 91.2417 965.856 Q94.3204 961.249 100.131 961.249 Z" fill="#000000" fill-rule="evenodd" fill-opacity="1" /><path clip-path="url(#clip630)" d="M120.292 990.555 L125.177 990.555 L125.177 996.434 L120.292 996.434 L120.292 990.555 Z" fill="#000000" fill-rule="evenodd" fill-opacity="1" /><path clip-path="url(#clip630)" d="M145.362 964.953 Q141.751 964.953 139.922 968.518 Q138.116 972.059 138.116 979.189 Q138.116 986.295 139.922 989.86 Q141.751 993.402 145.362 993.402 Q148.996 993.402 150.802 989.86 Q152.63 986.295 152.63 979.189 Q152.63 972.059 150.802 968.518 Q148.996 964.953 145.362 964.953 M145.362 961.249 Q151.172 961.249 154.227 965.856 Q157.306 970.439 157.306 979.189 Q157.306 987.916 154.227 992.522 Q151.172 997.106 145.362 997.106 Q139.552 997.106 136.473 992.522 Q133.417 987.916 133.417 979.189 Q133.417 970.439 136.473 965.856 Q139.552 961.249 145.362 961.249 Z" fill="#000000" fill-rule="evenodd" fill-opacity="1" /><path clip-path="url(#clip630)" d="M179.69 977.8 Q183.047 978.518 184.922 980.786 Q186.82 983.055 186.82 986.388 Q186.82 991.504 183.301 994.305 Q179.783 997.106 173.301 997.106 Q171.126 997.106 168.811 996.666 Q166.519 996.249 164.065 995.393 L164.065 990.879 Q166.01 992.013 168.325 992.592 Q170.639 993.17 173.163 993.17 Q177.561 993.17 179.852 991.434 Q182.167 989.698 182.167 986.388 Q182.167 983.333 180.014 981.62 Q177.885 979.883 174.065 979.883 L170.038 979.883 L170.038 976.041 L174.251 976.041 Q177.7 976.041 179.528 974.675 Q181.357 973.286 181.357 970.694 Q181.357 968.032 179.459 966.62 Q177.584 965.184 174.065 965.184 Q172.144 965.184 169.945 965.601 Q167.746 966.018 165.107 966.897 L165.107 962.731 Q167.769 961.99 170.084 961.62 Q172.422 961.249 174.482 961.249 Q179.806 961.249 182.908 963.68 Q186.01 966.087 186.01 970.208 Q186.01 973.078 184.366 975.069 Q182.723 977.036 179.69 977.8 Z" fill="#000000" fill-rule="evenodd" fill-opacity="1" /><path clip-path="url(#clip630)" d="M99.4824 634.097 Q95.8713 634.097 94.0426 637.662 Q92.2371 641.204 92.2371 648.333 Q92.2371 655.44 94.0426 659.005 Q95.8713 662.546 99.4824 662.546 Q103.117 662.546 104.922 659.005 Q106.751 655.44 106.751 648.333 Q106.751 641.204 104.922 637.662 Q103.117 634.097 99.4824 634.097 M99.4824 630.394 Q105.293 630.394 108.348 635 Q111.427 639.583 111.427 648.333 Q111.427 657.06 108.348 661.667 Q105.293 666.25 99.4824 666.25 Q93.6723 666.25 90.5936 661.667 Q87.538 657.06 87.538 648.333 Q87.538 639.583 90.5936 635 Q93.6723 630.394 99.4824 630.394 Z" fill="#000000" fill-rule="evenodd" fill-opacity="1" /><path clip-path="url(#clip630)" d="M119.644 659.699 L124.529 659.699 L124.529 665.579 L119.644 665.579 L119.644 659.699 Z" fill="#000000" fill-rule="evenodd" fill-opacity="1" /><path clip-path="url(#clip630)" d="M144.714 634.097 Q141.103 634.097 139.274 637.662 Q137.468 641.204 137.468 648.333 Q137.468 655.44 139.274 659.005 Q141.103 662.546 144.714 662.546 Q148.348 662.546 150.153 659.005 Q151.982 655.44 151.982 648.333 Q151.982 641.204 150.153 637.662 Q148.348 634.097 144.714 634.097 M144.714 630.394 Q150.524 630.394 153.579 635 Q156.658 639.583 156.658 648.333 Q156.658 657.06 153.579 661.667 Q150.524 666.25 144.714 666.25 Q138.903 666.25 135.825 661.667 Q132.769 657.06 132.769 648.333 Q132.769 639.583 135.825 635 Q138.903 630.394 144.714 630.394 Z" fill="#000000" fill-rule="evenodd" fill-opacity="1" /><path clip-path="url(#clip630)" d="M174.876 634.097 Q171.264 634.097 169.436 637.662 Q167.63 641.204 167.63 648.333 Q167.63 655.44 169.436 659.005 Q171.264 662.546 174.876 662.546 Q178.51 662.546 180.315 659.005 Q182.144 655.44 182.144 648.333 Q182.144 641.204 180.315 637.662 Q178.51 634.097 174.876 634.097 M174.876 630.394 Q180.686 630.394 183.741 635 Q186.82 639.583 186.82 648.333 Q186.82 657.06 183.741 661.667 Q180.686 666.25 174.876 666.25 Q169.065 666.25 165.987 661.667 Q162.931 657.06 162.931 648.333 Q162.931 639.583 165.987 635 Q169.065 630.394 174.876 630.394 Z" fill="#000000" fill-rule="evenodd" fill-opacity="1" /><path clip-path="url(#clip630)" d="M100.131 303.242 Q96.5195 303.242 94.6908 306.806 Q92.8852 310.348 92.8852 317.478 Q92.8852 324.584 94.6908 328.149 Q96.5195 331.691 100.131 331.691 Q103.765 331.691 105.57 328.149 Q107.399 324.584 107.399 317.478 Q107.399 310.348 105.57 306.806 Q103.765 303.242 100.131 303.242 M100.131 299.538 Q105.941 299.538 108.996 304.144 Q112.075 308.728 112.075 317.478 Q112.075 326.204 108.996 330.811 Q105.941 335.394 100.131 335.394 Q94.3204 335.394 91.2417 330.811 Q88.1862 326.204 88.1862 317.478 Q88.1862 308.728 91.2417 304.144 Q94.3204 299.538 100.131 299.538 Z" fill="#000000" fill-rule="evenodd" fill-opacity="1" /><path clip-path="url(#clip630)" d="M120.292 328.843 L125.177 328.843 L125.177 334.723 L120.292 334.723 L120.292 328.843 Z" fill="#000000" fill-rule="evenodd" fill-opacity="1" /><path clip-path="url(#clip630)" d="M145.362 303.242 Q141.751 303.242 139.922 306.806 Q138.116 310.348 138.116 317.478 Q138.116 324.584 139.922 328.149 Q141.751 331.691 145.362 331.691 Q148.996 331.691 150.802 328.149 Q152.63 324.584 152.63 317.478 Q152.63 310.348 150.802 306.806 Q148.996 303.242 145.362 303.242 M145.362 299.538 Q151.172 299.538 154.227 304.144 Q157.306 308.728 157.306 317.478 Q157.306 326.204 154.227 330.811 Q151.172 335.394 145.362 335.394 Q139.552 335.394 136.473 330.811 Q133.417 326.204 133.417 317.478 Q133.417 308.728 136.473 304.144 Q139.552 299.538 145.362 299.538 Z" fill="#000000" fill-rule="evenodd" fill-opacity="1" /><path clip-path="url(#clip630)" d="M179.69 316.089 Q183.047 316.806 184.922 319.075 Q186.82 321.343 186.82 324.677 Q186.82 329.792 183.301 332.593 Q179.783 335.394 173.301 335.394 Q171.126 335.394 168.811 334.954 Q166.519 334.538 164.065 333.681 L164.065 329.167 Q166.01 330.302 168.325 330.88 Q170.639 331.459 173.163 331.459 Q177.561 331.459 179.852 329.723 Q182.167 327.987 182.167 324.677 Q182.167 321.621 180.014 319.908 Q177.885 318.172 174.065 318.172 L170.038 318.172 L170.038 314.33 L174.251 314.33 Q177.7 314.33 179.528 312.964 Q181.357 311.575 181.357 308.982 Q181.357 306.32 179.459 304.908 Q177.584 303.473 174.065 303.473 Q172.144 303.473 169.945 303.89 Q167.746 304.306 165.107 305.186 L165.107 301.019 Q167.769 300.279 170.084 299.908 Q172.422 299.538 174.482 299.538 Q179.806 299.538 182.908 301.968 Q186.01 304.376 186.01 308.496 Q186.01 311.367 184.366 313.357 Q182.723 315.325 179.69 316.089 Z" fill="#000000" fill-rule="evenodd" fill-opacity="1" /><polyline clip-path="url(#clip632)" style="stroke:#009af9; stroke-linecap:butt; stroke-linejoin:round; stroke-width:4; stroke-opacity:1; fill:none" points="
  295.45,96.8724 310.274,100.48 447.348,135.589 529.724,158.318 599.371,178.575 675.028,201.739 744.777,224.239 819.555,249.67 906.193,280.961 983.186,310.55 
  1050.7,337.989 1124.31,369.62 1198.36,403.386 1280.23,443.189 1358.13,483.687 1439.12,528.771 1507.3,569.288 1590.55,622.243 1666.8,674.444 1737.23,726.104 
  1808.57,782.137 1848.54,815.298 1888.52,849.813 1924.74,882.319 1960.97,916.057 2002.44,956.278 2043.92,998.298 2082.32,1038.9 2120.72,1081.23 2158.58,1124.76 
  2196.44,1170.16 2233.2,1216.14 2269.96,1264.1 2307.64,1315.45 2345.32,1369.13 2386.61,1430.8 2427.89,1495.64 2457.88,1544.87 2487.86,1595.97 2517.85,1649.06 
  2547.84,1704.24 2553.99,1715.82 2560.14,1727.51 2566.29,1739.28 2572.45,1751.15 
  "/>
<path clip-path="url(#clip630)" d="
M2239.69 209.375 L2560.3 209.375 L2560.3 105.695 L2239.69 105.695  Z
  " fill="#ffffff" fill-rule="evenodd" fill-opacity="1"/>
<polyline clip-path="url(#clip630)" style="stroke:#000000; stroke-linecap:butt; stroke-linejoin:round; stroke-width:4; stroke-opacity:1; fill:none" points="
  2239.69,209.375 2560.3,209.375 2560.3,105.695 2239.69,105.695 2239.69,209.375 
  "/>
<polyline clip-path="url(#clip630)" style="stroke:#009af9; stroke-linecap:butt; stroke-linejoin:round; stroke-width:4; stroke-opacity:1; fill:none" points="
  2266.51,157.535 2427.42,157.535 
  "/>
<path clip-path="url(#clip630)" d="M2468.08 177.223 Q2466.27 181.852 2464.56 183.264 Q2462.85 184.676 2459.98 184.676 L2456.57 184.676 L2456.57 181.112 L2459.07 181.112 Q2460.83 181.112 2461.81 180.278 Q2462.78 179.445 2463.96 176.343 L2464.72 174.399 L2454.24 148.889 L2458.75 148.889 L2466.85 169.167 L2474.95 148.889 L2479.47 148.889 L2468.08 177.223 Z" fill="#000000" fill-rule="evenodd" fill-opacity="1" /><path clip-path="url(#clip630)" d="M2486.76 170.88 L2494.4 170.88 L2494.4 144.515 L2486.09 146.181 L2486.09 141.922 L2494.35 140.255 L2499.03 140.255 L2499.03 170.88 L2506.67 170.88 L2506.67 174.815 L2486.76 174.815 L2486.76 170.88 Z" fill="#000000" fill-rule="evenodd" fill-opacity="1" /></svg>
