<?xml version="1.0" encoding="utf-8"?>
<svg xmlns="http://www.w3.org/2000/svg" xmlns:xlink="http://www.w3.org/1999/xlink" width="672" height="480" viewBox="0 0 2688 1920">
<defs>
  <clipPath id="clip800">
    <rect x="0" y="0" width="2688" height="1920"/>
  </clipPath>
</defs>
<path clip-path="url(#clip800)" d="
M0 1920 L2688 1920 L2688 0 L0 0  Z
  " fill="#ffffff" fill-rule="evenodd" fill-opacity="1"/>
<defs>
  <clipPath id="clip801">
    <rect x="537" y="0" width="1883" height="1883"/>
  </clipPath>
</defs>
<path clip-path="url(#clip800)" d="
M501.139 1800.78 L2254.67 1800.78 L2254.67 47.2441 L501.139 47.2441  Z
  " fill="#ffffff" fill-rule="evenodd" fill-opacity="1"/>
<defs>
  <clipPath id="clip802">
    <rect x="501" y="47" width="1755" height="1755"/>
  </clipPath>
</defs>
<polyline clip-path="url(#clip802)" style="stroke:#000000; stroke-linecap:butt; stroke-linejoin:round; stroke-width:2; stroke-opacity:0.1; fill:none" points="
  501.139,1800.78 501.139,47.2441 
  "/>
<polyline clip-path="url(#clip802)" style="stroke:#000000; stroke-linecap:butt; stroke-linejoin:round; stroke-width:2; stroke-opacity:0.1; fill:none" points="
  939.523,1800.78 939.523,47.2441 
  "/>
<polyline clip-path="url(#clip802)" style="stroke:#000000; stroke-linecap:butt; stroke-linejoin:round; stroke-width:2; stroke-opacity:0.1; fill:none" points="
  1377.91,1800.78 1377.91,47.2441 
  "/>
<polyline clip-path="url(#clip802)" style="stroke:#000000; stroke-linecap:butt; stroke-linejoin:round; stroke-width:2; stroke-opacity:0.1; fill:none" points="
  1816.29,1800.78 1816.29,47.2441 
  "/>
<polyline clip-path="url(#clip802)" style="stroke:#000000; stroke-linecap:butt; stroke-linejoin:round; stroke-width:2; stroke-opacity:0.1; fill:none" points="
  2254.67,1800.78 2254.67,47.2441 
  "/>
<polyline clip-path="url(#clip800)" style="stroke:#000000; stroke-linecap:butt; stroke-linejoin:round; stroke-width:4; stroke-opacity:1; fill:none" points="
  501.139,1800.78 2254.67,1800.78 
  "/>
<polyline clip-path="url(#clip800)" style="stroke:#000000; stroke-linecap:butt; stroke-linejoin:round; stroke-width:4; stroke-opacity:1; fill:none" points="
  501.139,1800.78 501.139,1781.88 
  "/>
<polyline clip-path="url(#clip800)" style="stroke:#000000; stroke-linecap:butt; stroke-linejoin:round; stroke-width:4; stroke-opacity:1; fill:none" points="
  939.523,1800.78 939.523,1781.88 
  "/>
<polyline clip-path="url(#clip800)" style="stroke:#000000; stroke-linecap:butt; stroke-linejoin:round; stroke-width:4; stroke-opacity:1; fill:none" points="
  1377.91,1800.78 1377.91,1781.88 
  "/>
<polyline clip-path="url(#clip800)" style="stroke:#000000; stroke-linecap:butt; stroke-linejoin:round; stroke-width:4; stroke-opacity:1; fill:none" points="
  1816.29,1800.78 1816.29,1781.88 
  "/>
<polyline clip-path="url(#clip800)" style="stroke:#000000; stroke-linecap:butt; stroke-linejoin:round; stroke-width:4; stroke-opacity:1; fill:none" points="
  2254.67,1800.78 2254.67,1781.88 
  "/>
<path clip-path="url(#clip800)" d="M501.139 1834 Q497.528 1834 495.699 1837.57 Q493.894 1841.11 493.894 1848.24 Q493.894 1855.34 495.699 1858.91 Q497.528 1862.45 501.139 1862.45 Q504.773 1862.45 506.579 1858.91 Q508.407 1855.34 508.407 1848.24 Q508.407 1841.11 506.579 1837.57 Q504.773 1834 501.139 1834 M501.139 1830.3 Q506.949 1830.3 510.005 1834.9 Q513.083 1839.49 513.083 1848.24 Q513.083 1856.96 510.005 1861.57 Q506.949 1866.15 501.139 1866.15 Q495.329 1866.15 492.25 1861.57 Q489.195 1856.96 489.195 1848.24 Q489.195 1839.49 492.25 1834.9 Q495.329 1830.3 501.139 1830.3 Z" fill="#000000" fill-rule="evenodd" fill-opacity="1" /><path clip-path="url(#clip800)" d="M934.176 1861.55 L950.495 1861.55 L950.495 1865.48 L928.551 1865.48 L928.551 1861.55 Q931.213 1858.79 935.796 1854.16 Q940.402 1849.51 941.583 1848.17 Q943.828 1845.65 944.708 1843.91 Q945.611 1842.15 945.611 1840.46 Q945.611 1837.71 943.666 1835.97 Q941.745 1834.23 938.643 1834.23 Q936.444 1834.23 933.99 1835 Q931.56 1835.76 928.782 1837.31 L928.782 1832.59 Q931.606 1831.46 934.06 1830.88 Q936.513 1830.3 938.551 1830.3 Q943.921 1830.3 947.115 1832.98 Q950.31 1835.67 950.31 1840.16 Q950.31 1842.29 949.5 1844.21 Q948.713 1846.11 946.606 1848.7 Q946.027 1849.37 942.925 1852.59 Q939.824 1855.78 934.176 1861.55 Z" fill="#000000" fill-rule="evenodd" fill-opacity="1" /><path clip-path="url(#clip800)" d="M1380.92 1835 L1369.11 1853.45 L1380.92 1853.45 L1380.92 1835 M1379.69 1830.92 L1385.57 1830.92 L1385.57 1853.45 L1390.5 1853.45 L1390.5 1857.34 L1385.57 1857.34 L1385.57 1865.48 L1380.92 1865.48 L1380.92 1857.34 L1365.31 1857.34 L1365.31 1852.82 L1379.69 1830.92 Z" fill="#000000" fill-rule="evenodd" fill-opacity="1" /><path clip-path="url(#clip800)" d="M1816.7 1846.34 Q1813.55 1846.34 1811.7 1848.49 Q1809.87 1850.65 1809.87 1854.4 Q1809.87 1858.12 1811.7 1860.3 Q1813.55 1862.45 1816.7 1862.45 Q1819.84 1862.45 1821.67 1860.3 Q1823.52 1858.12 1823.52 1854.4 Q1823.52 1850.65 1821.67 1848.49 Q1819.84 1846.34 1816.7 1846.34 M1825.98 1831.69 L1825.98 1835.95 Q1824.22 1835.11 1822.41 1834.67 Q1820.63 1834.23 1818.87 1834.23 Q1814.24 1834.23 1811.79 1837.36 Q1809.36 1840.48 1809.01 1846.8 Q1810.38 1844.79 1812.44 1843.72 Q1814.5 1842.64 1816.97 1842.64 Q1822.18 1842.64 1825.19 1845.81 Q1828.22 1848.96 1828.22 1854.4 Q1828.22 1859.72 1825.08 1862.94 Q1821.93 1866.15 1816.7 1866.15 Q1810.7 1866.15 1807.53 1861.57 Q1804.36 1856.96 1804.36 1848.24 Q1804.36 1840.04 1808.25 1835.18 Q1812.14 1830.3 1818.69 1830.3 Q1820.45 1830.3 1822.23 1830.65 Q1824.03 1830.99 1825.98 1831.69 Z" fill="#000000" fill-rule="evenodd" fill-opacity="1" /><path clip-path="url(#clip800)" d="M2254.67 1849.07 Q2251.34 1849.07 2249.42 1850.85 Q2247.52 1852.64 2247.52 1855.76 Q2247.52 1858.89 2249.42 1860.67 Q2251.34 1862.45 2254.67 1862.45 Q2258.01 1862.45 2259.93 1860.67 Q2261.85 1858.86 2261.85 1855.76 Q2261.85 1852.64 2259.93 1850.85 Q2258.03 1849.07 2254.67 1849.07 M2250 1847.08 Q2246.99 1846.34 2245.3 1844.28 Q2243.63 1842.22 2243.63 1839.26 Q2243.63 1835.11 2246.57 1832.71 Q2249.54 1830.3 2254.67 1830.3 Q2259.84 1830.3 2262.78 1832.71 Q2265.72 1835.11 2265.72 1839.26 Q2265.72 1842.22 2264.03 1844.28 Q2262.36 1846.34 2259.37 1847.08 Q2262.75 1847.87 2264.63 1850.16 Q2266.53 1852.45 2266.53 1855.76 Q2266.53 1860.78 2263.45 1863.47 Q2260.39 1866.15 2254.67 1866.15 Q2248.96 1866.15 2245.88 1863.47 Q2242.82 1860.78 2242.82 1855.76 Q2242.82 1852.45 2244.72 1850.16 Q2246.62 1847.87 2250 1847.08 M2248.29 1839.7 Q2248.29 1842.38 2249.95 1843.89 Q2251.64 1845.39 2254.67 1845.39 Q2257.68 1845.39 2259.37 1843.89 Q2261.09 1842.38 2261.09 1839.7 Q2261.09 1837.01 2259.37 1835.51 Q2257.68 1834 2254.67 1834 Q2251.64 1834 2249.95 1835.51 Q2248.29 1837.01 2248.29 1839.7 Z" fill="#000000" fill-rule="evenodd" fill-opacity="1" /><polyline clip-path="url(#clip802)" style="stroke:#000000; stroke-linecap:butt; stroke-linejoin:round; stroke-width:2; stroke-opacity:0.1; fill:none" points="
  501.139,1800.78 2254.67,1800.78 
  "/>
<polyline clip-path="url(#clip802)" style="stroke:#000000; stroke-linecap:butt; stroke-linejoin:round; stroke-width:2; stroke-opacity:0.1; fill:none" points="
  501.139,1362.4 2254.67,1362.4 
  "/>
<polyline clip-path="url(#clip802)" style="stroke:#000000; stroke-linecap:butt; stroke-linejoin:round; stroke-width:2; stroke-opacity:0.1; fill:none" points="
  501.139,924.012 2254.67,924.012 
  "/>
<polyline clip-path="url(#clip802)" style="stroke:#000000; stroke-linecap:butt; stroke-linejoin:round; stroke-width:2; stroke-opacity:0.1; fill:none" points="
  501.139,485.628 2254.67,485.628 
  "/>
<polyline clip-path="url(#clip802)" style="stroke:#000000; stroke-linecap:butt; stroke-linejoin:round; stroke-width:2; stroke-opacity:0.1; fill:none" points="
  501.139,47.2441 2254.67,47.2441 
  "/>
<polyline clip-path="url(#clip800)" style="stroke:#000000; stroke-linecap:butt; stroke-linejoin:round; stroke-width:4; stroke-opacity:1; fill:none" points="
  501.139,1800.78 501.139,47.2441 
  "/>
<polyline clip-path="url(#clip800)" style="stroke:#000000; stroke-linecap:butt; stroke-linejoin:round; stroke-width:4; stroke-opacity:1; fill:none" points="
  501.139,1800.78 514.259,1800.78 
  "/>
<polyline clip-path="url(#clip800)" style="stroke:#000000; stroke-linecap:butt; stroke-linejoin:round; stroke-width:4; stroke-opacity:1; fill:none" points="
  501.139,1362.4 514.259,1362.4 
  "/>
<polyline clip-path="url(#clip800)" style="stroke:#000000; stroke-linecap:butt; stroke-linejoin:round; stroke-width:4; stroke-opacity:1; fill:none" points="
  501.139,924.012 514.259,924.012 
  "/>
<polyline clip-path="url(#clip800)" style="stroke:#000000; stroke-linecap:butt; stroke-linejoin:round; stroke-width:4; stroke-opacity:1; fill:none" points="
  501.139,485.628 514.259,485.628 
  "/>
<polyline clip-path="url(#clip800)" style="stroke:#000000; stroke-linecap:butt; stroke-linejoin:round; stroke-width:4; stroke-opacity:1; fill:none" points="
  501.139,47.2441 514.259,47.2441 
  "/>
<path clip-path="url(#clip800)" d="M448.875 1786.58 Q445.263 1786.58 443.435 1790.14 Q441.629 1793.68 441.629 1800.81 Q441.629 1807.92 443.435 1811.49 Q445.263 1815.03 448.875 1815.03 Q452.509 1815.03 454.314 1811.49 Q456.143 1807.92 456.143 1800.81 Q456.143 1793.68 454.314 1790.14 Q452.509 1786.58 448.875 1786.58 M448.875 1782.87 Q454.685 1782.87 457.74 1787.48 Q460.819 1792.06 460.819 1800.81 Q460.819 1809.54 457.74 1814.15 Q454.685 1818.73 448.875 1818.73 Q443.064 1818.73 439.986 1814.15 Q436.93 1809.54 436.93 1800.81 Q436.93 1792.06 439.986 1787.48 Q443.064 1782.87 448.875 1782.87 Z" fill="#000000" fill-rule="evenodd" fill-opacity="1" /><path clip-path="url(#clip800)" d="M444.5 1375.74 L460.819 1375.74 L460.819 1379.68 L438.875 1379.68 L438.875 1375.74 Q441.537 1372.99 446.12 1368.36 Q450.726 1363.7 451.907 1362.36 Q454.152 1359.84 455.032 1358.1 Q455.935 1356.34 455.935 1354.65 Q455.935 1351.9 453.99 1350.16 Q452.069 1348.43 448.967 1348.43 Q446.768 1348.43 444.314 1349.19 Q441.884 1349.95 439.106 1351.5 L439.106 1346.78 Q441.93 1345.65 444.384 1345.07 Q446.838 1344.49 448.875 1344.49 Q454.245 1344.49 457.439 1347.18 Q460.634 1349.86 460.634 1354.35 Q460.634 1356.48 459.824 1358.4 Q459.037 1360.3 456.93 1362.89 Q456.351 1363.56 453.25 1366.78 Q450.148 1369.98 444.5 1375.74 Z" fill="#000000" fill-rule="evenodd" fill-opacity="1" /><path clip-path="url(#clip800)" d="M451.236 910.806 L439.43 929.255 L451.236 929.255 L451.236 910.806 M450.009 906.732 L455.888 906.732 L455.888 929.255 L460.819 929.255 L460.819 933.144 L455.888 933.144 L455.888 941.292 L451.236 941.292 L451.236 933.144 L435.634 933.144 L435.634 928.63 L450.009 906.732 Z" fill="#000000" fill-rule="evenodd" fill-opacity="1" /><path clip-path="url(#clip800)" d="M449.291 483.764 Q446.143 483.764 444.291 485.917 Q442.463 488.07 442.463 491.82 Q442.463 495.547 444.291 497.723 Q446.143 499.876 449.291 499.876 Q452.439 499.876 454.268 497.723 Q456.12 495.547 456.12 491.82 Q456.12 488.07 454.268 485.917 Q452.439 483.764 449.291 483.764 M458.574 469.112 L458.574 473.371 Q456.814 472.538 455.009 472.098 Q453.226 471.658 451.467 471.658 Q446.838 471.658 444.384 474.783 Q441.953 477.908 441.606 484.227 Q442.972 482.214 445.032 481.149 Q447.092 480.061 449.569 480.061 Q454.777 480.061 457.787 483.232 Q460.819 486.38 460.819 491.82 Q460.819 497.144 457.671 500.362 Q454.523 503.579 449.291 503.579 Q443.296 503.579 440.125 498.996 Q436.953 494.389 436.953 485.663 Q436.953 477.468 440.842 472.607 Q444.731 467.723 451.282 467.723 Q453.041 467.723 454.824 468.07 Q456.629 468.417 458.574 469.112 Z" fill="#000000" fill-rule="evenodd" fill-opacity="1" /><path clip-path="url(#clip800)" d="M448.967 48.1121 Q445.634 48.1121 443.713 49.8945 Q441.814 51.6769 441.814 54.8019 Q441.814 57.9269 443.713 59.7093 Q445.634 61.4917 448.967 61.4917 Q452.3 61.4917 454.222 59.7093 Q456.143 57.9038 456.143 54.8019 Q456.143 51.6769 454.222 49.8945 Q452.324 48.1121 448.967 48.1121 M444.291 46.1214 Q441.282 45.3807 439.592 43.3205 Q437.926 41.2603 437.926 38.2974 Q437.926 34.1539 440.865 31.7465 Q443.828 29.3391 448.967 29.3391 Q454.129 29.3391 457.069 31.7465 Q460.009 34.1539 460.009 38.2974 Q460.009 41.2603 458.319 43.3205 Q456.652 45.3807 453.666 46.1214 Q457.046 46.9084 458.921 49.2001 Q460.819 51.4918 460.819 54.8019 Q460.819 59.825 457.74 62.5102 Q454.685 65.1954 448.967 65.1954 Q443.25 65.1954 440.171 62.5102 Q437.115 59.825 437.115 54.8019 Q437.115 51.4918 439.013 49.2001 Q440.912 46.9084 444.291 46.1214 M442.578 38.7372 Q442.578 41.4224 444.245 42.927 Q445.935 44.4316 448.967 44.4316 Q451.976 44.4316 453.666 42.927 Q455.379 41.4224 455.379 38.7372 Q455.379 36.052 453.666 34.5474 Q451.976 33.0428 448.967 33.0428 Q445.935 33.0428 444.245 34.5474 Q442.578 36.052 442.578 38.7372 Z" fill="#000000" fill-rule="evenodd" fill-opacity="1" /><polyline clip-path="url(#clip802)" style="stroke:#009af9; stroke-linecap:butt; stroke-linejoin:round; stroke-width:4; stroke-opacity:1; fill:none" points="
  501.139,1581.59 503.993,1578.71 530.383,1550.3 546.243,1531.51 559.652,1514.52 574.218,1494.85 587.647,1475.52 602.043,1453.44 618.724,1425.98 633.547,1399.76 
  646.546,1375.25 660.718,1346.83 674.974,1316.33 690.736,1280.21 705.734,1243.34 721.327,1202.24 734.454,1165.3 750.48,1117.1 765.161,1069.74 778.72,1023.09 
  792.455,972.796 800.151,943.207 807.848,912.56 814.822,883.845 821.796,854.201 829.781,819.082 837.766,782.66 845.16,747.733 852.553,711.607 859.842,674.779 
  867.131,636.705 874.208,598.507 881.285,559.056 888.54,517.27 895.795,474.077 903.743,425.084 911.692,374.281 923.239,297.122 934.785,215.789 937.154,198.567 
  939.523,181.158 
  "/>
<circle clip-path="url(#clip802)" cx="501.139" cy="1581.59" r="14.4" fill="#e26f46" fill-rule="evenodd" fill-opacity="1" stroke="#000000" stroke-opacity="1" stroke-width="3.84"/>
<circle clip-path="url(#clip802)" cx="519.405" cy="1562.54" r="14.4" fill="#e26f46" fill-rule="evenodd" fill-opacity="1" stroke="#000000" stroke-opacity="1" stroke-width="3.84"/>
<circle clip-path="url(#clip802)" cx="537.671" cy="1541.83" r="14.4" fill="#e26f46" fill-rule="evenodd" fill-opacity="1" stroke="#000000" stroke-opacity="1" stroke-width="3.84"/>
<circle clip-path="url(#clip802)" cx="555.937" cy="1519.33" r="14.4" fill="#e26f46" fill-rule="evenodd" fill-opacity="1" stroke="#000000" stroke-opacity="1" stroke-width="3.84"/>
<circle clip-path="url(#clip802)" cx="574.203" cy="1494.87" r="14.4" fill="#e26f46" fill-rule="evenodd" fill-opacity="1" stroke="#000000" stroke-opacity="1" stroke-width="3.84"/>
<circle clip-path="url(#clip802)" cx="592.469" cy="1468.29" r="14.4" fill="#e26f46" fill-rule="evenodd" fill-opacity="1" stroke="#000000" stroke-opacity="1" stroke-width="3.84"/>
<circle clip-path="url(#clip802)" cx="610.735" cy="1439.39" r="14.4" fill="#e26f46" fill-rule="evenodd" fill-opacity="1" stroke="#000000" stroke-opacity="1" stroke-width="3.84"/>
<circle clip-path="url(#clip802)" cx="629.001" cy="1407.99" r="14.4" fill="#e26f46" fill-rule="evenodd" fill-opacity="1" stroke="#000000" stroke-opacity="1" stroke-width="3.84"/>
<circle clip-path="url(#clip802)" cx="647.267" cy="1373.85" r="14.4" fill="#e26f46" fill-rule="evenodd" fill-opacity="1" stroke="#000000" stroke-opacity="1" stroke-width="3.84"/>
<circle clip-path="url(#clip802)" cx="665.533" cy="1336.75" r="14.4" fill="#e26f46" fill-rule="evenodd" fill-opacity="1" stroke="#000000" stroke-opacity="1" stroke-width="3.84"/>
<circle clip-path="url(#clip802)" cx="683.799" cy="1296.42" r="14.4" fill="#e26f46" fill-rule="evenodd" fill-opacity="1" stroke="#000000" stroke-opacity="1" stroke-width="3.84"/>
<circle clip-path="url(#clip802)" cx="702.065" cy="1252.59" r="14.4" fill="#e26f46" fill-rule="evenodd" fill-opacity="1" stroke="#000000" stroke-opacity="1" stroke-width="3.84"/>
<circle clip-path="url(#clip802)" cx="720.331" cy="1204.95" r="14.4" fill="#e26f46" fill-rule="evenodd" fill-opacity="1" stroke="#000000" stroke-opacity="1" stroke-width="3.84"/>
<circle clip-path="url(#clip802)" cx="738.597" cy="1153.17" r="14.4" fill="#e26f46" fill-rule="evenodd" fill-opacity="1" stroke="#000000" stroke-opacity="1" stroke-width="3.84"/>
<circle clip-path="url(#clip802)" cx="756.863" cy="1096.89" r="14.4" fill="#e26f46" fill-rule="evenodd" fill-opacity="1" stroke="#000000" stroke-opacity="1" stroke-width="3.84"/>
<circle clip-path="url(#clip802)" cx="775.129" cy="1035.72" r="14.4" fill="#e26f46" fill-rule="evenodd" fill-opacity="1" stroke="#000000" stroke-opacity="1" stroke-width="3.84"/>
<circle clip-path="url(#clip802)" cx="793.395" cy="969.238" r="14.4" fill="#e26f46" fill-rule="evenodd" fill-opacity="1" stroke="#000000" stroke-opacity="1" stroke-width="3.84"/>
<circle clip-path="url(#clip802)" cx="811.661" cy="896.974" r="14.4" fill="#e26f46" fill-rule="evenodd" fill-opacity="1" stroke="#000000" stroke-opacity="1" stroke-width="3.84"/>
<circle clip-path="url(#clip802)" cx="829.927" cy="818.429" r="14.4" fill="#e26f46" fill-rule="evenodd" fill-opacity="1" stroke="#000000" stroke-opacity="1" stroke-width="3.84"/>
<circle clip-path="url(#clip802)" cx="848.193" cy="733.059" r="14.4" fill="#e26f46" fill-rule="evenodd" fill-opacity="1" stroke="#000000" stroke-opacity="1" stroke-width="3.84"/>
<circle clip-path="url(#clip802)" cx="866.459" cy="640.27" r="14.4" fill="#e26f46" fill-rule="evenodd" fill-opacity="1" stroke="#000000" stroke-opacity="1" stroke-width="3.84"/>
<circle clip-path="url(#clip802)" cx="884.725" cy="539.417" r="14.4" fill="#e26f46" fill-rule="evenodd" fill-opacity="1" stroke="#000000" stroke-opacity="1" stroke-width="3.84"/>
<circle clip-path="url(#clip802)" cx="902.991" cy="429.8" r="14.4" fill="#e26f46" fill-rule="evenodd" fill-opacity="1" stroke="#000000" stroke-opacity="1" stroke-width="3.84"/>
<circle clip-path="url(#clip802)" cx="921.257" cy="310.656" r="14.4" fill="#e26f46" fill-rule="evenodd" fill-opacity="1" stroke="#000000" stroke-opacity="1" stroke-width="3.84"/>
<circle clip-path="url(#clip802)" cx="939.523" cy="181.158" r="14.4" fill="#e26f46" fill-rule="evenodd" fill-opacity="1" stroke="#000000" stroke-opacity="1" stroke-width="3.84"/>
<polyline clip-path="url(#clip802)" style="stroke:#3da44d; stroke-linecap:butt; stroke-linejoin:round; stroke-width:4; stroke-opacity:1; fill:none" points="
  720.331,1800.78 722.61,1798.51 724.89,1796.27 727.169,1794.05 729.448,1791.85 739.987,1781.96 750.525,1772.49 761.063,1763.42 771.601,1754.71 792.677,1738.26 
  813.753,1722.96 826.419,1714.26 839.085,1705.88 851.751,1697.82 864.417,1690.04 885.835,1677.48 907.253,1665.61 930.519,1653.4 953.784,1641.83 975.233,1631.68 
  996.682,1621.98 1019.68,1612.04 1042.67,1602.53 1069.32,1592 1095.96,1581.96 1119.64,1573.4 1143.31,1565.17 1164.07,1558.19 1184.84,1551.43 1230.11,1537.38 
  1275.65,1524.1 1326.01,1510.29 1373.91,1497.92 1423.73,1485.75 1465.66,1476.01 1516.86,1464.67 1563.76,1454.78 1607.07,1446.02 1650.95,1437.49 1700.12,1428.31 
  1744.68,1420.31 1795.7,1411.5 1842.93,1403.64 1889.5,1396.17 1934.72,1389.14 1981.07,1382.17 2031.85,1374.77 2105.63,1364.45 2120.76,1362.4 
  "/>
<circle clip-path="url(#clip802)" cx="720.331" cy="1800.78" r="14.4" fill="#0000ff" fill-rule="evenodd" fill-opacity="1" stroke="#000000" stroke-opacity="1" stroke-width="3.84"/>
<circle clip-path="url(#clip802)" cx="739.38" cy="1782.51" r="14.4" fill="#0000ff" fill-rule="evenodd" fill-opacity="1" stroke="#000000" stroke-opacity="1" stroke-width="3.84"/>
<circle clip-path="url(#clip802)" cx="760.084" cy="1764.25" r="14.4" fill="#0000ff" fill-rule="evenodd" fill-opacity="1" stroke="#000000" stroke-opacity="1" stroke-width="3.84"/>
<circle clip-path="url(#clip802)" cx="782.587" cy="1745.98" r="14.4" fill="#0000ff" fill-rule="evenodd" fill-opacity="1" stroke="#000000" stroke-opacity="1" stroke-width="3.84"/>
<circle clip-path="url(#clip802)" cx="807.046" cy="1727.72" r="14.4" fill="#0000ff" fill-rule="evenodd" fill-opacity="1" stroke="#000000" stroke-opacity="1" stroke-width="3.84"/>
<circle clip-path="url(#clip802)" cx="833.63" cy="1709.45" r="14.4" fill="#0000ff" fill-rule="evenodd" fill-opacity="1" stroke="#000000" stroke-opacity="1" stroke-width="3.84"/>
<circle clip-path="url(#clip802)" cx="862.525" cy="1691.18" r="14.4" fill="#0000ff" fill-rule="evenodd" fill-opacity="1" stroke="#000000" stroke-opacity="1" stroke-width="3.84"/>
<circle clip-path="url(#clip802)" cx="893.931" cy="1672.92" r="14.4" fill="#0000ff" fill-rule="evenodd" fill-opacity="1" stroke="#000000" stroke-opacity="1" stroke-width="3.84"/>
<circle clip-path="url(#clip802)" cx="928.066" cy="1654.65" r="14.4" fill="#0000ff" fill-rule="evenodd" fill-opacity="1" stroke="#000000" stroke-opacity="1" stroke-width="3.84"/>
<circle clip-path="url(#clip802)" cx="965.168" cy="1636.39" r="14.4" fill="#0000ff" fill-rule="evenodd" fill-opacity="1" stroke="#000000" stroke-opacity="1" stroke-width="3.84"/>
<circle clip-path="url(#clip802)" cx="1005.49" cy="1618.12" r="14.4" fill="#0000ff" fill-rule="evenodd" fill-opacity="1" stroke="#000000" stroke-opacity="1" stroke-width="3.84"/>
<circle clip-path="url(#clip802)" cx="1049.32" cy="1599.85" r="14.4" fill="#0000ff" fill-rule="evenodd" fill-opacity="1" stroke="#000000" stroke-opacity="1" stroke-width="3.84"/>
<circle clip-path="url(#clip802)" cx="1096.96" cy="1581.59" r="14.4" fill="#0000ff" fill-rule="evenodd" fill-opacity="1" stroke="#000000" stroke-opacity="1" stroke-width="3.84"/>
<circle clip-path="url(#clip802)" cx="1148.74" cy="1563.32" r="14.4" fill="#0000ff" fill-rule="evenodd" fill-opacity="1" stroke="#000000" stroke-opacity="1" stroke-width="3.84"/>
<circle clip-path="url(#clip802)" cx="1205.02" cy="1545.06" r="14.4" fill="#0000ff" fill-rule="evenodd" fill-opacity="1" stroke="#000000" stroke-opacity="1" stroke-width="3.84"/>
<circle clip-path="url(#clip802)" cx="1266.19" cy="1526.79" r="14.4" fill="#0000ff" fill-rule="evenodd" fill-opacity="1" stroke="#000000" stroke-opacity="1" stroke-width="3.84"/>
<circle clip-path="url(#clip802)" cx="1332.68" cy="1508.52" r="14.4" fill="#0000ff" fill-rule="evenodd" fill-opacity="1" stroke="#000000" stroke-opacity="1" stroke-width="3.84"/>
<circle clip-path="url(#clip802)" cx="1404.94" cy="1490.26" r="14.4" fill="#0000ff" fill-rule="evenodd" fill-opacity="1" stroke="#000000" stroke-opacity="1" stroke-width="3.84"/>
<circle clip-path="url(#clip802)" cx="1483.49" cy="1471.99" r="14.4" fill="#0000ff" fill-rule="evenodd" fill-opacity="1" stroke="#000000" stroke-opacity="1" stroke-width="3.84"/>
<circle clip-path="url(#clip802)" cx="1568.86" cy="1453.73" r="14.4" fill="#0000ff" fill-rule="evenodd" fill-opacity="1" stroke="#000000" stroke-opacity="1" stroke-width="3.84"/>
<circle clip-path="url(#clip802)" cx="1661.65" cy="1435.46" r="14.4" fill="#0000ff" fill-rule="evenodd" fill-opacity="1" stroke="#000000" stroke-opacity="1" stroke-width="3.84"/>
<circle clip-path="url(#clip802)" cx="1762.5" cy="1417.19" r="14.4" fill="#0000ff" fill-rule="evenodd" fill-opacity="1" stroke="#000000" stroke-opacity="1" stroke-width="3.84"/>
<circle clip-path="url(#clip802)" cx="1872.12" cy="1398.93" r="14.4" fill="#0000ff" fill-rule="evenodd" fill-opacity="1" stroke="#000000" stroke-opacity="1" stroke-width="3.84"/>
<circle clip-path="url(#clip802)" cx="1991.26" cy="1380.66" r="14.4" fill="#0000ff" fill-rule="evenodd" fill-opacity="1" stroke="#000000" stroke-opacity="1" stroke-width="3.84"/>
<circle clip-path="url(#clip802)" cx="2120.76" cy="1362.4" r="14.4" fill="#0000ff" fill-rule="evenodd" fill-opacity="1" stroke="#000000" stroke-opacity="1" stroke-width="3.84"/>
<polyline clip-path="url(#clip802)" style="stroke:#ac8d18; stroke-linecap:butt; stroke-linejoin:round; stroke-width:4; stroke-opacity:1; fill:none" stroke-dasharray="2, 4" points="
  501.139,1800.78 512.555,1789.36 618.117,1683.8 681.555,1620.36 735.192,1566.73 793.456,1508.46 847.17,1454.75 904.757,1397.16 971.478,1330.44 1030.77,1271.15 
  1082.77,1219.15 1139.45,1162.46 1196.48,1105.44 1259.53,1042.39 1319.52,982.4 1381.89,920.025 1434.4,867.519 1498.5,803.414 1557.23,744.691 1611.46,690.455 
  1666.4,635.516 1727.97,573.944 1783.77,518.15 1847.65,454.27 1906.8,395.123 1965.11,336.811 2021.72,280.195 2079.76,222.156 2143.35,158.567 2235.72,66.1946 
  2254.67,47.2441 
  "/>
<polyline clip-path="url(#clip802)" style="stroke:#00a9ad; stroke-linecap:butt; stroke-linejoin:round; stroke-width:4; stroke-opacity:1; fill:none" stroke-dasharray="16, 10" points="
  720.331,1204.95 1096.96,1581.59 
  "/>
<polyline clip-path="url(#clip802)" style="stroke:#ed5d92; stroke-linecap:butt; stroke-linejoin:round; stroke-width:4; stroke-opacity:1; fill:none" stroke-dasharray="16, 10" points="
  501.139,1800.78 519.405,1751.13 537.671,1701.48 555.937,1651.82 574.203,1602.17 592.469,1552.52 610.735,1502.87 629.001,1453.21 647.267,1403.56 665.533,1353.91 
  683.799,1304.26 702.065,1254.61 720.331,1204.95 738.597,1155.3 756.863,1105.65 775.129,1056 793.395,1006.35 811.661,956.693 829.927,907.041 848.193,857.389 
  866.459,807.737 884.725,758.085 902.991,708.433 921.257,658.781 939.523,609.129 
  "/>
<polyline clip-path="url(#clip802)" style="stroke:#c68125; stroke-linecap:butt; stroke-linejoin:round; stroke-width:4; stroke-opacity:1; fill:none" stroke-dasharray="16, 10" points="
  720.331,1720.14 739.38,1713.14 760.084,1705.52 782.587,1697.24 807.046,1688.24 833.63,1678.46 862.525,1667.83 893.931,1656.28 928.066,1643.72 965.168,1630.07 
  1005.49,1615.24 1049.32,1599.11 1096.96,1581.59 1148.74,1562.54 1205.02,1541.83 1266.19,1519.33 1332.68,1494.87 1404.94,1468.29 1483.49,1439.39 1568.86,1407.99 
  1661.65,1373.85 1762.5,1336.75 1872.12,1296.42 1991.26,1252.59 2120.76,1204.95 
  "/>
</svg>
