<?xml version="1.0" encoding="utf-8"?>
<svg xmlns="http://www.w3.org/2000/svg" xmlns:xlink="http://www.w3.org/1999/xlink" width="672" height="480" viewBox="0 0 2688 1920">
<defs>
  <clipPath id="clip590">
    <rect x="0" y="0" width="2688" height="1920"/>
  </clipPath>
</defs>
<path clip-path="url(#clip590)" d="
M0 1920 L2688 1920 L2688 0 L0 0  Z
  " fill="#ffffff" fill-rule="evenodd" fill-opacity="1"/>
<defs>
  <clipPath id="clip591">
    <rect x="537" y="0" width="1883" height="1883"/>
  </clipPath>
</defs>
<path clip-path="url(#clip590)" d="
M162.786 1872.76 L2525.21 1872.76 L2525.21 47.2441 L162.786 47.2441  Z
  " fill="#ffffff" fill-rule="evenodd" fill-opacity="1"/>
<defs>
  <clipPath id="clip592">
    <rect x="162" y="47" width="2363" height="1827"/>
  </clipPath>
</defs>
<polyline clip-path="url(#clip592)" style="stroke:#0000ff; stroke-linecap:butt; stroke-linejoin:round; stroke-width:8; stroke-opacity:1; fill:none" points="
  377.553,1657.99 2237.48,584.159 
  "/>
<circle clip-path="url(#clip592)" cx="2237.48" cy="584.159" r="10.8" fill="#0000ff" fill-rule="evenodd" fill-opacity="1" stroke="#000000" stroke-opacity="1" stroke-width="3.84"/>
<polyline clip-path="url(#clip592)" style="stroke:#000000; stroke-linecap:butt; stroke-linejoin:round; stroke-width:4; stroke-opacity:1; fill:none" points="
  377.553,1657.99 377.553,47.2441 
  "/>
<polyline clip-path="url(#clip592)" style="stroke:#000000; stroke-linecap:butt; stroke-linejoin:round; stroke-width:4; stroke-opacity:1; fill:none" points="
  357.393,87.5641 377.553,47.2441 397.713,87.5641 
  "/>
<polyline clip-path="url(#clip592)" style="stroke:#000000; stroke-linecap:butt; stroke-linejoin:round; stroke-width:4; stroke-opacity:1; fill:none" points="
  377.553,47.2441 377.553,1657.99 
  "/>
<polyline clip-path="url(#clip592)" style="stroke:#000000; stroke-linecap:butt; stroke-linejoin:round; stroke-width:4; stroke-opacity:1; fill:none" points="
  377.553,1657.99 2525.21,1657.99 
  "/>
<polyline clip-path="url(#clip592)" style="stroke:#000000; stroke-linecap:butt; stroke-linejoin:round; stroke-width:4; stroke-opacity:1; fill:none" points="
  2484.89,1637.83 2525.21,1657.99 2484.89,1678.15 
  "/>
<polyline clip-path="url(#clip592)" style="stroke:#000000; stroke-linecap:butt; stroke-linejoin:round; stroke-width:4; stroke-opacity:1; fill:none" points="
  2525.21,1657.99 377.553,1657.99 
  "/>
<polyline clip-path="url(#clip592)" style="stroke:#000000; stroke-linecap:butt; stroke-linejoin:round; stroke-width:4; stroke-opacity:1; fill:none" points="
  735.496,1657.99 735.476,1654.17 735.414,1650.34 735.312,1646.52 735.169,1642.69 734.985,1638.87 734.761,1635.06 734.495,1631.24 734.189,1627.43 733.842,1623.62 
  733.454,1619.81 733.026,1616.01 732.557,1612.22 732.048,1608.43 731.498,1604.64 730.908,1600.86 730.277,1597.09 729.606,1593.32 728.895,1589.57 728.144,1585.82 
  727.353,1582.07 726.522,1578.34 725.651,1574.62 724.74,1570.9 723.789,1567.2 722.8,1563.5 721.77,1559.82 720.701,1556.15 719.594,1552.48 718.447,1548.84 
  717.261,1545.2 716.036,1541.58 714.773,1537.97 713.471,1534.37 712.131,1530.79 710.753,1527.22 709.336,1523.67 707.882,1520.13 706.39,1516.61 704.861,1513.1 
  703.294,1509.61 701.69,1506.14 700.049,1502.68 698.371,1499.25 696.656,1495.83 694.905,1492.43 693.118,1489.05 691.295,1485.68 689.435,1482.34 687.541,1479.02 
  
  "/>
<polyline clip-path="url(#clip592)" style="stroke:#808080; stroke-linecap:butt; stroke-linejoin:round; stroke-width:4; stroke-opacity:1; fill:none" stroke-dasharray="16, 10" points="
  2237.48,1657.99 2237.48,584.159 
  "/>
<polyline clip-path="url(#clip592)" style="stroke:#808080; stroke-linecap:butt; stroke-linejoin:round; stroke-width:4; stroke-opacity:1; fill:none" stroke-dasharray="16, 10" points="
  377.553,584.159 2237.48,584.159 
  "/>
<path clip-path="url(#clip590)" d="M807.639 1533.69 Q807.639 1540.58 805.426 1548.33 Q803.253 1556.03 799.81 1562.26 Q796.367 1568.45 791.858 1572.55 Q787.35 1576.61 783.046 1576.61 Q780.299 1576.61 778.25 1575.09 Q776.241 1573.54 775.135 1570.95 Q774.028 1568.33 773.495 1565.46 Q772.962 1562.55 772.962 1559.39 Q772.962 1554.68 773.987 1549.56 Q775.012 1544.39 776.733 1539.72 Q778.455 1535.01 780.873 1530.74 Q783.292 1526.44 785.956 1523.32 Q788.661 1520.17 791.694 1518.32 Q794.728 1516.48 797.556 1516.48 Q799.605 1516.48 801.245 1517.38 Q802.925 1518.24 803.991 1519.76 Q805.057 1521.23 805.795 1523 Q806.573 1524.76 806.942 1526.81 Q807.311 1528.82 807.475 1530.5 Q807.639 1532.14 807.639 1533.69 M802.106 1528.49 Q802.106 1526.4 801.942 1524.84 Q801.778 1523.24 801.327 1521.64 Q800.876 1520.04 799.892 1519.18 Q798.949 1518.32 797.474 1518.32 Q793.17 1518.32 788.333 1527.14 Q786.776 1529.88 785.382 1533.61 Q783.988 1537.34 783.497 1539.11 Q783.005 1540.87 781.857 1545.21 L799.4 1545.21 Q802.106 1534.02 802.106 1528.49 M798.663 1547.88 L781.201 1547.88 Q778.496 1558.12 778.496 1564.52 Q778.496 1570.09 779.644 1572.43 Q780.832 1574.72 783.046 1574.72 Q785.587 1574.72 787.964 1572.18 Q790.342 1569.6 792.76 1564.93 Q795.957 1558.86 798.663 1547.88 Z" fill="#000000" fill-rule="evenodd" fill-opacity="1" /><path clip-path="url(#clip590)" d="M1261.75 1013.07 Q1261.75 1015.24 1260.31 1016.63 Q1258.92 1018.03 1257.12 1018.03 Q1255.56 1018.03 1254.74 1017.12 Q1253.92 1016.22 1253.92 1015.08 Q1253.92 1013.44 1255.19 1012.08 Q1256.46 1010.73 1258.31 1010.44 Q1256.95 1009.46 1254.78 1009.46 Q1251.22 1009.46 1248.06 1012.21 Q1246.67 1013.48 1245.15 1015.81 Q1243.63 1018.11 1243.35 1019.09 L1240.68 1030.04 Q1240.43 1031.27 1238.92 1037.17 Q1237.44 1043.03 1237.32 1043.28 Q1236.91 1044.42 1236.01 1045.04 Q1235.11 1045.65 1234.2 1045.65 Q1233.18 1045.65 1232.48 1045.04 Q1231.79 1044.42 1231.79 1043.36 Q1231.79 1043.19 1231.91 1042.58 Q1232.03 1041.96 1232.24 1041.1 Q1232.44 1040.24 1232.52 1039.75 L1237.4 1020.36 Q1238.3 1016.84 1238.51 1015.73 Q1238.75 1014.58 1238.75 1013.31 Q1238.75 1011.1 1238.06 1010.28 Q1237.36 1009.46 1236.13 1009.46 Q1234 1009.46 1232.61 1012 Q1231.21 1014.54 1230.02 1019.46 Q1229.65 1020.81 1229.41 1021.1 Q1229.2 1021.39 1228.59 1021.39 Q1227.56 1021.35 1227.56 1020.53 Q1227.56 1020.32 1227.89 1019.01 Q1228.22 1017.66 1228.83 1015.69 Q1229.49 1013.68 1230.19 1012.41 Q1230.6 1011.55 1230.97 1010.98 Q1231.34 1010.4 1232.07 1009.5 Q1232.81 1008.6 1233.92 1008.11 Q1235.02 1007.62 1236.38 1007.62 Q1239.33 1007.62 1241.42 1009.42 Q1243.55 1011.22 1244.04 1014.05 Q1245.07 1012.57 1246.34 1011.3 Q1247.61 1009.99 1249.94 1008.8 Q1252.28 1007.62 1254.78 1007.62 Q1257.9 1007.62 1259.82 1009.21 Q1261.75 1010.77 1261.75 1013.07 Z" fill="#000000" fill-rule="evenodd" fill-opacity="1" /><path clip-path="url(#clip590)" d="M2143.12 476.571 Q2143.12 462.389 2148.41 450.953 Q2150.67 446.157 2153.82 442.14 Q2156.98 438.123 2159.07 436.361 Q2161.16 434.598 2161.73 434.598 Q2162.55 434.598 2162.59 435.418 Q2162.59 435.828 2161.49 436.852 Q2147.96 450.625 2148 476.571 Q2148 502.599 2161.16 515.839 Q2162.59 517.273 2162.59 517.724 Q2162.59 518.544 2161.73 518.544 Q2161.16 518.544 2159.15 516.863 Q2157.14 515.183 2154.03 511.33 Q2150.91 507.477 2148.66 502.763 Q2143.12 491.327 2143.12 476.571 Z" fill="#000000" fill-rule="evenodd" fill-opacity="1" /><path clip-path="url(#clip590)" d="M2210.78 465.996 Q2210.78 468.291 2209.35 469.603 Q2207.91 470.874 2206.27 470.874 Q2204.72 470.874 2203.9 469.972 Q2203.08 469.07 2203.08 467.922 Q2203.08 466.365 2204.22 465.012 Q2205.37 463.659 2207.09 463.372 Q2205.41 462.307 2202.91 462.307 Q2201.27 462.307 2199.84 463.168 Q2198.44 464.028 2197.58 465.135 Q2196.76 466.242 2196.03 467.84 Q2195.33 469.398 2195.04 470.341 Q2194.8 471.242 2194.59 472.226 L2191.72 483.703 Q2190.33 489.155 2190.33 491.081 Q2190.33 493.459 2191.48 495.057 Q2192.62 496.615 2194.92 496.615 Q2195.82 496.615 2196.85 496.369 Q2197.87 496.082 2199.18 495.344 Q2200.54 494.565 2201.72 493.418 Q2202.95 492.229 2204.14 490.22 Q2205.33 488.212 2206.11 485.63 Q2206.36 484.728 2207.18 484.728 Q2208.2 484.728 2208.2 485.548 Q2208.2 486.244 2207.63 487.72 Q2207.09 489.155 2205.9 491.04 Q2204.76 492.885 2203.24 494.565 Q2201.72 496.205 2199.47 497.353 Q2197.22 498.5 2194.76 498.5 Q2191.23 498.5 2188.89 496.615 Q2186.56 494.729 2185.7 492.106 Q2185.49 492.475 2185.21 492.967 Q2184.92 493.459 2184.06 494.565 Q2183.24 495.631 2182.29 496.451 Q2181.35 497.23 2179.88 497.844 Q2178.44 498.5 2176.88 498.5 Q2174.92 498.5 2173.15 497.926 Q2171.43 497.353 2170.2 496.041 Q2168.97 494.729 2168.97 492.926 Q2168.97 490.917 2170.33 489.524 Q2171.72 488.089 2173.61 488.089 Q2174.79 488.089 2175.74 488.786 Q2176.72 489.483 2176.72 490.999 Q2176.72 492.68 2175.57 493.95 Q2174.42 495.221 2172.79 495.549 Q2174.47 496.615 2176.97 496.615 Q2179.67 496.615 2181.8 494.237 Q2183.93 491.86 2184.96 487.884 Q2187.5 478.334 2188.48 474.071 Q2189.47 469.767 2189.47 467.922 Q2189.47 466.201 2189.02 465.012 Q2188.57 463.823 2187.79 463.29 Q2187.05 462.717 2186.35 462.512 Q2185.7 462.307 2184.96 462.307 Q2183.73 462.307 2182.34 462.799 Q2180.98 463.29 2179.34 464.438 Q2177.75 465.545 2176.23 467.84 Q2174.71 470.136 2173.69 473.292 Q2173.48 474.235 2172.58 474.235 Q2171.6 474.194 2171.6 473.374 Q2171.6 472.677 2172.13 471.242 Q2172.7 469.767 2173.85 467.922 Q2175.04 466.078 2176.56 464.438 Q2178.11 462.758 2180.37 461.61 Q2182.66 460.462 2185.12 460.462 Q2186.23 460.462 2187.3 460.708 Q2188.4 460.913 2189.71 461.528 Q2191.07 462.143 2192.26 463.495 Q2193.44 464.848 2194.18 466.816 Q2194.67 465.873 2195.33 464.971 Q2196.03 464.069 2197.09 462.963 Q2198.2 461.815 2199.72 461.159 Q2201.27 460.462 2202.99 460.462 Q2204.68 460.462 2206.31 460.913 Q2207.95 461.323 2209.35 462.676 Q2210.78 463.987 2210.78 465.996 Z" fill="#000000" fill-rule="evenodd" fill-opacity="1" /><path clip-path="url(#clip590)" d="M2217.7 496.205 Q2216.51 494.852 2216.51 493.09 Q2216.51 491.327 2217.66 490.016 Q2218.85 488.663 2220.98 488.663 Q2223.48 488.663 2224.92 491.081 Q2226.35 493.459 2226.35 497.476 Q2226.35 501.82 2224.59 505.837 Q2222.82 509.895 2221.1 511.822 Q2219.38 513.748 2218.68 513.748 Q2217.87 513.748 2217.87 512.847 Q2217.87 512.519 2218.44 511.904 Q2224.46 505.427 2224.51 497.476 Q2224.51 496.205 2224.34 496.205 L2224.14 496.369 Q2222.7 497.558 2220.98 497.558 Q2218.89 497.558 2217.7 496.205 Z" fill="#000000" fill-rule="evenodd" fill-opacity="1" /><path clip-path="url(#clip590)" d="M2291.57 463.659 Q2291.57 464.233 2291.2 465.586 L2283.17 497.64 Q2281.41 504.772 2275.67 509.772 Q2269.97 514.773 2263.5 514.773 Q2259.6 514.773 2257.1 512.683 Q2254.6 510.633 2254.6 507.477 Q2254.6 504.69 2256.08 503.337 Q2257.55 502.025 2259.32 502.025 Q2259.89 502.025 2260.5 502.189 Q2261.12 502.353 2261.77 503.05 Q2262.43 503.747 2262.43 504.936 Q2262.43 506.862 2260.75 508.379 Q2259.93 509.076 2259.15 509.239 Q2258.41 509.403 2257.14 509.403 Q2257.63 510.551 2258.54 511.33 Q2259.44 512.109 2260.46 512.396 Q2261.49 512.724 2262.14 512.806 Q2262.84 512.929 2263.5 512.929 Q2268.74 512.929 2272.76 507.641 Q2273.95 506.042 2274.81 504.444 Q2275.71 502.886 2276.37 500.96 Q2277.02 499.074 2277.31 498.049 Q2277.64 497.025 2278.21 494.688 Q2274.4 498.5 2269.73 498.5 Q2267.76 498.5 2266 497.967 Q2264.27 497.435 2262.76 496.328 Q2261.24 495.18 2260.34 493.172 Q2259.48 491.163 2259.48 488.499 Q2259.48 485.671 2260.59 481.818 Q2261.69 477.965 2264.36 470.874 Q2265.79 466.898 2265.79 464.971 Q2265.79 464.028 2265.59 463.454 Q2265.38 462.84 2264.97 462.635 Q2264.56 462.389 2264.32 462.348 Q2264.11 462.307 2263.7 462.307 Q2261.28 462.307 2259.03 464.766 Q2256.77 467.225 2255.22 472.718 Q2254.89 473.743 2254.68 473.989 Q2254.48 474.235 2253.86 474.235 Q2252.84 474.194 2252.84 473.374 Q2252.84 473.046 2253.21 471.775 Q2253.58 470.464 2254.44 468.537 Q2255.34 466.57 2256.57 464.807 Q2257.8 463.004 2259.73 461.733 Q2261.69 460.462 2263.95 460.462 Q2267.02 460.462 2268.91 462.471 Q2270.83 464.438 2270.83 467.348 Q2270.83 468.537 2270.51 469.603 Q2270.22 470.628 2269.15 473.374 Q2264.85 484.441 2264.85 489.852 Q2264.85 491.163 2265.05 492.27 Q2265.3 493.336 2265.83 494.401 Q2266.37 495.426 2267.43 496.041 Q2268.54 496.615 2270.05 496.615 Q2271.98 496.615 2273.78 495.713 Q2275.63 494.77 2276.78 493.5 Q2277.97 492.229 2278.66 491.163 Q2279.4 490.056 2279.56 489.483 L2283.33 474.399 L2285.02 467.676 Q2285.79 464.028 2286.16 463.127 Q2286.66 462.266 2287.52 461.815 Q2288.38 461.364 2289.11 461.364 Q2290.14 461.364 2290.84 461.979 Q2291.57 462.594 2291.57 463.659 Z" fill="#000000" fill-rule="evenodd" fill-opacity="1" /><path clip-path="url(#clip590)" d="M2299.61 517.724 Q2299.61 517.314 2300.67 516.29 Q2314.2 502.517 2314.2 476.571 Q2314.2 450.543 2301.2 437.385 Q2299.61 435.869 2299.61 435.418 Q2299.61 434.598 2300.43 434.598 Q2301 434.598 2303.01 436.279 Q2305.06 437.959 2308.13 441.812 Q2311.25 445.665 2313.54 450.379 Q2319.08 461.815 2319.08 476.571 Q2319.08 490.753 2313.79 502.189 Q2311.53 506.985 2308.38 511.002 Q2305.22 515.019 2303.13 516.782 Q2301.04 518.544 2300.43 518.544 Q2299.61 518.544 2299.61 517.724 Z" fill="#000000" fill-rule="evenodd" fill-opacity="1" /><path clip-path="url(#clip590)" d="M2255.52 1751.71 Q2255.52 1754.01 2254.09 1755.32 Q2252.65 1756.59 2251.01 1756.59 Q2249.45 1756.59 2248.63 1755.69 Q2247.82 1754.79 2247.82 1753.64 Q2247.82 1752.08 2248.96 1750.73 Q2250.11 1749.38 2251.83 1749.09 Q2250.15 1748.02 2247.65 1748.02 Q2246.01 1748.02 2244.58 1748.89 Q2243.18 1749.75 2242.32 1750.85 Q2241.5 1751.96 2240.76 1753.56 Q2240.07 1755.12 2239.78 1756.06 Q2239.54 1756.96 2239.33 1757.94 L2236.46 1769.42 Q2235.07 1774.87 2235.07 1776.8 Q2235.07 1779.18 2236.22 1780.78 Q2237.36 1782.33 2239.66 1782.33 Q2240.56 1782.33 2241.58 1782.09 Q2242.61 1781.8 2243.92 1781.06 Q2245.27 1780.28 2246.46 1779.14 Q2247.69 1777.95 2248.88 1775.94 Q2250.07 1773.93 2250.85 1771.35 Q2251.09 1770.45 2251.91 1770.45 Q2252.94 1770.45 2252.94 1771.27 Q2252.94 1771.96 2252.36 1773.44 Q2251.83 1774.87 2250.64 1776.76 Q2249.5 1778.6 2247.98 1780.28 Q2246.46 1781.92 2244.21 1783.07 Q2241.95 1784.22 2239.49 1784.22 Q2235.97 1784.22 2233.63 1782.33 Q2231.3 1780.45 2230.44 1777.82 Q2230.23 1778.19 2229.94 1778.68 Q2229.66 1779.18 2228.8 1780.28 Q2227.98 1781.35 2227.03 1782.17 Q2226.09 1782.95 2224.62 1783.56 Q2223.18 1784.22 2221.62 1784.22 Q2219.66 1784.22 2217.89 1783.64 Q2216.17 1783.07 2214.94 1781.76 Q2213.71 1780.45 2213.71 1778.64 Q2213.71 1776.64 2215.06 1775.24 Q2216.46 1773.81 2218.34 1773.81 Q2219.53 1773.81 2220.48 1774.5 Q2221.46 1775.2 2221.46 1776.72 Q2221.46 1778.4 2220.31 1779.67 Q2219.16 1780.94 2217.52 1781.27 Q2219.2 1782.33 2221.7 1782.33 Q2224.41 1782.33 2226.54 1779.96 Q2228.67 1777.58 2229.7 1773.6 Q2232.24 1764.05 2233.22 1759.79 Q2234.21 1755.48 2234.21 1753.64 Q2234.21 1751.92 2233.76 1750.73 Q2233.3 1749.54 2232.53 1749.01 Q2231.79 1748.43 2231.09 1748.23 Q2230.44 1748.02 2229.7 1748.02 Q2228.47 1748.02 2227.07 1748.52 Q2225.72 1749.01 2224.08 1750.16 Q2222.48 1751.26 2220.97 1753.56 Q2219.45 1755.85 2218.43 1759.01 Q2218.22 1759.95 2217.32 1759.95 Q2216.34 1759.91 2216.34 1759.09 Q2216.34 1758.39 2216.87 1756.96 Q2217.44 1755.48 2218.59 1753.64 Q2219.78 1751.8 2221.3 1750.16 Q2222.85 1748.48 2225.11 1747.33 Q2227.4 1746.18 2229.86 1746.18 Q2230.97 1746.18 2232.03 1746.43 Q2233.14 1746.63 2234.45 1747.25 Q2235.81 1747.86 2236.99 1749.21 Q2238.18 1750.57 2238.92 1752.53 Q2239.41 1751.59 2240.07 1750.69 Q2240.76 1749.79 2241.83 1748.68 Q2242.94 1747.53 2244.45 1746.88 Q2246.01 1746.18 2247.73 1746.18 Q2249.41 1746.18 2251.05 1746.63 Q2252.69 1747.04 2254.09 1748.39 Q2255.52 1749.71 2255.52 1751.71 Z" fill="#000000" fill-rule="evenodd" fill-opacity="1" /><path clip-path="url(#clip590)" d="M288.545 560.105 Q288.545 560.679 288.176 562.031 L280.142 594.085 Q278.38 601.217 272.641 606.218 Q266.944 611.219 260.467 611.219 Q256.573 611.219 254.073 609.128 Q251.573 607.079 251.573 603.922 Q251.573 601.135 253.048 599.783 Q254.524 598.471 256.286 598.471 Q256.86 598.471 257.475 598.635 Q258.09 598.799 258.746 599.496 Q259.402 600.192 259.402 601.381 Q259.402 603.308 257.721 604.824 Q256.901 605.521 256.123 605.685 Q255.385 605.849 254.114 605.849 Q254.606 606.997 255.508 607.775 Q256.409 608.554 257.434 608.841 Q258.459 609.169 259.115 609.251 Q259.812 609.374 260.467 609.374 Q265.714 609.374 269.731 604.086 Q270.92 602.488 271.78 600.889 Q272.682 599.332 273.338 597.405 Q273.994 595.52 274.281 594.495 Q274.609 593.47 275.183 591.134 Q271.371 594.946 266.698 594.946 Q264.73 594.946 262.968 594.413 Q261.246 593.88 259.73 592.773 Q258.213 591.626 257.311 589.617 Q256.45 587.609 256.45 584.944 Q256.45 582.116 257.557 578.263 Q258.664 574.41 261.328 567.319 Q262.763 563.343 262.763 561.417 Q262.763 560.474 262.558 559.9 Q262.353 559.285 261.943 559.08 Q261.533 558.834 261.287 558.793 Q261.082 558.752 260.672 558.752 Q258.254 558.752 256 561.212 Q253.745 563.671 252.188 569.164 Q251.86 570.188 251.655 570.434 Q251.45 570.68 250.835 570.68 Q249.81 570.639 249.81 569.819 Q249.81 569.491 250.179 568.221 Q250.548 566.909 251.409 564.983 Q252.311 563.015 253.54 561.253 Q254.77 559.449 256.696 558.178 Q258.664 556.908 260.918 556.908 Q263.992 556.908 265.878 558.916 Q267.804 560.884 267.804 563.794 Q267.804 564.983 267.477 566.048 Q267.19 567.073 266.124 569.819 Q261.82 580.887 261.82 586.297 Q261.82 587.609 262.025 588.715 Q262.271 589.781 262.804 590.847 Q263.337 591.872 264.402 592.486 Q265.509 593.06 267.026 593.06 Q268.952 593.06 270.756 592.159 Q272.6 591.216 273.748 589.945 Q274.937 588.674 275.633 587.609 Q276.371 586.502 276.535 585.928 L280.306 570.844 L281.987 564.122 Q282.766 560.474 283.134 559.572 Q283.626 558.711 284.487 558.26 Q285.348 557.81 286.086 557.81 Q287.11 557.81 287.807 558.424 Q288.545 559.039 288.545 560.105 Z" fill="#000000" fill-rule="evenodd" fill-opacity="1" /></svg>
