<?xml version="1.0" encoding="utf-8"?>
<svg xmlns="http://www.w3.org/2000/svg" xmlns:xlink="http://www.w3.org/1999/xlink" width="672" height="480" viewBox="0 0 2688 1920">
<defs>
  <clipPath id="clip950">
    <rect x="0" y="0" width="2688" height="1920"/>
  </clipPath>
</defs>
<path clip-path="url(#clip950)" d="
M0 1920 L2688 1920 L2688 0 L0 0  Z
  " fill="#ffffff" fill-rule="evenodd" fill-opacity="1"/>
<defs>
  <clipPath id="clip951">
    <rect x="537" y="0" width="1883" height="1883"/>
  </clipPath>
</defs>
<path clip-path="url(#clip950)" d="
M196.816 1800.78 L2640.76 1800.78 L2640.76 47.2441 L196.816 47.2441  Z
  " fill="#ffffff" fill-rule="evenodd" fill-opacity="1"/>
<defs>
  <clipPath id="clip952">
    <rect x="196" y="47" width="2445" height="1755"/>
  </clipPath>
</defs>
<polyline clip-path="url(#clip952)" style="stroke:#000000; stroke-linecap:butt; stroke-linejoin:round; stroke-width:2; stroke-opacity:0.1; fill:none" points="
  265.984,1800.78 265.984,47.2441 
  "/>
<polyline clip-path="url(#clip952)" style="stroke:#000000; stroke-linecap:butt; stroke-linejoin:round; stroke-width:2; stroke-opacity:0.1; fill:none" points="
  842.385,1800.78 842.385,47.2441 
  "/>
<polyline clip-path="url(#clip952)" style="stroke:#000000; stroke-linecap:butt; stroke-linejoin:round; stroke-width:2; stroke-opacity:0.1; fill:none" points="
  1418.79,1800.78 1418.79,47.2441 
  "/>
<polyline clip-path="url(#clip952)" style="stroke:#000000; stroke-linecap:butt; stroke-linejoin:round; stroke-width:2; stroke-opacity:0.1; fill:none" points="
  1995.19,1800.78 1995.19,47.2441 
  "/>
<polyline clip-path="url(#clip952)" style="stroke:#000000; stroke-linecap:butt; stroke-linejoin:round; stroke-width:2; stroke-opacity:0.1; fill:none" points="
  2571.59,1800.78 2571.59,47.2441 
  "/>
<polyline clip-path="url(#clip950)" style="stroke:#000000; stroke-linecap:butt; stroke-linejoin:round; stroke-width:4; stroke-opacity:1; fill:none" points="
  196.816,1800.78 2640.76,1800.78 
  "/>
<polyline clip-path="url(#clip950)" style="stroke:#000000; stroke-linecap:butt; stroke-linejoin:round; stroke-width:4; stroke-opacity:1; fill:none" points="
  265.984,1800.78 265.984,1781.88 
  "/>
<polyline clip-path="url(#clip950)" style="stroke:#000000; stroke-linecap:butt; stroke-linejoin:round; stroke-width:4; stroke-opacity:1; fill:none" points="
  842.385,1800.78 842.385,1781.88 
  "/>
<polyline clip-path="url(#clip950)" style="stroke:#000000; stroke-linecap:butt; stroke-linejoin:round; stroke-width:4; stroke-opacity:1; fill:none" points="
  1418.79,1800.78 1418.79,1781.88 
  "/>
<polyline clip-path="url(#clip950)" style="stroke:#000000; stroke-linecap:butt; stroke-linejoin:round; stroke-width:4; stroke-opacity:1; fill:none" points="
  1995.19,1800.78 1995.19,1781.88 
  "/>
<polyline clip-path="url(#clip950)" style="stroke:#000000; stroke-linecap:butt; stroke-linejoin:round; stroke-width:4; stroke-opacity:1; fill:none" points="
  2571.59,1800.78 2571.59,1781.88 
  "/>
<path clip-path="url(#clip950)" d="M235.926 1848.65 L265.602 1848.65 L265.602 1852.59 L235.926 1852.59 L235.926 1848.65 Z" fill="#000000" fill-rule="evenodd" fill-opacity="1" /><path clip-path="url(#clip950)" d="M279.722 1861.55 L296.042 1861.55 L296.042 1865.48 L274.097 1865.48 L274.097 1861.55 Q276.76 1858.79 281.343 1854.16 Q285.949 1849.51 287.13 1848.17 Q289.375 1845.65 290.255 1843.91 Q291.158 1842.15 291.158 1840.46 Q291.158 1837.71 289.213 1835.97 Q287.292 1834.23 284.19 1834.23 Q281.991 1834.23 279.537 1835 Q277.107 1835.76 274.329 1837.31 L274.329 1832.59 Q277.153 1831.46 279.607 1830.88 Q282.06 1830.3 284.097 1830.3 Q289.468 1830.3 292.662 1832.98 Q295.857 1835.67 295.857 1840.16 Q295.857 1842.29 295.046 1844.21 Q294.259 1846.11 292.153 1848.7 Q291.574 1849.37 288.472 1852.59 Q285.371 1855.78 279.722 1861.55 Z" fill="#000000" fill-rule="evenodd" fill-opacity="1" /><path clip-path="url(#clip950)" d="M812.142 1848.65 L841.818 1848.65 L841.818 1852.59 L812.142 1852.59 L812.142 1848.65 Z" fill="#000000" fill-rule="evenodd" fill-opacity="1" /><path clip-path="url(#clip950)" d="M852.721 1861.55 L860.359 1861.55 L860.359 1835.18 L852.049 1836.85 L852.049 1832.59 L860.313 1830.92 L864.989 1830.92 L864.989 1861.55 L872.628 1861.55 L872.628 1865.48 L852.721 1865.48 L852.721 1861.55 Z" fill="#000000" fill-rule="evenodd" fill-opacity="1" /><path clip-path="url(#clip950)" d="M1418.79 1834 Q1415.17 1834 1413.35 1837.57 Q1411.54 1841.11 1411.54 1848.24 Q1411.54 1855.34 1413.35 1858.91 Q1415.17 1862.45 1418.79 1862.45 Q1422.42 1862.45 1424.23 1858.91 Q1426.05 1855.34 1426.05 1848.24 Q1426.05 1841.11 1424.23 1837.57 Q1422.42 1834 1418.79 1834 M1418.79 1830.3 Q1424.6 1830.3 1427.65 1834.9 Q1430.73 1839.49 1430.73 1848.24 Q1430.73 1856.96 1427.65 1861.57 Q1424.6 1866.15 1418.79 1866.15 Q1412.98 1866.15 1409.9 1861.57 Q1406.84 1856.96 1406.84 1848.24 Q1406.84 1839.49 1409.9 1834.9 Q1412.98 1830.3 1418.79 1830.3 Z" fill="#000000" fill-rule="evenodd" fill-opacity="1" /><path clip-path="url(#clip950)" d="M1985.57 1861.55 L1993.21 1861.55 L1993.21 1835.18 L1984.9 1836.85 L1984.9 1832.59 L1993.16 1830.92 L1997.84 1830.92 L1997.84 1861.55 L2005.48 1861.55 L2005.48 1865.48 L1985.57 1865.48 L1985.57 1861.55 Z" fill="#000000" fill-rule="evenodd" fill-opacity="1" /><path clip-path="url(#clip950)" d="M2566.24 1861.55 L2582.56 1861.55 L2582.56 1865.48 L2560.62 1865.48 L2560.62 1861.55 Q2563.28 1858.79 2567.86 1854.16 Q2572.47 1849.51 2573.65 1848.17 Q2575.89 1845.65 2576.77 1843.91 Q2577.68 1842.15 2577.68 1840.46 Q2577.68 1837.71 2575.73 1835.97 Q2573.81 1834.23 2570.71 1834.23 Q2568.51 1834.23 2566.06 1835 Q2563.62 1835.76 2560.85 1837.31 L2560.85 1832.59 Q2563.67 1831.46 2566.12 1830.88 Q2568.58 1830.3 2570.62 1830.3 Q2575.99 1830.3 2579.18 1832.98 Q2582.37 1835.67 2582.37 1840.16 Q2582.37 1842.29 2581.56 1844.21 Q2580.78 1846.11 2578.67 1848.7 Q2578.09 1849.37 2574.99 1852.59 Q2571.89 1855.78 2566.24 1861.55 Z" fill="#000000" fill-rule="evenodd" fill-opacity="1" /><polyline clip-path="url(#clip952)" style="stroke:#000000; stroke-linecap:butt; stroke-linejoin:round; stroke-width:2; stroke-opacity:0.1; fill:none" points="
  196.816,1751.15 2640.76,1751.15 
  "/>
<polyline clip-path="url(#clip952)" style="stroke:#000000; stroke-linecap:butt; stroke-linejoin:round; stroke-width:2; stroke-opacity:0.1; fill:none" points="
  196.816,1337.58 2640.76,1337.58 
  "/>
<polyline clip-path="url(#clip952)" style="stroke:#000000; stroke-linecap:butt; stroke-linejoin:round; stroke-width:2; stroke-opacity:0.1; fill:none" points="
  196.816,924.012 2640.76,924.012 
  "/>
<polyline clip-path="url(#clip952)" style="stroke:#000000; stroke-linecap:butt; stroke-linejoin:round; stroke-width:2; stroke-opacity:0.1; fill:none" points="
  196.816,510.442 2640.76,510.442 
  "/>
<polyline clip-path="url(#clip952)" style="stroke:#000000; stroke-linecap:butt; stroke-linejoin:round; stroke-width:2; stroke-opacity:0.1; fill:none" points="
  196.816,96.8724 2640.76,96.8724 
  "/>
<polyline clip-path="url(#clip950)" style="stroke:#000000; stroke-linecap:butt; stroke-linejoin:round; stroke-width:4; stroke-opacity:1; fill:none" points="
  196.816,1800.78 196.816,47.2441 
  "/>
<polyline clip-path="url(#clip950)" style="stroke:#000000; stroke-linecap:butt; stroke-linejoin:round; stroke-width:4; stroke-opacity:1; fill:none" points="
  196.816,1751.15 215.714,1751.15 
  "/>
<polyline clip-path="url(#clip950)" style="stroke:#000000; stroke-linecap:butt; stroke-linejoin:round; stroke-width:4; stroke-opacity:1; fill:none" points="
  196.816,1337.58 215.714,1337.58 
  "/>
<polyline clip-path="url(#clip950)" style="stroke:#000000; stroke-linecap:butt; stroke-linejoin:round; stroke-width:4; stroke-opacity:1; fill:none" points="
  196.816,924.012 215.714,924.012 
  "/>
<polyline clip-path="url(#clip950)" style="stroke:#000000; stroke-linecap:butt; stroke-linejoin:round; stroke-width:4; stroke-opacity:1; fill:none" points="
  196.816,510.442 215.714,510.442 
  "/>
<polyline clip-path="url(#clip950)" style="stroke:#000000; stroke-linecap:butt; stroke-linejoin:round; stroke-width:4; stroke-opacity:1; fill:none" points="
  196.816,96.8724 215.714,96.8724 
  "/>
<path clip-path="url(#clip950)" d="M49.5521 1751.6 L79.2279 1751.6 L79.2279 1755.54 L49.5521 1755.54 L49.5521 1751.6 Z" fill="#000000" fill-rule="evenodd" fill-opacity="1" /><path clip-path="url(#clip950)" d="M90.1306 1764.5 L97.7695 1764.5 L97.7695 1738.13 L89.4593 1739.8 L89.4593 1735.54 L97.7232 1733.87 L102.399 1733.87 L102.399 1764.5 L110.038 1764.5 L110.038 1768.43 L90.1306 1768.43 L90.1306 1764.5 Z" fill="#000000" fill-rule="evenodd" fill-opacity="1" /><path clip-path="url(#clip950)" d="M119.482 1762.55 L124.367 1762.55 L124.367 1768.43 L119.482 1768.43 L119.482 1762.55 Z" fill="#000000" fill-rule="evenodd" fill-opacity="1" /><path clip-path="url(#clip950)" d="M144.552 1736.95 Q140.941 1736.95 139.112 1740.51 Q137.306 1744.06 137.306 1751.19 Q137.306 1758.29 139.112 1761.86 Q140.941 1765.4 144.552 1765.4 Q148.186 1765.4 149.991 1761.86 Q151.82 1758.29 151.82 1751.19 Q151.82 1744.06 149.991 1740.51 Q148.186 1736.95 144.552 1736.95 M144.552 1733.25 Q150.362 1733.25 153.417 1737.85 Q156.496 1742.44 156.496 1751.19 Q156.496 1759.91 153.417 1764.52 Q150.362 1769.1 144.552 1769.1 Q138.741 1769.1 135.663 1764.52 Q132.607 1759.91 132.607 1751.19 Q132.607 1742.44 135.663 1737.85 Q138.741 1733.25 144.552 1733.25 Z" fill="#000000" fill-rule="evenodd" fill-opacity="1" /><path clip-path="url(#clip950)" d="M50.5475 1338.03 L80.2233 1338.03 L80.2233 1341.97 L50.5475 1341.97 L50.5475 1338.03 Z" fill="#000000" fill-rule="evenodd" fill-opacity="1" /><path clip-path="url(#clip950)" d="M100.316 1323.38 Q96.7047 1323.38 94.876 1326.94 Q93.0704 1330.49 93.0704 1337.62 Q93.0704 1344.72 94.876 1348.29 Q96.7047 1351.83 100.316 1351.83 Q103.95 1351.83 105.756 1348.29 Q107.584 1344.72 107.584 1337.62 Q107.584 1330.49 105.756 1326.94 Q103.95 1323.38 100.316 1323.38 M100.316 1319.68 Q106.126 1319.68 109.181 1324.28 Q112.26 1328.87 112.26 1337.62 Q112.26 1346.34 109.181 1350.95 Q106.126 1355.53 100.316 1355.53 Q94.5056 1355.53 91.4269 1350.95 Q88.3714 1346.34 88.3714 1337.62 Q88.3714 1328.87 91.4269 1324.28 Q94.5056 1319.68 100.316 1319.68 Z" fill="#000000" fill-rule="evenodd" fill-opacity="1" /><path clip-path="url(#clip950)" d="M120.478 1348.98 L125.362 1348.98 L125.362 1354.86 L120.478 1354.86 L120.478 1348.98 Z" fill="#000000" fill-rule="evenodd" fill-opacity="1" /><path clip-path="url(#clip950)" d="M135.593 1320.3 L153.95 1320.3 L153.95 1324.24 L139.876 1324.24 L139.876 1332.71 Q140.894 1332.36 141.913 1332.2 Q142.931 1332.01 143.95 1332.01 Q149.737 1332.01 153.116 1335.19 Q156.496 1338.36 156.496 1343.77 Q156.496 1349.35 153.024 1352.45 Q149.552 1355.53 143.232 1355.53 Q141.056 1355.53 138.788 1355.16 Q136.542 1354.79 134.135 1354.05 L134.135 1349.35 Q136.218 1350.49 138.441 1351.04 Q140.663 1351.6 143.14 1351.6 Q147.144 1351.6 149.482 1349.49 Q151.82 1347.38 151.82 1343.77 Q151.82 1340.16 149.482 1338.06 Q147.144 1335.95 143.14 1335.95 Q141.265 1335.95 139.39 1336.37 Q137.538 1336.78 135.593 1337.66 L135.593 1320.3 Z" fill="#000000" fill-rule="evenodd" fill-opacity="1" /><path clip-path="url(#clip950)" d="M99.3204 909.81 Q95.7093 909.81 93.8806 913.375 Q92.075 916.917 92.075 924.046 Q92.075 931.153 93.8806 934.718 Q95.7093 938.259 99.3204 938.259 Q102.955 938.259 104.76 934.718 Q106.589 931.153 106.589 924.046 Q106.589 916.917 104.76 913.375 Q102.955 909.81 99.3204 909.81 M99.3204 906.107 Q105.131 906.107 108.186 910.713 Q111.265 915.296 111.265 924.046 Q111.265 932.773 108.186 937.38 Q105.131 941.963 99.3204 941.963 Q93.5102 941.963 90.4315 937.38 Q87.376 932.773 87.376 924.046 Q87.376 915.296 90.4315 910.713 Q93.5102 906.107 99.3204 906.107 Z" fill="#000000" fill-rule="evenodd" fill-opacity="1" /><path clip-path="url(#clip950)" d="M119.482 935.412 L124.367 935.412 L124.367 941.292 L119.482 941.292 L119.482 935.412 Z" fill="#000000" fill-rule="evenodd" fill-opacity="1" /><path clip-path="url(#clip950)" d="M144.552 909.81 Q140.941 909.81 139.112 913.375 Q137.306 916.917 137.306 924.046 Q137.306 931.153 139.112 934.718 Q140.941 938.259 144.552 938.259 Q148.186 938.259 149.991 934.718 Q151.82 931.153 151.82 924.046 Q151.82 916.917 149.991 913.375 Q148.186 909.81 144.552 909.81 M144.552 906.107 Q150.362 906.107 153.417 910.713 Q156.496 915.296 156.496 924.046 Q156.496 932.773 153.417 937.38 Q150.362 941.963 144.552 941.963 Q138.741 941.963 135.663 937.38 Q132.607 932.773 132.607 924.046 Q132.607 915.296 135.663 910.713 Q138.741 906.107 144.552 906.107 Z" fill="#000000" fill-rule="evenodd" fill-opacity="1" /><path clip-path="url(#clip950)" d="M100.316 496.241 Q96.7047 496.241 94.876 499.806 Q93.0704 503.347 93.0704 510.477 Q93.0704 517.583 94.876 521.148 Q96.7047 524.69 100.316 524.69 Q103.95 524.69 105.756 521.148 Q107.584 517.583 107.584 510.477 Q107.584 503.347 105.756 499.806 Q103.95 496.241 100.316 496.241 M100.316 492.537 Q106.126 492.537 109.181 497.144 Q112.26 501.727 112.26 510.477 Q112.26 519.204 109.181 523.81 Q106.126 528.393 100.316 528.393 Q94.5056 528.393 91.4269 523.81 Q88.3714 519.204 88.3714 510.477 Q88.3714 501.727 91.4269 497.144 Q94.5056 492.537 100.316 492.537 Z" fill="#000000" fill-rule="evenodd" fill-opacity="1" /><path clip-path="url(#clip950)" d="M120.478 521.842 L125.362 521.842 L125.362 527.722 L120.478 527.722 L120.478 521.842 Z" fill="#000000" fill-rule="evenodd" fill-opacity="1" /><path clip-path="url(#clip950)" d="M135.593 493.162 L153.95 493.162 L153.95 497.097 L139.876 497.097 L139.876 505.569 Q140.894 505.222 141.913 505.06 Q142.931 504.875 143.95 504.875 Q149.737 504.875 153.116 508.046 Q156.496 511.218 156.496 516.634 Q156.496 522.213 153.024 525.315 Q149.552 528.393 143.232 528.393 Q141.056 528.393 138.788 528.023 Q136.542 527.653 134.135 526.912 L134.135 522.213 Q136.218 523.347 138.441 523.903 Q140.663 524.458 143.14 524.458 Q147.144 524.458 149.482 522.352 Q151.82 520.245 151.82 516.634 Q151.82 513.023 149.482 510.917 Q147.144 508.81 143.14 508.81 Q141.265 508.81 139.39 509.227 Q137.538 509.643 135.593 510.523 L135.593 493.162 Z" fill="#000000" fill-rule="evenodd" fill-opacity="1" /><path clip-path="url(#clip950)" d="M90.1306 110.217 L97.7695 110.217 L97.7695 83.8517 L89.4593 85.5183 L89.4593 81.2591 L97.7232 79.5924 L102.399 79.5924 L102.399 110.217 L110.038 110.217 L110.038 114.152 L90.1306 114.152 L90.1306 110.217 Z" fill="#000000" fill-rule="evenodd" fill-opacity="1" /><path clip-path="url(#clip950)" d="M119.482 108.273 L124.367 108.273 L124.367 114.152 L119.482 114.152 L119.482 108.273 Z" fill="#000000" fill-rule="evenodd" fill-opacity="1" /><path clip-path="url(#clip950)" d="M144.552 82.6711 Q140.941 82.6711 139.112 86.2359 Q137.306 89.7776 137.306 96.9072 Q137.306 104.014 139.112 107.578 Q140.941 111.12 144.552 111.12 Q148.186 111.12 149.991 107.578 Q151.82 104.014 151.82 96.9072 Q151.82 89.7776 149.991 86.2359 Q148.186 82.6711 144.552 82.6711 M144.552 78.9675 Q150.362 78.9675 153.417 83.5739 Q156.496 88.1572 156.496 96.9072 Q156.496 105.634 153.417 110.24 Q150.362 114.824 144.552 114.824 Q138.741 114.824 135.663 110.24 Q132.607 105.634 132.607 96.9072 Q132.607 88.1572 135.663 83.5739 Q138.741 78.9675 144.552 78.9675 Z" fill="#000000" fill-rule="evenodd" fill-opacity="1" /><polyline clip-path="url(#clip952)" style="stroke:#009af9; stroke-linecap:butt; stroke-linejoin:round; stroke-width:4; stroke-opacity:1; fill:none" points="
  265.984,1751.15 280.995,1751.15 419.791,1751.15 503.201,1751.15 573.724,1751.15 650.331,1751.15 720.956,1751.15 796.674,1751.15 884.4,1751.15 962.361,1751.15 
  1030.73,1751.15 1105.26,1751.15 1180.24,1751.15 1221.69,1751.15 1263.14,1751.15 1302.58,1751.15 1342.01,1751.15 1362.52,1751.15 1383.02,1751.15 1393.27,1751.15 
  1403.52,1751.15 1406.09,1751.15 1408.65,1751.15 1411.21,1751.15 1413.78,1751.15 1415.06,1751.15 1416.34,1751.15 1416.98,1751.15 1417.62,1751.15 1418.26,1751.15 
  1418.9,96.8724 1419.54,96.8724 1420.18,96.8724 1420.82,96.8724 1421.46,96.8724 1422.75,96.8724 1424.03,96.8724 1428.34,96.8724 1432.66,96.8724 1436.97,96.8724 
  1441.29,96.8724 1449.92,96.8724 1458.55,96.8724 1475.81,96.8724 1493.06,96.8724 1577.35,96.8724 1654.56,96.8724 1725.87,96.8724 1798.11,96.8724 1879.07,96.8724 
  1952.43,96.8724 2036.42,96.8724 2114.19,96.8724 2190.86,96.8724 2265.3,96.8724 2341.61,96.8724 2425.22,96.8724 2546.67,96.8724 2571.59,96.8724 
  "/>
<path clip-path="url(#clip950)" d="
M2235.31 209.375 L2559.29 209.375 L2559.29 105.695 L2235.31 105.695  Z
  " fill="#ffffff" fill-rule="evenodd" fill-opacity="1"/>
<polyline clip-path="url(#clip950)" style="stroke:#000000; stroke-linecap:butt; stroke-linejoin:round; stroke-width:4; stroke-opacity:1; fill:none" points="
  2235.31,209.375 2559.29,209.375 2559.29,105.695 2235.31,105.695 2235.31,209.375 
  "/>
<polyline clip-path="url(#clip950)" style="stroke:#009af9; stroke-linecap:butt; stroke-linejoin:round; stroke-width:4; stroke-opacity:1; fill:none" points="
  2262.47,157.535 2425.4,157.535 
  "/>
<path clip-path="url(#clip950)" d="M2466.39 177.223 Q2464.59 181.852 2462.88 183.264 Q2461.16 184.676 2458.29 184.676 L2454.89 184.676 L2454.89 181.112 L2457.39 181.112 Q2459.15 181.112 2460.12 180.278 Q2461.09 179.445 2462.27 176.343 L2463.04 174.399 L2452.55 148.889 L2457.07 148.889 L2465.17 169.167 L2473.27 148.889 L2477.78 148.889 L2466.39 177.223 Z" fill="#000000" fill-rule="evenodd" fill-opacity="1" /><path clip-path="url(#clip950)" d="M2485.07 170.88 L2492.71 170.88 L2492.71 144.515 L2484.4 146.181 L2484.4 141.922 L2492.67 140.255 L2497.34 140.255 L2497.34 170.88 L2504.98 170.88 L2504.98 174.815 L2485.07 174.815 L2485.07 170.88 Z" fill="#000000" fill-rule="evenodd" fill-opacity="1" /></svg>
