<?xml version="1.0" encoding="utf-8"?>
<svg xmlns="http://www.w3.org/2000/svg" xmlns:xlink="http://www.w3.org/1999/xlink" width="672" height="480" viewBox="0 0 2688 1920">
<defs>
  <clipPath id="clip770">
    <rect x="0" y="0" width="2688" height="1920"/>
  </clipPath>
</defs>
<path clip-path="url(#clip770)" d="
M0 1920 L2688 1920 L2688 0 L0 0  Z
  " fill="#ffffff" fill-rule="evenodd" fill-opacity="1"/>
<defs>
  <clipPath id="clip771">
    <rect x="537" y="0" width="1883" height="1883"/>
  </clipPath>
</defs>
<path clip-path="url(#clip770)" d="
M152.071 1800.78 L2640.76 1800.78 L2640.76 47.2441 L152.071 47.2441  Z
  " fill="#ffffff" fill-rule="evenodd" fill-opacity="1"/>
<defs>
  <clipPath id="clip772">
    <rect x="152" y="47" width="2490" height="1755"/>
  </clipPath>
</defs>
<polyline clip-path="url(#clip772)" style="stroke:#000000; stroke-linecap:round; stroke-linejoin:round; stroke-width:2; stroke-opacity:0.1; fill:none" points="
  457.287,1800.78 457.287,47.2441 
  "/>
<polyline clip-path="url(#clip772)" style="stroke:#000000; stroke-linecap:round; stroke-linejoin:round; stroke-width:2; stroke-opacity:0.1; fill:none" points="
  926.85,1800.78 926.85,47.2441 
  "/>
<polyline clip-path="url(#clip772)" style="stroke:#000000; stroke-linecap:round; stroke-linejoin:round; stroke-width:2; stroke-opacity:0.1; fill:none" points="
  1396.41,1800.78 1396.41,47.2441 
  "/>
<polyline clip-path="url(#clip772)" style="stroke:#000000; stroke-linecap:round; stroke-linejoin:round; stroke-width:2; stroke-opacity:0.1; fill:none" points="
  1865.98,1800.78 1865.98,47.2441 
  "/>
<polyline clip-path="url(#clip772)" style="stroke:#000000; stroke-linecap:round; stroke-linejoin:round; stroke-width:2; stroke-opacity:0.1; fill:none" points="
  2335.54,1800.78 2335.54,47.2441 
  "/>
<polyline clip-path="url(#clip770)" style="stroke:#000000; stroke-linecap:round; stroke-linejoin:round; stroke-width:4; stroke-opacity:1; fill:none" points="
  152.071,1800.78 2640.76,1800.78 
  "/>
<polyline clip-path="url(#clip770)" style="stroke:#000000; stroke-linecap:round; stroke-linejoin:round; stroke-width:4; stroke-opacity:1; fill:none" points="
  457.287,1800.78 457.287,1781.88 
  "/>
<polyline clip-path="url(#clip770)" style="stroke:#000000; stroke-linecap:round; stroke-linejoin:round; stroke-width:4; stroke-opacity:1; fill:none" points="
  926.85,1800.78 926.85,1781.88 
  "/>
<polyline clip-path="url(#clip770)" style="stroke:#000000; stroke-linecap:round; stroke-linejoin:round; stroke-width:4; stroke-opacity:1; fill:none" points="
  1396.41,1800.78 1396.41,1781.88 
  "/>
<polyline clip-path="url(#clip770)" style="stroke:#000000; stroke-linecap:round; stroke-linejoin:round; stroke-width:4; stroke-opacity:1; fill:none" points="
  1865.98,1800.78 1865.98,1781.88 
  "/>
<polyline clip-path="url(#clip770)" style="stroke:#000000; stroke-linecap:round; stroke-linejoin:round; stroke-width:4; stroke-opacity:1; fill:none" points="
  2335.54,1800.78 2335.54,1781.88 
  "/>
<path clip-path="url(#clip770)" d="M426.188 1848.65 L455.863 1848.65 L455.863 1852.59 L426.188 1852.59 L426.188 1848.65 Z" fill="#000000" fill-rule="evenodd" fill-opacity="1" /><path clip-path="url(#clip770)" d="M478.803 1835 L466.998 1853.45 L478.803 1853.45 L478.803 1835 M477.576 1830.92 L483.456 1830.92 L483.456 1853.45 L488.386 1853.45 L488.386 1857.34 L483.456 1857.34 L483.456 1865.48 L478.803 1865.48 L478.803 1857.34 L463.201 1857.34 L463.201 1852.82 L477.576 1830.92 Z" fill="#000000" fill-rule="evenodd" fill-opacity="1" /><path clip-path="url(#clip770)" d="M896.792 1848.65 L926.468 1848.65 L926.468 1852.59 L896.792 1852.59 L896.792 1848.65 Z" fill="#000000" fill-rule="evenodd" fill-opacity="1" /><path clip-path="url(#clip770)" d="M940.589 1861.55 L956.908 1861.55 L956.908 1865.48 L934.964 1865.48 L934.964 1861.55 Q937.626 1858.79 942.209 1854.16 Q946.815 1849.51 947.996 1848.17 Q950.241 1845.65 951.121 1843.91 Q952.024 1842.15 952.024 1840.46 Q952.024 1837.71 950.079 1835.97 Q948.158 1834.23 945.056 1834.23 Q942.857 1834.23 940.403 1835 Q937.973 1835.76 935.195 1837.31 L935.195 1832.59 Q938.019 1831.46 940.473 1830.88 Q942.926 1830.3 944.964 1830.3 Q950.334 1830.3 953.528 1832.98 Q956.723 1835.67 956.723 1840.16 Q956.723 1842.29 955.913 1844.21 Q955.125 1846.11 953.019 1848.7 Q952.44 1849.37 949.338 1852.59 Q946.237 1855.78 940.589 1861.55 Z" fill="#000000" fill-rule="evenodd" fill-opacity="1" /><path clip-path="url(#clip770)" d="M1396.41 1834 Q1392.8 1834 1390.97 1837.57 Q1389.17 1841.11 1389.17 1848.24 Q1389.17 1855.34 1390.97 1858.91 Q1392.8 1862.45 1396.41 1862.45 Q1400.05 1862.45 1401.85 1858.91 Q1403.68 1855.34 1403.68 1848.24 Q1403.68 1841.11 1401.85 1837.57 Q1400.05 1834 1396.41 1834 M1396.41 1830.3 Q1402.22 1830.3 1405.28 1834.9 Q1408.36 1839.49 1408.36 1848.24 Q1408.36 1856.96 1405.28 1861.57 Q1402.22 1866.15 1396.41 1866.15 Q1390.6 1866.15 1387.52 1861.57 Q1384.47 1856.96 1384.47 1848.24 Q1384.47 1839.49 1387.52 1834.9 Q1390.6 1830.3 1396.41 1830.3 Z" fill="#000000" fill-rule="evenodd" fill-opacity="1" /><path clip-path="url(#clip770)" d="M1860.63 1861.55 L1876.95 1861.55 L1876.95 1865.48 L1855 1865.48 L1855 1861.55 Q1857.67 1858.79 1862.25 1854.16 Q1866.86 1849.51 1868.04 1848.17 Q1870.28 1845.65 1871.16 1843.91 Q1872.06 1842.15 1872.06 1840.46 Q1872.06 1837.71 1870.12 1835.97 Q1868.2 1834.23 1865.1 1834.23 Q1862.9 1834.23 1860.44 1835 Q1858.01 1835.76 1855.24 1837.31 L1855.24 1832.59 Q1858.06 1831.46 1860.51 1830.88 Q1862.97 1830.3 1865 1830.3 Q1870.37 1830.3 1873.57 1832.98 Q1876.76 1835.67 1876.76 1840.16 Q1876.76 1842.29 1875.95 1844.21 Q1875.17 1846.11 1873.06 1848.7 Q1872.48 1849.37 1869.38 1852.59 Q1866.28 1855.78 1860.63 1861.55 Z" fill="#000000" fill-rule="evenodd" fill-opacity="1" /><path clip-path="url(#clip770)" d="M2338.55 1835 L2326.74 1853.45 L2338.55 1853.45 L2338.55 1835 M2337.32 1830.92 L2343.2 1830.92 L2343.2 1853.45 L2348.13 1853.45 L2348.13 1857.34 L2343.2 1857.34 L2343.2 1865.48 L2338.55 1865.48 L2338.55 1857.34 L2322.95 1857.34 L2322.95 1852.82 L2337.32 1830.92 Z" fill="#000000" fill-rule="evenodd" fill-opacity="1" /><polyline clip-path="url(#clip772)" style="stroke:#000000; stroke-linecap:round; stroke-linejoin:round; stroke-width:2; stroke-opacity:0.1; fill:none" points="
  152.071,1585.72 2640.76,1585.72 
  "/>
<polyline clip-path="url(#clip772)" style="stroke:#000000; stroke-linecap:round; stroke-linejoin:round; stroke-width:2; stroke-opacity:0.1; fill:none" points="
  152.071,1254.87 2640.76,1254.87 
  "/>
<polyline clip-path="url(#clip772)" style="stroke:#000000; stroke-linecap:round; stroke-linejoin:round; stroke-width:2; stroke-opacity:0.1; fill:none" points="
  152.071,924.012 2640.76,924.012 
  "/>
<polyline clip-path="url(#clip772)" style="stroke:#000000; stroke-linecap:round; stroke-linejoin:round; stroke-width:2; stroke-opacity:0.1; fill:none" points="
  152.071,593.156 2640.76,593.156 
  "/>
<polyline clip-path="url(#clip772)" style="stroke:#000000; stroke-linecap:round; stroke-linejoin:round; stroke-width:2; stroke-opacity:0.1; fill:none" points="
  152.071,262.3 2640.76,262.3 
  "/>
<polyline clip-path="url(#clip770)" style="stroke:#000000; stroke-linecap:round; stroke-linejoin:round; stroke-width:4; stroke-opacity:1; fill:none" points="
  152.071,1800.78 152.071,47.2441 
  "/>
<polyline clip-path="url(#clip770)" style="stroke:#000000; stroke-linecap:round; stroke-linejoin:round; stroke-width:4; stroke-opacity:1; fill:none" points="
  152.071,1585.72 170.969,1585.72 
  "/>
<polyline clip-path="url(#clip770)" style="stroke:#000000; stroke-linecap:round; stroke-linejoin:round; stroke-width:4; stroke-opacity:1; fill:none" points="
  152.071,1254.87 170.969,1254.87 
  "/>
<polyline clip-path="url(#clip770)" style="stroke:#000000; stroke-linecap:round; stroke-linejoin:round; stroke-width:4; stroke-opacity:1; fill:none" points="
  152.071,924.012 170.969,924.012 
  "/>
<polyline clip-path="url(#clip770)" style="stroke:#000000; stroke-linecap:round; stroke-linejoin:round; stroke-width:4; stroke-opacity:1; fill:none" points="
  152.071,593.156 170.969,593.156 
  "/>
<polyline clip-path="url(#clip770)" style="stroke:#000000; stroke-linecap:round; stroke-linejoin:round; stroke-width:4; stroke-opacity:1; fill:none" points="
  152.071,262.3 170.969,262.3 
  "/>
<path clip-path="url(#clip770)" d="M49.5521 1586.17 L79.2279 1586.17 L79.2279 1590.11 L49.5521 1590.11 L49.5521 1586.17 Z" fill="#000000" fill-rule="evenodd" fill-opacity="1" /><path clip-path="url(#clip770)" d="M102.168 1572.52 L90.3621 1590.97 L102.168 1590.97 L102.168 1572.52 M100.941 1568.44 L106.82 1568.44 L106.82 1590.97 L111.751 1590.97 L111.751 1594.85 L106.82 1594.85 L106.82 1603 L102.168 1603 L102.168 1594.85 L86.5658 1594.85 L86.5658 1590.34 L100.941 1568.44 Z" fill="#000000" fill-rule="evenodd" fill-opacity="1" /><path clip-path="url(#clip770)" d="M51.6354 1255.32 L81.3112 1255.32 L81.3112 1259.25 L51.6354 1259.25 L51.6354 1255.32 Z" fill="#000000" fill-rule="evenodd" fill-opacity="1" /><path clip-path="url(#clip770)" d="M95.4315 1268.21 L111.751 1268.21 L111.751 1272.15 L89.8065 1272.15 L89.8065 1268.21 Q92.4686 1265.46 97.0519 1260.83 Q101.658 1256.18 102.839 1254.83 Q105.084 1252.31 105.964 1250.57 Q106.867 1248.81 106.867 1247.12 Q106.867 1244.37 104.922 1242.63 Q103.001 1240.9 99.8991 1240.9 Q97.7 1240.9 95.2463 1241.66 Q92.8158 1242.43 90.038 1243.98 L90.038 1239.25 Q92.8621 1238.12 95.3158 1237.54 Q97.7695 1236.96 99.8065 1236.96 Q105.177 1236.96 108.371 1239.65 Q111.566 1242.33 111.566 1246.82 Q111.566 1248.95 110.756 1250.87 Q109.968 1252.77 107.862 1255.37 Q107.283 1256.04 104.181 1259.25 Q101.08 1262.45 95.4315 1268.21 Z" fill="#000000" fill-rule="evenodd" fill-opacity="1" /><path clip-path="url(#clip770)" d="M99.8065 909.81 Q96.1954 909.81 94.3667 913.375 Q92.5612 916.917 92.5612 924.046 Q92.5612 931.153 94.3667 934.718 Q96.1954 938.259 99.8065 938.259 Q103.441 938.259 105.246 934.718 Q107.075 931.153 107.075 924.046 Q107.075 916.917 105.246 913.375 Q103.441 909.81 99.8065 909.81 M99.8065 906.107 Q105.617 906.107 108.672 910.713 Q111.751 915.296 111.751 924.046 Q111.751 932.773 108.672 937.38 Q105.617 941.963 99.8065 941.963 Q93.9963 941.963 90.9176 937.38 Q87.8621 932.773 87.8621 924.046 Q87.8621 915.296 90.9176 910.713 Q93.9963 906.107 99.8065 906.107 Z" fill="#000000" fill-rule="evenodd" fill-opacity="1" /><path clip-path="url(#clip770)" d="M95.4315 606.501 L111.751 606.501 L111.751 610.436 L89.8065 610.436 L89.8065 606.501 Q92.4686 603.746 97.0519 599.117 Q101.658 594.464 102.839 593.121 Q105.084 590.598 105.964 588.862 Q106.867 587.103 106.867 585.413 Q106.867 582.658 104.922 580.922 Q103.001 579.186 99.8991 579.186 Q97.7 579.186 95.2463 579.95 Q92.8158 580.714 90.038 582.265 L90.038 577.543 Q92.8621 576.408 95.3158 575.83 Q97.7695 575.251 99.8065 575.251 Q105.177 575.251 108.371 577.936 Q111.566 580.621 111.566 585.112 Q111.566 587.242 110.756 589.163 Q109.968 591.061 107.862 593.654 Q107.283 594.325 104.181 597.543 Q101.08 600.737 95.4315 606.501 Z" fill="#000000" fill-rule="evenodd" fill-opacity="1" /><path clip-path="url(#clip770)" d="M102.168 249.094 L90.3621 267.543 L102.168 267.543 L102.168 249.094 M100.941 245.02 L106.82 245.02 L106.82 267.543 L111.751 267.543 L111.751 271.432 L106.82 271.432 L106.82 279.58 L102.168 279.58 L102.168 271.432 L86.5658 271.432 L86.5658 266.918 L100.941 245.02 Z" fill="#000000" fill-rule="evenodd" fill-opacity="1" /><polyline clip-path="url(#clip772)" style="stroke:#009af9; stroke-linecap:round; stroke-linejoin:round; stroke-width:4; stroke-opacity:1; fill:none" points="
  222.505,1751.15 230.148,1751.15 237.791,1751.15 308.459,1751.15 379.128,1751.15 400.362,1751.15 421.597,1751.15 432.214,1751.15 442.831,1751.15 445.486,1751.15 
  448.14,1751.15 450.794,1751.15 453.449,1751.15 454.112,1751.15 454.776,1751.15 455.439,1751.15 456.103,1751.15 456.766,1751.15 457.43,1585.72 458.094,1585.72 
  458.757,1585.72 460.084,1585.72 461.411,1585.72 462.739,1585.72 464.066,1585.72 473.042,1585.72 482.019,1585.72 490.996,1585.72 499.973,1585.72 517.926,1585.72 
  535.88,1585.72 574.884,1585.72 613.889,1585.72 631.869,1585.72 649.848,1585.72 658.838,1585.72 667.828,1585.72 676.818,1585.72 685.808,1585.72 687.012,1585.72 
  688.217,1585.72 689.422,1585.72 690.627,1585.72 691.229,1585.72 691.831,1585.72 692.434,1420.3 693.036,1420.3 693.638,1420.3 694.241,1420.3 694.843,1420.3 
  695.446,1420.3 697.855,1420.3 700.265,1420.3 702.674,1420.3 705.084,1420.3 714.722,1420.3 724.36,1420.3 743.636,1420.3 762.911,1420.3 807.578,1420.3 
  852.244,1420.3 872.091,1420.3 891.938,1420.3 901.862,1420.3 911.785,1420.3 916.747,1420.3 921.709,1420.3 922.949,1420.3 924.189,1420.3 924.81,1420.3 
  925.43,1420.3 926.05,1420.3 926.67,1420.3 927.291,1254.87 927.911,1254.87 928.531,1254.87 929.151,1254.87 930.392,1254.87 931.632,1254.87 935.983,1254.87 
  940.334,1254.87 944.685,1254.87 949.036,1254.87 957.738,1254.87 966.44,1254.87 983.844,1254.87 1001.25,1254.87 1039.2,1254.87 1077.15,1254.87 1096.24,1254.87 
  1115.32,1254.87 1134.41,1254.87 1153.5,1254.87 1156.14,1254.87 1158.78,1254.87 1159.44,1254.87 1160.1,1254.87 1160.75,1254.87 1161.41,1254.87 1162.07,1089.44 
  1162.73,1089.44 1163.39,1089.44 1164.05,1089.44 1165.37,1089.44 1166.69,1089.44 1168.01,1089.44 1169.33,1089.44 1171.97,1089.44 1174.6,1089.44 1185.16,1089.44 
  1195.71,1089.44 1216.81,1089.44 1237.92,1089.44 1278.08,1089.44 1318.24,1089.44 1339.12,1089.44 1359.99,1089.44 1370.43,1089.44 1380.87,1089.44 1383.48,1089.44 
  1386.09,1089.44 1388.7,1089.44 1391.31,1089.44 1392.62,1089.44 1393.92,1089.44 1394.57,1089.44 1395.23,1089.44 1395.88,1089.44 1396.53,924.012 1397.18,924.012 
  1397.84,924.012 1398.49,924.012 1399.14,924.012 1400.45,924.012 1401.75,924.012 1410.54,924.012 1419.33,924.012 1428.11,924.012 1436.9,924.012 1454.48,924.012 
  1472.05,924.012 1514.97,924.012 1557.88,924.012 1577.54,924.012 1597.19,924.012 1607.02,924.012 1616.85,924.012 1619.31,924.012 1621.76,924.012 1624.22,924.012 
  1626.68,924.012 1627.91,924.012 1629.14,924.012 1629.75,924.012 1630.36,924.012 1630.98,924.012 1631.59,758.584 1632.21,758.584 1632.82,758.584 1633.44,758.584 
  1634.05,758.584 1635.28,758.584 1636.51,758.584 1645.58,758.584 1654.66,758.584 1663.74,758.584 1672.82,758.584 1690.97,758.584 1709.12,758.584 1745.9,758.584 
  1782.68,758.584 1803.29,758.584 1823.9,758.584 1834.21,758.584 1844.51,758.584 1849.66,758.584 1854.82,758.584 1857.39,758.584 1859.97,758.584 1861.26,758.584 
  1862.54,758.584 1863.83,758.584 1865.12,758.584 1865.7,758.584 1866.29,593.156 1866.87,593.156 1867.45,593.156 1868.62,593.156 1869.79,593.156 1872.12,593.156 
  1874.46,593.156 1879.13,593.156 1883.8,593.156 1893.13,593.156 1902.47,593.156 1921.15,593.156 1939.82,593.156 1982.59,593.156 2025.35,593.156 2045.15,593.156 
  2064.95,593.156 2074.85,593.156 2084.75,593.156 2089.7,593.156 2094.65,593.156 2095.88,593.156 2097.12,593.156 2097.74,593.156 2098.36,593.156 2098.98,593.156 
  2099.6,593.156 2100.21,593.156 2100.83,427.728 2101.45,427.728 2102.07,427.728 2103.31,427.728 2104.54,427.728 2109.42,427.728 2114.3,427.728 2119.18,427.728 
  2124.06,427.728 2133.82,427.728 2143.58,427.728 2163.1,427.728 2182.62,427.728 2220.52,427.728 2258.42,427.728 2277.85,427.728 2297.28,427.728 2306.99,427.728 
  2316.7,427.728 2321.56,427.728 2326.42,427.728 2328.85,427.728 2331.27,427.728 2332.49,427.728 2333.7,427.728 2334.31,427.728 2334.92,427.728 2335.52,427.728 
  2336.13,262.3 2336.8,262.3 2337.46,262.3 2338.13,262.3 2338.79,262.3 2340.12,262.3 2341.45,262.3 2344.11,262.3 2346.77,262.3 2352.1,262.3 
  2357.42,262.3 2368.06,262.3 2378.7,262.3 2399.99,262.3 2421.27,262.3 2483.11,262.3 2544.95,262.3 2557.63,262.3 2570.32,96.8724 
  "/>
<path clip-path="url(#clip770)" d="
M2228.85 209.375 L2557.8 209.375 L2557.8 105.695 L2228.85 105.695  Z
  " fill="#ffffff" fill-rule="evenodd" fill-opacity="1"/>
<polyline clip-path="url(#clip770)" style="stroke:#000000; stroke-linecap:round; stroke-linejoin:round; stroke-width:4; stroke-opacity:1; fill:none" points="
  2228.85,209.375 2557.8,209.375 2557.8,105.695 2228.85,105.695 2228.85,209.375 
  "/>
<polyline clip-path="url(#clip770)" style="stroke:#009af9; stroke-linecap:round; stroke-linejoin:round; stroke-width:4; stroke-opacity:1; fill:none" points="
  2256.5,157.535 2422.41,157.535 
  "/>
<path clip-path="url(#clip770)" d="M2463.91 177.223 Q2462.1 181.852 2460.39 183.264 Q2458.68 184.676 2455.81 184.676 L2452.4 184.676 L2452.4 181.112 L2454.9 181.112 Q2456.66 181.112 2457.63 180.278 Q2458.61 179.445 2459.79 176.343 L2460.55 174.399 L2450.07 148.889 L2454.58 148.889 L2462.68 169.167 L2470.78 148.889 L2475.3 148.889 L2463.91 177.223 Z" fill="#000000" fill-rule="evenodd" fill-opacity="1" /><path clip-path="url(#clip770)" d="M2482.59 170.88 L2490.23 170.88 L2490.23 144.515 L2481.92 146.181 L2481.92 141.922 L2490.18 140.255 L2494.86 140.255 L2494.86 170.88 L2502.5 170.88 L2502.5 174.815 L2482.59 174.815 L2482.59 170.88 Z" fill="#000000" fill-rule="evenodd" fill-opacity="1" /></svg>
