<?xml version="1.0" encoding="utf-8"?>
<svg xmlns="http://www.w3.org/2000/svg" xmlns:xlink="http://www.w3.org/1999/xlink" width="672" height="480" viewBox="0 0 2688 1920">
<defs>
  <clipPath id="clip030">
    <rect x="0" y="0" width="2688" height="1920"/>
  </clipPath>
</defs>
<path clip-path="url(#clip030)" d="
M0 1920 L2688 1920 L2688 0 L0 0  Z
  " fill="#ffffff" fill-rule="evenodd" fill-opacity="1"/>
<defs>
  <clipPath id="clip031">
    <rect x="537" y="0" width="1883" height="1883"/>
  </clipPath>
</defs>
<path clip-path="url(#clip030)" d="
M150.358 1800.78 L2640.76 1800.78 L2640.76 47.2441 L150.358 47.2441  Z
  " fill="#ffffff" fill-rule="evenodd" fill-opacity="1"/>
<defs>
  <clipPath id="clip032">
    <rect x="150" y="47" width="2491" height="1755"/>
  </clipPath>
</defs>
<polyline clip-path="url(#clip032)" style="stroke:#000000; stroke-linecap:butt; stroke-linejoin:round; stroke-width:2; stroke-opacity:0.1; fill:none" points="
  220.841,1800.78 220.841,47.2441 
  "/>
<polyline clip-path="url(#clip032)" style="stroke:#000000; stroke-linecap:butt; stroke-linejoin:round; stroke-width:2; stroke-opacity:0.1; fill:none" points="
  690.727,1800.78 690.727,47.2441 
  "/>
<polyline clip-path="url(#clip032)" style="stroke:#000000; stroke-linecap:butt; stroke-linejoin:round; stroke-width:2; stroke-opacity:0.1; fill:none" points="
  1160.61,1800.78 1160.61,47.2441 
  "/>
<polyline clip-path="url(#clip032)" style="stroke:#000000; stroke-linecap:butt; stroke-linejoin:round; stroke-width:2; stroke-opacity:0.1; fill:none" points="
  1630.5,1800.78 1630.5,47.2441 
  "/>
<polyline clip-path="url(#clip032)" style="stroke:#000000; stroke-linecap:butt; stroke-linejoin:round; stroke-width:2; stroke-opacity:0.1; fill:none" points="
  2100.39,1800.78 2100.39,47.2441 
  "/>
<polyline clip-path="url(#clip032)" style="stroke:#000000; stroke-linecap:butt; stroke-linejoin:round; stroke-width:2; stroke-opacity:0.1; fill:none" points="
  2570.27,1800.78 2570.27,47.2441 
  "/>
<polyline clip-path="url(#clip030)" style="stroke:#000000; stroke-linecap:butt; stroke-linejoin:round; stroke-width:4; stroke-opacity:1; fill:none" points="
  150.358,1800.78 2640.76,1800.78 
  "/>
<polyline clip-path="url(#clip030)" style="stroke:#000000; stroke-linecap:butt; stroke-linejoin:round; stroke-width:4; stroke-opacity:1; fill:none" points="
  220.841,1800.78 220.841,1781.88 
  "/>
<polyline clip-path="url(#clip030)" style="stroke:#000000; stroke-linecap:butt; stroke-linejoin:round; stroke-width:4; stroke-opacity:1; fill:none" points="
  690.727,1800.78 690.727,1781.88 
  "/>
<polyline clip-path="url(#clip030)" style="stroke:#000000; stroke-linecap:butt; stroke-linejoin:round; stroke-width:4; stroke-opacity:1; fill:none" points="
  1160.61,1800.78 1160.61,1781.88 
  "/>
<polyline clip-path="url(#clip030)" style="stroke:#000000; stroke-linecap:butt; stroke-linejoin:round; stroke-width:4; stroke-opacity:1; fill:none" points="
  1630.5,1800.78 1630.5,1781.88 
  "/>
<polyline clip-path="url(#clip030)" style="stroke:#000000; stroke-linecap:butt; stroke-linejoin:round; stroke-width:4; stroke-opacity:1; fill:none" points="
  2100.39,1800.78 2100.39,1781.88 
  "/>
<polyline clip-path="url(#clip030)" style="stroke:#000000; stroke-linecap:butt; stroke-linejoin:round; stroke-width:4; stroke-opacity:1; fill:none" points="
  2570.27,1800.78 2570.27,1781.88 
  "/>
<path clip-path="url(#clip030)" d="M190.783 1848.65 L220.459 1848.65 L220.459 1852.59 L190.783 1852.59 L190.783 1848.65 Z" fill="#000000" fill-rule="evenodd" fill-opacity="1" /><path clip-path="url(#clip030)" d="M234.579 1861.55 L250.899 1861.55 L250.899 1865.48 L228.954 1865.48 L228.954 1861.55 Q231.616 1858.79 236.2 1854.16 Q240.806 1849.51 241.987 1848.17 Q244.232 1845.65 245.112 1843.91 Q246.014 1842.15 246.014 1840.46 Q246.014 1837.71 244.07 1835.97 Q242.149 1834.23 239.047 1834.23 Q236.848 1834.23 234.394 1835 Q231.964 1835.76 229.186 1837.31 L229.186 1832.59 Q232.01 1831.46 234.463 1830.88 Q236.917 1830.3 238.954 1830.3 Q244.325 1830.3 247.519 1832.98 Q250.713 1835.67 250.713 1840.16 Q250.713 1842.29 249.903 1844.21 Q249.116 1846.11 247.01 1848.7 Q246.431 1849.37 243.329 1852.59 Q240.227 1855.78 234.579 1861.55 Z" fill="#000000" fill-rule="evenodd" fill-opacity="1" /><path clip-path="url(#clip030)" d="M660.484 1848.65 L690.16 1848.65 L690.16 1852.59 L660.484 1852.59 L660.484 1848.65 Z" fill="#000000" fill-rule="evenodd" fill-opacity="1" /><path clip-path="url(#clip030)" d="M701.063 1861.55 L708.702 1861.55 L708.702 1835.18 L700.392 1836.85 L700.392 1832.59 L708.655 1830.92 L713.331 1830.92 L713.331 1861.55 L720.97 1861.55 L720.97 1865.48 L701.063 1865.48 L701.063 1861.55 Z" fill="#000000" fill-rule="evenodd" fill-opacity="1" /><path clip-path="url(#clip030)" d="M1160.61 1834 Q1157 1834 1155.17 1837.57 Q1153.37 1841.11 1153.37 1848.24 Q1153.37 1855.34 1155.17 1858.91 Q1157 1862.45 1160.61 1862.45 Q1164.25 1862.45 1166.05 1858.91 Q1167.88 1855.34 1167.88 1848.24 Q1167.88 1841.11 1166.05 1837.57 Q1164.25 1834 1160.61 1834 M1160.61 1830.3 Q1166.42 1830.3 1169.48 1834.9 Q1172.56 1839.49 1172.56 1848.24 Q1172.56 1856.96 1169.48 1861.57 Q1166.42 1866.15 1160.61 1866.15 Q1154.8 1866.15 1151.72 1861.57 Q1148.67 1856.96 1148.67 1848.24 Q1148.67 1839.49 1151.72 1834.9 Q1154.8 1830.3 1160.61 1830.3 Z" fill="#000000" fill-rule="evenodd" fill-opacity="1" /><path clip-path="url(#clip030)" d="M1620.88 1861.55 L1628.52 1861.55 L1628.52 1835.18 L1620.21 1836.85 L1620.21 1832.59 L1628.47 1830.92 L1633.15 1830.92 L1633.15 1861.55 L1640.79 1861.55 L1640.79 1865.48 L1620.88 1865.48 L1620.88 1861.55 Z" fill="#000000" fill-rule="evenodd" fill-opacity="1" /><path clip-path="url(#clip030)" d="M2095.04 1861.55 L2111.36 1861.55 L2111.36 1865.48 L2089.41 1865.48 L2089.41 1861.55 Q2092.08 1858.79 2096.66 1854.16 Q2101.27 1849.51 2102.45 1848.17 Q2104.69 1845.65 2105.57 1843.91 Q2106.47 1842.15 2106.47 1840.46 Q2106.47 1837.71 2104.53 1835.97 Q2102.61 1834.23 2099.51 1834.23 Q2097.31 1834.23 2094.85 1835 Q2092.42 1835.76 2089.65 1837.31 L2089.65 1832.59 Q2092.47 1831.46 2094.92 1830.88 Q2097.38 1830.3 2099.41 1830.3 Q2104.78 1830.3 2107.98 1832.98 Q2111.17 1835.67 2111.17 1840.16 Q2111.17 1842.29 2110.36 1844.21 Q2109.58 1846.11 2107.47 1848.7 Q2106.89 1849.37 2103.79 1852.59 Q2100.69 1855.78 2095.04 1861.55 Z" fill="#000000" fill-rule="evenodd" fill-opacity="1" /><path clip-path="url(#clip030)" d="M2574.52 1846.85 Q2577.88 1847.57 2579.75 1849.84 Q2581.65 1852.1 2581.65 1855.44 Q2581.65 1860.55 2578.13 1863.35 Q2574.61 1866.15 2568.13 1866.15 Q2565.96 1866.15 2563.64 1865.71 Q2561.35 1865.3 2558.9 1864.44 L2558.9 1859.93 Q2560.84 1861.06 2563.15 1861.64 Q2565.47 1862.22 2567.99 1862.22 Q2572.39 1862.22 2574.68 1860.48 Q2577 1858.75 2577 1855.44 Q2577 1852.38 2574.84 1850.67 Q2572.72 1848.93 2568.9 1848.93 L2564.87 1848.93 L2564.87 1845.09 L2569.08 1845.09 Q2572.53 1845.09 2574.36 1843.72 Q2576.19 1842.34 2576.19 1839.74 Q2576.19 1837.08 2574.29 1835.67 Q2572.41 1834.23 2568.9 1834.23 Q2566.97 1834.23 2564.78 1834.65 Q2562.58 1835.07 2559.94 1835.95 L2559.94 1831.78 Q2562.6 1831.04 2564.91 1830.67 Q2567.25 1830.3 2569.31 1830.3 Q2574.64 1830.3 2577.74 1832.73 Q2580.84 1835.14 2580.84 1839.26 Q2580.84 1842.13 2579.2 1844.12 Q2577.55 1846.09 2574.52 1846.85 Z" fill="#000000" fill-rule="evenodd" fill-opacity="1" /><polyline clip-path="url(#clip032)" style="stroke:#000000; stroke-linecap:butt; stroke-linejoin:round; stroke-width:2; stroke-opacity:0.1; fill:none" points="
  150.358,1751.15 2640.76,1751.15 
  "/>
<polyline clip-path="url(#clip032)" style="stroke:#000000; stroke-linecap:butt; stroke-linejoin:round; stroke-width:2; stroke-opacity:0.1; fill:none" points="
  150.358,1475.44 2640.76,1475.44 
  "/>
<polyline clip-path="url(#clip032)" style="stroke:#000000; stroke-linecap:butt; stroke-linejoin:round; stroke-width:2; stroke-opacity:0.1; fill:none" points="
  150.358,1199.72 2640.76,1199.72 
  "/>
<polyline clip-path="url(#clip032)" style="stroke:#000000; stroke-linecap:butt; stroke-linejoin:round; stroke-width:2; stroke-opacity:0.1; fill:none" points="
  150.358,924.012 2640.76,924.012 
  "/>
<polyline clip-path="url(#clip032)" style="stroke:#000000; stroke-linecap:butt; stroke-linejoin:round; stroke-width:2; stroke-opacity:0.1; fill:none" points="
  150.358,648.299 2640.76,648.299 
  "/>
<polyline clip-path="url(#clip032)" style="stroke:#000000; stroke-linecap:butt; stroke-linejoin:round; stroke-width:2; stroke-opacity:0.1; fill:none" points="
  150.358,372.586 2640.76,372.586 
  "/>
<polyline clip-path="url(#clip032)" style="stroke:#000000; stroke-linecap:butt; stroke-linejoin:round; stroke-width:2; stroke-opacity:0.1; fill:none" points="
  150.358,96.8724 2640.76,96.8724 
  "/>
<polyline clip-path="url(#clip030)" style="stroke:#000000; stroke-linecap:butt; stroke-linejoin:round; stroke-width:4; stroke-opacity:1; fill:none" points="
  150.358,1800.78 150.358,47.2441 
  "/>
<polyline clip-path="url(#clip030)" style="stroke:#000000; stroke-linecap:butt; stroke-linejoin:round; stroke-width:4; stroke-opacity:1; fill:none" points="
  150.358,1751.15 169.256,1751.15 
  "/>
<polyline clip-path="url(#clip030)" style="stroke:#000000; stroke-linecap:butt; stroke-linejoin:round; stroke-width:4; stroke-opacity:1; fill:none" points="
  150.358,1475.44 169.256,1475.44 
  "/>
<polyline clip-path="url(#clip030)" style="stroke:#000000; stroke-linecap:butt; stroke-linejoin:round; stroke-width:4; stroke-opacity:1; fill:none" points="
  150.358,1199.72 169.256,1199.72 
  "/>
<polyline clip-path="url(#clip030)" style="stroke:#000000; stroke-linecap:butt; stroke-linejoin:round; stroke-width:4; stroke-opacity:1; fill:none" points="
  150.358,924.012 169.256,924.012 
  "/>
<polyline clip-path="url(#clip030)" style="stroke:#000000; stroke-linecap:butt; stroke-linejoin:round; stroke-width:4; stroke-opacity:1; fill:none" points="
  150.358,648.299 169.256,648.299 
  "/>
<polyline clip-path="url(#clip030)" style="stroke:#000000; stroke-linecap:butt; stroke-linejoin:round; stroke-width:4; stroke-opacity:1; fill:none" points="
  150.358,372.586 169.256,372.586 
  "/>
<polyline clip-path="url(#clip030)" style="stroke:#000000; stroke-linecap:butt; stroke-linejoin:round; stroke-width:4; stroke-opacity:1; fill:none" points="
  150.358,96.8724 169.256,96.8724 
  "/>
<path clip-path="url(#clip030)" d="M49.9225 1751.6 L79.5983 1751.6 L79.5983 1755.54 L49.9225 1755.54 L49.9225 1751.6 Z" fill="#000000" fill-rule="evenodd" fill-opacity="1" /><path clip-path="url(#clip030)" d="M93.7186 1764.5 L110.038 1764.5 L110.038 1768.43 L88.0936 1768.43 L88.0936 1764.5 Q90.7556 1761.74 95.3389 1757.11 Q99.9454 1752.46 101.126 1751.12 Q103.371 1748.59 104.251 1746.86 Q105.154 1745.1 105.154 1743.41 Q105.154 1740.65 103.209 1738.92 Q101.288 1737.18 98.1861 1737.18 Q95.9871 1737.18 93.5334 1737.94 Q91.1028 1738.71 88.3251 1740.26 L88.3251 1735.54 Q91.1491 1734.4 93.6028 1733.82 Q96.0565 1733.25 98.0935 1733.25 Q103.464 1733.25 106.658 1735.93 Q109.853 1738.62 109.853 1743.11 Q109.853 1745.24 109.043 1747.16 Q108.256 1749.06 106.149 1751.65 Q105.57 1752.32 102.469 1755.54 Q99.3667 1758.73 93.7186 1764.5 Z" fill="#000000" fill-rule="evenodd" fill-opacity="1" /><path clip-path="url(#clip030)" d="M49.5521 1475.89 L79.2279 1475.89 L79.2279 1479.82 L49.5521 1479.82 L49.5521 1475.89 Z" fill="#000000" fill-rule="evenodd" fill-opacity="1" /><path clip-path="url(#clip030)" d="M90.1306 1488.78 L97.7695 1488.78 L97.7695 1462.42 L89.4593 1464.08 L89.4593 1459.82 L97.7232 1458.16 L102.399 1458.16 L102.399 1488.78 L110.038 1488.78 L110.038 1492.72 L90.1306 1492.72 L90.1306 1488.78 Z" fill="#000000" fill-rule="evenodd" fill-opacity="1" /><path clip-path="url(#clip030)" d="M98.0935 1185.52 Q94.4824 1185.52 92.6537 1189.09 Q90.8482 1192.63 90.8482 1199.76 Q90.8482 1206.87 92.6537 1210.43 Q94.4824 1213.97 98.0935 1213.97 Q101.728 1213.97 103.533 1210.43 Q105.362 1206.87 105.362 1199.76 Q105.362 1192.63 103.533 1189.09 Q101.728 1185.52 98.0935 1185.52 M98.0935 1181.82 Q103.904 1181.82 106.959 1186.43 Q110.038 1191.01 110.038 1199.76 Q110.038 1208.49 106.959 1213.09 Q103.904 1217.68 98.0935 1217.68 Q92.2834 1217.68 89.2047 1213.09 Q86.1492 1208.49 86.1492 1199.76 Q86.1492 1191.01 89.2047 1186.43 Q92.2834 1181.82 98.0935 1181.82 Z" fill="#000000" fill-rule="evenodd" fill-opacity="1" /><path clip-path="url(#clip030)" d="M90.1306 937.357 L97.7695 937.357 L97.7695 910.991 L89.4593 912.658 L89.4593 908.398 L97.7232 906.732 L102.399 906.732 L102.399 937.357 L110.038 937.357 L110.038 941.292 L90.1306 941.292 L90.1306 937.357 Z" fill="#000000" fill-rule="evenodd" fill-opacity="1" /><path clip-path="url(#clip030)" d="M93.7186 661.643 L110.038 661.643 L110.038 665.579 L88.0936 665.579 L88.0936 661.643 Q90.7556 658.889 95.3389 654.259 Q99.9454 649.606 101.126 648.264 Q103.371 645.741 104.251 644.005 Q105.154 642.245 105.154 640.556 Q105.154 637.801 103.209 636.065 Q101.288 634.329 98.1861 634.329 Q95.9871 634.329 93.5334 635.093 Q91.1028 635.857 88.3251 637.407 L88.3251 632.685 Q91.1491 631.551 93.6028 630.972 Q96.0565 630.394 98.0935 630.394 Q103.464 630.394 106.658 633.079 Q109.853 635.764 109.853 640.255 Q109.853 642.384 109.043 644.306 Q108.256 646.204 106.149 648.796 Q105.57 649.468 102.469 652.685 Q99.3667 655.88 93.7186 661.643 Z" fill="#000000" fill-rule="evenodd" fill-opacity="1" /><path clip-path="url(#clip030)" d="M102.908 371.231 Q106.265 371.949 108.14 374.217 Q110.038 376.486 110.038 379.819 Q110.038 384.935 106.519 387.736 Q103.001 390.537 96.5195 390.537 Q94.3436 390.537 92.0288 390.097 Q89.7371 389.68 87.2834 388.824 L87.2834 384.31 Q89.2278 385.444 91.5426 386.023 Q93.8574 386.602 96.3806 386.602 Q100.779 386.602 103.07 384.866 Q105.385 383.129 105.385 379.819 Q105.385 376.764 103.232 375.051 Q101.103 373.315 97.2834 373.315 L93.2556 373.315 L93.2556 369.472 L97.4685 369.472 Q100.918 369.472 102.746 368.106 Q104.575 366.718 104.575 364.125 Q104.575 361.463 102.677 360.051 Q100.802 358.616 97.2834 358.616 Q95.3621 358.616 93.163 359.032 Q90.9639 359.449 88.3251 360.329 L88.3251 356.162 Q90.9871 355.421 93.3019 355.051 Q95.6398 354.681 97.7 354.681 Q103.024 354.681 106.126 357.111 Q109.228 359.518 109.228 363.639 Q109.228 366.509 107.584 368.5 Q105.941 370.467 102.908 371.231 Z" fill="#000000" fill-rule="evenodd" fill-opacity="1" /><path clip-path="url(#clip030)" d="M100.455 83.6665 L88.6491 102.115 L100.455 102.115 L100.455 83.6665 M99.2278 79.5924 L105.107 79.5924 L105.107 102.115 L110.038 102.115 L110.038 106.004 L105.107 106.004 L105.107 114.152 L100.455 114.152 L100.455 106.004 L84.8529 106.004 L84.8529 101.49 L99.2278 79.5924 Z" fill="#000000" fill-rule="evenodd" fill-opacity="1" /><polyline clip-path="url(#clip032)" style="stroke:#009af9; stroke-linecap:butt; stroke-linejoin:round; stroke-width:4; stroke-opacity:1; fill:none" points="
  220.841,96.8724 223.9,104.041 252.187,169.217 269.186,207.423 283.559,239.163 299.172,273.058 313.565,303.766 328.996,336.113 346.875,372.847 362.764,404.822 
  376.697,432.342 391.887,461.795 407.168,490.84 424.063,522.275 440.138,551.523 456.852,581.249 470.922,605.732 488.1,634.952 503.836,661.072 518.369,684.647 
  533.091,707.991 549.59,733.508 564.541,756.044 581.658,781.161 597.508,803.764 613.133,825.435 628.305,845.891 643.857,866.265 660.897,887.893 685.649,918.02 
  690.727,924.012 
  "/>
<polyline clip-path="url(#clip032)" style="stroke:#e26f46; stroke-linecap:butt; stroke-linejoin:round; stroke-width:4; stroke-opacity:1; fill:none" points="
  690.727,1098.3 693.787,1097.63 722.073,1091.3 739.073,1087.3 753.445,1083.81 769.058,1079.9 783.452,1076.17 798.883,1072.04 816.762,1067.09 832.65,1062.53 
  846.583,1058.4 861.774,1053.76 877.054,1048.93 893.949,1043.41 910.024,1037.97 926.739,1032.12 940.809,1027.02 957.986,1020.59 973.722,1014.49 988.256,1008.67 
  1002.98,1002.59 1019.48,995.546 1034.43,988.945 1051.54,981.125 1067.39,973.626 1083.02,965.981 1098.19,958.31 1113.74,950.186 1130.78,940.971 1155.54,926.975 
  1160.61,924.012 
  "/>
<polyline clip-path="url(#clip032)" style="stroke:#3da44d; stroke-linecap:butt; stroke-linejoin:round; stroke-width:4; stroke-opacity:1; fill:none" points="
  1160.61,924.012 1163.67,927.602 1191.96,960.797 1208.96,980.746 1223.33,997.613 1238.94,1015.94 1253.34,1032.83 1268.77,1050.94 1286.65,1071.92 1302.54,1090.56 
  1316.47,1106.91 1331.66,1124.74 1346.94,1142.67 1363.84,1162.5 1379.91,1181.36 1396.63,1200.98 1410.7,1217.49 1427.87,1237.65 1443.61,1256.12 1458.14,1273.17 
  1472.86,1290.45 1489.36,1309.81 1504.31,1327.35 1521.43,1347.44 1537.28,1366.04 1552.91,1384.38 1568.08,1402.18 1583.63,1420.43 1600.67,1440.43 1625.42,1469.48 
  1630.5,1475.44 
  "/>
<polyline clip-path="url(#clip032)" style="stroke:#c271d2; stroke-linecap:butt; stroke-linejoin:round; stroke-width:4; stroke-opacity:1; fill:none" points="
  1630.5,924.012 1633.56,923.116 1661.85,914.964 1678.85,910.175 1693.22,906.187 1708.83,901.916 1723.22,898.032 1738.66,893.923 1756.53,889.229 1772.42,885.117 
  1786.36,881.555 1801.55,877.716 1816.83,873.9 1833.72,869.733 1849.8,865.816 1866.51,861.791 1880.58,858.44 1897.76,854.392 1913.5,850.726 1928.03,847.373 
  1942.75,844.01 1959.25,840.277 1974.2,836.929 1991.32,833.132 2007.17,829.651 2022.79,826.251 2037.96,822.98 2053.52,819.655 2070.56,816.046 2095.31,810.862 
  2100.39,809.808 
  "/>
<polyline clip-path="url(#clip032)" style="stroke:#ac8d18; stroke-linecap:butt; stroke-linejoin:round; stroke-width:4; stroke-opacity:1; fill:none" points="
  2100.39,1475.44 2103.45,1477.23 2131.73,1493.83 2148.73,1503.81 2163.1,1512.24 2178.72,1521.4 2193.11,1529.85 2208.54,1538.9 2226.42,1549.39 2242.31,1558.71 
  2256.24,1566.89 2271.43,1575.8 2286.71,1584.77 2303.61,1594.68 2319.68,1604.11 2336.4,1613.92 2350.47,1622.18 2367.65,1632.26 2383.38,1641.49 2397.91,1650.02 
  2412.64,1658.66 2429.14,1668.34 2444.09,1677.11 2461.2,1687.15 2477.05,1696.45 2492.68,1705.62 2507.85,1714.52 2523.4,1723.65 2540.44,1733.65 2565.19,1748.17 
  2570.27,1751.15 
  "/>
</svg>
