<?xml version="1.0" encoding="utf-8"?>
<svg xmlns="http://www.w3.org/2000/svg" xmlns:xlink="http://www.w3.org/1999/xlink" width="672" height="480" viewBox="0 0 2688 1920">
<defs>
  <clipPath id="clip780">
    <rect x="0" y="0" width="2688" height="1920"/>
  </clipPath>
</defs>
<path clip-path="url(#clip780)" d="
M0 1920 L2688 1920 L2688 0 L0 0  Z
  " fill="#ffffff" fill-rule="evenodd" fill-opacity="1"/>
<defs>
  <clipPath id="clip781">
    <rect x="537" y="0" width="1883" height="1883"/>
  </clipPath>
</defs>
<path clip-path="url(#clip780)" d="
M196.816 1800.78 L2640.76 1800.78 L2640.76 47.2441 L196.816 47.2441  Z
  " fill="#ffffff" fill-rule="evenodd" fill-opacity="1"/>
<defs>
  <clipPath id="clip782">
    <rect x="196" y="47" width="2445" height="1755"/>
  </clipPath>
</defs>
<polyline clip-path="url(#clip782)" style="stroke:#000000; stroke-linecap:butt; stroke-linejoin:round; stroke-width:2; stroke-opacity:0.1; fill:none" points="
  196.816,1800.78 196.816,47.2441 
  "/>
<polyline clip-path="url(#clip782)" style="stroke:#000000; stroke-linecap:butt; stroke-linejoin:round; stroke-width:2; stroke-opacity:0.1; fill:none" points="
  807.801,1800.78 807.801,47.2441 
  "/>
<polyline clip-path="url(#clip782)" style="stroke:#000000; stroke-linecap:butt; stroke-linejoin:round; stroke-width:2; stroke-opacity:0.1; fill:none" points="
  1418.79,1800.78 1418.79,47.2441 
  "/>
<polyline clip-path="url(#clip782)" style="stroke:#000000; stroke-linecap:butt; stroke-linejoin:round; stroke-width:2; stroke-opacity:0.1; fill:none" points="
  2029.77,1800.78 2029.77,47.2441 
  "/>
<polyline clip-path="url(#clip782)" style="stroke:#000000; stroke-linecap:butt; stroke-linejoin:round; stroke-width:2; stroke-opacity:0.1; fill:none" points="
  2640.76,1800.78 2640.76,47.2441 
  "/>
<polyline clip-path="url(#clip780)" style="stroke:#000000; stroke-linecap:butt; stroke-linejoin:round; stroke-width:4; stroke-opacity:1; fill:none" points="
  196.816,1800.78 2640.76,1800.78 
  "/>
<polyline clip-path="url(#clip780)" style="stroke:#000000; stroke-linecap:butt; stroke-linejoin:round; stroke-width:4; stroke-opacity:1; fill:none" points="
  196.816,1800.78 196.816,1781.88 
  "/>
<polyline clip-path="url(#clip780)" style="stroke:#000000; stroke-linecap:butt; stroke-linejoin:round; stroke-width:4; stroke-opacity:1; fill:none" points="
  807.801,1800.78 807.801,1781.88 
  "/>
<polyline clip-path="url(#clip780)" style="stroke:#000000; stroke-linecap:butt; stroke-linejoin:round; stroke-width:4; stroke-opacity:1; fill:none" points="
  1418.79,1800.78 1418.79,1781.88 
  "/>
<polyline clip-path="url(#clip780)" style="stroke:#000000; stroke-linecap:butt; stroke-linejoin:round; stroke-width:4; stroke-opacity:1; fill:none" points="
  2029.77,1800.78 2029.77,1781.88 
  "/>
<polyline clip-path="url(#clip780)" style="stroke:#000000; stroke-linecap:butt; stroke-linejoin:round; stroke-width:4; stroke-opacity:1; fill:none" points="
  2640.76,1800.78 2640.76,1781.88 
  "/>
<path clip-path="url(#clip780)" d="M174.2 1834 Q170.589 1834 168.761 1837.57 Q166.955 1841.11 166.955 1848.24 Q166.955 1855.34 168.761 1858.91 Q170.589 1862.45 174.2 1862.45 Q177.835 1862.45 179.64 1858.91 Q181.469 1855.34 181.469 1848.24 Q181.469 1841.11 179.64 1837.57 Q177.835 1834 174.2 1834 M174.2 1830.3 Q180.011 1830.3 183.066 1834.9 Q186.145 1839.49 186.145 1848.24 Q186.145 1856.96 183.066 1861.57 Q180.011 1866.15 174.2 1866.15 Q168.39 1866.15 165.312 1861.57 Q162.256 1856.96 162.256 1848.24 Q162.256 1839.49 165.312 1834.9 Q168.39 1830.3 174.2 1830.3 Z" fill="#000000" fill-rule="evenodd" fill-opacity="1" /><path clip-path="url(#clip780)" d="M194.362 1859.6 L199.247 1859.6 L199.247 1865.48 L194.362 1865.48 L194.362 1859.6 Z" fill="#000000" fill-rule="evenodd" fill-opacity="1" /><path clip-path="url(#clip780)" d="M219.432 1834 Q215.821 1834 213.992 1837.57 Q212.186 1841.11 212.186 1848.24 Q212.186 1855.34 213.992 1858.91 Q215.821 1862.45 219.432 1862.45 Q223.066 1862.45 224.871 1858.91 Q226.7 1855.34 226.7 1848.24 Q226.7 1841.11 224.871 1837.57 Q223.066 1834 219.432 1834 M219.432 1830.3 Q225.242 1830.3 228.297 1834.9 Q231.376 1839.49 231.376 1848.24 Q231.376 1856.96 228.297 1861.57 Q225.242 1866.15 219.432 1866.15 Q213.621 1866.15 210.543 1861.57 Q207.487 1856.96 207.487 1848.24 Q207.487 1839.49 210.543 1834.9 Q213.621 1830.3 219.432 1830.3 Z" fill="#000000" fill-rule="evenodd" fill-opacity="1" /><path clip-path="url(#clip780)" d="M785.683 1834 Q782.072 1834 780.243 1837.57 Q778.438 1841.11 778.438 1848.24 Q778.438 1855.34 780.243 1858.91 Q782.072 1862.45 785.683 1862.45 Q789.317 1862.45 791.123 1858.91 Q792.952 1855.34 792.952 1848.24 Q792.952 1841.11 791.123 1837.57 Q789.317 1834 785.683 1834 M785.683 1830.3 Q791.493 1830.3 794.549 1834.9 Q797.627 1839.49 797.627 1848.24 Q797.627 1856.96 794.549 1861.57 Q791.493 1866.15 785.683 1866.15 Q779.873 1866.15 776.794 1861.57 Q773.739 1856.96 773.739 1848.24 Q773.739 1839.49 776.794 1834.9 Q779.873 1830.3 785.683 1830.3 Z" fill="#000000" fill-rule="evenodd" fill-opacity="1" /><path clip-path="url(#clip780)" d="M805.845 1859.6 L810.729 1859.6 L810.729 1865.48 L805.845 1865.48 L805.845 1859.6 Z" fill="#000000" fill-rule="evenodd" fill-opacity="1" /><path clip-path="url(#clip780)" d="M820.961 1830.92 L839.317 1830.92 L839.317 1834.86 L825.243 1834.86 L825.243 1843.33 Q826.262 1842.98 827.28 1842.82 Q828.299 1842.64 829.317 1842.64 Q835.104 1842.64 838.484 1845.81 Q841.863 1848.98 841.863 1854.4 Q841.863 1859.97 838.391 1863.08 Q834.919 1866.15 828.599 1866.15 Q826.424 1866.15 824.155 1865.78 Q821.91 1865.41 819.502 1864.67 L819.502 1859.97 Q821.586 1861.11 823.808 1861.66 Q826.03 1862.22 828.507 1862.22 Q832.511 1862.22 834.849 1860.11 Q837.187 1858.01 837.187 1854.4 Q837.187 1850.78 834.849 1848.68 Q832.511 1846.57 828.507 1846.57 Q826.632 1846.57 824.757 1846.99 Q822.905 1847.4 820.961 1848.28 L820.961 1830.92 Z" fill="#000000" fill-rule="evenodd" fill-opacity="1" /><path clip-path="url(#clip780)" d="M1385.94 1861.55 L1393.58 1861.55 L1393.58 1835.18 L1385.27 1836.85 L1385.27 1832.59 L1393.53 1830.92 L1398.21 1830.92 L1398.21 1861.55 L1405.85 1861.55 L1405.85 1865.48 L1385.94 1865.48 L1385.94 1861.55 Z" fill="#000000" fill-rule="evenodd" fill-opacity="1" /><path clip-path="url(#clip780)" d="M1415.29 1859.6 L1420.17 1859.6 L1420.17 1865.48 L1415.29 1865.48 L1415.29 1859.6 Z" fill="#000000" fill-rule="evenodd" fill-opacity="1" /><path clip-path="url(#clip780)" d="M1440.36 1834 Q1436.75 1834 1434.92 1837.57 Q1433.11 1841.11 1433.11 1848.24 Q1433.11 1855.34 1434.92 1858.91 Q1436.75 1862.45 1440.36 1862.45 Q1443.99 1862.45 1445.8 1858.91 Q1447.63 1855.34 1447.63 1848.24 Q1447.63 1841.11 1445.8 1837.57 Q1443.99 1834 1440.36 1834 M1440.36 1830.3 Q1446.17 1830.3 1449.23 1834.9 Q1452.3 1839.49 1452.3 1848.24 Q1452.3 1856.96 1449.23 1861.57 Q1446.17 1866.15 1440.36 1866.15 Q1434.55 1866.15 1431.47 1861.57 Q1428.42 1856.96 1428.42 1848.24 Q1428.42 1839.49 1431.47 1834.9 Q1434.55 1830.3 1440.36 1830.3 Z" fill="#000000" fill-rule="evenodd" fill-opacity="1" /><path clip-path="url(#clip780)" d="M1997.42 1861.55 L2005.06 1861.55 L2005.06 1835.18 L1996.75 1836.85 L1996.75 1832.59 L2005.01 1830.92 L2009.69 1830.92 L2009.69 1861.55 L2017.33 1861.55 L2017.33 1865.48 L1997.42 1865.48 L1997.42 1861.55 Z" fill="#000000" fill-rule="evenodd" fill-opacity="1" /><path clip-path="url(#clip780)" d="M2026.77 1859.6 L2031.66 1859.6 L2031.66 1865.48 L2026.77 1865.48 L2026.77 1859.6 Z" fill="#000000" fill-rule="evenodd" fill-opacity="1" /><path clip-path="url(#clip780)" d="M2041.89 1830.92 L2060.25 1830.92 L2060.25 1834.86 L2046.17 1834.86 L2046.17 1843.33 Q2047.19 1842.98 2048.21 1842.82 Q2049.23 1842.64 2050.25 1842.64 Q2056.03 1842.64 2059.41 1845.81 Q2062.79 1848.98 2062.79 1854.4 Q2062.79 1859.97 2059.32 1863.08 Q2055.85 1866.15 2049.53 1866.15 Q2047.35 1866.15 2045.08 1865.78 Q2042.84 1865.41 2040.43 1864.67 L2040.43 1859.97 Q2042.51 1861.11 2044.74 1861.66 Q2046.96 1862.22 2049.44 1862.22 Q2053.44 1862.22 2055.78 1860.11 Q2058.12 1858.01 2058.12 1854.4 Q2058.12 1850.78 2055.78 1848.68 Q2053.44 1846.57 2049.44 1846.57 Q2047.56 1846.57 2045.69 1846.99 Q2043.83 1847.4 2041.89 1848.28 L2041.89 1830.92 Z" fill="#000000" fill-rule="evenodd" fill-opacity="1" /><path clip-path="url(#clip780)" d="M2611.99 1861.55 L2628.31 1861.55 L2628.31 1865.48 L2606.37 1865.48 L2606.37 1861.55 Q2609.03 1858.79 2613.61 1854.16 Q2618.22 1849.51 2619.4 1848.17 Q2621.65 1845.65 2622.53 1843.91 Q2623.43 1842.15 2623.43 1840.46 Q2623.43 1837.71 2621.49 1835.97 Q2619.56 1834.23 2616.46 1834.23 Q2614.26 1834.23 2611.81 1835 Q2609.38 1835.76 2606.6 1837.31 L2606.6 1832.59 Q2609.43 1831.46 2611.88 1830.88 Q2614.33 1830.3 2616.37 1830.3 Q2621.74 1830.3 2624.93 1832.98 Q2628.13 1835.67 2628.13 1840.16 Q2628.13 1842.29 2627.32 1844.21 Q2626.53 1846.11 2624.42 1848.7 Q2623.85 1849.37 2620.74 1852.59 Q2617.64 1855.78 2611.99 1861.55 Z" fill="#000000" fill-rule="evenodd" fill-opacity="1" /><path clip-path="url(#clip780)" d="M2638.13 1859.6 L2643.01 1859.6 L2643.01 1865.48 L2638.13 1865.48 L2638.13 1859.6 Z" fill="#000000" fill-rule="evenodd" fill-opacity="1" /><path clip-path="url(#clip780)" d="M2663.2 1834 Q2659.59 1834 2657.76 1837.57 Q2655.95 1841.11 2655.95 1848.24 Q2655.95 1855.34 2657.76 1858.91 Q2659.59 1862.45 2663.2 1862.45 Q2666.83 1862.45 2668.64 1858.91 Q2670.47 1855.34 2670.47 1848.24 Q2670.47 1841.11 2668.64 1837.57 Q2666.83 1834 2663.2 1834 M2663.2 1830.3 Q2669.01 1830.3 2672.06 1834.9 Q2675.14 1839.49 2675.14 1848.24 Q2675.14 1856.96 2672.06 1861.57 Q2669.01 1866.15 2663.2 1866.15 Q2657.39 1866.15 2654.31 1861.57 Q2651.25 1856.96 2651.25 1848.24 Q2651.25 1839.49 2654.31 1834.9 Q2657.39 1830.3 2663.2 1830.3 Z" fill="#000000" fill-rule="evenodd" fill-opacity="1" /><polyline clip-path="url(#clip782)" style="stroke:#000000; stroke-linecap:butt; stroke-linejoin:round; stroke-width:2; stroke-opacity:0.1; fill:none" points="
  196.816,1800.78 2640.76,1800.78 
  "/>
<polyline clip-path="url(#clip782)" style="stroke:#000000; stroke-linecap:butt; stroke-linejoin:round; stroke-width:2; stroke-opacity:0.1; fill:none" points="
  196.816,1362.4 2640.76,1362.4 
  "/>
<polyline clip-path="url(#clip782)" style="stroke:#000000; stroke-linecap:butt; stroke-linejoin:round; stroke-width:2; stroke-opacity:0.1; fill:none" points="
  196.816,924.012 2640.76,924.012 
  "/>
<polyline clip-path="url(#clip782)" style="stroke:#000000; stroke-linecap:butt; stroke-linejoin:round; stroke-width:2; stroke-opacity:0.1; fill:none" points="
  196.816,485.628 2640.76,485.628 
  "/>
<polyline clip-path="url(#clip782)" style="stroke:#000000; stroke-linecap:butt; stroke-linejoin:round; stroke-width:2; stroke-opacity:0.1; fill:none" points="
  196.816,47.2441 2640.76,47.2441 
  "/>
<polyline clip-path="url(#clip780)" style="stroke:#000000; stroke-linecap:butt; stroke-linejoin:round; stroke-width:4; stroke-opacity:1; fill:none" points="
  196.816,1800.78 196.816,47.2441 
  "/>
<polyline clip-path="url(#clip780)" style="stroke:#000000; stroke-linecap:butt; stroke-linejoin:round; stroke-width:4; stroke-opacity:1; fill:none" points="
  196.816,1800.78 215.714,1800.78 
  "/>
<polyline clip-path="url(#clip780)" style="stroke:#000000; stroke-linecap:butt; stroke-linejoin:round; stroke-width:4; stroke-opacity:1; fill:none" points="
  196.816,1362.4 215.714,1362.4 
  "/>
<polyline clip-path="url(#clip780)" style="stroke:#000000; stroke-linecap:butt; stroke-linejoin:round; stroke-width:4; stroke-opacity:1; fill:none" points="
  196.816,924.012 215.714,924.012 
  "/>
<polyline clip-path="url(#clip780)" style="stroke:#000000; stroke-linecap:butt; stroke-linejoin:round; stroke-width:4; stroke-opacity:1; fill:none" points="
  196.816,485.628 215.714,485.628 
  "/>
<polyline clip-path="url(#clip780)" style="stroke:#000000; stroke-linecap:butt; stroke-linejoin:round; stroke-width:4; stroke-opacity:1; fill:none" points="
  196.816,47.2441 215.714,47.2441 
  "/>
<path clip-path="url(#clip780)" d="M49.5521 1801.23 L79.2279 1801.23 L79.2279 1805.17 L49.5521 1805.17 L49.5521 1801.23 Z" fill="#000000" fill-rule="evenodd" fill-opacity="1" /><path clip-path="url(#clip780)" d="M89.3667 1783.5 L107.723 1783.5 L107.723 1787.43 L93.6491 1787.43 L93.6491 1795.91 Q94.6676 1795.56 95.6861 1795.4 Q96.7047 1795.21 97.7232 1795.21 Q103.51 1795.21 106.89 1798.38 Q110.269 1801.55 110.269 1806.97 Q110.269 1812.55 106.797 1815.65 Q103.325 1818.73 97.0056 1818.73 Q94.8297 1818.73 92.5612 1818.36 Q90.3158 1817.99 87.9084 1817.25 L87.9084 1812.55 Q89.9917 1813.68 92.2139 1814.24 Q94.4361 1814.8 96.913 1814.8 Q100.918 1814.8 103.256 1812.69 Q105.593 1810.58 105.593 1806.97 Q105.593 1803.36 103.256 1801.25 Q100.918 1799.15 96.913 1799.15 Q95.038 1799.15 93.163 1799.56 Q91.3112 1799.98 89.3667 1800.86 L89.3667 1783.5 Z" fill="#000000" fill-rule="evenodd" fill-opacity="1" /><path clip-path="url(#clip780)" d="M119.482 1812.18 L124.367 1812.18 L124.367 1818.06 L119.482 1818.06 L119.482 1812.18 Z" fill="#000000" fill-rule="evenodd" fill-opacity="1" /><path clip-path="url(#clip780)" d="M144.552 1786.58 Q140.941 1786.58 139.112 1790.14 Q137.306 1793.68 137.306 1800.81 Q137.306 1807.92 139.112 1811.49 Q140.941 1815.03 144.552 1815.03 Q148.186 1815.03 149.991 1811.49 Q151.82 1807.92 151.82 1800.81 Q151.82 1793.68 149.991 1790.14 Q148.186 1786.58 144.552 1786.58 M144.552 1782.87 Q150.362 1782.87 153.417 1787.48 Q156.496 1792.06 156.496 1800.81 Q156.496 1809.54 153.417 1814.15 Q150.362 1818.73 144.552 1818.73 Q138.741 1818.73 135.663 1814.15 Q132.607 1809.54 132.607 1800.81 Q132.607 1792.06 135.663 1787.48 Q138.741 1782.87 144.552 1782.87 Z" fill="#000000" fill-rule="evenodd" fill-opacity="1" /><path clip-path="url(#clip780)" d="M50.5475 1362.85 L80.2233 1362.85 L80.2233 1366.78 L50.5475 1366.78 L50.5475 1362.85 Z" fill="#000000" fill-rule="evenodd" fill-opacity="1" /><path clip-path="url(#clip780)" d="M94.3436 1375.74 L110.663 1375.74 L110.663 1379.68 L88.7186 1379.68 L88.7186 1375.74 Q91.3806 1372.99 95.9639 1368.36 Q100.57 1363.7 101.751 1362.36 Q103.996 1359.84 104.876 1358.1 Q105.779 1356.34 105.779 1354.65 Q105.779 1351.9 103.834 1350.16 Q101.913 1348.43 98.8111 1348.43 Q96.6121 1348.43 94.1584 1349.19 Q91.7278 1349.95 88.9501 1351.5 L88.9501 1346.78 Q91.7741 1345.65 94.2278 1345.07 Q96.6815 1344.49 98.7185 1344.49 Q104.089 1344.49 107.283 1347.18 Q110.478 1349.86 110.478 1354.35 Q110.478 1356.48 109.668 1358.4 Q108.881 1360.3 106.774 1362.89 Q106.195 1363.56 103.094 1366.78 Q99.9917 1369.98 94.3436 1375.74 Z" fill="#000000" fill-rule="evenodd" fill-opacity="1" /><path clip-path="url(#clip780)" d="M120.478 1373.8 L125.362 1373.8 L125.362 1379.68 L120.478 1379.68 L120.478 1373.8 Z" fill="#000000" fill-rule="evenodd" fill-opacity="1" /><path clip-path="url(#clip780)" d="M135.593 1345.12 L153.95 1345.12 L153.95 1349.05 L139.876 1349.05 L139.876 1357.52 Q140.894 1357.18 141.913 1357.01 Q142.931 1356.83 143.95 1356.83 Q149.737 1356.83 153.116 1360 Q156.496 1363.17 156.496 1368.59 Q156.496 1374.17 153.024 1377.27 Q149.552 1380.35 143.232 1380.35 Q141.056 1380.35 138.788 1379.98 Q136.542 1379.61 134.135 1378.87 L134.135 1374.17 Q136.218 1375.3 138.441 1375.86 Q140.663 1376.41 143.14 1376.41 Q147.144 1376.41 149.482 1374.31 Q151.82 1372.2 151.82 1368.59 Q151.82 1364.98 149.482 1362.87 Q147.144 1360.76 143.14 1360.76 Q141.265 1360.76 139.39 1361.18 Q137.538 1361.6 135.593 1362.48 L135.593 1345.12 Z" fill="#000000" fill-rule="evenodd" fill-opacity="1" /><path clip-path="url(#clip780)" d="M99.3204 909.81 Q95.7093 909.81 93.8806 913.375 Q92.075 916.917 92.075 924.046 Q92.075 931.153 93.8806 934.718 Q95.7093 938.259 99.3204 938.259 Q102.955 938.259 104.76 934.718 Q106.589 931.153 106.589 924.046 Q106.589 916.917 104.76 913.375 Q102.955 909.81 99.3204 909.81 M99.3204 906.107 Q105.131 906.107 108.186 910.713 Q111.265 915.296 111.265 924.046 Q111.265 932.773 108.186 937.38 Q105.131 941.963 99.3204 941.963 Q93.5102 941.963 90.4315 937.38 Q87.376 932.773 87.376 924.046 Q87.376 915.296 90.4315 910.713 Q93.5102 906.107 99.3204 906.107 Z" fill="#000000" fill-rule="evenodd" fill-opacity="1" /><path clip-path="url(#clip780)" d="M119.482 935.412 L124.367 935.412 L124.367 941.292 L119.482 941.292 L119.482 935.412 Z" fill="#000000" fill-rule="evenodd" fill-opacity="1" /><path clip-path="url(#clip780)" d="M144.552 909.81 Q140.941 909.81 139.112 913.375 Q137.306 916.917 137.306 924.046 Q137.306 931.153 139.112 934.718 Q140.941 938.259 144.552 938.259 Q148.186 938.259 149.991 934.718 Q151.82 931.153 151.82 924.046 Q151.82 916.917 149.991 913.375 Q148.186 909.81 144.552 909.81 M144.552 906.107 Q150.362 906.107 153.417 910.713 Q156.496 915.296 156.496 924.046 Q156.496 932.773 153.417 937.38 Q150.362 941.963 144.552 941.963 Q138.741 941.963 135.663 937.38 Q132.607 932.773 132.607 924.046 Q132.607 915.296 135.663 910.713 Q138.741 906.107 144.552 906.107 Z" fill="#000000" fill-rule="evenodd" fill-opacity="1" /><path clip-path="url(#clip780)" d="M94.3436 498.973 L110.663 498.973 L110.663 502.908 L88.7186 502.908 L88.7186 498.973 Q91.3806 496.218 95.9639 491.589 Q100.57 486.936 101.751 485.593 Q103.996 483.07 104.876 481.334 Q105.779 479.575 105.779 477.885 Q105.779 475.13 103.834 473.394 Q101.913 471.658 98.8111 471.658 Q96.6121 471.658 94.1584 472.422 Q91.7278 473.186 88.9501 474.737 L88.9501 470.015 Q91.7741 468.88 94.2278 468.302 Q96.6815 467.723 98.7185 467.723 Q104.089 467.723 107.283 470.408 Q110.478 473.093 110.478 477.584 Q110.478 479.714 109.668 481.635 Q108.881 483.533 106.774 486.126 Q106.195 486.797 103.094 490.014 Q99.9917 493.209 94.3436 498.973 Z" fill="#000000" fill-rule="evenodd" fill-opacity="1" /><path clip-path="url(#clip780)" d="M120.478 497.028 L125.362 497.028 L125.362 502.908 L120.478 502.908 L120.478 497.028 Z" fill="#000000" fill-rule="evenodd" fill-opacity="1" /><path clip-path="url(#clip780)" d="M135.593 468.348 L153.95 468.348 L153.95 472.283 L139.876 472.283 L139.876 480.755 Q140.894 480.408 141.913 480.246 Q142.931 480.061 143.95 480.061 Q149.737 480.061 153.116 483.232 Q156.496 486.403 156.496 491.82 Q156.496 497.399 153.024 500.501 Q149.552 503.579 143.232 503.579 Q141.056 503.579 138.788 503.209 Q136.542 502.838 134.135 502.098 L134.135 497.399 Q136.218 498.533 138.441 499.088 Q140.663 499.644 143.14 499.644 Q147.144 499.644 149.482 497.538 Q151.82 495.431 151.82 491.82 Q151.82 488.209 149.482 486.102 Q147.144 483.996 143.14 483.996 Q141.265 483.996 139.39 484.413 Q137.538 484.829 135.593 485.709 L135.593 468.348 Z" fill="#000000" fill-rule="evenodd" fill-opacity="1" /><path clip-path="url(#clip780)" d="M89.3667 29.9641 L107.723 29.9641 L107.723 33.8993 L93.6491 33.8993 L93.6491 42.3714 Q94.6676 42.0242 95.6861 41.8622 Q96.7047 41.677 97.7232 41.677 Q103.51 41.677 106.89 44.8483 Q110.269 48.0196 110.269 53.4362 Q110.269 59.0149 106.797 62.1167 Q103.325 65.1954 97.0056 65.1954 Q94.8297 65.1954 92.5612 64.825 Q90.3158 64.4547 87.9084 63.7139 L87.9084 59.0149 Q89.9917 60.1491 92.2139 60.7047 Q94.4361 61.2602 96.913 61.2602 Q100.918 61.2602 103.256 59.1538 Q105.593 57.0473 105.593 53.4362 Q105.593 49.8251 103.256 47.7186 Q100.918 45.6122 96.913 45.6122 Q95.038 45.6122 93.163 46.0288 Q91.3112 46.4455 89.3667 47.3251 L89.3667 29.9641 Z" fill="#000000" fill-rule="evenodd" fill-opacity="1" /><path clip-path="url(#clip780)" d="M119.482 58.6445 L124.367 58.6445 L124.367 64.5241 L119.482 64.5241 L119.482 58.6445 Z" fill="#000000" fill-rule="evenodd" fill-opacity="1" /><path clip-path="url(#clip780)" d="M144.552 33.0428 Q140.941 33.0428 139.112 36.6076 Q137.306 40.1492 137.306 47.2788 Q137.306 54.3853 139.112 57.9501 Q140.941 61.4917 144.552 61.4917 Q148.186 61.4917 149.991 57.9501 Q151.82 54.3853 151.82 47.2788 Q151.82 40.1492 149.991 36.6076 Q148.186 33.0428 144.552 33.0428 M144.552 29.3391 Q150.362 29.3391 153.417 33.9456 Q156.496 38.5289 156.496 47.2788 Q156.496 56.0056 153.417 60.6121 Q150.362 65.1954 144.552 65.1954 Q138.741 65.1954 135.663 60.6121 Q132.607 56.0056 132.607 47.2788 Q132.607 38.5289 135.663 33.9456 Q138.741 29.3391 144.552 29.3391 Z" fill="#000000" fill-rule="evenodd" fill-opacity="1" /><polyline clip-path="url(#clip782)" style="stroke:#009af9; stroke-linecap:butt; stroke-linejoin:round; stroke-width:4; stroke-opacity:1; fill:none" points="
  196.816,1800.78 259.66,1575.32 
  "/>
<polyline clip-path="url(#clip782)" style="stroke:#009af9; stroke-linecap:butt; stroke-linejoin:round; stroke-width:4; stroke-opacity:1; fill:none" points="
  229.414,1608.75 259.66,1575.32 268.254,1619.58 
  "/>
<polyline clip-path="url(#clip782)" style="stroke:#009af9; stroke-linecap:butt; stroke-linejoin:round; stroke-width:4; stroke-opacity:1; fill:none" points="
  259.66,1575.32 196.816,1800.78 
  "/>
<polyline clip-path="url(#clip782)" style="stroke:#009af9; stroke-linecap:butt; stroke-linejoin:round; stroke-width:4; stroke-opacity:1; fill:none" points="
  196.816,1550.27 259.66,1389.24 
  "/>
<polyline clip-path="url(#clip782)" style="stroke:#009af9; stroke-linecap:butt; stroke-linejoin:round; stroke-width:4; stroke-opacity:1; fill:none" points="
  226.222,1419.47 259.66,1389.24 263.783,1434.13 
  "/>
<polyline clip-path="url(#clip782)" style="stroke:#009af9; stroke-linecap:butt; stroke-linejoin:round; stroke-width:4; stroke-opacity:1; fill:none" points="
  259.66,1389.24 196.816,1550.27 
  "/>
<polyline clip-path="url(#clip782)" style="stroke:#009af9; stroke-linecap:butt; stroke-linejoin:round; stroke-width:4; stroke-opacity:1; fill:none" points="
  196.816,1299.77 259.66,1203.15 
  "/>
<polyline clip-path="url(#clip782)" style="stroke:#009af9; stroke-linecap:butt; stroke-linejoin:round; stroke-width:4; stroke-opacity:1; fill:none" points="
  220.777,1225.95 259.66,1203.15 254.577,1247.94 
  "/>
<polyline clip-path="url(#clip782)" style="stroke:#009af9; stroke-linecap:butt; stroke-linejoin:round; stroke-width:4; stroke-opacity:1; fill:none" points="
  259.66,1203.15 196.816,1299.77 
  "/>
<polyline clip-path="url(#clip782)" style="stroke:#009af9; stroke-linecap:butt; stroke-linejoin:round; stroke-width:4; stroke-opacity:1; fill:none" points="
  196.816,1049.26 259.66,1017.06 
  "/>
<polyline clip-path="url(#clip782)" style="stroke:#009af9; stroke-linecap:butt; stroke-linejoin:round; stroke-width:4; stroke-opacity:1; fill:none" points="
  214.583,1017.51 259.66,1017.06 232.973,1053.39 
  "/>
<polyline clip-path="url(#clip782)" style="stroke:#009af9; stroke-linecap:butt; stroke-linejoin:round; stroke-width:4; stroke-opacity:1; fill:none" points="
  259.66,1017.06 196.816,1049.26 
  "/>
<polyline clip-path="url(#clip782)" style="stroke:#009af9; stroke-linecap:butt; stroke-linejoin:round; stroke-width:4; stroke-opacity:1; fill:none" points="
  196.816,798.759 259.66,830.967 
  "/>
<polyline clip-path="url(#clip782)" style="stroke:#009af9; stroke-linecap:butt; stroke-linejoin:round; stroke-width:4; stroke-opacity:1; fill:none" points="
  232.973,794.636 259.66,830.967 214.583,830.518 
  "/>
<polyline clip-path="url(#clip782)" style="stroke:#009af9; stroke-linecap:butt; stroke-linejoin:round; stroke-width:4; stroke-opacity:1; fill:none" points="
  259.66,830.967 196.816,798.759 
  "/>
<polyline clip-path="url(#clip782)" style="stroke:#009af9; stroke-linecap:butt; stroke-linejoin:round; stroke-width:4; stroke-opacity:1; fill:none" points="
  196.816,548.254 259.66,644.878 
  "/>
<polyline clip-path="url(#clip782)" style="stroke:#009af9; stroke-linecap:butt; stroke-linejoin:round; stroke-width:4; stroke-opacity:1; fill:none" points="
  254.577,600.086 259.66,644.878 220.777,622.069 
  "/>
<polyline clip-path="url(#clip782)" style="stroke:#009af9; stroke-linecap:butt; stroke-linejoin:round; stroke-width:4; stroke-opacity:1; fill:none" points="
  259.66,644.878 196.816,548.254 
  "/>
<polyline clip-path="url(#clip782)" style="stroke:#009af9; stroke-linecap:butt; stroke-linejoin:round; stroke-width:4; stroke-opacity:1; fill:none" points="
  196.816,297.749 259.66,458.788 
  "/>
<polyline clip-path="url(#clip782)" style="stroke:#009af9; stroke-linecap:butt; stroke-linejoin:round; stroke-width:4; stroke-opacity:1; fill:none" points="
  263.783,413.898 259.66,458.788 226.222,428.556 
  "/>
<polyline clip-path="url(#clip782)" style="stroke:#009af9; stroke-linecap:butt; stroke-linejoin:round; stroke-width:4; stroke-opacity:1; fill:none" points="
  259.66,458.788 196.816,297.749 
  "/>
<polyline clip-path="url(#clip782)" style="stroke:#009af9; stroke-linecap:butt; stroke-linejoin:round; stroke-width:4; stroke-opacity:1; fill:none" points="
  196.816,47.2441 259.66,272.699 
  "/>
<polyline clip-path="url(#clip782)" style="stroke:#009af9; stroke-linecap:butt; stroke-linejoin:round; stroke-width:4; stroke-opacity:1; fill:none" points="
  268.254,228.446 259.66,272.699 229.414,239.272 
  "/>
<polyline clip-path="url(#clip782)" style="stroke:#009af9; stroke-linecap:butt; stroke-linejoin:round; stroke-width:4; stroke-opacity:1; fill:none" points="
  259.66,272.699 196.816,47.2441 
  "/>
<polyline clip-path="url(#clip782)" style="stroke:#009af9; stroke-linecap:butt; stroke-linejoin:round; stroke-width:4; stroke-opacity:1; fill:none" points="
  545.95,1800.78 608.794,1575.32 
  "/>
<polyline clip-path="url(#clip782)" style="stroke:#009af9; stroke-linecap:butt; stroke-linejoin:round; stroke-width:4; stroke-opacity:1; fill:none" points="
  578.549,1608.75 608.794,1575.32 617.388,1619.58 
  "/>
<polyline clip-path="url(#clip782)" style="stroke:#009af9; stroke-linecap:butt; stroke-linejoin:round; stroke-width:4; stroke-opacity:1; fill:none" points="
  608.794,1575.32 545.95,1800.78 
  "/>
<polyline clip-path="url(#clip782)" style="stroke:#009af9; stroke-linecap:butt; stroke-linejoin:round; stroke-width:4; stroke-opacity:1; fill:none" points="
  545.95,1550.27 608.794,1389.24 
  "/>
<polyline clip-path="url(#clip782)" style="stroke:#009af9; stroke-linecap:butt; stroke-linejoin:round; stroke-width:4; stroke-opacity:1; fill:none" points="
  575.356,1419.47 608.794,1389.24 612.917,1434.13 
  "/>
<polyline clip-path="url(#clip782)" style="stroke:#009af9; stroke-linecap:butt; stroke-linejoin:round; stroke-width:4; stroke-opacity:1; fill:none" points="
  608.794,1389.24 545.95,1550.27 
  "/>
<polyline clip-path="url(#clip782)" style="stroke:#009af9; stroke-linecap:butt; stroke-linejoin:round; stroke-width:4; stroke-opacity:1; fill:none" points="
  545.95,1299.77 608.794,1203.15 
  "/>
<polyline clip-path="url(#clip782)" style="stroke:#009af9; stroke-linecap:butt; stroke-linejoin:round; stroke-width:4; stroke-opacity:1; fill:none" points="
  569.911,1225.95 608.794,1203.15 603.711,1247.94 
  "/>
<polyline clip-path="url(#clip782)" style="stroke:#009af9; stroke-linecap:butt; stroke-linejoin:round; stroke-width:4; stroke-opacity:1; fill:none" points="
  608.794,1203.15 545.95,1299.77 
  "/>
<polyline clip-path="url(#clip782)" style="stroke:#009af9; stroke-linecap:butt; stroke-linejoin:round; stroke-width:4; stroke-opacity:1; fill:none" points="
  545.95,1049.26 608.794,1017.06 
  "/>
<polyline clip-path="url(#clip782)" style="stroke:#009af9; stroke-linecap:butt; stroke-linejoin:round; stroke-width:4; stroke-opacity:1; fill:none" points="
  563.718,1017.51 608.794,1017.06 582.107,1053.39 
  "/>
<polyline clip-path="url(#clip782)" style="stroke:#009af9; stroke-linecap:butt; stroke-linejoin:round; stroke-width:4; stroke-opacity:1; fill:none" points="
  608.794,1017.06 545.95,1049.26 
  "/>
<polyline clip-path="url(#clip782)" style="stroke:#009af9; stroke-linecap:butt; stroke-linejoin:round; stroke-width:4; stroke-opacity:1; fill:none" points="
  545.95,798.759 608.794,830.967 
  "/>
<polyline clip-path="url(#clip782)" style="stroke:#009af9; stroke-linecap:butt; stroke-linejoin:round; stroke-width:4; stroke-opacity:1; fill:none" points="
  582.107,794.636 608.794,830.967 563.718,830.518 
  "/>
<polyline clip-path="url(#clip782)" style="stroke:#009af9; stroke-linecap:butt; stroke-linejoin:round; stroke-width:4; stroke-opacity:1; fill:none" points="
  608.794,830.967 545.95,798.759 
  "/>
<polyline clip-path="url(#clip782)" style="stroke:#009af9; stroke-linecap:butt; stroke-linejoin:round; stroke-width:4; stroke-opacity:1; fill:none" points="
  545.95,548.254 608.794,644.878 
  "/>
<polyline clip-path="url(#clip782)" style="stroke:#009af9; stroke-linecap:butt; stroke-linejoin:round; stroke-width:4; stroke-opacity:1; fill:none" points="
  603.711,600.086 608.794,644.878 569.911,622.069 
  "/>
<polyline clip-path="url(#clip782)" style="stroke:#009af9; stroke-linecap:butt; stroke-linejoin:round; stroke-width:4; stroke-opacity:1; fill:none" points="
  608.794,644.878 545.95,548.254 
  "/>
<polyline clip-path="url(#clip782)" style="stroke:#009af9; stroke-linecap:butt; stroke-linejoin:round; stroke-width:4; stroke-opacity:1; fill:none" points="
  545.95,297.749 608.794,458.788 
  "/>
<polyline clip-path="url(#clip782)" style="stroke:#009af9; stroke-linecap:butt; stroke-linejoin:round; stroke-width:4; stroke-opacity:1; fill:none" points="
  612.917,413.898 608.794,458.788 575.356,428.556 
  "/>
<polyline clip-path="url(#clip782)" style="stroke:#009af9; stroke-linecap:butt; stroke-linejoin:round; stroke-width:4; stroke-opacity:1; fill:none" points="
  608.794,458.788 545.95,297.749 
  "/>
<polyline clip-path="url(#clip782)" style="stroke:#009af9; stroke-linecap:butt; stroke-linejoin:round; stroke-width:4; stroke-opacity:1; fill:none" points="
  545.95,47.2441 608.794,272.699 
  "/>
<polyline clip-path="url(#clip782)" style="stroke:#009af9; stroke-linecap:butt; stroke-linejoin:round; stroke-width:4; stroke-opacity:1; fill:none" points="
  617.388,228.446 608.794,272.699 578.549,239.272 
  "/>
<polyline clip-path="url(#clip782)" style="stroke:#009af9; stroke-linecap:butt; stroke-linejoin:round; stroke-width:4; stroke-opacity:1; fill:none" points="
  608.794,272.699 545.95,47.2441 
  "/>
<polyline clip-path="url(#clip782)" style="stroke:#009af9; stroke-linecap:butt; stroke-linejoin:round; stroke-width:4; stroke-opacity:1; fill:none" points="
  895.085,1800.78 957.929,1575.32 
  "/>
<polyline clip-path="url(#clip782)" style="stroke:#009af9; stroke-linecap:butt; stroke-linejoin:round; stroke-width:4; stroke-opacity:1; fill:none" points="
  927.683,1608.75 957.929,1575.32 966.522,1619.58 
  "/>
<polyline clip-path="url(#clip782)" style="stroke:#009af9; stroke-linecap:butt; stroke-linejoin:round; stroke-width:4; stroke-opacity:1; fill:none" points="
  957.929,1575.32 895.085,1800.78 
  "/>
<polyline clip-path="url(#clip782)" style="stroke:#009af9; stroke-linecap:butt; stroke-linejoin:round; stroke-width:4; stroke-opacity:1; fill:none" points="
  895.085,1550.27 957.929,1389.24 
  "/>
<polyline clip-path="url(#clip782)" style="stroke:#009af9; stroke-linecap:butt; stroke-linejoin:round; stroke-width:4; stroke-opacity:1; fill:none" points="
  924.49,1419.47 957.929,1389.24 962.051,1434.13 
  "/>
<polyline clip-path="url(#clip782)" style="stroke:#009af9; stroke-linecap:butt; stroke-linejoin:round; stroke-width:4; stroke-opacity:1; fill:none" points="
  957.929,1389.24 895.085,1550.27 
  "/>
<polyline clip-path="url(#clip782)" style="stroke:#009af9; stroke-linecap:butt; stroke-linejoin:round; stroke-width:4; stroke-opacity:1; fill:none" points="
  895.085,1299.77 957.929,1203.15 
  "/>
<polyline clip-path="url(#clip782)" style="stroke:#009af9; stroke-linecap:butt; stroke-linejoin:round; stroke-width:4; stroke-opacity:1; fill:none" points="
  919.045,1225.95 957.929,1203.15 952.845,1247.94 
  "/>
<polyline clip-path="url(#clip782)" style="stroke:#009af9; stroke-linecap:butt; stroke-linejoin:round; stroke-width:4; stroke-opacity:1; fill:none" points="
  957.929,1203.15 895.085,1299.77 
  "/>
<polyline clip-path="url(#clip782)" style="stroke:#009af9; stroke-linecap:butt; stroke-linejoin:round; stroke-width:4; stroke-opacity:1; fill:none" points="
  895.085,1049.26 957.929,1017.06 
  "/>
<polyline clip-path="url(#clip782)" style="stroke:#009af9; stroke-linecap:butt; stroke-linejoin:round; stroke-width:4; stroke-opacity:1; fill:none" points="
  912.852,1017.51 957.929,1017.06 931.241,1053.39 
  "/>
<polyline clip-path="url(#clip782)" style="stroke:#009af9; stroke-linecap:butt; stroke-linejoin:round; stroke-width:4; stroke-opacity:1; fill:none" points="
  957.929,1017.06 895.085,1049.26 
  "/>
<polyline clip-path="url(#clip782)" style="stroke:#009af9; stroke-linecap:butt; stroke-linejoin:round; stroke-width:4; stroke-opacity:1; fill:none" points="
  895.085,798.759 957.929,830.967 
  "/>
<polyline clip-path="url(#clip782)" style="stroke:#009af9; stroke-linecap:butt; stroke-linejoin:round; stroke-width:4; stroke-opacity:1; fill:none" points="
  931.241,794.636 957.929,830.967 912.852,830.518 
  "/>
<polyline clip-path="url(#clip782)" style="stroke:#009af9; stroke-linecap:butt; stroke-linejoin:round; stroke-width:4; stroke-opacity:1; fill:none" points="
  957.929,830.967 895.085,798.759 
  "/>
<polyline clip-path="url(#clip782)" style="stroke:#009af9; stroke-linecap:butt; stroke-linejoin:round; stroke-width:4; stroke-opacity:1; fill:none" points="
  895.085,548.254 957.929,644.878 
  "/>
<polyline clip-path="url(#clip782)" style="stroke:#009af9; stroke-linecap:butt; stroke-linejoin:round; stroke-width:4; stroke-opacity:1; fill:none" points="
  952.845,600.086 957.929,644.878 919.045,622.069 
  "/>
<polyline clip-path="url(#clip782)" style="stroke:#009af9; stroke-linecap:butt; stroke-linejoin:round; stroke-width:4; stroke-opacity:1; fill:none" points="
  957.929,644.878 895.085,548.254 
  "/>
<polyline clip-path="url(#clip782)" style="stroke:#009af9; stroke-linecap:butt; stroke-linejoin:round; stroke-width:4; stroke-opacity:1; fill:none" points="
  895.085,297.749 957.929,458.788 
  "/>
<polyline clip-path="url(#clip782)" style="stroke:#009af9; stroke-linecap:butt; stroke-linejoin:round; stroke-width:4; stroke-opacity:1; fill:none" points="
  962.051,413.898 957.929,458.788 924.49,428.556 
  "/>
<polyline clip-path="url(#clip782)" style="stroke:#009af9; stroke-linecap:butt; stroke-linejoin:round; stroke-width:4; stroke-opacity:1; fill:none" points="
  957.929,458.788 895.085,297.749 
  "/>
<polyline clip-path="url(#clip782)" style="stroke:#009af9; stroke-linecap:butt; stroke-linejoin:round; stroke-width:4; stroke-opacity:1; fill:none" points="
  895.085,47.2441 957.929,272.699 
  "/>
<polyline clip-path="url(#clip782)" style="stroke:#009af9; stroke-linecap:butt; stroke-linejoin:round; stroke-width:4; stroke-opacity:1; fill:none" points="
  966.522,228.446 957.929,272.699 927.683,239.272 
  "/>
<polyline clip-path="url(#clip782)" style="stroke:#009af9; stroke-linecap:butt; stroke-linejoin:round; stroke-width:4; stroke-opacity:1; fill:none" points="
  957.929,272.699 895.085,47.2441 
  "/>
<polyline clip-path="url(#clip782)" style="stroke:#009af9; stroke-linecap:butt; stroke-linejoin:round; stroke-width:4; stroke-opacity:1; fill:none" points="
  1244.22,1800.78 1307.06,1575.32 
  "/>
<polyline clip-path="url(#clip782)" style="stroke:#009af9; stroke-linecap:butt; stroke-linejoin:round; stroke-width:4; stroke-opacity:1; fill:none" points="
  1276.82,1608.75 1307.06,1575.32 1315.66,1619.58 
  "/>
<polyline clip-path="url(#clip782)" style="stroke:#009af9; stroke-linecap:butt; stroke-linejoin:round; stroke-width:4; stroke-opacity:1; fill:none" points="
  1307.06,1575.32 1244.22,1800.78 
  "/>
<polyline clip-path="url(#clip782)" style="stroke:#009af9; stroke-linecap:butt; stroke-linejoin:round; stroke-width:4; stroke-opacity:1; fill:none" points="
  1244.22,1550.27 1307.06,1389.24 
  "/>
<polyline clip-path="url(#clip782)" style="stroke:#009af9; stroke-linecap:butt; stroke-linejoin:round; stroke-width:4; stroke-opacity:1; fill:none" points="
  1273.62,1419.47 1307.06,1389.24 1311.19,1434.13 
  "/>
<polyline clip-path="url(#clip782)" style="stroke:#009af9; stroke-linecap:butt; stroke-linejoin:round; stroke-width:4; stroke-opacity:1; fill:none" points="
  1307.06,1389.24 1244.22,1550.27 
  "/>
<polyline clip-path="url(#clip782)" style="stroke:#009af9; stroke-linecap:butt; stroke-linejoin:round; stroke-width:4; stroke-opacity:1; fill:none" points="
  1244.22,1299.77 1307.06,1203.15 
  "/>
<polyline clip-path="url(#clip782)" style="stroke:#009af9; stroke-linecap:butt; stroke-linejoin:round; stroke-width:4; stroke-opacity:1; fill:none" points="
  1268.18,1225.95 1307.06,1203.15 1301.98,1247.94 
  "/>
<polyline clip-path="url(#clip782)" style="stroke:#009af9; stroke-linecap:butt; stroke-linejoin:round; stroke-width:4; stroke-opacity:1; fill:none" points="
  1307.06,1203.15 1244.22,1299.77 
  "/>
<polyline clip-path="url(#clip782)" style="stroke:#009af9; stroke-linecap:butt; stroke-linejoin:round; stroke-width:4; stroke-opacity:1; fill:none" points="
  1244.22,1049.26 1307.06,1017.06 
  "/>
<polyline clip-path="url(#clip782)" style="stroke:#009af9; stroke-linecap:butt; stroke-linejoin:round; stroke-width:4; stroke-opacity:1; fill:none" points="
  1261.99,1017.51 1307.06,1017.06 1280.38,1053.39 
  "/>
<polyline clip-path="url(#clip782)" style="stroke:#009af9; stroke-linecap:butt; stroke-linejoin:round; stroke-width:4; stroke-opacity:1; fill:none" points="
  1307.06,1017.06 1244.22,1049.26 
  "/>
<polyline clip-path="url(#clip782)" style="stroke:#009af9; stroke-linecap:butt; stroke-linejoin:round; stroke-width:4; stroke-opacity:1; fill:none" points="
  1244.22,798.759 1307.06,830.967 
  "/>
<polyline clip-path="url(#clip782)" style="stroke:#009af9; stroke-linecap:butt; stroke-linejoin:round; stroke-width:4; stroke-opacity:1; fill:none" points="
  1280.38,794.636 1307.06,830.967 1261.99,830.518 
  "/>
<polyline clip-path="url(#clip782)" style="stroke:#009af9; stroke-linecap:butt; stroke-linejoin:round; stroke-width:4; stroke-opacity:1; fill:none" points="
  1307.06,830.967 1244.22,798.759 
  "/>
<polyline clip-path="url(#clip782)" style="stroke:#009af9; stroke-linecap:butt; stroke-linejoin:round; stroke-width:4; stroke-opacity:1; fill:none" points="
  1244.22,548.254 1307.06,644.878 
  "/>
<polyline clip-path="url(#clip782)" style="stroke:#009af9; stroke-linecap:butt; stroke-linejoin:round; stroke-width:4; stroke-opacity:1; fill:none" points="
  1301.98,600.086 1307.06,644.878 1268.18,622.069 
  "/>
<polyline clip-path="url(#clip782)" style="stroke:#009af9; stroke-linecap:butt; stroke-linejoin:round; stroke-width:4; stroke-opacity:1; fill:none" points="
  1307.06,644.878 1244.22,548.254 
  "/>
<polyline clip-path="url(#clip782)" style="stroke:#009af9; stroke-linecap:butt; stroke-linejoin:round; stroke-width:4; stroke-opacity:1; fill:none" points="
  1244.22,297.749 1307.06,458.788 
  "/>
<polyline clip-path="url(#clip782)" style="stroke:#009af9; stroke-linecap:butt; stroke-linejoin:round; stroke-width:4; stroke-opacity:1; fill:none" points="
  1311.19,413.898 1307.06,458.788 1273.62,428.556 
  "/>
<polyline clip-path="url(#clip782)" style="stroke:#009af9; stroke-linecap:butt; stroke-linejoin:round; stroke-width:4; stroke-opacity:1; fill:none" points="
  1307.06,458.788 1244.22,297.749 
  "/>
<polyline clip-path="url(#clip782)" style="stroke:#009af9; stroke-linecap:butt; stroke-linejoin:round; stroke-width:4; stroke-opacity:1; fill:none" points="
  1244.22,47.2441 1307.06,272.699 
  "/>
<polyline clip-path="url(#clip782)" style="stroke:#009af9; stroke-linecap:butt; stroke-linejoin:round; stroke-width:4; stroke-opacity:1; fill:none" points="
  1315.66,228.446 1307.06,272.699 1276.82,239.272 
  "/>
<polyline clip-path="url(#clip782)" style="stroke:#009af9; stroke-linecap:butt; stroke-linejoin:round; stroke-width:4; stroke-opacity:1; fill:none" points="
  1307.06,272.699 1244.22,47.2441 
  "/>
<polyline clip-path="url(#clip782)" style="stroke:#009af9; stroke-linecap:butt; stroke-linejoin:round; stroke-width:4; stroke-opacity:1; fill:none" points="
  1593.35,1800.78 1656.2,1575.32 
  "/>
<polyline clip-path="url(#clip782)" style="stroke:#009af9; stroke-linecap:butt; stroke-linejoin:round; stroke-width:4; stroke-opacity:1; fill:none" points="
  1625.95,1608.75 1656.2,1575.32 1664.79,1619.58 
  "/>
<polyline clip-path="url(#clip782)" style="stroke:#009af9; stroke-linecap:butt; stroke-linejoin:round; stroke-width:4; stroke-opacity:1; fill:none" points="
  1656.2,1575.32 1593.35,1800.78 
  "/>
<polyline clip-path="url(#clip782)" style="stroke:#009af9; stroke-linecap:butt; stroke-linejoin:round; stroke-width:4; stroke-opacity:1; fill:none" points="
  1593.35,1550.27 1656.2,1389.24 
  "/>
<polyline clip-path="url(#clip782)" style="stroke:#009af9; stroke-linecap:butt; stroke-linejoin:round; stroke-width:4; stroke-opacity:1; fill:none" points="
  1622.76,1419.47 1656.2,1389.24 1660.32,1434.13 
  "/>
<polyline clip-path="url(#clip782)" style="stroke:#009af9; stroke-linecap:butt; stroke-linejoin:round; stroke-width:4; stroke-opacity:1; fill:none" points="
  1656.2,1389.24 1593.35,1550.27 
  "/>
<polyline clip-path="url(#clip782)" style="stroke:#009af9; stroke-linecap:butt; stroke-linejoin:round; stroke-width:4; stroke-opacity:1; fill:none" points="
  1593.35,1299.77 1656.2,1203.15 
  "/>
<polyline clip-path="url(#clip782)" style="stroke:#009af9; stroke-linecap:butt; stroke-linejoin:round; stroke-width:4; stroke-opacity:1; fill:none" points="
  1617.31,1225.95 1656.2,1203.15 1651.11,1247.94 
  "/>
<polyline clip-path="url(#clip782)" style="stroke:#009af9; stroke-linecap:butt; stroke-linejoin:round; stroke-width:4; stroke-opacity:1; fill:none" points="
  1656.2,1203.15 1593.35,1299.77 
  "/>
<polyline clip-path="url(#clip782)" style="stroke:#009af9; stroke-linecap:butt; stroke-linejoin:round; stroke-width:4; stroke-opacity:1; fill:none" points="
  1593.35,1049.26 1656.2,1017.06 
  "/>
<polyline clip-path="url(#clip782)" style="stroke:#009af9; stroke-linecap:butt; stroke-linejoin:round; stroke-width:4; stroke-opacity:1; fill:none" points="
  1611.12,1017.51 1656.2,1017.06 1629.51,1053.39 
  "/>
<polyline clip-path="url(#clip782)" style="stroke:#009af9; stroke-linecap:butt; stroke-linejoin:round; stroke-width:4; stroke-opacity:1; fill:none" points="
  1656.2,1017.06 1593.35,1049.26 
  "/>
<polyline clip-path="url(#clip782)" style="stroke:#009af9; stroke-linecap:butt; stroke-linejoin:round; stroke-width:4; stroke-opacity:1; fill:none" points="
  1593.35,798.759 1656.2,830.967 
  "/>
<polyline clip-path="url(#clip782)" style="stroke:#009af9; stroke-linecap:butt; stroke-linejoin:round; stroke-width:4; stroke-opacity:1; fill:none" points="
  1629.51,794.636 1656.2,830.967 1611.12,830.518 
  "/>
<polyline clip-path="url(#clip782)" style="stroke:#009af9; stroke-linecap:butt; stroke-linejoin:round; stroke-width:4; stroke-opacity:1; fill:none" points="
  1656.2,830.967 1593.35,798.759 
  "/>
<polyline clip-path="url(#clip782)" style="stroke:#009af9; stroke-linecap:butt; stroke-linejoin:round; stroke-width:4; stroke-opacity:1; fill:none" points="
  1593.35,548.254 1656.2,644.878 
  "/>
<polyline clip-path="url(#clip782)" style="stroke:#009af9; stroke-linecap:butt; stroke-linejoin:round; stroke-width:4; stroke-opacity:1; fill:none" points="
  1651.11,600.086 1656.2,644.878 1617.31,622.069 
  "/>
<polyline clip-path="url(#clip782)" style="stroke:#009af9; stroke-linecap:butt; stroke-linejoin:round; stroke-width:4; stroke-opacity:1; fill:none" points="
  1656.2,644.878 1593.35,548.254 
  "/>
<polyline clip-path="url(#clip782)" style="stroke:#009af9; stroke-linecap:butt; stroke-linejoin:round; stroke-width:4; stroke-opacity:1; fill:none" points="
  1593.35,297.749 1656.2,458.788 
  "/>
<polyline clip-path="url(#clip782)" style="stroke:#009af9; stroke-linecap:butt; stroke-linejoin:round; stroke-width:4; stroke-opacity:1; fill:none" points="
  1660.32,413.898 1656.2,458.788 1622.76,428.556 
  "/>
<polyline clip-path="url(#clip782)" style="stroke:#009af9; stroke-linecap:butt; stroke-linejoin:round; stroke-width:4; stroke-opacity:1; fill:none" points="
  1656.2,458.788 1593.35,297.749 
  "/>
<polyline clip-path="url(#clip782)" style="stroke:#009af9; stroke-linecap:butt; stroke-linejoin:round; stroke-width:4; stroke-opacity:1; fill:none" points="
  1593.35,47.2441 1656.2,272.699 
  "/>
<polyline clip-path="url(#clip782)" style="stroke:#009af9; stroke-linecap:butt; stroke-linejoin:round; stroke-width:4; stroke-opacity:1; fill:none" points="
  1664.79,228.446 1656.2,272.699 1625.95,239.272 
  "/>
<polyline clip-path="url(#clip782)" style="stroke:#009af9; stroke-linecap:butt; stroke-linejoin:round; stroke-width:4; stroke-opacity:1; fill:none" points="
  1656.2,272.699 1593.35,47.2441 
  "/>
<polyline clip-path="url(#clip782)" style="stroke:#009af9; stroke-linecap:butt; stroke-linejoin:round; stroke-width:4; stroke-opacity:1; fill:none" points="
  1942.49,1800.78 2005.33,1575.32 
  "/>
<polyline clip-path="url(#clip782)" style="stroke:#009af9; stroke-linecap:butt; stroke-linejoin:round; stroke-width:4; stroke-opacity:1; fill:none" points="
  1975.09,1608.75 2005.33,1575.32 2013.92,1619.58 
  "/>
<polyline clip-path="url(#clip782)" style="stroke:#009af9; stroke-linecap:butt; stroke-linejoin:round; stroke-width:4; stroke-opacity:1; fill:none" points="
  2005.33,1575.32 1942.49,1800.78 
  "/>
<polyline clip-path="url(#clip782)" style="stroke:#009af9; stroke-linecap:butt; stroke-linejoin:round; stroke-width:4; stroke-opacity:1; fill:none" points="
  1942.49,1550.27 2005.33,1389.24 
  "/>
<polyline clip-path="url(#clip782)" style="stroke:#009af9; stroke-linecap:butt; stroke-linejoin:round; stroke-width:4; stroke-opacity:1; fill:none" points="
  1971.89,1419.47 2005.33,1389.24 2009.45,1434.13 
  "/>
<polyline clip-path="url(#clip782)" style="stroke:#009af9; stroke-linecap:butt; stroke-linejoin:round; stroke-width:4; stroke-opacity:1; fill:none" points="
  2005.33,1389.24 1942.49,1550.27 
  "/>
<polyline clip-path="url(#clip782)" style="stroke:#009af9; stroke-linecap:butt; stroke-linejoin:round; stroke-width:4; stroke-opacity:1; fill:none" points="
  1942.49,1299.77 2005.33,1203.15 
  "/>
<polyline clip-path="url(#clip782)" style="stroke:#009af9; stroke-linecap:butt; stroke-linejoin:round; stroke-width:4; stroke-opacity:1; fill:none" points="
  1966.45,1225.95 2005.33,1203.15 2000.25,1247.94 
  "/>
<polyline clip-path="url(#clip782)" style="stroke:#009af9; stroke-linecap:butt; stroke-linejoin:round; stroke-width:4; stroke-opacity:1; fill:none" points="
  2005.33,1203.15 1942.49,1299.77 
  "/>
<polyline clip-path="url(#clip782)" style="stroke:#009af9; stroke-linecap:butt; stroke-linejoin:round; stroke-width:4; stroke-opacity:1; fill:none" points="
  1942.49,1049.26 2005.33,1017.06 
  "/>
<polyline clip-path="url(#clip782)" style="stroke:#009af9; stroke-linecap:butt; stroke-linejoin:round; stroke-width:4; stroke-opacity:1; fill:none" points="
  1960.25,1017.51 2005.33,1017.06 1978.64,1053.39 
  "/>
<polyline clip-path="url(#clip782)" style="stroke:#009af9; stroke-linecap:butt; stroke-linejoin:round; stroke-width:4; stroke-opacity:1; fill:none" points="
  2005.33,1017.06 1942.49,1049.26 
  "/>
<polyline clip-path="url(#clip782)" style="stroke:#009af9; stroke-linecap:butt; stroke-linejoin:round; stroke-width:4; stroke-opacity:1; fill:none" points="
  1942.49,798.759 2005.33,830.967 
  "/>
<polyline clip-path="url(#clip782)" style="stroke:#009af9; stroke-linecap:butt; stroke-linejoin:round; stroke-width:4; stroke-opacity:1; fill:none" points="
  1978.64,794.636 2005.33,830.967 1960.25,830.518 
  "/>
<polyline clip-path="url(#clip782)" style="stroke:#009af9; stroke-linecap:butt; stroke-linejoin:round; stroke-width:4; stroke-opacity:1; fill:none" points="
  2005.33,830.967 1942.49,798.759 
  "/>
<polyline clip-path="url(#clip782)" style="stroke:#009af9; stroke-linecap:butt; stroke-linejoin:round; stroke-width:4; stroke-opacity:1; fill:none" points="
  1942.49,548.254 2005.33,644.878 
  "/>
<polyline clip-path="url(#clip782)" style="stroke:#009af9; stroke-linecap:butt; stroke-linejoin:round; stroke-width:4; stroke-opacity:1; fill:none" points="
  2000.25,600.086 2005.33,644.878 1966.45,622.069 
  "/>
<polyline clip-path="url(#clip782)" style="stroke:#009af9; stroke-linecap:butt; stroke-linejoin:round; stroke-width:4; stroke-opacity:1; fill:none" points="
  2005.33,644.878 1942.49,548.254 
  "/>
<polyline clip-path="url(#clip782)" style="stroke:#009af9; stroke-linecap:butt; stroke-linejoin:round; stroke-width:4; stroke-opacity:1; fill:none" points="
  1942.49,297.749 2005.33,458.788 
  "/>
<polyline clip-path="url(#clip782)" style="stroke:#009af9; stroke-linecap:butt; stroke-linejoin:round; stroke-width:4; stroke-opacity:1; fill:none" points="
  2009.45,413.898 2005.33,458.788 1971.89,428.556 
  "/>
<polyline clip-path="url(#clip782)" style="stroke:#009af9; stroke-linecap:butt; stroke-linejoin:round; stroke-width:4; stroke-opacity:1; fill:none" points="
  2005.33,458.788 1942.49,297.749 
  "/>
<polyline clip-path="url(#clip782)" style="stroke:#009af9; stroke-linecap:butt; stroke-linejoin:round; stroke-width:4; stroke-opacity:1; fill:none" points="
  1942.49,47.2441 2005.33,272.699 
  "/>
<polyline clip-path="url(#clip782)" style="stroke:#009af9; stroke-linecap:butt; stroke-linejoin:round; stroke-width:4; stroke-opacity:1; fill:none" points="
  2013.92,228.446 2005.33,272.699 1975.09,239.272 
  "/>
<polyline clip-path="url(#clip782)" style="stroke:#009af9; stroke-linecap:butt; stroke-linejoin:round; stroke-width:4; stroke-opacity:1; fill:none" points="
  2005.33,272.699 1942.49,47.2441 
  "/>
<polyline clip-path="url(#clip782)" style="stroke:#009af9; stroke-linecap:butt; stroke-linejoin:round; stroke-width:4; stroke-opacity:1; fill:none" points="
  2291.62,1800.78 2354.47,1575.32 
  "/>
<polyline clip-path="url(#clip782)" style="stroke:#009af9; stroke-linecap:butt; stroke-linejoin:round; stroke-width:4; stroke-opacity:1; fill:none" points="
  2324.22,1608.75 2354.47,1575.32 2363.06,1619.58 
  "/>
<polyline clip-path="url(#clip782)" style="stroke:#009af9; stroke-linecap:butt; stroke-linejoin:round; stroke-width:4; stroke-opacity:1; fill:none" points="
  2354.47,1575.32 2291.62,1800.78 
  "/>
<polyline clip-path="url(#clip782)" style="stroke:#009af9; stroke-linecap:butt; stroke-linejoin:round; stroke-width:4; stroke-opacity:1; fill:none" points="
  2291.62,1550.27 2354.47,1389.24 
  "/>
<polyline clip-path="url(#clip782)" style="stroke:#009af9; stroke-linecap:butt; stroke-linejoin:round; stroke-width:4; stroke-opacity:1; fill:none" points="
  2321.03,1419.47 2354.47,1389.24 2358.59,1434.13 
  "/>
<polyline clip-path="url(#clip782)" style="stroke:#009af9; stroke-linecap:butt; stroke-linejoin:round; stroke-width:4; stroke-opacity:1; fill:none" points="
  2354.47,1389.24 2291.62,1550.27 
  "/>
<polyline clip-path="url(#clip782)" style="stroke:#009af9; stroke-linecap:butt; stroke-linejoin:round; stroke-width:4; stroke-opacity:1; fill:none" points="
  2291.62,1299.77 2354.47,1203.15 
  "/>
<polyline clip-path="url(#clip782)" style="stroke:#009af9; stroke-linecap:butt; stroke-linejoin:round; stroke-width:4; stroke-opacity:1; fill:none" points="
  2315.58,1225.95 2354.47,1203.15 2349.38,1247.94 
  "/>
<polyline clip-path="url(#clip782)" style="stroke:#009af9; stroke-linecap:butt; stroke-linejoin:round; stroke-width:4; stroke-opacity:1; fill:none" points="
  2354.47,1203.15 2291.62,1299.77 
  "/>
<polyline clip-path="url(#clip782)" style="stroke:#009af9; stroke-linecap:butt; stroke-linejoin:round; stroke-width:4; stroke-opacity:1; fill:none" points="
  2291.62,1049.26 2354.47,1017.06 
  "/>
<polyline clip-path="url(#clip782)" style="stroke:#009af9; stroke-linecap:butt; stroke-linejoin:round; stroke-width:4; stroke-opacity:1; fill:none" points="
  2309.39,1017.51 2354.47,1017.06 2327.78,1053.39 
  "/>
<polyline clip-path="url(#clip782)" style="stroke:#009af9; stroke-linecap:butt; stroke-linejoin:round; stroke-width:4; stroke-opacity:1; fill:none" points="
  2354.47,1017.06 2291.62,1049.26 
  "/>
<polyline clip-path="url(#clip782)" style="stroke:#009af9; stroke-linecap:butt; stroke-linejoin:round; stroke-width:4; stroke-opacity:1; fill:none" points="
  2291.62,798.759 2354.47,830.967 
  "/>
<polyline clip-path="url(#clip782)" style="stroke:#009af9; stroke-linecap:butt; stroke-linejoin:round; stroke-width:4; stroke-opacity:1; fill:none" points="
  2327.78,794.636 2354.47,830.967 2309.39,830.518 
  "/>
<polyline clip-path="url(#clip782)" style="stroke:#009af9; stroke-linecap:butt; stroke-linejoin:round; stroke-width:4; stroke-opacity:1; fill:none" points="
  2354.47,830.967 2291.62,798.759 
  "/>
<polyline clip-path="url(#clip782)" style="stroke:#009af9; stroke-linecap:butt; stroke-linejoin:round; stroke-width:4; stroke-opacity:1; fill:none" points="
  2291.62,548.254 2354.47,644.878 
  "/>
<polyline clip-path="url(#clip782)" style="stroke:#009af9; stroke-linecap:butt; stroke-linejoin:round; stroke-width:4; stroke-opacity:1; fill:none" points="
  2349.38,600.086 2354.47,644.878 2315.58,622.069 
  "/>
<polyline clip-path="url(#clip782)" style="stroke:#009af9; stroke-linecap:butt; stroke-linejoin:round; stroke-width:4; stroke-opacity:1; fill:none" points="
  2354.47,644.878 2291.62,548.254 
  "/>
<polyline clip-path="url(#clip782)" style="stroke:#009af9; stroke-linecap:butt; stroke-linejoin:round; stroke-width:4; stroke-opacity:1; fill:none" points="
  2291.62,297.749 2354.47,458.788 
  "/>
<polyline clip-path="url(#clip782)" style="stroke:#009af9; stroke-linecap:butt; stroke-linejoin:round; stroke-width:4; stroke-opacity:1; fill:none" points="
  2358.59,413.898 2354.47,458.788 2321.03,428.556 
  "/>
<polyline clip-path="url(#clip782)" style="stroke:#009af9; stroke-linecap:butt; stroke-linejoin:round; stroke-width:4; stroke-opacity:1; fill:none" points="
  2354.47,458.788 2291.62,297.749 
  "/>
<polyline clip-path="url(#clip782)" style="stroke:#009af9; stroke-linecap:butt; stroke-linejoin:round; stroke-width:4; stroke-opacity:1; fill:none" points="
  2291.62,47.2441 2354.47,272.699 
  "/>
<polyline clip-path="url(#clip782)" style="stroke:#009af9; stroke-linecap:butt; stroke-linejoin:round; stroke-width:4; stroke-opacity:1; fill:none" points="
  2363.06,228.446 2354.47,272.699 2324.22,239.272 
  "/>
<polyline clip-path="url(#clip782)" style="stroke:#009af9; stroke-linecap:butt; stroke-linejoin:round; stroke-width:4; stroke-opacity:1; fill:none" points="
  2354.47,272.699 2291.62,47.2441 
  "/>
<polyline clip-path="url(#clip782)" style="stroke:#009af9; stroke-linecap:butt; stroke-linejoin:round; stroke-width:4; stroke-opacity:1; fill:none" points="
  2640.76,1800.78 2703.6,1575.32 
  "/>
<polyline clip-path="url(#clip782)" style="stroke:#009af9; stroke-linecap:butt; stroke-linejoin:round; stroke-width:4; stroke-opacity:1; fill:none" points="
  2673.35,1608.75 2703.6,1575.32 2712.19,1619.58 
  "/>
<polyline clip-path="url(#clip782)" style="stroke:#009af9; stroke-linecap:butt; stroke-linejoin:round; stroke-width:4; stroke-opacity:1; fill:none" points="
  2703.6,1575.32 2640.76,1800.78 
  "/>
<polyline clip-path="url(#clip782)" style="stroke:#009af9; stroke-linecap:butt; stroke-linejoin:round; stroke-width:4; stroke-opacity:1; fill:none" points="
  2640.76,1550.27 2703.6,1389.24 
  "/>
<polyline clip-path="url(#clip782)" style="stroke:#009af9; stroke-linecap:butt; stroke-linejoin:round; stroke-width:4; stroke-opacity:1; fill:none" points="
  2670.16,1419.47 2703.6,1389.24 2707.72,1434.13 
  "/>
<polyline clip-path="url(#clip782)" style="stroke:#009af9; stroke-linecap:butt; stroke-linejoin:round; stroke-width:4; stroke-opacity:1; fill:none" points="
  2703.6,1389.24 2640.76,1550.27 
  "/>
<polyline clip-path="url(#clip782)" style="stroke:#009af9; stroke-linecap:butt; stroke-linejoin:round; stroke-width:4; stroke-opacity:1; fill:none" points="
  2640.76,1299.77 2703.6,1203.15 
  "/>
<polyline clip-path="url(#clip782)" style="stroke:#009af9; stroke-linecap:butt; stroke-linejoin:round; stroke-width:4; stroke-opacity:1; fill:none" points="
  2664.72,1225.95 2703.6,1203.15 2698.52,1247.94 
  "/>
<polyline clip-path="url(#clip782)" style="stroke:#009af9; stroke-linecap:butt; stroke-linejoin:round; stroke-width:4; stroke-opacity:1; fill:none" points="
  2703.6,1203.15 2640.76,1299.77 
  "/>
<polyline clip-path="url(#clip782)" style="stroke:#009af9; stroke-linecap:butt; stroke-linejoin:round; stroke-width:4; stroke-opacity:1; fill:none" points="
  2640.76,1049.26 2703.6,1017.06 
  "/>
<polyline clip-path="url(#clip782)" style="stroke:#009af9; stroke-linecap:butt; stroke-linejoin:round; stroke-width:4; stroke-opacity:1; fill:none" points="
  2658.52,1017.51 2703.6,1017.06 2676.91,1053.39 
  "/>
<polyline clip-path="url(#clip782)" style="stroke:#009af9; stroke-linecap:butt; stroke-linejoin:round; stroke-width:4; stroke-opacity:1; fill:none" points="
  2703.6,1017.06 2640.76,1049.26 
  "/>
<polyline clip-path="url(#clip782)" style="stroke:#009af9; stroke-linecap:butt; stroke-linejoin:round; stroke-width:4; stroke-opacity:1; fill:none" points="
  2640.76,798.759 2703.6,830.967 
  "/>
<polyline clip-path="url(#clip782)" style="stroke:#009af9; stroke-linecap:butt; stroke-linejoin:round; stroke-width:4; stroke-opacity:1; fill:none" points="
  2676.91,794.636 2703.6,830.967 2658.52,830.518 
  "/>
<polyline clip-path="url(#clip782)" style="stroke:#009af9; stroke-linecap:butt; stroke-linejoin:round; stroke-width:4; stroke-opacity:1; fill:none" points="
  2703.6,830.967 2640.76,798.759 
  "/>
<polyline clip-path="url(#clip782)" style="stroke:#009af9; stroke-linecap:butt; stroke-linejoin:round; stroke-width:4; stroke-opacity:1; fill:none" points="
  2640.76,548.254 2703.6,644.878 
  "/>
<polyline clip-path="url(#clip782)" style="stroke:#009af9; stroke-linecap:butt; stroke-linejoin:round; stroke-width:4; stroke-opacity:1; fill:none" points="
  2698.52,600.086 2703.6,644.878 2664.72,622.069 
  "/>
<polyline clip-path="url(#clip782)" style="stroke:#009af9; stroke-linecap:butt; stroke-linejoin:round; stroke-width:4; stroke-opacity:1; fill:none" points="
  2703.6,644.878 2640.76,548.254 
  "/>
<polyline clip-path="url(#clip782)" style="stroke:#009af9; stroke-linecap:butt; stroke-linejoin:round; stroke-width:4; stroke-opacity:1; fill:none" points="
  2640.76,297.749 2703.6,458.788 
  "/>
<polyline clip-path="url(#clip782)" style="stroke:#009af9; stroke-linecap:butt; stroke-linejoin:round; stroke-width:4; stroke-opacity:1; fill:none" points="
  2707.72,413.898 2703.6,458.788 2670.16,428.556 
  "/>
<polyline clip-path="url(#clip782)" style="stroke:#009af9; stroke-linecap:butt; stroke-linejoin:round; stroke-width:4; stroke-opacity:1; fill:none" points="
  2703.6,458.788 2640.76,297.749 
  "/>
<polyline clip-path="url(#clip782)" style="stroke:#009af9; stroke-linecap:butt; stroke-linejoin:round; stroke-width:4; stroke-opacity:1; fill:none" points="
  2640.76,47.2441 2703.6,272.699 
  "/>
<polyline clip-path="url(#clip782)" style="stroke:#009af9; stroke-linecap:butt; stroke-linejoin:round; stroke-width:4; stroke-opacity:1; fill:none" points="
  2712.19,228.446 2703.6,272.699 2673.35,239.272 
  "/>
<polyline clip-path="url(#clip782)" style="stroke:#009af9; stroke-linecap:butt; stroke-linejoin:round; stroke-width:4; stroke-opacity:1; fill:none" points="
  2703.6,272.699 2640.76,47.2441 
  "/>
<polyline clip-path="url(#clip782)" style="stroke:#e26f46; stroke-linecap:butt; stroke-linejoin:round; stroke-width:20; stroke-opacity:1; fill:none" points="
  196.816,748.658 200.794,751.489 204.772,754.275 208.75,757.015 212.727,759.711 221.923,765.778 231.118,771.621 240.313,777.248 249.508,782.667 258.704,787.886 
  267.899,792.913 277.094,797.754 286.289,802.416 295.484,806.906 304.68,811.23 313.875,815.395 323.07,819.405 332.265,823.268 341.461,826.988 350.656,830.571 
  359.851,834.021 370.903,838 381.955,841.803 393.007,845.438 404.059,848.912 415.111,852.232 426.163,855.406 437.214,858.439 448.266,861.339 466.955,865.953 
  485.643,870.227 504.332,874.186 523.02,877.854 543.321,881.534 563.622,884.919 583.923,888.036 604.224,890.903 622.94,893.344 641.655,895.605 660.371,897.699 
  679.087,899.639 699.152,901.56 719.217,903.33 739.282,904.96 759.347,906.462 782.595,908.054 805.842,909.502 829.09,910.819 852.337,912.016 893.656,913.882 
  934.976,915.457 971.209,916.636 1007.44,917.652 1046.95,918.602 1086.45,919.409 1126.19,920.1 1165.93,920.687 1253.8,921.691 1337.41,922.363 1424.34,922.857 
  1497.52,923.156 1586.86,923.418 1668.71,923.587 1744.3,923.7 1820.87,923.784 1906.68,923.851 1984.44,923.895 2073.47,923.931 2155.91,923.954 2237.18,923.97 
  2316.09,923.982 2396.98,923.99 2485.6,923.997 2614.34,924.003 2640.76,924.004 
  "/>
<polyline clip-path="url(#clip782)" style="stroke:#3da44d; stroke-linecap:butt; stroke-linejoin:round; stroke-width:20; stroke-opacity:1; fill:none" points="
  196.816,748.658 212.727,760.075 359.851,865.636 448.266,929.075 523.02,982.711 604.224,1040.97 679.087,1094.69 719.217,1123.48 759.347,1152.28 770.971,1160.62 
  782.595,1168.96 788.407,1173.13 794.219,1177.3 800.03,1181.47 805.842,1185.64 811.654,1182.89 817.466,1176.64 823.278,1170.38 829.09,1164.13 840.713,1151.62 
  852.337,1139.11 893.656,1094.64 934.976,1050.17 971.209,1011.17 1007.44,972.177 1086.45,887.145 1165.93,801.607 1209.86,754.32 1253.8,707.033 1295.6,662.041 
  1337.41,617.049 1359.14,593.659 1380.88,570.268 1391.74,558.573 1402.61,546.877 1408.04,541.03 1413.48,535.182 1416.19,532.258 1418.91,529.664 1421.63,534.05 
  1424.34,538.435 1433.49,553.203 1442.64,567.97 1451.78,582.738 1460.93,597.505 1479.23,627.04 1497.52,656.575 1586.86,800.81 1668.71,932.938 1744.3,1054.97 
  1820.87,1178.58 1863.78,1247.85 1906.68,1317.12 1945.56,1379.89 1984.44,1442.65 1995.57,1460.62 2006.7,1478.59 2012.27,1487.57 2017.83,1496.55 2020.61,1501.04 
  2023.39,1505.54 2026.18,1510.03 2028.96,1514.52 2031.74,1511.06 2034.52,1504.32 2037.31,1497.58 2040.09,1490.85 2045.65,1477.37 2051.22,1463.9 2062.35,1436.95 
  2073.47,1410 2114.69,1310.19 2155.91,1210.38 2237.18,1013.57 2316.09,822.492 2396.98,626.611 2485.6,412 2614.34,100.242 2640.76,36.2845 
  "/>
<path clip-path="url(#clip780)" d="
M2234.73 261.215 L2559.29 261.215 L2559.29 105.695 L2234.73 105.695  Z
  " fill="#ffffff" fill-rule="evenodd" fill-opacity="1"/>
<polyline clip-path="url(#clip780)" style="stroke:#000000; stroke-linecap:butt; stroke-linejoin:round; stroke-width:4; stroke-opacity:1; fill:none" points="
  2234.73,261.215 2559.29,261.215 2559.29,105.695 2234.73,105.695 2234.73,261.215 
  "/>
<polyline clip-path="url(#clip780)" style="stroke:#e26f46; stroke-linecap:butt; stroke-linejoin:round; stroke-width:4; stroke-opacity:1; fill:none" points="
  2261.89,157.535 2424.82,157.535 
  "/>
<path clip-path="url(#clip780)" d="M2465.82 177.223 Q2464.01 181.852 2462.3 183.264 Q2460.58 184.676 2457.71 184.676 L2454.31 184.676 L2454.31 181.112 L2456.81 181.112 Q2458.57 181.112 2459.54 180.278 Q2460.51 179.445 2461.69 176.343 L2462.46 174.399 L2451.97 148.889 L2456.49 148.889 L2464.59 169.167 L2472.69 148.889 L2477.2 148.889 L2465.82 177.223 Z" fill="#000000" fill-rule="evenodd" fill-opacity="1" /><path clip-path="url(#clip780)" d="M2487.71 170.88 L2504.03 170.88 L2504.03 174.815 L2482.09 174.815 L2482.09 170.88 Q2484.75 168.125 2489.33 163.496 Q2493.94 158.843 2495.12 157.501 Q2497.37 154.977 2498.25 153.241 Q2499.15 151.482 2499.15 149.792 Q2499.15 147.038 2497.2 145.302 Q2495.28 143.565 2492.18 143.565 Q2489.98 143.565 2487.53 144.329 Q2485.1 145.093 2482.32 146.644 L2482.32 141.922 Q2485.14 140.788 2487.6 140.209 Q2490.05 139.63 2492.09 139.63 Q2497.46 139.63 2500.65 142.315 Q2503.85 145.001 2503.85 149.491 Q2503.85 151.621 2503.04 153.542 Q2502.25 155.44 2500.14 158.033 Q2499.56 158.704 2496.46 161.922 Q2493.36 165.116 2487.71 170.88 Z" fill="#000000" fill-rule="evenodd" fill-opacity="1" /><polyline clip-path="url(#clip780)" style="stroke:#3da44d; stroke-linecap:butt; stroke-linejoin:round; stroke-width:4; stroke-opacity:1; fill:none" points="
  2261.89,209.375 2424.82,209.375 
  "/>
<path clip-path="url(#clip780)" d="M2465.82 229.063 Q2464.01 233.692 2462.3 235.104 Q2460.58 236.516 2457.71 236.516 L2454.31 236.516 L2454.31 232.952 L2456.81 232.952 Q2458.57 232.952 2459.54 232.118 Q2460.51 231.285 2461.69 228.183 L2462.46 226.239 L2451.97 200.729 L2456.49 200.729 L2464.59 221.007 L2472.69 200.729 L2477.2 200.729 L2465.82 229.063 Z" fill="#000000" fill-rule="evenodd" fill-opacity="1" /><path clip-path="url(#clip780)" d="M2497.85 208.021 Q2501.21 208.739 2503.08 211.007 Q2504.98 213.276 2504.98 216.609 Q2504.98 221.725 2501.46 224.526 Q2497.94 227.327 2491.46 227.327 Q2489.29 227.327 2486.97 226.887 Q2484.68 226.47 2482.23 225.614 L2482.23 221.1 Q2484.17 222.234 2486.49 222.813 Q2488.8 223.391 2491.32 223.391 Q2495.72 223.391 2498.01 221.655 Q2500.33 219.919 2500.33 216.609 Q2500.33 213.553 2498.18 211.841 Q2496.05 210.104 2492.23 210.104 L2488.2 210.104 L2488.2 206.262 L2492.41 206.262 Q2495.86 206.262 2497.69 204.896 Q2499.52 203.507 2499.52 200.915 Q2499.52 198.253 2497.62 196.841 Q2495.75 195.405 2492.23 195.405 Q2490.31 195.405 2488.11 195.822 Q2485.91 196.239 2483.27 197.118 L2483.27 192.952 Q2485.93 192.211 2488.25 191.841 Q2490.58 191.47 2492.64 191.47 Q2497.97 191.47 2501.07 193.901 Q2504.17 196.308 2504.17 200.429 Q2504.17 203.299 2502.53 205.29 Q2500.88 207.257 2497.85 208.021 Z" fill="#000000" fill-rule="evenodd" fill-opacity="1" /></svg>
