<?xml version="1.0" encoding="utf-8"?>
<svg xmlns="http://www.w3.org/2000/svg" xmlns:xlink="http://www.w3.org/1999/xlink" width="672" height="480" viewBox="0 0 2688 1920">
<defs>
  <clipPath id="clip740">
    <rect x="0" y="0" width="2688" height="1920"/>
  </clipPath>
</defs>
<path clip-path="url(#clip740)" d="
M0 1920 L2688 1920 L2688 0 L0 0  Z
  " fill="#ffffff" fill-rule="evenodd" fill-opacity="1"/>
<defs>
  <clipPath id="clip741">
    <rect x="537" y="0" width="1883" height="1883"/>
  </clipPath>
</defs>
<path clip-path="url(#clip740)" d="
M159.478 1800.78 L2640.76 1800.78 L2640.76 47.2441 L159.478 47.2441  Z
  " fill="#ffffff" fill-rule="evenodd" fill-opacity="1"/>
<defs>
  <clipPath id="clip742">
    <rect x="159" y="47" width="2482" height="1755"/>
  </clipPath>
</defs>
<polyline clip-path="url(#clip742)" style="stroke:#000000; stroke-linecap:butt; stroke-linejoin:round; stroke-width:2; stroke-opacity:0.1; fill:none" points="
  229.703,1800.78 229.703,47.2441 
  "/>
<polyline clip-path="url(#clip742)" style="stroke:#000000; stroke-linecap:butt; stroke-linejoin:round; stroke-width:2; stroke-opacity:0.1; fill:none" points="
  717.376,1800.78 717.376,47.2441 
  "/>
<polyline clip-path="url(#clip742)" style="stroke:#000000; stroke-linecap:butt; stroke-linejoin:round; stroke-width:2; stroke-opacity:0.1; fill:none" points="
  1205.05,1800.78 1205.05,47.2441 
  "/>
<polyline clip-path="url(#clip742)" style="stroke:#000000; stroke-linecap:butt; stroke-linejoin:round; stroke-width:2; stroke-opacity:0.1; fill:none" points="
  1692.72,1800.78 1692.72,47.2441 
  "/>
<polyline clip-path="url(#clip742)" style="stroke:#000000; stroke-linecap:butt; stroke-linejoin:round; stroke-width:2; stroke-opacity:0.1; fill:none" points="
  2180.39,1800.78 2180.39,47.2441 
  "/>
<polyline clip-path="url(#clip740)" style="stroke:#000000; stroke-linecap:butt; stroke-linejoin:round; stroke-width:4; stroke-opacity:1; fill:none" points="
  159.478,1800.78 2640.76,1800.78 
  "/>
<polyline clip-path="url(#clip740)" style="stroke:#000000; stroke-linecap:butt; stroke-linejoin:round; stroke-width:4; stroke-opacity:1; fill:none" points="
  229.703,1800.78 229.703,1781.88 
  "/>
<polyline clip-path="url(#clip740)" style="stroke:#000000; stroke-linecap:butt; stroke-linejoin:round; stroke-width:4; stroke-opacity:1; fill:none" points="
  717.376,1800.78 717.376,1781.88 
  "/>
<polyline clip-path="url(#clip740)" style="stroke:#000000; stroke-linecap:butt; stroke-linejoin:round; stroke-width:4; stroke-opacity:1; fill:none" points="
  1205.05,1800.78 1205.05,1781.88 
  "/>
<polyline clip-path="url(#clip740)" style="stroke:#000000; stroke-linecap:butt; stroke-linejoin:round; stroke-width:4; stroke-opacity:1; fill:none" points="
  1692.72,1800.78 1692.72,1781.88 
  "/>
<polyline clip-path="url(#clip740)" style="stroke:#000000; stroke-linecap:butt; stroke-linejoin:round; stroke-width:4; stroke-opacity:1; fill:none" points="
  2180.39,1800.78 2180.39,1781.88 
  "/>
<path clip-path="url(#clip740)" d="M192.007 1834 Q188.395 1834 186.567 1837.57 Q184.761 1841.11 184.761 1848.24 Q184.761 1855.34 186.567 1858.91 Q188.395 1862.45 192.007 1862.45 Q195.641 1862.45 197.446 1858.91 Q199.275 1855.34 199.275 1848.24 Q199.275 1841.11 197.446 1837.57 Q195.641 1834 192.007 1834 M192.007 1830.3 Q197.817 1830.3 200.872 1834.9 Q203.951 1839.49 203.951 1848.24 Q203.951 1856.96 200.872 1861.57 Q197.817 1866.15 192.007 1866.15 Q186.196 1866.15 183.118 1861.57 Q180.062 1856.96 180.062 1848.24 Q180.062 1839.49 183.118 1834.9 Q186.196 1830.3 192.007 1830.3 Z" fill="#000000" fill-rule="evenodd" fill-opacity="1" /><path clip-path="url(#clip740)" d="M212.168 1859.6 L217.053 1859.6 L217.053 1865.48 L212.168 1865.48 L212.168 1859.6 Z" fill="#000000" fill-rule="evenodd" fill-opacity="1" /><path clip-path="url(#clip740)" d="M237.238 1834 Q233.627 1834 231.798 1837.57 Q229.992 1841.11 229.992 1848.24 Q229.992 1855.34 231.798 1858.91 Q233.627 1862.45 237.238 1862.45 Q240.872 1862.45 242.678 1858.91 Q244.506 1855.34 244.506 1848.24 Q244.506 1841.11 242.678 1837.57 Q240.872 1834 237.238 1834 M237.238 1830.3 Q243.048 1830.3 246.103 1834.9 Q249.182 1839.49 249.182 1848.24 Q249.182 1856.96 246.103 1861.57 Q243.048 1866.15 237.238 1866.15 Q231.428 1866.15 228.349 1861.57 Q225.293 1856.96 225.293 1848.24 Q225.293 1839.49 228.349 1834.9 Q231.428 1830.3 237.238 1830.3 Z" fill="#000000" fill-rule="evenodd" fill-opacity="1" /><path clip-path="url(#clip740)" d="M267.4 1834 Q263.789 1834 261.96 1837.57 Q260.154 1841.11 260.154 1848.24 Q260.154 1855.34 261.96 1858.91 Q263.789 1862.45 267.4 1862.45 Q271.034 1862.45 272.839 1858.91 Q274.668 1855.34 274.668 1848.24 Q274.668 1841.11 272.839 1837.57 Q271.034 1834 267.4 1834 M267.4 1830.3 Q273.21 1830.3 276.265 1834.9 Q279.344 1839.49 279.344 1848.24 Q279.344 1856.96 276.265 1861.57 Q273.21 1866.15 267.4 1866.15 Q261.589 1866.15 258.511 1861.57 Q255.455 1856.96 255.455 1848.24 Q255.455 1839.49 258.511 1834.9 Q261.589 1830.3 267.4 1830.3 Z" fill="#000000" fill-rule="evenodd" fill-opacity="1" /><path clip-path="url(#clip740)" d="M680.177 1834 Q676.566 1834 674.737 1837.57 Q672.931 1841.11 672.931 1848.24 Q672.931 1855.34 674.737 1858.91 Q676.566 1862.45 680.177 1862.45 Q683.811 1862.45 685.616 1858.91 Q687.445 1855.34 687.445 1848.24 Q687.445 1841.11 685.616 1837.57 Q683.811 1834 680.177 1834 M680.177 1830.3 Q685.987 1830.3 689.042 1834.9 Q692.121 1839.49 692.121 1848.24 Q692.121 1856.96 689.042 1861.57 Q685.987 1866.15 680.177 1866.15 Q674.367 1866.15 671.288 1861.57 Q668.232 1856.96 668.232 1848.24 Q668.232 1839.49 671.288 1834.9 Q674.367 1830.3 680.177 1830.3 Z" fill="#000000" fill-rule="evenodd" fill-opacity="1" /><path clip-path="url(#clip740)" d="M700.339 1859.6 L705.223 1859.6 L705.223 1865.48 L700.339 1865.48 L700.339 1859.6 Z" fill="#000000" fill-rule="evenodd" fill-opacity="1" /><path clip-path="url(#clip740)" d="M719.436 1861.55 L735.755 1861.55 L735.755 1865.48 L713.811 1865.48 L713.811 1861.55 Q716.473 1858.79 721.056 1854.16 Q725.663 1849.51 726.843 1848.17 Q729.088 1845.65 729.968 1843.91 Q730.871 1842.15 730.871 1840.46 Q730.871 1837.71 728.926 1835.97 Q727.005 1834.23 723.903 1834.23 Q721.704 1834.23 719.251 1835 Q716.82 1835.76 714.042 1837.31 L714.042 1832.59 Q716.866 1831.46 719.32 1830.88 Q721.774 1830.3 723.811 1830.3 Q729.181 1830.3 732.375 1832.98 Q735.57 1835.67 735.57 1840.16 Q735.57 1842.29 734.76 1844.21 Q733.973 1846.11 731.866 1848.7 Q731.288 1849.37 728.186 1852.59 Q725.084 1855.78 719.436 1861.55 Z" fill="#000000" fill-rule="evenodd" fill-opacity="1" /><path clip-path="url(#clip740)" d="M745.616 1830.92 L763.973 1830.92 L763.973 1834.86 L749.899 1834.86 L749.899 1843.33 Q750.917 1842.98 751.936 1842.82 Q752.954 1842.64 753.973 1842.64 Q759.76 1842.64 763.139 1845.81 Q766.519 1848.98 766.519 1854.4 Q766.519 1859.97 763.047 1863.08 Q759.574 1866.15 753.255 1866.15 Q751.079 1866.15 748.811 1865.78 Q746.565 1865.41 744.158 1864.67 L744.158 1859.97 Q746.241 1861.11 748.463 1861.66 Q750.686 1862.22 753.162 1862.22 Q757.167 1862.22 759.505 1860.11 Q761.843 1858.01 761.843 1854.4 Q761.843 1850.78 759.505 1848.68 Q757.167 1846.57 753.162 1846.57 Q751.287 1846.57 749.412 1846.99 Q747.561 1847.4 745.616 1848.28 L745.616 1830.92 Z" fill="#000000" fill-rule="evenodd" fill-opacity="1" /><path clip-path="url(#clip740)" d="M1167.35 1834 Q1163.74 1834 1161.91 1837.57 Q1160.11 1841.11 1160.11 1848.24 Q1160.11 1855.34 1161.91 1858.91 Q1163.74 1862.45 1167.35 1862.45 Q1170.99 1862.45 1172.79 1858.91 Q1174.62 1855.34 1174.62 1848.24 Q1174.62 1841.11 1172.79 1837.57 Q1170.99 1834 1167.35 1834 M1167.35 1830.3 Q1173.16 1830.3 1176.22 1834.9 Q1179.3 1839.49 1179.3 1848.24 Q1179.3 1856.96 1176.22 1861.57 Q1173.16 1866.15 1167.35 1866.15 Q1161.54 1866.15 1158.46 1861.57 Q1155.41 1856.96 1155.41 1848.24 Q1155.41 1839.49 1158.46 1834.9 Q1161.54 1830.3 1167.35 1830.3 Z" fill="#000000" fill-rule="evenodd" fill-opacity="1" /><path clip-path="url(#clip740)" d="M1187.51 1859.6 L1192.4 1859.6 L1192.4 1865.48 L1187.51 1865.48 L1187.51 1859.6 Z" fill="#000000" fill-rule="evenodd" fill-opacity="1" /><path clip-path="url(#clip740)" d="M1202.63 1830.92 L1220.99 1830.92 L1220.99 1834.86 L1206.91 1834.86 L1206.91 1843.33 Q1207.93 1842.98 1208.95 1842.82 Q1209.97 1842.64 1210.99 1842.64 Q1216.77 1842.64 1220.15 1845.81 Q1223.53 1848.98 1223.53 1854.4 Q1223.53 1859.97 1220.06 1863.08 Q1216.59 1866.15 1210.27 1866.15 Q1208.09 1866.15 1205.82 1865.78 Q1203.58 1865.41 1201.17 1864.67 L1201.17 1859.97 Q1203.25 1861.11 1205.48 1861.66 Q1207.7 1862.22 1210.18 1862.22 Q1214.18 1862.22 1216.52 1860.11 Q1218.86 1858.01 1218.86 1854.4 Q1218.86 1850.78 1216.52 1848.68 Q1214.18 1846.57 1210.18 1846.57 Q1208.3 1846.57 1206.43 1846.99 Q1204.57 1847.4 1202.63 1848.28 L1202.63 1830.92 Z" fill="#000000" fill-rule="evenodd" fill-opacity="1" /><path clip-path="url(#clip740)" d="M1242.74 1834 Q1239.13 1834 1237.3 1837.57 Q1235.5 1841.11 1235.5 1848.24 Q1235.5 1855.34 1237.3 1858.91 Q1239.13 1862.45 1242.74 1862.45 Q1246.38 1862.45 1248.18 1858.91 Q1250.01 1855.34 1250.01 1848.24 Q1250.01 1841.11 1248.18 1837.57 Q1246.38 1834 1242.74 1834 M1242.74 1830.3 Q1248.55 1830.3 1251.61 1834.9 Q1254.69 1839.49 1254.69 1848.24 Q1254.69 1856.96 1251.61 1861.57 Q1248.55 1866.15 1242.74 1866.15 Q1236.93 1866.15 1233.86 1861.57 Q1230.8 1856.96 1230.8 1848.24 Q1230.8 1839.49 1233.86 1834.9 Q1236.93 1830.3 1242.74 1830.3 Z" fill="#000000" fill-rule="evenodd" fill-opacity="1" /><path clip-path="url(#clip740)" d="M1655.52 1834 Q1651.91 1834 1650.08 1837.57 Q1648.28 1841.11 1648.28 1848.24 Q1648.28 1855.34 1650.08 1858.91 Q1651.91 1862.45 1655.52 1862.45 Q1659.16 1862.45 1660.96 1858.91 Q1662.79 1855.34 1662.79 1848.24 Q1662.79 1841.11 1660.96 1837.57 Q1659.16 1834 1655.52 1834 M1655.52 1830.3 Q1661.33 1830.3 1664.39 1834.9 Q1667.47 1839.49 1667.47 1848.24 Q1667.47 1856.96 1664.39 1861.57 Q1661.33 1866.15 1655.52 1866.15 Q1649.71 1866.15 1646.63 1861.57 Q1643.58 1856.96 1643.58 1848.24 Q1643.58 1839.49 1646.63 1834.9 Q1649.71 1830.3 1655.52 1830.3 Z" fill="#000000" fill-rule="evenodd" fill-opacity="1" /><path clip-path="url(#clip740)" d="M1675.68 1859.6 L1680.57 1859.6 L1680.57 1865.48 L1675.68 1865.48 L1675.68 1859.6 Z" fill="#000000" fill-rule="evenodd" fill-opacity="1" /><path clip-path="url(#clip740)" d="M1689.57 1830.92 L1711.79 1830.92 L1711.79 1832.91 L1699.25 1865.48 L1694.36 1865.48 L1706.17 1834.86 L1689.57 1834.86 L1689.57 1830.92 Z" fill="#000000" fill-rule="evenodd" fill-opacity="1" /><path clip-path="url(#clip740)" d="M1720.96 1830.92 L1739.32 1830.92 L1739.32 1834.86 L1725.24 1834.86 L1725.24 1843.33 Q1726.26 1842.98 1727.28 1842.82 Q1728.3 1842.64 1729.32 1842.64 Q1735.1 1842.64 1738.48 1845.81 Q1741.86 1848.98 1741.86 1854.4 Q1741.86 1859.97 1738.39 1863.08 Q1734.92 1866.15 1728.6 1866.15 Q1726.42 1866.15 1724.16 1865.78 Q1721.91 1865.41 1719.5 1864.67 L1719.5 1859.97 Q1721.59 1861.11 1723.81 1861.66 Q1726.03 1862.22 1728.51 1862.22 Q1732.51 1862.22 1734.85 1860.11 Q1737.19 1858.01 1737.19 1854.4 Q1737.19 1850.78 1734.85 1848.68 Q1732.51 1846.57 1728.51 1846.57 Q1726.63 1846.57 1724.76 1846.99 Q1722.91 1847.4 1720.96 1848.28 L1720.96 1830.92 Z" fill="#000000" fill-rule="evenodd" fill-opacity="1" /><path clip-path="url(#clip740)" d="M2132.47 1861.55 L2140.1 1861.55 L2140.1 1835.18 L2131.79 1836.85 L2131.79 1832.59 L2140.06 1830.92 L2144.73 1830.92 L2144.73 1861.55 L2152.37 1861.55 L2152.37 1865.48 L2132.47 1865.48 L2132.47 1861.55 Z" fill="#000000" fill-rule="evenodd" fill-opacity="1" /><path clip-path="url(#clip740)" d="M2161.82 1859.6 L2166.7 1859.6 L2166.7 1865.48 L2161.82 1865.48 L2161.82 1859.6 Z" fill="#000000" fill-rule="evenodd" fill-opacity="1" /><path clip-path="url(#clip740)" d="M2186.89 1834 Q2183.27 1834 2181.45 1837.57 Q2179.64 1841.11 2179.64 1848.24 Q2179.64 1855.34 2181.45 1858.91 Q2183.27 1862.45 2186.89 1862.45 Q2190.52 1862.45 2192.33 1858.91 Q2194.15 1855.34 2194.15 1848.24 Q2194.15 1841.11 2192.33 1837.57 Q2190.52 1834 2186.89 1834 M2186.89 1830.3 Q2192.7 1830.3 2195.75 1834.9 Q2198.83 1839.49 2198.83 1848.24 Q2198.83 1856.96 2195.75 1861.57 Q2192.7 1866.15 2186.89 1866.15 Q2181.08 1866.15 2178 1861.57 Q2174.94 1856.96 2174.94 1848.24 Q2174.94 1839.49 2178 1834.9 Q2181.08 1830.3 2186.89 1830.3 Z" fill="#000000" fill-rule="evenodd" fill-opacity="1" /><path clip-path="url(#clip740)" d="M2217.05 1834 Q2213.44 1834 2211.61 1837.57 Q2209.8 1841.11 2209.8 1848.24 Q2209.8 1855.34 2211.61 1858.91 Q2213.44 1862.45 2217.05 1862.45 Q2220.68 1862.45 2222.49 1858.91 Q2224.32 1855.34 2224.32 1848.24 Q2224.32 1841.11 2222.49 1837.57 Q2220.68 1834 2217.05 1834 M2217.05 1830.3 Q2222.86 1830.3 2225.91 1834.9 Q2228.99 1839.49 2228.99 1848.24 Q2228.99 1856.96 2225.91 1861.57 Q2222.86 1866.15 2217.05 1866.15 Q2211.24 1866.15 2208.16 1861.57 Q2205.1 1856.96 2205.1 1848.24 Q2205.1 1839.49 2208.16 1834.9 Q2211.24 1830.3 2217.05 1830.3 Z" fill="#000000" fill-rule="evenodd" fill-opacity="1" /><polyline clip-path="url(#clip742)" style="stroke:#000000; stroke-linecap:butt; stroke-linejoin:round; stroke-width:2; stroke-opacity:0.1; fill:none" points="
  159.478,1479.55 2640.76,1479.55 
  "/>
<polyline clip-path="url(#clip742)" style="stroke:#000000; stroke-linecap:butt; stroke-linejoin:round; stroke-width:2; stroke-opacity:0.1; fill:none" points="
  159.478,1133.88 2640.76,1133.88 
  "/>
<polyline clip-path="url(#clip742)" style="stroke:#000000; stroke-linecap:butt; stroke-linejoin:round; stroke-width:2; stroke-opacity:0.1; fill:none" points="
  159.478,788.209 2640.76,788.209 
  "/>
<polyline clip-path="url(#clip742)" style="stroke:#000000; stroke-linecap:butt; stroke-linejoin:round; stroke-width:2; stroke-opacity:0.1; fill:none" points="
  159.478,442.541 2640.76,442.541 
  "/>
<polyline clip-path="url(#clip742)" style="stroke:#000000; stroke-linecap:butt; stroke-linejoin:round; stroke-width:2; stroke-opacity:0.1; fill:none" points="
  159.478,96.8724 2640.76,96.8724 
  "/>
<polyline clip-path="url(#clip740)" style="stroke:#000000; stroke-linecap:butt; stroke-linejoin:round; stroke-width:4; stroke-opacity:1; fill:none" points="
  159.478,1800.78 159.478,47.2441 
  "/>
<polyline clip-path="url(#clip740)" style="stroke:#000000; stroke-linecap:butt; stroke-linejoin:round; stroke-width:4; stroke-opacity:1; fill:none" points="
  159.478,1479.55 178.376,1479.55 
  "/>
<polyline clip-path="url(#clip740)" style="stroke:#000000; stroke-linecap:butt; stroke-linejoin:round; stroke-width:4; stroke-opacity:1; fill:none" points="
  159.478,1133.88 178.376,1133.88 
  "/>
<polyline clip-path="url(#clip740)" style="stroke:#000000; stroke-linecap:butt; stroke-linejoin:round; stroke-width:4; stroke-opacity:1; fill:none" points="
  159.478,788.209 178.376,788.209 
  "/>
<polyline clip-path="url(#clip740)" style="stroke:#000000; stroke-linecap:butt; stroke-linejoin:round; stroke-width:4; stroke-opacity:1; fill:none" points="
  159.478,442.541 178.376,442.541 
  "/>
<polyline clip-path="url(#clip740)" style="stroke:#000000; stroke-linecap:butt; stroke-linejoin:round; stroke-width:4; stroke-opacity:1; fill:none" points="
  159.478,96.8724 178.376,96.8724 
  "/>
<path clip-path="url(#clip740)" d="M63.5798 1465.35 Q59.9687 1465.35 58.14 1468.91 Q56.3345 1472.45 56.3345 1479.58 Q56.3345 1486.69 58.14 1490.25 Q59.9687 1493.79 63.5798 1493.79 Q67.2141 1493.79 69.0196 1490.25 Q70.8483 1486.69 70.8483 1479.58 Q70.8483 1472.45 69.0196 1468.91 Q67.2141 1465.35 63.5798 1465.35 M63.5798 1461.64 Q69.39 1461.64 72.4455 1466.25 Q75.5242 1470.83 75.5242 1479.58 Q75.5242 1488.31 72.4455 1492.91 Q69.39 1497.5 63.5798 1497.5 Q57.7697 1497.5 54.691 1492.91 Q51.6354 1488.31 51.6354 1479.58 Q51.6354 1470.83 54.691 1466.25 Q57.7697 1461.64 63.5798 1461.64 Z" fill="#000000" fill-rule="evenodd" fill-opacity="1" /><path clip-path="url(#clip740)" d="M83.7418 1490.95 L88.626 1490.95 L88.626 1496.83 L83.7418 1496.83 L83.7418 1490.95 Z" fill="#000000" fill-rule="evenodd" fill-opacity="1" /><path clip-path="url(#clip740)" d="M102.839 1492.89 L119.158 1492.89 L119.158 1496.83 L97.2139 1496.83 L97.2139 1492.89 Q99.8759 1490.14 104.459 1485.51 Q109.066 1480.85 110.246 1479.51 Q112.492 1476.99 113.371 1475.25 Q114.274 1473.49 114.274 1471.8 Q114.274 1469.05 112.33 1467.31 Q110.408 1465.58 107.306 1465.58 Q105.107 1465.58 102.654 1466.34 Q100.223 1467.1 97.4454 1468.66 L97.4454 1463.93 Q100.269 1462.8 102.723 1462.22 Q105.177 1461.64 107.214 1461.64 Q112.584 1461.64 115.779 1464.33 Q118.973 1467.01 118.973 1471.5 Q118.973 1473.63 118.163 1475.55 Q117.376 1477.45 115.269 1480.04 Q114.691 1480.72 111.589 1483.93 Q108.487 1487.13 102.839 1492.89 Z" fill="#000000" fill-rule="evenodd" fill-opacity="1" /><path clip-path="url(#clip740)" d="M61.4965 1119.68 Q57.8854 1119.68 56.0567 1123.24 Q54.2512 1126.78 54.2512 1133.91 Q54.2512 1141.02 56.0567 1144.58 Q57.8854 1148.13 61.4965 1148.13 Q65.1307 1148.13 66.9363 1144.58 Q68.765 1141.02 68.765 1133.91 Q68.765 1126.78 66.9363 1123.24 Q65.1307 1119.68 61.4965 1119.68 M61.4965 1115.97 Q67.3067 1115.97 70.3622 1120.58 Q73.4409 1125.16 73.4409 1133.91 Q73.4409 1142.64 70.3622 1147.25 Q67.3067 1151.83 61.4965 1151.83 Q55.6864 1151.83 52.6077 1147.25 Q49.5521 1142.64 49.5521 1133.91 Q49.5521 1125.16 52.6077 1120.58 Q55.6864 1115.97 61.4965 1115.97 Z" fill="#000000" fill-rule="evenodd" fill-opacity="1" /><path clip-path="url(#clip740)" d="M81.6584 1145.28 L86.5427 1145.28 L86.5427 1151.16 L81.6584 1151.16 L81.6584 1145.28 Z" fill="#000000" fill-rule="evenodd" fill-opacity="1" /><path clip-path="url(#clip740)" d="M109.575 1120.67 L97.7695 1139.12 L109.575 1139.12 L109.575 1120.67 M108.348 1116.6 L114.228 1116.6 L114.228 1139.12 L119.158 1139.12 L119.158 1143.01 L114.228 1143.01 L114.228 1151.16 L109.575 1151.16 L109.575 1143.01 L93.9732 1143.01 L93.9732 1138.5 L108.348 1116.6 Z" fill="#000000" fill-rule="evenodd" fill-opacity="1" /><path clip-path="url(#clip740)" d="M61.8206 774.008 Q58.2095 774.008 56.3808 777.573 Q54.5752 781.115 54.5752 788.244 Q54.5752 795.351 56.3808 798.915 Q58.2095 802.457 61.8206 802.457 Q65.4548 802.457 67.2604 798.915 Q69.0891 795.351 69.0891 788.244 Q69.0891 781.115 67.2604 777.573 Q65.4548 774.008 61.8206 774.008 M61.8206 770.304 Q67.6307 770.304 70.6863 774.911 Q73.765 779.494 73.765 788.244 Q73.765 796.971 70.6863 801.577 Q67.6307 806.161 61.8206 806.161 Q56.0104 806.161 52.9317 801.577 Q49.8762 796.971 49.8762 788.244 Q49.8762 779.494 52.9317 774.911 Q56.0104 770.304 61.8206 770.304 Z" fill="#000000" fill-rule="evenodd" fill-opacity="1" /><path clip-path="url(#clip740)" d="M81.9825 799.61 L86.8667 799.61 L86.8667 805.489 L81.9825 805.489 L81.9825 799.61 Z" fill="#000000" fill-rule="evenodd" fill-opacity="1" /><path clip-path="url(#clip740)" d="M107.631 786.346 Q104.482 786.346 102.631 788.499 Q100.802 790.652 100.802 794.402 Q100.802 798.128 102.631 800.304 Q104.482 802.457 107.631 802.457 Q110.779 802.457 112.607 800.304 Q114.459 798.128 114.459 794.402 Q114.459 790.652 112.607 788.499 Q110.779 786.346 107.631 786.346 M116.913 771.693 L116.913 775.953 Q115.154 775.119 113.348 774.679 Q111.566 774.24 109.806 774.24 Q105.177 774.24 102.723 777.365 Q100.293 780.49 99.9454 786.809 Q101.311 784.795 103.371 783.73 Q105.431 782.642 107.908 782.642 Q113.117 782.642 116.126 785.814 Q119.158 788.962 119.158 794.402 Q119.158 799.726 116.01 802.943 Q112.862 806.161 107.631 806.161 Q101.635 806.161 98.4639 801.577 Q95.2926 796.971 95.2926 788.244 Q95.2926 780.05 99.1815 775.189 Q103.07 770.304 109.621 770.304 Q111.38 770.304 113.163 770.652 Q114.968 770.999 116.913 771.693 Z" fill="#000000" fill-rule="evenodd" fill-opacity="1" /><path clip-path="url(#clip740)" d="M62.0752 428.34 Q58.4641 428.34 56.6354 431.904 Q54.8299 435.446 54.8299 442.576 Q54.8299 449.682 56.6354 453.247 Q58.4641 456.789 62.0752 456.789 Q65.7094 456.789 67.515 453.247 Q69.3437 449.682 69.3437 442.576 Q69.3437 435.446 67.515 431.904 Q65.7094 428.34 62.0752 428.34 M62.0752 424.636 Q67.8854 424.636 70.9409 429.242 Q74.0196 433.826 74.0196 442.576 Q74.0196 451.302 70.9409 455.909 Q67.8854 460.492 62.0752 460.492 Q56.2651 460.492 53.1864 455.909 Q50.1308 451.302 50.1308 442.576 Q50.1308 433.826 53.1864 429.242 Q56.2651 424.636 62.0752 424.636 Z" fill="#000000" fill-rule="evenodd" fill-opacity="1" /><path clip-path="url(#clip740)" d="M82.2371 453.941 L87.1214 453.941 L87.1214 459.821 L82.2371 459.821 L82.2371 453.941 Z" fill="#000000" fill-rule="evenodd" fill-opacity="1" /><path clip-path="url(#clip740)" d="M107.306 443.409 Q103.973 443.409 102.052 445.191 Q100.154 446.974 100.154 450.099 Q100.154 453.224 102.052 455.006 Q103.973 456.789 107.306 456.789 Q110.64 456.789 112.561 455.006 Q114.482 453.201 114.482 450.099 Q114.482 446.974 112.561 445.191 Q110.663 443.409 107.306 443.409 M102.631 441.418 Q99.6213 440.678 97.9315 438.617 Q96.2648 436.557 96.2648 433.594 Q96.2648 429.451 99.2046 427.043 Q102.168 424.636 107.306 424.636 Q112.468 424.636 115.408 427.043 Q118.348 429.451 118.348 433.594 Q118.348 436.557 116.658 438.617 Q114.992 440.678 112.005 441.418 Q115.385 442.205 117.26 444.497 Q119.158 446.789 119.158 450.099 Q119.158 455.122 116.08 457.807 Q113.024 460.492 107.306 460.492 Q101.589 460.492 98.5102 457.807 Q95.4547 455.122 95.4547 450.099 Q95.4547 446.789 97.3528 444.497 Q99.2509 442.205 102.631 441.418 M100.918 434.034 Q100.918 436.719 102.584 438.224 Q104.274 439.728 107.306 439.728 Q110.316 439.728 112.005 438.224 Q113.718 436.719 113.718 434.034 Q113.718 431.349 112.005 429.844 Q110.316 428.34 107.306 428.34 Q104.274 428.34 102.584 429.844 Q100.918 431.349 100.918 434.034 Z" fill="#000000" fill-rule="evenodd" fill-opacity="1" /><path clip-path="url(#clip740)" d="M52.7928 110.217 L60.4317 110.217 L60.4317 83.8517 L52.1216 85.5183 L52.1216 81.2591 L60.3854 79.5924 L65.0613 79.5924 L65.0613 110.217 L72.7002 110.217 L72.7002 114.152 L52.7928 114.152 L52.7928 110.217 Z" fill="#000000" fill-rule="evenodd" fill-opacity="1" /><path clip-path="url(#clip740)" d="M82.1445 108.273 L87.0288 108.273 L87.0288 114.152 L82.1445 114.152 L82.1445 108.273 Z" fill="#000000" fill-rule="evenodd" fill-opacity="1" /><path clip-path="url(#clip740)" d="M107.214 82.6711 Q103.603 82.6711 101.774 86.2359 Q99.9685 89.7776 99.9685 96.9072 Q99.9685 104.014 101.774 107.578 Q103.603 111.12 107.214 111.12 Q110.848 111.12 112.654 107.578 Q114.482 104.014 114.482 96.9072 Q114.482 89.7776 112.654 86.2359 Q110.848 82.6711 107.214 82.6711 M107.214 78.9675 Q113.024 78.9675 116.08 83.5739 Q119.158 88.1572 119.158 96.9072 Q119.158 105.634 116.08 110.24 Q113.024 114.824 107.214 114.824 Q101.404 114.824 98.325 110.24 Q95.2695 105.634 95.2695 96.9072 Q95.2695 88.1572 98.325 83.5739 Q101.404 78.9675 107.214 78.9675 Z" fill="#000000" fill-rule="evenodd" fill-opacity="1" /><polyline clip-path="url(#clip742)" style="stroke:#009af9; stroke-linecap:butt; stroke-linejoin:round; stroke-width:4; stroke-opacity:1; fill:none" points="
  229.703,96.8724 233.513,108.251 237.323,119.63 241.133,131.008 244.943,142.387 253.75,168.689 262.558,194.992 271.365,221.295 280.172,244.7 297.787,283.332 
  315.401,321.964 333.016,357.082 350.63,389.319 368.245,421.556 385.86,450.27 407.031,484.267 428.202,516.485 449.373,547.128 470.544,576.954 506.344,624.441 
  542.144,668.869 581.033,714.779 619.922,758.381 655.774,796.826 691.626,833.41 730.064,870.934 768.501,907.002 813.034,947.069 857.567,985.401 897.143,1018.16 
  936.719,1049.77 971.424,1076.47 1006.13,1102.33 1081.8,1156.33 1157.93,1207.27 1242.09,1260 1322.17,1307.05 1405.44,1352.99 1475.53,1389.33 1561.1,1431.16 
  1639.5,1467.16 1711.9,1498.41 1785.24,1528.34 1867.43,1559.86 1941.91,1586.51 2027.18,1615.1 2106.14,1639.76 2183.98,1662.3 2259.56,1682.65 2337.04,1702.03 
  2421.92,1721.41 2545.23,1746.41 2570.53,1751.15 
  "/>
<path clip-path="url(#clip740)" d="
M2229.92 209.375 L2558.05 209.375 L2558.05 105.695 L2229.92 105.695  Z
  " fill="#ffffff" fill-rule="evenodd" fill-opacity="1"/>
<polyline clip-path="url(#clip740)" style="stroke:#000000; stroke-linecap:butt; stroke-linejoin:round; stroke-width:4; stroke-opacity:1; fill:none" points="
  2229.92,209.375 2558.05,209.375 2558.05,105.695 2229.92,105.695 2229.92,209.375 
  "/>
<polyline clip-path="url(#clip740)" style="stroke:#009af9; stroke-linecap:butt; stroke-linejoin:round; stroke-width:4; stroke-opacity:1; fill:none" points="
  2257.49,157.535 2422.91,157.535 
  "/>
<path clip-path="url(#clip740)" d="M2464.32 177.223 Q2462.51 181.852 2460.8 183.264 Q2459.09 184.676 2456.22 184.676 L2452.81 184.676 L2452.81 181.112 L2455.31 181.112 Q2457.07 181.112 2458.05 180.278 Q2459.02 179.445 2460.2 176.343 L2460.96 174.399 L2450.48 148.889 L2454.99 148.889 L2463.09 169.167 L2471.19 148.889 L2475.71 148.889 L2464.32 177.223 Z" fill="#000000" fill-rule="evenodd" fill-opacity="1" /><path clip-path="url(#clip740)" d="M2483 170.88 L2490.64 170.88 L2490.64 144.515 L2482.33 146.181 L2482.33 141.922 L2490.59 140.255 L2495.27 140.255 L2495.27 170.88 L2502.91 170.88 L2502.91 174.815 L2483 174.815 L2483 170.88 Z" fill="#000000" fill-rule="evenodd" fill-opacity="1" /></svg>
