<?xml version="1.0" encoding="utf-8"?>
<svg xmlns="http://www.w3.org/2000/svg" xmlns:xlink="http://www.w3.org/1999/xlink" width="672" height="480" viewBox="0 0 2688 1920">
<defs>
  <clipPath id="clip310">
    <rect x="0" y="0" width="2688" height="1920"/>
  </clipPath>
</defs>
<path clip-path="url(#clip310)" d="
M0 1920 L2688 1920 L2688 0 L0 0  Z
  " fill="#ffffff" fill-rule="evenodd" fill-opacity="1"/>
<defs>
  <clipPath id="clip311">
    <rect x="537" y="0" width="1883" height="1883"/>
  </clipPath>
</defs>
<path clip-path="url(#clip310)" d="
M181.747 1800.78 L2640.76 1800.78 L2640.76 47.2441 L181.747 47.2441  Z
  " fill="#ffffff" fill-rule="evenodd" fill-opacity="1"/>
<defs>
  <clipPath id="clip312">
    <rect x="181" y="47" width="2460" height="1755"/>
  </clipPath>
</defs>
<polyline clip-path="url(#clip312)" style="stroke:#000000; stroke-linecap:butt; stroke-linejoin:round; stroke-width:2; stroke-opacity:0.1; fill:none" points="
  251.341,1800.78 251.341,47.2441 
  "/>
<polyline clip-path="url(#clip312)" style="stroke:#000000; stroke-linecap:butt; stroke-linejoin:round; stroke-width:2; stroke-opacity:0.1; fill:none" points="
  897.46,1800.78 897.46,47.2441 
  "/>
<polyline clip-path="url(#clip312)" style="stroke:#000000; stroke-linecap:butt; stroke-linejoin:round; stroke-width:2; stroke-opacity:0.1; fill:none" points="
  1543.58,1800.78 1543.58,47.2441 
  "/>
<polyline clip-path="url(#clip312)" style="stroke:#000000; stroke-linecap:butt; stroke-linejoin:round; stroke-width:2; stroke-opacity:0.1; fill:none" points="
  2189.7,1800.78 2189.7,47.2441 
  "/>
<polyline clip-path="url(#clip310)" style="stroke:#000000; stroke-linecap:butt; stroke-linejoin:round; stroke-width:4; stroke-opacity:1; fill:none" points="
  181.747,1800.78 2640.76,1800.78 
  "/>
<polyline clip-path="url(#clip310)" style="stroke:#000000; stroke-linecap:butt; stroke-linejoin:round; stroke-width:4; stroke-opacity:1; fill:none" points="
  251.341,1800.78 251.341,1781.88 
  "/>
<polyline clip-path="url(#clip310)" style="stroke:#000000; stroke-linecap:butt; stroke-linejoin:round; stroke-width:4; stroke-opacity:1; fill:none" points="
  897.46,1800.78 897.46,1781.88 
  "/>
<polyline clip-path="url(#clip310)" style="stroke:#000000; stroke-linecap:butt; stroke-linejoin:round; stroke-width:4; stroke-opacity:1; fill:none" points="
  1543.58,1800.78 1543.58,1781.88 
  "/>
<polyline clip-path="url(#clip310)" style="stroke:#000000; stroke-linecap:butt; stroke-linejoin:round; stroke-width:4; stroke-opacity:1; fill:none" points="
  2189.7,1800.78 2189.7,1781.88 
  "/>
<path clip-path="url(#clip310)" d="M251.341 1834 Q247.73 1834 245.901 1837.57 Q244.096 1841.11 244.096 1848.24 Q244.096 1855.34 245.901 1858.91 Q247.73 1862.45 251.341 1862.45 Q254.975 1862.45 256.781 1858.91 Q258.61 1855.34 258.61 1848.24 Q258.61 1841.11 256.781 1837.57 Q254.975 1834 251.341 1834 M251.341 1830.3 Q257.151 1830.3 260.207 1834.9 Q263.286 1839.49 263.286 1848.24 Q263.286 1856.96 260.207 1861.57 Q257.151 1866.15 251.341 1866.15 Q245.531 1866.15 242.452 1861.57 Q239.397 1856.96 239.397 1848.24 Q239.397 1839.49 242.452 1834.9 Q245.531 1830.3 251.341 1830.3 Z" fill="#000000" fill-rule="evenodd" fill-opacity="1" /><path clip-path="url(#clip310)" d="M887.738 1830.92 L906.094 1830.92 L906.094 1834.86 L892.02 1834.86 L892.02 1843.33 Q893.039 1842.98 894.057 1842.82 Q895.076 1842.64 896.094 1842.64 Q901.881 1842.64 905.261 1845.81 Q908.641 1848.98 908.641 1854.4 Q908.641 1859.97 905.168 1863.08 Q901.696 1866.15 895.377 1866.15 Q893.201 1866.15 890.932 1865.78 Q888.687 1865.41 886.28 1864.67 L886.28 1859.97 Q888.363 1861.11 890.585 1861.66 Q892.807 1862.22 895.284 1862.22 Q899.289 1862.22 901.627 1860.11 Q903.965 1858.01 903.965 1854.4 Q903.965 1850.78 901.627 1848.68 Q899.289 1846.57 895.284 1846.57 Q893.409 1846.57 891.534 1846.99 Q889.682 1847.4 887.738 1848.28 L887.738 1830.92 Z" fill="#000000" fill-rule="evenodd" fill-opacity="1" /><path clip-path="url(#clip310)" d="M1518.27 1861.55 L1525.91 1861.55 L1525.91 1835.18 L1517.6 1836.85 L1517.6 1832.59 L1525.86 1830.92 L1530.54 1830.92 L1530.54 1861.55 L1538.17 1861.55 L1538.17 1865.48 L1518.27 1865.48 L1518.27 1861.55 Z" fill="#000000" fill-rule="evenodd" fill-opacity="1" /><path clip-path="url(#clip310)" d="M1557.62 1834 Q1554.01 1834 1552.18 1837.57 Q1550.37 1841.11 1550.37 1848.24 Q1550.37 1855.34 1552.18 1858.91 Q1554.01 1862.45 1557.62 1862.45 Q1561.25 1862.45 1563.06 1858.91 Q1564.89 1855.34 1564.89 1848.24 Q1564.89 1841.11 1563.06 1837.57 Q1561.25 1834 1557.62 1834 M1557.62 1830.3 Q1563.43 1830.3 1566.48 1834.9 Q1569.56 1839.49 1569.56 1848.24 Q1569.56 1856.96 1566.48 1861.57 Q1563.43 1866.15 1557.62 1866.15 Q1551.81 1866.15 1548.73 1861.57 Q1545.67 1856.96 1545.67 1848.24 Q1545.67 1839.49 1548.73 1834.9 Q1551.81 1830.3 1557.62 1830.3 Z" fill="#000000" fill-rule="evenodd" fill-opacity="1" /><path clip-path="url(#clip310)" d="M2164.88 1861.55 L2172.52 1861.55 L2172.52 1835.18 L2164.21 1836.85 L2164.21 1832.59 L2172.48 1830.92 L2177.15 1830.92 L2177.15 1861.55 L2184.79 1861.55 L2184.79 1865.48 L2164.88 1865.48 L2164.88 1861.55 Z" fill="#000000" fill-rule="evenodd" fill-opacity="1" /><path clip-path="url(#clip310)" d="M2194.28 1830.92 L2212.64 1830.92 L2212.64 1834.86 L2198.56 1834.86 L2198.56 1843.33 Q2199.58 1842.98 2200.6 1842.82 Q2201.62 1842.64 2202.64 1842.64 Q2208.42 1842.64 2211.8 1845.81 Q2215.18 1848.98 2215.18 1854.4 Q2215.18 1859.97 2211.71 1863.08 Q2208.24 1866.15 2201.92 1866.15 Q2199.74 1866.15 2197.48 1865.78 Q2195.23 1865.41 2192.82 1864.67 L2192.82 1859.97 Q2194.91 1861.11 2197.13 1861.66 Q2199.35 1862.22 2201.83 1862.22 Q2205.83 1862.22 2208.17 1860.11 Q2210.51 1858.01 2210.51 1854.4 Q2210.51 1850.78 2208.17 1848.68 Q2205.83 1846.57 2201.83 1846.57 Q2199.95 1846.57 2198.08 1846.99 Q2196.23 1847.4 2194.28 1848.28 L2194.28 1830.92 Z" fill="#000000" fill-rule="evenodd" fill-opacity="1" /><polyline clip-path="url(#clip312)" style="stroke:#000000; stroke-linecap:butt; stroke-linejoin:round; stroke-width:2; stroke-opacity:0.1; fill:none" points="
  181.747,1736.99 2640.76,1736.99 
  "/>
<polyline clip-path="url(#clip312)" style="stroke:#000000; stroke-linecap:butt; stroke-linejoin:round; stroke-width:2; stroke-opacity:0.1; fill:none" points="
  181.747,1414.04 2640.76,1414.04 
  "/>
<polyline clip-path="url(#clip312)" style="stroke:#000000; stroke-linecap:butt; stroke-linejoin:round; stroke-width:2; stroke-opacity:0.1; fill:none" points="
  181.747,1091.09 2640.76,1091.09 
  "/>
<polyline clip-path="url(#clip312)" style="stroke:#000000; stroke-linecap:butt; stroke-linejoin:round; stroke-width:2; stroke-opacity:0.1; fill:none" points="
  181.747,768.139 2640.76,768.139 
  "/>
<polyline clip-path="url(#clip312)" style="stroke:#000000; stroke-linecap:butt; stroke-linejoin:round; stroke-width:2; stroke-opacity:0.1; fill:none" points="
  181.747,445.188 2640.76,445.188 
  "/>
<polyline clip-path="url(#clip312)" style="stroke:#000000; stroke-linecap:butt; stroke-linejoin:round; stroke-width:2; stroke-opacity:0.1; fill:none" points="
  181.747,122.237 2640.76,122.237 
  "/>
<polyline clip-path="url(#clip310)" style="stroke:#000000; stroke-linecap:butt; stroke-linejoin:round; stroke-width:4; stroke-opacity:1; fill:none" points="
  181.747,1800.78 181.747,47.2441 
  "/>
<polyline clip-path="url(#clip310)" style="stroke:#000000; stroke-linecap:butt; stroke-linejoin:round; stroke-width:4; stroke-opacity:1; fill:none" points="
  181.747,1736.99 200.644,1736.99 
  "/>
<polyline clip-path="url(#clip310)" style="stroke:#000000; stroke-linecap:butt; stroke-linejoin:round; stroke-width:4; stroke-opacity:1; fill:none" points="
  181.747,1414.04 200.644,1414.04 
  "/>
<polyline clip-path="url(#clip310)" style="stroke:#000000; stroke-linecap:butt; stroke-linejoin:round; stroke-width:4; stroke-opacity:1; fill:none" points="
  181.747,1091.09 200.644,1091.09 
  "/>
<polyline clip-path="url(#clip310)" style="stroke:#000000; stroke-linecap:butt; stroke-linejoin:round; stroke-width:4; stroke-opacity:1; fill:none" points="
  181.747,768.139 200.644,768.139 
  "/>
<polyline clip-path="url(#clip310)" style="stroke:#000000; stroke-linecap:butt; stroke-linejoin:round; stroke-width:4; stroke-opacity:1; fill:none" points="
  181.747,445.188 200.644,445.188 
  "/>
<polyline clip-path="url(#clip310)" style="stroke:#000000; stroke-linecap:butt; stroke-linejoin:round; stroke-width:4; stroke-opacity:1; fill:none" points="
  181.747,122.237 200.644,122.237 
  "/>
<path clip-path="url(#clip310)" d="M49.5521 1737.44 L79.2279 1737.44 L79.2279 1741.38 L49.5521 1741.38 L49.5521 1737.44 Z" fill="#000000" fill-rule="evenodd" fill-opacity="1" /><path clip-path="url(#clip310)" d="M89.3667 1719.71 L107.723 1719.71 L107.723 1723.65 L93.6491 1723.65 L93.6491 1732.12 Q94.6676 1731.77 95.6861 1731.61 Q96.7047 1731.43 97.7232 1731.43 Q103.51 1731.43 106.89 1734.6 Q110.269 1737.77 110.269 1743.18 Q110.269 1748.76 106.797 1751.87 Q103.325 1754.94 97.0056 1754.94 Q94.8297 1754.94 92.5612 1754.57 Q90.3158 1754.2 87.9084 1753.46 L87.9084 1748.76 Q89.9917 1749.9 92.2139 1750.45 Q94.4361 1751.01 96.913 1751.01 Q100.918 1751.01 103.256 1748.9 Q105.593 1746.8 105.593 1743.18 Q105.593 1739.57 103.256 1737.47 Q100.918 1735.36 96.913 1735.36 Q95.038 1735.36 93.163 1735.78 Q91.3112 1736.19 89.3667 1737.07 L89.3667 1719.71 Z" fill="#000000" fill-rule="evenodd" fill-opacity="1" /><path clip-path="url(#clip310)" d="M129.482 1722.79 Q125.871 1722.79 124.042 1726.36 Q122.237 1729.9 122.237 1737.03 Q122.237 1744.13 124.042 1747.7 Q125.871 1751.24 129.482 1751.24 Q133.116 1751.24 134.922 1747.7 Q136.751 1744.13 136.751 1737.03 Q136.751 1729.9 134.922 1726.36 Q133.116 1722.79 129.482 1722.79 M129.482 1719.09 Q135.292 1719.09 138.348 1723.69 Q141.427 1728.28 141.427 1737.03 Q141.427 1745.75 138.348 1750.36 Q135.292 1754.94 129.482 1754.94 Q123.672 1754.94 120.593 1750.36 Q117.538 1745.75 117.538 1737.03 Q117.538 1728.28 120.593 1723.69 Q123.672 1719.09 129.482 1719.09 Z" fill="#000000" fill-rule="evenodd" fill-opacity="1" /><path clip-path="url(#clip310)" d="M49.5521 1414.49 L79.2279 1414.49 L79.2279 1418.43 L49.5521 1418.43 L49.5521 1414.49 Z" fill="#000000" fill-rule="evenodd" fill-opacity="1" /><path clip-path="url(#clip310)" d="M102.168 1400.84 L90.3621 1419.28 L102.168 1419.28 L102.168 1400.84 M100.941 1396.76 L106.82 1396.76 L106.82 1419.28 L111.751 1419.28 L111.751 1423.17 L106.82 1423.17 L106.82 1431.32 L102.168 1431.32 L102.168 1423.17 L86.5658 1423.17 L86.5658 1418.66 L100.941 1396.76 Z" fill="#000000" fill-rule="evenodd" fill-opacity="1" /><path clip-path="url(#clip310)" d="M129.482 1399.84 Q125.871 1399.84 124.042 1403.41 Q122.237 1406.95 122.237 1414.08 Q122.237 1421.18 124.042 1424.75 Q125.871 1428.29 129.482 1428.29 Q133.116 1428.29 134.922 1424.75 Q136.751 1421.18 136.751 1414.08 Q136.751 1406.95 134.922 1403.41 Q133.116 1399.84 129.482 1399.84 M129.482 1396.14 Q135.292 1396.14 138.348 1400.74 Q141.427 1405.33 141.427 1414.08 Q141.427 1422.8 138.348 1427.41 Q135.292 1431.99 129.482 1431.99 Q123.672 1431.99 120.593 1427.41 Q117.538 1422.8 117.538 1414.08 Q117.538 1405.33 120.593 1400.74 Q123.672 1396.14 129.482 1396.14 Z" fill="#000000" fill-rule="evenodd" fill-opacity="1" /><path clip-path="url(#clip310)" d="M49.5521 1091.54 L79.2279 1091.54 L79.2279 1095.48 L49.5521 1095.48 L49.5521 1091.54 Z" fill="#000000" fill-rule="evenodd" fill-opacity="1" /><path clip-path="url(#clip310)" d="M103.487 1089.74 Q106.843 1090.45 108.718 1092.72 Q110.617 1094.99 110.617 1098.32 Q110.617 1103.44 107.098 1106.24 Q103.58 1109.04 97.0982 1109.04 Q94.9223 1109.04 92.6075 1108.6 Q90.3158 1108.19 87.8621 1107.33 L87.8621 1102.81 Q89.8065 1103.95 92.1213 1104.53 Q94.4361 1105.11 96.9593 1105.11 Q101.357 1105.11 103.649 1103.37 Q105.964 1101.63 105.964 1098.32 Q105.964 1095.27 103.811 1093.56 Q101.681 1091.82 97.8621 1091.82 L93.8343 1091.82 L93.8343 1087.98 L98.0472 1087.98 Q101.496 1087.98 103.325 1086.61 Q105.154 1085.22 105.154 1082.63 Q105.154 1079.97 103.256 1078.56 Q101.381 1077.12 97.8621 1077.12 Q95.9408 1077.12 93.7417 1077.54 Q91.5426 1077.95 88.9038 1078.83 L88.9038 1074.67 Q91.5658 1073.93 93.8806 1073.56 Q96.2185 1073.19 98.2787 1073.19 Q103.603 1073.19 106.705 1075.62 Q109.806 1078.02 109.806 1082.14 Q109.806 1085.01 108.163 1087 Q106.519 1088.97 103.487 1089.74 Z" fill="#000000" fill-rule="evenodd" fill-opacity="1" /><path clip-path="url(#clip310)" d="M129.482 1076.89 Q125.871 1076.89 124.042 1080.45 Q122.237 1084 122.237 1091.13 Q122.237 1098.23 124.042 1101.8 Q125.871 1105.34 129.482 1105.34 Q133.116 1105.34 134.922 1101.8 Q136.751 1098.23 136.751 1091.13 Q136.751 1084 134.922 1080.45 Q133.116 1076.89 129.482 1076.89 M129.482 1073.19 Q135.292 1073.19 138.348 1077.79 Q141.427 1082.38 141.427 1091.13 Q141.427 1099.85 138.348 1104.46 Q135.292 1109.04 129.482 1109.04 Q123.672 1109.04 120.593 1104.46 Q117.538 1099.85 117.538 1091.13 Q117.538 1082.38 120.593 1077.79 Q123.672 1073.19 129.482 1073.19 Z" fill="#000000" fill-rule="evenodd" fill-opacity="1" /><path clip-path="url(#clip310)" d="M49.5521 768.591 L79.2279 768.591 L79.2279 772.526 L49.5521 772.526 L49.5521 768.591 Z" fill="#000000" fill-rule="evenodd" fill-opacity="1" /><path clip-path="url(#clip310)" d="M93.3482 781.484 L109.668 781.484 L109.668 785.419 L87.7232 785.419 L87.7232 781.484 Q90.3852 778.729 94.9685 774.1 Q99.575 769.447 100.756 768.105 Q103.001 765.581 103.881 763.845 Q104.783 762.086 104.783 760.396 Q104.783 757.642 102.839 755.906 Q100.918 754.169 97.8158 754.169 Q95.6167 754.169 93.163 754.933 Q90.7325 755.697 87.9547 757.248 L87.9547 752.526 Q90.7788 751.392 93.2324 750.813 Q95.6861 750.234 97.7232 750.234 Q103.094 750.234 106.288 752.919 Q109.482 755.605 109.482 760.095 Q109.482 762.225 108.672 764.146 Q107.885 766.044 105.779 768.637 Q105.2 769.308 102.098 772.526 Q98.9963 775.72 93.3482 781.484 Z" fill="#000000" fill-rule="evenodd" fill-opacity="1" /><path clip-path="url(#clip310)" d="M129.482 753.938 Q125.871 753.938 124.042 757.503 Q122.237 761.044 122.237 768.174 Q122.237 775.28 124.042 778.845 Q125.871 782.387 129.482 782.387 Q133.116 782.387 134.922 778.845 Q136.751 775.28 136.751 768.174 Q136.751 761.044 134.922 757.503 Q133.116 753.938 129.482 753.938 M129.482 750.234 Q135.292 750.234 138.348 754.841 Q141.427 759.424 141.427 768.174 Q141.427 776.901 138.348 781.507 Q135.292 786.091 129.482 786.091 Q123.672 786.091 120.593 781.507 Q117.538 776.901 117.538 768.174 Q117.538 759.424 120.593 754.841 Q123.672 750.234 129.482 750.234 Z" fill="#000000" fill-rule="evenodd" fill-opacity="1" /><path clip-path="url(#clip310)" d="M49.5521 445.64 L79.2279 445.64 L79.2279 449.575 L49.5521 449.575 L49.5521 445.64 Z" fill="#000000" fill-rule="evenodd" fill-opacity="1" /><path clip-path="url(#clip310)" d="M90.1306 458.533 L97.7695 458.533 L97.7695 432.167 L89.4593 433.834 L89.4593 429.575 L97.7232 427.908 L102.399 427.908 L102.399 458.533 L110.038 458.533 L110.038 462.468 L90.1306 462.468 L90.1306 458.533 Z" fill="#000000" fill-rule="evenodd" fill-opacity="1" /><path clip-path="url(#clip310)" d="M129.482 430.987 Q125.871 430.987 124.042 434.552 Q122.237 438.093 122.237 445.223 Q122.237 452.329 124.042 455.894 Q125.871 459.436 129.482 459.436 Q133.116 459.436 134.922 455.894 Q136.751 452.329 136.751 445.223 Q136.751 438.093 134.922 434.552 Q133.116 430.987 129.482 430.987 M129.482 427.283 Q135.292 427.283 138.348 431.89 Q141.427 436.473 141.427 445.223 Q141.427 453.95 138.348 458.556 Q135.292 463.139 129.482 463.139 Q123.672 463.139 120.593 458.556 Q117.538 453.95 117.538 445.223 Q117.538 436.473 120.593 431.89 Q123.672 427.283 129.482 427.283 Z" fill="#000000" fill-rule="evenodd" fill-opacity="1" /><path clip-path="url(#clip310)" d="M129.482 108.036 Q125.871 108.036 124.042 111.6 Q122.237 115.142 122.237 122.272 Q122.237 129.378 124.042 132.943 Q125.871 136.485 129.482 136.485 Q133.116 136.485 134.922 132.943 Q136.751 129.378 136.751 122.272 Q136.751 115.142 134.922 111.6 Q133.116 108.036 129.482 108.036 M129.482 104.332 Q135.292 104.332 138.348 108.938 Q141.427 113.522 141.427 122.272 Q141.427 130.999 138.348 135.605 Q135.292 140.188 129.482 140.188 Q123.672 140.188 120.593 135.605 Q117.538 130.999 117.538 122.272 Q117.538 113.522 120.593 108.938 Q123.672 104.332 129.482 104.332 Z" fill="#000000" fill-rule="evenodd" fill-opacity="1" /><polyline clip-path="url(#clip312)" style="stroke:#009af9; stroke-linecap:butt; stroke-linejoin:round; stroke-width:4; stroke-opacity:1; fill:none" points="
  251.341,96.8724 255.117,96.8724 258.893,96.8724 262.669,96.8724 266.445,96.8724 301.357,96.8724 336.27,96.8724 353.727,96.8724 371.183,98.0698 388.64,103.497 
  406.096,108.924 448.059,121.97 490.021,137.099 525.5,159.159 560.979,181.219 599.518,205.154 638.058,223.608 673.589,240.62 709.119,257.632 747.211,268.217 
  785.303,277.318 807.37,282.59 829.437,287.862 851.504,301.217 873.571,315.315 893.181,327.844 912.791,340.373 932.402,352.902 952.012,367.319 986.405,403.039 
  1020.8,438.758 1039.55,458.23 1058.3,477.702 1077.04,491.64 1095.79,503.575 1133.51,527.587 1171.23,551.599 1192.09,570.427 1212.94,592.735 1233.79,615.043 
  1254.64,637.352 1274.48,658.577 1294.33,679.803 1314.17,694.585 1334.01,709.049 1354.64,724.088 1375.27,739.127 1395.9,754.166 1416.52,771.523 1451.26,812.11 
  1485.99,852.698 1507.19,877.474 1528.39,901.809 1549.59,918.433 1570.79,935.058 1609.64,965.516 1648.48,997.942 1684.36,1039.53 1720.23,1081.11 1738.4,1102.17 
  1756.57,1123.24 1774.74,1137.64 1792.91,1150.92 1833.64,1180.67 1874.37,1210.41 1911.28,1242.44 1948.18,1274.58 1969.31,1292.99 1990.44,1311.39 2011.56,1323.1 
  2032.69,1334.57 2071.81,1355.79 2110.94,1378.26 2149.51,1412.01 2188.08,1445.75 2206.81,1462.13 2225.53,1477.6 2244.26,1486.68 2262.98,1495.75 2301.37,1514.36 
  2339.76,1533.2 2360.79,1551.6 2381.83,1570 2402.86,1588.4 2423.89,1606.8 2484.99,1664.25 2546.09,1725.87 2558.63,1738.51 2571.16,1751.15 
  "/>
<path clip-path="url(#clip310)" d="
M2233.14 209.375 L2558.79 209.375 L2558.79 105.695 L2233.14 105.695  Z
  " fill="#ffffff" fill-rule="evenodd" fill-opacity="1"/>
<polyline clip-path="url(#clip310)" style="stroke:#000000; stroke-linecap:butt; stroke-linejoin:round; stroke-width:4; stroke-opacity:1; fill:none" points="
  2233.14,209.375 2558.79,209.375 2558.79,105.695 2233.14,105.695 2233.14,209.375 
  "/>
<polyline clip-path="url(#clip310)" style="stroke:#009af9; stroke-linecap:butt; stroke-linejoin:round; stroke-width:4; stroke-opacity:1; fill:none" points="
  2260.46,157.535 2424.39,157.535 
  "/>
<path clip-path="url(#clip310)" d="M2465.56 177.223 Q2463.75 181.852 2462.04 183.264 Q2460.33 184.676 2457.45 184.676 L2454.05 184.676 L2454.05 181.112 L2456.55 181.112 Q2458.31 181.112 2459.28 180.278 Q2460.26 179.445 2461.44 176.343 L2462.2 174.399 L2451.71 148.889 L2456.23 148.889 L2464.33 169.167 L2472.43 148.889 L2476.95 148.889 L2465.56 177.223 Z" fill="#000000" fill-rule="evenodd" fill-opacity="1" /><path clip-path="url(#clip310)" d="M2484.24 170.88 L2491.88 170.88 L2491.88 144.515 L2483.57 146.181 L2483.57 141.922 L2491.83 140.255 L2496.51 140.255 L2496.51 170.88 L2504.14 170.88 L2504.14 174.815 L2484.24 174.815 L2484.24 170.88 Z" fill="#000000" fill-rule="evenodd" fill-opacity="1" /></svg>
