<?xml version="1.0" encoding="utf-8"?>
<svg xmlns="http://www.w3.org/2000/svg" xmlns:xlink="http://www.w3.org/1999/xlink" width="672" height="480" viewBox="0 0 2688 1920">
<defs>
  <clipPath id="clip690">
    <rect x="0" y="0" width="2688" height="1920"/>
  </clipPath>
</defs>
<path clip-path="url(#clip690)" d="
M0 1920 L2688 1920 L2688 0 L0 0  Z
  " fill="#ffffff" fill-rule="evenodd" fill-opacity="1"/>
<defs>
  <clipPath id="clip691">
    <rect x="537" y="0" width="1883" height="1883"/>
  </clipPath>
</defs>
<path clip-path="url(#clip690)" d="
M187.071 1800.78 L2640.76 1800.78 L2640.76 47.2441 L187.071 47.2441  Z
  " fill="#ffffff" fill-rule="evenodd" fill-opacity="1"/>
<defs>
  <clipPath id="clip692">
    <rect x="187" y="47" width="2455" height="1755"/>
  </clipPath>
</defs>
<polyline clip-path="url(#clip692)" style="stroke:#000000; stroke-linecap:butt; stroke-linejoin:round; stroke-width:2; stroke-opacity:0.1; fill:none" points="
  256.515,1800.78 256.515,47.2441 
  "/>
<polyline clip-path="url(#clip692)" style="stroke:#000000; stroke-linecap:butt; stroke-linejoin:round; stroke-width:2; stroke-opacity:0.1; fill:none" points="
  835.214,1800.78 835.214,47.2441 
  "/>
<polyline clip-path="url(#clip692)" style="stroke:#000000; stroke-linecap:butt; stroke-linejoin:round; stroke-width:2; stroke-opacity:0.1; fill:none" points="
  1413.91,1800.78 1413.91,47.2441 
  "/>
<polyline clip-path="url(#clip692)" style="stroke:#000000; stroke-linecap:butt; stroke-linejoin:round; stroke-width:2; stroke-opacity:0.1; fill:none" points="
  1992.61,1800.78 1992.61,47.2441 
  "/>
<polyline clip-path="url(#clip692)" style="stroke:#000000; stroke-linecap:butt; stroke-linejoin:round; stroke-width:2; stroke-opacity:0.1; fill:none" points="
  2571.31,1800.78 2571.31,47.2441 
  "/>
<polyline clip-path="url(#clip690)" style="stroke:#000000; stroke-linecap:butt; stroke-linejoin:round; stroke-width:4; stroke-opacity:1; fill:none" points="
  187.071,1800.78 2640.76,1800.78 
  "/>
<polyline clip-path="url(#clip690)" style="stroke:#000000; stroke-linecap:butt; stroke-linejoin:round; stroke-width:4; stroke-opacity:1; fill:none" points="
  256.515,1800.78 256.515,1781.88 
  "/>
<polyline clip-path="url(#clip690)" style="stroke:#000000; stroke-linecap:butt; stroke-linejoin:round; stroke-width:4; stroke-opacity:1; fill:none" points="
  835.214,1800.78 835.214,1781.88 
  "/>
<polyline clip-path="url(#clip690)" style="stroke:#000000; stroke-linecap:butt; stroke-linejoin:round; stroke-width:4; stroke-opacity:1; fill:none" points="
  1413.91,1800.78 1413.91,1781.88 
  "/>
<polyline clip-path="url(#clip690)" style="stroke:#000000; stroke-linecap:butt; stroke-linejoin:round; stroke-width:4; stroke-opacity:1; fill:none" points="
  1992.61,1800.78 1992.61,1781.88 
  "/>
<polyline clip-path="url(#clip690)" style="stroke:#000000; stroke-linecap:butt; stroke-linejoin:round; stroke-width:4; stroke-opacity:1; fill:none" points="
  2571.31,1800.78 2571.31,1781.88 
  "/>
<path clip-path="url(#clip690)" d="M233.899 1834 Q230.288 1834 228.459 1837.57 Q226.654 1841.11 226.654 1848.24 Q226.654 1855.34 228.459 1858.91 Q230.288 1862.45 233.899 1862.45 Q237.533 1862.45 239.339 1858.91 Q241.167 1855.34 241.167 1848.24 Q241.167 1841.11 239.339 1837.57 Q237.533 1834 233.899 1834 M233.899 1830.3 Q239.709 1830.3 242.765 1834.9 Q245.843 1839.49 245.843 1848.24 Q245.843 1856.96 242.765 1861.57 Q239.709 1866.15 233.899 1866.15 Q228.089 1866.15 225.01 1861.57 Q221.955 1856.96 221.955 1848.24 Q221.955 1839.49 225.01 1834.9 Q228.089 1830.3 233.899 1830.3 Z" fill="#000000" fill-rule="evenodd" fill-opacity="1" /><path clip-path="url(#clip690)" d="M254.061 1859.6 L258.945 1859.6 L258.945 1865.48 L254.061 1865.48 L254.061 1859.6 Z" fill="#000000" fill-rule="evenodd" fill-opacity="1" /><path clip-path="url(#clip690)" d="M279.13 1834 Q275.519 1834 273.69 1837.57 Q271.885 1841.11 271.885 1848.24 Q271.885 1855.34 273.69 1858.91 Q275.519 1862.45 279.13 1862.45 Q282.764 1862.45 284.57 1858.91 Q286.399 1855.34 286.399 1848.24 Q286.399 1841.11 284.57 1837.57 Q282.764 1834 279.13 1834 M279.13 1830.3 Q284.94 1830.3 287.996 1834.9 Q291.075 1839.49 291.075 1848.24 Q291.075 1856.96 287.996 1861.57 Q284.94 1866.15 279.13 1866.15 Q273.32 1866.15 270.241 1861.57 Q267.186 1856.96 267.186 1848.24 Q267.186 1839.49 270.241 1834.9 Q273.32 1830.3 279.13 1830.3 Z" fill="#000000" fill-rule="evenodd" fill-opacity="1" /><path clip-path="url(#clip690)" d="M813.096 1834 Q809.485 1834 807.656 1837.57 Q805.851 1841.11 805.851 1848.24 Q805.851 1855.34 807.656 1858.91 Q809.485 1862.45 813.096 1862.45 Q816.73 1862.45 818.536 1858.91 Q820.364 1855.34 820.364 1848.24 Q820.364 1841.11 818.536 1837.57 Q816.73 1834 813.096 1834 M813.096 1830.3 Q818.906 1830.3 821.962 1834.9 Q825.04 1839.49 825.04 1848.24 Q825.04 1856.96 821.962 1861.57 Q818.906 1866.15 813.096 1866.15 Q807.286 1866.15 804.207 1861.57 Q801.152 1856.96 801.152 1848.24 Q801.152 1839.49 804.207 1834.9 Q807.286 1830.3 813.096 1830.3 Z" fill="#000000" fill-rule="evenodd" fill-opacity="1" /><path clip-path="url(#clip690)" d="M833.258 1859.6 L838.142 1859.6 L838.142 1865.48 L833.258 1865.48 L833.258 1859.6 Z" fill="#000000" fill-rule="evenodd" fill-opacity="1" /><path clip-path="url(#clip690)" d="M848.374 1830.92 L866.73 1830.92 L866.73 1834.86 L852.656 1834.86 L852.656 1843.33 Q853.674 1842.98 854.693 1842.82 Q855.712 1842.64 856.73 1842.64 Q862.517 1842.64 865.897 1845.81 Q869.276 1848.98 869.276 1854.4 Q869.276 1859.97 865.804 1863.08 Q862.332 1866.15 856.012 1866.15 Q853.837 1866.15 851.568 1865.78 Q849.323 1865.41 846.915 1864.67 L846.915 1859.97 Q848.999 1861.11 851.221 1861.66 Q853.443 1862.22 855.92 1862.22 Q859.924 1862.22 862.262 1860.11 Q864.6 1858.01 864.6 1854.4 Q864.6 1850.78 862.262 1848.68 Q859.924 1846.57 855.92 1846.57 Q854.045 1846.57 852.17 1846.99 Q850.318 1847.4 848.374 1848.28 L848.374 1830.92 Z" fill="#000000" fill-rule="evenodd" fill-opacity="1" /><path clip-path="url(#clip690)" d="M1381.07 1861.55 L1388.71 1861.55 L1388.71 1835.18 L1380.39 1836.85 L1380.39 1832.59 L1388.66 1830.92 L1393.33 1830.92 L1393.33 1861.55 L1400.97 1861.55 L1400.97 1865.48 L1381.07 1865.48 L1381.07 1861.55 Z" fill="#000000" fill-rule="evenodd" fill-opacity="1" /><path clip-path="url(#clip690)" d="M1410.42 1859.6 L1415.3 1859.6 L1415.3 1865.48 L1410.42 1865.48 L1410.42 1859.6 Z" fill="#000000" fill-rule="evenodd" fill-opacity="1" /><path clip-path="url(#clip690)" d="M1435.49 1834 Q1431.88 1834 1430.05 1837.57 Q1428.24 1841.11 1428.24 1848.24 Q1428.24 1855.34 1430.05 1858.91 Q1431.88 1862.45 1435.49 1862.45 Q1439.12 1862.45 1440.93 1858.91 Q1442.76 1855.34 1442.76 1848.24 Q1442.76 1841.11 1440.93 1837.57 Q1439.12 1834 1435.49 1834 M1435.49 1830.3 Q1441.3 1830.3 1444.35 1834.9 Q1447.43 1839.49 1447.43 1848.24 Q1447.43 1856.96 1444.35 1861.57 Q1441.3 1866.15 1435.49 1866.15 Q1429.68 1866.15 1426.6 1861.57 Q1423.54 1856.96 1423.54 1848.24 Q1423.54 1839.49 1426.6 1834.9 Q1429.68 1830.3 1435.49 1830.3 Z" fill="#000000" fill-rule="evenodd" fill-opacity="1" /><path clip-path="url(#clip690)" d="M1960.26 1861.55 L1967.9 1861.55 L1967.9 1835.18 L1959.59 1836.85 L1959.59 1832.59 L1967.86 1830.92 L1972.53 1830.92 L1972.53 1861.55 L1980.17 1861.55 L1980.17 1865.48 L1960.26 1865.48 L1960.26 1861.55 Z" fill="#000000" fill-rule="evenodd" fill-opacity="1" /><path clip-path="url(#clip690)" d="M1989.61 1859.6 L1994.5 1859.6 L1994.5 1865.48 L1989.61 1865.48 L1989.61 1859.6 Z" fill="#000000" fill-rule="evenodd" fill-opacity="1" /><path clip-path="url(#clip690)" d="M2004.73 1830.92 L2023.09 1830.92 L2023.09 1834.86 L2009.01 1834.86 L2009.01 1843.33 Q2010.03 1842.98 2011.05 1842.82 Q2012.07 1842.64 2013.09 1842.64 Q2018.87 1842.64 2022.25 1845.81 Q2025.63 1848.98 2025.63 1854.4 Q2025.63 1859.97 2022.16 1863.08 Q2018.69 1866.15 2012.37 1866.15 Q2010.19 1866.15 2007.93 1865.78 Q2005.68 1865.41 2003.27 1864.67 L2003.27 1859.97 Q2005.36 1861.11 2007.58 1861.66 Q2009.8 1862.22 2012.28 1862.22 Q2016.28 1862.22 2018.62 1860.11 Q2020.96 1858.01 2020.96 1854.4 Q2020.96 1850.78 2018.62 1848.68 Q2016.28 1846.57 2012.28 1846.57 Q2010.4 1846.57 2008.53 1846.99 Q2006.68 1847.4 2004.73 1848.28 L2004.73 1830.92 Z" fill="#000000" fill-rule="evenodd" fill-opacity="1" /><path clip-path="url(#clip690)" d="M2542.55 1861.55 L2558.87 1861.55 L2558.87 1865.48 L2536.93 1865.48 L2536.93 1861.55 Q2539.59 1858.79 2544.17 1854.16 Q2548.78 1849.51 2549.96 1848.17 Q2552.2 1845.65 2553.08 1843.91 Q2553.99 1842.15 2553.99 1840.46 Q2553.99 1837.71 2552.04 1835.97 Q2550.12 1834.23 2547.02 1834.23 Q2544.82 1834.23 2542.37 1835 Q2539.93 1835.76 2537.16 1837.31 L2537.16 1832.59 Q2539.98 1831.46 2542.43 1830.88 Q2544.89 1830.3 2546.93 1830.3 Q2552.3 1830.3 2555.49 1832.98 Q2558.68 1835.67 2558.68 1840.16 Q2558.68 1842.29 2557.87 1844.21 Q2557.09 1846.11 2554.98 1848.7 Q2554.4 1849.37 2551.3 1852.59 Q2548.2 1855.78 2542.55 1861.55 Z" fill="#000000" fill-rule="evenodd" fill-opacity="1" /><path clip-path="url(#clip690)" d="M2568.68 1859.6 L2573.57 1859.6 L2573.57 1865.48 L2568.68 1865.48 L2568.68 1859.6 Z" fill="#000000" fill-rule="evenodd" fill-opacity="1" /><path clip-path="url(#clip690)" d="M2593.75 1834 Q2590.14 1834 2588.31 1837.57 Q2586.51 1841.11 2586.51 1848.24 Q2586.51 1855.34 2588.31 1858.91 Q2590.14 1862.45 2593.75 1862.45 Q2597.39 1862.45 2599.19 1858.91 Q2601.02 1855.34 2601.02 1848.24 Q2601.02 1841.11 2599.19 1837.57 Q2597.39 1834 2593.75 1834 M2593.75 1830.3 Q2599.56 1830.3 2602.62 1834.9 Q2605.7 1839.49 2605.7 1848.24 Q2605.7 1856.96 2602.62 1861.57 Q2599.56 1866.15 2593.75 1866.15 Q2587.94 1866.15 2584.87 1861.57 Q2581.81 1856.96 2581.81 1848.24 Q2581.81 1839.49 2584.87 1834.9 Q2587.94 1830.3 2593.75 1830.3 Z" fill="#000000" fill-rule="evenodd" fill-opacity="1" /><polyline clip-path="url(#clip692)" style="stroke:#000000; stroke-linecap:butt; stroke-linejoin:round; stroke-width:2; stroke-opacity:0.1; fill:none" points="
  187.071,1520.92 2640.76,1520.92 
  "/>
<polyline clip-path="url(#clip692)" style="stroke:#000000; stroke-linecap:butt; stroke-linejoin:round; stroke-width:2; stroke-opacity:0.1; fill:none" points="
  187.071,1137.21 2640.76,1137.21 
  "/>
<polyline clip-path="url(#clip692)" style="stroke:#000000; stroke-linecap:butt; stroke-linejoin:round; stroke-width:2; stroke-opacity:0.1; fill:none" points="
  187.071,753.498 2640.76,753.498 
  "/>
<polyline clip-path="url(#clip692)" style="stroke:#000000; stroke-linecap:butt; stroke-linejoin:round; stroke-width:2; stroke-opacity:0.1; fill:none" points="
  187.071,369.786 2640.76,369.786 
  "/>
<polyline clip-path="url(#clip690)" style="stroke:#000000; stroke-linecap:butt; stroke-linejoin:round; stroke-width:4; stroke-opacity:1; fill:none" points="
  187.071,1800.78 187.071,47.2441 
  "/>
<polyline clip-path="url(#clip690)" style="stroke:#000000; stroke-linecap:butt; stroke-linejoin:round; stroke-width:4; stroke-opacity:1; fill:none" points="
  187.071,1520.92 205.968,1520.92 
  "/>
<polyline clip-path="url(#clip690)" style="stroke:#000000; stroke-linecap:butt; stroke-linejoin:round; stroke-width:4; stroke-opacity:1; fill:none" points="
  187.071,1137.21 205.968,1137.21 
  "/>
<polyline clip-path="url(#clip690)" style="stroke:#000000; stroke-linecap:butt; stroke-linejoin:round; stroke-width:4; stroke-opacity:1; fill:none" points="
  187.071,753.498 205.968,753.498 
  "/>
<polyline clip-path="url(#clip690)" style="stroke:#000000; stroke-linecap:butt; stroke-linejoin:round; stroke-width:4; stroke-opacity:1; fill:none" points="
  187.071,369.786 205.968,369.786 
  "/>
<path clip-path="url(#clip690)" d="M84.5982 1534.27 L100.918 1534.27 L100.918 1538.2 L78.9733 1538.2 L78.9733 1534.27 Q81.6353 1531.51 86.2186 1526.88 Q90.8251 1522.23 92.0056 1520.89 Q94.251 1518.37 95.1306 1516.63 Q96.0334 1514.87 96.0334 1513.18 Q96.0334 1510.43 94.0889 1508.69 Q92.1676 1506.95 89.0658 1506.95 Q86.8667 1506.95 84.4131 1507.72 Q81.9825 1508.48 79.2047 1510.03 L79.2047 1505.31 Q82.0288 1504.18 84.4825 1503.6 Q86.9362 1503.02 88.9732 1503.02 Q94.3436 1503.02 97.538 1505.7 Q100.732 1508.39 100.732 1512.88 Q100.732 1515.01 99.9222 1516.93 Q99.1352 1518.83 97.0287 1521.42 Q96.45 1522.09 93.3482 1525.31 Q90.2464 1528.5 84.5982 1534.27 Z" fill="#000000" fill-rule="evenodd" fill-opacity="1" /><path clip-path="url(#clip690)" d="M110.732 1532.32 L115.617 1532.32 L115.617 1538.2 L110.732 1538.2 L110.732 1532.32 Z" fill="#000000" fill-rule="evenodd" fill-opacity="1" /><path clip-path="url(#clip690)" d="M125.848 1503.64 L144.204 1503.64 L144.204 1507.58 L130.13 1507.58 L130.13 1516.05 Q131.149 1515.7 132.167 1515.54 Q133.186 1515.36 134.204 1515.36 Q139.991 1515.36 143.371 1518.53 Q146.751 1521.7 146.751 1527.12 Q146.751 1532.69 143.278 1535.8 Q139.806 1538.87 133.487 1538.87 Q131.311 1538.87 129.042 1538.5 Q126.797 1538.13 124.39 1537.39 L124.39 1532.69 Q126.473 1533.83 128.695 1534.38 Q130.917 1534.94 133.394 1534.94 Q137.399 1534.94 139.737 1532.83 Q142.075 1530.73 142.075 1527.12 Q142.075 1523.5 139.737 1521.4 Q137.399 1519.29 133.394 1519.29 Q131.519 1519.29 129.644 1519.71 Q127.792 1520.12 125.848 1521 L125.848 1503.64 Z" fill="#000000" fill-rule="evenodd" fill-opacity="1" /><path clip-path="url(#clip690)" d="M79.6214 1119.93 L97.9778 1119.93 L97.9778 1123.87 L83.9038 1123.87 L83.9038 1132.34 Q84.9223 1131.99 85.9408 1131.83 Q86.9593 1131.64 87.9778 1131.64 Q93.7649 1131.64 97.1445 1134.82 Q100.524 1137.99 100.524 1143.4 Q100.524 1148.98 97.0519 1152.08 Q93.5797 1155.16 87.2603 1155.16 Q85.0843 1155.16 82.8158 1154.79 Q80.5705 1154.42 78.1631 1153.68 L78.1631 1148.98 Q80.2464 1150.12 82.4686 1150.67 Q84.6908 1151.23 87.1677 1151.23 Q91.1723 1151.23 93.5102 1149.12 Q95.8482 1147.01 95.8482 1143.4 Q95.8482 1139.79 93.5102 1137.69 Q91.1723 1135.58 87.1677 1135.58 Q85.2927 1135.58 83.4177 1136 Q81.5658 1136.41 79.6214 1137.29 L79.6214 1119.93 Z" fill="#000000" fill-rule="evenodd" fill-opacity="1" /><path clip-path="url(#clip690)" d="M109.737 1148.61 L114.621 1148.61 L114.621 1154.49 L109.737 1154.49 L109.737 1148.61 Z" fill="#000000" fill-rule="evenodd" fill-opacity="1" /><path clip-path="url(#clip690)" d="M134.806 1123.01 Q131.195 1123.01 129.367 1126.57 Q127.561 1130.12 127.561 1137.25 Q127.561 1144.35 129.367 1147.92 Q131.195 1151.46 134.806 1151.46 Q138.441 1151.46 140.246 1147.92 Q142.075 1144.35 142.075 1137.25 Q142.075 1130.12 140.246 1126.57 Q138.441 1123.01 134.806 1123.01 M134.806 1119.31 Q140.616 1119.31 143.672 1123.91 Q146.751 1128.5 146.751 1137.25 Q146.751 1145.97 143.672 1150.58 Q140.616 1155.16 134.806 1155.16 Q128.996 1155.16 125.917 1150.58 Q122.862 1145.97 122.862 1137.25 Q122.862 1128.5 125.917 1123.91 Q128.996 1119.31 134.806 1119.31 Z" fill="#000000" fill-rule="evenodd" fill-opacity="1" /><path clip-path="url(#clip690)" d="M79.3899 736.218 L101.612 736.218 L101.612 738.209 L89.0658 770.778 L84.1816 770.778 L95.9871 740.154 L79.3899 740.154 L79.3899 736.218 Z" fill="#000000" fill-rule="evenodd" fill-opacity="1" /><path clip-path="url(#clip690)" d="M110.732 764.899 L115.617 764.899 L115.617 770.778 L110.732 770.778 L110.732 764.899 Z" fill="#000000" fill-rule="evenodd" fill-opacity="1" /><path clip-path="url(#clip690)" d="M125.848 736.218 L144.204 736.218 L144.204 740.154 L130.13 740.154 L130.13 748.626 Q131.149 748.279 132.167 748.117 Q133.186 747.931 134.204 747.931 Q139.991 747.931 143.371 751.103 Q146.751 754.274 146.751 759.691 Q146.751 765.269 143.278 768.371 Q139.806 771.45 133.487 771.45 Q131.311 771.45 129.042 771.079 Q126.797 770.709 124.39 769.968 L124.39 765.269 Q126.473 766.404 128.695 766.959 Q130.917 767.515 133.394 767.515 Q137.399 767.515 139.737 765.408 Q142.075 763.302 142.075 759.691 Q142.075 756.079 139.737 753.973 Q137.399 751.867 133.394 751.867 Q131.519 751.867 129.644 752.283 Q127.792 752.7 125.848 753.579 L125.848 736.218 Z" fill="#000000" fill-rule="evenodd" fill-opacity="1" /><path clip-path="url(#clip690)" d="M50.2234 383.131 L57.8623 383.131 L57.8623 356.765 L49.5521 358.432 L49.5521 354.173 L57.816 352.506 L62.4919 352.506 L62.4919 383.131 L70.1307 383.131 L70.1307 387.066 L50.2234 387.066 L50.2234 383.131 Z" fill="#000000" fill-rule="evenodd" fill-opacity="1" /><path clip-path="url(#clip690)" d="M89.5751 355.585 Q85.964 355.585 84.1353 359.149 Q82.3297 362.691 82.3297 369.821 Q82.3297 376.927 84.1353 380.492 Q85.964 384.034 89.5751 384.034 Q93.2093 384.034 95.0148 380.492 Q96.8435 376.927 96.8435 369.821 Q96.8435 362.691 95.0148 359.149 Q93.2093 355.585 89.5751 355.585 M89.5751 351.881 Q95.3852 351.881 98.4408 356.487 Q101.519 361.071 101.519 369.821 Q101.519 378.548 98.4408 383.154 Q95.3852 387.737 89.5751 387.737 Q83.7649 387.737 80.6862 383.154 Q77.6307 378.548 77.6307 369.821 Q77.6307 361.071 80.6862 356.487 Q83.7649 351.881 89.5751 351.881 Z" fill="#000000" fill-rule="evenodd" fill-opacity="1" /><path clip-path="url(#clip690)" d="M109.737 381.186 L114.621 381.186 L114.621 387.066 L109.737 387.066 L109.737 381.186 Z" fill="#000000" fill-rule="evenodd" fill-opacity="1" /><path clip-path="url(#clip690)" d="M134.806 355.585 Q131.195 355.585 129.367 359.149 Q127.561 362.691 127.561 369.821 Q127.561 376.927 129.367 380.492 Q131.195 384.034 134.806 384.034 Q138.441 384.034 140.246 380.492 Q142.075 376.927 142.075 369.821 Q142.075 362.691 140.246 359.149 Q138.441 355.585 134.806 355.585 M134.806 351.881 Q140.616 351.881 143.672 356.487 Q146.751 361.071 146.751 369.821 Q146.751 378.548 143.672 383.154 Q140.616 387.737 134.806 387.737 Q128.996 387.737 125.917 383.154 Q122.862 378.548 122.862 369.821 Q122.862 361.071 125.917 356.487 Q128.996 351.881 134.806 351.881 Z" fill="#000000" fill-rule="evenodd" fill-opacity="1" /><polyline clip-path="url(#clip692)" style="stroke:#009af9; stroke-linecap:butt; stroke-linejoin:round; stroke-width:4; stroke-opacity:1; fill:none" points="
  256.515,1751.15 271.585,1749.13 410.935,1727.82 494.678,1712.6 565.482,1698.2 642.394,1680.85 713.301,1663.19 789.321,1642.35 877.397,1615.56 955.668,1589.22 
  1024.31,1564.01 1099.14,1534.13 1174.42,1501.39 1257.65,1461.84 1336.84,1420.71 1419.18,1374.07 1488.49,1331.53 1530.8,1304 1573.11,1275.24 1611.87,1247.78 
  1650.63,1219.2 1686.43,1191.79 1722.23,1163.36 1758.49,1133.51 1794.75,1102.55 1835.39,1066.5 1876.03,1028.97 1912.85,993.639 1949.68,957.007 1991.84,913.416 
  2034.01,868 2073.05,824.263 2112.09,778.848 2150.57,732.375 2189.06,684.158 2226.43,635.619 2263.8,585.325 2302.11,531.884 2340.42,476.475 2382.39,413.427 
  2424.36,347.846 2454.84,298.571 2485.33,247.873 2515.81,195.714 2546.3,142.054 2552.55,130.857 2558.8,119.594 2565.06,108.266 2571.31,96.8724 
  "/>
<polyline clip-path="url(#clip692)" style="stroke:#e26f46; stroke-linecap:butt; stroke-linejoin:round; stroke-width:4; stroke-opacity:1; fill:none" points="
  256.515,1751.15 271.585,1749.15 410.935,1729.36 494.678,1715.26 565.482,1701.98 642.394,1686.07 713.301,1669.88 789.321,1650.52 877.397,1625.84 955.668,1601.56 
  1024.31,1578.48 1099.14,1551.3 1174.42,1521.37 1257.65,1485.09 1336.84,1447.42 1419.18,1404.87 1488.49,1366.25 1530.8,1341.35 1573.11,1315.27 1611.87,1290.21 
  1650.63,1264.83 1686.43,1239.46 1722.23,1214.09 1758.49,1187.01 1794.75,1158.87 1835.39,1126.98 1876.03,1092.49 1912.85,1061.24 1949.68,1027.9 1991.84,988.804 
  2034.01,948.162 2073.05,908.653 2112.09,868.803 2150.57,826.328 2189.06,783.853 2226.43,740.093 2263.8,695.157 2302.11,648.177 2340.42,598.021 2382.39,543.069 
  2424.36,483.708 2485.33,396.025 2546.3,301.57 2558.8,282.192 2571.31,262.815 
  "/>
<path clip-path="url(#clip690)" d="
M2233.9 261.215 L2558.97 261.215 L2558.97 105.695 L2233.9 105.695  Z
  " fill="#ffffff" fill-rule="evenodd" fill-opacity="1"/>
<polyline clip-path="url(#clip690)" style="stroke:#000000; stroke-linecap:butt; stroke-linejoin:round; stroke-width:4; stroke-opacity:1; fill:none" points="
  2233.9,261.215 2558.97,261.215 2558.97,105.695 2233.9,105.695 2233.9,261.215 
  "/>
<polyline clip-path="url(#clip690)" style="stroke:#009af9; stroke-linecap:butt; stroke-linejoin:round; stroke-width:4; stroke-opacity:1; fill:none" points="
  2261.17,157.535 2424.75,157.535 
  "/>
<path clip-path="url(#clip690)" d="M2465.85 177.223 Q2464.05 181.852 2462.33 183.264 Q2460.62 184.676 2457.75 184.676 L2454.35 184.676 L2454.35 181.112 L2456.85 181.112 Q2458.61 181.112 2459.58 180.278 Q2460.55 179.445 2461.73 176.343 L2462.5 174.399 L2452.01 148.889 L2456.52 148.889 L2464.63 169.167 L2472.73 148.889 L2477.24 148.889 L2465.85 177.223 Z" fill="#000000" fill-rule="evenodd" fill-opacity="1" /><path clip-path="url(#clip690)" d="M2484.53 170.88 L2492.17 170.88 L2492.17 144.515 L2483.86 146.181 L2483.86 141.922 L2492.13 140.255 L2496.8 140.255 L2496.8 170.88 L2504.44 170.88 L2504.44 174.815 L2484.53 174.815 L2484.53 170.88 Z" fill="#000000" fill-rule="evenodd" fill-opacity="1" /><polyline clip-path="url(#clip690)" style="stroke:#e26f46; stroke-linecap:butt; stroke-linejoin:round; stroke-width:4; stroke-opacity:1; fill:none" points="
  2261.17,209.375 2424.75,209.375 
  "/>
<path clip-path="url(#clip690)" d="M2465.85 229.063 Q2464.05 233.692 2462.33 235.104 Q2460.62 236.516 2457.75 236.516 L2454.35 236.516 L2454.35 232.952 L2456.85 232.952 Q2458.61 232.952 2459.58 232.118 Q2460.55 231.285 2461.73 228.183 L2462.5 226.239 L2452.01 200.729 L2456.52 200.729 L2464.63 221.007 L2472.73 200.729 L2477.24 200.729 L2465.85 229.063 Z" fill="#000000" fill-rule="evenodd" fill-opacity="1" /><path clip-path="url(#clip690)" d="M2487.75 222.72 L2504.07 222.72 L2504.07 226.655 L2482.13 226.655 L2482.13 222.72 Q2484.79 219.965 2489.37 215.336 Q2493.98 210.683 2495.16 209.341 Q2497.4 206.817 2498.28 205.081 Q2499.19 203.322 2499.19 201.632 Q2499.19 198.878 2497.24 197.142 Q2495.32 195.405 2492.22 195.405 Q2490.02 195.405 2487.57 196.169 Q2485.13 196.933 2482.36 198.484 L2482.36 193.762 Q2485.18 192.628 2487.63 192.049 Q2490.09 191.47 2492.13 191.47 Q2497.5 191.47 2500.69 194.155 Q2503.88 196.841 2503.88 201.331 Q2503.88 203.461 2503.07 205.382 Q2502.29 207.28 2500.18 209.873 Q2499.6 210.544 2496.5 213.762 Q2493.4 216.956 2487.75 222.72 Z" fill="#000000" fill-rule="evenodd" fill-opacity="1" /></svg>
