<?xml version="1.0" encoding="utf-8"?>
<svg xmlns="http://www.w3.org/2000/svg" xmlns:xlink="http://www.w3.org/1999/xlink" width="672" height="480" viewBox="0 0 2688 1920">
<defs>
  <clipPath id="clip500">
    <rect x="0" y="0" width="2688" height="1920"/>
  </clipPath>
</defs>
<path clip-path="url(#clip500)" d="
M0 1920 L2688 1920 L2688 0 L0 0  Z
  " fill="#ffffff" fill-rule="evenodd" fill-opacity="1"/>
<defs>
  <clipPath id="clip501">
    <rect x="537" y="0" width="1883" height="1883"/>
  </clipPath>
</defs>
<defs>
  <clipPath id="clip502">
    <rect x="115" y="47" width="2527" height="1755"/>
  </clipPath>
</defs>
<path clip-path="url(#clip502)" d="
M725.562 1424.98 L725.562 597.84 L1203.11 184.27 L2030.25 423.045 L2030.25 1250.18 L1552.7 1663.75 L725.562 1424.98  Z
  " fill="#ffffff" fill-rule="evenodd" fill-opacity="1"/>
<polyline clip-path="url(#clip502)" style="stroke:#000000; stroke-linecap:round; stroke-linejoin:round; stroke-width:2; stroke-opacity:0.1; fill:none" points="
  711.236,1462.2 1217.44,1023.82 
  "/>
<polyline clip-path="url(#clip502)" style="stroke:#000000; stroke-linecap:round; stroke-linejoin:round; stroke-width:2; stroke-opacity:0.1; fill:none" points="
  1217.44,1023.82 1217.44,147.049 
  "/>
<polyline clip-path="url(#clip502)" style="stroke:#000000; stroke-linecap:round; stroke-linejoin:round; stroke-width:2; stroke-opacity:0.1; fill:none" points="
  918.021,1521.89 1424.22,1083.51 
  "/>
<polyline clip-path="url(#clip502)" style="stroke:#000000; stroke-linecap:round; stroke-linejoin:round; stroke-width:2; stroke-opacity:0.1; fill:none" points="
  1424.22,1083.51 1424.22,206.742 
  "/>
<polyline clip-path="url(#clip502)" style="stroke:#000000; stroke-linecap:round; stroke-linejoin:round; stroke-width:2; stroke-opacity:0.1; fill:none" points="
  1124.81,1581.59 1631.01,1143.2 
  "/>
<polyline clip-path="url(#clip502)" style="stroke:#000000; stroke-linecap:round; stroke-linejoin:round; stroke-width:2; stroke-opacity:0.1; fill:none" points="
  1631.01,1143.2 1631.01,266.436 
  "/>
<polyline clip-path="url(#clip502)" style="stroke:#000000; stroke-linecap:round; stroke-linejoin:round; stroke-width:2; stroke-opacity:0.1; fill:none" points="
  1331.59,1641.28 1837.79,1202.9 
  "/>
<polyline clip-path="url(#clip502)" style="stroke:#000000; stroke-linecap:round; stroke-linejoin:round; stroke-width:2; stroke-opacity:0.1; fill:none" points="
  1837.79,1202.9 1837.79,326.13 
  "/>
<polyline clip-path="url(#clip502)" style="stroke:#000000; stroke-linecap:round; stroke-linejoin:round; stroke-width:2; stroke-opacity:0.1; fill:none" points="
  1538.38,1700.97 2044.58,1262.59 
  "/>
<polyline clip-path="url(#clip502)" style="stroke:#000000; stroke-linecap:round; stroke-linejoin:round; stroke-width:2; stroke-opacity:0.1; fill:none" points="
  2044.58,1262.59 2044.58,385.823 
  "/>
<polyline clip-path="url(#clip500)" style="stroke:#000000; stroke-linecap:round; stroke-linejoin:round; stroke-width:4; stroke-opacity:1; fill:none" points="
  686.422,1455.04 1563.19,1708.14 
  "/>
<polyline clip-path="url(#clip500)" style="stroke:#000000; stroke-linecap:round; stroke-linejoin:round; stroke-width:4; stroke-opacity:1; fill:none" points="
  711.236,1462.2 717.31,1456.94 
  "/>
<polyline clip-path="url(#clip500)" style="stroke:#000000; stroke-linecap:round; stroke-linejoin:round; stroke-width:4; stroke-opacity:1; fill:none" points="
  918.021,1521.89 924.095,1516.63 
  "/>
<polyline clip-path="url(#clip500)" style="stroke:#000000; stroke-linecap:round; stroke-linejoin:round; stroke-width:4; stroke-opacity:1; fill:none" points="
  1124.81,1581.59 1130.88,1576.33 
  "/>
<polyline clip-path="url(#clip500)" style="stroke:#000000; stroke-linecap:round; stroke-linejoin:round; stroke-width:4; stroke-opacity:1; fill:none" points="
  1331.59,1641.28 1337.66,1636.02 
  "/>
<polyline clip-path="url(#clip500)" style="stroke:#000000; stroke-linecap:round; stroke-linejoin:round; stroke-width:4; stroke-opacity:1; fill:none" points="
  1538.38,1700.97 1544.45,1695.71 
  "/>
<path clip-path="url(#clip500)" d="M595.346 1493.64 L625.022 1493.64 L625.022 1497.58 L595.346 1497.58 L595.346 1493.64 Z" fill="#000000" fill-rule="evenodd" fill-opacity="1" /><path clip-path="url(#clip500)" d="M635.924 1506.54 L643.563 1506.54 L643.563 1480.17 L635.253 1481.84 L635.253 1477.58 L643.517 1475.91 L648.193 1475.91 L648.193 1506.54 L655.832 1506.54 L655.832 1510.47 L635.924 1510.47 L635.924 1506.54 Z" fill="#000000" fill-rule="evenodd" fill-opacity="1" /><path clip-path="url(#clip500)" d="M665.276 1504.59 L670.16 1504.59 L670.16 1510.47 L665.276 1510.47 L665.276 1504.59 Z" fill="#000000" fill-rule="evenodd" fill-opacity="1" /><path clip-path="url(#clip500)" d="M690.345 1478.99 Q686.734 1478.99 684.906 1482.55 Q683.1 1486.1 683.1 1493.23 Q683.1 1500.33 684.906 1503.9 Q686.734 1507.44 690.345 1507.44 Q693.98 1507.44 695.785 1503.9 Q697.614 1500.33 697.614 1493.23 Q697.614 1486.1 695.785 1482.55 Q693.98 1478.99 690.345 1478.99 M690.345 1475.29 Q696.155 1475.29 699.211 1479.89 Q702.29 1484.48 702.29 1493.23 Q702.29 1501.95 699.211 1506.56 Q696.155 1511.14 690.345 1511.14 Q684.535 1511.14 681.456 1506.56 Q678.401 1501.95 678.401 1493.23 Q678.401 1484.48 681.456 1479.89 Q684.535 1475.29 690.345 1475.29 Z" fill="#000000" fill-rule="evenodd" fill-opacity="1" /><path clip-path="url(#clip500)" d="M803.126 1553.34 L832.802 1553.34 L832.802 1557.27 L803.126 1557.27 L803.126 1553.34 Z" fill="#000000" fill-rule="evenodd" fill-opacity="1" /><path clip-path="url(#clip500)" d="M852.894 1538.68 Q849.283 1538.68 847.454 1542.25 Q845.649 1545.79 845.649 1552.92 Q845.649 1560.03 847.454 1563.59 Q849.283 1567.13 852.894 1567.13 Q856.529 1567.13 858.334 1563.59 Q860.163 1560.03 860.163 1552.92 Q860.163 1545.79 858.334 1542.25 Q856.529 1538.68 852.894 1538.68 M852.894 1534.98 Q858.704 1534.98 861.76 1539.59 Q864.839 1544.17 864.839 1552.92 Q864.839 1561.65 861.76 1566.25 Q858.704 1570.84 852.894 1570.84 Q847.084 1570.84 844.005 1566.25 Q840.95 1561.65 840.95 1552.92 Q840.95 1544.17 844.005 1539.59 Q847.084 1534.98 852.894 1534.98 Z" fill="#000000" fill-rule="evenodd" fill-opacity="1" /><path clip-path="url(#clip500)" d="M873.056 1564.28 L877.94 1564.28 L877.94 1570.16 L873.056 1570.16 L873.056 1564.28 Z" fill="#000000" fill-rule="evenodd" fill-opacity="1" /><path clip-path="url(#clip500)" d="M888.172 1535.6 L906.528 1535.6 L906.528 1539.54 L892.454 1539.54 L892.454 1548.01 Q893.473 1547.66 894.491 1547.5 Q895.51 1547.32 896.528 1547.32 Q902.315 1547.32 905.695 1550.49 Q909.075 1553.66 909.075 1559.08 Q909.075 1564.66 905.602 1567.76 Q902.13 1570.84 895.811 1570.84 Q893.635 1570.84 891.366 1570.47 Q889.121 1570.09 886.714 1569.35 L886.714 1564.66 Q888.797 1565.79 891.019 1566.34 Q893.241 1566.9 895.718 1566.9 Q899.723 1566.9 902.061 1564.79 Q904.399 1562.69 904.399 1559.08 Q904.399 1555.47 902.061 1553.36 Q899.723 1551.25 895.718 1551.25 Q893.843 1551.25 891.968 1551.67 Q890.116 1552.09 888.172 1552.97 L888.172 1535.6 Z" fill="#000000" fill-rule="evenodd" fill-opacity="1" /><path clip-path="url(#clip500)" d="M1058.68 1598.38 Q1055.07 1598.38 1053.24 1601.94 Q1051.44 1605.48 1051.44 1612.61 Q1051.44 1619.72 1053.24 1623.28 Q1055.07 1626.83 1058.68 1626.83 Q1062.32 1626.83 1064.12 1623.28 Q1065.95 1619.72 1065.95 1612.61 Q1065.95 1605.48 1064.12 1601.94 Q1062.32 1598.38 1058.68 1598.38 M1058.68 1594.67 Q1064.49 1594.67 1067.55 1599.28 Q1070.63 1603.86 1070.63 1612.61 Q1070.63 1621.34 1067.55 1625.95 Q1064.49 1630.53 1058.68 1630.53 Q1052.87 1630.53 1049.79 1625.95 Q1046.74 1621.34 1046.74 1612.61 Q1046.74 1603.86 1049.79 1599.28 Q1052.87 1594.67 1058.68 1594.67 Z" fill="#000000" fill-rule="evenodd" fill-opacity="1" /><path clip-path="url(#clip500)" d="M1078.85 1623.98 L1083.73 1623.98 L1083.73 1629.86 L1078.85 1629.86 L1078.85 1623.98 Z" fill="#000000" fill-rule="evenodd" fill-opacity="1" /><path clip-path="url(#clip500)" d="M1103.91 1598.38 Q1100.3 1598.38 1098.48 1601.94 Q1096.67 1605.48 1096.67 1612.61 Q1096.67 1619.72 1098.48 1623.28 Q1100.3 1626.83 1103.91 1626.83 Q1107.55 1626.83 1109.35 1623.28 Q1111.18 1619.72 1111.18 1612.61 Q1111.18 1605.48 1109.35 1601.94 Q1107.55 1598.38 1103.91 1598.38 M1103.91 1594.67 Q1109.73 1594.67 1112.78 1599.28 Q1115.86 1603.86 1115.86 1612.61 Q1115.86 1621.34 1112.78 1625.95 Q1109.73 1630.53 1103.91 1630.53 Q1098.1 1630.53 1095.03 1625.95 Q1091.97 1621.34 1091.97 1612.61 Q1091.97 1603.86 1095.03 1599.28 Q1098.1 1594.67 1103.91 1594.67 Z" fill="#000000" fill-rule="evenodd" fill-opacity="1" /><path clip-path="url(#clip500)" d="M1266.46 1658.07 Q1262.85 1658.07 1261.02 1661.64 Q1259.22 1665.18 1259.22 1672.31 Q1259.22 1679.41 1261.02 1682.98 Q1262.85 1686.52 1266.46 1686.52 Q1270.1 1686.52 1271.9 1682.98 Q1273.73 1679.41 1273.73 1672.31 Q1273.73 1665.18 1271.9 1661.64 Q1270.1 1658.07 1266.46 1658.07 M1266.46 1654.37 Q1272.27 1654.37 1275.33 1658.97 Q1278.41 1663.56 1278.41 1672.31 Q1278.41 1681.03 1275.33 1685.64 Q1272.27 1690.22 1266.46 1690.22 Q1260.65 1690.22 1257.58 1685.64 Q1254.52 1681.03 1254.52 1672.31 Q1254.52 1663.56 1257.58 1658.97 Q1260.65 1654.37 1266.46 1654.37 Z" fill="#000000" fill-rule="evenodd" fill-opacity="1" /><path clip-path="url(#clip500)" d="M1286.63 1683.67 L1291.51 1683.67 L1291.51 1689.55 L1286.63 1689.55 L1286.63 1683.67 Z" fill="#000000" fill-rule="evenodd" fill-opacity="1" /><path clip-path="url(#clip500)" d="M1301.74 1654.99 L1320.1 1654.99 L1320.1 1658.93 L1306.02 1658.93 L1306.02 1667.4 Q1307.04 1667.05 1308.06 1666.89 Q1309.08 1666.7 1310.1 1666.7 Q1315.88 1666.7 1319.26 1669.88 Q1322.64 1673.05 1322.64 1678.46 Q1322.64 1684.04 1319.17 1687.14 Q1315.7 1690.22 1309.38 1690.22 Q1307.2 1690.22 1304.94 1689.85 Q1302.69 1689.48 1300.28 1688.74 L1300.28 1684.04 Q1302.37 1685.18 1304.59 1685.73 Q1306.81 1686.29 1309.29 1686.29 Q1313.29 1686.29 1315.63 1684.18 Q1317.97 1682.07 1317.97 1678.46 Q1317.97 1674.85 1315.63 1672.75 Q1313.29 1670.64 1309.29 1670.64 Q1307.41 1670.64 1305.54 1671.06 Q1303.69 1671.47 1301.74 1672.35 L1301.74 1654.99 Z" fill="#000000" fill-rule="evenodd" fill-opacity="1" /><path clip-path="url(#clip500)" d="M1463.06 1745.31 L1470.7 1745.31 L1470.7 1718.94 L1462.39 1720.61 L1462.39 1716.35 L1470.66 1714.69 L1475.33 1714.69 L1475.33 1745.31 L1482.97 1745.31 L1482.97 1749.25 L1463.06 1749.25 L1463.06 1745.31 Z" fill="#000000" fill-rule="evenodd" fill-opacity="1" /><path clip-path="url(#clip500)" d="M1492.42 1743.37 L1497.3 1743.37 L1497.3 1749.25 L1492.42 1749.25 L1492.42 1743.37 Z" fill="#000000" fill-rule="evenodd" fill-opacity="1" /><path clip-path="url(#clip500)" d="M1517.48 1717.76 Q1513.87 1717.76 1512.04 1721.33 Q1510.24 1724.87 1510.24 1732 Q1510.24 1739.11 1512.04 1742.67 Q1513.87 1746.21 1517.48 1746.21 Q1521.12 1746.21 1522.92 1742.67 Q1524.75 1739.11 1524.75 1732 Q1524.75 1724.87 1522.92 1721.33 Q1521.12 1717.76 1517.48 1717.76 M1517.48 1714.06 Q1523.29 1714.06 1526.35 1718.67 Q1529.43 1723.25 1529.43 1732 Q1529.43 1740.73 1526.35 1745.33 Q1523.29 1749.92 1517.48 1749.92 Q1511.67 1749.92 1508.6 1745.33 Q1505.54 1740.73 1505.54 1732 Q1505.54 1723.25 1508.6 1718.67 Q1511.67 1714.06 1517.48 1714.06 Z" fill="#000000" fill-rule="evenodd" fill-opacity="1" /><polyline clip-path="url(#clip502)" style="stroke:#000000; stroke-linecap:round; stroke-linejoin:round; stroke-width:2; stroke-opacity:0.1; fill:none" points="
  1577.52,1695.73 700.748,1442.63 
  "/>
<polyline clip-path="url(#clip502)" style="stroke:#000000; stroke-linecap:round; stroke-linejoin:round; stroke-width:2; stroke-opacity:0.1; fill:none" points="
  700.748,1442.63 700.748,565.862 
  "/>
<polyline clip-path="url(#clip502)" style="stroke:#000000; stroke-linecap:round; stroke-linejoin:round; stroke-width:2; stroke-opacity:0.1; fill:none" points="
  1696.9,1592.34 820.135,1339.24 
  "/>
<polyline clip-path="url(#clip502)" style="stroke:#000000; stroke-linecap:round; stroke-linejoin:round; stroke-width:2; stroke-opacity:0.1; fill:none" points="
  820.135,1339.24 820.135,462.47 
  "/>
<polyline clip-path="url(#clip502)" style="stroke:#000000; stroke-linecap:round; stroke-linejoin:round; stroke-width:2; stroke-opacity:0.1; fill:none" points="
  1816.29,1488.95 939.523,1235.84 
  "/>
<polyline clip-path="url(#clip502)" style="stroke:#000000; stroke-linecap:round; stroke-linejoin:round; stroke-width:2; stroke-opacity:0.1; fill:none" points="
  939.523,1235.84 939.523,359.077 
  "/>
<polyline clip-path="url(#clip502)" style="stroke:#000000; stroke-linecap:round; stroke-linejoin:round; stroke-width:2; stroke-opacity:0.1; fill:none" points="
  1935.68,1385.55 1058.91,1132.45 
  "/>
<polyline clip-path="url(#clip502)" style="stroke:#000000; stroke-linecap:round; stroke-linejoin:round; stroke-width:2; stroke-opacity:0.1; fill:none" points="
  1058.91,1132.45 1058.91,255.685 
  "/>
<polyline clip-path="url(#clip502)" style="stroke:#000000; stroke-linecap:round; stroke-linejoin:round; stroke-width:2; stroke-opacity:0.1; fill:none" points="
  2055.06,1282.16 1178.3,1029.06 
  "/>
<polyline clip-path="url(#clip502)" style="stroke:#000000; stroke-linecap:round; stroke-linejoin:round; stroke-width:2; stroke-opacity:0.1; fill:none" points="
  1178.3,1029.06 1178.3,152.293 
  "/>
<polyline clip-path="url(#clip500)" style="stroke:#000000; stroke-linecap:round; stroke-linejoin:round; stroke-width:4; stroke-opacity:1; fill:none" points="
  1563.19,1708.14 2069.39,1269.75 
  "/>
<polyline clip-path="url(#clip500)" style="stroke:#000000; stroke-linecap:round; stroke-linejoin:round; stroke-width:4; stroke-opacity:1; fill:none" points="
  1577.52,1695.73 1566.99,1692.69 
  "/>
<polyline clip-path="url(#clip500)" style="stroke:#000000; stroke-linecap:round; stroke-linejoin:round; stroke-width:4; stroke-opacity:1; fill:none" points="
  1696.9,1592.34 1686.38,1589.3 
  "/>
<polyline clip-path="url(#clip500)" style="stroke:#000000; stroke-linecap:round; stroke-linejoin:round; stroke-width:4; stroke-opacity:1; fill:none" points="
  1816.29,1488.95 1805.77,1485.91 
  "/>
<polyline clip-path="url(#clip500)" style="stroke:#000000; stroke-linecap:round; stroke-linejoin:round; stroke-width:4; stroke-opacity:1; fill:none" points="
  1935.68,1385.55 1925.16,1382.52 
  "/>
<polyline clip-path="url(#clip500)" style="stroke:#000000; stroke-linecap:round; stroke-linejoin:round; stroke-width:4; stroke-opacity:1; fill:none" points="
  2055.06,1282.16 2044.54,1279.12 
  "/>
<path clip-path="url(#clip500)" d="M1598.63 1720.57 L1628.31 1720.57 L1628.31 1724.5 L1598.63 1724.5 L1598.63 1720.57 Z" fill="#000000" fill-rule="evenodd" fill-opacity="1" /><path clip-path="url(#clip500)" d="M1639.21 1733.46 L1646.85 1733.46 L1646.85 1707.09 L1638.54 1708.76 L1638.54 1704.5 L1646.8 1702.83 L1651.48 1702.83 L1651.48 1733.46 L1659.12 1733.46 L1659.12 1737.39 L1639.21 1737.39 L1639.21 1733.46 Z" fill="#000000" fill-rule="evenodd" fill-opacity="1" /><path clip-path="url(#clip500)" d="M1668.56 1731.51 L1673.45 1731.51 L1673.45 1737.39 L1668.56 1737.39 L1668.56 1731.51 Z" fill="#000000" fill-rule="evenodd" fill-opacity="1" /><path clip-path="url(#clip500)" d="M1693.63 1705.91 Q1690.02 1705.91 1688.19 1709.48 Q1686.39 1713.02 1686.39 1720.15 Q1686.39 1727.26 1688.19 1730.82 Q1690.02 1734.36 1693.63 1734.36 Q1697.27 1734.36 1699.07 1730.82 Q1700.9 1727.26 1700.9 1720.15 Q1700.9 1713.02 1699.07 1709.48 Q1697.27 1705.91 1693.63 1705.91 M1693.63 1702.21 Q1699.44 1702.21 1702.5 1706.82 Q1705.58 1711.4 1705.58 1720.15 Q1705.58 1728.88 1702.5 1733.48 Q1699.44 1738.07 1693.63 1738.07 Q1687.82 1738.07 1684.74 1733.48 Q1681.69 1728.88 1681.69 1720.15 Q1681.69 1711.4 1684.74 1706.82 Q1687.82 1702.21 1693.63 1702.21 Z" fill="#000000" fill-rule="evenodd" fill-opacity="1" /><path clip-path="url(#clip500)" d="M1718.02 1617.17 L1747.7 1617.17 L1747.7 1621.11 L1718.02 1621.11 L1718.02 1617.17 Z" fill="#000000" fill-rule="evenodd" fill-opacity="1" /><path clip-path="url(#clip500)" d="M1767.79 1602.52 Q1764.18 1602.52 1762.35 1606.09 Q1760.54 1609.63 1760.54 1616.76 Q1760.54 1623.86 1762.35 1627.43 Q1764.18 1630.97 1767.79 1630.97 Q1771.42 1630.97 1773.23 1627.43 Q1775.06 1623.86 1775.06 1616.76 Q1775.06 1609.63 1773.23 1606.09 Q1771.42 1602.52 1767.79 1602.52 M1767.79 1598.82 Q1773.6 1598.82 1776.65 1603.42 Q1779.73 1608.01 1779.73 1616.76 Q1779.73 1625.48 1776.65 1630.09 Q1773.6 1634.67 1767.79 1634.67 Q1761.98 1634.67 1758.9 1630.09 Q1755.84 1625.48 1755.84 1616.76 Q1755.84 1608.01 1758.9 1603.42 Q1761.98 1598.82 1767.79 1598.82 Z" fill="#000000" fill-rule="evenodd" fill-opacity="1" /><path clip-path="url(#clip500)" d="M1787.95 1628.12 L1792.83 1628.12 L1792.83 1634 L1787.95 1634 L1787.95 1628.12 Z" fill="#000000" fill-rule="evenodd" fill-opacity="1" /><path clip-path="url(#clip500)" d="M1803.07 1599.44 L1821.42 1599.44 L1821.42 1603.38 L1807.35 1603.38 L1807.35 1611.85 Q1808.37 1611.5 1809.38 1611.34 Q1810.4 1611.15 1811.42 1611.15 Q1817.21 1611.15 1820.59 1614.33 Q1823.97 1617.5 1823.97 1622.91 Q1823.97 1628.49 1820.5 1631.59 Q1817.02 1634.67 1810.7 1634.67 Q1808.53 1634.67 1806.26 1634.3 Q1804.01 1633.93 1801.61 1633.19 L1801.61 1628.49 Q1803.69 1629.63 1805.91 1630.18 Q1808.13 1630.74 1810.61 1630.74 Q1814.62 1630.74 1816.95 1628.63 Q1819.29 1626.52 1819.29 1622.91 Q1819.29 1619.3 1816.95 1617.2 Q1814.62 1615.09 1810.61 1615.09 Q1808.74 1615.09 1806.86 1615.51 Q1805.01 1615.92 1803.07 1616.8 L1803.07 1599.44 Z" fill="#000000" fill-rule="evenodd" fill-opacity="1" /><path clip-path="url(#clip500)" d="M1849.35 1499.13 Q1845.74 1499.13 1843.91 1502.69 Q1842.11 1506.23 1842.11 1513.36 Q1842.11 1520.47 1843.91 1524.04 Q1845.74 1527.58 1849.35 1527.58 Q1852.99 1527.58 1854.79 1524.04 Q1856.62 1520.47 1856.62 1513.36 Q1856.62 1506.23 1854.79 1502.69 Q1852.99 1499.13 1849.35 1499.13 M1849.35 1495.42 Q1855.16 1495.42 1858.22 1500.03 Q1861.3 1504.61 1861.3 1513.36 Q1861.3 1522.09 1858.22 1526.7 Q1855.16 1531.28 1849.35 1531.28 Q1843.54 1531.28 1840.46 1526.7 Q1837.41 1522.09 1837.41 1513.36 Q1837.41 1504.61 1840.46 1500.03 Q1843.54 1495.42 1849.35 1495.42 Z" fill="#000000" fill-rule="evenodd" fill-opacity="1" /><path clip-path="url(#clip500)" d="M1869.51 1524.73 L1874.4 1524.73 L1874.4 1530.61 L1869.51 1530.61 L1869.51 1524.73 Z" fill="#000000" fill-rule="evenodd" fill-opacity="1" /><path clip-path="url(#clip500)" d="M1894.58 1499.13 Q1890.97 1499.13 1889.14 1502.69 Q1887.34 1506.23 1887.34 1513.36 Q1887.34 1520.47 1889.14 1524.04 Q1890.97 1527.58 1894.58 1527.58 Q1898.22 1527.58 1900.02 1524.04 Q1901.85 1520.47 1901.85 1513.36 Q1901.85 1506.23 1900.02 1502.69 Q1898.22 1499.13 1894.58 1499.13 M1894.58 1495.42 Q1900.39 1495.42 1903.45 1500.03 Q1906.53 1504.61 1906.53 1513.36 Q1906.53 1522.09 1903.45 1526.7 Q1900.39 1531.28 1894.58 1531.28 Q1888.77 1531.28 1885.69 1526.7 Q1882.64 1522.09 1882.64 1513.36 Q1882.64 1504.61 1885.69 1500.03 Q1888.77 1495.42 1894.58 1495.42 Z" fill="#000000" fill-rule="evenodd" fill-opacity="1" /><path clip-path="url(#clip500)" d="M1968.74 1395.74 Q1965.13 1395.74 1963.3 1399.3 Q1961.49 1402.84 1961.49 1409.97 Q1961.49 1417.08 1963.3 1420.64 Q1965.13 1424.18 1968.74 1424.18 Q1972.37 1424.18 1974.18 1420.64 Q1976.01 1417.08 1976.01 1409.97 Q1976.01 1402.84 1974.18 1399.3 Q1972.37 1395.74 1968.74 1395.74 M1968.74 1392.03 Q1974.55 1392.03 1977.6 1396.64 Q1980.68 1401.22 1980.68 1409.97 Q1980.68 1418.7 1977.6 1423.3 Q1974.55 1427.89 1968.74 1427.89 Q1962.93 1427.89 1959.85 1423.3 Q1956.79 1418.7 1956.79 1409.97 Q1956.79 1401.22 1959.85 1396.64 Q1962.93 1392.03 1968.74 1392.03 Z" fill="#000000" fill-rule="evenodd" fill-opacity="1" /><path clip-path="url(#clip500)" d="M1988.9 1421.34 L1993.78 1421.34 L1993.78 1427.22 L1988.9 1427.22 L1988.9 1421.34 Z" fill="#000000" fill-rule="evenodd" fill-opacity="1" /><path clip-path="url(#clip500)" d="M2004.02 1392.66 L2022.37 1392.66 L2022.37 1396.59 L2008.3 1396.59 L2008.3 1405.06 Q2009.32 1404.72 2010.34 1404.55 Q2011.35 1404.37 2012.37 1404.37 Q2018.16 1404.37 2021.54 1407.54 Q2024.92 1410.71 2024.92 1416.13 Q2024.92 1421.71 2021.45 1424.81 Q2017.97 1427.89 2011.65 1427.89 Q2009.48 1427.89 2007.21 1427.52 Q2004.97 1427.15 2002.56 1426.41 L2002.56 1421.71 Q2004.64 1422.84 2006.86 1423.4 Q2009.09 1423.95 2011.56 1423.95 Q2015.57 1423.95 2017.9 1421.85 Q2020.24 1419.74 2020.24 1416.13 Q2020.24 1412.52 2017.9 1410.41 Q2015.57 1408.3 2011.56 1408.3 Q2009.69 1408.3 2007.81 1408.72 Q2005.96 1409.14 2004.02 1410.02 L2004.02 1392.66 Z" fill="#000000" fill-rule="evenodd" fill-opacity="1" /><path clip-path="url(#clip500)" d="M2076.85 1319.89 L2084.49 1319.89 L2084.49 1293.52 L2076.18 1295.19 L2076.18 1290.93 L2084.45 1289.26 L2089.12 1289.26 L2089.12 1319.89 L2096.76 1319.89 L2096.76 1323.82 L2076.85 1323.82 L2076.85 1319.89 Z" fill="#000000" fill-rule="evenodd" fill-opacity="1" /><path clip-path="url(#clip500)" d="M2106.2 1317.94 L2111.09 1317.94 L2111.09 1323.82 L2106.2 1323.82 L2106.2 1317.94 Z" fill="#000000" fill-rule="evenodd" fill-opacity="1" /><path clip-path="url(#clip500)" d="M2131.27 1292.34 Q2127.66 1292.34 2125.83 1295.91 Q2124.03 1299.45 2124.03 1306.58 Q2124.03 1313.69 2125.83 1317.25 Q2127.66 1320.79 2131.27 1320.79 Q2134.91 1320.79 2136.71 1317.25 Q2138.54 1313.69 2138.54 1306.58 Q2138.54 1299.45 2136.71 1295.91 Q2134.91 1292.34 2131.27 1292.34 M2131.27 1288.64 Q2137.08 1288.64 2140.14 1293.25 Q2143.22 1297.83 2143.22 1306.58 Q2143.22 1315.31 2140.14 1319.91 Q2137.08 1324.5 2131.27 1324.5 Q2125.46 1324.5 2122.38 1319.91 Q2119.33 1315.31 2119.33 1306.58 Q2119.33 1297.83 2122.38 1293.25 Q2125.46 1288.64 2131.27 1288.64 Z" fill="#000000" fill-rule="evenodd" fill-opacity="1" /><polyline clip-path="url(#clip502)" style="stroke:#000000; stroke-linecap:round; stroke-linejoin:round; stroke-width:2; stroke-opacity:0.1; fill:none" points="
  686.422,1430.22 1192.62,991.839 
  "/>
<polyline clip-path="url(#clip502)" style="stroke:#000000; stroke-linecap:round; stroke-linejoin:round; stroke-width:2; stroke-opacity:0.1; fill:none" points="
  1192.62,991.839 2069.39,1244.94 
  "/>
<polyline clip-path="url(#clip502)" style="stroke:#000000; stroke-linecap:round; stroke-linejoin:round; stroke-width:2; stroke-opacity:0.1; fill:none" points="
  686.422,1264.79 1192.62,826.411 
  "/>
<polyline clip-path="url(#clip502)" style="stroke:#000000; stroke-linecap:round; stroke-linejoin:round; stroke-width:2; stroke-opacity:0.1; fill:none" points="
  1192.62,826.411 2069.39,1079.51 
  "/>
<polyline clip-path="url(#clip502)" style="stroke:#000000; stroke-linecap:round; stroke-linejoin:round; stroke-width:2; stroke-opacity:0.1; fill:none" points="
  686.422,1099.37 1192.62,660.983 
  "/>
<polyline clip-path="url(#clip502)" style="stroke:#000000; stroke-linecap:round; stroke-linejoin:round; stroke-width:2; stroke-opacity:0.1; fill:none" points="
  1192.62,660.983 2069.39,914.084 
  "/>
<polyline clip-path="url(#clip502)" style="stroke:#000000; stroke-linecap:round; stroke-linejoin:round; stroke-width:2; stroke-opacity:0.1; fill:none" points="
  686.422,933.939 1192.62,495.555 
  "/>
<polyline clip-path="url(#clip502)" style="stroke:#000000; stroke-linecap:round; stroke-linejoin:round; stroke-width:2; stroke-opacity:0.1; fill:none" points="
  1192.62,495.555 2069.39,748.656 
  "/>
<polyline clip-path="url(#clip502)" style="stroke:#000000; stroke-linecap:round; stroke-linejoin:round; stroke-width:2; stroke-opacity:0.1; fill:none" points="
  686.422,768.511 1192.62,330.128 
  "/>
<polyline clip-path="url(#clip502)" style="stroke:#000000; stroke-linecap:round; stroke-linejoin:round; stroke-width:2; stroke-opacity:0.1; fill:none" points="
  1192.62,330.128 2069.39,583.229 
  "/>
<polyline clip-path="url(#clip502)" style="stroke:#000000; stroke-linecap:round; stroke-linejoin:round; stroke-width:2; stroke-opacity:0.1; fill:none" points="
  686.422,603.083 1192.62,164.7 
  "/>
<polyline clip-path="url(#clip502)" style="stroke:#000000; stroke-linecap:round; stroke-linejoin:round; stroke-width:2; stroke-opacity:0.1; fill:none" points="
  1192.62,164.7 2069.39,417.801 
  "/>
<polyline clip-path="url(#clip500)" style="stroke:#000000; stroke-linecap:round; stroke-linejoin:round; stroke-width:4; stroke-opacity:1; fill:none" points="
  686.422,1455.04 686.422,578.269 
  "/>
<polyline clip-path="url(#clip500)" style="stroke:#000000; stroke-linecap:round; stroke-linejoin:round; stroke-width:4; stroke-opacity:1; fill:none" points="
  686.422,1430.22 692.496,1424.96 
  "/>
<polyline clip-path="url(#clip500)" style="stroke:#000000; stroke-linecap:round; stroke-linejoin:round; stroke-width:4; stroke-opacity:1; fill:none" points="
  686.422,1264.79 692.496,1259.53 
  "/>
<polyline clip-path="url(#clip500)" style="stroke:#000000; stroke-linecap:round; stroke-linejoin:round; stroke-width:4; stroke-opacity:1; fill:none" points="
  686.422,1099.37 692.496,1094.11 
  "/>
<polyline clip-path="url(#clip500)" style="stroke:#000000; stroke-linecap:round; stroke-linejoin:round; stroke-width:4; stroke-opacity:1; fill:none" points="
  686.422,933.939 692.496,928.679 
  "/>
<polyline clip-path="url(#clip500)" style="stroke:#000000; stroke-linecap:round; stroke-linejoin:round; stroke-width:4; stroke-opacity:1; fill:none" points="
  686.422,768.511 692.496,763.251 
  "/>
<polyline clip-path="url(#clip500)" style="stroke:#000000; stroke-linecap:round; stroke-linejoin:round; stroke-width:4; stroke-opacity:1; fill:none" points="
  686.422,603.083 692.496,597.823 
  "/>
<path clip-path="url(#clip500)" d="M642.221 1416.02 Q638.61 1416.02 636.782 1419.59 Q634.976 1423.13 634.976 1430.26 Q634.976 1437.36 636.782 1440.93 Q638.61 1444.47 642.221 1444.47 Q645.856 1444.47 647.661 1440.93 Q649.49 1437.36 649.49 1430.26 Q649.49 1423.13 647.661 1419.59 Q645.856 1416.02 642.221 1416.02 M642.221 1412.32 Q648.032 1412.32 651.087 1416.92 Q654.166 1421.51 654.166 1430.26 Q654.166 1438.98 651.087 1443.59 Q648.032 1448.17 642.221 1448.17 Q636.411 1448.17 633.333 1443.59 Q630.277 1438.98 630.277 1430.26 Q630.277 1421.51 633.333 1416.92 Q636.411 1412.32 642.221 1412.32 Z" fill="#000000" fill-rule="evenodd" fill-opacity="1" /><path clip-path="url(#clip500)" d="M634.258 1278.14 L641.897 1278.14 L641.897 1251.77 L633.587 1253.44 L633.587 1249.18 L641.851 1247.51 L646.527 1247.51 L646.527 1278.14 L654.166 1278.14 L654.166 1282.07 L634.258 1282.07 L634.258 1278.14 Z" fill="#000000" fill-rule="evenodd" fill-opacity="1" /><path clip-path="url(#clip500)" d="M637.846 1112.71 L654.166 1112.71 L654.166 1116.65 L632.221 1116.65 L632.221 1112.71 Q634.883 1109.96 639.467 1105.33 Q644.073 1100.67 645.254 1099.33 Q647.499 1096.81 648.379 1095.07 Q649.281 1093.31 649.281 1091.62 Q649.281 1088.87 647.337 1087.13 Q645.416 1085.4 642.314 1085.4 Q640.115 1085.4 637.661 1086.16 Q635.231 1086.92 632.453 1088.48 L632.453 1083.75 Q635.277 1082.62 637.731 1082.04 Q640.184 1081.46 642.221 1081.46 Q647.592 1081.46 650.786 1084.15 Q653.981 1086.83 653.981 1091.32 Q653.981 1093.45 653.17 1095.37 Q652.383 1097.27 650.277 1099.86 Q649.698 1100.54 646.596 1103.75 Q643.494 1106.95 637.846 1112.71 Z" fill="#000000" fill-rule="evenodd" fill-opacity="1" /><path clip-path="url(#clip500)" d="M647.036 932.585 Q650.393 933.303 652.268 935.571 Q654.166 937.84 654.166 941.173 Q654.166 946.289 650.647 949.09 Q647.129 951.89 640.647 951.89 Q638.471 951.89 636.157 951.451 Q633.865 951.034 631.411 950.178 L631.411 945.664 Q633.356 946.798 635.67 947.377 Q637.985 947.955 640.508 947.955 Q644.907 947.955 647.198 946.219 Q649.513 944.483 649.513 941.173 Q649.513 938.117 647.36 936.404 Q645.231 934.668 641.411 934.668 L637.383 934.668 L637.383 930.826 L641.596 930.826 Q645.045 930.826 646.874 929.46 Q648.703 928.071 648.703 925.479 Q648.703 922.817 646.805 921.405 Q644.93 919.969 641.411 919.969 Q639.49 919.969 637.291 920.386 Q635.092 920.803 632.453 921.682 L632.453 917.516 Q635.115 916.775 637.43 916.405 Q639.768 916.034 641.828 916.034 Q647.152 916.034 650.254 918.465 Q653.356 920.872 653.356 924.992 Q653.356 927.863 651.712 929.854 Q650.069 931.821 647.036 932.585 Z" fill="#000000" fill-rule="evenodd" fill-opacity="1" /><path clip-path="url(#clip500)" d="M644.582 755.305 L632.777 773.754 L644.582 773.754 L644.582 755.305 M643.356 751.231 L649.235 751.231 L649.235 773.754 L654.166 773.754 L654.166 777.643 L649.235 777.643 L649.235 785.791 L644.582 785.791 L644.582 777.643 L628.981 777.643 L628.981 773.129 L643.356 751.231 Z" fill="#000000" fill-rule="evenodd" fill-opacity="1" /><path clip-path="url(#clip500)" d="M633.263 585.803 L651.619 585.803 L651.619 589.739 L637.545 589.739 L637.545 598.211 Q638.564 597.864 639.582 597.702 Q640.601 597.516 641.62 597.516 Q647.407 597.516 650.786 600.688 Q654.166 603.859 654.166 609.276 Q654.166 614.854 650.694 617.956 Q647.221 621.035 640.902 621.035 Q638.726 621.035 636.457 620.664 Q634.212 620.294 631.805 619.553 L631.805 614.854 Q633.888 615.988 636.11 616.544 Q638.332 617.1 640.809 617.1 Q644.814 617.1 647.152 614.993 Q649.49 612.887 649.49 609.276 Q649.49 605.664 647.152 603.558 Q644.814 601.452 640.809 601.452 Q638.934 601.452 637.059 601.868 Q635.208 602.285 633.263 603.164 L633.263 585.803 Z" fill="#000000" fill-rule="evenodd" fill-opacity="1" /><polyline clip-path="url(#clip502)" style="stroke:#009af9; stroke-linecap:round; stroke-linejoin:round; stroke-width:4; stroke-opacity:1; fill:none" points="
  1791.48,1456.97 1789.04,1456.2 1782.06,1453.69 1771.08,1449.21 1756.75,1442.58 1739.82,1433.68 1721.07,1422.49 1701.31,1409.05 1681.32,1393.48 1661.86,1375.98 
  1643.63,1356.82 1627.23,1336.33 1613.15,1314.89 1601.74,1292.9 1593.23,1270.83 1587.68,1249.12 1585.01,1228.21 1585,1208.54 1587.27,1190.5 1591.35,1174.44 
  1596.64,1160.66 1602.47,1149.36 1608.13,1140.7 1612.86,1134.76 1615.92,1131.51 1616.59,1130.87 1614.23,1132.68 1608.27,1136.7 1598.26,1142.64 1583.88,1150.17 
  1564.94,1158.9 1541.42,1168.44 1513.44,1178.38 1481.3,1188.35 1445.42,1197.95 1406.37,1206.86 1364.83,1214.79 1321.59,1221.52 1277.5,1226.87 1233.44,1230.75 
  1190.34,1233.16 1149.06,1234.15 1110.47,1233.85 1075.32,1232.46 1044.29,1230.24 1017.93,1227.5 996.632,1224.57 980.668,1221.82 970.135,1219.63 964.969,1218.37 
  964.954,1218.38 969.724,1219.99 978.785,1223.45 991.525,1228.99 1007.25,1236.75 1025.19,1246.79 1044.55,1259.12 1064.52,1273.64 1084.34,1290.21 1103.26,1308.57 
  1120.64,1328.44 1135.94,1349.46 1148.72,1371.23 1158.7,1393.31 1165.73,1415.26 1169.82,1436.63 1171.12,1456.97 1169.94,1475.87 1166.7,1492.96 1161.93,1507.91 
  1156.28,1520.48 1150.44,1530.47 1145.16,1537.77 1141.17,1542.36 1139.22,1544.29 1139.99,1543.68 1144.08,1540.73 1152.02,1535.71 1164.18,1528.93 1180.83,1520.76 
  1202.06,1511.57 1227.84,1501.78 1257.94,1491.77 1292.02,1481.95 1329.57,1472.65 1369.95,1464.2 1412.44,1456.84 1456.22,1450.79 1500.41,1446.17 1544.1,1443.02 
  1586.4,1441.34 1626.43,1441.01 1663.39,1441.88 1696.56,1443.72 1725.32,1446.25 1749.19,1449.13 1767.84,1452.01 1781.09,1454.53 1788.92,1456.3 1791.48,1456.97 
  
  "/>
<polyline clip-path="url(#clip502)" style="stroke:#ff0000; stroke-linecap:round; stroke-linejoin:round; stroke-width:4; stroke-opacity:1; fill:none" points="
  1377.91,510.442 1791.48,1456.97 
  "/>
<polyline clip-path="url(#clip502)" style="stroke:#ff0000; stroke-linecap:round; stroke-linejoin:round; stroke-width:4; stroke-opacity:1; fill:none" points="
  1377.91,510.442 1754.76,1441.59 
  "/>
<polyline clip-path="url(#clip502)" style="stroke:#ff0000; stroke-linecap:round; stroke-linejoin:round; stroke-width:4; stroke-opacity:1; fill:none" points="
  1377.91,510.442 1676.37,1389.28 
  "/>
<polyline clip-path="url(#clip502)" style="stroke:#ff0000; stroke-linecap:round; stroke-linejoin:round; stroke-width:4; stroke-opacity:1; fill:none" points="
  1377.91,510.442 1608.55,1306.68 
  "/>
<polyline clip-path="url(#clip502)" style="stroke:#ff0000; stroke-linecap:round; stroke-linejoin:round; stroke-width:4; stroke-opacity:1; fill:none" points="
  1377.91,510.442 1584.69,1218.19 
  "/>
<polyline clip-path="url(#clip502)" style="stroke:#ff0000; stroke-linecap:round; stroke-linejoin:round; stroke-width:4; stroke-opacity:1; fill:none" points="
  1377.91,510.442 1600.27,1153.29 
  "/>
<polyline clip-path="url(#clip502)" style="stroke:#ff0000; stroke-linecap:round; stroke-linejoin:round; stroke-width:4; stroke-opacity:1; fill:none" points="
  1377.91,510.442 1616.68,1130.8 
  "/>
<polyline clip-path="url(#clip502)" style="stroke:#ff0000; stroke-linecap:round; stroke-linejoin:round; stroke-width:4; stroke-opacity:1; fill:none" points="
  1377.91,510.442 1585.92,1149.15 
  "/>
<polyline clip-path="url(#clip502)" style="stroke:#ff0000; stroke-linecap:round; stroke-linejoin:round; stroke-width:4; stroke-opacity:1; fill:none" points="
  1377.91,510.442 1481.3,1188.35 
  "/>
<polyline clip-path="url(#clip502)" style="stroke:#ff0000; stroke-linecap:round; stroke-linejoin:round; stroke-width:4; stroke-opacity:1; fill:none" points="
  1377.91,510.442 1316.11,1222.26 
  "/>
<polyline clip-path="url(#clip502)" style="stroke:#ff0000; stroke-linecap:round; stroke-linejoin:round; stroke-width:4; stroke-opacity:1; fill:none" points="
  1377.91,510.442 1139.13,1234.19 
  "/>
<polyline clip-path="url(#clip502)" style="stroke:#ff0000; stroke-linecap:round; stroke-linejoin:round; stroke-width:4; stroke-opacity:1; fill:none" points="
  1377.91,510.442 1009.33,1226.4 
  "/>
<polyline clip-path="url(#clip502)" style="stroke:#ff0000; stroke-linecap:round; stroke-linejoin:round; stroke-width:4; stroke-opacity:1; fill:none" points="
  1377.91,510.442 964.337,1218.19 
  "/>
<polyline clip-path="url(#clip502)" style="stroke:#ff0000; stroke-linecap:round; stroke-linejoin:round; stroke-width:4; stroke-opacity:1; fill:none" points="
  1377.91,510.442 1001.05,1233.57 
  "/>
<polyline clip-path="url(#clip502)" style="stroke:#ff0000; stroke-linecap:round; stroke-linejoin:round; stroke-width:4; stroke-opacity:1; fill:none" points="
  1377.91,510.442 1079.44,1285.89 
  "/>
<polyline clip-path="url(#clip502)" style="stroke:#ff0000; stroke-linecap:round; stroke-linejoin:round; stroke-width:4; stroke-opacity:1; fill:none" points="
  1377.91,510.442 1147.27,1368.48 
  "/>
<polyline clip-path="url(#clip502)" style="stroke:#ff0000; stroke-linecap:round; stroke-linejoin:round; stroke-width:4; stroke-opacity:1; fill:none" points="
  1377.91,510.442 1171.12,1456.97 
  "/>
<polyline clip-path="url(#clip502)" style="stroke:#ff0000; stroke-linecap:round; stroke-linejoin:round; stroke-width:4; stroke-opacity:1; fill:none" points="
  1377.91,510.442 1155.55,1521.87 
  "/>
<polyline clip-path="url(#clip502)" style="stroke:#ff0000; stroke-linecap:round; stroke-linejoin:round; stroke-width:4; stroke-opacity:1; fill:none" points="
  1377.91,510.442 1139.13,1544.37 
  "/>
<polyline clip-path="url(#clip502)" style="stroke:#ff0000; stroke-linecap:round; stroke-linejoin:round; stroke-width:4; stroke-opacity:1; fill:none" points="
  1377.91,510.442 1169.89,1526.01 
  "/>
<polyline clip-path="url(#clip502)" style="stroke:#ff0000; stroke-linecap:round; stroke-linejoin:round; stroke-width:4; stroke-opacity:1; fill:none" points="
  1377.91,510.442 1274.51,1486.82 
  "/>
<polyline clip-path="url(#clip502)" style="stroke:#ff0000; stroke-linecap:round; stroke-linejoin:round; stroke-width:4; stroke-opacity:1; fill:none" points="
  1377.91,510.442 1439.71,1452.9 
  "/>
<polyline clip-path="url(#clip502)" style="stroke:#ff0000; stroke-linecap:round; stroke-linejoin:round; stroke-width:4; stroke-opacity:1; fill:none" points="
  1377.91,510.442 1616.68,1440.97 
  "/>
<polyline clip-path="url(#clip502)" style="stroke:#ff0000; stroke-linecap:round; stroke-linejoin:round; stroke-width:4; stroke-opacity:1; fill:none" points="
  1377.91,510.442 1746.48,1448.76 
  "/>
<polyline clip-path="url(#clip502)" style="stroke:#ff0000; stroke-linecap:round; stroke-linejoin:round; stroke-width:4; stroke-opacity:1; fill:none" points="
  1377.91,510.442 1791.48,1456.97 
  "/>
</svg>
