<?xml version="1.0" encoding="utf-8"?>
<svg xmlns="http://www.w3.org/2000/svg" xmlns:xlink="http://www.w3.org/1999/xlink" width="672" height="480" viewBox="0 0 2688 1920">
<defs>
  <clipPath id="clip710">
    <rect x="0" y="0" width="2688" height="1920"/>
  </clipPath>
</defs>
<path clip-path="url(#clip710)" d="
M0 1920 L2688 1920 L2688 0 L0 0  Z
  " fill="#ffffff" fill-rule="evenodd" fill-opacity="1"/>
<defs>
  <clipPath id="clip711">
    <rect x="537" y="0" width="1883" height="1883"/>
  </clipPath>
</defs>
<path clip-path="url(#clip710)" d="
M144.733 1800.78 L2640.76 1800.78 L2640.76 47.2441 L144.733 47.2441  Z
  " fill="#ffffff" fill-rule="evenodd" fill-opacity="1"/>
<defs>
  <clipPath id="clip712">
    <rect x="144" y="47" width="2497" height="1755"/>
  </clipPath>
</defs>
<polyline clip-path="url(#clip712)" style="stroke:#000000; stroke-linecap:butt; stroke-linejoin:round; stroke-width:2; stroke-opacity:0.1; fill:none" points="
  215.375,1800.78 215.375,47.2441 
  "/>
<polyline clip-path="url(#clip712)" style="stroke:#000000; stroke-linecap:butt; stroke-linejoin:round; stroke-width:2; stroke-opacity:0.1; fill:none" points="
  804.06,1800.78 804.06,47.2441 
  "/>
<polyline clip-path="url(#clip712)" style="stroke:#000000; stroke-linecap:butt; stroke-linejoin:round; stroke-width:2; stroke-opacity:0.1; fill:none" points="
  1392.74,1800.78 1392.74,47.2441 
  "/>
<polyline clip-path="url(#clip712)" style="stroke:#000000; stroke-linecap:butt; stroke-linejoin:round; stroke-width:2; stroke-opacity:0.1; fill:none" points="
  1981.43,1800.78 1981.43,47.2441 
  "/>
<polyline clip-path="url(#clip712)" style="stroke:#000000; stroke-linecap:butt; stroke-linejoin:round; stroke-width:2; stroke-opacity:0.1; fill:none" points="
  2570.11,1800.78 2570.11,47.2441 
  "/>
<polyline clip-path="url(#clip710)" style="stroke:#000000; stroke-linecap:butt; stroke-linejoin:round; stroke-width:4; stroke-opacity:1; fill:none" points="
  144.733,1800.78 2640.76,1800.78 
  "/>
<polyline clip-path="url(#clip710)" style="stroke:#000000; stroke-linecap:butt; stroke-linejoin:round; stroke-width:4; stroke-opacity:1; fill:none" points="
  215.375,1800.78 215.375,1781.88 
  "/>
<polyline clip-path="url(#clip710)" style="stroke:#000000; stroke-linecap:butt; stroke-linejoin:round; stroke-width:4; stroke-opacity:1; fill:none" points="
  804.06,1800.78 804.06,1781.88 
  "/>
<polyline clip-path="url(#clip710)" style="stroke:#000000; stroke-linecap:butt; stroke-linejoin:round; stroke-width:4; stroke-opacity:1; fill:none" points="
  1392.74,1800.78 1392.74,1781.88 
  "/>
<polyline clip-path="url(#clip710)" style="stroke:#000000; stroke-linecap:butt; stroke-linejoin:round; stroke-width:4; stroke-opacity:1; fill:none" points="
  1981.43,1800.78 1981.43,1781.88 
  "/>
<polyline clip-path="url(#clip710)" style="stroke:#000000; stroke-linecap:butt; stroke-linejoin:round; stroke-width:4; stroke-opacity:1; fill:none" points="
  2570.11,1800.78 2570.11,1781.88 
  "/>
<path clip-path="url(#clip710)" d="M192.759 1834 Q189.148 1834 187.32 1837.57 Q185.514 1841.11 185.514 1848.24 Q185.514 1855.34 187.32 1858.91 Q189.148 1862.45 192.759 1862.45 Q196.394 1862.45 198.199 1858.91 Q200.028 1855.34 200.028 1848.24 Q200.028 1841.11 198.199 1837.57 Q196.394 1834 192.759 1834 M192.759 1830.3 Q198.57 1830.3 201.625 1834.9 Q204.704 1839.49 204.704 1848.24 Q204.704 1856.96 201.625 1861.57 Q198.57 1866.15 192.759 1866.15 Q186.949 1866.15 183.871 1861.57 Q180.815 1856.96 180.815 1848.24 Q180.815 1839.49 183.871 1834.9 Q186.949 1830.3 192.759 1830.3 Z" fill="#000000" fill-rule="evenodd" fill-opacity="1" /><path clip-path="url(#clip710)" d="M212.921 1859.6 L217.806 1859.6 L217.806 1865.48 L212.921 1865.48 L212.921 1859.6 Z" fill="#000000" fill-rule="evenodd" fill-opacity="1" /><path clip-path="url(#clip710)" d="M237.991 1834 Q234.38 1834 232.551 1837.57 Q230.745 1841.11 230.745 1848.24 Q230.745 1855.34 232.551 1858.91 Q234.38 1862.45 237.991 1862.45 Q241.625 1862.45 243.431 1858.91 Q245.259 1855.34 245.259 1848.24 Q245.259 1841.11 243.431 1837.57 Q241.625 1834 237.991 1834 M237.991 1830.3 Q243.801 1830.3 246.856 1834.9 Q249.935 1839.49 249.935 1848.24 Q249.935 1856.96 246.856 1861.57 Q243.801 1866.15 237.991 1866.15 Q232.181 1866.15 229.102 1861.57 Q226.046 1856.96 226.046 1848.24 Q226.046 1839.49 229.102 1834.9 Q232.181 1830.3 237.991 1830.3 Z" fill="#000000" fill-rule="evenodd" fill-opacity="1" /><path clip-path="url(#clip710)" d="M781.942 1834 Q778.331 1834 776.502 1837.57 Q774.696 1841.11 774.696 1848.24 Q774.696 1855.34 776.502 1858.91 Q778.331 1862.45 781.942 1862.45 Q785.576 1862.45 787.382 1858.91 Q789.21 1855.34 789.21 1848.24 Q789.21 1841.11 787.382 1837.57 Q785.576 1834 781.942 1834 M781.942 1830.3 Q787.752 1830.3 790.808 1834.9 Q793.886 1839.49 793.886 1848.24 Q793.886 1856.96 790.808 1861.57 Q787.752 1866.15 781.942 1866.15 Q776.132 1866.15 773.053 1861.57 Q769.997 1856.96 769.997 1848.24 Q769.997 1839.49 773.053 1834.9 Q776.132 1830.3 781.942 1830.3 Z" fill="#000000" fill-rule="evenodd" fill-opacity="1" /><path clip-path="url(#clip710)" d="M802.104 1859.6 L806.988 1859.6 L806.988 1865.48 L802.104 1865.48 L802.104 1859.6 Z" fill="#000000" fill-rule="evenodd" fill-opacity="1" /><path clip-path="url(#clip710)" d="M817.219 1830.92 L835.576 1830.92 L835.576 1834.86 L821.502 1834.86 L821.502 1843.33 Q822.52 1842.98 823.539 1842.82 Q824.557 1842.64 825.576 1842.64 Q831.363 1842.64 834.742 1845.81 Q838.122 1848.98 838.122 1854.4 Q838.122 1859.97 834.65 1863.08 Q831.178 1866.15 824.858 1866.15 Q822.682 1866.15 820.414 1865.78 Q818.168 1865.41 815.761 1864.67 L815.761 1859.97 Q817.844 1861.11 820.067 1861.66 Q822.289 1862.22 824.766 1862.22 Q828.77 1862.22 831.108 1860.11 Q833.446 1858.01 833.446 1854.4 Q833.446 1850.78 831.108 1848.68 Q828.77 1846.57 824.766 1846.57 Q822.891 1846.57 821.016 1846.99 Q819.164 1847.4 817.219 1848.28 L817.219 1830.92 Z" fill="#000000" fill-rule="evenodd" fill-opacity="1" /><path clip-path="url(#clip710)" d="M1359.9 1861.55 L1367.54 1861.55 L1367.54 1835.18 L1359.23 1836.85 L1359.23 1832.59 L1367.49 1830.92 L1372.17 1830.92 L1372.17 1861.55 L1379.8 1861.55 L1379.8 1865.48 L1359.9 1865.48 L1359.9 1861.55 Z" fill="#000000" fill-rule="evenodd" fill-opacity="1" /><path clip-path="url(#clip710)" d="M1389.25 1859.6 L1394.13 1859.6 L1394.13 1865.48 L1389.25 1865.48 L1389.25 1859.6 Z" fill="#000000" fill-rule="evenodd" fill-opacity="1" /><path clip-path="url(#clip710)" d="M1414.32 1834 Q1410.71 1834 1408.88 1837.57 Q1407.07 1841.11 1407.07 1848.24 Q1407.07 1855.34 1408.88 1858.91 Q1410.71 1862.45 1414.32 1862.45 Q1417.95 1862.45 1419.76 1858.91 Q1421.59 1855.34 1421.59 1848.24 Q1421.59 1841.11 1419.76 1837.57 Q1417.95 1834 1414.32 1834 M1414.32 1830.3 Q1420.13 1830.3 1423.18 1834.9 Q1426.26 1839.49 1426.26 1848.24 Q1426.26 1856.96 1423.18 1861.57 Q1420.13 1866.15 1414.32 1866.15 Q1408.51 1866.15 1405.43 1861.57 Q1402.37 1856.96 1402.37 1848.24 Q1402.37 1839.49 1405.43 1834.9 Q1408.51 1830.3 1414.32 1830.3 Z" fill="#000000" fill-rule="evenodd" fill-opacity="1" /><path clip-path="url(#clip710)" d="M1949.08 1861.55 L1956.72 1861.55 L1956.72 1835.18 L1948.41 1836.85 L1948.41 1832.59 L1956.67 1830.92 L1961.35 1830.92 L1961.35 1861.55 L1968.99 1861.55 L1968.99 1865.48 L1949.08 1865.48 L1949.08 1861.55 Z" fill="#000000" fill-rule="evenodd" fill-opacity="1" /><path clip-path="url(#clip710)" d="M1978.43 1859.6 L1983.32 1859.6 L1983.32 1865.48 L1978.43 1865.48 L1978.43 1859.6 Z" fill="#000000" fill-rule="evenodd" fill-opacity="1" /><path clip-path="url(#clip710)" d="M1993.55 1830.92 L2011.9 1830.92 L2011.9 1834.86 L1997.83 1834.86 L1997.83 1843.33 Q1998.85 1842.98 1999.87 1842.82 Q2000.88 1842.64 2001.9 1842.64 Q2007.69 1842.64 2011.07 1845.81 Q2014.45 1848.98 2014.45 1854.4 Q2014.45 1859.97 2010.98 1863.08 Q2007.51 1866.15 2001.19 1866.15 Q1999.01 1866.15 1996.74 1865.78 Q1994.5 1865.41 1992.09 1864.67 L1992.09 1859.97 Q1994.17 1861.11 1996.39 1861.66 Q1998.62 1862.22 2001.09 1862.22 Q2005.1 1862.22 2007.44 1860.11 Q2009.77 1858.01 2009.77 1854.4 Q2009.77 1850.78 2007.44 1848.68 Q2005.1 1846.57 2001.09 1846.57 Q1999.22 1846.57 1997.34 1846.99 Q1995.49 1847.4 1993.55 1848.28 L1993.55 1830.92 Z" fill="#000000" fill-rule="evenodd" fill-opacity="1" /><path clip-path="url(#clip710)" d="M2541.35 1861.55 L2557.67 1861.55 L2557.67 1865.48 L2535.73 1865.48 L2535.73 1861.55 Q2538.39 1858.79 2542.97 1854.16 Q2547.58 1849.51 2548.76 1848.17 Q2551.01 1845.65 2551.88 1843.91 Q2552.79 1842.15 2552.79 1840.46 Q2552.79 1837.71 2550.84 1835.97 Q2548.92 1834.23 2545.82 1834.23 Q2543.62 1834.23 2541.17 1835 Q2538.74 1835.76 2535.96 1837.31 L2535.96 1832.59 Q2538.78 1831.46 2541.24 1830.88 Q2543.69 1830.3 2545.73 1830.3 Q2551.1 1830.3 2554.29 1832.98 Q2557.49 1835.67 2557.49 1840.16 Q2557.49 1842.29 2556.68 1844.21 Q2555.89 1846.11 2553.78 1848.7 Q2553.2 1849.37 2550.1 1852.59 Q2547 1855.78 2541.35 1861.55 Z" fill="#000000" fill-rule="evenodd" fill-opacity="1" /><path clip-path="url(#clip710)" d="M2567.49 1859.6 L2572.37 1859.6 L2572.37 1865.48 L2567.49 1865.48 L2567.49 1859.6 Z" fill="#000000" fill-rule="evenodd" fill-opacity="1" /><path clip-path="url(#clip710)" d="M2592.56 1834 Q2588.94 1834 2587.12 1837.57 Q2585.31 1841.11 2585.31 1848.24 Q2585.31 1855.34 2587.12 1858.91 Q2588.94 1862.45 2592.56 1862.45 Q2596.19 1862.45 2598 1858.91 Q2599.82 1855.34 2599.82 1848.24 Q2599.82 1841.11 2598 1837.57 Q2596.19 1834 2592.56 1834 M2592.56 1830.3 Q2598.37 1830.3 2601.42 1834.9 Q2604.5 1839.49 2604.5 1848.24 Q2604.5 1856.96 2601.42 1861.57 Q2598.37 1866.15 2592.56 1866.15 Q2586.75 1866.15 2583.67 1861.57 Q2580.61 1856.96 2580.61 1848.24 Q2580.61 1839.49 2583.67 1834.9 Q2586.75 1830.3 2592.56 1830.3 Z" fill="#000000" fill-rule="evenodd" fill-opacity="1" /><polyline clip-path="url(#clip712)" style="stroke:#000000; stroke-linecap:butt; stroke-linejoin:round; stroke-width:2; stroke-opacity:0.1; fill:none" points="
  144.733,1751.15 2640.76,1751.15 
  "/>
<polyline clip-path="url(#clip712)" style="stroke:#000000; stroke-linecap:butt; stroke-linejoin:round; stroke-width:2; stroke-opacity:0.1; fill:none" points="
  144.733,1492.67 2640.76,1492.67 
  "/>
<polyline clip-path="url(#clip712)" style="stroke:#000000; stroke-linecap:butt; stroke-linejoin:round; stroke-width:2; stroke-opacity:0.1; fill:none" points="
  144.733,1234.19 2640.76,1234.19 
  "/>
<polyline clip-path="url(#clip712)" style="stroke:#000000; stroke-linecap:butt; stroke-linejoin:round; stroke-width:2; stroke-opacity:0.1; fill:none" points="
  144.733,975.708 2640.76,975.708 
  "/>
<polyline clip-path="url(#clip712)" style="stroke:#000000; stroke-linecap:butt; stroke-linejoin:round; stroke-width:2; stroke-opacity:0.1; fill:none" points="
  144.733,717.227 2640.76,717.227 
  "/>
<polyline clip-path="url(#clip712)" style="stroke:#000000; stroke-linecap:butt; stroke-linejoin:round; stroke-width:2; stroke-opacity:0.1; fill:none" points="
  144.733,458.746 2640.76,458.746 
  "/>
<polyline clip-path="url(#clip712)" style="stroke:#000000; stroke-linecap:butt; stroke-linejoin:round; stroke-width:2; stroke-opacity:0.1; fill:none" points="
  144.733,200.265 2640.76,200.265 
  "/>
<polyline clip-path="url(#clip710)" style="stroke:#000000; stroke-linecap:butt; stroke-linejoin:round; stroke-width:4; stroke-opacity:1; fill:none" points="
  144.733,1800.78 144.733,47.2441 
  "/>
<polyline clip-path="url(#clip710)" style="stroke:#000000; stroke-linecap:butt; stroke-linejoin:round; stroke-width:4; stroke-opacity:1; fill:none" points="
  144.733,1751.15 163.631,1751.15 
  "/>
<polyline clip-path="url(#clip710)" style="stroke:#000000; stroke-linecap:butt; stroke-linejoin:round; stroke-width:4; stroke-opacity:1; fill:none" points="
  144.733,1492.67 163.631,1492.67 
  "/>
<polyline clip-path="url(#clip710)" style="stroke:#000000; stroke-linecap:butt; stroke-linejoin:round; stroke-width:4; stroke-opacity:1; fill:none" points="
  144.733,1234.19 163.631,1234.19 
  "/>
<polyline clip-path="url(#clip710)" style="stroke:#000000; stroke-linecap:butt; stroke-linejoin:round; stroke-width:4; stroke-opacity:1; fill:none" points="
  144.733,975.708 163.631,975.708 
  "/>
<polyline clip-path="url(#clip710)" style="stroke:#000000; stroke-linecap:butt; stroke-linejoin:round; stroke-width:4; stroke-opacity:1; fill:none" points="
  144.733,717.227 163.631,717.227 
  "/>
<polyline clip-path="url(#clip710)" style="stroke:#000000; stroke-linecap:butt; stroke-linejoin:round; stroke-width:4; stroke-opacity:1; fill:none" points="
  144.733,458.746 163.631,458.746 
  "/>
<polyline clip-path="url(#clip710)" style="stroke:#000000; stroke-linecap:butt; stroke-linejoin:round; stroke-width:4; stroke-opacity:1; fill:none" points="
  144.733,200.265 163.631,200.265 
  "/>
<path clip-path="url(#clip710)" d="M92.4686 1736.95 Q88.8575 1736.95 87.0288 1740.51 Q85.2232 1744.06 85.2232 1751.19 Q85.2232 1758.29 87.0288 1761.86 Q88.8575 1765.4 92.4686 1765.4 Q96.1028 1765.4 97.9083 1761.86 Q99.737 1758.29 99.737 1751.19 Q99.737 1744.06 97.9083 1740.51 Q96.1028 1736.95 92.4686 1736.95 M92.4686 1733.25 Q98.2787 1733.25 101.334 1737.85 Q104.413 1742.44 104.413 1751.19 Q104.413 1759.91 101.334 1764.52 Q98.2787 1769.1 92.4686 1769.1 Q86.6584 1769.1 83.5797 1764.52 Q80.5242 1759.91 80.5242 1751.19 Q80.5242 1742.44 83.5797 1737.85 Q86.6584 1733.25 92.4686 1733.25 Z" fill="#000000" fill-rule="evenodd" fill-opacity="1" /><path clip-path="url(#clip710)" d="M53.1169 1506.01 L60.7558 1506.01 L60.7558 1479.65 L52.4456 1481.32 L52.4456 1477.06 L60.7095 1475.39 L65.3854 1475.39 L65.3854 1506.01 L73.0242 1506.01 L73.0242 1509.95 L53.1169 1509.95 L53.1169 1506.01 Z" fill="#000000" fill-rule="evenodd" fill-opacity="1" /><path clip-path="url(#clip710)" d="M92.4686 1478.47 Q88.8575 1478.47 87.0288 1482.03 Q85.2232 1485.58 85.2232 1492.7 Q85.2232 1499.81 87.0288 1503.38 Q88.8575 1506.92 92.4686 1506.92 Q96.1028 1506.92 97.9083 1503.38 Q99.737 1499.81 99.737 1492.7 Q99.737 1485.58 97.9083 1482.03 Q96.1028 1478.47 92.4686 1478.47 M92.4686 1474.76 Q98.2787 1474.76 101.334 1479.37 Q104.413 1483.95 104.413 1492.7 Q104.413 1501.43 101.334 1506.04 Q98.2787 1510.62 92.4686 1510.62 Q86.6584 1510.62 83.5797 1506.04 Q80.5242 1501.43 80.5242 1492.7 Q80.5242 1483.95 83.5797 1479.37 Q86.6584 1474.76 92.4686 1474.76 Z" fill="#000000" fill-rule="evenodd" fill-opacity="1" /><path clip-path="url(#clip710)" d="M56.3345 1247.53 L72.6539 1247.53 L72.6539 1251.47 L50.7095 1251.47 L50.7095 1247.53 Q53.3715 1244.78 57.9549 1240.15 Q62.5613 1235.5 63.7419 1234.15 Q65.9872 1231.63 66.8668 1229.89 Q67.7696 1228.14 67.7696 1226.45 Q67.7696 1223.69 65.8252 1221.96 Q63.9039 1220.22 60.8021 1220.22 Q58.603 1220.22 56.1493 1220.98 Q53.7188 1221.75 50.941 1223.3 L50.941 1218.58 Q53.7651 1217.44 56.2188 1216.86 Q58.6724 1216.28 60.7095 1216.28 Q66.0798 1216.28 69.2742 1218.97 Q72.4687 1221.65 72.4687 1226.14 Q72.4687 1228.27 71.6585 1230.2 Q70.8715 1232.09 68.765 1234.69 Q68.1863 1235.36 65.0845 1238.58 Q61.9826 1241.77 56.3345 1247.53 Z" fill="#000000" fill-rule="evenodd" fill-opacity="1" /><path clip-path="url(#clip710)" d="M92.4686 1219.99 Q88.8575 1219.99 87.0288 1223.55 Q85.2232 1227.09 85.2232 1234.22 Q85.2232 1241.33 87.0288 1244.89 Q88.8575 1248.44 92.4686 1248.44 Q96.1028 1248.44 97.9083 1244.89 Q99.737 1241.33 99.737 1234.22 Q99.737 1227.09 97.9083 1223.55 Q96.1028 1219.99 92.4686 1219.99 M92.4686 1216.28 Q98.2787 1216.28 101.334 1220.89 Q104.413 1225.47 104.413 1234.22 Q104.413 1242.95 101.334 1247.56 Q98.2787 1252.14 92.4686 1252.14 Q86.6584 1252.14 83.5797 1247.56 Q80.5242 1242.95 80.5242 1234.22 Q80.5242 1225.47 83.5797 1220.89 Q86.6584 1216.28 92.4686 1216.28 Z" fill="#000000" fill-rule="evenodd" fill-opacity="1" /><path clip-path="url(#clip710)" d="M66.4733 974.354 Q69.8298 975.071 71.7048 977.34 Q73.6029 979.608 73.6029 982.942 Q73.6029 988.057 70.0844 990.858 Q66.5659 993.659 60.0845 993.659 Q57.9086 993.659 55.5938 993.219 Q53.3021 992.803 50.8484 991.946 L50.8484 987.432 Q52.7928 988.567 55.1077 989.145 Q57.4225 989.724 59.9456 989.724 Q64.3437 989.724 66.6354 987.988 Q68.9502 986.252 68.9502 982.942 Q68.9502 979.886 66.7974 978.173 Q64.6678 976.437 60.8484 976.437 L56.8206 976.437 L56.8206 972.594 L61.0335 972.594 Q64.4826 972.594 66.3113 971.229 Q68.14 969.84 68.14 967.247 Q68.14 964.585 66.2419 963.173 Q64.3669 961.738 60.8484 961.738 Q58.9271 961.738 56.728 962.155 Q54.529 962.571 51.8901 963.451 L51.8901 959.284 Q54.5521 958.544 56.8669 958.173 Q59.2049 957.803 61.265 957.803 Q66.5891 957.803 69.6909 960.233 Q72.7927 962.641 72.7927 966.761 Q72.7927 969.632 71.1492 971.622 Q69.5057 973.59 66.4733 974.354 Z" fill="#000000" fill-rule="evenodd" fill-opacity="1" /><path clip-path="url(#clip710)" d="M92.4686 961.507 Q88.8575 961.507 87.0288 965.071 Q85.2232 968.613 85.2232 975.743 Q85.2232 982.849 87.0288 986.414 Q88.8575 989.956 92.4686 989.956 Q96.1028 989.956 97.9083 986.414 Q99.737 982.849 99.737 975.743 Q99.737 968.613 97.9083 965.071 Q96.1028 961.507 92.4686 961.507 M92.4686 957.803 Q98.2787 957.803 101.334 962.409 Q104.413 966.993 104.413 975.743 Q104.413 984.469 101.334 989.076 Q98.2787 993.659 92.4686 993.659 Q86.6584 993.659 83.5797 989.076 Q80.5242 984.469 80.5242 975.743 Q80.5242 966.993 83.5797 962.409 Q86.6584 957.803 92.4686 957.803 Z" fill="#000000" fill-rule="evenodd" fill-opacity="1" /><path clip-path="url(#clip710)" d="M65.1539 704.021 L53.3484 722.47 L65.1539 722.47 L65.1539 704.021 M63.927 699.947 L69.8066 699.947 L69.8066 722.47 L74.7372 722.47 L74.7372 726.359 L69.8066 726.359 L69.8066 734.507 L65.1539 734.507 L65.1539 726.359 L49.5521 726.359 L49.5521 721.845 L63.927 699.947 Z" fill="#000000" fill-rule="evenodd" fill-opacity="1" /><path clip-path="url(#clip710)" d="M92.4686 703.026 Q88.8575 703.026 87.0288 706.59 Q85.2232 710.132 85.2232 717.262 Q85.2232 724.368 87.0288 727.933 Q88.8575 731.474 92.4686 731.474 Q96.1028 731.474 97.9083 727.933 Q99.737 724.368 99.737 717.262 Q99.737 710.132 97.9083 706.59 Q96.1028 703.026 92.4686 703.026 M92.4686 699.322 Q98.2787 699.322 101.334 703.928 Q104.413 708.512 104.413 717.262 Q104.413 725.988 101.334 730.595 Q98.2787 735.178 92.4686 735.178 Q86.6584 735.178 83.5797 730.595 Q80.5242 725.988 80.5242 717.262 Q80.5242 708.512 83.5797 703.928 Q86.6584 699.322 92.4686 699.322 Z" fill="#000000" fill-rule="evenodd" fill-opacity="1" /><path clip-path="url(#clip710)" d="M52.353 441.466 L70.7094 441.466 L70.7094 445.401 L56.6354 445.401 L56.6354 453.873 Q57.6539 453.526 58.6724 453.364 Q59.691 453.179 60.7095 453.179 Q66.4965 453.179 69.8761 456.35 Q73.2557 459.521 73.2557 464.938 Q73.2557 470.517 69.7835 473.618 Q66.3113 476.697 59.9919 476.697 Q57.816 476.697 55.5475 476.327 Q53.3021 475.956 50.8947 475.216 L50.8947 470.517 Q52.978 471.651 55.2002 472.206 Q57.4225 472.762 59.8993 472.762 Q63.9039 472.762 66.2419 470.656 Q68.5798 468.549 68.5798 464.938 Q68.5798 461.327 66.2419 459.22 Q63.9039 457.114 59.8993 457.114 Q58.0243 457.114 56.1493 457.531 Q54.2975 457.947 52.353 458.827 L52.353 441.466 Z" fill="#000000" fill-rule="evenodd" fill-opacity="1" /><path clip-path="url(#clip710)" d="M92.4686 444.545 Q88.8575 444.545 87.0288 448.109 Q85.2232 451.651 85.2232 458.781 Q85.2232 465.887 87.0288 469.452 Q88.8575 472.993 92.4686 472.993 Q96.1028 472.993 97.9083 469.452 Q99.737 465.887 99.737 458.781 Q99.737 451.651 97.9083 448.109 Q96.1028 444.545 92.4686 444.545 M92.4686 440.841 Q98.2787 440.841 101.334 445.447 Q104.413 450.031 104.413 458.781 Q104.413 467.507 101.334 472.114 Q98.2787 476.697 92.4686 476.697 Q86.6584 476.697 83.5797 472.114 Q80.5242 467.507 80.5242 458.781 Q80.5242 450.031 83.5797 445.447 Q86.6584 440.841 92.4686 440.841 Z" fill="#000000" fill-rule="evenodd" fill-opacity="1" /><path clip-path="url(#clip710)" d="M62.8854 198.401 Q59.7373 198.401 57.8854 200.554 Q56.0567 202.707 56.0567 206.457 Q56.0567 210.184 57.8854 212.36 Q59.7373 214.512 62.8854 214.512 Q66.0335 214.512 67.8622 212.36 Q69.7141 210.184 69.7141 206.457 Q69.7141 202.707 67.8622 200.554 Q66.0335 198.401 62.8854 198.401 M72.1677 183.749 L72.1677 188.008 Q70.4085 187.175 68.6029 186.735 Q66.8206 186.295 65.0613 186.295 Q60.4317 186.295 57.978 189.42 Q55.5475 192.545 55.2002 198.864 Q56.566 196.851 58.6262 195.786 Q60.6863 194.698 63.1632 194.698 Q68.3715 194.698 71.3807 197.869 Q74.4131 201.017 74.4131 206.457 Q74.4131 211.781 71.265 214.999 Q68.1168 218.216 62.8854 218.216 Q56.89 218.216 53.7188 213.633 Q50.5475 209.026 50.5475 200.3 Q50.5475 192.105 54.4364 187.244 Q58.3252 182.36 64.8761 182.36 Q66.6354 182.36 68.4178 182.707 Q70.2233 183.054 72.1677 183.749 Z" fill="#000000" fill-rule="evenodd" fill-opacity="1" /><path clip-path="url(#clip710)" d="M92.4686 186.064 Q88.8575 186.064 87.0288 189.628 Q85.2232 193.17 85.2232 200.3 Q85.2232 207.406 87.0288 210.971 Q88.8575 214.512 92.4686 214.512 Q96.1028 214.512 97.9083 210.971 Q99.737 207.406 99.737 200.3 Q99.737 193.17 97.9083 189.628 Q96.1028 186.064 92.4686 186.064 M92.4686 182.36 Q98.2787 182.36 101.334 186.966 Q104.413 191.55 104.413 200.3 Q104.413 209.026 101.334 213.633 Q98.2787 218.216 92.4686 218.216 Q86.6584 218.216 83.5797 213.633 Q80.5242 209.026 80.5242 200.3 Q80.5242 191.55 83.5797 186.966 Q86.6584 182.36 92.4686 182.36 Z" fill="#000000" fill-rule="evenodd" fill-opacity="1" /><polyline clip-path="url(#clip712)" style="stroke:#009af9; stroke-linecap:butt; stroke-linejoin:round; stroke-width:4; stroke-opacity:1; fill:none" points="
  215.375,96.8724 223.04,96.89 230.706,96.9426 301.583,99.0897 372.46,104.234 415.054,108.768 457.648,114.384 493.66,119.977 529.673,126.344 607.913,142.844 
  680.043,161.291 757.375,184.516 846.97,215.887 926.593,247.786 996.414,278.871 1072.54,316.077 1149.11,356.993 1233.78,406.304 1314.34,457.193 1398.1,514.211 
  1468.61,565.454 1554.69,632.037 1633.55,696.913 1706.38,760.126 1780.15,827.386 1862.83,906.625 1937.76,981.951 2023.54,1072.31 2102.96,1159.88 2181.27,1249.91 
  2257.3,1340.82 2296.26,1388.75 2335.23,1437.59 2377.93,1492.14 2420.62,1547.77 2482.64,1630.53 2544.67,1715.59 2557.39,1733.32 2570.11,1751.15 
  "/>
<path clip-path="url(#clip710)" d="
M2227.79 209.375 L2557.56 209.375 L2557.56 105.695 L2227.79 105.695  Z
  " fill="#ffffff" fill-rule="evenodd" fill-opacity="1"/>
<polyline clip-path="url(#clip710)" style="stroke:#000000; stroke-linecap:butt; stroke-linejoin:round; stroke-width:4; stroke-opacity:1; fill:none" points="
  2227.79,209.375 2557.56,209.375 2557.56,105.695 2227.79,105.695 2227.79,209.375 
  "/>
<polyline clip-path="url(#clip710)" style="stroke:#009af9; stroke-linecap:butt; stroke-linejoin:round; stroke-width:4; stroke-opacity:1; fill:none" points="
  2255.52,157.535 2421.92,157.535 
  "/>
<path clip-path="url(#clip710)" d="M2463.5 177.223 Q2461.69 181.852 2459.98 183.264 Q2458.27 184.676 2455.4 184.676 L2452 184.676 L2452 181.112 L2454.5 181.112 Q2456.25 181.112 2457.23 180.278 Q2458.2 179.445 2459.38 176.343 L2460.14 174.399 L2449.66 148.889 L2454.17 148.889 L2462.27 169.167 L2470.38 148.889 L2474.89 148.889 L2463.5 177.223 Z" fill="#000000" fill-rule="evenodd" fill-opacity="1" /><path clip-path="url(#clip710)" d="M2482.18 170.88 L2489.82 170.88 L2489.82 144.515 L2481.51 146.181 L2481.51 141.922 L2489.77 140.255 L2494.45 140.255 L2494.45 170.88 L2502.09 170.88 L2502.09 174.815 L2482.18 174.815 L2482.18 170.88 Z" fill="#000000" fill-rule="evenodd" fill-opacity="1" /></svg>
