<?xml version="1.0" encoding="utf-8"?>
<svg xmlns="http://www.w3.org/2000/svg" xmlns:xlink="http://www.w3.org/1999/xlink" width="672" height="480" viewBox="0 0 2688 1920">
<defs>
  <clipPath id="clip510">
    <rect x="0" y="0" width="2688" height="1920"/>
  </clipPath>
</defs>
<path clip-path="url(#clip510)" d="
M0 1920 L2688 1920 L2688 0 L0 0  Z
  " fill="#ffffff" fill-rule="evenodd" fill-opacity="1"/>
<defs>
  <clipPath id="clip511">
    <rect x="537" y="0" width="1883" height="1883"/>
  </clipPath>
</defs>
<path clip-path="url(#clip510)" d="
M195.219 1800.78 L2640.76 1800.78 L2640.76 47.2441 L195.219 47.2441  Z
  " fill="#ffffff" fill-rule="evenodd" fill-opacity="1"/>
<defs>
  <clipPath id="clip512">
    <rect x="195" y="47" width="2447" height="1755"/>
  </clipPath>
</defs>
<polyline clip-path="url(#clip512)" style="stroke:#000000; stroke-linecap:butt; stroke-linejoin:round; stroke-width:2; stroke-opacity:0.1; fill:none" points="
  264.432,1800.78 264.432,47.2441 
  "/>
<polyline clip-path="url(#clip512)" style="stroke:#000000; stroke-linecap:butt; stroke-linejoin:round; stroke-width:2; stroke-opacity:0.1; fill:none" points="
  631.62,1800.78 631.62,47.2441 
  "/>
<polyline clip-path="url(#clip512)" style="stroke:#000000; stroke-linecap:butt; stroke-linejoin:round; stroke-width:2; stroke-opacity:0.1; fill:none" points="
  998.808,1800.78 998.808,47.2441 
  "/>
<polyline clip-path="url(#clip512)" style="stroke:#000000; stroke-linecap:butt; stroke-linejoin:round; stroke-width:2; stroke-opacity:0.1; fill:none" points="
  1366,1800.78 1366,47.2441 
  "/>
<polyline clip-path="url(#clip512)" style="stroke:#000000; stroke-linecap:butt; stroke-linejoin:round; stroke-width:2; stroke-opacity:0.1; fill:none" points="
  1733.18,1800.78 1733.18,47.2441 
  "/>
<polyline clip-path="url(#clip512)" style="stroke:#000000; stroke-linecap:butt; stroke-linejoin:round; stroke-width:2; stroke-opacity:0.1; fill:none" points="
  2100.37,1800.78 2100.37,47.2441 
  "/>
<polyline clip-path="url(#clip512)" style="stroke:#000000; stroke-linecap:butt; stroke-linejoin:round; stroke-width:2; stroke-opacity:0.1; fill:none" points="
  2467.56,1800.78 2467.56,47.2441 
  "/>
<polyline clip-path="url(#clip510)" style="stroke:#000000; stroke-linecap:butt; stroke-linejoin:round; stroke-width:4; stroke-opacity:1; fill:none" points="
  195.219,1800.78 2640.76,1800.78 
  "/>
<polyline clip-path="url(#clip510)" style="stroke:#000000; stroke-linecap:butt; stroke-linejoin:round; stroke-width:4; stroke-opacity:1; fill:none" points="
  264.432,1800.78 264.432,1781.88 
  "/>
<polyline clip-path="url(#clip510)" style="stroke:#000000; stroke-linecap:butt; stroke-linejoin:round; stroke-width:4; stroke-opacity:1; fill:none" points="
  631.62,1800.78 631.62,1781.88 
  "/>
<polyline clip-path="url(#clip510)" style="stroke:#000000; stroke-linecap:butt; stroke-linejoin:round; stroke-width:4; stroke-opacity:1; fill:none" points="
  998.808,1800.78 998.808,1781.88 
  "/>
<polyline clip-path="url(#clip510)" style="stroke:#000000; stroke-linecap:butt; stroke-linejoin:round; stroke-width:4; stroke-opacity:1; fill:none" points="
  1366,1800.78 1366,1781.88 
  "/>
<polyline clip-path="url(#clip510)" style="stroke:#000000; stroke-linecap:butt; stroke-linejoin:round; stroke-width:4; stroke-opacity:1; fill:none" points="
  1733.18,1800.78 1733.18,1781.88 
  "/>
<polyline clip-path="url(#clip510)" style="stroke:#000000; stroke-linecap:butt; stroke-linejoin:round; stroke-width:4; stroke-opacity:1; fill:none" points="
  2100.37,1800.78 2100.37,1781.88 
  "/>
<polyline clip-path="url(#clip510)" style="stroke:#000000; stroke-linecap:butt; stroke-linejoin:round; stroke-width:4; stroke-opacity:1; fill:none" points="
  2467.56,1800.78 2467.56,1781.88 
  "/>
<path clip-path="url(#clip510)" d="M264.432 1834 Q260.821 1834 258.992 1837.57 Q257.187 1841.11 257.187 1848.24 Q257.187 1855.34 258.992 1858.91 Q260.821 1862.45 264.432 1862.45 Q268.066 1862.45 269.872 1858.91 Q271.701 1855.34 271.701 1848.24 Q271.701 1841.11 269.872 1837.57 Q268.066 1834 264.432 1834 M264.432 1830.3 Q270.242 1830.3 273.298 1834.9 Q276.376 1839.49 276.376 1848.24 Q276.376 1856.96 273.298 1861.57 Q270.242 1866.15 264.432 1866.15 Q258.622 1866.15 255.543 1861.57 Q252.488 1856.96 252.488 1848.24 Q252.488 1839.49 255.543 1834.9 Q258.622 1830.3 264.432 1830.3 Z" fill="#000000" fill-rule="evenodd" fill-opacity="1" /><path clip-path="url(#clip510)" d="M622.002 1861.55 L629.641 1861.55 L629.641 1835.18 L621.331 1836.85 L621.331 1832.59 L629.595 1830.92 L634.271 1830.92 L634.271 1861.55 L641.909 1861.55 L641.909 1865.48 L622.002 1865.48 L622.002 1861.55 Z" fill="#000000" fill-rule="evenodd" fill-opacity="1" /><path clip-path="url(#clip510)" d="M993.461 1861.55 L1009.78 1861.55 L1009.78 1865.48 L987.836 1865.48 L987.836 1861.55 Q990.498 1858.79 995.081 1854.16 Q999.688 1849.51 1000.87 1848.17 Q1003.11 1845.65 1003.99 1843.91 Q1004.9 1842.15 1004.9 1840.46 Q1004.9 1837.71 1002.95 1835.97 Q1001.03 1834.23 997.929 1834.23 Q995.729 1834.23 993.276 1835 Q990.845 1835.76 988.067 1837.31 L988.067 1832.59 Q990.892 1831.46 993.345 1830.88 Q995.799 1830.3 997.836 1830.3 Q1003.21 1830.3 1006.4 1832.98 Q1009.6 1835.67 1009.6 1840.16 Q1009.6 1842.29 1008.78 1844.21 Q1008 1846.11 1005.89 1848.7 Q1005.31 1849.37 1002.21 1852.59 Q999.109 1855.78 993.461 1861.55 Z" fill="#000000" fill-rule="evenodd" fill-opacity="1" /><path clip-path="url(#clip510)" d="M1370.24 1846.85 Q1373.6 1847.57 1375.48 1849.84 Q1377.37 1852.1 1377.37 1855.44 Q1377.37 1860.55 1373.85 1863.35 Q1370.34 1866.15 1363.86 1866.15 Q1361.68 1866.15 1359.36 1865.71 Q1357.07 1865.3 1354.62 1864.44 L1354.62 1859.93 Q1356.56 1861.06 1358.88 1861.64 Q1361.19 1862.22 1363.72 1862.22 Q1368.11 1862.22 1370.41 1860.48 Q1372.72 1858.75 1372.72 1855.44 Q1372.72 1852.38 1370.57 1850.67 Q1368.44 1848.93 1364.62 1848.93 L1360.59 1848.93 L1360.59 1845.09 L1364.8 1845.09 Q1368.25 1845.09 1370.08 1843.72 Q1371.91 1842.34 1371.91 1839.74 Q1371.91 1837.08 1370.01 1835.67 Q1368.14 1834.23 1364.62 1834.23 Q1362.7 1834.23 1360.5 1834.65 Q1358.3 1835.07 1355.66 1835.95 L1355.66 1831.78 Q1358.32 1831.04 1360.64 1830.67 Q1362.98 1830.3 1365.04 1830.3 Q1370.36 1830.3 1373.46 1832.73 Q1376.56 1835.14 1376.56 1839.26 Q1376.56 1842.13 1374.92 1844.12 Q1373.28 1846.09 1370.24 1846.85 Z" fill="#000000" fill-rule="evenodd" fill-opacity="1" /><path clip-path="url(#clip510)" d="M1736.19 1835 L1724.39 1853.45 L1736.19 1853.45 L1736.19 1835 M1734.97 1830.92 L1740.85 1830.92 L1740.85 1853.45 L1745.78 1853.45 L1745.78 1857.34 L1740.85 1857.34 L1740.85 1865.48 L1736.19 1865.48 L1736.19 1857.34 L1720.59 1857.34 L1720.59 1852.82 L1734.97 1830.92 Z" fill="#000000" fill-rule="evenodd" fill-opacity="1" /><path clip-path="url(#clip510)" d="M2090.65 1830.92 L2109.01 1830.92 L2109.01 1834.86 L2094.93 1834.86 L2094.93 1843.33 Q2095.95 1842.98 2096.97 1842.82 Q2097.99 1842.64 2099.01 1842.64 Q2104.79 1842.64 2108.17 1845.81 Q2111.55 1848.98 2111.55 1854.4 Q2111.55 1859.97 2108.08 1863.08 Q2104.61 1866.15 2098.29 1866.15 Q2096.11 1866.15 2093.84 1865.78 Q2091.6 1865.41 2089.19 1864.67 L2089.19 1859.97 Q2091.28 1861.11 2093.5 1861.66 Q2095.72 1862.22 2098.2 1862.22 Q2102.2 1862.22 2104.54 1860.11 Q2106.88 1858.01 2106.88 1854.4 Q2106.88 1850.78 2104.54 1848.68 Q2102.2 1846.57 2098.2 1846.57 Q2096.32 1846.57 2094.45 1846.99 Q2092.59 1847.4 2090.65 1848.28 L2090.65 1830.92 Z" fill="#000000" fill-rule="evenodd" fill-opacity="1" /><path clip-path="url(#clip510)" d="M2467.97 1846.34 Q2464.82 1846.34 2462.97 1848.49 Q2461.14 1850.65 2461.14 1854.4 Q2461.14 1858.12 2462.97 1860.3 Q2464.82 1862.45 2467.97 1862.45 Q2471.11 1862.45 2472.94 1860.3 Q2474.79 1858.12 2474.79 1854.4 Q2474.79 1850.65 2472.94 1848.49 Q2471.11 1846.34 2467.97 1846.34 M2477.25 1831.69 L2477.25 1835.95 Q2475.49 1835.11 2473.68 1834.67 Q2471.9 1834.23 2470.14 1834.23 Q2465.51 1834.23 2463.06 1837.36 Q2460.63 1840.48 2460.28 1846.8 Q2461.65 1844.79 2463.71 1843.72 Q2465.77 1842.64 2468.24 1842.64 Q2473.45 1842.64 2476.46 1845.81 Q2479.49 1848.96 2479.49 1854.4 Q2479.49 1859.72 2476.35 1862.94 Q2473.2 1866.15 2467.97 1866.15 Q2461.97 1866.15 2458.8 1861.57 Q2455.63 1856.96 2455.63 1848.24 Q2455.63 1840.04 2459.52 1835.18 Q2463.41 1830.3 2469.96 1830.3 Q2471.72 1830.3 2473.5 1830.65 Q2475.3 1830.99 2477.25 1831.69 Z" fill="#000000" fill-rule="evenodd" fill-opacity="1" /><polyline clip-path="url(#clip512)" style="stroke:#000000; stroke-linecap:butt; stroke-linejoin:round; stroke-width:2; stroke-opacity:0.1; fill:none" points="
  195.219,1685.65 2640.76,1685.65 
  "/>
<polyline clip-path="url(#clip512)" style="stroke:#000000; stroke-linecap:butt; stroke-linejoin:round; stroke-width:2; stroke-opacity:0.1; fill:none" points="
  195.219,1306.17 2640.76,1306.17 
  "/>
<polyline clip-path="url(#clip512)" style="stroke:#000000; stroke-linecap:butt; stroke-linejoin:round; stroke-width:2; stroke-opacity:0.1; fill:none" points="
  195.219,926.686 2640.76,926.686 
  "/>
<polyline clip-path="url(#clip512)" style="stroke:#000000; stroke-linecap:butt; stroke-linejoin:round; stroke-width:2; stroke-opacity:0.1; fill:none" points="
  195.219,547.206 2640.76,547.206 
  "/>
<polyline clip-path="url(#clip512)" style="stroke:#000000; stroke-linecap:butt; stroke-linejoin:round; stroke-width:2; stroke-opacity:0.1; fill:none" points="
  195.219,167.726 2640.76,167.726 
  "/>
<polyline clip-path="url(#clip510)" style="stroke:#000000; stroke-linecap:butt; stroke-linejoin:round; stroke-width:4; stroke-opacity:1; fill:none" points="
  195.219,1800.78 195.219,47.2441 
  "/>
<polyline clip-path="url(#clip510)" style="stroke:#000000; stroke-linecap:butt; stroke-linejoin:round; stroke-width:4; stroke-opacity:1; fill:none" points="
  195.219,1685.65 214.116,1685.65 
  "/>
<polyline clip-path="url(#clip510)" style="stroke:#000000; stroke-linecap:butt; stroke-linejoin:round; stroke-width:4; stroke-opacity:1; fill:none" points="
  195.219,1306.17 214.116,1306.17 
  "/>
<polyline clip-path="url(#clip510)" style="stroke:#000000; stroke-linecap:butt; stroke-linejoin:round; stroke-width:4; stroke-opacity:1; fill:none" points="
  195.219,926.686 214.116,926.686 
  "/>
<polyline clip-path="url(#clip510)" style="stroke:#000000; stroke-linecap:butt; stroke-linejoin:round; stroke-width:4; stroke-opacity:1; fill:none" points="
  195.219,547.206 214.116,547.206 
  "/>
<polyline clip-path="url(#clip510)" style="stroke:#000000; stroke-linecap:butt; stroke-linejoin:round; stroke-width:4; stroke-opacity:1; fill:none" points="
  195.219,167.726 214.116,167.726 
  "/>
<path clip-path="url(#clip510)" d="M49.5521 1686.1 L79.2279 1686.1 L79.2279 1690.03 L49.5521 1690.03 L49.5521 1686.1 Z" fill="#000000" fill-rule="evenodd" fill-opacity="1" /><path clip-path="url(#clip510)" d="M99.3204 1671.44 Q95.7093 1671.44 93.8806 1675.01 Q92.075 1678.55 92.075 1685.68 Q92.075 1692.79 93.8806 1696.35 Q95.7093 1699.89 99.3204 1699.89 Q102.955 1699.89 104.76 1696.35 Q106.589 1692.79 106.589 1685.68 Q106.589 1678.55 104.76 1675.01 Q102.955 1671.44 99.3204 1671.44 M99.3204 1667.74 Q105.131 1667.74 108.186 1672.35 Q111.265 1676.93 111.265 1685.68 Q111.265 1694.41 108.186 1699.01 Q105.131 1703.6 99.3204 1703.6 Q93.5102 1703.6 90.4315 1699.01 Q87.376 1694.41 87.376 1685.68 Q87.376 1676.93 90.4315 1672.35 Q93.5102 1667.74 99.3204 1667.74 Z" fill="#000000" fill-rule="evenodd" fill-opacity="1" /><path clip-path="url(#clip510)" d="M119.482 1697.05 L124.367 1697.05 L124.367 1702.93 L119.482 1702.93 L119.482 1697.05 Z" fill="#000000" fill-rule="evenodd" fill-opacity="1" /><path clip-path="url(#clip510)" d="M138.579 1698.99 L154.899 1698.99 L154.899 1702.93 L132.954 1702.93 L132.954 1698.99 Q135.616 1696.24 140.2 1691.61 Q144.806 1686.95 145.987 1685.61 Q148.232 1683.09 149.112 1681.35 Q150.015 1679.59 150.015 1677.9 Q150.015 1675.15 148.07 1673.41 Q146.149 1671.68 143.047 1671.68 Q140.848 1671.68 138.394 1672.44 Q135.964 1673.2 133.186 1674.76 L133.186 1670.03 Q136.01 1668.9 138.464 1668.32 Q140.917 1667.74 142.954 1667.74 Q148.325 1667.74 151.519 1670.43 Q154.714 1673.11 154.714 1677.6 Q154.714 1679.73 153.903 1681.65 Q153.116 1683.55 151.01 1686.14 Q150.431 1686.82 147.329 1690.03 Q144.228 1693.23 138.579 1698.99 Z" fill="#000000" fill-rule="evenodd" fill-opacity="1" /><path clip-path="url(#clip510)" d="M97.7232 1291.96 Q94.1121 1291.96 92.2834 1295.53 Q90.4778 1299.07 90.4778 1306.2 Q90.4778 1313.31 92.2834 1316.87 Q94.1121 1320.41 97.7232 1320.41 Q101.357 1320.41 103.163 1316.87 Q104.992 1313.31 104.992 1306.2 Q104.992 1299.07 103.163 1295.53 Q101.357 1291.96 97.7232 1291.96 M97.7232 1288.26 Q103.533 1288.26 106.589 1292.87 Q109.668 1297.45 109.668 1306.2 Q109.668 1314.93 106.589 1319.53 Q103.533 1324.12 97.7232 1324.12 Q91.913 1324.12 88.8343 1319.53 Q85.7788 1314.93 85.7788 1306.2 Q85.7788 1297.45 88.8343 1292.87 Q91.913 1288.26 97.7232 1288.26 Z" fill="#000000" fill-rule="evenodd" fill-opacity="1" /><path clip-path="url(#clip510)" d="M117.885 1317.57 L122.769 1317.57 L122.769 1323.45 L117.885 1323.45 L117.885 1317.57 Z" fill="#000000" fill-rule="evenodd" fill-opacity="1" /><path clip-path="url(#clip510)" d="M142.954 1291.96 Q139.343 1291.96 137.515 1295.53 Q135.709 1299.07 135.709 1306.2 Q135.709 1313.31 137.515 1316.87 Q139.343 1320.41 142.954 1320.41 Q146.589 1320.41 148.394 1316.87 Q150.223 1313.31 150.223 1306.2 Q150.223 1299.07 148.394 1295.53 Q146.589 1291.96 142.954 1291.96 M142.954 1288.26 Q148.765 1288.26 151.82 1292.87 Q154.899 1297.45 154.899 1306.2 Q154.899 1314.93 151.82 1319.53 Q148.765 1324.12 142.954 1324.12 Q137.144 1324.12 134.066 1319.53 Q131.01 1314.93 131.01 1306.2 Q131.01 1297.45 134.066 1292.87 Q137.144 1288.26 142.954 1288.26 Z" fill="#000000" fill-rule="evenodd" fill-opacity="1" /><path clip-path="url(#clip510)" d="M99.3204 912.485 Q95.7093 912.485 93.8806 916.05 Q92.075 919.591 92.075 926.721 Q92.075 933.827 93.8806 937.392 Q95.7093 940.934 99.3204 940.934 Q102.955 940.934 104.76 937.392 Q106.589 933.827 106.589 926.721 Q106.589 919.591 104.76 916.05 Q102.955 912.485 99.3204 912.485 M99.3204 908.781 Q105.131 908.781 108.186 913.387 Q111.265 917.971 111.265 926.721 Q111.265 935.448 108.186 940.054 Q105.131 944.637 99.3204 944.637 Q93.5102 944.637 90.4315 940.054 Q87.376 935.448 87.376 926.721 Q87.376 917.971 90.4315 913.387 Q93.5102 908.781 99.3204 908.781 Z" fill="#000000" fill-rule="evenodd" fill-opacity="1" /><path clip-path="url(#clip510)" d="M119.482 938.086 L124.367 938.086 L124.367 943.966 L119.482 943.966 L119.482 938.086 Z" fill="#000000" fill-rule="evenodd" fill-opacity="1" /><path clip-path="url(#clip510)" d="M138.579 940.031 L154.899 940.031 L154.899 943.966 L132.954 943.966 L132.954 940.031 Q135.616 937.276 140.2 932.647 Q144.806 927.994 145.987 926.651 Q148.232 924.128 149.112 922.392 Q150.015 920.633 150.015 918.943 Q150.015 916.188 148.07 914.452 Q146.149 912.716 143.047 912.716 Q140.848 912.716 138.394 913.48 Q135.964 914.244 133.186 915.795 L133.186 911.073 Q136.01 909.938 138.464 909.36 Q140.917 908.781 142.954 908.781 Q148.325 908.781 151.519 911.466 Q154.714 914.151 154.714 918.642 Q154.714 920.772 153.903 922.693 Q153.116 924.591 151.01 927.184 Q150.431 927.855 147.329 931.073 Q144.228 934.267 138.579 940.031 Z" fill="#000000" fill-rule="evenodd" fill-opacity="1" /><path clip-path="url(#clip510)" d="M97.2371 533.005 Q93.626 533.005 91.7973 536.569 Q89.9917 540.111 89.9917 547.241 Q89.9917 554.347 91.7973 557.912 Q93.626 561.454 97.2371 561.454 Q100.871 561.454 102.677 557.912 Q104.506 554.347 104.506 547.241 Q104.506 540.111 102.677 536.569 Q100.871 533.005 97.2371 533.005 M97.2371 529.301 Q103.047 529.301 106.103 533.907 Q109.181 538.491 109.181 547.241 Q109.181 555.967 106.103 560.574 Q103.047 565.157 97.2371 565.157 Q91.4269 565.157 88.3482 560.574 Q85.2927 555.967 85.2927 547.241 Q85.2927 538.491 88.3482 533.907 Q91.4269 529.301 97.2371 529.301 Z" fill="#000000" fill-rule="evenodd" fill-opacity="1" /><path clip-path="url(#clip510)" d="M117.399 558.606 L122.283 558.606 L122.283 564.486 L117.399 564.486 L117.399 558.606 Z" fill="#000000" fill-rule="evenodd" fill-opacity="1" /><path clip-path="url(#clip510)" d="M145.316 534 L133.51 552.449 L145.316 552.449 L145.316 534 M144.089 529.926 L149.968 529.926 L149.968 552.449 L154.899 552.449 L154.899 556.338 L149.968 556.338 L149.968 564.486 L145.316 564.486 L145.316 556.338 L129.714 556.338 L129.714 551.824 L144.089 529.926 Z" fill="#000000" fill-rule="evenodd" fill-opacity="1" /><path clip-path="url(#clip510)" d="M97.5611 153.525 Q93.95 153.525 92.1213 157.089 Q90.3158 160.631 90.3158 167.761 Q90.3158 174.867 92.1213 178.432 Q93.95 181.973 97.5611 181.973 Q101.195 181.973 103.001 178.432 Q104.83 174.867 104.83 167.761 Q104.83 160.631 103.001 157.089 Q101.195 153.525 97.5611 153.525 M97.5611 149.821 Q103.371 149.821 106.427 154.427 Q109.506 159.011 109.506 167.761 Q109.506 176.487 106.427 181.094 Q103.371 185.677 97.5611 185.677 Q91.751 185.677 88.6723 181.094 Q85.6167 176.487 85.6167 167.761 Q85.6167 159.011 88.6723 154.427 Q91.751 149.821 97.5611 149.821 Z" fill="#000000" fill-rule="evenodd" fill-opacity="1" /><path clip-path="url(#clip510)" d="M117.723 179.126 L122.607 179.126 L122.607 185.006 L117.723 185.006 L117.723 179.126 Z" fill="#000000" fill-rule="evenodd" fill-opacity="1" /><path clip-path="url(#clip510)" d="M143.371 165.862 Q140.223 165.862 138.371 168.015 Q136.542 170.168 136.542 173.918 Q136.542 177.645 138.371 179.821 Q140.223 181.973 143.371 181.973 Q146.519 181.973 148.348 179.821 Q150.2 177.645 150.2 173.918 Q150.2 170.168 148.348 168.015 Q146.519 165.862 143.371 165.862 M152.653 151.21 L152.653 155.469 Q150.894 154.636 149.089 154.196 Q147.306 153.756 145.547 153.756 Q140.917 153.756 138.464 156.881 Q136.033 160.006 135.686 166.325 Q137.052 164.312 139.112 163.247 Q141.172 162.159 143.649 162.159 Q148.857 162.159 151.866 165.33 Q154.899 168.478 154.899 173.918 Q154.899 179.242 151.751 182.46 Q148.603 185.677 143.371 185.677 Q137.376 185.677 134.204 181.094 Q131.033 176.487 131.033 167.761 Q131.033 159.566 134.922 154.705 Q138.811 149.821 145.362 149.821 Q147.121 149.821 148.903 150.168 Q150.709 150.515 152.653 151.21 Z" fill="#000000" fill-rule="evenodd" fill-opacity="1" /><polyline clip-path="url(#clip512)" style="stroke:#009af9; stroke-linecap:butt; stroke-linejoin:round; stroke-width:4; stroke-opacity:1; fill:none" points="
  264.432,1306.17 268.187,1286.83 271.942,1267.61 275.698,1248.53 279.453,1229.57 296.813,1143.68 314.174,1060.73 331.535,980.832 348.896,904.093 366.257,830.603 
  383.618,760.446 400.978,693.693 418.339,630.404 428.772,594.058 439.206,558.991 449.639,525.211 460.072,492.724 470.505,461.537 480.938,431.653 491.371,403.075 
  501.804,375.805 519.447,332.669 537.089,293.27 554.731,257.593 572.373,225.616 581.955,209.788 591.537,195.035 601.12,181.353 610.702,168.732 629.866,146.644 
  649.03,128.698 666.698,115.752 684.366,106.186 702.034,99.9203 719.702,96.8724 738.644,97.0768 757.585,100.76 776.527,107.798 795.469,118.063 817.415,133.815 
  839.361,153.503 861.307,176.904 883.252,203.789 902.755,230.416 922.258,259.443 941.761,290.703 961.264,324.024 978.367,354.807 995.469,386.929 1012.57,420.276 
  1029.67,454.734 1066.97,533.176 1104.26,615.201 1141.77,700.192 1179.29,786.569 1220.76,882.422 1262.24,977.363 1301.7,1065.73 1341.17,1151.21 1361.68,1194.22 
  1382.2,1236.1 1402.72,1276.76 1423.23,1316.09 1457.77,1379.09 1492.31,1437.74 1513.4,1471.27 1534.49,1503.01 1555.57,1532.91 1576.66,1560.93 1595.97,1584.91 
  1615.29,1607.27 1634.6,1627.99 1653.92,1647.07 1671.76,1663.22 1689.6,1677.97 1707.44,1691.31 1725.28,1703.27 1743.35,1713.97 1761.42,1723.27 1779.49,1731.19 
  1797.56,1737.75 1817.81,1743.51 1838.06,1747.64 1858.32,1750.17 1878.57,1751.15 1896.92,1750.75 1915.27,1749.15 1933.62,1746.4 1951.98,1742.55 1972.99,1736.84 
  1994,1729.81 2015.01,1721.54 2036.02,1712.08 2074.93,1691.74 2113.84,1668.11 2152.2,1642.09 2190.56,1613.84 2227.81,1584.73 2265.05,1554.38 2341.41,1490.02 
  2425.08,1419.4 2546.61,1323.97 2571.54,1306.17 
  "/>
<path clip-path="url(#clip510)" d="
M2235.08 209.375 L2559.24 209.375 L2559.24 105.695 L2235.08 105.695  Z
  " fill="#ffffff" fill-rule="evenodd" fill-opacity="1"/>
<polyline clip-path="url(#clip510)" style="stroke:#000000; stroke-linecap:butt; stroke-linejoin:round; stroke-width:4; stroke-opacity:1; fill:none" points="
  2235.08,209.375 2559.24,209.375 2559.24,105.695 2235.08,105.695 2235.08,209.375 
  "/>
<polyline clip-path="url(#clip510)" style="stroke:#009af9; stroke-linecap:butt; stroke-linejoin:round; stroke-width:4; stroke-opacity:1; fill:none" points="
  2262.25,157.535 2425.29,157.535 
  "/>
<path clip-path="url(#clip510)" d="M2466.3 177.223 Q2464.5 181.852 2462.79 183.264 Q2461.07 184.676 2458.2 184.676 L2454.8 184.676 L2454.8 181.112 L2457.3 181.112 Q2459.06 181.112 2460.03 180.278 Q2461 179.445 2462.18 176.343 L2462.95 174.399 L2452.46 148.889 L2456.98 148.889 L2465.08 169.167 L2473.18 148.889 L2477.69 148.889 L2466.3 177.223 Z" fill="#000000" fill-rule="evenodd" fill-opacity="1" /><path clip-path="url(#clip510)" d="M2484.99 170.88 L2492.62 170.88 L2492.62 144.515 L2484.31 146.181 L2484.31 141.922 L2492.58 140.255 L2497.25 140.255 L2497.25 170.88 L2504.89 170.88 L2504.89 174.815 L2484.99 174.815 L2484.99 170.88 Z" fill="#000000" fill-rule="evenodd" fill-opacity="1" /></svg>
