<?xml version="1.0" encoding="utf-8"?>
<svg xmlns="http://www.w3.org/2000/svg" xmlns:xlink="http://www.w3.org/1999/xlink" width="672" height="480" viewBox="0 0 2688 1920">
<defs>
  <clipPath id="clip450">
    <rect x="0" y="0" width="2688" height="1920"/>
  </clipPath>
</defs>
<path clip-path="url(#clip450)" d="
M0 1920 L2688 1920 L2688 0 L0 0  Z
  " fill="#ffffff" fill-rule="evenodd" fill-opacity="1"/>
<defs>
  <clipPath id="clip451">
    <rect x="537" y="0" width="1883" height="1883"/>
  </clipPath>
</defs>
<path clip-path="url(#clip450)" d="
M143.576 1800.78 L2640.76 1800.78 L2640.76 47.2441 L143.576 47.2441  Z
  " fill="#ffffff" fill-rule="evenodd" fill-opacity="1"/>
<defs>
  <clipPath id="clip452">
    <rect x="143" y="47" width="2498" height="1755"/>
  </clipPath>
</defs>
<polyline clip-path="url(#clip452)" style="stroke:#000000; stroke-linecap:butt; stroke-linejoin:round; stroke-width:2; stroke-opacity:0.1; fill:none" points="
  214.25,1800.78 214.25,47.2441 
  "/>
<polyline clip-path="url(#clip452)" style="stroke:#000000; stroke-linecap:butt; stroke-linejoin:round; stroke-width:2; stroke-opacity:0.1; fill:none" points="
  803.208,1800.78 803.208,47.2441 
  "/>
<polyline clip-path="url(#clip452)" style="stroke:#000000; stroke-linecap:butt; stroke-linejoin:round; stroke-width:2; stroke-opacity:0.1; fill:none" points="
  1392.17,1800.78 1392.17,47.2441 
  "/>
<polyline clip-path="url(#clip452)" style="stroke:#000000; stroke-linecap:butt; stroke-linejoin:round; stroke-width:2; stroke-opacity:0.1; fill:none" points="
  1981.12,1800.78 1981.12,47.2441 
  "/>
<polyline clip-path="url(#clip452)" style="stroke:#000000; stroke-linecap:butt; stroke-linejoin:round; stroke-width:2; stroke-opacity:0.1; fill:none" points="
  2570.08,1800.78 2570.08,47.2441 
  "/>
<polyline clip-path="url(#clip450)" style="stroke:#000000; stroke-linecap:butt; stroke-linejoin:round; stroke-width:4; stroke-opacity:1; fill:none" points="
  143.576,1800.78 2640.76,1800.78 
  "/>
<polyline clip-path="url(#clip450)" style="stroke:#000000; stroke-linecap:butt; stroke-linejoin:round; stroke-width:4; stroke-opacity:1; fill:none" points="
  214.25,1800.78 214.25,1781.88 
  "/>
<polyline clip-path="url(#clip450)" style="stroke:#000000; stroke-linecap:butt; stroke-linejoin:round; stroke-width:4; stroke-opacity:1; fill:none" points="
  803.208,1800.78 803.208,1781.88 
  "/>
<polyline clip-path="url(#clip450)" style="stroke:#000000; stroke-linecap:butt; stroke-linejoin:round; stroke-width:4; stroke-opacity:1; fill:none" points="
  1392.17,1800.78 1392.17,1781.88 
  "/>
<polyline clip-path="url(#clip450)" style="stroke:#000000; stroke-linecap:butt; stroke-linejoin:round; stroke-width:4; stroke-opacity:1; fill:none" points="
  1981.12,1800.78 1981.12,1781.88 
  "/>
<polyline clip-path="url(#clip450)" style="stroke:#000000; stroke-linecap:butt; stroke-linejoin:round; stroke-width:4; stroke-opacity:1; fill:none" points="
  2570.08,1800.78 2570.08,1781.88 
  "/>
<path clip-path="url(#clip450)" d="M191.635 1834 Q188.024 1834 186.195 1837.57 Q184.39 1841.11 184.39 1848.24 Q184.39 1855.34 186.195 1858.91 Q188.024 1862.45 191.635 1862.45 Q195.269 1862.45 197.075 1858.91 Q198.903 1855.34 198.903 1848.24 Q198.903 1841.11 197.075 1837.57 Q195.269 1834 191.635 1834 M191.635 1830.3 Q197.445 1830.3 200.501 1834.9 Q203.579 1839.49 203.579 1848.24 Q203.579 1856.96 200.501 1861.57 Q197.445 1866.15 191.635 1866.15 Q185.825 1866.15 182.746 1861.57 Q179.69 1856.96 179.69 1848.24 Q179.69 1839.49 182.746 1834.9 Q185.825 1830.3 191.635 1830.3 Z" fill="#000000" fill-rule="evenodd" fill-opacity="1" /><path clip-path="url(#clip450)" d="M211.797 1859.6 L216.681 1859.6 L216.681 1865.48 L211.797 1865.48 L211.797 1859.6 Z" fill="#000000" fill-rule="evenodd" fill-opacity="1" /><path clip-path="url(#clip450)" d="M236.866 1834 Q233.255 1834 231.426 1837.57 Q229.621 1841.11 229.621 1848.24 Q229.621 1855.34 231.426 1858.91 Q233.255 1862.45 236.866 1862.45 Q240.5 1862.45 242.306 1858.91 Q244.135 1855.34 244.135 1848.24 Q244.135 1841.11 242.306 1837.57 Q240.5 1834 236.866 1834 M236.866 1830.3 Q242.676 1830.3 245.732 1834.9 Q248.81 1839.49 248.81 1848.24 Q248.81 1856.96 245.732 1861.57 Q242.676 1866.15 236.866 1866.15 Q231.056 1866.15 227.977 1861.57 Q224.922 1856.96 224.922 1848.24 Q224.922 1839.49 227.977 1834.9 Q231.056 1830.3 236.866 1830.3 Z" fill="#000000" fill-rule="evenodd" fill-opacity="1" /><path clip-path="url(#clip450)" d="M774.944 1861.55 L791.264 1861.55 L791.264 1865.48 L769.319 1865.48 L769.319 1861.55 Q771.981 1858.79 776.565 1854.16 Q781.171 1849.51 782.352 1848.17 Q784.597 1845.65 785.477 1843.91 Q786.379 1842.15 786.379 1840.46 Q786.379 1837.71 784.435 1835.97 Q782.514 1834.23 779.412 1834.23 Q777.213 1834.23 774.759 1835 Q772.329 1835.76 769.551 1837.31 L769.551 1832.59 Q772.375 1831.46 774.829 1830.88 Q777.282 1830.3 779.319 1830.3 Q784.69 1830.3 787.884 1832.98 Q791.079 1835.67 791.079 1840.16 Q791.079 1842.29 790.268 1844.21 Q789.481 1846.11 787.375 1848.7 Q786.796 1849.37 783.694 1852.59 Q780.592 1855.78 774.944 1861.55 Z" fill="#000000" fill-rule="evenodd" fill-opacity="1" /><path clip-path="url(#clip450)" d="M801.078 1859.6 L805.963 1859.6 L805.963 1865.48 L801.078 1865.48 L801.078 1859.6 Z" fill="#000000" fill-rule="evenodd" fill-opacity="1" /><path clip-path="url(#clip450)" d="M816.194 1830.92 L834.551 1830.92 L834.551 1834.86 L820.477 1834.86 L820.477 1843.33 Q821.495 1842.98 822.514 1842.82 Q823.532 1842.64 824.551 1842.64 Q830.338 1842.64 833.717 1845.81 Q837.097 1848.98 837.097 1854.4 Q837.097 1859.97 833.625 1863.08 Q830.152 1866.15 823.833 1866.15 Q821.657 1866.15 819.389 1865.78 Q817.143 1865.41 814.736 1864.67 L814.736 1859.97 Q816.819 1861.11 819.041 1861.66 Q821.264 1862.22 823.74 1862.22 Q827.745 1862.22 830.083 1860.11 Q832.421 1858.01 832.421 1854.4 Q832.421 1850.78 830.083 1848.68 Q827.745 1846.57 823.74 1846.57 Q821.865 1846.57 819.99 1846.99 Q818.139 1847.4 816.194 1848.28 L816.194 1830.92 Z" fill="#000000" fill-rule="evenodd" fill-opacity="1" /><path clip-path="url(#clip450)" d="M1359.33 1830.92 L1377.69 1830.92 L1377.69 1834.86 L1363.61 1834.86 L1363.61 1843.33 Q1364.63 1842.98 1365.65 1842.82 Q1366.67 1842.64 1367.69 1842.64 Q1373.47 1842.64 1376.85 1845.81 Q1380.23 1848.98 1380.23 1854.4 Q1380.23 1859.97 1376.76 1863.08 Q1373.29 1866.15 1366.97 1866.15 Q1364.79 1866.15 1362.52 1865.78 Q1360.28 1865.41 1357.87 1864.67 L1357.87 1859.97 Q1359.96 1861.11 1362.18 1861.66 Q1364.4 1862.22 1366.88 1862.22 Q1370.88 1862.22 1373.22 1860.11 Q1375.56 1858.01 1375.56 1854.4 Q1375.56 1850.78 1373.22 1848.68 Q1370.88 1846.57 1366.88 1846.57 Q1365 1846.57 1363.13 1846.99 Q1361.27 1847.4 1359.33 1848.28 L1359.33 1830.92 Z" fill="#000000" fill-rule="evenodd" fill-opacity="1" /><path clip-path="url(#clip450)" d="M1389.45 1859.6 L1394.33 1859.6 L1394.33 1865.48 L1389.45 1865.48 L1389.45 1859.6 Z" fill="#000000" fill-rule="evenodd" fill-opacity="1" /><path clip-path="url(#clip450)" d="M1414.52 1834 Q1410.9 1834 1409.08 1837.57 Q1407.27 1841.11 1407.27 1848.24 Q1407.27 1855.34 1409.08 1858.91 Q1410.9 1862.45 1414.52 1862.45 Q1418.15 1862.45 1419.95 1858.91 Q1421.78 1855.34 1421.78 1848.24 Q1421.78 1841.11 1419.95 1837.57 Q1418.15 1834 1414.52 1834 M1414.52 1830.3 Q1420.33 1830.3 1423.38 1834.9 Q1426.46 1839.49 1426.46 1848.24 Q1426.46 1856.96 1423.38 1861.57 Q1420.33 1866.15 1414.52 1866.15 Q1408.7 1866.15 1405.63 1861.57 Q1402.57 1856.96 1402.57 1848.24 Q1402.57 1839.49 1405.63 1834.9 Q1408.7 1830.3 1414.52 1830.3 Z" fill="#000000" fill-rule="evenodd" fill-opacity="1" /><path clip-path="url(#clip450)" d="M1947.44 1830.92 L1969.67 1830.92 L1969.67 1832.91 L1957.12 1865.48 L1952.23 1865.48 L1964.04 1834.86 L1947.44 1834.86 L1947.44 1830.92 Z" fill="#000000" fill-rule="evenodd" fill-opacity="1" /><path clip-path="url(#clip450)" d="M1978.79 1859.6 L1983.67 1859.6 L1983.67 1865.48 L1978.79 1865.48 L1978.79 1859.6 Z" fill="#000000" fill-rule="evenodd" fill-opacity="1" /><path clip-path="url(#clip450)" d="M1993.9 1830.92 L2012.26 1830.92 L2012.26 1834.86 L1998.18 1834.86 L1998.18 1843.33 Q1999.2 1842.98 2000.22 1842.82 Q2001.24 1842.64 2002.26 1842.64 Q2008.04 1842.64 2011.42 1845.81 Q2014.8 1848.98 2014.8 1854.4 Q2014.8 1859.97 2011.33 1863.08 Q2007.86 1866.15 2001.54 1866.15 Q1999.36 1866.15 1997.1 1865.78 Q1994.85 1865.41 1992.44 1864.67 L1992.44 1859.97 Q1994.53 1861.11 1996.75 1861.66 Q1998.97 1862.22 2001.45 1862.22 Q2005.45 1862.22 2007.79 1860.11 Q2010.13 1858.01 2010.13 1854.4 Q2010.13 1850.78 2007.79 1848.68 Q2005.45 1846.57 2001.45 1846.57 Q1999.57 1846.57 1997.7 1846.99 Q1995.85 1847.4 1993.9 1848.28 L1993.9 1830.92 Z" fill="#000000" fill-rule="evenodd" fill-opacity="1" /><path clip-path="url(#clip450)" d="M2522.15 1861.55 L2529.79 1861.55 L2529.79 1835.18 L2521.48 1836.85 L2521.48 1832.59 L2529.75 1830.92 L2534.42 1830.92 L2534.42 1861.55 L2542.06 1861.55 L2542.06 1865.48 L2522.15 1865.48 L2522.15 1861.55 Z" fill="#000000" fill-rule="evenodd" fill-opacity="1" /><path clip-path="url(#clip450)" d="M2561.5 1834 Q2557.89 1834 2556.06 1837.57 Q2554.26 1841.11 2554.26 1848.24 Q2554.26 1855.34 2556.06 1858.91 Q2557.89 1862.45 2561.5 1862.45 Q2565.14 1862.45 2566.94 1858.91 Q2568.77 1855.34 2568.77 1848.24 Q2568.77 1841.11 2566.94 1837.57 Q2565.14 1834 2561.5 1834 M2561.5 1830.3 Q2567.31 1830.3 2570.37 1834.9 Q2573.45 1839.49 2573.45 1848.24 Q2573.45 1856.96 2570.37 1861.57 Q2567.31 1866.15 2561.5 1866.15 Q2555.69 1866.15 2552.62 1861.57 Q2549.56 1856.96 2549.56 1848.24 Q2549.56 1839.49 2552.62 1834.9 Q2555.69 1830.3 2561.5 1830.3 Z" fill="#000000" fill-rule="evenodd" fill-opacity="1" /><path clip-path="url(#clip450)" d="M2581.67 1859.6 L2586.55 1859.6 L2586.55 1865.48 L2581.67 1865.48 L2581.67 1859.6 Z" fill="#000000" fill-rule="evenodd" fill-opacity="1" /><path clip-path="url(#clip450)" d="M2606.74 1834 Q2603.12 1834 2601.3 1837.57 Q2599.49 1841.11 2599.49 1848.24 Q2599.49 1855.34 2601.3 1858.91 Q2603.12 1862.45 2606.74 1862.45 Q2610.37 1862.45 2612.18 1858.91 Q2614 1855.34 2614 1848.24 Q2614 1841.11 2612.18 1837.57 Q2610.37 1834 2606.74 1834 M2606.74 1830.3 Q2612.55 1830.3 2615.6 1834.9 Q2618.68 1839.49 2618.68 1848.24 Q2618.68 1856.96 2615.6 1861.57 Q2612.55 1866.15 2606.74 1866.15 Q2600.93 1866.15 2597.85 1861.57 Q2594.79 1856.96 2594.79 1848.24 Q2594.79 1839.49 2597.85 1834.9 Q2600.93 1830.3 2606.74 1830.3 Z" fill="#000000" fill-rule="evenodd" fill-opacity="1" /><polyline clip-path="url(#clip452)" style="stroke:#000000; stroke-linecap:butt; stroke-linejoin:round; stroke-width:2; stroke-opacity:0.1; fill:none" points="
  143.576,1751.15 2640.76,1751.15 
  "/>
<polyline clip-path="url(#clip452)" style="stroke:#000000; stroke-linecap:butt; stroke-linejoin:round; stroke-width:2; stroke-opacity:0.1; fill:none" points="
  143.576,1420.29 2640.76,1420.29 
  "/>
<polyline clip-path="url(#clip452)" style="stroke:#000000; stroke-linecap:butt; stroke-linejoin:round; stroke-width:2; stroke-opacity:0.1; fill:none" points="
  143.576,1089.43 2640.76,1089.43 
  "/>
<polyline clip-path="url(#clip452)" style="stroke:#000000; stroke-linecap:butt; stroke-linejoin:round; stroke-width:2; stroke-opacity:0.1; fill:none" points="
  143.576,758.563 2640.76,758.563 
  "/>
<polyline clip-path="url(#clip452)" style="stroke:#000000; stroke-linecap:butt; stroke-linejoin:round; stroke-width:2; stroke-opacity:0.1; fill:none" points="
  143.576,427.701 2640.76,427.701 
  "/>
<polyline clip-path="url(#clip452)" style="stroke:#000000; stroke-linecap:butt; stroke-linejoin:round; stroke-width:2; stroke-opacity:0.1; fill:none" points="
  143.576,96.8383 2640.76,96.8383 
  "/>
<polyline clip-path="url(#clip450)" style="stroke:#000000; stroke-linecap:butt; stroke-linejoin:round; stroke-width:4; stroke-opacity:1; fill:none" points="
  143.576,1800.78 143.576,47.2441 
  "/>
<polyline clip-path="url(#clip450)" style="stroke:#000000; stroke-linecap:butt; stroke-linejoin:round; stroke-width:4; stroke-opacity:1; fill:none" points="
  143.576,1751.15 162.473,1751.15 
  "/>
<polyline clip-path="url(#clip450)" style="stroke:#000000; stroke-linecap:butt; stroke-linejoin:round; stroke-width:4; stroke-opacity:1; fill:none" points="
  143.576,1420.29 162.473,1420.29 
  "/>
<polyline clip-path="url(#clip450)" style="stroke:#000000; stroke-linecap:butt; stroke-linejoin:round; stroke-width:4; stroke-opacity:1; fill:none" points="
  143.576,1089.43 162.473,1089.43 
  "/>
<polyline clip-path="url(#clip450)" style="stroke:#000000; stroke-linecap:butt; stroke-linejoin:round; stroke-width:4; stroke-opacity:1; fill:none" points="
  143.576,758.563 162.473,758.563 
  "/>
<polyline clip-path="url(#clip450)" style="stroke:#000000; stroke-linecap:butt; stroke-linejoin:round; stroke-width:4; stroke-opacity:1; fill:none" points="
  143.576,427.701 162.473,427.701 
  "/>
<polyline clip-path="url(#clip450)" style="stroke:#000000; stroke-linecap:butt; stroke-linejoin:round; stroke-width:4; stroke-opacity:1; fill:none" points="
  143.576,96.8383 162.473,96.8383 
  "/>
<path clip-path="url(#clip450)" d="M91.3112 1736.95 Q87.7001 1736.95 85.8714 1740.51 Q84.0658 1744.06 84.0658 1751.19 Q84.0658 1758.29 85.8714 1761.86 Q87.7001 1765.4 91.3112 1765.4 Q94.9454 1765.4 96.7509 1761.86 Q98.5796 1758.29 98.5796 1751.19 Q98.5796 1744.06 96.7509 1740.51 Q94.9454 1736.95 91.3112 1736.95 M91.3112 1733.25 Q97.1213 1733.25 100.177 1737.85 Q103.256 1742.44 103.256 1751.19 Q103.256 1759.91 100.177 1764.52 Q97.1213 1769.1 91.3112 1769.1 Q85.501 1769.1 82.4223 1764.52 Q79.3668 1759.91 79.3668 1751.19 Q79.3668 1742.44 82.4223 1737.85 Q85.501 1733.25 91.3112 1733.25 Z" fill="#000000" fill-rule="evenodd" fill-opacity="1" /><path clip-path="url(#clip450)" d="M82.3529 1403.01 L100.709 1403.01 L100.709 1406.94 L86.6353 1406.94 L86.6353 1415.42 Q87.6538 1415.07 88.6723 1414.91 Q89.6908 1414.72 90.7093 1414.72 Q96.4963 1414.72 99.8759 1417.89 Q103.256 1421.06 103.256 1426.48 Q103.256 1432.06 99.7833 1435.16 Q96.3111 1438.24 89.9917 1438.24 Q87.8158 1438.24 85.5473 1437.87 Q83.3019 1437.5 80.8946 1436.76 L80.8946 1432.06 Q82.9779 1433.19 85.2001 1433.75 Q87.4223 1434.3 89.8991 1434.3 Q93.9037 1434.3 96.2417 1432.2 Q98.5796 1430.09 98.5796 1426.48 Q98.5796 1422.87 96.2417 1420.76 Q93.9037 1418.66 89.8991 1418.66 Q88.0241 1418.66 86.1492 1419.07 Q84.2973 1419.49 82.3529 1420.37 L82.3529 1403.01 Z" fill="#000000" fill-rule="evenodd" fill-opacity="1" /><path clip-path="url(#clip450)" d="M51.9595 1102.77 L59.5984 1102.77 L59.5984 1076.41 L51.2882 1078.07 L51.2882 1073.81 L59.5521 1072.15 L64.228 1072.15 L64.228 1102.77 L71.8668 1102.77 L71.8668 1106.71 L51.9595 1106.71 L51.9595 1102.77 Z" fill="#000000" fill-rule="evenodd" fill-opacity="1" /><path clip-path="url(#clip450)" d="M91.3112 1075.22 Q87.7001 1075.22 85.8714 1078.79 Q84.0658 1082.33 84.0658 1089.46 Q84.0658 1096.57 85.8714 1100.13 Q87.7001 1103.67 91.3112 1103.67 Q94.9454 1103.67 96.7509 1100.13 Q98.5796 1096.57 98.5796 1089.46 Q98.5796 1082.33 96.7509 1078.79 Q94.9454 1075.22 91.3112 1075.22 M91.3112 1071.52 Q97.1213 1071.52 100.177 1076.13 Q103.256 1080.71 103.256 1089.46 Q103.256 1098.19 100.177 1102.79 Q97.1213 1107.38 91.3112 1107.38 Q85.501 1107.38 82.4223 1102.79 Q79.3668 1098.19 79.3668 1089.46 Q79.3668 1080.71 82.4223 1076.13 Q85.501 1071.52 91.3112 1071.52 Z" fill="#000000" fill-rule="evenodd" fill-opacity="1" /><path clip-path="url(#clip450)" d="M52.9549 771.908 L60.5937 771.908 L60.5937 745.543 L52.2836 747.209 L52.2836 742.95 L60.5474 741.283 L65.2233 741.283 L65.2233 771.908 L72.8622 771.908 L72.8622 775.843 L52.9549 775.843 L52.9549 771.908 Z" fill="#000000" fill-rule="evenodd" fill-opacity="1" /><path clip-path="url(#clip450)" d="M82.3529 741.283 L100.709 741.283 L100.709 745.218 L86.6353 745.218 L86.6353 753.691 Q87.6538 753.343 88.6723 753.181 Q89.6908 752.996 90.7093 752.996 Q96.4963 752.996 99.8759 756.168 Q103.256 759.339 103.256 764.755 Q103.256 770.334 99.7833 773.436 Q96.3111 776.515 89.9917 776.515 Q87.8158 776.515 85.5473 776.144 Q83.3019 775.774 80.8946 775.033 L80.8946 770.334 Q82.9779 771.468 85.2001 772.024 Q87.4223 772.579 89.8991 772.579 Q93.9037 772.579 96.2417 770.473 Q98.5796 768.367 98.5796 764.755 Q98.5796 761.144 96.2417 759.038 Q93.9037 756.931 89.8991 756.931 Q88.0241 756.931 86.1492 757.348 Q84.2973 757.765 82.3529 758.644 L82.3529 741.283 Z" fill="#000000" fill-rule="evenodd" fill-opacity="1" /><path clip-path="url(#clip450)" d="M55.1771 441.046 L71.4965 441.046 L71.4965 444.981 L49.5521 444.981 L49.5521 441.046 Q52.2141 438.291 56.7975 433.661 Q61.4039 429.009 62.5845 427.666 Q64.8298 425.143 65.7094 423.407 Q66.6122 421.648 66.6122 419.958 Q66.6122 417.203 64.6678 415.467 Q62.7465 413.731 59.6447 413.731 Q57.4456 413.731 54.9919 414.495 Q52.5614 415.259 49.7836 416.81 L49.7836 412.087 Q52.6077 410.953 55.0614 410.374 Q57.515 409.796 59.5521 409.796 Q64.9224 409.796 68.1168 412.481 Q71.3113 415.166 71.3113 419.657 Q71.3113 421.786 70.5011 423.708 Q69.7141 425.606 67.6076 428.198 Q67.0289 428.87 63.927 432.087 Q60.8252 435.282 55.1771 441.046 Z" fill="#000000" fill-rule="evenodd" fill-opacity="1" /><path clip-path="url(#clip450)" d="M91.3112 413.499 Q87.7001 413.499 85.8714 417.064 Q84.0658 420.606 84.0658 427.736 Q84.0658 434.842 85.8714 438.407 Q87.7001 441.948 91.3112 441.948 Q94.9454 441.948 96.7509 438.407 Q98.5796 434.842 98.5796 427.736 Q98.5796 420.606 96.7509 417.064 Q94.9454 413.499 91.3112 413.499 M91.3112 409.796 Q97.1213 409.796 100.177 414.402 Q103.256 418.986 103.256 427.736 Q103.256 436.462 100.177 441.069 Q97.1213 445.652 91.3112 445.652 Q85.501 445.652 82.4223 441.069 Q79.3668 436.462 79.3668 427.736 Q79.3668 418.986 82.4223 414.402 Q85.501 409.796 91.3112 409.796 Z" fill="#000000" fill-rule="evenodd" fill-opacity="1" /><path clip-path="url(#clip450)" d="M56.1725 110.183 L72.4918 110.183 L72.4918 114.118 L50.5475 114.118 L50.5475 110.183 Q53.2095 107.428 57.7928 102.799 Q62.3993 98.1461 63.5798 96.8035 Q65.8252 94.2804 66.7048 92.5443 Q67.6076 90.785 67.6076 89.0952 Q67.6076 86.3406 65.6632 84.6045 Q63.7419 82.8684 60.64 82.8684 Q58.441 82.8684 55.9873 83.6323 Q53.5567 84.3962 50.779 85.9471 L50.779 81.2249 Q53.603 80.0907 56.0567 79.512 Q58.5104 78.9333 60.5474 78.9333 Q65.9178 78.9333 69.1122 81.6184 Q72.3066 84.3036 72.3066 88.7943 Q72.3066 90.9239 71.4965 92.8452 Q70.7094 94.7434 68.6029 97.3359 Q68.0242 98.0072 64.9224 101.225 Q61.8206 104.419 56.1725 110.183 Z" fill="#000000" fill-rule="evenodd" fill-opacity="1" /><path clip-path="url(#clip450)" d="M82.3529 79.5583 L100.709 79.5583 L100.709 83.4934 L86.6353 83.4934 L86.6353 91.9656 Q87.6538 91.6184 88.6723 91.4563 Q89.6908 91.2712 90.7093 91.2712 Q96.4963 91.2712 99.8759 94.4424 Q103.256 97.6137 103.256 103.03 Q103.256 108.609 99.7833 111.711 Q96.3111 114.79 89.9917 114.79 Q87.8158 114.79 85.5473 114.419 Q83.3019 114.049 80.8946 113.308 L80.8946 108.609 Q82.9779 109.743 85.2001 110.299 Q87.4223 110.854 89.8991 110.854 Q93.9037 110.854 96.2417 108.748 Q98.5796 106.641 98.5796 103.03 Q98.5796 99.4193 96.2417 97.3128 Q93.9037 95.2063 89.8991 95.2063 Q88.0241 95.2063 86.1492 95.623 Q84.2973 96.0396 82.3529 96.9193 L82.3529 79.5583 Z" fill="#000000" fill-rule="evenodd" fill-opacity="1" /><polyline clip-path="url(#clip452)" style="stroke:#009af9; stroke-linecap:butt; stroke-linejoin:round; stroke-width:4; stroke-opacity:1; fill:none" points="
  214.25,1751.15 218.085,1740.4 221.919,1729.68 225.754,1719 229.588,1708.35 265.043,1611.56 300.498,1517.76 335.953,1426.96 371.408,1339.16 414.022,1237.6 
  456.635,1140.37 492.665,1061.54 528.694,985.805 567.832,907.044 606.971,831.936 643.052,765.928 679.134,703.026 717.818,639.036 756.501,578.614 778.911,545.245 
  801.32,513.072 823.729,482.098 846.139,452.32 885.968,402.351 925.798,356.165 960.725,318.777 995.652,284.297 1033.73,250.021 1071.81,219.202 1110.12,191.688 
  1148.42,167.674 1190.78,145.196 1233.13,126.995 1273.42,113.649 1313.72,104.175 1355.62,98.4306 1397.52,96.8724 1432.79,98.8061 1468.06,103.706 1489.59,108.156 
  1511.12,113.711 1532.65,120.371 1554.19,128.137 1593.63,145.233 1633.08,166.039 1669.51,188.551 1705.94,214.229 1742.85,243.467 1779.75,275.952 1821.11,316.218 
  1862.47,360.564 1899.95,404.271 1937.43,451.328 1958.89,479.774 1980.34,509.318 2001.8,539.96 2023.25,571.699 2062.98,633.373 2102.71,698.811 2141.88,767.011 
  2181.06,838.869 2219.09,912.138 2257.12,988.856 2296.1,1071.08 2335.09,1156.93 2356.45,1205.5 2377.81,1255.15 2399.16,1305.9 2420.52,1357.72 2451.55,1434.95 
  2482.57,1514.48 2513.6,1596.3 2544.62,1680.41 2550.99,1697.95 2557.35,1715.59 2563.72,1733.32 2570.08,1751.15 
  "/>
<path clip-path="url(#clip450)" d="
M2227.62 209.375 L2557.52 209.375 L2557.52 105.695 L2227.62 105.695  Z
  " fill="#ffffff" fill-rule="evenodd" fill-opacity="1"/>
<polyline clip-path="url(#clip450)" style="stroke:#000000; stroke-linecap:butt; stroke-linejoin:round; stroke-width:4; stroke-opacity:1; fill:none" points="
  2227.62,209.375 2557.52,209.375 2557.52,105.695 2227.62,105.695 2227.62,209.375 
  "/>
<polyline clip-path="url(#clip450)" style="stroke:#009af9; stroke-linecap:butt; stroke-linejoin:round; stroke-width:4; stroke-opacity:1; fill:none" points="
  2255.37,157.535 2421.85,157.535 
  "/>
<path clip-path="url(#clip450)" d="M2463.44 177.223 Q2461.63 181.852 2459.92 183.264 Q2458.2 184.676 2455.33 184.676 L2451.93 184.676 L2451.93 181.112 L2454.43 181.112 Q2456.19 181.112 2457.16 180.278 Q2458.14 179.445 2459.32 176.343 L2460.08 174.399 L2449.59 148.889 L2454.11 148.889 L2462.21 169.167 L2470.31 148.889 L2474.82 148.889 L2463.44 177.223 Z" fill="#000000" fill-rule="evenodd" fill-opacity="1" /><path clip-path="url(#clip450)" d="M2482.12 170.88 L2489.76 170.88 L2489.76 144.515 L2481.45 146.181 L2481.45 141.922 L2489.71 140.255 L2494.38 140.255 L2494.38 170.88 L2502.02 170.88 L2502.02 174.815 L2482.12 174.815 L2482.12 170.88 Z" fill="#000000" fill-rule="evenodd" fill-opacity="1" /></svg>
