<?xml version="1.0" encoding="utf-8"?>
<svg xmlns="http://www.w3.org/2000/svg" xmlns:xlink="http://www.w3.org/1999/xlink" width="672" height="480" viewBox="0 0 2688 1920">
<defs>
  <clipPath id="clip980">
    <rect x="0" y="0" width="2688" height="1920"/>
  </clipPath>
</defs>
<path clip-path="url(#clip980)" d="
M0 1920 L2688 1920 L2688 0 L0 0  Z
  " fill="#ffffff" fill-rule="evenodd" fill-opacity="1"/>
<defs>
  <clipPath id="clip981">
    <rect x="537" y="0" width="1883" height="1883"/>
  </clipPath>
</defs>
<path clip-path="url(#clip980)" d="
M159.478 1800.78 L2640.76 1800.78 L2640.76 47.2441 L159.478 47.2441  Z
  " fill="#ffffff" fill-rule="evenodd" fill-opacity="1"/>
<defs>
  <clipPath id="clip982">
    <rect x="159" y="47" width="2482" height="1755"/>
  </clipPath>
</defs>
<polyline clip-path="url(#clip982)" style="stroke:#000000; stroke-linecap:round; stroke-linejoin:round; stroke-width:2; stroke-opacity:0.1; fill:none" points="
  229.703,1800.78 229.703,47.2441 
  "/>
<polyline clip-path="url(#clip982)" style="stroke:#000000; stroke-linecap:round; stroke-linejoin:round; stroke-width:2; stroke-opacity:0.1; fill:none" points="
  814.91,1800.78 814.91,47.2441 
  "/>
<polyline clip-path="url(#clip982)" style="stroke:#000000; stroke-linecap:round; stroke-linejoin:round; stroke-width:2; stroke-opacity:0.1; fill:none" points="
  1400.12,1800.78 1400.12,47.2441 
  "/>
<polyline clip-path="url(#clip982)" style="stroke:#000000; stroke-linecap:round; stroke-linejoin:round; stroke-width:2; stroke-opacity:0.1; fill:none" points="
  1985.32,1800.78 1985.32,47.2441 
  "/>
<polyline clip-path="url(#clip982)" style="stroke:#000000; stroke-linecap:round; stroke-linejoin:round; stroke-width:2; stroke-opacity:0.1; fill:none" points="
  2570.53,1800.78 2570.53,47.2441 
  "/>
<polyline clip-path="url(#clip980)" style="stroke:#000000; stroke-linecap:round; stroke-linejoin:round; stroke-width:4; stroke-opacity:1; fill:none" points="
  159.478,1800.78 2640.76,1800.78 
  "/>
<polyline clip-path="url(#clip980)" style="stroke:#000000; stroke-linecap:round; stroke-linejoin:round; stroke-width:4; stroke-opacity:1; fill:none" points="
  229.703,1800.78 229.703,1781.88 
  "/>
<polyline clip-path="url(#clip980)" style="stroke:#000000; stroke-linecap:round; stroke-linejoin:round; stroke-width:4; stroke-opacity:1; fill:none" points="
  814.91,1800.78 814.91,1781.88 
  "/>
<polyline clip-path="url(#clip980)" style="stroke:#000000; stroke-linecap:round; stroke-linejoin:round; stroke-width:4; stroke-opacity:1; fill:none" points="
  1400.12,1800.78 1400.12,1781.88 
  "/>
<polyline clip-path="url(#clip980)" style="stroke:#000000; stroke-linecap:round; stroke-linejoin:round; stroke-width:4; stroke-opacity:1; fill:none" points="
  1985.32,1800.78 1985.32,1781.88 
  "/>
<polyline clip-path="url(#clip980)" style="stroke:#000000; stroke-linecap:round; stroke-linejoin:round; stroke-width:4; stroke-opacity:1; fill:none" points="
  2570.53,1800.78 2570.53,1781.88 
  "/>
<path clip-path="url(#clip980)" d="M229.703 1834 Q226.092 1834 224.263 1837.57 Q222.458 1841.11 222.458 1848.24 Q222.458 1855.34 224.263 1858.91 Q226.092 1862.45 229.703 1862.45 Q233.337 1862.45 235.143 1858.91 Q236.972 1855.34 236.972 1848.24 Q236.972 1841.11 235.143 1837.57 Q233.337 1834 229.703 1834 M229.703 1830.3 Q235.513 1830.3 238.569 1834.9 Q241.647 1839.49 241.647 1848.24 Q241.647 1856.96 238.569 1861.57 Q235.513 1866.15 229.703 1866.15 Q223.893 1866.15 220.814 1861.57 Q217.759 1856.96 217.759 1848.24 Q217.759 1839.49 220.814 1834.9 Q223.893 1830.3 229.703 1830.3 Z" fill="#000000" fill-rule="evenodd" fill-opacity="1" /><path clip-path="url(#clip980)" d="M794.181 1861.55 L810.5 1861.55 L810.5 1865.48 L788.556 1865.48 L788.556 1861.55 Q791.218 1858.79 795.801 1854.16 Q800.408 1849.51 801.588 1848.17 Q803.834 1845.65 804.713 1843.91 Q805.616 1842.15 805.616 1840.46 Q805.616 1837.71 803.672 1835.97 Q801.75 1834.23 798.649 1834.23 Q796.45 1834.23 793.996 1835 Q791.565 1835.76 788.788 1837.31 L788.788 1832.59 Q791.612 1831.46 794.065 1830.88 Q796.519 1830.3 798.556 1830.3 Q803.926 1830.3 807.121 1832.98 Q810.315 1835.67 810.315 1840.16 Q810.315 1842.29 809.505 1844.21 Q808.718 1846.11 806.612 1848.7 Q806.033 1849.37 802.931 1852.59 Q799.829 1855.78 794.181 1861.55 Z" fill="#000000" fill-rule="evenodd" fill-opacity="1" /><path clip-path="url(#clip980)" d="M820.361 1830.92 L838.718 1830.92 L838.718 1834.86 L824.644 1834.86 L824.644 1843.33 Q825.662 1842.98 826.681 1842.82 Q827.699 1842.64 828.718 1842.64 Q834.505 1842.64 837.884 1845.81 Q841.264 1848.98 841.264 1854.4 Q841.264 1859.97 837.792 1863.08 Q834.32 1866.15 828 1866.15 Q825.824 1866.15 823.556 1865.78 Q821.311 1865.41 818.903 1864.67 L818.903 1859.97 Q820.986 1861.11 823.209 1861.66 Q825.431 1862.22 827.908 1862.22 Q831.912 1862.22 834.25 1860.11 Q836.588 1858.01 836.588 1854.4 Q836.588 1850.78 834.25 1848.68 Q831.912 1846.57 827.908 1846.57 Q826.033 1846.57 824.158 1846.99 Q822.306 1847.4 820.361 1848.28 L820.361 1830.92 Z" fill="#000000" fill-rule="evenodd" fill-opacity="1" /><path clip-path="url(#clip980)" d="M1374.82 1830.92 L1393.17 1830.92 L1393.17 1834.86 L1379.1 1834.86 L1379.1 1843.33 Q1380.12 1842.98 1381.14 1842.82 Q1382.15 1842.64 1383.17 1842.64 Q1388.96 1842.64 1392.34 1845.81 Q1395.72 1848.98 1395.72 1854.4 Q1395.72 1859.97 1392.25 1863.08 Q1388.77 1866.15 1382.46 1866.15 Q1380.28 1866.15 1378.01 1865.78 Q1375.77 1865.41 1373.36 1864.67 L1373.36 1859.97 Q1375.44 1861.11 1377.66 1861.66 Q1379.89 1862.22 1382.36 1862.22 Q1386.37 1862.22 1388.71 1860.11 Q1391.04 1858.01 1391.04 1854.4 Q1391.04 1850.78 1388.71 1848.68 Q1386.37 1846.57 1382.36 1846.57 Q1380.49 1846.57 1378.61 1846.99 Q1376.76 1847.4 1374.82 1848.28 L1374.82 1830.92 Z" fill="#000000" fill-rule="evenodd" fill-opacity="1" /><path clip-path="url(#clip980)" d="M1414.93 1834 Q1411.32 1834 1409.49 1837.57 Q1407.69 1841.11 1407.69 1848.24 Q1407.69 1855.34 1409.49 1858.91 Q1411.32 1862.45 1414.93 1862.45 Q1418.57 1862.45 1420.37 1858.91 Q1422.2 1855.34 1422.2 1848.24 Q1422.2 1841.11 1420.37 1837.57 Q1418.57 1834 1414.93 1834 M1414.93 1830.3 Q1420.74 1830.3 1423.8 1834.9 Q1426.88 1839.49 1426.88 1848.24 Q1426.88 1856.96 1423.8 1861.57 Q1420.74 1866.15 1414.93 1866.15 Q1409.12 1866.15 1406.04 1861.57 Q1402.99 1856.96 1402.99 1848.24 Q1402.99 1839.49 1406.04 1834.9 Q1409.12 1830.3 1414.93 1830.3 Z" fill="#000000" fill-rule="evenodd" fill-opacity="1" /><path clip-path="url(#clip980)" d="M1959.18 1830.92 L1981.4 1830.92 L1981.4 1832.91 L1968.85 1865.48 L1963.97 1865.48 L1975.78 1834.86 L1959.18 1834.86 L1959.18 1830.92 Z" fill="#000000" fill-rule="evenodd" fill-opacity="1" /><path clip-path="url(#clip980)" d="M1990.57 1830.92 L2008.92 1830.92 L2008.92 1834.86 L1994.85 1834.86 L1994.85 1843.33 Q1995.87 1842.98 1996.89 1842.82 Q1997.91 1842.64 1998.92 1842.64 Q2004.71 1842.64 2008.09 1845.81 Q2011.47 1848.98 2011.47 1854.4 Q2011.47 1859.97 2008 1863.08 Q2004.53 1866.15 1998.21 1866.15 Q1996.03 1866.15 1993.76 1865.78 Q1991.52 1865.41 1989.11 1864.67 L1989.11 1859.97 Q1991.19 1861.11 1993.41 1861.66 Q1995.64 1862.22 1998.11 1862.22 Q2002.12 1862.22 2004.46 1860.11 Q2006.79 1858.01 2006.79 1854.4 Q2006.79 1850.78 2004.46 1848.68 Q2002.12 1846.57 1998.11 1846.57 Q1996.24 1846.57 1994.36 1846.99 Q1992.51 1847.4 1990.57 1848.28 L1990.57 1830.92 Z" fill="#000000" fill-rule="evenodd" fill-opacity="1" /><path clip-path="url(#clip980)" d="M2530.14 1861.55 L2537.78 1861.55 L2537.78 1835.18 L2529.47 1836.85 L2529.47 1832.59 L2537.73 1830.92 L2542.41 1830.92 L2542.41 1861.55 L2550.05 1861.55 L2550.05 1865.48 L2530.14 1865.48 L2530.14 1861.55 Z" fill="#000000" fill-rule="evenodd" fill-opacity="1" /><path clip-path="url(#clip980)" d="M2569.49 1834 Q2565.88 1834 2564.05 1837.57 Q2562.24 1841.11 2562.24 1848.24 Q2562.24 1855.34 2564.05 1858.91 Q2565.88 1862.45 2569.49 1862.45 Q2573.12 1862.45 2574.93 1858.91 Q2576.76 1855.34 2576.76 1848.24 Q2576.76 1841.11 2574.93 1837.57 Q2573.12 1834 2569.49 1834 M2569.49 1830.3 Q2575.3 1830.3 2578.36 1834.9 Q2581.43 1839.49 2581.43 1848.24 Q2581.43 1856.96 2578.36 1861.57 Q2575.3 1866.15 2569.49 1866.15 Q2563.68 1866.15 2560.6 1861.57 Q2557.55 1856.96 2557.55 1848.24 Q2557.55 1839.49 2560.6 1834.9 Q2563.68 1830.3 2569.49 1830.3 Z" fill="#000000" fill-rule="evenodd" fill-opacity="1" /><path clip-path="url(#clip980)" d="M2599.65 1834 Q2596.04 1834 2594.21 1837.57 Q2592.41 1841.11 2592.41 1848.24 Q2592.41 1855.34 2594.21 1858.91 Q2596.04 1862.45 2599.65 1862.45 Q2603.29 1862.45 2605.09 1858.91 Q2606.92 1855.34 2606.92 1848.24 Q2606.92 1841.11 2605.09 1837.57 Q2603.29 1834 2599.65 1834 M2599.65 1830.3 Q2605.46 1830.3 2608.52 1834.9 Q2611.6 1839.49 2611.6 1848.24 Q2611.6 1856.96 2608.52 1861.57 Q2605.46 1866.15 2599.65 1866.15 Q2593.84 1866.15 2590.76 1861.57 Q2587.71 1856.96 2587.71 1848.24 Q2587.71 1839.49 2590.76 1834.9 Q2593.84 1830.3 2599.65 1830.3 Z" fill="#000000" fill-rule="evenodd" fill-opacity="1" /><polyline clip-path="url(#clip982)" style="stroke:#000000; stroke-linecap:round; stroke-linejoin:round; stroke-width:2; stroke-opacity:0.1; fill:none" points="
  159.478,1751.15 2640.76,1751.15 
  "/>
<polyline clip-path="url(#clip982)" style="stroke:#000000; stroke-linecap:round; stroke-linejoin:round; stroke-width:2; stroke-opacity:0.1; fill:none" points="
  159.478,1365.37 2640.76,1365.37 
  "/>
<polyline clip-path="url(#clip982)" style="stroke:#000000; stroke-linecap:round; stroke-linejoin:round; stroke-width:2; stroke-opacity:0.1; fill:none" points="
  159.478,979.587 2640.76,979.587 
  "/>
<polyline clip-path="url(#clip982)" style="stroke:#000000; stroke-linecap:round; stroke-linejoin:round; stroke-width:2; stroke-opacity:0.1; fill:none" points="
  159.478,593.805 2640.76,593.805 
  "/>
<polyline clip-path="url(#clip982)" style="stroke:#000000; stroke-linecap:round; stroke-linejoin:round; stroke-width:2; stroke-opacity:0.1; fill:none" points="
  159.478,208.023 2640.76,208.023 
  "/>
<polyline clip-path="url(#clip980)" style="stroke:#000000; stroke-linecap:round; stroke-linejoin:round; stroke-width:4; stroke-opacity:1; fill:none" points="
  159.478,1800.78 159.478,47.2441 
  "/>
<polyline clip-path="url(#clip980)" style="stroke:#000000; stroke-linecap:round; stroke-linejoin:round; stroke-width:4; stroke-opacity:1; fill:none" points="
  159.478,1751.15 178.376,1751.15 
  "/>
<polyline clip-path="url(#clip980)" style="stroke:#000000; stroke-linecap:round; stroke-linejoin:round; stroke-width:4; stroke-opacity:1; fill:none" points="
  159.478,1365.37 178.376,1365.37 
  "/>
<polyline clip-path="url(#clip980)" style="stroke:#000000; stroke-linecap:round; stroke-linejoin:round; stroke-width:4; stroke-opacity:1; fill:none" points="
  159.478,979.587 178.376,979.587 
  "/>
<polyline clip-path="url(#clip980)" style="stroke:#000000; stroke-linecap:round; stroke-linejoin:round; stroke-width:4; stroke-opacity:1; fill:none" points="
  159.478,593.805 178.376,593.805 
  "/>
<polyline clip-path="url(#clip980)" style="stroke:#000000; stroke-linecap:round; stroke-linejoin:round; stroke-width:4; stroke-opacity:1; fill:none" points="
  159.478,208.023 178.376,208.023 
  "/>
<path clip-path="url(#clip980)" d="M61.9826 1736.95 Q58.3715 1736.95 56.5428 1740.51 Q54.7373 1744.06 54.7373 1751.19 Q54.7373 1758.29 56.5428 1761.86 Q58.3715 1765.4 61.9826 1765.4 Q65.6169 1765.4 67.4224 1761.86 Q69.2511 1758.29 69.2511 1751.19 Q69.2511 1744.06 67.4224 1740.51 Q65.6169 1736.95 61.9826 1736.95 M61.9826 1733.25 Q67.7928 1733.25 70.8483 1737.85 Q73.927 1742.44 73.927 1751.19 Q73.927 1759.91 70.8483 1764.52 Q67.7928 1769.1 61.9826 1769.1 Q56.1725 1769.1 53.0938 1764.52 Q50.0382 1759.91 50.0382 1751.19 Q50.0382 1742.44 53.0938 1737.85 Q56.1725 1733.25 61.9826 1733.25 Z" fill="#000000" fill-rule="evenodd" fill-opacity="1" /><path clip-path="url(#clip980)" d="M82.1445 1762.55 L87.0288 1762.55 L87.0288 1768.43 L82.1445 1768.43 L82.1445 1762.55 Z" fill="#000000" fill-rule="evenodd" fill-opacity="1" /><path clip-path="url(#clip980)" d="M107.214 1736.95 Q103.603 1736.95 101.774 1740.51 Q99.9685 1744.06 99.9685 1751.19 Q99.9685 1758.29 101.774 1761.86 Q103.603 1765.4 107.214 1765.4 Q110.848 1765.4 112.654 1761.86 Q114.482 1758.29 114.482 1751.19 Q114.482 1744.06 112.654 1740.51 Q110.848 1736.95 107.214 1736.95 M107.214 1733.25 Q113.024 1733.25 116.08 1737.85 Q119.158 1742.44 119.158 1751.19 Q119.158 1759.91 116.08 1764.52 Q113.024 1769.1 107.214 1769.1 Q101.404 1769.1 98.325 1764.52 Q95.2695 1759.91 95.2695 1751.19 Q95.2695 1742.44 98.325 1737.85 Q101.404 1733.25 107.214 1733.25 Z" fill="#000000" fill-rule="evenodd" fill-opacity="1" /><path clip-path="url(#clip980)" d="M63.2095 1351.17 Q59.5984 1351.17 57.7697 1354.73 Q55.9641 1358.27 55.9641 1365.4 Q55.9641 1372.51 57.7697 1376.07 Q59.5984 1379.62 63.2095 1379.62 Q66.8437 1379.62 68.6492 1376.07 Q70.4779 1372.51 70.4779 1365.4 Q70.4779 1358.27 68.6492 1354.73 Q66.8437 1351.17 63.2095 1351.17 M63.2095 1347.46 Q69.0196 1347.46 72.0752 1352.07 Q75.1538 1356.65 75.1538 1365.4 Q75.1538 1374.13 72.0752 1378.74 Q69.0196 1383.32 63.2095 1383.32 Q57.3993 1383.32 54.3206 1378.74 Q51.2651 1374.13 51.2651 1365.4 Q51.2651 1356.65 54.3206 1352.07 Q57.3993 1347.46 63.2095 1347.46 Z" fill="#000000" fill-rule="evenodd" fill-opacity="1" /><path clip-path="url(#clip980)" d="M83.3714 1376.77 L88.2556 1376.77 L88.2556 1382.65 L83.3714 1382.65 L83.3714 1376.77 Z" fill="#000000" fill-rule="evenodd" fill-opacity="1" /><path clip-path="url(#clip980)" d="M99.2509 1378.71 L106.89 1378.71 L106.89 1352.35 L98.5796 1354.01 L98.5796 1349.76 L106.843 1348.09 L111.519 1348.09 L111.519 1378.71 L119.158 1378.71 L119.158 1382.65 L99.2509 1382.65 L99.2509 1378.71 Z" fill="#000000" fill-rule="evenodd" fill-opacity="1" /><path clip-path="url(#clip980)" d="M63.5798 965.386 Q59.9687 965.386 58.14 968.951 Q56.3345 972.492 56.3345 979.622 Q56.3345 986.728 58.14 990.293 Q59.9687 993.835 63.5798 993.835 Q67.2141 993.835 69.0196 990.293 Q70.8483 986.728 70.8483 979.622 Q70.8483 972.492 69.0196 968.951 Q67.2141 965.386 63.5798 965.386 M63.5798 961.682 Q69.39 961.682 72.4455 966.289 Q75.5242 970.872 75.5242 979.622 Q75.5242 988.349 72.4455 992.955 Q69.39 997.538 63.5798 997.538 Q57.7697 997.538 54.691 992.955 Q51.6354 988.349 51.6354 979.622 Q51.6354 970.872 54.691 966.289 Q57.7697 961.682 63.5798 961.682 Z" fill="#000000" fill-rule="evenodd" fill-opacity="1" /><path clip-path="url(#clip980)" d="M83.7418 990.988 L88.626 990.988 L88.626 996.867 L83.7418 996.867 L83.7418 990.988 Z" fill="#000000" fill-rule="evenodd" fill-opacity="1" /><path clip-path="url(#clip980)" d="M102.839 992.932 L119.158 992.932 L119.158 996.867 L97.2139 996.867 L97.2139 992.932 Q99.8759 990.177 104.459 985.548 Q109.066 980.895 110.246 979.552 Q112.492 977.029 113.371 975.293 Q114.274 973.534 114.274 971.844 Q114.274 969.09 112.33 967.353 Q110.408 965.617 107.306 965.617 Q105.107 965.617 102.654 966.381 Q100.223 967.145 97.4454 968.696 L97.4454 963.974 Q100.269 962.84 102.723 962.261 Q105.177 961.682 107.214 961.682 Q112.584 961.682 115.779 964.367 Q118.973 967.052 118.973 971.543 Q118.973 973.673 118.163 975.594 Q117.376 977.492 115.269 980.085 Q114.691 980.756 111.589 983.974 Q108.487 987.168 102.839 992.932 Z" fill="#000000" fill-rule="evenodd" fill-opacity="1" /><path clip-path="url(#clip980)" d="M62.6308 579.604 Q59.0197 579.604 57.191 583.169 Q55.3854 586.71 55.3854 593.84 Q55.3854 600.946 57.191 604.511 Q59.0197 608.053 62.6308 608.053 Q66.265 608.053 68.0705 604.511 Q69.8992 600.946 69.8992 593.84 Q69.8992 586.71 68.0705 583.169 Q66.265 579.604 62.6308 579.604 M62.6308 575.9 Q68.4409 575.9 71.4965 580.507 Q74.5751 585.09 74.5751 593.84 Q74.5751 602.567 71.4965 607.173 Q68.4409 611.757 62.6308 611.757 Q56.8206 611.757 53.7419 607.173 Q50.6864 602.567 50.6864 593.84 Q50.6864 585.09 53.7419 580.507 Q56.8206 575.9 62.6308 575.9 Z" fill="#000000" fill-rule="evenodd" fill-opacity="1" /><path clip-path="url(#clip980)" d="M82.7927 605.206 L87.6769 605.206 L87.6769 611.085 L82.7927 611.085 L82.7927 605.206 Z" fill="#000000" fill-rule="evenodd" fill-opacity="1" /><path clip-path="url(#clip980)" d="M112.029 592.451 Q115.385 593.169 117.26 595.437 Q119.158 597.706 119.158 601.039 Q119.158 606.155 115.64 608.956 Q112.121 611.757 105.64 611.757 Q103.464 611.757 101.149 611.317 Q98.8574 610.9 96.4037 610.044 L96.4037 605.53 Q98.3482 606.664 100.663 607.243 Q102.978 607.821 105.501 607.821 Q109.899 607.821 112.191 606.085 Q114.505 604.349 114.505 601.039 Q114.505 597.983 112.353 596.27 Q110.223 594.534 106.404 594.534 L102.376 594.534 L102.376 590.692 L106.589 590.692 Q110.038 590.692 111.867 589.326 Q113.695 587.937 113.695 585.345 Q113.695 582.683 111.797 581.271 Q109.922 579.835 106.404 579.835 Q104.482 579.835 102.283 580.252 Q100.084 580.669 97.4454 581.548 L97.4454 577.382 Q100.107 576.641 102.422 576.271 Q104.76 575.9 106.82 575.9 Q112.144 575.9 115.246 578.331 Q118.348 580.738 118.348 584.859 Q118.348 587.729 116.705 589.72 Q115.061 591.687 112.029 592.451 Z" fill="#000000" fill-rule="evenodd" fill-opacity="1" /><path clip-path="url(#clip980)" d="M61.4965 193.822 Q57.8854 193.822 56.0567 197.387 Q54.2512 200.928 54.2512 208.058 Q54.2512 215.164 56.0567 218.729 Q57.8854 222.271 61.4965 222.271 Q65.1307 222.271 66.9363 218.729 Q68.765 215.164 68.765 208.058 Q68.765 200.928 66.9363 197.387 Q65.1307 193.822 61.4965 193.822 M61.4965 190.118 Q67.3067 190.118 70.3622 194.725 Q73.4409 199.308 73.4409 208.058 Q73.4409 216.785 70.3622 221.391 Q67.3067 225.975 61.4965 225.975 Q55.6864 225.975 52.6077 221.391 Q49.5521 216.785 49.5521 208.058 Q49.5521 199.308 52.6077 194.725 Q55.6864 190.118 61.4965 190.118 Z" fill="#000000" fill-rule="evenodd" fill-opacity="1" /><path clip-path="url(#clip980)" d="M81.6584 219.424 L86.5427 219.424 L86.5427 225.303 L81.6584 225.303 L81.6584 219.424 Z" fill="#000000" fill-rule="evenodd" fill-opacity="1" /><path clip-path="url(#clip980)" d="M109.575 194.817 L97.7695 213.266 L109.575 213.266 L109.575 194.817 M108.348 190.743 L114.228 190.743 L114.228 213.266 L119.158 213.266 L119.158 217.155 L114.228 217.155 L114.228 225.303 L109.575 225.303 L109.575 217.155 L93.9732 217.155 L93.9732 212.641 L108.348 190.743 Z" fill="#000000" fill-rule="evenodd" fill-opacity="1" /><polyline clip-path="url(#clip982)" style="stroke:#009af9; stroke-linecap:round; stroke-linejoin:round; stroke-width:4; stroke-opacity:1; fill:none" points="
  229.703,1751.15 230.179,1672.69 230.656,1594.43 231.132,1516.56 231.608,1439.27 232.084,1362.75 232.561,1287.18 233.037,1212.76 233.513,1139.65 233.989,1068.04 
  234.466,998.086 234.942,929.949 235.418,863.783 235.894,799.733 236.371,737.934 236.847,678.516 237.323,621.594 237.799,567.28 238.276,515.67 238.752,466.853 
  239.228,420.908 239.704,377.901 240.181,337.888 240.657,300.916 241.133,267.019 241.609,236.221 242.086,208.536 242.562,183.966 243.038,162.505 243.514,144.136 
  243.991,128.83 244.229,122.315 244.467,116.552 244.586,113.95 244.705,111.535 244.824,109.303 244.943,107.256 246.044,96.8724 247.145,101.294 248.246,119.493 
  249.347,150.277 250.448,192.324 251.549,244.223 252.65,304.508 253.75,371.694 254.851,444.311 255.952,520.931 257.053,600.2 258.154,680.85 259.255,761.727 
  260.356,841.793 261.457,920.142 262.558,996.002 263.659,1068.73 264.76,1137.83 265.86,1202.9 266.961,1263.68 268.062,1320.02 269.163,1371.84 270.264,1419.16 
  271.365,1462.07 272.466,1500.73 273.567,1535.31 274.668,1566.06 275.769,1593.22 276.87,1617.07 277.97,1637.88 279.071,1655.93 280.172,1671.5 281.273,1684.85 
  282.374,1696.23 283.475,1705.88 284.576,1714.01 286.778,1726.52 288.98,1735.12 291.181,1740.92 293.383,1744.74 295.585,1747.21 297.787,1748.77 306.594,1750.89 
  315.401,1751.13 333.016,1751.15 350.63,1751.15 368.245,1751.15 385.86,1751.15 428.202,1751.15 470.544,1751.15 506.344,1751.15 542.144,1751.15 619.922,1751.15 
  691.626,1751.15 768.501,1751.15 857.567,1751.15 936.719,1751.15 1006.13,1751.15 1081.8,1751.15 1157.93,1751.15 1242.09,1751.15 1322.17,1751.15 1405.44,1751.15 
  1475.53,1751.15 1561.1,1751.15 1639.5,1751.15 1711.9,1751.15 1785.24,1751.15 1867.43,1751.15 1941.91,1751.15 2027.18,1751.15 2106.14,1751.15 2183.98,1751.15 
  2259.56,1751.15 2337.04,1751.15 2421.92,1751.15 2545.23,1751.15 2570.53,1751.15 
  "/>
<path clip-path="url(#clip980)" d="
M2229.92 209.375 L2558.05 209.375 L2558.05 105.695 L2229.92 105.695  Z
  " fill="#ffffff" fill-rule="evenodd" fill-opacity="1"/>
<polyline clip-path="url(#clip980)" style="stroke:#000000; stroke-linecap:round; stroke-linejoin:round; stroke-width:4; stroke-opacity:1; fill:none" points="
  2229.92,209.375 2558.05,209.375 2558.05,105.695 2229.92,105.695 2229.92,209.375 
  "/>
<polyline clip-path="url(#clip980)" style="stroke:#009af9; stroke-linecap:round; stroke-linejoin:round; stroke-width:4; stroke-opacity:1; fill:none" points="
  2257.49,157.535 2422.91,157.535 
  "/>
<path clip-path="url(#clip980)" d="M2464.32 177.223 Q2462.51 181.852 2460.8 183.264 Q2459.09 184.676 2456.22 184.676 L2452.81 184.676 L2452.81 181.112 L2455.31 181.112 Q2457.07 181.112 2458.05 180.278 Q2459.02 179.445 2460.2 176.343 L2460.96 174.399 L2450.48 148.889 L2454.99 148.889 L2463.09 169.167 L2471.19 148.889 L2475.71 148.889 L2464.32 177.223 Z" fill="#000000" fill-rule="evenodd" fill-opacity="1" /><path clip-path="url(#clip980)" d="M2483 170.88 L2490.64 170.88 L2490.64 144.515 L2482.33 146.181 L2482.33 141.922 L2490.59 140.255 L2495.27 140.255 L2495.27 170.88 L2502.91 170.88 L2502.91 174.815 L2483 174.815 L2483 170.88 Z" fill="#000000" fill-rule="evenodd" fill-opacity="1" /></svg>
