<?xml version="1.0" encoding="utf-8"?>
<svg xmlns="http://www.w3.org/2000/svg" xmlns:xlink="http://www.w3.org/1999/xlink" width="672" height="480" viewBox="0 0 2688 1920">
<defs>
  <clipPath id="clip570">
    <rect x="0" y="0" width="2688" height="1920"/>
  </clipPath>
</defs>
<path clip-path="url(#clip570)" d="
M0 1920 L2688 1920 L2688 0 L0 0  Z
  " fill="#ffffff" fill-rule="evenodd" fill-opacity="1"/>
<defs>
  <clipPath id="clip571">
    <rect x="537" y="0" width="1883" height="1883"/>
  </clipPath>
</defs>
<path clip-path="url(#clip570)" d="
M226.978 1800.78 L2640.76 1800.78 L2640.76 47.2441 L226.978 47.2441  Z
  " fill="#ffffff" fill-rule="evenodd" fill-opacity="1"/>
<defs>
  <clipPath id="clip572">
    <rect x="226" y="47" width="2415" height="1755"/>
  </clipPath>
</defs>
<polyline clip-path="url(#clip572)" style="stroke:#000000; stroke-linecap:butt; stroke-linejoin:round; stroke-width:2; stroke-opacity:0.1; fill:none" points="
  295.292,1800.78 295.292,47.2441 
  "/>
<polyline clip-path="url(#clip572)" style="stroke:#000000; stroke-linecap:butt; stroke-linejoin:round; stroke-width:2; stroke-opacity:0.1; fill:none" points="
  864.58,1800.78 864.58,47.2441 
  "/>
<polyline clip-path="url(#clip572)" style="stroke:#000000; stroke-linecap:butt; stroke-linejoin:round; stroke-width:2; stroke-opacity:0.1; fill:none" points="
  1433.87,1800.78 1433.87,47.2441 
  "/>
<polyline clip-path="url(#clip572)" style="stroke:#000000; stroke-linecap:butt; stroke-linejoin:round; stroke-width:2; stroke-opacity:0.1; fill:none" points="
  2003.15,1800.78 2003.15,47.2441 
  "/>
<polyline clip-path="url(#clip572)" style="stroke:#000000; stroke-linecap:butt; stroke-linejoin:round; stroke-width:2; stroke-opacity:0.1; fill:none" points="
  2572.44,1800.78 2572.44,47.2441 
  "/>
<polyline clip-path="url(#clip570)" style="stroke:#000000; stroke-linecap:butt; stroke-linejoin:round; stroke-width:4; stroke-opacity:1; fill:none" points="
  226.978,1800.78 2640.76,1800.78 
  "/>
<polyline clip-path="url(#clip570)" style="stroke:#000000; stroke-linecap:butt; stroke-linejoin:round; stroke-width:4; stroke-opacity:1; fill:none" points="
  295.292,1800.78 295.292,1781.88 
  "/>
<polyline clip-path="url(#clip570)" style="stroke:#000000; stroke-linecap:butt; stroke-linejoin:round; stroke-width:4; stroke-opacity:1; fill:none" points="
  864.58,1800.78 864.58,1781.88 
  "/>
<polyline clip-path="url(#clip570)" style="stroke:#000000; stroke-linecap:butt; stroke-linejoin:round; stroke-width:4; stroke-opacity:1; fill:none" points="
  1433.87,1800.78 1433.87,1781.88 
  "/>
<polyline clip-path="url(#clip570)" style="stroke:#000000; stroke-linecap:butt; stroke-linejoin:round; stroke-width:4; stroke-opacity:1; fill:none" points="
  2003.15,1800.78 2003.15,1781.88 
  "/>
<polyline clip-path="url(#clip570)" style="stroke:#000000; stroke-linecap:butt; stroke-linejoin:round; stroke-width:4; stroke-opacity:1; fill:none" points="
  2572.44,1800.78 2572.44,1781.88 
  "/>
<path clip-path="url(#clip570)" d="M247.376 1830.92 L265.732 1830.92 L265.732 1834.86 L251.658 1834.86 L251.658 1843.33 Q252.677 1842.98 253.695 1842.82 Q254.714 1842.64 255.732 1842.64 Q261.519 1842.64 264.899 1845.81 Q268.279 1848.98 268.279 1854.4 Q268.279 1859.97 264.806 1863.08 Q261.334 1866.15 255.015 1866.15 Q252.839 1866.15 250.57 1865.78 Q248.325 1865.41 245.918 1864.67 L245.918 1859.97 Q248.001 1861.11 250.223 1861.66 Q252.445 1862.22 254.922 1862.22 Q258.927 1862.22 261.265 1860.11 Q263.603 1858.01 263.603 1854.4 Q263.603 1850.78 261.265 1848.68 Q258.927 1846.57 254.922 1846.57 Q253.047 1846.57 251.172 1846.99 Q249.32 1847.4 247.376 1848.28 L247.376 1830.92 Z" fill="#000000" fill-rule="evenodd" fill-opacity="1" /><path clip-path="url(#clip570)" d="M277.492 1859.6 L282.376 1859.6 L282.376 1865.48 L277.492 1865.48 L277.492 1859.6 Z" fill="#000000" fill-rule="evenodd" fill-opacity="1" /><path clip-path="url(#clip570)" d="M292.607 1830.92 L310.964 1830.92 L310.964 1834.86 L296.89 1834.86 L296.89 1843.33 Q297.908 1842.98 298.927 1842.82 Q299.945 1842.64 300.964 1842.64 Q306.751 1842.64 310.13 1845.81 Q313.51 1848.98 313.51 1854.4 Q313.51 1859.97 310.038 1863.08 Q306.565 1866.15 300.246 1866.15 Q298.07 1866.15 295.802 1865.78 Q293.556 1865.41 291.149 1864.67 L291.149 1859.97 Q293.232 1861.11 295.454 1861.66 Q297.677 1862.22 300.153 1862.22 Q304.158 1862.22 306.496 1860.11 Q308.834 1858.01 308.834 1854.4 Q308.834 1850.78 306.496 1848.68 Q304.158 1846.57 300.153 1846.57 Q298.278 1846.57 296.403 1846.99 Q294.552 1847.4 292.607 1848.28 L292.607 1830.92 Z" fill="#000000" fill-rule="evenodd" fill-opacity="1" /><path clip-path="url(#clip570)" d="M332.723 1834 Q329.112 1834 327.283 1837.57 Q325.477 1841.11 325.477 1848.24 Q325.477 1855.34 327.283 1858.91 Q329.112 1862.45 332.723 1862.45 Q336.357 1862.45 338.162 1858.91 Q339.991 1855.34 339.991 1848.24 Q339.991 1841.11 338.162 1837.57 Q336.357 1834 332.723 1834 M332.723 1830.3 Q338.533 1830.3 341.588 1834.9 Q344.667 1839.49 344.667 1848.24 Q344.667 1856.96 341.588 1861.57 Q338.533 1866.15 332.723 1866.15 Q326.913 1866.15 323.834 1861.57 Q320.778 1856.96 320.778 1848.24 Q320.778 1839.49 323.834 1834.9 Q326.913 1830.3 332.723 1830.3 Z" fill="#000000" fill-rule="evenodd" fill-opacity="1" /><path clip-path="url(#clip570)" d="M817.161 1830.92 L835.517 1830.92 L835.517 1834.86 L821.443 1834.86 L821.443 1843.33 Q822.462 1842.98 823.48 1842.82 Q824.499 1842.64 825.517 1842.64 Q831.304 1842.64 834.684 1845.81 Q838.064 1848.98 838.064 1854.4 Q838.064 1859.97 834.591 1863.08 Q831.119 1866.15 824.8 1866.15 Q822.624 1866.15 820.355 1865.78 Q818.11 1865.41 815.703 1864.67 L815.703 1859.97 Q817.786 1861.11 820.008 1861.66 Q822.23 1862.22 824.707 1862.22 Q828.712 1862.22 831.05 1860.11 Q833.388 1858.01 833.388 1854.4 Q833.388 1850.78 831.05 1848.68 Q828.712 1846.57 824.707 1846.57 Q822.832 1846.57 820.957 1846.99 Q819.105 1847.4 817.161 1848.28 L817.161 1830.92 Z" fill="#000000" fill-rule="evenodd" fill-opacity="1" /><path clip-path="url(#clip570)" d="M847.276 1859.6 L852.161 1859.6 L852.161 1865.48 L847.276 1865.48 L847.276 1859.6 Z" fill="#000000" fill-rule="evenodd" fill-opacity="1" /><path clip-path="url(#clip570)" d="M862.392 1830.92 L880.749 1830.92 L880.749 1834.86 L866.675 1834.86 L866.675 1843.33 Q867.693 1842.98 868.712 1842.82 Q869.73 1842.64 870.749 1842.64 Q876.536 1842.64 879.915 1845.81 Q883.295 1848.98 883.295 1854.4 Q883.295 1859.97 879.823 1863.08 Q876.35 1866.15 870.031 1866.15 Q867.855 1866.15 865.587 1865.78 Q863.341 1865.41 860.934 1864.67 L860.934 1859.97 Q863.017 1861.11 865.239 1861.66 Q867.462 1862.22 869.938 1862.22 Q873.943 1862.22 876.281 1860.11 Q878.619 1858.01 878.619 1854.4 Q878.619 1850.78 876.281 1848.68 Q873.943 1846.57 869.938 1846.57 Q868.063 1846.57 866.188 1846.99 Q864.337 1847.4 862.392 1848.28 L862.392 1830.92 Z" fill="#000000" fill-rule="evenodd" fill-opacity="1" /><path clip-path="url(#clip570)" d="M892.554 1830.92 L910.91 1830.92 L910.91 1834.86 L896.836 1834.86 L896.836 1843.33 Q897.855 1842.98 898.873 1842.82 Q899.892 1842.64 900.91 1842.64 Q906.697 1842.64 910.077 1845.81 Q913.457 1848.98 913.457 1854.4 Q913.457 1859.97 909.984 1863.08 Q906.512 1866.15 900.193 1866.15 Q898.017 1866.15 895.748 1865.78 Q893.503 1865.41 891.096 1864.67 L891.096 1859.97 Q893.179 1861.11 895.401 1861.66 Q897.623 1862.22 900.1 1862.22 Q904.105 1862.22 906.443 1860.11 Q908.781 1858.01 908.781 1854.4 Q908.781 1850.78 906.443 1848.68 Q904.105 1846.57 900.1 1846.57 Q898.225 1846.57 896.35 1846.99 Q894.498 1847.4 892.554 1848.28 L892.554 1830.92 Z" fill="#000000" fill-rule="evenodd" fill-opacity="1" /><path clip-path="url(#clip570)" d="M1385.95 1830.92 L1404.31 1830.92 L1404.31 1834.86 L1390.23 1834.86 L1390.23 1843.33 Q1391.25 1842.98 1392.27 1842.82 Q1393.29 1842.64 1394.31 1842.64 Q1400.09 1842.64 1403.47 1845.81 Q1406.85 1848.98 1406.85 1854.4 Q1406.85 1859.97 1403.38 1863.08 Q1399.91 1866.15 1393.59 1866.15 Q1391.41 1866.15 1389.14 1865.78 Q1386.9 1865.41 1384.49 1864.67 L1384.49 1859.97 Q1386.58 1861.11 1388.8 1861.66 Q1391.02 1862.22 1393.5 1862.22 Q1397.5 1862.22 1399.84 1860.11 Q1402.18 1858.01 1402.18 1854.4 Q1402.18 1850.78 1399.84 1848.68 Q1397.5 1846.57 1393.5 1846.57 Q1391.62 1846.57 1389.75 1846.99 Q1387.89 1847.4 1385.95 1848.28 L1385.95 1830.92 Z" fill="#000000" fill-rule="evenodd" fill-opacity="1" /><path clip-path="url(#clip570)" d="M1416.07 1859.6 L1420.95 1859.6 L1420.95 1865.48 L1416.07 1865.48 L1416.07 1859.6 Z" fill="#000000" fill-rule="evenodd" fill-opacity="1" /><path clip-path="url(#clip570)" d="M1441.71 1846.34 Q1438.57 1846.34 1436.71 1848.49 Q1434.89 1850.65 1434.89 1854.4 Q1434.89 1858.12 1436.71 1860.3 Q1438.57 1862.45 1441.71 1862.45 Q1444.86 1862.45 1446.69 1860.3 Q1448.54 1858.12 1448.54 1854.4 Q1448.54 1850.65 1446.69 1848.49 Q1444.86 1846.34 1441.71 1846.34 M1451 1831.69 L1451 1835.95 Q1449.24 1835.11 1447.43 1834.67 Q1445.65 1834.23 1443.89 1834.23 Q1439.26 1834.23 1436.81 1837.36 Q1434.38 1840.48 1434.03 1846.8 Q1435.39 1844.79 1437.45 1843.72 Q1439.52 1842.64 1441.99 1842.64 Q1447.2 1842.64 1450.21 1845.81 Q1453.24 1848.96 1453.24 1854.4 Q1453.24 1859.72 1450.09 1862.94 Q1446.95 1866.15 1441.71 1866.15 Q1435.72 1866.15 1432.55 1861.57 Q1429.38 1856.96 1429.38 1848.24 Q1429.38 1840.04 1433.27 1835.18 Q1437.15 1830.3 1443.7 1830.3 Q1445.46 1830.3 1447.25 1830.65 Q1449.05 1830.99 1451 1831.69 Z" fill="#000000" fill-rule="evenodd" fill-opacity="1" /><path clip-path="url(#clip570)" d="M1471.3 1834 Q1467.69 1834 1465.86 1837.57 Q1464.05 1841.11 1464.05 1848.24 Q1464.05 1855.34 1465.86 1858.91 Q1467.69 1862.45 1471.3 1862.45 Q1474.93 1862.45 1476.74 1858.91 Q1478.57 1855.34 1478.57 1848.24 Q1478.57 1841.11 1476.74 1837.57 Q1474.93 1834 1471.3 1834 M1471.3 1830.3 Q1477.11 1830.3 1480.16 1834.9 Q1483.24 1839.49 1483.24 1848.24 Q1483.24 1856.96 1480.16 1861.57 Q1477.11 1866.15 1471.3 1866.15 Q1465.49 1866.15 1462.41 1861.57 Q1459.35 1856.96 1459.35 1848.24 Q1459.35 1839.49 1462.41 1834.9 Q1465.49 1830.3 1471.3 1830.3 Z" fill="#000000" fill-rule="evenodd" fill-opacity="1" /><path clip-path="url(#clip570)" d="M1955.74 1830.92 L1974.09 1830.92 L1974.09 1834.86 L1960.02 1834.86 L1960.02 1843.33 Q1961.04 1842.98 1962.05 1842.82 Q1963.07 1842.64 1964.09 1842.64 Q1969.88 1842.64 1973.26 1845.81 Q1976.64 1848.98 1976.64 1854.4 Q1976.64 1859.97 1973.17 1863.08 Q1969.69 1866.15 1963.37 1866.15 Q1961.2 1866.15 1958.93 1865.78 Q1956.68 1865.41 1954.28 1864.67 L1954.28 1859.97 Q1956.36 1861.11 1958.58 1861.66 Q1960.8 1862.22 1963.28 1862.22 Q1967.29 1862.22 1969.62 1860.11 Q1971.96 1858.01 1971.96 1854.4 Q1971.96 1850.78 1969.62 1848.68 Q1967.29 1846.57 1963.28 1846.57 Q1961.41 1846.57 1959.53 1846.99 Q1957.68 1847.4 1955.74 1848.28 L1955.74 1830.92 Z" fill="#000000" fill-rule="evenodd" fill-opacity="1" /><path clip-path="url(#clip570)" d="M1985.85 1859.6 L1990.74 1859.6 L1990.74 1865.48 L1985.85 1865.48 L1985.85 1859.6 Z" fill="#000000" fill-rule="evenodd" fill-opacity="1" /><path clip-path="url(#clip570)" d="M2011.5 1846.34 Q2008.35 1846.34 2006.5 1848.49 Q2004.67 1850.65 2004.67 1854.4 Q2004.67 1858.12 2006.5 1860.3 Q2008.35 1862.45 2011.5 1862.45 Q2014.65 1862.45 2016.48 1860.3 Q2018.33 1858.12 2018.33 1854.4 Q2018.33 1850.65 2016.48 1848.49 Q2014.65 1846.34 2011.5 1846.34 M2020.78 1831.69 L2020.78 1835.95 Q2019.02 1835.11 2017.22 1834.67 Q2015.43 1834.23 2013.67 1834.23 Q2009.05 1834.23 2006.59 1837.36 Q2004.16 1840.48 2003.81 1846.8 Q2005.18 1844.79 2007.24 1843.72 Q2009.3 1842.64 2011.78 1842.64 Q2016.99 1842.64 2019.99 1845.81 Q2023.03 1848.96 2023.03 1854.4 Q2023.03 1859.72 2019.88 1862.94 Q2016.73 1866.15 2011.5 1866.15 Q2005.5 1866.15 2002.33 1861.57 Q1999.16 1856.96 1999.16 1848.24 Q1999.16 1840.04 2003.05 1835.18 Q2006.94 1830.3 2013.49 1830.3 Q2015.25 1830.3 2017.03 1830.65 Q2018.84 1830.99 2020.78 1831.69 Z" fill="#000000" fill-rule="evenodd" fill-opacity="1" /><path clip-path="url(#clip570)" d="M2031.13 1830.92 L2049.48 1830.92 L2049.48 1834.86 L2035.41 1834.86 L2035.41 1843.33 Q2036.43 1842.98 2037.45 1842.82 Q2038.47 1842.64 2039.48 1842.64 Q2045.27 1842.64 2048.65 1845.81 Q2052.03 1848.98 2052.03 1854.4 Q2052.03 1859.97 2048.56 1863.08 Q2045.09 1866.15 2038.77 1866.15 Q2036.59 1866.15 2034.32 1865.78 Q2032.08 1865.41 2029.67 1864.67 L2029.67 1859.97 Q2031.75 1861.11 2033.98 1861.66 Q2036.2 1862.22 2038.67 1862.22 Q2042.68 1862.22 2045.02 1860.11 Q2047.36 1858.01 2047.36 1854.4 Q2047.36 1850.78 2045.02 1848.68 Q2042.68 1846.57 2038.67 1846.57 Q2036.8 1846.57 2034.92 1846.99 Q2033.07 1847.4 2031.13 1848.28 L2031.13 1830.92 Z" fill="#000000" fill-rule="evenodd" fill-opacity="1" /><path clip-path="url(#clip570)" d="M2524.53 1830.92 L2542.88 1830.92 L2542.88 1834.86 L2528.81 1834.86 L2528.81 1843.33 Q2529.83 1842.98 2530.84 1842.82 Q2531.86 1842.64 2532.88 1842.64 Q2538.67 1842.64 2542.05 1845.81 Q2545.43 1848.98 2545.43 1854.4 Q2545.43 1859.97 2541.96 1863.08 Q2538.48 1866.15 2532.16 1866.15 Q2529.99 1866.15 2527.72 1865.78 Q2525.47 1865.41 2523.07 1864.67 L2523.07 1859.97 Q2525.15 1861.11 2527.37 1861.66 Q2529.59 1862.22 2532.07 1862.22 Q2536.08 1862.22 2538.41 1860.11 Q2540.75 1858.01 2540.75 1854.4 Q2540.75 1850.78 2538.41 1848.68 Q2536.08 1846.57 2532.07 1846.57 Q2530.2 1846.57 2528.32 1846.99 Q2526.47 1847.4 2524.53 1848.28 L2524.53 1830.92 Z" fill="#000000" fill-rule="evenodd" fill-opacity="1" /><path clip-path="url(#clip570)" d="M2554.64 1859.6 L2559.52 1859.6 L2559.52 1865.48 L2554.64 1865.48 L2554.64 1859.6 Z" fill="#000000" fill-rule="evenodd" fill-opacity="1" /><path clip-path="url(#clip570)" d="M2568.53 1830.92 L2590.75 1830.92 L2590.75 1832.91 L2578.21 1865.48 L2573.32 1865.48 L2585.13 1834.86 L2568.53 1834.86 L2568.53 1830.92 Z" fill="#000000" fill-rule="evenodd" fill-opacity="1" /><path clip-path="url(#clip570)" d="M2609.87 1834 Q2606.26 1834 2604.43 1837.57 Q2602.63 1841.11 2602.63 1848.24 Q2602.63 1855.34 2604.43 1858.91 Q2606.26 1862.45 2609.87 1862.45 Q2613.51 1862.45 2615.31 1858.91 Q2617.14 1855.34 2617.14 1848.24 Q2617.14 1841.11 2615.31 1837.57 Q2613.51 1834 2609.87 1834 M2609.87 1830.3 Q2615.68 1830.3 2618.74 1834.9 Q2621.82 1839.49 2621.82 1848.24 Q2621.82 1856.96 2618.74 1861.57 Q2615.68 1866.15 2609.87 1866.15 Q2604.06 1866.15 2600.98 1861.57 Q2597.93 1856.96 2597.93 1848.24 Q2597.93 1839.49 2600.98 1834.9 Q2604.06 1830.3 2609.87 1830.3 Z" fill="#000000" fill-rule="evenodd" fill-opacity="1" /><polyline clip-path="url(#clip572)" style="stroke:#000000; stroke-linecap:butt; stroke-linejoin:round; stroke-width:2; stroke-opacity:0.1; fill:none" points="
  226.978,1627.13 2640.76,1627.13 
  "/>
<polyline clip-path="url(#clip572)" style="stroke:#000000; stroke-linecap:butt; stroke-linejoin:round; stroke-width:2; stroke-opacity:0.1; fill:none" points="
  226.978,1395.49 2640.76,1395.49 
  "/>
<polyline clip-path="url(#clip572)" style="stroke:#000000; stroke-linecap:butt; stroke-linejoin:round; stroke-width:2; stroke-opacity:0.1; fill:none" points="
  226.978,1163.85 2640.76,1163.85 
  "/>
<polyline clip-path="url(#clip572)" style="stroke:#000000; stroke-linecap:butt; stroke-linejoin:round; stroke-width:2; stroke-opacity:0.1; fill:none" points="
  226.978,932.213 2640.76,932.213 
  "/>
<polyline clip-path="url(#clip572)" style="stroke:#000000; stroke-linecap:butt; stroke-linejoin:round; stroke-width:2; stroke-opacity:0.1; fill:none" points="
  226.978,700.573 2640.76,700.573 
  "/>
<polyline clip-path="url(#clip572)" style="stroke:#000000; stroke-linecap:butt; stroke-linejoin:round; stroke-width:2; stroke-opacity:0.1; fill:none" points="
  226.978,468.933 2640.76,468.933 
  "/>
<polyline clip-path="url(#clip572)" style="stroke:#000000; stroke-linecap:butt; stroke-linejoin:round; stroke-width:2; stroke-opacity:0.1; fill:none" points="
  226.978,237.293 2640.76,237.293 
  "/>
<polyline clip-path="url(#clip570)" style="stroke:#000000; stroke-linecap:butt; stroke-linejoin:round; stroke-width:4; stroke-opacity:1; fill:none" points="
  226.978,1800.78 226.978,47.2441 
  "/>
<polyline clip-path="url(#clip570)" style="stroke:#000000; stroke-linecap:butt; stroke-linejoin:round; stroke-width:4; stroke-opacity:1; fill:none" points="
  226.978,1627.13 245.876,1627.13 
  "/>
<polyline clip-path="url(#clip570)" style="stroke:#000000; stroke-linecap:butt; stroke-linejoin:round; stroke-width:4; stroke-opacity:1; fill:none" points="
  226.978,1395.49 245.876,1395.49 
  "/>
<polyline clip-path="url(#clip570)" style="stroke:#000000; stroke-linecap:butt; stroke-linejoin:round; stroke-width:4; stroke-opacity:1; fill:none" points="
  226.978,1163.85 245.876,1163.85 
  "/>
<polyline clip-path="url(#clip570)" style="stroke:#000000; stroke-linecap:butt; stroke-linejoin:round; stroke-width:4; stroke-opacity:1; fill:none" points="
  226.978,932.213 245.876,932.213 
  "/>
<polyline clip-path="url(#clip570)" style="stroke:#000000; stroke-linecap:butt; stroke-linejoin:round; stroke-width:4; stroke-opacity:1; fill:none" points="
  226.978,700.573 245.876,700.573 
  "/>
<polyline clip-path="url(#clip570)" style="stroke:#000000; stroke-linecap:butt; stroke-linejoin:round; stroke-width:4; stroke-opacity:1; fill:none" points="
  226.978,468.933 245.876,468.933 
  "/>
<polyline clip-path="url(#clip570)" style="stroke:#000000; stroke-linecap:butt; stroke-linejoin:round; stroke-width:4; stroke-opacity:1; fill:none" points="
  226.978,237.293 245.876,237.293 
  "/>
<path clip-path="url(#clip570)" d="M50.5475 1627.58 L80.2233 1627.58 L80.2233 1631.52 L50.5475 1631.52 L50.5475 1627.58 Z" fill="#000000" fill-rule="evenodd" fill-opacity="1" /><path clip-path="url(#clip570)" d="M100.316 1612.93 Q96.7047 1612.93 94.876 1616.5 Q93.0704 1620.04 93.0704 1627.17 Q93.0704 1634.27 94.876 1637.84 Q96.7047 1641.38 100.316 1641.38 Q103.95 1641.38 105.756 1637.84 Q107.584 1634.27 107.584 1627.17 Q107.584 1620.04 105.756 1616.5 Q103.95 1612.93 100.316 1612.93 M100.316 1609.23 Q106.126 1609.23 109.181 1613.83 Q112.26 1618.42 112.26 1627.17 Q112.26 1635.89 109.181 1640.5 Q106.126 1645.08 100.316 1645.08 Q94.5056 1645.08 91.4269 1640.5 Q88.3714 1635.89 88.3714 1627.17 Q88.3714 1618.42 91.4269 1613.83 Q94.5056 1609.23 100.316 1609.23 Z" fill="#000000" fill-rule="evenodd" fill-opacity="1" /><path clip-path="url(#clip570)" d="M120.478 1638.53 L125.362 1638.53 L125.362 1644.41 L120.478 1644.41 L120.478 1638.53 Z" fill="#000000" fill-rule="evenodd" fill-opacity="1" /><path clip-path="url(#clip570)" d="M136.357 1640.48 L143.996 1640.48 L143.996 1614.11 L135.686 1615.78 L135.686 1611.52 L143.95 1609.85 L148.626 1609.85 L148.626 1640.48 L156.265 1640.48 L156.265 1644.41 L136.357 1644.41 L136.357 1640.48 Z" fill="#000000" fill-rule="evenodd" fill-opacity="1" /><path clip-path="url(#clip570)" d="M165.755 1609.85 L184.112 1609.85 L184.112 1613.79 L170.038 1613.79 L170.038 1622.26 Q171.056 1621.91 172.075 1621.75 Q173.093 1621.57 174.112 1621.57 Q179.899 1621.57 183.278 1624.74 Q186.658 1627.91 186.658 1633.33 Q186.658 1638.9 183.186 1642.01 Q179.713 1645.08 173.394 1645.08 Q171.218 1645.08 168.95 1644.71 Q166.704 1644.34 164.297 1643.6 L164.297 1638.9 Q166.38 1640.04 168.602 1640.59 Q170.825 1641.15 173.301 1641.15 Q177.306 1641.15 179.644 1639.04 Q181.982 1636.94 181.982 1633.33 Q181.982 1629.71 179.644 1627.61 Q177.306 1625.5 173.301 1625.5 Q171.426 1625.5 169.551 1625.92 Q167.7 1626.33 165.755 1627.21 L165.755 1609.85 Z" fill="#000000" fill-rule="evenodd" fill-opacity="1" /><path clip-path="url(#clip570)" d="M49.5521 1395.94 L79.2279 1395.94 L79.2279 1399.88 L49.5521 1399.88 L49.5521 1395.94 Z" fill="#000000" fill-rule="evenodd" fill-opacity="1" /><path clip-path="url(#clip570)" d="M99.3204 1381.29 Q95.7093 1381.29 93.8806 1384.86 Q92.075 1388.4 92.075 1395.53 Q92.075 1402.63 93.8806 1406.2 Q95.7093 1409.74 99.3204 1409.74 Q102.955 1409.74 104.76 1406.2 Q106.589 1402.63 106.589 1395.53 Q106.589 1388.4 104.76 1384.86 Q102.955 1381.29 99.3204 1381.29 M99.3204 1377.59 Q105.131 1377.59 108.186 1382.19 Q111.265 1386.78 111.265 1395.53 Q111.265 1404.25 108.186 1408.86 Q105.131 1413.44 99.3204 1413.44 Q93.5102 1413.44 90.4315 1408.86 Q87.376 1404.25 87.376 1395.53 Q87.376 1386.78 90.4315 1382.19 Q93.5102 1377.59 99.3204 1377.59 Z" fill="#000000" fill-rule="evenodd" fill-opacity="1" /><path clip-path="url(#clip570)" d="M119.482 1406.89 L124.367 1406.89 L124.367 1412.77 L119.482 1412.77 L119.482 1406.89 Z" fill="#000000" fill-rule="evenodd" fill-opacity="1" /><path clip-path="url(#clip570)" d="M135.362 1408.84 L143.001 1408.84 L143.001 1382.47 L134.691 1384.14 L134.691 1379.88 L142.954 1378.21 L147.63 1378.21 L147.63 1408.84 L155.269 1408.84 L155.269 1412.77 L135.362 1412.77 L135.362 1408.84 Z" fill="#000000" fill-rule="evenodd" fill-opacity="1" /><path clip-path="url(#clip570)" d="M174.713 1381.29 Q171.102 1381.29 169.274 1384.86 Q167.468 1388.4 167.468 1395.53 Q167.468 1402.63 169.274 1406.2 Q171.102 1409.74 174.713 1409.74 Q178.348 1409.74 180.153 1406.2 Q181.982 1402.63 181.982 1395.53 Q181.982 1388.4 180.153 1384.86 Q178.348 1381.29 174.713 1381.29 M174.713 1377.59 Q180.524 1377.59 183.579 1382.19 Q186.658 1386.78 186.658 1395.53 Q186.658 1404.25 183.579 1408.86 Q180.524 1413.44 174.713 1413.44 Q168.903 1413.44 165.825 1408.86 Q162.769 1404.25 162.769 1395.53 Q162.769 1386.78 165.825 1382.19 Q168.903 1377.59 174.713 1377.59 Z" fill="#000000" fill-rule="evenodd" fill-opacity="1" /><path clip-path="url(#clip570)" d="M50.5475 1164.3 L80.2233 1164.3 L80.2233 1168.24 L50.5475 1168.24 L50.5475 1164.3 Z" fill="#000000" fill-rule="evenodd" fill-opacity="1" /><path clip-path="url(#clip570)" d="M100.316 1149.65 Q96.7047 1149.65 94.876 1153.22 Q93.0704 1156.76 93.0704 1163.89 Q93.0704 1170.99 94.876 1174.56 Q96.7047 1178.1 100.316 1178.1 Q103.95 1178.1 105.756 1174.56 Q107.584 1170.99 107.584 1163.89 Q107.584 1156.76 105.756 1153.22 Q103.95 1149.65 100.316 1149.65 M100.316 1145.95 Q106.126 1145.95 109.181 1150.55 Q112.26 1155.14 112.26 1163.89 Q112.26 1172.61 109.181 1177.22 Q106.126 1181.8 100.316 1181.8 Q94.5056 1181.8 91.4269 1177.22 Q88.3714 1172.61 88.3714 1163.89 Q88.3714 1155.14 91.4269 1150.55 Q94.5056 1145.95 100.316 1145.95 Z" fill="#000000" fill-rule="evenodd" fill-opacity="1" /><path clip-path="url(#clip570)" d="M120.478 1175.25 L125.362 1175.25 L125.362 1181.13 L120.478 1181.13 L120.478 1175.25 Z" fill="#000000" fill-rule="evenodd" fill-opacity="1" /><path clip-path="url(#clip570)" d="M145.547 1149.65 Q141.936 1149.65 140.107 1153.22 Q138.302 1156.76 138.302 1163.89 Q138.302 1170.99 140.107 1174.56 Q141.936 1178.1 145.547 1178.1 Q149.181 1178.1 150.987 1174.56 Q152.815 1170.99 152.815 1163.89 Q152.815 1156.76 150.987 1153.22 Q149.181 1149.65 145.547 1149.65 M145.547 1145.95 Q151.357 1145.95 154.413 1150.55 Q157.491 1155.14 157.491 1163.89 Q157.491 1172.61 154.413 1177.22 Q151.357 1181.8 145.547 1181.8 Q139.737 1181.8 136.658 1177.22 Q133.603 1172.61 133.603 1163.89 Q133.603 1155.14 136.658 1150.55 Q139.737 1145.95 145.547 1145.95 Z" fill="#000000" fill-rule="evenodd" fill-opacity="1" /><path clip-path="url(#clip570)" d="M165.755 1146.57 L184.112 1146.57 L184.112 1150.51 L170.038 1150.51 L170.038 1158.98 Q171.056 1158.63 172.075 1158.47 Q173.093 1158.29 174.112 1158.29 Q179.899 1158.29 183.278 1161.46 Q186.658 1164.63 186.658 1170.05 Q186.658 1175.62 183.186 1178.73 Q179.713 1181.8 173.394 1181.8 Q171.218 1181.8 168.95 1181.43 Q166.704 1181.06 164.297 1180.32 L164.297 1175.62 Q166.38 1176.76 168.602 1177.31 Q170.825 1177.87 173.301 1177.87 Q177.306 1177.87 179.644 1175.76 Q181.982 1173.66 181.982 1170.05 Q181.982 1166.43 179.644 1164.33 Q177.306 1162.22 173.301 1162.22 Q171.426 1162.22 169.551 1162.64 Q167.7 1163.05 165.755 1163.93 L165.755 1146.57 Z" fill="#000000" fill-rule="evenodd" fill-opacity="1" /><path clip-path="url(#clip570)" d="M99.3204 918.012 Q95.7093 918.012 93.8806 921.577 Q92.075 925.118 92.075 932.248 Q92.075 939.354 93.8806 942.919 Q95.7093 946.461 99.3204 946.461 Q102.955 946.461 104.76 942.919 Q106.589 939.354 106.589 932.248 Q106.589 925.118 104.76 921.577 Q102.955 918.012 99.3204 918.012 M99.3204 914.308 Q105.131 914.308 108.186 918.915 Q111.265 923.498 111.265 932.248 Q111.265 940.975 108.186 945.581 Q105.131 950.164 99.3204 950.164 Q93.5102 950.164 90.4315 945.581 Q87.376 940.975 87.376 932.248 Q87.376 923.498 90.4315 918.915 Q93.5102 914.308 99.3204 914.308 Z" fill="#000000" fill-rule="evenodd" fill-opacity="1" /><path clip-path="url(#clip570)" d="M119.482 943.613 L124.367 943.613 L124.367 949.493 L119.482 949.493 L119.482 943.613 Z" fill="#000000" fill-rule="evenodd" fill-opacity="1" /><path clip-path="url(#clip570)" d="M144.552 918.012 Q140.941 918.012 139.112 921.577 Q137.306 925.118 137.306 932.248 Q137.306 939.354 139.112 942.919 Q140.941 946.461 144.552 946.461 Q148.186 946.461 149.991 942.919 Q151.82 939.354 151.82 932.248 Q151.82 925.118 149.991 921.577 Q148.186 918.012 144.552 918.012 M144.552 914.308 Q150.362 914.308 153.417 918.915 Q156.496 923.498 156.496 932.248 Q156.496 940.975 153.417 945.581 Q150.362 950.164 144.552 950.164 Q138.741 950.164 135.663 945.581 Q132.607 940.975 132.607 932.248 Q132.607 923.498 135.663 918.915 Q138.741 914.308 144.552 914.308 Z" fill="#000000" fill-rule="evenodd" fill-opacity="1" /><path clip-path="url(#clip570)" d="M174.713 918.012 Q171.102 918.012 169.274 921.577 Q167.468 925.118 167.468 932.248 Q167.468 939.354 169.274 942.919 Q171.102 946.461 174.713 946.461 Q178.348 946.461 180.153 942.919 Q181.982 939.354 181.982 932.248 Q181.982 925.118 180.153 921.577 Q178.348 918.012 174.713 918.012 M174.713 914.308 Q180.524 914.308 183.579 918.915 Q186.658 923.498 186.658 932.248 Q186.658 940.975 183.579 945.581 Q180.524 950.164 174.713 950.164 Q168.903 950.164 165.825 945.581 Q162.769 940.975 162.769 932.248 Q162.769 923.498 165.825 918.915 Q168.903 914.308 174.713 914.308 Z" fill="#000000" fill-rule="evenodd" fill-opacity="1" /><path clip-path="url(#clip570)" d="M100.316 686.372 Q96.7047 686.372 94.876 689.937 Q93.0704 693.478 93.0704 700.608 Q93.0704 707.714 94.876 711.279 Q96.7047 714.821 100.316 714.821 Q103.95 714.821 105.756 711.279 Q107.584 707.714 107.584 700.608 Q107.584 693.478 105.756 689.937 Q103.95 686.372 100.316 686.372 M100.316 682.668 Q106.126 682.668 109.181 687.275 Q112.26 691.858 112.26 700.608 Q112.26 709.335 109.181 713.941 Q106.126 718.524 100.316 718.524 Q94.5056 718.524 91.4269 713.941 Q88.3714 709.335 88.3714 700.608 Q88.3714 691.858 91.4269 687.275 Q94.5056 682.668 100.316 682.668 Z" fill="#000000" fill-rule="evenodd" fill-opacity="1" /><path clip-path="url(#clip570)" d="M120.478 711.973 L125.362 711.973 L125.362 717.853 L120.478 717.853 L120.478 711.973 Z" fill="#000000" fill-rule="evenodd" fill-opacity="1" /><path clip-path="url(#clip570)" d="M145.547 686.372 Q141.936 686.372 140.107 689.937 Q138.302 693.478 138.302 700.608 Q138.302 707.714 140.107 711.279 Q141.936 714.821 145.547 714.821 Q149.181 714.821 150.987 711.279 Q152.815 707.714 152.815 700.608 Q152.815 693.478 150.987 689.937 Q149.181 686.372 145.547 686.372 M145.547 682.668 Q151.357 682.668 154.413 687.275 Q157.491 691.858 157.491 700.608 Q157.491 709.335 154.413 713.941 Q151.357 718.524 145.547 718.524 Q139.737 718.524 136.658 713.941 Q133.603 709.335 133.603 700.608 Q133.603 691.858 136.658 687.275 Q139.737 682.668 145.547 682.668 Z" fill="#000000" fill-rule="evenodd" fill-opacity="1" /><path clip-path="url(#clip570)" d="M165.755 683.293 L184.112 683.293 L184.112 687.228 L170.038 687.228 L170.038 695.7 Q171.056 695.353 172.075 695.191 Q173.093 695.006 174.112 695.006 Q179.899 695.006 183.278 698.177 Q186.658 701.349 186.658 706.765 Q186.658 712.344 183.186 715.446 Q179.713 718.524 173.394 718.524 Q171.218 718.524 168.95 718.154 Q166.704 717.784 164.297 717.043 L164.297 712.344 Q166.38 713.478 168.602 714.034 Q170.825 714.589 173.301 714.589 Q177.306 714.589 179.644 712.483 Q181.982 710.376 181.982 706.765 Q181.982 703.154 179.644 701.048 Q177.306 698.941 173.301 698.941 Q171.426 698.941 169.551 699.358 Q167.7 699.774 165.755 700.654 L165.755 683.293 Z" fill="#000000" fill-rule="evenodd" fill-opacity="1" /><path clip-path="url(#clip570)" d="M99.3204 454.732 Q95.7093 454.732 93.8806 458.297 Q92.075 461.838 92.075 468.968 Q92.075 476.074 93.8806 479.639 Q95.7093 483.181 99.3204 483.181 Q102.955 483.181 104.76 479.639 Q106.589 476.074 106.589 468.968 Q106.589 461.838 104.76 458.297 Q102.955 454.732 99.3204 454.732 M99.3204 451.028 Q105.131 451.028 108.186 455.635 Q111.265 460.218 111.265 468.968 Q111.265 477.695 108.186 482.301 Q105.131 486.884 99.3204 486.884 Q93.5102 486.884 90.4315 482.301 Q87.376 477.695 87.376 468.968 Q87.376 460.218 90.4315 455.635 Q93.5102 451.028 99.3204 451.028 Z" fill="#000000" fill-rule="evenodd" fill-opacity="1" /><path clip-path="url(#clip570)" d="M119.482 480.333 L124.367 480.333 L124.367 486.213 L119.482 486.213 L119.482 480.333 Z" fill="#000000" fill-rule="evenodd" fill-opacity="1" /><path clip-path="url(#clip570)" d="M135.362 482.278 L143.001 482.278 L143.001 455.912 L134.691 457.579 L134.691 453.32 L142.954 451.653 L147.63 451.653 L147.63 482.278 L155.269 482.278 L155.269 486.213 L135.362 486.213 L135.362 482.278 Z" fill="#000000" fill-rule="evenodd" fill-opacity="1" /><path clip-path="url(#clip570)" d="M174.713 454.732 Q171.102 454.732 169.274 458.297 Q167.468 461.838 167.468 468.968 Q167.468 476.074 169.274 479.639 Q171.102 483.181 174.713 483.181 Q178.348 483.181 180.153 479.639 Q181.982 476.074 181.982 468.968 Q181.982 461.838 180.153 458.297 Q178.348 454.732 174.713 454.732 M174.713 451.028 Q180.524 451.028 183.579 455.635 Q186.658 460.218 186.658 468.968 Q186.658 477.695 183.579 482.301 Q180.524 486.884 174.713 486.884 Q168.903 486.884 165.825 482.301 Q162.769 477.695 162.769 468.968 Q162.769 460.218 165.825 455.635 Q168.903 451.028 174.713 451.028 Z" fill="#000000" fill-rule="evenodd" fill-opacity="1" /><path clip-path="url(#clip570)" d="M100.316 223.092 Q96.7047 223.092 94.876 226.657 Q93.0704 230.198 93.0704 237.328 Q93.0704 244.434 94.876 247.999 Q96.7047 251.541 100.316 251.541 Q103.95 251.541 105.756 247.999 Q107.584 244.434 107.584 237.328 Q107.584 230.198 105.756 226.657 Q103.95 223.092 100.316 223.092 M100.316 219.388 Q106.126 219.388 109.181 223.995 Q112.26 228.578 112.26 237.328 Q112.26 246.055 109.181 250.661 Q106.126 255.244 100.316 255.244 Q94.5056 255.244 91.4269 250.661 Q88.3714 246.055 88.3714 237.328 Q88.3714 228.578 91.4269 223.995 Q94.5056 219.388 100.316 219.388 Z" fill="#000000" fill-rule="evenodd" fill-opacity="1" /><path clip-path="url(#clip570)" d="M120.478 248.693 L125.362 248.693 L125.362 254.573 L120.478 254.573 L120.478 248.693 Z" fill="#000000" fill-rule="evenodd" fill-opacity="1" /><path clip-path="url(#clip570)" d="M136.357 250.638 L143.996 250.638 L143.996 224.272 L135.686 225.939 L135.686 221.68 L143.95 220.013 L148.626 220.013 L148.626 250.638 L156.265 250.638 L156.265 254.573 L136.357 254.573 L136.357 250.638 Z" fill="#000000" fill-rule="evenodd" fill-opacity="1" /><path clip-path="url(#clip570)" d="M165.755 220.013 L184.112 220.013 L184.112 223.948 L170.038 223.948 L170.038 232.42 Q171.056 232.073 172.075 231.911 Q173.093 231.726 174.112 231.726 Q179.899 231.726 183.278 234.897 Q186.658 238.069 186.658 243.485 Q186.658 249.064 183.186 252.166 Q179.713 255.244 173.394 255.244 Q171.218 255.244 168.95 254.874 Q166.704 254.504 164.297 253.763 L164.297 249.064 Q166.38 250.198 168.602 250.754 Q170.825 251.309 173.301 251.309 Q177.306 251.309 179.644 249.203 Q181.982 247.096 181.982 243.485 Q181.982 239.874 179.644 237.768 Q177.306 235.661 173.301 235.661 Q171.426 235.661 169.551 236.078 Q167.7 236.494 165.755 237.374 L165.755 220.013 Z" fill="#000000" fill-rule="evenodd" fill-opacity="1" /><polyline clip-path="url(#clip572)" style="stroke:#009af9; stroke-linecap:butt; stroke-linejoin:round; stroke-width:4; stroke-opacity:1; fill:none" points="
  295.292,96.8724 310.118,107.643 447.201,207.229 529.582,267.077 599.234,317.677 674.896,372.643 744.65,423.317 819.433,477.644 906.076,540.588 983.075,596.525 
  1050.6,645.577 1124.21,699.057 1198.27,752.854 1280.14,812.334 1358.04,868.928 1439.04,927.772 1507.23,977.307 1590.48,1037.78 1666.73,1093.18 1737.16,1144.35 
  1808.51,1196.18 1888.47,1254.26 1960.92,1306.9 2043.88,1367.16 2120.68,1422.96 2196.41,1477.97 2269.93,1531.39 2345.3,1586.14 2427.88,1646.13 2547.83,1733.27 
  2572.44,1751.15 
  "/>
<path clip-path="url(#clip570)" d="
M2239.67 209.375 L2560.3 209.375 L2560.3 105.695 L2239.67 105.695  Z
  " fill="#ffffff" fill-rule="evenodd" fill-opacity="1"/>
<polyline clip-path="url(#clip570)" style="stroke:#000000; stroke-linecap:butt; stroke-linejoin:round; stroke-width:4; stroke-opacity:1; fill:none" points="
  2239.67,209.375 2560.3,209.375 2560.3,105.695 2239.67,105.695 2239.67,209.375 
  "/>
<polyline clip-path="url(#clip570)" style="stroke:#009af9; stroke-linecap:butt; stroke-linejoin:round; stroke-width:4; stroke-opacity:1; fill:none" points="
  2266.49,157.535 2427.41,157.535 
  "/>
<path clip-path="url(#clip570)" d="M2468.07 177.223 Q2466.26 181.852 2464.55 183.264 Q2462.84 184.676 2459.97 184.676 L2456.56 184.676 L2456.56 181.112 L2459.06 181.112 Q2460.82 181.112 2461.8 180.278 Q2462.77 179.445 2463.95 176.343 L2464.71 174.399 L2454.23 148.889 L2458.74 148.889 L2466.84 169.167 L2474.94 148.889 L2479.46 148.889 L2468.07 177.223 Z" fill="#000000" fill-rule="evenodd" fill-opacity="1" /><path clip-path="url(#clip570)" d="M2486.75 170.88 L2494.39 170.88 L2494.39 144.515 L2486.08 146.181 L2486.08 141.922 L2494.34 140.255 L2499.02 140.255 L2499.02 170.88 L2506.66 170.88 L2506.66 174.815 L2486.75 174.815 L2486.75 170.88 Z" fill="#000000" fill-rule="evenodd" fill-opacity="1" /></svg>
