<?xml version="1.0" encoding="utf-8"?>
<svg xmlns="http://www.w3.org/2000/svg" xmlns:xlink="http://www.w3.org/1999/xlink" width="672" height="480" viewBox="0 0 2688 1920">
<defs>
  <clipPath id="clip530">
    <rect x="0" y="0" width="2688" height="1920"/>
  </clipPath>
</defs>
<path clip-path="url(#clip530)" d="
M0 1920 L2688 1920 L2688 0 L0 0  Z
  " fill="#ffffff" fill-rule="evenodd" fill-opacity="1"/>
<defs>
  <clipPath id="clip531">
    <rect x="537" y="0" width="1883" height="1883"/>
  </clipPath>
</defs>
<path clip-path="url(#clip530)" d="
M143.576 1800.78 L2640.76 1800.78 L2640.76 47.2441 L143.576 47.2441  Z
  " fill="#ffffff" fill-rule="evenodd" fill-opacity="1"/>
<defs>
  <clipPath id="clip532">
    <rect x="143" y="47" width="2498" height="1755"/>
  </clipPath>
</defs>
<polyline clip-path="url(#clip532)" style="stroke:#000000; stroke-linecap:butt; stroke-linejoin:round; stroke-width:2; stroke-opacity:0.1; fill:none" points="
  214.25,1800.78 214.25,47.2441 
  "/>
<polyline clip-path="url(#clip532)" style="stroke:#000000; stroke-linecap:butt; stroke-linejoin:round; stroke-width:2; stroke-opacity:0.1; fill:none" points="
  819.887,1800.78 819.887,47.2441 
  "/>
<polyline clip-path="url(#clip532)" style="stroke:#000000; stroke-linecap:butt; stroke-linejoin:round; stroke-width:2; stroke-opacity:0.1; fill:none" points="
  1425.52,1800.78 1425.52,47.2441 
  "/>
<polyline clip-path="url(#clip532)" style="stroke:#000000; stroke-linecap:butt; stroke-linejoin:round; stroke-width:2; stroke-opacity:0.1; fill:none" points="
  2031.16,1800.78 2031.16,47.2441 
  "/>
<polyline clip-path="url(#clip532)" style="stroke:#000000; stroke-linecap:butt; stroke-linejoin:round; stroke-width:2; stroke-opacity:0.1; fill:none" points="
  2636.79,1800.78 2636.79,47.2441 
  "/>
<polyline clip-path="url(#clip530)" style="stroke:#000000; stroke-linecap:butt; stroke-linejoin:round; stroke-width:4; stroke-opacity:1; fill:none" points="
  143.576,1800.78 2640.76,1800.78 
  "/>
<polyline clip-path="url(#clip530)" style="stroke:#000000; stroke-linecap:butt; stroke-linejoin:round; stroke-width:4; stroke-opacity:1; fill:none" points="
  214.25,1800.78 214.25,1781.88 
  "/>
<polyline clip-path="url(#clip530)" style="stroke:#000000; stroke-linecap:butt; stroke-linejoin:round; stroke-width:4; stroke-opacity:1; fill:none" points="
  819.887,1800.78 819.887,1781.88 
  "/>
<polyline clip-path="url(#clip530)" style="stroke:#000000; stroke-linecap:butt; stroke-linejoin:round; stroke-width:4; stroke-opacity:1; fill:none" points="
  1425.52,1800.78 1425.52,1781.88 
  "/>
<polyline clip-path="url(#clip530)" style="stroke:#000000; stroke-linecap:butt; stroke-linejoin:round; stroke-width:4; stroke-opacity:1; fill:none" points="
  2031.16,1800.78 2031.16,1781.88 
  "/>
<polyline clip-path="url(#clip530)" style="stroke:#000000; stroke-linecap:butt; stroke-linejoin:round; stroke-width:4; stroke-opacity:1; fill:none" points="
  2636.79,1800.78 2636.79,1781.88 
  "/>
<path clip-path="url(#clip530)" d="M214.25 1834 Q210.639 1834 208.811 1837.57 Q207.005 1841.11 207.005 1848.24 Q207.005 1855.34 208.811 1858.91 Q210.639 1862.45 214.25 1862.45 Q217.885 1862.45 219.69 1858.91 Q221.519 1855.34 221.519 1848.24 Q221.519 1841.11 219.69 1837.57 Q217.885 1834 214.25 1834 M214.25 1830.3 Q220.061 1830.3 223.116 1834.9 Q226.195 1839.49 226.195 1848.24 Q226.195 1856.96 223.116 1861.57 Q220.061 1866.15 214.25 1866.15 Q208.44 1866.15 205.362 1861.57 Q202.306 1856.96 202.306 1848.24 Q202.306 1839.49 205.362 1834.9 Q208.44 1830.3 214.25 1830.3 Z" fill="#000000" fill-rule="evenodd" fill-opacity="1" /><path clip-path="url(#clip530)" d="M814.539 1861.55 L830.859 1861.55 L830.859 1865.48 L808.914 1865.48 L808.914 1861.55 Q811.576 1858.79 816.16 1854.16 Q820.766 1849.51 821.947 1848.17 Q824.192 1845.65 825.072 1843.91 Q825.974 1842.15 825.974 1840.46 Q825.974 1837.71 824.03 1835.97 Q822.109 1834.23 819.007 1834.23 Q816.808 1834.23 814.354 1835 Q811.924 1835.76 809.146 1837.31 L809.146 1832.59 Q811.97 1831.46 814.424 1830.88 Q816.877 1830.3 818.914 1830.3 Q824.285 1830.3 827.479 1832.98 Q830.673 1835.67 830.673 1840.16 Q830.673 1842.29 829.863 1844.21 Q829.076 1846.11 826.97 1848.7 Q826.391 1849.37 823.289 1852.59 Q820.187 1855.78 814.539 1861.55 Z" fill="#000000" fill-rule="evenodd" fill-opacity="1" /><path clip-path="url(#clip530)" d="M1428.53 1835 L1416.73 1853.45 L1428.53 1853.45 L1428.53 1835 M1427.3 1830.92 L1433.18 1830.92 L1433.18 1853.45 L1438.12 1853.45 L1438.12 1857.34 L1433.18 1857.34 L1433.18 1865.48 L1428.53 1865.48 L1428.53 1857.34 L1412.93 1857.34 L1412.93 1852.82 L1427.3 1830.92 Z" fill="#000000" fill-rule="evenodd" fill-opacity="1" /><path clip-path="url(#clip530)" d="M2031.56 1846.34 Q2028.42 1846.34 2026.56 1848.49 Q2024.74 1850.65 2024.74 1854.4 Q2024.74 1858.12 2026.56 1860.3 Q2028.42 1862.45 2031.56 1862.45 Q2034.71 1862.45 2036.54 1860.3 Q2038.39 1858.12 2038.39 1854.4 Q2038.39 1850.65 2036.54 1848.49 Q2034.71 1846.34 2031.56 1846.34 M2040.85 1831.69 L2040.85 1835.95 Q2039.09 1835.11 2037.28 1834.67 Q2035.5 1834.23 2033.74 1834.23 Q2029.11 1834.23 2026.66 1837.36 Q2024.23 1840.48 2023.88 1846.8 Q2025.24 1844.79 2027.3 1843.72 Q2029.36 1842.64 2031.84 1842.64 Q2037.05 1842.64 2040.06 1845.81 Q2043.09 1848.96 2043.09 1854.4 Q2043.09 1859.72 2039.94 1862.94 Q2036.8 1866.15 2031.56 1866.15 Q2025.57 1866.15 2022.4 1861.57 Q2019.23 1856.96 2019.23 1848.24 Q2019.23 1840.04 2023.11 1835.18 Q2027 1830.3 2033.55 1830.3 Q2035.31 1830.3 2037.1 1830.65 Q2038.9 1830.99 2040.85 1831.69 Z" fill="#000000" fill-rule="evenodd" fill-opacity="1" /><path clip-path="url(#clip530)" d="M2636.79 1849.07 Q2633.46 1849.07 2631.54 1850.85 Q2629.64 1852.64 2629.64 1855.76 Q2629.64 1858.89 2631.54 1860.67 Q2633.46 1862.45 2636.79 1862.45 Q2640.13 1862.45 2642.05 1860.67 Q2643.97 1858.86 2643.97 1855.76 Q2643.97 1852.64 2642.05 1850.85 Q2640.15 1849.07 2636.79 1849.07 M2632.12 1847.08 Q2629.11 1846.34 2627.42 1844.28 Q2625.75 1842.22 2625.75 1839.26 Q2625.75 1835.11 2628.69 1832.71 Q2631.66 1830.3 2636.79 1830.3 Q2641.96 1830.3 2644.9 1832.71 Q2647.84 1835.11 2647.84 1839.26 Q2647.84 1842.22 2646.15 1844.28 Q2644.48 1846.34 2641.49 1847.08 Q2644.87 1847.87 2646.75 1850.16 Q2648.65 1852.45 2648.65 1855.76 Q2648.65 1860.78 2645.57 1863.47 Q2642.51 1866.15 2636.79 1866.15 Q2631.08 1866.15 2628 1863.47 Q2624.94 1860.78 2624.94 1855.76 Q2624.94 1852.45 2626.84 1850.16 Q2628.74 1847.87 2632.12 1847.08 M2630.41 1839.7 Q2630.41 1842.38 2632.07 1843.89 Q2633.76 1845.39 2636.79 1845.39 Q2639.8 1845.39 2641.49 1843.89 Q2643.21 1842.38 2643.21 1839.7 Q2643.21 1837.01 2641.49 1835.51 Q2639.8 1834 2636.79 1834 Q2633.76 1834 2632.07 1835.51 Q2630.41 1837.01 2630.41 1839.7 Z" fill="#000000" fill-rule="evenodd" fill-opacity="1" /><polyline clip-path="url(#clip532)" style="stroke:#000000; stroke-linecap:butt; stroke-linejoin:round; stroke-width:2; stroke-opacity:0.1; fill:none" points="
  143.576,1751.15 2640.76,1751.15 
  "/>
<polyline clip-path="url(#clip532)" style="stroke:#000000; stroke-linecap:butt; stroke-linejoin:round; stroke-width:2; stroke-opacity:0.1; fill:none" points="
  143.576,1455.79 2640.76,1455.79 
  "/>
<polyline clip-path="url(#clip532)" style="stroke:#000000; stroke-linecap:butt; stroke-linejoin:round; stroke-width:2; stroke-opacity:0.1; fill:none" points="
  143.576,1160.42 2640.76,1160.42 
  "/>
<polyline clip-path="url(#clip532)" style="stroke:#000000; stroke-linecap:butt; stroke-linejoin:round; stroke-width:2; stroke-opacity:0.1; fill:none" points="
  143.576,865.054 2640.76,865.054 
  "/>
<polyline clip-path="url(#clip532)" style="stroke:#000000; stroke-linecap:butt; stroke-linejoin:round; stroke-width:2; stroke-opacity:0.1; fill:none" points="
  143.576,569.688 2640.76,569.688 
  "/>
<polyline clip-path="url(#clip532)" style="stroke:#000000; stroke-linecap:butt; stroke-linejoin:round; stroke-width:2; stroke-opacity:0.1; fill:none" points="
  143.576,274.323 2640.76,274.323 
  "/>
<polyline clip-path="url(#clip530)" style="stroke:#000000; stroke-linecap:butt; stroke-linejoin:round; stroke-width:4; stroke-opacity:1; fill:none" points="
  143.576,1800.78 143.576,47.2441 
  "/>
<polyline clip-path="url(#clip530)" style="stroke:#000000; stroke-linecap:butt; stroke-linejoin:round; stroke-width:4; stroke-opacity:1; fill:none" points="
  143.576,1751.15 162.473,1751.15 
  "/>
<polyline clip-path="url(#clip530)" style="stroke:#000000; stroke-linecap:butt; stroke-linejoin:round; stroke-width:4; stroke-opacity:1; fill:none" points="
  143.576,1455.79 162.473,1455.79 
  "/>
<polyline clip-path="url(#clip530)" style="stroke:#000000; stroke-linecap:butt; stroke-linejoin:round; stroke-width:4; stroke-opacity:1; fill:none" points="
  143.576,1160.42 162.473,1160.42 
  "/>
<polyline clip-path="url(#clip530)" style="stroke:#000000; stroke-linecap:butt; stroke-linejoin:round; stroke-width:4; stroke-opacity:1; fill:none" points="
  143.576,865.054 162.473,865.054 
  "/>
<polyline clip-path="url(#clip530)" style="stroke:#000000; stroke-linecap:butt; stroke-linejoin:round; stroke-width:4; stroke-opacity:1; fill:none" points="
  143.576,569.688 162.473,569.688 
  "/>
<polyline clip-path="url(#clip530)" style="stroke:#000000; stroke-linecap:butt; stroke-linejoin:round; stroke-width:4; stroke-opacity:1; fill:none" points="
  143.576,274.323 162.473,274.323 
  "/>
<path clip-path="url(#clip530)" d="M91.3112 1736.95 Q87.7001 1736.95 85.8714 1740.51 Q84.0658 1744.06 84.0658 1751.19 Q84.0658 1758.29 85.8714 1761.86 Q87.7001 1765.4 91.3112 1765.4 Q94.9454 1765.4 96.7509 1761.86 Q98.5796 1758.29 98.5796 1751.19 Q98.5796 1744.06 96.7509 1740.51 Q94.9454 1736.95 91.3112 1736.95 M91.3112 1733.25 Q97.1213 1733.25 100.177 1737.85 Q103.256 1742.44 103.256 1751.19 Q103.256 1759.91 100.177 1764.52 Q97.1213 1769.1 91.3112 1769.1 Q85.501 1769.1 82.4223 1764.52 Q79.3668 1759.91 79.3668 1751.19 Q79.3668 1742.44 82.4223 1737.85 Q85.501 1733.25 91.3112 1733.25 Z" fill="#000000" fill-rule="evenodd" fill-opacity="1" /><path clip-path="url(#clip530)" d="M82.3529 1438.51 L100.709 1438.51 L100.709 1442.44 L86.6353 1442.44 L86.6353 1450.91 Q87.6538 1450.57 88.6723 1450.4 Q89.6908 1450.22 90.7093 1450.22 Q96.4963 1450.22 99.8759 1453.39 Q103.256 1456.56 103.256 1461.98 Q103.256 1467.56 99.7833 1470.66 Q96.3111 1473.74 89.9917 1473.74 Q87.8158 1473.74 85.5473 1473.37 Q83.3019 1473 80.8946 1472.26 L80.8946 1467.56 Q82.9779 1468.69 85.2001 1469.25 Q87.4223 1469.8 89.8991 1469.8 Q93.9037 1469.8 96.2417 1467.69 Q98.5796 1465.59 98.5796 1461.98 Q98.5796 1458.37 96.2417 1456.26 Q93.9037 1454.15 89.8991 1454.15 Q88.0241 1454.15 86.1492 1454.57 Q84.2973 1454.99 82.3529 1455.87 L82.3529 1438.51 Z" fill="#000000" fill-rule="evenodd" fill-opacity="1" /><path clip-path="url(#clip530)" d="M51.9595 1173.76 L59.5984 1173.76 L59.5984 1147.4 L51.2882 1149.07 L51.2882 1144.81 L59.5521 1143.14 L64.228 1143.14 L64.228 1173.76 L71.8668 1173.76 L71.8668 1177.7 L51.9595 1177.7 L51.9595 1173.76 Z" fill="#000000" fill-rule="evenodd" fill-opacity="1" /><path clip-path="url(#clip530)" d="M91.3112 1146.22 Q87.7001 1146.22 85.8714 1149.78 Q84.0658 1153.32 84.0658 1160.45 Q84.0658 1167.56 85.8714 1171.13 Q87.7001 1174.67 91.3112 1174.67 Q94.9454 1174.67 96.7509 1171.13 Q98.5796 1167.56 98.5796 1160.45 Q98.5796 1153.32 96.7509 1149.78 Q94.9454 1146.22 91.3112 1146.22 M91.3112 1142.51 Q97.1213 1142.51 100.177 1147.12 Q103.256 1151.7 103.256 1160.45 Q103.256 1169.18 100.177 1173.79 Q97.1213 1178.37 91.3112 1178.37 Q85.501 1178.37 82.4223 1173.79 Q79.3668 1169.18 79.3668 1160.45 Q79.3668 1151.7 82.4223 1147.12 Q85.501 1142.51 91.3112 1142.51 Z" fill="#000000" fill-rule="evenodd" fill-opacity="1" /><path clip-path="url(#clip530)" d="M52.9549 878.399 L60.5937 878.399 L60.5937 852.033 L52.2836 853.7 L52.2836 849.441 L60.5474 847.774 L65.2233 847.774 L65.2233 878.399 L72.8622 878.399 L72.8622 882.334 L52.9549 882.334 L52.9549 878.399 Z" fill="#000000" fill-rule="evenodd" fill-opacity="1" /><path clip-path="url(#clip530)" d="M82.3529 847.774 L100.709 847.774 L100.709 851.709 L86.6353 851.709 L86.6353 860.181 Q87.6538 859.834 88.6723 859.672 Q89.6908 859.487 90.7093 859.487 Q96.4963 859.487 99.8759 862.658 Q103.256 865.829 103.256 871.246 Q103.256 876.825 99.7833 879.927 Q96.3111 883.005 89.9917 883.005 Q87.8158 883.005 85.5473 882.635 Q83.3019 882.265 80.8946 881.524 L80.8946 876.825 Q82.9779 877.959 85.2001 878.515 Q87.4223 879.07 89.8991 879.07 Q93.9037 879.07 96.2417 876.964 Q98.5796 874.857 98.5796 871.246 Q98.5796 867.635 96.2417 865.529 Q93.9037 863.422 89.8991 863.422 Q88.0241 863.422 86.1492 863.839 Q84.2973 864.255 82.3529 865.135 L82.3529 847.774 Z" fill="#000000" fill-rule="evenodd" fill-opacity="1" /><path clip-path="url(#clip530)" d="M55.1771 583.033 L71.4965 583.033 L71.4965 586.968 L49.5521 586.968 L49.5521 583.033 Q52.2141 580.279 56.7975 575.649 Q61.4039 570.996 62.5845 569.654 Q64.8298 567.131 65.7094 565.394 Q66.6122 563.635 66.6122 561.945 Q66.6122 559.191 64.6678 557.455 Q62.7465 555.719 59.6447 555.719 Q57.4456 555.719 54.9919 556.482 Q52.5614 557.246 49.7836 558.797 L49.7836 554.075 Q52.6077 552.941 55.0614 552.362 Q57.515 551.783 59.5521 551.783 Q64.9224 551.783 68.1168 554.469 Q71.3113 557.154 71.3113 561.644 Q71.3113 563.774 70.5011 565.695 Q69.7141 567.593 67.6076 570.186 Q67.0289 570.857 63.927 574.075 Q60.8252 577.269 55.1771 583.033 Z" fill="#000000" fill-rule="evenodd" fill-opacity="1" /><path clip-path="url(#clip530)" d="M91.3112 555.487 Q87.7001 555.487 85.8714 559.052 Q84.0658 562.594 84.0658 569.723 Q84.0658 576.83 85.8714 580.394 Q87.7001 583.936 91.3112 583.936 Q94.9454 583.936 96.7509 580.394 Q98.5796 576.83 98.5796 569.723 Q98.5796 562.594 96.7509 559.052 Q94.9454 555.487 91.3112 555.487 M91.3112 551.783 Q97.1213 551.783 100.177 556.39 Q103.256 560.973 103.256 569.723 Q103.256 578.45 100.177 583.056 Q97.1213 587.64 91.3112 587.64 Q85.501 587.64 82.4223 583.056 Q79.3668 578.45 79.3668 569.723 Q79.3668 560.973 82.4223 556.39 Q85.501 551.783 91.3112 551.783 Z" fill="#000000" fill-rule="evenodd" fill-opacity="1" /><path clip-path="url(#clip530)" d="M56.1725 287.668 L72.4918 287.668 L72.4918 291.603 L50.5475 291.603 L50.5475 287.668 Q53.2095 284.913 57.7928 280.283 Q62.3993 275.631 63.5798 274.288 Q65.8252 271.765 66.7048 270.029 Q67.6076 268.27 67.6076 266.58 Q67.6076 263.825 65.6632 262.089 Q63.7419 260.353 60.64 260.353 Q58.441 260.353 55.9873 261.117 Q53.5567 261.881 50.779 263.432 L50.779 258.709 Q53.603 257.575 56.0567 256.996 Q58.5104 256.418 60.5474 256.418 Q65.9178 256.418 69.1122 259.103 Q72.3066 261.788 72.3066 266.279 Q72.3066 268.408 71.4965 270.33 Q70.7094 272.228 68.6029 274.82 Q68.0242 275.492 64.9224 278.709 Q61.8206 281.904 56.1725 287.668 Z" fill="#000000" fill-rule="evenodd" fill-opacity="1" /><path clip-path="url(#clip530)" d="M82.3529 257.043 L100.709 257.043 L100.709 260.978 L86.6353 260.978 L86.6353 269.45 Q87.6538 269.103 88.6723 268.941 Q89.6908 268.756 90.7093 268.756 Q96.4963 268.756 99.8759 271.927 Q103.256 275.098 103.256 280.515 Q103.256 286.094 99.7833 289.195 Q96.3111 292.274 89.9917 292.274 Q87.8158 292.274 85.5473 291.904 Q83.3019 291.533 80.8946 290.793 L80.8946 286.094 Q82.9779 287.228 85.2001 287.783 Q87.4223 288.339 89.8991 288.339 Q93.9037 288.339 96.2417 286.232 Q98.5796 284.126 98.5796 280.515 Q98.5796 276.904 96.2417 274.797 Q93.9037 272.691 89.8991 272.691 Q88.0241 272.691 86.1492 273.107 Q84.2973 273.524 82.3529 274.404 L82.3529 257.043 Z" fill="#000000" fill-rule="evenodd" fill-opacity="1" /><polyline clip-path="url(#clip532)" style="stroke:#009af9; stroke-linecap:butt; stroke-linejoin:round; stroke-width:4; stroke-opacity:1; fill:none" points="
  214.25,1751.15 218.085,1743.68 221.919,1736.22 225.754,1728.79 229.588,1721.37 265.043,1653.55 300.498,1587.18 335.953,1522.25 371.408,1458.78 414.022,1384.39 
  456.635,1312.1 492.665,1252.6 528.694,1194.6 567.832,1133.29 606.971,1073.74 643.052,1020.39 679.134,968.551 717.818,914.632 756.501,862.434 801.32,804.111 
  846.139,748.097 885.968,700.258 925.798,654.244 960.725,615.395 995.652,577.949 1033.73,538.721 1071.81,501.162 1110.12,465.062 1148.42,430.649 1190.78,394.567 
  1233.13,360.547 1273.42,330.094 1313.72,301.508 1355.62,273.766 1397.52,248.043 1432.79,227.955 1468.06,209.298 1511.12,188.46 1554.19,169.754 1593.63,154.491 
  1633.08,141.017 1669.51,130.162 1705.94,120.834 1742.85,112.942 1779.75,106.616 1821.11,101.388 1862.47,98.1277 1899.95,96.8724 1937.43,97.2328 1980.34,99.6291 
  2023.25,104.143 2062.98,110.211 2102.71,118.095 2141.88,127.645 2181.06,138.959 2219.09,151.633 2257.12,165.971 2296.1,182.395 2335.09,200.568 2377.81,222.485 
  2420.52,246.501 2482.57,285.127 2544.62,328.181 2557.35,337.561 2570.08,347.127 
  "/>
<path clip-path="url(#clip530)" d="
M2227.62 209.375 L2557.52 209.375 L2557.52 105.695 L2227.62 105.695  Z
  " fill="#ffffff" fill-rule="evenodd" fill-opacity="1"/>
<polyline clip-path="url(#clip530)" style="stroke:#000000; stroke-linecap:butt; stroke-linejoin:round; stroke-width:4; stroke-opacity:1; fill:none" points="
  2227.62,209.375 2557.52,209.375 2557.52,105.695 2227.62,105.695 2227.62,209.375 
  "/>
<polyline clip-path="url(#clip530)" style="stroke:#009af9; stroke-linecap:butt; stroke-linejoin:round; stroke-width:4; stroke-opacity:1; fill:none" points="
  2255.37,157.535 2421.85,157.535 
  "/>
<path clip-path="url(#clip530)" d="M2463.44 177.223 Q2461.63 181.852 2459.92 183.264 Q2458.2 184.676 2455.33 184.676 L2451.93 184.676 L2451.93 181.112 L2454.43 181.112 Q2456.19 181.112 2457.16 180.278 Q2458.14 179.445 2459.32 176.343 L2460.08 174.399 L2449.59 148.889 L2454.11 148.889 L2462.21 169.167 L2470.31 148.889 L2474.82 148.889 L2463.44 177.223 Z" fill="#000000" fill-rule="evenodd" fill-opacity="1" /><path clip-path="url(#clip530)" d="M2482.12 170.88 L2489.76 170.88 L2489.76 144.515 L2481.45 146.181 L2481.45 141.922 L2489.71 140.255 L2494.38 140.255 L2494.38 170.88 L2502.02 170.88 L2502.02 174.815 L2482.12 174.815 L2482.12 170.88 Z" fill="#000000" fill-rule="evenodd" fill-opacity="1" /></svg>
