<?xml version="1.0" encoding="utf-8"?>
<svg xmlns="http://www.w3.org/2000/svg" xmlns:xlink="http://www.w3.org/1999/xlink" width="672" height="480" viewBox="0 0 2688 1920">
<defs>
  <clipPath id="clip240">
    <rect x="0" y="0" width="2688" height="1920"/>
  </clipPath>
</defs>
<path clip-path="url(#clip240)" d="
M0 1920 L2688 1920 L2688 0 L0 0  Z
  " fill="#ffffff" fill-rule="evenodd" fill-opacity="1"/>
<defs>
  <clipPath id="clip241">
    <rect x="537" y="0" width="1883" height="1883"/>
  </clipPath>
</defs>
<path clip-path="url(#clip240)" d="
M47.2441 1872.76 L2640.76 1872.76 L2640.76 47.2441 L47.2441 47.2441  Z
  " fill="#ffffff" fill-rule="evenodd" fill-opacity="1"/>
<defs>
  <clipPath id="clip242">
    <rect x="47" y="47" width="2595" height="1827"/>
  </clipPath>
</defs>
<polyline clip-path="url(#clip242)" style="stroke:#009af9; stroke-linecap:round; stroke-linejoin:round; stroke-width:12; stroke-opacity:1; fill:none" points="
  138.473,1821.09 1860.65,1821.09 1860.65,98.9095 138.473,98.9095 138.473,1821.09 
  "/>
<polyline clip-path="url(#clip242)" style="stroke:#e26f46; stroke-linecap:round; stroke-linejoin:round; stroke-width:4; stroke-opacity:1; fill:none" points="
  1860.65,1476.65 2549.53,1476.65 2549.53,443.346 1860.65,443.346 
  "/>
<path clip-path="url(#clip240)" d="M2742.89 944.87 L2726.48 966.947 L2743.74 990.24 L2734.95 990.24 L2721.74 972.416 L2708.54 990.24 L2699.75 990.24 L2717.37 966.502 L2701.25 944.87 L2710.04 944.87 L2722.07 961.033 L2734.1 944.87 L2742.89 944.87 Z" fill="#000000" fill-rule="evenodd" fill-opacity="1" /><path clip-path="url(#clip240)" d="M2207.24 1683.33 Q2204.08 1691.43 2201.08 1693.9 Q2198.08 1696.37 2193.06 1696.37 L2187.1 1696.37 L2187.1 1690.13 L2191.48 1690.13 Q2194.56 1690.13 2196.26 1688.67 Q2197.96 1687.21 2200.03 1681.79 L2201.36 1678.38 L2183.01 1633.74 L2190.91 1633.74 L2205.09 1669.23 L2219.27 1633.74 L2227.17 1633.74 L2207.24 1683.33 Z" fill="#000000" fill-rule="evenodd" fill-opacity="1" /></svg>
