<?xml version="1.0" encoding="utf-8"?>
<svg xmlns="http://www.w3.org/2000/svg" xmlns:xlink="http://www.w3.org/1999/xlink" width="672" height="480" viewBox="0 0 2688 1920">
<defs>
  <clipPath id="clip820">
    <rect x="0" y="0" width="2688" height="1920"/>
  </clipPath>
</defs>
<path clip-path="url(#clip820)" d="
M0 1920 L2688 1920 L2688 0 L0 0  Z
  " fill="#ffffff" fill-rule="evenodd" fill-opacity="1"/>
<defs>
  <clipPath id="clip821">
    <rect x="537" y="0" width="1883" height="1883"/>
  </clipPath>
</defs>
<path clip-path="url(#clip820)" d="
M141.839 1800.78 L2640.76 1800.78 L2640.76 47.2441 L141.839 47.2441  Z
  " fill="#ffffff" fill-rule="evenodd" fill-opacity="1"/>
<defs>
  <clipPath id="clip822">
    <rect x="141" y="47" width="2500" height="1755"/>
  </clipPath>
</defs>
<polyline clip-path="url(#clip822)" style="stroke:#000000; stroke-linecap:round; stroke-linejoin:round; stroke-width:2; stroke-opacity:0.1; fill:none" points="
  212.563,1800.78 212.563,47.2441 
  "/>
<polyline clip-path="url(#clip822)" style="stroke:#000000; stroke-linecap:round; stroke-linejoin:round; stroke-width:2; stroke-opacity:0.1; fill:none" points="
  998.386,1800.78 998.386,47.2441 
  "/>
<polyline clip-path="url(#clip822)" style="stroke:#000000; stroke-linecap:round; stroke-linejoin:round; stroke-width:2; stroke-opacity:0.1; fill:none" points="
  1784.21,1800.78 1784.21,47.2441 
  "/>
<polyline clip-path="url(#clip822)" style="stroke:#000000; stroke-linecap:round; stroke-linejoin:round; stroke-width:2; stroke-opacity:0.1; fill:none" points="
  2570.03,1800.78 2570.03,47.2441 
  "/>
<polyline clip-path="url(#clip820)" style="stroke:#000000; stroke-linecap:round; stroke-linejoin:round; stroke-width:4; stroke-opacity:1; fill:none" points="
  141.839,1800.78 2640.76,1800.78 
  "/>
<polyline clip-path="url(#clip820)" style="stroke:#000000; stroke-linecap:round; stroke-linejoin:round; stroke-width:4; stroke-opacity:1; fill:none" points="
  212.563,1800.78 212.563,1781.88 
  "/>
<polyline clip-path="url(#clip820)" style="stroke:#000000; stroke-linecap:round; stroke-linejoin:round; stroke-width:4; stroke-opacity:1; fill:none" points="
  998.386,1800.78 998.386,1781.88 
  "/>
<polyline clip-path="url(#clip820)" style="stroke:#000000; stroke-linecap:round; stroke-linejoin:round; stroke-width:4; stroke-opacity:1; fill:none" points="
  1784.21,1800.78 1784.21,1781.88 
  "/>
<polyline clip-path="url(#clip820)" style="stroke:#000000; stroke-linecap:round; stroke-linejoin:round; stroke-width:4; stroke-opacity:1; fill:none" points="
  2570.03,1800.78 2570.03,1781.88 
  "/>
<path clip-path="url(#clip820)" d="M212.563 1834 Q208.952 1834 207.124 1837.57 Q205.318 1841.11 205.318 1848.24 Q205.318 1855.34 207.124 1858.91 Q208.952 1862.45 212.563 1862.45 Q216.198 1862.45 218.003 1858.91 Q219.832 1855.34 219.832 1848.24 Q219.832 1841.11 218.003 1837.57 Q216.198 1834 212.563 1834 M212.563 1830.3 Q218.374 1830.3 221.429 1834.9 Q224.508 1839.49 224.508 1848.24 Q224.508 1856.96 221.429 1861.57 Q218.374 1866.15 212.563 1866.15 Q206.753 1866.15 203.675 1861.57 Q200.619 1856.96 200.619 1848.24 Q200.619 1839.49 203.675 1834.9 Q206.753 1830.3 212.563 1830.3 Z" fill="#000000" fill-rule="evenodd" fill-opacity="1" /><path clip-path="url(#clip820)" d="M988.664 1830.92 L1007.02 1830.92 L1007.02 1834.86 L992.946 1834.86 L992.946 1843.33 Q993.965 1842.98 994.984 1842.82 Q996.002 1842.64 997.021 1842.64 Q1002.81 1842.64 1006.19 1845.81 Q1009.57 1848.98 1009.57 1854.4 Q1009.57 1859.97 1006.09 1863.08 Q1002.62 1866.15 996.303 1866.15 Q994.127 1866.15 991.859 1865.78 Q989.613 1865.41 987.206 1864.67 L987.206 1859.97 Q989.289 1861.11 991.511 1861.66 Q993.734 1862.22 996.21 1862.22 Q1000.21 1862.22 1002.55 1860.11 Q1004.89 1858.01 1004.89 1854.4 Q1004.89 1850.78 1002.55 1848.68 Q1000.21 1846.57 996.21 1846.57 Q994.335 1846.57 992.46 1846.99 Q990.609 1847.4 988.664 1848.28 L988.664 1830.92 Z" fill="#000000" fill-rule="evenodd" fill-opacity="1" /><path clip-path="url(#clip820)" d="M1758.9 1861.55 L1766.54 1861.55 L1766.54 1835.18 L1758.23 1836.85 L1758.23 1832.59 L1766.49 1830.92 L1771.17 1830.92 L1771.17 1861.55 L1778.8 1861.55 L1778.8 1865.48 L1758.9 1865.48 L1758.9 1861.55 Z" fill="#000000" fill-rule="evenodd" fill-opacity="1" /><path clip-path="url(#clip820)" d="M1798.25 1834 Q1794.64 1834 1792.81 1837.57 Q1791 1841.11 1791 1848.24 Q1791 1855.34 1792.81 1858.91 Q1794.64 1862.45 1798.25 1862.45 Q1801.88 1862.45 1803.69 1858.91 Q1805.52 1855.34 1805.52 1848.24 Q1805.52 1841.11 1803.69 1837.57 Q1801.88 1834 1798.25 1834 M1798.25 1830.3 Q1804.06 1830.3 1807.11 1834.9 Q1810.19 1839.49 1810.19 1848.24 Q1810.19 1856.96 1807.11 1861.57 Q1804.06 1866.15 1798.25 1866.15 Q1792.44 1866.15 1789.36 1861.57 Q1786.3 1856.96 1786.3 1848.24 Q1786.3 1839.49 1789.36 1834.9 Q1792.44 1830.3 1798.25 1830.3 Z" fill="#000000" fill-rule="evenodd" fill-opacity="1" /><path clip-path="url(#clip820)" d="M2545.22 1861.55 L2552.86 1861.55 L2552.86 1835.18 L2544.55 1836.85 L2544.55 1832.59 L2552.81 1830.92 L2557.49 1830.92 L2557.49 1861.55 L2565.12 1861.55 L2565.12 1865.48 L2545.22 1865.48 L2545.22 1861.55 Z" fill="#000000" fill-rule="evenodd" fill-opacity="1" /><path clip-path="url(#clip820)" d="M2574.62 1830.92 L2592.97 1830.92 L2592.97 1834.86 L2578.9 1834.86 L2578.9 1843.33 Q2579.92 1842.98 2580.93 1842.82 Q2581.95 1842.64 2582.97 1842.64 Q2588.76 1842.64 2592.14 1845.81 Q2595.52 1848.98 2595.52 1854.4 Q2595.52 1859.97 2592.05 1863.08 Q2588.57 1866.15 2582.25 1866.15 Q2580.08 1866.15 2577.81 1865.78 Q2575.56 1865.41 2573.16 1864.67 L2573.16 1859.97 Q2575.24 1861.11 2577.46 1861.66 Q2579.68 1862.22 2582.16 1862.22 Q2586.17 1862.22 2588.5 1860.11 Q2590.84 1858.01 2590.84 1854.4 Q2590.84 1850.78 2588.5 1848.68 Q2586.17 1846.57 2582.16 1846.57 Q2580.29 1846.57 2578.41 1846.99 Q2576.56 1847.4 2574.62 1848.28 L2574.62 1830.92 Z" fill="#000000" fill-rule="evenodd" fill-opacity="1" /><polyline clip-path="url(#clip822)" style="stroke:#000000; stroke-linecap:round; stroke-linejoin:round; stroke-width:2; stroke-opacity:0.1; fill:none" points="
  141.839,1751.15 2640.76,1751.15 
  "/>
<polyline clip-path="url(#clip822)" style="stroke:#000000; stroke-linecap:round; stroke-linejoin:round; stroke-width:2; stroke-opacity:0.1; fill:none" points="
  141.839,1199.72 2640.76,1199.72 
  "/>
<polyline clip-path="url(#clip822)" style="stroke:#000000; stroke-linecap:round; stroke-linejoin:round; stroke-width:2; stroke-opacity:0.1; fill:none" points="
  141.839,648.299 2640.76,648.299 
  "/>
<polyline clip-path="url(#clip822)" style="stroke:#000000; stroke-linecap:round; stroke-linejoin:round; stroke-width:2; stroke-opacity:0.1; fill:none" points="
  141.839,96.8724 2640.76,96.8724 
  "/>
<polyline clip-path="url(#clip820)" style="stroke:#000000; stroke-linecap:round; stroke-linejoin:round; stroke-width:4; stroke-opacity:1; fill:none" points="
  141.839,1800.78 141.839,47.2441 
  "/>
<polyline clip-path="url(#clip820)" style="stroke:#000000; stroke-linecap:round; stroke-linejoin:round; stroke-width:4; stroke-opacity:1; fill:none" points="
  141.839,1751.15 160.737,1751.15 
  "/>
<polyline clip-path="url(#clip820)" style="stroke:#000000; stroke-linecap:round; stroke-linejoin:round; stroke-width:4; stroke-opacity:1; fill:none" points="
  141.839,1199.72 160.737,1199.72 
  "/>
<polyline clip-path="url(#clip820)" style="stroke:#000000; stroke-linecap:round; stroke-linejoin:round; stroke-width:4; stroke-opacity:1; fill:none" points="
  141.839,648.299 160.737,648.299 
  "/>
<polyline clip-path="url(#clip820)" style="stroke:#000000; stroke-linecap:round; stroke-linejoin:round; stroke-width:4; stroke-opacity:1; fill:none" points="
  141.839,96.8724 160.737,96.8724 
  "/>
<path clip-path="url(#clip820)" d="M89.5751 1736.95 Q85.964 1736.95 84.1353 1740.51 Q82.3297 1744.06 82.3297 1751.19 Q82.3297 1758.29 84.1353 1761.86 Q85.964 1765.4 89.5751 1765.4 Q93.2093 1765.4 95.0148 1761.86 Q96.8435 1758.29 96.8435 1751.19 Q96.8435 1744.06 95.0148 1740.51 Q93.2093 1736.95 89.5751 1736.95 M89.5751 1733.25 Q95.3852 1733.25 98.4408 1737.85 Q101.519 1742.44 101.519 1751.19 Q101.519 1759.91 98.4408 1764.52 Q95.3852 1769.1 89.5751 1769.1 Q83.7649 1769.1 80.6862 1764.52 Q77.6307 1759.91 77.6307 1751.19 Q77.6307 1742.44 80.6862 1737.85 Q83.7649 1733.25 89.5751 1733.25 Z" fill="#000000" fill-rule="evenodd" fill-opacity="1" /><path clip-path="url(#clip820)" d="M80.6168 1182.44 L98.9732 1182.44 L98.9732 1186.38 L84.8992 1186.38 L84.8992 1194.85 Q85.9177 1194.5 86.9362 1194.34 Q87.9547 1194.16 88.9732 1194.16 Q94.7602 1194.16 98.1398 1197.33 Q101.519 1200.5 101.519 1205.92 Q101.519 1211.5 98.0472 1214.6 Q94.575 1217.68 88.2556 1217.68 Q86.0797 1217.68 83.8112 1217.31 Q81.5658 1216.94 79.1584 1216.19 L79.1584 1211.5 Q81.2418 1212.63 83.464 1213.19 Q85.6862 1213.74 88.163 1213.74 Q92.1676 1213.74 94.5056 1211.63 Q96.8435 1209.53 96.8435 1205.92 Q96.8435 1202.31 94.5056 1200.2 Q92.1676 1198.09 88.163 1198.09 Q86.288 1198.09 84.4131 1198.51 Q82.5612 1198.93 80.6168 1199.81 L80.6168 1182.44 Z" fill="#000000" fill-rule="evenodd" fill-opacity="1" /><path clip-path="url(#clip820)" d="M50.2234 661.643 L57.8623 661.643 L57.8623 635.278 L49.5521 636.945 L49.5521 632.685 L57.816 631.019 L62.4919 631.019 L62.4919 661.643 L70.1307 661.643 L70.1307 665.579 L50.2234 665.579 L50.2234 661.643 Z" fill="#000000" fill-rule="evenodd" fill-opacity="1" /><path clip-path="url(#clip820)" d="M89.5751 634.097 Q85.964 634.097 84.1353 637.662 Q82.3297 641.204 82.3297 648.333 Q82.3297 655.44 84.1353 659.005 Q85.964 662.546 89.5751 662.546 Q93.2093 662.546 95.0148 659.005 Q96.8435 655.44 96.8435 648.333 Q96.8435 641.204 95.0148 637.662 Q93.2093 634.097 89.5751 634.097 M89.5751 630.394 Q95.3852 630.394 98.4408 635 Q101.519 639.583 101.519 648.333 Q101.519 657.06 98.4408 661.667 Q95.3852 666.25 89.5751 666.25 Q83.7649 666.25 80.6862 661.667 Q77.6307 657.06 77.6307 648.333 Q77.6307 639.583 80.6862 635 Q83.7649 630.394 89.5751 630.394 Z" fill="#000000" fill-rule="evenodd" fill-opacity="1" /><path clip-path="url(#clip820)" d="M51.2188 110.217 L58.8576 110.217 L58.8576 83.8517 L50.5475 85.5183 L50.5475 81.2591 L58.8113 79.5924 L63.4872 79.5924 L63.4872 110.217 L71.1261 110.217 L71.1261 114.152 L51.2188 114.152 L51.2188 110.217 Z" fill="#000000" fill-rule="evenodd" fill-opacity="1" /><path clip-path="url(#clip820)" d="M80.6168 79.5924 L98.9732 79.5924 L98.9732 83.5276 L84.8992 83.5276 L84.8992 91.9998 Q85.9177 91.6526 86.9362 91.4905 Q87.9547 91.3053 88.9732 91.3053 Q94.7602 91.3053 98.1398 94.4766 Q101.519 97.6479 101.519 103.065 Q101.519 108.643 98.0472 111.745 Q94.575 114.824 88.2556 114.824 Q86.0797 114.824 83.8112 114.453 Q81.5658 114.083 79.1584 113.342 L79.1584 108.643 Q81.2418 109.777 83.464 110.333 Q85.6862 110.889 88.163 110.889 Q92.1676 110.889 94.5056 108.782 Q96.8435 106.676 96.8435 103.065 Q96.8435 99.4535 94.5056 97.347 Q92.1676 95.2405 88.163 95.2405 Q86.288 95.2405 84.4131 95.6572 Q82.5612 96.0738 80.6168 96.9535 L80.6168 79.5924 Z" fill="#000000" fill-rule="evenodd" fill-opacity="1" /><polyline clip-path="url(#clip822)" style="stroke:#0000ff; stroke-linecap:round; stroke-linejoin:round; stroke-width:4; stroke-opacity:1; fill:none" points="
  212.563,96.8724 212.563,1751.15 2570.03,1751.15 
  "/>
<polyline clip-path="url(#clip822)" style="stroke:#0000ff; stroke-linecap:round; stroke-linejoin:round; stroke-width:4; stroke-opacity:1; fill:none" points="
  998.386,96.8724 998.386,868.869 2570.03,868.869 
  "/>
<polyline clip-path="url(#clip822)" style="stroke:#3da44d; stroke-linecap:round; stroke-linejoin:round; stroke-width:12; stroke-opacity:1; fill:none" points="
  212.563,406.168 2496.8,1751.15 
  "/>
<polyline clip-path="url(#clip822)" style="stroke:#ffa500; stroke-linecap:round; stroke-linejoin:round; stroke-width:4; stroke-opacity:1; fill:none" points="
  212.563,868.869 998.386,868.869 
  "/>
<polyline clip-path="url(#clip822)" style="stroke:#ffa500; stroke-linecap:round; stroke-linejoin:round; stroke-width:4; stroke-opacity:1; fill:none" points="
  998.386,1751.15 998.386,868.869 
  "/>
<path clip-path="url(#clip820)" d="M2268.58 1697.49 L2242.78 1697.49 Q2243.39 1709.6 2246.18 1714.74 Q2249.67 1721.06 2255.7 1721.06 Q2261.78 1721.06 2265.14 1714.7 Q2268.1 1709.11 2268.58 1697.49 M2268.46 1690.6 Q2267.33 1679.1 2265.14 1675.04 Q2261.66 1668.64 2255.7 1668.64 Q2249.5 1668.64 2246.22 1674.96 Q2243.63 1680.07 2242.86 1690.6 L2268.46 1690.6 M2255.7 1662.57 Q2265.42 1662.57 2270.97 1671.16 Q2276.52 1679.7 2276.52 1694.85 Q2276.52 1709.96 2270.97 1718.55 Q2265.42 1727.18 2255.7 1727.18 Q2245.94 1727.18 2240.43 1718.55 Q2234.88 1709.96 2234.88 1694.85 Q2234.88 1679.7 2240.43 1671.16 Q2245.94 1662.57 2255.7 1662.57 Z" fill="#000000" fill-rule="evenodd" fill-opacity="1" /><path clip-path="url(#clip820)" d="M583.843 505.221 L591.297 505.221 L591.297 568.253 L583.843 568.253 L583.843 505.221 Z" fill="#000000" fill-rule="evenodd" fill-opacity="1" /><path clip-path="url(#clip820)" d="M609.931 563.635 L627.107 563.635 L627.107 568.253 L602.882 568.253 L602.882 563.797 Q604.26 562.542 606.812 560.273 Q620.747 547.918 620.747 544.11 Q620.747 541.436 618.64 539.816 Q616.534 538.155 613.091 538.155 Q610.984 538.155 608.513 538.884 Q606.042 539.573 603.125 540.991 L603.125 536.008 Q606.245 534.874 608.918 534.307 Q611.632 533.74 613.941 533.74 Q619.815 533.74 623.339 536.413 Q626.864 539.087 626.864 543.462 Q626.864 549.093 613.455 560.597 Q611.187 562.542 609.931 563.635 Z" fill="#000000" fill-rule="evenodd" fill-opacity="1" /><path clip-path="url(#clip820)" d="M1762.23 1166.93 L1769.69 1166.93 L1769.69 1229.96 L1762.23 1229.96 L1762.23 1166.93 Z" fill="#000000" fill-rule="evenodd" fill-opacity="1" /><path clip-path="url(#clip820)" d="M1783.78 1225.51 L1792.05 1225.51 L1792.05 1200.76 L1783.01 1202.42 L1783.01 1197.72 L1792.33 1196.14 L1797.88 1196.14 L1797.88 1225.51 L1806.19 1225.51 L1806.19 1229.96 L1783.78 1229.96 L1783.78 1225.51 Z" fill="#000000" fill-rule="evenodd" fill-opacity="1" /><path clip-path="url(#clip820)" d="M417.695 946.362 L425.149 946.362 L425.149 1009.39 L417.695 1009.39 L417.695 946.362 Z" fill="#000000" fill-rule="evenodd" fill-opacity="1" /><path clip-path="url(#clip820)" d="M443.783 1004.78 L460.959 1004.78 L460.959 1009.39 L436.734 1009.39 L436.734 1004.94 Q438.112 1003.68 440.664 1001.41 Q454.599 989.059 454.599 985.251 Q454.599 982.577 452.492 980.957 Q450.386 979.296 446.943 979.296 Q444.836 979.296 442.365 980.025 Q439.894 980.714 436.978 982.132 L436.978 977.149 Q440.097 976.015 442.77 975.448 Q445.484 974.881 447.793 974.881 Q453.667 974.881 457.192 977.554 Q460.716 980.228 460.716 984.603 Q460.716 990.234 447.307 1001.74 Q445.039 1003.68 443.783 1004.78 Z" fill="#000000" fill-rule="evenodd" fill-opacity="1" /><path clip-path="url(#clip820)" d="M501.427 975.448 L509.975 975.448 L509.975 985.737 L501.427 985.737 L501.427 975.448 Z" fill="#000000" fill-rule="evenodd" fill-opacity="1" /><path clip-path="url(#clip820)" d="M585.767 965.766 L585.767 972.734 Q582.608 970.992 579.407 970.141 Q576.248 969.25 573.007 969.25 Q565.756 969.25 561.745 973.868 Q557.735 978.445 557.735 986.75 Q557.735 995.054 561.745 999.672 Q565.756 1004.25 573.007 1004.25 Q576.248 1004.25 579.407 1003.4 Q582.608 1002.51 585.767 1000.77 L585.767 1007.65 Q582.648 1009.11 579.286 1009.84 Q575.964 1010.57 572.197 1010.57 Q561.948 1010.57 555.912 1004.13 Q549.876 997.687 549.876 986.75 Q549.876 975.65 555.953 969.29 Q562.069 962.93 572.683 962.93 Q576.126 962.93 579.407 963.66 Q582.689 964.348 585.767 965.766 Z" fill="#000000" fill-rule="evenodd" fill-opacity="1" /><path clip-path="url(#clip820)" d="M616.311 969.25 Q610.316 969.25 606.832 973.949 Q603.348 978.607 603.348 986.75 Q603.348 994.892 606.791 999.591 Q610.275 1004.25 616.311 1004.25 Q622.266 1004.25 625.75 999.551 Q629.233 994.852 629.233 986.75 Q629.233 978.688 625.75 973.989 Q622.266 969.25 616.311 969.25 M616.311 962.93 Q626.033 962.93 631.583 969.25 Q637.133 975.569 637.133 986.75 Q637.133 997.89 631.583 1004.25 Q626.033 1010.57 616.311 1010.57 Q606.548 1010.57 600.999 1004.25 Q595.489 997.89 595.489 986.75 Q595.489 975.569 600.999 969.25 Q606.548 962.93 616.311 962.93 Z" fill="#000000" fill-rule="evenodd" fill-opacity="1" /><path clip-path="url(#clip820)" d="M678.411 965.361 L678.411 972.41 Q675.252 970.789 671.849 969.979 Q668.446 969.169 664.8 969.169 Q659.251 969.169 656.456 970.87 Q653.701 972.572 653.701 975.974 Q653.701 978.567 655.686 980.066 Q657.671 981.524 663.666 982.861 L666.218 983.428 Q674.158 985.129 677.48 988.249 Q680.842 991.327 680.842 996.877 Q680.842 1003.2 675.819 1006.88 Q670.836 1010.57 662.086 1010.57 Q658.44 1010.57 654.471 1009.84 Q650.541 1009.15 646.166 1007.73 L646.166 1000.04 Q650.298 1002.18 654.309 1003.28 Q658.319 1004.33 662.248 1004.33 Q667.514 1004.33 670.35 1002.55 Q673.186 1000.73 673.186 997.444 Q673.186 994.406 671.12 992.786 Q669.094 991.165 662.167 989.666 L659.575 989.059 Q652.648 987.6 649.569 984.603 Q646.49 981.565 646.49 976.298 Q646.49 969.898 651.027 966.414 Q655.564 962.93 663.909 962.93 Q668.041 962.93 671.687 963.538 Q675.333 964.146 678.411 965.361 Z" fill="#000000" fill-rule="evenodd" fill-opacity="1" /><path clip-path="url(#clip820)" d="M710.616 946.443 Q705.188 955.76 702.555 964.875 Q699.922 973.989 699.922 983.347 Q699.922 992.705 702.555 1001.9 Q705.228 1011.06 710.616 1020.33 L704.135 1020.33 Q698.058 1010.81 695.02 1001.62 Q692.022 992.421 692.022 983.347 Q692.022 974.313 695.02 965.158 Q698.018 956.003 704.135 946.443 L710.616 946.443 Z" fill="#000000" fill-rule="evenodd" fill-opacity="1" /><path clip-path="url(#clip820)" d="M755.541 980.633 L729.736 980.633 Q730.344 992.745 733.139 997.89 Q736.623 1004.21 742.659 1004.21 Q748.735 1004.21 752.097 997.849 Q755.055 992.259 755.541 980.633 M755.419 973.746 Q754.285 962.242 752.097 958.191 Q748.614 951.79 742.659 951.79 Q736.461 951.79 733.18 958.11 Q730.587 963.214 729.817 973.746 L755.419 973.746 M742.659 945.714 Q752.381 945.714 757.931 954.302 Q763.48 962.849 763.48 978 Q763.48 993.11 757.931 1001.7 Q752.381 1010.33 742.659 1010.33 Q732.896 1010.33 727.387 1001.7 Q721.837 993.11 721.837 978 Q721.837 962.849 727.387 954.302 Q732.896 945.714 742.659 945.714 Z" fill="#000000" fill-rule="evenodd" fill-opacity="1" /><path clip-path="url(#clip820)" d="M774.661 946.443 L781.142 946.443 Q787.219 956.003 790.216 965.158 Q793.255 974.313 793.255 983.347 Q793.255 992.421 790.216 1001.62 Q787.219 1010.81 781.142 1020.33 L774.661 1020.33 Q780.049 1011.06 782.682 1001.9 Q785.355 992.705 785.355 983.347 Q785.355 973.989 782.682 964.875 Q780.049 955.76 774.661 946.443 Z" fill="#000000" fill-rule="evenodd" fill-opacity="1" /><path clip-path="url(#clip820)" d="M836.693 1277.22 L844.147 1277.22 L844.147 1340.25 L836.693 1340.25 L836.693 1277.22 Z" fill="#000000" fill-rule="evenodd" fill-opacity="1" /><path clip-path="url(#clip820)" d="M858.244 1335.79 L866.508 1335.79 L866.508 1311.04 L857.475 1312.7 L857.475 1308 L866.792 1306.42 L872.341 1306.42 L872.341 1335.79 L880.646 1335.79 L880.646 1340.25 L858.244 1340.25 L858.244 1335.79 Z" fill="#000000" fill-rule="evenodd" fill-opacity="1" /><path clip-path="url(#clip820)" d="M920.426 1306.3 L928.973 1306.3 L928.973 1316.59 L920.426 1316.59 L920.426 1306.3 Z" fill="#000000" fill-rule="evenodd" fill-opacity="1" /><path clip-path="url(#clip820)" d="M1001.04 1296.22 L1001.04 1303.27 Q997.879 1301.64 994.476 1300.83 Q991.073 1300.02 987.428 1300.02 Q981.878 1300.02 979.083 1301.73 Q976.328 1303.43 976.328 1306.83 Q976.328 1309.42 978.313 1310.92 Q980.298 1312.38 986.293 1313.72 L988.845 1314.28 Q996.785 1315.99 1000.11 1319.1 Q1003.47 1322.18 1003.47 1327.73 Q1003.47 1334.05 998.446 1337.74 Q993.463 1341.42 984.713 1341.42 Q981.068 1341.42 977.098 1340.7 Q973.168 1340.01 968.793 1338.59 L968.793 1330.89 Q972.925 1333.04 976.936 1334.13 Q980.946 1335.19 984.875 1335.19 Q990.142 1335.19 992.977 1333.4 Q995.813 1331.58 995.813 1328.3 Q995.813 1325.26 993.747 1323.64 Q991.721 1322.02 984.794 1320.52 L982.202 1319.91 Q975.275 1318.46 972.196 1315.46 Q969.117 1312.42 969.117 1307.15 Q969.117 1300.75 973.654 1297.27 Q978.191 1293.79 986.536 1293.79 Q990.668 1293.79 994.314 1294.39 Q997.96 1295 1001.04 1296.22 Z" fill="#000000" fill-rule="evenodd" fill-opacity="1" /><path clip-path="url(#clip820)" d="M1015.34 1294.88 L1022.79 1294.88 L1022.79 1340.25 L1015.34 1340.25 L1015.34 1294.88 M1015.34 1277.22 L1022.79 1277.22 L1022.79 1286.66 L1015.34 1286.66 L1015.34 1277.22 Z" fill="#000000" fill-rule="evenodd" fill-opacity="1" /><path clip-path="url(#clip820)" d="M1076.1 1312.87 L1076.1 1340.25 L1068.65 1340.25 L1068.65 1313.11 Q1068.65 1306.67 1066.14 1303.47 Q1063.63 1300.27 1058.6 1300.27 Q1052.57 1300.27 1049.08 1304.12 Q1045.6 1307.96 1045.6 1314.61 L1045.6 1340.25 L1038.1 1340.25 L1038.1 1294.88 L1045.6 1294.88 L1045.6 1301.93 Q1048.27 1297.84 1051.88 1295.81 Q1055.52 1293.79 1060.26 1293.79 Q1068.08 1293.79 1072.09 1298.65 Q1076.1 1303.47 1076.1 1312.87 Z" fill="#000000" fill-rule="evenodd" fill-opacity="1" /><path clip-path="url(#clip820)" d="M1108.87 1277.3 Q1103.45 1286.62 1100.81 1295.73 Q1098.18 1304.85 1098.18 1314.2 Q1098.18 1323.56 1100.81 1332.76 Q1103.49 1341.91 1108.87 1351.19 L1102.39 1351.19 Q1096.32 1341.67 1093.28 1332.47 Q1090.28 1323.28 1090.28 1314.2 Q1090.28 1305.17 1093.28 1296.01 Q1096.28 1286.86 1102.39 1277.3 L1108.87 1277.3 Z" fill="#000000" fill-rule="evenodd" fill-opacity="1" /><path clip-path="url(#clip820)" d="M1153.8 1311.49 L1127.99 1311.49 Q1128.6 1323.6 1131.4 1328.75 Q1134.88 1335.06 1140.92 1335.06 Q1146.99 1335.06 1150.35 1328.7 Q1153.31 1323.11 1153.8 1311.49 M1153.68 1304.6 Q1152.54 1293.1 1150.35 1289.05 Q1146.87 1282.65 1140.92 1282.65 Q1134.72 1282.65 1131.44 1288.97 Q1128.84 1294.07 1128.07 1304.6 L1153.68 1304.6 M1140.92 1276.57 Q1150.64 1276.57 1156.19 1285.16 Q1161.74 1293.71 1161.74 1308.86 Q1161.74 1323.97 1156.19 1332.55 Q1150.64 1341.18 1140.92 1341.18 Q1131.15 1341.18 1125.64 1332.55 Q1120.09 1323.97 1120.09 1308.86 Q1120.09 1293.71 1125.64 1285.16 Q1131.15 1276.57 1140.92 1276.57 Z" fill="#000000" fill-rule="evenodd" fill-opacity="1" /><path clip-path="url(#clip820)" d="M1172.92 1277.3 L1179.4 1277.3 Q1185.48 1286.86 1188.47 1296.01 Q1191.51 1305.17 1191.51 1314.2 Q1191.51 1323.28 1188.47 1332.47 Q1185.48 1341.67 1179.4 1351.19 L1172.92 1351.19 Q1178.31 1341.91 1180.94 1332.76 Q1183.61 1323.56 1183.61 1314.2 Q1183.61 1304.85 1180.94 1295.73 Q1178.31 1286.62 1172.92 1277.3 Z" fill="#000000" fill-rule="evenodd" fill-opacity="1" /></svg>
