<?xml version="1.0" encoding="utf-8"?>
<svg xmlns="http://www.w3.org/2000/svg" xmlns:xlink="http://www.w3.org/1999/xlink" width="672" height="480" viewBox="0 0 2688 1920">
<defs>
  <clipPath id="clip460">
    <rect x="0" y="0" width="2688" height="1920"/>
  </clipPath>
</defs>
<path clip-path="url(#clip460)" d="
M0 1920 L2688 1920 L2688 0 L0 0  Z
  " fill="#ffffff" fill-rule="evenodd" fill-opacity="1"/>
<defs>
  <clipPath id="clip461">
    <rect x="537" y="0" width="1883" height="1883"/>
  </clipPath>
</defs>
<path clip-path="url(#clip460)" d="
M47.2441 1872.76 L2640.76 1872.76 L2640.76 47.2441 L47.2441 47.2441  Z
  " fill="#ffffff" fill-rule="evenodd" fill-opacity="1"/>
<defs>
  <clipPath id="clip462">
    <rect x="47" y="47" width="2595" height="1827"/>
  </clipPath>
</defs>
<polyline clip-path="url(#clip462)" style="stroke:#009af9; stroke-linecap:butt; stroke-linejoin:round; stroke-width:4; stroke-opacity:1; fill:none" points="
  482.91,98.9095 485.713,110.104 488.516,121.261 491.319,132.382 494.122,143.467 520.04,244.231 545.959,341.874 571.878,436.397 597.796,527.8 628.948,633.528 
  660.1,734.749 686.439,816.813 712.777,895.654 741.388,977.646 769.999,1055.84 796.376,1124.55 822.753,1190.03 851.032,1256.65 879.311,1319.55 895.693,1354.29 
  912.075,1387.78 928.456,1420.03 944.838,1451.02 973.955,1503.04 1003.07,1551.13 1028.6,1590.05 1054.14,1625.94 1081.97,1661.62 1109.81,1693.71 1137.81,1722.35 
  1165.82,1747.35 1196.78,1770.75 1227.74,1789.7 1257.2,1803.59 1286.66,1813.45 1317.29,1819.43 1347.92,1821.05 1373.7,1819.04 1399.48,1813.94 1415.22,1809.31 
  1430.96,1803.53 1446.7,1796.59 1462.44,1788.51 1491.28,1770.71 1520.11,1749.05 1546.75,1725.61 1573.38,1698.88 1600.36,1668.45 1627.34,1634.63 1657.57,1592.71 
  1687.81,1546.55 1715.21,1501.04 1742.6,1452.06 1758.29,1422.44 1773.97,1391.69 1789.66,1359.79 1805.34,1326.75 1834.39,1262.54 1863.43,1194.42 1892.07,1123.42 
  1920.7,1048.62 1948.5,972.343 1976.31,892.477 2004.81,806.878 2033.31,717.505 2048.92,666.946 2064.53,615.255 2080.15,562.432 2095.76,508.476 2118.44,428.079 
  2141.12,345.293 2163.8,260.117 2186.48,172.552 2191.13,154.292 2195.78,135.932 2200.44,117.471 2205.09,98.9095 
  "/>
<polyline clip-path="url(#clip462)" style="stroke:#e26f46; stroke-linecap:butt; stroke-linejoin:round; stroke-width:4; stroke-opacity:1; fill:none" points="
  482.91,1821.09 2205.09,1821.09 
  "/>
<polyline clip-path="url(#clip462)" style="stroke:#3da44d; stroke-linecap:butt; stroke-linejoin:round; stroke-width:4; stroke-opacity:1; fill:none" points="
  1344,1821.09 1344,98.9095 
  "/>
<circle clip-path="url(#clip462)" cx="1774.55" cy="1390.55" r="14.4" fill="#c271d2" fill-rule="evenodd" fill-opacity="1" stroke="#000000" stroke-opacity="1" stroke-width="3.84"/>
<polyline clip-path="url(#clip462)" style="stroke:#ac8d18; stroke-linecap:butt; stroke-linejoin:round; stroke-width:4; stroke-opacity:1; fill:none" points="
  1559.27,1821.09 1563.48,1812.68 1602.36,1734.93 1625.72,1688.2 1645.47,1648.69 1666.93,1605.77 1686.71,1566.21 1707.92,1523.79 1732.5,1474.64 1754.33,1430.97 
  1773.48,1392.67 1794.36,1350.91 1815.36,1308.91 1838.58,1262.47 1860.68,1218.28 1883.65,1172.34 1902.99,1133.66 1926.6,1086.44 1948.22,1043.19 1968.2,1003.24 
  1988.43,962.769 2011.11,917.416 2031.66,876.319 2055.18,829.266 2076.97,785.699 2098.44,742.747 2119.3,701.044 2140.67,658.293 2164.09,611.454 2198.11,543.413 
  2205.09,529.455 
  "/>
<polyline clip-path="url(#clip462)" style="stroke:#00a9ad; stroke-linecap:butt; stroke-linejoin:round; stroke-width:4; stroke-opacity:1; fill:none" points="
  482.91,744.727 494.122,750.334 597.796,802.171 660.1,833.323 712.777,859.661 769.999,888.272 822.753,914.649 879.311,942.928 944.838,975.692 1003.07,1004.81 
  1054.14,1030.34 1109.81,1058.18 1165.82,1086.18 1227.74,1117.14 1286.66,1146.6 1347.92,1177.23 1399.48,1203.01 1462.44,1234.49 1520.11,1263.33 1573.38,1289.96 
  1627.34,1316.94 1687.81,1347.18 1742.6,1374.57 1805.34,1405.94 1863.43,1434.99 1920.7,1463.62 1976.31,1491.43 2033.31,1519.93 2095.76,1551.15 2186.48,1596.51 
  2205.09,1605.82 
  "/>
<circle clip-path="url(#clip462)" cx="698.182" cy="852.364" r="14.4" fill="#ed5d92" fill-rule="evenodd" fill-opacity="1" stroke="#000000" stroke-opacity="1" stroke-width="3.84"/>
<path clip-path="url(#clip460)" d="M1870.84 1313.21 L1870.84 1335.94 L1881.13 1335.94 Q1886.84 1335.94 1889.96 1332.98 Q1893.08 1330.02 1893.08 1324.55 Q1893.08 1319.13 1889.96 1316.17 Q1886.84 1313.21 1881.13 1313.21 L1870.84 1313.21 M1862.66 1306.49 L1881.13 1306.49 Q1891.3 1306.49 1896.48 1311.11 Q1901.71 1315.68 1901.71 1324.55 Q1901.71 1333.51 1896.48 1338.08 Q1891.3 1342.66 1881.13 1342.66 L1870.84 1342.66 L1870.84 1366.97 L1862.66 1366.97 L1862.66 1306.49 Z" fill="#000000" fill-rule="evenodd" fill-opacity="1" /><path clip-path="url(#clip460)" d="M590.586 935.31 Q581.674 935.31 576.408 941.953 Q571.183 948.597 571.183 960.061 Q571.183 971.484 576.408 978.128 Q581.674 984.771 590.586 984.771 Q599.498 984.771 604.683 978.128 Q609.909 971.484 609.909 960.061 Q609.909 948.597 604.683 941.953 Q599.498 935.31 590.586 935.31 M602.05 989.146 L612.826 1000.93 L602.942 1000.93 L593.989 991.253 Q592.652 991.334 591.923 991.374 Q591.234 991.415 590.586 991.415 Q577.826 991.415 570.17 982.908 Q562.554 974.36 562.554 960.061 Q562.554 945.721 570.17 937.214 Q577.826 928.666 590.586 928.666 Q603.306 928.666 610.922 937.214 Q618.538 945.721 618.538 960.061 Q618.538 970.593 614.284 978.087 Q610.071 985.581 602.05 989.146 Z" fill="#000000" fill-rule="evenodd" fill-opacity="1" /></svg>
