<?xml version="1.0" encoding="utf-8"?>
<svg xmlns="http://www.w3.org/2000/svg" xmlns:xlink="http://www.w3.org/1999/xlink" width="672" height="480" viewBox="0 0 2688 1920">
<defs>
  <clipPath id="clip220">
    <rect x="0" y="0" width="2688" height="1920"/>
  </clipPath>
</defs>
<path clip-path="url(#clip220)" d="
M0 1920 L2688 1920 L2688 0 L0 0  Z
  " fill="#ffffff" fill-rule="evenodd" fill-opacity="1"/>
<defs>
  <clipPath id="clip221">
    <rect x="537" y="0" width="1883" height="1883"/>
  </clipPath>
</defs>
<path clip-path="url(#clip220)" d="
M174.895 1800.78 L2640.76 1800.78 L2640.76 47.2441 L174.895 47.2441  Z
  " fill="#ffffff" fill-rule="evenodd" fill-opacity="1"/>
<defs>
  <clipPath id="clip222">
    <rect x="174" y="47" width="2467" height="1755"/>
  </clipPath>
</defs>
<polyline clip-path="url(#clip222)" style="stroke:#000000; stroke-linecap:butt; stroke-linejoin:round; stroke-width:2; stroke-opacity:0.1; fill:none" points="
  462.772,1800.78 462.772,47.2441 
  "/>
<polyline clip-path="url(#clip222)" style="stroke:#000000; stroke-linecap:butt; stroke-linejoin:round; stroke-width:2; stroke-opacity:0.1; fill:none" points="
  826.254,1800.78 826.254,47.2441 
  "/>
<polyline clip-path="url(#clip222)" style="stroke:#000000; stroke-linecap:butt; stroke-linejoin:round; stroke-width:2; stroke-opacity:0.1; fill:none" points="
  1189.74,1800.78 1189.74,47.2441 
  "/>
<polyline clip-path="url(#clip222)" style="stroke:#000000; stroke-linecap:butt; stroke-linejoin:round; stroke-width:2; stroke-opacity:0.1; fill:none" points="
  1553.22,1800.78 1553.22,47.2441 
  "/>
<polyline clip-path="url(#clip222)" style="stroke:#000000; stroke-linecap:butt; stroke-linejoin:round; stroke-width:2; stroke-opacity:0.1; fill:none" points="
  1916.7,1800.78 1916.7,47.2441 
  "/>
<polyline clip-path="url(#clip222)" style="stroke:#000000; stroke-linecap:butt; stroke-linejoin:round; stroke-width:2; stroke-opacity:0.1; fill:none" points="
  2280.18,1800.78 2280.18,47.2441 
  "/>
<polyline clip-path="url(#clip220)" style="stroke:#000000; stroke-linecap:butt; stroke-linejoin:round; stroke-width:4; stroke-opacity:1; fill:none" points="
  174.895,1800.78 2640.76,1800.78 
  "/>
<polyline clip-path="url(#clip220)" style="stroke:#000000; stroke-linecap:butt; stroke-linejoin:round; stroke-width:4; stroke-opacity:1; fill:none" points="
  462.772,1800.78 462.772,1781.88 
  "/>
<polyline clip-path="url(#clip220)" style="stroke:#000000; stroke-linecap:butt; stroke-linejoin:round; stroke-width:4; stroke-opacity:1; fill:none" points="
  826.254,1800.78 826.254,1781.88 
  "/>
<polyline clip-path="url(#clip220)" style="stroke:#000000; stroke-linecap:butt; stroke-linejoin:round; stroke-width:4; stroke-opacity:1; fill:none" points="
  1189.74,1800.78 1189.74,1781.88 
  "/>
<polyline clip-path="url(#clip220)" style="stroke:#000000; stroke-linecap:butt; stroke-linejoin:round; stroke-width:4; stroke-opacity:1; fill:none" points="
  1553.22,1800.78 1553.22,1781.88 
  "/>
<polyline clip-path="url(#clip220)" style="stroke:#000000; stroke-linecap:butt; stroke-linejoin:round; stroke-width:4; stroke-opacity:1; fill:none" points="
  1916.7,1800.78 1916.7,1781.88 
  "/>
<polyline clip-path="url(#clip220)" style="stroke:#000000; stroke-linecap:butt; stroke-linejoin:round; stroke-width:4; stroke-opacity:1; fill:none" points="
  2280.18,1800.78 2280.18,1781.88 
  "/>
<path clip-path="url(#clip220)" d="M407.796 1861.55 L415.435 1861.55 L415.435 1835.18 L407.125 1836.85 L407.125 1832.59 L415.388 1830.92 L420.064 1830.92 L420.064 1861.55 L427.703 1861.55 L427.703 1865.48 L407.796 1865.48 L407.796 1861.55 Z" fill="#000000" fill-rule="evenodd" fill-opacity="1" /><path clip-path="url(#clip220)" d="M447.148 1849.07 Q443.814 1849.07 441.893 1850.85 Q439.995 1852.64 439.995 1855.76 Q439.995 1858.89 441.893 1860.67 Q443.814 1862.45 447.148 1862.45 Q450.481 1862.45 452.402 1860.67 Q454.323 1858.86 454.323 1855.76 Q454.323 1852.64 452.402 1850.85 Q450.504 1849.07 447.148 1849.07 M442.472 1847.08 Q439.462 1846.34 437.773 1844.28 Q436.106 1842.22 436.106 1839.26 Q436.106 1835.11 439.046 1832.71 Q442.009 1830.3 447.148 1830.3 Q452.31 1830.3 455.249 1832.71 Q458.189 1835.11 458.189 1839.26 Q458.189 1842.22 456.499 1844.28 Q454.833 1846.34 451.847 1847.08 Q455.226 1847.87 457.101 1850.16 Q458.999 1852.45 458.999 1855.76 Q458.999 1860.78 455.921 1863.47 Q452.865 1866.15 447.148 1866.15 Q441.43 1866.15 438.351 1863.47 Q435.296 1860.78 435.296 1855.76 Q435.296 1852.45 437.194 1850.16 Q439.092 1847.87 442.472 1847.08 M440.759 1839.7 Q440.759 1842.38 442.425 1843.89 Q444.115 1845.39 447.148 1845.39 Q450.157 1845.39 451.847 1843.89 Q453.56 1842.38 453.56 1839.7 Q453.56 1837.01 451.847 1835.51 Q450.157 1834 447.148 1834 Q444.115 1834 442.425 1835.51 Q440.759 1837.01 440.759 1839.7 Z" fill="#000000" fill-rule="evenodd" fill-opacity="1" /><path clip-path="url(#clip220)" d="M466.129 1830.92 L488.351 1830.92 L488.351 1832.91 L475.805 1865.48 L470.921 1865.48 L482.726 1834.86 L466.129 1834.86 L466.129 1830.92 Z" fill="#000000" fill-rule="evenodd" fill-opacity="1" /><path clip-path="url(#clip220)" d="M497.518 1830.92 L515.874 1830.92 L515.874 1834.86 L501.8 1834.86 L501.8 1843.33 Q502.819 1842.98 503.837 1842.82 Q504.856 1842.64 505.874 1842.64 Q511.661 1842.64 515.041 1845.81 Q518.42 1848.98 518.42 1854.4 Q518.42 1859.97 514.948 1863.08 Q511.476 1866.15 505.157 1866.15 Q502.981 1866.15 500.712 1865.78 Q498.467 1865.41 496.059 1864.67 L496.059 1859.97 Q498.143 1861.11 500.365 1861.66 Q502.587 1862.22 505.064 1862.22 Q509.069 1862.22 511.406 1860.11 Q513.744 1858.01 513.744 1854.4 Q513.744 1850.78 511.406 1848.68 Q509.069 1846.57 505.064 1846.57 Q503.189 1846.57 501.314 1846.99 Q499.462 1847.4 497.518 1848.28 L497.518 1830.92 Z" fill="#000000" fill-rule="evenodd" fill-opacity="1" /><path clip-path="url(#clip220)" d="M770.78 1861.55 L778.419 1861.55 L778.419 1835.18 L770.109 1836.85 L770.109 1832.59 L778.373 1830.92 L783.049 1830.92 L783.049 1861.55 L790.687 1861.55 L790.687 1865.48 L770.78 1865.48 L770.78 1861.55 Z" fill="#000000" fill-rule="evenodd" fill-opacity="1" /><path clip-path="url(#clip220)" d="M800.271 1864.77 L800.271 1860.51 Q802.03 1861.34 803.835 1861.78 Q805.641 1862.22 807.377 1862.22 Q812.007 1862.22 814.437 1859.12 Q816.891 1855.99 817.238 1849.65 Q815.896 1851.64 813.835 1852.71 Q811.775 1853.77 809.275 1853.77 Q804.09 1853.77 801.058 1850.65 Q798.048 1847.5 798.048 1842.06 Q798.048 1836.73 801.197 1833.52 Q804.345 1830.3 809.576 1830.3 Q815.572 1830.3 818.72 1834.9 Q821.891 1839.49 821.891 1848.24 Q821.891 1856.41 818.002 1861.29 Q814.136 1866.15 807.585 1866.15 Q805.826 1866.15 804.021 1865.81 Q802.215 1865.46 800.271 1864.77 M809.576 1850.11 Q812.724 1850.11 814.553 1847.96 Q816.405 1845.81 816.405 1842.06 Q816.405 1838.33 814.553 1836.18 Q812.724 1834 809.576 1834 Q806.428 1834 804.576 1836.18 Q802.748 1838.33 802.748 1842.06 Q802.748 1845.81 804.576 1847.96 Q806.428 1850.11 809.576 1850.11 Z" fill="#000000" fill-rule="evenodd" fill-opacity="1" /><path clip-path="url(#clip220)" d="M840.294 1834 Q836.683 1834 834.854 1837.57 Q833.048 1841.11 833.048 1848.24 Q833.048 1855.34 834.854 1858.91 Q836.683 1862.45 840.294 1862.45 Q843.928 1862.45 845.733 1858.91 Q847.562 1855.34 847.562 1848.24 Q847.562 1841.11 845.733 1837.57 Q843.928 1834 840.294 1834 M840.294 1830.3 Q846.104 1830.3 849.159 1834.9 Q852.238 1839.49 852.238 1848.24 Q852.238 1856.96 849.159 1861.57 Q846.104 1866.15 840.294 1866.15 Q834.483 1866.15 831.405 1861.57 Q828.349 1856.96 828.349 1848.24 Q828.349 1839.49 831.405 1834.9 Q834.483 1830.3 840.294 1830.3 Z" fill="#000000" fill-rule="evenodd" fill-opacity="1" /><path clip-path="url(#clip220)" d="M870.456 1834 Q866.844 1834 865.016 1837.57 Q863.21 1841.11 863.21 1848.24 Q863.21 1855.34 865.016 1858.91 Q866.844 1862.45 870.456 1862.45 Q874.09 1862.45 875.895 1858.91 Q877.724 1855.34 877.724 1848.24 Q877.724 1841.11 875.895 1837.57 Q874.09 1834 870.456 1834 M870.456 1830.3 Q876.266 1830.3 879.321 1834.9 Q882.4 1839.49 882.4 1848.24 Q882.4 1856.96 879.321 1861.57 Q876.266 1866.15 870.456 1866.15 Q864.645 1866.15 861.567 1861.57 Q858.511 1856.96 858.511 1848.24 Q858.511 1839.49 861.567 1834.9 Q864.645 1830.3 870.456 1830.3 Z" fill="#000000" fill-rule="evenodd" fill-opacity="1" /><path clip-path="url(#clip220)" d="M1134.76 1861.55 L1142.4 1861.55 L1142.4 1835.18 L1134.09 1836.85 L1134.09 1832.59 L1142.35 1830.92 L1147.03 1830.92 L1147.03 1861.55 L1154.67 1861.55 L1154.67 1865.48 L1134.76 1865.48 L1134.76 1861.55 Z" fill="#000000" fill-rule="evenodd" fill-opacity="1" /><path clip-path="url(#clip220)" d="M1164.25 1864.77 L1164.25 1860.51 Q1166.01 1861.34 1167.82 1861.78 Q1169.62 1862.22 1171.36 1862.22 Q1175.99 1862.22 1178.42 1859.12 Q1180.87 1855.99 1181.22 1849.65 Q1179.88 1851.64 1177.82 1852.71 Q1175.75 1853.77 1173.25 1853.77 Q1168.07 1853.77 1165.04 1850.65 Q1162.03 1847.5 1162.03 1842.06 Q1162.03 1836.73 1165.18 1833.52 Q1168.32 1830.3 1173.56 1830.3 Q1179.55 1830.3 1182.7 1834.9 Q1185.87 1839.49 1185.87 1848.24 Q1185.87 1856.41 1181.98 1861.29 Q1178.12 1866.15 1171.57 1866.15 Q1169.81 1866.15 1168 1865.81 Q1166.19 1865.46 1164.25 1864.77 M1173.56 1850.11 Q1176.7 1850.11 1178.53 1847.96 Q1180.38 1845.81 1180.38 1842.06 Q1180.38 1838.33 1178.53 1836.18 Q1176.7 1834 1173.56 1834 Q1170.41 1834 1168.56 1836.18 Q1166.73 1838.33 1166.73 1842.06 Q1166.73 1845.81 1168.56 1847.96 Q1170.41 1850.11 1173.56 1850.11 Z" fill="#000000" fill-rule="evenodd" fill-opacity="1" /><path clip-path="url(#clip220)" d="M1198.3 1861.55 L1214.62 1861.55 L1214.62 1865.48 L1192.68 1865.48 L1192.68 1861.55 Q1195.34 1858.79 1199.92 1854.16 Q1204.53 1849.51 1205.71 1848.17 Q1207.95 1845.65 1208.83 1843.91 Q1209.74 1842.15 1209.74 1840.46 Q1209.74 1837.71 1207.79 1835.97 Q1205.87 1834.23 1202.77 1834.23 Q1200.57 1834.23 1198.12 1835 Q1195.69 1835.76 1192.91 1837.31 L1192.91 1832.59 Q1195.73 1831.46 1198.19 1830.88 Q1200.64 1830.3 1202.68 1830.3 Q1208.05 1830.3 1211.24 1832.98 Q1214.44 1835.67 1214.44 1840.16 Q1214.44 1842.29 1213.62 1844.21 Q1212.84 1846.11 1210.73 1848.7 Q1210.15 1849.37 1207.05 1852.59 Q1203.95 1855.78 1198.3 1861.55 Z" fill="#000000" fill-rule="evenodd" fill-opacity="1" /><path clip-path="url(#clip220)" d="M1224.48 1830.92 L1242.84 1830.92 L1242.84 1834.86 L1228.76 1834.86 L1228.76 1843.33 Q1229.78 1842.98 1230.8 1842.82 Q1231.82 1842.64 1232.84 1842.64 Q1238.62 1842.64 1242 1845.81 Q1245.38 1848.98 1245.38 1854.4 Q1245.38 1859.97 1241.91 1863.08 Q1238.44 1866.15 1232.12 1866.15 Q1229.94 1866.15 1227.68 1865.78 Q1225.43 1865.41 1223.02 1864.67 L1223.02 1859.97 Q1225.11 1861.11 1227.33 1861.66 Q1229.55 1862.22 1232.03 1862.22 Q1236.03 1862.22 1238.37 1860.11 Q1240.71 1858.01 1240.71 1854.4 Q1240.71 1850.78 1238.37 1848.68 Q1236.03 1846.57 1232.03 1846.57 Q1230.15 1846.57 1228.28 1846.99 Q1226.43 1847.4 1224.48 1848.28 L1224.48 1830.92 Z" fill="#000000" fill-rule="evenodd" fill-opacity="1" /><path clip-path="url(#clip220)" d="M1497.74 1861.55 L1505.38 1861.55 L1505.38 1835.18 L1497.07 1836.85 L1497.07 1832.59 L1505.34 1830.92 L1510.01 1830.92 L1510.01 1861.55 L1517.65 1861.55 L1517.65 1865.48 L1497.74 1865.48 L1497.74 1861.55 Z" fill="#000000" fill-rule="evenodd" fill-opacity="1" /><path clip-path="url(#clip220)" d="M1527.23 1864.77 L1527.23 1860.51 Q1528.99 1861.34 1530.8 1861.78 Q1532.6 1862.22 1534.34 1862.22 Q1538.97 1862.22 1541.4 1859.12 Q1543.85 1855.99 1544.2 1849.65 Q1542.86 1851.64 1540.8 1852.71 Q1538.74 1853.77 1536.24 1853.77 Q1531.05 1853.77 1528.02 1850.65 Q1525.01 1847.5 1525.01 1842.06 Q1525.01 1836.73 1528.16 1833.52 Q1531.31 1830.3 1536.54 1830.3 Q1542.54 1830.3 1545.68 1834.9 Q1548.85 1839.49 1548.85 1848.24 Q1548.85 1856.41 1544.97 1861.29 Q1541.1 1866.15 1534.55 1866.15 Q1532.79 1866.15 1530.98 1865.81 Q1529.18 1865.46 1527.23 1864.77 M1536.54 1850.11 Q1539.69 1850.11 1541.52 1847.96 Q1543.37 1845.81 1543.37 1842.06 Q1543.37 1838.33 1541.52 1836.18 Q1539.69 1834 1536.54 1834 Q1533.39 1834 1531.54 1836.18 Q1529.71 1838.33 1529.71 1842.06 Q1529.71 1845.81 1531.54 1847.96 Q1533.39 1850.11 1536.54 1850.11 Z" fill="#000000" fill-rule="evenodd" fill-opacity="1" /><path clip-path="url(#clip220)" d="M1557.3 1830.92 L1575.66 1830.92 L1575.66 1834.86 L1561.59 1834.86 L1561.59 1843.33 Q1562.6 1842.98 1563.62 1842.82 Q1564.64 1842.64 1565.66 1842.64 Q1571.45 1842.64 1574.83 1845.81 Q1578.21 1848.98 1578.21 1854.4 Q1578.21 1859.97 1574.73 1863.08 Q1571.26 1866.15 1564.94 1866.15 Q1562.77 1866.15 1560.5 1865.78 Q1558.25 1865.41 1555.85 1864.67 L1555.85 1859.97 Q1557.93 1861.11 1560.15 1861.66 Q1562.37 1862.22 1564.85 1862.22 Q1568.85 1862.22 1571.19 1860.11 Q1573.53 1858.01 1573.53 1854.4 Q1573.53 1850.78 1571.19 1848.68 Q1568.85 1846.57 1564.85 1846.57 Q1562.98 1846.57 1561.1 1846.99 Q1559.25 1847.4 1557.3 1848.28 L1557.3 1830.92 Z" fill="#000000" fill-rule="evenodd" fill-opacity="1" /><path clip-path="url(#clip220)" d="M1597.42 1834 Q1593.81 1834 1591.98 1837.57 Q1590.17 1841.11 1590.17 1848.24 Q1590.17 1855.34 1591.98 1858.91 Q1593.81 1862.45 1597.42 1862.45 Q1601.05 1862.45 1602.86 1858.91 Q1604.69 1855.34 1604.69 1848.24 Q1604.69 1841.11 1602.86 1837.57 Q1601.05 1834 1597.42 1834 M1597.42 1830.3 Q1603.23 1830.3 1606.28 1834.9 Q1609.36 1839.49 1609.36 1848.24 Q1609.36 1856.96 1606.28 1861.57 Q1603.23 1866.15 1597.42 1866.15 Q1591.61 1866.15 1588.53 1861.57 Q1585.47 1856.96 1585.47 1848.24 Q1585.47 1839.49 1588.53 1834.9 Q1591.61 1830.3 1597.42 1830.3 Z" fill="#000000" fill-rule="evenodd" fill-opacity="1" /><path clip-path="url(#clip220)" d="M1861.72 1861.55 L1869.36 1861.55 L1869.36 1835.18 L1861.05 1836.85 L1861.05 1832.59 L1869.32 1830.92 L1873.99 1830.92 L1873.99 1861.55 L1881.63 1861.55 L1881.63 1865.48 L1861.72 1865.48 L1861.72 1861.55 Z" fill="#000000" fill-rule="evenodd" fill-opacity="1" /><path clip-path="url(#clip220)" d="M1891.21 1864.77 L1891.21 1860.51 Q1892.97 1861.34 1894.78 1861.78 Q1896.58 1862.22 1898.32 1862.22 Q1902.95 1862.22 1905.38 1859.12 Q1907.83 1855.99 1908.18 1849.65 Q1906.84 1851.64 1904.78 1852.71 Q1902.72 1853.77 1900.22 1853.77 Q1895.03 1853.77 1892 1850.65 Q1888.99 1847.5 1888.99 1842.06 Q1888.99 1836.73 1892.14 1833.52 Q1895.29 1830.3 1900.52 1830.3 Q1906.51 1830.3 1909.66 1834.9 Q1912.83 1839.49 1912.83 1848.24 Q1912.83 1856.41 1908.95 1861.29 Q1905.08 1866.15 1898.53 1866.15 Q1896.77 1866.15 1894.96 1865.81 Q1893.16 1865.46 1891.21 1864.77 M1900.52 1850.11 Q1903.67 1850.11 1905.5 1847.96 Q1907.35 1845.81 1907.35 1842.06 Q1907.35 1838.33 1905.5 1836.18 Q1903.67 1834 1900.52 1834 Q1897.37 1834 1895.52 1836.18 Q1893.69 1838.33 1893.69 1842.06 Q1893.69 1845.81 1895.52 1847.96 Q1897.37 1850.11 1900.52 1850.11 Z" fill="#000000" fill-rule="evenodd" fill-opacity="1" /><path clip-path="url(#clip220)" d="M1920.06 1830.92 L1942.28 1830.92 L1942.28 1832.91 L1929.73 1865.48 L1924.85 1865.48 L1936.65 1834.86 L1920.06 1834.86 L1920.06 1830.92 Z" fill="#000000" fill-rule="evenodd" fill-opacity="1" /><path clip-path="url(#clip220)" d="M1951.45 1830.92 L1969.8 1830.92 L1969.8 1834.86 L1955.73 1834.86 L1955.73 1843.33 Q1956.75 1842.98 1957.76 1842.82 Q1958.78 1842.64 1959.8 1842.64 Q1965.59 1842.64 1968.97 1845.81 Q1972.35 1848.98 1972.35 1854.4 Q1972.35 1859.97 1968.88 1863.08 Q1965.4 1866.15 1959.08 1866.15 Q1956.91 1866.15 1954.64 1865.78 Q1952.39 1865.41 1949.99 1864.67 L1949.99 1859.97 Q1952.07 1861.11 1954.29 1861.66 Q1956.51 1862.22 1958.99 1862.22 Q1963 1862.22 1965.33 1860.11 Q1967.67 1858.01 1967.67 1854.4 Q1967.67 1850.78 1965.33 1848.68 Q1963 1846.57 1958.99 1846.57 Q1957.12 1846.57 1955.24 1846.99 Q1953.39 1847.4 1951.45 1848.28 L1951.45 1830.92 Z" fill="#000000" fill-rule="evenodd" fill-opacity="1" /><path clip-path="url(#clip220)" d="M2228.79 1861.55 L2245.11 1861.55 L2245.11 1865.48 L2223.17 1865.48 L2223.17 1861.55 Q2225.83 1858.79 2230.41 1854.16 Q2235.02 1849.51 2236.2 1848.17 Q2238.45 1845.65 2239.33 1843.91 Q2240.23 1842.15 2240.23 1840.46 Q2240.23 1837.71 2238.28 1835.97 Q2236.36 1834.23 2233.26 1834.23 Q2231.06 1834.23 2228.61 1835 Q2226.18 1835.76 2223.4 1837.31 L2223.4 1832.59 Q2226.22 1831.46 2228.68 1830.88 Q2231.13 1830.3 2233.17 1830.3 Q2238.54 1830.3 2241.73 1832.98 Q2244.93 1835.67 2244.93 1840.16 Q2244.93 1842.29 2244.12 1844.21 Q2243.33 1846.11 2241.22 1848.7 Q2240.65 1849.37 2237.54 1852.59 Q2234.44 1855.78 2228.79 1861.55 Z" fill="#000000" fill-rule="evenodd" fill-opacity="1" /><path clip-path="url(#clip220)" d="M2264.93 1834 Q2261.32 1834 2259.49 1837.57 Q2257.68 1841.11 2257.68 1848.24 Q2257.68 1855.34 2259.49 1858.91 Q2261.32 1862.45 2264.93 1862.45 Q2268.56 1862.45 2270.37 1858.91 Q2272.2 1855.34 2272.2 1848.24 Q2272.2 1841.11 2270.37 1837.57 Q2268.56 1834 2264.93 1834 M2264.93 1830.3 Q2270.74 1830.3 2273.79 1834.9 Q2276.87 1839.49 2276.87 1848.24 Q2276.87 1856.96 2273.79 1861.57 Q2270.74 1866.15 2264.93 1866.15 Q2259.12 1866.15 2256.04 1861.57 Q2252.98 1856.96 2252.98 1848.24 Q2252.98 1839.49 2256.04 1834.9 Q2259.12 1830.3 2264.93 1830.3 Z" fill="#000000" fill-rule="evenodd" fill-opacity="1" /><path clip-path="url(#clip220)" d="M2295.09 1834 Q2291.48 1834 2289.65 1837.57 Q2287.84 1841.11 2287.84 1848.24 Q2287.84 1855.34 2289.65 1858.91 Q2291.48 1862.45 2295.09 1862.45 Q2298.72 1862.45 2300.53 1858.91 Q2302.36 1855.34 2302.36 1848.24 Q2302.36 1841.11 2300.53 1837.57 Q2298.72 1834 2295.09 1834 M2295.09 1830.3 Q2300.9 1830.3 2303.95 1834.9 Q2307.03 1839.49 2307.03 1848.24 Q2307.03 1856.96 2303.95 1861.57 Q2300.9 1866.15 2295.09 1866.15 Q2289.28 1866.15 2286.2 1861.57 Q2283.14 1856.96 2283.14 1848.24 Q2283.14 1839.49 2286.2 1834.9 Q2289.28 1830.3 2295.09 1830.3 Z" fill="#000000" fill-rule="evenodd" fill-opacity="1" /><path clip-path="url(#clip220)" d="M2325.25 1834 Q2321.64 1834 2319.81 1837.57 Q2318.01 1841.11 2318.01 1848.24 Q2318.01 1855.34 2319.81 1858.91 Q2321.64 1862.45 2325.25 1862.45 Q2328.89 1862.45 2330.69 1858.91 Q2332.52 1855.34 2332.52 1848.24 Q2332.52 1841.11 2330.69 1837.57 Q2328.89 1834 2325.25 1834 M2325.25 1830.3 Q2331.06 1830.3 2334.12 1834.9 Q2337.2 1839.49 2337.2 1848.24 Q2337.2 1856.96 2334.12 1861.57 Q2331.06 1866.15 2325.25 1866.15 Q2319.44 1866.15 2316.36 1861.57 Q2313.31 1856.96 2313.31 1848.24 Q2313.31 1839.49 2316.36 1834.9 Q2319.44 1830.3 2325.25 1830.3 Z" fill="#000000" fill-rule="evenodd" fill-opacity="1" /><polyline clip-path="url(#clip222)" style="stroke:#000000; stroke-linecap:butt; stroke-linejoin:round; stroke-width:2; stroke-opacity:0.1; fill:none" points="
  174.895,1656.23 2640.76,1656.23 
  "/>
<polyline clip-path="url(#clip222)" style="stroke:#000000; stroke-linecap:butt; stroke-linejoin:round; stroke-width:2; stroke-opacity:0.1; fill:none" points="
  174.895,1317.24 2640.76,1317.24 
  "/>
<polyline clip-path="url(#clip222)" style="stroke:#000000; stroke-linecap:butt; stroke-linejoin:round; stroke-width:2; stroke-opacity:0.1; fill:none" points="
  174.895,978.25 2640.76,978.25 
  "/>
<polyline clip-path="url(#clip222)" style="stroke:#000000; stroke-linecap:butt; stroke-linejoin:round; stroke-width:2; stroke-opacity:0.1; fill:none" points="
  174.895,639.259 2640.76,639.259 
  "/>
<polyline clip-path="url(#clip222)" style="stroke:#000000; stroke-linecap:butt; stroke-linejoin:round; stroke-width:2; stroke-opacity:0.1; fill:none" points="
  174.895,300.267 2640.76,300.267 
  "/>
<polyline clip-path="url(#clip220)" style="stroke:#000000; stroke-linecap:butt; stroke-linejoin:round; stroke-width:4; stroke-opacity:1; fill:none" points="
  174.895,1800.78 174.895,47.2441 
  "/>
<polyline clip-path="url(#clip220)" style="stroke:#000000; stroke-linecap:butt; stroke-linejoin:round; stroke-width:4; stroke-opacity:1; fill:none" points="
  174.895,1656.23 193.792,1656.23 
  "/>
<polyline clip-path="url(#clip220)" style="stroke:#000000; stroke-linecap:butt; stroke-linejoin:round; stroke-width:4; stroke-opacity:1; fill:none" points="
  174.895,1317.24 193.792,1317.24 
  "/>
<polyline clip-path="url(#clip220)" style="stroke:#000000; stroke-linecap:butt; stroke-linejoin:round; stroke-width:4; stroke-opacity:1; fill:none" points="
  174.895,978.25 193.792,978.25 
  "/>
<polyline clip-path="url(#clip220)" style="stroke:#000000; stroke-linecap:butt; stroke-linejoin:round; stroke-width:4; stroke-opacity:1; fill:none" points="
  174.895,639.259 193.792,639.259 
  "/>
<polyline clip-path="url(#clip220)" style="stroke:#000000; stroke-linecap:butt; stroke-linejoin:round; stroke-width:4; stroke-opacity:1; fill:none" points="
  174.895,300.267 193.792,300.267 
  "/>
<path clip-path="url(#clip220)" d="M66.4733 1654.88 Q69.8298 1655.6 71.7048 1657.87 Q73.6029 1660.13 73.6029 1663.47 Q73.6029 1668.58 70.0844 1671.38 Q66.5659 1674.18 60.0845 1674.18 Q57.9086 1674.18 55.5938 1673.74 Q53.3021 1673.33 50.8484 1672.47 L50.8484 1667.96 Q52.7928 1669.09 55.1077 1669.67 Q57.4225 1670.25 59.9456 1670.25 Q64.3437 1670.25 66.6354 1668.51 Q68.9502 1666.78 68.9502 1663.47 Q68.9502 1660.41 66.7974 1658.7 Q64.6678 1656.96 60.8484 1656.96 L56.8206 1656.96 L56.8206 1653.12 L61.0335 1653.12 Q64.4826 1653.12 66.3113 1651.75 Q68.14 1650.37 68.14 1647.77 Q68.14 1645.11 66.2419 1643.7 Q64.3669 1642.26 60.8484 1642.26 Q58.9271 1642.26 56.728 1642.68 Q54.529 1643.1 51.8901 1643.98 L51.8901 1639.81 Q54.5521 1639.07 56.8669 1638.7 Q59.2049 1638.33 61.265 1638.33 Q66.5891 1638.33 69.6909 1640.76 Q72.7927 1643.17 72.7927 1647.29 Q72.7927 1650.16 71.1492 1652.15 Q69.5057 1654.12 66.4733 1654.88 Z" fill="#000000" fill-rule="evenodd" fill-opacity="1" /><path clip-path="url(#clip220)" d="M92.4686 1642.03 Q88.8575 1642.03 87.0288 1645.6 Q85.2232 1649.14 85.2232 1656.27 Q85.2232 1663.37 87.0288 1666.94 Q88.8575 1670.48 92.4686 1670.48 Q96.1028 1670.48 97.9083 1666.94 Q99.737 1663.37 99.737 1656.27 Q99.737 1649.14 97.9083 1645.6 Q96.1028 1642.03 92.4686 1642.03 M92.4686 1638.33 Q98.2787 1638.33 101.334 1642.93 Q104.413 1647.52 104.413 1656.27 Q104.413 1664.99 101.334 1669.6 Q98.2787 1674.18 92.4686 1674.18 Q86.6584 1674.18 83.5797 1669.6 Q80.5242 1664.99 80.5242 1656.27 Q80.5242 1647.52 83.5797 1642.93 Q86.6584 1638.33 92.4686 1638.33 Z" fill="#000000" fill-rule="evenodd" fill-opacity="1" /><path clip-path="url(#clip220)" d="M122.63 1642.03 Q119.019 1642.03 117.191 1645.6 Q115.385 1649.14 115.385 1656.27 Q115.385 1663.37 117.191 1666.94 Q119.019 1670.48 122.63 1670.48 Q126.265 1670.48 128.07 1666.94 Q129.899 1663.37 129.899 1656.27 Q129.899 1649.14 128.07 1645.6 Q126.265 1642.03 122.63 1642.03 M122.63 1638.33 Q128.441 1638.33 131.496 1642.93 Q134.575 1647.52 134.575 1656.27 Q134.575 1664.99 131.496 1669.6 Q128.441 1674.18 122.63 1674.18 Q116.82 1674.18 113.742 1669.6 Q110.686 1664.99 110.686 1656.27 Q110.686 1647.52 113.742 1642.93 Q116.82 1638.33 122.63 1638.33 Z" fill="#000000" fill-rule="evenodd" fill-opacity="1" /><path clip-path="url(#clip220)" d="M67.4687 1315.89 Q70.8252 1316.61 72.7002 1318.87 Q74.5983 1321.14 74.5983 1324.48 Q74.5983 1329.59 71.0798 1332.39 Q67.5613 1335.19 61.0798 1335.19 Q58.9039 1335.19 56.5891 1334.75 Q54.2975 1334.34 51.8438 1333.48 L51.8438 1328.97 Q53.7882 1330.1 56.103 1330.68 Q58.4178 1331.26 60.941 1331.26 Q65.3391 1331.26 67.6307 1329.52 Q69.9455 1327.79 69.9455 1324.48 Q69.9455 1321.42 67.7928 1319.71 Q65.6632 1317.97 61.8437 1317.97 L57.816 1317.97 L57.816 1314.13 L62.0289 1314.13 Q65.478 1314.13 67.3067 1312.76 Q69.1354 1311.37 69.1354 1308.78 Q69.1354 1306.12 67.2372 1304.71 Q65.3622 1303.27 61.8437 1303.27 Q59.9224 1303.27 57.7234 1303.69 Q55.5243 1304.11 52.8854 1304.98 L52.8854 1300.82 Q55.5475 1300.08 57.8623 1299.71 Q60.2002 1299.34 62.2604 1299.34 Q67.5844 1299.34 70.6863 1301.77 Q73.7881 1304.17 73.7881 1308.3 Q73.7881 1311.17 72.1446 1313.16 Q70.5011 1315.12 67.4687 1315.89 Z" fill="#000000" fill-rule="evenodd" fill-opacity="1" /><path clip-path="url(#clip220)" d="M87.4917 1330.59 L103.811 1330.59 L103.811 1334.52 L81.8668 1334.52 L81.8668 1330.59 Q84.5288 1327.83 89.1121 1323.2 Q93.7186 1318.55 94.8991 1317.21 Q97.1445 1314.68 98.0241 1312.95 Q98.9269 1311.19 98.9269 1309.5 Q98.9269 1306.74 96.9824 1305.01 Q95.0611 1303.27 91.9593 1303.27 Q89.7602 1303.27 87.3066 1304.04 Q84.876 1304.8 82.0982 1306.35 L82.0982 1301.63 Q84.9223 1300.49 87.376 1299.92 Q89.8297 1299.34 91.8667 1299.34 Q97.2371 1299.34 100.431 1302.02 Q103.626 1304.71 103.626 1309.2 Q103.626 1311.33 102.816 1313.25 Q102.029 1315.15 99.9222 1317.74 Q99.3435 1318.41 96.2417 1321.63 Q93.1399 1324.82 87.4917 1330.59 Z" fill="#000000" fill-rule="evenodd" fill-opacity="1" /><path clip-path="url(#clip220)" d="M113.672 1299.96 L132.029 1299.96 L132.029 1303.9 L117.955 1303.9 L117.955 1312.37 Q118.973 1312.02 119.992 1311.86 Q121.01 1311.67 122.029 1311.67 Q127.816 1311.67 131.195 1314.85 Q134.575 1318.02 134.575 1323.43 Q134.575 1329.01 131.103 1332.11 Q127.63 1335.19 121.311 1335.19 Q119.135 1335.19 116.867 1334.82 Q114.621 1334.45 112.214 1333.71 L112.214 1329.01 Q114.297 1330.15 116.519 1330.7 Q118.742 1331.26 121.218 1331.26 Q125.223 1331.26 127.561 1329.15 Q129.899 1327.05 129.899 1323.43 Q129.899 1319.82 127.561 1317.72 Q125.223 1315.61 121.218 1315.61 Q119.343 1315.61 117.468 1316.03 Q115.617 1316.44 113.672 1317.32 L113.672 1299.96 Z" fill="#000000" fill-rule="evenodd" fill-opacity="1" /><path clip-path="url(#clip220)" d="M66.4733 976.896 Q69.8298 977.614 71.7048 979.882 Q73.6029 982.151 73.6029 985.484 Q73.6029 990.6 70.0844 993.401 Q66.5659 996.202 60.0845 996.202 Q57.9086 996.202 55.5938 995.762 Q53.3021 995.345 50.8484 994.489 L50.8484 989.975 Q52.7928 991.109 55.1077 991.688 Q57.4225 992.266 59.9456 992.266 Q64.3437 992.266 66.6354 990.53 Q68.9502 988.794 68.9502 985.484 Q68.9502 982.429 66.7974 980.716 Q64.6678 978.98 60.8484 978.98 L56.8206 978.98 L56.8206 975.137 L61.0335 975.137 Q64.4826 975.137 66.3113 973.771 Q68.14 972.382 68.14 969.79 Q68.14 967.128 66.2419 965.716 Q64.3669 964.281 60.8484 964.281 Q58.9271 964.281 56.728 964.697 Q54.529 965.114 51.8901 965.993 L51.8901 961.827 Q54.5521 961.086 56.8669 960.716 Q59.2049 960.345 61.265 960.345 Q66.5891 960.345 69.6909 962.776 Q72.7927 965.183 72.7927 969.304 Q72.7927 972.174 71.1492 974.165 Q69.5057 976.132 66.4733 976.896 Z" fill="#000000" fill-rule="evenodd" fill-opacity="1" /><path clip-path="url(#clip220)" d="M82.5149 960.97 L100.871 960.97 L100.871 964.906 L86.7973 964.906 L86.7973 973.378 Q87.8158 973.03 88.8343 972.868 Q89.8528 972.683 90.8713 972.683 Q96.6584 972.683 100.038 975.855 Q103.418 979.026 103.418 984.442 Q103.418 990.021 99.9454 993.123 Q96.4732 996.202 90.1538 996.202 Q87.9778 996.202 85.7093 995.831 Q83.464 995.461 81.0566 994.72 L81.0566 990.021 Q83.1399 991.155 85.3621 991.711 Q87.5843 992.266 90.0612 992.266 Q94.0658 992.266 96.4037 990.16 Q98.7417 988.054 98.7417 984.442 Q98.7417 980.831 96.4037 978.725 Q94.0658 976.618 90.0612 976.618 Q88.1862 976.618 86.3112 977.035 Q84.4593 977.452 82.5149 978.331 L82.5149 960.97 Z" fill="#000000" fill-rule="evenodd" fill-opacity="1" /><path clip-path="url(#clip220)" d="M122.63 964.049 Q119.019 964.049 117.191 967.614 Q115.385 971.155 115.385 978.285 Q115.385 985.392 117.191 988.956 Q119.019 992.498 122.63 992.498 Q126.265 992.498 128.07 988.956 Q129.899 985.392 129.899 978.285 Q129.899 971.155 128.07 967.614 Q126.265 964.049 122.63 964.049 M122.63 960.345 Q128.441 960.345 131.496 964.952 Q134.575 969.535 134.575 978.285 Q134.575 987.012 131.496 991.618 Q128.441 996.202 122.63 996.202 Q116.82 996.202 113.742 991.618 Q110.686 987.012 110.686 978.285 Q110.686 969.535 113.742 964.952 Q116.82 960.345 122.63 960.345 Z" fill="#000000" fill-rule="evenodd" fill-opacity="1" /><path clip-path="url(#clip220)" d="M67.4687 637.905 Q70.8252 638.622 72.7002 640.891 Q74.5983 643.159 74.5983 646.493 Q74.5983 651.608 71.0798 654.409 Q67.5613 657.21 61.0798 657.21 Q58.9039 657.21 56.5891 656.77 Q54.2975 656.354 51.8438 655.497 L51.8438 650.983 Q53.7882 652.118 56.103 652.696 Q58.4178 653.275 60.941 653.275 Q65.3391 653.275 67.6307 651.539 Q69.9455 649.803 69.9455 646.493 Q69.9455 643.437 67.7928 641.724 Q65.6632 639.988 61.8437 639.988 L57.816 639.988 L57.816 636.145 L62.0289 636.145 Q65.478 636.145 67.3067 634.78 Q69.1354 633.391 69.1354 630.798 Q69.1354 628.136 67.2372 626.724 Q65.3622 625.289 61.8437 625.289 Q59.9224 625.289 57.7234 625.706 Q55.5243 626.122 52.8854 627.002 L52.8854 622.835 Q55.5475 622.095 57.8623 621.724 Q60.2002 621.354 62.2604 621.354 Q67.5844 621.354 70.6863 623.784 Q73.7881 626.192 73.7881 630.312 Q73.7881 633.182 72.1446 635.173 Q70.5011 637.141 67.4687 637.905 Z" fill="#000000" fill-rule="evenodd" fill-opacity="1" /><path clip-path="url(#clip220)" d="M82.2834 621.979 L104.506 621.979 L104.506 623.97 L91.9593 656.539 L87.0751 656.539 L98.8806 625.914 L82.2834 625.914 L82.2834 621.979 Z" fill="#000000" fill-rule="evenodd" fill-opacity="1" /><path clip-path="url(#clip220)" d="M113.672 621.979 L132.029 621.979 L132.029 625.914 L117.955 625.914 L117.955 634.386 Q118.973 634.039 119.992 633.877 Q121.01 633.692 122.029 633.692 Q127.816 633.692 131.195 636.863 Q134.575 640.034 134.575 645.451 Q134.575 651.03 131.103 654.131 Q127.63 657.21 121.311 657.21 Q119.135 657.21 116.867 656.84 Q114.621 656.469 112.214 655.729 L112.214 651.03 Q114.297 652.164 116.519 652.719 Q118.742 653.275 121.218 653.275 Q125.223 653.275 127.561 651.169 Q129.899 649.062 129.899 645.451 Q129.899 641.84 127.561 639.733 Q125.223 637.627 121.218 637.627 Q119.343 637.627 117.468 638.044 Q115.617 638.46 113.672 639.34 L113.672 621.979 Z" fill="#000000" fill-rule="evenodd" fill-opacity="1" /><path clip-path="url(#clip220)" d="M65.1539 287.061 L53.3484 305.51 L65.1539 305.51 L65.1539 287.061 M63.927 282.987 L69.8066 282.987 L69.8066 305.51 L74.7372 305.51 L74.7372 309.399 L69.8066 309.399 L69.8066 317.547 L65.1539 317.547 L65.1539 309.399 L49.5521 309.399 L49.5521 304.885 L63.927 282.987 Z" fill="#000000" fill-rule="evenodd" fill-opacity="1" /><path clip-path="url(#clip220)" d="M92.4686 286.066 Q88.8575 286.066 87.0288 289.631 Q85.2232 293.172 85.2232 300.302 Q85.2232 307.409 87.0288 310.973 Q88.8575 314.515 92.4686 314.515 Q96.1028 314.515 97.9083 310.973 Q99.737 307.409 99.737 300.302 Q99.737 293.172 97.9083 289.631 Q96.1028 286.066 92.4686 286.066 M92.4686 282.362 Q98.2787 282.362 101.334 286.969 Q104.413 291.552 104.413 300.302 Q104.413 309.029 101.334 313.635 Q98.2787 318.219 92.4686 318.219 Q86.6584 318.219 83.5797 313.635 Q80.5242 309.029 80.5242 300.302 Q80.5242 291.552 83.5797 286.969 Q86.6584 282.362 92.4686 282.362 Z" fill="#000000" fill-rule="evenodd" fill-opacity="1" /><path clip-path="url(#clip220)" d="M122.63 286.066 Q119.019 286.066 117.191 289.631 Q115.385 293.172 115.385 300.302 Q115.385 307.409 117.191 310.973 Q119.019 314.515 122.63 314.515 Q126.265 314.515 128.07 310.973 Q129.899 307.409 129.899 300.302 Q129.899 293.172 128.07 289.631 Q126.265 286.066 122.63 286.066 M122.63 282.362 Q128.441 282.362 131.496 286.969 Q134.575 291.552 134.575 300.302 Q134.575 309.029 131.496 313.635 Q128.441 318.219 122.63 318.219 Q116.82 318.219 113.742 313.635 Q110.686 309.029 110.686 300.302 Q110.686 291.552 113.742 286.969 Q116.82 282.362 122.63 282.362 Z" fill="#000000" fill-rule="evenodd" fill-opacity="1" /><polyline clip-path="url(#clip222)" style="stroke:#009af9; stroke-linecap:butt; stroke-linejoin:round; stroke-width:4; stroke-opacity:1; fill:none" points="
  244.683,1751.15 390.076,1751.15 535.469,1737.59 680.862,1724.03 826.254,1696.91 971.647,1683.35 1117.04,1656.23 1262.43,1615.55 1407.83,1588.44 1553.22,1520.64 
  1698.61,1479.96 1844,1385.04 1989.4,1249.44 2134.79,978.25 2280.18,571.461 
  "/>
<polyline clip-path="url(#clip222)" style="stroke:#e26f46; stroke-linecap:butt; stroke-linejoin:round; stroke-width:4; stroke-opacity:1; fill:none" points="
  1698.61,1412.16 1844,1317.24 1989.4,1140.97 2134.79,869.773 2280.18,707.057 2425.57,435.864 2570.97,96.8724 
  "/>
<polyline clip-path="url(#clip222)" style="stroke:#3da44d; stroke-linecap:butt; stroke-linejoin:round; stroke-width:20; stroke-opacity:0.25; fill:none" points="
  1553.22,1564 1557,1561.83 1592.01,1541.74 1613.05,1529.61 1630.84,1519.34 1650.17,1508.15 1667.98,1497.8 1687.08,1486.68 1709.21,1473.77 1728.87,1462.25 
  1746.12,1452.13 1764.92,1441.07 1783.83,1429.91 1804.74,1417.54 1824.64,1405.74 1845.33,1393.43 1862.74,1383.05 1884,1370.33 1903.48,1358.65 1921.46,1347.84 
  1939.69,1336.85 1960.11,1324.51 1978.61,1313.3 1999.8,1300.43 2019.41,1288.47 2038.75,1276.66 2057.53,1265.15 2076.78,1253.33 2097.87,1240.34 2128.5,1221.41 
  2134.79,1217.51 
  "/>
<polyline clip-path="url(#clip222)" style="stroke:#c271d2; stroke-linecap:butt; stroke-linejoin:round; stroke-width:20; stroke-opacity:0.25; fill:none" points="
  1698.61,1616.5 1704.29,1608.47 1756.81,1533.46 1788.37,1487.73 1815.05,1448.68 1844.03,1405.85 1870.76,1365.98 1899.4,1322.83 1932.6,1272.31 1962.09,1226.92 
  1987.96,1186.73 2016.16,1142.52 2044.53,1097.6 2075.9,1047.42 2105.74,999.178 2136.77,948.487 2162.89,905.394 2194.78,852.255 2224,803.063 2250.98,757.188 
  2278.31,710.283 2308.94,657.189 2336.7,608.592 2368.48,552.378 2397.9,499.779 2426.91,447.399 2455.08,396.04 2483.95,342.871 2515.59,284.01 2561.54,197.354 
  2570.97,179.407 
  "/>
</svg>
