<?xml version="1.0" encoding="utf-8"?>
<svg xmlns="http://www.w3.org/2000/svg" xmlns:xlink="http://www.w3.org/1999/xlink" width="672" height="480" viewBox="0 0 2688 1920">
<defs>
  <clipPath id="clip620">
    <rect x="0" y="0" width="2688" height="1920"/>
  </clipPath>
</defs>
<path clip-path="url(#clip620)" d="
M0 1920 L2688 1920 L2688 0 L0 0  Z
  " fill="#ffffff" fill-rule="evenodd" fill-opacity="1"/>
<defs>
  <clipPath id="clip621">
    <rect x="537" y="0" width="1883" height="1883"/>
  </clipPath>
</defs>
<path clip-path="url(#clip620)" d="
M115.057 1800.78 L2640.76 1800.78 L2640.76 47.2441 L115.057 47.2441  Z
  " fill="#ffffff" fill-rule="evenodd" fill-opacity="1"/>
<defs>
  <clipPath id="clip622">
    <rect x="115" y="47" width="2527" height="1755"/>
  </clipPath>
</defs>
<polyline clip-path="url(#clip622)" style="stroke:#000000; stroke-linecap:butt; stroke-linejoin:round; stroke-width:2; stroke-opacity:0.1; fill:none" points="
  186.539,1800.78 186.539,47.2441 
  "/>
<polyline clip-path="url(#clip622)" style="stroke:#000000; stroke-linecap:butt; stroke-linejoin:round; stroke-width:2; stroke-opacity:0.1; fill:none" points="
  782.223,1800.78 782.223,47.2441 
  "/>
<polyline clip-path="url(#clip622)" style="stroke:#000000; stroke-linecap:butt; stroke-linejoin:round; stroke-width:2; stroke-opacity:0.1; fill:none" points="
  1377.91,1800.78 1377.91,47.2441 
  "/>
<polyline clip-path="url(#clip622)" style="stroke:#000000; stroke-linecap:butt; stroke-linejoin:round; stroke-width:2; stroke-opacity:0.1; fill:none" points="
  1973.59,1800.78 1973.59,47.2441 
  "/>
<polyline clip-path="url(#clip622)" style="stroke:#000000; stroke-linecap:butt; stroke-linejoin:round; stroke-width:2; stroke-opacity:0.1; fill:none" points="
  2569.27,1800.78 2569.27,47.2441 
  "/>
<polyline clip-path="url(#clip620)" style="stroke:#000000; stroke-linecap:butt; stroke-linejoin:round; stroke-width:4; stroke-opacity:1; fill:none" points="
  115.057,1800.78 2640.76,1800.78 
  "/>
<polyline clip-path="url(#clip620)" style="stroke:#000000; stroke-linecap:butt; stroke-linejoin:round; stroke-width:4; stroke-opacity:1; fill:none" points="
  186.539,1800.78 186.539,1781.88 
  "/>
<polyline clip-path="url(#clip620)" style="stroke:#000000; stroke-linecap:butt; stroke-linejoin:round; stroke-width:4; stroke-opacity:1; fill:none" points="
  782.223,1800.78 782.223,1781.88 
  "/>
<polyline clip-path="url(#clip620)" style="stroke:#000000; stroke-linecap:butt; stroke-linejoin:round; stroke-width:4; stroke-opacity:1; fill:none" points="
  1377.91,1800.78 1377.91,1781.88 
  "/>
<polyline clip-path="url(#clip620)" style="stroke:#000000; stroke-linecap:butt; stroke-linejoin:round; stroke-width:4; stroke-opacity:1; fill:none" points="
  1973.59,1800.78 1973.59,1781.88 
  "/>
<polyline clip-path="url(#clip620)" style="stroke:#000000; stroke-linecap:butt; stroke-linejoin:round; stroke-width:4; stroke-opacity:1; fill:none" points="
  2569.27,1800.78 2569.27,1781.88 
  "/>
<path clip-path="url(#clip620)" d="M156.482 1848.65 L186.157 1848.65 L186.157 1852.59 L156.482 1852.59 L156.482 1848.65 Z" fill="#000000" fill-rule="evenodd" fill-opacity="1" /><path clip-path="url(#clip620)" d="M200.278 1861.55 L216.597 1861.55 L216.597 1865.48 L194.653 1865.48 L194.653 1861.55 Q197.315 1858.79 201.898 1854.16 Q206.504 1849.51 207.685 1848.17 Q209.93 1845.65 210.81 1843.91 Q211.713 1842.15 211.713 1840.46 Q211.713 1837.71 209.768 1835.97 Q207.847 1834.23 204.745 1834.23 Q202.546 1834.23 200.092 1835 Q197.662 1835.76 194.884 1837.31 L194.884 1832.59 Q197.708 1831.46 200.162 1830.88 Q202.616 1830.3 204.653 1830.3 Q210.023 1830.3 213.217 1832.98 Q216.412 1835.67 216.412 1840.16 Q216.412 1842.29 215.602 1844.21 Q214.815 1846.11 212.708 1848.7 Q212.129 1849.37 209.028 1852.59 Q205.926 1855.78 200.278 1861.55 Z" fill="#000000" fill-rule="evenodd" fill-opacity="1" /><path clip-path="url(#clip620)" d="M751.98 1848.65 L781.656 1848.65 L781.656 1852.59 L751.98 1852.59 L751.98 1848.65 Z" fill="#000000" fill-rule="evenodd" fill-opacity="1" /><path clip-path="url(#clip620)" d="M792.558 1861.55 L800.197 1861.55 L800.197 1835.18 L791.887 1836.85 L791.887 1832.59 L800.151 1830.92 L804.827 1830.92 L804.827 1861.55 L812.466 1861.55 L812.466 1865.48 L792.558 1865.48 L792.558 1861.55 Z" fill="#000000" fill-rule="evenodd" fill-opacity="1" /><path clip-path="url(#clip620)" d="M1377.91 1834 Q1374.3 1834 1372.47 1837.57 Q1370.66 1841.11 1370.66 1848.24 Q1370.66 1855.34 1372.47 1858.91 Q1374.3 1862.45 1377.91 1862.45 Q1381.54 1862.45 1383.35 1858.91 Q1385.18 1855.34 1385.18 1848.24 Q1385.18 1841.11 1383.35 1837.57 Q1381.54 1834 1377.91 1834 M1377.91 1830.3 Q1383.72 1830.3 1386.77 1834.9 Q1389.85 1839.49 1389.85 1848.24 Q1389.85 1856.96 1386.77 1861.57 Q1383.72 1866.15 1377.91 1866.15 Q1372.1 1866.15 1369.02 1861.57 Q1365.96 1856.96 1365.96 1848.24 Q1365.96 1839.49 1369.02 1834.9 Q1372.1 1830.3 1377.91 1830.3 Z" fill="#000000" fill-rule="evenodd" fill-opacity="1" /><path clip-path="url(#clip620)" d="M1963.97 1861.55 L1971.61 1861.55 L1971.61 1835.18 L1963.3 1836.85 L1963.3 1832.59 L1971.56 1830.92 L1976.24 1830.92 L1976.24 1861.55 L1983.88 1861.55 L1983.88 1865.48 L1963.97 1865.48 L1963.97 1861.55 Z" fill="#000000" fill-rule="evenodd" fill-opacity="1" /><path clip-path="url(#clip620)" d="M2563.93 1861.55 L2580.25 1861.55 L2580.25 1865.48 L2558.3 1865.48 L2558.3 1861.55 Q2560.96 1858.79 2565.55 1854.16 Q2570.15 1849.51 2571.33 1848.17 Q2573.58 1845.65 2574.46 1843.91 Q2575.36 1842.15 2575.36 1840.46 Q2575.36 1837.71 2573.42 1835.97 Q2571.5 1834.23 2568.39 1834.23 Q2566.2 1834.23 2563.74 1835 Q2561.31 1835.76 2558.53 1837.31 L2558.53 1832.59 Q2561.36 1831.46 2563.81 1830.88 Q2566.26 1830.3 2568.3 1830.3 Q2573.67 1830.3 2576.87 1832.98 Q2580.06 1835.67 2580.06 1840.16 Q2580.06 1842.29 2579.25 1844.21 Q2578.46 1846.11 2576.36 1848.7 Q2575.78 1849.37 2572.68 1852.59 Q2569.57 1855.78 2563.93 1861.55 Z" fill="#000000" fill-rule="evenodd" fill-opacity="1" /><polyline clip-path="url(#clip622)" style="stroke:#000000; stroke-linecap:butt; stroke-linejoin:round; stroke-width:2; stroke-opacity:0.1; fill:none" points="
  115.057,1782.02 2640.76,1782.02 
  "/>
<polyline clip-path="url(#clip622)" style="stroke:#000000; stroke-linecap:butt; stroke-linejoin:round; stroke-width:2; stroke-opacity:0.1; fill:none" points="
  115.057,1325.9 2640.76,1325.9 
  "/>
<polyline clip-path="url(#clip622)" style="stroke:#000000; stroke-linecap:butt; stroke-linejoin:round; stroke-width:2; stroke-opacity:0.1; fill:none" points="
  115.057,869.778 2640.76,869.778 
  "/>
<polyline clip-path="url(#clip622)" style="stroke:#000000; stroke-linecap:butt; stroke-linejoin:round; stroke-width:2; stroke-opacity:0.1; fill:none" points="
  115.057,413.66 2640.76,413.66 
  "/>
<polyline clip-path="url(#clip620)" style="stroke:#000000; stroke-linecap:butt; stroke-linejoin:round; stroke-width:4; stroke-opacity:1; fill:none" points="
  115.057,1800.78 115.057,47.2441 
  "/>
<polyline clip-path="url(#clip620)" style="stroke:#000000; stroke-linecap:butt; stroke-linejoin:round; stroke-width:4; stroke-opacity:1; fill:none" points="
  115.057,1782.02 133.955,1782.02 
  "/>
<polyline clip-path="url(#clip620)" style="stroke:#000000; stroke-linecap:butt; stroke-linejoin:round; stroke-width:4; stroke-opacity:1; fill:none" points="
  115.057,1325.9 133.955,1325.9 
  "/>
<polyline clip-path="url(#clip620)" style="stroke:#000000; stroke-linecap:butt; stroke-linejoin:round; stroke-width:4; stroke-opacity:1; fill:none" points="
  115.057,869.778 133.955,869.778 
  "/>
<polyline clip-path="url(#clip620)" style="stroke:#000000; stroke-linecap:butt; stroke-linejoin:round; stroke-width:4; stroke-opacity:1; fill:none" points="
  115.057,413.66 133.955,413.66 
  "/>
<path clip-path="url(#clip620)" d="M62.7928 1767.81 Q59.1817 1767.81 57.353 1771.38 Q55.5475 1774.92 55.5475 1782.05 Q55.5475 1789.16 57.353 1792.72 Q59.1817 1796.26 62.7928 1796.26 Q66.427 1796.26 68.2326 1792.72 Q70.0613 1789.16 70.0613 1782.05 Q70.0613 1774.92 68.2326 1771.38 Q66.427 1767.81 62.7928 1767.81 M62.7928 1764.11 Q68.6029 1764.11 71.6585 1768.72 Q74.7372 1773.3 74.7372 1782.05 Q74.7372 1790.78 71.6585 1795.38 Q68.6029 1799.97 62.7928 1799.97 Q56.9826 1799.97 53.904 1795.38 Q50.8484 1790.78 50.8484 1782.05 Q50.8484 1773.3 53.904 1768.72 Q56.9826 1764.11 62.7928 1764.11 Z" fill="#000000" fill-rule="evenodd" fill-opacity="1" /><path clip-path="url(#clip620)" d="M58.4178 1339.24 L74.7372 1339.24 L74.7372 1343.18 L52.7928 1343.18 L52.7928 1339.24 Q55.4549 1336.49 60.0382 1331.86 Q64.6446 1327.2 65.8252 1325.86 Q68.0705 1323.34 68.9502 1321.6 Q69.8529 1319.84 69.8529 1318.15 Q69.8529 1315.4 67.9085 1313.66 Q65.9872 1311.93 62.8854 1311.93 Q60.6863 1311.93 58.2326 1312.69 Q55.8021 1313.45 53.0243 1315.01 L53.0243 1310.28 Q55.8484 1309.15 58.3021 1308.57 Q60.7558 1307.99 62.7928 1307.99 Q68.1631 1307.99 71.3576 1310.68 Q74.552 1313.36 74.552 1317.85 Q74.552 1319.98 73.7418 1321.9 Q72.9548 1323.8 70.8483 1326.39 Q70.2696 1327.07 67.1678 1330.28 Q64.0659 1333.48 58.4178 1339.24 Z" fill="#000000" fill-rule="evenodd" fill-opacity="1" /><path clip-path="url(#clip620)" d="M65.1539 856.572 L53.3484 875.021 L65.1539 875.021 L65.1539 856.572 M63.927 852.498 L69.8066 852.498 L69.8066 875.021 L74.7372 875.021 L74.7372 878.91 L69.8066 878.91 L69.8066 887.058 L65.1539 887.058 L65.1539 878.91 L49.5521 878.91 L49.5521 874.396 L63.927 852.498 Z" fill="#000000" fill-rule="evenodd" fill-opacity="1" /><path clip-path="url(#clip620)" d="M63.2095 411.796 Q60.0613 411.796 58.2095 413.949 Q56.3808 416.102 56.3808 419.852 Q56.3808 423.579 58.2095 425.754 Q60.0613 427.907 63.2095 427.907 Q66.3576 427.907 68.1863 425.754 Q70.0381 423.579 70.0381 419.852 Q70.0381 416.102 68.1863 413.949 Q66.3576 411.796 63.2095 411.796 M72.4918 397.143 L72.4918 401.403 Q70.7326 400.569 68.927 400.13 Q67.1446 399.69 65.3854 399.69 Q60.7558 399.69 58.3021 402.815 Q55.8715 405.94 55.5243 412.259 Q56.89 410.245 58.9502 409.18 Q61.0104 408.093 63.4872 408.093 Q68.6955 408.093 71.7048 411.264 Q74.7372 414.412 74.7372 419.852 Q74.7372 425.176 71.589 428.393 Q68.4409 431.611 63.2095 431.611 Q57.2141 431.611 54.0428 427.028 Q50.8716 422.421 50.8716 413.694 Q50.8716 405.5 54.7604 400.639 Q58.6493 395.755 65.2002 395.755 Q66.9594 395.755 68.7418 396.102 Q70.5474 396.449 72.4918 397.143 Z" fill="#000000" fill-rule="evenodd" fill-opacity="1" /><polyline clip-path="url(#clip622)" style="stroke:#009af9; stroke-linecap:butt; stroke-linejoin:round; stroke-width:4; stroke-opacity:1; fill:none" points="
  186.539,869.778 190.417,873.886 194.296,877.975 198.174,882.045 202.052,886.097 237.912,922.712 273.772,957.831 309.632,991.514 345.491,1023.82 388.592,1060.91 
  431.692,1096.18 468.133,1124.65 504.574,1151.95 544.159,1180.31 583.744,1207.4 620.238,1231.29 656.732,1254.18 695.857,1277.68 734.983,1300.12 780.313,1324.88 
  825.644,1348.37 865.928,1368.23 906.213,1387.18 941.538,1403.08 976.864,1418.34 1015.38,1434.28 1053.89,1449.52 1092.64,1464.17 1131.38,1478.19 1174.22,1492.96 
  1217.05,1507.01 1257.81,1519.75 1298.57,1531.9 1383.32,1555.39 1454.67,1573.44 1541.78,1593.55 1621.57,1610.26 1695.27,1624.37 1769.92,1637.49 1853.58,1650.9 
  1929.4,1661.97 2016.2,1673.5 2096.57,1683.19 2175.81,1691.89 2252.74,1699.61 2331.6,1706.84 2418.01,1714.03 2543.52,1723.27 2569.27,1725 
  "/>
<polyline clip-path="url(#clip622)" style="stroke:#e26f46; stroke-linecap:butt; stroke-linejoin:round; stroke-width:4; stroke-opacity:1; fill:none" points="
  186.539,1553.96 202.052,1553.96 345.491,1553.96 431.692,1553.96 504.574,1553.96 583.744,1553.96 656.732,1553.96 734.983,1553.96 825.644,1553.96 906.213,1553.96 
  976.864,1553.96 1053.89,1553.96 1131.38,1553.96 1217.05,1553.96 1298.57,1553.96 1383.32,1553.96 1454.67,1553.96 1541.78,1553.96 1621.57,1553.96 1695.27,1553.96 
  1769.92,1553.96 1853.58,1553.96 1929.4,1553.96 2016.2,1553.96 2096.57,1553.96 2175.81,1553.96 2252.74,1553.96 2331.6,1553.96 2418.01,1553.96 2543.52,1553.96 
  2569.27,1553.96 
  "/>
<polyline clip-path="url(#clip622)" style="stroke:#3da44d; stroke-linecap:butt; stroke-linejoin:round; stroke-width:4; stroke-opacity:1; fill:none" points="
  186.539,1725 202.052,1723.96 345.491,1713.42 431.692,1706.18 504.574,1699.47 583.744,1691.5 656.732,1683.48 734.983,1674.08 825.644,1662.08 906.213,1650.29 
  976.864,1639 1053.89,1625.59 1131.38,1610.83 1217.05,1592.89 1298.57,1574.07 1383.32,1552.51 1454.67,1532.65 1498.22,1519.68 1541.78,1506.05 1581.67,1492.93 
  1621.57,1479.2 1658.42,1465.93 1695.27,1452.08 1732.59,1437.44 1769.92,1422.14 1811.75,1404.19 1853.58,1385.34 1891.49,1367.45 1929.4,1348.76 1972.8,1326.32 
  2016.2,1302.71 2056.38,1279.77 2096.57,1255.72 2136.19,1230.89 2175.81,1204.89 2214.27,1178.48 2252.74,1150.85 2292.17,1121.21 2331.6,1090.19 2374.8,1054.52 
  2418.01,1017.01 2449.39,988.561 2480.76,959.054 2512.14,928.449 2543.52,896.707 2549.96,890.05 2556.4,883.343 2562.84,876.586 2569.27,869.778 
  "/>
<polyline clip-path="url(#clip622)" style="stroke:#c271d2; stroke-linecap:butt; stroke-linejoin:round; stroke-width:4; stroke-opacity:1; fill:none" points="
  186.539,1751.15 202.052,1750.34 345.491,1741.71 431.692,1735.44 504.574,1729.37 583.744,1721.89 656.732,1714.05 734.983,1704.51 825.644,1691.77 906.213,1678.7 
  976.864,1665.69 1053.89,1649.64 1131.38,1631.25 1217.05,1607.93 1298.57,1582.4 1383.32,1551.87 1454.67,1522.59 1498.22,1502.91 1541.78,1481.74 1581.67,1460.94 
  1621.57,1438.7 1658.42,1416.79 1695.27,1393.48 1732.59,1368.36 1769.92,1341.61 1811.75,1309.57 1853.58,1275.2 1891.49,1241.9 1929.4,1206.41 1972.8,1162.91 
  2016.2,1116.12 2056.38,1069.65 2096.57,1019.93 2136.19,967.523 2175.81,911.511 2214.27,853.444 2252.74,791.505 2272.45,758.172 2292.17,723.717 2311.88,688.103 
  2331.6,651.291 2353.2,609.535 2374.8,566.237 2396.4,521.34 2418.01,474.785 2449.39,404.077 2480.76,329.544 2512.14,250.98 2543.52,168.166 2549.96,150.63 
  2556.4,132.904 2562.84,114.986 2569.27,96.8724 
  "/>
<path clip-path="url(#clip620)" d="
M2209.59 364.895 L2556.57 364.895 L2556.57 105.695 L2209.59 105.695  Z
  " fill="#ffffff" fill-rule="evenodd" fill-opacity="1"/>
<polyline clip-path="url(#clip620)" style="stroke:#000000; stroke-linecap:butt; stroke-linejoin:round; stroke-width:4; stroke-opacity:1; fill:none" points="
  2209.59,364.895 2556.57,364.895 2556.57,105.695 2209.59,105.695 2209.59,364.895 
  "/>
<polyline clip-path="url(#clip620)" style="stroke:#009af9; stroke-linecap:butt; stroke-linejoin:round; stroke-width:4; stroke-opacity:1; fill:none" points="
  2237.65,157.535 2406.03,157.535 
  "/>
<path clip-path="url(#clip620)" d="M2434.77 170.88 L2442.41 170.88 L2442.41 144.515 L2434.1 146.181 L2434.1 141.922 L2442.36 140.255 L2447.04 140.255 L2447.04 170.88 L2454.68 170.88 L2454.68 174.815 L2434.77 174.815 L2434.77 170.88 Z" fill="#000000" fill-rule="evenodd" fill-opacity="1" /><path clip-path="url(#clip620)" d="M2471.09 140.255 L2475.02 140.255 L2462.99 179.213 L2459.05 179.213 L2471.09 140.255 Z" fill="#000000" fill-rule="evenodd" fill-opacity="1" /><path clip-path="url(#clip620)" d="M2484.12 170.88 L2500.44 170.88 L2500.44 174.815 L2478.49 174.815 L2478.49 170.88 Q2481.16 168.125 2485.74 163.496 Q2490.35 158.843 2491.53 157.501 Q2493.77 154.977 2494.65 153.241 Q2495.56 151.482 2495.56 149.792 Q2495.56 147.038 2493.61 145.302 Q2491.69 143.565 2488.59 143.565 Q2486.39 143.565 2483.93 144.329 Q2481.5 145.093 2478.73 146.644 L2478.73 141.922 Q2481.55 140.788 2484 140.209 Q2486.46 139.63 2488.49 139.63 Q2493.87 139.63 2497.06 142.315 Q2500.25 145.001 2500.25 149.491 Q2500.25 151.621 2499.44 153.542 Q2498.66 155.44 2496.55 158.033 Q2495.97 158.704 2492.87 161.922 Q2489.77 165.116 2484.12 170.88 Z" fill="#000000" fill-rule="evenodd" fill-opacity="1" /><polyline clip-path="url(#clip620)" style="stroke:#e26f46; stroke-linecap:butt; stroke-linejoin:round; stroke-width:4; stroke-opacity:1; fill:none" points="
  2237.65,209.375 2406.03,209.375 
  "/>
<path clip-path="url(#clip620)" d="M2434.77 222.72 L2442.41 222.72 L2442.41 196.355 L2434.1 198.021 L2434.1 193.762 L2442.36 192.095 L2447.04 192.095 L2447.04 222.72 L2454.68 222.72 L2454.68 226.655 L2434.77 226.655 L2434.77 222.72 Z" fill="#000000" fill-rule="evenodd" fill-opacity="1" /><polyline clip-path="url(#clip620)" style="stroke:#3da44d; stroke-linecap:butt; stroke-linejoin:round; stroke-width:4; stroke-opacity:1; fill:none" points="
  2237.65,261.215 2406.03,261.215 
  "/>
<path clip-path="url(#clip620)" d="M2439.72 274.56 L2456.04 274.56 L2456.04 278.495 L2434.1 278.495 L2434.1 274.56 Q2436.76 271.805 2441.34 267.176 Q2445.95 262.523 2447.13 261.181 Q2449.37 258.657 2450.25 256.921 Q2451.16 255.162 2451.16 253.472 Q2451.16 250.718 2449.21 248.982 Q2447.29 247.245 2444.19 247.245 Q2441.99 247.245 2439.54 248.009 Q2437.11 248.773 2434.33 250.324 L2434.33 245.602 Q2437.15 244.468 2439.61 243.889 Q2442.06 243.31 2444.1 243.31 Q2449.47 243.31 2452.66 245.995 Q2455.86 248.681 2455.86 253.171 Q2455.86 255.301 2455.05 257.222 Q2454.26 259.12 2452.15 261.713 Q2451.57 262.384 2448.47 265.602 Q2445.37 268.796 2439.72 274.56 Z" fill="#000000" fill-rule="evenodd" fill-opacity="1" /><polyline clip-path="url(#clip620)" style="stroke:#c271d2; stroke-linecap:butt; stroke-linejoin:round; stroke-width:4; stroke-opacity:1; fill:none" points="
  2237.65,313.055 2406.03,313.055 
  "/>
<path clip-path="url(#clip620)" d="M2458.12 316.308 L2458.12 318.391 L2438.54 318.391 Q2438.82 322.789 2441.18 325.104 Q2443.56 327.395 2447.8 327.395 Q2450.25 327.395 2452.55 326.794 Q2454.86 326.192 2457.13 324.988 L2457.13 329.016 Q2454.84 329.988 2452.43 330.497 Q2450.02 331.007 2447.55 331.007 Q2441.34 331.007 2437.71 327.395 Q2434.1 323.784 2434.1 317.627 Q2434.1 311.261 2437.52 307.534 Q2440.97 303.784 2446.81 303.784 Q2452.04 303.784 2455.07 307.164 Q2458.12 310.521 2458.12 316.308 M2453.87 315.058 Q2453.82 311.562 2451.9 309.479 Q2450 307.396 2446.85 307.396 Q2443.29 307.396 2441.13 309.409 Q2439 311.423 2438.68 315.081 L2453.87 315.058 Z" fill="#000000" fill-rule="evenodd" fill-opacity="1" /></svg>
