<?xml version="1.0" encoding="utf-8"?>
<svg xmlns="http://www.w3.org/2000/svg" xmlns:xlink="http://www.w3.org/1999/xlink" width="672" height="480" viewBox="0 0 2688 1920">
<defs>
  <clipPath id="clip920">
    <rect x="0" y="0" width="2688" height="1920"/>
  </clipPath>
</defs>
<path clip-path="url(#clip920)" d="
M0 1920 L2688 1920 L2688 0 L0 0  Z
  " fill="#ffffff" fill-rule="evenodd" fill-opacity="1"/>
<defs>
  <clipPath id="clip921">
    <rect x="537" y="0" width="1883" height="1883"/>
  </clipPath>
</defs>
<path clip-path="url(#clip920)" d="
M287.302 1800.78 L2640.76 1800.78 L2640.76 47.2441 L287.302 47.2441  Z
  " fill="#ffffff" fill-rule="evenodd" fill-opacity="1"/>
<defs>
  <clipPath id="clip922">
    <rect x="287" y="47" width="2354" height="1755"/>
  </clipPath>
</defs>
<polyline clip-path="url(#clip922)" style="stroke:#000000; stroke-linecap:round; stroke-linejoin:round; stroke-width:2; stroke-opacity:0.1; fill:none" points="
  353.909,1800.78 353.909,47.2441 
  "/>
<polyline clip-path="url(#clip922)" style="stroke:#000000; stroke-linecap:round; stroke-linejoin:round; stroke-width:2; stroke-opacity:0.1; fill:none" points="
  797.957,1800.78 797.957,47.2441 
  "/>
<polyline clip-path="url(#clip922)" style="stroke:#000000; stroke-linecap:round; stroke-linejoin:round; stroke-width:2; stroke-opacity:0.1; fill:none" points="
  1242,1800.78 1242,47.2441 
  "/>
<polyline clip-path="url(#clip922)" style="stroke:#000000; stroke-linecap:round; stroke-linejoin:round; stroke-width:2; stroke-opacity:0.1; fill:none" points="
  1686.05,1800.78 1686.05,47.2441 
  "/>
<polyline clip-path="url(#clip922)" style="stroke:#000000; stroke-linecap:round; stroke-linejoin:round; stroke-width:2; stroke-opacity:0.1; fill:none" points="
  2130.1,1800.78 2130.1,47.2441 
  "/>
<polyline clip-path="url(#clip922)" style="stroke:#000000; stroke-linecap:round; stroke-linejoin:round; stroke-width:2; stroke-opacity:0.1; fill:none" points="
  2574.15,1800.78 2574.15,47.2441 
  "/>
<polyline clip-path="url(#clip920)" style="stroke:#000000; stroke-linecap:round; stroke-linejoin:round; stroke-width:4; stroke-opacity:1; fill:none" points="
  287.302,1800.78 2640.76,1800.78 
  "/>
<polyline clip-path="url(#clip920)" style="stroke:#000000; stroke-linecap:round; stroke-linejoin:round; stroke-width:4; stroke-opacity:1; fill:none" points="
  353.909,1800.78 353.909,1781.88 
  "/>
<polyline clip-path="url(#clip920)" style="stroke:#000000; stroke-linecap:round; stroke-linejoin:round; stroke-width:4; stroke-opacity:1; fill:none" points="
  797.957,1800.78 797.957,1781.88 
  "/>
<polyline clip-path="url(#clip920)" style="stroke:#000000; stroke-linecap:round; stroke-linejoin:round; stroke-width:4; stroke-opacity:1; fill:none" points="
  1242,1800.78 1242,1781.88 
  "/>
<polyline clip-path="url(#clip920)" style="stroke:#000000; stroke-linecap:round; stroke-linejoin:round; stroke-width:4; stroke-opacity:1; fill:none" points="
  1686.05,1800.78 1686.05,1781.88 
  "/>
<polyline clip-path="url(#clip920)" style="stroke:#000000; stroke-linecap:round; stroke-linejoin:round; stroke-width:4; stroke-opacity:1; fill:none" points="
  2130.1,1800.78 2130.1,1781.88 
  "/>
<polyline clip-path="url(#clip920)" style="stroke:#000000; stroke-linecap:round; stroke-linejoin:round; stroke-width:4; stroke-opacity:1; fill:none" points="
  2574.15,1800.78 2574.15,1781.88 
  "/>
<path clip-path="url(#clip920)" d="M328.608 1830.92 L346.964 1830.92 L346.964 1834.86 L332.89 1834.86 L332.89 1843.33 Q333.909 1842.98 334.927 1842.82 Q335.946 1842.64 336.964 1842.64 Q342.751 1842.64 346.131 1845.81 Q349.511 1848.98 349.511 1854.4 Q349.511 1859.97 346.038 1863.08 Q342.566 1866.15 336.247 1866.15 Q334.071 1866.15 331.802 1865.78 Q329.557 1865.41 327.15 1864.67 L327.15 1859.97 Q329.233 1861.11 331.455 1861.66 Q333.677 1862.22 336.154 1862.22 Q340.159 1862.22 342.497 1860.11 Q344.835 1858.01 344.835 1854.4 Q344.835 1850.78 342.497 1848.68 Q340.159 1846.57 336.154 1846.57 Q334.279 1846.57 332.404 1846.99 Q330.552 1847.4 328.608 1848.28 L328.608 1830.92 Z" fill="#000000" fill-rule="evenodd" fill-opacity="1" /><path clip-path="url(#clip920)" d="M368.724 1834 Q365.112 1834 363.284 1837.57 Q361.478 1841.11 361.478 1848.24 Q361.478 1855.34 363.284 1858.91 Q365.112 1862.45 368.724 1862.45 Q372.358 1862.45 374.163 1858.91 Q375.992 1855.34 375.992 1848.24 Q375.992 1841.11 374.163 1837.57 Q372.358 1834 368.724 1834 M368.724 1830.3 Q374.534 1830.3 377.589 1834.9 Q380.668 1839.49 380.668 1848.24 Q380.668 1856.96 377.589 1861.57 Q374.534 1866.15 368.724 1866.15 Q362.913 1866.15 359.835 1861.57 Q356.779 1856.96 356.779 1848.24 Q356.779 1839.49 359.835 1834.9 Q362.913 1830.3 368.724 1830.3 Z" fill="#000000" fill-rule="evenodd" fill-opacity="1" /><path clip-path="url(#clip920)" d="M757.563 1861.55 L765.202 1861.55 L765.202 1835.18 L756.892 1836.85 L756.892 1832.59 L765.156 1830.92 L769.832 1830.92 L769.832 1861.55 L777.471 1861.55 L777.471 1865.48 L757.563 1865.48 L757.563 1861.55 Z" fill="#000000" fill-rule="evenodd" fill-opacity="1" /><path clip-path="url(#clip920)" d="M796.915 1834 Q793.304 1834 791.475 1837.57 Q789.67 1841.11 789.67 1848.24 Q789.67 1855.34 791.475 1858.91 Q793.304 1862.45 796.915 1862.45 Q800.549 1862.45 802.355 1858.91 Q804.184 1855.34 804.184 1848.24 Q804.184 1841.11 802.355 1837.57 Q800.549 1834 796.915 1834 M796.915 1830.3 Q802.725 1830.3 805.781 1834.9 Q808.86 1839.49 808.86 1848.24 Q808.86 1856.96 805.781 1861.57 Q802.725 1866.15 796.915 1866.15 Q791.105 1866.15 788.026 1861.57 Q784.971 1856.96 784.971 1848.24 Q784.971 1839.49 788.026 1834.9 Q791.105 1830.3 796.915 1830.3 Z" fill="#000000" fill-rule="evenodd" fill-opacity="1" /><path clip-path="url(#clip920)" d="M827.077 1834 Q823.466 1834 821.637 1837.57 Q819.832 1841.11 819.832 1848.24 Q819.832 1855.34 821.637 1858.91 Q823.466 1862.45 827.077 1862.45 Q830.711 1862.45 832.517 1858.91 Q834.345 1855.34 834.345 1848.24 Q834.345 1841.11 832.517 1837.57 Q830.711 1834 827.077 1834 M827.077 1830.3 Q832.887 1830.3 835.943 1834.9 Q839.021 1839.49 839.021 1848.24 Q839.021 1856.96 835.943 1861.57 Q832.887 1866.15 827.077 1866.15 Q821.267 1866.15 818.188 1861.57 Q815.133 1856.96 815.133 1848.24 Q815.133 1839.49 818.188 1834.9 Q821.267 1830.3 827.077 1830.3 Z" fill="#000000" fill-rule="evenodd" fill-opacity="1" /><path clip-path="url(#clip920)" d="M1201.61 1861.55 L1209.25 1861.55 L1209.25 1835.18 L1200.94 1836.85 L1200.94 1832.59 L1209.2 1830.92 L1213.88 1830.92 L1213.88 1861.55 L1221.52 1861.55 L1221.52 1865.48 L1201.61 1865.48 L1201.61 1861.55 Z" fill="#000000" fill-rule="evenodd" fill-opacity="1" /><path clip-path="url(#clip920)" d="M1231.01 1830.92 L1249.37 1830.92 L1249.37 1834.86 L1235.29 1834.86 L1235.29 1843.33 Q1236.31 1842.98 1237.33 1842.82 Q1238.35 1842.64 1239.37 1842.64 Q1245.15 1842.64 1248.53 1845.81 Q1251.91 1848.98 1251.91 1854.4 Q1251.91 1859.97 1248.44 1863.08 Q1244.97 1866.15 1238.65 1866.15 Q1236.47 1866.15 1234.2 1865.78 Q1231.96 1865.41 1229.55 1864.67 L1229.55 1859.97 Q1231.63 1861.11 1233.86 1861.66 Q1236.08 1862.22 1238.56 1862.22 Q1242.56 1862.22 1244.9 1860.11 Q1247.24 1858.01 1247.24 1854.4 Q1247.24 1850.78 1244.9 1848.68 Q1242.56 1846.57 1238.56 1846.57 Q1236.68 1846.57 1234.81 1846.99 Q1232.95 1847.4 1231.01 1848.28 L1231.01 1830.92 Z" fill="#000000" fill-rule="evenodd" fill-opacity="1" /><path clip-path="url(#clip920)" d="M1271.12 1834 Q1267.51 1834 1265.69 1837.57 Q1263.88 1841.11 1263.88 1848.24 Q1263.88 1855.34 1265.69 1858.91 Q1267.51 1862.45 1271.12 1862.45 Q1274.76 1862.45 1276.56 1858.91 Q1278.39 1855.34 1278.39 1848.24 Q1278.39 1841.11 1276.56 1837.57 Q1274.76 1834 1271.12 1834 M1271.12 1830.3 Q1276.94 1830.3 1279.99 1834.9 Q1283.07 1839.49 1283.07 1848.24 Q1283.07 1856.96 1279.99 1861.57 Q1276.94 1866.15 1271.12 1866.15 Q1265.31 1866.15 1262.24 1861.57 Q1259.18 1856.96 1259.18 1848.24 Q1259.18 1839.49 1262.24 1834.9 Q1265.31 1830.3 1271.12 1830.3 Z" fill="#000000" fill-rule="evenodd" fill-opacity="1" /><path clip-path="url(#clip920)" d="M1649.75 1861.55 L1666.06 1861.55 L1666.06 1865.48 L1644.12 1865.48 L1644.12 1861.55 Q1646.78 1858.79 1651.37 1854.16 Q1655.97 1849.51 1657.15 1848.17 Q1659.4 1845.65 1660.28 1843.91 Q1661.18 1842.15 1661.18 1840.46 Q1661.18 1837.71 1659.24 1835.97 Q1657.31 1834.23 1654.21 1834.23 Q1652.01 1834.23 1649.56 1835 Q1647.13 1835.76 1644.35 1837.31 L1644.35 1832.59 Q1647.18 1831.46 1649.63 1830.88 Q1652.08 1830.3 1654.12 1830.3 Q1659.49 1830.3 1662.68 1832.98 Q1665.88 1835.67 1665.88 1840.16 Q1665.88 1842.29 1665.07 1844.21 Q1664.28 1846.11 1662.18 1848.7 Q1661.6 1849.37 1658.5 1852.59 Q1655.39 1855.78 1649.75 1861.55 Z" fill="#000000" fill-rule="evenodd" fill-opacity="1" /><path clip-path="url(#clip920)" d="M1685.88 1834 Q1682.27 1834 1680.44 1837.57 Q1678.63 1841.11 1678.63 1848.24 Q1678.63 1855.34 1680.44 1858.91 Q1682.27 1862.45 1685.88 1862.45 Q1689.51 1862.45 1691.32 1858.91 Q1693.15 1855.34 1693.15 1848.24 Q1693.15 1841.11 1691.32 1837.57 Q1689.51 1834 1685.88 1834 M1685.88 1830.3 Q1691.69 1830.3 1694.74 1834.9 Q1697.82 1839.49 1697.82 1848.24 Q1697.82 1856.96 1694.74 1861.57 Q1691.69 1866.15 1685.88 1866.15 Q1680.07 1866.15 1676.99 1861.57 Q1673.93 1856.96 1673.93 1848.24 Q1673.93 1839.49 1676.99 1834.9 Q1680.07 1830.3 1685.88 1830.3 Z" fill="#000000" fill-rule="evenodd" fill-opacity="1" /><path clip-path="url(#clip920)" d="M1716.04 1834 Q1712.43 1834 1710.6 1837.57 Q1708.8 1841.11 1708.8 1848.24 Q1708.8 1855.34 1710.6 1858.91 Q1712.43 1862.45 1716.04 1862.45 Q1719.68 1862.45 1721.48 1858.91 Q1723.31 1855.34 1723.31 1848.24 Q1723.31 1841.11 1721.48 1837.57 Q1719.68 1834 1716.04 1834 M1716.04 1830.3 Q1721.85 1830.3 1724.91 1834.9 Q1727.99 1839.49 1727.99 1848.24 Q1727.99 1856.96 1724.91 1861.57 Q1721.85 1866.15 1716.04 1866.15 Q1710.23 1866.15 1707.15 1861.57 Q1704.1 1856.96 1704.1 1848.24 Q1704.1 1839.49 1707.15 1834.9 Q1710.23 1830.3 1716.04 1830.3 Z" fill="#000000" fill-rule="evenodd" fill-opacity="1" /><path clip-path="url(#clip920)" d="M2093.79 1861.55 L2110.11 1861.55 L2110.11 1865.48 L2088.17 1865.48 L2088.17 1861.55 Q2090.83 1858.79 2095.41 1854.16 Q2100.02 1849.51 2101.2 1848.17 Q2103.45 1845.65 2104.33 1843.91 Q2105.23 1842.15 2105.23 1840.46 Q2105.23 1837.71 2103.28 1835.97 Q2101.36 1834.23 2098.26 1834.23 Q2096.06 1834.23 2093.61 1835 Q2091.18 1835.76 2088.4 1837.31 L2088.4 1832.59 Q2091.22 1831.46 2093.68 1830.88 Q2096.13 1830.3 2098.17 1830.3 Q2103.54 1830.3 2106.73 1832.98 Q2109.93 1835.67 2109.93 1840.16 Q2109.93 1842.29 2109.12 1844.21 Q2108.33 1846.11 2106.22 1848.7 Q2105.64 1849.37 2102.54 1852.59 Q2099.44 1855.78 2093.79 1861.55 Z" fill="#000000" fill-rule="evenodd" fill-opacity="1" /><path clip-path="url(#clip920)" d="M2119.97 1830.92 L2138.33 1830.92 L2138.33 1834.86 L2124.26 1834.86 L2124.26 1843.33 Q2125.27 1842.98 2126.29 1842.82 Q2127.31 1842.64 2128.33 1842.64 Q2134.12 1842.64 2137.5 1845.81 Q2140.88 1848.98 2140.88 1854.4 Q2140.88 1859.97 2137.4 1863.08 Q2133.93 1866.15 2127.61 1866.15 Q2125.44 1866.15 2123.17 1865.78 Q2120.92 1865.41 2118.52 1864.67 L2118.52 1859.97 Q2120.6 1861.11 2122.82 1861.66 Q2125.04 1862.22 2127.52 1862.22 Q2131.52 1862.22 2133.86 1860.11 Q2136.2 1858.01 2136.2 1854.4 Q2136.2 1850.78 2133.86 1848.68 Q2131.52 1846.57 2127.52 1846.57 Q2125.64 1846.57 2123.77 1846.99 Q2121.92 1847.4 2119.97 1848.28 L2119.97 1830.92 Z" fill="#000000" fill-rule="evenodd" fill-opacity="1" /><path clip-path="url(#clip920)" d="M2160.09 1834 Q2156.48 1834 2154.65 1837.57 Q2152.84 1841.11 2152.84 1848.24 Q2152.84 1855.34 2154.65 1858.91 Q2156.48 1862.45 2160.09 1862.45 Q2163.72 1862.45 2165.53 1858.91 Q2167.36 1855.34 2167.36 1848.24 Q2167.36 1841.11 2165.53 1837.57 Q2163.72 1834 2160.09 1834 M2160.09 1830.3 Q2165.9 1830.3 2168.95 1834.9 Q2172.03 1839.49 2172.03 1848.24 Q2172.03 1856.96 2168.95 1861.57 Q2165.9 1866.15 2160.09 1866.15 Q2154.28 1866.15 2151.2 1861.57 Q2148.14 1856.96 2148.14 1848.24 Q2148.14 1839.49 2151.2 1834.9 Q2154.28 1830.3 2160.09 1830.3 Z" fill="#000000" fill-rule="evenodd" fill-opacity="1" /><path clip-path="url(#clip920)" d="M2547.91 1846.85 Q2551.27 1847.57 2553.14 1849.84 Q2555.04 1852.1 2555.04 1855.44 Q2555.04 1860.55 2551.52 1863.35 Q2548 1866.15 2541.52 1866.15 Q2539.35 1866.15 2537.03 1865.71 Q2534.74 1865.3 2532.29 1864.44 L2532.29 1859.93 Q2534.23 1861.06 2536.54 1861.64 Q2538.86 1862.22 2541.38 1862.22 Q2545.78 1862.22 2548.07 1860.48 Q2550.39 1858.75 2550.39 1855.44 Q2550.39 1852.38 2548.23 1850.67 Q2546.1 1848.93 2542.29 1848.93 L2538.26 1848.93 L2538.26 1845.09 L2542.47 1845.09 Q2545.92 1845.09 2547.75 1843.72 Q2549.58 1842.34 2549.58 1839.74 Q2549.58 1837.08 2547.68 1835.67 Q2545.8 1834.23 2542.29 1834.23 Q2540.36 1834.23 2538.17 1834.65 Q2535.97 1835.07 2533.33 1835.95 L2533.33 1831.78 Q2535.99 1831.04 2538.3 1830.67 Q2540.64 1830.3 2542.7 1830.3 Q2548.03 1830.3 2551.13 1832.73 Q2554.23 1835.14 2554.23 1839.26 Q2554.23 1842.13 2552.59 1844.12 Q2550.94 1846.09 2547.91 1846.85 Z" fill="#000000" fill-rule="evenodd" fill-opacity="1" /><path clip-path="url(#clip920)" d="M2573.91 1834 Q2570.29 1834 2568.47 1837.57 Q2566.66 1841.11 2566.66 1848.24 Q2566.66 1855.34 2568.47 1858.91 Q2570.29 1862.45 2573.91 1862.45 Q2577.54 1862.45 2579.35 1858.91 Q2581.17 1855.34 2581.17 1848.24 Q2581.17 1841.11 2579.35 1837.57 Q2577.54 1834 2573.91 1834 M2573.91 1830.3 Q2579.72 1830.3 2582.77 1834.9 Q2585.85 1839.49 2585.85 1848.24 Q2585.85 1856.96 2582.77 1861.57 Q2579.72 1866.15 2573.91 1866.15 Q2568.1 1866.15 2565.02 1861.57 Q2561.96 1856.96 2561.96 1848.24 Q2561.96 1839.49 2565.02 1834.9 Q2568.1 1830.3 2573.91 1830.3 Z" fill="#000000" fill-rule="evenodd" fill-opacity="1" /><path clip-path="url(#clip920)" d="M2604.07 1834 Q2600.46 1834 2598.63 1837.57 Q2596.82 1841.11 2596.82 1848.24 Q2596.82 1855.34 2598.63 1858.91 Q2600.46 1862.45 2604.07 1862.45 Q2607.7 1862.45 2609.51 1858.91 Q2611.34 1855.34 2611.34 1848.24 Q2611.34 1841.11 2609.51 1837.57 Q2607.7 1834 2604.07 1834 M2604.07 1830.3 Q2609.88 1830.3 2612.93 1834.9 Q2616.01 1839.49 2616.01 1848.24 Q2616.01 1856.96 2612.93 1861.57 Q2609.88 1866.15 2604.07 1866.15 Q2598.26 1866.15 2595.18 1861.57 Q2592.12 1856.96 2592.12 1848.24 Q2592.12 1839.49 2595.18 1834.9 Q2598.26 1830.3 2604.07 1830.3 Z" fill="#000000" fill-rule="evenodd" fill-opacity="1" /><polyline clip-path="url(#clip922)" style="stroke:#000000; stroke-linecap:round; stroke-linejoin:round; stroke-width:2; stroke-opacity:0.1; fill:none" points="
  287.302,1622.62 2640.76,1622.62 
  "/>
<polyline clip-path="url(#clip922)" style="stroke:#000000; stroke-linecap:round; stroke-linejoin:round; stroke-width:2; stroke-opacity:0.1; fill:none" points="
  287.302,1386.85 2640.76,1386.85 
  "/>
<polyline clip-path="url(#clip922)" style="stroke:#000000; stroke-linecap:round; stroke-linejoin:round; stroke-width:2; stroke-opacity:0.1; fill:none" points="
  287.302,1151.08 2640.76,1151.08 
  "/>
<polyline clip-path="url(#clip922)" style="stroke:#000000; stroke-linecap:round; stroke-linejoin:round; stroke-width:2; stroke-opacity:0.1; fill:none" points="
  287.302,915.316 2640.76,915.316 
  "/>
<polyline clip-path="url(#clip922)" style="stroke:#000000; stroke-linecap:round; stroke-linejoin:round; stroke-width:2; stroke-opacity:0.1; fill:none" points="
  287.302,679.55 2640.76,679.55 
  "/>
<polyline clip-path="url(#clip922)" style="stroke:#000000; stroke-linecap:round; stroke-linejoin:round; stroke-width:2; stroke-opacity:0.1; fill:none" points="
  287.302,443.783 2640.76,443.783 
  "/>
<polyline clip-path="url(#clip922)" style="stroke:#000000; stroke-linecap:round; stroke-linejoin:round; stroke-width:2; stroke-opacity:0.1; fill:none" points="
  287.302,208.017 2640.76,208.017 
  "/>
<polyline clip-path="url(#clip920)" style="stroke:#000000; stroke-linecap:round; stroke-linejoin:round; stroke-width:4; stroke-opacity:1; fill:none" points="
  287.302,1800.78 287.302,47.2441 
  "/>
<polyline clip-path="url(#clip920)" style="stroke:#000000; stroke-linecap:round; stroke-linejoin:round; stroke-width:4; stroke-opacity:1; fill:none" points="
  287.302,1622.62 306.199,1622.62 
  "/>
<polyline clip-path="url(#clip920)" style="stroke:#000000; stroke-linecap:round; stroke-linejoin:round; stroke-width:4; stroke-opacity:1; fill:none" points="
  287.302,1386.85 306.199,1386.85 
  "/>
<polyline clip-path="url(#clip920)" style="stroke:#000000; stroke-linecap:round; stroke-linejoin:round; stroke-width:4; stroke-opacity:1; fill:none" points="
  287.302,1151.08 306.199,1151.08 
  "/>
<polyline clip-path="url(#clip920)" style="stroke:#000000; stroke-linecap:round; stroke-linejoin:round; stroke-width:4; stroke-opacity:1; fill:none" points="
  287.302,915.316 306.199,915.316 
  "/>
<polyline clip-path="url(#clip920)" style="stroke:#000000; stroke-linecap:round; stroke-linejoin:round; stroke-width:4; stroke-opacity:1; fill:none" points="
  287.302,679.55 306.199,679.55 
  "/>
<polyline clip-path="url(#clip920)" style="stroke:#000000; stroke-linecap:round; stroke-linejoin:round; stroke-width:4; stroke-opacity:1; fill:none" points="
  287.302,443.783 306.199,443.783 
  "/>
<polyline clip-path="url(#clip920)" style="stroke:#000000; stroke-linecap:round; stroke-linejoin:round; stroke-width:4; stroke-opacity:1; fill:none" points="
  287.302,208.017 306.199,208.017 
  "/>
<path clip-path="url(#clip920)" d="M50.5475 1623.07 L80.2233 1623.07 L80.2233 1627 L50.5475 1627 L50.5475 1623.07 Z" fill="#000000" fill-rule="evenodd" fill-opacity="1" /><path clip-path="url(#clip920)" d="M100.316 1608.41 Q96.7047 1608.41 94.876 1611.98 Q93.0704 1615.52 93.0704 1622.65 Q93.0704 1629.76 94.876 1633.32 Q96.7047 1636.86 100.316 1636.86 Q103.95 1636.86 105.756 1633.32 Q107.584 1629.76 107.584 1622.65 Q107.584 1615.52 105.756 1611.98 Q103.95 1608.41 100.316 1608.41 M100.316 1604.71 Q106.126 1604.71 109.181 1609.32 Q112.26 1613.9 112.26 1622.65 Q112.26 1631.38 109.181 1635.98 Q106.126 1640.57 100.316 1640.57 Q94.5056 1640.57 91.4269 1635.98 Q88.3714 1631.38 88.3714 1622.65 Q88.3714 1613.9 91.4269 1609.32 Q94.5056 1604.71 100.316 1604.71 Z" fill="#000000" fill-rule="evenodd" fill-opacity="1" /><path clip-path="url(#clip920)" d="M120.478 1634.02 L125.362 1634.02 L125.362 1639.9 L120.478 1639.9 L120.478 1634.02 Z" fill="#000000" fill-rule="evenodd" fill-opacity="1" /><path clip-path="url(#clip920)" d="M145.547 1608.41 Q141.936 1608.41 140.107 1611.98 Q138.302 1615.52 138.302 1622.65 Q138.302 1629.76 140.107 1633.32 Q141.936 1636.86 145.547 1636.86 Q149.181 1636.86 150.987 1633.32 Q152.815 1629.76 152.815 1622.65 Q152.815 1615.52 150.987 1611.98 Q149.181 1608.41 145.547 1608.41 M145.547 1604.71 Q151.357 1604.71 154.413 1609.32 Q157.491 1613.9 157.491 1622.65 Q157.491 1631.38 154.413 1635.98 Q151.357 1640.57 145.547 1640.57 Q139.737 1640.57 136.658 1635.98 Q133.603 1631.38 133.603 1622.65 Q133.603 1613.9 136.658 1609.32 Q139.737 1604.71 145.547 1604.71 Z" fill="#000000" fill-rule="evenodd" fill-opacity="1" /><path clip-path="url(#clip920)" d="M166.519 1635.96 L174.158 1635.96 L174.158 1609.6 L165.848 1611.26 L165.848 1607 L174.112 1605.34 L178.788 1605.34 L178.788 1635.96 L186.426 1635.96 L186.426 1639.9 L166.519 1639.9 L166.519 1635.96 Z" fill="#000000" fill-rule="evenodd" fill-opacity="1" /><path clip-path="url(#clip920)" d="M199.899 1635.96 L216.218 1635.96 L216.218 1639.9 L194.274 1639.9 L194.274 1635.96 Q196.936 1633.21 201.519 1628.58 Q206.125 1623.92 207.306 1622.58 Q209.551 1620.06 210.431 1618.32 Q211.334 1616.56 211.334 1614.87 Q211.334 1612.12 209.389 1610.38 Q207.468 1608.65 204.366 1608.65 Q202.167 1608.65 199.713 1609.41 Q197.283 1610.17 194.505 1611.73 L194.505 1607 Q197.329 1605.87 199.783 1605.29 Q202.236 1604.71 204.274 1604.71 Q209.644 1604.71 212.838 1607.4 Q216.033 1610.08 216.033 1614.57 Q216.033 1616.7 215.223 1618.62 Q214.436 1620.52 212.329 1623.11 Q211.75 1623.79 208.648 1627 Q205.547 1630.2 199.899 1635.96 Z" fill="#000000" fill-rule="evenodd" fill-opacity="1" /><path clip-path="url(#clip920)" d="M226.079 1605.34 L244.435 1605.34 L244.435 1609.27 L230.361 1609.27 L230.361 1617.74 Q231.38 1617.4 232.398 1617.23 Q233.417 1617.05 234.435 1617.05 Q240.222 1617.05 243.602 1620.22 Q246.982 1623.39 246.982 1628.81 Q246.982 1634.39 243.509 1637.49 Q240.037 1640.57 233.718 1640.57 Q231.542 1640.57 229.273 1640.2 Q227.028 1639.83 224.621 1639.09 L224.621 1634.39 Q226.704 1635.52 228.926 1636.08 Q231.148 1636.63 233.625 1636.63 Q237.63 1636.63 239.968 1634.53 Q242.306 1632.42 242.306 1628.81 Q242.306 1625.2 239.968 1623.09 Q237.63 1620.98 233.625 1620.98 Q231.75 1620.98 229.875 1621.4 Q228.023 1621.82 226.079 1622.7 L226.079 1605.34 Z" fill="#000000" fill-rule="evenodd" fill-opacity="1" /><path clip-path="url(#clip920)" d="M49.5521 1387.3 L79.2279 1387.3 L79.2279 1391.24 L49.5521 1391.24 L49.5521 1387.3 Z" fill="#000000" fill-rule="evenodd" fill-opacity="1" /><path clip-path="url(#clip920)" d="M99.3204 1372.65 Q95.7093 1372.65 93.8806 1376.21 Q92.075 1379.75 92.075 1386.88 Q92.075 1393.99 93.8806 1397.56 Q95.7093 1401.1 99.3204 1401.1 Q102.955 1401.1 104.76 1397.56 Q106.589 1393.99 106.589 1386.88 Q106.589 1379.75 104.76 1376.21 Q102.955 1372.65 99.3204 1372.65 M99.3204 1368.94 Q105.131 1368.94 108.186 1373.55 Q111.265 1378.13 111.265 1386.88 Q111.265 1395.61 108.186 1400.22 Q105.131 1404.8 99.3204 1404.8 Q93.5102 1404.8 90.4315 1400.22 Q87.376 1395.61 87.376 1386.88 Q87.376 1378.13 90.4315 1373.55 Q93.5102 1368.94 99.3204 1368.94 Z" fill="#000000" fill-rule="evenodd" fill-opacity="1" /><path clip-path="url(#clip920)" d="M119.482 1398.25 L124.367 1398.25 L124.367 1404.13 L119.482 1404.13 L119.482 1398.25 Z" fill="#000000" fill-rule="evenodd" fill-opacity="1" /><path clip-path="url(#clip920)" d="M144.552 1372.65 Q140.941 1372.65 139.112 1376.21 Q137.306 1379.75 137.306 1386.88 Q137.306 1393.99 139.112 1397.56 Q140.941 1401.1 144.552 1401.1 Q148.186 1401.1 149.991 1397.56 Q151.82 1393.99 151.82 1386.88 Q151.82 1379.75 149.991 1376.21 Q148.186 1372.65 144.552 1372.65 M144.552 1368.94 Q150.362 1368.94 153.417 1373.55 Q156.496 1378.13 156.496 1386.88 Q156.496 1395.61 153.417 1400.22 Q150.362 1404.8 144.552 1404.8 Q138.741 1404.8 135.663 1400.22 Q132.607 1395.61 132.607 1386.88 Q132.607 1378.13 135.663 1373.55 Q138.741 1368.94 144.552 1368.94 Z" fill="#000000" fill-rule="evenodd" fill-opacity="1" /><path clip-path="url(#clip920)" d="M165.524 1400.19 L173.163 1400.19 L173.163 1373.83 L164.852 1375.5 L164.852 1371.24 L173.116 1369.57 L177.792 1369.57 L177.792 1400.19 L185.431 1400.19 L185.431 1404.13 L165.524 1404.13 L165.524 1400.19 Z" fill="#000000" fill-rule="evenodd" fill-opacity="1" /><path clip-path="url(#clip920)" d="M204.875 1372.65 Q201.264 1372.65 199.436 1376.21 Q197.63 1379.75 197.63 1386.88 Q197.63 1393.99 199.436 1397.56 Q201.264 1401.1 204.875 1401.1 Q208.51 1401.1 210.315 1397.56 Q212.144 1393.99 212.144 1386.88 Q212.144 1379.75 210.315 1376.21 Q208.51 1372.65 204.875 1372.65 M204.875 1368.94 Q210.686 1368.94 213.741 1373.55 Q216.82 1378.13 216.82 1386.88 Q216.82 1395.61 213.741 1400.22 Q210.686 1404.8 204.875 1404.8 Q199.065 1404.8 195.987 1400.22 Q192.931 1395.61 192.931 1386.88 Q192.931 1378.13 195.987 1373.55 Q199.065 1368.94 204.875 1368.94 Z" fill="#000000" fill-rule="evenodd" fill-opacity="1" /><path clip-path="url(#clip920)" d="M235.037 1372.65 Q231.426 1372.65 229.597 1376.21 Q227.792 1379.75 227.792 1386.88 Q227.792 1393.99 229.597 1397.56 Q231.426 1401.1 235.037 1401.1 Q238.671 1401.1 240.477 1397.56 Q242.306 1393.99 242.306 1386.88 Q242.306 1379.75 240.477 1376.21 Q238.671 1372.65 235.037 1372.65 M235.037 1368.94 Q240.847 1368.94 243.903 1373.55 Q246.982 1378.13 246.982 1386.88 Q246.982 1395.61 243.903 1400.22 Q240.847 1404.8 235.037 1404.8 Q229.227 1404.8 226.148 1400.22 Q223.093 1395.61 223.093 1386.88 Q223.093 1378.13 226.148 1373.55 Q229.227 1368.94 235.037 1368.94 Z" fill="#000000" fill-rule="evenodd" fill-opacity="1" /><path clip-path="url(#clip920)" d="M50.5475 1151.53 L80.2233 1151.53 L80.2233 1155.47 L50.5475 1155.47 L50.5475 1151.53 Z" fill="#000000" fill-rule="evenodd" fill-opacity="1" /><path clip-path="url(#clip920)" d="M100.316 1136.88 Q96.7047 1136.88 94.876 1140.45 Q93.0704 1143.99 93.0704 1151.12 Q93.0704 1158.22 94.876 1161.79 Q96.7047 1165.33 100.316 1165.33 Q103.95 1165.33 105.756 1161.79 Q107.584 1158.22 107.584 1151.12 Q107.584 1143.99 105.756 1140.45 Q103.95 1136.88 100.316 1136.88 M100.316 1133.18 Q106.126 1133.18 109.181 1137.78 Q112.26 1142.37 112.26 1151.12 Q112.26 1159.84 109.181 1164.45 Q106.126 1169.03 100.316 1169.03 Q94.5056 1169.03 91.4269 1164.45 Q88.3714 1159.84 88.3714 1151.12 Q88.3714 1142.37 91.4269 1137.78 Q94.5056 1133.18 100.316 1133.18 Z" fill="#000000" fill-rule="evenodd" fill-opacity="1" /><path clip-path="url(#clip920)" d="M120.478 1162.48 L125.362 1162.48 L125.362 1168.36 L120.478 1168.36 L120.478 1162.48 Z" fill="#000000" fill-rule="evenodd" fill-opacity="1" /><path clip-path="url(#clip920)" d="M145.547 1136.88 Q141.936 1136.88 140.107 1140.45 Q138.302 1143.99 138.302 1151.12 Q138.302 1158.22 140.107 1161.79 Q141.936 1165.33 145.547 1165.33 Q149.181 1165.33 150.987 1161.79 Q152.815 1158.22 152.815 1151.12 Q152.815 1143.99 150.987 1140.45 Q149.181 1136.88 145.547 1136.88 M145.547 1133.18 Q151.357 1133.18 154.413 1137.78 Q157.491 1142.37 157.491 1151.12 Q157.491 1159.84 154.413 1164.45 Q151.357 1169.03 145.547 1169.03 Q139.737 1169.03 136.658 1164.45 Q133.603 1159.84 133.603 1151.12 Q133.603 1142.37 136.658 1137.78 Q139.737 1133.18 145.547 1133.18 Z" fill="#000000" fill-rule="evenodd" fill-opacity="1" /><path clip-path="url(#clip920)" d="M175.709 1136.88 Q172.098 1136.88 170.269 1140.45 Q168.464 1143.99 168.464 1151.12 Q168.464 1158.22 170.269 1161.79 Q172.098 1165.33 175.709 1165.33 Q179.343 1165.33 181.149 1161.79 Q182.977 1158.22 182.977 1151.12 Q182.977 1143.99 181.149 1140.45 Q179.343 1136.88 175.709 1136.88 M175.709 1133.18 Q181.519 1133.18 184.575 1137.78 Q187.653 1142.37 187.653 1151.12 Q187.653 1159.84 184.575 1164.45 Q181.519 1169.03 175.709 1169.03 Q169.899 1169.03 166.82 1164.45 Q163.764 1159.84 163.764 1151.12 Q163.764 1142.37 166.82 1137.78 Q169.899 1133.18 175.709 1133.18 Z" fill="#000000" fill-rule="evenodd" fill-opacity="1" /><path clip-path="url(#clip920)" d="M194.69 1133.8 L216.912 1133.8 L216.912 1135.79 L204.366 1168.36 L199.482 1168.36 L211.287 1137.74 L194.69 1137.74 L194.69 1133.8 Z" fill="#000000" fill-rule="evenodd" fill-opacity="1" /><path clip-path="url(#clip920)" d="M226.079 1133.8 L244.435 1133.8 L244.435 1137.74 L230.361 1137.74 L230.361 1146.21 Q231.38 1145.86 232.398 1145.7 Q233.417 1145.52 234.435 1145.52 Q240.222 1145.52 243.602 1148.69 Q246.982 1151.86 246.982 1157.28 Q246.982 1162.85 243.509 1165.96 Q240.037 1169.03 233.718 1169.03 Q231.542 1169.03 229.273 1168.66 Q227.028 1168.29 224.621 1167.55 L224.621 1162.85 Q226.704 1163.99 228.926 1164.54 Q231.148 1165.1 233.625 1165.1 Q237.63 1165.1 239.968 1162.99 Q242.306 1160.89 242.306 1157.28 Q242.306 1153.66 239.968 1151.56 Q237.63 1149.45 233.625 1149.45 Q231.75 1149.45 229.875 1149.87 Q228.023 1150.28 226.079 1151.16 L226.079 1133.8 Z" fill="#000000" fill-rule="evenodd" fill-opacity="1" /><path clip-path="url(#clip920)" d="M49.5521 915.768 L79.2279 915.768 L79.2279 919.703 L49.5521 919.703 L49.5521 915.768 Z" fill="#000000" fill-rule="evenodd" fill-opacity="1" /><path clip-path="url(#clip920)" d="M99.3204 901.115 Q95.7093 901.115 93.8806 904.68 Q92.075 908.222 92.075 915.351 Q92.075 922.458 93.8806 926.022 Q95.7093 929.564 99.3204 929.564 Q102.955 929.564 104.76 926.022 Q106.589 922.458 106.589 915.351 Q106.589 908.222 104.76 904.68 Q102.955 901.115 99.3204 901.115 M99.3204 897.411 Q105.131 897.411 108.186 902.018 Q111.265 906.601 111.265 915.351 Q111.265 924.078 108.186 928.684 Q105.131 933.268 99.3204 933.268 Q93.5102 933.268 90.4315 928.684 Q87.376 924.078 87.376 915.351 Q87.376 906.601 90.4315 902.018 Q93.5102 897.411 99.3204 897.411 Z" fill="#000000" fill-rule="evenodd" fill-opacity="1" /><path clip-path="url(#clip920)" d="M119.482 926.717 L124.367 926.717 L124.367 932.596 L119.482 932.596 L119.482 926.717 Z" fill="#000000" fill-rule="evenodd" fill-opacity="1" /><path clip-path="url(#clip920)" d="M144.552 901.115 Q140.941 901.115 139.112 904.68 Q137.306 908.222 137.306 915.351 Q137.306 922.458 139.112 926.022 Q140.941 929.564 144.552 929.564 Q148.186 929.564 149.991 926.022 Q151.82 922.458 151.82 915.351 Q151.82 908.222 149.991 904.68 Q148.186 901.115 144.552 901.115 M144.552 897.411 Q150.362 897.411 153.417 902.018 Q156.496 906.601 156.496 915.351 Q156.496 924.078 153.417 928.684 Q150.362 933.268 144.552 933.268 Q138.741 933.268 135.663 928.684 Q132.607 924.078 132.607 915.351 Q132.607 906.601 135.663 902.018 Q138.741 897.411 144.552 897.411 Z" fill="#000000" fill-rule="evenodd" fill-opacity="1" /><path clip-path="url(#clip920)" d="M174.713 901.115 Q171.102 901.115 169.274 904.68 Q167.468 908.222 167.468 915.351 Q167.468 922.458 169.274 926.022 Q171.102 929.564 174.713 929.564 Q178.348 929.564 180.153 926.022 Q181.982 922.458 181.982 915.351 Q181.982 908.222 180.153 904.68 Q178.348 901.115 174.713 901.115 M174.713 897.411 Q180.524 897.411 183.579 902.018 Q186.658 906.601 186.658 915.351 Q186.658 924.078 183.579 928.684 Q180.524 933.268 174.713 933.268 Q168.903 933.268 165.825 928.684 Q162.769 924.078 162.769 915.351 Q162.769 906.601 165.825 902.018 Q168.903 897.411 174.713 897.411 Z" fill="#000000" fill-rule="evenodd" fill-opacity="1" /><path clip-path="url(#clip920)" d="M194.922 898.036 L213.278 898.036 L213.278 901.972 L199.204 901.972 L199.204 910.444 Q200.223 910.097 201.241 909.934 Q202.26 909.749 203.278 909.749 Q209.065 909.749 212.445 912.921 Q215.824 916.092 215.824 921.509 Q215.824 927.087 212.352 930.189 Q208.88 933.268 202.561 933.268 Q200.385 933.268 198.116 932.897 Q195.871 932.527 193.463 931.786 L193.463 927.087 Q195.547 928.221 197.769 928.777 Q199.991 929.333 202.468 929.333 Q206.473 929.333 208.811 927.226 Q211.148 925.12 211.148 921.509 Q211.148 917.897 208.811 915.791 Q206.473 913.684 202.468 913.684 Q200.593 913.684 198.718 914.101 Q196.866 914.518 194.922 915.397 L194.922 898.036 Z" fill="#000000" fill-rule="evenodd" fill-opacity="1" /><path clip-path="url(#clip920)" d="M235.037 901.115 Q231.426 901.115 229.597 904.68 Q227.792 908.222 227.792 915.351 Q227.792 922.458 229.597 926.022 Q231.426 929.564 235.037 929.564 Q238.671 929.564 240.477 926.022 Q242.306 922.458 242.306 915.351 Q242.306 908.222 240.477 904.68 Q238.671 901.115 235.037 901.115 M235.037 897.411 Q240.847 897.411 243.903 902.018 Q246.982 906.601 246.982 915.351 Q246.982 924.078 243.903 928.684 Q240.847 933.268 235.037 933.268 Q229.227 933.268 226.148 928.684 Q223.093 924.078 223.093 915.351 Q223.093 906.601 226.148 902.018 Q229.227 897.411 235.037 897.411 Z" fill="#000000" fill-rule="evenodd" fill-opacity="1" /><path clip-path="url(#clip920)" d="M50.5475 680.001 L80.2233 680.001 L80.2233 683.936 L50.5475 683.936 L50.5475 680.001 Z" fill="#000000" fill-rule="evenodd" fill-opacity="1" /><path clip-path="url(#clip920)" d="M100.316 665.348 Q96.7047 665.348 94.876 668.913 Q93.0704 672.455 93.0704 679.585 Q93.0704 686.691 94.876 690.256 Q96.7047 693.797 100.316 693.797 Q103.95 693.797 105.756 690.256 Q107.584 686.691 107.584 679.585 Q107.584 672.455 105.756 668.913 Q103.95 665.348 100.316 665.348 M100.316 661.645 Q106.126 661.645 109.181 666.251 Q112.26 670.835 112.26 679.585 Q112.26 688.311 109.181 692.918 Q106.126 697.501 100.316 697.501 Q94.5056 697.501 91.4269 692.918 Q88.3714 688.311 88.3714 679.585 Q88.3714 670.835 91.4269 666.251 Q94.5056 661.645 100.316 661.645 Z" fill="#000000" fill-rule="evenodd" fill-opacity="1" /><path clip-path="url(#clip920)" d="M120.478 690.95 L125.362 690.95 L125.362 696.83 L120.478 696.83 L120.478 690.95 Z" fill="#000000" fill-rule="evenodd" fill-opacity="1" /><path clip-path="url(#clip920)" d="M145.547 665.348 Q141.936 665.348 140.107 668.913 Q138.302 672.455 138.302 679.585 Q138.302 686.691 140.107 690.256 Q141.936 693.797 145.547 693.797 Q149.181 693.797 150.987 690.256 Q152.815 686.691 152.815 679.585 Q152.815 672.455 150.987 668.913 Q149.181 665.348 145.547 665.348 M145.547 661.645 Q151.357 661.645 154.413 666.251 Q157.491 670.835 157.491 679.585 Q157.491 688.311 154.413 692.918 Q151.357 697.501 145.547 697.501 Q139.737 697.501 136.658 692.918 Q133.603 688.311 133.603 679.585 Q133.603 670.835 136.658 666.251 Q139.737 661.645 145.547 661.645 Z" fill="#000000" fill-rule="evenodd" fill-opacity="1" /><path clip-path="url(#clip920)" d="M175.709 665.348 Q172.098 665.348 170.269 668.913 Q168.464 672.455 168.464 679.585 Q168.464 686.691 170.269 690.256 Q172.098 693.797 175.709 693.797 Q179.343 693.797 181.149 690.256 Q182.977 686.691 182.977 679.585 Q182.977 672.455 181.149 668.913 Q179.343 665.348 175.709 665.348 M175.709 661.645 Q181.519 661.645 184.575 666.251 Q187.653 670.835 187.653 679.585 Q187.653 688.311 184.575 692.918 Q181.519 697.501 175.709 697.501 Q169.899 697.501 166.82 692.918 Q163.764 688.311 163.764 679.585 Q163.764 670.835 166.82 666.251 Q169.899 661.645 175.709 661.645 Z" fill="#000000" fill-rule="evenodd" fill-opacity="1" /><path clip-path="url(#clip920)" d="M199.899 692.895 L216.218 692.895 L216.218 696.83 L194.274 696.83 L194.274 692.895 Q196.936 690.14 201.519 685.51 Q206.125 680.858 207.306 679.515 Q209.551 676.992 210.431 675.256 Q211.334 673.497 211.334 671.807 Q211.334 669.052 209.389 667.316 Q207.468 665.58 204.366 665.58 Q202.167 665.58 199.713 666.344 Q197.283 667.108 194.505 668.659 L194.505 663.936 Q197.329 662.802 199.783 662.223 Q202.236 661.645 204.274 661.645 Q209.644 661.645 212.838 664.33 Q216.033 667.015 216.033 671.506 Q216.033 673.635 215.223 675.557 Q214.436 677.455 212.329 680.047 Q211.75 680.719 208.648 683.936 Q205.547 687.131 199.899 692.895 Z" fill="#000000" fill-rule="evenodd" fill-opacity="1" /><path clip-path="url(#clip920)" d="M226.079 662.27 L244.435 662.27 L244.435 666.205 L230.361 666.205 L230.361 674.677 Q231.38 674.33 232.398 674.168 Q233.417 673.983 234.435 673.983 Q240.222 673.983 243.602 677.154 Q246.982 680.325 246.982 685.742 Q246.982 691.321 243.509 694.422 Q240.037 697.501 233.718 697.501 Q231.542 697.501 229.273 697.131 Q227.028 696.76 224.621 696.02 L224.621 691.321 Q226.704 692.455 228.926 693.01 Q231.148 693.566 233.625 693.566 Q237.63 693.566 239.968 691.459 Q242.306 689.353 242.306 685.742 Q242.306 682.131 239.968 680.024 Q237.63 677.918 233.625 677.918 Q231.75 677.918 229.875 678.335 Q228.023 678.751 226.079 679.631 L226.079 662.27 Z" fill="#000000" fill-rule="evenodd" fill-opacity="1" /><path clip-path="url(#clip920)" d="M99.3204 429.582 Q95.7093 429.582 93.8806 433.147 Q92.075 436.688 92.075 443.818 Q92.075 450.924 93.8806 454.489 Q95.7093 458.031 99.3204 458.031 Q102.955 458.031 104.76 454.489 Q106.589 450.924 106.589 443.818 Q106.589 436.688 104.76 433.147 Q102.955 429.582 99.3204 429.582 M99.3204 425.878 Q105.131 425.878 108.186 430.485 Q111.265 435.068 111.265 443.818 Q111.265 452.545 108.186 457.151 Q105.131 461.734 99.3204 461.734 Q93.5102 461.734 90.4315 457.151 Q87.376 452.545 87.376 443.818 Q87.376 435.068 90.4315 430.485 Q93.5102 425.878 99.3204 425.878 Z" fill="#000000" fill-rule="evenodd" fill-opacity="1" /><path clip-path="url(#clip920)" d="M119.482 455.184 L124.367 455.184 L124.367 461.063 L119.482 461.063 L119.482 455.184 Z" fill="#000000" fill-rule="evenodd" fill-opacity="1" /><path clip-path="url(#clip920)" d="M144.552 429.582 Q140.941 429.582 139.112 433.147 Q137.306 436.688 137.306 443.818 Q137.306 450.924 139.112 454.489 Q140.941 458.031 144.552 458.031 Q148.186 458.031 149.991 454.489 Q151.82 450.924 151.82 443.818 Q151.82 436.688 149.991 433.147 Q148.186 429.582 144.552 429.582 M144.552 425.878 Q150.362 425.878 153.417 430.485 Q156.496 435.068 156.496 443.818 Q156.496 452.545 153.417 457.151 Q150.362 461.734 144.552 461.734 Q138.741 461.734 135.663 457.151 Q132.607 452.545 132.607 443.818 Q132.607 435.068 135.663 430.485 Q138.741 425.878 144.552 425.878 Z" fill="#000000" fill-rule="evenodd" fill-opacity="1" /><path clip-path="url(#clip920)" d="M174.713 429.582 Q171.102 429.582 169.274 433.147 Q167.468 436.688 167.468 443.818 Q167.468 450.924 169.274 454.489 Q171.102 458.031 174.713 458.031 Q178.348 458.031 180.153 454.489 Q181.982 450.924 181.982 443.818 Q181.982 436.688 180.153 433.147 Q178.348 429.582 174.713 429.582 M174.713 425.878 Q180.524 425.878 183.579 430.485 Q186.658 435.068 186.658 443.818 Q186.658 452.545 183.579 457.151 Q180.524 461.734 174.713 461.734 Q168.903 461.734 165.825 457.151 Q162.769 452.545 162.769 443.818 Q162.769 435.068 165.825 430.485 Q168.903 425.878 174.713 425.878 Z" fill="#000000" fill-rule="evenodd" fill-opacity="1" /><path clip-path="url(#clip920)" d="M204.875 429.582 Q201.264 429.582 199.436 433.147 Q197.63 436.688 197.63 443.818 Q197.63 450.924 199.436 454.489 Q201.264 458.031 204.875 458.031 Q208.51 458.031 210.315 454.489 Q212.144 450.924 212.144 443.818 Q212.144 436.688 210.315 433.147 Q208.51 429.582 204.875 429.582 M204.875 425.878 Q210.686 425.878 213.741 430.485 Q216.82 435.068 216.82 443.818 Q216.82 452.545 213.741 457.151 Q210.686 461.734 204.875 461.734 Q199.065 461.734 195.987 457.151 Q192.931 452.545 192.931 443.818 Q192.931 435.068 195.987 430.485 Q199.065 425.878 204.875 425.878 Z" fill="#000000" fill-rule="evenodd" fill-opacity="1" /><path clip-path="url(#clip920)" d="M235.037 429.582 Q231.426 429.582 229.597 433.147 Q227.792 436.688 227.792 443.818 Q227.792 450.924 229.597 454.489 Q231.426 458.031 235.037 458.031 Q238.671 458.031 240.477 454.489 Q242.306 450.924 242.306 443.818 Q242.306 436.688 240.477 433.147 Q238.671 429.582 235.037 429.582 M235.037 425.878 Q240.847 425.878 243.903 430.485 Q246.982 435.068 246.982 443.818 Q246.982 452.545 243.903 457.151 Q240.847 461.734 235.037 461.734 Q229.227 461.734 226.148 457.151 Q223.093 452.545 223.093 443.818 Q223.093 435.068 226.148 430.485 Q229.227 425.878 235.037 425.878 Z" fill="#000000" fill-rule="evenodd" fill-opacity="1" /><path clip-path="url(#clip920)" d="M100.316 193.815 Q96.7047 193.815 94.876 197.38 Q93.0704 200.922 93.0704 208.051 Q93.0704 215.158 94.876 218.722 Q96.7047 222.264 100.316 222.264 Q103.95 222.264 105.756 218.722 Q107.584 215.158 107.584 208.051 Q107.584 200.922 105.756 197.38 Q103.95 193.815 100.316 193.815 M100.316 190.112 Q106.126 190.112 109.181 194.718 Q112.26 199.301 112.26 208.051 Q112.26 216.778 109.181 221.385 Q106.126 225.968 100.316 225.968 Q94.5056 225.968 91.4269 221.385 Q88.3714 216.778 88.3714 208.051 Q88.3714 199.301 91.4269 194.718 Q94.5056 190.112 100.316 190.112 Z" fill="#000000" fill-rule="evenodd" fill-opacity="1" /><path clip-path="url(#clip920)" d="M120.478 219.417 L125.362 219.417 L125.362 225.297 L120.478 225.297 L120.478 219.417 Z" fill="#000000" fill-rule="evenodd" fill-opacity="1" /><path clip-path="url(#clip920)" d="M145.547 193.815 Q141.936 193.815 140.107 197.38 Q138.302 200.922 138.302 208.051 Q138.302 215.158 140.107 218.722 Q141.936 222.264 145.547 222.264 Q149.181 222.264 150.987 218.722 Q152.815 215.158 152.815 208.051 Q152.815 200.922 150.987 197.38 Q149.181 193.815 145.547 193.815 M145.547 190.112 Q151.357 190.112 154.413 194.718 Q157.491 199.301 157.491 208.051 Q157.491 216.778 154.413 221.385 Q151.357 225.968 145.547 225.968 Q139.737 225.968 136.658 221.385 Q133.603 216.778 133.603 208.051 Q133.603 199.301 136.658 194.718 Q139.737 190.112 145.547 190.112 Z" fill="#000000" fill-rule="evenodd" fill-opacity="1" /><path clip-path="url(#clip920)" d="M175.709 193.815 Q172.098 193.815 170.269 197.38 Q168.464 200.922 168.464 208.051 Q168.464 215.158 170.269 218.722 Q172.098 222.264 175.709 222.264 Q179.343 222.264 181.149 218.722 Q182.977 215.158 182.977 208.051 Q182.977 200.922 181.149 197.38 Q179.343 193.815 175.709 193.815 M175.709 190.112 Q181.519 190.112 184.575 194.718 Q187.653 199.301 187.653 208.051 Q187.653 216.778 184.575 221.385 Q181.519 225.968 175.709 225.968 Q169.899 225.968 166.82 221.385 Q163.764 216.778 163.764 208.051 Q163.764 199.301 166.82 194.718 Q169.899 190.112 175.709 190.112 Z" fill="#000000" fill-rule="evenodd" fill-opacity="1" /><path clip-path="url(#clip920)" d="M199.899 221.361 L216.218 221.361 L216.218 225.297 L194.274 225.297 L194.274 221.361 Q196.936 218.607 201.519 213.977 Q206.125 209.324 207.306 207.982 Q209.551 205.459 210.431 203.723 Q211.334 201.963 211.334 200.274 Q211.334 197.519 209.389 195.783 Q207.468 194.047 204.366 194.047 Q202.167 194.047 199.713 194.811 Q197.283 195.574 194.505 197.125 L194.505 192.403 Q197.329 191.269 199.783 190.69 Q202.236 190.112 204.274 190.112 Q209.644 190.112 212.838 192.797 Q216.033 195.482 216.033 199.973 Q216.033 202.102 215.223 204.023 Q214.436 205.922 212.329 208.514 Q211.75 209.185 208.648 212.403 Q205.547 215.597 199.899 221.361 Z" fill="#000000" fill-rule="evenodd" fill-opacity="1" /><path clip-path="url(#clip920)" d="M226.079 190.737 L244.435 190.737 L244.435 194.672 L230.361 194.672 L230.361 203.144 Q231.38 202.797 232.398 202.635 Q233.417 202.449 234.435 202.449 Q240.222 202.449 243.602 205.621 Q246.982 208.792 246.982 214.209 Q246.982 219.787 243.509 222.889 Q240.037 225.968 233.718 225.968 Q231.542 225.968 229.273 225.597 Q227.028 225.227 224.621 224.486 L224.621 219.787 Q226.704 220.922 228.926 221.477 Q231.148 222.033 233.625 222.033 Q237.63 222.033 239.968 219.926 Q242.306 217.82 242.306 214.209 Q242.306 210.598 239.968 208.491 Q237.63 206.385 233.625 206.385 Q231.75 206.385 229.875 206.801 Q228.023 207.218 226.079 208.098 L226.079 190.737 Z" fill="#000000" fill-rule="evenodd" fill-opacity="1" /><polyline clip-path="url(#clip922)" style="stroke:#009af9; stroke-linecap:round; stroke-linejoin:round; stroke-width:4; stroke-opacity:1; fill:none" points="
  353.909,1751.15 357.523,1725.43 361.136,1700.25 364.75,1675.58 368.364,1651.42 376.717,1597.42 385.071,1545.88 393.425,1496.66 401.778,1449.62 410.132,1404.63 
  418.485,1361.58 426.839,1320.36 435.192,1280.87 443.546,1243.01 451.899,1206.69 460.253,1171.84 468.607,1138.38 476.96,1106.23 485.314,1075.33 493.667,1045.62 
  502.021,1017.03 512.061,984.09 522.101,952.61 532.142,922.507 542.182,893.705 552.222,866.133 562.263,839.722 572.303,814.412 582.343,790.144 599.321,751.327 
  616.299,715.094 633.277,681.232 650.255,649.545 668.698,617.389 687.14,587.395 705.583,559.384 724.026,533.195 741.028,510.539 758.031,489.205 775.033,469.098 
  792.036,450.134 810.265,430.981 828.493,412.961 846.722,395.996 864.95,380.009 907.189,346.369 949.429,316.908 986.966,293.748 1024.5,273.06 1057.42,256.716 
  1090.34,241.868 1126.22,227.204 1162.11,213.963 1198.21,201.927 1234.32,191.044 1314.14,170.505 1390.1,154.723 1469.08,141.444 1535.56,132.297 1616.72,123.202 
  1691.08,116.535 1759.75,111.556 1829.31,107.49 1907.27,103.921 1977.91,101.455 2058.79,99.3872 2133.68,98.0835 2207.51,97.2865 2279.2,96.9099 2352.68,96.8724 
  2433.2,97.1783 2550.15,98.1596 2574.15,98.4283 
  "/>
<path clip-path="url(#clip920)" d="
M2248.38 209.375 L2562.31 209.375 L2562.31 105.695 L2248.38 105.695  Z
  " fill="#ffffff" fill-rule="evenodd" fill-opacity="1"/>
<polyline clip-path="url(#clip920)" style="stroke:#000000; stroke-linecap:round; stroke-linejoin:round; stroke-width:4; stroke-opacity:1; fill:none" points="
  2248.38,209.375 2562.31,209.375 2562.31,105.695 2248.38,105.695 2248.38,209.375 
  "/>
<polyline clip-path="url(#clip920)" style="stroke:#009af9; stroke-linecap:round; stroke-linejoin:round; stroke-width:4; stroke-opacity:1; fill:none" points="
  2274.53,157.535 2431.43,157.535 
  "/>
<path clip-path="url(#clip920)" d="M2471.42 177.223 Q2469.62 181.852 2467.9 183.264 Q2466.19 184.676 2463.32 184.676 L2459.92 184.676 L2459.92 181.112 L2462.42 181.112 Q2464.18 181.112 2465.15 180.278 Q2466.12 179.445 2467.3 176.343 L2468.06 174.399 L2457.58 148.889 L2462.09 148.889 L2470.19 169.167 L2478.3 148.889 L2482.81 148.889 L2471.42 177.223 Z" fill="#000000" fill-rule="evenodd" fill-opacity="1" /><path clip-path="url(#clip920)" d="M2490.1 170.88 L2497.74 170.88 L2497.74 144.515 L2489.43 146.181 L2489.43 141.922 L2497.69 140.255 L2502.37 140.255 L2502.37 170.88 L2510.01 170.88 L2510.01 174.815 L2490.1 174.815 L2490.1 170.88 Z" fill="#000000" fill-rule="evenodd" fill-opacity="1" /></svg>
