<?xml version="1.0" encoding="utf-8"?>
<svg xmlns="http://www.w3.org/2000/svg" xmlns:xlink="http://www.w3.org/1999/xlink" width="672" height="480" viewBox="0 0 2688 1920">
<defs>
  <clipPath id="clip980">
    <rect x="0" y="0" width="2688" height="1920"/>
  </clipPath>
</defs>
<path clip-path="url(#clip980)" d="
M0 1920 L2688 1920 L2688 0 L0 0  Z
  " fill="#ffffff" fill-rule="evenodd" fill-opacity="1"/>
<defs>
  <clipPath id="clip981">
    <rect x="537" y="0" width="1883" height="1883"/>
  </clipPath>
</defs>
<path clip-path="url(#clip980)" d="
M181.747 1800.78 L2640.76 1800.78 L2640.76 47.2441 L181.747 47.2441  Z
  " fill="#ffffff" fill-rule="evenodd" fill-opacity="1"/>
<defs>
  <clipPath id="clip982">
    <rect x="181" y="47" width="2460" height="1755"/>
  </clipPath>
</defs>
<polyline clip-path="url(#clip982)" style="stroke:#000000; stroke-linecap:butt; stroke-linejoin:round; stroke-width:2; stroke-opacity:0.1; fill:none" points="
  483.323,1800.78 483.323,47.2441 
  "/>
<polyline clip-path="url(#clip982)" style="stroke:#000000; stroke-linecap:butt; stroke-linejoin:round; stroke-width:2; stroke-opacity:0.1; fill:none" points="
  947.287,1800.78 947.287,47.2441 
  "/>
<polyline clip-path="url(#clip982)" style="stroke:#000000; stroke-linecap:butt; stroke-linejoin:round; stroke-width:2; stroke-opacity:0.1; fill:none" points="
  1411.25,1800.78 1411.25,47.2441 
  "/>
<polyline clip-path="url(#clip982)" style="stroke:#000000; stroke-linecap:butt; stroke-linejoin:round; stroke-width:2; stroke-opacity:0.1; fill:none" points="
  1875.22,1800.78 1875.22,47.2441 
  "/>
<polyline clip-path="url(#clip982)" style="stroke:#000000; stroke-linecap:butt; stroke-linejoin:round; stroke-width:2; stroke-opacity:0.1; fill:none" points="
  2339.18,1800.78 2339.18,47.2441 
  "/>
<polyline clip-path="url(#clip980)" style="stroke:#000000; stroke-linecap:butt; stroke-linejoin:round; stroke-width:4; stroke-opacity:1; fill:none" points="
  181.747,1800.78 2640.76,1800.78 
  "/>
<polyline clip-path="url(#clip980)" style="stroke:#000000; stroke-linecap:butt; stroke-linejoin:round; stroke-width:4; stroke-opacity:1; fill:none" points="
  483.323,1800.78 483.323,1781.88 
  "/>
<polyline clip-path="url(#clip980)" style="stroke:#000000; stroke-linecap:butt; stroke-linejoin:round; stroke-width:4; stroke-opacity:1; fill:none" points="
  947.287,1800.78 947.287,1781.88 
  "/>
<polyline clip-path="url(#clip980)" style="stroke:#000000; stroke-linecap:butt; stroke-linejoin:round; stroke-width:4; stroke-opacity:1; fill:none" points="
  1411.25,1800.78 1411.25,1781.88 
  "/>
<polyline clip-path="url(#clip980)" style="stroke:#000000; stroke-linecap:butt; stroke-linejoin:round; stroke-width:4; stroke-opacity:1; fill:none" points="
  1875.22,1800.78 1875.22,1781.88 
  "/>
<polyline clip-path="url(#clip980)" style="stroke:#000000; stroke-linecap:butt; stroke-linejoin:round; stroke-width:4; stroke-opacity:1; fill:none" points="
  2339.18,1800.78 2339.18,1781.88 
  "/>
<path clip-path="url(#clip980)" d="M452.224 1848.65 L481.9 1848.65 L481.9 1852.59 L452.224 1852.59 L452.224 1848.65 Z" fill="#000000" fill-rule="evenodd" fill-opacity="1" /><path clip-path="url(#clip980)" d="M504.839 1835 L493.034 1853.45 L504.839 1853.45 L504.839 1835 M503.612 1830.92 L509.492 1830.92 L509.492 1853.45 L514.423 1853.45 L514.423 1857.34 L509.492 1857.34 L509.492 1865.48 L504.839 1865.48 L504.839 1857.34 L489.238 1857.34 L489.238 1852.82 L503.612 1830.92 Z" fill="#000000" fill-rule="evenodd" fill-opacity="1" /><path clip-path="url(#clip980)" d="M917.23 1848.65 L946.905 1848.65 L946.905 1852.59 L917.23 1852.59 L917.23 1848.65 Z" fill="#000000" fill-rule="evenodd" fill-opacity="1" /><path clip-path="url(#clip980)" d="M961.026 1861.55 L977.345 1861.55 L977.345 1865.48 L955.401 1865.48 L955.401 1861.55 Q958.063 1858.79 962.646 1854.16 Q967.252 1849.51 968.433 1848.17 Q970.678 1845.65 971.558 1843.91 Q972.461 1842.15 972.461 1840.46 Q972.461 1837.71 970.516 1835.97 Q968.595 1834.23 965.493 1834.23 Q963.294 1834.23 960.84 1835 Q958.41 1835.76 955.632 1837.31 L955.632 1832.59 Q958.456 1831.46 960.91 1830.88 Q963.364 1830.3 965.401 1830.3 Q970.771 1830.3 973.965 1832.98 Q977.16 1835.67 977.16 1840.16 Q977.16 1842.29 976.35 1844.21 Q975.563 1846.11 973.456 1848.7 Q972.877 1849.37 969.776 1852.59 Q966.674 1855.78 961.026 1861.55 Z" fill="#000000" fill-rule="evenodd" fill-opacity="1" /><path clip-path="url(#clip980)" d="M1411.25 1834 Q1407.64 1834 1405.81 1837.57 Q1404.01 1841.11 1404.01 1848.24 Q1404.01 1855.34 1405.81 1858.91 Q1407.64 1862.45 1411.25 1862.45 Q1414.89 1862.45 1416.69 1858.91 Q1418.52 1855.34 1418.52 1848.24 Q1418.52 1841.11 1416.69 1837.57 Q1414.89 1834 1411.25 1834 M1411.25 1830.3 Q1417.06 1830.3 1420.12 1834.9 Q1423.2 1839.49 1423.2 1848.24 Q1423.2 1856.96 1420.12 1861.57 Q1417.06 1866.15 1411.25 1866.15 Q1405.44 1866.15 1402.36 1861.57 Q1399.31 1856.96 1399.31 1848.24 Q1399.31 1839.49 1402.36 1834.9 Q1405.44 1830.3 1411.25 1830.3 Z" fill="#000000" fill-rule="evenodd" fill-opacity="1" /><path clip-path="url(#clip980)" d="M1869.87 1861.55 L1886.19 1861.55 L1886.19 1865.48 L1864.24 1865.48 L1864.24 1861.55 Q1866.91 1858.79 1871.49 1854.16 Q1876.09 1849.51 1877.28 1848.17 Q1879.52 1845.65 1880.4 1843.91 Q1881.3 1842.15 1881.3 1840.46 Q1881.3 1837.71 1879.36 1835.97 Q1877.44 1834.23 1874.34 1834.23 Q1872.14 1834.23 1869.68 1835 Q1867.25 1835.76 1864.47 1837.31 L1864.47 1832.59 Q1867.3 1831.46 1869.75 1830.88 Q1872.21 1830.3 1874.24 1830.3 Q1879.61 1830.3 1882.81 1832.98 Q1886 1835.67 1886 1840.16 Q1886 1842.29 1885.19 1844.21 Q1884.41 1846.11 1882.3 1848.7 Q1881.72 1849.37 1878.62 1852.59 Q1875.52 1855.78 1869.87 1861.55 Z" fill="#000000" fill-rule="evenodd" fill-opacity="1" /><path clip-path="url(#clip980)" d="M2342.19 1835 L2330.38 1853.45 L2342.19 1853.45 L2342.19 1835 M2340.96 1830.92 L2346.84 1830.92 L2346.84 1853.45 L2351.77 1853.45 L2351.77 1857.34 L2346.84 1857.34 L2346.84 1865.48 L2342.19 1865.48 L2342.19 1857.34 L2326.59 1857.34 L2326.59 1852.82 L2340.96 1830.92 Z" fill="#000000" fill-rule="evenodd" fill-opacity="1" /><polyline clip-path="url(#clip982)" style="stroke:#000000; stroke-linecap:butt; stroke-linejoin:round; stroke-width:2; stroke-opacity:0.1; fill:none" points="
  181.747,1756.02 2640.76,1756.02 
  "/>
<polyline clip-path="url(#clip982)" style="stroke:#000000; stroke-linecap:butt; stroke-linejoin:round; stroke-width:2; stroke-opacity:0.1; fill:none" points="
  181.747,1341.02 2640.76,1341.02 
  "/>
<polyline clip-path="url(#clip982)" style="stroke:#000000; stroke-linecap:butt; stroke-linejoin:round; stroke-width:2; stroke-opacity:0.1; fill:none" points="
  181.747,926.014 2640.76,926.014 
  "/>
<polyline clip-path="url(#clip982)" style="stroke:#000000; stroke-linecap:butt; stroke-linejoin:round; stroke-width:2; stroke-opacity:0.1; fill:none" points="
  181.747,511.009 2640.76,511.009 
  "/>
<polyline clip-path="url(#clip982)" style="stroke:#000000; stroke-linecap:butt; stroke-linejoin:round; stroke-width:2; stroke-opacity:0.1; fill:none" points="
  181.747,96.0042 2640.76,96.0042 
  "/>
<polyline clip-path="url(#clip980)" style="stroke:#000000; stroke-linecap:butt; stroke-linejoin:round; stroke-width:4; stroke-opacity:1; fill:none" points="
  181.747,1800.78 181.747,47.2441 
  "/>
<polyline clip-path="url(#clip980)" style="stroke:#000000; stroke-linecap:butt; stroke-linejoin:round; stroke-width:4; stroke-opacity:1; fill:none" points="
  181.747,1756.02 200.644,1756.02 
  "/>
<polyline clip-path="url(#clip980)" style="stroke:#000000; stroke-linecap:butt; stroke-linejoin:round; stroke-width:4; stroke-opacity:1; fill:none" points="
  181.747,1341.02 200.644,1341.02 
  "/>
<polyline clip-path="url(#clip980)" style="stroke:#000000; stroke-linecap:butt; stroke-linejoin:round; stroke-width:4; stroke-opacity:1; fill:none" points="
  181.747,926.014 200.644,926.014 
  "/>
<polyline clip-path="url(#clip980)" style="stroke:#000000; stroke-linecap:butt; stroke-linejoin:round; stroke-width:4; stroke-opacity:1; fill:none" points="
  181.747,511.009 200.644,511.009 
  "/>
<polyline clip-path="url(#clip980)" style="stroke:#000000; stroke-linecap:butt; stroke-linejoin:round; stroke-width:4; stroke-opacity:1; fill:none" points="
  181.747,96.0042 200.644,96.0042 
  "/>
<path clip-path="url(#clip980)" d="M49.5521 1756.47 L79.2279 1756.47 L79.2279 1760.41 L49.5521 1760.41 L49.5521 1756.47 Z" fill="#000000" fill-rule="evenodd" fill-opacity="1" /><path clip-path="url(#clip980)" d="M93.3482 1769.37 L109.668 1769.37 L109.668 1773.3 L87.7232 1773.3 L87.7232 1769.37 Q90.3852 1766.61 94.9685 1761.98 Q99.575 1757.33 100.756 1755.99 Q103.001 1753.47 103.881 1751.73 Q104.783 1749.97 104.783 1748.28 Q104.783 1745.53 102.839 1743.79 Q100.918 1742.05 97.8158 1742.05 Q95.6167 1742.05 93.163 1742.82 Q90.7325 1743.58 87.9547 1745.13 L87.9547 1740.41 Q90.7788 1739.28 93.2324 1738.7 Q95.6861 1738.12 97.7232 1738.12 Q103.094 1738.12 106.288 1740.8 Q109.482 1743.49 109.482 1747.98 Q109.482 1750.11 108.672 1752.03 Q107.885 1753.93 105.779 1756.52 Q105.2 1757.19 102.098 1760.41 Q98.9963 1763.6 93.3482 1769.37 Z" fill="#000000" fill-rule="evenodd" fill-opacity="1" /><path clip-path="url(#clip980)" d="M129.482 1741.82 Q125.871 1741.82 124.042 1745.39 Q122.237 1748.93 122.237 1756.06 Q122.237 1763.16 124.042 1766.73 Q125.871 1770.27 129.482 1770.27 Q133.116 1770.27 134.922 1766.73 Q136.751 1763.16 136.751 1756.06 Q136.751 1748.93 134.922 1745.39 Q133.116 1741.82 129.482 1741.82 M129.482 1738.12 Q135.292 1738.12 138.348 1742.72 Q141.427 1747.31 141.427 1756.06 Q141.427 1764.78 138.348 1769.39 Q135.292 1773.97 129.482 1773.97 Q123.672 1773.97 120.593 1769.39 Q117.538 1764.78 117.538 1756.06 Q117.538 1747.31 120.593 1742.72 Q123.672 1738.12 129.482 1738.12 Z" fill="#000000" fill-rule="evenodd" fill-opacity="1" /><path clip-path="url(#clip980)" d="M49.5521 1341.47 L79.2279 1341.47 L79.2279 1345.4 L49.5521 1345.4 L49.5521 1341.47 Z" fill="#000000" fill-rule="evenodd" fill-opacity="1" /><path clip-path="url(#clip980)" d="M90.1306 1354.36 L97.7695 1354.36 L97.7695 1328 L89.4593 1329.66 L89.4593 1325.4 L97.7232 1323.74 L102.399 1323.74 L102.399 1354.36 L110.038 1354.36 L110.038 1358.3 L90.1306 1358.3 L90.1306 1354.36 Z" fill="#000000" fill-rule="evenodd" fill-opacity="1" /><path clip-path="url(#clip980)" d="M129.482 1326.82 Q125.871 1326.82 124.042 1330.38 Q122.237 1333.92 122.237 1341.05 Q122.237 1348.16 124.042 1351.72 Q125.871 1355.27 129.482 1355.27 Q133.116 1355.27 134.922 1351.72 Q136.751 1348.16 136.751 1341.05 Q136.751 1333.92 134.922 1330.38 Q133.116 1326.82 129.482 1326.82 M129.482 1323.11 Q135.292 1323.11 138.348 1327.72 Q141.427 1332.3 141.427 1341.05 Q141.427 1349.78 138.348 1354.39 Q135.292 1358.97 129.482 1358.97 Q123.672 1358.97 120.593 1354.39 Q117.538 1349.78 117.538 1341.05 Q117.538 1332.3 120.593 1327.72 Q123.672 1323.11 129.482 1323.11 Z" fill="#000000" fill-rule="evenodd" fill-opacity="1" /><path clip-path="url(#clip980)" d="M129.482 911.812 Q125.871 911.812 124.042 915.377 Q122.237 918.919 122.237 926.048 Q122.237 933.155 124.042 936.72 Q125.871 940.261 129.482 940.261 Q133.116 940.261 134.922 936.72 Q136.751 933.155 136.751 926.048 Q136.751 918.919 134.922 915.377 Q133.116 911.812 129.482 911.812 M129.482 908.109 Q135.292 908.109 138.348 912.715 Q141.427 917.298 141.427 926.048 Q141.427 934.775 138.348 939.382 Q135.292 943.965 129.482 943.965 Q123.672 943.965 120.593 939.382 Q117.538 934.775 117.538 926.048 Q117.538 917.298 120.593 912.715 Q123.672 908.109 129.482 908.109 Z" fill="#000000" fill-rule="evenodd" fill-opacity="1" /><path clip-path="url(#clip980)" d="M90.1306 524.354 L97.7695 524.354 L97.7695 497.988 L89.4593 499.655 L89.4593 495.396 L97.7232 493.729 L102.399 493.729 L102.399 524.354 L110.038 524.354 L110.038 528.289 L90.1306 528.289 L90.1306 524.354 Z" fill="#000000" fill-rule="evenodd" fill-opacity="1" /><path clip-path="url(#clip980)" d="M129.482 496.808 Q125.871 496.808 124.042 500.372 Q122.237 503.914 122.237 511.044 Q122.237 518.15 124.042 521.715 Q125.871 525.257 129.482 525.257 Q133.116 525.257 134.922 521.715 Q136.751 518.15 136.751 511.044 Q136.751 503.914 134.922 500.372 Q133.116 496.808 129.482 496.808 M129.482 493.104 Q135.292 493.104 138.348 497.71 Q141.427 502.294 141.427 511.044 Q141.427 519.77 138.348 524.377 Q135.292 528.96 129.482 528.96 Q123.672 528.96 120.593 524.377 Q117.538 519.77 117.538 511.044 Q117.538 502.294 120.593 497.71 Q123.672 493.104 129.482 493.104 Z" fill="#000000" fill-rule="evenodd" fill-opacity="1" /><path clip-path="url(#clip980)" d="M93.3482 109.349 L109.668 109.349 L109.668 113.284 L87.7232 113.284 L87.7232 109.349 Q90.3852 106.594 94.9685 101.965 Q99.575 97.3121 100.756 95.9695 Q103.001 93.4464 103.881 91.7103 Q104.783 89.951 104.783 88.2612 Q104.783 85.5066 102.839 83.7705 Q100.918 82.0344 97.8158 82.0344 Q95.6167 82.0344 93.163 82.7983 Q90.7325 83.5622 87.9547 85.1131 L87.9547 80.3909 Q90.7788 79.2566 93.2324 78.6779 Q95.6861 78.0992 97.7232 78.0992 Q103.094 78.0992 106.288 80.7844 Q109.482 83.4696 109.482 87.9603 Q109.482 90.0899 108.672 92.0112 Q107.885 93.9093 105.779 96.5019 Q105.2 97.1732 102.098 100.391 Q98.9963 103.585 93.3482 109.349 Z" fill="#000000" fill-rule="evenodd" fill-opacity="1" /><path clip-path="url(#clip980)" d="M129.482 81.8029 Q125.871 81.8029 124.042 85.3677 Q122.237 88.9094 122.237 96.039 Q122.237 103.145 124.042 106.71 Q125.871 110.252 129.482 110.252 Q133.116 110.252 134.922 106.71 Q136.751 103.145 136.751 96.039 Q136.751 88.9094 134.922 85.3677 Q133.116 81.8029 129.482 81.8029 M129.482 78.0992 Q135.292 78.0992 138.348 82.7057 Q141.427 87.289 141.427 96.039 Q141.427 104.766 138.348 109.372 Q135.292 113.956 129.482 113.956 Q123.672 113.956 120.593 109.372 Q117.538 104.766 117.538 96.039 Q117.538 87.289 120.593 82.7057 Q123.672 78.0992 129.482 78.0992 Z" fill="#000000" fill-rule="evenodd" fill-opacity="1" /><polyline clip-path="url(#clip982)" style="stroke:#009af9; stroke-linecap:butt; stroke-linejoin:round; stroke-width:4; stroke-opacity:1; fill:none" points="
  251.341,1381.33 266.445,1379.15 406.096,1359.71 490.021,1348.82 560.979,1340.24 638.058,1331.76 709.119,1324.95 785.303,1319.12 873.571,1315.08 912.791,1314.6 
  952.012,1315.22 986.405,1316.91 1020.8,1319.96 1058.3,1325.29 1095.79,1333.46 1114.65,1338.97 1133.51,1345.68 1142.94,1349.56 1152.37,1353.84 1157.09,1356.14 
  1161.8,1358.56 1164.16,1359.82 1166.52,1361.11 1167.7,1361.77 1168.88,1362.44 1170.06,1363.11 1171.23,1363.79 1192.09,1377.44 1212.94,1394.72 1223.37,1405.09 
  1233.79,1416.9 1244.22,1430.39 1254.64,1445.93 1264.56,1462.99 1274.48,1482.76 1279.45,1493.86 1284.41,1505.9 1289.37,1518.98 1294.33,1533.24 1299.29,1548.84 
  1304.25,1565.96 1309.21,1584.82 1314.17,1605.7 1319.13,1628.92 1324.09,1654.87 1329.05,1684.05 1334.01,1717.08 1334.65,1721.7 1335.3,1726.4 1335.94,1731.17 
  1336.59,1736.04 1337.23,1740.98 1337.87,1746.02 1338.52,1751.15 
  "/>
<polyline clip-path="url(#clip982)" style="stroke:#009af9; stroke-linecap:butt; stroke-linejoin:round; stroke-width:4; stroke-opacity:1; fill:none" points="
  1452.88,96.8724 1453.43,110.179 1454.51,135.786 1455.6,160.131 1456.68,183.305 1457.77,205.39 1458.85,226.461 1459.94,246.585 1462.11,284.236 1464.28,318.778 
  1466.45,350.579 1468.62,379.949 1470.79,407.154 1472.96,432.424 1475.13,455.955 1477.3,477.919 1479.48,498.465 1481.65,517.725 1483.82,535.814 1485.99,552.835 
  1491.29,590.446 1496.59,623.294 1501.89,652.214 1507.19,677.859 1512.49,700.744 1517.79,721.283 1523.09,739.809 1528.39,756.598 1533.69,771.875 1538.99,785.831 
  1544.29,798.624 1549.59,810.389 1560.19,831.279 1570.79,849.241 1580.51,863.605 1590.22,876.314 1599.93,887.632 1609.64,897.774 1629.06,915.202 1648.48,929.687 
  1666.42,941.139 1684.36,951.249 1702.3,960.433 1720.23,969.087 1738.4,977.749 1756.57,986.855 1774.74,997.214 1792.91,1010.22 1803.1,1019.6 1813.28,1031.55 
  1818.37,1038.95 1823.46,1047.68 1828.55,1058.2 1833.64,1071.17 1836.19,1078.88 1838.73,1087.64 1841.28,1097.68 1843.82,1109.32 1846.37,1122.98 1848.91,1139.26 
  1850.19,1148.62 1851.46,1158.99 1852.73,1170.51 1854.01,1183.42 1855.28,1197.96 1856.55,1214.47 1857.82,1233.4 1859.1,1255.3 1859.73,1267.6 1860.37,1280.95 
  1861.01,1295.49 1861.64,1311.4 1862.28,1328.86 1862.91,1348.14 1863.55,1369.51 1864.19,1393.34 1864.82,1420.09 1865.46,1450.33 1866.1,1484.79 1866.73,1524.41 
  1867.37,1570.46 1868.01,1624.63 1868.64,1689.29 
  "/>
<polyline clip-path="url(#clip982)" style="stroke:#009af9; stroke-linecap:butt; stroke-linejoin:round; stroke-width:4; stroke-opacity:1; fill:none" points="
  1881.29,164.749 1882.44,291.235 1883.6,382.912 1884.17,419.898 1884.75,452.412 1885.33,481.217 1885.9,506.914 1886.48,529.981 1887.06,550.801 1887.63,569.688 
  1888.21,586.899 1888.79,602.648 1889.36,617.113 1889.94,630.445 1890.52,642.772 1891.67,664.835 1892.82,684.008 1893.98,700.824 1895.13,715.692 1896.28,728.932 
  1897.44,740.797 1899.74,761.178 1902.05,778.053 1904.36,792.253 1906.66,804.366 1908.97,814.82 1911.28,823.931 1915.89,839.039 1920.5,851.047 1925.11,860.812 
  1929.73,868.901 1934.34,875.702 1938.95,881.494 1943.57,886.477 1948.18,890.803 1958.74,898.813 1969.31,904.891 1979.87,909.608 1990.44,913.324 2011.56,918.651 
  2032.69,922.061 2071.81,925.274 2110.94,926.006 2149.51,925.213 2188.08,923.39 2225.53,920.9 2262.98,917.867 2339.76,910.389 2423.89,900.804 2546.09,885.148 
  2571.16,881.746 
  "/>
<path clip-path="url(#clip980)" d="
M2233.14 209.375 L2558.79 209.375 L2558.79 105.695 L2233.14 105.695  Z
  " fill="#ffffff" fill-rule="evenodd" fill-opacity="1"/>
<polyline clip-path="url(#clip980)" style="stroke:#000000; stroke-linecap:butt; stroke-linejoin:round; stroke-width:4; stroke-opacity:1; fill:none" points="
  2233.14,209.375 2558.79,209.375 2558.79,105.695 2233.14,105.695 2233.14,209.375 
  "/>
<polyline clip-path="url(#clip980)" style="stroke:#009af9; stroke-linecap:butt; stroke-linejoin:round; stroke-width:4; stroke-opacity:1; fill:none" points="
  2260.46,157.535 2424.39,157.535 
  "/>
<path clip-path="url(#clip980)" d="M2465.56 177.223 Q2463.75 181.852 2462.04 183.264 Q2460.33 184.676 2457.45 184.676 L2454.05 184.676 L2454.05 181.112 L2456.55 181.112 Q2458.31 181.112 2459.28 180.278 Q2460.26 179.445 2461.44 176.343 L2462.2 174.399 L2451.71 148.889 L2456.23 148.889 L2464.33 169.167 L2472.43 148.889 L2476.95 148.889 L2465.56 177.223 Z" fill="#000000" fill-rule="evenodd" fill-opacity="1" /><path clip-path="url(#clip980)" d="M2484.24 170.88 L2491.88 170.88 L2491.88 144.515 L2483.57 146.181 L2483.57 141.922 L2491.83 140.255 L2496.51 140.255 L2496.51 170.88 L2504.14 170.88 L2504.14 174.815 L2484.24 174.815 L2484.24 170.88 Z" fill="#000000" fill-rule="evenodd" fill-opacity="1" /></svg>
