<?xml version="1.0" encoding="utf-8"?>
<svg xmlns="http://www.w3.org/2000/svg" xmlns:xlink="http://www.w3.org/1999/xlink" width="672" height="480" viewBox="0 0 2688 1920">
<defs>
  <clipPath id="clip640">
    <rect x="0" y="0" width="2688" height="1920"/>
  </clipPath>
</defs>
<path clip-path="url(#clip640)" d="
M0 1920 L2688 1920 L2688 0 L0 0  Z
  " fill="#ffffff" fill-rule="evenodd" fill-opacity="1"/>
<defs>
  <clipPath id="clip641">
    <rect x="537" y="0" width="1883" height="1883"/>
  </clipPath>
</defs>
<path clip-path="url(#clip640)" d="
M144.733 1800.78 L2640.76 1800.78 L2640.76 47.2441 L144.733 47.2441  Z
  " fill="#ffffff" fill-rule="evenodd" fill-opacity="1"/>
<defs>
  <clipPath id="clip642">
    <rect x="144" y="47" width="2497" height="1755"/>
  </clipPath>
</defs>
<polyline clip-path="url(#clip642)" style="stroke:#000000; stroke-linecap:butt; stroke-linejoin:round; stroke-width:2; stroke-opacity:0.1; fill:none" points="
  144.733,1800.78 144.733,47.2441 
  "/>
<polyline clip-path="url(#clip642)" style="stroke:#000000; stroke-linecap:butt; stroke-linejoin:round; stroke-width:2; stroke-opacity:0.1; fill:none" points="
  508.585,1800.78 508.585,47.2441 
  "/>
<polyline clip-path="url(#clip642)" style="stroke:#000000; stroke-linecap:butt; stroke-linejoin:round; stroke-width:2; stroke-opacity:0.1; fill:none" points="
  872.436,1800.78 872.436,47.2441 
  "/>
<polyline clip-path="url(#clip642)" style="stroke:#000000; stroke-linecap:butt; stroke-linejoin:round; stroke-width:2; stroke-opacity:0.1; fill:none" points="
  1236.29,1800.78 1236.29,47.2441 
  "/>
<polyline clip-path="url(#clip642)" style="stroke:#000000; stroke-linecap:butt; stroke-linejoin:round; stroke-width:2; stroke-opacity:0.1; fill:none" points="
  1600.14,1800.78 1600.14,47.2441 
  "/>
<polyline clip-path="url(#clip642)" style="stroke:#000000; stroke-linecap:butt; stroke-linejoin:round; stroke-width:2; stroke-opacity:0.1; fill:none" points="
  1963.99,1800.78 1963.99,47.2441 
  "/>
<polyline clip-path="url(#clip642)" style="stroke:#000000; stroke-linecap:butt; stroke-linejoin:round; stroke-width:2; stroke-opacity:0.1; fill:none" points="
  2327.84,1800.78 2327.84,47.2441 
  "/>
<polyline clip-path="url(#clip640)" style="stroke:#000000; stroke-linecap:butt; stroke-linejoin:round; stroke-width:4; stroke-opacity:1; fill:none" points="
  144.733,1800.78 2640.76,1800.78 
  "/>
<polyline clip-path="url(#clip640)" style="stroke:#000000; stroke-linecap:butt; stroke-linejoin:round; stroke-width:4; stroke-opacity:1; fill:none" points="
  144.733,1800.78 144.733,1781.88 
  "/>
<polyline clip-path="url(#clip640)" style="stroke:#000000; stroke-linecap:butt; stroke-linejoin:round; stroke-width:4; stroke-opacity:1; fill:none" points="
  508.585,1800.78 508.585,1781.88 
  "/>
<polyline clip-path="url(#clip640)" style="stroke:#000000; stroke-linecap:butt; stroke-linejoin:round; stroke-width:4; stroke-opacity:1; fill:none" points="
  872.436,1800.78 872.436,1781.88 
  "/>
<polyline clip-path="url(#clip640)" style="stroke:#000000; stroke-linecap:butt; stroke-linejoin:round; stroke-width:4; stroke-opacity:1; fill:none" points="
  1236.29,1800.78 1236.29,1781.88 
  "/>
<polyline clip-path="url(#clip640)" style="stroke:#000000; stroke-linecap:butt; stroke-linejoin:round; stroke-width:4; stroke-opacity:1; fill:none" points="
  1600.14,1800.78 1600.14,1781.88 
  "/>
<polyline clip-path="url(#clip640)" style="stroke:#000000; stroke-linecap:butt; stroke-linejoin:round; stroke-width:4; stroke-opacity:1; fill:none" points="
  1963.99,1800.78 1963.99,1781.88 
  "/>
<polyline clip-path="url(#clip640)" style="stroke:#000000; stroke-linecap:butt; stroke-linejoin:round; stroke-width:4; stroke-opacity:1; fill:none" points="
  2327.84,1800.78 2327.84,1781.88 
  "/>
<path clip-path="url(#clip640)" d="M144.733 1834 Q141.122 1834 139.293 1837.57 Q137.488 1841.11 137.488 1848.24 Q137.488 1855.34 139.293 1858.91 Q141.122 1862.45 144.733 1862.45 Q148.367 1862.45 150.173 1858.91 Q152.001 1855.34 152.001 1848.24 Q152.001 1841.11 150.173 1837.57 Q148.367 1834 144.733 1834 M144.733 1830.3 Q150.543 1830.3 153.599 1834.9 Q156.677 1839.49 156.677 1848.24 Q156.677 1856.96 153.599 1861.57 Q150.543 1866.15 144.733 1866.15 Q138.923 1866.15 135.844 1861.57 Q132.789 1856.96 132.789 1848.24 Q132.789 1839.49 135.844 1834.9 Q138.923 1830.3 144.733 1830.3 Z" fill="#000000" fill-rule="evenodd" fill-opacity="1" /><path clip-path="url(#clip640)" d="M498.967 1861.55 L506.606 1861.55 L506.606 1835.18 L498.295 1836.85 L498.295 1832.59 L506.559 1830.92 L511.235 1830.92 L511.235 1861.55 L518.874 1861.55 L518.874 1865.48 L498.967 1865.48 L498.967 1861.55 Z" fill="#000000" fill-rule="evenodd" fill-opacity="1" /><path clip-path="url(#clip640)" d="M867.089 1861.55 L883.409 1861.55 L883.409 1865.48 L861.464 1865.48 L861.464 1861.55 Q864.126 1858.79 868.71 1854.16 Q873.316 1849.51 874.497 1848.17 Q876.742 1845.65 877.622 1843.91 Q878.524 1842.15 878.524 1840.46 Q878.524 1837.71 876.58 1835.97 Q874.659 1834.23 871.557 1834.23 Q869.358 1834.23 866.904 1835 Q864.474 1835.76 861.696 1837.31 L861.696 1832.59 Q864.52 1831.46 866.973 1830.88 Q869.427 1830.3 871.464 1830.3 Q876.835 1830.3 880.029 1832.98 Q883.223 1835.67 883.223 1840.16 Q883.223 1842.29 882.413 1844.21 Q881.626 1846.11 879.52 1848.7 Q878.941 1849.37 875.839 1852.59 Q872.737 1855.78 867.089 1861.55 Z" fill="#000000" fill-rule="evenodd" fill-opacity="1" /><path clip-path="url(#clip640)" d="M1240.54 1846.85 Q1243.89 1847.57 1245.77 1849.84 Q1247.67 1852.1 1247.67 1855.44 Q1247.67 1860.55 1244.15 1863.35 Q1240.63 1866.15 1234.15 1866.15 Q1231.97 1866.15 1229.66 1865.71 Q1227.36 1865.3 1224.91 1864.44 L1224.91 1859.93 Q1226.86 1861.06 1229.17 1861.64 Q1231.48 1862.22 1234.01 1862.22 Q1238.41 1862.22 1240.7 1860.48 Q1243.01 1858.75 1243.01 1855.44 Q1243.01 1852.38 1240.86 1850.67 Q1238.73 1848.93 1234.91 1848.93 L1230.88 1848.93 L1230.88 1845.09 L1235.1 1845.09 Q1238.55 1845.09 1240.37 1843.72 Q1242.2 1842.34 1242.2 1839.74 Q1242.2 1837.08 1240.3 1835.67 Q1238.43 1834.23 1234.91 1834.23 Q1232.99 1834.23 1230.79 1834.65 Q1228.59 1835.07 1225.95 1835.95 L1225.95 1831.78 Q1228.61 1831.04 1230.93 1830.67 Q1233.27 1830.3 1235.33 1830.3 Q1240.65 1830.3 1243.75 1832.73 Q1246.86 1835.14 1246.86 1839.26 Q1246.86 1842.13 1245.21 1844.12 Q1243.57 1846.09 1240.54 1846.85 Z" fill="#000000" fill-rule="evenodd" fill-opacity="1" /><path clip-path="url(#clip640)" d="M1603.15 1835 L1591.34 1853.45 L1603.15 1853.45 L1603.15 1835 M1601.92 1830.92 L1607.8 1830.92 L1607.8 1853.45 L1612.73 1853.45 L1612.73 1857.34 L1607.8 1857.34 L1607.8 1865.48 L1603.15 1865.48 L1603.15 1857.34 L1587.55 1857.34 L1587.55 1852.82 L1601.92 1830.92 Z" fill="#000000" fill-rule="evenodd" fill-opacity="1" /><path clip-path="url(#clip640)" d="M1954.27 1830.92 L1972.63 1830.92 L1972.63 1834.86 L1958.55 1834.86 L1958.55 1843.33 Q1959.57 1842.98 1960.59 1842.82 Q1961.61 1842.64 1962.63 1842.64 Q1968.41 1842.64 1971.79 1845.81 Q1975.17 1848.98 1975.17 1854.4 Q1975.17 1859.97 1971.7 1863.08 Q1968.23 1866.15 1961.91 1866.15 Q1959.73 1866.15 1957.46 1865.78 Q1955.22 1865.41 1952.81 1864.67 L1952.81 1859.97 Q1954.89 1861.11 1957.12 1861.66 Q1959.34 1862.22 1961.82 1862.22 Q1965.82 1862.22 1968.16 1860.11 Q1970.5 1858.01 1970.5 1854.4 Q1970.5 1850.78 1968.16 1848.68 Q1965.82 1846.57 1961.82 1846.57 Q1959.94 1846.57 1958.07 1846.99 Q1956.21 1847.4 1954.27 1848.28 L1954.27 1830.92 Z" fill="#000000" fill-rule="evenodd" fill-opacity="1" /><path clip-path="url(#clip640)" d="M2328.25 1846.34 Q2325.1 1846.34 2323.25 1848.49 Q2321.42 1850.65 2321.42 1854.4 Q2321.42 1858.12 2323.25 1860.3 Q2325.1 1862.45 2328.25 1862.45 Q2331.4 1862.45 2333.23 1860.3 Q2335.08 1858.12 2335.08 1854.4 Q2335.08 1850.65 2333.23 1848.49 Q2331.4 1846.34 2328.25 1846.34 M2337.53 1831.69 L2337.53 1835.95 Q2335.77 1835.11 2333.97 1834.67 Q2332.18 1834.23 2330.42 1834.23 Q2325.79 1834.23 2323.34 1837.36 Q2320.91 1840.48 2320.56 1846.8 Q2321.93 1844.79 2323.99 1843.72 Q2326.05 1842.64 2328.53 1842.64 Q2333.73 1842.64 2336.74 1845.81 Q2339.78 1848.96 2339.78 1854.4 Q2339.78 1859.72 2336.63 1862.94 Q2333.48 1866.15 2328.25 1866.15 Q2322.25 1866.15 2319.08 1861.57 Q2315.91 1856.96 2315.91 1848.24 Q2315.91 1840.04 2319.8 1835.18 Q2323.69 1830.3 2330.24 1830.3 Q2332 1830.3 2333.78 1830.65 Q2335.59 1830.99 2337.53 1831.69 Z" fill="#000000" fill-rule="evenodd" fill-opacity="1" /><polyline clip-path="url(#clip642)" style="stroke:#000000; stroke-linecap:butt; stroke-linejoin:round; stroke-width:2; stroke-opacity:0.1; fill:none" points="
  144.733,1493.1 2640.76,1493.1 
  "/>
<polyline clip-path="url(#clip642)" style="stroke:#000000; stroke-linecap:butt; stroke-linejoin:round; stroke-width:2; stroke-opacity:0.1; fill:none" points="
  144.733,1094.46 2640.76,1094.46 
  "/>
<polyline clip-path="url(#clip642)" style="stroke:#000000; stroke-linecap:butt; stroke-linejoin:round; stroke-width:2; stroke-opacity:0.1; fill:none" points="
  144.733,695.808 2640.76,695.808 
  "/>
<polyline clip-path="url(#clip642)" style="stroke:#000000; stroke-linecap:butt; stroke-linejoin:round; stroke-width:2; stroke-opacity:0.1; fill:none" points="
  144.733,297.161 2640.76,297.161 
  "/>
<polyline clip-path="url(#clip640)" style="stroke:#000000; stroke-linecap:butt; stroke-linejoin:round; stroke-width:4; stroke-opacity:1; fill:none" points="
  144.733,1800.78 144.733,47.2441 
  "/>
<polyline clip-path="url(#clip640)" style="stroke:#000000; stroke-linecap:butt; stroke-linejoin:round; stroke-width:4; stroke-opacity:1; fill:none" points="
  144.733,1493.1 163.631,1493.1 
  "/>
<polyline clip-path="url(#clip640)" style="stroke:#000000; stroke-linecap:butt; stroke-linejoin:round; stroke-width:4; stroke-opacity:1; fill:none" points="
  144.733,1094.46 163.631,1094.46 
  "/>
<polyline clip-path="url(#clip640)" style="stroke:#000000; stroke-linecap:butt; stroke-linejoin:round; stroke-width:4; stroke-opacity:1; fill:none" points="
  144.733,695.808 163.631,695.808 
  "/>
<polyline clip-path="url(#clip640)" style="stroke:#000000; stroke-linecap:butt; stroke-linejoin:round; stroke-width:4; stroke-opacity:1; fill:none" points="
  144.733,297.161 163.631,297.161 
  "/>
<path clip-path="url(#clip640)" d="M92.4686 1478.9 Q88.8575 1478.9 87.0288 1482.47 Q85.2232 1486.01 85.2232 1493.14 Q85.2232 1500.24 87.0288 1503.81 Q88.8575 1507.35 92.4686 1507.35 Q96.1028 1507.35 97.9083 1503.81 Q99.737 1500.24 99.737 1493.14 Q99.737 1486.01 97.9083 1482.47 Q96.1028 1478.9 92.4686 1478.9 M92.4686 1475.2 Q98.2787 1475.2 101.334 1479.8 Q104.413 1484.39 104.413 1493.14 Q104.413 1501.86 101.334 1506.47 Q98.2787 1511.05 92.4686 1511.05 Q86.6584 1511.05 83.5797 1506.47 Q80.5242 1501.86 80.5242 1493.14 Q80.5242 1484.39 83.5797 1479.8 Q86.6584 1475.2 92.4686 1475.2 Z" fill="#000000" fill-rule="evenodd" fill-opacity="1" /><path clip-path="url(#clip640)" d="M56.3345 1107.8 L72.6539 1107.8 L72.6539 1111.74 L50.7095 1111.74 L50.7095 1107.8 Q53.3715 1105.05 57.9549 1100.42 Q62.5613 1095.76 63.7419 1094.42 Q65.9872 1091.9 66.8668 1090.16 Q67.7696 1088.4 67.7696 1086.71 Q67.7696 1083.96 65.8252 1082.22 Q63.9039 1080.49 60.8021 1080.49 Q58.603 1080.49 56.1493 1081.25 Q53.7188 1082.01 50.941 1083.56 L50.941 1078.84 Q53.7651 1077.71 56.2188 1077.13 Q58.6724 1076.55 60.7095 1076.55 Q66.0798 1076.55 69.2742 1079.24 Q72.4687 1081.92 72.4687 1086.41 Q72.4687 1088.54 71.6585 1090.46 Q70.8715 1092.36 68.765 1094.95 Q68.1863 1095.62 65.0845 1098.84 Q61.9826 1102.04 56.3345 1107.8 Z" fill="#000000" fill-rule="evenodd" fill-opacity="1" /><path clip-path="url(#clip640)" d="M92.4686 1080.25 Q88.8575 1080.25 87.0288 1083.82 Q85.2232 1087.36 85.2232 1094.49 Q85.2232 1101.6 87.0288 1105.16 Q88.8575 1108.7 92.4686 1108.7 Q96.1028 1108.7 97.9083 1105.16 Q99.737 1101.6 99.737 1094.49 Q99.737 1087.36 97.9083 1083.82 Q96.1028 1080.25 92.4686 1080.25 M92.4686 1076.55 Q98.2787 1076.55 101.334 1081.16 Q104.413 1085.74 104.413 1094.49 Q104.413 1103.22 101.334 1107.82 Q98.2787 1112.41 92.4686 1112.41 Q86.6584 1112.41 83.5797 1107.82 Q80.5242 1103.22 80.5242 1094.49 Q80.5242 1085.74 83.5797 1081.16 Q86.6584 1076.55 92.4686 1076.55 Z" fill="#000000" fill-rule="evenodd" fill-opacity="1" /><path clip-path="url(#clip640)" d="M65.1539 682.602 L53.3484 701.051 L65.1539 701.051 L65.1539 682.602 M63.927 678.528 L69.8066 678.528 L69.8066 701.051 L74.7372 701.051 L74.7372 704.94 L69.8066 704.94 L69.8066 713.088 L65.1539 713.088 L65.1539 704.94 L49.5521 704.94 L49.5521 700.426 L63.927 678.528 Z" fill="#000000" fill-rule="evenodd" fill-opacity="1" /><path clip-path="url(#clip640)" d="M92.4686 681.607 Q88.8575 681.607 87.0288 685.172 Q85.2232 688.714 85.2232 695.843 Q85.2232 702.95 87.0288 706.514 Q88.8575 710.056 92.4686 710.056 Q96.1028 710.056 97.9083 706.514 Q99.737 702.95 99.737 695.843 Q99.737 688.714 97.9083 685.172 Q96.1028 681.607 92.4686 681.607 M92.4686 677.903 Q98.2787 677.903 101.334 682.51 Q104.413 687.093 104.413 695.843 Q104.413 704.57 101.334 709.176 Q98.2787 713.76 92.4686 713.76 Q86.6584 713.76 83.5797 709.176 Q80.5242 704.57 80.5242 695.843 Q80.5242 687.093 83.5797 682.51 Q86.6584 677.903 92.4686 677.903 Z" fill="#000000" fill-rule="evenodd" fill-opacity="1" /><path clip-path="url(#clip640)" d="M62.8854 295.298 Q59.7373 295.298 57.8854 297.451 Q56.0567 299.603 56.0567 303.353 Q56.0567 307.08 57.8854 309.256 Q59.7373 311.409 62.8854 311.409 Q66.0335 311.409 67.8622 309.256 Q69.7141 307.08 69.7141 303.353 Q69.7141 299.603 67.8622 297.451 Q66.0335 295.298 62.8854 295.298 M72.1677 280.645 L72.1677 284.904 Q70.4085 284.071 68.6029 283.631 Q66.8206 283.191 65.0613 283.191 Q60.4317 283.191 57.978 286.316 Q55.5475 289.441 55.2002 295.761 Q56.566 293.747 58.6262 292.682 Q60.6863 291.594 63.1632 291.594 Q68.3715 291.594 71.3807 294.765 Q74.4131 297.914 74.4131 303.353 Q74.4131 308.677 71.265 311.895 Q68.1168 315.113 62.8854 315.113 Q56.89 315.113 53.7188 310.529 Q50.5475 305.923 50.5475 297.196 Q50.5475 289.002 54.4364 284.14 Q58.3252 279.256 64.8761 279.256 Q66.6354 279.256 68.4178 279.603 Q70.2233 279.951 72.1677 280.645 Z" fill="#000000" fill-rule="evenodd" fill-opacity="1" /><path clip-path="url(#clip640)" d="M92.4686 282.96 Q88.8575 282.96 87.0288 286.525 Q85.2232 290.066 85.2232 297.196 Q85.2232 304.302 87.0288 307.867 Q88.8575 311.409 92.4686 311.409 Q96.1028 311.409 97.9083 307.867 Q99.737 304.302 99.737 297.196 Q99.737 290.066 97.9083 286.525 Q96.1028 282.96 92.4686 282.96 M92.4686 279.256 Q98.2787 279.256 101.334 283.863 Q104.413 288.446 104.413 297.196 Q104.413 305.923 101.334 310.529 Q98.2787 315.113 92.4686 315.113 Q86.6584 315.113 83.5797 310.529 Q80.5242 305.923 80.5242 297.196 Q80.5242 288.446 83.5797 283.863 Q86.6584 279.256 92.4686 279.256 Z" fill="#000000" fill-rule="evenodd" fill-opacity="1" /><polyline clip-path="url(#clip642)" style="stroke:#009af9; stroke-linecap:butt; stroke-linejoin:round; stroke-width:4; stroke-opacity:1; fill:none" points="
  144.733,536.35 148.796,556.686 152.858,576.746 156.921,596.532 160.983,616.047 170.375,660.128 179.766,702.793 189.157,744.07 198.548,783.984 207.939,822.56 
  217.331,859.824 226.722,895.802 236.113,930.517 245.504,963.995 254.895,996.26 264.287,1027.34 273.678,1057.25 292.46,1113.68 311.242,1165.74 322.53,1195 
  333.817,1222.78 345.105,1249.14 356.392,1274.1 367.68,1297.7 378.967,1319.98 390.255,1340.99 401.542,1360.75 420.629,1391.44 439.715,1418.84 458.802,1443.15 
  477.889,1464.51 498.623,1484.57 519.356,1501.56 540.09,1515.67 560.823,1527.1 579.938,1535.43 599.052,1541.78 618.167,1546.3 637.281,1549.13 657.774,1550.42 
  678.267,1550.08 698.76,1548.26 719.252,1545.11 742.995,1539.98 766.738,1533.48 790.481,1525.81 814.224,1517.17 898.624,1481.46 972.634,1448.13 1012.98,1430.86 
  1053.33,1415 1093.91,1401.01 1134.5,1389.45 1179.37,1379.95 1224.24,1374.32 1266.94,1372.83 1309.63,1375.29 1354.03,1382.13 1398.42,1393.31 1435.79,1406.01 
  1473.16,1421.58 1518.78,1444.22 1564.41,1470.44 1606.2,1497.11 1647.99,1525.8 1725.19,1582.02 1803.4,1639.23 1847.22,1669.33 1891.04,1696.59 1930.75,1717.82 
  1970.46,1734.7 1993.19,1742 2015.92,1747.32 2038.65,1750.45 2061.39,1751.15 2082.43,1749.44 2103.48,1745.26 2124.53,1738.43 2145.58,1728.74 2166.33,1716.18 
  2187.08,1700.44 2207.83,1681.31 2228.58,1658.58 2248.73,1632.87 2268.87,1603.34 2278.95,1587.09 2289.02,1569.81 2299.1,1551.48 2309.17,1532.06 2319.5,1511 
  2329.82,1488.74 2340.15,1465.26 2350.48,1440.53 2360.8,1414.5 2371.13,1387.16 2381.46,1358.47 2391.78,1328.4 2403.1,1293.83 2414.41,1257.52 2425.73,1219.43 
  2437.04,1179.52 2448.35,1137.74 2459.67,1094.05 2470.98,1048.4 2482.3,1000.75 2490.51,964.865 2498.73,927.88 2506.95,889.779 2515.17,850.546 2523.39,810.162 
  2531.6,768.61 2539.82,725.87 2548.04,681.926 2556.26,636.758 2564.47,590.348 2572.69,542.677 2580.91,493.726 2589.13,443.477 2597.35,391.911 2605.56,339.007 
  2613.78,284.748 2620.52,239.196 2627.27,192.706 2634.01,145.269 2640.76,96.8724 
  "/>
<path clip-path="url(#clip640)" d="
M1136.68 209.375 L2557.56 209.375 L2557.56 105.695 L1136.68 105.695  Z
  " fill="#ffffff" fill-rule="evenodd" fill-opacity="1"/>
<polyline clip-path="url(#clip640)" style="stroke:#000000; stroke-linecap:butt; stroke-linejoin:round; stroke-width:4; stroke-opacity:1; fill:none" points="
  1136.68,209.375 2557.56,209.375 2557.56,105.695 1136.68,105.695 1136.68,209.375 
  "/>
<polyline clip-path="url(#clip640)" style="stroke:#009af9; stroke-linecap:butt; stroke-linejoin:round; stroke-width:4; stroke-opacity:1; fill:none" points="
  1164.42,157.535 1330.82,157.535 
  "/>
<path clip-path="url(#clip640)" d="M1374.15 144.329 L1362.35 162.778 L1374.15 162.778 L1374.15 144.329 M1372.93 140.255 L1378.81 140.255 L1378.81 162.778 L1383.74 162.778 L1383.74 166.667 L1378.81 166.667 L1378.81 174.815 L1374.15 174.815 L1374.15 166.667 L1358.55 166.667 L1358.55 162.153 L1372.93 140.255 Z" fill="#000000" fill-rule="evenodd" fill-opacity="1" /><path clip-path="url(#clip640)" d="M1401.47 158.403 Q1398.14 158.403 1396.21 160.186 Q1394.32 161.968 1394.32 165.093 Q1394.32 168.218 1396.21 170 Q1398.14 171.783 1401.47 171.783 Q1404.8 171.783 1406.72 170 Q1408.64 168.195 1408.64 165.093 Q1408.64 161.968 1406.72 160.186 Q1404.83 158.403 1401.47 158.403 M1396.79 156.413 Q1393.78 155.672 1392.09 153.612 Q1390.43 151.552 1390.43 148.589 Q1390.43 144.445 1393.37 142.038 Q1396.33 139.63 1401.47 139.63 Q1406.63 139.63 1409.57 142.038 Q1412.51 144.445 1412.51 148.589 Q1412.51 151.552 1410.82 153.612 Q1409.15 155.672 1406.17 156.413 Q1409.55 157.2 1411.42 159.491 Q1413.32 161.783 1413.32 165.093 Q1413.32 170.116 1410.24 172.801 Q1407.19 175.487 1401.47 175.487 Q1395.75 175.487 1392.67 172.801 Q1389.62 170.116 1389.62 165.093 Q1389.62 161.783 1391.52 159.491 Q1393.41 157.2 1396.79 156.413 M1395.08 149.028 Q1395.08 151.714 1396.75 153.218 Q1398.44 154.723 1401.47 154.723 Q1404.48 154.723 1406.17 153.218 Q1407.88 151.714 1407.88 149.028 Q1407.88 146.343 1406.17 144.839 Q1404.48 143.334 1401.47 143.334 Q1398.44 143.334 1396.75 144.839 Q1395.08 146.343 1395.08 149.028 Z" fill="#000000" fill-rule="evenodd" fill-opacity="1" /><path clip-path="url(#clip640)" d="M1421.63 168.936 L1426.52 168.936 L1426.52 174.815 L1421.63 174.815 L1421.63 168.936 Z" fill="#000000" fill-rule="evenodd" fill-opacity="1" /><path clip-path="url(#clip640)" d="M1446.7 143.334 Q1443.09 143.334 1441.26 146.899 Q1439.45 150.44 1439.45 157.57 Q1439.45 164.676 1441.26 168.241 Q1443.09 171.783 1446.7 171.783 Q1450.33 171.783 1452.14 168.241 Q1453.97 164.676 1453.97 157.57 Q1453.97 150.44 1452.14 146.899 Q1450.33 143.334 1446.7 143.334 M1446.7 139.63 Q1452.51 139.63 1455.57 144.237 Q1458.64 148.82 1458.64 157.57 Q1458.64 166.297 1455.57 170.903 Q1452.51 175.487 1446.7 175.487 Q1440.89 175.487 1437.81 170.903 Q1434.76 166.297 1434.76 157.57 Q1434.76 148.82 1437.81 144.237 Q1440.89 139.63 1446.7 139.63 Z" fill="#000000" fill-rule="evenodd" fill-opacity="1" /><path clip-path="url(#clip640)" d="M1479.18 159.931 L1491.65 159.931 L1491.65 163.727 L1479.18 163.727 L1479.18 159.931 Z" fill="#000000" fill-rule="evenodd" fill-opacity="1" /><path clip-path="url(#clip640)" d="M1514.25 174.098 L1514.25 169.838 Q1516.01 170.672 1517.81 171.112 Q1519.62 171.551 1521.35 171.551 Q1525.98 171.551 1528.41 168.45 Q1530.87 165.325 1531.21 158.982 Q1529.87 160.973 1527.81 162.038 Q1525.75 163.102 1523.25 163.102 Q1518.07 163.102 1515.03 159.977 Q1512.02 156.829 1512.02 151.389 Q1512.02 146.065 1515.17 142.848 Q1518.32 139.63 1523.55 139.63 Q1529.55 139.63 1532.7 144.237 Q1535.87 148.82 1535.87 157.57 Q1535.87 165.741 1531.98 170.625 Q1528.11 175.487 1521.56 175.487 Q1519.8 175.487 1518 175.139 Q1516.19 174.792 1514.25 174.098 M1523.55 159.445 Q1526.7 159.445 1528.53 157.292 Q1530.38 155.139 1530.38 151.389 Q1530.38 147.663 1528.53 145.51 Q1526.7 143.334 1523.55 143.334 Q1520.4 143.334 1518.55 145.51 Q1516.72 147.663 1516.72 151.389 Q1516.72 155.139 1518.55 157.292 Q1520.4 159.445 1523.55 159.445 Z" fill="#000000" fill-rule="evenodd" fill-opacity="1" /><path clip-path="url(#clip640)" d="M1548.3 170.88 L1564.62 170.88 L1564.62 174.815 L1542.67 174.815 L1542.67 170.88 Q1545.33 168.125 1549.92 163.496 Q1554.52 158.843 1555.7 157.501 Q1557.95 154.977 1558.83 153.241 Q1559.73 151.482 1559.73 149.792 Q1559.73 147.038 1557.79 145.302 Q1555.87 143.565 1552.76 143.565 Q1550.57 143.565 1548.11 144.329 Q1545.68 145.093 1542.9 146.644 L1542.9 141.922 Q1545.73 140.788 1548.18 140.209 Q1550.63 139.63 1552.67 139.63 Q1558.04 139.63 1561.24 142.315 Q1564.43 145.001 1564.43 149.491 Q1564.43 151.621 1563.62 153.542 Q1562.83 155.44 1560.73 158.033 Q1560.15 158.704 1557.05 161.922 Q1553.94 165.116 1548.3 170.88 Z" fill="#000000" fill-rule="evenodd" fill-opacity="1" /><path clip-path="url(#clip640)" d="M1574.43 168.936 L1579.32 168.936 L1579.32 174.815 L1574.43 174.815 L1574.43 168.936 Z" fill="#000000" fill-rule="evenodd" fill-opacity="1" /><path clip-path="url(#clip640)" d="M1599.5 143.334 Q1595.89 143.334 1594.06 146.899 Q1592.25 150.44 1592.25 157.57 Q1592.25 164.676 1594.06 168.241 Q1595.89 171.783 1599.5 171.783 Q1603.13 171.783 1604.94 168.241 Q1606.77 164.676 1606.77 157.57 Q1606.77 150.44 1604.94 146.899 Q1603.13 143.334 1599.5 143.334 M1599.5 139.63 Q1605.31 139.63 1608.37 144.237 Q1611.44 148.82 1611.44 157.57 Q1611.44 166.297 1608.37 170.903 Q1605.31 175.487 1599.5 175.487 Q1593.69 175.487 1590.61 170.903 Q1587.56 166.297 1587.56 157.57 Q1587.56 148.82 1590.61 144.237 Q1593.69 139.63 1599.5 139.63 Z" fill="#000000" fill-rule="evenodd" fill-opacity="1" /><path clip-path="url(#clip640)" d="M1636.88 145.95 L1628.57 150.44 L1636.88 154.954 L1635.54 157.223 L1627.76 152.524 L1627.76 161.251 L1625.13 161.251 L1625.13 152.524 L1617.35 157.223 L1616 154.954 L1624.31 150.44 L1616 145.95 L1617.35 143.658 L1625.13 148.357 L1625.13 139.63 L1627.76 139.63 L1627.76 148.357 L1635.54 143.658 L1636.88 145.95 Z" fill="#000000" fill-rule="evenodd" fill-opacity="1" /><path clip-path="url(#clip640)" d="M1664.31 148.889 L1654.94 161.505 L1664.8 174.815 L1659.78 174.815 L1652.23 164.63 L1644.69 174.815 L1639.66 174.815 L1649.73 161.251 L1640.52 148.889 L1645.54 148.889 L1652.42 158.126 L1659.29 148.889 L1664.31 148.889 Z" fill="#000000" fill-rule="evenodd" fill-opacity="1" /><path clip-path="url(#clip640)" d="M1703.23 145.093 L1703.23 157.987 L1716.12 157.987 L1716.12 161.922 L1703.23 161.922 L1703.23 174.815 L1699.34 174.815 L1699.34 161.922 L1686.44 161.922 L1686.44 157.987 L1699.34 157.987 L1699.34 145.093 L1703.23 145.093 Z" fill="#000000" fill-rule="evenodd" fill-opacity="1" /><path clip-path="url(#clip640)" d="M1741.33 140.255 L1759.68 140.255 L1759.68 144.19 L1745.61 144.19 L1745.61 152.663 Q1746.63 152.315 1747.65 152.153 Q1748.67 151.968 1749.68 151.968 Q1755.47 151.968 1758.85 155.139 Q1762.23 158.311 1762.23 163.727 Q1762.23 169.306 1758.76 172.408 Q1755.29 175.487 1748.97 175.487 Q1746.79 175.487 1744.52 175.116 Q1742.28 174.746 1739.87 174.005 L1739.87 169.306 Q1741.95 170.44 1744.18 170.996 Q1746.4 171.551 1748.87 171.551 Q1752.88 171.551 1755.22 169.445 Q1757.55 167.338 1757.55 163.727 Q1757.55 160.116 1755.22 158.01 Q1752.88 155.903 1748.87 155.903 Q1747 155.903 1745.12 156.32 Q1743.27 156.737 1741.33 157.616 L1741.33 140.255 Z" fill="#000000" fill-rule="evenodd" fill-opacity="1" /><path clip-path="url(#clip640)" d="M1782.02 155.672 Q1778.87 155.672 1777.02 157.825 Q1775.19 159.977 1775.19 163.727 Q1775.19 167.454 1777.02 169.63 Q1778.87 171.783 1782.02 171.783 Q1785.17 171.783 1787 169.63 Q1788.85 167.454 1788.85 163.727 Q1788.85 159.977 1787 157.825 Q1785.17 155.672 1782.02 155.672 M1791.3 141.019 L1791.3 145.278 Q1789.55 144.445 1787.74 144.005 Q1785.96 143.565 1784.2 143.565 Q1779.57 143.565 1777.11 146.69 Q1774.68 149.815 1774.34 156.135 Q1775.7 154.121 1777.76 153.056 Q1779.82 151.968 1782.3 151.968 Q1787.51 151.968 1790.52 155.139 Q1793.55 158.288 1793.55 163.727 Q1793.55 169.051 1790.4 172.269 Q1787.25 175.487 1782.02 175.487 Q1776.03 175.487 1772.86 170.903 Q1769.68 166.297 1769.68 157.57 Q1769.68 149.376 1773.57 144.515 Q1777.46 139.63 1784.01 139.63 Q1785.77 139.63 1787.55 139.977 Q1789.36 140.325 1791.3 141.019 Z" fill="#000000" fill-rule="evenodd" fill-opacity="1" /><path clip-path="url(#clip640)" d="M1801.61 168.936 L1806.49 168.936 L1806.49 174.815 L1801.61 174.815 L1801.61 168.936 Z" fill="#000000" fill-rule="evenodd" fill-opacity="1" /><path clip-path="url(#clip640)" d="M1826.67 143.334 Q1823.06 143.334 1821.24 146.899 Q1819.43 150.44 1819.43 157.57 Q1819.43 164.676 1821.24 168.241 Q1823.06 171.783 1826.67 171.783 Q1830.31 171.783 1832.11 168.241 Q1833.94 164.676 1833.94 157.57 Q1833.94 150.44 1832.11 146.899 Q1830.31 143.334 1826.67 143.334 M1826.67 139.63 Q1832.49 139.63 1835.54 144.237 Q1838.62 148.82 1838.62 157.57 Q1838.62 166.297 1835.54 170.903 Q1832.49 175.487 1826.67 175.487 Q1820.86 175.487 1817.79 170.903 Q1814.73 166.297 1814.73 157.57 Q1814.73 148.82 1817.79 144.237 Q1820.86 139.63 1826.67 139.63 Z" fill="#000000" fill-rule="evenodd" fill-opacity="1" /><path clip-path="url(#clip640)" d="M1864.06 145.95 L1855.75 150.44 L1864.06 154.954 L1862.72 157.223 L1854.94 152.524 L1854.94 161.251 L1852.3 161.251 L1852.3 152.524 L1844.52 157.223 L1843.18 154.954 L1851.49 150.44 L1843.18 145.95 L1844.52 143.658 L1852.3 148.357 L1852.3 139.63 L1854.94 139.63 L1854.94 148.357 L1862.72 143.658 L1864.06 145.95 Z" fill="#000000" fill-rule="evenodd" fill-opacity="1" /><path clip-path="url(#clip640)" d="M1891.49 148.889 L1882.11 161.505 L1891.98 174.815 L1886.95 174.815 L1879.41 164.63 L1871.86 174.815 L1866.84 174.815 L1876.91 161.251 L1867.69 148.889 L1872.72 148.889 L1879.59 158.126 L1886.47 148.889 L1891.49 148.889 Z" fill="#000000" fill-rule="evenodd" fill-opacity="1" /><path clip-path="url(#clip640)" d="M1915.66 140.255 L1928.23 153.149 L1923.57 153.149 L1913.39 144.005 L1903.2 153.149 L1898.55 153.149 L1911.12 140.255 L1915.66 140.255 Z" fill="#000000" fill-rule="evenodd" fill-opacity="1" /><path clip-path="url(#clip640)" d="M1942.35 170.88 L1958.66 170.88 L1958.66 174.815 L1936.72 174.815 L1936.72 170.88 Q1939.38 168.125 1943.97 163.496 Q1948.57 158.843 1949.75 157.501 Q1952 154.977 1952.88 153.241 Q1953.78 151.482 1953.78 149.792 Q1953.78 147.038 1951.84 145.302 Q1949.91 143.565 1946.81 143.565 Q1944.61 143.565 1942.16 144.329 Q1939.73 145.093 1936.95 146.644 L1936.95 141.922 Q1939.78 140.788 1942.23 140.209 Q1944.68 139.63 1946.72 139.63 Q1952.09 139.63 1955.29 142.315 Q1958.48 145.001 1958.48 149.491 Q1958.48 151.621 1957.67 153.542 Q1956.88 155.44 1954.78 158.033 Q1954.2 158.704 1951.1 161.922 Q1947.99 165.116 1942.35 170.88 Z" fill="#000000" fill-rule="evenodd" fill-opacity="1" /><path clip-path="url(#clip640)" d="M1980.79 159.931 L1993.27 159.931 L1993.27 163.727 L1980.79 163.727 L1980.79 159.931 Z" fill="#000000" fill-rule="evenodd" fill-opacity="1" /><path clip-path="url(#clip640)" d="M2016.54 170.88 L2024.17 170.88 L2024.17 144.515 L2015.86 146.181 L2015.86 141.922 L2024.13 140.255 L2028.8 140.255 L2028.8 170.88 L2036.44 170.88 L2036.44 174.815 L2016.54 174.815 L2016.54 170.88 Z" fill="#000000" fill-rule="evenodd" fill-opacity="1" /><path clip-path="url(#clip640)" d="M2060.05 156.181 Q2063.41 156.899 2065.28 159.167 Q2067.18 161.436 2067.18 164.769 Q2067.18 169.885 2063.66 172.686 Q2060.15 175.487 2053.66 175.487 Q2051.49 175.487 2049.17 175.047 Q2046.88 174.63 2044.43 173.774 L2044.43 169.26 Q2046.37 170.394 2048.69 170.973 Q2051 171.551 2053.53 171.551 Q2057.92 171.551 2060.22 169.815 Q2062.53 168.079 2062.53 164.769 Q2062.53 161.713 2060.38 160.001 Q2058.25 158.264 2054.43 158.264 L2050.4 158.264 L2050.4 154.422 L2054.61 154.422 Q2058.06 154.422 2059.89 153.056 Q2061.72 151.667 2061.72 149.075 Q2061.72 146.413 2059.82 145.001 Q2057.95 143.565 2054.43 143.565 Q2052.51 143.565 2050.31 143.982 Q2048.11 144.399 2045.47 145.278 L2045.47 141.112 Q2048.13 140.371 2050.45 140.001 Q2052.78 139.63 2054.84 139.63 Q2060.17 139.63 2063.27 142.061 Q2066.37 144.468 2066.37 148.589 Q2066.37 151.459 2064.73 153.45 Q2063.09 155.417 2060.05 156.181 Z" fill="#000000" fill-rule="evenodd" fill-opacity="1" /><path clip-path="url(#clip640)" d="M2076.05 168.936 L2080.93 168.936 L2080.93 174.815 L2076.05 174.815 L2076.05 168.936 Z" fill="#000000" fill-rule="evenodd" fill-opacity="1" /><path clip-path="url(#clip640)" d="M2101.12 143.334 Q2097.51 143.334 2095.68 146.899 Q2093.87 150.44 2093.87 157.57 Q2093.87 164.676 2095.68 168.241 Q2097.51 171.783 2101.12 171.783 Q2104.75 171.783 2106.56 168.241 Q2108.39 164.676 2108.39 157.57 Q2108.39 150.44 2106.56 146.899 Q2104.75 143.334 2101.12 143.334 M2101.12 139.63 Q2106.93 139.63 2109.98 144.237 Q2113.06 148.82 2113.06 157.57 Q2113.06 166.297 2109.98 170.903 Q2106.93 175.487 2101.12 175.487 Q2095.31 175.487 2092.23 170.903 Q2089.17 166.297 2089.17 157.57 Q2089.17 148.82 2092.23 144.237 Q2095.31 139.63 2101.12 139.63 Z" fill="#000000" fill-rule="evenodd" fill-opacity="1" /><path clip-path="url(#clip640)" d="M2138.5 145.95 L2130.19 150.44 L2138.5 154.954 L2137.16 157.223 L2129.38 152.524 L2129.38 161.251 L2126.74 161.251 L2126.74 152.524 L2118.97 157.223 L2117.62 154.954 L2125.93 150.44 L2117.62 145.95 L2118.97 143.658 L2126.74 148.357 L2126.74 139.63 L2129.38 139.63 L2129.38 148.357 L2137.16 143.658 L2138.5 145.95 Z" fill="#000000" fill-rule="evenodd" fill-opacity="1" /><path clip-path="url(#clip640)" d="M2165.93 148.889 L2156.56 161.505 L2166.42 174.815 L2161.4 174.815 L2153.85 164.63 L2146.3 174.815 L2141.28 174.815 L2151.35 161.251 L2142.14 148.889 L2147.16 148.889 L2154.03 158.126 L2160.91 148.889 L2165.93 148.889 Z" fill="#000000" fill-rule="evenodd" fill-opacity="1" /><path clip-path="url(#clip640)" d="M2190.1 140.255 L2202.67 153.149 L2198.02 153.149 L2187.83 144.005 L2177.65 153.149 L2172.99 153.149 L2185.56 140.255 L2190.1 140.255 Z" fill="#000000" fill-rule="evenodd" fill-opacity="1" /><path clip-path="url(#clip640)" d="M2226.93 156.181 Q2230.28 156.899 2232.16 159.167 Q2234.06 161.436 2234.06 164.769 Q2234.06 169.885 2230.54 172.686 Q2227.02 175.487 2220.54 175.487 Q2218.36 175.487 2216.05 175.047 Q2213.76 174.63 2211.3 173.774 L2211.3 169.26 Q2213.25 170.394 2215.56 170.973 Q2217.88 171.551 2220.4 171.551 Q2224.8 171.551 2227.09 169.815 Q2229.4 168.079 2229.4 164.769 Q2229.4 161.713 2227.25 160.001 Q2225.12 158.264 2221.3 158.264 L2217.27 158.264 L2217.27 154.422 L2221.49 154.422 Q2224.94 154.422 2226.77 153.056 Q2228.59 151.667 2228.59 149.075 Q2228.59 146.413 2226.7 145.001 Q2224.82 143.565 2221.3 143.565 Q2219.38 143.565 2217.18 143.982 Q2214.98 144.399 2212.34 145.278 L2212.34 141.112 Q2215.01 140.371 2217.32 140.001 Q2219.66 139.63 2221.72 139.63 Q2227.04 139.63 2230.14 142.061 Q2233.25 144.468 2233.25 148.589 Q2233.25 151.459 2231.6 153.45 Q2229.96 155.417 2226.93 156.181 Z" fill="#000000" fill-rule="evenodd" fill-opacity="1" /><path clip-path="url(#clip640)" d="M2274.73 145.093 L2274.73 157.987 L2287.62 157.987 L2287.62 161.922 L2274.73 161.922 L2274.73 174.815 L2270.84 174.815 L2270.84 161.922 L2257.95 161.922 L2257.95 157.987 L2270.84 157.987 L2270.84 145.093 L2274.73 145.093 Z" fill="#000000" fill-rule="evenodd" fill-opacity="1" /><path clip-path="url(#clip640)" d="M2313.59 170.88 L2321.23 170.88 L2321.23 144.515 L2312.92 146.181 L2312.92 141.922 L2321.19 140.255 L2325.86 140.255 L2325.86 170.88 L2333.5 170.88 L2333.5 174.815 L2313.59 174.815 L2313.59 170.88 Z" fill="#000000" fill-rule="evenodd" fill-opacity="1" /><path clip-path="url(#clip640)" d="M2342.95 168.936 L2347.83 168.936 L2347.83 174.815 L2342.95 174.815 L2342.95 168.936 Z" fill="#000000" fill-rule="evenodd" fill-opacity="1" /><path clip-path="url(#clip640)" d="M2368.01 143.334 Q2364.4 143.334 2362.57 146.899 Q2360.77 150.44 2360.77 157.57 Q2360.77 164.676 2362.57 168.241 Q2364.4 171.783 2368.01 171.783 Q2371.65 171.783 2373.45 168.241 Q2375.28 164.676 2375.28 157.57 Q2375.28 150.44 2373.45 146.899 Q2371.65 143.334 2368.01 143.334 M2368.01 139.63 Q2373.82 139.63 2376.88 144.237 Q2379.96 148.82 2379.96 157.57 Q2379.96 166.297 2376.88 170.903 Q2373.82 175.487 2368.01 175.487 Q2362.2 175.487 2359.13 170.903 Q2356.07 166.297 2356.07 157.57 Q2356.07 148.82 2359.13 144.237 Q2362.2 139.63 2368.01 139.63 Z" fill="#000000" fill-rule="evenodd" fill-opacity="1" /><path clip-path="url(#clip640)" d="M2405.4 145.95 L2397.09 150.44 L2405.4 154.954 L2404.06 157.223 L2396.28 152.524 L2396.28 161.251 L2393.64 161.251 L2393.64 152.524 L2385.86 157.223 L2384.52 154.954 L2392.83 150.44 L2384.52 145.95 L2385.86 143.658 L2393.64 148.357 L2393.64 139.63 L2396.28 139.63 L2396.28 148.357 L2404.06 143.658 L2405.4 145.95 Z" fill="#000000" fill-rule="evenodd" fill-opacity="1" /><path clip-path="url(#clip640)" d="M2432.83 148.889 L2423.45 161.505 L2433.32 174.815 L2428.29 174.815 L2420.75 164.63 L2413.2 174.815 L2408.18 174.815 L2418.25 161.251 L2409.03 148.889 L2414.06 148.889 L2420.93 158.126 L2427.81 148.889 L2432.83 148.889 Z" fill="#000000" fill-rule="evenodd" fill-opacity="1" /><path clip-path="url(#clip640)" d="M2457 140.255 L2469.56 153.149 L2464.91 153.149 L2454.73 144.005 L2444.54 153.149 L2439.89 153.149 L2452.46 140.255 L2457 140.255 Z" fill="#000000" fill-rule="evenodd" fill-opacity="1" /><path clip-path="url(#clip640)" d="M2492.5 144.329 L2480.7 162.778 L2492.5 162.778 L2492.5 144.329 M2491.28 140.255 L2497.16 140.255 L2497.16 162.778 L2502.09 162.778 L2502.09 166.667 L2497.16 166.667 L2497.16 174.815 L2492.5 174.815 L2492.5 166.667 L2476.9 166.667 L2476.9 162.153 L2491.28 140.255 Z" fill="#000000" fill-rule="evenodd" fill-opacity="1" /></svg>
