<?xml version="1.0" encoding="utf-8"?>
<svg xmlns="http://www.w3.org/2000/svg" xmlns:xlink="http://www.w3.org/1999/xlink" width="672" height="480" viewBox="0 0 2688 1920">
<defs>
  <clipPath id="clip610">
    <rect x="0" y="0" width="2688" height="1920"/>
  </clipPath>
</defs>
<path clip-path="url(#clip610)" d="
M0 1920 L2688 1920 L2688 0 L0 0  Z
  " fill="#ffffff" fill-rule="evenodd" fill-opacity="1"/>
<defs>
  <clipPath id="clip611">
    <rect x="537" y="0" width="1883" height="1883"/>
  </clipPath>
</defs>
<path clip-path="url(#clip610)" d="
M189.316 1800.78 L2640.76 1800.78 L2640.76 47.2441 L189.316 47.2441  Z
  " fill="#ffffff" fill-rule="evenodd" fill-opacity="1"/>
<defs>
  <clipPath id="clip612">
    <rect x="189" y="47" width="2452" height="1755"/>
  </clipPath>
</defs>
<polyline clip-path="url(#clip612)" style="stroke:#000000; stroke-linecap:butt; stroke-linejoin:round; stroke-width:2; stroke-opacity:0.1; fill:none" points="
  258.696,1800.78 258.696,47.2441 
  "/>
<polyline clip-path="url(#clip612)" style="stroke:#000000; stroke-linecap:butt; stroke-linejoin:round; stroke-width:2; stroke-opacity:0.1; fill:none" points="
  836.866,1800.78 836.866,47.2441 
  "/>
<polyline clip-path="url(#clip612)" style="stroke:#000000; stroke-linecap:butt; stroke-linejoin:round; stroke-width:2; stroke-opacity:0.1; fill:none" points="
  1415.04,1800.78 1415.04,47.2441 
  "/>
<polyline clip-path="url(#clip612)" style="stroke:#000000; stroke-linecap:butt; stroke-linejoin:round; stroke-width:2; stroke-opacity:0.1; fill:none" points="
  1993.21,1800.78 1993.21,47.2441 
  "/>
<polyline clip-path="url(#clip612)" style="stroke:#000000; stroke-linecap:butt; stroke-linejoin:round; stroke-width:2; stroke-opacity:0.1; fill:none" points="
  2571.38,1800.78 2571.38,47.2441 
  "/>
<polyline clip-path="url(#clip610)" style="stroke:#000000; stroke-linecap:butt; stroke-linejoin:round; stroke-width:4; stroke-opacity:1; fill:none" points="
  189.316,1800.78 2640.76,1800.78 
  "/>
<polyline clip-path="url(#clip610)" style="stroke:#000000; stroke-linecap:butt; stroke-linejoin:round; stroke-width:4; stroke-opacity:1; fill:none" points="
  258.696,1800.78 258.696,1781.88 
  "/>
<polyline clip-path="url(#clip610)" style="stroke:#000000; stroke-linecap:butt; stroke-linejoin:round; stroke-width:4; stroke-opacity:1; fill:none" points="
  836.866,1800.78 836.866,1781.88 
  "/>
<polyline clip-path="url(#clip610)" style="stroke:#000000; stroke-linecap:butt; stroke-linejoin:round; stroke-width:4; stroke-opacity:1; fill:none" points="
  1415.04,1800.78 1415.04,1781.88 
  "/>
<polyline clip-path="url(#clip610)" style="stroke:#000000; stroke-linecap:butt; stroke-linejoin:round; stroke-width:4; stroke-opacity:1; fill:none" points="
  1993.21,1800.78 1993.21,1781.88 
  "/>
<polyline clip-path="url(#clip610)" style="stroke:#000000; stroke-linecap:butt; stroke-linejoin:round; stroke-width:4; stroke-opacity:1; fill:none" points="
  2571.38,1800.78 2571.38,1781.88 
  "/>
<path clip-path="url(#clip610)" d="M210.768 1861.55 L218.407 1861.55 L218.407 1835.18 L210.097 1836.85 L210.097 1832.59 L218.361 1830.92 L223.037 1830.92 L223.037 1861.55 L230.676 1861.55 L230.676 1865.48 L210.768 1865.48 L210.768 1861.55 Z" fill="#000000" fill-rule="evenodd" fill-opacity="1" /><path clip-path="url(#clip610)" d="M250.12 1834 Q246.509 1834 244.68 1837.57 Q242.875 1841.11 242.875 1848.24 Q242.875 1855.34 244.68 1858.91 Q246.509 1862.45 250.12 1862.45 Q253.754 1862.45 255.56 1858.91 Q257.389 1855.34 257.389 1848.24 Q257.389 1841.11 255.56 1837.57 Q253.754 1834 250.12 1834 M250.12 1830.3 Q255.93 1830.3 258.986 1834.9 Q262.064 1839.49 262.064 1848.24 Q262.064 1856.96 258.986 1861.57 Q255.93 1866.15 250.12 1866.15 Q244.31 1866.15 241.231 1861.57 Q238.176 1856.96 238.176 1848.24 Q238.176 1839.49 241.231 1834.9 Q244.31 1830.3 250.12 1830.3 Z" fill="#000000" fill-rule="evenodd" fill-opacity="1" /><path clip-path="url(#clip610)" d="M270.282 1859.6 L275.166 1859.6 L275.166 1865.48 L270.282 1865.48 L270.282 1859.6 Z" fill="#000000" fill-rule="evenodd" fill-opacity="1" /><path clip-path="url(#clip610)" d="M295.351 1834 Q291.74 1834 289.912 1837.57 Q288.106 1841.11 288.106 1848.24 Q288.106 1855.34 289.912 1858.91 Q291.74 1862.45 295.351 1862.45 Q298.986 1862.45 300.791 1858.91 Q302.62 1855.34 302.62 1848.24 Q302.62 1841.11 300.791 1837.57 Q298.986 1834 295.351 1834 M295.351 1830.3 Q301.161 1830.3 304.217 1834.9 Q307.296 1839.49 307.296 1848.24 Q307.296 1856.96 304.217 1861.57 Q301.161 1866.15 295.351 1866.15 Q289.541 1866.15 286.462 1861.57 Q283.407 1856.96 283.407 1848.24 Q283.407 1839.49 286.462 1834.9 Q289.541 1830.3 295.351 1830.3 Z" fill="#000000" fill-rule="evenodd" fill-opacity="1" /><path clip-path="url(#clip610)" d="M789.436 1861.55 L797.075 1861.55 L797.075 1835.18 L788.765 1836.85 L788.765 1832.59 L797.028 1830.92 L801.704 1830.92 L801.704 1861.55 L809.343 1861.55 L809.343 1865.48 L789.436 1865.48 L789.436 1861.55 Z" fill="#000000" fill-rule="evenodd" fill-opacity="1" /><path clip-path="url(#clip610)" d="M822.815 1861.55 L839.135 1861.55 L839.135 1865.48 L817.19 1865.48 L817.19 1861.55 Q819.852 1858.79 824.436 1854.16 Q829.042 1849.51 830.223 1848.17 Q832.468 1845.65 833.348 1843.91 Q834.25 1842.15 834.25 1840.46 Q834.25 1837.71 832.306 1835.97 Q830.385 1834.23 827.283 1834.23 Q825.084 1834.23 822.63 1835 Q820.2 1835.76 817.422 1837.31 L817.422 1832.59 Q820.246 1831.46 822.7 1830.88 Q825.153 1830.3 827.19 1830.3 Q832.561 1830.3 835.755 1832.98 Q838.95 1835.67 838.95 1840.16 Q838.95 1842.29 838.139 1844.21 Q837.352 1846.11 835.246 1848.7 Q834.667 1849.37 831.565 1852.59 Q828.463 1855.78 822.815 1861.55 Z" fill="#000000" fill-rule="evenodd" fill-opacity="1" /><path clip-path="url(#clip610)" d="M848.949 1859.6 L853.834 1859.6 L853.834 1865.48 L848.949 1865.48 L848.949 1859.6 Z" fill="#000000" fill-rule="evenodd" fill-opacity="1" /><path clip-path="url(#clip610)" d="M864.065 1830.92 L882.422 1830.92 L882.422 1834.86 L868.348 1834.86 L868.348 1843.33 Q869.366 1842.98 870.385 1842.82 Q871.403 1842.64 872.422 1842.64 Q878.209 1842.64 881.588 1845.81 Q884.968 1848.98 884.968 1854.4 Q884.968 1859.97 881.496 1863.08 Q878.023 1866.15 871.704 1866.15 Q869.528 1866.15 867.26 1865.78 Q865.014 1865.41 862.607 1864.67 L862.607 1859.97 Q864.69 1861.11 866.912 1861.66 Q869.135 1862.22 871.611 1862.22 Q875.616 1862.22 877.954 1860.11 Q880.292 1858.01 880.292 1854.4 Q880.292 1850.78 877.954 1848.68 Q875.616 1846.57 871.611 1846.57 Q869.736 1846.57 867.861 1846.99 Q866.01 1847.4 864.065 1848.28 L864.065 1830.92 Z" fill="#000000" fill-rule="evenodd" fill-opacity="1" /><path clip-path="url(#clip610)" d="M1367.11 1861.55 L1374.75 1861.55 L1374.75 1835.18 L1366.44 1836.85 L1366.44 1832.59 L1374.7 1830.92 L1379.38 1830.92 L1379.38 1861.55 L1387.02 1861.55 L1387.02 1865.48 L1367.11 1865.48 L1367.11 1861.55 Z" fill="#000000" fill-rule="evenodd" fill-opacity="1" /><path clip-path="url(#clip610)" d="M1396.51 1830.92 L1414.86 1830.92 L1414.86 1834.86 L1400.79 1834.86 L1400.79 1843.33 Q1401.81 1842.98 1402.83 1842.82 Q1403.84 1842.64 1404.86 1842.64 Q1410.65 1842.64 1414.03 1845.81 Q1417.41 1848.98 1417.41 1854.4 Q1417.41 1859.97 1413.94 1863.08 Q1410.46 1866.15 1404.14 1866.15 Q1401.97 1866.15 1399.7 1865.78 Q1397.46 1865.41 1395.05 1864.67 L1395.05 1859.97 Q1397.13 1861.11 1399.35 1861.66 Q1401.58 1862.22 1404.05 1862.22 Q1408.06 1862.22 1410.39 1860.11 Q1412.73 1858.01 1412.73 1854.4 Q1412.73 1850.78 1410.39 1848.68 Q1408.06 1846.57 1404.05 1846.57 Q1402.18 1846.57 1400.3 1846.99 Q1398.45 1847.4 1396.51 1848.28 L1396.51 1830.92 Z" fill="#000000" fill-rule="evenodd" fill-opacity="1" /><path clip-path="url(#clip610)" d="M1426.62 1859.6 L1431.51 1859.6 L1431.51 1865.48 L1426.62 1865.48 L1426.62 1859.6 Z" fill="#000000" fill-rule="evenodd" fill-opacity="1" /><path clip-path="url(#clip610)" d="M1451.69 1834 Q1448.08 1834 1446.25 1837.57 Q1444.45 1841.11 1444.45 1848.24 Q1444.45 1855.34 1446.25 1858.91 Q1448.08 1862.45 1451.69 1862.45 Q1455.33 1862.45 1457.13 1858.91 Q1458.96 1855.34 1458.96 1848.24 Q1458.96 1841.11 1457.13 1837.57 Q1455.33 1834 1451.69 1834 M1451.69 1830.3 Q1457.5 1830.3 1460.56 1834.9 Q1463.64 1839.49 1463.64 1848.24 Q1463.64 1856.96 1460.56 1861.57 Q1457.5 1866.15 1451.69 1866.15 Q1445.88 1866.15 1442.8 1861.57 Q1439.75 1856.96 1439.75 1848.24 Q1439.75 1839.49 1442.8 1834.9 Q1445.88 1830.3 1451.69 1830.3 Z" fill="#000000" fill-rule="evenodd" fill-opacity="1" /><path clip-path="url(#clip610)" d="M1945.78 1861.55 L1953.41 1861.55 L1953.41 1835.18 L1945.1 1836.85 L1945.1 1832.59 L1953.37 1830.92 L1958.04 1830.92 L1958.04 1861.55 L1965.68 1861.55 L1965.68 1865.48 L1945.78 1865.48 L1945.78 1861.55 Z" fill="#000000" fill-rule="evenodd" fill-opacity="1" /><path clip-path="url(#clip610)" d="M1973.95 1830.92 L1996.17 1830.92 L1996.17 1832.91 L1983.62 1865.48 L1978.74 1865.48 L1990.54 1834.86 L1973.95 1834.86 L1973.95 1830.92 Z" fill="#000000" fill-rule="evenodd" fill-opacity="1" /><path clip-path="url(#clip610)" d="M2005.29 1859.6 L2010.17 1859.6 L2010.17 1865.48 L2005.29 1865.48 L2005.29 1859.6 Z" fill="#000000" fill-rule="evenodd" fill-opacity="1" /><path clip-path="url(#clip610)" d="M2020.4 1830.92 L2038.76 1830.92 L2038.76 1834.86 L2024.69 1834.86 L2024.69 1843.33 Q2025.71 1842.98 2026.72 1842.82 Q2027.74 1842.64 2028.76 1842.64 Q2034.55 1842.64 2037.93 1845.81 Q2041.31 1848.98 2041.31 1854.4 Q2041.31 1859.97 2037.84 1863.08 Q2034.36 1866.15 2028.04 1866.15 Q2025.87 1866.15 2023.6 1865.78 Q2021.35 1865.41 2018.95 1864.67 L2018.95 1859.97 Q2021.03 1861.11 2023.25 1861.66 Q2025.47 1862.22 2027.95 1862.22 Q2031.96 1862.22 2034.29 1860.11 Q2036.63 1858.01 2036.63 1854.4 Q2036.63 1850.78 2034.29 1848.68 Q2031.96 1846.57 2027.95 1846.57 Q2026.08 1846.57 2024.2 1846.99 Q2022.35 1847.4 2020.4 1848.28 L2020.4 1830.92 Z" fill="#000000" fill-rule="evenodd" fill-opacity="1" /><path clip-path="url(#clip610)" d="M2527.53 1861.55 L2543.85 1861.55 L2543.85 1865.48 L2521.91 1865.48 L2521.91 1861.55 Q2524.57 1858.79 2529.15 1854.16 Q2533.76 1849.51 2534.94 1848.17 Q2537.19 1845.65 2538.07 1843.91 Q2538.97 1842.15 2538.97 1840.46 Q2538.97 1837.71 2537.02 1835.97 Q2535.1 1834.23 2532 1834.23 Q2529.8 1834.23 2527.35 1835 Q2524.92 1835.76 2522.14 1837.31 L2522.14 1832.59 Q2524.96 1831.46 2527.42 1830.88 Q2529.87 1830.3 2531.91 1830.3 Q2537.28 1830.3 2540.47 1832.98 Q2543.67 1835.67 2543.67 1840.16 Q2543.67 1842.29 2542.86 1844.21 Q2542.07 1846.11 2539.96 1848.7 Q2539.38 1849.37 2536.28 1852.59 Q2533.18 1855.78 2527.53 1861.55 Z" fill="#000000" fill-rule="evenodd" fill-opacity="1" /><path clip-path="url(#clip610)" d="M2563.67 1834 Q2560.06 1834 2558.23 1837.57 Q2556.42 1841.11 2556.42 1848.24 Q2556.42 1855.34 2558.23 1858.91 Q2560.06 1862.45 2563.67 1862.45 Q2567.3 1862.45 2569.11 1858.91 Q2570.94 1855.34 2570.94 1848.24 Q2570.94 1841.11 2569.11 1837.57 Q2567.3 1834 2563.67 1834 M2563.67 1830.3 Q2569.48 1830.3 2572.53 1834.9 Q2575.61 1839.49 2575.61 1848.24 Q2575.61 1856.96 2572.53 1861.57 Q2569.48 1866.15 2563.67 1866.15 Q2557.86 1866.15 2554.78 1861.57 Q2551.72 1856.96 2551.72 1848.24 Q2551.72 1839.49 2554.78 1834.9 Q2557.86 1830.3 2563.67 1830.3 Z" fill="#000000" fill-rule="evenodd" fill-opacity="1" /><path clip-path="url(#clip610)" d="M2583.83 1859.6 L2588.71 1859.6 L2588.71 1865.48 L2583.83 1865.48 L2583.83 1859.6 Z" fill="#000000" fill-rule="evenodd" fill-opacity="1" /><path clip-path="url(#clip610)" d="M2608.9 1834 Q2605.29 1834 2603.46 1837.57 Q2601.65 1841.11 2601.65 1848.24 Q2601.65 1855.34 2603.46 1858.91 Q2605.29 1862.45 2608.9 1862.45 Q2612.53 1862.45 2614.34 1858.91 Q2616.17 1855.34 2616.17 1848.24 Q2616.17 1841.11 2614.34 1837.57 Q2612.53 1834 2608.9 1834 M2608.9 1830.3 Q2614.71 1830.3 2617.76 1834.9 Q2620.84 1839.49 2620.84 1848.24 Q2620.84 1856.96 2617.76 1861.57 Q2614.71 1866.15 2608.9 1866.15 Q2603.09 1866.15 2600.01 1861.57 Q2596.95 1856.96 2596.95 1848.24 Q2596.95 1839.49 2600.01 1834.9 Q2603.09 1830.3 2608.9 1830.3 Z" fill="#000000" fill-rule="evenodd" fill-opacity="1" /><polyline clip-path="url(#clip612)" style="stroke:#000000; stroke-linecap:butt; stroke-linejoin:round; stroke-width:2; stroke-opacity:0.1; fill:none" points="
  189.316,1751.15 2640.76,1751.15 
  "/>
<polyline clip-path="url(#clip612)" style="stroke:#000000; stroke-linecap:butt; stroke-linejoin:round; stroke-width:2; stroke-opacity:0.1; fill:none" points="
  189.316,1420.3 2640.76,1420.3 
  "/>
<polyline clip-path="url(#clip612)" style="stroke:#000000; stroke-linecap:butt; stroke-linejoin:round; stroke-width:2; stroke-opacity:0.1; fill:none" points="
  189.316,1089.44 2640.76,1089.44 
  "/>
<polyline clip-path="url(#clip612)" style="stroke:#000000; stroke-linecap:butt; stroke-linejoin:round; stroke-width:2; stroke-opacity:0.1; fill:none" points="
  189.316,758.584 2640.76,758.584 
  "/>
<polyline clip-path="url(#clip612)" style="stroke:#000000; stroke-linecap:butt; stroke-linejoin:round; stroke-width:2; stroke-opacity:0.1; fill:none" points="
  189.316,427.728 2640.76,427.728 
  "/>
<polyline clip-path="url(#clip612)" style="stroke:#000000; stroke-linecap:butt; stroke-linejoin:round; stroke-width:2; stroke-opacity:0.1; fill:none" points="
  189.316,96.8724 2640.76,96.8724 
  "/>
<polyline clip-path="url(#clip610)" style="stroke:#000000; stroke-linecap:butt; stroke-linejoin:round; stroke-width:4; stroke-opacity:1; fill:none" points="
  189.316,1800.78 189.316,47.2441 
  "/>
<polyline clip-path="url(#clip610)" style="stroke:#000000; stroke-linecap:butt; stroke-linejoin:round; stroke-width:4; stroke-opacity:1; fill:none" points="
  189.316,1751.15 208.214,1751.15 
  "/>
<polyline clip-path="url(#clip610)" style="stroke:#000000; stroke-linecap:butt; stroke-linejoin:round; stroke-width:4; stroke-opacity:1; fill:none" points="
  189.316,1420.3 208.214,1420.3 
  "/>
<polyline clip-path="url(#clip610)" style="stroke:#000000; stroke-linecap:butt; stroke-linejoin:round; stroke-width:4; stroke-opacity:1; fill:none" points="
  189.316,1089.44 208.214,1089.44 
  "/>
<polyline clip-path="url(#clip610)" style="stroke:#000000; stroke-linecap:butt; stroke-linejoin:round; stroke-width:4; stroke-opacity:1; fill:none" points="
  189.316,758.584 208.214,758.584 
  "/>
<polyline clip-path="url(#clip610)" style="stroke:#000000; stroke-linecap:butt; stroke-linejoin:round; stroke-width:4; stroke-opacity:1; fill:none" points="
  189.316,427.728 208.214,427.728 
  "/>
<polyline clip-path="url(#clip610)" style="stroke:#000000; stroke-linecap:butt; stroke-linejoin:round; stroke-width:4; stroke-opacity:1; fill:none" points="
  189.316,96.8724 208.214,96.8724 
  "/>
<path clip-path="url(#clip610)" d="M62.6539 1736.95 Q59.0428 1736.95 57.2141 1740.51 Q55.4086 1744.06 55.4086 1751.19 Q55.4086 1758.29 57.2141 1761.86 Q59.0428 1765.4 62.6539 1765.4 Q66.2881 1765.4 68.0937 1761.86 Q69.9224 1758.29 69.9224 1751.19 Q69.9224 1744.06 68.0937 1740.51 Q66.2881 1736.95 62.6539 1736.95 M62.6539 1733.25 Q68.4641 1733.25 71.5196 1737.85 Q74.5983 1742.44 74.5983 1751.19 Q74.5983 1759.91 71.5196 1764.52 Q68.4641 1769.1 62.6539 1769.1 Q56.8438 1769.1 53.7651 1764.52 Q50.7095 1759.91 50.7095 1751.19 Q50.7095 1742.44 53.7651 1737.85 Q56.8438 1733.25 62.6539 1733.25 Z" fill="#000000" fill-rule="evenodd" fill-opacity="1" /><path clip-path="url(#clip610)" d="M82.8158 1762.55 L87.7001 1762.55 L87.7001 1768.43 L82.8158 1768.43 L82.8158 1762.55 Z" fill="#000000" fill-rule="evenodd" fill-opacity="1" /><path clip-path="url(#clip610)" d="M107.885 1736.95 Q104.274 1736.95 102.445 1740.51 Q100.64 1744.06 100.64 1751.19 Q100.64 1758.29 102.445 1761.86 Q104.274 1765.4 107.885 1765.4 Q111.519 1765.4 113.325 1761.86 Q115.154 1758.29 115.154 1751.19 Q115.154 1744.06 113.325 1740.51 Q111.519 1736.95 107.885 1736.95 M107.885 1733.25 Q113.695 1733.25 116.751 1737.85 Q119.83 1742.44 119.83 1751.19 Q119.83 1759.91 116.751 1764.52 Q113.695 1769.1 107.885 1769.1 Q102.075 1769.1 98.9963 1764.52 Q95.9408 1759.91 95.9408 1751.19 Q95.9408 1742.44 98.9963 1737.85 Q102.075 1733.25 107.885 1733.25 Z" fill="#000000" fill-rule="evenodd" fill-opacity="1" /><path clip-path="url(#clip610)" d="M128.093 1733.87 L146.45 1733.87 L146.45 1737.81 L132.376 1737.81 L132.376 1746.28 Q133.394 1745.93 134.413 1745.77 Q135.431 1745.58 136.45 1745.58 Q142.237 1745.58 145.616 1748.76 Q148.996 1751.93 148.996 1757.34 Q148.996 1762.92 145.524 1766.02 Q142.052 1769.1 135.732 1769.1 Q133.556 1769.1 131.288 1768.73 Q129.042 1768.36 126.635 1767.62 L126.635 1762.92 Q128.718 1764.06 130.941 1764.61 Q133.163 1765.17 135.64 1765.17 Q139.644 1765.17 141.982 1763.06 Q144.32 1760.95 144.32 1757.34 Q144.32 1753.73 141.982 1751.63 Q139.644 1749.52 135.64 1749.52 Q133.765 1749.52 131.89 1749.94 Q130.038 1750.35 128.093 1751.23 L128.093 1733.87 Z" fill="#000000" fill-rule="evenodd" fill-opacity="1" /><path clip-path="url(#clip610)" d="M61.4965 1406.09 Q57.8854 1406.09 56.0567 1409.66 Q54.2512 1413.2 54.2512 1420.33 Q54.2512 1427.44 56.0567 1431 Q57.8854 1434.54 61.4965 1434.54 Q65.1307 1434.54 66.9363 1431 Q68.765 1427.44 68.765 1420.33 Q68.765 1413.2 66.9363 1409.66 Q65.1307 1406.09 61.4965 1406.09 M61.4965 1402.39 Q67.3067 1402.39 70.3622 1407 Q73.4409 1411.58 73.4409 1420.33 Q73.4409 1429.06 70.3622 1433.66 Q67.3067 1438.25 61.4965 1438.25 Q55.6864 1438.25 52.6077 1433.66 Q49.5521 1429.06 49.5521 1420.33 Q49.5521 1411.58 52.6077 1407 Q55.6864 1402.39 61.4965 1402.39 Z" fill="#000000" fill-rule="evenodd" fill-opacity="1" /><path clip-path="url(#clip610)" d="M81.6584 1431.7 L86.5427 1431.7 L86.5427 1437.58 L81.6584 1437.58 L81.6584 1431.7 Z" fill="#000000" fill-rule="evenodd" fill-opacity="1" /><path clip-path="url(#clip610)" d="M106.728 1406.09 Q103.117 1406.09 101.288 1409.66 Q99.4824 1413.2 99.4824 1420.33 Q99.4824 1427.44 101.288 1431 Q103.117 1434.54 106.728 1434.54 Q110.362 1434.54 112.168 1431 Q113.996 1427.44 113.996 1420.33 Q113.996 1413.2 112.168 1409.66 Q110.362 1406.09 106.728 1406.09 M106.728 1402.39 Q112.538 1402.39 115.593 1407 Q118.672 1411.58 118.672 1420.33 Q118.672 1429.06 115.593 1433.66 Q112.538 1438.25 106.728 1438.25 Q100.918 1438.25 97.8389 1433.66 Q94.7834 1429.06 94.7834 1420.33 Q94.7834 1411.58 97.8389 1407 Q100.918 1402.39 106.728 1402.39 Z" fill="#000000" fill-rule="evenodd" fill-opacity="1" /><path clip-path="url(#clip610)" d="M137.468 1418.43 Q134.32 1418.43 132.468 1420.58 Q130.64 1422.74 130.64 1426.49 Q130.64 1430.21 132.468 1432.39 Q134.32 1434.54 137.468 1434.54 Q140.616 1434.54 142.445 1432.39 Q144.297 1430.21 144.297 1426.49 Q144.297 1422.74 142.445 1420.58 Q140.616 1418.43 137.468 1418.43 M146.751 1403.78 L146.751 1408.04 Q144.991 1407.21 143.186 1406.77 Q141.403 1406.33 139.644 1406.33 Q135.015 1406.33 132.561 1409.45 Q130.13 1412.58 129.783 1418.89 Q131.149 1416.88 133.209 1415.82 Q135.269 1414.73 137.746 1414.73 Q142.954 1414.73 145.964 1417.9 Q148.996 1421.05 148.996 1426.49 Q148.996 1431.81 145.848 1435.03 Q142.7 1438.25 137.468 1438.25 Q131.473 1438.25 128.302 1433.66 Q125.13 1429.06 125.13 1420.33 Q125.13 1412.14 129.019 1407.27 Q132.908 1402.39 139.459 1402.39 Q141.218 1402.39 143.001 1402.74 Q144.806 1403.08 146.751 1403.78 Z" fill="#000000" fill-rule="evenodd" fill-opacity="1" /><path clip-path="url(#clip610)" d="M62.5613 1075.24 Q58.9502 1075.24 57.1215 1078.8 Q55.316 1082.34 55.316 1089.47 Q55.316 1096.58 57.1215 1100.15 Q58.9502 1103.69 62.5613 1103.69 Q66.1956 1103.69 68.0011 1100.15 Q69.8298 1096.58 69.8298 1089.47 Q69.8298 1082.34 68.0011 1078.8 Q66.1956 1075.24 62.5613 1075.24 M62.5613 1071.53 Q68.3715 1071.53 71.427 1076.14 Q74.5057 1080.72 74.5057 1089.47 Q74.5057 1098.2 71.427 1102.81 Q68.3715 1107.39 62.5613 1107.39 Q56.7512 1107.39 53.6725 1102.81 Q50.6169 1098.2 50.6169 1089.47 Q50.6169 1080.72 53.6725 1076.14 Q56.7512 1071.53 62.5613 1071.53 Z" fill="#000000" fill-rule="evenodd" fill-opacity="1" /><path clip-path="url(#clip610)" d="M82.7232 1100.84 L87.6075 1100.84 L87.6075 1106.72 L82.7232 1106.72 L82.7232 1100.84 Z" fill="#000000" fill-rule="evenodd" fill-opacity="1" /><path clip-path="url(#clip610)" d="M107.793 1075.24 Q104.181 1075.24 102.353 1078.8 Q100.547 1082.34 100.547 1089.47 Q100.547 1096.58 102.353 1100.15 Q104.181 1103.69 107.793 1103.69 Q111.427 1103.69 113.232 1100.15 Q115.061 1096.58 115.061 1089.47 Q115.061 1082.34 113.232 1078.8 Q111.427 1075.24 107.793 1075.24 M107.793 1071.53 Q113.603 1071.53 116.658 1076.14 Q119.737 1080.72 119.737 1089.47 Q119.737 1098.2 116.658 1102.81 Q113.603 1107.39 107.793 1107.39 Q101.982 1107.39 98.9037 1102.81 Q95.8482 1098.2 95.8482 1089.47 Q95.8482 1080.72 98.9037 1076.14 Q101.982 1071.53 107.793 1071.53 Z" fill="#000000" fill-rule="evenodd" fill-opacity="1" /><path clip-path="url(#clip610)" d="M126.774 1072.16 L148.996 1072.16 L148.996 1074.15 L136.45 1106.72 L131.566 1106.72 L143.371 1076.09 L126.774 1076.09 L126.774 1072.16 Z" fill="#000000" fill-rule="evenodd" fill-opacity="1" /><path clip-path="url(#clip610)" d="M61.7511 744.383 Q58.14 744.383 56.3113 747.947 Q54.5058 751.489 54.5058 758.619 Q54.5058 765.725 56.3113 769.29 Q58.14 772.831 61.7511 772.831 Q65.3854 772.831 67.1909 769.29 Q69.0196 765.725 69.0196 758.619 Q69.0196 751.489 67.1909 747.947 Q65.3854 744.383 61.7511 744.383 M61.7511 740.679 Q67.5613 740.679 70.6168 745.285 Q73.6955 749.869 73.6955 758.619 Q73.6955 767.345 70.6168 771.952 Q67.5613 776.535 61.7511 776.535 Q55.941 776.535 52.8623 771.952 Q49.8068 767.345 49.8068 758.619 Q49.8068 749.869 52.8623 745.285 Q55.941 740.679 61.7511 740.679 Z" fill="#000000" fill-rule="evenodd" fill-opacity="1" /><path clip-path="url(#clip610)" d="M81.9131 769.984 L86.7973 769.984 L86.7973 775.864 L81.9131 775.864 L81.9131 769.984 Z" fill="#000000" fill-rule="evenodd" fill-opacity="1" /><path clip-path="url(#clip610)" d="M106.982 744.383 Q103.371 744.383 101.543 747.947 Q99.737 751.489 99.737 758.619 Q99.737 765.725 101.543 769.29 Q103.371 772.831 106.982 772.831 Q110.617 772.831 112.422 769.29 Q114.251 765.725 114.251 758.619 Q114.251 751.489 112.422 747.947 Q110.617 744.383 106.982 744.383 M106.982 740.679 Q112.793 740.679 115.848 745.285 Q118.927 749.869 118.927 758.619 Q118.927 767.345 115.848 771.952 Q112.793 776.535 106.982 776.535 Q101.172 776.535 98.0935 771.952 Q95.038 767.345 95.038 758.619 Q95.038 749.869 98.0935 745.285 Q101.172 740.679 106.982 740.679 Z" fill="#000000" fill-rule="evenodd" fill-opacity="1" /><path clip-path="url(#clip610)" d="M137.144 759.452 Q133.811 759.452 131.89 761.234 Q129.992 763.017 129.992 766.142 Q129.992 769.267 131.89 771.049 Q133.811 772.831 137.144 772.831 Q140.478 772.831 142.399 771.049 Q144.32 769.244 144.32 766.142 Q144.32 763.017 142.399 761.234 Q140.501 759.452 137.144 759.452 M132.468 757.461 Q129.459 756.72 127.769 754.66 Q126.103 752.6 126.103 749.637 Q126.103 745.494 129.042 743.086 Q132.005 740.679 137.144 740.679 Q142.306 740.679 145.246 743.086 Q148.186 745.494 148.186 749.637 Q148.186 752.6 146.496 754.66 Q144.829 756.72 141.843 757.461 Q145.223 758.248 147.098 760.54 Q148.996 762.832 148.996 766.142 Q148.996 771.165 145.917 773.85 Q142.862 776.535 137.144 776.535 Q131.427 776.535 128.348 773.85 Q125.292 771.165 125.292 766.142 Q125.292 762.832 127.191 760.54 Q129.089 758.248 132.468 757.461 M130.755 750.077 Q130.755 752.762 132.422 754.267 Q134.112 755.771 137.144 755.771 Q140.153 755.771 141.843 754.267 Q143.556 752.762 143.556 750.077 Q143.556 747.392 141.843 745.887 Q140.153 744.383 137.144 744.383 Q134.112 744.383 132.422 745.887 Q130.755 747.392 130.755 750.077 Z" fill="#000000" fill-rule="evenodd" fill-opacity="1" /><path clip-path="url(#clip610)" d="M61.8437 413.527 Q58.2326 413.527 56.4039 417.092 Q54.5984 420.633 54.5984 427.763 Q54.5984 434.869 56.4039 438.434 Q58.2326 441.976 61.8437 441.976 Q65.478 441.976 67.2835 438.434 Q69.1122 434.869 69.1122 427.763 Q69.1122 420.633 67.2835 417.092 Q65.478 413.527 61.8437 413.527 M61.8437 409.823 Q67.6539 409.823 70.7094 414.43 Q73.7881 419.013 73.7881 427.763 Q73.7881 436.49 70.7094 441.096 Q67.6539 445.679 61.8437 445.679 Q56.0336 445.679 52.9549 441.096 Q49.8993 436.49 49.8993 427.763 Q49.8993 419.013 52.9549 414.43 Q56.0336 409.823 61.8437 409.823 Z" fill="#000000" fill-rule="evenodd" fill-opacity="1" /><path clip-path="url(#clip610)" d="M82.0057 439.129 L86.8899 439.129 L86.8899 445.008 L82.0057 445.008 L82.0057 439.129 Z" fill="#000000" fill-rule="evenodd" fill-opacity="1" /><path clip-path="url(#clip610)" d="M107.075 413.527 Q103.464 413.527 101.635 417.092 Q99.8296 420.633 99.8296 427.763 Q99.8296 434.869 101.635 438.434 Q103.464 441.976 107.075 441.976 Q110.709 441.976 112.515 438.434 Q114.343 434.869 114.343 427.763 Q114.343 420.633 112.515 417.092 Q110.709 413.527 107.075 413.527 M107.075 409.823 Q112.885 409.823 115.941 414.43 Q119.019 419.013 119.019 427.763 Q119.019 436.49 115.941 441.096 Q112.885 445.679 107.075 445.679 Q101.265 445.679 98.1861 441.096 Q95.1306 436.49 95.1306 427.763 Q95.1306 419.013 98.1861 414.43 Q101.265 409.823 107.075 409.823 Z" fill="#000000" fill-rule="evenodd" fill-opacity="1" /><path clip-path="url(#clip610)" d="M127.376 444.291 L127.376 440.031 Q129.135 440.865 130.941 441.304 Q132.746 441.744 134.482 441.744 Q139.112 441.744 141.542 438.642 Q143.996 435.517 144.343 429.175 Q143.001 431.166 140.941 432.23 Q138.88 433.295 136.38 433.295 Q131.195 433.295 128.163 430.17 Q125.154 427.022 125.154 421.582 Q125.154 416.258 128.302 413.041 Q131.45 409.823 136.681 409.823 Q142.677 409.823 145.825 414.43 Q148.996 419.013 148.996 427.763 Q148.996 435.934 145.107 440.818 Q141.241 445.679 134.691 445.679 Q132.931 445.679 131.126 445.332 Q129.32 444.985 127.376 444.291 M136.681 429.638 Q139.829 429.638 141.658 427.485 Q143.51 425.332 143.51 421.582 Q143.51 417.856 141.658 415.703 Q139.829 413.527 136.681 413.527 Q133.533 413.527 131.681 415.703 Q129.853 417.856 129.853 421.582 Q129.853 425.332 131.681 427.485 Q133.533 429.638 136.681 429.638 Z" fill="#000000" fill-rule="evenodd" fill-opacity="1" /><path clip-path="url(#clip610)" d="M61.6585 82.6711 Q58.0475 82.6711 56.2188 86.2359 Q54.4132 89.7776 54.4132 96.9072 Q54.4132 104.014 56.2188 107.578 Q58.0475 111.12 61.6585 111.12 Q65.2928 111.12 67.0983 107.578 Q68.927 104.014 68.927 96.9072 Q68.927 89.7776 67.0983 86.2359 Q65.2928 82.6711 61.6585 82.6711 M61.6585 78.9675 Q67.4687 78.9675 70.5242 83.5739 Q73.6029 88.1572 73.6029 96.9072 Q73.6029 105.634 70.5242 110.24 Q67.4687 114.824 61.6585 114.824 Q55.8484 114.824 52.7697 110.24 Q49.7142 105.634 49.7142 96.9072 Q49.7142 88.1572 52.7697 83.5739 Q55.8484 78.9675 61.6585 78.9675 Z" fill="#000000" fill-rule="evenodd" fill-opacity="1" /><path clip-path="url(#clip610)" d="M81.8205 108.273 L86.7047 108.273 L86.7047 114.152 L81.8205 114.152 L81.8205 108.273 Z" fill="#000000" fill-rule="evenodd" fill-opacity="1" /><path clip-path="url(#clip610)" d="M97.7 110.217 L105.339 110.217 L105.339 83.8517 L97.0287 85.5183 L97.0287 81.2591 L105.293 79.5924 L109.968 79.5924 L109.968 110.217 L117.607 110.217 L117.607 114.152 L97.7 114.152 L97.7 110.217 Z" fill="#000000" fill-rule="evenodd" fill-opacity="1" /><path clip-path="url(#clip610)" d="M137.052 82.6711 Q133.441 82.6711 131.612 86.2359 Q129.806 89.7776 129.806 96.9072 Q129.806 104.014 131.612 107.578 Q133.441 111.12 137.052 111.12 Q140.686 111.12 142.491 107.578 Q144.32 104.014 144.32 96.9072 Q144.32 89.7776 142.491 86.2359 Q140.686 82.6711 137.052 82.6711 M137.052 78.9675 Q142.862 78.9675 145.917 83.5739 Q148.996 88.1572 148.996 96.9072 Q148.996 105.634 145.917 110.24 Q142.862 114.824 137.052 114.824 Q131.242 114.824 128.163 110.24 Q125.107 105.634 125.107 96.9072 Q125.107 88.1572 128.163 83.5739 Q131.242 78.9675 137.052 78.9675 Z" fill="#000000" fill-rule="evenodd" fill-opacity="1" /><polyline clip-path="url(#clip612)" style="stroke:#009af9; stroke-linecap:butt; stroke-linejoin:round; stroke-width:4; stroke-opacity:1; fill:none" points="
  258.696,96.8724 266.225,107.608 273.753,118.274 343.364,213.722 412.975,303.783 454.808,355.502 496.642,405.524 532.011,446.555 567.381,486.479 605.802,528.644 
  644.223,569.608 679.644,606.353 715.065,642.158 753.04,679.541 791.015,715.926 835.013,756.886 879.01,796.616 957.21,864.367 1025.78,920.946 1100.55,979.83 
  1175.76,1036.31 1258.91,1095.78 1338.03,1149.65 1420.29,1203.06 1489.54,1246.1 1574.09,1296.42 1651.54,1340.5 1723.07,1379.61 1795.52,1417.74 1876.73,1458.8 
  1950.31,1494.57 2034.56,1533.95 2112.57,1568.99 2189.48,1602.27 2264.14,1633.45 2340.69,1664.31 2424.56,1696.92 2546.38,1742.16 2571.38,1751.15 
  "/>
<path clip-path="url(#clip610)" d="
M2234.23 209.375 L2559.04 209.375 L2559.04 105.695 L2234.23 105.695  Z
  " fill="#ffffff" fill-rule="evenodd" fill-opacity="1"/>
<polyline clip-path="url(#clip610)" style="stroke:#000000; stroke-linecap:butt; stroke-linejoin:round; stroke-width:4; stroke-opacity:1; fill:none" points="
  2234.23,209.375 2559.04,209.375 2559.04,105.695 2234.23,105.695 2234.23,209.375 
  "/>
<polyline clip-path="url(#clip610)" style="stroke:#009af9; stroke-linecap:butt; stroke-linejoin:round; stroke-width:4; stroke-opacity:1; fill:none" points="
  2261.47,157.535 2424.9,157.535 
  "/>
<path clip-path="url(#clip610)" d="M2465.98 177.223 Q2464.17 181.852 2462.46 183.264 Q2460.75 184.676 2457.88 184.676 L2454.47 184.676 L2454.47 181.112 L2456.97 181.112 Q2458.73 181.112 2459.7 180.278 Q2460.68 179.445 2461.86 176.343 L2462.62 174.399 L2452.13 148.889 L2456.65 148.889 L2464.75 169.167 L2472.85 148.889 L2477.37 148.889 L2465.98 177.223 Z" fill="#000000" fill-rule="evenodd" fill-opacity="1" /><path clip-path="url(#clip610)" d="M2484.66 170.88 L2492.3 170.88 L2492.3 144.515 L2483.99 146.181 L2483.99 141.922 L2492.25 140.255 L2496.93 140.255 L2496.93 170.88 L2504.56 170.88 L2504.56 174.815 L2484.66 174.815 L2484.66 170.88 Z" fill="#000000" fill-rule="evenodd" fill-opacity="1" /></svg>
