<?xml version="1.0" encoding="utf-8"?>
<svg xmlns="http://www.w3.org/2000/svg" xmlns:xlink="http://www.w3.org/1999/xlink" width="672" height="480" viewBox="0 0 2688 1920">
<defs>
  <clipPath id="clip240">
    <rect x="0" y="0" width="2688" height="1920"/>
  </clipPath>
</defs>
<path clip-path="url(#clip240)" d="
M0 1920 L2688 1920 L2688 0 L0 0  Z
  " fill="#ffffff" fill-rule="evenodd" fill-opacity="1"/>
<defs>
  <clipPath id="clip241">
    <rect x="537" y="0" width="1883" height="1883"/>
  </clipPath>
</defs>
<defs>
  <clipPath id="clip242">
    <rect x="115" y="47" width="2527" height="1755"/>
  </clipPath>
</defs>
<path clip-path="url(#clip242)" d="
M764.564 1395.03 L660.168 565.142 L1224.7 275.649 L2025.74 426.509 L1939.47 1204.79 L1565.94 1719.76 L764.564 1395.03  Z
  " fill="#ffffff" fill-rule="evenodd" fill-opacity="1"/>
<polyline clip-path="url(#clip242)" style="stroke:#000000; stroke-linecap:butt; stroke-linejoin:round; stroke-width:2; stroke-opacity:0.1; fill:none" points="
  748.851,1431.83 1253.69,1001.27 
  "/>
<polyline clip-path="url(#clip242)" style="stroke:#000000; stroke-linecap:butt; stroke-linejoin:round; stroke-width:2; stroke-opacity:0.1; fill:none" points="
  1253.69,1001.27 1236.79,240.755 
  "/>
<polyline clip-path="url(#clip242)" style="stroke:#000000; stroke-linecap:butt; stroke-linejoin:round; stroke-width:2; stroke-opacity:0.1; fill:none" points="
  930.633,1505.5 1414.66,1050.57 
  "/>
<polyline clip-path="url(#clip242)" style="stroke:#000000; stroke-linecap:butt; stroke-linejoin:round; stroke-width:2; stroke-opacity:0.1; fill:none" points="
  1414.66,1050.57 1419.8,275.222 
  "/>
<polyline clip-path="url(#clip242)" style="stroke:#000000; stroke-linecap:butt; stroke-linejoin:round; stroke-width:2; stroke-opacity:0.1; fill:none" points="
  1123.94,1583.83 1583.91,1102.41 
  "/>
<polyline clip-path="url(#clip242)" style="stroke:#000000; stroke-linecap:butt; stroke-linejoin:round; stroke-width:2; stroke-opacity:0.1; fill:none" points="
  1583.91,1102.41 1613.58,311.716 
  "/>
<polyline clip-path="url(#clip242)" style="stroke:#000000; stroke-linecap:butt; stroke-linejoin:round; stroke-width:2; stroke-opacity:0.1; fill:none" points="
  1329.91,1667.29 1762.09,1156.99 
  "/>
<polyline clip-path="url(#clip242)" style="stroke:#000000; stroke-linecap:butt; stroke-linejoin:round; stroke-width:2; stroke-opacity:0.1; fill:none" points="
  1762.09,1156.99 1819.11,350.423 
  "/>
<polyline clip-path="url(#clip242)" style="stroke:#000000; stroke-linecap:butt; stroke-linejoin:round; stroke-width:2; stroke-opacity:0.1; fill:none" points="
  1549.82,1756.41 1949.93,1214.52 
  "/>
<polyline clip-path="url(#clip242)" style="stroke:#000000; stroke-linecap:butt; stroke-linejoin:round; stroke-width:2; stroke-opacity:0.1; fill:none" points="
  1949.93,1214.52 2037.48,391.55 
  "/>
<polyline clip-path="url(#clip240)" style="stroke:#000000; stroke-linecap:butt; stroke-linejoin:round; stroke-width:4; stroke-opacity:1; fill:none" points="
  727.763,1423.29 1577.22,1767.51 
  "/>
<polyline clip-path="url(#clip240)" style="stroke:#000000; stroke-linecap:butt; stroke-linejoin:round; stroke-width:4; stroke-opacity:1; fill:none" points="
  748.851,1431.83 756.216,1425.55 
  "/>
<polyline clip-path="url(#clip240)" style="stroke:#000000; stroke-linecap:butt; stroke-linejoin:round; stroke-width:4; stroke-opacity:1; fill:none" points="
  930.633,1505.5 937.733,1498.82 
  "/>
<polyline clip-path="url(#clip240)" style="stroke:#000000; stroke-linecap:butt; stroke-linejoin:round; stroke-width:4; stroke-opacity:1; fill:none" points="
  1123.94,1583.83 1130.73,1576.73 
  "/>
<polyline clip-path="url(#clip240)" style="stroke:#000000; stroke-linecap:butt; stroke-linejoin:round; stroke-width:4; stroke-opacity:1; fill:none" points="
  1329.91,1667.29 1336.33,1659.72 
  "/>
<polyline clip-path="url(#clip240)" style="stroke:#000000; stroke-linecap:butt; stroke-linejoin:round; stroke-width:4; stroke-opacity:1; fill:none" points="
  1549.82,1756.41 1555.8,1748.31 
  "/>
<path clip-path="url(#clip240)" d="M629.793 1462.18 L659.469 1462.18 L659.469 1466.12 L629.793 1466.12 L629.793 1462.18 Z" fill="#000000" fill-rule="evenodd" fill-opacity="1" /><path clip-path="url(#clip240)" d="M670.372 1475.07 L678.011 1475.07 L678.011 1448.71 L669.701 1450.37 L669.701 1446.12 L677.964 1444.45 L682.64 1444.45 L682.64 1475.07 L690.279 1475.07 L690.279 1479.01 L670.372 1479.01 L670.372 1475.07 Z" fill="#000000" fill-rule="evenodd" fill-opacity="1" /><path clip-path="url(#clip240)" d="M699.723 1473.13 L704.608 1473.13 L704.608 1479.01 L699.723 1479.01 L699.723 1473.13 Z" fill="#000000" fill-rule="evenodd" fill-opacity="1" /><path clip-path="url(#clip240)" d="M724.793 1447.53 Q721.182 1447.53 719.353 1451.09 Q717.547 1454.63 717.547 1461.76 Q717.547 1468.87 719.353 1472.43 Q721.182 1475.98 724.793 1475.98 Q728.427 1475.98 730.233 1472.43 Q732.061 1468.87 732.061 1461.76 Q732.061 1454.63 730.233 1451.09 Q728.427 1447.53 724.793 1447.53 M724.793 1443.82 Q730.603 1443.82 733.659 1448.43 Q736.737 1453.01 736.737 1461.76 Q736.737 1470.49 733.659 1475.1 Q730.603 1479.68 724.793 1479.68 Q718.983 1479.68 715.904 1475.1 Q712.848 1470.49 712.848 1461.76 Q712.848 1453.01 715.904 1448.43 Q718.983 1443.82 724.793 1443.82 Z" fill="#000000" fill-rule="evenodd" fill-opacity="1" /><path clip-path="url(#clip240)" d="M812.571 1535.84 L842.246 1535.84 L842.246 1539.78 L812.571 1539.78 L812.571 1535.84 Z" fill="#000000" fill-rule="evenodd" fill-opacity="1" /><path clip-path="url(#clip240)" d="M862.339 1521.19 Q858.728 1521.19 856.899 1524.75 Q855.094 1528.3 855.094 1535.43 Q855.094 1542.53 856.899 1546.1 Q858.728 1549.64 862.339 1549.64 Q865.973 1549.64 867.779 1546.1 Q869.607 1542.53 869.607 1535.43 Q869.607 1528.3 867.779 1524.75 Q865.973 1521.19 862.339 1521.19 M862.339 1517.49 Q868.149 1517.49 871.205 1522.09 Q874.283 1526.68 874.283 1535.43 Q874.283 1544.15 871.205 1548.76 Q868.149 1553.34 862.339 1553.34 Q856.529 1553.34 853.45 1548.76 Q850.395 1544.15 850.395 1535.43 Q850.395 1526.68 853.45 1522.09 Q856.529 1517.49 862.339 1517.49 Z" fill="#000000" fill-rule="evenodd" fill-opacity="1" /><path clip-path="url(#clip240)" d="M882.501 1546.79 L887.385 1546.79 L887.385 1552.67 L882.501 1552.67 L882.501 1546.79 Z" fill="#000000" fill-rule="evenodd" fill-opacity="1" /><path clip-path="url(#clip240)" d="M897.617 1518.11 L915.973 1518.11 L915.973 1522.05 L901.899 1522.05 L901.899 1530.52 Q902.917 1530.17 903.936 1530.01 Q904.954 1529.82 905.973 1529.82 Q911.76 1529.82 915.14 1533 Q918.519 1536.17 918.519 1541.58 Q918.519 1547.16 915.047 1550.26 Q911.575 1553.34 905.255 1553.34 Q903.079 1553.34 900.811 1552.97 Q898.566 1552.6 896.158 1551.86 L896.158 1547.16 Q898.242 1548.3 900.464 1548.85 Q902.686 1549.41 905.163 1549.41 Q909.167 1549.41 911.505 1547.3 Q913.843 1545.19 913.843 1541.58 Q913.843 1537.97 911.505 1535.87 Q909.167 1533.76 905.163 1533.76 Q903.288 1533.76 901.413 1534.18 Q899.561 1534.59 897.617 1535.47 L897.617 1518.11 Z" fill="#000000" fill-rule="evenodd" fill-opacity="1" /><path clip-path="url(#clip240)" d="M1054.65 1599.52 Q1051.04 1599.52 1049.21 1603.09 Q1047.41 1606.63 1047.41 1613.76 Q1047.41 1620.87 1049.21 1624.43 Q1051.04 1627.97 1054.65 1627.97 Q1058.29 1627.97 1060.09 1624.43 Q1061.92 1620.87 1061.92 1613.76 Q1061.92 1606.63 1060.09 1603.09 Q1058.29 1599.52 1054.65 1599.52 M1054.65 1595.82 Q1060.46 1595.82 1063.52 1600.43 Q1066.6 1605.01 1066.6 1613.76 Q1066.6 1622.49 1063.52 1627.09 Q1060.46 1631.68 1054.65 1631.68 Q1048.84 1631.68 1045.76 1627.09 Q1042.71 1622.49 1042.71 1613.76 Q1042.71 1605.01 1045.76 1600.43 Q1048.84 1595.82 1054.65 1595.82 Z" fill="#000000" fill-rule="evenodd" fill-opacity="1" /><path clip-path="url(#clip240)" d="M1074.81 1625.13 L1079.7 1625.13 L1079.7 1631 L1074.81 1631 L1074.81 1625.13 Z" fill="#000000" fill-rule="evenodd" fill-opacity="1" /><path clip-path="url(#clip240)" d="M1099.88 1599.52 Q1096.27 1599.52 1094.44 1603.09 Q1092.64 1606.63 1092.64 1613.76 Q1092.64 1620.87 1094.44 1624.43 Q1096.27 1627.97 1099.88 1627.97 Q1103.52 1627.97 1105.32 1624.43 Q1107.15 1620.87 1107.15 1613.76 Q1107.15 1606.63 1105.32 1603.09 Q1103.52 1599.52 1099.88 1599.52 M1099.88 1595.82 Q1105.69 1595.82 1108.75 1600.43 Q1111.83 1605.01 1111.83 1613.76 Q1111.83 1622.49 1108.75 1627.09 Q1105.69 1631.68 1099.88 1631.68 Q1094.07 1631.68 1091 1627.09 Q1087.94 1622.49 1087.94 1613.76 Q1087.94 1605.01 1091 1600.43 Q1094.07 1595.82 1099.88 1595.82 Z" fill="#000000" fill-rule="evenodd" fill-opacity="1" /><path clip-path="url(#clip240)" d="M1261.62 1682.99 Q1258.01 1682.99 1256.18 1686.55 Q1254.37 1690.09 1254.37 1697.22 Q1254.37 1704.33 1256.18 1707.89 Q1258.01 1711.44 1261.62 1711.44 Q1265.25 1711.44 1267.06 1707.89 Q1268.88 1704.33 1268.88 1697.22 Q1268.88 1690.09 1267.06 1686.55 Q1265.25 1682.99 1261.62 1682.99 M1261.62 1679.28 Q1267.43 1679.28 1270.48 1683.89 Q1273.56 1688.47 1273.56 1697.22 Q1273.56 1705.95 1270.48 1710.56 Q1267.43 1715.14 1261.62 1715.14 Q1255.81 1715.14 1252.73 1710.56 Q1249.67 1705.95 1249.67 1697.22 Q1249.67 1688.47 1252.73 1683.89 Q1255.81 1679.28 1261.62 1679.28 Z" fill="#000000" fill-rule="evenodd" fill-opacity="1" /><path clip-path="url(#clip240)" d="M1281.78 1708.59 L1286.66 1708.59 L1286.66 1714.47 L1281.78 1714.47 L1281.78 1708.59 Z" fill="#000000" fill-rule="evenodd" fill-opacity="1" /><path clip-path="url(#clip240)" d="M1296.89 1679.91 L1315.25 1679.91 L1315.25 1683.84 L1301.18 1683.84 L1301.18 1692.32 Q1302.19 1691.97 1303.21 1691.81 Q1304.23 1691.62 1305.25 1691.62 Q1311.04 1691.62 1314.42 1694.79 Q1317.8 1697.96 1317.8 1703.38 Q1317.8 1708.96 1314.32 1712.06 Q1310.85 1715.14 1304.53 1715.14 Q1302.36 1715.14 1300.09 1714.77 Q1297.84 1714.4 1295.44 1713.66 L1295.44 1708.96 Q1297.52 1710.09 1299.74 1710.65 Q1301.96 1711.2 1304.44 1711.2 Q1308.44 1711.2 1310.78 1709.1 Q1313.12 1706.99 1313.12 1703.38 Q1313.12 1699.77 1310.78 1697.66 Q1308.44 1695.56 1304.44 1695.56 Q1302.57 1695.56 1300.69 1695.97 Q1298.84 1696.39 1296.89 1697.27 L1296.89 1679.91 Z" fill="#000000" fill-rule="evenodd" fill-opacity="1" /><path clip-path="url(#clip240)" d="M1471.34 1799.65 L1478.98 1799.65 L1478.98 1773.28 L1470.67 1774.95 L1470.67 1770.69 L1478.94 1769.02 L1483.61 1769.02 L1483.61 1799.65 L1491.25 1799.65 L1491.25 1803.58 L1471.34 1803.58 L1471.34 1799.65 Z" fill="#000000" fill-rule="evenodd" fill-opacity="1" /><path clip-path="url(#clip240)" d="M1500.7 1797.7 L1505.58 1797.7 L1505.58 1803.58 L1500.7 1803.58 L1500.7 1797.7 Z" fill="#000000" fill-rule="evenodd" fill-opacity="1" /><path clip-path="url(#clip240)" d="M1525.77 1772.1 Q1522.15 1772.1 1520.33 1775.67 Q1518.52 1779.21 1518.52 1786.34 Q1518.52 1793.44 1520.33 1797.01 Q1522.15 1800.55 1525.77 1800.55 Q1529.4 1800.55 1531.21 1797.01 Q1533.03 1793.44 1533.03 1786.34 Q1533.03 1779.21 1531.21 1775.67 Q1529.4 1772.1 1525.77 1772.1 M1525.77 1768.4 Q1531.58 1768.4 1534.63 1773 Q1537.71 1777.59 1537.71 1786.34 Q1537.71 1795.06 1534.63 1799.67 Q1531.58 1804.25 1525.77 1804.25 Q1519.96 1804.25 1516.88 1799.67 Q1513.82 1795.06 1513.82 1786.34 Q1513.82 1777.59 1516.88 1773 Q1519.96 1768.4 1525.77 1768.4 Z" fill="#000000" fill-rule="evenodd" fill-opacity="1" /><polyline clip-path="url(#clip242)" style="stroke:#000000; stroke-linecap:butt; stroke-linejoin:round; stroke-width:2; stroke-opacity:0.1; fill:none" points="
  1591.12,1748.34 745.14,1408.63 
  "/>
<polyline clip-path="url(#clip242)" style="stroke:#000000; stroke-linecap:butt; stroke-linejoin:round; stroke-width:2; stroke-opacity:0.1; fill:none" points="
  745.14,1408.63 638.211,532.786 
  "/>
<polyline clip-path="url(#clip242)" style="stroke:#000000; stroke-linecap:butt; stroke-linejoin:round; stroke-width:2; stroke-opacity:0.1; fill:none" points="
  1699.83,1598.47 882.059,1293.14 
  "/>
<polyline clip-path="url(#clip242)" style="stroke:#000000; stroke-linecap:butt; stroke-linejoin:round; stroke-width:2; stroke-opacity:0.1; fill:none" points="
  882.059,1293.14 802.994,448.286 
  "/>
<polyline clip-path="url(#clip242)" style="stroke:#000000; stroke-linecap:butt; stroke-linejoin:round; stroke-width:2; stroke-opacity:0.1; fill:none" points="
  1797.16,1464.29 1006.27,1188.36 
  "/>
<polyline clip-path="url(#clip242)" style="stroke:#000000; stroke-linecap:butt; stroke-linejoin:round; stroke-width:2; stroke-opacity:0.1; fill:none" points="
  1006.27,1188.36 950.179,372.81 
  "/>
<polyline clip-path="url(#clip242)" style="stroke:#000000; stroke-linecap:butt; stroke-linejoin:round; stroke-width:2; stroke-opacity:0.1; fill:none" points="
  1884.8,1343.45 1119.47,1092.88 
  "/>
<polyline clip-path="url(#clip242)" style="stroke:#000000; stroke-linecap:butt; stroke-linejoin:round; stroke-width:2; stroke-opacity:0.1; fill:none" points="
  1119.47,1092.88 1082.44,304.986 
  "/>
<polyline clip-path="url(#clip242)" style="stroke:#000000; stroke-linecap:butt; stroke-linejoin:round; stroke-width:2; stroke-opacity:0.1; fill:none" points="
  1964.14,1234.07 1223.06,1005.5 
  "/>
<polyline clip-path="url(#clip242)" style="stroke:#000000; stroke-linecap:butt; stroke-linejoin:round; stroke-width:2; stroke-opacity:0.1; fill:none" points="
  1223.06,1005.5 1201.94,243.706 
  "/>
<polyline clip-path="url(#clip240)" style="stroke:#000000; stroke-linecap:butt; stroke-linejoin:round; stroke-width:4; stroke-opacity:1; fill:none" points="
  1577.22,1767.51 1973.16,1221.64 
  "/>
<polyline clip-path="url(#clip240)" style="stroke:#000000; stroke-linecap:butt; stroke-linejoin:round; stroke-width:4; stroke-opacity:1; fill:none" points="
  1591.12,1748.34 1579.54,1743.69 
  "/>
<polyline clip-path="url(#clip240)" style="stroke:#000000; stroke-linecap:butt; stroke-linejoin:round; stroke-width:4; stroke-opacity:1; fill:none" points="
  1699.83,1598.47 1688.71,1594.32 
  "/>
<polyline clip-path="url(#clip240)" style="stroke:#000000; stroke-linecap:butt; stroke-linejoin:round; stroke-width:4; stroke-opacity:1; fill:none" points="
  1797.16,1464.29 1786.47,1460.56 
  "/>
<polyline clip-path="url(#clip240)" style="stroke:#000000; stroke-linecap:butt; stroke-linejoin:round; stroke-width:4; stroke-opacity:1; fill:none" points="
  1884.8,1343.45 1874.51,1340.09 
  "/>
<polyline clip-path="url(#clip240)" style="stroke:#000000; stroke-linecap:butt; stroke-linejoin:round; stroke-width:4; stroke-opacity:1; fill:none" points="
  1964.14,1234.07 1954.23,1231.02 
  "/>
<path clip-path="url(#clip240)" d="M1617.23 1767.73 L1646.91 1767.73 L1646.91 1771.66 L1617.23 1771.66 L1617.23 1767.73 Z" fill="#000000" fill-rule="evenodd" fill-opacity="1" /><path clip-path="url(#clip240)" d="M1657.81 1780.62 L1665.45 1780.62 L1665.45 1754.26 L1657.14 1755.92 L1657.14 1751.66 L1665.4 1750 L1670.08 1750 L1670.08 1780.62 L1677.72 1780.62 L1677.72 1784.56 L1657.81 1784.56 L1657.81 1780.62 Z" fill="#000000" fill-rule="evenodd" fill-opacity="1" /><path clip-path="url(#clip240)" d="M1687.16 1778.68 L1692.05 1778.68 L1692.05 1784.56 L1687.16 1784.56 L1687.16 1778.68 Z" fill="#000000" fill-rule="evenodd" fill-opacity="1" /><path clip-path="url(#clip240)" d="M1712.23 1753.08 Q1708.62 1753.08 1706.79 1756.64 Q1704.99 1760.18 1704.99 1767.31 Q1704.99 1774.42 1706.79 1777.98 Q1708.62 1781.53 1712.23 1781.53 Q1715.87 1781.53 1717.67 1777.98 Q1719.5 1774.42 1719.5 1767.31 Q1719.5 1760.18 1717.67 1756.64 Q1715.87 1753.08 1712.23 1753.08 M1712.23 1749.37 Q1718.04 1749.37 1721.1 1753.98 Q1724.18 1758.56 1724.18 1767.31 Q1724.18 1776.04 1721.1 1780.65 Q1718.04 1785.23 1712.23 1785.23 Q1706.42 1785.23 1703.34 1780.65 Q1700.29 1776.04 1700.29 1767.31 Q1700.29 1758.56 1703.34 1753.98 Q1706.42 1749.37 1712.23 1749.37 Z" fill="#000000" fill-rule="evenodd" fill-opacity="1" /><path clip-path="url(#clip240)" d="M1725.94 1617.86 L1755.62 1617.86 L1755.62 1621.79 L1725.94 1621.79 L1725.94 1617.86 Z" fill="#000000" fill-rule="evenodd" fill-opacity="1" /><path clip-path="url(#clip240)" d="M1775.71 1603.21 Q1772.1 1603.21 1770.27 1606.77 Q1768.46 1610.31 1768.46 1617.44 Q1768.46 1624.55 1770.27 1628.11 Q1772.1 1631.66 1775.71 1631.66 Q1779.34 1631.66 1781.15 1628.11 Q1782.98 1624.55 1782.98 1617.44 Q1782.98 1610.31 1781.15 1606.77 Q1779.34 1603.21 1775.71 1603.21 M1775.71 1599.5 Q1781.52 1599.5 1784.57 1604.11 Q1787.65 1608.69 1787.65 1617.44 Q1787.65 1626.17 1784.57 1630.78 Q1781.52 1635.36 1775.71 1635.36 Q1769.9 1635.36 1766.82 1630.78 Q1763.76 1626.17 1763.76 1617.44 Q1763.76 1608.69 1766.82 1604.11 Q1769.9 1599.5 1775.71 1599.5 Z" fill="#000000" fill-rule="evenodd" fill-opacity="1" /><path clip-path="url(#clip240)" d="M1795.87 1628.81 L1800.75 1628.81 L1800.75 1634.69 L1795.87 1634.69 L1795.87 1628.81 Z" fill="#000000" fill-rule="evenodd" fill-opacity="1" /><path clip-path="url(#clip240)" d="M1810.99 1600.13 L1829.34 1600.13 L1829.34 1604.06 L1815.27 1604.06 L1815.27 1612.54 Q1816.29 1612.19 1817.31 1612.03 Q1818.32 1611.84 1819.34 1611.84 Q1825.13 1611.84 1828.51 1615.01 Q1831.89 1618.18 1831.89 1623.6 Q1831.89 1629.18 1828.42 1632.28 Q1824.94 1635.36 1818.62 1635.36 Q1816.45 1635.36 1814.18 1634.99 Q1811.93 1634.62 1809.53 1633.88 L1809.53 1629.18 Q1811.61 1630.31 1813.83 1630.87 Q1816.06 1631.42 1818.53 1631.42 Q1822.54 1631.42 1824.87 1629.32 Q1827.21 1627.21 1827.21 1623.6 Q1827.21 1619.99 1824.87 1617.88 Q1822.54 1615.78 1818.53 1615.78 Q1816.66 1615.78 1814.78 1616.19 Q1812.93 1616.61 1810.99 1617.49 L1810.99 1600.13 Z" fill="#000000" fill-rule="evenodd" fill-opacity="1" /><path clip-path="url(#clip240)" d="M1835.21 1469.03 Q1831.6 1469.03 1829.77 1472.59 Q1827.97 1476.13 1827.97 1483.26 Q1827.97 1490.37 1829.77 1493.93 Q1831.6 1497.47 1835.21 1497.47 Q1838.85 1497.47 1840.65 1493.93 Q1842.48 1490.37 1842.48 1483.26 Q1842.48 1476.13 1840.65 1472.59 Q1838.85 1469.03 1835.21 1469.03 M1835.21 1465.32 Q1841.02 1465.32 1844.08 1469.93 Q1847.16 1474.51 1847.16 1483.26 Q1847.16 1491.99 1844.08 1496.6 Q1841.02 1501.18 1835.21 1501.18 Q1829.4 1501.18 1826.32 1496.6 Q1823.27 1491.99 1823.27 1483.26 Q1823.27 1474.51 1826.32 1469.93 Q1829.4 1465.32 1835.21 1465.32 Z" fill="#000000" fill-rule="evenodd" fill-opacity="1" /><path clip-path="url(#clip240)" d="M1855.37 1494.63 L1860.26 1494.63 L1860.26 1500.51 L1855.37 1500.51 L1855.37 1494.63 Z" fill="#000000" fill-rule="evenodd" fill-opacity="1" /><path clip-path="url(#clip240)" d="M1880.44 1469.03 Q1876.83 1469.03 1875 1472.59 Q1873.2 1476.13 1873.2 1483.26 Q1873.2 1490.37 1875 1493.93 Q1876.83 1497.47 1880.44 1497.47 Q1884.08 1497.47 1885.88 1493.93 Q1887.71 1490.37 1887.71 1483.26 Q1887.71 1476.13 1885.88 1472.59 Q1884.08 1469.03 1880.44 1469.03 M1880.44 1465.32 Q1886.25 1465.32 1889.31 1469.93 Q1892.39 1474.51 1892.39 1483.26 Q1892.39 1491.99 1889.31 1496.6 Q1886.25 1501.18 1880.44 1501.18 Q1874.63 1501.18 1871.55 1496.6 Q1868.5 1491.99 1868.5 1483.26 Q1868.5 1474.51 1871.55 1469.93 Q1874.63 1465.32 1880.44 1465.32 Z" fill="#000000" fill-rule="evenodd" fill-opacity="1" /><path clip-path="url(#clip240)" d="M1922.86 1348.19 Q1919.25 1348.19 1917.42 1351.76 Q1915.61 1355.3 1915.61 1362.43 Q1915.61 1369.54 1917.42 1373.1 Q1919.25 1376.64 1922.86 1376.64 Q1926.49 1376.64 1928.3 1373.1 Q1930.12 1369.54 1930.12 1362.43 Q1930.12 1355.3 1928.3 1351.76 Q1926.49 1348.19 1922.86 1348.19 M1922.86 1344.49 Q1928.67 1344.49 1931.72 1349.1 Q1934.8 1353.68 1934.8 1362.43 Q1934.8 1371.16 1931.72 1375.76 Q1928.67 1380.35 1922.86 1380.35 Q1917.05 1380.35 1913.97 1375.76 Q1910.91 1371.16 1910.91 1362.43 Q1910.91 1353.68 1913.97 1349.1 Q1917.05 1344.49 1922.86 1344.49 Z" fill="#000000" fill-rule="evenodd" fill-opacity="1" /><path clip-path="url(#clip240)" d="M1943.02 1373.79 L1947.9 1373.79 L1947.9 1379.67 L1943.02 1379.67 L1943.02 1373.79 Z" fill="#000000" fill-rule="evenodd" fill-opacity="1" /><path clip-path="url(#clip240)" d="M1958.13 1345.11 L1976.49 1345.11 L1976.49 1349.05 L1962.42 1349.05 L1962.42 1357.52 Q1963.43 1357.17 1964.45 1357.01 Q1965.47 1356.83 1966.49 1356.83 Q1972.28 1356.83 1975.66 1360 Q1979.04 1363.17 1979.04 1368.59 Q1979.04 1374.16 1975.56 1377.27 Q1972.09 1380.35 1965.77 1380.35 Q1963.6 1380.35 1961.33 1379.97 Q1959.08 1379.6 1956.68 1378.86 L1956.68 1374.16 Q1958.76 1375.3 1960.98 1375.85 Q1963.2 1376.41 1965.68 1376.41 Q1969.68 1376.41 1972.02 1374.3 Q1974.36 1372.2 1974.36 1368.59 Q1974.36 1364.97 1972.02 1362.87 Q1969.68 1360.76 1965.68 1360.76 Q1963.81 1360.76 1961.93 1361.18 Q1960.08 1361.6 1958.13 1362.47 L1958.13 1345.11 Z" fill="#000000" fill-rule="evenodd" fill-opacity="1" /><path clip-path="url(#clip240)" d="M1990.92 1266.36 L1998.56 1266.36 L1998.56 1239.99 L1990.25 1241.66 L1990.25 1237.4 L1998.52 1235.73 L2003.19 1235.73 L2003.19 1266.36 L2010.83 1266.36 L2010.83 1270.29 L1990.92 1270.29 L1990.92 1266.36 Z" fill="#000000" fill-rule="evenodd" fill-opacity="1" /><path clip-path="url(#clip240)" d="M2020.28 1264.41 L2025.16 1264.41 L2025.16 1270.29 L2020.28 1270.29 L2020.28 1264.41 Z" fill="#000000" fill-rule="evenodd" fill-opacity="1" /><path clip-path="url(#clip240)" d="M2045.34 1238.81 Q2041.73 1238.81 2039.9 1242.37 Q2038.1 1245.92 2038.1 1253.05 Q2038.1 1260.15 2039.9 1263.72 Q2041.73 1267.26 2045.34 1267.26 Q2048.98 1267.26 2050.78 1263.72 Q2052.61 1260.15 2052.61 1253.05 Q2052.61 1245.92 2050.78 1242.37 Q2048.98 1238.81 2045.34 1238.81 M2045.34 1235.11 Q2051.15 1235.11 2054.21 1239.71 Q2057.29 1244.3 2057.29 1253.05 Q2057.29 1261.77 2054.21 1266.38 Q2051.15 1270.96 2045.34 1270.96 Q2039.53 1270.96 2036.46 1266.38 Q2033.4 1261.77 2033.4 1253.05 Q2033.4 1244.3 2036.46 1239.71 Q2039.53 1235.11 2045.34 1235.11 Z" fill="#000000" fill-rule="evenodd" fill-opacity="1" /><polyline clip-path="url(#clip242)" style="stroke:#000000; stroke-linecap:butt; stroke-linejoin:round; stroke-width:2; stroke-opacity:0.1; fill:none" points="
  725.076,1401.93 1234.42,976.54 
  "/>
<polyline clip-path="url(#clip242)" style="stroke:#000000; stroke-linecap:butt; stroke-linejoin:round; stroke-width:2; stroke-opacity:0.1; fill:none" points="
  1234.42,976.54 1975.41,1201.32 
  "/>
<polyline clip-path="url(#clip242)" style="stroke:#000000; stroke-linecap:butt; stroke-linejoin:round; stroke-width:2; stroke-opacity:0.1; fill:none" points="
  706.576,1254.86 1231.1,846.678 
  "/>
<polyline clip-path="url(#clip242)" style="stroke:#000000; stroke-linecap:butt; stroke-linejoin:round; stroke-width:2; stroke-opacity:0.1; fill:none" points="
  1231.1,846.678 1990.87,1061.85 
  "/>
<polyline clip-path="url(#clip242)" style="stroke:#000000; stroke-linecap:butt; stroke-linejoin:round; stroke-width:2; stroke-opacity:0.1; fill:none" points="
  686.997,1099.22 1227.62,710.668 
  "/>
<polyline clip-path="url(#clip242)" style="stroke:#000000; stroke-linecap:butt; stroke-linejoin:round; stroke-width:2; stroke-opacity:0.1; fill:none" points="
  1227.62,710.668 2007.15,914.978 
  "/>
<polyline clip-path="url(#clip242)" style="stroke:#000000; stroke-linecap:butt; stroke-linejoin:round; stroke-width:2; stroke-opacity:0.1; fill:none" points="
  666.242,934.229 1223.98,568.061 
  "/>
<polyline clip-path="url(#clip242)" style="stroke:#000000; stroke-linecap:butt; stroke-linejoin:round; stroke-width:2; stroke-opacity:0.1; fill:none" points="
  1223.98,568.061 2024.32,760.085 
  "/>
<polyline clip-path="url(#clip242)" style="stroke:#000000; stroke-linecap:butt; stroke-linejoin:round; stroke-width:2; stroke-opacity:0.1; fill:none" points="
  644.201,759.017 1220.15,418.366 
  "/>
<polyline clip-path="url(#clip242)" style="stroke:#000000; stroke-linecap:butt; stroke-linejoin:round; stroke-width:2; stroke-opacity:0.1; fill:none" points="
  1220.15,418.366 2042.46,596.503 
  "/>
<polyline clip-path="url(#clip242)" style="stroke:#000000; stroke-linecap:butt; stroke-linejoin:round; stroke-width:2; stroke-opacity:0.1; fill:none" points="
  620.751,572.605 1216.13,261.041 
  "/>
<polyline clip-path="url(#clip242)" style="stroke:#000000; stroke-linecap:butt; stroke-linejoin:round; stroke-width:2; stroke-opacity:0.1; fill:none" points="
  1216.13,261.041 2061.64,423.478 
  "/>
<polyline clip-path="url(#clip240)" style="stroke:#000000; stroke-linecap:butt; stroke-linejoin:round; stroke-width:4; stroke-opacity:1; fill:none" points="
  727.763,1423.29 617.103,543.61 
  "/>
<polyline clip-path="url(#clip240)" style="stroke:#000000; stroke-linecap:butt; stroke-linejoin:round; stroke-width:4; stroke-opacity:1; fill:none" points="
  725.076,1401.93 732.507,1395.72 
  "/>
<polyline clip-path="url(#clip240)" style="stroke:#000000; stroke-linecap:butt; stroke-linejoin:round; stroke-width:4; stroke-opacity:1; fill:none" points="
  706.576,1254.86 714.267,1248.88 
  "/>
<polyline clip-path="url(#clip240)" style="stroke:#000000; stroke-linecap:butt; stroke-linejoin:round; stroke-width:4; stroke-opacity:1; fill:none" points="
  686.997,1099.22 694.966,1093.49 
  "/>
<polyline clip-path="url(#clip240)" style="stroke:#000000; stroke-linecap:butt; stroke-linejoin:round; stroke-width:4; stroke-opacity:1; fill:none" points="
  666.242,934.229 674.509,928.801 
  "/>
<polyline clip-path="url(#clip240)" style="stroke:#000000; stroke-linecap:butt; stroke-linejoin:round; stroke-width:4; stroke-opacity:1; fill:none" points="
  644.201,759.017 652.788,753.937 
  "/>
<polyline clip-path="url(#clip240)" style="stroke:#000000; stroke-linecap:butt; stroke-linejoin:round; stroke-width:4; stroke-opacity:1; fill:none" points="
  620.751,572.605 629.683,567.93 
  "/>
<path clip-path="url(#clip240)" d="M680.875 1387.72 Q677.264 1387.72 675.436 1391.29 Q673.63 1394.83 673.63 1401.96 Q673.63 1409.07 675.436 1412.63 Q677.264 1416.17 680.875 1416.17 Q684.51 1416.17 686.315 1412.63 Q688.144 1409.07 688.144 1401.96 Q688.144 1394.83 686.315 1391.29 Q684.51 1387.72 680.875 1387.72 M680.875 1384.02 Q686.686 1384.02 689.741 1388.63 Q692.82 1393.21 692.82 1401.96 Q692.82 1410.69 689.741 1415.29 Q686.686 1419.88 680.875 1419.88 Q675.065 1419.88 671.987 1415.29 Q668.931 1410.69 668.931 1401.96 Q668.931 1393.21 671.987 1388.63 Q675.065 1384.02 680.875 1384.02 Z" fill="#000000" fill-rule="evenodd" fill-opacity="1" /><path clip-path="url(#clip240)" d="M654.413 1268.21 L662.051 1268.21 L662.051 1241.84 L653.741 1243.51 L653.741 1239.25 L662.005 1237.58 L666.681 1237.58 L666.681 1268.21 L674.32 1268.21 L674.32 1272.14 L654.413 1272.14 L654.413 1268.21 Z" fill="#000000" fill-rule="evenodd" fill-opacity="1" /><path clip-path="url(#clip240)" d="M638.422 1112.57 L654.741 1112.57 L654.741 1116.5 L632.797 1116.5 L632.797 1112.57 Q635.459 1109.81 640.042 1105.18 Q644.648 1100.53 645.829 1099.19 Q648.074 1096.66 648.954 1094.93 Q649.857 1093.17 649.857 1091.48 Q649.857 1088.72 647.912 1086.99 Q645.991 1085.25 642.889 1085.25 Q640.69 1085.25 638.236 1086.02 Q635.806 1086.78 633.028 1088.33 L633.028 1083.61 Q635.852 1082.47 638.306 1081.89 Q640.759 1081.32 642.797 1081.32 Q648.167 1081.32 651.361 1084 Q654.556 1086.69 654.556 1091.18 Q654.556 1093.31 653.746 1095.23 Q652.958 1097.13 650.852 1099.72 Q650.273 1100.39 647.171 1103.61 Q644.07 1106.8 638.422 1112.57 Z" fill="#000000" fill-rule="evenodd" fill-opacity="1" /><path clip-path="url(#clip240)" d="M626.856 932.875 Q630.212 933.592 632.087 935.861 Q633.986 938.129 633.986 941.463 Q633.986 946.578 630.467 949.379 Q626.949 952.18 620.467 952.18 Q618.291 952.18 615.976 951.74 Q613.685 951.324 611.231 950.467 L611.231 945.953 Q613.175 947.088 615.49 947.666 Q617.805 948.245 620.328 948.245 Q624.726 948.245 627.018 946.509 Q629.333 944.773 629.333 941.463 Q629.333 938.407 627.18 936.694 Q625.05 934.958 621.231 934.958 L617.203 934.958 L617.203 931.115 L621.416 931.115 Q624.865 931.115 626.694 929.75 Q628.523 928.361 628.523 925.768 Q628.523 923.106 626.624 921.694 Q624.749 920.259 621.231 920.259 Q619.31 920.259 617.111 920.676 Q614.912 921.092 612.273 921.972 L612.273 917.805 Q614.935 917.065 617.25 916.694 Q619.587 916.324 621.648 916.324 Q626.972 916.324 630.074 918.754 Q633.175 921.162 633.175 925.282 Q633.175 928.153 631.532 930.143 Q629.888 932.111 626.856 932.875 Z" fill="#000000" fill-rule="evenodd" fill-opacity="1" /><path clip-path="url(#clip240)" d="M602.361 745.811 L590.556 764.26 L602.361 764.26 L602.361 745.811 M601.134 741.737 L607.014 741.737 L607.014 764.26 L611.945 764.26 L611.945 768.149 L607.014 768.149 L607.014 776.297 L602.361 776.297 L602.361 768.149 L586.76 768.149 L586.76 763.635 L601.134 741.737 Z" fill="#000000" fill-rule="evenodd" fill-opacity="1" /><path clip-path="url(#clip240)" d="M567.592 555.325 L585.948 555.325 L585.948 559.26 L571.874 559.26 L571.874 567.732 Q572.893 567.385 573.911 567.223 Q574.93 567.037 575.948 567.037 Q581.735 567.037 585.115 570.209 Q588.495 573.38 588.495 578.797 Q588.495 584.375 585.022 587.477 Q581.55 590.556 575.231 590.556 Q573.055 590.556 570.786 590.185 Q568.541 589.815 566.134 589.074 L566.134 584.375 Q568.217 585.51 570.439 586.065 Q572.661 586.621 575.138 586.621 Q579.143 586.621 581.481 584.514 Q583.819 582.408 583.819 578.797 Q583.819 575.186 581.481 573.079 Q579.143 570.973 575.138 570.973 Q573.263 570.973 571.388 571.389 Q569.536 571.806 567.592 572.686 L567.592 555.325 Z" fill="#000000" fill-rule="evenodd" fill-opacity="1" /><polyline clip-path="url(#clip242)" style="stroke:#009af9; stroke-linecap:butt; stroke-linejoin:round; stroke-width:4; stroke-opacity:1; fill:none" points="
  1773.65,1433.99 1771.17,1433.05 1763.99,1430.02 1752.65,1424.6 1737.8,1416.63 1720.19,1406.02 1700.64,1392.81 1680.03,1377.14 1659.19,1359.25 1638.91,1339.46 
  1619.9,1318.17 1602.75,1295.84 1587.9,1272.92 1575.66,1249.92 1566.2,1227.28 1559.52,1205.47 1555.5,1184.87 1553.92,1165.84 1554.42,1148.69 1556.58,1133.65 
  1559.89,1120.9 1563.82,1110.58 1567.79,1102.73 1571.19,1097.38 1573.42,1094.47 1573.92,1093.9 1572.14,1095.52 1567.57,1099.13 1559.8,1104.49 1548.49,1111.31 
  1533.4,1119.29 1514.42,1128.08 1491.56,1137.32 1464.99,1146.66 1435.01,1155.74 1402.08,1164.24 1366.76,1171.86 1329.76,1178.36 1291.85,1183.56 1253.88,1187.35 
  1216.7,1189.71 1181.14,1190.68 1147.98,1190.39 1117.93,1189.03 1091.56,1186.86 1069.31,1184.18 1051.49,1181.32 1038.25,1178.65 1029.59,1176.53 1025.38,1175.31 
  1025.36,1175.32 1029.18,1176.87 1036.39,1180.24 1046.46,1185.63 1058.82,1193.23 1072.87,1203.16 1087.97,1215.46 1103.51,1230.14 1118.87,1247.13 1133.47,1266.27 
  1146.78,1287.35 1158.32,1310.1 1167.73,1334.14 1174.7,1359.05 1179.07,1384.36 1180.82,1409.53 1180.04,1433.99 1176.98,1457.18 1172.05,1478.54 1165.77,1497.54 
  1158.79,1513.73 1151.83,1526.76 1145.69,1536.38 1141.14,1542.45 1138.94,1545.01 1139.79,1544.2 1144.25,1540.29 1152.77,1533.65 1165.66,1524.75 1183.03,1514.1 
  1204.86,1502.23 1230.97,1489.71 1261.06,1477.05 1294.67,1464.73 1331.28,1453.2 1370.27,1442.81 1410.95,1433.84 1452.61,1426.51 1494.49,1420.94 1535.82,1417.17 
  1575.84,1415.15 1613.81,1414.76 1649.01,1415.8 1680.79,1418 1708.54,1421.03 1731.78,1424.5 1750.1,1427.99 1763.23,1431.03 1771.07,1433.18 1773.65,1433.99 
  
  "/>
<polyline clip-path="url(#clip242)" style="stroke:#ff0000; stroke-linecap:butt; stroke-linejoin:round; stroke-width:4; stroke-opacity:1; fill:none" points="
  1377.91,494.242 1773.65,1433.99 
  "/>
<polyline clip-path="url(#clip242)" style="stroke:#ff0000; stroke-linecap:butt; stroke-linejoin:round; stroke-width:4; stroke-opacity:1; fill:none" points="
  1377.91,494.242 1735.73,1415.45 
  "/>
<polyline clip-path="url(#clip242)" style="stroke:#ff0000; stroke-linecap:butt; stroke-linejoin:round; stroke-width:4; stroke-opacity:1; fill:none" points="
  1377.91,494.242 1654.04,1354.46 
  "/>
<polyline clip-path="url(#clip242)" style="stroke:#ff0000; stroke-linecap:butt; stroke-linejoin:round; stroke-width:4; stroke-opacity:1; fill:none" points="
  1377.91,494.242 1582.99,1264.28 
  "/>
<polyline clip-path="url(#clip242)" style="stroke:#ff0000; stroke-linecap:butt; stroke-linejoin:round; stroke-width:4; stroke-opacity:1; fill:none" points="
  1377.91,494.242 1554.43,1175.14 
  "/>
<polyline clip-path="url(#clip242)" style="stroke:#ff0000; stroke-linecap:butt; stroke-linejoin:round; stroke-width:4; stroke-opacity:1; fill:none" points="
  1377.91,494.242 1562.31,1114.16 
  "/>
<polyline clip-path="url(#clip242)" style="stroke:#ff0000; stroke-linecap:butt; stroke-linejoin:round; stroke-width:4; stroke-opacity:1; fill:none" points="
  1377.91,494.242 1573.99,1093.83 
  "/>
<polyline clip-path="url(#clip242)" style="stroke:#ff0000; stroke-linecap:butt; stroke-linejoin:round; stroke-width:4; stroke-opacity:1; fill:none" points="
  1377.91,494.242 1550.11,1110.39 
  "/>
<polyline clip-path="url(#clip242)" style="stroke:#ff0000; stroke-linecap:butt; stroke-linejoin:round; stroke-width:4; stroke-opacity:1; fill:none" points="
  1377.91,494.242 1464.99,1146.66 
  "/>
<polyline clip-path="url(#clip242)" style="stroke:#ff0000; stroke-linecap:butt; stroke-linejoin:round; stroke-width:4; stroke-opacity:1; fill:none" points="
  1377.91,494.242 1325.05,1179.08 
  "/>
<polyline clip-path="url(#clip242)" style="stroke:#ff0000; stroke-linecap:butt; stroke-linejoin:round; stroke-width:4; stroke-opacity:1; fill:none" points="
  1377.91,494.242 1172.59,1190.72 
  "/>
<polyline clip-path="url(#clip242)" style="stroke:#ff0000; stroke-linecap:butt; stroke-linejoin:round; stroke-width:4; stroke-opacity:1; fill:none" points="
  1377.91,494.242 1062.1,1183.11 
  "/>
<polyline clip-path="url(#clip242)" style="stroke:#ff0000; stroke-linecap:butt; stroke-linejoin:round; stroke-width:4; stroke-opacity:1; fill:none" points="
  1377.91,494.242 1024.86,1175.14 
  "/>
<polyline clip-path="url(#clip242)" style="stroke:#ff0000; stroke-linecap:butt; stroke-linejoin:round; stroke-width:4; stroke-opacity:1; fill:none" points="
  1377.91,494.242 1053.95,1190.12 
  "/>
<polyline clip-path="url(#clip242)" style="stroke:#ff0000; stroke-linecap:butt; stroke-linejoin:round; stroke-width:4; stroke-opacity:1; fill:none" points="
  1377.91,494.242 1115.08,1242.67 
  "/>
<polyline clip-path="url(#clip242)" style="stroke:#ff0000; stroke-linecap:butt; stroke-linejoin:round; stroke-width:4; stroke-opacity:1; fill:none" points="
  1377.91,494.242 1166.68,1331.08 
  "/>
<polyline clip-path="url(#clip242)" style="stroke:#ff0000; stroke-linecap:butt; stroke-linejoin:round; stroke-width:4; stroke-opacity:1; fill:none" points="
  1377.91,494.242 1180.04,1433.99 
  "/>
<polyline clip-path="url(#clip242)" style="stroke:#ff0000; stroke-linecap:butt; stroke-linejoin:round; stroke-width:4; stroke-opacity:1; fill:none" points="
  1377.91,494.242 1157.9,1515.54 
  "/>
<polyline clip-path="url(#clip242)" style="stroke:#ff0000; stroke-linecap:butt; stroke-linejoin:round; stroke-width:4; stroke-opacity:1; fill:none" points="
  1377.91,494.242 1138.84,1545.12 
  "/>
<polyline clip-path="url(#clip242)" style="stroke:#ff0000; stroke-linecap:butt; stroke-linejoin:round; stroke-width:4; stroke-opacity:1; fill:none" points="
  1377.91,494.242 1171.64,1520.93 
  "/>
<polyline clip-path="url(#clip242)" style="stroke:#ff0000; stroke-linecap:butt; stroke-linejoin:round; stroke-width:4; stroke-opacity:1; fill:none" points="
  1377.91,494.242 1277.45,1470.82 
  "/>
<polyline clip-path="url(#clip242)" style="stroke:#ff0000; stroke-linecap:butt; stroke-linejoin:round; stroke-width:4; stroke-opacity:1; fill:none" points="
  1377.91,494.242 1436.92,1429.06 
  "/>
<polyline clip-path="url(#clip242)" style="stroke:#ff0000; stroke-linecap:butt; stroke-linejoin:round; stroke-width:4; stroke-opacity:1; fill:none" points="
  1377.91,494.242 1604.55,1414.71 
  "/>
<polyline clip-path="url(#clip242)" style="stroke:#ff0000; stroke-linecap:butt; stroke-linejoin:round; stroke-width:4; stroke-opacity:1; fill:none" points="
  1377.91,494.242 1729.13,1424.06 
  "/>
<polyline clip-path="url(#clip242)" style="stroke:#ff0000; stroke-linecap:butt; stroke-linejoin:round; stroke-width:4; stroke-opacity:1; fill:none" points="
  1377.91,494.242 1773.65,1433.99 
  "/>
</svg>
