<?xml version="1.0" encoding="utf-8"?>
<svg xmlns="http://www.w3.org/2000/svg" xmlns:xlink="http://www.w3.org/1999/xlink" width="672" height="480" viewBox="0 0 2688 1920">
<defs>
  <clipPath id="clip160">
    <rect x="0" y="0" width="2688" height="1920"/>
  </clipPath>
</defs>
<path clip-path="url(#clip160)" d="
M0 1920 L2688 1920 L2688 0 L0 0  Z
  " fill="#ffffff" fill-rule="evenodd" fill-opacity="1"/>
<defs>
  <clipPath id="clip161">
    <rect x="537" y="0" width="1883" height="1883"/>
  </clipPath>
</defs>
<defs>
  <clipPath id="clip162">
    <rect x="115" y="47" width="2527" height="1755"/>
  </clipPath>
</defs>
<path clip-path="url(#clip162)" d="
M-139.633 2001.63 L-139.633 1588.06 L99.1417 1381.28 L512.711 1500.67 L512.711 1914.24 L273.937 2121.02 L-139.633 2001.63  Z
  " fill="#ffffff" fill-rule="evenodd" fill-opacity="1"/>
<polyline clip-path="url(#clip162)" style="stroke:#000000; stroke-linecap:butt; stroke-linejoin:round; stroke-width:2; stroke-opacity:0.1; fill:none" points="
  711.236,1462.2 1217.44,1023.82 
  "/>
<polyline clip-path="url(#clip162)" style="stroke:#000000; stroke-linecap:butt; stroke-linejoin:round; stroke-width:2; stroke-opacity:0.1; fill:none" points="
  1217.44,1023.82 1217.44,147.049 
  "/>
<polyline clip-path="url(#clip162)" style="stroke:#000000; stroke-linecap:butt; stroke-linejoin:round; stroke-width:2; stroke-opacity:0.1; fill:none" points="
  918.021,1521.89 1424.22,1083.51 
  "/>
<polyline clip-path="url(#clip162)" style="stroke:#000000; stroke-linecap:butt; stroke-linejoin:round; stroke-width:2; stroke-opacity:0.1; fill:none" points="
  1424.22,1083.51 1424.22,206.742 
  "/>
<polyline clip-path="url(#clip162)" style="stroke:#000000; stroke-linecap:butt; stroke-linejoin:round; stroke-width:2; stroke-opacity:0.1; fill:none" points="
  1124.81,1581.59 1631.01,1143.2 
  "/>
<polyline clip-path="url(#clip162)" style="stroke:#000000; stroke-linecap:butt; stroke-linejoin:round; stroke-width:2; stroke-opacity:0.1; fill:none" points="
  1631.01,1143.2 1631.01,266.436 
  "/>
<polyline clip-path="url(#clip162)" style="stroke:#000000; stroke-linecap:butt; stroke-linejoin:round; stroke-width:2; stroke-opacity:0.1; fill:none" points="
  1331.59,1641.28 1837.79,1202.9 
  "/>
<polyline clip-path="url(#clip162)" style="stroke:#000000; stroke-linecap:butt; stroke-linejoin:round; stroke-width:2; stroke-opacity:0.1; fill:none" points="
  1837.79,1202.9 1837.79,326.13 
  "/>
<polyline clip-path="url(#clip162)" style="stroke:#000000; stroke-linecap:butt; stroke-linejoin:round; stroke-width:2; stroke-opacity:0.1; fill:none" points="
  1538.38,1700.97 2044.58,1262.59 
  "/>
<polyline clip-path="url(#clip162)" style="stroke:#000000; stroke-linecap:butt; stroke-linejoin:round; stroke-width:2; stroke-opacity:0.1; fill:none" points="
  2044.58,1262.59 2044.58,385.823 
  "/>
<polyline clip-path="url(#clip160)" style="stroke:#000000; stroke-linecap:butt; stroke-linejoin:round; stroke-width:4; stroke-opacity:1; fill:none" points="
  686.422,1455.04 1563.19,1708.14 
  "/>
<polyline clip-path="url(#clip160)" style="stroke:#000000; stroke-linecap:butt; stroke-linejoin:round; stroke-width:4; stroke-opacity:1; fill:none" points="
  711.236,1462.2 717.31,1456.94 
  "/>
<polyline clip-path="url(#clip160)" style="stroke:#000000; stroke-linecap:butt; stroke-linejoin:round; stroke-width:4; stroke-opacity:1; fill:none" points="
  918.021,1521.89 924.095,1516.63 
  "/>
<polyline clip-path="url(#clip160)" style="stroke:#000000; stroke-linecap:butt; stroke-linejoin:round; stroke-width:4; stroke-opacity:1; fill:none" points="
  1124.81,1581.59 1130.88,1576.33 
  "/>
<polyline clip-path="url(#clip160)" style="stroke:#000000; stroke-linecap:butt; stroke-linejoin:round; stroke-width:4; stroke-opacity:1; fill:none" points="
  1331.59,1641.28 1337.66,1636.02 
  "/>
<polyline clip-path="url(#clip160)" style="stroke:#000000; stroke-linecap:butt; stroke-linejoin:round; stroke-width:4; stroke-opacity:1; fill:none" points="
  1538.38,1700.97 1544.45,1695.71 
  "/>
<path clip-path="url(#clip160)" d="M690.345 1478.99 Q686.734 1478.99 684.906 1482.55 Q683.1 1486.1 683.1 1493.23 Q683.1 1500.33 684.906 1503.9 Q686.734 1507.44 690.345 1507.44 Q693.98 1507.44 695.785 1503.9 Q697.614 1500.33 697.614 1493.23 Q697.614 1486.1 695.785 1482.55 Q693.98 1478.99 690.345 1478.99 M690.345 1475.29 Q696.155 1475.29 699.211 1479.89 Q702.29 1484.48 702.29 1493.23 Q702.29 1501.95 699.211 1506.56 Q696.155 1511.14 690.345 1511.14 Q684.535 1511.14 681.456 1506.56 Q678.401 1501.95 678.401 1493.23 Q678.401 1484.48 681.456 1479.89 Q684.535 1475.29 690.345 1475.29 Z" fill="#000000" fill-rule="evenodd" fill-opacity="1" /><path clip-path="url(#clip160)" d="M889.167 1566.23 L896.806 1566.23 L896.806 1539.86 L888.496 1541.53 L888.496 1537.27 L896.76 1535.6 L901.436 1535.6 L901.436 1566.23 L909.075 1566.23 L909.075 1570.16 L889.167 1570.16 L889.167 1566.23 Z" fill="#000000" fill-rule="evenodd" fill-opacity="1" /><path clip-path="url(#clip160)" d="M1099.54 1625.92 L1115.86 1625.92 L1115.86 1629.86 L1093.92 1629.86 L1093.92 1625.92 Q1096.58 1623.17 1101.16 1618.54 Q1105.77 1613.89 1106.95 1612.54 Q1109.19 1610.02 1110.07 1608.28 Q1110.98 1606.52 1110.98 1604.83 Q1110.98 1602.08 1109.03 1600.34 Q1107.11 1598.61 1104.01 1598.61 Q1101.81 1598.61 1099.35 1599.37 Q1096.92 1600.14 1094.15 1601.69 L1094.15 1596.96 Q1096.97 1595.83 1099.42 1595.25 Q1101.88 1594.67 1103.91 1594.67 Q1109.29 1594.67 1112.48 1597.36 Q1115.67 1600.04 1115.67 1604.53 Q1115.67 1606.66 1114.86 1608.58 Q1114.08 1610.48 1111.97 1613.08 Q1111.39 1613.75 1108.29 1616.96 Q1105.19 1620.16 1099.54 1625.92 Z" fill="#000000" fill-rule="evenodd" fill-opacity="1" /><path clip-path="url(#clip160)" d="M1315.51 1670.92 Q1318.87 1671.64 1320.75 1673.9 Q1322.64 1676.17 1322.64 1679.51 Q1322.64 1684.62 1319.13 1687.42 Q1315.61 1690.22 1309.13 1690.22 Q1306.95 1690.22 1304.63 1689.78 Q1302.34 1689.37 1299.89 1688.51 L1299.89 1684 Q1301.83 1685.13 1304.15 1685.71 Q1306.46 1686.29 1308.99 1686.29 Q1313.38 1686.29 1315.68 1684.55 Q1317.99 1682.82 1317.99 1679.51 Q1317.99 1676.45 1315.84 1674.74 Q1313.71 1673 1309.89 1673 L1305.86 1673 L1305.86 1669.16 L1310.07 1669.16 Q1313.52 1669.16 1315.35 1667.79 Q1317.18 1666.4 1317.18 1663.81 Q1317.18 1661.15 1315.28 1659.74 Q1313.41 1658.3 1309.89 1658.3 Q1307.97 1658.3 1305.77 1658.72 Q1303.57 1659.14 1300.93 1660.01 L1300.93 1655.85 Q1303.59 1655.11 1305.91 1654.74 Q1308.25 1654.37 1310.31 1654.37 Q1315.63 1654.37 1318.73 1656.8 Q1321.83 1659.2 1321.83 1663.32 Q1321.83 1666.2 1320.19 1668.19 Q1318.55 1670.15 1315.51 1670.92 Z" fill="#000000" fill-rule="evenodd" fill-opacity="1" /><path clip-path="url(#clip160)" d="M1519.85 1718.76 L1508.04 1737.21 L1519.85 1737.21 L1519.85 1718.76 M1518.62 1714.69 L1524.5 1714.69 L1524.5 1737.21 L1529.43 1737.21 L1529.43 1741.1 L1524.5 1741.1 L1524.5 1749.25 L1519.85 1749.25 L1519.85 1741.1 L1504.24 1741.1 L1504.24 1736.58 L1518.62 1714.69 Z" fill="#000000" fill-rule="evenodd" fill-opacity="1" /><polyline clip-path="url(#clip162)" style="stroke:#000000; stroke-linecap:butt; stroke-linejoin:round; stroke-width:2; stroke-opacity:0.1; fill:none" points="
  1577.52,1695.73 700.748,1442.63 
  "/>
<polyline clip-path="url(#clip162)" style="stroke:#000000; stroke-linecap:butt; stroke-linejoin:round; stroke-width:2; stroke-opacity:0.1; fill:none" points="
  700.748,1442.63 700.748,565.862 
  "/>
<polyline clip-path="url(#clip162)" style="stroke:#000000; stroke-linecap:butt; stroke-linejoin:round; stroke-width:2; stroke-opacity:0.1; fill:none" points="
  1696.9,1592.34 820.135,1339.24 
  "/>
<polyline clip-path="url(#clip162)" style="stroke:#000000; stroke-linecap:butt; stroke-linejoin:round; stroke-width:2; stroke-opacity:0.1; fill:none" points="
  820.135,1339.24 820.135,462.47 
  "/>
<polyline clip-path="url(#clip162)" style="stroke:#000000; stroke-linecap:butt; stroke-linejoin:round; stroke-width:2; stroke-opacity:0.1; fill:none" points="
  1816.29,1488.95 939.523,1235.84 
  "/>
<polyline clip-path="url(#clip162)" style="stroke:#000000; stroke-linecap:butt; stroke-linejoin:round; stroke-width:2; stroke-opacity:0.1; fill:none" points="
  939.523,1235.84 939.523,359.077 
  "/>
<polyline clip-path="url(#clip162)" style="stroke:#000000; stroke-linecap:butt; stroke-linejoin:round; stroke-width:2; stroke-opacity:0.1; fill:none" points="
  1935.68,1385.55 1058.91,1132.45 
  "/>
<polyline clip-path="url(#clip162)" style="stroke:#000000; stroke-linecap:butt; stroke-linejoin:round; stroke-width:2; stroke-opacity:0.1; fill:none" points="
  1058.91,1132.45 1058.91,255.685 
  "/>
<polyline clip-path="url(#clip162)" style="stroke:#000000; stroke-linecap:butt; stroke-linejoin:round; stroke-width:2; stroke-opacity:0.1; fill:none" points="
  2055.06,1282.16 1178.3,1029.06 
  "/>
<polyline clip-path="url(#clip162)" style="stroke:#000000; stroke-linecap:butt; stroke-linejoin:round; stroke-width:2; stroke-opacity:0.1; fill:none" points="
  1178.3,1029.06 1178.3,152.293 
  "/>
<polyline clip-path="url(#clip160)" style="stroke:#000000; stroke-linecap:butt; stroke-linejoin:round; stroke-width:4; stroke-opacity:1; fill:none" points="
  1563.19,1708.14 2069.39,1269.75 
  "/>
<polyline clip-path="url(#clip160)" style="stroke:#000000; stroke-linecap:butt; stroke-linejoin:round; stroke-width:4; stroke-opacity:1; fill:none" points="
  1577.52,1695.73 1566.99,1692.69 
  "/>
<polyline clip-path="url(#clip160)" style="stroke:#000000; stroke-linecap:butt; stroke-linejoin:round; stroke-width:4; stroke-opacity:1; fill:none" points="
  1696.9,1592.34 1686.38,1589.3 
  "/>
<polyline clip-path="url(#clip160)" style="stroke:#000000; stroke-linecap:butt; stroke-linejoin:round; stroke-width:4; stroke-opacity:1; fill:none" points="
  1816.29,1488.95 1805.77,1485.91 
  "/>
<polyline clip-path="url(#clip160)" style="stroke:#000000; stroke-linecap:butt; stroke-linejoin:round; stroke-width:4; stroke-opacity:1; fill:none" points="
  1935.68,1385.55 1925.16,1382.52 
  "/>
<polyline clip-path="url(#clip160)" style="stroke:#000000; stroke-linecap:butt; stroke-linejoin:round; stroke-width:4; stroke-opacity:1; fill:none" points="
  2055.06,1282.16 2044.54,1279.12 
  "/>
<path clip-path="url(#clip160)" d="M1610.58 1705.91 Q1606.97 1705.91 1605.14 1709.48 Q1603.33 1713.02 1603.33 1720.15 Q1603.33 1727.26 1605.14 1730.82 Q1606.97 1734.36 1610.58 1734.36 Q1614.21 1734.36 1616.02 1730.82 Q1617.85 1727.26 1617.85 1720.15 Q1617.85 1713.02 1616.02 1709.48 Q1614.21 1705.91 1610.58 1705.91 M1610.58 1702.21 Q1616.39 1702.21 1619.44 1706.82 Q1622.52 1711.4 1622.52 1720.15 Q1622.52 1728.88 1619.44 1733.48 Q1616.39 1738.07 1610.58 1738.07 Q1604.77 1738.07 1601.69 1733.48 Q1598.63 1728.88 1598.63 1720.15 Q1598.63 1711.4 1601.69 1706.82 Q1604.77 1702.21 1610.58 1702.21 Z" fill="#000000" fill-rule="evenodd" fill-opacity="1" /><path clip-path="url(#clip160)" d="M1718.69 1630.07 L1726.33 1630.07 L1726.33 1603.7 L1718.02 1605.37 L1718.02 1601.11 L1726.28 1599.44 L1730.96 1599.44 L1730.96 1630.07 L1738.6 1630.07 L1738.6 1634 L1718.69 1634 L1718.69 1630.07 Z" fill="#000000" fill-rule="evenodd" fill-opacity="1" /><path clip-path="url(#clip160)" d="M1843.03 1526.67 L1859.35 1526.67 L1859.35 1530.61 L1837.41 1530.61 L1837.41 1526.67 Q1840.07 1523.92 1844.65 1519.29 Q1849.26 1514.64 1850.44 1513.29 Q1852.68 1510.77 1853.56 1509.04 Q1854.47 1507.28 1854.47 1505.59 Q1854.47 1502.83 1852.52 1501.1 Q1850.6 1499.36 1847.5 1499.36 Q1845.3 1499.36 1842.85 1500.12 Q1840.42 1500.89 1837.64 1502.44 L1837.64 1497.72 Q1840.46 1496.58 1842.92 1496 Q1845.37 1495.42 1847.41 1495.42 Q1852.78 1495.42 1855.97 1498.11 Q1859.17 1500.79 1859.17 1505.29 Q1859.17 1507.41 1858.36 1509.34 Q1857.57 1511.23 1855.46 1513.83 Q1854.88 1514.5 1851.78 1517.72 Q1848.68 1520.91 1843.03 1526.67 Z" fill="#000000" fill-rule="evenodd" fill-opacity="1" /><path clip-path="url(#clip160)" d="M1972.42 1408.58 Q1975.78 1409.3 1977.65 1411.57 Q1979.55 1413.84 1979.55 1417.17 Q1979.55 1422.29 1976.03 1425.09 Q1972.51 1427.89 1966.03 1427.89 Q1963.85 1427.89 1961.54 1427.45 Q1959.25 1427.03 1956.79 1426.18 L1956.79 1421.66 Q1958.74 1422.8 1961.05 1423.37 Q1963.37 1423.95 1965.89 1423.95 Q1970.29 1423.95 1972.58 1422.22 Q1974.9 1420.48 1974.9 1417.17 Q1974.9 1414.12 1972.74 1412.4 Q1970.61 1410.67 1966.79 1410.67 L1962.77 1410.67 L1962.77 1406.82 L1966.98 1406.82 Q1970.43 1406.82 1972.26 1405.46 Q1974.09 1404.07 1974.09 1401.48 Q1974.09 1398.81 1972.19 1397.4 Q1970.31 1395.97 1966.79 1395.97 Q1964.87 1395.97 1962.67 1396.38 Q1960.47 1396.8 1957.84 1397.68 L1957.84 1393.51 Q1960.5 1392.77 1962.81 1392.4 Q1965.15 1392.03 1967.21 1392.03 Q1972.53 1392.03 1975.64 1394.46 Q1978.74 1396.87 1978.74 1400.99 Q1978.74 1403.86 1977.09 1405.85 Q1975.45 1407.82 1972.42 1408.58 Z" fill="#000000" fill-rule="evenodd" fill-opacity="1" /><path clip-path="url(#clip160)" d="M2091.78 1293.34 L2079.98 1311.79 L2091.78 1311.79 L2091.78 1293.34 M2090.56 1289.26 L2096.44 1289.26 L2096.44 1311.79 L2101.37 1311.79 L2101.37 1315.68 L2096.44 1315.68 L2096.44 1323.82 L2091.78 1323.82 L2091.78 1315.68 L2076.18 1315.68 L2076.18 1311.16 L2090.56 1289.26 Z" fill="#000000" fill-rule="evenodd" fill-opacity="1" /><polyline clip-path="url(#clip162)" style="stroke:#000000; stroke-linecap:butt; stroke-linejoin:round; stroke-width:2; stroke-opacity:0.1; fill:none" points="
  686.422,1430.22 1192.62,991.839 
  "/>
<polyline clip-path="url(#clip162)" style="stroke:#000000; stroke-linecap:butt; stroke-linejoin:round; stroke-width:2; stroke-opacity:0.1; fill:none" points="
  1192.62,991.839 2069.39,1244.94 
  "/>
<polyline clip-path="url(#clip162)" style="stroke:#000000; stroke-linecap:butt; stroke-linejoin:round; stroke-width:2; stroke-opacity:0.1; fill:none" points="
  686.422,1264.79 1192.62,826.411 
  "/>
<polyline clip-path="url(#clip162)" style="stroke:#000000; stroke-linecap:butt; stroke-linejoin:round; stroke-width:2; stroke-opacity:0.1; fill:none" points="
  1192.62,826.411 2069.39,1079.51 
  "/>
<polyline clip-path="url(#clip162)" style="stroke:#000000; stroke-linecap:butt; stroke-linejoin:round; stroke-width:2; stroke-opacity:0.1; fill:none" points="
  686.422,1099.37 1192.62,660.983 
  "/>
<polyline clip-path="url(#clip162)" style="stroke:#000000; stroke-linecap:butt; stroke-linejoin:round; stroke-width:2; stroke-opacity:0.1; fill:none" points="
  1192.62,660.983 2069.39,914.084 
  "/>
<polyline clip-path="url(#clip162)" style="stroke:#000000; stroke-linecap:butt; stroke-linejoin:round; stroke-width:2; stroke-opacity:0.1; fill:none" points="
  686.422,933.939 1192.62,495.555 
  "/>
<polyline clip-path="url(#clip162)" style="stroke:#000000; stroke-linecap:butt; stroke-linejoin:round; stroke-width:2; stroke-opacity:0.1; fill:none" points="
  1192.62,495.555 2069.39,748.656 
  "/>
<polyline clip-path="url(#clip162)" style="stroke:#000000; stroke-linecap:butt; stroke-linejoin:round; stroke-width:2; stroke-opacity:0.1; fill:none" points="
  686.422,768.511 1192.62,330.128 
  "/>
<polyline clip-path="url(#clip162)" style="stroke:#000000; stroke-linecap:butt; stroke-linejoin:round; stroke-width:2; stroke-opacity:0.1; fill:none" points="
  1192.62,330.128 2069.39,583.229 
  "/>
<polyline clip-path="url(#clip162)" style="stroke:#000000; stroke-linecap:butt; stroke-linejoin:round; stroke-width:2; stroke-opacity:0.1; fill:none" points="
  686.422,603.083 1192.62,164.7 
  "/>
<polyline clip-path="url(#clip162)" style="stroke:#000000; stroke-linecap:butt; stroke-linejoin:round; stroke-width:2; stroke-opacity:0.1; fill:none" points="
  1192.62,164.7 2069.39,417.801 
  "/>
<polyline clip-path="url(#clip160)" style="stroke:#000000; stroke-linecap:butt; stroke-linejoin:round; stroke-width:4; stroke-opacity:1; fill:none" points="
  686.422,1455.04 686.422,578.269 
  "/>
<polyline clip-path="url(#clip160)" style="stroke:#000000; stroke-linecap:butt; stroke-linejoin:round; stroke-width:4; stroke-opacity:1; fill:none" points="
  686.422,1430.22 692.496,1424.96 
  "/>
<polyline clip-path="url(#clip160)" style="stroke:#000000; stroke-linecap:butt; stroke-linejoin:round; stroke-width:4; stroke-opacity:1; fill:none" points="
  686.422,1264.79 692.496,1259.53 
  "/>
<polyline clip-path="url(#clip160)" style="stroke:#000000; stroke-linecap:butt; stroke-linejoin:round; stroke-width:4; stroke-opacity:1; fill:none" points="
  686.422,1099.37 692.496,1094.11 
  "/>
<polyline clip-path="url(#clip160)" style="stroke:#000000; stroke-linecap:butt; stroke-linejoin:round; stroke-width:4; stroke-opacity:1; fill:none" points="
  686.422,933.939 692.496,928.679 
  "/>
<polyline clip-path="url(#clip160)" style="stroke:#000000; stroke-linecap:butt; stroke-linejoin:round; stroke-width:4; stroke-opacity:1; fill:none" points="
  686.422,768.511 692.496,763.251 
  "/>
<polyline clip-path="url(#clip160)" style="stroke:#000000; stroke-linecap:butt; stroke-linejoin:round; stroke-width:4; stroke-opacity:1; fill:none" points="
  686.422,603.083 692.496,597.823 
  "/>
<path clip-path="url(#clip160)" d="M642.221 1416.02 Q638.61 1416.02 636.782 1419.59 Q634.976 1423.13 634.976 1430.26 Q634.976 1437.36 636.782 1440.93 Q638.61 1444.47 642.221 1444.47 Q645.856 1444.47 647.661 1440.93 Q649.49 1437.36 649.49 1430.26 Q649.49 1423.13 647.661 1419.59 Q645.856 1416.02 642.221 1416.02 M642.221 1412.32 Q648.032 1412.32 651.087 1416.92 Q654.166 1421.51 654.166 1430.26 Q654.166 1438.98 651.087 1443.59 Q648.032 1448.17 642.221 1448.17 Q636.411 1448.17 633.333 1443.59 Q630.277 1438.98 630.277 1430.26 Q630.277 1421.51 633.333 1416.92 Q636.411 1412.32 642.221 1412.32 Z" fill="#000000" fill-rule="evenodd" fill-opacity="1" /><path clip-path="url(#clip160)" d="M634.258 1278.14 L641.897 1278.14 L641.897 1251.77 L633.587 1253.44 L633.587 1249.18 L641.851 1247.51 L646.527 1247.51 L646.527 1278.14 L654.166 1278.14 L654.166 1282.07 L634.258 1282.07 L634.258 1278.14 Z" fill="#000000" fill-rule="evenodd" fill-opacity="1" /><path clip-path="url(#clip160)" d="M637.846 1112.71 L654.166 1112.71 L654.166 1116.65 L632.221 1116.65 L632.221 1112.71 Q634.883 1109.96 639.467 1105.33 Q644.073 1100.67 645.254 1099.33 Q647.499 1096.81 648.379 1095.07 Q649.281 1093.31 649.281 1091.62 Q649.281 1088.87 647.337 1087.13 Q645.416 1085.4 642.314 1085.4 Q640.115 1085.4 637.661 1086.16 Q635.231 1086.92 632.453 1088.48 L632.453 1083.75 Q635.277 1082.62 637.731 1082.04 Q640.184 1081.46 642.221 1081.46 Q647.592 1081.46 650.786 1084.15 Q653.981 1086.83 653.981 1091.32 Q653.981 1093.45 653.17 1095.37 Q652.383 1097.27 650.277 1099.86 Q649.698 1100.54 646.596 1103.75 Q643.494 1106.95 637.846 1112.71 Z" fill="#000000" fill-rule="evenodd" fill-opacity="1" /><path clip-path="url(#clip160)" d="M647.036 932.585 Q650.393 933.303 652.268 935.571 Q654.166 937.84 654.166 941.173 Q654.166 946.289 650.647 949.09 Q647.129 951.89 640.647 951.89 Q638.471 951.89 636.157 951.451 Q633.865 951.034 631.411 950.178 L631.411 945.664 Q633.356 946.798 635.67 947.377 Q637.985 947.955 640.508 947.955 Q644.907 947.955 647.198 946.219 Q649.513 944.483 649.513 941.173 Q649.513 938.117 647.36 936.404 Q645.231 934.668 641.411 934.668 L637.383 934.668 L637.383 930.826 L641.596 930.826 Q645.045 930.826 646.874 929.46 Q648.703 928.071 648.703 925.479 Q648.703 922.817 646.805 921.405 Q644.93 919.969 641.411 919.969 Q639.49 919.969 637.291 920.386 Q635.092 920.803 632.453 921.682 L632.453 917.516 Q635.115 916.775 637.43 916.405 Q639.768 916.034 641.828 916.034 Q647.152 916.034 650.254 918.465 Q653.356 920.872 653.356 924.992 Q653.356 927.863 651.712 929.854 Q650.069 931.821 647.036 932.585 Z" fill="#000000" fill-rule="evenodd" fill-opacity="1" /><path clip-path="url(#clip160)" d="M644.582 755.305 L632.777 773.754 L644.582 773.754 L644.582 755.305 M643.356 751.231 L649.235 751.231 L649.235 773.754 L654.166 773.754 L654.166 777.643 L649.235 777.643 L649.235 785.791 L644.582 785.791 L644.582 777.643 L628.981 777.643 L628.981 773.129 L643.356 751.231 Z" fill="#000000" fill-rule="evenodd" fill-opacity="1" /><path clip-path="url(#clip160)" d="M633.263 585.803 L651.619 585.803 L651.619 589.739 L637.545 589.739 L637.545 598.211 Q638.564 597.864 639.582 597.702 Q640.601 597.516 641.62 597.516 Q647.407 597.516 650.786 600.688 Q654.166 603.859 654.166 609.276 Q654.166 614.854 650.694 617.956 Q647.221 621.035 640.902 621.035 Q638.726 621.035 636.457 620.664 Q634.212 620.294 631.805 619.553 L631.805 614.854 Q633.888 615.988 636.11 616.544 Q638.332 617.1 640.809 617.1 Q644.814 617.1 647.152 614.993 Q649.49 612.887 649.49 609.276 Q649.49 605.664 647.152 603.558 Q644.814 601.452 640.809 601.452 Q638.934 601.452 637.059 601.868 Q635.208 602.285 633.263 603.164 L633.263 585.803 Z" fill="#000000" fill-rule="evenodd" fill-opacity="1" /><polyline clip-path="url(#clip162)" style="stroke:#009af9; stroke-linecap:butt; stroke-linejoin:round; stroke-width:4; stroke-opacity:1; fill:none" points="
  725.562,1424.98 1171.12,781.604 
  "/>
<polyline clip-path="url(#clip162)" style="stroke:#e26f46; stroke-linecap:butt; stroke-linejoin:round; stroke-width:4; stroke-opacity:1; fill:none" points="
  725.562,1424.98 1258.52,1440.97 
  "/>
<polyline clip-path="url(#clip162)" style="stroke:#3da44d; stroke-linecap:butt; stroke-linejoin:round; stroke-width:4; stroke-opacity:1; fill:none" points="
  725.562,1424.98 1051.73,1050.42 
  "/>
<polyline clip-path="url(#clip162)" style="stroke:#c271d2; stroke-linecap:butt; stroke-linejoin:round; stroke-width:4; stroke-opacity:1; fill:none" points="
  1171.12,781.604 1704.08,797.599 
  "/>
<polyline clip-path="url(#clip162)" style="stroke:#ac8d18; stroke-linecap:butt; stroke-linejoin:round; stroke-width:4; stroke-opacity:1; fill:none" points="
  1171.12,781.604 1497.29,407.05 
  "/>
<polyline clip-path="url(#clip162)" style="stroke:#00a9ad; stroke-linecap:butt; stroke-linejoin:round; stroke-width:4; stroke-opacity:1; fill:none" points="
  1258.52,1440.97 1704.08,797.599 
  "/>
<polyline clip-path="url(#clip162)" style="stroke:#ed5d92; stroke-linecap:butt; stroke-linejoin:round; stroke-width:4; stroke-opacity:1; fill:none" points="
  1258.52,1440.97 1584.69,1066.42 
  "/>
<polyline clip-path="url(#clip162)" style="stroke:#c68125; stroke-linecap:butt; stroke-linejoin:round; stroke-width:4; stroke-opacity:1; fill:none" points="
  1051.73,1050.42 1497.29,407.05 
  "/>
<polyline clip-path="url(#clip162)" style="stroke:#00a98d; stroke-linecap:butt; stroke-linejoin:round; stroke-width:4; stroke-opacity:1; fill:none" points="
  1051.73,1050.42 1584.69,1066.42 
  "/>
<polyline clip-path="url(#clip162)" style="stroke:#8e971d; stroke-linecap:butt; stroke-linejoin:round; stroke-width:4; stroke-opacity:1; fill:none" points="
  1704.08,797.599 2030.25,423.045 
  "/>
<polyline clip-path="url(#clip162)" style="stroke:#00a8cb; stroke-linecap:butt; stroke-linejoin:round; stroke-width:4; stroke-opacity:1; fill:none" points="
  1497.29,407.05 2030.25,423.045 
  "/>
<polyline clip-path="url(#clip162)" style="stroke:#9b7fe8; stroke-linecap:butt; stroke-linejoin:round; stroke-width:4; stroke-opacity:1; fill:none" points="
  1584.69,1066.42 2030.25,423.045 
  "/>
</svg>
