<?xml version="1.0" encoding="utf-8"?>
<svg xmlns="http://www.w3.org/2000/svg" xmlns:xlink="http://www.w3.org/1999/xlink" width="672" height="480" viewBox="0 0 2688 1920">
<defs>
  <clipPath id="clip880">
    <rect x="0" y="0" width="2688" height="1920"/>
  </clipPath>
</defs>
<path clip-path="url(#clip880)" d="
M0 1920 L2688 1920 L2688 0 L0 0  Z
  " fill="#ffffff" fill-rule="evenodd" fill-opacity="1"/>
<defs>
  <clipPath id="clip881">
    <rect x="537" y="0" width="1883" height="1883"/>
  </clipPath>
</defs>
<path clip-path="url(#clip880)" d="
M113.761 1800.78 L2640.76 1800.78 L2640.76 47.2441 L113.761 47.2441  Z
  " fill="#ffffff" fill-rule="evenodd" fill-opacity="1"/>
<defs>
  <clipPath id="clip882">
    <rect x="113" y="47" width="2528" height="1755"/>
  </clipPath>
</defs>
<polyline clip-path="url(#clip882)" style="stroke:#000000; stroke-linecap:round; stroke-linejoin:round; stroke-width:2; stroke-opacity:0.1; fill:none" points="
  550.119,1800.78 550.119,47.2441 
  "/>
<polyline clip-path="url(#clip882)" style="stroke:#000000; stroke-linecap:round; stroke-linejoin:round; stroke-width:2; stroke-opacity:0.1; fill:none" points="
  1101.55,1800.78 1101.55,47.2441 
  "/>
<polyline clip-path="url(#clip882)" style="stroke:#000000; stroke-linecap:round; stroke-linejoin:round; stroke-width:2; stroke-opacity:0.1; fill:none" points="
  1652.97,1800.78 1652.97,47.2441 
  "/>
<polyline clip-path="url(#clip882)" style="stroke:#000000; stroke-linecap:round; stroke-linejoin:round; stroke-width:2; stroke-opacity:0.1; fill:none" points="
  2204.4,1800.78 2204.4,47.2441 
  "/>
<polyline clip-path="url(#clip880)" style="stroke:#000000; stroke-linecap:round; stroke-linejoin:round; stroke-width:4; stroke-opacity:1; fill:none" points="
  113.761,1800.78 2640.76,1800.78 
  "/>
<polyline clip-path="url(#clip880)" style="stroke:#000000; stroke-linecap:round; stroke-linejoin:round; stroke-width:4; stroke-opacity:1; fill:none" points="
  550.119,1800.78 550.119,1781.88 
  "/>
<polyline clip-path="url(#clip880)" style="stroke:#000000; stroke-linecap:round; stroke-linejoin:round; stroke-width:4; stroke-opacity:1; fill:none" points="
  1101.55,1800.78 1101.55,1781.88 
  "/>
<polyline clip-path="url(#clip880)" style="stroke:#000000; stroke-linecap:round; stroke-linejoin:round; stroke-width:4; stroke-opacity:1; fill:none" points="
  1652.97,1800.78 1652.97,1781.88 
  "/>
<polyline clip-path="url(#clip880)" style="stroke:#000000; stroke-linecap:round; stroke-linejoin:round; stroke-width:4; stroke-opacity:1; fill:none" points="
  2204.4,1800.78 2204.4,1781.88 
  "/>
<path clip-path="url(#clip880)" d="M550.119 1834 Q546.508 1834 544.679 1837.57 Q542.874 1841.11 542.874 1848.24 Q542.874 1855.34 544.679 1858.91 Q546.508 1862.45 550.119 1862.45 Q553.753 1862.45 555.559 1858.91 Q557.388 1855.34 557.388 1848.24 Q557.388 1841.11 555.559 1837.57 Q553.753 1834 550.119 1834 M550.119 1830.3 Q555.929 1830.3 558.985 1834.9 Q562.064 1839.49 562.064 1848.24 Q562.064 1856.96 558.985 1861.57 Q555.929 1866.15 550.119 1866.15 Q544.309 1866.15 541.23 1861.57 Q538.175 1856.96 538.175 1848.24 Q538.175 1839.49 541.23 1834.9 Q544.309 1830.3 550.119 1830.3 Z" fill="#000000" fill-rule="evenodd" fill-opacity="1" /><path clip-path="url(#clip880)" d="M1091.93 1861.55 L1099.57 1861.55 L1099.57 1835.18 L1091.26 1836.85 L1091.26 1832.59 L1099.52 1830.92 L1104.2 1830.92 L1104.2 1861.55 L1111.83 1861.55 L1111.83 1865.48 L1091.93 1865.48 L1091.93 1861.55 Z" fill="#000000" fill-rule="evenodd" fill-opacity="1" /><path clip-path="url(#clip880)" d="M1647.62 1861.55 L1663.94 1861.55 L1663.94 1865.48 L1642 1865.48 L1642 1861.55 Q1644.66 1858.79 1649.24 1854.16 Q1653.85 1849.51 1655.03 1848.17 Q1657.28 1845.65 1658.16 1843.91 Q1659.06 1842.15 1659.06 1840.46 Q1659.06 1837.71 1657.11 1835.97 Q1655.19 1834.23 1652.09 1834.23 Q1649.89 1834.23 1647.44 1835 Q1645.01 1835.76 1642.23 1837.31 L1642.23 1832.59 Q1645.05 1831.46 1647.51 1830.88 Q1649.96 1830.3 1652 1830.3 Q1657.37 1830.3 1660.56 1832.98 Q1663.76 1835.67 1663.76 1840.16 Q1663.76 1842.29 1662.95 1844.21 Q1662.16 1846.11 1660.05 1848.7 Q1659.48 1849.37 1656.37 1852.59 Q1653.27 1855.78 1647.62 1861.55 Z" fill="#000000" fill-rule="evenodd" fill-opacity="1" /><path clip-path="url(#clip880)" d="M2208.65 1846.85 Q2212 1847.57 2213.88 1849.84 Q2215.77 1852.1 2215.77 1855.44 Q2215.77 1860.55 2212.26 1863.35 Q2208.74 1866.15 2202.26 1866.15 Q2200.08 1866.15 2197.77 1865.71 Q2195.47 1865.3 2193.02 1864.44 L2193.02 1859.93 Q2194.96 1861.06 2197.28 1861.64 Q2199.59 1862.22 2202.12 1862.22 Q2206.52 1862.22 2208.81 1860.48 Q2211.12 1858.75 2211.12 1855.44 Q2211.12 1852.38 2208.97 1850.67 Q2206.84 1848.93 2203.02 1848.93 L2198.99 1848.93 L2198.99 1845.09 L2203.21 1845.09 Q2206.65 1845.09 2208.48 1843.72 Q2210.31 1842.34 2210.31 1839.74 Q2210.31 1837.08 2208.41 1835.67 Q2206.54 1834.23 2203.02 1834.23 Q2201.1 1834.23 2198.9 1834.65 Q2196.7 1835.07 2194.06 1835.95 L2194.06 1831.78 Q2196.72 1831.04 2199.04 1830.67 Q2201.38 1830.3 2203.44 1830.3 Q2208.76 1830.3 2211.86 1832.73 Q2214.96 1835.14 2214.96 1839.26 Q2214.96 1842.13 2213.32 1844.12 Q2211.68 1846.09 2208.65 1846.85 Z" fill="#000000" fill-rule="evenodd" fill-opacity="1" /><polyline clip-path="url(#clip882)" style="stroke:#000000; stroke-linecap:round; stroke-linejoin:round; stroke-width:2; stroke-opacity:0.1; fill:none" points="
  113.761,1751.15 2640.76,1751.15 
  "/>
<polyline clip-path="url(#clip882)" style="stroke:#000000; stroke-linecap:round; stroke-linejoin:round; stroke-width:2; stroke-opacity:0.1; fill:none" points="
  113.761,1199.72 2640.76,1199.72 
  "/>
<polyline clip-path="url(#clip882)" style="stroke:#000000; stroke-linecap:round; stroke-linejoin:round; stroke-width:2; stroke-opacity:0.1; fill:none" points="
  113.761,648.299 2640.76,648.299 
  "/>
<polyline clip-path="url(#clip882)" style="stroke:#000000; stroke-linecap:round; stroke-linejoin:round; stroke-width:2; stroke-opacity:0.1; fill:none" points="
  113.761,96.8724 2640.76,96.8724 
  "/>
<polyline clip-path="url(#clip880)" style="stroke:#000000; stroke-linecap:round; stroke-linejoin:round; stroke-width:4; stroke-opacity:1; fill:none" points="
  113.761,1800.78 113.761,47.2441 
  "/>
<polyline clip-path="url(#clip880)" style="stroke:#000000; stroke-linecap:round; stroke-linejoin:round; stroke-width:4; stroke-opacity:1; fill:none" points="
  113.761,1751.15 132.659,1751.15 
  "/>
<polyline clip-path="url(#clip880)" style="stroke:#000000; stroke-linecap:round; stroke-linejoin:round; stroke-width:4; stroke-opacity:1; fill:none" points="
  113.761,1199.72 132.659,1199.72 
  "/>
<polyline clip-path="url(#clip880)" style="stroke:#000000; stroke-linecap:round; stroke-linejoin:round; stroke-width:4; stroke-opacity:1; fill:none" points="
  113.761,648.299 132.659,648.299 
  "/>
<polyline clip-path="url(#clip880)" style="stroke:#000000; stroke-linecap:round; stroke-linejoin:round; stroke-width:4; stroke-opacity:1; fill:none" points="
  113.761,96.8724 132.659,96.8724 
  "/>
<path clip-path="url(#clip880)" d="M61.4965 1736.95 Q57.8854 1736.95 56.0567 1740.51 Q54.2512 1744.06 54.2512 1751.19 Q54.2512 1758.29 56.0567 1761.86 Q57.8854 1765.4 61.4965 1765.4 Q65.1307 1765.4 66.9363 1761.86 Q68.765 1758.29 68.765 1751.19 Q68.765 1744.06 66.9363 1740.51 Q65.1307 1736.95 61.4965 1736.95 M61.4965 1733.25 Q67.3067 1733.25 70.3622 1737.85 Q73.4409 1742.44 73.4409 1751.19 Q73.4409 1759.91 70.3622 1764.52 Q67.3067 1769.1 61.4965 1769.1 Q55.6864 1769.1 52.6077 1764.52 Q49.5521 1759.91 49.5521 1751.19 Q49.5521 1742.44 52.6077 1737.85 Q55.6864 1733.25 61.4965 1733.25 Z" fill="#000000" fill-rule="evenodd" fill-opacity="1" /><path clip-path="url(#clip880)" d="M53.5336 1213.07 L61.1724 1213.07 L61.1724 1186.7 L52.8623 1188.37 L52.8623 1184.11 L61.1261 1182.44 L65.802 1182.44 L65.802 1213.07 L73.4409 1213.07 L73.4409 1217 L53.5336 1217 L53.5336 1213.07 Z" fill="#000000" fill-rule="evenodd" fill-opacity="1" /><path clip-path="url(#clip880)" d="M57.1215 661.643 L73.4409 661.643 L73.4409 665.579 L51.4966 665.579 L51.4966 661.643 Q54.1586 658.889 58.7419 654.259 Q63.3483 649.606 64.5289 648.264 Q66.7743 645.741 67.6539 644.005 Q68.5567 642.245 68.5567 640.556 Q68.5567 637.801 66.6122 636.065 Q64.6909 634.329 61.5891 634.329 Q59.39 634.329 56.9363 635.093 Q54.5058 635.857 51.728 637.407 L51.728 632.685 Q54.5521 631.551 57.0058 630.972 Q59.4595 630.394 61.4965 630.394 Q66.8668 630.394 70.0613 633.079 Q73.2557 635.764 73.2557 640.255 Q73.2557 642.384 72.4455 644.306 Q71.6585 646.204 69.552 648.796 Q68.9733 649.468 65.8715 652.685 Q62.7696 655.88 57.1215 661.643 Z" fill="#000000" fill-rule="evenodd" fill-opacity="1" /><path clip-path="url(#clip880)" d="M66.3113 95.5183 Q69.6678 96.2359 71.5427 98.5044 Q73.4409 100.773 73.4409 104.106 Q73.4409 109.222 69.9224 112.023 Q66.4039 114.824 59.9224 114.824 Q57.7465 114.824 55.4317 114.384 Q53.1401 113.967 50.6864 113.111 L50.6864 108.597 Q52.6308 109.731 54.9456 110.31 Q57.2604 110.889 59.7836 110.889 Q64.1817 110.889 66.4733 109.152 Q68.7881 107.416 68.7881 104.106 Q68.7881 101.051 66.6354 99.3377 Q64.5057 97.6016 60.6863 97.6016 L56.6586 97.6016 L56.6586 93.759 L60.8715 93.759 Q64.3206 93.759 66.1493 92.3933 Q67.978 91.0044 67.978 88.4118 Q67.978 85.7498 66.0798 84.3378 Q64.2048 82.9026 60.6863 82.9026 Q58.765 82.9026 56.566 83.3193 Q54.3669 83.7359 51.728 84.6156 L51.728 80.4489 Q54.3901 79.7082 56.7049 79.3378 Q59.0428 78.9675 61.103 78.9675 Q66.427 78.9675 69.5289 81.398 Q72.6307 83.8054 72.6307 87.9257 Q72.6307 90.7961 70.9872 92.7868 Q69.3437 94.7544 66.3113 95.5183 Z" fill="#000000" fill-rule="evenodd" fill-opacity="1" /><polyline clip-path="url(#clip882)" style="stroke:#009af9; stroke-linecap:round; stroke-linejoin:round; stroke-width:4; stroke-opacity:1; fill:none" points="
  550.119,1751.15 1101.55,648.299 
  "/>
<polyline clip-path="url(#clip882)" style="stroke:#009af9; stroke-linecap:round; stroke-linejoin:round; stroke-width:4; stroke-opacity:1; fill:none" points="
  1065.48,675.346 1101.55,648.299 1101.55,693.378 
  "/>
<polyline clip-path="url(#clip882)" style="stroke:#009af9; stroke-linecap:round; stroke-linejoin:round; stroke-width:4; stroke-opacity:1; fill:none" points="
  1101.55,648.299 550.119,1751.15 
  "/>
<polyline clip-path="url(#clip882)" style="stroke:#e26f46; stroke-linecap:round; stroke-linejoin:round; stroke-width:4; stroke-opacity:1; fill:none" points="
  550.119,1751.15 1652.97,1199.72 
  "/>
<polyline clip-path="url(#clip882)" style="stroke:#e26f46; stroke-linecap:round; stroke-linejoin:round; stroke-width:4; stroke-opacity:1; fill:none" points="
  1607.89,1199.72 1652.97,1199.72 1625.92,1235.79 
  "/>
<polyline clip-path="url(#clip882)" style="stroke:#e26f46; stroke-linecap:round; stroke-linejoin:round; stroke-width:4; stroke-opacity:1; fill:none" points="
  1652.97,1199.72 550.119,1751.15 
  "/>
<polyline clip-path="url(#clip882)" style="stroke:#3da44d; stroke-linecap:round; stroke-linejoin:round; stroke-width:4; stroke-opacity:1; fill:none" points="
  1101.55,648.299 2204.4,96.8724 
  "/>
<polyline clip-path="url(#clip882)" style="stroke:#3da44d; stroke-linecap:round; stroke-linejoin:round; stroke-width:4; stroke-opacity:1; fill:none" points="
  2159.32,96.8724 2204.4,96.8724 2177.35,132.936 
  "/>
<polyline clip-path="url(#clip882)" style="stroke:#3da44d; stroke-linecap:round; stroke-linejoin:round; stroke-width:4; stroke-opacity:1; fill:none" points="
  2204.4,96.8724 1101.55,648.299 
  "/>
<polyline clip-path="url(#clip882)" style="stroke:#c271d2; stroke-linecap:round; stroke-linejoin:round; stroke-width:4; stroke-opacity:1; fill:none" points="
  1652.97,1199.72 2204.4,96.8724 
  "/>
<polyline clip-path="url(#clip882)" style="stroke:#c271d2; stroke-linecap:round; stroke-linejoin:round; stroke-width:4; stroke-opacity:1; fill:none" points="
  2168.33,123.92 2204.4,96.8724 2204.4,141.952 
  "/>
<polyline clip-path="url(#clip882)" style="stroke:#c271d2; stroke-linecap:round; stroke-linejoin:round; stroke-width:4; stroke-opacity:1; fill:none" points="
  2204.4,96.8724 1652.97,1199.72 
  "/>
<polyline clip-path="url(#clip882)" style="stroke:#ac8d18; stroke-linecap:round; stroke-linejoin:round; stroke-width:4; stroke-opacity:1; fill:none" points="
  1432.4,1310.01 1101.55,648.299 
  "/>
<polyline clip-path="url(#clip882)" style="stroke:#ac8d18; stroke-linecap:round; stroke-linejoin:round; stroke-width:4; stroke-opacity:1; fill:none" points="
  1101.55,693.378 1101.55,648.299 1137.61,675.346 
  "/>
<polyline clip-path="url(#clip882)" style="stroke:#ac8d18; stroke-linecap:round; stroke-linejoin:round; stroke-width:4; stroke-opacity:1; fill:none" points="
  1101.55,648.299 1432.4,1310.01 
  "/>
</svg>
