<?xml version="1.0" encoding="utf-8"?>
<svg xmlns="http://www.w3.org/2000/svg" xmlns:xlink="http://www.w3.org/1999/xlink" width="672" height="480" viewBox="0 0 2688 1920">
<defs>
  <clipPath id="clip150">
    <rect x="0" y="0" width="2688" height="1920"/>
  </clipPath>
</defs>
<path clip-path="url(#clip150)" d="
M0 1920 L2688 1920 L2688 0 L0 0  Z
  " fill="#ffffff" fill-rule="evenodd" fill-opacity="1"/>
<defs>
  <clipPath id="clip151">
    <rect x="537" y="0" width="1883" height="1883"/>
  </clipPath>
</defs>
<path clip-path="url(#clip150)" d="
M47.2441 1872.76 L2640.76 1872.76 L2640.76 47.2441 L47.2441 47.2441  Z
  " fill="#ffffff" fill-rule="evenodd" fill-opacity="1"/>
<defs>
  <clipPath id="clip152">
    <rect x="47" y="47" width="2595" height="1827"/>
  </clipPath>
</defs>
<polyline clip-path="url(#clip152)" style="stroke:#0000ff; stroke-linecap:butt; stroke-linejoin:round; stroke-width:16; stroke-opacity:1; fill:none" points="
  608.742,1451.48 618.316,1443.21 706.84,1368.31 760.039,1324.78 805.019,1288.9 853.879,1250.94 898.924,1216.9 947.216,1181.48 1003.17,1141.89 1052.89,1108.05 
  1096.49,1079.45 1144.03,1049.45 1191.86,1020.55 1244.73,990.129 1295.04,962.713 1347.34,935.828 1391.37,914.506 1445.13,890.126 1494.38,869.417 1539.86,851.693 
  1585.93,835.132 1637.57,818.258 1684.36,804.527 1711.14,797.339 1737.93,790.645 1762.73,784.888 1787.53,779.559 1836.43,770.308 1883.91,762.93 1908.24,759.765 
  1932.58,757.018 1959.24,754.49 1985.9,752.466 2024.63,750.426 2063.37,749.454 2071.31,749.387 2079.26,749.364 
  "/>
<polyline clip-path="url(#clip152)" style="stroke:#ff0000; stroke-linecap:butt; stroke-linejoin:round; stroke-width:16; stroke-opacity:1; fill:none" points="
  1344,937.496 1695.06,1672.75 
  "/>
<polyline clip-path="url(#clip152)" style="stroke:#ff0000; stroke-linecap:butt; stroke-linejoin:round; stroke-width:16; stroke-opacity:1; fill:none" points="
  1695.88,1627.68 1695.06,1672.75 1659.49,1645.06 
  "/>
<polyline clip-path="url(#clip152)" style="stroke:#ff0000; stroke-linecap:butt; stroke-linejoin:round; stroke-width:16; stroke-opacity:1; fill:none" points="
  1695.06,1672.75 1344,937.496 
  "/>
<polyline clip-path="url(#clip152)" style="stroke:#000000; stroke-linecap:butt; stroke-linejoin:round; stroke-width:16; stroke-opacity:1; fill:none" points="
  641.88,202.238 1344,937.496 
  "/>
<polyline clip-path="url(#clip152)" style="stroke:#000000; stroke-linecap:butt; stroke-linejoin:round; stroke-width:16; stroke-opacity:1; fill:none" points="
  1330.73,894.413 1344,937.496 1301.57,922.259 
  "/>
<polyline clip-path="url(#clip152)" style="stroke:#000000; stroke-linecap:butt; stroke-linejoin:round; stroke-width:16; stroke-opacity:1; fill:none" points="
  1344,937.496 641.88,202.238 
  "/>
<polyline clip-path="url(#clip152)" style="stroke:#000000; stroke-linecap:butt; stroke-linejoin:round; stroke-width:16; stroke-opacity:1; fill:none" points="
  1344,937.496 1905.7,1672.75 
  "/>
<polyline clip-path="url(#clip152)" style="stroke:#000000; stroke-linecap:butt; stroke-linejoin:round; stroke-width:16; stroke-opacity:1; fill:none" points="
  1897.24,1628.48 1905.7,1672.75 1865.2,1652.95 
  "/>
<polyline clip-path="url(#clip152)" style="stroke:#000000; stroke-linecap:butt; stroke-linejoin:round; stroke-width:16; stroke-opacity:1; fill:none" points="
  1905.7,1672.75 1344,937.496 
  "/>
<path clip-path="url(#clip150)" d="M994.913 717.196 L994.196 718.372 Q989.748 716.45 984.211 713.38 Q978.673 716.45 974.226 718.372 L973.537 717.196 Q978.386 712.978 984.211 709.736 Q990.092 713.007 994.913 717.196 Z" fill="#000000" fill-rule="evenodd" fill-opacity="1" /><path clip-path="url(#clip150)" d="M997.35 733.166 Q997.35 734.232 997.063 736.323 Q996.776 738.413 996.079 741.446 Q995.382 744.479 994.357 747.677 Q993.374 750.874 991.816 754.071 Q990.259 757.227 988.414 759.727 Q986.569 762.228 983.987 763.785 Q981.405 765.343 978.495 765.343 Q977.142 765.343 975.83 765.138 Q974.519 764.933 972.879 764.277 Q971.239 763.621 970.051 762.556 Q968.862 761.449 968.042 759.481 Q967.223 757.514 967.223 754.932 Q967.223 752.267 968.206 748.701 Q969.231 745.094 972.018 737.716 Q973.453 733.904 973.453 731.814 Q973.453 730.871 973.248 730.297 Q973.043 729.682 972.633 729.477 Q972.223 729.231 971.977 729.19 Q971.772 729.149 971.362 729.149 Q969.108 729.149 966.813 731.486 Q964.517 733.822 962.878 739.561 Q962.55 740.585 962.345 740.831 Q962.14 741.077 961.525 741.077 Q960.5 741.036 960.5 740.217 Q960.5 739.971 960.787 739.028 Q961.074 738.044 961.607 736.568 Q962.14 735.052 963.083 733.494 Q964.025 731.896 965.173 730.502 Q966.362 729.108 968.042 728.207 Q969.723 727.305 971.608 727.305 Q974.683 727.305 976.568 729.313 Q978.495 731.281 978.495 734.191 Q978.495 735.79 977.47 738.372 Q975.748 743.045 974.969 745.299 Q974.191 747.554 973.371 750.751 Q972.592 753.948 972.592 756.161 Q972.592 759.522 974.15 761.49 Q975.707 763.457 978.822 763.457 Q981.61 763.457 984.11 761.449 Q986.651 759.4 988.332 756.489 Q990.013 753.538 991.283 750.259 Q992.554 746.939 993.128 744.438 Q993.743 741.897 993.743 740.708 Q993.743 736.568 990.914 733.863 Q990.136 733.084 989.849 732.593 Q989.562 732.101 989.562 731.322 Q989.562 729.887 990.832 728.617 Q992.144 727.305 993.661 727.305 Q995.054 727.305 996.202 728.699 Q997.35 730.092 997.35 733.166 Z" fill="#000000" fill-rule="evenodd" fill-opacity="1" /><path clip-path="url(#clip150)" d="M1008.44 755.042 L1008.44 753.205 Q1015.5 753.205 1019.14 749.447 Q1020.15 749.447 1020.32 749.676 Q1020.49 749.906 1020.49 750.967 L1020.49 783.935 Q1020.49 785.685 1021.35 786.23 Q1022.21 786.775 1025.97 786.775 L1027.84 786.775 L1027.84 788.583 Q1025.77 788.411 1018.31 788.411 Q1010.85 788.411 1008.82 788.583 L1008.82 786.775 L1010.68 786.775 Q1014.38 786.775 1015.27 786.259 Q1016.16 785.714 1016.16 783.935 L1016.16 753.492 Q1013.09 755.042 1008.44 755.042 Z" fill="#000000" fill-rule="evenodd" fill-opacity="1" /><path clip-path="url(#clip150)" d="M720.43 1094.69 Q720.43 1095.02 720.061 1096.29 Q719.692 1097.56 718.791 1099.53 Q717.93 1101.49 716.741 1103.3 Q715.553 1105.06 713.585 1106.37 Q711.659 1107.64 709.445 1107.64 Q706.494 1107.64 704.526 1105.67 Q702.559 1103.71 702.559 1100.76 Q702.559 1099.12 703.42 1096.86 Q708.871 1082.31 708.871 1077.31 Q708.871 1071.45 704.321 1071.45 Q702.067 1071.45 699.936 1072.31 Q697.845 1073.13 696.411 1074.28 Q694.976 1075.42 693.664 1077.02 Q692.394 1078.58 691.738 1079.65 Q691.123 1080.67 690.631 1081.7 L689.565 1085.88 Q689.319 1087.02 688.131 1091.49 L686.286 1099.07 Q684.974 1104.73 684.688 1105.26 Q684.278 1106.41 683.376 1107.03 Q682.474 1107.64 681.572 1107.64 Q680.548 1107.64 679.851 1107.03 Q679.154 1106.41 679.154 1105.35 Q679.154 1105.18 679.277 1104.57 Q679.4 1103.95 679.605 1103.09 Q679.81 1102.23 679.892 1101.74 L684.77 1082.35 Q685.671 1078.83 685.876 1077.72 Q686.122 1076.57 686.122 1075.3 Q686.122 1071.45 683.499 1071.45 Q681.367 1071.45 679.974 1073.99 Q678.58 1076.53 677.391 1081.45 Q677.023 1082.8 676.777 1083.09 Q676.572 1083.38 675.957 1083.38 Q674.932 1083.33 674.932 1082.52 Q674.932 1082.31 675.26 1080.96 Q675.588 1079.6 676.203 1077.68 Q676.859 1075.71 677.473 1074.4 Q678.006 1073.42 678.293 1072.96 Q678.621 1072.47 679.4 1071.53 Q680.22 1070.55 681.285 1070.1 Q682.392 1069.6 683.745 1069.6 Q686.778 1069.6 688.991 1071.57 Q691.205 1073.5 691.492 1076.9 Q696.943 1069.6 704.567 1069.6 Q709.076 1069.6 711.659 1071.98 Q714.241 1074.36 714.241 1078.58 Q714.241 1079.56 714.036 1080.83 Q713.872 1082.06 713.462 1083.62 Q713.093 1085.18 712.765 1086.37 Q712.437 1087.56 711.781 1089.48 Q711.126 1091.37 710.839 1092.19 Q710.552 1093.01 709.855 1094.93 Q709.199 1096.82 709.117 1097.03 Q707.601 1100.84 707.601 1103.01 Q707.601 1104.44 708.051 1105.1 Q708.543 1105.76 709.609 1105.76 Q712.478 1105.76 714.61 1102.93 Q716.782 1100.06 718.176 1095.39 Q718.504 1094.36 718.668 1094.12 Q718.873 1093.87 719.446 1093.87 Q720.43 1093.87 720.43 1094.69 Z" fill="#000000" fill-rule="evenodd" fill-opacity="1" /><path clip-path="url(#clip150)" d="M728.955 1097.34 L728.955 1095.5 Q736.013 1095.5 739.657 1091.75 Q740.661 1091.75 740.833 1091.97 Q741.005 1092.2 741.005 1093.27 L741.005 1126.23 Q741.005 1127.98 741.866 1128.53 Q742.727 1129.07 746.486 1129.07 L748.351 1129.07 L748.351 1130.88 Q746.285 1130.71 738.825 1130.71 Q731.365 1130.71 729.328 1130.88 L729.328 1129.07 L731.193 1129.07 Q734.894 1129.07 735.783 1128.56 Q736.673 1128.01 736.673 1126.23 L736.673 1095.79 Q733.603 1097.34 728.955 1097.34 Z" fill="#000000" fill-rule="evenodd" fill-opacity="1" /><path clip-path="url(#clip150)" d="M1399.26 1140.53 L1398.55 1141.71 Q1394.1 1139.79 1388.56 1136.72 Q1383.02 1139.79 1378.58 1141.71 L1377.89 1140.53 Q1382.74 1136.31 1388.56 1133.07 Q1394.44 1136.34 1399.26 1140.53 Z" fill="#000000" fill-rule="evenodd" fill-opacity="1" /><path clip-path="url(#clip150)" d="M1418.72 1151.39 Q1418.72 1153.07 1417.28 1153.07 Q1412.65 1153.23 1410.76 1154.79 Q1408.92 1156.31 1408.22 1159.26 L1396.5 1206.03 Q1396.09 1207.5 1395.84 1207.67 Q1395.6 1207.79 1395.15 1207.79 Q1394.57 1207.79 1394.24 1207.5 Q1393.96 1207.22 1393.55 1206.19 L1372.64 1156.76 Q1372.48 1156.43 1372.27 1155.98 Q1372.07 1155.53 1371.91 1155.24 L1360.8 1199.55 Q1360.47 1200.82 1360.47 1201.48 Q1360.47 1203.08 1361.58 1204.1 Q1362.72 1205.09 1366 1205.21 Q1367.68 1205.21 1367.68 1206.11 Q1367.68 1207.79 1366.17 1207.79 Q1364.77 1207.79 1361.86 1207.67 Q1358.95 1207.55 1357.52 1207.55 Q1356.12 1207.55 1353.3 1207.67 Q1350.47 1207.79 1349.12 1207.79 Q1348.05 1207.79 1348.05 1206.85 Q1348.05 1206.11 1348.34 1205.74 Q1348.62 1205.33 1348.87 1205.29 Q1349.12 1205.21 1349.48 1205.21 Q1351.94 1205.13 1353.62 1204.63 Q1355.31 1204.14 1356.25 1203.2 Q1357.23 1202.26 1357.68 1201.31 Q1358.17 1200.33 1358.54 1198.9 L1369.77 1153.81 Q1369.77 1153.07 1364.08 1153.07 Q1363.09 1153.07 1362.68 1153.03 Q1362.31 1152.99 1362.03 1152.78 Q1361.74 1152.58 1361.74 1152.13 Q1361.74 1150.98 1362.23 1150.73 Q1362.72 1150.45 1364.16 1150.45 L1375.43 1150.45 Q1376.87 1150.45 1377.23 1150.69 Q1377.6 1150.9 1378.1 1152.05 L1396.66 1195.86 L1406.05 1158.52 Q1406.3 1157.78 1406.3 1156.76 Q1406.3 1155.12 1405.07 1154.14 Q1403.88 1153.11 1400.6 1153.07 Q1399.08 1153.07 1399.08 1152.13 Q1399.08 1151.35 1399.37 1150.98 Q1399.7 1150.57 1399.94 1150.53 Q1400.23 1150.45 1400.6 1150.45 Q1401.99 1150.45 1404.86 1150.57 Q1407.73 1150.69 1409.17 1150.69 Q1410.56 1150.69 1413.39 1150.57 Q1416.26 1150.45 1417.65 1150.45 Q1418.14 1150.45 1418.39 1150.69 Q1418.67 1150.9 1418.72 1151.14 L1418.72 1151.39 Z" fill="#000000" fill-rule="evenodd" fill-opacity="1" /><path clip-path="url(#clip150)" d="M1624.81 1138.47 L1624.09 1139.64 Q1619.64 1137.72 1614.1 1134.65 Q1608.57 1137.72 1604.12 1139.64 L1603.43 1138.47 Q1608.28 1134.25 1614.1 1131.01 Q1619.99 1134.28 1624.81 1138.47 Z" fill="#000000" fill-rule="evenodd" fill-opacity="1" /><path clip-path="url(#clip150)" d="M1627.24 1154.44 Q1627.24 1155.5 1626.96 1157.59 Q1626.67 1159.68 1625.97 1162.72 Q1625.27 1165.75 1624.25 1168.95 Q1623.27 1172.15 1621.71 1175.34 Q1620.15 1178.5 1618.31 1181 Q1616.46 1183.5 1613.88 1185.06 Q1611.3 1186.61 1608.39 1186.61 Q1607.03 1186.61 1605.72 1186.41 Q1604.41 1186.21 1602.77 1185.55 Q1601.13 1184.89 1599.94 1183.83 Q1598.75 1182.72 1597.94 1180.75 Q1597.12 1178.79 1597.12 1176.2 Q1597.12 1173.54 1598.1 1169.97 Q1599.12 1166.37 1601.91 1158.99 Q1603.35 1155.18 1603.35 1153.09 Q1603.35 1152.14 1603.14 1151.57 Q1602.94 1150.95 1602.53 1150.75 Q1602.12 1150.5 1601.87 1150.46 Q1601.67 1150.42 1601.26 1150.42 Q1599 1150.42 1596.71 1152.76 Q1594.41 1155.09 1592.77 1160.83 Q1592.44 1161.86 1592.24 1162.1 Q1592.03 1162.35 1591.42 1162.35 Q1590.39 1162.31 1590.39 1161.49 Q1590.39 1161.24 1590.68 1160.3 Q1590.97 1159.32 1591.5 1157.84 Q1592.03 1156.32 1592.98 1154.77 Q1593.92 1153.17 1595.07 1151.77 Q1596.25 1150.38 1597.94 1149.48 Q1599.62 1148.58 1601.5 1148.58 Q1604.58 1148.58 1606.46 1150.59 Q1608.39 1152.55 1608.39 1155.46 Q1608.39 1157.06 1607.36 1159.64 Q1605.64 1164.32 1604.86 1166.57 Q1604.08 1168.83 1603.26 1172.02 Q1602.48 1175.22 1602.48 1177.43 Q1602.48 1180.79 1604.04 1182.76 Q1605.6 1184.73 1608.72 1184.73 Q1611.5 1184.73 1614 1182.72 Q1616.54 1180.67 1618.22 1177.76 Q1619.91 1174.81 1621.18 1171.53 Q1622.45 1168.21 1623.02 1165.71 Q1623.64 1163.17 1623.64 1161.98 Q1623.64 1157.84 1620.81 1155.14 Q1620.03 1154.36 1619.74 1153.86 Q1619.45 1153.37 1619.45 1152.59 Q1619.45 1151.16 1620.73 1149.89 Q1622.04 1148.58 1623.55 1148.58 Q1624.95 1148.58 1626.09 1149.97 Q1627.24 1151.36 1627.24 1154.44 Z" fill="#000000" fill-rule="evenodd" fill-opacity="1" /><path clip-path="url(#clip150)" d="M1638.34 1209.86 Q1638.34 1208.79 1638.42 1208.48 Q1638.54 1208.16 1639 1207.67 L1650.27 1195.11 Q1656.44 1188.16 1656.44 1182.11 Q1656.44 1178.18 1654.37 1175.37 Q1652.34 1172.55 1648.58 1172.55 Q1646 1172.55 1643.82 1174.13 Q1641.63 1175.71 1640.63 1178.52 Q1640.8 1178.47 1641.41 1178.47 Q1642.87 1178.47 1643.67 1179.38 Q1644.5 1180.3 1644.5 1181.54 Q1644.5 1183.11 1643.47 1183.89 Q1642.47 1184.63 1641.46 1184.63 Q1641.06 1184.63 1640.52 1184.55 Q1640 1184.46 1639.17 1183.66 Q1638.34 1182.83 1638.34 1181.36 Q1638.34 1177.26 1641.43 1173.99 Q1644.56 1170.72 1649.32 1170.72 Q1654.72 1170.72 1658.25 1173.93 Q1661.81 1177.12 1661.81 1182.11 Q1661.81 1183.86 1661.26 1185.47 Q1660.74 1187.04 1660.03 1188.28 Q1659.34 1189.51 1657.44 1191.49 Q1655.55 1193.47 1654.03 1194.88 Q1652.51 1196.28 1649.09 1199.27 L1642.87 1205.32 L1653.46 1205.32 Q1658.62 1205.32 1659.02 1204.86 Q1659.6 1204.03 1660.31 1199.64 L1661.81 1199.64 L1660.14 1209.86 L1638.34 1209.86 Z" fill="#000000" fill-rule="evenodd" fill-opacity="1" /><path clip-path="url(#clip150)" d="M1982.23 1094.69 Q1982.23 1095.02 1981.86 1096.29 Q1981.49 1097.56 1980.59 1099.53 Q1979.73 1101.49 1978.54 1103.3 Q1977.35 1105.06 1975.39 1106.37 Q1973.46 1107.64 1971.25 1107.64 Q1968.29 1107.64 1966.33 1105.67 Q1964.36 1103.71 1964.36 1100.76 Q1964.36 1099.12 1965.22 1096.86 Q1970.67 1082.31 1970.67 1077.31 Q1970.67 1071.45 1966.12 1071.45 Q1963.87 1071.45 1961.74 1072.31 Q1959.65 1073.13 1958.21 1074.28 Q1956.78 1075.42 1955.46 1077.02 Q1954.19 1078.58 1953.54 1079.65 Q1952.92 1080.67 1952.43 1081.7 L1951.37 1085.88 Q1951.12 1087.02 1949.93 1091.49 L1948.09 1099.07 Q1946.78 1104.73 1946.49 1105.26 Q1946.08 1106.41 1945.18 1107.03 Q1944.27 1107.64 1943.37 1107.64 Q1942.35 1107.64 1941.65 1107.03 Q1940.95 1106.41 1940.95 1105.35 Q1940.95 1105.18 1941.08 1104.57 Q1941.2 1103.95 1941.41 1103.09 Q1941.61 1102.23 1941.69 1101.74 L1946.57 1082.35 Q1947.47 1078.83 1947.68 1077.72 Q1947.92 1076.57 1947.92 1075.3 Q1947.92 1071.45 1945.3 1071.45 Q1943.17 1071.45 1941.77 1073.99 Q1940.38 1076.53 1939.19 1081.45 Q1938.82 1082.8 1938.58 1083.09 Q1938.37 1083.38 1937.76 1083.38 Q1936.73 1083.33 1936.73 1082.52 Q1936.73 1082.31 1937.06 1080.96 Q1937.39 1079.6 1938 1077.68 Q1938.66 1075.71 1939.27 1074.4 Q1939.81 1073.42 1940.09 1072.96 Q1940.42 1072.47 1941.2 1071.53 Q1942.02 1070.55 1943.09 1070.1 Q1944.19 1069.6 1945.55 1069.6 Q1948.58 1069.6 1950.79 1071.57 Q1953.01 1073.5 1953.29 1076.9 Q1958.74 1069.6 1966.37 1069.6 Q1970.88 1069.6 1973.46 1071.98 Q1976.04 1074.36 1976.04 1078.58 Q1976.04 1079.56 1975.84 1080.83 Q1975.67 1082.06 1975.26 1083.62 Q1974.89 1085.18 1974.57 1086.37 Q1974.24 1087.56 1973.58 1089.48 Q1972.93 1091.37 1972.64 1092.19 Q1972.35 1093.01 1971.66 1094.93 Q1971 1096.82 1970.92 1097.03 Q1969.4 1100.84 1969.4 1103.01 Q1969.4 1104.44 1969.85 1105.1 Q1970.34 1105.76 1971.41 1105.76 Q1974.28 1105.76 1976.41 1102.93 Q1978.58 1100.06 1979.98 1095.39 Q1980.3 1094.36 1980.47 1094.12 Q1980.67 1093.87 1981.25 1093.87 Q1982.23 1093.87 1982.23 1094.69 Z" fill="#000000" fill-rule="evenodd" fill-opacity="1" /><path clip-path="url(#clip150)" d="M1990.76 1130.88 Q1990.76 1129.82 1990.84 1129.5 Q1990.96 1129.19 1991.42 1128.7 L2002.69 1116.13 Q2008.86 1109.19 2008.86 1103.14 Q2008.86 1099.21 2006.79 1096.39 Q2004.76 1093.58 2001 1093.58 Q1998.42 1093.58 1996.24 1095.16 Q1994.06 1096.74 1993.05 1099.55 Q1993.22 1099.49 1993.83 1099.49 Q1995.29 1099.49 1996.09 1100.41 Q1996.92 1101.33 1996.92 1102.56 Q1996.92 1104.14 1995.89 1104.91 Q1994.89 1105.66 1993.88 1105.66 Q1993.48 1105.66 1992.94 1105.57 Q1992.42 1105.49 1991.59 1104.69 Q1990.76 1103.85 1990.76 1102.39 Q1990.76 1098.29 1993.85 1095.02 Q1996.98 1091.75 2001.74 1091.75 Q2007.14 1091.75 2010.67 1094.96 Q2014.23 1098.14 2014.23 1103.14 Q2014.23 1104.89 2013.68 1106.49 Q2013.16 1108.07 2012.45 1109.3 Q2011.76 1110.54 2009.86 1112.52 Q2007.97 1114.5 2006.45 1115.9 Q2004.93 1117.31 2001.52 1120.29 L1995.29 1126.35 L2005.88 1126.35 Q2011.04 1126.35 2011.44 1125.89 Q2012.02 1125.06 2012.73 1120.67 L2014.23 1120.67 L2012.56 1130.88 L1990.76 1130.88 Z" fill="#000000" fill-rule="evenodd" fill-opacity="1" /></svg>
