<?xml version="1.0" encoding="utf-8"?>
<svg xmlns="http://www.w3.org/2000/svg" xmlns:xlink="http://www.w3.org/1999/xlink" width="672" height="480" viewBox="0 0 2688 1920">
<defs>
  <clipPath id="clip930">
    <rect x="0" y="0" width="2688" height="1920"/>
  </clipPath>
</defs>
<path clip-path="url(#clip930)" d="
M0 1920 L2688 1920 L2688 0 L0 0  Z
  " fill="#ffffff" fill-rule="evenodd" fill-opacity="1"/>
<defs>
  <clipPath id="clip931">
    <rect x="537" y="0" width="1883" height="1883"/>
  </clipPath>
</defs>
<path clip-path="url(#clip930)" d="
M226.33 1800.78 L2640.76 1800.78 L2640.76 47.2441 L226.33 47.2441  Z
  " fill="#ffffff" fill-rule="evenodd" fill-opacity="1"/>
<defs>
  <clipPath id="clip932">
    <rect x="226" y="47" width="2415" height="1755"/>
  </clipPath>
</defs>
<polyline clip-path="url(#clip932)" style="stroke:#000000; stroke-linecap:butt; stroke-linejoin:round; stroke-width:2; stroke-opacity:0.1; fill:none" points="
  607.797,1800.78 607.797,47.2441 
  "/>
<polyline clip-path="url(#clip932)" style="stroke:#000000; stroke-linecap:butt; stroke-linejoin:round; stroke-width:2; stroke-opacity:0.1; fill:none" points="
  1098.95,1800.78 1098.95,47.2441 
  "/>
<polyline clip-path="url(#clip932)" style="stroke:#000000; stroke-linecap:butt; stroke-linejoin:round; stroke-width:2; stroke-opacity:0.1; fill:none" points="
  1590.11,1800.78 1590.11,47.2441 
  "/>
<polyline clip-path="url(#clip932)" style="stroke:#000000; stroke-linecap:butt; stroke-linejoin:round; stroke-width:2; stroke-opacity:0.1; fill:none" points="
  2081.27,1800.78 2081.27,47.2441 
  "/>
<polyline clip-path="url(#clip932)" style="stroke:#000000; stroke-linecap:butt; stroke-linejoin:round; stroke-width:2; stroke-opacity:0.1; fill:none" points="
  2572.42,1800.78 2572.42,47.2441 
  "/>
<polyline clip-path="url(#clip930)" style="stroke:#000000; stroke-linecap:butt; stroke-linejoin:round; stroke-width:4; stroke-opacity:1; fill:none" points="
  226.33,1800.78 2640.76,1800.78 
  "/>
<polyline clip-path="url(#clip930)" style="stroke:#000000; stroke-linecap:butt; stroke-linejoin:round; stroke-width:4; stroke-opacity:1; fill:none" points="
  607.797,1800.78 607.797,1781.88 
  "/>
<polyline clip-path="url(#clip930)" style="stroke:#000000; stroke-linecap:butt; stroke-linejoin:round; stroke-width:4; stroke-opacity:1; fill:none" points="
  1098.95,1800.78 1098.95,1781.88 
  "/>
<polyline clip-path="url(#clip930)" style="stroke:#000000; stroke-linecap:butt; stroke-linejoin:round; stroke-width:4; stroke-opacity:1; fill:none" points="
  1590.11,1800.78 1590.11,1781.88 
  "/>
<polyline clip-path="url(#clip930)" style="stroke:#000000; stroke-linecap:butt; stroke-linejoin:round; stroke-width:4; stroke-opacity:1; fill:none" points="
  2081.27,1800.78 2081.27,1781.88 
  "/>
<polyline clip-path="url(#clip930)" style="stroke:#000000; stroke-linecap:butt; stroke-linejoin:round; stroke-width:4; stroke-opacity:1; fill:none" points="
  2572.42,1800.78 2572.42,1781.88 
  "/>
<path clip-path="url(#clip930)" d="M494.001 1848.65 L523.677 1848.65 L523.677 1852.59 L494.001 1852.59 L494.001 1848.65 Z" fill="#000000" fill-rule="evenodd" fill-opacity="1" /><path clip-path="url(#clip930)" d="M543.769 1834 Q540.158 1834 538.329 1837.57 Q536.524 1841.11 536.524 1848.24 Q536.524 1855.34 538.329 1858.91 Q540.158 1862.45 543.769 1862.45 Q547.403 1862.45 549.209 1858.91 Q551.038 1855.34 551.038 1848.24 Q551.038 1841.11 549.209 1837.57 Q547.403 1834 543.769 1834 M543.769 1830.3 Q549.579 1830.3 552.635 1834.9 Q555.714 1839.49 555.714 1848.24 Q555.714 1856.96 552.635 1861.57 Q549.579 1866.15 543.769 1866.15 Q537.959 1866.15 534.88 1861.57 Q531.825 1856.96 531.825 1848.24 Q531.825 1839.49 534.88 1834.9 Q537.959 1830.3 543.769 1830.3 Z" fill="#000000" fill-rule="evenodd" fill-opacity="1" /><path clip-path="url(#clip930)" d="M563.931 1859.6 L568.815 1859.6 L568.815 1865.48 L563.931 1865.48 L563.931 1859.6 Z" fill="#000000" fill-rule="evenodd" fill-opacity="1" /><path clip-path="url(#clip930)" d="M589 1834 Q585.389 1834 583.561 1837.57 Q581.755 1841.11 581.755 1848.24 Q581.755 1855.34 583.561 1858.91 Q585.389 1862.45 589 1862.45 Q592.635 1862.45 594.44 1858.91 Q596.269 1855.34 596.269 1848.24 Q596.269 1841.11 594.44 1837.57 Q592.635 1834 589 1834 M589 1830.3 Q594.811 1830.3 597.866 1834.9 Q600.945 1839.49 600.945 1848.24 Q600.945 1856.96 597.866 1861.57 Q594.811 1866.15 589 1866.15 Q583.19 1866.15 580.112 1861.57 Q577.056 1856.96 577.056 1848.24 Q577.056 1839.49 580.112 1834.9 Q583.19 1830.3 589 1830.3 Z" fill="#000000" fill-rule="evenodd" fill-opacity="1" /><path clip-path="url(#clip930)" d="M619.162 1834 Q615.551 1834 613.723 1837.57 Q611.917 1841.11 611.917 1848.24 Q611.917 1855.34 613.723 1858.91 Q615.551 1862.45 619.162 1862.45 Q622.797 1862.45 624.602 1858.91 Q626.431 1855.34 626.431 1848.24 Q626.431 1841.11 624.602 1837.57 Q622.797 1834 619.162 1834 M619.162 1830.3 Q624.972 1830.3 628.028 1834.9 Q631.107 1839.49 631.107 1848.24 Q631.107 1856.96 628.028 1861.57 Q624.972 1866.15 619.162 1866.15 Q613.352 1866.15 610.273 1861.57 Q607.218 1856.96 607.218 1848.24 Q607.218 1839.49 610.273 1834.9 Q613.352 1830.3 619.162 1830.3 Z" fill="#000000" fill-rule="evenodd" fill-opacity="1" /><path clip-path="url(#clip930)" d="M640.134 1861.55 L647.773 1861.55 L647.773 1835.18 L639.463 1836.85 L639.463 1832.59 L647.727 1830.92 L652.403 1830.92 L652.403 1861.55 L660.042 1861.55 L660.042 1865.48 L640.134 1865.48 L640.134 1861.55 Z" fill="#000000" fill-rule="evenodd" fill-opacity="1" /><path clip-path="url(#clip930)" d="M679.486 1834 Q675.875 1834 674.046 1837.57 Q672.241 1841.11 672.241 1848.24 Q672.241 1855.34 674.046 1858.91 Q675.875 1862.45 679.486 1862.45 Q683.12 1862.45 684.926 1858.91 Q686.755 1855.34 686.755 1848.24 Q686.755 1841.11 684.926 1837.57 Q683.12 1834 679.486 1834 M679.486 1830.3 Q685.296 1830.3 688.352 1834.9 Q691.43 1839.49 691.43 1848.24 Q691.43 1856.96 688.352 1861.57 Q685.296 1866.15 679.486 1866.15 Q673.676 1866.15 670.597 1861.57 Q667.542 1856.96 667.542 1848.24 Q667.542 1839.49 670.597 1834.9 Q673.676 1830.3 679.486 1830.3 Z" fill="#000000" fill-rule="evenodd" fill-opacity="1" /><path clip-path="url(#clip930)" d="M709.648 1834 Q706.037 1834 704.208 1837.57 Q702.403 1841.11 702.403 1848.24 Q702.403 1855.34 704.208 1858.91 Q706.037 1862.45 709.648 1862.45 Q713.282 1862.45 715.088 1858.91 Q716.916 1855.34 716.916 1848.24 Q716.916 1841.11 715.088 1837.57 Q713.282 1834 709.648 1834 M709.648 1830.3 Q715.458 1830.3 718.514 1834.9 Q721.592 1839.49 721.592 1848.24 Q721.592 1856.96 718.514 1861.57 Q715.458 1866.15 709.648 1866.15 Q703.838 1866.15 700.759 1861.57 Q697.704 1856.96 697.704 1848.24 Q697.704 1839.49 700.759 1834.9 Q703.838 1830.3 709.648 1830.3 Z" fill="#000000" fill-rule="evenodd" fill-opacity="1" /><path clip-path="url(#clip930)" d="M985.655 1848.65 L1015.33 1848.65 L1015.33 1852.59 L985.655 1852.59 L985.655 1848.65 Z" fill="#000000" fill-rule="evenodd" fill-opacity="1" /><path clip-path="url(#clip930)" d="M1035.42 1834 Q1031.81 1834 1029.98 1837.57 Q1028.18 1841.11 1028.18 1848.24 Q1028.18 1855.34 1029.98 1858.91 Q1031.81 1862.45 1035.42 1862.45 Q1039.06 1862.45 1040.86 1858.91 Q1042.69 1855.34 1042.69 1848.24 Q1042.69 1841.11 1040.86 1837.57 Q1039.06 1834 1035.42 1834 M1035.42 1830.3 Q1041.23 1830.3 1044.29 1834.9 Q1047.37 1839.49 1047.37 1848.24 Q1047.37 1856.96 1044.29 1861.57 Q1041.23 1866.15 1035.42 1866.15 Q1029.61 1866.15 1026.53 1861.57 Q1023.48 1856.96 1023.48 1848.24 Q1023.48 1839.49 1026.53 1834.9 Q1029.61 1830.3 1035.42 1830.3 Z" fill="#000000" fill-rule="evenodd" fill-opacity="1" /><path clip-path="url(#clip930)" d="M1055.59 1859.6 L1060.47 1859.6 L1060.47 1865.48 L1055.59 1865.48 L1055.59 1859.6 Z" fill="#000000" fill-rule="evenodd" fill-opacity="1" /><path clip-path="url(#clip930)" d="M1080.65 1834 Q1077.04 1834 1075.21 1837.57 Q1073.41 1841.11 1073.41 1848.24 Q1073.41 1855.34 1075.21 1858.91 Q1077.04 1862.45 1080.65 1862.45 Q1084.29 1862.45 1086.09 1858.91 Q1087.92 1855.34 1087.92 1848.24 Q1087.92 1841.11 1086.09 1837.57 Q1084.29 1834 1080.65 1834 M1080.65 1830.3 Q1086.46 1830.3 1089.52 1834.9 Q1092.6 1839.49 1092.6 1848.24 Q1092.6 1856.96 1089.52 1861.57 Q1086.46 1866.15 1080.65 1866.15 Q1074.84 1866.15 1071.77 1861.57 Q1068.71 1856.96 1068.71 1848.24 Q1068.71 1839.49 1071.77 1834.9 Q1074.84 1830.3 1080.65 1830.3 Z" fill="#000000" fill-rule="evenodd" fill-opacity="1" /><path clip-path="url(#clip930)" d="M1110.82 1834 Q1107.21 1834 1105.38 1837.57 Q1103.57 1841.11 1103.57 1848.24 Q1103.57 1855.34 1105.38 1858.91 Q1107.21 1862.45 1110.82 1862.45 Q1114.45 1862.45 1116.26 1858.91 Q1118.09 1855.34 1118.09 1848.24 Q1118.09 1841.11 1116.26 1837.57 Q1114.45 1834 1110.82 1834 M1110.82 1830.3 Q1116.63 1830.3 1119.68 1834.9 Q1122.76 1839.49 1122.76 1848.24 Q1122.76 1856.96 1119.68 1861.57 Q1116.63 1866.15 1110.82 1866.15 Q1105.01 1866.15 1101.93 1861.57 Q1098.87 1856.96 1098.87 1848.24 Q1098.87 1839.49 1101.93 1834.9 Q1105.01 1830.3 1110.82 1830.3 Z" fill="#000000" fill-rule="evenodd" fill-opacity="1" /><path clip-path="url(#clip930)" d="M1140.98 1834 Q1137.37 1834 1135.54 1837.57 Q1133.73 1841.11 1133.73 1848.24 Q1133.73 1855.34 1135.54 1858.91 Q1137.37 1862.45 1140.98 1862.45 Q1144.61 1862.45 1146.42 1858.91 Q1148.25 1855.34 1148.25 1848.24 Q1148.25 1841.11 1146.42 1837.57 Q1144.61 1834 1140.98 1834 M1140.98 1830.3 Q1146.79 1830.3 1149.84 1834.9 Q1152.92 1839.49 1152.92 1848.24 Q1152.92 1856.96 1149.84 1861.57 Q1146.79 1866.15 1140.98 1866.15 Q1135.17 1866.15 1132.09 1861.57 Q1129.03 1856.96 1129.03 1848.24 Q1129.03 1839.49 1132.09 1834.9 Q1135.17 1830.3 1140.98 1830.3 Z" fill="#000000" fill-rule="evenodd" fill-opacity="1" /><path clip-path="url(#clip930)" d="M1159.96 1830.92 L1182.18 1830.92 L1182.18 1832.91 L1169.64 1865.48 L1164.75 1865.48 L1176.56 1834.86 L1159.96 1834.86 L1159.96 1830.92 Z" fill="#000000" fill-rule="evenodd" fill-opacity="1" /><path clip-path="url(#clip930)" d="M1191.35 1830.92 L1209.7 1830.92 L1209.7 1834.86 L1195.63 1834.86 L1195.63 1843.33 Q1196.65 1842.98 1197.67 1842.82 Q1198.69 1842.64 1199.71 1842.64 Q1205.49 1842.64 1208.87 1845.81 Q1212.25 1848.98 1212.25 1854.4 Q1212.25 1859.97 1208.78 1863.08 Q1205.31 1866.15 1198.99 1866.15 Q1196.81 1866.15 1194.54 1865.78 Q1192.3 1865.41 1189.89 1864.67 L1189.89 1859.97 Q1191.97 1861.11 1194.2 1861.66 Q1196.42 1862.22 1198.89 1862.22 Q1202.9 1862.22 1205.24 1860.11 Q1207.58 1858.01 1207.58 1854.4 Q1207.58 1850.78 1205.24 1848.68 Q1202.9 1846.57 1198.89 1846.57 Q1197.02 1846.57 1195.14 1846.99 Q1193.29 1847.4 1191.35 1848.28 L1191.35 1830.92 Z" fill="#000000" fill-rule="evenodd" fill-opacity="1" /><path clip-path="url(#clip930)" d="M1476.31 1848.65 L1505.99 1848.65 L1505.99 1852.59 L1476.31 1852.59 L1476.31 1848.65 Z" fill="#000000" fill-rule="evenodd" fill-opacity="1" /><path clip-path="url(#clip930)" d="M1526.08 1834 Q1522.47 1834 1520.64 1837.57 Q1518.84 1841.11 1518.84 1848.24 Q1518.84 1855.34 1520.64 1858.91 Q1522.47 1862.45 1526.08 1862.45 Q1529.72 1862.45 1531.52 1858.91 Q1533.35 1855.34 1533.35 1848.24 Q1533.35 1841.11 1531.52 1837.57 Q1529.72 1834 1526.08 1834 M1526.08 1830.3 Q1531.89 1830.3 1534.95 1834.9 Q1538.03 1839.49 1538.03 1848.24 Q1538.03 1856.96 1534.95 1861.57 Q1531.89 1866.15 1526.08 1866.15 Q1520.27 1866.15 1517.19 1861.57 Q1514.14 1856.96 1514.14 1848.24 Q1514.14 1839.49 1517.19 1834.9 Q1520.27 1830.3 1526.08 1830.3 Z" fill="#000000" fill-rule="evenodd" fill-opacity="1" /><path clip-path="url(#clip930)" d="M1546.24 1859.6 L1551.13 1859.6 L1551.13 1865.48 L1546.24 1865.48 L1546.24 1859.6 Z" fill="#000000" fill-rule="evenodd" fill-opacity="1" /><path clip-path="url(#clip930)" d="M1571.31 1834 Q1567.7 1834 1565.87 1837.57 Q1564.07 1841.11 1564.07 1848.24 Q1564.07 1855.34 1565.87 1858.91 Q1567.7 1862.45 1571.31 1862.45 Q1574.95 1862.45 1576.75 1858.91 Q1578.58 1855.34 1578.58 1848.24 Q1578.58 1841.11 1576.75 1837.57 Q1574.95 1834 1571.31 1834 M1571.31 1830.3 Q1577.12 1830.3 1580.18 1834.9 Q1583.26 1839.49 1583.26 1848.24 Q1583.26 1856.96 1580.18 1861.57 Q1577.12 1866.15 1571.31 1866.15 Q1565.5 1866.15 1562.42 1861.57 Q1559.37 1856.96 1559.37 1848.24 Q1559.37 1839.49 1562.42 1834.9 Q1565.5 1830.3 1571.31 1830.3 Z" fill="#000000" fill-rule="evenodd" fill-opacity="1" /><path clip-path="url(#clip930)" d="M1601.48 1834 Q1597.86 1834 1596.04 1837.57 Q1594.23 1841.11 1594.23 1848.24 Q1594.23 1855.34 1596.04 1858.91 Q1597.86 1862.45 1601.48 1862.45 Q1605.11 1862.45 1606.92 1858.91 Q1608.74 1855.34 1608.74 1848.24 Q1608.74 1841.11 1606.92 1837.57 Q1605.11 1834 1601.48 1834 M1601.48 1830.3 Q1607.29 1830.3 1610.34 1834.9 Q1613.42 1839.49 1613.42 1848.24 Q1613.42 1856.96 1610.34 1861.57 Q1607.29 1866.15 1601.48 1866.15 Q1595.67 1866.15 1592.59 1861.57 Q1589.53 1856.96 1589.53 1848.24 Q1589.53 1839.49 1592.59 1834.9 Q1595.67 1830.3 1601.48 1830.3 Z" fill="#000000" fill-rule="evenodd" fill-opacity="1" /><path clip-path="url(#clip930)" d="M1631.64 1834 Q1628.03 1834 1626.2 1837.57 Q1624.39 1841.11 1624.39 1848.24 Q1624.39 1855.34 1626.2 1858.91 Q1628.03 1862.45 1631.64 1862.45 Q1635.27 1862.45 1637.08 1858.91 Q1638.91 1855.34 1638.91 1848.24 Q1638.91 1841.11 1637.08 1837.57 Q1635.27 1834 1631.64 1834 M1631.64 1830.3 Q1637.45 1830.3 1640.5 1834.9 Q1643.58 1839.49 1643.58 1848.24 Q1643.58 1856.96 1640.5 1861.57 Q1637.45 1866.15 1631.64 1866.15 Q1625.83 1866.15 1622.75 1861.57 Q1619.69 1856.96 1619.69 1848.24 Q1619.69 1839.49 1622.75 1834.9 Q1625.83 1830.3 1631.64 1830.3 Z" fill="#000000" fill-rule="evenodd" fill-opacity="1" /><path clip-path="url(#clip930)" d="M1651.85 1830.92 L1670.2 1830.92 L1670.2 1834.86 L1656.13 1834.86 L1656.13 1843.33 Q1657.15 1842.98 1658.17 1842.82 Q1659.18 1842.64 1660.2 1842.64 Q1665.99 1842.64 1669.37 1845.81 Q1672.75 1848.98 1672.75 1854.4 Q1672.75 1859.97 1669.28 1863.08 Q1665.8 1866.15 1659.48 1866.15 Q1657.31 1866.15 1655.04 1865.78 Q1652.79 1865.41 1650.39 1864.67 L1650.39 1859.97 Q1652.47 1861.11 1654.69 1861.66 Q1656.92 1862.22 1659.39 1862.22 Q1663.4 1862.22 1665.73 1860.11 Q1668.07 1858.01 1668.07 1854.4 Q1668.07 1850.78 1665.73 1848.68 Q1663.4 1846.57 1659.39 1846.57 Q1657.52 1846.57 1655.64 1846.99 Q1653.79 1847.4 1651.85 1848.28 L1651.85 1830.92 Z" fill="#000000" fill-rule="evenodd" fill-opacity="1" /><path clip-path="url(#clip930)" d="M1691.96 1834 Q1688.35 1834 1686.52 1837.57 Q1684.72 1841.11 1684.72 1848.24 Q1684.72 1855.34 1686.52 1858.91 Q1688.35 1862.45 1691.96 1862.45 Q1695.6 1862.45 1697.4 1858.91 Q1699.23 1855.34 1699.23 1848.24 Q1699.23 1841.11 1697.4 1837.57 Q1695.6 1834 1691.96 1834 M1691.96 1830.3 Q1697.77 1830.3 1700.83 1834.9 Q1703.91 1839.49 1703.91 1848.24 Q1703.91 1856.96 1700.83 1861.57 Q1697.77 1866.15 1691.96 1866.15 Q1686.15 1866.15 1683.07 1861.57 Q1680.02 1856.96 1680.02 1848.24 Q1680.02 1839.49 1683.07 1834.9 Q1686.15 1830.3 1691.96 1830.3 Z" fill="#000000" fill-rule="evenodd" fill-opacity="1" /><path clip-path="url(#clip930)" d="M1967.97 1848.65 L1997.64 1848.65 L1997.64 1852.59 L1967.97 1852.59 L1967.97 1848.65 Z" fill="#000000" fill-rule="evenodd" fill-opacity="1" /><path clip-path="url(#clip930)" d="M2017.74 1834 Q2014.13 1834 2012.3 1837.57 Q2010.49 1841.11 2010.49 1848.24 Q2010.49 1855.34 2012.3 1858.91 Q2014.13 1862.45 2017.74 1862.45 Q2021.37 1862.45 2023.18 1858.91 Q2025.01 1855.34 2025.01 1848.24 Q2025.01 1841.11 2023.18 1837.57 Q2021.37 1834 2017.74 1834 M2017.74 1830.3 Q2023.55 1830.3 2026.6 1834.9 Q2029.68 1839.49 2029.68 1848.24 Q2029.68 1856.96 2026.6 1861.57 Q2023.55 1866.15 2017.74 1866.15 Q2011.93 1866.15 2008.85 1861.57 Q2005.79 1856.96 2005.79 1848.24 Q2005.79 1839.49 2008.85 1834.9 Q2011.93 1830.3 2017.74 1830.3 Z" fill="#000000" fill-rule="evenodd" fill-opacity="1" /><path clip-path="url(#clip930)" d="M2037.9 1859.6 L2042.78 1859.6 L2042.78 1865.48 L2037.9 1865.48 L2037.9 1859.6 Z" fill="#000000" fill-rule="evenodd" fill-opacity="1" /><path clip-path="url(#clip930)" d="M2062.97 1834 Q2059.36 1834 2057.53 1837.57 Q2055.72 1841.11 2055.72 1848.24 Q2055.72 1855.34 2057.53 1858.91 Q2059.36 1862.45 2062.97 1862.45 Q2066.6 1862.45 2068.41 1858.91 Q2070.24 1855.34 2070.24 1848.24 Q2070.24 1841.11 2068.41 1837.57 Q2066.6 1834 2062.97 1834 M2062.97 1830.3 Q2068.78 1830.3 2071.83 1834.9 Q2074.91 1839.49 2074.91 1848.24 Q2074.91 1856.96 2071.83 1861.57 Q2068.78 1866.15 2062.97 1866.15 Q2057.16 1866.15 2054.08 1861.57 Q2051.02 1856.96 2051.02 1848.24 Q2051.02 1839.49 2054.08 1834.9 Q2057.16 1830.3 2062.97 1830.3 Z" fill="#000000" fill-rule="evenodd" fill-opacity="1" /><path clip-path="url(#clip930)" d="M2093.13 1834 Q2089.52 1834 2087.69 1837.57 Q2085.88 1841.11 2085.88 1848.24 Q2085.88 1855.34 2087.69 1858.91 Q2089.52 1862.45 2093.13 1862.45 Q2096.76 1862.45 2098.57 1858.91 Q2100.4 1855.34 2100.4 1848.24 Q2100.4 1841.11 2098.57 1837.57 Q2096.76 1834 2093.13 1834 M2093.13 1830.3 Q2098.94 1830.3 2102 1834.9 Q2105.07 1839.49 2105.07 1848.24 Q2105.07 1856.96 2102 1861.57 Q2098.94 1866.15 2093.13 1866.15 Q2087.32 1866.15 2084.24 1861.57 Q2081.19 1856.96 2081.19 1848.24 Q2081.19 1839.49 2084.24 1834.9 Q2087.32 1830.3 2093.13 1830.3 Z" fill="#000000" fill-rule="evenodd" fill-opacity="1" /><path clip-path="url(#clip930)" d="M2123.29 1834 Q2119.68 1834 2117.85 1837.57 Q2116.05 1841.11 2116.05 1848.24 Q2116.05 1855.34 2117.85 1858.91 Q2119.68 1862.45 2123.29 1862.45 Q2126.93 1862.45 2128.73 1858.91 Q2130.56 1855.34 2130.56 1848.24 Q2130.56 1841.11 2128.73 1837.57 Q2126.93 1834 2123.29 1834 M2123.29 1830.3 Q2129.1 1830.3 2132.16 1834.9 Q2135.24 1839.49 2135.24 1848.24 Q2135.24 1856.96 2132.16 1861.57 Q2129.1 1866.15 2123.29 1866.15 Q2117.48 1866.15 2114.4 1861.57 Q2111.35 1856.96 2111.35 1848.24 Q2111.35 1839.49 2114.4 1834.9 Q2117.48 1830.3 2123.29 1830.3 Z" fill="#000000" fill-rule="evenodd" fill-opacity="1" /><path clip-path="url(#clip930)" d="M2147.48 1861.55 L2163.8 1861.55 L2163.8 1865.48 L2141.86 1865.48 L2141.86 1861.55 Q2144.52 1858.79 2149.1 1854.16 Q2153.71 1849.51 2154.89 1848.17 Q2157.13 1845.65 2158.01 1843.91 Q2158.92 1842.15 2158.92 1840.46 Q2158.92 1837.71 2156.97 1835.97 Q2155.05 1834.23 2151.95 1834.23 Q2149.75 1834.23 2147.3 1835 Q2144.87 1835.76 2142.09 1837.31 L2142.09 1832.59 Q2144.91 1831.46 2147.37 1830.88 Q2149.82 1830.3 2151.86 1830.3 Q2157.23 1830.3 2160.42 1832.98 Q2163.62 1835.67 2163.62 1840.16 Q2163.62 1842.29 2162.81 1844.21 Q2162.02 1846.11 2159.91 1848.7 Q2159.33 1849.37 2156.23 1852.59 Q2153.13 1855.78 2147.48 1861.55 Z" fill="#000000" fill-rule="evenodd" fill-opacity="1" /><path clip-path="url(#clip930)" d="M2173.66 1830.92 L2192.02 1830.92 L2192.02 1834.86 L2177.94 1834.86 L2177.94 1843.33 Q2178.96 1842.98 2179.98 1842.82 Q2181 1842.64 2182.02 1842.64 Q2187.81 1842.64 2191.18 1845.81 Q2194.56 1848.98 2194.56 1854.4 Q2194.56 1859.97 2191.09 1863.08 Q2187.62 1866.15 2181.3 1866.15 Q2179.12 1866.15 2176.86 1865.78 Q2174.61 1865.41 2172.2 1864.67 L2172.2 1859.97 Q2174.29 1861.11 2176.51 1861.66 Q2178.73 1862.22 2181.21 1862.22 Q2185.21 1862.22 2187.55 1860.11 Q2189.89 1858.01 2189.89 1854.4 Q2189.89 1850.78 2187.55 1848.68 Q2185.21 1846.57 2181.21 1846.57 Q2179.33 1846.57 2177.46 1846.99 Q2175.61 1847.4 2173.66 1848.28 L2173.66 1830.92 Z" fill="#000000" fill-rule="evenodd" fill-opacity="1" /><path clip-path="url(#clip930)" d="M2489.48 1834 Q2485.87 1834 2484.04 1837.57 Q2482.24 1841.11 2482.24 1848.24 Q2482.24 1855.34 2484.04 1858.91 Q2485.87 1862.45 2489.48 1862.45 Q2493.12 1862.45 2494.92 1858.91 Q2496.75 1855.34 2496.75 1848.24 Q2496.75 1841.11 2494.92 1837.57 Q2493.12 1834 2489.48 1834 M2489.48 1830.3 Q2495.29 1830.3 2498.35 1834.9 Q2501.43 1839.49 2501.43 1848.24 Q2501.43 1856.96 2498.35 1861.57 Q2495.29 1866.15 2489.48 1866.15 Q2483.67 1866.15 2480.59 1861.57 Q2477.54 1856.96 2477.54 1848.24 Q2477.54 1839.49 2480.59 1834.9 Q2483.67 1830.3 2489.48 1830.3 Z" fill="#000000" fill-rule="evenodd" fill-opacity="1" /><path clip-path="url(#clip930)" d="M2509.65 1859.6 L2514.53 1859.6 L2514.53 1865.48 L2509.65 1865.48 L2509.65 1859.6 Z" fill="#000000" fill-rule="evenodd" fill-opacity="1" /><path clip-path="url(#clip930)" d="M2534.71 1834 Q2531.1 1834 2529.28 1837.57 Q2527.47 1841.11 2527.47 1848.24 Q2527.47 1855.34 2529.28 1858.91 Q2531.1 1862.45 2534.71 1862.45 Q2538.35 1862.45 2540.15 1858.91 Q2541.98 1855.34 2541.98 1848.24 Q2541.98 1841.11 2540.15 1837.57 Q2538.35 1834 2534.71 1834 M2534.71 1830.3 Q2540.53 1830.3 2543.58 1834.9 Q2546.66 1839.49 2546.66 1848.24 Q2546.66 1856.96 2543.58 1861.57 Q2540.53 1866.15 2534.71 1866.15 Q2528.9 1866.15 2525.83 1861.57 Q2522.77 1856.96 2522.77 1848.24 Q2522.77 1839.49 2525.83 1834.9 Q2528.9 1830.3 2534.71 1830.3 Z" fill="#000000" fill-rule="evenodd" fill-opacity="1" /><path clip-path="url(#clip930)" d="M2564.88 1834 Q2561.27 1834 2559.44 1837.57 Q2557.63 1841.11 2557.63 1848.24 Q2557.63 1855.34 2559.44 1858.91 Q2561.27 1862.45 2564.88 1862.45 Q2568.51 1862.45 2570.32 1858.91 Q2572.15 1855.34 2572.15 1848.24 Q2572.15 1841.11 2570.32 1837.57 Q2568.51 1834 2564.88 1834 M2564.88 1830.3 Q2570.69 1830.3 2573.74 1834.9 Q2576.82 1839.49 2576.82 1848.24 Q2576.82 1856.96 2573.74 1861.57 Q2570.69 1866.15 2564.88 1866.15 Q2559.07 1866.15 2555.99 1861.57 Q2552.93 1856.96 2552.93 1848.24 Q2552.93 1839.49 2555.99 1834.9 Q2559.07 1830.3 2564.88 1830.3 Z" fill="#000000" fill-rule="evenodd" fill-opacity="1" /><path clip-path="url(#clip930)" d="M2595.04 1834 Q2591.43 1834 2589.6 1837.57 Q2587.79 1841.11 2587.79 1848.24 Q2587.79 1855.34 2589.6 1858.91 Q2591.43 1862.45 2595.04 1862.45 Q2598.67 1862.45 2600.48 1858.91 Q2602.31 1855.34 2602.31 1848.24 Q2602.31 1841.11 2600.48 1837.57 Q2598.67 1834 2595.04 1834 M2595.04 1830.3 Q2600.85 1830.3 2603.9 1834.9 Q2606.98 1839.49 2606.98 1848.24 Q2606.98 1856.96 2603.9 1861.57 Q2600.85 1866.15 2595.04 1866.15 Q2589.23 1866.15 2586.15 1861.57 Q2583.09 1856.96 2583.09 1848.24 Q2583.09 1839.49 2586.15 1834.9 Q2589.23 1830.3 2595.04 1830.3 Z" fill="#000000" fill-rule="evenodd" fill-opacity="1" /><path clip-path="url(#clip930)" d="M2625.2 1834 Q2621.59 1834 2619.76 1837.57 Q2617.96 1841.11 2617.96 1848.24 Q2617.96 1855.34 2619.76 1858.91 Q2621.59 1862.45 2625.2 1862.45 Q2628.83 1862.45 2630.64 1858.91 Q2632.47 1855.34 2632.47 1848.24 Q2632.47 1841.11 2630.64 1837.57 Q2628.83 1834 2625.2 1834 M2625.2 1830.3 Q2631.01 1830.3 2634.07 1834.9 Q2637.14 1839.49 2637.14 1848.24 Q2637.14 1856.96 2634.07 1861.57 Q2631.01 1866.15 2625.2 1866.15 Q2619.39 1866.15 2616.31 1861.57 Q2613.26 1856.96 2613.26 1848.24 Q2613.26 1839.49 2616.31 1834.9 Q2619.39 1830.3 2625.2 1830.3 Z" fill="#000000" fill-rule="evenodd" fill-opacity="1" /><path clip-path="url(#clip930)" d="M2655.36 1834 Q2651.75 1834 2649.92 1837.57 Q2648.12 1841.11 2648.12 1848.24 Q2648.12 1855.34 2649.92 1858.91 Q2651.75 1862.45 2655.36 1862.45 Q2659 1862.45 2660.8 1858.91 Q2662.63 1855.34 2662.63 1848.24 Q2662.63 1841.11 2660.8 1837.57 Q2659 1834 2655.36 1834 M2655.36 1830.3 Q2661.17 1830.3 2664.23 1834.9 Q2667.31 1839.49 2667.31 1848.24 Q2667.31 1856.96 2664.23 1861.57 Q2661.17 1866.15 2655.36 1866.15 Q2649.55 1866.15 2646.47 1861.57 Q2643.42 1856.96 2643.42 1848.24 Q2643.42 1839.49 2646.47 1834.9 Q2649.55 1830.3 2655.36 1830.3 Z" fill="#000000" fill-rule="evenodd" fill-opacity="1" /><polyline clip-path="url(#clip932)" style="stroke:#000000; stroke-linecap:butt; stroke-linejoin:round; stroke-width:2; stroke-opacity:0.1; fill:none" points="
  226.33,1684.99 2640.76,1684.99 
  "/>
<polyline clip-path="url(#clip932)" style="stroke:#000000; stroke-linecap:butt; stroke-linejoin:round; stroke-width:2; stroke-opacity:0.1; fill:none" points="
  226.33,1155.62 2640.76,1155.62 
  "/>
<polyline clip-path="url(#clip932)" style="stroke:#000000; stroke-linecap:butt; stroke-linejoin:round; stroke-width:2; stroke-opacity:0.1; fill:none" points="
  226.33,626.245 2640.76,626.245 
  "/>
<polyline clip-path="url(#clip932)" style="stroke:#000000; stroke-linecap:butt; stroke-linejoin:round; stroke-width:2; stroke-opacity:0.1; fill:none" points="
  226.33,96.8724 2640.76,96.8724 
  "/>
<polyline clip-path="url(#clip930)" style="stroke:#000000; stroke-linecap:butt; stroke-linejoin:round; stroke-width:4; stroke-opacity:1; fill:none" points="
  226.33,1800.78 226.33,47.2441 
  "/>
<polyline clip-path="url(#clip930)" style="stroke:#000000; stroke-linecap:butt; stroke-linejoin:round; stroke-width:4; stroke-opacity:1; fill:none" points="
  226.33,1684.99 245.227,1684.99 
  "/>
<polyline clip-path="url(#clip930)" style="stroke:#000000; stroke-linecap:butt; stroke-linejoin:round; stroke-width:4; stroke-opacity:1; fill:none" points="
  226.33,1155.62 245.227,1155.62 
  "/>
<polyline clip-path="url(#clip930)" style="stroke:#000000; stroke-linecap:butt; stroke-linejoin:round; stroke-width:4; stroke-opacity:1; fill:none" points="
  226.33,626.245 245.227,626.245 
  "/>
<polyline clip-path="url(#clip930)" style="stroke:#000000; stroke-linecap:butt; stroke-linejoin:round; stroke-width:4; stroke-opacity:1; fill:none" points="
  226.33,96.8724 245.227,96.8724 
  "/>
<path clip-path="url(#clip930)" d="M49.5521 1685.44 L79.2279 1685.44 L79.2279 1689.38 L49.5521 1689.38 L49.5521 1685.44 Z" fill="#000000" fill-rule="evenodd" fill-opacity="1" /><path clip-path="url(#clip930)" d="M99.3204 1670.79 Q95.7093 1670.79 93.8806 1674.35 Q92.075 1677.9 92.075 1685.03 Q92.075 1692.13 93.8806 1695.7 Q95.7093 1699.24 99.3204 1699.24 Q102.955 1699.24 104.76 1695.7 Q106.589 1692.13 106.589 1685.03 Q106.589 1677.9 104.76 1674.35 Q102.955 1670.79 99.3204 1670.79 M99.3204 1667.09 Q105.131 1667.09 108.186 1671.69 Q111.265 1676.28 111.265 1685.03 Q111.265 1693.75 108.186 1698.36 Q105.131 1702.94 99.3204 1702.94 Q93.5102 1702.94 90.4315 1698.36 Q87.376 1693.75 87.376 1685.03 Q87.376 1676.28 90.4315 1671.69 Q93.5102 1667.09 99.3204 1667.09 Z" fill="#000000" fill-rule="evenodd" fill-opacity="1" /><path clip-path="url(#clip930)" d="M119.482 1696.39 L124.367 1696.39 L124.367 1702.27 L119.482 1702.27 L119.482 1696.39 Z" fill="#000000" fill-rule="evenodd" fill-opacity="1" /><path clip-path="url(#clip930)" d="M144.552 1670.79 Q140.941 1670.79 139.112 1674.35 Q137.306 1677.9 137.306 1685.03 Q137.306 1692.13 139.112 1695.7 Q140.941 1699.24 144.552 1699.24 Q148.186 1699.24 149.991 1695.7 Q151.82 1692.13 151.82 1685.03 Q151.82 1677.9 149.991 1674.35 Q148.186 1670.79 144.552 1670.79 M144.552 1667.09 Q150.362 1667.09 153.417 1671.69 Q156.496 1676.28 156.496 1685.03 Q156.496 1693.75 153.417 1698.36 Q150.362 1702.94 144.552 1702.94 Q138.741 1702.94 135.663 1698.36 Q132.607 1693.75 132.607 1685.03 Q132.607 1676.28 135.663 1671.69 Q138.741 1667.09 144.552 1667.09 Z" fill="#000000" fill-rule="evenodd" fill-opacity="1" /><path clip-path="url(#clip930)" d="M178.88 1683.64 Q182.237 1684.35 184.112 1686.62 Q186.01 1688.89 186.01 1692.22 Q186.01 1697.34 182.491 1700.14 Q178.973 1702.94 172.491 1702.94 Q170.315 1702.94 168.001 1702.5 Q165.709 1702.09 163.255 1701.23 L163.255 1696.71 Q165.2 1697.85 167.514 1698.43 Q169.829 1699.01 172.352 1699.01 Q176.751 1699.01 179.042 1697.27 Q181.357 1695.53 181.357 1692.22 Q181.357 1689.17 179.204 1687.46 Q177.075 1685.72 173.255 1685.72 L169.227 1685.72 L169.227 1681.88 L173.44 1681.88 Q176.889 1681.88 178.718 1680.51 Q180.547 1679.12 180.547 1676.53 Q180.547 1673.87 178.649 1672.46 Q176.774 1671.02 173.255 1671.02 Q171.334 1671.02 169.135 1671.44 Q166.936 1671.85 164.297 1672.73 L164.297 1668.57 Q166.959 1667.83 169.274 1667.46 Q171.612 1667.09 173.672 1667.09 Q178.996 1667.09 182.098 1669.52 Q185.2 1671.92 185.2 1676.04 Q185.2 1678.91 183.556 1680.9 Q181.913 1682.87 178.88 1683.64 Z" fill="#000000" fill-rule="evenodd" fill-opacity="1" /><path clip-path="url(#clip930)" d="M50.5012 1156.07 L80.177 1156.07 L80.177 1160 L50.5012 1160 L50.5012 1156.07 Z" fill="#000000" fill-rule="evenodd" fill-opacity="1" /><path clip-path="url(#clip930)" d="M100.269 1141.42 Q96.6584 1141.42 94.8297 1144.98 Q93.0241 1148.52 93.0241 1155.65 Q93.0241 1162.76 94.8297 1166.32 Q96.6584 1169.87 100.269 1169.87 Q103.904 1169.87 105.709 1166.32 Q107.538 1162.76 107.538 1155.65 Q107.538 1148.52 105.709 1144.98 Q103.904 1141.42 100.269 1141.42 M100.269 1137.71 Q106.08 1137.71 109.135 1142.32 Q112.214 1146.9 112.214 1155.65 Q112.214 1164.38 109.135 1168.99 Q106.08 1173.57 100.269 1173.57 Q94.4593 1173.57 91.3806 1168.99 Q88.3251 1164.38 88.3251 1155.65 Q88.3251 1146.9 91.3806 1142.32 Q94.4593 1137.71 100.269 1137.71 Z" fill="#000000" fill-rule="evenodd" fill-opacity="1" /><path clip-path="url(#clip930)" d="M120.431 1167.02 L125.316 1167.02 L125.316 1172.9 L120.431 1172.9 L120.431 1167.02 Z" fill="#000000" fill-rule="evenodd" fill-opacity="1" /><path clip-path="url(#clip930)" d="M145.501 1141.42 Q141.89 1141.42 140.061 1144.98 Q138.255 1148.52 138.255 1155.65 Q138.255 1162.76 140.061 1166.32 Q141.89 1169.87 145.501 1169.87 Q149.135 1169.87 150.94 1166.32 Q152.769 1162.76 152.769 1155.65 Q152.769 1148.52 150.94 1144.98 Q149.135 1141.42 145.501 1141.42 M145.501 1137.71 Q151.311 1137.71 154.366 1142.32 Q157.445 1146.9 157.445 1155.65 Q157.445 1164.38 154.366 1168.99 Q151.311 1173.57 145.501 1173.57 Q139.691 1173.57 136.612 1168.99 Q133.556 1164.38 133.556 1155.65 Q133.556 1146.9 136.612 1142.32 Q139.691 1137.71 145.501 1137.71 Z" fill="#000000" fill-rule="evenodd" fill-opacity="1" /><path clip-path="url(#clip930)" d="M169.69 1168.96 L186.01 1168.96 L186.01 1172.9 L164.065 1172.9 L164.065 1168.96 Q166.727 1166.21 171.311 1161.58 Q175.917 1156.93 177.098 1155.58 Q179.343 1153.06 180.223 1151.32 Q181.125 1149.56 181.125 1147.87 Q181.125 1145.12 179.181 1143.38 Q177.26 1141.65 174.158 1141.65 Q171.959 1141.65 169.505 1142.41 Q167.075 1143.18 164.297 1144.73 L164.297 1140 Q167.121 1138.87 169.575 1138.29 Q172.028 1137.71 174.065 1137.71 Q179.436 1137.71 182.63 1140.4 Q185.825 1143.08 185.825 1147.57 Q185.825 1149.7 185.014 1151.62 Q184.227 1153.52 182.121 1156.12 Q181.542 1156.79 178.44 1160 Q175.338 1163.2 169.69 1168.96 Z" fill="#000000" fill-rule="evenodd" fill-opacity="1" /><path clip-path="url(#clip930)" d="M50.1308 626.696 L79.8066 626.696 L79.8066 630.632 L50.1308 630.632 L50.1308 626.696 Z" fill="#000000" fill-rule="evenodd" fill-opacity="1" /><path clip-path="url(#clip930)" d="M99.8991 612.044 Q96.288 612.044 94.4593 615.609 Q92.6537 619.15 92.6537 626.28 Q92.6537 633.386 94.4593 636.951 Q96.288 640.493 99.8991 640.493 Q103.533 640.493 105.339 636.951 Q107.168 633.386 107.168 626.28 Q107.168 619.15 105.339 615.609 Q103.533 612.044 99.8991 612.044 M99.8991 608.34 Q105.709 608.34 108.765 612.947 Q111.843 617.53 111.843 626.28 Q111.843 635.007 108.765 639.613 Q105.709 644.196 99.8991 644.196 Q94.0889 644.196 91.0102 639.613 Q87.9547 635.007 87.9547 626.28 Q87.9547 617.53 91.0102 612.947 Q94.0889 608.34 99.8991 608.34 Z" fill="#000000" fill-rule="evenodd" fill-opacity="1" /><path clip-path="url(#clip930)" d="M120.061 637.646 L124.945 637.646 L124.945 643.525 L120.061 643.525 L120.061 637.646 Z" fill="#000000" fill-rule="evenodd" fill-opacity="1" /><path clip-path="url(#clip930)" d="M145.13 612.044 Q141.519 612.044 139.691 615.609 Q137.885 619.15 137.885 626.28 Q137.885 633.386 139.691 636.951 Q141.519 640.493 145.13 640.493 Q148.765 640.493 150.57 636.951 Q152.399 633.386 152.399 626.28 Q152.399 619.15 150.57 615.609 Q148.765 612.044 145.13 612.044 M145.13 608.34 Q150.94 608.34 153.996 612.947 Q157.075 617.53 157.075 626.28 Q157.075 635.007 153.996 639.613 Q150.94 644.196 145.13 644.196 Q139.32 644.196 136.241 639.613 Q133.186 635.007 133.186 626.28 Q133.186 617.53 136.241 612.947 Q139.32 608.34 145.13 608.34 Z" fill="#000000" fill-rule="evenodd" fill-opacity="1" /><path clip-path="url(#clip930)" d="M166.102 639.59 L173.741 639.59 L173.741 613.224 L165.431 614.891 L165.431 610.632 L173.695 608.965 L178.371 608.965 L178.371 639.59 L186.01 639.59 L186.01 643.525 L166.102 643.525 L166.102 639.59 Z" fill="#000000" fill-rule="evenodd" fill-opacity="1" /><path clip-path="url(#clip930)" d="M98.6722 82.6711 Q95.0611 82.6711 93.2324 86.2359 Q91.4269 89.7776 91.4269 96.9072 Q91.4269 104.014 93.2324 107.578 Q95.0611 111.12 98.6722 111.12 Q102.306 111.12 104.112 107.578 Q105.941 104.014 105.941 96.9072 Q105.941 89.7776 104.112 86.2359 Q102.306 82.6711 98.6722 82.6711 M98.6722 78.9675 Q104.482 78.9675 107.538 83.5739 Q110.617 88.1572 110.617 96.9072 Q110.617 105.634 107.538 110.24 Q104.482 114.824 98.6722 114.824 Q92.8621 114.824 89.7834 110.24 Q86.7279 105.634 86.7279 96.9072 Q86.7279 88.1572 89.7834 83.5739 Q92.8621 78.9675 98.6722 78.9675 Z" fill="#000000" fill-rule="evenodd" fill-opacity="1" /><path clip-path="url(#clip930)" d="M118.834 108.273 L123.718 108.273 L123.718 114.152 L118.834 114.152 L118.834 108.273 Z" fill="#000000" fill-rule="evenodd" fill-opacity="1" /><path clip-path="url(#clip930)" d="M143.903 82.6711 Q140.292 82.6711 138.464 86.2359 Q136.658 89.7776 136.658 96.9072 Q136.658 104.014 138.464 107.578 Q140.292 111.12 143.903 111.12 Q147.538 111.12 149.343 107.578 Q151.172 104.014 151.172 96.9072 Q151.172 89.7776 149.343 86.2359 Q147.538 82.6711 143.903 82.6711 M143.903 78.9675 Q149.714 78.9675 152.769 83.5739 Q155.848 88.1572 155.848 96.9072 Q155.848 105.634 152.769 110.24 Q149.714 114.824 143.903 114.824 Q138.093 114.824 135.015 110.24 Q131.959 105.634 131.959 96.9072 Q131.959 88.1572 135.015 83.5739 Q138.093 78.9675 143.903 78.9675 Z" fill="#000000" fill-rule="evenodd" fill-opacity="1" /><path clip-path="url(#clip930)" d="M174.065 82.6711 Q170.454 82.6711 168.626 86.2359 Q166.82 89.7776 166.82 96.9072 Q166.82 104.014 168.626 107.578 Q170.454 111.12 174.065 111.12 Q177.7 111.12 179.505 107.578 Q181.334 104.014 181.334 96.9072 Q181.334 89.7776 179.505 86.2359 Q177.7 82.6711 174.065 82.6711 M174.065 78.9675 Q179.876 78.9675 182.931 83.5739 Q186.01 88.1572 186.01 96.9072 Q186.01 105.634 182.931 110.24 Q179.876 114.824 174.065 114.824 Q168.255 114.824 165.177 110.24 Q162.121 105.634 162.121 96.9072 Q162.121 88.1572 165.177 83.5739 Q168.255 78.9675 174.065 78.9675 Z" fill="#000000" fill-rule="evenodd" fill-opacity="1" /><polyline clip-path="url(#clip932)" style="stroke:#009af9; stroke-linecap:butt; stroke-linejoin:round; stroke-width:4; stroke-opacity:1; fill:none" points="
  2572.42,96.8724 2547.55,107.569 2522.85,118.231 2498.3,128.859 2473.92,139.453 2363.25,187.981 2255.96,235.772 2152.02,282.828 2051.39,329.146 1954.02,374.727 
  1859.88,419.571 1768.94,463.677 1681.14,507.045 1579.74,558.193 1482.76,608.274 1390.15,657.287 1301.84,705.233 1230.48,744.936 1162.11,783.876 1096.67,822.051 
  1034.15,859.461 969.465,899.232 908.111,938.101 850.031,976.066 795.175,1013.13 747.412,1046.49 702.304,1079.09 659.809,1110.92 619.886,1141.98 579.896,1174.43 
  542.766,1205.99 508.446,1236.66 476.885,1266.45 443.702,1299.86 414.077,1332.08 387.931,1363.11 365.186,1392.95 347.764,1418.46 332.91,1443.04 320.57,1466.68 
  310.689,1489.37 304.003,1508.5 299.129,1526.91 296.027,1544.58 294.663,1561.54 295.109,1579.2 297.527,1596 301.868,1611.93 308.083,1627.01 316.178,1641.3 
  326.072,1654.72 337.715,1667.27 351.058,1678.94 367.73,1690.83 386.353,1701.66 406.861,1711.41 429.187,1720.1 452.056,1727.37 476.454,1733.67 502.321,1739.01 
  529.601,1743.38 590.603,1749.36 656.948,1751.15 716.557,1749.41 779.275,1744.7 818.956,1740.36 859.611,1734.91 901.167,1728.36 943.555,1720.7 1023.14,1703.78 
  1104.85,1683.15 1181.82,1660.78 1259.89,1635.24 1339.74,1606.12 1420.01,1573.75 1510.03,1533.59 1599.64,1489.33 1680.05,1445.69 1759.33,1398.68 1804.06,1370.25 
  1848.23,1340.72 1891.77,1310.08 1934.6,1278.35 2011.83,1216.66 2085.97,1151.19 2155.59,1082.94 2221.35,1011.01 2281.09,937.647 2336.4,860.819 2388.08,778.459 
  2434.26,692.453 2457.08,643.794 2478.06,594.04 2497.12,543.192 2514.2,491.251 2535.33,413.849 2551.93,334.139 2563.77,252.121 2570.64,167.795 2571.42,150.21 
  2571.98,132.528 2572.31,114.749 2572.42,96.8724 
  "/>
<path clip-path="url(#clip930)" d="
M2239.58 209.375 L2560.28 209.375 L2560.28 105.695 L2239.58 105.695  Z
  " fill="#ffffff" fill-rule="evenodd" fill-opacity="1"/>
<polyline clip-path="url(#clip930)" style="stroke:#000000; stroke-linecap:butt; stroke-linejoin:round; stroke-width:4; stroke-opacity:1; fill:none" points="
  2239.58,209.375 2560.28,209.375 2560.28,105.695 2239.58,105.695 2239.58,209.375 
  "/>
<polyline clip-path="url(#clip930)" style="stroke:#009af9; stroke-linecap:butt; stroke-linejoin:round; stroke-width:4; stroke-opacity:1; fill:none" points="
  2266.4,157.535 2427.36,157.535 
  "/>
<path clip-path="url(#clip930)" d="M2468.03 177.223 Q2466.23 181.852 2464.51 183.264 Q2462.8 184.676 2459.93 184.676 L2456.53 184.676 L2456.53 181.112 L2459.03 181.112 Q2460.79 181.112 2461.76 180.278 Q2462.73 179.445 2463.91 176.343 L2464.68 174.399 L2454.19 148.889 L2458.7 148.889 L2466.81 169.167 L2474.91 148.889 L2479.42 148.889 L2468.03 177.223 Z" fill="#000000" fill-rule="evenodd" fill-opacity="1" /><path clip-path="url(#clip930)" d="M2486.71 170.88 L2494.35 170.88 L2494.35 144.515 L2486.04 146.181 L2486.04 141.922 L2494.31 140.255 L2498.98 140.255 L2498.98 170.88 L2506.62 170.88 L2506.62 174.815 L2486.71 174.815 L2486.71 170.88 Z" fill="#000000" fill-rule="evenodd" fill-opacity="1" /></svg>
