<?xml version="1.0" encoding="utf-8"?>
<svg xmlns="http://www.w3.org/2000/svg" xmlns:xlink="http://www.w3.org/1999/xlink" width="672" height="480" viewBox="0 0 2688 1920">
<defs>
  <clipPath id="clip370">
    <rect x="0" y="0" width="2688" height="1920"/>
  </clipPath>
</defs>
<path clip-path="url(#clip370)" d="
M0 1920 L2688 1920 L2688 0 L0 0  Z
  " fill="#ffffff" fill-rule="evenodd" fill-opacity="1"/>
<defs>
  <clipPath id="clip371">
    <rect x="537" y="0" width="1883" height="1883"/>
  </clipPath>
</defs>
<path clip-path="url(#clip370)" d="
M152.071 1800.78 L2640.76 1800.78 L2640.76 47.2441 L152.071 47.2441  Z
  " fill="#ffffff" fill-rule="evenodd" fill-opacity="1"/>
<defs>
  <clipPath id="clip372">
    <rect x="152" y="47" width="2490" height="1755"/>
  </clipPath>
</defs>
<polyline clip-path="url(#clip372)" style="stroke:#000000; stroke-linecap:butt; stroke-linejoin:round; stroke-width:2; stroke-opacity:0.1; fill:none" points="
  362.439,1800.78 362.439,47.2441 
  "/>
<polyline clip-path="url(#clip372)" style="stroke:#000000; stroke-linecap:butt; stroke-linejoin:round; stroke-width:2; stroke-opacity:0.1; fill:none" points="
  879.405,1800.78 879.405,47.2441 
  "/>
<polyline clip-path="url(#clip372)" style="stroke:#000000; stroke-linecap:butt; stroke-linejoin:round; stroke-width:2; stroke-opacity:0.1; fill:none" points="
  1396.37,1800.78 1396.37,47.2441 
  "/>
<polyline clip-path="url(#clip372)" style="stroke:#000000; stroke-linecap:butt; stroke-linejoin:round; stroke-width:2; stroke-opacity:0.1; fill:none" points="
  1913.34,1800.78 1913.34,47.2441 
  "/>
<polyline clip-path="url(#clip372)" style="stroke:#000000; stroke-linecap:butt; stroke-linejoin:round; stroke-width:2; stroke-opacity:0.1; fill:none" points="
  2430.3,1800.78 2430.3,47.2441 
  "/>
<polyline clip-path="url(#clip370)" style="stroke:#000000; stroke-linecap:butt; stroke-linejoin:round; stroke-width:4; stroke-opacity:1; fill:none" points="
  152.071,1800.78 2640.76,1800.78 
  "/>
<polyline clip-path="url(#clip370)" style="stroke:#000000; stroke-linecap:butt; stroke-linejoin:round; stroke-width:4; stroke-opacity:1; fill:none" points="
  362.439,1800.78 362.439,1781.88 
  "/>
<polyline clip-path="url(#clip370)" style="stroke:#000000; stroke-linecap:butt; stroke-linejoin:round; stroke-width:4; stroke-opacity:1; fill:none" points="
  879.405,1800.78 879.405,1781.88 
  "/>
<polyline clip-path="url(#clip370)" style="stroke:#000000; stroke-linecap:butt; stroke-linejoin:round; stroke-width:4; stroke-opacity:1; fill:none" points="
  1396.37,1800.78 1396.37,1781.88 
  "/>
<polyline clip-path="url(#clip370)" style="stroke:#000000; stroke-linecap:butt; stroke-linejoin:round; stroke-width:4; stroke-opacity:1; fill:none" points="
  1913.34,1800.78 1913.34,1781.88 
  "/>
<polyline clip-path="url(#clip370)" style="stroke:#000000; stroke-linecap:butt; stroke-linejoin:round; stroke-width:4; stroke-opacity:1; fill:none" points="
  2430.3,1800.78 2430.3,1781.88 
  "/>
<path clip-path="url(#clip370)" d="M308.968 1848.65 L338.643 1848.65 L338.643 1852.59 L308.968 1852.59 L308.968 1848.65 Z" fill="#000000" fill-rule="evenodd" fill-opacity="1" /><path clip-path="url(#clip370)" d="M348.782 1830.92 L367.139 1830.92 L367.139 1834.86 L353.065 1834.86 L353.065 1843.33 Q354.083 1842.98 355.102 1842.82 Q356.12 1842.64 357.139 1842.64 Q362.926 1842.64 366.305 1845.81 Q369.685 1848.98 369.685 1854.4 Q369.685 1859.97 366.213 1863.08 Q362.74 1866.15 356.421 1866.15 Q354.245 1866.15 351.977 1865.78 Q349.731 1865.41 347.324 1864.67 L347.324 1859.97 Q349.407 1861.11 351.629 1861.66 Q353.852 1862.22 356.328 1862.22 Q360.333 1862.22 362.671 1860.11 Q365.009 1858.01 365.009 1854.4 Q365.009 1850.78 362.671 1848.68 Q360.333 1846.57 356.328 1846.57 Q354.453 1846.57 352.578 1846.99 Q350.727 1847.4 348.782 1848.28 L348.782 1830.92 Z" fill="#000000" fill-rule="evenodd" fill-opacity="1" /><path clip-path="url(#clip370)" d="M378.898 1859.6 L383.782 1859.6 L383.782 1865.48 L378.898 1865.48 L378.898 1859.6 Z" fill="#000000" fill-rule="evenodd" fill-opacity="1" /><path clip-path="url(#clip370)" d="M403.967 1834 Q400.356 1834 398.527 1837.57 Q396.722 1841.11 396.722 1848.24 Q396.722 1855.34 398.527 1858.91 Q400.356 1862.45 403.967 1862.45 Q407.601 1862.45 409.407 1858.91 Q411.235 1855.34 411.235 1848.24 Q411.235 1841.11 409.407 1837.57 Q407.601 1834 403.967 1834 M403.967 1830.3 Q409.777 1830.3 412.833 1834.9 Q415.911 1839.49 415.911 1848.24 Q415.911 1856.96 412.833 1861.57 Q409.777 1866.15 403.967 1866.15 Q398.157 1866.15 395.078 1861.57 Q392.023 1856.96 392.023 1848.24 Q392.023 1839.49 395.078 1834.9 Q398.157 1830.3 403.967 1830.3 Z" fill="#000000" fill-rule="evenodd" fill-opacity="1" /><path clip-path="url(#clip370)" d="M826.431 1848.65 L856.107 1848.65 L856.107 1852.59 L826.431 1852.59 L826.431 1848.65 Z" fill="#000000" fill-rule="evenodd" fill-opacity="1" /><path clip-path="url(#clip370)" d="M870.227 1861.55 L886.546 1861.55 L886.546 1865.48 L864.602 1865.48 L864.602 1861.55 Q867.264 1858.79 871.847 1854.16 Q876.454 1849.51 877.635 1848.17 Q879.88 1845.65 880.759 1843.91 Q881.662 1842.15 881.662 1840.46 Q881.662 1837.71 879.718 1835.97 Q877.797 1834.23 874.695 1834.23 Q872.496 1834.23 870.042 1835 Q867.611 1835.76 864.834 1837.31 L864.834 1832.59 Q867.658 1831.46 870.111 1830.88 Q872.565 1830.3 874.602 1830.3 Q879.972 1830.3 883.167 1832.98 Q886.361 1835.67 886.361 1840.16 Q886.361 1842.29 885.551 1844.21 Q884.764 1846.11 882.658 1848.7 Q882.079 1849.37 878.977 1852.59 Q875.875 1855.78 870.227 1861.55 Z" fill="#000000" fill-rule="evenodd" fill-opacity="1" /><path clip-path="url(#clip370)" d="M896.361 1859.6 L901.245 1859.6 L901.245 1865.48 L896.361 1865.48 L896.361 1859.6 Z" fill="#000000" fill-rule="evenodd" fill-opacity="1" /><path clip-path="url(#clip370)" d="M911.477 1830.92 L929.833 1830.92 L929.833 1834.86 L915.759 1834.86 L915.759 1843.33 Q916.778 1842.98 917.796 1842.82 Q918.815 1842.64 919.833 1842.64 Q925.62 1842.64 929 1845.81 Q932.38 1848.98 932.38 1854.4 Q932.38 1859.97 928.907 1863.08 Q925.435 1866.15 919.116 1866.15 Q916.94 1866.15 914.671 1865.78 Q912.426 1865.41 910.019 1864.67 L910.019 1859.97 Q912.102 1861.11 914.324 1861.66 Q916.546 1862.22 919.023 1862.22 Q923.028 1862.22 925.366 1860.11 Q927.704 1858.01 927.704 1854.4 Q927.704 1850.78 925.366 1848.68 Q923.028 1846.57 919.023 1846.57 Q917.148 1846.57 915.273 1846.99 Q913.421 1847.4 911.477 1848.28 L911.477 1830.92 Z" fill="#000000" fill-rule="evenodd" fill-opacity="1" /><path clip-path="url(#clip370)" d="M1373.76 1834 Q1370.14 1834 1368.32 1837.57 Q1366.51 1841.11 1366.51 1848.24 Q1366.51 1855.34 1368.32 1858.91 Q1370.14 1862.45 1373.76 1862.45 Q1377.39 1862.45 1379.2 1858.91 Q1381.02 1855.34 1381.02 1848.24 Q1381.02 1841.11 1379.2 1837.57 Q1377.39 1834 1373.76 1834 M1373.76 1830.3 Q1379.57 1830.3 1382.62 1834.9 Q1385.7 1839.49 1385.7 1848.24 Q1385.7 1856.96 1382.62 1861.57 Q1379.57 1866.15 1373.76 1866.15 Q1367.95 1866.15 1364.87 1861.57 Q1361.81 1856.96 1361.81 1848.24 Q1361.81 1839.49 1364.87 1834.9 Q1367.95 1830.3 1373.76 1830.3 Z" fill="#000000" fill-rule="evenodd" fill-opacity="1" /><path clip-path="url(#clip370)" d="M1393.92 1859.6 L1398.8 1859.6 L1398.8 1865.48 L1393.92 1865.48 L1393.92 1859.6 Z" fill="#000000" fill-rule="evenodd" fill-opacity="1" /><path clip-path="url(#clip370)" d="M1418.99 1834 Q1415.38 1834 1413.55 1837.57 Q1411.74 1841.11 1411.74 1848.24 Q1411.74 1855.34 1413.55 1858.91 Q1415.38 1862.45 1418.99 1862.45 Q1422.62 1862.45 1424.43 1858.91 Q1426.26 1855.34 1426.26 1848.24 Q1426.26 1841.11 1424.43 1837.57 Q1422.62 1834 1418.99 1834 M1418.99 1830.3 Q1424.8 1830.3 1427.85 1834.9 Q1430.93 1839.49 1430.93 1848.24 Q1430.93 1856.96 1427.85 1861.57 Q1424.8 1866.15 1418.99 1866.15 Q1413.18 1866.15 1410.1 1861.57 Q1407.04 1856.96 1407.04 1848.24 Q1407.04 1839.49 1410.1 1834.9 Q1413.18 1830.3 1418.99 1830.3 Z" fill="#000000" fill-rule="evenodd" fill-opacity="1" /><path clip-path="url(#clip370)" d="M1885.07 1861.55 L1901.39 1861.55 L1901.39 1865.48 L1879.45 1865.48 L1879.45 1861.55 Q1882.11 1858.79 1886.69 1854.16 Q1891.3 1849.51 1892.48 1848.17 Q1894.73 1845.65 1895.61 1843.91 Q1896.51 1842.15 1896.51 1840.46 Q1896.51 1837.71 1894.56 1835.97 Q1892.64 1834.23 1889.54 1834.23 Q1887.34 1834.23 1884.89 1835 Q1882.46 1835.76 1879.68 1837.31 L1879.68 1832.59 Q1882.5 1831.46 1884.96 1830.88 Q1887.41 1830.3 1889.45 1830.3 Q1894.82 1830.3 1898.01 1832.98 Q1901.21 1835.67 1901.21 1840.16 Q1901.21 1842.29 1900.4 1844.21 Q1899.61 1846.11 1897.5 1848.7 Q1896.93 1849.37 1893.82 1852.59 Q1890.72 1855.78 1885.07 1861.55 Z" fill="#000000" fill-rule="evenodd" fill-opacity="1" /><path clip-path="url(#clip370)" d="M1911.21 1859.6 L1916.09 1859.6 L1916.09 1865.48 L1911.21 1865.48 L1911.21 1859.6 Z" fill="#000000" fill-rule="evenodd" fill-opacity="1" /><path clip-path="url(#clip370)" d="M1926.32 1830.92 L1944.68 1830.92 L1944.68 1834.86 L1930.61 1834.86 L1930.61 1843.33 Q1931.62 1842.98 1932.64 1842.82 Q1933.66 1842.64 1934.68 1842.64 Q1940.47 1842.64 1943.85 1845.81 Q1947.23 1848.98 1947.23 1854.4 Q1947.23 1859.97 1943.75 1863.08 Q1940.28 1866.15 1933.96 1866.15 Q1931.79 1866.15 1929.52 1865.78 Q1927.27 1865.41 1924.86 1864.67 L1924.86 1859.97 Q1926.95 1861.11 1929.17 1861.66 Q1931.39 1862.22 1933.87 1862.22 Q1937.87 1862.22 1940.21 1860.11 Q1942.55 1858.01 1942.55 1854.4 Q1942.55 1850.78 1940.21 1848.68 Q1937.87 1846.57 1933.87 1846.57 Q1931.99 1846.57 1930.12 1846.99 Q1928.27 1847.4 1926.32 1848.28 L1926.32 1830.92 Z" fill="#000000" fill-rule="evenodd" fill-opacity="1" /><path clip-path="url(#clip370)" d="M2397.47 1830.92 L2415.82 1830.92 L2415.82 1834.86 L2401.75 1834.86 L2401.75 1843.33 Q2402.77 1842.98 2403.79 1842.82 Q2404.81 1842.64 2405.82 1842.64 Q2411.61 1842.64 2414.99 1845.81 Q2418.37 1848.98 2418.37 1854.4 Q2418.37 1859.97 2414.9 1863.08 Q2411.43 1866.15 2405.11 1866.15 Q2402.93 1866.15 2400.66 1865.78 Q2398.42 1865.41 2396.01 1864.67 L2396.01 1859.97 Q2398.09 1861.11 2400.31 1861.66 Q2402.54 1862.22 2405.01 1862.22 Q2409.02 1862.22 2411.36 1860.11 Q2413.69 1858.01 2413.69 1854.4 Q2413.69 1850.78 2411.36 1848.68 Q2409.02 1846.57 2405.01 1846.57 Q2403.14 1846.57 2401.26 1846.99 Q2399.41 1847.4 2397.47 1848.28 L2397.47 1830.92 Z" fill="#000000" fill-rule="evenodd" fill-opacity="1" /><path clip-path="url(#clip370)" d="M2427.58 1859.6 L2432.47 1859.6 L2432.47 1865.48 L2427.58 1865.48 L2427.58 1859.6 Z" fill="#000000" fill-rule="evenodd" fill-opacity="1" /><path clip-path="url(#clip370)" d="M2452.65 1834 Q2449.04 1834 2447.21 1837.57 Q2445.41 1841.11 2445.41 1848.24 Q2445.41 1855.34 2447.21 1858.91 Q2449.04 1862.45 2452.65 1862.45 Q2456.29 1862.45 2458.09 1858.91 Q2459.92 1855.34 2459.92 1848.24 Q2459.92 1841.11 2458.09 1837.57 Q2456.29 1834 2452.65 1834 M2452.65 1830.3 Q2458.46 1830.3 2461.52 1834.9 Q2464.6 1839.49 2464.6 1848.24 Q2464.6 1856.96 2461.52 1861.57 Q2458.46 1866.15 2452.65 1866.15 Q2446.84 1866.15 2443.76 1861.57 Q2440.71 1856.96 2440.71 1848.24 Q2440.71 1839.49 2443.76 1834.9 Q2446.84 1830.3 2452.65 1830.3 Z" fill="#000000" fill-rule="evenodd" fill-opacity="1" /><polyline clip-path="url(#clip372)" style="stroke:#000000; stroke-linecap:butt; stroke-linejoin:round; stroke-width:2; stroke-opacity:0.1; fill:none" points="
  152.071,1751.15 2640.76,1751.15 
  "/>
<polyline clip-path="url(#clip372)" style="stroke:#000000; stroke-linecap:butt; stroke-linejoin:round; stroke-width:2; stroke-opacity:0.1; fill:none" points="
  152.071,1337.58 2640.76,1337.58 
  "/>
<polyline clip-path="url(#clip372)" style="stroke:#000000; stroke-linecap:butt; stroke-linejoin:round; stroke-width:2; stroke-opacity:0.1; fill:none" points="
  152.071,924.007 2640.76,924.007 
  "/>
<polyline clip-path="url(#clip372)" style="stroke:#000000; stroke-linecap:butt; stroke-linejoin:round; stroke-width:2; stroke-opacity:0.1; fill:none" points="
  152.071,510.435 2640.76,510.435 
  "/>
<polyline clip-path="url(#clip372)" style="stroke:#000000; stroke-linecap:butt; stroke-linejoin:round; stroke-width:2; stroke-opacity:0.1; fill:none" points="
  152.071,96.862 2640.76,96.862 
  "/>
<polyline clip-path="url(#clip370)" style="stroke:#000000; stroke-linecap:butt; stroke-linejoin:round; stroke-width:4; stroke-opacity:1; fill:none" points="
  152.071,1800.78 152.071,47.2441 
  "/>
<polyline clip-path="url(#clip370)" style="stroke:#000000; stroke-linecap:butt; stroke-linejoin:round; stroke-width:4; stroke-opacity:1; fill:none" points="
  152.071,1751.15 170.969,1751.15 
  "/>
<polyline clip-path="url(#clip370)" style="stroke:#000000; stroke-linecap:butt; stroke-linejoin:round; stroke-width:4; stroke-opacity:1; fill:none" points="
  152.071,1337.58 170.969,1337.58 
  "/>
<polyline clip-path="url(#clip370)" style="stroke:#000000; stroke-linecap:butt; stroke-linejoin:round; stroke-width:4; stroke-opacity:1; fill:none" points="
  152.071,924.007 170.969,924.007 
  "/>
<polyline clip-path="url(#clip370)" style="stroke:#000000; stroke-linecap:butt; stroke-linejoin:round; stroke-width:4; stroke-opacity:1; fill:none" points="
  152.071,510.435 170.969,510.435 
  "/>
<polyline clip-path="url(#clip370)" style="stroke:#000000; stroke-linecap:butt; stroke-linejoin:round; stroke-width:4; stroke-opacity:1; fill:none" points="
  152.071,96.862 170.969,96.862 
  "/>
<path clip-path="url(#clip370)" d="M49.5521 1751.6 L79.2279 1751.6 L79.2279 1755.54 L49.5521 1755.54 L49.5521 1751.6 Z" fill="#000000" fill-rule="evenodd" fill-opacity="1" /><path clip-path="url(#clip370)" d="M102.168 1737.95 L90.3621 1756.4 L102.168 1756.4 L102.168 1737.95 M100.941 1733.87 L106.82 1733.87 L106.82 1756.4 L111.751 1756.4 L111.751 1760.28 L106.82 1760.28 L106.82 1768.43 L102.168 1768.43 L102.168 1760.28 L86.5658 1760.28 L86.5658 1755.77 L100.941 1733.87 Z" fill="#000000" fill-rule="evenodd" fill-opacity="1" /><path clip-path="url(#clip370)" d="M51.6354 1338.03 L81.3112 1338.03 L81.3112 1341.97 L51.6354 1341.97 L51.6354 1338.03 Z" fill="#000000" fill-rule="evenodd" fill-opacity="1" /><path clip-path="url(#clip370)" d="M95.4315 1350.92 L111.751 1350.92 L111.751 1354.86 L89.8065 1354.86 L89.8065 1350.92 Q92.4686 1348.17 97.0519 1343.54 Q101.658 1338.89 102.839 1337.55 Q105.084 1335.02 105.964 1333.29 Q106.867 1331.53 106.867 1329.84 Q106.867 1327.08 104.922 1325.35 Q103.001 1323.61 99.8991 1323.61 Q97.7 1323.61 95.2463 1324.37 Q92.8158 1325.14 90.038 1326.69 L90.038 1321.97 Q92.8621 1320.83 95.3158 1320.25 Q97.7695 1319.68 99.8065 1319.68 Q105.177 1319.68 108.371 1322.36 Q111.566 1325.05 111.566 1329.54 Q111.566 1331.67 110.756 1333.59 Q109.968 1335.49 107.862 1338.08 Q107.283 1338.75 104.181 1341.97 Q101.08 1345.16 95.4315 1350.92 Z" fill="#000000" fill-rule="evenodd" fill-opacity="1" /><path clip-path="url(#clip370)" d="M99.8065 909.806 Q96.1954 909.806 94.3667 913.371 Q92.5612 916.912 92.5612 924.042 Q92.5612 931.149 94.3667 934.713 Q96.1954 938.255 99.8065 938.255 Q103.441 938.255 105.246 934.713 Q107.075 931.149 107.075 924.042 Q107.075 916.912 105.246 913.371 Q103.441 909.806 99.8065 909.806 M99.8065 906.102 Q105.617 906.102 108.672 910.709 Q111.751 915.292 111.751 924.042 Q111.751 932.769 108.672 937.375 Q105.617 941.959 99.8065 941.959 Q93.9963 941.959 90.9176 937.375 Q87.8621 932.769 87.8621 924.042 Q87.8621 915.292 90.9176 910.709 Q93.9963 906.102 99.8065 906.102 Z" fill="#000000" fill-rule="evenodd" fill-opacity="1" /><path clip-path="url(#clip370)" d="M95.4315 523.779 L111.751 523.779 L111.751 527.715 L89.8065 527.715 L89.8065 523.779 Q92.4686 521.025 97.0519 516.395 Q101.658 511.743 102.839 510.4 Q105.084 507.877 105.964 506.141 Q106.867 504.381 106.867 502.692 Q106.867 499.937 104.922 498.201 Q103.001 496.465 99.8991 496.465 Q97.7 496.465 95.2463 497.229 Q92.8158 497.993 90.038 499.544 L90.038 494.821 Q92.8621 493.687 95.3158 493.108 Q97.7695 492.53 99.8065 492.53 Q105.177 492.53 108.371 495.215 Q111.566 497.9 111.566 502.391 Q111.566 504.52 110.756 506.442 Q109.968 508.34 107.862 510.932 Q107.283 511.604 104.181 514.821 Q101.08 518.016 95.4315 523.779 Z" fill="#000000" fill-rule="evenodd" fill-opacity="1" /><path clip-path="url(#clip370)" d="M102.168 83.656 L90.3621 102.105 L102.168 102.105 L102.168 83.656 M100.941 79.582 L106.82 79.582 L106.82 102.105 L111.751 102.105 L111.751 105.994 L106.82 105.994 L106.82 114.142 L102.168 114.142 L102.168 105.994 L86.5658 105.994 L86.5658 101.48 L100.941 79.582 Z" fill="#000000" fill-rule="evenodd" fill-opacity="1" /><polyline clip-path="url(#clip372)" style="stroke:#009af9; stroke-linecap:butt; stroke-linejoin:round; stroke-width:4; stroke-opacity:1; fill:none" points="
  2223.52,924.007 2223.47,915.549 2223.34,907.091 2223.13,898.634 2222.82,890.181 2220.3,851.158 2215.94,812.298 2209.74,773.688 2201.73,735.413 2191.92,697.561 
  2180.32,660.214 2166.98,623.457 2151.91,587.372 2131.58,545.003 2108.86,503.857 2083.85,464.068 2056.62,425.764 2031.92,394.629 2005.77,364.715 1978.2,336.093 
  1949.29,308.827 1916.45,280.82 1882.18,254.564 1846.6,230.131 1809.79,207.588 1774.85,188.533 1739.04,171.18 1702.43,155.57 1665.12,141.738 1624.42,128.922 
  1583.12,118.22 1541.33,109.662 1499.14,103.271 1449.94,98.5981 1400.54,96.8724 1351.12,98.1005 1301.87,102.278 1258.38,108.454 1215.28,116.93 1172.68,127.682 
  1130.72,140.681 1094.54,153.899 1059.01,168.787 1024.21,185.313 990.225,203.442 954.173,224.986 919.262,248.333 885.58,273.422 853.215,300.187 822.071,328.735 
  792.426,358.835 764.356,390.41 737.934,423.377 710.724,461.343 685.701,500.785 662.944,541.576 642.526,583.586 625.329,624.568 610.359,666.414 597.658,709.004 
  587.262,752.215 578.931,797.669 573.151,843.516 569.941,889.615 569.31,935.822 570.78,974.695 574.077,1013.46 579.192,1052.02 586.114,1090.3 596.993,1136.53 
  610.508,1182.06 626.614,1226.73 645.256,1270.41 664.509,1309.43 685.787,1347.37 709.03,1384.15 734.175,1419.65 759.028,1451.23 785.384,1481.56 813.183,1510.57 
  842.357,1538.2 873.243,1564.71 905.395,1589.67 938.737,1613.02 973.186,1634.7 1013.01,1656.95 1054,1676.97 1096.03,1694.7 1138.97,1710.08 1178.56,1721.96 
  1218.7,1731.84 1259.28,1739.71 1300.2,1745.54 1347.34,1749.7 1394.65,1751.15 1441.95,1749.9 1489.11,1745.94 1532.51,1739.87 1575.53,1731.52 1618.04,1720.9 
  1659.93,1708.04 1700.51,1693.21 1740.25,1676.28 1779.06,1657.3 1816.83,1636.32 1852.4,1614.09 1886.79,1590.08 1919.93,1564.36 1951.72,1537 1982.82,1507.31 
  2012.34,1476.05 2040.2,1443.29 2066.32,1409.13 2092.85,1370.2 2117.12,1329.83 2139.05,1288.14 2158.58,1245.27 2171.22,1213.46 2182.53,1181.17 2192.49,1148.43 
  2201.09,1115.31 2214.15,1048.15 2221.61,980.129 2222.44,966.113 2223.04,952.085 2223.4,938.048 2223.52,924.007 
  "/>
<polyline clip-path="url(#clip372)" style="stroke:#e26f46; stroke-linecap:butt; stroke-linejoin:round; stroke-width:4; stroke-opacity:1; fill:none" points="
  2223.52,924.007 2223.43,915.549 2223.17,907.094 2222.74,898.646 2222.13,890.209 2220.08,870.766 2217.1,851.441 2213.22,832.279 2208.43,813.322 2202.75,794.612 
  2196.2,776.191 2188.78,758.101 2180.52,740.381 2171.42,723.072 2161.52,706.212 2150.84,689.839 2139.39,673.989 2127.2,658.698 2114.31,644 2100.73,629.927 
  2086.51,616.512 2068.6,601.301 2049.85,587.131 2030.33,574.049 2010.1,562.096 1989.22,551.312 1967.76,541.731 1945.8,533.385 1923.39,526.299 1904.16,521.309 
  1884.71,517.249 1865.09,514.128 1845.34,511.952 1825.51,510.728 1805.64,510.457 1785.78,511.141 1765.98,512.778 1744.59,515.631 1723.37,519.597 1702.39,524.663 
  1681.71,530.818 1661.37,538.043 1641.44,546.32 1621.96,555.625 1603,565.933 1586.02,576.301 1569.55,587.474 1553.65,599.425 1538.33,612.129 1523.64,625.554 
  1509.62,639.67 1496.29,654.444 1483.69,669.842 1471.02,687.002 1459.25,704.794 1448.41,723.168 1438.54,742.077 1429.65,761.47 1421.77,781.296 1414.93,801.501 
  1409.14,822.032 1403.76,846.155 1399.84,870.556 1398.43,882.833 1397.38,895.147 1396.7,907.487 1396.39,919.842 1396.37,922.932 1396.37,924.007 1396.37,924.007 
  1396.37,924.007 1396.37,924.007 1396.37,924.007 1396.37,924.007 1396.37,924.007 1396.37,924.007 1396.37,924.007 1396.37,924.007 
  
  1396.37,924.007 1396.37,924.007 1396.37,924.007 1396.37,924.007 1396.37,924.007 1396.39,928.198 
  1396.49,934.113 1396.68,940.027 1396.95,945.937 1397.75,957.742 1398.88,969.521 1402.16,992.955 1406.77,1016.16 1412.22,1037.39 1418.78,1058.29 1426.44,1078.82 
  1435.18,1098.91 1444.96,1118.51 1455.78,1137.57 1467.58,1156.02 1480.35,1173.83 1493.84,1190.7 1508.2,1206.84 1523.38,1222.21 1539.34,1236.76 1556.04,1250.46 
  1573.43,1263.28 1591.47,1275.16 1610.1,1286.09 1628.71,1295.76 1647.79,1304.47 1667.28,1312.2 1687.15,1318.93 1707.33,1324.65 1727.77,1329.33 1748.42,1332.98 
  1769.23,1335.57 1790.68,1337.13 1812.17,1337.57 1833.66,1336.9 1855.08,1335.11 1876.39,1332.21 1897.51,1328.2 1918.4,1323.11 1938.99,1316.93 1961.15,1308.95 
  1982.82,1299.71 2003.93,1289.26 2024.41,1277.63 2044.19,1264.84 2063.22,1250.96 2081.42,1236.01 2098.74,1220.04 2110.74,1207.85 2122.22,1195.16 2133.17,1182.01 
  2143.56,1168.42 2153.39,1154.42 2162.62,1140.01 2171.26,1125.24 2179.27,1110.12 2186.65,1094.69 2193.39,1078.96 2199.47,1062.97 2204.89,1046.74 2209.62,1030.3 
  2213.68,1013.68 2217.04,996.901 2219.71,980 2221.37,966.058 2222.56,952.068 2223.28,938.046 2223.52,924.007 
  "/>
<polyline clip-path="url(#clip372)" style="stroke:#3da44d; stroke-linecap:butt; stroke-linejoin:round; stroke-width:4; stroke-opacity:1; fill:none" points="
  1948.27,1119.13 1958.93,1122.55 1963.66,1123.87 1967.33,1124.81 1970.47,1125.55 1973.25,1126.17 1975.78,1126.7 1978.13,1127.16 1980.33,1127.56 1984.98,1128.34 
  1989.18,1128.95 1993.04,1129.43 1996.65,1129.82 2003.28,1130.36 2009.31,1130.66 2014.9,1130.79 2020.14,1130.77 2025.1,1130.62 2029.81,1130.38 2038.64,1129.63 
  2046.83,1128.59 2054.51,1127.31 2061.76,1125.83 2070,1123.81 2077.78,1121.58 2085.18,1119.14 2092.22,1116.52 2097.94,1114.18 2103.44,1111.73 2108.76,1109.19 
  2113.89,1106.55 2119.28,1103.58 2124.47,1100.51 2129.49,1097.35 2134.33,1094.1 2142.83,1087.89 2150.81,1081.43 2158.82,1074.24 2166.29,1066.81 2170.38,1062.4 
  2174.3,1057.92 2178.06,1053.36 2181.66,1048.75 2187.65,1040.4 2193.16,1031.87 2197.59,1024.26 2201.66,1016.53 2205.69,1008 2209.3,999.356 2212.51,990.566 
  2215.31,981.691 2217.92,971.795 2220.03,961.826 2221.57,952.288 2222.67,942.711 2223.33,932.727 2223.51,922.729 2223.29,914.315 2222.72,905.91 2221.57,895.675 
  2219.9,885.485 2217.91,876.202 2215.5,866.982 2212.88,858.534 2209.88,850.161 2206.46,841.767 2202.64,833.471 2197.89,824.306 2192.64,815.297 2187.42,807.283 
  2181.77,799.424 2174.76,790.638 2167.14,782.1 2159.52,774.439 2151.34,767.035 2142.69,760.013 2133.43,753.296 2128.69,750.154 2123.79,747.095 2118.73,744.125 
  2113.48,741.249 2107.9,738.403 2102.11,735.668 2096.08,733.053 2089.82,730.567 2082.64,728.005 2075.09,725.628 2067.14,723.459 2058.7,721.526 2052.23,720.291 
  2045.41,719.22 2038.18,718.337 2030.46,717.677 2026.38,717.446 2022.12,717.291 2017.65,717.223 2012.95,717.256 2007.95,717.407 2002.59,717.705 1996.77,718.187 
  1990.3,718.917 1987.4,719.312 1984.3,719.779 1980.96,720.338 1977.3,721.014 1975.32,721.41 1973.19,721.856 1970.9,722.363 1968.38,722.952 1965.55,723.656 
  1962.21,724.537 1957.93,725.759 1948.27,728.884 
  "/>
<polyline clip-path="url(#clip372)" style="stroke:#c271d2; stroke-linecap:butt; stroke-linejoin:round; stroke-width:4; stroke-opacity:1; fill:none" points="
  1947.34,1118.8 1942.38,1116.97 1940.18,1116.1 1938.51,1115.43 1937.1,1114.85 1935.87,1114.33 1934.76,1113.85 1933.75,1113.41 1932.81,1113 1931.1,1112.23 
  1929.56,1111.52 1928.16,1110.86 1926.86,1110.24 1924.5,1109.09 1922.4,1108.02 1921.42,1107.52 1920.48,1107.03 1919.58,1106.55 1918.71,1106.08 1916.81,1105.05 
  1915.04,1104.06 1913.39,1103.12 1911.83,1102.21 1908.94,1100.48 1906.31,1098.84 1903.88,1097.28 1901.62,1095.79 1899.5,1094.36 1897.51,1092.97 1895.62,1091.62 
  1893.83,1090.31 1892.13,1089.04 1890.5,1087.79 1887.43,1085.38 1884.59,1083.07 1881.95,1080.84 1879.47,1078.67 1877.14,1076.57 1874.94,1074.53 1872.85,1072.53 
  1870.87,1070.58 1868.97,1068.68 1867.17,1066.81 1865.1,1064.61 1863.13,1062.45 1861.26,1060.35 1859.46,1058.28 1856.11,1054.25 1853.02,1050.34 1850.6,1047.13 
  1848.32,1044 1846.17,1040.93 1844.15,1037.92 1842.08,1034.72 1840.13,1031.58 1838.28,1028.49 1836.54,1025.46 1833.57,1020 1830.88,1014.67 1828.27,1009.11 
  1825.91,1003.68 1823.45,997.522 1821.27,991.502 1819.53,986.25 1817.98,981.079 1816.74,976.605 1815.63,972.18 1814.55,967.406 1813.59,962.679 1812.75,957.964 
  1812.03,953.285 1811.36,948.146 1810.82,943.037 1810.43,938.198 1810.16,933.374 1809.99,928.368 1809.94,923.368 1810,919.159 1810.14,914.946 1810.43,909.791 
  1810.85,904.619 1811.36,899.859 1811.98,895.074 1812.66,890.627 1813.44,886.148 1814.34,881.574 1815.37,876.958 1816.66,871.728 1818.12,866.428 1819.6,861.557 
  1821.23,856.614 1823.32,850.855 1825.64,844.974 1828.04,839.405 1830.7,833.701 1833.62,827.928 1836.86,821.984 1838.57,819.028 1840.38,816.023 1842.29,812.964 
  1844.31,809.847 1846.52,806.585 1848.87,803.25 1851.38,799.835 1854.07,796.33 1857.25,792.376 1860.72,788.287 1862.57,786.184 1864.51,784.04 1866.56,781.849 
  1868.71,779.608 1872.06,776.253 1875.71,772.763 1877.67,770.96 1879.73,769.113 1881.91,767.218 1884.21,765.268 1886.65,763.258 1889.26,761.18 1892.07,759.022 
  1895.11,756.77 1896.73,755.604 1898.42,754.407 1900.21,753.176 1902.09,751.906 1904.09,750.592 1906.22,749.227 1908.5,747.804 1910.98,746.309 1912.05,745.672 
  1913.18,745.018 1914.35,744.347 1915.57,743.656 1918.2,742.204 1921.15,740.636 1922.78,739.794 1924.55,738.904 1926.49,737.951 1928.65,736.918 1929.84,736.361 
  1931.13,735.77 1932.54,735.136 1934.1,734.446 1934.97,734.072 1935.9,733.675 1936.91,733.248 1938.04,732.78 1939.32,732.257 1940.85,731.646 1942.86,730.866 
  1947.34,729.212 
  "/>
</svg>
