<?xml version="1.0" encoding="utf-8"?>
<svg xmlns="http://www.w3.org/2000/svg" xmlns:xlink="http://www.w3.org/1999/xlink" width="672" height="480" viewBox="0 0 2688 1920">
<defs>
  <clipPath id="clip410">
    <rect x="0" y="0" width="2688" height="1920"/>
  </clipPath>
</defs>
<path clip-path="url(#clip410)" d="
M0 1920 L2688 1920 L2688 0 L0 0  Z
  " fill="#ffffff" fill-rule="evenodd" fill-opacity="1"/>
<defs>
  <clipPath id="clip411">
    <rect x="537" y="0" width="1883" height="1883"/>
  </clipPath>
</defs>
<path clip-path="url(#clip410)" d="
M149.988 1800.78 L2640.76 1800.78 L2640.76 47.2441 L149.988 47.2441  Z
  " fill="#ffffff" fill-rule="evenodd" fill-opacity="1"/>
<defs>
  <clipPath id="clip412">
    <rect x="149" y="47" width="2492" height="1755"/>
  </clipPath>
</defs>
<polyline clip-path="url(#clip412)" style="stroke:#000000; stroke-linecap:butt; stroke-linejoin:round; stroke-width:2; stroke-opacity:0.1; fill:none" points="
  162.388,1800.78 162.388,47.2441 
  "/>
<polyline clip-path="url(#clip412)" style="stroke:#000000; stroke-linecap:butt; stroke-linejoin:round; stroke-width:2; stroke-opacity:0.1; fill:none" points="
  779.038,1800.78 779.038,47.2441 
  "/>
<polyline clip-path="url(#clip412)" style="stroke:#000000; stroke-linecap:butt; stroke-linejoin:round; stroke-width:2; stroke-opacity:0.1; fill:none" points="
  1395.69,1800.78 1395.69,47.2441 
  "/>
<polyline clip-path="url(#clip412)" style="stroke:#000000; stroke-linecap:butt; stroke-linejoin:round; stroke-width:2; stroke-opacity:0.1; fill:none" points="
  2012.34,1800.78 2012.34,47.2441 
  "/>
<polyline clip-path="url(#clip412)" style="stroke:#000000; stroke-linecap:butt; stroke-linejoin:round; stroke-width:2; stroke-opacity:0.1; fill:none" points="
  2628.99,1800.78 2628.99,47.2441 
  "/>
<polyline clip-path="url(#clip410)" style="stroke:#000000; stroke-linecap:butt; stroke-linejoin:round; stroke-width:4; stroke-opacity:1; fill:none" points="
  149.988,1800.78 2640.76,1800.78 
  "/>
<polyline clip-path="url(#clip410)" style="stroke:#000000; stroke-linecap:butt; stroke-linejoin:round; stroke-width:4; stroke-opacity:1; fill:none" points="
  162.388,1800.78 162.388,1781.88 
  "/>
<polyline clip-path="url(#clip410)" style="stroke:#000000; stroke-linecap:butt; stroke-linejoin:round; stroke-width:4; stroke-opacity:1; fill:none" points="
  779.038,1800.78 779.038,1781.88 
  "/>
<polyline clip-path="url(#clip410)" style="stroke:#000000; stroke-linecap:butt; stroke-linejoin:round; stroke-width:4; stroke-opacity:1; fill:none" points="
  1395.69,1800.78 1395.69,1781.88 
  "/>
<polyline clip-path="url(#clip410)" style="stroke:#000000; stroke-linecap:butt; stroke-linejoin:round; stroke-width:4; stroke-opacity:1; fill:none" points="
  2012.34,1800.78 2012.34,1781.88 
  "/>
<polyline clip-path="url(#clip410)" style="stroke:#000000; stroke-linecap:butt; stroke-linejoin:round; stroke-width:4; stroke-opacity:1; fill:none" points="
  2628.99,1800.78 2628.99,1781.88 
  "/>
<path clip-path="url(#clip410)" d="M131.289 1848.65 L160.964 1848.65 L160.964 1852.59 L131.289 1852.59 L131.289 1848.65 Z" fill="#000000" fill-rule="evenodd" fill-opacity="1" /><path clip-path="url(#clip410)" d="M183.904 1835 L172.098 1853.45 L183.904 1853.45 L183.904 1835 M182.677 1830.92 L188.557 1830.92 L188.557 1853.45 L193.487 1853.45 L193.487 1857.34 L188.557 1857.34 L188.557 1865.48 L183.904 1865.48 L183.904 1857.34 L168.302 1857.34 L168.302 1852.82 L182.677 1830.92 Z" fill="#000000" fill-rule="evenodd" fill-opacity="1" /><path clip-path="url(#clip410)" d="M748.98 1848.65 L778.656 1848.65 L778.656 1852.59 L748.98 1852.59 L748.98 1848.65 Z" fill="#000000" fill-rule="evenodd" fill-opacity="1" /><path clip-path="url(#clip410)" d="M792.776 1861.55 L809.095 1861.55 L809.095 1865.48 L787.151 1865.48 L787.151 1861.55 Q789.813 1858.79 794.396 1854.16 Q799.003 1849.51 800.183 1848.17 Q802.429 1845.65 803.308 1843.91 Q804.211 1842.15 804.211 1840.46 Q804.211 1837.71 802.267 1835.97 Q800.346 1834.23 797.244 1834.23 Q795.045 1834.23 792.591 1835 Q790.16 1835.76 787.383 1837.31 L787.383 1832.59 Q790.207 1831.46 792.66 1830.88 Q795.114 1830.3 797.151 1830.3 Q802.521 1830.3 805.716 1832.98 Q808.91 1835.67 808.91 1840.16 Q808.91 1842.29 808.1 1844.21 Q807.313 1846.11 805.207 1848.7 Q804.628 1849.37 801.526 1852.59 Q798.424 1855.78 792.776 1861.55 Z" fill="#000000" fill-rule="evenodd" fill-opacity="1" /><path clip-path="url(#clip410)" d="M1395.69 1834 Q1392.08 1834 1390.25 1837.57 Q1388.44 1841.11 1388.44 1848.24 Q1388.44 1855.34 1390.25 1858.91 Q1392.08 1862.45 1395.69 1862.45 Q1399.32 1862.45 1401.13 1858.91 Q1402.96 1855.34 1402.96 1848.24 Q1402.96 1841.11 1401.13 1837.57 Q1399.32 1834 1395.69 1834 M1395.69 1830.3 Q1401.5 1830.3 1404.55 1834.9 Q1407.63 1839.49 1407.63 1848.24 Q1407.63 1856.96 1404.55 1861.57 Q1401.5 1866.15 1395.69 1866.15 Q1389.88 1866.15 1386.8 1861.57 Q1383.74 1856.96 1383.74 1848.24 Q1383.74 1839.49 1386.8 1834.9 Q1389.88 1830.3 1395.69 1830.3 Z" fill="#000000" fill-rule="evenodd" fill-opacity="1" /><path clip-path="url(#clip410)" d="M2006.99 1861.55 L2023.31 1861.55 L2023.31 1865.48 L2001.37 1865.48 L2001.37 1861.55 Q2004.03 1858.79 2008.61 1854.16 Q2013.22 1849.51 2014.4 1848.17 Q2016.64 1845.65 2017.52 1843.91 Q2018.43 1842.15 2018.43 1840.46 Q2018.43 1837.71 2016.48 1835.97 Q2014.56 1834.23 2011.46 1834.23 Q2009.26 1834.23 2006.81 1835 Q2004.37 1835.76 2001.6 1837.31 L2001.6 1832.59 Q2004.42 1831.46 2006.87 1830.88 Q2009.33 1830.3 2011.37 1830.3 Q2016.74 1830.3 2019.93 1832.98 Q2023.12 1835.67 2023.12 1840.16 Q2023.12 1842.29 2022.31 1844.21 Q2021.53 1846.11 2019.42 1848.7 Q2018.84 1849.37 2015.74 1852.59 Q2012.64 1855.78 2006.99 1861.55 Z" fill="#000000" fill-rule="evenodd" fill-opacity="1" /><path clip-path="url(#clip410)" d="M2632 1835 L2620.19 1853.45 L2632 1853.45 L2632 1835 M2630.77 1830.92 L2636.65 1830.92 L2636.65 1853.45 L2641.58 1853.45 L2641.58 1857.34 L2636.65 1857.34 L2636.65 1865.48 L2632 1865.48 L2632 1857.34 L2616.39 1857.34 L2616.39 1852.82 L2630.77 1830.92 Z" fill="#000000" fill-rule="evenodd" fill-opacity="1" /><polyline clip-path="url(#clip412)" style="stroke:#000000; stroke-linecap:butt; stroke-linejoin:round; stroke-width:2; stroke-opacity:0.1; fill:none" points="
  149.988,1462.49 2640.76,1462.49 
  "/>
<polyline clip-path="url(#clip412)" style="stroke:#000000; stroke-linecap:butt; stroke-linejoin:round; stroke-width:2; stroke-opacity:0.1; fill:none" points="
  149.988,1007.28 2640.76,1007.28 
  "/>
<polyline clip-path="url(#clip412)" style="stroke:#000000; stroke-linecap:butt; stroke-linejoin:round; stroke-width:2; stroke-opacity:0.1; fill:none" points="
  149.988,552.078 2640.76,552.078 
  "/>
<polyline clip-path="url(#clip412)" style="stroke:#000000; stroke-linecap:butt; stroke-linejoin:round; stroke-width:2; stroke-opacity:0.1; fill:none" points="
  149.988,96.8722 2640.76,96.8722 
  "/>
<polyline clip-path="url(#clip410)" style="stroke:#000000; stroke-linecap:butt; stroke-linejoin:round; stroke-width:4; stroke-opacity:1; fill:none" points="
  149.988,1800.78 149.988,47.2441 
  "/>
<polyline clip-path="url(#clip410)" style="stroke:#000000; stroke-linecap:butt; stroke-linejoin:round; stroke-width:4; stroke-opacity:1; fill:none" points="
  149.988,1462.49 168.885,1462.49 
  "/>
<polyline clip-path="url(#clip410)" style="stroke:#000000; stroke-linecap:butt; stroke-linejoin:round; stroke-width:4; stroke-opacity:1; fill:none" points="
  149.988,1007.28 168.885,1007.28 
  "/>
<polyline clip-path="url(#clip410)" style="stroke:#000000; stroke-linecap:butt; stroke-linejoin:round; stroke-width:4; stroke-opacity:1; fill:none" points="
  149.988,552.078 168.885,552.078 
  "/>
<polyline clip-path="url(#clip410)" style="stroke:#000000; stroke-linecap:butt; stroke-linejoin:round; stroke-width:4; stroke-opacity:1; fill:none" points="
  149.988,96.8722 168.885,96.8722 
  "/>
<path clip-path="url(#clip410)" d="M49.5521 1462.94 L79.2279 1462.94 L79.2279 1466.88 L49.5521 1466.88 L49.5521 1462.94 Z" fill="#000000" fill-rule="evenodd" fill-opacity="1" /><path clip-path="url(#clip410)" d="M93.3482 1475.84 L109.668 1475.84 L109.668 1479.77 L87.7232 1479.77 L87.7232 1475.84 Q90.3852 1473.08 94.9685 1468.45 Q99.575 1463.8 100.756 1462.46 Q103.001 1459.93 103.881 1458.2 Q104.783 1456.44 104.783 1454.75 Q104.783 1451.99 102.839 1450.26 Q100.918 1448.52 97.8158 1448.52 Q95.6167 1448.52 93.163 1449.29 Q90.7325 1450.05 87.9547 1451.6 L87.9547 1446.88 Q90.7788 1445.74 93.2324 1445.16 Q95.6861 1444.59 97.7232 1444.59 Q103.094 1444.59 106.288 1447.27 Q109.482 1449.96 109.482 1454.45 Q109.482 1456.58 108.672 1458.5 Q107.885 1460.4 105.779 1462.99 Q105.2 1463.66 102.098 1466.88 Q98.9963 1470.07 93.3482 1475.84 Z" fill="#000000" fill-rule="evenodd" fill-opacity="1" /><path clip-path="url(#clip410)" d="M97.7232 993.083 Q94.1121 993.083 92.2834 996.648 Q90.4778 1000.19 90.4778 1007.32 Q90.4778 1014.43 92.2834 1017.99 Q94.1121 1021.53 97.7232 1021.53 Q101.357 1021.53 103.163 1017.99 Q104.992 1014.43 104.992 1007.32 Q104.992 1000.19 103.163 996.648 Q101.357 993.083 97.7232 993.083 M97.7232 989.38 Q103.533 989.38 106.589 993.986 Q109.668 998.57 109.668 1007.32 Q109.668 1016.05 106.589 1020.65 Q103.533 1025.24 97.7232 1025.24 Q91.913 1025.24 88.8343 1020.65 Q85.7788 1016.05 85.7788 1007.32 Q85.7788 998.57 88.8343 993.986 Q91.913 989.38 97.7232 989.38 Z" fill="#000000" fill-rule="evenodd" fill-opacity="1" /><path clip-path="url(#clip410)" d="M93.3482 565.423 L109.668 565.423 L109.668 569.358 L87.7232 569.358 L87.7232 565.423 Q90.3852 562.669 94.9685 558.039 Q99.575 553.386 100.756 552.044 Q103.001 549.521 103.881 547.785 Q104.783 546.025 104.783 544.335 Q104.783 541.581 102.839 539.845 Q100.918 538.109 97.8158 538.109 Q95.6167 538.109 93.163 538.873 Q90.7325 539.636 87.9547 541.187 L87.9547 536.465 Q90.7788 535.331 93.2324 534.752 Q95.6861 534.173 97.7232 534.173 Q103.094 534.173 106.288 536.859 Q109.482 539.544 109.482 544.035 Q109.482 546.164 108.672 548.085 Q107.885 549.984 105.779 552.576 Q105.2 553.247 102.098 556.465 Q98.9963 559.659 93.3482 565.423 Z" fill="#000000" fill-rule="evenodd" fill-opacity="1" /><path clip-path="url(#clip410)" d="M100.084 83.6662 L88.2788 102.115 L100.084 102.115 L100.084 83.6662 M98.8574 79.5922 L104.737 79.5922 L104.737 102.115 L109.668 102.115 L109.668 106.004 L104.737 106.004 L104.737 114.152 L100.084 114.152 L100.084 106.004 L84.4825 106.004 L84.4825 101.49 L98.8574 79.5922 Z" fill="#000000" fill-rule="evenodd" fill-opacity="1" /><polyline clip-path="url(#clip412)" style="stroke:#009af9; stroke-linecap:butt; stroke-linejoin:round; stroke-width:4; stroke-opacity:1; fill:none" points="
  1395.69,1007.28 1427.22,1007.17 1458.72,1006.81 1490.18,1006.21 1521.57,1005.38 1665.13,998.509 1804.49,986.813 1871.91,979.259 1937.48,970.638 2000.94,961.014 
  2062.04,950.459 2120.56,939.05 2176.27,926.873 2228.97,914.019 2278.45,900.587 2324.53,886.679 2367.05,872.401 2405.85,857.867 2440.8,843.19 2477.53,825.526 
  2508.35,808.034 2521.5,799.419 2533.11,790.925 2543.19,782.579 2551.72,774.408 2558.7,766.437 2564.11,758.693 2567.97,751.201 2570.26,743.988 2570.18,730.494 
  2563.92,718.407 2553.87,709.424 2539.53,701.688 2521.01,695.302 2498.41,690.361 2471.85,686.952 2441.48,685.157 2407.47,685.049 2369.97,686.69 2325.52,690.518 
  2277.44,696.532 2226.01,704.773 2171.53,715.27 2114.28,728.037 2054.59,743.07 1992.78,760.354 1929.19,779.853 1869.26,799.753 1808.37,821.446 1746.78,844.871 
  1684.76,869.959 1622.58,896.625 1560.51,924.78 1498.8,954.32 1437.72,985.135 1373.22,1019.45 1310.03,1054.93 1248.43,1091.41 1188.71,1128.71 1131.14,1166.64 
  1075.95,1205.01 1023.38,1243.62 973.648,1282.25 919.83,1326.78 870.352,1370.73 825.449,1413.78 785.319,1455.59 750.118,1495.83 719.966,1534.17 694.94,1570.3 
  675.08,1603.91 661.765,1631.43 652.501,1656.52 647.237,1679.02 645.898,1698.73 648.388,1715.51 654.588,1729.21 664.358,1739.69 677.539,1746.85 691.766,1750.32 
  708.35,1751.11 727.152,1749.18 748.024,1744.49 770.812,1737.02 795.353,1726.78 821.481,1713.76 849.022,1697.98 880.453,1677.66 913.123,1654.15 946.797,1627.52 
  981.238,1597.85 1016.21,1565.24 1051.48,1529.83 1086.82,1491.72 1122,1451.09 1157,1407.82 1191.4,1362.32 1224.99,1314.8 1257.57,1265.45 1288.96,1214.49 
  1318.98,1162.14 1347.46,1108.63 1374.27,1054.2 1401.8,993.249 1426.95,931.818 1449.61,870.25 1469.65,808.891 1487.01,748.092 1501.61,688.2 1513.45,629.558 
  1522.51,572.505 1528.57,519.998 1532.18,469.505 1533.41,421.292 1532.33,375.616 1529.04,332.719 1523.68,292.828 1516.36,256.157 1507.25,222.901 1496.05,192.136 
  1483.3,165.434 1476.4,153.656 1469.2,142.95 1461.72,133.331 1453.99,124.814 1446.04,117.411 1437.91,111.133 1429.61,105.988 1421.19,101.985 1412.68,99.1287 
  1404.1,97.4237 1395.49,96.8724 1386.89,97.4757 1372.48,101.096 1358.33,107.971 1344.56,118.072 1331.34,131.357 1318.8,147.772 1307.1,167.249 1296.35,189.707 
  1286.7,215.055 1276.56,249.767 1268.45,288.419 1262.54,330.773 1259,376.572 1257.98,425.538 1259.61,477.375 1263.97,531.768 1271.14,588.39 1280.21,641.926 
  1291.7,696.778 1305.59,752.673 1321.86,809.331 1340.46,866.472 1361.33,923.814 1384.39,981.076 1409.53,1037.98 1434.48,1089.98 1461,1141.22 1488.96,1191.5 
  1518.23,1240.61 1548.65,1288.37 1580.08,1334.57 1612.35,1379.04 1645.29,1421.62 1679.14,1462.64 1713.3,1501.39 1747.55,1537.73 1781.69,1571.52 1815.51,1602.64 
  1848.8,1630.99 1881.34,1656.47 1912.92,1679.02 1946.9,1700.72 1979.1,1718.58 2009.24,1732.56 2037.03,1742.64 2062.2,1748.83 2084.48,1751.15 2103.64,1749.66 
  2119.45,1744.42 2130.69,1736.53 2138.87,1725.72 2143.85,1712.1 2145.52,1695.78 2143.79,1676.88 2138.57,1655.53 2129.81,1631.89 2117.46,1606.1 2098.89,1574.15 
  2075.58,1539.86 2047.56,1503.5 2014.9,1465.34 1977.69,1425.67 1936.06,1384.77 1890.17,1342.95 1840.23,1300.5 1790.56,1260.87 1737.8,1221.18 1682.18,1181.65 
  1623.94,1142.5 1563.35,1103.94 1500.68,1066.17 1436.24,1029.41 1370.32,993.825 1304.21,960.07 1237.31,927.791 1169.94,897.132 1102.44,868.224 1035.16,841.184 
  968.422,816.115 902.585,793.107 837.989,772.233 776.782,754.063 717.375,737.998 660.069,724.065 605.158,712.274 552.928,702.624 503.654,695.099 457.598,689.671 
  415.01,686.297 375.194,684.915 339.503,685.564 308.15,688.161 281.329,692.609 259.212,698.803 241.949,706.624 229.664,715.948 222.458,726.64 220.691,733.026 
  220.481,739.756 221.833,746.806 224.753,754.15 229.241,761.764 235.298,769.62 242.92,777.694 252.102,785.959 275.113,802.956 304.241,820.399 321.06,829.221 
  339.357,838.076 359.109,846.936 380.294,855.776 413.564,868.53 449.711,881.109 488.635,893.44 530.228,905.448 574.375,917.062 620.948,928.216 669.816,938.844 
  720.837,948.884 773.863,958.28 828.739,966.979 885.303,974.929 943.389,982.088 1063.44,993.871 1187.45,1002.06 1239.14,1004.34 1291.15,1005.97 1343.37,1006.96 
  1395.69,1007.28 
  "/>
<path clip-path="url(#clip410)" d="
M2228.55 209.375 L2557.73 209.375 L2557.73 105.695 L2228.55 105.695  Z
  " fill="#ffffff" fill-rule="evenodd" fill-opacity="1"/>
<polyline clip-path="url(#clip410)" style="stroke:#000000; stroke-linecap:butt; stroke-linejoin:round; stroke-width:4; stroke-opacity:1; fill:none" points="
  2228.55,209.375 2557.73,209.375 2557.73,105.695 2228.55,105.695 2228.55,209.375 
  "/>
<polyline clip-path="url(#clip410)" style="stroke:#009af9; stroke-linecap:butt; stroke-linejoin:round; stroke-width:4; stroke-opacity:1; fill:none" points="
  2256.22,157.535 2422.27,157.535 
  "/>
<path clip-path="url(#clip410)" d="M2463.79 177.223 Q2461.99 181.852 2460.27 183.264 Q2458.56 184.676 2455.69 184.676 L2452.29 184.676 L2452.29 181.112 L2454.79 181.112 Q2456.55 181.112 2457.52 180.278 Q2458.49 179.445 2459.67 176.343 L2460.44 174.399 L2449.95 148.889 L2454.46 148.889 L2462.57 169.167 L2470.67 148.889 L2475.18 148.889 L2463.79 177.223 Z" fill="#000000" fill-rule="evenodd" fill-opacity="1" /><path clip-path="url(#clip410)" d="M2482.47 170.88 L2490.11 170.88 L2490.11 144.515 L2481.8 146.181 L2481.8 141.922 L2490.07 140.255 L2494.74 140.255 L2494.74 170.88 L2502.38 170.88 L2502.38 174.815 L2482.47 174.815 L2482.47 170.88 Z" fill="#000000" fill-rule="evenodd" fill-opacity="1" /></svg>
