<?xml version="1.0" encoding="utf-8"?>
<svg xmlns="http://www.w3.org/2000/svg" xmlns:xlink="http://www.w3.org/1999/xlink" width="672" height="480" viewBox="0 0 2688 1920">
<defs>
  <clipPath id="clip340">
    <rect x="0" y="0" width="2688" height="1920"/>
  </clipPath>
</defs>
<path clip-path="url(#clip340)" d="
M0 1920 L2688 1920 L2688 0 L0 0  Z
  " fill="#ffffff" fill-rule="evenodd" fill-opacity="1"/>
<defs>
  <clipPath id="clip341">
    <rect x="537" y="0" width="1883" height="1883"/>
  </clipPath>
</defs>
<path clip-path="url(#clip340)" d="
M150.937 1800.78 L2640.76 1800.78 L2640.76 47.2441 L150.937 47.2441  Z
  " fill="#ffffff" fill-rule="evenodd" fill-opacity="1"/>
<defs>
  <clipPath id="clip342">
    <rect x="150" y="47" width="2491" height="1755"/>
  </clipPath>
</defs>
<polyline clip-path="url(#clip342)" style="stroke:#000000; stroke-linecap:butt; stroke-linejoin:round; stroke-width:2; stroke-opacity:0.1; fill:none" points="
  281.98,1800.78 281.98,47.2441 
  "/>
<polyline clip-path="url(#clip342)" style="stroke:#000000; stroke-linecap:butt; stroke-linejoin:round; stroke-width:2; stroke-opacity:0.1; fill:none" points="
  806.152,1800.78 806.152,47.2441 
  "/>
<polyline clip-path="url(#clip342)" style="stroke:#000000; stroke-linecap:butt; stroke-linejoin:round; stroke-width:2; stroke-opacity:0.1; fill:none" points="
  1330.32,1800.78 1330.32,47.2441 
  "/>
<polyline clip-path="url(#clip342)" style="stroke:#000000; stroke-linecap:butt; stroke-linejoin:round; stroke-width:2; stroke-opacity:0.1; fill:none" points="
  1854.5,1800.78 1854.5,47.2441 
  "/>
<polyline clip-path="url(#clip342)" style="stroke:#000000; stroke-linecap:butt; stroke-linejoin:round; stroke-width:2; stroke-opacity:0.1; fill:none" points="
  2378.67,1800.78 2378.67,47.2441 
  "/>
<polyline clip-path="url(#clip340)" style="stroke:#000000; stroke-linecap:butt; stroke-linejoin:round; stroke-width:4; stroke-opacity:1; fill:none" points="
  150.937,1800.78 2640.76,1800.78 
  "/>
<polyline clip-path="url(#clip340)" style="stroke:#000000; stroke-linecap:butt; stroke-linejoin:round; stroke-width:4; stroke-opacity:1; fill:none" points="
  281.98,1800.78 281.98,1781.88 
  "/>
<polyline clip-path="url(#clip340)" style="stroke:#000000; stroke-linecap:butt; stroke-linejoin:round; stroke-width:4; stroke-opacity:1; fill:none" points="
  806.152,1800.78 806.152,1781.88 
  "/>
<polyline clip-path="url(#clip340)" style="stroke:#000000; stroke-linecap:butt; stroke-linejoin:round; stroke-width:4; stroke-opacity:1; fill:none" points="
  1330.32,1800.78 1330.32,1781.88 
  "/>
<polyline clip-path="url(#clip340)" style="stroke:#000000; stroke-linecap:butt; stroke-linejoin:round; stroke-width:4; stroke-opacity:1; fill:none" points="
  1854.5,1800.78 1854.5,1781.88 
  "/>
<polyline clip-path="url(#clip340)" style="stroke:#000000; stroke-linecap:butt; stroke-linejoin:round; stroke-width:4; stroke-opacity:1; fill:none" points="
  2378.67,1800.78 2378.67,1781.88 
  "/>
<path clip-path="url(#clip340)" d="M281.98 1834 Q278.369 1834 276.54 1837.57 Q274.734 1841.11 274.734 1848.24 Q274.734 1855.34 276.54 1858.91 Q278.369 1862.45 281.98 1862.45 Q285.614 1862.45 287.42 1858.91 Q289.248 1855.34 289.248 1848.24 Q289.248 1841.11 287.42 1837.57 Q285.614 1834 281.98 1834 M281.98 1830.3 Q287.79 1830.3 290.845 1834.9 Q293.924 1839.49 293.924 1848.24 Q293.924 1856.96 290.845 1861.57 Q287.79 1866.15 281.98 1866.15 Q276.17 1866.15 273.091 1861.57 Q270.035 1856.96 270.035 1848.24 Q270.035 1839.49 273.091 1834.9 Q276.17 1830.3 281.98 1830.3 Z" fill="#000000" fill-rule="evenodd" fill-opacity="1" /><path clip-path="url(#clip340)" d="M800.805 1861.55 L817.124 1861.55 L817.124 1865.48 L795.18 1865.48 L795.18 1861.55 Q797.842 1858.79 802.425 1854.16 Q807.032 1849.51 808.212 1848.17 Q810.458 1845.65 811.337 1843.91 Q812.24 1842.15 812.24 1840.46 Q812.24 1837.71 810.296 1835.97 Q808.374 1834.23 805.273 1834.23 Q803.074 1834.23 800.62 1835 Q798.189 1835.76 795.412 1837.31 L795.412 1832.59 Q798.236 1831.46 800.689 1830.88 Q803.143 1830.3 805.18 1830.3 Q810.55 1830.3 813.745 1832.98 Q816.939 1835.67 816.939 1840.16 Q816.939 1842.29 816.129 1844.21 Q815.342 1846.11 813.236 1848.7 Q812.657 1849.37 809.555 1852.59 Q806.453 1855.78 800.805 1861.55 Z" fill="#000000" fill-rule="evenodd" fill-opacity="1" /><path clip-path="url(#clip340)" d="M1333.33 1835 L1321.53 1853.45 L1333.33 1853.45 L1333.33 1835 M1332.11 1830.92 L1337.99 1830.92 L1337.99 1853.45 L1342.92 1853.45 L1342.92 1857.34 L1337.99 1857.34 L1337.99 1865.48 L1333.33 1865.48 L1333.33 1857.34 L1317.73 1857.34 L1317.73 1852.82 L1332.11 1830.92 Z" fill="#000000" fill-rule="evenodd" fill-opacity="1" /><path clip-path="url(#clip340)" d="M1854.9 1846.34 Q1851.75 1846.34 1849.9 1848.49 Q1848.07 1850.65 1848.07 1854.4 Q1848.07 1858.12 1849.9 1860.3 Q1851.75 1862.45 1854.9 1862.45 Q1858.05 1862.45 1859.88 1860.3 Q1861.73 1858.12 1861.73 1854.4 Q1861.73 1850.65 1859.88 1848.49 Q1858.05 1846.34 1854.9 1846.34 M1864.18 1831.69 L1864.18 1835.95 Q1862.43 1835.11 1860.62 1834.67 Q1858.84 1834.23 1857.08 1834.23 Q1852.45 1834.23 1849.99 1837.36 Q1847.56 1840.48 1847.22 1846.8 Q1848.58 1844.79 1850.64 1843.72 Q1852.7 1842.64 1855.18 1842.64 Q1860.39 1842.64 1863.4 1845.81 Q1866.43 1848.96 1866.43 1854.4 Q1866.43 1859.72 1863.28 1862.94 Q1860.13 1866.15 1854.9 1866.15 Q1848.91 1866.15 1845.74 1861.57 Q1842.56 1856.96 1842.56 1848.24 Q1842.56 1840.04 1846.45 1835.18 Q1850.34 1830.3 1856.89 1830.3 Q1858.65 1830.3 1860.43 1830.65 Q1862.24 1830.99 1864.18 1831.69 Z" fill="#000000" fill-rule="evenodd" fill-opacity="1" /><path clip-path="url(#clip340)" d="M2378.67 1849.07 Q2375.34 1849.07 2373.42 1850.85 Q2371.52 1852.64 2371.52 1855.76 Q2371.52 1858.89 2373.42 1860.67 Q2375.34 1862.45 2378.67 1862.45 Q2382 1862.45 2383.92 1860.67 Q2385.85 1858.86 2385.85 1855.76 Q2385.85 1852.64 2383.92 1850.85 Q2382.03 1849.07 2378.67 1849.07 M2373.99 1847.08 Q2370.98 1846.34 2369.29 1844.28 Q2367.63 1842.22 2367.63 1839.26 Q2367.63 1835.11 2370.57 1832.71 Q2373.53 1830.3 2378.67 1830.3 Q2383.83 1830.3 2386.77 1832.71 Q2389.71 1835.11 2389.71 1839.26 Q2389.71 1842.22 2388.02 1844.28 Q2386.35 1846.34 2383.37 1847.08 Q2386.75 1847.87 2388.62 1850.16 Q2390.52 1852.45 2390.52 1855.76 Q2390.52 1860.78 2387.44 1863.47 Q2384.39 1866.15 2378.67 1866.15 Q2372.95 1866.15 2369.87 1863.47 Q2366.82 1860.78 2366.82 1855.76 Q2366.82 1852.45 2368.72 1850.16 Q2370.61 1847.87 2373.99 1847.08 M2372.28 1839.7 Q2372.28 1842.38 2373.95 1843.89 Q2375.64 1845.39 2378.67 1845.39 Q2381.68 1845.39 2383.37 1843.89 Q2385.08 1842.38 2385.08 1839.7 Q2385.08 1837.01 2383.37 1835.51 Q2381.68 1834 2378.67 1834 Q2375.64 1834 2373.95 1835.51 Q2372.28 1837.01 2372.28 1839.7 Z" fill="#000000" fill-rule="evenodd" fill-opacity="1" /><polyline clip-path="url(#clip342)" style="stroke:#000000; stroke-linecap:butt; stroke-linejoin:round; stroke-width:2; stroke-opacity:0.1; fill:none" points="
  150.937,1710.27 2640.76,1710.27 
  "/>
<polyline clip-path="url(#clip342)" style="stroke:#000000; stroke-linecap:butt; stroke-linejoin:round; stroke-width:2; stroke-opacity:0.1; fill:none" points="
  150.937,1448.18 2640.76,1448.18 
  "/>
<polyline clip-path="url(#clip342)" style="stroke:#000000; stroke-linecap:butt; stroke-linejoin:round; stroke-width:2; stroke-opacity:0.1; fill:none" points="
  150.937,1186.1 2640.76,1186.1 
  "/>
<polyline clip-path="url(#clip342)" style="stroke:#000000; stroke-linecap:butt; stroke-linejoin:round; stroke-width:2; stroke-opacity:0.1; fill:none" points="
  150.937,924.012 2640.76,924.012 
  "/>
<polyline clip-path="url(#clip342)" style="stroke:#000000; stroke-linecap:butt; stroke-linejoin:round; stroke-width:2; stroke-opacity:0.1; fill:none" points="
  150.937,661.925 2640.76,661.925 
  "/>
<polyline clip-path="url(#clip342)" style="stroke:#000000; stroke-linecap:butt; stroke-linejoin:round; stroke-width:2; stroke-opacity:0.1; fill:none" points="
  150.937,399.839 2640.76,399.839 
  "/>
<polyline clip-path="url(#clip342)" style="stroke:#000000; stroke-linecap:butt; stroke-linejoin:round; stroke-width:2; stroke-opacity:0.1; fill:none" points="
  150.937,137.753 2640.76,137.753 
  "/>
<polyline clip-path="url(#clip340)" style="stroke:#000000; stroke-linecap:butt; stroke-linejoin:round; stroke-width:4; stroke-opacity:1; fill:none" points="
  150.937,1800.78 150.937,47.2441 
  "/>
<polyline clip-path="url(#clip340)" style="stroke:#000000; stroke-linecap:butt; stroke-linejoin:round; stroke-width:4; stroke-opacity:1; fill:none" points="
  150.937,1710.27 169.834,1710.27 
  "/>
<polyline clip-path="url(#clip340)" style="stroke:#000000; stroke-linecap:butt; stroke-linejoin:round; stroke-width:4; stroke-opacity:1; fill:none" points="
  150.937,1448.18 169.834,1448.18 
  "/>
<polyline clip-path="url(#clip340)" style="stroke:#000000; stroke-linecap:butt; stroke-linejoin:round; stroke-width:4; stroke-opacity:1; fill:none" points="
  150.937,1186.1 169.834,1186.1 
  "/>
<polyline clip-path="url(#clip340)" style="stroke:#000000; stroke-linecap:butt; stroke-linejoin:round; stroke-width:4; stroke-opacity:1; fill:none" points="
  150.937,924.012 169.834,924.012 
  "/>
<polyline clip-path="url(#clip340)" style="stroke:#000000; stroke-linecap:butt; stroke-linejoin:round; stroke-width:4; stroke-opacity:1; fill:none" points="
  150.937,661.925 169.834,661.925 
  "/>
<polyline clip-path="url(#clip340)" style="stroke:#000000; stroke-linecap:butt; stroke-linejoin:round; stroke-width:4; stroke-opacity:1; fill:none" points="
  150.937,399.839 169.834,399.839 
  "/>
<polyline clip-path="url(#clip340)" style="stroke:#000000; stroke-linecap:butt; stroke-linejoin:round; stroke-width:4; stroke-opacity:1; fill:none" points="
  150.937,137.753 169.834,137.753 
  "/>
<path clip-path="url(#clip340)" d="M49.5521 1710.72 L79.2279 1710.72 L79.2279 1714.66 L49.5521 1714.66 L49.5521 1710.72 Z" fill="#000000" fill-rule="evenodd" fill-opacity="1" /><path clip-path="url(#clip340)" d="M103.487 1708.92 Q106.843 1709.63 108.718 1711.9 Q110.617 1714.17 110.617 1717.5 Q110.617 1722.62 107.098 1725.42 Q103.58 1728.22 97.0982 1728.22 Q94.9223 1728.22 92.6075 1727.78 Q90.3158 1727.37 87.8621 1726.51 L87.8621 1721.99 Q89.8065 1723.13 92.1213 1723.71 Q94.4361 1724.29 96.9593 1724.29 Q101.357 1724.29 103.649 1722.55 Q105.964 1720.81 105.964 1717.5 Q105.964 1714.45 103.811 1712.74 Q101.681 1711 97.8621 1711 L93.8343 1711 L93.8343 1707.16 L98.0472 1707.16 Q101.496 1707.16 103.325 1705.79 Q105.154 1704.4 105.154 1701.81 Q105.154 1699.15 103.256 1697.74 Q101.381 1696.3 97.8621 1696.3 Q95.9408 1696.3 93.7417 1696.72 Q91.5426 1697.13 88.9038 1698.01 L88.9038 1693.85 Q91.5658 1693.11 93.8806 1692.74 Q96.2185 1692.37 98.2787 1692.37 Q103.603 1692.37 106.705 1694.8 Q109.806 1697.2 109.806 1701.32 Q109.806 1704.19 108.163 1706.18 Q106.519 1708.15 103.487 1708.92 Z" fill="#000000" fill-rule="evenodd" fill-opacity="1" /><path clip-path="url(#clip340)" d="M50.5012 1448.64 L80.177 1448.64 L80.177 1452.57 L50.5012 1452.57 L50.5012 1448.64 Z" fill="#000000" fill-rule="evenodd" fill-opacity="1" /><path clip-path="url(#clip340)" d="M94.2973 1461.53 L110.617 1461.53 L110.617 1465.46 L88.6723 1465.46 L88.6723 1461.53 Q91.3343 1458.77 95.9176 1454.14 Q100.524 1449.49 101.705 1448.15 Q103.95 1445.63 104.83 1443.89 Q105.732 1442.13 105.732 1440.44 Q105.732 1437.69 103.788 1435.95 Q101.867 1434.21 98.7648 1434.21 Q96.5658 1434.21 94.1121 1434.98 Q91.6815 1435.74 88.9038 1437.29 L88.9038 1432.57 Q91.7278 1431.44 94.1815 1430.86 Q96.6352 1430.28 98.6722 1430.28 Q104.043 1430.28 107.237 1432.96 Q110.431 1435.65 110.431 1440.14 Q110.431 1442.27 109.621 1444.19 Q108.834 1446.09 106.728 1448.68 Q106.149 1449.35 103.047 1452.57 Q99.9454 1455.77 94.2973 1461.53 Z" fill="#000000" fill-rule="evenodd" fill-opacity="1" /><path clip-path="url(#clip340)" d="M50.1308 1186.55 L79.8066 1186.55 L79.8066 1190.48 L50.1308 1190.48 L50.1308 1186.55 Z" fill="#000000" fill-rule="evenodd" fill-opacity="1" /><path clip-path="url(#clip340)" d="M90.7093 1199.44 L98.3482 1199.44 L98.3482 1173.08 L90.038 1174.74 L90.038 1170.48 L98.3019 1168.82 L102.978 1168.82 L102.978 1199.44 L110.617 1199.44 L110.617 1203.38 L90.7093 1203.38 L90.7093 1199.44 Z" fill="#000000" fill-rule="evenodd" fill-opacity="1" /><path clip-path="url(#clip340)" d="M98.6722 909.81 Q95.0611 909.81 93.2324 913.375 Q91.4269 916.917 91.4269 924.046 Q91.4269 931.153 93.2324 934.718 Q95.0611 938.259 98.6722 938.259 Q102.306 938.259 104.112 934.718 Q105.941 931.153 105.941 924.046 Q105.941 916.917 104.112 913.375 Q102.306 909.81 98.6722 909.81 M98.6722 906.107 Q104.482 906.107 107.538 910.713 Q110.617 915.296 110.617 924.046 Q110.617 932.773 107.538 937.38 Q104.482 941.963 98.6722 941.963 Q92.8621 941.963 89.7834 937.38 Q86.7279 932.773 86.7279 924.046 Q86.7279 915.296 89.7834 910.713 Q92.8621 906.107 98.6722 906.107 Z" fill="#000000" fill-rule="evenodd" fill-opacity="1" /><path clip-path="url(#clip340)" d="M90.7093 675.27 L98.3482 675.27 L98.3482 648.905 L90.038 650.571 L90.038 646.312 L98.3019 644.645 L102.978 644.645 L102.978 675.27 L110.617 675.27 L110.617 679.205 L90.7093 679.205 L90.7093 675.27 Z" fill="#000000" fill-rule="evenodd" fill-opacity="1" /><path clip-path="url(#clip340)" d="M94.2973 413.184 L110.617 413.184 L110.617 417.119 L88.6723 417.119 L88.6723 413.184 Q91.3343 410.429 95.9176 405.8 Q100.524 401.147 101.705 399.804 Q103.95 397.281 104.83 395.545 Q105.732 393.786 105.732 392.096 Q105.732 389.342 103.788 387.605 Q101.867 385.869 98.7648 385.869 Q96.5658 385.869 94.1121 386.633 Q91.6815 387.397 88.9038 388.948 L88.9038 384.226 Q91.7278 383.092 94.1815 382.513 Q96.6352 381.934 98.6722 381.934 Q104.043 381.934 107.237 384.619 Q110.431 387.305 110.431 391.795 Q110.431 393.925 109.621 395.846 Q108.834 397.744 106.728 400.337 Q106.149 401.008 103.047 404.226 Q99.9454 407.42 94.2973 413.184 Z" fill="#000000" fill-rule="evenodd" fill-opacity="1" /><path clip-path="url(#clip340)" d="M103.487 136.399 Q106.843 137.116 108.718 139.385 Q110.617 141.653 110.617 144.987 Q110.617 150.102 107.098 152.903 Q103.58 155.704 97.0982 155.704 Q94.9223 155.704 92.6075 155.264 Q90.3158 154.848 87.8621 153.991 L87.8621 149.477 Q89.8065 150.612 92.1213 151.19 Q94.4361 151.769 96.9593 151.769 Q101.357 151.769 103.649 150.033 Q105.964 148.297 105.964 144.987 Q105.964 141.931 103.811 140.218 Q101.681 138.482 97.8621 138.482 L93.8343 138.482 L93.8343 134.64 L98.0472 134.64 Q101.496 134.64 103.325 133.274 Q105.154 131.885 105.154 129.292 Q105.154 126.63 103.256 125.218 Q101.381 123.783 97.8621 123.783 Q95.9408 123.783 93.7417 124.2 Q91.5426 124.616 88.9038 125.496 L88.9038 121.329 Q91.5658 120.589 93.8806 120.218 Q96.2185 119.848 98.2787 119.848 Q103.603 119.848 106.705 122.279 Q109.806 124.686 109.806 128.806 Q109.806 131.677 108.163 133.667 Q106.519 135.635 103.487 136.399 Z" fill="#000000" fill-rule="evenodd" fill-opacity="1" /><polyline clip-path="url(#clip342)" style="stroke:#009af9; stroke-linecap:butt; stroke-linejoin:round; stroke-width:4; stroke-opacity:1; fill:none" points="
  1854.5,399.839 1887.74,400.895 1920.85,404.056 1953.7,409.312 1986.14,416.64 2018.06,426.011 2049.31,437.387 2079.78,450.722 2109.35,465.964 2137.89,483.05 
  2165.28,501.911 2191.43,522.472 2216.22,544.65 2239.55,568.356 2261.33,593.493 2281.48,619.962 2299.9,647.655 2316.53,676.46 2331.3,706.263 2344.15,736.942 
  2355.03,768.374 2363.89,800.433 2370.71,832.99 2375.44,865.913 2378.08,899.071 2378.6,932.328 2377.02,965.552 2373.33,998.609 2367.56,1031.37 2359.72,1063.69 
  2349.84,1095.45 2337.97,1126.52 2324.15,1156.78 2308.44,1186.1 2290.91,1214.36 2271.61,1241.46 2250.64,1267.27 2228.07,1291.71 2204,1314.66 2178.52,1336.04 
  2151.73,1355.76 2123.75,1373.74 2094.69,1389.91 2064.65,1404.21 2033.77,1416.57 2002.17,1426.95 1969.98,1435.31 1937.32,1441.6 1904.32,1445.81 1871.13,1447.92 
  1837.87,1447.92 1804.67,1445.81 1771.68,1441.6 1739.02,1435.31 1706.82,1426.95 1675.22,1416.57 1644.34,1404.21 1614.31,1389.91 1585.24,1373.74 1557.26,1355.76 
  1530.48,1336.04 1505,1314.66 1480.92,1291.71 1458.35,1267.27 1437.38,1241.46 1418.09,1214.36 1400.55,1186.1 1384.84,1156.78 1371.02,1126.52 1359.15,1095.45 
  1349.28,1063.69 1341.44,1031.37 1335.66,998.609 1331.97,965.552 1330.39,932.328 1330.92,899.071 1333.55,865.913 1338.29,832.99 1345.1,800.433 1353.96,768.374 
  1364.84,736.942 1377.69,706.263 1392.46,676.46 1409.09,647.655 1427.52,619.962 1447.66,593.493 1469.44,568.356 1492.78,544.65 1517.57,522.472 1543.71,501.911 
  1571.11,483.05 1599.65,465.964 1629.21,450.722 1659.68,437.387 1690.94,426.011 1722.85,416.64 1755.3,409.312 1788.14,404.056 1821.25,400.895 1854.5,399.839 
  
  "/>
<polyline clip-path="url(#clip342)" style="stroke:#ff0000; stroke-linecap:butt; stroke-linejoin:round; stroke-width:20; stroke-opacity:1; fill:none" points="
  281.98,1710.27 281.98,137.753 
  "/>
<polyline clip-path="url(#clip342)" style="stroke:#008000; stroke-linecap:butt; stroke-linejoin:round; stroke-width:20; stroke-opacity:1; fill:none" points="
  1068.24,924.012 2640.76,924.012 
  "/>
</svg>
