<?xml version="1.0" encoding="utf-8"?>
<svg xmlns="http://www.w3.org/2000/svg" xmlns:xlink="http://www.w3.org/1999/xlink" width="672" height="480" viewBox="0 0 2688 1920">
<defs>
  <clipPath id="clip690">
    <rect x="0" y="0" width="2688" height="1920"/>
  </clipPath>
</defs>
<path clip-path="url(#clip690)" d="
M0 1920 L2688 1920 L2688 0 L0 0  Z
  " fill="#ffffff" fill-rule="evenodd" fill-opacity="1"/>
<defs>
  <clipPath id="clip691">
    <rect x="537" y="0" width="1883" height="1883"/>
  </clipPath>
</defs>
<path clip-path="url(#clip690)" d="
M196.168 1800.78 L2640.76 1800.78 L2640.76 47.2441 L196.168 47.2441  Z
  " fill="#ffffff" fill-rule="evenodd" fill-opacity="1"/>
<defs>
  <clipPath id="clip692">
    <rect x="196" y="47" width="2446" height="1755"/>
  </clipPath>
</defs>
<polyline clip-path="url(#clip692)" style="stroke:#000000; stroke-linecap:butt; stroke-linejoin:round; stroke-width:2; stroke-opacity:0.1; fill:none" points="
  265.354,1800.78 265.354,47.2441 
  "/>
<polyline clip-path="url(#clip692)" style="stroke:#000000; stroke-linecap:butt; stroke-linejoin:round; stroke-width:2; stroke-opacity:0.1; fill:none" points="
  726.597,1800.78 726.597,47.2441 
  "/>
<polyline clip-path="url(#clip692)" style="stroke:#000000; stroke-linecap:butt; stroke-linejoin:round; stroke-width:2; stroke-opacity:0.1; fill:none" points="
  1187.84,1800.78 1187.84,47.2441 
  "/>
<polyline clip-path="url(#clip692)" style="stroke:#000000; stroke-linecap:butt; stroke-linejoin:round; stroke-width:2; stroke-opacity:0.1; fill:none" points="
  1649.08,1800.78 1649.08,47.2441 
  "/>
<polyline clip-path="url(#clip692)" style="stroke:#000000; stroke-linecap:butt; stroke-linejoin:round; stroke-width:2; stroke-opacity:0.1; fill:none" points="
  2110.33,1800.78 2110.33,47.2441 
  "/>
<polyline clip-path="url(#clip692)" style="stroke:#000000; stroke-linecap:butt; stroke-linejoin:round; stroke-width:2; stroke-opacity:0.1; fill:none" points="
  2571.57,1800.78 2571.57,47.2441 
  "/>
<polyline clip-path="url(#clip690)" style="stroke:#000000; stroke-linecap:butt; stroke-linejoin:round; stroke-width:4; stroke-opacity:1; fill:none" points="
  196.168,1800.78 2640.76,1800.78 
  "/>
<polyline clip-path="url(#clip690)" style="stroke:#000000; stroke-linecap:butt; stroke-linejoin:round; stroke-width:4; stroke-opacity:1; fill:none" points="
  265.354,1800.78 265.354,1781.88 
  "/>
<polyline clip-path="url(#clip690)" style="stroke:#000000; stroke-linecap:butt; stroke-linejoin:round; stroke-width:4; stroke-opacity:1; fill:none" points="
  726.597,1800.78 726.597,1781.88 
  "/>
<polyline clip-path="url(#clip690)" style="stroke:#000000; stroke-linecap:butt; stroke-linejoin:round; stroke-width:4; stroke-opacity:1; fill:none" points="
  1187.84,1800.78 1187.84,1781.88 
  "/>
<polyline clip-path="url(#clip690)" style="stroke:#000000; stroke-linecap:butt; stroke-linejoin:round; stroke-width:4; stroke-opacity:1; fill:none" points="
  1649.08,1800.78 1649.08,1781.88 
  "/>
<polyline clip-path="url(#clip690)" style="stroke:#000000; stroke-linecap:butt; stroke-linejoin:round; stroke-width:4; stroke-opacity:1; fill:none" points="
  2110.33,1800.78 2110.33,1781.88 
  "/>
<polyline clip-path="url(#clip690)" style="stroke:#000000; stroke-linecap:butt; stroke-linejoin:round; stroke-width:4; stroke-opacity:1; fill:none" points="
  2571.57,1800.78 2571.57,1781.88 
  "/>
<path clip-path="url(#clip690)" d="M265.354 1834 Q261.743 1834 259.915 1837.57 Q258.109 1841.11 258.109 1848.24 Q258.109 1855.34 259.915 1858.91 Q261.743 1862.45 265.354 1862.45 Q268.989 1862.45 270.794 1858.91 Q272.623 1855.34 272.623 1848.24 Q272.623 1841.11 270.794 1837.57 Q268.989 1834 265.354 1834 M265.354 1830.3 Q271.164 1830.3 274.22 1834.9 Q277.299 1839.49 277.299 1848.24 Q277.299 1856.96 274.22 1861.57 Q271.164 1866.15 265.354 1866.15 Q259.544 1866.15 256.465 1861.57 Q253.41 1856.96 253.41 1848.24 Q253.41 1839.49 256.465 1834.9 Q259.544 1830.3 265.354 1830.3 Z" fill="#000000" fill-rule="evenodd" fill-opacity="1" /><path clip-path="url(#clip690)" d="M716.979 1861.55 L724.618 1861.55 L724.618 1835.18 L716.308 1836.85 L716.308 1832.59 L724.572 1830.92 L729.248 1830.92 L729.248 1861.55 L736.887 1861.55 L736.887 1865.48 L716.979 1865.48 L716.979 1861.55 Z" fill="#000000" fill-rule="evenodd" fill-opacity="1" /><path clip-path="url(#clip690)" d="M1182.49 1861.55 L1198.81 1861.55 L1198.81 1865.48 L1176.87 1865.48 L1176.87 1861.55 Q1179.53 1858.79 1184.11 1854.16 Q1188.72 1849.51 1189.9 1848.17 Q1192.15 1845.65 1193.03 1843.91 Q1193.93 1842.15 1193.93 1840.46 Q1193.93 1837.71 1191.98 1835.97 Q1190.06 1834.23 1186.96 1834.23 Q1184.76 1834.23 1182.31 1835 Q1179.88 1835.76 1177.1 1837.31 L1177.1 1832.59 Q1179.92 1831.46 1182.38 1830.88 Q1184.83 1830.3 1186.87 1830.3 Q1192.24 1830.3 1195.43 1832.98 Q1198.63 1835.67 1198.63 1840.16 Q1198.63 1842.29 1197.82 1844.21 Q1197.03 1846.11 1194.92 1848.7 Q1194.34 1849.37 1191.24 1852.59 Q1188.14 1855.78 1182.49 1861.55 Z" fill="#000000" fill-rule="evenodd" fill-opacity="1" /><path clip-path="url(#clip690)" d="M1653.33 1846.85 Q1656.69 1847.57 1658.56 1849.84 Q1660.46 1852.1 1660.46 1855.44 Q1660.46 1860.55 1656.94 1863.35 Q1653.42 1866.15 1646.94 1866.15 Q1644.77 1866.15 1642.45 1865.71 Q1640.16 1865.3 1637.71 1864.44 L1637.71 1859.93 Q1639.65 1861.06 1641.97 1861.64 Q1644.28 1862.22 1646.8 1862.22 Q1651.2 1862.22 1653.49 1860.48 Q1655.81 1858.75 1655.81 1855.44 Q1655.81 1852.38 1653.66 1850.67 Q1651.53 1848.93 1647.71 1848.93 L1643.68 1848.93 L1643.68 1845.09 L1647.89 1845.09 Q1651.34 1845.09 1653.17 1843.72 Q1655 1842.34 1655 1839.74 Q1655 1837.08 1653.1 1835.67 Q1651.22 1834.23 1647.71 1834.23 Q1645.78 1834.23 1643.59 1834.65 Q1641.39 1835.07 1638.75 1835.95 L1638.75 1831.78 Q1641.41 1831.04 1643.72 1830.67 Q1646.06 1830.3 1648.12 1830.3 Q1653.45 1830.3 1656.55 1832.73 Q1659.65 1835.14 1659.65 1839.26 Q1659.65 1842.13 1658.01 1844.12 Q1656.36 1846.09 1653.33 1846.85 Z" fill="#000000" fill-rule="evenodd" fill-opacity="1" /><path clip-path="url(#clip690)" d="M2113.34 1835 L2101.53 1853.45 L2113.34 1853.45 L2113.34 1835 M2112.11 1830.92 L2117.99 1830.92 L2117.99 1853.45 L2122.92 1853.45 L2122.92 1857.34 L2117.99 1857.34 L2117.99 1865.48 L2113.34 1865.48 L2113.34 1857.34 L2097.73 1857.34 L2097.73 1852.82 L2112.11 1830.92 Z" fill="#000000" fill-rule="evenodd" fill-opacity="1" /><path clip-path="url(#clip690)" d="M2561.85 1830.92 L2580.2 1830.92 L2580.2 1834.86 L2566.13 1834.86 L2566.13 1843.33 Q2567.15 1842.98 2568.17 1842.82 Q2569.19 1842.64 2570.2 1842.64 Q2575.99 1842.64 2579.37 1845.81 Q2582.75 1848.98 2582.75 1854.4 Q2582.75 1859.97 2579.28 1863.08 Q2575.81 1866.15 2569.49 1866.15 Q2567.31 1866.15 2565.04 1865.78 Q2562.8 1865.41 2560.39 1864.67 L2560.39 1859.97 Q2562.47 1861.11 2564.69 1861.66 Q2566.92 1862.22 2569.39 1862.22 Q2573.4 1862.22 2575.74 1860.11 Q2578.07 1858.01 2578.07 1854.4 Q2578.07 1850.78 2575.74 1848.68 Q2573.4 1846.57 2569.39 1846.57 Q2567.52 1846.57 2565.64 1846.99 Q2563.79 1847.4 2561.85 1848.28 L2561.85 1830.92 Z" fill="#000000" fill-rule="evenodd" fill-opacity="1" /><polyline clip-path="url(#clip692)" style="stroke:#000000; stroke-linecap:butt; stroke-linejoin:round; stroke-width:2; stroke-opacity:0.1; fill:none" points="
  196.168,1583.86 2640.76,1583.86 
  "/>
<polyline clip-path="url(#clip692)" style="stroke:#000000; stroke-linecap:butt; stroke-linejoin:round; stroke-width:2; stroke-opacity:0.1; fill:none" points="
  196.168,1240.71 2640.76,1240.71 
  "/>
<polyline clip-path="url(#clip692)" style="stroke:#000000; stroke-linecap:butt; stroke-linejoin:round; stroke-width:2; stroke-opacity:0.1; fill:none" points="
  196.168,897.559 2640.76,897.559 
  "/>
<polyline clip-path="url(#clip692)" style="stroke:#000000; stroke-linecap:butt; stroke-linejoin:round; stroke-width:2; stroke-opacity:0.1; fill:none" points="
  196.168,554.408 2640.76,554.408 
  "/>
<polyline clip-path="url(#clip692)" style="stroke:#000000; stroke-linecap:butt; stroke-linejoin:round; stroke-width:2; stroke-opacity:0.1; fill:none" points="
  196.168,211.256 2640.76,211.256 
  "/>
<polyline clip-path="url(#clip690)" style="stroke:#000000; stroke-linecap:butt; stroke-linejoin:round; stroke-width:4; stroke-opacity:1; fill:none" points="
  196.168,1800.78 196.168,47.2441 
  "/>
<polyline clip-path="url(#clip690)" style="stroke:#000000; stroke-linecap:butt; stroke-linejoin:round; stroke-width:4; stroke-opacity:1; fill:none" points="
  196.168,1583.86 215.065,1583.86 
  "/>
<polyline clip-path="url(#clip690)" style="stroke:#000000; stroke-linecap:butt; stroke-linejoin:round; stroke-width:4; stroke-opacity:1; fill:none" points="
  196.168,1240.71 215.065,1240.71 
  "/>
<polyline clip-path="url(#clip690)" style="stroke:#000000; stroke-linecap:butt; stroke-linejoin:round; stroke-width:4; stroke-opacity:1; fill:none" points="
  196.168,897.559 215.065,897.559 
  "/>
<polyline clip-path="url(#clip690)" style="stroke:#000000; stroke-linecap:butt; stroke-linejoin:round; stroke-width:4; stroke-opacity:1; fill:none" points="
  196.168,554.408 215.065,554.408 
  "/>
<polyline clip-path="url(#clip690)" style="stroke:#000000; stroke-linecap:butt; stroke-linejoin:round; stroke-width:4; stroke-opacity:1; fill:none" points="
  196.168,211.256 215.065,211.256 
  "/>
<path clip-path="url(#clip690)" d="M49.5521 1584.31 L79.2279 1584.31 L79.2279 1588.25 L49.5521 1588.25 L49.5521 1584.31 Z" fill="#000000" fill-rule="evenodd" fill-opacity="1" /><path clip-path="url(#clip690)" d="M99.3204 1569.66 Q95.7093 1569.66 93.8806 1573.23 Q92.075 1576.77 92.075 1583.9 Q92.075 1591 93.8806 1594.57 Q95.7093 1598.11 99.3204 1598.11 Q102.955 1598.11 104.76 1594.57 Q106.589 1591 106.589 1583.9 Q106.589 1576.77 104.76 1573.23 Q102.955 1569.66 99.3204 1569.66 M99.3204 1565.96 Q105.131 1565.96 108.186 1570.56 Q111.265 1575.15 111.265 1583.9 Q111.265 1592.62 108.186 1597.23 Q105.131 1601.81 99.3204 1601.81 Q93.5102 1601.81 90.4315 1597.23 Q87.376 1592.62 87.376 1583.9 Q87.376 1575.15 90.4315 1570.56 Q93.5102 1565.96 99.3204 1565.96 Z" fill="#000000" fill-rule="evenodd" fill-opacity="1" /><path clip-path="url(#clip690)" d="M119.482 1595.26 L124.367 1595.26 L124.367 1601.14 L119.482 1601.14 L119.482 1595.26 Z" fill="#000000" fill-rule="evenodd" fill-opacity="1" /><path clip-path="url(#clip690)" d="M148.718 1582.51 Q152.075 1583.23 153.95 1585.49 Q155.848 1587.76 155.848 1591.1 Q155.848 1596.21 152.329 1599.01 Q148.811 1601.81 142.329 1601.81 Q140.153 1601.81 137.839 1601.37 Q135.547 1600.96 133.093 1600.1 L133.093 1595.59 Q135.038 1596.72 137.353 1597.3 Q139.667 1597.88 142.191 1597.88 Q146.589 1597.88 148.88 1596.14 Q151.195 1594.41 151.195 1591.1 Q151.195 1588.04 149.042 1586.33 Q146.913 1584.59 143.093 1584.59 L139.066 1584.59 L139.066 1580.75 L143.278 1580.75 Q146.728 1580.75 148.556 1579.38 Q150.385 1577.99 150.385 1575.4 Q150.385 1572.74 148.487 1571.33 Q146.612 1569.89 143.093 1569.89 Q141.172 1569.89 138.973 1570.31 Q136.774 1570.73 134.135 1571.61 L134.135 1567.44 Q136.797 1566.7 139.112 1566.33 Q141.45 1565.96 143.51 1565.96 Q148.834 1565.96 151.936 1568.39 Q155.038 1570.8 155.038 1574.92 Q155.038 1577.79 153.394 1579.78 Q151.751 1581.74 148.718 1582.51 Z" fill="#000000" fill-rule="evenodd" fill-opacity="1" /><path clip-path="url(#clip690)" d="M98.6722 1226.51 Q95.0611 1226.51 93.2324 1230.07 Q91.4269 1233.62 91.4269 1240.75 Q91.4269 1247.85 93.2324 1251.42 Q95.0611 1254.96 98.6722 1254.96 Q102.306 1254.96 104.112 1251.42 Q105.941 1247.85 105.941 1240.75 Q105.941 1233.62 104.112 1230.07 Q102.306 1226.51 98.6722 1226.51 M98.6722 1222.81 Q104.482 1222.81 107.538 1227.41 Q110.617 1232 110.617 1240.75 Q110.617 1249.47 107.538 1254.08 Q104.482 1258.66 98.6722 1258.66 Q92.8621 1258.66 89.7834 1254.08 Q86.7279 1249.47 86.7279 1240.75 Q86.7279 1232 89.7834 1227.41 Q92.8621 1222.81 98.6722 1222.81 Z" fill="#000000" fill-rule="evenodd" fill-opacity="1" /><path clip-path="url(#clip690)" d="M118.834 1252.11 L123.718 1252.11 L123.718 1257.99 L118.834 1257.99 L118.834 1252.11 Z" fill="#000000" fill-rule="evenodd" fill-opacity="1" /><path clip-path="url(#clip690)" d="M143.903 1226.51 Q140.292 1226.51 138.464 1230.07 Q136.658 1233.62 136.658 1240.75 Q136.658 1247.85 138.464 1251.42 Q140.292 1254.96 143.903 1254.96 Q147.538 1254.96 149.343 1251.42 Q151.172 1247.85 151.172 1240.75 Q151.172 1233.62 149.343 1230.07 Q147.538 1226.51 143.903 1226.51 M143.903 1222.81 Q149.714 1222.81 152.769 1227.41 Q155.848 1232 155.848 1240.75 Q155.848 1249.47 152.769 1254.08 Q149.714 1258.66 143.903 1258.66 Q138.093 1258.66 135.015 1254.08 Q131.959 1249.47 131.959 1240.75 Q131.959 1232 135.015 1227.41 Q138.093 1222.81 143.903 1222.81 Z" fill="#000000" fill-rule="evenodd" fill-opacity="1" /><path clip-path="url(#clip690)" d="M99.3204 883.358 Q95.7093 883.358 93.8806 886.923 Q92.075 890.465 92.075 897.594 Q92.075 904.701 93.8806 908.265 Q95.7093 911.807 99.3204 911.807 Q102.955 911.807 104.76 908.265 Q106.589 904.701 106.589 897.594 Q106.589 890.465 104.76 886.923 Q102.955 883.358 99.3204 883.358 M99.3204 879.654 Q105.131 879.654 108.186 884.261 Q111.265 888.844 111.265 897.594 Q111.265 906.321 108.186 910.927 Q105.131 915.511 99.3204 915.511 Q93.5102 915.511 90.4315 910.927 Q87.376 906.321 87.376 897.594 Q87.376 888.844 90.4315 884.261 Q93.5102 879.654 99.3204 879.654 Z" fill="#000000" fill-rule="evenodd" fill-opacity="1" /><path clip-path="url(#clip690)" d="M119.482 908.96 L124.367 908.96 L124.367 914.839 L119.482 914.839 L119.482 908.96 Z" fill="#000000" fill-rule="evenodd" fill-opacity="1" /><path clip-path="url(#clip690)" d="M148.718 896.205 Q152.075 896.923 153.95 899.191 Q155.848 901.46 155.848 904.793 Q155.848 909.909 152.329 912.71 Q148.811 915.511 142.329 915.511 Q140.153 915.511 137.839 915.071 Q135.547 914.654 133.093 913.798 L133.093 909.284 Q135.038 910.418 137.353 910.997 Q139.667 911.576 142.191 911.576 Q146.589 911.576 148.88 909.839 Q151.195 908.103 151.195 904.793 Q151.195 901.738 149.042 900.025 Q146.913 898.289 143.093 898.289 L139.066 898.289 L139.066 894.446 L143.278 894.446 Q146.728 894.446 148.556 893.08 Q150.385 891.691 150.385 889.099 Q150.385 886.437 148.487 885.025 Q146.612 883.59 143.093 883.59 Q141.172 883.59 138.973 884.006 Q136.774 884.423 134.135 885.303 L134.135 881.136 Q136.797 880.395 139.112 880.025 Q141.45 879.654 143.51 879.654 Q148.834 879.654 151.936 882.085 Q155.038 884.492 155.038 888.613 Q155.038 891.483 153.394 893.474 Q151.751 895.441 148.718 896.205 Z" fill="#000000" fill-rule="evenodd" fill-opacity="1" /><path clip-path="url(#clip690)" d="M98.5102 540.207 Q94.8991 540.207 93.0704 543.771 Q91.2649 547.313 91.2649 554.443 Q91.2649 561.549 93.0704 565.114 Q94.8991 568.655 98.5102 568.655 Q102.144 568.655 103.95 565.114 Q105.779 561.549 105.779 554.443 Q105.779 547.313 103.95 543.771 Q102.144 540.207 98.5102 540.207 M98.5102 536.503 Q104.32 536.503 107.376 541.109 Q110.455 545.693 110.455 554.443 Q110.455 563.169 107.376 567.776 Q104.32 572.359 98.5102 572.359 Q92.7 572.359 89.6214 567.776 Q86.5658 563.169 86.5658 554.443 Q86.5658 545.693 89.6214 541.109 Q92.7 536.503 98.5102 536.503 Z" fill="#000000" fill-rule="evenodd" fill-opacity="1" /><path clip-path="url(#clip690)" d="M118.672 565.808 L123.556 565.808 L123.556 571.688 L118.672 571.688 L118.672 565.808 Z" fill="#000000" fill-rule="evenodd" fill-opacity="1" /><path clip-path="url(#clip690)" d="M144.32 552.544 Q141.172 552.544 139.32 554.697 Q137.491 556.85 137.491 560.6 Q137.491 564.327 139.32 566.503 Q141.172 568.655 144.32 568.655 Q147.468 568.655 149.297 566.503 Q151.149 564.327 151.149 560.6 Q151.149 556.85 149.297 554.697 Q147.468 552.544 144.32 552.544 M153.602 537.892 L153.602 542.151 Q151.843 541.318 150.038 540.878 Q148.255 540.438 146.496 540.438 Q141.866 540.438 139.413 543.563 Q136.982 546.688 136.635 553.007 Q138.001 550.994 140.061 549.929 Q142.121 548.841 144.598 548.841 Q149.806 548.841 152.815 552.012 Q155.848 555.16 155.848 560.6 Q155.848 565.924 152.7 569.142 Q149.552 572.359 144.32 572.359 Q138.325 572.359 135.154 567.776 Q131.982 563.169 131.982 554.443 Q131.982 546.248 135.871 541.387 Q139.76 536.503 146.311 536.503 Q148.07 536.503 149.853 536.85 Q151.658 537.197 153.602 537.892 Z" fill="#000000" fill-rule="evenodd" fill-opacity="1" /><path clip-path="url(#clip690)" d="M98.8574 197.055 Q95.2463 197.055 93.4176 200.62 Q91.6121 204.161 91.6121 211.291 Q91.6121 218.397 93.4176 221.962 Q95.2463 225.504 98.8574 225.504 Q102.492 225.504 104.297 221.962 Q106.126 218.397 106.126 211.291 Q106.126 204.161 104.297 200.62 Q102.492 197.055 98.8574 197.055 M98.8574 193.351 Q104.668 193.351 107.723 197.958 Q110.802 202.541 110.802 211.291 Q110.802 220.018 107.723 224.624 Q104.668 229.208 98.8574 229.208 Q93.0473 229.208 89.9686 224.624 Q86.913 220.018 86.913 211.291 Q86.913 202.541 89.9686 197.958 Q93.0473 193.351 98.8574 193.351 Z" fill="#000000" fill-rule="evenodd" fill-opacity="1" /><path clip-path="url(#clip690)" d="M119.019 222.657 L123.904 222.657 L123.904 228.536 L119.019 228.536 L119.019 222.657 Z" fill="#000000" fill-rule="evenodd" fill-opacity="1" /><path clip-path="url(#clip690)" d="M134.228 227.819 L134.228 223.559 Q135.987 224.393 137.792 224.833 Q139.598 225.272 141.334 225.272 Q145.964 225.272 148.394 222.171 Q150.848 219.046 151.195 212.703 Q149.853 214.694 147.792 215.759 Q145.732 216.823 143.232 216.823 Q138.047 216.823 135.015 213.698 Q132.005 210.55 132.005 205.111 Q132.005 199.786 135.154 196.569 Q138.302 193.351 143.533 193.351 Q149.528 193.351 152.677 197.958 Q155.848 202.541 155.848 211.291 Q155.848 219.462 151.959 224.347 Q148.093 229.208 141.542 229.208 Q139.783 229.208 137.978 228.86 Q136.172 228.513 134.228 227.819 M143.533 213.166 Q146.681 213.166 148.51 211.013 Q150.362 208.86 150.362 205.111 Q150.362 201.384 148.51 199.231 Q146.681 197.055 143.533 197.055 Q140.385 197.055 138.533 199.231 Q136.704 201.384 136.704 205.111 Q136.704 208.86 138.533 211.013 Q140.385 213.166 143.533 213.166 Z" fill="#000000" fill-rule="evenodd" fill-opacity="1" /><polyline clip-path="url(#clip692)" style="stroke:#009af9; stroke-linecap:butt; stroke-linejoin:round; stroke-width:4; stroke-opacity:1; fill:none" points="
  265.354,96.8724 269.108,97.0997 272.862,97.7813 276.615,98.9169 280.369,100.506 289.046,105.906 297.723,113.703 306.4,123.869 315.077,136.367 323.754,151.154 
  332.431,168.179 341.108,187.381 349.785,208.694 358.462,232.044 367.14,257.35 375.817,284.526 384.494,313.479 393.171,344.11 401.848,376.318 410.525,409.993 
  419.202,445.025 429.631,488.764 440.06,534.09 450.489,580.796 460.918,628.666 481.776,727.04 502.634,827.488 520.27,912.779 537.905,997.354 555.54,1080.28 
  573.176,1160.68 582.754,1203.01 592.333,1244.24 601.911,1284.26 611.49,1322.98 621.068,1360.31 630.646,1396.15 640.225,1430.44 649.803,1463.1 658.634,1491.73 
  667.464,1518.9 676.295,1544.58 685.125,1568.73 693.956,1591.35 702.786,1612.43 711.617,1631.94 720.447,1649.91 729.914,1667.45 739.382,1683.22 748.849,1697.25 
  758.316,1709.56 767.783,1720.18 777.251,1729.15 786.718,1736.51 796.185,1742.32 807.154,1747.16 818.122,1750.08 829.091,1751.15 840.06,1750.48 851.028,1748.17 
  861.997,1744.33 872.966,1739.06 883.935,1732.47 903.43,1717.84 922.925,1700.01 942.421,1679.57 961.916,1657.1 996.107,1614.39 1030.3,1569.69 1067.58,1521.19 
  1104.85,1475.04 1123.6,1453.21 1142.35,1432.49 1161.1,1412.98 1179.85,1394.74 1200.58,1376.09 1221.31,1359.05 1242.04,1343.6 1262.77,1329.7 1282.5,1317.84 
  1302.22,1307.25 1321.95,1297.84 1341.67,1289.55 1382.69,1275.44 1423.7,1264.94 1458.23,1258.34 1492.76,1253.37 1577.07,1246.05 1654.3,1242.97 1725.63,1241.68 
  1797.89,1241.1 1878.86,1240.84 1952.24,1240.76 2036.26,1240.72 2114.05,1240.71 2190.74,1240.71 2265.2,1240.71 2341.53,1240.71 2425.16,1240.71 2546.65,1240.71 
  2571.57,1240.71 
  "/>
<path clip-path="url(#clip690)" d="
M2235.22 209.375 L2559.27 209.375 L2559.27 105.695 L2235.22 105.695  Z
  " fill="#ffffff" fill-rule="evenodd" fill-opacity="1"/>
<polyline clip-path="url(#clip690)" style="stroke:#000000; stroke-linecap:butt; stroke-linejoin:round; stroke-width:4; stroke-opacity:1; fill:none" points="
  2235.22,209.375 2559.27,209.375 2559.27,105.695 2235.22,105.695 2235.22,209.375 
  "/>
<polyline clip-path="url(#clip690)" style="stroke:#009af9; stroke-linecap:butt; stroke-linejoin:round; stroke-width:4; stroke-opacity:1; fill:none" points="
  2262.38,157.535 2425.35,157.535 
  "/>
<path clip-path="url(#clip690)" d="M2466.36 177.223 Q2464.55 181.852 2462.84 183.264 Q2461.13 184.676 2458.26 184.676 L2454.85 184.676 L2454.85 181.112 L2457.35 181.112 Q2459.11 181.112 2460.08 180.278 Q2461.06 179.445 2462.24 176.343 L2463 174.399 L2452.52 148.889 L2457.03 148.889 L2465.13 169.167 L2473.23 148.889 L2477.75 148.889 L2466.36 177.223 Z" fill="#000000" fill-rule="evenodd" fill-opacity="1" /><path clip-path="url(#clip690)" d="M2485.04 170.88 L2492.68 170.88 L2492.68 144.515 L2484.37 146.181 L2484.37 141.922 L2492.63 140.255 L2497.31 140.255 L2497.31 170.88 L2504.95 170.88 L2504.95 174.815 L2485.04 174.815 L2485.04 170.88 Z" fill="#000000" fill-rule="evenodd" fill-opacity="1" /></svg>
