<?xml version="1.0" encoding="utf-8"?>
<svg xmlns="http://www.w3.org/2000/svg" xmlns:xlink="http://www.w3.org/1999/xlink" width="672" height="480" viewBox="0 0 2688 1920">
<defs>
  <clipPath id="clip850">
    <rect x="0" y="0" width="2688" height="1920"/>
  </clipPath>
</defs>
<path clip-path="url(#clip850)" d="
M0 1920 L2688 1920 L2688 0 L0 0  Z
  " fill="#ffffff" fill-rule="evenodd" fill-opacity="1"/>
<defs>
  <clipPath id="clip851">
    <rect x="537" y="0" width="1883" height="1883"/>
  </clipPath>
</defs>
<path clip-path="url(#clip850)" d="
M150.358 1800.78 L2640.76 1800.78 L2640.76 47.2441 L150.358 47.2441  Z
  " fill="#ffffff" fill-rule="evenodd" fill-opacity="1"/>
<defs>
  <clipPath id="clip852">
    <rect x="150" y="47" width="2491" height="1755"/>
  </clipPath>
</defs>
<polyline clip-path="url(#clip852)" style="stroke:#000000; stroke-linecap:round; stroke-linejoin:round; stroke-width:2; stroke-opacity:0.1; fill:none" points="
  340.633,1800.78 340.633,47.2441 
  "/>
<polyline clip-path="url(#clip852)" style="stroke:#000000; stroke-linecap:round; stroke-linejoin:round; stroke-width:2; stroke-opacity:0.1; fill:none" points="
  927.38,1800.78 927.38,47.2441 
  "/>
<polyline clip-path="url(#clip852)" style="stroke:#000000; stroke-linecap:round; stroke-linejoin:round; stroke-width:2; stroke-opacity:0.1; fill:none" points="
  1514.13,1800.78 1514.13,47.2441 
  "/>
<polyline clip-path="url(#clip852)" style="stroke:#000000; stroke-linecap:round; stroke-linejoin:round; stroke-width:2; stroke-opacity:0.1; fill:none" points="
  2100.88,1800.78 2100.88,47.2441 
  "/>
<polyline clip-path="url(#clip850)" style="stroke:#000000; stroke-linecap:round; stroke-linejoin:round; stroke-width:4; stroke-opacity:1; fill:none" points="
  150.358,1800.78 2640.76,1800.78 
  "/>
<polyline clip-path="url(#clip850)" style="stroke:#000000; stroke-linecap:round; stroke-linejoin:round; stroke-width:4; stroke-opacity:1; fill:none" points="
  340.633,1800.78 340.633,1781.88 
  "/>
<polyline clip-path="url(#clip850)" style="stroke:#000000; stroke-linecap:round; stroke-linejoin:round; stroke-width:4; stroke-opacity:1; fill:none" points="
  927.38,1800.78 927.38,1781.88 
  "/>
<polyline clip-path="url(#clip850)" style="stroke:#000000; stroke-linecap:round; stroke-linejoin:round; stroke-width:4; stroke-opacity:1; fill:none" points="
  1514.13,1800.78 1514.13,1781.88 
  "/>
<polyline clip-path="url(#clip850)" style="stroke:#000000; stroke-linecap:round; stroke-linejoin:round; stroke-width:4; stroke-opacity:1; fill:none" points="
  2100.88,1800.78 2100.88,1781.88 
  "/>
<path clip-path="url(#clip850)" d="M331.015 1861.55 L338.654 1861.55 L338.654 1835.18 L330.344 1836.85 L330.344 1832.59 L338.607 1830.92 L343.283 1830.92 L343.283 1861.55 L350.922 1861.55 L350.922 1865.48 L331.015 1865.48 L331.015 1861.55 Z" fill="#000000" fill-rule="evenodd" fill-opacity="1" /><path clip-path="url(#clip850)" d="M922.033 1861.55 L938.352 1861.55 L938.352 1865.48 L916.408 1865.48 L916.408 1861.55 Q919.07 1858.79 923.653 1854.16 Q928.26 1849.51 929.44 1848.17 Q931.686 1845.65 932.565 1843.91 Q933.468 1842.15 933.468 1840.46 Q933.468 1837.71 931.524 1835.97 Q929.602 1834.23 926.501 1834.23 Q924.302 1834.23 921.848 1835 Q919.417 1835.76 916.64 1837.31 L916.64 1832.59 Q919.464 1831.46 921.917 1830.88 Q924.371 1830.3 926.408 1830.3 Q931.778 1830.3 934.973 1832.98 Q938.167 1835.67 938.167 1840.16 Q938.167 1842.29 937.357 1844.21 Q936.57 1846.11 934.464 1848.7 Q933.885 1849.37 930.783 1852.59 Q927.681 1855.78 922.033 1861.55 Z" fill="#000000" fill-rule="evenodd" fill-opacity="1" /><path clip-path="url(#clip850)" d="M1518.38 1846.85 Q1521.73 1847.57 1523.61 1849.84 Q1525.5 1852.1 1525.5 1855.44 Q1525.5 1860.55 1521.99 1863.35 Q1518.47 1866.15 1511.99 1866.15 Q1509.81 1866.15 1507.5 1865.71 Q1505.2 1865.3 1502.75 1864.44 L1502.75 1859.93 Q1504.69 1861.06 1507.01 1861.64 Q1509.32 1862.22 1511.85 1862.22 Q1516.25 1862.22 1518.54 1860.48 Q1520.85 1858.75 1520.85 1855.44 Q1520.85 1852.38 1518.7 1850.67 Q1516.57 1848.93 1512.75 1848.93 L1508.72 1848.93 L1508.72 1845.09 L1512.94 1845.09 Q1516.38 1845.09 1518.21 1843.72 Q1520.04 1842.34 1520.04 1839.74 Q1520.04 1837.08 1518.14 1835.67 Q1516.27 1834.23 1512.75 1834.23 Q1510.83 1834.23 1508.63 1834.65 Q1506.43 1835.07 1503.79 1835.95 L1503.79 1831.78 Q1506.45 1831.04 1508.77 1830.67 Q1511.11 1830.3 1513.17 1830.3 Q1518.49 1830.3 1521.59 1832.73 Q1524.69 1835.14 1524.69 1839.26 Q1524.69 1842.13 1523.05 1844.12 Q1521.41 1846.09 1518.38 1846.85 Z" fill="#000000" fill-rule="evenodd" fill-opacity="1" /><path clip-path="url(#clip850)" d="M2103.88 1835 L2092.08 1853.45 L2103.88 1853.45 L2103.88 1835 M2102.66 1830.92 L2108.54 1830.92 L2108.54 1853.45 L2113.47 1853.45 L2113.47 1857.34 L2108.54 1857.34 L2108.54 1865.48 L2103.88 1865.48 L2103.88 1857.34 L2088.28 1857.34 L2088.28 1852.82 L2102.66 1830.92 Z" fill="#000000" fill-rule="evenodd" fill-opacity="1" /><polyline clip-path="url(#clip852)" style="stroke:#000000; stroke-linecap:round; stroke-linejoin:round; stroke-width:2; stroke-opacity:0.1; fill:none" points="
  150.358,1751.15 2640.76,1751.15 
  "/>
<polyline clip-path="url(#clip852)" style="stroke:#000000; stroke-linecap:round; stroke-linejoin:round; stroke-width:2; stroke-opacity:0.1; fill:none" points="
  150.358,1337.58 2640.76,1337.58 
  "/>
<polyline clip-path="url(#clip852)" style="stroke:#000000; stroke-linecap:round; stroke-linejoin:round; stroke-width:2; stroke-opacity:0.1; fill:none" points="
  150.358,924.012 2640.76,924.012 
  "/>
<polyline clip-path="url(#clip852)" style="stroke:#000000; stroke-linecap:round; stroke-linejoin:round; stroke-width:2; stroke-opacity:0.1; fill:none" points="
  150.358,510.442 2640.76,510.442 
  "/>
<polyline clip-path="url(#clip852)" style="stroke:#000000; stroke-linecap:round; stroke-linejoin:round; stroke-width:2; stroke-opacity:0.1; fill:none" points="
  150.358,96.8724 2640.76,96.8724 
  "/>
<polyline clip-path="url(#clip850)" style="stroke:#000000; stroke-linecap:round; stroke-linejoin:round; stroke-width:4; stroke-opacity:1; fill:none" points="
  150.358,1800.78 150.358,47.2441 
  "/>
<polyline clip-path="url(#clip850)" style="stroke:#000000; stroke-linecap:round; stroke-linejoin:round; stroke-width:4; stroke-opacity:1; fill:none" points="
  150.358,1751.15 169.256,1751.15 
  "/>
<polyline clip-path="url(#clip850)" style="stroke:#000000; stroke-linecap:round; stroke-linejoin:round; stroke-width:4; stroke-opacity:1; fill:none" points="
  150.358,1337.58 169.256,1337.58 
  "/>
<polyline clip-path="url(#clip850)" style="stroke:#000000; stroke-linecap:round; stroke-linejoin:round; stroke-width:4; stroke-opacity:1; fill:none" points="
  150.358,924.012 169.256,924.012 
  "/>
<polyline clip-path="url(#clip850)" style="stroke:#000000; stroke-linecap:round; stroke-linejoin:round; stroke-width:4; stroke-opacity:1; fill:none" points="
  150.358,510.442 169.256,510.442 
  "/>
<polyline clip-path="url(#clip850)" style="stroke:#000000; stroke-linecap:round; stroke-linejoin:round; stroke-width:4; stroke-opacity:1; fill:none" points="
  150.358,96.8724 169.256,96.8724 
  "/>
<path clip-path="url(#clip850)" d="M49.9225 1751.6 L79.5983 1751.6 L79.5983 1755.54 L49.9225 1755.54 L49.9225 1751.6 Z" fill="#000000" fill-rule="evenodd" fill-opacity="1" /><path clip-path="url(#clip850)" d="M93.7186 1764.5 L110.038 1764.5 L110.038 1768.43 L88.0936 1768.43 L88.0936 1764.5 Q90.7556 1761.74 95.3389 1757.11 Q99.9454 1752.46 101.126 1751.12 Q103.371 1748.59 104.251 1746.86 Q105.154 1745.1 105.154 1743.41 Q105.154 1740.65 103.209 1738.92 Q101.288 1737.18 98.1861 1737.18 Q95.9871 1737.18 93.5334 1737.94 Q91.1028 1738.71 88.3251 1740.26 L88.3251 1735.54 Q91.1491 1734.4 93.6028 1733.82 Q96.0565 1733.25 98.0935 1733.25 Q103.464 1733.25 106.658 1735.93 Q109.853 1738.62 109.853 1743.11 Q109.853 1745.24 109.043 1747.16 Q108.256 1749.06 106.149 1751.65 Q105.57 1752.32 102.469 1755.54 Q99.3667 1758.73 93.7186 1764.5 Z" fill="#000000" fill-rule="evenodd" fill-opacity="1" /><path clip-path="url(#clip850)" d="M49.5521 1338.03 L79.2279 1338.03 L79.2279 1341.97 L49.5521 1341.97 L49.5521 1338.03 Z" fill="#000000" fill-rule="evenodd" fill-opacity="1" /><path clip-path="url(#clip850)" d="M90.1306 1350.93 L97.7695 1350.93 L97.7695 1324.56 L89.4593 1326.23 L89.4593 1321.97 L97.7232 1320.3 L102.399 1320.3 L102.399 1350.93 L110.038 1350.93 L110.038 1354.86 L90.1306 1354.86 L90.1306 1350.93 Z" fill="#000000" fill-rule="evenodd" fill-opacity="1" /><path clip-path="url(#clip850)" d="M98.0935 909.81 Q94.4824 909.81 92.6537 913.375 Q90.8482 916.917 90.8482 924.046 Q90.8482 931.153 92.6537 934.718 Q94.4824 938.259 98.0935 938.259 Q101.728 938.259 103.533 934.718 Q105.362 931.153 105.362 924.046 Q105.362 916.917 103.533 913.375 Q101.728 909.81 98.0935 909.81 M98.0935 906.107 Q103.904 906.107 106.959 910.713 Q110.038 915.296 110.038 924.046 Q110.038 932.773 106.959 937.38 Q103.904 941.963 98.0935 941.963 Q92.2834 941.963 89.2047 937.38 Q86.1492 932.773 86.1492 924.046 Q86.1492 915.296 89.2047 910.713 Q92.2834 906.107 98.0935 906.107 Z" fill="#000000" fill-rule="evenodd" fill-opacity="1" /><path clip-path="url(#clip850)" d="M90.1306 523.787 L97.7695 523.787 L97.7695 497.421 L89.4593 499.088 L89.4593 494.829 L97.7232 493.162 L102.399 493.162 L102.399 523.787 L110.038 523.787 L110.038 527.722 L90.1306 527.722 L90.1306 523.787 Z" fill="#000000" fill-rule="evenodd" fill-opacity="1" /><path clip-path="url(#clip850)" d="M93.7186 110.217 L110.038 110.217 L110.038 114.152 L88.0936 114.152 L88.0936 110.217 Q90.7556 107.463 95.3389 102.833 Q99.9454 98.1803 101.126 96.8377 Q103.371 94.3146 104.251 92.5785 Q105.154 90.8192 105.154 89.1294 Q105.154 86.3748 103.209 84.6387 Q101.288 82.9026 98.1861 82.9026 Q95.9871 82.9026 93.5334 83.6665 Q91.1028 84.4304 88.3251 85.9813 L88.3251 81.2591 Q91.1491 80.1249 93.6028 79.5462 Q96.0565 78.9675 98.0935 78.9675 Q103.464 78.9675 106.658 81.6526 Q109.853 84.3378 109.853 88.8285 Q109.853 90.9581 109.043 92.8794 Q108.256 94.7776 106.149 97.3701 Q105.57 98.0414 102.469 101.259 Q99.3667 104.453 93.7186 110.217 Z" fill="#000000" fill-rule="evenodd" fill-opacity="1" /><polyline clip-path="url(#clip852)" style="stroke:#009af9; stroke-linecap:round; stroke-linejoin:round; stroke-width:4; stroke-opacity:1; fill:none" points="
  223.283,1751.15 221.958,1734.44 221.144,1717.73 220.841,1701.02 221.048,1684.31 221.767,1667.6 222.996,1650.89 224.736,1634.18 226.987,1617.47 229.749,1600.76 
  233.022,1584.05 236.805,1567.34 241.1,1550.63 245.905,1533.92 251.221,1517.21 257.048,1500.5 263.386,1483.79 270.234,1467.08 277.594,1450.37 285.464,1433.66 
  293.846,1416.95 302.738,1400.24 312.141,1383.53 322.054,1366.82 332.479,1350.11 343.415,1333.4 354.861,1316.69 366.818,1299.98 379.286,1283.27 392.265,1266.56 
  405.755,1249.85 419.756,1233.14 434.267,1216.43 449.29,1199.72 464.823,1183.01 480.867,1166.31 497.422,1149.6 514.488,1132.89 532.065,1116.18 550.152,1099.47 
  568.751,1082.76 587.86,1066.05 607.48,1049.34 627.611,1032.63 648.253,1015.92 669.405,999.206 691.069,982.496 713.243,965.786 735.929,949.077 759.125,932.367 
  782.832,915.657 807.049,898.947 831.778,882.237 857.018,865.527 882.768,848.817 909.029,832.107 935.801,815.397 963.084,798.688 990.878,781.978 1019.18,765.268 
  1048,748.558 1077.32,731.848 1107.16,715.138 1137.51,698.428 1168.37,681.718 1199.74,665.008 1231.62,648.299 1264.01,631.589 1296.91,614.879 1330.33,598.169 
  1364.25,581.459 1398.69,564.749 1433.63,548.039 1469.09,531.329 1505.06,514.62 1541.53,497.91 1578.52,481.2 1616.02,464.49 1654.03,447.78 1692.56,431.07 
  1731.59,414.36 1771.13,397.65 1811.19,380.94 1851.75,364.231 1892.83,347.521 1934.42,330.811 1976.51,314.101 2019.12,297.391 2062.24,280.681 2105.87,263.971 
  2150.01,247.261 2194.67,230.552 2239.83,213.842 2285.5,197.132 2331.69,180.422 2378.38,163.712 2425.59,147.002 2473.31,130.292 2521.53,113.582 2570.27,96.8724 
  
  "/>
<circle clip-path="url(#clip852)" cx="340.633" cy="1337.58" r="18" fill="#ff0000" fill-rule="evenodd" fill-opacity="1" stroke="#000000" stroke-opacity="1" stroke-width="3.84"/>
<circle clip-path="url(#clip852)" cx="927.38" cy="820.619" r="18" fill="#ff0000" fill-rule="evenodd" fill-opacity="1" stroke="#000000" stroke-opacity="1" stroke-width="3.84"/>
<circle clip-path="url(#clip852)" cx="1514.13" cy="510.442" r="18" fill="#ff0000" fill-rule="evenodd" fill-opacity="1" stroke="#000000" stroke-opacity="1" stroke-width="3.84"/>
<circle clip-path="url(#clip852)" cx="770.914" cy="924.012" r="18" fill="#0000ff" fill-rule="evenodd" fill-opacity="1" stroke="#000000" stroke-opacity="1" stroke-width="3.84"/>
<polyline clip-path="url(#clip852)" style="stroke:#0000ff; stroke-linecap:round; stroke-linejoin:round; stroke-width:4; stroke-opacity:1; fill:none" points="
  220.841,924.012 236.137,924.012 377.571,924.012 462.568,924.012 534.431,924.012 612.494,924.012 684.462,924.012 761.619,924.012 851.013,924.012 930.456,924.012 
  1000.12,924.012 1076.07,924.012 1152.48,924.012 1236.95,924.012 1317.33,924.012 1400.9,924.012 1471.25,924.012 1557.14,924.012 1635.82,924.012 1708.48,924.012 
  1782.09,924.012 1864.59,924.012 1939.34,924.012 2024.93,924.012 2104.18,924.012 2182.3,924.012 2258.16,924.012 2335.92,924.012 2421.12,924.012 2544.88,924.012 
  2570.27,924.012 
  "/>
</svg>
